<svg width="500" height="600" xmlns="http://www.w3.org/2000/svg"><g fill="#161616" fill-rule="evenodd"><path d="M15.0215844 2.08723555C13.8649599 2.14340443 12.690002 2.35256664 11.5775935 2.66604248 10.701902 2.91318555 9.89037763 3.28603992 9.13061824 3.74662473 8.40213355 4.0387029 7.69359996 4.38641501 7.01148809 4.75338503 6.08241398 5.25516035 5.23584036 5.87569273 4.38657064 6.49622511 4.03499994 6.75353207 3.69151752 7.01458362 3.35234885 7.28633401 2.70366855 7.80843712 2.16444968 8.40436218 1.68670176 9.08320321 1.2504737 9.69785123.953364104 10.4205575.667038885 11.1122371.376399915 11.810336.193065499 12.553905.0264468691 13.2894499-.0873283121 13.7912252.172035964 14.3074439.688068421 14.4470637 1.17066931 14.5791943 1.74116287 14.2903258 1.85493805 13.7912252 1.88459509 13.6628392 1.91479135 13.5344532 1.94660526 13.4066021 2.44268662 13.7922951 3.13234755 13.8361603 3.68720377 13.5258941 4.04955885 13.3231512 4.40382564 13.0995455 4.68368023 12.7903492 4.86485777 12.5897461 5.02931953 12.3725598 5.20186957 12.1633976 5.61922497 11.6659018 6.04035491 11.1726855 6.46795547 10.681609 7.51350086 9.48654926 8.57899734 8.29202442 9.82189683 7.29435814 10.4225867 6.84982158 11.0507766 6.4550346 11.729114 6.13353463 12.1674989 5.97305212 12.616129 5.84627093 13.0706905 5.74463201 13.712361 5.72376928 14.3556491 5.74516695 14.9973195 5.81310455 15.9679135 5.97091235 16.907772 6.25443146 17.829297 6.58930497 18.0714063 6.70378249 18.302192 6.82842391 18.5248894 6.97606782 18.7206258 7.14617928 18.9115093 7.32217511 19.1056281 7.49282151 19.3267078 7.68540053 19.5693563 7.92558935 19.8195539 8.06574408 20.4261751 8.40222241 21.1444146 8.45625153 21.7618202 8.09891047 22.0670181 7.92130982 22.2250092 7.71268255 22.4234418 7.42809356 22.7076101 7.02100292 22.6720217 6.5358108 22.6024624 6.07843564 22.5178051 5.53921439 22.1894208 5.10484173 21.8588796 4.68865708 21.6270155 4.3939042 21.3805925 4.13071288 21.1001987 3.88036016 20.7550986 3.57062891 20.3674002 3.2972737 19.9565155 3.07955242 19.3461197 2.75591269 18.644596 2.54300589 17.9727292 2.37556914 17.1725284 2.17443105 16.3345823 2.07600178 15.5058029 2.07600178 15.3445765 2.07600178 15.1828108 2.07921143 15.0215844 2.08723555M51.6605359.0101638924C50.714746.0433302783 49.7775836.162622279 48.8673821.419929241 48.0229654.6579783 47.2011958 1.00087594 46.3923675 1.3352145 45.7798149 1.58770699 45.2254979 1.89904306 44.6781908 2.27136249 44.3853949 2.4676861 44.0925991 2.66828924 43.7998032 2.86461284 43.2476431 3.2385371 42.7046497 3.62102042 42.1611171 4.00778327 41.6785162 4.35014597 41.1921408 4.6930436 40.7203243 5.05038466 39.9093391 5.66877728 39.0244809 6.27486623 38.8098718 7.34474965 38.6518807 8.12843925 38.9026175 8.91587344 39.6273276 9.33794245 40.3326259 9.7477078 41.1986114 9.60755307 41.7842031 9.06244747 41.8019973 9.04586428 41.8187131 9.02928108 41.8354289 9.01323283 42.3773439 8.59383853 42.8782782 8.12683442 43.4034774 7.68764728 43.8833821 7.28751088 44.375689 6.90342274 44.8679958 6.52147436 45.2481451 6.24062996 45.6277552 5.96246027 46.0111398 5.68750024 46.2349156 5.52648278 46.4592307 5.3638605 46.6862418 5.20498282 46.8404584 5.13009098 46.9962927 5.05894373 47.1532054 4.98993625 48.1092404 4.63099036 49.0981678 4.36137974 50.1081248 4.20143217 50.8856784 4.12333068 51.6502907 4.11851621 52.4251482 4.19608275 53.0759854 4.30628075 53.7041754 4.47211268 54.3221202 4.70427738 54.9109472 4.97816753 55.4658034 5.30287715 55.9931595 5.68054599 56.9427239 6.44551264 57.7995427 7.28269641 58.5824885 8.21189015 58.7124402 8.38735103 58.8386175 8.56495168 58.9567064 8.74897163 59.0305794 8.86184433 59.0893542 8.98488092 59.1529821 9.10417292 59.1928843 9.1795997 59.2284727 9.25877108 59.2602866 9.33794245 59.3551891 9.55138419 59.5110234 9.72898484 59.6690145 9.89802642 59.963428 10.2200613 60.4374014 10.3912427 60.8671588 10.3912427 61.4128483 10.3912427 62.1014308 10.0841861 62.3332949 9.55780349 62.4093248 9.38822697 62.4826586 9.21918539 62.5522178 9.04586428 62.6153064 8.82225864 62.6304045 8.59651324 62.5964338 8.37076784 62.5522178 7.82726707 62.3818246 7.32174715 62.1941765 6.81408747 61.8868217 5.97583382 61.4991234 5.1675369 61.0084342 4.41915345 60.0459285 2.94592398 58.5905768 1.72358218 56.9939497.979478267 55.4986958.284588988 53.8405978 6.48370246e-14 52.1965194 6.48370246e-14 52.0174988 6.48370246e-14 51.8390173.00320965025 51.6605359.0101638924" transform="rotate(-9 1831.219 -1395.51)"/><path d="M3.34372622,0.356030724 C2.76490088,0.699648333 2.33036244,1.26613779 2.15307971,1.92064752 C1.95454541,2.65020018 2.10945809,3.27649828 2.41313167,3.9377788 C3.19496531,5.6411968 4.04502765,7.2943981 5.23343716,8.74898955 C5.90174274,9.56656249 6.62038096,10.2916013 7.46820629,10.9201563 C8.19131852,11.455613 8.96476339,11.8962786 9.76617084,12.2974479 C11.4198776,13.1240486 13.1613869,13.7232635 14.9828692,14.0234352 C16.1321311,14.2107604 17.2288233,14.2327655 18.3825592,14.0849366 C19.5094511,13.9416215 20.5798585,13.7102862 21.65474,13.3356358 C23.4678334,12.7031311 25.1349623,11.6892052 26.6488562,10.5144731 C27.4726337,9.87745461 28.2913779,9.22294488 29.038538,8.49564915 C29.681118,7.87386491 30.2358955,7.21935518 30.7688622,6.49883024 C31.419831,5.62144866 31.6949828,4.11381935 31.059673,3.15970215 C30.7185296,2.65245711 30.2968539,2.27160015 29.6984548,2.10402309 C29.4954465,2.07750416 29.2941159,2.05098523 29.0933446,2.02220937 C28.682854,2.0244663 28.2980889,2.12828509 27.9440827,2.33535843 C27.4323676,2.55371641 27.1672823,3.02428634 26.8820641,3.46720887 C26.1337855,4.27518985 25.2490496,4.95339735 24.3911577,5.6378114 C23.1440268,6.58177242 21.8471225,7.42417158 20.4277421,8.07924555 C19.6179459,8.37772455 18.8003201,8.6005964 17.9524948,8.75576035 C17.3032038,8.81951862 16.6662163,8.8330602 16.014129,8.78171504 C14.9084887,8.58310519 13.8414368,8.27898386 12.7928401,7.86596565 C11.9405408,7.47890214 11.1128485,7.04557156 10.3382852,6.51801415 C9.82992552,6.07057775 9.37133926,5.58308085 8.94183408,5.05947306 C8.12532684,3.88586941 7.49393186,2.59546962 6.89385496,1.29491365 C6.62485497,0.708676053 5.9414496,0.25898273 5.34472821,0.0936625994 C5.12046835,0.031032789 4.88893821,0 4.65796733,0 C4.19938107,0 3.74359107,0.121309993 3.34372622,0.356030724" transform="rotate(-9 2021.165 -1499.954)"/><path d="M28.1987474,5.1507711 C28.170132,5.21695292 28.1423115,5.28234686 28.1136961,5.34852868 C28.1415166,5.28234686 28.170132,5.21616504 28.1987474,5.1507711 M1.72862722,1.96840693 C1.27779873,2.22983147 0.942481019,2.66516744 0.80229803,3.16572019 C0.65314333,3.70807858 0.75631801,4.21754986 1.00584373,4.70974149 C1.28228458,5.25042765 1.54022128,5.80337679 1.80152238,6.35298148 C1.92488341,6.66011352 2.04880517,6.96613073 2.17328766,7.27214795 C2.35552555,7.72532099 2.48225097,8.20859408 2.6336486,8.67235788 C2.94205117,9.608804 3.18765177,10.5692187 3.45063506,11.5184852 C3.68726394,12.362959 3.93454674,13.2035308 4.18407246,14.0441027 C4.44032696,14.9086432 4.70555317,15.7904633 5.01675941,16.634937 C5.40422519,17.6867667 5.80514854,18.7296778 6.25205191,19.7575389 C6.44045785,20.1884156 6.63503183,20.6087016 6.84754925,21.0289875 C6.97707833,21.2881824 7.15875548,21.5384588 7.31856409,21.780374 C7.76995331,22.4598549 8.32171356,23.0869394 8.90431406,23.6571682 C9.36243207,24.1081116 9.88559498,24.4955104 10.4093186,24.8656296 C10.9436962,25.2446673 11.5767626,25.4927141 12.1857175,25.7234811 C12.768318,25.9436575 13.4013843,26.0456632 14.017068,26.1086503 C14.4067767,26.150456 14.7415337,26.1220281 15.136289,26.0607132 C15.5456233,25.9977261 15.9005667,25.8500128 16.2818644,25.6844625 C17.2037077,25.2814563 17.9769571,24.6694218 18.6363779,23.9163631 C18.9492663,23.5568346 19.2627155,23.1978636 19.5778468,22.8427945 C20.0886737,22.270336 20.635948,21.7368962 21.1703256,21.1900785 L22.1628212,20.1778249 C22.7695331,19.5568719 23.3106395,18.8734892 23.8315595,18.1811879 C24.4012631,17.4231125 24.9227438,16.6243463 25.430767,15.8250226 C25.8558018,15.1566899 26.2892476,14.4928165 26.6924139,13.8133356 C27.4763172,12.487261 28.26751,11.1611864 28.9987044,9.80445436 C29.3099107,9.22753665 29.570651,8.61773185 29.8487741,8.02353449 C30.1498871,7.38028518 30.4302531,6.72923216 30.7016474,6.07260505 C30.8311765,5.77717859 30.9511731,5.47339101 30.9371548,5.14284782 C30.9287438,4.93159004 30.9152863,4.70974149 30.838466,4.5113041 C30.7050118,4.16292384 30.5362315,3.88199 30.2037174,3.68856928 C29.7478423,3.4249151 29.2594448,3.46839296 28.8041304,3.68856928 C28.4710557,3.84743068 28.1469526,4.12836452 27.9669576,4.45054658 C27.7774302,4.78945089 27.6473404,5.15957008 27.4993072,5.51854109 C27.1886617,6.23871276 26.8668015,6.95386775 26.5348482,7.6662357 C26.0812161,8.64170041 25.5490814,9.57145764 25.010218,10.5034445 C23.8242699,12.5552649 22.5833701,14.5853463 21.1613539,16.4855516 C20.2983874,17.5502016 19.2946772,18.4855329 18.2836775,19.4113883 C17.5541652,20.0791636 16.8554932,20.7965482 16.0957014,21.4303216 C15.8781374,21.5819367 15.6521624,21.7201739 15.4149728,21.8400167 C15.1996517,21.9158243 14.981527,21.9815985 14.7611593,22.0373393 C14.4325704,21.9514984 14.1135139,21.8439186 13.7938967,21.7240758 C13.4114775,21.5434755 13.0509269,21.3344473 12.7043945,21.0942043 C12.170017,20.6427035 11.6844231,20.1482822 11.2363983,19.6126127 C10.8640722,19.0892062 10.5360441,18.5407164 10.2646498,17.9565524 C10.0700758,17.5362664 9.88503425,17.112636 9.70111417,16.6878908 C8.86057697,14.5496722 8.09461712,12.3813534 7.40435608,10.190181 C7.03146933,9.00791774 6.65690038,7.82955636 6.24756605,6.66067092 C5.7658973,5.29557773 5.14572776,3.97563461 4.48630698,2.68690637 C4.15659659,2.04142743 3.45007433,1.70419534 2.74691645,1.70419534 C2.3897302,1.70419534 2.03366541,1.79059365 1.72862722,1.96840693" transform="rotate(-9 2021.165 -1499.954)"/></g></svg>