<svg width="500" height="600" xmlns="http://www.w3.org/2000/svg"><g fill="none" fill-rule="evenodd"><path d="M253.477 95.276c10.585-1.32 21.483 2.383 32.695 11.112 1.636 14.609 1.764 26.466.386 35.571-2.068 13.658-17.776 47.39-38.632 44.815-16.151-1.995-27.957-23.108-28.866-29.554-.872-6.19-.872-20.343 0-42.459 12.36-11.669 23.832-18.164 34.417-19.485z" fill="#EEDDC5"/><g fill="#161616"><path d="M223.97 105.35a2.665 2.665 0 00-.717.907c-.18.355-.365.708-.519 1.074-.188.451-.38.904-.548 1.365-.358.972-.703 1.947-1.045 2.923a34.564 34.564 0 00-.677 2.172c-.877.107-1.35 1.576-1.48 2.298-.197 1.09-.305 2.198-.438 3.297a102.23 102.23 0 00-.381 3.645c-.143 1.716-.244 3.416-.235 5.139.002.51.013 1.022.029 1.534-.039.749-.071 1.498-.105 2.245-.08 1.851-.141 3.71-.11 5.563.025 1.328.049 2.656.071 3.984.017.922.12 1.85.186 2.771.16 2.334.35 4.665.55 6.997.027.595.063 1.191.113 1.788.095 1.135.2 2.258.343 3.387.267 2.105.615 4.198.96 6.291.131.802.275 1.602.406 2.403l.22 1.348.081.507c.032.195.066.388.11.579.178.803.301 1.142.693 1.846a1.38 1.38 0 001.084.701 1.379 1.379 0 001.082-.7c.158-.307.315-.614.465-.923.146-.414.248-.838.304-1.271.105-.7.125-1.386.069-2.086a30.478 30.478 0 00-.038-.428l.04-.023.027-.022c.354 1.145.727 2.28 1.108 3.416.198.586.425 1.163.636 1.744.162.442.345.874.534 1.303.226.515.51 1.321.826 1.708.438.537.798 1.035 1.564 1.055.98.024 1.563-1.126 1.844-1.859.66-1.704.535-3.646 0-5.358-.3-.963-.539-1.947-.825-2.916-.286-.964-.575-1.927-.857-2.892-.308-1.233-.599-2.47-.892-3.706-.404-1.71-.88-3.405-1.353-5.098-.333-1.333-.65-2.67-.82-4.037-.233-1.87-.456-3.74-.66-5.614-.369-3.414-.778-6.822-1.107-10.24-.103-2.238-.187-4.474-.183-6.715.004-1.265.002-2.527.038-3.792.03-1.006.09-2.003.164-3.004.2-1.528.418-3.052.651-4.575.132-.86.265-1.72.392-2.579.079-.536.16-1.072.23-1.609.11-.843.2-1.77.052-2.617-.107-.609-.357-1.642-.993-1.926a.816.816 0 00-.444-.142.822.822 0 00-.445.142" opacity=".2"/><path d="M272.22 114.726a.33.33 0 00.044-.007l-.046.007h.002zm2.469.148l.03-.014-.03.014zm-2.967 1.476l-.011-.002.011.002zm-11.925.586l-.02-.018a.32.32 0 00.02.018zm3.757 1.87a2.236 2.236 0 01-.34-.287.757.757 0 01-.267.143.93.93 0 01-.478.01 1.056 1.056 0 01-.381-.232c-.217.186-.517.274-.785.195a1.003 1.003 0 01-.353-.2 1.023 1.023 0 01-.215.167c-.21.117-.439.156-.664.071l-.195-.086a6.066 6.066 0 01-.222-.19.725.725 0 01-.408.087l-.223-.031-.241-.11a12.773 12.773 0 01-.126-.104l-.04.053a3.81 3.81 0 01-.233.189c-.194.15-.513.158-.738.091a.964.964 0 01-.475-.342.951.951 0 01-.369.075.781.781 0 01-.59-.265.707.707 0 01-.31-.014.806.806 0 01-.5-.427c-.206.197-.556.15-.743-.048a.851.851 0 01-.155-.19l-.011-.03c-.208-.05-.36-.22-.433-.441-.085-.255-.062-.531-.03-.796a3.832 3.832 0 01.417-1.34c.147-.264.454-.417.73-.342a.615.615 0 01.72-.04c.1.062.18.147.239.254.025.033.05.067.072.1.01 0 .018-.002.028-.004a.709.709 0 01.537.06.765.765 0 01.603-.077c.217.063.36.206.484.398.098.15.16.317.215.488a.906.906 0 01.068-.023c.227-.068.432-.018.637.09.17.088.306.22.425.37l.006-.003c.168-.104.415-.159.603-.084.103.042.204.079.295.138.232-.267.628-.35.93-.152.12.079.222.173.313.277a.812.812 0 01.462-.143c.247 0 .468.137.65.304.012.01.023.022.034.033a.771.771 0 01.386-.069.916.916 0 01.186.03c.007-.04.015-.08.025-.12.133-.515.747-.827 1.185-.515.092.065.18.134.267.206a.794.794 0 01.11-.083c.197-.124.397-.13.616-.087.11.022.21.064.303.119a.788.788 0 01.645-.38c.22-.008.425.086.621.185a.88.88 0 01.484-.328.83.83 0 01.464.014.84.84 0 01.679-.411c.266-.016.51.09.747.207.127.063.25.13.375.198a.943.943 0 01.572-.427c.238-.06.478-.034.71.033a.935.935 0 01.417-.263c.094-.02.184-.033.274-.04a.854.854 0 01.164-.255c.075-.103.172-.173.272-.244.208-.147.476-.128.711-.11.16.011.324.036.488.056a1.224 1.224 0 01.579-.606c.172-.08.348-.132.523-.197a1.33 1.33 0 00.066-.04l.012-.014a.68.68 0 01.857-.118.794.794 0 01.253 1.035c-.118.203-.247.392-.443.52-.111.074-.234.127-.356.18a1.11 1.11 0 01-.163.45c-.14.208-.296.35-.527.438a1.489 1.489 0 01-.51.08 3.32 3.32 0 01-.447-.033.84.84 0 01-.182.31.95.95 0 01-.783.28.945.945 0 01-1.027.428.885.885 0 01-.357.461c-.134.08-.272.142-.428.136a1.365 1.365 0 01-.348-.052 2.645 2.645 0 01-.486-.208l-.01.022c-.08.19-.309.351-.485.403-.341.101-.626-.086-.9-.269a.79.79 0 01-.202.184.94.94 0 01-.456.13.792.792 0 01-.274-.053.906.906 0 01-.185.326.974.974 0 01-.393.25.992.992 0 01-.71-.06.902.902 0 01-.453.33.917.917 0 01-.577-.03l-.04.089c-.14.284-.458.439-.764.439a.79.79 0 01-.428-.12zm-12.541 4.529l.007.05-.033-.23.026.18m-2.871-4.918l.041.088-.041-.088m-1.73-3.193a.68.68 0 00-.223.497c0 .166.073.389.223.496.292.21.574.428.814.686.366.46.654.96.9 1.48.231.538.439 1.098.553 1.667.047.242.096.482.145.724l.101.698a144.556 144.556 0 01.286 2.79c.088.913.109 1.83.112 2.745.001.944-.013 1.888-.037 2.832-.023.884-.119 1.76-.235 2.637-.15 1.003-.312 2.003-.459 3.007l.043-.288a204.155 204.155 0 00-.153 1.057c-.07.469-.137.938-.204 1.406a47.44 47.44 0 01-.91 4.198 7.949 7.949 0 01-.398 1.126 3.09 3.09 0 00-.215.525c-.021.071-.037.145-.053.216-.034.148-.077.333-.077.476-.002.376.192.745.558.934.34.176.701.229 1.085.264.552.052 1.103.041 1.656.016.578-.026 1.155-.057 1.734-.075.264-.007.529.005.793.009.193.001.4-.013.582-.072.298-.095.431-.18.676-.36a.975.975 0 00.176-1.256c-.244-.384-.716-.564-1.179-.491-.397.03-.79.087-1.185.141-.368.043-.738.086-1.108.116-.397.031-.794.066-1.19.081.148-.3.273-.61.367-.924.27-.91.492-1.828.684-2.754a28 28 0 00.276-1.483c.085-.566.157-1.132.235-1.698.123-.887.224-1.777.349-2.666a39.26 39.26 0 00.302-2.673c.033-.457.046-.908.05-1.366.004-.448-.026-.9-.04-1.349-.025-.822-.044-1.646-.106-2.466a42.464 42.464 0 00-.327-2.792 49.817 49.817 0 00-.496-2.892c-.144-.694-.387-1.382-.663-2.038a9.954 9.954 0 00-.996-1.824 6.54 6.54 0 00-.63-.766c-.212-.226-.486-.408-.74-.591-.168-.12-.317-.205-.539-.205a.799.799 0 00-.537.205m16.456 14.573c.07.1.156.188.254.26a2.33 2.33 0 01-.062-.321l-.192.061"/><path d="M253.994 99.555c.153-.014.307-.024.461-.035.304-.02.682-.046 1.038-.09l.053-.009c1.061-.127 2.156-.258 3.216-.507l.039-.01c.888-.209 1.994-.47 3.038-.745l.045-.012a9.042 9.042 0 00-.546.665c-.395.518-.768 1.035-1.01 1.66-.117.294-.178.605-.203 1.009-.01.132.036.346.085.5.062.21.165.394.333.593.24.286.55.409.88.54.182.073.388.098.584.123l.096.011c.205.025.409.039.619.039.394-.003.759-.076 1.111-.147l.092-.02c.298-.058.626-.137 1.03-.248a19.32 19.32 0 001.209-.386 60.203 60.203 0 001.74-.64c.644-.25 1.282-.508 1.919-.77a21.26 21.26 0 00-.186 1.47 5.63 5.63 0 00.207 2.143c.181.594.357 1.084.555 1.54.283.652.658 1.257 1.022 1.813.442.671.899 1.239 1.399 1.733.443.44.948.832 1.429 1.19l.755.568c.527.398 1.096.666 1.786.948.744.301 1.53.503 2.133.644.275.065.552.123.831.17-.007.258-.016.523-.025.787l-.004.157-.012.361-.005.138-.004.129a48.772 48.772 0 00.01 3.494c.02.507.057 1.018.094 1.512l.027.354c.055.822.141 1.656.225 2.464.046.432.09.858.13 1.283.057.594.116 1.19.179 1.784l.015.148c.068.672.141 1.367.318 2.04.118.455.476.838.938 1 .042.11.088.226.14.339.145.32.408.732.823.868l.002.128.008.134c.027.716.013 1.444 0 2.15v.05l-.008.426a51.553 51.553 0 01-.11 2.753c-.034.453-.072.907-.112 1.36l-.018.203c-.033.386-.067.771-.093 1.159-.114 1.62-.317 3.26-.511 4.847l-.061.507a188.55 188.55 0 00-.355 2.904c-.076.65-.152 1.3-.23 1.948l-.057.337c.043.25.067.505.085.755.048.656-.045 1.302-.139 1.95-.049.452-.084.915-.18 1.356-.092.43-.259.83-.433 1.232-.303.698-.839 1.234-1.45 1.67-.48.343-1.04.557-1.564.822a9.203 9.203 0 00-1.236.76c-.377.33-.699.705-1.013 1.097-.597.801-1.142 1.639-1.705 2.464-.605.88-1.157 1.791-1.709 2.703-.308.51-.628 1.016-.928 1.532-.288.494-.544 1.005-.822 1.505-.282.51-.597 1.004-.897 1.502-.28.465-.555.93-.87 1.372-.465.653-.948 1.291-1.426 1.937-.289.39-.566.815-.911 1.16-.268.27-.543.532-.832.778-.387.332-.794.639-1.198.95-.27.209-.538.417-.842.573-.713.367-1.455.716-2.223.945a7.66 7.66 0 01-1.022.233c-.487.074-.98.162-1.474.141-.965-.04-1.902-.247-2.769-.68-.57-.286-1.101-.638-1.641-.975a15.917 15.917 0 00-1.746-.963 6.124 6.124 0 00-.762-.25 10.69 10.69 0 00-.973-.184c-.476-.057-.95-.103-1.43-.124a9.996 9.996 0 00-1.65.075c-.575.086-1.131.203-1.677.407-.529.244-1.027.533-1.533.824-1.142.654-2.37 1.174-3.707 1.184-.77.006-1.5-.214-2.179-.57-.504-.264-1-.584-1.398-.993a10.545 10.545 0 01-1.311-1.667c-.417-.649-.728-1.351-1.056-2.047-.316-.679-.633-1.357-1.006-2.007a20.227 20.227 0 00-1.133-1.758c-.65-.769-1.37-1.465-2.112-2.143-.353-.323-.713-.634-1.062-.959-.303-.283-.6-.568-.916-.833-.27-.194-.54-.39-.83-.553a15.8 15.8 0 00-.808-.426c-.432-.16-.868-.285-1.308-.427-.59-.19-1.145-.455-1.705-.71-.81-.267-1.713-.355-2.21-1.162-.266-.431-.35-.966-.436-1.46-.176-1.022-.323-2.047-.526-3.065-.21-1.06-.509-2.1-.718-3.161a24.477 24.477 0 01-.305-2.09c-.053-.474-.036-.949-.02-1.425.011-.364.012-.733.054-1.096a89.052 89.052 0 01-.448-5.442 38.766 38.766 0 01-.04-2.282l.001-.684c-.003-.947-.002-1.894.01-2.843.011-.931.051-1.864.094-2.736.026-.555.037-1.11.048-1.668l.006-.277c.006-.279.014-.556.022-.834.03-.989.076-1.964.137-2.9l.033-.527.006-.105c.046-.707.092-1.436.171-2.155.21-1.516.368-3.031.52-4.496l.008-.08.012-.114.037-.364c.139-1.348.279-2.696.432-4.044.068.03.152.043.24.043a.9.9 0 00.233-.031 45.864 45.864 0 005.275-1.737c.755-.298 1.56-.646 2.535-1.095l.083-.037c.756-.344 1.615-.733 2.412-1.15l3.73-1.942a65.101 65.101 0 002.025-1.114c.342-.195.684-.388 1.026-.578.173-.094.347-.189.52-.281.412-.224.812-.44 1.195-.668l.973-.583.972-.583c.363-.215.723-.449 1.073-.677l.06-.04.221-.142.354-.23c.33-.21.656-.425.982-.639l.197-.129.41-.27a51.756 51.756 0 002.974-2.121c.49-.375 1.013-.78 1.506-1.215a13.97 13.97 0 001.105-1.114l.031-.036.035-.038c.485.165 1.011.216 1.598.261.277.02.562.033.847.033.29 0 .605-.014.937-.04m12.896-35.243a60.189 60.189 0 00-3.539.154c-.477.033-.967.09-1.398.141l-.154.018c-.613.072-1.338.166-2.077.318-1.084.221-2.167.528-3.214.825l-.078.02a26.16 26.16 0 00-1.13.358l-.426.14c-.451.145-.923.31-1.443.503-.797.295-1.596.64-2.367.972l-.502.216c-.067.03-.133.058-.202.086l-.036.015c-.464.198-.916.398-1.369.595l-.138.061-.956.42c-.92.376-1.834.762-2.75 1.15a12.46 12.46 0 00-.636.297c-.169.08-.302.146-.44.21l-.404.19c-.31.148-.619.293-.931.434-.481.215-.965.427-1.448.64l-.187.081-.986.435-.66.295c-.614.277-1.23.553-1.849.819l-.043.015-.032.028-.001-.002-.049.019.003-.001-.075.023-.419.18.058-.02-.248.1-.12.048a4.333 4.333 0 00-.285.122l-.15.065-.035.016-.034.025-.002-.002c-.715.296-1.416.603-2.116.91l-.645.283c-.812.327-1.623.652-2.435.974-.265.106-.536.2-.808.296l-.079.029c-.152.052-.304.108-.457.163-.888.322-1.681.538-2.424.657a8.29 8.29 0 01-.743.03c-.202 0-.404-.006-.606-.01l-.075-.002-.167-.004-.168-.004-.168-.005-.2-.01a4.82 4.82 0 00-.318-.014 1.2 1.2 0 00-.406.058c-.317.111-.528.275-.667.517-.174.298-.158.593-.111.866.093.575.704.943 1.107 1.187.17.104.345.2.52.294l.206.11c.496.272 1.022.543 1.66.851.693.34 1.32.607 1.916.814.123.043.247.082.37.12l-.424.332c-.28.224-.56.448-.842.67-1.586 1.212-3.484 2.6-5.54 3.71-.173.093-.345.19-.518.285l-.075.04c-.32.177-.651.36-.985.525l-1.89.936a50.54 50.54 0 01-2.117.961 154.721 154.721 0 00-2.052.91c-.452.19-.92.386-1.399.543-.527.172-1.071.32-1.597.464l-.142.038c-.762.206-1.558.383-2.26.537l-.19.043-.616.139-.143.031c-.44.1-.893.202-1.28.45-.205.132-.334.303-.471.484l-.064.084c-.146.193-.164.472-.17.718-.01.299.103.64.342 1.044.158.27.375.51.584.736.186.198.386.38.61.581l.288.256c.256.228.512.456.772.682.178.156.361.307.544.457l.06.05c.176.146.354.292.526.445.286.25.586.519.847.826.085.12.164.24.235.371.012.04.023.08.033.123l-.048.08c-.24.278-.525.541-.777.774l-.095.088c-.302.285-.611.542-.982.842l-.414.319-.413.317-.043.032-.024.033-.002-.004-.071.047-.043.037c-.002.002-.033.027-.032.029-.677.518-1.55 1.206-2.339 1.948a7.14 7.14 0 00-.566.6c-.324.39-.523.799-.739 1.33-.069.165-.113.344-.158.516l-.03.133a8.704 8.704 0 00-.193 1.085c-.13 1.015-.092 2.06-.055 3.07l.01.24c.017.455.038.907.06 1.359.031.668.062 1.335.08 2 .017.688.04 1.255.076 1.777.044.652.125 1.294.207 1.89l.048.369c.053.425.108.84.18 1.243l.305 1.73c.122.706.268 1.406.434 2.18.084.394.167.786.246 1.179.105.531.235 1.103.396 1.752.105.425.235.855.361 1.271l.021.068.12.397c.17.566.343 1.129.524 1.69.171.532.381 1.076.664 1.712.272.622.523 1.137.787 1.62.158.291.344.574.523.848l.046.07c.1.15.198.302.292.455.314.509.626 1.018.928 1.534.289.496.615 1.058 1.034 1.543.207.238.42.47.631.703l.069.074c.133.147.268.294.4.442.429.48.854.963 1.28 1.447a89.32 89.32 0 002.509 2.763.818.818 0 00.59.246.85.85 0 00.447-.126c.006.249.02.502.037.756l.003.047.046.717c.044.755.11 1.743.228 2.697.07.568.137 1.137.202 1.705l.008.067a115.7 115.7 0 00.525 4.051l.028.187c.124.827.253 1.682.418 2.522.164.85.451 1.658.78 2.554.332.901.67 1.799 1.016 2.694.124.324.246.647.368.972.2.542.4 1.074.616 1.603.311.765.609 1.535.905 2.303l.1.255c.17.437.373.952.6 1.458.191.433.42.852.638 1.242.159.29.35.569.535.838l.2.293c.237.353.458.721.683 1.097l.119.198c.138.232.274.464.41.696l.093.159c.283.484.574.986.882 1.472.802 1.266 1.697 2.5 2.562 3.692.229.314.447.615.665.918.516.718 1.12 1.546 1.776 2.303.341.394.633.703.917.971.277.26.563.515.987.88.268.228.534.462.799.695 1.117.982 2.27 1.992 3.598 2.704.4.217.81.418 1.216.599.282.127.57.236.837.337.209.076.426.155.643.21.862.212 1.764.356 2.56.485l.123.02c1.923.31 3.896.344 5.804.375l.15.003c.107.002.214.002.322.002.966 0 1.852-.072 2.713-.216a20.381 20.381 0 002.59-.61c.813-.251 1.575-.636 2.313-1.01l.467-.234.482-.235c.625-.304 1.271-.62 1.88-.987.782-.47 1.473-1.077 2.141-1.664a30.033 30.033 0 011.513-1.226l.08-.06.157-.122c1.23-.952 2.826-2.231 4.265-3.678.483-.488.954-1.007 1.41-1.507l.413-.455c.512-.563.9-1.046 1.223-1.52l.116-.172c.281-.415.534-.79.807-1.15l.24-.323c.164-.202.33-.401.493-.6l.154-.186c.997-1.207 2.028-2.456 2.823-3.84a35.8 35.8 0 001.104-2.131l.16-.33c.279-.564.539-1.165.768-1.695.125-.29.252-.581.38-.869.762-1.7 1.519-3.4 2.27-5.105.466-1.06.817-1.941 1.103-2.772.27-.792.524-1.643.776-2.602l.302-1.154c.096.03.235.045.382.045.175 0 .33-.023.44-.062.18-.064.379-.144.6-.245l.078-.035.242-.112c.45-.202.97-.442 1.432-.742.924-.59 1.83-1.31 2.696-2.138a399.245 399.245 0 005.033-4.926l.281-.278.037-.038c.749-.744 1.524-1.512 2.253-2.301.845-.917 1.679-1.856 2.453-2.734a25.757 25.757 0 002.226-2.977c.757-1.167 1.425-2.23 2.041-3.25.664-1.093 1.15-2.297 1.58-3.358.151-.373.3-.747.449-1.121l.09-.225c.246-.614.49-1.228.743-1.838.469-1.121.838-2.305 1.177-3.419.21-.696.357-1.44.473-2.416.096-.813.043-1.686-.156-2.668-.13-.626-.361-1.242-.59-1.818a38.394 38.394 0 00-.58-1.389l-.147-.338.017.07-.029-.087a.309.309 0 00-.014-.036l-.057-.14c-.281-.66-.562-1.32-.786-1.983-.232-.682-.403-1.422-.552-2.4a9.804 9.804 0 01-.064-1.412c.015-.445.052-.927.118-1.518a9.759 9.759 0 01.34-1.467c.167-.545.351-1.102.545-1.655l.173-.483c.152-.416.303-.839.437-1.258.207-.662.267-1.37.305-1.983.057-.91-.165-1.875-.675-2.954-.207-.443-.487-.856-.758-1.256l-.032-.046c-.648-.96-1.447-1.823-2.22-2.657l-.03-.033-.118-.128a49.057 49.057 0 00-1.512-1.566 13.19 13.19 0 01-1.141-1.294l-.06-.08c-.303-.413-.614-.833-.84-1.295a6.056 6.056 0 01-.278-.955c-.041-.548-.011-1.108.014-1.603.02-.404.055-.838.113-1.324.061-.36.144-.719.226-1.066l.017-.068.025-.104c.03-.132.063-.262.095-.392l.014-.06c.077-.317.157-.643.21-.966.065-.427.092-.78.026-1.21a2.634 2.634 0 00-.297-.824c-.174-.331-.497-.57-.761-.74a4.153 4.153 0 00-.388-.22 1 1 0 00-.582-.459l-.064-.02c-.197-.059-.399-.122-.615-.16l-.17-.032-.098-.018c-.14-.027-.282-.052-.422-.085l-.149-.035c-.085-.024-.17-.046-.256-.069a11.112 11.112 0 01-.823-.271l-.084-.05-.072-.041c-.131-.075-.263-.15-.393-.226a22.775 22.775 0 01-2.305-1.577 23.653 23.653 0 01-1.47-1.333 17.62 17.62 0 01-.412-.408c-.24-.268-.47-.54-.7-.83a14.292 14.292 0 01-.51-.703l-.072-.108-.071-.107a7.453 7.453 0 00-.368-.616.93.93 0 00-.082-.138c.04-.406-.096-.786-.363-1.016a7.998 7.998 0 01-.257-.227l-.185-.166a5.805 5.805 0 00-.344-.273l-.194-.147c-.174-.135-.358-.26-.54-.386l-.169-.117-.064-.044c-.42-.29-.897-.62-1.386-.915a28.494 28.494 0 00-1.4-.783l-.154-.08a15.657 15.657 0 00-2.225-.977c-.248-.089-.506-.16-.756-.23l-.31-.086a25.127 25.127 0 00-1.635-.396 17.64 17.64 0 00-1.971-.274 49.643 49.643 0 00-2.707-.16l-.677-.027a38.02 38.02 0 01-3.148-.27l-.208-.03a16.237 16.237 0 00-1.482-.174c-.35-.019-.734-.03-1.173-.03-.172 0-.343.002-.516.004"/><path d="M236.347 119.303l.016-.003-.016.003m7.456-1.696a10.47 10.47 0 01-.441.181c-.187.071-.374.14-.561.205l-.002.004a.527.527 0 01-.581.211l-.022-.006a13.75 13.75 0 01-1.68.448c-.088.017-.163.023-.255-.028a.398.398 0 01-.108-.093 5.525 5.525 0 01-.296.025.656.656 0 01-.164.202.609.609 0 01-.195.098c-.056.37-.386.625-.732.528a1.058 1.058 0 01-.233-.085.973.973 0 01-.232-.198.577.577 0 01-.265.028c-.143.216-.406.338-.649.255a1.178 1.178 0 01-.414-.215c-.037.012-.073.02-.112.03-.055.012-.112.026-.169.037-.11.024-.22.045-.33.066l.017-.003-.031.006h-.005.004c-.09.08-.214.102-.325.131-.1.027-.2.058-.3.089-.206.062-.412.124-.622.175-.13.031-.265.052-.397.075-.243.045-.54.06-.773-.11a10.848 10.848 0 01-.884.152c-.28.033-.622.062-.878-.165a.873.873 0 01-.164-.2c-.128.018-.257.03-.389.03a1.07 1.07 0 01-.32-.04l-.217.043a5.062 5.062 0 01-.55.084c-.163.016-.327.015-.491.018-.2.001-.398-.001-.6-.025a1.843 1.843 0 01-.357-.068c-.055-.017-.108-.039-.162-.057l-.094.031a1.253 1.253 0 01-.717.008 1.3 1.3 0 01-.549-.319 5.607 5.607 0 01-.724-.295c-.13-.06-.26-.12-.389-.182-.139-.065-.275-.15-.41-.224-.1-.054-.195-.125-.29-.19a.533.533 0 01-.203-.016.906.906 0 01-.367-.205 3.102 3.102 0 01-.326-.392c-.082-.111-.168-.22-.25-.33a1.78 1.78 0 01-.151-.259c-.06-.12-.123-.24-.176-.364a2.34 2.34 0 01-.152-.481c-.056-.293.042-.596.245-.756.21-.165.468-.136.71-.013.123.061.245.169.353.258.145.117.272.289.392.436l.022.027a.676.676 0 01.33.28c.05.101.087.17.112.258l.036.047c.028.03.058.057.088.084l.05.033c.056-.113.115-.225.18-.331.06-.099.139-.175.223-.246.052-.028.104-.056.156-.086a.582.582 0 01.35-.014.67.67 0 01.23.092c.136.077.22.197.322.32l.045.057a.65.65 0 01.301-.237.622.622 0 01.524.056c.065.037.12.08.171.127a.592.592 0 01.189-.203.596.596 0 01.347-.126.707.707 0 01.52.214c.04.043.077.086.11.13a.53.53 0 01.134-.07c.151-.056.375-.053.526.057.12.088.25.163.332.307.026.046.05.092.073.14l.033.053a.77.77 0 01.062-.076l.114-.12a.517.517 0 01.31-.113.61.61 0 01.32.083.86.86 0 01.078-.067c.24-.182.569-.124.79.121a.542.542 0 01.416-.204.589.589 0 01.263.054.546.546 0 01.513-.116.758.758 0 01.325.19.547.547 0 01.259.026c.16-.172.417-.189.637-.088a.571.571 0 01.054-.07l.112-.117a.521.521 0 01.304-.11.598.598 0 01.314.083c.052.03.1.067.144.11a.585.585 0 01.375-.028.673.673 0 01.336.217.569.569 0 01.515-.123.57.57 0 01.614-.137.524.524 0 01.415-.125l.002-.013a.678.678 0 01.115-.313c.079-.111.172-.152.283-.211.1-.037.205-.04.312-.011a.653.653 0 01.287.164.443.443 0 01.023-.018 2.57 2.57 0 01.023-.092.686.686 0 01.23-.309c.197-.155.454-.15.676-.019a.475.475 0 01.136-.057.787.787 0 01.024-.078.573.573 0 01.613-.382.516.516 0 01.303-.315.544.544 0 01.52.1c.138-.014.274.045.398.148.038.032.072.07.102.11a.398.398 0 01.042.007l-.004-.012c-.076-.217-.154-.483-.111-.704.044-.217.138-.39.332-.461.174-.064.37-.014.523.117.038-.136.114-.245.245-.292a.362.362 0 01.22-.002c.12.03.199.116.275.22.07.1.118.227.17.338.074.155.147.31.214.466l.222.533c.066.162.133.323.192.489.086.247.143.493.163.75.01.124-.01.24-.076.333-.073.102-.166.136-.278.153a.414.414 0 01-.197-.016l-.014.029c-.009.216-.12.406-.308.474a.462.462 0 01-.348-.02m-26.007 29.443l-.014-.103.014.103zm68.556.869a.359.359 0 00-.005-.017l.005.017zm-67.56 9.72l-.012-.091.012.091zm.027.2l-.022-.162a.654.654 0 01-.005-.038l.027.2zm-.868-15.766a40.68 40.68 0 00-.182 2.565c-.026.83-.075 1.654.037 2.48l-.01-.068.064.459c.205 1.676.244 3.365.426 5.044.092.842.156 1.687.232 2.528.078.868.167 1.733.28 2.596.073.532.16 1.06.245 1.59.085.52.145 1.041.229 1.56.161.993.36 1.981.577 2.962.225 1.017.587 1.998.841 3.007.245.972.451 1.952.745 2.91a17.23 17.23 0 001.24 2.966c.473.901.928 1.815 1.41 2.714.262.492.544.976.82 1.46.248.432.507.86.777 1.276.628.972 1.316 1.92 2.121 2.752.707.733 1.434 1.47 2.239 2.1.473.367.95.707 1.464 1.013.42.25.835.515 1.265.748 1.863 1.01 3.93 1.557 5.938 2.19.99.312 1.998.576 3.017.774 1.17.227 2.352.351 3.534.493.543.065 1.084.138 1.628.195.557.058 1.12.068 1.677.09 1.083.04 2.163.104 3.247.117 1.08.014 2.16.023 3.238-.05.522-.036 1.042-.105 1.562-.172.665-.087 1.33-.178 1.993-.278.989-.15 1.952-.398 2.927-.617a16.264 16.264 0 001.577-.414 20.517 20.517 0 001.9-.733c.478-.212.953-.429 1.421-.66.509-.25.986-.539 1.467-.836.917-.567 1.858-1.111 2.724-1.756.523-.39.999-.831 1.49-1.258.37-.321.78-.607 1.103-.976.792-.906 1.559-1.848 2.196-2.871.299-.479.579-.97.861-1.456.268-.458.536-.916.784-1.384.516-.967 1.038-1.94 1.485-2.943.492-1.1.965-2.213 1.391-3.34.41-1.08.817-2.163 1.239-3.238.388-.996.755-2 1.145-2.995.403-1.026.814-2.046 1.2-3.078.38-1.01.79-2.016 1.114-3.044.167-.531.314-1.066.474-1.599.143-.475.297-.948.416-1.43.24-.974.424-1.958.574-2.951.073-.483.152-.965.233-1.448a8.44 8.44 0 00.09-.664c.007-.095-.105-.617-.07-.5-.103-.354-.353-.71-.685-.88-.254-.133-.455-.208-.746-.208-.262 0-.542.075-.768.208-.389.227-.65.636-.744 1.07-.1.463-.171.937-.236 1.405-.07.517-.161 1.032-.252 1.546-.083.47-.19.935-.298 1.4-.12.51-.278 1.01-.429 1.51-.148.494-.281.993-.437 1.485-.17.543-.368 1.077-.564 1.612-.36.99-.73 1.978-1.112 2.96-.394 1.012-.811 2.012-1.194 3.028-.411 1.091-.84 2.177-1.25 3.269a122.972 122.972 0 01-1.31 3.368c-.27.625-.55 1.244-.853 1.855a84.067 84.067 0 01-1.13 2.194c-.349.655-.736 1.289-1.109 1.93-.205.352-.417.697-.632 1.042-.198.318-.433.617-.657.916-.413.532-.839 1.065-1.347 1.502-.265.229-.54.448-.805.678-.27.23-.53.471-.8.702-.873.633-1.806 1.182-2.724 1.749-.48.296-.957.581-1.467.824-.469.222-.94.44-1.413.653-.554.21-1.112.396-1.68.567-.555.166-1.132.265-1.694.404-1.094.27-2.202.446-3.316.606a31.8 31.8 0 01-1.269.15c-.557.051-1.114.074-1.673.093-.53.017-1.062 0-1.593-.005-.54-.004-1.08-.016-1.62-.032-.559-.017-1.117-.05-1.676-.078-.504-.025-1.01-.033-1.514-.07-.553-.038-1.1-.1-1.651-.171-.533-.067-1.068-.124-1.6-.19a29.598 29.598 0 01-2.228-.39 28.1 28.1 0 01-2.278-.612c-1.447-.456-2.91-.863-4.316-1.434-.22-.096-.44-.193-.653-.303-.317-.163-.622-.349-.929-.531-.552-.328-1.103-.648-1.623-1.025-.479-.39-.926-.821-1.376-1.245a17.297 17.297 0 01-1.402-1.485 23.505 23.505 0 01-1.233-1.795c-.445-.73-.866-1.474-1.292-2.216-.407-.707-.758-1.446-1.148-2.162-.35-.645-.717-1.283-1.016-1.955a23.31 23.31 0 01-.854-2.61c-.277-1.016-.637-2.012-.99-3.003a34.507 34.507 0 01-.87-2.91c-.119-.462-.246-.924-.355-1.39-.124-.529-.235-1.063-.36-1.594a55.012 55.012 0 01-.627-2.947c-.085-.49-.193-.978-.283-1.468-.097-.525-.185-1.052-.28-1.576-.091-.51-.164-1.023-.254-1.533-.087-.495-.175-.989-.25-1.484-.083-.56-.155-1.122-.25-1.682-.076-.446-.194-.883-.266-1.33-.127-1.41-.018-2.837.113-4.242.028-.306-.279-.564-.563-.564-.329 0-.535.258-.564.564z"/><path d="M274.539 169.993a.877.877 0 00-.47.312c-.208.228-.386.486-.572.732l-.377.493c-.213.265-.424.53-.641.794-.283.341-.556.696-.852 1.027-.58.648-1.164 1.292-1.757 1.929-.663.465-1.331.928-1.976 1.416-.822.626-1.663 1.232-2.463 1.885l-1.435 1.17c-.196.16-.391.32-.592.475-.268.207-.48.426-.682.698-.112.15-.236.332-.27.515l-.004.022c-.393.253-.79.5-1.195.735-.224.13-.446.265-.673.389l-.08.044a1.366 1.366 0 00-.408.045c-.356.098-.598.315-.8.607-.132.187-.21.394-.29.605-.126.335-.035.77.143 1.067.181.306.49.544.839.635.288.075.563.105.857.025.18-.05.378-.13.54-.209l.288-.147c.193-.098.38-.217.565-.33.445-.27.89-.544 1.332-.817a39.547 39.547 0 002.31-1.568c1.67-1.2 3.292-2.458 4.904-3.733.466-.371.933-.736 1.383-1.123.328-.283.658-.565.986-.85.528-.455 1.045-.935 1.407-1.535a1.387 1.387 0 00-.399-1.834c.211-.283.417-.57.597-.873.3-.505.643-1.011.833-1.57.12-.355-.076-.766-.392-.948a.862.862 0 00-.656-.083m-46.263 3.62l-.02-.045.02.045m-.12-.271l.018.043a.07.07 0 01.004.01l-.023-.053m-.031-.074l.036.084-.036-.084m-3.304-10.154a.594.594 0 00-.351.258c-.087.144-.081.276-.059.432a3.655 3.655 0 00.02.148v-.004c.054.394.104.788.164 1.18.073.49.177.974.275 1.458.093.46.192.92.297 1.379l-.092-.168c-.15-.264-.45-.424-.759-.445-.06-.077-.122-.153-.184-.229-.211-.256-.472-.457-.743-.651-.243-.175-.547-.253-.845-.265a1.07 1.07 0 00-.48.132.774.774 0 00-.365.453c-.141.46.142.885.383 1.263.954 1.504 2.01 2.947 3.052 4.393.144.2.29.4.436.598l.05.085.794 1.336c.109.184.215.374.324.56l.205.387c.151.285.31.568.474.848.243.414.484.829.804 1.197a.679.679 0 00.253.177l.78 1.055c.152.205.325.398.49.594.158.193.32.384.48.579.167.202.357.39.535.582.178.193.363.394.57.567.372.371.864.886 1.446.673.23-.083.414-.189.542-.399.129-.21.14-.432.091-.666a.842.842 0 00-.009-.034.942.942 0 00-.03-.361c-.07-.157-.137-.315-.216-.468-.093-.179-.262-.34-.399-.493-.13-.144-.266-.283-.402-.425-.187-.196-.374-.393-.565-.588-.17-.176-.34-.354-.52-.523-.09-.083-.176-.17-.27-.25a15.899 15.899 0 00-.19-.157 1.515 1.515 0 00-.41-.25 24.286 24.286 0 01-1.018-1.437l-.069-.129c-.092-.167-.181-.336-.273-.504l-.696-1.272-.064-.117-.006-.01-.09-.206-.003-.007.04.09-.045-.1a72.12 72.12 0 01-.814-2.075 26.355 26.355 0 01-.714-2.27 43.23 43.23 0 01-.518-2.166c-.169-.774-.33-1.55-.443-2.332l.003.02c-.048-.35-.094-.7-.144-1.051-.02-.134-.153-.27-.27-.335a.62.62 0 00-.452-.057"/></g><path d="M246.978 162.883a.946.946 0 01.044-.082c.135-.157.271-.288.418-.408.163-.118.335-.22.528-.308.811-.34 1.555-.586 2.276-.751l.175-.042c.67-.157 1.362-.319 2.063-.43.479-.053.954-.068 1.44-.08l.194-.002h.071l.048-.003v.004l.05.001h.047l.058-.002v.005l.047-.004v.005l.053.003.048-.003v.004l.046-.002v.004l.057.006c.143.008.272.022.398.04.05.005.097.01.145.017l-.035-.011-.056-.022.476.075.064.01.065.011.044.009a1.777 1.777 0 01.158.035l.089.015-.546.076c-1.382.184-2.948.394-4.458.7-.851.17-1.644.37-2.424.612-.4.124-.796.266-1.132.386l-.044.016-.043.016-.048.021v-.004l-.051.015-.06.016a2.247 2.247 0 01-.145.037l-.052.013-.008.002zm-.097-8.294v-.031c.002-.08-.005-.16-.015-.247a9.22 9.22 0 011.231-.666 9.743 9.743 0 011.82-.552l.276-.05.257-.046.299-.056c.29-.04.583-.079.875-.105.444-.035.89-.05 1.309-.064.08-.002.158-.002.238-.002.277 0 .554.012.83.024l.215.012c.388.02.76.04 1.13.068a15.03 15.03 0 011.407.34l.053.015.131.037c.221.061.442.122.666.202l-.013.067a.461.461 0 00-.123-.012l-.048.001-.045.008v-.004l-.045.005a.986.986 0 00-.223.06.588.588 0 01-.149-.004c-.267-.036-.532-.07-.799-.1a33.01 33.01 0 00-1.25-.122 13.02 13.02 0 00-1.001-.033c-.391 0-.784.01-1.175.023l-.452.013c-.91.023-1.75.087-2.568.195-.192.026-.385.052-.571.09-.177.036-.346.102-.51.165-.289.115-.562.236-.836.356-.21.093-.422.187-.634.283l-.047.021-.11.049-.12.06h-.003zm6.584-3.589a16.36 16.36 0 00-3.437.337c-1.02.208-1.784.434-2.478.734-.48.208-.953.459-1.445.765a5.814 5.814 0 00-.71.535l-.067.062a1.28 1.28 0 00-.625.52l-.07.11c-.074.111-.15.227-.203.357-.107.256-.218.53-.291.827-.146.577-.15 1.181-.131 1.75.041 1.228.125 2.352.256 3.435.046.377.108.75.17 1.123.038.234.076.468.111.703l.033.227c.105.733.215 1.49.539 2.16.084.169.295.377.358.437.176.167.413.305.634.368.12.034.25.05.397.05.126 0 .253-.012.378-.027a7.47 7.47 0 001.05-.194 26.5 26.5 0 00.952-.288l.445-.14c1.138-.35 2.268-.59 3.223-.78.751-.147 1.524-.25 2.272-.35l.71-.095h-.007c.264-.025.528-.05.792-.078.212-.021.423-.042.635-.065.381-.042.754-.097 1.11-.164.27-.05.777-.186 1.133-.55a1.78 1.78 0 00.508-1.347l-.013-.271a60.868 60.868 0 01-.098-2.989l.003-.723a61.62 61.62 0 00-.028-2.744c-.01-.265-.02-.529-.033-.795l-.004-.133c-.013-.348-.026-.708-.104-1.047-.086-.36-.35-.62-.558-.776-.123-.093-.271-.15-.414-.206l-.086-.034c-.192-.078-.4-.127-.6-.175l-.13-.031c-.342-.086-.684-.16-1.027-.233l-.105-.022-.504-.107a6.72 6.72 0 00-1.079-.105 40.834 40.834 0 00-1.462-.031z" fill="#161616" fill-rule="nonzero"/><path d="M271.053 128.611l.036-.046-.036.046m-3.333-1.557a1.105 1.105 0 01-.07.01l.07-.01m-.226-1.522a2.2 2.2 0 01.1.004c.097.02.191.043.285.072.031.017.062.034.093.053.033.03.064.061.094.094.02.03.037.061.055.092.033.108.06.216.082.326.013.149.018.297.012.448l-.024.1a5.82 5.82 0 01-.18.172 2.126 2.126 0 01-.179.105c-.09.028-.178.051-.27.07a1.97 1.97 0 01-.163-.046 1.541 1.541 0 01-.1-.054 2.796 2.796 0 01-.09-.101 2.687 2.687 0 01-.145-.241 1.504 1.504 0 01-.037-.138 2.323 2.323 0 01-.004-.243l.025-.091a4.43 4.43 0 01.299-.462c.047-.055.096-.109.147-.16m-.367-2.768c-.464.122-.866.407-1.237.7-.066.05-.13.101-.194.151-.294.18-.575.381-.83.601-.169.148-.3.35-.411.543-.133.23-.23.486-.294.742-.095.384-.111.786-.146 1.178-.019.23.003.441.041.67.025.156.118.308.184.452.05.112.129.213.201.312.161.22.331.426.535.61a3.613 3.613 0 001.671.826c.23.08.469.135.707.171.369.059.732.09 1.104.052.368-.041.71-.12 1.054-.25.238-.09.47-.197.703-.298a4.52 4.52 0 00.32-.158c.253-.136.427-.34.598-.558l-.044.057.09-.117.03-.038-.025.033c.086-.114.167-.229.226-.364.084-.196.152-.382.201-.587a4.34 4.34 0 00.09-.578c.03-.28-.038-.575-.124-.84a5.817 5.817 0 00-.34-.785 4.634 4.634 0 00-.393-.637 5.007 5.007 0 00-.522-.621 5.38 5.38 0 00-.733-.593 2.554 2.554 0 00-.708-.347c-.002-.232-.19-.398-.413-.41-.212-.01-.424-.022-.636-.024h-.02c-.23 0-.465.05-.685.107" fill="#161616"/><path d="M269.63 129.1c-.494.015-.986.05-1.478.069-.548.02-1.096.045-1.644.052-.788.01-1.576.017-2.367.015a.879.879 0 00-.87.872c0 .475.396.87.87.871.79.002 1.58-.008 2.367-.017.548-.006 1.096-.033 1.644-.055.492-.02.985-.054 1.477-.097.329-.028.658-.058.983-.111.155-.025.328-.063.459-.155.074-.053.152-.102.209-.173.047-.026.096-.05.14-.08.16-.11.266-.265.266-.466a.541.541 0 00-.396-.52 2.018 2.018 0 01-.146-.043c-.075-.038-.142-.077-.233-.107-.141-.048-.304-.052-.454-.06a7.325 7.325 0 00-.305-.007c-.174 0-.349.006-.523.012m-31.774-1.39c.044.026.088.053.13.082.028.025.054.05.08.077.042.14.07.282.093.426.008.069.014.138.019.207a6.954 6.954 0 01-.544-.051 5.598 5.598 0 01-.201-.04.764.764 0 00-.076-.082 2.19 2.19 0 01.053-.162 2.5 2.5 0 01.182-.296l.026-.029c.077-.047.157-.091.238-.132m-.013-.008l-.026.012a.771.771 0 01.026-.012m-.476-3.523c-.237.005-.48.078-.698.166a3.982 3.982 0 00-.607.31 6.19 6.19 0 00-.655.455 3.136 3.136 0 00-.832 1.064 5.843 5.843 0 00-.31.807c-.11.355-.176.72-.249 1.085a3.477 3.477 0 00-.076.767c.009.238.07.467.153.688.111.3.253.569.455.815.299.363.686.652 1.106.857.53.257 1.109.365 1.694.388.331.012.662-.027.992-.063a5.53 5.53 0 00.603-.098 1.86 1.86 0 00.381-.148c.093-.046.183-.097.27-.158.174-.123.351-.252.51-.397.162-.146.3-.31.43-.487a6.67 6.67 0 00.12-.17c.123-.176.199-.378.28-.578.074-.182.128-.375.185-.561.062-.2.1-.408.1-.616-.004-.253-.064-.515-.11-.763-.03-.175-.058-.35-.095-.524a2.455 2.455 0 00-.094-.314c-.103-.29-.28-.53-.516-.728a7.596 7.596 0 00-.575-.452c-.14-.098-.28-.194-.421-.29a3.398 3.398 0 00-.576-.324 6.643 6.643 0 00-.413-.168 1.517 1.517 0 00-.102-.033c.03-.184-.087-.343-.26-.404a1.916 1.916 0 00-.659-.126h-.03" fill="#161616"/><path d="M233.647 132.308l-.01.008.01-.008m-.004-.014l-.013.005.013-.005m.742-.889l-.013.006.013-.006m3.467-.764c-.656.084-1.31.185-1.964.3a8.153 8.153 0 00-.818.181c-.245.068-.472.179-.702.286a.358.358 0 00-.217-.057c-.303.022-.632.027-.917.14a.522.522 0 00-.284.218.495.495 0 000 .481c.155.297.463.345.77.353h.057c.008.01.017.02.026.028.123.124.266.164.435.18.296.028.587-.054.877-.103.352-.039.706-.054 1.058-.072.454-.023.909-.057 1.363-.089.416-.028.828-.043 1.245-.033.343.008.688.015 1.033.035l.045.006c.142.022.284.045.423.081l.017.012c.188.122.524.177.742.089a.94.94 0 00.42-.246.791.791 0 00.17-.222.957.957 0 00.132-.488c.012-.194-.048-.341-.13-.512-.239-.487-.831-.565-1.305-.615-.2-.021-.404-.023-.605-.027a23.24 23.24 0 00-.464-.006c-.47 0-.94.02-1.407.08m-6.159-7.261l-.07.03.07-.03m4.362-.83c-.487.02-.97.067-1.456.116-.307.034-.614.083-.921.124a6.8 6.8 0 00-1.03.214c-.288.086-.565.207-.84.327-.611.25-1.249.493-1.78.889-.33.245-.595.541-.756.92-.07.164-.147.326-.221.49-.125.277-.194.532-.11.836a1.1 1.1 0 00.5.65c.251.148.556.187.838.11.247-.069.54-.256.65-.5.109-.243.204-.499.342-.727a.317.317 0 00.012-.01 6.08 6.08 0 01.862-.447c.537-.22 1.073-.426 1.648-.528a18.63 18.63 0 011.388-.128 18.01 18.01 0 011.534.002c.956.035 1.919.056 2.872.153.48.09.942.256 1.395.44.233.112.444.24.656.39.088.061.18.12.274.172.198.114.375.157.575.188l-.054-.007.073.017c.384.085.77.005 1.056-.279.329-.33.436-.909.168-1.312a3.61 3.61 0 00-.754-.844 3.56 3.56 0 00-.671-.456 7.502 7.502 0 00-.772-.315c-.35-.126-.701-.251-1.067-.322-.531-.104-1.077-.111-1.616-.125-.464-.01-.929-.019-1.393-.025-.343-.004-.689-.019-1.032-.019-.124 0-.247.002-.37.007m24.944 2.109l-.013.03.013-.03m.036-.085l-.006.015.006-.014v-.001m.041-.097l-.03.07-.001.003.031-.073m6.705-3.165c-1.008.028-2.019.042-3.024.12-.78.06-1.603.089-2.343.358-.331.12-.66.274-.981.42-.28.128-.557.272-.822.432a4.616 4.616 0 00-.799.621c-.274.262-.42.616-.544.965-.165.459.18.976.622 1.098a.9.9 0 00.688-.09c.212-.123.33-.309.411-.534.008-.027.017-.053.027-.079.01-.022.023-.044.035-.066.062-.065.126-.125.195-.185.356-.25.737-.445 1.135-.62a5.665 5.665 0 011.047-.334c.955-.108 1.924-.118 2.883-.126a79.79 79.79 0 011.294-.003c.399.002.79.04 1.184.088.639.1 1.276.202 1.907.347.345.078.693.152 1.031.253.281.084.568.155.848.247.052.028.102.058.153.09.328.224.81.13 1.077-.137a.9.9 0 000-1.26 3.375 3.375 0 00-.692-.567c-.241-.143-.515-.24-.78-.333-.453-.16-.939-.245-1.41-.335a25.993 25.993 0 00-1.497-.23c-.499-.068-1.005-.142-1.51-.142-.045 0-.09 0-.135.002" fill="#161616"/></g></svg>