<?xml version="1.0" encoding="UTF-8"?>
<svg width="500px" height="600px" viewBox="0 0 500 600" version="1.1" xmlns="http://www.w3.org/2000/svg" xmlns:xlink="http://www.w3.org/1999/xlink">
    <!-- Generator: Sketch 63.1 (92452) - https://sketch.com -->
    <title>confused</title>
    <desc>Created with Sketch.</desc>
    <g id="confused" stroke="none" stroke-width="1" fill="none" fill-rule="evenodd">
        <path d="M253.47661,94.2762501 C264.06164,92.9555505 274.96025,96.6593526 286.172438,105.387656 C287.807611,119.996717 287.936018,131.853907 286.557661,140.959225 C284.490124,154.617203 268.781979,188.349456 247.925827,185.773639 C231.774645,183.778904 219.969251,162.665882 219.060444,156.220396 C218.187548,150.029594 218.187548,135.876547 219.060444,113.761254 C231.419525,102.091951 242.89158,95.5969497 253.47661,94.2762501 Z" id="Path-8" fill="#EEDDC5"></path>
        <ellipse id="Oval" fill="#FFFFFF" cx="267.5" cy="126" rx="6.5" ry="8"></ellipse>
        <ellipse id="Oval" fill="#FFFFFF" cx="235.5" cy="128" rx="6.5" ry="8"></ellipse>
        <g id="Group-22" transform="translate(204.000000, 63.000000)" fill="#161616">
            <path d="M19.9697842,41.3499281 C19.6410966,41.6251212 19.4362454,41.8926595 19.2526124,42.2574148 C19.073223,42.611836 18.8876611,42.9647263 18.7341192,43.3310126 C18.5458568,43.7822681 18.3545081,44.2354373 18.1855349,44.6958787 C17.8282992,45.6676665 17.4834086,46.6425163 17.1412185,47.618897 C16.8920023,48.3319496 16.6663189,49.0610775 16.4641682,49.7909709 C15.5868962,49.8977565 15.114697,51.3674947 14.984688,52.0893504 C14.7871667,53.1790234 14.6787615,54.2870682 14.546052,55.3859271 C14.4013831,56.598461 14.265973,57.8140569 14.1648977,59.0308011 C14.021772,60.7474093 13.9206967,62.4471767 13.9299555,64.1695261 C13.9322702,64.6808725 13.9426863,65.1922189 13.9588892,65.7035652 C13.9203109,66.4525958 13.8875193,67.2016264 13.8543419,67.9491261 C13.7733273,69.8000775 13.7127593,71.6598321 13.7443935,73.5123145 C13.7686979,74.8400545 13.7926165,76.1677945 13.8153777,77.4955344 C13.8319664,78.4179482 13.9357422,79.3461031 14.0005539,80.2673687 C14.1610399,82.6009607 14.3504596,84.9322562 14.5506814,87.2635518 C14.5784578,87.8594847 14.6139499,88.4550348 14.663716,89.0524986 C14.7586187,90.1873355 14.8643235,91.3099245 15.0074492,92.4386375 C15.2740257,94.5437311 15.6220025,96.6369597 15.9672789,98.7301883 C16.0984453,99.5316549 16.2415711,100.33159 16.3727375,101.132674 C16.4464222,101.581251 16.5189495,102.031358 16.5926342,102.481465 L16.6740345,102.988219 C16.7056688,103.182653 16.7403893,103.375556 16.7839829,103.566928 C16.9618291,104.369543 17.0852799,104.709037 17.4772361,105.413287 C17.7245234,105.827416 18.0860027,106.062038 18.5609024,106.114474 C19.0338731,106.062038 19.3957382,105.827416 19.6426397,105.413287 C19.8011968,105.106708 19.9578249,104.80013 20.1082806,104.490873 C20.2544926,104.076743 20.3555679,103.653428 20.4115065,103.219779 C20.5168254,102.520122 20.5365004,101.833862 20.4805618,101.134205 C20.4689883,100.990676 20.4566432,100.848295 20.4431408,100.705914 C20.4566432,100.698642 20.4701456,100.690987 20.483648,100.68295 C20.4925211,100.675678 20.5013941,100.668405 20.5102671,100.661133 C20.8640307,101.805539 21.2370835,102.940376 21.6182377,104.076743 C21.815759,104.662725 22.0433713,105.239903 22.254395,105.821292 C22.4156525,106.262596 22.5992856,106.694714 22.7879338,107.123771 C23.014003,107.639327 23.2971682,108.445387 23.6135108,108.832341 C24.0521468,109.369332 24.4124687,109.867282 25.1778634,109.886792 C26.1573681,109.910532 26.740673,108.760768 27.0222951,108.028196 C27.6823709,106.323835 27.557377,104.381791 27.0222951,102.669775 C26.7225412,101.706791 26.4829695,100.723138 26.1967181,99.7544121 C25.9112382,98.7902792 25.6222862,97.8272945 25.3395068,96.8623961 C25.0316514,95.629194 24.7411564,94.3929299 24.4483466,93.156283 C24.0444311,91.4457988 23.5683741,89.751007 23.0946318,88.0581289 C22.7617005,86.7246478 22.4445863,85.3888702 22.2740699,84.0213248 C22.0418282,82.1512361 21.8188452,80.2807647 21.6155373,78.4072314 C21.2463423,74.9931522 20.8374116,71.5848142 20.5083382,68.1676731 C20.405334,65.9290016 20.3208473,63.6933922 20.3254767,61.4516588 C20.328563,60.1866889 20.3270199,58.9247809 20.3632835,57.659811 C20.3929889,56.6535762 20.4527854,55.6565273 20.5268558,54.655651 C20.726306,53.1277357 20.9454311,51.6044134 21.1784444,50.0810911 C21.3096108,49.2214474 21.4434778,48.3618037 21.5700148,47.50216 C21.6487147,46.9655524 21.7297292,46.4300932 21.7991703,45.8934857 C21.9091186,45.0503 21.9997778,44.1232933 21.8520226,43.2755146 C21.7451606,42.6669512 21.494787,41.6339243 20.8590155,41.3499281 C20.7112604,41.2550075 20.5631195,41.2075472 20.4145928,41.2075472 C20.2668376,41.2075472 20.1183109,41.2550075 19.9697842,41.3499281" id="Fill-1" opacity="0.200000003"></path>
            <path d="M66.8135476,50.7944838 C66.8286144,50.7957169 66.8433046,50.7981831 66.8579948,50.8014714 C66.8425513,50.7994162 66.8271077,50.79695 66.8116642,50.7948949 C66.8124175,50.7948949 66.8127942,50.7944838 66.8135476,50.7944838 L66.8135476,50.7944838 Z M69.8116642,49.7944838 L69.8414213,49.8084589 C69.8312511,49.8039376 69.8214577,49.7994162 69.8116642,49.7948949 L69.8116642,49.7944838 Z M66.823341,48.7944838 L66.823341,48.7944838 C66.8195743,48.7948949 66.8158076,48.7957169 66.8116642,48.796128 C66.8154309,48.7957169 66.8195743,48.7948949 66.823341,48.7944838 L66.823341,48.7944838 Z M54.8327578,47.7944838 L54.8116642,47.8125693 C54.8180676,47.8064038 54.825601,47.8002383 54.8327578,47.7944838 L54.8327578,47.7944838 Z M58.7372733,46.1212545 C58.6094295,46.2026389 58.5000137,46.3078632 58.3905978,46.4130875 C58.3095917,46.3469113 58.2182199,46.2963543 58.1195536,46.267582 C57.9755854,46.2256567 57.7759494,46.2145589 57.6319812,46.2577173 C57.5214136,46.2905999 57.3405895,46.3933579 57.2434589,46.4936498 C57.0223237,46.304575 56.7163432,46.2145589 56.4429955,46.2947102 C56.3224461,46.33047 56.1853884,46.4085661 56.0832669,46.4985822 C56.0133943,46.4282957 55.9339239,46.3674629 55.8640513,46.3284148 C55.6509783,46.2096265 55.4171739,46.1693453 55.1875925,46.2560731 C55.1215591,46.2852564 55.0555257,46.3156728 54.9894922,46.3444451 C54.9192357,46.4007565 54.850131,46.4587121 54.7825619,46.5179007 C54.7764193,46.5236552 54.7695088,46.5302317 54.7629822,46.5372193 C54.6355223,46.4698099 54.4869471,46.4336391 54.3464341,46.4488473 C54.2711867,46.4599452 54.1947876,46.4698099 54.1199241,46.4809078 C54.0373823,46.5179007 53.9563762,46.5548936 53.8738344,46.5935307 C53.8312198,46.6280574 53.7882213,46.6634062 53.7452228,46.699166 C53.7317857,46.6810806 53.7183487,46.6625841 53.7045278,46.6449097 C53.6281286,46.5775004 53.5486581,46.5129683 53.467652,46.4521356 C53.2695517,46.2996426 52.9439916,46.2914219 52.7147941,46.3588312 C52.5101673,46.419664 52.3604403,46.5491392 52.2310609,46.7082087 C52.1112793,46.6539524 51.9907299,46.6371001 51.8552078,46.6317567 C51.6363761,46.6223029 51.41025,46.7308155 51.2543804,46.9013939 C51.1511071,46.8833085 51.0436109,46.8870078 50.9376502,46.9161911 C50.7199703,46.9778459 50.5283965,47.1377375 50.4270429,47.3506522 C50.2178091,47.1504795 49.8615357,47.1977482 49.6703459,47.3995651 C49.6089194,47.4554655 49.556323,47.5216417 49.5129406,47.5935723 C49.5087175,47.6038481 49.5048784,47.6137129 49.5010392,47.6235777 C49.289118,47.6749567 49.1351679,47.8484124 49.0599205,48.0736581 C48.9731557,48.3338416 48.9969584,48.6149877 49.0299751,48.8846249 C49.0645275,49.1575503 49.1171239,49.4128014 49.2054244,49.6713407 C49.2729935,49.8719245 49.352464,50.0663428 49.4542015,50.2508963 C49.6046963,50.5193004 49.9172034,50.6754927 50.1978455,50.5994517 C50.3137879,50.6865906 50.435489,50.7408469 50.589823,50.7408469 C50.7126759,50.7408469 50.8266987,50.7071422 50.9330433,50.640966 C51.0351647,50.576845 51.1161708,50.4901171 51.1760616,50.3811936 C51.201784,50.3479 51.2267385,50.3133732 51.2493895,50.2784355 C51.2589873,50.2796686 51.2682013,50.2817237 51.2777992,50.2829568 C51.4129374,50.3215939 51.5480756,50.3215939 51.6828298,50.2829568 C51.7346584,50.2677486 51.7814961,50.247197 51.8248785,50.2229461 C51.881314,50.2562397 51.940437,50.2825458 52.0022473,50.3006312 C52.1477512,50.3425565 52.2947908,50.3425565 52.4402947,50.3006312 C52.6606621,50.2365102 52.8077016,50.0905937 52.9336258,49.8945313 C53.032676,49.7428604 53.0971738,49.5718709 53.1524576,49.3971822 C53.1751086,49.4058139 53.1977596,49.4140345 53.2215623,49.4210221 C53.4526793,49.4900755 53.6622971,49.4399295 53.8707631,49.3293618 C54.0439089,49.2393458 54.1828862,49.1049382 54.3042034,48.9516231 C54.306123,48.9524452 54.3084265,48.9540893 54.3103461,48.9553224 C54.4811884,49.0613688 54.7330368,49.1172692 54.9249945,49.0404061 C55.0298034,48.9984808 55.1326926,48.9606658 55.2252162,48.9002441 C55.462092,49.1723475 55.8659709,49.2566091 56.1727192,49.0547923 C56.2951882,48.9746409 56.3996131,48.8788704 56.4925206,48.772413 C56.6322658,48.8677725 56.7931263,48.9183295 56.9632008,48.9183295 C57.2150492,48.9183295 57.4400236,48.7785785 57.6262225,48.6084111 C57.6381239,48.5977243 57.6492574,48.5866264 57.6603909,48.5755286 C57.7847795,48.6359503 57.9156946,48.6523916 58.0535202,48.6454041 C58.1191697,48.6421158 58.1821318,48.631429 58.2435583,48.6153987 C58.2504687,48.6556799 58.2589149,48.695961 58.2692806,48.7370643 C58.4044188,49.2619525 59.0298168,49.5796805 59.4766942,49.2619525 C59.5707534,49.1957763 59.6605896,49.1250788 59.7485062,49.051915 C59.7849782,49.0843866 59.8226019,49.1131588 59.8606095,49.1365877 C60.0613972,49.2635967 60.2656401,49.2685291 60.4890788,49.2249596 C60.6007982,49.2031749 60.7021518,49.1600165 60.7973628,49.1041161 C60.9467059,49.3396377 61.186269,49.48391 61.4546258,49.4913086 C61.6799841,49.4995292 61.8876822,49.4037587 62.088086,49.3026447 C62.2090193,49.4703459 62.3894595,49.586257 62.5810333,49.6376361 C62.7461168,49.6828496 62.9023704,49.6676415 63.0540169,49.62325 C63.202976,49.8715135 63.4540566,50.0240065 63.7462162,50.0420919 C64.0176443,50.0581222 64.2668053,49.9491986 64.5079041,49.8304103 C64.6372836,49.7667002 64.7632078,49.6984689 64.8895159,49.6285934 C65.0192793,49.8447964 65.2342719,50.0059211 65.4722993,50.0646987 C65.7157016,50.1255315 65.9598718,50.0988144 66.1955957,50.030994 C66.2013545,50.0379816 66.2071132,50.0449691 66.2132559,50.0519567 C66.3015564,50.1481382 66.493514,50.2735031 66.6209739,50.2989871 C66.7173366,50.3195387 66.8090924,50.3322807 66.9012321,50.3392683 C66.9411592,50.4354498 66.996827,50.5229997 67.0678513,50.5994517 C67.1446344,50.7038539 67.2433006,50.7757846 67.3454221,50.8481263 C67.5569594,50.9977421 67.8299232,50.9784235 68.0698702,50.9607491 C68.233802,50.9488292 68.4004213,50.9229342 68.5670405,50.9032046 C68.5777901,50.9295107 68.5904594,50.9558168 68.6050481,50.9813008 C68.7386507,51.2192885 68.9187069,51.4087744 69.1571183,51.5209862 C69.3321837,51.6027816 69.51224,51.6553938 69.6903767,51.72157 C69.7134116,51.734723 69.7356787,51.7478761 69.7571779,51.7618512 C69.7617849,51.7667835 69.7663919,51.7713049 69.770231,51.7762373 C69.9982767,52.0220346 70.364148,52.0701254 70.6432544,51.8966698 C70.9745733,51.6878653 71.1081758,51.1983258 70.9012455,50.8419608 C70.78108,50.6348005 70.6493971,50.4420264 70.4497611,50.3121401 C70.3361222,50.2360992 70.2109658,50.1822539 70.0865773,50.1279977 C70.0639262,49.9644068 70.0040355,49.7938284 69.9203419,49.6696966 C69.7779094,49.4576039 69.6189684,49.3133316 69.3836283,49.2233155 C69.2170091,49.1591945 69.0384885,49.1448083 68.8630392,49.1415201 C68.7117766,49.140287 68.5597461,49.1563172 68.4084835,49.1756358 C68.3697081,49.0601357 68.3090494,48.9528562 68.2226685,48.860374 C68.0518262,48.6774646 67.7892281,48.5730624 67.5492811,48.5697741 C67.5078182,48.5693631 67.4659715,48.5714182 67.4245086,48.5747065 C67.1991503,48.2097098 66.7760757,48.0420086 66.3783394,48.1377791 C66.3073151,47.945416 66.1844622,47.7690831 66.0136199,47.6675581 C65.87733,47.5874068 65.7364331,47.5228748 65.5774921,47.5294513 C65.4573266,47.5327395 65.3386968,47.5487698 65.2235222,47.5824745 C65.0526799,47.6322094 64.8883642,47.7094834 64.7275037,47.7941561 C64.7244323,47.7867575 64.721361,47.7793589 64.7179058,47.7719604 C64.6368997,47.5791862 64.4030952,47.4139512 64.223039,47.360928 C63.8755956,47.25817 63.5853557,47.4484779 63.3054814,47.6350866 C63.2467424,47.5606897 63.1780215,47.4961577 63.0997028,47.4476559 C62.9737786,47.3675046 62.7802853,47.3161255 62.6351653,47.3161255 C62.5338117,47.3161255 62.4432077,47.3379102 62.355675,47.3695597 C62.3115247,47.2474831 62.2596962,47.1356823 62.1671726,47.0366235 C62.0711938,46.9338654 61.8999675,46.8167212 61.7667489,46.7813725 C61.5506046,46.7267052 61.3363799,46.725061 61.1279139,46.8085006 C61.0995041,46.8200095 61.0707105,46.8319294 61.0426847,46.8442604 C60.9236709,46.6831357 60.7566678,46.5585929 60.5819863,46.5068029 C60.3858056,46.4500804 60.1819466,46.4673438 59.9930603,46.5376303 C59.9803911,46.5076249 59.966954,46.4776196 59.9519813,46.4472032 C59.8091648,46.1574254 59.4859082,46 59.173785,46 C59.0175315,46 58.8639654,46.0394591 58.7372733,46.1212545 L58.7372733,46.1212545 Z" id="Fill-3" transform="translate(60.000000, 49.000000) scale(1, -1) rotate(-5.000000) translate(-60.000000, -49.000000) "></path>
            <path d="M47.0126872,59.3348758 C47.0155513,59.3518564 47.0180063,59.3684598 47.0204612,59.3854405 C47.0090047,59.3088387 46.9979574,59.2307275 46.98691,59.1541258 C46.9955024,59.2145016 47.0040948,59.2745 47.0126872,59.3348758 M44.1420138,54.4165145 C44.1563344,54.4459477 44.1698367,54.4753808 44.183339,54.5051914 C44.1694275,54.4761355 44.1559252,54.446325 44.1420138,54.4165145 M42.4124903,51.2237682 C42.2701023,51.3550855 42.1886792,51.5350808 42.1886792,51.7207363 C42.1886792,51.887147 42.2623282,52.1097826 42.4124903,52.217327 C42.7038129,52.4275101 42.9857248,52.6448629 43.2263115,52.9033467 C43.5916922,53.3625799 43.8797416,53.8625668 44.1264656,54.3836851 C44.3572324,54.9214069 44.564677,55.4810148 44.678833,56.0496791 C44.7258865,56.2919369 44.7749858,56.5323079 44.8240851,56.7741883 C44.8580455,57.0070124 44.8920058,57.2394591 44.9251479,57.4719059 C44.9226929,57.4534158 44.9198288,57.4345483 44.9169646,57.4164356 C45.0270289,58.3639579 45.1199085,59.3133669 45.2111514,60.2623985 C45.299121,61.1748274 45.319579,62.0917844 45.3228523,63.0072321 C45.324489,63.9506035 45.3101683,64.8954843 45.2860278,65.8388557 C45.2631148,66.7226061 45.166962,67.5980548 45.0511694,68.4761449 C44.9018257,69.4791374 44.7385705,70.4791111 44.5925,71.4828583 L44.6354619,71.1953187 C44.5683595,71.6451182 44.5028937,72.093031 44.4390646,72.5413211 C44.4533853,72.4454745 44.4677059,72.349628 44.4820265,72.2522721 C44.4128783,72.7205616 44.3445484,73.1896059 44.2782644,73.6578955 C44.1305572,74.5771166 43.9394791,75.4903002 43.7295795,76.4000876 C43.6174694,76.8864899 43.4959486,77.3728922 43.3682903,77.8562757 C43.2647726,78.2445674 43.1301587,78.6139916 42.9701767,78.9822838 C42.887117,79.1536001 42.8044665,79.3249163 42.7545489,79.5071757 C42.7336817,79.5781172 42.7177244,79.6517002 42.7017671,79.7226417 C42.6682159,79.8713171 42.6248448,80.0558405 42.6248448,80.1988556 C42.6232082,80.5746948 42.8167413,80.9444964 43.1829404,81.1331707 C43.5233624,81.3086378 43.8842423,81.3618439 44.2680353,81.3969374 C44.8195843,81.4486341 45.3707242,81.4384457 45.9239098,81.4131633 C46.5024634,81.3867489 47.0793804,81.3558064 47.657934,81.338071 C47.9218429,81.3309014 48.1869792,81.3425992 48.450888,81.34675 C48.644012,81.3482594 48.8518658,81.3335428 49.0327149,81.2746764 C49.3314024,81.1803393 49.4639706,81.0950585 49.7086489,80.9150632 C49.8477636,80.7852553 49.9451439,80.6335612 49.9979257,80.4580941 C50.0777121,80.1913087 50.0363868,79.8996182 49.8845881,79.6592472 C49.6411373,79.2754837 49.1693747,79.0951111 48.7062045,79.167562 C48.3089092,79.1977499 47.9157055,79.2554842 47.5212743,79.3094451 C47.1526202,79.3517081 46.7827387,79.3947258 46.4128572,79.4249137 C46.0163802,79.4562336 45.619494,79.4909497 45.2221987,79.5060437 C45.3707242,79.2068062 45.4963366,78.895871 45.5896253,78.5815397 C45.8600807,77.6721296 46.0822551,76.7540405 46.2737424,75.8280271 C46.3760327,75.3344552 46.4754588,74.8420153 46.5503353,74.3454246 C46.6350316,73.7794017 46.7070439,73.2133789 46.7851937,72.647356 C46.9083511,71.7598322 47.0090047,70.8696669 47.1337988,69.9806337 C47.2585929,69.0934872 47.3719305,68.2029445 47.4357596,67.3082511 C47.4693108,66.851282 47.4819948,66.4003504 47.4869047,65.9418719 C47.490178,65.4939591 47.4599001,65.0415182 47.4455795,64.5932281 C47.421439,63.7706082 47.4022084,62.9468563 47.340016,62.1272552 C47.2680036,61.1914307 47.1464828,60.2646626 47.0126872,59.3348758 C46.8707083,58.367354 46.7160455,57.4039831 46.5167841,56.4432536 C46.3731686,55.7493096 46.1301269,55.0606485 45.8535341,54.4048167 C45.5851245,53.7682296 45.2573866,53.1561702 44.8576363,52.5814684 C44.6706497,52.3116641 44.4566585,52.0565765 44.2279376,51.8150734 C44.015583,51.589419 43.7422635,51.4067823 43.4881745,51.2237682 C43.3204185,51.1045261 43.1714839,51.0188679 42.9493095,51.0188679 C42.7480023,51.0188679 42.5532417,51.0943376 42.4124903,51.2237682" id="Fill-5"></path>
            <path d="M58.8679245,65.7971698 C58.9380755,65.8967547 59.0239245,65.984566 59.1220377,66.0566792 C59.0940755,65.9521887 59.0734717,65.8447547 59.0602264,65.7358491 C58.9964528,65.7564528 58.9321887,65.776566 58.8679245,65.7971698" id="Fill-7"></path>
            <g id="Group-11">
                <path d="M49.9940571,35.5549008 C50.1472,35.541482 50.3007238,35.5311303 50.4553905,35.5203952 C50.7590095,35.4993084 51.1369143,35.4740042 51.4927238,35.4291469 L51.5460571,35.4214789 C52.6070095,35.2941914 53.7022476,35.1626865 54.7620571,34.9138623 L54.8005333,34.9035106 C55.6889143,34.6953265 56.794819,34.4330835 57.8393905,34.1589552 C57.8542476,34.1547378 57.8691048,34.1501371 57.8839619,34.1470699 C57.699581,34.3479695 57.5224381,34.5680389 57.3376762,34.8122623 C56.9433905,35.3302306 56.5700571,35.8470488 56.3273905,36.4716012 C56.2112,36.7664329 56.1502476,37.0766005 56.1251048,37.4807001 C56.1144381,37.6125884 56.1605333,37.8269069 56.2096762,37.9810322 C56.2721524,38.1907499 56.3750095,38.3747801 56.5430095,38.5741461 C56.7826286,38.8601597 57.0938667,38.9828465 57.4226286,39.1132012 C57.6054857,39.1868133 57.8112,39.2121174 58.0073905,39.2374216 L58.1026286,39.2481567 C58.3079619,39.2734608 58.5117714,39.2868797 58.7216762,39.2868797 C59.1159619,39.2841959 59.4805333,39.2105838 59.8332952,39.1404223 L59.9254857,39.1208691 C60.2233905,39.0622095 60.5506286,38.9828465 60.9552,38.872045 C61.3704381,38.7581763 61.779581,38.6190035 62.163581,38.485965 C62.7677714,38.2747137 63.3361524,38.0649959 63.9049143,37.8464601 C64.547581,37.5961023 65.1860571,37.3384601 65.8230095,37.0750669 C65.7334857,37.6440269 65.6771048,38.0995016 65.6371048,38.5457748 C65.5670095,39.2677099 65.6412952,40.028368 65.843581,40.6889597 C66.0252952,41.2832238 66.2009143,41.7732042 66.3990095,42.2282955 C66.6816762,42.8812193 67.0565333,43.4862186 67.4211048,44.0421431 C67.8630095,44.7130865 68.3197714,45.2805129 68.8199619,45.7747106 C69.2633905,46.2152329 69.7677714,46.6074472 70.2485333,46.9655393 L71.0043429,47.5329657 C71.5312,47.9313144 72.099581,48.1993084 72.7902476,48.4811046 C73.5342476,48.7820706 74.3197714,48.9841205 74.922819,49.1252103 C75.1978667,49.1896208 75.474819,49.2478971 75.7544381,49.2958216 C75.7472,49.5534638 75.7380571,49.8183906 75.7292952,50.0821672 L75.7247238,50.2393597 L75.7129143,50.6001355 L75.7083429,50.7381582 L75.7037714,50.8669793 C75.6904381,51.3431574 75.6771048,51.8208691 75.6771048,52.2955137 C75.675581,53.0070971 75.6873905,53.6822578 75.7144381,54.3608691 C75.7334857,54.8684857 75.770819,55.3791695 75.8081524,55.8733672 L75.834819,56.2268586 C75.8900571,57.0492435 75.9761524,57.8831303 76.059581,58.6905627 C76.1056762,59.1234171 76.1502476,59.5486035 76.1906286,59.9737899 C76.2470095,60.5684374 76.3064381,61.163085 76.3689143,61.7577325 L76.3837714,61.9057235 C76.4523429,62.5782005 76.5254857,63.2732978 76.7022476,63.9457748 C76.8199619,64.4008661 77.1784381,64.7842623 77.6397714,64.9460555 C77.6816762,65.0568571 77.7277714,65.1722593 77.7799619,65.2845944 C77.9254857,65.6051137 78.187581,66.0168812 78.602819,66.1533703 L78.6054857,66.2806578 L78.6131048,66.4152299 C78.6397714,67.1310306 78.6264381,67.8591001 78.6131048,68.5645491 L78.6131048,68.6151574 L78.6054857,69.0407272 C78.5879619,70.0858654 78.5521524,70.9607755 78.4942476,71.7935122 C78.4614857,72.2470699 78.4226286,72.701011 78.3826286,73.1545688 L78.3647238,73.357002 C78.3319619,73.743082 78.2976762,74.1280118 78.2721524,74.5160088 C78.1578667,76.1366246 77.9552,77.7764103 77.7605333,79.3625205 L77.699581,79.8701371 C77.571581,80.8374457 77.4584381,81.8051378 77.3452952,82.7739801 C77.2694857,83.4238367 77.1932952,84.0740767 77.1144381,84.7223997 C77.0969143,84.8324344 77.0778667,84.9447695 77.0576762,85.0590216 C77.1007238,85.3086125 77.1247238,85.563571 77.1430095,85.8143122 C77.1906286,86.4703031 77.0980571,87.1155589 77.0043429,87.7642654 C76.9552,88.2162895 76.9197714,88.6790488 76.8245333,89.119571 C76.7323429,89.5493582 76.5654857,89.950774 76.3913905,90.3521899 C76.0877714,91.049971 75.5521524,91.5863423 74.9418667,92.0218805 C74.4614857,92.3650201 73.9018667,92.5789552 73.3765333,92.8442654 C72.9494857,93.0582005 72.5327238,93.3219771 72.1414857,93.6033899 C71.763581,93.9331106 71.4420571,94.3088389 71.1281524,94.7014367 C70.5312,95.5023514 69.9864381,96.3396888 69.4226286,97.1647574 C68.8184381,98.0454186 68.2664381,98.9559846 67.7144381,99.8680842 C67.4062476,100.378768 67.0862476,100.883701 66.7856762,101.400136 C66.4984381,101.894333 66.2424381,102.405017 65.9643429,102.905349 C65.6816762,103.414499 65.3673905,103.908697 65.066819,104.407496 C64.7872,104.871788 64.5117714,105.337615 64.1963429,105.779287 C63.7323429,106.432211 63.2485333,107.070182 62.770819,107.715822 C62.4820571,108.106502 62.2054857,108.530539 61.8599619,108.876362 C61.5921524,109.14589 61.3171048,109.408133 61.0283429,109.65389 C60.6412952,109.986294 60.2336762,110.293011 59.8302476,110.604712 C59.5609143,110.812896 59.291581,111.02108 58.9879619,111.176739 C58.2752,111.54365 57.5327238,111.89254 56.7647238,112.121811 C56.4313905,112.220727 56.0862476,112.303157 55.7426286,112.355299 C55.2561524,112.428911 54.7620571,112.517093 54.2694857,112.496389 C53.3037714,112.455749 52.3673905,112.249099 51.4999619,111.816244 C50.9300571,111.530231 50.3986286,111.178273 49.858819,110.841268 C49.2931048,110.487776 48.7159619,110.156905 48.1132952,109.878176 C47.8630095,109.781177 47.6100571,109.691079 47.3513905,109.628202 C47.0313905,109.548839 46.7037714,109.49363 46.3780571,109.444172 C45.9018667,109.387046 45.4272,109.340655 44.9479619,109.319568 C44.3944381,109.294264 43.8466286,109.330303 43.2976762,109.394714 C42.7232,109.481361 42.1666286,109.598297 41.6207238,109.80188 C41.0923429,110.046104 40.5936762,110.335185 40.0877714,110.625799 C38.9464381,111.280256 37.7171048,111.799758 36.3811048,111.810493 C35.6100571,111.816244 34.8809143,111.596175 34.2024381,111.239616 C33.6980571,110.976223 33.2024381,110.655704 32.803581,110.24662 C32.3140571,109.745138 31.8706286,109.170043 31.4927238,108.579997 C31.0759619,107.93129 30.7647238,107.228908 30.4374857,106.532661 C30.1205333,105.85405 29.803581,105.175822 29.4313905,104.525965 C29.0832,103.919049 28.7052952,103.333603 28.2976762,102.76771 C27.6489143,101.999384 26.9285333,101.302753 26.1860571,100.624525 C25.8332952,100.302472 25.4732952,99.990771 25.123581,99.6660344 C24.8214857,99.3827046 24.5239619,99.0982246 24.2081524,98.8332978 C23.938819,98.6385325 23.6683429,98.4422337 23.3780571,98.2804405 C23.1117714,98.1293823 22.843581,97.9886759 22.5700571,97.8537205 C22.1384381,97.6934608 21.7022476,97.5692405 21.2618667,97.4270005 C20.6725333,97.2368359 20.1174857,96.9715257 19.5567238,96.7169506 C18.7472,96.4504903 17.843581,96.3623091 17.346819,95.5548767 C17.0805333,95.1235559 16.9971048,94.5891016 16.9106286,94.0945205 C16.7350095,93.0731529 16.5879619,92.047568 16.3852952,91.0304178 C16.1742476,89.9703272 15.8763429,88.9294065 15.666819,87.8689325 C15.5296762,87.1772857 15.4390095,86.4821884 15.3616762,85.7798065 C15.3094857,85.305162 15.3258667,84.830134 15.3422476,84.3539559 C15.3532952,83.9901129 15.3540571,83.6209023 15.3963429,83.2578261 C15.2081524,81.6540797 15.0660571,79.9218955 14.9479619,77.8155167 C14.9049143,77.0560088 14.9064381,76.283082 14.9071858,75.5343091 L14.9091048,74.8499469 C14.9064381,73.9033416 14.9071858,72.9555861 14.9197714,72.0074472 C14.9300571,71.0757944 14.9700571,70.1429914 15.0134857,69.2711484 C15.0386286,68.7156072 15.0504381,68.1600661 15.0611048,67.6029914 L15.066819,67.3257959 C15.0729143,67.0474503 15.0805333,66.7702548 15.0892952,66.4915257 C15.1190095,65.5031303 15.1651048,64.5281537 15.2260571,63.5922835 L15.258819,63.0651137 L15.2649143,62.9600631 C15.3110095,62.2534638 15.3571048,61.5238608 15.4359619,60.8049929 C15.6458667,59.2894276 15.803581,57.7738623 15.9552,56.3092888 L15.9643429,56.2299257 L15.9761524,56.1145235 L16.0134857,55.7506805 C16.1517714,54.4026593 16.291581,53.0550216 16.4451048,51.7070005 C16.5132952,51.7369054 16.5967238,51.7503242 16.6843429,51.7503242 C16.7620571,51.7503242 16.8393905,51.7399725 16.9182476,51.7188857 C18.7380571,51.2381069 20.5132952,50.6526608 22.1932952,49.9817174 C22.9479619,49.6838186 23.7529143,49.3360782 24.7277714,48.8867378 L24.8112,48.8495484 C25.5670095,48.5064088 26.4256762,48.1172616 27.2233905,47.7008933 L30.9525333,45.7582246 C31.635581,45.4031997 32.3186286,45.0171197 32.9776762,44.6440752 C33.3197714,44.4493099 33.6622476,44.2560782 34.0043429,44.0659137 C34.1769143,43.9715982 34.3510095,43.8772827 34.5239619,43.7845008 C34.9361524,43.5613642 35.3361524,43.3455122 35.7186286,43.1166246 L36.6919619,42.5338623 L37.6637714,41.9514835 C38.026819,41.7356314 38.386819,41.5021431 38.7365333,41.2744057 L38.7974857,41.2341491 L39.0180571,41.0915257 L39.3719619,40.8611046 C39.7022476,40.6513869 40.0283429,40.4370684 40.3540571,40.2231333 L40.5506286,40.0943122 L40.9612952,39.8247846 C41.8512,39.2420223 42.7959619,38.5680118 43.9346286,37.7026865 C44.4256762,37.3281084 44.9479619,36.9220918 45.4405333,36.4880872 C45.8691048,36.1119755 46.2557714,35.6940737 46.5460571,35.3735544 L46.5772952,35.3378986 L46.611581,35.3003257 C47.0969143,35.4651861 47.6233905,35.5157944 48.2096762,35.5610352 C48.4866286,35.5817386 48.7723429,35.5940072 49.0565333,35.5940072 C49.346819,35.5940072 49.6622476,35.580205 49.9940571,35.5549008 M62.8900571,0.310819321 C61.7990095,0.324238189 60.642819,0.373696302 59.3510095,0.465328 C58.8736762,0.497916679 58.3837714,0.555042717 57.9525333,0.606034415 L57.7990095,0.624054038 C57.1860571,0.695749132 56.4614857,0.790064604 55.7216762,0.941506113 C54.6382476,1.16310913 53.5552,1.47020951 52.507581,1.76657479 L52.4302476,1.78766158 C52.0519619,1.89539592 51.6652952,2.02268347 51.2992,2.14537026 L50.8736762,2.28492649 C50.4226286,2.43023366 49.9510095,2.59471064 49.4313905,2.78794234 C48.6340571,3.08315743 47.834819,3.42744725 47.0641524,3.75985177 L46.5624381,3.97570385 C46.4953905,4.00560875 46.4287238,4.03398008 46.3601524,4.0623514 L46.3243429,4.07730385 C45.8599619,4.2751363 45.4077714,4.47450234 44.9552,4.6719514 L44.8169143,4.73329479 L43.8614857,5.15273026 C42.9403429,5.52884196 42.026819,5.91492196 41.1117714,6.30291894 C40.8957714,6.39416725 40.6858667,6.49615064 40.474819,6.59966762 C40.3064381,6.68018083 40.1727238,6.74612498 40.035581,6.81053555 L39.6310095,7.00070008 C39.3212952,7.14754083 39.0119619,7.292848 38.699581,7.43355442 C38.218819,7.64940649 37.7350095,7.86065781 37.251581,8.07305932 L37.0652952,8.15548951 L36.0790095,8.58987743 L35.419581,8.88470913 C34.8051048,9.1619046 34.1891048,9.43756649 33.5700571,9.70402687 C33.5700571,9.70402687 33.5296762,9.71897932 33.5266286,9.71897932 L33.4953905,9.74735064 L33.4938667,9.74466687 L33.4451048,9.76383668 L33.4477714,9.76268649 L33.3734857,9.78645706 L32.9540571,9.96626989 L33.0119619,9.94671668 L32.763581,10.0456329 L32.6443429,10.0935574 C32.547581,10.1322805 32.450819,10.1713869 32.3586286,10.2162442 L32.2096762,10.2806548 L32.1742476,10.2971408 L32.1399619,10.322445 L32.1384381,10.3197612 C31.4226286,10.6161265 30.7216762,10.9232269 30.0222476,11.2303272 L29.3765333,11.5132737 C28.5654857,11.8399272 27.7544381,12.1646638 26.9418667,12.4867167 C26.6771048,12.5929174 26.4062476,12.6872329 26.1338667,12.783082 L26.0550095,12.8118367 C25.9033905,12.8639786 25.7513905,12.919571 25.5982476,12.9747801 C24.7098667,13.2968329 23.9167238,13.512685 23.1742476,13.6323046 C22.9540571,13.6518578 22.7186286,13.6610593 22.4313905,13.6610593 C22.2291048,13.6610593 22.026819,13.6564586 21.8245333,13.6518578 L21.7498667,13.6503242 L21.5833905,13.6457235 L21.4150095,13.6415061 L21.2470095,13.6369054 L21.0477714,13.6265537 C20.931581,13.6188857 20.8302476,13.6131348 20.7292952,13.6131348 C20.5624381,13.6131348 20.4329143,13.6323046 20.322819,13.671411 C20.0058667,13.7822125 19.794819,13.9455393 19.6561524,14.1882291 C19.4820571,14.486128 19.4984381,14.7809597 19.5445333,15.0535544 C19.6382476,15.6286488 20.2485333,15.9970925 20.6519619,16.2413159 C20.8214857,16.3448329 20.9971048,16.440682 21.1727238,16.5349974 L21.3780571,16.6457989 C21.8736762,16.9168601 22.4001524,17.1879212 23.0371048,17.4961718 C23.730819,17.8362442 24.3571048,18.1027046 24.9540571,18.3097386 C25.0774857,18.3530623 25.2009143,18.3917854 25.3243429,18.4308918 L24.9003429,18.7617627 C24.6207238,18.9864329 24.3392,19.2095695 24.0580571,19.4327061 C22.4717714,20.6442382 20.5742476,22.0313657 18.5178667,23.142448 C18.3452952,23.2352299 18.1727238,23.3310789 18.0001524,23.426928 L17.9254857,23.467568 C17.6043429,23.6443137 17.2736762,23.8268103 16.9403429,23.9916706 C16.3094857,24.3029884 15.6801524,24.6146895 15.0492952,24.9275408 C14.3811048,25.255728 13.6965333,25.556694 12.9331048,25.8890986 C12.6489143,26.0133189 12.3647238,26.1379227 12.0816762,26.2636767 C11.6694857,26.4461733 11.2752,26.6213854 10.8809143,26.7996646 C10.4287238,26.9882955 9.96129524,27.1845944 9.48205714,27.3417869 C8.9552,27.5139318 8.41081905,27.6623061 7.88548571,27.8060797 L7.74262857,27.8436525 C6.98072381,28.0503031 6.18453333,28.2270488 5.48358095,28.381174 L5.29310476,28.4244978 L4.67710476,28.5625205 L4.53424762,28.5939589 C4.09386667,28.6940254 3.64129524,28.7960088 3.25462857,29.0448329 C3.04929524,29.1763378 2.91977143,29.3473325 2.78262857,29.5282955 L2.71862857,29.6122593 C2.57310476,29.805491 2.5552,30.0838367 2.54910476,30.3295937 C2.53881905,30.6290261 2.6519619,30.9706322 2.8912,31.3735816 C3.04929524,31.6431091 3.2664381,31.8842654 3.47481905,32.1104691 C3.66072381,32.3079182 3.86148571,32.4907982 4.08472381,32.6913144 L4.37348571,32.9474231 C4.62948571,33.1751605 4.88548571,33.4028978 5.14453333,33.6291016 C5.32281905,33.7847605 5.50605714,33.9358186 5.68891429,34.0857265 L5.74834286,34.1351846 C5.92548571,34.2820254 6.10262857,34.4284827 6.2752,34.5814578 C6.56091429,34.8314322 6.86148571,35.0998095 7.12205714,35.4065265 C7.20700952,35.5265295 7.28586667,35.6476827 7.35710476,35.7780374 C7.36891429,35.818294 7.37958095,35.858934 7.38986667,35.9007242 L7.34224762,35.9816208 C7.10110476,36.2588163 6.81691429,36.5222095 6.56548571,36.7545476 L6.47024762,36.8427288 C6.16815238,37.1275922 5.85881905,37.384851 5.48815238,37.6846669 L5.0744381,38.0036525 L4.66072381,38.3211046 L4.61767619,38.3525431 L4.59367619,38.3855152 L4.59215238,38.382448 L4.52091429,38.4288389 L4.47786667,38.4664118 C4.47634286,38.4679454 4.44510476,38.4932495 4.44624762,38.4947831 C3.76929524,39.0131348 2.89577143,39.7005642 2.1072,40.4432027 C1.88091429,40.660205 1.69500952,40.8565038 1.54148571,41.042451 C1.21729524,41.4331318 1.01805714,41.8418322 0.802057143,42.3736027 C0.733485714,42.5384631 0.688914286,42.7167423 0.644342857,42.8888872 L0.613104762,43.0223091 C0.517866667,43.3903695 0.462628571,43.7768329 0.421104762,44.1065537 C0.290057143,45.1217869 0.328914286,46.1673084 0.366247619,47.1779408 L0.376533333,47.4175635 C0.392914286,47.8715046 0.413866667,48.3239122 0.435961905,48.7759363 C0.4672,49.4441959 0.498438095,50.1105386 0.516342857,50.7753476 C0.53272381,51.4643106 0.55672381,52.0305869 0.592152381,52.5531559 C0.635580952,53.2045461 0.717104762,53.8471182 0.799009524,54.4432993 L0.846628571,54.8117431 C0.900342857,55.2369295 0.9552,55.6517642 1.02681905,56.0547137 L1.3319619,57.7857476 C1.45386667,58.4911967 1.59977143,59.1905114 1.76624762,59.9649718 C1.84967619,60.3587197 1.93310476,60.7513174 2.0119619,61.1435318 C2.11748571,61.6753023 2.24700952,62.2473295 2.40777143,62.8960359 C2.51329524,63.3212223 2.64281905,63.7510095 2.76929524,64.1673778 L2.79024762,64.2348555 L2.91062857,64.6316706 C3.08053333,65.1975635 3.25310476,65.7607725 3.4344381,66.322448 C3.60548571,66.8542186 3.81539048,67.3978744 4.09805714,68.0343122 C4.3704381,68.6557974 4.62072381,69.171082 4.88548571,69.6533944 C5.0432,69.9451589 5.22910476,70.2284888 5.40777143,70.5022337 L5.45386667,70.571245 C5.55367619,70.7226865 5.6519619,70.8737446 5.74567619,71.0267197 C6.05958095,71.5358699 6.3719619,72.0450201 6.67405714,72.5614548 C6.96281905,73.0571861 7.28853333,73.6188616 7.70834286,74.1042412 C7.9152,74.3423303 8.12815238,74.574285 8.3392,74.8066231 L8.40777143,74.8813854 C8.54148571,75.0282261 8.67558095,75.1750669 8.80815238,75.3234412 C9.23672381,75.8038367 9.66224762,76.2861491 10.0877714,76.7699952 C10.874819,77.6640752 11.7171048,78.6152812 12.5967238,79.5331318 C12.7498667,79.6903242 12.9597714,79.7788888 13.187581,79.7788888 C13.346819,79.7788888 13.5014857,79.7351816 13.6340571,79.6531348 C13.6397714,79.9015755 13.6546286,80.1546171 13.6710095,80.4091922 L13.6740571,80.4555831 C13.6904381,80.6952057 13.7052952,80.9332948 13.7201524,81.1729174 C13.763581,81.9278246 13.8302476,82.9162201 13.9479619,83.8704933 C14.0176762,84.4379197 14.0847238,85.0068797 14.1502476,85.5746895 L14.1578667,85.6421672 C14.3140571,86.9717854 14.4763429,88.3466442 14.6832,89.6931318 L14.7113905,89.8802291 C14.834819,90.7072148 14.9643429,91.5621884 15.1292952,92.4022095 C15.2931048,93.2514322 15.5803429,94.0603982 15.9091048,94.9560118 C16.2409143,95.8573763 16.578819,96.7545235 16.9254857,97.6501371 C17.0492952,97.9737235 17.1712,98.2969265 17.2931048,98.6220465 C17.4938667,99.1641688 17.6934857,99.6959393 17.9091048,100.224643 C18.2203429,100.989902 18.5178667,101.759761 18.8138667,102.528087 L18.9136762,102.782662 C19.0832,103.219734 19.2873905,103.735019 19.5132952,104.241102 C19.7052952,104.673956 19.9331048,105.093391 20.1517714,105.482922 C20.3110095,105.773153 20.5014857,106.051882 20.6873905,106.32141 L20.8870095,106.613557 C21.123581,106.967049 21.3452952,107.335493 21.5700571,107.711221 L21.6889143,107.909053 C21.8272,108.141008 21.962819,108.373346 22.0980571,108.605301 L22.1921524,108.764027 C22.474819,109.247873 22.7662476,109.749739 23.0744381,110.236268 C23.8763429,111.501859 24.770819,112.736012 25.635581,113.927991 C25.8645333,114.242376 26.0832,114.543342 26.3007238,114.845841 C26.8169143,115.563559 27.4211048,116.391695 28.0774857,117.149286 C28.4180571,117.543417 28.7098667,117.851668 28.9940571,118.120045 C29.2710095,118.380371 29.5567238,118.634946 29.9807238,118.999173 C30.2485333,119.22806 30.514819,119.461932 30.779581,119.69542 C31.8972952,120.676531 33.0504381,121.687163 34.3780571,122.398747 C34.7784381,122.615749 35.187581,122.816649 35.5936762,122.997612 C35.8763429,123.124899 36.163581,123.234167 36.4313905,123.334617 C36.6397714,123.410913 36.8572952,123.490276 37.0744381,123.544335 C37.9361524,123.75712 38.8378667,123.900893 39.6340571,124.029714 L39.7574857,124.050418 C41.6801524,124.360585 43.6531048,124.393557 45.5609143,124.424996 L45.7113905,124.428063 C45.8184381,124.429597 45.9254857,124.429597 46.0329143,124.429597 C46.9986286,124.429597 47.8854857,124.357518 48.7456762,124.213745 C49.6725333,124.055019 50.5209143,123.855653 51.3361524,123.604145 C52.1487238,123.352637 52.9106286,122.967707 53.6489143,122.594662 L54.1159619,122.35964 L54.5982476,122.124619 C55.2233905,121.820585 55.8691048,121.504667 56.4778667,121.137757 C57.2603429,120.66733 57.9510095,120.060797 58.6192,119.473817 C59.1041524,119.045563 59.6264381,118.639547 60.1323429,118.248483 L60.2112,118.187139 L60.3689143,118.065986 C61.5982476,117.11363 63.194819,115.83462 64.6340571,114.387683 C65.1174857,113.899619 65.5879619,113.381268 66.0432,112.880936 L66.4569143,112.425844 C66.9689143,111.862635 67.3571048,111.380323 67.6801524,110.905678 L67.7959619,110.733533 C68.0774857,110.318699 68.3304381,109.94412 68.602819,109.583345 L68.843581,109.261292 C69.0073905,109.059242 69.1727238,108.859876 69.3361524,108.660893 L69.4896762,108.474946 C70.4866286,107.268015 71.5178667,106.01891 72.3125333,104.635233 C72.6950095,103.97004 73.0386286,103.27686 73.4165333,102.503933 L73.5772952,102.174596 C73.8557714,101.609853 74.1159619,101.009455 74.3452952,100.479218 C74.4702476,100.188603 74.5967238,99.8979891 74.7247238,99.610442 C75.4866286,97.9108465 76.2439619,96.2108676 76.9940571,94.5051378 C77.4614857,93.4446638 77.8123429,92.5640027 78.0980571,91.7327997 C78.3673905,90.9407031 78.6218667,90.0899469 78.8736762,89.1314563 C78.9746286,88.7465265 79.0759619,88.3615967 79.1757714,87.9766669 C79.2721524,88.0069552 79.410819,88.0219076 79.5578667,88.0219076 C79.7334857,88.0219076 79.8885333,87.9992872 79.9971048,87.9601808 C80.1784381,87.8961537 80.3765333,87.8164072 80.5982476,87.7148072 L80.675581,87.6803016 L80.9182476,87.5679665 C81.3689143,87.3659167 81.8885333,87.126294 82.3498667,86.8264782 C83.2736762,86.2364314 84.1799619,85.5160299 85.0462476,84.687894 C86.770819,83.0377567 88.4778667,81.3496631 90.0790095,79.7624027 L90.3601524,79.4836737 L90.3974857,79.4461008 C91.1456762,78.7019288 91.9212952,77.9336027 92.6504381,77.1445733 C93.4953905,76.2278729 94.3289143,75.2889355 95.1026286,74.4113416 C95.8614857,73.5456329 96.5894857,72.5721899 97.3289143,71.4338865 C98.0862476,70.2672118 98.7544381,69.204054 99.3704381,68.1838367 C100.034057,67.090774 100.520914,65.8865265 100.949486,64.8264359 C101.101105,64.4533914 101.250057,64.0788133 101.398629,63.7046186 L101.489676,63.4799484 C101.73501,62.8657476 101.9792,62.2519303 102.232152,61.6423303 C102.700724,60.5205129 103.069867,59.3373522 103.409295,58.2232027 C103.6192,57.5269552 103.766248,56.7823997 103.882438,55.8074231 C103.977676,54.9942397 103.925486,54.1212465 103.726248,53.138602 C103.596724,52.5125159 103.364724,51.897165 103.13539,51.3205371 C102.958248,50.8654457 102.760533,50.4038367 102.5552,49.9322593 L102.409295,49.5937205 L102.425676,49.6642654 L102.397486,49.5772344 C102.397486,49.5757008 102.383771,49.5411952 102.382629,49.5411952 L102.325867,49.4004888 C102.044724,48.7402805 101.763581,48.0812223 101.540343,47.4175635 C101.307962,46.7362684 101.136914,45.9963137 100.987962,45.0171197 C100.928533,44.4611952 100.909105,44.0133884 100.923962,43.6062216 C100.938819,43.161482 100.976152,42.6791695 101.041676,42.0875891 C101.133867,41.5216963 101.240914,41.0558699 101.381105,40.621482 C101.549105,40.0762925 101.733486,39.5192178 101.92701,38.9663605 L102.099581,38.4828978 C102.251581,38.0665295 102.4032,37.6440269 102.537295,37.2245914 C102.744152,36.5628495 102.803581,35.8543333 102.842438,35.2420495 C102.898819,34.3326337 102.677105,33.3668586 102.166629,32.288365 C101.959771,31.8451589 101.680152,31.4318578 101.409295,31.0319755 L101.376533,30.9855846 C100.729295,30.0255605 99.9300571,29.1629189 99.1578667,28.3286488 L99.1266286,28.2956767 L99.0089143,28.1683891 C98.4016762,27.5154654 97.9346286,27.0331529 97.4969143,26.6018322 C97.1281524,26.2410563 96.7662476,25.8292888 96.355581,25.3078699 L96.2961524,25.2273567 C95.9925333,24.8152057 95.6816762,24.3946201 95.4553905,23.9333944 C95.3273905,23.5887212 95.2367238,23.2774035 95.1784381,22.9775876 C95.1369143,22.4297144 95.1666286,21.8695725 95.1921524,21.3753748 C95.2112,20.9708918 95.2470095,20.5365038 95.3049143,20.0511242 C95.3662476,19.691882 95.4492952,19.3322563 95.5312,18.9848993 L95.547581,18.9174216 L95.5731048,18.8127544 C95.602819,18.6808661 95.635581,18.5505114 95.6683429,18.4205401 L95.6816762,18.3603469 C95.7590095,18.0444284 95.8393905,17.7181582 95.8912,17.3945718 C95.9567238,16.9678518 95.9837714,16.615894 95.9182476,16.1857235 C95.8763429,15.926931 95.7826286,15.664688 95.6207238,15.3606548 C95.4466286,15.0297838 95.123581,14.7916948 94.8599619,14.6207001 C94.7350095,14.5398035 94.6054857,14.4681084 94.4717714,14.4006306 C94.346819,14.1805612 94.1384381,14.018768 93.8900571,13.9424722 L93.8260571,13.9229189 C93.6294857,13.8631091 93.4272,13.8002322 93.2112,13.7611257 L93.0401524,13.7296872 L92.9433905,13.7116676 C92.8020571,13.6848299 92.6607238,13.6595257 92.5209143,13.6265537 C92.4717714,13.6158186 92.4211048,13.6039333 92.3719619,13.592048 C92.2873905,13.567894 92.2024381,13.5456571 92.1159619,13.5230367 C91.8793905,13.4570925 91.6176762,13.370445 91.2931048,13.2519755 L91.2085333,13.2025174 L91.1369143,13.1607272 C91.0058667,13.085965 90.8736762,13.0108193 90.7441524,12.9345235 C90.0222476,12.5093371 89.2679619,11.9940525 88.4390095,11.3576148 C87.8809143,10.9006065 87.3601524,10.4048752 86.9689143,10.0245461 C86.8287238,9.89112423 86.6919619,9.75501857 86.5567238,9.61737932 C86.3171048,9.34900196 86.0877714,9.07640725 85.8572952,8.78770989 C85.6786286,8.5523046 85.5045333,8.32034989 85.346819,8.08379442 L85.2752,7.97567668 L85.2039619,7.86947592 C85.1011048,7.68084498 84.9776762,7.46077555 84.8363429,7.2525914 C84.8081524,7.19546536 84.7826286,7.15367517 84.7544381,7.11456875 C84.794819,6.70893555 84.6576762,6.32860649 84.3913905,6.09933555 C84.3037714,6.02572347 84.218819,5.94942762 84.1338667,5.87159819 L83.9494857,5.70558762 C83.8409143,5.61088875 83.7216762,5.52117404 83.6054857,5.43299291 L83.410819,5.28615215 C83.2367238,5.15119668 83.0534857,5.02544272 82.8706286,4.89968875 L82.7022476,4.78275291 L82.6382476,4.73942913 C82.2172952,4.44881479 81.7411048,4.11947743 81.251581,3.82426234 C80.794819,3.54591668 80.315581,3.28827442 79.8527238,3.04098385 L79.6980571,2.96008725 C78.9837714,2.5782246 78.2352,2.24888725 77.4732952,1.98357706 C77.2245333,1.89539592 76.9673905,1.82370083 76.7171048,1.75468951 L76.4077714,1.66765857 C75.8230095,1.50011442 75.2260571,1.3697597 74.7723429,1.27237706 C74.1117714,1.13320423 73.4344381,1.05805857 72.8005333,0.998248755 C71.8957714,0.911601208 70.9792,0.874028377 70.0938667,0.837989132 L69.4165333,0.811151396 C68.410819,0.769361208 67.3513905,0.677729509 66.2694857,0.541623849 L66.0611048,0.510185358 C65.5654857,0.436573283 65.0683429,0.363344604 64.578819,0.336506868 C64.2291048,0.318487245 63.8451048,0.307752151 63.4062476,0.307752151 C63.2336762,0.307752151 63.0626286,0.309285736 62.8900571,0.310819321" id="Fill-9"></path>
            </g>
            <path d="M31.2506391,49.0837187 L31.2506391,49.0837187 C31.2558382,49.0828375 31.2610373,49.0819563 31.2662363,49.0810751 C31.2610373,49.0819563 31.2558382,49.0828375 31.2506391,49.0837187 M40.1922862,51.0223322 C40.1956285,51.0276194 40.1989707,51.0324659 40.202313,51.0373124 C40.1989707,51.0324659 40.1956285,51.0276194 40.1922862,51.0223322 M38.8371873,48.1271891 C38.6778732,48.1179366 38.518559,48.1104465 38.3603589,48.107803 C38.1605663,48.1047188 37.9615165,48.1051594 37.7628379,48.1069218 C37.7617239,48.1060406 37.7606098,48.1051594 37.7594957,48.1042782 C37.6640557,48.0373079 37.5608172,48.004704 37.4505228,48.004704 C37.3402283,48.004704 37.2358757,48.0373079 37.1415498,48.1042782 C37.1352367,48.1091247 37.1289235,48.1135307 37.1229817,48.1179366 C36.5440288,48.1346792 35.96619,48.1813822 35.3920648,48.2712633 C35.3021953,48.2853623 35.2297798,48.3056297 35.1614492,48.3849366 C35.1309976,48.4210653 35.1076018,48.4633623 35.0912619,48.5096247 C34.9954505,48.532095 34.9003819,48.5594118 34.8053134,48.5871692 C34.7366114,48.5254861 34.6575114,48.4792237 34.5813822,48.4536692 C34.5167653,48.4329613 34.4406362,48.4232683 34.364507,48.4276742 C34.185882,48.0998723 33.7881537,47.9725406 33.4962634,48.1818227 C33.4279328,48.2267633 33.3640586,48.2800752 33.3061262,48.3417584 C33.2455942,48.414897 33.1939749,48.5096247 33.1564674,48.606996 C33.0684547,48.6074365 32.9793279,48.6299068 32.8976283,48.6717633 C32.6896657,48.5171148 32.400375,48.4928821 32.2009537,48.6532583 C32.0795185,48.752392 31.9658818,48.8497632 31.8849249,48.9969216 C31.8463033,48.9991246 31.8091671,49.0035306 31.7698028,49.0079365 C31.7133558,49.014986 31.6554234,49.0215949 31.5986051,49.0304068 C31.4871965,49.045387 31.3769021,49.0634513 31.2662363,49.0810751 L31.2825763,49.0784315 L31.2510105,49.0837187 L31.2506391,49.0837187 C31.2491537,49.0837187 31.2476683,49.0841593 31.2465542,49.0841593 C31.2476683,49.0841593 31.2491537,49.0837187 31.2506391,49.0837187 C31.1388593,49.0392187 31.0144531,49.0608078 30.8997023,49.0718226 C30.7964638,49.0801939 30.6921111,49.085481 30.5877585,49.0907682 C30.3731114,49.1026642 30.1584644,49.1145602 29.943446,49.1387929 C29.8101271,49.1542137 29.6768083,49.1802087 29.5446035,49.2040008 C29.3013616,49.2454167 29.0161558,49.3330949 28.8564703,49.572778 C28.8353026,49.5758622 28.814135,49.5793869 28.7933388,49.5829117 C28.5192738,49.6256493 28.2448375,49.6688275 27.9737435,49.7327136 C27.6981931,49.7961592 27.3673098,49.8855997 27.2046534,50.186966 C27.1649177,50.2614264 27.1359515,50.3446987 27.1192402,50.4310551 C26.9929772,50.4579313 26.867457,50.4905353 26.7434222,50.5363571 C26.645754,50.5720452 26.5432582,50.6165452 26.4556169,50.6839561 C26.38283,50.6932085 26.3096717,50.7055452 26.2372562,50.7170006 C26.0545462,50.744758 25.8718363,50.777362 25.6917258,50.8253867 C25.5335257,50.8668026 25.379782,50.9236392 25.2245528,50.9769511 C25.0362724,51.0439214 24.8505916,51.1144164 24.6689957,51.2056193 C24.5587013,51.2606936 24.4558341,51.3157678 24.3574232,51.39155 C24.311003,51.4259163 24.2686678,51.4646886 24.2244758,51.5003767 C24.1910532,51.5012579 24.1576306,51.5021391 24.1253222,51.5034609 C23.8798521,51.5157975 23.6596346,51.5929015 23.4490725,51.7409411 C23.2793602,51.860342 23.1408423,52.0304113 23.0420601,52.2286786 C22.8378112,52.3833271 22.6454458,52.5688172 22.4627358,52.7529855 C22.3613541,52.8547627 22.259601,52.9560993 22.1597047,53.0578765 C22.0508957,53.1662626 21.9521135,53.2935943 21.8507318,53.4085893 C21.7753453,53.4931834 21.7099857,53.5927576 21.6431406,53.6866041 C21.5814945,53.7015843 21.5220766,53.7253764 21.4574597,53.770317 C21.3571921,53.840812 21.2413272,53.9663813 21.1833948,54.0884259 C21.1091224,54.2399902 21.0601027,54.4034506 21.0107116,54.5686733 C20.9713472,54.7012921 20.9278979,54.8321485 20.8889049,54.9647673 C20.8610528,55.0608168 20.8465697,55.1590693 20.8350575,55.2590841 C20.8205744,55.3930247 20.8016349,55.5274059 20.7945791,55.661787 C20.7871518,55.8336187 20.7871518,55.9939949 20.8161181,56.1658266 C20.8640237,56.4601434 21.0601027,56.7112819 21.3052014,56.7923512 C21.5588415,56.8751829 21.7909425,56.7597473 21.9766234,56.5619206 C22.0709492,56.4619057 22.1493066,56.3191533 22.220608,56.1984305 C22.316048,56.0384949 22.3769513,55.8336187 22.4393401,55.6547375 C22.4430537,55.6437227 22.4471386,55.6327078 22.4508523,55.621693 C22.5511199,55.5287276 22.6450744,55.3877376 22.6643852,55.2449851 C22.6773829,55.1335148 22.6888951,55.0559703 22.6822106,54.9652079 L22.6996646,54.9083713 C22.7163759,54.8704802 22.7345726,54.8347921 22.7542548,54.7995446 C22.765767,54.7832426 22.7776506,54.7673812 22.7895341,54.7515198 C22.8812605,54.8383169 22.9744723,54.9233515 23.0721404,55.000896 C23.1620099,55.0731535 23.2619062,55.1176534 23.3651448,55.1555445 C23.4245626,55.1643564 23.4824951,55.1727277 23.5419129,55.183302 C23.66112,55.183302 23.7725286,55.1471732 23.8757671,55.0766782 C23.9466972,55.0387871 24.0046296,54.9766634 24.0599625,54.9114555 C24.1613443,54.7924951 24.1992232,54.651505 24.2526992,54.4999407 C24.2608692,54.4770298 24.2682964,54.4541189 24.2753523,54.4316486 C24.3841613,54.5113961 24.5263928,54.5514902 24.6400295,54.5514902 C24.817169,54.5514902 24.9883668,54.4673367 25.1131443,54.3192971 C25.16105,54.2624605 25.1989289,54.2038615 25.2304946,54.1412971 C25.2995679,54.1998962 25.379782,54.2439556 25.4770788,54.2677476 C25.6003709,54.3069605 25.7236629,54.3069605 25.846955,54.2677476 C26.0125823,54.2144358 26.1808092,54.0747675 26.261766,53.8888368 C26.2855332,53.8342031 26.304844,53.7813319 26.3204412,53.7284606 C26.3672328,53.742119 26.4166239,53.7496091 26.4708427,53.7496091 C26.6316423,53.7496091 26.8407189,53.6703022 26.9450716,53.5156537 C27.0278852,53.3914062 27.125182,53.2764111 27.1526628,53.1129508 C27.1608327,53.0614013 27.1678886,53.0094112 27.1738304,52.9574211 C27.177544,52.9367132 27.181629,52.9160052 27.185714,52.8957379 C27.2128234,52.9142429 27.2406755,52.9309854 27.2700131,52.9459656 C27.3194042,52.9715201 27.3687953,52.9957528 27.4181864,53.0199854 C27.5284808,53.0561141 27.6384039,53.0561141 27.7486983,53.0199854 C27.8511941,52.9865003 27.94552,52.9212924 28.0209064,52.832733 C28.0517294,52.8463914 28.0840379,52.8582874 28.1170891,52.8684211 C28.4045231,52.9578617 28.6938138,52.790436 28.8178486,52.4846637 C28.9563666,52.567936 29.1112244,52.5877627 29.2790799,52.5344508 C29.3589226,52.5097776 29.438394,52.4599905 29.507096,52.3939014 C29.5178654,52.3983073 29.5282636,52.4018321 29.5390331,52.4053568 C29.6983472,52.4569063 29.886999,52.434436 30.0292305,52.3278123 C30.1361827,52.2489459 30.2160254,52.1506935 30.2695015,52.0365796 C30.2865842,52.0330549 30.3036668,52.0286489 30.3207494,52.0233618 C30.3805387,52.0030945 30.4447843,51.9691687 30.5038308,51.9242282 C30.7132788,52.0312925 30.9598629,51.9590351 31.1321748,51.7889658 C31.1555706,51.806149 31.1808231,51.8220104 31.2071898,51.8356688 C31.2550955,51.8599014 31.3044866,51.8836935 31.3520209,51.9079262 C31.4593444,51.9422925 31.5670393,51.9422925 31.6758483,51.9079262 C31.77723,51.8735598 31.8670996,51.8114361 31.942486,51.7219955 C31.981479,51.6757331 32.0141588,51.6250648 32.0408968,51.5699906 C32.1656744,51.5805648 32.3015928,51.5360648 32.4026031,51.4673322 C32.5158685,51.3875847 32.5938544,51.2778768 32.6432455,51.1487827 C32.7639381,51.1998916 32.9124828,51.1963669 33.024634,51.159357 C33.0736537,51.1434956 33.1234162,51.1192629 33.1698364,51.0879808 C33.3722285,51.1932827 33.6124996,51.1531887 33.7933527,51.0069115 C33.8538847,51.0302629 33.9173875,51.042159 33.9834899,51.042159 C34.0685317,51.042159 34.14986,51.0218917 34.2267318,50.9826788 C34.22896,50.9866441 34.2308168,50.9906095 34.233045,50.9941342 C34.2868924,51.100758 34.3578225,51.185352 34.447692,51.2487976 C34.5594719,51.3263421 34.661225,51.332951 34.7860025,51.3505748 C34.8918406,51.3505748 34.9917369,51.3175302 35.0830919,51.2540847 C35.1718474,51.1919609 35.2427774,51.1095699 35.2951394,51.0042679 C35.2955108,51.0038273 35.2958822,51.0029461 35.2962535,51.0020649 C35.3051662,51.0051491 35.3144502,51.0077926 35.3241057,51.0104362 C35.3415597,51.0368718 35.3590137,51.0628669 35.3775817,51.0888619 C35.4689367,51.1972481 35.5762602,51.2589312 35.6995523,51.3003471 C35.9368525,51.379654 36.1767521,51.2858075 36.3405226,51.0875402 C36.3895424,51.0972332 36.4396762,51.0998768 36.4879532,51.0941491 C36.5031791,51.11706 36.519519,51.1386491 36.5366016,51.159357 C36.7163407,51.3726045 37.0126873,51.4347282 37.2436743,51.3091589 C37.3469128,51.4303223 37.4858021,51.5016985 37.6362036,51.5016985 C37.802945,51.5016985 37.9930822,51.4016837 38.090379,51.229852 C38.2251833,51.1954857 38.3325068,51.0937085 38.413835,50.9544808 C38.4387162,50.9113026 38.4576557,50.8645996 38.4721388,50.8161343 C38.4847651,50.8099659 38.4973914,50.8029164 38.509275,50.7954263 C38.5096463,50.7998323 38.5096463,50.8037976 38.5096463,50.8082036 C38.5126172,51.0373124 38.5300712,51.3140055 38.6459361,51.5069856 C38.7621723,51.6964411 38.9099742,51.8272975 39.11608,51.8272975 C39.3013895,51.8272975 39.4677595,51.7136242 39.5672845,51.5382678 C39.6500981,51.6528223 39.757793,51.729045 39.8977964,51.729045 C39.9746682,51.729045 40.0400279,51.6995252 40.1053876,51.6550252 C40.2067693,51.5862926 40.2517041,51.4779064 40.2880975,51.3536589 C40.3200346,51.2369015 40.3215201,51.100758 40.3330323,50.9787134 C40.3490008,50.8082036 40.3649694,50.6376937 40.3735107,50.4676244 C40.3824234,50.2746442 40.3909647,50.0821047 40.3998774,49.8908869 C40.4069333,49.7155305 40.4143605,49.5414958 40.4130665,49.3661394 C40.4099042,49.1044266 40.3794525,48.853288 40.3100079,48.6052336 C40.2765853,48.4849514 40.2182815,48.3831742 40.124327,48.3179663 C40.0210885,48.2474713 39.9226776,48.2474713 39.8108977,48.269501 C39.7407104,48.2831594 39.6820352,48.3122386 39.63153,48.351892 C39.6241028,48.3439613 39.6163042,48.3369118 39.6085056,48.3298623 C39.5264347,48.1298327 39.3570937,47.9892832 39.1565584,47.9892832 C39.0384654,47.9892832 38.9255714,48.0412733 38.8371873,48.1271891" id="Fill-12" transform="translate(30.601746, 52.404378) rotate(9.000000) translate(-30.601746, -52.404378) "></path>
            <path d="M13.7962523,83.0503295 C13.7916578,83.015876 13.7874461,82.9810396 13.7824687,82.9465861 C13.7870632,82.9810396 13.7912749,83.015876 13.7962523,83.0503295 L13.7962523,83.0503295 Z M82.3518477,83.9189417 C82.3499333,83.912051 82.3484018,83.9066915 82.3468703,83.9020977 C82.3484018,83.9074572 82.3503162,83.9131994 82.3518477,83.9189417 L82.3518477,83.9189417 Z M14.7924973,93.6390522 L14.7798624,93.5475589 L14.7924973,93.6390522 Z M14.8189158,93.8392656 C14.8116412,93.7852883 14.8047494,93.7313111 14.7974747,93.6773339 C14.7955603,93.6647009 14.793646,93.6516852 14.7924973,93.6390522 C14.8013035,93.7056624 14.8093439,93.7722726 14.8189158,93.8392656 L14.8189158,93.8392656 Z M13.9513173,78.0733236 C13.8705304,78.9270059 13.7958694,79.7795397 13.769068,80.6378158 C13.7434153,81.4677634 13.6940242,82.2919687 13.8062071,83.1173225 C13.8031441,83.0947363 13.7996982,83.0725329 13.7962523,83.0503295 C13.8173105,83.2026908 13.8379858,83.3558176 13.8601927,83.5085617 C14.0646488,85.184918 14.1037022,86.8739073 14.2863344,88.5529434 C14.3778419,89.3947583 14.4421652,90.2396358 14.5183576,91.0814507 C14.5956987,91.9485316 14.684909,92.814464 14.7974747,93.6773339 C14.8706042,94.2090669 14.9575172,94.7373546 15.0432815,95.2671736 C15.1282801,95.7862736 15.1883918,96.3080534 15.2718589,96.8267707 C15.4334328,97.8197984 15.6325287,98.8082323 15.8492369,99.7893927 C16.0736026,100.806155 16.4358039,101.786933 16.690034,102.796421 C16.935075,103.768394 17.1414456,104.748023 17.4347291,105.706598 C17.7502194,106.736759 18.1752125,107.719067 18.6744837,108.671899 C19.148485,109.573434 19.6033424,110.487218 20.0850012,111.386073 C20.346506,111.877993 20.6294518,112.362257 20.9058888,112.845372 C21.1528442,113.277573 21.4116688,113.705179 21.6823626,114.12245 C22.3102803,115.094423 22.9983097,116.04113 23.8031164,116.873757 C24.5102895,117.606852 25.2373723,118.343775 26.0417961,118.973509 C26.5146488,119.341396 26.9917131,119.680955 27.5062993,119.987209 C27.926315,120.237188 28.3405875,120.501715 28.7713238,120.734851 C30.6336358,121.74434 32.7004039,122.291768 34.7089748,122.924182 C35.6990938,123.236944 36.7072081,123.50147 37.7256599,123.699004 C38.8953481,123.926015 40.0784369,124.05043 41.2596114,124.192455 C41.8025305,124.256769 42.3443009,124.329887 42.8883687,124.386544 C43.4450713,124.445115 44.0071342,124.455451 44.5649855,124.476506 C45.6477607,124.516702 46.7278557,124.581015 47.8121624,124.594413 C48.8918745,124.608195 49.9715867,124.617 51.0501502,124.543882 C51.5720111,124.507897 52.0923404,124.43899 52.6115212,124.371614 C53.2769608,124.285097 53.9412518,124.193987 54.6051599,124.093689 C55.5937474,123.944007 56.557065,123.695942 57.531869,123.477353 C58.0629189,123.359445 58.5909058,123.233881 59.108555,123.063145 C59.7559994,122.848002 60.3858315,122.608741 61.0095376,122.330433 C61.4866019,122.118352 61.9621347,121.901295 62.4300099,121.66969 C62.938853,121.419711 63.4159173,121.131449 63.8971932,120.833618 C64.8141828,120.267048 65.7549107,119.722682 66.6209777,119.078018 C67.1443701,118.687927 67.6199029,118.246539 68.1118994,117.820464 C68.4813754,117.498897 68.8910534,117.213316 69.2142013,116.843897 C70.0056073,115.937769 70.7728921,114.995656 71.4099988,113.972768 C71.7090255,113.494247 71.9885255,113.003858 72.2714713,112.516532 C72.5391021,112.058683 72.8067329,111.601216 73.0548369,111.133031 C73.5709547,110.165652 74.0928155,109.192148 74.5400154,108.190315 C75.0323948,107.089716 75.5048646,105.977249 75.9310063,104.84947 C76.3406843,103.769926 76.7476822,102.687319 77.1696123,101.611985 C77.5582321,100.616278 77.924645,99.6113827 78.3151792,98.6168237 C78.7175826,97.5908737 79.1287921,96.5710488 79.5158804,95.5393566 C79.8945454,94.5298677 80.3042234,93.5234414 80.6289028,92.4948117 C80.7962199,91.9638443 80.9428616,91.4286659 81.1029041,90.8961672 C81.2464828,90.4207083 81.4003992,89.9483119 81.5187081,89.4651967 C81.7595375,88.4916927 81.9433183,87.5078526 82.0930231,86.5148248 C82.1661525,86.0317096 82.245408,85.5501256 82.326195,85.0673932 C82.3637169,84.8472733 82.3951128,84.626005 82.4150943,84.4032054 C82.4230628,84.3082667 82.3112628,83.7857213 82.3468703,83.9020977 C82.2434936,83.5487575 81.9934752,83.193886 81.6607554,83.0231495 C81.4065253,82.8899291 81.2062808,82.8152798 80.9145288,82.8152798 C80.6526411,82.8152798 80.3731412,82.8899291 80.147244,83.0231495 C79.7582413,83.2501601 79.4967365,83.658626 79.4025489,84.0938891 C79.3022352,84.5559494 79.2317859,85.0298771 79.1674626,85.4980625 C79.0973962,86.0152484 79.0058887,86.5297547 78.914764,87.044261 C78.8324456,87.5135948 78.7248572,87.9787177 78.6172689,88.4438405 C78.4974285,88.953753 78.3389176,89.4533294 78.1880642,89.9540542 C78.0398909,90.4475055 77.9066498,90.9470819 77.7512019,91.439002 C77.5808218,91.9818367 77.3832574,92.5158666 77.1872246,93.051045 C76.8269377,94.0410102 76.4574617,95.0294441 76.0745851,96.0117529 C75.6813707,97.0227731 75.2640352,98.0230743 74.8811585,99.0386882 C74.469949,100.1301 74.0407443,101.215769 73.6306834,102.307564 C73.2072218,103.435343 72.7764856,104.560826 72.3200966,105.675589 C72.0505515,106.301113 71.7702858,106.919745 71.4681961,107.530721 C71.1017831,108.268027 70.7250325,108.999208 70.3375614,109.724646 C69.9891436,110.379647 69.6016724,111.013592 69.2291335,111.655193 C69.0242944,112.00662 68.8117979,112.351921 68.5966212,112.697222 C68.398674,113.014577 68.1639706,113.313557 67.9396049,113.613303 C67.5268639,114.144653 67.101105,114.6783 66.5926449,115.115478 C66.3276942,115.34402 66.0524059,115.562608 65.7878381,115.792681 C65.5186759,116.023903 65.257554,116.264312 64.9887746,116.494768 C64.1146672,117.127948 63.1819797,117.676907 62.2642243,118.24386 C61.784097,118.539777 61.3070327,118.825359 60.797041,119.067682 C60.3280171,119.290482 59.8574617,119.508305 59.3838433,119.721151 C58.8302037,119.931318 58.2719695,120.117367 57.7041635,120.28772 C57.1489923,120.453863 56.5719972,120.55263 56.0095514,120.691592 C54.9156728,120.961479 53.8076278,121.137574 52.6938396,121.298358 C52.2715267,121.353866 51.8492137,121.408992 51.4253693,121.448422 C50.867518,121.499337 50.3111983,121.52154 49.7518155,121.541064 C49.2222971,121.557525 48.6900985,121.541064 48.1590486,121.53647 C47.6191925,121.531876 47.0793365,121.520009 46.5394804,121.503548 C45.9800976,121.487087 45.4222463,121.454164 44.8628635,121.425836 C44.358615,121.40057 43.8532178,121.392913 43.3493522,121.356929 C42.7957125,121.318264 42.2485818,121.255482 41.6980052,121.185044 C41.1654237,121.117668 40.6301622,121.061011 40.0975808,120.995166 C40.0822657,120.993635 40.0665678,120.991721 40.0512527,120.989807 C39.3195754,120.883384 38.5928755,120.766242 37.8692387,120.605076 C37.1019539,120.432808 36.3423266,120.229532 35.5915055,119.993334 C34.1453804,119.537399 32.6820258,119.130081 31.2761028,118.558535 C31.0559487,118.463214 30.8369433,118.365595 30.6229152,118.255727 C30.3058934,118.092647 30.0007407,117.907363 29.6940565,117.724759 C29.1423312,117.396685 28.590606,117.077416 28.0710424,116.699958 C27.5920637,116.309867 27.1448638,115.878815 26.6953666,115.454654 C26.2003071,114.989914 25.7282202,114.489189 25.2925065,113.970089 C24.859473,113.389355 24.4386916,112.795223 24.0604095,112.175442 C23.6147411,111.445792 23.1943425,110.70083 22.7682008,109.959313 C22.3612029,109.251867 22.0097221,108.513413 21.6195708,107.797162 C21.2692387,107.151732 20.9028258,106.513576 20.6037991,105.842498 C20.2611245,104.993792 19.9904307,104.115227 19.7499842,103.231685 C19.4731643,102.216071 19.1128774,101.220363 18.7598652,100.228867 C18.4202536,99.2733552 18.1449653,98.2998511 17.8907352,97.3186907 C17.7712776,96.8566304 17.6441626,96.3945701 17.5350428,95.9298301 C17.4106078,95.4003939 17.2999565,94.866364 17.1759045,94.3353966 C16.9469442,93.3561503 16.7229614,92.3780525 16.5479868,91.3880873 C16.4626053,90.8976985 16.3550169,90.4103723 16.2650409,89.9196007 C16.1677902,89.3947583 16.0797286,88.8683847 15.985541,88.3435424 C15.8940334,87.83363 15.820904,87.320655 15.7313109,86.8107425 C15.6443979,86.3157599 15.5563362,85.8223086 15.4812924,85.327326 C15.3978253,84.7664989 15.3258445,84.2045233 15.2301253,83.6452274 C15.1550815,83.1992454 15.0371555,82.7620682 14.9651747,82.3153206 C14.8376768,80.9046394 14.9471795,79.4778798 15.0777404,78.0733236 C15.1060733,77.7666871 14.7993891,77.509434 14.5152946,77.509434 C14.1864036,77.509434 13.9796502,77.7666871 13.9513173,78.0733236 L13.9513173,78.0733236 Z" id="Fill-14"></path>
            <path d="M70.5386701,105.992698 C70.3727919,106.03657 70.1739792,106.152771 70.0695523,106.304544 C69.8611001,106.53339 69.6831727,106.790692 69.4968109,107.036533 C69.3719002,107.201745 69.2449814,107.366165 69.1196691,107.530191 C68.9072005,107.795399 68.6959368,108.060606 68.4786486,108.323838 C68.1962943,108.665327 67.9231778,109.020255 67.626766,109.350678 C67.0467951,109.998875 66.4628077,110.642725 65.8703858,111.279856 C65.207275,111.745057 64.5389428,112.208281 63.8943075,112.696405 C63.0721464,113.321679 62.2311082,113.928376 61.4310375,114.581317 C60.9526819,114.970631 60.4739247,115.36113 59.9955692,115.75163 C59.7995679,115.910912 59.6047716,116.071381 59.4039506,116.225921 C59.1356538,116.432632 58.9239885,116.651992 58.721561,116.923524 C58.6103062,117.07332 58.4861988,117.255527 58.4516576,117.439315 C58.4504527,117.446429 58.4488461,117.453544 58.4476412,117.460658 C58.055237,117.714404 57.6584148,117.96143 57.253158,118.195809 C57.0286402,118.325449 56.8073355,118.461412 56.5800062,118.584728 C56.5530962,118.599352 56.5261861,118.614766 56.4996778,118.62939 C56.3627179,118.623857 56.2249547,118.638876 56.0920112,118.674448 C55.7361565,118.771677 55.494368,118.989456 55.2919405,119.281145 C55.1602019,119.468095 55.0818817,119.674806 55.0015533,119.886261 C54.8762411,120.221427 54.9670121,120.655403 55.1445379,120.953416 C55.3264817,121.258938 55.6341394,121.496874 55.9839695,121.58778 C56.2723484,121.663271 56.5470715,121.692914 56.8406718,121.61268 C57.021009,121.563275 57.2186168,121.482645 57.3800769,121.403992 C57.4772743,121.356168 57.5732667,121.305182 57.6688575,121.257357 C57.8620472,121.158547 58.0484091,121.039579 58.233566,120.926935 C58.6793886,120.656984 59.1232029,120.383476 59.5658123,120.110364 C60.3594568,119.619472 61.1205683,119.086686 61.87686,118.541646 C63.5460839,117.342085 65.1683157,116.083633 66.7797032,114.808581 C67.2456078,114.437844 67.713119,114.07343 68.1633596,113.686093 C68.4910995,113.403494 68.8208475,113.120896 69.1485873,112.836716 C69.6771481,112.381397 70.1936596,111.901178 70.5559407,111.300804 C70.8792624,110.763274 70.7816634,110.054605 70.334636,109.6147 C70.2788077,109.559366 70.2193647,109.510356 70.1571102,109.466879 C70.3679722,109.184281 70.5736129,108.896939 70.7535485,108.594184 C71.0547799,108.089459 71.3969789,107.582758 71.5865539,107.023885 C71.7074481,106.668958 71.5114468,106.258301 71.1945513,106.076094 C71.0644194,106.000998 70.9150085,105.962264 70.7643928,105.962264 C70.6884825,105.962264 70.6125722,105.97254 70.5386701,105.992698" id="Fill-16"></path>
            <path d="M24.2756068,109.612612 L24.2756068,109.612612 C24.2691529,109.597942 24.262699,109.583273 24.2562451,109.568218 C24.262699,109.582887 24.2687496,109.597942 24.2756068,109.612612 M24.1554027,109.342002 C24.1618566,109.356285 24.1679072,109.370568 24.1743611,109.384852 C24.1759746,109.38794 24.1771847,109.391028 24.1783948,109.394502 C24.1707308,109.377131 24.1630667,109.359373 24.1554027,109.342002 M24.1239399,109.268269 C24.136041,109.29645 24.1485454,109.323858 24.1602432,109.351653 C24.1485454,109.323858 24.136041,109.296064 24.1239399,109.268269 M20.8199402,99.1136413 C20.6731137,99.1530168 20.545649,99.2464371 20.4686054,99.3715121 C20.3818809,99.5162749 20.3879315,99.6475265 20.4101168,99.8042564 C20.4141505,99.8366833 20.4185876,99.867952 20.423428,99.8999929 C20.4250415,99.9135041 20.4270583,99.9270153 20.4290752,99.9405264 C20.4294785,99.9443868 20.4298819,99.9482471 20.4306886,99.9521075 C20.4302853,99.9509494 20.4302853,99.9494052 20.4298819,99.9482471 C20.4839334,100.342002 20.5339512,100.736143 20.5944567,101.128353 C20.6670632,101.617073 20.7711325,102.102318 20.8687479,102.586404 C20.9623297,103.046943 21.0607518,103.506324 21.1664346,103.964546 C21.1357786,103.908957 21.1047191,103.852982 21.0736596,103.797394 C20.9240096,103.532574 20.6239026,103.372756 20.315325,103.351524 C20.2548195,103.275089 20.193104,103.199041 20.1313885,103.123378 C19.9200228,102.867051 19.6586394,102.666313 19.3875751,102.471752 C19.1447466,102.296879 18.840606,102.218514 18.5429193,102.206547 C18.3981097,102.20037 18.186744,102.269856 18.0625062,102.339343 C17.8826034,102.440097 17.7567521,102.60146 17.6982636,102.791775 C17.5566809,103.251541 17.8402496,103.676951 18.0814646,104.055264 C19.0346268,105.558867 20.0902448,107.001863 21.1333583,108.447947 C21.2769579,108.648298 21.4225743,108.847492 21.5689974,109.0463 C21.5851322,109.074866 21.6016703,109.103047 21.6186119,109.130841 C21.8832223,109.575938 22.148236,110.02065 22.4128464,110.466905 C22.5217562,110.65143 22.6278424,110.840972 22.7371555,111.027427 C22.8049216,111.156362 22.8734944,111.285298 22.9420672,111.414233 C23.0933308,111.699126 23.2526617,111.982475 23.4164298,112.261578 C23.6592582,112.676179 23.9000698,113.090779 24.2199418,113.45867 C24.2864978,113.535877 24.3748357,113.594554 24.4728545,113.63586 C24.7334312,113.987537 24.9932012,114.3396 25.2537779,114.690891 C25.4050415,114.895875 25.578087,115.088892 25.7422584,115.284997 C25.901186,115.478014 26.0637439,115.669487 26.2226715,115.864049 C26.3896664,116.065944 26.5804602,116.253171 26.7583462,116.446188 C26.9358288,116.638819 27.1209754,116.840329 27.3279039,117.012886 C27.6998106,117.384251 28.1923248,117.899221 28.7735803,117.685744 C29.0039043,117.602746 29.1882441,117.496973 29.3157089,117.287356 C29.4447871,117.076196 29.4560815,116.854612 29.4072738,116.621061 C29.4044502,116.60948 29.4016266,116.598285 29.3983996,116.58709 C29.4117108,116.467034 29.4016266,116.346591 29.3677436,116.225763 C29.298364,116.069033 29.2305979,115.910759 29.1519409,115.758275 C29.0587625,115.579155 28.8901541,115.417793 28.7534118,115.26531 C28.6239302,115.120547 28.4867845,114.981961 28.3512524,114.840286 C28.1640889,114.644181 27.9765221,114.446531 27.7857283,114.25197 C27.6155064,114.075552 27.4452845,113.897591 27.265785,113.728894 C27.1758336,113.645896 27.0895125,113.559811 26.9963342,113.479902 C26.9334085,113.427015 26.8704829,113.374514 26.8055404,113.321628 C26.6720251,113.211608 26.544157,113.131699 26.3969271,113.072636 C26.1085179,112.690848 25.8261592,112.304814 25.5611455,111.907199 C25.5002367,111.816095 25.4393279,111.725377 25.3784191,111.634659 C25.355427,111.591423 25.3320316,111.548573 25.3090395,111.506109 C25.2174746,111.33857 25.1275232,111.169873 25.0363617,111.002335 C24.8048276,110.578469 24.5712767,110.153446 24.3397426,109.72958 C24.318364,109.690591 24.2969854,109.651987 24.2756068,109.612612 C24.2800439,109.622263 24.2840776,109.631527 24.2877079,109.640792 C24.2840776,109.631527 24.2800439,109.621877 24.2756068,109.612612 C24.27359,109.609523 24.2719765,109.606049 24.270363,109.602961 C24.2401103,109.534247 24.2098576,109.465533 24.1800083,109.397205 C24.1787981,109.394888 24.177588,109.392572 24.1767813,109.38987 C24.1900925,109.419595 24.2034037,109.450091 24.2167149,109.47943 C24.2017902,109.446231 24.1868655,109.412646 24.1723442,109.379447 C23.8928092,108.690376 23.6160977,108.001305 23.3583446,107.3049 C23.0824398,106.55831 22.8509057,105.800139 22.6443805,105.035405 C22.4507632,104.317768 22.2821547,103.593954 22.1260507,102.868595 C21.9574422,102.094983 21.7952877,101.318282 21.683151,100.537335 C21.6839577,100.543898 21.6847645,100.55046 21.6855712,100.557023 C21.6375702,100.20689 21.5919895,99.856371 21.5415683,99.505852 C21.5226099,99.3715121 21.3886912,99.2360142 21.2721174,99.1711604 C21.1809559,99.1205899 21.0768866,99.0943396 20.9728173,99.0943396 C20.921186,99.0943396 20.8695547,99.1009022 20.8199402,99.1136413" id="Fill-18"></path>
            <path d="M63.7628465,56.3215664 C64.0041364,56.3665539 64.2400644,56.4248421 64.4702473,56.5089492 C65.151987,56.8508544 65.8149598,57.2666956 66.4250786,57.7275243 C66.6472185,57.9133423 66.8540385,58.110505 67.0417084,58.3315307 C67.2389533,58.6464434 67.4001963,58.9903045 67.5756102,59.3185178 C67.7046812,59.5610593 67.8157511,59.8157278 67.9329491,60.0649195 C68.0149111,60.271471 68.096107,60.4780224 68.178452,60.6845738 C68.4028899,61.2537638 68.5671969,61.8389928 68.6640958,62.4437816 C68.7472068,63.3126276 68.6606488,64.1720849 68.5511109,65.0342805 C68.4798729,65.5283609 68.3768459,66.0075758 68.205645,66.4774021 C67.9199271,67.1432174 67.5871002,67.7851698 67.1661833,68.3715724 C66.7406705,68.9071195 66.2787727,69.413327 65.7624888,69.8573343 C65.6269069,69.9504389 65.4882609,70.0310252 65.341189,70.1033965 C64.8023082,70.318163 64.2488734,70.5071106 63.6797356,70.6127335 C63.5196416,70.6279901 63.3626117,70.6322933 63.2017517,70.621731 C63.0447218,70.5896529 62.8934368,70.547795 62.7421519,70.4934187 C62.5586949,70.4003141 62.387494,70.2943 62.2205061,70.1738117 C61.9589172,69.9598276 61.7015412,69.7411491 61.4522083,69.5138643 C60.9929915,69.0976319 60.5333916,68.6888322 60.1404338,68.2045318 C59.7830949,67.6905004 59.513846,67.1228752 59.2641301,66.5466437 C58.9397292,65.7192645 58.7386543,64.8637191 58.6118813,63.9831373 C58.5467713,63.4542405 58.5103863,62.9276908 58.5077053,62.3929261 C58.5046413,61.839384 58.5494523,61.290145 58.6160943,60.7424708 C58.7118443,60.0966064 58.8562352,59.4749962 59.0868011,58.8643395 C59.1090151,58.8138752 59.1312291,58.7641933 59.1545921,58.7145114 C59.1879131,58.7090347 59.2216171,58.7012108 59.2545551,58.6918221 C59.500441,58.623754 59.65096,58.4809675 59.7984149,58.2928023 L59.7658599,58.3358338 C60.0159588,58.016618 60.3135497,57.7506048 60.6276096,57.4967187 C60.6176516,57.5045426 60.6080766,57.5123666 60.5977356,57.5197993 C60.7199126,57.4227827 60.8409405,57.3253749 60.9623515,57.2279672 C61.3369254,56.943959 61.7214572,56.6838137 62.1412251,56.4772623 C62.33464,56.4076295 62.528821,56.3516885 62.7298959,56.3102217 C63.0753618,56.280882 63.4177636,56.2863587 63.7628465,56.3215664 M62.0925841,54.0721902 C61.7111162,54.1379111 61.3415214,54.3123844 60.9941405,54.4790339 C60.7398286,54.5995222 60.5019857,54.7630421 60.2733347,54.9265619 C60.0190228,55.1069032 59.7601149,55.3087603 59.532613,55.5227444 C59.3143031,55.7289046 59.0944611,55.9335001 58.8876412,56.1521786 C58.5931143,56.4623969 58.3449304,56.826209 58.1277695,57.1943243 C58.0561485,57.3159862 58.0140185,57.4486016 57.9990815,57.583173 C57.9626965,57.6445908 57.9278435,57.7063997 57.8945226,57.768991 C57.5444607,58.4168114 57.3257678,59.1577363 57.1794618,59.8791015 C56.8891479,61.3249614 56.8382089,62.8115057 56.9864299,64.2757518 C57.0549868,64.9630829 57.1583968,65.6418077 57.3288318,66.3111438 C57.5249277,67.0794525 57.8420516,67.8176391 58.1683675,68.5374394 C58.5977103,69.4896102 59.3426451,70.2121489 60.0803028,70.9151279 C60.6816126,71.486665 61.3189244,72.071894 62.0967971,72.3699853 C62.41124,72.4893 62.7298959,72.5577593 63.0650208,72.5914021 C63.4166146,72.6266098 63.7502075,72.5808398 64.0987374,72.527246 C64.5908922,72.4540924 65.0593011,72.2753159 65.5231139,72.1024073 C65.9746708,71.9345843 66.4204826,71.7558078 66.8096105,71.4639757 C67.3933023,71.0250539 67.9003941,70.4781621 68.3668879,69.9144489 C68.8249558,69.3640363 69.2125516,68.7713746 69.5354205,68.1294222 C69.8766734,67.4526533 70.1669873,66.7528039 70.3224853,66.0052287 C70.4481092,65.4031782 70.5078572,64.7768737 70.5798612,64.1654345 C70.6499501,63.5543866 70.6622061,62.93395 70.6066712,62.3209461 C70.5469232,61.6426124 70.3941062,60.9869682 70.1861373,60.3407126 C70.0995793,60.0731347 70.0022974,59.8075127 69.9080794,59.5414995 C69.7525814,59.1029689 69.5698905,58.6660032 69.3711136,58.2454676 C69.2542986,57.9997966 69.1359517,57.7552992 69.0195197,57.5076722 C68.7498878,56.9361351 68.3282049,56.4713944 67.8540511,56.0665067 C67.3078933,55.6021572 66.7153925,55.1968783 66.1064227,54.8240686 C65.7368278,54.5963926 65.371829,54.3992299 64.9650831,54.243534 C64.7314532,54.1547325 64.4832693,54.105833 64.2392984,54.0631927 C63.8578305,53.995907 63.4732986,53.9622642 63.0872348,53.9622642 C62.7551739,53.9622642 62.420049,54.015858 62.0925841,54.0721902" id="Fill-22"></path>
            <path d="M34.3460005,70.8473309 C34.33122,70.8667986 34.3164395,70.8866557 34.3012701,70.9061235 C34.3160506,70.8862664 34.3308311,70.8667986 34.3460005,70.8473309 M27.5629174,67.96922 C27.5749751,67.9964748 27.586255,68.0237297 27.5975348,68.0509845 C27.586255,68.0237297 27.5745862,67.9964748 27.5629174,67.96922 M27.7009983,60.7766682 C27.6928302,60.7976934 27.6838841,60.8183292 27.675327,60.8393543 C27.6838841,60.8183292 27.6928302,60.797304 27.7009983,60.7766682 M28.6243907,58.7633144 C28.622057,58.7644824 28.6197232,58.7652611 28.6170005,58.7664292 C28.6177784,58.7664292 28.6177784,58.7660399 28.6185563,58.7660399 C28.6205011,58.7648718 28.6224459,58.7640931 28.6243907,58.7633144 M32.023517,58.1570889 C32.3809718,58.2291195 32.7310363,58.3552705 33.0698209,58.4934915 C33.5167366,58.6932305 33.9585958,58.907765 34.3627258,59.1842069 C34.4327387,59.2468931 34.4984731,59.3119153 34.5618736,59.3819992 C34.8166428,59.7608414 34.9932309,60.1887424 35.1772092,60.6069095 C35.613623,61.7843185 36.0224205,62.9761336 36.214956,64.219733 C36.2771897,64.8524346 36.2604644,65.4901978 36.1888957,66.12251 C36.086988,66.7735113 35.9026207,67.3960897 35.7143638,68.0268445 C35.5965087,68.4243758 35.4525933,68.8195709 35.297787,69.2042535 C35.0581873,69.7454567 34.7625773,70.2761474 34.4136797,70.7558325 C34.3109941,70.8749751 34.2048079,70.9871093 34.0888976,71.0926244 C33.9239783,71.2055373 33.750113,71.301708 33.5688573,71.3877554 C33.2362961,71.5104022 32.8986783,71.5929454 32.5501696,71.6486231 C32.1569305,71.6860012 31.7633024,71.6933989 31.3700633,71.6591357 C31.0713416,71.603458 30.7846777,71.520136 30.5007365,71.4111167 C30.1611739,71.254596 29.8418373,71.0700419 29.538837,70.8504457 C29.2198893,70.582959 28.9386708,70.2843238 28.6765114,69.9627167 C28.24671,69.3798525 27.901313,68.7467616 27.6123153,68.0836903 C27.2723638,67.2442413 27.0230401,66.370529 26.8911825,65.4734555 C26.8433403,65.0794284 26.8122235,64.685012 26.8091118,64.2870913 C26.8063891,63.9308317 26.8425624,63.5734039 26.8880708,63.2202591 C26.9565278,62.7604311 27.0502673,62.306054 27.1630659,61.8559598 C27.3054255,61.7270833 27.3941085,61.564333 27.4656772,61.3743279 C27.5131304,61.2462301 27.5629174,61.1185217 27.6134822,60.9915921 C27.7161678,60.7747214 27.8375235,60.574593 27.9763824,60.3791369 C28.4260208,59.8114576 28.8814936,59.2332657 29.4314839,58.7613676 C29.6496907,58.6044576 29.8768437,58.4670153 30.120722,58.351377 C30.2840854,58.2886908 30.4482268,58.2345705 30.6197584,58.1975818 C31.0853442,58.1520273 31.5579313,58.1212683 32.023517,58.1570889 M30.6621551,55.9708615 C30.3400957,55.9903293 30.0258156,56.0358838 29.7189257,56.130497 C29.4163144,56.2231635 29.1199265,56.3613844 28.8390969,56.5015522 C28.5547668,56.6413305 28.3011645,56.8406802 28.0533966,57.0353576 C27.8316891,57.2086205 27.6325413,57.3986257 27.4427285,57.6057625 C27.0113713,58.0710415 26.6465263,58.5958918 26.2820702,59.1145124 C25.9156694,59.6362479 25.7227449,60.2397479 25.5465458,60.8451946 C25.4244122,61.2637511 25.614225,61.709173 25.9619557,61.9412285 C25.9533986,61.9770491 25.9440635,62.0124804 25.9355064,62.0483011 C25.7791442,62.6856749 25.6679015,63.3351188 25.604112,63.9888455 C25.5434341,64.6215471 25.5831081,65.258921 25.6422301,65.8900652 C25.7091313,66.5819487 25.8456565,67.2679919 26.028079,67.9372929 C26.3653078,69.1723264 26.9199655,70.3754328 27.714612,71.380747 C27.8939228,71.6089089 28.0837355,71.8230541 28.2906626,72.027076 C28.5061467,72.2384957 28.7539146,72.4195457 28.9970149,72.5959234 C29.5077201,72.9654212 30.1078863,73.2329079 30.7092193,73.4108431 C31.0316676,73.5070137 31.3747308,73.5389408 31.7092369,73.5677531 C32.0192385,73.5934505 32.3319628,73.5876102 32.6419643,73.5677531 C32.9764704,73.5447812 33.3121434,73.4918289 33.6404261,73.4233024 C34.0111055,73.3458208 34.3588362,73.1966979 34.7007326,73.0397879 C35.2433325,72.7906008 35.6657437,72.3813889 36.0239764,71.9145525 C36.3919331,71.4336993 36.7003788,70.892496 36.9570928,70.3446738 C37.1301802,69.9751761 37.2744846,69.5936083 37.4098429,69.2089258 C37.4841343,68.9928338 37.5677608,68.7767419 37.6346621,68.5563671 C37.7077866,68.3145777 37.7805223,68.0712309 37.8536469,67.8278842 C38.0205109,67.2711068 38.1134725,66.708489 38.1893198,66.133412 C38.2713905,65.51901 38.2850041,64.8878659 38.2348282,64.2703491 C38.1815406,63.5905356 38.0267343,62.922792 37.8657046,62.2628356 C37.684838,61.5203359 37.4250123,60.8011976 37.1741328,60.0816698 C37.1118991,59.9021772 37.0344959,59.7289143 36.9602045,59.5525366 C36.7991748,59.1690221 36.6502029,58.7769418 36.4479434,58.4132844 C36.1367749,57.8549496 35.642795,57.4566396 35.1126418,57.1190689 C34.8695414,56.9637163 34.6050483,56.8391228 34.3483343,56.709857 C34.0461119,56.5560618 33.7329987,56.426796 33.4183296,56.3006451 C33.1569481,56.197466 32.8897322,56.1012954 32.6178488,56.0331583 C32.2848985,55.949447 31.9204425,55.9311473 31.5769903,55.9249177 C31.5571533,55.9245283 31.5373163,55.9245283 31.5174794,55.9245283 C31.2327602,55.9245283 30.9449294,55.9537299 30.6621551,55.9708615" id="Fill-24"></path>
            <path d="M31.3327153,68.4598189 C31.3357264,68.4783189 31.3380684,68.4968189 31.3397412,68.5153189 C31.3377338,68.4968189 31.3353918,68.4783189 31.3327153,68.4598189 L31.3327153,68.4598189 Z M31.1534571,67.5051288 C31.2711123,67.5208147 31.3859567,67.5402956 31.4999979,67.5625595 C31.1928094,67.7004437 31.0313848,67.9524304 31.1385996,68.1907551 C31.1486385,68.209477 31.1578742,68.2279459 31.1651022,68.2469208 C31.1655037,68.2800636 31.1638975,68.3124474 31.1614882,68.3450842 C31.1381981,68.4111169 31.1092862,68.4753785 31.0739495,68.5396402 C31.0623044,68.5543141 31.0498563,68.568735 31.0374081,68.5829029 C31.0233537,68.5879629 31.0101025,68.5930229 30.9956465,68.5980828 C30.9458539,68.6076968 30.8956597,68.6162987 30.8446623,68.6236357 C30.7832246,68.6254067 30.7221885,68.6254067 30.6599477,68.6238887 C30.5888727,68.6142748 30.5194039,68.6031428 30.4487304,68.5897339 C30.4447149,68.5884689 30.4415025,68.5872039 30.4374869,68.5859389 C30.4318652,68.5798669 30.426645,68.573542 30.4218263,68.567217 C30.4057642,68.5330622 30.3921114,68.4989074 30.3796632,68.4639936 C30.3716321,68.3693721 30.374443,68.2760156 30.3844819,68.1813941 C30.449132,67.9706463 30.5418909,67.7649584 30.6543259,67.5620535 C30.6583415,67.5572465 30.6619554,67.5521865 30.6663725,67.5473796 C30.6912689,67.5380186 30.7161652,67.5289107 30.7418646,67.5200557 C30.7788075,67.5129717 30.816152,67.5066468 30.8538981,67.5008278 C30.9546881,67.4988038 31.0534703,67.5005748 31.1534571,67.5051288 L31.1534571,67.5051288 Z M31.3544621,67.3348194 C31.3474362,67.3404355 31.3400758,67.3457212 31.3327153,67.3513372 C31.3397412,67.3457212 31.3474362,67.3401051 31.3544621,67.3348194 L31.3544621,67.3348194 Z M30.3749984,64.1249995 C30.1957016,64.2472039 30.0273423,64.394568 29.8753893,64.5387872 C29.6937488,64.7086154 29.5320301,64.9000091 29.3703114,65.0931999 C29.3285145,65.1444179 29.2878896,65.1965345 29.249999,65.249999 C29.2550771,65.2284335 29.2609365,65.2064187 29.2667958,65.1848532 C29.4222645,64.9647056 29.5843738,64.7486014 29.7531237,64.5405844 C29.9519518,64.3869303 30.1601548,64.2472039 30.3749984,64.1249995 L30.3749984,64.1249995 Z M31.8291616,64.1518764 C32.155878,64.1888269 32.476629,64.2364584 32.7927913,64.3019878 C32.8836479,64.33201 32.9712923,64.3643417 33.0575601,64.4001375 C33.1511698,64.4515218 33.2401909,64.5052155 33.3241643,64.5629507 C33.3819821,64.6206858 33.4338345,64.6795757 33.4815572,64.7410636 C33.5829677,64.9076295 33.6715299,65.0776595 33.7499969,65.249999 C33.4076789,65.0435958 33.0135084,64.8660602 32.6326453,64.7064225 C32.3440152,64.5869107 32.0035327,64.501174 31.6736042,64.4402635 C31.246395,64.361455 30.8054197,64.3735794 30.3749984,64.4220769 C30.6003042,64.3669398 30.776052,64.2583977 30.8659907,64.1261842 C31.1872006,64.1212767 31.5074928,64.1319577 31.8291616,64.1518764 L31.8291616,64.1518764 Z M31.7468071,63 C31.3978556,63.0013214 31.0632904,63.0297323 30.7156772,63.0815985 C30.6109583,63.0981165 30.514269,63.1380898 30.4175796,63.1783936 C30.2516353,63.2441349 30.0947242,63.3138405 29.9368094,63.3924658 C29.8307523,63.4466446 29.7263679,63.5034663 29.6229873,63.5629308 C29.1174593,63.8493516 28.7069478,64.2956658 28.34361,64.740989 C28.0234311,65.1357674 27.7373779,65.5331886 27.5071971,65.9837975 C27.3583155,66.2764951 27.2365338,66.595291 27.1542308,66.9127655 C27.0889906,67.1605343 27.0628945,67.4251514 27.0381367,67.6795274 C27.0250886,67.8083672 27.0133788,67.9348945 27.0066875,68.0640647 C26.9805914,68.5156647 27.0287688,68.9827915 27.1883564,69.4073021 C27.2773508,69.6448299 27.3857499,69.8717861 27.5292784,70.0795816 C27.6443688,70.2474037 27.7791986,70.4036632 27.9200505,70.5506727 C28.0823146,70.7198163 28.2810463,70.8539418 28.4663954,70.9959959 C28.6166152,71.1093089 28.7685078,71.2216308 28.9277608,71.3210686 C29.2807271,71.5391052 29.6584512,71.7016416 30.0582566,71.8139635 C30.250297,71.8681422 30.4399955,71.9236425 30.6397309,71.9365264 C30.8127011,71.948089 30.9819911,71.9394997 31.1512811,71.9209996 C31.1516156,71.9209996 31.1519502,71.9209996 31.1522848,71.9209996 C31.42529,71.970223 31.6946149,72.0012767 31.9716349,72 C32.2342686,71.9973124 32.500917,71.9457765 32.7581977,71.8991959 C33.1633561,71.825526 33.5374,71.619052 33.883675,71.4063011 C34.1228891,71.2589613 34.3513971,71.093782 34.5722101,70.9210046 C34.815439,70.7287359 35.036252,70.5235833 35.2075494,70.2616091 C35.3343496,70.068019 35.4477672,69.8681522 35.5538244,69.6626692 C35.6662383,69.4446326 35.7629276,69.2137121 35.8505837,68.9854344 C35.9459348,68.7350227 35.9760456,68.4522359 35.9954504,68.1879491 C36.011175,67.9966716 35.9824024,67.8020904 35.9653396,67.6108129 C35.9405817,67.3296778 35.9041141,67.0495339 35.8636317,66.7710417 C35.808763,66.388817 35.7027059,66.021128 35.5943068,65.6521176 C35.4675066,65.2223213 35.307919,64.7809624 35.0322372,64.4221931 C34.5959642,63.8556284 34.0168319,63.4311178 33.3125722,63.2401706 C33.0904209,63.1793846 32.8706116,63.1278487 32.6434418,63.0918396 C32.357054,63.0472413 32.0505923,63 31.7585169,63 L31.7468071,63 Z" id="Fill-34"></path>
            <path d="M62.1051919,62.9736356 C61.9493235,63.2146636 61.7791603,63.4754569 61.8165467,63.7735849 C61.9515227,63.6807974 62.1005186,63.60503 62.2555623,63.582794 C62.3726698,63.5654993 62.4886777,63.5355766 62.6066099,63.5355766 C62.6093589,63.5355766 62.6121079,63.5355766 62.6148569,63.5355766 C62.6552672,63.4707901 62.6989764,63.4076506 62.7410361,63.3447857 C62.8504464,63.1773289 62.7753986,62.9393207 62.6088091,62.8426899 C62.5497056,62.808375 62.4875781,62.7924528 62.427375,62.7924528 C62.300646,62.7924528 62.1783154,62.8599846 62.1051919,62.9736356" id="Fill-32"></path>
            <path d="M63.3327153,67.4598189 C63.3357264,67.4783189 63.3380684,67.4968189 63.3397412,67.5153189 C63.3377338,67.4968189 63.3353918,67.4783189 63.3327153,67.4598189 L63.3327153,67.4598189 Z M63.1534571,66.5051288 C63.2711123,66.5208147 63.3859567,66.5402956 63.4999979,66.5625595 C63.1928094,66.7004437 63.0313848,66.9524304 63.1385996,67.1907551 C63.1486385,67.209477 63.1578742,67.2279459 63.1651022,67.2469208 C63.1655037,67.2800636 63.1638975,67.3124474 63.1614882,67.3450842 C63.1381981,67.4111169 63.1092862,67.4753785 63.0739495,67.5396402 C63.0623044,67.5543141 63.0498563,67.568735 63.0374081,67.5829029 C63.0233537,67.5879629 63.0101025,67.5930229 62.9956465,67.5980828 C62.9458539,67.6076968 62.8956597,67.6162987 62.8446623,67.6236357 C62.7832246,67.6254067 62.7221885,67.6254067 62.6599477,67.6238887 C62.5888727,67.6142748 62.5194039,67.6031428 62.4487304,67.5897339 C62.4447149,67.5884689 62.4415025,67.5872039 62.4374869,67.5859389 C62.4318652,67.5798669 62.426645,67.573542 62.4218263,67.567217 C62.4057642,67.5330622 62.3921114,67.4989074 62.3796632,67.4639936 C62.3716321,67.3693721 62.374443,67.2760156 62.3844819,67.1813941 C62.449132,66.9706463 62.5418909,66.7649584 62.6543259,66.5620535 C62.6583415,66.5572465 62.6619554,66.5521865 62.6663725,66.5473796 C62.6912689,66.5380186 62.7161652,66.5289107 62.7418646,66.5200557 C62.7788075,66.5129717 62.816152,66.5066468 62.8538981,66.5008278 C62.9546881,66.4988038 63.0534703,66.5005748 63.1534571,66.5051288 L63.1534571,66.5051288 Z M63.3544621,66.3348194 C63.3474362,66.3404355 63.3400758,66.3457212 63.3327153,66.3513372 C63.3397412,66.3457212 63.3474362,66.3401051 63.3544621,66.3348194 L63.3544621,66.3348194 Z M62.3749984,63.1249995 C62.1957016,63.2472039 62.0273423,63.394568 61.8753893,63.5387872 C61.6937488,63.7086154 61.5320301,63.9000091 61.3703114,64.0931999 C61.3285145,64.1444179 61.2878896,64.1965345 61.249999,64.249999 C61.2550771,64.2284335 61.2609365,64.2064187 61.2667958,64.1848532 C61.4222645,63.9647056 61.5843738,63.7486014 61.7531237,63.5405844 C61.9519518,63.3869303 62.1601548,63.2472039 62.3749984,63.1249995 L62.3749984,63.1249995 Z M63.8291616,63.1518764 C64.155878,63.1888269 64.476629,63.2364584 64.7927913,63.3019878 C64.8836479,63.33201 64.9712923,63.3643417 65.0575601,63.4001375 C65.1511698,63.4515218 65.2401909,63.5052155 65.3241643,63.5629507 C65.3819821,63.6206858 65.4338345,63.6795757 65.4815572,63.7410636 C65.5829677,63.9076295 65.6715299,64.0776595 65.7499969,64.249999 C65.4076789,64.0435958 65.0135084,63.8660602 64.6326453,63.7064225 C64.3440152,63.5869107 64.0035327,63.501174 63.6736042,63.4402635 C63.246395,63.361455 62.8054197,63.3735794 62.3749984,63.4220769 C62.6003042,63.3669398 62.776052,63.2583977 62.8659907,63.1261842 C63.1872006,63.1212767 63.5074928,63.1319577 63.8291616,63.1518764 L63.8291616,63.1518764 Z M63.7468071,62 C63.3978556,62.0013214 63.0632904,62.0297323 62.7156772,62.0815985 C62.6109583,62.0981165 62.514269,62.1380898 62.4175796,62.1783936 C62.2516353,62.2441349 62.0947242,62.3138405 61.9368094,62.3924658 C61.8307523,62.4466446 61.7263679,62.5034663 61.6229873,62.5629308 C61.1174593,62.8493516 60.7069478,63.2956658 60.34361,63.740989 C60.0234311,64.1357674 59.7373779,64.5331886 59.5071971,64.9837975 C59.3583155,65.2764951 59.2365338,65.595291 59.1542308,65.9127655 C59.0889906,66.1605343 59.0628945,66.4251514 59.0381367,66.6795274 C59.0250886,66.8083672 59.0133788,66.9348945 59.0066875,67.0640647 C58.9805914,67.5156647 59.0287688,67.9827915 59.1883564,68.4073021 C59.2773508,68.6448299 59.3857499,68.8717861 59.5292784,69.0795816 C59.6443688,69.2474037 59.7791986,69.4036632 59.9200505,69.5506727 C60.0823146,69.7198163 60.2810463,69.8539418 60.4663954,69.9959959 C60.6166152,70.1093089 60.7685078,70.2216308 60.9277608,70.3210686 C61.2807271,70.5391052 61.6584512,70.7016416 62.0582566,70.8139635 C62.250297,70.8681422 62.4399955,70.9236425 62.6397309,70.9365264 C62.8127011,70.948089 62.9819911,70.9394997 63.1512811,70.9209996 C63.1516156,70.9209996 63.1519502,70.9209996 63.1522848,70.9209996 C63.42529,70.970223 63.6946149,71.0012767 63.9716349,71 C64.2342686,70.9973124 64.500917,70.9457765 64.7581977,70.8991959 C65.1633561,70.825526 65.5374,70.619052 65.883675,70.4063011 C66.1228891,70.2589613 66.3513971,70.093782 66.5722101,69.9210046 C66.815439,69.7287359 67.036252,69.5235833 67.2075494,69.2616091 C67.3343496,69.068019 67.4477672,68.8681522 67.5538244,68.6626692 C67.6662383,68.4446326 67.7629276,68.2137121 67.8505837,67.9854344 C67.9459348,67.7350227 67.9760456,67.4522359 67.9954504,67.1879491 C68.011175,66.9966716 67.9824024,66.8020904 67.9653396,66.6108129 C67.9405817,66.3296778 67.9041141,66.0495339 67.8636317,65.7710417 C67.808763,65.388817 67.7027059,65.021128 67.5943068,64.6521176 C67.4675066,64.2223213 67.307919,63.7809624 67.0322372,63.4221931 C66.5959642,62.8556284 66.0168319,62.4311178 65.3125722,62.2401706 C65.0904209,62.1793846 64.8706116,62.1278487 64.6434418,62.0918396 C64.357054,62.0472413 64.0505923,62 63.7585169,62 L63.7468071,62 Z" id="Fill-34"></path>
            <path d="M27.7883449,57.8867925 C27.7158558,57.889964 27.6429871,57.889964 27.570498,57.889964 C27.4592974,57.889964 27.3465787,57.8883782 27.2353781,57.8974963 C27.0573812,57.9113716 26.8767276,57.9426901 26.710496,58.0136524 C26.5962591,58.063207 26.4911309,58.1068151 26.3860027,58.1686593 C26.2584825,58.2443788 26.1442457,58.3514169 26.0300089,58.4473547 C25.8846511,58.568268 25.7692757,58.7339788 25.6535208,58.8858142 C25.4994339,59.0883936 25.3540761,59.2992982 25.2132726,59.5129779 C25.0280648,59.7900875 24.8720803,60.0890012 24.7107825,60.3799861 C24.5327856,60.7022895 24.3578249,61.0241966 24.203738,61.3587896 C23.993102,61.8123137 23.8242137,62.2880384 23.7350255,62.7819992 C23.7054226,62.9445384 23.680374,63.1086634 23.6579821,63.2727884 C23.6238249,63.5269047 23.5911858,63.7806245 23.563101,64.0347407 C23.5422272,64.2127411 23.5467815,64.3923271 23.5498177,64.5703274 C23.5646191,65.5352556 23.7946108,66.4752082 24.0629345,67.3921675 C24.117586,67.5792859 24.1946294,67.7620434 24.2629438,67.9463867 C24.3380896,68.1513448 24.4246212,68.3523384 24.508496,68.5545214 C24.7415239,69.1602775 24.9874557,69.7573119 25.3290275,70.3063774 C25.4994339,70.5819013 25.6964071,70.8407748 25.8861692,71.1008376 C26.1161609,71.4167981 26.368165,71.7061972 26.6319344,71.9912356 C26.8395342,72.2160155 27.0486521,72.440399 27.2516976,72.6711254 C27.4042664,72.8459542 27.5526604,73.0382263 27.7291392,73.188476 C27.8133935,73.2594382 27.8995456,73.3260397 27.9898723,73.3894696 C28.0832353,73.4560711 28.195954,73.4917504 28.3026004,73.532187 C28.5325921,73.6217819 28.8529106,73.595617 29.0646851,73.4655856 C29.2901226,73.3276254 29.4339623,73.0552731 29.4339623,72.7825243 C29.4339623,72.4820249 29.2590016,72.2576414 29.054438,72.0717124 C28.9386831,71.9666565 28.8244463,71.8612042 28.7147637,71.7498053 C28.5492911,71.5793373 28.4008971,71.3906332 28.2570574,71.199154 C28.0953801,70.968824 27.9424318,70.7341332 27.8133935,70.4800169 C27.6873915,70.2294686 27.5742932,69.9765417 27.4665083,69.7172717 C27.3310182,69.3787144 27.1959075,69.040157 27.078255,68.6944637 C26.9389696,68.2841512 26.8349799,67.8579812 26.7135322,67.4417221 C26.5977772,67.0464742 26.4850585,66.6532085 26.368165,66.2599428 C26.2634163,65.9071137 26.1977586,65.5439772 26.1450048,65.1788585 C26.1275466,65.0175086 26.1116066,64.857348 26.0968052,64.695998 C26.0679613,64.3796411 26.069859,64.0704201 26.1032571,63.7564418 C26.1624629,63.3798265 26.2277411,63.0051933 26.3176883,62.6361103 C26.4482447,62.0925948 26.562861,61.5371863 26.749587,61.011907 C26.813347,60.8747397 26.8900109,60.7466905 26.9754039,60.6230021 C27.2733305,60.272948 27.633499,59.9910812 27.9826614,59.6985105 C28.1082839,59.5922653 28.1105611,59.3888931 28.0346562,59.2493472 C28.1223263,59.2136678 28.1989902,59.1609417 28.2657865,59.0915651 C28.3917886,58.959948 28.4642777,58.7787762 28.4642777,58.5928471 C28.4642777,58.2225748 28.1667307,57.8867925 27.8054235,57.8867925 C27.7997307,57.8867925 27.7940378,57.8867925 27.7883449,57.8867925" id="Fill-40"></path>
        </g>
        <path d="M256.16014,163 C258.093136,163 259.66014,161.432997 259.66014,159.5 C259.66014,157.567003 258.093136,156 256.16014,156 C254.227143,156 250,160.411463 250,162.344459 C250,164.277456 254.227143,163 256.16014,163 Z" id="Oval" fill="#161616"></path>
    </g>
</svg>