<svg width="500" height="600" xmlns="http://www.w3.org/2000/svg"><g fill="none" fill-rule="evenodd"><path d="M255.07 95.26c10.586-1.32 21.484 2.383 32.697 11.112 1.635 14.609 1.763 26.466.385 35.571-2.068 13.658-17.776 47.39-38.632 44.815-16.151-1.995-27.957-23.108-28.865-29.553-.873-6.191-.873-20.344 0-42.46 12.359-11.669 23.83-18.164 34.416-19.485z" fill="#EEDDC5"/><g fill="#161616"><path d="M229.069 110.224c.145 0 .304.044.476.146.567.334.794 1.198.895 1.778a5.514 5.514 0 010 1.776 166.63 166.63 0 00-1.127 5.61c-.269 1.449-.418 2.919-.574 4.383a118.93 118.93 0 00-.191 3.96c-.06 1.966-.077 3.933-.128 5.9-.048 1.828-.071 3.66-.06 5.49l-.002-.963c.211 1.736.467 3.467.77 5.193.34 1.944.704 3.889 1.136 5.816.514 1.469 1.116 2.909 1.595 4.391.283.877.548 1.768.882 2.626.329.84.73 1.643 1.077 2.474.352.84.636 1.702.901 2.573.127.412.258.825.415 1.226.226.578.356 1.174.511 1.78.19.749.135 2.286.004 3.033-.177 1.019-.373 1.474-.872 2.35-.32.539-.788.844-1.404.911-.37-.06-.709-.13-.962-.386-.484-.49-.734-.741-1.026-1.296a29.679 29.679 0 01-.958-1.98 66.09 66.09 0 01-.698-1.672l.196.476a3.236 3.236 0 01-1.096 1.574c-.476.305-.95.305-1.425 0-.206-.21-.411-.423-.617-.635-.28-.53-.594-1.06-.783-1.632-.099-.3-.192-.602-.274-.907a47.201 47.201 0 01-.462-1.788l-.24-1.03c-1.525.55-2.33-1.863-2.524-2.964a19.62 19.62 0 01-.097-.607c-.111-.64-.247-1.276-.375-1.913a4.717 4.717 0 01-.452-.899 7.19 7.19 0 01-.373-1.718c-.303-2.358-.465-4.738-.575-7.117-.136-1.871-.238-3.73-.305-5.606-.032-.885.007-1.768.032-2.654.023-.858.026-1.717.086-2.574.173-2.472.328-4.944.586-7.41.12-1.162.24-2.323.362-3.484.111-1.062.338-2.123.507-3.177.237-1.494.622-2.954.954-4.426l.08-.405.09-.67c.12-.843.612-2.364 1.46-2.983.25-.643.609-1.247 1.174-1.663.887-.651 1.665.107 2.13.885.159-.651.548-1.792 1.28-1.792z" opacity=".2"/><path d="M271.961 111.994a.364.364 0 01.042-.014l-.043.015.001-.001zm2.104-1.166l.031-.002-.03.002zm-3.143.139l-.01.006.01-.006zm-10.646 4.638l-.012.023a.305.305 0 01.012-.023zm2.588-3.03c-.08.115-.135.24-.19.364a.776.776 0 00-.286.005 1.032 1.032 0 00-.422.196c-.083.071-.2.224-.247.34a.93.93 0 00-.76.186c-.09.077-.18.193-.234.303a.99.99 0 00-.25-.036.847.847 0 00-.607.229c-.046.05-.091.1-.138.149a5.79 5.79 0 00-.123.24.792.792 0 00-.39.107l-.183.12-.17.186-.071.133-.055-.023a3.657 3.657 0 00-.274-.046c-.225-.03-.508.1-.68.246a.943.943 0 00-.287.464c-.123.01-.232.047-.35.1a.813.813 0 00-.418.453.785.785 0 00-.266.144.765.765 0 00-.28.539c-.252-.063-.54.122-.63.353a.752.752 0 00-.065.211l.001.028a.58.58 0 00-.214.521c.02.232.144.432.27.62a2.907 2.907 0 00.864.846.686.686 0 00.765-.05.675.675 0 00.646-.277.623.623 0 00.113-.296 1.3 1.3 0 00.026-.107c.008-.004.017-.006.026-.009a.786.786 0 00.447-.274.847.847 0 00.556-.2.816.816 0 00.276-.51c.03-.155.022-.31.006-.464a.971.971 0 00.068-.01c.223-.046.385-.171.523-.341.116-.14.186-.299.234-.464h.007c.185.008.421-.056.558-.194.075-.075.15-.146.206-.23a.77.77 0 00.87-.281 1.4 1.4 0 00.17-.345.873.873 0 00.458-.088c.216-.105.358-.304.456-.51a.824.824 0 00.017-.039.847.847 0 00.363-.112c.055-.03.105-.064.152-.102.02.028.042.054.066.08.308.337.96.314 1.228-.111a4.03 4.03 0 00.156-.272c.044.01.086.015.128.017.218.011.395-.07.571-.197a.977.977 0 00.22-.22.792.792 0 00.706.016c.196-.088.34-.247.474-.407a.87.87 0 00.546.045.92.92 0 00.4-.209.84.84 0 00.747.024c.239-.101.413-.287.576-.477.088-.102.171-.206.254-.31.19.107.433.138.66.082.23-.056.43-.179.607-.328a.942.942 0 00.463.023 2.31 2.31 0 00.255-.087c.07.055.15.097.238.125.104.046.215.059.33.07.235.023.463-.105.662-.219.136-.077.27-.166.406-.251a1.133 1.133 0 00.732.216c.18-.012.353-.048.53-.073.025 0 .049 0 .072.002l.017.005a.732.732 0 00.793-.275c.208-.295.144-.717-.164-.898-.179-.104-.362-.194-.581-.207-.125-.01-.252.002-.379.014a.87.87 0 00-.31-.274c-.2-.1-.389-.141-.624-.11a1.642 1.642 0 00-.476.157c-.13.062-.255.138-.378.215a.7.7 0 00-.274-.158.993.993 0 00-.79.12c-.326-.179-.75-.128-1.056.11a.776.776 0 00-.485-.199.839.839 0 00-.425.08 1.508 1.508 0 00-.284.187 2.786 2.786 0 00-.348.366.432.432 0 00-.017-.013c-.14-.11-.4-.136-.574-.1-.336.068-.515.332-.687.589a.741.741 0 00-.245-.054 1.017 1.017 0 00-.447.095.87.87 0 00-.22.157.75.75 0 00-.284-.17.973.973 0 00-.436-.024 1.098 1.098 0 00-.599.35.882.882 0 00-.518-.06 1.01 1.01 0 00-.494.27 1.342 1.342 0 00-.068-.05c-.229-.158-.564-.14-.831-.01a.854.854 0 00-.33.274zm-12.562 14.355l.007.047-.03-.22.023.172m-2.56-4.69l.037.085-.037-.084m-1.542-3.045a.668.668 0 00-.2.474c0 .159.066.371.2.474.26.2.51.407.725.654.326.438.583.914.803 1.411.206.513.391 1.047.493 1.589.042.23.086.46.13.69l.09.666a147.064 147.064 0 01.255 2.66c.078.87.096 1.745.1 2.618 0 .9-.012 1.8-.034 2.7-.02.842-.106 1.677-.21 2.514-.132.956-.278 1.91-.408 2.867l.038-.274c-.06.429-.118.856-.175 1.283l.038-.276c-.061.447-.122.894-.181 1.34a47.834 47.834 0 01-.812 4.003 7.807 7.807 0 01-.355 1.074 3.064 3.064 0 00-.192.5c-.019.069-.033.139-.047.206-.03.142-.069.318-.069.454-.001.359.171.711.498.891.303.168.625.218.967.252.492.049.984.04 1.477.015.516-.025 1.03-.055 1.547-.071.235-.007.471.004.707.008.172.001.357-.013.519-.069.266-.09.384-.171.603-.343a.983.983 0 00.257-.435.985.985 0 00-.1-.762 1.015 1.015 0 00-1.051-.469c-.355.029-.705.084-1.057.135-.329.04-.659.082-.989.11-.353.03-.707.063-1.062.078.133-.286.245-.582.328-.882.241-.867.44-1.742.61-2.625.091-.47.18-.94.247-1.414.075-.54.14-1.08.21-1.619.11-.846.199-1.695.31-2.542a40.21 40.21 0 00.27-2.548c.03-.436.04-.866.045-1.303.003-.427-.024-.859-.037-1.286-.021-.785-.038-1.57-.094-2.351a43.175 43.175 0 00-.292-2.663 50.509 50.509 0 00-.442-2.757 11.115 11.115 0 00-.592-1.944 9.711 9.711 0 00-.888-1.738 6.17 6.17 0 00-.561-.73c-.19-.216-.433-.39-.66-.565-.15-.113-.283-.195-.48-.195a.687.687 0 00-.48.195m19.408 3.837c-.418.024-.834.073-1.248.122-.252.03-.505.064-.757.102a8.918 8.918 0 00-.665.132c-.469.105-.92.27-1.366.432-.27.097-.54.193-.804.297-.306.12-.6.247-.882.407a2.774 2.774 0 00-.715.613l.09-.102c-.1.102-.2.205-.24.337a.446.446 0 00.067.392c.142.216.49.31.735.17.082-.047.167-.095.25-.14a.538.538 0 00.157-.13 4.69 4.69 0 01.473-.203 16.273 16.273 0 012.982-.72c.66-.056 1.32-.103 1.984-.102.672.001 1.337.045 2.003.11.54.078 1.073.18 1.602.3.262.06.521.12.781.186.212.053.426.1.634.165.145.062.284.13.42.21.076.045.149.096.223.145.128.085.278.132.429.181.319.104.72-.019.95-.222.297-.261.396-.725.154-1.045-.262-.346-.595-.602-.991-.829-.355-.203-.767-.305-1.172-.4-.36-.084-.733-.135-1.098-.194-.464-.074-.936-.157-1.406-.192a20.416 20.416 0 00-2.59-.022"/><path d="M269.404 130.01l.032-.04-.032.04m-3.03-1.31a1.081 1.081 0 01-.063.007l.063-.008m-.205-1.28l.091.003c.088.017.173.036.258.06l.086.045c.03.026.058.052.085.08l.05.077c.03.09.054.181.074.274a2.7 2.7 0 01.01.377l-.02.084c-.054.05-.108.097-.165.144a2.075 2.075 0 01-.162.09 2.72 2.72 0 01-.245.059c-.05-.012-.1-.025-.149-.04a1.44 1.44 0 01-.09-.045 2.423 2.423 0 01-.082-.085 2.235 2.235 0 01-.132-.203 1.298 1.298 0 01-.033-.115 1.81 1.81 0 01-.004-.205l.022-.077a3.79 3.79 0 01.271-.388c.044-.047.088-.092.135-.135m-.333-2.329c-.422.103-.788.343-1.126.59-.06.042-.118.084-.176.127-.267.15-.523.32-.754.505a1.816 1.816 0 00-.374.457c-.12.194-.208.409-.267.624-.086.323-.101.66-.133.99-.017.195.003.372.038.564.023.132.106.26.167.38.046.095.117.18.183.263.146.185.3.359.485.513.206.172.442.318.691.432.263.122.542.21.829.263.209.067.426.114.643.144.335.05.665.076 1.003.044.335-.035.645-.102.959-.21.216-.077.426-.166.638-.251.099-.04.196-.085.292-.133.23-.115.388-.286.543-.47l-.04.049.082-.099c.01-.01.018-.021.027-.032l-.023.028c.079-.096.152-.193.206-.307a2.88 2.88 0 00.183-.493c.04-.16.064-.323.082-.486.026-.236-.036-.484-.114-.707a4.71 4.71 0 00-.309-.66 3.861 3.861 0 00-.357-.536 4.31 4.31 0 00-.474-.523 4.84 4.84 0 00-.667-.499c-.2-.13-.416-.225-.643-.291-.002-.196-.173-.335-.376-.346-.193-.008-.385-.018-.578-.02h-.019a2.71 2.71 0 00-.621.09m1.453 5.922c-.41.016-.82.053-1.23.074-.455.022-.91.047-1.367.055-.655.01-1.311.017-1.968.016-.395-.001-.724.42-.724.921 0 .503.33.92.724.922.657.001 1.313-.008 1.968-.018.456-.006.912-.035 1.368-.059.409-.02.82-.057 1.229-.102.273-.03.547-.062.817-.117.13-.027.273-.067.382-.164.061-.056.126-.108.174-.183.04-.027.08-.052.116-.084a.636.636 0 00.222-.494c0-.247-.137-.49-.33-.549a1.621 1.621 0 01-.122-.046c-.061-.04-.117-.082-.193-.113-.117-.05-.253-.056-.378-.064a4.396 4.396 0 00-.253-.007c-.146 0-.29.006-.435.012m-31.552-5.929c-.84.089-1.673.221-2.504.35-.178.03-.355.075-.53.112a8.15 8.15 0 00-1.042.295 11.58 11.58 0 00-2.306 1.085c-.156.095-.275.185-.33.344a.487.487 0 00.073.445.72.72 0 00.428.264c.167.038.41.032.553-.057.65-.4 1.346-.73 2.091-.995 1.093-.35 2.284-.465 3.446-.597a15.361 15.361 0 011.684-.048c.491.015.982.042 1.469.089.436.057.846.184 1.26.312.387.118.769.25 1.154.377.095.034.19.069.282.106.07.029.14.06.214.085.092.033.181.067.278.087.111.024.233.026.348.036.303.025.594-.19.67-.41a.464.464 0 000-.298c-.045-.133-.139-.219-.262-.299a3.363 3.363 0 00-.958-.506c-.389-.138-.776-.28-1.172-.404-.367-.116-.732-.233-1.115-.31-.228-.046-.464-.062-.698-.082a9.505 9.505 0 00-.553-.034 57.61 57.61 0 00-1.28-.03h-.059c-.38 0-.765.043-1.141.083"/><path d="M238.229 129.338l.108.078.064.073c.036.132.058.266.077.402.007.065.012.13.016.196a4.85 4.85 0 01-.449-.049 3.55 3.55 0 01-.165-.036.665.665 0 00-.063-.078c.013-.052.028-.103.044-.154.043-.098.095-.19.15-.28l.022-.026a2.25 2.25 0 01.196-.126m-.01-.007l-.022.011a.6.6 0 01.021-.011m-.392-3.33a1.5 1.5 0 00-.575.156c-.175.08-.341.182-.501.294a5.15 5.15 0 00-.54.43 2.944 2.944 0 00-.686 1.006 6.043 6.043 0 00-.255.762c-.09.336-.145.68-.205 1.026-.04.24-.07.48-.063.725.007.225.058.441.126.65.092.283.209.538.375.771.247.343.566.616.912.81.436.243.914.345 1.396.367.273.011.546-.026.817-.06.168-.021.334-.05.498-.092.102-.027.224-.088.314-.14.076-.044.15-.092.222-.15.143-.116.29-.238.421-.375.133-.138.247-.293.353-.46a6.37 6.37 0 00.1-.16c.101-.168.163-.358.23-.547.061-.173.106-.355.153-.531a2.24 2.24 0 00.082-.582c-.003-.239-.052-.487-.09-.721-.026-.165-.048-.332-.079-.495-.02-.103-.046-.2-.077-.297a1.6 1.6 0 00-.425-.69 6.474 6.474 0 00-.474-.426l-.347-.275a2.724 2.724 0 00-.475-.305 5.1 5.1 0 00-.34-.16 1.139 1.139 0 00-.085-.03.35.35 0 00-.214-.382 1.403 1.403 0 00-.543-.12h-.025m-3.056 8.59l-.009.008a.063.063 0 01.01-.008m-.005-.012l-.013.005.013-.005m.753-.81l-.014.005.014-.005m3.515-.696a46.63 46.63 0 00-1.991.274 9.075 9.075 0 00-.83.165c-.248.062-.478.163-.712.26a.394.394 0 00-.22-.052c-.307.02-.64.025-.929.128-.122.043-.218.093-.289.198a.41.41 0 000 .439c.158.27.47.314.782.32l.058.001a.55.55 0 00.025.026c.126.112.27.149.441.164.3.025.596-.05.89-.095.356-.035.716-.048 1.072-.065.46-.02.922-.052 1.382-.081.421-.026.84-.04 1.262-.03.348.008.698.013 1.047.032l.046.005c.144.02.288.041.43.074l.016.01c.19.112.531.162.752.082a.983.983 0 00.426-.224.735.735 0 00.172-.203.805.805 0 00.134-.444c.013-.176-.048-.31-.132-.466-.241-.444-.842-.515-1.323-.56-.203-.02-.409-.02-.613-.025a26.222 26.222 0 00-.47-.005c-.477 0-.952.018-1.426.072m-4.906-14.204l.015-.002c-.005 0-.01 0-.015.002m7.346-.759a13.68 13.68 0 00-.462-.015 29.052 29.052 0 00-.578 0l-.003-.003a.59.59 0 00-.3-.079.588.588 0 00-.317.09c-.56.013-1.12.05-1.676.122-.087.01-.157.027-.223.09a.306.306 0 00-.068.098c-.093.018-.185.04-.277.062a.677.677 0 00-.217-.106.713.713 0 00-.21-.02.647.647 0 00-.84-.195 1.004 1.004 0 00-.184.126.748.748 0 00-.145.21.66.66 0 00-.251.052c-.201-.123-.481-.142-.675-.015a1.037 1.037 0 00-.306.273l-.111.009c-.055.005-.11.01-.166.017-.108.012-.214.027-.322.04l.016-.002-.03.005h-.005.004c-.108-.036-.228-.019-.34-.01-.1.007-.2.011-.302.015-.207.01-.415.019-.623.038-.13.012-.259.033-.387.052-.235.033-.511.102-.666.292l-.061.008c-.265.034-.531.068-.794.12-.266.05-.587.12-.744.36a.614.614 0 00-.083.193 3.076 3.076 0 00-.364.083 1.135 1.135 0 00-.279.117c-.07.007-.14.017-.211.026a5.873 5.873 0 00-.528.086c-.153.033-.302.078-.453.12a5.302 5.302 0 00-.537.182 1.902 1.902 0 00-.302.147c-.045.027-.086.058-.129.086l-.096.003c-.238.01-.45.07-.655.188-.164.095-.298.23-.394.387a5.21 5.21 0 00-.56.415l-.294.242c-.106.086-.201.187-.3.278-.072.067-.136.146-.2.22a.578.578 0 00-.18.067.783.783 0 00-.265.252c-.072.12-.12.25-.168.38-.038.106-.08.21-.118.315a1.184 1.184 0 00-.052.233c-.014.106-.032.213-.039.32-.007.135-.007.263.02.399a.664.664 0 00.474.497c.246.065.47-.026.65-.183.092-.08.168-.193.237-.288.092-.127.151-.29.212-.431l.01-.027c.098-.073.189-.185.207-.298.013-.089.024-.15.018-.222l.017-.045a.962.962 0 01.053-.086 1.74 1.74 0 01.034-.038c.088.068.179.136.273.197.087.058.184.093.284.123l.171.022a.653.653 0 00.323-.085.623.623 0 00.179-.13c.098-.095.135-.207.186-.327a1.31 1.31 0 00.022-.054.727.727 0 00.353.095.66.66 0 00.572-.325.626.626 0 00.239.1.7.7 0 00.358 0 .654.654 0 00.459-.427.62.62 0 00.145.016c.156 0 .358-.062.46-.185.08-.099.174-.19.2-.32.008-.04.015-.081.02-.123l.012-.048a.796.796 0 00.082.04l.143.058a.607.607 0 00.584-.148c.03.01.061.02.093.028a.591.591 0 00.679-.304.627.627 0 00.667-.072l.031.009a.627.627 0 00.707-.293.693.693 0 00.227-.09c.203.086.442.029.609-.106a.584.584 0 00.072.037l.14.057a.594.594 0 00.667-.268.66.66 0 00.35-.08.56.56 0 00.234-.253.666.666 0 00.51-.049.65.65 0 00.603-.064.608.608 0 00.42-.019l.006.01a.57.57 0 00.208.2c.108.062.207.068.327.082a.575.575 0 00.495-.277.503.503 0 00.027.007c.016.02.033.042.051.062a.692.692 0 00.312.168.64.64 0 00.62-.169.56.56 0 00.143.005c.015.018.03.036.048.052a.64.64 0 00.684.119.555.555 0 00.82-.063.515.515 0 00.37-.328.416.416 0 00.036-.016v.01c.003.181.02.4.132.554.112.15.256.254.455.254.18 0 .34-.09.437-.23.08.091.185.152.32.152a.402.402 0 00.201-.059c.098-.055.142-.14.177-.239.03-.092.032-.2.044-.297.015-.135.03-.27.039-.405l.025-.458c.007-.139.014-.277.013-.416a1.927 1.927 0 00-.1-.603.398.398 0 00-.18-.227.436.436 0 00-.303-.039.446.446 0 00-.174.065l-.022-.017a.488.488 0 00-.747-.16m-23.456 31.025L218 149l.018.135zm-.013-.103L218 149l.005.032m67.001-.01L285 149a.308.308 0 01.006.022m-65.99 9.097L219 158l.015.119"/><path d="M219.005 158.033L219 158a.35.35 0 00.005.033"/><path d="M219.02 158.142c-.008-.048-.013-.095-.02-.142.007.047.012.094.02.141m54.99 13.886a.802.802 0 00-.427.29c-.19.214-.354.453-.523.68l-.345.46c-.193.247-.387.494-.584.738-.258.317-.507.647-.778.954a118.67 118.67 0 01-1.604 1.795c-.605.432-1.214.863-1.802 1.316-.75.582-1.518 1.146-2.249 1.753l-1.31 1.088c-.179.148-.356.298-.54.441a3.183 3.183 0 00-.623.649c-.101.14-.214.309-.246.48a.984.984 0 00-.004.02c-.358.236-.72.465-1.09.683-.205.12-.407.247-.614.361-.026.015-.05.03-.075.042a1.238 1.238 0 00-.37.042c-.325.09-.546.293-.73.564a1.528 1.528 0 00-.096.159c.094.049.19.094.284.138.247.095.502.178.756.229.14.028.275.055.407.107.3.12.642.257.857.515.14.168.248.31.337.469l.14-.087c.406-.25.811-.505 1.215-.759a36.066 36.066 0 002.11-1.459 121.753 121.753 0 004.474-3.47c.425-.345.852-.684 1.263-1.044l.899-.79c.482-.423.954-.87 1.284-1.428.296-.5.206-1.159-.202-1.568a1.395 1.395 0 00-.161-.136c.192-.263.38-.531.544-.813.275-.47.587-.94.76-1.46.11-.33-.068-.712-.358-.881a.785.785 0 00-.598-.078m-45.831 2.565a.352.352 0 00-.018-.04l.019.04m-.113-.247l.018.04a.063.063 0 01.004.008l-.022-.048m-.03-.067l.035.076-.034-.076m-3.087-9.26a.554.554 0 00-.328.235c-.081.132-.076.251-.055.394a3.257 3.257 0 00.02.135l-.001-.003c.05.359.097.718.153 1.076.068.446.165.888.257 1.33.087.42.179.838.278 1.256l-.087-.152c-.14-.242-.42-.387-.708-.407l-.172-.208c-.198-.234-.442-.417-.695-.594a1.475 1.475 0 00-.79-.242 1.02 1.02 0 00-.448.121.71.71 0 00-.34.413c-.133.42.132.807.357 1.152.891 1.371 1.877 2.687 2.852 4.006.134.183.27.364.407.546l.046.077.742 1.218c.102.168.201.341.303.511l.192.353c.141.26.29.518.443.773.227.378.452.756.75 1.091a.65.65 0 00.237.162l.73.962c.14.187.302.363.456.542.148.176.3.35.449.528.156.184.334.355.5.53.166.177.339.36.532.518.348.338.808.808 1.351.613.215-.075.387-.172.507-.363.12-.193.13-.395.085-.608a.754.754 0 00-.008-.03.84.84 0 00-.029-.33c-.065-.143-.128-.287-.201-.426-.088-.164-.245-.31-.373-.45-.12-.132-.249-.258-.376-.388-.174-.178-.35-.359-.528-.536-.159-.161-.318-.323-.486-.477-.084-.076-.164-.154-.251-.227a14.798 14.798 0 00-.179-.145 1.423 1.423 0 00-.381-.227 21.6 21.6 0 01-.781-1.062l-.171-.249-.065-.117-.255-.46-.65-1.16-.06-.107-.005-.009a70.84 70.84 0 01-.088-.194l.038.082a9.747 9.747 0 01-.042-.092 64.833 64.833 0 01-.76-1.891 23.617 23.617 0 01-.667-2.07 38.636 38.636 0 01-.485-1.976 29.476 29.476 0 01-.411-2.108c-.045-.32-.088-.64-.135-.959-.018-.122-.143-.246-.252-.305a.59.59 0 00-.422-.052"/><path d="M254.281 103.106c.149-.013.298-.023.448-.033.295-.02.662-.045 1.007-.088l.052-.007c1.03-.122 2.094-.248 3.123-.486l.038-.01a119.011 119.011 0 002.994-.723c-.179.191-.35.402-.53.636-.383.496-.746.99-.981 1.588a3.02 3.02 0 00-.197.966c-.01.126.035.331.082.479.061.2.16.377.324.567.233.274.535.392.854.516.178.07.378.095.568.12l.093.01c.199.024.397.037.6.037.384-.003.738-.073 1.08-.14l.09-.02c.29-.055.607-.131 1-.237.403-.11.8-.243 1.173-.37a59.018 59.018 0 001.692-.612c.624-.24 1.244-.486 1.862-.738-.087.544-.141.98-.18 1.407-.068.691.004 1.42.2 2.052.177.569.347 1.038.54 1.473.274.625.638 1.204.992 1.736.43.642.873 1.186 1.359 1.659.43.421.92.797 1.387 1.14l.734.543c.512.38 1.064.637 1.735.907.722.288 1.485.482 2.07.617.268.061.537.117.808.163l-.024.753-.005.15-.011.345-.005.132-.004.124a46.011 46.011 0 00.01 3.344c.019.486.055.975.091 1.448l.026.338c.054.787.138 1.585.219 2.358.044.414.088.821.127 1.228.055.57.112 1.139.173 1.708l.014.142c.067.643.138 1.307.31 1.952.114.436.462.803.91.958.04.106.086.216.136.324.142.307.396.7.8.831l.002.122.007.129c.026.685.013 1.382 0 2.057v.049l-.007.407c-.017 1-.052 1.838-.108 2.635-.032.434-.07.868-.108 1.303l-.018.193c-.032.37-.065.738-.09 1.11-.11 1.55-.307 3.12-.497 4.639l-.059.485c-.124.926-.234 1.853-.344 2.78-.073.622-.147 1.244-.224 1.865a30.69 30.69 0 01-.363 1.822.4.4 0 00-.065-.065 2.909 2.909 0 00-1.82-.676 2.66 2.66 0 00-.281.015l-.06.01c-.215.025-.417.05-.62.107-.21.058-.417.153-.618.243l-.039.02c-.276.124-.55.251-.82.39-.479.25-.84.473-1.168.724l-.062.048c-.308.235-.626.477-.925.734-.408.348-.885.767-1.331 1.234-.242.253-.458.543-.668.822l-.095.127c-.13.172-.257.344-.385.517l-.255.344a118.558 118.558 0 00-3.061 4.35c-.174.257-.353.51-.532.762-.14.198-.28.396-.418.596-.14.204-.277.41-.413.617-.188.28-.374.563-.57.84-.237.338-.493.674-.74.998l-.043.052c-.284.353-.575.7-.866 1.047-.362.434-.726.869-1.078 1.312a12.883 12.883 0 01-1.946 2.012 5.628 5.628 0 01-.51.34c-.314.087-.65.13-.973.17l-.058.008c-.322.028-.623.046-.912.046a7.21 7.21 0 01-.615-.028c-.576-.109-1.132-.305-1.671-.496-.43-.151-.857-.31-1.282-.473l-.405-.175a64.211 64.211 0 00-.747-.32l-.162-.068c-.466-.197-.948-.4-1.446-.48a19.624 19.624 0 00-1.697-.182 19.96 19.96 0 00-1.422-.06l-.243.001c-.312.007-.624.056-.927.102l-.096.014c-.363.055-.7.21-1.027.363l-.09.041c-.39.178-.84.39-1.234.654a40.85 40.85 0 00-.723.5c-.663.47-1.35.954-2.101 1.299a8.4 8.4 0 01-1.475.439 4.699 4.699 0 01-.626 0 4.8 4.8 0 01-.625-.175 4.97 4.97 0 01-.527-.306 5.753 5.753 0 01-.597-.66c-.303-.442-.616-.93-.985-1.539-.119-.197-.24-.394-.362-.589-.175-.282-.35-.563-.517-.847-.182-.307-.383-.609-.577-.902a34.95 34.95 0 01-.385-.59 32.218 32.218 0 00-.866-1.283l-.143-.204a64.196 64.196 0 00-1.467-2.002c-.256-.338-.51-.678-.762-1.02a34.515 34.515 0 00-1.308-1.644c-.449-.536-.861-1.015-1.338-1.452a6.81 6.81 0 00-1.358-.967 7.443 7.443 0 00-1.086-.453 18.68 18.68 0 00-1.462-.438c-.847-.225-1.775-.325-3.009-.325-.486 0-.971.014-1.455.029l-.146.004a1.025 1.025 0 00-.272.044l-.24-1.426-.013-.083-.027-.166a51.543 51.543 0 01-.278-1.897l-.072-.535c-.074-.556-.155-1.113-.235-1.67l-.13-.91a83.603 83.603 0 01-.447-5.302c-.042-.727-.04-1.467-.04-2.184l.002-.655c-.003-.906-.002-1.813.01-2.72.01-.892.05-1.785.091-2.62.025-.531.036-1.063.047-1.596l.005-.266c.006-.266.014-.531.022-.798.029-.946.074-1.88.133-2.775l.032-.505.006-.1c.044-.677.09-1.375.166-2.063.204-1.45.357-2.901.504-4.303l.009-.076.011-.11.037-.349c.134-1.29.27-2.58.419-3.87a.595.595 0 00.232.041.89.89 0 00.227-.03 45.001 45.001 0 007.585-2.71l.08-.036c.735-.329 1.568-.701 2.343-1.1l3.622-1.86a63.51 63.51 0 001.966-1.066c.333-.186.665-.371.997-.553l.505-.27c.4-.213.789-.42 1.16-.639l.946-.557.943-.558c.353-.206.703-.43 1.042-.648l.06-.038.214-.137.343-.22c.321-.201.638-.406.954-.611l.19-.123.4-.258a50.263 50.263 0 002.887-2.032c.477-.358.984-.747 1.463-1.162.416-.36.792-.76 1.073-1.067l.03-.034.034-.036c.471.158.983.206 1.552.25a11.253 11.253 0 001.733-.006m12.524-33.735c-1.06.013-2.182.06-3.437.148-.464.031-.94.086-1.358.135l-.15.017c-.595.069-1.298.159-2.017.304-1.052.212-2.104.506-3.121.79l-.075.02c-.367.103-.743.225-1.099.342l-.413.134c-.438.139-.896.296-1.4.481a48.63 48.63 0 00-2.3.93l-.487.207c-.065.029-.13.056-.196.083l-.035.014c-.45.19-.89.38-1.33.57l-.134.058-.928.402c-.894.36-1.781.73-2.67 1.1-.21.088-.414.186-.619.285l-.426.202-.393.182c-.3.14-.601.28-.905.414-.467.206-.936.409-1.406.612l-.18.079-.959.416-.64.282c-.597.265-1.195.529-1.796.784l-.042.014-.03.028-.002-.003-.048.018h.003l-.072.022-.408.172.057-.019-.241.095-.116.046a4.24 4.24 0 00-.278.117l-.144.062-.035.016-.033.024-.002-.003a106 106 0 00-2.055.872l-.627.27c-.787.313-1.575.624-2.364.933-.257.101-.52.192-.785.283l-.077.028c-.147.05-.294.103-.443.156-.863.308-1.633.515-2.354.63a8.169 8.169 0 01-.722.027 26.3 26.3 0 01-.589-.01h-.072l-.162-.005-.164-.004-.163-.005-.193-.01a4.749 4.749 0 00-.31-.012c-.162 0-.287.018-.394.056-.308.106-.513.262-.648.494-.169.285-.153.568-.108.828.09.55.683.904 1.075 1.137.165.1.335.191.506.281l.2.106c.48.26.992.52 1.61.814.674.326 1.283.581 1.862.78.12.04.24.078.36.115l-.412.317c-.271.215-.545.428-.818.642-1.54 1.16-3.383 2.487-5.38 3.55-.168.09-.335.181-.503.273l-.073.039c-.311.17-.633.344-.956.502l-1.837.895c-.649.315-1.314.603-2.055.92a151.411 151.411 0 00-1.993.872c-.44.18-.893.369-1.358.52-.512.164-1.04.306-1.55.444l-.14.036c-.74.197-1.513.367-2.194.514l-.185.042-.598.132-.139.03c-.427.096-.867.193-1.242.431-.2.126-.325.29-.459.463l-.062.08c-.141.185-.158.452-.164.687-.01.287.1.614.332 1 .153.257.364.488.567.705a9.7 9.7 0 00.592.556l.28.245c.249.218.498.436.75.652.172.15.35.294.528.437l.058.048c.172.14.344.28.511.427.278.24.57.496.823.79.082.114.159.23.228.355l.032.118-.047.077c-.234.265-.51.517-.754.74l-.092.084c-.294.273-.594.52-.954.806l-.402.305-.402.304-.041.03-.024.032-.001-.003-.07.044-.041.036c-.002.002-.032.026-.031.028-.657.496-1.506 1.154-2.272 1.864-.22.208-.4.396-.549.574-.315.374-.508.765-.718 1.274-.067.158-.11.329-.153.493l-.03.128a8.262 8.262 0 00-.187 1.038c-.127.972-.09 1.972-.053 2.94l.01.23c.016.434.036.867.057 1.3.03.639.061 1.277.078 1.913.016.66.04 1.201.074 1.702.042.623.121 1.238.201 1.809l.046.353c.052.406.106.804.175 1.19l.297 1.656c.118.675.26 1.345.421 2.086.081.377.162.753.239 1.128.102.509.228 1.057.384 1.677.103.407.229.819.351 1.217l.02.065.118.38c.165.541.332 1.08.508 1.618.167.51.37 1.03.645 1.639.264.595.507 1.088.765 1.55.153.279.333.55.507.812l.045.066c.097.145.192.29.283.436.305.487.608.975.902 1.469.28.474.596 1.012 1.004 1.477.2.227.408.45.613.672l.066.071.39.424c.415.46.829.921 1.242 1.384a85.463 85.463 0 002.436 2.645.8.8 0 00.574.235.833.833 0 00.434-.12c.005.238.02.48.036.723l.003.045c.016.23.03.457.044.686.043.723.107 1.67.222 2.582.068.544.132 1.088.196 1.632l.008.064c.151 1.273.309 2.589.51 3.878l.027.179c.12.791.246 1.61.406 2.414.159.813.438 1.587.757 2.444.322.863.65 1.722.987 2.579.12.31.239.619.357.93.196.519.39 1.028.599 1.534.302.733.59 1.47.878 2.205l.097.243c.165.419.363.912.582 1.396.187.415.408.816.62 1.19.155.277.34.544.52.802l.195.28c.23.338.445.69.663 1.05l.115.19c.135.221.266.444.398.666l.091.152c.275.463.558.943.857 1.409.779 1.211 1.647 2.392 2.487 3.533.222.301.435.59.646.879.501.687 1.088 1.48 1.726 2.205.33.377.614.672.89.929.269.249.546.493.958.841.26.22.519.443.776.667 1.085.939 2.205 1.906 3.494 2.587.39.208.787.4 1.181.573.274.122.553.227.814.323.202.073.413.149.624.2.837.204 1.713.342 2.486.465l.12.02c.327.052.655.096.985.133l.023-.054c.16-.36.333-.71.512-1.06.308-.601.62-1.203.972-1.778.246-.402.538-.786.897-1.093a6.414 6.414 0 011.225-.847c.43-.218.866-.428 1.3-.638l.031-.061c.107-.225.374-.472.568-.637.092-.077.182-.15.276-.225a30.89 30.89 0 011.176-.886c.583-.42 1.262-.74 1.924-1.018.782-.329 1.577-.626 2.444-.624.287 0 .552.054.799.151.261-.005.527.056.796.224.376.235.646.59.741 1.01a2.855 2.855 0 01.707 1.178c.135.41.138.824.05 1.24a1.922 1.922 0 01-.36.78c.242.179.515.318.788.444.25.094.507.176.764.226.14.03.277.056.41.108l.095.037c.415-.316.808-.656 1.194-.99.471-.41.978-.799 1.47-1.173l.076-.059.154-.116c1.193-.911 2.744-2.136 4.142-3.52.47-.468.926-.964 1.368-1.443l.402-.435c.497-.54.874-1.001 1.188-1.455l.112-.165c.274-.397.52-.756.784-1.101l.234-.308c.159-.194.32-.385.478-.575l.15-.178c.967-1.155 1.969-2.35 2.74-3.675.372-.637.706-1.3 1.073-2.04l.156-.316c.27-.54.523-1.115.746-1.622.121-.278.244-.557.368-.832.74-1.627 1.476-3.254 2.204-4.886a33.385 33.385 0 001.072-2.654c.262-.758.509-1.573.754-2.49l.293-1.105c.093.029.228.043.371.043.17 0 .321-.022.427-.06a6.62 6.62 0 00.583-.234l.075-.033.236-.107c.438-.194.942-.423 1.39-.71a17.244 17.244 0 002.619-2.047 385.166 385.166 0 004.888-4.715l.273-.266.036-.036c.727-.713 1.48-1.448 2.188-2.203.82-.878 1.63-1.776 2.381-2.616a24.685 24.685 0 002.162-2.85 112.102 112.102 0 001.983-3.111c.644-1.046 1.117-2.2 1.534-3.214.147-.357.291-.715.436-1.074l.088-.215c.238-.588.476-1.175.721-1.759.455-1.073.814-2.206 1.143-3.272.204-.667.347-1.38.46-2.312.092-.779.042-1.614-.152-2.555-.126-.6-.35-1.188-.574-1.74a36.46 36.46 0 00-.563-1.329l-.142-.324.016.068-.027-.084a.293.293 0 00-.015-.034l-.055-.135c-.273-.632-.546-1.263-.763-1.898-.225-.652-.391-1.36-.536-2.298a9.25 9.25 0 01-.062-1.35c.014-.426.05-.887.114-1.454.09-.541.194-.987.33-1.403a43.93 43.93 0 01.53-1.584l.167-.463a31.3 31.3 0 00.426-1.204c.2-.634.258-1.312.296-1.898.055-.87-.16-1.795-.656-2.827-.201-.424-.473-.82-.736-1.203l-.032-.044c-.628-.919-1.405-1.745-2.154-2.543l-.03-.032-.115-.122a47.27 47.27 0 00-1.468-1.499 12.7 12.7 0 01-1.109-1.238l-.058-.078c-.294-.394-.596-.797-.816-1.238a5.733 5.733 0 01-.27-.915c-.04-.524-.01-1.06.014-1.534.019-.387.054-.802.11-1.267.06-.344.14-.688.22-1.02l.015-.065.025-.1c.03-.127.06-.251.093-.376l.013-.057c.075-.303.153-.615.203-.925.064-.408.09-.745.026-1.157a2.498 2.498 0 00-.289-.79c-.169-.316-.482-.544-.738-.708a4.05 4.05 0 00-.377-.21.97.97 0 00-.565-.439l-.062-.019c-.191-.057-.388-.117-.598-.155l-.166-.03-.094-.017c-.137-.026-.274-.05-.41-.081a6.838 6.838 0 01-.145-.033 10.903 10.903 0 01-1.048-.326l-.081-.047-.07-.04c-.127-.072-.256-.144-.381-.217-.702-.407-1.434-.9-2.24-1.51a22.856 22.856 0 01-1.427-1.275 16.655 16.655 0 01-.4-.39 18.776 18.776 0 01-.68-.794 13.688 13.688 0 01-.495-.674l-.07-.103-.069-.102c-.1-.18-.22-.391-.357-.59a.888.888 0 00-.08-.132c.04-.389-.093-.753-.352-.972a7.733 7.733 0 01-.25-.218l-.18-.16a6.165 6.165 0 00-.333-.26l-.19-.14a9.844 9.844 0 00-.524-.37l-.163-.112-.063-.042c-.408-.278-.87-.593-1.346-.876a27.79 27.79 0 00-1.359-.75l-.15-.077a15.32 15.32 0 00-2.16-.935 10.876 10.876 0 00-.735-.219l-.3-.083a24.7 24.7 0 00-1.589-.378 17.114 17.114 0 00-1.914-.263 48.908 48.908 0 00-2.629-.153l-.658-.026a37.451 37.451 0 01-3.056-.258l-.202-.03a15.99 15.99 0 00-1.44-.166c-.34-.017-.713-.028-1.139-.028l-.501.003"/><path d="M218.57 143.81a39.58 39.58 0 00-.176 2.458c-.024.796-.072 1.586.037 2.377a35.098 35.098 0 00.052.375c.196 1.608.235 3.226.412 4.836.088.807.15 1.617.223 2.424a60.244 60.244 0 00.277 2.54l-.006-.052c.069.51.154 1.017.237 1.524.082.498.14.998.22 1.495.157.952.35 1.9.559 2.84.217.975.566 1.915.812 2.883.237.932.436 1.87.72 2.79.305.987.715 1.929 1.198 2.842.458.864.897 1.74 1.363 2.602.252.471.525.936.793 1.399.238.414.488.824.75 1.224.607.932 1.272 1.84 2.049 2.637.684.703 1.386 1.41 2.164 2.013.456.353.917.678 1.414.972.407.24.807.493 1.223.717 1.8.967 3.797 1.492 5.737 2.098.957.3 1.931.554 2.915.743 1.13.218 2.273.337 3.415.473l.317.038.073-.168c.16-.36.333-.711.512-1.061a29.6 29.6 0 01.835-1.549 28.78 28.78 0 01-1.313-.143c-.515-.064-1.032-.119-1.547-.182a28.506 28.506 0 01-2.153-.374 27.284 27.284 0 01-2.2-.586c-1.399-.437-2.812-.829-4.17-1.376a9.74 9.74 0 01-.632-.29c-.306-.156-.601-.334-.897-.509-.533-.315-1.067-.62-1.568-.982-.464-.374-.896-.788-1.33-1.194a16.633 16.633 0 01-1.355-1.423 22.498 22.498 0 01-1.191-1.72c-.431-.7-.837-1.414-1.249-2.125-.393-.678-.733-1.386-1.11-2.072-.338-.62-.692-1.232-.981-1.874a22.269 22.269 0 01-.825-2.503c-.268-.974-.616-1.928-.957-2.879a32.881 32.881 0 01-.84-2.79c-.115-.442-.238-.885-.344-1.33-.12-.508-.226-1.02-.346-1.53a52.375 52.375 0 01-.607-2.824c-.083-.47-.187-.938-.273-1.408-.094-.503-.18-1.008-.27-1.51-.089-.49-.16-.981-.247-1.47-.083-.475-.169-.948-.24-1.422-.082-.538-.151-1.077-.243-1.613-.073-.427-.187-.847-.256-1.274-.124-1.353-.018-2.721.108-4.067.028-.294-.269-.54-.543-.54-.318 0-.518.246-.545.54m63.963 4.745c-.376.218-.629.609-.72 1.026-.096.443-.165.897-.227 1.346-.067.496-.155.99-.244 1.482-.08.45-.183.896-.287 1.342-.116.489-.27.968-.415 1.448-.143.473-.272.952-.422 1.423-.165.52-.356 1.033-.545 1.546-.348.949-.705 1.896-1.075 2.838-.38.969-.783 1.928-1.153 2.901-.398 1.047-.813 2.087-1.209 3.134-.409 1.08-.825 2.16-1.267 3.228a36.7 36.7 0 01-.822 1.78 80.919 80.919 0 01-1.093 2.102c-.336.628-.71 1.236-1.07 1.85a40.44 40.44 0 01-.612 1c-.19.304-.418.59-.635.877-.398.51-.81 1.022-1.301 1.44-.256.22-.522.43-.778.65-.26.22-.513.452-.772.673-.845.607-1.746 1.133-2.633 1.677-.464.283-.925.557-1.418.79-.453.213-.907.423-1.365.626-.52.195-1.043.37-1.576.529l.063.013c.14.029.277.056.41.107.303.12.647.257.864.515.246.29.398.503.512.871.093.304.114.639.063.96.416-.15.827-.313 1.235-.493.46-.204.92-.412 1.373-.634.491-.24.952-.516 1.417-.801.886-.544 1.795-1.066 2.632-1.683.506-.375.965-.797 1.44-1.206.358-.308.754-.582 1.066-.936.764-.869 1.506-1.772 2.121-2.752.29-.459.56-.93.833-1.397.258-.438.517-.877.757-1.325.499-.928 1.003-1.861 1.435-2.822a58.313 58.313 0 001.344-3.202c.396-1.035.79-2.073 1.197-3.103.375-.955.73-1.919 1.107-2.872.389-.983.786-1.96 1.16-2.95.366-.967.762-1.932 1.075-2.919.162-.509.304-1.022.458-1.532.14-.456.288-.909.402-1.372.233-.933.41-1.876.555-2.828.07-.463.147-.924.225-1.388a7.53 7.53 0 00.086-.636c.008-.092-.1-.592-.065-.48-.1-.34-.343-.68-.664-.843-.245-.128-.439-.2-.72-.2a1.51 1.51 0 00-.742.2"/><path d="M260.347 177.627c-.7.001-1.397.016-2.095.027-1.465.025-2.93.207-4.362.503a28.61 28.61 0 00-2.628.691c-.466.145-.92.318-1.365.512-.423.185-.8.436-1.195.674-.343.206-.579.55-.636.94a9.407 9.407 0 00-.286.142c-.381.198-.696.476-1.004.77a1.336 1.336 0 00-.187 1.67 1.262 1.262 0 00-.081.327c-.777.02-1.553.03-2.33.028-.472-.001-.944-.005-1.415-.001l-1.02.007c-.073.002-.145.002-.217.002a6.1 6.1 0 01-.217-.002 7.172 7.172 0 00-.308 0 3.46 3.46 0 00-.629.096c-.363.086-.686.35-.871.665-.133.225-.2.469-.2.73 0 .26.067.504.2.73.18.405.577.594.954.77.323.15.657.276.997.384.491.156.994.28 1.494.41 1.075.28 2.15.556 3.242.772.622.124 1.25.225 1.88.306.573.071 1.149.077 1.725.076 1.13 0 2.26-.029 3.39-.078 1.008-.043 2.017-.183 3.008-.352.99-.17 1.964-.38 2.935-.63.448-.116.892-.262 1.333-.403.445-.141.885-.29 1.322-.456.646-.246 1.282-.518 1.879-.867.55-.32 1.056-.73 1.527-1.152.487-.437 1.03-1.011 1.013-1.706a1.152 1.152 0 00-.572-.992 24.824 24.824 0 00-.342-.143 1.183 1.183 0 00-.616 0c-.13.018-.25.057-.374.097-.213.069-.424.138-.635.21-.381.128-.76.265-1.147.375l-.03.008a1.307 1.307 0 00-.373-.735 1.429 1.429 0 00-.373-.262l.144-.095c.392-.248.646-.648.646-1.118a1.32 1.32 0 00-.041-.327l.037-.011c.15-.06.297-.123.444-.19a20.3 20.3 0 00.35-.27c.15-.151.254-.326.311-.53a1.221 1.221 0 000-.636c-.107-.384-.439-.752-.844-.837-.547-.114-1.112-.135-1.674-.135-.256 0-.51.005-.764.006m-15.63-23.363c-.518.112-.822.622-.684 1.067.146.468.685.717 1.203.607.285-.06.57-.107.857-.146.718-.063 1.44-.03 2.156.041a8.83 8.83 0 011.644.392 6.92 6.92 0 011.023.51c.18.136.345.282.498.44.033.079.073.155.118.23.126.204.283.3.492.431.37.237.943.2 1.324.001.416-.217.634-.603.651-1.026.028-.659-.587-1.055-1.109-1.398-.13-.087-.263-.172-.397-.255-.299-.183-.639-.312-.972-.436a11.003 11.003 0 00-2.016-.54c-.794-.135-1.61-.17-2.416-.181l-.126-.001c-.755 0-1.516.105-2.246.264"/></g><path stroke="#161616" stroke-linecap="square" d="M265.5 125.5l1 2"/></g></svg>