<svg width="500" height="600" xmlns="http://www.w3.org/2000/svg"><g fill="#161616" fill-rule="evenodd"><path d="M338.351 222.54a.963.963 0 00-.15.562c.002.269.051.53.145.781.09.253.22.485.392.692.156.177.424.423.7.323.333-.014.64-.085.948-.147.314-.064.63-.132.942-.203.298-.067.595-.132.894-.195.099.056.208.08.328.05.497-.124.992-.254 1.488-.383.44-.07.88-.135 1.317-.22a89.961 89.961 0 002.07-.43c.707-.156 1.42-.287 2.122-.455.71-.17 1.41-.361 2.11-.562l.862-.25c1.052-.217 2.105-.429 3.155-.657 1.432-.31 2.859-.64 4.292-.938 2.84-.589 5.668-1.238 8.514-1.795 1.447-.283 2.911-.51 4.344-.864 1.487-.367 2.965-.755 4.436-1.189 1.408-.415 2.805-.863 4.204-1.31a89.066 89.066 0 004.095-1.39c2.789-1.041 5.528-2.211 8.26-3.39 1.378-.596 2.734-1.25 4.1-1.872 1.33-.606 2.664-1.204 3.997-1.807 2.574-1.164 5.104-2.419 7.673-3.596.957-.438 1.934-.836 2.89-1.28.924-.43 1.84-.879 2.728-1.378a32.633 32.633 0 002.74-1.74 45.528 45.528 0 001.978-1.457c.112-.088.22-.176.327-.268.313-.271.386-.661.382-1.055a3.207 3.207 0 00-.43-1.56 2.203 2.203 0 00-.605-.71.702.702 0 00-.493-.16c-.352.01-.673.172-.991.318a63.98 63.98 0 00-.594.276c-.488.169-1.491-2.153-1.977-1.988-.71.24-1.991-7.66-2.7-7.418-.685.234-2.455 9.282-3.131 9.54-.664.255.878 2.419.232 2.715-.566.258-1.115.553-1.675.824a48.25 48.25 0 01-2.074.948 70.138 70.138 0 01-4.032 1.586c-1.45.517-2.901 1.034-4.354 1.549-.25.088-.498.182-.747.275-.104.039-.207.076-.312.113a9.978 9.978 0 00-.693.264c-.64.282-1.28.56-1.917.847-1.32.595-2.64 1.189-3.99 1.715a286.505 286.505 0 01-4.399 1.676c-1.405.523-2.825 1.011-4.24 1.511-1.354.479-2.688 1.02-4.026 1.544-2.618 1.026-5.288 1.897-7.966 2.752-1.403.448-2.815.883-4.205 1.372-1.404.494-2.803 1-4.208 1.49-.772.237-1.43.432-2.086.626l-4.292 1.269-.643.187c-.448.101-.895.203-1.339.312-1.238.304-2.469.638-3.706.944-.616.152-1.233.299-1.847.455-.663.167-1.317.363-1.972.56-.565.17-1.119.378-1.673.575-.545.193-1.097.349-1.649.52-.46.141-.919.288-1.372.453-.14.051-.28.104-.42.159-.59.232-1.28.454-1.757.885z" opacity=".2"/><path d="M370.099 210.014c-2.34.853-4.682 1.706-7.022 2.565-2.406.883-4.823 1.75-7.215 2.674-1.168.452-2.346.893-3.497 1.39l-1.952.843c-.666.288-1.32.606-1.98.908-2.279 1.044-4.602 1.988-6.916 2.952-1.81.754-3.64 1.46-5.467 2.179-.818.322-1.658.6-2.485.896-1.334.48-2.669.954-4.007 1.422-.551.193-.85.795-.668 1.298.187.512.795.757 1.346.564l.396-.138c.065-.116.144-.228.237-.336.609-.693 1.495-1.065 2.315-1.474 1.222-.61 2.488-1.15 3.742-1.694 1.284-.557 2.566-1.12 3.858-1.657 1.303-.542 2.639-1.018 3.962-1.503 2.696-.988 5.396-1.965 8.094-2.947 1.378-.5 2.76-.997 4.125-1.53 1.354-.526 2.708-1.05 4.07-1.554 5.465-2.021 10.947-3.997 16.422-5.99l2.901-1.055c-.106-.348-.22-.694-.344-1.034-1.037.321-2.077.631-3.117.942-1.145.343-2.285.703-3.43 1.05l-3.368 1.229m12.985 11.381c-.966.496-1.964.923-2.969 1.333-2.026.824-4.1 1.54-6.155 2.289l-4.086 1.487c-.756.359-1.513.717-2.27 1.074-1.85.873-3.68 1.788-5.515 2.695a121.333 121.333 0 01-5.23 2.432c-1.027.448-2.048.904-3.068 1.365-.805.364-1.614.724-2.405 1.114-.941.463-1.881.928-2.825 1.383-.972.468-1.949.92-2.932 1.366-1.813.825-3.67 1.558-5.51 2.322-1.142.475-2.292.933-3.435 1.408-1.145.476-2.255 1.027-3.353 1.6-.164.086-.29.167-.372.342a.666.666 0 00.32.88c.142.067.36.099.505.023a42.61 42.61 0 012.828-1.364c.47-.21.954-.392 1.431-.584.46-.186.922-.364 1.384-.544.85-.333 1.697-.679 2.546-1.015.946-.373 1.892-.744 2.831-1.13a211.64 211.64 0 002.994-1.261c.807-.348 1.603-.728 2.4-1.102.998-.468 1.997-.93 3.006-1.374.962-.422 1.927-.833 2.893-1.244.815-.347 1.642-.669 2.455-1.02a146.68 146.68 0 003.047-1.354c1.801-.83 3.589-1.692 5.388-2.527.859-.4 1.723-.786 2.587-1.175.909-.409 1.813-.83 2.718-1.247 1.83-.844 3.658-1.693 5.486-2.538.92-.427 1.84-.855 2.765-1.273.9-.407 1.804-.8 2.708-1.198l1.125-.499c-.065-.263-.132-.526-.199-.789l-.098-.385-.995.51"/><path d="M355.71 216.317c-1.691.619-3.385 1.236-5.06 1.896-.892.35-1.788.694-2.672 1.06l-3.346 1.39c-.818.34-1.623.711-2.433 1.068l-3.02 1.327c-.216.095-.425.203-.637.303l-1.718.82-3.402 1.622c-.825.393-1.639.808-2.456 1.214l-.238.119a1.024 1.024 0 00-.335.36.816.816 0 00-.064.675.803.803 0 00.384.431c.08-.22.205-.43.384-.624.618-.672 1.507-1.043 2.331-1.447 1.229-.604 2.5-1.14 3.758-1.682 1.289-.554 2.575-1.115 3.872-1.65 1.308-.539 2.647-1.017 3.974-1.503 2.703-.99 5.41-1.97 8.114-2.955 1.382-.501 2.766-1 4.136-1.531 1.358-.527 2.716-1.05 4.081-1.555 5.48-2.025 10.976-4.007 16.465-6.005l1.905-.693a.726.726 0 00-.655-.559 1.79 1.79 0 00-.378.006c-.18.026-.38.077-.553.126l-.353.098c-.246.069-.49.148-.734.222-.425.131-.847.268-1.271.403-.92.293-1.842.578-2.76.88-1.861.617-3.72 1.237-5.565 1.905a3982.957 3982.957 0 00-11.754 4.28m26.285 5.326c-.957.509-1.949.942-2.95 1.355-2.015.83-4.082 1.54-6.132 2.287l-.112.04a288.318 288.318 0 01-4.015 1.689c-.964.397-1.92.815-2.88 1.224-1.065.452-2.139.887-3.201 1.347-1.038.448-2.068.916-3.108 1.358-1.165.496-2.328.995-3.491 1.494-1.014.435-2.02.89-3.026 1.343-1.06.476-2.135.92-3.199 1.389-.966.425-1.916.886-2.886 1.3-1.12.481-2.242.961-3.363 1.44-2.005.852-4.012 1.694-6.01 2.562-.458.199-.924.379-1.387.567-.426.174-.85.352-1.28.516-1.162.444-2.325.883-3.495 1.308-.532.193-.792.857-.574 1.456.219.601.844.94 1.375.746a166.547 166.547 0 006.55-2.5c2.214-.908 4.444-1.772 6.665-2.662.931-.375 1.865-.744 2.787-1.142 1.164-.504 2.331-1 3.501-1.49.955-.4 1.913-.791 2.86-1.21 1.17-.515 2.342-1.02 3.517-1.521a606.08 606.08 0 005.154-2.228l.048-.025a170.939 170.939 0 017.056-3.498c.64-.299 1.29-.574 1.926-.88.587-.283 1.18-.555 1.774-.82.612-.271 1.213-.566 1.824-.842.587-.264 1.186-.499 1.777-.755.606-.264 1.231-.478 1.853-.703l.43-.155c.218-.115.436-.231.654-.35.53-.283 1.051-.562 1.505-.97.3-.271.443-.687.281-1.13a1.086 1.086 0 00-.428-.54m-2.458-13.314c.105.126.26.197.434.215l1.084-.394c.463-.261.927-.52 1.395-.775l.381-.17c.762-.34 1.519-.687 2.283-1.02-.87.337-1.738.673-2.614.991-.533.195-1.087.179-1.52-.001-.472.154-.945.305-1.419.455-.166.223-.179.51-.024.699m27.073-10.52c-1.86.803-3.703 1.65-5.543 2.502a138.76 138.76 0 013.535-1.18c1.487-.472 3.027-.791 4.515-1.26.509-.162 1.017-.325 1.525-.49-1.188.064-2.376.126-3.543.256-.04.002-.08.007-.12.013a18.58 18.58 0 00-.37.159"/><path d="M412.617 209.44c-1.699.744-3.408 1.466-5.096 2.234-1.797.817-3.58 1.672-5.388 2.46-.95.414-1.903.826-2.854 1.238-.82.355-1.648.698-2.462 1.069-1.87.849-3.73 1.717-5.593 2.582-.922.429-1.83.884-2.74 1.342-.817.413-1.642.809-2.46 1.22-.46.233-.928.452-1.381.697-.415.223-.825.453-1.244.667-.496.252-.99.502-1.495.736-.411.19-.843.338-1.267.495-1.858.689-3.72 1.366-5.582 2.04-1.814.657-3.636 1.3-5.513 1.757l-.908.218c-.296.055-.59.1-.89.14a39 39 0 01-.633.078c-.27.03-.536.014-.809.001a21.159 21.159 0 00-1.103-.021c-.378.002-.756-.025-1.134-.051-.169-.016-.338-.03-.507-.044-.35.186-.7.37-1.05.557l-.16.084a.997.997 0 00.162.711 47.09 47.09 0 00-1.053.196c-.519.104-1.042.18-1.557.3a7.13 7.13 0 00-.642.185c-.356.144-.714.285-1.072.423-.32.14-.638.287-.958.428l-1.222.542a.904.904 0 00-.505.501 1.09 1.09 0 00-.004.77c.107.294.32.509.57.615l.322-.147c.59-.265 1.194-.501 1.789-.759.61-.265 1.239-.48 1.864-.707.572-.206 1.142-.42 1.722-.604.516-.163 1.046-.27 1.563-.43.57-.173 1.148-.305 1.727-.444.61-.145 1.205-.348 1.804-.529.675-.204 1.357-.38 2.033-.576.615-.178 1.22-.38 1.83-.574.642-.204 1.293-.387 1.929-.613 2.527-.9 5.045-1.831 7.565-2.753l.698-.253a73.226 73.226 0 003.027-1.15c.603-.251 1.196-.526 1.8-.769.658-.264 1.316-.525 1.96-.82.606-.279 1.22-.538 1.832-.803.648-.28 1.311-.52 1.955-.806a59.9 59.9 0 011.737-.722c.654-.264 1.297-.56 1.952-.827 1.226-.502 2.45-1.008 3.668-1.53 1.266-.543 2.556-1.027 3.808-1.607 1.167-.54 2.327-1.096 3.491-1.646 1.184-.56 2.356-1.146 3.542-1.701 1.224-.574 2.478-1.078 3.696-1.67 1.128-.546 1.027-2.515-.764-1.73zm-75.529 12.588c-.866.32-1.73.641-2.595.963-.668.248-1.32.538-1.978.812a96.25 96.25 0 00-2.603 1.123.69.69 0 00-.393.405.933.933 0 00.008.635c.15.411.606.709.963.549 1.015-.458 2.04-.887 3.067-1.315.62-.258 1.24-.515 1.869-.748a392.187 392.187 0 014.92-1.774 3157.23 3157.23 0 008.93-3.177c2.99-1.069 5.974-2.155 8.96-3.239a3131.69 3131.69 0 014.568-1.655c1.423-.514 2.874-.945 4.314-1.412.193-.062.385-.126.578-.19 2.896-1.054 5.795-2.1 8.691-3.155l.917-.334c.298-.152.58-.335.862-.515.25-.16.314-.574.202-.883a.873.873 0 00-.295-.4c-.785.226-1.572.447-2.358.669-.561.158-1.121.321-1.68.486-.332.118-.663.237-.995.354-1.479.527-2.959 1.05-4.445 1.551-.84.284-1.684.561-2.528.835-.674.218-1.356.412-2.026.64-1.556.527-3.097 1.092-4.64 1.655-2.932 1.071-5.866 2.138-8.797 3.215-2.989 1.098-5.976 2.2-8.973 3.276-1.284.463-2.576.91-3.858 1.377-.229.083-.456.167-.685.252"/><path d="M382.735 222.439c-.423.184-.84.378-1.261.567-.405.18-.819.342-1.23.51-.802.329-1.586.7-2.37 1.068-1.634.77-3.297 1.472-4.939 2.222-.848.386-1.696.771-2.554 1.135-.818.348-1.642.68-2.456 1.033-1.716.746-3.456 1.432-5.167 2.188-1.718.758-3.427 1.534-5.145 2.29-1.704.748-3.416 1.479-5.123 2.22-1.712.745-3.421 1.491-5.132 2.234-1.715.746-3.405 1.549-5.1 2.338-1.386.646-2.759 1.32-4.114 2.027-.756.395-1.527.773-2.27 1.194-.981.558-1.965 1.114-2.94 1.683-.187.11-.316.348-.354.552a.862.862 0 00.698 1.006c.246.043.451-.026.66-.149 1.044-.608 2.096-1.198 3.147-1.793.85-.44 1.7-.882 2.55-1.324.808-.419 1.64-.796 2.46-1.191a237.046 237.046 0 016.383-2.922c.421-.202.842-.405 1.262-.61 1.138-.556 2.27-1.118 3.41-1.67 1.2-.58 2.421-1.114 3.622-1.69 1.18-.564 2.367-1.112 3.546-1.678a200.93 200.93 0 003.484-1.706 193.867 193.867 0 017.096-3.4c.642-.292 1.295-.563 1.934-.862a74.58 74.58 0 011.782-.8c.614-.267 1.219-.554 1.832-.824.589-.26 1.189-.492 1.782-.744.608-.26 1.233-.475 1.855-.7.568-.205 1.134-.418 1.71-.603.512-.165 1.037-.28 1.55-.44.13-.041.26-.08.392-.117a.791.791 0 00.016-.576c-.136-.372-.59-.624-.979-.482a.506.506 0 00-.037.014"/><path d="M411.312 212.181c-.37.167-.752.315-1.127.472-.316.132-.633.26-.95.387-1.445.58-2.913 1.099-4.378 1.625a1953.08 1953.08 0 01-8.8 3.148 421.077 421.077 0 01-9.013 3.064c-.268.088-.531.185-.795.284-.124.045-.25.092-.374.136-.564.204-1.128.41-1.69.622-.381.144-.562.637-.393 1.103.168.46.629.736 1.01.592.941-.355 1.89-.69 2.837-1.031.33-.118.667-.22 1-.329l1.246-.41c1.413-.464 2.824-.939 4.226-1.436a804.55 804.55 0 009.049-3.288l4.371-1.61c1.459-.539 2.89-1.15 4.32-1.764.36-.156.157-1.88-.539-1.565zm3.288-28.487c.023 0 .046 0 .069.003l-.069-.003m-1.726-3.032a2.346 2.346 0 00-.348.225c-.441.344-.738.808-1.003 1.287-.133.243-.27.488-.38.743a13.428 13.428 0 00-.646 1.777c-.139.495-.28.99-.438 1.48-.235.655-.503 1.296-.707 1.962a22.76 22.76 0 00-.447 1.706c-.137.605-.264 1.208-.329 1.824-.071.68-.077 1.359-.101 2.039a9.18 9.18 0 01-.113.93 9.071 9.071 0 01-.237.94 24.245 24.245 0 01-1.612 3.623.807.807 0 00-.093.445.764.764 0 00.045.804c.245.339.724.402 1.075.167.158-.105.316-.212.474-.32.22-.151.415-.346.595-.541.11-.121.202-.26.297-.393.1-.138.205-.288.288-.436.24-.42.45-.857.655-1.295.429-.912.788-1.854 1.18-2.781.372-.876.763-1.75 1.068-2.648.18-.527.35-1.053.508-1.585.135-.457.244-.924.355-1.387.145-.595.277-1.19.4-1.792.056-.271.094-.55.134-.826.063-.437.1-.893.213-1.323a6.8 6.8 0 01.53-1.093c.043.168.081.337.119.504.16.81.258 1.63.376 2.446.117.81.167 1.619.137 2.437l-.01.078a6.649 6.649 0 01-.169.435c-.104.24-.22.476-.336.712-.21.423-.452.828-.684 1.239-.11.193-.228.384-.332.58a2.76 2.76 0 00-.235.551 1.35 1.35 0 00-.016.716c.941-.471 1.893-.923 2.843-1.378.173-.405.336-.815.472-1.233a8.15 8.15 0 00.094-.187c.247-.492.415-1.021.575-1.545.135-.446.215-.91.29-1.367.17-1.013.285-2.053.183-3.074-.052-.519-.12-1.04-.258-1.543a8.39 8.39 0 00-.25-.777c-.184-.481-.468-.905-.768-1.32-.208-.289-.44-.584-.725-.804-.29-.224-.678-.325-1.043-.355a4.532 4.532 0 00-.484-.012c-.2.007-.396.066-.588.114a1.08 1.08 0 00-.11.035c-.155.056-.304.142-.444.216"/><path d="M425.092 186.84c-.923.36-1.823.779-2.716 1.209-1.076.52-2.159 1.03-3.198 1.624-.966.552-1.927 1.11-2.883 1.68-1.024.608-2.066 1.184-3.098 1.778-.255.146-.411.556-.442.878a1.7 1.7 0 00.022.468c.875-.458 1.758-.901 2.635-1.354a59.269 59.269 0 012.194-1.072l.166-.093c.664-.41 1.337-.805 2.02-1.18.253-.091.516-.11.788-.06a199.47 199.47 0 002.536-1.125c1.335-.607 2.67-1.213 4.005-1.816 1.253-.565 2.52-1.088 3.785-1.62.343-.145.687-.293 1.033-.435a2.547 2.547 0 00-.632-.33 2.971 2.971 0 00-1.144-.167c-.366.02-.725.12-1.077.2-.272.062-.538.151-.8.236-.376.12-.748.25-1.117.385-.697.254-1.387.525-2.077.794m6.282 4.109c-1.223.652-2.464 1.262-3.692 1.903-1.319.689-2.66 1.327-4.001 1.969-1.327.634-2.631 1.321-3.949 1.974-.606.301-1.21.605-1.815.91-.516.26-1.04.505-1.56.756l.117-.038a66.41 66.41 0 001.532-.531 69.9 69.9 0 003.184-1.212c1.04-.426 2.067-.886 3.11-1.306 1.126-.453 2.233-.94 3.29-1.55.508-.292.998-.612 1.487-.939.492-.329.985-.662 1.45-1.036.4-.323.771-.679 1.13-1.052l-.283.152"/><path d="M417.83 199.655l.04.044-.04-.044m-.002-.077h.001l.015.03.018.033a.743.743 0 01-.034-.063m10.084-5.522c0 .02 0 .04-.002.06l.002-.06m-9.428 5.83a2.41 2.41 0 01-.178.004 2.39 2.39 0 01-.207-.04 2.127 2.127 0 01-.143-.069l-.012-.01-.033-.046a3.225 3.225 0 01-.075-.205v-.002a2.4 2.4 0 01.028-.162 2.36 2.36 0 01.071-.163c.234-.324.51-.612.792-.893.574-.509 1.177-1 1.827-1.405a47.182 47.182 0 012.117-1.248c.37-.184.739-.362 1.14-.469.149-.027.298-.05.447-.07.25-.034.467-.125.631-.321.454-.164.91-.327 1.369-.473.193-.061.386-.124.581-.179.076-.02.152-.044.228-.062l.118-.026a4.228 4.228 0 01.67-.062l.053.01a1.409 1.409 0 01-.019.1 2.674 2.674 0 01-.156.342 5.62 5.62 0 01-.65.772 16.376 16.376 0 01-1.935 1.487c-.663.438-1.316.885-2.008 1.274-.757.384-1.542.701-2.33 1.014-.4.158-.8.31-1.2.461l-.544.205c-.174.066-.345.15-.522.215l-.06.02m5.249-6.014c-1.334.623-2.646 1.294-3.971 1.934-.61.295-1.217.592-1.826.89-.468.23-.942.45-1.414.67l-.097.12a2.94 2.94 0 00-.664 1.555 2.44 2.44 0 00.16 1.148c.074.185.194.373.303.54.135.205.327.381.52.526.263.197.532.306.836.41.146.05.29.088.442.108.142.02.29.024.435.03.26.012.503-.033.752-.106.41-.121.807-.279 1.205-.43a50.917 50.917 0 002.48-1.002c.922-.405 1.78-.93 2.609-1.502.774-.536 1.546-1.066 2.256-1.69a7.99 7.99 0 001.068-1.122c.212-.275.399-.585.532-.911.26-.637.3-1.45-.182-2.01a1.648 1.648 0 00-1.25-.57 3.721 3.721 0 00-.852.104 6.284 6.284 0 00-.349.084.684.684 0 00-.16.044 19.325 19.325 0 00-1.043.34c-.596.282-1.193.56-1.79.84"/><path d="M418.696 203.654l.085.029a.732.732 0 01-.085-.03m10.127-6.05c.01.019.021.039.03.059l-.03-.06m-.051-.042l.008.036-.008-.036m.21-1.492c-.21.152-.353.388-.396.65-.045.266.02.502.148.73.005.059.008.117.01.176-.018.21-.053.418-.103.622a2.84 2.84 0 01-.096.216 6.616 6.616 0 01-.785.966c-.582.525-1.231.966-1.876 1.406-.728.497-1.47.98-2.23 1.426-.555.277-1.122.514-1.707.722a21.86 21.86 0 01-1.86.545c-.394.075-.787.144-1.19.149a2.7 2.7 0 01-.248-.043l-.002-.001a1.555 1.555 0 01-.06-.049 1.274 1.274 0 01-.033-.09 1.347 1.347 0 01-.007-.096 1.85 1.85 0 01.033-.189c.022-.058.047-.115.075-.17a1.68 1.68 0 01.097-.118 4.73 4.73 0 01.742-.486l.498-.24c.152-.072.272-.162.344-.324a.654.654 0 00.014-.485c-.11-.303-.491-.533-.794-.388-.417.198-.855.387-1.236.65-.323.222-.619.46-.812.813a2.11 2.11 0 00-.25 1.28c.059.454.294.866.655 1.138.56.423 1.317.391 1.965.344.49-.035.975-.138 1.453-.243.887-.2 1.772-.403 2.617-.738.882-.35 1.696-.853 2.513-1.335.447-.263.884-.54 1.323-.816.44-.278.873-.571 1.266-.916a7.27 7.27 0 001.289-1.433c.282-.424.46-.936.483-1.458.013-.306.03-.607-.017-.912a2.292 2.292 0 00-.425-1.043c-.282-.375-.753-.535-1.165-.385a.942.942 0 00-.233.125"/><path d="M429.344 198.67c0 .101-.004.2-.011.301a31.58 31.58 0 00-.09.935 4.152 4.152 0 01-.149.705c-.181.393-.424.762-.674 1.128-.29.381-.597.749-.962 1.079-.703.563-1.48 1.023-2.292 1.443-.697.341-1.41.66-2.142.925-.813.295-1.627.586-2.465.8a4.59 4.59 0 01-.742.107 3.047 3.047 0 01-.423-.049v-.008c.018-.081.039-.16.065-.24.073-.158.16-.306.261-.453.127-.167.26-.33.392-.492.192-.237.205-.545-.041-.724-.22-.16-.62-.136-.812.102-.18.222-.36.443-.528.674-.132.184-.246.37-.342.568-.125.26-.182.52-.2.792a.753.753 0 00.292.62c.193.152.41.229.659.29.56.14 1.137.103 1.725-.004a21.95 21.95 0 002.696-.692c.448-.143.893-.29 1.335-.449.415-.15.82-.325 1.223-.503.436-.192.871-.407 1.289-.634a10.27 10.27 0 001.099-.667 7.59 7.59 0 001.37-1.28c.314-.373.618-.763.873-1.168.068-.11.137-.22.2-.332.153-.27.255-.566.328-.853.078-.315.086-.647.087-.962 0-.186-.007-.37-.019-.553-.017-.284-.095-.568-.174-.837-.103-.35-.529-.556-.928-.51-.086.01-.168.029-.245.057-.392.143-.658.503-.655.885m-20.741 12.574c-.126.275-.16.56-.059.84.098.269.311.492.586.607.28.116.602.147.906.173.33.028.664.028.996.035l-.171-.005c.563.013 1.124.01 1.69-.026a51.536 51.536 0 001.616-.142c1.02-.1 2.037-.233 3.051-.377 1.185-.169 2.362-.447 3.521-.743.27-.069.537-.146.803-.228.309-.08.61-.179.906-.292.432-.143.864-.288 1.3-.419.152-.046.305-.09.459-.134.284-.082.535-.329.66-.576.057-.11.093-.226.109-.344.254-.246.485-.516.71-.78.336-.4.666-.802.992-1.209.294-.366.286-.872-.087-1.162-.347-.269-.939-.231-1.232.136-.507.632-1.011 1.281-1.598 1.853a2.097 2.097 0 00-.29.058c-.845.227-1.68.487-2.521.728-.721.208-1.448.391-2.177.561a33.59 33.59 0 01-2.056.381l-.071.011c-.42.032-.84.06-1.26.098-.598.053-1.2.09-1.797.089-.75-.051-1.5-.144-2.256-.132a5.2 5.2 0 00-.994.129c-.295.063-.642.121-.953.235-.337.122-.633.309-.783.635m1.536-9.471l-.023.077.023-.077m.52-1.172c-.197.143-.279.329-.343.559-.047.166-.094.332-.143.497-.227.74-.524 1.453-.906 2.119-.649 1.024-1.444 1.952-2.286 2.81-.145.146-.201.41-.183.614a.89.89 0 00.306.594.84.84 0 00.602.202c.243-.017.407-.135.573-.301.321-.321.63-.654.934-.993.216-.241.434-.486.628-.745.39-.518.77-1.031 1.091-1.598.506-.89.807-1.876 1.083-2.863.06-.215-.03-.496-.153-.673a.89.89 0 00-.552-.364.843.843 0 00-.652.142m18.222-15.126c-1.886.712-3.767 1.432-5.623 2.22-1.024.436-2.04.884-3.06 1.332-.957.42-1.895.891-2.841 1.34-.529.25-1.04.548-1.556.825-.738.395-1.47.79-2.192 1.215-.292.173-.343.605-.187.893.662-.324 1.325-.643 1.986-.967.734-.36 1.477-.705 2.223-1.038l.168-.09a55.264 55.264 0 012.056-1.124c.255-.092.515-.122.782-.091.856-.366 1.71-.73 2.563-1.104 1.349-.594 2.698-1.187 4.05-1.776 1.266-.553 2.544-1.07 3.82-1.596.623-.256 1.243-.52 1.875-.75l.05-.02a21.677 21.677 0 011.881-.58c.4-.105.809-.221 1.225-.243.478-.025 1.072.104 1.438.451a6.846 6.846 0 011.19-.104l.045.006a5.115 5.115 0 01-.077.367.352.352 0 01-.017.039 6.39 6.39 0 01-.518.645c.08.289.074.559.031.864-.12.857-.929 1.425-1.611 1.824-.433.253-.875.485-1.317.718-1.265.666-2.552 1.292-3.822 1.947-1.211.624-2.44 1.21-3.656 1.825-1.307.66-2.634 1.275-3.96 1.894-1.313.611-2.605 1.27-3.91 1.897-.6.29-1.198.581-1.796.874-.651.319-1.313.615-1.967.929l-.477.228a.856.856 0 00.087.048c.234.113.463.106.704.038.25-.072.498-.148.745-.23.25-.082.488-.2.726-.307.208-.094.41-.204.612-.306.234-.12.473-.222.716-.322.915-.38 1.842-.728 2.764-1.088.928-.362 1.88-.666 2.817-1a70.133 70.133 0 002.863-1.09 34.54 34.54 0 002.58-1.202c.9-.457 1.798-.92 2.69-1.39a78.562 78.562 0 003.036-1.689c.503-.292 1-.6 1.468-.947.326-.241.636-.503.948-.76.38-.316.746-.646 1.095-.995.224-.226.419-.484.615-.734.118-.152.223-.318.32-.485a1.7 1.7 0 00.155-.296c.039-.12.075-.24.107-.362.032-.117.043-.244.062-.363.034-.205.047-.409.05-.617.005-.174.005-.409-.073-.568-.09-.183-.174-.36-.295-.523a2.832 2.832 0 00-.433-.435 1.67 1.67 0 00-.46-.267 2.085 2.085 0 00-.692-.13c-.466-.022-.923.07-1.377.164-.501.104-.992.246-1.479.406-.455.15-.915.29-1.368.45-.38.134-.76.27-1.14.408-1.552.566-3.094 1.158-4.639 1.742"/><path d="M435.082 182.112c-.383.15-.766.297-1.149.448-.803.317-1.608.634-2.396.986-1.6.715-3.192 1.45-4.78 2.195-.798.374-1.59.755-2.385 1.135-.75.36-1.505.713-2.25 1.084-1.599.796-3.183 1.618-4.782 2.412-1.516.753-3.008 1.556-4.51 2.334-.162.084-.29.17-.366.352a.739.739 0 00-.009.533.74.74 0 00.35.403c.145.074.36.11.506.035 1.708-.88 3.406-1.78 5.132-2.625 1.593-.778 3.173-1.582 4.777-2.336 1.613-.757 3.237-1.487 4.86-2.22.74-.333 1.486-.652 2.23-.976.787-.341 1.565-.7 2.362-1.015.685-.27 1.374-.53 2.068-.777.647-.232 1.293-.473 1.966-.624.435-.088.882-.182 1.329-.182.1.017.199.043.296.074.11.042.218.088.323.142l.037.056c-.076.207-.17.4-.275.593-.148.224-.32.422-.506.612a24.124 24.124 0 01-4.123 3.179c-1.517.923-3.035 1.843-4.543 2.782-1.223.76-2.496 1.438-3.75 2.14-.678.378-1.352.762-2.03 1.137-.564.31-1.132.61-1.699.915-.92.483-1.853.944-2.787 1.4-.464.227-.923.466-1.39.688-.218.103-.432.215-.646.327-.16.083-.324.157-.463.272a1.379 1.379 0 00-.368.504c-.048.104-.066.226-.096.337-.046.163.027.385.121.521.138.205.36.307.586.3.056 0 .11.001.166.005.145.008.277-.026.417-.056.081-.017.154-.041.23-.075.181-.082.36-.167.542-.248.365-.165.728-.331 1.086-.509.75-.37 1.504-.731 2.25-1.11 1.586-.8 3.122-1.698 4.667-2.579 1.559-.888 3.137-1.748 4.664-2.697a110.514 110.514 0 013.319-1.993c.33-.192.667-.376.992-.58.389-.243.778-.486 1.16-.74a31.47 31.47 0 001.129-.797c.356-.262.696-.549 1.038-.83.153-.128.3-.265.448-.399.384-.344.775-.694 1.08-1.121.079-.11.143-.231.212-.348.138-.236.261-.465.355-.725.115-.32.184-.623.158-.973-.026-.35-.169-.643-.33-.946a2.123 2.123 0 00-.373-.467c-.138-.134-.3-.24-.47-.325-.208-.101-.433-.161-.652-.228a2.827 2.827 0 00-1.254-.075c-.45.067-.9.178-1.342.286-.22.055-.435.125-.647.202-.163.06-.324.123-.485.187m-10.685 26.983a2.72 2.72 0 01-.045.023l.045-.023m.736-.392l-.037.02a1.102 1.102 0 01.036-.02m-6.29 1.194l.048-.01-.048.01m11.966-10.111a41.01 41.01 0 01-.703 2.104 11.162 11.162 0 01-.725 1.636c-.187.304-.374.606-.59.89-.238.314-.508.605-.78.89-.45.47-.912.931-1.38 1.385-.162.094-.326.186-.491.276-.563.282-1.128.557-1.695.828-.556.266-1.11.541-1.679.78-.664.28-1.332.546-2.007.8-.57.216-1.165.358-1.76.489-.44.081-.88.161-1.32.237-.199.034-.399.06-.598.09-.17.026-.341.058-.513.079-.07.002-.139.007-.207.019a.731.731 0 00-.375.136c-.143.104-.291.302-.3.491v.013a.815.815 0 00.04.417c.077.212.22.345.405.454.264.158.58.135.869.134.164 0 .325-.007.487-.018.341-.02.682-.06 1.022-.089.337-.029.675-.037 1.011-.066.333-.028.665-.073.994-.118.385-.053.765-.12 1.143-.214.315-.078.626-.189.93-.305a12.7 12.7 0 00.846-.373c.353-.167.709-.337 1.044-.539.55-.333 1.086-.694 1.584-1.106.557-.461 1.06-.982 1.556-1.513.242-.259.48-.523.717-.79.1-.08.197-.164.29-.251.244-.228.49-.455.704-.714.197-.239.356-.508.515-.774.171-.288.342-.577.516-.864.175-.29.376-.583.5-.902.14-.36.204-.763.3-1.14a.415.415 0 00.011-.13 42.68 42.68 0 00.576-1.783c.041-.139.065-.259.012-.404a.55.55 0 00-.27-.303.506.506 0 00-.393-.022c-.114.041-.248.145-.286.27m-57.278 9.511a.675.675 0 00.24.099c.087.02.188.026.28.035.14.015.289.01.435.01.202-.002.408-.014.614-.033a19.85 19.85 0 001.154-.158c.718-.115 1.437-.26 2.154-.396l.47-.09c.152-.03.303-.04.455-.07a9.62 9.62 0 001.204-.33 45.742 45.742 0 002.182-.758c.77-.293 1.533-.596 2.3-.893.743-.287 1.487-.568 2.229-.857a410.72 410.72 0 004.427-1.752 806.705 806.705 0 014.432-1.759c1.405-.553 2.79-1.152 4.198-1.7 1.479-.573 2.952-1.167 4.437-1.725 1.565-.588 3.132-1.168 4.698-1.753.69-.257.092-1.26-1.544-.77l-.137.04-.458.174c-3.132 1.19-6.253 2.404-9.376 3.614-1.51.586-3.016 1.182-4.525 1.772-.635.25-1.272.496-1.908.741-.964.403-1.926.808-2.887 1.215-1.466.622-2.942 1.221-4.414 1.833-.675.28-1.344.576-2.022.85-.65.264-1.3.514-1.959.753a.1.1 0 00-.004-.025l-.004-.014c-.019-.077-.118-.125-.22-.13-.1-.005-.206.007-.312.027l-.495.182c-.3.11-.605.162-.892.164-.226.06-.451.122-.677.183-.629.17-1.257.335-1.886.501-.3.075-.599.15-.898.217l-.434.091-.266.057a4.2 4.2 0 00-.249.06 1.455 1.455 0 00-.252.104c-.248.133-.256.383-.09.49z"/><path d="M363.777 211.247c-.595.22-1.191.436-1.783.663-.645.247-1.296.486-1.938.743l-2.17.865c-1.066.425-2.11.9-3.17 1.341-.608.253-1.213.517-1.828.757l-2.057.806c-.641.252-1.276.519-1.913.778a41.7 41.7 0 00-1.327.555c-1.178.525-2.358 1.04-3.528 1.58-1.218.56-2.432 1.13-3.655 1.681l-4.356 1.959c-1.161.523-2.316 1.059-3.474 1.59-.869.398-1.735.802-2.6 1.207a.545.545 0 00-.28.244.44.44 0 00-.025.351c.079.217.374.373.616.26a563.72 563.72 0 018.298-3.787c1.067-.478 2.135-.956 3.199-1.442 1.2-.549 2.397-1.11 3.606-1.641.815-.36 1.63-.717 2.444-1.076.433-.19.869-.368 1.308-.544l2.01-.804c.669-.268 1.346-.517 2.019-.774.603-.232 1.197-.484 1.795-.728.538-.218 1.073-.443 1.609-.668.525-.22 1.047-.446 1.577-.653l2.233-.872c.627-.245 1.26-.471 1.89-.707.597-.222 1.197-.433 1.797-.646.626-.224 1.26-.427 1.89-.638l1.884-.63c1.226-.41 2.457-.807 3.683-1.217.59-.197 1.181-.385 1.771-.577.307-.1.62-.18.93-.27.262-.077.522-.157.788-.225.642-.163 1.284-.33 1.93-.484.634-.15 1.27-.301 1.903-.462.618-.159 1.23-.336 1.846-.498.622-.164 1.246-.318 1.865-.491.303-.085.605-.173.904-.27.17-.054.335-.117.5-.182.152-.058.305-.117.46-.17a.638.638 0 00.43-.62.559.559 0 00-.216-.408c-.114-.088-.299-.157-.453-.127-.227.047-.454.093-.68.146-.151.036-.302.09-.451.137-.285.089-.57.17-.858.252-.615.173-1.233.333-1.85.5-.607.167-1.21.351-1.817.515-.645.174-1.291.344-1.939.513-.632.165-1.263.339-1.895.508-.6.162-1.193.353-1.787.535-.328.1-.653.22-.98.33-.245.082-.49.163-.734.248-.6.207-1.201.417-1.803.62-1.248.42-2.494.846-3.74 1.275-.586.203-1.177.397-1.76.61-.04.013-.079.028-.118.042"/><path d="M382.362 205.614c-1.284.507-2.555 1.042-3.834 1.558-.707.286-1.412.572-2.125.844-.738.283-1.478.561-2.218.839-1.36.51-2.715 1.035-4.066 1.57-1.084.431-2.164.868-3.246 1.302-.39.156-.787.293-1.183.436-.165.06-.33.121-.494.183-.471.175-.944.351-1.427.485a.674.674 0 00-.382.335.61.61 0 00-.032.485.614.614 0 00.336.35c.169.072.33.06.508.01.368-.101.721-.233 1.08-.362.478-.172.955-.345 1.433-.516.599-.216 1.188-.46 1.78-.696 1.287-.514 2.572-1.034 3.868-1.522 1.414-.531 2.832-1.053 4.246-1.58 1.415-.53 2.816-1.095 4.217-1.66 2.653-1.072 5.355-2.021 8.047-2.994a156.099 156.099 0 018.067-2.719 313.37 313.37 0 004.13-1.294c.722-.23 1.447-.454 2.172-.677.634-.196 1.262-.413 1.896-.608 1.424-.436 3.183-2.43 1.85-2.04-.717.21-1.434.42-2.148.637-.627.189-1.247.398-1.873.59-.723.22-1.448.439-2.169.67-.644.206-1.29.41-1.937.613-1.455.46-2.912.911-4.367 1.373-.601.19-1.197.399-1.795.6a130.695 130.695 0 00-3.35 1.179c-.938.341-1.876.689-2.814 1.035-1.393.515-2.788 1.029-4.17 1.574zm-15.795 17.249l-.002.036.002-.036m1.719-2.114l-.016.044.016-.044m-2.496-1.235c.135.432.277.863.402 1.298.11.388.226.777.312 1.173a3.5 3.5 0 01.066.84 5.19 5.19 0 01-.165.757c-.046.162-.09.323-.124.487-.065.326-.056.742.305.89.151.062.313.05.47-.007.157-.057.294-.194.409-.304.118-.115.212-.257.303-.391.087-.13.168-.262.246-.398.11-.189.202-.386.294-.58.19-.401.334-.818.466-1.235.062-.194.109-.39.16-.586.027-.099.05-.197.073-.295.03-.12.04-.25.08-.367.055-.155-.061-.327-.205-.386-.149-.06-.36-.023-.467.11-.031.039-.06.078-.087.12a4.42 4.42 0 00-.077.202c-.162.433-.314.868-.47 1.303-.071.18-.142.364-.222.543.006-.126.005-.25-.003-.376-.016-.235-.067-.464-.113-.692-.035-.166-.083-.33-.123-.494a12.6 12.6 0 00-.213-.751c-.123-.401-.247-.803-.373-1.205-.074-.238-.38-.348-.628-.257a.489.489 0 00-.316.6"/><path d="M257.712 235.877c.095.035.19.066.288.093a3.441 3.441 0 01-.311-.024l.023-.07m2.138-4.2a1.29 1.29 0 01-.05.052l.05-.052m-.355-.397c.176-.236.312-.489.417-.753.004.342.002.683-.012 1.025l-.002.015a2.413 2.413 0 01-.253.143 2.635 2.635 0 01-.69.042 1.06 1.06 0 00.54-.472m-2.545-.877c.09-.08.176-.161.256-.245.114.42.28.853.554 1.168a10.075 10.075 0 01-.97-.743l-.028-.022a4.99 4.99 0 00.188-.158m-7.495-2.736l-.125-.24.5.085c.031.385.107.787.253 1.144a7.83 7.83 0 01-.628-.99m-5.981-2.65l.082.16-.004-.005-.078-.156m16.365-7.378c-.267.063-.533.128-.8.19-.556.13-1.12.22-1.682.321-.655.119-1.303.28-1.957.404-.682.129-1.369.25-2.06.314-.713.065-1.434.052-2.149.046a27.636 27.636 0 01-4.078-.316c-1.665-.259-3.33-.526-4.985-.846a.796.796 0 00-.628.409c-.343.468-.436 1.154-.436 1.714-.003.43.064.847.206 1.252.164.428.378.77.842.867.007.404.046.808.1 1.133.12.702.365 1.441.832 1.993.282.334.583.601.917.822l.286.533c.245.559.434 1.137.662 1.703.345.857.817 1.655 1.273 2.455.32.56.608 1.137.923 1.7.217.387.431.773.68 1.142.325.483.78.893 1.19 1.301.485.48.985.949 1.48 1.42.46.437.994.813 1.487 1.21.517.417 1.037.832 1.53 1.275.207.186.418.37.632.549.294.246.624.425.97.587.231.108.468.21.71.295.52.185 1.041.388 1.582.498.622.128 1.31.064 1.94.048.32-.009.64-.02.959-.045.357-.026.72-.102 1.052-.24.518-.214.874-.598 1.23-1.025.188-.227.342-.478.498-.726a5.635 5.635 0 00.74-1.876c.086-.429.105-.849.14-1.29.065-.848-.069-1.718-.23-2.55-.145-.754-.381-1.495-.59-2.233-.283-.998-.713-1.944-1.007-2.936-.03-.132-.06-.263-.088-.395-.06-.994-.168-1.988-.415-2.948.005-.129.012-.257.02-.386.071-.668.164-1.333.208-2.004.026-.405.04-.81.062-1.216.052-.412.131-.833.1-1.246-.037-.493-.071-1.1-.425-1.488-.144-.158-.206-.235-.37-.322a2.147 2.147 0 00-.548-.17.995.995 0 00-.205-.02c-.202 0-.404.05-.598.097m-50.604 67.32c-.05.363-.094.723-.13 1.085-.161.014-.322.028-.484.04l-.045.004c.227-.373.448-.749.66-1.13m4.808-.717c-.012.515-.02 1.03-.04 1.546a9.642 9.642 0 01-.034.2c-.077.012-.154.02-.23.028.1-.592.202-1.183.304-1.774m.695-11.771c-.04.553-.086 1.106-.131 1.659l.007-.084-.019.216a5.66 5.66 0 00-.224-.655c.13-.377.254-.756.367-1.136m1.454-25.238l-.065.399a9.44 9.44 0 01-.033.054c-.512.839-.888 1.838-1.155 2.785-.466 1.649-.913 3.295-1.216 4.984-.192 1.07-.382 2.14-.57 3.21-.269.774-.558 1.543-.806 2.32-.424 1.332-.776 2.682-1.142 4.03a80.139 80.139 0 01-1.31 4.269c-.439 1.318-1 2.597-1.536 3.878a76.646 76.646 0 01-1.43 3.192 68.485 68.485 0 01-2.047 3.524c-.717 1.16-1.49 2.285-2.215 3.44-1.069 1.705-2.147 3.484-2.386 5.527-.151 1.301-.211 2.618.056 3.913.293 1.417.757 2.816 1.92 3.756.433.349 1.018.49 1.552.603.164.034.328.063.495.074 1.421.096 2.868-.175 4.264-.415.73-.126 1.457-.26 2.19-.374.291-.045.587-.064.88-.097.803-.088 1.567-.242 2.3-.606.452-.224.856-.46 1.225-.806.296-.279.58-.574.844-.882.273-.32.58-1.047.69-1.295.11-.25.203-.505.306-.756.376-.92.647-1.852.865-2.826.23-1.034.259-2.117.278-3.173.012-.715-.018-1.433-.033-2.148a254.73 254.73 0 01-.06-4.306c-.014-2.908.168-5.816.234-8.723.03-1.38.011-2.76.042-4.14.033-1.544.074-3.088.085-4.633a55.719 55.719 0 00-.065-2.69c.09-.405.176-.81.261-1.216.31-1.48.554-2.963.717-4.467.148-1.374.36-3.063.026-4.43-.101-.412-.196-.85-.356-1.259a5.738 5.738 0 00-.07-.716c-.103-.595-.335-1.48-.912-1.822a.934.934 0 00-.477-.146c-.801 0-1.241 1.323-1.346 1.968m67.894 107.505l.382.405-.487.186c.034-.197.069-.394.105-.59m0-.001l.049.05-.049-.05m1.398-5.814l.051.235c.042.189.086.378.132.567a41.378 41.378 0 00-.322-.363c.045-.147.091-.293.139-.439m-.87-12.27a4.99 4.99 0 00-.899.971c-.261.377-.453.806-.65 1.224-.109.206-.218.411-.33.615a.717.717 0 00-.378-.15c-.408 0-.654.463-.77.78a24.976 24.976 0 01-1.007 2.336c-1.115 2.131-2.62 4.048-4.111 5.928l-2.684 3.382c-.3.378-.637.73-.954 1.094l-1.545 1.773c-.698.801-1.457 1.558-2.191 2.328a762.798 762.798 0 01-6.116 6.05c-.504.492-1.01.983-1.503 1.487-.285.292-.578.576-.859.872-.173.183-.34.365-.495.563-.516.66-.56 1.637-.418 2.422.117.652.42 1.236 1.002 1.572.202.115.522.164.751.203.236.04.487.036.726.042.701.021 1.412-.047 2.11-.12l2.547-.265a63.624 63.624 0 004.064-.572c.73-.124 1.471-.217 2.194-.374l2.552-.553c1.267-.274 2.524-.598 3.782-.918 1.523-.387 3.044-.775 4.548-1.234a25.93 25.93 0 003.8-1.49 23.487 23.487 0 001.527-.823c.126-.073.249-.152.374-.228.257-.158.44-.356.647-.583.228-.251.34-.568.49-.87.094-.303.17-.611.229-.923.078-.394.086-.9.072-1.321a12.4 12.4 0 00-.152-1.465c-.226-1.458-.64-2.894-1.011-4.321a843.998 843.998 0 00-.998-3.768c-.22-.858-.438-1.717-.652-2.576-.256-1.028-.444-2.073-.633-3.114-.182-.997-.326-2.002-.487-3.002a21.246 21.246 0 00-.294-1.561c-.118-.493-.25-.981-.377-1.47a6.157 6.157 0 00-.645-1.548c-.16-.28-.512-.54-.855-.54a.614.614 0 00-.402.147" opacity=".2"/><path d="M247.98 591.411l-.02-.066.035-.002.007.036.048.256-.07-.224zm-.76-3.185l-.01-.05c-.056-.236-.106-.45-.165-.665.155.037.319.06.478.082.001.095.008.193.016.29a9.157 9.157 0 00-.308.386l-.01-.043zm-.267-5.903a9.31 9.31 0 01-1.051-.227 8.46 8.46 0 01-.976-.352 6.757 6.757 0 01-1.162-.65c-.116-.1-.25-.224-.376-.368a4.955 4.955 0 01-.5-.84 3.82 3.82 0 01-.17-.66 6.823 6.823 0 01-.011-.823c.06-.233.12-.466.183-.698.617.25 1.26.483 1.908.693.772.252 1.616.46 2.656.654.931.175 1.877.353 2.814.353l.161-.002a10.666 10.666 0 001.666-.166c.57-.105 1.095-.314 1.577-.524.122-.053.242-.113.36-.179l-.052.13a14.021 14.021 0 01-.182.482 2.968 2.968 0 01-.17.306c-.19.23-.383.456-.582.68a8.75 8.75 0 01-.818.83c-.598.433-1.27.83-2 1.176-.238.085-.492.15-.797.202-.33.032-.668.046-1.036.046-.42 0-.88-.02-1.442-.063zm31.214-5.49a5.269 5.269 0 01-.76-.182 5.74 5.74 0 01-.564-.348c-.485-.408-.858-.77-1.176-1.14a6.472 6.472 0 01-.56-.98 12.105 12.105 0 01-.528-2.121 11.47 11.47 0 01.029-2.54c.15-.994.4-1.95.65-2.837.057.036.12.069.182.101.864.448 1.793.785 2.613 1.08.876.316 1.751.54 2.805.8 1.07.265 2.18.41 3.135.526.756.091 1.374.153 1.944.195-.017.05-.03.1-.043.15a44.84 44.84 0 00-.3 1.483c-.153.819-.31 1.665-.597 2.468a5.04 5.04 0 01-.372.595c-.373.441-.816.867-1.395 1.34-.45.32-.962.612-1.613.915a10.52 10.52 0 01-1.944.54c-.15.012-.3.017-.449.017-.356 0-.718-.03-1.057-.062zm-48.301-225.912c-.287-.338-.576-.674-.866-1.012l-.622-.725c-.259-.303-.52-.605-.781-.907a68.105 68.105 0 01-2.07-2.468l-.143-.188c-.176-.231-.358-.47-.524-.713-.23-.333-.475-.688-.73-1.031l-.12-.16c-.397-.531-.808-1.08-1.11-1.689a8.86 8.86 0 01-.429-1.707c-.123-1.138-.1-2.289-.06-3.266a39.23 39.23 0 01.294-3.327c.295-1.932.545-3.903.787-5.808l.26-2.04.022-.152c.197-1.413.4-2.875.63-4.308.098-.597.214-1.201.327-1.787l.111-.582c.12-.634.202-1.287.283-1.92l.06-.467c.128-.898.3-1.802.469-2.678l.088-.465c.2-1.065.34-2.16.464-3.127.17-1.096.386-2.211.66-3.41.052-.224.107-.447.162-.67.078-.313.159-.636.225-.955.065-.317.124-.634.182-.953.045-.248.09-.495.139-.742.092-.47.187-.94.281-1.41.109-.537.217-1.073.322-1.612.11.976.247 2.003.426 3.232.07.482.142.962.214 1.444.117.77.234 1.54.339 2.31.107.791.218 1.58.329 2.37l.19 1.356c.143 1.206.242 2.435.339 3.624l.046.565.054.649c.092 1.12.188 2.277.24 3.419.088 1.98.193 3.995.296 5.942l.134 2.597c.021.423.045.845.069 1.267.053.98.11 1.991.138 2.988.045 1.7.063 3.01.057 4.248-.008 1.989-.098 4.01-.184 5.964-.042.945-.083 1.89-.116 2.837a199.875 199.875 0 01-.196 4.029l-.02.385-.048.85-.05.886a30.84 30.84 0 00-.568-.683zm-6.74-53.161c1.337-.164 2.74-.422 3.94-1.183.083-.053.165-.107.246-.163l-.112.708-.005.032c-.093.615-.2 1.218-.333 1.934-.162.883-.384 1.77-.597 2.63l-.195.789a93.228 93.228 0 01-.93 3.493 56.585 56.585 0 00-.812 3.31l-.187.86c-.188.865-.377 1.73-.576 2.594-.126.542-.257 1.083-.39 1.625a26.839 26.839 0 00-.376 1.785l-.126.726a58.9 58.9 0 01-.196 1.114c-.097.515-.22 1.035-.338 1.536l-.024.101c-.262 1.108-.464 2.249-.66 3.35l-.021.13c-.204 1.145-.39 2.28-.553 3.37-.103.69-.198 1.38-.293 2.068-.068.498-.136.997-.208 1.494-.085.594-.179 1.188-.273 1.782-.273 1.719-.555 3.496-.597 5.263-.017.69-.024 1.27-.01 1.857.018.72.102 1.412.174 1.934a7.837 7.837 0 001.227 3.261c.202.304.427.599.646.884a25.219 25.219 0 01.708.962c.151.216.304.432.462.642a56.48 56.48 0 002.302 2.835l.63.72c.777.888 1.58 1.805 2.327 2.738.148.198.263.365.366.528l.065.103c.23.366.466.745.854.963a1.374 1.374 0 00.975.154c-.098 1.3-.178 2.571-.24 3.776-.076 1.467-.093 2.96-.11 4.403a363.443 363.443 0 00-.015 3.13l-.05-.047-.056-.06c-.206-.227-.416-.45-.624-.675l-.433-.466c-.56-.607-1.166-1.192-1.751-1.757l-.69-.668c-.77-.755-1.589-1.575-2.504-2.508a89.221 89.221 0 00-2.103-2.057l-.518-.495a185.34 185.34 0 00-1.281-1.218 91.007 91.007 0 01-2.703-2.622c-.26-.267-.543-.522-.815-.77l-.248-.225-.497-.454-.49-.448a34.225 34.225 0 00-2.094-1.768l-.039-.03.015.014-.187-.151c-.565-.44-1.148-.894-1.663-1.4a22.039 22.039 0 01-1.547-1.693 4.23 4.23 0 01-.326-.548 6.972 6.972 0 01-.315-1.19c-.098-1.035-.035-2.095.027-3.12l.003-.06c.026-.42.036-.847.045-1.26l.013-.468c.012-.4.033-.8.054-1.2l.024-.465c.018-.355.03-.709.044-1.062.01-.266.02-.532.032-.798.024-.54.07-1.087.114-1.616l.01-.132c.095-1.15.175-2.321.252-3.454l.002-.029a67.65 67.65 0 01.346-3.631c.065-.518.132-1.072.179-1.616a480.867 480.867 0 00.682-9.104c.063-1 .128-2 .194-2.998.066-.998.169-2.013.26-2.907.187-1.855.43-3.736.663-5.555l.026-.206.136-.99c.124-.91.249-1.82.37-2.73.055-.42.098-.85.14-1.266l.047-.45a94.61 94.61 0 01.231-1.947l.006-.052c.02-.135.037-.27.057-.403l.072.02c.102.024.204.048.307.07.482.106.989.166 1.465.217 1.468.161 2.9.268 4.255.317.62.023 1.12.033 1.578.033.944 0 1.775-.046 2.54-.14zm13.077-56.496a2.206 2.206 0 01-.12-.12 3.715 3.715 0 01-.13-.216 3.24 3.24 0 01-.095-.35 4.776 4.776 0 01.017-.621 2.28 2.28 0 01.043-.189c.14-.153.264-.274.392-.38.153-.11.31-.217.468-.32.232-.106.462-.213.692-.321a.822.822 0 00.337-.295l.166-.096.168-.097c.232-.137.467-.272.701-.405a21.723 21.723 0 01-.424 1.55l-.117.362c-.093.287-.186.574-.283.861l-.07.202c-.11.323-.224.655-.283 1a1.446 1.446 0 00-.035.16c-.498-.217-.982-.435-1.427-.725zm20.82 7.227c.74-.03 1.486-.092 2.22-.184a42.45 42.45 0 002.433-.367c.349-.065.698-.13 1.046-.197.36-.07.721-.138 1.083-.205l.346-.062c.561-.102 1.141-.206 1.698-.37a41.624 41.624 0 002.15-.674 14.679 14.679 0 003.758-1.948c.451-.328.925-.688 1.337-1.102a13.97 13.97 0 001.253-1.47c.346-.457.577-.839.73-1.2l.046-.11c.13-.305.265-.62.348-.95.114-.45.124-.909.028-1.327a4.47 4.47 0 00.074-.626l.051.025.056.02c.265.104.533.198.802.293l.336.117c.743.265 1.355.466 1.926.636 1.527.455 2.712.74 3.84.925 1.596.264 2.823.496 3.979.756.955.214 1.909.335 2.967.46-.362.769-.713 1.56-1.052 2.325-.175.396-.351.793-.529 1.189l-.024.054c-.504 1.125-1.027 2.29-1.363 3.504-.165.593-.334 1.223-.428 1.849a32.54 32.54 0 00-.253 2.237c-.026.325-.057.651-.086.978-.099 1.077-.2 2.191-.183 3.286.01.652.088 1.308.16 1.87.095.753.192 1.53.313 2.302.083.537.22 1.072.352 1.59l.106.419c.144.586.308 1.28.436 1.977.041.226.08.452.119.68.075.444.154.905.253 1.351.137.617.31 1.233.464 1.776l.18.631c.133.46.27.935.39 1.406a71.4 71.4 0 01.461 1.884l.064.286c.177.783.36 1.594.504 2.4.053.47.094.976.127 1.542.013.242.03.483.048.725.023.314.045.63.058.945.055 1.252.067 2.49.073 3.643.01 2.541-.27 5.08-.512 7.007-.351 2.418-.83 4.855-1.294 7.213l-.185.94c-.254 1.294-.49 2.612-.717 3.887l-.043.234a76.85 76.85 0 00-.29 1.715l-.015.051a1.567 1.567 0 00-.05.292 1.49 1.49 0 00-.031.298 1.583 1.583 0 00-.049.337c-.087.628-.16 1.24-.218 1.82-.047.476-.096.95-.145 1.426-.097.943-.198 1.918-.28 2.879-.121 1.412-.22 2.848-.317 4.237l-.011.167c-.113 1.63-.206 3.29-.297 4.896-.067 1.196-.134 2.393-.21 3.59-.088 1.386-.179 2.821-.175 4.243.003.414.004.828.005 1.241 0 .247.017.499.034.743.009.13.018.26.025.39.032.617.083 1.243.131 1.849l.027.345c.098 1.217.258 2.449.414 3.64l.073.564c.226 1.749.45 3.183.704 4.512.12.623.242 1.245.366 1.867.162.818.324 1.635.477 2.454.292 1.564.662 3.056.986 4.31.32 1.24.712 2.701 1.196 4.142l.446 1.313c.307.902.626 1.834.922 2.758.163.509.323 1.018.482 1.528.177.57.355 1.14.54 1.709.076.236.155.474.232.71.101.308.202.613.301.922.141.443.257.906.368 1.353l.05.198c.13.52.268 1.074.37 1.64.048.259.095.519.141.778l.175.955c.077.412.157.824.237 1.236.106.551.213 1.103.312 1.655.058.664.087 1.33.112 1.954a.813.813 0 00-.44.144c-.158.11-.315.224-.471.34-.351.257-.714.523-1.102.73-.101.036-.202.07-.304.105-.23.077-.458.179-.679.277l-.092.04c-1.107.448-2.42.944-3.775 1.238-.456.1-.926.175-1.38.248-.195.031-.388.062-.582.095-.243.04-.486.083-.73.124a89.39 89.39 0 01-1.358.227c-1.118.134-2.33.213-3.816.25-1.366.033-2.829.087-4.258.259l-.508.06c-.668.078-1.356.159-2.026.28-.787.145-1.561.328-2.288.502-1.249.3-2.59.602-4.101.922l-.594.127a83.65 83.65 0 01-1.283.27 53.16 53.16 0 01-1.962.344l-1.208.15c-.902.111-1.804.222-2.707.337a284.26 284.26 0 01-4.359.523l-1.18.138c-1.036.123-2.107.25-3.164.335-1.144.092-2.311.128-3.44.163l-1.01.031a80.205 80.205 0 00-3.754.209c-.311.025-.623.054-.933.082a309.158 309.158 0 01-1.982.17 9.975 9.975 0 01-.827.034c-.58 0-1.193-.043-1.932-.135-.5-.077-.905-.156-1.27-.248.06-.25.056-.524-.009-.809a10.25 10.25 0 01-.15-.868l-.052-.378c-.143-1.1-.32-2.215-.49-3.291l-.129-.815a49.333 49.333 0 01-.273-3.765 90.467 90.467 0 01-.028-3.41c.002-.34.005-.681.005-1.022v-.473c.003-2.627.005-5.345.183-8.01.04-.624.085-1.247.13-1.872.058-.823.117-1.647.168-2.471.068-1.084.124-2.187.179-3.253l.066-1.277c.077-1.432.126-2.881.175-4.365.023-.74.054-1.48.087-2.218.028-.665.057-1.328.079-1.992.095-2.856.073-5.73-.065-8.541-.068-1.366-.154-2.754-.237-4.097l-.015-.245-.068-1.08a191.252 191.252 0 01-.231-4.142c-.048-1.039-.096-2.112-.177-3.165-.073-.939-.155-1.875-.238-2.812-.045-.51-.09-1.019-.133-1.528a74.32 74.32 0 00-.52-4.431l-.145-1.012c-.143-1.007-.29-2.048-.454-3.068l-.165-1.025c-.206-1.278-.42-2.6-.607-3.904-.158-1.302-.338-2.68-.55-4.214a128.32 128.32 0 00-.37-2.435c-.08-.5-.16-1-.235-1.5-.156-1.268-.303-2.511-.378-3.758l-.132-2.114c-.044-.7-.088-1.398-.13-2.097-.055-.898-.093-1.812-.13-2.695-.024-.558-.047-1.114-.074-1.67-.021-.431-.045-.862-.07-1.293l-.042-.744a78.077 78.077 0 01-.058-1.326l-.03-.746c-.076-1.736-.222-3.177-.46-4.539-.269-1.527-.68-2.976-1.049-4.191-.141-.47-.31-.941-.474-1.398-.066-.185-.132-.369-.196-.554a82.366 82.366 0 00-.693-1.894c-.268-.707-.53-1.414-.787-2.124-.097-.268-.19-.537-.285-.806a48.07 48.07 0 00-.408-1.143c-.268-.717-.526-1.436-.786-2.157-.119-.33-.236-.659-.356-.989a25.02 25.02 0 00-.568-1.382l-.085-.196c-.215-.497-.428-.997-.64-1.496-.262-.64-.571-1.4-.87-2.17-.157-.404-.36-.938-.551-1.48-.363-1.038-.6-2.124-.81-3.147-.075-.36-.438-.554-.742-.554a.702.702 0 00-.189.025c-.395.11-.618.5-.529.93.186.912.376 1.802.643 2.675.177.574.388 1.146.605 1.73a242.426 242.426 0 001.139 2.98c.402 1.033.819 2.1 1.164 3.175l.255.791c.335 1.039.681 2.113 1.006 3.175.216.705.454 1.414.685 2.102.216.644.44 1.31.644 1.972l.017.053c.291.944.592 1.92.84 2.893a35.3 35.3 0 01.616 3c.127 1.057.277 2.45.291 3.849.016 1.474.038 2.969.067 4.445.012.68.014 1.357.017 2.036.003.716.005 1.456.02 2.184.02.982.064 1.98.104 2.946l.049 1.174c.026.676.06 1.474.108 2.265-.271.211-.468.505-.619.923-.11.304-.235.637-.399 1.046-.042.086-.086.17-.133.252a4.608 4.608 0 01-.192.183 4.907 4.907 0 01-.484.265c-.251.098-.46.168-.656.22-.264.07-.549.13-.897.188a20.714 20.714 0 01-2.466.146c-.508 0-1.023-.014-1.523-.028l-.264-.007a43.388 43.388 0 01-2.353-.133l-.643-.05a69.202 69.202 0 01-1.509-.126c-.354-.062-.71-.14-1.055-.216l-.123-.027c-.37-.081-.75-.141-1.118-.2l-.305-.047-.171-.028c-.895-.144-1.821-.292-2.734-.42l.047.011-.246-.039a58.258 58.258 0 00-2.36-.29l-.538-.05c-.448-.04-.91-.082-1.364-.136a34.137 34.137 0 00-2.009-.238c-.235-.02-.469-.035-.703-.05l-.121-.008c.083-.22.168-.442.257-.663.41-.94.855-1.885 1.285-2.798l.17-.362c.622-1.324 1.149-2.696 1.626-3.982.443-1.19.935-2.46 1.548-3.996l.152-.38c.46-1.15.936-2.338 1.34-3.533.591-1.742 1.094-3.542 1.58-5.283.26-.924.526-1.88.804-2.815.128-.434.26-.865.393-1.297.26-.85.528-1.727.763-2.602.368-1.375.733-2.752 1.093-4.129.234-.897.455-1.813.67-2.7.26-1.077.528-2.192.823-3.28.203-.753.37-1.53.532-2.28.256-1.196.521-2.432.94-3.602a4.05 4.05 0 01.238-.418c.133-.145.28-.288.451-.436.42-.284.887-.5 1.328-.7 1.016-.404 2.072-.755 3.095-1.095l.226-.075c.298-.1.597-.195.895-.29.339-.108.677-.216 1.014-.33.48-.162.958-.352 1.421-.536l.454-.18c1.06-.414 2.16-.77 3.225-1.112l.6-.195c.21-.067.418-.154.618-.238a22.053 22.053 0 01.66-.267c.163-.066.326-.13.489-.197.248-.1.497-.2.746-.297.329-.13.659-.26.985-.398.582-.244 1.14-.505 1.657-.75a3.908 3.908 0 00-.074.557c-.038.532.147 1.035.333 1.458.192.436.546.746.868.991l.456.348c.241.183.481.366.72.551l-.009-.007.01.006v.001l.074.058-.002-.002c.21.163.42.326.634.487l-.186-.15c.546.422 1.1.795 1.767 1.239.868.574 1.886.862 2.872 1.14l.142.04c1.253.356 2.566.54 3.837.718l.3.042c1.48.21 3.066.377 4.852.516a61.206 61.206 0 005.026.198c.495 0 .904-.008 1.293-.023zm4.905-31.308c-.248.068-.564.26-.675.52a6.786 6.786 0 00-.412 1.2c-.092.417-.14.879-.16 1.498-.02.61.03 1.23.077 1.828l.031.41.007.093c.044.612.09 1.244.173 1.862.09.664.173 1.33.255 1.996l.01.08c.086.712.176 1.448.387 2.146l.032.103c.077.263.158.534.25.797.162.463.367.915.527 1.257l.287.62c.18.394.362.788.554 1.178.258.525.563 1.06.931 1.639.41.643.82 1.265 1.34 1.814.595.625 1.198 1.243 1.8 1.861l.711.729.074.076c.334.342.669.685 1.008 1.023.174.172.358.33.515.464.125.107.253.21.383.311a15.564 15.564 0 01-2.71 1.55c-.65.262-1.298.493-1.929.69-.343.108-.798.247-1.264.371-.31.083-.63.151-.937.216l-.24.052c-.856.185-1.712.37-2.567.548a41.9 41.9 0 01-2.04.358c-.518.058-1.05.108-1.578.15-.518.04-1.048.049-1.561.057l-.291.006c-.406.008-.813.011-1.22.011-.916 0-1.82-.017-2.658-.036-1.142-.023-2.301-.112-3.423-.198l-.359-.028a78.58 78.58 0 01-3.273-.341l-.26-.03a15.91 15.91 0 01-1.197-.208l-.094-.02c-.284-.062-.567-.123-.849-.19a9.053 9.053 0 01-1.206-.386c-.119-.053-.237-.108-.357-.163.233-.26.36-.516.498-.872a12.135 12.135 0 00.372-1.066l.086-.282c.14-.47.287-.956.407-1.442.125-.501.223-1.016.318-1.515l.04-.21.02-.101c.104-.542.212-1.1.292-1.656.19-1.314.304-2.634.405-3.872.079-.974.037-1.966-.003-2.926a76.974 76.974 0 01-.032-.826c-.043-1.38-.06-2.79-.055-4.308.004-.638.031-1.287.057-1.914l.014-.315c.03-.734.053-1.521.079-2.551a.888.888 0 00-.262-.646.95.95 0 00-.675-.291.944.944 0 00-.936.937 172.144 172.144 0 01-.235 5.068c-.033.569-.064 1.139-.095 1.708-.033.603-.055 1.208-.078 1.812-.051 1.347-.104 2.741-.264 4.106a66.818 66.818 0 01-.786 4.345c-.314.172-.629.348-.944.524l-.565.314a1.013 1.013 0 00-.715-.306c-.166 0-.334.043-.542.14-.973.456-1.962.9-2.943 1.323-.84.337-1.707.636-2.545.925-.28.096-.56.192-.838.29-.595.21-1.195.409-1.793.607-.449.15-.915.272-1.366.39-.192.051-.384.101-.576.154l-.056.016c-.62.171-1.261.347-1.878.558l-.605.21c-.421.147-.858.299-1.29.435-.624.195-1.262.378-1.88.556-.658.189-1.34.385-2.003.594-.501.158-1.023.35-1.597.585-.614.255-1.312.543-1.894.96a7.74 7.74 0 00-.982.817 4.6 4.6 0 00-.526.665l-.067.095a3.59 3.59 0 00-.335.656l-.025.055a17.672 17.672 0 00-.747 2.162c-.116.401-.22.806-.324 1.212-.079.304-.156.608-.24.91-.15.558-.328 1.15-.538 1.808-.303.948-.572 1.922-.833 2.864-.108.392-.216.784-.327 1.175-.189.661-.393 1.329-.59 1.974-.201.659-.408 1.339-.6 2.012l-.215.767c-.29 1.036-.59 2.106-.937 3.144a133.172 133.172 0 00-1.366 4.238c-.207.693-.424 1.381-.642 2.07a186.1 186.1 0 00-.546 1.751c-.282.927-.665 2.14-1.125 3.307a205.22 205.22 0 01-.758 1.882c-.208.515-.417 1.03-.623 1.546a70.313 70.313 0 00-1.061 2.905c-.356 1.02-.724 2.074-1.138 3.093l-.277.633c-.284.648-.577 1.319-.88 1.972-.507 1.09-1.03 2.216-1.36 3.396a2.654 2.654 0 00.334 2.152c.432.65 1.101 1.093 2.049 1.356.392.11.805.167 1.205.224.145.02.29.041.434.063l.04.007c.532.084 1.08.17 1.62.274a30.36 30.36 0 002.012.31l.829.11c.982.147 1.975.313 2.936.474l.937.155.413.069c.32.052.64.105.96.164-.075.519-.145 1.04-.213 1.563a88.27 88.27 0 00-.208 1.751l-.101.88c-.145.985-.298 1.967-.45 2.95-.201 1.29-.408 2.623-.592 3.937-.107.75-.217 1.5-.328 2.25-.073.487-.145.975-.216 1.463-.158 1.076-.271 2.174-.382 3.235l-.062.599c-.125 1.19-.258 2.38-.392 3.572l-.115 1.033c-.17 1.526-.355 3.152-.567 4.745-.067.456-.139.909-.21 1.362-.12.758-.243 1.541-.342 2.316l-.018.14c-.144 1.12-.293 2.278-.418 3.421-.041.368-.077.737-.112 1.106l-.072.737c-.025.237-.05.473-.077.71-.035.324-.07.647-.102.972-.06.62-.11 1.237-.154 1.81-.02.267-.045.532-.07.797-.026.28-.053.56-.074.842-.019.24-.034.481-.051.722a64.58 64.58 0 01-.078 1.051l-.06.645c-.032.351-.066.701-.09 1.053l-.009.118c-.079 1.132-.16 2.304.125 3.429.186.73.41 1.267.706 1.686.346.493.742.963 1.126 1.416l.066.08c.366.432.736.821 1.134 1.19.437.402.91.792 1.328 1.137.71.586 1.544 1.295 2.33 2.1.246.252.5.497.753.743.171.166.343.332.512.5.29.288.573.593.846.887l.348.375a52.232 52.232 0 001.592 1.6c.272.266.545.532.814.801.478.478.962.953 1.446 1.427.343.337.688.675 1.031 1.014.378.376.75.772 1.11 1.155.31.33.62.661.939.984.744.753 1.482 1.5 2.23 2.237a56.525 56.525 0 011.958 2.038c.148.162.3.322.45.484l.452.487c.059.064.119.133.18.201.41.461.874.986 1.496 1.113a1.665 1.665 0 00.608.05c.007.321.024.646.04.97l.022.448c.065 1.39.229 2.83.498 4.399l.12.71c.173 1.038.353 2.11.613 3.146.05.201.101.401.16.6a.97.97 0 00.026.076c0 .306.15.61.404.807.013 1.01.008 2.118-.017 3.387-.042 2.117-.221 4.212-.401 6.176-.028.308-.06.616-.09.924a41.951 41.951 0 00-.181 2.206 93.433 93.433 0 00-.09 3.213c-.011.782.01 1.58.03 2.35.01.289.017.577.023.864.013.601.034 1.203.055 1.803.015.457.031.915.044 1.372l.024.894c.047 1.766.096 3.591.171 5.387l.132 3.204c.043 1.075.087 2.15.132 3.224.042.975.086 1.983.098 2.975l.019 1.793c.004.496.008.992.015 1.49.02 1.676.085 3.38.147 5.03l.043 1.162c.016.433.03.868.043 1.302a181.359 181.359 0 00.242 5.495c.094 1.772.174 3.654.253 5.923.054 1.551.1 3.102.145 4.654.023.776.045 1.55.07 2.327.053 1.751.078 3.532.103 5.255l.017 1.253c.01.626.027 1.253.045 1.88.01.361.02.722.028 1.083l.018.77c.017.769.035 1.538.059 2.308l.026.814c.062 1.964.126 3.996.214 5.995.076 1.74.189 3.508.297 5.218l.076 1.201c.04.645.1 1.3.157 1.935.032.35.064.703.093 1.054.083 1.006.146 2.004.213 3.111.169 2.745.368 5.535.562 8.232.112 1.565.224 3.13.33 4.695.047.686.077 1.386.106 2.064.014.335.028.671.044 1.007l.086 1.787.088 1.788c.09 1.876.191 4.098.256 6.35.028.958.08 1.931.129 2.872.057 1.119.119 2.276.14 3.415.049 2.375.056 4.775.057 6.81 0 1.717-.007 3.433-.014 5.151l-.005 1.033c-.004.866.022 1.747.047 2.599l.012.424c.013.455.023.91.033 1.364.013.633.027 1.265.05 1.897a73 73 0 00.059 1.287c.029.57.058 1.16.072 1.742.02.913.034 1.874.039 2.935a492.117 492.117 0 01-.032 7.11c-.021 1.54-.043 3.132.065 4.697a35.9 35.9 0 00.866 5.78c.209.88.364 1.65.477 2.353.078.774.116 1.553.143 2.212.03.746-.034 1.459-.101 2.057-.05.323-.105.645-.161.968-.1.578-.203 1.176-.27 1.768-.116 1.015-.148 2.052-.165 2.93-.02.925-.04 1.972.058 2.994.049.52.133 1.07.274 1.781.11.56.226 1.002.366 1.391.118.326.286.75.548 1.13.149.216.314.423.489.615.17.187.394.35.61.507.058.043.116.085.17.127.18.137.374.266.59.394a2.428 2.428 0 00-.08.175l-.027.063c-.177.402-.329.795-.466 1.204a26.26 26.26 0 00-.54 1.934l-.011.047-.009.035c-.168.67-.343 1.364-.444 2.057-.069.48-.12.883-.142 1.292-.02.368-.023.732-.021 1.04.006 1.832.156 3.31.473 4.654l.033.137c.142.604.29 1.23.513 1.822.303.798.674 1.572.997 2.224.227.458.488.909.741 1.345l.2.347c.155.27.325.558.514.835.142.207.31.426.527.686l.071.118c.141.228.301.459.49.703l.017.022c.157.204.32.415.5.605.24.253.513.484.89.75.16.116.348.193.528.269l.042.018c.237.1.435.178.623.243.109.06.219.117.331.172.547.268 1.186.564 1.849.676.477.081.876.124 1.255.137h.102c.376 0 .76-.056 1.13-.11l.129-.02c.345-.05.662-.11.968-.183.428-.102.828-.277 1.27-.479.626-.285 1.188-.712 1.665-1.089.118-.094.235-.187.35-.283.255-.206.477-.5.662-.758.181-.254.355-.513.528-.773.337-.504.685-1.027.981-1.568.115-.213.217-.437.315-.654l.066-.146c.197-.433.356-.821.489-1.187.198-.557.365-1.167.493-1.816.287-1.44.382-2.898.44-4.26.062-1.423.03-2.81-.093-4.125-.105-1.112-.354-2.216-.6-3.252-.116-.485-.23-.93-.35-1.36-.062-.295-.12-.575-.195-.845-.094-.338-.2-.694-.38-1.006a1.496 1.496 0 00-.07-.137c.202-.235.402-.474.598-.716l.242-.292c.27-.324.547-.66.794-1.013.324-.463.524-1.006.718-1.53l.063-.172c.138-.373.315-.866.467-1.377.34-1.144.544-2.04.664-2.904a31.32 31.32 0 00.275-3.45c.014-.522.022-1.043.029-1.564.008-.629.018-1.28.04-1.92.017-.48.056-.967.092-1.438l.005-.052c.047-.601.09-1.06.139-1.485.122-.762.304-1.52.48-2.256l.048-.203c.25-1.044.418-1.852.546-2.618.236-1.407.406-2.845.57-4.237.07-.592.14-1.183.215-1.775.2-1.56.34-3.151.474-4.69.046-.508.09-1.017.137-1.527.197-2.133.325-4.252.45-6.3.07-1.154.129-2.308.187-3.464.05-.956.1-1.91.154-2.866.15-2.622.255-4.8.329-6.857.017-.489.032-.978.045-1.466.016-.524.03-1.049.05-1.573l.009-.264c.035-.95.07-1.933.085-2.9.016-.934.02-1.867.022-2.8.004-1.173.01-2.384.038-3.574.063-2.556.101-4.683.12-6.691.018-1.655.018-3.337.018-4.964l.001-1.767c.001-1.604.04-3.232.079-4.808l.037-1.553c.046-2.16.053-4.326.054-6.16l.002-4.025c.001-3.012.002-6.023.013-9.034l.011-3.109.012-3.255c.002-.707.002-1.415.003-2.122 0-1.391.001-2.83.016-4.245.014-1.302.048-2.624.082-3.903.023-.89.046-1.78.063-2.67.033-1.743.037-3.516.042-5.23l.003-1.101.007-1.555.005-1.555.001-.334c.002-.329.003-.657.006-.985.003-.52.033-1.046.061-1.555l.014-.246c.117-2.105.295-4.223.454-6.044a6.18 6.18 0 01.033-.28l.032-.22c.098-.671.197-1.343.304-2.014.038.54.073 1.086.099 1.628.065 1.353.197 2.724.325 4.05l.027.277c.276 2.863.562 5.824.832 8.77.086.942.142 1.903.195 2.83.032.55.063 1.097.101 1.644l.04.578c.086 1.255.177 2.551.285 3.825.087 1.023.15 2.065.211 3.072.029.454.056.906.086 1.358.045.706.087 1.414.129 2.12a350.43 350.43 0 00.244 3.82c.162 2.393.33 4.867.345 7.305.016 2.98.032 5.961.046 8.94.021 4.488.06 9.049.1 13.46.014 1.684.03 3.369.043 5.053.05 5.96.085 11.974.12 18.124.026 4.203.045 8.406.064 12.61l.024 5.252c.015 3.193.034 6.32.1 9.469.065 3.127.335 6.328.573 9.153.1 1.206.203 2.412.305 3.618l.152 1.8c.149 1.752.356 3.531.557 5.25l.072.626c.014.118.034.254.079.38-.192.92-.364 1.863-.531 2.773l-.014.076c-.098.537-.175 1.088-.25 1.62l-.073.525-.051.35c-.09.604-.18 1.229-.224 1.849-.04.57.015 1.147.067 1.703l.008.073c.083.883.168 1.595.268 2.239.093.606.259 1.209.52 1.899.237.625.543 1.225.838 1.804l.122.24c.11.214.246.42.379.62l.134.207c.255.397.531.776.824 1.128.472.57 1.06 1.09 1.848 1.63.26.178.521.349.778.508.446.274.95.474 1.341.617l.142.052c.238.089.483.18.733.229a47.711 47.711 0 002.087.362l.22.033c.26.038.52.077.78.107.175.021.35.032.538.032.447 0 .882-.06 1.326-.126 1.196-.177 2.258-.782 3.285-1.367l.09-.05c.664-.38 1.269-.868 1.852-1.34l.158-.128c.47-.377.935-.848 1.346-1.363.32-.403.576-.748.805-1.085a9.33 9.33 0 00.47-.804l.055-.1c.36-.659.656-1.392.93-2.311.446-1.504.688-3.05.718-4.595.015-.767-.082-1.608-.287-2.5a6.713 6.713 0 00-.277-.888l-.015-.04-.027-.07c.233-.116.435-.234.617-.356.814-.548 1.536-1.242 2.234-1.911.657-.632 1.08-1.46 1.44-2.263a6.76 6.76 0 00.403-1.163c.064-.264.12-.529.177-.794.456-2.193.258-4.473-.004-6.812a46.527 46.527 0 01-.27-3.157 28.22 28.22 0 01-.02-1.614c.007-.5.052-.984.106-1.518.102-.732.221-1.517.364-2.399l.081-.496c.142-.863.288-1.756.372-2.638.074-.766.124-1.548.173-2.303l.052-.791c.027-.38.056-.761.085-1.14.048-.605.096-1.23.128-1.846.02-.416.046-.833.072-1.248a92.3 92.3 0 00.088-1.57c.022-.54.044-1.062.057-1.583.013-.442.003-.89-.005-1.323l-.003-.163a18.362 18.362 0 00-.076-1.184l-.015-.173a21.647 21.647 0 00-.22-1.918c-.063-.36-.128-.72-.194-1.081a99.298 99.298 0 01-.298-1.702 35.656 35.656 0 01-.194-2.681 135.304 135.304 0 01-.05-3.016c-.01-1.126.027-2.27.063-3.376.026-.802.053-1.633.062-2.448.037-3.316.038-6.688.04-9.95v-2.34l.01-7.558c.008-5.813.015-11.626.018-17.44v-.524c.001-1.85.002-3.762-.016-5.643-.009-1.069-.04-2.155-.069-3.204-.024-.888-.05-1.807-.063-2.71l-.01-.678c-.024-1.794-.049-3.649-.161-5.47a586.592 586.592 0 00-.417-6.31c-.086-1.18-.157-2.38-.227-3.542a309.7 309.7 0 00-.173-2.787c-.066-.962-.109-1.94-.15-2.886-.043-1.005-.087-2.044-.16-3.064a101.988 101.988 0 01-.253-6.092c-.02-1.895-.032-3.9-.033-6.128 0-1.016-.004-2.032-.01-3.048-.005-.674-.027-1.358-.048-2.022-.013-.38-.025-.759-.034-1.137-.016-.69-.022-1.382-.027-2.072l-.01-1.04c-.012-.901-.06-1.818-.105-2.704l-.01-.209-.052-1.091a141.04 141.04 0 00-.093-1.875 114.375 114.375 0 00-.24-3.173c-.163-1.908-.261-3.849-.354-5.725l-.02-.386c-.02-.392-.036-.785-.053-1.178-.027-.63-.055-1.28-.094-1.92a69.107 69.107 0 01-.12-3.035c-.02-1.11.003-2.238.025-3.33.015-.788.031-1.603.031-2.403 0-.726-.006-1.454-.012-2.18-.012-1.265-.025-2.573 0-3.86.017-.823.065-1.658.111-2.465l.032-.565c.04-.729.127-1.468.212-2.183l.064-.54c.062-.546.124-1.183.06-1.83a1.59 1.59 0 00-.19-.758.672.672 0 00.22-.101l.08-.062.08-.061c.07-.07.125-.15.163-.237a1.549 1.549 0 001.427-1.113c.226-.782.352-1.564.473-2.5.034-.261.04-.534.047-.796l.007-.23c.01-.28.01-.559.01-.84v-.22a7.84 7.84 0 00-.084-1.017 45.117 45.117 0 00-.212-1.411c-.059-.353-.123-.706-.187-1.06a72.11 72.11 0 01-.144-.81l-.093-.544a52.464 52.464 0 00-.254-1.428 39.326 39.326 0 00-.485-2.066l-.014-.052c-.146-.572-.33-1.14-.508-1.69l-.061-.189c-.167-.512-.329-1.023-.488-1.537.024.005.044.005.065.005l.03-.001c-.16-.438-.32-.878-.485-1.314-.234-.614-.49-1.219-.682-1.849-.112-.367-.217-.735-.325-1.103l-.123-.358-.435-1.26-.282-.816a33.82 33.82 0 01-.548-1.795l-.084-.289a128.97 128.97 0 01-.901-3.306c.068-.043.132-.09.192-.143a16.524 16.524 0 00-.17-.678c-.156-.564-.336-1.122-.51-1.68-.204-.66-.396-1.324-.62-1.977-.196-.576-.3-1.17-.39-1.77-.107-.707-.22-1.414-.317-2.121a91.373 91.373 0 01-.077-.563l-.034-.204a150.33 150.33 0 01-.59-4.047 91 91 0 01-.392-4.332c-.09-1.452-.056-2.894-.011-4.113.097-2.675.23-5.517.408-8.687.11-1.941.23-4.009.401-6.04.062-.754.142-1.518.218-2.258l.061-.59c.025-.25.05-.497.073-.746.066-.682.133-1.387.223-2.078v-.013l.001-.008v-.029l.01-.045.01-.068.011-.084.004-.027v-.015h.001l.052-.38.01-.074.004-.039c.127-.776.255-1.529.377-2.227.01-.385.037-.77.083-1.151.061-.508.141-1.01.222-1.514.097-.604.202-1.207.308-1.81.162-.916.39-1.807.667-2.689.178-1.026.357-2.073.518-3.109.228-1.47.4-2.969.529-4.582.114-1.45.167-2.875.154-4.237-.01-1.327-.04-2.753-.177-4.182l-.085-.918c-.034-.382-.069-.764-.107-1.146-.022-.213-.043-.418-.066-.618a3.35 3.35 0 01-.702-.805c-.243-.385-.39-.83-.544-1.259-.055-.15-.113-.306-.15-.461-.141-.616-.22-1.238-.3-1.864a6.899 6.899 0 01-.068-1.062 27.476 27.476 0 01-.724-2.498c-.23-.992-.372-1.999-.516-3.006-.17-1.2-.36-2.4-.53-3.6a131.68 131.68 0 00-.11-.415c-.232-.873-.364-1.79-.492-2.675l-.05-.345a14.225 14.225 0 01-.134-1.644c-.004-.57.01-1.191.047-1.902l.04-.836c.041-.934.084-1.9.19-2.845.214-1.25.444-2.249.725-3.14.077-.248.161-.496.25-.741-.095-.614.004-1.307.344-1.818.358-.54.71-1.086 1.075-1.624.152-.343.3-.672.447-.989a2.871 2.871 0 01-.164-.95c0-.756.313-1.432.813-1.948a17.624 17.624 0 00-.666-.051l-.263-.018c-.945-.063-2.016-.134-3.05-.26a118.64 118.64 0 00-2.861-.467c-.37-.055-.74-.106-1.109-.155l-.285-.039-.262-.035c-.382-.05-.776-.102-1.156-.183a65.807 65.807 0 01-2.985-.73 24.174 24.174 0 01-1.425-.439 26.264 26.264 0 01-1.656-.585 4.484 4.484 0 01-.573-.322c-.103-.088-.204-.178-.305-.267l-.053-.046a.925.925 0 00-.611-.24.811.811 0 00-.391.101 2.453 2.453 0 00-.626-.183 5.08 5.08 0 00-.784-.057c-.396 0-.78.036-1.187.074l-.077.006c-.117.01-.22.028-.313.057l-.103-.014c-.225-.03-.452-.051-.678-.07l-.164-.013c-.15-.013-.306-.028-.459-.028a1.55 1.55 0 00-.48.066c-.648-.607-1.278-1.205-1.824-1.859-1.212-1.61-2.123-3.098-2.787-4.547a10.53 10.53 0 01-.409-1.15c-.12-.43-.226-.88-.311-1.336l-.022-.12c-.17-.91-.345-1.852-.492-2.783l-.01-.074c-.149-1.169-.304-2.378-.188-3.568.06-.32.141-.616.26-.93l-.016.034c.107-.271.149-.495.073-.769a1.135 1.135 0 00-1.09-.828c-.1 0-.199.014-.297.04z"/><path d="M293.068 305.735l.06.084c0-.155.01-.308.035-.465a5.864 5.864 0 01-.422-.073c.11.151.218.302.327.454m14.756 28.08a10.1 10.1 0 01-.28.222l.007.1.075 1.02c.137-.153.277-.306.418-.458l-.214-.888-.006.004m-10.101 18.567c.04-.347.083-.693.132-1.038a2.102 2.102 0 01-.539-.038c.136.358.27.718.407 1.076m-9.498-93.069c-.015.043-.02.09-.025.134-.008.053-.017.11-.02.161-.005.07-.012.14-.013.209-.002.136-.003.271 0 .407.007.31.016.619.026.927.009.264.033.53.05.792.009.147.03.294.045.44.019.178.036.355.06.533-.005-.023-.007-.049-.01-.073.016.136.028.272.049.407.01.063.023.125.04.186a.722.722 0 00.118.244 13.086 13.086 0 00.078.694c.016.1.04.197.06.295.028.14.158.24.283.24h.007l-.053-.406c-.225-1.749-.488-3.492-.676-5.246l-.02.056m.216 3.761l-.006-.05.006.05m-72.66 7.369a1.11 1.11 0 00-.513.66c-.071.254-.06.63.11.85 1.394 1.793 2.824 3.557 4.241 5.33l.996 1.381c.332.46.634.946.949 1.418.274.409.521.836.78 1.255.273.44.536.89.786 1.343a456.367 456.367 0 011.641 3.02c.257.474.517.946.781 1.416.284.505.618.977.98 1.43a1.106 1.106 0 001.33.168c.4-.231.668-.772.504-1.227-.444-1.223-1.031-2.38-1.66-3.52a69.185 69.185 0 00-1.969-3.377c-.345-.55-.706-1.09-1.065-1.631-.144-.218-.301-.428-.452-.64-.188-.267-.37-.541-.567-.802-.424-.561-.833-1.14-1.282-1.683l-1.29-1.56a159.91 159.91 0 01-2.67-3.301l.04.052a31.12 31.12 0 00-.145-.186l-.174-.224a1.12 1.12 0 00-1.352-.172m2.846 14.285a.6.6 0 000 .835c.65.66 1.313 1.306 1.977 1.951.438.426.897.83 1.348 1.243.227.208.465.405.699.608.109.095.229.182.342.272.138.109.273.222.417.325a24.357 24.357 0 001.089.738c.192.118.388.209.598.295.252.104.521.165.785.232l.193.043c.306.067.62-.088.705-.404a.585.585 0 00-.4-.71 10.4 10.4 0 01-.803-.274c-.284-.133-.543-.304-.807-.473a17.698 17.698 0 01-1.294-.917c-.259-.218-.521-.432-.772-.659l-1.074-.968c-.305-.276-.593-.576-.89-.863a85.65 85.65 0 01-1.284-1.274.578.578 0 00-.413-.171.584.584 0 00-.416.17m71.598 11.888c-.095.11-.191.22-.29.329-.092.1-.153.199-.153.333a.45.45 0 00.153.331.58.58 0 00.525.117l.155-.8c.07-.359.152-.713.244-1.064-.21.252-.421.504-.634.754m-61.414-34.035c-.191.686-.394 1.37-.573 2.06-.178.684-.357 1.369-.528 2.054-.17.686-.33 1.374-.466 2.069a35.79 35.79 0 00-.34 2.171c-.106.82-.203 1.64-.284 2.462l-.19 1.948c-.04.404-.063.808-.092 1.214-.033.467-.064.935-.089 1.404-.05.977-.11 1.954-.217 2.927-.011.108-.024.215-.037.322-.02.168.13.33.277.371a.371.371 0 00.291-.039c.075-.045.16-.137.173-.23a49.82 49.82 0 00.362-3.178c.074-.9.148-1.8.246-2.699.158-1.445.31-2.89.498-4.331l-.017.13c.094-.712.201-1.422.335-2.127a40.34 40.34 0 01.463-2.07c.17-.686.35-1.37.527-2.053.186-.718.395-1.429.594-2.143a.5.5 0 00-.337-.608.494.494 0 00-.596.345m-19.852 71.758l-.014.114.014-.114m-.504-10.07l-.01.066.01-.066m4.73-28.106c-.19.053-.423.2-.504.392l-.163.39.09-.217c-.141.282-.283.563-.326.88-.04.288-.081.574-.125.861-.089.592-.15 1.187-.225 1.78-.04.297-.078.594-.116.892-.028.198-.055.396-.08.595a52.612 52.612 0 01-.409 2.432c-.16.845-.296 1.696-.419 2.547-.124.861-.252 1.724-.391 2.583-.138.85-.303 1.694-.46 2.539-.14.75-.288 1.499-.421 2.25-.068.379-.14.755-.2 1.134-.074.48-.12.964-.167 1.448-.077.788-.14 1.58-.2 2.37a51.84 51.84 0 01-.255 2.47c-.137.965-.257 1.931-.38 2.898-.062.443-.13.885-.178 1.33-.049.445-.084.89-.12 1.337-.067.846-.122 1.691-.217 2.534-.104.916-.207 1.832-.294 2.75-.078.84-.14 1.682-.214 2.524-.071.807-.17 1.612-.231 2.42-.032.428-.07.856-.09 1.285-.02.43-.026.86-.052 1.29-.055.901-.042 1.805-.052 2.707a58.558 58.558 0 01-.101 2.842c-.016.272.234.499.491.499.28 0 .476-.227.492-.5.05-.842.086-1.685.115-2.529.028-.811.056-1.618.136-2.426.096-.708.174-1.419.263-2.129.19-1.271.39-2.542.554-3.818l-.003.02c.158-1.186.292-2.375.45-3.56l-.029.217c.06-.436.12-.872.183-1.309.063-.443.134-.887.18-1.333.085-.836.165-1.674.261-2.508.117-.851.26-1.699.376-2.55.057-.427.13-.851.196-1.278a53.493 53.493 0 00.215-1.555c.154-1.184.264-2.373.402-3.56.047-.341.095-.683.153-1.022.065-.387.162-.767.243-1.15.168-.792.368-1.578.537-2.37.174-.81.367-1.617.514-2.43.156-.863.3-1.724.44-2.588.137-.854.275-1.708.435-2.557.17-.912.328-1.826.444-2.747.103-.83.2-1.66.29-2.492.046-.42.095-.84.14-1.26.053-.468.117-.96-.054-1.412a2.446 2.446 0 01-.06-.172.859.859 0 00-.615-.744.845.845 0 00-.45 0"/><path d="M212.636 297.339l-.198.153a.968.968 0 00-.253.43c-.212.498-.23 1.061-.292 1.592-.05.432-.113.86-.158 1.294-.091.912-.195 1.824-.294 2.735-.206 1.873-.377 3.75-.592 5.622l.042-.3a69.95 69.95 0 00-.375 3.326c-.092 1.022-.187 2.04-.29 3.061-.101 1.015-.161 2.034-.266 3.05-.108 1.036-.25 2.068-.369 3.103-.119 1.024-.256 2.046-.368 3.07-.11 1.02-.205 2.04-.3 3.062-.191 2.07-.365 4.145-.599 6.212-.115 1.016-.228 2.033-.354 3.048-.12.957-.167 1.926-.216 2.89a54.2 54.2 0 01-.217 3.08c-.123 1.139-.235 2.279-.382 3.416-.027.2.103.441.24.577a.83.83 0 001.165 0c.17-.168.212-.351.242-.577.111-.859.208-1.718.299-2.58.077-.736.166-1.472.222-2.212.057-.773.112-1.547.177-2.32.055-.652.132-1.3.217-1.949.139-.912.26-1.825.379-2.74.108-.797.214-1.595.316-2.393.103-.806.184-1.614.291-2.42-.011.088-.024.174-.036.261.275-2 .457-4.012.714-6.015.119-.856.238-1.71.348-2.566.135-.963.265-1.926.376-2.892.051-.454.085-.91.128-1.365.042-.45.093-.898.14-1.348.096-.941.214-1.882.318-2.822.05-.426.086-.854.132-1.28.048-.465.111-.928.165-1.393a169.928 169.928 0 001.024-9.079c.084-.959.192-1.926.104-2.888a.96.96 0 00-.134-.493.988.988 0 00-1.346-.35m77.034-56.343a.33.33 0 00-.148.198.34.34 0 00.032.255c.037.066.115.142.192.152l1.11.16a2.949 2.949 0 01-.069-.671l-.87-.127a.576.576 0 00-.095-.009.285.285 0 00-.152.042m-.391-2.436c-.18.008-.358.026-.536.035-.18.01-.329.018-.505.053l.002.005a.424.424 0 00-.114.795c.171.093.274.13.472.158.182.026.366.041.55.057l.084.007c.079.203.2.382.366.538.194.2.464.347.742.419.15.039.33.048.496.058.068-.62.373-1.175.828-1.61l-.29-.098c-.601-.205-1.22-.388-1.793-.659a4.318 4.318 0 01-.11-.055c-.078.092-.141.19-.192.297m-.306 29.44c0 .675.351 1.306.878 1.645a1.6 1.6 0 00.198.108 27.34 27.34 0 01-.53-2.06c-.062-.299-.118-.6-.17-.9a2.23 2.23 0 00-.376 1.206"/><path d="M273.647 235.636a.46.46 0 00.318.558c1.123.344 2.246.69 3.37 1.03.426.128.85.258 1.275.387.22.067.44.13.659.199.202.061.409.117.606.193.099.048.19.107.286.16l.353.189c.207.11.419.213.627.323.45.24.935.433 1.426.57.967.265 1.951.447 2.94.607.624.103 1.26.147 1.888.212.57.06 1.14.128 1.707.195.12.02.24.04.36.064.22.044.442.07.666.091.201.02.394-.154.444-.336.064-.234-.077-.507-.322-.565-.208-.047-.414-.112-.623-.152a7.959 7.959 0 00-.666-.09c-.369-.037-.737-.072-1.106-.11-.715-.073-1.433-.124-2.148-.21a34.15 34.15 0 01-1.942-.332c-.335-.071-.67-.15-1-.238a7.322 7.322 0 01-.825-.288 24.04 24.04 0 01-1.266-.655c-.1-.054-.195-.113-.293-.17-.145-.085-.31-.14-.468-.194-.244-.082-.49-.157-.738-.232-.91-.277-1.82-.557-2.729-.837l-2.238-.685a.422.422 0 00-.12-.018.465.465 0 00-.44.334"/><path d="M291.227 238.893c-.252.093-.457.224-.596.467a1.012 1.012 0 00-.122.34 4.356 4.356 0 00-.272.136 5.56 5.56 0 00-.79.553c-.193.154-.383.378-.45.623a.83.83 0 00.19.756c.202.206.474.24.744.26.127.01.27-.01.398-.016.084-.004.169-.012.253-.017l.146-.01a2.912 2.912 0 01-.138-.877c0-1.067.61-1.975 1.488-2.502a7.54 7.54 0 01.124-.074l-.975.36m16.914-5.43c-1.624.34-3.262.586-4.898.857-1.709.284-3.415.58-5.118.893-1.535.283-3.073.561-4.62.788a656.34 656.34 0 01-3.159.452c-.766.1-1.533.197-2.298.293-.484.06-.966.126-1.448.19-.632.003-1.263-.009-1.894-.019-.8-.013-1.602-.029-2.4-.078a49.775 49.775 0 01-2.34-.21c-1.067-.148-2.132-.301-3.2-.437-1.218-.157-2.435-.311-3.651-.466-.205-.027-.449.103-.587.24a.824.824 0 000 1.164c.055.044.112.087.168.13a.82.82 0 00.419.112l4.605.589c.568.083 1.137.167 1.707.242.056.335.356.6.71.6 1.38-.005 2.76-.036 4.135-.14.352-.026.703-.061 1.052-.1.812.012 1.62.014 2.432-.03 1.69-.093 3.38-.178 5.058-.41l.433-.06c.17-.073.342-.144.516-.214 1.33-.527 2.692-.945 4.068-1.335a498.606 498.606 0 008.292-2.432c.742-.224 1.485-.445 2.228-.663l-.21.044m22.306-1.681c.08 1.1.088 2.206.098 3.309.006.624.033 1.249.064 1.873a19.472 19.472 0 01.09 1.999l.005.197c.016.681.016 1.364.056 2.044.038.669.084 1.336.116 2.004a83.24 83.24 0 01.07 2.799c.002.39-.015.802-.135 1.17-.07.217-.149.416-.244.602a2.877 2.877 0 01-.227 2.267 3.133 3.133 0 01-.995 1.042c.511.005 1.023.018 1.534.035.353.012.707.032 1.06.06a3.37 3.37 0 00.29-.825c.071-.35.088-.71.07-1.065-.026-.505-.155-.993-.293-1.475-.084-.293-.17-.584-.26-.874l.025-1.173c.012-.566-.001-1.131-.004-1.696a110.63 110.63 0 00-.074-3.504c-.04-1.125-.09-2.255-.213-3.374a72.174 72.174 0 00-.504-3.702 30.123 30.123 0 00-.15-.851 8.547 8.547 0 00-.116-.52 4.59 4.59 0 00-.133-.413c-.054-.14-.11-.28-.168-.419-.004-.01-.008-.018-.01-.026.02.172.036.343.048.516m-40.207 32.226l-.454.289a.8.8 0 00-.4.858c-.075.147-.136.3-.201.452-.18.42-.3.867-.44 1.3-.165.506.186 1.06.689 1.197.534.145 1.049-.174 1.213-.68.135-.42.263-.844.426-1.255a4.06 4.06 0 01.314-.489l.008-.01a2.704 2.704 0 01-.897-1.368 1.743 1.743 0 01-.106-.469c-.051.058-.103.116-.153.175"/><path d="M329.263 223.492c-.323.077-.603.254-.897.401l-.457.23c-.358.179-.716.355-1.076.529-.723.352-1.445.707-2.166 1.06-1.49.615-2.986 1.217-4.469 1.848-.36.152-.716.309-1.072.467l-1.061.389c-2.691.976-5.374 1.974-8.058 2.972a258.178 258.178 0 01-4.234 1.545c-1.324.466-2.652.916-4.012 1.267-1.375.356-2.75.712-4.128 1.063-.774.197-1.547.376-2.327.547-.66.143-1.338.229-2.007.327-.177.025-.353.052-.529.078l-1.42.157c-.178.02-.362.016-.54.023l-.987.04c-.339.014-.679.012-1.018.009l-.462-.002a23.363 23.363 0 01-2.655-.122c-.663-.094-1.324-.213-1.95-.453a8.61 8.61 0 01-1.008-.602c-.386-.268-.954-.072-1.176.307-.252.429-.076.908.308 1.175.336.234.687.443 1.053.627.413.206.865.327 1.31.431 1.048.244 2.131.315 3.201.36.556.023 1.112.02 1.668.017l.675-.002c1.315.004 2.62-.143 3.921-.315 1.331-.531 2.696-.952 4.073-1.345a496.611 496.611 0 008.306-2.448 434.07 434.07 0 018.008-2.332c1.31-.37 2.587-.841 3.891-1.226a38.462 38.462 0 003.755-1.334l-.021.01c.469-.199.937-.403 1.384-.642.616-.33 1.218-.647 1.85-.928l-.099.041c.422-.18.836-.418 1.28-.532.323-.084.655-.135.987-.135.164 0 .328.013.493.04.037-.018.076-.034.115-.052.32-.135.637-.274.95-.422a.899.899 0 00.27-.2c.01.43.005.863.004 1.293.32.266.588.598.788.969.27.501.392 1.03.478 1.582.079.505.163 1.012.2 1.522.084 1.097.092 2.198.103 3.297.006.632.035 1.264.067 1.895a17.985 17.985 0 01.09 1.917c.004.081.006.163.008.245.017.678.017 1.358.058 2.036.04.667.088 1.332.12 1.998a74.454 74.454 0 01.072 2.79c.005.388-.014.798-.138 1.165a4.067 4.067 0 01-.255.602 2.765 2.765 0 01-.237 2.259 3.18 3.18 0 01-1.034 1.037c.532.005 1.064.018 1.596.034.763.026 1.529.087 2.289.181a47.075 47.075 0 00.19-2.155c.07-1.174.058-2.349.023-3.523-.033-1.18-.095-2.36-.168-3.537-.073-1.201-.225-2.396-.389-3.587-.095-.761-.177-1.525-.26-2.288a84.814 84.814 0 00-.341-2.675 220.62 220.62 0 00-.303-2.29 319.06 319.06 0 01-.486-4.145c-.057-.531-.095-1.072-.19-1.598a4.25 4.25 0 00-.184-.702 2.1 2.1 0 00-.37-.647c-.274-.343-.687-.575-1.122-.575-.093 0-.185.01-.278.032"/><path d="M330.94 245.82c.002.39-.015.803-.135 1.171a4.09 4.09 0 01-.243.604 2.878 2.878 0 01-.225 2.272 3.138 3.138 0 01-.992 1.043l.235.003c.21-.096.42-.2.605-.339.154-.115.303-.234.433-.377.201-.22.312-.443.412-.726.128-.364.159-.755.186-1.14.038-.544-.012-1.07-.082-1.61-.052-.399-.128-.794-.198-1.191l.003.29m-41.165 20.394a18.743 18.743 0 00-.223 1.792 11.523 11.523 0 00-.024 1.58c.021.4.09.796.218 1.172a3.791 3.791 0 00.654 1.149c-.03-.226-.058-.452-.086-.68a7.134 7.134 0 01-.063-1.126c.034-.861.153-1.736.42-2.554a17.175 17.175 0 01.725-1.797 2.776 2.776 0 01-.88-1.38 4.976 4.976 0 00-.741 1.844"/><path d="M328.806 226.48a.874.874 0 01.07.01l-.07-.01zm-.158-2.481c-.06 0-.121.006-.181.01a9.57 9.57 0 00-.464.039c-.477.048-.89.132-1.324.34-.237.114-.454.26-.674.404-.454.297-.922.566-1.405.815-.837.431-1.69.832-2.531 1.253-.815.41-1.65.776-2.484 1.14-2.09.861-4.187 1.711-6.284 2.558a88.788 88.788 0 01-3.156 1.217c-1.04.374-2.09.72-3.13 1.09-1.819.647-3.642 1.291-5.497 1.824-.921.264-1.846.523-2.781.731-.914.203-1.834.365-2.758.503-.39.047-.782.092-1.176.128-.417.039-.836.04-1.254.05-.818.017-1.634.034-2.452.047-1.66.024-3.318.03-4.971-.145-.785-.116-1.566-.262-2.352-.375a60.42 60.42 0 00-1.472-.192 7.792 7.792 0 00-1.12-.059c-.852.025-1.707.047-2.55.179-.93.147-1.857.328-2.784.5-.442.082-.687.612-.575 1.017a.835.835 0 00.379.495c.203.12.409.125.634.084.899-.166 1.796-.343 2.701-.479.442-.048.881-.045 1.326-.035.456.012.914.009 1.367.06l.383.051c.552.092 1.105.183 1.651.302.56.124 1.117.261 1.68.364 1.217.223 2.448.336 3.682.426 1.134.081 2.274.114 3.41.154.53.018 1.06.033 1.591.045.612.013 1.214-.028 1.823-.086a38.79 38.79 0 003.66-.526 48.99 48.99 0 003.385-.819c1.14-.308 2.259-.7 3.377-1.079 1.043-.35 2.08-.717 3.123-1.07.695-.235 1.39-.468 2.077-.722.678-.253 1.353-.518 2.028-.782 1.387-.542 2.77-1.102 4.142-1.683l-.01.005c1.93-.801 3.878-1.56 5.747-2.501.393-.198.782-.4 1.178-.591l.39-.189a6.41 6.41 0 01.185-.217 2.757 2.757 0 011.72-.803c.091-.055.182-.112.272-.17.355-.224.687-.498 1.056-.7a3.46 3.46 0 01.2-.056l.007.013c.156.424.262.87.36 1.308l.04.18c.279.217.51.482.693.793.12.234.266.472.303.73.049.346.102.685.12 1.03.015.294.034.588.06.882.042.5.078 1.001.127 1.501.079.492.166.983.207 1.48.048.604.056 1.21.103 1.813.054.68.134 1.36.146 2.044.022 1.362.009 2.726.003 4.088-.002.563-.007 1.126-.016 1.69.013.82.029 1.643.056 2.464.014.443.045.881.035 1.324-.01.505.354.965.832 1.098.292.08.61.039.872-.116.226-.133.482-.404.52-.68.056-.393.12-.787.14-1.184.016-.301.023-.603.028-.904a185.631 185.631 0 00.044-5.083 42.184 42.184 0 00-.147-3.516c-.113-1.264-.213-2.528-.387-3.784l-.038-.287c.004.04.01.078.015.118l-.026-.196a4.945 4.945 0 00-.002-.01 27.862 27.862 0 00-.263-1.656c-.11-.557-.235-1.11-.36-1.664-.227-1.003-.545-1.984-.788-2.983-.136-.554-.299-1.113-.539-1.63a3.073 3.073 0 00-.313-.55c-.17-.23-.312-.396-.552-.558-.157-.108-.33-.173-.509-.244l-.11-.019a1.686 1.686 0 00-.384-.045l-.06.001zm3.929 9.436l.02.145-.022-.162.002.017"/><path d="M292.235 237.753c-.185.051-.412.192-.492.375-.52 1.17-1.039 2.343-1.57 3.51a43.98 43.98 0 01-.638 1.362c-.246.497-.487.994-.684 1.514-.184.483-.333.98-.49 1.472a18.768 18.768 0 00-.432 1.653 18.55 18.55 0 00-.304 1.77c-.066.564-.114 1.13-.16 1.695-.056.662-.068 1.33-.09 1.994a34.313 34.313 0 00-.001 2.142c.02.679.069 1.358.149 2.033.085.72.197 1.438.297 2.157l-.038-.288c.11.81.242 1.61.388 2.414.072.386.15.772.212 1.161.05.32.095.64.142.96.199 1.587.373 3.177.545 4.766.175 1.64.438 3.269.672 4.902.12 1.022.253 2.048.32 3.076a22.41 22.41 0 01-.102 4.142c-.135.877-.338 1.74-.537 2.603-.166.722-.33 1.445-.517 2.162a1.104 1.104 0 00.77 1.342c.597.163 1.175-.195 1.356-.762.368-1.142.677-2.302.991-3.459.306-1.124.49-2.28.565-3.44l.062-.97c.02-.3-.004-.61-.006-.91-.007-1.067-.16-2.126-.278-3.185a50.245 50.245 0 00-.534-3.432 51.037 51.037 0 01-.345-2.19 118.34 118.34 0 00-.288-2.119c-.055-.423-.11-.848-.168-1.271a2.777 2.777 0 01-.33-.738 1.806 1.806 0 01-.11-.76 2.496 2.496 0 01.015-.547c.016-.125.03-.25.049-.372a32.37 32.37 0 00-.233-1.164 79.434 79.434 0 01-.869-4.597 28.96 28.96 0 01-.169-1.685 29.363 29.363 0 01-.062-2.07c.005-1.297.066-2.586.194-3.878.118-.774.262-1.544.452-2.304.1-.398.23-.79.344-1.184.103-.355.221-.705.352-1.052.363-.811.735-1.62 1.093-2.432.471-1.065.94-2.131 1.412-3.196.093-.21.148-.4.083-.63a.817.817 0 00-.38-.487.842.842 0 00-.636-.083"/><path d="M288.434 238.397c0 .106.044.21.123.284.082.08.18.11.294.118 1.427.108 2.856.201 4.286.27a.406.406 0 00.411-.397c0-.226-.187-.386-.41-.398-1.431-.074-2.86-.171-4.287-.28h-.027c-.214 0-.39.205-.39.403m40.531-11.492c.012.396-.01.792-.013 1.188.274.214.502.474.683.78.12.233.265.47.302.727.05.343.102.68.12 1.023.015.293.034.585.06.877.042.497.078.996.127 1.492.078.49.167.977.206 1.471.049.6.056 1.202.104 1.802.053.677.133 1.353.144 2.033.023 1.353.01 2.71.004 4.063-.002.676-.01 1.352-.022 2.027-.017.923-.05 1.913-.388 2.776l.042.054a2.757 2.757 0 010 2.783c-.375.612-1.043 1.202-1.78 1.327-.169.03-.337.052-.505.077a57.2 57.2 0 00-.877.138c-.594.098-1.189.192-1.783.287-.815.133-1.632.244-2.448.372-.376.092-.752.183-1.128.272-.974.229-1.948.453-2.918.697a52.925 52.925 0 00-6.74 2.167c-.206.09-.413.183-.621.272-.38.22-.784.344-1.217.371l-.822.324c-1.184.466-2.366.94-3.544 1.422a34.22 34.22 0 00-2.277 1.171c-.769.425-1.543.85-2.279 1.33a46.68 46.68 0 01-2.187 1.332 19.93 19.93 0 00-1.608 1.005c-.275.227-.545.46-.815.693l-.083.073c-.192.288-.367.584-.53.892-.092.172-.174.352-.27.521-.47.82-1.232 1.407-2.155 1.533-.27.34-.53.687-.786 1.037-.72.985-1.33 2.04-1.927 3.104-.36.642-.16 1.47.484 1.847.627.367 1.488.157 1.847-.484.32-.57.647-1.134.986-1.692a19.92 19.92 0 011.127-1.63c.498-.627 1.03-1.22 1.592-1.79.268-.27.555-.522.836-.78.392-.36.806-.69 1.222-1.02l1.203-.85c.406-.287.828-.55 1.242-.825.34-.225.686-.442 1.03-.662a13.582 13.582 0 011.632-.897c.245-.115.492-.23.738-.343 1.712-.794 3.416-1.602 5.134-2.386l1.569-.64c.547-.224 1.106-.42 1.658-.63a99.719 99.719 0 013.302-1.178 60.927 60.927 0 013.58-1.097 118.87 118.87 0 013.548-.892c1.117-.268 2.242-.509 3.347-.82 1.149-.322 2.305-.69 3.38-1.212a3.99 3.99 0 00.394-.22 2.07 2.07 0 00.88-1.122 4.05 4.05 0 00.154-.69 9.98 9.98 0 00.111-.976c.027-.591-.035-1.195-.095-1.782-.059-.579-.127-1.157-.173-1.736-.048-.613-.086-1.225-.14-1.837-.085-.97-.224-1.942-.227-2.918-.003-1.015.04-2.031.048-3.046.003-.528.006-1.056.005-1.584-.001-.514.004-1.032-.035-1.544-.077-1.034-.26-2.05-.407-3.075-.1-.816-.2-1.63-.274-2.448-.08-.921-.144-1.84-.288-2.755-.051-.326-.42-.553-.727-.553-.4 0-.766.343-.752.754"/><path d="M331.255 249.836c-.172.005-.345 0-.515.013-.24.019-.48.048-.719.082-.309.045-.611.111-.917.177-.33.071-.664.127-.992.204-.315.073-.631.15-.943.24a91.745 91.745 0 00-4.204 1.311c-1.38.466-2.76.931-4.144 1.388-.64.212-1.285.413-1.919.638-.723.259-1.445.516-2.166.78-.67.243-1.347.467-2.014.717-.782.293-1.547.625-2.311.963-.615.27-1.218.569-1.817.875-.654.336-1.312.666-1.964 1.007-.631.33-1.244.69-1.858 1.054-.33.196-.657.393-.98.6-.322.208-.637.424-.953.64-.606.417-1.194.866-1.788 1.3-.292.212-.577.436-.866.654-.27.205-.542.409-.806.622l-.956.77c-.296.237-.576.499-.864.748-.108.093-.208.2-.312.3l-.512.494c-.268.26-.518.544-.775.816-.23.243-.447.5-.667.755-.216.25-.431.5-.639.756-.253.312-.518.619-.75.947a32.599 32.599 0 00-1.07 1.596c.088-.324.18-.65.302-.963a8.13 8.13 0 01.605-.955c.214-.302.435-.6.662-.893.243-.304.49-.609.76-.893.181-.194.361-.392.547-.584l.28-.275.134-.133c.254-.242.509-.487.776-.718.33-.285.664-.565 1.003-.842a61.705 61.705 0 011.407-1.047c.205-.15.426-.28.608-.456a.475.475 0 00.075-.575c-.115-.196-.324-.256-.538-.218-.354.063-.696.23-1.006.405a8.882 8.882 0 00-.89.596c-.562.413-1.1.858-1.625 1.317-.27.236-.547.465-.81.708l-.974.905c-.119.11-.237.221-.355.333l-.143.123a8.949 8.949 0 00-.577.552 5.13 5.13 0 00-.248.278c-.03.037-.06.077-.09.116a15.39 15.39 0 00-.141.156c-.181.155-.17.45-.028.623a61.12 61.12 0 00-.324.369c-.171.196-.205.475-.04.68a2.972 2.972 0 00-.118.254 14.09 14.09 0 00-.432 1.245 9.973 9.973 0 00-.299 1.197c-.033.19-.06.384-.094.575l-.063.362c-.02.12-.038.238-.055.358a1.171 1.171 0 00-.017.187c.011.096.025.19.04.285a.605.605 0 00.574.436c.128.001.265-.007.375-.082.064-.04.125-.087.184-.135.054-.057.104-.117.148-.18.104-.139.183-.291.269-.442l.37-.655c.177-.316.358-.632.55-.941.245-.392.49-.779.75-1.161.209-.307.428-.607.648-.907.387-.47.774-.936 1.174-1.392.193-.218.379-.443.581-.653l.834-.865c.23-.24.484-.46.725-.689.218-.206.451-.397.681-.593.466-.395.947-.771 1.426-1.15 1.166-.871 2.334-1.741 3.542-2.554a25.007 25.007 0 011.724-1.046c.343-.193.687-.386 1.032-.576.277-.152.563-.289.845-.43.33-.162.658-.325.985-.489.383-.19.762-.392 1.151-.573l1.138-.528c.313-.145.637-.27.956-.403l-.098.041c.315-.125.629-.26.95-.371a64.94 64.94 0 011.05-.36c.71-.231 1.413-.48 2.116-.726 1.424-.499 2.863-.946 4.301-1.4 2.699-.848 5.369-1.807 8.126-2.452.517-.121 1.04-.214 1.558-.33.255-.057.51-.111.767-.157l.393-.066c.166-.028.318-.097.472-.16a.78.78 0 00.574-.751c0-.412-.348-.779-.766-.779h-.016"/><path d="M331.606 249.926a5.774 5.774 0 00-.097.368c-.033.141-.057.287-.102.425l-.014.024a1.956 1.956 0 01-.21.2 2.453 2.453 0 01-.359.191c-.383.15-.783.234-1.189.304-.527.09-1.057.17-1.587.252-.105.017-.207.11-.258.197a.425.425 0 00.154.586c.11.063.215.062.334.043l1.287-.202c.354-.056.712-.116 1.06-.2.173-.042.34-.095.506-.156.203-.076.41-.16.593-.276.1-.063.2-.136.292-.211.158-.13.283-.275.358-.467.057-.143.08-.295.106-.445a5.19 5.19 0 01.08-.374.495.495 0 00-.475-.618.502.502 0 00-.479.359m-2.558-24.02c-.356.099-.594.492-.483.853.266.872.51 1.75.756 2.627.069.245.108.5.157.75.068.337.137.674.204 1.012l.151 1.156c.05.38.068.764.1 1.144.029.347.04.702.046 1.05.007.408.016.815.018 1.224.004.84.001 1.683-.003 2.525a53.749 53.749 0 01-.088 2.502c-.034.677-.11 1.352-.153 2.028a75.41 75.41 0 00-.092 2.058 99.016 99.016 0 01-.094 2.036c-.04.728-.147 1.451-.183 2.18-.02.428.373.785.784.785a.786.786 0 00.555-.23l.122-.158a.788.788 0 00.107-.397c.104-.813.187-1.63.232-2.447.046-.823.069-1.646.09-2.47.02-.797.06-1.593.114-2.389.057-.834.081-1.666.103-2.5.02-.78-.007-1.565-.02-2.346-.015-.817-.037-1.633-.066-2.45a23.292 23.292 0 00-.204-2.37l-.105-.768c-.024-.174-.037-.353-.073-.525l-.286-1.408c-.076-.371-.185-.733-.288-1.099a92.2 92.2 0 00-.551-1.889.709.709 0 00-.67-.508.68.68 0 00-.18.024"/><path d="M288.132 299.623c-15.557 5.362-25.604 6.318-41.684 5.528-.396-.02-.658 1.09-.268 1.159l12.55 4.463c4.257.757 8.7.747 12.97.073 4.562-.72 9.12-2.043 13.202-4.205 1.628-.863 2.145-2.996 3.218-4.494" opacity=".2"/></g></svg>