<?xml version="1.0" encoding="UTF-8"?>
<svg width="500px" height="600px" viewBox="0 0 500 600" version="1.1" xmlns="http://www.w3.org/2000/svg" xmlns:xlink="http://www.w3.org/1999/xlink">
    <!-- Generator: Sketch 63.1 (92452) - https://sketch.com -->
    <title>holdingmobile</title>
    <desc>Created with Sketch.</desc>
    <g id="holdingmobile" stroke="none" stroke-width="1" fill="none" fill-rule="evenodd">
        <g id="Group-2" transform="translate(174.060567, 184.913270)">
            <g id="Group" transform="translate(12.939433, 0.000000)">
                <path d="M61.1653521,88.5001296 C59.8558424,82.6770164 58.4673916,76.9039918 57,71.1810556 L83.1546959,65.586149 L80.8144844,108.119277 L65.5947167,109.399944 C63.9513168,101.289847 62.4748619,94.3232427 61.1653521,88.5001296 Z" id="Path" stroke="#161616" stroke-width="2" fill="#D8D8D8"></path>
                <path d="M33,55.0867298 C31,51.3098454 30,58.9765121 30,78.0867298 C30,89.8886348 35.2372136,104.50382 36,123.08673 C36.3149029,130.758357 35.3149029,143.758357 33,162.08673" id="Path-2" stroke="#000000" stroke-width="4"></path>
                <path d="M94,57.0867298 C98,58.2117984 100,67.2117984 100,84.0867298 C100,94.841783 95.3540037,104.272454 94,121.08673 C93.48636,127.465208 93.48636,139.465208 94,157.08673" id="Path-13" stroke="#000000" stroke-width="3"></path>
                <path d="M111,85.0867298 C111,113.08673 111,129.08673 111,133.08673 C111,137.08673 106,151.420063 96,176.08673 C91.6175887,171.356257 89.6886525,168.340306 90.2131915,167.038876 C91,165.08673 95.6592528,157.973264 95,156.08673 C94.3407472,154.200195 93.61477,137.363514 93.61477,133.975122 C93.61477,130.58673 96,108.330526 96,107.08673 C96,106.257532 97.3333333,99.7263044 100,87.4930464 L111,85.0867298 Z" id="Path-14" stroke="#000000" stroke-width="3"></path>
                <path d="M10,351.08673 C14,356.08673 40,360.08673 40,351.08673 C40,342.08673 61,216.08673 66,212.08673 C71,208.08673 63,343.08673 69,347.08673 C75,351.08673 97,354.08673 97,347.08673 C97,342.420063 97,285.08673 97,175.08673 C91.6666667,171.08673 89.6666667,167.753396 91,165.08673 C92.3333333,162.420063 93.6666667,159.420063 95,156.08673 C82.9667285,161.608037 73.3000619,164.608037 66,165.08673 C61.0094565,165.413979 52.1373117,166.76475 44,165.08673 C41.4894825,164.569028 38.1561491,162.902362 34,160.08673 C36.5132156,162.469073 37.5132156,165.13574 37,168.08673 C36.4867844,171.03772 33.4867844,176.03772 28,183.08673 C27.5428062,201.102251 26.8761395,213.435584 26,220.08673 C14.4132776,308.046442 7.60498488,348.092961 10,351.08673 Z" id="Path-15" stroke="#000000" stroke-width="3" fill="#000000"></path>
                <path d="M14,355.08673 C11.6566164,357.857865 9.96911637,360.524532 8.9375,363.08673 C7.00754039,367.880119 5.17894997,372.942066 5,377.08673 C4.60581235,386.216518 8.86604562,392.619886 14,394.08673 C19.4428135,395.641819 28.1441982,394.507143 32,386.08673 C33.8374165,382.074126 34.8374165,372.740792 35,358.08673 L29,358.08673 C28.4188922,364.711269 27.4188922,369.377936 26,372.08673 C24.9245373,374.139886 21.5132632,379.949217 18,379.08673 C14.5605231,378.242357 13.0065058,370.765279 13,369.08673 C12.9780627,363.426736 17.9123904,357.377584 18,357.08673 C18.2386864,356.294317 16.905353,355.62765 14,355.08673 Z" id="Path-16" stroke="#000000" stroke-width="3" fill="#000000"></path>
                <path d="M69,349.08673 C65,359.08673 63.6666667,365.08673 65,367.08673 C67,370.08673 120,387.08673 126,372.08673 C130,362.08673 119.75,354.420063 95.25,349.08673 L92,352.08673 C103.333333,356.08673 109,359.937088 109,363.637804 C109,365.022297 104.674635,369.310075 98,369.08673 C85.7669107,368.677389 68.353011,362.380708 69,361.08673 C69.6666667,359.753396 71,355.753396 73,349.08673 L69,349.08673 Z" id="Path-17" stroke="#000000" stroke-width="3" fill="#000000"></path>
                <path d="M71.2248801,7.09569564 C71.3687476,10.6475985 71.0996819,14.2404663 71.6564826,17.7514042 C71.8380542,18.8963138 75.8223677,23.5125672 81.125927,24.2904392 C86.3682741,25.0593333 92.919324,21.9980368 95,21.7346775 C99.8745532,21.1176861 102.800552,26.6765949 106,31.0867298 C107.840944,33.6242959 126,81.0867298 124,81.0867298 L100,87.0867298" id="Path-4" stroke="#161616" stroke-width="3"></path>
                <path d="M90.0041274,24.8345582 C89.0451975,25.9057792 81.2409838,36.3604405 80.276478,37.2133377 C64.7482403,50.9447119 48.6623477,37.2256634 37.3307043,23.2431449" id="Path-5" stroke="#161616" stroke-width="3"></path>
                <path d="M46.3013379,0 C45.5999401,10.7741299 42.2629485,18.6827061 35,25.0867298 C33.2857627,26.5982394 31,25.0867298 28,26.0867298 C24.5698656,27.2301079 18.5545468,30.5319027 16,41.5433649 C12.5280007,56.5095379 3.70757363,73.4001413 0,76.0867298 C9.07238148,80.9469341 15.8766676,84.5920874 20.4128583,87.0221896 C22.0988898,87.9254208 25.8951404,89.675535 31.8016101,92.2725323" id="Path-3" stroke="#161616" stroke-width="3"></path>
            </g>
            <path d="M44.9673821,154.835541 C42.6698948,164.69258 41.200094,171.255122 40.55798,174.523165 C39.9158659,177.791209 39.5400834,180.621776 39.4306324,183.014866 L50.0514534,171.75165 L50.0514534,164.585906 L44.9673821,154.835541 Z" id="Path-142" fill="#000000"></path>
            <path d="M14.9394329,78.0867298 C6.93943287,102.08673 2.93943287,116.08673 2.93943287,120.08673 C2.93943287,126.08673 -10.2781533,154.899577 19.3432348,146.986225 C40.232518,141.405654 72.7413371,115.459301 88.4338908,99.5229065 C90.7821334,97.1381754 95.1872575,91.7913349 96.0941288,89.9850614 C97.7205873,86.74554 95.3205381,80.9378377 96.0941288,80.2514682 C98.8190577,77.8337709 91.4892764,82.8564244 74.104785,95.3194288 C73.0757766,85.2293909 71.6873259,81.8184912 69.9394329,85.0867298 C68.2332769,88.2769277 65.7287744,95.6683432 62.4259254,107.260976 L62.4259105,107.260972 C62.2701517,107.807668 61.8891123,108.262255 61.378028,108.511113 C35.4338415,121.143927 22.4617483,126.470508 22.4617483,124.490855 C22.4617483,122.490855 26.9543098,110.68948 35.9394329,89.0867298 L14.9394329,78.0867298 Z" id="Path-12" stroke="#000000" stroke-width="3" fill="#FFFFFF"></path>
            <circle id="Oval" fill="#000000" cx="83.9394329" cy="76.0867298" r="3"></circle>
        </g>
    </g>
</svg>