<svg width="500" height="600" xmlns="http://www.w3.org/2000/svg" xmlns:xlink="http://www.w3.org/1999/xlink"><defs><path id="a" d="M.173.195h.31v1.816h-.31z"/></defs><g fill="none" fill-rule="evenodd"><path d="M240.56 186.021c-.355-.009-.635.134-.965.26l-1.041.5a23.116 23.116 0 0 0-2.521 1.593c-1.094.788-2.079 1.624-2.906 2.566-.21.239-.38.498-.46.775-.092.327-.13.673-.203 1.003-.114.506-.201 1.015-.29 1.524-.093.53-.188 1.061-.262 1.593-.084.603-.22 1.215-.253 1.82l-.058 1.096-.354 1.45a82.38 82.38 0 0 0-.466 2.039c-.32.177-.63.363-.93.558a25.793 25.793 0 0 0-2.57 1.85l-1 .887c-.46.404-.812.849-1.058 1.337-.255 2.457.187 4.907 1.019 7.288.284.817.942 1.52 1.586 2.21.412.44.836.877 1.307 1.286a8.7 8.7 0 0 0 1.492 1.024c.273.15.566.284.86.415.373.168.7.243 1.159.207.39-.03.769-.21 1.106-.355l.076-.034c.088.363.185.723.306 1.085l.432.034a6.68 6.68 0 0 0 1.728-.71l.046-.023.87-.508a41.89 41.89 0 0 1-.074 1.504 3.4 3.4 0 0 0-.53.763l-.116.631a1.78 1.78 0 0 1-.071.254c-.048.143-.046.414.076.53l.413.031c.605-.103 1.27-.455 1.743-.701.453-.236.891-.488 1.303-.76 1.33-.88 2.547-1.79 3.66-2.819.545-.505 1.107-1.152 1.277-1.793.048-.18.016-.384.007-.568-.021-.49-.068-.978-.078-1.469a139.726 139.726 0 0 1-.031-3.311c.005-2.23.063-4.455.345-6.678.274-2.16.724-4.304 1.243-6.44.293-1.204.584-2.405.831-3.615.277-1.364.56-2.742.632-4.12.014-.24.059-.576-.2-.749a1.549 1.549 0 0 0-1.155.2 14.93 14.93 0 0 0-1.359.678c.129-.59.262-1.18.403-1.77.066-.204-.042-.282-.327-.234l-.507.161a9.945 9.945 0 0 0-1.452.78c-.579.366-1.122.757-1.631 1.174l-.635.563a2.81 2.81 0 0 0-.671.848c-.285 1.157-.55 2.317-.815 3.477l.053-.843.079-.33c.227-.948.457-1.896.677-2.846l.46-1.977c.076-.328.143-.657.214-.986a9.32 9.32 0 0 0 .155-.973c.036-.34-.023-.677-.06-1.016.083-.258-.013-.387-.287-.387a1.35 1.35 0 0 0-.221.021" fill="#BEBEBE" opacity=".7"/><path d="M258.225 192.009c.144 3.552-.125 7.145.431 10.656.537 3.385 1.352 6.792 2.827 9.887C262.425 214.528 266 218 269 218c5 0 8.814-10.822 13-11.352 4.875-.617 7.8 4.942 11 9.352 1.84 2.538 20 43 18 43l-20 8" stroke="#161616" stroke-width="3"/><path d="M272 217c-.959 1.071-3.759 4.274-4.724 5.127-15.528 13.731-31.614.012-42.945-13.97" stroke="#161616" stroke-width="3"/><g fill="#BEBEBE"><path d="M131.843 234.372a5.118 5.118 0 0 0-.779.582 9.53 9.53 0 0 0-.874.878 5.217 5.217 0 0 0-.58.782c-.098.21-.19.403-.234.632a13.07 13.07 0 0 0-.104.649c-.025.184-.044.368-.067.552-.042.352-.054.71-.062 1.063-.018.749.038 1.487.129 2.23.162 1.3.56 2.575.954 3.82.401 1.266.747 2.57 1.294 3.783.272.602.53 1.209.831 1.797.314.618.655 1.223.925 1.86.27.64.483 1.305.694 1.966.194.609.383 1.22.546 1.839.167.636.345 1.272.456 1.922.121.7.245 1.401.356 2.103.208 1.307.615 2.545 1.36 3.648.374.553.788 1.08 1.227 1.583.455.52.97.987 1.44 1.495.895.972 1.83 1.907 2.723 2.882.937 1.024 1.847 2.074 2.784 3.1.916 1.003 1.833 1.994 2.824 2.925 1.06.998 2.152 1.963 3.205 2.973 1.057 1.015 1.997 2.153 2.947 3.268a958.826 958.826 0 0 1 2.751 3.242 92.494 92.494 0 0 0 2.765 3.092 214.613 214.613 0 0 1 2.862 3.18c.923 1.038 1.862 2.078 2.704 3.186.875 1.153 1.7 2.342 2.535 3.525 1.634 2.318 3.327 4.593 5.01 6.875.586.795 1.17 1.591 1.749 2.39.547.756 1.047 1.539 1.564 2.313.496.742.968 1.51 1.505 2.223.528.701 1.08 1.385 1.625 2.073.32.09.615.018.886-.214l.74-.495a16.7 16.7 0 0 0 1.793-1.58 16.942 16.942 0 0 0 1.574-1.802l.492-.743c.233-.272.303-.569.214-.89-.064-.354-.19-.71-.299-1.054-.113-.355-.243-.706-.361-1.059-.205-.614-.478-1.206-.751-1.792-.58-1.238-1.21-2.473-1.925-3.638-1.49-2.43-3.147-4.755-4.778-7.092-.87-1.247-1.748-2.489-2.618-3.734-.785-1.122-1.58-2.248-2.48-3.279-.901-1.032-1.85-2.024-2.794-3.017-1.016-1.07-2.021-2.152-3.07-3.19-.474-.468-.968-.913-1.436-1.387-.522-.53-1.042-1.063-1.57-1.587a124.367 124.367 0 0 1-3.1-3.223 28.928 28.928 0 0 0-3.053-2.858c-1.075-.858-2.172-1.7-3.207-2.605-2.071-1.814-3.902-3.881-5.98-5.688-1.02-.887-2.081-1.725-3.122-2.587-1.046-.864-2.037-1.778-2.822-2.89-.74-1.046-1.026-2.261-1.322-3.487-.15-.622-.283-1.245-.48-1.853a53.84 53.84 0 0 0-.6-1.754 16.353 16.353 0 0 0-.8-1.872c-.297-.582-.656-1.08-1.058-1.591-.802-1.018-1.562-2.098-2.174-3.243-.21-.392-.412-.79-.604-1.193-.004-.21-.042-.422-.067-.636-.054-.45-.12-.905-.212-1.35l-.254-1.236c-.124-.608-.267-1.21-.406-1.815-.167-.731-.34-1.462-.52-2.19-.072-.282-.146-.562-.22-.844a17.43 17.43 0 0 1-.116-.467c-.032-.14-.02-.559-.134-.601a.477.477 0 0 0-.127-.018.46.46 0 0 0-.304.123" opacity=".7"/><path d="M185.574 289.078c.289-.77.59-1.535.901-2.296a511.36 511.36 0 0 1-.953 2.434l.052-.138m13.324-29.588c-.472.17-.901.417-1.29.738a16.695 16.695 0 0 0-1.779 1.566c-.746.75-1.531 1.587-2.048 2.523-.375.68-.682 1.4-1.009 2.105-.278.598-.57 1.19-.854 1.786-.629 1.317-1.204 2.66-1.782 4.001-.557 1.224-1.093 2.456-1.672 3.669a120.056 120.056 0 0 1-1.932 3.855c-.639 1.217-1.323 2.414-1.903 3.661-.718 1.54-1.39 3.098-2.05 4.665a141.73 141.73 0 0 0-2.537 6.46c-.402 1.105-.773 2.22-1.147 3.337-.19.567-.387 1.13-.562 1.7-.474 1.531-1.038 3.07-.914 4.7-.066.281.04.39.321.323l.501-.222c.512-.313.989-.67 1.433-1.073.088-.077.174-.155.26-.234-.251.649-.496 1.3-.732 1.953-.347.96-.708 1.915-1.03 2.883-.16.484-.315.969-.481 1.45-.077.223-.158.443-.236.665-.108.3-.378.861-.136 1.127.342.096.659.019.949-.23a11.382 11.382 0 0 0 1.715-1.284c.977-.852 1.914-1.814 2.68-2.865.475-.654.883-1.3 1.121-2.075a21 21 0 0 1 .115-.37c.108-.33.217-.66.314-.994.19-.656.39-1.307.6-1.957.422-1.304.858-2.605 1.33-3.893.957-2.619 2.01-5.205 3.04-7.796a609.113 609.113 0 0 0 3.335-8.585c.462-1.217.935-2.432 1.354-3.665a234.27 234.27 0 0 0 1.535-4.7c.657-2.077 1.203-4.193 1.791-6.29.621-2.213 1.402-4.374 2.057-6.575.059-.253-.008-.38-.2-.38a.688.688 0 0 0-.157.02" opacity=".7"/><path d="M230.078 201.33l.024.03-.205-.265.181.235"/></g><path d="M197.656 203.924c.355.924.711 1.844 1.052 2.773.08.214.158.428.237.643a16.925 16.925 0 0 0-.748-2.57 6.763 6.763 0 0 0-.426-.814 4.785 4.785 0 0 0-.173-.182c.019.05.04.1.058.15m-9.321-10.39l.09.14c.183-.011.369-.005.556.015a36.71 36.71 0 0 1-.485-.247c-.118-.061-.239-.121-.352-.19.064.094.13.188.191.282" fill="#161616"/><g transform="translate(348.244 262.784)"><mask id="b" fill="#fff"><use xlink:href="#a"/></mask><path d="M.386.218L.36.224.222.923C.207 1.285.19 1.648.173 2.01c.016-.088.03-.177.045-.266C.305 1.228.393.712.483.195L.386.218" fill="#161616" mask="url(#b)"/></g><path d="M272.514 306.553c-.163.844-.326 1.69-.491 2.534l-.37 1.886-.007.041.082-.021.975-4.492-.19.052m-56.706-31.4l.05.125.254-.276-.304.151m78.685-69.742c-.312.239-.622.469-.941.686.31-.127.622-.25.936-.369.058-.16.122-.316.192-.47a3.93 3.93 0 0 1-.187.153m-20.855 140.011l-.807 4.045 1.712-.012.879-.009 1.308-4.066c-1.03.018-2.062.032-3.092.042M197.66 203.924l.138.341.105-.114a5.77 5.77 0 0 0-.123-.195 4.907 4.907 0 0 0-.182-.182l.061.15M280.3 435.057c-.274 1.045-.538 2.09-.799 3.137l-.486 3.232.06 1.487c.039.896.064 1.793.088 2.689l.009.327c.093-.383.19-.765.293-1.147l.974-3.642c.011-.7.025-1.398.048-2.098l.166-4.976.015-.425-.368 1.416" fill="#161616"/><path d="M197.656 203.924l.54 1.405.06.084-.017.031c.159.417.316.834.47 1.253l.236.643a16.925 16.925 0 0 0-.748-2.57 6.763 6.763 0 0 0-.426-.814 4.785 4.785 0 0 0-.173-.182c.019.05.04.1.058.15m15.211.336a.88.88 0 0 0 .016-.019l-.016.02m-11.07 6.769l-.035.092.644.62.156.013a5.451 5.451 0 0 1-.298-.313 5.243 5.243 0 0 1-.414-.642 8.853 8.853 0 0 1-.053.23" fill="#161616"/><g fill="#161616"><path d="M131.271 248.9l-.065.052.065-.052m.202-.236c-.035.058-.077.11-.12.159l.12-.159m-7.322-28.227c.014.092.025.185.037.276l-.037-.276m-4.82-3.072a16.909 16.909 0 0 0-.843 2.374c-.253.93-.326 1.917-.395 2.875-.073 1.038-.134 2.102-.058 3.14.089 1.197.34 2.366.582 3.538.198.971.393 1.947.654 2.902.1.361.252.705.38 1.057.06.16.103.327.156.492.055.169.127.329.202.487a1.469 1.469 0 0 0 1.04 1.206 1.432 1.432 0 0 0 1.614-.667c.125-.215.229-.452.29-.696.098-.383.053-.76-.026-1.14a9.01 9.01 0 0 0-.166-.686c-.168-.587-.335-1.165-.45-1.767-.27-1.427-.611-2.843-.834-4.279a20.676 20.676 0 0 1-.1-2.426c.01-.922.033-1.841.123-2.758a14.41 14.41 0 0 1 .618-2.546c.089-.188.183-.37.295-.545.036-.014.062-.02.088-.027.056 0 .115 0 .171.003.098.023.192.05.287.083.17.148.324.301.467.467.14.214.26.437.37.67.074.2.144.4.208.605.063.194.101.392.13.594.19 1.655-.13 3.301-.098 4.963.036 1.733.304 3.492.79 5.156.258.882.671 1.713 1.083 2.53.402.79.87 1.522 1.444 2.196.427.503.87 1 1.362 1.438.354.316.737.608 1.065.95.39.405 4.872 6.007 5.22 6.446 1.218.88.998-1.336 1-1.52.003-.553-.077-1.11-.16-1.656-.14-.909-.509-1.788-.898-2.613a10.549 10.549 0 0 0-.986-1.683 17.48 17.48 0 0 0-1.243-1.562c-.322-.351-.677-.654-1.024-.978-.572-.537-1.135-1.09-1.633-1.701-.268-.391-.506-.8-.734-1.218a21.92 21.92 0 0 1-.685-1.346c-.453-1.217-.75-2.48-.943-3.763a28 28 0 0 1-.148-2.508c-.008-.813-.023-1.62-.121-2.427-.223-1.827-.843-3.75-2.273-4.97a7.354 7.354 0 0 0-.587-.447c-.293-.205-.64-.335-.977-.44a3.671 3.671 0 0 0-1.09-.168 3.46 3.46 0 0 0-.981.141c-1.052.315-1.75 1.249-2.186 2.224z"/><path d="M114.586 235.491c1.165-.034 2.343-.086 3.505.017.959.145 1.89.381 2.816.662.22.067.449.05.655-.025.03.095.054.19.074.286.005.099.005.196 0 .294-.022.092-.047.18-.077.269-.049.051-.099.1-.15.148-.09.053-.183.1-.278.144-.563.204-1.142.348-1.734.463-.669.129-1.34.242-2.015.337-.535.06-1.072.112-1.61.138-.709.034-1.41.006-2.12-.016-1.246-.04-2.502-.057-3.742-.191a69.619 69.619 0 0 1-1.22-.197 6.501 6.501 0 0 1-1.05-.28 3.073 3.073 0 0 1-.28-.153 4.02 4.02 0 0 1 .062-.227l.053-.047c.52-.35 1.081-.659 1.658-.913.733-.262 1.516-.417 2.288-.53 1.05-.117 2.107-.147 3.165-.179m-5.762-2.17c-.741.158-1.445.426-2.123.749-.25.119-.5.237-.744.37a5.52 5.52 0 0 0-.378.224c-.148.095-.294.215-.438.322-.225.166-.38.4-.548.613-.137.171-.247.467-.32.648-.026.067-.054.133-.076.202a4.265 4.265 0 0 0-.196 1.166c-.006.228.051.462.103.685.118.507.49.99.886 1.333.898.783 2.155 1.035 3.33 1.16.704.073 1.406.14 2.113.173.694.031 1.391.032 2.086.034 1.374 0 2.742-.003 4.107-.166a26.32 26.32 0 0 0 4.1-.817c.316-.09.625-.198.931-.317a9.92 9.92 0 0 0 .816-.345c.443-.218.766-.577 1.052-.95.294-.386.435-.857.468-1.328a4.236 4.236 0 0 0-.078-1.032c-.05-.291-.185-.567-.311-.834-.096-.2-.278-.386-.454-.529-.256-.207-.548-.313-.864-.42a.952.952 0 0 0-.635.022 1.252 1.252 0 0 0-.173-.067 41.286 41.286 0 0 0-2.232-.604 15.97 15.97 0 0 0-2.279-.358c-1.39-.134-2.796-.168-4.19-.236a16.356 16.356 0 0 0-.799-.019c-1.059 0-2.126.102-3.154.322"/><path d="M106.235 242.854l.033.042a.836.836 0 0 1-.033-.042zm-.082-.227l.007.058a1.423 1.423 0 0 1-.007-.058zm.087-.311a2.728 2.728 0 0 1-.022.05l.022-.05zm1.837-.71l-.073.01.073-.01zm13.434-.068zm-.626-1.791a1.48 1.48 0 0 0-.156 1.162c.076.267.249.56.482.754a6.862 6.862 0 0 1-.193.167c-.513.339-1.064.616-1.627.865-.545.2-1.109.34-1.677.464a39.62 39.62 0 0 1-2.152.41c-2.177.226-4.39.343-6.572.106-.742-.121-1.485-.252-2.192-.508a4.427 4.427 0 0 1-.47-.267 2.26 2.26 0 0 1-.15-.136 2.384 2.384 0 0 1 0-.274l.006-.022c.03-.05.062-.096.095-.142.097-.105.2-.202.31-.292a2.99 2.99 0 0 1 .316-.18 5.889 5.889 0 0 1 1.02-.226c.565-.049 1.117-.078 1.683-.019.205.03.408.063.61.102.355.068.717-.094.818-.452.09-.322-.11-.725-.464-.796-.697-.137-1.404-.233-2.116-.209-.337.013-.672.026-1.008.048a5.15 5.15 0 0 0-1.221.22c-.427.136-.8.38-1.143.657-.363.29-.69.65-.878 1.07-.182.408-.252.792-.176 1.235.027.157.067.29.13.436.048.16.124.306.228.437.11.142.222.28.34.415.549.648 1.349 1 2.122 1.317.543.224 1.1.437 1.678.551.71.142 1.437.21 2.158.27a25.78 25.78 0 0 0 3.842.034 29.112 29.112 0 0 0 1.73-.146 38.774 38.774 0 0 0 1.845-.281c.449-.079.9-.164 1.34-.28.514-.132.992-.32 1.481-.524a9.78 9.78 0 0 0 2.47-1.492c.465-.389.927-.84 1.264-1.34.245-.365.304-.79.34-1.212.016-.188-.062-.52-.128-.725a2.85 2.85 0 0 0-.301-.63c-.238-.366-.526-.594-.88-.848-.16-.114-.455-.22-.612-.274a7.448 7.448 0 0 0-.444-.138 1.583 1.583 0 0 0-1.748.693z"/><path d="M106.613 249.329l.047.038a2.122 2.122 0 0 1-.047-.038zm-.077-.686l-.069.17c.02-.059.042-.115.069-.17zm.036-.091v.002a11.737 11.737 0 0 1 0-.002zm.06-.081l-.059.08v-.001l.058-.079zm.647-.56l-.087.038a1.16 1.16 0 0 1 .087-.038zm13.475-.86a2.486 2.486 0 0 1 0 .003v-.004zm.002-.113zm-.018-.014l.006.005-.006-.005zm-.053-.044l.047.04-.047-.04zm-.017-.013l.006.004v.001l-.004-.003-.002-.002zm-.02-.016l.002.001.011.01-.013-.011zm-.52-2.084c-.196.352-.25.78-.145 1.174.049.123.098.243.145.365.112.197.257.36.435.488l.129.135.03.102a5.36 5.36 0 0 1-.115.423c-.033.061-.066.12-.101.179l-.006.006a5.742 5.742 0 0 1-.801.472c-.72.29-1.482.48-2.223.694a19.88 19.88 0 0 1-2.597.548l-1.339.184c-.517.07-1.039.15-1.56.185-1.328.09-2.676.098-4.003-.055a6.884 6.884 0 0 1-1.305-.356 3.83 3.83 0 0 1-.165-.092 3.442 3.442 0 0 1-.057-.105c0-.02 0-.04.002-.06a5.23 5.23 0 0 1 .11-.462c.019-.036.04-.071.061-.106.106-.133.224-.256.348-.372.12-.082.24-.157.37-.225a.766.766 0 0 1 .068-.021c.632-.029 1.267.073 1.894.15.228.028.495-.12.649-.282a.989.989 0 0 0 .268-.681.986.986 0 0 0-.268-.68c-.186-.198-.394-.252-.649-.283-.847-.102-1.777-.306-2.61-.042a3.427 3.427 0 0 0-1.069.576 9.81 9.81 0 0 0-.438.364c-.226.2-.399.434-.575.683-.187.264-.326.603-.442.902-.09.237-.162.46-.168.723-.007.276.035.538.08.81.043.247.166.473.26.703l.082.153c.102.143.207.284.31.426.282.247.565.464.883.652.816.48 1.73.642 2.646.76.498.063.999.1 1.5.14.63.05 1.275.064 1.908.056a18.903 18.903 0 0 0 1.968-.151c.653-.076 1.306-.15 1.957-.241.755-.105 1.49-.252 2.23-.447.595-.157 1.182-.361 1.77-.548.657-.21 1.301-.469 1.917-.789a5.6 5.6 0 0 0 .686-.422c.171-.124.375-.269.52-.413.196-.196.35-.408.514-.638.265-.37.416-.8.575-1.229.052-.138.081-.285.113-.428.12-.527.112-1.087-.074-1.596-.193-.526-.443-1.026-.871-1.38l-.315-.256a4.526 4.526 0 0 0-.545-.257 8.671 8.671 0 0 0-.347-.137 1.112 1.112 0 0 0-.382-.066c-.503 0-1.008.32-1.258.767z"/><path d="M107.223 254.417l.03.036a.364.364 0 0 1-.03-.036m11.888-2.374l.008.057-.008-.057m.488-1.862c-.603.359-.816 1.126-.531 1.754a4.468 4.468 0 0 1-.033.43 7.38 7.38 0 0 1-.158.803c-.034.034-.07.067-.105.1-.26.177-.536.321-.82.453-.525.213-1.06.4-1.592.59-.62.222-1.24.39-1.882.515-.401.053-.806.105-1.205.124-.263.011-.525.03-.788.025a22.517 22.517 0 0 1-.92-.036c-.484-.027-.965-.072-1.448-.105a38.928 38.928 0 0 1-1.855-.162 5.61 5.61 0 0 1-.866-.206 3.269 3.269 0 0 1-.19-.114 3.109 3.109 0 0 1 .005-.416 2.44 2.44 0 0 1 .048-.188l.022-.034c.027-.03.055-.057.085-.085.16-.11.323-.205.498-.294.39-.16.78-.288 1.197-.369a5.86 5.86 0 0 1 .65-.014c.398.013.73-.347.73-.742a.746.746 0 0 0-.73-.742c-.708-.024-1.4.09-2.08.281-.36.1-.728.198-1.064.368-.356.181-.675.411-.906.748-.128.185-.224.386-.323.59a3.54 3.54 0 0 0-.273.78 3.266 3.266 0 0 0-.065.605c-.008.29.122.554.237.81.085.19.256.354.387.513l.007.008c.202.066.4.148.592.247 1.019.374 2.06.692 3.103.984.46.13.922.267 1.386.403.523.074 1.047.152 1.575.182.546.032 1.082 0 1.627-.047.596-.05 1.192-.133 1.78-.245a8.818 8.818 0 0 0 1.378-.414c.994-.368 2.028-.714 2.932-1.28.285-.18.553-.401.813-.614.221-.179.388-.379.557-.613.228-.32.36-.713.452-1.095.101-.418.15-.873.172-1.3.014-.293-.048-.592-.103-.877l-.066-.16a1.494 1.494 0 0 0-.22-.466 3.236 3.236 0 0 0-.392-.483 1.327 1.327 0 0 0-.95-.393c-.23 0-.463.06-.668.18"/><path d="M106.523 254.523c.014.033.028.065.04.098a1.145 1.145 0 0 1-.04-.098m-.097-2.3c-.52.455-1.04.906-1.294 1.599a1.97 1.97 0 0 0-.112.987c.04.286.154.552.291.8.171.316.464.595.738.807.384.299.814.501 1.249.698.28.127.562.25.844.373.694.14 1.38.323 2.07.49 1.116-.073 2.222-.062 3.347-.024.865.027 1.732.04 2.599.047l.127-.002c.64-.01 1.279-.022 1.917-.041l.319-.114c.55-.197 1.106-.388 1.642-.622a1.073 1.073 0 0 0-.038.017l.15-.068-.112.05c.314-.148.614-.323.895-.538.172-.13.331-.279.47-.45.116-.147.227-.297.301-.473.106-.256.141-.49.168-.77.034-.35-.253-.688-.55-.776-.3-.09-.703.047-.844.37-.03.072-.065.134-.103.196-.11.139-.223.266-.349.387a5.21 5.21 0 0 1-.61.373c-.552.227-1.134.378-1.702.553-.552.17-1.104.364-1.672.466-.419.041-.838.048-1.26.043-.445-.005-.89-.002-1.336-.002-.83.002-1.666.018-2.49-.08-.641-.117-1.255-.33-1.863-.574-.592-.238-1.194-.455-1.782-.708a3.714 3.714 0 0 1-.585-.34 2.887 2.887 0 0 1-.24-.242 2.609 2.609 0 0 1-.103-.184l-.006-.021v-.008c.017-.076.037-.147.061-.22.03-.06.062-.117.097-.174.232-.275.504-.51.77-.743.301-.265.253-.809 0-1.082a.682.682 0 0 0-.502-.223c-.203 0-.35.09-.502.223"/><path d="M106.767 255.78199999999998c-.469.476-.926.968-1.15 1.607-.196.558-.043 1.147.246 1.64.307.523.686 1.001 1.079 1.464.386.456.848.865 1.318 1.234.51.4 1.093.713 1.71.92.64.216 1.301.353 1.963.485a39.88 39.88 0 0 0 1.604.285c1.145.18 2.306.266 3.461.355.896.067 1.796.097 2.695.121.908.025 1.816.01 2.725.05 1.81.078 3.614-.096 5.42-.16.555-.003 1.104.018 1.655.09.438.056.88.138 1.314.235.164.062.323.135.479.212.095.062.189.124.282.19a1.366 1.366 0 0 0 1.875-.296c.209-.286.296-.645.241-.993-.057-.361-.254-.644-.536-.869a6.086 6.086 0 0 0-.503-.366c-.323-.21-.667-.417-1.034-.529-.384-.117-.774-.21-1.164-.303a9.21 9.21 0 0 0-1.956-.226c-.824-.017-1.652.077-2.471.153-.78.071-1.56.142-2.343.176l-.427.01c-.51.004-1.02-.005-1.531.005-.618.011-1.234.032-1.851.05-2.97.058-5.97-.003-8.885-.592a9.714 9.714 0 0 1-1.174-.414 9.676 9.676 0 0 1-1.536-1.116c-.374-.359-.741-.739-1.036-1.164a1.954 1.954 0 0 1-.077-.165l-.001-.01.004-.045c.018-.054.038-.107.062-.161a4.303 4.303 0 0 1 .533-.673c.149-.15.258-.296.282-.514a.78.78 0 0 0-.171-.579.858.858 0 0 0-.76-.278.608.608 0 0 0-.342.17"/><path d="M107.947 253.935l-.011.026.01-.026m.206-.322l-.1.128a1.21 1.21 0 0 1 .1-.128m-1.193-5.5a2.348 2.348 0 0 1-.02.046l.02-.046m-.24-3.115l-.104.014.104-.014m-.637-1.594l.032.042-.032-.042m-.051-1.346l-.058.138c.017-.047.036-.093.058-.138m-.65-1.33c.01.02.018.041.027.062l-.027-.062m2.451-6.624c-.582.262-1.173.515-1.736.819a2.93 2.93 0 0 0-.588.432c-.299.273-.456.656-.609 1.018-.14.334-.202.747-.235 1.104a5.442 5.442 0 0 0 .126 1.75c.032.138.074.273.122.407a3.1 3.1 0 0 0-.984.749c-.306.357-.49.76-.652 1.197-.088.235-.141.48-.187.726-.095.514-.126 1.011-.032 1.529.126.7.505 1.317 1.04 1.784.146.128.294.25.444.373-.095.118-.18.246-.263.383-.14.232-.224.499-.322.751-.076.193-.112.406-.151.608-.07.35-.111.71-.131 1.065-.03.54.074 1.094.25 1.604a4.93 4.93 0 0 0 1.061 1.785l-.025.043c-.201.364-.329.785-.43 1.188-.156.628-.19 1.307-.16 1.951.029.597.141 1.21.308 1.786.28.963.926 1.726 1.65 2.394.515.475 1.266.604 1.887.241a1.55 1.55 0 0 0 .714-.924c.103-.369.076-.87-.156-1.192a7.567 7.567 0 0 1-.646-1.118 6.287 6.287 0 0 1-.255-1.043 7.251 7.251 0 0 1-.01-1.112 4.86 4.86 0 0 1 .146-.57l.043-.041c.262-.183.55-.408.685-.683.138-.284.287-.574.261-.905-.024-.322-.05-.62-.23-.9a2.847 2.847 0 0 0-.303-.401 6.17 6.17 0 0 0-.536-.408 7.215 7.215 0 0 1-.168-.114 4.691 4.691 0 0 1-.44-.423 4.814 4.814 0 0 1-.277-.48 4.136 4.136 0 0 1-.134-.462c-.009-.205 0-.408.017-.612.02-.1.044-.2.07-.3.096-.022.193-.042.29-.063.18-.04.508-.166.633-.248.285-.188.53-.385.704-.683.39-.66.209-1.482-.327-1.993-.208-.197-.47-.352-.702-.522l-.541-.417.304.233c-.47-.369-.96-.73-1.378-1.16-.006-.023-.013-.046-.018-.07a4.924 4.924 0 0 1 .015-.755 5.33 5.33 0 0 1 .106-.458 3.82 3.82 0 0 1 .167-.17c.344-.207.724-.353.942-.72.17-.284.237-.618.147-.94-.056-.202-.172-.355-.297-.51a4.873 4.873 0 0 1-.418-.76 4.514 4.514 0 0 1-.215-.8 5.63 5.63 0 0 1 .008-.915c.034-.172.076-.337.13-.505.03-.059.061-.116.097-.171.04-.043.08-.084.124-.123.285-.194.598-.338.909-.488.309-.149.624-.288.94-.43.384-.175.474-.72.277-1.054a.78.78 0 0 0-.653-.381c-.14 0-.27.042-.408.104"/></g><path d="M253.344 280.175l.057-.011.116-.022c-.058.01-.116.022-.173.033m-12.65 3.535c.327-.017.653-.036.978-.056l-.074.046c-.544.336-1.07.697-1.575 1.086.068-.36.152-.713.267-1.055l.405-.02m29.654 3.3c.79-.288 1.586-.571 2.354-.918 1.408-.635 2.713-1.374 4.043-2.156a28.9 28.9 0 0 0 1.422-.9c-.404.736-.83 1.458-1.315 2.146l-.15.19c-2.265.736-4.581 1.329-6.909 1.829.186-.062.37-.125.555-.191m-7.637-7.753a492.39 492.39 0 0 0 4.555-1.454c.565-.183 1.133-.37 1.7-.562-.409.176-.82.349-1.232.516-.989.36-1.98.705-2.986 1.019a39.34 39.34 0 0 1-1.866.527l-.747.132.576-.178m30.608-19.982c-.51.217-1.097.556-1.466.98-1.454 1.673-2.929 3.34-4.53 4.875-1.213 1.129-2.5 2.173-3.804 3.195-1.34 1.033-2.738 1.996-4.113 2.982-1.192.767-2.377 1.546-3.598 2.266-.327.184-.659.36-.994.53-.562.265-1.13.511-1.71.737-2.657.986-5.377 1.805-8.093 2.618a95.16 95.16 0 0 1-6.973 1.834c-1.51.274-3.016.559-4.522.849l.07-.013-.186.035-.093.018a580.376 580.376 0 0 0-3.173.61c-1.343.247-2.681.456-4.043.553-1.352.097-2.71.09-4.059.205-1.275.106-2.423.87-3.446 1.568a6.837 6.837 0 0 0-2.313 2.773 11.12 11.12 0 0 0-.759 2.425 30.806 30.806 0 0 0-.35 2.225c-.024.204-.053.406-.056.611-.007.416.437.72.742.913.337.21.74.347 1.112.48.474.169.956.322 1.436.47.874.27 1.862.282 2.772.35.643.048 1.289.087 1.934.103 1.304.035 2.608-.06 3.91-.104a69.595 69.595 0 0 1 4.02-.034c1.318.03 2.642.075 3.96.023a97.1 97.1 0 0 0 2.02-.098c.724-.044 1.44-.158 2.156-.26a75.73 75.73 0 0 0 4.72-.806c2.635-.542 5.242-1.183 7.8-2.015.99-.322 1.956-.72 2.917-1.119.689-.287 1.36-.61 2.021-.961 1.381-.736 2.726-1.605 3.925-2.612.67-.562 1.2-1.112 1.697-1.819.345-.492.649-1.015.976-1.52.355-.548.702-1.105.986-1.693.588-1.216 1.124-2.455 1.747-3.652.334-.351.658-.712.981-1.074.647-.723 1.261-1.512 1.72-2.37.46-.857.92-1.732 1.265-2.644.189-.384.07-.575-.359-.573a3.772 3.772 0 0 0-.633.067c.108-.261.214-.523.316-.785.234-.6.457-1.205.673-1.812.176-.494.402-.996.376-1.532-.01-.245-.202-.292-.403-.355-.276-.087-.544.025-.815.101-.607.173-1.205.477-1.748.786-.436.248-.854.5-1.267.766l.157-.105c-.482.32-.968.632-1.458.94-.16.072-.32.146-.48.223a76.334 76.334 0 0 0 2.384-1.874c2.602-2.135 4.868-4.592 7.07-7.127a.286.286 0 0 0 .127-.256.086.086 0 0 0-.057-.036c-.14-.032-.444.119-.489.138m-99.972-9.013c.114-.077.228-.154.34-.232-.075.084-.15.17-.223.256l-.006.008-.111-.032m25.012-40.03a17.872 17.872 0 0 0-3.325 2.374c-.465.424-.888.821-1.286 1.25l-.021.01c-.725.311-1.374.703-2.001 1.117a21.457 21.457 0 0 0-2.121 1.612c-.334.275-.647.565-.94.868-.403.436-.812.87-1.115 1.351a18.38 18.38 0 0 0-.277.46l-.573.974c-.407.693-.782 1.396-1.165 2.097a67.507 67.507 0 0 0-2.274 4.519l-.57.533c-.42.39-.744.82-.968 1.292-1.18 2.03-2.22 4.106-3.362 6.148-1.144 2.05-2.29 4.098-3.351 6.172-.345.675-.687 1.352-1.028 2.028-.177.23-.356.458-.536.689-.784 1.008-1.543 2.032-2.355 3.027l-2.706 3.317c-.348.425-.696.852-1.036 1.281-.506.64-1.035 1.265-1.468 1.936-.287.447-.529.909-.773 1.369-.174.327-.362.858.004 1.14.162.124.518.172.733.232l.404.112c.338.094.683.173 1.027.254.634.149 1.277.277 1.922.402 1.405.27 2.878.5 4.326.554.216.008.431.016.646.021.152.002.3-.006.446-.025.24.228.486.454.73.68.683.627 1.316 1.285 1.983 1.922.597.186 1.194.373 1.787.565l.284.087.05-.019c.526-.184 1.102-.52 1.6-.836.354.533.773 1.042 1.2 1.55.158.189.282.397.473.566a1.32 1.32 0 0 0 1.03-.188c1.111-.447 2.041-1.18 2.943-1.825.994-.71 2.017-1.56 2.656-2.486.27-.392.434-.767.5-1.2.049-.319.05-.638.059-.958.01-.376.11-.755.194-1.124.144-.636.37-1.263.566-1.892.311-.995.635-1.99 1.03-2.968.081-.261-.05-.36-.393-.3l-.615.207c-.625.288-1.21.62-1.753.993-.686.458-1.331.948-1.936 1.466.11-.514.201-1.032.257-1.549.244-2.283.49-4.564.71-6.848.102-1.04.138-2.095.317-3.129l.727-4.227c.178-1.032.442-2.056.678-3.081.104-.452.174-.92.316-1.366l.567-1.794.509-1.611c.023-.071.046-.142.071-.213l.248-.649.134-.327c.29-.473.583-.944.884-1.412 1.303-2.024 2.623-4.042 3.838-6.097.7-1.185 1.425-2.363 2.05-3.572.304-.59.619-1.177.91-1.769.36-.732.696-1.468.987-2.218.138-.355.231-.716.329-1.078.093-.345.21-.81-.146-1.085l-.406-.033a6.125 6.125 0 0 0-1.625.703" fill="#BEBEBE" opacity=".7"/><path d="M198.401 259.146l-.674.3c-.688.418-1.331.897-1.93 1.437l-.239.212c.354.152.705.313 1.053.484.39.191.784.374 1.178.558.346-.853.696-1.705 1.046-2.557.072-.306-.01-.459-.245-.459a.846.846 0 0 0-.189.025m21.739 92.084c-.016.69-.094 1.38-.146 2.067-.045.585-.078 1.169-.148 1.75-.191 1.596-.364 3.195-.586 4.787.49-.457.957-.939 1.4-1.444l.727-.893a4.55 4.55 0 0 0 .768-1.348c.13-.745.212-1.47.118-2.223-.046-.372-.118-.69-.302-1.017-.09-.159-.202-.309-.305-.458-.387-.556-.779-1.108-1.15-1.674a20.43 20.43 0 0 0-.349-.512c-.008.321-.019.643-.026.965" fill="#BEBEBE"/><path d="M302.188 264.225l-.85.566a19.313 19.313 0 0 0-2.057 1.805 19.459 19.459 0 0 0-1.805 2.056l-.565.848a1.113 1.113 0 0 0-.285.644v.002c-.009.12.004.244.04.371l.001.003c.11.954.242 1.904.376 2.856l.188 2.05c.031.34.072.68.106 1.02-.114 1.493-.222 2.985-.33 4.478-.211 2.935-.291 5.874-.382 8.814-.049 1.57-.012 3.147-.017 4.72-.004 1.236.003 2.474.007 3.71.012 2.908.029 5.815.047 8.722a602.88 602.88 0 0 0-.124 1.973 61.59 61.59 0 0 1-.202 2.469c-.542.642-1.046 1.321-1.346 2.113-.28.744-.505 1.51-.751 2.266-.257.782-.506 1.565-.755 2.35-.39 1.23-.766 2.464-1.148 3.696a769.87 769.87 0 0 0-2.86 9.515c-.342 1.163-.694 2.323-1.04 3.485-.434 1.443-.839 2.897-1.3 4.332l-.005.017a213.151 213.151 0 0 0-2.196 5.35c-.4 1.02-.799 2.05-1.063 3.114a50.4 50.4 0 0 0-.373 1.618c-.11.511-.197 1.053-.183 1.582a45.75 45.75 0 0 0-.304 1.013c-.114.394-.23.788-.335 1.185a8.451 8.451 0 0 0-.078.32c-.113.202-.21.412-.29.632.006.242.033.481.086.717.051.232.574-.036 1.007-.303.334-.207.617-.412.59-.39 1.352-1.092 2.607-2.266 3.631-3.68.444-.614.726-1.163 1.017-1.852.149-.354.263-.721.384-1.085.067-.203.132-.406.197-.609.469-.577.907-1.207 1.125-1.892.443-1.383.791-2.796 1.238-4.18a1191.19 1191.19 0 0 0 1.679-5.233c1-2.468 2.112-4.893 3.178-7.33 1.242-2.843 2.498-5.678 3.71-8.532.27-.633.478-1.295.712-1.941a24.95 24.95 0 0 0 .566-1.764c.382-1.377.778-2.752.977-4.17.102-.733.21-1.468.307-2.204l.35-.431c.383-.466.678-.982.883-1.546.055-.31.03-.642.036-.956a221.514 221.514 0 0 0 .043-2.258c.07-2.225.163-4.449.243-6.673.115-3.225.222-6.447.287-9.675.025-1.259.055-2.517.06-3.776.004-.753.016-1.507.023-2.26.02-.36.04-.72.058-1.08.07-1.452.095-2.9.116-4.353.022-1.578-.066-3.16-.147-4.734a99.74 99.74 0 0 0-.402-5.3v-.002a42.64 42.64 0 0 0-.04-.372 1.029 1.029 0 0 0-.563-.006c-.12-.698-.22-1.4-.456-2.07a1.106 1.106 0 0 0-.3-.042c-.253 0-.492.096-.716.287" fill="#BEBEBE" opacity=".7"/><path d="M221.049 342.715c.067.018.131.04.196.063.23.113.448.249.654.399.031.026.06.054.088.084.02.03.037.063.054.095.04.125.07.251.092.382.04.362.053.728.066 1.093.009.26.016.52.022.779a.459.459 0 0 0-.04-.046c-.112-.112-.258-.16-.405-.207a.505.505 0 0 0-.395.05c-.166.099-.237.259-.253.444l-.018.204a25.654 25.654 0 0 0-.038-.25v-.002c-.012-.637-.023-1.274-.037-1.91a.528.528 0 0 0-.36-.493c.11-.236.23-.47.374-.685m-.664-1.144c-.196.126-.33.323-.466.509-.124.172-.216.373-.315.561-.146.276-.27.563-.4.847-.161.354-.298.721-.435 1.086-.122.326-.21.665-.304 1a.531.531 0 0 0-.395.384c-.057.253-.118.505-.16.762-.042.262-.07.527-.098.791l-.068.624c-.02.192-.042.385-.064.578-.107.426-.215.853-.32 1.28-.08.316-.156.634-.219.952-.07.348-.149.697-.207 1.048-.073.441-.134.88-.183 1.324-.039.352-.068.705-.1 1.057-.065.71-.152 1.42-.238 2.128-.092.763-.18 1.525-.279 2.287a78.173 78.173 0 0 0-.257 2.25c-.07.688-.115 1.379-.17 2.07-.06.741-.13 1.482-.21 2.222-.08.753-.152 1.504-.194 2.26-.042.7-.07 1.401-.083 2.103-.03 1.572-.05 3.144-.063 4.717-.012 1.463.025 2.921.07 4.383a249.448 249.448 0 0 1 .112 6.632c.004.7-.001 1.403.025 2.103.057 1.515.122 3.03.155 4.545l.049 2.036c.015.607.052 1.215.08 1.823.062 1.396.089 2.798.231 4.189.021.214.07.392.228.55a.782.782 0 0 0 .55.228c.41 0 .796-.355.779-.778-.033-.776-.024-1.553-.045-2.33-.021-.763-.05-1.527-.079-2.29-.028-.762-.056-1.524-.07-2.287-.014-.681-.022-1.363-.041-2.043-.041-1.533-.117-3.064-.131-4.597-.015-1.503-.017-3.005-.035-4.508-.017-1.401-.072-2.801-.115-4.203-.026-.814-.046-1.626-.053-2.441-.006-.78-.004-1.558-.002-2.337.003-1.458.02-2.915.058-4.372a42.85 42.85 0 0 1 .1-2.11c.057-.765.133-1.528.202-2.292.055-.612.095-1.225.135-1.838l.012.009-.07 1.406-.02.435c-.014.276.007.552.015.828a.53.53 0 0 0 .384.504.528.528 0 0 0 .59-.24 1.357 1.357 0 0 0 .158-.415c.06.025.125.038.19.038a.528.528 0 0 0 .523-.522l.006-.14c.014-.304.037-.608.055-.911l.034-.577a.519.519 0 0 0 .31-.347c.062-.248.107-.49.134-.744.021-.191.027-.384.04-.576l.044-.643a221.575 221.575 0 0 0 .258-4.298l.065-.634.076-.722c.002.817 0 1.633-.013 2.45l-.048 3.025-.012.518c-.034.565-.069 1.13-.101 1.696-.043.752-.094 1.503-.11 2.257a.52.52 0 1 0 .888.367.552.552 0 0 0 .153-.367c.048-.517.098-1.03.118-1.548l.061-1.574a67.7 67.7 0 0 0 .036-1.1l.044-.767c.042-.723.081-1.445.122-2.168a.497.497 0 0 0 .125-.224c.048-.197.1-.392.149-.59a7.22 7.22 0 0 0 .13-.747c.072-.53.115-1.061.152-1.595.03-.433.053-.867.073-1.301.023-.491.05-.982.072-1.472.04.674.076 1.348.098 2.023.01.305.247.558.56.558.318 0 .54-.254.56-.558.185-3.068.17-6.144.075-9.215-.015-.47-.036-.944-.13-1.405a1.637 1.637 0 0 0-.575-.945 7.986 7.986 0 0 0-.55-.405 2.867 2.867 0 0 0-.384-.211 1.786 1.786 0 0 0-.757-.2.935.935 0 0 0-.515.144m-12.666-75.293c-.214.06-.477.224-.569.438a663.339 663.339 0 0 0-3.606 8.465c-.92 2.215-1.732 4.477-2.544 6.732-.227.63-.458 1.257-.692 1.885-.208.56-.44 1.11-.668 1.663-.541 1.27-1.096 2.535-1.635 3.805-.64 1.509-1.278 3.019-1.916 4.529l.033-.078c-.491 1.123-.98 2.247-1.461 3.374-.457 1.067-.904 2.14-1.388 3.195-1.038 2.26-2.104 4.508-3.102 6.785-.4.913-.806 1.822-1.23 2.724a64.43 64.43 0 0 1-.652 1.349c-.19.377-.394.742-.648 1.082-.167.22-.333.444-.5.665-.667.837-1.332 1.675-2.011 2.502-.205.249-.342.492-.342.826 0 .31.124.609.342.827.45.45 1.203.45 1.654 0 .71-.708 1.38-1.444 2.022-2.215.359-.43.693-.876 1.032-1.321.372-.489.637-1.038.899-1.59.405-.848.796-1.702 1.173-2.564.364-.836.7-1.685 1.048-2.528a236.6 236.6 0 0 1 1.419-3.279c.51-1.147 1.005-2.3 1.485-3.461.449-1.086.882-2.18 1.335-3.265.501-1.202 1-2.403 1.488-3.611.937-2.316 1.902-4.62 2.843-6.933.415-1.02.787-2.055 1.145-3.096.436-1.27.879-2.536 1.33-3.8.14-.395.286-.788.432-1.18.204-.55.39-1.107.611-1.65l1.24-3.032c.834-1.95 1.668-3.898 2.506-5.846.106-.246.17-.462.096-.733a.961.961 0 0 0-.437-.568.957.957 0 0 0-.732-.096m-26.778 23.958l.008-.016-.052.121c.015-.034.03-.069.044-.105m11.187-28.048c.081-.155.165-.307.25-.459.09.017.178.019.266.007-.303.49-.596.983-.88 1.483a36.661 36.661 0 0 0-1.192 2.345 95.8 95.8 0 0 0 .645-1.497l-.113.27c.315-.729.66-1.442 1.024-2.149m-.196-3.533a1.147 1.147 0 0 0-.507.295c-.188.155-.327.356-.464.556-.305.445-.544.937-.788 1.418-.528 1.05-.96 2.14-1.413 3.225-.55 1.274-1.122 2.539-1.658 3.818l.112-.265c-.616 1.458-1.209 2.926-1.816 4.388l.112-.265c-.39.917-.758 1.836-1.075 2.781-.328.977-.652 1.957-.977 2.935a159.189 159.189 0 0 1-1.838 5.23c-.348.932-.678 1.871-1.024 2.805l-.593 1.6c-.17.456-.363.905-.545 1.356-.328.815-.661 1.629-.972 2.45-.36.956-.709 1.916-1.054 2.879-.405 1.13-.79 2.266-1.18 3.4a7.244 7.244 0 0 0-.099.312c.214.25.416.51.598.78.24.357.424.732.597 1.124.133.3.267.599.398.9l.004-.01c.16-.428.315-.855.468-1.285.157-.439.306-.879.466-1.316.155-.42.314-.841.463-1.265.322-.91.662-1.81 1.023-2.705.355-.878.722-1.75 1.082-2.625a752.821 752.821 0 0 1 1.553-3.735c.79-1.79 1.59-3.575 2.348-5.377.185-.441.368-.88.534-1.33.177-.475.352-.95.525-1.426.31-.855.653-1.7.998-2.541.492-1.2.993-2.397 1.467-3.605.469-1.191.948-2.376 1.425-3.564l1.077-2.462a41.967 41.967 0 0 1 1.461-3.003c.62-1.16 1.334-2.272 2.058-3.37.18-.272.056-.662-.216-.82-.294-.174-.642-.059-.821.214l-.108.164.019-.154c.048-.436-.036-.963-.394-1.257a1.08 1.08 0 0 0-.478-.279 7.528 7.528 0 0 0-.372-.052h-.04a.797.797 0 0 0-.356.08m-56.109-4.778c.264.011.52.057.765.14.215-.191.432-.38.652-.564a2.004 2.004 0 0 0-.246-.015c-.426 0-.844.17-1.171.44" fill="#161616"/><path d="M184.831 315.207c-.222.241-.44.487-.655.733a6.017 6.017 0 0 1-.758.714c-.17.119-.343.226-.525.32-.45.155-.921.263-1.384.371-.464.108-.935.184-1.405.262-.756.125-1.51.273-2.267.391-1.103.092-2.195.003-3.294-.106a18.587 18.587 0 0 1-1.756-.352l1.917 1.202c1.047.656 2.118 1.272 3.184 1.898.598.352 1.195.704 1.792 1.058.448-.088.895-.18 1.343-.27.544-.11 1.09-.223 1.62-.39.283-.09.568-.183.848-.285.284-.104.562-.23.837-.356.38-.177.722-.48 1.03-.755.456-.407.838-.942 1.185-1.435.213-.303.409-.615.632-.91l.136-.176a1.585 1.585 0 0 0-.248-1.914c-.299-.3-.72-.458-1.14-.458-.404 0-.806.148-1.092.458m-56.293-55.909l.04-.018a1.59 1.59 0 0 0-.04.018" fill="#161616"/><path d="M133.36 263.965a2.53 2.53 0 0 1-.432.354c.172.086.334.185.493.296.175.147.34.302.49.474.197.286.349.598.488.917a113.408 113.408 0 0 0 .622 1.519c-.015-.036-.03-.07-.043-.105.351.833.717 1.657 1.107 2.472.348.734.706 1.46 1.039 2.201.311.765.619 1.531.953 2.285.355.804.728 1.599 1.1 2.396.715 1.534 1.517 3.027 2.285 4.534.184.363.355.734.532 1.102.186.39.39.77.591 1.153.175.335.377.658.57.982l.733 1.233c.409.688.781 1.4 1.164 2.104.404.745.82 1.485 1.23 2.227.383.694.75 1.4 1.155 2.08.245.408.496.805.757 1.202.22.334.448.664.674.994a97.275 97.275 0 0 0 2.92 4.059l.859 1.13c.268.352.523.714.796 1.064.532.685 1.08 1.356 1.633 2.024.559.674 1.125 1.34 1.694 2.008.52.611 1.055 1.209 1.573 1.821a58.934 58.934 0 0 0 3.38 3.706c.61.608 1.232 1.205 1.848 1.807.564.554 1.151 1.08 1.736 1.61.645.587 1.293 1.169 1.938 1.754.611.556 1.217 1.112 1.853 1.64.645.537 1.302 1.058 1.952 1.588.666.544 1.34 1.077 2.072 1.53.609.376 1.238.713 1.888 1.009.649.295 1.311.564 2.013.703.443.088.89.14 1.34.17.353.022.72.042 1.073.006.242-.024.484-.053.721-.11.248-.06.484-.164.714-.27.25-.115.48-.303.659-.51.104-.121.2-.25.292-.38.054-.077.097-.16.145-.242.255-.286.558-.536.836-.8.262-.248.305-.67.126-.977-.212-.363-.737-.532-1.103-.29-.227.152-.452.306-.679.456-.135.09-.27.178-.401.274-.168.122-.32.262-.476.396a2.402 2.402 0 0 1-.204.131 3.375 3.375 0 0 1-.404.104 5.778 5.778 0 0 1-.818-.014c-.252-.019-.502-.04-.751-.067a9.334 9.334 0 0 1-1.649-.488 16.09 16.09 0 0 1-1.04-.483c-.453-.235-.914-.473-1.345-.748a20.298 20.298 0 0 1-1.256-.854c-.396-.297-.787-.6-1.18-.9a46.786 46.786 0 0 1-1.813-1.469c-.617-.532-1.227-1.074-1.836-1.615a451.05 451.05 0 0 1-1.039-.925c-.278-.249-.563-.49-.837-.742a83.098 83.098 0 0 1-1.814-1.732c-.61-.599-1.232-1.189-1.816-1.814-.56-.6-1.119-1.202-1.65-1.828-.57-.67-1.133-1.346-1.706-2.014-.555-.648-1.112-1.293-1.665-1.943a90.369 90.369 0 0 1-2.418-2.957c-1-1.363-2.035-2.7-3.018-4.074a76.64 76.64 0 0 1-1.356-1.974c-.48-.716-.975-1.43-1.384-2.19-.411-.767-.816-1.539-1.222-2.308-.366-.696-.738-1.389-1.091-2.091-.386-.769-.765-1.541-1.177-2.296-.391-.716-.809-1.42-1.172-2.149-.212-.424-.417-.85-.613-1.283-.16-.353-.322-.706-.492-1.055-.388-.797-.79-1.587-1.187-2.38a83.258 83.258 0 0 1-1.05-2.158c-.348-.75-.706-1.494-1.03-2.254-.06-.146-.123-.293-.185-.439-.332-.806-.648-1.624-1.029-2.408-.375-.769-.759-1.533-1.136-2.3-.368-.752-.712-1.514-1.076-2.267-.356-.733-.715-1.476-1.319-2.04a4.397 4.397 0 0 0-1.403-.884 2.81 2.81 0 0 1-.728 1.312m1.734 3.732l-.074-.172.074.172m2.695-18.454c-.071.904-.134 1.81-.223 2.712a.753.753 0 0 0-.25.276 3 3 0 0 0-.238.737 7.79 7.79 0 0 0-.078.524 4.852 4.852 0 0 0-.16.127 4.703 4.703 0 0 1-.115.137.543.543 0 0 0-.132.113c-.113.138-.209.262-.258.437a1.211 1.211 0 0 0-.053.388c.02.368.223.717.59.827a.721.721 0 0 0 .163.03.9.9 0 0 0 .2.075c.097.115.187.236.279.353.125.157.251.312.378.468.269.331.549.653.84.965.332.353.67.696 1.011 1.04.372.375.733.76 1.096 1.143.327.343.643.696.97 1.04.348.363.694.73 1.026 1.107.642.733 1.244 1.5 1.89 2.231a25.734 25.734 0 0 0 2.13 2.151c.367.33.743.65 1.11.978.425.382.845.769 1.268 1.15a174.7 174.7 0 0 0 2.294 2.03 39.14 39.14 0 0 1 2.24 2.089c1.367 1.388 2.781 2.736 4.122 4.15a104.903 104.903 0 0 1 4.037 4.515c.302.36.594.728.887 1.095.462.615.91 1.24 1.38 1.85.478.619.97 1.23 1.454 1.844.886 1.122 1.78 2.239 2.664 3.362.614.82 1.226 1.643 1.84 2.462a35.409 35.409 0 0 1 1.75 2.543c.537.865 1.08 1.728 1.622 2.59a63.23 63.23 0 0 0 1.723 2.57c.142.205.282.413.421.618.121.178.25.35.388.515.204.248.505.432.811.528.361.113.76.085 1.09-.106.322-.19.532-.508.624-.867.103-.396.04-.868-.164-1.222-.066-.114-.139-.22-.213-.33-.573-.85-1.167-1.686-1.731-2.543-.553-.839-1.058-1.708-1.599-2.555a68.848 68.848 0 0 0-1.767-2.65c-.529-.75-1.098-1.473-1.643-2.211-.59-.8-1.206-1.58-1.824-2.358-1.098-1.384-2.205-2.761-3.29-4.155-.297-.397-.58-.802-.88-1.196a57.561 57.561 0 0 0-3.12-3.738 129.66 129.66 0 0 0-2.093-2.252c-.639-.673-1.308-1.313-1.967-1.965-.721-.715-1.467-1.404-2.189-2.12a46.184 46.184 0 0 0-2.243-2.076c-.377-.326-.768-.636-1.142-.966-.392-.345-.792-.68-1.189-1.02-.822-.707-1.63-1.43-2.454-2.133-.77-.655-1.526-1.32-2.228-2.05-.683-.712-1.315-1.473-1.974-2.208-.638-.71-1.327-1.376-2.011-2.042-.725-.707-1.482-1.383-2.236-2.06a98.8 98.8 0 0 1-1.4-1.276c-.198-.184-.394-.376-.603-.549.06-.175.11-.354.155-.532.05-.193.084-.388.107-.585.034-.287.054-.571-.034-.852a.935.935 0 0 0-.214-.363v-.018c.074-.924.14-1.849.214-2.772.023-.287-.258-.529-.529-.529-.306 0-.506.242-.53.529m-3.271 2.737a.782.782 0 0 0-.223.088c-.115.058-.2.175-.276.273-.062.08-.114.164-.164.253-.053.091-.095.188-.14.283-.164.352-.308.712-.455 1.072a20.91 20.91 0 0 0-.734 2.068c-.258.896-.31 1.824-.288 2.75a.633.633 0 0 0 .626.626c.334 0 .633-.284.625-.625a11.69 11.69 0 0 1 .051-1.555c.063-.402.168-.793.288-1.183.136-.444.294-.88.465-1.313l.407-1.022c.069-.16.138-.319.213-.474a.538.538 0 0 0 .41-.665c-.026-.097-.066-.186-.107-.279-.048-.109-.161-.172-.252-.239a.443.443 0 0 0-.269-.076 1 1 0 0 0-.177.018" fill="#161616"/><path d="M175.842 296.72a1 1 0 0 0-.592.454c-.12.206-.197.534-.101.765 1.08 2.574 2.14 5.157 3.268 7.71.058.132.164.24.29.321.06.083.123.163.19.24.191.218.51.316.802.296a1.13 1.13 0 0 0 1.549-.405c.071-.106.125-.222.16-.347.032-.149.047-.298.045-.45-.018-.151-.04-.303-.063-.455a2.824 2.824 0 0 0-.069-.31c-.053-.222-.11-.441-.166-.661a36.98 36.98 0 0 0-.278-1.027l-.301-1.045a10.605 10.605 0 0 0-.498-1.347 1.15 1.15 0 0 0-1.53-.43 2.552 2.552 0 0 0-.292-.603 1.067 1.067 0 0 0-.54-.458l-.653-1.557a15.671 15.671 0 0 1-.1-.237.995.995 0 0 0-1.121-.455m14.682-38.965a.616.616 0 0 0-.268.346c-.063.175-.123.35-.174.529-.044.158-.08.317-.121.477l-.111.44c-.06.235-.121.471-.179.706l-.406 1.639c-.279 1.116-.562 2.232-.818 3.353l-.31 1.359-.03.13-.222.739-.314 1.042c-.051.167-.101.333-.153.498l-.076.244a2.276 2.276 0 0 1-.05.141.616.616 0 0 0-.022.451.587.587 0 0 0 .405.405c.238.065.541-.036.656-.267.153-.308.305-.617.456-.926l.007-.009a.584.584 0 0 0 .901-.126.577.577 0 0 0 .07-.374c.043-.163.106-.32.164-.48l.153-.402a197.613 197.613 0 0 1 .86-2.217c.416-1.05.851-2.09 1.256-3.143l.415-1.08c.056-.145.106-.29.158-.437.061-.182.12-.364.167-.55a3.16 3.16 0 0 0 .083-.649.602.602 0 0 0-.3-.523c-.172-.1-.444-.126-.613 0a2.926 2.926 0 0 0-.193.152 1.02 1.02 0 0 0-.16.223c-.062.105-.113.218-.166.328l-.074.154c.031-.143.058-.281.071-.427.018-.18-.115-.353-.273-.43l.012-.054a4.078 4.078 0 0 0 .097-.602l-.01-.08a1.92 1.92 0 0 0-.035-.234c-.049-.25-.318-.425-.56-.425a.572.572 0 0 0-.293.078m17.733 8.172c-.045.04-.089.082-.128.13-.23.286-.292.37-.422.714-.034.09-.054.18-.076.275-.062.272-.161.54-.262.8-.196.505-.395 1.008-.578 1.52-.203.568-.394 1.143-.6 1.711-.237.655-.49 1.3-.749 1.945-.237.594-.482 1.184-.695 1.787-.201.574-.398 1.15-.593 1.726a64.34 64.34 0 0 1-1.167 3.183c-.04.078-.073.16-.098.243l-.075.183c-1.03 2.493-2.07 4.981-2.991 7.518-.456 1.25-.9 2.506-1.347 3.76-.443 1.24-.876 2.477-1.37 3.696-.08.192-.157.385-.236.578-1.035 2.42-2.14 4.805-3.237 7.198-.537 1.17-1.063 2.342-1.648 3.491-.574 1.13-1.113 2.278-1.682 3.411-.19.38-.38.76-.575 1.135-.182.352-.357.713-.562 1.052-.404.67-.844 1.31-1.305 1.941-.286.365-.571.732-.858 1.097-.253.322-.506.637-.813.91-.191.169-.378.342-.56.518l-.962.923c-.348.336-.722.643-1.099.945-.232.17-.474.321-.724.466-.263.151-.523.31-.795.445a2.734 2.734 0 0 1-.388.1c-.633.061-1.27.07-1.904.088-.498.014-.913.405-.913.912 0 .488.415.927.913.914.683-.02 1.368-.027 2.048-.096.19-.02.38-.05.567-.092.221-.051.428-.151.634-.243.25-.111.486-.258.724-.39.493-.27.95-.575 1.408-.903.503-.362.962-.774 1.438-1.17.428-.357.848-.72 1.28-1.074.33-.273.596-.655.869-.987.23-.28.461-.559.695-.836.437-.52.84-1.065 1.24-1.612.357-.489.653-1.017.94-1.549a125.255 125.255 0 0 0 1.85-3.588c.564-1.12 1.17-2.217 1.694-3.357.553-1.202 1.124-2.393 1.683-3.591.595-1.275 1.175-2.557 1.756-3.838a63.43 63.43 0 0 0 .689-1.581c.221-.525.464-1.048.665-1.582.409-1.084.802-2.174 1.206-3.26a255.19 255.19 0 0 1 2.477-6.409c.442-1.038.885-2.076 1.336-3.11l.4-.916c.058-.136.105-.23.138-.328.01-.027.022-.054.033-.08.072-.167.142-.334.212-.501l.139-.328c.404-.959.762-1.938 1.13-2.91a89.7 89.7 0 0 1 1.11-2.826c.53-1.247 1.06-2.494 1.572-3.748l.648-1.59c.11-.269.217-.542.302-.82a2.56 2.56 0 0 0 .114-.653c.006-.251-.064-.477-.107-.717-.087-.477-.552-.874-1-.998a1.403 1.403 0 0 0-.37-.05c-.377 0-.733.154-1.02.418m-88.711-6.992l.01.078a.822.822 0 0 1-.01-.078m2.165 4.152c.475.26.942.543 1.43.777a7.7 7.7 0 0 0 .916.35c.249.082.507.164.766.208 1.207.204 2.423.302 3.645.371.81.046 1.627.116 2.439.088.403-.013.805-.034 1.208-.051.195-.009.392-.022.589-.025.103.351.183.711.279 1.063.14.515.28 1.028.437 1.537.362 1.171.901 2.279 1.407 3.393.447.985.987 1.92 1.483 2.88a83.99 83.99 0 0 1 1.506 3.087c.25.535.512 1.063.775 1.592.242.483.469.976.72 1.455a122.26 122.26 0 0 0 1.687 3.083c.597 1.063 1.233 2.102 1.854 3.152a177.62 177.62 0 0 1 1.74 3.022c.558.983 1.12 1.972 1.726 2.927.602.948 1.172 1.916 1.782 2.86.634.983 1.292 1.953 1.923 2.94.277.431.536.874.825 1.299.3.441.6.88.915 1.311.358.49.725.971 1.102 1.447.316.4.658.782.983 1.178.649.79 1.289 1.59 2.017 2.309a30.654 30.654 0 0 1 2.22 2.417c.672.824 1.348 1.63 2.128 2.357.821.763 1.65 1.518 2.46 2.294.82.785 1.614 1.596 2.443 2.373.39.363.772.735 1.164 1.094.285.261.603.497.91.73.246.186.495.368.747.548.88.632 1.774 1.25 2.676 1.85.518.345 1.044.676 1.574 1.001.29.179.58.358.882.516.448.236.915.435 1.39.607a1.37 1.37 0 0 0 1.552-.63 1.38 1.38 0 0 0 .138-1.06c-.088-.322-.323-.669-.631-.82-.346-.17-.7-.324-1.04-.504-.303-.16-.593-.339-.884-.516a43.072 43.072 0 0 1-1.492-.949 76.253 76.253 0 0 1-1.74-1.206c-.528-.375-1.058-.745-1.576-1.133-.41-.333-.798-.683-1.177-1.052-.368-.36-.748-.707-1.117-1.066-.825-.81-1.627-1.642-2.469-2.437-.817-.771-1.645-1.53-2.438-2.326-.747-.75-1.36-1.624-2.052-2.422a66.51 66.51 0 0 0-1.174-1.316c-.385-.421-.796-.822-1.16-1.265a236.005 236.005 0 0 1-2.076-2.577 53.552 53.552 0 0 1-1.64-2.331c-.295-.444-.562-.906-.845-1.357a71.14 71.14 0 0 0-.886-1.39c-.336-.511-.675-1.02-1.004-1.537-.31-.484-.599-.982-.9-1.47a174.864 174.864 0 0 1-1.696-2.814c-.594-1.005-1.15-2.034-1.732-3.046a162.29 162.29 0 0 0-1.8-3.052c-.626-1.034-1.204-2.095-1.79-3.15a81.088 81.088 0 0 1-.828-1.527c-.26-.491-.493-.997-.742-1.494-.788-1.568-1.5-3.174-2.333-4.72-.42-.781-.851-1.554-1.246-2.348a43.884 43.884 0 0 1-.995-2.146c-.368-.937-.634-1.906-.937-2.864a11.89 11.89 0 0 0-.23-.678 7.568 7.568 0 0 0-.296-.69 2.668 2.668 0 0 0-.344-.466c-.142-.15-.311-.265-.474-.39-.17-.13-.413-.192-.622-.25-.208-.058-.444-.074-.653-.099-.193-.024-.394 0-.589.014-.519.035-1.038.087-1.556.132-.517.045-1.034.062-1.553.078-1.135.036-2.27.06-3.407.024-.29-.01-.58-.036-.87-.061" fill="#161616"/><path d="M138.297 254.93c-.017.324-.057.642.02.963.076.312.21.626.37.904.28.484.654.906 1.003 1.34.314.388.687.726 1.044 1.072.373.36.758.704 1.14 1.052.78.716 1.561 1.429 2.321 2.165.735.712 1.455 1.436 2.207 2.13.776.716 1.546 1.441 2.306 2.175.366.354.753.689 1.116 1.045.363.356.725.712 1.086 1.07 1.519 1.505 3.056 2.994 4.567 4.51.772.772 1.528 1.559 2.283 2.348.328.343.634.704.952 1.055.352.386.71.767 1.064 1.152 1.433 1.568 2.847 3.147 4.204 4.782.693.835 1.398 1.661 2.1 2.49.338.397.687.787 1.017 1.192.374.458.741.922 1.108 1.387l.578.739c.308.411.616.822.92 1.237.296.402.605.798.884 1.213.576.859 1.097 1.753 1.659 2.621.594.922 1.199 1.838 1.815 2.746.597.878 1.204 1.749 1.792 2.635.501.756 1 1.515 1.479 2.286.236.381.463.768.688 1.157.102.18.206.36.304.543.11.207.208.419.334.618a.764.764 0 0 0 .85.346c.389-.107.644-.533.526-.926-.149-.494-.375-.943-.628-1.391a29.785 29.785 0 0 0-.72-1.22 306.97 306.97 0 0 0-1.678-2.632c-.584-.902-1.191-1.788-1.784-2.684a99.455 99.455 0 0 1-1.6-2.493c-.57-.92-1.103-1.867-1.714-2.763a65.606 65.606 0 0 0-1.811-2.55c-.702-.935-1.404-1.871-2.143-2.777-.662-.81-1.32-1.622-1.975-2.437-.665-.824-1.325-1.654-1.987-2.48-.693-.867-1.42-1.704-2.136-2.55-.666-.784-1.356-1.545-2.004-2.343a30.91 30.91 0 0 0-.999-1.155c-.336-.374-.667-.755-1.015-1.118a306.428 306.428 0 0 0-4.53-4.605c-.762-.76-1.519-1.526-2.3-2.267-.35-.33-.707-.654-1.06-.98-.41-.384-.824-.763-1.237-1.143-.706-.647-1.422-1.282-2.119-1.94a71.443 71.443 0 0 0-2.051-1.891c-.71-.62-1.442-1.216-2.137-1.85-.626-.573-1.243-1.152-1.781-1.808a5.218 5.218 0 0 1-.357-.576c-.076-.568-.068-.968-.068-1.367.001-.501.003-1.002.003-1.504.001-1.021.002-2.048-.08-3.068-.044-.578-.103-1.156-.236-1.721-.055-.232-.108-.464-.175-.692-.02-.068-.777-3.537-2.49-6.584-1.559-2.772-4.08-5.194-4.222-4.388-.128.726-.654 2.473 0 5 .368 1.423 2.338 3.234 3 5 1.637 4.369 2.303 8.806 2.297 8.93z" fill="#161616"/><g><path d="M216.21 202.81l-.013.055c-.043.182-.081.354-.118.518l-.034.144-.024.105-.003.014-.004.02c.129-.04.256-.081.383-.122.136-.209.276-.415.418-.62l-.003-.002a4.25 4.25 0 0 1-.082-.276 6.17 6.17 0 0 1-.073-.634c-.15.263-.3.53-.447.797m-2.113 4.288c-.081.23-.16.461-.234.694.223-.408.453-.813.685-1.216a2.07 2.07 0 0 1-.214-.099c-.085.205-.165.413-.237.621m62.546 138.524l-.004-.003h-.001l.187.167a40.77 40.77 0 0 0 1.806 1.489l.092.075.05.042.029.022.005-.034.01-.038a33.87 33.87 0 0 1-1.452-1.145 44.218 44.218 0 0 1-.685-.583c-.012.004-.024.008-.037.008m-6.755 9.491l-.027.186-.049.314-.076.524-.08.526-.093.628c.106-.4.217-.793.33-1.192l.01-.035.013-.046.011-.044.033-.117.03-.11a5.681 5.681 0 0 0-.063-.609 1.44 1.44 0 0 0-.026-.11l-.013.085zm-1.467 134.087a72.347 72.347 0 0 0-1.25 3.345l.11-.272a343.026 343.026 0 0 1 1.806-4.437l.094-.226.279-.678c-.41.874-.74 1.595-1.039 2.268" fill="#2C2C2C"/><path d="M315.603 286.122l-.166.182.992-.256-.826.074m-9.746 31.428c-.242.773-.501 1.54-.773 2.302l.816-1.905.335-.781c.004-.165.008-.33.014-.494l.011-.412-.403 1.29m-16.714 40.314c-.041.114-.055.233-.099.346-.082.21-.094.433-.052.649.038-.363.1-.72.183-1.076a2.194 2.194 0 0 0-.032.08M186.91 255.798c-.264.782-.52 1.568-.774 2.353l-.03.09c.426.144.837.32 1.25.506.683.306 1.33.692 2.003 1.016l.273.132.027-.082a128.975 128.975 0 0 1 .894-2.824c-.116-.064-.232-.13-.347-.196-.587-.336-1.154-.718-1.633-1.197-.503-.5-.83-1.14-.96-1.811a94.131 94.131 0 0 0-.703 2.013" fill="#161616"/><path d="M257.872 553.215l-.037-.07a7.242 7.242 0 0 1-.077-.26c.048.062.102.119.158.173.197.192.407.381.642.579a13.389 13.389 0 0 1-.686-.422zm-52.914 14.192a5.752 5.752 0 0 1-.744-.203 9.602 9.602 0 0 1-1.419-.806c-.373-.331-.699-.718-1.014-1.09l-.164-.197a16.656 16.656 0 0 1-.64-.868l-.257-.385-.258-.385c-.364-.546-.644-1.132-.892-1.684a94.514 94.514 0 0 1-.817-2.158 12.826 12.826 0 0 1-.233-.72l-.011-.04-.09-.292c-.175-.562-.355-1.14-.469-1.742a9.785 9.785 0 0 1 .02-2.007c.054-.346.114-.642.188-.934.093-.366.237-.722.401-1.115a42.67 42.67 0 0 1 1.151-2.379l.204-.404.052-.103.017-.032c.458-.898.932-1.828 1.446-2.711.539-.922 1.148-1.805 1.777-2.704a81.72 81.72 0 0 1 1.67-2.302c1.075.15 1.96.255 2.779.33.409.036.816.074 1.224.112.255.023.506.03.783.038l.096.002a24.323 24.323 0 0 0 1.3.03c.323 0 .645-.004.969-.01l.226-.002a36.439 36.439 0 0 0 3.936-.259l-.008.027-.002.033-.02.29a235.72 235.72 0 0 1-.226 2.958l-.003.038c-.023.273-.045.546-.066.82l-.008.11c-.05.642-.109 1.369-.18 2.075-.068.694-.164 1.395-.247 2.015l-.015.106-.096.738.017-.037-.017.078c-.152 1.112-.325 2.373-.685 3.537-.395 1.287-.913 2.545-1.416 3.762l-.01.026-.057.131c-.093.216-.198.46-.32.682-.206.382-.42.766-.638 1.14a33.196 33.196 0 0 1-1.21 1.883l-.134.168-.248.312c-.15.191-.323.379-.503.568l-.084.091a9.526 9.526 0 0 0-.17.185c-.194.215-.395.42-.602.628-.096.095-.191.19-.285.287a17.787 17.787 0 0 1-1.614 1.475c-.431.314-.84.57-1.249.778a4.41 4.41 0 0 1-.452.13 5.063 5.063 0 0 1-.683-.014zm83.93-11.023l-.077-.002c-1.168-.025-2.492-.055-3.774-.143-2.356-.159-4.72-.47-7.007-.769-1.3-.192-2.56-.39-3.8-.73l-.109-.03c-1.306-.358-2.645-.726-3.93-1.181a85.226 85.226 0 0 1-3.827-1.499 72.17 72.17 0 0 0-1.886-.74 78.773 78.773 0 0 1-1.878-.735l-.068-.028c-.592-.244-1.196-.495-1.733-.833-.393-.249-.8-.53-1.28-.883l-.07-.057c-.445-.358-.903-.726-1.283-1.158a2.759 2.759 0 0 1-.1-.152 6.806 6.806 0 0 1-.056-.227c.229-.817.504-1.624.719-2.234l.262-.756.014-.038c.326-.943.696-2.012 1.102-3.017.35-.796.686-1.491 1.024-2.125.174-.325.378-.636.574-.937l.108-.166c.105-.159.216-.332.317-.512l.585.061.588.057a36.4 36.4 0 0 0 1.902.133c1.46.061 2.986.103 4.54.125.507.007 1.015.01 1.522.01 2.598 0 4.917-.091 7.088-.279l.25-.022.266-.023c.117.63.6 1.16 1.23 1.345a702.42 702.42 0 0 1 6.6 1.98l1.877.573c.482.148.966.322 1.434.491l.028.01.072.026c.213.077.426.152.639.226 2.338.81 5.052 1.766 7.666 2.84-.295.448-.382 1.004-.228 1.448a4.3 4.3 0 0 0 .254.597c.089.167.212.314.331.456.04.047.08.093.117.142.084.102.18.194.274.283.067.063.113.107.158.152.055.092.107.187.156.285.088.263.16.551.22.881.023.353.015.714-.026 1.138a16.375 16.375 0 0 1-.684 2.532c-.13.262-.28.514-.46.771-.176.208-.412.48-.678.715a9.087 9.087 0 0 1-1.293.727 19.74 19.74 0 0 1-1.708.581c-.847.245-1.703.494-2.552.647-.542.047-1.124.07-1.83.07-.548 0-1.12-.014-1.58-.026zm-16.795-22.847l.222-.033.731-.003c.36-.003.721-.005 1.081-.006h.48c-.717.015-1.482.038-2.407.058l-.265.006.158-.022zm-12.062-.73l-.037-.011-.067-.13-.032-.09c.038.08.092.158.16.238l-.024-.006zm2.47-27.805l.03-.074.034-.073-.038.098-.026.076v-.027zm8.035-10.92l.19-.468v.252l.023.241a1.761 1.761 0 0 0-.213-.025zm-.999-7.307l.013-.03.014-.028a260.162 260.162 0 0 0-2.281 5.558l-.11.272a72.231 72.231 0 0 1 1.25-3.346c.304-.684.64-1.418 1.06-2.312l.02-.048.002.001a.837.837 0 0 0 .032-.067zm-15.289-111.016l.074-.018.05-.017.023.102.03.11.038.135a5.734 5.734 0 0 0-.215-.312zm-1.949-3.766l-.036.442-.007.01c.015-.148.03-.3.043-.452zm3.61-3.883l.018-.185c.18-1.828.45-3.663.714-5.439l.006-.033a250 250 0 0 0 .357-2.466c.143-.508.405-.956.778-1.329l.612-.472a3.086 3.086 0 0 1 2.332-.305c.755.21 1.414.715 1.81 1.387.272.468.41.98.413 1.522l-.058.43-.05.375c-.105.755-.213 1.51-.32 2.265l-.087.603c-.058.41-.116.82-.172 1.232l.017-.041-.02.055-.027.204-.03.211c-.348 2.684-.604 5.422-.85 8.07a561.406 561.406 0 0 1-.294 3.079l-.899 9.12-.351 3.566c-.084.85-.123 1.722-.16 2.566l-.01.192c-.014.294-.026.58-.041.868l-.089 1.656-.08 1.515-.007-.433c-.041-.977-.081-1.935-.127-2.891-.01-.218-.019-.435-.026-.652l-.007-.178-.001-.028c-.02-.505-.04-1.079-.082-1.626l-.11-1.406-.109-1.405c-.05-.651-.123-1.3-.193-1.902a73.21 73.21 0 0 1-.063-.545l-.005-.051-.022-.2a43.099 43.099 0 0 0-.228-1.842 94.116 94.116 0 0 1-.13-.895l-.006-.035c-.099-.688-.21-1.469-.357-2.216l-.184-.94-.181-.93a5.81 5.81 0 0 0-.107-.416 6.862 6.862 0 0 1-.055-.199l-.067-.256-.232-.886c-.26-.98-.594-2.127-1.126-3.206a4.261 4.261 0 0 0-.251-.415 19.95 19.95 0 0 0-.309-.404c.007-.04.013-.09.017-.137.076-.057.158-.094.237-.129l.05-.019a6.28 6.28 0 0 0 .188-.067c.346-.122.58-.3.735-.563a1.23 1.23 0 0 0 .124-.944 1.292 1.292 0 0 0-1.083-.908l.094-.868.086-.876v.008l.018-.186zm13.75-11.45l.079-.525.078-.523.047-.314.028-.187.013-.092c.042.164.077.484.09.727l-.032.11-.033.116-.011.044-.013.046-.01.035c-.112.399-.224.793-.33 1.192l.094-.628zm-8.731-4.428l-.028-.423c.013.009.034.009.055.009h.09c-.006.272-.002.55 0 .83a.814.814 0 0 0-.089.021l-.028-.437zm15.754-6.62a34.208 34.208 0 0 0 2.138 1.728l-.011.038-.005.036-.078-.066-.093-.075a40.615 40.615 0 0 1-1.806-1.489l-.192-.17.01.006a.117.117 0 0 0 .037-.008zm26.355-83.194c-.422.305-.923.487-1.416.653-.153.051-.304.104-.455.16a3.79 3.79 0 0 0-.226.123 8.334 8.334 0 0 1-.308.173c.046.51.09 1.022.135 1.532.045.527.079 1.057.112 1.6l.007.12.057.89c.04.609.071 1.239.099 1.983l.033.816v.03c.024.572.045 1.087.052 1.605v.04l.001.08v.059c.014.935.028 1.866.04 2.799.016 1.279.007 2.598 0 3.762l-.006.914c-.01 1.61-.02 3.219-.038 4.828a6976.6 6976.6 0 0 0-.105 10.229c-.005.545-.014 1.088-.023 1.631l-.006.338-.008.49a78.865 78.865 0 0 1-.08 2.214l-.009.176c-.06 1.307-.153 2.63-.236 3.798l-.078 1.13c-.091 1.355-.235 2.76-.339 3.787-.15 1.479-.26 2.533-.397 3.676-.12.804-.228 1.447-.34 2.024a21.083 21.083 0 0 1-.563 2.176c-.201.659-.465 1.297-.72 1.915l-.12.294c-.14.341-.277.683-.414 1.027l-.046.115c-.133.331-.267.664-.403.995l-.89 2.164-.115.28-.02.044c-.087.21-.186.45-.269.685a698.664 698.664 0 0 1-.717 2.046l-.1.29-.106.303-.013.036c-.353 1.017-.718 2.07-1.113 3.102l-.272.71a583.131 583.131 0 0 0-1.582 4.148c-.38 1.009-.749 2.041-1.105 3.039l-.174.484-.333.924-.17.47c-.09.448-.186.895-.292 1.34-.37 1.554-.748 3.1-1.166 4.641a322.846 322.846 0 0 1-2.41 8.465c-.477 1.577-2.111 2.558-3.734 2.113a2.98 2.98 0 0 1-1.163-.627 3.057 3.057 0 0 1-1.496-.413 3.048 3.048 0 0 1-1.396-3.415c.078-.283.203-.554.328-.822.176-.45.354-.9.54-1.348l.064-.152c-.215-.585-.29-1.285-.073-1.836.684-1.737 1.334-3.486 1.987-5.235.27-.72.519-1.45.764-2.179a2.4 2.4 0 0 0-.481-.046c-.246 0-.509.031-.762.09a8.384 8.384 0 0 0-.893.288l-.087.032-.157.057c-.571.209-1.16.424-1.743.603l-.7.212-.077.023c-1.025.31-2.084.632-3.148.903-2.943.744-5.937 1.434-8.752 2.078l-.066.015-.036.01-.061.014c-1.511.344-3.074.7-4.62.996l-.032.006-.647.127-.096.02c-.514.101-1.097.216-1.672.306l-2.571.395c-.306.035-.611.071-.917.108l-.097.01-.035.005c-.847.1-1.808.215-2.73.283-.424.033-.845.067-1.266.102l-.049.003a84.99 84.99 0 0 1-3.1.219l-1.166.059c-1.098.056-2.224.115-3.321.138l-.123.003c-1.104.029-2.774.07-4.32.07l-.292-.002c-.62 0-1.239-.002-1.859-.005a30.512 30.512 0 0 1-3.737-.255 18.678 18.678 0 0 1-2.013-.418l-.042-.01-.13-.036-.17-.047-.636-.183-.091-.026-.09-.027-.379-.096a.795.795 0 0 0-.292-.087l-.042-.008.052-.15c-.065-.03-.13-.057-.195-.084l.196.082v-.003c-.854-.372-1.678-.775-2.443-1.317a8.676 8.676 0 0 1-1.6-.728c-.774-.458-1.624-.859-2.19-1.582-.224-.286-.489-.573-.667-.897-.347-.636-.491-1.164-.54-1.879-.042-.591.113-1.2.287-1.764.193-.624.435-1.234.652-1.85.28-.79.55-1.583.816-2.378l.01-.299c.038-1.17.122-2.34.18-3.51.131-2.66.187-5.32.28-7.982.046-1.337.19-2.671.285-4.005.108-1.494.227-2.986.328-4.479.149-2.19.213-4.382.245-6.574a74.85 74.85 0 0 0-.097-1.443c-.068-.866-.169-1.726-.266-2.556l-.02-.166c-.059-.516-.119-1.024-.169-1.534l-.013-.143c-.096-.953-.24-2.394-.398-3.724a144.56 144.56 0 0 1-.348-2.54c-.048-.245-.094-.49-.14-.733-.495-2.604-1.052-5.197-1.604-7.791a129.26 129.26 0 0 0-.933-4.074l-.093.05c-.084.697-.35 1.328-.864 1.843a3.002 3.002 0 0 1-.312.27l.107 1.003.01.08.014.135c.137 1.285.292 2.56.46 3.789.03.226.063.451.098.677a213.845 213.845 0 0 1-.086 4.083l-.028.863-.002.045c-.084 2.608-.172 5.306-.132 7.955.043 2.845.086 5.9.1 8.965a840.36 840.36 0 0 1-.007 6.125l-.007 2.557-.002.826v.109c0 1.051-.002 2.137-.033 3.204l-.133 4.466-.005.207a200.38 200.38 0 0 0-.07 3.413c.166.352.254.738.237 1.136-.011.299-.062.595-.085.893-.026.342-.05.685-.07 1.027-.04.622-.1 1.243-.144 1.864-.05.723-.098 1.445-.143 2.168-.01.67-.013 1.359.157 2.018.21.815.99 1.41 1.855 1.416.115.127.255.23.403.338l.074.054c.19.14.465.218.774.218a1.646 1.646 0 0 0 .748-.177c.278.201.658.227.963.246l.081.003c.087 0 .175-.01.265-.029l-.165.458-.131.397c-.075.225-.148.45-.22.676-.16.502-.295.92-.448 1.341l-.085.236-.333.922a8.85 8.85 0 0 0-.113.324l-.009.026-.017.049c-.064.184-.13.376-.207.557l-.129.304-.038.09a115.375 115.375 0 0 1-1.594 2.92l-.037.066c-.2.357-.4.714-.597 1.072l-.169.305-.186.336-.086.154c-.299.54-.598 1.079-.9 1.616l-.05.089c-.303.538-.609 1.08-.946 1.595l-.028.22a94.855 94.855 0 0 1-1.206 7.244c-.07.34-.145.678-.221 1.016a7.454 7.454 0 0 1-.375 1.161l-.007.191-.105 2.76c-.022.576-.042 1.151-.066 1.726-.02.507-.04 1.014-.082 1.52-.056.67-.16 1.335-.25 2.002a2.824 2.824 0 0 1-.274.648c.04 1.443.068 2.995.088 4.813.002.264-.001.526-.004.79l-.004.376c-.002.112-.002.225-.002.336v.114c.002.286.003.582-.01.875-.014.302-.024.604-.035.907v.028c-.02.557-.04 1.188-.085 1.795-.309 4.149-.637 7.558-1.032 10.73a417.71 417.71 0 0 0-.692 5.955 82.194 82.194 0 0 0-.17 1.763l-.007.082-.01.116-.011.127c-.028.31-.056.62-.086.93l-.004.042c-.06.633-.121 1.273-.16 1.902-.028.417-.055.834-.08 1.25-.043.71-.101 1.634-.167 2.506-.026.325-.049.65-.071.975l-.017.234-.005.077c-.06.855-.12 1.739-.215 2.608-.035.31-.067.623-.1.935l-.004.047-.036.356-.01.102c-.088.855-.18 1.738-.29 2.611a1870.22 1870.22 0 0 0-.49 3.78c-.458 3.12-.961 6.456-1.634 10.818-.416 2.69-.835 5.547-1.174 7.841l-.013.1-.41 2.786c-.747 5.046-1.435 10.47-1.988 14.827l-.027.213c-.303 2.392-.627 4.934-.953 7.402l-.026.19-.024.182-.203 1.383c-.191 1.308-.35 2.396-.524 3.493l-.096.603-.034.207c-.236 1.49-.504 3.18-.749 4.826-.43 2.88-.87 5.759-1.31 8.637l-.007.044-.318 2.082a382.63 382.63 0 0 0-.836 5.675c-.08.582-.163 1.164-.246 1.747l-.01.078-.013.088-.017.115a212.31 212.31 0 0 0-.51 3.743l-.695 5.563c-.092.737-.192 1.473-.293 2.208-.124.908-.251 1.839-.358 2.757l-.276 2.355c-.272 2.338-.58 4.989-.917 7.595l-.106.75a150.513 150.513 0 0 1-.514 3.47l-.087.52a75.1 75.1 0 0 1-.241 1.42c-.209.088-.4.22-.571.39-.322.32-.626.876-.58 1.393.03.32.069.636.11.955.014.104.025.208.036.313.037.332.07.626.157.913.063.21.15.396.275.587l-.034.072-.054.135c-.224.56-.414 1.134-.573 1.628l-.136.412-.04.122c-.228.684-.46 1.378-.572 2.084a6.61 6.61 0 0 0-.085.785c-.013.228.027.475.062.692l.01.066c.073.467.269.914.537 1.23-.012.322.042.658.09.955.096.591.522 1.063.833 1.367.133.128.314.272.554.44.138.095.349.237.57.35.218.112.433.215.659.315.405.18.812.33 1.157.454-.581.675-1.14 1.344-1.709 2.041a51.445 51.445 0 0 0-1.934 2.513 29.236 29.236 0 0 0-1.715 2.737 48.58 48.58 0 0 0-2.772 5.883c-.819 2.07-1.349 4.016-1.622 5.95a32.87 32.87 0 0 0-.315 3.24c-.047 1.117.06 2.195.192 3.387.067.602.157 1.204.253 1.82l.036.232.01.064.086.585c.093.648.21 1.308.346 1.96l.008.033c.097.461.205.973.34 1.469.24.891.63 1.813 1.26 2.987.253.472.541.926.773 1.29l.146.235.02.034c.13.208.256.41.39.6l.658.946c.335.48.65.88.964 1.223.153.165.333.31.492.44l.054.043c.299.244.633.492.996.735.892.604 1.932.99 2.922 1.315 1.204.4 2.382.631 3.503.693.118.005.235.009.353.009.435 0 .874-.038 1.3-.075l.057-.004.124-.01.31-.027c.264-.022.526-.044.79-.07l.3-.03c.252-.025.503-.049.754-.08.162-.023.326-.042.49-.06.6-.072 1.207-.144 1.775-.318.56-.169 1.107-.434 1.618-.693.318-.16.622-.33.902-.506l.614-.387.616-.39c.208-.13.41-.277.588-.407l.123-.09.269-.193.084-.06.102-.074c.305-.22.619-.449.919-.68.634-.49 1.177-.978 1.657-1.493.269-.289.536-.579.798-.873.194-.22.38-.443.565-.669l.065-.08c.275-.338.628-.788.923-1.281.114-.19.221-.39.325-.586l.025-.048.014-.028.02-.04c.323-.61.637-1.247.962-1.947.388-.84.692-1.603.932-2.333.22-.665.402-1.364.567-2.02.324-1.288.542-2.706.707-4.596.116-1.323.201-2.794.27-4.627.027-.748.064-1.495.102-2.241.101-2.04.207-4.152.098-6.224l-.057-1.09-.058-1.09c-.039-.718-.077-1.435-.114-2.154l-.036-.738c-.06-1.186-.12-2.412-.237-3.618-.056-.57-.156-1.17-.306-1.834.398-.042.784-.108 1.176-.195.659-.151 1.326-.39 2.166-.778 1.422-.653 2.49-2.157 2.927-4.125.152-.685.225-1.24.228-1.745.001-.425-.03-.868-.097-1.394l-.07-.572-.015-.118c-.05-.403-.1-.812-.16-1.22.159-.797.204-1.5.138-2.145a9.253 9.253 0 0 0-.237-1.338c.15-.892.302-1.786.456-2.68.082-.479.153-.956.23-1.485l.06-.423c.095-.448.194-.898.294-1.347.303-1.36.508-2.713.728-4.216.237-1.636.366-3.23.5-4.996.12-1.588.14-2.959.063-4.19l-.04-.653-.002-.027-.002-.029c.089-.397.186-.795.282-1.191l.05-.203a89.985 89.985 0 0 0 .244-1.036c.123-.536.235-1.02.37-1.498l.15-.536c.146-.519.293-1.038.429-1.558.144-.556.273-1.13.402-1.72l.07-.312.118-.526c.119-.53.225-1.008.32-1.49a74.7 74.7 0 0 0 .415-2.266c.14-.841.214-1.661.29-2.57l.008-.092c.05-.585.106-1.249.125-1.89l.006-.176.001-.04c.009-.302.018-.614.013-.92l-.008-.346-.007-.334c-.002-.126-.007-.25-.012-.374l-.003-.057a7.946 7.946 0 0 1-.005-.727c.095-.505.232-1.011.42-1.546.076-.222.159-.443.242-.663l.038-.101.11-.293c.146-.393.296-.783.45-1.171.108-.237.218-.473.337-.706.265-.52.33-1.01.197-1.496a1.957 1.957 0 0 0-1.34-1.348l.278-1.375.315-1.588c.102-.517.191-1.047.273-1.545a2797.415 2797.415 0 0 0 1.034-5.998c.61-3.538 1.188-6.95 1.719-10.144.453-2.722.87-5.58 1.238-8.102l.015-.101.191-1.315.061-.453-.075.445c.19-1.293.364-2.586.538-3.88l.01-.075.33-2.171.33-2.17.085-.57c.188-1.237.397-2.496.58-3.608l.01-.061.09-.538.204-1.257c.36-2.229.714-4.46 1.067-6.69l.333-2.107-.09.746-1.495 14.996-.039.414c.077-.343.14-.696.203-1.05l.034-.186c.363-1.995.742-3.91 1.165-6.026l.074-.373.075-.372c.276-1.381.543-2.792.8-4.155l.022-.112.03-.158.204-1.08c.222-1.174.4-2.39.556-3.462l.012-.075c.064-.44.13-.881.197-1.32l.004-.032.084-.647.074-.58.02-.147c.156-1.2.315-2.423.452-3.629.234-2.056.49-4.266.772-6.5l.107-.854.022-.17c.477-3.784 1.02-8.073 1.582-12.209a467.205 467.205 0 0 1 1.603-10.917c.047-.286.182-.592.391-.887.088-.12.19-.243.306-.364l.036-.035.035-.035c.192-.19.409-.355.624-.481.214-.124.446-.223.687-.293l.035-.286.06-.59c.104-1.022.24-2.088.35-2.944.048-.367.095-.733.14-1.1l.022-.14c.085-.53.165-1.033.254-1.536a.943.943 0 0 0 .542-.269c.166-.168.318-.46.288-.693a4.612 4.612 0 0 1-.04-.61c.147.324.285.617.41.9.318.836.544 1.755.713 2.892.182 1.432.326 2.894.465 4.307l.007.064.004.047.103 1.05.008.07.007.075c.03.047.059.092.085.138.273.47.412.982.413 1.524-.035.268-.071.536-.108.803-.03.184-.06.37-.087.553.05.517.1 1.033.146 1.55.177 1.957.326 3.664.455 5.22l.092 1.092.085.997.06.667c.041.447.089.964.117 1.459l.089 1.617c.14 2.554.287 5.195.343 7.85l.016.78c.028 1.315.056 2.631.073 3.947l.01.937.001.075v.076c.014 1.186.028 2.412.062 3.618l.024.854.046 1.674.003.08c-.006 1.773-.015 3.545-.025 5.316l-.005.94-.002.184c-.015 2.642-.032 5.639-.12 8.549v.05c-.026.803-.05 1.61-.074 2.414l-.003.136a868.423 868.423 0 0 1-.222 6.924c-.062 1.684-.119 3.368-.175 5.052-.05 1.543-.1 3.069-.157 4.595l-.062 1.667c-.098 2.62-.2 5.331-.236 8.015-.007.515-.017 1.03-.026 1.545a182.58 182.58 0 0 0-.038 3.247c0 .398-.002.796-.005 1.194l-.003.292v.07c-.007 1.061-.015 2.158.016 3.246.013.444.023.89.034 1.335l.003.109c.026 1.108.055 2.255.113 3.392l.052 1.033c.054 1.107.11 2.214.175 3.32-.014.64-.028 1.279-.04 1.918-.032 1.79-.047 3.69-.057 5.218l-.002.16a817.715 817.715 0 0 1-.031 3.545 283.514 283.514 0 0 1-.104 5.285l-.033 1.037c-.036 1.097-.07 2.192-.093 3.285-.061 2.77-.1 5.825-.123 9.619l-.006.736-.004.652v.475a1.99 1.99 0 0 0-.102.624c.034.26.058.492.076.71.02.264.065.496.136.706l-.03.272-.032.275a90.56 90.56 0 0 0-.167 1.687l-.046.495a45.629 45.629 0 0 0-.217 4.227 34.144 34.144 0 0 0 .329 4.705c.09.656.183 1.333.372 1.984a6.25 6.25 0 0 0 .692 1.601c.287.458.649.811 1.172 1.144l-.033.045-.032.053c-.298.489-.58 1.028-.913 1.75a42.995 42.995 0 0 0-1.012 2.368c-.181.465-.347.941-.508 1.402l-.166.473-.168.474c-.415 1.172-.844 2.385-1.17 3.607a14.91 14.91 0 0 0-.418 2.45c-.058.63-.118 1.365-.09 2.091.033.872.115 1.643.247 2.357.092.496.247.979.503 1.563.266.608.58 1.057.96 1.37.671.555 1.415.985 2.055 1.331.573.312 1.146.625 1.715.946l.13.074.067.038c.215.12.43.241.65.356.39.207.806.373 1.209.533l.177.07c.542.218 1.125.407 1.64.574l.229.075c.693.229 1.382.467 2.073.707l.054.019c.24.083.48.17.718.258.384.14.759.277 1.132.396.735.236 1.476.406 2.104.543 1.426.303 2.886.557 4.143.773l.276.046c1.34.229 2.724.467 4.115.66.15.02.302.044.454.068l.059.008c.3.045.61.093.913.119l.68.056.678.057c.456.038.924.055 1.376.07l.034.003.165.005.32.013c1.44.058 2.865.1 4.446.146 1.454.04 2.933.1 4.363.158l.232.01c1.491.06 3.026.123 4.537.166l.348.01h.03c.9.025 1.83.051 2.744.051a47.9 47.9 0 0 0 1.022-.011l.298-.008h.032c.633-.015 1.289-.03 1.932-.07a67.42 67.42 0 0 0 2.355-.187c2.017-.198 3.862-.527 5.483-.98.375-.104.748-.236 1.11-.363l.19-.068c.436-.153.93-.326 1.404-.513a27.484 27.484 0 0 0 1.6-.688c.522-.24 1.033-.573 1.61-1.046.408-.335.75-.7 1.071-1.15.263-.364.426-.788.584-1.199l.04-.107c.158-.408.214-.843.268-1.266l.026-.208c.026-.19.019-.385.011-.572-.01-.292-.07-.68-.164-1.065-.229-.94-.54-1.853-.952-2.793a9.96 9.96 0 0 0-.292-.61c-.135-.262-.322-.496-.502-.722l-.06-.078a7.78 7.78 0 0 0-.602-.692c-.283-.28-.574-.56-.891-.854-.937-.872-1.842-1.572-2.766-2.14a21.055 21.055 0 0 0-1.96-1.075c-.928-.448-1.9-.879-2.759-1.258l-.339-.151-.813-.363c-.606-.273-1.212-.548-1.818-.823l-.402-.183c-.603-.275-1.207-.55-1.81-.822-1.328-.6-2.692-1.126-4.011-1.633l-.493-.19c-1.448-.561-2.642-1-3.757-1.385l-1.151-.402a88.736 88.736 0 0 0-3.543-1.187 1340.8 1340.8 0 0 0-4.355-1.317c.34-.114.69-.259 1.042-.427.331-.156.618-.317.877-.49.608-.405 1.11-.911 1.678-1.69.248-.343.419-.773.561-1.148a4.38 4.38 0 0 0 .234-.946c.064-.472.12-.94.08-1.463a44.275 44.275 0 0 0-.041-.543l-.015-.183a41.467 41.467 0 0 0-.279-2.387l-.008-.061-.008-.05a44.319 44.319 0 0 0-.365-2.277 72.88 72.88 0 0 0-.583-2.7l-.012-.053a75.662 75.662 0 0 1-.158-.68l-.042-.186c-.038-.168-.072-.326-.117-.482a9.734 9.734 0 0 0-.173-.552 2.066 2.066 0 0 0-.211-.544l.039-.364.019-.183.005-.051c.016-.146.031-.292.054-.434a7.91 7.91 0 0 0-.251-.625 5.236 5.236 0 0 0-.484-.848 4.383 4.383 0 0 0-.139-.197 4.388 4.388 0 0 1-.006-.217c-.002-.17-.004-.343-.061-.506a.86.86 0 0 0-.297-.42l-.007-.488-.031-1.485-.026-.99-.008-.32-.013-.429-.002-.105a177.28 177.28 0 0 1-.082-3.964l-.029-4.147-.028-4.172c-.022-3.386-.006-6.923.006-10.043l.001-.069.012-2.661c.006-1.724.028-3.458.053-5.232l.017-1.306c.016-1.417.069-2.86.12-4.257l.006-.152v-.034l.014-.342.01-.311c.02-.503.038-1.006.053-1.51.258-8.174.526-16.627.663-25.218.055-3.4.128-6.828.206-10.334l.066-3.047c.062-2.868.151-5.787.237-8.608l.002-.051.002-.073.002-.07c.043-1.433.086-2.866.127-4.3l.009-.297.005-.175.005-.186c.114-4.062.232-8.262.266-12.392.031-3.75.05-8.126.055-13.01.005-4.436.008-8.873.011-13.309V379.338a833.95 833.95 0 0 1 .032-9.974c.011-1.08.048-2.169.084-3.221l.003-.095.002-.06a186.003 186.003 0 0 0 .122-6.22c.004-1.006-.02-2.042-.044-3.018.268-.217.425-.526.544-.798a20.7 20.7 0 0 0 .343-.846c.132-.356.254-.727.355-1.042.182-.577.39-1.165.575-1.684l.01-.03.08-.223c.135-.381.28-.753.444-1.165l.062-.16c.093-.233.185-.469.273-.705l.428-1.153.446-1.196c.457-1.237.958-2.542 1.36-3.592l.053-.137.249-.647c.416-1.088.824-2.203 1.219-3.282l.031-.086.34-.927.474-1.3.034-.097.086-.235c.369-1.01.749-2.052 1.135-3.071.283-.752.57-1.5.86-2.25l.05-.132.184-.478.055-.14a52.1 52.1 0 0 0 .523-1.378c.376-1.052.747-2.124 1.11-3.17l.098-.281.08-.23.37-1.065c.199-.572.424-1.138.643-1.685l.018-.048.196-.49.398-1.002.486-1.226.25-.628a81.46 81.46 0 0 0 .602-1.542l.087-.233c.107-.285.213-.564.303-.85.092-.289.186-.624.303-1.086.417-1.667.616-3.392.784-5.018.34-3.284.521-6.607.665-9.463.075-1.537.147-3.19.146-4.843a504.312 504.312 0 0 0-.032-4.891c-.04-3.638-.084-7.118-.13-10.344-.024-1.749-.05-3.132-.084-4.485a393.787 393.787 0 0 0-.18-5.357c-.02-.55-.059-1.12-.094-1.654l-.006-.078-.013-.206-.003-.033c-.013-.191-.026-.38-.036-.571a62.702 62.702 0 0 0-.152-1.98 98.778 98.778 0 0 1-.07-.8c-.042-.493-.094-1.107-.16-1.703l-.297-2.68-.087.064zm-91.713 5.956l.094.079.008-.305-.102.226" fill="#161616"/><path d="M218.767 348.825l-.018.292c.01-.018.022-.035.032-.054a2.095 2.095 0 0 0 .087-1.963c-.031.575-.064 1.15-.1 1.725m85.309-87.363a378.011 378.011 0 0 1 .548 3.572 136.408 136.408 0 0 0-.414-3.756 6.62 6.62 0 0 1-.134.184m-21.729-27.269c-.59.16-.935.766-.785 1.378.201.825.407 1.48.647 2.057.192.464.407.927.614 1.376l.017.038.027.056.025.056.145.312.12.26.476 1.025.182.392c.321.687.723 1.543 1.08 2.374.4.96.755 1.915 1.059 2.837.35 1.062.543 2.176.728 3.252l.026.152c.086.505.163 1.025.24 1.557l.005.035a47.636 47.636 0 0 0 .498 2.947c.128.656.256 1.318.353 1.96.16 1.707.19 3.45.207 5.09.016 1.503-.075 3.087-.284 4.985l-.117.834-.023.168c-.12.855-.244 1.742-.353 2.62-.141 1.132-.28 2.264-.42 3.397-.24 1.6-.467 3.006-.695 4.3-.107.602-.218 1.206-.328 1.809l-.051.281-.005.027-.055.302c-.114.616-.225 1.215-.33 1.817a48.13 48.13 0 0 0-.184 1.138l-.044.275c-.026.168-.052.336-.08.504-.07.434-.147.868-.224 1.3l-.03.167-.128.73c-.153.88-.328 1.783-.493 2.631-.11.572-.221 1.144-.327 1.715a125.21 125.21 0 0 0-1.361 9.104c-.136 1.228-.287 2.657-.364 4.074-.04.75-.085 1.5-.13 2.25-.048.809-.095 1.617-.138 2.426-.145 2.676-.163 5.393-.18 8.02v.038l-.003.369-.002.37c-.01 1.393-.018 2.789-.017 4.183.001 1.187.026 2.456.2 3.692a3.87 3.87 0 0 1-.481.03 3.12 3.12 0 0 1-.418-.028v.169c.18.236.323.47.426.694.465 1.016.762 1.828.962 2.634.116.467.223.96.325 1.507.38.398.645.854.79 1.358.193.674.2 1.384.022 2.053-.036.14-.084.294-.147.468-.058.16-.122.317-.19.473l-.006.044a3.21 3.21 0 0 1-.368.988l-.015.026a2.986 2.986 0 0 1-.435.55c-.22.22-.48.408-.773.558l-.12.103-.057.05a3.139 3.139 0 0 1 1.187 1.692c.034.125.06.251.078.378l.064-.185c.411-1.203.792-2.418 1.18-3.629.112-.355.207-.717.293-1.08.184-.928.344-1.861.507-2.794.105-.842.21-1.684.28-2.53.099-1.202.197-2.404.294-3.607.078-.968.17-1.932.273-2.895a23.468 23.468 0 0 1-.004-.364c-.004-1.513 0-3.026.003-4.539.008-2.587.03-5.644.132-8.689.027-.781.07-1.59.111-2.304l.005-.098.035-.62c.022-.402.042-.806.061-1.209.023-.5.047-1.002.078-1.503.116-1.941.329-3.895.537-5.728.388-2.735.843-5.53 1.355-8.31.243-1.319.498-2.74.715-4.202.202-1.356.432-2.781.615-3.927l.005-.028.048-.294.141-.87c.174-1.067.392-2.395.567-3.652.21-1.522.365-3.055.516-4.623.097-1.005.21-2.026.32-3.014l.007-.06.006-.06.12-1.088c.147-1.336.178-2.665.18-4.25 0-.494-.027-.998-.053-1.486l-.004-.03h.003a44.933 44.933 0 0 1-.032-.655 57.398 57.398 0 0 0-.133-2.155c-.052-.65-.13-1.5-.271-2.313-.123-.713-.299-1.405-.468-2.074l-.008-.03c-.35-1.379-.614-2.81-.853-4.157-.248-1.398-.51-2.761-.98-4.081-.528-1.473-1.206-2.89-1.738-3.96-.684-1.379-1.478-2.988-2.213-4.64a13.888 13.888 0 0 1-.588-1.914c-.117-.475-.578-.82-1.097-.82-.1 0-.193.013-.287.04m-26.1 118.57a1.84 1.84 0 0 0-1.092.836c-.263.448-.277.905-.183 1.402l.218 1.15c.028.192.053.386.084.579l.104.655a71.4 71.4 0 0 0 .252 2.446l.189 1.5a2.087 2.087 0 0 0-1.249-.045c-1.09.3-1.806 1.49-1.475 2.59l.201.669c-.158.39-.153.789-.075 1.22.103.561.182 1.128.331 1.678l.372 1.372c.183.674.36 1.35.548 2.022.413 1.469.823 2.94 1.249 4.406.812 2.793 1.744 5.549 2.655 8.31l.102.99c.134 1.298.225 2.601.336 3.901l.446 5.207c.06.684.109 1.37.157 2.055.083 2.21.148 4.421.36 6.621.043.447.15.823.478 1.15a1.64 1.64 0 0 0 1.153.476c.888 0 1.632-.74 1.63-1.626 0-.568.025-1.14-.015-1.707l-.062-.855-.126-1.754c-.015-.511-.028-1.023-.041-1.533.066.006.133.01.2.01 1.047 0 2.042-.904 1.991-1.984-.077-1.637-.245-3.272-.38-4.903-.127-1.535-.265-3.068-.4-4.603-.108-1.233-.243-2.462-.377-3.692l.067-.037c.239-.14.427-.328.568-.566.23-.391.235-.781.16-1.214l-.095-.542c-.358-2.953-.556-5.921-.777-8.886-.237-3.183-.451-6.368-.669-9.553l-.18-2.64c-.029-.415-.148-.78-.449-1.08a1.542 1.542 0 0 0-1.084-.447c-.793 0-1.59.695-1.533 1.527l.119 1.753a2.126 2.126 0 0 0-.56-.265l-.178-1.138c-.076-.487-.154-.974-.232-1.46l-.171-1.067c-.089-.554-.131-1.125-.32-1.657-.164-.46-.408-.835-.84-1.088a1.838 1.838 0 0 0-1.407-.183" fill="#161616"/><path d="M258.013 360.775l-.013.108.013-.108m-1.401-3.25l.007.002.075.044c.052.049.102.1.15.153.073.101.14.204.206.308-.01.064-.014.129-.014.195a3.154 3.154 0 0 0-.026.375c.003.232.062.434.145.645.079.2.16.397.254.59.084.171.208.315.339.45.087.09.188.164.298.222l-.027.223c-.123.862-.279 1.719-.43 2.575l-.138.787c-.05.277-.113.553-.174.827-.033.143-.063.29-.097.436a4.76 4.76 0 0 1-.354-.657c-.17-.426-.315-.855-.427-1.3a16.748 16.748 0 0 1-.306-1.624 33.76 33.76 0 0 1-.18-2.145c-.04-.688-.055-1.37-.022-2.059l.005-.01a6.57 6.57 0 0 1 .191-.044c.175-.01.348-.005.525.007m-.21-.034c.046.004.092.01.137.019l-.137-.019m1.508-2.694a.741.741 0 0 0-.512.525c-.61-.19-1.3-.139-1.91 0-.37.083-.746.25-1.028.508-.137.125-.26.266-.362.422a3.183 3.183 0 0 0-.305.63c-.07.178-.067.39-.081.58-.012.15.01.308.015.459.012.338.028.675.057 1.013.025.295.066.59.1.884.039.348.08.693.125 1.04.101.793.235 1.573.407 2.354a11 11 0 0 0 .66 2.021c.271.626.601 1.213 1.118 1.672.253.227.525.385.848.492.136.045.433.06.569.008l.107-.04a.863.863 0 0 0 .38-.222c.254-.202.45-.485.556-.793.108-.318.152-.661.22-.99.094-.449.167-.903.235-1.357.046.16.094.32.143.48.149.478.337.942.52 1.408.329.83.678 1.655 1.194 2.387.116.166.245.323.376.477.162.19.374.338.576.483.169.12.354.22.533.324.22.125.437.242.664.353.287.138.632.08.802-.21.152-.259.077-.66-.21-.799a9.014 9.014 0 0 1-1.266-.73 3.166 3.166 0 0 1-.408-.424 7.673 7.673 0 0 1-.686-1.18c.111.004.224-.01.336-.04.293-.08.548-.276.702-.538.164-.28.188-.588.118-.9-.218-.974-.504-1.929-.798-2.882-.245-.796-.476-1.6-.762-2.382-.207-.561-.388-1.132-.647-1.672-.125-.257-.32-.488-.515-.694a1.24 1.24 0 0 0-.156-.139 42.43 42.43 0 0 0-.055-.378 4.516 4.516 0 0 0-.316-1.134 1.808 1.808 0 0 0-.217-.397c-.127-.17-.275-.294-.43-.436a.765.765 0 0 0-.51-.208.69.69 0 0 0-.187.025m19.388-13.32a1.31 1.31 0 0 0-.76.421c-.27.293-.402.68-.547 1.043.032-.078.065-.154.098-.23-.229.539-.463 1.083-.66 1.638-.261.328-.42.742-.427 1.187-.004.313.02.629.05.942 0 .324.031.65.052.97.073 1.11.256 2.224.428 3.324.227 1.452.794 2.785 1.38 4.122.256.584.513 1.167.797 1.737.4.803.82 1.572 1.411 2.258.23.266.5.505.766.734.334.289.674.571 1.029.833a12.14 12.14 0 0 0 1.573 1.013 6.9 6.9 0 0 0 1.195.498c.242.073.476.134.727.17.476.072.718.108 1.195.006.225-.05.45-.125.634-.265a1.99 1.99 0 0 0 .707-.705c.256-.435.36-1.024.198-1.513-.073-.222-.147-.444-.286-.633l-.054-.073c.204-.225.349-.486.432-.782.037-.213.067-.429.09-.645 0-.446-.156-.818-.385-1.19-.257-.419-.599-.652-.984-.943l-.403-.3c-.792-.651-1.488-1.4-2.151-2.178a72.93 72.93 0 0 1-1.93-2.369c-.422-.592-.874-1.18-1.223-1.82a28.494 28.494 0 0 1-.917-1.819c-.099-.26-.199-.52-.278-.785a16.827 16.827 0 0 1-.152-.531c-.05-.187-.073-.38-.127-.564a1.96 1.96 0 0 0-.736-1.043c.124-.472.247-.945.35-1.42.065-.315.004-.628-.23-.86a.857.857 0 0 0-.627-.25 1.27 1.27 0 0 0-.235.022" fill="#161616"/><path d="M283.579 318.802c-.406.237-.592.635-.626 1.088-.015.205.02.407.04.61.016.163.03.327.045.49.032.366.069.73.113 1.096.036.3.067.601.094.902a1.378 1.378 0 0 0-1.717.561c-.256.433-.247.938-.276 1.424a9.167 9.167 0 0 0-.011.638c.003.494.02.985.057 1.478.068.956.206 1.904.347 2.851.022.526.039 1.052.053 1.578.032 1.177.083 2.358.048 3.535a71.445 71.445 0 0 1-.08 1.845c-.015.266-.03.533-.035.8-.003.194-.008.392.001.59l-.028.077a3.3 3.3 0 0 1-.157.265c-.02.02-.039.039-.06.057-.303.217-.617.412-.942.599-.443.255-.891.5-1.358.712-.308.123-.62.236-.937.339-.358.115-.656.322-.85.65a1.422 1.422 0 0 0-.143 1.091c.199.718 1.01 1.228 1.749.99a27.9 27.9 0 0 0 .377-.128c-.13.11-.26.217-.392.324-.963.737-1.927 1.475-2.919 2.174-.26.182-.455.388-.543.702a1.18 1.18 0 0 0 .12.907c.314.535 1.073.77 1.614.422 1.436-.922 2.86-1.888 4.2-2.94.684-.538 1.294-1.192 1.887-1.825a14.171 14.171 0 0 0 1.438-1.774c.382-.568.634-1.197.867-1.836.258-.706.362-1.46.416-2.205.047-.647.006-1.306 0-1.953a215.64 215.64 0 0 0-.02-1.97c0-.132-.003-.265-.005-.398.014-.118.026-.237.038-.356.068-.66.117-1.325.158-1.988.084-1.356.134-2.724.026-4.081-.11-1.387-.201-2.779-.353-4.163l-.125-1.156c-.028-.272-.07-.544-.108-.817a2.45 2.45 0 0 0-.087-.406c-.116-.366-.328-.585-.64-.8a1.076 1.076 0 0 0-.61-.173 1.35 1.35 0 0 0-.666.174m-72.309-52.596c-.111.013-.214.017-.314.076-.13.075-.234.201-.333.309-.126.136-.21.318-.284.497a1.75 1.75 0 0 0-.871.014 1.363 1.363 0 0 0-.329.101c.816.29 1.614.649 2.268 1.221l.053-2.179a.36.36 0 0 0-.159-.04l-.03.001" fill="#161616"/><path d="M210.552 267.26c-.38.013-.76.028-1.139.044.72.272 1.413.612 1.994 1.12l.058-2.386a1.78 1.78 0 0 0-.913 1.222m73.121-32.078c-.331.09-.619.312-.793.607-.165.283-.254.702-.133 1.019a309.558 309.558 0 0 1 2.753 7.553c.352 1.006.724 2.01 1.028 3.032.32 1.08.531 2.181.708 3.292.13 1.029.256 2.058.358 3.09.107 1.11.127 2.232.153 3.346.026 1.114.03 2.228.023 3.342-.006 1.062-.157 2.13-.275 3.185a81.335 81.335 0 0 1-.684 3.877c-.282 1.416-.585 2.826-.865 4.24-.275 1.395-.577 2.783-.875 4.171-.296 1.382-.498 2.782-.728 4.177a190.77 190.77 0 0 0-.957 6.317 68.35 68.35 0 0 0-.477 4.407c-.102 1.446-.14 2.896-.233 4.342a131.091 131.091 0 0 1-.357 4.307c-.14 1.456-.303 2.908-.408 4.367-.103 1.43-.224 2.859-.341 4.288-.12 1.453-.133 2.915-.226 4.371-.087 1.37-.217 2.748-.228 4.122a34.359 34.359 0 0 0 .215 4.19c.098.855.206 1.709.35 2.556.117.688.262 1.37.404 2.052.148.713.31 1.426.47 2.137.154.677.316 1.347.432 2.032.137 1.205.166 2.417.205 3.63.026.793.112 1.564.227 2.349.087.592.22 1.168.344 1.752.006.16.002.318-.01.477-.05.262-.114.515-.196.772-.222.693.139 1.484.752 1.843.379.22.84.28 1.261.163.368-.1.82-.383.978-.748.171-.393.335-.786.478-1.19.032-.09.062-.18.091-.274l.044-.138.06-.25.094-.7c-.002-.626-.152-1.234-.263-1.846-.05-.418-.102-.837-.127-1.258-.036-.613-.04-1.228-.065-1.842-.023-.58-.039-1.163-.088-1.74a27.39 27.39 0 0 0-.297-2.268c-.099-.573-.249-1.135-.385-1.7-.138-.575-.256-1.156-.385-1.732a45.272 45.272 0 0 1-.614-3.264c-.163-1.28-.294-2.572-.33-3.862-.039-1.397.04-2.794.125-4.189a211.7 211.7 0 0 0 .207-4.361c.057-1.427.215-2.848.308-4.272a118.6 118.6 0 0 1 .361-4.33c.153-1.481.263-2.97.388-4.454.12-1.434.153-2.875.221-4.313.069-1.448.2-2.888.375-4.326.07-.588.151-1.175.226-1.763.194-1.347.406-2.692.603-4.039.206-1.415.417-2.828.655-4.238.12-.708.27-1.413.405-2.119.13-.673.255-1.347.386-2.02.276-1.399.531-2.801.793-4.203.278-1.498.521-2.994.717-4.504a36.22 36.22 0 0 0 .195-2.052c.056-.746.123-1.496.096-2.244-.05-1.405-.094-2.813-.184-4.216a99.763 99.763 0 0 0-.176-2.32c-.069-.79-.2-1.574-.326-2.357-.102-.627-.187-1.256-.302-1.88-.107-.58-.245-1.155-.38-1.728-.298-1.263-.781-2.488-1.213-3.709a362.216 362.216 0 0 0-2.936-8.033c-.126-.334-.29-.604-.609-.79a1.33 1.33 0 0 0-1.023-.133m-61.968 105.761c-.776.141-1.505.4-2.21.752a3.1 3.1 0 0 0-.398.244c-.039.948-.06 1.896-.11 2.843-.07 1.347-.134 2.698-.22 4.043v.015c.344-.118.574-.347.787-.643.21-.291.424-.577.64-.86.34-.416.706-.781 1.118-1.12a13.23 13.23 0 0 1 2.329-1.319c.253-.097.507-.195.767-.277.37-.118.75-.184 1.125-.286.139-.038.269-.095.389-.169a8.09 8.09 0 0 1-1.2-.58c-.773-.457-1.623-.858-2.189-1.582-.224-.286-.489-.572-.667-.897a6.657 6.657 0 0 1-.093-.176l-.068.012" fill="#161616"/><path d="M221.773 334.398l-.01.065.01-.065m.016-7.69c-.262.873-.51 1.75-.76 2.628-.172.61-.313 1.232-.468 1.848-.15.598-.267 1.205-.393 1.808-.123.596-.25 1.191-.357 1.791-.112.62-.255 1.235-.373 1.855l-.027.142a220.698 220.698 0 0 0-.283 4.474 89.44 89.44 0 0 0-.06 1.498c.035.111.074.221.119.33.112.278.226.552.4.796.149.207.308.405.478.594.334.375.728.72 1.124 1.03a10.1 10.1 0 0 0 1.652 1.057c.566.285 1.149.532 1.733.775.588.249 1.18.484 1.79.674.597.185 1.239.263 1.854.363 1.236.2 2.475.39 3.707.617.72.132 1.435.27 2.162.356.66.078 1.32.15 1.98.218 1.317.133 2.652.124 3.975.141 3.564.045 7.136-.046 10.698-.194.368-.016.703-.137.966-.4a1.365 1.365 0 0 0 0-1.927c-.263-.263-.598-.384-.966-.4a315.58 315.58 0 0 0-8.21-.23c-1.256-.02-2.513-.024-3.77-.065-.662-.022-1.325-.048-1.988-.08-.634-.032-1.265-.118-1.895-.193l-.668-.076c-.738-.119-1.47-.275-2.209-.392-.826-.132-1.65-.27-2.478-.389-.833-.118-1.681-.228-2.488-.466-.679-.2-1.344-.461-2-.733-.86-.37-1.686-.781-2.44-1.341l-.23-.179a5.44 5.44 0 0 1-.577-.516 3.925 3.925 0 0 1-.218-.386 4.948 4.948 0 0 1-.21-.758c-.063-.762-.004-1.525.039-2.288.023-.415.022-.831.04-1.246.019-.419.066-.834.118-1.25.088-.653.162-1.305.239-1.959.138-.994.287-1.985.511-2.963.127-.552.246-1.105.397-1.65.216-.78.431-1.558.659-2.333l.023-.637a.846.846 0 0 0-.786-.557.853.853 0 0 0-.81.612m34.231 46.96c-.054.024-.109.046-.164.069-.2.059-.386.147-.556.263-.323.2-.602.474-.845.764-.72.865-1.193 1.865-1.62 2.896a54.392 54.392 0 0 0-1.214 3.197c-.35 1.022-.694 2.045-1.036 3.068a779.812 779.812 0 0 1-3.22 9.433 453.605 453.605 0 0 0-2.385 6.95l-.649 1.869c-.352 1.018-.852 2.041-.875 3.138-.013.58.41 1.11.965 1.262.227.062.467.062.692.001l-.926 3.502c-.374 1.415-.728 2.834-1.086 4.253-.337 1.333-.69 2.663-.995 4.004-.74 3.246-1.499 6.488-2.172 9.749-.728 3.53-1.448 7.06-2.154 10.594l-.29 1.448c-.11.557-.262 1.104-.398 1.654a10.4 10.4 0 0 0-.208 1.149 5.381 5.381 0 0 0-.058.539c-.023.287.027.557.093.837.13.545.676.93 1.225.93.088 0 .176-.01.262-.03-.068.4-.134.798-.196 1.198l-.413 2.662c-.156 1.001-.255 2.012-.38 3.017-.136 1.103-.28 2.207-.422 3.31-.244 1.493-.482 2.987-.761 4.475-.325 1.73-.66 3.459-1.01 5.184-.305 1.507-.633 3.007-.957 4.51-.194.896-.344 1.804-.516 2.705a75.228 75.228 0 0 0-.328 1.874c-.537 3.242-1.019 6.491-1.505 9.742-.522 3.5-1.066 6.997-1.608 10.495-.398 2.565-.865 5.114-1.322 7.669l-1.028 5.757c-.409 2.292-.859 4.579-1.296 6.866-.07.362-.058.697.134 1.024.174.297.463.52.797.611.658.18 1.504-.216 1.64-.928.469-2.447.945-4.892 1.384-7.344l1.2-6.691c.252-1.416.504-2.832.76-4.247.086-.476.15-.957.225-1.434l.519-3.309a3153.73 3153.73 0 0 0 1.56-10.058c.234-1.523.477-3.046.715-4.568.113-.718.248-1.43.372-2.146.121-.698.23-1.4.369-2.094l.6-2.994c.147-.732.325-1.458.49-2.185.364-1.61.698-3.227 1.04-4.842.149-.709.28-1.422.42-2.133.136-.689.281-1.378.403-2.069.174-.992.35-1.983.523-2.975.132-.75.221-1.509.329-2.263.098-.686.194-1.371.29-2.058.105-.757.192-1.519.32-2.272.28-1.654.558-3.305.876-4.951.336-1.73.678-3.457 1.026-5.185.278-1.383.546-2.77.853-4.146.71-3.181 1.413-6.362 2.27-9.507.888-3.257 1.744-6.522 2.664-9.77.424-1.504.865-3.005 1.3-4.506.483-1.665.934-3.338 1.39-5.012a989.084 989.084 0 0 1 2.48-8.914l.093-.331-.002.306c-.015 1.622-.053 3.247-.041 4.87.014 1.988.027 3.978.042 5.965.008 1.296.047 2.586.087 3.88.05 1.582.083 3.165.154 4.746.155 3.417.314 6.835.477 10.253.16 3.35.422 6.7.643 10.05.192 2.897.406 5.795.603 8.692.242 3.548.48 7.095.712 10.643.11 1.67.178 3.344.267 5.016.085 1.622.167 3.244.25 4.866.331 6.422.368 12.855.47 19.283.053 3.28.234 6.56.448 9.832.1 1.503.231 3.004.348 4.506.128 1.627.22 3.256.288 4.886.072 1.754.112 3.512.188 5.268.036.825.086 1.648.147 2.472.031.42.063.84.097 1.259.043.557.06 1.148.243 1.678.044.155.106.3.188.432.01 2.166.03 4.331.083 6.496-.005 1.025.862 1.879 1.885 1.879 1.046 0 1.86-.855 1.885-1.88.081-3.312.08-6.628.097-9.942.016-3.088.023-6.174.024-9.263.001-3.282.001-6.564-.03-9.847-.028-3.178-.05-6.361-.16-9.538-.053-1.553-.096-3.106-.164-4.659-.07-1.61-.145-3.22-.204-4.83a532.6 532.6 0 0 0-.44-9.977c-.1-1.808-.201-3.618-.284-5.428.008-5.374.028-10.747.04-16.12.014-6.395.033-12.79.041-19.186l.013-9.645.002-2.35c0-.734.01-1.476-.028-2.208l-.139-2.737c-.04-.781-.118-1.564-.178-2.344-.253-3.266-.612-6.524-.92-9.785-.066-.685-.11-1.374-.193-2.058a101.14 101.14 0 0 0-.402-3.028c-.119-.79-.275-1.574-.43-2.357a35.494 35.494 0 0 0-.483-2.166c-.162-.61-.354-1.19-.652-1.752a1.875 1.875 0 0 0-.9-.833c.115-.384.23-.768.343-1.153.213-.731.462-1.455.648-2.194.089-.35.177-.702.246-1.059.117-.617.224-1.268.174-1.898a4.983 4.983 0 0 0-.127-.788c-.06-.242-.186-.472-.296-.695-.213-.428-.637-.756-1.02-1.016a2.148 2.148 0 0 0-.647-.27 1.497 1.497 0 0 0-.403-.053c-.222 0-.439.041-.675.075" fill="#161616"/><path d="M219.463 283.577c-.48.477-1.11.78-1.78.862.217 1.073.392 2.153.569 3.233.288 1.754.58 3.509.838 5.268.265 1.997.569 3.989.861 5.982.323 2.59.617 5.184.712 7.795.024.685.034 1.37.075 2.054.037.643.084 1.285.117 1.928a312.9 312.9 0 0 0 .27 4.327c.095 1.406.169 2.814.257 4.221.084 1.312.16 2.624.231 3.937.148 2.765.25 5.531.436 8.294.027.38.052.762.08 1.143.028.37.13.693.4.963.151.15.334.261.533.328.007-.325.019-.65.03-.975.037-1.17.12-2.34.178-3.51.132-2.66.188-5.32.28-7.982.047-1.337.19-2.672.286-4.005.103-1.417.215-2.833.312-4.248-.03-.488-.06-.975-.085-1.463-.07-1.401-.173-2.8-.21-4.202-.075-2.662-.319-5.313-.644-7.955-.26-2.116-.605-4.22-.908-6.33l.057.42c-.375-2.786-.855-5.555-1.35-8.321a70.362 70.362 0 0 0-.383-2.013 24.938 24.938 0 0 0-.334-1.352 2.974 2.974 0 0 1-.828 1.6" fill="#161616"/><path d="M217.704 241.2a.739.739 0 0 0-.192.282c-.885.01-1.74.628-1.955 1.5-.126.512-.176 1.041-.238 1.563-.041.35-.081.7-.119 1.05-.074.681-.14 1.363-.172 2.047-.034.702-.05 1.402-.053 2.105-.004.674.037 1.348.07 2.02.062 1.387.203 2.769.258 4.155.06 1.482.124 2.962.206 4.443.072 1.333.205 2.673.359 3.997l.312 2.66c.016.333.036.667.054 1 .037.7.07 1.4.099 2.101.027.672.082 1.339.142 2.008.135 1.501.341 2.995.577 4.483.215 1.358.466 2.712.684 4.07.187 1.163.365 2.327.574 3.486.47 3.602.971 7.2 1.569 10.785.091.545.207 1.087.312 1.631.045.228.098.454.15.68l.112.488c.078.34.217.645.355.966l.212.274c.035.319.069.637.097.956.131 1.46.284 2.917.41 4.377.243 2.804.306 5.615.337 8.426.015 1.372.018 2.743.007 4.113-.005.637-.048 1.278-.076 1.914l-.094 2.167c-.119 2.84-.339 5.671-.615 8.5-.103 1.056-.244 2.108-.352 3.162-.11 1.079-.23 2.156-.346 3.234-.111 1.03-.255 2.055-.378 3.084-.061.515-.121 1.03-.17 1.545-.031.324-.06.651-.032.977.051.597.19 1.287.665 1.708.148.136.305.26.472.373.338.197.693.266 1.082.266a1.946 1.946 0 0 0 1.859-1.412 1.94 1.94 0 0 0 0-1.02l-.013-.03c.104-.756.196-1.513.295-2.27.198-1.435.393-2.871.578-4.31.174-1.34.318-2.685.49-4.027.36-2.818.57-5.655.718-8.49.07-1.34.117-2.68.17-4.018.03-.785.053-1.565.06-2.35.005-.62-.001-1.238-.008-1.858-.012-1.426-.011-2.855-.058-4.28a119.52 119.52 0 0 0-.219-4.263c-.19-2.759-.53-5.504-.809-8.254-.137-1.358-.201-2.724-.28-4.086a76.415 76.415 0 0 0-.386-4.327c-.113-.972-.278-1.936-.409-2.904-.108-.789-.218-1.577-.33-2.365a333.398 333.398 0 0 0-.467-3.456 590.193 590.193 0 0 0-.803-6.037c-.126-.961-.254-1.923-.386-2.884-.174-1.43-.343-2.86-.477-4.295a176.129 176.129 0 0 1-.323-4.108 759.626 759.626 0 0 0-.66-8.888c-.126-1.537-.259-3.072-.39-4.608-.061-.727-.134-1.455-.201-2.182-.127-1.366-.208-2.744-.466-4.091a2.06 2.06 0 0 0-.267-.583c-.05-.52-.224-1.036-.71-1.306a.7.7 0 0 0-.831.107" fill="#161616"/><path d="M219.425 231.648c-.176.073-.31.117-.45.255-.11.11-.189.246-.256.384a4.24 4.24 0 0 0-.165.391 19.677 19.677 0 0 0-.551 1.648c-.242.832-.475 1.666-.71 2.5-.24.846-.476 1.694-.713 2.54-.223.795-.412 1.6-.613 2.4-.106.418-.191.84-.282 1.26-.074.35.041.704.353.897a4.071 4.071 0 0 0-.048.474c.003.112.015.223.035.333.03.081.065.16.104.238.09.187.298.312.504.35a.58.58 0 0 0 .084.197l-.056.458c-.017.143.073.31.17.408.108.107.257.17.41.17a.588.588 0 0 0 .41-.17c.117-.119.15-.249.17-.408l.025-.216-.02.454a89.827 89.827 0 0 0-.051 1.924c-.004.284.008.568.019.852.004.127.012.253.02.38l.02.27c.013.186.014.384.086.557a.704.704 0 0 0 1.17.308c.142-.14.185-.301.205-.494.053-.501.048-1.009.06-1.514.01-.403.01-.808.015-1.21.008-.631.013-1.263.018-1.893l.02-.256c.115-1.532.293-3.059.463-4.585.082-.555.152-1.114.255-1.666.115-.631.217-1.268.354-1.895.147-.67.291-1.342.456-2.008.078-.318.158-.635.232-.953.107-.457.234-.923.265-1.392.02-.3-.181-.604-.433-.751a.907.907 0 0 0-.749-.07 1.021 1.021 0 0 0-.598-.209.6.6 0 0 0-.228.042m-4.079 24.522c-.207.196-.317.465-.428.72-.099.227-.19.457-.283.686-.161.4-.307.808-.459 1.212-.291.776-.597 1.547-.9 2.318a99.088 99.088 0 0 0-.941 2.46 15.612 15.612 0 0 0-.462 1.516h-.036a.624.624 0 0 0-.55.374c-.18-.1-.36-.2-.535-.305a1.28 1.28 0 0 0-1.731.453 1.271 1.271 0 0 0-.128.972l.128.3c.11.187.258.335.442.446.743.285 1.456.645 2.043 1.191.201.187.397.406.565.646.106.075.214.145.329.208.333.185.735.263 1.109.162.196-.055.412-.18.557-.324.173-.172.241-.325.326-.548.089-.228.096-.482.12-.725l.027-.29c.02-.238.045-.475.074-.712.23-1.605.587-3.19.994-4.758.231-.883.463-1.766.703-2.647.117-.429.23-.857.326-1.29.047-.217.09-.435.135-.652l.08-.39a1.35 1.35 0 0 0-.004-.603c-.049-.177-.137-.282-.252-.42-.142-.17-.41-.257-.625-.257a.899.899 0 0 0-.624.257" fill="#161616"/></g><path d="M233.301 184.913C232.6 195.687 229.263 203.596 222 210c-1.714 1.512-4 0-7 1-8.092 2.697-24.565 40.337-31 45l27 11" stroke="#161616" stroke-width="3"/></g></svg>