<svg id="Layer_1" data-name="Layer 1" xmlns="http://www.w3.org/2000/svg" viewBox="0 0 500 600"><defs><style>.cls-1{fill:#f8c59a}.cls-1,.cls-4,.cls-5{stroke:#000}.cls-1,.cls-5{stroke-linecap:round}.cls-1{stroke-linejoin:round}.cls-4,.cls-5{fill:none;stroke-miterlimit:10}</style></defs><path class="cls-1" d="M171.5 66.9a23.9 23.9 0 00-4.6-.1 187.3 187.3 0 00-19.7 1.8c-5.1.6-11.4 1.9-13.4 7.5a.4.4 0 00-.1.3l-.3.9c-1.1 4.9.1 10.1.9 15l.3 1.6c.4 2.9.6 5.8.8 8.6.6 5.8 1.4 11.9 4.1 17.1 6.8 13.3 30.6 20.1 40.5 6.8 4.4-5.8 6.4-13.4 7-20.6.2-2.9.4-5.9.5-8.8s.1-4.5 0-6.7a36.4 36.4 0 00-3-13.8 21.8 21.8 0 00-3.5-5.4c-2.4-2.7-6-3.9-9.5-4.2z"/><path class="cls-1" d="M130.6 100.6a4.5 4.5 0 01-1.6-2.5 11 11 0 01-.8-4 6.2 6.2 0 011.6-3.8l1-.7a6.9 6.9 0 012.5-.4h.4c.2.1.2.3.2.5a80.5 80.5 0 001.1 8.4c.2 1 .7 1.8-.4 2.5s-3 .5-4 0zm60-4.4a3.4 3.4 0 00.6-1.2 11.3 11.3 0 00.2-3.2 13.2 13.2 0 00-.4-3.4 4.9 4.9 0 00-2.2-3l-.9-.3a1.5 1.5 0 00-.9.2.4.4 0 00-.1.3c.1 1.7.3 3.4.4 5.1s.1 2.6.1 3.9.1 1.8.9 2.2a2.2 2.2 0 002.3-.6z"/><path d="M127.2 66.1c-1.1 7.4-.1 15 1.8 22.4.4 1.6 1.3 3.8 2.6 4.8a1.8 1.8 0 003-1c.5-1.6-.5-3-.6-4.6-.4-3.7 0-8.3 2.9-11a13.4 13.4 0 002.6-2.7c.6-1.1 1.1-2.2 2.4-2.7a37.2 37.2 0 014.8-1.1c2.2-.6 4.3-1.5 6.5-2s3.7.4 5.6.6 4.7-.2 7-.1 5.9-.4 8.8.1a11 11 0 015.7 3.5 32.5 32.5 0 014.4 5.4c1.3 2.2 1.5 4.5 1.9 6.9.1.6.1 4 .8 4.2s2-3.3 2.2-3.9a32 32 0 00.9-6.2c.3-3.9.2-8-1.4-11.6s-3.5-11.2-8.3-14.5c-2.8-1.9-5.2-5.1-8.4-6.4s-5.3-1-7.9-1.8c-4.4-1.3-8.7-2.7-13.3-2.7a16.5 16.5 0 00-8.2 1.5 8.8 8.8 0 00-3.7 3.2c-.8 1-.7 2.3-1.6 3.2s-2.7 1-4 1.6-2.2 2.4-2.9 3.6a37.2 37.2 0 00-3.6 11.3z" fill="#231009"/><path d="M184.8 69.4a8.3 8.3 0 001.1-7.5 13.8 13.8 0 00-4.7-6.3m-6.7 11.9a16.5 16.5 0 002.8-6c1.9-7.6-3.6-13.8-4.3-14.7M165.3 65c2.3-1.5 5.1-3.5 5.2-6.6V58a14.8 14.8 0 00-4.1-8.6 16.3 16.3 0 00-8.4-4.6m-3.4 18.3a14.3 14.3 0 00-14.3-6.6m7 11a13.4 13.4 0 00-2.8-1.8 20.5 20.5 0 00-3.1-1.3 16.5 16.5 0 00-6.9-1.2 6.3 6.3 0 00-2.7 1" stroke="#463630" fill="none" stroke-linejoin="round" stroke-linecap="round"/><ellipse cx="181.2" cy="90.2" rx="3.4" ry="2" transform="rotate(-87.6 181.171 90.164)"/><path class="cls-4" d="M173 83.8c-.7.1-1.6.2-2 .8a2.4 2.4 0 00-.2 2.2l.8 4.3a16.7 16.7 0 00.8 3.2 6.8 6.8 0 008.1 3.4 8.7 8.7 0 005.1-5.9c.7-2.4 1.8-8.1-1-8.8s-8.3.4-11.6.8zm-22.9 1.7a3 3 0 00-2.1.8 3.5 3.5 0 00-.2 2.3l.8 4.2a13.5 13.5 0 00.9 3.3 6.6 6.6 0 008 3.3 8.4 8.4 0 005.1-5.9c.7-2.4 1.8-8-1-8.8s-8.3.5-11.5.8z"/><path class="cls-4" d="M170.4 85.5h-1.7l-5.3.5h-.2"/><path class="cls-5" d="M147.6 88.7l-15.3-.3"/><path class="cls-4" d="M167.6 108.7a10.3 10.3 0 003-1.4l1.1-.9c1.2-1.4.9-3.6.2-5.3a21.7 21.7 0 00-1.5-3.5"/><path class="cls-5" d="M185.9 84l3.6 1.1"/><path d="M154.1 114.4c1.9-2.4 5-2.9 7.9-3.1 5.7-.5 11.4-.2 17.1-.2 1.3.1 3-.1 3.9 1s1.1 4.7.5 6.8a19.9 19.9 0 01-14.3 14c-3.2.8-6.8.4-10.1 0s-5.1-1.1-6.4-3.6-.4-8.1.1-11.8a6.6 6.6 0 011.3-3.1zm7.1 2.2c-.1.2-.2.3-.2.5s.7 1.9 1.4 2.3c3 1.4 6.6 1.2 9.8.5 1.3-.3 3-.9 3.7-2.2a1.9 1.9 0 00.2-1.9c-.6-1.8-3.5-.8-4.7-.5a17.9 17.9 0 01-5.6.7l-2.5-.3a2.9 2.9 0 00-2.1.9z" opacity=".5" fill="#231009"/><ellipse cx="158.2" cy="91.9" rx="3.4" ry="2" transform="rotate(-87.6 158.215 91.87)"/><path d="M161.9 116.9a1.2 1.2 0 00-.2 1 1.3 1.3 0 00.8.7 15.2 15.2 0 008.2.7 7.4 7.4 0 004.2-1.9 1.4 1.4 0 00.4-1.8c-.4-.4-1.2-.2-1.7-.1l-2.6.5a23.1 23.1 0 01-4.6.5c-1.3.1-3.2-.7-4.3.2z" fill="#d8925d"/><path d="M149.4 78.8a6.6 6.6 0 012.8-.9 11.7 11.7 0 017 2 13.6 13.6 0 002.1 1 3.5 3.5 0 001.1.3c.3 0 .7-.2 1 0s.3.2.3.4.1.3 0 .5v.2a6.4 6.4 0 01-.2.7 1.2 1.2 0 01-.5.5h-.2c-.2.1-.4 0-.5 0l-.6-.2-1.1-.4a21.9 21.9 0 00-4.8-2.5l-1.7-.5h-2a7.3 7.3 0 00-3.3.4l-.5.2c-.2 0-.4 0-.4-.2s1.2-1.3 1.5-1.5zm33.8-1.4a5.3 5.3 0 00-2.4-.8 8.9 8.9 0 00-6.1 2.1l-1.8 1.1-1 .4c-.3 0-.6-.2-.9-.1l-.2.4v.8l.3.6a1 1 0 00.4.5h.7l.5-.2.9-.4a16.2 16.2 0 014.1-2.7l1.4-.4a5.5 5.5 0 011.8-.2 5.2 5.2 0 013 .3l.4.2.4-.2c.2-.4-1.2-1.2-1.5-1.4z" fill="#471c0c"/></svg>