<svg id="Layer_1" data-name="Layer 1" xmlns="http://www.w3.org/2000/svg" viewBox="0 0 500 600"><defs><style>.cls-1{fill:#f8c59a}.cls-1,.cls-4,.cls-5{stroke:#000}.cls-1,.cls-5{stroke-linecap:round}.cls-1{stroke-linejoin:round}.cls-4,.cls-5{fill:none;stroke-miterlimit:10}</style></defs><path class="cls-1" d="M172.1 66.5a37.7 37.7 0 00-4.7-.2c-6.5.3-13.1 1-19.6 1.9s-11.5 1.9-13.4 7.4c-.1.2-.1.3-.2.4a2.9 2.9 0 01-.2.9c-1.1 4.9.1 10.1.9 15l.3 1.6c.4 2.9.5 5.7.8 8.6.6 5.8 1.4 11.9 4.1 17.1 6.8 13.3 30.6 20.1 40.5 6.8 4.3-5.8 6.4-13.4 6.9-20.6.3-2.9.5-5.9.6-8.8s.1-4.5 0-6.7a38.4 38.4 0 00-3-13.8 24.4 24.4 0 00-3.5-5.5c-2.4-2.6-6-3.8-9.5-4.1z"/><path class="cls-1" d="M131.2 100.2a4.7 4.7 0 01-1.7-2.5 10.9 10.9 0 01-.7-4 5.1 5.1 0 011.6-3.8l1-.7a6.4 6.4 0 012.4-.4h.5a.4.4 0 01.2.4 59.9 59.9 0 001.1 8.5c.2 1 .7 1.8-.4 2.5a5 5 0 01-4 0zm60-4.4a3.3 3.3 0 00.5-1.2 11.6 11.6 0 00.3-3.2 13.2 13.2 0 00-.4-3.4 5.1 5.1 0 00-2.2-3.1l-.9-.2a1.5 1.5 0 00-.9.2c-.1 0-.1.2-.1.3.1 1.7.3 3.4.4 5.1v3.9c.1.8.2 1.8 1 2.2a2.3 2.3 0 002.3-.6z"/><path d="M127.8 65.7c-1.1 7.4-.1 14.9 1.8 22.3.4 1.7 1.2 3.9 2.6 4.9s2.5.4 3-1-.5-3-.6-4.6c-.4-3.7-.1-8.3 2.9-11a13.4 13.4 0 002.6-2.7c.6-1.1 1.1-2.2 2.4-2.7s3.2-.7 4.8-1.1 4.3-1.5 6.5-2 3.6.4 5.5.6 4.8-.2 7.1-.2 5.9-.3 8.8.2a11.5 11.5 0 015.7 3.4 37.9 37.9 0 014.4 5.5c1.3 2.2 1.5 4.5 1.9 6.9.1.6.1 4 .8 4.2s2-3.3 2.2-4a38.9 38.9 0 00.9-6.1c.3-3.9.2-8-1.4-11.6-2.1-5.1-3.6-11.2-8.4-14.5-2.7-1.9-5.2-5.1-8.3-6.4s-5.3-1.1-7.9-1.8c-4.4-1.3-8.8-2.7-13.3-2.8a17.7 17.7 0 00-8.2 1.6 9.8 9.8 0 00-3.8 3.2c-.7 1-.7 2.3-1.5 3.2s-2.7 1-4 1.6-2.2 2.4-2.9 3.6a34.6 34.6 0 00-3.6 11.3z" fill="#231009"/><path d="M184.8 69.4a8.3 8.3 0 001.1-7.5 13.8 13.8 0 00-4.7-6.3m-6.7 11.9a16.5 16.5 0 002.8-6c1.9-7.6-3.6-13.8-4.3-14.7M165.3 65c2.3-1.5 5.1-3.5 5.2-6.6V58a14.8 14.8 0 00-4.1-8.6 16.3 16.3 0 00-8.4-4.6m-3.4 18.3a14.3 14.3 0 00-14.3-6.6m7 11a13.4 13.4 0 00-2.8-1.8 20.5 20.5 0 00-3.1-1.3 16.5 16.5 0 00-6.9-1.2 6.3 6.3 0 00-2.7 1" stroke="#463630" fill="none" stroke-linejoin="round" stroke-linecap="round"/><path class="cls-4" d="M173.6 83.4c-.8.1-1.6.2-2 .8a2.4 2.4 0 00-.2 2.2l.7 4.3a11.7 11.7 0 00.9 3.2 6.8 6.8 0 008.1 3.4 8.9 8.9 0 005.1-6c.6-2.3 1.7-8-1.1-8.7s-8.2.4-11.5.8zm-23 1.7a3 3 0 00-2 .8c-.5.6-.3 1.5-.2 2.3l.8 4.2a13.5 13.5 0 00.9 3.3 6.7 6.7 0 008 3.3 8.4 8.4 0 005.1-5.9c.7-2.4 1.8-8-1-8.8s-8.3.4-11.6.8z"/><path class="cls-4" d="M171 85.1h-1.7l-5.4.5h-.1"/><path class="cls-5" d="M148.2 88.3l-15.3-.3"/><path class="cls-4" d="M168.2 108.3a11.7 11.7 0 003-1.4l1.1-.9c1.2-1.5.8-3.6.2-5.3a13.9 13.9 0 00-1.6-3.5"/><path class="cls-5" d="M186.4 83.6l3.6 1.1"/><path d="M154.7 114c1.9-2.4 5-2.9 7.9-3.1a161 161 0 0117-.2c1.4 0 3.1-.1 4 1s1.1 4.7.5 6.8a20 20 0 01-14.3 14 31.1 31.1 0 01-10.1 0c-2.6-.3-5.1-1.1-6.4-3.6s-.4-8.1.1-11.8a6.6 6.6 0 011.3-3.1zm7.1 2.2l-.3.5a2.8 2.8 0 001.5 2.3c3 1.4 6.6 1.2 9.8.5a5.7 5.7 0 003.7-2.2 2.3 2.3 0 00.2-2c-.6-1.7-3.5-.7-4.7-.4a22.2 22.2 0 01-5.7.7l-2.4-.3a2.7 2.7 0 00-2.1.9z" opacity=".5" fill="#231009"/><path d="M162.5 116.5a1.2 1.2 0 00-.2 1 1.1 1.1 0 00.8.7 14.9 14.9 0 008.1.7 7.4 7.4 0 004.3-1.9c.4-.4.8-1.3.4-1.8s-1.2-.2-1.7-.1l-2.6.5a35.9 35.9 0 01-4.6.5c-1.3.1-3.2-.7-4.3.2z" fill="#d8925d"/><path d="M148.6 80.8a6.4 6.4 0 002.5 1.5 11.9 11.9 0 004.6.2 34.5 34.5 0 004.6-1.2c.6-.2 1.8-.6 1.8-1.4a1.3 1.3 0 00-.3-.8c-.2-.2-.5-.5-.8-.5l-.6.2a13.8 13.8 0 01-5.2 1.7h-1.8l-2-.3a6.8 6.8 0 01-3.1-1.1l-.5-.3c-.1 0-.4 0-.5.2s1 1.6 1.3 1.8zm34.5-1.6a5.3 5.3 0 01-2 1.6 8.4 8.4 0 01-3.9.6 28.3 28.3 0 01-4-.8c-.6-.2-1.6-.4-1.7-1.3a1.7 1.7 0 01.1-.7 1.6 1.6 0 01.7-.7l.5.2a11.4 11.4 0 004.6 1.3h1.5l1.7-.4a4.8 4.8 0 002.5-1.4l.4-.3a.2.2 0 01.4.1c.3.2-.6 1.5-.8 1.8z" fill="#471c0c"/><path class="cls-1" d="M154.3 91.5a4 4 0 003.5 1.7 3.9 3.9 0 003.2-2m14.8-.5a3.9 3.9 0 006.5-1.4"/><path d="M157.8 100.8c-.3.9-.7 1.8-.9 2.7s-.2 1.8.7 1.8.3-3.6.2-4.5m22.9-2.7c-.4.9-.7 1.8-1 2.7s-.2 1.9.8 1.8.2-3.5.2-4.5m1 6.7l-.6 2.8c-.1.6 0 1.9 1 1.7s-.2-3.6-.4-4.5" fill="#fff"/></svg>