<svg xmlns="http://www.w3.org/2000/svg" viewBox="0 0 500 600"><path d="M171.8,66.4h-4.7c-6.6.2-13.1,1-19.6,1.8S136,70,134,75.6a.4.4,0,0,1-.1.3c-.1.3-.1.6-.2.9-1.1,5,.1,10.2.9,15a9.9,9.9,0,0,1,.2,1.7c.4,2.8.6,5.7.9,8.6.6,5.8,1.4,11.8,4.1,17.1,6.8,13.3,30.5,20,40.5,6.7,4.3-5.8,6.3-13.4,6.9-20.5.3-3,.5-5.9.6-8.9s.1-4.4-.1-6.6a36.3,36.3,0,0,0-2.9-13.8,22.4,22.4,0,0,0-3.5-5.5C178.9,67.9,175.3,66.8,171.8,66.4Z" fill="#f8c59a" stroke="#000" stroke-linecap="round" stroke-linejoin="round"/><path d="M130.9,100.1a4,4,0,0,1-1.7-2.4,11.2,11.2,0,0,1-.7-4,5.1,5.1,0,0,1,1.6-3.8,3.9,3.9,0,0,1,1-.8,6.3,6.3,0,0,1,2.4-.3h.5c.2.1.2.2.2.4a60.4,60.4,0,0,0,1.1,8.4c.2,1,.7,1.9-.4,2.5A4.3,4.3,0,0,1,130.9,100.1Z" fill="#f8c59a" stroke="#000" stroke-linecap="round" stroke-linejoin="round"/><path d="M190.9,95.7a2.3,2.3,0,0,0,.5-1.1,11.9,11.9,0,0,0,.3-3.3,12.4,12.4,0,0,0-.4-3.3,4.8,4.8,0,0,0-2.2-3.1l-.9-.2c-.2,0-.7-.1-.9.1a.6.6,0,0,0-.1.4l.3,5c.1,1.4.1,2.7.1,4s.2,1.8.9,2.1A2,2,0,0,0,190.9,95.7Z" fill="#f8c59a" stroke="#000" stroke-linecap="round" stroke-linejoin="round"/><path d="M127.4,65.7c-1.1,7.3,0,14.9,1.9,22.3.4,1.6,1.2,3.8,2.6,4.9s2.5.4,3-1.1-.5-3-.7-4.5c-.3-3.8,0-8.3,3-11,.9-1,1.9-1.5,2.5-2.7s1.1-2.3,2.5-2.8,3.2-.6,4.8-1.1,4.2-1.4,6.5-1.9,3.6.3,5.5.5,4.7-.1,7.1-.1,5.9-.3,8.8.2a10.2,10.2,0,0,1,5.7,3.4,33.2,33.2,0,0,1,4.4,5.5c1.3,2.2,1.5,4.4,1.9,6.9,0,.6.1,3.9.8,4.2s2-3.3,2.2-4,.7-4.1.9-6.1c.3-3.9.2-8-1.4-11.7s-3.6-11.2-8.4-14.4c-2.8-1.9-5.2-5.2-8.3-6.4s-5.3-1.1-7.9-1.9c-4.4-1.3-8.8-2.7-13.4-2.7a18.6,18.6,0,0,0-8.1,1.5,11.8,11.8,0,0,0-3.8,3.2c-.7,1.1-.7,2.3-1.6,3.3s-2.6.9-3.9,1.6a8.5,8.5,0,0,0-2.9,3.6A35.7,35.7,0,0,0,127.4,65.7Z"/><ellipse cx="181.4" cy="89.7" rx="3.4" ry="2.7" transform="translate(74.3 261.5) rotate(-84.4)"/><path d="M173.3,83.3a2.7,2.7,0,0,0-2,.9,2.8,2.8,0,0,0-.3,2.2l.8,4.3a11.7,11.7,0,0,0,.9,3.2,6.9,6.9,0,0,0,8.1,3.4,8.7,8.7,0,0,0,5-6c.7-2.4,1.8-8-1-8.7S176.6,83,173.3,83.3Z" fill="none" stroke="#000" stroke-miterlimit="10"/><path d="M150.3,85.1c-.7.1-1.6.2-2,.8a2.4,2.4,0,0,0-.2,2.2l.8,4.3a16.7,16.7,0,0,0,.8,3.2,6.8,6.8,0,0,0,8.1,3.4c2.6-.9,4.3-3.4,5.1-6s1.8-8-1-8.7S153.6,84.7,150.3,85.1Z" fill="none" stroke="#000" stroke-miterlimit="10"/><path d="M170.7,85l-1.7.2-5.4.5h-.1" fill="none" stroke="#000" stroke-miterlimit="10"/><path d="M147.9,88.2l-15.4-.3" fill="none" stroke="#000" stroke-linecap="round" stroke-miterlimit="10"/><path d="M167.9,108.3a9.4,9.4,0,0,0,3-1.5,3.1,3.1,0,0,0,1.1-.9c1.1-1.4.8-3.5.2-5.3a15.8,15.8,0,0,0-1.6-3.5" fill="none" stroke="#000" stroke-miterlimit="10"/><path d="M186.1,83.6l3.6,1.1" fill="none" stroke="#000" stroke-linecap="round" stroke-miterlimit="10"/><ellipse cx="158.5" cy="91.4" rx="3.4" ry="2.7" transform="translate(55.7 242.8) rotate(-85.8)"/><path d="M156.5,114.4a6.8,6.8,0,0,1,1.7-2.1c3-2.6,8.3-1.1,11.9-1.2s4.6-1.1,7-1.3,4.4.6,5.6,3.4a11.6,11.6,0,0,1-.7,10.1c-3.8,6.7-12.2,10.4-19.7,9.8h-.6c-2.4-.3-4-.6-5.4-2.6a11.7,11.7,0,0,1-2.1-6.5A17.5,17.5,0,0,1,156.5,114.4Zm9.5,3.9a6.7,6.7,0,0,0-.7,3.1,3.3,3.3,0,0,0,.7,2.7,5.1,5.1,0,0,0,2.7,1.2l2,.4a13.1,13.1,0,0,0,3.4-.3,5.4,5.4,0,0,0,2.1-.8,3.1,3.1,0,0,0,.8-2.6c-.2-2.3-.7-4.8-2.5-6.3a5.7,5.7,0,0,0-4-.9,6.9,6.9,0,0,0-3.6,2.1A5.5,5.5,0,0,0,166,118.3Z" opacity="0.45"/><path d="M147.8,81.5a8,8,0,0,1,2-2.1,9.8,9.8,0,0,1,4.4-1.6,36.2,36.2,0,0,1,4.7-.2c.6,0,1.9,0,2.1.8a1.2,1.2,0,0,1-.1.8c-.1.3-.2.7-.6.8h-.6a12.8,12.8,0,0,0-5.5,0l-1.7.4-1.8.9a7.4,7.4,0,0,0-2.7,1.9l-.3.4c-.2.1-.4.2-.5.1S147.6,81.8,147.8,81.5Z"/><path d="M183.8,79.6a5,5,0,0,0-1.9-1.9,9.4,9.4,0,0,0-4.2-1.3,22.6,22.6,0,0,0-4.5.2c-.6,0-1.8.2-2,1a1.2,1.2,0,0,0,.1.8,1.1,1.1,0,0,0,.6.7h.6a13.2,13.2,0,0,1,5.2-.5,4.5,4.5,0,0,1,1.6.3l1.8.7a5.2,5.2,0,0,1,2.6,1.7l.4.4a.3.3,0,0,0,.4,0C184.9,81.3,184,79.8,183.8,79.6Z"/><path d="M173.1,115.4l1,.5a5.3,5.3,0,0,1,1.8,2.8,12,12,0,0,1,.6,3.3,2,2,0,0,1-.1,1.3,2,2,0,0,1-1.4,1.1,10.5,10.5,0,0,1-7.4.2,4.6,4.6,0,0,1-1.3-.8,3.9,3.9,0,0,1-.6-1.5,7.3,7.3,0,0,1,1.6-5.1,6.4,6.4,0,0,1,3.1-2A5,5,0,0,1,173.1,115.4Z" fill="#5e2f2f" opacity="0.5"/><path d="M172.5,116.8a2.6,2.6,0,0,1,1.1.7,6.4,6.4,0,0,1,1.3,4.2,2.4,2.4,0,0,1-.5,1.4,2.3,2.3,0,0,1-1.2.6,6.1,6.1,0,0,1-4.4-.1,1.8,1.8,0,0,1-.9-.6c-.8-.7-.7-1.9-.5-3a4.7,4.7,0,0,1,2-2.8A3.8,3.8,0,0,1,172.5,116.8Z" fill="#5e2f2f"/><g opacity="0.2"><path d="M184.8,69.4a8.3,8.3,0,0,0,1.1-7.5,13.8,13.8,0,0,0-4.7-6.3" fill="none" stroke="#fff" stroke-linecap="round" stroke-linejoin="round"/><path d="M174.5,67.5a16.5,16.5,0,0,0,2.8-6c1.9-7.6-3.6-13.8-4.3-14.7" fill="none" stroke="#fff" stroke-linecap="round" stroke-linejoin="round"/><path d="M165.3,65c2.3-1.5,5.1-3.5,5.2-6.6V58a14.8,14.8,0,0,0-4.1-8.6,16.3,16.3,0,0,0-8.4-4.6" fill="none" stroke="#fff" stroke-linecap="round" stroke-linejoin="round"/><path d="M154.6,63.1a14.3,14.3,0,0,0-14.3-6.6" fill="none" stroke="#fff" stroke-linecap="round" stroke-linejoin="round"/><path d="M147.3,67.5a13.4,13.4,0,0,0-2.8-1.8,20.5,20.5,0,0,0-3.1-1.3,16.5,16.5,0,0,0-6.9-1.2,6.3,6.3,0,0,0-2.7,1" fill="none" stroke="#fff" stroke-linecap="round" stroke-linejoin="round"/></g></svg>