<svg id="Layer_1" data-name="Layer 1" xmlns="http://www.w3.org/2000/svg" viewBox="0 0 500 600"><defs><style>.cls-1{fill:#f8c59a}.cls-1,.cls-4,.cls-5{stroke:#000}.cls-1,.cls-5{stroke-linecap:round}.cls-1{stroke-linejoin:round}.cls-4,.cls-5{fill:none;stroke-miterlimit:10}</style></defs><path class="cls-1" d="M171.4 66.5h-4.7c-6.6.2-13.1 1-19.7 1.8-5.1.7-11.4 1.9-13.4 7.5v.2a2.9 2.9 0 00-.2.9c-1.1 5 0 10.2.8 15l.3 1.7c.4 2.8.6 5.7.9 8.6.5 5.8 1.3 11.8 4 17.1 6.9 13.3 30.6 20 40.5 6.7 4.4-5.8 6.4-13.4 7-20.5.2-3 .4-5.9.5-8.9s.1-4.4 0-6.6a36.4 36.4 0 00-3-13.8 19.8 19.8 0 00-3.5-5.5c-2.5-2.7-6.1-3.8-9.5-4.2z"/><path class="cls-1" d="M130.4 100.2a4 4 0 01-1.6-2.4 11.4 11.4 0 01-.8-4 5.9 5.9 0 011.6-3.8l1.1-.8a6.1 6.1 0 012.4-.3h.5c.1.1.1.2.1.4a80.5 80.5 0 001.1 8.4c.2 1.1.7 1.9-.3 2.5a4.6 4.6 0 01-4.1 0zm60-4.3a3.4 3.4 0 00.6-1.2 17.6 17.6 0 00.3-3.3 12.6 12.6 0 00-.5-3.3 4.8 4.8 0 00-2.2-3.1l-.9-.2c-.2 0-.7-.1-.9.1a.6.6 0 00-.1.4c.2 1.7.3 3.4.4 5s.1 2.7.1 4 .1 1.8.9 2.1a2 2 0 002.3-.5z"/><path d="M127 65.8c-1.1 7.3-.1 14.9 1.8 22.3a9.5 9.5 0 002.7 4.9 1.7 1.7 0 002.9-1.1c.5-1.5-.4-3-.6-4.5-.4-3.8 0-8.3 2.9-11a13.3 13.3 0 002.6-2.7c.7-1.1 1.1-2.3 2.4-2.8s3.2-.6 4.8-1.1 4.3-1.4 6.5-1.9 3.7.3 5.6.6 4.7-.2 7-.2 5.9-.3 8.8.2a10.2 10.2 0 015.7 3.4 40 40 0 014.5 5.5 18.1 18.1 0 011.8 6.9c.1.6.1 3.9.8 4.2s2.1-3.3 2.2-4a32.1 32.1 0 00.9-6.1c.3-3.9.2-8-1.3-11.7s-3.6-11.2-8.4-14.4c-2.8-1.9-5.2-5.2-8.3-6.4s-5.4-1.1-8-1.9c-4.3-1.3-8.7-2.6-13.3-2.7a19 19 0 00-8.2 1.5 11.4 11.4 0 00-3.7 3.2c-.8 1.1-.7 2.3-1.6 3.3s-2.7.9-4 1.6-2.2 2.4-2.8 3.6a33.4 33.4 0 00-3.7 11.3z" fill="#231009"/><path d="M184.8 69.4a8.3 8.3 0 001.1-7.5 13.8 13.8 0 00-4.7-6.3m-6.7 11.9a16.5 16.5 0 002.8-6c1.9-7.6-3.6-13.8-4.3-14.7M165.3 65c2.3-1.5 5.1-3.5 5.2-6.6V58a14.8 14.8 0 00-4.1-8.6 16.3 16.3 0 00-8.4-4.6m-3.4 18.3a14.3 14.3 0 00-14.3-6.6m7 11a13.4 13.4 0 00-2.8-1.8 20.5 20.5 0 00-3.1-1.3 16.5 16.5 0 00-6.9-1.2 6.3 6.3 0 00-2.7 1" stroke="#463630" fill="none" stroke-linejoin="round" stroke-linecap="round"/><ellipse cx="179.7" cy="89.8" rx="3.4" ry="2" transform="rotate(-87.6 179.63 89.787)"/><path class="cls-4" d="M172.8 83.4a3.1 3.1 0 00-2 .9c-.5.6-.3 1.4-.2 2.2l.8 4.3a11.7 11.7 0 00.9 3.2 6.7 6.7 0 008 3.4 8.6 8.6 0 005.1-6c.7-2.4 1.8-8-1-8.7s-8.3.4-11.6.7zm-22.9 1.8a3 3 0 00-2.1.8 3.3 3.3 0 00-.2 2.2l.8 4.3a11.7 11.7 0 00.9 3.2 6.7 6.7 0 008.1 3.4 8.7 8.7 0 005-6c.7-2.3 1.8-8-1-8.7s-8.3.4-11.5.8z"/><path class="cls-4" d="M170.2 85.1l-1.7.2-5.3.5h-.2"/><path class="cls-5" d="M147.5 88.3l-15.4-.3"/><path class="cls-4" d="M167.4 108.4a8.5 8.5 0 003-1.5 3.1 3.1 0 001.1-.9c1.2-1.4.9-3.5.3-5.3a37.3 37.3 0 00-1.6-3.5"/><path class="cls-5" d="M185.7 83.7l3.6 1.1"/><ellipse cx="156.7" cy="91.5" rx="3.4" ry="2" transform="rotate(-87.6 156.675 91.494)"/><path d="M149.2 78.4a9 9 0 012.8-.8c2.6-.3 4.8.7 7 2l2.1 1a4.5 4.5 0 001.1.3c.3 0 .7-.2 1 0a.3.3 0 01.3.3 4.3 4.3 0 00.1.5v.3a1.9 1.9 0 01-.2.7l-.5.5h-1.3l-1.1-.4a27.7 27.7 0 00-4.8-2.6l-1.7-.4-2-.2a7.4 7.4 0 00-3.3.5l-.5.2-.4-.2c-.3-.6 1.1-1.5 1.4-1.7zm33.9-1.4a8.1 8.1 0 00-2.5-.8c-2.4-.2-4.2.9-6.1 2.2l-1.8 1.1a2.9 2.9 0 01-1 .3c-.3 0-.6-.2-.9 0a.5.5 0 00-.2.4v.8l.3.6a1 1 0 00.4.5h1.2l.9-.5a21.9 21.9 0 014.1-2.6l1.5-.5 1.8-.2a5.8 5.8 0 012.9.3l.4.2c.2 0 .4 0 .4-.2s-1.2-1.4-1.4-1.6z" fill="#471c0c"/><path d="M156 114.5a9.1 9.1 0 011.8-2.1c2.9-2.6 8.3-1.1 11.8-1.2s4.7-1.1 7-1.3 4.5.6 5.7 3.4a11.9 11.9 0 01-.8 10.1c-3.7 6.7-12.2 10.4-19.7 9.8h-.6c-2.4-.3-3.9-.6-5.3-2.6a11.8 11.8 0 01-2.2-6.5 19.4 19.4 0 012.3-9.6zm9.3 3.8a7.7 7.7 0 00-.6 4.7c.3 1.4 1.9 2.1 3.1 2.4a14.1 14.1 0 005.4.3c1.3-.2 2.9-.7 3.3-2.1a5.3 5.3 0 00-.3-3.5 25.2 25.2 0 00-1.5-3.3 2 2 0 00-.8-1 2.8 2.8 0 00-1.5-.6c-1.5-.1-3.3-.2-4.6.5a4.9 4.9 0 00-2.5 2.6z" opacity=".5" fill="#231009"/><path d="M172.5 116a3.3 3.3 0 012.2 2 12 12 0 011.3 3.1 4.9 4.9 0 01-.1 2.1c-.7 1.6-2.9 1.9-4.4 2.1a13.6 13.6 0 01-2.9-.3 5 5 0 01-2.7-1.1c-1.5-1.6-.3-4.7.6-6.3a2.2 2.2 0 01.5-.8 2.7 2.7 0 011.2-.6 7 7 0 014.3-.2z" fill="#d8925d"/><path d="M172.1 116.9h.1a4.6 4.6 0 012.1 2.8c.3.8.9 2.3.3 3.1a3.2 3.2 0 01-2.4 1.1h-2.5c-1.6 0-3.3-.6-3.1-2.4a8 8 0 01.5-2.6 3.9 3.9 0 011.2-1.9 4.2 4.2 0 013.8-.1z" fill="#5e2f2f"/><path d="M167.7 119.4h1.3l3.5-.5h.4c.1-.2 0-.3 0-.4a1.8 1.8 0 00-1.7-1.2 2.1 2.1 0 00-1.1.1 4.8 4.8 0 00-1.7.5c-.5.4-.5.9-.7 1.5zm0 3.6a3 3 0 001.6.3l3.7-.2c.4 0 1-.1 1.2-.5a2.1 2.1 0 000-.8.8.8 0 00-.2-.5h-.3l-4.4.2h-1.1c-.2 0-.7-.1-.9.1s.1 1.2.4 1.4z" fill="#fff"/></svg>