<?xml version="1.0" encoding="UTF-8"?>
<svg width="500px" height="600px" viewBox="0 0 500 600" version="1.1" xmlns="http://www.w3.org/2000/svg" xmlns:xlink="http://www.w3.org/1999/xlink">
    <title>angrylookingup</title>
    <defs>
        <polygon id="path-1" points="0 0.084 173.37498 0.084 173.37498 192.102015 0 192.102015"></polygon>
    </defs>
    <g id="angrylookingup" stroke="none" stroke-width="1" fill="none" fill-rule="evenodd">
        <g transform="translate(154.000000, 64.000000)">
            <g id="face" transform="translate(0.000000, 0.916000)">
                <mask id="mask-2" fill="white">
                    <use xlink:href="#path-1"></use>
                </mask>
                <g id="Clip-5"></g>
                <path d="M171.0485,137.3859 C170.9035,137.5149 170.7915,137.6879 170.7625,137.9199 C169.5325,147.5449 162.4275,154.9569 155.6845,161.4389 C155.3625,161.3509 154.9875,161.4199 154.7385,161.7529 C150.6485,167.2129 148.0455,174.3569 142.1715,178.2569 C135.6435,182.5909 127.3675,181.2159 120.2965,179.1599 C116.3595,178.0159 112.5025,176.5929 108.6295,175.2519 C104.2835,173.7479 99.9385,172.2429 95.5935,170.7399 C87.9335,168.0879 80.0715,165.5149 73.3785,160.8089 C67.2365,156.4899 62.1385,149.8729 61.3945,142.2619 C61.3825,142.1729 61.3775,142.0839 61.3615,141.9949 C61.3175,141.4609 61.2915,140.9229 61.2915,140.3799 C61.2895,139.5659 60.3225,139.3819 59.8725,139.8209 C59.3965,139.9429 58.9965,140.4619 59.3065,141.0249 C59.5345,141.4389 59.6715,141.8779 59.7485,142.3229 C59.7655,142.5039 59.7815,142.6849 59.8035,142.8639 C59.8695,144.2729 59.2895,145.7079 58.2985,146.7449 C57.4495,147.6329 56.3575,148.1419 55.1935,148.3689 C54.8835,148.1629 54.5215,148.0429 54.1365,148.0699 C50.5765,148.3219 47.9105,145.0959 45.7255,142.7269 C42.8615,139.6229 40.1355,136.3869 37.5835,133.0219 C37.3715,132.7409 37.1115,132.5119 36.8265,132.3409 C36.7145,132.1489 36.5925,131.9609 36.4835,131.7669 C36.4775,131.7539 36.4705,131.7409 36.4655,131.7299 C36.4575,131.7139 36.4455,131.7029 36.4385,131.6889 C35.0865,129.2899 33.9885,126.7679 33.5095,124.0379 C33.2805,122.7339 33.2595,121.3619 33.5135,120.0479 C33.6395,119.9319 33.7595,119.7999 33.8645,119.6369 C34.9285,117.9939 36.6935,116.9089 38.5935,116.5359 C39.3825,116.6849 40.1795,116.6429 40.9345,116.4469 C41.3295,116.4939 41.7205,116.5739 42.1025,116.6899 C43.9485,117.2489 45.7145,118.6349 47.1935,119.8439 C48.7975,121.1549 50.1475,122.6169 51.0015,124.5219 C51.3435,125.2829 52.2755,125.5909 53.0785,125.4599 C53.3595,125.5239 53.6345,125.5319 53.8975,125.4909 C54.0605,125.4899 54.2135,125.4489 54.3445,125.3649 C54.8955,125.1449 55.3395,124.6929 55.5375,124.0629 C55.8915,122.9389 56.0095,121.8259 55.9535,120.7339 C56.0115,120.5409 56.0695,120.3499 56.1275,120.1569 C56.2285,119.8239 56.0615,119.4419 55.7715,119.2519 C55.5665,118.1719 55.2135,117.1139 54.7685,116.0819 C53.4955,109.0589 50.8125,102.3309 46.8585,96.3719 L48.4805,96.9899 C49.7575,97.4769 51.0675,98.1199 52.4235,98.3399 C53.5475,98.5229 54.5975,98.2619 55.4135,97.6389 C56.1265,97.9639 56.9745,97.9949 57.6545,97.5309 C59.3025,96.4039 60.7295,95.0759 61.9415,93.5309 C62.3575,93.0809 62.7215,92.5839 63.0085,92.0319 C63.1165,91.8239 63.1875,91.6189 63.2395,91.4179 C64.3075,89.7129 65.1595,87.8719 65.7715,85.9539 C68.4625,83.5629 69.2835,79.6619 69.2135,76.0009 C71.9845,79.3199 76.0605,81.4739 80.3875,81.9489 C85.9865,82.5659 91.3795,79.9259 94.7525,75.4969 C95.7055,74.2459 96.4525,72.8709 97.0065,71.4229 C97.2965,70.9069 97.5735,70.3849 97.8365,69.8559 C100.0565,73.5319 103.5775,76.4919 107.8265,77.3909 C112.8885,78.4609 118.0035,76.0769 120.5135,71.5449 C121.0575,70.5619 121.4295,69.5039 121.6355,68.4209 C121.9755,70.3099 122.5735,71.9479 124.0665,73.4409 C124.7105,74.0849 125.5285,74.6559 126.4205,75.1059 C127.9135,76.4769 129.7775,77.3779 132.1525,77.4499 C135.0275,77.5379 137.4765,75.7819 138.8615,73.3479 C139.9165,71.4949 140.3025,69.4359 140.4235,67.3429 C142.5005,70.4139 146.1235,72.4679 149.8855,72.2169 C153.7975,71.9559 157.1795,69.4299 158.8385,66.0089 C159.6525,66.4509 160.5355,66.7559 161.4605,66.9009 C161.5425,66.9399 161.6195,66.9879 161.7035,67.0239 C157.4135,72.4069 157.7175,80.3679 159.0825,86.7709 C160.6855,94.2959 164.1275,101.2539 166.9405,108.3659 C168.5615,112.4669 169.9905,116.6519 170.7915,120.9959 C170.8085,121.0859 170.8465,121.1519 170.8825,121.2199 C171.4685,126.5889 171.5235,132.0049 171.0485,137.3859 M117.8825,188.8349 C117.1195,189.6029 115.9015,189.9819 114.8755,190.2389 C113.7785,190.5129 112.5165,190.6419 111.4575,190.1569 C110.3375,189.6439 109.8645,188.4459 109.1055,187.5539 C108.7645,187.1539 108.3695,186.8629 107.9385,186.5719 C107.2825,186.1279 107.3515,185.6849 107.3305,184.9359 C107.2495,182.1359 107.1685,179.3349 107.0875,176.5349 C110.5705,177.7419 114.0595,178.9279 117.5675,180.0449 C117.5605,180.1429 117.5655,180.2449 117.6025,180.3579 C118.0745,181.8179 118.4025,183.3169 118.5215,184.8479 C118.6195,186.1059 118.8595,187.8539 117.8825,188.8349 M106.4555,3.6919 C105.7525,4.2209 104.9315,4.6619 104.0515,4.9889 C104.8065,4.4849 105.6125,4.0489 106.4555,3.6919 M136.7945,73.4409 C136.8195,73.4129 136.8435,73.3809 136.8685,73.3539 C135.8125,74.7409 134.3265,75.6979 132.5435,75.7819 C134.1465,75.4079 135.6635,74.6719 136.7945,73.4409 M143.5785,68.4159 C142.5945,67.5849 141.7735,66.5579 141.1925,65.4049 C141.9155,66.4679 142.7145,67.4769 143.5785,68.4159 M171.5005,116.7339 C167.9885,103.8099 159.5945,92.0199 159.8555,78.3009 C159.9285,74.4409 160.8555,70.4299 163.4785,67.5049 C163.9125,67.5579 164.3515,67.5719 164.7855,67.5309 C168.1545,67.2119 170.7355,64.4909 171.9515,61.4929 C173.4155,57.8859 173.4805,53.5769 173.3075,49.7399 C173.1835,46.9779 172.7315,44.1559 171.6805,41.5809 C171.2985,40.2199 170.5815,39.0019 169.6525,37.9809 C168.0095,35.8019 165.7905,34.0499 163.2035,33.2119 C163.1915,33.1789 163.1755,33.1469 163.1635,33.1139 C163.6025,30.9639 163.8995,28.6319 162.8145,26.6339 C162.4215,25.9109 161.8805,25.3109 161.2425,24.8699 C160.7515,22.8709 159.9425,21.0879 158.5405,19.6219 C158.1395,18.7569 157.5725,17.9689 156.8195,17.3269 C155.5445,16.2409 153.8755,15.7079 152.2405,15.7999 C151.7435,14.6939 151.0345,13.6469 150.0825,12.6939 C146.8415,9.4529 140.6895,8.1849 136.7525,10.9739 C136.4595,11.1819 136.1645,11.3959 135.8675,11.6099 C135.1265,8.8609 133.1875,6.5939 130.7025,5.1849 C130.5085,5.0309 130.3215,4.8689 130.1135,4.7279 C128.0405,3.3169 125.3355,2.7479 122.9075,3.3419 C122.3385,2.7839 121.7065,2.2929 121.0285,1.8699 C120.5285,1.2759 119.8555,0.8029 119.0985,0.5489 C118.2875,0.2779 117.4345,0.2119 116.5795,0.2259 C114.6375,-0.0761 112.6145,0.0949 110.7385,0.8179 C110.5515,0.8489 110.3615,0.8679 110.1755,0.9029 C106.6945,1.5449 103.1605,3.0479 100.7705,5.6169 C99.3165,5.6349 97.9235,5.2839 96.8585,4.4499 C93.6815,1.9629 90.3705,0.9649 87.0855,1.5909 C83.6395,1.9059 81.1685,4.2479 78.7225,6.5529 L76.0545,8.7269 C73.5075,7.2979 70.9725,5.8089 68.3435,4.5479 C65.8215,3.3379 62.9885,2.4959 60.2255,3.3969 C54.9225,5.1239 52.9675,10.6539 51.7075,15.5959 C47.7115,13.1979 42.7215,12.5509 38.2415,13.8839 C36.7455,14.3279 35.3525,15.0189 34.0695,15.8689 C31.8055,16.8919 29.7665,18.4469 28.1485,20.6259 C25.7325,23.8799 24.7345,27.7929 25.1945,31.5389 C24.4955,31.8209 23.6745,31.9739 23.1375,32.1849 C22.0385,32.6149 20.9805,33.1419 19.9865,33.7819 C17.4975,35.3829 15.3885,37.6019 13.9205,40.1779 C12.6105,41.7549 11.5775,43.5879 10.9545,45.7559 C9.4905,50.8549 10.7245,55.7419 13.5085,59.8039 C10.0695,60.6649 6.8515,62.3929 4.4485,65.0269 C2.6185,67.0319 1.4075,69.4799 0.9065,72.0739 C-0.5765,76.0229 -0.0615,80.6739 3.2625,83.7259 C3.4385,83.8879 3.6225,84.0319 3.8045,84.1809 C0.4355,86.0269 -0.4945,90.9599 0.2305,94.5029 C0.9475,98.0079 3.1175,101.1139 6.0925,103.0259 C5.6355,103.5479 5.2245,104.1269 4.8665,104.7669 C4.8515,104.7889 4.8325,104.8089 4.8175,104.8319 C4.4975,105.3059 4.2815,105.8209 4.1365,106.3549 C2.4115,111.0709 3.8605,117.3849 8.7485,119.7739 C9.8905,120.3309 10.0045,120.1529 10.4615,120.8639 C11.5085,122.4949 12.7795,123.6699 14.1595,124.4929 C13.1805,125.6229 12.6875,127.2039 13.0825,128.9819 C13.0925,129.0309 13.1065,129.0779 13.1175,129.1259 C13.0825,129.4279 13.0455,129.7299 13.0315,130.0319 C12.8635,133.8679 14.5125,137.4439 16.4185,140.6709 C18.4945,144.1889 20.5875,147.8239 23.0115,151.1149 C25.1955,154.0779 28.1285,156.7399 31.9205,157.2339 C34.9425,157.6259 38.1965,156.1819 39.5585,153.4699 C40.2095,154.0279 40.9265,154.5109 41.6875,154.9089 C42.6955,156.3309 44.2095,157.5359 45.4235,158.4799 C47.6725,160.2269 50.2605,161.6009 53.0575,162.2099 C58.1565,163.3219 63.8295,161.6729 66.8695,157.2849 C67.6615,158.1469 68.4905,158.9719 69.3635,159.7389 C75.6905,165.2929 83.7275,168.3429 91.5655,171.0819 C96.1835,172.6969 100.7985,174.3469 105.4245,175.9619 C105.5035,178.7089 105.5825,181.4569 105.6625,184.2039 C105.6955,185.3649 105.5325,186.7179 106.4985,187.5569 C106.8855,187.8929 107.3585,188.1029 107.7175,188.4719 C108.1155,188.8789 108.3995,189.3749 108.7295,189.8349 C110.1135,191.7649 112.1295,192.3599 114.4295,192.0049 C116.4155,191.6989 118.9965,190.8189 119.8475,188.8209 C120.4005,187.5229 120.2705,185.9369 120.1445,184.5659 C120.0205,183.2239 119.7645,181.9039 119.3925,180.6109 C126.1775,182.6399 133.7525,184.0209 140.4235,181.0849 C147.7285,177.8699 150.8515,170.2849 155.1185,164.0469 C155.2695,164.0249 155.4205,163.9719 155.5585,163.8389 C162.2945,157.4089 169.4275,150.2619 171.7905,141.0539 C172.0845,140.9509 172.3385,140.7109 172.3855,140.3279 C173.3345,132.6649 173.1945,124.9329 172.0225,117.3019 C171.9685,116.9539 171.7525,116.7839 171.5005,116.7339" id="Fill-4" fill="#231F20" mask="url(#mask-2)"></path>
            </g>
            <g id="eyes" transform="translate(84.692779, 78.359083)" fill="#231F20">
                <path d="M4.30402066,46.2045171 C3.01302066,43.1245171 1.78702066,39.9185171 1.63702066,36.5635171 C1.47502066,32.9975171 2.78702066,29.7335171 4.52702066,26.6885171 C6.19002066,23.7775171 7.99402066,20.7645171 10.1800207,18.2155171 C10.6540207,17.6635171 11.1650207,17.1385171 11.7050207,16.6445171 C11.4050207,17.9105171 11.4130207,19.2965171 11.5410207,20.5115171 C11.8800207,23.7255171 13.2050207,26.7595171 15.1180207,29.3475171 C16.9110207,31.7715171 19.1470207,33.9645171 21.6190207,35.6955171 C22.7410207,36.4815171 24.0240207,37.0385171 25.3170207,37.1965171 C25.3960207,37.3085171 25.4840207,37.4135171 25.5820207,37.5035171 C25.9790207,37.8665171 26.4740207,38.0835171 27.0160207,38.0895171 C27.0320207,38.0895171 27.0470207,38.0805171 27.0630207,38.0795171 C27.0300207,38.1825171 26.9830207,38.2825171 26.9680207,38.3905171 C18.9430207,39.3845171 11.2280207,42.0185171 4.30402066,46.2045171 M29.7690207,34.9155171 C29.3100207,30.0715171 27.9600207,25.3705171 25.7900207,21.0205171 C25.3720207,19.7525171 24.8080207,18.5365171 24.0880207,17.4105171 C24.0040207,17.2785171 23.8990207,17.1925171 23.7870207,17.1305171 C23.5560207,16.6365171 23.3120207,16.1475171 23.0330207,15.6775171 C22.1690207,14.2255171 20.8870207,12.8885171 19.3430207,12.2725171 C19.2150207,12.0675171 19.0050207,11.9155171 18.6870207,11.9194399 C18.4880207,11.9215171 18.2960207,11.9425171 18.1010207,11.9555171 C17.5500207,11.8885171 16.9750207,11.9115171 16.3810207,12.0585171 C16.1970207,12.1045171 16.0750207,12.2005171 15.9790207,12.3135171 C11.5180207,13.5505171 8.34602066,17.5585171 5.87002066,21.3935171 C2.59502066,26.4715171 -0.677979341,31.7395171 0.122020659,38.0365171 C0.495020659,40.9725171 1.52002066,43.7465171 2.64602066,46.4675171 C2.64702066,46.4835171 2.64102066,46.4955171 2.64402066,46.5125171 C2.77302066,47.2965171 2.97302066,48.0545171 3.22602066,48.7845171 C3.42102066,48.5365171 3.62302066,48.2985171 3.82802066,48.0625171 C4.10902066,48.3135171 4.51302066,48.4095171 4.93402066,48.1515171 C11.7870207,43.9345171 19.4980207,41.2305171 27.4970207,40.3135171 C27.8820207,40.2705171 28.1480207,40.0535171 28.2990207,39.7775171 C28.3080207,39.7745171 28.3170207,39.7715171 28.3260207,39.7685171 C28.4150207,39.7845171 28.5120207,39.7995171 28.5990207,39.7905171 C28.8800207,39.7635171 28.9300207,39.7485171 29.1850207,39.6335171 C29.2900207,39.5855171 29.3840207,39.4995171 29.4680207,39.4275171 C29.6300207,39.2845171 29.7670207,39.0385171 29.8190207,38.8315171 C29.8380207,38.7555171 29.8390207,38.6845171 29.8460207,38.6135171 C29.8760207,38.6085171 29.9070207,38.6045171 29.9370348,38.6005171 C29.9380207,37.3695171 29.8860207,36.1385171 29.7690207,34.9155171" id="Fill-7"></path>
                <path d="M57.9549207,34.7944171 C57.9189207,34.8154171 57.9039207,34.8474171 57.8719207,34.8714171 C57.7079207,33.7124171 57.5769207,32.5814171 57.4549207,31.5384171 C56.8929207,26.7194171 56.9069207,21.5084171 58.6309207,16.9614171 C59.3859207,20.5774171 61.3119207,24.0204171 64.7539207,25.6644171 C67.7679207,27.1044171 72.1869207,26.9924171 74.4159207,24.3904171 C74.8659207,26.4134171 75.1419207,28.4814171 75.3599207,30.5374171 C69.2809207,30.0884171 63.1419207,31.5874171 57.9549207,34.7944171 M77.1809207,32.4094171 C76.9599207,29.3484171 76.5559207,26.2514171 75.8439207,23.2764171 C75.7509207,22.8904171 75.6459207,22.5044171 75.5379207,22.1184171 C75.5339207,21.9744171 75.4999207,21.8424171 75.4259207,21.7354171 C74.4939207,18.6174171 72.9839207,15.6264171 70.4889207,13.4814171 C69.4119207,12.5544171 68.2019207,11.8104171 66.9149207,11.2924171 C66.7849207,11.1904171 66.6589207,11.0854171 66.5259207,10.9874171 C65.4999207,10.2374171 64.2579207,9.46641709 62.9329207,9.61341709 C62.5319207,9.65841709 62.1719207,9.79241709 61.8519207,9.98241709 C61.5789207,9.83341709 61.2379207,9.83541709 60.9549207,10.1344171 C55.9519207,15.4414171 55.0119207,22.9814171 55.6439207,29.9644171 C55.8569207,32.3144171 56.1489207,34.7044171 56.6089207,37.0464171 C57.0339207,36.8494171 57.4639207,36.6554171 57.8959207,36.4644171 C58.1739207,36.6904171 58.5619207,36.7694171 58.9639207,36.5214171 C64.0189207,33.3964171 69.9359207,32.0214171 75.8509207,32.5624171 C76.1389207,32.5884171 76.3509207,32.4974171 76.5099207,32.3564171 C76.7329207,32.3764171 76.9569207,32.3844171 77.1809207,32.4094171" id="Fill-11"></path>
                <path d="M38.5061207,13.8520171 C30.8771207,9.28701709 22.6201207,5.83401709 14.0111207,3.61301709 C12.7641207,3.29101709 12.2321207,5.22001709 13.4791207,5.54101709 C21.9321207,7.72301709 30.0061207,11.0960171 37.4961207,15.5800171 C38.6041207,16.2420171 39.6101207,14.5130171 38.5061207,13.8520171" id="Fill-13"></path>
                <path d="M68.7215207,0.099017086 C61.0015207,3.59601709 53.8615207,8.24901709 47.5185207,13.8680171 C46.5525207,14.7230171 47.9715207,16.1330171 48.9325207,15.2820171 C55.1495207,9.77701709 62.1675207,5.25201709 69.7305207,1.82601709 C70.9015207,1.29501709 69.8865207,-0.427982914 68.7215207,0.099017086" id="Fill-15"></path>
            </g>
            <path d="M139.3576,130.4562 C137.3156,127.7392 135.2236,125.0602 133.1696,122.3522 C131.1836,119.7342 128.7846,116.1842 130.6526,112.8622 C131.1726,111.9372 129.7506,111.1062 129.2306,112.0312 C127.5726,114.9792 128.5156,118.3592 130.2286,121.0502 C132.3116,124.3222 134.9106,127.3242 137.2646,130.4052 C138.6076,132.1652 143.2736,138.4042 138.6786,139.1682 C136.7326,139.4912 134.7036,138.6722 132.9206,137.9912 C131.0626,137.2812 129.2626,136.4372 127.5116,135.4942 C126.5786,134.9912 125.7456,136.4132 126.6806,136.9162 C129.4586,138.4122 132.4846,139.8642 135.5726,140.5842 C137.9916,141.1472 141.4726,141.0122 142.1286,138.0252 C142.7366,135.2632 140.9296,132.5492 139.3576,130.4562" id="nose" fill="#231F20"></path>
            <path d="M140.1442,163.2374 C139.6412,163.5884 138.4972,163.3654 137.9322,163.3664 C137.0092,163.3664 136.0852,163.3684 135.1622,163.3684 L129.6222,163.3744 C129.1192,163.3744 128.1322,163.5634 127.8582,163.0214 C127.5962,162.5034 127.8312,161.5284 127.8782,160.9874 C128.0192,159.3634 128.2062,157.7394 128.6502,156.1654 C129.4822,153.2154 131.6412,150.0794 135.0032,149.9464 C135.0882,149.9424 135.1532,149.9114 135.2272,149.8914 C137.3272,150.3024 139.0572,152.2584 139.7632,154.2114 C140.3162,155.7424 140.4842,157.3644 140.5182,158.9814 C140.5352,159.7994 140.5182,160.6184 140.4942,161.4354 C140.4802,161.9034 140.5972,162.9214 140.1442,163.2374 M142.0032,154.7044 C140.9972,150.7534 137.4702,147.1144 133.1082,147.9574 C132.7412,148.0284 132.5402,148.2474 132.4512,148.5084 C129.9732,149.5324 128.1242,151.8194 127.1442,154.3564 C126.3952,156.2974 126.1212,158.3854 125.9272,160.4444 C125.7682,162.1274 125.4322,164.4244 127.4232,165.1594 C128.3022,165.4844 129.3212,165.3744 130.2382,165.3744 C131.4692,165.3724 132.7002,165.3714 133.9312,165.3704 C135.0602,165.3684 136.1882,165.3684 137.3162,165.3664 C138.3562,165.3654 139.5082,165.5054 140.5212,165.2264 C142.5012,164.6824 142.4702,162.5544 142.5092,160.8914 C142.5572,158.8234 142.5172,156.7194 142.0032,154.7044" id="mouth" fill="#231F20"></path>
        </g>
    </g>
</svg>