<svg width="500" height="600" xmlns="http://www.w3.org/2000/svg"><g fill="#231F20" fill-rule="evenodd"><path d="M324.048 202.302a.847.847 0 00-.286.533c-1.23 9.626-8.334 17.037-15.077 23.52-.323-.088-.698-.02-.947.313-4.089 5.46-6.692 12.605-12.566 16.505-6.528 4.334-14.805 2.958-21.875.903-3.937-1.144-7.794-2.568-11.668-3.909-4.345-1.504-8.69-3.008-13.036-4.51-7.659-2.653-15.522-5.226-22.215-9.933-6.142-4.319-11.239-10.935-11.983-18.546-.013-.089-.017-.178-.033-.267a20.1 20.1 0 01-.071-1.615c-.001-.814-.969-.998-1.418-.559-.476.122-.877.64-.566 1.203.228.415.364.854.441 1.3.017.18.034.36.056.54.065 1.408-.515 2.844-1.506 3.88-.848.888-1.94 1.398-3.105 1.625a1.673 1.673 0 00-1.056-.299c-3.561.251-6.227-2.975-8.412-5.343a131.585 131.585 0 01-8.141-9.706 2.709 2.709 0 00-.757-.68c-.113-.192-.234-.38-.343-.575l-.019-.037c-.008-.015-.02-.027-.026-.04-1.353-2.4-2.451-4.92-2.929-7.65-.23-1.305-.25-2.677.004-3.99a2.13 2.13 0 00.35-.412c1.065-1.643 2.83-2.729 4.73-3.1a5.351 5.351 0 002.341-.09 6.79 6.79 0 011.168.243c1.845.558 3.611 1.944 5.091 3.154 1.603 1.311 2.954 2.772 3.807 4.677.342.762 1.275 1.07 2.078.94.28.063.556.07.819.03a.839.839 0 00.447-.126c.551-.22.994-.672 1.192-1.302a9.389 9.389 0 00.417-3.33l.173-.576c.101-.333-.065-.715-.356-.905-.204-1.08-.557-2.139-1.003-3.17a52.686 52.686 0 00-7.909-19.71l1.622.618c1.277.486 2.587 1.13 3.943 1.35 1.123.182 2.173-.078 2.989-.702.713.326 1.562.357 2.241-.107a19.142 19.142 0 004.288-4c.415-.45.78-.947 1.066-1.499.108-.209.18-.413.231-.615a24.09 24.09 0 002.533-5.463c2.69-2.39 3.512-6.293 3.442-9.954 2.771 3.32 6.847 5.474 11.174 5.95 5.598.616 10.991-2.025 14.364-6.453a16.375 16.375 0 002.255-4.074c.29-.516.567-1.039.829-1.567 2.221 3.676 5.741 6.636 9.99 7.535 5.063 1.07 10.177-1.314 12.688-5.847.544-.983.916-2.04 1.121-3.124.34 1.89.938 3.528 2.432 5.021.643.643 1.461 1.215 2.354 1.665 1.492 1.37 3.356 2.272 5.731 2.344 2.875.087 5.324-1.668 6.709-4.102 1.055-1.854 1.442-3.912 1.562-6.005 2.077 3.071 5.7 5.125 9.463 4.874 3.911-.26 7.294-2.787 8.952-6.208a8.127 8.127 0 002.622.892c.082.04.16.086.243.122-4.289 5.384-3.985 13.345-2.621 19.748 1.604 7.524 5.045 14.482 7.859 21.595 1.621 4.101 3.05 8.285 3.85 12.63.017.09.056.155.091.223a82.24 82.24 0 01.166 16.167m-53.165 51.45c-.764.766-1.981 1.146-3.008 1.403-1.096.273-2.358.402-3.417-.082-1.12-.514-1.594-1.712-2.352-2.603-.341-.4-.737-.69-1.167-.983-.656-.443-.587-.886-.609-1.635l-.243-8.4a436.591 436.591 0 0010.481 3.51.813.813 0 00.034.312c.473 1.46.801 2.96.92 4.49.097 1.257.338 3.006-.639 3.987M259.456 68.608a9.501 9.501 0 01-2.405 1.296c.756-.504 1.562-.94 2.405-1.296m30.338 69.75l.075-.089c-1.056 1.387-2.543 2.345-4.326 2.43 1.603-.375 3.12-1.11 4.251-2.342m6.784-5.025a9.657 9.657 0 01-2.385-3.01 26.437 26.437 0 002.385 3.01M324.5 181.65c-3.512-12.924-11.905-24.715-11.644-38.433.073-3.86 1-7.87 3.623-10.797.434.054.872.068 1.306.027 3.37-.32 5.95-3.04 7.166-6.039 1.464-3.606 1.53-7.915 1.357-11.752-.124-2.762-.577-5.585-1.627-8.16-.382-1.36-1.1-2.578-2.029-3.6-1.642-2.178-3.862-3.93-6.449-4.769-.012-.033-.027-.064-.04-.097.44-2.15.737-4.482-.348-6.48a5.085 5.085 0 00-1.573-1.764c-.491-1.999-1.299-3.782-2.701-5.248a6.687 6.687 0 00-1.722-2.296 6.54 6.54 0 00-4.578-1.527 10.435 10.435 0 00-2.159-3.105c-3.24-3.24-9.392-4.51-13.33-1.72-.293.207-.588.422-.884.636-.742-2.749-2.68-5.016-5.165-6.425-.195-.154-.382-.317-.589-.457-2.073-1.41-4.779-1.98-7.206-1.386a10.968 10.968 0 00-1.879-1.472 4.36 4.36 0 00-1.93-1.32c-.812-.273-1.664-.338-2.52-.324-1.941-.302-3.964-.13-5.841.592-.187.03-.376.05-.563.085-3.481.641-7.014 2.144-9.404 4.714-1.454.018-2.848-.333-3.913-1.167-3.177-2.487-6.488-3.486-9.772-2.859-3.447.315-5.917 2.657-8.363 4.962l-2.668 2.174c-2.547-1.43-5.082-2.918-7.711-4.179-2.523-1.21-5.356-2.052-8.118-1.152-5.304 1.727-7.258 7.258-8.518 12.2-3.997-2.398-8.987-3.045-13.466-1.713-1.497.445-2.889 1.135-4.173 1.986a14.974 14.974 0 00-5.92 4.756c-2.416 3.254-3.415 7.168-2.955 10.914-.699.281-1.519.435-2.057.645a17.868 17.868 0 00-3.151 1.598 18.621 18.621 0 00-6.066 6.396 15.221 15.221 0 00-2.966 5.578c-1.464 5.1-.229 9.986 2.555 14.048-3.439.861-6.658 2.59-9.061 5.222a14.57 14.57 0 00-3.542 7.047c-1.483 3.95-.967 8.601 2.356 11.653.177.161.361.306.543.455-3.369 1.845-4.299 6.78-3.574 10.322.716 3.505 2.886 6.61 5.862 8.523a10.13 10.13 0 00-1.226 1.74c-.016.023-.034.043-.049.065-.32.475-.537.99-.681 1.524-1.725 4.715-.276 11.03 4.612 13.418 1.142.557 1.256.38 1.712 1.091 1.048 1.631 2.318 2.805 3.698 3.63-.978 1.128-1.471 2.71-1.077 4.488.011.048.025.095.035.144-.035.302-.072.604-.086.906-.167 3.835 1.482 7.412 3.387 10.64 2.076 3.517 4.169 7.152 6.594 10.442 2.183 2.964 5.116 5.626 8.908 6.12 3.023.392 6.277-1.052 7.639-3.764.65.558 1.367 1.041 2.128 1.44 1.008 1.42 2.522 2.625 3.737 3.57 2.248 1.747 4.837 3.121 7.634 3.73 5.098 1.111 10.771-.537 13.811-4.925a32.809 32.809 0 002.495 2.454c6.326 5.553 14.364 8.604 22.202 11.343 4.618 1.615 9.232 3.265 13.858 4.88l.238 8.242c.033 1.161-.13 2.514.837 3.353.387.336.859.546 1.219.914.397.407.682.903 1.012 1.364 1.383 1.93 3.399 2.525 5.7 2.17 1.986-.307 4.566-1.186 5.418-3.184.553-1.298.423-2.885.297-4.255a21.414 21.414 0 00-.752-3.956c6.785 2.03 14.359 3.411 21.03.475 7.306-3.216 10.429-10.8 14.696-17.038a.772.772 0 00.44-.208c6.736-6.43 13.869-13.578 16.231-22.786a.864.864 0 00.595-.725c.949-7.663.809-15.395-.362-23.026-.054-.348-.27-.518-.523-.568"/><path d="M266.031 189.735c-.683 2.97-1.817 6.053-4.315 7.766-3.284 2.25-8.037 2.203-11.556.558a12.246 12.246 0 01-3.556-2.537c.571.145 1.281-.154 1.296-.92.096-4.922 3.568-8.906 7.003-12.072 3.49-3.218 7.511-5.935 12.147-7.117.03.394.057.788.086 1.177.303 4.13.241 8.29-1.342 12.177-.174.426-.032.76.237.968m-22.549.62a.844.844 0 00.032-.74c-1.439-3.398-2.94-6.954-3.11-10.692-.16-3.567 1.15-6.83 2.891-9.875 1.405-2.461 2.927-4.978 4.681-7.243 0-.033.004-.066.004-.1a.975.975 0 00.721-.634c1.253-3.47 6.331-3.871 9.348-3.061 3.617.972 6.135 3.695 7.331 7.186.894 2.609 1.265 5.408 1.507 8.187-5.234 1.23-9.762 4.333-13.645 7.96-3.747 3.5-7.237 7.902-7.342 13.259 0 .076.026.134.037.2a13.173 13.173 0 01-2.455-4.447m25.75-12.222c-.175-3.572-.475-7.244-1.196-10.751-.67-3.26-2.005-6.555-4.603-8.756a12.677 12.677 0 00-8.305-2.981c-3.368.049-7.134 1.512-8.356 4.894-.032.089-.027.165-.036.246a41.865 41.865 0 00-2.098 2.969c-3.276 5.077-6.548 10.344-5.749 16.642.373 2.935 1.4 5.71 2.525 8.43.001.016-.005.029-.002.046 1.401 8.529 10.487 14.188 18.744 11.22 4.2-1.51 6.167-5.141 7.265-9.245.178-.67.333-1.346.474-2.025 1.28-3.41 1.512-7.073 1.336-10.69m40.624-27.991c-4.072-3.507-9.533-4.21-14.704-4.562-1.058-.072-1.054 1.576 0 1.647 4.688.318 9.835.89 13.54 4.08.799.69 1.969-.472 1.164-1.165m4.31 32.201c-.42 2.666-1.36 5.734-3.324 7.693-1.159 1.16-3.087.811-4.574.587-1.544-.232-3.058-.7-4.343-1.608-1.454-1.027-2.499-2.45-3.272-4.07.167-.178.274-.405.243-.649-.457-3.67 1.581-6.914 4.106-9.394 2.501-2.457 6.235-5.193 9.933-4.063a.86.86 0 00.92-.23c.131.974.245 1.951.343 2.923.294 2.916.426 5.905-.032 8.811m-18.036-17.475a.938.938 0 00.198-.555c.007-.324.016-.653.028-.982.04-.217.071-.437.116-.653-.029-.007-.053-.019-.08-.025.117-1.976.442-3.965 1.536-5.64 1.235-1.889 3.288-2.945 5.526-2.325 2.185.604 4.217 2.155 5.745 3.794 1.15 1.23 2.067 2.697 2.52 4.312-.035.067-.065.137-.1.201.1.186.186.38.277.571a8 8 0 01.103.761.98.98 0 00.522.8c.197.612.347 1.24.423 1.872.081-.082.165-.16.242-.249.164.74.3 1.49.423 2.238-.049-.024-.085-.059-.142-.077-4.348-1.33-8.693 1.513-11.703 4.406-2.032 1.952-3.827 4.416-4.573 7.15-.49-2.259-.734-4.569-.966-6.568-.345-2.948-.45-6.035-.095-9.03m19.901 10.976c-.198-3.408-.623-6.887-1.418-10.209a31.804 31.804 0 00-.306-1.157.697.697 0 00-.112-.384c-.124-.413-.28-.815-.427-1.222-.482-2.184-1.605-4.146-3.155-5.806-1.858-1.993-4.483-3.936-7.207-4.443-2.77-.515-5.278.74-6.912 2.96-1.84 2.503-2.1 5.725-2.166 8.73a.918.918 0 00.136.503c-.288 2.49-.275 5.031-.05 7.506.31 3.411.757 6.913 1.693 10.214.776 2.731 2.028 5.491 4.254 7.342 2.42 2.011 6.135 2.912 9.247 2.546 3.03-.355 4.702-4.305 5.497-6.842.982-3.129 1.115-6.486.926-9.738"/><path d="M268.461 174.999c-.08-1.012-1.28-1.33-1.863-.504-.212.3-.35.625-.454.958-.17-.132-.372-.227-.578-.206-.209.022-.409.043-.603.122a2.466 2.466 0 00-.728.432 1.894 1.894 0 00-.442.57.84.84 0 00-.658-.046 18.77 18.77 0 00-9.508 7.283 743.8 743.8 0 01-1.465 1.162c-.215.17-.3.442-.288.713a.8.8 0 00-.615.303 16.664 16.664 0 00-3.1 5.553.814.814 0 00-.018.417 22.72 22.72 0 00-1.552 3.43c-.213.604.177 1.039.668 1.172.04.06.08.118.135.16.54.426 1.101.743 1.726.998.008.005.014.012.021.018l.003-.008c.082.034.152.078.236.109.14.05.282.043.422.014.277.342.597.645 1.02.8.126.048.256.059.385.068.185.099.364.207.56.28.424.165.86.223 1.3.222.13.23.333.42.588.473a5.913 5.913 0 003.71-.46.893.893 0 00.762.106c.784-.258 1.51-.628 2.198-1.05.307.209.697.218 1.055.047 1.824-.871 3.216-2.736 3.503-4.74.024-.172.031-.33.002-.484.45-.892.788-1.84.956-2.83a18.751 18.751 0 001.304-3.883c.061.014.123.039.183.039.588 0 .944-.46 1-1 .362-3.402.406-6.827.135-10.238m46.959-3.791a.995.995 0 00-.137-.505 13.717 13.717 0 00-.156-.202 1.002 1.002 0 00-.44-.258l-.195-.065c-.045-.032-.083-.075-.129-.105-.384-.242-.81-.344-1.256-.39a2.362 2.362 0 00-.61.02.864.864 0 00-.854-.186 18.09 18.09 0 00-2.689 1.01.82.82 0 00-.522.142c-.17.117-.332.244-.494.37a18.3 18.3 0 00-1.496.916 1.012 1.012 0 00-.476.1c-.822.409-1.482 1.073-1.943 1.856-.29.28-.57.569-.839.869-.057.064-.08.132-.118.198a3.195 3.195 0 00-.873.406c-.826.566-1.376 1.41-1.476 2.408-.475.006-.956.312-1.02.943a9.583 9.583 0 01-.352 1.694c-.032.09-.072.175-.102.266a5.445 5.445 0 00-.409 1.305c-.152.12-.28.272-.324.479a4.43 4.43 0 00.99 3.875c-.168.348-.157.76.21 1.055.11.09.227.182.34.272-.056.425.097.804.466 1.047a9.736 9.736 0 004.273 1.516c.318.06.641.1.974.106.066 0 .132-.006.197-.01a.831.831 0 00.185.132c.06.03.122.048.182.076l.002.018c.153.54.698.814 1.231.699.323-.071.642-.176.954-.301a4.537 4.537 0 001.055-.182 1.1 1.1 0 00.92.018 2.244 2.244 0 001.296-1.684c.006-.04.003-.078.006-.118 1.244-1.286 1.963-2.996 2.073-4.791a.855.855 0 00-.1-.47c.8-1.941 1.031-4.061.683-6.151a9.158 9.158 0 00.143-4.387c-.022-.102-.066-.18-.106-.258-.004-.145-.014-.291-.023-.436a.92.92 0 00.425-.123c.214-.138.401-.343.46-.598.02-.091.012-.175.012-.26.005-.018.022-.031.026-.05l.036-.266zm-63.176-29.924c-1.487 7.437-7.903 13.629-15.479 14.604-.54.068-.993.409-1 1-.004.486.464 1.068 1 1 8.431-1.085 15.73-7.686 17.408-16.073.251-1.257-1.676-1.795-1.929-.531m41.189 53.173c-2.041-2.718-4.134-5.396-6.188-8.104-1.986-2.618-4.384-6.168-2.517-9.49.52-.925-.901-1.756-1.422-.831-1.658 2.948-.715 6.328.998 9.019 2.083 3.272 4.683 6.274 7.036 9.355 1.343 1.759 6.009 7.998 1.414 8.762-1.946.324-3.974-.496-5.758-1.177a46.022 46.022 0 01-5.41-2.496c-.932-.503-1.764.918-.83 1.422 2.778 1.496 5.804 2.948 8.893 3.667 2.419.563 5.899.429 6.555-2.56.608-2.76-1.2-5.475-2.771-7.567m-7.253 31.158c-2.054-3.334-1.614-7.92.83-10.933a.918.918 0 00.862-.703c.139-.488.424-.851.803-1.108 1.988 4.18.969 9.64-2.495 12.744m3.808-14.54a1.026 1.026 0 00-1.13-.46 3.97 3.97 0 00-2.425 1.75c-4.262 3.927-4.68 10.873-1.16 15.397.246.317.89.394 1.213.157 5.138-3.781 6.78-11.321 3.502-16.844"/></g></svg>