<?xml version="1.0" encoding="UTF-8"?>
<svg width="500px" height="600px" viewBox="0 0 500 600" version="1.1" xmlns="http://www.w3.org/2000/svg" xmlns:xlink="http://www.w3.org/1999/xlink">
    <title>crylookingstraight</title>
    <g id="crylookingstraight" stroke="none" stroke-width="1" fill="none" fill-rule="evenodd">
        <g transform="translate(153.000000, 64.000000)">
            <g id="tears" transform="translate(89.236343, 105.798528)" fill="#808184">
                <path d="M74.6043573,7.41697197 C74.4323573,5.77097197 73.6193573,4.05497197 72.6283573,2.73897197 C71.5653573,1.32497197 70.1413573,0.565971969 68.3753573,0.436971969 C66.9813573,0.333971969 65.5543573,0.385971969 64.1383573,0.456971969 C62.9303573,-0.0140280307 61.5383573,-0.0880280307 60.2443573,0.0859719693 C57.8573573,0.407971969 55.5143573,1.13097197 53.3353573,2.15097197 C52.8473573,2.37997197 52.5353573,2.88497197 52.7283573,3.42797197 C52.7383573,3.45797197 52.7643573,3.48097197 52.7783573,3.51097197 C52.7903573,3.61497197 52.8133573,3.72097197 52.8563573,3.82097197 C52.8983573,3.96597197 52.9633573,4.10797197 53.0813573,4.23997197 C54.1313573,5.41897197 55.7613573,5.35397197 57.1923573,5.12397197 C58.0423573,4.98697197 58.9233573,4.80397197 59.6633573,5.35197197 C60.2423573,5.77997197 60.6513573,6.40797197 61.1803573,6.89197197 C62.3283573,7.93797197 63.6493573,8.06097197 65.0693573,7.51997197 C65.6493573,7.29797197 66.3143573,6.88697197 66.9563573,7.05497197 C67.8743573,7.29297197 68.4613573,8.43397197 69.0293573,9.10497197 C69.9333573,10.175972 71.2663573,11.087972 72.7393573,10.681972 C74.1973573,10.278972 74.7493573,8.81397197 74.6043573,7.41697197" id="Fill-4"></path>
                <path d="M0.0457573177,13.646472 C-0.300242682,12.005472 1.38075732,12.177472 2.90375732,10.984472 C4.90275732,9.41947197 7.78775732,8.74847197 10.0237573,7.53447197 C13.0417573,5.89547197 16.1947573,4.59347197 19.3967573,3.63347197 C21.2437573,2.98147197 23.1067573,2.42847197 24.9797573,1.95747197 C25.3347573,1.65947197 25.8437573,1.50847197 26.2307573,1.78747197 C27.4957573,2.69647197 27.3687573,4.46847197 26.3967573,5.95847197 C25.1587573,7.85147197 22.8197573,8.78347197 20.8027573,9.73347197 C19.7817573,10.213472 18.6547573,10.784472 17.8697573,11.602472 C17.0407573,12.467472 16.9697573,13.458472 16.4087573,14.400472 C15.2977573,16.266472 12.9597573,17.014472 11.0157573,16.901472 C9.99175732,16.842472 9.09075732,16.534472 8.12375732,16.353472 C6.84575732,16.115472 6.07775732,16.593472 4.83375732,17.174472 C3.10975732,17.979472 0.376757318,15.216472 0.0457573177,13.646472" id="Fill-14"></path>
            </g>
            <path d="M171.0487,137.3014 C170.9037,137.4314 170.7917,137.6044 170.7627,137.8354 C169.5317,147.4604 162.4277,154.8724 155.6847,161.3554 C155.3617,161.2674 154.9877,161.3354 154.7377,161.6684 C150.6487,167.1284 148.0457,174.2734 142.1717,178.1724 C135.6437,182.5074 127.3667,181.1314 120.2967,179.0754 C116.3597,177.9314 112.5027,176.5084 108.6297,175.1674 C104.2837,173.6634 99.9387,172.1594 95.5937,170.6554 C87.9337,168.0044 80.0707,165.4314 73.3787,160.7244 C67.2357,156.4054 62.1387,149.7884 61.3947,142.1784 C61.3827,142.0894 61.3777,141.9994 61.3617,141.9114 C61.3177,141.3774 61.2917,140.8394 61.2907,140.2964 C61.2897,139.4814 60.3217,139.2984 59.8727,139.7374 C59.3967,139.8594 58.9967,140.3774 59.3067,140.9404 C59.5347,141.3554 59.6707,141.7934 59.7477,142.2394 C59.7657,142.4194 59.7817,142.6004 59.8037,142.7804 C59.8697,144.1884 59.2887,145.6244 58.2987,146.6604 C57.4497,147.5484 56.3587,148.0584 55.1937,148.2854 C54.8837,148.0784 54.5217,147.9584 54.1367,147.9864 C50.5767,148.2374 47.9107,145.0114 45.7257,142.6434 C42.8617,139.5384 40.1357,136.3034 37.5837,132.9374 C37.3717,132.6574 37.1117,132.4284 36.8267,132.2574 C36.7137,132.0654 36.5937,131.8764 36.4837,131.6824 C36.4777,131.6704 36.4707,131.6574 36.4647,131.6454 C36.4577,131.6304 36.4457,131.6184 36.4387,131.6044 C35.0867,129.2054 33.9887,126.6844 33.5097,123.9544 C33.2797,122.6504 33.2597,121.2774 33.5137,119.9644 C33.6397,119.8474 33.7597,119.7154 33.8647,119.5534 C34.9287,117.9104 36.6937,116.8244 38.5937,116.4524 C39.3827,116.6014 40.1797,116.5594 40.9347,116.3624 C41.3287,116.4104 41.7207,116.4894 42.1027,116.6064 C43.9487,117.1644 45.7137,118.5504 47.1937,119.7604 C48.7967,121.0714 50.1477,122.5324 51.0017,124.4374 C51.3437,125.1994 52.2757,125.5064 53.0787,125.3764 C53.3597,125.4404 53.6347,125.4474 53.8977,125.4064 C54.0607,125.4054 54.2127,125.3644 54.3447,125.2804 C54.8957,125.0614 55.3397,124.6094 55.5367,123.9794 C55.8917,122.8544 56.0097,121.7424 55.9537,120.6494 C56.0117,120.4574 56.0697,120.2654 56.1277,120.0734 C56.2287,119.7394 56.0617,119.3574 55.7717,119.1684 C55.5667,118.0874 55.2137,117.0294 54.7687,115.9984 C53.4957,108.9744 50.8127,102.2464 46.8587,96.2874 L48.4817,96.9054 C49.7577,97.3924 51.0677,98.0364 52.4237,98.2564 C53.5467,98.4384 54.5977,98.1774 55.4127,97.5544 C56.1257,97.8804 56.9747,97.9114 57.6537,97.4474 C59.3027,96.3204 60.7297,94.9914 61.9417,93.4474 C62.3577,92.9964 62.7227,92.4994 63.0087,91.9484 C63.1157,91.7394 63.1877,91.5354 63.2387,91.3334 C64.3077,89.6294 65.1597,87.7884 65.7717,85.8704 C68.4617,83.4794 69.2837,79.5774 69.2137,75.9164 C71.9847,79.2364 76.0607,81.3894 80.3877,81.8654 C85.9857,82.4824 91.3787,79.8414 94.7517,75.4134 C95.7047,74.1624 96.4517,72.7874 97.0067,71.3394 C97.2967,70.8224 97.5737,70.3004 97.8357,69.7724 C100.0567,73.4474 103.5777,76.4084 107.8267,77.3074 C112.8887,78.3764 118.0037,75.9934 120.5137,71.4604 C121.0577,70.4774 121.4297,69.4194 121.6357,68.3364 C121.9757,70.2254 122.5737,71.8634 124.0667,73.3574 C124.7097,74.0004 125.5287,74.5724 126.4207,75.0224 C127.9137,76.3924 129.7777,77.2944 132.1527,77.3664 C135.0277,77.4534 137.4767,75.6974 138.8607,73.2644 C139.9167,71.4104 140.3037,69.3524 140.4227,67.2594 C142.4997,70.3294 146.1227,72.3844 149.8857,72.1334 C153.7967,71.8714 157.1797,69.3464 158.8377,65.9254 C159.6527,66.3674 160.5357,66.6724 161.4597,66.8164 C161.5417,66.8564 161.6197,66.9034 161.7027,66.9394 C157.4137,72.3224 157.7177,80.2834 159.0817,86.6874 C160.6857,94.2114 164.1277,101.1694 166.9407,108.2824 C168.5627,112.3834 169.9907,116.5674 170.7917,120.9124 C170.8087,121.0024 170.8467,121.0674 170.8827,121.1354 C171.4687,126.5044 171.5237,131.9214 171.0487,137.3014 M117.8827,188.7514 C117.1197,189.5184 115.9017,189.8984 114.8747,190.1544 C113.7787,190.4284 112.5167,190.5574 111.4577,190.0724 C110.3377,189.5594 109.8637,188.3614 109.1057,187.4704 C108.7647,187.0694 108.3697,186.7794 107.9387,186.4874 C107.2827,186.0444 107.3517,185.6014 107.3297,184.8524 C107.2487,182.0514 107.1677,179.2514 107.0877,176.4514 C110.5697,177.6574 114.0597,178.8444 117.5677,179.9614 C117.5607,180.0584 117.5657,180.1604 117.6027,180.2734 C118.0747,181.7334 118.4027,183.2334 118.5217,184.7644 C118.6187,186.0214 118.8597,187.7694 117.8827,188.7514 M106.4557,3.6084 C105.7527,4.1374 104.9317,4.5774 104.0517,4.9044 C104.8067,4.4004 105.6127,3.9644 106.4557,3.6084 M136.7937,73.3574 C136.8197,73.3294 136.8437,73.2974 136.8687,73.2694 C135.8127,74.6564 134.3267,75.6134 132.5437,75.6974 C134.1467,75.3234 135.6627,74.5884 136.7937,73.3574 M143.5787,68.3324 C142.5947,67.5004 141.7737,66.4744 141.1927,65.3214 C141.9157,66.3834 142.7147,67.3924 143.5787,68.3324 M171.4997,116.6504 C167.9887,103.7264 159.5947,91.9354 159.8557,78.2164 C159.9287,74.3574 160.8557,70.3464 163.4787,67.4204 C163.9127,67.4744 164.3517,67.4884 164.7847,67.4474 C168.1547,67.1274 170.7357,64.4064 171.9507,61.4084 C173.4147,57.8024 173.4807,53.4934 173.3077,49.6554 C173.1837,46.8944 172.7317,44.0714 171.6807,41.4964 C171.2987,40.1354 170.5817,38.9184 169.6527,37.8964 C168.0097,35.7184 165.7897,33.9654 163.2027,33.1274 C163.1917,33.0944 163.1757,33.0634 163.1627,33.0304 C163.6027,30.8794 163.8997,28.5484 162.8147,26.5504 C162.4217,25.8264 161.8797,25.2274 161.2417,24.7864 C160.7507,22.7874 159.9427,21.0034 158.5407,19.5384 C158.1397,18.6724 157.5717,17.8844 156.8197,17.2424 C155.5437,16.1564 153.8757,15.6244 152.2407,15.7154 C151.7427,14.6104 151.0347,13.5624 150.0817,12.6104 C146.8417,9.3694 140.6907,8.1004 136.7517,10.8904 C136.4587,11.0974 136.1647,11.3124 135.8677,11.5264 C135.1267,8.7764 133.1877,6.5094 130.7027,5.1014 C130.5087,4.9474 130.3207,4.7844 130.1137,4.6444 C128.0407,3.2334 125.3347,2.6634 122.9077,3.2574 C122.3387,2.6994 121.7067,2.2084 121.0287,1.7864 C120.5277,1.1914 119.8557,0.7184 119.0987,0.4654 C118.2877,0.1934 117.4347,0.1284 116.5787,0.1424 C114.6377,-0.1596 112.6147,0.0104 110.7377,0.7334 C110.5517,0.7644 110.3617,0.7834 110.1757,0.8184 C106.6947,1.4604 103.1607,2.9634 100.7707,5.5334 C99.3167,5.5514 97.9227,5.2004 96.8587,4.3664 C93.6817,1.8784 90.3697,0.8804 87.0857,1.5074 C83.6397,1.8224 81.1687,4.1644 78.7227,6.4684 C77.8327,7.1934 76.9447,7.9174 76.0557,8.6434 C73.5077,7.2134 70.9727,5.7254 68.3437,4.4644 C65.8217,3.2544 62.9877,2.4124 60.2257,3.3124 C54.9217,5.0394 52.9687,10.5704 51.7077,15.5124 C47.7117,13.1144 42.7217,12.4674 38.2417,13.7994 C36.7447,14.2444 35.3527,14.9344 34.0697,15.7844 C31.8057,16.8084 29.7667,18.3634 28.1487,20.5414 C25.7327,23.7954 24.7347,27.7094 25.1947,31.4554 C24.4957,31.7364 23.6747,31.8904 23.1377,32.1004 C22.0377,32.5304 20.9807,33.0584 19.9867,33.6974 C17.4977,35.2994 15.3887,37.5184 13.9207,40.0944 C12.6107,41.6704 11.5767,43.5044 10.9547,45.6724 C9.4897,50.7714 10.7247,55.6584 13.5087,59.7204 C10.0697,60.5814 6.8517,62.3084 4.4487,64.9424 C2.6177,66.9474 1.4077,69.3964 0.9057,71.9894 C-0.5773,75.9384 -0.0613,80.5904 3.2627,83.6424 C3.4387,83.8034 3.6227,83.9474 3.8047,84.0974 C0.4357,85.9424 -0.4943,90.8764 0.2307,94.4194 C0.9477,97.9244 3.1167,101.0294 6.0927,102.9424 C5.6357,103.4634 5.2247,104.0424 4.8667,104.6824 C4.8517,104.7044 4.8327,104.7244 4.8177,104.7474 C4.4977,105.2214 4.2807,105.7374 4.1367,106.2714 C2.4117,110.9864 3.8607,117.3004 8.7487,119.6894 C9.8907,120.2464 10.0047,120.0684 10.4607,120.7794 C11.5087,122.4114 12.7787,123.5854 14.1587,124.4094 C13.1807,125.5384 12.6877,127.1194 13.0817,128.8984 C13.0927,128.9464 13.1067,128.9934 13.1167,129.0424 C13.0817,129.3444 13.0447,129.6464 13.0317,129.9484 C12.8637,133.7834 14.5127,137.3594 16.4177,140.5874 C18.4947,144.1054 20.5877,147.7394 23.0117,151.0304 C25.1947,153.9944 28.1277,156.6564 31.9197,157.1494 C34.9437,157.5414 38.1967,156.0984 39.5587,153.3864 C40.2087,153.9434 40.9267,154.4274 41.6877,154.8254 C42.6947,156.2464 44.2087,157.4514 45.4237,158.3964 C47.6717,160.1434 50.2607,161.5174 53.0577,162.1264 C58.1567,163.2374 63.8287,161.5894 66.8687,157.2014 C67.6607,158.0624 68.4897,158.8874 69.3637,159.6554 C75.6907,165.2084 83.7277,168.2594 91.5657,170.9984 C96.1837,172.6134 100.7977,174.2634 105.4237,175.8774 C105.5037,178.6254 105.5827,181.3724 105.6617,184.1204 C105.6957,185.2804 105.5317,186.6334 106.4987,187.4734 C106.8857,187.8084 107.3587,188.0194 107.7177,188.3874 C108.1147,188.7944 108.3997,189.2904 108.7297,189.7504 C110.1127,191.6804 112.1287,192.2754 114.4297,191.9204 C116.4157,191.6144 118.9957,190.7354 119.8477,188.7374 C120.4007,187.4394 120.2707,185.8524 120.1447,184.4824 C120.0207,183.1394 119.7647,181.8194 119.3927,180.5264 C126.1777,182.5554 133.7517,183.9374 140.4227,181.0014 C147.7287,177.7854 150.8517,170.2004 155.1187,163.9634 C155.2697,163.9414 155.4197,163.8874 155.5587,163.7554 C162.2947,157.3244 169.4277,150.1774 171.7897,140.9694 C172.0837,140.8664 172.3377,140.6264 172.3857,140.2444 C173.3347,132.5814 173.1947,124.8484 172.0227,117.2184 C171.9687,116.8704 171.7527,116.7004 171.4997,116.6504" id="face" fill="#231F20"></path>
            <g id="eyes" transform="translate(82.682176, 77.564441)" fill="#231F20">
                <path d="M8.41832361,41.130559 C7.56732361,38.604559 7.16732361,35.905559 7.16332361,33.325559 C7.15332361,28.052559 8.81632361,22.792559 11.9313236,18.529559 C12.2783236,18.539559 12.6183236,18.577559 12.9473236,18.645559 C12.9723236,18.600559 12.9993236,18.559559 13.0193236,18.506559 C14.2723236,15.037559 19.3503236,14.635559 22.3673236,15.445559 C25.2503236,16.220559 27.4203236,18.117559 28.7943236,20.618559 C28.6413236,20.813559 28.5703236,21.058559 28.6273236,21.321559 C28.1493236,21.113559 27.6503236,20.963559 27.1423236,20.889559 C23.6933236,20.395559 20.7313236,23.123559 19.1473236,25.906559 C17.3283236,29.102559 16.4623236,33.241559 17.7273236,36.792559 C18.3563236,36.576559 18.9883236,36.369559 19.6263236,36.176559 C18.8113236,33.851559 19.1013236,31.232559 19.9393236,28.934559 C20.7983236,26.575559 22.4343236,23.998559 24.9073236,23.109559 C26.2013236,22.645559 27.5213236,22.794559 28.6443236,23.604559 C29.6983236,24.365559 30.3603236,25.559559 29.9523236,26.849559 C29.6613236,27.770559 30.6713236,28.296559 31.3583236,27.987559 C31.7593236,29.848559 31.8893236,31.769559 31.7723236,33.686559 C32.4383236,33.604559 33.1013236,33.527559 33.7643236,33.459559 C33.9263236,30.064559 33.4113236,26.655559 32.0563236,23.545559 C31.3143236,20.719559 30.0113236,17.975559 27.7513236,16.061559 C25.4553236,14.116559 22.4583236,13.036559 19.4463236,13.080559 C16.7293236,13.119559 13.7543236,14.081559 12.0643236,16.227559 C11.7303236,16.033559 11.3143236,16.043559 10.9953236,16.449559 C5.47132361,23.477559 3.50732361,33.783559 6.68932361,42.261559 C7.25632361,41.868559 7.83232361,41.491559 8.41832361,41.130559" id="Fill-8"></path>
                <path d="M58.7298236,29.758459 C58.7648236,30.141459 58.8098236,30.526459 58.8488236,30.910459 C59.3818236,30.819459 59.9268236,30.733459 60.4778236,30.654459 C60.1948236,27.912459 60.1198236,25.071459 60.4468236,22.303459 C60.5558236,22.154459 60.6398236,21.979459 60.6448236,21.747459 C60.6518236,21.422459 60.6618236,21.095459 60.6728236,20.766459 C60.7118236,20.548459 60.7448236,20.328459 60.7888236,20.112459 C60.7598236,20.106459 60.7368236,20.094459 60.7088236,20.087459 C60.8258236,18.112459 61.1508236,16.122459 62.2458236,14.447459 C63.4798236,12.559459 65.5328236,11.502459 67.7708236,12.121459 C69.9558236,12.727459 71.9878236,14.278459 73.5168236,15.916459 C74.6198236,17.098459 75.4978236,18.500459 75.9668236,20.039459 C72.9478236,18.850459 69.1338236,21.557459 67.8968236,24.360459 C67.0888236,26.187459 66.8428236,28.258459 67.2078236,30.154459 C67.8808236,30.155459 68.5548236,30.176459 69.2258236,30.216459 C68.4548236,27.345459 69.6218236,23.900459 72.2278236,22.412459 C73.4688236,21.703459 75.0818236,21.397459 76.1508236,22.547459 C76.4328236,22.850459 76.7668236,22.893459 77.0658236,22.803459 C78.2058236,25.790459 78.6658236,29.206459 78.3218236,32.498459 C78.9478236,32.824459 79.5468236,33.196459 80.1208236,33.606459 C80.2548236,32.810459 80.3478236,32.026459 80.3928236,31.272459 C80.6288236,27.349459 79.7808236,23.434459 77.9898236,19.942459 C77.4668236,17.904459 76.3918236,16.068459 74.9308236,14.501459 C73.0718236,12.509459 70.4468236,10.566459 67.7238236,10.059459 C64.9528236,9.54345899 62.4458236,10.798459 60.8118236,13.019459 C58.9698236,15.522459 58.7098236,18.743459 58.6448236,21.747459 C58.6398236,21.951459 58.6998236,22.112459 58.7808236,22.250459 C58.4938236,24.740459 58.5058236,27.282459 58.7298236,29.758459" id="Fill-12"></path>
                <path d="M15.7415236,2.45575899 C11.4745236,9.07475899 6.27952361,15.039759 0.327523606,20.194759 C-0.647476394,21.039759 0.772523606,22.448759 1.74252361,21.609759 C7.81852361,16.344759 13.1125236,10.222759 17.4685236,3.46575899 C18.1675236,2.38075899 16.4365236,1.37675899 15.7415236,2.45575899" id="Fill-16"></path>
                <path d="M71.1478236,4.59635899 C66.0868236,4.35235899 61.1788236,2.81135899 56.8688236,0.154358995 C55.7698236,-0.522641005 54.7638236,1.20635899 55.8588236,1.88135899 C60.4698236,4.72335899 65.7398236,6.33435899 71.1478236,6.59635899 C72.4338236,6.65935899 72.4308236,4.65835899 71.1478236,4.59635899" id="Fill-18"></path>
                <path d="M33.9564236,30.765259 C33.9614236,30.627259 33.9334236,30.498259 33.8704236,30.379259 C33.8294236,30.256259 33.7614236,30.149259 33.6634236,30.058259 C33.5724236,29.960259 33.4654236,29.891259 33.3414236,29.851259 C33.2604236,29.809259 33.1694236,29.804259 33.0794236,29.793259 C33.0564236,29.693259 33.0384236,29.592259 33.0114236,29.493259 C33.0494236,28.735259 32.9724236,27.978259 32.7104236,27.253259 C32.4294236,26.475259 31.9744236,25.750259 31.3744236,25.184259 C31.3704236,25.168259 31.3684236,25.151259 31.3634236,25.135259 C31.3174236,24.946259 31.2614236,24.758259 31.2024236,24.571259 C31.1884236,24.533259 31.1764236,24.494259 31.1624236,24.454259 C31.1074236,24.289259 31.0604236,24.121259 30.9954236,23.959259 C30.9704236,23.893259 30.9274236,23.840259 30.8924236,23.782259 C30.8874236,23.770259 30.8834236,23.757259 30.8784236,23.744259 C30.4404236,22.795259 29.6464236,21.459259 28.4484236,21.4421606 C28.0384236,21.437259 27.6894236,21.623259 27.4364236,21.899259 C27.2064236,21.826259 26.9434236,21.830259 26.6714236,21.983259 C26.6424236,21.998259 26.6144236,22.018259 26.5864236,22.036259 C26.3554236,21.895259 26.1034236,21.866259 25.8544236,21.928259 C25.8364236,21.932259 25.8174236,21.934259 25.7994236,21.940259 C25.6434236,21.987259 25.4934236,22.055259 25.3584236,22.161259 C25.2804236,22.221259 25.2104236,22.292259 25.1334236,22.356259 C24.7764236,22.067259 24.2644236,21.991259 23.8594236,22.423259 C22.2044236,24.194259 20.7934236,26.303259 20.0794236,28.618259 C19.9724236,28.610259 19.8644236,28.606259 19.7614236,28.639259 C19.5244236,28.715259 19.2764236,28.867259 19.1634236,29.098259 C18.8434236,29.758259 18.6024236,30.452259 18.4994236,31.180259 C18.4584236,31.313259 18.4524236,31.446259 18.4814236,31.578259 C18.4824236,31.605259 18.5014236,31.626259 18.5054236,31.653259 C18.4794236,31.711259 18.4504236,31.768259 18.4344236,31.828259 C18.4244236,31.864259 18.4174236,31.899259 18.4114236,31.934259 C18.3944236,32.053259 18.3704236,32.174259 18.3694236,32.295259 C18.3684236,32.415259 18.3944236,32.551259 18.4114236,32.661259 C18.4174236,32.699259 18.4244236,32.735259 18.4354236,32.772259 C18.4484236,32.827259 18.4874236,32.868259 18.5114236,32.917259 C14.1534236,34.289259 10.0054236,36.307259 6.26142361,38.951259 C5.60142361,39.416259 5.76442361,40.276259 6.23942361,40.653259 C6.51042361,41.012259 6.97742361,41.190259 7.46142361,40.858259 C11.3424236,38.192259 15.6374236,36.244259 20.1904236,35.072259 C20.1964236,35.090259 20.2024236,35.110259 20.2094236,35.129259 C23.6614236,34.070259 27.2274236,33.333259 30.8004236,32.813259 C31.4144236,32.795259 32.0294236,32.787259 32.6464236,32.796259 C32.9974236,32.801259 33.2454236,32.656259 33.4034236,32.448259 C33.5324236,32.397259 33.6504236,32.328259 33.7514236,32.229259 C33.8034236,32.162259 33.8544236,32.094259 33.9074236,32.027259 C33.9974236,31.871259 34.0434236,31.702259 34.0444236,31.522259 C34.0154236,31.270259 33.9854236,31.018259 33.9564236,30.765259" id="Fill-22"></path>
                <path d="M78.5013236,27.876659 C78.5473236,27.713659 78.5603236,27.537659 78.5103236,27.357659 C78.4733236,27.226659 78.4283236,27.097659 78.3883236,26.966659 C78.1673236,25.344659 77.7533236,23.748659 77.1133236,22.225659 C76.9053236,21.728659 76.4523236,21.371659 75.8843236,21.527659 C75.8453236,21.537659 75.8063236,21.557659 75.7673236,21.573659 C75.9173236,21.272659 75.9193236,20.886659 75.7613236,20.607659 C75.4693236,20.094659 74.8843236,20.032659 74.3933236,20.248659 C72.7013236,20.993659 71.2883236,22.399659 70.4973236,24.082659 C69.4643236,25.108659 68.8103236,26.485659 68.6323236,27.928659 C65.7633236,27.923659 62.8963236,28.074659 60.0413236,28.391659 C60.0503236,28.285659 60.0533236,28.179659 60.0643236,28.073659 C60.1213236,27.552659 59.5643236,27.051659 59.0643236,27.073659 C58.4743236,27.100659 58.1253236,27.514659 58.0643236,28.073659 C58.0223236,28.456659 58.0033236,28.840659 57.9843236,29.224659 C57.9573236,29.313659 57.9273236,29.398659 57.9262733,29.502659 C57.9253236,29.578659 57.9393236,29.657659 57.9603236,29.735659 C57.9493236,30.181659 57.9473236,30.627659 57.9623236,31.072659 C57.9673236,31.070659 57.9703236,31.068659 57.9763236,31.068659 C58.6183236,30.947659 59.2793236,30.834659 59.9523236,30.731659 C59.9503236,30.621659 59.9563236,30.510659 59.9563236,30.398659 C62.8643236,30.074659 65.7853236,29.920659 68.7083236,29.928659 C68.7223236,29.994659 68.7273236,30.063659 68.7433236,30.131659 C68.7493236,30.156659 68.7663236,30.170659 68.7733236,30.193659 C72.1753236,30.354659 75.5033236,31.020659 78.3413236,32.508659 C78.5713236,30.971659 78.6363236,29.416659 78.5013236,27.876659" id="Fill-24"></path>
            </g>
            <path d="M140.4335,129.4567 C138.3915,126.7387 136.2985,124.0607 134.2455,121.3527 C132.2585,118.7347 129.8605,115.1847 131.7285,111.8627 C132.2475,110.9377 130.8265,110.1067 130.3055,111.0317 C128.6485,113.9787 129.5905,117.3587 131.3035,120.0497 C133.3865,123.3217 135.9865,126.3247 138.3395,129.4057 C139.6825,131.1647 144.3495,137.4037 139.7535,138.1677 C137.8085,138.4907 135.7795,137.6717 133.9965,136.9907 C132.1375,136.2817 130.3375,135.4367 128.5865,134.4947 C127.6545,133.9917 126.8215,135.4127 127.7555,135.9167 C130.5345,137.4127 133.5605,138.8647 136.6485,139.5837 C139.0675,140.1467 142.5475,140.0117 143.2045,137.0247 C143.8115,134.2637 142.0045,131.5487 140.4335,129.4567" id="nose" fill="#231F20"></path>
            <path d="M144.3319,155.7223 C141.6119,152.6453 137.2489,151.2213 133.2419,152.1603 C129.4009,153.0613 126.2829,156.0963 125.0769,159.8163 C124.6799,161.0423 126.6099,161.5693 127.0059,160.3473 C128.0039,157.2703 130.6179,154.8323 133.7729,154.0883 C137.1129,153.3023 140.6749,154.5983 142.9169,157.1363 C143.7709,158.1023 145.1819,156.6843 144.3319,155.7223" id="mouth" fill="#231F20"></path>
        </g>
    </g>
</svg>