<?xml version="1.0" encoding="UTF-8"?>
<svg width="500px" height="600px" viewBox="0 0 500 600" version="1.1" xmlns="http://www.w3.org/2000/svg" xmlns:xlink="http://www.w3.org/1999/xlink">
    <title>cunninglookingdown</title>
    <g id="cunninglookingdown" stroke="none" stroke-width="1" fill="none" fill-rule="evenodd">
        <g transform="translate(153.000000, 64.000000)" fill="#231F20">
            <path d="M171.0489,137.3023 C170.9039,137.4313 170.7919,137.6043 170.7619,137.8353 C169.5319,147.4613 162.4279,154.8723 155.6849,161.3553 C155.3619,161.2673 154.9869,161.3353 154.7379,161.6683 C150.6489,167.1283 148.0459,174.2733 142.1719,178.1733 C135.6439,182.5073 127.3669,181.1313 120.2969,179.0763 C116.3599,177.9323 112.5029,176.5083 108.6289,175.1673 C104.2839,173.6633 99.9389,172.1593 95.5939,170.6563 C87.9339,168.0043 80.0709,165.4313 73.3779,160.7243 C67.2369,156.4053 62.1389,149.7893 61.3949,142.1783 C61.3829,142.0893 61.3779,142.0003 61.3619,141.9113 C61.3179,141.3773 61.2919,140.8393 61.2909,140.2963 C61.2899,139.4823 60.3219,139.2983 59.8729,139.7373 C59.3969,139.8593 58.9969,140.3773 59.3069,140.9403 C59.5349,141.3553 59.6709,141.7943 59.7479,142.2393 C59.7659,142.4203 59.7819,142.6003 59.8039,142.7803 C59.8699,144.1883 59.2889,145.6243 58.2979,146.6603 C57.4499,147.5483 56.3579,148.0583 55.1929,148.2853 C54.8839,148.0783 54.5219,147.9583 54.1369,147.9863 C50.5769,148.2373 47.9099,145.0113 45.7249,142.6433 C42.8619,139.5383 40.1359,136.3033 37.5839,132.9373 C37.3709,132.6573 37.1119,132.4283 36.8269,132.2573 C36.7139,132.0653 36.5929,131.8763 36.4839,131.6823 C36.4769,131.6703 36.4709,131.6573 36.4649,131.6453 C36.4579,131.6303 36.4459,131.6183 36.4389,131.6043 C35.0859,129.2053 33.9889,126.6843 33.5099,123.9543 C33.2799,122.6503 33.2599,121.2783 33.5139,119.9643 C33.6399,119.8473 33.7599,119.7163 33.8639,119.5533 C34.9289,117.9103 36.6939,116.8243 38.5939,116.4523 C39.3829,116.6013 40.1799,116.5593 40.9349,116.3633 C41.3289,116.4103 41.7209,116.4903 42.1029,116.6063 C43.9489,117.1643 45.7139,118.5503 47.1939,119.7603 C48.7969,121.0713 50.1479,122.5323 51.0009,124.4373 C51.3429,125.1993 52.2759,125.5063 53.0789,125.3763 C53.3599,125.4403 53.6349,125.4473 53.8979,125.4063 C54.0609,125.4053 54.2129,125.3643 54.3449,125.2813 C54.8959,125.0613 55.3389,124.6093 55.5369,123.9793 C55.8909,122.8553 56.0099,121.7423 55.9539,120.6493 C56.0119,120.4573 56.0699,120.2653 56.1269,120.0733 C56.2279,119.7403 56.0619,119.3583 55.7709,119.1683 C55.5669,118.0873 55.2139,117.0293 54.7679,115.9983 C53.4949,108.9753 50.8129,102.2463 46.8589,96.2873 L48.4809,96.9063 C49.7579,97.3923 51.0679,98.0363 52.4239,98.2563 C53.5469,98.4383 54.5969,98.1783 55.4129,97.5543 C56.1259,97.8803 56.9749,97.9113 57.6539,97.4473 C59.3019,96.3203 60.7299,94.9913 61.9419,93.4473 C62.3569,92.9963 62.7219,92.5003 63.0079,91.9483 C63.1159,91.7393 63.1879,91.5353 63.2389,91.3333 C64.3079,89.6293 65.1599,87.7883 65.7719,85.8703 C68.4619,83.4793 69.2839,79.5773 69.2139,75.9163 C71.9849,79.2363 76.0609,81.3903 80.3879,81.8653 C85.9869,82.4823 91.3789,79.8413 94.7519,75.4133 C95.7049,74.1623 96.4519,72.7873 97.0069,71.3393 C97.2969,70.8233 97.5739,70.3003 97.8359,69.7723 C100.0569,73.4483 103.5769,76.4083 107.8259,77.3073 C112.8889,78.3773 118.0039,75.9933 120.5139,71.4603 C121.0579,70.4773 121.4299,69.4193 121.6359,68.3363 C121.9749,70.2253 122.5729,71.8643 124.0669,73.3573 C124.7099,74.0003 125.5289,74.5723 126.4209,75.0223 C127.9139,76.3923 129.7779,77.2943 132.1529,77.3663 C135.0279,77.4533 137.4759,75.6983 138.8609,73.2643 C139.9159,71.4103 140.3029,69.3523 140.4229,67.2593 C142.4999,70.3303 146.1229,72.3843 149.8859,72.1333 C153.7969,71.8723 157.1799,69.3463 158.8379,65.9253 C159.6529,66.3673 160.5359,66.6723 161.4599,66.8173 C161.5419,66.8563 161.6199,66.9033 161.7029,66.9393 C157.4139,72.3233 157.7179,80.2843 159.0819,86.6873 C160.6859,94.2113 164.1269,101.1693 166.9409,108.2823 C168.5619,112.3833 169.9909,116.5673 170.7919,120.9123 C170.8089,121.0023 170.8469,121.0673 170.8819,121.1353 C171.4689,126.5043 171.5229,131.9213 171.0489,137.3023 M117.8829,188.7513 C117.1189,189.5183 115.9019,189.8983 114.8749,190.1553 C113.7789,190.4283 112.5169,190.5573 111.4579,190.0733 C110.3379,189.5593 109.8639,188.3613 109.1059,187.4703 C108.7649,187.0703 108.3699,186.7793 107.9389,186.4873 C107.2829,186.0443 107.3519,185.6013 107.3299,184.8523 C107.2489,182.0523 107.1679,179.2513 107.0869,176.4513 C110.5699,177.6583 114.0599,178.8443 117.5679,179.9613 C117.5609,180.0583 117.5659,180.1603 117.6019,180.2743 C118.0749,181.7333 118.4029,183.2333 118.5219,184.7643 C118.6189,186.0213 118.8599,187.7703 117.8829,188.7513 M106.4559,3.6083 C105.7529,4.1373 104.9319,4.5783 104.0519,4.9043 C104.8069,4.4003 105.6129,3.9643 106.4559,3.6083 M136.7939,73.3573 C136.8199,73.3293 136.8439,73.2973 136.8689,73.2693 C135.8129,74.6563 134.3259,75.6143 132.5429,75.6983 C134.1459,75.3243 135.6629,74.5883 136.7939,73.3573 M143.5779,68.3323 C142.5949,67.5003 141.7739,66.4743 141.1929,65.3213 C141.9159,66.3833 142.7139,67.3923 143.5779,68.3323 M171.4999,116.6503 C167.9879,103.7263 159.5949,91.9353 159.8559,78.2173 C159.9289,74.3573 160.8559,70.3463 163.4789,67.4203 C163.9129,67.4743 164.3509,67.4883 164.7849,67.4473 C168.1549,67.1273 170.7349,64.4063 171.9509,61.4083 C173.4149,57.8023 173.4809,53.4933 173.3079,49.6563 C173.1839,46.8943 172.7309,44.0713 171.6809,41.4963 C171.2989,40.1353 170.5819,38.9183 169.6529,37.8963 C168.0099,35.7183 165.7899,33.9653 163.2029,33.1273 C163.1909,33.0943 163.1759,33.0633 163.1629,33.0303 C163.6029,30.8793 163.8999,28.5483 162.8149,26.5503 C162.4219,25.8263 161.8799,25.2273 161.2419,24.7863 C160.7509,22.7873 159.9429,21.0043 158.5409,19.5383 C158.1399,18.6723 157.5719,17.8853 156.8189,17.2423 C155.5439,16.1563 153.8759,15.6243 152.2409,15.7153 C151.7429,14.6103 151.0349,13.5633 150.0819,12.6103 C146.8419,9.3693 140.6899,8.1003 136.7519,10.8903 C136.4589,11.0973 136.1639,11.3123 135.8679,11.5263 C135.1269,8.7773 133.1879,6.5103 130.7029,5.1013 C130.5089,4.9473 130.3209,4.7843 130.1139,4.6443 C128.0409,3.2333 125.3349,2.6643 122.9079,3.2583 C122.3379,2.7003 121.7069,2.2083 121.0289,1.7863 C120.5289,1.1923 119.8559,0.7183 119.0989,0.4653 C118.2869,0.1933 117.4349,0.1283 116.5789,0.1423 C114.6379,-0.1597 112.6149,0.0113 110.7379,0.7343 C110.5509,0.7643 110.3619,0.7833 110.1759,0.8193 C106.6949,1.4603 103.1609,2.9633 100.7709,5.5333 C99.3169,5.5513 97.9229,5.2003 96.8579,4.3663 C93.6819,1.8793 90.3699,0.8803 87.0859,1.5073 C83.6389,1.8223 81.1689,4.1643 78.7229,6.4693 C77.8329,7.1943 76.9449,7.9183 76.0549,8.6433 C73.5079,7.2133 70.9729,5.7253 68.3439,4.4643 C65.8209,3.2543 62.9879,2.4123 60.2259,3.3123 C54.9219,5.0393 52.9679,10.5703 51.7079,15.5123 C47.7109,13.1143 42.7209,12.4673 38.2419,13.7993 C36.7449,14.2443 35.3529,14.9343 34.0699,15.7853 C31.8059,16.8083 29.7669,18.3633 28.1489,20.5413 C25.7329,23.7953 24.7339,27.7093 25.1949,31.4553 C24.4949,31.7363 23.6749,31.8903 23.1379,32.1003 C22.0379,32.5313 20.9809,33.0583 19.9869,33.6983 C17.4969,35.2993 15.3889,37.5183 13.9199,40.0943 C12.6109,41.6713 11.5769,43.5043 10.9539,45.6723 C9.4899,50.7713 10.7249,55.6583 13.5089,59.7203 C10.0699,60.5813 6.8509,62.3093 4.4479,64.9423 C2.6179,66.9483 1.4079,69.3963 0.9059,71.9893 C-0.5771,75.9383 -0.0611,80.5903 3.2619,83.6423 C3.4389,83.8033 3.6229,83.9483 3.8049,84.0973 C0.4359,85.9423 -0.4941,90.8763 0.2309,94.4193 C0.9469,97.9243 3.1169,101.0293 6.0929,102.9423 C5.6359,103.4633 5.2249,104.0423 4.8669,104.6823 C4.8509,104.7053 4.8329,104.7253 4.8179,104.7473 C4.4979,105.2223 4.2809,105.7373 4.1369,106.2713 C2.4119,110.9863 3.8609,117.3013 8.7489,119.6893 C9.8909,120.2463 10.0049,120.0683 10.4609,120.7803 C11.5089,122.4113 12.7789,123.5853 14.1589,124.4093 C13.1809,125.5383 12.6879,127.1193 13.0819,128.8983 C13.0929,128.9463 13.1069,128.9933 13.1169,129.0423 C13.0819,129.3443 13.0449,129.6463 13.0309,129.9483 C12.8639,133.7833 14.5129,137.3603 16.4179,140.5873 C18.4939,144.1053 20.5869,147.7403 23.0119,151.0303 C25.1949,153.9943 28.1279,156.6563 31.9199,157.1493 C34.9429,157.5423 38.1969,156.0983 39.5589,153.3863 C40.2089,153.9443 40.9269,154.4273 41.6879,154.8253 C42.6949,156.2463 44.2089,157.4513 45.4239,158.3963 C47.6719,160.1433 50.2609,161.5173 53.0579,162.1263 C58.1559,163.2373 63.8289,161.5893 66.8689,157.2013 C67.6609,158.0623 68.4899,158.8883 69.3639,159.6553 C75.6909,165.2083 83.7279,168.2593 91.5659,170.9983 C96.1839,172.6133 100.7979,174.2633 105.4239,175.8773 C105.5029,178.6253 105.5829,181.3733 105.6619,184.1203 C105.6949,185.2813 105.5319,186.6343 106.4989,187.4733 C106.8859,187.8093 107.3589,188.0193 107.7179,188.3873 C108.1149,188.7943 108.3999,189.2903 108.7299,189.7513 C110.1129,191.6813 112.1289,192.2763 114.4299,191.9203 C116.4159,191.6143 118.9959,190.7353 119.8479,188.7373 C120.4009,187.4393 120.2709,185.8523 120.1449,184.4823 C120.0209,183.1393 119.7649,181.8193 119.3929,180.5263 C126.1779,182.5553 133.7519,183.9373 140.4229,181.0013 C147.7289,177.7853 150.8519,170.2003 155.1189,163.9633 C155.2699,163.9413 155.4199,163.8873 155.5589,163.7553 C162.2949,157.3243 169.4279,150.1773 171.7899,140.9693 C172.0839,140.8663 172.3379,140.6263 172.3849,140.2443 C173.3339,132.5813 173.1949,124.8493 172.0229,117.2183 C171.9689,116.8703 171.7529,116.7003 171.4999,116.6503" id="face"></path>
            <g id="eyes" transform="translate(85.768350, 77.639951)">
                <path d="M27.2630495,47.094949 C26.5810495,50.065949 25.4460495,53.147949 22.9490495,54.860949 C19.6650495,57.110949 14.9110495,57.063949 11.3920495,55.418949 C10.0380495,54.787949 8.85204951,53.914949 7.83604951,52.881949 C8.40804951,53.026949 9.11704951,52.727949 9.13204951,51.961949 C9.22804951,47.039949 12.7000495,43.055949 16.1340495,39.889949 C19.6240495,36.671949 23.6460495,33.954949 28.2830495,32.772949 C28.3110495,33.166949 28.3390495,33.560949 28.3680495,33.949949 C28.6710495,38.080949 28.6090495,42.239949 27.0260495,46.126949 C26.8520495,46.552949 26.9940495,46.887949 27.2630495,47.094949 M4.71404951,47.714949 C4.82404951,47.500949 4.86104951,47.245949 4.74604951,46.975949 C3.30704951,43.576949 1.80404951,40.020949 1.63604951,36.282949 C1.51704951,33.637949 2.21004951,31.158949 3.28404951,28.813949 C11.2800495,31.395949 19.8520495,31.708949 28.0230495,29.784949 C28.0540495,30.104949 28.0910495,30.423949 28.1190495,30.742949 C22.8850495,31.972949 18.3570495,35.075949 14.4740495,38.703949 C10.7270495,42.203949 7.23704951,46.604949 7.13204951,51.961949 C7.13104951,52.037949 7.15804951,52.095949 7.16904951,52.162949 C6.07604951,50.864949 5.24104951,49.351949 4.71404951,47.714949 M9.20804951,19.164949 C9.20704951,19.131949 9.21204951,19.098949 9.21204951,19.065949 C9.51804951,18.992949 9.79804951,18.801949 9.93304951,18.430949 C11.1860495,14.961949 16.2640495,14.559949 19.2810495,15.369949 C22.8980495,16.341949 25.4150495,19.064949 26.6130495,22.555949 C27.1890495,24.240949 27.5360495,26.006949 27.7840495,27.793949 C19.9910495,29.678949 11.8530495,29.390949 4.20404951,26.995949 C4.31204951,26.799949 4.41504951,26.601949 4.52704951,26.407949 C5.93304951,23.946949 7.45404951,21.429949 9.20804951,19.164949 M30.4630495,35.492949 C30.2890495,31.920949 29.9900495,28.248949 29.2680495,24.741949 C28.5970495,21.482949 27.2630495,18.186949 24.6650495,15.985949 C22.3680495,14.040949 19.3720495,12.960949 16.3600495,13.004949 C12.9920495,13.053949 9.22604951,14.516949 8.00404951,17.898949 C7.97204951,17.987949 7.97704951,18.063949 7.96804951,18.144949 C7.21604951,19.112949 6.51504951,20.114949 5.87004951,21.113949 C2.59404951,26.190949 -0.677950489,31.457949 0.122049511,37.755949 C0.494049511,40.690949 1.52004951,43.465949 2.64604951,46.186949 C2.64804951,46.201949 2.64204951,46.214949 2.64404951,46.231949 C4.04504951,54.760949 13.1320495,60.419949 21.3880495,57.451949 C25.5870495,55.942949 27.5560495,52.310949 28.6530495,48.206949 C28.8310495,47.536949 28.9860495,46.860949 29.1270495,46.181949 C30.4060495,42.772949 30.6400495,39.108949 30.4630495,35.492949" id="Fill-6"></path>
                <path d="M75.3977495,39.702349 C74.9777495,42.368349 74.0367495,45.436349 72.0737495,47.395349 C70.9137495,48.554349 68.9857495,48.206349 67.4987495,47.982349 C65.9547495,47.750349 64.4407495,47.281349 63.1557495,46.374349 C61.7017495,45.347349 60.6577495,43.924349 59.8837495,42.304349 C60.0507495,42.126349 60.1577495,41.899349 60.1267495,41.655349 C59.6697495,37.985349 61.7077495,34.741349 64.2337495,32.261349 C66.7337495,29.804349 70.4677495,27.068349 74.1657495,28.198349 C74.5597495,28.319349 74.8697495,28.191349 75.0857495,27.968349 C75.2167495,28.942349 75.3307495,29.919349 75.4287495,30.891349 C75.7217495,33.807349 75.8547495,36.796349 75.3977495,39.702349 M57.4547495,31.258349 C57.2797495,29.753349 57.1687495,28.213349 57.1477495,26.667349 C57.3257495,26.717349 57.5157495,26.740349 57.7107495,26.714349 C63.1747495,25.973349 68.4817495,24.485349 73.5537495,22.344349 C73.6147495,22.398349 73.6807495,22.446349 73.7517495,22.485349 C73.9487495,23.098349 74.0987495,23.725349 74.1747495,24.358349 C74.2557495,24.276349 74.3397495,24.198349 74.4167495,24.109349 C74.5817495,24.849349 74.7157495,25.598349 74.8397495,26.347349 C74.7907495,26.323349 74.7547495,26.288349 74.6977495,26.270349 C70.3497495,24.940349 66.0047495,27.783349 62.9947495,30.676349 C60.9627495,32.628349 59.1687495,35.092349 58.4227495,37.825349 C57.9307495,35.567349 57.6887495,33.257349 57.4547495,31.258349 M57.5587495,21.672349 C57.5657495,21.348349 57.5757495,21.019349 57.5867495,20.690349 C57.6267495,20.473349 57.6577495,20.253349 57.7027495,20.037349 C57.6737495,20.030349 57.6497495,20.018349 57.6227495,20.012349 C57.7397495,18.036349 58.0637495,16.047349 59.1597495,14.372349 C60.3937495,12.483349 62.4467495,11.427349 64.6847495,12.047349 C66.8697495,12.651349 68.9017495,14.202349 70.4297495,15.841349 C71.5797495,17.071349 72.4967495,18.538349 72.9487495,20.153349 C72.9147495,20.220349 72.8847495,20.290349 72.8487495,20.354349 C72.8687495,20.390349 72.8837495,20.428349 72.9017495,20.463349 C67.8837495,22.607349 62.5857495,24.053349 57.1787495,24.785349 C57.1767495,24.785349 57.1747495,24.786349 57.1727495,24.787349 C57.2047495,23.931349 57.2607495,23.075349 57.3607495,22.227349 C57.4697495,22.079349 57.5537495,21.904349 57.5587495,21.672349 M77.2607495,33.204349 C77.0637495,29.796349 76.6387495,26.317349 75.8437495,22.995349 C75.7517495,22.608349 75.6457495,22.223349 75.5377495,21.838349 C75.5337495,21.692349 75.4997495,21.561349 75.4257495,21.454349 C75.3857495,21.319349 75.3327495,21.188349 75.2867495,21.056349 C75.2807495,20.852349 75.2117495,20.653349 75.0847495,20.476349 C75.0537495,20.395349 75.0287495,20.313349 74.9997495,20.232349 C74.5167495,18.048349 73.3937495,16.086349 71.8437495,14.426349 C69.9857495,12.433349 67.3607495,10.490349 64.6367495,9.98334903 C61.8667495,9.46834903 59.3587495,10.723349 57.7257495,12.943349 C55.8837495,15.446349 55.6237495,18.668349 55.5587495,21.672349 C55.5537495,21.876349 55.6127495,22.036349 55.6947495,22.176349 C55.4067495,24.665349 55.4197495,27.207349 55.6437495,29.682349 C55.9527495,33.093349 56.4017495,36.595349 57.3387495,39.896349 C58.1137495,42.627349 59.3647495,45.387349 61.5927495,47.238349 C64.0117495,49.249349 67.7267495,50.150349 70.8387495,49.784349 C73.8677495,49.429349 75.5407495,45.479349 76.3357495,42.942349 C77.3177495,39.813349 77.4507495,36.456349 77.2607495,33.204349" id="Fill-10"></path>
                <path d="M29.6926495,32.358649 C29.6126495,31.346649 28.4116495,31.028649 27.8296495,31.854649 C27.6176495,32.154649 27.4806495,32.479649 27.3756495,32.812649 C27.2046495,32.680649 27.0036495,32.585649 26.7976495,32.606649 C26.5886495,32.628649 26.3886495,32.649649 26.1946495,32.728649 C25.8996495,32.846649 25.7136495,32.957649 25.4666495,33.160649 C25.2836495,33.311649 25.1416495,33.514649 25.0246495,33.731649 C24.8306495,33.636649 24.6066495,33.602649 24.3666495,33.684649 C20.4976495,34.992649 17.1266495,37.591649 14.8586495,40.967649 C14.3706495,41.355649 13.8816495,41.743649 13.3936495,42.129649 C13.1786495,42.300649 13.0936495,42.571649 13.1056495,42.842649 C12.8886495,42.848649 12.6716495,42.929649 12.4906495,43.145649 C11.1066495,44.794649 10.0616495,46.651649 9.39064951,48.698649 C9.34264951,48.841649 9.34764951,48.981649 9.37264951,49.115649 C8.76464951,50.212649 8.24164951,51.356649 7.82164951,52.545649 C7.60764951,53.149649 7.99764951,53.584649 8.48864951,53.717649 C8.52764951,53.777649 8.56864951,53.835649 8.62364951,53.878649 C9.16364951,54.303649 9.72464951,54.620649 10.3496495,54.875649 C10.3576495,54.880649 10.3636495,54.887649 10.3706495,54.893649 C10.3726495,54.890649 10.3736495,54.887649 10.3746495,54.885649 C10.4556495,54.919649 10.5256495,54.963649 10.6096495,54.994649 C10.7496495,55.044649 10.8916495,55.037649 11.0316495,55.008649 C11.3086495,55.350649 11.6296495,55.653649 12.0506495,55.809649 C12.1786495,55.856649 12.3076495,55.867649 12.4376495,55.876649 C12.6216495,55.975649 12.8006495,56.083649 12.9966495,56.157649 C13.4206495,56.321649 13.8566495,56.379649 14.2966495,56.378649 C14.4266495,56.608649 14.6296495,56.799649 14.8846495,56.851649 C16.1676495,57.110649 17.4626495,56.928649 18.5946495,56.391649 C18.8176495,56.530649 19.0886495,56.586649 19.3576495,56.497649 C20.1406495,56.239649 20.8656495,55.869649 21.5546495,55.448649 C21.8616495,55.656649 22.2526495,55.665649 22.6096495,55.494649 C24.4336495,54.623649 25.8266495,52.758649 26.1126495,50.754649 C26.1366495,50.582649 26.1436495,50.424649 26.1146495,50.270649 C26.5646495,49.378649 26.9026495,48.431649 27.0716495,47.440649 C27.6426495,46.195649 28.0866495,44.896649 28.3746495,43.557649 C28.4356495,43.571649 28.4976495,43.596649 28.5576495,43.596649 C29.1466495,43.596649 29.5016495,43.136649 29.5576495,42.596649 C29.9196495,39.194649 29.9636495,35.769649 29.6926495,32.358649" id="Fill-12"></path>
                <path d="M76.6516495,28.567649 C76.6516495,28.386649 76.6056495,28.218649 76.5146495,28.062649 C76.4636495,27.995649 76.4116495,27.927649 76.3586495,27.860649 C76.2336495,27.736649 76.0876495,27.650649 75.9176495,27.602649 C75.8526495,27.581649 75.7886495,27.559649 75.7246495,27.537649 C75.6786495,27.505649 75.6416495,27.462649 75.5946495,27.432649 C75.2116495,27.190649 74.7836495,27.088649 74.3386495,27.042649 C74.1396495,27.020649 73.9326495,27.032649 73.7286495,27.063649 C73.5186495,26.876649 73.2336495,26.773649 72.8746495,26.876649 C71.9506495,27.138649 71.0536495,27.482649 70.1866495,27.887649 C70.0136495,27.880649 69.8376495,27.908649 69.6636495,28.028649 C69.4936495,28.145649 69.3326495,28.272649 69.1696495,28.398649 C68.6556495,28.678649 68.1586495,28.986649 67.6736495,29.314649 C67.5186495,29.312649 67.3586495,29.334649 67.1976495,29.414649 C66.3756495,29.823649 65.7156495,30.487649 65.2546495,31.270649 C64.9656495,31.550649 64.6846495,31.839649 64.4156495,32.139649 C64.3586495,32.203649 64.3356495,32.271649 64.2976495,32.337649 C63.9856495,32.432649 63.6866495,32.564649 63.4246495,32.743649 C62.5986495,33.309649 62.0486495,34.154649 61.9486495,35.151649 C61.4736495,35.157649 60.9926495,35.463649 60.9286495,36.094649 C60.8706495,36.671649 60.7366495,37.233649 60.5766495,37.788649 C60.5446495,37.878649 60.5046495,37.963649 60.4746495,38.054649 C60.2786495,38.473649 60.1496495,38.913649 60.0656495,39.359649 C59.9136495,39.480649 59.7866495,39.631649 59.7416495,39.838649 C59.4426495,41.219649 59.8016495,42.657649 60.7326495,43.713649 C60.5636495,44.061649 60.5746495,44.473649 60.9406495,44.768649 C61.0526495,44.859649 61.1686495,44.950649 61.2826495,45.040649 C61.2256495,45.465649 61.3796495,45.844649 61.7476495,46.087649 C63.0356495,46.932649 64.5066495,47.435649 66.0206495,47.603649 C66.3386495,47.663649 66.6616495,47.704649 66.9946495,47.709649 C67.0606495,47.710649 67.1266495,47.703649 67.1916495,47.699649 C67.2476495,47.751649 67.3086495,47.796649 67.3776495,47.831649 C67.4356495,47.862649 67.4986495,47.879649 67.5586495,47.907649 C67.5596495,47.913649 67.5596495,47.920649 67.5606495,47.925649 C67.7136495,48.465649 68.2586495,48.739649 68.7916495,48.624649 C69.1146495,48.553649 69.4336495,48.448649 69.7456495,48.323649 C70.1036495,48.302649 70.4586495,48.245649 70.8006495,48.141649 C71.0656495,48.267649 71.3876495,48.300649 71.7206495,48.159649 C72.3926495,47.870649 72.9096495,47.199649 73.0166495,46.475649 C73.0236495,46.435649 73.0196495,46.397649 73.0226495,46.357649 C74.2676495,45.071649 74.9856495,43.361649 75.0966495,41.566649 C75.1076495,41.381649 75.0646495,41.229649 74.9946495,41.097649 C75.7946495,39.155649 76.0266495,37.035649 75.6786495,34.945649 C76.0846495,33.506649 76.1276495,32.027649 75.8216495,30.558649 C75.7996495,30.456649 75.7566495,30.379649 75.7156495,30.300649 C75.7116495,30.155649 75.7016495,30.009649 75.6926495,29.864649 C75.8456495,29.852649 75.9986495,29.818649 76.1176495,29.741649 C76.3316495,29.603649 76.5186495,29.398649 76.5776495,29.143649 C76.5976495,29.052649 76.5906495,28.968649 76.5896495,28.883649 C76.5946495,28.865649 76.6116495,28.852649 76.6166495,28.833649 L76.6516495,28.567649 Z" id="Fill-14"></path>
                <path d="M24.8958495,8.43484903 C18.7278495,3.29484903 8.95084951,3.69084903 3.30384951,9.45584903 C2.40284951,10.375849 3.81584951,11.790849 4.71784951,10.869849 C9.55384951,5.93284903 18.1408495,5.39884903 23.4818495,9.84884903 C24.4638495,10.666849 25.8858495,9.25984903 24.8958495,8.43484903" id="Fill-16"></path>
                <path d="M63.1848495,0.00414903498 C57.4788495,0.604149035 52.4508495,4.91314903 51.1698495,10.547149 C50.8858495,11.801149 52.8138495,12.335149 53.0988495,11.079149 C54.1678495,6.37314903 58.3448495,2.51214903 63.1848495,2.00414903 C63.7218495,1.94714903 64.1848495,1.58414903 64.1848495,1.00414903 C64.1848495,0.507149035 63.7248495,-0.053850965 63.1848495,0.00414903498" id="Fill-18"></path>
            </g>
            <path d="M140.4327,129.4566 C138.3917,126.7386 136.2987,124.0606 134.2447,121.3526 C132.2587,118.7346 129.8607,115.1846 131.7277,111.8626 C132.2477,110.9376 130.8267,110.1066 130.3057,111.0316 C128.6477,113.9796 129.5907,117.3596 131.3037,120.0506 C133.3867,123.3226 135.9867,126.3246 138.3397,129.4056 C139.6827,131.1646 144.3487,137.4036 139.7537,138.1676 C137.8077,138.4916 135.7797,137.6716 133.9957,136.9906 C132.1377,136.2816 130.3377,135.4376 128.5867,134.4946 C127.6547,133.9916 126.8217,135.4126 127.7557,135.9166 C130.5347,137.4126 133.5597,138.8646 136.6487,139.5836 C139.0677,140.1466 142.5477,140.0126 143.2037,137.0246 C143.8117,134.2636 142.0047,131.5486 140.4327,129.4566" id="nose"></path>
            <path d="M134.9659,154.1304 C129.8419,155.9744 123.9409,154.6574 120.0839,150.8364 C120.1309,150.7524 120.1699,150.6624 120.2209,150.5804 C120.2849,150.4764 120.3539,150.3744 120.4239,150.2754 C120.4439,150.2474 120.4639,150.2204 120.4839,150.1924 C120.4939,150.1804 120.5149,150.1534 120.5409,150.1214 C120.6979,149.9344 120.8669,149.7574 121.0469,149.5914 C121.1309,149.5154 121.2179,149.4434 121.3049,149.3704 C121.3119,149.3654 121.3069,149.3684 121.3179,149.3604 C121.3849,149.3144 121.4509,149.2674 121.5199,149.2224 C121.9539,148.9324 122.1829,148.3264 121.8779,147.8544 C121.5989,147.4204 120.9759,147.1854 120.5099,147.4954 C119.4749,148.1854 118.6179,149.1504 118.1139,150.2934 C117.5699,151.5264 117.3889,152.7964 117.5739,154.1324 C117.6469,154.6514 118.3369,154.9824 118.8049,154.8304 C119.3749,154.6464 119.5799,154.1574 119.5029,153.6004 C119.5219,153.7374 119.5149,153.6934 119.5049,153.5824 C119.4999,153.5284 119.4959,153.4744 119.4929,153.4194 C119.4859,153.2974 119.4829,153.1754 119.4839,153.0534 C119.4839,153.0384 119.4859,153.0244 119.4859,153.0094 C123.8049,156.7344 130.0949,158.0034 135.4969,156.0594 C136.6989,155.6264 136.1809,153.6934 134.9659,154.1304" id="mouth"></path>
        </g>
    </g>
</svg>