<svg width="500" height="600" xmlns="http://www.w3.org/2000/svg"><g fill="#231F20" fill-rule="evenodd"><path d="M324.049 201.301a.843.843 0 00-.286.534c-1.23 9.625-8.335 17.037-15.078 23.52-.323-.088-.697-.02-.947.313-4.088 5.46-6.692 12.605-12.566 16.504-6.528 4.335-14.805 2.96-21.875.903-3.937-1.144-7.794-2.567-11.667-3.908l-13.036-4.512c-7.66-2.65-15.523-5.224-22.215-9.93-6.143-4.32-11.24-10.937-11.984-18.547-.012-.089-.017-.179-.033-.267a20.1 20.1 0 01-.071-1.615c-.001-.815-.97-.998-1.418-.559-.476.122-.876.64-.566 1.203a4.1 4.1 0 01.44 1.3c.019.18.035.36.057.54.066 1.408-.515 2.844-1.505 3.88-.85.888-1.94 1.398-3.105 1.625a1.678 1.678 0 00-1.057-.299c-3.56.251-6.226-2.975-8.411-5.343a131.598 131.598 0 01-8.142-9.706 2.681 2.681 0 00-.757-.68c-.113-.192-.233-.38-.343-.575-.006-.012-.012-.025-.02-.037-.006-.015-.018-.027-.025-.04-1.352-2.4-2.45-4.92-2.93-7.65-.23-1.305-.25-2.678.005-3.99a2.16 2.16 0 00.35-.412c1.065-1.643 2.83-2.729 4.73-3.1a5.332 5.332 0 002.34-.09 6.67 6.67 0 011.169.243c1.846.558 3.61 1.944 5.09 3.154 1.604 1.311 2.955 2.772 3.809 4.677.342.762 1.274 1.07 2.077.94.28.063.556.07.819.03a.83.83 0 00.447-.127 2.026 2.026 0 001.192-1.3 9.369 9.369 0 00.417-3.33l.174-.577c.1-.334-.066-.716-.356-.905-.205-1.08-.558-2.139-1.003-3.17a52.679 52.679 0 00-7.91-19.71l1.623.617c1.276.487 2.586 1.131 3.942 1.351 1.123.182 2.174-.079 2.989-.702.713.326 1.563.357 2.242-.107a19.116 19.116 0 004.287-4 6.916 6.916 0 001.067-1.499c.107-.209.179-.413.23-.615a24.047 24.047 0 002.533-5.463c2.69-2.39 3.512-6.293 3.442-9.954 2.77 3.32 6.847 5.473 11.174 5.95 5.598.616 10.99-2.025 14.364-6.453a16.343 16.343 0 002.255-4.074c.29-.517.567-1.039.829-1.567 2.22 3.675 5.742 6.636 9.99 7.535 5.063 1.07 10.178-1.314 12.688-5.847.544-.983.916-2.04 1.122-3.124.34 1.89.938 3.527 2.43 5.021.644.643 1.463 1.215 2.355 1.665 1.493 1.37 3.357 2.272 5.732 2.344 2.875.087 5.324-1.669 6.708-4.102 1.056-1.854 1.443-3.912 1.562-6.005 2.078 3.07 5.7 5.125 9.463 4.874 3.91-.262 7.294-2.787 8.952-6.208a8.118 8.118 0 002.622.891c.082.04.16.087.243.123-4.29 5.383-3.984 13.344-2.621 19.748 1.604 7.524 5.046 14.482 7.859 21.595 1.622 4.101 3.05 8.285 3.85 12.63.018.09.056.155.092.223a82.23 82.23 0 01.166 16.166m-53.166 51.45c-.763.767-1.981 1.147-3.008 1.403-1.096.274-2.358.403-3.417-.082-1.12-.513-1.594-1.71-2.352-2.602-.341-.4-.736-.69-1.167-.983-.656-.443-.587-.886-.61-1.635l-.241-8.4a439.488 439.488 0 0010.48 3.51.79.79 0 00.035.311c.472 1.46.8 2.96.919 4.491.098 1.257.338 3.005-.64 3.987M259.457 67.608a9.543 9.543 0 01-2.404 1.296c.755-.504 1.56-.94 2.404-1.296m30.338 69.75c.026-.029.05-.06.075-.089-1.055 1.387-2.542 2.344-4.325 2.428 1.603-.374 3.12-1.109 4.25-2.34m6.785-5.025a9.628 9.628 0 01-2.385-3.01 26.326 26.326 0 002.385 3.01m27.92 48.318c-3.51-12.924-11.904-24.715-11.643-38.434.073-3.859 1-7.87 3.623-10.796.434.054.873.068 1.306.027 3.37-.32 5.95-3.04 7.166-6.039 1.464-3.606 1.53-7.915 1.357-11.753-.124-2.76-.576-5.584-1.627-8.159-.382-1.36-1.1-2.578-2.028-3.6-1.643-2.178-3.863-3.93-6.45-4.769-.011-.033-.027-.064-.04-.097.44-2.15.737-4.482-.348-6.48a5.085 5.085 0 00-1.573-1.764c-.491-1.999-1.3-3.783-2.701-5.248a6.687 6.687 0 00-1.721-2.296 6.544 6.544 0 00-4.58-1.527 10.423 10.423 0 00-2.158-3.105c-3.24-3.24-9.391-4.51-13.33-1.72-.292.207-.587.422-.884.636-.741-2.75-2.68-5.017-5.165-6.425-.194-.154-.381-.317-.59-.457-2.072-1.41-4.778-1.98-7.205-1.387a10.924 10.924 0 00-1.88-1.47 4.352 4.352 0 00-1.93-1.322c-.81-.272-1.663-.337-2.52-.323-1.94-.302-3.963-.132-5.84.591-.186.031-.376.05-.562.085-3.481.642-7.015 2.145-9.405 4.715-1.454.018-2.848-.333-3.912-1.167-3.177-2.488-6.49-3.486-9.773-2.859-3.446.315-5.917 2.657-8.363 4.961l-2.667 2.175c-2.548-1.43-5.083-2.918-7.711-4.179-2.523-1.21-5.357-2.052-8.12-1.152-5.303 1.727-7.256 7.258-8.517 12.2-3.996-2.398-8.986-3.045-13.466-1.713-1.497.445-2.89 1.135-4.172 1.985a14.982 14.982 0 00-5.921 4.757c-2.416 3.254-3.414 7.168-2.954 10.914-.7.281-1.52.435-2.057.645-1.1.43-2.157.958-3.151 1.597a18.624 18.624 0 00-6.066 6.397 15.183 15.183 0 00-2.966 5.578c-1.465 5.1-.23 9.986 2.554 14.048-3.44.861-6.657 2.588-9.06 5.222a14.567 14.567 0 00-3.543 7.047c-1.483 3.95-.967 8.601 2.357 11.653.176.161.36.305.542.455-3.37 1.845-4.3 6.78-3.574 10.322.717 3.505 2.886 6.61 5.862 8.523a10.13 10.13 0 00-1.226 1.74c-.015.022-.034.042-.05.065a5.05 5.05 0 00-.68 1.524c-1.725 4.715-.276 11.03 4.612 13.418 1.142.557 1.256.38 1.712 1.09 1.048 1.632 2.318 2.806 3.699 3.63-.98 1.13-1.472 2.71-1.078 4.49.01.047.025.094.036.143-.036.302-.073.604-.086.906-.168 3.835 1.48 7.411 3.386 10.64 2.077 3.517 4.17 7.151 6.594 10.442 2.183 2.964 5.116 5.626 8.909 6.12 3.023.391 6.276-1.052 7.638-3.764.65.557 1.368 1.041 2.129 1.44 1.007 1.42 2.52 2.625 3.736 3.57 2.248 1.747 4.838 3.121 7.635 3.73 5.098 1.111 10.77-.537 13.81-4.925a32.998 32.998 0 002.495 2.454c6.327 5.553 14.364 8.604 22.202 11.343 4.618 1.615 9.232 3.265 13.858 4.88l.238 8.242c.034 1.16-.13 2.513.837 3.353.387.335.86.546 1.219.914.397.407.682.903 1.012 1.363 1.383 1.93 3.399 2.525 5.7 2.17 1.986-.306 4.566-1.185 5.418-3.183.553-1.298.424-2.885.297-4.255a21.495 21.495 0 00-.751-3.956c6.784 2.03 14.358 3.411 21.029.475 7.306-3.216 10.429-10.8 14.696-17.038a.772.772 0 00.44-.208c6.736-6.43 13.869-13.578 16.23-22.786a.867.867 0 00.597-.725c.949-7.663.809-15.396-.363-23.026-.054-.348-.27-.518-.523-.568"/><path d="M245.394 185.731c-1.764-3.295-2.543-7.189-2.549-10.84-.01-5.274 1.653-10.534 4.768-14.797.347.01.687.048 1.016.116.025-.045.052-.086.072-.139 1.254-3.469 6.331-3.87 9.348-3.06 2.883.774 5.053 2.671 6.427 5.172a.831.831 0 00-.167.703 5.843 5.843 0 00-1.485-.432c-3.449-.494-6.41 2.234-7.994 5.017-1.854 3.256-2.73 7.494-1.36 11.088a9.993 9.993 0 002.936 4.117c.905-.216 1.812-.419 2.72-.615-1.384-.629-2.547-1.789-3.285-3.106-1.45-2.592-1.208-5.749-.22-8.456.86-2.359 2.495-4.936 4.968-5.825 1.294-.464 2.614-.315 3.737.495 1.054.761 1.716 1.955 1.308 3.245-.29.921.72 1.447 1.406 1.138.546 2.541.602 5.193.193 7.797-.027.171-.068.347-.099.52-.386 0-.747.208-.838.712a4.588 4.588 0 01-1.203 2.338c1.172-.19 2.35-.352 3.53-.502.021-.08.047-.163.068-.243 1.257-4.988 1.096-10.366-.953-15.064-.742-2.826-2.045-5.57-4.305-7.484a12.673 12.673 0 00-8.305-2.98c-2.717.038-5.692 1-7.382 3.146-.334-.194-.75-.184-1.069.222-6.084 7.738-7.87 19.463-3.197 28.332.638-.206 1.275-.416 1.914-.615m67.354-21.363c1.255 3.29 1.697 7.102 1.136 10.69-.325-.444-1-.69-1.546-.226-2.375 2.015-6.104.338-7.187-2.258-1.25-2.995-.09-6.971 2.759-8.597 1.24-.71 2.854-1.015 3.923.135a.854.854 0 00.915.256m-18.464 9.035c.194.684.398 1.377.608 2.07.027.196.047.389.077.583.015-.048.039-.093.056-.14.167.546.359 1.09.542 1.636.677-.125 1.358-.246 2.04-.364a71.734 71.734 0 01-1.382-4.277l-.001-.013c-.345-2.947-.45-6.034-.095-9.03a.941.941 0 00.198-.556c.007-.325.017-.652.028-.981.039-.218.072-.438.116-.653-.03-.007-.052-.02-.08-.026.117-1.975.442-3.965 1.537-5.64 1.234-1.888 3.287-2.945 5.525-2.326 2.185.606 4.217 2.157 5.746 3.795 1.103 1.182 1.98 2.584 2.45 4.123-3.02-1.19-6.833 1.518-8.07 4.32-1.572 3.56-1.036 8.049 2.055 10.356 2.398-.072 4.77.092 7.06.659.329-.175.65-.372.948-.612-.063.275-.15.543-.224.814.606.174 1.206.38 1.799.618a23.17 23.17 0 00.858-4.922 21.966 21.966 0 00-2.403-11.33c-.523-2.037-1.598-3.874-3.06-5.441-1.858-1.992-4.483-3.935-7.206-4.442-2.771-.516-5.278.739-6.912 2.96-1.842 2.503-2.101 5.724-2.167 8.728a.919.919 0 00.136.503c-.287 2.49-.275 5.032-.051 7.508.035.383.08.77.119 1.155a.887.887 0 00-.247.925m-18.01-18.191a92.953 92.953 0 00-24.495-10.24c-1.247-.322-1.779 1.607-.53 1.929a90.989 90.989 0 0124.015 10.038c1.108.663 2.114-1.066 1.01-1.727m30.216-13.754a84.728 84.728 0 00-21.203 13.77c-.966.854.453 2.264 1.414 1.414a82.995 82.995 0 0120.798-13.456c1.171-.531.155-2.255-1.009-1.728"/><path d="M267.072 178.936c.954-2.107 1.198-4.506.578-6.765.038-.768-.039-1.534-.3-2.267a5.438 5.438 0 00-1.332-2.095.767.767 0 01-.01-.05 8.98 8.98 0 00-.202-.689c-.054-.167-.1-.337-.166-.502-.026-.066-.068-.12-.103-.179-.006-.013-.009-.025-.015-.037-.435-.963-1.227-2.315-2.423-2.332-.408-.006-.756.183-1.008.462a.927.927 0 00-.763.085c-.029.016-.057.035-.085.054a.919.919 0 00-.73-.11c-.019.004-.037.007-.055.013a1.281 1.281 0 00-.44.223c-.078.062-.148.133-.225.197-.355-.29-.866-.369-1.27.07-2.367 2.57-4.266 5.837-4.273 9.425-.005 2.255.798 4.523 2.281 6.201a128.64 128.64 0 00-13.607 5.582c-1.162.556-.148 2.28 1.008 1.728a124.3 124.3 0 0114.383-5.807c.035.022.066.05.101.07 2.51-.559 5.038-1.046 7.59-1.435.285-.392.531-.807.758-1.23a.886.886 0 00.308-.612m45.684-3.046c-.007.006-.015.012-.021.02-.014.003-.028 0-.041.002a4.792 4.792 0 01-.536.175c-.076.02-.152.037-.228.054l-.008.001a3.324 3.324 0 01-.28-.066 4.193 4.193 0 01-.146-.048c-.025-.013-.05-.027-.076-.039.2-.243.376-.508.502-.813l.098.217c.142.313.439.46.756.478a.404.404 0 00-.02.018m2.91 2.074a568.67 568.67 0 00-.3-1.81c-.027-.166-.151-.34-.291-.469.018-.068.043-.136.056-.206.096-.513-.141-1.103-.698-1.23a1.12 1.12 0 00-.432-.002c.253-1.59.322-3.207.183-4.805a.96.96 0 00.009-.519c-.038-.132-.083-.26-.123-.39a18.725 18.725 0 00-1.274-4.743c-.208-.497-.661-.853-1.23-.697-.04.01-.078.03-.117.046.15-.302.153-.687-.005-.966-.292-.513-.877-.575-1.37-.359-1.69.745-3.103 2.151-3.894 3.834-1.557 1.546-2.278 3.887-1.754 6.05.07.29.238.46.435.57.035.134.084.263.127.394-.225.25-.345.593-.244.927.132.434.325.84.55 1.225-3.12-.387-6.322-.096-9.323.906-.375-1.959-.445-4.04-.225-6.08.058-.522-.5-1.023-1-1-.59.025-.938.44-1 1a22.35 22.35 0 00.3 6.645.79.79 0 00.136.28c-.54.718-.021 2 .972 1.586 5.649-2.348 12.157-1.929 17.418 1.212a.898.898 0 00.827.075c.078.014.156.032.233.033.322.005.632-.097.897-.268.19.027.376.017.559-.059a.97.97 0 00.478-.409l.1-.24a.997.997 0 000-.53m-22.233 15.493c-2.042-2.718-4.135-5.396-6.188-8.104-1.987-2.618-4.385-6.168-2.517-9.49.52-.925-.901-1.756-1.423-.831-1.656 2.947-.715 6.327.999 9.018 2.083 3.272 4.683 6.275 7.035 9.356 1.343 1.759 6.01 7.998 1.414 8.762-1.945.323-3.974-.496-5.757-1.177a46.123 46.123 0 01-5.41-2.496c-.932-.503-1.765.918-.83 1.422 2.778 1.496 5.804 2.948 8.892 3.667 2.42.563 5.9.428 6.556-2.56.608-2.76-1.2-5.475-2.77-7.567m-14.524 26.42c-3.592 1.118-7.514 2.845-11.359 2.325-2.233-.302-2.482-2.53-1.569-4.256.857-1.621 2.525-2.687 4.246-3.19 4.321-1.26 8.976.902 12.8 2.746.736.354 1.456.74 2.18 1.117-2.124.094-4.238.617-6.298 1.258m18.639 3.566c-4.633-2.792-9.241-5.667-14.143-7.968-4.218-1.981-9.181-4.064-13.883-2.596-3.425 1.068-6.947 4.43-5.874 8.35 1.2 4.384 7.326 3.079 10.532 2.214 4.743-1.28 9.714-3.9 14.709-2.421a.894.894 0 00.632-.041c2.359 1.364 4.686 2.785 7.017 4.189 1.105.666 2.111-1.063 1.01-1.727"/></g></svg>