<svg width="500" height="600" xmlns="http://www.w3.org/2000/svg"><g fill="#231F20" fill-rule="evenodd"><path d="M324.049 201.302a.837.837 0 00-.286.533c-1.231 9.626-8.335 17.037-15.078 23.52-.323-.088-.697-.02-.947.313-4.09 5.46-6.692 12.605-12.566 16.505-6.528 4.334-14.805 2.958-21.875.903-3.937-1.144-7.794-2.568-11.667-3.909-4.346-1.504-8.691-3.008-13.037-4.51-7.66-2.653-15.522-5.226-22.214-9.933-6.143-4.319-11.24-10.935-11.985-18.546-.012-.089-.016-.178-.032-.267a20.1 20.1 0 01-.071-1.615c-.001-.814-.968-.998-1.418-.559-.476.122-.876.64-.566 1.203.228.415.365.854.44 1.3.018.18.035.36.057.54.066 1.408-.515 2.844-1.505 3.88-.85.888-1.941 1.398-3.106 1.625a1.675 1.675 0 00-1.056-.299c-3.56.251-6.226-2.975-8.412-5.343a131.585 131.585 0 01-8.141-9.706 2.681 2.681 0 00-.757-.68c-.113-.192-.234-.38-.343-.575l-.02-.037c-.006-.015-.018-.027-.026-.04-1.351-2.4-2.45-4.92-2.928-7.65-.23-1.305-.25-2.677.004-3.99.126-.118.245-.249.35-.412 1.065-1.643 2.83-2.729 4.73-3.1a5.351 5.351 0 002.34-.09c.396.047.787.127 1.169.243 1.846.558 3.61 1.944 5.09 3.154 1.604 1.311 2.955 2.772 3.809 4.677.34.762 1.273 1.07 2.077.94.28.063.556.07.819.03a.833.833 0 00.446-.126c.552-.22.996-.672 1.194-1.302a9.41 9.41 0 00.416-3.33l.174-.576c.1-.333-.066-.715-.357-.905-.204-1.08-.557-2.139-1.003-3.17a52.67 52.67 0 00-7.91-19.71l1.623.618c1.277.486 2.587 1.13 3.943 1.35 1.123.182 2.173-.078 2.99-.702.712.326 1.56.357 2.24-.107a19.16 19.16 0 004.288-4c.415-.45.78-.947 1.066-1.499.109-.209.18-.413.23-.615a24.09 24.09 0 002.534-5.463c2.69-2.39 3.512-6.293 3.442-9.954 2.77 3.32 6.847 5.474 11.174 5.95 5.598.616 10.992-2.025 14.365-6.453a16.372 16.372 0 002.254-4.074c.29-.516.567-1.039.83-1.567 2.22 3.676 5.74 6.636 9.99 7.535 5.062 1.07 10.177-1.314 12.687-5.847.544-.983.916-2.04 1.122-3.124.34 1.89.938 3.528 2.43 5.021.644.643 1.463 1.215 2.355 1.665 1.493 1.37 3.357 2.272 5.732 2.344 2.875.087 5.324-1.668 6.708-4.102 1.056-1.854 1.442-3.912 1.562-6.005 2.077 3.071 5.7 5.125 9.463 4.874 3.91-.26 7.294-2.787 8.952-6.208a8.143 8.143 0 002.622.892c.082.04.16.086.243.122-4.29 5.384-3.985 13.345-2.621 19.748 1.604 7.524 5.045 14.482 7.859 21.595 1.62 4.101 3.05 8.285 3.85 12.63.018.09.056.155.092.223a82.317 82.317 0 01.166 16.167m-53.166 51.45c-.763.766-1.981 1.146-3.008 1.403-1.096.273-2.358.402-3.417-.082-1.12-.514-1.593-1.712-2.352-2.603-.341-.4-.736-.69-1.168-.983-.655-.443-.586-.886-.608-1.635l-.242-8.4a435.036 435.036 0 0010.48 3.51.813.813 0 00.034.312c.473 1.46.8 2.96.92 4.49.098 1.257.338 3.006-.64 3.987M259.457 67.608a9.501 9.501 0 01-2.405 1.296c.756-.504 1.562-.94 2.405-1.296m30.338 69.75c.026-.029.05-.06.075-.089-1.056 1.387-2.542 2.345-4.325 2.43 1.603-.375 3.119-1.11 4.25-2.342m6.784-5.025a9.657 9.657 0 01-2.385-3.01 26.437 26.437 0 002.385 3.01M324.5 180.65c-3.511-12.924-11.905-24.715-11.644-38.433.073-3.86 1-7.87 3.623-10.797.434.054.873.068 1.306.027 3.37-.32 5.95-3.04 7.166-6.039 1.464-3.606 1.53-7.915 1.357-11.752-.124-2.762-.576-5.585-1.627-8.16-.382-1.36-1.1-2.578-2.028-3.6-1.643-2.178-3.863-3.93-6.45-4.769-.011-.033-.027-.064-.04-.097.44-2.15.737-4.482-.348-6.48a5.085 5.085 0 00-1.573-1.764c-.491-1.999-1.3-3.782-2.701-5.248a6.697 6.697 0 00-1.721-2.296 6.544 6.544 0 00-4.58-1.527 10.435 10.435 0 00-2.158-3.105c-3.24-3.24-9.392-4.51-13.33-1.72-.293.207-.587.422-.884.636-.741-2.749-2.68-5.016-5.165-6.425-.194-.154-.382-.317-.59-.457-2.072-1.41-4.778-1.98-7.205-1.386a10.93 10.93 0 00-1.88-1.472 4.36 4.36 0 00-1.93-1.32c-.81-.273-1.663-.338-2.52-.324-1.94-.302-3.963-.13-5.84.592-.187.03-.376.05-.563.085-3.48.641-7.014 2.144-9.404 4.714-1.454.018-2.848-.333-3.913-1.167-3.177-2.487-6.488-3.486-9.772-2.859-3.447.315-5.917 2.657-8.363 4.962l-2.668 2.174c-2.547-1.43-5.082-2.918-7.711-4.179-2.522-1.21-5.356-2.052-8.118-1.152-5.304 1.727-7.258 7.258-8.518 12.2-3.996-2.398-8.987-3.045-13.466-1.713-1.496.445-2.89 1.135-4.172 1.986a14.97 14.97 0 00-5.921 4.756c-2.416 3.254-3.415 7.168-2.954 10.914-.7.281-1.52.435-2.058.645a17.79 17.79 0 00-3.15 1.598 18.612 18.612 0 00-6.066 6.396 15.191 15.191 0 00-2.966 5.578c-1.465 5.1-.23 9.986 2.554 14.048-3.44.861-6.658 2.59-9.06 5.222a14.561 14.561 0 00-3.542 7.047c-1.483 3.95-.97 8.601 2.355 11.653.177.161.36.306.543.455-3.37 1.845-4.3 6.78-3.574 10.322.717 3.505 2.886 6.61 5.862 8.523a10.13 10.13 0 00-1.226 1.74c-.016.023-.034.043-.05.065-.32.475-.535.99-.68 1.524-1.725 4.715-.276 11.03 4.612 13.418 1.142.557 1.256.38 1.712 1.091 1.047 1.631 2.318 2.805 3.699 3.63-.98 1.128-1.472 2.71-1.078 4.488.01.048.025.095.036.144-.036.302-.073.604-.086.906-.168 3.835 1.48 7.412 3.387 10.64 2.076 3.517 4.169 7.152 6.593 10.442 2.183 2.964 5.116 5.626 8.909 6.12 3.022.392 6.276-1.052 7.638-3.764.65.558 1.367 1.041 2.128 1.44 1.009 1.42 2.522 2.625 3.737 3.57 2.248 1.747 4.837 3.121 7.634 3.73 5.099 1.111 10.772-.537 13.81-4.925a33.182 33.182 0 002.496 2.454c6.326 5.553 14.364 8.604 22.202 11.343 4.618 1.615 9.232 3.265 13.858 4.88l.238 8.242c.034 1.161-.13 2.514.837 3.353.387.336.859.546 1.219.914.397.407.682.903 1.012 1.364 1.383 1.93 3.399 2.525 5.7 2.17 1.986-.307 4.566-1.186 5.418-3.184.553-1.298.423-2.885.297-4.255a21.414 21.414 0 00-.752-3.956c6.785 2.03 14.359 3.411 21.03.475 7.306-3.216 10.429-10.8 14.696-17.038a.772.772 0 00.44-.208c6.736-6.43 13.869-13.578 16.23-22.786a.867.867 0 00.597-.725c.948-7.663.809-15.395-.363-23.026-.054-.348-.27-.518-.523-.568"/><path d="M266.031 188.735c-.682 2.97-1.817 6.053-4.315 7.766-3.283 2.25-8.036 2.203-11.556.558a12.26 12.26 0 01-3.556-2.537c.571.145 1.281-.154 1.297-.92.095-4.922 3.567-8.906 7.002-12.072 3.49-3.218 7.511-5.935 12.147-7.117.03.394.058.788.086 1.177.303 4.13.241 8.29-1.342 12.177-.174.426-.032.76.237.968m-22.549.62a.844.844 0 00.032-.74c-1.439-3.398-2.94-6.954-3.11-10.692-.16-3.567 1.151-6.83 2.891-9.875 1.405-2.461 2.928-4.978 4.681-7.243 0-.033.005-.066.004-.1a.973.973 0 00.721-.634c1.253-3.47 6.331-3.871 9.348-3.061 3.617.972 6.135 3.695 7.331 7.186.894 2.609 1.265 5.408 1.508 8.187-5.235 1.23-9.763 4.333-13.646 7.96-3.747 3.5-7.237 7.902-7.34 13.259-.003.076.024.134.035.2a13.19 13.19 0 01-2.455-4.447m25.75-12.222c-.175-3.572-.475-7.244-1.196-10.751-.67-3.26-2.005-6.555-4.603-8.756a12.673 12.673 0 00-8.305-2.981c-3.368.049-7.134 1.512-8.356 4.894-.032.089-.027.165-.035.246a41.882 41.882 0 00-2.099 2.969c-3.276 5.077-6.548 10.344-5.748 16.642.372 2.935 1.398 5.71 2.524 8.43.001.016-.005.029-.002.046 1.401 8.529 10.488 14.188 18.744 11.22 4.2-1.51 6.167-5.141 7.265-9.245.18-.67.333-1.346.474-2.025 1.28-3.41 1.512-7.073 1.336-10.69m-18.427-28.655c-5.253 1.32-10.039 4.292-13.533 8.433-.68.805.48 1.975 1.164 1.165a24.63 24.63 0 0112.807-8.01c1.027-.258.592-1.847-.438-1.588m59.05.664c-4.072-3.507-9.533-4.21-14.704-4.562-1.058-.072-1.054 1.576 0 1.647 4.688.318 9.835.89 13.54 4.08.8.69 1.97-.472 1.164-1.165m4.312 32.201c-.42 2.666-1.361 5.734-3.324 7.693-1.16 1.16-3.088.811-4.575.587-1.544-.232-3.058-.7-4.343-1.608-1.454-1.027-2.499-2.45-3.272-4.07.167-.178.274-.405.243-.649-.457-3.67 1.581-6.914 4.107-9.394 2.5-2.457 6.234-5.193 9.933-4.063a.862.862 0 00.919-.23c.131.974.245 1.951.343 2.923.294 2.916.426 5.905-.031 8.811m-18.037-17.475a.938.938 0 00.198-.555c.007-.324.016-.653.028-.982.04-.217.072-.437.116-.653-.029-.007-.052-.019-.08-.025.117-1.976.442-3.965 1.536-5.64 1.235-1.889 3.288-2.945 5.526-2.325 2.185.604 4.217 2.155 5.745 3.794 1.15 1.23 2.067 2.697 2.519 4.312-.034.067-.064.137-.1.201.1.186.187.38.278.571a8 8 0 01.103.761.98.98 0 00.522.8c.197.612.347 1.24.423 1.872.081-.082.165-.16.242-.249.164.74.299 1.49.423 2.238-.049-.024-.085-.059-.142-.077-4.348-1.33-8.693 1.513-11.703 4.406-2.032 1.952-3.826 4.416-4.572 7.15-.491-2.259-.734-4.569-.967-6.568-.345-2.948-.45-6.035-.095-9.03m19.901 10.976c-.197-3.408-.623-6.887-1.418-10.209a28.176 28.176 0 00-.306-1.157.689.689 0 00-.112-.384c-.124-.413-.281-.815-.426-1.222-.483-2.184-1.606-4.146-3.156-5.806-1.858-1.993-4.483-3.936-7.207-4.443-2.77-.515-5.277.74-6.911 2.96-1.842 2.503-2.102 5.725-2.167 8.73a.927.927 0 00.136.503c-.288 2.49-.275 5.031-.051 7.506.31 3.411.758 6.913 1.695 10.214.775 2.731 2.027 5.491 4.254 7.342 2.419 2.011 6.134 2.912 9.246 2.546 3.029-.355 4.703-4.305 5.497-6.842.982-3.129 1.115-6.486.926-9.738"/><path d="M268.46 173.999c-.08-1.012-1.28-1.33-1.862-.504a3.4 3.4 0 00-.454.958c-.171-.132-.372-.227-.578-.206-.21.022-.41.043-.603.122-.294.118-.48.229-.727.432a1.881 1.881 0 00-.443.57.84.84 0 00-.658-.046 18.77 18.77 0 00-9.508 7.283 743.8 743.8 0 01-1.465 1.162c-.215.17-.3.442-.288.713a.802.802 0 00-.615.303 16.699 16.699 0 00-3.1 5.553.825.825 0 00-.018.417 22.72 22.72 0 00-1.552 3.43c-.212.604.177 1.039.668 1.172.039.06.08.118.135.16.54.426 1.102.743 1.727.998l.02.018c0-.003.002-.006.003-.008.082.034.152.078.236.109.14.05.283.043.422.014.277.342.597.645 1.02.8.127.048.257.059.386.068.184.099.363.207.559.28.424.165.86.223 1.3.222.13.23.333.42.589.473a5.91 5.91 0 003.709-.46.895.895 0 00.763.106c.783-.258 1.508-.628 2.197-1.05.307.209.697.218 1.055.047 1.825-.871 3.216-2.736 3.503-4.74.024-.172.03-.33.002-.484.45-.892.788-1.84.956-2.83a18.751 18.751 0 001.304-3.883c.062.014.123.039.184.039.588 0 .943-.46 1-1 .36-3.402.405-6.827.134-10.238m46.959-3.791a.985.985 0 00-.137-.505 13.717 13.717 0 00-.156-.202.996.996 0 00-.441-.258l-.193-.065c-.046-.032-.083-.075-.13-.105-.383-.242-.811-.344-1.256-.39a2.362 2.362 0 00-.61.02.864.864 0 00-.854-.186c-.923.262-1.821.606-2.688 1.01a.82.82 0 00-.523.142c-.17.117-.331.244-.494.37-.514.28-1.011.588-1.495.916a1.013 1.013 0 00-.477.1c-.822.409-1.482 1.073-1.943 1.856-.29.28-.57.569-.84.869-.056.064-.08.132-.117.198a3.195 3.195 0 00-.873.406c-.826.566-1.376 1.41-1.476 2.408-.475.006-.956.312-1.02.943a9.494 9.494 0 01-.352 1.694c-.032.09-.072.175-.102.266a5.445 5.445 0 00-.41 1.305.84.84 0 00-.323.479 4.43 4.43 0 00.99 3.875c-.168.348-.156.76.209 1.055l.342.272c-.057.425.097.804.465 1.047a9.74 9.74 0 004.273 1.516c.318.06.64.1.974.106.066 0 .132-.006.198-.01a.788.788 0 00.185.132c.058.03.122.048.18.076l.003.018c.153.54.698.814 1.23.699.324-.071.644-.176.955-.301a4.537 4.537 0 001.055-.182 1.1 1.1 0 00.92.018 2.248 2.248 0 001.297-1.684c.006-.04.002-.078.005-.118 1.245-1.286 1.963-2.996 2.074-4.791a.864.864 0 00-.102-.47c.8-1.941 1.032-4.061.684-6.151a9.146 9.146 0 00.143-4.387c-.022-.102-.065-.18-.106-.258-.004-.145-.014-.291-.023-.436a.917.917 0 00.425-.123c.214-.138.4-.343.46-.598.02-.091.013-.175.012-.26.005-.018.022-.031.027-.05l.035-.266zm-21.986 23.249c-2.042-2.718-4.135-5.396-6.19-8.104-1.985-2.618-4.383-6.168-2.516-9.49.52-.925-.901-1.756-1.422-.831-1.658 2.948-.715 6.328.998 9.019 2.083 3.272 4.683 6.274 7.036 9.355 1.343 1.759 6.009 7.998 1.414 8.762-1.946.324-3.974-.496-5.757-1.177a45.961 45.961 0 01-5.41-2.496c-.932-.503-1.765.918-.831 1.422 2.779 1.496 5.804 2.948 8.893 3.667 2.419.563 5.899.429 6.556-2.56.607-2.76-1.2-5.475-2.771-7.567m-1.468 29.109c-.589-.875-2.016-.05-1.423.831.587.872 1.395 2.854.04 3.481-1.33.616-2.82-.76-3.453-1.786-1.897-3.075-.21-6.84 2.682-8.58.907-.546.08-1.97-.83-1.422-3.052 1.833-5.095 5.546-4.04 9.106.473 1.6 1.542 3.19 3.07 3.947 1.438.713 3.276.743 4.326-.643 1.103-1.455.564-3.54-.372-4.934"/></g></svg>