<?xml version="1.0" encoding="UTF-8"?>
<svg width="500px" height="600px" viewBox="0 0 500 600" version="1.1" xmlns="http://www.w3.org/2000/svg" xmlns:xlink="http://www.w3.org/1999/xlink">
    <title>sadlookingdown</title>
    <defs>
        <polygon id="path-1" points="0.000158116429 0.084 173.37518 0.084 173.37518 192.101778 0.000158116429 192.101778"></polygon>
    </defs>
    <g id="sadlookingdown" stroke="none" stroke-width="1" fill="none" fill-rule="evenodd">
        <g transform="translate(153.000000, 64.000000)">
            <g id="face" transform="translate(0.000000, 0.916000)">
                <mask id="mask-2" fill="white">
                    <use xlink:href="#path-1"></use>
                </mask>
                <g id="Clip-5"></g>
                <path d="M171.0487,137.3853 C170.9037,137.5153 170.7917,137.6883 170.7617,137.9203 C169.5327,147.5453 162.4277,154.9563 155.6847,161.4393 C155.3617,161.3513 154.9877,161.4193 154.7377,161.7523 C150.6487,167.2123 148.0457,174.3573 142.1717,178.2563 C135.6437,182.5913 127.3677,181.2153 120.2967,179.1603 C116.3597,178.0163 112.5027,176.5923 108.6297,175.2523 C104.2837,173.7473 99.9387,172.2433 95.5937,170.7393 C87.9337,168.0883 80.0717,165.5153 73.3787,160.8083 C67.2357,156.4893 62.1387,149.8733 61.3947,142.2623 C61.3827,142.1733 61.3777,142.0843 61.3617,141.9953 C61.3177,141.4613 61.2917,140.9233 61.2907,140.3793 C61.2897,139.5653 60.3227,139.3823 59.8727,139.8213 C59.3967,139.9433 58.9967,140.4613 59.3067,141.0243 C59.5347,141.4393 59.6717,141.8773 59.7487,142.3233 C59.7657,142.5043 59.7817,142.6843 59.8037,142.8643 C59.8697,144.2723 59.2887,145.7083 58.2987,146.7443 C57.4497,147.6323 56.3577,148.1423 55.1927,148.3693 C54.8837,148.1623 54.5217,148.0423 54.1367,148.0703 C50.5767,148.3213 47.9107,145.0963 45.7247,142.7273 C42.8617,139.6233 40.1357,136.3873 37.5837,133.0223 C37.3717,132.7413 37.1117,132.5123 36.8267,132.3413 C36.7147,132.1493 36.5927,131.9603 36.4837,131.7663 C36.4767,131.7543 36.4707,131.7413 36.4657,131.7293 C36.4577,131.7143 36.4457,131.7033 36.4387,131.6883 C35.0867,129.2893 33.9887,126.7683 33.5097,124.0383 C33.2797,122.7343 33.2597,121.3623 33.5137,120.0483 C33.6397,119.9313 33.7597,119.7993 33.8647,119.6373 C34.9287,117.9943 36.6937,116.9083 38.5937,116.5363 C39.3827,116.6853 40.1797,116.6433 40.9347,116.4463 C41.3297,116.4943 41.7207,116.5733 42.1027,116.6903 C43.9487,117.2483 45.7137,118.6343 47.1937,119.8443 C48.7967,121.1553 50.1477,122.6163 51.0017,124.5213 C51.3427,125.2833 52.2757,125.5903 53.0787,125.4593 C53.3597,125.5243 53.6347,125.5313 53.8977,125.4903 C54.0607,125.4893 54.2127,125.4493 54.3447,125.3643 C54.8957,125.1453 55.3397,124.6933 55.5377,124.0633 C55.8907,122.9383 56.0097,121.8263 55.9537,120.7333 L56.1277,120.1573 C56.2277,119.8233 56.0617,119.4423 55.7707,119.2523 C55.5667,118.1723 55.2137,117.1143 54.7677,116.0823 C53.4957,109.0593 50.8127,102.3303 46.8587,96.3713 L48.4807,96.9893 C49.7577,97.4763 51.0677,98.1203 52.4237,98.3403 C53.5477,98.5223 54.5967,98.2623 55.4137,97.6383 C56.1257,97.9643 56.9747,97.9943 57.6547,97.5313 C59.3017,96.4043 60.7297,95.0753 61.9417,93.5313 C62.3567,93.0803 62.7217,92.5843 63.0077,92.0323 C63.1167,91.8243 63.1877,91.6193 63.2397,91.4183 C64.3077,89.7133 65.1597,87.8723 65.7717,85.9533 C68.4627,83.5633 69.2837,79.6613 69.2137,76.0003 C71.9847,79.3203 76.0607,81.4733 80.3877,81.9493 C85.9857,82.5663 91.3797,79.9253 94.7527,75.4973 C95.7057,74.2463 96.4517,72.8713 97.0067,71.4233 C97.2967,70.9063 97.5737,70.3843 97.8367,69.8563 C100.0567,73.5313 103.5777,76.4923 107.8267,77.3913 C112.8887,78.4613 118.0037,76.0773 120.5137,71.5443 C121.0577,70.5613 121.4297,69.5043 121.6357,68.4203 C121.9747,70.3093 122.5737,71.9473 124.0667,73.4413 C124.7107,74.0843 125.5287,74.6563 126.4207,75.1063 C127.9137,76.4763 129.7777,77.3783 132.1527,77.4503 C135.0277,77.5373 137.4757,75.7813 138.8617,73.3483 C139.9167,71.4943 140.3027,69.4363 140.4237,67.3433 C142.5007,70.4143 146.1237,72.4683 149.8857,72.2173 C153.7977,71.9553 157.1797,69.4303 158.8377,66.0093 C159.6527,66.4513 160.5357,66.7563 161.4607,66.9013 C161.5427,66.9403 161.6197,66.9873 161.7037,67.0233 C157.4137,72.4063 157.7177,80.3673 159.0827,86.7713 C160.6857,94.2953 164.1277,101.2533 166.9407,108.3663 C167.1657,108.9373 167.3667,109.5173 167.5827,110.0913 C167.4507,110.3783 167.4547,110.7183 167.5957,111.0313 C168.6797,113.4493 169.5837,115.9443 170.3207,118.4883 C170.2997,118.5043 170.2857,118.5243 170.2647,118.5413 C170.4587,119.3543 170.6397,120.1713 170.7917,120.9963 C170.8087,121.0863 170.8467,121.1513 170.8817,121.2193 C171.4687,126.5883 171.5227,132.0043 171.0487,137.3853 M117.8827,188.8343 C117.1197,189.6023 115.9017,189.9823 114.8757,190.2393 C113.7787,190.5123 112.5167,190.6413 111.4577,190.1563 C110.3377,189.6433 109.8647,188.4453 109.1057,187.5533 C108.7647,187.1533 108.3697,186.8633 107.9387,186.5713 C107.2827,186.1283 107.3517,185.6853 107.3307,184.9363 C107.2497,182.1353 107.1687,179.3353 107.0877,176.5353 C110.5697,177.7423 114.0597,178.9283 117.5677,180.0453 C117.5607,180.1423 117.5657,180.2443 117.6017,180.3583 C118.0747,181.8173 118.4027,183.3173 118.5217,184.8483 C118.6197,186.1053 118.8597,187.8543 117.8827,188.8343 M106.4557,3.6923 C105.7527,4.2213 104.9317,4.6623 104.0517,4.9883 C104.8067,4.4853 105.6127,4.0483 106.4557,3.6923 M136.7947,73.4413 C136.8197,73.4123 136.8437,73.3813 136.8687,73.3543 C135.8127,74.7403 134.3267,75.6973 132.5437,75.7813 C134.1457,75.4083 135.6637,74.6723 136.7947,73.4413 M143.5787,68.4163 C142.5947,67.5843 141.7737,66.5583 141.1927,65.4053 C141.9157,66.4673 142.7147,67.4763 143.5787,68.4163 M172.9837,120.7263 C172.1067,117.0473 170.8707,113.4733 169.3227,110.0233 C169.3027,109.9783 169.2597,109.9513 169.2327,109.9133 C165.2707,99.5453 159.6417,89.5733 159.8557,78.3013 C159.9287,74.4413 160.8557,70.4303 163.4787,67.5043 C163.9127,67.5583 164.3507,67.5723 164.7857,67.5313 C168.1547,67.2113 170.7347,64.4903 171.9517,61.4923 C173.4157,57.8863 173.4807,53.5773 173.3077,49.7393 C173.1837,46.9783 172.7307,44.1553 171.6807,41.5803 C171.2987,40.2193 170.5817,39.0023 169.6527,37.9813 C168.0097,35.8023 165.7907,34.0493 163.2037,33.2113 C163.1907,33.1783 163.1757,33.1473 163.1637,33.1143 C163.6027,30.9633 163.8997,28.6313 162.8147,26.6343 C162.4217,25.9103 161.8807,25.3113 161.2427,24.8703 C160.7507,22.8713 159.9427,21.0883 158.5407,19.6223 C158.1397,18.7563 157.5717,17.9693 156.8187,17.3263 C155.5447,16.2403 153.8757,15.7083 152.2407,15.7993 C151.7437,14.6943 151.0347,13.6473 150.0827,12.6943 C146.8417,9.4533 140.6897,8.1843 136.7527,10.9743 C136.4597,11.1813 136.1647,11.3963 135.8677,11.6103 C135.1267,8.8603 133.1877,6.5943 130.7027,5.1843 C130.5087,5.0313 130.3217,4.8693 130.1137,4.7283 C128.0407,3.3173 125.3347,2.7483 122.9077,3.3423 C122.3387,2.7833 121.7067,2.2923 121.0287,1.8693 C120.5277,1.2763 119.8557,0.8023 119.0987,0.5493 C118.2877,0.2783 117.4347,0.2113 116.5787,0.2263 C114.6377,-0.0757 112.6147,0.0943 110.7387,0.8173 C110.5507,0.8483 110.3617,0.8673 110.1757,0.9033 C106.6947,1.5443 103.1607,3.0473 100.7707,5.6173 C99.3167,5.6353 97.9237,5.2843 96.8577,4.4503 C93.6817,1.9633 90.3707,0.9653 87.0857,1.5913 C83.6387,1.9063 81.1687,4.2483 78.7227,6.5533 L76.0547,8.7273 C73.5077,7.2973 70.9727,5.8093 68.3437,4.5483 C65.8217,3.3383 62.9887,2.4963 60.2257,3.3963 C54.9227,5.1233 52.9677,10.6533 51.7077,15.5963 C47.7117,13.1983 42.7207,12.5513 38.2417,13.8833 C36.7457,14.3283 35.3527,15.0183 34.0697,15.8693 C31.8057,16.8913 29.7667,18.4473 28.1487,20.6253 C25.7327,23.8793 24.7337,27.7933 25.1947,31.5393 C24.4957,31.8213 23.6747,31.9743 23.1377,32.1843 C22.0377,32.6153 20.9807,33.1423 19.9867,33.7813 C17.4977,35.3833 15.3887,37.6023 13.9207,40.1783 C12.6107,41.7543 11.5767,43.5883 10.9547,45.7563 C9.4907,50.8553 10.7247,55.7423 13.5087,59.8043 C10.0697,60.6653 6.8507,62.3933 4.4487,65.0263 C2.6187,67.0313 1.4077,69.4803 0.9067,72.0743 C-0.5763,76.0223 -0.0613,80.6743 3.2617,83.7253 C3.4387,83.8873 3.6227,84.0313 3.8047,84.1803 C0.4357,86.0263 -0.4943,90.9603 0.2307,94.5033 C0.9477,98.0083 3.1167,101.1133 6.0927,103.0263 C5.6357,103.5473 5.2247,104.1273 4.8667,104.7663 C4.8507,104.7893 4.8327,104.8093 4.8177,104.8313 C4.4977,105.3053 4.2817,105.8213 4.1367,106.3553 C2.4117,111.0713 3.8607,117.3853 8.7487,119.7733 C9.8907,120.3303 10.0047,120.1533 10.4617,120.8643 C11.5087,122.4943 12.7797,123.6703 14.1597,124.4933 C13.1807,125.6223 12.6877,127.2033 13.0827,128.9823 C13.0927,129.0303 13.1067,129.0773 13.1177,129.1253 C13.0827,129.4283 13.0447,129.7303 13.0317,130.0313 C12.8637,133.8673 14.5127,137.4443 16.4187,140.6713 C18.4947,144.1893 20.5877,147.8233 23.0117,151.1143 C25.1957,154.0783 28.1287,156.7403 31.9207,157.2333 C34.9427,157.6253 38.1967,156.1823 39.5587,153.4703 C40.2087,154.0283 40.9267,154.5113 41.6877,154.9093 C42.6957,156.3303 44.2087,157.5353 45.4237,158.4803 C47.6717,160.2273 50.2607,161.6013 53.0577,162.2093 C58.1567,163.3213 63.8297,161.6733 66.8697,157.2853 C67.6617,158.1463 68.4907,158.9713 69.3637,159.7393 C75.6907,165.2923 83.7277,168.3433 91.5657,171.0823 C96.1837,172.6963 100.7977,174.3473 105.4237,175.9613 C105.5037,178.7093 105.5827,181.4573 105.6627,184.2043 C105.6957,185.3653 105.5317,186.7173 106.4987,187.5573 C106.8857,187.8933 107.3587,188.1033 107.7177,188.4713 C108.1147,188.8783 108.3997,189.3753 108.7297,189.8343 C110.1127,191.7643 112.1287,192.3603 114.4297,192.0043 C116.4157,191.6983 118.9967,190.8193 119.8477,188.8213 C120.4007,187.5233 120.2707,185.9363 120.1447,184.5663 C120.0207,183.2233 119.7647,181.9033 119.3927,180.6103 C126.1777,182.6393 133.7527,184.0213 140.4227,181.0853 C147.7287,177.8693 150.8517,170.2843 155.1187,164.0473 C155.2697,164.0253 155.4207,163.9713 155.5587,163.8393 C162.2947,157.4083 169.4277,150.2613 171.7907,141.0533 C172.0847,140.9503 172.3377,140.7103 172.3847,140.3283 C173.1497,134.1593 173.1957,127.9473 172.5777,121.7783 C172.8917,121.5683 173.0957,121.1983 172.9837,120.7263" id="Fill-4" fill="#231F20" mask="url(#mask-2)"></path>
            </g>
            <g id="eyes" transform="translate(80.235334, 79.503471)" fill="#231F20">
                <path d="M23.7777659,30.8642292 C19.7947659,32.4562292 16.2937659,35.6632292 15.6037659,39.9562292 C14.7487659,42.3432292 14.6597659,44.9952292 15.4047659,47.4332292 C15.4737659,47.6592292 15.6047659,47.8072292 15.7547659,47.9212292 C14.9947659,48.3302292 14.2447659,48.7572292 13.5037659,49.2022292 C13.3037659,49.1242292 13.1087659,49.0342292 12.9237659,48.9182292 C12.8767659,49.1542292 12.8427659,49.3952292 12.8057659,49.6352292 C12.4987659,49.8252292 12.1867659,50.0102292 11.8827659,50.2072292 C11.1867659,49.1772292 10.6317659,48.0492292 10.2467659,46.8512292 C10.3567659,46.6372292 10.3937659,46.3832292 10.2787659,46.1122292 C8.8397659,42.7142292 7.3377659,39.1572292 7.1697659,35.4202292 C7.0077659,31.8522292 8.3197659,28.5902292 10.0597659,25.5442292 C11.4647659,23.0832292 12.9877659,20.5662292 14.7407659,18.3012292 C14.7407659,18.2682292 14.7457659,18.2352292 14.7447659,18.2022292 C15.0507659,18.1302292 15.3317659,17.9382292 15.4657659,17.5672292 C16.7187659,14.0982292 21.7967659,13.6962292 24.8147659,14.5072292 C28.4307659,15.4782292 30.9487659,18.2012292 32.1447659,21.6922292 C32.9847659,24.1422292 33.3567659,26.7592292 33.6007659,29.3702292 C33.6987659,29.6322292 33.7567659,29.8952292 33.7807659,30.1592292 C33.0457659,29.7282292 32.1847659,29.4682292 31.3117659,29.3972292 C28.8457659,29.1972292 26.0507659,29.9562292 23.7777659,30.8642292 M35.9967659,34.6302292 C35.8217659,31.0572292 35.5217659,27.3852292 34.8007659,23.8792292 C34.1307659,20.6192292 32.7957659,17.3232292 30.1977659,15.1222292 C27.9027659,13.1772292 24.9047659,12.0972292 21.8927659,12.1412292 C18.5247659,12.1902292 14.7587659,13.6532292 13.5367659,17.0352292 C13.5057659,17.1242292 13.5097659,17.2002292 13.5017659,17.2812292 C12.7497659,18.2492292 12.0477659,19.2512292 11.4027659,20.2502292 C8.1267659,25.3272292 4.8547659,30.5942292 5.6547659,36.8922292 C6.0277659,39.8272292 7.0527659,42.6022292 8.1787659,45.3232292 C8.1797659,45.3392292 8.1737659,45.3512292 8.1767659,45.3682292 C8.6107659,48.0052292 9.7977659,50.3462292 11.4507659,52.2612292 C11.4757659,52.2412292 11.4967659,52.2182292 11.5227659,52.1982292 C11.5597659,52.1712292 11.5977659,52.1472292 11.6347659,52.1202292 C11.9037659,52.3012292 12.2557659,52.3432292 12.6177659,52.1042292 C18.9297659,47.9592292 26.0117659,45.1972292 33.4617659,43.9622292 C33.7357659,43.9172292 33.9137659,43.7842292 34.0267659,43.6152292 C34.0587659,43.6102292 34.0957659,43.6182292 34.1257659,43.6092292 C34.3677659,43.5302292 34.6007659,43.3812292 34.7227659,43.1492292 C34.7237659,43.1472292 34.7247659,43.1452292 34.7257659,43.1422292 C34.9367659,43.0972292 35.1467659,43.0512292 35.3567659,43.0102292 C36.0147659,40.2822292 36.1327659,37.4422292 35.9967659,34.6302292" id="Fill-7"></path>
                <path d="M67.1683659,33.4941292 C66.1063659,33.9761292 65.0573659,34.4901292 64.0343659,35.0581292 C63.6513659,33.0961292 63.4063659,31.1161292 63.3143659,29.1121292 C63.2953659,28.7131292 63.0803659,28.4521292 62.8053659,28.3021292 C62.6363659,26.0031292 62.6223659,23.6591292 62.8933659,21.3641292 C63.0033659,21.2161292 63.0863659,21.0411292 63.0913659,20.8081292 C63.0983659,20.4841292 63.1073659,20.1561292 63.1203659,19.8271292 C63.1593659,19.6091292 63.1913659,19.3901292 63.2353659,19.1741292 C63.2073659,19.1671292 63.1833659,19.1551292 63.1553659,19.1481292 C63.2723659,17.1731292 63.5973659,15.1831292 64.6913659,13.5091292 C65.9263659,11.6201292 67.9803659,10.5631292 70.2173659,11.1831292 C72.4023659,11.7881292 74.4353659,13.3391292 75.9633659,14.9771292 C77.1123659,16.2081292 78.0293659,17.6751292 78.4813659,19.2901292 C78.4473659,19.3561292 78.4183659,19.4271292 78.3813659,19.4911292 C78.4813659,19.6771292 78.5683659,19.8701292 78.6603659,20.0611292 C78.7053659,20.3121292 78.7413659,20.5651292 78.7623659,20.8231292 C78.7773659,21.0031292 78.8353659,21.1511292 78.9163659,21.2771292 C72.7103659,21.3951292 67.2883659,26.5661292 66.7763659,32.7271292 C66.7513659,33.0361292 66.9253659,33.3081292 67.1683659,33.4941292 M82.6873659,30.9111292 C82.4603659,27.9651292 82.0613659,24.9911292 81.3763659,22.1321292 C81.2843659,21.7451292 81.1793659,21.3601292 81.0703659,20.9741292 C81.0663659,20.8291292 81.0323659,20.6981292 80.9593659,20.5911292 C80.8353659,20.1781292 80.6773659,19.7751292 80.5323659,19.3691292 C80.0493659,17.1841292 78.9263659,15.2231292 77.3773659,13.5621292 C75.5183659,11.5701292 72.8933659,9.6271292 70.1703659,9.1201292 C67.3993659,8.6041292 64.8923659,9.8591292 63.2583659,12.0801292 C61.4173659,14.5831292 61.1563659,17.8051292 61.0913659,20.8081292 C61.0873659,21.0131292 61.1463659,21.1731292 61.2273659,21.3121292 C60.9393659,23.8021292 60.9533659,26.3441292 61.1773659,28.8191292 C61.4143659,31.4341292 61.7403659,34.1001292 62.2993659,36.6901292 C62.3053659,36.6731292 62.3143659,36.6571292 62.3203659,36.6401292 C62.3363659,36.7151292 62.3493659,36.7911292 62.3663659,36.8651292 C62.5093659,37.4951292 63.3003659,37.7831292 63.8353659,37.4631292 C69.1563659,34.2771292 75.1313659,32.2981292 81.3103659,31.7311292 C81.7983659,31.6861292 82.0973659,31.3621292 82.2113659,30.9891292 C82.3003659,31.0321292 82.3953659,31.0621292 82.4793659,31.1131292 C82.4713659,31.0671292 82.4713659,31.0201292 82.4603659,30.9741292 C82.4973659,30.9631292 82.5313659,30.9481292 82.5683659,30.9361292 C82.6083659,30.9231292 82.6473659,30.9231292 82.6873659,30.9111292" id="Fill-11"></path>
                <path d="M18.7196659,2.1757292 C13.6896659,7.1757292 7.4936659,10.8697292 0.700665902,12.9097292 C-0.529334098,13.2797292 -0.00533409776,15.2097292 1.2326659,14.8387292 C8.3506659,12.7007292 14.8626659,8.8297292 20.1336659,3.5897292 C21.0476659,2.6807292 19.6336659,1.2667292 18.7196659,2.1757292" id="Fill-13"></path>
                <path d="M75.6087659,5.0468292 C70.9997659,4.6008292 66.5987659,2.8698292 62.8627659,0.145829202 C62.4237659,-0.175170798 61.7527659,0.073829202 61.4947659,0.503829202 C61.1937659,1.0068292 61.4197659,1.5558292 61.8537659,1.8728292 C65.8847659,4.8128292 70.6507659,6.5668292 75.6087659,7.0468292 C76.1477659,7.0988292 76.6087659,6.5498292 76.6087659,6.0468292 C76.6087659,5.4628292 76.1487659,5.0998292 75.6087659,5.0468292" id="Fill-15"></path>
            </g>
            <path d="M140.433,130.4566 C138.392,127.7386 136.299,125.0606 134.245,122.3526 C132.259,119.7346 129.86,116.1846 131.728,112.8626 C132.248,111.9376 130.826,111.1066 130.306,112.0316 C128.648,114.9796 129.591,118.3596 131.304,121.0506 C133.387,124.3226 135.987,127.3246 138.34,130.4056 C139.683,132.1646 144.349,138.4036 139.754,139.1676 C137.808,139.4916 135.779,138.6716 133.996,137.9906 C132.138,137.2816 130.338,136.4376 128.587,135.4946 C127.654,134.9916 126.821,136.4126 127.756,136.9166 C130.534,138.4126 133.56,139.8646 136.649,140.5836 C139.067,141.1466 142.548,141.0126 143.204,138.0246 C143.812,135.2636 142.005,132.5486 140.433,130.4566" id="nose" fill="#231F20"></path>
            <path d="M147.9872,156.4341 C145.4322,151.1761 139.5412,147.6641 133.6682,148.2191 C127.9032,148.7631 122.9042,152.8391 121.0802,158.3081 C120.6732,159.5321 122.6042,160.0571 123.0092,158.8401 C124.5722,154.1491 129.0482,150.5221 134.0262,150.1901 C139.1432,149.8501 144.0412,152.8751 146.2602,157.4441 C146.8222,158.6011 148.5482,157.5881 147.9872,156.4341" id="mouth" fill="#231F20"></path>
        </g>
    </g>
</svg>