<?xml version="1.0" encoding="UTF-8"?>
<svg width="500px" height="600px" viewBox="0 0 500 600" version="1.1" xmlns="http://www.w3.org/2000/svg" xmlns:xlink="http://www.w3.org/1999/xlink">
    <title>shockedlookingdown</title>
    <g id="shockedlookingdown" stroke="none" stroke-width="1" fill="none" fill-rule="evenodd">
        <g transform="translate(153.000000, 65.000000)" fill="#231F20">
            <path d="M171.0486,137.3023 C170.9036,137.4313 170.7916,137.6043 170.7626,137.8353 C169.5326,147.4613 162.4276,154.8723 155.6846,161.3553 C155.3626,161.2673 154.9876,161.3353 154.7386,161.6683 C150.6486,167.1283 148.0456,174.2733 142.1716,178.1733 C135.6436,182.5073 127.3676,181.1313 120.2966,179.0763 C116.3596,177.9323 112.5026,176.5083 108.6296,175.1673 L95.5936,170.6563 C87.9336,168.0043 80.0716,165.4313 73.3786,160.7243 C67.2366,156.4053 62.1386,149.7893 61.3946,142.1783 C61.3826,142.0893 61.3776,142.0003 61.3616,141.9113 C61.3176,141.3773 61.2916,140.8393 61.2916,140.2963 C61.2896,139.4823 60.3226,139.2983 59.8726,139.7373 C59.3966,139.8593 58.9966,140.3773 59.3066,140.9403 C59.5346,141.3553 59.6716,141.7943 59.7486,142.2393 C59.7656,142.4203 59.7816,142.6003 59.8036,142.7803 C59.8696,144.1883 59.2896,145.6243 58.2986,146.6603 C57.4496,147.5483 56.3576,148.0583 55.1936,148.2853 C54.8836,148.0783 54.5216,147.9583 54.1366,147.9863 C50.5766,148.2373 47.9106,145.0113 45.7256,142.6433 C42.8616,139.5383 40.1356,136.3033 37.5836,132.9373 C37.3716,132.6573 37.1116,132.4283 36.8266,132.2573 C36.7146,132.0653 36.5926,131.8763 36.4836,131.6823 C36.4776,131.6703 36.4706,131.6573 36.4656,131.6453 C36.4576,131.6303 36.4456,131.6183 36.4386,131.6043 C35.0866,129.2053 33.9886,126.6843 33.5096,123.9543 C33.2806,122.6503 33.2596,121.2783 33.5136,119.9643 C33.6396,119.8473 33.7596,119.7163 33.8646,119.5533 C34.9286,117.9103 36.6936,116.8243 38.5936,116.4523 C39.3826,116.6013 40.1796,116.5593 40.9346,116.3633 C41.3296,116.4103 41.7206,116.4903 42.1026,116.6063 C43.9486,117.1643 45.7146,118.5503 47.1936,119.7603 C48.7976,121.0713 50.1476,122.5323 51.0016,124.4373 C51.3436,125.1993 52.2756,125.5063 53.0786,125.3763 C53.3596,125.4403 53.6346,125.4473 53.8976,125.4063 C54.0606,125.4053 54.2136,125.3643 54.3446,125.2813 C54.8956,125.0613 55.3396,124.6093 55.5376,123.9793 C55.8916,122.8553 56.0096,121.7423 55.9536,120.6493 C56.0116,120.4573 56.0696,120.2653 56.1276,120.0733 C56.2286,119.7403 56.0616,119.3583 55.7716,119.1683 C55.5666,118.0873 55.2136,117.0293 54.7686,115.9983 C53.4956,108.9753 50.8126,102.2463 46.8586,96.2873 L48.4806,96.9063 C49.7576,97.3923 51.0676,98.0363 52.4236,98.2563 C53.5476,98.4383 54.5976,98.1783 55.4136,97.5543 C56.1266,97.8803 56.9746,97.9113 57.6546,97.4473 C59.3026,96.3203 60.7296,94.9913 61.9416,93.4473 C62.3576,92.9963 62.7216,92.5003 63.0086,91.9483 C63.1166,91.7393 63.1876,91.5353 63.2396,91.3333 C64.3076,89.6293 65.1596,87.7883 65.7716,85.8703 C68.4626,83.4793 69.2836,79.5773 69.2136,75.9163 C71.9846,79.2363 76.0606,81.3903 80.3876,81.8653 C85.9866,82.4823 91.3796,79.8413 94.7526,75.4133 C95.7056,74.1623 96.4526,72.7873 97.0066,71.3393 C97.2966,70.8233 97.5736,70.3003 97.8366,69.7723 C100.0566,73.4483 103.5776,76.4083 107.8266,77.3073 C112.8886,78.3773 118.0036,75.9933 120.5136,71.4603 C121.0576,70.4773 121.4296,69.4193 121.6356,68.3363 C121.9756,70.2253 122.5736,71.8643 124.0666,73.3573 C124.7106,74.0003 125.5286,74.5723 126.4206,75.0223 C127.9136,76.3923 129.7776,77.2943 132.1526,77.3663 C135.0276,77.4533 137.4766,75.6983 138.8616,73.2643 C139.9166,71.4103 140.3026,69.3523 140.4236,67.2593 C142.5006,70.3303 146.1236,72.3843 149.8856,72.1333 C153.7976,71.8723 157.1796,69.3463 158.8386,65.9253 C159.6526,66.3673 160.5356,66.6723 161.4606,66.8173 C161.5426,66.8563 161.6196,66.9033 161.7036,66.9393 C157.4136,72.3233 157.7176,80.2843 159.0826,86.6873 C160.6856,94.2113 164.1276,101.1693 166.9406,108.2823 C168.5616,112.3833 169.9906,116.5673 170.7916,120.9123 C170.8086,121.0023 170.8466,121.0673 170.8826,121.1353 C171.4686,126.5043 171.5236,131.9213 171.0486,137.3023 M117.8826,188.7513 C117.1196,189.5183 115.9016,189.8983 114.8756,190.1553 C113.7786,190.4283 112.5166,190.5573 111.4576,190.0733 C110.3376,189.5593 109.8646,188.3613 109.1056,187.4703 C108.7646,187.0703 108.3696,186.7793 107.9386,186.4873 C107.2826,186.0443 107.3516,185.6013 107.3306,184.8523 C107.2496,182.0523 107.1686,179.2513 107.0876,176.4513 C110.5706,177.6583 114.0596,178.8443 117.5676,179.9613 C117.5606,180.0583 117.5656,180.1603 117.6026,180.2743 C118.0746,181.7333 118.4026,183.2333 118.5216,184.7643 C118.6196,186.0213 118.8596,187.7703 117.8826,188.7513 M106.4556,3.6083 C105.7526,4.1373 104.9316,4.5783 104.0516,4.9043 C104.8066,4.4003 105.6126,3.9643 106.4556,3.6083 M136.7946,73.3573 C136.8196,73.3293 136.8436,73.2973 136.8686,73.2693 C135.8126,74.6563 134.3266,75.6143 132.5436,75.6983 C134.1466,75.3243 135.6636,74.5883 136.7946,73.3573 M143.5786,68.3323 C142.5946,67.5003 141.7736,66.4743 141.1926,65.3213 C141.9156,66.3833 142.7146,67.3923 143.5786,68.3323 M171.5006,116.6503 C167.9886,103.7263 159.5946,91.9353 159.8556,78.2173 C159.9286,74.3573 160.8556,70.3463 163.4786,67.4203 C163.9126,67.4743 164.3516,67.4883 164.7856,67.4473 C168.1546,67.1273 170.7356,64.4063 171.9516,61.4083 C173.4156,57.8023 173.4806,53.4933 173.3076,49.6563 C173.1836,46.8943 172.7316,44.0713 171.6806,41.4963 C171.2986,40.1353 170.5816,38.9183 169.6526,37.8963 C168.0096,35.7183 165.7906,33.9653 163.2036,33.1273 C163.1916,33.0943 163.1756,33.0633 163.1636,33.0303 C163.6026,30.8793 163.8996,28.5483 162.8146,26.5503 C162.4216,25.8263 161.8806,25.2273 161.2426,24.7863 C160.7516,22.7873 159.9426,21.0043 158.5406,19.5383 C158.1396,18.6723 157.5726,17.8853 156.8196,17.2423 C155.5446,16.1563 153.8756,15.6243 152.2406,15.7153 C151.7436,14.6103 151.0346,13.5633 150.0826,12.6103 C146.8416,9.3693 140.6896,8.1003 136.7526,10.8903 C136.4596,11.0973 136.1646,11.3123 135.8676,11.5263 C135.1266,8.7773 133.1876,6.5103 130.7026,5.1013 C130.5086,4.9473 130.3216,4.7843 130.1136,4.6443 C128.0406,3.2333 125.3356,2.6643 122.9076,3.2583 C122.3386,2.7003 121.7066,2.2083 121.0286,1.7863 C120.5286,1.1923 119.8556,0.7183 119.0986,0.4653 C118.2876,0.1933 117.4346,0.1283 116.5796,0.1423 C114.6376,-0.1597 112.6146,0.0113 110.7386,0.7343 C110.5516,0.7643 110.3616,0.7833 110.1756,0.8193 C106.6946,1.4603 103.1606,2.9633 100.7706,5.5333 C99.3166,5.5513 97.9236,5.2003 96.8586,4.3663 C93.6816,1.8793 90.3706,0.8803 87.0856,1.5073 C83.6396,1.8223 81.1686,4.1643 78.7226,6.4693 L76.0546,8.6433 C73.5076,7.2133 70.9726,5.7253 68.3436,4.4643 C65.8216,3.2543 62.9886,2.4123 60.2256,3.3123 C54.9226,5.0393 52.9676,10.5703 51.7076,15.5123 C47.7116,13.1143 42.7216,12.4673 38.2416,13.7993 C36.7456,14.2443 35.3526,14.9343 34.0696,15.7853 C31.8056,16.8083 29.7666,18.3633 28.1486,20.5413 C25.7326,23.7953 24.7346,27.7093 25.1946,31.4553 C24.4956,31.7363 23.6746,31.8903 23.1376,32.1003 C22.0386,32.5313 20.9806,33.0583 19.9866,33.6983 C17.4976,35.2993 15.3886,37.5183 13.9206,40.0943 C12.6106,41.6713 11.5776,43.5043 10.9546,45.6723 C9.4906,50.7713 10.7246,55.6583 13.5086,59.7203 C10.0696,60.5813 6.8516,62.3093 4.4486,64.9423 C2.6186,66.9483 1.4076,69.3963 0.9066,71.9893 C-0.5764,75.9383 -0.0614,80.5903 3.2626,83.6423 C3.4386,83.8033 3.6226,83.9483 3.8046,84.0973 C0.4356,85.9423 -0.4944,90.8763 0.2306,94.4193 C0.9476,97.9243 3.1176,101.0293 6.0926,102.9423 C5.6356,103.4633 5.2246,104.0423 4.8666,104.6823 C4.8516,104.7053 4.8326,104.7253 4.8176,104.7473 C4.4976,105.2223 4.2816,105.7373 4.1366,106.2713 C2.4116,110.9863 3.8606,117.3013 8.7486,119.6893 C9.8906,120.2463 10.0046,120.0683 10.4616,120.7803 C11.5086,122.4113 12.7796,123.5853 14.1596,124.4093 C13.1806,125.5383 12.6876,127.1193 13.0826,128.8983 C13.0926,128.9463 13.1066,128.9933 13.1176,129.0423 C13.0826,129.3443 13.0456,129.6463 13.0316,129.9483 C12.8636,133.7833 14.5126,137.3603 16.4186,140.5873 C18.4946,144.1053 20.5876,147.7403 23.0116,151.0303 C25.1956,153.9943 28.1286,156.6563 31.9206,157.1493 C34.9426,157.5423 38.1966,156.0983 39.5586,153.3863 C40.2096,153.9443 40.9266,154.4273 41.6876,154.8253 C42.6956,156.2463 44.2096,157.4513 45.4236,158.3963 C47.6726,160.1433 50.2606,161.5173 53.0576,162.1263 C58.1566,163.2373 63.8296,161.5893 66.8696,157.2013 C67.6616,158.0623 68.4906,158.8883 69.3636,159.6553 C75.6906,165.2083 83.7276,168.2593 91.5656,170.9983 C96.1836,172.6133 100.7986,174.2633 105.4246,175.8773 C105.5036,178.6253 105.5826,181.3733 105.6626,184.1203 C105.6956,185.2813 105.5326,186.6343 106.4986,187.4733 C106.8856,187.8093 107.3586,188.0193 107.7176,188.3873 C108.1156,188.7943 108.3996,189.2903 108.7296,189.7513 C110.1136,191.6813 112.1296,192.2763 114.4296,191.9203 C116.4156,191.6143 118.9966,190.7353 119.8476,188.7373 C120.4006,187.4393 120.2706,185.8523 120.1446,184.4823 C120.0206,183.1393 119.7646,181.8193 119.3926,180.5263 C126.1776,182.5553 133.7526,183.9373 140.4236,181.0013 C147.7286,177.7853 150.8516,170.2003 155.1186,163.9633 C155.2696,163.9413 155.4206,163.8873 155.5586,163.7553 C162.2946,157.3243 169.4276,150.1773 171.7906,140.9693 C172.0846,140.8663 172.3386,140.6263 172.3856,140.2443 C173.3346,132.5813 173.1946,124.8493 172.0226,117.2183 C171.9686,116.8703 171.7526,116.7003 171.5006,116.6503" id="face"></path>
            <g id="eyes" transform="translate(84.064828, 80.576908)">
                <path d="M30.2063724,34.7185916 C30.1933724,37.6065916 29.8383724,40.4655916 28.7283724,43.1905916 C28.5553724,43.6155916 28.6983724,43.9505916 28.9663724,44.1575916 C28.2843724,47.1285916 27.1483724,50.2105916 24.6513724,51.9235916 C21.3683724,54.1735916 16.6153724,54.1265916 13.0953724,52.4825916 C12.1343724,52.0335916 11.2613724,51.4585916 10.4693724,50.7955916 C9.83037242,50.3495916 9.29437242,49.7775916 8.85437242,49.1265916 C8.86237242,49.1585916 8.86737242,49.1935916 8.87337242,49.2265916 C7.78037242,47.9275916 6.94337242,46.4145916 6.41737242,44.7785916 C6.52737242,44.5645916 6.56437242,44.3095916 6.45037242,44.0385916 C5.01037242,40.6405916 3.50837242,37.0835916 3.33937242,33.3465916 C3.17937242,29.7795916 4.49037242,26.5165916 6.23037242,23.4705916 C7.63637242,21.0095916 9.15837242,18.4925916 10.9123724,16.2285916 C10.9113724,16.1955916 10.9153724,16.1615916 10.9153724,16.1285916 C11.2213724,16.0565916 11.5013724,15.8645916 11.6363724,15.4935916 C12.8893724,12.0255916 17.9673724,11.6225916 20.9843724,12.4335916 C24.6013724,13.4055916 27.1193724,16.1275916 28.3153724,19.6185916 C29.2093724,22.2285916 29.5803724,25.0275916 29.8233724,27.8065916 C29.8003724,27.8115916 29.7793724,27.8195916 29.7563724,27.8245916 C29.7573724,28.5145916 29.7683724,29.2045916 29.7903724,29.8945916 C29.8553724,29.8735916 29.9193724,29.8535916 29.9853724,29.8355916 C30.0143724,30.2305916 30.0423724,30.6235916 30.0713724,31.0135916 C30.1413724,31.9645916 30.1883724,32.9175916 30.2053724,33.8675916 C30.2183724,33.9405916 30.2293724,34.0135916 30.2443724,34.0855916 C30.2893724,34.3105916 30.2633724,34.5215916 30.2063724,34.7185916 M32.1663724,32.5565916 C31.9933724,28.9845916 31.6923724,25.3125916 30.9713724,21.8055916 C30.3003724,18.5455916 28.9663724,15.2495916 26.3693724,13.0485916 C24.0723724,11.1045916 21.0753724,10.0245916 18.0633724,10.0685916 C14.6953724,10.1165916 10.9293724,11.5795916 9.70737242,14.9615916 C9.67537242,15.0505916 9.68037242,15.1265916 9.67237242,15.2075916 C8.92037242,16.1755916 8.21837242,17.1775916 7.57437242,18.1765916 C4.29737242,23.2535916 1.02537242,28.5215916 1.82537242,34.8195916 C2.19837242,37.7535916 3.22337242,40.5295916 4.34937242,43.2495916 C4.35037242,43.2655916 4.34437242,43.2785916 4.34737242,43.2945916 C5.74837242,51.8235916 14.8343724,57.4835916 23.0923724,54.5155916 C27.2903724,53.0055916 29.2583724,49.3735916 30.3563724,45.2705916 C30.5353724,44.6005916 30.6893724,43.9235916 30.8313724,43.2445916 C32.1093724,39.8355916 32.3433724,36.1715916 32.1663724,32.5565916" id="Fill-6"></path>
                <path d="M13.7395724,3.90019164 C8.48557242,5.22019164 3.70057242,8.19219164 0.206572422,12.3331916 C-0.473427578,13.1381916 0.685572422,14.3081916 1.37057242,13.4981916 C4.69657242,9.55619164 9.17457242,6.74619164 14.1765724,5.48819164 C15.2045724,5.23019164 14.7695724,3.64119164 13.7395724,3.90019164" id="Fill-10"></path>
                <path d="M72.7898724,4.56429164 C68.7178724,1.05729164 63.2558724,0.353291643 58.0858724,0.00229164325 C57.0278724,-0.0697083567 57.0318724,1.57829164 58.0858724,1.64929164 C62.7738724,1.96729164 67.9208724,2.53829164 71.6248724,5.72929164 C72.4248724,6.41829164 73.5948724,5.25729164 72.7898724,4.56429164" id="Fill-12"></path>
                <path d="M77.1004724,36.7653916 C76.6804724,39.4313916 75.7404724,42.4993916 73.7764724,44.4583916 C72.6164724,45.6173916 70.6894724,45.2693916 69.2024724,45.0453916 C67.6584724,44.8133916 66.1444724,44.3443916 64.8584724,43.4373916 C63.4044724,42.4103916 62.3604724,40.9873916 61.5874724,39.3673916 C61.7544724,39.1893916 61.8614724,38.9623916 61.8304724,38.7183916 C61.7994724,38.4703916 61.7834724,38.2243916 61.7744724,37.9793916 C61.1724724,36.6193916 60.7394724,35.2043916 60.5214724,33.7443916 C60.3744724,34.1203916 60.2324724,34.4993916 60.1254724,34.8883916 C59.6354724,32.6303916 59.3924724,30.3203916 59.1584724,28.3213916 C58.8144724,25.3733916 58.7094724,22.2863916 59.0644724,19.2903916 C59.1734724,19.1423916 59.2574724,18.9673916 59.2624724,18.7353916 C59.2694724,18.4113916 59.2784724,18.0823916 59.2904724,17.7533916 C59.3294724,17.5363916 59.3614724,17.3163916 59.4054724,17.1003916 C59.3774724,17.0933916 59.3534724,17.0813916 59.3264724,17.0753916 C59.4424724,15.0993916 59.7674724,13.1103916 60.8624724,11.4353916 C62.0974724,9.54639164 64.1504724,8.49039164 66.3884724,9.11039164 C68.5734724,9.71439164 70.6054724,11.2653916 72.1334724,12.9043916 C73.2824724,14.1343916 74.2004724,15.6013916 74.6524724,17.2163916 C74.6184724,17.2833916 74.5884724,17.3533916 74.5524724,17.4173916 C74.6524724,17.6033916 74.7394724,17.7963916 74.8304724,17.9883916 C74.8754724,18.2393916 74.9124724,18.4923916 74.9334724,18.7493916 C74.9654724,19.1393916 75.1834724,19.3963916 75.4554724,19.5483916 C75.6524724,20.1613916 75.8024724,20.7883916 75.8784724,21.4213916 C75.9594724,21.3393916 76.0434724,21.2613916 76.1194724,21.1723916 C76.2724724,21.8613916 76.3974724,22.5573916 76.5144724,23.2543916 C76.8344724,23.8993916 77.0364724,24.5973916 77.0584724,25.3623916 C77.0644724,25.5683916 77.0164724,25.7373916 76.9464724,25.8863916 C76.9774724,26.2093916 76.9874724,26.5353916 77.0034724,26.8593916 C77.0444724,27.2243916 77.0954724,27.5903916 77.1324724,27.9543916 C77.4264724,30.8703916 77.5584724,33.8593916 77.1004724,36.7653916 M78.9654724,30.2673916 C78.7674724,26.8593916 78.3424724,23.3803916 77.5474724,20.0583916 C77.4544724,19.6713916 77.3494724,19.2863916 77.2414724,18.9013916 C77.2374724,18.7553916 77.2034724,18.6243916 77.1294724,18.5173916 C77.0054724,18.1043916 76.8484724,17.7023916 76.7024724,17.2953916 C76.2204724,15.1113916 75.0974724,13.1493916 73.5474724,11.4893916 C71.6884724,9.49639164 69.0644724,7.55339164 66.3404724,7.04639164 C63.5704724,6.53139164 61.0624724,7.78639164 59.4284724,10.0063916 C57.5874724,12.5093916 57.3274724,15.7313916 57.2624724,18.7353916 C57.2574724,18.9393916 57.3164724,19.0993916 57.3984724,19.2393916 C57.1104724,21.7283916 57.1234724,24.2703916 57.3474724,26.7453916 C57.6564724,30.1563916 58.1054724,33.6583916 59.0414724,36.9593916 C59.8174724,39.6903916 61.0684724,42.4503916 63.2954724,44.3013916 C65.7154724,46.3123916 69.4304724,47.2133916 72.5424724,46.8473916 C75.5704724,46.4923916 77.2444724,42.5423916 78.0394724,40.0053916 C79.0214724,36.8763916 79.1534724,33.5193916 78.9654724,30.2673916" id="Fill-14"></path>
                <path d="M26.3099724,36.4079916 C25.4259724,34.7429916 23.8229724,33.2099916 21.9019724,32.9129916 C21.4149724,32.8379916 20.9109724,32.8699916 20.4299724,32.9909916 C20.2899724,32.9589916 20.1379724,32.9519916 19.9699724,32.9899916 C13.4699724,34.4449916 12.1199724,43.9409916 17.0299724,47.8869916 C18.4009724,48.9879916 20.1699724,49.5539916 21.9079724,49.0709916 C23.6309724,48.5929916 25.0379724,47.2379916 25.9559724,45.7429916 C27.6519724,42.9779916 27.8369724,39.2849916 26.3099724,36.4079916" id="Fill-16"></path>
                <path d="M70.5965724,31.0495916 C71.1895724,31.3185916 71.6305724,31.7505916 71.9435724,32.2685916 C71.7755724,32.1205916 71.5875724,31.9925916 71.3875724,31.8795916 C71.3015724,31.6595916 71.1585724,31.4585916 70.9675724,31.3475916 C70.6965724,31.1895916 70.4195724,31.1855916 70.1675724,31.2755916 C70.0915724,31.1425916 70.0205724,31.0055916 69.9275724,30.8805916 C70.1465724,30.9015916 70.3685724,30.9465916 70.5965724,31.0495916 M72.1315724,29.6365916 C69.9725724,28.1235916 67.3755724,29.0435916 65.8975724,31.0075916 C64.4725724,32.9015916 63.8525724,35.7655916 64.6465724,38.0325916 C65.0115724,39.0745916 65.7335724,39.9975916 66.6465724,40.6035916 C67.1355724,41.3535916 67.8795724,41.8615916 68.8165724,41.9855916 C69.1655724,42.0305916 69.5025724,42.0155916 69.8315724,41.9715916 C69.8925724,41.9815916 69.9505724,41.9985916 70.0125724,42.0035916 C71.2675724,42.1125916 72.2305724,41.1835916 72.8345724,40.1855916 C73.5255724,39.0445916 74.0485724,37.6715916 74.3305724,36.3695916 C74.8725724,33.8705916 74.3255724,31.1735916 72.1315724,29.6365916" id="Fill-18"></path>
            </g>
            <path d="M140.4333,129.4566 C138.3913,126.7386 136.2983,124.0606 134.2443,121.3526 C132.2593,118.7346 129.8603,115.1846 131.7273,111.8626 C132.2483,110.9376 130.8263,110.1066 130.3063,111.0316 C128.6473,113.9796 129.5913,117.3596 131.3033,120.0506 C133.3873,123.3226 135.9863,126.3246 138.3393,129.4056 C139.6833,131.1646 144.3493,137.4036 139.7543,138.1676 C137.8083,138.4916 135.7793,137.6716 133.9963,136.9906 C132.1383,136.2816 130.3383,135.4376 128.5873,134.4946 C127.6543,133.9916 126.8213,135.4126 127.7553,135.9166 C130.5343,137.4126 133.5593,138.8646 136.6483,139.5836 C139.0673,140.1466 142.5483,140.0126 143.2043,137.0246 C143.8113,134.2636 142.0043,131.5486 140.4333,129.4566" id="nose"></path>
            <path d="M138.696,162.7554 C138.666,163.1244 138.702,163.6454 138.395,163.8974 C138.105,164.1344 137.582,164.0964 137.228,164.1224 C136.173,164.2014 135.118,164.2764 134.064,164.3534 C132.18,164.4894 130.297,164.6274 128.413,164.7644 L125.079,164.7644 C124.531,161.7474 124.164,158.6124 124.949,155.6204 C125.677,152.8424 127.693,150.2244 130.524,149.3644 C133.463,148.4734 136.126,150.1384 137.546,152.6874 C139.243,155.7324 138.969,159.4074 138.696,162.7554 M139.549,153.1234 C138.296,150.0404 135.523,147.3534 132.002,147.4784 C128.636,147.5984 125.63,150.0504 124.189,152.9934 C122.14,157.1774 122.892,162.0584 123.746,166.4444 C123.919,167.3324 125.11,167.1254 125.302,166.3914 L126.996,166.3914 C127.105,166.4434 127.229,166.4784 127.384,166.4664 C127.727,166.4414 128.07,166.4164 128.413,166.3914 L129.819,166.3914 C129.965,166.3914 130.102,166.3354 130.228,166.2594 C131.623,166.1574 133.019,166.0564 134.415,165.9544 C135.546,165.8724 136.684,165.8224 137.812,165.7054 C138.561,165.6274 139.292,165.4474 139.773,164.8224 C140.294,164.1474 140.286,163.2394 140.35,162.4264 C140.436,161.3274 140.51,160.2274 140.518,159.1244 C140.531,157.0974 140.317,155.0154 139.549,153.1234" id="mouth"></path>
        </g>
    </g>
</svg>