<?xml version="1.0" encoding="UTF-8"?>
<svg width="500px" height="600px" viewBox="0 0 500 600" version="1.1" xmlns="http://www.w3.org/2000/svg" xmlns:xlink="http://www.w3.org/1999/xlink">
    <title>shockedlookingstraight</title>
    <defs>
        <polygon id="path-1" points="0 0.0840269245 173.37488 0.0840269245 173.37488 192.101515 0 192.101515"></polygon>
    </defs>
    <g id="shockedlookingstraight" stroke="none" stroke-width="1" fill="none" fill-rule="evenodd">
        <g transform="translate(153.000000, 63.000000)">
            <g id="face" transform="translate(0.000000, 0.916000)">
                <mask id="mask-2" fill="white">
                    <use xlink:href="#path-1"></use>
                </mask>
                <g id="Clip-5"></g>
                <path d="M171.0484,137.3854 C170.9044,137.5154 170.7924,137.6884 170.7624,137.9194 C169.5324,147.5444 162.4284,154.9564 155.6854,161.4394 C155.3624,161.3514 154.9874,161.4194 154.7384,161.7524 C150.6494,167.2124 148.0464,174.3574 142.1724,178.2564 C135.6434,182.5914 127.3674,181.2154 120.2974,179.1594 C116.3594,178.0154 112.5024,176.5924 108.6294,175.2514 C104.2844,173.7474 99.9384,172.2434 95.5934,170.7394 C87.9334,168.0884 80.0714,165.5154 73.3784,160.8084 C67.2364,156.4894 62.1394,149.8724 61.3944,142.2624 C61.3824,142.1734 61.3784,142.0834 61.3614,141.9954 C61.3174,141.4614 61.2914,140.9234 61.2914,140.3804 C61.2904,139.5654 60.3224,139.3824 59.8734,139.8214 C59.3964,139.9434 58.9964,140.4614 59.3064,141.0244 C59.5354,141.4394 59.6714,141.8774 59.7484,142.3234 C59.7654,142.5034 59.7814,142.6844 59.8034,142.8644 C59.8694,144.2724 59.2894,145.7084 58.2984,146.7444 C57.4504,147.6324 56.3584,148.1424 55.1934,148.3694 C54.8834,148.1624 54.5214,148.0424 54.1364,148.0704 C50.5764,148.3214 47.9104,145.0954 45.7254,142.7274 C42.8614,139.6224 40.1364,136.3874 37.5834,133.0214 C37.3714,132.7414 37.1114,132.5124 36.8274,132.3414 C36.7144,132.1494 36.5934,131.9604 36.4834,131.7664 C36.4774,131.7544 36.4714,131.7414 36.4654,131.7294 C36.4574,131.7144 36.4454,131.7024 36.4384,131.6884 C35.0864,129.2894 33.9884,126.7684 33.5094,124.0384 C33.2804,122.7344 33.2604,121.3614 33.5134,120.0484 C33.6394,119.9314 33.7594,119.7994 33.8644,119.6374 C34.9284,117.9944 36.6934,116.9084 38.5944,116.5364 C39.3824,116.6854 40.1794,116.6434 40.9344,116.4464 C41.3294,116.4944 41.7204,116.5734 42.1024,116.6904 C43.9484,117.2484 45.7144,118.6344 47.1944,119.8444 C48.7974,121.1554 50.1484,122.6164 51.0014,124.5214 C51.3434,125.2834 52.2754,125.5904 53.0784,125.4604 C53.3594,125.5244 53.6354,125.5314 53.8974,125.4904 C54.0604,125.4894 54.2134,125.4484 54.3444,125.3644 C54.8954,125.1454 55.3394,124.6934 55.5374,124.0634 C55.8914,122.9384 56.0094,121.8264 55.9534,120.7334 C56.0114,120.5414 56.0694,120.3494 56.1274,120.1574 C56.2284,119.8234 56.0624,119.4414 55.7714,119.2524 C55.5664,118.1714 55.2134,117.1134 54.7684,116.0824 C53.4954,109.0584 50.8124,102.3304 46.8594,96.3714 L48.4814,96.9894 C49.7574,97.4764 51.0674,98.1204 52.4234,98.3404 C53.5474,98.5224 54.5974,98.2614 55.4134,97.6384 C56.1264,97.9644 56.9754,97.9954 57.6544,97.5314 C59.3024,96.4044 60.7304,95.0754 61.9414,93.5314 C62.3574,93.0804 62.7224,92.5834 63.0084,92.0324 C63.1164,91.8234 63.1874,91.6194 63.2394,91.4174 C64.3074,89.7134 65.1604,87.8724 65.7714,85.9544 C68.4624,83.5634 69.2844,79.6614 69.2144,76.0004 C71.9844,79.3204 76.0604,81.4734 80.3874,81.9494 C85.9864,82.5664 91.3794,79.9254 94.7524,75.4974 C95.7054,74.2464 96.4524,72.8714 97.0064,71.4234 C97.2974,70.9064 97.5734,70.3844 97.8364,69.8564 C100.0564,73.5314 103.5774,76.4924 107.8264,77.3914 C112.8884,78.4604 118.0034,76.0774 120.5134,71.5444 C121.0574,70.5614 121.4294,69.5034 121.6354,68.4204 C121.9754,70.3094 122.5734,71.9474 124.0664,73.4414 C124.7104,74.0844 125.5284,74.6564 126.4214,75.1064 C127.9134,76.4764 129.7774,77.3784 132.1524,77.4504 C135.0274,77.5374 137.4764,75.7814 138.8614,73.3484 C139.9164,71.4944 140.3034,69.4364 140.4234,67.3434 C142.5004,70.4134 146.1234,72.4684 149.8854,72.2174 C153.7974,71.9554 157.1794,69.4304 158.8384,66.0094 C159.6524,66.4514 160.5354,66.7564 161.4604,66.9004 C161.5424,66.9404 161.6194,66.9874 161.7034,67.0234 C157.4144,72.4064 157.7184,80.3674 159.0824,86.7714 C160.6854,94.2954 164.1274,101.2534 166.9404,108.3664 C168.5624,112.4674 169.9914,116.6514 170.7914,120.9964 C170.8084,121.0864 170.8464,121.1514 170.8824,121.2194 C171.4694,126.5884 171.5234,132.0054 171.0484,137.3854 M117.8824,188.8354 C117.1194,189.6024 115.9014,189.9824 114.8754,190.2384 C113.7794,190.5124 112.5164,190.6414 111.4574,190.1564 C110.3374,189.6434 109.8644,188.4454 109.1054,187.5544 C108.7644,187.1534 108.3694,186.8634 107.9384,186.5714 C107.2824,186.1284 107.3524,185.6854 107.3304,184.9364 C107.2494,182.1354 107.1684,179.3354 107.0874,176.5354 C110.5704,177.7414 114.0594,178.9284 117.5674,180.0454 C117.5604,180.1424 117.5654,180.2444 117.6024,180.3574 C118.0744,181.8174 118.4024,183.3174 118.5214,184.8484 C118.6194,186.1054 118.8594,187.8534 117.8824,188.8354 M106.4564,3.6924 C105.7534,4.2214 104.9314,4.6614 104.0514,4.9884 C104.8064,4.4844 105.6134,4.0484 106.4564,3.6924 M136.7944,73.4414 C136.8194,73.4134 136.8434,73.3814 136.8684,73.3534 C135.8134,74.7404 134.3264,75.6974 132.5434,75.7814 C134.1464,75.4074 135.6634,74.6724 136.7944,73.4414 M143.5784,68.4164 C142.5944,67.5844 141.7734,66.5584 141.1934,65.4054 C141.9154,66.4674 142.7144,67.4764 143.5784,68.4164 M171.5004,116.7344 C167.9884,103.8104 159.5944,92.0194 159.8554,78.3004 C159.9284,74.4414 160.8554,70.4304 163.4784,67.5044 C163.9124,67.5584 164.3514,67.5724 164.7854,67.5314 C168.1544,67.2114 170.7354,64.4904 171.9514,61.4924 C173.4154,57.8864 173.4804,53.5774 173.3074,49.7394 C173.1834,46.9784 172.7314,44.1554 171.6804,41.5804 C171.2984,40.2194 170.5814,39.0024 169.6524,37.9804 C168.0094,35.8024 165.7904,34.0494 163.2034,33.2114 C163.1914,33.1784 163.1754,33.1474 163.1634,33.1144 C163.6024,30.9634 163.9004,28.6324 162.8144,26.6344 C162.4214,25.9104 161.8804,25.3114 161.2424,24.8704 C160.7514,22.8714 159.9424,21.0874 158.5404,19.6224 C158.1394,18.7564 157.5724,17.9684 156.8194,17.3264 C155.5444,16.2404 153.8764,15.7084 152.2414,15.7994 C151.7434,14.6944 151.0344,13.6464 150.0824,12.6944 C146.8414,9.4534 140.6904,8.1844 136.7524,10.9744 C136.4594,11.1814 136.1644,11.3964 135.8684,11.6104 C135.1264,8.8604 133.1884,6.5934 130.7034,5.1854 C130.5084,5.0314 130.3214,4.8684 130.1144,4.7284 C128.0404,3.3174 125.3354,2.7474 122.9084,3.3414 C122.3384,2.7834 121.7074,2.2924 121.0284,1.8704 C120.5284,1.2754 119.8554,0.8024 119.0984,0.5494 C118.2874,0.2774 117.4344,0.2124 116.5794,0.2264 C114.6384,-0.0756 112.6144,0.0944 110.7384,0.8174 C110.5514,0.8484 110.3624,0.8674 110.1754,0.9024 C106.6944,1.5444 103.1604,3.0474 100.7704,5.6174 C99.3164,5.6354 97.9234,5.2844 96.8584,4.4504 C93.6814,1.9624 90.3704,0.9644 87.0854,1.5914 C83.6394,1.9064 81.1684,4.2484 78.7224,6.5524 C77.8334,7.2774 76.9444,8.0014 76.0554,8.7274 C73.5074,7.2974 70.9724,5.8094 68.3444,4.5484 C65.8214,3.3384 62.9884,2.4964 60.2254,3.3964 C54.9224,5.1234 52.9684,10.6544 51.7084,15.5964 C47.7114,13.1984 42.7214,12.5514 38.2424,13.8834 C36.7454,14.3284 35.3524,15.0184 34.0694,15.8684 C31.8054,16.8924 29.7664,18.4474 28.1484,20.6254 C25.7324,23.8794 24.7344,27.7934 25.1944,31.5394 C24.4954,31.8204 23.6744,31.9744 23.1374,32.1844 C22.0384,32.6144 20.9804,33.1424 19.9864,33.7814 C17.4974,35.3834 15.3884,37.6024 13.9204,40.1784 C12.6104,41.7544 11.5774,43.5884 10.9544,45.7564 C9.4904,50.8554 10.7244,55.7424 13.5084,59.8044 C10.0704,60.6654 6.8514,62.3924 4.4484,65.0264 C2.6184,67.0314 1.4084,69.4804 0.9064,72.0734 C-0.5766,76.0224 -0.0616,80.6744 3.2624,83.7264 C3.4384,83.8874 3.6224,84.0314 3.8044,84.1814 C0.4354,86.0264 -0.4946,90.9604 0.2304,94.5034 C0.9474,98.0084 3.1174,101.1134 6.0924,103.0264 C5.6354,103.5474 5.2244,104.1264 4.8664,104.7664 C4.8514,104.7884 4.8324,104.8084 4.8174,104.8314 C4.4974,105.3054 4.2814,105.8214 4.1364,106.3554 C2.4124,111.0704 3.8604,117.3844 8.7494,119.7734 C9.8904,120.3304 10.0044,120.1524 10.4614,120.8634 C11.5084,122.4954 12.7794,123.6694 14.1594,124.4934 C13.1804,125.6224 12.6874,127.2034 13.0824,128.9824 C13.0924,129.0304 13.1064,129.0774 13.1174,129.1264 C13.0824,129.4284 13.0454,129.7304 13.0314,130.0324 C12.8634,133.8674 14.5124,137.4434 16.4184,140.6714 C18.4944,144.1894 20.5874,147.8234 23.0114,151.1144 C25.1954,154.0784 28.1284,156.7404 31.9204,157.2334 C34.9434,157.6254 38.1974,156.1824 39.5584,153.4704 C40.2094,154.0274 40.9264,154.5114 41.6874,154.9094 C42.6954,156.3304 44.2094,157.5354 45.4234,158.4804 C47.6724,160.2274 50.2614,161.6014 53.0584,162.2104 C58.1564,163.3214 63.8294,161.6734 66.8694,157.2854 C67.6614,158.1464 68.4904,158.9714 69.3644,159.7394 C75.6904,165.2924 83.7274,168.3434 91.5654,171.0824 C96.1834,172.6974 100.7984,174.3474 105.4234,175.9614 C105.5034,178.7094 105.5834,181.4564 105.6624,184.2044 C105.6954,185.3644 105.5324,186.7174 106.4984,187.5574 C106.8854,187.8924 107.3584,188.1034 107.7174,188.4714 C108.1154,188.8784 108.3994,189.3744 108.7294,189.8344 C110.1134,191.7644 112.1294,192.3594 114.4294,192.0044 C116.4154,191.6984 118.9964,190.8194 119.8474,188.8214 C120.4004,187.5234 120.2714,185.9364 120.1444,184.5664 C120.0214,183.2234 119.7644,181.9034 119.3934,180.6104 C126.1774,182.6394 133.7524,184.0214 140.4234,181.0854 C147.7284,177.8694 150.8514,170.2844 155.1194,164.0474 C155.2694,164.0254 155.4204,163.9714 155.5584,163.8394 C162.2954,157.4084 169.4274,150.2614 171.7904,141.0534 C172.0844,140.9504 172.3384,140.7104 172.3854,140.3284 C173.3344,132.6654 173.1944,124.9324 172.0224,117.3024 C171.9684,116.9544 171.7534,116.7844 171.5004,116.7344" id="Fill-4" fill="#231F20" mask="url(#mask-2)"></path>
            </g>
            <g id="eyes" transform="translate(84.064835, 81.577008)" fill="#231F20">
                <path d="M30.3546649,27.7419916 C30.4026649,28.4399916 30.4246649,29.1409916 30.4086649,29.8439916 C30.4096649,29.8659916 30.4146649,29.8869916 30.4156649,29.9089916 C30.5796649,32.9259916 29.7306649,35.8309916 28.5166649,38.5619916 C28.5456649,38.5409916 28.5776649,38.5229916 28.6066649,38.5019916 C27.5366649,41.2169916 26.0006649,43.7599916 23.9246649,45.6809916 C19.7426649,49.5579916 13.8876649,48.2259916 10.3726649,44.1559916 C7.15166486,40.4279916 5.78866486,35.1539916 5.78062852,30.3129916 C5.77166486,25.0399916 7.43466486,19.7799916 10.5486649,15.5169916 C10.8966649,15.5269916 11.2356649,15.5649916 11.5646649,15.6329916 C11.5886649,15.5879916 11.6176649,15.5469916 11.6366649,15.4939916 C12.8896649,12.0249916 17.9676649,11.6229916 20.9846649,12.4329916 C23.8676649,13.2079916 26.0376649,15.1049916 27.4116649,17.6059916 C27.2576649,17.8009916 27.1876649,18.0459916 27.2446649,18.3089916 C27.1986649,18.2889916 27.1506649,18.2769916 27.1046649,18.2579916 C28.9366649,20.6809916 30.0366649,23.6069916 30.7766649,26.5419916 C30.9116649,27.0739916 30.6976649,27.4919916 30.3546649,27.7419916 M30.6726649,20.5329916 C29.9306649,17.7069916 28.6276649,14.9629916 26.3686649,13.0489916 C24.0726649,11.1039916 21.0756649,10.0239916 18.0636649,10.0679916 C15.3456649,10.1069916 12.3716649,11.0689916 10.6816649,13.2149916 C10.3466649,13.0209916 9.93166486,13.0309916 9.61266486,13.4369916 C2.81866486,22.0799916 1.35666486,35.7029916 8.29966486,44.7569916 C11.6576649,49.1349916 17.6876649,51.6889916 22.8706649,48.8959916 C27.5936649,46.3519916 30.3686649,40.5869916 31.6256649,35.5969916 C32.8836649,30.6089916 32.7216649,25.2309916 30.6726649,20.5329916" id="Fill-7"></path>
                <path d="M13.7394649,3.90019164 C8.48646486,5.22019164 3.70046486,8.19219164 0.20646486,12.3331916 C-0.47353514,13.1381916 0.68646486,14.3081916 1.37046486,13.4981916 C4.69646486,9.55619164 9.17446486,6.74619164 14.1774649,5.48819164 C15.2044649,5.23019164 14.7694649,3.64119164 13.7394649,3.90019164" id="Fill-11"></path>
                <path d="M72.7897649,4.56429164 C68.7177649,1.05729164 63.2567649,0.353291643 58.0857649,0.00229164325 C57.0277649,-0.0697083567 57.0327649,1.57829164 58.0857649,1.64929164 C62.7737649,1.96729164 67.9207649,2.53829164 71.6257649,5.72929164 C72.4247649,6.41829164 73.5947649,5.25729164 72.7897649,4.56429164" id="Fill-13"></path>
                <path d="M76.8185649,30.4821916 C76.8095649,30.4701916 76.7965649,30.4641916 76.7865649,30.4531916 C76.6405649,30.9571916 76.4685649,31.4531916 76.2795649,31.9471916 C76.3805649,31.8841916 76.4825649,31.8261916 76.5765649,31.7501916 C75.9555649,34.4871916 74.7215649,37.0351916 72.7885649,39.0421916 C70.4175649,41.5031916 66.4915649,43.1511916 63.9415649,39.9801916 C62.6875649,38.4211916 61.9565649,36.3661916 61.2375649,34.5291916 C60.4425649,32.4981916 59.7575649,30.4291916 59.1605649,28.3341916 C59.1595649,28.3301916 59.1595649,28.3251916 59.1585649,28.3211916 C58.8145649,25.3741916 58.7095649,22.2871916 59.0645649,19.2911916 C59.1735649,19.1421916 59.2565649,18.9661916 59.2625649,18.7351916 C59.2695649,18.4101916 59.2785649,18.0831916 59.2915649,17.7531916 C59.3295649,17.5361916 59.3615649,17.3161916 59.4055649,17.1001916 C59.3775649,17.0931916 59.3535649,17.0821916 59.3255649,17.0751916 C59.4425649,15.0991916 59.7675649,13.1101916 60.8625649,11.4351916 C62.0975649,9.54619164 64.1505649,8.49019164 66.3875649,9.10919164 C68.5725649,9.71419164 70.6055649,11.2651916 72.1335649,12.9041916 C73.2365649,14.0861916 74.1145649,15.4881916 74.5845649,17.0271916 C74.4795649,16.9851916 74.3725649,16.9581916 74.2655649,16.9271916 C74.8335649,17.8161916 75.2655649,18.7981916 75.6155649,19.8001916 C75.6375649,19.7941916 75.6605649,19.7971916 75.6825649,19.7911916 C76.5475649,22.0581916 77.0155649,24.5741916 77.0465649,27.0941916 C77.1615649,27.2791916 77.2305649,27.4911916 77.2295756,27.7071916 C77.2245649,28.5911916 77.0725649,29.4381916 76.8445649,30.2671916 C76.8345649,30.3391916 76.8295649,30.4121916 76.8185649,30.4821916 M76.6075649,16.9291916 C76.0845649,14.8921916 75.0095649,13.0551916 73.5475649,11.4891916 C71.6885649,9.49719164 69.0645649,7.55319164 66.3405649,7.04619164 C63.5705649,6.53119164 61.0625649,7.78619164 59.4285649,10.0061916 C57.5875649,12.5091916 57.3275649,15.7311916 57.2625649,18.7351916 C57.2575649,18.9391916 57.3165649,19.0991916 57.3985649,19.2381916 C57.1105649,21.7281916 57.1235649,24.2701916 57.3475649,26.7461916 C57.3825649,27.1281916 57.4265649,27.5151916 57.4665649,27.9011916 C57.2395649,28.1181916 57.1065649,28.4291916 57.2195649,28.8261916 C57.4135649,29.5091916 57.6175649,30.2031916 57.8265649,30.8971916 C57.8535649,31.0911916 57.8745649,31.2851916 57.9035649,31.4781916 C57.9195649,31.4301916 57.9425649,31.3851916 57.9605649,31.3381916 C58.8715649,34.3111916 59.9635649,37.3221916 61.5145649,39.9491916 C63.1155649,42.6621916 65.8145649,44.3241916 69.0065649,43.6051916 C75.5785649,42.1231916 78.6505649,34.2551916 79.0105649,28.2591916 C79.2465649,24.3361916 78.3985649,20.4211916 76.6075649,16.9291916" id="Fill-15"></path>
                <path d="M27.3097649,25.4079916 C26.4257649,23.7429916 24.8227649,22.2099916 22.9017649,21.9129916 C22.4147649,21.8379916 21.9107649,21.8699916 21.4297649,21.9909916 C21.2897649,21.9589916 21.1377649,21.9519916 20.9697649,21.9889916 C14.4697649,23.4449916 13.1207649,32.9409916 18.0297649,36.8869916 C19.4007649,37.9879916 21.1697649,38.5539916 22.9077649,38.0709916 C24.6307649,37.5929916 26.0387649,36.2369916 26.9557649,34.7429916 C28.6517649,31.9779916 28.8367649,28.2849916 27.3097649,25.4079916" id="Fill-17"></path>
                <path d="M71.5963649,20.0495916 C72.1893649,20.3185916 72.6303649,20.7505916 72.9433649,21.2685916 C72.7753649,21.1205916 72.5873649,20.9925916 72.3873649,20.8795916 C72.3013649,20.6585916 72.1583649,20.4585916 71.9673649,20.3475916 C71.6963649,20.1895916 71.4193649,20.1855916 71.1683649,20.2755916 C71.0913649,20.1425916 71.0203649,20.0055916 70.9283649,19.8805916 C71.1463649,19.9015916 71.3693649,19.9455916 71.5963649,20.0495916 M73.1323649,18.6365916 C70.9723649,17.1235916 68.3753649,18.0435916 66.8973649,20.0075916 C65.4723649,21.9015916 64.8523649,24.7655916 65.6463649,27.0325916 C66.0113649,28.0745916 66.7333649,28.9975916 67.6463649,29.6025916 C68.1353649,30.3535916 68.8793649,30.8615916 69.8163649,30.9855916 C70.1653649,31.0305916 70.5023649,31.0155916 70.8313649,30.9715916 C70.8923649,30.9815916 70.9503649,30.9985916 71.0133649,31.0035916 C72.2673649,31.1125916 73.2303649,30.1825916 73.8343649,29.1845916 C74.5253649,28.0435916 75.0493649,26.6705916 75.3313649,25.3695916 C75.8733649,22.8705916 75.3253649,20.1735916 73.1323649,18.6365916" id="Fill-19"></path>
            </g>
            <path d="M140.4332,130.4567 C138.3912,127.7387 136.2992,125.0607 134.2452,122.3527 C132.2592,119.7347 129.8602,116.1847 131.7282,112.8627 C132.2482,111.9377 130.8262,111.1067 130.3062,112.0317 C128.6482,114.9787 129.5912,118.3587 131.3042,121.0497 C133.3872,124.3217 135.9862,127.3247 138.3392,130.4057 C139.6832,132.1647 144.3492,138.4037 139.7542,139.1677 C137.8082,139.4907 135.7792,138.6717 133.9962,137.9907 C132.1382,137.2817 130.3382,136.4367 128.5872,135.4947 C127.6542,134.9917 126.8212,136.4127 127.7562,136.9167 C130.5342,138.4127 133.5602,139.8647 136.6482,140.5837 C139.0672,141.1467 142.5482,141.0117 143.2042,138.0247 C143.8122,135.2637 142.0052,132.5487 140.4332,130.4567" id="nose" fill="#231F20"></path>
            <path d="M138.6964,163.7555 C138.6664,164.1245 138.7014,164.6455 138.3954,164.8965 C138.1054,165.1345 137.5814,165.0965 137.2284,165.1225 C136.1734,165.2015 135.1184,165.2765 134.0634,165.3535 C132.1804,165.4895 130.2964,165.6265 128.4134,165.7645 L125.0794,165.7645 C124.5314,162.7475 124.1644,159.6125 124.9484,156.6205 C125.6774,153.8425 127.6934,151.2235 130.5234,150.3645 C133.4634,149.4735 136.1254,151.1385 137.5464,153.6875 C139.2434,156.7315 138.9694,160.4065 138.6964,163.7555 M139.5484,154.1235 C138.2964,151.0405 135.5234,148.3535 132.0014,148.4785 C128.6364,148.5985 125.6304,151.0495 124.1884,153.9935 C122.1394,158.1775 122.8924,163.0585 123.7454,167.4445 C123.9184,168.3325 125.1094,168.1255 125.3024,167.3915 L126.9964,167.3915 C127.1054,167.4435 127.2294,167.4775 127.3834,167.4665 C127.7264,167.4415 128.0704,167.4165 128.4134,167.3915 L129.8184,167.3915 C129.9654,167.3915 130.1024,167.3355 130.2274,167.2595 C131.6234,167.1575 133.0194,167.0565 134.4154,166.9545 C135.5464,166.8725 136.6844,166.8225 137.8114,166.7055 C138.5614,166.6275 139.2924,166.4475 139.7734,165.8225 C140.2934,165.1475 140.2864,164.2395 140.3494,163.4265 C140.4354,162.3275 140.5104,161.2275 140.5174,160.1245 C140.5314,158.0975 140.3174,156.0155 139.5484,154.1235" id="mouth" fill="#231F20"></path>
        </g>
    </g>
</svg>