<svg width="500" height="600" xmlns="http://www.w3.org/2000/svg"><g fill="#231F20" fill-rule="evenodd"><path d="M324.049 202.302a.837.837 0 00-.286.533c-1.23 9.626-8.335 17.037-15.078 23.52-.322-.088-.697-.02-.946.313-4.09 5.46-6.693 12.605-12.567 16.505-6.528 4.334-14.804 2.958-21.875.903-3.937-1.144-7.794-2.568-11.667-3.909l-13.036-4.51c-7.66-2.653-15.522-5.226-22.215-9.933-6.142-4.319-11.24-10.935-11.984-18.546-.012-.089-.017-.178-.033-.267a19.649 19.649 0 01-.07-1.615c-.002-.814-.97-.998-1.42-.559-.475.122-.875.64-.565 1.203.228.415.365.854.442 1.3.017.18.033.36.055.54.066 1.408-.514 2.844-1.505 3.88-.85.888-1.941 1.398-3.105 1.625a1.678 1.678 0 00-1.057-.299c-3.56.251-6.226-2.975-8.411-5.343a131.598 131.598 0 01-8.142-9.706 2.681 2.681 0 00-.757-.68c-.112-.192-.234-.38-.343-.575l-.018-.037c-.008-.015-.02-.027-.027-.04-1.352-2.4-2.45-4.92-2.93-7.65-.228-1.305-.25-2.677.005-3.99a2.13 2.13 0 00.35-.412c1.065-1.643 2.83-2.729 4.73-3.1a5.351 5.351 0 002.34-.09c.396.047.787.127 1.169.243 1.846.558 3.612 1.944 5.09 3.154 1.605 1.311 2.955 2.772 3.809 4.677.342.762 1.274 1.07 2.077.94.28.063.556.07.819.03a.836.836 0 00.447-.126c.55-.22.995-.672 1.193-1.302a9.388 9.388 0 00.416-3.33l.174-.576c.1-.333-.066-.715-.356-.905-.205-1.08-.558-2.139-1.003-3.17a52.67 52.67 0 00-7.91-19.71l1.622.618c1.277.486 2.587 1.13 3.943 1.35 1.124.182 2.174-.078 2.99-.702.713.326 1.56.357 2.24-.107a19.138 19.138 0 004.288-4c.416-.45.78-.947 1.067-1.499.108-.209.179-.413.23-.615a24.087 24.087 0 002.533-5.463c2.69-2.39 3.512-6.293 3.442-9.954 2.77 3.32 6.847 5.474 11.174 5.95 5.599.616 10.992-2.025 14.365-6.453a16.34 16.34 0 002.254-4.074c.29-.516.567-1.039.83-1.567 2.22 3.676 5.74 6.636 9.99 7.535 5.062 1.07 10.177-1.314 12.687-5.847.544-.983.916-2.04 1.122-3.124.34 1.89.938 3.528 2.43 5.021.645.643 1.463 1.215 2.355 1.665 1.493 1.37 3.357 2.272 5.732 2.344 2.875.087 5.324-1.668 6.709-4.102 1.055-1.854 1.44-3.912 1.562-6.005 2.077 3.071 5.7 5.125 9.462 4.874 3.912-.26 7.294-2.787 8.953-6.208a8.127 8.127 0 002.622.892c.082.04.159.086.243.122-4.29 5.384-3.986 13.345-2.621 19.748 1.603 7.524 5.045 14.482 7.858 21.595 1.62 4.101 3.05 8.285 3.85 12.63.018.09.056.155.092.223a82.317 82.317 0 01.166 16.167m-53.166 51.45c-.763.766-1.981 1.146-3.007 1.403-1.097.273-2.36.402-3.418-.082-1.12-.514-1.593-1.712-2.352-2.603-.341-.4-.736-.69-1.167-.983-.656-.443-.587-.886-.608-1.635l-.243-8.4a436.517 436.517 0 0010.48 3.51.796.796 0 00.035.312c.472 1.46.8 2.96.919 4.49.098 1.257.338 3.006-.64 3.987M259.457 68.608a9.512 9.512 0 01-2.404 1.296c.755-.504 1.56-.94 2.404-1.296m30.339 69.75l.074-.089c-1.056 1.387-2.542 2.345-4.325 2.43 1.603-.375 3.12-1.11 4.25-2.342m6.785-5.025a9.645 9.645 0 01-2.386-3.01 26.445 26.445 0 002.386 3.01m27.92 48.318c-3.512-12.924-11.906-24.715-11.645-38.433.073-3.86 1-7.87 3.623-10.797.434.054.873.068 1.307.027 3.369-.32 5.95-3.04 7.166-6.039 1.464-3.606 1.529-7.915 1.356-11.752-.124-2.762-.576-5.585-1.627-8.16-.382-1.36-1.1-2.578-2.028-3.6-1.643-2.178-3.862-3.93-6.45-4.769-.011-.033-.027-.064-.04-.097.44-2.15.737-4.482-.348-6.48a5.082 5.082 0 00-1.572-1.764c-.491-1.999-1.3-3.782-2.702-5.248a6.684 6.684 0 00-1.721-2.296 6.542 6.542 0 00-4.58-1.527 10.432 10.432 0 00-2.157-3.105c-3.241-3.24-9.393-4.51-13.33-1.72-.293.207-.588.422-.885.636-.741-2.749-2.68-5.016-5.165-6.425-.194-.154-.381-.317-.59-.457-2.072-1.41-4.777-1.98-7.205-1.386a10.93 10.93 0 00-1.88-1.472 4.354 4.354 0 00-1.93-1.32c-.81-.273-1.663-.338-2.518-.324-1.942-.302-3.965-.13-5.841.592-.187.03-.377.05-.563.085-3.481.641-7.015 2.144-9.405 4.714-1.454.018-2.847-.333-3.912-1.167-3.177-2.487-6.488-3.486-9.773-2.859-3.446.315-5.917 2.657-8.363 4.962l-2.668 2.174c-2.547-1.43-5.082-2.918-7.711-4.179-2.522-1.21-5.355-2.052-8.118-1.152-5.303 1.727-7.258 7.258-8.518 12.2-3.996-2.398-8.986-3.045-13.466-1.713-1.496.445-2.89 1.135-4.172 1.986a14.97 14.97 0 00-5.921 4.756c-2.416 3.254-3.414 7.168-2.954 10.914-.7.281-1.52.435-2.057.645a17.833 17.833 0 00-3.151 1.598 18.612 18.612 0 00-6.066 6.396 15.206 15.206 0 00-2.966 5.578c-1.464 5.1-.23 9.986 2.554 14.048-3.44.861-6.657 2.59-9.06 5.222a14.561 14.561 0 00-3.542 7.047c-1.483 3.95-.968 8.601 2.356 11.653.176.161.36.306.542.455-3.37 1.845-4.3 6.78-3.574 10.322.717 3.505 2.887 6.61 5.862 8.523a10.13 10.13 0 00-1.226 1.74c-.015.023-.034.043-.05.065-.32.475-.535.99-.68 1.524-1.725 4.715-.276 11.03 4.612 13.418 1.142.557 1.256.38 1.713 1.091 1.047 1.631 2.318 2.805 3.698 3.63-.98 1.128-1.472 2.71-1.077 4.488.01.048.024.095.035.144-.035.302-.072.604-.086.906-.168 3.835 1.48 7.412 3.387 10.64 2.076 3.517 4.169 7.152 6.593 10.442 2.184 2.964 5.117 5.626 8.909 6.12 3.022.392 6.276-1.052 7.638-3.764a11.373 11.373 0 002.129 1.44c1.008 1.42 2.522 2.625 3.736 3.57 2.249 1.747 4.837 3.121 7.634 3.73 5.099 1.111 10.772-.537 13.812-4.925a32.982 32.982 0 002.494 2.454c6.327 5.553 14.364 8.604 22.202 11.343 4.618 1.615 9.233 3.265 13.859 4.88l.238 8.242c.033 1.161-.13 2.514.836 3.353.387.336.86.546 1.219.914.398.407.682.903 1.012 1.364 1.384 1.93 3.4 2.525 5.7 2.17 1.986-.307 4.567-1.186 5.418-3.184.553-1.298.423-2.885.297-4.255a21.414 21.414 0 00-.752-3.956c6.785 2.03 14.36 3.411 21.03.475 7.306-3.216 10.429-10.8 14.696-17.038a.77.77 0 00.44-.208c6.736-6.43 13.869-13.578 16.232-22.786a.864.864 0 00.595-.725c.949-7.663.809-15.395-.363-23.026-.054-.348-.27-.518-.522-.568"/><path d="M267.271 180.295c-.013 2.888-.368 5.747-1.478 8.472-.173.425-.03.76.238.967-.682 2.971-1.818 6.053-4.315 7.766-3.283 2.25-8.036 2.203-11.556.56a12.016 12.016 0 01-2.626-1.688 6.35 6.35 0 01-1.615-1.669c.008.032.013.067.02.1a13.177 13.177 0 01-2.457-4.448.849.849 0 00.033-.74c-1.44-3.398-2.942-6.955-3.11-10.692-.16-3.567 1.15-6.83 2.89-9.876 1.406-2.46 2.928-4.978 4.682-7.242l.003-.1a.973.973 0 00.721-.635c1.253-3.468 6.331-3.87 9.348-3.06 3.617.972 6.135 3.694 7.331 7.185.894 2.61 1.265 5.41 1.508 8.188-.023.005-.044.013-.067.018.001.69.012 1.38.034 2.07l.195-.059c.03.395.057.788.086 1.178.07.951.117 1.904.134 2.854.013.073.024.146.04.218.044.225.018.436-.039.633m1.96-2.162c-.173-3.572-.474-7.244-1.195-10.75-.67-3.26-2.005-6.557-4.602-8.758a12.682 12.682 0 00-8.306-2.98c-3.368.048-7.134 1.511-8.356 4.893-.032.09-.027.165-.035.246a41.543 41.543 0 00-2.098 2.97c-3.277 5.076-6.549 10.344-5.749 16.642.373 2.934 1.398 5.71 2.524 8.43.001.016-.005.03-.002.045 1.401 8.53 10.487 14.19 18.745 11.221 4.198-1.51 6.166-5.142 7.264-9.245.18-.67.333-1.347.475-2.026 1.278-3.409 1.512-7.073 1.335-10.688m-18.427-28.656c-5.254 1.32-10.039 4.292-13.533 8.433-.68.805.48 1.975 1.164 1.165a24.627 24.627 0 0112.806-8.01c1.028-.258.593-1.847-.437-1.588m59.051.664c-4.072-3.507-9.534-4.21-14.704-4.562-1.058-.072-1.054 1.576 0 1.647 4.688.318 9.835.89 13.539 4.08.8.69 1.97-.472 1.165-1.165m4.31 32.201c-.42 2.666-1.36 5.734-3.324 7.693-1.16 1.16-3.087.811-4.574.587-1.544-.232-3.058-.7-4.344-1.608-1.454-1.027-2.498-2.45-3.27-4.07.166-.178.273-.405.242-.649a8.437 8.437 0 01-.056-.739 16.468 16.468 0 01-1.253-4.235c-.147.376-.289.755-.396 1.144-.49-2.258-.733-4.568-.967-6.567-.344-2.948-.449-6.035-.094-9.03a.938.938 0 00.198-.556c.007-.324.016-.653.028-.982.04-.217.071-.437.115-.653-.028-.007-.052-.019-.079-.025.116-1.976.441-3.965 1.536-5.64 1.235-1.889 3.288-2.945 5.526-2.325 2.185.604 4.217 2.155 5.745 3.794 1.15 1.23 2.067 2.697 2.52 4.312-.035.067-.065.137-.1.201.1.186.186.38.277.571a8 8 0 01.103.761.98.98 0 00.522.8c.197.612.347 1.24.423 1.872.081-.082.165-.16.241-.249.153.69.278 1.385.395 2.082.32.645.522 1.343.544 2.108.006.206-.042.375-.112.524.031.323.041.65.057.973.041.365.092.731.13 1.095.293 2.916.425 5.905-.033 8.811m1.865-6.498c-.198-3.408-.623-6.887-1.418-10.209a31.804 31.804 0 00-.306-1.157.697.697 0 00-.112-.384c-.124-.413-.28-.815-.427-1.222-.482-2.184-1.605-4.146-3.155-5.806-1.859-1.993-4.483-3.936-7.207-4.443-2.77-.515-5.278.74-6.912 2.96-1.84 2.503-2.1 5.725-2.166 8.73a.918.918 0 00.136.503c-.288 2.49-.275 5.031-.05 7.506.308 3.411.757 6.913 1.693 10.214.776 2.731 2.027 5.491 4.254 7.342 2.42 2.011 6.135 2.912 9.247 2.546 3.028-.355 4.702-4.305 5.497-6.842.982-3.129 1.114-6.486.926-9.738"/><path d="M263.375 181.985c-.884-1.665-2.487-3.198-4.408-3.495a3.731 3.731 0 00-1.472.078 1.018 1.018 0 00-.46-.001c-6.5 1.455-7.85 10.95-2.94 14.897 1.37 1.1 3.14 1.667 4.878 1.184 1.723-.478 3.13-1.833 4.048-3.328 1.696-2.765 1.88-6.458.354-9.335m44.286-5.359a3.022 3.022 0 011.347 1.22 3.273 3.273 0 00-.556-.39c-.086-.22-.229-.42-.42-.532a.922.922 0 00-.8-.072c-.076-.133-.147-.27-.24-.395.22.021.441.066.67.17m1.534-1.414c-2.159-1.513-4.756-.593-6.234 1.371-1.425 1.894-2.045 4.758-1.25 7.025a5.182 5.182 0 002 2.571c.488.75 1.232 1.258 2.17 1.382.348.045.685.03 1.014-.014.061.01.12.027.181.032 1.255.11 2.218-.82 2.822-1.818.691-1.14 1.214-2.514 1.496-3.816.542-2.499-.005-5.196-2.199-6.733m-15.763 19.244c-2.042-2.718-4.135-5.396-6.189-8.104-1.985-2.618-4.384-6.168-2.517-9.49.521-.925-.9-1.756-1.42-.831-1.66 2.948-.716 6.328.996 9.019 2.084 3.272 4.683 6.274 7.036 9.355 1.344 1.759 6.01 7.998 1.415 8.762-1.946.324-3.975-.496-5.758-1.177a46.022 46.022 0 01-5.409-2.496c-.933-.503-1.766.918-.832 1.422 2.78 1.496 5.804 2.948 8.893 3.667 2.42.563 5.9.429 6.556-2.56.607-2.76-1.2-5.475-2.77-7.567m-1.738 33.298c-.03.37.006.89-.301 1.142-.29.237-.813.2-1.167.225-1.055.08-2.11.154-3.164.231-1.884.136-3.767.274-5.651.411h-3.334c-.548-3.017-.915-6.152-.13-9.144.728-2.778 2.744-5.396 5.575-6.256 2.939-.89 5.602.774 7.022 3.323 1.697 3.045 1.423 6.72 1.15 10.068m.853-9.632c-1.253-3.083-4.026-5.77-7.547-5.645-3.366.12-6.372 2.572-7.813 5.515-2.049 4.184-1.297 9.065-.443 13.451.173.888 1.364.681 1.556-.053h1.694a.738.738 0 00.388.075l1.029-.075h1.406a.8.8 0 00.409-.132l4.187-.305c1.131-.082 2.269-.132 3.397-.249.749-.078 1.48-.258 1.961-.883.521-.675.513-1.583.577-2.396.086-1.099.16-2.199.168-3.302.013-2.027-.201-4.109-.969-6"/></g></svg>