<svg width="500" height="600" xmlns="http://www.w3.org/2000/svg" xmlns:xlink="http://www.w3.org/1999/xlink"><defs><path id="a" d="M0 .084h173.375v192.018H0z"/></defs><g fill="none" fill-rule="evenodd"><g transform="translate(154 64.916)"><mask id="b" fill="#fff"><use xlink:href="#a"/></mask><path d="M171.048 137.386a.837.837 0 00-.286.534c-1.23 9.625-8.334 17.037-15.077 23.519-.322-.088-.697-.02-.947.314-4.09 5.46-6.692 12.604-12.566 16.504-6.529 4.334-14.804 2.959-21.876.903-3.937-1.144-7.794-2.567-11.667-3.908-4.346-1.504-8.69-3.01-13.035-4.512-7.66-2.652-15.522-5.225-22.215-9.931-6.142-4.32-11.24-10.936-11.985-18.547-.011-.09-.017-.178-.032-.267a19.649 19.649 0 01-.07-1.615c-.003-.814-.97-.998-1.42-.56-.475.123-.876.642-.566 1.205.229.414.366.853.443 1.298.017.18.032.362.054.54.067 1.41-.514 2.845-1.505 3.882-.849.888-1.94 1.397-3.105 1.624a1.69 1.69 0 00-1.056-.3c-3.56.253-6.227-2.973-8.412-5.342a131.582 131.582 0 01-8.142-9.705 2.67 2.67 0 00-.756-.681c-.112-.192-.234-.38-.343-.574l-.019-.037c-.008-.016-.02-.027-.027-.041-1.352-2.4-2.45-4.921-2.928-7.651-.23-1.304-.25-2.676.004-3.99.125-.116.245-.248.35-.411 1.065-1.643 2.83-2.728 4.73-3.101a5.351 5.351 0 002.34-.09 6.86 6.86 0 011.169.244c1.846.559 3.611 1.945 5.09 3.154 1.605 1.31 2.955 2.773 3.809 4.678.341.76 1.273 1.069 2.076.938.281.064.556.072.82.03a.828.828 0 00.446-.125c.551-.22.995-.672 1.194-1.302a9.385 9.385 0 00.416-3.33l.173-.576c.101-.333-.066-.715-.355-.905-.206-1.08-.558-2.138-1.003-3.17a52.666 52.666 0 00-7.91-19.71l1.621.618c1.278.487 2.588 1.13 3.944 1.35 1.123.183 2.173-.078 2.99-.701.712.325 1.56.356 2.24-.108a19.115 19.115 0 004.287-4c.416-.45.78-.947 1.067-1.5a2.8 2.8 0 00.231-.613 24.114 24.114 0 002.533-5.464c2.69-2.391 3.511-6.292 3.441-9.953 2.772 3.319 6.848 5.473 11.175 5.948 5.599.617 10.991-2.023 14.364-6.452a16.34 16.34 0 002.255-4.074c.29-.516.566-1.038.83-1.567 2.22 3.676 5.74 6.636 9.99 7.535 5.061 1.07 10.177-1.314 12.686-5.846.544-.983.916-2.041 1.122-3.124.34 1.889.938 3.527 2.431 5.02.644.644 1.462 1.215 2.355 1.665 1.492 1.37 3.356 2.272 5.731 2.344 2.876.088 5.325-1.668 6.71-4.102 1.055-1.853 1.44-3.912 1.561-6.005 2.077 3.07 5.7 5.125 9.463 4.874 3.912-.261 7.293-2.787 8.953-6.208a8.127 8.127 0 002.621.892c.082.039.16.087.243.123-4.29 5.383-3.986 13.344-2.62 19.747 1.602 7.525 5.044 14.483 7.857 21.595 1.621 4.1 3.05 8.286 3.852 12.63.017.09.054.156.09.224a82.307 82.307 0 01.166 16.166m-53.166 51.449c-.763.768-1.98 1.147-3.007 1.404-1.097.274-2.359.403-3.418-.082-1.12-.513-1.592-1.711-2.351-2.603-.341-.4-.736-.691-1.167-.982-.656-.444-.587-.887-.608-1.636-.082-2.8-.163-5.601-.243-8.401a436.517 436.517 0 0010.48 3.51.792.792 0 00.035.313c.472 1.46.8 2.959.919 4.49.097 1.258.337 3.006-.64 3.987M106.456 3.692a9.546 9.546 0 01-2.403 1.297c.754-.504 1.56-.94 2.403-1.297m30.34 69.749c.025-.028.049-.06.074-.087-1.056 1.387-2.542 2.344-4.326 2.428 1.603-.374 3.12-1.11 4.251-2.341m6.784-5.025a9.634 9.634 0 01-2.386-3.011 26.27 26.27 0 002.386 3.01m27.922 48.319c-3.512-12.924-11.905-24.714-11.644-38.433.073-3.86 1-7.871 3.623-10.796.433.053.872.067 1.306.026 3.37-.32 5.95-3.04 7.167-6.038 1.464-3.607 1.529-7.916 1.356-11.753-.124-2.762-.576-5.584-1.627-8.16-.383-1.36-1.1-2.578-2.029-3.6-1.642-2.178-3.861-3.93-6.448-4.768-.013-.033-.029-.065-.04-.098.439-2.15.736-4.482-.35-6.48a5.09 5.09 0 00-1.571-1.764c-.492-2-1.3-3.782-2.702-5.248a6.68 6.68 0 00-1.721-2.295 6.538 6.538 0 00-4.58-1.527 10.423 10.423 0 00-2.157-3.106c-3.242-3.241-9.393-4.51-13.33-1.72-.293.208-.588.422-.885.636-.742-2.75-2.68-5.016-5.166-6.425-.194-.154-.38-.316-.589-.457-2.072-1.411-4.778-1.98-7.206-1.386a10.98 10.98 0 00-1.879-1.472 4.362 4.362 0 00-1.93-1.321c-.81-.271-1.663-.337-2.519-.323-1.941-.302-3.964-.131-5.84.592-.188.03-.377.05-.564.085-3.48.642-7.014 2.145-9.404 4.714-1.454.018-2.847-.333-3.912-1.167-3.177-2.487-6.488-3.485-9.773-2.86-3.447.316-5.918 2.658-8.364 4.963l-2.667 2.174c-2.548-1.43-5.083-2.918-7.712-4.18-2.522-1.21-5.355-2.051-8.118-1.15-5.303 1.727-7.258 7.257-8.517 12.199-3.996-2.398-8.986-3.045-13.466-1.712-1.496.444-2.89 1.135-4.172 1.985a14.964 14.964 0 00-5.922 4.757c-2.415 3.254-3.413 7.167-2.953 10.913-.7.282-1.52.435-2.058.646-1.099.43-2.157.957-3.15 1.597a18.612 18.612 0 00-6.066 6.396 15.206 15.206 0 00-2.966 5.578c-1.464 5.099-.23 9.986 2.553 14.048-3.438.86-6.656 2.589-9.06 5.223a14.553 14.553 0 00-3.542 7.047c-1.482 3.949-.968 8.6 2.357 11.652.175.162.36.306.542.455C.434 86.027-.495 90.96.23 94.503c.718 3.505 2.888 6.61 5.862 8.523a10.177 10.177 0 00-1.225 1.74c-.016.023-.035.043-.05.066a5.07 5.07 0 00-.68 1.523c-1.725 4.716-.276 11.03 4.612 13.419 1.141.557 1.255.379 1.712 1.09 1.047 1.63 2.319 2.806 3.698 3.629-.979 1.13-1.472 2.71-1.077 4.489.01.049.024.096.035.144-.035.302-.072.604-.086.906-.168 3.836 1.481 7.412 3.388 10.639 2.075 3.518 4.168 7.153 6.593 10.444 2.183 2.963 5.116 5.625 8.909 6.119 3.022.392 6.276-1.052 7.638-3.764a11.373 11.373 0 002.129 1.439c1.008 1.422 2.521 2.627 3.735 3.57 2.25 1.748 4.837 3.122 7.634 3.73 5.1 1.113 10.773-.536 13.813-4.924a32.793 32.793 0 002.493 2.454c6.328 5.554 14.365 8.604 22.203 11.343 4.617 1.615 9.233 3.265 13.858 4.88l.238 8.242c.033 1.16-.13 2.514.837 3.353.386.336.86.546 1.219.915.397.407.681.903 1.011 1.363 1.385 1.93 3.4 2.525 5.7 2.17 1.986-.306 4.567-1.186 5.418-3.184.553-1.298.424-2.884.297-4.255a21.42 21.42 0 00-.752-3.955c6.785 2.029 14.36 3.41 21.031.474 7.305-3.215 10.428-10.8 14.696-17.038a.763.763 0 00.44-.208c6.736-6.43 13.869-13.577 16.232-22.785a.865.865 0 00.595-.726c.948-7.663.809-15.395-.363-23.026-.054-.348-.27-.518-.523-.568" fill="#231F20" mask="url(#b)"/></g><path d="M242.997 188.564c-1.291-3.08-2.517-6.286-2.667-9.641-.162-3.566 1.15-6.83 2.89-9.875 1.663-2.911 3.467-5.924 5.653-8.473.474-.552.985-1.077 1.525-1.571-.3 1.266-.292 2.652-.164 3.867.339 3.214 1.664 6.248 3.577 8.836a28.547 28.547 0 006.5 6.348c1.123.786 2.406 1.343 3.699 1.5.079.113.167.218.265.308.397.363.892.58 1.434.586.016 0 .03-.01.047-.01-.033.103-.08.203-.095.31-8.025.995-15.74 3.629-22.664 7.815m25.465-11.29a39.435 39.435 0 00-3.98-13.894 15.973 15.973 0 00-1.701-3.61.812.812 0 00-.301-.28 16.657 16.657 0 00-.754-1.453c-.864-1.452-2.146-2.79-3.69-3.405a.724.724 0 00-.656-.353c-.2.002-.391.023-.586.036a4.726 4.726 0 00-1.72.103.745.745 0 00-.402.255c-4.461 1.237-7.633 5.245-10.11 9.08-3.274 5.078-6.547 10.346-5.747 16.643.373 2.936 1.398 5.71 2.524 8.43 0 .017-.005.029-.002.046.129.784.329 1.542.582 2.272.195-.248.397-.486.602-.722.28.25.685.347 1.106.089 6.853-4.217 14.564-6.921 22.563-7.838.385-.043.65-.26.802-.536l.027-.01a.977.977 0 00.273.023c.28-.027.33-.042.586-.157.105-.048.199-.134.283-.206.162-.143.299-.39.35-.596.02-.076.02-.147.028-.218.03-.005.06-.01.09-.013a38.387 38.387 0 00-.167-3.685m28.186-.121c-.036.02-.051.053-.083.077-.164-1.16-.295-2.29-.417-3.333-.562-4.82-.548-10.03 1.176-14.577.755 3.616 2.68 7.059 6.123 8.703 3.014 1.44 7.433 1.328 9.662-1.274.45 2.023.726 4.09.944 6.147a29.144 29.144 0 00-17.405 4.257m19.226-2.385c-.221-3.061-.625-6.158-1.337-9.133a32.977 32.977 0 00-.306-1.158.698.698 0 00-.112-.383c-.932-3.118-2.442-6.11-4.937-8.254a12.857 12.857 0 00-3.574-2.19c-.13-.101-.256-.206-.39-.304-1.025-.75-2.267-1.521-3.592-1.374a2.691 2.691 0 00-1.081.369c-.273-.15-.614-.147-.897.152-5.003 5.307-5.943 12.847-5.311 19.83.213 2.35.505 4.74.965 7.082.425-.197.855-.391 1.287-.582.278.226.666.305 1.068.057a27.338 27.338 0 0116.887-3.96c.288.027.5-.064.659-.205.223.02.447.028.67.053m-38.674-18.558a92.953 92.953 0 00-24.495-10.239c-1.247-.322-1.78 1.607-.532 1.928a90.984 90.984 0 0124.017 10.04c1.108.661 2.114-1.068 1.01-1.729m30.215-13.753a84.697 84.697 0 00-21.203 13.77c-.966.854.453 2.264 1.414 1.413a83.05 83.05 0 0120.798-13.456c1.171-.53.156-2.254-1.009-1.727m-14.056 51.998c-2.042-2.717-4.134-5.396-6.188-8.104-1.986-2.618-4.385-6.168-2.517-9.49.52-.925-.902-1.756-1.422-.83-1.658 2.947-.715 6.327.998 9.018 2.083 3.272 4.682 6.274 7.036 9.355 1.343 1.76 6.009 8 1.414 8.763-1.946.323-3.975-.496-5.758-1.177a46.191 46.191 0 01-5.41-2.497c-.932-.503-1.765.92-.83 1.422 2.778 1.496 5.804 2.948 8.892 3.668 2.419.563 5.9.428 6.556-2.559.608-2.762-1.2-5.476-2.771-7.569m6.242 35.374c.086-.077.156-.17.213-.27a10.034 10.034 0 003.222-3.547c.035.004.07.008.105.008-.897 1.481-2.117 2.767-3.54 3.81m-11.987 3.615c-3.138.096-6.325-.157-9.459-.58 4.981-2.555 11.04-2.773 16.166-.466.006.004.012.002.018.005-2.17.66-4.453.972-6.725 1.041m-26.015-16.015a.82.82 0 00-.359.042c.007-.017.01-.035.017-.05.695-1.722 1.998-3.12 3.774-3.727 1.766-.602 3.773-.38 5.256.785.446.352.958-.013 1.027-.44 2.973 1.008 6.157 1.352 9.28.941 3.931-.518 7.487-2.438 11.381-3.117 3.15-.55 6.735-.5 9.413 1.48 1.216.897 2.07 2.106 2.618 3.452a.9.9 0 00-.833-.335c-13.769 1.88-27.733 2.187-41.574.97m43.696-.952c-1.29-3.369-4.322-5.493-7.83-6.03-4.402-.678-8.527.834-12.633 2.185-4.857 1.597-9.873 1.676-14.617-.382-.353-.153-.65.023-.797.285-2.575-.979-5.663-.274-7.632 1.732-2.705 2.755-2.98 7.132-1.363 10.506 3.768 7.86 13.571 9.053 21.26 9.727 8.043.705 17.855-.13 22.557-7.743 1.87-3.027 2.335-6.936 1.055-10.28" fill="#231F20"/></g></svg>