<svg width="500" height="600" xmlns="http://www.w3.org/2000/svg" xmlns:xlink="http://www.w3.org/1999/xlink"><defs><path id="a" d="M0 .084h173.375v192.018H0z"/></defs><g fill="none" fill-rule="evenodd"><g transform="translate(154 64.916)"><mask id="b" fill="#fff"><use xlink:href="#a"/></mask><path d="M171.048 137.386a.847.847 0 00-.286.534c-1.23 9.625-8.334 17.037-15.078 23.519-.322-.088-.697-.02-.946.314-4.09 5.46-6.692 12.604-12.566 16.504-6.529 4.334-14.805 2.959-21.876.903-3.937-1.144-7.794-2.567-11.667-3.908-4.345-1.504-8.69-3.01-13.036-4.512-7.66-2.652-15.522-5.225-22.215-9.931-6.142-4.32-11.239-10.936-11.984-18.547-.012-.09-.017-.178-.032-.267a19.216 19.216 0 01-.07-1.615c-.002-.814-.97-.998-1.42-.56-.476.123-.876.642-.566 1.205.23.414.365.853.442 1.298.017.18.034.362.055.54.066 1.41-.514 2.845-1.505 3.882-.848.888-1.94 1.397-3.105 1.624a1.69 1.69 0 00-1.057-.3c-3.56.253-6.226-2.973-8.41-5.342a131.83 131.83 0 01-8.143-9.705 2.68 2.68 0 00-.756-.681c-.113-.192-.234-.38-.344-.574a.644.644 0 00-.018-.037c-.008-.016-.02-.027-.027-.041-1.352-2.4-2.45-4.921-2.929-7.651-.229-1.304-.249-2.676.005-3.99.125-.116.245-.248.35-.411 1.064-1.643 2.83-2.728 4.73-3.101a5.347 5.347 0 002.34-.09c.395.048.786.128 1.168.244 1.846.559 3.612 1.945 5.091 3.154 1.604 1.31 2.954 2.773 3.808 4.678.342.76 1.274 1.069 2.078.938.28.064.556.072.818.03a.828.828 0 00.447-.125c.551-.22.995-.672 1.193-1.302a9.41 9.41 0 00.417-3.33l.173-.576c.101-.333-.066-.715-.356-.905-.205-1.08-.558-2.138-1.003-3.17a52.666 52.666 0 00-7.91-19.71l1.623.618c1.276.487 2.586 1.13 3.942 1.35 1.124.183 2.174-.078 2.99-.701.713.325 1.562.356 2.241-.108a19.115 19.115 0 004.287-4 6.85 6.85 0 001.067-1.5 2.8 2.8 0 00.231-.613 24.07 24.07 0 002.532-5.464c2.691-2.391 3.513-6.292 3.442-9.953 2.771 3.319 6.847 5.473 11.174 5.948 5.6.617 10.992-2.023 14.365-6.452a16.34 16.34 0 002.254-4.074c.29-.516.568-1.038.83-1.567 2.22 3.676 5.741 6.636 9.99 7.535 5.062 1.07 10.177-1.314 12.687-5.846.544-.983.917-2.041 1.122-3.124.34 1.889.938 3.527 2.431 5.02.644.644 1.462 1.215 2.354 1.665 1.493 1.37 3.357 2.272 5.732 2.344 2.875.088 5.324-1.668 6.71-4.102 1.054-1.853 1.441-3.912 1.561-6.005 2.077 3.07 5.7 5.125 9.463 4.874 3.911-.261 7.294-2.787 8.952-6.208a8.127 8.127 0 002.622.892c.082.039.16.087.243.123-4.289 5.383-3.985 13.344-2.62 19.747 1.602 7.525 5.044 14.483 7.857 21.595 1.622 4.1 3.051 8.286 3.851 12.63.017.09.056.156.091.224a82.23 82.23 0 01.166 16.166m-53.166 51.449c-.763.768-1.98 1.147-3.007 1.404-1.096.274-2.358.403-3.418-.082-1.12-.513-1.593-1.711-2.352-2.603-.34-.4-.736-.691-1.167-.982-.655-.444-.587-.887-.608-1.636l-.243-8.401a436.517 436.517 0 0010.48 3.51.792.792 0 00.035.313c.473 1.46.8 2.959.92 4.49.097 1.258.337 3.006-.64 3.987M106.455 3.692a9.546 9.546 0 01-2.404 1.297c.755-.504 1.562-.94 2.404-1.297m30.34 69.749c.024-.028.048-.06.074-.087-1.057 1.387-2.543 2.344-4.326 2.428 1.603-.374 3.12-1.11 4.251-2.341m6.784-5.025a9.634 9.634 0 01-2.386-3.011 26.27 26.27 0 002.386 3.01m27.922 48.319c-3.512-12.924-11.906-24.714-11.645-38.433.073-3.86 1-7.871 3.623-10.796a6.08 6.08 0 001.307.026c3.37-.32 5.95-3.04 7.166-6.038 1.464-3.607 1.53-7.916 1.356-11.753-.124-2.762-.576-5.584-1.626-8.16-.383-1.36-1.1-2.578-2.029-3.6-1.643-2.178-3.862-3.93-6.449-4.768-.012-.033-.028-.065-.04-.098.44-2.15.736-4.482-.349-6.48a5.09 5.09 0 00-1.572-1.764c-.49-2-1.3-3.782-2.702-5.248a6.68 6.68 0 00-1.72-2.295 6.537 6.537 0 00-4.579-1.527 10.427 10.427 0 00-2.159-3.106c-3.24-3.241-9.392-4.51-13.33-1.72-.293.208-.588.422-.884.636-.742-2.75-2.68-5.016-5.165-6.425-.195-.154-.382-.316-.589-.457-2.074-1.411-4.779-1.98-7.206-1.386a11.018 11.018 0 00-1.879-1.472A4.371 4.371 0 00119.1.549c-.812-.271-1.665-.337-2.52-.323-1.94-.302-3.964-.131-5.84.592-.188.03-.377.05-.564.085-3.48.642-7.014 2.145-9.405 4.714-1.454.018-2.847-.333-3.912-1.167-3.177-2.487-6.488-3.485-9.773-2.86-3.446.316-5.917 2.658-8.363 4.963l-2.667 2.174c-2.548-1.43-5.082-2.918-7.71-4.18-2.524-1.21-5.357-2.051-8.12-1.15-5.303 1.727-7.257 7.257-8.518 12.199-3.996-2.398-8.986-3.045-13.465-1.712-1.497.444-2.89 1.135-4.173 1.985a14.971 14.971 0 00-5.92 4.757c-2.417 3.254-3.415 7.167-2.955 10.913-.699.282-1.52.435-2.057.646-1.099.43-2.157.957-3.15 1.597a18.612 18.612 0 00-6.067 6.396 15.206 15.206 0 00-2.966 5.578c-1.464 5.099-.229 9.986 2.554 14.048-3.438.86-6.657 2.589-9.06 5.223a14.561 14.561 0 00-3.542 7.047c-1.483 3.949-.968 8.6 2.356 11.652.176.162.36.306.543.455C.435 86.027-.495 90.96.23 94.503c.717 3.505 2.887 6.61 5.862 8.523a10.173 10.173 0 00-1.225 1.74c-.016.023-.035.043-.05.066a5.07 5.07 0 00-.68 1.523c-1.725 4.716-.277 11.03 4.612 13.419 1.141.557 1.255.379 1.712 1.09 1.047 1.63 2.318 2.806 3.698 3.629-.979 1.13-1.472 2.71-1.077 4.489l.035.144c-.035.302-.072.604-.086.906-.167 3.836 1.481 7.412 3.387 10.639 2.076 3.518 4.17 7.153 6.593 10.444 2.184 2.963 5.117 5.625 8.91 6.119 3.022.392 6.276-1.052 7.637-3.764a11.373 11.373 0 002.13 1.439c1.007 1.422 2.521 2.627 3.735 3.57 2.25 1.748 4.838 3.122 7.635 3.73 5.098 1.113 10.771-.536 13.811-4.924a32.623 32.623 0 002.495 2.454c6.326 5.554 14.363 8.604 22.201 11.343 4.618 1.615 9.233 3.265 13.858 4.88l.24 8.242c.032 1.16-.13 2.514.835 3.353.387.336.86.546 1.22.915.397.407.681.903 1.011 1.363 1.384 1.93 3.4 2.525 5.7 2.17 1.986-.306 4.567-1.186 5.418-3.184.553-1.298.423-2.884.297-4.255a21.42 21.42 0 00-.752-3.955c6.785 2.029 14.36 3.41 21.031.474 7.305-3.215 10.428-10.8 14.696-17.038a.763.763 0 00.44-.208c6.735-6.43 13.868-13.577 16.231-22.785a.865.865 0 00.595-.726c.95-7.663.81-15.395-.363-23.026-.054-.348-.269-.518-.522-.568" fill="#231F20" mask="url(#b)"/></g><path d="M261.641 197.5c-3.283 2.251-8.036 2.204-11.557.56-1.946-.91-3.564-2.302-4.786-3.988 7.23-1.176 14.262-3.223 21.013-6.053-.64 3.431-1.684 7.433-4.67 9.481m-18.202-7.884c-1.439-3.399-2.942-6.956-3.11-10.693-.09-2.016.3-3.93.96-5.768a110.302 110.302 0 0011.125-3.617c.42.75.885 1.476 1.397 2.168a28.531 28.531 0 006.501 6.35c1.982 1.387 4.46 2.103 6.621 1.065.11 2.226.021 4.46-.268 6.672a1.04 1.04 0 00-.34.073c-7.002 3.032-14.378 5.145-21.913 6.34-.08.012-.133.05-.199.075-.313-.62-.592-1.26-.806-1.927a.844.844 0 00.032-.738m-.219-20.568c1.662-2.91 3.467-5.925 5.653-8.474.356-.415.74-.809 1.134-1.19.825-1.3 2.575-2.035 3.971-2.479 1.74-.552 4.483-.693 5.74.903.471.418.831.916 1.086 1.474.273.324.51.678.712.968.45.646.903 1.341 1.163 2.09.125.36-.003.893-.303 1.141-1.422 1.176-3.17 1.72-4.889 2.307-.693.337-1.402.644-2.116.928-1.298.517-2.634.926-3.944 1.414a1.927 1.927 0 01-1.144.051c-2.629.97-5.29 1.855-7.99 2.622.291-.593.598-1.179.927-1.755m25.242 8.226a39.45 39.45 0 00-3.979-13.894 15.953 15.953 0 00-1.702-3.61.84.84 0 00-.3-.28 16.81 16.81 0 00-.756-1.454c-.863-1.452-2.146-2.789-3.69-3.404a.722.722 0 00-.656-.354c-.199.002-.39.024-.585.036a4.748 4.748 0 00-1.72.103.748.748 0 00-.402.256c-4.46 1.236-7.634 5.244-10.109 9.08-1.587 2.46-3.168 4.965-4.29 7.608-.057.015-.112.033-.168.046-.81.213-.86 1.096-.46 1.602-.784 2.325-1.163 4.765-.83 7.387.372 2.935 1.398 5.71 2.523 8.43.002.017-.004.028 0 .045 1.4 8.53 10.487 14.19 18.743 11.221 4.2-1.509 6.167-5.14 7.265-9.244a38.603 38.603 0 001.116-13.574m42.304 12.762c-1.16 1.158-3.087.81-4.575.586-1.544-.232-3.057-.7-4.343-1.608-1.055-.746-1.89-1.703-2.568-2.789a.96.96 0 00.661.094 44.681 44.681 0 0014.35-5.818c-.048.615-.105 1.23-.2 1.841-.42 2.666-1.362 5.735-3.325 7.694m-14.929-22.26c.218.27.554.442.986.342.31-.07.614-.162.922-.24.208.163.482.232.821.101a80.96 80.96 0 002.887-1.206l.048-.015c.031.025.066.047.097.071.01-.04.017-.08.027-.123v-.004c.364-.16.721-.334 1.082-.498a11.864 11.864 0 004.841 5.775 11.394 11.394 0 003.77 1.487c.933.18 1.987.291 2.783-.106.006.058.015.115.02.172.152 1.508.256 3.035.263 4.561-.038.02-.076.034-.114.06a43.137 43.137 0 01-14.86 6.238c-.47.1-.69.434-.716.797-1.72-3.43-2.142-7.829-2.546-11.29a44.494 44.494 0 01-.31-6.122m1.385-8.149a7.088 7.088 0 01.632-1.835c.34-.664.823-1.223 1.384-1.694.485.14 1.043-.039 1.182-.672.47-2.126 3.055-1.947 4.65-1.369 1.656.602 3.056 1.776 4.17 3.118a13.79 13.79 0 011.575 2.381 74.388 74.388 0 01-9.733 5.215c-.38.134-.757.275-1.143.388l.006.01c-1.2.391-2.417.738-3.655 1.021a.951.951 0 00-.4.193c.147-2.322.558-4.608 1.332-6.756m18.731 16.217a62.847 62.847 0 00-.773-6.892.955.955 0 00.304-.937c-1.002-4.746-2.169-9.78-5.78-13.282-1.6-1.552-3.656-2.755-5.895-3.03-1.36-.168-2.805.155-3.863.956.034-.127.064-.254.101-.38a.699.699 0 00-.4.214c-5.004 5.308-5.944 12.847-5.31 19.83.308 3.41.757 6.912 1.694 10.213.775 2.73 2.026 5.49 4.254 7.342 2.42 2.012 6.134 2.912 9.246 2.547 3.028-.357 4.702-4.306 5.497-6.842.982-3.13 1.114-6.487.925-9.739m-62.074-30.165a43.19 43.19 0 01-18.02 10.734c-1.23.37-.706 2.3.531 1.929a45.336 45.336 0 0018.902-11.25c.914-.907-.5-2.322-1.414-1.413m56.89 2.871c-4.61-.445-9.01-2.177-12.745-4.9-.44-.322-1.111-.073-1.37.357-.3.504-.074 1.053.36 1.369 4.03 2.94 8.797 4.694 13.755 5.174.538.053 1-.496 1-1 0-.584-.46-.947-1-1m-17.411 45.906c-2.042-2.717-4.135-5.396-6.188-8.104-1.986-2.618-4.385-6.168-2.517-9.49.52-.925-.902-1.756-1.422-.83-1.658 2.947-.715 6.327.998 9.018 2.083 3.272 4.682 6.274 7.035 9.355 1.344 1.76 6.01 8 1.415 8.763-1.946.323-3.975-.496-5.758-1.177a46.191 46.191 0 01-5.41-2.497c-.932-.503-1.765.92-.83 1.422 2.778 1.496 5.804 2.948 8.892 3.668 2.419.563 5.9.428 6.556-2.559.608-2.762-1.2-5.476-2.771-7.569m-11.941 28.047c1.213-4.37 4.187-7.682 7.481-7.996 3.39-.324 6.636 2.414 8.268 6.63-.067-.007-.122-.03-.197-.023l-15.552 1.39m17.18-1.754c-1.776-5.259-5.868-8.768-9.948-8.215-4.004.544-7.477 4.62-8.743 10.09-.134.577.098.99.407 1.147.064.43.363.796.931.746l15.725-1.404c.54-.049.84-.439.922-.86.464.038.98-.689.705-1.504" fill="#231F20"/></g></svg>