<svg width="500" height="600" xmlns="http://www.w3.org/2000/svg" xmlns:xlink="http://www.w3.org/1999/xlink"><defs><path id="a" d="M0 .084h173.375v192.018H0z"/></defs><g fill="none" fill-rule="evenodd"><g transform="translate(154 64.916)"><mask id="b" fill="#fff"><use xlink:href="#a"/></mask><path d="M171.048 137.386a.842.842 0 00-.286.534c-1.23 9.625-8.334 17.037-15.077 23.52a.86.86 0 00-.947.313c-4.09 5.46-6.691 12.604-12.565 16.504-6.53 4.334-14.805 2.959-21.877.903-3.937-1.144-7.794-2.567-11.667-3.908-4.346-1.504-8.69-3.01-13.035-4.512-7.66-2.652-15.522-5.225-22.215-9.931-6.144-4.32-11.24-10.936-11.985-18.547-.011-.09-.017-.178-.032-.267a19.649 19.649 0 01-.07-1.615c-.002-.814-.97-.997-1.42-.56-.475.123-.876.642-.566 1.205.23.415.366.853.443 1.298.017.18.032.362.054.54.067 1.41-.514 2.845-1.505 3.882-.849.888-1.94 1.397-3.105 1.624a1.683 1.683 0 00-1.056-.298c-3.56.25-6.227-2.975-8.412-5.344a131.582 131.582 0 01-8.142-9.705 2.7 2.7 0 00-.756-.681c-.112-.192-.233-.38-.343-.574l-.019-.037c-.008-.016-.02-.027-.027-.041-1.352-2.4-2.45-4.921-2.928-7.651-.23-1.304-.25-2.676.004-3.99.125-.116.245-.248.35-.41 1.065-1.644 2.83-2.73 4.73-3.102a5.336 5.336 0 002.34-.09 6.86 6.86 0 011.169.244c1.846.559 3.611 1.945 5.09 3.154 1.605 1.31 2.955 2.773 3.809 4.678.341.76 1.273 1.069 2.076.938.281.064.556.072.82.03a.828.828 0 00.446-.125c.551-.22.995-.672 1.194-1.301a9.393 9.393 0 00.416-3.33l.173-.577c.101-.333-.066-.715-.355-.905-.206-1.08-.558-2.138-1.003-3.17a52.666 52.666 0 00-7.91-19.71l1.622.618c1.276.487 2.587 1.13 3.942 1.35 1.124.183 2.174-.078 2.99-.701.714.325 1.562.356 2.242-.108a19.115 19.115 0 004.286-4 6.85 6.85 0 001.067-1.5 2.8 2.8 0 00.231-.613 24.114 24.114 0 002.533-5.464c2.69-2.39 3.511-6.292 3.441-9.953 2.772 3.319 6.848 5.473 11.175 5.948 5.599.617 10.991-2.023 14.364-6.452a16.351 16.351 0 002.255-4.073c.29-.517.566-1.04.83-1.568 2.22 3.676 5.74 6.636 9.99 7.535 5.061 1.07 10.177-1.314 12.686-5.846.544-.983.916-2.041 1.122-3.124.34 1.889.938 3.527 2.431 5.02.644.644 1.462 1.215 2.355 1.665 1.492 1.37 3.356 2.272 5.731 2.344 2.876.088 5.325-1.668 6.71-4.102 1.055-1.853 1.442-3.912 1.561-6.005 2.077 3.07 5.7 5.125 9.463 4.874 3.912-.261 7.293-2.787 8.953-6.208a8.103 8.103 0 002.621.892c.082.039.16.087.243.123-4.288 5.383-3.986 13.344-2.62 19.747 1.602 7.525 5.044 14.483 7.857 21.595 1.623 4.1 3.05 8.286 3.852 12.63.017.09.054.156.09.224a82.307 82.307 0 01.166 16.166m-53.166 51.449c-.763.768-1.98 1.147-3.007 1.404-1.096.274-2.359.403-3.418-.082-1.12-.513-1.592-1.711-2.351-2.603-.341-.4-.736-.691-1.167-.982-.656-.443-.587-.887-.608-1.636-.082-2.8-.163-5.6-.243-8.401a436.517 436.517 0 0010.48 3.51.792.792 0 00.035.313c.472 1.46.8 2.959.919 4.49.097 1.258.337 3.006-.64 3.987M106.456 3.692a9.546 9.546 0 01-2.403 1.297c.754-.504 1.56-.94 2.403-1.297m30.34 69.749c.025-.028.049-.06.074-.087-1.056 1.387-2.542 2.344-4.326 2.428 1.603-.374 3.12-1.11 4.251-2.341m6.784-5.025a9.634 9.634 0 01-2.386-3.011 26.27 26.27 0 002.386 3.01m27.922 48.319c-3.512-12.923-11.905-24.714-11.644-38.433.073-3.86 1-7.871 3.623-10.796.433.053.872.068 1.306.026 3.37-.32 5.95-3.04 7.167-6.038 1.464-3.607 1.529-7.916 1.356-11.753-.124-2.762-.576-5.584-1.627-8.16-.383-1.36-1.1-2.578-2.029-3.6-1.642-2.177-3.861-3.93-6.448-4.768-.013-.033-.029-.065-.04-.098.439-2.15.736-4.482-.35-6.48a5.09 5.09 0 00-1.571-1.764c-.492-2-1.3-3.782-2.702-5.248a6.68 6.68 0 00-1.721-2.295 6.537 6.537 0 00-4.578-1.527 10.445 10.445 0 00-2.16-3.106c-3.24-3.241-9.392-4.51-13.33-1.72-.293.208-.588.422-.885.636-.74-2.75-2.68-5.016-5.165-6.425-.194-.154-.38-.316-.589-.457-2.072-1.411-4.778-1.98-7.206-1.386a10.94 10.94 0 00-1.879-1.472 4.362 4.362 0 00-1.93-1.321c-.81-.271-1.663-.337-2.519-.323-1.941-.302-3.964-.131-5.84.592-.188.03-.377.05-.564.085-3.48.642-7.014 2.145-9.404 4.714-1.454.018-2.847-.333-3.912-1.167-3.177-2.487-6.488-3.485-9.773-2.86-3.447.316-5.918 2.658-8.364 4.963l-2.666 2.174c-2.549-1.43-5.084-2.918-7.712-4.18-2.522-1.21-5.355-2.051-8.118-1.15-5.303 1.727-7.258 7.257-8.518 12.199-3.996-2.398-8.986-3.045-13.466-1.712-1.496.445-2.89 1.135-4.172 1.985a14.964 14.964 0 00-5.922 4.757c-2.415 3.254-3.413 7.167-2.953 10.913-.7.282-1.52.435-2.058.646-1.099.43-2.157.957-3.15 1.597a18.612 18.612 0 00-6.066 6.396 15.206 15.206 0 00-2.966 5.578c-1.464 5.099-.23 9.986 2.553 14.048-3.438.86-6.656 2.589-9.06 5.223a14.553 14.553 0 00-3.542 7.047c-1.482 3.949-.968 8.6 2.357 11.652.175.162.36.306.542.455C.434 86.027-.495 90.96.23 94.503c.718 3.505 2.888 6.61 5.862 8.523a10.177 10.177 0 00-1.225 1.74c-.016.023-.035.043-.05.066a5.07 5.07 0 00-.68 1.523c-1.725 4.716-.276 11.03 4.612 13.419 1.141.557 1.255.379 1.712 1.09 1.047 1.63 2.319 2.806 3.698 3.629-.979 1.13-1.472 2.71-1.077 4.489.01.049.024.096.035.144-.035.302-.072.604-.086.906-.168 3.836 1.481 7.412 3.388 10.639 2.075 3.518 4.168 7.153 6.593 10.444 2.183 2.963 5.116 5.625 8.909 6.119 3.023.392 6.276-1.052 7.638-3.764a11.373 11.373 0 002.129 1.439c1.008 1.422 2.521 2.627 3.735 3.57 2.25 1.749 4.837 3.122 7.634 3.73 5.1 1.113 10.773-.536 13.813-4.924a32.793 32.793 0 002.493 2.454c6.328 5.554 14.365 8.604 22.203 11.343 4.617 1.615 9.233 3.265 13.858 4.88l.238 8.242c.033 1.16-.13 2.514.837 3.353.386.336.86.547 1.219.915.397.407.681.903 1.011 1.363 1.385 1.93 3.4 2.525 5.7 2.17 1.986-.306 4.567-1.186 5.418-3.184.553-1.298.424-2.884.297-4.255a21.42 21.42 0 00-.752-3.955c6.785 2.029 14.36 3.41 21.031.474 7.305-3.215 10.428-10.8 14.696-17.038a.768.768 0 00.44-.207c6.736-6.431 13.869-13.578 16.232-22.786a.865.865 0 00.595-.726c.948-7.663.809-15.395-.363-23.025-.054-.35-.27-.52-.523-.57" fill="#231F20" mask="url(#b)"/></g><path d="M266.44 187.337a41.638 41.638 0 01-.679 3.128.995.995 0 00-.417-.055 57.9 57.9 0 00-19.122 4.76 13.035 13.035 0 01-2.815-4.815.843.843 0 00.032-.739c-1.439-3.399-2.94-6.956-3.11-10.693-.16-3.566 1.151-6.829 2.891-9.875 1.662-2.911 3.467-5.925 5.653-8.474a17.92 17.92 0 011.525-1.57c-.3 1.266-.292 2.651-.164 3.866.338 3.216 1.663 6.248 3.577 8.836a28.531 28.531 0 006.501 6.349c1.981 1.388 4.46 2.104 6.621 1.066a36.664 36.664 0 01-.494 8.216m2.023-10.063a39.446 39.446 0 00-3.979-13.893 16.003 16.003 0 00-1.702-3.611.84.84 0 00-.3-.281 16.648 16.648 0 00-.756-1.452c-.863-1.453-2.146-2.79-3.69-3.405a.723.723 0 00-.656-.354c-.199.002-.39.024-.585.037a4.725 4.725 0 00-1.72.103.747.747 0 00-.402.255c-4.46 1.237-7.634 5.245-10.109 9.08-3.276 5.077-6.548 10.346-5.749 16.644.373 2.934 1.398 5.709 2.524 8.429.002.017-.004.03-.002.045.475 2.885 1.833 5.434 3.736 7.439.081.608.761 1.204 1.512.864a55.121 55.121 0 0118.76-4.764c.831-.059 1.116-.923.865-1.496.253-.075.505-.152.761-.221.15-.04.287-.048.431-.073a38.644 38.644 0 001.061-13.346m30.154 7.701c-1.639-3.401-2.072-7.682-2.468-11.077-.563-4.82-.549-10.03 1.176-14.577.754 3.617 2.68 7.058 6.123 8.703 3.014 1.439 7.433 1.328 9.662-1.274.496 2.232.784 4.518 1.012 6.783.23 2.285.332 4.612.153 6.91-.048-.003-.085-.024-.137-.023a32.352 32.352 0 00-15.52 4.555m17.337-9.131c-.197-3.408-.623-6.886-1.418-10.208a28.176 28.176 0 00-.306-1.157.697.697 0 00-.112-.384c-.932-3.118-2.442-6.11-4.937-8.255a12.83 12.83 0 00-3.574-2.188c-.13-.102-.256-.207-.389-.305-1.026-.75-2.268-1.521-3.593-1.374a2.7 2.7 0 00-1.08.368c-.274-.148-.615-.146-.897.154-5.004 5.306-5.944 12.845-5.31 19.829.308 3.41.756 6.912 1.693 10.213.386 1.36.891 2.727 1.575 3.986a4.18 4.18 0 01.512-.355c.184.549.776.97 1.416.584a30.255 30.255 0 0114.603-4.332.925.925 0 00.833-.535c.281.004.562-.004.841.013.252-2.006.26-4.05.143-6.054m-62.074-30.165a43.186 43.186 0 01-18.02 10.734c-1.23.37-.705 2.3.532 1.929a45.321 45.321 0 0018.902-11.25c.914-.907-.5-2.322-1.414-1.413m56.889 2.871c-4.61-.445-9.01-2.177-12.746-4.9-.44-.322-1.11-.072-1.368.358-.301.503-.075 1.052.359 1.368 4.03 2.94 8.797 4.695 13.755 5.175.538.052 1-.497 1-1 0-.585-.46-.948-1-1m-17.411 45.905c-2.041-2.717-4.134-5.396-6.188-8.104-1.986-2.617-4.385-6.168-2.517-9.489.52-.926-.902-1.757-1.422-.832-1.658 2.948-.715 6.328.998 9.02 2.083 3.271 4.683 6.273 7.036 9.354 1.343 1.76 6.009 8 1.414 8.763-1.946.323-3.975-.496-5.758-1.177a46.191 46.191 0 01-5.41-2.497c-.932-.502-1.765.92-.83 1.422 2.778 1.497 5.804 2.948 8.893 3.668 2.418.563 5.899.428 6.555-2.559.608-2.762-1.2-5.476-2.771-7.569m4.048 27.899c-.6.413-1.29-.772-1.644-1.232-.608-.79-1.211-1.665-2.012-2.165-.852-.531-1.811-.472-2.585.24-1.01.93-1.298 3.001-2.661 3.282-1.576.326-1.952-1.555-2.946-2.551-.881-.883-1.97-.869-2.88-.076-.986.857-1.527 2.558-2.684 3.091-1.72.793-3.167-1.195-2.697-3.254.284-1.24-1.276-1.77-1.56-.531-.647 2.83.882 5.787 3.315 5.947 1.124.073 2.153-.493 2.939-1.464.54-.667 1.542-2.925 2.474-2.246.432.315.703 1.04 1.015 1.51.35.529.754.95 1.26 1.233a2.956 2.956 0 003.154-.17c1.02-.712 1.277-2.052 2.074-2.993.713-.84 1.418 0 1.964.668 1.15 1.409 2.473 3.69 4.29 2.438.909-.627.095-2.356-.816-1.727" fill="#231F20"/></g></svg>