<svg width="500" height="600" xmlns="http://www.w3.org/2000/svg"><g fill="none" fill-rule="evenodd"><path d="M8.14366913 15.6045653C8.07094579 15.7564457 8.00132532 15.9109186 7.93461378 16.0662557 7.90940303 16.1706059 7.88477406 16.2753883 7.86072688 16.3803866 7.83706755 16.4786876 7.81399001 16.5772046 7.79207605 16.6761537 7.78044032 16.6752895 7.76899851 16.6746413 7.75736278 16.6746413 7.59543216 16.6746413 7.45425192 16.7768311 7.34235496 16.917045 7.28281879 16.8891751 7.22270083 16.8712432 7.16491002 16.8671384 7.0566977 16.8595768 6.96264219 16.86541 6.85501166 16.8805332 6.73923611 16.8965206 6.62249092 16.9135883 6.50671537 16.9304399 6.23308171 16.9708405 5.95964197 17.0216113 5.68697795 17.0721661 5.16724853 17.1674424 4.64984625 17.2746012 4.13787398 17.4148151 3.88479678 17.4839498 3.6324953 17.5725287 3.3955142 17.6941626 3.37903024 17.7023723 3.36215843 17.7140388 3.34528661 17.7282979 3.322403 17.7071254 3.29816189 17.6876812 3.27198149 17.6706136 3.03189753 17.5118197 2.76291816 17.6308611 2.6289133 17.8950854 2.4947145 18.1599579 2.39328969 18.3896148 2.36070964 18.6992088 2.35081927 18.7996702 2.34015318 18.897539 2.33103852 18.9971363 2.31979065 19.1263318 2.30757313 19.2546631 2.29710097 19.3836426 2.26820556 19.7059833 2.24105552 20.0276759 2.21293583 20.3491524 2.16290217 20.9255632 2.1167471 21.5028382 2.07059202 22.0801132 1.98041509 23.1882134 1.87724492 24.3012826 1.71589608 25.4000927 1.54407509 26.5663092 1.37593874 27.7368467 1.17056805 28.8972299 1.07515503 29.4349685.967524499 29.9698985.862996827 30.5059087.782710267 30.9185567.716774445 31.332933.641723964 31.7464451.607786409 31.9311645.578115289 32.116964.541850586 32.3008192L.559692044 32.2232587C.483090133 32.6216476.460982239 33.0174439.526724133 33.440246.578115289 33.7656114.704750853 34.2985969 1.00747385 34.4861249 1.00824957 34.5766482 1.01096457 34.6669554 1.01678244 34.7566145 1.01367957 35.0960229 1.0621618 35.425061 1.16145339 35.7458894 1.27276857 36.0673659 1.43489312 36.3804166 1.76825688 36.4309713 1.77135975 36.4318355 1.77426868 36.4318355 1.77737154 36.4326997 1.84369522 36.4428539 1.90614032 36.4268665 1.96431899 36.3938114 1.95016218 37.4042588 1.93910824 38.4149221 1.91971535 39.4245053 1.89780138 40.554426 1.87957207 41.6845629 1.85920953 42.8144837 1.84931916 43.3377472 1.8402045 43.8610107 1.82507805 44.38341 1.81984197 44.5791477 1.81150303 44.7742373 1.80452159 44.969975 1.79482514 45.2603409 1.82585376 45.5504907 1.86076096 45.838264 1.97808794 46.7869222 2.48113948 47.5067876 2.98263959 48.2426404 3.2425043 48.6241777 3.50605366 49.0022582 3.79248663 49.3591663 4.11576609 49.7625243 4.43167625 50.1693389 4.73478711 50.5912769 5.2938841 51.3677463 5.82408568 52.1813757 6.30289611 53.0217948 6.53541685 53.431202 6.74156326 53.8607016 6.9519761 54.2835037 7.15482572 54.6922628 7.3520514 55.1038305 7.54345921 55.5186389 7.64759903 55.7552093 7.7507692 55.9926439 7.84831543 56.2331031 7.97398135 56.5426971 8.0777333 56.8609329 8.20960495 57.1672862 8.36862664 57.536941 8.52473939 57.9353299 8.77005944 58.245788 8.9550676 58.480414 9.14356648 58.7074784 9.38229294 58.8736178 9.44590162 58.9174751 9.51862495 58.9462093 9.58902114 58.9714867 9.79962791 59.048399 9.9982111 59.1201263 10.2169629 59.151237 10.3329324 59.1674404 10.4541379 59.1538295 10.568556 59.1335212 10.6792894 59.1145091 10.7896349 59.0708678 10.8953261 59.0252821 10.9575773 59.1430272 11.0198285 59.2605563 11.0820797 59.3783013 11.3056797 59.8002393 11.5405276 60.2137514 11.7813872 60.6240228 11.8927024 60.8139273 12.0047933 61.0046959 12.1184356 61.192872 12.1820443 61.2974383 12.2448773 61.4020046 12.3146917 61.5016018 12.4554841 61.7059814 12.6744298 62.046902 12.9501967 61.9946189 13.036495 61.9641564 13.1229873 61.9328297 13.2092857 61.9017191 13.4032145 61.7303946 13.5372194 61.5126202 13.6114942 61.2477477 13.8987029 60.3487802 13.8478935 59.3445982 13.7425901 58.4121435 13.7084586 58.114216 13.67743 57.8145601 13.6403896 57.5166326 13.5608787 56.8751919 13.4835011 56.2331031 13.4078688 55.5907982 13.282009 54.5189938 13.1175573 53.4556152 12.9350702 52.393965 12.8177432 51.7129879 12.6977012 51.0317947 12.5836711 50.3497374 12.5869678 49.9293118 12.5844468 49.5095343 12.5759139 49.0908371 12.5516728 47.8915656 12.5388735 46.6948866 12.4752648 45.4973434 12.4168922 44.3892432 12.3751975 43.2811431 12.3335028 42.1723948 12.2873477 40.943525 12.2586462 39.714007 12.2002736 38.4851371 12.1382164 37.1577502 12.0170108 35.8327399 11.8994899 34.5103221 11.8009741 33.4004936 11.694895 32.2923934 11.5897855 31.1842933 11.4806035 30.0433542 11.4131163 28.8989583 11.2988922 27.7597475 11.1730323 26.5038719 11.0745164 25.2397865 10.9079315 23.9899602 10.8200817 23.3357728 10.7335894 22.6809373 10.6405036 22.027614 10.5912456 21.6834527 10.5404363 21.3399395 10.4843908 20.9972905 10.4353268 20.6937458 10.3697788 20.3951702 10.2995766 20.0972427 10.1770135 19.526017 10.0548383 18.9550073 9.92509991 18.385726 9.93149956 18.4133799 9.93789921 18.4410338 9.94429887 18.4689037 9.90900381 18.3139987 9.87332089 18.1588776 9.83725012 18.0039726 9.80816079 17.8758573 9.77868359 17.7479581 9.74901247 17.6200588 9.59367543 16.9384336 9.46510058 16.2151114 9.14201505 15.6002444 9.03147558 15.3911118 8.86935103 15.2729346 8.65583532 15.2459289 8.43766532 15.2804963 8.25420859 15.3716677 8.14366913 15.6045653M44.502873 50.2667325C44.5022912 50.2614965 44.5020973 50.2562604 44.5019034 50.2506365 44.5022912 50.2576179 44.502873 50.2644054 44.5032609 50.2711929 44.5032609 50.2696415 44.5030669 50.268284 44.502873 50.2667325M45.8460245 42.7405463C45.8627024 42.809585 45.8793803 42.8792054 45.8960582 42.9482441 45.8952824 42.951153 45.8945067 42.9534802 45.893731 42.9565831L45.8846164 42.9746184C45.880156 42.9845088 45.874726 42.9943992 45.8694899 43.0042896 45.8619267 42.9164398 45.8543634 42.82859 45.8460245 42.7405463M41.0713013 35.4092585C41.0841006 35.5644016 41.0963181 35.7205144 41.1091175 35.8758514 41.0963181 35.7205144 41.0841006 35.5651774 41.0713013 35.4092585M40.6060659 13.2596704C40.5849277 13.2724697 40.5643712 13.2870144 40.5447844 13.3021408 40.4295906 13.2914748 40.316724 13.290699 40.2152992 13.3194005 39.9887903 13.3845606 39.9364295 13.4247039 39.7758563 13.6081606 39.6744315 13.7239362 39.6228464 13.8680253 39.5545835 14.0043574 39.457619 14.199062 39.4190272 14.6580916 39.4236815 14.8632684 39.4296933 15.0913288 39.4516072 15.3162863 39.4706123 15.5435709 39.4888416 15.7617409 39.5076527 15.9806867 39.5282091 16.1996324 39.5842546 17.1685011 39.6038414 18.1389213 39.6577536 19.10779 39.7205866 20.217645 39.8470282 21.3267244 39.9721124 22.4311494 40.0091528 22.7590831 40.0469689 23.0864351 40.0857547 23.4135931 40.1295826 24.267462 40.202306 25.1188099 40.2789079 25.9703516 40.3432923 26.6725681 40.4001134 27.3755604 40.4577103 28.0777769 40.4569346 28.0717651 40.4561589 28.0649776 40.4553832 28.0579961 40.6417488 30.6746786 40.8552645 33.2872886 41.1106689 35.8985411 41.1833922 36.8076798 41.2553398 37.7174002 41.334075 38.6265388 41.4855334 40.6232307 41.6150779 42.6208921 41.7325988 44.6193294 41.7917471 45.6139906 41.8340236 46.6102033 41.8879359 47.6054464 41.9499931 48.7418697 41.9901364 49.8812019 42.1462492 51.0098681 42.239335 51.6855163 42.3196216 52.4544444 42.8696039 52.9256916 43.0051602 53.0424367 43.1740723 53.0187774 43.3226218 52.9749495 43.4649656 52.9324791 43.6278659 52.8915601 43.7490714 52.7992499 44.1082277 52.5242588 44.3376456 52.1121599 44.4415915 51.6750441 44.4861951 51.6612752 44.5339016 51.6393612 44.5922742 51.6075569 44.7043651 51.5462754 44.7831003 51.4151794 44.8740529 51.3197664 44.8300311 51.3659215 44.7854274 51.4120766 44.7408238 51.4590074 45.9232082 50.2227107 46.8125661 48.7418697 47.9776909 47.4896709 48.3223025 47.1411806 48.6762227 46.8002536 49.0057079 46.4374127 49.3586585 46.0487792 49.6586665 45.6291171 49.9578988 45.1987889 50.2441378 44.7859143 50.5146686 44.3633432 50.7797694 43.9366997 51.1016913 43.4208488 51.3336303 42.8413893 51.5706114 42.2822923 51.7645403 41.8248141 51.9540088 41.3671419 52.1190423 40.8974461 52.2751551 40.45587 52.3911245 40.0013007 52.5167904 39.5498343 52.6804664 38.9643629 52.8592689 38.4075931 52.8493785 37.7908992 52.8433667 37.4181679 52.7948845 37.0529998 52.6661157 36.7023764 52.6531225 36.6682449 52.6418746 36.6341134 52.6319842 36.5999819 52.6017313 36.4909939 52.5623637 36.3849148 52.5259051 36.2772842 52.4099356 35.9334483 52.3275159 35.5766192 52.2334603 35.2258018 52.1130305 34.7714264 51.9941521 34.3168571 51.874498 33.8615121 51.765316 33.4191603 51.6683516 32.9737056 51.5593635 32.5313538 51.4088747 31.9125267 51.2477198 31.2964146 51.0859831 30.6804965 51.0875345 30.6861204 51.088892 30.6917444 51.0904435 30.6973683 51.0881163 30.6884476 51.0857892 30.6797208 51.083656 30.6708 51.0733777 30.6324021 51.0632934 30.5940042 51.0532091 30.5556063 51.0568938 30.5689874 51.0603845 30.5821745 51.0640691 30.5955556 50.8177794 29.6462737 50.5641205 28.6985432 50.29262 27.7550792 50.0441971 26.8868596 49.7639699 26.0287242 49.5231102 25.1574017 49.2215508 23.9106329 48.9095192 22.6675487 48.6095112 21.4213617 48.4330359 20.684238 48.2542335 19.9486657 48.0496385 19.2183295 47.8958529 18.6646625 47.7261651 18.1139045 47.5739309 17.5594618 47.3117391 16.4821868 47.1117984 15.3845493 46.9269841 14.2921478 46.897313 14.1168361 46.8092693 13.8191553 46.6581987 13.6349228 46.5616221 13.6419043 46.4621366 13.6351167 46.3626511 13.6149481 46.3467489 13.6118453 46.3316224 13.6089363 46.3157203 13.6050578 46.2664623 13.599046 46.2172044 13.5922585 46.1679465 13.5860527L46.2201133 13.5930342C46.0391777 13.5695688 45.8588238 13.5453277 45.6784699 13.5187594 45.4331499 13.5057662 45.1868602 13.5051844 44.9430916 13.5232198 44.731903 13.563557 44.5205205 13.5779077 44.3087502 13.5782956 44.2938177 13.7095854 44.2878059 13.8424267 44.2891634 13.9746862 44.2044165 13.8998297 44.1043491 13.8513475 43.9862465 13.8565835 43.7128067 13.8688011 43.5460279 14.0648632 43.4271495 14.2853603 43.3945694 14.1104365 43.3507415 13.9360944 43.2991564 13.7718366 43.2710367 13.680884 43.2370992 13.5940038 43.1985073 13.5092569 42.8087102 13.4718286 42.4210464 13.4208253 42.0335765 13.364392 42.0070082 13.4155892 41.98044 13.4757072 41.9515445 13.5513395 41.9461145 13.5656902 41.9408785 13.5808167 41.9356424 13.5951674 41.8196729 13.5013058 41.6841166 13.4567022 41.5326581 13.4171407 41.4234762 13.3884392 41.312161 13.372537 41.2008458 13.3626467 41.0949606 13.2587008 40.9807365 13.1855896 40.8471195 13.1855896 40.7736205 13.1855896 40.6937218 13.2078914 40.6060659 13.2596704" fill="#BEBEBE" opacity=".7" transform="translate(225 112)"/><path d="M32.8162173 1.15860467C32.8233926 1.16403468 32.830568 1.16965862 32.8375494 1.17508863 32.830568 1.16965862 32.8233926 1.16403468 32.8162173 1.15860467M32.6348937 1.02110909C32.6521534 1.03429626 32.6694131 1.04767735 32.6866728 1.06086451 32.6694131 1.04767735 32.6521534 1.03429626 32.6348937 1.02110909M32.5530557.957500416C32.5623643.964869714 32.5718668.972239012 32.5813694.97960831 32.5786544.977475092 32.5759394.975341874 32.5732244.973208657 32.5664368.968166505 32.5596493.962930425 32.5530557.957500416M30.8292218.297366476C30.4481516.389676628 30.1807236.68968462 30.0981099 1.06765203 30.0094844 1.47606627 30.13069 1.90096446 30.3996694 2.21609891 30.6861023 2.55178982 31.0974255 2.76608124 31.4920708 2.95477405 32.0775421 3.23422558 32.6889999 3.47818812 33.3025909 3.68957061 33.8797233 3.88873558 34.4690732 4.06230194 35.0714163 4.17051426 35.7199145 4.28725945 36.3736488 4.3970232 37.0310677 4.45229293 37.684802 4.50698088 38.3371788 4.55158453 38.9932402 4.58047993 40.2225555 4.63497395 41.4604036 4.59560638 42.6839009 4.4681951 43.6254257 4.37045494 44.5686958 4.19553108 45.4768648 3.92655172 45.9170834 3.79642543 46.3367455 3.60249654 46.7624194 3.43280876 46.9594512 3.3538797 47.1570647 3.27592029 47.3556479 3.20242124 47.4539698 3.16615654 47.55171 3.12892219 47.6494502 3.09265749 47.8282526 3.02594595 48.0198543 2.96466442 48.148817 2.81689061 48.2004021 2.7577423 48.241709 2.69277612 48.2696347 2.62393136 48.320638 2.56458912 48.358842 2.49380508 48.3865739 2.41914246 48.4645333 2.20543282 48.3427459 1.95177383 48.1540531 1.84123437 47.8404701 1.65777764 47.4403948 1.83211971 47.1215757 1.92229664 46.6920232 2.04369613 46.25898 2.15326595 45.8255489 2.26070255 45.6793266 2.27660472 45.5329103 2.29076153 45.3859122 2.29871262 45.0556513 2.31694193 44.7261661 2.33575303 44.3959052 2.34564341 43.7398437 2.36619987 43.084558 2.38578669 42.4279148 2.39800421 41.8430253 2.40847637 41.2560025 2.4100278 40.671113 2.40013743 40.035608 2.38966527 39.403012 2.37744775 38.7688645 2.33206839 37.5544818 2.24615789 36.3420384 2.1133166 35.1332796 1.97116672 34.8193088 1.92811451 34.5051439 1.88215336 34.1979606 1.80167287 33.9256844 1.73127669 33.6600018 1.63120938 33.3972282 1.528621 33.2153229 1.44174085 33.0485441 1.33314068 32.8871952 1.21271084 32.8010908 1.14541751 32.7134349 1.07986955 32.6263609 1.01373979 32.4014034.833579856 32.1824576.641396327 31.9344226.491295366 31.6976354.348563703 31.4117842.262459276 31.1296177.262459276 31.027999.262459276 30.9273499.273707152 30.8292218.297366476M19.4024128.183278111C19.2016964.186380973 18.9963257.222645675 18.7994879.26201324 18.4411073.333185142 18.1131735.47863181 17.7782583.621169543 17.7974573.61302453 17.8164623.604879517 17.8354673.596928432 17.0655696.925056113 16.328252 1.32862213 15.6239023 1.77931287 15.2496195 2.01881505 14.869325 2.24609971 14.4814672 2.46271828 14.3013073 2.56317344 14.1180445 2.65645324 13.9326484 2.74488481 13.8077582 2.78871274 13.6826741 2.83195888 13.557396 2.87481717 13.2535095 2.97856912 12.9505925 3.08619966 12.6422456 3.17773409 12.2960825 3.28012855 11.948368 3.37922621 11.6014293 3.48006923 10.7421303 3.7275225 9.86421427 3.89701635 8.98164389 4.03742086 8.93800989 4.0416873 8.89437589 4.04614766 8.85074189 4.0504141 8.32810353 4.10199918 7.80546517 4.17026215 7.28127539 4.20962972 6.72295411 4.25132443 6.16385712 4.2672266 5.60398442 4.28157733 5.35866437 4.28836484 5.11237469 4.29670379 4.86686071 4.28991628 4.72839548 4.2860377 4.58896061 4.28235305 4.45030146 4.27925019 4.3290959 4.27614732 4.20866606 4.28390448 4.08901194 4.30659416 4.0411115 4.31279988 3.99495642 4.32521133 3.95074064 4.34382851 3.80199718 4.31512703 3.65519301 4.27963804 3.50858277 4.23464654 3.40560653 4.2028422 3.303406 4.16871072 3.20256298 4.13070066 3.16028648 4.11479849 3.11781606 4.09889632 3.07456991 4.0853213 2.89964606 4.03005156 2.74430902 4.05584411 2.56860944 4.08008522 2.39058272 4.10355061 2.21178028 4.27323839 2.12548193 4.42023649 2.035305 4.57479781 1.98003526 4.81779071 2.05120716 4.99135707 2.11093726 5.13757945 2.12916658 5.21030279 2.24358462 5.32394511 2.30195722 5.38231771 2.38457093 5.43913887 2.46097891 5.48063966 2.5280783 5.51709829 2.59731092 5.54715727 2.66809496 5.57236802 2.864351 5.65789066 3.06913991 5.72363256 3.27606203 5.77851443 3.62978832 5.87315173 3.99728357 5.90805893 4.36090024 5.94820221 5.05167494 6.02616162 5.74943109 6.08220707 6.4456358 6.08744315 7.14184051 6.09287316 7.83882094 6.05195417 8.53424994 6.01471982 8.91435056 5.99435729 9.29542083 5.97535225 9.67280645 5.92240967 10.0189695 5.87315173 10.361254 5.81031877 10.7052839 5.74651616 11.4051732 5.6171656 12.1029294 5.4701675 12.7968069 5.30649151 13.4453051 5.15348162 14.0808101 4.95121379 14.7178665 4.75573347 15.4247373 4.53833918 16.1162877 4.28080162 16.8086139 4.02403977 17.1602069 3.89371955 17.5110243 3.75874505 17.8540845 3.60883802 18.1730975 3.46940314 18.4942438 3.33462257 18.8002636 3.16881337 19.1070591 3.00358595 19.4000856 2.82478352 19.6789554 2.61572817 19.8160631 2.51352765 19.9432804 2.40744854 20.0608013 2.28391584 20.1478754 2.19296319 20.2205988 2.08843552 20.2948735 1.98778643 20.4069644 1.83690975 20.4940385 1.67400948 20.5401936 1.48997097 20.6136926 1.1975262 20.5440721.887821766 20.3986255.630284201 20.2811046.421810645 20.0394692.264340387 19.8092756.218185311 19.6869064.193362413 19.5637616.182890253 19.440035.182890253 19.4276235.182890253 19.4148242.183084182 19.4024128.183278111M15.0895814 13.3124773C14.8813018 13.3155801 14.6827186 13.3716256 14.4866565 13.4336828 14.2948608 13.4936068 14.1040348 13.5541127 13.9132087 13.6148124 13.5206967 13.7389269 13.1291542 13.8669199 12.7374179 13.9927798 12.3881519 14.104095 12.0390799 14.2146344 11.689814 14.3245921 11.2980777 14.4487066 10.8974206 14.5487739 10.5019996 14.6600891 9.72395686 14.8782591 8.94067808 15.0768423 8.16263537 15.2934609 7.46953352 15.486614 6.78089203 15.6956694 6.09535341 15.9161665 5.62798479 16.0660736 5.1575133 16.2086113 4.69538076 16.3736448 4.41670494 16.4737121 4.1378352 16.5728097 3.85915938 16.6728771 3.58707715 16.7698415 3.32120065 16.8918228 3.05997843 17.0130283 2.92810679 17.0743099 2.79778657 17.1410214 2.67212065 17.2145204 2.59260981 17.2721173 2.51445646 17.3320413 2.43727277 17.3933229 2.37890017 17.4683734 2.32130329 17.5432299 2.26293069 17.6190561 2.19408594 17.7371588 2.15995445 17.8653458 2.15917874 18.0024535 2.15995445 18.1395612 2.19408594 18.2675543 2.26293069 18.385657 2.33041795 18.500075 2.4213706 18.5910277 2.53578864 18.658321 2.72351181 18.7690544 2.91298033 18.7727391 3.12125996 18.7349229 3.3000624 18.7031186 3.47886483 18.6379585 3.65456441 18.5894763 3.84093007 18.5378912 4.02807145 18.4849486 4.21443711 18.4325878 4.58716844 18.3280601 4.95989976 18.2227567 5.33243716 18.1166776 6.03096902 17.9167369 6.73706411 17.7350256 7.42861453 17.5100681 8.17330146 17.2668812 8.91953983 17.0266033 9.66345105 16.7805076 10.5080114 16.5000864 11.3473356 16.2099688 12.1858841 15.9122879 12.9482186 15.6413693 13.7029898 15.350282 14.4575671 15.0601644 14.7975245 14.9529217 15.1495054 14.8476183 15.4584341 14.6730823 15.7425399 14.513091 15.8796477 14.1609161 15.794125 13.8488846 15.7091842 13.5420891 15.4194544 13.3124773 15.09889 13.3124773 15.0957871 13.3124773 15.0926842 13.3124773 15.0895814 13.3124773M31.3018814 12.6556013C31.128315 12.7570261 30.9989645 12.9253564 30.945828 13.1192853 30.8905582 13.319226 30.9192597 13.5381717 31.0237874 13.7169741 31.1178429 13.8775473 31.2980028 14.0388961 31.4874713 14.0736094 32.077597 14.1804642 32.6708254 14.2586175 33.2646357 14.3404555 33.6850735 14.3970827 34.1039599 14.4327657 34.5267249 14.4676729 35.423646 14.5425294 36.31824 14.6305731 37.2136097 14.7213319 37.9864163 14.8002609 38.7613561 14.8826807 39.5370717 14.9311629 40.3573909 14.982748 41.1786797 15.0304545 41.9989989 15.0849485 42.7588123 15.1365336 43.5186257 15.1850158 44.2792148 15.2212805 44.6480676 15.2387341 45.0163385 15.255412 45.3844156 15.2684052 45.7245668 15.2796531 46.0579306 15.2903192 46.394979 15.2296195 46.5252992 15.1933548 46.6389416 15.1274189 46.7351303 15.0312302 46.8790255 14.8881107 46.9608635 14.6903032 46.9608635 14.486484 46.9608635 14.0730276 46.6102401 13.7070838 46.1898022 13.7154227 45.500385 13.7305492 44.8117436 13.6987448 44.1231021 13.6615105 43.3179093 13.6176825 42.5134923 13.564546 41.7088813 13.515482 40.8656785 13.4631212 40.0211182 13.4192933 39.1794668 13.351806 38.3453787 13.2843188 37.5136177 13.2011233 36.6810809 13.1161824 35.6887468 13.0155333 34.6948613 12.9309803 33.7002 12.8470091 33.0990204 12.7649772 32.4978409 12.6860482 31.900346 12.5776419 31.8249076 12.563873 31.7519904 12.555534 31.6808184 12.555534 31.5508861 12.555534 31.4263837 12.5830719 31.3018814 12.6556013M20.5209284 49.8767997C20.4978509 49.6733683 20.4850515 49.5029048 20.480979 49.3401985 20.4739976 49.1028295 20.5023112 48.8551823 20.5271341 48.6368184 20.5440059 48.5466415 20.565532 48.4585978 20.5915185 48.3750144 20.8199667 48.228792 21.0790557 48.1217433 21.3298058 48.0181853L21.3629676 48.0044163 21.4828157 47.9607823C22.0368705 47.7590963 22.6097365 47.5506227 23.1930746 47.4234053 23.5031669 47.3557242 23.8700803 47.2779587 24.2375756 47.2127986 24.5410743 47.1583046 24.8463183 47.1113738 25.1513685 47.064443 25.7030962 47.0033554 26.3568305 46.9352863 27.023558 46.8916523 27.6571237 46.8507333 28.3083369 46.8295951 28.9587744 46.8288194 29.2752663 46.8288194 29.6125087 46.8299829 29.9518842 46.8439458 30.1999193 46.8542241 30.4477604 46.8722594 30.6956015 46.8902948L30.8813854 46.9036759C31.0289653 46.9139542 31.1767391 46.9232627 31.3245129 46.9325713 31.8046808 46.9628242 32.3011388 46.9942407 32.7865428 47.0574615L32.7655985 47.0539708 32.7873185 47.0568797 32.7873185 47.0574615 32.8435579 47.0648308 32.8716776 47.0685155 32.8311464 47.0592069 32.9046455 47.0727819 32.979696 47.0824784 32.9849321 47.0840298 33.0303114 47.0900416 33.0462136 47.0921748C33.0452439 47.0919809 33.0444682 47.0917869 33.0442743 47.091593L33.0444682 47.091593 33.0648308 47.0927566 33.0644429 47.094308C33.0625036 47.0939202 33.05591 47.0925627 33.0535829 47.0925627 33.053195 47.0925627 33.0528072 47.0925627 33.0528072 47.0927566 33.0528072 47.0929505 33.0528072 47.0929505 33.0526132 47.0929505L33.0644429 47.094502 33.0881022 47.0976048 33.0679336 47.0910112C33.0679336 47.0910112 33.0906233 47.0937262 33.0904294 47.0937262L33.1088526 47.1005137 33.1470566 47.1055559C33.3619298 47.1344513 33.5845602 47.1643164 33.7905127 47.2316097 33.8130084 47.2436333 33.8356981 47.2564326 33.8576121 47.2702015 33.9101668 47.3182959 33.9594247 47.369881 34.0071312 47.424375 34.0907146 47.5378234 34.1867094 47.6747372 34.2652506 47.8277471 34.332156 48.0057738 34.3911104 48.1998966 34.4454105 48.4211695L34.3292471 48.4397867C34.2508998 48.4539435 34.1727465 48.4677124 34.0947871 48.482451 33.9012461 48.5189096 33.707705 48.5569197 33.514164 48.5947358L33.25236 48.646127C33.1045862 48.6546599 32.9572002 48.6604777 32.8088446 48.6604777L32.7822764 48.6604777C32.7479509 48.6604777 32.7140134 48.6604777 32.6791062 48.6610595L32.6560287 48.6610595 32.6329511 48.6610595C32.5557674 48.6610595 32.4783898 48.6606717 32.4019818 48.654272 32.2687527 48.6430241 32.136881 48.632358 32.0042337 48.6224677 31.9014513 48.6059837 31.7984751 48.5900815 31.6947232 48.5739855 31.5927166 48.5576954 31.4916796 48.5326786 31.3908366 48.5078557L31.2737035 48.4793482C31.0491339 48.4271813 30.8268914 48.367839 30.6048428 48.3084968L30.4305007 48.2619539C30.2125246 48.2035813 29.9935789 48.149669 29.7746332 48.0955629L29.5713957 48.0453353 29.36874 47.9935563C29.1777201 47.9441044 28.9803005 47.8929072 28.7834627 47.8574182L28.5538509 47.8159174 28.324433 47.7742227C28.1727806 47.7466848 28.0151164 47.7303948 27.8628822 47.7148805 27.7998553 47.7082869 27.7368284 47.7018872 27.6741894 47.6945179 27.4643584 47.6706647 27.2535577 47.6584472 27.0483809 47.6584472 26.977209 47.6584472 26.9064249 47.6598047 26.835447 47.6627136 26.4186938 47.6803611 25.970912 47.7722834 25.4666969 47.9439105 25.0061158 48.1004111 24.5802479 48.32149 24.0824324 48.6054019 23.7998781 48.7659751 23.516548 48.924221 23.2324421 49.0811095 22.9306888 49.2471126 22.619045 49.38519 22.2721063 49.5354849 21.8493413 49.6912098 21.3936084 49.7571456 20.9531959 49.8209482L20.8279178 49.8391775 20.751122 49.848874C20.6743261 49.8585704 20.5977242 49.8684608 20.5209284 49.8767997M21.2006492 41.7048303C20.8775636 41.7048303 20.611881 41.6922249 20.3640399 41.6652688 20.2019154 41.6381187 20.0793523 41.6121322 19.9666796 41.5812976L19.9940236 41.5650075 20.1006845 41.4862724C20.4036014 41.2617027 20.7493766 41.0452781 21.1579848 40.8251688 21.5759016 40.6004052 22.0184473 40.4089974 22.4464483 40.2239893L22.5488428 40.1797735C23.3984453 39.8623119 24.1665976 39.581115 24.9603485 39.3548L25.1100616 39.3113599C25.2485269 39.2704409 25.3920342 39.2281644 25.5353477 39.1957783L26.2943854 39.0253148C26.6242584 38.9502643 26.9659611 38.8963521 27.2964159 38.8439913L27.5184645 38.8086962 27.650724 38.792794 27.7827896 38.7768919C27.9743913 38.7685529 28.1663809 38.7619594 28.3583705 38.7549779 28.4016167 38.7534265 28.4436992 38.7528447 28.4855879 38.7528447 28.6195927 38.7528447 28.7541794 38.7594383 28.8881843 38.7660319 28.9649801 38.7699104 29.041582 38.7735951 29.11799 38.7761162 29.3646675 38.7842612 29.5890433 38.7962848 29.8043043 38.8125748 30.3554502 38.8538816 30.9003904 38.9093453 31.4069327 38.9632575L31.9045542 39.0295812 32.1948658 39.068367 32.1950597 39.0666216 32.1993261 39.0689488 32.2478083 39.0753484 32.3505907 39.0978442 32.4271926 39.1139403 32.6533137 39.1591257 32.8794347 39.2041172C33.0413654 39.2361155 33.2027142 39.2791677 33.3590209 39.3204746L33.4802264 39.3526668C34.0674431 39.5062584 34.5927965 39.6761401 35.0867334 39.8714265 35.3093637 39.9703303 35.5226855 40.0779608 35.720299 40.1910213L35.6923733 40.2127414C35.5195826 40.3318137 35.3184784 40.4439046 35.0774248 40.5550259 34.9928718 40.5856666 34.918597 40.6075806 34.8437405 40.6238706 34.4025522 40.6729346 33.9522494 40.7119143 33.516879 40.7497305 33.2634139 40.7716444 33.009561 40.7937523 32.756096 40.8176056 32.2926059 40.8620153 31.820583 40.8973104 31.3640744 40.9316358 31.1152636 40.9502529 30.8668407 40.9686762 30.6186117 40.9888448 30.0147172 41.0375209 29.401708 41.0968632 28.8090613 41.1540722 27.9887421 41.2335831 27.1404971 41.315615 26.303694 41.3706908 25.8378768 41.4015255 25.3656599 41.4443838 24.8998427 41.4979081 24.3934944 41.5570564 23.8842371 41.5944847 23.4531332 41.623574 22.9838253 41.6553784 22.5666842 41.6751591 22.1780508 41.6842738L21.9069382 41.6914492C21.6722842 41.6982367 21.4362728 41.7048303 21.2006492 41.7048303M28.4671646 37.1965654C28.4512625 37.1965654 28.436136 37.1965654 28.4210096 37.1973411L28.1551331 37.2064557 27.8877051 37.2155704C27.2892406 37.2363208 26.6837946 37.2960509 26.0981293 37.3538417L26.0639978 37.3571385C25.4639819 37.415705 24.8783166 37.5105362 24.2300123 37.6193303 24.132854 37.6358143 24.0356956 37.6569525 23.9389251 37.6782847 23.8879218 37.6895326 23.8369185 37.7005865 23.7859152 37.7110587L23.6699457 37.7339423C23.5828716 37.7506202 23.4956036 37.7672981 23.4102749 37.7897938L23.3169951 37.8144228C22.9237073 37.9179808 22.5170385 38.0252235 22.1253021 38.1679552 21.8150159 38.2814036 21.5266436 38.4076513 21.2683303 38.5430136 21.2210117 38.5678365 21.1733052 38.5918837 21.1254047 38.6159309 21.0296039 38.6642192 20.9336091 38.7125075 20.8416868 38.7664197L20.6588118 38.8736624C20.4788458 38.9787719 20.2926741 39.087372 20.1160049 39.2045051 19.8978349 39.3487882 19.6114019 39.5407778 19.3288475 39.7453728 19.0350452 39.9577249 18.7513273 40.1803553 18.4619854 40.4089974 17.5914386 41.0980268 16.8585813 41.9513139 16.3427305 42.8761607 16.1633462 43.1976948 16.0016096 43.5560754 15.8336671 44.0036633 15.6864751 44.39443 15.5867957 44.8224311 15.5198902 45.3501116 15.4805226 45.6574889 15.4584147 45.9557515 15.4417368 46.2070834 15.4155564 46.3517543 15.3944182 46.4960374 15.3789039 46.6356662 15.340312 46.9888107 15.3467117 47.3530092 15.3986846 47.749012 15.3986846 47.749012 15.3992664 47.7767438 15.3992664 47.7767438 15.4045025 47.986187 15.425059 48.2006723 15.4622933 48.4324174 15.4917705 48.6205284 15.547622 48.8082515 15.6434229 49.0403844 15.7417448 49.278723 15.8315339 49.4728459 15.9261712 49.6518422 16.024881 49.8382079 16.1631523 50.0061503 16.2969633 50.1686627L16.333034 50.2126846C16.4689782 50.377912 16.6349813 50.5369337 16.8401581 50.6986704 16.9697026 50.8241424 17.1343482 50.93953 17.35853 51.0617052 17.5225938 51.1656511 17.7083777 51.2535009 17.9263538 51.3299089 18.0911933 51.3876997 18.2684443 51.4065108 18.4400714 51.4247401 18.6078199 51.4429694 18.7623812 51.4520841 18.9177183 51.4610048 19.1566387 51.4743859 19.3755844 51.4807856 19.586579 51.4807856 19.9517471 51.4807856 20.2841412 51.4613927 20.6027664 51.4216373 21.1118297 51.3584164 21.5390551 51.3000439 21.9693833 51.2216966 22.2026797 51.1788383 22.428219 51.1220171 22.6401833 51.0525906 22.7708914 51.0097323 22.8992723 50.9509718 23.0233868 50.8943446 23.0681844 50.8737882 23.1129819 50.8534256 23.1577795 50.8336449L23.2049042 50.8127006C23.3520963 50.7469587 23.4990944 50.6814107 23.6441532 50.6110145 23.9323315 50.4694464 24.2234188 50.3148851 24.5092699 50.1517909L24.6679038 50.0612261C25.0043704 49.8688486 25.3520849 49.6700715 25.7114351 49.507947 26.0257939 49.3846082 26.3548912 49.2913284 26.6888367 49.2308226 26.8018973 49.2203504 26.9176728 49.2151144 27.0423691 49.2151144 27.3445103 49.2151144 27.637149 49.2451733 27.9610102 49.281632L28.0478904 49.2973402C28.2679997 49.3367078 28.4956722 49.3774328 28.7167511 49.4323147L29.1236139 49.5339335 29.5304767 49.6353583C29.8477444 49.7164205 30.165206 49.7982585 30.4826676 49.8830055 30.5924313 49.9126766 30.7016133 49.9400205 30.8121528 49.9656192 30.8565625 49.9760913 30.9013601 49.9873392 30.9459637 49.9985871 31.0470007 50.0237978 31.1513344 50.0501722 31.2546985 50.0664622L31.4922614 50.1031147 31.7296304 50.1399612C31.9010635 50.1665295 32.0763752 50.1801045 32.2458691 50.1934856L32.3645535 50.2027942C32.485953 50.2124906 32.6137522 50.2173389 32.7444602 50.2173389 32.8718715 50.2173389 33.0051007 50.2126846 33.1398812 50.2035699 33.3508759 50.1903827 33.5690459 50.1766138 33.7862462 50.1475245L34.0205123 50.1157201 34.255942 50.0839158C34.3463129 50.0713104 34.4376534 50.0497843 34.5260849 50.02884 34.5675857 50.0191435 34.6086986 50.0094471 34.6500055 50.0005264 34.7463882 49.9803578 34.842383 49.9563106 34.9383778 49.9324573 34.9932596 49.9186884 35.0481415 49.9051133 35.1030234 49.892314 35.1961093 49.8696244 35.2886133 49.8440257 35.3809235 49.8182332L35.5052319 49.7839078C35.5696163 49.7664542 35.6347764 49.7482249 35.6999365 49.7284441 36.1438397 49.6491272 36.5026082 49.5622471 36.8287966 49.4550044 37.0636445 49.3778207 37.2767723 49.2837652 37.4623623 49.1753589 37.5348917 49.1332764 37.6006336 49.0780066 37.6644362 49.0244823L37.7286266 48.9715397C37.7815692 48.9280996 37.8316029 48.8819445 37.880279 48.834238 38.0321253 48.6829735 38.1647727 48.4999046 38.2743425 48.340689 38.5388615 47.9594248 38.7300754 47.5952263 38.8586503 47.2275372 38.9689958 46.9155056 39.0580092 46.606189 39.1305386 46.3447729 39.2145098 46.0414681 39.2777306 45.7127586 39.3293157 45.3105501 39.3523932 45.133493 39.3642229 44.9531392 39.3754707 44.7786032L39.3807068 44.7006437C39.3983544 44.4386458 39.380125 44.1714118 39.3624775 43.9129046L39.3587929 43.8593802C39.3525871 43.7701729 39.3423089 43.6813535 39.3320307 43.592728L39.3178739 43.4639592C39.2744338 43.0518603 39.2183883 42.7204358 39.1412047 42.4206218 39.1090125 42.2957316 39.0688692 42.1729746 39.0287259 42.0506055L38.9829587 41.9092313C38.8751342 41.5729586 38.7486926 41.2613149 38.6069306 40.9830269 38.5805562 40.9308601 38.5516608 40.8784993 38.5221836 40.8276899 38.4882461 40.7475973 38.4533389 40.6680864 38.4170742 40.5891574 38.251071 40.2237953 38.0059449 39.8652208 37.6879016 39.523712 37.4179525 39.2332066 37.0960306 38.9964194 36.7337714 38.738494 36.4073891 38.5071368 36.0294217 38.3060325 35.5781492 38.1239333 35.4193214 38.0601307 35.2529304 38.0089335 35.0919694 37.9592877L35.0120707 37.9344648C34.7725686 37.8611597 34.5706886 37.8010417 34.3643482 37.7467416 33.702275 37.5689088 33.0398139 37.4806712 32.4793594 37.4178382L32.3849161 37.4071721C32.1300935 37.3784707 31.8665441 37.3487995 31.605128 37.3360002L31.4067387 37.3259159C31.2201792 37.3160256 31.0274138 37.3059413 30.8377514 37.3059413 30.7997413 37.3059413 30.7619252 37.3063291 30.7239151 37.3072988 30.6432407 37.309432 30.5625663 37.3109834 30.4818919 37.3125348 30.1944893 37.287518 29.9082502 37.2648283 29.6210415 37.2434962 29.4143133 37.2277879 29.2035126 37.2217761 28.9996934 37.2157643L28.7514644 37.2080072C28.7113211 37.2070375 28.67079 37.2049043 28.6300649 37.2025772 28.5757648 37.1996682 28.5210769 37.1965654 28.4671646 37.1965654" fill="#161616" transform="translate(225 112)"/><g fill="#161616"><path d="M44.6367643,57.8437768 C44.6393636,57.8604864 44.6415915,57.8768246 44.6438195,57.8935342 C44.6334224,57.8181555 44.6233967,57.7412915 44.613371,57.6659129 C44.6211688,57.7253246 44.6289665,57.7843651 44.6367643,57.8437768 M42.0315585,53.003946 C42.0445548,53.0329092 42.0568085,53.0618724 42.0690621,53.091207 C42.0564371,53.0626151 42.0441835,53.0332805 42.0315585,53.003946 M40.4619739,49.8621776 C40.3327533,49.9913982 40.2588599,50.1685195 40.2588599,50.3512107 C40.2588599,50.5149643 40.3256982,50.7340452 40.4619739,50.8398724 C40.7263563,51.0466996 40.9821982,51.260582 41.2005364,51.5149386 C41.5321283,51.9668393 41.7935401,52.458843 42.0174482,52.9716408 C42.2268746,53.5007768 42.4151357,54.0514496 42.5187349,54.6110342 C42.5614371,54.8494239 42.605996,55.085957 42.6505548,55.3239754 C42.6813746,55.553082 42.7121945,55.7818173 42.7422717,56.0105526 C42.7400438,55.9923577 42.7374445,55.9737915 42.7348452,55.955968 C42.8347313,56.8883614 42.9190217,57.8226114 43.0018268,58.7564901 C43.0816614,59.6543504 43.1002276,60.5566665 43.1031982,61.4574974 C43.1046835,62.3858063 43.0916871,63.3156004 43.069779,64.2439092 C43.0489849,65.1135489 42.9617239,65.9750195 42.8566393,66.8390893 C42.7211063,67.8260673 42.5729482,68.8100746 42.4403857,69.7977952 L42.4793746,69.5148467 C42.4184776,69.9574643 42.3590658,70.3982254 42.3011393,70.8393577 C42.3141357,70.7450415 42.327132,70.6507254 42.3401283,70.5549239 C42.2773746,71.0157364 42.2153636,71.4772915 42.1552092,71.938104 C42.0211614,72.8426482 41.8477533,73.7412511 41.6572643,74.6365121 C41.5555217,75.1151482 41.4452386,75.5937842 41.3293857,76.0694496 C41.2354408,76.4515415 41.1132754,76.8150673 40.9680879,77.177479 C40.8927092,77.3460599 40.8177018,77.5146408 40.7724004,77.6939901 C40.7534629,77.7637989 40.7389813,77.836207 40.7244996,77.9060158 C40.6940511,78.0523173 40.6546908,78.2338945 40.6546908,78.3746261 C40.6532055,78.7444643 40.8288415,79.1083614 41.1611761,79.2940232 C41.4701173,79.4666886 41.7976246,79.5190452 42.1459261,79.5535783 C42.6464702,79.6044496 43.146643,79.5944239 43.6486724,79.5695452 C44.1737239,79.5435526 44.6972901,79.513104 45.2223415,79.4956518 C45.4618452,79.4885967 45.7024629,79.5001077 45.9419665,79.5041923 C46.1172313,79.5056776 46.3058636,79.491196 46.4699886,79.4332695 C46.7410548,79.3404386 46.8613636,79.2565195 47.0834151,79.0793982 C47.2096651,78.9516629 47.2980401,78.8023908 47.3459408,78.6297254 C47.4183489,78.3671996 47.3808452,78.0801665 47.2430842,77.8436335 C47.0221467,77.4659974 46.5940107,77.2885048 46.1736724,77.3597989 C45.8131173,77.3895048 45.4562754,77.4463173 45.0983195,77.4994165 C44.763757,77.5410048 44.4280805,77.5833357 44.092404,77.6130415 C43.7325915,77.6438614 43.3724077,77.6780232 43.0118526,77.6928761 C43.146643,77.3984165 43.2606393,77.092446 43.3453011,76.7831335 C43.590746,75.8882438 43.7923746,74.9848136 43.966154,74.0735857 C44.0589849,73.5878945 44.1492165,73.1033173 44.2171688,72.6146555 C44.2940327,72.0576702 44.3593857,71.5006849 44.4303085,70.9436996 C44.5420768,70.0703467 44.6334224,69.1943945 44.7466761,68.3195563 C44.8599298,67.4465746 44.9627864,66.5702511 45.0207129,65.689843 C45.0511614,65.2401702 45.0626724,64.7964386 45.0671283,64.3452805 C45.0700989,63.9045195 45.042621,63.4593026 45.0296246,63.0181702 C45.0077165,62.2086849 44.9902643,61.3980857 44.9338232,60.591571 C44.8684702,59.6706886 44.7581871,58.758718 44.6367643,57.8437768 C44.5079151,56.8917033 44.3675548,55.9437143 44.1867202,54.9983246 C44.0563857,54.3154607 43.8358195,53.6377952 43.5848048,52.9924349 C43.3412165,52.3660121 43.0437864,51.7637254 42.6810033,51.1981996 C42.5113085,50.9327033 42.3171063,50.6816886 42.1095364,50.4440415 C41.9168195,50.2219901 41.6687754,50.0422695 41.4381835,49.8621776 C41.2859408,49.7448393 41.150779,49.6605489 40.9491504,49.6605489 C40.7664592,49.6605489 40.5897092,49.7348136 40.4619739,49.8621776" transform="translate(206 66.149)"/><path d="M48.4083717,34.3599401 C48.5576437,34.3469437 48.7072871,34.336918 48.8580445,34.326521 C49.1539893,34.3060982 49.5223423,34.2815908 49.8691585,34.238146 L49.9211438,34.2307195 C50.9552798,34.1074401 52.0228349,33.9800761 53.055857,33.7390871 L53.0933607,33.7290614 C53.9592871,33.5274327 55.0372393,33.2734474 56.0554085,33.0079511 C56.0698901,33.0038665 56.0843717,32.9994107 56.0988533,32.9964401 C55.9191327,33.1910136 55.7464673,33.4041533 55.5663754,33.6406864 C55.1820555,34.1423445 54.8181585,34.6428886 54.5816254,35.2477746 C54.4683717,35.5333224 54.4089599,35.8337232 54.3844526,36.2250982 C54.3740555,36.3528335 54.4189857,36.5604033 54.4668864,36.7096754 C54.5277835,36.9127893 54.6280408,37.0910246 54.7917945,37.2841129 C55.025357,37.5611202 55.3287283,37.6799437 55.6491805,37.8061937 C55.8274158,37.8774879 56.0279305,37.9019952 56.2191621,37.9265026 L56.311993,37.9368996 C56.5121364,37.961407 56.7107945,37.9744033 56.9153937,37.9744033 C57.2997136,37.971804 57.6550702,37.9005099 57.9989158,37.8325577 L58.0887761,37.8136202 C58.3791511,37.7568077 58.698118,37.6799437 59.0924636,37.5726313 C59.4972062,37.4623482 59.8960077,37.3275577 60.2703018,37.1987085 C60.859221,36.9941092 61.4132357,36.7909952 61.9676217,36.5793408 C62.5940445,36.3368665 63.2163827,36.0873371 63.8372357,35.8322379 C63.7499746,36.383282 63.6950188,36.8244143 63.6560298,37.2566349 C63.5877063,37.9558371 63.6601143,38.692543 63.8572871,39.3323335 C64.0344085,39.9078849 64.2055886,40.3824364 64.3986768,40.8231974 C64.6741989,41.4555614 65.0395813,42.0415099 65.3949379,42.579929 C65.8256732,43.2297452 66.2708901,43.779304 66.7584379,44.2579401 C67.1906585,44.6845908 67.6822908,45.0644548 68.1509011,45.411271 L68.887607,45.9608298 C69.4011474,46.3466349 69.9551621,46.6061901 70.6283717,46.8791129 C71.3535665,47.1706018 72.1192357,47.3662893 72.7070408,47.5029364 C72.9751364,47.5653188 73.2450886,47.6217599 73.5176401,47.6681754 C73.5105849,47.9177048 73.5016732,48.1742893 73.4931327,48.4297599 L73.4886768,48.5820026 L73.4771658,48.931418 L73.4727099,49.0650945 L73.468254,49.1898592 C73.4552577,49.651043 73.4422614,50.1137121 73.4422614,50.5734107 C73.4407761,51.2625871 73.4522871,51.9164879 73.4786511,52.5737305 C73.4972173,53.0653629 73.533607,53.5599658 73.5699967,54.0386018 L73.5959893,54.3809621 C73.6498313,55.1774511 73.7337504,55.9850798 73.8150702,56.7670871 C73.8600004,57.1863114 73.9034452,57.5981092 73.9428055,58.009907 C73.9977614,58.5858298 74.0556879,59.1617526 74.1165849,59.7376754 L74.1310665,59.8810062 C74.1979048,60.5323077 74.2691989,61.2055173 74.441493,61.8568187 C74.556232,62.2975798 74.9056474,62.6689033 75.3553202,62.8256018 C75.3961658,62.9329143 75.441096,63.0446827 75.4919673,63.1534805 C75.6338129,63.463907 75.8892835,63.8627085 76.2940261,63.9948996 L76.2966254,64.118179 L76.3040518,64.2485136 C76.3300445,64.9417746 76.3170482,65.646918 76.3040518,66.3301533 L76.3040518,66.379168 L76.2966254,66.7913371 C76.2795445,67.8035651 76.2446401,68.6509254 76.1881989,69.4574401 C76.1562651,69.8967158 76.1183901,70.3363629 76.0794011,70.7756386 L76.0619489,70.9716974 C76.0300151,71.3456202 75.996596,71.718429 75.9717173,72.0942085 C75.8603202,73.663793 75.6627761,75.2519437 75.4730298,76.7881092 L75.413618,77.2797415 C75.2888533,78.2165908 75.1785702,79.1538114 75.0682871,80.092146 C74.9943938,80.7215393 74.920129,81.351304 74.8432651,81.9792121 C74.8235849,82.1021202 74.8020482,82.2272562 74.7790261,82.3553629 C74.7923938,82.4017783 74.8039048,82.4500504 74.8128165,82.500179 C74.9230996,83.0976386 74.9405518,83.3037232 74.8157871,83.8982121 C74.6635445,84.623407 74.1110151,85.316668 73.4727099,85.6794511 C73.2231805,85.8201827 72.9476585,85.9304658 72.6777062,86.036293 C71.3665629,86.6311533 70.1367393,87.3563482 68.9763533,88.207793 C68.5931474,88.5208187 68.2088276,88.8357011 67.8564415,89.1840026 C67.6952871,89.3418151 67.534504,89.4999989 67.3718643,89.6581827 C67.3458717,89.7146239 67.3183937,89.7714364 67.2920298,89.8293629 C67.0124232,90.4253371 66.6901143,91.0027452 66.3811732,91.5857232 C66.1505813,92.0179438 65.9474673,92.4620467 65.7517798,92.9117195 C65.6734305,93.1059217 65.593596,93.3001239 65.516732,93.4946974 C65.0889673,94.5667085 64.6233276,95.619782 64.1402357,96.6683996 C63.7633423,97.4849401 63.3961033,98.3118776 62.9813349,99.1109658 C62.5216364,99.9958298 62.0704783,100.884778 61.6033533,101.765186 C61.1681621,102.589153 60.656107,103.369675 60.1165739,104.129775 C59.7018055,104.714238 59.2331952,105.291275 58.6936621,105.765826 C58.258471,106.148661 57.790232,106.454631 57.2651805,106.69265 C56.9618092,106.828925 56.5834305,107.010131 56.2466401,107.092936 C55.8886842,107.181311 55.541868,107.227727 55.1720298,107.271172 C54.0186989,107.403363 52.7933313,107.240723 51.6778754,106.939208 C50.8928974,106.727554 50.1387393,106.419727 49.420971,106.039863 C48.6838938,105.648117 48.0400188,105.11601 47.3902026,104.595043 C46.7329599,104.112322 46.0411842,103.677131 45.3100482,103.312863 C45.1054489,103.24194 44.8967651,103.184014 44.6851107,103.140197 C44.1860518,103.096753 43.6825371,103.077815 43.1853349,103.11569 C42.4178092,103.247881 41.6491695,103.433543 40.9165482,103.700153 C40.6046364,103.855367 40.3031217,104.032488 39.9997504,104.203668 C39.496607,104.486245 39.0383938,104.833061 38.5668129,105.165396 C38.2114563,105.414554 37.8460739,105.641061 37.4643533,105.845661 C37.3121107,105.926609 37.159868,106.006444 37.0031695,106.079223 C36.7930004,106.176139 36.4231621,106.35883 36.148754,106.414157 C35.8762026,106.469113 35.6281585,106.496962 35.3366695,106.534466 C34.4777982,106.647719 33.6423202,106.467628 32.8707099,106.087764 C32.6954452,106.001988 32.540232,105.878708 32.3731364,105.778822 C32.2253496,105.688962 32.0671658,105.619153 31.919379,105.529293 C30.6386842,104.753227 29.736368,103.585786 28.9038607,102.364503 C28.4686695,101.726197 28.0100849,101.105344 27.5708092,100.47001 C27.1441585,99.8521276 26.7583533,99.2082526 26.3131364,98.6063371 C25.6299011,97.7389254 24.9280996,96.8830246 24.1925077,96.0590577 C23.7792246,95.5949033 23.3165555,95.1771643 22.8553717,94.7594254 C22.4621401,94.4010982 22.0674232,94.0472268 21.6600813,93.7078371 C21.4759048,93.5815871 21.2917283,93.4627636 21.0971548,93.3554511 C20.4588496,93.1423114 19.7945518,93.0335136 19.1347099,92.9087489 C18.7734121,92.8389401 18.4124857,92.7041496 18.0890629,92.5110614 C17.4217945,92.2284842 16.9212504,91.6451349 16.6806327,90.9229107 C16.4062246,90.1033996 16.1481548,89.2913151 15.974004,88.4424695 C15.9190482,88.1728886 15.862607,87.8988518 15.7623496,87.6433812 C15.6294158,87.3054768 15.5804011,86.9378665 15.5540371,86.5709989 C15.5209893,86.3723408 15.4879415,86.1747967 15.4548938,85.9783665 L15.4418974,85.8940761 L15.4144195,85.7258665 C15.3056217,85.0834768 15.2183607,84.4336607 15.1359268,83.8068665 L15.0631474,83.2658482 C14.989254,82.7029217 14.9079342,82.1388812 14.8266143,81.5759548 L14.6962798,80.6550724 C14.5076474,79.0754621 14.3654305,77.3710871 14.2480923,75.2898187 C14.2061327,74.5542268 14.207618,73.8056386 14.208732,73.0804437 L14.2102173,72.4176312 C14.207618,71.5008335 14.208732,70.5829217 14.2206143,69.6646386 C14.2306401,68.7623224 14.269629,67.8588923 14.3119599,67.0145026 C14.3364673,66.4764548 14.3479783,65.938407 14.3583754,65.3988739 L14.3639452,65.130407 C14.3698864,64.8608261 14.3773129,64.5923592 14.3858533,64.322407 C14.4148165,63.3651349 14.4597467,62.4208592 14.5191585,61.5144585 L14.5510923,61.0038886 L14.5570335,60.902146 C14.6019636,60.2177967 14.6468938,59.511168 14.7237577,58.8149364 C14.928357,57.3470945 15.0820849,55.8792526 15.2298717,54.4607967 L15.2387835,54.3839327 L15.2502945,54.2721643 L15.2866842,53.9197783 C15.4214746,52.6142048 15.5577504,51.3090026 15.7073938,50.003429 C15.7738607,50.0323923 15.8551805,50.0453886 15.9405849,50.0453886 C16.0163349,50.0453886 16.0917136,50.0353629 16.1685776,50.0149401 C17.9423901,49.5493004 19.6727577,48.9822893 21.3102945,48.3324732 C22.0458864,48.0439548 22.830493,47.7071643 23.7807099,47.2719732 L23.8620298,47.2359548 C24.5987357,46.9036202 25.4356989,46.5267268 26.2132504,46.1234695 L29.8481364,44.2419732 C30.5139195,43.8981276 31.1797026,43.5242048 31.8220923,43.162907 C32.1555408,42.9742746 32.4893607,42.7871276 32.8228092,42.6029511 C32.9910188,42.5116055 33.1607136,42.4202599 33.3292945,42.3303996 C33.7310665,42.1142893 34.1209563,41.9052342 34.4937651,41.683554 L35.4424967,41.1191423 L36.389743,40.5551018 C36.7436143,40.3460467 37.0945151,40.1199107 37.4353901,39.8993445 L37.4948018,39.8603555 L37.7097982,39.7222232 L38.0547577,39.4990577 C38.3766952,39.2959437 38.6945482,39.0883739 39.0120298,38.8811754 L39.2036327,38.7564107 L39.6039195,38.4953702 C40.4713313,37.9309585 41.3922136,37.2781717 42.5020996,36.4400945 C42.9807357,36.0773114 43.4898202,35.6840798 43.9699415,35.2637415 C44.3876805,34.8994732 44.7645739,34.4947305 45.0475224,34.184304 L45.077971,34.149771 L45.1113901,34.1133812 C45.5844563,34.2730504 46.0976254,34.3220651 46.6690923,34.3658812 C46.9390445,34.3859327 47.2175371,34.3978151 47.4945445,34.3978151 C47.777493,34.3978151 48.0849489,34.3844474 48.4083717,34.3599401 M60.9784158,0.225653309 C59.9149452,0.238649632 58.7879783,0.286550368 57.5288202,0.375296691 C57.0635518,0.407230515 56.5860298,0.462186397 56.1656915,0.511572426 L56.0160482,0.529024632 C55.4185886,0.598462132 54.7123312,0.689807721 53.991221,0.836480515 C52.9351768,1.05110551 51.879504,1.34853566 50.8583643,1.63556875 L50.7829857,1.65599154 C50.4142614,1.76033346 50.037368,1.88361287 49.6805261,2.0024364 L49.2657577,2.13759816 C48.8261107,2.27832978 48.3664121,2.43762757 47.8599268,2.62477463 C47.0827467,2.91069375 46.3037099,3.24414228 45.5525224,3.56607978 L45.0634893,3.77513493 C44.9981364,3.80409816 44.9331548,3.8315761 44.8663165,3.85905404 L44.8314121,3.87353566 C44.3787687,4.0651386 43.9380077,4.25822684 43.4968754,4.44945846 L43.3620849,4.50887022 L42.4308055,4.91509816 C41.5329452,5.27936654 40.6425114,5.65328934 39.7505923,6.02906875 C39.5400518,6.11744375 39.3354526,6.21621581 39.1297393,6.31647316 C38.9656143,6.39482243 38.8352798,6.45831875 38.7016033,6.5207011 L38.3072577,6.70487757 C38.0053717,6.84709449 37.703857,6.9878261 37.3993717,7.12410184 C36.9307614,7.33315699 36.4591805,7.53775625 35.987971,7.74346949 L35.8063937,7.82330404 L34.8450371,8.2440136 L34.2022761,8.52993272 C33.6033312,8.79802831 33.0029011,9.06500993 32.3995004,9.32307978 C32.3995004,9.32307978 32.3601401,9.3375614 32.3571695,9.3375614 L32.326721,9.36541066 L32.3252357,9.36244007 L32.2777062,9.38100625 L32.2803055,9.37989228 L32.2078974,9.40291434 L31.7990702,9.57706507 L31.8555114,9.55812757 L31.6134085,9.65392904 L31.4971842,9.70034449 C31.402868,9.73784816 31.3085518,9.77572316 31.2186915,9.81916801 L31.073504,9.88155037 L31.038971,9.89751728 L31.0055518,9.92239596 L31.0040665,9.91942537 C30.3063496,10.2064585 29.6231143,10.5038886 28.9413643,10.8013187 L28.311971,11.0753555 C27.5214232,11.3917232 26.7308754,11.7062342 25.9388423,12.018146 C25.6807724,12.1210026 25.4167614,12.2123482 25.1512651,12.305179 L25.0744011,12.3330283 C24.9266143,12.3835283 24.7784562,12.4373702 24.6291842,12.4908408 C23.7632577,12.8027526 22.9901621,13.0118077 22.2664526,13.1276607 C22.0518276,13.1465982 21.8223496,13.1555099 21.5423717,13.1555099 C21.3451989,13.1555099 21.1480261,13.151054 20.9508533,13.1465982 L20.8780739,13.1451129 L20.7158055,13.140657 L20.5516805,13.1365724 L20.3879268,13.1321165 L20.1937246,13.1220908 C20.080471,13.1146643 19.9816989,13.1090945 19.8832982,13.1090945 C19.7206585,13.1090945 19.5944085,13.1276607 19.487096,13.1655357 C19.1781548,13.2728482 18.9724415,13.431032 18.8372798,13.6660798 C18.6675849,13.9545982 18.6835518,14.240146 18.728482,14.504157 C18.8198276,15.0611423 19.4146879,15.4179842 19.8079195,15.6545173 C19.9731585,15.7547746 20.1443386,15.8476055 20.3155187,15.9389511 L20.5156621,16.0462636 C20.998754,16.3087893 21.5119232,16.5713151 22.1327761,16.8698592 C22.8089562,17.1992232 23.4194121,17.457293 24.0012761,17.6578077 C24.1215849,17.6997673 24.2418937,17.737271 24.3622026,17.775146 L23.9489195,18.0955982 C23.676368,18.3131937 23.4019599,18.529304 23.1279232,18.7454143 C21.581732,19.9187967 19.7321695,21.2622452 17.7277651,22.3383408 C17.5595555,22.4282011 17.391346,22.521032 17.2231364,22.6138629 L17.150357,22.6532232 C16.8373312,22.8244033 16.5150224,23.0011533 16.1901143,23.1608224 C15.5752026,23.4623371 14.9617761,23.7642232 14.3468643,24.0672232 C13.6955629,24.3850761 13.0282945,24.6765651 12.2841621,24.9985026 C12.0071548,25.1188114 11.7301474,25.2394915 11.454254,25.3612857 C11.052482,25.5380357 10.6681621,25.7077305 10.2838423,25.880396 C9.84308125,26.0630871 9.38746728,26.2532048 8.92034228,26.4054474 C8.40680184,26.5721717 7.87618051,26.7158739 7.36412537,26.8551202 L7.22487904,26.8915099 C6.48223199,27.0916533 5.70616581,27.2628335 5.02293051,27.4121055 L4.83726875,27.4540651 L4.2368386,27.5877415 L4.09759228,27.6181901 C3.66834228,27.7151055 3.22720993,27.8138776 2.85031654,28.0548665 C2.65017316,28.1822305 2.52392316,28.3478408 2.39024669,28.5231055 L2.32786434,28.6044254 C2.18601875,28.7915724 2.16856654,29.0611533 2.16262537,29.2991717 C2.15259963,29.5891754 2.26288272,29.9200246 2.4960739,30.3102857 C2.65017316,30.5713261 2.86182757,30.8048886 3.06494154,31.0239695 C3.24614743,31.2152011 3.44183493,31.3923224 3.65943051,31.5865246 L3.94089375,31.8345687 C4.19042316,32.0551349 4.43995257,32.2757011 4.69245257,32.494782 C4.86623199,32.6455393 5.0448386,32.7918408 5.2230739,32.9370283 L5.28100037,32.984929 C5.45366581,33.127146 5.62633125,33.2689915 5.79454081,33.4171496 C6.07303346,33.6592526 6.36600772,33.919179 6.61999301,34.2162379 C6.70279816,34.3324621 6.77966213,34.4498004 6.84909963,34.5760504 C6.86061066,34.6150393 6.87100772,34.6543996 6.88103346,34.6948739 L6.83461801,34.7732232 C6.59957022,35.0416901 6.32256287,35.2967893 6.07748934,35.5218114 L5.98465846,35.6072158 C5.6901989,35.8831092 5.38868419,36.1322673 5.0273864,36.4226423 L4.62412904,36.7315835 L4.22087169,37.0390393 L4.17891213,37.0694879 L4.15551875,37.1014217 L4.15403346,37.0984511 L4.08459596,37.1433812 L4.0426364,37.179771 C4.0411511,37.1812562 4.01070257,37.2057636 4.01181654,37.2072489 C3.35197463,37.7092783 2.50052978,38.3750614 1.73189007,39.0943151 C1.5113239,39.3044842 1.33011801,39.4946018 1.18047463,39.6746937 C0.864478309,40.0530724 0.670276103,40.4489033 0.459735662,40.963929 C0.392897426,41.1235982 0.349452574,41.2962636 0.306007721,41.4629879 L0.275559191,41.5922085 C0.182728309,41.948679 0.128886397,42.3229732 0.0884121324,42.6423114 C-0.0393231618,43.6255761 -0.00144816176,44.6381754 0.0349415441,45.6169842 L0.0449672794,45.8490614 C0.0609341912,46.2887085 0.0813569853,46.7268702 0.10289375,47.1646607 C0.133342279,47.8118776 0.163790809,48.4572379 0.181243015,49.1011129 C0.197209926,49.7683812 0.220603309,50.3168261 0.255136397,50.8229401 C0.297467279,51.4538187 0.376930515,52.076157 0.456765074,52.6535651 L0.503180515,53.010407 C0.555537132,53.4222048 0.609007721,53.8239768 0.678816544,54.2142379 L0.976246691,55.8907636 C1.09507022,56.5739989 1.23728713,57.251293 1.39955551,58.0013665 C1.48087537,58.3827158 1.56219522,58.7629511 1.63905919,59.1428151 C1.74191581,59.6578408 1.86816581,60.2118555 2.02486434,60.8401349 C2.12772096,61.2519327 2.25397096,61.6681864 2.37725037,62.0714437 L2.39767316,62.1367967 L2.5150114,62.5211165 C2.68062169,63.0691901 2.84883125,63.6146643 3.02558125,64.1586533 C3.19230551,64.673679 3.39690478,65.2002158 3.67242684,65.8166129 C3.93792316,66.4185283 4.18188272,66.9175871 4.43995257,67.3847121 C4.59368051,67.6672893 4.7748864,67.9416974 4.94903713,68.2068224 L4.99396728,68.2736607 C5.09125404,68.4203335 5.18705551,68.5666349 5.2784011,68.714793 C5.58437169,69.2079107 5.88885699,69.7010283 6.18331654,70.2012011 C6.46477978,70.6813224 6.7822614,71.2253114 7.19145993,71.695407 C7.3930886,71.9259989 7.60065846,72.1506496 7.80637169,72.3756717 L7.87320993,72.4480798 C8.00354449,72.5902967 8.13425037,72.7325136 8.26347096,72.8762158 C8.68120993,73.3414842 9.09597831,73.8086092 9.51074669,74.2772195 C10.2779011,75.143146 11.0988974,76.0643996 11.9562835,76.9533482 C12.1055555,77.1055908 12.3101548,77.1913665 12.5322062,77.1913665 C12.6874195,77.1913665 12.8381768,77.1490357 12.9673974,77.0695724 C12.9729673,77.3101901 12.9874489,77.5552636 13.0034158,77.8018224 L13.0063864,77.8467526 C13.0223533,78.0788298 13.0368349,78.3094217 13.0513165,78.5414989 C13.0936474,79.2726349 13.158629,80.229907 13.273368,81.1541312 C13.3413202,81.7036901 13.4066732,82.2547342 13.4705408,82.8046643 L13.4779673,82.8700173 C13.6302099,84.1577673 13.7883937,85.4893335 13.9900224,86.7934217 L14.0175004,86.9746276 C14.1378092,87.7755724 14.2640592,88.6036239 14.4248423,89.4171937 C14.5845114,90.2396754 14.8644893,91.023168 15.1849415,91.8905798 C15.5083643,92.7635614 15.8377283,93.6324585 16.1756327,94.4998702 C16.2963129,94.8132673 16.4151364,95.126293 16.5339599,95.4411754 C16.7296474,95.9662268 16.924221,96.4812526 17.1343901,96.9933077 C17.4377614,97.7344695 17.7277651,98.4800871 18.0162835,99.2242195 L18.1135702,99.4707783 C18.2788092,99.8940871 18.4778386,100.393146 18.6980335,100.883293 C18.8851805,101.302517 19.107232,101.708745 19.3203717,102.08601 C19.4755849,102.367102 19.6612467,102.637054 19.8424526,102.898094 L20.0370261,103.181043 C20.267618,103.523403 20.4837283,103.880245 20.7028092,104.244142 L20.8186621,104.435745 C20.9534526,104.660396 21.0856437,104.885418 21.2174636,105.110069 L21.3091805,105.263797 C21.5847026,105.732407 21.8687651,106.218469 22.1691658,106.689679 C22.9508018,107.915418 23.8226695,109.110708 24.6655739,110.265153 C24.8887393,110.569639 25.101879,110.861128 25.3139048,111.154102 C25.8170482,111.849219 26.4059673,112.651278 27.0457577,113.385014 C27.377721,113.766734 27.6621548,114.065278 27.9391621,114.325205 C28.2091143,114.577333 28.487607,114.823892 28.9008901,115.17665 C29.1619305,115.39833 29.4214857,115.624837 29.6795555,115.850973 C30.7690188,116.80119 31.8930151,117.779999 33.1870776,118.469175 C33.5773386,118.679344 33.9761401,118.873918 34.371971,119.049183 C34.647493,119.172462 34.927471,119.278289 35.1885114,119.375576 C35.3916254,119.449469 35.6036511,119.526333 35.8153055,119.57869 C36.6552393,119.784775 37.5341621,119.924021 38.3102283,120.048786 L38.4305371,120.068837 C40.304607,120.369238 42.2276915,120.401172 44.0872798,120.43162 L44.2339526,120.434591 C44.3382945,120.436076 44.4426364,120.436076 44.5473496,120.436076 C45.4886548,120.436076 46.353096,120.366267 47.1915445,120.227021 C48.0949746,120.073293 48.9219121,119.880205 49.7165445,119.636617 C50.5085776,119.393028 51.2512246,119.020219 51.9708496,118.658922 L52.4260923,118.4313 L52.8961879,118.203679 C53.5055298,117.909219 54.1349232,117.603249 54.7282982,117.247892 C55.4909967,116.792278 56.1642062,116.204844 56.8155077,115.636348 C57.2882026,115.22158 57.7972871,114.828348 58.2904048,114.449598 L58.3672687,114.390186 L58.5209967,114.272848 C59.7192577,113.350481 61.2754746,112.111745 62.6783349,110.71037 C63.1495445,110.237675 63.608129,109.735646 64.0518607,109.251069 L64.455118,108.810308 C64.9541768,108.264833 65.3325555,107.797708 65.6474379,107.33801 L65.7603202,107.171286 C66.0347283,106.769514 66.2812871,106.406731 66.5467835,106.057315 L66.7814599,105.745403 C66.941129,105.549716 67.1022835,105.356628 67.2615812,105.163911 L67.4112246,104.983819 C68.3829783,103.814892 69.3881511,102.60512 70.162732,101.265014 C70.5355408,100.620767 70.8704746,99.9494143 71.2388276,99.2008261 L71.3955261,98.8818592 C71.6669636,98.3348996 71.9205776,97.753407 72.1441143,97.2398665 C72.2659085,96.9584033 72.3891879,96.6769401 72.5139526,96.3984474 C73.2565996,94.7523702 73.9947908,93.1059217 74.7259268,91.4539033 C75.1815408,90.4268224 75.5235298,89.5738923 75.8020224,88.7688629 C76.0645482,88.0017085 76.3125923,87.1777415 76.5580371,86.2494327 C76.6564379,85.8766239 76.7552099,85.5038151 76.8524967,85.1310062 C76.9464415,85.1603408 77.0816033,85.1748224 77.2249342,85.1748224 C77.3961143,85.1748224 77.547243,85.1529143 77.6530702,85.1150393 C77.8298202,85.0530283 78.0229085,84.975793 78.2390187,84.8773923 L78.3143974,84.8439732 L78.5509305,84.7351754 C78.9902062,84.5394879 79.4966915,84.3074107 79.9463643,84.0170357 C80.8468239,83.4455687 81.7302026,82.7478518 82.5745923,81.945793 C84.2555739,80.3476165 85.9194746,78.712679 87.4801474,77.1753996 L87.7541842,76.9054474 L87.7905739,76.8690577 C88.5198533,76.1483187 89.275868,75.4041864 89.9865813,74.6400026 C90.8101768,73.752168 91.6226327,72.8427967 92.3767908,71.9928371 C93.1164673,71.1543886 93.8260665,70.2115982 94.5468055,69.1091386 C95.2849967,67.9792011 95.9362982,66.949521 96.5367283,65.961429 C97.1835739,64.9027857 97.6581254,63.7364585 98.0758643,62.7097489 C98.2236511,62.3484511 98.3688386,61.985668 98.5136548,61.6232562 L98.6024011,61.4056607 C98.8415335,60.8108004 99.0795518,60.2163114 99.3261107,59.625907 C99.7828386,58.5394143 100.142651,57.3935099 100.4735,56.3144437 C100.6781,55.6401202 100.821431,54.9190099 100.934684,53.9747342 C101.027515,53.187157 100.976644,52.3416533 100.782442,51.3899511 C100.656192,50.7835798 100.430056,50.1876055 100.206519,49.6291349 C100.033853,49.1883739 99.8411364,48.7413004 99.640993,48.2845724 L99.4987761,47.9566937 L99.514743,48.0250173 L99.4872651,47.9407268 C99.4872651,47.9392415 99.4738974,47.9058224 99.4727835,47.9058224 L99.4174563,47.7695467 C99.1434195,47.1301276 98.8693827,46.4918224 98.6517871,45.8490614 C98.4252798,45.1892195 98.2585555,44.4725651 98.113368,43.5242048 C98.0554415,42.9857857 98.036504,42.5520798 98.0509857,42.1577342 C98.0654673,41.7269989 98.101857,41.2598739 98.1657246,40.6869217 C98.2555849,40.1388482 98.3599268,39.6876901 98.4965739,39.2669805 C98.6603276,38.7389585 98.8400482,38.1994254 99.0286805,37.6639768 L99.1968901,37.1957379 C99.3450482,36.7924805 99.4928349,36.383282 99.6235408,35.977054 C99.8251695,35.3361496 99.883096,34.6499437 99.920971,34.0569401 C99.9759268,33.1761607 99.7598165,32.2407967 99.262243,31.1962636 C99.0606143,30.7670136 98.7880629,30.3667268 98.5240518,29.9794364 L98.492118,29.9345062 C97.8612393,29.0047121 97.0822026,28.1692342 96.3295298,27.3612342 L96.2990813,27.3293004 L96.1843423,27.206021 C95.5924526,26.573657 95.1372099,26.106532 94.7105592,25.688793 C94.351118,25.3393776 93.9983607,24.9405761 93.5980739,24.4355761 L93.5401474,24.3575982 C93.2442026,23.9584254 92.9412026,23.5510835 92.7206364,23.1043812 C92.5958717,22.7705614 92.5074967,22.4690467 92.4506842,22.1786717 C92.4102099,21.6480504 92.4391732,21.1055467 92.4640518,20.6269107 C92.482618,20.2351643 92.5175224,19.8144548 92.5739636,19.3447305 C92.6337467,18.996429 92.7146952,18.6484989 92.7945298,18.3117085 L92.8104967,18.2463555 L92.8353754,18.1449842 C92.8643386,18.0172489 92.8962724,17.8909989 92.9282062,17.7651202 L92.9412026,17.7068224 C93.0165812,17.4008518 93.0949305,17.0848555 93.1454305,16.7714585 C93.2092982,16.3581754 93.2356621,16.0173004 93.1717945,15.6006754 C93.1309489,15.350032 93.0396033,15.0960467 92.8817908,14.8015871 C92.712096,14.4811349 92.3972136,14.250543 92.1402577,14.0849327 C92.0184636,14.0069548 91.8922136,13.937146 91.761879,13.871793 C91.6400849,13.6586533 91.436971,13.5019548 91.194868,13.4280614 L91.1324857,13.4091239 C90.9408827,13.3511974 90.7437099,13.2903004 90.5331695,13.2524254 L90.3664452,13.2219768 L90.272129,13.2045246 C90.134368,13.178532 89.996607,13.1540246 89.8603312,13.1220908 C89.8124305,13.1116937 89.7630445,13.1001827 89.7151437,13.0886717 C89.6327099,13.0652783 89.5499048,13.0437415 89.4656143,13.0218335 C89.2350224,12.9579658 88.9799232,12.8740467 88.6635555,12.7593077 L88.5811217,12.711407 L88.5113129,12.6709327 C88.3835776,12.5985246 88.2547283,12.5257452 88.1284783,12.4518518 C87.4248202,12.040054 86.6895996,11.5409952 85.8815996,10.9245982 C85.3376107,10.4819805 84.8300114,10.0018592 84.4486621,9.63350625 C84.3120151,9.50465699 84.1787099,9.37246581 84.0468901,9.23916066 C83.8133276,8.97923419 83.5897908,8.71559449 83.3651401,8.43561654 C83.1909893,8.2076239 83.0212945,7.98297316 82.8675665,7.75386654 L82.7977577,7.64915331 L82.7283202,7.54629669 C82.6280629,7.36360551 82.507754,7.15046581 82.369993,6.94883713 C82.3425151,6.89350993 82.3176364,6.85303566 82.2901585,6.81516066 C82.3295187,6.42230037 82.1958423,6.05394743 81.9362871,5.83189596 C81.8508827,5.76060184 81.7680776,5.68670846 81.6852724,5.61132978 L81.5055518,5.45054669 C81.3997246,5.35882978 81.2835004,5.27194007 81.1702467,5.18653566 L80.9805004,5.04431875 C80.8108055,4.91361287 80.6321989,4.79181875 80.4539636,4.67002463 L80.2898386,4.55677096 L80.2274562,4.5148114 C79.8171437,4.23334816 79.3529893,3.91438125 78.8758386,3.62846213 C78.4306217,3.35888125 77.9634967,3.10935184 77.5123386,2.86984816 L77.3615812,2.7914989 C76.6653496,2.42166066 75.9356989,2.10269375 75.1930518,1.84610919 C74.9505776,1.76033346 74.6999342,1.69089596 74.4559746,1.62405772 L74.1544599,1.53976728 C73.5844783,1.3774989 73.0026143,1.2512489 72.560368,1.15693272 C71.916493,1.02214228 71.2562798,0.949362868 70.6383974,0.891436397 C69.756504,0.807517279 68.8630996,0.771127574 68.0001437,0.736223162 L67.3399305,0.710230515 C66.3596364,0.66975625 65.3269857,0.581009926 64.2724268,0.449190074 L64.0693129,0.418741544 C63.586221,0.347447426 63.1016437,0.276524632 62.624493,0.250531985 C62.283618,0.233079779 61.9093239,0.222682721 61.4815592,0.222682721 C61.3133496,0.222682721 61.1466254,0.224168015 60.9784158,0.225653309" transform="translate(206 66.149)"/><path d="M0.162416912,5.73828529 C0.157961029,5.70486618 0.153876471,5.67107574 0.149049265,5.63765662 C0.153505147,5.67107574 0.157589706,5.70486618 0.162416912,5.73828529 Z M66.6493801,6.58081838 C66.6475235,6.57413456 66.6460382,6.56893603 66.6445529,6.56448015 C66.6460382,6.56967868 66.6478949,6.57524853 66.6493801,6.58081838 Z M1.12860074,16.0090941 L1.11634706,15.9203478 L1.12860074,16.0090941 Z M1.15422206,16.2032963 C1.14716691,16.1509397 1.14048309,16.0985831 1.13342794,16.0462265 C1.13157132,16.0339728 1.12971471,16.0213478 1.12860074,16.0090941 C1.13714118,16.0737044 1.14493897,16.1383147 1.15422206,16.2032963 Z M0.312802941,0.910708088 C0.234453676,1.73875956 0.162045588,2.56569706 0.136052941,3.39820441 C0.111174265,4.20323382 0.0632735294,5.00269338 0.172071324,5.80326691 C0.169100735,5.78135882 0.165758824,5.75982206 0.162416912,5.73828529 C0.182839706,5.88607206 0.202891176,6.03460147 0.224427941,6.18275956 C0.422714706,7.80878529 0.460589706,9.44706471 0.637711029,11.0756897 C0.726457353,11.8922301 0.788839706,12.7117412 0.862733088,13.5282816 C0.937740441,14.3693294 1.02425882,15.2092632 1.13342794,16.0462265 C1.20435074,16.5619949 1.28864118,17.0744213 1.37181765,17.5883331 C1.45425147,18.0918478 1.51254926,18.5979618 1.59349779,19.1011051 C1.75019632,20.0643184 1.94328456,21.0230757 2.15345368,21.9747779 C2.37104926,22.9610132 2.72232132,23.9123441 2.96888015,24.8915243 C3.20652721,25.8343147 3.40667059,26.7845316 3.69110441,27.7143257 C3.997075,28.7135574 4.40924412,29.6663735 4.89345,30.5905978 C5.35314853,31.4650647 5.79428088,32.351414 6.26140588,33.2232816 C6.51501985,33.7004324 6.78942794,34.1701566 7.05752353,34.6387669 C7.29702721,35.0579912 7.54804191,35.4727596 7.81056765,35.8775022 C8.41953824,36.8202926 9.08680662,37.7385757 9.86732868,38.5462044 C10.5531632,39.257289 11.2583066,39.9720868 12.0384574,40.582914 C12.4970419,40.9397559 12.959711,41.2691199 13.4587699,41.5661787 C13.8661118,41.8086529 14.2678838,42.0652375 14.6856228,42.2913735 C16.4917404,43.2705537 18.4961449,43.8015463 20.4441081,44.4149728 C21.4043507,44.7183441 22.3820456,44.9749287 23.3697662,45.1665316 C24.5041596,45.3867265 25.6515493,45.5074066 26.7970824,45.6451676 C27.3236191,45.70755 27.8490419,45.7784728 28.3766926,45.8334287 C28.9165971,45.8902412 29.4617,45.9002669 30.0027184,45.9206897 C31.0528213,45.9596787 32.100325,46.022061 33.1519132,46.0350574 C34.1990456,46.048425 35.2461779,46.0569654 36.2921963,45.9860426 C36.7983103,45.9511382 37.302939,45.8843 37.8064537,45.8189471 C38.451814,45.7350279 39.0960603,45.6466529 39.7399353,45.5493662 C40.6986926,45.4041787 41.6329426,45.163561 42.5783324,44.9515353 C43.0933581,44.8371676 43.6054132,44.7153735 44.1074426,44.5497632 C44.7353507,44.3410794 45.3461779,44.1090022 45.951064,43.83905 C46.4137331,43.6333368 46.8749169,43.4227963 47.3286743,43.1981456 C47.8221632,42.9556713 48.2848324,42.6760647 48.751586,42.387175 C49.6409059,41.8376162 50.5532478,41.3095941 51.3931816,40.6842853 C51.9007809,40.3059066 52.3619647,39.8777706 52.8391154,39.4644875 C53.1974426,39.1525757 53.5947588,38.8755684 53.9081559,38.5172412 C54.6756816,37.6383184 55.419814,36.7244912 56.0376963,35.7323147 C56.3277,35.2681603 56.5987662,34.7924949 56.8731743,34.3198 C57.1327294,33.8756971 57.3922846,33.4319654 57.6329022,32.9778368 C58.1334463,32.0395022 58.6395603,31.0952265 59.0732662,30.1234728 C59.5507882,29.0559176 60.0090015,27.9768515 60.4222846,26.8829324 C60.8196007,25.8358 61.2143176,24.7856971 61.6235162,23.7426493 C62.0004096,22.7768368 62.3557662,21.8021125 62.7345162,20.837414 C63.1247772,19.8422669 63.5235787,18.853061 63.8989868,17.8523441 C64.2662257,16.873164 64.6635419,15.8969544 64.9784243,14.8992081 C65.1406926,14.3841824 65.2829096,13.8650721 65.4381228,13.348561 C65.5773691,12.8873772 65.7266412,12.429164 65.8413801,11.9605537 C66.0749426,11.0162779 66.2531779,10.0619765 66.3983654,9.09876324 C66.4692882,8.63015294 66.5461522,8.16302794 66.6245015,7.69478897 C66.6608912,7.48127794 66.6913397,7.26665294 66.7102772,7.05054265 C66.7184463,6.95845441 66.6100199,6.45159779 66.6445529,6.56448015 C66.5442956,6.22174853 66.3018213,5.87753162 65.9791412,5.71192132 C65.7325824,5.58270074 65.5383801,5.51029265 65.2554316,5.51029265 C65.0014463,5.51029265 64.7303801,5.58270074 64.5112993,5.71192132 C64.1340346,5.93211618 63.8804206,6.32831838 63.789075,6.75051324 C63.6917882,7.19870074 63.6234647,7.65839926 63.5610824,8.11252794 C63.4931301,8.61418603 63.4043838,9.11324485 63.3160088,9.61230368 C63.2361743,10.0675463 63.1318324,10.5187044 63.0274904,10.9698625 C62.9112662,11.4644654 62.7575382,11.9490426 62.6112368,12.4347338 C62.4675346,12.9133699 62.338314,13.3979471 62.1875566,13.8750978 C62.0223176,14.4016346 61.8307147,14.9196309 61.6405971,15.4387412 C61.2911816,16.3989838 60.9328544,17.3577412 60.5615309,18.3105574 C60.1801816,19.2912228 59.775439,20.2614912 59.4041154,21.2466125 C59.005314,22.3052559 58.5890603,23.3583294 58.1913728,24.4173441 C57.780689,25.5112632 57.36295,26.6029544 56.9203324,27.6842485 C56.6589206,28.2909912 56.3871118,28.89105 56.0941375,29.4836824 C55.7387809,30.1988515 55.3733985,30.9080794 54.9976191,31.6117375 C54.6597147,32.2470721 54.2839353,32.8619838 53.9226375,33.4843221 C53.7239794,33.8251971 53.5178949,34.1601309 53.309211,34.4950647 C53.1172368,34.8028919 52.8896154,35.0928956 52.6720199,35.3836419 C52.2717331,35.899039 51.8588213,36.416664 51.3657037,36.8407154 C51.1087478,37.0623956 50.8417662,37.2744213 50.5851816,37.4975868 C50.3241412,37.7218662 50.0708985,37.9550574 49.8102294,38.1785941 C48.9624978,38.7927632 48.0579537,39.3252412 47.1678912,39.8751713 C46.7022515,40.1622044 46.2395824,40.4392118 45.7449794,40.6742596 C45.2901081,40.8903699 44.8337515,41.1016529 44.3744243,41.3081088 C43.8374904,41.5119654 43.2961007,41.6924287 42.7454279,41.8576676 C42.2070088,42.0188221 41.6474243,42.1146235 41.10195,42.249414 C40.0410787,42.5111971 38.9664684,42.6820059 37.8862882,42.8379618 C37.4767184,42.8918037 37.0671485,42.9452743 36.6560934,42.9835206 C36.115075,43.0329066 35.5755419,43.0544434 35.0330382,43.0733809 C34.5194978,43.0893478 34.0033581,43.0733809 33.4883324,43.068925 C32.9647662,43.0644691 32.4412,43.0529581 31.9176338,43.0369912 C31.3751301,43.0210243 30.8341118,42.9890904 30.2916081,42.9616125 C29.802575,42.9371051 29.3124279,42.9296787 28.8237662,42.8947743 C28.2868324,42.8572706 27.756211,42.7963735 27.2222478,42.72805 C26.7057368,42.6626971 26.1866265,42.6077412 25.6701154,42.5438735 C25.6552625,42.5423882 25.6400382,42.5405316 25.6251853,42.538675 C24.915586,42.4354471 24.210814,42.3218221 23.5090125,42.1654949 C22.7648801,41.9983993 22.0281743,41.8012265 21.3000088,41.5721199 C19.8975199,41.1298735 18.4783213,40.7347853 17.1148213,40.1803993 C16.9013103,40.0879397 16.6889132,39.9932522 16.4813434,39.8866824 C16.1738875,39.7284985 15.8779426,39.5487779 15.5805125,39.3716566 C15.0454353,39.0534324 14.5103581,38.7437485 14.0064721,38.3776235 C13.5419463,37.9992449 13.1082404,37.5811346 12.6723066,37.1697081 C12.1921853,36.7189213 11.7343434,36.2332301 11.3117772,35.7297154 C10.8918103,35.1664176 10.4837257,34.5901235 10.1168581,33.9889507 C9.6846375,33.2812081 9.27692426,32.5586125 8.86364118,31.8393588 C8.46892426,31.1531529 8.12804926,30.4368699 7.74967059,29.7421235 C7.40990956,29.1160721 7.05455294,28.4970757 6.76454926,27.8461456 C6.43221471,27.0229213 6.16968897,26.1707338 5.93649779,25.3137191 C5.66803088,24.3285978 5.31861544,23.3627853 4.97625515,22.4010574 C4.64689118,21.4742338 4.37990956,20.5299581 4.13335074,19.5782559 C4.01749779,19.1300684 3.89421838,18.6818809 3.78839118,18.2310941 C3.66771103,17.7175537 3.56039853,17.1995574 3.44008971,16.6845316 C3.21803824,15.734686 3.00081397,14.7859544 2.83111912,13.8257118 C2.74831397,13.3500463 2.64397206,12.8773515 2.55671103,12.4013147 C2.46239485,11.8922301 2.37699044,11.3816603 2.28564485,10.8725757 C2.19689853,10.3779728 2.12597574,9.88039926 2.03908603,9.38579632 C1.95479559,8.905675 1.86939118,8.42703897 1.79661176,7.94691765 C1.71566324,7.40292868 1.64585441,6.85782574 1.55302353,6.31532206 C1.48024412,5.88273015 1.36587647,5.45867868 1.29606765,5.02534412 C1.17241691,3.65701691 1.27861544,2.27309412 1.40523676,0.910708088 C1.43271471,0.613277941 1.13528456,0.363748529 0.8597625,0.363748529 C0.540795588,0.363748529 0.340280882,0.613277941 0.312802941,0.910708088 Z" transform="translate(218.254 140.785)"/><path d="M68.2477051 103.477768C68.0943485 103.518985 67.9105434 103.628154 67.8139993 103.770742 67.6212824 103.985738 67.456786 104.22747 67.2844919 104.458433 67.1690103 104.613646 67.0516721 104.768117 66.9358191 104.922216 66.739389 105.171374 66.5440728 105.420532 66.3431868 105.667834 66.0821463 105.988657 65.8296463 106.322106 65.5556096 106.632532 65.0194184 107.241503 64.479514 107.846389 63.9318118 108.444962 63.3187566 108.88201 62.7008743 109.317201 62.1049 109.775786 61.3448007 110.36322 60.5672493 110.933201 59.8275728 111.546628 59.3853265 111.912382 58.9427088 112.279249 58.5004625 112.646117 58.3192566 112.79576 58.1391647 112.946518 57.9535029 113.091705 57.7054588 113.285907 57.5097713 113.491992 57.3226243 113.747091 57.2197676 113.887823 57.1050287 114.059003 57.0730949 114.231668 57.0719809 114.238352 57.0704956 114.245036 57.0693816 114.25172 56.7065985 114.49011 56.3397309 114.722187 55.9650654 114.942382 55.7574956 115.064176 55.5528963 115.191911 55.3427272 115.307764 55.3178485 115.321503 55.2929699 115.335985 55.2684625 115.349724 55.1418412 115.344525 55.0144772 115.358635 54.8915691 115.392054 54.5625765 115.4834 54.3390397 115.687999 54.1518926 115.962036 54.0300985 116.137672 53.9576904 116.331874 53.8834257 116.530532 53.7675728 116.845415 53.8514919 117.253128 54.0156169 117.533106 54.1838265 117.820139 54.4682603 118.043676 54.7916831 118.12908 55.0582934 118.200003 55.3122787 118.227852 55.5837162 118.152474 55.7504404 118.106058 55.9331316 118.030308 56.0824037 117.956415 56.172264 117.911485 56.2610103 117.863584 56.3493853 117.818654 56.5279919 117.725823 56.700286 117.614054 56.8714662 117.508227 57.2836353 117.254613 57.6939478 116.997657 58.1031463 116.741073 58.8368816 116.279889 59.5405397 115.779345 60.2397419 115.26729 61.7829625 114.140323 63.2827382 112.958029 64.7724882 111.760139 65.2032235 111.411837 65.6354441 111.069477 66.0516978 110.70558 66.3546978 110.440084 66.6595544 110.174587 66.9625544 109.907606 67.4512162 109.479841 67.9287382 109.028683 68.2636721 108.464643 68.5625875 107.959643 68.4723559 107.29386 68.0590728 106.880576 68.0074588 106.828591 67.9525029 106.782547 67.8949478 106.741701 68.0898926 106.476205 68.2800103 106.206253 68.4463632 105.921819 68.7248559 105.447639 69.0412235 104.971602 69.2164882 104.446551 69.3282566 104.113102 69.1470507 103.727297 68.8540765 103.556117 68.7337676 103.485565 68.5956353 103.449176 68.456389 103.449176 68.3862088 103.449176 68.3160287 103.45883 68.2477051 103.477768M22.9317158 106.088655C22.9257746 106.074544 22.9198335 106.060434 22.9138923 106.045953 22.9198335 106.060063 22.9254033 106.074544 22.9317158 106.088655M22.8210614 105.828357C22.8270026 105.842096 22.8325724 105.855835 22.8385136 105.869574 22.8399989 105.872544 22.8411129 105.875515 22.8422268 105.878857 22.8351717 105.862147 22.8281165 105.845067 22.8210614 105.828357M22.7920982 105.757434C22.8032379 105.784541 22.8147489 105.810905 22.8255173 105.83764 22.8147489 105.810905 22.8032379 105.784169 22.7920982 105.757434M19.7505871 95.9897687C19.6154254 96.0276437 19.4980871 96.117504 19.4271643 96.2378129 19.3473298 96.3770592 19.3528996 96.5033092 19.3733224 96.6540665 19.3770357 96.6852577 19.3811202 96.7153349 19.3855761 96.7461548 19.3870614 96.7591511 19.388918 96.7721474 19.3907746 96.7851438 19.391146 96.788857 19.3915173 96.7925702 19.3922599 96.7962835 19.3918886 96.7951695 19.3918886 96.7936842 19.3915173 96.7925702 19.4412746 97.1713202 19.4873187 97.5504415 19.5430173 97.9277062 19.6098555 98.3978018 19.705657 98.8645555 19.7955173 99.3301952 19.8816643 99.7731842 19.9722673 100.215059 20.069554 100.65582 20.0413335 100.60235 20.0127415 100.548508 19.9841496 100.495037 19.8463886 100.240309 19.5701239 100.086581 19.2860614 100.066158 19.2303629 99.9926364 19.1735504 99.9194857 19.1167379 99.8467062 18.9221643 99.6001474 18.6815467 99.4070592 18.4320173 99.2199121 18.2084805 99.0517026 17.9285026 98.9763239 17.6544658 98.9648129 17.5211607 98.9588717 17.3265871 99.0257099 17.2122195 99.0925482 17.0466092 99.1894636 16.9307562 99.3446768 16.8769143 99.5277393 16.7465798 99.9699857 17.0076202 100.379184 17.2296717 100.743081 18.1071092 102.189386 19.0788629 103.577394 20.0391055 104.968372 20.1712967 105.161089 20.3053445 105.352692 20.4401349 105.543923 20.4549879 105.571401 20.4702121 105.598508 20.4858077 105.625243 20.729396 106.053379 20.9733555 106.481144 21.2169437 106.910394 21.3172011 107.087886 21.4148592 107.270206 21.5154879 107.449556 21.5778702 107.573578 21.6409952 107.6976 21.7041202 107.821622 21.8433665 108.095658 21.9900393 108.36821 22.1407967 108.636677 22.3643335 109.035478 22.5860136 109.43428 22.8804732 109.788151 22.9417415 109.862416 23.0230614 109.918857 23.113293 109.958589 23.353168 110.296864 23.5923004 110.635511 23.8321754 110.973416 23.9714217 111.170589 24.1307195 111.35625 24.2818482 111.544883 24.4281496 111.730544 24.577793 111.914721 24.7240945 112.101868 24.8778224 112.29607 25.0534585 112.476162 25.2172121 112.661824 25.3805945 112.847114 25.551032 113.040945 25.741521 113.206927 26.0838812 113.56414 26.5372673 114.059486 27.0723445 113.854144 27.2843702 113.774309 27.4540651 113.672567 27.5714033 113.470938 27.6902268 113.267824 27.7006239 113.054684 27.6556937 112.830033 27.6530945 112.818894 27.6504952 112.808125 27.6475246 112.797357 27.6597783 112.681875 27.6504952 112.566022 27.619304 112.449798 27.5554364 112.299041 27.493054 112.146798 27.420646 112.000125 27.3348702 111.827831 27.179657 111.672618 27.0537783 111.525945 26.9345835 111.386699 26.8083335 111.253394 26.6835687 111.117118 26.5112746 110.928486 26.3386092 110.738368 26.1629732 110.551221 26.0062746 110.381526 25.8495761 110.210346 25.6843371 110.048078 25.601532 109.968243 25.5220687 109.885438 25.436293 109.808574 25.3783665 109.757703 25.3204401 109.707203 25.260657 109.656331 25.1377489 109.550504 25.0200393 109.47364 24.8845062 109.416828 24.6190099 109.049589 24.3590835 108.678265 24.1151239 108.295802 24.059054 108.208169 24.0029842 108.120908 23.9469143 108.033647 23.9257489 107.992059 23.9042121 107.950842 23.8830467 107.909997 23.7987562 107.748842 23.7159511 107.586574 23.632032 107.425419 23.4188923 107.017706 23.203896 106.608879 22.9907562 106.201166 22.9710761 106.163662 22.951396 106.12653 22.9317158 106.088655 22.9358004 106.097938 22.9395136 106.10685 22.9428555 106.115761 22.9395136 106.10685 22.9358004 106.097567 22.9317158 106.088655 22.9298592 106.085684 22.9283739 106.082342 22.9268886 106.079372 22.8990393 106.013276 22.8711901 105.947181 22.8437121 105.881456 22.8425982 105.879228 22.8414842 105.877 22.8407415 105.874401 22.8529952 105.902993 22.8652489 105.932328 22.8775026 105.960548 22.8637636 105.928614 22.8500246 105.896309 22.836657 105.864375 22.5793298 105.201563 22.3246018 104.53875 22.0873261 103.868883 21.8333408 103.150743 21.6202011 102.421464 21.4300835 101.685872 21.2518482 100.995581 21.0966349 100.29935 20.9529327 99.6016327 20.7977195 98.8575004 20.6484474 98.1103974 20.5452195 97.3592099 20.5459621 97.3655224 20.5467048 97.3718349 20.5474474 97.3781474 20.5032599 97.041357 20.4613004 96.7041952 20.4148849 96.3670335 20.3974327 96.2378129 20.2741533 96.1074783 20.1668408 96.045096 20.0829217 95.9964526 19.9871202 95.9712026 19.8913187 95.9712026 19.8437893 95.9712026 19.7962599 95.9775151 19.7505871 95.9897687" transform="translate(206 66.149)"/><path d="M16.9162004 94.5651118C16.9017188 94.5710529 16.8876085 94.5766228 16.8731268 94.5821926 16.8872371 94.5762515 16.9017188 94.5706816 16.9162004 94.5651118M16.8786967 92.5139206C16.8883511 92.5258029 16.8976342 92.5376853 16.9072886 92.5495676 16.8965202 92.5384279 16.8872371 92.5265456 16.8786967 92.5139206M16.6495901 91.8366265C16.1360496 91.9339132 15.5779504 92.2209463 15.554557 92.812836 15.5460165 93.0404574 15.6343915 93.2565676 15.7940607 93.4162368 15.8984026 93.5194647 16.0198254 93.5647662 16.147932 93.6122956 16.199546 93.635689 16.2519026 93.6579684 16.3046305 93.6791338 16.246704 93.7244353 16.1958327 93.7753066 16.1464467 93.8425162 16.0421048 93.9847331 15.956329 94.1733654 16.0261379 94.353086 16.0870349 94.5142404 16.1798658 94.644575 16.2767812 94.7853066 16.4449908 95.0292662 16.7513327 95.1391779 17.0223989 94.9813654 17.1850386 94.8851926 17.2942077 94.6906191 17.2953217 94.4990162 17.8181452 94.4644831 18.3461673 94.4904757 18.8697335 94.5417184L18.9284026 94.5591706C19.0776746 94.6041007 19.227318 94.6460603 19.3795607 94.6809647 19.4664504 94.6969316 19.5548254 94.7114132 19.6420864 94.7199537 19.7653658 94.7288654 19.8797335 94.7099279 20.0018989 94.6909904 20.0416305 94.6846779 20.0798768 94.6727956 20.1147813 94.6568287 20.2722224 94.7496596 20.425579 94.8491743 20.5733658 94.9561154 20.9313217 95.2420346 21.2822224 95.5383507 21.6334945 95.8339243 21.9832813 96.1287551 22.2981636 96.4770566 22.586682 96.8342699 22.7374393 97.0403544 22.8815129 97.2520088 23.0359835 97.4558654 23.2654614 97.761836 23.4960533 98.0707772 23.7032518 98.3927147 23.9442408 98.7655235 24.1558952 99.1542993 24.341557 99.5590419 24.5186783 99.9418765 24.6924577 100.329167 24.8955717 100.699005 25.100171 101.070329 25.3133107 101.433112 25.4859761 101.818917 25.6731232 102.238141 25.8587849 102.65588 26.0444467 103.074733 26.2445901 103.528862 26.4722114 103.961082 26.7232261 104.389218 26.8698989 104.638376 27.041079 104.873424 27.2133732 105.104016 27.4109173 105.365057 27.612546 105.633524 27.8342261 105.875626 28.0083768 106.068715 28.1751011 106.274799 28.3622482 106.456005 28.5464246 106.63424 28.7250313 106.827329 28.9192335 106.994053 29.202182 107.235042 29.4806746 107.474174 29.7781048 107.697711 30.236318 108.045641 30.7019577 108.383546 31.1761379 108.709939 31.6128143 109.008854 32.2581746 108.881119 32.6150165 108.524277 33.0561489 108.083516 33.0936526 107.281457 32.6150165 106.846266 32.0869945 106.366145 31.5418915 105.904961 31.0268658 105.410358 30.4464871 104.853744 29.8895018 104.274851 29.3852445 103.647314 29.0298879 103.157538 28.7272592 102.637314 28.4625055 102.091468 28.2579063 101.667788 28.0663033 101.235568 27.8721011 100.806318 27.6979504 100.420513 27.5037482 100.057729 27.2876379 99.6938324 27.0641011 99.3150824 26.8624724 98.9266779 26.6608438 98.5364169 26.5665276 98.356325 26.4826085 98.1706632 26.3897776 97.9909426 26.2839504 97.7792882 26.160671 97.5821154 26.0370202 97.3804868 25.8327923 97.0466669 25.6047996 96.7332699 25.3727224 96.4187588 24.908568 95.7863949 24.4663217 95.1391779 23.9382996 94.5547147 23.7136489 94.3066706 23.4726599 94.0820199 23.2116195 93.8729647 22.878171 93.6048691 22.548807 93.330461 22.1993915 93.0839022 21.6509467 92.7010676 21.031579 92.4429978 20.3947592 92.2484243 20.0613107 92.1470529 19.7115239 92.0642478 19.3680496 92.0133765 18.9488254 91.9524794 18.5336857 91.8641044 18.1133474 91.817689 17.940682 91.7972662 17.7695018 91.7842699 17.5953511 91.7742441 17.511432 91.7697882 17.4256562 91.7653324 17.3417371 91.7612478 17.3135165 91.7597625 17.2856673 91.7590199 17.2581893 91.7590199 17.0539614 91.7590199 16.8501048 91.7983801 16.6495901 91.8366265M66.2732294 92.4838434C66.2438949 92.5536522 66.214189 92.623461 66.1841118 92.6932699 66.2134463 92.623461 66.2431522 92.5532809 66.2732294 92.4838434M72.7030676 84.4903618C72.347711 84.6206963 72.0228029 84.7993029 71.6938103 84.9849647 71.4413103 85.1271816 71.2107184 85.2994757 70.9686154 85.4606301 70.6856669 85.6507478 70.4101449 85.8579463 70.153189 86.0829684 69.8312515 86.3655456 69.5137699 86.6585199 69.2048287 86.95595 68.8784353 87.2723176 68.5940015 87.6016816 68.3229353 87.9655787 68.1064537 88.2555824 67.9137368 88.5645235 67.7600088 88.8909169 67.5988544 89.2355051 67.4655493 89.5897478 67.3233324 89.9413912 66.9152478 90.8726706 66.5331559 91.8162037 66.1555199 92.7593654 65.9475787 93.2387441 65.7307257 93.7136669 65.517586 94.1897037 65.379825 94.4971596 65.302961 94.7786228 65.3957919 95.1165272 65.4782257 95.4165566 65.6798544 95.6764831 65.9483213 95.8342956 66.5257294 96.1725713 67.2464684 95.957575 67.5932846 95.4035603 67.9196779 94.8770235 68.2241632 94.340461 68.5171375 93.7949868 68.850586 93.1756191 69.1131118 92.509836 69.3815787 91.8600199 69.5642699 91.4177735 69.7484463 90.9710713 69.8891779 90.5124868 69.9697551 90.249961 70.051075 89.9885493 70.1491044 89.732336 70.2905787 89.4274794 70.4573029 89.1404463 70.6522478 88.8664096 70.8401375 88.6387882 71.0406522 88.4219353 71.2471081 88.2091669 71.4442809 88.0060529 71.6254868 87.7873434 71.8200603 87.5797735 72.0859279 87.2975676 72.3770456 87.0175897 72.6774463 86.7684316 72.9514831 86.5668029 73.2340603 86.3781706 73.5385456 86.2274132 73.5541412 86.2233287 73.5697368 86.2185015 73.584961 86.2144169 73.9035566 86.1910235 74.2202956 86.1988213 74.5400051 86.2262993 74.7594574 86.2600897 74.9766816 86.29945 75.1935346 86.3410382 75.443064 86.3904243 75.6781118 86.3803985 75.9031338 86.2482074 76.1088471 86.1278985 76.262575 85.9292404 76.3249574 85.6997625 76.4512074 85.2430346 76.1742 84.6656265 75.6825676 84.568711 75.0966191 84.4510015 74.5091853 84.3596559 73.9113544 84.3336632 73.7955015 84.3277221 73.6792772 84.3262368 73.5634243 84.3247515 73.5522846 84.3247515 73.5404022 84.3247515 73.5292625 84.3247515 73.2418581 84.3247515 72.9726485 84.3938176 72.7030676 84.4903618" transform="translate(206 66.149)"/></g></g></svg>