<svg version="1.1" id="Layer_1" xmlns="http://www.w3.org/2000/svg" x="0" y="0" viewBox="0 0 500 600" xml:space="preserve"><style>.st1{fill-rule:evenodd;clip-rule:evenodd;fill:#161616}</style><g id="readinglookingdown"><g id="Group-25" transform="translate(199 63)"><path id="Fill-1" d="M23.1 67.4v0m-.2-2.1s0 .1 0 0v0m-2.6-11.2s0 .1 0 0c0 .1 0 0 0 0m.1-.9l-.3 3c-.1.3-.2.7-.2 1-.1.5-.2 1-.2 1.4-.2 1.2-.3 2.4-.4 3.6-.1 1.1-.1 2.2-.1 3.3 0 .5-.1 1.1-.1 1.6-.1 2.2-.1 4.3 0 6.5 0 2 0 3.9.2 5.9.3 4.5.5 9.1 1.5 13.5.5 2.2 1 4.5 1.6 6.7.3 1.1.6 2.2 1 3.2.1.2.1.4.2.6 0 .1.1.3.1.4.1.4.2.9.4 1.3.1.1.1.3.2.4.1.3.3.7.5 1 .2.3.5.5.9.6.4 0 .7-.2.9-.6.2-.3.3-.7.4-1.1.8 1.8 1.6 3.6 2.5 5.4.3.7.7 1.4 1 2.1.3.5.5 1.1.9 1.6.2.4.6.7 1.1.7.5-.1.8-.3 1.1-.7.3-.6.6-1.2.6-1.8.2-1 .2-2.1-.1-3.1.3.6.6 1.1 1 1.7.5.9 1.1 1.8 1.6 2.7.5.9 1.1 1.8 1.7 2.7 1 1.7 1.9 3.5 3.1 5 .2.3.5.5.7.8.4.4.8 1 1.3 1.3 1.2.7 2.1-.6 2.4-1.6.3-.9.4-1.7.4-2.7 0-1.3-.2-2.5-.9-3.6-.5-.8-1-1.4-1.5-2.1-.6-.7-1.1-1.5-1.7-2.3-1.2-1.6-2.4-3.3-3.6-4.9-1.2-1.6-2.3-3.3-3.4-5-1.1-1.6-2-3.4-2.9-5.2-.9-1.8-1.9-3.5-2.8-5.3-.9-1.8-1.7-3.7-2.4-5.6-.7-1.9-1.3-3.8-1.8-5.8s-.9-4-1.2-6c-.3-2.2-.6-4.4-.8-6.6 0-.2 0-.5-.1-.7v-.2-.4-.2-.3c0-.5-.1-1.1-.1-1.6.1-1.5.2-3 .3-4.4.1-.8.1-1.7.1-2.6v-1.3c0-.8.1-1.6-.1-2.4-.1-.7-.5-2.2-1.5-2.2-1 .1-1.5 1.5-1.5 2.3" fill-rule="evenodd" clip-rule="evenodd" fill="#bebebe"/><path id="Fill-3" class="st1" d="M29.4 66.5s0 .1 0 0c.1.1.1.1 0 0 0 .1 0 .1 0 0M41.8 66.2s.1 0 0 0c.1 0 0 0 0 0m-9.2-.7c.1 0 .1 0 0 0 .1 0 .1 0 0 0M40.4 64.7s0 .1 0 0c0 .1 0 0 0 0m-1.6-.7c-.1 0-.2.1-.3.1-.1.1-.2.2-.4.3-.1.1-.2.2-.3.4l-.3.3h-.1c-.2-.3-.4-.5-.6-.7-.2-.1-.4-.2-.5-.2-.4-.1-.7 0-1.1.2-.2.1-.4.3-.6.4-.1-.1-.2-.2-.3-.2-.1-.1-.2-.1-.3-.1h-.7c-.1.1-.2.1-.3.2-.1.1-.3.2-.4.3l-.3.3-.3-.3c-.4-.3-1-.2-1.4.2-.1.1-.1.2-.2.2-.1-.1-.2-.2-.4-.2-.4-.1-.7.1-.9.4-.1.1-.1.2-.2.3l-.2.2c-.1-.1-.2-.2-.4-.3-.1-.1-.2-.1-.3-.1h-.4c-.1 0-.1.1-.2.1l-.3.3c-.1.2-.2.4-.2.6 0 .2-.1.3-.1.5V67.5c0 .1 0 .2.1.3.1.2.3.3.4.3.2 0 .4-.2.5-.4 0-.1.1-.2.1-.3.1.2.3.4.5.5.3.1.6-.1.9-.3l.3-.3c.1.1.3.2.4.3.3.1.6 0 .8-.1.2-.1.3-.2.5-.4 0 0 .1 0 .1.1.4.3.8.3 1.2.2.2 0 .3-.1.5-.2.1 0 .2-.1.2-.2.2.2.5.3.8.3.3 0 .6-.1.8-.3.2-.1.3-.2.5-.4l.1-.1.3.3.3.3c.1.1.3.1.4.2.1 0 .2.1.3.1h.6c.1 0 .2-.1.3-.1l.6-.3c.2-.1.3-.3.5-.4.1.1.2.1.2.2.5.3 1 .3 1.5.2.4-.1.6-.4 1-.6h.2c.3 0 .5.1.8.2.5.1 1-.2 1.1-.7.1-.5-.2-1.1-.6-1.2-.4-.1-.8-.3-1.2-.4-.2 0-.3-.1-.5-.1-.1 0-.3 0-.4.1-.1 0-.3.1-.4.2l-.1.1c-.1.1-.3.2-.4.3-.2-.2-.3-.4-.6-.5-.1-.1-.2-.1-.3-.1h-.3c.1-.3 0-.3 0-.3"/><path id="Fill-5" class="st1" d="M65.5 64.1c-.2 0-.3.1-.4.2h-.7c-.1-.1-.2-.1-.2-.1-.3-.2-.7-.2-1-.2-.3.1-.5.2-.7.4 0 0-.1 0-.1.1-.1 0-.3 0-.4.1-.1 0-.2 0-.3.1 0 0 0-.1-.1-.1-.1-.1-.3-.3-.4-.3-.4-.1-.8.1-.9.5-.1.3-.1.5-.2.8 0 .1 0 .1-.1.2v.2c0 .2.1.4.2.5.2.2.5.2.7.2.1.2.4.3.7.3.3 0 .6-.1.8-.2.1-.1.2-.1.2-.2.3 0 .5 0 .8-.1.1 0 .1.1.2.1.3.2.7.1 1 .1.3 0 .5-.2.7-.3h.6c.2.1.4.1.5.2h.8c.2 0 .4 0 .5-.1.1 0 .2-.1.2-.1h.4c.1.1.2.1.3.2.2.1.6.2.8.2.4 0 .8-.1 1.1-.3h.1c.2.1.3.2.5.3.3.1.5.2.8.2.4 0 .7-.1 1-.3H73.8c.1.1.3.1.4.1.2 0 .3.1.5.1.4.1.7.2 1.1.3.4.1.7.2 1.1.3.3.1.7.2 1 .3.1 0 .1 0 .2.1s.2.1.3.1c.2.1.4 0 .6 0 .2 0 .3-.1.4-.2.2-.1.3-.4.3-.6v-.3c0-.2-.2-.3-.3-.5-.2-.2-.5-.3-.7-.5-.5-.3-1.1-.5-1.6-.6-.5-.1-.9-.2-1.4-.2-.5-.4-1.2-.4-1.8-.5h-.5c-.3 0-.6-.1-.9-.1-.9-.1-1.8-.2-2.7-.2H69h-.1c-.2-.1-.4-.2-.7-.2-.3 0-.5.1-.7.2h-1.1c-.1 0-.1-.1-.2-.1.1-.2-.1-.2-.3-.2-.1 0-.3 0-.4.1"/><path id="Fill-7" class="st1" d="M37.5 66h-2c-.6 0-1.2.1-1.7.2-.4 0-.7.1-1.1.1-1 .2-2.1.3-3.1.5-.4.1-.6.4-.5.7.1.1.2.3.3.4.2.1.4.1.6.1h.5c.8-.1 1.7-.2 2.6-.4.8-.1 1.6-.1 2.4-.2.7-.1 1.5-.1 2.2-.1H39.6c.8.1 1.5.1 2.3.2.2 0 .3 0 .5.1.3 0 .7.2 1 .1.4-.1.6-.4.6-.7 0-.1 0-.2-.1-.4s-.3-.2-.5-.3c-.2-.1-.5-.1-.8-.2-.3 0-.6-.1-.9-.1h-4.2"/><path id="Fill-9" class="st1" d="M36.6 71c-2 .1-3.9.4-5.8.8-.6.1-.9.7-.7 1.2.2.5.7.8 1.3.7.8-.2 1.7-.3 2.6-.5v.1c-.1.2-.1.4-.1.6v.5c0 .3 0 .7.2 1 .1.3.3.6.6.8.2.2.5.3.7.3.1.1.2.2.4.2l.6.3c.2 0 .4.1.6.1.2 0 .4 0 .6-.1.2-.1.3-.1.5-.2s.3-.2.4-.3c.2-.2.4-.4.5-.6 0-.1.1-.2.1-.2.2-.3.4-.6.4-.9.1-.3.1-.5.1-.8 0-.3-.1-.7-.3-1h.8c.4 0 .8.1 1.2.1.2 0 .4 0 .7.1.4 0 .9.1 1.3 0 .3-.1.7-.4.7-.7.1-.2.1-.3 0-.5s-.2-.5-.5-.6c-.1-.1-.2-.1-.4-.1s-.4 0-.6-.1h-5c-.2-.2-.6-.2-.9-.2"/><path id="Fill-11" class="st1" d="M37.7 75.2c0 .1 0 0 0 0m.8-.7c.1 0 .1.1.1.1 0 .1.1.1.1.2s0 .1.1.2v.2c0 .1-.1.2-.1.3-.2-.1-.5-.2-.7-.3-.1 0-.2-.1-.3-.1V75c.1-.1.1-.2.2-.3l.1-.1h.1c.2-.1.3-.1.4-.1m1-3.5c-.1 0-.2 0-.3.1h-.1c-2.2 0-4.3.2-6.4.6-.7.1-1.4.3-2 .5-.3.1-.6.1-.9.3-.1.1-.3.1-.4.2l-.2.2c-.2.2-.2.3-.2.5.1.2.3.4.5.4.4 0 .8-.1 1.2-.1.3 0 .5-.2.5-.5h.1c.6-.1 1.1-.2 1.7-.3.5-.1 1-.1 1.5-.2h.5c.4 0 .7 0 1.1-.1-.1.1-.2.1-.2.2l-.1.1c-.3.3-.6.7-.9 1.1-.2.3-.4.7-.5 1.1-.1.4-.2.8-.2 1.2 0 .2-.1.4-.1.6 0 .1 0 .3.1.4.1.2.1.3.2.5.1.3.4.5.7.7.1 0 .1.1.2.1.2.1.4.1.5.2.5.1 1.1.2 1.6.1.3 0 .7-.1 1-.2l.9-.3c.3-.1.6-.4.9-.6.5-.4.9-1 1.1-1.6 0-.1.1-.2.1-.4.1-.2.1-.5.1-.8 0-.3 0-.6-.1-.9-.1-.5-.4-1-.8-1.4.5.1 1 .1 1.5.2.9.1 1.9.2 2.8.2h.1c.6 0 1-.5 1-1 0-.3-.1-.5-.3-.7-.2-.2-.4-.3-.7-.3h-1.4c-.5 0-1-.1-1.5-.1s-1-.1-1.5-.1h-.3c-.2.1-.5.1-.8.1"/><path id="Fill-13" class="st1" d="M69.10000000000001 71.10000000000001c-.1 0-.2.1-.3.1l-.6.3c-.2.1-.4.3-.5.4-.7 0-1.4 0-2 .1-.7 0-1.5.1-2.2.2-.4.1-.7.1-1.1.2-.4.1-.8.3-1.1.4-.2.2-.3.4-.3.6 0 .3.2.5.4.6.1.1.2.1.4.1.3.1.7-.1.7-.4.4-.1.8-.2 1.1-.2.7-.1 1.3-.2 2-.2h.7l-.1.1c-.2.2-.3.4-.4.5-.1.1-.2.3-.2.4-.2.4-.4 1-.4 1.5s.2.9.4 1.3.6.7.9 1c.7.5 1.6.8 2.5.9.4 0 .8 0 1.2-.2l.6-.3c.2-.1.3-.2.5-.4.1-.1.2-.2.2-.3.1-.1.2-.3.3-.4.1-.1.1-.2.2-.3.2-.4.4-.8.5-1.3.1-.4.1-.8.2-1.3v-.9c.5.1.9.2 1.4.4.5.2.9.6 1.5.7h.6c.1 0 .2-.1.3-.1l.4-.4c.1-.1.1-.3.1-.5 0-.3-.2-.7-.5-.9-.2-.1-.4-.2-.6-.2-.2 0-.4-.1-.5-.1-.1 0-.1-.1-.2-.1-.4-.2-.7-.3-1.1-.4-.7-.2-1.4-.3-2.1-.3-.2-.2-.4-.3-.6-.4-.1-.1-.3-.1-.4-.2-.4-.1-.6-.1-.8-.1H70c-.3 0-.6.1-.9.1"/><path id="Fill-15" class="st1" d="M68 71.1c-1.1.1-2.1.3-3.1.5-.3.1-.6.1-.9.2-.2.1-.5.2-.7.3-.1.1-.2.1-.3.2-.1.1-.2.3-.3.4v.2c-.5.1-.9.2-1.4.2-.4.1-.4.7 0 .8.1 0 .3.1.4.1h.4c.2 0 .5 0 .7-.1.2 0 .4 0 .5-.1h.5c.3 0 .6-.1 1-.1s.9-.1 1.3-.1c.3 0 .6-.1.9-.1.8 0 1.7-.1 2.5 0h1.4c.4 0 .9.1 1.3.1h.2c.3.1.6.2.9.2.6.2 1.3.4 1.9.6.2.1.5.2.7.3.1.1.2.1.3.2.5.2 1 .2 1.4-.2.2-.2.3-.5.3-.8 0-.3-.1-.6-.3-.8-.2-.2-.4-.3-.6-.5l-.6-.3c-.5-.2-1-.4-1.6-.6l-1.2-.3c-.8-.2-1.6-.3-2.4-.4h-1.6c-.5 0-1 0-1.6.1"/><path id="Fill-17" class="st1" d="M48.5 72.4c-.2.2-.5.7-.4 1 .2 1.9.3 3.9.5 5.8.1 1.6.1 3.1 0 4.7-.1.9-.2 1.7-.3 2.6-.2 1.2-.3 2.4-.5 3.6-.2 1.1-.4 2.2-.6 3.4 0-.1 0-.3.1-.4-.1.5-.2 1-.3 1.6 0 .5.2 1.1.5 1.4.2.2.4.4.6.5.3.1.5.2.8.3 1 .2 2 .1 3-.1.8-.2 1.3-1.1 1-1.9-.1-.4-.4-.7-.7-.9-.1-.1-.2-.1-.4-.2-.3-.1-.5-.1-.8 0h-.9c0-.2 0-.4.1-.6.1-1 .3-2 .5-3.1.2-1.4.4-2.7.5-4.1.1-1.2.2-2.3.2-3.5 0-1.2 0-2.4-.1-3.6-.1-1.8-.3-3.6-.5-5.5 0-.4-.1-.7-.4-1-.3-.3-.6-.4-1-.4s-.7.2-.9.4"/><path id="Fill-19" class="st1" d="M23.7 52.3c2.1-.9 4.3-1.8 6.4-2.8 2-.9 4-1.9 5.9-2.9l.2-.1h.1l.4-.2c1.9-.9 3.8-1.9 5.7-2.9 1.9-1 3.9-2.1 6.4-3.5 1.4-.8 2.6-1.6 3.9-2.4.7-.4 1.3-.8 2-1.2.4-.2.7-.4 1.1-.6h.1c0 .1.1.2.1.3.2.5.4 1.1.7 1.6.2.3.4.5.5.8.2.3.4.5.7.7.3.3.7.4 1.1.6.3.1.7.2 1 .2.5.1.9.1 1.3.1h.4c.5 0 1 0 1.5-.1 1-.1 2.3-.3 3.5-.5.5-.1 1-.2 1.3-.3.1 0 .2-.1.3-.1.2 0 .3-.1.5-.1.1.2.2.3.3.5v.1l.1.2c.2.4.4.7.6 1.1l.2.4c.5.8 1 1.7 1.5 2.5.7 1 1.5 1.8 2.4 2.5.7.5 1.4 1 2 1.4l.9.6c.1.1.2.1.3.2h.1c.3.2.6.3.8.5.3.3.7.6 1 1 .2.2.3.5.4.7.2.6.4 1.3.5 1.9l.1.5c.2.9.5 1.7.9 2.6.2.3.4.7.7 1.1.3.4.7.8 1 1.2.4.4.8.8 1.2 1.1.5.5 1 .9 1.6 1.4h.1c.3.2.6.5.8.7.6.6 1.2 1.2 1.8 2 .5.6.9 1.3 1.3 1.9v3c0 .3 0 .5-.1.8v.3c0 .2 0 .5-.1.7v.4c-.1.8-.1 1.6-.2 2.3-.1.5-.1.9-.2 1.4 0 .1-.1.3-.1.4v1c-.1.7-.2 1.2-.3 1.7-.1.6-.2 1.1-.3 1.6l-.1.5c-.1.6-.2 1.2-.4 1.9-.1.7-.3 1.5-.4 2.2-.3 1.6-.7 2.9-1 4.2-.2.8-.4 1.5-.7 2.3-.2.6-.4 1.2-.5 1.8-.2.7-.4 1.2-.5 1.7v.2c-.2.5-.3 1-.5 1.4-.1.4-.3.8-.4 1.2v.1c-.1.2-.1.4-.2.6h-.5c-.2 0-.5 0-.8.1-.5.1-.9.3-1.5.6-1 .6-1.9 1.3-2.7 2.1-.7.6-1.2 1.3-1.8 2l-.2.3c-.7.9-1.4 1.8-1.9 2.6-.4.5-.8.9-1.2 1.4-.2.2-.4.5-.6.7-.2.2-.4.5-.6.7-.4.5-.8 1-1.3 1.5-.5.6-1.1 1.2-1.7 1.7l-.3.3-1.1 1.1c-.5.5-1 1.1-1.6 1.6-.4.3-.9.6-1.4.9-.3.1-.6.2-.9.2-.5.1-1.1.1-1.6.1h-1.9c-.3 0-.6-.1-.9-.2-.5-.1-1-.3-1.4-.5-.5-.2-.9-.3-1.3-.4-.4-.1-.8-.1-1.3-.1h-.6c-1.4.1-2.8.4-4.1.6l-1.8.3c-.6.1-1 .1-1.4.1h-.5c-.5 0-1 0-1.4-.1-.6-.1-1.2-.3-1.8-.5-.3-.1-.6-.3-.9-.6-.6-.5-1.1-1-1.6-1.4-.4-.4-.9-.8-1.4-1.3l-.2-.2c-.3-.2-.5-.5-.8-.7-.3-.2-.5-.5-.8-.7-.5-.5-1.1-1-1.6-1.5-.4-.4-.9-.8-1.4-1.3l-.9-.9c-.3-.3-.6-.6-1-.9-.4-.3-.8-.7-1.4-1-.3-.2-.7-.4-1.1-.6h-.1c-.8-.4-1.6-.8-2.8-1.1-1-.2-2-.4-2.9-.6h-.5c-.4-1-.7-1.9-.9-2.7-.4-1.4-.9-2.7-1.3-4.1-.4-1.4-.7-2.9-1-4-.3-1.3-.5-2.6-.7-4.2-.1-.5-.1-1-.2-1.5 0-.4-.1-.8-.2-1.2-.1-.9-.2-1.9-.3-2.8-.1-.9-.1-1.9-.2-2.8v-.6c0-.3 0-.7-.1-1-.1-1-.2-1.9-.2-2.9 0-.5-.1-1-.1-1.5-.1-1.4-.1-2.7-.1-4.3V67 64.3c.1-1.4.1-2.8.3-4.2.2-1.1.4-2.2.6-3.2.1-.5-.1-1-.4-1.3v-.1c0-.1.1-.3.1-.4v-.2c.1-.2 0-.4-.1-.5.3 0 .5-.3.5-.5.4-.2.9-.3 1.3-.4l.6-.2c.3-.1.5-.2.8-.3l.3-.1.4-.1c.1-.3.4-.4.7-.5M67 2h-.1c-.4 0-.7 0-1.1.1h-.2c-2.3.2-4.7.5-7.6 1-1.3.2-2.5.4-3.8.7l-1.5.3c-.2 0-.4.1-.5.1-.4.1-.8.2-1.2.2-.4.1-.9.1-1.3.2l-.4.1-1 .2-.8.1h-.1c-.9 0-1.6.1-2.4.1-.8.1-1.5.1-2.3.2h-1.5c-1.2 0-2.6.1-3.9.1h-1.7c-1.3.1-2.6.2-3.8.7-.4.2-.8.5-1.1 1.1-.1.1-.1.3-.2.4v.1c-.3.3-.4.5-.5.7l-.1.3c-.3.7-.6 1.3-1 2l-.4.8c-.8 1.7-1.7 3.4-2.8 5-.4.5-1 1.1-1.6 1.5-.4.3-.9.6-1.5 1l-1.5.9-1.7.9c-.6.3-1.2.6-1.7.8l-.1.1-.6.3-1 .3-.6.3c-.5.2-1.1.4-1.5.6-1 .3-2 .7-3.3 1.1l-.6.1c-.4.1-.9.3-1.3.4-.6.2-1.1.4-1.5.6-.2.1-.4.3-.6.4-.2.2-.4.4-.4.5v.1c-.1.1-.1.3-.2.4v.7c0 .3.1.6.1.9v.1c0 .1 0 .2.1.3.1.3.1.6.2 1s.2 1 .4 1.6c.1.5.2.9.4 1.3 0 .1.1.3.1.4.1.3.2.6.3 1v.7c0 .2-.1.5-.2.8v.1l-.2.2-1 .7-.5.3c-.5.3-.9.7-1.4 1-.1.1-.3.2-.4.3l-.9.6h-.1c-.5.3-1 .7-1.5 1l-.4.3c-.4.3-.8.7-.9 1.1-.1.5-.1 1-.1 1.5.1.6.1 1.2.2 1.8.1.6.1 1.1.2 1.6l.1.4c.1.4.1.8.2 1.2 0 .2.1.4.1.6 0 .1.1.3.1.4v.1c.1.1.1.2.1.2l.3 1.2c.1.4.2.8.4 1.2l.1.6c.3 1.1.8 2.3 1.2 3.4 1 2.4 2.2 5.3 4 7.8.7 1 1.6 1.9 2.3 2.6l.3.2.1.1.8.8.5.4c.5.4.9.9 1.4 1.3.4.3.7.7 1.1 1 .4.3.8.6 1.1.9.3.3.8.5 1.3.8v2.6c.1 1.2.1 2.5.1 3.7.1 2.6.3 5.4.7 8.5.4 2.7.8 5.7 1.6 8.6.9 3 1.7 5.6 2.6 8 .4 1 .9 2 1.5 3 .2.4.4.7.6 1.1v.1c.3.5.6 1.1.9 1.6l.2.4.9 1.5c.2.4.5.7.7 1 .1.2.3.4.5.6.1.1.2.2.2.3l1.5 1.8.2.2c.4.5.9.9 1.3 1.4.5.5 1.1 1.1 1.6 1.5l.1.1c.5.5 1 1 1.6 1.4.7.6 1.3 1.1 1.9 1.4l1.1.7c.6.4 1.3.7 1.8 1l.2.1c.7.4 1.5.7 2.2 1 .3.1.7.3 1 .4.2.1.5.2.7.3l.2.1c.2.1.5.1.7.2.1 0 .2.1.3.1.2.1.5.1.7.2.1 0 .3 0 .4.1l1.5.3.6.1c1 .2 2.2.4 3.4.4h.2c1 0 2-.1 3-.2h.2c.5 0 .9-.1 1.4-.1 1.5-.1 3-.2 4.6-.5 1.6-.3 3-.5 4.3-.8.8-.2 1.6-.6 2.2-.8.1-.1.2-.1.3-.2.2-.1.5-.2.7-.3l.6-.3.6-.3c.2-.1.4-.3.6-.4l.1-.1.2-.2c1.3-.9 2.6-1.9 3.6-2.8 1-.8 2.1-1.8 3.1-2.9 1.2-1.3 2.1-2.3 2.9-3.3 1-1.2 1.9-2.6 2.7-3.8l.1-.2c.4-.6.7-1.1 1-1.6.4-.6.7-1.3 1.1-1.9.3-.5.5-1 .7-1.4l.2-.5.3-.6.1-.1c.2-.4.3-.7.5-1.1l.1-.2.9-2.1.3-.9.1-.2.3-.9c.2-.7.5-1.4.7-2 .2-.6.5-1.3.6-1.9l.6-2.1.1-.3c.2-.6.4-1.2.5-1.7.2-.8.4-1.7.7-2.8h.1c.2 0 .4-.1.6-.2.6-.3 1.1-.7 1.5-1l1.5-1.2c.9-.7 1.7-1.5 2.8-2.4l.2-.2.1-.1.4-.5.4-.5c.4-.4.7-.8 1-1.1l.2-.2c.1-.2.3-.3.4-.5.4-.3.7-.6 1-.8.2-.2.4-.4.7-.6l.1-.1c.1-.1.3-.3.4-.5.1-.1.1-.2.2-.3.6-.7 1-1.4 1.4-2.1.6-1.1 1.1-2.3 1.8-3.9.2-.4.3-.8.5-1.2.2-.4.3-.9.4-1.5l.3-1.8c.1-.6 0-1.2 0-1.7-.1-1-.2-2-.4-2.9l-.1-.7c-.1-.7-.1-1.4-.1-2.1v-1.1c0-.7.1-1.3.1-1.9.1-1.2.2-2.4.4-3.5v-.3c.1-.5.1-1 .2-1.4V49c.2-1.4.1-2.8-.1-4.4-.1-.8-.2-1.6-.5-2.3-.2-.4-.3-.8-.5-1.1-.2-.5-.4-.9-.6-1.4-.4-.9-.8-2-1.2-3.1-.3-.9-.6-2-.9-3.3-.2-1-.4-2-.5-2.8l-.1-.7c-.2-1-.3-2.1-.8-3.1-.4-1-1.2-1.7-2-2.4l-.2-.2-.4-.4c-.3-.2-.5-.4-.8-.6-.6-.5-1.2-.8-1.8-1.2-.9-.5-1.8-1-2.7-1.4l-.5-.2c-1-.5-2-.9-2.9-1.4l-.4-.2-1.2-.6-.6-.3c-.5-.3-.8-.5-1.2-.7l-.8-.5-.5-.7c-.7-.4-1.3-.9-2.1-1.5s-1.5-1.3-2.4-2.2l-.3-.3-.9-.9c-.7-.8-1.5-1.7-2.4-2.7l-.1-.1-.1-.1c-.8-1-1.7-1.9-2.6-2.9-1.3-1.4-2.7-2.4-4.3-3-.6-.1-1.4-.3-2.3-.3"/><path id="Fill-21" class="st1" d="M43.1 64c-.8 0-1.5.1-2.3.1h-1.6c-.4 0-.9.1-1.3.1-1 .1-1.9.2-2.8.4h.3c-.3 0-.5.1-.8.1-.1 0-.2.1-.2.1-1.3.2-2.6.4-3.9.7-.8.2-1.5.3-2.3.5h-.4s-.1 0-.1.1c-.1 0-.2.1-.4.1h-.5c-.3.1-.6.2-.8.3-.2.1-.3.2-.5.2-.3.3-.5.7-.5 1 0 .1 0 .2.1.3v.1c0 .2.1.4.3.6.3.3.7.3 1 .1.2-.1.5-.3.7-.4.2 0 .4-.1.5-.1.3-.1.6-.1.9-.2.8-.2 1.6-.3 2.4-.5.8-.2 1.7-.3 2.5-.4l2.1-.3 2.4-.3c.5 0 .9-.1 1.4-.1.6 0 1.2-.1 1.8-.2.2 0 .3-.1.5-.3h2.2c.2.2.5.4.8.4h.5c.2 0 .3-.1.4-.2h.1c.2-.1.3-.2.4-.4.1-.2.2-.3.2-.6 0-.2-.1-.4-.2-.6l-.4-.4c-.2-.1-.3-.1-.5-.2-.2 0-.4-.1-.6-.1h-.2c-.5.1-.9.1-1.2.1"/><path id="Fill-23" class="st1" d="M59 65.2c0 .7.5 1.2 1.2 1.2 1.2.1 2.4.1 3.6 0h4.8c.5 0 1 0 1.5.1l1.9.1c.5 0 .9.1 1.4.2.4.1.8.1 1.3.2.4.1.9.1 1.3.3.1.1.2.2.3.2l.6.3c.3.1.7.1 1 .1.5 0 .9-.4 1-.8.1-.6-.2-1.3-.8-1.4-.2 0-.3-.1-.5-.1-.1 0-.1-.1-.2-.1-.1-.1-.3-.2-.4-.3-.2-.2-.5-.2-.7-.3-.3-.1-.6-.1-.8-.2-.7-.1-1.3-.2-2-.3-.5-.1-1.1-.1-1.6-.2-.6 0-1.3-.1-1.9-.1-1.3 0-2.5-.1-3.8-.1h-4c-.7 0-1.4 0-2.1-.1-.6.1-1.1.7-1.1 1.3"/><path id="Fill-25" class="st1" d="M46.6 5.8c-.1 0-.2 0-.2.1-.9.2-1.8.4-2.6.6-1 .2-2 .5-3 .7-1.8.4-3.6.7-5.4 1l-3.6.6h-.4-.1c-.3 0-.6.1-.9.1h-.2c.3-.1.6-.1.9-.2 1.9-.4 3.8-.8 5.6-1.2 1.3-.3 2.6-.5 3.9-.7l3.9-.6c.8-.2 1.4-.3 2.1-.4m13.6-4h-.1.1M68.4.1c-.3.1-.7.2-1 .3-.3.1-.6.2-1 .3-.7.2-1.4.3-2.1.5-.7.1-1.4.3-2.1.4-.8.1-1.5.2-2.3.4-1.8.2-3.6.5-5.4.7-1.9.2-3.7.4-5.6.6-2.1.2-4.1.5-6.2.8-1 .1-1.9.3-2.9.5s-1.9.3-2.9.5c-.9.2-1.7.4-2.6.6-.9.2-1.9.4-2.8.6-1 .2-1.9.4-2.9.6-.9.2-1.9.3-2.8.5-.2 0-.4.1-.6.1-.2 0-.4.1-.6.2l-.5.5c-.1.2-.2.5-.2.8 0 .5.3 1 .5 1.3.2.2.3.5.5.7.4.4.8.9 1.3 1.2.4.3.9.5 1.3.7.1.1.2.1.3.2-.1.2-.2.3-.4.5-.3.3-.5.6-.8 1-.3.4-.7.8-1.1 1.2l-1.8 1.8c-1.4 1.4-2.8 2.9-4.2 4.4-.2.2-.4.4-.5.6-.4.4-.4 1.1 0 1.5.4.4 1.1.4 1.5 0l4.1-4.1c.7-.7 1.5-1.5 2.3-2.2.7-.7 1.3-1.4 1.8-2.1.4-.5.8-1.1 1.2-1.6.2 0 .3.1.5.1.6.2 1.1.2 1.7.3.5.1.9.1 1.4.1.6 0 1.2 0 1.8-.2.2-.1.5-.1.7-.3.6-.3.9-1 .7-1.7-.1-.5-.6-1-1.2-1.1-.4-.1-.8-.2-1.2-.4-.6-.2-1.3-.3-1.9-.4.4 0 .8-.1 1.2-.1.5 0 1-.1 1.5-.1.5-.1 1-.1 1.5-.2 2-.3 4-.6 6-1 .8-.2 1.7-.3 2.5-.5 1.1-.2 2.1-.4 3.2-.6 1.8-.4 3.6-.9 5.4-1.3 1.9-.4 3.7-.8 5.6-1.3l2.7-.6c.8-.2 1.7-.4 2.5-.6.8-.2 1.6-.4 2.3-.6.4-.1.7-.2 1-.4.1-.1.3-.1.4-.2.2-.1.4-.2.6-.2.2-.1.4-.2.5-.3.5-.5.6-.7.7-.9.1-.3 0-.7-.1-1-.1-.2-.3-.3-.4-.5-.3 0-.5-.1-.8-.1-.1 0-.2 0-.3.1"/><path id="Fill-27" class="st1" d="M102 23.7v.4c.1-.1.1-.2 0-.4M76.5 6.9s.1 0 0 0c.1 0 0 0 0 0M71.8 1h-.2c-.1 0-.2.1-.3.1-.2.1-.3.3-.3.5-.1.5.1 1.1.3 1.6.4.8 1 1.4 1.6 2 .6.7 1.3 1.3 1.9 2 .3.3.5.6.8.9.4.3.7.6 1.1 1 .7.6 1.5 1.1 2.2 1.6.7.6 1.4 1.1 1.9 1.8.4.5.7 1 .9 1.5.1.4.3.8.4 1.2.1.4.2.9.3 1.3.2.9.3 1.9.5 2.8.5 1.9 1.4 3.7 3 4.9.5.4 1.2.7 1.9.8.4.1.8.1 1.2.2h1.2c1.3-.1 2.5-.4 3.7-.9.8-.3 1.7-.6 2.5-1-.2.3-.3.5-.4.8-.3.7-.6 1.4-.6 2.1-.1.8 0 1.5.2 2.3.1.5.4.9.6 1.3.2.3.4.5.6.8l.1.1c.2.2.5.4.7.4h.1c.3.1.5.1.8 0 .2 0 .4-.1.5-.2.2-.1.3-.2.4-.3.1-.1.3-.3.3-.5.1-.2.2-.4.2-.6 0-.2.1-.4.1-.6v-.3s0 .1.1.1c.3.7.7 1.5 1 2.2.4 1.1.9 2.2 1.3 3.3.2.6.4 1.1.6 1.7.1.3.1.6.2.8 0 .2.1.4.1.7.2 1.8.4 3.7.2 5.5-.2 1.2-.6 2.3-.9 3.5-.3.8-.6 1.7-.9 2.5-.3.9-.7 1.8-1 2.6-.3.9-.7 1.8-1 2.7-.3.9-.7 1.8-1 2.8-.2.6.1 1.3.6 1.6.3.2.7.2 1.1.1.1 0 .2-.1.3-.1.2-.1.4-.3.5-.5.8-1.9 1.6-3.9 2.4-5.9.4-1 .8-2 1.2-3.1.5-1.4 1-2.7 1.4-4.1.4-1.5.5-3 .5-4.5 0-.5 0-1.1-.1-1.6 0-.5-.1-1-.2-1.6-.1-.6-.2-1.1-.3-1.7 0-.2-.1-.5-.2-.7-.1-.2-.1-.4-.2-.7-.3-.9-.7-1.8-1.1-2.7-.4-1-.8-2-1.2-2.9l-.9-1.8c-.4-1-.7-2-.8-3 0-.4-.1-.8-.1-1.2 0-.6-.1-1.1-.2-1.7 0-.3-.1-.6-.2-.9-.1-.4-.3-.7-.6-.9-.2-.2-.3-.3-.6-.4-.2-.1-.3-.1-.5-.1-.3 0-.7 0-1 .2-.1.1-.3.2-.4.3-.1.1-.2.2-.2.3-.2.1-.4.2-.7.3-.7.4-1.5.7-2.2 1-.5.2-.9.4-1.4.5-1.1.4-2.1.8-3.3 1-.5.1-1.1.1-1.6 0-.3-.1-.7-.1-1-.3-.1-.1-.3-.2-.4-.2-.3-.2-.6-.5-.8-.8-.3-.4-.6-.9-.8-1.4-.1-.4-.3-.7-.4-1.1l-.3-1.5c-.1-.5-.2-.9-.3-1.4-.1-.4-.2-.9-.4-1.3l-.6-1.5c-.2-.4-.5-.8-.8-1.2-.3-.4-.6-.8-1-1.1-.3-.3-.7-.6-1.1-.9-.2-.2-.4-.3-.6-.4-.4-.3-.8-.5-1.2-.8-.5-.3-.9-.5-1.4-.8-.5-.3-1-.7-1.5-1L74.3 5c-.3-.3-.6-.5-.9-.8-.5-.5-1.1-.9-1.5-1.5-.2-.2-.3-.5-.5-.7-.1-.1-.1-.3-.1-.5v-.2-.1H71.6c.2 0 .2-.2.2-.4.3.3.2.2 0 .2"/><path id="Fill-29" class="st1" d="M89.8 22c0 .1 0 .1 0 0zM70.4 1.1c-.1 0-.1 0-.2.1-.2 0-.3.1-.5.1-.4.1-.7.2-1.1.3-.5.2-.8.7-.6 1.2.1.5.6.8 1.1.7.5-.2 1.1-.4 1.6-.5 0 0 0 .1.1.1.1.2.3.5.4.7.4.6.7 1.1 1.1 1.6.2.2.4.4.6.7.2.3.4.5.7.8.4.5.7 1 1.1 1.5.8 1.1 1.7 2.1 2.7 3.1.3.4.6.7 1 1 .4.4.9.7 1.3 1.1.6.4 1.1.8 1.7 1.2.2.2.5.3.7.5.2.1.4.2.6.4.6.3 1.2.7 1.8 1 1 .6 2 1.2 2.9 2 .4.3.7.7 1 1 .6.8 1 1.7 1.4 2.7.3.9.6 1.7.7 2.6.1.7.2 1.5.3 2.2.1.7.2 1.5.3 2.2 0 .4.1.9.1 1.3v.4l.3.6c.2.3.6.4.9.4.3 0 .7-.1.9-.4.2-.3.4-.6.4-1v-2.1c0-.7-.1-1.5-.2-2.2-.2-1.7-.5-3.3-1.1-4.9-.7-1.8-1.6-3.5-2.9-4.8-.4-.4-1-.8-1.4-1.1l-.9-.6c-.5-.4-1.1-.7-1.6-1-1.2-.6-2.4-1.3-3.5-2L80 10.5c-.6-.5-1.1-1.1-1.6-1.6-.5-.4-.9-.9-1.3-1.3-.2-.6-.6-1.1-1-1.6-.2-.2-.4-.5-.6-.7l-.6-.6c-.4-.5-.9-.9-1.3-1.4-.3-.4-.7-.8-1-1.3-.1-.1-.2-.3-.4-.5-.1-.1-.1-.2-.2-.2-.2-.1-.3-.2-.5-.3H71c-.2 0-.4.1-.6.1z"/><path id="Fill-31" class="st1" d="M86.2 16.1c-.2.1-.4.2-.7.3-.2.1-.3.2-.5.2-.2.1-.4.3-.6.5l-.1.1c-.1 0-.2 0-.3-.1-.2 0-.4 0-.6.1-.2.1-.3.3-.4.5-.1.4.1.9.6 1l6.3 1.2c.2 0 .4 0 .6-.1.2-.1.3-.3.4-.5.1-.5-.2-.9-.6-1-.7-.2-1.5-.5-2.2-.7-.3-.1-.6-.2-1-.2-.1 0-.2 0-.3-.1.3-.2.5-.7.3-1-.1-.2-.3-.3-.4-.3h-.2c-.1 0-.2 0-.3.1"/><path id="Fill-33" class="st1" d="M85.1 18s.1 0 0 0c.1 0 0 0 0 0m.2-1.9c0 .1-.1.2-.1.3v.5h-.1c-.1 0-.1.1-.2.3v.4c0 .1.1.2.1.3 0 .1.1.2.1.3.1.2.1.3.1.5 0 .3 0 .6.1.9 0 .1.1.2.1.3 0 .1.1.1.2 0 0 0 .1-.1.1-.2 0 0 .1 0 .1-.1.1-.1.1-.3 0-.4 0-.1-.1-.1-.1-.2 0-.5-.1-.9-.1-1.4 0-.2 0-.4-.1-.7v-.5-.2c0-.2-.1-.4-.2-.4.1.2 0 .3 0 .3"/><path id="Fill-35" class="st1" d="M21.5 94.5c-.2.2-.3.3-.4.6-.1.1-.1.3-.1.5v.1c0 .2 0 .3.1.4v.2c0 .1.1.2.1.3.4 1.1 1 2.2 1.6 3.2l.9 1.5c.3.5.6 1 1 1.5l-.2-.2c.1.1.2.2.2.3l.3.3c.4.3 1 .2 1.3-.2.1-.1.2-.2.2-.4.4.6.8 1.2 1.2 1.7.5.7 1.1 1.4 1.6 2.1.4.5.7.9 1 1.4.1.2.2.4.4.6.3.5 1.1.7 1.6.4.2-.1.3-.2.4-.4l1.2 2.4c.2.4.4.8.6 1.1.2.4.5.9.7 1.3.3.5.9.7 1.5.6.3-.1.6-.3.8-.6.2-.3.2-.7.1-1-.2-.6-.4-1.3-.7-1.9-.3-.7-.5-1.3-.9-1.9-.5-1.1-1.1-2.2-1.7-3.2-.6-1-1.2-2-1.7-3-.3-.5-.6-1-.9-1.6-.3-.6-.7-1.1-1-1.6-.4-.6-.9-1.1-1.3-1.6s-.8-.9-1.2-1.4c-.4-.5-.9-.9-1.5-1.2-.6-.3-1.1-.6-1.8-.7-.4-.1-.7-.1-1.1-.1-.3 0-.6-.1-.8-.1h-.1c-.3.1-1 .2-1.4.6"/><path id="Fill-39" class="st1" d="M50.4 102.1c-.3.1-.7.3-.9.5-.3.2-.5.5-.7.9-.2.3-.4.7-.5 1.1-.2.4-.2.9-.2 1.3V106.5c0 .2.1.4.1.6.1.4.1.7.3 1 .2.4.4.7.6.9.1.1.3.2.4.4.2.2.5.3.7.4.1.1.4.1.5.1h.6l.9-.3.9-.6c.3-.3.6-.7.7-1.1.2-.4.2-.8.2-1.3 0-.4-.1-.8-.2-1.2-.1-.3-.2-.7-.3-1-.1-.2-.2-.5-.3-.7v-.1c-.1-.3-.3-.6-.6-.9-.2-.3-.6-.5-.9-.6-.1-.1-.4-.1-.5-.1h-.1c-.3 0-.5 0-.7.1"/><path id="Fill-41" class="st1" d="M23.2 56.5c-.1 0-.1 0 0 0-.1 0-.1 0 0 0-.1 0-.1 0 0 0m2.3-1c-.1 0-.2.1-.3.1.1 0 .2 0 .3-.1m34.9-27c-.1.1-.2.2-.2.3l-.7.7-1.3 1.3c-.3.3-.6.5-.9.8L56 32.8c-.3.3-.7.6-1 .9l-1.3 1.1c-.7.6-1.5 1.2-2.2 1.8L48.2 39c-1.4 1-2.7 2-4.1 2.9-.6.4-1.2.9-1.8 1.2-.8.5-1.7 1.1-2.5 1.6-.7.5-1.5.9-2.3 1.3v-.1c.1-.4.1-.8-.2-1.2-.2-.3-.5-.6-.9-.7-.1 0-.3 0-.4-.1-.3 0-.5.1-.8.2-1.3.6-2.6 1.4-3.9 2-1.4.8-2.8 1.5-4.3 2.3-2.8 1.5-5.6 3-8.4 4.6-.6.3-1.2.7-1.8 1-.4-.1-.9 0-1.2.4-.3.3-.6.7-.6 1.2v.3c-.3.1-.6.3-.9.4-.2.1-.5.2-.7.3-.1 0-.3.1-.4.1-.4.1-.7.4-.9.7-.2.4-.3.8-.2 1.2.2.8 1.1 1.3 1.9 1.1.1 0 .3-.1.4-.1.2 0 .3-.1.5-.1.1 0 .1 0 .2.1.6.1 1.2.2 1.7.3.5.1 1.1.1 1.6.1.6 0 1.2-.1 1.7-.2.6-.1 1.2-.2 1.8-.4 2.2-.6 4.3-1.4 6.4-2.4 3-1.4 5.8-3 8.6-4.8 1.4-.9 2.7-1.7 4-2.6 1.4-1 2.7-1.9 4.1-2.9 1.4-1 2.7-2 4.1-3 .6-.4 1.1-.9 1.7-1.3.6-.5 1.3-1 1.9-1.5.6-.6 1.3-1.1 1.9-1.7.3-.2.5-.5.8-.8l.9-.9c.2-.2.5-.5.7-.8.3-.4.7-.7 1-1.1.5-.6 1.1-1.2 1.6-1.8.5-.6 1-1.2 1.6-1.7.5-.5 1-1.1 1.4-1.6.1-.1.2-.2.2-.3.1-.2.2-.5.2-.8 0-.4-.2-.8-.5-1.1s-.4-.3-.8-.3-.9.2-1.1.5"/></g></g></svg>