<svg xmlns="http://www.w3.org/2000/svg" viewBox="0 0 500 600"><path d="M242,201.7c7.6,4.1,12.7,5.9,15.1,5.3,10.9-2.6,9.8-6.8,10.9-6.4.5,4.6,4.6,9.4,10.9,15-7.2,15.3-35.2,14.6-43.7-2.2C240.8,208.9,244,207.8,242,201.7Z" fill="#bda48e" fill-rule="evenodd"/><path d="M204.8,340.5c12.4-4.9,21.3-8.5,19.6,1.5-.5,3-4.2,8.1-5.9,12.5s-2.3,10.3-2.6,10.7C211.6,369.3,208.6,351.6,204.8,340.5Z" fill="#bda48e" fill-rule="evenodd"/><path d="M233.1,547.5q-26.7,24.4-26.7,26.7c-.6,20.9,18.1,9.8,40.2-.9,14.2-.3,22.7-2.8,18-17C270.2,552.5,242.5,549.7,233.1,547.5Z" fill="#161616" fill-rule="evenodd" opacity="0.5" style="isolation:isolate"/><path d="M273.3,555.3c-10.8,20.4-5.2,13.2,7.9,21.1,0,0,1.6,11.4,8.7,17.8,4.4,3.4,25.4,2.6,20.6-8.1-1.7-6.1-8.5-16.7-20.6-31.7Z" fill="#161616" fill-rule="evenodd" opacity="0.5" style="isolation:isolate"/><path d="M308.2,338.3c9.6.7,15.9.6,9.4,8.4-2.4,3.6-1.6,9.3-3.6,11.6s-4.7,5.1-4.7,2.1S308.9,351,308.2,338.3Z" fill="#bda48e" fill-rule="evenodd"/><path d="M234.7,213.4c-23,8.5-35.2,13.5-36.4,14.9-6.5,11.8-24.9,66.3-4.9,99.9-14.2,6.7-11.7,5.5,0,15.7l24.2-5.8.6,17.3c40.5,17.4,47.6,16,91.1,2.9l-3.2-40.5c1.8,30,7.9,10.4,21.3,26.1,1.9-1-2.6-33.3-1.8-34.5s-2.8-13.9,3.5-15.9c2.6-.9,1.5-20.9-8.7-61-.8-9.3-35.4-13.6-41.5-16.9C268.5,231.3,245,230.1,234.7,213.4Z" fill="#8b9fdc" fill-rule="evenodd"/><path d="M233.1,542.7c20.1-3,30.1-3.3,30.1-1s2.2,12.2-5.5,12.2-22.5,1-22.5-2S234.5,546.8,233.1,542.7Z" fill="#bda48e" fill-rule="evenodd"/><path d="M272.1,541.9q-1.1,12.9,0,12.9c1.2,0,15.6,1.5,16.3-.9C292.9,540.8,292.9,546.6,272.1,541.9Z" fill="#bda48e" fill-rule="evenodd"/><path d="M322,287.6c-2.9,2.8-5.2,6.7-8.3,9.6-1.5,2.7-8.4,6.2-6.7,9.2,3.7,1.6,7.3-6.1,10.2-8.1,1.2-2,10.8-10.3,4.8-10.7" fill="#161616" fill-rule="evenodd"/><path d="M212.9,584.6c-3,.1-4.1-2.8-4.5-5.2-.4-4.2,2.6-7,5.8-9a120.3,120.3,0,0,0,20.7-17.8c1.5,5.8,15.9,3.3,20.7,3.3,2,.1,6.8-2.1,7.8-.5-1,5.2-.4,10.7-2.6,15.7-3.3.8-6.4,1.3-9.8.5-11.6-2.9-24.9,14.9-38.1,13Zm61.9-32.3c.2-1.1.4-2.2.5-3.2a74.9,74.9,0,0,0,12.5.7c-3.9,8,2.6,4.8,7.4,15.3,4.9,8.5,11.1,16.6,12,26.7-3.8,3.3-10.6,4.6-15.1,1.8-9.9-7-5.6-16.2-9.7-19s-7.4-1.8-10.6-3.8c.9-3.8,2.4-7.3,3-11.3a2.1,2.1,0,0,0,.7-1.5c2.9-1.3,8.8.9,9.6-3.1-.8-4.3-7.7-1.4-10.6-1.4l.3-1.2ZM257.4,546a5.2,5.2,0,0,0,1.7-.2,24.7,24.7,0,0,0-1.2,5.9c-6.1,1.2-12.3,1-18.4.5-.8-.9.3-2.4-.6-3.3s1.9-1.4,2-2.1C246.4,547.2,251.9,545.8,257.4,546Zm18.4-.7c.2-1.1.3-2.2.5-3.4a1.3,1.3,0,0,0,.2-2.5.4.4,0,0,0,.1-.3c7.7,2.6,16.9,3.6,24.8,1.2-.1.4-.1.8-.2,1.2-6.7,5.8-17,3.9-25.4,3.8Zm-4.5-.5h-.5a58.5,58.5,0,0,1,1.2-7.3h.3c-.6,2.4-.6,4.9-1,7.3Zm-9.5-14.9c-.4-5.7-1.7-11.5-2.5-17.3-1.9-14-1.3-27.8-2.9-41.9-2.2-17.2-1.6-34,.6-51.3.6-4.5,3.9-9.5,2.9-14,1.7-3.8,3.8-7.8,4.1-12,1.3,0,1.8-1,2-2,1.3,5.2,3.2,10.6,3.9,15.8s.6,9.5.7,14.2c-.1,9.5.8,18.5,1.7,28.1.1,4.5-.1,8.9,1.2,13.3-5.1,10.3-3.7,19-4.5,30.1-.6,8.8-1.1,17.1-1.2,26.2.3,5.2-1.1,11.4,1.3,16.2-.4,4.4-5,12.4,1.7,13.1-.1,3.3-2.5,6.2-1.5,9.5a4,4,0,0,0-.4,1.3c.3-4.6-2.3-9.4-7.7-8.2a41.4,41.4,0,0,1,2.5-11.6c.7-.6,1-2.2.2-2.7a13.2,13.2,0,0,0,.2-2.8c2.4-1.5.2-4.7-2.2-3.9Zm-2.5-144.6-.5-.2a26.1,26.1,0,0,0,2.3-2.4,20.6,20.6,0,0,0,2.3,4.1c-.1.3-.3.7-.4,1.1a4.8,4.8,0,0,0-3.7-2.6Zm51.6-27.1c-.1-1.8-.4-3.2-.5-5.5,2.8-3.3.1-8.8.2-12.8,2.6.2,4.9,2,7,3.4-1.8,3.6-5.3,5.8-6.2,9.5-.1,1.8.5,3.8-.5,5.5Zm-97.9.9c-2.8-5.7-2.9-12.5-5.1-17.9,4.4-1.3,9-2.2,13.5-3.4a20.3,20.3,0,0,0,1.5,3.3c-2.1,3.9-4.2,7.4-6,11.5-2.7,2.3-1.7,6.7-2,9.9-.8-1.2-1.4-2.5-1.9-3.4Zm-19-18.9c-2.4-2.4-5.6-3.7-8.1-6.1,3.9-2.2,12.1-1.5,8.3-8.5a102.4,102.4,0,0,1-8.3-38.2c.4-17.3,6.9-33.3,10.2-50,6.3,18.3,19.1,34.9,18.9,54.9-6.9-1.9-14.3-3.4-21.4-5.1-7.8,2.3,19.8,7.3,21.5,7.1,1.1,5.2-6.7,3.9-5.5,8.4,1.4,2.1,3.8,3.5,5.5,5.5,6.6,4.1-2.2,11.2,2.7,14.8.3,3.8.6,7.5.7,11.2-8,2-15.7,5.3-23.7,6.4h0l-.8-.5Zm11.6-114.1c9.9-4,20-7.2,29.1-12.7,2.6,8.6,13.5,13.1,22.1,14.1a115.6,115.6,0,0,0-1.8,14.4c-.6,8-1.1,17.9-1.7,26.1,0,4.2-1.3,8.9.2,12.9-2,4,.7,9.2.4,14.4s.6,10.2.6,15.3c-.1,7.8.9,16.5,1.5,24.3.1,2.8.3,10.3,4.8,6.8.3-7.9-1.6-16.5-1.7-24.5-.1-11.6-.5-23.8-2.2-35.4,1.9-.1,3.9-.5,5.8-.7a1.2,1.2,0,0,0-.3-2.3l-6.8.9c.1-15.2,1.6-30.5,2.7-45.6h-.1c.4-2.1.7-4.5,1.1-6.6,8.4.5,16.6-4.1,21.5-10.7,40.6,17.3,34-4.6,41.9,52.6.7,4.4,1.5,8.1,2.3,12.3s2,9.3-.6,13.4c-7.8,15.7-.4,9.2.8,21.1.4,2.8-1.5,5.2-3.1,7.2-4.2,5.3.8,10.5,3.9,14.9l-2.5,2.5c-4-2.5-8.1-6.6-13.3-5.4-1-9.4-2.2-18.8-4-28.2-1.6-2.7-.3-16.5-5.9-12.8,6.2-15.7,9.4-32.4,10.6-49.2.1-1.8.1-3.4.1-5.1a1.4,1.4,0,0,0-2.4-.9c-.9,1.1-.2,2.8-.5,4.2a156.8,156.8,0,0,1-5.6,34c-1.7,8.8-6.7,16.4-8.1,25,.4,1.8,3.5,1.8,3.1-.2v-.2h-.1c.9-1.9,1.5-4,2.2-5.9,1.9,12.6,4.1,24,5.1,36.6.3,4.5.7,9.1,1.2,13.6.6,2.2-.7,5.7,2.2,6.5.1,1.1.1,2.1.2,3.2-30.2,10-58.9,12.9-87.9-2.8,1.5-3,2.9-5.6,4.7-8.9,13.2,7.3,34,6.5,48.5,3l8.8-2.2a2.1,2.1,0,0,0-.6-4.2c-12.3,2.8-25,5.9-37.8,4.4-5.6-.8-12.5-1.2-17-4.7a1.6,1.6,0,0,0-1.4-2.5c-.8-1.6-1.3-3.3-2-5-.5-3.5.5-11.6-2.8-13.4,3.9-7.3.2-13.1-5.3-17.9,5-2.2,4.5-8.4,4-13,.2-15-7.7-28.6-13.3-42.1-2.8-4-3.9-15.8-8-16.4.5-1.7,1.4-2.3,3.1-2.7h0Zm63.6-24.3h-1.5c-1.4,6.7,6.3,9.4,10.3,13.2-6.8,6.4-14.3,10.5-23.9,8.3s-12-6-17.6-11.2c3.6-2.1,8.5-4.9,7.3-9.9l-3.2-.3c1.2,4.5-3.3,6.4-6.3,8.6-8,5.2-17,8.6-26,11.8h.1c-2.5.8-5.7,2.4-8.3,3.3s-3.1.9-3.8,2.6c-3.3,6.6-3.7,14.5-6.1,21.3-9.2,27.7-10.6,52.2,1.4,79.2-2.8,1.6-7.2.8-9.1,4-2.2,4.7,4.9,6.5,7.3,9.4,3.9,4.4,10,1.4,14.7.2,1.7,9.2,2.9,19.8,10.4,26.2-.8,12.2-1.2,24.6,0,36.9,0,9.9-1.3,19.5.3,28.9,4.3,15.4,4.8,30.8,6.4,46.9s5.3,31.5,5.1,47.5a7.1,7.1,0,0,0-1.5.8c.2,2.6.4,5.2.5,7.9a.8.8,0,0,1,.2-.4,9.8,9.8,0,0,0,6.3.9c9.3-.3,18.3.7,26.6-4.4-.4,2.7-.3,5.3-1.5,7.9-10.4-.1-21.1,2.9-31.5-.3v3.6c3.4,1.3,6.5,1.5,10.4,1.8a234.2,234.2,0,0,1-28.4,24.2c-4.1,3.4-3.9,9.7-1.1,14,5,5.9,14.4,3,20.5.5s11-6.6,16.8-8.8c3.3-1.9,6.2,0,9.7,0s10.7.6,12.9-4c2.8,3.7,8.6,4.2,12.7,5.6,1.6,17.8,17.7,27.2,32.9,17,6.9-8.8-13.2-36.9-20.9-42.3.2-1,.6-2,.9-3.1,6.4.7,15-2.7,14.8-10.2,0-1.8.7-4.5-1.7-5,3.7-39.3,5.3-78.4,7.1-117.7.9-18.4,4-37-.7-55,4.5,0,4.1-6,3.7-9.1,1.8-2.3,3.7-4.7,5.3-7.2,3.5,4.2,6.9-1.5,9.4-3.6,5-3.9-1.3-8.9-3.4-12.5s1.8-4.3,2.8-6.2c3-5.2,1.6-13.7-3.1-17.6.9-5.1,4.2-8.9,5.5-13.6,1.2-7.5-2.3-15.5-3.2-23-2.5-13.3-2.6-27.7-8.4-40s-28.4-7.7-39.6-16.5c-2.5-1.8-4.6-3.6-7-5.4s-2.6-3.1-2.2-5.4Z" fill="#161616" fill-rule="evenodd"/><path d="M257,529.6c-2.6.6-3.6,2.8-3.9,5.1-6.9.5-13.9.3-20.6,2.2-.1-3.4-4.9-1.4-6.9-.9.1,3,.3,6,.2,9,12.1-.4,25.9,1.7,37.1-3.8,4.5-3.6-.2-13.2-5.9-11.6" fill="#161616" fill-rule="evenodd"/><path d="M277.3,533.8c-1,.2-1.5,1-2.1,1.7-5.7-5.6-8.7,3.3-8.7,8.1s7.2,5.5,11.3,5.8c7-.9,33.3,2.9,29.9-8.9-3.1-7.1-11-1.3-16.4-.9s-11.1-2.5-13.9,2.2h-1.1c2.1-2.3,7.6-8,1-8" fill="#161616" fill-rule="evenodd"/><path d="M258.7,529.9c-5.5,2,.1,8.3,0,12.2s-2.3,18.4,6.6,14c3.1-2.8.3-7,1-10.6s-2-17-7.6-15.6" fill="#161616" fill-rule="evenodd"/><path d="M213.8,565.4a.2.2,0,0,0-.2.2.2.2,0,0,1,.2-.2m1-1.2-.3.4.3-.4m14.7-16.1h0m5.9-.8-.2.3.2-.3m-2.2-4.3a3.4,3.4,0,0,0-1.4.9c-2,.2-2.5,2.5-2.3,4.2-6.7,6.3-12,14-18.8,20.2-1.4,1.7-6,3.4-3.7,5.9,3.5,4.7,39.6-32.1,26.2-31.2" fill="#161616" fill-rule="evenodd"/><path d="M241,199.8a.8.8,0,0,0-.3.8h0v.2a1.9,1.9,0,0,0,.3,1.9.6.6,0,0,0,.5.6.8.8,0,0,0,1.5.1,1,1,0,0,0,.1-1.6,1.1,1.1,0,0,0-.8-.9c-.1-.6-.5-1.4-1.3-1.1" fill="#161616" fill-rule="evenodd"/><path d="M270.2,196.6a1.7,1.7,0,0,1-.1.7h-.2a.9.9,0,0,0-1.1.9c-.2,0-.4.2-.5.5-1.8-1-1.1,6.9.5,4.3a.7.7,0,0,0,.6.1.5.5,0,0,0,.9.2c2.4.7.8-4.5,1.1-5.8s-.8-2.3-1.2-.9" fill="#161616" fill-rule="evenodd"/><path d="M242.9,208.4c-.2,1.6,6.2,3.9,7.3,2.7s-3.2-.8-4.4-1.7h.2c-1.1-.1-2.2-1.9-3.1-1" fill="#161616" fill-rule="evenodd"/><path d="M263.9,388.5h0m-.9-7h0m.8-.7c-1.6.4-6.8,2.7-6,4.8-.2.5.7.7,1,1a1.3,1.3,0,0,0,1.6.9c-3.4,5,6.2,1.5,3.7-.7,1.3-.7,1.9-3.2-.2-2.7,1.2-.8,2.3-3.5-.1-3.3" fill="#161616" fill-rule="evenodd"/><path d="M296,567a20.9,20.9,0,0,0-4.8,2.2c-1,1.9,2.1,0,2.8-.4h-.1c.6-.4,4.1-1.2,2.1-1.9" fill="#161616" fill-rule="evenodd"/><path d="M299.4,568.5c-1,.4-9.6,3.4-6.8,4.1.8-1,9.1-3.3,6.8-4.1" fill="#161616" fill-rule="evenodd"/><path d="M297.3,573.1h0m2.4-1.9c-4.1.6-8.9,4.8-1.3,1.5.6-.1,3.1-1.1,1.3-1.5" fill="#161616" fill-rule="evenodd"/><path d="M219.7,565c-1.1,1,3.8,6,4.9,5.5s-4-6.9-4.9-5.5" fill="#161616" fill-rule="evenodd"/><path d="M222.5,562.6c-1.2.7,4.9,8.1,4.8,5-1-1.3-3.1-5.8-4.8-5" fill="#161616" fill-rule="evenodd"/><path d="M224.9,563h0m-.6-1.4c-.5.4-.1,1.4.6,1.4h-.1c9.9,13.5,2.7-3.6-.5-1.4" fill="#161616" fill-rule="evenodd"/><path d="M278.3,539.3c-.7.5-3.6,1.5-2,2.4a.5.5,0,0,0,.4.5c.4.9,1.6,0,1.5-.7s1.4-.3,1.6-1,.4-.9-.1-.8a1,1,0,0,0-.7-.2.7.7,0,0,0-.7-.2" fill="#161616" fill-rule="evenodd"/><path d="M279.2,554.7a.8.8,0,0,0,.1.4h-.6a.4.4,0,0,0,.1-.3h.4m8.2-2.3c-1.3.6-9.3-.2-8.1,1.6-.5,0-1.9.8-.8,1.2a.6.6,0,0,0-.2,1c-.4,1.1,1.1,1,1.7.9s15.4-.3,9.6-1.8a1,1,0,0,0-.7-.2c-.1-.3-.3-.4-.6-.5s-.6-.5-1-.6a.3.3,0,0,1-.1-.2h.1c.6,0,1.4-.7.5-1s-.2-.3-.4-.3" fill="#161616" fill-rule="evenodd"/><path d="M289.3,570h0m6.1-3.2a11,11,0,0,0-5.2,2.2c-.7.4-1.8.7-1.9,1.6s1.3,1.2,1.5.3l1.7-.8c-.1,0-.2,0-.2.1a30.6,30.6,0,0,1,5.9-1.7c1.5-1.2-.6-2.4-1.8-1.7" fill="#161616" fill-rule="evenodd"/><path d="M292,571.4h0m7.6-3c-1.5.3-10.4,2.6-7.5,4.4a.7.7,0,0,0,.8-.4,16.4,16.4,0,0,1,6.1-2.1c1.3.6,2.1-1.8.6-1.9" fill="#161616" fill-rule="evenodd"/><path d="M302.6,570.9c-2.5.9-8.4.4-9,3.3,1.2,2.1,8-1.5,10.5-1.3s-.1-2.6-1.5-2" fill="#161616" fill-rule="evenodd"/></svg>