<svg width="500" height="600" xmlns="http://www.w3.org/2000/svg" xmlns:xlink="http://www.w3.org/1999/xlink"><defs><path id="a" d="M0 .566h1v1H0z"/></defs><g fill="none" fill-rule="evenodd"><g fill="#161616" fill-rule="nonzero"><path d="M150.236 206.008c.264.01.535.047.793.1.2.043.396.103.577.191.169.083.316.198.46.311.189.15.353.327.52.496.22.222.435.45.651.678.104.11.172.22.172.37a.5.5 0 01-.172.37c-.213.188-.627.218-.834 0-.402-.423-.792-.87-1.257-1.24a1.605 1.605 0 00-.173-.093 3.156 3.156 0 00-.396-.082 3.998 3.998 0 00-.62-.016 2.825 2.825 0 00-.393.094 2.477 2.477 0 00-.24.123 2.245 2.245 0 00-.201.181c-.08.099-.155.2-.222.306l-.143.226a.87.87 0 01-.159.178c-.113.098-.33.2-.499.183a1.134 1.134 0 01-.37-.085c-.082-.033-.154-.09-.222-.143-.046-.036-.086-.079-.128-.119-.101-.098-.198-.195-.308-.284a2.15 2.15 0 00-.238-.118c-.19-.065-.386-.118-.58-.173a4.173 4.173 0 00-.602-.12 3.471 3.471 0 00-.507-.007 2.01 2.01 0 00-.235.055 3.85 3.85 0 00-.511.275 3.073 3.073 0 00-.397.368 3.638 3.638 0 00-.412.645c-.331.761-.527 1.551-.662 2.356a29.634 29.634 0 00-.273 3.107c-.015.53-.002 1.06.038 1.59a22.163 22.163 0 00.153 1.315c.043.282.079.566.158.841.085.295.182.587.276.88.16.497.341.993.56 1.474a5.3 5.3 0 00.555.879c.04.039.082.075.126.11.132.088.263.176.39.269.085.06.163.129.24.196.06 0 .117-.001.176-.005.106-.019.209-.045.31-.076a3.15 3.15 0 00.357-.196 1.62 1.62 0 00.103-.086c.061-.088.114-.178.162-.271a2.821 2.821 0 00.225-.75c.039-.212.078-.423.115-.635a.778.778 0 01.23-.35.953.953 0 01.63-.232c.472 0 .915.36.894.792-.025.541-.034 1.115-.241 1.628-.167.41-.388.831-.784 1.109-.367.256-.773.493-1.238.582a3.468 3.468 0 01-1.316.01c-.463-.089-.754-.405-1.095-.661-.097-.074-.196-.146-.293-.219a2.417 2.417 0 01-.42-.435c-.433-.535-.705-1.156-.98-1.763-.28-.623-.505-1.26-.704-1.909-.097-.313-.128-.645-.178-.965a37.983 37.983 0 01-.163-1.227c-.088-.724-.079-1.447-.05-2.173.03-.782.106-1.57.234-2.344.108-.646.207-1.3.41-1.931.098-.302.213-.596.343-.888.162-.364.335-.72.566-1.054a4.096 4.096 0 011.745-1.364c.204-.087.415-.162.64-.196a4.63 4.63 0 01.656-.052c.208-.003.419.03.623.055.187.023.359.067.532.13.363.134.76.258 1.085.455.106.064.204.132.298.206.132-.152.268-.29.442-.41.466-.322 1.052-.464 1.638-.464.044 0 .088 0 .133.002"/><path d="M142.033 223.496l-.021.009a.47.47 0 00.021-.009m-2.145-15.082c.369.075.672.267.956.48.274.206.444.494.584.781l.088.183a.685.685 0 010 .407.79.79 0 01-.396.456.936.936 0 01-1.179-.274c-.05-.07-.1-.14-.153-.207a1.732 1.732 0 00-.109-.096 2.57 2.57 0 00-.179-.1 1.997 1.997 0 00-.134-.034c-.044 0-.089.001-.133.004a.788.788 0 00-.04.009 1.698 1.698 0 00-.053.053c-.069.09-.13.182-.183.279a7.765 7.765 0 00-.264.957c-.066.613 0 1.233.038 1.844.02.333.025.666.06.998.034.323.078.645.126.967.077.486.158.971.25 1.456.106.551.234 1.097.372 1.643.128.508.299 1.007.48 1.502a17.059 17.059 0 001.155 2.45c.209.364.448.707.716 1.039.063.07.128.137.202.198a.763.763 0 00.023.013c.061-.079.112-.16.158-.247.084-.216.12-.443.157-.668.02-.154.043-.307.051-.463.01-.213.01-.423.008-.636-.002-.166.156-.303.34-.303.19 0 .34.137.343.303.004.31.006.619-.023.929-.029.304-.06.608-.11.91-.03.181-.11.36-.198.524-.129.24-.342.488-.663.51-.195.014-.372-.046-.547-.116a1.602 1.602 0 01-.458-.296 6.343 6.343 0 01-.47-.461 7.1 7.1 0 01-.68-.815 10.653 10.653 0 01-.498-.806 18.103 18.103 0 01-1.253-2.587c-.115-.291-.205-.59-.294-.888-.09-.298-.17-.597-.25-.896-.083-.303-.141-.613-.206-.92a31.782 31.782 0 01-.333-1.952c-.089-.593-.092-1.197-.126-1.794a13.197 13.197 0 01-.027-1.271c.016-.458.142-.917.248-1.363.057-.24.155-.456.266-.683.04-.081.094-.16.148-.234a2.05 2.05 0 01.39-.433c.242-.188.536-.31.85-.367.112-.02.237-.028.353-.041.04-.005.082-.007.123-.007.16 0 .322.032.474.063m11.998 15.952c.327.17.458.57.255.863a7.341 7.341 0 00-.558.946c-.178.404-.352.812-.462 1.236-.112.426-.203.852-.28 1.282-.046.397-.066.79-.045 1.19.022.396.058.789.11 1.182.04.22.082.44.136.656.048.193.092.392.178.575.075.158.016.382-.076.522a.733.733 0 01-.456.311 2.381 2.381 0 01-.221.027.924.924 0 01-.414-.104c-.219-.1-.322-.295-.406-.485-.052-.116-.087-.237-.128-.355a5.134 5.134 0 01-.241-1.029 9.596 9.596 0 01-.08-.964c-.01-.304-.027-.617.004-.92.039-.37.09-.734.173-1.098.073-.314.165-.625.26-.933.287-.933.701-1.854 1.277-2.676a.763.763 0 01.622-.311c.12 0 .24.027.352.085m11.261-.951l-.011.084.011-.084zm-2.038-21.337c.033.638.053 1.274.071 1.91.025.916.103 1.83.224 2.739.035.226.07.452.102.678.119.76.286 1.513.458 2.265.124.545.284 1.098.515 1.616.046.09.096.179.155.261a.747.747 0 00.057.05l.026.017c.023.09.05.178.082.265.069.19.166.374.264.554a22.917 22.917 0 01.545 1.07l-.002-.004.118.252c.135.292.26.584.389.878.132.3.263.604.357.917.092.309.18.618.257.93.062.25.105.504.146.759.052.449.094.9.126 1.351.003.436 0 .873-.025 1.308-.04.673-.103 1.344-.168 2.015-.07.707-.15 1.412-.27 2.115-.084.512-.254 1.011-.421 1.506a7.656 7.656 0 01-.272.673 8.033 8.033 0 01-.418.815c-.15.253-.303.5-.47.745-.151.222-.332.43-.506.637-.347.412-.712.812-1.067 1.22a61.952 61.952 0 01-1.616 1.813c-.279.305-.563.617-.889.882-.174.141-.346.284-.518.427a3.71 3.71 0 00-.373.378 3.277 3.277 0 00-.346.511c-.1.218-.187.44-.258.665-.106.33-.214.662-.274 1.003-.09.74-.04 1.49 0 2.232.013.239-.232.439-.488.439a.473.473 0 01-.49-.44 57.052 57.052 0 01-.046-1.059c-.008-.237-.003-.47.004-.706.018-.666.174-1.319.389-1.954.124-.367.27-.726.493-1.056.091-.137.2-.266.304-.395.088-.113.19-.227.296-.326.173-.165.357-.324.525-.493.174-.177.341-.356.506-.538.347-.424.694-.847 1.044-1.27.347-.42.667-.857 1.018-1.273.36-.428.713-.86 1.041-1.308.301-.412.53-.871.748-1.323.16-.38.301-.766.413-1.16.068-.237.133-.474.19-.714.035-.15.058-.301.08-.452.078-.66.132-1.321.178-1.985.046-.647.08-1.294.083-1.943.004-.663-.037-1.325-.052-1.988a26.038 26.038 0 00-.106-1.902 3.915 3.915 0 00-.177-.576 4.981 4.981 0 00-.11-.273c-.082-.163-.168-.324-.247-.489l.062.133c-.072-.147-.161-.287-.243-.429-.114-.198-.216-.4-.325-.6a17.714 17.714 0 01-.479-.928.871.871 0 00-.085-.12l-.08-.094.076.089.005.005a3.302 3.302 0 01-.356-.474 6.816 6.816 0 01-.34-.643l-.076-.344-.006-.024a27.011 27.011 0 01-.1-.558 16.022 16.022 0 01-.122-1.49c-.022-.56-.031-1.12-.07-1.678-.048-.687-.098-1.373-.105-2.061-.006-.68-.001-1.36-.002-2.039 0-.209 0-.416-.002-.625a3.71 3.71 0 00.643-.6l.01.211zm-8.107 6.431c.003.007.005.013.01.02-.005-.007-.007-.013-.01-.02m-2.858-2.297c.34.018.68.046 1 .154.32.107.623.237.927.376.195.09.356.23.521.357.092.07.18.142.269.216a5.305 5.305 0 01.735.718c.083.1.132.226.171.343.06.181-.07.379-.272.428a.402.402 0 01-.478-.244 1.772 1.772 0 00-.027-.072.556.556 0 00-.045-.068 4.592 4.592 0 00-.751-.636c-.155-.093-.306-.187-.472-.26a5.932 5.932 0 00-.983-.253 5.568 5.568 0 00-.988-.004 2.21 2.21 0 00-.295.075 1.83 1.83 0 00-.183.087 2.533 2.533 0 00-.32.29 4.543 4.543 0 00-.509.798 7.686 7.686 0 00-.463 1.535l-.021.17a1.39 1.39 0 00-.112.273 4.112 4.112 0 00-.096.535c-.078.673-.09 1.35-.087 2.026.002.698.07 1.39.231 2.074.073.312.163.62.276.92.095.392.2.782.312 1.169.138.473.299.943.51 1.394.187.397.358.8.536 1.2a9.084 9.084 0 001.096 1.796c.072.077.145.152.221.224l.03-.03a.945.945 0 00.071-.111c.123-.308.194-.631.26-.953.064-.5.103-1.003.125-1.506a6.911 6.911 0 00-.013-.783l.068.133.099.194.145.395c.1.273.203.546.306.82l.496 1.316c-.037.16-.08.318-.127.475a2.659 2.659 0 01-.251.583c-.044.075-.128.157-.182.22-.132.148-.28.262-.45.376-.163.108-.424.19-.627.17-.115-.013-.185-.018-.284-.055a1.563 1.563 0 01-.302-.141 2.717 2.717 0 01-.318-.238c-.106-.09-.202-.19-.298-.288a5.901 5.901 0 01-.59-.747 12.55 12.55 0 01-.45-.698 12.332 12.332 0 01-.279-.501 1.47 1.47 0 00-.024-.061c-.05-.12-.109-.239-.164-.358-.077-.167-.147-.341-.233-.505l-.224-.418c-.08-.149-.159-.31-.275-.441a6.752 6.752 0 01-.326-.847 22.178 22.178 0 01-.439-1.66 17.894 17.894 0 01-.284-1.832c-.127-1.094-.016-2.2.033-3.294.013-.294.042-.587.078-.879.038-.305.094-.604.202-.895.209-.562.411-1.133.773-1.635.107-.148.225-.286.346-.426.059-.068.117-.136.178-.203a2.94 2.94 0 01.544-.446c.404-.273.914-.36 1.414-.36.09 0 .18.002.27.008"/><path d="M140.566 208.885c.112.028.224.063.329.105.116.048.215.113.314.184.164.118.308.26.45.398.116.114.126.29 0 .403-.12.107-.333.114-.45 0a3.099 3.099 0 00-.342-.29 1.526 1.526 0 00-.189-.102 2.26 2.26 0 00-.362-.08 2.94 2.94 0 00-.506-.008 3.011 3.011 0 00-.572.132c-.12.05-.234.107-.342.174a.986.986 0 00-.078.07 2.414 2.414 0 00-.19.31 3.38 3.38 0 00-.2.684 7.132 7.132 0 00-.036 1.24c.026.414.079.825.136 1.237.087.497.187.992.28 1.488.099.528.192 1.057.286 1.585.096.535.19 1.07.313 1.602.115.5.244 1 .399 1.492.216.688.465 1.366.699 2.05.106.309.224.614.34.92.106.278.208.558.323.833l.023.017c.082.052.166.101.254.143.057.017.114.03.173.04.078.007.157.01.235.01a.84.84 0 00.05-.011.706.706 0 00.056-.033 1.59 1.59 0 00.153-.13c.042-.115.072-.232.095-.351.051-.414.054-.835.006-1.249-.073-.438-.176-.873-.273-1.307-.07-.32-.138-.642-.204-.964-.034-.163-.03-.314.067-.462a.668.668 0 01.4-.276c.351-.086.727.104.823.42.17.555.312 1.118.458 1.679.082.31.149.623.194.939.056.385.061.77.03 1.158-.03.387-.101.821-.347 1.151-.137.186-.317.323-.512.457a1.584 1.584 0 01-.543.251c-.17.039-.347.059-.522.05-.058-.003-.115-.008-.173-.013a3.749 3.749 0 01-.526-.078c-.3-.075-.566-.21-.816-.371a1.364 1.364 0 01-.41-.37.814.814 0 01-.059-.099 6.88 6.88 0 01-.228-.495c-.1-.237-.192-.476-.284-.716-.194-.505-.36-1.018-.53-1.53-.165-.491-.346-.978-.477-1.478a38.945 38.945 0 01-.392-1.622c-.107-.493-.175-.994-.256-1.49l-.12-.746c.05-.174.086-.348.111-.531.038-.273.028-.547.027-.82 0-.147 0-.293-.007-.438a5.2 5.2 0 00-.062-.526c-.044-.295-.117-.587-.181-.878-.1-.452-.232-.896-.322-1.35a6.78 6.78 0 01.07-.49c.023-.12.043-.242.081-.36a3.22 3.22 0 01.186-.428c.036-.075.076-.149.113-.222.049-.094.112-.177.176-.261.153-.2.338-.39.577-.51a2.81 2.81 0 01.932-.256c.115-.013.23-.02.345-.02.34 0 .683.054 1.007.139m10.599 17.448a.49.49 0 01.168.362l-.021.137a.494.494 0 01-.147.225l-.005.007a3.11 3.11 0 00-.296.448 2.08 2.08 0 00-.088.327 4.118 4.118 0 00-.015.876c.02.215.05.43.075.646.029.252.052.503.073.755.016.2-.168.39-.376.441-.27.067-.552-.08-.628-.32a6.58 6.58 0 01-.232-1.144c-.03-.252-.069-.502-.07-.756a4.077 4.077 0 01.064-.734 2.15 2.15 0 01.241-.667c.12-.218.285-.412.45-.603.087-.1.269-.15.403-.15a.61.61 0 01.404.15"/><path d="M138.328 215.505c-.078.69-.176 1.377-.208 2.071-.03.674-.081 1.346-.106 2.02a41.189 41.189 0 00-.01 1.957c.007.656.035 1.312.107 1.965.074.465.156.932.276 1.39.144.545.3 1.085.465 1.625.31 1.015.6 2.033 1.03 3.013.221.437.465.857.742 1.27.292.435.603.86.929 1.276a91.763 91.763 0 001.96 2.41c-.046-.055-.093-.108-.14-.161l.148.17.026.032.297.342c.354.405.732.8 1.02 1.246.17.263.295.554.392.845.062.122.123.243.173.368.047.115.083.234.128.35.129.323-.081.708-.396.874-.323.168-.788.134-1.047-.121-.138-.137-.282-.263-.41-.41a6.585 6.585 0 01-.377-.467c-.154-.215-.303-.429-.47-.636-.232-.26-.472-.517-.704-.779-.319-.36-.632-.725-.944-1.09a56.612 56.612 0 01-1.635-2.021c-.52-.67-1.014-1.37-1.391-2.114a9.55 9.55 0 01-.551-1.327c-.128-.387-.218-.783-.311-1.176-.203-.843-.384-1.69-.58-2.532a15.14 15.14 0 01-.104-.482 36.197 36.197 0 01-.049-.704c-.041-.68.01-1.364.032-2.045.021-.684.021-1.365.022-2.05 0-.342.002-.685.008-1.027a8.63 8.63 0 01.073-.923 14.449 14.449 0 01.419-1.748c.087-.29.199-.572.3-.858a3.658 3.658 0 00.21-1.125.732.732 0 01.038 0c.32 0 .674.26.638.572m19.938-33.006l.186.07a.888.888 0 01.178.102c.102.069.191.13.28.209.118.106.241.252.334.374.248.325.453.662.601 1.035.117.295.19.605.275.909.09.322.178.646.261.969.08.307.14.616.195.928.071.4.139.801.19 1.204.046.368.069.738.098 1.107.028.347.058.695.088 1.043.06.7.098 1.4.134 2.101.037.692.105 1.384.176 2.073.14 1.367.246 2.738.32 4.11.065 1.24.033 2.488-.01 3.73-.023.683-.045 1.367-.07 2.05-.01.3-.033.602-.05.903-.009.147-.027.294-.04.44-.027.291-.043.586-.125.868a.507.507 0 01-.369.33.563.563 0 01-.365-.03 31.467 31.467 0 01-.094-1.894c-.006-.68-.001-1.359-.002-2.038a56.34 56.34 0 00-.026-1.962c-.025-.683-.017-1.366-.057-2.05-.039-.673-.09-1.344-.12-2.018-.03-.68-.056-1.363-.114-2.042-.06-.705-.14-1.409-.192-2.115-.051-.695-.131-1.39-.165-2.086-.032-.667-.029-1.335-.096-2-.037-.365-.09-.73-.161-1.09a14.9 14.9 0 00-.261-1.05c-.185-.674-.364-1.352-.709-1.978-.13-.236-.283-.476-.513-.646-.181-.135-.386-.272-.623-.314a1.757 1.757 0 00-.316-.036c-.07 0-.14.007-.21.025-.021.005-.19.06-.243.096-.148.098-.277.192-.36.342-.092.16-.136.339-.212.504a1.45 1.45 0 01.027-.056.692.692 0 00-.066.277c-.305.772-.464 1.586-.6 2.395a33.893 33.893 0 00-.194 1.904c-.052.693-.119 1.388-.132 2.085-.03 1.427-.045 2.854-.095 4.28-.026.727-.03 1.453-.043 2.18-.011.681-.05 1.363-.066 2.045-.017.719-.02 1.439-.028 2.16-.007.658-.054 1.315-.077 1.973-.053 1.42-.066 2.841-.1 4.261-.018.69-.032 1.378.004 2.066.036.69.094 1.38.141 2.07.014.201.028.402.044.603l-.271-.143c-.291-.15-.602-.272-.898-.415-.19-.093-.383-.184-.574-.278-.084-.685-.173-1.37-.246-2.058-.07-.652-.071-1.31-.085-1.964a122.457 122.457 0 01-.033-4.333c.007-.657.035-1.312.033-1.97a79.076 79.076 0 01.01-2.075c.016-.715.054-1.43.076-2.146.02-.688.036-1.378.076-2.066.041-.703.073-1.406.119-2.11.046-.713.061-1.429.122-2.141.03-.354.056-.708.098-1.06l.129-1.038c.092-.742.187-1.488.35-2.221.155-.699.375-1.378.613-2.058.15-.427.36-.843.642-1.211.136-.177.309-.335.469-.495.2-.198.423-.375.687-.502.227-.11.474-.173.723-.223.159-.031 1.313.014 1.332.09z"/><path d="M136.942 214.774l-.013-.085.013.085m.005.034l.004.025-.01-.06.006.035m1.029-5.343c.165.04.251.192.213.337-.046.178-.105.352-.155.528l-.08.28c-.017.061-.026.127-.037.192-.05.447-.063.897-.058 1.345a10.607 10.607 0 00.094 1.316c.035.223.067.446.098.67.066.414.153.825.248 1.236.098.43.25.852.378 1.276.066.215.126.431.194.646.068.218.115.441.175.661.057.204.124.405.185.608.063.216.115.435.191.648.075.207-.046.443-.249.55a.6.6 0 01-.418.049c-.124-.031-.27-.115-.325-.224-.108-.215-.222-.428-.313-.65-.08-.196-.152-.395-.22-.595-.063-.186-.11-.376-.162-.564-.056-.2-.12-.396-.18-.594-.124-.4-.255-.798-.368-1.2a10.03 10.03 0 01-.24-1.172 8.238 8.238 0 01-.114-1.313c.004-.428.014-.857.061-1.284.047-.433.154-.86.257-1.283.106-.436.329-.84.449-1.271.033-.121.164-.201.297-.201a.32.32 0 01.079.01m7.822 11.353l-.136.016.12-.014.016-.002m1.445-3.121c.003.02.005.039.009.058l-.009-.058m.326-.883c.073.29.138.579.197.87a.522.522 0 01.283.207c.086.133.168.262.232.405.031.068.06.133.082.204.03.1.045.232.054.332.024.245.021.491.013.738-.003.103-.02.206-.035.308-.021.143-.04.282-.085.42-.024.072-.057.142-.085.212-.05.124-.108.247-.176.364a2.05 2.05 0 01-.27.345c-.134.15-.304.269-.471.387a3.091 3.091 0 01-.608.344 1.36 1.36 0 01-.436.1.686.686 0 01-.125 0 4.95 4.95 0 01-.626.093 2.72 2.72 0 01-1.048-.152 2.546 2.546 0 01-.387-.16c-.151-.08-.287-.188-.424-.288-.12-.09-.227-.194-.334-.296a3.241 3.241 0 01-.275-.306 1.129 1.129 0 01-.269-.624.469.469 0 01.028-.188.56.56 0 01.15-.225c.062-.065.146-.092.232-.121a.529.529 0 01.367.035.664.664 0 01.232.158c.058.059.125.11.192.16.171.128.345.253.52.377.119.078.238.151.368.213.13.04.264.075.397.102a2.628 2.628 0 00.967-.1c.09-.037.178-.077.26-.125.134-.104.254-.22.367-.342.085-.11.156-.224.22-.345a6.31 6.31 0 00.083-.197c.01-.128.016-.256.016-.385.002-.217.019-.443 0-.662a3.04 3.04 0 00-.102-.412c-.061-.18.02-.381.18-.499v-.003c-.058-.274-.115-.548-.183-.82a.235.235 0 01.18-.286.276.276 0 01.066-.008c.113 0 .226.067.253.17m1.917-7.423c.16 0 .326.027.48.046.135.017.268.036.4.067.114.026.223.07.332.11.169.06.336.122.5.193.22.095.433.213.641.328.227.125.45.252.67.387.407.25.805.516 1.205.776.324.212.636.436.948.662.232.167.457.343.69.51.182.114.377.212.572.31.209.104.42.211.632.31.1.045.2.09.296.14.15.08.283.18.418.276.169.121.335.245.497.374.35.28.694.563.996.885.184.194.365.391.519.606.125.174.238.354.352.534.108.171.218.341.314.518.103.194.192.396.271.598.073.183.148.366.212.552.051.149.098.3.16.447a.774.774 0 00.041.071c.062.061.13.119.203.17l-.076-.053c.27.19.52.39.752.618.15.147.288.303.412.47.107.145.222.285.327.43l.026.038.052.036a3.474 3.474 0 01.182.21c.06.074.117.148.175.223l.339.438a.285.285 0 01.051.037.86.86 0 01.195.307l.018.029.164.266c.046.074.104.149.13.231a.355.355 0 01.03.128c0 .06-.023.106-.052.158-.003.008-.008.014-.013.021.03.111.056.222.081.333a.295.295 0 01-.227.36c-.163.04-.365-.048-.4-.204a8.159 8.159 0 00-.185-.688l.002.003-.002-.004-.014-.016.008.01-.117-.138c-.155-.178-.313-.354-.46-.536-.075-.096-.153-.191-.227-.288l-.074-.096a8.702 8.702 0 00-.393-.715 11.55 11.55 0 00-.594-.917c-.096-.13-.194-.259-.295-.386-.264-.388-.531-.775-.79-1.167a14.712 14.712 0 00-1.363-1.743c-.233-.26-.474-.518-.72-.769a8.653 8.653 0 00-.72-.682c-.502-.406-1.093-.702-1.667-1.017-.254-.14-.508-.284-.767-.417-.292-.15-.602-.273-.898-.416-.308-.15-.62-.295-.923-.454a9.998 9.998 0 01-.612-.352c-.244-.15-.477-.314-.72-.463a3.187 3.187 0 00-1.044-.4c-.13-.025-.262-.055-.394-.075a2.113 2.113 0 00-.316-.029c-.046 0-.092.003-.138.008l.023-.116c.043-.21.113-.422.047-.635a.713.713 0 00-.41-.435c.072-.007.144-.01.215-.013h.033z"/><path d="M158.144 214.051c.086.011.172.024.257.04.053.012.193.066.251.1.098.06.187.125.275.193.098.078.189.167.275.254.217.223.42.452.616.69.17.208.336.419.502.63.144.182.27.377.41.563.614.82 1.207 1.656 1.711 2.535a74.726 74.726 0 01.812 1.44c.106.172.21.343.29.528.02.047.038.095.056.143.035.078.066.156.092.237.082.187-.05.416-.23.51-.223.117-.572.06-.69-.162-.234-.437-.496-.864-.749-1.291a54.97 54.97 0 00-.852-1.41 16.202 16.202 0 00-.427-.637 38.057 38.057 0 00-.725-.779l-.157-.235a14.694 14.694 0 00-1.363-1.743 24.02 24.02 0 00-.72-.769c-.118-.12-.236-.24-.358-.357a.45.45 0 01.02-.122.534.534 0 01.263-.307.576.576 0 01.274-.064c.053 0 .108.006.167.013"/><path d="M153.447 211.323c.473.21.94.43 1.415.638.4.175.8.355 1.194.542.187.09.376.176.56.27.192.098.374.21.553.326a8.12 8.12 0 011.497 1.207c.204.215.394.44.59.661.084.095.142.183.142.31a.42.42 0 01-.143.31.522.522 0 01-.346.13c-.117 0-.27-.043-.346-.13-.358-.402-.703-.824-1.135-1.167-.177-.142-.357-.28-.543-.415a6.613 6.613 0 00-.834-.494c-.176-.085-.352-.166-.528-.25a4.335 4.335 0 01-.133-.072c-.254-.14-.508-.284-.767-.417-.212-.11-.435-.204-.655-.303-.315-.165-.631-.33-.944-.498-.195-.105-.266-.335-.15-.513a.416.416 0 01.356-.182c.073 0 .148.016.217.047m2.896 8.355l-.029-.034-.016-.019.015.017-.005-.005-.05-.059.085.1zm-.029-.034l.055.064-.056-.066.001.002zm.07.08l-.008-.008a.208.208 0 01-.007-.008l.014.016zm-6.203-10.294a.427.427 0 01.146.315.407.407 0 01-.146.316l-.348.25c-.11.08-.229.16-.325.253a1.362 1.362 0 00-.092.149c-.07.17-.108.343-.14.522-.017.165-.029.33-.018.496a6.523 6.523 0 00.145.981c.045.195.11.382.182.57.115.304.252.6.388.896.181.363.408.7.657 1.03.223.298.446.596.686.883.155.168.326.321.5.476.15.135.306.262.471.382.16.105.332.195.505.285.166.086.33.177.496.263.37.191.747.365 1.11.566.383.21.733.461 1.054.743.143.127.286.253.426.383.154.143.294.292.43.448l.068.079c.025.029.05.057.073.086l-.022-.026c.14.164.275.33.406.5.136.174.228.367.32.561.233.489.432.99.612 1.496.175.492.34.99.48 1.493a9.41 9.41 0 01.283 1.62c.046.461.083.928-.027 1.384-.052.212-.296.36-.53.36-.308 0-.535-.223-.548-.491-.008-.151-.004-.303-.007-.455-.003-.137-.015-.276-.024-.414a14.037 14.037 0 00-.08-.85 10.26 10.26 0 00-.205-.94 34.17 34.17 0 00-.623-2.007c-.107-.307-.24-.607-.375-.905a2.249 2.249 0 00-.227-.375 14.102 14.102 0 00-.315-.392 5.223 5.223 0 00-.208-.232 5.792 5.792 0 00-.368-.34 9.991 9.991 0 00-.704-.555c-.437-.287-.925-.497-1.406-.718-.514-.236-1.029-.488-1.48-.812a7.016 7.016 0 01-1.246-1.146c-.345-.403-.66-.832-.948-1.268-.279-.421-.45-.893-.631-1.354-.08-.206-.177-.415-.233-.628a5.55 5.55 0 01-.141-.767c-.058-.463-.082-.924.016-1.384.081-.385.198-.776.463-1.093a1.53 1.53 0 01.27-.25l.17-.126c.119-.087.239-.172.358-.258a.569.569 0 01.351-.13c.132 0 .258.047.351.13z"/><path d="M152.418 218.203c.005.03.01.06.013.089l-.013-.09m-.263-.295c.13.038.235.147.303.249a.78.78 0 01.094.255c.021.085.033.176.044.263.017.136.036.273.05.41.03.284.059.568.07.854a2.51 2.51 0 01-.057.674c-.033.14-.064.28-.1.42l-.057.219a3.662 3.662 0 01-.07.248c-.034.11-.089.215-.139.319-.035.074-.092.142-.145.206a.904.904 0 01-.253.237 1.003 1.003 0 01-.32.119 1.942 1.942 0 01-.33.022c-.255-.001-.468-.191-.468-.42 0-.111.05-.219.137-.297l.095-.066a.649.649 0 01.025-.013c.03-.224.057-.449.084-.674.027-.353.051-.707.064-1.06l.027-.802c.005-.12.007-.24.015-.36a3.05 3.05 0 01.015-.163.693.693 0 01.083-.288.403.403 0 01.059-.076l.012-.138a.383.383 0 01.395-.354c.151 0 .305.09.367.216"/></g><path d="M234.749 213.367c-19.3 6.752-29.549 10.829-30.749 12.231-.564.66-3.613 10.405-13.805 27.402-4.768 7.95-16.8 16.143-17.195 26.137-.032.812-5.576-45.657-5-43.283 1.41 5.812-38.36-1.918-33.196 18.78 1.282 5.14 5.042 3.619 8.74 15.866 4.17 13.81 8.62 41.625 16.148 49.94 13.23 14.614 47.786-41.208 49.81-40.02 1.609.943-1.854 20.846.969 53.176.437 5.004 3.017 12.268 7.742 21.79 18.276 8.251 32.67 12.542 43.18 12.873 10.51.332 26.489-3.002 47.937-10l-1.454-21.24c11.57 4.563 17.493 6.39 17.77 5.481.719-2.358-.478-35.55 0-38.429 2.349-14.126 1.703-35.063-1.547-51.76-1.446-7.43-2.206-14.096-3.654-19.783-.773-3.03-3.153-5.34-7.141-6.93l-34.365-9.952c-5.043 7.341-12.145 11.012-21.307 11.012-9.162 0-16.79-4.43-22.883-13.29z" fill="#8B9FDC"/><path d="M157.2 237c-.133-2.117.2-3.596 1-4.437.5-.527 5.894-5.61 6.8-11.244.36-2.243-.59-5.849-2.853-10.819.006-20.343-1.564-29.421-4.71-27.235-3.145 2.187-4.287 10.325-3.426 24.415-.92-.649-1.613-1.023-2.08-1.122-1.426-.304-2.716.152-3.014.452-.324.326-1.502-.737-3.619 0-.523.182-1.445 1.015-2.765 2.499-1.605-.438-2.736-.477-3.395-.117-.658.36-1.22 1.325-1.687 2.894-.51 7.517-.28 12.88.687 16.093.607 2.013 2.785 3.088 4.638 5.621.735 1.005 1.743 3.005 3.022 6l11.401-3zm151.17 101c-1.172 13.666-1.172 20.852 0 21.558 1.17.705 2.71-1.64 4.618-7.036l6.306-10.039-10.925-5.399m-66.376-135.346c7.656 4.086 12.688 5.84 15.096 5.262 10.911-2.619 9.798-6.815 10.911-6.366.454.182-.023 2.657 2.607 6.366 1.112 1.567 3.889 4.449 8.332 8.646-2.9 6.525-9.379 10.14-19.439 10.848-10.06.707-18.147-3.669-24.262-13.127 3.63-2.563 5.882-4.596 6.755-6.1.873-1.502.873-3.346 0-5.53z" fill="#BDA48E"/><path d="M233.108 547.456c-17.776 16.343-26.665 25.246-26.665 26.709 0 .918-1.553 12.416 8.986 11.944 4.166-.187 14.54-4.47 31.124-12.849 8.428.02 14.072-1.314 16.931-4.005 2.86-2.69 3.24-7.022 1.14-12.997 1.406-1.153 1.406-1.926 0-2.319-6.866-1.917-17.371-4.078-31.516-6.483zm40.166 7.814c-5.18 9.76-6.911 14.863-5.192 15.312 2.579.674 13.157 5.85 13.157 5.85s1.59 11.411 8.673 17.725c1.738 1.55 5.476 2.068 11.213 1.558 7.906-.251 11.026-3.449 9.359-9.592-1.667-6.143-8.524-16.722-20.572-31.736l-16.638.883z" fill="#979694"/><path d="M233.108 542.685c20.064-2.986 30.096-3.33 30.096-1.034 0 3.447 2.16 12.288-5.522 12.288s-22.496 1.005-22.496-2.07c0-2.049-.693-5.11-2.078-9.184zm39.018-.795c-.765 8.63-.765 12.945 0 12.945 1.148 0 15.597 1.43 16.244-.896.646-2.325 3.447-9.034 2.27-9.034-.784 0-6.955-1.005-18.514-3.015z" fill="#BDA48E"/><path d="M320.943 286.049c-.363.087-.819.325-.973.637-.56 1.128-1.428 2.097-2.298 3.07-.521.588-1.049 1.175-1.575 1.763-1.208 1.326-2.398 2.662-3.665 3.948a517.68 517.68 0 01-6.907 6.919c-.322.315-.525.654-.525 1.083 0 .405.192.797.525 1.084.66.56 1.903.63 2.55 0a333.59 333.59 0 004.683-4.663c1.094-1.107 2.225-2.194 3.266-3.34l3.137-3.468c.508-.56.985-1.145 1.473-1.72.96-1.118 1.842-2.27 2.306-3.614.204-.592-.126-1.25-.744-1.561a1.9 1.9 0 00-1.253-.138" fill="#161616"/><path d="M211.664 584.375a11.183 11.183 0 01-2.104-.496 5.252 5.252 0 01-.7-.341l-.142-.13a6.737 6.737 0 01-.553-.919c-.522-1.206-.88-2.279-1.085-3.277a8.196 8.196 0 01.018-1.499c.228-1.132.507-2.086.856-2.912a11.13 11.13 0 011.096-1.492c1.113-1.195 2.53-2.156 3.9-3.085.395-.263.751-.506 1.103-.752 1.297-.908 2.552-1.882 3.725-2.803l.363-.282c.458-.359.92-.714 1.385-1.07.878-.664 1.754-1.335 2.625-2.01a63.285 63.285 0 002.33-1.929c1.581-1.378 3.175-2.87 5.162-4.84.884-.883 1.769-1.773 2.646-2.662l1.43-1.446c.141.672.572 1.348 1.294 2.06a4.152 4.152 0 002.28 1.152c.56.08 1.12.14 1.684.19.708.059 1.427.07 2.122.077l.133.004h.22c1.053.013 2.018.028 2.984.045.585.01 1.166.028 1.744.05.853.03 1.67.06 2.49.06.28 0 .562-.004.84-.015 1.73-.05 3.45-.229 4.902-.398l.352-.045a48.68 48.68 0 003.379-.542l.631-.14.204-.046a23.222 23.222 0 011.565-.31 9.626 9.626 0 01.944-.02c.184.062.29.115.388.171.067.057.134.113.197.173a.981.981 0 01.082.126l.048.12c-.052.36-.087.662-.122.963l-.082.676c-.109.669-.204 1.27-.282 1.872-.063.502-.087 1.013-.113 1.526l-.024.465c-.067 1.357-.14 2.69-.32 4.054a73.8 73.8 0 01-.529 2.699l-.077.373c-.202.945-.413 1.93-.786 2.87-.057.105-.12.204-.187.306-.842.267-1.611.393-2.262.485-.631.063-1.269.123-1.904.168l-.334.026c-.821.06-1.836.133-2.812.133a15.6 15.6 0 01-1.086-.035 12.38 12.38 0 01-1.465-.351 12.95 12.95 0 00-2.231-.42 6.83 6.83 0 00-.716-.034c-.863 0-1.814.151-2.991.478-1.22.334-2.414.837-3.527 1.326a57.75 57.75 0 00-3.222 1.495c-.721.358-1.398.777-2.142 1.248l-.292.184-.497.305-.751.461-.306.19c-.599.37-1.195.738-1.798 1.094a103.66 103.66 0 01-6.507 3.545c-.568.278-1.189.524-1.686.721l-.316.127-.882.352-.922.37-.427.168c-1.808.647-3.446 1.207-5.184 1.474a15.63 15.63 0 01-1.353.056c-.793 0-1.582-.042-2.403-.137zm62.03-32.254a52.85 52.85 0 00.539-3.226c.87.126 1.776.215 2.682.3l.395.038.528.045c.899.085 1.804.148 2.706.208l.913.06a43.18 43.18 0 003.016.112l.367-.004c.62-.006 1.24-.013 1.86-.024-.123.26-.225.549-.33.845l-.037.105-.063.19c-.09.27-.194.538-.3.805l-.059.148-.05.127-.098.246c-.18.457-.29.883-.367 1.47-.098.693.384 1.45.874 1.928.187.18.395.341.6.502.123.096.243.19.36.29l.341.28.341.29c.23.188.462.378.688.572.645.539 1.286 1.168 2.016 1.98 1.18 1.443 2.124 3.015 2.893 4.362.186.33.362.662.542.992l.06.11c.226.414.454.83.694 1.237.222.38.448.76.677 1.137l.151.25.747 1.248c.138.235.279.471.42.703l.13.222.099.162c.218.358.436.72.652 1.083l.278.482.095.166c.328.562.61 1.05.93 1.511l.332.476.303.436c.37.524.74 1.051 1.096 1.583.454.682.839 1.428 1.163 2.072a89.409 89.409 0 012.737 6.886c.303.858.508 1.777.691 2.586.084.38.158.714.236 1.037.219.922.434 1.942.635 3.029.013.158.013.312.01.467-.063.106-.123.19-.18.271a8.08 8.08 0 01-.61.542c-.711.433-1.465.753-2.174 1.034-1.423.51-3.115 1.076-4.88 1.386-.465.039-.93.07-1.395.07-.134 0-.261-.003-.388-.01a28.086 28.086 0 01-1.748-.141 15.84 15.84 0 01-1.804-.355c-.63-.27-1.286-.62-2.002-1.073-1.236-.91-2.262-1.818-3.135-2.772-1.206-1.484-2.115-3.137-2.77-4.41a21.231 21.231 0 01-1.491-4.847l-.067-.479-.162-1.121c-.05-.377-.089-.75-.127-1.126-.035-.373-.078-.75-.127-1.123l-.021-.158c-.06-.45-.12-.918-.31-1.34-.12-.377-.335-.7-.641-.971-.26-.271-.578-.47-.889-.665a11.17 11.17 0 00-1.092-.443l-.116-.042-.102-.031a4.297 4.297 0 00-.433-.13 28.602 28.602 0 00-.786-.212c-.268-.07-.529-.134-.797-.197l-.264-.06a38.569 38.569 0 01-1.695-.436 63.33 63.33 0 01-2.382-.777c-.557-.229-1.11-.5-1.593-.742l-.158-.077a10.854 10.854 0 00-.459-.23l-.183-.087-.427-.208-.155-.073c.18-.697.392-1.425.597-2.132l.21-.749c.269-.94.554-1.875.853-2.808l.194-.604c.23-.714.44-1.368.592-2.04.212-.925.399-1.893.564-2.955a2.1 2.1 0 00.744-1.572c.722-.169 1.515-.264 2.216-.345.772-.08 1.53-.158 2.29-.221.314-.025.631-.046.948-.068a35.43 35.43 0 001.608-.133c.225-.028.454-.056.68-.081.44-.113.828-.312 1.148-.59.486-.43.762-1.02.762-1.622 0-1.239-1.189-2.29-2.59-2.294-.8 0-1.608.081-2.386.159l-.37.031a75.684 75.684 0 00-2.995.352l-.392.056c-.684.092-1.303.18-1.91.32.124-.387.219-.79.307-1.195zm-17.46-6.332a8.916 8.916 0 001.717-.168c-.276.868-.495 1.762-.71 2.627-.152.615-.26 1.234-.37 1.853a24.46 24.46 0 00-.137.996l-.02.148c-.012.094-.019.19-.023.288-1.198.247-2.462.422-3.541.556-.993.113-2.05.204-3.228.274-.464.032-.934.042-1.403.042-.521 0-1.039-.01-1.564-.024l-.296-.014-.45-.015c-1.28-.041-2.563-.063-3.85-.084l-.524-.007h-.148c-.934-.018-1.875-.035-2.798-.123a11.866 11.866 0 01-.585-.109 3.597 3.597 0 01-.285-.415 6.582 6.582 0 01-.004-1.083l.028-.14c.131-.61.067-1.067-.21-1.482-.05-.07-.1-.144-.156-.214l1.487-1.312c.26-.243.44-.539.518-.848.476.028.98.035 1.487.039l1.329.006c.736 0 1.48-.006 2.223-.028.895-.027 1.843-.123 2.537-.19l.701-.07a150.32 150.32 0 002.967-.32l.476-.056c1.023-.12 2.062-.127 3.07-.133l.602-.004c.36 0 .708.004 1.068.01h.091zm18.468-.693c.169-1.108.31-2.25.444-3.39.68-.117 1.18-.665 1.18-1.295 0-.53-.352-1.013-.905-1.228l.039-.144.017-.155c.69.264 1.53.531 2.628.848 2.122.626 4.289.96 6.7 1.305l.253.039.127.018c.578.077 1.148.157 1.699.183.634.028 1.268.048 1.902.063.272.007.543.01.811.01.62 0 1.237-.017 1.853-.031l.31-.007.3-.007.19-.008a69.293 69.293 0 003.172-.19c1.596-.12 3.435-.334 4.972-1.044l-.078.214-.035.243a8.872 8.872 0 01-.165.731l-.081.054c-.635.435-1.259.907-1.96 1.477a21.3 21.3 0 01-1.138.883c-.367.221-.708.404-1.054.562-.387.11-.849.201-1.37.264-.965.113-1.932.229-2.9.345-1.385.162-2.862.3-4.635.425-1.377.106-2.861.155-4.82.162l-.24.004c-2.463 0-4.922-.159-7.216-.33zm-4.525-.513a10.654 10.654 0 01-.465-.103c.004-.671.095-1.417.169-2.018l.053-.426c.18-1.126.377-2.248.585-3.37.095-.517.2-1.03.32-1.54.088.077.212.13.35.19-.106.172-.166.401-.205.752-.25 2.174-.511 4.348-.79 6.521l-.017-.006zm-9.496-14.886c-.12-.897-.24-1.801-.37-2.705l.007-.158.003-.155a17.46 17.46 0 00-.095-1.955c-.137-1.334-.412-2.74-.884-4.556l-.124-.766-.12-.764-.257-1.631-.081-.518a676.124 676.124 0 00-.606-4.002l-.032-.148-.003-.102c-.06-.496-.12-.985-.184-1.474a90.589 90.589 0 01-.395-3.384c-.235-2.543-.37-4.245-.475-5.87-.201-3.24-.35-6.412-.514-10.222-.057-1.273-.106-2.546-.16-3.82l-.052-1.23a427.412 427.412 0 00-.261-5.889c-.169-3.24-.49-6.528-.803-9.712l-.018-.168-.042-.405-.067-.706c-.152-1.517-.303-3.03-.475-4.545l-.148-1.32-.022-.161a111.434 111.434 0 01-.394-3.859c-.279-3.675-.31-7.397-.3-10.875.007-1.713.014-3.412.046-5.115.025-1.087.067-2.18.116-3.268l.11-1.005.024-.19.201-1.844c.317-2.954.487-6.074.55-10.112.014-.791.038-1.583.063-2.374.07-.637.144-1.266.225-1.9.19-1.259.385-2.494.66-3.717.281-1.26.634-2.585 1.05-3.933.412-1.337.824-2.67 1.205-4.007l.113-.404c.165-.563.324-1.122.472-1.685.303-1.136.423-2.113.36-2.985a2.134 2.134 0 00-.297-.978c.29-.651.592-1.305.9-1.963l.08-.183c.302-.655.61-1.309.892-1.97l.285-.665c.556-1.29 1.134-2.62 1.455-3.992.271-1.178.45-2.226.557-3.197.821-.046 1.54-.563 1.733-1.253.081-.277.163-.559.25-.84.05.306.13.612.216.914l.028.106c.102.387.208.767.317 1.147l.19.63.082.267c.133.446.257.85.366 1.258.159.588.307 1.19.447 1.788l.092.369.084.348c.23.946.5 1.889.769 2.8.14.485.281.974.416 1.463.408 1.484.67 3.099.874 4.397l.063.412c.246 1.656.503 3.366.54 5.065.035 1.59.055 3.176.073 4.762l.014.774.01.922.032 2.388v.147l.004.155c.035 3.04.081 6.18.194 9.265l.039.978.003.105c.049 1.566.11 3.338.265 5.062l.056.662c.066.83.134 1.631.225 2.426.13 1.07.25 2.135.374 3.205a115.1 115.1 0 01.525 6.359c.105 1.786.084 3.585.064 5.322v.134l-.008.44c-.014 1.248.11 2.535.374 3.942.085.45.19.9.3 1.351l.09.39.1.43.094.418c.018.074.028.148.04.222l.02.094c.029.184.06.377.114.56l-.156.418-.155.43c-.21.601-.401 1.203-.599 1.808-.36 1.11-.722 2.236-1.194 3.316l-.332.756c-.285.64-.567 1.285-.82 1.936a9.866 9.866 0 00-.639 3.052 39.556 39.556 0 00-.031 2.258v.626c.003 1.038.003 2.076-.004 3.117-.024 4.073-.2 8.27-.518 12.466a505.614 505.614 0 00-.757 11.888l-.074 1.373c-.17 3.207-.385 7.2-.427 11.054l-.024 1.844v.14c-.05 3.51-.099 7.14.024 10.752.014.5.068.996.127 1.492.05.464.116.925.198 1.39.133.826.482 1.55.767 2.089.064.116.135.232.222.341-.507 2.1-.919 3.995-1.246 5.786a76.553 76.553 0 00-.547 3.394l-.039.32-.039.324c-.087.71.046 1.316.409 1.847.676.999 2.086 1.288 3.225 1.519l-.096.56-.094.65c-.184.932-.357 1.801-.635 2.66-.095.313-.222.615-.349.918a8.29 8.29 0 00-.402 1.08c-.13.488-.197 1.037-.204 1.68-.004.588-.007 1.288.226 1.886-.17.323-.28.7-.363 1.217l-.022.116c.015-.64-.098-1.301-.204-1.942a18.148 18.148 0 01-.141-1.216 6.42 6.42 0 00-.402-1.805 4.63 4.63 0 00-.479-.957c-.342-.555-.789-.988-1.484-1.442-.641-.418-1.458-.739-2.314-.907a6.598 6.598 0 00-1.132-.1c-.436 0-.909.04-1.529.124l.017-.133c.008-.345.011-.666.036-.96.056-.715.14-1.418.236-2.125l.024-.144c.11-.658.222-1.312.368-1.952l.133-.602.035-.17c.11-.509.222-1.018.363-1.518l.225-.788c.142-.528.286-1.052.455-1.565l.388-1.162.088-.26.074-.242c.296-.194.465-.408.518-.661.063-.3.116-.599.165-.898.057-.299.057-.555-.122-.823a.976.976 0 00-.318-.316c.113-.71.17-1.467.187-2.24.007-.17.014-.335.028-.493l.254-.193c.8-.648.969-1.836.394-2.709-.327-.5-.874-.876-1.512-1.03a2.837 2.837 0 00-1.401 0l-.046-.071zm-2.513-144.78c-.17-.062-.338-.13-.504-.179l.085-.053 1.007-1.054c.385-.405.79-.841 1.167-1.313.088.306.225.62.38.93.378.741.836 1.448 1.269 2.109.148.222.296.45.437.675l.117.18.087.137.089.14a2.689 2.689 0 00-.237.462c-.06.133-.12.267-.165.404l-.039.103-.01.063c-.765-1.428-2.108-2.375-3.683-2.603zm51.677-27.062a1.5 1.5 0 00-.11-.95c-.136-1.33-.256-2.744-.38-4.58.401-.235.878-.689.99-1.235a10.55 10.55 0 00.208-2.342 21.994 21.994 0 00-.098-1.53l-.015-.15a83.908 83.908 0 00-.39-3.532c-.17-1.373-.322-2.685-.462-3.997.168.06.38.089.58.11.61.091 1.224.239 1.873.442.972.45 1.867 1.042 2.734 1.608.69.457 1.272.823 1.846 1.185a79.445 79.445 0 01-4.158 5.755c-.173.218-.352.429-.533.643l-.115.142-.113.14c-.212.257-.42.513-.617.777a2.999 2.999 0 00-.324.556 3.405 3.405 0 00-.317.743 4.334 4.334 0 00-.089.805c-.013.225 0 .46.018.693.025.288.036.436.04.58.034.84.066 1.942-.043 2.997a4.658 4.658 0 01-.172.608c-.085.155-.18.306-.276.461l-.07.116-.007-.045zm-41.768-156.563c-.507.046-1.011.088-1.518.127 0 .041-.004.084-.004.126l-.022.496c-.048 1.002-.109 2.135.131 3.198.162.696.461 1.273.948 1.81.18.201.366.391.567.574.42.373.835.742 1.262 1.105.514.436 1.046.858 1.578 1.277.346.27.694.544 1.032.823a346.5 346.5 0 002.806 2.264l.468.377a51.02 51.02 0 001.53 1.203 3.35 3.35 0 00-.944.566c-.16.138-.31.286-.462.433l-.194.194c-.387.375-.775.749-1.177 1.111-.938.847-1.959 1.628-2.745 2.216a73.36 73.36 0 01-2.273 1.46 22.37 22.37 0 01-2.692 1.403c-.5.215-1.015.412-1.533.608-.67.225-1.3.384-1.914.476-.898.08-1.807.144-2.712.196l-.392.025c-.384.02-.778.043-1.17.052-.172.004-.33.008-.49.008a29.03 29.03 0 01-3.168-.18l-.342-.05-1.705-.252c-1.512-.222-3.118-.648-5.042-1.336-1.921-.747-3.658-1.622-5.173-2.614a22.526 22.526 0 01-3.676-3.274c-.828-.972-1.505-2.017-2.245-3.18-.299-.479-.863-.782-1.519-.806.723-.404 1.499-.9 2.368-1.498l.695-.468c.959-.637 2.005-1.337 2.777-2.21a8.57 8.57 0 00.895-1.202c.49-.78.711-1.608.683-2.532-.013-.676-.056-1.345-.094-2.016a63.285 63.285 0 01-2.58-.172c-.212-.022-.42-.04-.624-.06.021.44.043.886.06 1.33l.01.207c.019.506.032.893 0 1.273-.053.18-.116.355-.19.538a9.154 9.154 0 01-.74 1.164c-.694.704-1.578 1.309-2.358 1.847l-.288.197-.5.352-2.362 1.614-.56.38a54.19 54.19 0 01-1.553 1.041c-.597.387-1.248.714-1.876 1.035l-.31.158c-.975.489-1.941.988-2.907 1.488l-2.27 1.167c-.676.342-1.412.644-2.124.936l-.462.194c-.838.348-1.677.703-2.508 1.062l-.917.397-.133.056-.124.053c-1.19.517-2.42 1.048-3.654 1.53-.245.087-.491.171-.737.256-.371.985-.736 1.975-1.213 2.913a74.224 74.224 0 003.092-1.09c1.49-.563 3.026-1.22 4.26-1.751l.387-.166.377-.162 1.107-.47 1.047-.434c.722-.295 1.441-.59 2.153-.91a53.94 53.94 0 002.815-1.376l.208-.106a269.782 269.782 0 013.38-1.705 29.365 29.365 0 002.568-1.411l.44-.277c-.186.386-.137.861.117 1.262.712 1.14 1.314 2.086 2.08 3.021a25.657 25.657 0 002.85 2.973c1.924 1.702 4.342 3.179 7.189 4.382 2.262.96 4.566 1.646 6.857 2.033.892.148 1.945.317 3.027.437-.124.46-.215.945-.296 1.438l-.205 1.298-.183 1.158-.14.843c-.128.74-.261 1.527-.335 2.304l-.17 1.85a220.034 220.034 0 00-.482 5.583l-.134 1.945c-.26 3.686-.589 8.276-.818 12.704a277.56 277.56 0 01-.49 7.75c-.077.963-.14 1.927-.2 2.895l-.05.8-.067 1.042c-.05.711-.095 1.422-.137 2.132-.067 1.294-.13 2.589-.184 3.886-.045 1.165-.087 2.305-.028 3.447.032.694.141 1.284.328 1.812.088.24.186.447.303.633a.608.608 0 00-.197.127c-.356.32-.694.868-.638 1.368.451 4.105.8 8.065 1.206 12.82.172 2.059.316 4.12.436 6.31.081 1.53.102 3.086.124 4.588l.02 1.596c.019.947.029 1.89.043 2.836.028 2.585.06 5.807.243 8.93.148 2.477.293 4.362.465 6.117.19 1.998.374 4 .532 6 .063.828.124 1.654.18 2.484l.053.827.123 1.653.088 1.108.085 1.048c.039.51.088 1.048.198 1.576.19.942.993 2.005 2.156 2.216a3 3 0 00.49.046c.726 0 1.343-.307 1.69-.838.315-.467.354-1.01.096-1.519-.003-.2-.003-.408-.003-.62a13.7 13.7 0 00-.011-.861 11.37 11.37 0 00-.127-1.242l-.042-.288a61.928 61.928 0 01-.268-2.821c-.12-1.58-.26-3.162-.398-4.738l-.117-1.294c-.074-.884-.154-1.762-.239-2.642-.105-1.164-.212-2.329-.314-3.493-.144-1.72-.2-3.528-.25-4.98l-.031-.834c-.06-1.815-.131-3.872-.152-5.972l-.007-1.042-.004-.408-.003-.4c-.015-1.348-.028-2.698-.078-4.042l-.035-1.21-.007-.288c-.049-1.481-.102-3.162-.25-4.77-.19-2.114-.388-4.225-.588-6.335l-.1-1.08c-.27-2.88-.539-5.69-.838-8.438a2.918 2.918 0 00-.148-.668l1.269-.078c.564-.05 1.124-.13 1.68-.214l.12-.014.494-.074.496-.07.402-.057c.452-.06.88-.12 1.315-.169.239-.063.43-.162.584-.302.248-.218.388-.517.388-.823 0-.31-.14-.609-.388-.827-.197-.172-.538-.348-.852-.348a87.66 87.66 0 00-4.226.57c-.355.063-.722.109-1.081.158l-.26.032-.258.031c-.325.043-.641.089-.955.134l-.017-.134-.064-.273c-.12-1.024-.078-2.065-.04-3.068l.004-.12c.054-1.185.11-2.366.177-3.549.099-1.741.211-3.482.324-5.227l.063-.963.092-1.375c.035-.493.078-.985.117-1.478.048-.541.09-1.083.123-1.625.08-1.283.154-2.568.218-3.852.082-1.702.173-3.408.261-5.114l.06-1.083.074-1.312c.095-1.826.214-3.577.33-5.33l.11-1.656.064-.984.02-.349c.04-.612.078-1.22.135-1.829l.035-.401.387-4.27c.035-.425.074-.847.11-1.277l.018-.161.01-.11.01-.137-.076.127.27-1.312.268-1.713.3-1.9c.092-.566.208-1.132.32-1.695l.138.032h.007c.268 0 .532-.008.8-.021 1.113-.053 2.223-.113 3.33-.183a24.5 24.5 0 001.998-.221c.786-.135 1.533-.406 2.227-.683l.265-.105.148-.057c.5-.2.961-.387 1.427-.587.88-.373 1.762-.841 2.692-1.428l.401-.253c.476-.297.948-.592 1.406-.908.938-.647 1.667-1.168 2.383-1.745a40.77 40.77 0 002.135-1.86c.2-.19.394-.377.585-.567l.183-.175.127-.127c.236-.246.472-.52.694-.82.074-.092.138-.193.197-.292l.05-.084c.081-.134.159-.268.26-.397.047-.06.082-.124.117-.188.327.216.7.416 1.078.61 1.19.611 2.29 1.128 3.376 1.586.997.422 2.125.823 3.53 1.262 2.605.823 4.927 1.495 7.094 2.055l.233.063c2.206.58 4.482 1.178 6.787 1.597l.972.18c1.632.291 3.481.622 5.19 1.16.663.278 1.304.595 2.016.95l.159.077a25.36 25.36 0 012.344 1.319c.327.25.595.485.845.742.602.78 1.04 1.643 1.547 2.688l.057.133c.3.661.592 1.33.86 2.002.334.844.588 1.692.863 2.635.401 1.389.725 2.876 1.025 4.688.193 1.33.402 2.66.617 3.988l.278 1.9.518 3.595c.176 1.203.37 2.399.571 3.598l.11.693.027.162.198 1.213c.433 3.19.817 6.331 1.209 9.536l.239 1.977.268 2.173c.257 2.072.676 4.207 1.01 5.92l.272 1.442c.265 1.397.55 2.79.84 4.179l.155.774.288 1.397c.307 1.515.592 3.035.864 4.554.098.897.116 1.7.063 2.456-.381 1.744-1.145 3.46-1.822 4.976l-.173.384c-.577 1.298-1.134 2.6-1.68 3.904-.618 1.467-1.149 2.8-1.438 4.228-.145.697-.23 1.298-.265 1.84-.024.433.046.932.212 1.537.194.675.687 1.256 1.131 1.748.236.253.487.492.74.732.268.249.462.432.649.625.26.332.496.683.725 1.074.37.928.543 1.91.706 2.919.09.735.175 1.474.225 2.216.032.531.01 1.101-.064 1.797a11.2 11.2 0 01-.539 1.794c-.444.816-1.043 1.594-1.575 2.283l-.077.102c-.303.4-.6.788-.878 1.192-.588.844-1.033 1.805-1.357 2.927-.172.609-.232 1.262-.271 1.882-.035.45.053.917.127 1.325l.06.38c.05.306.151.605.254.884.207.548.514 1.118.902 1.688.327.482.677.95 1.032 1.417l.493.658c.247.337.501.675.755 1.01l.056.077c.648.855 1.314 1.737 1.833 2.645l-.085.052c-.374.332-.677.627-.973.922l-.144.14-.074.078c-.42.419-.824.848-1.22 1.284-.352-.282-.757-.552-1.162-.823l-.138-.088a63.453 63.453 0 00-1.79-1.136l-.426-.26c-.364-.226-.723-.45-1.083-.682a75.88 75.88 0 00-1.761-1.12c-.63-.39-1.339-.71-2.294-1.037-.75-.264-1.61-.411-2.703-.47l-.176-.004c-.236 0-.475.02-.712.045a6.71 6.71 0 00-1.135.211 25.256 25.256 0 00-.14-1.8l-.103-1.052c-.08-.834-.158-1.664-.278-2.484-.36-2.483-.708-4.967-1.036-7.453-.236-1.83-.483-3.658-.733-5.487l-.06-.465c-.222-1.624-.472-3.467-.8-5.23l-.148-.83-.042-.257c-.106-.57-.201-1.112-.318-1.643l-.246-1.104-.085-.376-.295-1.336a187.047 187.047 0 01-1.114-5.74c-.208-1.458-.42-2.917-.602-4.373-.07-.58-.209-1.024-.673-1.436a2.45 2.45 0 00-1.615-.598c-.599 0-1.187.218-1.62.598l.105-.144.06-.175c.49-1.411 1.004-2.818 1.53-4.218.503-1.322 1.032-2.733 1.49-4.185.913-2.92 1.744-5.938 2.463-8.973l.212-.89c.595-2.522 1.187-5.026 1.758-7.556l.595-2.659c.117-.503.202-1.016.29-1.53.049-.291.091-.553.14-.816.24-1.319.437-2.73.628-4.446l.342-3.063.035-.317.028-.257c.208-1.847.412-3.686.61-5.533.12-1.104.204-2.209.292-3.317l.092-1.171c.042-.47.046-.95.046-1.425l.003-.334.003-.34c.022-.94.043-1.964.015-2.994-.015-.697-.653-1.263-1.417-1.263-.38 0-.75.145-1.018.39-.268.24-.409.549-.402.873.018.999 0 1.99-.025 2.993l-.003.327-.004.324c0 .482-.004.967-.049 1.449l-.071.89a93.688 93.688 0 01-.341 3.598c-.36 3.057-.737 6.113-1.118 9.17l-.013.092c-.05.39-.089.692-.127 1.002l-.145.95-.18 1.115c-.084.537-.19 1.072-.302 1.61l-.148.732a76.366 76.366 0 01-.783 3.454l-.053.212-.074.306-.434 1.776a1378.97 1378.97 0 01-1.817 7.39c-.331 1.361-.72 2.684-1.09 3.964l-.045.158c-.455 1.551-.836 2.835-1.29 4.098a321.284 321.284 0 01-1.941 5.212c-.427 1.137-.857 2.262-1.28 3.392-.482 1.315-1 2.623-1.519 3.932a24.97 24.97 0 00-.666 1.913c-.094.32-.183.644-.26.967-.05.226-.07.465-.092.697-.01.2.018.352.05.503a2 2 0 01.035.193l.099.211c.074.223.2.419.383.585a1.7 1.7 0 00.412.306c.16.06.314.116.47.168.112.042.229.064.362.064.356 0 .754-.148 1.008-.376.338-.307.497-.817.377-1.21l.085-.174c-.004 0-.036.018-.04.018h-.003a.35.35 0 00-.048.036c.274-.475.453-.985.627-1.478l.197-.552.215-.598.5-1.393c.23-.626.451-1.252.673-1.882.346 3.264.758 6.05 1.244 8.512.296 1.51.6 3.015.909 4.524.187.925.342 1.86.497 2.782l.039.25.06.362.032.219c.416 3.14.771 6.342 1.113 9.433l.077.64c.152 1.361.3 2.723.455 4.084.081.675.162 1.319.243 1.963l.173 1.41c.102.816.165 1.636.23 2.459.027.373.055.745.087 1.115.092 1.009.166 2.018.24 3.031.092 1.253.183 2.467.295 3.672.089.86.184 1.714.283 2.572.09.784.18 1.569.26 2.353l.095.865.022.201c.144 1.368.292 2.782.317 4.189.014 1.013.779 1.903 1.853 2.166a81.73 81.73 0 00.233 3.156l-.092-.008c-1.117.247-2.318.528-3.51.905a16.19 16.19 0 00-2.11.826l-.138.064c-.352.161-.659.306-.969.443-3.633 1.22-7.502 2.019-11.24 2.79l-.18.031-3.253.68-1.025.217c-.74.159-1.43.303-2.122.419a224.31 224.31 0 01-6.603 1.093l-.279.036-1.339.158-1.338.158c-2.126.172-3.982.295-5.674.373-.786.039-1.568.063-2.354.08l-.836.029c-.545.021-1.074.035-1.606.035l-.183-.004c-1.875-.017-3.803-.035-5.677-.116l-.63-.024a29.11 29.11 0 01-1.759-.098l-1.396-.127-1.42-.13-.63-.095c-1.467-.218-3.027-.461-4.557-.77l-.38-.07-.596-.113a25.052 25.052 0 01-1.956-.395 774.54 774.54 0 00-3.21-.808 87.427 87.427 0 01-4.912-1.4l-.66-.208-.175-.06c-.575-.183-1.142-.358-1.692-.563l-2.473-.917a54.735 54.735 0 00-.924-.409 50.333 50.333 0 01-1.987-.9l-.821-.405-2.365-1.16a61.583 61.583 0 00-3.02-1.44 47.068 47.068 0 00-1.194-.509c-.318.02-.617-.12-.84-.341-.013-.007-.027-.011-.041-.017l.01-.018a1.252 1.252 0 01-.275-.461 5.708 5.708 0 01-.07-.239.982.982 0 01-.172.014c-.385.032-.793-.053-1.178-.084-.394-.035-.789-.046-1.183-.064-.251-.01-.505-.02-.754-.035-.004.007-.004.01-.008.014-.535.292-.93.746-1.1 1.273-.162.497-.299.995-.44 1.495-.165.609-.232 1.238-.299 1.85l-.022.222c-.074.703-.07 1.435-.066 2.139v.686l.095 1.128c.113 1.334.222 2.664.324 3.996.096 1.192.134 2.392.19 3.588.028.658.015 1.32.021 1.977.004.26.015.524.011.78-.014.814.035 1.672-.253 2.446-.106.285-.248.516-.518.675-.07.039-.146.074-.222.099-.039.682-.081 1.364-.131 2.047l-.007.101-.046.725c-.045.7-.088 1.4-.13 2.1l-.007.105-.008.135c-.196 3.784-.425 8.075-.239 12.285.113 2.406.268 4.63.483 6.8l.014.13c.19 1.98.402 4.136.405 6.219.007 2.535-.046 4.611-.162 6.524-.035.623-.074 1.246-.12 1.872l-.013.245c-.096 1.45-.198 2.923-.22 4.377-.094 4.674.011 8.927.322 13 .055.728.179 1.46.295 2.17l.018.112.021.1.085.495c.123.742.253 1.484.416 2.223.243 1.108.564 2.206.877 3.264l.212.739a55.37 55.37 0 011.039 4.161c.264 1.284.479 2.585.687 3.837l.035.247c.247 2.04.459 4.076.663 6.116.109 1.038.229 2.076.349 3.113l.052.5.057.495c.095.827.187 1.653.268 2.476.388 3.986.839 8.689 1.244 13.367l.046.584c.169 1.91.338 3.859.55 5.776.236 2.127.503 4.248.778 6.37.556 4.255 1.11 8.511 1.663 12.77.26 1.982.529 3.958.797 5.935.348 2.6.697 5.199 1.032 7.797.268 2.076.454 4.176.63 6.325.064.725.107 1.446.146 2.17l.01.253.018.268.024.482c.074 1.34.134 2.775.074 4.2-.01.337-.043.678-.088 1.012-.37.116-.687.26-.962.426a5.537 5.537 0 00-.606.37c.08.84.148 1.68.221 2.522.117 1.34.19 2.687.233 4.03.018.448.028.894.046 1.34.089-.126.17-.256.254-.383.095.074.229.133.349.18.362.15.758.285 1.209.407a1.6 1.6 0 001.046.395l.595-.026a8.45 8.45 0 001.497.138c.551 0 1.09-.06 1.594-.173.12-.024.23-.048.346-.077 2.882-.067 5.645-.098 8.21-.098.352 0 .708 0 1.06.003h.8c.959 0 1.992-.01 3.038-.07 1.48-.092 2.749-.253 3.876-.496 1.198-.246 2.495-.657 4.077-1.294 1.223-.489 2.46-1.059 3.454-1.516.613-.281 1.23-.563 1.85-.838l-.106.373-.063.409-.011.347-.015.33a29.955 29.955 0 01-.148 1.971c-.253 1.449-.556 2.99-1.18 4.446l-.33.073a32.156 32.156 0 01-1.653-.07 33.402 33.402 0 00-1.71-.06c-.38 0-.761.015-1.138.05-1.533.158-3.093.373-4.56.573l-1.261.17c-2.4.224-4.97.33-8.317.344l-.45.004c-1.283 0-2.57-.03-3.852-.064-1.3-.035-2.594-.155-3.682-.268-1.326-.218-3.045-.537-4.67-1.083.025 1.172.043 2.343.028 3.511 0 .056-.003.109-.003.161.236.081.469.155.709.229l.426.13.264.088c.437.148.8.267 1.174.345 2.378.507 4.7.7 7.491.904l.17.014.175.01c-2 1.756-3.625 3.275-5.27 4.911l-1.104 1.104-.264.267a166.681 166.681 0 01-3.655 3.578 121.17 121.17 0 01-2.555 2.342l-.176.159c-.7.633-1.451 1.3-2.22 1.881-1.772 1.344-3.499 2.663-5.14 4-1.163.953-2.43 1.843-3.651 2.704-.698.496-1.262.897-1.823 1.302l-.18.13c-.774.556-1.645 1.179-2.353 1.89-.831.836-1.762 1.824-2.297 2.957-.459.96-.762 2.117-.945 3.64-.123 1.07-.01 2.189.331 3.332.286.918.684 1.815 1.061 2.655.24.531.473 1.003.719 1.435a5.323 5.323 0 001.24 1.436c.515.407 1.132.664 1.825.939 1.89.753 4.021.914 5.871 1.006.183.01.366.014.547.014 1.166 0 2.4-.17 3.882-.535 2.514-.601 4.941-1.516 7.197-2.417 2.118-.84 4.137-1.945 6.096-3.01l.5-.278c1.008-.552 2.012-1.164 2.977-1.752l.29-.176a92.658 92.658 0 012.66-1.593c1.431-.816 2.978-1.463 4.302-1.99 1.04-.366 2.154-.743 3.317-.944a9.228 9.228 0 01.687-.007c.514.092 1.004.236 1.483.377.465.134.846.246 1.237.334.857.204 1.826.302 2.96.302 1 0 2.016-.077 2.999-.151l.553-.039c1.068-.077 2.682-.214 4.32-.5a16.512 16.512 0 001.674-.372c.786-.215 1.332-.563 1.811-.907.441-.32.78-.75 1.054-1.094.162-.2.261-.377.356-.553l.088-.161a13.2 13.2 0 00.152-.286c.133.41.405.803.757 1.137.3.278.635.481.92.654.194.113.472.204.74.285.589.243 1.107.496 1.604.742l.606.299c1.007.5 2.085.852 3.02 1.14.796.25 1.617.454 2.392.644.892.221 1.807.45 2.689.734.137 1.126.32 2.252.545 3.437.198 1.045.49 2.121.893 3.296.813 2.329 1.99 4.615 3.505 6.785 1.484 2.139 3.609 4.056 6.143 5.543.922.542 1.712.908 2.414 1.119.715.221 1.504.405 2.41.559 1.413.232 2.762.348 4.14.348l.452-.007c.62-.01 1.257-.102 1.874-.19l.525-.074c.532-.074 1.064-.19 1.582-.299l.5-.112.808-.169c1.338-.278 2.695-.559 3.918-1.08 1.437-.612 2.509-1.322 3.277-2.167.846-.945 1.318-1.836 1.473-2.803a7.244 7.244 0 00.077-1.934c-.109-1.238-.338-2.547-.708-4.122-.292-1.238-.634-2.565-1.13-3.834a42.68 42.68 0 00-.945-2.178l-.067-.158a58.128 58.128 0 01-.49-1.08l-.208-.475c-.574-1.301-1.1-2.47-1.713-3.605-.648-1.206-1.444-2.318-2.075-3.149-.63-.854-1.247-1.688-1.797-2.543-.51-.801-1.04-1.592-1.572-2.384-.546-.816-1.081-1.64-1.614-2.46l-.225-.337a188.557 188.557 0 00-1.61-2.458l-.31-.468a58.294 58.294 0 00-1.463-2.152c-.68-.954-1.523-1.844-2.259-2.586a28.151 28.151 0 00-4.383-3.595c.25-1.027.592-2.04.947-3.07l.233.01.257-.01c.99-.036 1.977-.06 2.967-.085.493-.014.987-.045 1.477-.095.508-.056 1.208-.13 1.864-.33.345-.096.733-.24 1.156-.43 1.462-.633 2.621-1.66 3.738-2.652a31.77 31.77 0 011.1-.95c.349-.288.704-.608.959-.987.37-.528.595-1.116.736-1.904.169-.928.24-1.875.289-2.768.028-.426.038-.854.05-1.28.01-.549.027-1.098.07-1.646.088-1.02-.881-1.903-1.833-2.135l.021-.134c.01-.517.046-1.027.085-1.548.113-1.523.289-3.05.436-4.396l.019-.127.172-1.523c.236-2.17.427-4.309.602-6.3.089-.998.163-1.998.24-3l.015-.2c.06-.827.123-1.658.19-2.488l.106-1.251c.14-1.731.285-3.469.405-5.202.324-4.51.56-8.622.712-12.562.221-5.708.637-11.505 1.046-17.112l.01-.165.012-.169.013-.168.011-.138c.155-2.139.31-4.274.455-6.409.2-2.978.342-5.94.493-9.23l.007-.112c.056-1.259.11-2.437.169-3.611l.116-2.364c.06-1.31.12-2.548.187-3.782.113-1.956.218-3.858.3-5.765.088-2.033.186-4.066.288-6.099.117-2.346.233-4.692.321-7.038.082-1.977.173-3.95.268-5.924.102-2.17.208-4.34.282-6.51.046-1.312.116-2.624.187-3.937l.027-.526.06-1.112c.043-.848.086-1.7.124-2.55.06-1.302.12-2.554.19-3.806.162-2.624.374-5.297.578-7.882l.007-.124.05-.577.074-.963.017-.19c.07-.859.138-1.71.201-2.568l.117-1.488.017-.218c.113-1.456.225-2.884.296-4.316l.06-1.006.007-.112c.04-.697.08-1.369.095-2.048.007-.341.022-.681.032-1.023.025-.735.046-1.442.028-2.142a244.92 244.92 0 00-.222-6.662c-.084-1.833-.352-3.672-.616-5.448l-.054-.352c-.109-.764-.207-1.53-.306-2.294l-.064-.496-.014-.116a94.17 94.17 0 00-.535-3.816 34.517 34.517 0 00-.617-2.927l-.056-.225-.159-.591c.07.053.183.07.35.07.566 0 .976-.203 1.444-.53.592-.412 1.081-1.003 1.497-1.801a5.51 5.51 0 00.43-.985c.085-.268.117-.556.148-.83l.028-.268a7.8 7.8 0 00.036-.858c.003-.64-.06-1.291-.117-1.864-.063-.679-.122-1.34-.122-1.981.193-.323.447-.63.693-.928l.183-.218c.19-.24.374-.471.557-.707l.152-.194c.367-.464.715-.932 1.071-1.406l.07-.1.16-.214a68.852 68.852 0 002.42-3.461c-.004.042.032.081.067.12.232.228.367.362.515.489.648.562 1.508.876 2.42.876.24 0 .497-.029.768-.078 1.117-.211 1.749-.977 2.361-1.717l.272-.323.109-.127.113-.122c.99-1.112 1.867-1.974 2.763-2.716.239-.194.468-.405.676-.622.278-.29.557-.606.737-.947.323-.62.391-.88.493-1.586.165-1.102-.44-2.259-.878-3.106-.44-.865-1.046-1.668-1.63-2.441a40.505 40.505 0 01-.544-.714c-.233-.323-.479-.64-.73-.96-.566-.732-1.106-1.432-1.532-2.171a5.233 5.233 0 01-.197-.654 5.54 5.54 0 01.006-.763c.092-.373.194-.722.318-1.06.405-.685.916-1.325 1.409-1.948l.06-.08c.476-.595.899-1.133 1.262-1.696 1.053-1.61 1.593-3.651 1.561-5.895-.014-.985-.159-1.924-.353-3.05a45.267 45.267 0 00-.578-2.947 9.243 9.243 0 00-1.72-3.567c-.355-.457-.753-.88-1.127-1.273-.159-.162-.338-.317-.51-.468l-.156-.137c-.092-.077-.172-.155-.26-.24l.013-.306c.423-2.107 1.421-4.216 2.224-5.912l.56-1.111c1.037-2.037 2.107-4.148 2.76-6.336.394-1.315.486-2.806.278-4.558a16.983 16.983 0 00-.243-1.505l-.117-.661-.084-.518-.053-.295-.046-.292c-.12-.693-.24-1.39-.377-2.08-.3-1.518-.61-3.038-.92-4.554l-.017-.092c-.564-2.764-1.148-5.624-1.653-8.413-.13-.872-.268-1.748-.401-2.62l-.166-1.105-.081-.517a217.203 217.203 0 01-.687-4.749c-.328-2.465-.66-4.878-1.121-7.27-.451-2.35-.863-4.748-1.265-7.076l-.063-.373-.078-.45c-.33-1.974-.669-3.947-1.033-5.917a28.218 28.218 0 00-.746-3.17l-.16-.53c-.277-.919-.563-1.868-.957-2.776a56.25 56.25 0 00-1.664-3.496c-.648-1.253-1.445-2.69-2.745-3.88-.25-.235-.56-.432-.835-.608-.155-.099-.27-.173-.387-.25a10.05 10.05 0 00-.628-.383 22.81 22.81 0 00-1.769-.915l-.32-.151c-1.072-.507-2.132-1.006-3.218-1.32-1.032-.305-2.1-.495-3.14-.678a354.462 354.462 0 00-3.813-.654c-2.645-.44-5.18-1.09-7.98-1.833a129.991 129.991 0 01-7.912-2.346 62.761 62.761 0 01-3.643-1.618c-1.004-.489-2.047-1.072-3.288-1.843-1.441-1.037-2.868-2.163-4.123-3.159l-.51-.404a53.38 53.38 0 00-1.008-.777 71.85 71.85 0 01-1.392-1.087c-.628-.5-1.414-1.122-2.065-1.797a2.478 2.478 0 01-.17-.525c-.063-.679-.056-1.365-.048-2.026v-.186c.002-.275.006-.553.013-.827-.754.018-1.501.028-2.255.032zM201 246.148c.043-.031.082-.062.125-.098a3.041 3.041 0 00-.125.098" fill="#161616"/><path d="M226.097 339.939c-.035.332-.066.66-.097.992l.01.375c.014.524.025 1.048.034 1.575l.022 1.209c.006.353.03.708.03 1.061.366.19.765.336 1.155.48l.43.155c.273.107.543.206.81.306l.16.055.686.255c.19.074.385.147.576.225l.336.129c.647.261 1.458.586 2.249.796l.395.111 1.414.383c.332.093.669.163 1.005.232l.142.03.138.029.61.122c1.047.23 2 .406 2.946.539l.904.128.132.023.1.014.14.019c.838.118 1.711.24 2.567.305l1.235.1.107.007.104.008c1.905.148 3.878.303 5.825.336l.985.021.402.008.418.008c.68.01 1.356.025 2.042.025l.34-.004c2.44-.014 5.018-.246 7.87-.7l.998-.151.201-.033a49.314 49.314 0 002.25-.377l4.03-.8c.71-.132 1.414-.309 2.118-.482l.12-.033.136-.033.353-.085.842-.21a63.589 63.589 0 002.395-.631l.561-.155 1.356-.376c1.185-.328 2.37-.657 3.562-.963a2.304 2.304 0 001.432-1.054 2.128 2.128 0 00.242-1.725c-.284-.98-1.23-1.64-2.346-1.64-.194 0-.395.021-.603.065-1.47.321-3.123.726-5.067 1.239-1.805.476-3.608.93-5.423 1.368-1.196.287-2.423.538-3.608.782l-.291.058-1.102.218c-.506.107-1.012.192-1.525.273l-.562.092a103.71 103.71 0 01-3.34.531c-1.962.232-4.052.339-6.572.339-1.818 0-3.656-.059-5.232-.114a80.112 80.112 0 01-3.005-.17l-.939-.062a44.271 44.271 0 01-2.97-.318l-.18-.029-.635-.1c-.758-.122-1.514-.242-2.266-.397l-.596-.112-.121-.021-.101-.02a14.35 14.35 0 01-.926-.195 257.9 257.9 0 00-1.815-.471c-.676-.177-1.345-.424-1.99-.668-.38-.14-.686-.254-.99-.36-.43-.152-.863-.292-1.293-.429l-.177-.058-.187-.064a39.873 39.873 0 01-1.05-.35 7.73 7.73 0 01-.617-.339 6.857 6.857 0 01-.391-.39 8.735 8.735 0 01-.378-.546c.298-.576.356-.988.236-1.416a1.77 1.77 0 00-.614-.884c-.03.648-.076 1.296-.142 1.939M203 339.062l.047-.046-.002-.016-.045.062m53.286 190.091c-1.556.383-3.151 1.623-3.458 3.111-.056.27-.103.537-.143.803-.087.43-.193.856-.323 1.271-1.757.138-3.514.228-5.279.298-2.427.097-4.844.146-7.256.406-2.697.295-5.33.774-7.92 1.495.008-.067.012-.135.012-.206 0-.938-.908-1.844-1.993-1.794-1.497.071-2.93.433-4.347.849-.196.058-.388.119-.579.183l.006.183c.087 2.873.209 5.758.182 8.63a3.95 3.95 0 01-.017.294c.182.06.365.11.546.15a8.32 8.32 0 002.246.157 36.516 36.516 0 002.207-.213c.064-.004.122-.004.186-.004.951-.007 1.907-.067 2.858-.11 2.42-.103 4.844-.1 7.265-.092 1.358 0 2.716.003 4.074-.014 1.8-.022 3.6-.17 5.385-.37 2.033-.224 4.113-.373 6.1-.841.623-.146 1.183-.38 1.78-.618.154-.05.3-.11.442-.181.473-.114.936-.246 1.382-.412 1.164-.427 1.496-.555 2.46-1.29.741-.568 1.425-1.52 1.662-2.384.15-.542.268-1.1.228-1.662-.078-1.125-.328-1.708-.828-2.724a32.27 32.27 0 00-.38-.742c-.051-.12-.102-.245-.15-.369a47.396 47.396 0 01-.154-.402 5.89 5.89 0 00-.592-1.35 10.278 10.278 0 00-.782-.905c-.833-.874-2.199-1.3-3.501-1.3-.454 0-.905.05-1.319.153m20.588 2.929c-.715.174-1.128.562-1.561 1.063l-.505.587c-.525-.735-1.384-1.296-2.313-1.522-1.268-.31-2.958-.032-3.84.9-.642.675-.972 1.213-1.3 2.048-.154.388-.214.829-.318 1.228-.204.785-.373 1.575-.554 2.364-.185.802-.363 1.638-.366 2.464-.037.25-.068.5-.103.751-.097.662.329 1.544.622 2.12.545 1.057 1.685 1.857 2.83 2.372 1.263.566 2.616.829 4 1.028 1.304.189 2.637.349 3.958.398 1.023.04 2.07.143 3.094.111l3.516-.107c2.018-.06 4.053-.288 6.06-.441 4.022-.302 8.046-.135 12.028-.782.855-.14 1.597-.416 2.395-.737 1.169-.466 1.903-1.287 2.63-2.183.031-.068.063-.14.1-.21.3-.41.49-.85.57-1.32.128-.615.24-1.106.151-1.686-.095-.64-.112-1.095-.332-1.653-.365-.922-.819-1.761-1.705-2.376l-1-.682a5.383 5.383 0 00-2.484-.595c-.703-.046-1.389.082-2.08.196-.874.142-1.69.522-2.52.793-1.85.604-3.672 1.17-5.61 1.53-.372.068-.748.122-1.125.172-2.338.22-4.678.19-7.018.162-.448-.007-.897-.013-1.345-.018-1.458-.675-3.345-.446-4.507.611-.494.447-.92.947-1.182 1.528a50.6 50.6 0 01-1.176-.053c.09-.11.18-.217.271-.326 1.212-1.451 2.44-2.891 3.668-4.335.402-.466.433-1.241.265-1.782-.18-.58-.617-1.08-1.2-1.383a2.893 2.893 0 00-1.327-.317c-.231 0-.462.026-.687.082" fill="#161616"/><path d="M258.587 529.106c-1.826.431-2.994 2.119-2.455 3.688.944 2.765 1.934 5.562 2.47 8.41.024.266.037.528.03.792-.065.237-.135.475-.18.717-.096.513-.14 1.018-.2 1.525-.326 1.61-.553 3.277-.568 4.909-.008 1.033.14 2.053.314 3.075.156.902.597 1.692 1.332 2.377.404.376.906.647 1.392.94 1.376.83 3.508.465 4.635-.509 1.07-.929 1.777-2.154 1.622-3.476-.096-.83-.31-1.642-.478-2.461-.07-.63-.124-1.26-.127-1.891-.004-.866.127-1.757.065-2.62-.04-.595 0-1.19-.049-1.785-.146-1.757-.812-3.448-1.352-5.136a333.7 333.7 0 00-2.122-6.46c-.448-1.31-1.867-2.201-3.413-2.201-.303 0-.61.034-.916.106m-46.114 35.397l-.219.25.219-.25m1.01-1.16l-.33.378.33-.379m14.757-16.18l-.069.078.069-.078m5.874-.787l-.151.315.15-.315m-2.148-4.3c-.5.121-1.104.447-1.376.872l-.294.036c-.63.151-1.274.55-1.58 1.077-.342.593-.457 1.126-.497 1.79-.012.204-.023.406-.027.61-.006.233.007.454.042.668-.574.585-1.173 1.147-1.75 1.73-.779.793-1.57 1.578-2.342 2.378-.955.989-1.842 2.06-2.69 3.128-.641.815-1.238 1.66-1.892 2.467-.692.727-1.437 1.413-2.157 2.116-.83.819-1.582 1.686-2.328 2.563a193.36 193.36 0 00-1.96 2.254l-.329.38-.2.23c-.182.204-.362.41-.541.617a34.233 34.233 0 01-2.673 2.468c-1.238 1.037-2.47 2.082-3.716 3.117-.9.748-.847 2.082 0 2.837a2.429 2.429 0 001.6.587c.652 0 1.11-.24 1.598-.587 1.934-1.376 3.863-2.781 5.697-4.263 1.603-1.3 3.056-2.737 4.51-4.163.713-.691 1.397-1.405 2.109-2.097.725-.7 1.543-1.32 2.292-2.002.882-.808 1.614-1.733 2.359-2.64.588-.716 1.174-1.435 1.774-2.143 1.222-1.375 2.543-2.674 3.798-4.025.959-1.034 1.862-2.083 2.28-3.392.131-.41.136-.865.175-1.289.017-.169.037-.34.046-.509.09-.221.193-.44.29-.66l.492-1.023c.27-.554.433-1.038.242-1.645-.163-.53-.565-.993-1.102-1.271A2.64 2.64 0 00232.6 542a2.62 2.62 0 00-.635.076m8.492-342.989a.614.614 0 00-.327.725h-.004c.008.038.018.075.029.113l-.012.02c-.044.084-.088.165-.11.257a1.414 1.414 0 00-.024.48c.021.238.04.478.087.712.03.152.146.269.292.34.05.154.122.303.252.405a.72.72 0 00.27.138c.023.078.049.156.073.235.11.348.526.56.921.466.297-.075.509-.31.543-.571a.86.86 0 00.224-.157c.083-.081.136-.154.181-.232a.741.741 0 00.148-.435.724.724 0 00-.252-.54.805.805 0 00-.163-.113c-.073-.306-.185-.596-.524-.774a.958.958 0 00-.3-.092 9.897 9.897 0 01-.029-.084c-.073-.224-.146-.467-.288-.663a.787.787 0 00-.987-.23m29.236-3.41c.002.224-.014.448-.035.67a.6.6 0 00-.187.025c-.01.002-.019.006-.029.01-.375-.134-.852.114-.942.57a7.344 7.344 0 00-.062.353.723.723 0 00-.358.226.776.776 0 00-.163.293.594.594 0 00-.267-.065.624.624 0 00-.456.213c-.129.146-.172.317-.189.516-.016.195.01.397.02.587l.016.363a126.874 126.874 0 00.139 2.856c.024.384.269.706.626.706.265 0 .529-.214.604-.502a.611.611 0 00.518.048c.09.23.273.395.52.395.17 0 .313-.079.414-.203a.64.64 0 00.412.187c.312.027.556-.247.655-.553.056-.176.063-.38.07-.564.003-.15 0-.295-.004-.442-.01-.665-.007-1.334-.013-2.003-.003-.62-.043-1.241-.06-1.862a43.13 43.13 0 00-.026-.953 31.85 31.85 0 00-.023-.509c-.003-.123.016-.239.016-.362.004-.37-.27-.677-.598-.677-.324 0-.605.306-.598.677m-27.619 11.573c-.157.245-.05.53.195.683 1.183.735 2.462 1.334 3.85 1.668.708.169 1.435.29 2.16.386.16.022.296.024.438-.052a.555.555 0 00.263-.313.492.492 0 00-.056-.403c-.067-.105-.207-.224-.343-.243a30.141 30.141 0 01-2.169-.36 10.28 10.28 0 01-1.541-.472l.132.049a13.606 13.606 0 01-2.189-1.123.486.486 0 00-.257-.07.585.585 0 00-.483.25m21.434 180.993l-.102.084a2.67 2.67 0 01.102-.084m-.933-7.396a.607.607 0 01-.035.084v-.001c.01-.027.023-.054.035-.083m.791-.802c-.197.037-.393.07-.587.115-.306.067-.602.226-.882.364-.448.216-.879.487-1.301.751-.496.309-.974.64-1.451.967-.255.17-.51.342-.758.524l-.45.324c-.273.2-.538.357-.724.65a1.33 1.33 0 00-.15 1.13c.026.086.06.167.1.242a.475.475 0 00.188.57c.256.152.51.304.762.46l.073.046a1.2 1.2 0 00.842.965c.124.041.252.064.386.064a.968.968 0 00.36-.035 1.57 1.57 0 00.094-.005 5.87 5.87 0 00-.17.204c-.207.267-.39.513-.502.84-.106.3-.1.61-.008.914.14.48.595.896 1.109.863.306-.023.601-.056.886-.175.218-.09.43-.19.64-.293.19-.093.366-.209.537-.331.359-.253.673-.562 1.01-.843.099-.073.206-.137.31-.203.452-.293.63-.888.353-1.371a.98.98 0 00-.374-.37c.34-.356.682-.71 1.027-1.062a1.13 1.13 0 00.167-1.338c-.233-.402-.769-.67-1.22-.506-.069.024-.137.05-.204.077.174-.193.349-.384.524-.579.131-.145.274-.283.4-.435.129-.148.238-.294.314-.472.08-.186.136-.342.186-.532.12-.42-.007-.892-.31-1.2a1.21 1.21 0 00-.858-.365c-.107 0-.213.014-.319.045m31.97 185.97a7.62 7.62 0 00-1.106.316 28.22 28.22 0 01-.49.187l-.646.245c-.134.051-.274.096-.404.153-.36.167-.72.334-1.08.497-.198.092-.39.18-.587.269-.257.12-.505.259-.754.39a.479.479 0 00-.196.682c.148.234.486.316.742.18.252-.133.498-.272.757-.392.193-.091.39-.18.586-.268.36-.167.72-.337 1.085-.5-.045.013-.086.03-.13.047.82-.316 1.637-.67 2.502-.878.274-.068.442-.34.367-.591-.066-.218-.28-.352-.514-.352a.62.62 0 00-.132.015m3.132.995c-.367.057-.717.206-1.063.338-.28.108-.559.21-.835.32-.609.244-1.216.483-1.825.727-.482.192-.94.432-1.408.657-.326.16-.65.315-.975.473-.385.186-.752.395-1.122.6a.467.467 0 00-.175.646.51.51 0 00.668.169c.339-.193.674-.388 1.027-.561.304-.148.608-.293.909-.442l1.003-.486c.119-.06.24-.121.363-.172l3.3-1.362a5.15 5.15 0 01.356-.124c.22-.067.356-.28.294-.5a.405.405 0 00-.398-.293.735.735 0 00-.12.01m-2.468 4.919l-.033.015.033-.015m2.383-1.912c-.468.137-.932.283-1.393.433-.395.125-.781.275-1.167.418-.352.128-.692.281-1.033.435a62.17 62.17 0 00-1.526.693c-.266.125-.33.5-.195.736a.54.54 0 00.324.25.57.57 0 00.41-.053c.698-.332 1.401-.644 2.104-.958.39-.15.777-.31 1.17-.45l1.565-.557c.253-.089.415-.332.34-.604a.49.49 0 00-.599-.343" fill="#161616"/><path d="M219.294 563.283c-.405.382-.379.98 0 1.366a186.198 186.198 0 004.118 4.098.98.98 0 001.124.136c.4-.225.624-.81.329-1.195-.587-.767-1.256-1.466-1.925-2.165-.722-.756-1.464-1.495-2.194-2.24a.987.987 0 00-.712-.283 1.09 1.09 0 00-.74.283m1.945-2.04a.817.817 0 00-.239.581c0 .237.095.404.239.582.658.832 1.317 1.668 1.983 2.495.529.66 1.057 1.31 1.655 1.905a.65.65 0 00.791.104c.23-.135.41-.48.298-.751a3.835 3.835 0 00-.298-.624c-.112-.184-.235-.358-.358-.535-.266-.387-.562-.756-.85-1.125a445.27 445.27 0 00-2.081-2.632c-.127-.164-.376-.243-.57-.243a.786.786 0 00-.57.243m2.559.497l.09.013a4.211 4.211 0 00-.084-.01l-.006-.004m-.536-1.478a.858.858 0 000 1.237c.156.153.322.206.517.238l.008.004a.072.072 0 00-.014-.002l.029.01c.102.049.198.106.293.167.195.174.366.364.531.568 1.026 1.35 1.907 2.809 2.958 4.144.125.163.244.287.453.347a.772.772 0 00.937-.523c.058-.212.011-.389-.078-.58-.331-.713-.776-1.377-1.2-2.045-.41-.643-.824-1.29-1.285-1.897-.315-.417-.618-.841-.999-1.201a3.071 3.071 0 00-.675-.474 4.558 4.558 0 00-.35-.152c-.165-.06-.326-.074-.499-.098a.394.394 0 00-.057-.004c-.203 0-.434.13-.569.261m54.055-22.243a1.345 1.345 0 00-.43.208 1.59 1.59 0 00-.266.225c-.196.104-.395.201-.589.305-.126.07-.255.142-.382.21-.125.07-.258.132-.375.217-.12.088-.214.176-.255.324-.056.19.01.379.142.523a.554.554 0 00.298.168l.007.043c.003.009.003.018.005.028.03.178.224.354.402.389.002 0 .003 0 .005.002.042.109.12.204.235.268a.569.569 0 00.754-.191l.011-.019c.073-.08.148-.154.215-.242a.714.714 0 00.12-.226.589.589 0 00.009-.243l.007-.005c.155-.091.311-.185.466-.28l.056-.031.148-.047a9.09 9.09 0 00.317-.1.892.892 0 00.347-.185.652.652 0 00.155-.276l.12-.076c.122-.078.19-.216.149-.358a.325.325 0 00-.314-.232c-.033 0-.065.002-.097.003a.568.568 0 00-.437-.214.814.814 0 00-.184.006.639.639 0 00-.48-.212.665.665 0 00-.159.018m1.867 15.307a.467.467 0 00.017.323c-.204.033-.407.068-.607.109a.319.319 0 00.17-.243c.072-.045.148-.087.227-.124l-.087.03a3.81 3.81 0 01.28-.095m8.358-2.324c-.743.038-1.481.13-2.224.2-.678.066-1.36.122-2.04.178-.6.053-1.203.098-1.805.147-.671.052-1.342.07-2.013.13-.219.02-.409.132-.473.352a.482.482 0 00.301.576c-.04.01-.079.019-.118.03-.18.045-.367.104-.535.188-.165.08-.312.182-.47.283-.197.126-.215.357-.068.532.021.031.05.06.08.088.062.06.143.091.227.095a.597.597 0 00-.4.555c0 .152.073.321.193.437a.606.606 0 00-.06.266c0 .36.3.636.66.647.215.007.43.014.642.014.183 0 .364-.01.547-.022.13.18.346.297.586.301.452.011.904-.035 1.353-.077l1.305-.104c.818-.067 1.632-.116 2.45-.175.785-.056 1.568-.101 2.353-.154.384-.024.768-.053 1.152-.08.197-.017.398-.028.596-.039.225-.013.48-.01.696-.07a.7.7 0 00.523-.671.69.69 0 00-.208-.49c-.144-.14-.308-.189-.506-.206a7.241 7.241 0 00-.54-.026c-.017-.019-.033-.038-.052-.054-.13-.13-.28-.172-.459-.186a3.236 3.236 0 00-.228-.013.633.633 0 00-.535-.413c-.065-.236-.255-.451-.503-.5a3.739 3.739 0 00-.456-.064.475.475 0 00-.16-.068.774.774 0 00-.063-.24.438.438 0 00.063-.053c.203-.041.405-.09.601-.153.201-.066.348-.234.348-.448a.472.472 0 00-.36-.447.425.425 0 00-.381-.267h-.02m.546 17.47l.012.005-.012-.006m6.425-3.303c-.223.048-.445.088-.668.15-.486.13-.987.25-1.458.428-.594.222-1.18.458-1.761.705a6.22 6.22 0 00-1.258.709.901.901 0 00-.299.284c-.248.119-.49.244-.732.373-.408.218-.753.502-1.105.796-.152.127-.231.356-.231.545 0 .287.157.516.39.668.1.062.197.11.308.146.404.121.844-.136.965-.52.526-.354 1.133-.605 1.717-.85-.067.03-.13.054-.197.083l.603-.24c.19-.06.38-.117.569-.181.464-.156.927-.32 1.395-.472l.048-.016a30.315 30.315 0 012.267-.479c.203-.032.407-.06.615-.093.256-.037.553-.052.779-.197.412-.265.638-.726.501-1.21a1.093 1.093 0 00-.278-.472c-.223-.214-.475-.284-.776-.313a2.42 2.42 0 00-.233-.01c-.389 0-.784.088-1.16.166m-3.839 4.567a.167.167 0 01-.034.004l.034-.004m7.46-2.73c-.623.057-1.243.226-1.843.387-.522.137-1.034.287-1.55.438-.432.13-.857.285-1.282.428a15.74 15.74 0 00-1.526.617c-.275.128-.544.265-.805.413-.327.182-.62.4-.923.617-.192.134-.24.426-.181.624.083.278.366.473.679.473.122 0 .237-.013.356-.029.17-.026.338-.166.42-.294a.398.398 0 00.037-.07c.15-.092.303-.18.462-.263a11.51 11.51 0 011.082-.491 22.59 22.59 0 012.614-.788 26.63 26.63 0 011.909-.399c.249.117.555.132.792-.02.084-.051.163-.105.243-.166.105-.08.181-.182.262-.285.177-.22.142-.575 0-.799-.134-.211-.417-.396-.693-.396a.47.47 0 00-.053.002m2.866 3.085c-.205.033-.414.063-.623.093-.333.05-.667.117-1 .176-.702.12-1.404.26-2.103.393-.566.107-1.119.246-1.675.386-.931.234-1.852.466-2.77.736-.587.173-.956.75-.789 1.332.16.556.8.925 1.39.755.883-.26 1.772-.485 2.666-.709.563-.14 1.122-.286 1.689-.4.67-.132 1.342-.262 2.012-.396.663-.132 1.33-.285 1.999-.4a.955.955 0 00.645-.129c.088-.06.174-.116.25-.189a.99.99 0 00.272-.983 1.048 1.048 0 00-.272-.445c-.218-.206-.454-.26-.747-.297a1.487 1.487 0 00-.185-.01c-.253 0-.511.052-.76.087" fill="#161616"/><g transform="translate(122 241)"><mask id="b" fill="#fff"><use xlink:href="#a"/></mask><path d="M0 .909l.108-.09C.15.784.198.748.245.713L.207.566 0 .909z" fill="#161616" mask="url(#b)"/></g><path d="M203 269l.03-.012c.156-.059.316-.098.484-.115v-.073c.016-.032.028-.063.043-.094.093-.237.101-.477.034-.706a42.95 42.95 0 01-.591 1m-19 26.529l.298-.288a1.161 1.161 0 01-.012-.105c.004-.046.011-.089.015-.136-.098.176-.199.353-.301.529M175 303l.675-1.837.048-.171c.094-.331.184-.661.277-.992-.333 1-.668 2-1 3m41 39.23c.055-.012.113-.023.172-.031 0-.067.004-.133.004-.199-.059.078-.117.156-.176.23m-1.858 9.318c.262.851 1.32 1.452 2.407 1.452s2.145-.6 2.407-1.452c.016-.05.03-.099.044-.148-.192-.017-.386-.04-.572-.052-.41-.029-.817-.037-1.226-.052-.846-.031-1.7-.051-2.538-.133-.253-.024-.468-.06-.664-.163.04.183.086.367.142.548" fill="#161616"/><path d="M213.252 336.122zm-.873-6l.057.405-.057-.405zm-3.43-93.301c.074 4.178.14 8.356.119 12.539-.008.931.003 1.866-.049 2.798-.052.952-.119 1.905-.193 2.857-.156 2.01-.368 4.014-.535 6.024-.297 3.618-.297 7.26-.289 10.888.003 1.913.014 3.821.026 5.734.015 1.894-.023 3.796.07 5.688.06 1.194.107 2.392.208 3.582.106 1.264.279 2.515.465 3.769.173 1.242.35 2.484.474 3.733.067.665.123 1.33.16 2 .033.623.045 1.226-.014 1.849-.038.36-.105.725-.153 1.086.015-.127.034-.256.052-.382a86.5 86.5 0 01-.534 2.752c-.2.918-.417 1.832-.506 2.767a38.165 38.165 0 00-.148 5.604c.093 1.842.06 3.681.1 5.523.04 1.842.085 3.688.153 5.53.07 1.87.125 3.744.308 5.607.174 1.804.423 3.6.639 5.397a74.49 74.49 0 01.448 5.457c.049.98.15 1.936.305 2.906.123.74.275 1.468.42 2.203.122.653.215 1.308.316 1.961.19 1.397.366 2.819.716 4.189.197.775.583 1.517 1.01 2.203.517.834 1.1 1.699 1.872 2.336.72.592 1.696.788 2.563.312.471-.262.828-.694.972-1.194.134-.466.107-1.131-.216-1.538a1.689 1.689 0 01-.234-.312 9.346 9.346 0 00-.883-1.638 9.99 9.99 0 01-.645-1.094c-.722-1.92-.893-3.988-1.357-5.967-.222-.96-.5-1.905-.758-2.855-.266-.991-.43-2-.579-3.01.014.09.026.182.038.272l-.038-.275-.025-.177.025.177c-.27-2.006-.559-4.004-.874-6.004-.236-1.677-.463-3.353-.614-5.036a120.195 120.195 0 01-.35-5.787c-.074-1.796-.207-3.589-.252-5.386-.023-.964-.052-1.926-.086-2.89-.033-.885-.115-1.768-.1-2.658.024-1.397.072-2.79.246-4.176.341-1.768.838-3.507 1.143-5.287.215-1.268.245-2.536.274-3.817a29.87 29.87 0 00-.03-2.557 78.206 78.206 0 00-.237-2.984c-.085-.9-.085-1.81-.1-2.714-.03-1.821-.063-3.646-.04-5.467.04-3.782.062-7.565.055-11.347-.004-1.846-.004-3.692.022-5.54.022-1.962.134-3.92.29-5.874.141-1.727.23-3.456.33-5.187.093-1.615.053-3.24.037-4.857a1207.9 1207.9 0 00-.156-11.733c-.018-.99-.865-1.821-1.93-1.821-1.04 0-1.95.83-1.931 1.82zm31.802-36.235c-.004.455-.02.918-.064 1.37a29.456 29.456 0 01-.51 2.36c-.213.854-.392 1.729-.699 2.554a7.294 7.294 0 01-.623 1.028c-.125.143-.26.274-.406.398-.467.352-.938.7-1.402 1.064l.297-.231a24.123 24.123 0 01-2.82 1.88c-.998.566-2.006 1.103-3.012 1.658-1.058.58-2.096 1.198-3.147 1.796-1.07.604-2.15 1.191-3.24 1.764-.991.515-1.993 1.006-2.99 1.508-.514.26-1.027.522-1.541.79-2.074.75-4.166 1.45-6.223 2.26-.478.19-.957.378-1.437.567a16.301 16.301 0 01-.906 1.92c-.329.583-.67 1.16-1.028 1.728a1.9 1.9 0 00.102-.032 3.81 3.81 0 00.606-.235c.103-.053.2-.116.292-.185.079-.049.15-.106.217-.17.019-.01.033-.025.047-.035 0 0 0-.004-.004-.004.079-.078.15-.164.21-.253.197.207.475.339.764.331.367-.007.709-.139 1.058-.242.275-.082.549-.156.82-.241.506-.157.998-.342 1.49-.545a85.367 85.367 0 003.382-1.53c1.533-.714 3.056-1.44 4.585-2.158a118.75 118.75 0 003.735-1.419c.652-.263 1.305-.53 1.95-.814.638-.285 1.305-.558 1.828-1.035.243-.22.37-.573.37-.896 0-.1-.01-.203-.038-.306.67-.349 1.34-.694 2.01-1.035 1.037-.526 2.075-1.049 3.07-1.657.918-.565 1.778-1.22 2.68-1.814a6.178 6.178 0 001.069-.867 6.94 6.94 0 00.838-1.09c.495-.792.752-1.734.99-2.63.232-.865.457-1.736.642-2.611.228-1.088.424-2.265.16-3.36-.16-.684-.844-1.167-1.532-1.167-.874 0-1.575.722-1.59 1.586M137 262.355c.107-.029.219-.044.329-.044l-.022-.311-.307.355m1 47.826c.083.088.171.174.26.262.18.186.364.371.551.557-.047-.115-.09-.23-.133-.342-.195-.113-.344-.26-.406-.416l-.094-.242a2.164 2.164 0 01-.178.181m4.059 3.312l.234.507c-.097-.335-.195-.667-.293-1l.059.493" fill="#161616"/><path d="M220.761 216.052c-1.405.557-2.745 1.266-4.123 1.89-.99.384-2.023.64-3.072.815-.934.112-1.88.173-2.808.362-.504.107-1.013.21-1.517.34a7.85 7.85 0 00-1.21.44c-.36.145-.732.227-1.095.362a7.1 7.1 0 00-.844.362c-.655.343-1.067.913-1.091 1.683-.039 1.11 1.09 1.92 2.111 1.637 1.439-.4 2.864-.902 4.283-1.378a1.65 1.65 0 00.921-.759l.24-.073c.953-.282 1.882-.612 2.821-.934 1.004-.344 1.943-.831 2.872-1.33a49.985 49.985 0 012.862-1.429l.17-.068c.248-.1.444-.215.585-.458.134-.23.169-.509.099-.767-.108-.398-.517-.746-.935-.747a.714.714 0 00-.269.052" fill="#161616"/><path d="M194.286 242.19l-.06.145.06-.145m16.343-19.983l-.158.022c.053-.007.106-.016.158-.022m9.172-3.099c-1.075.626-2.138 1.26-3.268 1.787-.948.37-1.921.597-2.922.786-.988.184-1.97.378-2.96.523-.568.069-1.136.108-1.707.1-.564-.01-1.127-.063-1.687-.077-.25-.007-.497-.014-.746 0-.69.032-1.276.211-1.897.5-.677.317-1.304.81-1.804 1.361-.426.465-.802.973-1.188 1.469-.337.441-.656.896-.936 1.375-.697 1.2-1.181 2.508-1.7 3.789-.372.83-.742 1.66-1.105 2.498-.471 1.092-.89 2.206-1.337 3.309-.722 1.779-1.393 3.58-2.129 5.354-.503 1.1-.993 2.207-1.548 3.287-.549 1.067-1.166 2.104-1.726 3.167a27.978 27.978 0 01-1.628 2.665c-.297.44-.628.863-.943 1.29-.314.429-.619.866-.937 1.295-.45.563-.918 1.107-1.4 1.643-.637.71-1.216 1.466-1.796 2.22a90.482 90.482 0 01-2.636 3.155c-.957 1.092-1.865 2.223-2.784 3.347-.443.547-.9 1.082-1.333 1.636a33.83 33.83 0 00-1.613 2.213c-.787 1.187-1.408 2.474-2.06 3.739-.46.881-.926 1.752-1.316 2.67-.372.882-.74 1.766-1.038 2.68a37.85 37.85 0 00-.731 2.484c-.203.815-.216 1.69-.478 2.49-.063.125-.127.25-.2.375a1.846 1.846 0 00.288 2.223c.57.567 1.539.726 2.237.286a3.882 3.882 0 001.174-1.103c.238-.339.383-.747.493-1.149.081-.292.139-.592.198-.892.125-.623.274-1.23.465-1.832.366-1.16.768-2.302 1.22-3.43.65-1.479 1.433-2.887 2.173-4.323.344-.663.677-1.318 1.081-1.945.392-.605.793-1.193 1.227-1.767.574-.722 1.164-1.43 1.745-2.149.607-.754 1.21-1.51 1.847-2.24a94.87 94.87 0 003.792-4.67c.306-.385.615-.77.942-1.138.348-.384.702-.768 1.032-1.17.721-.888 1.383-1.817 2.082-2.722.022-.03.047-.06.07-.09.886-1.129 1.783-2.259 2.471-3.525.703-1.296 1.472-2.568 2.093-3.908.73-1.571 1.454-3.154 2.046-4.778.52-1.438 1.042-2.876 1.588-4.3.546-1.426 1.071-2.857 1.641-4.275.288-.704.582-1.405.844-2.12.244-.663.489-1.321.752-1.972.448-.981 1.033-1.87 1.67-2.741.226-.273.469-.525.74-.76.114-.078.23-.151.353-.217.061-.017.123-.032.184-.045.547-.05 1.089-.08 1.638-.161.54-.078 1.071-.23 1.592-.38 1.191-.346 2.368-.744 3.546-1.132 1.205-.395 2.408-.779 3.556-1.325 1.235-.585 2.401-1.318 3.578-2.008a.8.8 0 00.287-1.087.813.813 0 00-.697-.393.77.77 0 00-.395.108" fill="#161616"/><path d="M141.435 262.74c-.496.097-.972.122-1.435.022.104.867.21 1.733.32 2.6.151 1.229.34 2.435.663 3.63.115.431.27.859.406 1.285.22.698.467 1.4.74 2.08.347.871.68 1.75 1.062 2.608.473 1.053.964 2.1 1.423 3.156a21.91 21.91 0 011.28 4.705c.115 1.003.15 2.007.22 3.018.077 1.064.14 2.128.256 3.192.133 1.235.318 2.459.6 3.666.094.406.22.805.329 1.206.217.783.428 1.57.66 2.353.935 3.164 2.032 6.278 3.16 9.377.519 1.427.887 2.904 1.252 4.378.168.693.319 1.388.536 2.067.263.816.666 1.527 1.097 2.257.168.284.315.583.477.872.168.302.343.598.49.911.319.693.61 1.402.95 2.085a9.91 9.91 0 001.406 2.107 9.757 9.757 0 001.956 1.683c.918.609 1.952 1.025 3 1.332.866.256 1.746.459 2.59.778.13.065.26.133.382.207.05.093.091.189.137.285.176.452.344.947.63 1.327.194.253.45.58.747.722.25.118.495.235.765.297.736.163 1.447-.058 2.081-.431.467-.275.884-.67 1.29-1.025.292-.253.575-.506.86-.758.577-.516 1.128-1.057 1.71-1.563a28.561 28.561 0 001.57-1.498c2.261-2.285 4.462-4.63 6.706-6.93 2.337-2.39 4.647-4.81 6.877-7.301 2.14-2.392 4.195-4.873 6.288-7.307a317.216 317.216 0 013.382-3.851c1.07-1.207 2.054-2.484 3.063-3.744a180.48 180.48 0 013.214-3.907c.986-1.171 1.999-2.321 2.948-3.52a292.05 292.05 0 003.063-3.93c.243-.315.414-.597.414-1.013 0-.381-.15-.747-.414-1.014a1.417 1.417 0 00-.998-.42c-.337 0-.782.138-1 .42-1.131 1.462-2.242 2.953-3.434 4.366-1.129 1.341-2.272 2.676-3.403 4.015-1.045 1.238-2.058 2.505-3.071 3.765a88.785 88.785 0 01-3.148 3.733c-2.18 2.434-4.332 4.897-6.487 7.357a236.564 236.564 0 01-3.365 3.758 111.133 111.133 0 01-3.352 3.465c-2.281 2.282-4.532 4.595-6.796 6.898-1.129 1.145-2.254 2.288-3.407 3.41-.508.494-1.04.96-1.56 1.444-.57.538-1.152 1.06-1.738 1.587-.155.135-.305.27-.459.402a20.239 20.239 0 00-.301-.693c-.278-.599-.866-1.022-1.438-1.292a11.26 11.26 0 00-1.686-.623c-.95-.282-1.914-.495-2.839-.84a10.21 10.21 0 01-1.56-.908c-.41-.366-.777-.747-1.121-1.17-.585-.904-1.006-1.89-1.434-2.88-.371-.858-.844-1.662-1.234-2.512a5.746 5.746 0 01-.266-1.053c-.179-1.435-.389-2.87-.694-4.282a17.037 17.037 0 00-.603-2.196c-.283-.786-.575-1.565-.862-2.345-.575-1.563-1.087-3.146-1.616-4.723a99.906 99.906 0 01-1.497-4.89l-.294-1.057c-.232-.821-.379-1.658-.497-2.501-.134-1.147-.211-2.3-.292-3.452-.073-1.01-.098-2.022-.213-3.033a24.67 24.67 0 00-.736-3.872c-.33-1.181-.8-2.324-1.304-3.434a477.9 477.9 0 01-1.262-2.79 69.26 69.26 0 01-1.062-2.765 64.544 64.544 0 01-.544-1.62c-.36-1.132-.574-2.288-.743-3.466a364.07 364.07 0 01-.36-2.957c-.809.304-1.63.571-2.475.74m24.248-25.337c-.173.064-.35.124-.523.187-.134.41-.377.788-.734 1.083-.452.37-.932.703-1.426 1.01l.093.317c.403-.273.815-.53 1.249-.77.87-.477 1.746-.96 2.658-1.37l-.245-.86c-.356.137-.713.273-1.072.403" fill="#161616"/><path d="M169.294 253.82c-.567.616-1.415.915-2.242.875l-.052.02c.228 1.076.438 2.155.64 3.238.454 2.447.799 4.914 1.236 7.36.317 1.77.637 3.519 1.22 5.217.265.77.55 1.528.797 2.3.267.826.434 1.68.733 2.496.107.389.299.723.574 1.008.413.424.983.666 1.574.666 1.23 0 2.196-1.036 2.224-2.279.056-2.571-1.12-4.875-1.787-7.296-.308-1.115-.496-2.279-.711-3.414-.251-1.311-.48-2.625-.713-3.94a130.887 130.887 0 00-1.451-7.071c-.68.276-1.36.55-2.042.82m-4.124-18.719c-.256.038-.506.084-.758.132-.48.092-.96.165-1.444.238-1.572.178-3.161.2-4.74.276-1.789.09-3.57.29-5.328.625-1.578.304-3.125.825-4.658 1.307-1.64.516-3.21 1.24-4.697 2.092-.609.348-1.224.694-1.821 1.064a171.74 171.74 0 00-3.98 1.624c.096-.041.193-.08.292-.121-.807.324-1.636.62-2.407 1.015-.78.402-1.569.797-2.304 1.265-.47.295-.924.605-1.325.98a2.896 2.896 0 011.068.086 2.943 2.943 0 011.744 1.316 452.847 452.847 0 0110.162-3.94c.188-.07.374-.14.562-.206.06-.035.124-.07.185-.104.782-.44 1.586-.818 2.41-1.174.616-.227 1.239-.43 1.864-.622a68.248 68.248 0 011.92-.474 21.196 21.196 0 011.73-.52 3.162 3.162 0 011.17-.068 65.54 65.54 0 011.137-.181c.722-.108 1.444-.202 2.166-.3 1.06-.063 2.123-.112 3.186-.19.957-.065 1.91-.174 2.856-.335.422-.073.84-.146 1.258-.236.036-.008.072-.015.111-.026a1.56 1.56 0 00.152-.027 17.233 17.233 0 012.007-.946c.195-.27.312-.588.312-.947 0-.552-.312-1.177-.836-1.432a4.419 4.419 0 00-.461-.195 8.17 8.17 0 00-.595-.073c-.035-.004-.074-.004-.114-.004-.266 0-.611.073-.824.101" fill="#161616"/><path d="M166.004 235.94c.046.688.106 1.373.171 2.06.755-.422 1.53-.805 2.35-1.088.229-.078.466-.113.704-.113.26 0 .52.043.771.123a64.914 64.914 0 01-.079-.982c-.039-.528-.187-.99-.573-1.371a1.978 1.978 0 00-1.386-.569c-1.013 0-2.032.884-1.958 1.94m-31.274 8.303c-.364.217-.736.632-.814 1.068-.32 1.82-.671 3.636-.884 5.473-.085.733-.003 1.552.263 2.242.18.464.383.918.603 1.365.315.633.674 1.242.99 1.878.242.67.372 1.365.474 2.079.117.808.241 1.644.557 2.402.127.308.255.611.393.908.21.444.557.84.883 1.201.462.515 1.139.815 1.788.994.648.182 1.375.186 2.031.06.918-.174 1.718-.706 2.56-1.097a11.537 11.537 0 011.866-.532c.716-.147 1.453-.212 2.173-.34.675-.121 1.34-.296 2-.483.653-.182 1.305-.34 1.965-.486 1.44-.321 2.861-.636 4.238-1.172 1.3-.512 2.509-1.228 3.78-1.804.533-.191 1.064-.381 1.598-.566.766-.265 1.486-.654 2.199-1.04.482-.265.709-.88.564-1.402a1.235 1.235 0 00-.564-.74c-.259-.153-.656-.239-.947-.124-.383.153-.766.285-1.163.392-.337.093-.673.161-1.007.266-.716.217-1.426.485-2.114.79-.573.256-1.13.582-1.695.868-.483.249-.975.478-1.473.697-1.144.44-2.315.725-3.508.994-.553.124-1.103.253-1.656.386-.568.135-1.121.321-1.689.468-1.13.296-2.272.46-3.428.633-1.199.177-2.312.631-3.404 1.14-.205.079-.41.147-.622.195h-.102a3.138 3.138 0 01-.279-.078 4.632 4.632 0 01-.316-.193 3.9 3.9 0 01-.205-.202 5.362 5.362 0 01-.28-.487 10.356 10.356 0 01-.473-1.845c-.12-.747-.184-1.508-.393-2.237-.242-.844-.621-1.624-1.057-2.381-.311-.548-.627-1.093-.893-1.664a4.092 4.092 0 01-.114-.396c-.01-.36.02-.715.056-1.074.214-1.383.461-2.76.702-4.137.09-.493.082-.933-.177-1.376a1.79 1.79 0 00-1.06-.822 1.779 1.779 0 00-1.365.178" fill="#161616"/><path d="M169.382 254.634a.846.846 0 01-.018.051h-.003l.02-.05m-1.234-19.579c-.855.245-1.297 1.156-1.101 2.036.317 1.456.562 2.93.824 4.399.112.954.24 1.912.308 2.871.086 1.189.167 2.377.219 3.57.048 1.152.082 2.304.201 3.45.122 1.136.397 2.242.588 3.365l.002.046c-.54.405-.752 1.257-.583 1.895.206.783.88 1.29 1.638 1.31.332.011.64-.035.958-.132.537-.165.969-.574 1.287-1.041.448-.65.554-1.48.499-2.262-.051-.714-.209-1.443-.383-2.136-.134-.521-.301-1.028-.421-1.556-.1-.428-.161-.866-.22-1.304-.214-1.884-.369-3.777-.604-5.657-.147-1.153-.246-2.326-.455-3.468-.26-1.414-.506-2.83-.817-4.23-.164-.735-.85-1.212-1.54-1.212-.134 0-.27.018-.4.056" fill="#161616"/><g fill="#161616" fill-rule="nonzero"><path d="M151.236 206.008c.264.01.535.047.793.1.2.043.396.103.577.191.169.083.316.198.46.311.189.15.353.327.52.496.22.222.435.45.651.678.104.11.172.22.172.37a.5.5 0 01-.172.37c-.213.188-.627.218-.834 0-.402-.423-.792-.87-1.257-1.24a1.605 1.605 0 00-.173-.093 3.156 3.156 0 00-.396-.082 3.998 3.998 0 00-.62-.016 2.825 2.825 0 00-.393.094 2.477 2.477 0 00-.24.123 2.245 2.245 0 00-.201.181c-.08.099-.155.2-.222.306l-.143.226a.87.87 0 01-.159.178c-.113.098-.33.2-.499.183a1.134 1.134 0 01-.37-.085c-.082-.033-.154-.09-.222-.143-.046-.036-.086-.079-.128-.119-.101-.098-.198-.195-.308-.284a2.15 2.15 0 00-.238-.118c-.19-.065-.386-.118-.58-.173a4.173 4.173 0 00-.602-.12 3.471 3.471 0 00-.507-.007 2.01 2.01 0 00-.235.055 3.85 3.85 0 00-.511.275 3.073 3.073 0 00-.397.368 3.638 3.638 0 00-.412.645c-.331.761-.527 1.551-.662 2.356a29.634 29.634 0 00-.273 3.107c-.015.53-.002 1.06.038 1.59a22.163 22.163 0 00.153 1.315c.043.282.079.566.158.841.085.295.182.587.276.88.16.497.341.993.56 1.474a5.3 5.3 0 00.555.879c.04.039.082.075.126.11.132.088.263.176.39.269.085.06.163.129.24.196.06 0 .117-.001.176-.005.106-.019.209-.045.31-.076a3.15 3.15 0 00.357-.196 1.62 1.62 0 00.103-.086c.061-.088.114-.178.162-.271a2.821 2.821 0 00.225-.75c.039-.212.078-.423.115-.635a.778.778 0 01.23-.35.953.953 0 01.63-.232c.472 0 .915.36.894.792-.025.541-.034 1.115-.241 1.628-.167.41-.388.831-.784 1.109-.367.256-.773.493-1.238.582a3.468 3.468 0 01-1.316.01c-.463-.089-.754-.405-1.095-.661-.097-.074-.196-.146-.293-.219a2.417 2.417 0 01-.42-.435c-.433-.535-.705-1.156-.98-1.763-.28-.623-.505-1.26-.704-1.909-.097-.313-.128-.645-.178-.965a37.983 37.983 0 01-.163-1.227c-.088-.724-.079-1.447-.05-2.173.03-.782.106-1.57.234-2.344.108-.646.207-1.3.41-1.931.098-.302.213-.596.343-.888.162-.364.335-.72.566-1.054a4.096 4.096 0 011.745-1.364c.204-.087.415-.162.64-.196a4.63 4.63 0 01.656-.052c.208-.003.419.03.623.055.187.023.359.067.532.13.363.134.76.258 1.085.455.106.064.204.132.298.206.132-.152.268-.29.442-.41.466-.322 1.052-.464 1.638-.464.044 0 .088 0 .133.002"/><path d="M143.033 223.496l-.021.009a.47.47 0 00.021-.009m-2.145-15.082c.369.075.672.267.956.48.274.206.444.494.584.781l.088.183a.685.685 0 010 .407.79.79 0 01-.396.456.936.936 0 01-1.179-.274c-.05-.07-.1-.14-.153-.207a1.732 1.732 0 00-.109-.096 2.57 2.57 0 00-.179-.1 1.997 1.997 0 00-.134-.034c-.044 0-.089.001-.133.004a.788.788 0 00-.04.009 1.698 1.698 0 00-.053.053c-.069.09-.13.182-.183.279a7.765 7.765 0 00-.264.957c-.066.613 0 1.233.038 1.844.02.333.025.666.06.998.034.323.078.645.126.967.077.486.158.971.25 1.456.106.551.234 1.097.372 1.643.128.508.299 1.007.48 1.502a17.059 17.059 0 001.155 2.45c.209.364.448.707.716 1.039.063.07.128.137.202.198a.763.763 0 00.023.013c.061-.079.112-.16.158-.247.084-.216.12-.443.157-.668.02-.154.043-.307.051-.463.01-.213.01-.423.008-.636-.002-.166.156-.303.34-.303.19 0 .34.137.343.303.004.31.006.619-.023.929-.029.304-.06.608-.11.91-.03.181-.11.36-.198.524-.129.24-.342.488-.663.51-.195.014-.372-.046-.547-.116a1.602 1.602 0 01-.458-.296 6.343 6.343 0 01-.47-.461 7.1 7.1 0 01-.68-.815 10.653 10.653 0 01-.498-.806 18.103 18.103 0 01-1.253-2.587c-.115-.291-.205-.59-.294-.888-.09-.298-.17-.597-.25-.896-.083-.303-.141-.613-.206-.92a31.782 31.782 0 01-.333-1.952c-.089-.593-.092-1.197-.126-1.794a13.197 13.197 0 01-.027-1.271c.016-.458.142-.917.248-1.363.057-.24.155-.456.266-.683.04-.081.094-.16.148-.234a2.05 2.05 0 01.39-.433c.242-.188.536-.31.85-.367.112-.02.237-.028.353-.041.04-.005.082-.007.123-.007.16 0 .322.032.474.063m11.998 15.952c.327.17.458.57.255.863a7.341 7.341 0 00-.558.946c-.178.404-.352.812-.462 1.236-.112.426-.203.852-.28 1.282-.046.397-.066.79-.045 1.19.022.396.058.789.11 1.182.04.22.082.44.136.656.048.193.092.392.178.575.075.158.016.382-.076.522a.733.733 0 01-.456.311 2.381 2.381 0 01-.221.027.924.924 0 01-.414-.104c-.219-.1-.322-.295-.406-.485-.052-.116-.087-.237-.128-.355a5.134 5.134 0 01-.241-1.029 9.596 9.596 0 01-.08-.964c-.01-.304-.027-.617.004-.92.039-.37.09-.734.173-1.098.073-.314.165-.625.26-.933.287-.933.701-1.854 1.277-2.676a.763.763 0 01.622-.311c.12 0 .24.027.352.085m11.261-.951l-.011.084.011-.084zm-2.038-21.337c.033.638.053 1.274.071 1.91.025.916.103 1.83.224 2.739.035.226.07.452.102.678.119.76.286 1.513.458 2.265.124.545.284 1.098.515 1.616.046.09.096.179.155.261a.747.747 0 00.057.05l.026.017c.023.09.05.178.082.265.069.19.166.374.264.554a22.917 22.917 0 01.545 1.07l-.002-.004.118.252c.135.292.26.584.389.878.132.3.263.604.357.917.092.309.18.618.257.93.062.25.105.504.146.759.052.449.094.9.126 1.351.003.436 0 .873-.025 1.308-.04.673-.103 1.344-.168 2.015-.07.707-.15 1.412-.27 2.115-.084.512-.254 1.011-.421 1.506a7.656 7.656 0 01-.272.673 8.033 8.033 0 01-.418.815c-.15.253-.303.5-.47.745-.151.222-.332.43-.506.637-.347.412-.712.812-1.067 1.22a61.952 61.952 0 01-1.616 1.813c-.279.305-.563.617-.889.882-.174.141-.346.284-.518.427a3.71 3.71 0 00-.373.378 3.277 3.277 0 00-.346.511c-.1.218-.187.44-.258.665-.106.33-.214.662-.274 1.003-.09.74-.04 1.49 0 2.232.013.239-.232.439-.488.439a.473.473 0 01-.49-.44 57.052 57.052 0 01-.046-1.059c-.008-.237-.003-.47.004-.706.018-.666.174-1.319.389-1.954.124-.367.27-.726.493-1.056.091-.137.2-.266.304-.395.088-.113.19-.227.296-.326.173-.165.357-.324.525-.493.174-.177.341-.356.506-.538.347-.424.694-.847 1.044-1.27.347-.42.667-.857 1.018-1.273.36-.428.713-.86 1.041-1.308.301-.412.53-.871.748-1.323.16-.38.301-.766.413-1.16.068-.237.133-.474.19-.714.035-.15.058-.301.08-.452.078-.66.132-1.321.178-1.985.046-.647.08-1.294.083-1.943.004-.663-.037-1.325-.052-1.988a26.038 26.038 0 00-.106-1.902 3.915 3.915 0 00-.177-.576 4.981 4.981 0 00-.11-.273c-.082-.163-.168-.324-.247-.489l.062.133c-.072-.147-.161-.287-.243-.429-.114-.198-.216-.4-.325-.6a17.714 17.714 0 01-.479-.928.871.871 0 00-.085-.12l-.08-.094.076.089.005.005a3.302 3.302 0 01-.356-.474 6.816 6.816 0 01-.34-.643l-.076-.344-.006-.024a27.011 27.011 0 01-.1-.558 16.022 16.022 0 01-.122-1.49c-.022-.56-.031-1.12-.07-1.678-.048-.687-.098-1.373-.105-2.061-.006-.68-.001-1.36-.002-2.039 0-.209 0-.416-.002-.625a3.71 3.71 0 00.643-.6l.01.211zm-8.107 6.431c.003.007.005.013.01.02-.005-.007-.007-.013-.01-.02m-2.858-2.297c.34.018.68.046 1 .154.32.107.623.237.927.376.195.09.356.23.521.357.092.07.18.142.269.216a5.305 5.305 0 01.735.718c.083.1.132.226.171.343.06.181-.07.379-.272.428a.402.402 0 01-.478-.244 1.772 1.772 0 00-.027-.072.556.556 0 00-.045-.068 4.592 4.592 0 00-.751-.636c-.155-.093-.306-.187-.472-.26a5.932 5.932 0 00-.983-.253 5.568 5.568 0 00-.988-.004 2.21 2.21 0 00-.295.075 1.83 1.83 0 00-.183.087 2.533 2.533 0 00-.32.29 4.543 4.543 0 00-.509.798 7.686 7.686 0 00-.463 1.535l-.021.17a1.39 1.39 0 00-.112.273 4.112 4.112 0 00-.096.535c-.078.673-.09 1.35-.087 2.026.002.698.07 1.39.231 2.074.073.312.163.62.276.92.095.392.2.782.312 1.169.138.473.299.943.51 1.394.187.397.358.8.536 1.2a9.084 9.084 0 001.096 1.796c.072.077.145.152.221.224l.03-.03a.945.945 0 00.071-.111c.123-.308.194-.631.26-.953.064-.5.103-1.003.125-1.506a6.911 6.911 0 00-.013-.783l.068.133.099.194.145.395c.1.273.203.546.306.82l.496 1.316c-.037.16-.08.318-.127.475a2.659 2.659 0 01-.251.583c-.044.075-.128.157-.182.22-.132.148-.28.262-.45.376-.163.108-.424.19-.627.17-.115-.013-.185-.018-.284-.055a1.563 1.563 0 01-.302-.141 2.717 2.717 0 01-.318-.238c-.106-.09-.202-.19-.298-.288a5.901 5.901 0 01-.59-.747 12.55 12.55 0 01-.45-.698 12.332 12.332 0 01-.279-.501 1.47 1.47 0 00-.024-.061c-.05-.12-.109-.239-.164-.358-.077-.167-.147-.341-.233-.505l-.224-.418c-.08-.149-.159-.31-.275-.441a6.752 6.752 0 01-.326-.847 22.178 22.178 0 01-.439-1.66 17.894 17.894 0 01-.284-1.832c-.127-1.094-.016-2.2.033-3.294.013-.294.042-.587.078-.879.038-.305.094-.604.202-.895.209-.562.411-1.133.773-1.635.107-.148.225-.286.346-.426.059-.068.117-.136.178-.203a2.94 2.94 0 01.544-.446c.404-.273.914-.36 1.414-.36.09 0 .18.002.27.008"/><path d="M141.566 208.885c.112.028.224.063.329.105.116.048.215.113.314.184.164.118.308.26.45.398.116.114.126.29 0 .403-.12.107-.333.114-.45 0a3.099 3.099 0 00-.342-.29 1.526 1.526 0 00-.189-.102 2.26 2.26 0 00-.362-.08 2.94 2.94 0 00-.506-.008 3.011 3.011 0 00-.572.132c-.12.05-.234.107-.342.174a.986.986 0 00-.078.07 2.414 2.414 0 00-.19.31 3.38 3.38 0 00-.2.684 7.132 7.132 0 00-.036 1.24c.026.414.079.825.136 1.237.087.497.187.992.28 1.488.099.528.192 1.057.286 1.585.096.535.19 1.07.313 1.602.115.5.244 1 .399 1.492.216.688.465 1.366.699 2.05.106.309.224.614.34.92.106.278.208.558.323.833l.023.017c.082.052.166.101.254.143.057.017.114.03.173.04.078.007.157.01.235.01a.84.84 0 00.05-.011.706.706 0 00.056-.033 1.59 1.59 0 00.153-.13c.042-.115.072-.232.095-.351.051-.414.054-.835.006-1.249-.073-.438-.176-.873-.273-1.307-.07-.32-.138-.642-.204-.964-.034-.163-.03-.314.067-.462a.668.668 0 01.4-.276c.351-.086.727.104.823.42.17.555.312 1.118.458 1.679.082.31.149.623.194.939.056.385.061.77.03 1.158-.03.387-.101.821-.347 1.151-.137.186-.317.323-.512.457a1.584 1.584 0 01-.543.251c-.17.039-.347.059-.522.05-.058-.003-.115-.008-.173-.013a3.749 3.749 0 01-.526-.078c-.3-.075-.566-.21-.816-.371a1.364 1.364 0 01-.41-.37.814.814 0 01-.059-.099 6.88 6.88 0 01-.228-.495c-.1-.237-.192-.476-.284-.716-.194-.505-.36-1.018-.53-1.53-.165-.491-.346-.978-.477-1.478a38.945 38.945 0 01-.392-1.622c-.107-.493-.175-.994-.256-1.49l-.12-.746c.05-.174.086-.348.111-.531.038-.273.028-.547.027-.82 0-.147 0-.293-.007-.438a5.2 5.2 0 00-.062-.526c-.044-.295-.117-.587-.181-.878-.1-.452-.232-.896-.322-1.35a6.78 6.78 0 01.07-.49c.023-.12.043-.242.081-.36a3.22 3.22 0 01.186-.428c.036-.075.076-.149.113-.222.049-.094.112-.177.176-.261.153-.2.338-.39.577-.51a2.81 2.81 0 01.932-.256c.115-.013.23-.02.345-.02.34 0 .683.054 1.007.139m10.599 17.448a.49.49 0 01.168.362l-.021.137a.494.494 0 01-.147.225l-.005.007a3.11 3.11 0 00-.296.448 2.08 2.08 0 00-.088.327 4.118 4.118 0 00-.015.876c.02.215.05.43.075.646.029.252.052.503.073.755.016.2-.168.39-.376.441-.27.067-.552-.08-.628-.32a6.58 6.58 0 01-.232-1.144c-.03-.252-.069-.502-.07-.756a4.077 4.077 0 01.064-.734 2.15 2.15 0 01.241-.667c.12-.218.285-.412.45-.603.087-.1.269-.15.403-.15a.61.61 0 01.404.15"/><path d="M139.328 215.505c-.078.69-.176 1.377-.208 2.071-.03.674-.081 1.346-.106 2.02a41.189 41.189 0 00-.01 1.957c.007.656.035 1.312.107 1.965.074.465.156.932.276 1.39.144.545.3 1.085.465 1.625.31 1.015.6 2.033 1.03 3.013.221.437.465.857.742 1.27.292.435.603.86.929 1.276a91.763 91.763 0 001.96 2.41c-.046-.055-.093-.108-.14-.161l.148.17.026.032.297.342c.354.405.732.8 1.02 1.246.17.263.295.554.392.845.062.122.123.243.173.368.047.115.083.234.128.35.129.323-.081.708-.396.874-.323.168-.788.134-1.047-.121-.138-.137-.282-.263-.41-.41a6.585 6.585 0 01-.377-.467c-.154-.215-.303-.429-.47-.636-.232-.26-.472-.517-.704-.779-.319-.36-.632-.725-.944-1.09a56.612 56.612 0 01-1.635-2.021c-.52-.67-1.014-1.37-1.391-2.114a9.55 9.55 0 01-.551-1.327c-.128-.387-.218-.783-.311-1.176-.203-.843-.384-1.69-.58-2.532a15.14 15.14 0 01-.104-.482 36.197 36.197 0 01-.049-.704c-.041-.68.01-1.364.032-2.045.021-.684.021-1.365.022-2.05 0-.342.002-.685.008-1.027a8.63 8.63 0 01.073-.923 14.449 14.449 0 01.419-1.748c.087-.29.199-.572.3-.858a3.658 3.658 0 00.21-1.125.732.732 0 01.038 0c.32 0 .674.26.638.572m19.938-33.006l.186.07a.888.888 0 01.178.102c.102.069.191.13.28.209.118.106.241.252.334.374.248.325.453.662.601 1.035.117.295.19.605.275.909.09.322.178.646.261.969.08.307.14.616.195.928.071.4.139.801.19 1.204.046.368.069.738.098 1.107.028.347.058.695.088 1.043.06.7.098 1.4.134 2.101.037.692.105 1.384.176 2.073.14 1.367.246 2.738.32 4.11.065 1.24.033 2.488-.01 3.73-.023.683-.045 1.367-.07 2.05-.01.3-.033.602-.05.903-.009.147-.027.294-.04.44-.027.291-.043.586-.125.868a.507.507 0 01-.369.33.563.563 0 01-.365-.03 31.467 31.467 0 01-.094-1.894c-.006-.68-.001-1.359-.002-2.038a56.34 56.34 0 00-.026-1.962c-.025-.683-.017-1.366-.057-2.05-.039-.673-.09-1.344-.12-2.018-.03-.68-.056-1.363-.114-2.042-.06-.705-.14-1.409-.192-2.115-.051-.695-.131-1.39-.165-2.086-.032-.667-.029-1.335-.096-2-.037-.365-.09-.73-.161-1.09a14.9 14.9 0 00-.261-1.05c-.185-.674-.364-1.352-.709-1.978-.13-.236-.283-.476-.513-.646-.181-.135-.386-.272-.623-.314a1.757 1.757 0 00-.316-.036c-.07 0-.14.007-.21.025-.021.005-.19.06-.243.096-.148.098-.277.192-.36.342-.092.16-.136.339-.212.504a1.45 1.45 0 01.027-.056.692.692 0 00-.066.277c-.305.772-.464 1.586-.6 2.395a33.893 33.893 0 00-.194 1.904c-.052.693-.119 1.388-.132 2.085-.03 1.427-.045 2.854-.095 4.28-.026.727-.03 1.453-.043 2.18-.011.681-.05 1.363-.066 2.045-.017.719-.02 1.439-.028 2.16-.007.658-.054 1.315-.077 1.973-.053 1.42-.066 2.841-.1 4.261-.018.69-.032 1.378.004 2.066.036.69.094 1.38.141 2.07.014.201.028.402.044.603l-.271-.143c-.291-.15-.602-.272-.898-.415-.19-.093-.383-.184-.574-.278-.084-.685-.173-1.37-.246-2.058-.07-.652-.071-1.31-.085-1.964a122.457 122.457 0 01-.033-4.333c.007-.657.035-1.312.033-1.97a79.076 79.076 0 01.01-2.075c.016-.715.054-1.43.076-2.146.02-.688.036-1.378.076-2.066.041-.703.073-1.406.119-2.11.046-.713.061-1.429.122-2.141.03-.354.056-.708.098-1.06l.129-1.038c.092-.742.187-1.488.35-2.221.155-.699.375-1.378.613-2.058.15-.427.36-.843.642-1.211.136-.177.309-.335.469-.495.2-.198.423-.375.687-.502.227-.11.474-.173.723-.223.159-.031 1.313.014 1.332.09z"/><path d="M137.942 214.774l-.013-.085.013.085m.005.034l.004.025-.01-.06.006.035m1.029-5.343c.165.04.251.192.213.337-.046.178-.105.352-.155.528l-.08.28c-.017.061-.026.127-.037.192-.05.447-.063.897-.058 1.345a10.607 10.607 0 00.094 1.316c.035.223.067.446.098.67.066.414.153.825.248 1.236.098.43.25.852.378 1.276.066.215.126.431.194.646.068.218.115.441.175.661.057.204.124.405.185.608.063.216.115.435.191.648.075.207-.046.443-.249.55a.6.6 0 01-.418.049c-.124-.031-.27-.115-.325-.224-.108-.215-.222-.428-.313-.65-.08-.196-.152-.395-.22-.595-.063-.186-.11-.376-.162-.564-.056-.2-.12-.396-.18-.594-.124-.4-.255-.798-.368-1.2a10.03 10.03 0 01-.24-1.172 8.238 8.238 0 01-.114-1.313c.004-.428.014-.857.061-1.284.047-.433.154-.86.257-1.283.106-.436.329-.84.449-1.271.033-.121.164-.201.297-.201a.32.32 0 01.079.01m7.822 11.353l-.136.016.12-.014.016-.002m1.445-3.121c.003.02.005.039.009.058l-.009-.058m.326-.883c.073.29.138.579.197.87a.522.522 0 01.283.207c.086.133.168.262.232.405.031.068.06.133.082.204.03.1.045.232.054.332.024.245.021.491.013.738-.003.103-.02.206-.035.308-.021.143-.04.282-.085.42-.024.072-.057.142-.085.212-.05.124-.108.247-.176.364a2.05 2.05 0 01-.27.345c-.134.15-.304.269-.471.387a3.091 3.091 0 01-.608.344 1.36 1.36 0 01-.436.1.686.686 0 01-.125 0 4.95 4.95 0 01-.626.093 2.72 2.72 0 01-1.048-.152 2.546 2.546 0 01-.387-.16c-.151-.08-.287-.188-.424-.288-.12-.09-.227-.194-.334-.296a3.241 3.241 0 01-.275-.306 1.129 1.129 0 01-.269-.624.469.469 0 01.028-.188.56.56 0 01.15-.225c.062-.065.146-.092.232-.121a.529.529 0 01.367.035.664.664 0 01.232.158c.058.059.125.11.192.16.171.128.345.253.52.377.119.078.238.151.368.213.13.04.264.075.397.102a2.628 2.628 0 00.967-.1c.09-.037.178-.077.26-.125.134-.104.254-.22.367-.342.085-.11.156-.224.22-.345a6.31 6.31 0 00.083-.197c.01-.128.016-.256.016-.385.002-.217.019-.443 0-.662a3.04 3.04 0 00-.102-.412c-.061-.18.02-.381.18-.499v-.003c-.058-.274-.115-.548-.183-.82a.235.235 0 01.18-.286.276.276 0 01.066-.008c.113 0 .226.067.253.17m1.917-7.423c.16 0 .326.027.48.046.135.017.268.036.4.067.114.026.223.07.332.11.169.06.336.122.5.193.22.095.433.213.641.328.227.125.45.252.67.387.407.25.805.516 1.205.776.324.212.636.436.948.662.232.167.457.343.69.51.182.114.377.212.572.31.209.104.42.211.632.31.1.045.2.09.296.14.15.08.283.18.418.276.169.121.335.245.497.374.35.28.694.563.996.885.184.194.365.391.519.606.125.174.238.354.352.534.108.171.218.341.314.518.103.194.192.396.271.598.073.183.148.366.212.552.051.149.098.3.16.447a.774.774 0 00.041.071c.062.061.13.119.203.17l-.076-.053c.27.19.52.39.752.618.15.147.288.303.412.47.107.145.222.285.327.43l.026.038.052.036a3.474 3.474 0 01.182.21c.06.074.117.148.175.223l.339.438a.285.285 0 01.051.037.86.86 0 01.195.307l.018.029.164.266c.046.074.104.149.13.231a.355.355 0 01.03.128c0 .06-.023.106-.052.158-.003.008-.008.014-.013.021.03.111.056.222.081.333a.295.295 0 01-.227.36c-.163.04-.365-.048-.4-.204a8.159 8.159 0 00-.185-.688l.002.003-.002-.004-.014-.016.008.01-.117-.138c-.155-.178-.313-.354-.46-.536-.075-.096-.153-.191-.227-.288l-.074-.096a8.702 8.702 0 00-.393-.715 11.55 11.55 0 00-.594-.917c-.096-.13-.194-.259-.295-.386-.264-.388-.531-.775-.79-1.167a14.712 14.712 0 00-1.363-1.743c-.233-.26-.474-.518-.72-.769a8.653 8.653 0 00-.72-.682c-.502-.406-1.093-.702-1.667-1.017-.254-.14-.508-.284-.767-.417-.292-.15-.602-.273-.898-.416-.308-.15-.62-.295-.923-.454a9.998 9.998 0 01-.612-.352c-.244-.15-.477-.314-.72-.463a3.187 3.187 0 00-1.044-.4c-.13-.025-.262-.055-.394-.075a2.113 2.113 0 00-.316-.029c-.046 0-.092.003-.138.008l.023-.116c.043-.21.113-.422.047-.635a.713.713 0 00-.41-.435c.072-.007.144-.01.215-.013h.033z"/><path d="M159.144 214.051c.086.011.172.024.257.04.053.012.193.066.251.1.098.06.187.125.275.193.098.078.189.167.275.254.217.223.42.452.616.69.17.208.336.419.502.63.144.182.27.377.41.563.614.82 1.207 1.656 1.711 2.535a74.726 74.726 0 01.812 1.44c.106.172.21.343.29.528.02.047.038.095.056.143.035.078.066.156.092.237.082.187-.05.416-.23.51-.223.117-.572.06-.69-.162-.234-.437-.496-.864-.749-1.291a54.97 54.97 0 00-.852-1.41 16.202 16.202 0 00-.427-.637 38.057 38.057 0 00-.725-.779l-.157-.235a14.694 14.694 0 00-1.363-1.743 24.02 24.02 0 00-.72-.769c-.118-.12-.236-.24-.358-.357a.45.45 0 01.02-.122.534.534 0 01.263-.307.576.576 0 01.274-.064c.053 0 .108.006.167.013"/><path d="M154.447 211.323c.473.21.94.43 1.415.638.4.175.8.355 1.194.542.187.09.376.176.56.27.192.098.374.21.553.326a8.12 8.12 0 011.497 1.207c.204.215.394.44.59.661.084.095.142.183.142.31a.42.42 0 01-.143.31.522.522 0 01-.346.13c-.117 0-.27-.043-.346-.13-.358-.402-.703-.824-1.135-1.167-.177-.142-.357-.28-.543-.415a6.613 6.613 0 00-.834-.494c-.176-.085-.352-.166-.528-.25a4.335 4.335 0 01-.133-.072c-.254-.14-.508-.284-.767-.417-.212-.11-.435-.204-.655-.303-.315-.165-.631-.33-.944-.498-.195-.105-.266-.335-.15-.513a.416.416 0 01.356-.182c.073 0 .148.016.217.047m2.896 8.355l-.029-.034-.016-.019.015.017-.005-.005-.05-.059.085.1zm-.029-.034l.055.064-.056-.066.001.002zm.07.08l-.008-.008a.208.208 0 01-.007-.008l.014.016zm-6.203-10.294a.427.427 0 01.146.315.407.407 0 01-.146.316l-.348.25c-.11.08-.229.16-.325.253a1.362 1.362 0 00-.092.149c-.07.17-.108.343-.14.522-.017.165-.029.33-.018.496a6.523 6.523 0 00.145.981c.045.195.11.382.182.57.115.304.252.6.388.896.181.363.408.7.657 1.03.223.298.446.596.686.883.155.168.326.321.5.476.15.135.306.262.471.382.16.105.332.195.505.285.166.086.33.177.496.263.37.191.747.365 1.11.566.383.21.733.461 1.054.743.143.127.286.253.426.383.154.143.294.292.43.448l.068.079c.025.029.05.057.073.086l-.022-.026c.14.164.275.33.406.5.136.174.228.367.32.561.233.489.432.99.612 1.496.175.492.34.99.48 1.493a9.41 9.41 0 01.283 1.62c.046.461.083.928-.027 1.384-.052.212-.296.36-.53.36-.308 0-.535-.223-.548-.491-.008-.151-.004-.303-.007-.455-.003-.137-.015-.276-.024-.414a14.037 14.037 0 00-.08-.85 10.26 10.26 0 00-.205-.94 34.17 34.17 0 00-.623-2.007c-.107-.307-.24-.607-.375-.905a2.249 2.249 0 00-.227-.375 14.102 14.102 0 00-.315-.392 5.223 5.223 0 00-.208-.232 5.792 5.792 0 00-.368-.34 9.991 9.991 0 00-.704-.555c-.437-.287-.925-.497-1.406-.718-.514-.236-1.029-.488-1.48-.812a7.016 7.016 0 01-1.246-1.146c-.345-.403-.66-.832-.948-1.268-.279-.421-.45-.893-.631-1.354-.08-.206-.177-.415-.233-.628a5.55 5.55 0 01-.141-.767c-.058-.463-.082-.924.016-1.384.081-.385.198-.776.463-1.093a1.53 1.53 0 01.27-.25l.17-.126c.119-.087.239-.172.358-.258a.569.569 0 01.351-.13c.132 0 .258.047.351.13z"/><path d="M153.418 218.203c.005.03.01.06.013.089l-.013-.09m-.263-.295c.13.038.235.147.303.249a.78.78 0 01.094.255c.021.085.033.176.044.263.017.136.036.273.05.41.03.284.059.568.07.854a2.51 2.51 0 01-.057.674c-.033.14-.064.28-.1.42l-.057.219a3.662 3.662 0 01-.07.248c-.034.11-.089.215-.139.319-.035.074-.092.142-.145.206a.904.904 0 01-.253.237 1.003 1.003 0 01-.32.119 1.942 1.942 0 01-.33.022c-.255-.001-.468-.191-.468-.42 0-.111.05-.219.137-.297l.095-.066a.649.649 0 01.025-.013c.03-.224.057-.449.084-.674.027-.353.051-.707.064-1.06l.027-.802c.005-.12.007-.24.015-.36a3.05 3.05 0 01.015-.163.693.693 0 01.083-.288.403.403 0 01.059-.076l.012-.138a.383.383 0 01.395-.354c.151 0 .305.09.367.216"/></g></g></svg>