<svg width="500" height="600" xmlns="http://www.w3.org/2000/svg"><g fill="none" fill-rule="evenodd"><g transform="translate(22.213 81.028)"><path d="M309.787 69.972h29.202a12 12 0 0111.356 8.12l.506 1.48a7.927 7.927 0 01-6.83 10.462l-34.278 2.92c-6.065.516-11.4-3.982-11.917-10.047-.026-.31-.04-.623-.04-.935 0-6.627 5.373-12 12-12zm-6.612 38.778c14.176-4.5 24.34-6.973 30.493-7.418 5.462-.395 11.938.507 19.43 2.705a12 12 0 017.859 7.306l14.76 39.42c2.325 6.208-.823 13.123-7.03 15.447a12 12 0 01-4.207.762h-75.022c-6.628 0-12-5.373-12-12a12 12 0 011.261-5.356l17.349-34.784a12 12 0 017.107-6.082zm-168.143 11.222h59.192a12 12 0 0110.916 7.015l10.503 23c2.753 6.029.098 13.148-5.931 15.9a12 12 0 01-4.985 1.085h-78.622c-6.628 0-12-5.373-12-12a12 12 0 01.813-4.342l8.927-23a12 12 0 0111.187-7.658z" fill="#2C2C2C" opacity=".9"/><path d="M134.998 123.972h47.63a12 12 0 0111.044 7.305l8.078 19c2.593 6.099-.249 13.145-6.348 15.738a12 12 0 01-4.695.957h-62.575c-6.628 0-12-5.373-12-12a12 12 0 01.714-4.079l6.867-19a12 12 0 0111.285-7.921z" fill="#FFF" opacity=".9"/><path d="M190.383 119.972c6.457 0 12.1 2.474 13.731 6.021l14.208 30.886c1.981 4.305-2.56 8.707-10.144 9.831-1.17.174-2.376.262-3.586.262h-79.614c-7.838 0-14.191-3.607-14.191-8.057 0-.588.113-1.173.337-1.746l12.077-30.886c1.442-3.687 7.201-6.311 13.854-6.311h53.328zm.434 2h-53.19c-5.418 0-10.124 2.085-11.438 5.04l-.076.182-12.046 30.666c-.186.475-.28.96-.28 1.445 0 3.62 5.103 6.566 11.465 6.664l.33.003h79.406a20.56 20.56 0 002.981-.216c6.196-.915 9.95-4.45 8.51-7.954l-.078-.181-14.172-30.667c-1.328-2.874-5.852-4.896-11.078-4.98l-.334-.002z" fill="#000" fill-rule="nonzero"/><path d="M35.644 165.065l405.153.531 33.75 21.345c-8.479 14.585-15.731 25.04-21.756 31.366-6.025 6.326-15.93 13.883-29.716 22.673-20.007-2.453-33.903-2.453-41.689 0-7.785 2.452-14.82 9.046-21.103 19.78l-251.35-2.594c-9.928-11.022-18.766-17.215-26.511-18.578-7.746-1.364-20.53 1.022-38.352 7.157-22.055-21.275-33.637-37.291-34.747-48.049-1.11-10.758 7.664-21.968 26.32-33.63z" fill="#FFFEFF"/><path d="M4.184 200.506c-5.579 54.363-5.579 92.448 0 114.255 5.579 21.806 19.603 38.542 42.074 50.206h394.677c22.273-19.331 35.48-39.499 39.618-60.502 4.138-21.002 2.136-57.695-6.006-110.077-11.489 19.325-22.692 32.111-33.612 38.359-29.38 16.81-76.895 23.038-183.439 29.882-132.741 8.527-214.777-12.15-243.212-43.767-4.741-5.271-8.108-11.39-10.1-18.356z" fill="#FFFEFF"/><circle fill="#FFFEFF" cx="390.287" cy="271.472" r="37.5"/><circle fill="#FFFEFF" cx="76.287" cy="273.472" r="37.5"/><circle fill="#FFFEFF" cx="399.287" cy="327.472" r="21.5"/><circle fill="#FFFEFF" cx="72.287" cy="329.472" r="21.5"/><path d="M68.77 52.718c14.496-19.17 22.9-29.923 25.211-32.26 1.712-1.73 51.757-16.97 150.499-20.334 23.056-.786 63.652 2.167 121.79 8.858l35.22 43.736c-73.059-9.164-128.238-13.746-165.537-13.746-37.3 0-93.027 4.582-167.184 13.746z" fill="#FFFEFF"/><path fill="#FFF" d="M190.078 325.683l108.557 5.973v26.362l-111.738-6.589.537-26.695m13.364-158.449c-.218-10.989.458-18.715 2.03-23.179 2.357-6.695 1.353-10.463 4.496-11.798 3.143-1.334 14.028 4.886 14.748 7.029.72 2.142-1.766 14.1-4.072 14.617-1.537.344-3.598.924-6.181 1.74l-1.482 8.463-9.539 3.128zm-62.31-1.61c-2.19-15.572-4.881-25.105-8.072-28.6-4.786-5.242-5.334-9.103-8.749-9.103-3.414 0-12.052 6.248-11.878 8.501.07.908.804 6.535 2.533 9.499 2.563 4.394 6.587 6.35 7.976 6.096 1.55-.284 2.277-.573 2.184-.867l3.784 14.77 12.222-.296z"/><path d="M128.592 147l.228.027a18.476 18.476 0 01-.228-.026m5.664-2.088c.044.005.088.01.131.018-.043-.006-.087-.013-.131-.018m-13.05-11.802c-.44.11-.82.378-1.05.732-.251.388-.276.802-.178 1.232.302 1.306.7 2.584 1.105 3.866.335 1.067.612 2.153 1.014 3.2.178.458.36.905.513 1.365.248.756.54 1.504 1.123 2.103.73.745 1.747.978 2.79 1.13.665.098 1.331.176 2.001.254 1.418.192 2.815.47 4.241.62.325.034.65.067.974.097a2.794 2.794 0 002.316-.954c.12-.133.233-.268.342-.41.164-.21.248-.485.354-.723.069-.159.127-.325.186-.487.109-.325.19-.65.255-.984.066-.348.062-.663-.142-.98a1.405 1.405 0 00-.839-.587 1.545 1.545 0 00-1.08.13c-.338.181-.503.44-.645.761l-.053.125c-.164.354-.322.71-.48 1.067a2.72 2.72 0 01-.104.189c-.473-.065-.947-.128-1.42-.195-.645-.09-1.283-.238-1.925-.348-.663-.116-1.327-.205-1.99-.295-.643-.086-1.304-.171-1.924-.358l-.032-.031a2.634 2.634 0 01-.114-.18c-.219-.609-.306-1.254-.56-1.852-.313-.749-.62-1.49-.897-2.252-.612-1.687-1.21-3.38-1.618-5.119-.165-.714-.95-1.169-1.719-1.169-.15 0-.3.017-.444.053" fill="#2C2C2C"/><path d="M121.405 149.353l1.12-.922 4.7 13.915-1.894.64-3.812-11.281-.026.017c-1.742.98-3.161.677-3.69-1.184l-.046-.18 1.944-.467c.13.54.31.582 1.41-.299l.294-.24zm14.216-3.039l4.619 16.076-1.923.552-4.618-16.076z" fill="#2C2C2C" fill-rule="nonzero"/></g><g fill-rule="nonzero"><path d="M178.689 87.2c-1.757 3.944-3.506 7.89-5.27 11.832-1.523 3.415-3.002 6.855-4.66 10.216-.912 1.567-1.867 3.113-3.117 4.48a3.954 3.954 0 00-.646 1.635 5.951 5.951 0 000 2.106c.171.917.879 2.832 2.289 2.113.863-.443 1.541-1.278 2.066-2.037.671-.986 1.267-2.004 1.853-3.032 1.217-2.133 2.144-4.413 3.137-6.636 2.46-5.533 4.915-11.068 7.375-16.6a5.646 5.646 0 00.36-2.041c0-.907-.164-2.023-.768-2.783-.253-.394-.62-.617-1.106-.667-.82 0-1.26.841-1.513 1.413m137.33 4.601c.203.383.425.756.695 1.1.167.21.367.405.55.605.24.27.459.549.66.84.231.525.437 1.06.639 1.594a21.716 21.716 0 01-1.792-2.476 30.053 30.053 0 01-.752-1.663zm-7.383-8.706a56.728 56.728 0 00-.318 4.104c-.064 1.649.232 3.36.564 4.98.543 2.635 1.374 5.23 2.338 7.756.91 2.392 2.267 4.643 3.727 6.785 1.32 1.94 3.037 3.567 4.773 5.19 2.309 2.158 4.647 4.333 7.142 6.305.532.42 1.067.847 1.688 1.15 3.212 1.563 5.07-2.403 5.497-4.666.836-4.431-1.028-8.903-2.845-12.94-1.526-3.39-3.814-6.453-5.733-9.66-.841-1.821-1.24-3.76-1.933-5.633-.468-1.262-1.14-2.46-1.89-3.598-.41-.624-1.084-1.265-1.634-1.724-1.043-.865-1.95-.52-3.088-.174-.307.288-.614.581-.917.874a7.257 7.257 0 00-1.2 3.018c-.02.109-.038.218-.056.327a10.641 10.641 0 00-.154-2.094c-.225-1.192-.731-2.97-1.988-3.657-.362-.198-.704-.286-1.022-.286-1.745 0-2.803 2.618-2.95 3.943z" fill="#414141"/><path d="M166.068 115.066l-.194.358.194-.358m11.955-25.905c-.392.115-.777.224-1.152.381l-.417.384c-.17.144-.328.296-.471.459l-.069-.126c-.339-.526-.835-.825-1.485-.891-.582.115-1.164.237-1.745.362-1.181.253-2.474.489-3.516 1.08l-.375.326a8.82 8.82 0 00-1.189 1.218c-.15.178-.267.391-.399.579-.236.345-.432.716-.642 1.074-1.26 2.132-2.268 4.399-3.285 6.633-.8 1.758-1.578 3.525-2.32 5.305-.542 1.301-1.063 2.596-1.514 3.93-.296.884-.524 1.79-.735 2.693-.22.95-.22 1.942-.303 2.908.014.224.025.447.04.674-.04.647.042 1.278.238 1.892.121.427.243.854.36 1.282.19.462.443.893.757 1.287l.686.65c.524.312 1.05.312 1.574 0 .782-.246 1.107-1.044 1.47-1.665.272-.467.56-.927.832-1.394.637-1.089 1.212-2.216 1.809-3.327a703.855 703.855 0 001.755-3.237c1.281-2.323 2.608-4.619 3.928-6.918.7-1.215 1.408-2.427 2.11-3.637.414-.706.824-1.413 1.242-2.116.53-.89 1.065-1.77 1.628-2.637.322-.493.604-.976.953-1.432a20.888 20.888 0 01.34.594c.124.371.352.676.681.916.51.28.942.033 1.257-.364a3.02 3.02 0 00.496-1.251c.132-.691.153-1.67-.197-2.317-.396-.736-.774-1.482-1.17-2.217-.138-.264-.525-1.117-1.036-1.117a.483.483 0 00-.136.019" fill="#414141"/><path d="M179.144 216.311c.171 2.158.364 4.317.553 6.472l.226 2.545v.872c0 1.836-.007 3.676-.018 5.512-.008 1.193-.015 2.385-.057 3.578a34.574 34.574 0 01-.325 3.541c-.04.3.164.655.385.858.125.116.274.206.436.266a.722.722 0 00.132.155.676.676 0 00.457.174c.249 0 .41-.122.553-.293a.478.478 0 00.083-.151 1.46 1.46 0 00.199-.15c.264-.244.353-.526.385-.859.079-.777.126-1.557.155-2.338.101-.768.115-1.542.11-2.317a118.94 118.94 0 00-.092-3.472 1252.134 1252.134 0 01-.018-4.243c.015-.197.03-.393.038-.59.029-.667.021-1.33-.043-1.997l-.003-.039a152.04 152.04 0 00-.064-4.182 1.114 1.114 0 00-.805-1.027c-.065-.771-.128-1.543-.188-2.315-.022-.262-.1-.49-.307-.68a1.103 1.103 0 00-.743-.283c-.538 0-1.088.441-1.049.963m-40.09 10.749l-.31.22a1.4 1.4 0 00-.39.618c-.099.219-.082.46-.046.695.123 1.874.043 3.751.1 5.626.032 1.09.082 2.175.139 3.266.025.45.07.903.107 1.353l.053.653c.032.378.097.76.176 1.13.068.323.231.632.481.864.138.127.325.217.526.262.08.088.163.176.246.26.406.431 1.167.478 1.68.202.625-.336.914-1.167.496-1.748a4.278 4.278 0 01-.202-.31c-.128-.368-.193-.75-.252-1.132-.146-1.64-.185-3.285-.26-4.929-.039-.916-.082-1.829-.11-2.746-.036-1.021-.04-2.057-.15-3.075 0-.253-.067-.49-.207-.706a1.51 1.51 0 00-.907-.644 1.64 1.64 0 00-1.17.141m81.638-.755c-.268.243-.254.63 0 .877.266.26.527.522.777.793.373.487.697.988.958 1.536.151.367.279.736.356 1.124l.176.863c.096.502.188 1 .27 1.504l.063.464c-.111 1.08-.237 2.158-.312 3.24a59.516 59.516 0 01-.333 3.574l-.06.375c-.018.137-.039.275-.06.413.003.28.078.543.232.782.22.349.585.609 1.007.717.846.213 1.887-.256 2.077-1.087.335-1.466.595-2.96.674-4.459.033-.654.04-1.31.05-1.964.011-.69.025-1.377-.028-2.067-.032-.4-.154-.75-.468-1.038a1.716 1.716 0 00-1.556-.381l-.018.005c-.057-.236-.117-.47-.175-.705a63.448 63.448 0 00-.196-.798 6.14 6.14 0 00-.478-1.19 8.797 8.797 0 00-.81-1.284c-.347-.47-.772-.884-1.193-1.294a.673.673 0 00-.47-.18.718.718 0 00-.483.18m147.395-45.285c-1.06.085-2.12.167-3.18.265-1.028.093-2.063.122-3.095.188-1.15.075-2.295.164-3.445.197-1.16.03-2.32.042-3.476.069-5.005.121-9.98.7-14.903 1.507-2.224.365-4.42.852-6.632 1.269-2.328.434-4.695.834-6.929 1.603-2.184.75-4.308 1.899-5.993 3.39-.739.65-1.442 1.341-2.16 2.01-.764.71-1.481 1.434-2.13 2.235-1.321 1.623-2.145 3.529-3.11 5.335-1.06 1.985-2.095 3.976-2.98 6.035-.393.91-.742 1.827-1.046 2.766-.331 1.037-.663 2.06-1.072 3.075-.392.8-.856 1.564-1.259 2.36l-.664 1.32c-.281.561-.596 1.127-.817 1.712a2126.56 2126.56 0 01-2.346 6.172c-1.63 4.265-3.383 8.486-5.125 12.715-.328.795-.65 1.593-.974 2.39-.326.793.353 1.7 1.178 1.91.435.112.91.052 1.3-.158.406-.216.616-.535.773-.926 1.6-3.916 3.22-7.822 4.823-11.738.678-1.656 1.292-3.338 1.938-5.007.58-1.495 1.16-2.992 1.746-4.488.417-.86.858-1.71 1.292-2.562.513-1.002 1.11-1.951 1.541-2.99a35.88 35.88 0 00.985-2.723c.28-.86.613-1.7.977-2.533.188-.41.373-.82.56-1.23a88.793 88.793 0 012.618-4.838c.858-1.484 1.616-2.989 2.682-4.354.671-.742 1.42-1.405 2.159-2.092a30.719 30.719 0 012.453-2.047c1.04-.695 2.18-1.273 3.351-1.758 2.864-1.002 5.939-1.432 8.92-2.017a508.77 508.77 0 014.783-.91c1.478-.269 2.966-.47 4.454-.676 2.12-.247 4.242-.48 6.376-.657 2.17-.18 4.362-.171 6.543-.28 1.028-.048 2.056-.141 3.08-.233 1.046-.091 2.089-.157 3.134-.243 1.91-.155 3.813-.262 5.72-.078a10.03 10.03 0 011.617.437c.8.33 1.568.677 2.29 1.148 1.235.943 2.387 1.998 3.513 3.053 1.072 1.003 2.055 2.066 3.015 3.158.72.866 1.421 1.741 2.075 2.654 1.062 1.48 1.799 3.128 2.56 4.752 1.764 4.007 3.254 8.11 4.83 12.184.356.922.698 1.849 1.016 2.782.336.992.64 1.994 1.006 2.976.711 1.92 1.485 3.808 1.992 5.785.315 1.23.665 2.451.978 3.683.33 1.285.59 2.58.833 3.883.225 1.223.495 2.445.681 3.677.196 1.295.41 2.598.8 3.86.407 1.314 1.913 2.12 3.355 1.75a2.701 2.701 0 001.628-1.152c.39-.61.428-1.255.278-1.932-.214-.962-.467-1.908-.632-2.877a234.12 234.12 0 00-.52-2.974c-.362-1.951-.75-3.902-1.253-5.828-.508-1.925-1.022-3.86-1.682-5.749-.674-1.928-1.535-3.798-2.185-5.736-.674-2.014-1.506-3.982-2.295-5.96-.796-1.997-1.506-4.02-2.32-6.012a98.947 98.947 0 00-3.266-7.207c-1.281-2.537-3.32-4.715-5.262-6.84-1.477-1.62-3.22-3.026-4.936-4.422-.496-.407-1.028-.78-1.553-1.15-.589-.414-1.249-.686-1.928-.943a35.231 35.231 0 00-2.023-.696c-.928-.284-1.876-.374-2.83-.374-.61 0-1.222.037-1.832.084" fill="#161616"/><path d="M329.74 174.17c-.95-.026-1.917-.152-2.73-.638-.94-.558-1.336-1.442-1.69-2.371-.335-.884-.434-1.834-.585-2.754-.356-2.177-.567-4.349-.557-6.554.004-1.015.029-2.125.403-3.088.301-.759.69-1.465 1.386-1.98.403-.303.824-.598 1.3-.796a47.82 47.82 0 011.752-.676c.646-.234 1.317-.342 1.996-.45l.306-.05c.546-.134 1.106-.23 1.653-.344 1.356-.286 2.777-.391 4.166-.467a220.1 220.1 0 013.865-.188 38.8 38.8 0 001.46-.085c.878-.082 1.757-.177 2.635-.263a142.98 142.98 0 002.102-.298c1.053-.162 2.091-.372 3.155-.497a50.64 50.64 0 015.937-.374c.363 0 .727.006 1.092.016 2.363.062 4.722.158 7.082.253.678.03 1.37.076 2.034.214.557.118 1.06.309 1.585.519.753.305 1.499.756 2.074 1.298.478.45.913 1.047 1.22 1.616.307.562.614 1.117.861 1.701.418 1.002.667 2.04.885 3.092.129.617.232 1.241.31 1.865.058.438.108.888.065 1.33-.05.524-.104 1.043-.325 1.529-.257.565-.553 1.022-1.032 1.462-.385.351-.913.591-1.406.794-.693.283-1.345.51-2.088.655-2.37.466-4.68 1.127-7.022 1.715-1.056.262-2.127.446-3.204.627-1.175.197-2.35.414-3.531.575-2.291.309-4.587.624-6.882.907-1.549.21-3.08.483-4.63.703-.877.125-1.752.276-2.637.354-.804.072-1.61.125-2.417.184-1.428.105-2.856.243-4.287.29-1.282.04-2.569.18-3.854.18a16.6 16.6 0 01-.447-.006m29.53-25.375c-2.02.013-4.044.052-6.064.141-2.295.102-4.59.243-6.885.371-.914.05-1.828.07-2.742.116-1.153.058-2.295.137-3.445.23-.985.078-1.97.21-2.951.331-.369.046-.74.089-1.107.135-.118.013-.232.03-.35.043a2.951 2.951 0 00-.543.065c-.1.01-.196.023-.292.04-.643.098-1.286.197-1.928.292-.974.148-1.931.387-2.877.65-1.028.287-2.06.582-3.06.95a28.42 28.42 0 00-1.984.808c-.774.355-1.456.93-2.116 1.433-.482.364-.857.844-1.21 1.31a3.085 3.085 0 00-.325.579c-.268.551-.504 1.094-.61 1.691a17.716 17.716 0 00-.247 3.338c.01.903.047 1.817.14 2.717.113 1.126.324 2.237.506 3.354l.143.89c.135.94.275 1.879.457 2.813.232 1.189.7 2.322 1.328 3.376.531.894 1.192 1.79 2.03 2.461.715.569 1.539 1 2.46 1.196a9.868 9.868 0 002.013.2c1.977.004 3.973-.183 5.936-.39 2.278-.24 4.552-.47 6.808-.851 1.26-.21 2.509-.474 3.75-.756.287-.066.576-.128.864-.187.047.43.118.86.204 1.288l-.071.18a2.177 2.177 0 000 1.249c.121.404.364.775.693 1.064.003.016.01.033.013.05.208.785.425 1.567.6 2.358.207.927.372 1.86.557 2.79.133.426.364.795.704 1.11.51.47 1.21.736 1.93.736.497 0 .954-.115 1.382-.342.56-.302 1.142-.894 1.257-1.504.085-.467.135-.894.1-1.364-.015-.216-.025-.43-.033-.647-.014-.365-.028-.726-.039-1.09-.018-.73-.032-1.463-.047-2.192a53.282 53.282 0 00-.082-2.152c-.046-.811-.071-1.642-.232-2.444l1.532-.138a137.92 137.92 0 006.77-.799 80.66 80.66 0 003.356-.522 24.48 24.48 0 001.96-.433c.678-.178 1.385-.424 1.96-.798.325-.211.646-.448.939-.694.431-.368.778-.831 1.103-1.274.006-.014.017-.027.025-.037l.032-.01a10.742 10.742 0 001.973-.837c.286-.158.558-.326.822-.51.549-.38.938-.709 1.3-1.258.452-.696.548-1.475.645-2.26.025-.21.018-.427.021-.64.008-.487-.024-.976-.046-1.463a40.89 40.89 0 00-.2-2.819 37.011 37.011 0 00-.542-3.249 27.036 27.036 0 00-.333-1.405c-.231-.887-.628-1.745-1.01-2.583-.228-.496-.574-.919-.917-1.35-.25-.315-.517-.62-.796-.913-.268-.286-.621-.49-.946-.713-.713-.49-1.599-.805-2.466-.966-.95-.18-1.9-.348-2.852-.51-1.393-.232-2.806-.285-4.224-.285-.916 0-1.83.023-2.741.03" fill="#161616"/><path d="M329.711 169.961c.178.01.358.01.54.01a2.73 2.73 0 01-.332-.296 5.86 5.86 0 01-.33-.098c.04.128.08.26.122.384" fill="#161616"/><g fill="#2C2C2C"><path d="M82.722 350.149l.066.458-.066-.458m9.103-16.94c-.981.042-1.944.282-2.863.581a15.61 15.61 0 00-2.91 1.3c-.404.183-.798.384-1.182.608-1.098.644-2.115 1.433-3.11 2.202-.97.748-1.84 1.632-2.631 2.538-.63.72-1.2 1.443-1.518 2.33-.137.37-.186.752-.251 1.14l-.068.422c-.482.94-.943 1.913-1.22 2.915-.326 1.166-.59 2.328-.705 3.531-.079.825-.148 1.639-.075 2.467.064.785.178 1.564.321 2.339.08.41.276.824.423 1.215.143.381.304.76.465 1.134.48 1.1 1.082 2.102 1.905 3.019.662.732 1.478 1.294 2.301 1.868.699.493 1.422.973 2.226 1.301 1.053.434 2.134.65 3.272.779.727.079 1.435.138 2.166.141.268 0 .533-.02.798-.046.584-.056 1.318-.115 1.833-.417.873-.516 1.385-1.396 1.095-2.356-.19-.64-.684-1.005-1.246-1.363-1.103-.694-2.408-1.055-3.528-1.725-.687-.545-1.282-1.174-1.868-1.815-.614-.793-1.098-1.63-1.531-2.51-.342-.87-.65-1.738-.858-2.648-.106-.47-.186-.944-.257-1.42a12.082 12.082 0 01-.09-1.51c-.003-.896.002-1.781.101-2.672.11-.642.23-1.308.438-1.928.123-.198.258-.385.4-.57a32.864 32.864 0 012.257-2.287c.677-.62 1.422-1.181 2.165-1.736.363-.244.732-.47 1.136-.671.282-.14.576-.262.871-.38.634-.213 1.292-.335 1.956-.434.948-.084 1.898-.155 2.85-.11a51.36 51.36 0 012.914.227c.266.036.532.075.794.128.654.496 1.68.522 2.398.138.795-.427 1.275-1.382.978-2.21-.186-.533-.413-.947-.82-1.364-.361-.367-.913-.558-1.392-.732-.516-.191-1.089-.264-1.63-.355a36.33 36.33 0 00-2.517-.34c-.505-.151-1.012-.297-1.52-.442a7.436 7.436 0 00-2.273-.283"/><path d="M107.167 365.816l-.073.088.073-.088m4.029-15.138c-.11.123-.213.26-.322.418-.404.598-.476 1.157-.558 1.84-.047.397-.021.802-.025 1.199-.004.86-.05 1.72-.058 2.579-.01.909.009 1.818-.008 2.723-.263 1.116-.587 2.219-1.053 3.285a15.823 15.823 0 01-1.964 3.044c-.15.174-.304.343-.459.51-.472.486-.96.96-1.469 1.415-.45.392-.92.766-1.413 1.124a21.405 21.405 0 01-3.4 1.818c-.801.286-1.626.54-2.454.747-1.113.278-2.216.55-3.357.72-1.873.183-3.766.111-5.634-.085a21.062 21.062 0 01-3.657-.969 15.866 15.866 0 01-2.914-1.546c-.63-.475-1.257-.956-1.83-1.49a3.372 3.372 0 00-.28-.312 1.847 1.847 0 00-2.073-.247c-.608.326-1.066 1.127-.787 1.775.398.916 1.127 1.646 1.883 2.332a22.45 22.45 0 002.9 2.23 10.677 10.677 0 003.955 1.577c1.127.205 2.293.302 3.45.31.815.121 1.635.213 2.463.275 1.027.076 2.051.112 3.085.045 1.16-.071 2.298-.285 3.43-.515.533-.109 1.056-.23 1.585-.358 1.275-.306 2.488-.749 3.68-1.268a19.527 19.527 0 002.85-1.56c1.94-1.265 3.629-2.8 5.19-4.441.719-.759 1.357-1.597 1.982-2.421.295-.385.58-.776.834-1.183.14-.296.276-.594.413-.894.071-.196.132-.39.19-.59.06-.227.11-.457.163-.684.186-.808.359-1.613.488-2.43.145-.949.233-1.903.35-2.855.15-.936.306-1.873.412-2.812.072-.647.108-1.271-.054-1.916a3.415 3.415 0 00-.933-1.61c-.624-.623-1.365-.8-2.23-.88a2.314 2.314 0 00-.172-.006c-.804 0-1.744.486-2.2 1.106m-16.531 62.923c-.118.016-.234.034-.35.053l.034-.014c.107-.012.211-.026.316-.039m-6.312-11.466l-.242.094c.08-.036.16-.067.242-.094m-.274-.1c.036.003.072.007.109.013l-.11-.014m-1.717-2.749a7.756 7.756 0 00-2.731 1.929 9.21 9.21 0 00-1.504 2.306c-.35.742-.69 1.468-.873 2.263a17.22 17.22 0 00-.398 2.835c-.02.394-.047.791-.068 1.186-.043.784.154 1.514.47 2.233.164.371.34.743.515 1.114.275.572.794 1.071 1.213 1.557.69.808 1.547 1.432 2.445 2.044a14.393 14.393 0 003.411 1.717c1.844.628 3.842.789 5.76.365.15-.033.296-.08.437-.135.34-.128.704-.227 1.002-.424.433-.286.862-.575 1.12-1.021.304-.523.373-.841.433-1.422.083-.786-.533-1.61-1.242-1.988a2.703 2.703 0 00-2.052-.198c.008 0 .017-.003.027-.003a.304.304 0 01-.03.004l-.061.02-.611.103c-.482.03-.96.033-1.442 0a13.131 13.131 0 01-1.854-.448 17.12 17.12 0 01-2.63-1.375 11.95 11.95 0 01-1.442-1.333 7.817 7.817 0 01-.628-.92 3.654 3.654 0 01-.074-.278 14.607 14.607 0 01-.027-3.106c.133-.7.346-1.377.62-2.043a7.62 7.62 0 01.608-1.015c.194-.203.398-.39.62-.572.34-.214.686-.402 1.06-.57h.002c.948.29 1.997-.324 2.252-1.172.275-.917-.334-1.777-1.279-2.063-.35-.108-.73-.134-1.095-.148h-.058c-.661 0-1.315.316-1.896.558"/><path d="M84.578 412.08a2.035 2.035 0 00-.79.036c-.498.125-.787.404-1.088.769a48.951 48.951 0 00-1.714 2.21l-.128.176a22.91 22.91 0 00-.338.354c-.257.275-.49.577-.73.87a8.76 8.76 0 00-.161.2 2.295 2.295 0 00-.147.219 1.849 1.849 0 00-.252.522c0 .002 0 .003-.002.005h.001c-.1.334-.102.691 0 1.028.371 1.235 1.9 1.741 3.096 1.153.536-.263.909-.732 1.31-1.14.346-.351.697-.696 1.058-1.034.806-.75 1.622-1.489 2.435-2.231a1.888 1.888 0 000-2.808 2.19 2.19 0 00-1.494-.57c-.361 0-.724.083-1.056.241m13.456-13.81c-1.063.975-1.034 2.559 0 3.537.391.37.757.761 1.11 1.163.63.79 1.213 1.639 1.693 2.518.25.689.393 1.398.508 2.117a14.2 14.2 0 01.049 3.297c-.221 1.328-.504 2.644-1.032 3.904-.3.629-.616 1.255-.964 1.862-.415.733-1.088 1.475-1.228 2.306a2.232 2.232 0 000 1.278c.122.407.347.759.673 1.057.699.645 1.611.79 2.549.622.88-.162 1.61-.753 2.165-1.37a11 11 0 001.29-1.711 18.58 18.58 0 00.901-1.71c.351-.744.652-1.474.884-2.259.154-.522.237-1.064.337-1.597.139-.732.232-1.471.332-2.21.222-1.649-.032-3.29-.34-4.914a10.961 10.961 0 00-.561-1.978c-.327-.834-.827-1.553-1.382-2.266-.98-1.268-1.937-2.533-3.132-3.646-.517-.484-1.216-.723-1.916-.723-.706 0-1.413.243-1.936.723m-28.067-57.246c-.4.365-.63.87-.63 1.393.026.174.05.348.079.522.1.335.283.625.551.871.186.22.483.371.73.535.144.095.298.177.448.263.297.168.62.302.927.447.712.341 1.443.646 2.177.952.801.335 1.632.647 2.462.923.54.18 1.077.339 1.65.411.64.082 1.278.157 1.919.214.963.085 1.883-.677 2.122-1.482a1.888 1.888 0 00-.222-1.557c-.268-.42-.777-.831-1.313-.926l-.624-.111a1.712 1.712 0 00-.88-.543c-1.53-.387-3.072-.776-4.58-1.248-.7-.308-1.399-.623-2.102-.925a2.44 2.44 0 00-1.196-.317 2.26 2.26 0 00-1.518.578m348.008-5.844l.149.104-.15-.104m-10.664-.205l-.165.064-.045.006c.07-.022.14-.045.21-.07m4.726-6.586c-1.379.098-2.736.286-4.028.73a16.32 16.32 0 00-1.954.833c-.408.204-.82.447-1.106.786-.182.213-.333.39-.46.577a18.61 18.61 0 00-.35.171c-.479.243-.916.618-1.335.94-.676.526-.586 1.57 0 2.109.586.538 1.397.533 2.044.17.253.184.54.319.856.401.442.111.83.088 1.218-.01 1-.057 1.985-.314 2.978-.474a31.716 31.716 0 016.125-.04 15.36 15.36 0 011.55.33c.09.057.18.117.268.178 1.018.78 1.984 1.58 2.828 2.52.589.75 1.063 1.546 1.477 2.39.472 1.17.91 2.362 1.214 3.578.319 1.292.55 2.582.752 3.893.107.796.197 1.59.123 2.395-.174 1.04-.4 2.069-.788 3.065a7.988 7.988 0 01-.683 1.073c-.887 1.008-1.853 1.976-2.934 2.808-.106.046-.213.09-.322.135-.777.29-1.56.574-2.37.776-.801.198-1.612.358-2.43.483-1.264.112-2.52.095-3.794.046a99.13 99.13 0 01-2.934-.141 26.305 26.305 0 01-2.658-1.36c-.92-.539-1.89-1.022-2.773-1.617-1.178-.791-2.954-.775-3.955.286-.338.355-.645.76-.766 1.225-.087.322-.119.654-.154.982-.083.76.34 1.518.658 2.178.315.648.827 1.206 1.314 1.744.623.68 1.417 1.242 2.266 1.663.755.374 1.592.624 2.405.87.665.2 1.339.369 2.03.47 1.735.26 3.475.486 5.222.673 1.238.132 2.477.22 3.722.135 1.65-.111 3.326-.338 4.897-.811.949-.283 1.861-.68 2.774-1.041.587-.23 1.168-.487 1.722-.782.78-.414 1.472-.966 2.166-1.492.536-.407 1.045-.85 1.539-1.298.64-.577 1.17-1.237 1.718-1.888.54-.644.873-1.501 1.2-2.24.497-1.133.809-2.326 1.059-3.525.518-2.49.555-5.085.537-7.611-.025-2.792-.827-5.63-2.198-8.127-.34-.614-.805-1.133-1.274-1.675-.333-.388-.699-.76-1.085-1.104a25.4 25.4 0 00-3.046-2.332c-.855-.555-1.848-.943-2.774-1.38-1.235-.584-2.51-1.14-3.877-1.39-1.217-.223-2.477-.285-3.711-.328a26.277 26.277 0 00-2.903.053"/><path d="M440.632 343.993l-.039.007c-.292.034-.584.07-.874.108-.971.109-1.944.2-2.914.296-.519.05-1.037.118-1.56.181-.78.095-1.6.154-2.348.407a3.453 3.453 0 00-.966.479c-.9.186-1.795.385-2.69.592-1.245.289-1.983 1.547-1.645 2.664.346 1.16 1.653 1.8 2.903 1.514.98-.226 1.964-.452 2.955-.653a3.2 3.2 0 00.806-.059 9.62 9.62 0 01.781-.125c.676-.08 1.35-.17 2.025-.258.707-.08 1.412-.16 2.12-.235a33.09 33.09 0 001.592-.197c.612-.092 1.275-.141 1.808-.463.963-.572 1.482-1.587 1.17-2.631-.308-1.029-1.352-1.707-2.467-1.707-.218 0-.44.026-.657.08m-53.944 15.868a2.923 2.923 0 00-1.271.68c-.487.447-.926 1.212-.845 1.869.054.417.097.834.208 1.242.06.226.154.45.233.674.19.538.36 1.084.594 1.613.294.672.569 1.356 1.053 1.937.1.123.203.241.307.36.08.11.16.22.243.33a26.016 26.016 0 002.396 2.73c.375.371.766.73 1.145 1.093.447.434.887.877 1.4 1.25 1.113.804 2.397 1.287 3.69 1.793 1.481.584 3.003 1.15 4.578 1.48.852.181 1.729.28 2.595.398.72.099 1.443.207 2.17.286a62.57 62.57 0 003.7.292c1.257.063 2.499.03 3.755-.035 1.26-.067 2.524-.27 3.77-.44 1.331-.188 2.652-.399 3.951-.727 1.493-.375 2.964-.962 4.371-1.564.984-.42 1.976-.837 2.91-1.35 1.947-1.067 3.845-2.29 5.362-3.846a12.555 12.555 0 001.998-2.66c.507-.917.984-1.883 1.399-2.835.1-.346.1-.69 0-1.035a2.002 2.002 0 00-.973-1.167c-1.01-.538-2.31-.21-2.903.7a5.032 5.032 0 00-.343.47l-.108.14a27.302 27.302 0 01-3.79 3.601 26.148 26.148 0 01-2.7 1.577c-.94.472-1.917.87-2.898 1.265-2.598.94-5.335 1.45-8.089 1.827a46.649 46.649 0 01-4.943.239c-1.501-.011-3.012-.193-4.505-.373-1.225-.16-2.421-.43-3.627-.658-1.148-.223-2.283-.39-3.386-.76a22.714 22.714 0 01-3.396-1.777c-.642-.533-1.143-1.205-1.697-1.812-.477-.523-1.012-.999-1.5-1.512a3.314 3.314 0 01-.131-.206c-.194-.518-.334-1.054-.489-1.584-.229-.794-.533-1.573-.98-2.29-.513-.823-1.497-1.306-2.504-1.306-.252 0-.503.029-.75.091m22.522 43.214a1.804 1.804 0 00-.385-.045c-.368 0-.852.138-1.092.417-.207.237-.472.487-.605.775a4.783 4.783 0 00-.343.884c-.096.388-.194.779-.254 1.173-.147.935-.25 1.863-.144 2.806-.26.796-.432 1.657-.243 2.463a8.45 8.45 0 00.677 1.816c.254.52.59.973.97 1.42.34.394.913.785 1.496.719.272 0 .526-.063.76-.187.224-.122.403-.286.536-.493.186-.22.261-.572.225-.844-.032-.22-.046-.365-.121-.552a8.493 8.493 0 00-.276-.578c-.076-.15-.154-.297-.23-.447a11.34 11.34 0 01-.364-.986 7.339 7.339 0 01-.216-1.021 13.1 13.1 0 01-.104-1.87c.194-.521.402-1.035.601-1.547.342-.732.683-1.464 1.054-2.187.165-.319.244-.628.14-.976a1.302 1.302 0 00-.634-.758 1.49 1.49 0 00-.699-.166 1.57 1.57 0 00-.75.184M233.2 417.52c.064.02.127.043.186.074a5.563 5.563 0 00-.186-.073zm-.024-.006l.02.005c.077.032.15.069.219.11.078.064.148.129.216.2.073.102.14.208.203.317-.325-.177-.651-.349-.975-.52l-.058-.03c.107-.03.215-.056.323-.08l.052-.002zm-8.617-2.726a1.697 1.697 0 00-.831.99c-.125.427-.06.892.183 1.277.222.345.637.683 1.08.76.616.108 1.21.287 1.791.495.062.025.122.052.183.078a16.94 16.94 0 00-.438.28c-.186.125-.372.25-.558.378-.18.128-.354.252-.53.381-.325.236-.487.61-.54.975-.05.338-.065.624.132.936.19.293.458.444.795.559.301.105.605.217.938.213.408 0 .809-.062 1.202-.151a34.14 34.14 0 002.052-.562c.628-.188 1.253-.378 1.877-.576.453.209.906.413 1.366.61.357.157.73.292 1.099.43.73.272 1.697.38 2.27-.233.268-.283.497-.733.321-1.114-.214-.47-.501-.9-.777-1.34-.204-.332-.39-.674-.587-1.008-.24-.412-.461-.845-.748-1.229-.297-.405-.69-.756-1.188-.937-.645-.24-1.389-.016-2.03.152-.33.088-.657.193-.976.312-.551-.29-1.102-.586-1.669-.854-.937-.447-1.983-.808-3.025-.989a2.967 2.967 0 00-.508-.048c-.305 0-.597.06-.884.215z"/><path d="M280.85 419.037c.05.003.1.01.15.019l-.15-.019zm-11.418-6.233c-.796.22-1.523.685-2.195 1.129a3.658 3.658 0 00-.45-.15 2.95 2.95 0 00-.817-.078 3.36 3.36 0 00-.883.157c-.502.155-.95.414-1.404.657-.644.349-1.238.766-1.85 1.153-.488.31-.973.624-1.456.94a13.409 13.409 0 01-1.06-.638c-.463-.358-.896-.746-1.332-1.126-.169-.148-.347-.283-.52-.42-.304-.247-.625-.471-.948-.697-.325-.233-.655-.381-1.042-.522a2.664 2.664 0 00-2.24.174c-.434.24-.802.574-1.189.873-.202.16-.407.318-.61.477-.189-.1-.409-.161-.603-.234-.172-.065-.537-.079-.752-.065-.608.04-1.128.269-1.632.555-.662.374-1.253.867-1.847 1.327-.555.434-1.117.864-1.658 1.31-.216.182-.433.36-.65.542a9.433 9.433 0 01-1.435-1.283c-.44-.552-.815-1.143-1.204-1.725-.207-.31-.38-.654-.744-.831a.8.8 0 00-1.03.251c-.095.1-.195.187-.306.281l.071-.049c-.833.583-1.724 1.096-2.605 1.609-1.16.677-2.334 1.33-3.523 1.964-.51.273-.05 1.003.466.73 1.213-.644 2.409-1.31 3.598-1.994.447-.26.891-.523 1.335-.788.424-.254.84-.524 1.27-.777.445 1.081.864 2.196 1.661 3.102.27.308.56.593.865.863-.163.145-.325.29-.486.438a5.53 5.53 0 00-.894 1.015c-.122.184-.2.38-.236.587-.025.162-.047.326-.072.487.025.207.057.41.096.618.094.308.265.575.509.801.214.197.676.476.984.529.226.04.455.069.684.088.304.004.602-.052.902-.095.15-.033.3-.081.444-.144.304-.115.6-.237.899-.368a13.84 13.84 0 001.842-1.008 98 98 0 001.153.607c.874.45 1.966.927 2.932.391.197-.108.375-.233.533-.384.24-.233.336-.483.466-.772.097-.207.078-.46.11-.683.043-.293.029-.595.022-.89-.018-.75-.046-1.498-.071-2.248l-.001-.04c.666-.57 1.33-1.141 2.004-1.704.554.489 1.064 1.021 1.608 1.518.272.247.561.483.863.705l-.197.159a7.349 7.349 0 00-.451.407 4.69 4.69 0 00-.587.696c-.268.391-.365.835-.39 1.288 0 .349.096.673.286.976.129.16.262.319.401.47.365.41 1.048.578 1.582.614.856.055 1.733-.342 2.491-.66.906-.381 1.763-.88 2.586-1.417.56.141 1.12.274 1.692.378.648.119 1.249.136 1.897-.003.69-.147 1.25-.676 1.643-1.19.57-.744.724-1.783.816-2.67.037-.337.062-.67.065-1.003a80.4 80.4 0 01.683-.508c.119-.08.24-.157.362-.232.28.327.576.642.877.948.211.217.422.434.644.644l.387.365c.346.324.72.6 1.12.874-.378.323-.744.657-1.102 1.008-.813.788-.856 2.034 0 2.815a2.26 2.26 0 001.531.585c.612 0 1.085-.23 1.536-.585l.252-.188c.624-.427 1.23-.877 1.846-1.316l-.13.091c.308-.223.612-.451.915-.68.281.066.564.13.85.182.341.062.688.091 1.035.13.3.034.71-.032.988-.077a3.502 3.502 0 001.711-.812c.315-.286.594-.615.809-.97.297-.489.394-.951.455-1.5-.026-.214-.058-.424-.09-.635-.068-.213-.193-.57-.311-.715-.029-.04-.06-.076-.09-.112a1.968 1.968 0 00-.74-.68c-.255-.154-.538-.247-.824-.345a6.601 6.601 0 00-.733-.099 5.19 5.19 0 00-1.06.092 9.833 9.833 0 00-1.719.532 12.97 12.97 0 00-1.684.826 14.044 14.044 0 01-.544-.176 7.758 7.758 0 01-1.118-.573 20.51 20.51 0 01-1.289-1.108 23.534 23.534 0 01-.957-.966c-.117-.153-.237-.311-.37-.436a3.497 3.497 0 00-.624-.46c-.324-.192-.698-.267-1.075-.267a3.6 3.6 0 00-.947.138z"/><path d="M419.431 450.313c.404 0 .821-.023 1.233-.047.157 2.823.42 6.117.87 11.007l.165 1.824.018.227c.3 3.25.584 6.433.773 9.613.218 3.752.436 7.745.501 11.697.025 1.656.014 3.38.004 4.95l-.004.573v.331a261.193 261.193 0 000 5.62c.018 1.092.043 2.175.097 3.266.039.87.11 1.737.186 2.605l.039.448c.162 1.984.22 4.055.261 5.567.063 2.702.247 5.49.394 7.729l.007.111.022.349a420.6 420.6 0 01.232 3.705c.032.59.075 1.18.122 1.768l.029.371c.043.548.086 1.1.121 1.648a63.7 63.7 0 00.126 1.667c.028.292.057.581.093.874.007.075.018.15.029.226l.016.056c-.588-.105-1.15-.22-1.785-.35.097-.81.09-1.664.083-2.489-.004-.44-.007-.753-.004-1.061l.011-3.758v-.427c.007-2.76.015-5.612-.04-8.468-.03-1.64-.13-3.307-.227-4.919l-.016-.24-.04-.672-.03-.585c-.03-.552-.06-1.103-.084-1.653-.079-1.84-.071-3.69-.064-5.481v-.195c.007-.82.01-1.638.007-2.46a471.21 471.21 0 00-.079-8.238c-.053-3.12-.118-5.938-.379-8.814-.164-1.785-.406-3.525-.662-5.367l-.036-.263-.05-.343-.033-.223-.023-.171c-.1-.724-.198-1.442-.288-2.16l-.104-.812-.047-.368-.013-.103c-.305-2.396-.594-4.662-.813-6.927a186.484 186.484 0 01-.73-9.648l.112.01zm-331.44 76.503a264.96 264.96 0 00-.03-5.049l-.003-.463c-.032-2.646-.074-5.29-.117-7.935-.08-4.874-.185-10.498-.437-16.151-.047-1.005-.1-2.013-.154-3.021-.09-1.761-.176-3.472-.23-5.18-.085-2.865-.164-5.729-.24-8.59a442.695 442.695 0 00-.282-7.333l-.046-1.084a696.97 696.97 0 01-.148-3.832l-.003-.096a503.383 503.383 0 00-.136-3.525c-.142-3.152-.32-6.12-.594-10.637-.064-.9-.168-1.78-.276-2.677l-.018-.154a77.46 77.46 0 01-.14-1.17l-.014-.118-.092-.795 2.176.344c-.065 4.508-.011 10.01.16 17.307.047 2.023.104 4.047.161 6.07.108 3.72.219 7.559.258 11.38.126 11.593.68 23.399 1.65 35.089.1 1.23.19 2.463.254 3.695l.097 1.806.01.325c.019.26.033.526.04.788a2.242 2.242 0 00-.233.87l-.81.033-.804.103zm356.57-.984c.212-.86.168-1.746.126-2.604l-.007-.128a23.8 23.8 0 01-.026-.732c-.018-1.255-.025-2.51-.029-3.764l-.003-1.712c-.004-1.72-.008-3.42-.032-5.11a200.797 200.797 0 00-.136-4.393l-.03-.791c-.02-.52-.038-1.045-.054-1.568-.066-2.042-.12-4.056-.174-6.073l-.032-1.196a143.282 143.282 0 00-.16-3.82c-.055-1.073-.109-2.126-.145-3.176-.081-2.347-.096-4.608-.107-7.32l-.018-3.577c-.018-3.57-.039-7.138-.085-10.708-.065-4.935-.402-9.908-.727-14.717a561.79 561.79 0 01-.44-6.899l1.109-.2.308-.06.112-.03.114-.03a77.096 77.096 0 00-.19 4.007c-.014.394-.029.785-.047 1.182l-.003.125a83.554 83.554 0 00-.079 2.884c-.01 3.405.001 6.17.036 8.452.021 1.986.097 3.938.193 6.281l.004.099.046 1.199c.093 2.555.247 5.157.383 7.453l.03.473c.031.552.052 1.1.074 1.652l.018.404c.022.552.043 1.078.071 1.6.072 1.468.137 2.933.19 4.399l.082 2.118c.075 1.892.147 3.784.194 5.68.01.554.02 1.08.028 1.606l.015.808.024 1.61c.015 1.068.08 2.102.17 3.447l.035.54c.045.707.084 1.414.124 2.119l.04.736.03.467c.078 1.439.16 2.875.271 4.31l.115 1.495c.06.742.118 1.485.171 2.226.04.625.111 1.25.183 1.873l.025.207c.065.56.129 1.113.179 1.665.07.856.086 1.73.1 2.573l.003.193.004.15.011.753c.011.793.064 1.486.165 2.12.025.178.043.303.085.435.07.2.163.398.26.592l-.6.151c-.716.192-1.379.37-2.004.524zm-373.593.728l-.066-.015-.15-.04a58.257 58.257 0 01-1.936-.552c.085-.282.113-.683.1-1.289a81.354 81.354 0 00-.076-1.635c-.067-1.312-.14-2.584-.215-3.854-.1-1.672-.103-3.378-.107-5.026v-.23l-.004-1.567c-.024-4.7-.05-9.397-.114-14.098a1614.77 1614.77 0 00-.258-14.821c-.075-3.335-.29-6.708-.497-9.969l-.05-.883c-.072-1.11-.14-2.213-.2-3.324l-.004-.097-.015-.211-.01-.2-.01-.178c-.065-1.055-.147-2.403-.266-3.636a188.388 188.388 0 00-.648-5.523c-.165-1.245-.394-2.575-.53-3.37l-.032-.198-.226-1.333c-.193-1.176-.375-2.352-.558-3.528l-.154-.989-.29-3.172-.16-1.784a22.22 22.22 0 01-.066-1.461l-.01-.463c.69.51 1.391.928 2.26 1.361-.041.026-.038.07-.034.105.185 4.945.358 10.366.511 16.115.114 4.562.3 8.972.552 13.103.127 1.992.303 3.965.526 6.315.203 2.181.365 4.346.498 6.618.235 4.048.5 8.386.912 12.995.22 2.464.384 4.523.477 6.562.062 1.505.094 3.046.125 4.543l.003.149.004.141.003.138.004.128.004.124v.263l.018.92c.042 2.504.143 5.051.215 6.747l.039.953c.082 2.09.155 3.697.333 5.358l.032.29.018.15.017.148.015.162.02.058zm178.512-112.9h.008c1.87 0 3.466-1.402 3.56-3.126l.684.104.775.023c1.375.026 2.744.07 4.12.116l.239.009 2.624.082 1.804.052c3.071.096 6.143.188 9.217.273 4.845.125 12.1.335 19.129.72 3.607.191 6.987.557 9.818.89 1.406.174 2.813.354 4.22.542l.572.075c.802.106 1.539.207 2.27.335.027 1.953-.153 3.994-.312 5.796l-.008.091-.01.119-.015.121-.01.115c-.197 2.15-.424 4.226-.695 6.347-.085.57-.175 1.142-.265 1.71l-.075.453c-.638-.132-1.494-.228-2.85-.327l-2.152-.135-2.15-.135a415.74 415.74 0 00-8.968-.427 1016.54 1016.54 0 01-18.348-.677c-2.52-.102-4.856-.287-7.43-.5l-1.41-.114a816.9 816.9 0 00-6.222-.444l-2.835-.2c-1.96-.126-3.84-.296-6.282-.522l-.526-.05-.222-.019-.158-.013-.23-.02c-3.069-.273-6.24-.553-9.324-.713l-2.617-.128-.264-.013-.891-.043-.14-.007-.204-.009-.655-.03a845.058 845.058 0 00-11.398-.506 297.394 297.394 0 00-7.846-.148h-1.242c-.877 0-1.754.007-2.63.033l-.488.02c.098-.101.12-.297.134-.487.087-1.134.169-2.26.248-3.384l.028-.37.011-.15c.09-1.267.215-3.004.415-4.64.05-.301.1-.6.165-.903l.046-.23.037-.2.15-.08.161-.125.207-.158c.165-.125.323-.256.48-.387l.254.047.524.06.561.058c.477.043.96.076 1.444.106l.239.016.383.023.79.05c1.06.072 2.124.141 3.183.186l1.336.063c1.048.053 2.101.105 3.153.125l5.294.098c3.341.06 6.505.168 9.565.273l.834.027.856.026.862.026.826.026.835.027.866.026c.885.03 1.772.055 2.66.079l.6.013c.896.02 1.791.04 2.686.04zm-155.235 12.2a33.35 33.35 0 01-3.349-.18c-2.711-.371-4.84-.844-6.695-1.488a34.541 34.541 0 01-5.106-2.684c-1.002-.813-1.876-1.762-2.686-2.665-.682-.85-1.238-1.7-1.7-2.6a13.051 13.051 0 01-.66-2.192c-.18-1.526-.212-3.06-.234-4.765a31.23 31.23 0 01.216-4.197c.255-1.417.722-2.896 1.513-4.796.292-.297.65-.596.96-.848.464-.28.926-.552 1.395-.825l1.189-.703c2.394-1.414 4.815-2.845 7.368-3.937 1.672-.603 3.044-.992 4.315-1.221.696.042 1.412.107 2.135.18a.773.773 0 00.238.003c1.676.299 3.2.679 4.657 1.163.907.392 1.806.814 2.672 1.254l.601.312.1.053.144.076.103.052.107.056c1.131.597 2.234 1.179 3.26 1.838.572.455 1.063.91 1.503 1.389a28.764 28.764 0 011.495 2.18l.072.108.046.082c.64 1.067 1.092 1.828 1.514 2.627.186.54.316.987.396 1.365.265 2.515.473 5.206.2 7.845a21.566 21.566 0 01-1.134 3.7 39.947 39.947 0 01-.973 1.789l-.218.382-.054.088a19.231 19.231 0 01-.883 1.431c-.47.477-.842.854-1.237 1.168-.44.355-.885.693-1.338 1.031a20.384 20.384 0 01-2.805 1.534c-1.777.633-3.378 1.058-4.894 1.3-.551.064-1.281.095-2.233.095zm319.903-32.875a4.65 4.65 0 001.234-.167c1.073-.25 2.08-.452 2.988-.598a19.6 19.6 0 011.95-.076c.984 0 1.844.039 2.554.115.418.064.785.138 1.123.226a29.99 29.99 0 012.301 1.353c.353.3.723.663 1.133 1.108.741.951 1.454 1.95 2.367 3.254 1.044 1.537 1.824 2.733 2.486 3.945.253.62.51 1.294.68 2.005a42.34 42.34 0 01.526 2.618c.104 1.052.11 2.084.021 3.158-.218.91-.475 1.886-.869 2.845-.02-.233-.238-.493-.496-.784-.175-.197-.344-.386-.509-.58-.78-.982-1.31-2-1.745-2.877-.19-.382-.625-.677-1.163-.79.54-.579.925-1.37 1.117-2.272a24.38 24.38 0 00.372-2.195c.105-.82-.003-1.637-.136-2.398a5.832 5.832 0 00-1.11-2.519c-.48-.648-.905-1.127-1.341-1.506-.597-.52-1.103-.858-1.641-1.092a9.363 9.363 0 00-2.02-.654 12.16 12.16 0 00-2.766-.325c-.373 0-.742.016-1.107.052-.902.103-1.57.224-2.103.384-.917.253-1.952.64-2.683 1.584-.415.532-.493 1.311-.198 1.986-.086.12-.13.31-.13.555 0 .429.19.852.515 1.162.259.227.716.492 1.156.492.044 0 .083 0 .134-.007a6.823 6.823 0 011.04-.046c.87.13 1.814.37 2.804.71.26.114.51.235.753.379.093.093.123.123.151.156.269.366.472.786.687 1.23a9.37 9.37 0 01.603 1.864c.043.426.048.826.019 1.22-.04.15-.08.297-.13.449-.07.126-.144.25-.238.378l-.057.08-.139.044-.125.058c-.791.273-1.429.441-2.006.528a6.884 6.884 0 01-.357.009c-.321 0-.64-.02-.962-.052a7.566 7.566 0 01-1.014-.24c-.53-.25-.95-.447-1.45-.447a2.268 2.268 0 00-1.513.614c-.367.363-.558.815-.536 1.274.004.173.028.327.083.5.03.166.099.318.205.453.125.203.25.348.396.459.053.055.12.114.193.17.695.59 1.466.985 2.498 1.284.335.16.686.307 1.044.442.599.23 1.156.342 1.704.342l.122-.003c.718-.02 1.376-.248 2.144-.585a2.19 2.19 0 00.352-.179l.818-.22c.382-.1.726-.221 1.053-.373l.29.287 2.145 1.607 1.278.96.1.075.072.056.448.335.102.088c.175.132.356.269.565.36a2.242 2.242 0 001.297.24l-1.027.718-1.063.808a21.982 21.982 0 01-3.18 1.69c-.979.346-2.14.732-3.317.979-.538.023-1.107.04-1.68.04-1.833 0-3.603-.165-5.118-.32a34.313 34.313 0 01-2.225-.39c-.6-.14-1.133-.322-2.021-.631-1.494-.63-2.602-1.186-3.592-1.806a19.468 19.468 0 01-1.96-1.874 17.247 17.247 0 01-1.585-2.38 10.945 10.945 0 01-.49-1.587 10.54 10.54 0 01.008-1.673c.45-2.28 1.234-4.36 2.015-6.27.325-.809.609-1.625.945-2.607l.054-.158.057-.167c.4-1.194.7-2.055 1.056-2.924a18.53 18.53 0 011.84-2.977c.16-.146.331-.299.516-.448.55-.36 1.096-.683 1.674-.985.581.298 1.281.454 2.014.454zM94.493 380.933l-1.524-.204c-1.544-.189-3.194-.407-4.785-.729a39.081 39.081 0 01-6.073-1.692c-1.27-.531-2.58-1.08-3.75-1.86-.934-.697-1.798-1.445-2.522-2.083-.143-.478-.548-.91-.816-1.195-.193-.213-.278-.31-.365-.408l-.092-.107a124.331 124.331 0 00-2.174-2.46l-.243-.274c-.722-1.135-1.441-2.451-1.918-3.323l-.129-.217-.085-.166-.347-.635a65.377 65.377 0 01-1.79-3.54l-.344-.71-.172-.354c-.232-.706-.4-1.36-.51-1.996a33.58 33.58 0 01-.287-3.973c-.01-.807.007-1.76.054-2.917l.004-.145.04-1.153.02-.906v-.131c.019-.93.043-1.913.137-2.822.035-.243.075-.49.114-.732a25.205 25.205 0 011.08-4.279l.068-.207c.3-.919.7-2.113 1.153-3.198 1.053-2.084 2.494-3.957 3.88-5.698a32.448 32.448 0 014.733-4.357c1.463-.975 3.078-1.934 4.606-2.825a66.266 66.266 0 012.827-1.58c.616-.307 1.241-.567 1.793-.798 1.787-.63 3.288-1.034 4.723-1.27a21.62 21.62 0 011.677-.059 31.2 31.2 0 013.375.174c.396.062.8.128 1.205.197.703.113 1.418.294 2.185.555 1.197.499 2.218.962 3.121 1.415l.555.28c1.322.664 2.419 1.222 3.475 1.822a60.482 60.482 0 014.23 2.651c.93.64 1.858 1.284 2.781 1.934l.136.111.086.07c1.221.973 2.602 2.073 3.785 3.261 1.14 1.124 2.454 2.438 3.647 3.797.493.622.903 1.223 1.257 1.835.257.65.53 1.421.858 2.426l.476 1.482.11.338c.285.901.503 1.835.684 2.938.268 1.99.413 3.602.455 5.075a36.863 36.863 0 01-.283 5.55c-.303 1.783-.74 3.368-1.334 4.843-1.111 2.226-2.313 4.146-3.675 5.868-1.234 1.375-2.636 2.708-4.288 4.075-1.7 1.166-3.166 2.08-4.615 2.877a77.729 77.729 0 01-5.616 2.759c-1.33.448-2.628.798-3.883 1.137-2.385.604-4.64 1.156-6.781 1.467-.307.026-.619.05-.93.066zM397.4 323.136a3.7 3.7 0 001.022-.148c1.393-.352 2.796-.68 4.199-1l1.607-.377 1.332-.315.143-.02c1.582-.379 3.748-.9 5.808-1.225.558-.064 1.309-.096 2.233-.096.92 0 1.85.044 2.769.13.705.061 1.41.14 2.108.219l.699.075c1.16.134 2.69.332 4.24.674 2.148.495 3.888.974 5.473 1.507.84.418 1.587.904 2.144 1.28.497.394.97.801 1.446 1.215l.318.276c.806.693 1.421 1.243 1.998 1.846.778 1.065 1.441 2.27 1.881 3.066.254.464.472.857.697 1.245l.05.086c.77 1.327 1.581 2.74 2.299 4.147a278.458 278.458 0 011.929 4.6l.225.548.362.867c.97 2.308 1.951 4.64 2.476 7.094.139 1.843-.148 3.744-.426 5.584l-.068.468c-.257 1.334-.443 2.227-.687 3.115-.288 1.064-.679 2.158-1.23 3.441a66.261 66.261 0 01-2.008 3.8l-.601 1.071c-.981 1.747-1.986 3.538-3.168 5.068-.509.56-1.13 1.214-1.864 1.815a98.351 98.351 0 01-3.914 2.436c-2.241 1.336-4.276 2.518-6.485 3.463-4.051 1.403-8.256 2.023-11.635 2.522a53.19 53.19 0 01-5.44.321c-1.147 0-2.39-.058-3.8-.176a49.84 49.84 0 01-3.346-.342c-3.688-.541-6.745-1.266-9.62-2.28-1.568-.655-3.157-1.42-4.317-1.977l-.242-.115-.164-.082a34.808 34.808 0 01-3.898-2.249c-1.106-.813-1.815-1.358-2.444-1.88-.12-.187-.253-.404-.377-.627a32.915 32.915 0 01-.948-1.875c-.415-.95-.702-1.742-.906-2.492a53.054 53.054 0 01-.73-3.002 83.178 83.178 0 01-.383-1.84l-.254-1.218-.111-.506-.11-.502-.044-.195-.036-.163-.046-.21a35.287 35.287 0 01-.294-1.472c-.328-2.448-.462-4.452-.422-6.306.01-.78.06-1.558.11-2.335l.058-.999.007-.122.01-.146c.05-.897.108-1.912.223-2.924a11.4 11.4 0 01.343-1.434c.194-.617.387-1.232.588-1.84a31.065 31.065 0 011.138-3.017l.375-.775c.17.064.439.099.95.126.058.006.115.006.177.006 1.347 0 2.477-1.055 2.79-2.075.305-1.042-.072-2.175-.962-2.887l.129-.041a63.98 63.98 0 012.07-2.525l.106-.122c.29-.342.58-.686.867-1.031l.447-.47.702-.725.157-.165c.717-.745 1.436-1.491 2.176-2.217.275-.22.566-.433.859-.646a15.77 15.77 0 011.662-.978c.527-.257 1.06-.507 1.597-.75a89.31 89.31 0 012.863-1.205l.115-.05.167-.068.095-.04.861-.324c.536.32 1.19.49 1.88.49zm78.79-37.916c1.038-2.14 1.92-4.328 2.57-5.94l.046-.114.054-.128.078-.198c-.7 1.928-1.21 3.269-1.667 4.34-.327.682-.69 1.367-1.082 2.04zM64.052 327.346c.25 0 .51-.037.772-.114.731-.18 1.363-.623 1.73-1.22.593-.915.587-2.409-.456-3.223-.495-.394-.925-.893-1.27-1.293l-.64-.772c-.672-.822-1.592-1.95-2.61-2.904-.47-.43-.92-.874-1.371-1.32l-.143-.142-.172-.17a98.782 98.782 0 00-1.225-1.197l-.597-.561c-.383-.355-.763-.71-1.128-1.077-.35-.342-.684-.734-.952-1.047l-.114-.132-.057-.07-.315-.36-.136-.162c-.397-.45-.814-.89-1.236-1.33l-.164-.175-.079-.081-.09-.096a44.03 44.03 0 01-1.463-1.56l-.061-.066a61.442 61.442 0 00-2.18-2.493 93.11 93.11 0 01-1.994-2.221 70.469 70.469 0 01-2.727-3.54c-.612-.872-1.18-1.84-1.607-2.585l-.05-.079-.114-.2c-.262-.443-.512-.867-.77-1.28l-.559-.904-.075-.122-.075-.125-.058-.092c-.618-1.005-1.22-1.984-1.76-2.956l-.135-.247-.137-.245c-.483-.976-.937-1.941-1.386-2.91a255.784 255.784 0 01-1.774-4.178l-.126-.293-.955-2.283c-.193-.46-.38-.923-.559-1.39l-.025-.088a25.517 25.517 0 01-.526-2.078 46.143 46.143 0 01-.21-2.84c-.025-.506-.043-1.011-.062-1.521l-.017-.418c-.025-.6-.047-1.117-.015-1.624.238-1.147.632-2.33 1.206-3.614.462-.992.945-1.97 1.431-2.953l.212-.434.079-.157 1.063-2.152.344-.743c.092-.348.132-.655.122-.939l1.844-1.735.87-.834.354-.339c.477-.46.931-.896 1.397-1.33 1.672-1.581 3.66-3.416 5.719-5.036a262.233 262.233 0 013.526-2.726c.993-.547 2.024-1.087 3.034-1.611l.426-.224.44-.226 1.081-.56a2.817 2.817 0 001.314-1.396c4.787.221 9.805.425 14.907.61a4.59 4.59 0 001.686.322c.389 0 .743-.054 1.02-.155l.19-.07c2.394.09 4.768.168 7.11.24 5.148.152 10.304.234 14.854.307l.48.009c3.35.05 6.671.1 9.993.17 15.99.337 31.37.392 46.243.444h.28l.28.004 6.976.023 1.546.006 1.543.007 1.66.016h.33l.297.003c1.99.017 3.898.03 5.806.03l.698-.003c3.94-.01 8.679-.048 14.085-.115 3.588-.052 7.63-.06 11.465-.06h3.823l4.005.004c1.65 0 3.305 0 4.959-.01l1.983-.006c3.93-.017 7.839-.033 11.737-.08l1.3-.013.84-.006c1.425-.01 2.85-.02 4.275-.06a193.74 193.74 0 001.972-.058l.604-.017a177.78 177.78 0 014.1-.098 1884.082 1884.082 0 0125.925-.128c7.234.023 14.468.049 21.699.079l.197.002 5.555.02 2.151.007c3.77 0 7.539-.036 11.312-.072l1.077-.007.984-.01c3.362-.03 6.672-.052 9.983-.052 5.435.003 10.953.155 16.108.319 3.068.088 6.136.177 9.206.236 8.647.168 17.248.22 26.031.262l4.034.017 1.614.007 2.652.01 1.11.006 2.019.007 3.132.012c11 .042 25.063.095 37.882.11l1.646.003 6.547-.007 6.547-.006h7.582l2.484.006 1.028-.003c.548 0 1.1-.01 1.647-.036a11.31 11.31 0 001.81-.273c-.087.482.06 1.03.412 1.573.546.866 1.313 1.277 2.299 1.63l.927.334.314.115c.552.197 1.096.395 1.633.595 1.622.648 3.015 1.224 4.256 1.76l2.225 1.448.561.364.813.533c1.693 1.1 3.365 2.188 5.025 3.288l.09.066.136.098.144.106.092.065c.644.473 1.224.903 1.775 1.353l.21.174.392.326c.67.559 1.34 1.118 1.997 1.687l.419.365c-.078.046-.143.195-.168.377-.032.22-.093.432-.153.644l-.14.528a8.646 8.646 0 00-.158.8l-.018.094-.04.24c-.139.788-.293 1.57-.464 2.328-.144.651-.294 1.279-.445 1.906l-.056.246-.022.089-.097.404-.028.115-.033.138-.028.121a78.224 78.224 0 00-.472 1.99 59.96 59.96 0 01-.623 2.454c-.14.541-.35 1.066-.537 1.53l-.064.154-.193.48-.287.723-.032.086-.064.164c-.445 1.11-.916 2.29-1.41 3.419-.821 1.674-1.79 3.421-3.047 5.501-.545.886-1.191 1.753-1.761 2.519a72.231 72.231 0 01-1.803 2.34 74.199 74.199 0 01-4.062 4.174l-1.478 1.428a162.476 162.476 0 01-3.072 2.93c-1.28 1.2-2.76 2.502-4.66 4.092-1.79 1.505-3.632 2.858-5.218 4.008l-1.585 1.12a257.445 257.445 0 00-4.278 3.088c-1.202.885-1.868 1.743-2.037 2.623-.781-.62-1.75-1.147-2.865-1.57-2.181-.863-4.625-1.519-7.472-2.008-2.439-.39-4.905-.545-7.221-.67a32.25 32.25 0 00-1.486-.03c-.327 0-.648.007-.974.013l-.509.005-.586.009c-2.702.04-5.488.459-8.519 1.285a34.697 34.697 0 00-6.425 1.297l-2.151.65-1.457.438c-.47.134-.938.298-1.403.462l-.169.06-.15.055-.151.057-.093.035-.194.07-.683.243c-2.308.794-4.211 1.527-6 2.526-2.695 1.483-5.052 3.545-7.236 5.53a218.384 218.384 0 00-4.582 4.326c-.401.395-.794.799-1.186 1.21l-.142.144-.133.135-.723.748a29.593 29.593 0 00-2.381 2.833l-.212-.053h-.025c-.227 0-.405.004-.584.006-2.1.03-4.058.05-6.012.05h-.83l-.834-.003c-2.907-.01-5.53-.044-8.509-.111-.891-.017-1.78-.024-2.67-.03-1.865-.01-3.417-.023-4.986-.096a436.42 436.42 0 01-8.884-.403 765.064 765.064 0 00-7.205-.362c-5.484-.244-11.275-.507-16.523-.815-3.075-.17-6.15-.324-9.228-.472a276.768 276.768 0 00-4.737-.168l-2.229-.072-2.237-.08c-1.98-.075-3.96-.147-5.942-.193l-2.12-.046-.917-.02-.79-.016a422.607 422.607 0 01-4.653-.125 770.42 770.42 0 01-8.809-.316 684.37 684.37 0 00-8.72-.285c-2.048-.046-4.102-.07-6.147-.085l-2.04-.027a383.77 383.77 0 01-3.418-.056l-.763-.016c-1.01-.02-2.018-.036-3.025-.05l-1.263-.01-7.61-.078c-.822-.01-1.578-.013-2.333-.013-1.15 0-2.302.01-3.455.02l-.859.003-1.45.01c-1.18.013-2.362.04-3.54.065l-.594.01c-1.264.033-2.513.06-3.759.073-2.834.032-5.67.05-8.5.055l-1.046.003a718.49 718.49 0 01-15.337-.157c-1.243-.023-2.488-.03-3.734-.03-.863 0-1.73.003-2.596.007l-2.251.006c-2.187.007-4.378.01-6.564.013h-.775l-1.728.004-.218.004c-3.837.005-9.612.016-14.891.11-3.362.081-6.886.226-10.294.366l-.23.006-.2.007-.186.006-.533.02c-1.67.076-3.243.141-4.826.2-1.342.053-2.688.105-4.03.155l-1.346.052-1.335.053-1.303.052c-.859.033-1.715.066-2.57.102l-.147.003c-1.869.091-4.204.157-6.751.191l-.487.007-2.42.045-.145-.207-.276-.322a113.594 113.594 0 00-3.173-3.38l-.175-.178c-.942-.956-1.986-1.79-2.996-2.596l-.677-.544c-.294-.238-.604-.456-.916-.677l-.109-.076-.154-.105-.081-.056-.14-.092-.555-.388a224.54 224.54 0 00-3.053-2.128 58.139 58.139 0 00-4.422-2.727c-1.35-.76-2.872-1.474-3.88-1.945l-.567-.266c-1.852-.892-3.907-1.583-5.491-2.083-1.114-.353-2.34-.485-3.423-.6l-.43-.054-.58-.066a24.286 24.286 0 00-2.175-.121l-.143.002h-.147c-2.426.047-4.531.272-6.434.69-1.806.386-3.407 1.041-5.163 1.795-1.462.61-2.848 1.369-4.01 2.03-1.188.67-2.434 1.493-3.258 2.037l-.301.201-.09.062-.318.21a100.055 100.055 0 00-4.621 3.21 27.649 27.649 0 00-2.897 2.447 37.374 37.374 0 00-2.592 2.036c-.556.484-1.042 1.063-1.511 1.624l-.24.287-.325.398c-.51.634-.97 1.253-1.368 1.839-.172.25-.348.496-.526.742a22.028 22.028 0 00-1.042 1.528l-1.379 2.25c-.514.85-.91 1.698-1.274 2.491-.667 1.422-1.11 2.523-1.44 3.572-.817 2.593-1.09 5.293-1.354 7.901l-.11 1.173a99.88 99.88 0 00-.161 1.699l-.032.338-.033.384-.035.407a180.71 180.71 0 01-.172 1.961c-.072.749-.14 1.554-.121 2.446.007.356.046.715.086 1.072l.01.101.035.29.066.66c.093.918.175 1.73.336 2.467.411 1.948.84 3.845 1.554 5.631.373.953.883 1.935 1.256 2.652l.075.144.133.26.19.361c.437.85.95 1.729 1.568 2.688 1.194 1.882 2.833 3.796 5.01 5.85 1.062.99 2.296 1.989 3.884 3.14l.118.086.072.052c1.266.918 2.702 1.958 4.202 2.864.99.606 2.115 1.166 3.534 1.758-.013-.002-.026-.002-.039-.002l-.09.005c-.546.082-1.08.256-1.484.4-.607.19-1.133.437-1.708.716-.862.4-1.677.972-2.218 1.351l-.175.125c-.818.56-1.69 1.176-2.527 1.876-.755.628-1.464 1.402-2.165 2.366-.24.329-.469.664-.69 1.003-.32.467-.599 1.004-.907 1.739a5.663 5.663 0 00-.256.762l-.184.645-.198.7-.2.699c-.416 1.424-.844 2.888-.855 4.352l-.004.154c-.007 1.292-.015 2.628.064 3.98.094 1.675.397 3.21.903 4.563.372.995.852 1.982 1.353 2.99l.437.893.046.112.144.322c.368.825.723 1.613 1.106 2.381.409.803.889 1.58 1.468 2.377a21.169 21.169 0 004.28 4.473c.282.223.572.446.863.663l.16.125.19.144.83.634c.878.683 1.873 1.459 2.94 1.995.654.346 1.47.704 2.497 1.094l.389.157c.386.16.84.344 1.268.451.663.198 1.423.295 2.146.372l.14.012.143.014c.446.105.905.207 1.367.308l.429.096.118.026c2.949.647 5.526.983 7.88 1.025l.405.006c2.41 0 5.08-.416 7.934-1.238 2.417-.672 4.466-1.545 6.263-2.669 1.15-.718 2.109-1.327 3.101-2.092 1.23-.958 2.208-1.984 2.991-3.14.763-1.083 1.41-2.22 1.998-3.289 1.177-2.163 1.992-4.41 2.425-6.68.308-1.685.447-3.476.432-5.634-.02-2.642-.23-4.891-.637-6.877-.09-.482-.294-.939-.474-1.343l-.12-.275a45.422 45.422 0 00-.99-2.031c-.16-.302-.332-.595-.508-.887l-.197-.325a27.325 27.325 0 00-1.185-1.87c-1.05-1.552-2.098-2.829-3.204-3.907-.967-.92-2.1-1.663-3.373-2.47-.373-.238-.76-.451-1.154-.658.87-.157 1.918-.523 3.11-1.077 1.874-.842 3.27-1.548 4.526-2.293a74.222 74.222 0 005.374-3.515c.843-.6 1.578-1.158 2.312-1.758 3.273-.095 6.357-.238 11.048-.464l.107-.003 1.615-.08c2.153-.104 4.282-.252 7.055-.45l.197-.016.576-.043c.648-.049 1.278-.095 1.908-.134a1546.92 1546.92 0 0127.519-1.642l2.287-.122c.96-.05 1.915-.075 2.878-.102l1.368-.039 1.352-.046.315-.014a96.995 96.995 0 012.753-.072l2.116-.02.286-.003c1.958-.02 3.83-.036 5.694-.036a433.655 433.655 0 0112.614.17c2.695.066 5.388.152 8.079.24l1.013.037.748.023c3.036.102 6.071.2 9.103.27l3.39.082.773.016.973.02.492.01.482.01.196.003c3.625.082 9.104.205 14.068.272 12.402.151 25.38.263 39.676.341l.34.004h.884c5.383.03 12.084.07 18.338.282 5.68.171 11.817.518 19.314 1.094 3.813.284 6.881.486 9.951.657l3.598.188 2.742.14 2.688.142c3.408.184 6.747.364 10.084.572l.411.023.175.01.248.016.304.017c2.539.154 5.701.346 8.73.433l1.063.03c1.875.045 3.86.103 5.688.2l.369.02c.877.05 1.754.094 2.63.121l.352.016c.182.01.364.02.547.02.148 0 .291-.003.442-.023l.48-.059.504-.062.107-.05.175-.066.415-.167c.672.592 1.604 1.284 2.762 2.055 1.04.7 2.325 1.36 2.94 1.677 1.241.65 2.683 1.391 4.227 2.039a47.483 47.483 0 008.697 2.773c2.082.45 4.254.71 6 .92l.662.085c1.807.208 3.358.339 4.736.401l-.216.133-.51.58-.508.574a19.24 19.24 0 00-1.931 2.626 39.18 39.18 0 00-.962 1.689l-.233.42c-.672 1.193-1.259 2.315-2.073 3.867l-.09.17-.078.153-.39.74-.187.355-.182.348-.233.438c-.222.414-.44.83-.658 1.252-.583 1.133-1.014 2.31-1.358 3.312-1.817 5.287 1.386 10.378 3.457 12.943.782.954 1.75 2.057 2.98 3.01 1.18.926 2.272 1.635 3.343 2.17.93.478 2.126 1.093 3.298 1.543 1.064.427 2.32.905 3.768 1.184.962.165 1.764.284 2.6.387.912.112 1.95.217 3.085.315 1.072.08 2.02.123 2.896.132l.126.004c1.06 0 2.127-.141 3.07-.267l.107-.012.127-.014.477-.062c1.045-.146 1.994-.489 2.615-.733 1.204-.436 2.475-.904 3.613-1.413 2.108-.908 3.876-2.148 5.328-3.24 2.093-1.574 3.542-3.096 4.562-4.792 1.248-2.066 2.143-3.969 2.732-5.816.627-1.99.971-4.129 1.023-6.355.016-.646-.052-1.248-.164-2.175l-.054-.457c-.176-1.52-.37-2.753-.612-3.877-.128-.624-.368-1.225-.58-1.756l-.21-.535c-.5-1.27-1.17-2.464-1.813-3.578-.73-1.295-1.635-2.664-2.763-4.186-1.35-1.854-2.563-3.356-4.09-4.666a11.59 11.59 0 00-1.057-.795l.518-.19.846-.493c.945-.558 1.876-1.127 2.806-1.702a61.68 61.68 0 002.205-1.448l.305-.208c.656-.456 1.276-.89 1.866-1.35.475-.374.927-.868 1.17-1.135l.294-.315a27.623 27.623 0 002.911-3.693c1.252-1.879 2.488-4.163 3.227-5.528l.045-.086.082-.152.083-.15.09-.171c.705-1.33 1.453-2.756 2.147-4.271.996-2.198 1.742-4.567 2.281-7.245.1-.492.186-.992.269-1.492l.045-.272.158-.916c.31-1.793.592-3.538.644-5.192.016-.475-.063-.975-.12-1.342l-.04-.294-.026-.13a31.59 31.59 0 00-.39-2.276c-.13-.616-.323-1.225-.526-1.847l-.04-.122-.096-.295a84.084 84.084 0 00-1.063-3.003 263.986 263.986 0 00-1.661-4.34l-.107-.269-.222-.572a187.26 187.26 0 00-.999-2.512c-.447-1.118-.952-2.31-1.608-3.457a958.328 958.328 0 01-2.606-4.697c-.534-.971-1.073-1.916-1.78-2.787a19.58 19.58 0 00-2.434-2.544l-.591-.506.113.045h.005c1.678 0 3.12-.147 4.417-.447 1.295-.288 2.57-.867 3.594-1.332l.671-.308c2.542-1.12 5.089-2.56 8.256-4.668a89.885 89.885 0 007.936-6.022c1.912-1.624 3.621-3.426 5.5-5.444l.092-.102c1.738-1.875 3.692-3.984 5.448-6.205l.5-.624.868-1.105c.926-1.164 1.8-2.558 2.75-4.382 1.833-3.527 2.925-7.024 3.247-10.394.089-.942.158-1.84.207-2.73.018.603.096 1.215.172 1.791l.083.647c.239 1.895.508 3.72.802 5.421.135.795.307 1.587.482 2.392.136.61.273 1.228.39 1.85.305 1.588.577 3.174.842 4.768l.304 2.282.043.319c.076.552.121 1.104.164 1.652l.015.174.06.717c.094 1.018.154 2.055.209 3.021l.007.103.01.203.018.338.008.115.067 1.15c.032.518.06 1.008.083 1.497l.01.162.018.354.019.332c.05.845.103 1.706.182 2.553.155 1.637.34 3.25.565 4.931.474 3.677.853 7.265 1.17 10.34.173 1.725.355 3.574.498 5.41.122 1.58.233 3.167.336 4.75.058.864.112 1.72.165 2.585l.054.831.065 1.08c.121 2.011.243 4.01.39 5.999.053.714.11 1.423.171 2.133l.011 3.083c.004 2.996-.072 6.396-.232 10.394-.057 1.33-.147 2.66-.237 3.99l-.017.256-.011.177-.011.168-.01.132-.008.104c-.087 1.36-.17 2.646-.204 3.95l-.007.147-.004.092-.003.102v.099c-.043 1.325-.076 2.74-.03 4.116l.016.686c.01.559.024 1.127.075 1.67l.129 1.41c.085.96.193 1.822.649 2.614.12.215.302.407.525.554l-.179.282-.196.468-.18.387-.178.388-.054.11c-1.168 2.498-2.49 5.327-3.573 8.27a136.072 136.072 0 01-3.468 8.556 739.836 739.836 0 01-2.741 5.814l-.265.562c-1.046 2.2-2.347 4.94-3.537 7.562a660.478 660.478 0 01-1.578 3.252l-1.214 2.5c-.442.914-.85 1.736-1.375 2.542a69.32 69.32 0 01-1.757 2.486l-.127.133-.066.073c-.376.417-.84.929-1.34 1.428a64.465 64.465 0 01-2.478 2.375c-1.453 1.36-2.964 2.488-4.266 3.439-1.822 1.11-3.662 2.233-5.571 3.12-.247.111-.49.227-.739.344l-.254.126a49.31 49.31 0 01-2.183 1.001l-2.022.83-.934.388c-1.748.627-2.903 1.037-4.212 1.439l-.787.25a25.57 25.57 0 01-1.621.482l-.558.138-2.199.546-.533.131c-3.47.85-6.978 1.411-10.073 1.906l-.37.055c-1.881.217-4.076.46-6.318.601-2.788.184-5.577.342-8.369.493-3.033.18-6.305.292-9.671.401l-1.547.056-3.06.112c-5.962.25-11.964.44-18.349.58-.593-.904-1.426-1.807-2.096-2.534l-.56-.613a154.105 154.105 0 00-5.956-6.14 112.48 112.48 0 00-2.91-2.676c-1.055-.926-2.173-1.924-3.203-2.957a118.365 118.365 0 01-3.397-3.455c-.739-.767-1.466-1.618-2.091-2.355l-1.636-1.971-.15-.178-.226-.272-.06-.072c-1.338-1.605-2.883-3.465-4.27-5.233-.637-.818-1.26-1.643-1.883-2.47l-.33-.437c-1.33-1.782-2.761-3.68-4.357-5.565-1.406-1.655-2.928-3.214-4.398-4.722l-.18-.183-.415-.417a181.812 181.812 0 01-1.98-2.04c-.533-.559-1.07-1.12-1.61-1.675-.547-.548-1.088-.922-1.662-1.318-.41-.288-.772-.422-1.17-.557l-.282-.096-.23-.078a3.223 3.223 0 00-1.234-.22c-.316 0-.644.039-.939.074l-.422.05-.445.057a4.621 4.621 0 00-.23.065 3.223 3.223 0 01-.265.095l-.247.066a69.81 69.81 0 01-3.426.069c-.383 0-.766 0-1.145-.004l-.57-.006-1.328-.01a300.588 300.588 0 01-7.448-.137c-4.815-.12-9.708-.296-14.544-.523-10.3-.453-20.514-.621-29.28-.742l-2.71-.033-.799-.01-.436-.003-.437-.006c-6.463-.078-15.315-.183-23.818-.401a509.567 509.567 0 01-9.432-.303l-2.445-.087-2.448-.087a546.46 546.46 0 00-15.112-.26c-1.18 0-2.359-.013-3.54-.026l-.609-.01-.694-.01-.644-.006-.637-.007-.642-.006-.637-.007-.64-.003a170.632 170.632 0 00-6.035.013c-3.05.063-6.1.132-9.146.2l-2.252.05-3.3.075c-1.44.033-2.874.086-4.31.138-1.084.043-2.122.082-3.16.108a63.57 63.57 0 01-2.12.033c-1.36 0-2.729-.024-4.309-.075l-.208-.006-.175-.007c-.29-.007-.572-.017-.862-.03l-.2-.01-.177-.006-.178-.007-.194-.003c-.254-.01-.508-.02-.766-.02-.703 0-1.3.048-1.881.152-1.416.256-2.608 1.198-3.27 2.583a63.456 63.456 0 01-1.085 2.124l-.437.839c-.84 1.618-1.589 3.414-1.948 4.277l-.192.453-.202.473-.29.667-.912 1.905-.075.158-.072.151-.107.226c-.846 1.758-1.668 3.479-2.424 5.204a132.635 132.635 0 00-2.315 5.71l-.09.232c-.265.686-.526 1.353-.79 2.02a307.46 307.46 0 01-1.751 3.68l-.323.67-.533 1.123-.04.079-.053.115c-.524 1.116-1.177 2.505-1.918 3.777-2.295 3.959-4.423 7.129-6.696 9.978a82.166 82.166 0 01-3.906 4.197c-.67.696-.946 1.611-.74 2.451-.456-.104-.959-.124-1.475-.137l-.551-.027c-1.808-.05-3.572-.168-5.208-.289l-.154-.012-1.593-.112c-2.42-.162-4.84-.326-7.259-.503a661.084 661.084 0 01-11.068-.89 213.297 213.297 0 01-4.592-.447l-.304-.03-.197-.019-.451-.043c-1.596-.16-3.247-.325-4.854-.45-7.69-.546-15.489-1.457-21.183-2.122-1.701-.208-3.53-.45-5.365-.818a39.34 39.34 0 01-5.343-1.478c-1.492-.643-2.936-1.45-3.893-2a243.835 243.835 0 01-3.06-1.787l-1.665-.975c-.587-.345-1.17-.69-1.75-1.045-1.347-.808-2.092-1.253-2.993-1.747-1.09-.605-2.243-1.254-3.328-1.964a98.224 98.224 0 01-5.851-4.815l-.591-.523c-.765-.668-1.6-1.397-2.369-2.223a97.56 97.56 0 01-2.907-3.186 158.683 158.683 0 01-7.022-9.145c-1.34-1.91-2.438-3.509-3.36-5.245a32.63 32.63 0 01-.63-1.267l-.075-.151-.101-.21-.393-.838-.24-.473-.23-.45a35.17 35.17 0 01-.493-.992l-.219-.476a312.491 312.491 0 00-1.718-3.7c-.431-.96-.847-1.905-1.192-2.876-.229-.628-.4-1.362-.503-1.8l-.03-.137-.111-.489-.025-.103-.025-.101a15.6 15.6 0 01-.275-1.395l-.136.296.021-1.068a41.286 41.286 0 00-.11-.756l-.015-.093a3.356 3.356 0 00-.95-1.541 4.059 4.059 0 00-.238-.191c.025-.155.017-.25.01-.337a140.208 140.208 0 00-.3-3.488 95.05 95.05 0 00-.34-2.88c-.018-.411-.04-.825-.061-1.239a372.31 372.31 0 01-.244-5.711l-.02-.565-.059-1.46-.078-2.007c-.09-2.21-.2-4.418-.311-6.622l-.011-.168-.007-.102-.005-.09c-.202-4.1-.411-8.34-.472-12.46a217.76 217.76 0 01.047-9.08c.05-2.208.124-4.033.222-5.58.05-.83.122-1.662.193-2.493l.04-.453c.039-.447.075-.894.108-1.34.085-1.16.16-2.32.231-3.477v-.125l.05-.685c.097-1.492.23-3.454.416-5.41l.125-1.344.022-.233.05-.562c.261-2.809.49-5.278.69-7.792l.198-2.539.047-.562.01-.13.007-.086c.161-2.073.315-4.083.44-6.095l.093-1.504.011-.178.015-.223.014-.216.024-.395c.109-1.811.256-4.294.338-6.567.035-1.067.056-2.131.078-3.198 0 .391.155.747.39 1.244l.136.293.076.157c.894 1.996 1.91 4.148 3.276 6.347.802 1.305 1.784 2.66 2.432 3.557.438.602.764 1.06 1.09 1.518l.62.898c.353.518.7 1.024 1.066 1.52.802 1.102 1.72 2.195 2.53 3.16l.065.077c.467.544.958 1.063 1.504 1.636l.071.078.07.07.114.121.353.372c.728.752 1.502 1.47 2.439 2.329.684.615 1.4 1.33 2.186 2.187a53.092 53.092 0 001.552 1.557l.066.067.18.177.204.2.183.174.089.085c.65.622 1.232 1.187 1.786 1.81.981 1.15 1.945 2.266 2.942 3.295 1.118 1.116 2.368 2.215 4.053 3.565l.243.191.258.2.447.348.233.181.808.856.082.086.069.066c.287.285.501.5.72.706.358.32.755.599 1.096.828.256.166.525.269.81.375l.273.096c.28.078.543.115.784.115zm61.566-85.472c-4.995 0-8.269-.02-10.945-.07-6.203-.084-12.407-.146-18.613-.206l-8.695-.092a200.338 200.338 0 01-5.29-.129l-.198-.005-.88-.027-.88-.026-.516-.016c-.002-.563-.125-1.15-.244-1.717l-.12-.573c-.143-1.314-.164-2.618-.175-3.95-.014-1.593-.02-3.19-.024-4.782-.015-3.799.003-6.936.056-9.875.119-6.906.898-13.792 1.565-19.019l.279-2.174c.19-1.278.376-2.555.562-3.833.553-3.635 1.03-6.666 1.71-9.815.437-2.008.981-4.115 1.418-5.807l.037-.142c.296-1.145.59-2.287.869-3.432l.69-2.871c.551-2.3 1.116-4.66 1.722-6.968.361-1.383.735-2.76 1.11-4.14l.057-.215c.423-1.562.84-3.102 1.242-4.641 1.392-5.343 3.296-10.697 5.659-15.915l.175-.351.061-.122c.491-.982 1-1.997 1.567-2.962a62.09 62.09 0 011.4-2.218l.119-.183c.282-.43.565-.861.837-1.294l.299-.06c.59-.124 1.187-.249 1.782-.367.518-.101 1.037-.207 1.558-.314l.164-.034a113.99 113.99 0 013.69-.719l.179-.033c3.378-.59 6.976-1.216 10.559-1.8a759.334 759.334 0 0110.592-1.633 787.84 787.84 0 0111.375-1.596c13.39-1.315 27.31-2.308 42.556-3.035 6.753-.328 13.624-.44 20.269-.548l1.64-.027c5.117-.088 10.323-.301 14.916-.49l1.257-.05c1.31-.053 2.623-.106 3.933-.153a937.5 937.5 0 003-.125l.38-.016c2.307-.096 4.693-.197 7.034-.243l1.968-.043.223-.004a635.004 635.004 0 0115.691-.167c4.759 0 9.8.032 15.879.102 2.46.028 4.954.097 7.098.16l2.404.065.878.025c3.49.086 6.901.177 10.29.334l5.063.227c5.007.22 10.683.47 16.186.808 1.006.06 2.012.118 3.021.174l.155.009c2.276.132 4.63.268 6.939.455l3.619.292c2.52.203 5.04.408 7.556.614 7.57.615 15.541 1.347 21.946 1.935 4.767.435 9.884.923 14.995 1.543 2.465.296 5.334.635 8.189.904 2.75.25 5.026.483 7.163.733 2.305.303 4.178.611 5.894.969a97.54 97.54 0 013.204.725c.617.15 1.242.284 1.866.417l.253.053c.14.206.315.392.515.55 2.548 2.022 5.84 4.743 8.704 7.873.724.954 1.33 1.95 1.853 3.047.78 1.629 1.443 2.97 2.09 4.221.365.702.756 1.391 1.146 2.08.35.618.7 1.234 1.03 1.862a102.407 102.407 0 011.784 3.574c1.537 3.497 2.609 6.477 3.374 9.376.97 3.68 1.67 7.441 2.252 10.679a324.634 324.634 0 002.115 10.824c.751 3.494 1.674 7.007 2.477 9.983.882 3.262 1.596 6.61 2.287 9.849l.516 2.407a203.814 203.814 0 012.213 11.95c.173 1.215.364 2.428.557 3.641l.23 1.463c.111.815.206 1.63.3 2.447.065.573.132 1.147.205 1.721.118.948.268 1.96.684 2.998.121.309.232.617.328.932l-.014.194-.014.198c-.024.32-.042.645-.06.966-.046.843-.084 1.656-.123 2.466-.022.477-.032.88-.039 1.282l-3.213-.008h-2.792c-3.99 0-7.979.01-11.966.019l-3.01.003-3.004.007-3.028.007-2.398.006c-5.853.016-11.708.043-17.565.07h-.214l-1.268.005c-9.77.052-18.537.076-27.587.076H351.7l-2.505-.003-.266-.004c-3.632-.002-7.678-.06-12.367-.176l-1.32-.027c-3.687-.073-7.378-.131-11.064-.187l-1.611-.027c-.462-.006-.928-.01-1.39-.01-1.062 0-2.13.017-3.188.034l-.58.009-.42.007c-.425.006-.851.01-1.277.01-1.676.013-3.347.03-5.022.065-4.731.114-9.296.186-14.368.227-6.712.079-13.62.102-20.085.115l-.247.003-.257.004-.251.003-.265.003-.28.004-.26.003h-.28l-.391.002c-9.14.038-19.498.082-29.429.257l-1.485.027c-1.404.023-2.803.045-4.206.098l-1.823.08c-1.528.068-3.05.13-4.574.163l-2.055.043-.21.006-.881.02-.28.007c-3.721.085-6.629.14-9.625.157-2.538.033-5.083.06-7.624.086h-.576l-2.947.026c-5.562.05-11.129.102-16.69.174-2.009.03-4.017.08-6.021.128-1.859.05-3.698.092-5.541.119-4.509.075-9.363.105-14.354.13-8.212.044-16.423.066-24.638.09l-5.373.02c-3.35.016-6.704.029-10.055.029zM94.18 128.536l.735-1.114.738-1.143c.26-.3.517-.593.769-.893l1.163-1.363a243.15 243.15 0 001.93-2.267 253.36 253.36 0 014.645-5.282l.928-1.034c1.31-1.468 2.653-2.97 4.14-4.303.988-.884 1.984-1.763 2.982-2.644.928-.818 1.854-1.636 2.774-2.46a26.11 26.11 0 001.368-1.342l.093-.095c.299-.307.598-.614.909-.909a33.662 33.662 0 012.494-2.174c1.197-.77 2.582-1.458 4.49-2.23a114.007 114.007 0 0111.719-3.58c7.367-1.151 13.037-2.029 18.916-2.827a881.384 881.384 0 0124.744-2.497c8.195-.741 16.072-1.18 25.518-1.679 1.32-.069 2.642-.17 3.963-.275.698-.06 1.378-.115 2.058-.161 2.159-.163 4.313-.276 6.164-.368 1.081-.056 2.158-.109 3.24-.161l1.635-.076 1.2-.059.092-.006c2.374-.116 4.754-.233 7.124-.362 4.11-.237 8.117-.392 12.553-.555 1.333-.048 2.656-.11 3.982-.171 2.793-.138 5.714-.265 8.491-.296 2.736-.026 5.47-.045 8.204-.062l5.13-.04c1.897-.015 3.77-.062 5.803-.114l.236-.003.383-.007c2.004-.053 3.984-.098 5.964-.122 5.637-.055 11.356-.055 14.428-.055h2.263c4.556.134 8.046.22 11.31.286 3.704.068 8.09.162 12.536.338 2.37.092 4.736.194 7.102.296 2.358.101 4.717.203 7.077.298l2.73.109.13.005c3.183.123 6.475.25 9.707.451l.547.033c3.79.232 7.708.473 11.597.913.575.077 1.153.157 1.73.236l.797.11c1.328.187 2.657.37 3.988.538.629.083 1.255.17 1.882.257l.154.022c1.334.19 2.754.389 4.16.549l.444.065.314.046c.443.064.886.128 1.333.185.347.043.694.091 1.04.14.42.063.835.122 1.254.172.154.016.309.022.46.022.322 0 .644-.03.962-.062a5.91 5.91 0 00.499-.03 11 11 0 011.374.794c.534.403 1.041.827 1.543 1.254l.1.08.469.393.182.151a82.8 82.8 0 012.252 1.912c1.341 1.173 2.878 2.637 4.696 4.477.798.801 1.593 1.603 2.384 2.408.668.668 1.268 1.366 1.825 2.023l.5.577 1.254 1.43.615.7.627.713.383.44.87 1.004c1.932 2.489 4.032 5.349 6.807 9.273 1.817 2.575 3.525 5.348 5.031 7.794l.11.178.092.15.061.1.308.499a1.026 1.026 0 00-.274-.163c-1.627-.765-3.392-1.271-5.1-1.76l-.436-.122c-3.519-1.01-7.046-1.696-10.65-2.366-.744-.138-1.486-.273-2.232-.409l-.896-.162c-.845-.151-1.693-.306-2.538-.463-2.197-.405-4.368-.684-6.232-.914-3.854-.472-7.79-.92-11.526-1.344l-.949-.108c-3.018-.341-6.096-.64-9.073-.93l-.7-.069-1.84-.18a648.502 648.502 0 01-6.593-.683l-1.54-.163c-1.046-.11-2.094-.223-3.141-.33-1.357-.137-2.71-.28-4.064-.424-2.465-.262-4.9-.519-7.338-.748a150.73 150.73 0 01-1.731-.169 115.08 115.08 0 00-4.024-.351l-1.996-.12-.13-.008-.498-.03c-1.151-.068-2.302-.136-3.454-.223a2907.02 2907.02 0 01-12.818-.965l-.663-.05c-3.134-.246-6.686-.524-10.12-.624a554.63 554.63 0 00-15.398-.21c-2.696 0-5.395.02-8.093.053-1.908.022-3.813.042-5.721.062l-.261.002c-5.541.055-11.271.112-16.899.28-8.211.252-16.422.559-23.37.825-4.41.167-8.824.322-13.237.466-3.29.107-6.95.225-10.496.473-8.154.582-16.308 1.153-24.462 1.711-7.3.503-14.688 1.333-21.832 2.136l-.143.016-1.378.155c-3.806.432-7.48.728-11.887 1.07-3.503.278-7.23.634-11.731 1.124-7.564.832-15.37 1.91-23.864 3.295-3.874.634-7.63 1.417-11.459 2.23a96.345 96.345 0 00-3.62.87l-.15.037c-.562.146-1.125.287-1.687.429-.341.085-.653.168-.96.254zm132.482-50.949c-4.275 0-7.79.095-11.058.3a385.41 385.41 0 00-17.121 1.484l-.307.035c-5.468.6-11.666 1.281-17.742 2.08-4.4.524-8.8.844-12.14 1.065-2.367.158-4.353.31-6.347.535-1.658.193-3.345.442-4.833.661a234.1 234.1 0 01-2.183.316 189.29 189.29 0 00-11.642 2.02c-4.228.867-8.35 1.739-12.293 2.87-4.13 1.182-7.775 2.438-11.143 3.841-.276.115-.548.233-.817.358-.58.101-1.348.244-2.124.45-1.47.35-2.81.845-3.986 1.472-.514.262-1.056.64-1.61 1.125-.299.265-.565.588-.802.873l-.394.48c-.165.192-.325.385-.483.576-.741.87-1.499 1.718-2.259 2.562l-.196.22-1.206 1.344a322.478 322.478 0 00-4.146 4.852l-.089.108c-1.722 1.706-3.351 3.529-4.925 5.291a299 299 0 01-1.83 2.03 227.072 227.072 0 00-3.612 4.113 216.716 216.716 0 01-3.507 3.991c-1.41 1.557-2.87 3.167-4.152 4.873-1.182 1.569-2.177 3.305-3.055 4.836l-.14.24-.143.25-.075.13c-.596.21-1.198.427-1.799.647-.673.245-1.196.526-1.565 1.104a2.243 2.243 0 00-.262 1.856c.147.501.484.955.948 1.28-.92 1.69-1.81 3.408-2.702 5.13-.873 1.68-2.001 3.907-2.985 6.222-.32.746-.63 1.494-.94 2.243l-.217.523c-.39.949-.783 1.898-1.184 2.841l-1.146 2.683c-1.135 2.646-2.422 5.646-3.586 8.614-.648 1.64-1.328 3.395-1.901 5.204-.48 1.497-.931 3.036-1.39 4.611l-.328 1.127a230.7 230.7 0 01-.988 3.249c-.808 2.618-1.64 5.318-2.213 8.026-.397 1.869-.706 3.779-.991 5.574a165.1 165.1 0 01-.745 4.152l-.265 1.423c-.571 3.126-1.219 6.764-1.69 10.37-.22 1.677-.357 3.353-.461 4.77-.065.852-.09 1.71-.114 2.566a76.84 76.84 0 01-.087 2.214c-.186 3.01-.454 6.116-.69 8.856l-.172 2.007c-.307 3.601-.384 7.333-.452 10.626l-.087.046a3.09 3.09 0 00-.238.142 160.185 160.185 0 00-7.843 5.447c-1.663 1.221-3.37 2.682-5.373 4.596-1.214 1.052-2.446 2.176-3.45 3.091l-.09.082-.226.203-.176.162-.243.223c-1.203 1.117-2.59 2.43-3.827 3.893-.355.42-.702.848-1.046 1.275l-.407.413-.415.417c-1.292 1.307-2.24 2.434-2.986 3.546-.11.152-.208.337-.284.534a3.255 3.255 0 00-1.95 1.434 15.279 15.279 0 00-1.988 4.999 100.3 100.3 0 00-.837 4.33c-.602 3.563-.935 6.773-1.017 9.813l-.05 1.905c-.069 2.55-.136 5.095-.236 7.647a242.64 242.64 0 00-.133 4.018l-.007.285-.007.2-.018.563a214.84 214.84 0 01-.165 4.516c-.1 1.954-.21 3.908-.325 5.863l-.029.506-.015.23-.014.253c-.232 4.126-.472 8.394-.583 12.818a374.657 374.657 0 01-.133 4.06l-.007.157c-.075 2.047-.14 3.878-.16 5.572-.04 2.32.035 4.876.085 6.567l.003.134.008.21.01.349.057 2.042c.029 1.127.066 2.254.105 3.381l-.033 1.573-.025 1.226-.003.137-.008.392v.095c-.047 2.303-.09 4.75-.043 7.138l.011.552c.023 1.325.054 2.87.14 4.427l.068 1.34.068 1.341c.028.53.086 1.059.147 1.585l.014.127c.036.28.068.559.096.835a116.1 116.1 0 00.605 4.832l.032.24.026.197.025.167.129.979.136 1.008.11.839c.115 2.334.24 4.67.38 7.002.033.536.086 1.078.147 1.61l.072.716.006.093c.085.921.172 1.875.398 2.756.04.188.115.379.22.55-.138 1.348-.267 2.926-.066 4.541.14 1.158.381 2.287.72 3.359.16.51.362 1.001.655 1.68l.258.607c.207.495.411.992.612 1.487l.082.2.06.148c.326.796.652 1.588 1.007 2.37.336.736.648 1.477.96 2.223l.032.082.071.174.053.132c.37.873.849 2.004 1.38 3.048.907 1.792 2.187 3.588 3.433 5.261a97.34 97.34 0 002.409 3.133l1.206 1.544a158 158 0 004.682 5.707c.716.82 1.45 1.61 2.083 2.282.43.452.896.907 1.458 1.436a.606.606 0 00-.07-.006c-.073 0-.103.026-.129.046-.556.514-.827 1.12-.91 2.03-.075.82-.1 1.628-.125 2.6l-.008.177c-.01.482-.024.968-.043 1.455l-.071 1.579-.01.217-.007.178-.004.148c-.032.663-.062 1.32-.086 1.974-.075 2.379-.068 4.713-.06 6.97v.257l.007 1.442v.897l.002.114c.015 5.61.037 11.09.144 16.455.06 3.01.22 5.95.393 8.947.069 1.213.13 2.421.19 3.634l.033.676c.071 1.482.143 2.92.235 4.36.25 4.246.263 8.436.273 12.134.003 1.715.007 3.238.025 4.763.018 1.517.036 2.995.06 4.477l.008.627c.017 1.282.038 2.877.222 4.367 0 .55.151 1.06.449 1.517.22.355.508.655.858.89.383 1.311.688 2.44.93 3.444l.204.85c.466 1.94.947 3.936 2.016 5.726.232.392.509.758.774 1.097l.226.29c.336.44.648.837.984 1.218.837.932 1.537 1.699 2.295 2.402 1.769 1.613 3.761 2.975 5.993 4.462 1.198.798 2.173 1.359 3.07 1.765a46.258 46.258 0 003.98 1.645 27.53 27.53 0 003.625 1.033c1.23.25 2.505.42 3.631.57l.182.025.276.036.103.009c2.904.357 5.616.572 8.062.637a91.525 91.525 0 004.428.013 55.333 55.333 0 002.782-.147l.222-.014.666-.042c1.292-.092 2.58-.19 3.865-.308 1.381-.136 2.83-.395 4.43-.796 1.196-.277 2.456-.672 3.208-.906l.103-.033.273-.086.912-.279a81.217 81.217 0 002.521-.798c.67-.22 1.445-.488 2.116-.816.48-.216 1.002-.498 1.69-.916.445-.267.852-.544 1.405-.93.713-.506 1.267-.898 1.74-1.405l.193-.207.108-.115.079-.088c.114-.125.225-.247.333-.374l.06-.07.065-.078c.847-1.01 1.723-2.054 2.392-3.184.63-1.046 1.186-2.25 1.704-3.678.672-1.89 1.154-3.98 1.519-6.575.219-1.57.476-3.63.522-5.62h.017c.07 0 .148-.047.252-.143.315-.281.379-.617.415-.908.05-.532.086-1.071.121-1.61l.011-.131c.019-.322.036-.608.057-.89l.011-.168c.047-.641.094-1.285.107-1.925l.04-1.991c.018-.894.036-1.784.061-2.674.079-3.003.143-6.005.204-9.004.066-3.074.104-6.217.114-9.342.011-3.034.011-6.269-.114-9.51-.05-1.282-.121-2.56-.196-3.844l-.015-.273c-.097-1.602-.193-3.303-.222-4.936-.065-2.968.132-6.041.322-8.688.087.26.414.425.817.425.361 0 .71-.129.984-.364l.25.055c2.871.26 5.86.5 8.632.72l.51.042.92.076.402.033.776.062 3.76.296c2.965.228 5.551.385 7.906.48 2.026.082 4.086.085 6.079.088l1.492.003 4.753.02h.714c8.134.03 16.544.06 25.045.332 2.32.075 4.639.177 6.954.282l.526.024.724.03.29.008c2.008.086 4.06.172 6.11.238 6.476.17 11.187.25 14.826.25l.456-.004c9.22-.007 18.593-.186 27.657-.36l.095-.002.576-.01 2.333-.04c3.337-.067 6.622-.173 9.52-.265l.604-.02 1.048-.036.383-.013.165-.007a714.059 714.059 0 0113.157-.355l.745-.012c1.994-.04 3.987-.08 5.981-.129 8.29-.2 16.58-.377 24.867-.552l.927-.019.812-.02c9.06-.193 22.515-.49 34.733-.817 7.076-.2 14.352-.361 20.535-.493l1.052-.024 1.181-.022.499-.014.5-.013.463-.013.45-.01.444-.01c12.065-.265 24.54-.54 37.02-1.028-.103.136-.114.364-.125.583l-.042.804c-.05.999-.105 1.997-.176 2.996-.109 1.586-.203 3.44-.286 5.667l-.072 1.823c-.063 1.379-.072 2.758-.075 4.419l-.003.253c0 .968-.004 1.937-.022 2.907l-.015.634-.003.223c-.044 2.156-.092 4.54.033 6.875.039.806.087 1.613.138 2.42l.037.615c.1 1.597.193 3.12.25 4.649.113 3.026.247 5.839.412 8.596.1 1.814.282 3.715.43 5.244l.036.354.02.197.025.263.03.286.128 1.307c.058.569.158 1.173.255 1.74l.124.77c.09.618.173 1.172.3 1.71a97.555 97.555 0 001.11 4.354c.177.631.359 1.265.541 1.896l.162.558c.25.907.561 2.036 1.146 3.002.069.102.14.201.219.306-.006.452.125.873.366 1.183 2.103 2.58 4.375 5.313 6.97 7.861.587.556 1.054.952 1.468 1.246l.107.076c.418.3.87.618 1.387.898.307.163.628.304.95.445l.167.07.608.28c.466.216.935.432 1.41.623 1.094.44 2.116.805 3.127 1.121 1.355.44 2.826.9 4.396 1.268 1.603.393 3.328.686 5.273.897 1.805.185 3.558.282 5.199.365 1.582.069 3.116.131 4.49.131h.11c1.526-.003 3.035-.212 4.496-.413l.123-.018.115-.012.114-.014.115-.012.3-.043c1.54-.23 3.005-.535 4.35-.907 1.296-.335 2.793-.738 4.172-1.282 1.76-.671 3.332-1.467 4.79-2.223l.493-.257.348-.18c.3-.155.608-.316.905-.477.72-.385 1.483-.879 2.4-1.555.922-.68 1.84-1.508 2.98-2.68 1.054-1.097 1.994-2.326 2.681-3.224l.28-.365c.4-.497.738-1.123.92-1.46.33-.617.801-1.54 1.092-2.432.31-.983.294-1.99.236-2.844-.02-.332-.054-.657-.086-.983l-.043-.496c-.017-.21-.04-.42-.068-.633a11.48 11.48 0 00-.082-.57l.007-.53.011-.546c.029-1.158.06-2.318.096-3.474.05-1.623.13-3.243.212-4.863l.025-.489.082-1.57c.058-1.13.083-2.266.108-3.403l.007-.345c.025-1.186.05-2.365.103-3.541l.026-.555c.104-2.224.203-4.445.269-6.675.039-1.31.092-2.618.153-3.928.05-1.137.176-2.195.297-3.219l.054-.463c.054-.483.114-.97.175-1.452.087-.667.168-1.337.24-2.008l.086-.78.01-.116c.086-.758.172-1.566.215-2.372.07-1.421.126-2.696.133-3.906.004-.864-.003-1.72-.01-2.582l-.005-.89a865.887 865.887 0 01-.007-7.73l.004-.814v-.25c.008-1.067.014-2.039.003-3.01-.017-1.688-.082-3.218-.164-5.045-.082-1.763-.264-3.616-.576-5.831l.093-.764.097-.778.056-.453c.033-.224.055-.395.072-.569.022-.2.026-.408.011-.62a8.56 8.56 0 00.852-.543l.093-.063.144-.098.16-.115.401-.283c2.203-1.542 4.174-3.156 5.858-4.796 1.911-1.874 3.751-3.73 5.237-5.85l.055-.07.053-.076c.395-.56 1.13-1.603 1.676-2.584a93.788 93.788 0 001.5-2.855 138.49 138.49 0 003.372-7.105 595.22 595.22 0 012.323-5.281 549.326 549.326 0 003.164-7.23c1.747-4.13 2.785-8.508 3.494-11.86l.2-.89.086-.389.093-.41.029-.118.028-.122.019-.085c.19-.823.542-2.352.751-3.74.212-1.407.364-2.69.082-4.121-.066-.375-.184-.765-.379-1.263-.12-.292-.274-.6-.53-1.065-.22-.42-.527-.777-.878-1.168a1.967 1.967 0 00-.119-.119c.469-.087.86-.386 1.073-.808l.039-.082.036-.08c.24-.37.36-.784.36-1.228.036-.255.062-.443.066-.634l.003-.108c.007-.144.014-.292.01-.437-.01-.427-.024-.855-.056-1.282a99.505 99.505 0 00-.23-2.605c-.132-1.3-.225-2.601-.318-3.906l-.075-1.074a296.586 296.586 0 00-.509-5.978l-.068-.785c-.092-1.015-.186-2.03-.268-3.045-.125-1.482-.258-2.96-.397-4.438l-.032-1.201c-.054-1.922-.126-3.84-.208-5.76-.036-.781-.075-1.567-.118-2.345l-.018-.293-.04-.693-.057-1.163a324.452 324.452 0 00-.447-7.939 497.862 497.862 0 00-.23-4.671 170.845 170.845 0 01-.146-3.622l-.003-.115c-.072-2.083-.158-4.292-.351-6.39l-.054-.585-.033-.358-.024-.263-.022-.25-.021-.184c-.022-.22-.043-.433-.068-.65l-.079-.644a36.68 36.68 0 01-.193-1.866 120.983 120.983 0 01-.261-5.294c-.076-2.52-.072-5.03-.07-7.457v-.604l.004-2.014v-1.478c0-1.156 0-2.31-.032-3.462a50.268 50.268 0 00-.146-2.494 30.489 30.489 0 00-.104-.995l-.025-.227c-.054-.43-.1-.824-.132-1.215a89.608 89.608 0 01-.165-2.382l-.018-.292c-.139-2.469-.282-5.02-1.027-7.515-.25-.796-.52-1.54-.802-2.21-.435-.971-.809-1.773-1.326-2.535a2.71 2.71 0 00-.197-.276l-.129-.162-.064-.078-.108-.132c-.027-.873-.3-1.461-.678-2.278a5.414 5.414 0 00-.568-.806c-.383-.47-.812-.963-1.353-1.554-.46-.494-.964-.988-1.582-1.554l-.745-.837a54.371 54.371 0 00-4.707-4.64 77.368 77.368 0 00-6.684-5.23c-3.155-2.19-6.934-4.127-11.893-6.094l-.968-.634-.991-.637a117.58 117.58 0 00-2.14-1.324l-.595-.364-.168-.105a28.564 28.564 0 00-.792-.483c.166-.238.237-.566.208-.936a34.684 34.684 0 00-.276-1.995l-.064-.44c-.508-3.64-1.083-7.582-1.85-11.744-.62-3.295-1.451-6.783-2.001-9.09l-.058-.243-.064-.272-.402-1.702c-.718-3.012-1.611-6.285-2.265-8.675l-.1-.375-.065-.23-.071-.262-.494-1.804c-.674-2.463-1.335-4.927-1.994-7.394l-1.181-4.415c-2.135-7.934-4.813-15.622-7.389-22.748a155.812 155.812 0 00-1.528-3.95l-.393-.99a349.666 349.666 0 00-2.396-5.934c-1.51-3.609-3.19-7.405-5.282-11.95a143.643 143.643 0 00-1.665-3.43l-.705-1.439-.126-.253a326.82 326.82 0 00-2.627-5.26c-.55-1.07-1.178-2.15-1.733-3.103l-.057-.1-.05-.082-.08-.13-.078-.135-.05-.08-.118-.2-.319-.542c-.179-.302-.355-.6-.53-.903a334.752 334.752 0 00-2.942-5.055c-.696-1.191-1.408-2.3-2.499-3.985l-.078-.115-.645-.998a287.274 287.274 0 00-3.063-4.656 64.548 64.548 0 00-2.041-2.858l-.093-.128-.18-.24-.25-.341-.06-.082-.748-1.012a150.873 150.873 0 00-3.694-4.918c-1.235-1.582-2.709-3.212-3.685-4.29l-.14-.16-.11-.126a170.45 170.45 0 01-1.747-1.944c-1.951-2.213-4.054-4.269-5.87-6.022a116.205 116.205 0 00-6.24-5.552l-.19-.158c-.953-.792-2.026-1.684-3.22-2.287a6.602 6.602 0 00-1.02-.434 4.232 4.232 0 00-1.227-1.116c-.845-.52-1.556-.835-2.304-1.023a22.004 22.004 0 00-1.59-.322 83.583 83.583 0 00-3.472-.516c.035.027.074.033.112.04-2.108-.312-4.305-.662-6.244-.97l-.433-.068c-1.589-.25-3.18-.5-4.771-.726-4.486-.634-9.096-.924-13.554-1.203l-.412-.026c-3.712-.232-7.526-.369-10.891-.49l-1.675-.062c-2.037-.075-4.078-.156-6.118-.237-2.72-.108-5.39-.213-8.061-.312-4.219-.155-8.337-.22-12.537-.279-4.867-.066-9.613-.184-14.056-.298-1.975-.05-4.141-.073-6.819-.073-1.407 0-2.813.006-4.22.013l-2.427.007c-4.291.01-8.584.017-12.872.022h-.279a4580.033 4580.033 0 01-27.05-.016 590.837 590.837 0 01-6.912-.072l-.39-.005c-2.553-.034-5.183-.07-7.771-.07z"/><path d="M178.64 208.463a9.022 9.022 0 01-.276.037c.09-.014.182-.023.276-.037m8.844-7.275a279.97 279.97 0 00-3.171.04c-3.951.055-7.857.508-11.726 1.244-3.518.667-6.998 1.475-10.413 2.503a54.145 54.145 0 00-5.38 1.958c-1.62.683-3.179 1.488-4.74 2.283-1.506.765-2.938 1.632-4.38 2.493-.38.225-.755.454-1.127.687 1.279.738 2.566 1.464 3.865 2.178.835.457 1.684.898 2.532 1.338a67.435 67.435 0 016.907-3.254c2.892-1.074 5.874-1.865 8.91-2.526 2.963-.64 5.956-1.153 8.97-1.55a83.293 83.293 0 015.802-.293c2.062-.04 4.195-.059 6.257.122 2.255.348 4.518.834 6.715 1.376 2.499.618 4.983 1.272 7.46 1.958 2.287.637 4.582 1.252 6.808 2.05 2.209.798 4.403 1.625 6.597 2.464 1.582.627 3.157 1.274 4.667 2.03a64.882 64.882 0 016.271-3.262 160.62 160.62 0 002.314-1.068c-.67-.538-1.365-1.045-2.135-1.465a41.102 41.102 0 00-2.576-1.271c-1.854-.841-3.801-1.544-5.727-2.23-3.562-1.272-7.095-2.645-10.768-3.62-1.797-.48-3.6-.937-5.405-1.397-1.875-.476-3.754-1.001-5.659-1.376a185.557 185.557 0 00-5.702-1.045 34.7 34.7 0 00-3.021-.361c-.272-.02-.545-.03-.816-.03-.444 0-.891.02-1.329.024m-55.277 23.982c-.064.076-.13.155-.194.227-.644.762-1.288 1.517-1.929 2.283-1.69 1.967-3.436 4.024-4.159 6.48-.333 1.138-.465 2.353-.462 3.53 0 .61.01 1.218.025 1.826.036 1.613.225 3.156.57 4.736.235 1.074 1.61 1.682 2.701 1.406 1.214-.309 1.765-1.403 1.533-2.477a64.39 64.39 0 01-.258-1.206c-.179-1.599-.137-3.231.025-4.832.118-.587.28-1.15.501-1.71.43-.809.948-1.57 1.528-2.297 1.45-1.676 3.009-3.283 4.579-4.874a33.61 33.61 0 01-2.015-1.275 9.34 9.34 0 01-2.411-1.857l-.034.04"/><path d="M132.205 225.17a.02.02 0 01-.005.007.617.617 0 00.04-.047l-.035.04m-.018.02l.013-.013-.013.013m-.007.01l.009-.01-.008.01m-.167.198l.167-.197c-.056.065-.112.13-.167.197m108.097 15.955c.004 0 .004.003.008.007l.304.67-.312-.677m-3.875-8.906c.524.84 1.007 1.703 1.452 2.582.408.98.784 1.964 1.103 2.974.171.545.308 1.093.458 1.642.254.93.712 1.81 1.277 2.614.011.02.019.04.029.057.39.6.91 1.08 1.564 1.435a4.719 4.719 0 003.358.404c2.577-.683 3.605-2.95 3.59-5.213-.007-1.12-.361-2.29-.737-3.351-.644-1.817-1.414-3.623-2.373-5.318a29.16 29.16 0 00-1.685-2.655c-2.734 1.54-5.435 3.11-8.036 4.83m-.506-.782c.005.005.007.01.011.015l.093-.203a2.527 2.527 0 00-.103.188m-63.621-26.571c-4.65.87-9.25 2.083-13.624 3.774-2.406.93-4.79 1.88-7.059 3.062a114.24 114.24 0 00-2.935 1.574c.637.36 1.276.715 1.918 1.067 1.246.683 2.52 1.327 3.78 1.988 1.009.53 2.293 1.078 3.396 1.74a79.07 79.07 0 012.428-1.034c1.242-.47 2.488-.923 3.752-1.35 1.56-.53 3.192-.917 4.785-1.357 3.068-.854 6.232-1.41 9.403-1.843 2.062-.207 4.16-.39 6.233-.312 2.244.085 4.48.213 6.71.453 1.719.25 3.43.51 5.123.887 1.726.384 3.444.786 5.151 1.222 3.454.89 6.811 2.155 10.14 3.384 1.855.742 3.705 1.508 5.53 2.31.237.104.47.21.699.321 1.274-1.223 3.16-1.905 4.707-2.812a64.895 64.895 0 015.369-2.822c-1.854-1.205-3.762-2.29-5.86-3.107a278.233 278.233 0 00-7.241-2.723c-2.186-.779-4.449-1.413-6.668-2.113a60.37 60.37 0 00-6.39-1.62c-1.07-.216-2.144-.426-3.214-.637-1.518-.298-3.057-.469-4.592-.653-1.171-.141-2.338-.27-3.512-.388-1.217-.12-2.47-.124-3.697-.18a47.844 47.844 0 00-2.277-.053c-4.049 0-8.097.48-12.056 1.222m-40.273 22.36c-.787.99-1.324 2.225-1.818 3.347-.67 1.525-.96 3.12-1.296 4.728a32.396 32.396 0 00-.615 4.348c-.094 1.328.246 2.747.626 4.022.555 1.862 2.72 2.985 4.746 2.473 2.034-.512 3.247-2.493 2.695-4.356a15.02 15.02 0 01-.297-1.219 11.2 11.2 0 01.072-1.892c.287-1.721.694-3.501 1.342-5.137.415-.801.874-1.594 1.418-2.33a38.78 38.78 0 011.294-1.373c-1.846-.943-3.655-1.914-5.354-3.08a9.788 9.788 0 01-1.55-1.044c-.43.498-.855 1-1.263 1.513"/><path d="M235.762 232.764c-.175.138-.35.283-.518.427-.57 1.342-1.645 2.568-2.877 3.475.304.958.518 1.93.671 2.94.165 1.091.52 1.962 1.053 2.984.34.407.68.814 1.023 1.218a5.535 5.535 0 002.395 1.28c1.554.323 3.096.28 4.47-.55 1.991-1.21 3.082-3.289 2.428-5.474l-.075-.226a19.036 19.036 0 00-1.35-5.67c-.52-1.283-1.175-2.519-1.893-3.726a103.817 103.817 0 00-5.327 3.322m-.142-.814c.07-.158.142-.316.213-.47a1.987 1.987 0 00-.214.47m-15.036-8.049l.072.087a1.71 1.71 0 01-.072-.087m4.322-2.646l-.216.15.216-.15m3.667-8.288a8.03 8.03 0 01-.314 1.094c-.197.381-.43.734-.702 1.075-.565.65-1.184 1.261-1.812 1.864-.334.322-.685.624-1.055.907-.414.277-.837.548-1.253.827-.46.312-.903.647-1.348.977-.33.226-.666.439-1.022.634-.52.285-1.052.545-1.571.827-1.292.707-2.137 2.254-1.675 3.61.24.713.884 1.288 1.617 1.587.326.131.627.223.978.27.3.039.601.075.905.104 1.454.142 2.882-.275 4.182-.827 1.005-.427 2.022-.93 2.906-1.547.698-.49 1.31-1.039 1.893-1.64.605-.624 1.2-1.27 1.643-2 .42-.697.888-1.36 1.347-2.03.21-.306.396-.625.565-.95.125-.242.236-.492.347-.738.04-.086.072-.175.104-.26.133-.345.1-.69.032-1.038-.079-.391-.544-.667-.952-.667a1.06 1.06 0 00-.701.266c-.184.168-.247.355-.279.578l-.016.047c-.22.41-.43.825-.661 1.227-.19.333-.409.648-.627.963-.257.381-.508.769-.748 1.16-.26.419-.506.838-.82 1.226-.608.702-1.257 1.386-2.015 1.952-.684.456-1.43.797-2.199 1.11-.324.118-.655.223-.987.33a7.16 7.16 0 01-1 .226 8.793 8.793 0 01-1.588-.023 7.263 7.263 0 01-1.01-.2 4.226 4.226 0 01-.139-.07l.038-.058.083-.074c.424-.238.904-.394 1.35-.593.319-.14.62-.328.92-.499.71-.413 1.35-.93 2-1.416.872-.598 1.78-1.154 2.529-1.885.436-.424.855-.86 1.277-1.298.623-.644 1.235-1.327 1.725-2.062.462-.697.72-1.479.903-2.267.082-.365.057-.716-.15-1.045a1.47 1.47 0 00-.88-.62 1.53 1.53 0 00-.373-.045c-.646-.001-1.306.386-1.447.99"/><path d="M236.05 218.93a5.212 5.212 0 00-.86 1.055c-.167.27-.314.552-.486.821a20.018 20.018 0 01-1.145 1.642 16.258 16.258 0 01-1.815 1.628c-.966.665-1.968 1.29-3.062 1.762-.47.174-.942.34-1.412.503-.76.263-1.542.421-2.337.543-.27.021-.532.027-.803.012a4.512 4.512 0 01-.48-.118c-.005-.394.043-.788.086-1.179.08-.742-.736-1.366-1.489-1.366-.393 0-.772.147-1.052.4-.3.276-.394.591-.437.966-.122 1.1-.278 2.27.599 3.17.618.634 1.567.972 2.465 1.113.924.145 1.812.014 2.728-.108a9.206 9.206 0 001.64-.361c.404-.129.808-.256 1.213-.391.884-.293 1.73-.648 2.541-1.077 1.49-.789 2.957-1.732 4.135-2.895.683-.673 1.242-1.442 1.76-2.226.273-.412.48-.848.677-1.289.165-.357.24-.722.362-1.093.222-.663-.133-1.41-.777-1.754a1.812 1.812 0 00-.854-.209c-.442 0-.882.152-1.197.452"/><path d="M241.876 221.6c-.346.408-.67.832-1.01 1.243-.666.765-1.345 1.53-2.079 2.242-.372.364-.738.732-1.13 1.074-.398.344-.793.668-1.212.984-.798.534-1.638 1.001-2.487 1.463-.907.49-1.82.945-2.778 1.338-.375.138-.75.27-1.13.393-.605.194-1.215.4-1.845.52a4.79 4.79 0 01-.634-.003 4.373 4.373 0 01-.364-.086c.135-.233.29-.45.462-.664l-.02.023c.172-.216.288-.425.288-.716a1.1 1.1 0 00-.368-.815 1.318 1.318 0 00-.888-.338c-.297 0-.698.112-.888.338-.537.627-1.055 1.278-1.267 2.07a2.305 2.305 0 00-.06.643c.01.237.096.61.25.812.121.157.25.315.401.457.204.193.494.338.755.462a6.3 6.3 0 001.067.385c.297.078.62.088.927.115.708.053 1.41-.132 2.073-.332a26.806 26.806 0 004.202-1.685c.622-.312 1.224-.67 1.826-1.015.597-.348 1.202-.69 1.767-1.08.358-.25.71-.503 1.057-.763.293-.216.561-.46.837-.693.49-.42.956-.867 1.41-1.32a93.718 93.718 0 001.629-1.666c.297-.316.587-.64.863-.976.118-.141.24-.282.344-.436.154-.224.254-.467.36-.713.069-.23.069-.46 0-.69a1.333 1.333 0 00-.647-.775 1.51 1.51 0 00-.712-.174c-.336 0-.78.124-.999.377"/><path d="M230.242 232.723c.035.026.072.05.108.076h-.001a1.007 1.007 0 01-.107-.076m13.458-7.437c-.354.326-.741.618-1.081.963-.355.358-.691.726-1.063 1.07-.336.313-.712.595-1.074.874-.35.267-.694.538-1.045.8-.448.298-.923.556-1.393.827-.518.298-1.02.624-1.528.939-.505.319-1.048.581-1.578.864-.564.297-1.072.674-1.647.953-.352.1-.707.164-1.07.215-.545.054-1.095.095-1.641.057l-.027-.005-.036-.136c-.207-.792-1.167-1.255-2.004-1.045-.874.224-1.35 1.051-1.139 1.843.108.397.222.785.487 1.124.368.47.859.84 1.47 1.015 1.11.315 2.303.214 3.434.052.344-.049.69-.088 1.024-.177a6.159 6.159 0 001.632-.67c.584-.345 1.166-.69 1.769-1.012.565-.302 1.08-.67 1.613-1.015.566-.364 1.157-.693 1.74-1.038.673-.401 1.278-.894 1.883-1.376.515-.414 1.038-.821 1.503-1.281.54-.536 1.002-1.144 1.417-1.768.136-.203.272-.414.409-.617.308-.46.203-1.08-.205-1.456a1.368 1.368 0 00-.925-.347c-.337 0-.673.116-.925.347"/><path d="M228.492 210.85l.333-.039c-.698.086-1.4.178-2.098.267-.533.065-.905.636-.905 1.09 0 .299.132.588.36.799.205.19.57.367.875.33 1.14-.134 2.299-.324 3.455-.224.479.072.956.164 1.42.3.482.144.95.334 1.416.511 1.39.566 2.659 1.313 3.877 2.148.643.464 1.272.956 1.852 1.487.525.482.983 1.022 1.44 1.559.264.313.533.623.801.935a8.803 8.803 0 011.058 1.766c.294.631.648 1.232.972 1.847.157.4.286.806.372 1.223.024.237.043.475.033.712l-.002.006c-.165.71.096 1.432.805 1.813.405.217.895.276 1.347.161.389-.099.88-.378 1.048-.739.157-.344.326-.683.433-1.048.072-.246.096-.512.125-.762.054-.473-.007-.959-.107-1.426-.175-.824-.562-1.58-1.006-2.312-.318-.53-.615-1.065-.93-1.593-.408-.687-.924-1.308-1.49-1.89-.49-.501-.998-.99-1.507-1.48-.626-.608-1.327-1.127-2.065-1.623-1.284-.867-2.595-1.698-4.012-2.385-1.163-.562-2.417-.956-3.67-1.317-.655-.188-1.378-.23-2.057-.273a5.183 5.183 0 00-.343-.01c-.612 0-1.224.093-1.83.168m-78.772 6.422zm-1.254.95c.044.05.09.103.133.156l-.133-.157zm6.923-1.509l.306.118-.306-.118zm-3.761-2.044l.335.238a35.718 35.718 0 01-.312-.222.134.134 0 01-.023-.016zm-4.851-5.685a1.715 1.715 0 00-1.02.72c-.212.328-.34.844-.176 1.209.454 1.008.909 2.023 1.453 2.992.237.423.477.844.72 1.264.175.296.347.592.558.872.321.418.705.728 1.128 1.033.352.25.708.482 1.085.707.242.142.486.286.726.433.917.566 1.94.946 2.975 1.292.393.131.79.246 1.192.354.386.105.782.172 1.165.287.083.04.164.081.245.126-.157.09-.316.172-.485.246-.321.105-.64.177-.974.234-.74.07-1.477.035-2.216-.044-.72-.112-1.42-.291-2.102-.533a8.135 8.135 0 01-1.364-.719 7.896 7.896 0 01-1.04-1.025 6.895 6.895 0 01-.492-.68c-.13-.215-.235-.446-.341-.671-.302-.677-.59-1.358-.91-2.031-.19-.44-.353-.893-.539-1.335a15.22 15.22 0 00-.494-1.072c-.107-.21-.227-.412-.339-.617a1.38 1.38 0 00-.703-.87 1.636 1.636 0 00-1.825.213 1.808 1.808 0 00-.627 1.288c-.02.47.13.854.337 1.275.121.252.283.492.418.739.283.512.513 1.048.792 1.563.254.463.58.9.851 1.353.154.257.305.513.459.769.275.453.558.873.92 1.281.19.214.415.407.634.598.404.36.805.71 1.266 1.012.559.361 1.192.624 1.836.82 1.282.398 2.642.533 3.988.562 1.675.04 3.537-.147 4.84-1.212.3-.243.486-.59.615-.929.14-.368.065-.835-.05-1.196-.171-.539-.601-1.018-1.07-1.373-.358-.272-.705-.43-1.135-.584-.168-.06-.34-.119-.508-.181-.283-.1-.565-.205-.844-.311-.744-.308-1.488-.608-2.195-.99-.35-.19-.673-.43-1.012-.64-.3-.184-.606-.354-.899-.55a4.407 4.407 0 01-.48-.401c-.253-.357-.464-.742-.683-1.116-.201-.335-.383-.677-.577-1.015a23.21 23.21 0 01-.792-1.584l-.21-.469-.172-.375a1.662 1.662 0 00-.613-.561 1.868 1.868 0 00-1.316-.158z"/><path d="M147.39 225.78c.074.01.15.018.224.026a17.94 17.94 0 01-.224-.026m5.56-2.07c.043.005.086.01.129.017l-.13-.017m-12.809-11.704a1.726 1.726 0 00-1.031.726c-.246.385-.271.796-.175 1.222.297 1.295.687 2.562 1.085 3.834.329 1.058.601 2.135.995 3.174.175.453.354.896.504 1.353.244.749.53 1.49 1.102 2.085.717.74 1.716.97 2.74 1.12a60.53 60.53 0 001.964.252c1.392.19 2.763.466 4.163.616.319.033.638.066.956.095a2.73 2.73 0 002.273-.946 6.27 6.27 0 00.337-.407c.16-.208.242-.48.347-.716.068-.158.124-.323.182-.483.107-.322.186-.644.25-.976.065-.345.062-.657-.139-.973a1.38 1.38 0 00-.823-.58 1.503 1.503 0 00-1.06.127c-.333.181-.494.437-.633.756l-.052.124c-.162.35-.317.704-.471 1.058a2.705 2.705 0 01-.103.187c-.465-.064-.93-.127-1.393-.193-.634-.089-1.26-.237-1.89-.345a50.909 50.909 0 00-1.954-.293c-.631-.085-1.28-.17-1.889-.355l-.03-.03a2.616 2.616 0 01-.113-.179c-.215-.604-.3-1.244-.55-1.836a50.737 50.737 0 01-.88-2.234c-.601-1.673-1.188-3.351-1.589-5.076-.162-.708-.932-1.16-1.687-1.16-.147 0-.294.017-.436.053"/><path d="M136.527 214.132c-.77.194-1.185.92-1.002 1.616.405 1.53.805 3.065 1.21 4.595.175.658.34 1.315.494 1.978.14.598.275 1.179.526 1.75.265.612.576 1.22.963 1.778a7.5 7.5 0 00.74.87c.119.125.237.247.376.352.244.184.39.27.688.371.125.043.25.08.375.116 1.297.367 2.574.79 3.877 1.136.551.148 1.103.292 1.654.44a9.38 9.38 0 001.897.295c.712.047 1.392-.105 1.94-.532.394-.305.655-.706.91-1.11.365-.575.705-1.17 1.056-1.754.336-.562.154-1.277-.458-1.606-.613-.33-1.39-.126-1.752.42-.473.713-.926 1.444-1.427 2.14h-.013c-1.151-.182-2.27-.49-3.399-.78-.69-.177-1.37-.4-2.054-.605-.555-.167-1.118-.291-1.677-.44a8.847 8.847 0 01-.777-1.298 8.552 8.552 0 01-.575-1.71 47.758 47.758 0 00-.464-1.985c-.452-1.704-.896-3.412-1.347-5.12-.153-.582-.767-.962-1.393-.962-.123 0-.247.014-.368.045"/><path d="M132.453 217.053c-.576.144-.937.716-.773 1.248a79.586 79.586 0 011.049 3.689c.154.575.315 1.15.466 1.728.131.522.231 1.07.432 1.577.219.544.455 1.077.841 1.543.426.513.96.93 1.486 1.353.275.224.572.424.873.615.298.187.648.302.978.427.515.19 1.044.332 1.585.456.53.119 1.057.253 1.586.369.59.13 1.31.272 1.861-.047.537-.308.9-.715 1.246-1.192.304-.424.183-1.038-.197-1.383-.476-.44-1.281-.444-1.757 0-.108.1-.22.199-.333.295-.221-.058-.442-.125-.662-.184-.373-.098-.753-.17-1.136-.245a14.23 14.23 0 01-1.77-.461 7.753 7.753 0 01-.99-.568c-.334-.243-.666-.485-.946-.778a4.133 4.133 0 01-.407-.682c-.202-.489-.33-.998-.475-1.506a152.98 152.98 0 01-.473-1.655c-.362-1.301-.715-2.602-1.12-3.89-.138-.444-.584-.746-1.071-.746-.097 0-.195.011-.293.037"/><path d="M135.266 213.847c-.024.056-.05.113-.076.169l.076-.169m8.895-6.603c-.4.01-.798.09-1.196.139-1.356.17-2.662.495-3.973.85-1.628.444-3.006 1.445-4.338 2.375-.708.5-1.339 1.038-1.782 1.76-.259.414-.451.92-.605 1.38-.158.47-.315.94-.444 1.416-.108.404-.154.828-.19 1.239-.032.413.064.83.118 1.238.047.355.122.644.408.907a1.486 1.486 0 001.973 0c.236-.217.45-.588.408-.907-.032-.263-.068-.522-.104-.785a2.641 2.641 0 01.011-.648c.141-.72.402-1.41.697-2.087a4.8 4.8 0 01.349-.57c.177-.182.372-.343.577-.496.904-.59 1.87-1.146 2.876-1.58 1.28-.427 2.628-.661 3.968-.866.173-.02.347-.038.52-.053a8.292 8.292 0 011.583-.003 4.42 4.42 0 011.106.27c.159.068.304.144.447.234.377.277.765.545 1.16.8.615.394 1.539.22 2.044-.24a1.477 1.477 0 000-2.188c-.265-.243-.519-.493-.78-.736a3.966 3.966 0 00-1.149-.759 10.961 10.961 0 00-.745-.286c-.616-.22-1.242-.296-1.897-.361a8.349 8.349 0 00-1.042-.043m-10.936 15.668c-.572.143-.955.606-1.276 1.086-.314.232-.569.52-.847.8-.276.275-.537.558-.791.854-.562.646-1.131 1.294-1.668 1.96-.494.618-.895 1.288-1.324 1.942a18.41 18.41 0 00-1.138 2.04c-.685 1.392-1.157 2.861-1.647 4.32-.28.834-.563 1.681-.734 2.542-.182.884-.445 1.764-.595 2.656-.103.36-.102.722 0 1.082.108.349.298.647.573.9.28.253.606.427.981.526.53.134 1.25.098 1.711-.207.308-.204.684-.427.849-.765.096-.198.19-.398.275-.598.065-.234.104-.47.121-.71.026-.193.047-.388.072-.581.054-.45.075-.9.104-1.35.058-.815.167-1.621.28-2.432.3-1.884.714-3.726 1.428-5.52.439-.929.91-1.844 1.427-2.734.313.265.784.368 1.179.122a1.56 1.56 0 00.395-.353 1.49 1.49 0 001.011-.63c.261-.394.523-.788.78-1.183.18-.272.344-.551.498-.834.136-.246.247-.538.247-.817 0-.283-.114-.5-.244-.746a.76.76 0 00-.053-.091c.007-.041.012-.085.018-.133.035-.331-.19-.604-.394-.847-.197-.233-.558-.34-.892-.34-.122 0-.24.014-.346.041m93.638-7.535a1.95 1.95 0 00-.205.063 1.354 1.354 0 00-.92.1c-1.188.586-2.413 1.117-3.626 1.656-1.442.644-2.88 1.281-4.356 1.863.093-.036.186-.069.28-.105-.18.069-.359.134-.534.203-.293.116-.526.227-.695.49a.996.996 0 00-.118.821c.079.266.276.499.534.637l.004.002.003.048c.047.539.082 1.09.415 1.557.372.522 1.07.788 1.74.633.423-.095.737-.354.956-.693.08-.117.146-.234.229-.348.092-.103.184-.207.282-.309.116-.116.254-.219.392-.318l-.048.036c.88-.617 1.78-1.219 2.685-1.806.497-.326.995-.651 1.5-.97.297-.19.597-.38.894-.571.366-.24.72-.487 1.067-.743.304-.223.562-.473.737-.795.172-.321.205-.676 0-.998a1.113 1.113 0 00-.933-.49c-.096 0-.19.012-.283.037"/><path d="M183.899 201.067c-1.035.019-2.07.04-3.104.101-1.041.06-2.087.073-3.129.142-2.158.141-4.31.443-6.431.815a34.604 34.604 0 00-3.004.643c-.952.253-1.89.556-2.83.84-1.007.307-1.998.652-3 .97-.95.302-1.909.595-2.843.936-1.915.7-3.877 1.353-5.702 2.234-.674.325-1.307.716-1.947 1.087-.716.414-1.414.858-2.109 1.304-.397.254-.694.549-.826.99-.13.427-.065.892.182 1.273.466.734 1.658 1.111 2.466.596a58.476 58.476 0 012.735-1.643c.7-.395 1.409-.738 2.156-1.048 1.438-.533 2.9-1.014 4.348-1.527 1.65-.588 3.343-1.091 5.015-1.636 1.671-.542 3.357-1.081 5.09-1.435 1.601-.328 3.235-.548 4.858-.766 1.673-.175 3.349-.19 5.029-.276 1.843-.092 3.69-.085 5.537-.095 1.9-.007 3.794.115 5.688.22 1.689.092 3.367.201 5.043.38 1.748.247 3.492.513 5.223.839 1.883.354 3.748.771 5.609 1.218 1.757.42 3.468.95 5.165 1.54a162.74 162.74 0 014.495 1.64 77.792 77.792 0 013.616 1.554c1.003.456 2.008.946 2.918 1.55.67.496 1.317 1.025 2.112 1.34.346.184.719.28 1.123.28.587 0 1.157-.217 1.575-.598.877-.808.827-2.08 0-2.891-.423-.413-.977-.696-1.473-1.03-.344-.253-.687-.509-1.05-.737-.398-.25-.82-.47-1.24-.694-.916-.49-1.892-.883-2.852-1.3-2.004-.874-4.07-1.567-6.15-2.27-.952-.322-1.915-.617-2.87-.923a37.174 37.174 0 00-3.067-.821c-2.084-.483-4.174-.946-6.287-1.311-2.19-.381-4.398-.749-6.614-.985-2.17-.234-4.346-.326-6.529-.43-1.131-.054-2.266-.116-3.4-.116-1.178.004-2.353.017-3.526.04m92.341-75.026c-2.31.102-4.611.246-6.913.394-5.588.361-11.167.766-16.752 1.166-11.608.832-23.203 1.96-34.778 3.127-1.235.126-2.176.69-2.818 1.692-1.538 1.928-1.953 4.763-1.953 7.072a14.077 14.077 0 00.92 5.174c.533 1.281 1.857 3.787 3.851 3.59a1356.25 1356.25 0 0116.19-1.508c1.454-.077 2.904-.177 4.353-.368l.248-.031.041-.004c4.528-.39 9.053-.825 13.588-1.117 5.41-.345 10.818-.726 16.233-.97 2.402-.108 4.804-.19 7.21-.265 1.238-.04 2.476-.079 3.719-.141 1.947-.102 4.241-.658 5.233-2.362a9.73 9.73 0 001.593-4.008c.44-2.342.368-5.17-.63-7.4-.606-1.348-1.436-3.007-3.06-3.515-.986-.31-1.73-.507-2.707-.621a7.942 7.942 0 00-.915-.048c-.886 0-1.818.107-2.654.143"/><path d="M242.632 121.88c-.877.844-1.213 2.407-1.374 3.517-.122.855-.173 1.718-.244 2.58-.04.505-.046 1.011-.043 1.517.007 1.36.047 2.72.075 4.08a10.19 10.19 0 00.663 3.715c.437 1.044 1.288 2.575 2.767 2.575.887-.092 1.56-.496 2.022-1.215 1.092-1.367 1.435-3.436 1.403-5.075-.032-1.586-.028-3.177-.058-4.764.203-1.182.132-2.422-.154-3.583-.145-1.193-.496-2.419-1.237-3.347-.434-.68-1.07-1.061-1.908-1.147-.838.086-1.475.467-1.912 1.147"/></g></g></g></svg>