<svg width="500" height="600" xmlns="http://www.w3.org/2000/svg" xmlns:xlink="http://www.w3.org/1999/xlink"><defs><path id="a" d="M.068.232H44.87v26.753H.068z"/></defs><g fill="none" fill-rule="evenodd"><path d="M140.933 426.077l-1.933.318c.412.039.826.073 1.248.105l1.724-.46.028-.032a48.525 48.525 0 01-.575-.008 38.8 38.8 0 00-.492.077M171 403.58c.084.057.164.119.242.184.055.035.11.07.165.103.13.113.255.23.377.35.147.017.295.04.443.073.613.135 1.15.371 1.612.71l.161-.133a25.826 25.826 0 01-.487-.403c-.57-.488-1.135-.982-1.712-1.464-.263.198-.53.392-.801.58m104-148.043l.525.463-.103-.152c.191-.23.384-.46.578-.69l-.508-.158c-.166.179-.33.358-.492.537M147.392 418.194l.01.01-.06-.063.05.053m.115.124a13.44 13.44 0 00-.106-.113l.106.113m12.973-14.009l-.028.003c.01 0 .019-.002.028-.003m2.202-5.262c-.2.064-.4.124-.582.218-.254.131-.415.3-.562.51-.196.276-.241.598-.282.912-.077.36-.17.716-.256 1.074-.172.72-.367 1.447-.68 2.136a3.342 3.342 0 01-.152.24 6.964 6.964 0 01-.23-.224 83.61 83.61 0 01-.788-.905 9.773 9.773 0 00-.56-.592c-.203-.198-.453-.365-.682-.542a1.483 1.483 0 00-.61-.295c-.335-.076-.77-.052-1.064.116-.158.09-.387.193-.505.306a3.907 3.907 0 00-.297.31 1.945 1.945 0 00-.184.389c-.108.289-.033.595-.036.89l-.008.914-.005 1.025c-.001.157 0 .313.002.47a2.321 2.321 0 00-.528-.197 6.47 6.47 0 00-.486-.05c-.122.015-.245.028-.368.041a1.482 1.482 0 00-.611.295c-.316.206-.456.5-.591.801l-.026.146a1.233 1.233 0 00-.045.23l-.185-.159c-.224-.193-.428-.401-.661-.588a2.46 2.46 0 00-.896-.46c-.273-.072-.562-.084-.846-.113-.345-.034-.752.144-.986.34-.242.199-.442.525-.41.816a8.61 8.61 0 00.443 2.019l.076.235-.227-.172a1.58 1.58 0 00-1.308-.286c-.544.124-1.028.583-.985 1.072.017.2.042.398.075.597a3.125 3.125 0 00-.299.027.799.799 0 00-.246.055l-.318.111a10.44 10.44 0 00-.35.225.825.825 0 00-.256.31l-.135.264c-.022.134-.044.267-.064.4.003.14.021.277.054.414.012.089.03.176.053.262v.002l-.114-.135-.712-.856c-.118-.14-.203-.298-.295-.45-.115-.188-.272-.347-.429-.513-.16-.172-.489-.326-.742-.384a1.876 1.876 0 00-.87.038c-.635.171-1.048.7-.86 1.253.04.121.082.242.124.362l-.6-.59c-.265-.26-.785-.282-1.122-.12-.365.177-.526.531-.426.865.068.225.184.432.303.641.114.2.35.32.606.36.384.38.765.761 1.139 1.149.487.507.975 1.014 1.464 1.52.318.332.633.666.946 1 .087.14.176.279.267.417.334.499.715.976 1.112 1.443.203.235.416.464.63.691.117.122.248.229.385.334.198.152.42.214.666.297.35.117.814-.026 1.066-.234a.879.879 0 00.282-.4c.071-.214.055-.511-.11-.699-.13-.144-.26-.288-.393-.43-.19-.202-.386-.4-.583-.596-.086-.108-.17-.216-.252-.326.164.064.339.108.514.127l.35.039c.238 0 .46-.05.665-.149.198-.096.355-.227.471-.39.12-.17.18-.354.181-.55.008-.085.017-.17.027-.254.02-.197-.044-.397-.079-.591-.04-.232-.142-.46-.214-.687l-.218-.69-.078-.246.146.11c.16.123.341.229.52.332.164.096.378.14.563.203.242.054.482.054.723 0a1.431 1.431 0 00.649-.332c.185.074.382.128.59.114.164-.01.327-.026.488-.05.152-.04.295-.093.43-.16a1.3 1.3 0 00.498-.413c.064-.122.126-.245.187-.367.03-.14.05-.28.06-.422a3.033 3.033 0 00-.063-.433 7.502 7.502 0 00-.27-1.098c-.062-.188-.124-.376-.19-.563l-.162-.462.183.149c.155.127.29.228.474.337.214.128.466.2.72.25.731.142 1.5-.182 1.703-.8.11-.336.178-.666.158-1.016a2.81 2.81 0 00-.013-.14c.22.06.452.077.69.095a1.61 1.61 0 00.695-.156c.319-.154.521-.394.632-.681.12-.306.245-.598.297-.917.079-.476.087-.943.088-1.422 0-.18.002-.361.005-.542.32.33.682.645 1.128.842.647.288 1.564.343 2.216.04.574-.268.934-.71 1.255-1.17.27-.39.438-.821.593-1.25.173.352.353.702.538 1.05.109.152.256.272.44.363.283.137.628.174.945.102.305-.07.571-.24.73-.466.153-.214.24-.54.125-.78a31.81 31.81 0 01-.685-1.545c-.12-.289-.246-.575-.351-.867a5.543 5.543 0 01-.253-.937c-.028-.16-.06-.32-.092-.48-.04-.198-.135-.384-.219-.571-.127-.283-.298-.512-.622-.669a1.704 1.704 0 00-.709-.16c-.117 0-.23.014-.334.047m101.668-10.513l.073.026-.073-.026zm-.192-.035l-.177.02c.059-.01.118-.016.177-.02zm-.227-.05c.045.003.089.008.132.015l-.132-.015zm-19.648-7.184a.7.7 0 01.037.07h-.003l-.034-.07zm-8.722-3.613a5.678 5.678 0 00-.388.598c-.167.301-.3.62-.447.93l-.091.185a1.277 1.277 0 00-.723-.457 1.453 1.453 0 00-.976.11c-.254.13-.537.39-.58.653a192.782 192.782 0 01-1.01 5.54l-.166.804c-.025.123-.052.247-.075.37-.046.234-.107.476-.105.712.005.56.44 1.063 1.068 1.212.258.059.516.059.773 0 .338-.08.716-.296.87-.578.388-.71.75-1.43 1.103-2.155l-.043.362c-.042.363-.012.725.126 1.07a1.53 1.53 0 001.1.95c.28.065.558.065.837 0l.376-.137c.237-.12.425-.283.565-.488.206-.23.405-.459.58-.709.215-.306.397-.63.582-.95.175-.302.354-.601.532-.901l.617-1.03c-.022.273-.05.547-.076.822-.022.228-.062.456-.075.684-.01.225.098.67.252.858.161.198.326.388.525.56.608.53 1.659.54 2.266 0 .345-.307.69-.6.98-.95l.006.033c.04.228.108.366.22.592.032.06.061.12.091.18.11.146.238.278.383.396.25.22.555.311.88.408.554.165 1.167-.055 1.645-.28.13-.071.253-.148.371-.231.238-.156.458-.311.673-.488.294-.242.566-.503.829-.772-.045.255-.072.51-.063.763.014.372.165.717.472.984.32.274.7.378 1.138.406.246.016.523.007.758-.049a3.23 3.23 0 00.733-.3c.224-.122.446-.294.647-.448.168-.127.333-.261.5-.392.494-.385.938-.822 1.396-1.24l-.026.097c-.073.28-.112.67-.01.948.072.196.163.385.279.567.135.21.432.447.67.568.412.207.926.24 1.382.153.444-.083.86-.28 1.26-.463.355-.162.677-.4 1-.607.173-.11.346-.222.518-.333-.041.395-.062.793.114 1.168.058.167.144.323.26.466.103.144.227.271.375.382.398.328.927.46 1.463.498.764.055 1.525-.108 2.277-.223.093.05.182.102.27.157l.246.164c.238.119.494.179.768.179.403 0 .793-.14 1.078-.385.594-.513.577-1.345 0-1.86a5.377 5.377 0 00-.74-.561 3.04 3.04 0 00-1.465-.454c-.332-.01-.663.034-.99.077l-.405.058c.01-.098.022-.195.03-.293.049-.564.054-1.137-.139-1.685-.14-.396-.431-.719-.826-.95-.425-.246-.866-.319-1.368-.347a2.722 2.722 0 00-.6.09c-.26.06-.498.187-.719.317-.263.158-.519.321-.772.49l-.344.223a5.954 5.954 0 00-.121-1.188c-.042-.23-.114-.49-.26-.69a5.173 5.173 0 00-.616-.67c-.482-.463-1.348-.517-1.95-.217-.396.197-.76.417-1.082.7-.162.14-.316.289-.474.43l-.728.658-.043.038.015-.08c.085-.437.146-.844.043-1.283a1.967 1.967 0 00-.282-.623c-.119-.183-.325-.352-.49-.51-.28-.266-.732-.407-1.139-.407-.453 0-.802.161-1.138.408-.246.18-.485.355-.699.565-.259.254-.481.537-.715.808l-.731.808-.459.507c.042-.294.083-.59.112-.885.015-.142.033-.285.053-.427.037-.277.008-.512-.038-.792a.658.658 0 00-.1-.342 3.502 3.502 0 00-.354-.602 1.632 1.632 0 00-.96-.638 1.828 1.828 0 00-1.563.358c-.301.236-.547.48-.776.776-.145.189-.244.407-.367.608a13.52 13.52 0 00-.06-.943 7.38 7.38 0 00-.134-.782c-.046-.216-.173-.427-.266-.63a1.35 1.35 0 00-.41-.608 1.69 1.69 0 00-.703-.355 1.812 1.812 0 00-1.552.355c-.332.26-.601.55-.815.892-.096.153-.18.31-.276.464l-.54.866-.109.176.016-.166c.033-.359.057-.715.056-1.076-.004-.422-.115-.844-.216-1.256-.108-.441-.577-.804-1.066-.92a1.729 1.729 0 00-.4-.047c-.534 0-1.03.25-1.325.652zm-59.809-187.544c-.138.06-.274.167-.246.259.146.497.313 1.086.456 1.687.017.712-.014 1.434-.042 2.072l-.002.028c-.015.359-.008.739.02 1.161-.11.68-.253 1.294-.432 1.878-.068.218-.12.438-.174.663a3.101 3.101 0 01-.209.489c-.05.091-.119.183-.18.263l-.046.062-.03.042a2.626 2.626 0 01-.105.14 2.95 2.95 0 01-.388.29 6.343 6.343 0 01-.477.203c-.295.086-.64.17-1.086.266-.203.032-.407.061-.612.09l-.246.035c-.272.039-.555.075-.866.112a1.971 1.971 0 00-.852-.084c-1.1.13-2.18.252-3.09.354-.548.016-1.163.026-2.06.035-.395.004-.788.007-1.182.007-.893 0-1.634-.014-2.33-.047-.917-.041-1.897-.084-2.855-.114-.068.244-.182.49-.295.72-.803-.018-1.597-.033-2.39-.05l-.092-.002-1.047-.021a342.52 342.52 0 00-2.852-.053c-.286.293-.78.552-1.443.73l-.224.06c-.459.124-.915.248-1.375.37.881-.015 1.766-.023 2.629-.03h.059l1.108-.01c1.222-.012 2.463-.013 3.664-.015h.627c-.06.1-.107.2-.145.302 1.028-.09 2.061-.169 3.096-.238l.001-.001a.27.27 0 00.064-.156c.322-.024.646-.055.97-.086l.078-.007.303-.028c.257.011.529.023.794.03.58.015 1.08.023 1.566.024.549-.03 1.098-.058 1.648-.084.464-.022.929-.04 1.393-.06.548-.022 1.108-.053 1.661-.053l.157.001c.259.003.512.017.756.042.609-.042 1.21-.09 1.8-.139l.058-.004a25.656 25.656 0 001.618-.198c.56-.08 1.194-.17 1.804-.316l.174-.041.035-.008.04-.01c.152-.036.297-.07.429-.109.29-.082.593-.186.9-.308.44-.178.813-.394 1.079-.624.101-.087.285-.256.37-.413.053-.098.117-.196.18-.294l.012-.019c.15-.23.23-.472.302-.684.073-.218.113-.432.15-.621l.015-.085.01-.05.02-.1c.029-.14.065-.278.101-.417l.018-.07a8.006 8.006 0 00.136-.612l.014-.064c.023-.123.046-.247.073-.37.057-.26.098-.507.126-.755l.032-.271c.022-.168.042-.336.056-.503.024-.265.025-.527.006-.799a20.786 20.786 0 00-.169-1.669 2.664 2.664 0 00-.04-.206l-.008-.034-.003-.017c-.013-.064-.027-.125-.033-.187a4.914 4.914 0 01-.03-.355l-.003-.036c-.008-.139-.068-.198-.185-.317l-.018-.017a1.44 1.44 0 00-.501-.219 2.902 2.902 0 00-.82-.081c-.013-.08-.048-.173-.234-.254a1.583 1.583 0 00-.595-.108c-.221 0-.438.04-.596.108m24.436.252c-.187.158-.231.325-.147.557.286.787.547 1.553.774 2.278.176.698.35 1.39.398 2.088a17.743 17.743 0 01.036 1.586 7.363 7.363 0 00.48 2.957c.166.427.302.753.441 1.06.142.313.3.663.536.983.135.182.308.393.565.582.292.219.688.415 1.116.555.525.171 1.125.28 1.706.385.67.121 1.336.192 2.077.265 1.5.148 3.018.236 4.487.322l.342.02c1.372.08 2.781.1 4.143.12l.362.005c.784.01 1.566.018 2.35.023.684.001 1.228-.014 1.665-.026a132.28 132.28 0 012.09-.045l.194-.003c.128.051.131.111.163.168a.354.354 0 00.103.11l1.908-.02c.156-.025.312-.05.47-.073l.32-.049a.84.84 0 00.153.114l2.733-.023c.384-.003.766-.02 1.146-.038a1.748 1.748 0 00-.24-.256c.277-.03.532-.047.775-.051a.544.544 0 00-.122-.072c.175.008.293.008.413.007h.184c.37-.002.874-.004 1.339-.021.304-.011.608-.025.914-.039l.39-.017.19-.008.593-.025a67.111 67.111 0 012.016-.043c.22-.002.466-.01.773-.022l.185.002c.985.01 2.003.022 3.006.072.289.028.566.069.875.127.71.168 1.376.367 1.877.521.79.243 1.432.457 2.018.675.114.046.229.092.341.139.179.075.343.16.51.246l.155.08.829.416c.142.071.299.137.46.204.117.049.17.07.222.093l.212.093c.194.086.34.15.49.213.33.137.659.275.988.414l.48.202.112.06c.198.105.405.222.648.368l.4.126.397.126 4.695 6.863c1.017.414 3.557.228 2.996 0-.368-.222-6.602-8.446-6.882-8.6-1.065-.58-5.475-2.473-6.642-2.898a18.534 18.534 0 00-.913-.31c-.23-.072-.477-.134-.719-.193l-.237-.058a18.854 18.854 0 00-2.163-.435l-.235-.033c-.291-.04-.525-.07-.76-.091a19.23 19.23 0 00-1.412-.074c-.536 0-.958.023-1.365.045-.403.021-.631.033-.858.04-.368.015-.74.018-1.1.02a53.93 53.93 0 00-.902.014 81.59 81.59 0 00-1.431.057l-.58.026c-.95.042-1.909.05-2.754.057-.515.004-1.029.01-1.541.02-.677.014-1.377.037-1.992.059l-.189.006c-.804.027-1.56.053-2.304.065-1.03.018-2.108.04-3.499.07a74.44 74.44 0 01-1.724.027h-.21c-.668-.005-1.336-.011-2.004-.02-1.4-.019-2.617-.046-3.715-.084a74.122 74.122 0 01-2.486-.138l-.462-.03-.42-.027a50.24 50.24 0 01-1.96-.174 25.72 25.72 0 01-1.999-.292 7.772 7.772 0 01-.391-.103 3.47 3.47 0 01-.188-.094 2.099 2.099 0 01-.158-.141 6.21 6.21 0 01-.67-1.295l-.05-.123c-.12-.296-.302-.743-.431-1.16a9.673 9.673 0 01-.227-1.878 14.086 14.086 0 00-.159-1.945c-.249-1.522-.771-3.012-1.328-4.53-.067-.186-.385-.352-.672-.434a2.654 2.654 0 00-.739-.1c-.123 0-.253.009-.387.026-.366.05-.684.172-.874.334z" fill="#000"/><g transform="translate(362 217)"><mask id="b" fill="#fff"><use xlink:href="#a"/></mask><path d="M19.605 9.946c1.04 0 2.053-.251 3.032-.493l.258-.063.199-.048a73.45 73.45 0 002.334-.586c.558-.148 1.14-.333 1.61-.48l.536-.169a47.288 47.288 0 001.957-.643c1.36-.484 2.755-1.015 4.147-1.579l1.055-.428.117-.047.062-.026c.738-.3 1.522-.618 2.285-.911a66.207 66.207 0 012.163-.703l.092-.028c.398-.12.841-.256 1.286-.372-.211.188-.397.348-.588.5-.32.252-.688.515-1.158.826a52.01 52.01 0 01-1.89 1.148c-.77.449-1.419.823-2.087 1.187a52.01 52.01 0 01-4.498 2.203c-.983.42-1.973.81-2.943 1.159l-.185.067-1.487.537-.115.04a30.02 30.02 0 00-.516.17l-.038.013c-.4.135-.801.27-1.205.396l-.328.103c-.246.08-.492.159-.741.229l-.288.083-.03.008c-.233.067-.475.136-.714.193a.281.281 0 00-.066-.073.7.7 0 00-.45-.16.731.731 0 00-.45.16 4.398 4.398 0 00-.194.144c-.089.07-.157.149-.213.218-.165.2-.11.585.106.75a.82.82 0 00.222.136c.163.063.298.092.427.092a4.89 4.89 0 00.9-.116c.225-.045.448-.106.664-.165l.175-.047c.117-.03.233-.061.349-.097a86.49 86.49 0 002.153-.683c.706-.234 1.39-.48 2.087-.733l.61-.22.611-.221c.687-.248 1.36-.53 2.012-.804l.126-.053c1.998-.838 4.094-1.905 6.409-3.26l.04-.023c.954-.559 1.94-1.135 2.86-1.765.15-.103.3-.208.447-.316-.107.14-.207.28-.303.415l-.028.04-.116.165c-.224.314-.444.603-.65.87a63.185 63.185 0 01-1.272 1.574 60.07 60.07 0 01-.808.548l-.522.338-.257.168-.58.376-.467.302c-.297.192-.595.386-.893.581-.264.152-.526.307-.789.462l-.248.146-.607.356-.212.124c-.185.108-.369.217-.552.327l-.127.076c-.277.168-.591.357-.909.522a9.462 9.462 0 01-1.057.452c-.63.221-1.31.384-1.908.527l-.412.1a30 30 0 01-1.47.322.354.354 0 00-.222.143.296.296 0 00-.045.26c.046.143.195.236.376.236a.496.496 0 00.093-.01c.515-.092 1.035-.2 1.55-.32.283-.065.545-.126.805-.19l.165-.037.067-.015c.205-.049.412-.098.616-.154.32-.086.636-.2.914-.3.289-.104.561-.216.824-.337.287-.132.566-.294.807-.434l.789-.464 1.448-.84.159-.09a8.16 8.16 0 00.465-.278c.247-.158.508-.326.769-.497l-.156.139-.16.15-.393.36-.726.666a40.74 40.74 0 01-1.684 1.443l-.023.018-.172.143c-.584.484-1.194.913-1.766 1.306-1.128.68-2.405 1.199-3.64 1.7l-.225.093c-.855.347-1.733.69-2.582 1.023l-.075.029-.19.075-.182.07-.09.036a465.71 465.71 0 01-5.562 2.135l-.178.064-.111.039a1.687 1.687 0 00-.376.135l-.043.015a2.108 2.108 0 00-.238.085l-.774.277-.222.08-.51.185c-.874.298-1.685.509-2.48.646-.73.13-1.509.246-2.523.376-.767.078-1.406.113-2.011.113H8.88c-.497 0-.972.212-1.269.567a44.83 44.83 0 00-.61-1.407l-.208-.464-.042-.093c-.314-.693-.64-1.41-.98-2.108l-.052-.107c-.515-1.051-1.098-2.244-1.683-3.41l1.458-.542 1.544-.578.118-.044c.342-.128.636-.237.91-.39.372-.203.614-.47.718-.795a1.167 1.167 0 00-.156-1.026 1.525 1.525 0 00-.675-.53l.03-.01a19.89 19.89 0 001.018-1.116 8.88 8.88 0 00.553-.743l.034-.053.056-.078.042-.06c.044-.062.087-.125.132-.187.168-.234.342-.466.515-.697l.248-.332a58.675 58.675 0 013.195-3.895l.043-.047.045-.046.01.128.074.39c.122.697.233 1.277.433 1.855.214.615.5 1.227.875 1.87.079.135.175.27.304.427.13.165.285.326.46.482.164.142.377.262.55.36l.098.055c.4.229.892.383 1.322.507.443.132.976.2 1.584.202h.03zM14.061.27c-.19.033-.369.089-.53.165-.125.074-.251.16-.385.26-.12.088-.225.205-.326.319l-.132.143c-.072.072-.14.148-.207.222l-.07.078c-.26.284-.51.58-.745.858l-.087.103c-.896 1.06-1.738 2.157-2.593 3.28-.298.388-.59.793-.888 1.208l-.03.043-.34.47c-.11.153-.22.307-.327.46l-.02.03c-.248.348-.503.708-.778 1.042-.082.097-.17.192-.257.287-.368.365-.757.72-1.185 1.084-.373.317-.474.81-.25 1.225a8.376 8.376 0 00-.42.148l-.239.089-.389.144c-.533.198-1.066.396-1.598.596l-.434.165-1.763.665c.075.089.149.18.224.277.125.184.226.373.303.568.681.67 1.29 1.402 1.868 2.136.576.73 1.111 1.488 1.578 2.274.95 1.596 1.739 3.261 2.428 4.95.187.458.387.912.55 1.375.232.663.384 1.356.402 2.05.612-.096 1.105-.475 1.276-1.001.132-.41.018-.843-.124-1.25a7.907 7.907 0 00-.1-.274c.108.033.235.052.408.065.363.03.7.044 1.031.044.066 0 .132 0 .198-.002.334-.007.671-.04.989-.075.81-.088 1.644-.21 2.362-.317.806-.12 1.468-.243 2.081-.384a8.34 8.34 0 00.752-.214l.059-.017.24-.075c.317-.095.634-.215.957-.34l.2-.075.65-.233h-.048a3.29 3.29 0 00.407-.127l.039-.013a4.3 4.3 0 00.269-.095l.109-.04.04-.013a1.61 1.61 0 00.332-.12c2.262-.813 4.571-1.72 6.607-2.522l.064-.026.06-.023.963-.38.52-.204c.627-.245 1.24-.486 1.846-.749l.355-.152c1.089-.47 2.192-.946 3.154-1.597a31.971 31.971 0 001.808-1.31c.513-.404 1.019-.843 1.426-1.195l.034-.03.12-.102c.43-.374.852-.762 1.32-1.193l.28-.257c.152-.14.299-.29.444-.439l.057-.058.16-.161.142-.14.07-.066.054-.054a8.82 8.82 0 00.418-.424c.098-.109.199-.217.3-.326l.08-.088.093-.1.032-.034c.33-.353.737-.792 1.11-1.242a61.606 61.606 0 001.443-1.786 24.435 24.435 0 001.417-2.016 7.609 7.609 0 00.748-1.634c.093-.284.135-.594.168-.842l.015-.113a2.15 2.15 0 000-.499 3.274 3.274 0 00-.106-.56 17.03 17.03 0 00-.246-.507c-.405-.549-.867-.882-1.45-1.05a3.95 3.95 0 00-1.095-.152c-.05 0-.1 0-.149.002-.604.022-1.205.165-1.735.29-.58.138-1.144.311-1.688.478l-.042.013-.033.01-.341.106c-.927.285-1.66.533-2.306.783-.488.187-1.032.403-1.714.683l-.356.144-.47.19-.168.069-.11.043c-.997.405-2.24.91-3.418 1.364-1.388.49-2.781.947-4.14 1.356a42.55 42.55 0 01-2.319.629l-.229.058-.933.225-.304.074-.029.007-.035.008c-.453.11-.914.223-1.374.292a8.188 8.188 0 01-.607.026c-.062 0-.126-.001-.187-.004a5.52 5.52 0 01-.654-.15A5.415 5.415 0 0118.2 6.9l-.04-.036-.021-.019a5.751 5.751 0 01-.505-.822 8.566 8.566 0 01-.565-1.593c-.052-.21-.097-.425-.141-.636l-.008-.036-.008-.038a16.539 16.539 0 00-.257-1.077l-.033-.115c-.115-.405-.233-.823-.44-1.223-.193-.378-.55-.7-1.006-.907A1.755 1.755 0 0014.06.271z" fill="#000" mask="url(#b)"/></g><path d="M238.016 238.173l.08.058.577.413c.094.067.193.127.293.187l.074.045.385.233.412.25.195.118.098.06c.215.133.43.265.65.389l.05.028 1.286.724c.752.425 1.402.792 2.063 1.18l1.517.889.239.137.048.028c.14.082.28.163.418.249l.643.401.56.351.996.624.434.289.77.512-.039-.037a75.1 75.1 0 001.885 1.327l1.06.716 1.418.96c.231.156.469.305.705.452l.23.146 1.605 1.012c.611.386 1.222.773 1.83 1.165l.423.273c.518.333 1.037.667 1.555 1.003l.438.295.088.059c.58.39 1.16.78 1.745 1.167-.01-.016-.01-.017-.03-.034.83.567 1.669 1.124 2.508 1.68l-.04-.04c.287.204.595.39.866.555l.107.065.6.364 1.022.624c.601.366 1.204.73 1.81 1.09 1.305.774 2.609 1.548 3.914 2.32l1.055.627c.215.127.424.26.633.394l.302.192 1.166.732c.506.316 1.014.653 1.463.95.259.172.515.343.774.511 1.477.963 2.956 1.925 4.44 2.88.62.4 1.238.803 1.856 1.206l.08.053.163.106a287.623 287.623 0 004.47 2.87l.297.19c.232.148.464.295.701.436l.857.509.56.333c.923.548 1.92 1.1 2.72 1.54.58.321 1.158.64 1.73.966a283.6 283.6 0 013.179 1.842l.467.272.783.457c.187.109.372.22.557.33l.05.03.067.04c.454.27.926.552 1.405.801.362.19.728.359 1.119.519.571.233 1.04.386 1.473.48l.35.079a7.39 7.39 0 001.213.155c.186 0 .405-.033.565-.057l.051-.007a5.595 5.595 0 001.055-.257l.354-.117c.34-.112.645-.213.955-.296l.503-.134c.15.079.302.157.458.235l.1-.049.084-.043.269-.14c.261-.133.518-.296.726-.426.236-.062.459-.117.681-.17.508-.12.908-.471 1.043-.919l.041-.026.042-.028.03-.018.217-.143a276.102 276.102 0 013.992-2.564 301.92 301.92 0 004.065-2.61c.782-.514 1.548-1.03 2.397-1.604l.131-.09.044-.03 1.038-.702c1.38-.928 2.76-1.855 4.143-2.78 1.702-1.137 3.518-2.353 5.333-3.582.653-.443 1.304-.89 1.955-1.336l.159-.109c.894-.611 1.782-1.22 2.676-1.82l.914-.587.1-.064c.92-.589 1.748-1.12 2.544-1.65l.402-.268.272-.18c1.224-.813 2.44-1.622 3.655-2.433.986-.657 2.03-1.388 3.39-2.37a690.088 690.088 0 013.917-2.802l.03-.02.027-.02.248-.166.034-.023c.304-.205.65-.438 1.003-.647l1.022-.602 1.081-.637 1.277-.752.089-.052.454-.268c-1.133-.408-2.25-.839-3.288-1.408l-.08.047-.067.04-.411.24c-.577.337-1.154.676-1.729 1.015-.182.107-.36.226-.531.341l-.034.024c-.097.066-.191.13-.287.192-.109.072-.22.143-.33.214-.241.154-.52.333-.783.521l-1.685 1.197-.348.247c-.375.266-.75.534-1.124.803l-.366.262-.278.2c-.63.454-1.262.908-1.896 1.357-.888.63-1.824 1.25-2.649 1.8l-.452.302.206-.112-.305.177a364.354 364.354 0 01-4.37 2.863l-.215.14c-.907.58-1.93 1.236-2.897 1.91a495.555 495.555 0 01-7.687 5.22 1474.368 1474.368 0 00-8.04 5.403c-1.405.92-2.593 1.692-3.826 2.47l-.188.117-.072.045-.08.051a229.365 229.365 0 00-3.386 2.161c-.656.431-1.317.857-1.98 1.28l-.194.124-.103.066-.084.053c-.234.15-.47.3-.712.444l-.454.104-.148.036-.11.025c-.393.093-.783.196-1.146.293l-.11.03c-.43.116-.865.233-1.304.311l-.042.001c-.043 0-.086-.001-.127-.004a8.685 8.685 0 01-1.233-.306 14.444 14.444 0 01-1.967-.967c-.707-.41-1.414-.819-2.124-1.224l-1.086-.625-.16-.093-.1-.058c-1.039-.598-2.112-1.217-3.186-1.8l-.281-.154c-.699-.38-1.387-.754-2.071-1.134-.833-.464-1.65-.938-2.485-1.423a55.636 55.636 0 01-1.406-.858l-.052-.032-.211-.132-.426-.264c-.565-.35-1.125-.704-1.686-1.058l-.25-.159-.117-.074c-1.855-1.177-3.713-2.35-5.573-3.522l-.127-.08-3.29-2.078c-.616-.389-1.43-.9-2.272-1.408l-1.18-.71c-.24-.145-.486-.283-.732-.42l-.357-.2c-1.594-.907-3.183-1.818-4.773-2.73-.532-.305-1.06-.617-1.587-.928l-.236-.139-.605-.356-.956-.56c-.201-.119-.396-.246-.592-.373-.108-.07-.216-.14-.325-.208l-1.022-.65a201.188 201.188 0 00-3.3-2.07 634.093 634.093 0 00-5.019-3.034 90.556 90.556 0 01-1.879-1.155l-.613-.39-.365-.23c-.412-.261-.823-.523-1.237-.783l-1.383-.871a13.837 13.837 0 00-.744-.427c-.136-.075-.257-.141-.376-.208-.566-.32-1.135-.635-1.704-.95l-.712-.394c-.54-.3-1.111-.6-1.614-.866l-.692-.366c-.643-.342-1.332-.697-2.105-1.087a335.336 335.336 0 01-3.559-1.824 10.97 10.97 0 01-.436-.245l-.146-.083a23.381 23.381 0 00-.277-.156 18.087 18.087 0 01-.516-.295l-.136-.082a15.3 15.3 0 00.01 1.173M152.39 396.202l.571-.195a3.35 3.35 0 00-.256-.15c.579-.177 1.16-.362 1.738-.547 1.496-.476 2.963-.994 3.935-1.342l.05-.018c.812-.29 1.625-.58 2.436-.872a.976.976 0 00.075-.03c.093.061.169.108.245.155l.081-.016c.192.131.387.263.58.397.27.187.53.396.76.58l.136.108.026.021c.257.204.51.407.736.619l.284.266c.435.407.87.816 1.315 1.218.13.117.265.231.398.345l.047.042c.088.073.175.148.26.222.16.137.312.278.464.419l.036.034.16.148c.21.207.418.417.626.627.376.38.752.761 1.144 1.13.286.269.58.534.874.798l.067.061.058.053c.297.267.594.533.881.805l.087.086c.65.635 1.321 1.293 2.142 1.836a25.04 25.04 0 001.654.99c-.27.189-.528.395-.768.589a35.62 35.62 0 00-1.764 1.56 46.805 46.805 0 00-1.998 1.97 62.41 62.41 0 01-.97.974l-.529.525a1.559 1.559 0 00-.2.202c-.11.102-.225.203-.34.305a49.42 49.42 0 01-1.759 1.456l-.43.345c-.81.654-1.665 1.356-2.417 2.123a108.22 108.22 0 01-1.98 1.967 207.915 207.915 0 01-5.874 5.401c-.783.692-1.562 1.406-2.317 2.097l-.027.024-.645.59c-.368.337-.728.68-1.089 1.021l-.071.067c-.474.451-1.011.962-1.552 1.441l-.401.358-.88.784-.218.195c-.29.262-.569.512-.862.746-.825.662-1.758 1.234-2.641 1.763l-.159.085c-.768.416-1.562.847-2.44 1.166-.473.125-.974.202-1.459.277-.48.07-.94.132-1.397.192l-.053.007-.794.075c-.223.022-.453.033-.675.043l-.037.002-.3.013c-.624.034-1.127.055-1.587.067a19.6 19.6 0 01-.64.01c-.722 0-1.455-.033-2.235-.101-1.32-.145-2.49-.37-3.58-.688a13.503 13.503 0 01-2.122-.925c-.773-.472-1.474-1.013-2.153-1.535l-.393-.302a31.47 31.47 0 01-1.682-1.397 37.42 37.42 0 01-.724-.732c-.26-.27-.497-.56-.726-.84l-.13-.16c-.392-.473-.773-.95-1.155-1.428l-.11-.138-.397-.498a51.228 51.228 0 01-1.622-2.11c-.484-.678-.908-1.39-1.28-2.019-.277-.53-.542-1.054-.748-1.614-.221-.608-.469-1.332-.627-2.087a6.048 6.048 0 01.027-1.633c.063-.289.138-.551.23-.8.029-.082.067-.16.108-.238.155-.257.331-.488.538-.707.375-.343.777-.679 1.132-.974.267-.223.53-.442.786-.665.23-.202.458-.406.684-.61l.309-.276c.3-.27.662-.506 1.012-.736l.15-.098c.36-.236.718-.473 1.076-.71 1.235-.818 2.636-1.745 4.042-2.57 1.335-.743 2.845-1.339 4.303-1.914l.033-.013.17-.066.818-.325a87.605 87.605 0 012.95-1.131 368.88 368.88 0 017.766-2.671l.297-.093.27-.084c.483-.151.967-.302 1.449-.455l.62-.195c.44-.136.99-.308 1.498-.485.583-.202 1.165-.41 1.746-.617l.265-.094c.739-.264 1.503-.537 2.26-.793.246-.083.49-.168.736-.253l.048-.016c.473-.163.96-.332 1.445-.487l.25-.08.245-.078.077.208.005.003h.002zm53.518.025c-.581-.29-1.272-.384-1.931-.455-.498-.053-.993-.1-1.49-.15l-.228-.022c-.74-.084-1.491-.156-2.22-.227-.35-.034-.703-.068-1.053-.104-.476-.054-.953-.103-1.431-.152l-.879-.096-.003-.002a99.049 99.049 0 01-4.87-.63c-.452-.07-.904-.136-1.356-.204-1.196-.176-2.434-.357-3.62-.619a93.754 93.754 0 01-2.534-.599c-.397-.1-.808-.19-1.205-.277a43.728 43.728 0 01-1.119-.254c-1.349-.332-2.713-.685-4.033-1.026l-.923-.238c-.548-.142-1.096-.28-1.645-.419-.77-.195-1.542-.39-2.31-.59a68.183 68.183 0 01-1.743-.492 57.853 57.853 0 00-1.865-.522c-.39-.1-.78-.205-1.172-.309l-.278-.073c1.622.39 3.262.767 4.709 1.099l.061.013.035.007c1.09.251 2.181.501 3.27.755 2.493.526 5.125 1.047 7.24 1.465l.174.034.499.099.124.024 3.204.639c.852.155 1.749.287 2.47.393l.133.02c.422.063.835.124 1.249.189l1.588.252c1.172.188 2.345.374 3.518.553l2.29.346.275.04c2.516.38 5.369.811 8.161 1.266l-.727.512a1.602 1.602 0 00-.365-.246zM164 387.937a.1.1 0 00.009-.026l.991.133-1-.107zm104.786 14.525a95.897 95.897 0 00-.76-.006c-.516-.003-1.041-.006-1.554-.027l-1.16-.042-.382-.014h-.034c-.948-.034-1.929-.068-2.893-.119-.473-.024-.947-.046-1.422-.068-1.46-.068-2.941-.138-4.382-.27-1.803-.199-3.53-.477-5.603-.82a88.199 88.199 0 00-.668-.11l-.115-.019-.037-.007a75.628 75.628 0 01-2.28-.396l-.431-.084-.355-.069-.072-.014a69.32 69.32 0 01-2.547-.525c-.19-.043-.38-.085-.572-.126-.375-.08-.763-.164-1.131-.268l-.77-.22-.77-.221c-1.156-.386-2.118-.714-3.071-1.132a33.328 33.328 0 01-2.833-1.394 12.076 12.076 0 01-.953-.635 10.91 10.91 0 00-1.02-.66l-.792-.462c-.583-.341-1.164-.68-1.743-1.025-.763-.455-1.595-.961-2.47-1.505-.47-.292-.954-.568-1.322-.775.731-.243 1.148-.929.927-1.525-.12-.325-.415-.61-.807-.78a2.066 2.066 0 00-.764-.168l.069-.209.062-.216c.206-.706.409-1.411.611-2.119l.139-.483.023-.084c.456-1.591.927-3.236 1.416-4.848.604-1.99 1.317-3.951 1.87-5.436.19-.51.407-1.041.582-1.467l.026-.065c.132-.324.264-.646.392-.97l.224-.579c.235.101.514.157.9.184l.648.044c1.122.078 2.315.159 3.478.22l1.932.103 1.928.1.387.023.206.013.078.003c.422.026.857.05 1.285.062l1.717.046 1.716.045c1.09.029 2.082.043 3.032.043.757 0 1.434-.008 2.071-.026a338.905 338.905 0 016.02-.113c1.326 0 2.672.06 3.974.118l.47.02c1.436.063 2.878.19 4.272.314l.526.046c2.576.272 4.577.643 6.295 1.17l.973.298 1.68.515.833.289c1.662.572 3.363 1.159 4.96 1.844l1.751.75c.317.136.626.285.968.45l.45.216c.771.363 1.518.77 2.241 1.165l.267.146c.793.472 1.478.915 2.094 1.354.32.227.64.474.921.691l.176.135.151.117c.254.194.543.414.807.645.447.471.832.997 1.213 1.652l.404.69c.202.405.344.785.43 1.161.046.202.09.403.132.603.218 1.326.258 2.684.12 4.04-.128.576-.28 1.085-.463 1.554a15.06 15.06 0 01-.761 1.603l-.026.042-.29.482a8.071 8.071 0 01-1.19 1.503c-1.164 1.06-2.553 1.94-3.757 2.661-.695.377-1.457.702-2.326.993-.617.183-1.267.353-1.932.509-.642.15-1.326.305-2.007.413-.452.071-.903.143-1.354.216l-.678.108a93.954 93.954 0 01-3.234.444l-.745.052-.76.053-.732.052c-.495.034-.998.05-1.51.063l-.272.009-.272.008a37.643 37.643 0 01-1.825.02zM54.68 373.29c.798-.226 1.59-.415 2.327-.586.234-.055.471-.103.708-.151l.073-.016.337-.072.336-.072.061-.013c.278-.06.552-.12.826-.17.966-.171 2.016-.332 2.783-.449l.151-.023a157.65 157.65 0 002.078-.328l.303-.05a201.1 201.1 0 002.24-.38 127.94 127.94 0 002.802-.544c1.754-.351 3.504-.78 5.196-1.194l.1-.025.065-.017a62.87 62.87 0 006.72-2.067c2.603-.95 5.013-2.097 7.23-3.195.503.184.955.359 1.377.534a17.17 17.17 0 011.245.576c1.427.724 2.78 1.485 4.277 2.334l.564.305.075.04.257.14c.269.145.533.289.8.431 1.134.41 2.262.825 3.388 1.242a14.48 14.48 0 00-.242.767c-.37.318-.693.647-.96.979-.136.17-.247.36-.328.507-.17.102-.3.218-.383.345-.41.633-.677 1.17-.836 1.69-.18.6-.316 1.198-.41 1.83-.054.351-.07.712-.085 1.061l-.008.165c-.005.128-.01.248-.018.37a14.53 14.53 0 01-.145 1.279 4.364 4.364 0 01-.264.816 15.79 15.79 0 01-.633-.039 46.806 46.806 0 01-1.912-.246 14.52 14.52 0 01-1.807-.393 19.15 19.15 0 01-1.042-.418 8.119 8.119 0 01-.662-.344 59.89 59.89 0 00-1.052-.607 1.663 1.663 0 00-.54-.358 2.069 2.069 0 00-.338-.113c-.138-.069-.28-.139-.423-.207-.802-.382-1.708-.643-2.569-.87-.926-.24-1.932-.347-2.794-.42a33.272 33.272 0 00-2.53-.116h-.267c-1.609 0-3.273.065-4.947.193-.92.072-1.843.156-2.736.236l-.043.004-.164.014-.036.004c-.767.07-1.523.139-2.281.2-3.144.261-6.038.387-8.852.387a119.305 119.305 0 01-8.857-.33c-.572-.06-1.178-.132-1.766-.275a.778.778 0 01-.07-.027l.01-.075c.033-.1.071-.2.116-.3.097-.143.206-.28.334-.42.293-.237.627-.452.886-.612.176-.089.352-.174.533-.254.001.095.064.194.17.274a.83.83 0 00.437.146l.04-.002c3.833-.318 7.753-.65 12.712-1.077l.407-.034.04-.003.107-.01.832-.074.064-.007-.057-.014 1.29-.106.975-.097.068-.006 3.127-.307-.156-.006c.436-.021.884-.07 1.316-.118l.102-.01.587-.065.563-.06a60.53 60.53 0 001.195-.13l1.096-.132 1.103-.135c.69-.084 1.409-.196 2.262-.352a.588.588 0 00.368-.205.358.358 0 00.069-.356c-.075-.198-.32-.333-.612-.333-.05 0-.101.005-.155.012a39.58 39.58 0 01-2.25.327l-1.102.127-1.103.126c-.36.042-.72.079-1.081.114l-.574.057-.598.061-1.36.14-2.879.275-1.678.16c-.878.084-1.758.16-2.634.233l-.42.036c-3.76.324-7.196.613-10.499.888l.03-.01zm139.534-21.242l-.215-.063.033-.033.312.133-.13-.037zm-3.14-.336c-1.087-.32-2.44-.718-3.731-1.081a441.39 441.39 0 01-2.344-.668c.127-.105.255-.217.38-.328l.189-.166.097-.085.546.215.076.03.23.09 1.701.656.772.297c.411.158.823.314 1.236.47l.174.066.168.065c.48.182.957.363 1.431.55l-.108.13-.818-.241zM202 353.058a6.85 6.85 0 01.128-.13l.056-.056.057-.055c.1-.099.194-.2.285-.3.357-.396.742-.82 1.15-1.234a29.1 29.1 0 01.34-.331c1.633-1.479 3.503-2.975 5.716-4.574l.393-.238c.256-.153.51-.308.765-.462l1.002-.61c1.12-.684 2.241-1.367 3.37-2.043.176-.128.299-.283.369-.46a.775.775 0 00.035-.422l.154-.1.16-.108 1.365-.935 1.365-.935.366-.252c.322-.224.724-.505 1.126-.752l4.865-2.992.028-.017 2.006-1.081 1.901-1.024.926-.5.111-.061a4.74 4.74 0 01.23-.121l.991-.467.99-.465.12-.057 2.043-.959c.353-.165.72-.319 1.044-.453.186-.077.35-.146.514-.216l2.263-.969c1.812-.775 3.656-1.454 5.06-1.958a95.698 95.698 0 011.706-.598c-.42.173-.86.371-1.394.617l-.519.237c-.475.215-1.012.458-1.503.723-.638.346-1.274.693-1.902 1.047a591.38 591.38 0 00-3.043 1.73l-.318.182-.785.447c-.55.313-1.08.649-1.594.975-.236.15-.472.298-.709.446l-.225.14a213 213 0 01-1.047.647l-1.101-.02-1.061-.017c-.319 0-.576.189-.576.42 0 .23.253.414.576.42l.811.013a85.79 85.79 0 00-1.798 1.022l-.1.057c-.503.291-.994.576-1.489.859l-.416.233c-.408.229-.913.513-1.411.762l-.536.264c-.491.24-.997.487-1.472.752-.84.466-1.68.952-2.494 1.422l-.325.187-1.058.608a71.2 71.2 0 00-1.84 1.09c-.434.265-.84.565-1.23.856l-.035.025c-.127.095-.256.191-.384.284-.814.594-1.572 1.238-2.305 1.86-.24.206-.473.405-.71.6a19.4 19.4 0 01-.823.638l-.339.255c-.43.326-.844.656-1.19.936-.145.116-.287.236-.429.354l-.04.035c-.218.182-.445.371-.678.548-.25.19-.504.376-.76.561l-.454.33a22.38 22.38 0 00-1.196.934l-.403.345c-.265.229-.53.456-.8.681l-.07.06-.075.064c-.741.622-1.509 1.265-2.241 1.912a316.62 316.62 0 00-1.509-.606zm38.498-42.685c-.49.1-.874.117-1.27.094.046.154.096.304.15.453a6.245 6.245 0 01-1.876.308c-.401 0-.865-.051-1.305-.144l-.114.038c-1.24.342-2.553.523-3.822.698l-.926.131-1.27.187-.644.094c-1.06.155-2.118.31-3.176.468l-2.227.339c-2.616.4-5.58.856-8.487 1.195l-.918.108c-.709.086-1.512.183-2.31.263l-3.577.358c-.364.027-.73.057-1.095.087l-.21.017-.058.005a136.64 136.64 0 01-3.503.265l-1.343.083-.056.003c-1.399.087-2.82.176-4.217.225l-1.632.058-1.558.054c-.58.024-1.145.025-1.938.025h-.244l-.245.001-.25.001-.249.001c-.42.004-.841.006-1.262.006-.938 0-1.877-.008-2.816-.015-.537-.005-1.074-.01-1.61-.013-.956-.004-1.893-.023-3.02-.048l-.43-.009-.438-.009-.451-.008-.668-.01-.457-.008h-.096l-.153-.003c-.83-.013-1.773-.029-2.68-.059-5.292-.167-9.39-.3-13.466-.452h-.08c-.408 0-.813.12-1.14.34a.35.35 0 00-.08-.154c-.202-.255-.539-.446-.926-.526-.164.082-.312.162-.461.243-.622.337-1.405.621-2.263.822a9.36 9.36 0 01-1.16.207l-.246.028c-.284.033-.576.066-.855.085-.913.264-1.854.499-2.879.72-.69.148-1.382.294-2.073.44l-.174.036-1.735.366-.17.035c.026-.128.038-.262.048-.394.021-.233.021-.462.02-.697v-.06a7.672 7.672 0 01-.584.138l-.188.034-.03.016c-.241.139-.485.274-.732.406-.6.322-1.208.638-1.823.944l-.337.167a.953.953 0 00.025.207l-.765.159c-1.663.816-3.367 1.595-5.254 2.093-.264.07-.534.146-.814.177-.537.058-1.106.198-1.647.146l-1.357-.135c-.327-.102-.654-.203-.979-.306a4.932 4.932 0 01-.555-.253c-.524.06-1.082.13-1.618.203a125.02 125.02 0 00-5.078.828l-1.215.223-.043.008-.037.008-.176.032c-.882.162-1.794.33-2.704.484a15.65 15.65 0 01.105-1.504 4.637 4.637 0 01-.773.226 6.28 6.28 0 01-2.328-.01 5.102 5.102 0 01-.592-.162c-.039.385-.066.756-.091 1.093-.02.28-.025.569-.015.86l.005.033-2.013.227-.046.005-.105.012-.327.035c-.577.065-1.153.129-1.73.192l-.003-.078-.013-.084-2.018.145c-.558.04-1.116.08-1.67.123.004.103.016.2.03.296l-.266.018-.281.028a204.829 204.829 0 01-5.389.381c-.747.046-1.493.091-2.241.144-2.38.172-4.97.399-7.921.69-.85.083-1.673.148-2.517.2a55.88 55.88 0 01-.929.054l-.155.008a65.4 65.4 0 00-1.334.078c-.591.046-1.28.111-1.907.26a4.89 4.89 0 00-1.198.44 9.87 9.87 0 00-.637.377c-.244.157-.44.381-.612.58l-.032.038a2.696 2.696 0 00-.286.418l-.053.092c-.147.25-.279.501-.39.713a17.61 17.61 0 00-.24.492l-.12.25-.021.047a23.5 23.5 0 00-.325.698 50.405 50.405 0 00-1.508 3.907c-.443 1.306-.83 2.63-1.207 3.911l-.025.084a161.748 161.748 0 00-1.071 3.83 54.546 54.546 0 00-.9 4.038c-.15.795-.313 1.59-.477 2.384l-.03.148c-.108.52-.21 1.014-.307 1.509-.12.593-.22 1.245-.287 1.678l-.005.037-.085.542a5.58 5.58 0 00-.061.573l-.013.154-.022.215-.014.116-.005.043a7.11 7.11 0 00-.055.706l-.008.68-.009.7c-.005.364-.007.752.021 1.12.021.288.044.611.116.923.07.304.226.564.391.84.12.194.268.35.412.5l.043.045c.225.233.487.471.826.75.564.462 1.246.84 1.842 1.155.648.347 1.39.64 2.337.925.216.384.47.764.75 1.124a95.721 95.721 0 01-3.72 1.742 56.6 56.6 0 01-5.267 1.964c-.584.179-1.126.338-1.61.475l-.25.071c-.338.098-.799.231-1.235.334l-.702.165-.661.156-.547.13-.042.01-.05.011c-.614.145-1.25.295-1.886.425l-.365.075-.14.03-.077.015c-.72.145-1.465.296-2.19.43a108.852 108.852 0 01-6.035.937l-.313.042c-.467.061-.93.124-1.396.188-1.585.221-3.22.52-4.996.914-2.016.444-3.563.934-4.865 1.537-.421.195-.812.439-1.19.675l-.121.077c-.76.479-1.362 1.122-1.738 1.86a2.76 2.76 0 00-.187 2.092c.102.336.39.689.853 1.048.189.143.424.256.651.365l.064.031c.285.138.627.231.93.312l.217.06c.511.143 1.086.198 1.594.249l.13.012.063.006.2.021c.45.05.909.085 1.352.12l.123.009.28.021c.722.055 1.46.09 2.173.124l.416.018a74.26 74.26 0 002.074.061l.051.002.5.01.219.006c.76.017 1.57.035 2.357.035h.07c3.232 0 6.732-.18 10.697-.552 2.645-.246 5.367-.5 8.096-.5a38.516 38.516 0 013.041.117c.268.031.58.069.897.127.43.08.881.18 1.38.309.418.139.768.271 1.101.415.197.086.392.177.595.279.21.318.487.579.732.809.161.149.342.285.527.423l.03.025.158.118c.187.139.399.262.604.381l.1.058.03.018c.336.196.718.418 1.117.622.256.13.526.254.828.381.418.178.876.306 1.278.418.402.114.842.155 1.23.19l.151.015c.276.026.564.04.854.04 1.12 0 2.303-.2 3.418-.58.836-.282 1.512-.64 2.008-1.06a4.432 4.432 0 001.306-1.9c.144-.41.185-.852.222-1.242l.013-.134c.022-.23.026-.46.027-.694v-.025c.008-.73.017-1.56.111-2.381a1.04 1.04 0 00.249-.082c.296-.128.47-.313.653-.508.096-.101.158-.204.213-.295a2.06 2.06 0 01.077-.13c.213-.334.409-.68.6-1.012l.064-.102.178-.284.119-.194.189-.307c.141-.231.304-.5.452-.77l.016-.029.015-.03.21.088.236.088c1.275.478 2.6.935 3.665 1.303l.775.27c.996.346 2.122.74 3.243 1.082 3.113.953 6.227 1.903 9.343 2.847l.32.097 1.094.332.227.071.234.075c2.398.759 4.87 1.542 7.298 2.321l.714.23 2.162.694.27.087c.383.126.756.247 1.139.358l3.03.89.2.053.144.037c1.685.44 3.372.878 5.06 1.316 4.249 1.107 8.826 2.237 14.845 3.66a2.42 2.42 0 00-.217.14c-.459.324-.912.705-1.427 1.199a1.55 1.55 0 00-.486 1.258.918.918 0 00-.19.179.639.639 0 00-.147.391l.719.377c.09.118.2.227.317.323.357.286.804.482 1.237.673a31.395 31.395 0 01.716.324l-.168.053-.12.044c-.7.25-1.423.51-2.145.75l-3.004.995a369.757 369.757 0 00-5.167 1.607c-.83.264-1.658.536-2.483.809l-.313.103c-.55.182-1.1.363-1.651.542l-1.089.308-.337.096c-.985.276-1.873.528-2.748.795-.913.278-1.825.56-2.736.84l-.67.208-1.12.345-.724.22c-1.303.397-2.65.807-3.958 1.266a214.648 214.648 0 00-4.13 1.507l-.22.083c-.348.129-.694.26-1.04.39l-.04.015c-.704.263-1.403.586-2.196 1.016-.639.346-1.296.726-2.131 1.234l-1.278.78c-.786.48-1.571.96-2.364 1.435-.26.156-.507.314-.736.469a6.29 6.29 0 00-.6.488l-.173.15c-.527.456-1.022.87-1.516 1.264l-.137.109-.028.023c-.494.395-1.005.803-1.43 1.248a3.733 3.733 0 00-.475.599c-.047.075-.091.15-.136.226l-.057.097a7.176 7.176 0 00-.327.614 3.1 3.1 0 00-.174.533l-.026.095a6.992 6.992 0 00-.218 2.454c.061.608.234 1.213.405 1.782l.034.112c.145.481.294.98.504 1.46.546 1.237 1.282 2.396 2.052 3.571.519.79 1.142 1.555 1.744 2.294.16.195.318.39.476.586l.259.324.026.033c.675.843 1.373 1.715 2.156 2.53 1.011 1.05 2.226 1.999 3.286 2.805.207.156.413.31.62.463l.158.12c.63.47 1.347.914 2.194 1.354.953.499 2.005.831 2.907 1.09.975.28 2.062.48 3.421.63a29.07 29.07 0 003.196.192h.1a41.377 41.377 0 001.983-.07l.252-.012.123-.005c.259-.01.491-.021.725-.042l.646-.061.644-.061a34.597 34.597 0 002.647-.363c.284-.047.587-.103.878-.183a11.35 11.35 0 001.463-.515c.525-.222 1.034-.497 1.485-.74l.11-.059c1.625-.871 2.851-1.65 3.855-2.451.366-.292.715-.608 1.052-.913l.03-.027.092-.084c.11-.1.22-.2.331-.297l.267-.235.128-.112c.327-.285.644-.564.94-.847 1.688-1.616 3.597-3.352 6.011-5.465a130.108 130.108 0 003.643-3.325c1.332-1.254 2.63-2.483 3.867-3.734l.094-.086.043-.04c.285-.261.58-.53.886-.785.415-.346.833-.688 1.257-1.027.78-.626 1.586-1.274 2.34-1.966.106-.079.2-.166.275-.258.022-.02.022-.02.022-.022l.072-.069.076-.072a.986.986 0 00.039-.041l.167-.166.166-.165.32-.322c.15-.15.3-.298.452-.447l.058-.057c.204-.2.406-.4.602-.603.318-.33.642-.654.967-.979.99-.918 1.891-1.74 2.918-2.5.108-.081.22-.16.333-.24l.046-.032c.14-.1.281-.202.417-.305.263-.203.483-.398.676-.598.8.78 1.554 1.612 2.05 2.169.462.516.91 1.076 1.334 1.666.193.27.376.562.558.89l.048.03a1.897 1.897 0 00.874.431c.234.089.452.15.668.188l.225-.084.269-.103.23-.086.328-.123.218-.082a46 46 0 01.494-.25l.077-.039.28-.136a42.944 42.944 0 011.594-.708l.334-.144a72.236 72.236 0 012.965-1.18l.13-.051c1.66-.664 3.156-1.273 4.575-1.864l.133-.057.12-.05-.07-.002.033-.01a197.84 197.84 0 016.928-3.672c.332-.168.663-.339.992-.51l.284-.146.317-.164c.569-.295 1.16-.627 1.916-1.075a32.06 32.06 0 001.574-.986 85.862 85.862 0 002.223-1.55 1.2 1.2 0 00.395-.49c1.455.235 2.552.415 3.54.582-.187.1-.37.213-.552.326l-.056.035-.13.08-.263.165c.48-.027.785-.04 1.057-.04.121 0 .244.003.366.008.384.018.77.033 1.155.043.278.009.556.013.833.013a49.514 49.514 0 001.85-.045 4.61 4.61 0 01.167-.003h.085a4.824 4.824 0 012.195.608l.02-.082.018-.14c.022-.179.041-.356.061-.534l.019-.167c.036-.347.073-.686.12-1.023a.71.71 0 00.132.01c.16 0 .319-.018.473-.053.282-.063.522-.13.758-.213l.14-.047.14-.049.573-.326.085-.077c.155-.139.316-.283.424-.453.114-.177.198-.339.266-.508.103-.262.194-.535.291-.858l.062-.204.01-.038.16.098.173.096c.284.169.563.34.842.513l.096.059.096.059c.269.166.538.332.811.495l.137.082.196.117c.59.35 1.18.702 1.774 1.048.159.093.321.185.483.278l.144.082c.478.275.956.549 1.413.83.177.111.346.234.509.352l.091.067.138.097c.418.296.858.553 1.271.788 1.517.858 2.922 1.516 4.294 2.013l.114.042c.833.302 1.688.613 2.558.86l.896.256.638.18c.266.077.544.139.813.198l.28.061c.954.22 1.753.393 2.516.54l.715.144.081.017c.545.11 1.11.223 1.67.315l1.133.188c2.526.422 5.138.858 7.772 1.116 1.059.103 2.146.155 3.196.206l.047.003.93.044.454.024.187.01c.546.027 1.094.055 1.64.076l1.804.07 1.81.07c.585.024 1.17.03 1.82.037l.679.007c.193.003.388.004.581.004 1.755 0 3.5-.105 4.823-.197.09-.007.182-.013.272-.018l.145-.008.035-.003c.387-.025.787-.05 1.174-.099a802.54 802.54 0 001.526-.19c.883-.11 1.765-.252 2.618-.388l.249-.039 1.142-.181a33.17 33.17 0 003.183-.7c1.295-.337 2.374-.705 3.3-1.124.545-.246 1.047-.543 1.535-.83a47.326 47.326 0 001.578-.974 16.79 16.79 0 002.565-2.053 10.6 10.6 0 00.982-1.074c.157-.2.288-.424.405-.621l.119-.2c.447-.738.818-1.428 1.135-2.107a7.963 7.963 0 00.605-1.772c.157-.77.285-1.464.265-2.179a39.703 39.703 0 00-.087-1.98c-.054-.73-.213-1.45-.384-2.188-.148-.646-.462-1.232-.748-1.722l-.204-.352-.015-.027c-.27-.467-.548-.949-.888-1.399-.577-.764-1.361-1.405-2.122-1.984a33.532 33.532 0 00-2.976-2.044 48.379 48.379 0 00-2.185-1.219l-.615-.33a9.877 9.877 0 00-.688-.33l-.05-.022a17.588 17.588 0 01-.377-.17l-.307-.147a18.98 18.98 0 00-.718-.331l-.594-.258-.133-.06-.051-.021a31.31 31.31 0 00-1.549-.65c-.2-.075-.397-.152-.596-.23l-.166-.064-.039-.015a43.28 43.28 0 00-1.616-.605l-2.843-.983-.054-.018c-.26-.091-.533-.172-.797-.25l-.33-.098c-.625-.192-1.253-.383-1.88-.574-1.586-.485-3.26-.854-5.118-1.129-1.223-.178-2.478-.283-3.692-.385l-.184-.015a67.623 67.623 0 003.315-1.83c1.173-.656 2.407-1.252 3.46-1.748.966-.452 1.925-.941 2.772-1.372l.103-.053.715-.364c.169-.086.337-.173.504-.26 1.388-.53 2.892-1.082 4.597-1.686l.222-.079.165-.089.093-.05c.96-.522 1.953-1.062 2.955-1.59.425-.224.852-.446 1.279-.667l.05-.027a130.93 130.93 0 002.856-1.515 444.794 444.794 0 003.654-2.051l.604-.341a158.66 158.66 0 004.571-2.665c1.4-.856 2.84-1.788 3.999-2.537l.104-.067a308.638 308.638 0 015.377-3.395l.19-.118c.803-.497 1.591-.985 2.37-1.48a43.488 43.488 0 001.833-1.24 162.89 162.89 0 012.05-1.425c.538-.37 1.08-.734 1.622-1.1l.034-.022.19-.128.178-.12c.552-.371 1.1-.74 1.647-1.113a82.943 82.943 0 003.846-2.792c.884-.684 1.706-1.492 2.511-2.472.746-.908 1.28-1.699 1.679-2.49.124-.25.221-.5.289-.745a10.74 10.74 0 00-.068-.583 40.76 40.76 0 00-.242-1.02l-.118-.483c-.07-.295-.134-.59-.198-.886l-.03-.138-.017-.078-.063-.285-.062-.285-.027-.113-.005-.027-.026-.11a9.321 9.321 0 00-.056-.239l-.022-.09-.019-.076-.011-.045-.03-.117-.015-.065a2.192 2.192 0 00-.025-.096l-.018-.072-.023-.09-.035-.13-.013-.049-.011-.044-.008-.031-.01-.034-.017-.067-.02-.068a26.98 26.98 0 00-1.174-3.408c-.495-.333-.972-.637-1.524-.989l-.06-.037a12.014 12.014 0 00-.676-.394l-.076-.041-.223-.125-.234-.135-.045-.025-.043-.025a14.05 14.05 0 00-.598-.327 76.934 76.934 0 00-.909-.453l-.073-.036-.082-.04-.094-.047c-.295-.145-.592-.29-.886-.438a127.487 127.487 0 01-3.751-1.95l-.57-.337-1.278-.755-.445-.26-.158-.091-.153-.088c-.389-.224-.77-.444-1.145-.671a85.917 85.917 0 01-2.094-1.306l-.133-.086a83.129 83.129 0 00-1.786-1.139c-.238-.147-.48-.29-.723-.433-1.81-.097-3.614-.187-5.418-.274-.529-.076-1.323-.188-2.097-.285a204.606 204.606 0 00-5.716-.61 251.705 251.705 0 00-5.429-.427c-.75-.052-1.498-.109-2.248-.167l-.093-.007c-.904-.07-1.837-.14-2.756-.201-3.82-.245-7.567-.482-11.422-.694-1.656-.09-3.306-.14-4.901-.188l-.083-.003-.321-.01c-1.379-.04-2.819-.093-4.127-.142l-.452-.018-.108-.005-1.222-.046c-1.19-.044-2.378-.094-3.567-.143l-.476-.02-.54-.024-2.148-.09a131.35 131.35 0 00-2.595-.07 269 269 0 01-1.27-.027 758.973 758.973 0 00-5.071-.108.725.725 0 00-.047-.233l-.03-.205a5.412 5.412 0 01-1.137-.041c-.32.16-.66.282-1.106.373zM151 296.035c.022.155.042.31.06.465.02-.168.038-.335.056-.5a6.153 6.153 0 01-.116.035m0 9.965c.078-.029.156-.055.237-.08a53.7 53.7 0 00.097-1.791 2.283 2.283 0 00-.155-.129 86.723 86.723 0 01-.179 2m19.088-94.855l-.088.02 1 .237a32.76 32.76 0 01-.289-.402c-.207.053-.415.1-.623.145m4.589-13.947a8.076 8.076 0 01-.55.457c-.465.267-.958.48-1.464.677-1.324.473-2.702.83-4.083 1.151-.447.104-.896.21-1.347.291-.463.081-.923.151-1.388.212-.727.072-1.452.14-2.182.176-.74.037-1.483.054-2.225.056a282.94 282.94 0 01-4.607-.032c-1.546-.023-3.092-.04-4.638-.07-.827-.017-1.654-.031-2.481-.043-.34-.005-.685.013-1.026.024-.406.013-.812.027-1.22.038-1.522.042-3.045.057-4.568.104-.822.025-1.645.05-2.467.064-.735.012-1.471.01-2.206.024-.786.015-1.574.032-2.357.106-.759.073-1.519.138-2.281.187-.332.02-.665.037-.997.064a29 29 0 00-1.482.167c-.71.096-1.408.238-2.11.375-.715.14-1.432.272-2.15.402-.677.123-1.35.258-2.03.369a22.53 22.53 0 00-2.197.468c-.721.195-1.42.46-2.099.746-.557.233-1.097.495-1.665.711l-.021.008c-.15.14-.297.282-.442.426-.397.53-.72 1.101-1.056 1.663a27.922 27.922 0 00-.912 1.644c-.63 1.396-1.141 2.856-1.426 4.337.04-.132.08-.263.123-.394.125-.379.252-.757.406-1.128.102-.25.214-.497.328-.742.12-.23.248-.454.395-.674.107-.161.23-.313.356-.462a7.387 7.387 0 011.039-.9 13.153 13.153 0 012.27-1.171c.445-.179.887-.36 1.32-.556.436-.198.869-.394 1.314-.575 1.53-.534 3.15-.811 4.757-1.111.867-.161 1.733-.325 2.597-.501.836-.17 1.672-.322 2.52-.44.63-.061 1.263-.103 1.896-.162.788-.072 1.575-.169 2.366-.225 1.522-.11 3.05-.123 4.573-.204 1.587-.083 3.173-.162 4.76-.233 1.52-.067 3.036-.192 4.559-.221 3.064-.06 6.131-.093 9.193-.202.83-.029 1.658-.065 2.485-.115a36.34 36.34 0 002.315-.239c.788-.098 1.57-.215 2.351-.354.291-.053.583-.13.868-.202.37-.093.74-.185 1.108-.282a94.17 94.17 0 002.422-.674 28.296 28.296 0 002.059-.686c.472-.176.932-.382 1.37-.615.389-.204.71-.486 1.025-.766a.633.633 0 000-.968.827.827 0 00-.549-.198c-.2 0-.399.066-.55.198M114 225c.023-.205.046-.41.067-.616.055-.515.039-1.031.028-1.547a93.487 93.487 0 00-.022-.837c-.03 1-.054 2-.073 3m0 10.49c0 1.452.008 2.902.018 4.354.008 1.154.055 2.307.08 3.462.05 2.23.082 4.463.12 6.694v-1.552c0-.307.012-.613.02-.919.007-.274.032-.547.054-.82.046-.38.097-.76.149-1.14.058-.43.14-.855.21-1.282.077-.459.161-.914.219-1.376.039-.32.067-.643.098-.964a7.334 7.334 0 00-.058-1.832 48.68 48.68 0 00-.48-2.668c-.084-.39-.174-.776-.248-1.17a15.54 15.54 0 01-.165-1.052L114 235v.49" fill="#000"/><path d="M115.246 268.393c.028 1.3.042 2.602.062 3.903.191.503.29 1.023.374 1.547.103.96.109 1.92.028 2.881-.04.482-.08.963-.125 1.443l-.062.652c.09 1.932.172 3.863.194 5.796.013 1.09.032 2.183-.017 3.273.016.135.03.27.044.405.065.63.12 1.278.095 1.91a69.988 69.988 0 01-.115 2.122c-.046.674-.137 1.35-.21 2.023-.144 1.322-.18 2.654-.239 3.98-.059 1.314-.152 2.627-.182 3.943-.029 1.319.015 2.636.046 3.956.033 1.386.054 2.77.055 4.157.001 1.29-.09 2.583-.125 3.874-.037 1.357-.06 2.714-.069 4.071-.007 1.108.167 2.21.183 3.318.011.738.707 1.353 1.572 1.353.87 0 1.553-.615 1.572-1.353.017-.651-.058-1.308-.106-1.958a24.649 24.649 0 01-.057-1.97c.008-1.28.03-2.56.074-3.839.046-1.325.116-2.651.116-3.977a154.161 154.161 0 00-.064-4.009c-.02-.749-.037-1.498-.05-2.246-.01-.67.013-1.339.027-2.008.03-1.301.136-2.6.194-3.9a64.77 64.77 0 01.284-4.057c.072-.66.135-1.32.181-1.98.043-.638.089-1.278.07-1.916-.043-1.39-.222-2.765-.447-4.138a22.19 22.19 0 01-.076-.664 13.77 13.77 0 01-.042-.884c-.01-.524.006-1.05.024-1.573.041-1.178.104-2.353.21-3.527.144-1.58.343-3.16.218-4.746-.038-.484-.126-.964-.203-1.444a8.812 8.812 0 00-.13-.635c-.099-.42-.275-.812-.471-1.203-.25-.502-.541-.987-.8-1.485a14.727 14.727 0 01-.665-1.609c-.234-.698-.41-1.41-.649-2.106-.202-.587-.452-1.162-.647-1.75a13.2 13.2 0 01-.29-1.023c.1 1.797.179 3.594.218 5.393m32.887-42.547c.098 1.11.168 2.218.219 3.33.04.908.052 1.816.062 2.723.01.886.007 1.77.034 2.655.014.447.038.892.082 1.337.042.432.12.86.195 1.29.14 1.025.212 2.06.141 3.093a40.7 40.7 0 01-.329 2.969c-.148.897-.304 1.8-.354 2.706-.055.984-.005 1.961.06 2.944.064.975.273 1.928.493 2.884.103.448.204.897.314 1.343.116.471.23.941.343 1.413.101.421.175.844.248 1.269.134 1.108.273 2.217.347 3.33.038.568.072 1.136.087 1.706l.025 1.03c.007.28.01.559.006.839a8.92 8.92 0 01-.112 1.175c-.094.514-.173 1.032-.292 1.542-.137.585-.268 1.172-.418 1.754-.314 1.227-.65 2.45-.958 3.68a61.28 61.28 0 00-.77 3.42c-.142.735-.26 1.47-.363 2.21-.082.576-.15 1.154-.223 1.731l-.032.255a76.58 76.58 0 01-.59 3.201 65.905 65.905 0 01-.407 1.804c-.147.616-.33 1.225-.5 1.837-.33 1.182-.672 2.36-1.008 3.542-.337 1.19-.666 2.383-.824 3.606-.07.55-.133 1.1-.182 1.651-.023.261-.009.529-.012.79-.005.28.019.558.031.837.041 1.012.14 2.023.176 3.036.02.565.036 1.125.024 1.69l-.02.827c-.006.3-.048.601-.072.9-.082 1.021-.223 2.038-.36 3.054-.145.917-.292 1.836-.43 2.754-.134.892-.226 1.79-.336 2.684-.105.844-.234 1.685-.359 2.526-.12.812-.223 1.626-.344 2.438-.092.562-.2 1.12-.316 1.679-.068.327-.124.656-.19.983-.091.45-.178.901-.216 1.358-.049.585.5 1.135 1.119 1.284.78.188 1.68-.225 1.873-.93.274-.996.458-2.01.645-3.023.213-1.145.354-2.3.515-3.45.144-1.014.302-2.024.427-3.038.133-1.087.266-2.172.426-3.256.19-1.19.37-2.38.519-3.574.078-.637.136-1.273.187-1.913.049-.609.054-1.217.068-1.827.01-.535-.027-1.074-.062-1.607-.04-.661-.084-1.322-.126-1.983a20.725 20.725 0 01-.062-1.602c.003-.287.003-.572.028-.858a25.577 25.577 0 01.14-1.293l.129-.722c.054-.31.14-.616.211-.923.117-.506.274-1.005.416-1.507.332-1.187.675-2.372 1.002-3.56.174-.63.351-1.26.5-1.894a58.727 58.727 0 00.686-3.37c.121-.69.256-1.384.34-2.08.112-.918.225-1.836.345-2.753.212-1.16.452-2.314.7-3.468.235-1.083.54-2.152.806-3.229.294-1.195.605-2.39.814-3.599l.172-.989c.068-.393.113-.79.15-1.185.046-.468.027-.933.01-1.401-.023-.63-.06-1.26-.102-1.89a33.895 33.895 0 00-.234-2.288c-.127-.943-.24-1.89-.413-2.828-.155-.84-.39-1.667-.609-2.497-.255-.963-.51-1.938-.68-2.916-.053-.452-.076-.905-.103-1.36-.015-.258-.039-.518-.044-.778-.013-.553.01-1.106.04-1.659.056-1.088.244-2.164.35-3.248.108-1.093.185-2.19.077-3.284a19.791 19.791 0 00-.294-1.924c-.099-.503-.233-1-.324-1.504-.216-1.564-.213-3.145-.265-4.717a92.543 92.543 0 00-.312-5.182c-.02-.23-.091-.43-.283-.598a1.049 1.049 0 00-.684-.248c-.497 0-1.008.385-.968.846" fill="#000"/><path d="M150.115 254.756c-.01 2.664-.03 5.327-.056 7.992-.02 2.178-.093 4.356-.04 6.535.031 1.26.067 2.519.107 3.778.033 1.028.058 2.055.114 3.082.13 2.4.341 4.794.544 7.191.088 1.044.18 2.09.258 3.134.085 1.122.162 2.247.274 3.368.113 1.132.219 2.264.364 3.393.154 1.203.323 2.403.454 3.607.238 2.187.3 4.386.555 6.573.277 2.37.677 4.728 1.074 7.085.132.78.262 1.562.391 2.343.12.805.235 1.61.35 2.416.116.802.236 1.598.289 2.405.024.363.157.687.47.95.3.25.71.392 1.133.392.86 0 1.625-.61 1.604-1.342-.027-.99-.217-1.969-.364-2.95-.17-1.13-.344-2.259-.535-3.387-.32-1.884-.65-3.766-.96-5.65a67.438 67.438 0 01-.435-3.326c-.118-1.174-.213-2.349-.325-3.522-.098-1.03-.19-2.064-.351-3.09a167.857 167.857 0 01-.528-3.546c-.31-2.303-.515-4.614-.806-6.919a641.124 641.124 0 01-.816-6.776c-.268-2.34-.443-4.687-.615-7.034-.159-2.16-.247-4.325-.282-6.49a601.51 601.51 0 01-.061-10.212c0-.413-.411-.756-.904-.756-.493 0-.902.343-.903.756m90.493-28.414c-.278.23-.38.506-.41.824-.184 1.92-.337 3.842-.491 5.765-.105 1.328-.14 2.658-.199 3.988-.11 2.538-.107 5.08-.15 7.619-.022 1.296-.018 2.594-.073 3.89-.06 1.46-.124 2.918-.223 4.378-.1 1.458-.193 2.915-.288 4.374-.088 1.335-.132 2.672-.193 4.008-.057 1.253-.156 2.505-.234 3.757-.078 1.229-.237 2.455-.335 3.682-.111 1.378-.233 2.756-.31 4.135a551.58 551.58 0 01-.26 4.423c-.163 2.582-.377 5.16-.567 7.74a502.4 502.4 0 00-.526 8.403c-.069 1.197-.148 2.394-.223 3.59-.075 1.199-.194 2.395-.28 3.593-.08 1.128-.094 2.256-.165 3.384-.037.615-.09 1.23-.154 1.844-.029.273-.064.545-.101.818-.352.306-.533.753-.36 1.168.058.146.127.288.205.428.108.184.258.334.428.48.695.597 1.891.433 2.395-.257.344-.472.454-.997.533-1.535.05-.336.093-.671.132-1.008.076-.645.113-1.291.162-1.938.048-.662.058-1.325.083-1.988.024-.647.064-1.294.11-1.94.042-.63.103-1.257.153-1.886.05-.635.082-1.27.121-1.906.082-1.343.155-2.686.232-4.03.152-2.647.292-5.293.49-7.938.214-2.89.412-5.782.581-8.675.072-1.223.097-2.449.188-3.67.096-1.265.18-2.53.29-3.794.116-1.362.245-2.724.322-4.089.08-1.41.156-2.817.21-4.228.109-2.813.282-5.625.444-8.437.035-.614.04-1.23.059-1.844.016-.542.04-1.083.044-1.625.009-1.362.02-2.725.022-4.088.003-2.53.008-5.06.101-7.591.044-1.178.08-2.353.171-3.529.141-1.824.283-3.648.455-5.47.028-.297-.166-.622-.41-.825a1.556 1.556 0 00-.99-.342c-.37 0-.728.123-.99.342m-78.749-23.447l-.12.08c.04-.028.079-.055.12-.08m.388-.128c.065.001.13.009.194.023l-.194-.023m-.184-1.765c-.428.02-.826.153-1.2.328-.186.087-.348.225-.51.339-.146.1-.291.202-.434.308a2.907 2.907 0 00-.41.382c-.095.1-.183.206-.268.313a3.589 3.589 0 00-.183.36c-.033.215-.069.415-.053.632.017.233.085.444.171.661.152.386.375.746.604 1.1.214.326.43.65.643.977.148.223.29.449.438.672l.309.468c.241.367.513.698.815 1.028.593.651 1.348 1.174 2.097 1.679.527.354 1.093.67 1.654.98a56.64 56.64 0 001.929 1.038c.385.193.768.387 1.16.569.94.434 1.906.811 2.89 1.16 1.409.503 2.888.87 4.373 1.147l1.417.263c.246.046.492.1.74.133.779.108 1.562.247 2.347.301.689.048 1.377.116 2.068.128l1.41.023c.243.005.488.016.73.004l1.325-.065c.288-.015.582-.017.868-.045a476.22 476.22 0 004.479-.465l1.922-.209c.822-.087 1.656-.151 2.473-.274l1.067-.16c.4-.059.798-.16 1.194-.24a48.705 48.705 0 001.774-.386c1.594-.38 3.196-.802 4.72-1.368.734-.273 1.436-.626 2.138-.957a36.894 36.894 0 001.74-.889c.568-.303 1.132-.609 1.695-.917.56-.306 1.092-.653 1.625-.992.932-.59 1.875-1.168 2.776-1.797.39-.275.791-.55 1.14-.866.242-.22.448-.467.65-.716.17-.212.284-.455.415-.686.133-.201.2-.418.2-.65 0-.34-.155-.67-.429-.91a1.579 1.579 0 00-1.036-.377c-.352 0-.805.125-1.036.377-.335.365-.707.706-1.081 1.042-.305.273-.651.513-.993.752-.663.441-1.34.865-2.014 1.294-.743.474-1.49.94-2.269 1.367-.776.426-1.553.857-2.352 1.255-.877.436-1.766.876-2.69 1.24a46.687 46.687 0 01-4.36 1.216c-.817.182-1.632.355-2.452.524-.63.129-1.275.207-1.916.284-2.374.274-4.747.55-7.124.802-.541.057-1.085.077-1.629.107l-.92.054c-.208.012-.421 0-.63-.003l-.573.001c-.405.002-.811.004-1.213-.019-.629-.036-1.257-.071-1.884-.108l-1.305-.16c-.433-.054-.861-.142-1.29-.216-.62-.108-1.24-.21-1.853-.338a31.637 31.637 0 01-4.308-1.208 29.79 29.79 0 01-2.059-.871c-.396-.186-.805-.36-1.192-.562-1.105-.577-2.232-1.132-3.266-1.805a10.19 10.19 0 01-1.605-1.365c-.35-.431-.69-.867-1.029-1.305-.435-.561-.887-1.127-1.235-1.734a2.134 2.134 0 01-.062-.173l.026-.036c.207-.208.44-.388.68-.569l.077-.042c.077-.023.154-.042.234-.059.2.052.399.105.599.154.528.132 1.095-.156 1.24-.619.146-.467-.177-.957-.704-1.088-.396-.1-.774-.215-1.186-.215-.032 0-.066 0-.099.002m30.388 34.387c-.261.228-.484.607-.446.94.122 1.064.27 2.127.343 3.195l.146 2.114.377 5.476c.02.292.058.589.058.882l.003 1.313c.004 1.864.007 3.728.012 5.591l.008 3.482c0 .438-.032.879-.047 1.318l-.102 2.832c-.044 1.21-.066 2.422-.132 3.632l-.267 4.854c-.068 1.232-.077 2.467-.111 3.7-.034 1.239-.006 2.476.008 3.714.014 1.157.082 2.315.14 3.471.064 1.277.15 2.553.24 3.83.026.343.142.647.427.895.27.238.643.372 1.028.372.791 0 1.455-.577 1.453-1.268-.007-2.624-.203-5.244-.235-7.868l-.027-2.29c-.008-.622.034-1.248.05-1.87.034-1.253.072-2.503.14-3.755.073-1.33.168-2.662.215-3.993l.174-4.866c.035-.987.097-1.975.095-2.962l-.011-4.652-.012-4.835a29.847 29.847 0 00-.094-2.025l-.365-5.3-.126-1.841c-.073-1.051-.221-2.098-.341-3.146-.042-.365-.14-.671-.446-.94a1.651 1.651 0 00-1.077-.389 1.65 1.65 0 00-1.078.389m63.588-20.706a.803.803 0 00.109.704c.151.219.372.335.646.42 1.627.509 3.263 1.006 4.867 1.57 1.86.68 3.603 1.562 5.35 2.426l2.629 1.302c.946.47 1.889.943 2.854 1.385.44.202.882.4 1.335.582.39.158.776.297 1.133.498.17.13.32.27.465.418.704.864 1.393 1.737 2.09 2.605.577.72 1.205 1.404 1.93 2.022.546.467 1.123.91 1.725 1.324.4.276.804.553 1.235.795.326.183.688.322 1.045.455.473.177.958.329 1.445.475.629.19 1.273.351 1.91.52.546.143 1.092.285 1.644.412.477.11.96.206 1.424.347.105.046.202.094.298.148l.04.033c.229.312.386.67.56 1.003.15.289.329.568.496.85.133.222.275.434.422.65.176.26.344.524.537.775.213.273.424.547.635.821.221.287.495.552.74.825.465.52.962 1.018 1.458 1.515 1.836 1.841 3.883 3.52 5.966 5.158a71.96 71.96 0 002.655 1.983 223.74 223.74 0 012.723 1.978c1.659 1.225 3.323 2.444 4.862 3.78.124.149.28.27.468.364.347.172.77.22 1.156.129.375-.087.7-.3.896-.585.19-.273.285-.67.152-.978-.108-.245-.204-.513-.38-.729a4.463 4.463 0 00-.5-.518 18.387 18.387 0 00-.675-.558c-.477-.383-.96-.759-1.453-1.127-1.047-.786-2.1-1.567-3.16-2.341-1.176-.859-2.365-1.706-3.543-2.563-.467-.34-.912-.71-1.361-1.069-.575-.459-1.15-.92-1.717-1.386a60.369 60.369 0 01-2.634-2.279 67.577 67.577 0 01-2.348-2.317l.124.136c-.262-.285-.534-.566-.768-.867a27.665 27.665 0 01-.973-1.311c-.295-.43-.566-.862-.832-1.306a12.608 12.608 0 01-.31-.554c-.175-.333-.333-.681-.59-.975a3.853 3.853 0 00-.351-.37 3.882 3.882 0 00-.504-.354c-.332-.205-.675-.335-1.057-.465a7.261 7.261 0 00-.71-.194c-.53-.122-1.064-.232-1.592-.356-.542-.128-1.082-.27-1.621-.408a33.136 33.136 0 01-2.175-.621 11.748 11.748 0 01-.646-.272 5.817 5.817 0 01-.68-.38c-1.059-.717-2.07-1.484-2.934-2.37-.825-.956-1.606-1.938-2.431-2.894-.273-.316-.548-.627-.884-.898a4.74 4.74 0 00-.83-.52c-.235-.119-.495-.199-.747-.287-.307-.109-.633-.186-.948-.28a21.22 21.22 0 01-.828-.271c-1.694-.623-3.326-1.37-4.935-2.135-1.178-.562-2.354-1.127-3.542-1.67a38.415 38.415 0 00-3.86-1.516c-1.384-.46-2.781-.89-4.177-1.323a.988.988 0 00-.293-.044c-.465 0-.914.311-1.035.683" fill="#000"/><path d="M362.08 228.149c-2.022.86-4.04 1.725-6.056 2.595-1.229.53-2.46 1.054-3.678 1.598-1.424.636-2.853 1.264-4.27 1.91-1.395.636-2.785 1.277-4.185 1.904-2.807 1.258-5.602 2.537-8.416 3.784-.654.29-1.301.59-1.968.859-.745.3-1.484.607-2.234.897-1.536.594-3.075 1.186-4.612 1.778-1.302.501-2.587 1.038-3.89 1.536-1.37.525-2.762 1.006-4.134 1.526a148.454 148.454 0 00-8.307 3.436c-.841.378-1.69.742-2.56 1.07-.572.183-1.152.334-1.729.505-.475.087-.865.46-.99.85a1.064 1.064 0 000 .648c.09.282.333.598.651.728.29.118.547.23.878.227.264-.003.521-.02.782-.062l.492-.08c.146-.022.3-.07.438-.115.3-.098.598-.201.893-.31a31.079 31.079 0 001.96-.802 457.63 457.63 0 014.074-1.794 109.299 109.299 0 013.949-1.64c1.367-.53 2.76-1.014 4.12-1.555 1.489-.591 2.967-1.204 4.45-1.807 1.37-.556 2.75-1.093 4.124-1.643 1.302-.52 2.613-1.036 3.878-1.62a382.406 382.406 0 004.264-2c2.807-1.336 5.643-2.63 8.461-3.949a293.653 293.653 0 017.646-3.45c2.417-1.046 4.836-2.092 7.261-3.125a1.023 1.023 0 00.46-1.504 1.28 1.28 0 00-.766-.505 1.383 1.383 0 00-.323-.039 1.69 1.69 0 00-.664.149m3.574.892c-.703.17-1.125.83-.933 1.45.67 2.175 1.425 4.328 2.204 6.474.327.902.64 1.806.953 2.71.367 1.053.764 2.12.964 3.21.113.996.221 2.008.128 3.01-.02.093-.045.185-.074.276a4.399 4.399 0 01-.394.318 6.62 6.62 0 01-.583.311c-.644.207-1.334.327-2.013.42-1.114.064-2.237.008-3.353-.011-1.015-.018-2.036 0-3.045-.083a5.863 5.863 0 01-.832-.211 5.94 5.94 0 01-.78-.434 5.088 5.088 0 01-.592-.515 7.545 7.545 0 01-.636-.94c-.118-.21-.229-.421-.34-.632a69.748 69.748 0 00-.146-.278 2.477 2.477 0 00-.119-.209c-.154-.262-.427-.41-.687-.576-.24-.123-.5-.185-.778-.186a1.702 1.702 0 00-.779.186 1.291 1.291 0 00-.818 1.176c0 .31.143.664.396.91.124.23.233.467.356.696.16.293.328.58.512.862.287.44.666.86 1.063 1.222.275.25.607.455.923.662.293.192.59.364.921.503.272.113.564.214.848.306.398.128.832.182 1.251.22.38.036.759.055 1.141.066.713.022 1.427.01 2.14.019.78.009 1.559.02 2.338.027.824.007 1.635-.094 2.44-.242.422-.077.842-.173 1.255-.283.753-.201 1.367-.56 1.97-.987.248-.175.47-.36.67-.58.154-.17.277-.31.385-.498.14-.246.217-.488.28-.755.102-.441.124-.908.104-1.357-.023-.546-.091-1.089-.155-1.63-.035-.295-.083-.59-.127-.885a9.514 9.514 0 00-.471-1.829c-.427-1.186-.869-2.368-1.305-3.553-.385-1.044-.81-2.079-1.168-3.13-.498-1.467-1.01-2.93-1.47-4.407-.16-.518-.712-.864-1.298-.864a1.46 1.46 0 00-.346.041m-41.396 36.095l-.006.034a.267.267 0 01.006-.034m1.042-1.148l-.027.01.027-.01m25.006-13.393c-.268.406-.53.814-.79 1.223-.108.168-.211.338-.317.507-.188.3-.352.618-.572.903a10.85 10.85 0 01-1.1.913c-.41.308-.83.606-1.25.906-.704.501-1.421.99-2.14 1.474a2227.943 2227.943 0 00-4.506 3.054c-.906.579-1.819 1.153-2.711 1.748-.578.384-1.155.767-1.729 1.156-.655.443-1.306.903-1.855 1.442-.234.23-.442.473-.624.734-.06.085-.12.169-.187.25a2.703 2.703 0 01-.077.068 1.359 1.359 0 01-.044.02 5.088 5.088 0 01-.574.117c-.83.077-1.659.096-2.493.088-1.23-.01-2.468-.049-3.69-.17a12.858 12.858 0 01-1.037-.165c.107-.061.214-.124.327-.172l.578-.248c.4-.173.817-.326 1.226-.487a.219.219 0 00.102-.326c-.084-.12-.25-.14-.39-.086-.4.155-.8.308-1.2.46-.382.132-.762.266-1.162.359-.36.082-.838.188-1.008.499-.12.221-.11.415.048.62.147.19.386.29.62.388.52.217 1.104.33 1.668.428a24.41 24.41 0 001.598.21l1.561.17c.82.088 1.641.17 2.464.24.225.02.45.04.676.053l.317.02c.357.022.71.001 1.064-.045a2.886 2.886 0 001.464-.649c.22-.18.396-.396.578-.605.653-.66 1.474-1.19 2.277-1.717.78-.498 1.561-.993 2.35-1.482.791-.492 1.586-.977 2.36-1.487 1.623-1.068 3.241-2.14 4.865-3.208.465-.306.926-.618 1.382-.933.522-.36 1.062-.71 1.556-1.099l.405-.318c.252-.197.465-.417.675-.646.125-.137.235-.276.333-.428.105-.162.184-.338.275-.505.075-.14.158-.278.237-.416.312-.547.626-1.093.95-1.635.177-.298.253-.603.145-.933-.1-.302-.342-.565-.665-.723a1.65 1.65 0 00-.725-.162c-.502 0-1 .21-1.255.595M148.79 226.728c-.394 1.788-.753 3.58-1.114 5.372-.113.563-.24 1.125-.326 1.69l-.262 1.722c-.19 1.251-.415 2.503-.555 3.759-.15 1.331-.323 2.662-.438 3.996l-.187 2.161c-.059.68-.077 1.366-.116 2.048a101.052 101.052 0 00-.12 3.595c-.05 2.597-.093 5.195-.128 7.793-.016 1.234.005 2.471-.05 3.704-.06 1.315-.144 2.628-.214 3.943-.064 1.205-.078 2.414-.148 3.62-.083 1.43-.169 2.858-.256 4.288-.076 1.228-.177 2.455-.268 3.683-.097 1.306-.24 2.61-.361 3.914-.117 1.272-.199 2.545-.304 3.817-.049.591-.1 1.182-.151 1.773-.049.561-.13 1.12-.186 1.679a203.92 203.92 0 00-.355 4.054c-.095 1.236-.226 2.469-.337 3.703-.114 1.266-.283 2.528-.352 3.798a237.48 237.48 0 00-.186 4.023c-.043 1.155-.068 2.311-.14 3.467-.075 1.202-.133 2.406-.214 3.609-.127 1.86-.254 3.722-.372 5.584-.504.262-.755.802-.609 1.321.096.342.21.678.305 1.02a1.537 1.537 0 001.17 1.092c.25.059.5.059.75 0 .37-.091.631-.297.842-.572.208-.273.264-.602.328-.92.05-.255.083-.512.118-.77.047-.34.086-.68.12-1.02.06-.594.106-1.188.148-1.782.095-1.328.19-2.657.281-3.984.095-1.345.159-2.691.242-4.036.073-1.191.086-2.385.13-3.577.046-1.276.09-2.553.193-3.826.107-1.32.243-2.637.366-3.956.122-1.297.24-2.594.339-3.894.09-1.21.19-2.42.323-3.629.284-2.595.433-5.199.667-7.797.117-1.315.239-2.628.33-3.944.084-1.2.169-2.4.237-3.6.072-1.256.162-2.513.204-3.77.042-1.303.076-2.608.134-3.911.03-.703.063-1.404.097-2.107.029-.57.06-1.146.056-1.719a455.957 455.957 0 00-.04-4.014c-.038-2.449-.1-4.899-.121-7.35-.012-1.305-.026-2.61.01-3.915.016-.6.023-1.2.061-1.8l.144-2.242c.048-.764.152-1.529.229-2.291.06-.597.102-1.2.189-1.794l.69-4.715c.451-2.256.89-4.513 1.384-6.763.06-.27.048-.523-.113-.768a1.133 1.133 0 00-.676-.458 1.2 1.2 0 00-.28-.032c-.494 0-1.01.282-1.108.728" fill="#000"/><path d="M149.447 235.029c-.365.09-.681.423-.657.78.083 1.16.17 2.32.257 3.48.007.097.016.193.024.29l.034.84.01.7.025 1.862a.75.75 0 00-.392.44c-.143.446-.23.904-.324 1.36l-.05.245c-.348.07-.612.354-.613.687l-.013 2.47-.504 2.58c-.178.91-.32 1.826-.478 2.739-.064.365-.137.73-.187 1.098a71.445 71.445 0 00-.409 3.618 50.957 50.957 0 00-.166 3.666 61.147 61.147 0 00.026 2.662c.007.247.005.498.025.745.075.902.147 1.805.22 2.707.086 1.041.179 2.082.238 3.124.025.43.073.853.143 1.277a4.7 4.7 0 00.162.647c.033.104.075.204.128.301.058.105.127.195.202.29.071.11.168.197.29.263a.89.89 0 00.625.074.764.764 0 00.594-.706c.048-.692.109-1.382.134-2.074l.008-.226a.746.746 0 00.09-.172c.081-.23.172-.456.238-.69.078-.278.128-.565.18-.848.116-.63.192-1.267.274-1.902.042-.32.083-.641.119-.963l.382-3.35.172-1.512c.02-.18.049-.36.061-.542l.15-2.187.245-3.554c.035-.497.09-.996.098-1.494l.1-6.05c.005-.256.01-.512.011-.767l.045-1.114.033-.813c.01-.221-.007-.446-.01-.667l-.05-3.348-.016-.966c-.004-.268-.04-.537-.061-.804a714.35 714.35 0 00-.207-2.557l-.004-.105c-.007-.153.012-.306.018-.46a1.143 1.143 0 00-.35-.866.937.937 0 00-.635-.237.982.982 0 00-.235.029m-13.403-34.009c-.745.16-1.491.315-2.244.448-.589.104-1.183.178-1.777.246-.396.037-.795.066-1.187.118a25.421 25.421 0 00-3.06.584c-.768.198-1.535.397-2.3.6-.725.193-1.438.418-2.157.623-.744.213-1.472.45-2.189.723-.621.238-1.207.561-1.763.893-.366.217-.717.449-1.062.689a7.168 7.168 0 00-.84.676c-.221.212-.43.43-.633.656-.11.124-.186.276-.266.413-.119.202-.214.415-.315.624-.172.357-.32.722-.471 1.085-.114.273-.198.557-.281.837-.09.298-.185.595-.265.893-.042.155-.082.31-.121.465l-.007.04c-.078.44-.154.881-.23 1.322a86.174 86.174 0 00-.308 3.808 86.432 86.432 0 00-.118 3.526 638.076 638.076 0 00-.075 7.419c-.01 2.69-.016 5.38-.017 8.07-.001 1.47.011 2.938.028 4.408.011 1.168.084 2.336.123 3.505.183 5.468.214 10.94.577 16.404.177 2.65.324 5.303.383 7.958.062 2.815.057 5.633.19 8.446.12 2.58.262 5.156.292 7.737.016 1.354.043 2.716-.068 4.068-.053.643-.099 1.287-.19 1.928-.136.972-.246 1.953-.535 2.903-.12.399-.34.757-.631 1.063l-.001 5.067c0 1.185.004 2.37-.007 3.555-.006.641 0 1.283-.024 1.924l-.096 2.432c-.1 2.55-.19 5.099-.226 7.65-.02 1.371-.034 2.743-.042 4.115-.008 1.301-.003 2.603-.037 3.905l-.003.108a1.15 1.15 0 00-.046.768c.032.105.06.21.085.317.139.565.844.961 1.502.961.28-.001.542-.06.785-.18.327-.16.641-.46.715-.78.067-.286.083-.57.116-.857.018-.14.037-.28.045-.422.02-.344.044-.688.047-1.033.008-.706.012-1.414.015-2.12.005-1.23.011-2.46.03-3.691.04-2.798.117-5.594.228-8.392.047-1.182.11-2.364.121-3.546.014-1.452.019-2.903.019-4.354l-.001-8.052c0-5.173.002-10.345-.005-15.518-.002-2.714-.004-5.426-.02-8.14-.016-2.636-.026-5.275-.117-7.913a420.887 420.887 0 00-.17-4.347c-.029-.661-.054-1.323-.08-1.984-.027-.642-.023-1.286-.03-1.929-.022-2.575-.006-5.152-.016-7.727a646.69 646.69 0 00-.067-8.056 207.02 207.02 0 00-.09-3.957c-.05-1.402-.12-2.805-.194-4.206a51.3 51.3 0 01-.05-3.222c.009-1.033.019-2.067.052-3.1.038-1.156.09-2.31.153-3.467.057-1.084.196-2.161.334-3.24.153-.936.293-1.876.508-2.803.258-1.117.544-2.23 1.024-3.297a3.225 3.225 0 01.448-.627c.273-.281.556-.552.861-.808a9.43 9.43 0 01.849-.615c.28-.175.565-.347.862-.504.347-.185.706-.348 1.067-.51.71-.32 1.458-.584 2.198-.853.606-.21 1.214-.415 1.833-.6 1.39-.416 2.787-.83 4.252-1.016a68.87 68.87 0 002.534-.37c.86-.141 1.71-.335 2.559-.52.398-.085.635-.451.527-.78-.093-.284-.405-.464-.737-.464a.928.928 0 00-.193.02" fill="#000"/></g></svg>