<svg width="500" height="600" viewBox="0 0 500 600" fill="none" xmlns="http://www.w3.org/2000/svg">
<path fill-rule="evenodd" clip-rule="evenodd" d="M139.933 439.077L138 439.395C138.412 439.434 138.826 439.468 139.248 439.5L140.972 439.04L141 439.008C140.808 439.006 140.617 439.004 140.425 439C140.261 439.025 140.097 439.05 139.933 439.077V439.077ZM170 414.58C170.084 414.637 170.164 414.699 170.242 414.764C170.297 414.799 170.352 414.834 170.407 414.867C170.537 414.98 170.662 415.097 170.784 415.217C170.931 415.234 171.079 415.257 171.227 415.29C171.84 415.425 172.377 415.661 172.839 416L173 415.867C172.836 415.735 172.674 415.6 172.513 415.464C171.943 414.976 171.378 414.482 170.801 414C170.538 414.198 170.271 414.392 170 414.58V414.58ZM136.08 430.108L136.09 430.119L136.033 430.052L136.081 430.108H136.08ZM136.192 430.238L136.09 430.119L136.192 430.238ZM148.685 415.562L148.658 415.565L148.685 415.562ZM150.805 410.049C150.612 410.116 150.42 410.179 150.245 410.279C149.999 410.415 149.845 410.592 149.703 410.811C149.515 411.101 149.471 411.438 149.432 411.768C149.357 412.144 149.268 412.518 149.185 412.892C149.02 413.648 148.832 414.408 148.531 415.131C148.485 415.216 148.436 415.299 148.384 415.381C148.308 415.305 148.234 415.227 148.162 415.147C147.906 414.833 147.655 414.516 147.403 414.199C147.232 413.985 147.052 413.778 146.863 413.579C146.669 413.371 146.429 413.196 146.208 413.011C146.04 412.862 145.839 412.755 145.621 412.701C145.298 412.622 144.879 412.647 144.596 412.823C144.444 412.917 144.223 413.026 144.109 413.144C144.008 413.247 143.913 413.355 143.824 413.468C143.751 413.597 143.691 413.734 143.646 413.876C143.542 414.179 143.614 414.5 143.612 414.808C143.609 415.126 143.605 415.446 143.604 415.766L143.599 416.84C143.598 417.004 143.599 417.168 143.601 417.333C143.441 417.242 143.271 417.173 143.093 417.126C142.938 417.102 142.781 417.085 142.624 417.074L142.27 417.117C142.052 417.17 141.849 417.277 141.681 417.426C141.378 417.641 141.243 417.949 141.112 418.265L141.088 418.417C141.066 418.497 141.052 418.577 141.044 418.658L140.866 418.492C140.65 418.29 140.454 418.072 140.229 417.876C139.989 417.666 139.687 417.486 139.366 417.395C139.104 417.319 138.826 417.306 138.552 417.276C138.22 417.24 137.828 417.426 137.602 417.631C137.369 417.841 137.177 418.182 137.208 418.487C137.271 419.206 137.414 419.915 137.634 420.602C137.659 420.684 137.684 420.766 137.707 420.848L137.489 420.668C137.318 420.522 137.114 420.419 136.895 420.367C136.676 420.315 136.448 420.315 136.229 420.368C135.706 420.498 135.239 420.98 135.281 421.491C135.297 421.701 135.321 421.908 135.353 422.116C135.259 422.121 135.163 422.131 135.066 422.146C134.984 422.151 134.904 422.17 134.829 422.202C134.727 422.242 134.624 422.28 134.522 422.319C134.408 422.396 134.296 422.474 134.185 422.554C134.078 422.641 133.993 422.753 133.938 422.88L133.808 423.156C133.788 423.296 133.766 423.436 133.747 423.576C133.75 423.721 133.767 423.866 133.799 424.009C133.811 424.102 133.829 424.193 133.849 424.283L133.85 424.285C133.813 424.238 133.776 424.191 133.74 424.144C133.512 423.844 133.282 423.547 133.055 423.248C132.941 423.101 132.859 422.935 132.771 422.776C132.661 422.579 132.508 422.413 132.358 422.238C132.203 422.058 131.887 421.896 131.643 421.836C131.365 421.778 131.076 421.791 130.805 421.876C130.194 422.055 129.795 422.609 129.976 423.189L130.096 423.568C129.905 423.361 129.712 423.155 129.519 422.95C129.263 422.678 128.762 422.654 128.438 422.824C128.275 422.904 128.145 423.038 128.071 423.203C127.996 423.369 127.981 423.555 128.028 423.73C128.101 423.964 128.199 424.189 128.319 424.402C128.429 424.612 128.656 424.738 128.903 424.779C129.273 425.177 129.64 425.576 130 425.982L131.41 427.576C131.716 427.923 132.02 428.272 132.321 428.623C132.405 428.769 132.49 428.915 132.578 429.059C132.899 429.582 133.266 430.082 133.649 430.571C133.844 430.818 134.049 431.057 134.256 431.295C134.368 431.423 134.494 431.535 134.626 431.645C134.816 431.805 135.031 431.869 135.267 431.955C135.604 432.079 136.052 431.929 136.294 431.711C136.421 431.599 136.515 431.454 136.565 431.292C136.635 431.068 136.619 430.756 136.459 430.56C136.335 430.408 136.209 430.257 136.081 430.108C135.897 429.898 135.711 429.69 135.521 429.485C135.438 429.372 135.357 429.259 135.277 429.144C135.435 429.21 135.604 429.256 135.773 429.276C135.884 429.29 135.997 429.304 136.109 429.316C136.339 429.316 136.551 429.265 136.749 429.161C136.939 429.06 137.092 428.923 137.203 428.752C137.319 428.574 137.376 428.382 137.377 428.177L137.403 427.91C137.423 427.703 137.361 427.494 137.328 427.29C137.288 427.048 137.19 426.808 137.121 426.571L136.911 425.848L136.836 425.591L136.976 425.706C137.132 425.835 137.306 425.946 137.476 426.054C137.636 426.154 137.841 426.201 138.02 426.266C138.252 426.323 138.484 426.323 138.716 426.266C138.952 426.209 139.167 426.089 139.34 425.919C139.519 425.996 139.709 426.053 139.91 426.039C140.067 426.029 140.224 426.011 140.379 425.986C140.525 425.945 140.663 425.888 140.792 425.818C140.994 425.71 141.154 425.567 141.272 425.385C141.334 425.258 141.394 425.129 141.452 425.001C141.481 424.854 141.5 424.708 141.51 424.559C141.5 424.406 141.48 424.255 141.45 424.105C141.39 423.716 141.303 423.332 141.19 422.955C141.13 422.758 141.07 422.561 141.007 422.365L140.851 421.881L141.027 422.037C141.177 422.17 141.307 422.277 141.483 422.391C141.689 422.524 141.932 422.599 142.177 422.651C142.881 422.801 143.622 422.461 143.817 421.814C143.923 421.462 143.989 421.116 143.969 420.749C143.966 420.7 143.962 420.652 143.956 420.603C144.168 420.666 144.392 420.683 144.62 420.703C144.859 420.701 145.083 420.647 145.29 420.539C145.597 420.377 145.792 420.126 145.899 419.825C146.013 419.505 146.134 419.2 146.185 418.865C146.26 418.367 146.268 417.877 146.269 417.375C146.269 417.185 146.272 416.997 146.274 416.808C146.583 417.153 146.931 417.483 147.36 417.69C147.984 417.99 148.866 418.048 149.494 417.73C150.047 417.45 150.394 416.988 150.703 416.505C150.963 416.097 151.124 415.645 151.273 415.195C151.441 415.565 151.614 415.931 151.792 416.295C151.897 416.455 152.039 416.581 152.216 416.676C152.496 416.821 152.82 416.859 153.126 416.783C153.42 416.71 153.676 416.533 153.829 416.295C153.976 416.071 154.06 415.729 153.949 415.477C153.716 414.943 153.496 414.404 153.289 413.859C153.174 413.557 153.052 413.257 152.951 412.951C152.843 412.631 152.762 412.302 152.707 411.969C152.681 411.801 152.65 411.635 152.619 411.467C152.58 411.259 152.489 411.064 152.409 410.868C152.286 410.572 152.122 410.332 151.809 410.168C151.598 410.06 151.364 410.002 151.127 410C151.018 409.999 150.909 410.015 150.805 410.049V410.049ZM260.424 398.495L260.494 398.524L260.424 398.495ZM260.237 398.457L260.065 398.479C260.122 398.469 260.179 398.461 260.237 398.457V398.457ZM260.017 398.403C260.06 398.407 260.102 398.412 260.145 398.419L260.017 398.403ZM240.914 390.621C240.928 390.645 240.94 390.67 240.95 390.696H240.947L240.914 390.621V390.621ZM232.434 386.707C232.296 386.919 232.169 387.127 232.057 387.354C231.894 387.68 231.765 388.025 231.623 388.361L231.534 388.562C231.367 388.318 231.117 388.142 230.831 388.067C230.511 387.983 230.171 388.026 229.882 388.187C229.635 388.327 229.36 388.608 229.317 388.894C229.016 390.898 228.689 392.898 228.336 394.894L228.175 395.766C228.15 395.9 228.125 396.034 228.103 396.167C228.058 396.421 227.998 396.683 228 396.938C228.006 397.24 228.111 397.532 228.298 397.77C228.486 398.007 228.746 398.176 229.039 398.251C229.289 398.315 229.539 398.315 229.789 398.251C230.119 398.164 230.486 397.931 230.636 397.625C231.013 396.857 231.365 396.075 231.708 395.29L231.667 395.683C231.619 396.074 231.661 396.471 231.789 396.843C231.968 397.337 232.319 397.728 232.859 397.871C233.129 397.941 233.401 397.941 233.672 397.871C233.795 397.822 233.916 397.771 234.038 397.723C234.268 397.593 234.45 397.416 234.588 397.194C234.788 396.944 234.981 396.697 235.151 396.426C235.36 396.094 235.537 395.743 235.717 395.396C235.887 395.07 236.06 394.746 236.234 394.42L236.834 393.304C236.813 393.601 236.784 393.898 236.76 394.196C236.738 394.443 236.7 394.689 236.687 394.936C236.677 395.18 236.782 395.662 236.932 395.866C237.089 396.081 237.249 396.286 237.442 396.473C238.033 397.047 239.055 397.058 239.645 396.473C239.981 396.14 240.315 395.823 240.598 395.444L240.604 395.479C240.643 395.727 240.708 395.875 240.818 396.12C240.848 396.185 240.878 396.25 240.906 396.316C241.013 396.473 241.137 396.616 241.278 396.745C241.522 396.983 241.818 397.082 242.135 397.187C242.673 397.365 243.269 397.127 243.733 396.884C243.859 396.806 243.979 396.722 244.095 396.633C244.326 396.463 244.539 396.296 244.748 396.104C245.034 395.842 245.299 395.56 245.554 395.267C245.511 395.544 245.484 395.82 245.494 396.094C245.507 396.498 245.654 396.871 245.952 397.16C246.262 397.457 246.632 397.57 247.058 397.6C247.298 397.618 247.567 397.608 247.796 397.547C248.032 397.484 248.297 397.35 248.508 397.223C248.726 397.09 248.942 396.903 249.138 396.737C249.301 396.599 249.461 396.454 249.623 396.313C250.103 395.896 250.535 395.423 250.98 394.969L250.955 395.074C250.884 395.377 250.846 395.799 250.945 396.101C251.015 396.314 251.105 396.518 251.216 396.715C251.347 396.943 251.636 397.2 251.869 397.33C252.269 397.555 252.769 397.59 253.212 397.497C253.643 397.406 254.047 397.192 254.436 396.994C254.782 396.819 255.096 396.562 255.409 396.337L255.912 395.977C255.872 396.404 255.852 396.836 256.023 397.241C256.08 397.423 256.163 397.592 256.276 397.746C256.376 397.902 256.497 398.04 256.64 398.16C257.027 398.515 257.542 398.659 258.064 398.7C258.806 398.76 259.545 398.583 260.277 398.458C260.367 398.512 260.454 398.569 260.54 398.628L260.778 398.806C261.01 398.935 261.258 399 261.525 399C261.917 399 262.295 398.85 262.573 398.583C263.151 398.028 263.134 397.126 262.573 396.567C262.352 396.344 262.111 396.141 261.854 395.96C261.434 395.667 260.941 395.497 260.429 395.469C260.107 395.457 259.784 395.505 259.467 395.552C259.335 395.572 259.204 395.593 259.073 395.615C259.084 395.509 259.094 395.404 259.103 395.298C259.15 394.686 259.155 394.065 258.967 393.471C258.828 393.045 258.544 392.681 258.164 392.443C257.751 392.176 257.322 392.097 256.834 392.067C256.634 392.076 256.44 392.107 256.25 392.164C255.998 392.23 255.767 392.366 255.552 392.508C255.296 392.678 255.047 392.855 254.801 393.038L254.467 393.28C254.467 392.848 254.427 392.418 254.349 391.993C254.309 391.743 254.239 391.463 254.096 391.246C253.918 390.987 253.718 390.744 253.498 390.52C253.028 390.018 252.187 389.96 251.601 390.285C251.218 390.489 250.864 390.743 250.549 391.042C250.393 391.194 250.243 391.356 250.089 391.51L249.381 392.221L249.339 392.263L249.354 392.176C249.437 391.702 249.496 391.262 249.395 390.786C249.341 390.548 249.249 390.32 249.122 390.112C249.006 389.912 248.805 389.73 248.645 389.56C248.374 389.27 247.933 389.118 247.538 389.118C247.098 389.118 246.758 389.292 246.432 389.56C246.192 389.755 245.96 389.945 245.752 390.172C245.5 390.447 245.284 390.754 245.057 391.047L244.346 391.923C244.198 392.105 244.05 392.289 243.9 392.472C243.94 392.152 243.98 391.834 244.009 391.512C244.023 391.359 244.04 391.205 244.06 391.051C244.096 390.751 244.068 390.496 244.023 390.193C244.023 390.063 243.99 389.936 243.927 389.822C243.833 389.594 243.717 389.376 243.582 389.17C243.369 388.83 243.035 388.584 242.648 388.48C242.091 388.332 241.547 388.5 241.128 388.866C240.836 389.122 240.598 389.387 240.375 389.707C240.233 389.911 240.137 390.149 240.018 390.367C240.009 390.026 239.989 389.685 239.959 389.345C239.93 389.06 239.886 388.777 239.829 388.497C239.784 388.263 239.661 388.034 239.571 387.814C239.498 387.563 239.36 387.336 239.171 387.156C238.98 386.972 238.745 386.84 238.488 386.772C237.936 386.625 237.393 386.792 236.98 387.156C236.662 387.43 236.394 387.757 236.187 388.122C236.094 388.288 236.011 388.459 235.919 388.625L235.394 389.563L235.288 389.753L235.303 389.573C235.335 389.185 235.359 388.799 235.358 388.409C235.354 387.951 235.246 387.494 235.148 387.048C235.043 386.57 234.588 386.176 234.111 386.051C233.985 386.017 233.854 386 233.723 386C233.203 386 232.721 386.27 232.435 386.707H232.434ZM172.752 188.117C172.614 188.182 172.478 188.298 172.506 188.397C172.652 188.937 172.819 189.574 172.962 190.225C172.971 190.973 172.957 191.722 172.92 192.469L172.918 192.499C172.903 192.889 172.91 193.3 172.938 193.759C172.837 194.445 172.693 195.125 172.506 195.793C172.438 196.029 172.386 196.267 172.332 196.511C172.277 196.693 172.207 196.87 172.123 197.04C172.073 197.14 172.004 197.239 171.943 197.325L171.897 197.393L171.867 197.439C171.834 197.49 171.799 197.541 171.762 197.59C171.642 197.706 171.512 197.811 171.374 197.905C171.239 197.975 171.082 198.046 170.897 198.124C170.602 198.217 170.257 198.308 169.811 198.412C169.608 198.447 169.404 198.478 169.199 198.509L168.953 198.547C168.665 198.592 168.376 198.632 168.087 198.668C167.814 198.57 167.522 198.539 167.235 198.577C166.135 198.718 165.055 198.85 164.145 198.961C163.597 198.978 162.982 198.989 162.085 198.999C161.69 199.004 161.297 199.007 160.903 199.007C160.126 199.01 159.349 198.993 158.573 198.956C157.656 198.911 156.676 198.866 155.718 198.832C155.642 199.1 155.543 199.361 155.423 199.612C154.62 199.592 153.826 199.576 153.033 199.559L152.941 199.556L151.894 199.533C151.012 199.513 150.027 199.491 149.042 199.475C148.756 199.793 148.262 200.074 147.599 200.266L147.375 200.332C146.916 200.466 146.46 200.6 146 200.732C146.876 200.717 147.753 200.706 148.629 200.7H148.688L149.796 200.69C151.018 200.676 152.259 200.675 153.46 200.673H154.087C154.03 200.778 153.981 200.887 153.942 201C154.973 200.903 156.005 200.817 157.038 200.742L157.039 200.741C157.077 200.692 157.099 200.633 157.103 200.572C157.425 200.546 157.749 200.512 158.073 200.479L158.151 200.472L158.454 200.441C159.24 200.477 160.027 200.496 160.814 200.5C161.363 200.468 161.912 200.437 162.462 200.409C162.926 200.385 163.391 200.365 163.855 200.344C164.403 200.32 164.963 200.286 165.516 200.286L165.673 200.287C165.932 200.29 166.185 200.306 166.429 200.333C167.038 200.287 167.639 200.234 168.229 200.183L168.287 200.177C168.829 200.125 169.368 200.053 169.905 199.964C170.465 199.877 171.099 199.779 171.709 199.621L171.883 199.577L171.918 199.567L171.958 199.557C172.11 199.517 172.255 199.48 172.387 199.439C172.677 199.35 172.98 199.238 173.287 199.106C173.727 198.912 174.1 198.678 174.366 198.429C174.467 198.335 174.651 198.151 174.736 197.982C174.789 197.875 174.853 197.769 174.916 197.663L174.928 197.643C175.078 197.393 175.158 197.132 175.23 196.901C175.303 196.665 175.343 196.434 175.38 196.229L175.395 196.137L175.405 196.082L175.425 195.975C175.454 195.823 175.49 195.673 175.526 195.523L175.544 195.446C175.597 195.227 175.643 195.006 175.68 194.784L175.694 194.715C175.717 194.581 175.74 194.447 175.767 194.313C175.824 194.033 175.865 193.765 175.893 193.495L175.925 193.202C175.947 193.02 175.967 192.838 175.981 192.657C176.005 192.37 176.006 192.087 175.987 191.792C175.953 191.187 175.897 190.584 175.818 189.984C175.808 189.909 175.794 189.834 175.778 189.76L175.77 189.724L175.767 189.704C175.754 189.636 175.74 189.569 175.734 189.503C175.72 189.375 175.71 189.247 175.704 189.118L175.701 189.079C175.693 188.929 175.633 188.864 175.516 188.736L175.498 188.716C175.349 188.604 175.178 188.524 174.997 188.48C174.73 188.409 174.453 188.379 174.177 188.392C174.164 188.306 174.129 188.205 173.943 188.117C173.755 188.037 173.552 187.997 173.348 188C173.127 188 172.91 188.042 172.752 188.117V188.117ZM200.05 190.024C199.688 190.069 199.374 190.178 199.186 190.324C199.001 190.466 198.957 190.616 199.041 190.824C199.324 191.532 199.581 192.221 199.806 192.874L199.814 192.9C199.98 193.501 200.152 194.123 200.2 194.75C200.226 195.079 200.24 195.422 200.241 195.8C200.243 195.925 200.239 196.051 200.236 196.178L200.235 196.2C200.196 197.103 200.359 198.004 200.71 198.837C200.874 199.221 201.009 199.514 201.147 199.79C201.287 200.071 201.443 200.386 201.677 200.675C201.81 200.838 201.981 201.028 202.235 201.198C202.525 201.394 202.916 201.571 203.339 201.698C203.859 201.851 204.452 201.948 205.027 202.043C205.69 202.153 206.349 202.216 207.081 202.282C208.565 202.414 210.067 202.494 211.52 202.572L211.858 202.589C213.215 202.661 214.608 202.679 215.957 202.697L216.013 202.698L216.314 202.702C216.738 202.707 217.161 202.712 217.584 202.715C218.209 202.553 218.934 202.475 219.66 202.461C220.03 202.453 220.4 202.45 220.772 202.45C222.202 202.45 223.642 202.498 225.065 202.527C226.465 202.556 227.862 202.595 229.26 202.622C229.25 202.613 229.239 202.604 229.228 202.596C229.502 202.569 229.754 202.553 229.994 202.549C229.957 202.523 229.917 202.501 229.874 202.485L229.921 202.492H230.282L230.464 202.491C230.829 202.489 231.328 202.487 231.788 202.472C232.089 202.462 232.39 202.45 232.692 202.437L232.862 202.43L233.078 202.421L233.267 202.414L233.853 202.392C234.518 202.37 235.182 202.357 235.847 202.353C236.065 202.352 236.308 202.345 236.611 202.333H236.659L236.709 202.334L236.795 202.335C237.769 202.345 238.777 202.355 239.768 202.4C240.054 202.425 240.328 202.462 240.634 202.514C241.014 202.596 241.381 202.686 241.717 202.774C243.813 202.804 245.908 202.879 248 203C246.971 202.623 245.935 202.263 244.893 201.922C244.593 201.822 244.288 201.728 243.99 201.643C243.755 201.578 243.518 201.521 243.279 201.47L243.044 201.417C242.338 201.248 241.624 201.118 240.904 201.026L240.673 200.996C240.383 200.961 240.153 200.933 239.919 200.914C239.455 200.876 238.989 200.854 238.523 200.848H238.411C237.993 200.848 237.576 200.868 237.174 200.888L237.13 200.89L237.058 200.893L236.999 200.896C236.412 200.927 235.825 200.943 235.237 200.943C234.939 200.945 234.642 200.949 234.344 200.955C233.874 200.967 233.387 200.987 232.929 201.006L232.862 201.009L232.356 201.029C231.415 201.067 230.467 201.074 229.631 201.081C229.122 201.085 228.613 201.089 228.107 201.098C227.437 201.111 226.745 201.132 226.137 201.152L226.043 201.154L225.993 201.155L225.95 201.157L225.913 201.158L225.877 201.16C225.154 201.182 224.407 201.205 223.67 201.216C222.652 201.232 221.585 201.251 220.21 201.279L220.155 201.28C219.605 201.294 219.055 201.301 218.505 201.303H218.297C217.637 201.299 216.975 201.293 216.314 201.285C215.089 201.272 213.864 201.246 212.64 201.209C211.82 201.18 210.999 201.139 210.18 201.085L209.724 201.059L209.307 201.034C208.661 200.993 208.015 200.941 207.37 200.877C206.708 200.813 206.048 200.726 205.392 200.615C205.252 200.585 205.126 200.555 205.005 200.522C204.942 200.496 204.88 200.468 204.819 200.438C204.765 200.398 204.713 200.356 204.663 200.311C204.394 199.952 204.171 199.56 203.999 199.146L203.951 199.036C203.831 198.77 203.651 198.368 203.524 197.993C203.389 197.44 203.314 196.873 203.3 196.304C203.292 195.718 203.24 195.132 203.143 194.554C202.896 193.185 202.38 191.846 201.829 190.48C201.763 190.313 201.448 190.164 201.165 190.09C200.926 190.029 200.681 189.998 200.434 190C200.311 190 200.183 190.008 200.05 190.024V190.024ZM236.015 239.216L236.085 239.276L236.603 239.704C236.687 239.774 236.775 239.836 236.865 239.897L236.931 239.944L237.276 240.186L237.646 240.444L237.819 240.566L237.908 240.629C238.1 240.767 238.292 240.904 238.489 241.032L238.534 241.062L239.685 241.812L239.973 242C239.981 241.488 239.99 240.975 240 240.463C239.14 239.957 238.27 239.44 237.36 238.892C237.228 238.811 237.097 238.727 236.969 238.639L236.839 238.553C236.756 238.498 236.673 238.444 236.59 238.391C236.435 238.291 236.28 238.191 236.128 238.085L236.007 238C235.994 238.404 236 238.81 236.015 239.216" fill="black"/>
<path fill-rule="evenodd" clip-rule="evenodd" d="M309.03 281.917L309.087 281.901C309.436 281.805 309.724 281.563 309.886 281.242C309.72 281.226 309.536 281.2 309.308 281.168L309.192 281.151L309.03 281.917Z" fill="black"/>
<path fill-rule="evenodd" clip-rule="evenodd" d="M146.657 404.364L147.247 404.156C147.162 404.098 147.074 404.045 146.983 403.995C148.956 403.375 150.912 402.703 152.849 401.981L152.901 401.962L155.419 401.032C155.445 401.022 155.471 401.012 155.496 401C155.593 401.065 155.671 401.116 155.75 401.165L155.834 401.149C156.031 401.289 156.234 401.429 156.434 401.572C156.712 401.772 156.981 401.994 157.219 402.19L157.359 402.305L157.386 402.328C157.652 402.546 157.913 402.761 158.147 402.988L158.441 403.271C158.891 403.706 159.341 404.141 159.801 404.57C159.935 404.695 160.074 404.817 160.212 404.939L160.261 404.983L160.53 405.22C160.694 405.366 160.852 405.517 161.009 405.667L161.046 405.704L161.211 405.861C161.429 406.081 161.644 406.306 161.859 406.529C162.249 406.935 162.637 407.341 163.042 407.734C163.338 408.021 163.642 408.304 163.946 408.586L164.014 408.651L164.074 408.707C164.382 408.992 164.688 409.276 164.986 409.566L165.076 409.658C165.747 410.335 166.441 411.036 167.29 411.615C167.781 411.948 168.34 412.293 169 412.67C168.72 412.872 168.454 413.092 168.206 413.299C167.58 413.833 166.972 414.388 166.382 414.962C165.738 415.576 165.082 416.243 164.317 417.062C163.989 417.412 163.651 417.758 163.313 418.102L162.767 418.662C162.687 418.732 162.618 418.805 162.56 418.878C162.446 418.986 162.327 419.094 162.207 419.203C161.614 419.734 161.008 420.252 160.39 420.755L159.945 421.125C159.108 421.821 158.225 422.57 157.446 423.388C156.871 423.995 156.24 424.642 155.399 425.485C153.412 427.444 151.387 429.364 149.326 431.245C148.516 431.983 147.711 432.745 146.93 433.482L146.902 433.507L146.236 434.137C145.856 434.496 145.483 434.861 145.11 435.225L145.036 435.297C144.51 435.819 143.975 436.331 143.431 436.834L143.017 437.214L142.107 438.051L141.881 438.259C141.581 438.539 141.294 438.805 140.991 439.054C140.138 439.761 139.173 440.371 138.26 440.934L138.096 441.025C137.302 441.469 136.481 441.929 135.573 442.269C135.083 442.402 134.566 442.485 134.065 442.564C133.569 442.64 133.092 442.704 132.62 442.769L132.565 442.776L131.745 442.856C131.515 442.88 131.276 442.892 131.046 442.902L131.008 442.904L130.698 442.919C130.053 442.955 129.533 442.977 129.058 442.989C128.836 442.997 128.615 443 128.396 443C127.625 442.999 126.854 442.963 126.085 442.893C124.721 442.738 123.51 442.497 122.384 442.159C121.613 441.889 120.874 441.558 120.19 441.173C119.39 440.669 118.666 440.093 117.963 439.535L117.557 439.213C116.961 438.737 116.381 438.24 115.819 437.723C115.566 437.466 115.316 437.206 115.069 436.943C114.807 436.654 114.557 436.356 114.319 436.047L114.184 435.877C113.779 435.372 113.385 434.863 112.991 434.354L112.877 434.206L112.467 433.676C111.889 432.941 111.33 432.19 110.79 431.426C110.29 430.702 109.851 429.943 109.466 429.273C109.18 428.707 108.906 428.148 108.693 427.551C108.464 426.902 108.208 426.131 108.044 425.326C107.977 424.747 107.987 424.161 108.073 423.584C108.137 423.276 108.215 422.996 108.309 422.73C108.34 422.644 108.379 422.56 108.422 422.477C108.582 422.203 108.764 421.957 108.978 421.723C109.365 421.358 109.781 420.999 110.148 420.684C110.424 420.446 110.696 420.213 110.961 419.975C111.199 419.759 111.435 419.543 111.668 419.325L111.988 419.03C112.298 418.742 112.672 418.49 113.034 418.246L113.19 418.141L114.301 417.384C115.578 416.512 117.027 415.523 118.481 414.642C119.861 413.85 121.422 413.215 122.93 412.602L122.964 412.587L123.139 412.517L123.985 412.171C124.985 411.761 126.008 411.342 127.035 410.965C129.701 409.985 132.378 409.035 135.065 408.116L135.371 408.017L135.651 407.927C136.151 407.767 136.651 407.605 137.149 407.442L137.789 407.235C138.309 407.071 138.826 406.899 139.339 406.717C139.941 406.502 140.543 406.28 141.144 406.059L141.417 405.959C142.181 405.678 142.971 405.387 143.754 405.113C144.008 405.024 144.261 404.934 144.515 404.843L144.565 404.826C145.054 404.653 145.558 404.472 146.059 404.306L146.317 404.222L146.571 404.138L146.651 404.36L146.656 404.364H146.657V404.364ZM201.88 404.745C201.284 404.444 200.575 404.347 199.9 404.273C199.389 404.218 198.88 404.168 198.371 404.117L198.137 404.094C197.378 404.007 196.607 403.932 195.861 403.858C195.501 403.823 195.14 403.788 194.781 403.75C194.292 403.694 193.803 403.644 193.313 403.593C193.013 403.559 192.711 403.525 192.411 403.493L192.409 403.491C190.738 403.315 189.072 403.097 187.412 402.837C186.95 402.764 186.486 402.695 186.022 402.625C184.796 402.442 183.526 402.255 182.309 401.982C181.44 401.787 180.574 401.58 179.711 401.361C179.301 401.259 178.889 401.163 178.475 401.073C178.091 400.988 177.707 400.903 177.328 400.809C175.944 400.465 174.544 400.099 173.191 399.744L172.245 399.496C171.682 399.349 171.12 399.206 170.557 399.062C169.767 398.859 168.976 398.657 168.188 398.448C167.588 398.288 166.984 398.111 166.4 397.938C165.766 397.747 165.129 397.566 164.488 397.396C164.086 397.292 163.686 397.184 163.285 397.076L163 397C164.664 397.405 166.346 397.796 167.83 398.14L167.892 398.154L167.928 398.162C169.047 398.422 170.165 398.682 171.282 398.945C173.839 399.491 176.539 400.033 178.707 400.467L178.886 400.502L179.398 400.605L179.525 400.63L182.812 401.293C183.685 401.453 184.605 401.591 185.345 401.701L185.481 401.722C185.914 401.787 186.338 401.85 186.761 401.918L188.391 402.18C189.593 402.375 190.796 402.568 191.999 402.753L194.349 403.113L194.629 403.155C197.21 403.549 200.136 403.997 203 404.469L202.255 405C202.143 404.898 202.016 404.812 201.88 404.745V404.745ZM158 396.028C158.004 396.019 158.007 396.01 158.009 396L159 396.142L158 396.028ZM266.063 410.996C265.803 410.993 265.542 410.991 265.282 410.99C264.748 410.99 264.213 410.98 263.679 410.961L262.485 410.916L262.092 410.901H262.057C261.081 410.865 260.07 410.828 259.077 410.774L257.613 410.701C256.109 410.628 254.584 410.554 253.1 410.414C251.244 410.201 249.464 409.904 247.33 409.536L246.642 409.419L246.524 409.399L246.486 409.392C245.714 409.262 244.916 409.126 244.138 408.969L243.693 408.879L243.329 408.806L243.254 408.791C242.376 408.621 241.502 408.434 240.631 408.231C240.435 408.184 240.239 408.139 240.042 408.095C239.651 408.013 239.262 407.917 238.877 407.809L238.083 407.574L237.291 407.338C236.101 406.927 235.111 406.576 234.128 406.13C233.132 405.681 232.159 405.184 231.211 404.641C230.847 404.412 230.526 404.191 230.229 403.963C229.893 403.709 229.542 403.474 229.179 403.259L228.364 402.764C227.763 402.401 227.164 402.038 226.568 401.671C225.715 401.143 224.867 400.607 224.024 400.063C223.576 399.778 223.123 399.502 222.663 399.236C223.416 398.976 223.845 398.244 223.618 397.607C223.494 397.26 223.191 396.957 222.788 396.774C222.544 396.664 222.288 396.606 222 396.594L222.071 396.372L222.135 396.142C222.348 395.388 222.555 394.634 222.765 393.879L222.907 393.363L222.931 393.273C223.401 391.573 223.885 389.818 224.389 388.096C225.012 385.972 225.745 383.876 226.315 382.291C226.511 381.747 226.734 381.179 226.915 380.724L226.941 380.655C227.077 380.309 227.214 379.965 227.345 379.619L227.575 379C227.818 379.108 228.105 379.168 228.502 379.197L229.17 379.244C230.325 379.327 231.553 379.414 232.752 379.48L234.742 379.589L236.727 379.697L237.125 379.721L237.337 379.734L237.417 379.738C237.852 379.765 238.301 379.792 238.742 379.804L240.51 379.853L242.277 379.901C243.4 379.932 244.42 379.947 245.4 379.947C246.179 379.947 246.876 379.938 247.532 379.92C249.674 379.862 251.475 379.82 253.312 379.801L253.732 379.799C255.097 379.799 256.483 379.863 257.825 379.925L258.308 379.947C259.788 380.013 261.272 380.149 262.708 380.281L263.249 380.331C265.903 380.621 267.963 381.018 269.732 381.579L270.734 381.899L272.464 382.449L273.322 382.756C275.034 383.368 276.785 383.994 278.432 384.726L280.234 385.526C280.56 385.672 280.878 385.831 281.231 386.008L281.693 386.238C282.488 386.626 283.258 387.06 284.002 387.482L284.277 387.638C285.094 388.142 285.799 388.615 286.434 389.083C286.762 389.326 287.092 389.59 287.382 389.822L287.562 389.966L287.719 390.091C287.981 390.298 288.278 390.532 288.55 390.78C289.01 391.282 289.407 391.844 289.8 392.544C289.937 392.79 290.076 393.035 290.215 393.28C290.424 393.713 290.569 394.119 290.659 394.52C290.705 394.736 290.751 394.95 290.794 395.164C291.018 396.58 291.059 398.031 290.918 399.478C290.801 400.042 290.641 400.597 290.441 401.138C290.248 401.644 290 402.188 289.656 402.848L289.63 402.894L289.332 403.409C288.988 403.991 288.576 404.529 288.105 405.014C286.907 406.146 285.477 407.085 284.237 407.855C283.521 408.258 282.737 408.605 281.842 408.915C281.205 409.111 280.536 409.293 279.852 409.459C279.169 409.631 278.479 409.778 277.785 409.9L276.39 410.13L275.693 410.246C274.586 410.424 273.475 410.583 272.362 410.721L271.595 410.776L270.812 410.833L270.058 410.888C269.548 410.925 269.031 410.941 268.503 410.956L268.223 410.965L267.943 410.973C267.317 410.996 266.69 411.004 266.063 410.996ZM189.222 358.102L189 358.035L189.034 358L189.354 358.141L189.222 358.102V358.102ZM186.942 357.719C185.524 357.289 184.103 356.869 182.679 356.457C181.783 356.199 180.891 355.939 180 355.677C180.146 355.555 180.291 355.424 180.434 355.294L180.65 355.1L180.76 355L181.385 355.252L181.472 355.287L181.736 355.391L183.679 356.157L184.561 356.505C185.031 356.689 185.502 356.872 185.973 357.054L186.173 357.131L186.365 357.207C186.912 357.419 187.458 357.631 188 357.849L187.877 358L186.942 357.72V357.719ZM246.034 332.558C245.357 332.814 244.873 333.045 244.333 333.109C243.537 333.202 242.73 333.298 241.923 333.337C241.026 333.381 240.121 333.387 239.221 333.411C238.269 333.438 237.317 333.471 236.366 333.507C235.386 334.089 234.409 334.675 233.433 335.261L232.301 335.939C231.738 336.276 231.193 336.639 230.666 336.99C230.424 337.151 230.182 337.312 229.939 337.47C229.35 337.855 228.993 338.088 228.634 338.32L227.504 338.3L226.415 338.28C226.089 338.28 225.825 338.484 225.825 338.734C225.825 338.981 226.085 339.18 226.415 339.185L227.249 339.2C226.629 339.559 226.014 339.927 225.404 340.303C224.785 340.678 224.281 340.985 223.774 341.29C222.928 341.788 222.409 342.095 221.899 342.363L221.349 342.648C220.845 342.908 220.326 343.173 219.839 343.459C218.977 343.962 218.114 344.486 217.279 344.992C216.585 345.412 216.224 345.632 215.861 345.85C215.247 346.219 214.628 346.604 213.973 347.026C213.528 347.311 213.113 347.635 212.711 347.948C212.546 348.078 212.414 348.181 212.282 348.282C211.446 348.922 210.669 349.617 209.917 350.288C209.676 350.506 209.434 350.722 209.189 350.936C208.919 351.173 208.627 351.402 208.345 351.623C207.555 352.249 207.131 352.606 206.775 352.907C206.627 353.032 206.481 353.161 206.335 353.289C206.071 353.523 205.838 353.727 205.599 353.918C205.342 354.123 205.082 354.324 204.819 354.523L204.353 354.88C203.958 355.185 203.538 355.519 203.127 355.886L202.713 356.258C202.441 356.504 202.168 356.75 201.893 356.993C200.983 357.797 200.195 358.491 199.444 359.189C198.929 358.969 198.413 358.751 197.896 358.534C198.246 358.168 198.342 358.06 198.436 357.951C198.802 357.524 199.197 357.067 199.616 356.621C199.731 356.501 199.847 356.381 199.964 356.263C201.64 354.668 203.558 353.055 205.829 351.33L207.017 350.576L208.045 349.917C209.194 349.18 210.345 348.443 211.503 347.714C211.674 347.588 211.804 347.416 211.88 347.218C211.932 347.072 211.944 346.916 211.916 346.764L213.639 345.531L215.039 344.523C215.745 344.008 216.158 343.707 216.57 343.439L221.561 340.213L223.648 339.028L225.598 337.924L226.548 337.385L227.915 336.685L228.931 336.183L231.15 335.088C231.503 334.917 231.86 334.753 232.22 334.598C232.348 334.544 233.106 334.204 234.495 333.58L233.613 333.615C229.896 333.763 226.186 333.965 222.468 334.118C218.723 334.27 214.972 334.35 211.226 334.458C207.622 334.561 204.009 334.62 200.408 334.765C198.52 334.842 196.625 334.885 194.74 335.01C192.849 335.136 190.955 335.247 189.066 335.393C187.201 335.536 185.333 335.691 183.466 335.818C181.574 335.948 179.676 336.11 177.78 336.201L171.331 336.511C169.276 336.609 167.206 336.618 165.147 336.671C163.337 336.719 161.521 336.723 159.708 336.741C158.671 336.752 157.633 336.763 156.596 336.766C155.156 336.772 153.724 336.749 152.287 336.701C151.51 336.679 150.733 336.624 149.96 336.537C148.47 336.723 146.67 331.24 144.158 327.932C143.145 326.598 133.34 324.746 128.976 323.858C128.436 323.922 127.863 323.996 127.312 324.074C125.674 324.314 123.966 324.602 122.09 324.957L120.84 325.196C119.67 325.419 118.731 325.598 117.796 325.762C117.804 325.225 117.846 324.687 117.904 324.158C117.664 324.256 117.404 324.337 117.109 324.4C116.318 324.551 115.505 324.546 114.715 324.388C114.065 324.627 114.038 325.022 114.012 325.382C113.992 325.682 113.986 325.988 113.997 326.298C113.309 326.415 112.616 326.497 111.932 326.576L109.662 326.836C108.948 326.714 108.259 326.766 107.57 326.818C106.996 326.86 106.422 326.904 105.85 326.949C105.854 327.022 105.677 327.144 105.32 327.314C103.938 327.434 102.648 327.533 101.376 327.617C100.844 327.653 100.311 327.687 99.7782 327.72C99.0092 327.769 98.2422 327.817 97.4732 327.874C95.0262 328.057 92.3612 328.298 89.3272 328.61C88.4532 328.697 87.6072 328.766 86.7392 328.822C86.4212 328.845 86.1032 328.862 85.7832 328.88C85.1652 328.913 84.7082 328.938 84.2512 328.972C83.6442 329.02 82.9362 329.09 82.2912 329.249C81.8112 329.369 81.3972 329.526 81.0582 329.718C80.8442 329.838 80.6312 329.969 80.4042 330.12C80.1532 330.287 79.9512 330.526 79.7742 330.737C79.65 330.889 79.5405 331.052 79.4472 331.224C79.2884 331.507 79.1363 331.793 78.9912 332.083C78.9052 332.257 78.8252 332.431 78.7442 332.607C78.4822 333.177 78.3692 333.423 78.2662 333.668C77.6932 335.035 77.1757 336.425 76.7152 337.834C76.2592 339.226 75.8602 340.639 75.4732 342.004C75.0806 343.39 74.7049 344.781 74.3462 346.176C73.9853 347.6 73.6767 349.036 73.4212 350.482C73.2672 351.33 73.0992 352.177 72.9292 353.024C72.7882 353.736 72.6832 354.264 72.5832 354.791C72.4602 355.423 72.3572 356.119 72.2882 356.58L72.1962 357.197C72.165 357.4 72.1437 357.603 72.1322 357.808C72.1192 357.968 72.1022 358.141 72.0822 358.326C72.049 358.591 72.0287 358.857 72.0212 359.124L72.0132 359.849L72.0032 360.595C71.9982 360.983 71.9952 361.397 72.0252 361.789C72.0462 362.097 72.0702 362.441 72.1452 362.774C72.2172 363.098 72.3772 363.374 72.5462 363.669C72.6692 363.876 72.8222 364.042 72.9702 364.203C73.2452 364.499 73.5152 364.753 73.8632 365.051C74.4432 365.543 75.1452 365.945 75.7582 366.281C76.4252 366.651 77.1882 366.964 78.1612 367.267C78.3842 367.677 78.6452 368.082 78.9322 368.467C78.0952 368.891 77.3652 369.254 76.7022 369.575C77.7822 369.981 78.8572 370.392 79.9142 370.829C80.3192 370.625 80.7152 370.419 81.1082 370.217C81.6272 370.416 82.0932 370.604 82.5282 370.794C83.1522 371.076 83.4782 371.237 83.8142 371.416C85.2862 372.198 86.6842 373.021 88.2272 373.938C89.1662 374.373 89.7072 374.583 90.2262 374.825L92.5182 375.9L93.4752 376.27C94.1382 376.69 94.7962 377.08 95.4682 377.44C96.0662 377.76 96.6472 378.104 97.2282 378.445C97.3272 378.274 97.4282 378.092 97.5262 377.91C99.3282 378.545 100.69 379.032 101.786 379.426L102.583 379.713C103.606 380.083 104.765 380.503 105.918 380.867C109.119 381.884 112.321 382.896 115.527 383.903L116.98 384.36C119.92 385.325 122.463 386.16 124.96 386.99L125.694 387.235L127.918 387.975C128.588 388.203 128.973 388.332 129.367 388.45L132.483 389.4L138.04 390.899C142.41 392.079 147.118 393.283 153.307 394.801C152.613 395.295 152.147 395.701 151.617 396.228C151.441 396.401 151.304 396.611 151.218 396.843C151.132 397.075 151.097 397.322 151.117 397.569C150.824 397.886 150.773 398.027 150.77 398.177L151.51 398.579C152.203 399.229 152.662 399.438 153.108 399.641C153.575 399.856 153.711 399.921 153.845 399.986C152.828 400.357 152.085 400.635 151.343 400.89L148.253 401.951C146.478 402.508 144.706 403.079 142.939 403.663C142.085 403.946 141.234 404.236 140.385 404.526C139.498 404.83 138.932 405.023 138.365 405.214L137.245 405.543C135.885 405.94 134.973 406.207 134.073 406.493C133.133 406.789 132.196 407.089 131.259 407.389L130.569 407.609L129.418 407.977L128.673 408.212C127.333 408.635 125.948 409.073 124.603 409.562C123.182 410.083 121.766 410.618 120.356 411.169L119.059 411.673C118.295 411.97 117.576 412.314 116.76 412.773C116.103 413.141 115.427 413.547 114.568 414.088L113.254 414.919C112.447 415.434 111.636 415.944 110.823 416.45C110.556 416.616 110.301 416.785 110.066 416.95C109.85 417.111 109.644 417.284 109.448 417.47C108.88 417.985 108.301 418.488 107.712 418.978C107.035 419.539 106.509 419.974 106.072 420.45C105.87 420.67 105.71 420.878 105.584 421.088C105.244 421.681 105.14 421.884 105.049 422.087C104.973 422.271 104.913 422.462 104.869 422.656C104.614 423.664 104.539 424.544 104.619 425.373C104.681 426.021 104.859 426.667 105.035 427.273C105.219 427.906 105.372 428.438 105.589 428.95C106.15 430.268 106.907 431.503 107.699 432.757C108.232 433.599 108.873 434.414 109.493 435.203L109.982 435.827L110.275 436.208C110.97 437.107 111.687 438.037 112.492 438.905C113.532 440.025 114.782 441.037 115.872 441.896C116.084 442.062 116.296 442.226 116.509 442.39C117.319 443.019 118.057 443.492 118.928 443.961C119.908 444.493 120.991 444.848 121.918 445.123C122.92 445.423 124.038 445.635 125.436 445.795C126.636 445.932 127.713 446 128.723 446C129.438 445.994 130.152 445.969 130.865 445.926C131.517 445.896 131.756 445.885 131.997 445.862L133.323 445.732C134.236 445.64 135.144 445.511 136.046 445.346C136.337 445.296 136.649 445.236 136.949 445.15C137.426 445.016 137.918 444.836 138.453 444.601C138.993 444.364 139.517 444.071 139.98 443.813C141.765 442.82 143.025 441.989 144.058 441.136C144.434 440.824 144.793 440.487 145.139 440.162C145.379 439.938 145.491 439.832 145.606 439.727L146.012 439.357C146.348 439.053 146.674 438.757 146.979 438.454C148.714 436.732 150.678 434.88 153.161 432.627C154.433 431.47 155.682 430.288 156.908 429.083C158.278 427.745 159.611 426.435 160.884 425.101C161.318 424.689 161.622 424.401 161.936 424.13C162.362 423.76 162.792 423.397 163.229 423.035C164.031 422.367 164.86 421.676 165.636 420.938C165.839 420.741 165.966 420.618 166.015 420.567L166.475 420.093C166.958 419.59 167.115 419.433 167.27 419.273C167.539 418.999 167.747 418.787 167.949 418.569C168.275 418.218 168.609 417.873 168.943 417.526C169.96 416.546 170.888 415.671 171.943 414.86C172.477 414.463 172.623 414.355 172.763 414.245C173.01 414.05 173.242 413.837 173.457 413.608C174.187 414.354 174.89 415.126 175.567 415.92C176.041 416.47 176.502 417.067 176.937 417.696C177.137 417.985 177.325 418.296 177.512 418.646C177.702 418.813 177.87 418.923 178.059 419.006C178.701 419.231 178.925 419.296 179.147 419.337L179.891 419.046C180.623 418.737 180.791 418.649 180.961 418.561C181.621 418.23 182.29 417.917 182.967 417.621C184.087 417.123 185.218 416.652 186.361 416.209C188.201 415.446 189.739 414.796 191.199 414.166C193.62 412.768 196.07 411.421 198.547 410.125C198.887 409.945 199.228 409.763 199.567 409.581L200.185 409.25C200.853 408.887 201.51 408.505 202.155 408.103C202.678 407.78 203.235 407.43 203.774 407.052C204.545 406.514 205.307 405.963 206.06 405.4C206.247 405.254 206.388 405.074 206.466 404.877C207.963 405.128 209.091 405.32 210.106 405.498C209.914 405.605 209.726 405.725 209.539 405.846C209.57 406.115 209.885 406.101 210.164 406.101C210.936 406.129 211.332 406.145 211.729 406.156C212.015 406.166 212.301 406.169 212.586 406.169C212.924 406.169 213.262 406.163 213.599 406.154C213.896 406.146 214.192 406.134 214.487 406.122C215.513 406.137 216.315 406.367 217.005 406.766C217.066 406.339 217.086 406.15 217.106 405.96C217.163 405.413 217.201 405.051 217.249 404.692C218.161 404.579 218.409 404.507 218.651 404.419L219.528 403.969C219.775 403.739 219.941 403.585 220.052 403.403C220.16 403.232 220.251 403.051 220.325 402.863C220.431 402.583 220.525 402.293 220.625 401.947C221.333 402.076 221.62 402.259 221.907 402.443C222.381 402.746 222.657 402.923 222.939 403.096C223.887 403.683 224.494 404.057 225.105 404.426L225.75 404.811C226.242 405.104 226.734 405.395 227.203 405.695C227.385 405.814 227.559 405.945 227.727 406.07C228.392 406.561 228.845 406.835 229.27 407.086C230.83 408 232.274 408.702 233.686 409.232C234.66 409.599 235.539 409.93 236.434 410.194L237.356 410.466C238.284 410.74 238.57 410.806 238.847 410.87C240.116 411.17 240.938 411.353 241.723 411.511C241.969 411.561 242.213 411.612 242.458 411.664C243.102 411.799 243.682 411.919 244.258 412.017L245.424 412.218C248.022 412.668 250.708 413.133 253.417 413.408C254.506 413.518 255.624 413.574 256.704 413.628L257.708 413.678C258.93 413.743 259.493 413.773 260.054 413.795L261.91 413.871L263.772 413.945C264.372 413.97 264.974 413.977 265.643 413.985C266.54 413.995 266.74 413.995 266.939 413.995C268.744 413.995 270.538 413.883 271.899 413.785C272.762 413.728 273.173 413.702 273.571 413.649C274.095 413.582 274.618 413.514 275.141 413.446C276.049 413.329 276.956 413.178 277.834 413.033L279.264 412.798C280.479 412.597 281.652 412.295 282.537 412.052C283.869 411.692 284.979 411.3 285.932 410.854C286.491 410.591 287.008 410.274 287.509 409.968C288.057 409.633 288.599 409.287 289.133 408.93C290.082 408.289 290.966 407.556 291.771 406.742C292.163 406.349 292.494 405.974 292.78 405.596C292.933 405.384 293.072 405.163 293.196 404.933C293.778 403.933 294.16 403.198 294.486 402.473C294.765 401.869 294.974 401.235 295.109 400.584C295.27 399.764 295.402 399.024 295.382 398.262C295.364 397.452 295.334 396.762 295.292 396.15C295.236 395.372 295.072 394.603 294.897 393.818C294.744 393.129 294.422 392.504 294.127 391.982L293.902 391.578C293.625 391.08 293.339 390.565 292.99 390.086C292.395 389.271 291.59 388.587 290.807 387.971C289.827 387.189 288.805 386.462 287.746 385.791C287.019 385.335 286.246 384.906 285.499 384.491L284.866 384.141C284.635 384.014 284.399 383.897 284.159 383.789C283.614 383.531 283.509 383.479 283.404 383.426C283.161 383.303 282.915 383.186 282.666 383.073C282.462 382.983 282.259 382.89 282.054 382.798C281.468 382.522 280.874 382.263 280.273 382.02C280.067 381.94 279.864 381.857 279.66 381.774C279.041 381.518 278.416 381.274 277.786 381.044C276.811 380.694 275.836 380.344 274.862 379.996C274.573 379.893 274.281 379.798 273.987 379.71L271.715 378.993C270.084 378.476 268.362 378.082 266.451 377.789C265.193 377.599 263.903 377.487 262.655 377.379C263.514 376.807 264.597 376.185 265.875 375.412C267.08 374.712 268.35 374.077 269.433 373.548C270.426 373.066 271.413 372.544 272.283 372.085L273.125 371.64C275.071 370.797 276.617 370.21 278.371 369.565C279.852 368.777 280.873 368.2 281.904 367.637C282.341 367.399 282.78 367.162 283.218 366.927C284.222 366.391 285.218 365.843 286.208 365.283C287.464 364.56 288.717 363.83 289.966 363.095L290.586 362.732C292.169 361.812 293.736 360.865 295.287 359.891C296.727 358.978 298.209 357.985 299.399 357.186C301.266 355.936 303.145 354.705 305.037 353.494C305.918 352.931 306.795 352.364 307.669 351.791C308.309 351.366 308.938 350.925 309.555 350.468C310.254 349.956 310.957 349.45 311.664 348.949C312.216 348.556 312.774 348.167 313.331 347.777C314.035 347.287 314.738 346.796 315.439 346.302C316.786 345.348 318.105 344.355 319.394 343.325C320.304 342.596 321.148 341.735 321.976 340.689C322.744 339.721 323.293 338.878 323.703 338.034C323.831 337.769 323.93 337.502 324 337.24C323.982 337.032 323.959 336.825 323.93 336.618C323.852 336.255 323.769 335.892 323.681 335.531L323.561 335.016C323.488 334.702 323.422 334.386 323.356 334.071L323.243 333.537L323.152 333.112C323.102 332.879 323.082 332.796 323.062 332.712L322.962 332.293L322.859 331.879C322.428 330.251 322.033 329.062 321.57 327.932C321.061 327.578 320.57 327.254 320.002 326.879C319.755 326.717 319.503 326.564 319.246 326.419L318.697 326.099C318.466 325.958 318.231 325.824 317.992 325.696C317.682 325.533 317.371 325.373 317.058 325.213C316.498 324.927 316.192 324.772 315.89 324.615C314.593 323.943 313.306 323.25 312.032 322.535L311.446 322.176L310.132 321.371C309.926 321.246 309.719 321.121 309.512 320.997C309.064 320.732 308.618 320.462 308.176 320.187C307.452 319.734 306.734 319.27 306.023 318.796C305.308 318.314 304.686 317.896 304.049 317.49C303.805 317.333 303.556 317.18 303.306 317.028C301.446 316.924 299.589 316.828 297.735 316.735C297.19 316.655 296.373 316.535 295.578 316.432C293.621 316.187 291.661 315.97 289.698 315.782C287.839 315.609 285.979 315.457 284.116 315.326C283.345 315.271 282.575 315.21 281.803 315.148C280.827 315.068 279.85 314.994 278.873 314.926C274.946 314.666 271.091 314.412 267.127 314.186C265.577 314.1 255.899 314.234 254.396 314.186C253.862 315.533 246.416 332.397 246.034 332.558V332.558Z" fill="black"/>
<path fill-rule="evenodd" clip-rule="evenodd" d="M241.6 322.584C240.467 323.01 239.327 323.398 238.14 323.694L238 323.729C238.185 323.996 238.377 324.261 238.568 324.525L238.912 325C239.496 324.948 240.081 324.893 240.667 324.833C240.994 324.792 241.321 324.743 241.641 324.677C242.07 323.772 242.523 322.88 243 322C242.544 322.212 242.078 322.405 241.6 322.584ZM157.508 324C157.511 323.732 157.558 323.464 157.653 323.196C157.739 322.964 157.853 322.746 158 322.541C157.911 322.508 157.822 322.472 157.735 322.433L157 322L157.508 324Z" fill="black"/>
<path fill-rule="evenodd" clip-rule="evenodd" d="M92.507 374.241L92 374.403C92.324 374.518 92.647 374.635 92.97 374.754C92.9137 374.558 92.8654 374.36 92.825 374.16L92.82 374.137C92.716 374.173 92.61 374.208 92.507 374.24" fill="black"/>
<path fill-rule="evenodd" clip-rule="evenodd" d="M169.088 209.145L169 209.165L170 209.402C169.903 209.269 169.806 209.135 169.711 209C169.504 209.053 169.296 209.1 169.088 209.145V209.145ZM172.72 195.212C172.55 195.382 172.373 195.545 172.189 195.699C171.739 195.983 171.262 196.209 170.773 196.421C169.492 196.925 168.159 197.307 166.823 197.649C166.391 197.759 165.957 197.874 165.52 197.959C165.072 198.045 164.628 198.12 164.178 198.185C163.475 198.262 162.774 198.335 162.068 198.373C161.351 198.413 160.633 198.43 159.915 198.433C158.43 198.436 156.945 198.423 155.459 198.398C153.964 198.374 152.469 198.357 150.974 198.323C150.174 198.305 149.374 198.29 148.574 198.277C148.244 198.272 147.912 198.291 147.581 198.303C147.189 198.317 146.796 198.332 146.401 198.343C144.93 198.389 143.456 198.405 141.983 198.455C141.188 198.482 140.393 198.508 139.597 198.523C138.887 198.536 138.174 198.534 137.463 198.549C136.703 198.565 135.941 198.583 135.183 198.662C134.449 198.741 133.714 198.807 132.978 198.862C132.657 198.884 132.334 198.901 132.013 198.93C131.533 198.973 131.056 199.037 130.58 199.108C129.893 199.211 129.218 199.361 128.54 199.508C127.847 199.656 127.154 199.798 126.46 199.937C125.805 200.068 125.154 200.211 124.497 200.33C123.777 200.462 123.07 200.62 122.371 200.83C121.674 201.038 120.998 201.32 120.341 201.625C119.802 201.874 119.28 202.153 118.731 202.384L118.71 202.392C118.565 202.542 118.423 202.692 118.283 202.846C117.899 203.411 117.586 204.021 117.261 204.62C116.949 205.195 116.655 205.78 116.379 206.374C115.77 207.863 115.275 209.42 115 211C115.038 210.86 115.078 210.72 115.12 210.58C115.24 210.176 115.363 209.773 115.511 209.376C115.611 209.11 115.719 208.846 115.829 208.585C115.946 208.339 116.069 208.101 116.211 207.867C116.314 207.694 116.433 207.532 116.555 207.373C116.862 207.02 117.192 206.703 117.56 206.413C118.247 205.923 118.983 205.504 119.756 205.164C120.186 204.974 120.614 204.78 121.033 204.571C121.455 204.361 121.873 204.151 122.303 203.958C123.784 203.388 125.35 203.092 126.904 202.773C127.743 202.603 128.58 202.424 129.416 202.238C130.223 202.054 131.036 201.897 131.853 201.768C132.463 201.704 133.076 201.658 133.687 201.597C134.45 201.52 135.211 201.417 135.976 201.357C137.448 201.24 138.926 201.225 140.399 201.139C141.933 201.05 143.467 200.967 145.002 200.89C146.473 200.818 147.939 200.685 149.412 200.654C152.376 200.59 155.342 200.555 158.304 200.439C159.107 200.408 159.908 200.369 160.708 200.316C161.457 200.258 162.204 200.173 162.947 200.062C163.709 199.957 164.466 199.832 165.221 199.683C165.502 199.628 165.784 199.545 166.061 199.468C166.418 199.368 166.776 199.271 167.131 199.168C167.919 198.941 168.695 198.698 169.474 198.448C170.148 198.232 170.812 197.989 171.466 197.718C171.922 197.529 172.366 197.308 172.792 197.061C173.167 196.843 173.477 196.542 173.782 196.243C173.851 196.176 173.905 196.096 173.942 196.007C173.98 195.919 173.999 195.824 173.999 195.727C173.999 195.631 173.98 195.536 173.942 195.448C173.905 195.359 173.851 195.279 173.782 195.212C173.64 195.075 173.45 194.999 173.252 195C173.054 194.999 172.863 195.075 172.72 195.212V195.212ZM114 225C114.023 224.726 114.046 224.453 114.067 224.18C114.122 223.492 114.106 222.804 114.095 222.116C114.089 221.744 114.082 221.372 114.073 221C114.043 222.333 114.019 223.667 114 225ZM114 236.523C114 238.071 114.008 239.618 114.018 241.166C114.026 242.398 114.073 243.628 114.098 244.86C114.148 247.24 114.18 249.62 114.218 252V250.344C114.218 250.017 114.23 249.691 114.238 249.364C114.245 249.072 114.27 248.781 114.292 248.49C114.338 248.083 114.389 247.679 114.441 247.273C114.499 246.815 114.581 246.362 114.651 245.906C114.728 245.416 114.812 244.932 114.87 244.438C114.909 244.096 114.937 243.753 114.968 243.41C115.025 242.759 115.006 242.103 114.91 241.456C114.775 240.503 114.615 239.554 114.43 238.61C114.346 238.194 114.256 237.782 114.182 237.363C114.115 236.99 114.06 236.616 114.017 236.24L114 236V236.523ZM115.22 271.638C115.248 272.998 115.262 274.358 115.281 275.718C115.475 276.245 115.574 276.788 115.659 277.337C115.761 278.338 115.77 279.346 115.687 280.349C115.647 280.853 115.607 281.356 115.561 281.857L115.498 282.539C115.588 284.559 115.672 286.577 115.694 288.599C115.706 289.737 115.727 290.881 115.677 292.019C115.693 292.161 115.707 292.303 115.721 292.444C115.787 293.102 115.841 293.78 115.817 294.44C115.79 295.18 115.749 295.918 115.701 296.659C115.654 297.363 115.563 298.069 115.489 298.773C115.345 300.155 115.309 301.548 115.249 302.934C115.193 304.231 115.106 305.526 115.071 306.824C115.369 307.802 115.723 308.761 116.133 309.698C116.41 310.203 116.748 310.675 117.063 311.164C117.463 311.791 117.886 312.403 118.331 313C118.319 312.282 118.304 311.563 118.285 310.845C118.264 310.062 118.248 309.279 118.235 308.496C118.224 307.796 118.248 307.096 118.262 306.396C118.292 305.036 118.399 303.678 118.458 302.319C118.518 300.903 118.597 299.489 118.744 298.079C118.816 297.389 118.879 296.699 118.926 296.007C118.968 295.342 119.015 294.672 118.996 294.005C118.952 292.553 118.773 291.115 118.546 289.679C118.517 289.448 118.491 289.217 118.469 288.985C118.445 288.677 118.431 288.369 118.427 288.06C118.417 287.513 118.433 286.963 118.451 286.416C118.493 285.184 118.556 283.956 118.663 282.729C118.808 281.077 119.008 279.426 118.883 277.767C118.844 277.261 118.755 276.759 118.678 276.257C118.642 276.035 118.598 275.813 118.547 275.594C118.447 275.155 118.27 274.744 118.072 274.336C117.82 273.811 117.528 273.304 117.267 272.784C117.012 272.236 116.788 271.674 116.597 271.101C116.362 270.371 116.184 269.628 115.944 268.9C115.74 268.286 115.488 267.685 115.292 267.07C115.181 266.717 115.084 266.36 115 266C115.102 267.879 115.18 269.758 115.22 271.638ZM116.217 328.075L115 328.135C115.12 328.62 115.739 329 116.49 329C117.315 329 117.964 328.548 118 328C117.406 328.022 116.811 328.046 116.217 328.075ZM147.002 225.898C147.101 227.075 147.176 228.255 147.227 229.435C147.269 230.399 147.28 231.363 147.29 232.326C147.302 233.266 147.297 234.206 147.326 235.146C147.34 235.62 147.365 236.093 147.41 236.566C147.453 237.024 147.533 237.479 147.61 237.933C147.754 239.023 147.827 240.123 147.755 241.22C147.68 242.274 147.567 243.326 147.416 244.372C147.264 245.326 147.104 246.282 147.054 247.246C146.998 248.291 147.048 249.329 147.114 250.373C147.181 251.408 147.396 252.42 147.621 253.435C147.728 253.911 147.831 254.387 147.944 254.862C148.063 255.362 148.18 255.862 148.296 256.362C148.399 256.809 148.476 257.258 148.55 257.708C148.689 258.886 148.83 260.063 148.907 261.245C148.946 261.849 148.981 262.452 148.997 263.057C149.004 263.422 149.013 263.787 149.022 264.152C149.029 264.448 149.033 264.745 149.028 265.042C149.016 265.46 148.978 265.877 148.913 266.29C148.817 266.835 148.735 267.385 148.613 267.927C148.473 268.548 148.338 269.172 148.184 269.79C147.862 271.093 147.517 272.393 147.2 273.697L147.144 273.93C148.184 273.957 149.224 273.98 150.264 274C150.44 273.275 150.63 272.552 150.804 271.826C151.106 270.556 151.425 269.287 151.64 268.004L151.816 266.954C151.886 266.536 151.932 266.115 151.971 265.694C152.018 265.199 151.998 264.704 151.981 264.207C151.955 263.538 151.92 262.869 151.876 262.201C151.823 261.389 151.743 260.578 151.636 259.771C151.506 258.769 151.389 257.764 151.211 256.768C151.052 255.875 150.811 254.998 150.586 254.116C150.325 253.092 150.061 252.057 149.888 251.019C149.834 250.539 149.81 250.058 149.782 249.576C149.766 249.301 149.742 249.025 149.736 248.749C149.729 248.162 149.743 247.574 149.778 246.988C149.835 245.832 150.028 244.689 150.138 243.538C150.248 242.378 150.327 241.212 150.216 240.05C150.148 239.365 150.048 238.684 149.915 238.008C149.813 237.474 149.675 236.945 149.582 236.41C149.36 234.749 149.362 233.07 149.31 231.401C149.253 229.564 149.146 227.729 148.99 225.898C148.969 225.653 148.896 225.441 148.699 225.264C148.505 225.093 148.255 224.999 147.997 225C147.487 225 146.961 225.41 147.002 225.898ZM141.208 318.655C141.072 319.525 140.955 320.396 140.818 321.266C140.713 321.869 140.594 322.469 140.462 323.066C140.385 323.417 140.322 323.77 140.248 324.121C140.144 324.603 140.046 325.086 140.003 325.576C139.948 326.203 140.569 326.792 141.267 326.951C142.147 327.153 143.165 326.711 143.384 325.955C143.639 325.076 143.824 324.185 144 323.292L143.835 322.883L141.465 317C141.382 317.552 141.295 318.103 141.208 318.655" fill="black"/>
<path fill-rule="evenodd" clip-rule="evenodd" d="M150.105 257.831C150.095 260.761 150.077 263.691 150.055 266.621C150.035 269.016 149.969 271.411 150.017 273.808L150.042 274.958C150.695 274.973 151.347 274.988 152 275C151.898 273.022 151.835 271.043 151.81 269.063C151.762 265.319 151.75 261.575 151.754 257.831C151.753 257.612 151.666 257.402 151.511 257.247C151.357 257.092 151.148 257.003 150.929 257C150.71 257.003 150.501 257.092 150.347 257.247C150.193 257.403 150.106 257.612 150.105 257.831V257.831ZM152.368 287.67C152.588 288.11 152.798 288.553 153 289L152.78 287.133C152.52 287.086 152.26 287.043 152 287C152.132 287.22 152.255 287.441 152.368 287.67ZM156.196 316.757C156.3 317.17 156.402 317.585 156.5 318L156.222 316.14C156.147 316.095 156.073 316.049 156 316L156.196 316.757V316.757ZM237.645 226.36C237.371 226.602 237.271 226.892 237.241 227.227C237.061 229.247 236.909 231.267 236.758 233.29C236.655 234.686 236.62 236.086 236.562 237.484C236.453 240.154 236.457 242.827 236.415 245.498C236.393 246.861 236.397 248.226 236.343 249.589C236.283 251.126 236.22 252.659 236.123 254.194C236.025 255.727 235.933 257.26 235.839 258.794C235.753 260.198 235.709 261.605 235.649 263.01C235.594 264.327 235.496 265.645 235.419 266.962C235.343 268.254 235.186 269.544 235.089 270.835L235 271.995H235.667C236.187 271.996 236.711 271.997 237.232 272L237.579 271.999C237.742 271.998 237.904 271.997 238.066 271.999C238.106 271.415 238.149 270.83 238.196 270.247C238.311 268.814 238.439 267.382 238.515 265.946C238.593 264.463 238.668 262.982 238.722 261.499C238.828 258.539 238.999 255.583 239.158 252.624C239.192 251.979 239.198 251.331 239.216 250.685C239.232 250.115 239.256 249.545 239.26 248.976C239.269 247.543 239.28 246.11 239.281 244.676C239.285 242.016 239.289 239.354 239.381 236.692C239.424 235.453 239.459 234.218 239.549 232.982C239.689 231.062 239.828 229.143 239.997 227.227C240.025 226.915 239.834 226.573 239.594 226.359C239.336 226.129 238.984 226 238.619 226C238.254 226 237.902 226.13 237.645 226.36V226.36ZM237 273.043C237.002 273.043 237.006 273.043 237.008 273.041C237.025 273.028 237.041 273.013 237.056 273C237.037 273.013 237.019 273.03 237 273.043ZM160.76 202.021L160.645 202.107C160.682 202.077 160.72 202.047 160.759 202.021H160.76ZM161.134 201.885C161.196 201.886 161.259 201.895 161.321 201.909C161.259 201.901 161.196 201.893 161.134 201.885V201.885ZM160.957 200.002C160.543 200.024 160.158 200.165 159.797 200.352C159.619 200.445 159.462 200.592 159.306 200.713C159.164 200.82 159.024 200.93 158.886 201.042C158.741 201.165 158.609 201.302 158.49 201.45C158.4 201.557 158.314 201.669 158.232 201.783C158.166 201.908 158.107 202.036 158.055 202.167C158.024 202.397 157.988 202.611 158.004 202.842C158.02 203.09 158.086 203.315 158.169 203.547C158.316 203.958 158.531 204.343 158.753 204.719C158.959 205.068 159.167 205.414 159.373 205.762C159.516 206 159.653 206.241 159.796 206.479L160.094 206.979C160.327 207.369 160.59 207.723 160.881 208.075C161.454 208.769 162.183 209.327 162.906 209.865C163.423 210.237 163.955 210.587 164.503 210.912C165.119 211.289 165.733 211.665 166.365 212.018C166.737 212.224 167.107 212.431 167.485 212.625C168.393 213.088 169.325 213.49 170.276 213.863C171.636 214.399 173.064 214.79 174.498 215.085C174.953 215.179 175.408 215.273 175.866 215.366C176.103 215.415 176.341 215.472 176.581 215.509C177.333 215.623 178.088 215.772 178.847 215.829C179.511 215.88 180.176 215.953 180.843 215.965C181.296 215.975 181.75 215.982 182.205 215.991C182.439 215.995 182.675 216.007 182.91 215.994L184.189 215.925C184.467 215.909 184.75 215.907 185.026 215.877C186.469 215.719 187.91 215.554 189.351 215.381C189.97 215.307 190.588 215.232 191.207 215.159C192.001 215.065 192.807 214.997 193.595 214.866L194.625 214.696C195.012 214.633 195.395 214.526 195.778 214.44C196.351 214.314 196.922 214.176 197.49 214.028C199.03 213.622 200.577 213.173 202.048 212.568C202.757 212.278 203.434 211.9 204.112 211.548C204.681 211.248 205.241 210.931 205.792 210.599C206.34 210.276 206.885 209.95 207.428 209.622C207.969 209.295 208.483 208.925 208.998 208.563C209.898 207.933 210.808 207.317 211.678 206.646C212.055 206.353 212.442 206.06 212.778 205.722C213.007 205.484 213.217 205.229 213.406 204.959C213.571 204.733 213.68 204.473 213.807 204.227C213.934 204.018 214.001 203.778 214 203.534C214 203.17 213.85 202.819 213.586 202.563C213.317 202.305 212.959 202.161 212.586 202.161C212.246 202.161 211.808 202.295 211.586 202.563C211.262 202.953 210.903 203.316 210.541 203.674C210.247 203.965 209.913 204.222 209.582 204.476C208.942 204.948 208.289 205.4 207.639 205.857C206.926 206.368 206.195 206.854 205.448 207.315C204.698 207.769 203.948 208.229 203.177 208.653C202.329 209.119 201.471 209.588 200.58 209.978C199.203 210.478 197.793 210.921 196.37 211.273C195.58 211.468 194.794 211.653 194.002 211.833C193.394 211.97 192.772 212.053 192.152 212.136C189.861 212.428 187.569 212.722 185.274 212.991C184.751 213.052 184.226 213.073 183.701 213.106L182.814 213.163C182.612 213.176 182.406 213.162 182.204 213.16C182.021 213.159 181.836 213.16 181.651 213.16C181.26 213.163 180.868 213.165 180.481 213.14L178.661 213.026L177.401 212.855C176.983 212.797 176.57 212.703 176.156 212.624C175.558 212.509 174.959 212.401 174.366 212.264C172.949 211.942 171.558 211.511 170.207 210.975C169.532 210.692 168.869 210.381 168.219 210.045C167.837 209.847 167.441 209.662 167.069 209.446C166.001 208.83 164.913 208.239 163.915 207.521C163.349 207.091 162.829 206.603 162.365 206.065C162.028 205.605 161.698 205.14 161.372 204.673C160.952 204.075 160.515 203.471 160.18 202.823C160.158 202.762 160.138 202.701 160.12 202.639L160.144 202.601C160.344 202.379 160.569 202.187 160.8 201.994L160.875 201.949C160.949 201.925 161.024 201.904 161.101 201.886C161.294 201.941 161.486 201.998 161.679 202.05C162.189 202.19 162.737 201.884 162.877 201.39C163.018 200.892 162.707 200.369 162.197 200.229C161.815 200.124 161.449 200 161.052 200C161.021 200 160.989 200 160.957 200.002V200.002ZM190.45 235.423C190.189 235.671 189.966 236.083 190.004 236.446C190.126 237.604 190.274 238.76 190.347 239.923L190.493 242.223L190.87 248.18C190.89 248.499 190.928 248.821 190.928 249.14L190.931 250.569L190.943 256.653L190.951 260.441C190.951 260.918 190.919 261.397 190.904 261.875L190.802 264.955C190.758 266.273 190.736 267.592 190.67 268.908L190.463 273C191.486 272.895 192.51 272.792 193.533 272.689C193.603 271.354 193.688 270.018 193.731 268.682L193.905 263.387C193.94 262.314 194.002 261.238 194 260.165L193.989 255.103L193.977 249.842C193.969 249.107 193.937 248.372 193.883 247.639L193.518 241.871C193.475 241.204 193.434 240.537 193.392 239.869C193.319 238.725 193.171 237.586 193.051 236.446C193.009 236.048 192.911 235.716 192.605 235.423C192.313 235.15 191.928 234.999 191.528 235C191.125 235 190.734 235.153 190.45 235.423V235.423ZM147.752 226.765C147.352 228.641 146.987 230.521 146.621 232.402C146.506 232.993 146.377 233.582 146.288 234.177C146.2 234.779 146.112 235.381 146.023 235.983C145.83 237.297 145.6 238.61 145.458 239.928C145.305 241.325 145.13 242.722 145.013 244.122L144.823 246.39C144.763 247.104 144.743 247.823 144.705 248.54C144.643 249.797 144.602 251.054 144.583 252.312C144.531 255.038 144.488 257.765 144.453 260.491C144.436 261.786 144.457 263.085 144.402 264.379C144.342 265.758 144.255 267.137 144.184 268.516C144.118 269.782 144.105 271.05 144.034 272.316L144 272.906L144.736 272.931C145.506 272.956 146.277 272.979 147.048 273C147.062 272.684 147.075 272.368 147.086 272.052C147.129 270.683 147.164 269.314 147.222 267.946C147.252 267.209 147.286 266.473 147.321 265.736C147.35 265.136 147.382 264.533 147.378 263.932C147.37 262.528 147.357 261.123 147.337 259.719C147.299 257.149 147.236 254.577 147.214 252.005C147.202 250.635 147.188 249.266 147.224 247.896C147.241 247.266 147.247 246.636 147.286 246.006C147.336 245.222 147.384 244.438 147.432 243.654C147.482 242.852 147.587 242.049 147.665 241.249C147.727 240.623 147.769 239.991 147.857 239.366L148.56 234.418C149.018 232.051 149.463 229.682 149.966 227.32C150.027 227.037 150.016 226.772 149.851 226.515C149.745 226.355 149.6 226.224 149.43 226.134C149.261 226.044 149.071 225.998 148.879 226C148.378 226 147.853 226.296 147.752 226.765V226.765ZM141.093 317.018C140.958 319.068 140.821 321.118 140.696 323.17C140.156 323.459 139.888 324.053 140.044 324.625C140.146 325.001 140.268 325.372 140.37 325.748C140.425 325.948 140.511 326.138 140.64 326.309C140.895 326.645 141.187 326.842 141.623 326.951C141.889 327.016 142.157 327.016 142.425 326.951C142.821 326.851 143.101 326.624 143.326 326.321C143.549 326.021 143.609 325.658 143.677 325.308C143.731 325.028 143.767 324.744 143.804 324.46C143.882 323.834 143.948 323.207 144 322.578C143.95 322.439 143.898 322.3 143.847 322.162C142.969 319.775 142.093 317.387 141.212 315C141.175 315.672 141.138 316.345 141.093 317.018" fill="black"/>
<path fill-rule="evenodd" clip-rule="evenodd" d="M148.447 235.03C148.082 235.128 147.766 235.484 147.79 235.865C147.873 237.106 147.96 238.348 148.047 239.589C148.053 239.692 148.063 239.795 148.071 239.898L148.104 240.795L148.115 241.546L148.139 243.536C148.046 243.584 147.963 243.651 147.896 243.731C147.829 243.812 147.778 243.905 147.748 244.006C147.605 244.484 147.518 244.975 147.424 245.461L147.373 245.724C147.203 245.759 147.05 245.851 146.938 245.984C146.827 246.118 146.765 246.285 146.761 246.459L146.748 249.102L146.244 251.862C146.066 252.834 145.924 253.814 145.766 254.79C145.702 255.182 145.629 255.572 145.579 255.965C145.412 257.252 145.276 258.542 145.17 259.835C145.071 261.14 145.015 262.448 145.004 263.757C144.993 264.706 145.002 265.655 145.03 266.604C145.037 266.868 145.035 267.136 145.055 267.401C145.13 268.365 145.202 269.331 145.275 270.296C145.343 271.173 145.415 272.049 145.471 272.926C146.31 272.954 147.148 272.978 147.987 273C148.037 272.851 148.087 272.702 148.127 272.55C148.205 272.253 148.255 271.946 148.307 271.643C148.423 270.969 148.499 270.289 148.581 269.61C148.623 269.266 148.664 268.923 148.7 268.58L149.082 264.996L149.254 263.379C149.274 263.186 149.303 262.993 149.315 262.799L149.465 260.459L149.71 256.659C149.745 256.127 149.8 255.592 149.808 255.06L149.908 248.59C149.913 248.315 149.918 248.041 149.919 247.769C149.933 247.371 149.948 246.974 149.964 246.577L149.997 245.707C150.007 245.471 149.99 245.231 149.987 244.994L149.937 241.414L149.921 240.379C149.917 240.093 149.881 239.805 149.86 239.519C149.791 238.607 149.724 237.695 149.653 236.784L149.649 236.672C149.642 236.508 149.661 236.344 149.667 236.181C149.674 236.011 149.647 235.841 149.587 235.681C149.526 235.522 149.435 235.376 149.317 235.253C149.204 235.144 149.064 235.065 148.912 235.027C148.759 234.988 148.599 234.989 148.447 235.031V235.03ZM135.071 200.022C134.348 200.195 133.621 200.354 132.891 200.498C132.319 200.609 131.741 200.687 131.164 200.76C130.779 200.799 130.392 200.83 130.011 200.886C129.007 201.027 128.014 201.234 127.038 201.507C126.291 201.717 125.546 201.93 124.802 202.147C124.098 202.351 123.405 202.59 122.707 202.809C121.984 203.035 121.277 203.287 120.58 203.578C119.976 203.831 119.407 204.175 118.867 204.528C118.514 204.76 118.171 205.004 117.836 205.261C117.546 205.48 117.273 205.721 117.019 205.981C116.805 206.206 116.6 206.439 116.404 206.679C116.297 206.811 116.224 206.973 116.146 207.119C116.03 207.334 115.937 207.56 115.839 207.783C115.672 208.163 115.529 208.551 115.381 208.938C115.271 209.228 115.19 209.53 115.109 209.828C115.022 210.145 114.929 210.461 114.851 210.779C114.81 210.943 114.771 211.109 114.733 211.273L114.726 211.315L114.503 212.722C114.376 214.071 114.276 215.423 114.204 216.776C114.142 218.026 114.104 219.277 114.089 220.528C114.051 223.16 114.027 225.791 114.017 228.423C114.007 231.287 114.001 234.149 114 237.013C113.999 238.576 114.011 240.139 114.027 241.703C114.038 242.946 114.109 244.189 114.147 245.433C114.324 251.253 114.355 257.076 114.707 262.891C114.879 265.711 115.023 268.535 115.08 271.36C115.14 274.356 115.135 277.354 115.263 280.348C115.381 283.093 115.519 285.835 115.547 288.582C115.563 290.023 115.59 291.473 115.482 292.912C115.43 293.596 115.386 294.282 115.298 294.964C115.218 295.586 115.148 296.212 115.043 296.832C115.216 297.212 115.309 297.618 115.263 297.995C115.189 298.605 115.135 298.916 114.921 299.423C114.847 299.599 114.769 299.775 114.69 299.949C114.608 300.224 114.538 300.503 114.48 300.785C114.414 301.506 114.369 302.228 114.347 302.952C114.324 303.61 114.362 304.257 114.42 304.908C114.586 305.799 114.793 306.675 115.072 307.548C115.335 308.38 115.636 309.201 115.979 310.008C116.253 310.522 116.586 311.001 116.897 311.498C117.002 311.665 117.107 311.833 117.215 312C117.246 311.198 117.273 310.395 117.281 309.593C117.294 308.048 117.299 306.503 117.299 304.959C117.299 302.104 117.299 299.247 117.297 296.391C117.297 290.886 117.3 285.381 117.293 279.876C117.291 276.988 117.289 274.101 117.273 271.214C117.258 268.407 117.248 265.599 117.16 262.792C117.112 261.25 117.057 259.708 116.994 258.166L116.916 256.054C116.891 255.37 116.894 254.685 116.889 254.001C116.866 251.261 116.882 248.518 116.872 245.778C116.862 242.921 116.85 240.063 116.807 237.205C116.79 235.801 116.761 234.397 116.719 232.994C116.668 231.501 116.605 230.009 116.531 228.517C116.482 227.374 116.465 226.231 116.481 225.087C116.491 223.989 116.501 222.888 116.533 221.789C116.57 220.559 116.621 219.33 116.681 218.099C116.737 216.946 116.872 215.799 117.007 214.652C117.155 213.656 117.291 212.655 117.5 211.668C117.75 210.48 118.028 209.294 118.495 208.159C118.614 207.921 118.76 207.697 118.93 207.492C119.196 207.193 119.47 206.905 119.767 206.632C120.023 206.396 120.307 206.186 120.591 205.978C120.864 205.791 121.141 205.609 121.429 205.441C121.767 205.245 122.115 205.071 122.466 204.898C123.156 204.558 123.883 204.277 124.601 203.991C125.19 203.764 125.784 203.551 126.383 203.352C127.733 202.909 129.091 202.469 130.514 202.272C131.337 202.157 132.158 202.025 132.976 201.877C133.811 201.727 134.638 201.521 135.462 201.325C135.85 201.234 136.079 200.844 135.975 200.495C135.885 200.192 135.581 200 135.258 200C135.195 200 135.132 200.008 135.071 200.022V200.022ZM116.44 328.039C115.662 328.096 114.882 328.146 114.105 328.22C114.101 328.71 114.095 329.199 114.085 329.688L114.082 329.805C113.989 330.07 113.975 330.356 114.041 330.629C114.069 330.742 114.095 330.854 114.117 330.969C114.241 331.575 114.874 332 115.464 332C115.716 331.999 115.95 331.935 116.168 331.808C116.461 331.636 116.743 331.313 116.81 330.969C116.87 330.663 116.884 330.358 116.914 330.049C116.929 329.899 116.947 329.749 116.954 329.597C116.972 329.227 116.994 328.859 116.996 328.488L117 328C116.813 328.012 116.626 328.025 116.44 328.039Z" fill="black"/>
<path fill-rule="evenodd" clip-rule="evenodd" d="M129.624 273.799L129.601 273.815L129.624 273.799ZM263.668 270.779C263.707 270.792 263.746 270.806 263.783 270.823C263.745 270.809 263.706 270.794 263.668 270.778V270.779ZM263.625 270.68C263.664 270.704 263.7 270.731 263.735 270.76L263.625 270.68ZM263.31 268.011C263.064 268.023 262.817 268.044 262.572 268.061C262.199 268.085 261.826 268.101 261.452 268.118C260.383 268.164 259.312 268.16 258.243 268.156L257.08 268.153C255.627 268.156 254.176 268.166 252.725 268.172C246.346 268.198 239.968 268.225 233.589 268.28C227.579 268.333 221.573 268.52 215.566 268.622C212.152 268.68 208.739 268.742 205.326 268.808C202.396 268.864 199.466 268.968 196.537 269.055C193.711 269.139 190.886 269.178 188.06 269.275C184.95 269.382 181.839 269.479 178.727 269.595C172.227 269.841 165.725 270.081 159.221 270.269C152.814 270.456 146.407 270.594 139.999 270.737L133.285 270.887C133.101 270.889 132.919 270.928 132.75 271.001C132.581 271.074 132.427 271.18 132.299 271.312L132.188 271.272C131.459 271.018 130.697 270.87 129.926 270.832C129.59 270.814 129.232 270.876 128.91 270.952C128.599 271.028 128.302 271.155 128.032 271.327C127.322 271.77 126.828 272.581 127.056 273.389C127.226 273.989 127.558 274.554 127.838 275.119C128.332 276.245 128.75 277.399 129.167 278.552C129.641 279.866 130.092 281.199 130.421 282.552C131.068 285.215 131.503 287.91 131.957 290.605C132.194 292.011 132.47 293.412 132.807 294.802C133.127 296.122 133.42 297.449 133.766 298.763C134.125 300.118 134.509 301.463 134.923 302.804C135.344 304.168 135.827 305.519 136.212 306.891C136.622 308.351 137.031 309.811 137.455 311.269C137.619 311.836 137.818 312.397 138.003 312.959C138.228 313.638 138.448 314.318 138.686 314.992C139.195 316.435 139.736 317.867 140.309 319.286C140.884 320.703 141.599 322.065 142.309 323.426C143.349 325.416 144.415 327.397 145.465 329.383C146.002 330.398 146.52 331.422 147.058 332.437C147.138 332.587 147.217 332.739 147.294 332.89C147.011 331.871 146.704 330.858 146.374 329.853C145.501 327.232 144.597 324.622 143.664 322.022C142.669 319.259 141.676 316.495 140.675 313.732C140.205 312.438 139.727 311.146 139.264 309.849C139.005 309.129 138.748 308.41 138.494 307.689C138.149 306.715 137.714 305.746 137.677 304.71C137.654 304.102 137.859 303.501 138.215 302.99L138.135 302.73C137.703 301.335 137.285 299.941 136.905 298.534C136.556 297.237 136.263 295.929 135.947 294.624C135.618 293.267 135.301 291.903 135.071 290.528C134.837 289.142 134.615 287.753 134.369 286.368C133.955 284.041 133.48 281.718 132.737 279.459C132.358 278.316 131.954 277.182 131.525 276.057C131.32 275.52 131.106 274.987 130.883 274.457C130.793 274.239 130.694 274.025 130.592 273.812C131.023 273.918 131.446 274.049 131.861 274.206C132.828 274.6 133.78 275.026 134.722 275.468C134.878 275.212 135.073 274.98 135.308 274.786C135.882 274.309 136.341 274.033 137.075 273.815C137.235 273.767 137.397 273.722 137.562 273.685L136.649 273.227C142.519 273.1 148.39 272.97 154.262 272.833C160.122 272.696 165.982 272.543 171.842 272.349C178.142 272.14 184.442 271.912 190.746 271.783C194.096 271.713 197.446 271.641 200.796 271.558C204.061 271.476 207.327 271.428 210.593 271.379C213.353 271.339 216.113 271.322 218.873 271.267C221.977 271.206 225.081 271.132 228.184 271.093C234.687 271.01 241.191 270.983 247.694 270.981C250.337 270.98 252.982 270.981 255.625 270.993C256.811 270.998 257.997 271.008 259.184 271.008H259.499C260.151 271.008 260.802 271.008 261.452 270.981C261.8 270.967 262.149 270.95 262.497 270.931C262.933 270.908 263.367 270.862 263.801 270.876C263.831 270.968 263.856 271.061 263.878 271.155C263.89 271.377 263.877 271.595 263.851 271.82C263.723 272.592 263.548 273.356 263.328 274.107C263.132 274.777 262.91 275.44 262.698 276.106C262.268 277.466 261.911 278.845 261.495 280.208C261.097 281.509 260.695 282.81 260.349 284.125C259.977 285.541 259.65 286.965 259.325 288.392C259.115 289.307 258.898 290.222 258.68 291.135C258.934 291.454 259.133 291.818 259.273 292.211C259.687 293.384 259.407 294.604 259.008 295.742C258.734 296.527 258.492 297.319 258.199 298.099C257.93 298.815 257.648 299.526 257.352 300.231C257.205 300.898 257.057 301.566 256.905 302.233C256.3 304.91 255.415 307.526 254.605 310.153C253.78 312.831 252.979 315.514 251.911 318.121C251.39 319.409 250.827 320.68 250.224 321.932C250.06 322.864 249.891 323.794 249.739 324.727C249.659 325.216 249.587 325.706 249.496 326.193C249.403 326.695 249.306 327.198 249.13 327.68C249.094 327.745 249.055 327.808 249.013 327.87C248.846 328.034 248.663 328.179 248.474 328.32C248.239 328.473 247.994 328.609 247.741 328.729C247.249 328.904 246.745 329.044 246.241 329.187C245.888 329.287 245.538 329.391 245.184 329.484L245.156 329.496C244.378 329.826 243.636 330.045 242.801 330.169C242.531 330.209 242.261 330.247 241.991 330.283L241.904 330.299L241.532 330.363C241.389 330.958 241.093 331.459 240.613 331.96C240.385 332.212 240.112 332.419 239.808 332.572L239.661 332.664C239.251 332.827 238.854 333.056 238.411 333.12C237.757 333.212 237.094 333.307 236.431 333.346C235.694 333.389 234.951 333.396 234.211 333.42C232.675 333.471 231.141 333.549 229.606 333.622C227.493 333.724 225.383 333.851 223.273 333.97C222.199 334.213 221.125 334.452 220.049 334.688C217.204 335.306 214.362 335.941 211.525 336.595C208.55 337.285 205.575 337.983 202.572 338.561C201.82 338.707 201.068 338.865 200.311 338.994L197.489 339.475C196.139 339.705 194.79 339.932 193.442 340.165C191.497 340.499 189.552 340.831 187.603 341.151C186.735 341.294 185.863 341.427 184.993 341.563C184.277 341.675 183.557 341.764 182.838 341.856C181.368 341.989 179.9 342.123 178.425 342.19C176.789 342.263 175.155 342.312 173.518 342.342C172.817 342.355 172.116 342.358 171.415 342.386C170.569 342.42 169.723 342.461 168.878 342.503C167.361 342.576 165.845 342.669 164.33 342.783C163.079 342.881 161.826 342.963 160.571 343.021C159.986 343.048 159.399 343.067 158.813 343.082C158.199 343.099 157.575 343.14 156.961 343.106C156.789 343.072 156.62 343.028 156.453 342.974C156.322 342.912 156.196 342.843 156.073 342.766C155.745 342.503 155.44 342.212 155.161 341.897C154.335 340.84 153.616 339.703 153.014 338.504C152.89 338.211 152.77 337.917 152.654 337.621C151.645 337.742 150.57 337.624 149.738 337.051C149.443 336.857 149.164 336.641 148.902 336.404C148.996 336.649 149.089 336.894 149.177 337.141C149.402 337.77 149.643 338.392 149.901 339.008C150.201 339.731 150.553 340.431 150.953 341.103C151.311 341.685 151.686 342.256 152.079 342.815C152.506 343.437 152.993 344.047 153.57 344.555C153.945 344.884 154.356 345.195 154.806 345.429C155.508 345.793 156.301 345.963 157.096 345.996C157.438 346.009 157.783 345.988 158.123 345.981C159.175 345.962 160.226 345.926 161.276 345.871C162.816 345.79 164.351 345.661 165.889 345.548C167.389 345.438 168.898 345.385 170.401 345.31C171.977 345.23 173.555 345.224 175.131 345.195C177.438 345.146 179.742 345.017 182.039 344.81C182.925 344.73 183.803 344.616 184.684 344.501C186.144 344.311 187.597 344.067 189.049 343.829C192.055 343.334 195.055 342.811 198.057 342.299C199.677 342.029 201.294 341.74 202.907 341.434C204.437 341.141 205.96 340.821 207.478 340.484C210.524 339.805 213.56 339.095 216.601 338.403C219.553 337.729 222.522 337.116 225.477 336.449C228.367 335.796 231.249 335.116 234.17 334.589C235.756 334.302 237.339 334.003 238.928 333.731L241.151 333.352C241.853 333.232 242.558 333.124 243.252 332.964C244.797 332.606 246.329 332.199 247.847 331.741C248.378 331.581 248.899 331.404 249.403 331.177C249.779 331.008 250.111 330.763 250.44 330.527C250.657 330.371 250.872 330.215 251.078 330.045C251.267 329.888 251.441 329.666 251.586 329.48C251.713 329.316 251.821 329.138 251.908 328.95C252.263 328.202 252.42 327.415 252.556 326.612C252.781 325.285 252.999 323.959 253.233 322.633C253.359 321.921 253.484 321.21 253.633 320.502C253.789 319.758 253.962 319.024 254.148 318.285C254.475 316.964 254.834 315.651 255.226 314.348C255.676 312.883 256.146 311.424 256.631 309.968C257.041 308.717 257.423 307.457 257.777 306.189L259.112 301.526C259.459 300.312 259.775 299.09 260.114 297.874C260.516 296.432 260.907 294.986 261.285 293.538C261.475 292.814 261.632 292.081 261.805 291.353L262.313 289.195C262.633 287.837 262.93 286.475 263.285 285.125C263.638 283.779 264.043 282.444 264.449 281.111C264.861 279.763 265.211 278.398 265.637 277.054C265.849 276.388 266.074 275.726 266.27 275.058C266.491 274.301 266.668 273.54 266.817 272.768C266.91 272.284 266.981 271.79 266.999 271.298C267.008 271.064 266.949 270.766 266.906 270.544C266.873 270.368 266.828 270.194 266.773 270.024C266.635 269.602 266.381 269.153 266.046 268.834C265.671 268.478 265.224 268.249 264.713 268.11C264.393 268.031 264.063 267.994 263.733 268C263.59 268 263.448 268.004 263.31 268.011" fill="black"/>
<path fill-rule="evenodd" clip-rule="evenodd" d="M259 295.057C259.016 295.039 259.03 295.02 259.045 295L259 295.056" fill="black"/>
<path fill-rule="evenodd" clip-rule="evenodd" d="M115.175 206.19C114.846 206.371 114.597 206.67 114.481 207.027C114.308 207.51 114.177 207.989 114.065 208.486C113.977 208.876 113.922 209.274 113.86 209.668C113.72 210.548 113.619 211.429 113.498 212.309C113.313 213.551 113.143 214.793 113.053 216.044C113.011 216.644 113 217.253 113 217.853C113 218.507 113.011 219.16 113.042 219.813C113.102 221.08 113.158 222.347 113.289 223.609C113.357 224.271 113.434 224.931 113.505 225.593C113.575 226.237 113.62 226.883 113.672 227.529C113.776 228.791 113.83 230.056 113.895 231.32C113.958 232.528 114.039 233.733 114.122 234.938C114.171 235.643 114.216 236.348 114.254 237.054C114.285 237.651 114.311 238.249 114.358 238.845C114.463 240.152 114.604 241.455 114.738 242.759C114.801 243.381 114.841 244.006 114.894 244.629C114.944 245.223 114.99 245.819 115.03 246.414C115.115 247.651 115.152 248.891 115.283 250.127C115.352 250.781 115.427 251.436 115.493 252.091C115.558 252.753 115.597 253.417 115.657 254.079C115.714 254.692 115.784 255.305 115.834 255.919C115.888 256.583 115.924 257.248 115.966 257.913C116.006 258.557 116.045 259.2 116.077 259.845C116.108 260.474 116.093 261.105 116.092 261.735L116.089 265.488C116.091 268.044 116.079 270.6 116.054 273.156C116.027 275.66 115.962 278.166 115.764 280.664C115.714 281.322 115.654 281.98 115.599 282.636C115.549 283.229 115.523 283.822 115.49 284.416C115.422 285.68 115.307 286.946 115.313 288.213C115.323 290.753 115.386 293.293 115.523 295.83C115.593 297.1 115.71 298.366 115.738 299.638C115.767 300.924 115.782 302.21 115.849 303.495C115.913 304.68 115.989 305.864 116.113 307.044C116.12 308.247 116.179 309.447 116.353 310.637C116.427 311.142 116.513 311.647 116.637 312.143L116.816 312.425C117.146 312.955 117.482 313.481 117.844 313.992C118.504 314.925 119.206 315.842 119.925 316.741C120.523 317.356 121.194 317.909 121.757 318.553C122.23 319.093 122.677 319.653 123.134 320.205C123.307 320.415 123.474 320.63 123.624 320.852L123.808 321.008C124.362 321.472 124.942 321.91 125.568 322.288C126.14 322.634 126.734 322.942 127.332 323.248C127.918 323.552 128.498 323.868 129.072 324.196C129.617 324.504 130.152 324.834 130.706 325.13C131.964 325.797 133.276 326.359 134.627 326.81C135.157 326.988 135.686 327.174 136.225 327.324L137.255 327.611C137.519 327.685 137.793 327.733 138.061 327.794C138.208 327.827 138.364 327.84 138.513 327.863C138.781 327.903 139.05 327.929 139.318 327.956C139.598 327.984 139.879 327.999 140.16 328C140.88 328.004 141.593 327.939 142.306 327.843C142.426 327.83 142.544 327.815 142.664 327.798C142.837 327.787 143.004 327.733 143.152 327.643C143.559 327.453 143.855 327.118 143.948 326.701C144.018 326.465 144.018 326.214 143.948 325.978C143.879 325.748 143.748 325.54 143.571 325.378C143.45 325.291 143.329 325.203 143.206 325.117C143.059 325.057 142.91 325.001 142.761 324.944C142.587 324.878 142.408 324.822 142.231 324.764C142.026 324.696 141.821 324.631 141.614 324.567C141.168 324.431 140.717 324.315 140.269 324.187C139.377 323.934 138.492 323.662 137.604 323.399C136.683 323.123 135.766 322.831 134.855 322.524C134.046 322.249 133.243 321.955 132.448 321.642C131.63 321.304 130.822 320.944 130.024 320.562C129.152 320.142 128.3 319.692 127.449 319.234C126.566 318.757 125.671 318.298 124.792 317.815L124.572 317.694C124.327 317.478 124.082 317.263 123.839 317.044C122.974 316.277 122.158 315.457 121.394 314.589C121.047 314.146 120.742 313.672 120.484 313.172C120.248 312.644 120.028 312.114 119.889 311.55C119.766 311.022 119.667 310.49 119.593 309.953C119.435 308.656 119.264 307.363 119.144 306.063C119.032 304.834 118.96 303.602 118.929 302.369C118.894 301.076 118.901 299.779 118.825 298.489C118.752 297.236 118.643 295.985 118.592 294.732C118.54 293.426 118.498 292.119 118.468 290.812C118.44 289.56 118.413 288.302 118.468 287.05C118.495 286.441 118.542 285.834 118.574 285.226C118.609 284.59 118.635 283.953 118.679 283.318C118.771 281.981 118.902 280.648 118.986 279.313C119.146 276.822 119.174 274.325 119.196 271.83C119.217 269.326 119.217 266.822 119.219 264.319C119.219 263.016 119.223 261.714 119.219 260.411C119.215 259.779 119.172 259.148 119.132 258.517L119.012 256.587C118.932 255.318 118.777 254.053 118.675 252.787C118.571 251.487 118.411 250.19 118.308 248.89C118.211 247.683 118.178 246.474 118.076 245.268C117.971 244.035 117.876 242.8 117.741 241.569C117.6 240.269 117.491 238.965 117.413 237.659C117.379 237.072 117.357 236.485 117.315 235.899L117.175 233.838C117.091 232.579 117.019 231.32 116.96 230.06C116.892 228.765 116.802 227.472 116.69 226.18C116.64 225.574 116.566 224.97 116.496 224.367C116.419 223.709 116.368 223.049 116.314 222.391C116.269 221.815 116.235 221.238 116.21 220.661C116.18 220.005 116.129 219.344 116.129 218.688C116.129 217.78 116.123 216.867 116.189 215.958C116.254 215.051 116.365 214.148 116.488 213.245C116.634 212.259 116.761 211.273 116.898 210.287C117.033 209.442 117.201 208.607 117.393 207.771C117.48 207.395 117.456 207.031 117.241 206.693C117.032 206.372 116.71 206.143 116.339 206.05C115.947 205.952 115.533 206.002 115.175 206.19V206.19ZM241.923 199.051C240.773 199.086 239.624 199.144 238.477 199.227C237.55 199.287 236.625 199.407 235.704 199.512C234.737 199.622 233.772 199.759 232.812 199.908C231.33 200.137 229.843 200.348 228.358 200.552C227.684 200.58 227.01 200.609 226.338 200.652C225.264 200.722 224.19 200.792 223.117 200.887L222.587 200.938C221.606 200.942 220.623 200.944 219.64 200.945C219.497 200.943 219.358 200.993 219.25 201.087C219.141 201.18 219.071 201.31 219.052 201.452C218.255 201.587 217.458 201.726 216.66 201.854C216.341 201.892 216.036 201.948 215.751 202.124C215.524 202.25 215.332 202.432 215.194 202.652C215.094 202.814 215.029 202.994 215 203.178C215.72 202.585 216.667 202.319 217.613 202.278C217.981 202.262 218.349 202.254 218.717 202.255C220.137 202.255 221.564 202.356 222.977 202.416C224.517 202.482 226.055 202.576 227.595 202.63C229.116 202.683 230.638 202.702 232.159 202.758C233.633 202.814 235.107 202.861 236.583 202.882C237.961 202.903 239.335 202.902 240.71 202.98C242.42 203.078 244.129 203.186 245.824 203.412C246.491 203.5 247.154 203.619 247.814 203.745C248.534 203.877 249.235 204.097 249.901 204.4C250.259 204.562 250.606 204.743 250.951 204.93C251.311 205.128 251.671 205.335 252.021 205.556L252.066 205.571C252.465 205.708 252.859 205.855 253.252 206.004C253.394 206.064 253.536 206.123 253.677 206.184C253.929 206.622 254.159 207.067 254.372 207.521C254.42 207.644 254.467 207.767 254.512 207.891L254.682 208.114C255.52 209.036 256.502 209.834 257.156 210.9C257.716 211.811 258.306 212.717 258.776 213.672C259.103 214.338 259.403 214.988 259.54 215.71C259.588 215.972 259.633 216.233 259.679 216.495C259.768 217.022 259.859 217.55 259.939 218.077C260.114 219.213 260.269 220.35 260.424 221.489C260.433 221.543 260.44 221.597 260.45 221.651C260.613 222.58 260.816 223.488 260.929 224.426C261.013 225.131 261.064 225.836 261.101 226.544C261.171 227.895 261.197 229.257 261.128 230.608C261.048 232.188 260.658 233.705 260.185 235.211C260.127 235.395 260.069 235.578 260.009 235.761C259.989 236.143 259.966 236.525 259.933 236.905C259.895 237.361 259.853 237.816 259.81 238.271C259.775 238.641 259.711 239.013 259.656 239.383L259.684 239.178C259.364 241.302 259.059 243.432 258.664 245.546C258.249 247.772 257.834 249.998 257.409 252.223C257.205 253.295 257.006 254.369 256.813 255.443C256.619 256.516 256.387 257.581 256.118 258.637L255.921 259.407L255.809 259.824C255.531 260.889 255.261 261.957 255 263.027C254.793 263.867 254.583 264.704 254.394 265.547C254.308 265.926 254.215 266.305 254.144 266.687L253.989 267.499C253.959 267.661 253.909 267.819 253.881 267.983C253.827 268.301 253.801 268.579 253.893 268.897C253.98 269.189 254.113 269.343 254.316 269.571C254.57 269.855 255.032 270 255.414 270C255.688 270.001 255.957 269.933 256.197 269.8C256.43 269.67 256.615 269.495 256.754 269.273C256.944 269.023 257.035 268.677 257.097 268.375L257.171 268.005L257.349 267.141C257.459 266.609 257.564 266.076 257.666 265.542C257.766 265.015 257.892 264.492 258.007 263.969C258.119 263.469 258.226 262.967 258.343 262.468C258.623 261.288 258.928 260.115 259.258 258.948C259.542 257.944 259.848 256.945 260.122 255.938C260.434 254.788 260.77 253.644 261.092 252.497C261.388 251.446 261.632 250.381 261.876 249.317C262.361 247.197 262.792 245.065 263.207 242.932C263.42 241.838 263.629 240.745 263.849 239.652C263.959 239.1 264.06 238.544 264.159 237.988C264.223 237.64 264.259 237.284 264.307 236.933C264.338 236.704 264.374 236.477 264.396 236.248C264.505 235.076 264.594 233.905 264.662 232.73C264.726 231.642 264.749 230.553 264.776 229.464C264.802 228.389 264.875 227.317 264.943 226.244C265.01 225.196 265.033 224.145 264.926 223.1C264.806 221.931 264.671 220.756 264.419 219.606C264.192 218.59 263.901 217.59 263.547 216.611C263.189 215.607 262.83 214.602 262.512 213.587C262.184 212.544 261.858 211.509 261.41 210.504C260.96 209.49 260.455 208.474 259.795 207.564C259.452 207.083 259.084 206.62 258.693 206.177C258.37 205.815 258.047 205.448 257.677 205.129C257.252 204.755 256.787 204.43 256.289 204.16C256.167 204.094 256.044 204.031 255.919 203.97C255.72 203.642 255.518 203.316 255.313 202.992C254.9 202.33 254.453 201.641 253.877 201.094C253.712 200.949 253.532 200.822 253.339 200.716L253.147 200.609C253.021 200.54 252.899 200.469 252.769 200.409C252.154 200.124 251.523 199.871 250.881 199.653C250.341 199.471 249.791 199.366 249.226 199.274C247.981 199.072 246.706 199.03 245.445 199.007C245.203 199.002 244.961 199 244.719 199C243.787 199 242.853 199.03 241.923 199.051V199.051ZM191.112 300.363C191.088 300.367 191.063 300.37 191.039 300.373L191.112 300.363ZM197.202 297.126C196.875 297.219 196.56 297.367 196.252 297.502C195.516 297.824 194.825 298.257 194.133 298.656C193.754 298.875 193.374 299.096 192.997 299.316C192.482 299.618 191.973 299.936 191.444 300.217C191.242 300.088 191.046 299.949 190.846 299.817C190.479 299.577 190.094 299.365 189.695 299.183C189.241 298.981 188.768 298.824 188.283 298.714C187.765 298.585 187.23 298.54 186.698 298.579C185.71 298.667 184.755 299.201 184.277 300.047C184.102 300.357 184.069 300.553 184.022 300.899C183.987 301.161 183.989 301.396 184.062 301.661C184.192 302.131 184.438 302.531 184.76 302.904C185.268 303.49 185.926 303.938 186.578 304.367C187.329 304.861 188.099 305.328 188.868 305.797C189.461 306.159 190.253 306.011 190.731 305.558C191.114 305.638 191.504 305.692 191.893 305.74C192.275 305.784 192.658 305.83 193.043 305.84L193.657 305.856C194.179 305.869 194.697 305.795 195.213 305.72C195.595 305.664 195.968 305.565 196.339 305.47C197.256 305.248 198.132 304.885 198.936 304.392C199.632 303.957 200.224 303.387 200.589 302.668C200.799 302.253 200.931 301.803 200.978 301.34C201.036 300.87 200.971 300.42 200.889 299.954C200.809 299.501 200.585 299.062 200.369 298.656C200.151 298.263 199.876 297.905 199.553 297.594C199.349 297.392 198.974 297.164 198.69 297.096C198.446 297.036 198.2 297.006 197.95 297H197.92C197.696 297 197.418 297.065 197.202 297.126" fill="#161616"/>
</svg>
