<?xml version="1.0" encoding="UTF-8"?>
<svg width="500px" height="600px" viewBox="0 0 500 600" version="1.1" xmlns="http://www.w3.org/2000/svg" xmlns:xlink="http://www.w3.org/1999/xlink">
    <title>blush</title>
    <defs>
        <polygon id="path-1" points="0.000258116429 0.084 173.375144 0.084 173.375144 192.102015 0.000258116429 192.102015"></polygon>
    </defs>
    <g id="blush" stroke="none" stroke-width="1" fill="none" fill-rule="evenodd">
        <g id="face" transform="translate(154.000000, 64.000000)">
            <g id="fill" transform="translate(32.340582, 61.628560)">
                <path d="M86.7541184,122.40864 C86.5671184,121.72964 86.2351184,121.12864 85.8171184,120.59064 C85.7651184,120.44464 85.7131184,120.29864 85.6491184,120.15164 C85.4631184,119.72664 85.0931184,119.50864 84.6841184,119.44564 C84.3881184,119.20764 84.0751184,118.98764 83.7521184,118.78864 C82.2731184,117.88064 80.5901184,117.25464 78.9871184,116.60364 C78.3731184,116.35364 77.7051184,116.01364 77.0261184,115.91964 C76.6221184,115.46464 75.8621184,115.33864 75.3321184,115.57064 C74.6541184,115.86864 74.2641184,116.60364 74.4641184,117.34064 C74.5201184,117.54564 74.5561184,117.75064 74.6021184,117.95464 C74.5831184,118.05764 74.5661184,118.16164 74.5551184,118.26464 C74.3161184,120.36364 74.4571184,122.48464 74.8091184,124.56064 C74.8691184,124.91864 75.1031184,125.19964 75.4031184,125.38964 C75.4061184,125.40264 75.4071184,125.41564 75.4101184,125.42864 C75.4051184,125.42964 75.4001184,125.42964 75.3951184,125.42964 C75.7951184,127.14664 77.1441184,128.57264 78.8351184,129.07164 C79.7201184,129.33264 80.6631184,129.31064 81.5401184,129.05564 C82.1111184,129.57464 83.1141184,129.67664 83.6771184,129.07564 C84.2161184,128.50164 84.6391184,127.83864 84.9601184,127.13264 C85.2221184,127.08164 85.4781184,126.97764 85.6951184,126.77264 C86.8731184,125.66164 87.1741184,123.93264 86.7541184,122.40864" id="Fill-1" fill="#E4C3A2"></path>
                <path d="M78.0344184,126.40574 C78.4434184,126.13674 78.7454184,125.70474 78.6834184,125.19474 C78.4724184,123.44574 78.2624184,121.69574 78.0504184,119.94674 C78.0104184,119.60774 77.9704184,119.27274 77.9184184,118.94274 C78.0034184,118.85274 78.0834184,118.75374 78.1524184,118.63574 C78.5184184,118.01874 78.4024184,117.20974 77.9924184,116.65474 C77.4974184,115.98574 76.5754184,115.77274 75.8384184,116.18274 C75.8284184,116.18774 75.8224184,116.19674 75.8124184,116.20174 C75.6714184,116.16674 75.5324184,116.12474 75.3794184,116.10574 C74.7944184,116.03374 74.0244184,116.61974 73.9324184,117.20774 C73.3504184,120.93574 73.8754184,124.65074 75.5044184,128.05974 C75.8534184,128.79174 76.8984184,128.98274 77.5564184,128.59774 C78.3044184,128.16174 78.4454184,127.27974 78.0954184,126.54674 C78.0724184,126.50074 78.0554184,126.45174 78.0344184,126.40574" id="Fill-3" fill="#C3996B"></path>
                <path d="M139.057818,65.6098404 C139.045818,65.1658404 138.962818,64.7538404 138.847818,64.3598404 C138.955818,62.5748404 138.906818,60.8058404 138.657818,58.9718404 C138.362818,56.7868404 138.238818,53.6488404 136.461818,52.0968404 C136.430818,52.0698404 136.396818,52.0498404 136.365818,52.0248404 C135.850818,49.8728404 135.233818,47.7488404 134.481818,45.6538404 C134.190818,44.8408404 133.699818,44.2568404 133.112818,43.8678404 C132.412818,41.5308404 131.680818,39.2048404 130.837818,36.9198404 C130.605818,36.2888404 130.244818,35.8078404 129.822818,35.4368404 C128.960818,33.1148404 128.114818,30.7768404 127.786818,28.3098404 C127.472818,25.9568404 127.096818,23.8318404 126.261818,21.5928404 C126.236818,21.5258404 126.199818,21.4728404 126.170818,21.4078404 C126.277818,19.4248404 126.419818,17.4448404 126.647818,15.4698404 C126.671818,15.2568404 126.661818,15.0488404 126.631818,14.8448404 C126.756818,14.1068404 126.634818,13.4588404 126.340818,12.9168404 C126.835818,11.8518404 127.364818,10.8028404 127.963818,9.77284035 C127.991818,9.73384035 128.021818,9.70084035 128.048818,9.66184035 C128.590818,8.87084035 129.131818,8.07984035 129.673818,7.28884035 C132.956818,2.49684035 126.262818,-2.03615965 122.254818,0.963840352 C122.088818,1.06984035 121.927818,1.18684035 121.769818,1.31784035 C119.771818,1.23784035 117.749818,2.29484035 116.951818,4.84684035 L116.656818,5.79084035 C116.414818,5.87384035 116.176818,5.98384035 115.941818,6.12684035 C114.915818,2.12884035 109.272818,-0.119159648 107.006818,4.52484035 C106.990818,4.55784035 106.975818,4.59184035 106.958818,4.62584035 C105.078818,4.38284035 103.102818,5.07384035 102.117818,6.98384035 C101.490818,8.19984035 100.900818,9.42684035 100.329818,10.6618404 C99.7378184,10.5718404 99.1268184,10.5768404 98.5238184,10.6848404 C98.9618184,8.25084035 97.8778184,6.42884035 96.2678184,5.48784035 C93.9108184,2.43284035 87.5758184,3.53984035 87.1368184,8.59684035 C87.1138184,8.86284035 87.0838184,9.12684035 87.0598184,9.39184035 C86.9698184,9.22884035 86.8848184,9.06384035 86.7798184,8.90984035 C86.7558184,8.73584035 86.7318184,8.56184035 86.7078184,8.38884035 C86.3648184,5.87584035 82.8358184,4.02684035 80.5578184,4.89684035 C79.5288184,5.28984035 78.5298184,5.71084035 77.5438184,6.14984035 C77.0208184,3.02684035 73.8638184,0.519840352 70.3168184,2.61284035 C69.4568184,3.11984035 68.6258184,3.66584035 67.7898184,4.20284035 C66.5588184,4.14484035 65.2868184,4.54284035 64.2078184,5.57384035 L56.9128184,12.5458404 C56.8708184,12.5328404 56.8288184,12.5248404 56.7868184,12.5128404 C57.2988184,7.55084035 50.3738184,5.64784035 47.4318184,9.73984035 C46.2238184,11.4198404 45.0848184,13.1318404 43.9988184,14.8728404 C43.5528184,12.1418404 40.4928184,10.8038404 37.8878184,11.2718404 C35.4598184,10.4488404 32.4768184,11.2848404 31.5218184,14.5118404 C31.0858184,15.9828404 30.6328184,17.4478404 30.1708184,18.9088404 C30.0408184,19.0798404 29.9168184,19.2568404 29.8038184,19.4548404 C28.1118184,22.4098404 26.3338184,25.3118404 24.4318184,28.1358404 C24.3238184,27.6768404 24.2188184,27.2158404 24.1108184,26.7568404 C22.7528184,21.0078404 14.6778184,22.6948404 14.2888184,28.0858404 C14.2808184,28.2088404 14.2778184,28.3318404 14.2698184,28.4548404 C13.0528184,29.2218404 12.1238184,30.5658404 11.9368184,32.5088404 C11.7108184,34.8448404 12.1188184,37.3158404 13.0658184,39.4098404 C13.7358184,42.3728404 14.6438184,45.2568404 15.7948184,48.1538404 C15.8038184,48.1928404 15.8098184,48.2298404 15.8188184,48.2688404 C15.8248184,48.2658404 15.8308184,48.2628404 15.8378184,48.2598404 C15.9978184,48.6618404 16.1528184,49.0618404 16.3228184,49.4628404 C16.9468184,50.9388404 17.9938184,51.6988404 19.1608184,51.9428404 C19.9418184,56.0028404 20.9198184,60.0258404 22.1188184,64.0078404 C21.6108184,64.1068404 21.1048184,64.2658404 20.6138184,64.5318404 C20.2618184,64.7218404 19.9078184,64.9158404 19.5468184,65.0918404 C19.6128184,65.0508404 19.5288184,65.0718404 19.3798184,65.1188404 C19.2468184,65.0108404 19.1118184,64.9078404 18.9708184,64.8108404 C17.2118184,61.7728404 14.9048184,59.0618404 12.1128184,56.8878404 C10.9328184,55.9698404 9.52581845,55.4338404 8.15281845,55.4908404 C7.80081845,55.4178404 7.42781845,55.3728404 7.02381845,55.3748404 C4.49681845,55.3838404 2.46181845,56.5678404 1.32781845,58.8388404 C0.0088184493,61.4778404 0.947818449,64.0908404 2.25881845,66.4858404 C2.58181845,70.1968404 5.30781845,73.2588404 7.59381845,76.0968404 C10.2668184,79.4128404 13.2648184,82.5438404 16.5698184,85.2358404 C19.5368184,87.6548404 23.6968184,88.6398404 26.4478184,85.2868404 C28.1518184,83.2098404 27.9998184,81.2748404 27.2578184,78.8328404 C27.2478184,78.8008404 27.2398184,78.7708404 27.2298184,78.7398404 C27.2788184,78.7418404 27.3248184,78.7478404 27.3738184,78.7478404 C27.6888184,78.7478404 27.9838184,78.7158404 28.2678184,78.6718404 C28.7278184,83.5548404 30.9358184,88.3608404 33.4538184,92.8468404 C33.9698184,93.7658404 34.6338184,94.3918404 35.3678184,94.7828404 C36.7738184,96.9938404 38.7908184,98.4428404 40.9868184,100.17784 C42.1618184,101.10684 43.3098184,102.16084 44.6228184,102.88984 C45.7368184,103.50784 47.2458184,103.68884 47.9678184,104.24584 C48.6828184,104.79784 49.5468184,105.01184 50.4258184,104.97984 C58.5378184,108.98684 67.6148184,111.48784 75.9748184,114.41684 C78.4538184,115.28484 81.4238184,116.74784 84.2098184,116.92184 C84.8148184,117.23484 85.4258184,117.52684 86.0448184,117.79084 C86.2388184,117.98984 86.4488184,118.17484 86.6878184,118.33884 C88.2058184,119.38484 89.4268184,119.73684 91.2698184,119.54984 C91.4158184,119.53484 91.5548184,119.50884 91.6948184,119.48384 C93.1098184,119.73684 94.5418184,119.86784 95.9818184,119.87484 C96.1038184,119.89384 96.2208184,119.92584 96.3448184,119.93884 C97.4998184,120.05784 98.6538184,120.04984 99.7928184,119.94884 C100.191818,120.07584 100.630818,120.15184 101.103818,120.17684 C101.235818,120.20284 101.367818,120.22884 101.498818,120.25584 C102.829818,120.51884 104.151818,120.45484 105.352818,119.75184 C105.420818,119.71184 105.486818,119.65584 105.553818,119.61084 C111.148818,117.96784 115.011818,113.08184 118.173818,108.08484 C118.535818,107.51284 118.758818,106.94684 118.874818,106.39684 C120.470818,104.53884 121.933818,102.60084 123.277818,100.59184 C124.203818,100.43984 125.135818,99.9368404 125.976818,98.9638404 C126.124818,98.7928404 126.263818,98.6178404 126.409818,98.4448404 C128.471818,97.6458404 129.474818,95.9418404 129.628818,94.1638404 C129.650818,94.1318404 129.670818,94.0998404 129.692818,94.0678404 C130.048818,93.8398404 130.401818,93.5618404 130.744818,93.2118404 L132.489818,91.4308404 C133.383818,90.5188404 133.832818,89.5278404 133.949818,88.5578404 C135.336818,86.2178404 136.445818,83.7608404 137.249818,81.1188404 C137.302818,80.9858404 137.369818,80.8658404 137.411818,80.7238404 C138.632818,76.5758404 139.318818,72.3808404 139.594818,68.0688404 C139.656818,67.1108404 139.440818,66.2968404 139.057818,65.6098404" id="Fill-5" fill="#E4C3A2"></path>
                <path d="M116.006018,113.02884 C115.945018,112.84284 115.843018,112.68184 115.696018,112.54684 C115.410018,112.28384 115.035018,112.08984 114.636018,112.10684 C114.503018,112.12484 114.369018,112.14284 114.236018,112.16084 C113.983018,112.23184 113.762018,112.36084 113.575018,112.54684 L111.900018,113.87084 C111.830018,113.89384 111.761018,113.89984 111.693018,113.93184 L107.884018,115.77784 C107.552018,115.60584 107.185018,115.50784 106.796018,115.53884 C99.7890184,116.09084 92.8290184,115.31984 86.1210184,113.21984 C85.6970184,113.08784 85.3120184,113.07284 84.9610184,113.13384 C76.2880184,109.99784 67.6900184,106.66484 59.1650184,103.14684 C58.9350184,102.48684 58.4320184,101.91484 57.5790184,101.64484 C46.7800184,98.2268404 35.2030184,91.1248404 34.0350184,78.7248404 C33.9080184,77.3818404 32.9770184,76.2248404 31.5350184,76.2248404 C31.1740184,76.2248404 30.8070184,76.3288404 30.4650184,76.4968404 C29.6230184,75.9718404 28.5140184,75.8228404 27.5930184,76.1688404 C27.2450184,76.2988404 26.9600184,76.4658404 26.6820184,76.6648404 C26.6410184,76.6618404 26.5990184,76.6528404 26.5590184,76.6548404 C26.1230184,76.6748404 25.7780184,76.8368404 25.5270184,77.0928404 C25.1880184,77.2378404 24.8640184,77.3998404 24.5740184,77.5818404 C23.9350184,77.9808404 23.3910184,78.4978404 22.9820184,79.1328404 C22.6220184,79.6898404 22.4720184,80.4858404 22.2290184,80.9478404 C22.0960184,81.1998404 22.2280184,80.9798404 22.0500184,81.1528404 C22.1390184,81.0668404 22.0420184,81.1148404 21.9910184,81.1518404 C18.9830184,80.6778404 16.5260184,78.2628404 14.4560184,76.1768404 C11.9870184,73.6898404 9.69401845,70.8988404 8.93101845,67.3968404 C8.87501845,67.1418404 8.77201845,66.9388404 8.63901845,66.7788404 C8.59401845,65.6828404 8.75201845,64.5828404 9.19201845,63.5158404 C9.69101845,62.3048404 10.6280184,61.0948404 11.9020184,60.6498404 C13.0410184,61.1938404 14.0970184,61.9278404 15.0000184,62.8498404 C15.6850184,63.5488404 16.5640184,63.3498404 17.0920184,62.8058404 C18.0150184,62.6748404 18.8870184,61.6578404 18.3330184,60.5498404 C17.2010184,58.2848404 14.6560184,57.2578404 12.2540184,57.5378404 C11.9570184,57.1018404 11.5890184,56.7458404 11.1600184,56.4668404 C10.9180184,56.0148404 10.4870184,55.6648404 9.90801845,55.6488404 C9.16001845,55.6278404 8.43401845,55.7008404 7.71801845,55.8168404 C6.72501845,55.6938404 5.71901845,55.7728404 4.71501845,56.2118404 C4.28901845,56.3968404 3.94201845,56.6418404 3.62601845,56.9098404 C3.32401845,56.7708404 2.98601845,56.7128404 2.65101845,56.7958404 C-0.748981551,57.6428404 -0.107981551,62.2448404 0.433018449,64.7678404 C0.851018449,66.7158404 1.58401845,68.5718404 2.56001845,70.2918404 C3.04201845,71.6218404 3.70801845,72.9108404 4.39501845,74.0748404 C4.65901845,74.5238404 5.13201845,74.7188404 5.61401845,74.7408404 C6.64401845,76.3038404 7.71801845,77.8388404 8.84001845,79.3388404 C9.28701845,79.9368404 10.0830184,80.3068404 10.7930184,79.9248404 C12.7230184,83.2578404 15.2310184,86.4548404 19.3050184,86.9818404 C19.5430184,87.0128404 19.7790184,87.0268404 20.0150184,87.0328404 C20.8040184,87.3638404 21.6590184,87.5338404 22.4670184,87.3928404 C22.4820184,87.4078404 22.4860184,87.4298404 22.5020184,87.4438404 C23.1190184,88.0108404 24.0070184,88.0138404 24.6230184,87.4438404 C25.6900184,86.4578404 26.3880184,85.2518404 26.8800184,83.9498404 C27.6110184,83.0108404 27.9790184,81.8498404 27.7400184,80.5948404 C27.7700184,80.4158404 27.7840184,80.2388404 27.8100184,80.0598404 C27.8270184,80.0138404 27.8400184,79.9668404 27.8590184,79.9218404 C27.9270184,79.7768404 28.0120184,79.6408404 28.0950184,79.5048404 L28.0960184,79.5048404 C28.1520184,79.4948404 28.1560184,79.4928404 28.1510184,79.4908404 C28.1650184,79.4908404 28.1800184,79.4908404 28.2260184,79.4878404 C28.3630184,79.4798404 28.4950184,79.4838404 28.6320184,79.4858404 L28.6690184,79.4858404 C28.6690184,79.4888404 28.6760184,79.4918404 28.6900184,79.4958404 C28.7770184,79.8098404 28.9780184,80.0858404 29.2410184,80.2828404 C30.2390184,86.8688404 33.5470184,92.7198404 38.6180184,97.1208404 C42.7860184,100.73684 47.6870184,103.33584 52.8300184,105.27184 C53.1550184,105.82684 53.7040184,106.26084 54.3560184,106.53384 C64.3630184,110.73484 74.4800184,114.67284 84.6940184,118.34384 C85.1030184,118.49184 85.5280184,118.47884 85.9340184,118.36884 C92.6850184,120.33184 99.7860184,121.09084 106.796018,120.53884 C107.562018,120.47884 108.260018,120.13784 108.722018,119.59284 C108.834018,119.56084 108.944018,119.51884 109.045018,119.45584 L112.045018,117.57284 C112.343018,117.38484 112.579018,117.10184 112.697018,116.76884 C112.867018,116.68684 113.036018,116.60484 113.206018,116.52284 C113.211018,116.51984 113.216018,116.51484 113.221018,116.51284 C113.443018,116.43784 113.642018,116.32484 113.810018,116.15784 L115.696018,114.66784 C115.843018,114.53184 115.945018,114.37084 116.006018,114.18484 C116.101018,114.00684 116.144018,113.81384 116.136959,113.60684 C116.144018,113.40084 116.101018,113.20784 116.006018,113.02884" id="Fill-7" fill="#C3996B"></path>
                <path d="M65.7092184,5.72103583 C64.8192184,5.71114035 64.3052184,6.42014035 64.2092184,7.22114035 C63.6772184,11.6801404 61.3552184,16.0931404 57.6772184,18.7421404 C53.8382184,21.5071404 48.8302184,22.2351404 44.4092184,20.5311404 C44.3422184,20.5051404 44.2792184,20.4931404 44.2152184,20.4781404 C43.9452184,20.2741404 43.6192184,20.1461404 43.2992184,20.1461404 C43.1562184,20.1461404 43.0262184,20.1701404 42.9022184,20.2041404 C42.9082184,20.1171404 42.9102184,20.0311404 42.9132184,19.9441404 C44.1822184,19.5361404 44.5082184,17.4331404 42.9152184,17.0861404 L41.1692184,16.7051404 C40.0872184,15.1841404 38.5922184,12.9961404 36.6722184,14.3201404 C36.2522184,14.6101404 35.9742184,15.0371404 35.7632184,15.5081404 C35.6402184,15.5791404 35.5192184,15.6631404 35.4142184,15.7871404 C34.5322184,16.8301404 34.0332184,18.1151404 34.0382184,19.4341404 C32.9622184,22.5611404 31.7732184,25.6491404 30.4592184,28.6841404 C30.3052184,29.0391404 30.2882184,29.4031404 30.3662184,29.7331404 C27.3462184,30.7411404 24.6462184,32.4391404 22.4752184,34.7631404 C22.3542184,34.6701404 22.2212184,34.5921404 22.0762184,34.5381404 C20.9952184,34.1371404 19.9392184,34.1191404 18.8172184,34.3461404 C18.7012184,34.3701404 18.5972184,34.4101404 18.4992184,34.4601404 C18.3292184,34.4651404 18.1602184,34.4811404 17.9902184,34.4991404 C17.0422184,34.0861404 15.7652184,34.6461404 15.8552184,35.7881404 C15.4252184,36.0961404 15.1942184,36.6181404 15.4592184,37.2821404 L19.7712184,48.0881404 C19.7712184,48.0901404 19.7722184,48.0911404 19.7722184,48.0921404 C19.8282184,48.3051404 19.8842184,48.5171404 19.9382184,48.7291404 C20.3602184,51.1781404 20.7842184,53.6261404 21.2072184,56.0751404 C21.3292184,56.7791404 22.0002184,57.1411404 22.6642184,57.1411404 C22.5202184,57.4171404 22.3742184,57.6951404 22.2292184,57.9701404 C21.3252184,59.6751404 23.9142184,61.1931404 24.8192184,59.4841404 C26.7082184,55.9161404 28.4342184,52.3551404 28.8792184,48.2921404 C29.2472184,44.9281404 28.7992184,41.5411404 28.2202184,38.2111404 C29.6662184,38.2591404 31.1182184,38.0611404 32.4942184,37.5901404 C34.8582184,36.7821404 36.7232184,35.2671404 38.4472184,33.4981404 C41.1672184,30.7101404 43.5252184,27.4871404 44.4402184,23.7101404 C49.4682184,25.3181404 55.2302184,24.2691404 59.4632184,21.1331404 C63.9432184,17.8151404 66.5562184,12.6981404 67.2092184,7.22114035 C67.3072184,6.40914035 66.4502184,5.72914035 65.7092184,5.72103583" id="Fill-9" fill="#C3996B"></path>
                <path d="M56.9631184,105.54734 C56.7381184,105.19834 56.4491184,105.00934 56.0671184,104.85834 C54.7271184,104.32534 53.3871184,103.79434 52.0471184,103.26234 C51.8031184,103.16534 51.4691184,103.19734 51.1871184,103.28734 C51.1661184,103.25834 51.1491184,103.22734 51.1261184,103.19834 C49.7841184,101.50234 47.7931184,100.66234 45.9131184,99.7183404 C44.0211184,98.7683404 42.2151184,97.6213404 40.5861184,96.2663404 C39.7011184,95.5293404 38.8691184,94.7413404 38.0841184,93.9123404 C38.2211184,93.4113404 38.0671184,92.8653404 37.7131184,92.4323404 C34.6791184,88.7023404 31.5461184,84.7563404 30.7081184,79.8913404 C30.5701184,79.0923404 29.5891184,78.6443404 28.8631184,78.8433404 C28.0191184,79.0753404 27.6771184,79.8873404 27.8161184,80.6893404 C28.2051184,82.9543404 29.0591184,85.0433404 30.1621184,87.0113404 C30.1361184,87.2723404 30.1711184,87.5503404 30.3061184,87.8353404 C32.1751184,91.7953404 34.9051184,95.3693404 38.2451184,98.2023404 C39.9111184,99.6153404 41.7101184,100.87534 43.6341184,101.91134 C45.5031184,102.91834 47.6471184,103.60334 49.0051184,105.31934 C49.3541184,105.76134 49.9831184,105.83734 50.5131184,105.67134 C50.7111184,105.89234 50.9511184,106.03634 51.2501184,106.15434 C52.5901184,106.68734 53.9291184,107.21834 55.2691184,107.75034 C55.6081184,107.88534 56.1231184,107.77634 56.4241184,107.59934 C56.7351184,107.41734 57.0321184,107.06034 57.1131184,106.70234 C57.2011184,106.31834 57.1831184,105.88834 56.9631184,105.54734" id="Fill-11" fill="#C3996B"></path>
                <path d="M18.5285184,62.8627404 C17.0635184,60.8887404 14.8275184,59.0927404 12.2155184,59.2877404 C9.72351845,59.4737404 7.39751845,61.4057404 7.39351845,64.0237404 C7.39251845,64.1297404 7.40551845,64.2317404 7.42751845,64.3327404 C5.91051845,66.6287404 5.73551845,69.7167404 6.98651845,72.1837404 C7.35251845,72.9067404 8.36951845,73.1137404 9.03951845,72.7217404 C9.77351845,72.2927404 9.94451845,71.3947404 9.57751845,70.6697404 C9.56451845,70.6447404 9.47751845,70.4567404 9.45951845,70.4237404 C9.41451845,70.3077404 9.37251845,70.1907404 9.33651845,70.0727404 C9.29351845,69.9317404 9.25551845,69.7897404 9.22151845,69.6447404 C9.20051845,69.5497404 9.18051845,69.4537404 9.16451845,69.3557404 C9.15651845,69.3067404 9.15351845,69.2937404 9.14951845,69.2677404 C9.16051845,69.3387404 9.13251845,68.9987404 9.13151845,68.9487404 C9.12451845,68.7997404 9.12351845,68.6527404 9.12751845,68.5057404 C9.13151845,68.3567404 9.14151845,68.2097404 9.15451845,68.0617404 C9.15751845,68.0337404 9.15651845,68.0357404 9.15751845,68.0237404 C9.16651845,67.9737404 9.17451845,67.9247404 9.18351845,67.8747404 C9.24251845,67.5587404 9.32451845,67.2477404 9.42851845,66.9447404 C9.44051845,66.9107404 9.51751845,66.7227404 9.53051845,66.6847404 C9.58251845,66.5737404 9.63451845,66.4647404 9.69351845,66.3567404 C9.82451845,66.1137404 9.97451845,65.8747404 10.1425184,65.6537404 C10.1815184,65.6137404 10.2975184,65.4787404 10.3125184,65.4627404 C10.4135184,65.3537404 10.5175184,65.2497404 10.6265184,65.1497404 C10.6275184,65.1487404 10.8205184,64.9877404 10.8415184,64.9637404 C10.9495184,64.8847404 11.0605184,64.8097404 11.1745184,64.7407404 C11.3035184,64.6607404 11.4375184,64.5857404 11.5735184,64.5147404 C11.5755184,64.5147404 11.7765184,64.4247404 11.8255184,64.3997404 C12.0945184,64.2967404 12.3715184,64.2107404 12.6515184,64.1457404 C12.7765184,64.1167404 12.9025184,64.0927404 13.0295184,64.0727404 C13.0765184,64.0707404 13.2805184,64.0487404 13.3165184,64.0467404 C13.6255184,64.0277404 13.9285184,64.0427404 14.2375184,64.0547404 C14.2995184,64.0577404 14.3305184,64.0577404 14.3495184,64.0567404 C14.3655184,64.0617404 14.3905184,64.0687404 14.4475184,64.0807404 C14.5975184,64.1097404 14.7485184,64.1387404 14.8965184,64.1767404 C15.5685184,64.3477404 15.8435184,64.4767404 16.4765184,64.9147404 C17.0175184,65.2897404 17.8495184,65.1247404 18.2945184,64.6797404 C18.7285184,64.2457404 18.9205184,63.3887404 18.5285184,62.8627404" id="Fill-13" fill="#C3996B"></path>
                <path d="M84.8029184,42.3217404 C84.4059184,40.6207404 84.0379184,38.8817404 83.4179184,37.2457404 C82.8359184,35.7097404 81.8139184,34.3587404 81.2749184,32.8237404 C80.8259184,31.5507404 79.5659184,30.7027404 78.1989184,31.0777404 C76.9639184,31.4177404 76.0029184,32.8737404 76.4529184,34.1537404 C77.0039184,35.7217404 77.9829184,37.0467404 78.5969184,38.5747404 C79.1989184,40.0727404 79.5219184,41.7087404 79.8929184,43.2747404 C80.6689184,46.5547404 81.3369184,49.8717404 81.7569184,53.2177404 C81.9249184,54.5567404 82.7849184,55.7177404 84.2569184,55.7177404 C85.4779184,55.7177404 86.9259184,54.5657404 86.7569184,53.2177404 C86.2969184,49.5507404 85.6439184,45.9207404 84.8029184,42.3217404" id="Fill-15" fill="#E4C3A2"></path>
                <path d="M129.838118,43.4604404 C129.702118,42.2474404 129.567118,41.0344404 129.430118,39.8214404 C129.406118,39.6124404 129.278118,39.4794404 129.124118,39.4074404 C129.123118,39.2914404 129.106118,39.1774404 129.111118,39.0604404 C129.140118,38.4164404 128.140118,38.4174404 128.111118,39.0604404 C128.044118,40.5384404 128.483118,41.9564404 128.800118,43.3844404 C128.824118,43.4954404 128.844118,43.6084404 128.867118,43.7204404 C129.026118,45.1364404 129.185118,46.5524404 129.344118,47.9684404 C129.413118,48.5914404 130.340118,48.6274404 130.344118,47.9684404 C130.352118,46.4504404 130.150118,44.9424404 129.838118,43.4604404" id="Fill-17" fill="#E4C3A2"></path>
            </g>
            <g id="outline" transform="translate(0.000000, 0.916000)">
                <g id="Group-24">
                    <mask id="mask-2" fill="white">
                        <use xlink:href="#path-1"></use>
                    </mask>
                    <g id="Clip-23"></g>
                    <path d="M171.0488,137.3859 C170.9038,137.5149 170.7918,137.6879 170.7628,137.9199 C169.5318,147.5449 162.4278,154.9569 155.6848,161.4389 C155.3618,161.3509 154.9878,161.4199 154.7378,161.7529 C150.6488,167.2129 148.0458,174.3569 142.1718,178.2569 C135.6438,182.5909 127.3668,181.2159 120.2968,179.1599 C116.3598,178.0159 112.5028,176.5929 108.6288,175.2519 C104.2838,173.7479 99.9388,172.2429 95.5938,170.7399 C87.9338,168.0879 80.0708,165.5149 73.3788,160.8089 C67.2358,156.4899 62.1388,149.8729 61.3948,142.2619 C61.3828,142.1729 61.3778,142.0839 61.3618,141.9949 C61.3178,141.4609 61.2918,140.9229 61.2908,140.3799 C61.2898,139.5659 60.3218,139.3819 59.8728,139.8209 C59.3968,139.9429 58.9968,140.4619 59.3068,141.0249 C59.5348,141.4389 59.6708,141.8779 59.7478,142.3229 C59.7658,142.5039 59.7818,142.6849 59.8038,142.8639 C59.8698,144.2729 59.2888,145.7079 58.2988,146.7449 C57.4498,147.6329 56.3578,148.1419 55.1938,148.3689 C54.8838,148.1629 54.5218,148.0429 54.1368,148.0699 C50.5768,148.3219 47.9108,145.0959 45.7258,142.7269 C42.8618,139.6229 40.1358,136.3869 37.5838,133.0219 C37.3718,132.7409 37.1118,132.5119 36.8268,132.3409 C36.7138,132.1489 36.5928,131.9609 36.4838,131.7669 C36.4778,131.7539 36.4708,131.7409 36.4648,131.7299 C36.4578,131.7139 36.4458,131.7029 36.4388,131.6889 C35.0858,129.2899 33.9888,126.7679 33.5098,124.0379 C33.2798,122.7339 33.2598,121.3619 33.5138,120.0479 C33.6398,119.9319 33.7598,119.7999 33.8648,119.6369 C34.9288,117.9939 36.6938,116.9089 38.5938,116.5359 C39.3828,116.6849 40.1798,116.6429 40.9348,116.4469 C41.3288,116.4939 41.7208,116.5739 42.1028,116.6899 C43.9488,117.2489 45.7138,118.6349 47.1938,119.8439 C48.7968,121.1549 50.1478,122.6169 51.0018,124.5219 C51.3438,125.2829 52.2758,125.5909 53.0788,125.4599 C53.3598,125.5239 53.6348,125.5319 53.8978,125.4909 C54.0608,125.4899 54.2128,125.4489 54.3448,125.3649 C54.8958,125.1449 55.3398,124.6929 55.5368,124.0629 C55.8918,122.9389 56.0098,121.8259 55.9538,120.7339 C56.0118,120.5409 56.0698,120.3499 56.1278,120.1569 C56.2288,119.8239 56.0618,119.4419 55.7718,119.2519 C55.5668,118.1719 55.2138,117.1139 54.7688,116.0819 C53.4948,109.0589 50.8128,102.3309 46.8588,96.3719 L48.4808,96.9899 C49.7578,97.4769 51.0678,98.1199 52.4238,98.3399 C53.5468,98.5229 54.5978,98.2619 55.4128,97.6389 C56.1258,97.9639 56.9748,97.9949 57.6538,97.5309 C59.3028,96.4039 60.7298,95.0759 61.9418,93.5309 C62.3578,93.0809 62.7218,92.5839 63.0088,92.0319 C63.1158,91.8239 63.1878,91.6189 63.2388,91.4179 C64.3078,89.7129 65.1598,87.8719 65.7718,85.9539 C68.4618,83.5629 69.2838,79.6619 69.2138,76.0009 C71.9848,79.3199 76.0608,81.4739 80.3878,81.9489 C85.9858,82.5659 91.3788,79.9259 94.7518,75.4969 C95.7048,74.2459 96.4518,72.8709 97.0068,71.4229 C97.2968,70.9069 97.5738,70.3849 97.8358,69.8559 C100.0568,73.5319 103.5778,76.4919 107.8268,77.3909 C112.8888,78.4609 118.0038,76.0769 120.5138,71.5449 C121.0578,70.5619 121.4298,69.5039 121.6358,68.4209 C121.9758,70.3099 122.5738,71.9479 124.0668,73.4409 C124.7098,74.0849 125.5288,74.6559 126.4208,75.1059 C127.9138,76.4769 129.7778,77.3779 132.1528,77.4499 C135.0278,77.5379 137.4768,75.7819 138.8608,73.3479 C139.9168,71.4949 140.3028,69.4359 140.4228,67.3429 C142.4998,70.4139 146.1228,72.4679 149.8858,72.2169 C153.7968,71.9559 157.1798,69.4299 158.8378,66.0089 C159.6528,66.4509 160.5358,66.7559 161.4598,66.9009 C161.5418,66.9399 161.6198,66.9879 161.7028,67.0239 C157.4138,72.4069 157.7178,80.3679 159.0818,86.7709 C160.6858,94.2959 164.1268,101.2539 166.9408,108.3659 C168.5618,112.4669 169.9908,116.6519 170.7918,120.9959 C170.8088,121.0859 170.8468,121.1519 170.8828,121.2199 C171.4688,126.5889 171.5238,132.0049 171.0488,137.3859 M117.8828,188.8349 C117.1188,189.6029 115.9018,189.9819 114.8748,190.2389 C113.7788,190.5129 112.5168,190.6419 111.4578,190.1569 C110.3378,189.6439 109.8638,188.4459 109.1058,187.5539 C108.7648,187.1539 108.3698,186.8629 107.9388,186.5719 C107.2828,186.1279 107.3518,185.6849 107.3298,184.9359 C107.2488,182.1359 107.1678,179.3349 107.0868,176.5349 C110.5698,177.7419 114.0598,178.9279 117.5678,180.0449 C117.5608,180.1429 117.5658,180.2449 117.6028,180.3579 C118.0748,181.8179 118.4028,183.3169 118.5218,184.8479 C118.6188,186.1059 118.8598,187.8539 117.8828,188.8349 M106.4558,3.6919 C105.7528,4.2209 104.9318,4.6619 104.0518,4.9889 C104.8068,4.4849 105.6128,4.0489 106.4558,3.6919 M136.7938,73.4409 C136.8198,73.4129 136.8438,73.3809 136.8688,73.3539 C135.8128,74.7409 134.3268,75.6979 132.5438,75.7819 C134.1468,75.4079 135.6628,74.6719 136.7938,73.4409 M143.5778,68.4159 C142.5948,67.5849 141.7738,66.5579 141.1928,65.4049 C141.9158,66.4679 142.7138,67.4769 143.5778,68.4159 M171.4998,116.7339 C167.9888,103.8099 159.5948,92.0199 159.8558,78.3009 C159.9288,74.4409 160.8558,70.4299 163.4788,67.5049 C163.9128,67.5579 164.3518,67.5719 164.7848,67.5309 C168.1548,67.2119 170.7358,64.4909 171.9508,61.4929 C173.4148,57.8859 173.4808,53.5769 173.3078,49.7399 C173.1838,46.9779 172.7318,44.1559 171.6808,41.5809 C171.2988,40.2199 170.5818,39.0019 169.6528,37.9809 C168.0098,35.8019 165.7898,34.0499 163.2028,33.2119 C163.1918,33.1789 163.1758,33.1469 163.1628,33.1139 C163.6028,30.9639 163.8998,28.6319 162.8148,26.6339 C162.4218,25.9109 161.8798,25.3109 161.2418,24.8699 C160.7508,22.8709 159.9428,21.0879 158.5408,19.6219 C158.1398,18.7569 157.5718,17.9689 156.8198,17.3269 C155.5438,16.2409 153.8758,15.7079 152.2408,15.7999 C151.7428,14.6939 151.0348,13.6469 150.0818,12.6939 C146.8418,9.4529 140.6898,8.1849 136.7518,10.9739 C136.4588,11.1819 136.1648,11.3959 135.8678,11.6099 C135.1268,8.8609 133.1878,6.5939 130.7028,5.1849 C130.5088,5.0309 130.3208,4.8689 130.1138,4.7279 C128.0408,3.3169 125.3348,2.7479 122.9078,3.3419 C122.3388,2.7839 121.7068,2.2929 121.0288,1.8699 C120.5278,1.2759 119.8558,0.8029 119.0988,0.5489 C118.2878,0.2779 117.4348,0.2119 116.5788,0.2259 C114.6378,-0.0761 112.6148,0.0949 110.7378,0.8179 C110.5518,0.8489 110.3618,0.8679 110.1758,0.9029 C106.6948,1.5449 103.1608,3.0479 100.7708,5.6169 C99.3168,5.6349 97.9228,5.2839 96.8588,4.4499 C93.6818,1.9629 90.3698,0.9649 87.0858,1.5909 C83.6398,1.9059 81.1688,4.2479 78.7228,6.5529 C77.8328,7.2779 76.9448,8.0019 76.0548,8.7269 C73.5078,7.2979 70.9728,5.8089 68.3438,4.5479 C65.8218,3.3379 62.9878,2.4959 60.2258,3.3969 C54.9218,5.1239 52.9678,10.6539 51.7078,15.5959 C47.7108,13.1979 42.7218,12.5509 38.2418,13.8839 C36.7448,14.3279 35.3528,15.0189 34.0698,15.8689 C31.8058,16.8919 29.7668,18.4469 28.1488,20.6259 C25.7328,23.8799 24.7348,27.7929 25.1948,31.5389 C24.4958,31.8209 23.6748,31.9739 23.1378,32.1849 C22.0378,32.6149 20.9808,33.1419 19.9868,33.7819 C17.4968,35.3829 15.3888,37.6019 13.9208,40.1779 C12.6108,41.7549 11.5768,43.5879 10.9548,45.7559 C9.4898,50.8549 10.7248,55.7419 13.5088,59.8039 C10.0698,60.6649 6.8518,62.3929 4.4488,65.0269 C2.6178,67.0319 1.4078,69.4799 0.9058,72.0739 C-0.5772,76.0229 -0.0612,80.6739 3.2628,83.7259 C3.4388,83.8879 3.6228,84.0319 3.8048,84.1809 C0.4358,86.0269 -0.4942,90.9599 0.2308,94.5029 C0.9468,98.0079 3.1168,101.1139 6.0928,103.0259 C5.6358,103.5479 5.2248,104.1269 4.8668,104.7669 C4.8518,104.7889 4.8328,104.8089 4.8178,104.8319 C4.4978,105.3059 4.2808,105.8209 4.1368,106.3549 C2.4118,111.0709 3.8608,117.3849 8.7488,119.7739 C9.8908,120.3309 10.0048,120.1529 10.4608,120.8639 C11.5088,122.4949 12.7788,123.6699 14.1588,124.4929 C13.1808,125.6229 12.6878,127.2039 13.0818,128.9819 C13.0928,129.0309 13.1068,129.0779 13.1168,129.1259 C13.0818,129.4279 13.0448,129.7299 13.0308,130.0319 C12.8638,133.8679 14.5128,137.4439 16.4178,140.6709 C18.4938,144.1889 20.5868,147.8239 23.0118,151.1149 C25.1948,154.0779 28.1278,156.7399 31.9198,157.2339 C34.9428,157.6259 38.1968,156.1819 39.5588,153.4699 C40.2088,154.0279 40.9268,154.5109 41.6878,154.9089 C42.6948,156.3309 44.2088,157.5359 45.4238,158.4799 C47.6718,160.2269 50.2608,161.6009 53.0578,162.2099 C58.1568,163.3219 63.8288,161.6729 66.8688,157.2849 C67.6608,158.1469 68.4898,158.9719 69.3638,159.7389 C75.6908,165.2929 83.7278,168.3429 91.5658,171.0819 C96.1838,172.6969 100.7978,174.3469 105.4238,175.9619 C105.5038,178.7089 105.5828,181.4569 105.6618,184.2039 C105.6958,185.3649 105.5318,186.7179 106.4988,187.5569 C106.8858,187.8929 107.3588,188.1029 107.7178,188.4719 C108.1148,188.8789 108.3998,189.3749 108.7298,189.8349 C110.1128,191.7649 112.1288,192.3599 114.4298,192.0049 C116.4158,191.6989 118.9958,190.8189 119.8478,188.8209 C120.4008,187.5229 120.2708,185.9369 120.1448,184.5659 C120.0208,183.2239 119.7648,181.9039 119.3928,180.6109 C126.1778,182.6399 133.7518,184.0209 140.4228,181.0849 C147.7288,177.8699 150.8518,170.2849 155.1188,164.0469 C155.2698,164.0249 155.4198,163.9719 155.5588,163.8389 C162.2948,157.4089 169.4278,150.2619 171.7898,141.0539 C172.0838,140.9509 172.3378,140.7109 172.3858,140.3279 C173.3338,132.6649 173.1948,124.9329 172.0228,117.3019 C171.9688,116.9539 171.7528,116.7839 171.4998,116.7339" id="Fill-22" fill="#231F20" mask="url(#mask-2)"></path>
                </g>
                <path d="M139.3574,129.5402 C137.3164,126.8232 135.2234,124.1442 133.1694,121.4362 C131.1834,118.8182 128.7844,115.2682 130.6524,111.9462 C131.1724,111.0212 129.7514,110.1902 129.2304,111.1152 C127.5724,114.0632 128.5154,117.4432 130.2284,120.1342 C132.3114,123.4062 134.9114,126.4082 137.2644,129.4892 C138.6074,131.2492 143.2734,137.4882 138.6784,138.2522 C136.7324,138.5752 134.7044,137.7562 132.9204,137.0752 C131.0624,136.3652 129.2624,135.5212 127.5114,134.5782 C126.5784,134.0752 125.7464,135.4972 126.6804,136.0002 C129.4584,137.4962 132.4844,138.9482 135.5734,139.6682 C137.9924,140.2312 141.4724,140.0962 142.1284,137.1092 C142.7364,134.3472 140.9294,131.6332 139.3574,129.5402" id="Fill-25" fill="#231F20"></path>
                <path d="M96.7285,84.5617 C91.4755,85.8807 86.6905,88.8527 83.1955,92.9947 C82.5165,93.7987 83.6755,94.9697 84.3605,94.1587 C87.6865,90.2167 92.1635,87.4067 97.1665,86.1497 C98.1945,85.8907 97.7585,84.3027 96.7285,84.5617" id="Fill-27" fill="#231F20"></path>
                <path d="M155.7793,85.2257 C151.7073,81.7177 146.2463,81.0147 141.0753,80.6637 C140.0173,80.5917 140.0213,82.2397 141.0753,82.3107 C145.7633,82.6277 150.9103,83.1997 154.6153,86.3897 C155.4143,87.0787 156.5843,85.9187 155.7793,85.2257" id="Fill-29" fill="#231F20"></path>
                <path d="M110.7031,113.215 C105.8511,113.03 101.0401,113.954 96.4891,116.024 C91.5971,118.248 93.7141,127.917 98.6641,125.666 C102.5981,123.878 106.5091,123.055 110.7031,123.215 C115.9711,123.415 115.9651,113.415 110.7031,113.215" id="Fill-31" fill="#F8D7E1"></path>
                <path d="M156.7724,108.1916 C152.4924,107.1976 148.2444,107.3026 144.0454,108.7686 C138.8244,110.5906 141.0464,120.2446 146.3004,118.4116 C149.0084,117.4656 151.7304,117.1876 154.5184,117.8356 C156.7624,118.3566 159.0954,117.0826 159.7344,114.3426 C160.3064,111.8856 159.0314,108.7156 156.7724,108.1916" id="Fill-33" fill="#F8D7E1"></path>
                <path d="M140.1133,150.998143 C139.5253,150.9922 139.1703,151.4642 139.1133,151.9982 C138.8563,154.4032 136.6113,156.2862 134.3093,156.6512 C131.2433,157.1402 129.0853,154.5562 127.3553,152.4202 C127.0123,151.9972 126.2983,152.0702 125.9403,152.4202 C125.5213,152.8302 125.6023,153.4172 125.9403,153.8342 C127.1743,155.3562 128.4913,156.9132 130.2453,157.8542 C131.7273,158.6492 133.3643,158.8812 135.0103,158.5482 C138.1923,157.9062 140.7683,155.2332 141.1133,151.9982 C141.1713,151.4562 140.6123,151.0032 140.1133,150.998143" id="Fill-35" fill="#231F20"></path>
                <path d="M110.707,105.6398 C109.262,101.8788 106.826,97.1848 102.134,97.2968 C96.686,97.4268 94.13,102.8588 92.701,107.3168 C92.308,108.5448 94.237,109.0718 94.63,107.8488 C95.759,104.3278 97.708,99.4038 102.134,99.2968 C105.801,99.2098 107.669,103.2838 108.778,106.1708 C109.235,107.3608 111.17,106.8438 110.707,105.6398" id="Fill-37" fill="#231F20"></path>
                <path d="M149.3486,93.0441 C147.6896,92.7021 145.9236,92.9571 144.4466,93.7971 C142.9606,94.6421 141.9456,96.0561 141.3526,97.6331 C140.6866,99.4081 140.6106,101.3961 140.7916,103.2661 C140.8426,103.8041 141.2136,104.2661 141.7916,104.2661 C142.2916,104.2661 142.8436,103.8061 142.7916,103.2661 C142.4876,100.1211 143.0336,95.9881 146.6376,95.0501 C149.9916,94.1771 152.9466,97.0361 152.5306,100.3911 C152.4636,100.9271 153.0376,101.3911 153.5306,101.3911 C154.1256,101.3911 154.4636,100.9291 154.5306,100.3911 C154.9406,97.0931 152.6276,93.7221 149.3486,93.0441" id="Fill-39" fill="#231F20"></path>
            </g>
        </g>
    </g>
</svg>