<?xml version="1.0" encoding="UTF-8"?>
<svg width="500px" height="600px" viewBox="0 0 500 600" version="1.1" xmlns="http://www.w3.org/2000/svg" xmlns:xlink="http://www.w3.org/1999/xlink">
    <title>confusedlookingstraight</title>
    <g id="confusedlookingstraight" stroke="none" stroke-width="1" fill="none" fill-rule="evenodd">
        <g id="face" transform="translate(153.000000, 64.000000)">
            <g id="fill" transform="translate(32.415887, 60.628549)">
                <path d="M82.4166126,49.7128515 C82.4166126,63.8738515 75.8926126,75.3538515 67.8446126,75.3538515 C59.7956126,75.3538515 53.2716126,63.8738515 53.2716126,49.7128515 C53.2716126,35.5518515 59.7956126,24.0718515 67.8446126,24.0718515 C75.8926126,24.0718515 82.4166126,35.5518515 82.4166126,49.7128515" id="Fill-1" fill="#FEFEFE"></path>
                <path d="M131.124613,45.5566515 C131.124613,57.1106515 125.372613,66.4766515 118.278613,66.4766515 C111.184613,66.4766515 105.433613,57.1106515 105.433613,45.5566515 C105.433613,34.0026515 111.184613,24.6376515 118.278613,24.6376515 C125.372613,24.6376515 131.124613,34.0026515 131.124613,45.5566515" id="Fill-3" fill="#FEFEFE"></path>
                <path d="M86.7545126,122.408251 C86.5675126,121.730251 86.2355126,121.128251 85.8175126,120.591251 C85.7655126,120.444251 85.7135126,120.298251 85.6495126,120.151251 C85.4625126,119.727251 85.0925126,119.508251 84.6845126,119.445251 C84.3885126,119.207251 84.0755126,118.987251 83.7525126,118.789251 C82.2735126,117.881251 80.5905126,117.254251 78.9875126,116.603251 C78.3725126,116.354251 77.7055126,116.014251 77.0265126,115.919251 C76.6225126,115.464251 75.8615126,115.338251 75.3325126,115.571251 C74.6545126,115.869251 74.2645126,116.603251 74.4645126,117.341251 C74.5205126,117.545251 74.5565126,117.750251 74.6015126,117.955251 C74.5835126,118.057251 74.5665126,118.161251 74.5545126,118.265251 C74.3165126,120.363251 74.4575126,122.485251 74.8095126,124.561251 C74.8695126,124.918251 75.1035126,125.199251 75.4035126,125.389251 C75.4055126,125.402251 75.4075126,125.416251 75.4105126,125.429251 C75.4045126,125.429251 75.4005126,125.429251 75.3955126,125.430251 C75.7945126,127.147251 77.1445126,128.573251 78.8355126,129.071251 C79.7195126,129.333251 80.6625126,129.310251 81.5405126,129.056251 C82.1105126,129.575251 83.1145126,129.677251 83.6775126,129.076251 C84.2165126,128.501251 84.6395126,127.838251 84.9605126,127.133251 C85.2225126,127.082251 85.4785126,126.978251 85.6955126,126.773251 C86.8735126,125.661251 87.1745126,123.933251 86.7545126,122.408251" id="Fill-5" fill="#E4C3A2"></path>
                <path d="M78.0348126,126.405251 C78.4438126,126.136251 78.7458126,125.704251 78.6838126,125.195251 C78.4728126,123.445251 78.2618126,121.696251 78.0508126,119.946251 C78.0098126,119.608251 77.9708126,119.273251 77.9188126,118.942251 C78.0038126,118.852251 78.0838126,118.753251 78.1528126,118.635251 C78.5178126,118.019251 78.4028126,117.209251 77.9918126,116.654251 C77.4978126,115.986251 76.5748126,115.772251 75.8388126,116.182251 C75.8288126,116.188251 75.8228126,116.196251 75.8128126,116.202251 C75.6718126,116.166251 75.5328126,116.125251 75.3798126,116.106251 C74.7948126,116.034251 74.0248126,116.619251 73.9328126,117.207251 C73.3508126,120.936251 73.8758126,124.651251 75.5048126,128.060251 C75.8528126,128.791251 76.8988126,128.983251 77.5558126,128.598251 C78.3048126,128.161251 78.4448126,127.280251 78.0948126,126.546251 C78.0728126,126.501251 78.0558126,126.451251 78.0348126,126.405251" id="Fill-7" fill="#C3996B"></path>
                <path d="M111.654913,55.4658515 C111.355913,54.7318515 111.097913,53.9888515 110.914913,53.2468515 C109.861913,48.9858515 108.867913,44.3468515 109.473913,40.0248515 C109.684913,38.5168515 110.012913,37.0168515 110.456913,35.5568515 C110.606913,34.9358515 110.789913,34.3268515 111.014913,33.7368515 C110.992913,33.6198515 110.979913,33.5008515 110.981913,33.3798515 C111.009913,31.6858515 111.708913,29.9908515 113.265913,29.1588515 C113.412913,29.0808515 113.563913,29.0128515 113.716913,28.9498515 C114.061913,28.4908515 114.430913,28.0478515 114.824913,27.6218515 C116.024913,26.3238515 117.718913,27.2288515 118.133913,28.5378515 C118.543913,28.3888515 118.926913,28.1558515 119.288913,27.8758515 C119.418913,27.9158515 119.548913,27.9558515 119.675913,28.0018515 C119.722913,28.0188515 119.768913,28.0398515 119.816913,28.0558515 C119.911913,28.3388515 120.002913,28.6218515 120.105913,28.9038515 C120.294913,28.9148515 120.482913,28.9478515 120.667913,28.9738515 C120.793913,28.9908515 120.914913,29.0248515 121.032913,29.0708515 C121.300913,29.1798515 121.589913,29.2838515 121.834913,29.4458515 C122.136913,29.6248515 122.378913,29.8658515 122.557913,30.1688515 C122.626913,30.3298515 122.693913,30.4908515 122.760913,30.6518515 C122.801913,30.8018515 122.815913,30.9528515 122.821913,31.1038515 C124.811913,32.3988515 126.246913,34.6378515 126.773913,36.9578515 C126.837913,37.0398515 126.905913,37.1198515 126.946913,37.2178515 C127.415913,38.3208515 127.973913,39.4558515 128.462913,40.6138515 C128.779913,41.5868515 129.080913,42.5658515 129.344913,43.5538515 C129.368913,43.6378515 129.419913,43.7058515 129.478913,43.7658515 C129.757913,45.2058515 129.719913,46.6658515 129.072913,48.1278515 C129.106913,48.3328515 129.133913,48.5378515 129.156913,48.7418515 C129.171913,48.8788515 129.175913,49.0178515 129.166913,49.1548515 C129.165913,49.1618515 129.164913,49.1688515 129.164913,49.1748515 C129.206913,49.4638515 129.189913,49.7568515 129.144913,50.0758515 C128.988913,51.1888515 128.714913,52.2688515 128.370913,53.3288515 C128.366913,55.7398515 128.133913,55.8188515 127.225913,57.9228515 C127.297913,58.1608515 126.411913,58.7818515 126.373913,59.0438515 C126.213913,60.1378515 125.465913,60.0478515 124.611913,60.7368515 C122.984913,62.0488515 121.847913,63.6378515 119.781913,63.5168515 C117.850913,63.4028515 115.658913,62.7358515 114.656913,60.9348515 C114.591913,60.8158515 114.550913,60.6978515 114.521913,60.5828515 M82.5389126,52.8638515 C82.3839126,55.5808515 81.5599126,58.3348515 80.2879126,60.7908515 C80.3009126,60.8838515 80.3169126,60.9778515 80.3159126,61.0708515 C80.3129126,61.4848515 80.2829126,61.8978515 80.2419126,62.3098515 C80.5759126,62.7838515 80.7149126,63.3938515 80.5409126,63.9798515 C80.1509126,65.3018515 79.5049126,66.5578515 78.6999126,67.7098515 C78.6059126,67.9108515 78.5129126,68.1118515 78.4139126,68.3078515 C77.3639126,70.3808515 75.6109126,72.6148515 73.2019126,73.0988515 C72.8839126,73.1608515 72.5629126,73.1568515 72.2619126,73.0938515 C70.5479126,73.8408515 68.6879126,74.1688515 66.7919126,73.6908515 C66.2209126,73.5478515 65.8019126,73.1608515 65.5609126,72.6788515 C62.6169126,71.8658515 59.9219126,70.2338515 57.8959126,67.8348515 C57.2749126,67.0988515 57.1439126,66.1718515 57.6069126,65.3798515 C56.1989126,62.8778515 55.3929126,59.9798515 54.9629126,57.1608515 C53.9969126,54.3958515 53.8369126,51.4858515 54.6979126,48.5478515 C54.7169126,48.4818515 54.7429126,48.4168515 54.7629126,48.3508515 C55.0789126,45.5108515 55.7829126,42.7208515 56.9879126,40.1878515 C57.4449126,39.2258515 58.2969126,39.0128515 59.0679126,39.2468515 C59.2669126,38.8698515 59.4659126,38.4908515 59.6559126,38.1118515 C59.8839126,37.6608515 60.3019126,37.3658515 60.7719126,37.2258515 C61.0569126,36.7238515 61.3719126,36.2418515 61.6999126,35.7728515 C61.9259126,35.1778515 62.2119126,34.6048515 62.5939126,34.0848515 C64.1429126,31.9808515 66.5389126,30.5808515 69.1829126,30.5178515 C69.7279126,30.5048515 70.2569126,30.5758515 70.7699126,30.6908515 C71.2409126,30.6538515 71.7489126,30.6068515 71.8969126,30.8198515 C71.9819126,30.9428515 72.0739126,31.0378515 72.1619126,31.1478515 C73.0809126,31.5768515 73.8969126,32.2098515 74.5619126,32.9898515 C75.0019126,33.2068515 75.4619126,33.4198515 75.9299126,33.6478515 C75.9419126,33.6438515 75.9549126,33.6358515 75.9669126,33.6328515 C76.3279126,33.5338515 76.6599126,33.6118515 76.9869126,33.7668515 C78.0589126,34.2748515 78.8659126,35.2648515 79.4619126,36.2618515 C80.0239126,37.2038515 80.4269126,38.2318515 80.8479126,39.2408515 C80.9809126,39.5618515 80.8689126,39.9688515 80.7149126,40.2608515 C80.6549126,40.3738515 80.5589126,40.4578515 80.4659126,40.5428515 C80.5479126,40.7468515 80.6309126,40.9518515 80.7099126,41.1568515 C80.7589126,41.1808515 80.8149126,41.1988515 80.8609126,41.2258515 C81.3509126,41.5128515 81.5829126,41.9248515 81.7879126,42.4318515 C82.3699126,43.8678515 82.5019126,45.4838515 82.5569126,47.0188515 C82.6089126,48.4638515 82.5529126,49.9128515 82.6589126,51.3568515 C82.6829126,51.6908515 82.5979126,51.9948515 82.4519126,52.2648515 C82.5119126,52.4558515 82.5509126,52.6548515 82.5389126,52.8638515 M139.057913,65.6108515 C139.046913,65.1658515 138.963913,64.7538515 138.847913,64.3608515 C138.956913,62.5748515 138.906913,60.8058515 138.657913,58.9718515 C138.362913,56.7868515 138.238913,53.6498515 136.462913,52.0968515 C136.430913,52.0698515 136.396913,52.0508515 136.365913,52.0248515 C135.850913,49.8718515 135.233913,47.7488515 134.481913,45.6538515 C134.190913,44.8408515 133.699913,44.2568515 133.112913,43.8678515 C132.413913,41.5308515 131.680913,39.2048515 130.838913,36.9188515 C130.605913,36.2878515 130.245913,35.8088515 129.822913,35.4378515 C128.961913,33.1138515 128.114913,30.7768515 127.786913,28.3108515 C127.472913,25.9568515 127.096913,23.8308515 126.261913,21.5938515 C126.236913,21.5268515 126.199913,21.4738515 126.171913,21.4078515 C126.277913,19.4258515 126.420913,17.4448515 126.647913,15.4698515 C126.672913,15.2568515 126.661913,15.0498515 126.632913,14.8458515 C126.757913,14.1078515 126.634913,13.4588515 126.341913,12.9168515 C126.836913,11.8528515 127.364913,10.8038515 127.964913,9.77285147 C127.991913,9.73485147 128.021913,9.69985147 128.049913,9.66085147 C128.591913,8.86985147 129.132913,8.07885147 129.674913,7.28785147 C132.957913,2.49685147 126.262913,-2.03614853 122.255913,0.963851468 C122.089913,1.06985147 121.927913,1.18685147 121.769913,1.31785147 C119.771913,1.23685147 117.750913,2.29385147 116.951913,4.84785147 L116.656913,5.78985147 C116.415913,5.87385147 116.176913,5.98485147 115.941913,6.12585147 C114.916913,2.12885147 109.272913,-0.120148532 107.007913,4.52485147 C106.990913,4.55785147 106.975913,4.59285147 106.959913,4.62585147 C105.078913,4.38385147 103.102913,5.07285147 102.117913,6.98385147 C101.490913,8.19985147 100.900913,9.42785147 100.330913,10.6618515 C99.7379126,10.5718515 99.1279126,10.5768515 98.5239126,10.6858515 C98.9629126,8.25085147 97.8789126,6.42885147 96.2679126,5.48685147 C93.9109126,2.43285147 87.5759126,3.53985147 87.1369126,8.59685147 C87.1139126,8.86185147 87.0849126,9.12585147 87.0599126,9.39185147 C86.9699126,9.22985147 86.8849126,9.06485147 86.7799126,8.90885147 C86.7569126,8.73585147 86.7319126,8.56285147 86.7089126,8.38985147 C86.3649126,5.87585147 82.8369126,4.02785147 80.5579126,4.89785147 C79.5289126,5.28985147 78.5299126,5.70985147 77.5449126,6.14985147 C77.0209126,3.02685147 73.8639126,0.520851468 70.3169126,2.61185147 C69.4579126,3.11985147 68.6269126,3.66485147 67.7909126,4.20185147 C66.5589126,4.14585147 65.2869126,4.54285147 64.2089126,5.57385147 L56.9139126,12.5458515 C56.8719126,12.5318515 56.8289126,12.5248515 56.7869126,12.5138515 C57.2999126,7.55185147 50.3749126,5.64785147 47.4319126,9.73885147 C46.2239126,11.4188515 45.0859126,13.1318515 43.9999126,14.8718515 C43.5529126,12.1418515 40.4929126,10.8038515 37.8879126,11.2728515 C35.4609126,10.4478515 32.4769126,11.2848515 31.5219126,14.5128515 C31.0869126,15.9838515 30.6339126,17.4478515 30.1719126,18.9088515 C30.0419126,19.0788515 29.9179126,19.2578515 29.8039126,19.4538515 C28.1119126,22.4098515 26.3349126,25.3118515 24.4319126,28.1368515 C24.3239126,27.6768515 24.2189126,27.2158515 24.1109126,26.7568515 C22.7539126,21.0088515 14.6779126,22.6948515 14.2899126,28.0858515 C14.2809126,28.2088515 14.2779126,28.3308515 14.2699126,28.4538515 C13.0529126,29.2218515 12.1249126,30.5658515 11.9369126,32.5098515 C11.7119126,34.8458515 12.1189126,37.3158515 13.0659126,39.4088515 C13.7359126,42.3718515 14.6439126,45.2568515 15.7959126,48.1538515 C15.8039126,48.1928515 15.8099126,48.2308515 15.8189126,48.2688515 C15.8249126,48.2668515 15.8319126,48.2628515 15.8389126,48.2608515 C15.9989126,48.6608515 16.1529126,49.0618515 16.3229126,49.4628515 C16.9469126,50.9398515 17.9939126,51.6978515 19.1609126,51.9428515 C19.9419126,56.0028515 20.9209126,60.0268515 22.1189126,64.0088515 C21.6109126,64.1068515 21.1049126,64.2668515 20.6139126,64.5318515 C20.2619126,64.7228515 19.9079126,64.9148515 19.5479126,65.0928515 C19.6129126,65.0518515 19.5289126,65.0708515 19.3809126,65.1188515 C19.2479126,65.0108515 19.1119126,64.9078515 18.9709126,64.8118515 C17.2129126,61.7738515 14.9049126,59.0618515 12.1129126,56.8878515 C10.9329126,55.9698515 9.52591259,55.4348515 8.15291259,55.4908515 C7.80091259,55.4168515 7.42791259,55.3718515 7.02391259,55.3738515 C4.49791259,55.3838515 2.46291259,56.5678515 1.32791259,58.8388515 C0.00891258704,61.4778515 0.947912587,64.0908515 2.25891259,66.4858515 C2.58291259,70.1958515 5.30791259,73.2598515 7.59391259,76.0968515 C10.2669126,79.4128515 13.2649126,82.5438515 16.5699126,85.2368515 C19.5379126,87.6548515 23.6969126,88.6398515 26.4479126,85.2868515 C28.1519126,83.2098515 28.0009126,81.2748515 27.2589126,78.8328515 C27.2489126,78.8018515 27.2399126,78.7708515 27.2299126,78.7398515 C27.2789126,78.7408515 27.3249126,78.7468515 27.3749126,78.7468515 C27.6889126,78.7468515 27.9839126,78.7168515 28.2679126,78.6708515 C28.7279126,83.5558515 30.9359126,88.3618515 33.4549126,92.8478515 C33.9699126,93.7668515 34.6339126,94.3918515 35.3679126,94.7828515 C36.7739126,96.9928515 38.7919126,98.4438515 40.9869126,100.178851 C42.1619126,101.106851 43.3099126,102.160851 44.6239126,102.889851 C45.7369126,103.508851 47.2469126,103.689851 47.9679126,104.245851 C48.6829126,104.798851 49.5479126,105.012851 50.4259126,104.979851 C58.5389126,108.986851 67.6149126,111.487851 75.9749126,114.416851 C78.4539126,115.283851 81.4249126,116.746851 84.2109126,116.920851 C84.8149126,117.235851 85.4259126,117.526851 86.0459126,117.790851 C86.2389126,117.988851 86.4489126,118.174851 86.6879126,118.338851 C88.2069126,119.385851 89.4269126,119.736851 91.2699126,119.549851 C91.4169126,119.534851 91.5549126,119.508851 91.6949126,119.483851 C93.1099126,119.736851 94.5429126,119.867851 95.9819126,119.874851 C96.1039126,119.893851 96.2209126,119.926851 96.3449126,119.938851 C97.5009126,120.057851 98.6539126,120.050851 99.7939126,119.947851 C100.191913,120.075851 100.631913,120.151851 101.103913,120.176851 C101.235913,120.201851 101.367913,120.229851 101.499913,120.254851 C102.830913,120.519851 104.151913,120.453851 105.352913,119.750851 C105.421913,119.711851 105.486913,119.654851 105.553913,119.611851 C111.148913,117.967851 115.011913,113.081851 118.174913,108.084851 C118.535913,107.512851 118.758913,106.946851 118.875913,106.397851 C120.470913,104.537851 121.933913,102.600851 123.277913,100.592851 C124.203913,100.440851 125.135913,99.9368515 125.976913,98.9638515 C126.125913,98.7918515 126.263913,98.6178515 126.409913,98.4448515 C128.471913,97.6458515 129.474913,95.9428515 129.629913,94.1628515 C129.650913,94.1318515 129.671913,94.1008515 129.692913,94.0688515 C130.049913,93.8408515 130.401913,93.5618515 130.744913,93.2118515 L132.489913,91.4308515 C133.383913,90.5188515 133.833913,89.5288515 133.949913,88.5578515 C135.337913,86.2178515 136.445913,83.7618515 137.250913,81.1188515 C137.302913,80.9868515 137.369913,80.8658515 137.411913,80.7238515 C138.633913,76.5758515 139.318913,72.3808515 139.594913,68.0698515 C139.656913,67.1108515 139.440913,66.2958515 139.057913,65.6108515" id="Fill-9" fill="#E4C3A2"></path>
                <path d="M116.006513,113.029351 C115.945513,112.842351 115.842513,112.682351 115.696513,112.546351 C115.410513,112.284351 115.034513,112.089351 114.635513,112.107351 L114.236513,112.160351 C113.983513,112.231351 113.762513,112.360351 113.574513,112.546351 L111.899513,113.870351 C111.830513,113.894351 111.760513,113.899351 111.692513,113.932351 C110.423513,114.548351 109.153513,115.162351 107.884513,115.777351 C107.552513,115.606351 107.185513,115.508351 106.796513,115.539351 C99.7895126,116.091351 92.8295126,115.319351 86.1215126,113.219351 C85.6975126,113.088351 85.3115126,113.072351 84.9615126,113.134351 C76.2885126,109.998351 67.6905126,106.664351 59.1645126,103.146351 C58.9355126,102.487351 58.4325126,101.915351 57.5795126,101.644351 C46.7805126,98.2263515 35.2035126,91.1243515 34.0345126,78.7253515 C33.9085126,77.3813515 32.9775126,76.2253515 31.5345126,76.2253515 C31.1745126,76.2253515 30.8075126,76.3293515 30.4655126,76.4963515 C29.6235126,75.9713515 28.5145126,75.8223515 27.5925126,76.1683515 C27.2455126,76.2993515 26.9595126,76.4663515 26.6825126,76.6653515 C26.6415126,76.6623515 26.5995126,76.6533515 26.5585126,76.6543515 C26.1235126,76.6743515 25.7785126,76.8373515 25.5275126,77.0933515 C25.1875126,77.2373515 24.8645126,77.3993515 24.5745126,77.5813515 C23.9355126,77.9813515 23.3905126,78.4973515 22.9825126,79.1333515 C22.6225126,79.6903515 22.4725126,80.4853515 22.2295126,80.9473515 C22.0965126,81.2003515 22.2285126,80.9793515 22.0505126,81.1533515 C22.1385126,81.0663515 22.0425126,81.1143515 21.9905126,81.1523515 C18.9835126,80.6783515 16.5265126,78.2623515 14.4555126,76.1763515 C11.9875126,73.6903515 9.69351259,70.8983515 8.93151259,67.3973515 C8.87551259,67.1413515 8.77151259,66.9393515 8.63851259,66.7783515 C8.59451259,65.6823515 8.75151259,64.5833515 9.19151259,63.5163515 C9.69051259,62.3043515 10.6285126,61.0953515 11.9025126,60.6493515 C13.0415126,61.1943515 14.0975126,61.9283515 15.0005126,62.8503515 C15.6855126,63.5493515 16.5645126,63.3503515 17.0925126,62.8063515 C18.0155126,62.6753515 18.8865126,61.6583515 18.3335126,60.5503515 C17.2005126,58.2843515 14.6555126,57.2583515 12.2545126,57.5373515 C11.9565126,57.1013515 11.5895126,56.7463515 11.1605126,56.4673515 C10.9185126,56.0143515 10.4875126,55.6653515 9.90851259,55.6483515 C9.16051259,55.6283515 8.43451259,55.7013515 7.71851259,55.8163515 C6.72551259,55.6933515 5.71851259,55.7723515 4.71551259,56.2113515 C4.28951259,56.3973515 3.94251259,56.6413515 3.62651259,56.9103515 C3.32351259,56.7703515 2.98551259,56.7123515 2.65051259,56.7963515 C-0.748487413,57.6423515 -0.108487413,62.2443515 0.433512587,64.7683515 C0.851512587,66.7163515 1.58351259,68.5713515 2.56051259,70.2923515 C3.04251259,71.6213515 3.70851259,72.9113515 4.39551259,74.0753515 C4.65951259,74.5243515 5.13251259,74.7193515 5.61351259,74.7403515 C6.64451259,76.3043515 7.71751259,77.8393515 8.83951259,79.3393515 C9.28751259,79.9373515 10.0835126,80.3063515 10.7935126,79.9253515 C12.7235126,83.2573515 15.2315126,86.4553515 19.3055126,86.9823515 C19.5435126,87.0133515 19.7795126,87.0273515 20.0145126,87.0333515 C20.8045126,87.3643515 21.6595126,87.5333515 22.4675126,87.3933515 C22.4825126,87.4083515 22.4865126,87.4293515 22.5015126,87.4443515 C23.1195126,88.0113515 24.0075126,88.0133515 24.6235126,87.4443515 C25.6895126,86.4573515 26.3875126,85.2523515 26.8805126,83.9503515 C27.6115126,83.0103515 27.9795126,81.8503515 27.7405126,80.5943515 C27.7695126,80.4163515 27.7845126,80.2393515 27.8105126,80.0593515 C27.8275126,80.0133515 27.8405126,79.9663515 27.8585126,79.9223515 C27.9275126,79.7763515 28.0125126,79.6403515 28.0945126,79.5043515 L28.0965126,79.5043515 C28.1515126,79.4953515 28.1565126,79.4923515 28.1515126,79.4913515 C28.1645126,79.4913515 28.1795126,79.4903515 28.2265126,79.4883515 C28.3625126,79.4803515 28.4945126,79.4843515 28.6315126,79.4863515 L28.6695126,79.4863515 C28.6695126,79.4883515 28.6765126,79.4913515 28.6895126,79.4953515 C28.7775126,79.8103515 28.9775126,80.0863515 29.2415126,80.2823515 C30.2395126,86.8693515 33.5475126,92.7193515 38.6185126,97.1203515 C42.7865126,100.736351 47.6875126,103.336351 52.8305126,105.271351 C53.1555126,105.826351 53.7045126,106.260351 54.3555126,106.534351 C64.3635126,110.734351 74.4805126,114.673351 84.6945126,118.344351 C85.1025126,118.491351 85.5285126,118.478351 85.9335126,118.369351 C92.6855126,120.332351 99.7865126,121.091351 106.796513,120.539351 C107.562513,120.478351 108.260513,120.137351 108.722513,119.593351 C108.834513,119.561351 108.944513,119.518351 109.045513,119.455351 L112.045513,117.572351 C112.342513,117.385351 112.578513,117.102351 112.697513,116.769351 C112.867513,116.687351 113.036513,116.605351 113.206513,116.523351 C113.211513,116.520351 113.216513,116.515351 113.221513,116.512351 C113.443513,116.438351 113.642513,116.324351 113.810513,116.158351 L115.696513,114.668351 C115.842513,114.532351 115.945513,114.371351 116.006513,114.184351 C116.100513,114.006351 116.143513,113.813351 116.136454,113.607351 C116.143513,113.400351 116.100513,113.208351 116.006513,113.029351" id="Fill-11" fill="#C3996B"></path>
                <path d="M65.7096126,5.72066658 C64.8196126,5.71175147 64.3056126,6.41975147 64.2096126,7.22075147 C63.6776126,11.6797515 61.3556126,16.0927515 57.6776126,18.7417515 C53.8386126,21.5067515 48.8306126,22.2347515 44.4086126,20.5317515 C44.3426126,20.5047515 44.2786126,20.4937515 44.2146126,20.4777515 C43.9456126,20.2747515 43.6186126,20.1467515 43.2996126,20.1467515 C43.1566126,20.1467515 43.0266126,20.1697515 42.9016126,20.2037515 C42.9086126,20.1177515 42.9096126,20.0307515 42.9136126,19.9437515 C44.1826126,19.5357515 44.5086126,17.4337515 42.9156126,17.0857515 L41.1696126,16.7047515 C40.0876126,15.1837515 38.5926126,12.9967515 36.6726126,14.3207515 C36.2516126,14.6097515 35.9746126,15.0377515 35.7636126,15.5087515 C35.6396126,15.5797515 35.5196126,15.6637515 35.4146126,15.7867515 C34.5316126,16.8297515 34.0336126,18.1157515 34.0386126,19.4337515 C32.9626126,22.5617515 31.7736126,25.6497515 30.4586126,28.6847515 C30.3056126,29.0397515 30.2886126,29.4037515 30.3666126,29.7337515 C27.3456126,30.7407515 24.6466126,32.4397515 22.4756126,34.7627515 C22.3536126,34.6697515 22.2206126,34.5927515 22.0766126,34.5387515 C20.9956126,34.1377515 19.9396126,34.1187515 18.8176126,34.3467515 C18.7016126,34.3697515 18.5966126,34.4097515 18.4996126,34.4597515 C18.3296126,34.4657515 18.1606126,34.4817515 17.9906126,34.4987515 C17.0426126,34.0867515 15.7656126,34.6457515 15.8556126,35.7877515 C15.4256126,36.0957515 15.1936126,36.6177515 15.4586126,37.2827515 L19.7716126,48.0877515 C19.7716126,48.0897515 19.7716126,48.0907515 19.7726126,48.0927515 C19.8276126,48.3047515 19.8846126,48.5167515 19.9386126,48.7297515 C20.3606126,51.1777515 20.7846126,53.6267515 21.2076126,56.0747515 C21.3296126,56.7797515 21.9996126,57.1407515 22.6646126,57.1407515 C22.5196126,57.4177515 22.3746126,57.6947515 22.2296126,57.9697515 C21.3256126,59.6757515 23.9146126,61.1937515 24.8186126,59.4847515 C26.7086126,55.9167515 28.4346126,52.3557515 28.8796126,48.2927515 C29.2476126,44.9287515 28.7996126,41.5407515 28.2206126,38.2107515 C29.6666126,38.2587515 31.1176126,38.0617515 32.4936126,37.5907515 C34.8586126,36.7817515 36.7236126,35.2677515 38.4476126,33.4987515 C41.1676126,30.7107515 43.5256126,27.4867515 44.4396126,23.7107515 C49.4686126,25.3177515 55.2306126,24.2697515 59.4636126,21.1337515 C63.9436126,17.8147515 66.5566126,12.6987515 67.2096126,7.22075147 C67.3066126,6.40975147 66.4506126,5.72875147 65.7096126,5.72066658" id="Fill-13" fill="#C3996B"></path>
                <path d="M56.9625126,105.546851 C56.7375126,105.198851 56.4485126,105.009851 56.0665126,104.857851 C54.7275126,104.325851 53.3875126,103.793851 52.0475126,103.261851 C51.8035126,103.164851 51.4685126,103.196851 51.1875126,103.287851 C51.1665126,103.258851 51.1495126,103.227851 51.1265126,103.198851 C49.7845126,101.501851 47.7935126,100.661851 45.9125126,99.7178515 C44.0205126,98.7678515 42.2155126,97.6218515 40.5865126,96.2668515 C39.7015126,95.5298515 38.8695126,94.7408515 38.0845126,93.9128515 C38.2205126,93.4108515 38.0665126,92.8648515 37.7135126,92.4318515 C34.6785126,88.7028515 31.5465126,84.7568515 30.7085126,79.8918515 C30.5705126,79.0928515 29.5895126,78.6448515 28.8625126,78.8438515 C28.0185126,79.0758515 27.6775126,79.8878515 27.8165126,80.6888515 C28.2055126,82.9548515 29.0595126,85.0438515 30.1625126,87.0118515 C30.1365126,87.2728515 30.1715126,87.5498515 30.3065126,87.8358515 C32.1745126,91.7948515 34.9055126,95.3688515 38.2455126,98.2028515 C39.9105126,99.6158515 41.7105126,100.875851 43.6345126,101.911851 C45.5025126,102.917851 47.6475126,103.602851 49.0045126,105.319851 C49.3535126,105.760851 49.9835126,105.836851 50.5135126,105.670851 C50.7115126,105.892851 50.9515126,106.035851 51.2505126,106.154851 C52.5895126,106.686851 53.9295126,107.218851 55.2695126,107.749851 C55.6085126,107.884851 56.1235126,107.775851 56.4245126,107.599851 C56.7355126,107.416851 57.0325126,107.060851 57.1135126,106.702851 C57.2015126,106.317851 57.1825126,105.887851 56.9625126,105.546851" id="Fill-15" fill="#C3996B"></path>
                <path d="M18.5289126,62.8623515 C17.0639126,60.8893515 14.8279126,59.0933515 12.2159126,59.2883515 C9.72391259,59.4733515 7.39791259,61.4053515 7.39291259,64.0233515 C7.39291259,64.1293515 7.40591259,64.2323515 7.42791259,64.3333515 C5.91091259,66.6283515 5.73491259,69.7163515 6.98691259,72.1833515 C7.35291259,72.9063515 8.36991259,73.1133515 9.03891259,72.7213515 C9.77391259,72.2933515 9.94491259,71.3943515 9.57791259,70.6703515 C9.56391259,70.6443515 9.47791259,70.4563515 9.45891259,70.4233515 C9.41491259,70.3073515 9.37291259,70.1903515 9.33691259,70.0723515 C9.29291259,69.9313515 9.25491259,69.7893515 9.22191259,69.6453515 C9.20091259,69.5493515 9.18091259,69.4533515 9.16491259,69.3563515 C9.15591259,69.3063515 9.15391259,69.2933515 9.14991259,69.2673515 C9.16091259,69.3383515 9.13291259,68.9993515 9.13191259,68.9483515 C9.12491259,68.8003515 9.12391259,68.6533515 9.12791259,68.5053515 C9.13191259,68.3563515 9.14091259,68.2103515 9.15391259,68.0613515 C9.15791259,68.0343515 9.15691259,68.0363515 9.15791259,68.0233515 C9.16591259,67.9733515 9.17391259,67.9243515 9.18291259,67.8743515 C9.24291259,67.5583515 9.32491259,67.2483515 9.42891259,66.9443515 C9.44091259,66.9103515 9.51791259,66.7223515 9.53091259,66.6843515 C9.58291259,66.5743515 9.63491259,66.4643515 9.69291259,66.3563515 C9.82491259,66.1143515 9.97391259,65.8743515 10.1429126,65.6543515 C10.1809126,65.6133515 10.2979126,65.4783515 10.3129126,65.4633515 C10.4129126,65.3543515 10.5179126,65.2493515 10.6269126,65.1493515 C10.6279126,65.1483515 10.8199126,64.9883515 10.8419126,64.9643515 C10.9499126,64.8853515 11.0609126,64.8093515 11.1749126,64.7403515 C11.3039126,64.6603515 11.4379126,64.5853515 11.5739126,64.5153515 C11.5759126,64.5143515 11.7759126,64.4253515 11.8259126,64.4003515 C12.0939126,64.2973515 12.3709126,64.2113515 12.6519126,64.1453515 C12.7769126,64.1173515 12.9029126,64.0933515 13.0299126,64.0733515 C13.0769126,64.0703515 13.2799126,64.0493515 13.3159126,64.0463515 C13.6259126,64.0273515 13.9289126,64.0423515 14.2379126,64.0553515 C14.2999126,64.0573515 14.3309126,64.0573515 14.3499126,64.0573515 C14.3659126,64.0623515 14.3909126,64.0683515 14.4479126,64.0803515 C14.5979126,64.1103515 14.7489126,64.1383515 14.8969126,64.1763515 C15.5689126,64.3473515 15.8439126,64.4773515 16.4769126,64.9153515 C17.0179126,65.2893515 17.8499126,65.1253515 18.2949126,64.6803515 C18.7289126,64.2463515 18.9209126,63.3893515 18.5289126,62.8623515" id="Fill-17" fill="#C3996B"></path>
                <path d="M84.8034126,42.3212515 C84.4064126,40.6212515 84.0384126,38.8822515 83.4184126,37.2452515 C82.8364126,35.7102515 81.8144126,34.3582515 81.2754126,32.8242515 C80.8264126,31.5512515 79.5664126,30.7022515 78.1994126,31.0782515 C77.1424126,31.3692515 76.2914126,32.4792515 76.3514126,33.5962515 C76.5694126,33.6062515 76.7794126,33.6682515 76.9874126,33.7662515 C78.0594126,34.2742515 78.8664126,35.2642515 79.4614126,36.2612515 C80.0244126,37.2042515 80.4274126,38.2312515 80.8484126,39.2412515 C80.9814126,39.5612515 80.8684126,39.9682515 80.7144126,40.2602515 C80.5524126,40.5672515 80.2434126,40.7652515 79.9234126,40.8692515 C79.7424126,40.9272515 79.5314126,40.9252515 79.3284126,40.8852515 C79.5324126,41.6822515 79.7064126,42.4872515 79.8934126,43.2752515 C80.6694126,46.5552515 81.3374126,49.8722515 81.7574126,53.2172515 C81.9254126,54.5572515 82.7854126,55.7172515 84.2574126,55.7172515 C85.4784126,55.7172515 86.9264126,54.5662515 86.7574126,53.2172515 C86.2974126,49.5502515 85.6444126,45.9212515 84.8034126,42.3212515" id="Fill-19" fill="#E4C3A2"></path>
                <path d="M129.838513,43.4599515 C129.702513,42.2479515 129.567513,41.0349515 129.430513,39.8219515 C129.406513,39.6129515 129.278513,39.4799515 129.124513,39.4079515 C129.123513,39.2919515 129.106513,39.1769515 129.111513,39.0599515 C129.140513,38.4169515 128.140513,38.4179515 128.111513,39.0599515 C128.044513,40.5379515 128.483513,41.9569515 128.800513,43.3849515 C128.824513,43.4959515 128.844513,43.6079515 128.867513,43.7209515 C129.026513,45.1369515 129.185513,46.5529515 129.344513,47.9679515 C129.413513,48.5919515 130.340513,48.6279515 130.344513,47.9679515 C130.352513,46.4509515 130.150513,44.9419515 129.838513,43.4599515" id="Fill-21" fill="#E4C3A2"></path>
                <path d="M81.2243126,61.0332515 C79.6083126,63.8682515 76.8843126,65.8092515 74.4783126,67.9692515 C73.2183126,68.2782515 72.2973126,69.1552515 71.0403126,69.3832515 C69.7943126,69.6082515 68.3583126,69.5522515 67.0253126,69.4002515 C66.7383126,68.6452515 66.1363126,68.0032515 65.1353126,67.7062515 C63.6513126,67.2662515 62.0383126,66.8072515 60.8073126,65.8172515 C59.5813126,64.8292515 58.9973126,63.2252515 58.4533126,61.8052515 C58.2313126,61.2252515 57.8803126,60.7172515 57.4403126,60.3332515 C57.3503126,59.8822515 57.2753126,59.4522515 57.1933126,59.1212515 C56.8243126,57.6422515 56.5243126,56.1532515 56.2663126,54.6512515 C56.2443126,54.5162515 56.1933126,54.3952515 56.1473126,54.2712515 C56.1873126,53.9522515 56.1933126,53.6172515 56.1233126,53.2552515 C55.2843126,48.8742515 56.7313126,44.4732515 57.8053126,40.2602515 C58.0023126,39.4852515 57.9013126,38.8112515 57.6243126,38.2492515 C57.5663126,38.0112515 57.4823126,37.7802515 57.3443126,37.5632515 C57.1573126,37.2432515 56.8753126,36.9322515 56.5503126,36.6822515 C56.4223126,36.5792515 56.2813126,36.4912515 56.1293126,36.4112515 C56.1103126,36.4012515 56.0913126,36.3872515 56.0723126,36.3782515 C55.9303126,36.3072515 55.7763126,36.2552515 55.6163126,36.2082515 C55.5943126,36.2022515 55.5733126,36.1892515 55.5513126,36.1842515 C55.5453126,36.1832515 55.5393126,36.1822515 55.5343126,36.1822515 C55.2843126,36.1172515 55.0193126,36.0722515 54.7233126,36.0722515 C54.6063126,36.0722515 54.5043126,36.0952515 54.3943126,36.1042515 C54.3763126,36.1062515 54.3583126,36.1082515 54.3403126,36.1102515 C53.4823126,36.2082515 52.8443126,36.6162515 52.4273126,37.1862515 C52.1473126,37.5072515 51.9273126,37.8742515 51.8613126,38.2802515 C51.7763126,38.8012515 51.6913126,39.3212515 51.6073126,39.8422515 C51.5233126,40.1092515 51.5053126,40.3762515 51.5183126,40.6432515 C50.3453126,45.3412515 49.4023126,49.9662515 50.3383126,54.8502515 C50.3643126,54.9822515 50.4093126,55.0932515 50.4463126,55.2122515 C50.4153126,55.5512515 50.4213126,55.8972515 50.4813126,56.2472515 C51.0693126,59.6752515 51.5473126,64.5422515 54.1703126,67.0712515 C54.2353126,67.1332515 54.3033126,67.1732515 54.3693126,67.2272515 C54.9903126,68.3342515 55.7423126,69.3562515 56.7413126,70.1962515 C58.1603126,71.3892515 59.7883126,72.1922515 61.4993126,72.8202515 C61.5993126,74.3042515 62.9173126,75.7472515 64.4813126,75.6452515 C65.7993126,75.5592515 67.2423126,76.2002515 68.6253126,76.2132515 C70.1533126,76.2272515 71.6843126,75.9442515 73.1853126,75.6862515 C73.9913126,75.5492515 74.6173126,74.9792515 74.9903126,74.2642515 C75.1793126,74.1512515 75.3693126,74.0432515 75.5623126,73.9492515 C76.3033126,74.0072515 77.0833126,73.7652515 77.7723126,73.0942515 C80.7823126,70.1592515 84.2793126,67.7902515 86.4053126,64.0612515 C88.3213126,60.7022515 83.1383126,57.6762515 81.2243126,61.0332515" id="Fill-23" fill="#E4C3A2"></path>
            </g>
            <g id="outline" transform="translate(0.000363, 0.000027)" fill="#231F20">
                <path d="M171.048037,137.301373 C170.903037,137.431373 170.791037,137.604373 170.762037,137.835373 C169.532037,147.460373 162.428037,154.872373 155.685037,161.355373 C155.362037,161.267373 154.987037,161.335373 154.738037,161.668373 C150.649037,167.128373 148.045037,174.273373 142.171037,178.172373 C135.644037,182.507373 127.367037,181.131373 120.296037,179.075373 C116.359037,177.931373 112.502037,176.508373 108.629037,175.167373 C104.283037,173.663373 99.9390375,172.159373 95.5930375,170.655373 C87.9340375,168.004373 80.0710375,165.431373 73.3780375,160.724373 C67.2350375,156.405373 62.1390375,149.788373 61.3940375,142.178373 C61.3820375,142.089373 61.3770375,141.999373 61.3610375,141.911373 C61.3170375,141.377373 61.2910375,140.839373 61.2910375,140.296373 C61.2890375,139.481373 60.3220375,139.298373 59.8720375,139.737373 C59.3970375,139.859373 58.9960375,140.377373 59.3060375,140.940373 C59.5340375,141.355373 59.6710375,141.793373 59.7480375,142.239373 C59.7650375,142.419373 59.7810375,142.600373 59.8030375,142.780373 C59.8690375,144.188373 59.2890375,145.624373 58.2980375,146.660373 C57.4490375,147.548373 56.3580375,148.058373 55.1930375,148.285373 C54.8830375,148.078373 54.5220375,147.958373 54.1360375,147.986373 C50.5760375,148.237373 47.9100375,145.011373 45.7250375,142.643373 C42.8610375,139.538373 40.1360375,136.303373 37.5830375,132.937373 C37.3710375,132.657373 37.1110375,132.428373 36.8260375,132.257373 C36.7140375,132.065373 36.5930375,131.876373 36.4830375,131.682373 C36.4770375,131.670373 36.4710375,131.657373 36.4650375,131.645373 C36.4570375,131.630373 36.4450375,131.618373 36.4380375,131.604373 C35.0860375,129.205373 33.9880375,126.684373 33.5090375,123.954373 C33.2800375,122.650373 33.2600375,121.277373 33.5140375,119.964373 C33.6400375,119.847373 33.7590375,119.715373 33.8640375,119.553373 C34.9280375,117.910373 36.6930375,116.824373 38.5940375,116.452373 C39.3820375,116.601373 40.1800375,116.559373 40.9350375,116.362373 C41.3290375,116.410373 41.7200375,116.489373 42.1030375,116.606373 C43.9480375,117.164373 45.7140375,118.550373 47.1940375,119.760373 C48.7970375,121.071373 50.1480375,122.532373 51.0010375,124.437373 C51.3430375,125.199373 52.2750375,125.506373 53.0780375,125.376373 C53.3590375,125.440373 53.6350375,125.447373 53.8970375,125.406373 C54.0600375,125.405373 54.2130375,125.364373 54.3440375,125.280373 C54.8960375,125.061373 55.3390375,124.609373 55.5370375,123.979373 C55.8910375,122.854373 56.0100375,121.742373 55.9530375,120.649373 C56.0120375,120.457373 56.0690375,120.265373 56.1270375,120.073373 C56.2280375,119.739373 56.0620375,119.357373 55.7710375,119.168373 C55.5670375,118.087373 55.2130375,117.029373 54.7680375,115.998373 C53.4950375,108.974373 50.8120375,102.246373 46.8590375,96.2873731 L48.4810375,96.9053731 C49.7570375,97.3923731 51.0670375,98.0363731 52.4230375,98.2563731 C53.5470375,98.4383731 54.5970375,98.1773731 55.4130375,97.5543731 C56.1260375,97.8803731 56.9750375,97.9113731 57.6540375,97.4473731 C59.3020375,96.3203731 60.7300375,94.9913731 61.9410375,93.4473731 C62.3570375,92.9963731 62.7220375,92.4993731 63.0080375,91.9483731 C63.1160375,91.7393731 63.1870375,91.5353731 63.2390375,91.3333731 C64.3070375,89.6293731 65.1590375,87.7883731 65.7710375,85.8703731 C68.4620375,83.4793731 69.2830375,79.5773731 69.2130375,75.9163731 C71.9840375,79.2363731 76.0610375,81.3893731 80.3880375,81.8653731 C85.9850375,82.4823731 91.3790375,79.8413731 94.7520375,75.4133731 C95.7050375,74.1623731 96.4520375,72.7873731 97.0060375,71.3393731 C97.2960375,70.8223731 97.5730375,70.3003731 97.8360375,69.7723731 C100.056037,73.4473731 103.577037,76.4083731 107.826037,77.3073731 C112.888037,78.3763731 118.003037,75.9933731 120.513037,71.4603731 C121.058037,70.4773731 121.430037,69.4193731 121.635037,68.3363731 C121.975037,70.2253731 122.573037,71.8633731 124.066037,73.3573731 C124.710037,74.0003731 125.528037,74.5723731 126.420037,75.0223731 C127.913037,76.3923731 129.777037,77.2943731 132.152037,77.3663731 C135.027037,77.4533731 137.476037,75.6973731 138.861037,73.2643731 C139.916037,71.4103731 140.303037,69.3523731 140.423037,67.2593731 C142.500037,70.3293731 146.123037,72.3843731 149.886037,72.1333731 C153.797037,71.8713731 157.180037,69.3463731 158.838037,65.9253731 C159.652037,66.3673731 160.535037,66.6723731 161.460037,66.8163731 C161.542037,66.8563731 161.619037,66.9033731 161.703037,66.9393731 C157.413037,72.3223731 157.718037,80.2833731 159.082037,86.6873731 C160.686037,94.2113731 164.127037,101.169373 166.941037,108.282373 C168.562037,112.383373 169.990037,116.567373 170.791037,120.912373 C170.808037,121.002373 170.847037,121.067373 170.882037,121.135373 C171.469037,126.504373 171.523037,131.921373 171.048037,137.301373 M117.882037,188.751373 C117.119037,189.518373 115.901037,189.898373 114.875037,190.154373 C113.778037,190.428373 112.517037,190.557373 111.457037,190.072373 C110.337037,189.559373 109.864037,188.361373 109.106037,187.470373 C108.765037,187.069373 108.369037,186.779373 107.938037,186.487373 C107.282037,186.044373 107.352037,185.601373 107.330037,184.852373 C107.249037,182.051373 107.168037,179.251373 107.087037,176.451373 C110.570037,177.657373 114.060037,178.844373 117.567037,179.961373 C117.560037,180.058373 117.566037,180.160373 117.602037,180.273373 C118.074037,181.733373 118.402037,183.233373 118.522037,184.764373 C118.619037,186.021373 118.859037,187.769373 117.882037,188.751373 M106.455037,3.60837308 C105.752037,4.13737308 104.931037,4.57737308 104.051037,4.90437308 C104.806037,4.40037308 105.612037,3.96437308 106.455037,3.60837308 M136.794037,73.3573731 C136.819037,73.3293731 136.843037,73.2973731 136.868037,73.2693731 C135.813037,74.6563731 134.326037,75.6133731 132.543037,75.6973731 C134.146037,75.3233731 135.663037,74.5883731 136.794037,73.3573731 M143.578037,68.3323731 C142.595037,67.5003731 141.774037,66.4743731 141.193037,65.3213731 C141.915037,66.3833731 142.714037,67.3923731 143.578037,68.3323731 M171.500037,116.650373 C167.988037,103.726373 159.595037,91.9353731 159.855037,78.2163731 C159.928037,74.3573731 160.855037,70.3463731 163.479037,67.4203731 C163.912037,67.4743731 164.351037,67.4883731 164.785037,67.4473731 C168.154037,67.1273731 170.735037,64.4063731 171.951037,61.4083731 C173.415037,57.8023731 173.480037,53.4933731 173.308037,49.6553731 C173.183037,46.8943731 172.731037,44.0713731 171.681037,41.4963731 C171.299037,40.1353731 170.581037,38.9183731 169.652037,37.8963731 C168.009037,35.7183731 165.790037,33.9653731 163.203037,33.1273731 C163.191037,33.0943731 163.175037,33.0633731 163.163037,33.0303731 C163.603037,30.8793731 163.900037,28.5483731 162.815037,26.5503731 C162.421037,25.8263731 161.880037,25.2273731 161.242037,24.7863731 C160.751037,22.7873731 159.943037,21.0033731 158.540037,19.5383731 C158.139037,18.6723731 157.572037,17.8843731 156.819037,17.2423731 C155.544037,16.1563731 153.875037,15.6243731 152.240037,15.7153731 C151.743037,14.6103731 151.034037,13.5623731 150.082037,12.6103731 C146.842037,9.36937308 140.690037,8.10037308 136.752037,10.8903731 C136.459037,11.0973731 136.164037,11.3123731 135.867037,11.5263731 C135.126037,8.77637308 133.188037,6.50937308 130.702037,5.10137308 C130.508037,4.94737308 130.321037,4.78437308 130.113037,4.64437308 C128.040037,3.23337308 125.335037,2.66337308 122.907037,3.25737308 C122.338037,2.69937308 121.706037,2.20837308 121.028037,1.78637308 C120.528037,1.19137308 119.855037,0.718373076 119.098037,0.465373076 C118.287037,0.193373076 117.434037,0.128373076 116.579037,0.142373076 C114.638037,-0.159626924 112.614037,0.0103730755 110.738037,0.733373076 C110.551037,0.764373076 110.361037,0.783373076 110.175037,0.818373076 C106.694037,1.46037308 103.160037,2.96337308 100.771037,5.53337308 C99.3160375,5.55137308 97.9230375,5.20037308 96.8580375,4.36637308 C93.6810375,1.87837308 90.3700375,0.880373076 87.0850375,1.50737308 C83.6390375,1.82237308 81.1680375,4.16437308 78.7220375,6.46837308 C77.8330375,7.19337308 76.9440375,7.91737308 76.0550375,8.64337308 C73.5070375,7.21337308 70.9730375,5.72537308 68.3440375,4.46437308 C65.8210375,3.25437308 62.9880375,2.41237308 60.2250375,3.31237308 C54.9220375,5.03937308 52.9680375,10.5703731 51.7070375,15.5123731 C47.7110375,13.1143731 42.7210375,12.4673731 38.2410375,13.7993731 C36.7450375,14.2443731 35.3520375,14.9343731 34.0690375,15.7843731 C31.8060375,16.8083731 29.7670375,18.3633731 28.1490375,20.5413731 C25.7330375,23.7953731 24.7340375,27.7093731 25.1940375,31.4553731 C24.4950375,31.7363731 23.6740375,31.8903731 23.1370375,32.1003731 C22.0380375,32.5303731 20.9800375,33.0583731 19.9860375,33.6973731 C17.4970375,35.2993731 15.3890375,37.5183731 13.9200375,40.0943731 C12.6110375,41.6703731 11.5770375,43.5043731 10.9540375,45.6723731 C9.49003748,50.7713731 10.7250375,55.6583731 13.5080375,59.7203731 C10.0690375,60.5813731 6.85103748,62.3083731 4.44803748,64.9423731 C2.61803748,66.9473731 1.40703748,69.3963731 0.906037483,71.9893731 C-0.576962517,75.9383731 -0.061962517,80.5903731 3.26203748,83.6423731 C3.43803748,83.8033731 3.62203748,83.9473731 3.80503748,84.0973731 C0.435037483,85.9423731 -0.494962517,90.8763731 0.231037483,94.4193731 C0.947037483,97.9243731 3.11703748,101.029373 6.09203748,102.942373 C5.63603748,103.463373 5.22503748,104.042373 4.86603748,104.682373 C4.85103748,104.704373 4.83203748,104.724373 4.81703748,104.747373 C4.49703748,105.221373 4.28103748,105.737373 4.13703748,106.271373 C2.41103748,110.986373 3.86003748,117.300373 8.74803748,119.689373 C9.89003748,120.246373 10.0040375,120.068373 10.4610375,120.779373 C11.5080375,122.411373 12.7790375,123.585373 14.1590375,124.409373 C13.1800375,125.538373 12.6870375,127.119373 13.0820375,128.898373 C13.0930375,128.946373 13.1070375,128.993373 13.1170375,129.042373 C13.0820375,129.344373 13.0450375,129.646373 13.0310375,129.948373 C12.8630375,133.783373 14.5130375,137.359373 16.4180375,140.587373 C18.4940375,144.105373 20.5870375,147.739373 23.0110375,151.030373 C25.1950375,153.994373 28.1280375,156.656373 31.9200375,157.149373 C34.9430375,157.541373 38.1960375,156.098373 39.5590375,153.386373 C40.2090375,153.943373 40.9260375,154.427373 41.6870375,154.825373 C42.6950375,156.246373 44.2090375,157.451373 45.4230375,158.396373 C47.6720375,160.143373 50.2610375,161.517373 53.0580375,162.126373 C58.1560375,163.237373 63.8290375,161.589373 66.8690375,157.201373 C67.6610375,158.062373 68.4900375,158.887373 69.3630375,159.655373 C75.6900375,165.208373 83.7280375,168.259373 91.5650375,170.998373 C96.1840375,172.613373 100.798037,174.263373 105.424037,175.877373 C105.503037,178.625373 105.582037,181.372373 105.662037,184.120373 C105.695037,185.280373 105.532037,186.633373 106.498037,187.473373 C106.885037,187.808373 107.358037,188.019373 107.717037,188.387373 C108.115037,188.794373 108.400037,189.290373 108.730037,189.750373 C110.113037,191.680373 112.129037,192.275373 114.429037,191.920373 C116.415037,191.614373 118.996037,190.735373 119.847037,188.737373 C120.400037,187.439373 120.271037,185.852373 120.145037,184.482373 C120.021037,183.139373 119.764037,181.819373 119.393037,180.526373 C126.177037,182.555373 133.752037,183.937373 140.423037,181.001373 C147.728037,177.785373 150.851037,170.200373 155.118037,163.963373 C155.269037,163.941373 155.420037,163.887373 155.558037,163.755373 C162.294037,157.324373 169.427037,150.177373 171.790037,140.969373 C172.084037,140.866373 172.338037,140.626373 172.385037,140.244373 C173.334037,132.581373 173.194037,124.848373 172.022037,117.218373 C171.969037,116.870373 171.752037,116.700373 171.500037,116.650373" id="Fill-28"></path>
                <path d="M107.989437,126.259373 C103.806437,130.134373 97.9514375,128.802373 94.4364375,124.733373 C91.2164375,121.004373 89.8524375,115.731373 89.8444088,110.890373 C89.8364375,105.616373 91.4994375,100.357373 94.6134375,96.0943731 C94.9614375,96.1033731 95.3014375,96.1423731 95.6294375,96.2093731 C95.6534375,96.1633731 95.6814375,96.1223731 95.7004375,96.0713731 C96.9544375,92.6013731 102.031437,92.1983731 105.049437,93.0103731 C107.931437,93.7843731 110.102437,95.6823731 111.475437,98.1833731 C111.322437,98.3763731 111.252437,98.6223731 111.308437,98.8863731 C110.832437,98.6783731 110.332437,98.5273731 109.823437,98.4543731 C106.375437,97.9593731 103.413437,100.688373 101.829437,103.471373 C99.9764375,106.727373 99.0984375,110.964373 100.468437,114.559373 C101.615437,117.567373 104.218437,120.095373 107.500437,120.501373 C109.321437,120.727373 111.206437,120.168373 112.671437,119.079373 C111.600437,121.793373 110.064437,124.335373 107.989437,126.259373 M113.296437,114.580373 C112.889437,116.837373 110.832437,118.436373 108.568437,118.552373 C106.135437,118.676373 103.982437,116.992373 102.841437,114.954373 C101.389437,112.363373 101.634437,109.205373 102.620437,106.498373 C103.479437,104.140373 105.115437,101.563373 107.589437,100.674373 C108.883437,100.209373 110.203437,100.359373 111.326437,101.168373 C112.381437,101.930373 113.043437,103.123373 112.635437,104.413373 C112.343437,105.334373 113.352437,105.861373 114.041437,105.552373 C114.586437,108.093373 114.641437,110.743373 114.232437,113.349373 C114.206437,113.521373 114.164437,113.695373 114.134437,113.867373 C113.748437,113.867373 113.386437,114.075373 113.296437,114.580373 M114.737437,101.110373 C113.995437,98.2833731 112.692437,95.5393731 110.432437,93.6253731 C108.136437,91.6813731 105.139437,90.6013731 102.128437,90.6443731 C99.4104375,90.6843731 96.4364375,91.6463731 94.7464375,93.7913731 C94.4114375,93.5973731 93.9954375,93.6083731 93.6764375,94.0133731 C86.8834375,102.656373 85.4214375,116.280373 92.3644375,125.333373 C95.7214375,129.711373 101.752437,132.265373 106.934437,129.473373 C111.658437,126.929373 114.432437,121.163373 115.690437,116.174373 C116.948437,111.186373 116.786437,105.808373 114.737437,101.110373" id="Fill-30"></path>
                <path d="M140.432737,129.456673 C138.391737,126.738673 136.297737,124.060673 134.244737,121.352673 C132.258737,118.734673 129.859737,115.184673 131.727737,111.862673 C132.247737,110.937673 130.825737,110.106673 130.305737,111.031673 C128.647737,113.978673 129.589737,117.358673 131.302737,120.049673 C133.386737,123.321673 135.986737,126.324673 138.338737,129.405673 C139.682737,131.164673 144.348737,137.403673 139.753737,138.167673 C137.807737,138.490673 135.778737,137.671673 133.995737,136.990673 C132.136737,136.281673 130.337737,135.436673 128.586737,134.494673 C127.653737,133.991673 126.821737,135.412673 127.754737,135.916673 C130.533737,137.412673 133.559737,138.864673 136.648737,139.583673 C139.066737,140.146673 142.547737,140.011673 143.203737,137.024673 C143.811737,134.263673 142.003737,131.548673 140.432737,129.456673" id="Fill-32"></path>
                <path d="M156.854637,85.1412731 C152.782637,81.6342731 147.320637,80.9302731 142.150637,80.5792731 C141.091637,80.5072731 141.096637,82.1552731 142.150637,82.2262731 C146.838637,82.5442731 151.985637,83.1152731 155.689637,86.3062731 C156.489637,86.9952731 157.659637,85.8342731 156.854637,85.1412731" id="Fill-34"></path>
                <path d="M160.882937,111.060173 C160.557937,110.614173 159.884937,110.368173 159.337937,110.831173 C156.962937,112.845173 153.233937,111.169173 152.151937,108.574173 C150.902937,105.578173 152.060937,101.603173 154.908937,99.9771731 C156.150937,99.2681731 157.762937,98.9611731 158.832937,100.111173 C159.114937,100.414173 159.447937,100.457173 159.746937,100.368173 C161.001937,103.658173 161.444937,107.468173 160.882937,111.060173 M156.852937,119.619173 C154.481937,122.081173 150.555937,123.728173 148.005937,120.557173 C146.751937,118.998173 146.021937,116.943173 145.301937,115.106173 C144.506937,113.076173 143.821937,111.007173 143.224937,108.911173 C143.223937,108.907173 143.223937,108.902173 143.222937,108.898173 C142.878937,105.951173 142.774937,102.864173 143.128937,99.8681731 C143.237937,99.7191731 143.320937,99.5441731 143.325937,99.3121731 C143.333937,98.9881731 143.342937,98.6601731 143.355937,98.3311731 C143.393937,98.1131731 143.425937,97.8931731 143.469937,97.6771731 C143.442937,97.6701731 143.417937,97.6591731 143.390937,97.6521731 C143.506937,95.6761731 143.831937,93.6871731 144.926937,92.0121731 C146.161937,90.1231731 148.214937,89.0671731 150.451937,89.6871731 C152.637937,90.2911731 154.669937,91.8421731 156.197937,93.4801731 C157.300937,94.6621731 158.179937,96.0651731 158.648937,97.6031731 C155.628937,96.4141731 151.815937,99.1221731 150.577937,101.924173 C148.755937,106.052173 149.758937,111.432173 154.297937,113.207173 C156.426937,114.040173 158.856937,113.770173 160.640937,112.327173 C160.019937,115.064173 158.785937,117.612173 156.852937,119.619173 M160.671937,97.5061731 C160.148937,95.4691731 159.072937,93.6321731 157.611937,92.0661731 C155.752937,90.0741731 153.128937,88.1301731 150.404937,87.6231731 C147.634937,87.1071731 145.126937,88.3631731 143.492937,90.5831731 C141.652937,93.0861731 141.391937,96.3081731 141.325937,99.3121731 C141.321937,99.5161731 141.380937,99.6761731 141.462937,99.8161731 C141.174937,102.305173 141.187937,104.847173 141.411937,107.323173 C141.446937,107.706173 141.490937,108.093173 141.530937,108.478173 C141.303937,108.695173 141.170937,109.006173 141.283937,109.403173 C141.478937,110.086173 141.681937,110.779173 141.890937,111.474173 C141.917937,111.667173 141.938937,111.862173 141.967937,112.055173 C141.983937,112.007173 142.006937,111.962173 142.024937,111.915173 C142.935937,114.888173 144.027937,117.899173 145.578937,120.526173 C147.180937,123.239173 149.877937,124.901173 153.070937,124.181173 C159.642937,122.700173 162.714937,114.832173 163.074937,108.836173 C163.310937,104.914173 162.462937,100.998173 160.671937,97.5061731" id="Fill-36"></path>
                <path d="M132.179837,161.614873 C130.124837,158.280873 130.565837,153.695873 133.010837,150.681873 C133.383837,150.659873 133.739837,150.444873 133.870837,149.978873 C134.010837,149.490873 134.294837,149.127873 134.673837,148.870873 C136.662837,153.050873 135.643837,158.510873 132.179837,161.614873 M135.986837,147.074873 C135.754837,146.683873 135.290837,146.508873 134.857837,146.614873 C133.825837,146.866873 132.977837,147.502873 132.431837,148.364873 C128.170837,152.291873 127.752837,159.237873 131.273837,163.761873 C131.518837,164.077873 132.161837,164.155873 132.484837,163.918873 C137.622837,160.137873 139.266837,152.597873 135.986837,147.074873" id="Fill-38"></path>
                <path d="M98.2442375,77.2837731 C96.7562375,84.7207731 90.3402375,90.9117731 82.7652375,91.8867731 C82.2252375,91.9557731 81.7712375,92.2967731 81.765212,92.8867731 C81.7612375,93.3737731 82.2292375,93.9557731 82.7652375,93.8867731 C91.1962375,92.8027731 98.4942375,86.2017731 100.172237,77.8147731 C100.424237,76.5577731 98.4962375,76.0197731 98.2442375,77.2837731" id="Fill-40"></path>
                <path d="M114.649537,108.171473 C114.687537,107.402473 114.611537,106.637473 114.350537,105.903473 C114.069537,105.115473 113.615537,104.382473 113.017537,103.809473 C113.013537,103.792473 113.010537,103.775473 113.006537,103.759473 C112.960537,103.567473 112.905537,103.377473 112.845537,103.188473 C112.833537,103.149473 112.820537,103.109473 112.806537,103.069473 C112.751537,102.901473 112.705537,102.733473 112.639537,102.567473 C112.613537,102.502473 112.571537,102.447473 112.536537,102.388473 C112.531537,102.376473 112.527537,102.363473 112.522537,102.352473 C112.086537,101.389473 111.294537,100.036473 110.099537,100.020334 C109.690537,100.014473 109.342537,100.202473 109.089537,100.482473 C108.860537,100.407473 108.598537,100.413473 108.327537,100.567473 C108.297537,100.583473 108.270537,100.603473 108.242537,100.620473 C108.012537,100.478473 107.760537,100.447473 107.512537,100.511473 C107.494537,100.515473 107.475537,100.518473 107.457537,100.524473 C107.302537,100.570473 107.152537,100.640473 107.017537,100.746473 C106.939537,100.809473 106.869537,100.880473 106.793537,100.943473 C106.437537,100.652473 105.926537,100.574473 105.522537,101.013473 C103.155537,103.583473 101.256537,106.851473 101.249514,110.439473 C101.242537,113.598473 102.796537,116.810473 105.626537,118.350473 C105.917537,118.508473 106.197537,118.509473 106.437537,118.416473 C107.015537,118.942473 107.845537,119.174473 108.603537,118.717473 C108.674537,118.674473 108.712537,118.616473 108.767537,118.565473 C109.772537,118.592473 110.739537,118.147473 111.485537,117.457473 C111.837537,117.678473 112.291537,117.692473 112.627537,117.289473 C114.726537,114.772473 115.516537,111.325473 114.649537,108.171473" id="Fill-42"></path>
                <path d="M158.921037,111.176373 C158.953037,111.248373 158.986037,111.321373 159.020037,111.394373 C159.161037,111.706373 159.459037,111.853373 159.775037,111.871373 C159.769037,111.876373 159.759037,111.885373 159.755037,111.889373 C159.748037,111.896373 159.740037,111.902373 159.733037,111.908373 C159.721037,111.913373 159.707037,111.908373 159.693037,111.913373 C159.518037,111.980373 159.340037,112.039373 159.157037,112.087373 C159.082037,112.107373 159.006037,112.124373 158.930037,112.140373 C158.929037,112.141373 158.923037,112.142373 158.922037,112.142373 C158.827037,112.123373 158.734037,112.103373 158.642037,112.075373 C158.593037,112.061373 158.544037,112.044373 158.496037,112.028373 C158.471037,112.015373 158.445037,112.001373 158.420037,111.988373 C158.620037,111.747373 158.795037,111.482373 158.921037,111.176373 M161.432037,110.248373 C161.294037,110.216373 161.147037,110.221373 161.001037,110.247373 C161.253037,108.654373 161.322037,107.039373 161.183037,105.441373 C161.230037,105.278373 161.241037,105.102373 161.192037,104.922373 C161.155037,104.790373 161.109037,104.661373 161.069037,104.530373 C160.850037,102.908373 160.435037,101.313373 159.796037,99.7903731 C159.587037,99.2923731 159.134037,98.9353731 158.566037,99.0913731 C158.526037,99.1023731 158.487037,99.1213731 158.449037,99.1383731 C158.600037,98.8363731 158.602037,98.4503731 158.443037,98.1723731 C158.151037,97.6583731 157.567037,97.5973731 157.075037,97.8133731 C155.383037,98.5583731 153.971037,99.9643731 153.179037,101.648373 C151.622037,103.193373 150.901037,105.533373 151.425037,107.696373 C151.495037,107.986373 151.663037,108.156373 151.860037,108.266373 C151.896037,108.400373 151.944037,108.530373 151.987037,108.661373 C151.762037,108.909373 151.642037,109.253373 151.743037,109.587373 C152.462037,111.947373 154.643037,113.695373 157.037037,114.117373 C157.739037,114.427373 158.532037,114.529373 159.322037,114.364373 C159.694037,114.285373 160.050037,114.134373 160.379037,113.935373 C160.810037,113.767373 161.213037,113.506373 161.509037,113.155373 C161.678037,112.953373 161.782037,112.695373 161.792037,112.437373 C161.951037,112.133373 162.068037,111.811373 162.131037,111.478373 C162.226037,110.965373 161.989037,110.375373 161.432037,110.248373" id="Fill-44"></path>
            </g>
        </g>
    </g>
</svg>