<svg width="500" height="600" xmlns="http://www.w3.org/2000/svg"><g fill="none" fill-rule="evenodd"><path d="M267.832 174.341c0 14.161-6.524 25.641-14.572 25.641-8.049 0-14.573-11.48-14.573-25.64 0-14.162 6.524-25.642 14.573-25.642 8.048 0 14.572 11.48 14.572 25.641m48.708-4.156c0 11.554-5.752 20.92-12.846 20.92s-12.845-9.366-12.845-20.92c0-11.554 5.751-20.919 12.846-20.919 7.094 0 12.846 9.365 12.846 20.92" fill="#FEFEFE"/><path d="M272.17 247.037a5.211 5.211 0 00-.937-1.817 6.597 6.597 0 00-.168-.44c-.187-.424-.557-.643-.965-.706a8.983 8.983 0 00-.932-.656c-1.479-.908-3.162-1.535-4.765-2.186-.615-.25-1.282-.59-1.96-.684-.405-.455-1.166-.581-1.695-.348-.678.298-1.068 1.032-.868 1.77.056.204.092.409.137.614a5.26 5.26 0 00-.047.31c-.238 2.098-.097 4.22.255 6.296.06.357.294.638.594.828l.007.04h-.015a5.045 5.045 0 003.44 3.642 4.823 4.823 0 002.705-.015c.57.519 1.574.62 2.137.02a7.175 7.175 0 001.283-1.943c.262-.051.518-.155.735-.36 1.178-1.112 1.48-2.84 1.06-4.365" fill="#E4C3A2"/><path d="M263.45 251.034c.41-.27.712-.701.65-1.21l-.633-5.25c-.041-.337-.08-.672-.132-1.003.085-.09.165-.19.234-.307.365-.616.25-1.426-.161-1.981a1.673 1.673 0 00-2.153-.472c-.01.006-.016.014-.026.02-.141-.036-.28-.077-.433-.096-.585-.072-1.355.513-1.447 1.1-.582 3.73-.057 7.445 1.572 10.854.348.73 1.394.923 2.05.538.75-.437.89-1.318.54-2.052-.022-.045-.04-.095-.06-.141" fill="#C3996B"/><path d="M297.07 180.094a16.221 16.221 0 01-.74-2.219c-1.052-4.26-2.046-8.9-1.44-13.222.21-1.508.539-3.008.983-4.468.15-.62.333-1.23.558-1.82a1.77 1.77 0 01-.033-.357c.028-1.694.727-3.389 2.284-4.22a4.95 4.95 0 01.45-.21c.346-.459.715-.902 1.109-1.328 1.2-1.298 2.894-.393 3.309.916a4.32 4.32 0 001.155-.662c.13.04.26.08.387.126.047.017.093.038.14.054.096.283.187.566.29.848.189.011.377.044.562.07.126.017.247.051.365.097.268.11.557.213.802.375.302.18.544.42.723.723.069.161.136.322.203.483.04.15.055.301.06.452 1.99 1.295 3.426 3.534 3.953 5.854.064.082.132.162.173.26.469 1.103 1.027 2.238 1.516 3.396.317.973.618 1.952.882 2.94a.502.502 0 00.134.212c.279 1.44.24 2.9-.406 4.362.034.205.06.41.084.614a2.376 2.376 0 01.008.433 3.15 3.15 0 01-.02.901 19.134 19.134 0 01-.774 3.253c-.004 2.411-.237 2.49-1.145 4.594.072.238-.814.86-.852 1.121-.16 1.094-.908 1.004-1.762 1.693-1.627 1.312-2.764 2.901-4.83 2.78-1.931-.114-4.123-.78-5.125-2.582a1.477 1.477 0 01-.135-.352m-31.983-7.719c-.155 2.717-.98 5.471-2.251 7.927.013.093.029.187.028.28-.003.414-.033.827-.074 1.24.334.473.473 1.083.299 1.67-.39 1.321-1.036 2.577-1.841 3.73-.094.2-.187.401-.286.597-1.05 2.073-2.803 4.307-5.212 4.791a2.378 2.378 0 01-.94-.005c-1.714.747-3.574 1.075-5.47.597-.571-.143-.99-.53-1.231-1.012-2.944-.813-5.64-2.445-7.665-4.844-.621-.736-.752-1.663-.29-2.455-1.407-2.502-2.213-5.4-2.643-8.219-.966-2.765-1.126-5.675-.265-8.613.019-.066.045-.13.065-.197.316-2.84 1.02-5.63 2.225-8.163.457-.962 1.309-1.175 2.08-.94.199-.378.398-.757.588-1.136.228-.45.646-.746 1.116-.886.285-.502.6-.984.928-1.453a7.064 7.064 0 01.894-1.688c1.549-2.104 3.945-3.504 6.589-3.567a6.523 6.523 0 011.587.173c.47-.037.979-.084 1.127.13.085.122.177.217.265.327a7.126 7.126 0 012.4 1.842c.44.217.9.43 1.368.658.012-.004.025-.012.037-.015.36-.099.693-.02 1.02.134 1.072.508 1.879 1.498 2.475 2.495.562.942.965 1.97 1.386 2.98.133.32.02.727-.133 1.02-.06.112-.156.196-.25.281.083.204.166.41.245.614.049.024.105.042.15.07.49.286.723.698.928 1.205.582 1.436.714 3.052.769 4.587.052 1.445-.004 2.894.102 4.338a1.64 1.64 0 01-.207.908c.06.191.099.39.087.6m56.519 12.746a4.794 4.794 0 00-.21-1.25 27.284 27.284 0 00-.19-5.389c-.295-2.185-.42-5.322-2.195-6.875-.032-.027-.066-.046-.097-.072a60.415 60.415 0 00-1.884-6.37c-.291-.814-.782-1.398-1.37-1.787-.698-2.337-1.431-4.663-2.273-6.949a3.59 3.59 0 00-1.016-1.48c-.861-2.325-1.708-4.662-2.036-7.128-.314-2.354-.69-4.48-1.525-6.717-.025-.067-.062-.12-.09-.186.106-1.982.249-3.963.476-5.938.025-.213.014-.42-.015-.624.125-.738.002-1.387-.291-1.929a38.502 38.502 0 011.623-3.144c.027-.038.057-.073.085-.112l1.625-2.373c3.283-4.79-3.412-9.324-7.42-6.324a4.84 4.84 0 00-.485.354c-1.998-.08-4.02.976-4.818 3.53l-.295.942c-.241.084-.48.195-.715.336-1.025-3.997-6.67-6.246-8.934-1.6-.017.032-.032.067-.048.1-1.881-.242-3.857.447-4.842 2.358a94.264 94.264 0 00-1.787 3.678 5.512 5.512 0 00-1.807.024c.439-2.435-.645-4.257-2.256-5.199-2.357-3.054-8.692-1.947-9.131 3.11-.023.265-.052.53-.077.795-.09-.162-.175-.327-.28-.483l-.071-.519c-.344-2.514-3.872-4.362-6.151-3.492a57.984 57.984 0 00-3.013 1.252c-.524-3.123-3.681-5.629-7.228-3.538-.86.508-1.69 1.053-2.526 1.59-1.232-.056-2.504.341-3.582 1.372l-7.295 6.972c-.042-.014-.085-.02-.127-.032.513-4.962-6.412-6.866-9.355-2.775a94.326 94.326 0 00-3.432 5.133c-.447-2.73-3.507-4.068-6.112-3.599-2.427-.825-5.411.012-6.366 3.24a245.226 245.226 0 01-1.35 4.396c-.13.17-.254.35-.368.545a139.97 139.97 0 01-5.372 8.683l-.321-1.38c-1.357-5.748-9.433-4.062-9.821 1.33-.01.122-.012.244-.02.367-1.217.768-2.145 2.112-2.333 4.056-.225 2.336.182 4.806 1.129 6.9a58.399 58.399 0 002.73 8.744c.008.04.014.077.023.115l.02-.008c.16.4.314.801.484 1.202.624 1.477 1.67 2.235 2.838 2.48.78 4.06 1.76 8.084 2.958 12.066a5.21 5.21 0 00-1.505.523c-.352.191-.706.383-1.066.561.065-.04-.02-.022-.167.026a6.075 6.075 0 00-.41-.307c-1.758-3.038-4.066-5.75-6.858-7.924-1.18-.918-2.587-1.453-3.96-1.397a5.315 5.315 0 00-1.13-.117c-2.525.01-4.56 1.194-5.695 3.465-1.32 2.64-.38 5.252.93 7.647.325 3.71 3.05 6.774 5.336 9.611 2.673 3.316 5.67 6.447 8.976 9.14 2.968 2.418 7.127 3.403 9.878.05 1.704-2.077 1.553-4.012.81-6.454l-.028-.093c.049.001.095.007.145.007.314 0 .609-.03.893-.076.46 4.885 2.668 9.691 5.187 14.177.515.92 1.179 1.544 1.913 1.935 1.406 2.21 3.424 3.661 5.619 5.396 1.175.928 2.323 1.982 3.637 2.711 1.113.62 2.623.8 3.344 1.356.715.553 1.58.767 2.458.734 8.113 4.007 17.189 6.508 25.549 9.437 2.479.867 5.45 2.33 8.236 2.504.604.315 1.215.606 1.835.87.193.198.403.384.642.548 1.519 1.047 2.739 1.398 4.582 1.211.147-.015.285-.04.425-.066 1.415.253 2.848.384 4.287.391.122.02.239.052.363.064 1.156.12 2.309.112 3.449.01.398.127.838.203 1.31.228l.396.078c1.33.265 2.652.2 3.853-.504.069-.039.134-.096.2-.139 5.596-1.644 9.459-6.53 12.622-11.527a5.168 5.168 0 00.7-1.687 61.181 61.181 0 004.403-5.805c.926-.152 1.858-.656 2.699-1.629.149-.172.287-.346.433-.519 2.062-.799 3.065-2.502 3.22-4.282l.063-.094a5.945 5.945 0 001.052-.857l1.745-1.78c.894-.913 1.344-1.903 1.46-2.874a33.79 33.79 0 003.3-7.439c.053-.132.12-.253.162-.395 1.222-4.148 1.907-8.343 2.183-12.654.062-.959-.154-1.774-.537-2.459" fill="#E4C3A2"/><path d="M301.422 237.658a1.127 1.127 0 00-.31-.483c-.286-.262-.662-.457-1.06-.44l-.4.054c-.253.07-.474.2-.662.386l-1.675 1.324c-.069.024-.139.029-.207.062-1.269.616-2.539 1.23-3.808 1.845a2.013 2.013 0 00-1.088-.238 54.562 54.562 0 01-20.675-2.32 2.438 2.438 0 00-1.16-.085 623.28 623.28 0 01-25.797-9.988c-.229-.66-.732-1.231-1.585-1.502-10.799-3.418-22.376-10.52-23.545-22.92-.126-1.343-1.057-2.5-2.5-2.5-.36 0-.727.105-1.069.272-.842-.525-1.95-.674-2.873-.328a3.86 3.86 0 00-.91.497c-.04-.003-.083-.012-.124-.011-.435.02-.78.183-1.03.439a6.77 6.77 0 00-.954.488c-.639.4-1.184.916-1.592 1.552-.36.557-.51 1.352-.753 1.814-.133.253 0 .032-.179.206.088-.087-.008-.04-.06-.001-3.007-.474-5.464-2.89-7.535-4.976-2.468-2.486-4.762-5.278-5.524-8.78a1.434 1.434 0 00-.293-.618c-.044-1.096.113-2.195.553-3.262.5-1.212 1.437-2.421 2.711-2.867a10.925 10.925 0 013.098 2.2c.685.7 1.564.5 2.092-.043.923-.131 1.794-1.148 1.241-2.256-1.133-2.266-3.678-3.292-6.079-3.013a3.867 3.867 0 00-1.094-1.07c-.242-.453-.673-.802-1.252-.82-.748-.02-1.474.054-2.19.169-.993-.123-2-.044-3.003.395-.426.186-.773.43-1.089.699a1.465 1.465 0 00-.976-.114c-3.399.846-2.759 5.448-2.217 7.972a19.475 19.475 0 002.127 5.524c.482 1.329 1.148 2.619 1.835 3.783.264.449.737.644 1.218.665a94.575 94.575 0 003.226 4.599c.448.598 1.244.967 1.954.586 1.93 3.332 4.438 6.53 8.512 7.057.238.03.474.045.71.05.79.332 1.644.5 2.452.36.015.016.02.037.034.052.618.567 1.506.569 2.122 0 1.066-.987 1.764-2.192 2.257-3.494.731-.94 1.1-2.1.86-3.356.03-.178.044-.355.07-.535.017-.046.03-.093.048-.137.07-.146.154-.282.236-.418h.002c.055-.01.06-.012.055-.013l.075-.003c.136-.008.268-.004.405-.002h.038c0 .002.007.005.02.009.088.315.288.59.552.787.998 6.587 4.306 12.437 9.377 16.838 4.168 3.616 9.07 6.216 14.212 8.15.325.556.874.99 1.525 1.264a622.466 622.466 0 0030.34 11.81c.407.147.833.134 1.238.025 6.752 1.963 13.853 2.722 20.863 2.17.766-.061 1.464-.402 1.926-.946.112-.032.222-.075.323-.138l3-1.883c.297-.187.533-.47.652-.803l.51-.246.014-.011c.222-.074.421-.188.59-.354l1.885-1.49a1.13 1.13 0 00.31-.484c.094-.178.137-.371.13-.577a1.137 1.137 0 00-.13-.578M251.125 130.35c-.89-.01-1.404.698-1.5 1.5-.532 4.458-2.854 8.871-6.532 11.52-3.839 2.765-8.847 3.493-13.269 1.79-.066-.027-.13-.038-.194-.054a1.557 1.557 0 00-.915-.33c-.143 0-.273.022-.398.056.007-.086.008-.173.012-.26 1.27-.408 1.595-2.51.002-2.858l-1.746-.38c-1.082-1.522-2.577-3.709-4.497-2.385-.42.29-.698.717-.909 1.188a1.273 1.273 0 00-.349.278c-.883 1.043-1.38 2.33-1.376 3.647a127.942 127.942 0 01-3.58 9.251c-.153.355-.17.72-.092 1.05-3.02 1.006-5.72 2.705-7.89 5.028a1.567 1.567 0 00-.4-.224c-1.08-.4-2.137-.42-3.259-.192a1.2 1.2 0 00-.318.113c-.17.006-.339.022-.509.04-.948-.413-2.225.146-2.135 1.288-.43.308-.662.83-.397 1.495l4.313 10.805.001.005c.055.212.112.424.166.637.422 2.448.846 4.897 1.27 7.345.121.705.791 1.066 1.456 1.066l-.435.83c-.904 1.705 1.685 3.223 2.59 1.514 1.89-3.568 3.615-7.129 4.06-11.192.368-3.364-.08-6.752-.659-10.082a11.965 11.965 0 004.273-.62c2.365-.809 4.23-2.323 5.954-4.092 2.72-2.788 5.078-6.012 5.992-9.788 5.03 1.607 10.791.56 15.024-2.577 4.48-3.319 7.093-8.435 7.746-13.913.097-.81-.759-1.492-1.5-1.5" fill="#C3996B"/><path d="M242.378 230.175c-.225-.348-.514-.537-.896-.689l-4.019-1.596c-.244-.097-.579-.065-.86.026-.02-.029-.038-.06-.06-.089-1.343-1.697-3.334-2.537-5.215-3.48-1.892-.95-3.697-2.097-5.326-3.452a29.207 29.207 0 01-2.502-2.354c.136-.502-.018-1.048-.37-1.48-3.036-3.73-6.168-7.676-7.006-12.54-.138-.8-1.119-1.248-1.846-1.049-.844.232-1.185 1.044-1.046 1.845.39 2.266 1.243 4.355 2.346 6.323-.026.261.01.538.144.824a31.024 31.024 0 007.94 10.367 31.275 31.275 0 005.388 3.71c1.868 1.005 4.013 1.69 5.37 3.407.35.441.98.517 1.51.351.197.222.437.365.736.484l4.02 1.595c.338.135.853.026 1.154-.15.311-.183.608-.539.69-.897.087-.385.068-.815-.152-1.156m-38.433-42.685c-1.465-1.972-3.701-3.768-6.313-3.573-2.492.185-4.818 2.117-4.823 4.735 0 .106.013.209.035.31-1.517 2.295-1.693 5.383-.441 7.85.366.723 1.383.93 2.052.538.735-.428.906-1.327.539-2.051-.014-.026-.1-.214-.12-.247a5.606 5.606 0 01-.293-1.067c-.01-.05-.011-.063-.015-.09.01.072-.017-.267-.018-.318a5.95 5.95 0 01-.004-.443 7.34 7.34 0 01.026-.444c.004-.027.003-.025.004-.038l.025-.15a6.85 6.85 0 01.246-.93c.012-.033.089-.221.102-.26a5.395 5.395 0 01.612-1.03c.038-.04.155-.175.17-.19.1-.11.205-.214.314-.314 0-.001.193-.161.215-.185a5.76 5.76 0 01.732-.449c.002-.001.202-.09.252-.115.268-.103.545-.19.826-.255.125-.028.25-.052.378-.072.047-.003.25-.024.286-.027.31-.02.613-.004.922.009l.112.002c.016.005.04.01.098.023.15.03.3.058.449.096.672.17.947.3 1.58.739.54.374 1.373.21 1.818-.235.434-.434.626-1.291.234-1.818" fill="#C3996B"/><path d="M270.22 166.95c-.398-1.7-.766-3.44-1.386-5.076-.582-1.535-1.604-2.887-2.143-4.421-.449-1.273-1.709-2.122-3.076-1.746-1.057.29-1.908 1.4-1.848 2.518.218.01.428.072.636.17 1.072.508 1.88 1.498 2.474 2.495.563.943.966 1.97 1.387 2.98.133.32.02.727-.134 1.019-.162.307-.47.505-.79.609a1.216 1.216 0 01-.596.016c.204.797.378 1.602.565 2.39.776 3.28 1.444 6.597 1.864 9.942.168 1.34 1.028 2.5 2.5 2.5 1.221 0 2.67-1.151 2.5-2.5a105.663 105.663 0 00-1.954-10.896m45.035 1.139c-.136-1.212-.27-2.425-.408-3.638a.509.509 0 00-.306-.414c0-.116-.018-.231-.013-.348.03-.643-.97-.642-1 0-.067 1.478.372 2.897.69 4.325.023.11.043.223.066.336l.477 4.247c.07.624.996.66 1 0 .008-1.517-.194-3.026-.506-4.508m-48.614 17.573c-1.616 2.835-4.34 4.776-6.746 6.936-1.26.309-2.18 1.186-3.438 1.414-1.246.225-2.682.169-4.015.017-.287-.755-.889-1.397-1.89-1.694-1.484-.44-3.097-.9-4.328-1.89-1.226-.987-1.81-2.591-2.354-4.011a3.715 3.715 0 00-1.013-1.472c-.09-.451-.165-.881-.247-1.212a61.303 61.303 0 01-.927-4.47c-.022-.135-.073-.256-.119-.38.04-.32.046-.654-.024-1.016-.839-4.381.608-8.782 1.682-12.995.197-.775.096-1.45-.18-2.011a2.247 2.247 0 00-.28-.686 3.165 3.165 0 00-.795-.881 2.59 2.59 0 00-.42-.271c-.02-.01-.039-.024-.058-.033a2.748 2.748 0 00-.456-.17c-.022-.006-.043-.02-.065-.024a.111.111 0 00-.017-.002 3.172 3.172 0 00-.81-.11c-.118 0-.22.023-.33.032l-.054.006c-.858.098-1.496.506-1.913 1.076-.28.32-.5.688-.566 1.094l-.254 1.562a2.264 2.264 0 00-.089.8c-1.173 4.699-2.116 9.324-1.18 14.208.026.132.071.243.108.362-.03.339-.025.685.035 1.035.588 3.428 1.066 8.295 3.69 10.824.064.062.132.102.198.156.621 1.107 1.373 2.129 2.372 2.969 1.42 1.193 3.047 1.996 4.758 2.624.1 1.484 1.418 2.927 2.982 2.825 1.318-.086 2.761.555 4.144.568 1.528.014 3.06-.27 4.56-.527.806-.137 1.432-.707 1.805-1.422.19-.113.38-.221.572-.315.741.058 1.521-.184 2.21-.855 3.01-2.935 6.507-5.304 8.633-9.033 1.916-3.36-3.267-6.385-5.18-3.028" fill="#E4C3A2"/><g fill="#231F20"><path d="M324.048 201.301a.843.843 0 00-.286.534c-1.23 9.625-8.334 17.037-15.077 23.52-.323-.088-.698-.02-.947.313-4.089 5.46-6.693 12.605-12.567 16.504-6.527 4.335-14.804 2.96-21.875.903-3.937-1.144-7.794-2.567-11.667-3.908l-13.036-4.512c-7.659-2.65-15.522-5.224-22.215-9.93-6.143-4.32-11.239-10.937-11.984-18.547-.012-.089-.017-.179-.033-.267a19.649 19.649 0 01-.07-1.615c-.002-.815-.969-.998-1.419-.559-.475.122-.876.64-.566 1.203.228.415.365.853.442 1.3.017.18.033.36.055.54.066 1.408-.514 2.844-1.505 3.88-.849.888-1.94 1.398-3.105 1.625a1.676 1.676 0 00-1.057-.299c-3.56.251-6.226-2.975-8.41-5.343a131.846 131.846 0 01-8.143-9.706 2.681 2.681 0 00-.757-.68c-.112-.192-.233-.38-.343-.575l-.018-.037c-.008-.015-.02-.027-.027-.04-1.352-2.4-2.45-4.92-2.929-7.65-.229-1.305-.249-2.678.005-3.99.126-.118.245-.25.35-.412 1.064-1.643 2.83-2.729 4.73-3.1a5.337 5.337 0 002.341-.09c.394.047.785.126 1.168.243 1.845.558 3.611 1.944 5.091 3.154 1.603 1.311 2.954 2.772 3.807 4.677.342.762 1.274 1.07 2.077.94.281.063.557.07.82.03a.828.828 0 00.446-.127 2.028 2.028 0 001.193-1.3 9.368 9.368 0 00.416-3.33c.06-.193.116-.385.174-.577.101-.334-.065-.716-.356-.905-.204-1.08-.558-2.139-1.003-3.17a52.679 52.679 0 00-7.909-19.71l1.622.617c1.276.487 2.586 1.131 3.942 1.351 1.124.182 2.174-.079 2.99-.702.713.326 1.562.357 2.241-.107a19.116 19.116 0 004.287-4 6.916 6.916 0 001.067-1.499c.108-.209.18-.413.231-.615a24.087 24.087 0 002.532-5.463c2.691-2.39 3.512-6.293 3.442-9.954 2.771 3.32 6.848 5.473 11.175 5.95 5.597.616 10.991-2.025 14.364-6.453a16.34 16.34 0 002.254-4.074c.29-.517.567-1.039.83-1.567 2.22 3.675 5.741 6.636 9.99 7.535 5.062 1.07 10.177-1.314 12.687-5.847.545-.983.917-2.04 1.122-3.124.34 1.89.938 3.527 2.431 5.021.644.643 1.462 1.215 2.354 1.665 1.493 1.37 3.357 2.272 5.732 2.344 2.875.087 5.324-1.669 6.71-4.102 1.054-1.854 1.441-3.912 1.561-6.005 2.077 3.07 5.7 5.125 9.463 4.874 3.911-.262 7.294-2.787 8.952-6.208a8.101 8.101 0 002.622.891c.082.04.16.087.243.123-4.29 5.383-3.985 13.344-2.62 19.748 1.603 7.524 5.044 14.482 7.858 21.595 1.621 4.101 3.05 8.285 3.85 12.63.017.09.056.155.091.223a82.23 82.23 0 01.166 16.166m-53.166 51.45c-.763.767-1.98 1.147-3.007 1.403-1.097.274-2.358.403-3.418-.082-1.12-.513-1.593-1.71-2.35-2.602-.342-.4-.738-.69-1.169-.983-.656-.443-.586-.886-.608-1.635l-.243-8.4a442.522 442.522 0 0010.48 3.51.808.808 0 00.035.311c.472 1.46.8 2.96.92 4.491.097 1.257.337 3.005-.64 3.987M259.455 67.608a9.543 9.543 0 01-2.404 1.296c.755-.504 1.561-.94 2.404-1.296m30.34 69.75l.073-.089c-1.055 1.387-2.542 2.344-4.325 2.428 1.603-.374 3.12-1.109 4.251-2.34m6.784-5.025a9.657 9.657 0 01-2.385-3.01 26.326 26.326 0 002.385 3.01M324.5 180.65c-3.512-12.924-11.905-24.715-11.645-38.434.073-3.859 1-7.87 3.624-10.796.433.054.872.068 1.306.027 3.37-.32 5.95-3.04 7.166-6.039 1.464-3.606 1.53-7.915 1.357-11.753-.125-2.76-.577-5.584-1.627-8.159-.382-1.36-1.1-2.578-2.029-3.6-1.643-2.178-3.862-3.93-6.449-4.769-.012-.033-.028-.064-.04-.097.44-2.15.737-4.482-.348-6.48a5.094 5.094 0 00-1.573-1.764c-.49-1.999-1.299-3.783-2.702-5.248a6.675 6.675 0 00-1.72-2.296 6.542 6.542 0 00-4.58-1.527 10.419 10.419 0 00-2.158-3.105c-3.24-3.24-9.392-4.51-13.33-1.72-.293.207-.588.422-.885.636-.74-2.75-2.679-5.017-5.165-6.425-.194-.154-.38-.317-.589-.457-2.073-1.41-4.778-1.98-7.206-1.387a10.924 10.924 0 00-1.879-1.47 4.346 4.346 0 00-1.93-1.322c-.81-.272-1.664-.337-2.519-.323-1.94-.302-3.965-.132-5.84.591-.188.031-.378.05-.564.085-3.48.642-7.015 2.145-9.404 4.715-1.455.018-2.848-.333-3.913-1.167-3.177-2.488-6.488-3.486-9.773-2.859-3.446.315-5.917 2.657-8.363 4.961l-2.667 2.175c-2.548-1.43-5.082-2.918-7.71-4.179-2.524-1.21-5.357-2.052-8.12-1.152-5.303 1.727-7.257 7.258-8.518 12.2-3.996-2.398-8.986-3.045-13.466-1.713-1.496.445-2.889 1.135-4.172 1.985a14.986 14.986 0 00-5.92 4.757c-2.416 3.254-3.415 7.168-2.955 10.914-.699.281-1.52.435-2.057.645-1.099.43-2.157.958-3.15 1.597a18.633 18.633 0 00-6.067 6.397 15.213 15.213 0 00-2.966 5.578c-1.464 5.1-.229 9.986 2.554 14.048-3.439.861-6.657 2.588-9.06 5.222a14.557 14.557 0 00-3.542 7.047c-1.483 3.95-.968 8.601 2.356 11.653.176.161.36.305.543.455-3.37 1.845-4.3 6.78-3.574 10.322.716 3.505 2.886 6.61 5.861 8.523-.456.521-.867 1.1-1.226 1.74-.015.022-.034.042-.049.065-.32.474-.536.99-.68 1.524-1.726 4.715-.277 11.03 4.611 13.418 1.142.557 1.256.38 1.713 1.09 1.047 1.632 2.318 2.806 3.698 3.63-.979 1.13-1.472 2.71-1.077 4.49.011.047.025.094.035.143-.035.302-.072.604-.086.906-.168 3.835 1.482 7.411 3.387 10.64 2.076 3.517 4.17 7.151 6.593 10.442 2.184 2.964 5.117 5.626 8.91 6.12 3.022.391 6.275-1.052 7.638-3.764.65.557 1.367 1.041 2.128 1.44 1.008 1.42 2.522 2.625 3.736 3.57 2.25 1.747 4.838 3.121 7.635 3.73 5.098 1.111 10.771-.537 13.811-4.925a33.172 33.172 0 002.494 2.454c6.327 5.553 14.365 8.604 22.202 11.343 4.62 1.615 9.233 3.265 13.86 4.88l.237 8.242c.033 1.16-.13 2.513.836 3.353.387.335.86.546 1.22.914.397.407.682.903 1.012 1.363 1.383 1.93 3.4 2.525 5.7 2.17 1.985-.306 4.566-1.185 5.417-3.183.553-1.298.424-2.885.298-4.255a21.497 21.497 0 00-.752-3.956c6.784 2.03 14.36 3.411 21.03.475 7.305-3.216 10.428-10.8 14.695-17.038a.77.77 0 00.44-.208c6.736-6.43 13.87-13.578 16.232-22.786a.864.864 0 00.595-.725c.95-7.663.81-15.396-.363-23.026-.053-.348-.27-.518-.522-.568"/><path d="M260.99 190.26c-4.183 3.874-10.038 2.542-13.553-1.527-3.22-3.729-4.584-9.002-4.592-13.843-.008-5.274 1.655-10.533 4.769-14.796a5.83 5.83 0 011.016.115c.024-.046.052-.087.07-.138 1.255-3.47 6.332-3.873 9.35-3.06 2.882.773 5.053 2.671 6.426 5.172a.833.833 0 00-.167.703 5.768 5.768 0 00-1.485-.432c-3.448-.495-6.41 2.234-7.994 5.017-1.853 3.256-2.731 7.493-1.361 11.088 1.147 3.008 3.75 5.536 7.032 5.942 1.82.226 3.706-.333 5.17-1.422-1.07 2.714-2.606 5.256-4.681 7.18m5.307-11.679c-.407 2.257-2.464 3.856-4.728 3.972-2.433.124-4.586-1.56-5.727-3.598-1.452-2.59-1.207-5.749-.221-8.456.859-2.358 2.495-4.935 4.969-5.824 1.294-.465 2.614-.315 3.737.494 1.055.762 1.717 1.955 1.309 3.245-.292.921.717 1.448 1.406 1.14.545 2.54.6 5.19.19 7.796-.025.172-.067.346-.097.518-.386 0-.748.208-.838.713m1.44-13.47c-.741-2.827-2.044-5.57-4.304-7.485a12.683 12.683 0 00-8.304-2.98c-2.718.04-5.692 1.001-7.382 3.146-.335-.194-.751-.183-1.07.222-6.793 8.643-8.255 22.267-1.312 31.32 3.357 4.378 9.388 6.932 14.57 4.14 4.724-2.544 7.498-8.31 8.756-13.299 1.258-4.988 1.096-10.366-.953-15.064m25.695 28.347c-2.04-2.718-4.135-5.396-6.188-8.104-1.986-2.618-4.385-6.168-2.517-9.49.52-.925-.902-1.756-1.422-.831-1.658 2.947-.716 6.327.997 9.018 2.084 3.272 4.684 6.275 7.036 9.356 1.344 1.759 6.01 7.998 1.415 8.762-1.946.323-3.975-.496-5.758-1.177a46.11 46.11 0 01-5.409-2.496c-.933-.503-1.765.918-.832 1.422 2.78 1.496 5.805 2.948 8.894 3.667 2.418.563 5.9.428 6.555-2.56.608-2.76-1.2-5.475-2.77-7.567m16.421-44.316c-4.072-3.507-9.534-4.21-14.704-4.562-1.059-.072-1.054 1.576 0 1.647 4.688.318 9.835.89 13.539 4.08.8.69 1.97-.472 1.165-1.165m4.028 25.919c-.325-.446-.998-.692-1.545-.229-2.375 2.014-6.104.338-7.186-2.257-1.249-2.996-.09-6.97 2.757-8.597 1.242-.709 2.854-1.016 3.924.134a.855.855 0 00.914.257c1.255 3.29 1.698 7.1 1.136 10.692m-4.03 8.56c-2.37 2.461-6.297 4.108-8.847.937-1.254-1.559-1.984-3.614-2.704-5.45a68.223 68.223 0 01-2.077-6.196c0-.004 0-.009-.002-.013-.344-2.947-.448-6.034-.094-9.03a.943.943 0 00.197-.556c.008-.324.017-.652.03-.98.038-.219.07-.439.114-.655-.027-.007-.052-.018-.079-.025.116-1.976.441-3.965 1.536-5.64 1.235-1.889 3.288-2.945 5.525-2.325 2.186.604 4.218 2.155 5.746 3.793 1.103 1.182 1.982 2.585 2.451 4.123-3.02-1.189-6.833 1.52-8.07 4.321-1.823 4.128-.82 9.508 3.72 11.283 2.128.833 4.558.563 6.342-.88-.62 2.737-1.855 5.285-3.788 7.292m3.82-22.113c-.524-2.037-1.6-3.874-3.06-5.44-1.86-1.992-4.484-3.936-7.208-4.443-2.77-.516-5.278.74-6.912 2.96-1.84 2.503-2.1 5.725-2.167 8.73a.927.927 0 00.137.503c-.288 2.49-.275 5.031-.05 7.507.034.383.078.77.118 1.155a.882.882 0 00-.247.925c.195.683.398 1.376.607 2.071.027.193.048.388.077.581.016-.048.04-.093.057-.14.911 2.973 2.003 5.984 3.554 8.611 1.602 2.713 4.3 4.375 7.492 3.655 6.572-1.48 9.644-9.349 10.004-15.345.236-3.922-.612-7.838-2.403-11.33m-28.492 64.109c-2.055-3.334-1.614-7.92.831-10.933a.918.918 0 00.86-.703c.14-.488.424-.851.803-1.108 1.99 4.18.97 9.64-2.494 12.744m3.807-14.54a1.025 1.025 0 00-1.129-.46 3.974 3.974 0 00-2.426 1.75c-4.26 3.927-4.679 10.873-1.158 15.397.245.316.888.394 1.211.157 5.138-3.781 6.782-11.321 3.502-16.844m-37.742-69.791c-1.488 7.437-7.904 13.628-15.48 14.603-.54.069-.993.41-1 1-.003.487.465 1.069 1 1 8.432-1.084 15.73-7.685 17.408-16.072.252-1.257-1.676-1.795-1.928-.531"/><path d="M267.65 172.172c.038-.77-.038-1.534-.3-2.268a5.436 5.436 0 00-1.332-2.094l-.011-.05a8.213 8.213 0 00-.2-.69c-.055-.168-.101-.336-.167-.502-.026-.066-.068-.12-.103-.18l-.014-.036c-.436-.963-1.228-2.316-2.423-2.332-.41-.006-.757.182-1.01.462a.917.917 0 00-.762.085c-.03.016-.057.036-.085.053a.918.918 0 00-.73-.109c-.018.004-.037.007-.055.013a1.305 1.305 0 00-.44.222c-.078.063-.148.134-.224.197-.356-.29-.867-.369-1.271.07-2.367 2.57-4.266 5.838-4.273 9.426-.007 3.16 1.547 6.371 4.377 7.911a.94.94 0 00.81.066c.579.526 1.409.758 2.167.301.07-.043.109-.1.164-.152 1.005.027 1.972-.418 2.718-1.108.352.221.806.236 1.142-.168 2.099-2.517 2.889-5.964 2.022-9.118m44.271 3.005c.032.072.065.145.1.218.14.312.438.46.754.477a.404.404 0 00-.02.018l-.022.02c-.012.004-.026 0-.04.004a5.157 5.157 0 01-.77.23 2.925 2.925 0 01-.28-.068 2.29 2.29 0 01-.147-.047l-.076-.04c.2-.24.375-.506.501-.812m2.511-.928a1.078 1.078 0 00-.43 0c.251-1.594.32-3.209.181-4.807a.95.95 0 00.01-.519c-.038-.132-.084-.26-.124-.392a18.697 18.697 0 00-1.273-4.74c-.209-.498-.662-.855-1.23-.699-.04.011-.079.03-.117.047.151-.302.153-.688-.006-.966-.292-.514-.876-.575-1.368-.359-1.692.745-3.104 2.151-3.896 3.835-1.557 1.545-2.278 3.885-1.754 6.048.07.29.238.46.435.57.036.134.084.264.127.395-.225.248-.345.592-.244.926.72 2.36 2.9 4.108 5.294 4.53.702.31 1.495.412 2.285.247a3.43 3.43 0 001.057-.429 2.807 2.807 0 001.13-.78 1.21 1.21 0 00.283-.718c.16-.304.276-.626.34-.959.094-.513-.143-1.103-.7-1.23"/></g></g></svg>