<svg width="500" height="600" xmlns="http://www.w3.org/2000/svg" xmlns:xlink="http://www.w3.org/1999/xlink"><defs><path id="a" d="M0 .084h173.375v192.018H0z"/></defs><g fill="none" fill-rule="evenodd"><path d="M268.757 177.341c0 14.161-6.524 25.641-14.572 25.641-8.049 0-14.574-11.48-14.574-25.641 0-14.16 6.525-25.64 14.574-25.64 8.048 0 14.572 11.48 14.572 25.64m48.707-4.155c0 11.554-5.75 20.92-12.845 20.92-7.094 0-12.845-9.366-12.845-20.92 0-11.554 5.751-20.92 12.845-20.92s12.845 9.366 12.845 20.92" fill="#FEFEFE"/><path d="M273.094 248.037a5.214 5.214 0 00-.936-1.818 6.79 6.79 0 00-.168-.439c-.187-.425-.557-.643-.965-.706a9.05 9.05 0 00-.933-.657c-1.478-.908-3.16-1.534-4.764-2.185-.615-.25-1.282-.59-1.96-.684-.405-.455-1.166-.58-1.695-.349-.678.298-1.069 1.033-.868 1.77.055.205.092.41.137.614a4.736 4.736 0 00-.047.31c-.238 2.1-.097 4.22.255 6.296.06.358.294.64.594.83l.006.038-.014.001c.4 1.717 1.75 3.143 3.44 3.642a4.827 4.827 0 002.705-.016c.57.52 1.574.621 2.137.02a7.167 7.167 0 001.283-1.943c.262-.05.518-.155.734-.36 1.18-1.11 1.48-2.84 1.06-4.364" fill="#E4C3A2"/><path d="M264.374 252.034c.41-.269.712-.7.65-1.21-.21-1.75-.422-3.5-.633-5.249-.04-.339-.08-.674-.132-1.004.085-.09.165-.189.234-.307.365-.617.25-1.426-.16-1.98a1.673 1.673 0 00-2.155-.473c-.009.005-.016.014-.025.02-.142-.036-.28-.078-.433-.097-.585-.072-1.355.514-1.447 1.102-.582 3.728-.057 7.443 1.572 10.852.348.732 1.394.923 2.051.538.75-.436.89-1.318.54-2.05-.023-.047-.04-.096-.062-.142" fill="#C3996B"/><path d="M315.413 173.757c.034.205.063.41.084.613a2.385 2.385 0 01.008.434c.042.288.025.582-.02.9a19.122 19.122 0 01-.774 3.254c-.004 2.41-.209 4.795-1.117 6.899.071.238.105.492.067.754-.16 1.094-.807 2.121-1.66 2.81-1.626 1.312-3.812 1.846-5.878 1.725-1.931-.114-4.123-.783-5.125-2.583a1.497 1.497 0 01-.135-.351c-2.2-1.487-4.03-3.555-4.186-6.203-.025-.4.107-.703.319-.914a16.234 16.234 0 01-.74-2.22c-1.053-4.262-1.047-8.899-.441-13.222.21-1.507.538-3.007.982-4.468.15-.621.333-1.23.558-1.819a1.77 1.77 0 01-.033-.357c.03-1.695.727-3.39 2.284-4.222.147-.078.298-.145.451-.209a17.15 17.15 0 011.108-1.327c1.2-1.299 2.894-.394 3.31.916.41-.15.792-.383 1.154-.663.13.04.26.081.388.126.046.018.092.038.14.055.095.283.186.565.29.846.188.013.376.045.561.072.126.017.247.05.365.097.27.108.557.213.802.374.302.179.544.421.723.724.07.16.136.321.203.482.041.151.055.301.061.452 1.99 1.295 3.425 3.534 3.952 5.855.064.082.132.161.173.26.47 1.102 1.027 2.238 1.516 3.396.317.973.619 1.951.882 2.939a.49.49 0 00.135.212c.279 1.441.24 2.9-.406 4.363m-46.535 4.736c-.155 2.717-.979 5.47-2.25 7.926.013.094.028.187.027.281-.003.412-.033.827-.074 1.239.334.474.473 1.084.3 1.67-.39 1.322-1.037 2.578-1.842 3.73-.094.2-.187.401-.286.598-1.05 2.072-2.803 4.306-5.212 4.79a2.341 2.341 0 01-.94-.005c-1.714.748-3.574 1.076-5.47.597a1.88 1.88 0 01-1.23-1.012c-2.945-.812-5.64-2.445-7.666-4.843-.62-.736-.752-1.664-.289-2.455-1.408-2.502-2.214-5.4-2.644-8.22-.966-2.765-1.126-5.675-.265-8.613.02-.066.045-.13.065-.196.316-2.84 1.02-5.631 2.225-8.164.457-.961 1.31-1.174 2.08-.94.2-.378.398-.756.588-1.135.228-.452.646-.746 1.116-.886.285-.502.6-.985.928-1.453a7.07 7.07 0 01.894-1.689c1.55-2.104 3.945-3.504 6.59-3.567a6.523 6.523 0 011.586.174c.471-.038.98-.085 1.127.128.085.123.177.219.265.329a7.11 7.11 0 012.4 1.841c.875.433 1.816.804 2.798 1.439.291.37.601.699.94.956a90.634 90.634 0 012.41 5.773c.05.024.105.041.151.069.49.287.722.699.927 1.205.582 1.437.714 3.051.77 4.588.051 1.445-.005 2.894.101 4.338.024.334-.06.637-.207.908.06.191.1.39.087.599m56.52 12.745a4.808 4.808 0 00-.21-1.25 27.267 27.267 0 00-.19-5.387c-.296-2.186-.42-5.323-2.196-6.875-.031-.028-.065-.047-.096-.073a60.485 60.485 0 00-1.885-6.371c-.29-.812-.781-1.396-1.369-1.786-.698-2.337-1.431-4.663-2.274-6.948a3.593 3.593 0 00-1.016-1.482c-.86-2.323-1.708-4.661-2.036-7.127-.314-2.354-.69-4.479-1.525-6.717-.024-.068-.061-.12-.09-.186.107-1.982.25-3.963.477-5.937a2.414 2.414 0 00-.015-.625c.125-.738.002-1.387-.291-1.929a38.321 38.321 0 011.623-3.143c.027-.04.057-.073.085-.112l1.625-2.373c3.283-4.792-3.412-9.324-7.42-6.325a5.002 5.002 0 00-.485.354c-1.998-.08-4.02.977-4.818 3.53l-.295.943c-.241.083-.48.193-.715.336-1.025-3.998-6.67-6.246-8.934-1.602l-.048.101c-1.881-.242-3.857.448-4.842 2.358a94.264 94.264 0 00-1.787 3.678 5.512 5.512 0 00-1.808.024c.44-2.435-.645-4.256-2.256-5.198-2.357-3.054-8.692-1.948-9.13 3.11-.024.265-.053.529-.078.795-.09-.163-.175-.328-.28-.483-.023-.174-.048-.347-.07-.52-.345-2.514-3.873-4.363-6.152-3.492a58.872 58.872 0 00-3.013 1.252c-.524-3.123-3.68-5.629-7.228-3.537-.859.507-1.69 1.053-2.526 1.59-1.232-.057-2.504.34-3.582 1.371l-7.295 6.972c-.042-.013-.085-.021-.127-.032.513-4.962-6.412-6.865-9.355-2.774a94.326 94.326 0 00-3.432 5.133c-.447-2.73-3.507-4.068-6.112-3.6-2.427-.824-5.41.012-6.366 3.24-.435 1.47-.888 2.935-1.35 4.396-.13.171-.254.349-.368.546a139.946 139.946 0 01-5.372 8.682c-.108-.459-.213-.92-.32-1.379-1.358-5.749-9.434-4.063-9.822 1.328-.009.123-.012.246-.02.369-1.217.768-2.145 2.112-2.333 4.055-.225 2.336.182 4.806 1.13 6.9a58.35 58.35 0 002.73 8.744c.007.039.013.077.022.116l.02-.009c.16.401.314.802.484 1.202.624 1.477 1.671 2.236 2.838 2.48.781 4.06 1.76 8.083 2.958 12.066a5.24 5.24 0 00-1.505.523c-.352.191-.706.384-1.066.561.065-.041-.019-.021-.167.026a6.433 6.433 0 00-.41-.307c-1.758-3.038-4.066-5.749-6.858-7.923-1.18-.918-2.587-1.454-3.96-1.398a5.376 5.376 0 00-1.129-.116c-2.526.01-4.56 1.193-5.696 3.465-1.318 2.639-.38 5.252.932 7.646.323 3.711 3.048 6.774 5.334 9.612 2.673 3.315 5.671 6.446 8.976 9.138 2.968 2.419 7.127 3.405 9.878.051 1.704-2.077 1.553-4.012.811-6.454l-.029-.093c.05.002.095.008.145.008.314 0 .61-.031.893-.076.46 4.884 2.668 9.689 5.187 14.176.515.919 1.18 1.545 1.913 1.935 1.406 2.211 3.424 3.66 5.62 5.396 1.174.929 2.322 1.982 3.636 2.712 1.113.618 2.623.799 3.345 1.355.714.553 1.58.767 2.458.735 8.112 4.006 17.188 6.507 25.548 9.436 2.48.868 5.45 2.331 8.236 2.505a27.11 27.11 0 001.835.869c.193.199.403.385.642.549 1.52 1.046 2.74 1.397 4.582 1.211.147-.016.285-.041.425-.067 1.415.253 2.848.384 4.287.391.122.02.24.052.363.065 1.156.119 2.31.111 3.45.009.398.127.838.203 1.31.229l.396.078c1.33.264 2.652.199 3.853-.504.069-.04.134-.096.2-.141 5.596-1.642 9.459-6.529 12.622-11.526a5.137 5.137 0 00.7-1.687 60.927 60.927 0 004.403-5.805c.926-.152 1.858-.655 2.699-1.628.149-.172.287-.347.433-.52 2.062-.798 3.065-2.503 3.22-4.281l.063-.096a5.85 5.85 0 001.052-.856l1.745-1.78c.895-.912 1.344-1.904 1.46-2.873a33.797 33.797 0 003.3-7.44c.053-.133.12-.253.162-.394 1.222-4.149 1.907-8.344 2.183-12.656a4.369 4.369 0 00-.537-2.459" fill="#E4C3A2"/><path d="M302.347 238.657a1.116 1.116 0 00-.31-.482c-.286-.263-.662-.457-1.06-.44l-.4.054c-.253.071-.474.2-.662.386l-1.675 1.324c-.07.023-.139.03-.207.061l-3.808 1.846a2.006 2.006 0 00-1.088-.239 54.561 54.561 0 01-20.675-2.319 2.44 2.44 0 00-1.16-.086 623.264 623.264 0 01-25.797-9.987c-.23-.66-.732-1.232-1.585-1.502-10.799-3.418-22.376-10.52-23.545-22.92-.127-1.343-1.058-2.5-2.5-2.5-.36 0-.727.104-1.07.272-.84-.525-1.95-.674-2.872-.328-.347.13-.633.297-.91.496-.04-.003-.083-.012-.124-.01-.435.02-.78.182-1.03.438-.34.145-.665.307-.954.49a5.048 5.048 0 00-1.592 1.55c-.36.557-.51 1.353-.753 1.815-.134.252-.002.032-.179.205.088-.086-.009-.038-.06 0-3.007-.475-5.464-2.89-7.535-4.976-2.468-2.487-4.762-5.278-5.524-8.78a1.43 1.43 0 00-.293-.618c-.044-1.096.113-2.196.553-3.263.5-1.21 1.437-2.42 2.711-2.866a10.916 10.916 0 013.098 2.2c.685.7 1.564.5 2.092-.044.923-.13 1.794-1.148 1.24-2.256-1.132-2.265-3.677-3.292-6.078-3.012a3.862 3.862 0 00-1.095-1.07c-.24-.453-.673-.803-1.252-.819a11.587 11.587 0 00-2.189.168c-.993-.123-2-.044-3.003.395-.426.185-.774.43-1.09.698a1.474 1.474 0 00-.975-.114c-3.399.847-2.759 5.45-2.217 7.972a19.463 19.463 0 002.127 5.524c.481 1.33 1.148 2.62 1.835 3.783.264.45.737.644 1.218.666a94.34 94.34 0 003.226 4.598c.448.598 1.243.968 1.954.586 1.93 3.333 4.438 6.53 8.512 7.057.238.031.474.045.71.051.79.331 1.644.501 2.452.36.015.015.02.037.034.051.618.567 1.506.57 2.121 0 1.067-.986 1.765-2.192 2.257-3.494.732-.939 1.1-2.1.861-3.355.03-.179.043-.356.07-.535.016-.046.03-.093.048-.138.068-.145.153-.28.236-.417h.002c.055-.01.06-.012.055-.014.013 0 .028 0 .075-.003.136-.008.268-.004.405-.002h.038c0 .003.007.006.02.01.088.314.288.59.552.787.998 6.586 4.306 12.437 9.377 16.838 4.168 3.616 9.068 6.215 14.212 8.151.325.555.873.99 1.525 1.262a621.447 621.447 0 0030.34 11.81c.407.148.833.135 1.238.025 6.752 1.963 13.852 2.722 20.863 2.17.765-.06 1.464-.4 1.925-.946.113-.032.223-.074.324-.137l3-1.883c.297-.188.533-.47.652-.804l.51-.246.014-.01c.222-.075.421-.188.59-.355l1.884-1.49c.147-.136.25-.297.311-.483.094-.178.137-.37.13-.578a1.139 1.139 0 00-.13-.578M252.05 131.35c-.89-.01-1.404.699-1.5 1.5-.532 4.459-2.854 8.872-6.532 11.52-3.839 2.766-8.847 3.494-13.269 1.79-.067-.026-.13-.038-.194-.053a1.552 1.552 0 00-.916-.332c-.142 0-.272.024-.397.058.006-.087.008-.173.012-.26 1.27-.408 1.595-2.511.002-2.858l-1.746-.381c-1.082-1.521-2.577-3.71-4.497-2.385-.42.29-.698.717-.909 1.188a1.258 1.258 0 00-.349.279c-.883 1.043-1.382 2.328-1.376 3.647a128.566 128.566 0 01-3.58 9.25c-.154.355-.17.719-.092 1.049-3.02 1.008-5.72 2.706-7.89 5.03a1.57 1.57 0 00-.4-.225c-1.082-.401-2.137-.42-3.259-.192a1.224 1.224 0 00-.318.114c-.17.005-.339.02-.509.039-.948-.413-2.225.147-2.135 1.289-.43.308-.662.83-.397 1.494l4.313 10.806.001.004.165.637 1.27 7.346c.121.704.792 1.066 1.457 1.066l-.435.829c-.904 1.705 1.685 3.223 2.59 1.514 1.888-3.568 3.615-7.13 4.06-11.192.368-3.364-.08-6.751-.659-10.081 1.446.048 2.897-.15 4.273-.621 2.364-.808 4.23-2.323 5.954-4.092 2.72-2.788 5.078-6.011 5.992-9.788 5.03 1.608 10.791.559 15.024-2.577 4.48-3.318 7.092-8.435 7.746-13.912.097-.812-.759-1.492-1.5-1.5" fill="#C3996B"/><path d="M243.303 231.176c-.225-.35-.514-.538-.896-.69l-4.019-1.595c-.244-.097-.579-.065-.86.025-.022-.03-.038-.06-.06-.09-1.344-1.695-3.334-2.535-5.215-3.48-1.892-.95-3.697-2.096-5.326-3.451a28.905 28.905 0 01-2.502-2.354c.136-.501-.018-1.047-.37-1.48-3.036-3.73-6.168-7.676-7.006-12.541-.138-.8-1.119-1.247-1.846-1.048-.844.232-1.185 1.044-1.047 1.846.39 2.265 1.244 4.354 2.346 6.322-.026.26.01.539.145.824a31.004 31.004 0 007.94 10.367 31.275 31.275 0 005.388 3.709c1.868 1.007 4.012 1.692 5.37 3.408.35.442.98.518 1.51.352.197.22.437.365.735.483l4.02 1.596c.338.135.854.026 1.155-.151.311-.182.608-.54.69-.897.086-.384.068-.814-.152-1.155m-38.433-42.685c-1.466-1.974-3.701-3.77-6.313-3.575-2.493.186-4.818 2.118-4.823 4.736 0 .106.013.208.035.31-1.517 2.295-1.693 5.383-.441 7.85.366.723 1.383.93 2.052.538.734-.429.906-1.327.538-2.052-.013-.025-.1-.213-.118-.246a5.617 5.617 0 01-.295-1.068 7.558 7.558 0 01-.014-.088c.01.071-.017-.269-.02-.319a6.553 6.553 0 01.024-.887l.004-.038.025-.149c.06-.316.14-.627.246-.93.012-.034.089-.222.102-.26.052-.11.104-.22.162-.328.132-.243.28-.482.45-.703.038-.04.155-.175.169-.19.1-.11.205-.214.315-.314 0 0 .193-.162.215-.186a4.81 4.81 0 01.332-.223c.13-.08.264-.155.4-.226 0 0 .202-.09.25-.115.27-.103.547-.189.828-.254.125-.029.25-.053.378-.073.047-.002.25-.024.286-.026.31-.019.613-.004.922.008.062.003.093.003.112.002a.958.958 0 00.098.024c.15.03.3.058.449.096.67.171.947.3 1.579.738.542.375 1.374.21 1.819-.235.434-.434.626-1.29.234-1.817" fill="#C3996B"/><path d="M271.144 167.95c-.397-1.7-.765-3.44-1.385-5.076-.582-1.536-1.604-2.887-2.143-4.422-.449-1.273-1.709-2.12-3.076-1.746-1.235.34-2.196 1.796-1.746 3.076.551 1.568 1.53 2.893 2.144 4.421.602 1.498.925 3.134 1.296 4.7.776 3.28 1.444 6.597 1.864 9.943.168 1.34 1.028 2.5 2.5 2.5 1.221 0 2.669-1.152 2.5-2.5a105.615 105.615 0 00-1.954-10.896m45.036 1.139l-.409-3.639a.509.509 0 00-.306-.414c0-.116-.018-.23-.013-.347.03-.644-.97-.643-1 0-.067 1.478.372 2.896.69 4.324.023.111.043.224.066.336l.477 4.248c.07.623.996.659 1 0 .008-1.518-.194-3.026-.506-4.508" fill="#E4C3A2"/><g transform="translate(154 64.916)"><mask id="b" fill="#fff"><use xlink:href="#a"/></mask><path d="M171.048 137.386a.842.842 0 00-.286.534c-1.23 9.625-8.334 17.037-15.077 23.519-.323-.088-.698-.02-.947.314-4.089 5.46-6.692 12.604-12.566 16.504-6.528 4.334-14.805 2.959-21.876.903-3.937-1.144-7.794-2.567-11.667-3.908-4.346-1.504-8.69-3.01-13.036-4.512-7.659-2.652-15.522-5.225-22.215-9.931-6.143-4.32-11.239-10.936-11.984-18.547-.012-.09-.017-.178-.033-.267a19.649 19.649 0 01-.07-1.615c0-.814-.969-.998-1.419-.56-.475.123-.876.642-.565 1.205.228.414.364.853.441 1.298.017.18.033.362.055.54.066 1.41-.514 2.845-1.505 3.882-.849.888-1.94 1.397-3.105 1.624a1.688 1.688 0 00-1.057-.3c-3.56.253-6.226-2.973-8.41-5.342a131.83 131.83 0 01-8.143-9.705 2.67 2.67 0 00-.757-.681c-.112-.192-.233-.38-.343-.574a.644.644 0 00-.018-.037c-.008-.016-.02-.027-.027-.041-1.352-2.4-2.45-4.921-2.929-7.651-.229-1.304-.249-2.676.005-3.99.126-.116.245-.248.35-.411 1.064-1.643 2.83-2.728 4.73-3.101a5.352 5.352 0 002.341-.09 6.81 6.81 0 011.168.244c1.845.559 3.611 1.945 5.091 3.154 1.603 1.31 2.954 2.773 3.807 4.678.342.76 1.274 1.069 2.077.938.281.064.557.072.82.03a.828.828 0 00.446-.125c.552-.22.995-.672 1.193-1.302a9.362 9.362 0 00.416-3.33c.06-.192.116-.383.174-.576.101-.333-.065-.715-.356-.905-.204-1.08-.558-2.138-1.003-3.17a52.681 52.681 0 00-7.909-19.71l1.622.618c1.276.487 2.586 1.13 3.942 1.35 1.124.183 2.174-.078 2.99-.701.713.325 1.562.356 2.241-.108a19.12 19.12 0 004.288-4 6.88 6.88 0 001.066-1.5 2.8 2.8 0 00.231-.613 24.16 24.16 0 002.533-5.464c2.69-2.391 3.511-6.292 3.441-9.953 2.772 3.319 6.848 5.473 11.175 5.948 5.598.617 10.991-2.023 14.364-6.452a16.34 16.34 0 002.254-4.074c.29-.516.567-1.038.83-1.567 2.221 3.676 5.741 6.636 9.99 7.535 5.062 1.07 10.177-1.314 12.687-5.846.545-.983.917-2.041 1.122-3.124.34 1.889.938 3.527 2.431 5.02.644.644 1.462 1.215 2.354 1.665 1.493 1.37 3.357 2.272 5.732 2.344 2.875.088 5.324-1.668 6.71-4.102 1.054-1.853 1.441-3.912 1.561-6.005 2.077 3.07 5.7 5.125 9.463 4.874 3.911-.261 7.294-2.787 8.952-6.208a8.127 8.127 0 002.622.892c.082.039.16.087.243.123-4.289 5.383-3.985 13.344-2.62 19.747 1.603 7.525 5.044 14.483 7.858 21.595 1.621 4.1 3.05 8.286 3.85 12.63.017.09.056.156.091.224a82.23 82.23 0 01.166 16.166m-53.165 51.449c-.764.768-1.982 1.147-3.008 1.404-1.096.274-2.358.403-3.418-.082-1.12-.513-1.593-1.711-2.35-2.603-.342-.4-.738-.691-1.169-.982-.656-.444-.586-.887-.608-1.636l-.243-8.401a438.008 438.008 0 0010.48 3.51.83.83 0 00.035.313c.472 1.46.8 2.959.92 4.49.097 1.258.337 3.006-.639 3.987M106.455 3.692a9.529 9.529 0 01-2.404 1.297c.755-.504 1.561-.94 2.404-1.297m30.34 69.749l.073-.087c-1.055 1.387-2.542 2.344-4.325 2.428 1.603-.374 3.12-1.11 4.251-2.341m6.784-5.025a9.645 9.645 0 01-2.385-3.011 26.153 26.153 0 002.385 3.01m27.922 48.319c-3.512-12.924-11.905-24.714-11.645-38.433.073-3.86 1-7.871 3.624-10.796.433.053.872.067 1.306.026 3.37-.32 5.95-3.04 7.166-6.038 1.464-3.607 1.53-7.916 1.357-11.753-.125-2.762-.577-5.584-1.627-8.16-.382-1.36-1.1-2.578-2.029-3.6-1.642-2.178-3.862-3.93-6.449-4.768-.012-.033-.028-.065-.04-.098.44-2.15.737-4.482-.348-6.48a5.103 5.103 0 00-1.573-1.764c-.49-2-1.299-3.782-2.702-5.248a6.68 6.68 0 00-1.72-2.295 6.537 6.537 0 00-4.579-1.527 10.445 10.445 0 00-2.159-3.106c-3.24-3.241-9.392-4.51-13.33-1.72-.293.208-.588.422-.885.636-.74-2.75-2.679-5.016-5.165-6.425-.194-.154-.38-.316-.589-.457-2.073-1.411-4.778-1.98-7.206-1.386a10.94 10.94 0 00-1.879-1.472A4.365 4.365 0 00119.1.549c-.812-.271-1.664-.337-2.52-.323-1.94-.302-3.965-.131-5.84.592-.188.03-.378.05-.564.085-3.48.642-7.015 2.145-9.404 4.714-1.455.018-2.848-.333-3.913-1.167-3.177-2.487-6.488-3.485-9.773-2.86-3.446.316-5.917 2.658-8.363 4.963l-2.667 2.174c-2.548-1.43-5.082-2.918-7.71-4.18-2.524-1.21-5.357-2.051-8.119-1.15-5.304 1.727-7.258 7.257-8.519 12.199-3.996-2.398-8.986-3.045-13.466-1.712-1.496.444-2.888 1.135-4.172 1.985a14.968 14.968 0 00-5.92 4.757c-2.416 3.254-3.415 7.167-2.955 10.913-.699.282-1.52.435-2.057.646-1.099.43-2.157.957-3.15 1.597a18.621 18.621 0 00-6.067 6.396 15.221 15.221 0 00-2.966 5.578c-1.464 5.099-.229 9.986 2.554 14.048-3.439.86-6.657 2.589-9.06 5.223a14.553 14.553 0 00-3.542 7.047c-1.483 3.949-.968 8.6 2.356 11.652.176.162.36.306.543.455-3.37 1.846-4.3 6.779-3.574 10.322.716 3.505 2.886 6.61 5.861 8.523a10.29 10.29 0 00-1.226 1.74c-.015.023-.034.043-.049.066-.32.474-.536.989-.68 1.523-1.726 4.716-.277 11.03 4.612 13.419 1.141.557 1.255.379 1.712 1.09 1.047 1.63 2.318 2.806 3.698 3.629-.979 1.13-1.47 2.71-1.077 4.489.011.049.025.096.035.144-.035.302-.072.604-.086.906-.168 3.836 1.482 7.412 3.387 10.639 2.076 3.518 4.17 7.153 6.593 10.444 2.184 2.963 5.117 5.625 8.91 6.119 3.022.392 6.275-1.052 7.638-3.764.65.558 1.367 1.04 2.128 1.439 1.008 1.422 2.522 2.627 3.736 3.57 2.25 1.748 4.838 3.122 7.635 3.73 5.098 1.113 10.771-.536 13.811-4.924a32.793 32.793 0 002.494 2.454c6.327 5.554 14.365 8.604 22.202 11.343 4.62 1.615 9.233 3.265 13.86 4.88.078 2.747.157 5.495.237 8.242.033 1.16-.13 2.514.836 3.353.387.336.86.546 1.22.915.397.407.682.903 1.012 1.363 1.383 1.93 3.4 2.525 5.7 2.17 1.985-.306 4.566-1.186 5.417-3.184.554-1.298.424-2.884.298-4.255a21.502 21.502 0 00-.752-3.955c6.784 2.029 14.36 3.41 21.03.474 7.305-3.215 10.428-10.8 14.695-17.038a.76.76 0 00.44-.208c6.736-6.43 13.87-13.577 16.232-22.785a.865.865 0 00.595-.726c.95-7.663.81-15.395-.363-23.026-.053-.348-.269-.518-.522-.568" fill="#231F20" mask="url(#b)"/></g><path d="M266.439 187.337c-.633 3.566-1.613 7.98-4.798 10.163-3.283 2.25-8.036 2.204-11.556.56-3.246-1.517-5.602-4.358-6.678-7.705a.843.843 0 00.032-.739c-1.44-3.399-2.941-6.956-3.11-10.693-.161-3.567 1.15-6.829 2.89-9.876 1.663-2.91 3.468-5.924 5.655-8.473a17.77 17.77 0 011.524-1.57c-.301 1.266-.292 2.651-.164 3.866.339 3.216 1.664 6.248 3.577 8.836a28.531 28.531 0 006.5 6.35c1.982 1.387 4.46 2.103 6.622 1.065a36.668 36.668 0 01-.494 8.216m2.023-10.063a39.45 39.45 0 00-3.98-13.894 15.973 15.973 0 00-1.701-3.61.83.83 0 00-.301-.28 16.524 16.524 0 00-.755-1.454c-.863-1.452-2.145-2.789-3.69-3.404a.723.723 0 00-.656-.354c-.2.002-.39.024-.585.037a4.704 4.704 0 00-1.72.103.742.742 0 00-.402.255c-4.461 1.237-7.633 5.244-10.11 9.08-3.275 5.077-6.547 10.346-5.747 16.644.372 2.934 1.397 5.71 2.523 8.43.002.015-.003.028-.002.044 1.402 8.53 10.489 14.19 18.746 11.221 4.198-1.509 6.167-5.14 7.264-9.244a38.603 38.603 0 001.116-13.574m24.896 17.182c-2.042-2.717-4.135-5.396-6.188-8.104-1.987-2.618-4.385-6.168-2.517-9.49.519-.925-.902-1.756-1.422-.83-1.658 2.947-.716 6.327.997 9.018 2.084 3.272 4.684 6.274 7.036 9.355 1.344 1.76 6.01 8 1.415 8.763-1.946.323-3.975-.496-5.758-1.177a46.13 46.13 0 01-5.41-2.497c-.932-.503-1.765.92-.831 1.422 2.779 1.496 5.805 2.948 8.893 3.668 2.419.563 5.9.428 6.556-2.559.608-2.762-1.2-5.476-2.771-7.569m16.422-44.314c-4.072-3.508-9.534-4.211-14.705-4.562-1.058-.072-1.053 1.576 0 1.647 4.688.317 9.835.889 13.54 4.079.8.689 1.97-.471 1.165-1.164m4.31 32.2c-.42 2.666-1.36 5.735-3.324 7.694-1.16 1.158-3.087.81-4.575.586-1.544-.231-3.057-.701-4.343-1.608-4.5-3.18-5.117-10.122-5.7-15.116-.563-4.82-.549-10.031 1.175-14.577.755 3.617 2.681 7.058 6.123 8.703 3.015 1.439 7.434 1.328 9.663-1.275.496 2.233.784 4.519 1.012 6.783.294 2.915.426 5.905-.03 8.81m1.863-6.498c-.197-3.408-.623-6.887-1.418-10.208a27.757 27.757 0 00-.306-1.157.678.678 0 00-.112-.384c-.93-3.118-2.442-6.11-4.937-8.255a12.806 12.806 0 00-3.574-2.188c-.129-.102-.256-.207-.389-.305-1.025-.75-2.268-1.522-3.593-1.374a2.706 2.706 0 00-1.08.368.71.71 0 00-.897.152c-5.004 5.308-5.944 12.847-5.31 19.83.308 3.41.756 6.913 1.693 10.213.775 2.732 2.027 5.492 4.254 7.342 2.42 2.012 6.134 2.912 9.246 2.547 3.03-.356 4.703-4.306 5.497-6.842.982-3.13 1.115-6.487.926-9.74m-30.85 51.771c-2.054-3.333-1.613-7.919.83-10.933a.918.918 0 00.862-.702c.139-.489.424-.852.803-1.108 1.988 4.18.97 9.64-2.495 12.743m3.808-14.54a1.028 1.028 0 00-1.13-.46 3.97 3.97 0 00-2.425 1.75c-4.262 3.928-4.68 10.873-1.16 15.397.247.317.89.394 1.213.157 5.138-3.78 6.78-11.32 3.502-16.844m-37.744-69.791c-1.487 7.437-7.903 13.63-15.479 14.604-.54.07-.993.41-1 1-.004.487.465 1.068 1 1 8.431-1.085 15.73-7.685 17.408-16.073.251-1.257-1.676-1.794-1.929-.53" fill="#231F20"/></g></svg>