<?xml version="1.0" encoding="UTF-8"?>
<svg width="500px" height="600px" viewBox="0 0 500 600" version="1.1" xmlns="http://www.w3.org/2000/svg" xmlns:xlink="http://www.w3.org/1999/xlink">
    <title>cryingloudly</title>
    <defs>
        <polygon id="path-1" points="0.000162517026 0.084 173.375133 0.084 173.375133 192.102015 0.000162517026 192.102015"></polygon>
    </defs>
    <g id="cryingloudly" stroke="none" stroke-width="1" fill="none" fill-rule="evenodd">
        <g id="face" transform="translate(154.000000, 64.000000)">
            <g id="fill" transform="translate(32.340587, 61.628664)">
                <path d="M114.487913,82.0941363 C104.894913,81.3771363 95.6709126,85.1421363 85.9529126,84.5181363 C78.7019126,84.0531363 69.5539126,80.9801363 66.4959126,89.2581363 C66.0549126,90.4471363 66.2409126,91.4661363 66.7869126,92.2661363 C66.7679126,92.7691363 66.7889126,93.2891363 66.8839126,93.8401363 C69.4839126,108.993136 96.4759126,109.476136 108.876913,106.237136 C115.352913,104.544136 121.313913,100.728136 123.990913,95.0691363 C127.489913,87.6681363 123.135913,82.7401363 114.487913,82.0941363" id="Fill-1" fill="#FEFEFE"></path>
                <path d="M86.7535126,122.408536 C86.5665126,121.729536 86.2355126,121.128536 85.8175126,120.590536 C85.7655126,120.444536 85.7135126,120.298536 85.6495126,120.151536 C85.4625126,119.726536 85.0925126,119.508536 84.6845126,119.445536 C84.3885126,119.207536 84.0755126,118.987536 83.7515126,118.788536 C82.2735126,117.880536 80.5905126,117.254536 78.9875126,116.603536 C78.3725126,116.353536 77.7055126,116.013536 77.0265126,115.919536 C76.6225126,115.464536 75.8615126,115.338536 75.3325126,115.570536 C74.6545126,115.868536 74.2635126,116.603536 74.4645126,117.340536 C74.5195126,117.545536 74.5565126,117.750536 74.6015126,117.954536 C74.5835126,118.057536 74.5655126,118.161536 74.5545126,118.264536 C74.3165126,120.363536 74.4575126,122.484536 74.8095126,124.560536 C74.8685126,124.918536 75.1035126,125.199536 75.4035126,125.389536 L75.4095126,125.428536 C75.4045126,125.429536 75.3995126,125.429536 75.3955126,125.429536 C75.7945126,127.146536 77.1445126,128.572536 78.8345126,129.071536 C79.7195126,129.332536 80.6625126,129.310536 81.5405126,129.055536 C82.1105126,129.574536 83.1145126,129.676536 83.6775126,129.075536 C84.2165126,128.501536 84.6385126,127.838536 84.9605126,127.132536 C85.2225126,127.081536 85.4785126,126.977536 85.6945126,126.772536 C86.8735126,125.661536 87.1745126,123.932536 86.7535126,122.408536" id="Fill-3" fill="#E4C3A2"></path>
                <path d="M78.0338126,126.405636 C78.4438126,126.136636 78.7458126,125.704636 78.6838126,125.194636 C78.4728126,123.445636 78.2618126,121.695636 78.0508126,119.946636 C78.0098126,119.607636 77.9708126,119.272636 77.9188126,118.942636 C78.0038126,118.852636 78.0838126,118.753636 78.1528126,118.635636 C78.5178126,118.018636 78.4028126,117.209636 77.9918126,116.654636 C77.4978126,115.985636 76.5748126,115.772636 75.8378126,116.182636 C75.8288126,116.187636 75.8218126,116.196636 75.8128126,116.201636 C75.6708126,116.166636 75.5328126,116.124636 75.3798126,116.105636 C74.7948126,116.033636 74.0248126,116.619636 73.9328126,117.207636 C73.3508126,120.935636 73.8758126,124.650636 75.5048126,128.059636 C75.8528126,128.791636 76.8988126,128.982636 77.5558126,128.597636 C78.3048126,128.161636 78.4448126,127.279636 78.0948126,126.546636 C78.0728126,126.500636 78.0548126,126.451636 78.0338126,126.405636" id="Fill-5" fill="#C3996B"></path>
                <path d="M113.986013,91.4554363 C111.656013,90.8634363 109.293013,90.5214363 106.888013,90.8044363 C104.609013,91.0714363 102.168013,91.9884363 100.000013,92.9604363 C99.0970126,93.3654363 98.0450126,93.2314363 97.5040126,92.3064363 C97.0440126,91.5204363 97.2580126,90.2134363 98.1580126,89.8094363 C100.194013,88.8964363 102.246013,88.0914363 104.394013,87.5884363 C104.625013,87.1144363 105.033013,86.7264363 105.539013,86.6224363 C107.092013,86.3044363 108.577013,86.3664363 110.132013,86.6244363 C111.434013,86.8394363 112.711013,87.1814363 114.017013,87.3734363 C114.399013,87.4294363 114.702013,87.6414363 114.921013,87.9284363 C114.932013,87.9314363 114.944013,87.9334363 114.956013,87.9364363 C117.234013,88.5154363 116.263013,92.0334363 113.986013,91.4554363 M110.886013,101.032436 C107.455013,102.602436 104.040013,101.165436 100.529013,100.768436 C98.5110126,100.540436 96.5120126,101.054436 94.5580126,101.496436 C92.3410126,101.997436 90.1020126,102.479436 87.8160126,102.407436 C87.4980126,102.397436 87.2250126,102.316436 86.9930126,102.192436 C85.4150126,102.084436 84.4200126,99.7474363 86.1440126,98.8194363 C89.9790126,96.7584363 94.2560126,95.5324363 98.5860126,95.1454363 C102.789013,94.7694363 107.395013,95.3374363 110.886013,97.8814363 C111.873013,98.5994363 112.257013,100.404436 110.886013,101.032436 M83.9380126,95.0674363 C83.0660126,95.0314363 82.1910126,95.0274363 81.3220126,95.1044363 C81.2580126,95.1094363 80.8510126,95.1694363 80.8690126,95.1614363 C80.7160126,95.1864363 80.5640126,95.2124363 80.4130126,95.2454363 C80.0300126,95.3304363 79.6570126,95.4434363 79.2920126,95.5854363 C78.3390126,95.9534363 77.3260126,95.1744363 77.0470126,94.3094363 C76.7220126,93.3084363 77.4340126,92.4094363 78.3220126,92.0654363 C78.3940126,92.0374363 78.4720126,92.0244363 78.5470126,91.9994363 C78.6040126,91.9194363 78.6650126,91.8414363 78.7360126,91.7854363 C79.4540126,91.2254363 80.1550126,90.8154363 81.0200126,90.5134363 C81.7320126,90.2644363 82.4940126,90.1544363 83.2420126,90.0914363 C84.7290126,89.9654363 86.2730126,90.1944363 87.7040126,90.5974363 C88.3210126,90.7704363 88.7520126,91.2284363 88.9330126,91.7864363 C89.0610126,91.7944363 89.1890126,91.8064363 89.3180126,91.8134363 C90.3410126,91.8724363 91.0960126,92.6014363 91.1420126,93.6384363 C91.1850126,94.5834363 90.2730126,95.5174363 89.3180126,95.4624363 C87.5230126,95.3584363 85.7360126,95.1404363 83.9380126,95.0674363 M139.058013,65.6094363 C139.047013,65.1654363 138.963013,64.7534363 138.847013,64.3594363 C138.957013,62.5744363 138.906013,60.8064363 138.658013,58.9724363 C138.363013,56.7864363 138.239013,53.6484363 136.463013,52.0974363 C136.431013,52.0694363 136.397013,52.0504363 136.365013,52.0244363 C135.851013,49.8724363 135.234013,47.7484363 134.482013,45.6534363 C134.191013,44.8414363 133.700013,44.2574363 133.113013,43.8674363 C132.414013,41.5304363 131.681013,39.2044363 130.839013,36.9194363 C130.605013,36.2884363 130.246013,35.8084363 129.822013,35.4364363 C128.962013,33.1144363 128.115013,30.7764363 127.787013,28.3094363 C127.472013,25.9564363 127.097013,23.8314363 126.262013,21.5934363 C126.237013,21.5254363 126.199013,21.4734363 126.172013,21.4074363 C126.277013,19.4254363 126.421013,17.4444363 126.648013,15.4704363 C126.673013,15.2574363 126.662013,15.0494363 126.632013,14.8454363 C126.757013,14.1064363 126.635013,13.4584363 126.341013,12.9164363 C126.836013,11.8514363 127.365013,10.8034363 127.965013,9.77243633 C127.992013,9.73343633 128.021013,9.70043633 128.049013,9.66143633 C128.591013,8.87043633 129.132013,8.07943633 129.674013,7.28843633 C132.958013,2.49643633 126.263013,-2.03556367 122.256013,0.963436335 C122.090013,1.06943633 121.927013,1.18643633 121.770013,1.31743633 C119.771013,1.23743633 117.750013,2.29443633 116.951013,4.84743633 L116.656013,5.79043633 C116.416013,5.87343633 116.177013,5.98343633 115.942013,6.12643633 C114.916013,2.12843633 109.273013,-0.119563665 107.007013,4.52443633 C106.991013,4.55843633 106.976013,4.59243633 106.959013,4.62543633 C105.079013,4.38343633 103.103013,5.07343633 102.117013,6.98343633 C101.491013,8.19943633 100.900013,9.42743633 100.330013,10.6614363 C99.7380126,10.5714363 99.1270126,10.5764363 98.5230126,10.6844363 C98.9630126,8.25043633 97.8790126,6.42943633 96.2670126,5.48743633 C93.9110126,2.43343633 87.5760126,3.53943633 87.1360126,8.59743633 C87.1140126,8.86243633 87.0840126,9.12643633 87.0600126,9.39243633 C86.9700126,9.22843633 86.8850126,9.06343633 86.7790126,8.90943633 C86.7560126,8.73543633 86.7320126,8.56143633 86.7090126,8.38943633 C86.3650126,5.87543633 82.8360126,4.02643633 80.5580126,4.89643633 C79.5290126,5.28943633 78.5300126,5.71043633 77.5450126,6.14943633 C77.0210126,3.02643633 73.8630126,0.519436335 70.3160126,2.61243633 C69.4570126,3.11943633 68.6270126,3.66543633 67.7910126,4.20243633 C66.5590126,4.14443633 65.2870126,4.54243633 64.2090126,5.57343633 L56.9140126,12.5454363 C56.8710126,12.5324363 56.8280126,12.5244363 56.7870126,12.5134363 C57.2990126,7.55143633 50.3750126,5.64743633 47.4310126,9.73943633 C46.2240126,11.4194363 45.0860126,13.1324363 44.0000126,14.8724363 C43.5530126,12.1424363 40.4920126,10.8044363 37.8880126,11.2714363 C35.4610126,10.4484363 32.4760126,11.2844363 31.5210126,14.5124363 C31.0860126,15.9824363 30.6320126,17.4474363 30.1720126,18.9084363 C30.0420126,19.0794363 29.9180126,19.2574363 29.8040126,19.4544363 C28.1110126,22.4094363 26.3350126,25.3114363 24.4310126,28.1364363 C24.3240126,27.6774363 24.2190126,27.2164363 24.1110126,26.7574363 C22.7540126,21.0084363 14.6770126,22.6944363 14.2900126,28.0854363 C14.2810126,28.2084363 14.2780126,28.3314363 14.2700126,28.4544363 C13.0530126,29.2224363 12.1250126,30.5654363 11.9370126,32.5094363 C11.7120126,34.8454363 12.1190126,37.3154363 13.0660126,39.4094363 C13.7360126,42.3724363 14.6440126,45.2574363 15.7960126,48.1534363 C15.8040126,48.1924363 15.8100126,48.2294363 15.8180126,48.2684363 C15.8250126,48.2664363 15.8320126,48.2634363 15.8380126,48.2604363 C15.9980126,48.6614363 16.1530126,49.0614363 16.3220126,49.4624363 C16.9470126,50.9384363 17.9940126,51.6984363 19.1600126,51.9424363 C19.9410126,56.0024363 20.9210126,60.0254363 22.1190126,64.0084363 C21.6110126,64.1064363 21.1050126,64.2664363 20.6140126,64.5314363 C20.2610126,64.7224363 19.9080126,64.9154363 19.5470126,65.0924363 C19.6130126,65.0514363 19.5290126,65.0714363 19.3810126,65.1184363 C19.2480126,65.0114363 19.1110126,64.9074363 18.9710126,64.8104363 C17.2130126,61.7724363 14.9040126,59.0614363 12.1130126,56.8884363 C10.9330126,55.9704363 9.52601259,55.4344363 8.15301259,55.4904363 C7.80001259,55.4174363 7.42801259,55.3724363 7.02401259,55.3744363 C4.49801259,55.3844363 2.46301259,56.5674363 1.32801259,58.8394363 C0.00901258704,61.4774363 0.947012587,64.0914363 2.25901259,66.4854363 C2.58201259,70.1964363 5.30801259,73.2594363 7.59401259,76.0974363 C10.2670126,79.4124363 13.2650126,82.5434363 16.5700126,85.2354363 C19.5370126,87.6544363 23.6970126,88.6404363 26.4470126,85.2864363 C28.1520126,83.2094363 28.0010126,81.2744363 27.2570126,78.8324363 C27.2480126,78.8014363 27.2400126,78.7704363 27.2300126,78.7394363 C27.2790126,78.7414363 27.3240126,78.7474363 27.3750126,78.7474363 C27.6890126,78.7474363 27.9840126,78.7164363 28.2670126,78.6714363 C28.7280126,83.5554363 30.9350126,88.3604363 33.4550126,92.8474363 C33.9700126,93.7664363 34.6340126,94.3924363 35.3670126,94.7824363 C36.7730126,96.9934363 38.7910126,98.4424363 40.9860126,100.178436 C42.1620126,101.106436 43.3100126,102.160436 44.6230126,102.890436 C45.7360126,103.508436 47.2470126,103.688436 47.9680126,104.245436 C48.6830126,104.798436 49.5470126,105.012436 50.4250126,104.979436 C58.5390126,108.986436 67.6150126,111.487436 75.9740126,114.416436 C78.4530126,115.284436 81.4240126,116.747436 84.2110126,116.921436 C84.8150126,117.234436 85.4260126,117.526436 86.0450126,117.790436 C86.2390126,117.989436 86.4490126,118.175436 86.6870126,118.339436 C88.2070126,119.385436 89.4270126,119.736436 91.2690126,119.550436 C91.4160126,119.534436 91.5540126,119.509436 91.6950126,119.483436 C93.1100126,119.736436 94.5430126,119.867436 95.9820126,119.874436 C96.1040126,119.893436 96.2210126,119.926436 96.3450126,119.938436 C97.5010126,120.058436 98.6540126,120.050436 99.7930126,119.948436 C100.191013,120.075436 100.631013,120.151436 101.103013,120.177436 C101.236013,120.202436 101.368013,120.228436 101.500013,120.255436 C102.831013,120.518436 104.152013,120.454436 105.353013,119.751436 C105.422013,119.711436 105.486013,119.655436 105.554013,119.610436 C111.148013,117.968436 115.012013,113.081436 118.173013,108.084436 C118.535013,107.513436 118.759013,106.946436 118.875013,106.396436 C120.470013,104.538436 121.933013,102.601436 123.277013,100.592436 C124.203013,100.439436 125.136013,99.9364363 125.976013,98.9644363 C126.125013,98.7924363 126.264013,98.6174363 126.410013,98.4444363 C128.472013,97.6454363 129.474013,95.9414363 129.630013,94.1634363 C129.650013,94.1324363 129.672013,94.1004363 129.693013,94.0674363 C130.048013,93.8404363 130.402013,93.5614363 130.745013,93.2114363 L132.490013,91.4314363 C133.384013,90.5184363 133.834013,89.5274363 133.950013,88.5584363 C135.338013,86.2184363 136.445013,83.7614363 137.251013,81.1184363 C137.302013,80.9854363 137.369013,80.8654363 137.412013,80.7244363 C138.632013,76.5754363 139.318013,72.3804363 139.595013,68.0684363 C139.657013,67.1104363 139.441013,66.2964363 139.058013,65.6094363" id="Fill-7" fill="#E4C3A2"></path>
                <path d="M116.006513,113.028736 C115.945513,112.842736 115.842513,112.681736 115.695513,112.546736 C115.410513,112.283736 115.034513,112.089736 114.635513,112.106736 C114.502513,112.124736 114.369513,112.142736 114.236513,112.160736 C113.983513,112.231736 113.762513,112.360736 113.574513,112.546736 L111.899513,113.870736 C111.829513,113.893736 111.760513,113.899736 111.692513,113.931736 C110.422513,114.547736 109.152513,115.162736 107.884513,115.777736 C107.551513,115.605736 107.185513,115.507736 106.796513,115.538736 C99.7895126,116.090736 92.8295126,115.319736 86.1215126,113.219736 C85.6975126,113.087736 85.3115126,113.072736 84.9615126,113.133736 C76.2885126,109.997736 67.6905126,106.664736 59.1645126,103.146736 C58.9345126,102.486736 58.4325126,101.914736 57.5795126,101.644736 C46.7805126,98.2267363 35.2035126,91.1247363 34.0345126,78.7247363 C33.9075126,77.3817363 32.9765126,76.2247363 31.5345126,76.2247363 C31.1745126,76.2247363 30.8075126,76.3287363 30.4645126,76.4967363 C29.6235126,75.9717363 28.5135126,75.8227363 27.5925126,76.1687363 C27.2455126,76.2987363 26.9595126,76.4657363 26.6825126,76.6647363 C26.6415126,76.6617363 26.5995126,76.6527363 26.5585126,76.6547363 C26.1235126,76.6747363 25.7785126,76.8367363 25.5275126,77.0927363 C25.1875126,77.2377363 24.8635126,77.3997363 24.5745126,77.5817363 C23.9355126,77.9807363 23.3905126,78.4977363 22.9825126,79.1327363 C22.6225126,79.6897363 22.4715126,80.4857363 22.2295126,80.9477363 C22.0955126,81.1997363 22.2275126,80.9797363 22.0505126,81.1527363 C22.1385126,81.0667363 22.0415126,81.1147363 21.9905126,81.1517363 C18.9835126,80.6777363 16.5265126,78.2627363 14.4555126,76.1767363 C11.9875126,73.6897363 9.69451259,70.8987363 8.93151259,67.3967363 C8.87551259,67.1417363 8.77151259,66.9387363 8.63851259,66.7787363 C8.59451259,65.6827363 8.75151259,64.5827363 9.19151259,63.5157363 C9.69051259,62.3047363 10.6285126,61.0947363 11.9025126,60.6497363 C13.0415126,61.1937363 14.0965126,61.9277363 15.0005126,62.8497363 C15.6855126,63.5487363 16.5645126,63.3497363 17.0925126,62.8057363 C18.0155126,62.6747363 18.8865126,61.6577363 18.3325126,60.5497363 C17.2005126,58.2847363 14.6555126,57.2577363 12.2545126,57.5377363 C11.9565126,57.1017363 11.5895126,56.7457363 11.1595126,56.4667363 C10.9185126,56.0147363 10.4865126,55.6647363 9.90751259,55.6487363 C9.16051259,55.6277363 8.43451259,55.7007363 7.71851259,55.8167363 C6.72551259,55.6937363 5.71851259,55.7727363 4.71551259,56.2117363 C4.28951259,56.3967363 3.94151259,56.6417363 3.62551259,56.9097363 C3.32351259,56.7707363 2.98651259,56.7127363 2.65051259,56.7957363 C-0.748487413,57.6427363 -0.108487413,62.2447363 0.433512587,64.7677363 C0.851512587,66.7157363 1.58351259,68.5717363 2.56051259,70.2917363 C3.04151259,71.6217363 3.70851259,72.9107363 4.39551259,74.0747363 C4.65951259,74.5237363 5.13251259,74.7187363 5.61351259,74.7407363 C6.64351259,76.3037363 7.71751259,77.8387363 8.83951259,79.3387363 C9.28751259,79.9367363 10.0825126,80.3067363 10.7935126,79.9247363 C12.7235126,83.2577363 15.2315126,86.4547363 19.3055126,86.9817363 C19.5435126,87.0127363 19.7795126,87.0267363 20.0145126,87.0327363 C20.8045126,87.3637363 21.6595126,87.5337363 22.4675126,87.3927363 C22.4825126,87.4077363 22.4865126,87.4297363 22.5015126,87.4437363 C23.1195126,88.0107363 24.0075126,88.0137363 24.6225126,87.4437363 C25.6895126,86.4577363 26.3875126,85.2517363 26.8795126,83.9497363 C27.6115126,83.0107363 27.9785126,81.8497363 27.7405126,80.5947363 C27.7695126,80.4157363 27.7835126,80.2387363 27.8105126,80.0597363 C27.8265126,80.0137363 27.8405126,79.9667363 27.8585126,79.9217363 C27.9265126,79.7767363 28.0115126,79.6407363 28.0945126,79.5047363 L28.0965126,79.5047363 C28.1515126,79.4947363 28.1555126,79.4927363 28.1515126,79.4907363 C28.1645126,79.4907363 28.1795126,79.4907363 28.2265126,79.4877363 C28.3625126,79.4797363 28.4945126,79.4837363 28.6315126,79.4857363 L28.6695126,79.4857363 C28.6695126,79.4887363 28.6765126,79.4917363 28.6895126,79.4957363 C28.7775126,79.8097363 28.9775126,80.0857363 29.2415126,80.2827363 C30.2395126,86.8687363 33.5475126,92.7197363 38.6185126,97.1207363 C42.7865126,100.736736 47.6865126,103.335736 52.8305126,105.271736 C53.1555126,105.826736 53.7035126,106.260736 54.3555126,106.533736 C64.3635126,110.734736 74.4805126,114.672736 84.6945126,118.343736 C85.1025126,118.491736 85.5285126,118.478736 85.9335126,118.368736 C92.6855126,120.331736 99.7855126,121.090736 106.796513,120.538736 C107.561513,120.478736 108.260513,120.137736 108.721513,119.592736 C108.834513,119.560736 108.944513,119.518736 109.045513,119.455736 L112.044513,117.572736 C112.342513,117.384736 112.578513,117.101736 112.697513,116.768736 C112.866513,116.686736 113.036513,116.604736 113.206513,116.522736 C113.211513,116.519736 113.216513,116.514736 113.221513,116.512736 C113.443513,116.437736 113.642513,116.324736 113.810513,116.157736 L115.695513,114.667736 C115.842513,114.531736 115.945513,114.370736 116.006513,114.184736 C116.100513,114.006736 116.143513,113.813736 116.136454,113.606736 C116.143513,113.400736 116.100513,113.207736 116.006513,113.028736" id="Fill-9" fill="#C3996B"></path>
                <path d="M65.7096126,5.72093181 C64.8196126,5.71103633 64.3056126,6.42003633 64.2096126,7.22103633 C63.6776126,11.6800363 61.3556126,16.0930363 57.6776126,18.7420363 C53.8386126,21.5070363 48.8306126,22.2350363 44.4086126,20.5310363 C44.3416126,20.5050363 44.2786126,20.4930363 44.2146126,20.4780363 C43.9456126,20.2740363 43.6186126,20.1460363 43.2986126,20.1460363 C43.1566126,20.1460363 43.0266126,20.1700363 42.9016126,20.2040363 C42.9076126,20.1170363 42.9096126,20.0310363 42.9136126,19.9440363 C44.1826126,19.5360363 44.5086126,17.4330363 42.9156126,17.0860363 L41.1696126,16.7050363 C40.0876126,15.1840363 38.5926126,12.9960363 36.6726126,14.3200363 C36.2516126,14.6100363 35.9746126,15.0370363 35.7636126,15.5080363 C35.6396126,15.5790363 35.5196126,15.6630363 35.4146126,15.7870363 C34.5316126,16.8300363 34.0326126,18.1150363 34.0386126,19.4340363 C32.9626126,22.5610363 31.7726126,25.6490363 30.4586126,28.6840363 C30.3046126,29.0390363 30.2886126,29.4030363 30.3666126,29.7330363 C27.3456126,30.7410363 24.6466126,32.4390363 22.4756126,34.7630363 C22.3536126,34.6700363 22.2206126,34.5920363 22.0766126,34.5380363 C20.9946126,34.1370363 19.9396126,34.1190363 18.8176126,34.3460363 C18.7006126,34.3700363 18.5966126,34.4100363 18.4996126,34.4600363 C18.3296126,34.4650363 18.1606126,34.4810363 17.9906126,34.4990363 C17.0426126,34.0860363 15.7656126,34.6460363 15.8556126,35.7880363 C15.4246126,36.0960363 15.1936126,36.6180363 15.4586126,37.2820363 L19.7716126,48.0880363 C19.7716126,48.0900363 19.7716126,48.0910363 19.7726126,48.0920363 C19.8276126,48.3050363 19.8836126,48.5170363 19.9376126,48.7290363 C20.3606126,51.1780363 20.7836126,53.6260363 21.2076126,56.0750363 C21.3286126,56.7790363 21.9996126,57.1410363 22.6646126,57.1410363 C22.5196126,57.4170363 22.3746126,57.6950363 22.2296126,57.9700363 C21.3256126,59.6750363 23.9146126,61.1930363 24.8186126,59.4840363 C26.7076126,55.9160363 28.4346126,52.3550363 28.8786126,48.2920363 C29.2476126,44.9280363 28.7996126,41.5410363 28.2206126,38.2110363 C29.6666126,38.2590363 31.1176126,38.0610363 32.4936126,37.5900363 C34.8576126,36.7820363 36.7236126,35.2670363 38.4476126,33.4980363 C41.1676126,30.7100363 43.5256126,27.4870363 44.4396126,23.7100363 C49.4686126,25.3180363 55.2306126,24.2690363 59.4636126,21.1330363 C63.9436126,17.8150363 66.5556126,12.6980363 67.2096126,7.22103633 C67.3066126,6.40903633 66.4506126,5.72903633 65.7096126,5.72093181" id="Fill-11" fill="#C3996B"></path>
                <path d="M56.9625126,105.547236 C56.7375126,105.198236 56.4485126,105.009236 56.0665126,104.858236 C54.7265126,104.325236 53.3875126,103.794236 52.0475126,103.262236 C51.8035126,103.165236 51.4685126,103.197236 51.1875126,103.287236 C51.1655126,103.258236 51.1495126,103.227236 51.1265126,103.198236 C49.7835126,101.502236 47.7935126,100.662236 45.9125126,99.7182363 C44.0205126,98.7682363 42.2155126,97.6212363 40.5865126,96.2662363 C39.7005126,95.5292363 38.8695126,94.7412363 38.0845126,93.9122363 C38.2205126,93.4112363 38.0665126,92.8652363 37.7135126,92.4322363 C34.6785126,88.7022363 31.5465126,84.7562363 30.7085126,79.8912363 C30.5705126,79.0922363 29.5895126,78.6442363 28.8625126,78.8432363 C28.0185126,79.0752363 27.6775126,79.8872363 27.8155126,80.6892363 C28.2055126,82.9542363 29.0595126,85.0432363 30.1615126,87.0112363 C30.1355126,87.2722363 30.1715126,87.5502363 30.3065126,87.8352363 C32.1745126,91.7952363 34.9055126,95.3692363 38.2455126,98.2022363 C39.9105126,99.6152363 41.7105126,100.875236 43.6345126,101.911236 C45.5025126,102.918236 47.6465126,103.603236 49.0045126,105.319236 C49.3535126,105.761236 49.9835126,105.837236 50.5135126,105.671236 C50.7115126,105.892236 50.9515126,106.036236 51.2495126,106.154236 C52.5895126,106.687236 53.9295126,107.218236 55.2685126,107.750236 C55.6075126,107.885236 56.1235126,107.776236 56.4245126,107.599236 C56.7355126,107.417236 57.0325126,107.060236 57.1135126,106.702236 C57.2005126,106.318236 57.1825126,105.888236 56.9625126,105.547236" id="Fill-13" fill="#C3996B"></path>
                <path d="M18.5289126,62.8626363 C17.0629126,60.8886363 14.8279126,59.0926363 12.2159126,59.2876363 C9.72291259,59.4736363 7.39791259,61.4056363 7.39291259,64.0236363 C7.39291259,64.1296363 7.40591259,64.2316363 7.42791259,64.3326363 C5.91091259,66.6286363 5.73491259,69.7166363 6.98691259,72.1836363 C7.35291259,72.9066363 8.36991259,73.1136363 9.03891259,72.7216363 C9.77291259,72.2926363 9.94491259,71.3946363 9.57691259,70.6696363 C9.56391259,70.6446363 9.47791259,70.4566363 9.45891259,70.4236363 C9.41391259,70.3076363 9.37291259,70.1906363 9.33591259,70.0726363 C9.29291259,69.9316363 9.25491259,69.7896363 9.22191259,69.6446363 C9.20091259,69.5496363 9.18091259,69.4536363 9.16391259,69.3556363 C9.15591259,69.3066363 9.15391259,69.2936363 9.14991259,69.2676363 C9.15991259,69.3386363 9.13291259,68.9986363 9.13091259,68.9486363 C9.12491259,68.7996363 9.12391259,68.6526363 9.12791259,68.5056363 C9.13191259,68.3566363 9.14091259,68.2096363 9.15391259,68.0616363 C9.15691259,68.0336363 9.15691259,68.0356363 9.15791259,68.0236363 C9.16591259,67.9736363 9.17391259,67.9246363 9.18291259,67.8746363 C9.24291259,67.5586363 9.32391259,67.2476363 9.42891259,66.9446363 C9.44091259,66.9106363 9.51791259,66.7226363 9.53091259,66.6846363 C9.58291259,66.5736363 9.63491259,66.4646363 9.69291259,66.3566363 C9.82491259,66.1136363 9.97391259,65.8746363 10.1429126,65.6536363 C10.1809126,65.6136363 10.2979126,65.4786363 10.3119126,65.4626363 C10.4129126,65.3536363 10.5169126,65.2496363 10.6269126,65.1496363 C10.6279126,65.1486363 10.8199126,64.9876363 10.8419126,64.9636363 C10.9499126,64.8846363 11.0609126,64.8096363 11.1739126,64.7406363 C11.3039126,64.6606363 11.4379126,64.5856363 11.5739126,64.5146363 C11.5749126,64.5146363 11.7759126,64.4246363 11.8249126,64.3996363 C12.0939126,64.2966363 12.3709126,64.2106363 12.6519126,64.1456363 C12.7769126,64.1166363 12.9029126,64.0926363 13.0299126,64.0726363 C13.0769126,64.0706363 13.2799126,64.0486363 13.3159126,64.0466363 C13.6259126,64.0276363 13.9289126,64.0426363 14.2379126,64.0546363 C14.2999126,64.0576363 14.3309126,64.0576363 14.3499126,64.0566363 C14.3649126,64.0616363 14.3909126,64.0686363 14.4479126,64.0806363 C14.5979126,64.1096363 14.7479126,64.1386363 14.8969126,64.1766363 C15.5679126,64.3476363 15.8439126,64.4766363 16.4759126,64.9146363 C17.0179126,65.2896363 17.8499126,65.1246363 18.2949126,64.6796363 C18.7289126,64.2456363 18.9209126,63.3886363 18.5289126,62.8626363" id="Fill-15" fill="#C3996B"></path>
                <path d="M84.8034126,42.3216363 C84.4064126,40.6206363 84.0384126,38.8816363 83.4184126,37.2456363 C82.8364126,35.7096363 81.8144126,34.3586363 81.2754126,32.8236363 C80.8264126,31.5506363 79.5664126,30.7026363 78.1994126,31.0776363 C76.9644126,31.4176363 76.0034126,32.8736363 76.4534126,34.1536363 C77.0044126,35.7216363 77.9834126,37.0466363 78.5974126,38.5746363 C79.1994126,40.0726363 79.5224126,41.7086363 79.8934126,43.2746363 C80.6694126,46.5546363 81.3374126,49.8716363 81.7574126,53.2176363 C81.9254126,54.5566363 82.7854126,55.7176363 84.2574126,55.7176363 C85.4784126,55.7176363 86.9264126,54.5656363 86.7574126,53.2176363 C86.2974126,49.5506363 85.6444126,45.9206363 84.8034126,42.3216363" id="Fill-17" fill="#E4C3A2"></path>
                <path d="M129.838513,43.4603363 C129.702513,42.2473363 129.567513,41.0343363 129.430513,39.8213363 C129.406513,39.6123363 129.278513,39.4793363 129.124513,39.4073363 C129.123513,39.2913363 129.106513,39.1773363 129.111513,39.0603363 C129.140513,38.4163363 128.140513,38.4173363 128.111513,39.0603363 C128.044513,40.5383363 128.483513,41.9563363 128.800513,43.3843363 C128.824513,43.4953363 128.844513,43.6083363 128.867513,43.7203363 C129.026513,45.1363363 129.185513,46.5523363 129.344513,47.9683363 C129.413513,48.5913363 130.340513,48.6273363 130.344513,47.9683363 C130.352513,46.4503363 130.150513,44.9423363 129.838513,43.4603363" id="Fill-19" fill="#E4C3A2"></path>
                <path d="M84.9635126,56.4027363 C84.1685126,56.4407363 83.3815126,56.4987363 82.6005126,56.5677363 C81.8595126,56.3817363 81.0285126,56.3707363 80.1195126,56.6017363 C79.4185126,56.7807363 78.7225126,56.9717363 78.0265126,57.1597363 C69.5825126,58.5797363 61.7985126,61.7047363 53.8595126,65.4347363 C48.3985126,68.0017363 52.5255126,75.7507363 57.8435126,74.4477363 C58.5195126,74.4387363 59.2245126,74.2967363 59.9415126,73.9827363 C66.6345126,71.0597363 73.5355126,68.7177363 80.5815126,66.8247363 C82.0165126,66.6217363 83.4735126,66.4727363 84.9635126,66.4027363 C91.3705126,66.0977363 91.4075126,56.0967363 84.9635126,56.4027363" id="Fill-21" fill="#E4C3A2"></path>
                <path d="M130.496713,48.8138363 C129.859713,48.8138363 129.288713,48.9138363 128.778713,49.0908363 C128.721713,49.0888363 128.667713,49.0838363 128.609713,49.0838363 C128.326713,49.0838363 128.060713,49.1088363 127.803713,49.1458363 C127.023713,48.9778363 126.193713,48.9528363 125.367713,49.0818363 C124.993713,49.1398363 124.629713,49.2198363 124.259713,49.2848363 C122.671713,49.2828363 121.087713,49.3878363 119.513713,49.7158363 C116.967713,50.2438363 114.679713,51.5188363 112.166713,52.1638363 C111.498713,52.3348363 110.938713,52.6018363 110.468713,52.9348363 C110.276713,53.0208363 110.083713,53.1198363 109.890713,53.2338363 L109.116713,53.6928363 C108.466713,53.9578363 107.815713,54.2268363 107.166713,54.5088363 C104.670713,55.5908363 104.152713,59.2048363 105.373713,61.3488363 C105.886713,62.2518363 106.584713,62.8588363 107.371713,63.2398363 C107.736713,64.8018363 108.811713,66.1258363 110.743713,66.4818363 C114.637713,67.2008363 118.534713,67.8888363 122.438713,68.5458363 C125.138713,69.0008363 127.174713,67.4878363 128.122713,65.5288363 C131.190713,65.1028363 133.790713,61.5738363 132.257713,58.5198363 C136.862713,56.8778363 136.286713,48.8138363 130.496713,48.8138363" id="Fill-23" fill="#E4C3A2"></path>
            </g>
            <g id="outline" transform="translate(0.000000, 0.916000)">
                <g id="Group-30">
                    <mask id="mask-2" fill="white">
                        <use xlink:href="#path-1"></use>
                    </mask>
                    <g id="Clip-29"></g>
                    <path d="M171.0482,137.3859 C170.9032,137.5149 170.7922,137.6879 170.7622,137.9199 C169.5322,147.5449 162.4282,154.9569 155.6852,161.4389 C155.3622,161.3509 154.9872,161.4199 154.7382,161.7529 C150.6492,167.2129 148.0462,174.3569 142.1722,178.2569 C135.6442,182.5909 127.3672,181.2159 120.2962,179.1599 C116.3592,178.0159 112.5022,176.5929 108.6292,175.2519 C104.2832,173.7479 99.9392,172.2429 95.5932,170.7399 C87.9342,168.0879 80.0712,165.5149 73.3782,160.8089 C67.2362,156.4899 62.1392,149.8729 61.3942,142.2619 C61.3822,142.1729 61.3772,142.0839 61.3612,141.9949 C61.3172,141.4609 61.2912,140.9229 61.2912,140.3799 C61.2902,139.5659 60.3222,139.3819 59.8722,139.8209 C59.3972,139.9429 58.9962,140.4619 59.3072,141.0249 C59.5352,141.4389 59.6712,141.8779 59.7482,142.3229 C59.7652,142.5039 59.7812,142.6849 59.8032,142.8639 C59.8692,144.2729 59.2892,145.7079 58.2982,146.7449 C57.4492,147.6329 56.3582,148.1419 55.1932,148.3689 C54.8832,148.1629 54.5222,148.0429 54.1362,148.0699 C50.5762,148.3219 47.9102,145.0959 45.7252,142.7269 C42.8612,139.6229 40.1362,136.3869 37.5832,133.0219 C37.3712,132.7409 37.1112,132.5119 36.8262,132.3409 C36.7142,132.1489 36.5932,131.9609 36.4832,131.7669 C36.4772,131.7539 36.4712,131.7409 36.4652,131.7299 C36.4572,131.7139 36.4452,131.7029 36.4382,131.6889 C35.0862,129.2899 33.9882,126.7679 33.5092,124.0379 C33.2802,122.7339 33.2602,121.3619 33.5142,120.0479 C33.6402,119.9319 33.7592,119.7999 33.8642,119.6369 C34.9282,117.9939 36.6942,116.9089 38.5942,116.5359 C39.3822,116.6849 40.1802,116.6429 40.9352,116.4469 C41.3292,116.4939 41.7202,116.5739 42.1032,116.6899 C43.9482,117.2489 45.7142,118.6349 47.1942,119.8439 C48.7972,121.1549 50.1482,122.6169 51.0012,124.5219 C51.3432,125.2829 52.2752,125.5909 53.0782,125.4599 C53.3592,125.5239 53.6352,125.5319 53.8972,125.4909 C54.0602,125.4899 54.2132,125.4489 54.3442,125.3649 C54.8962,125.1449 55.3392,124.6929 55.5372,124.0629 C55.8912,122.9389 56.0102,121.8259 55.9532,120.7339 C56.0122,120.5409 56.0692,120.3499 56.1272,120.1569 C56.2282,119.8239 56.0622,119.4419 55.7712,119.2519 C55.5672,118.1719 55.2132,117.1139 54.7682,116.0819 C53.4952,109.0589 50.8122,102.3309 46.8592,96.3719 L48.4812,96.9899 C49.7572,97.4769 51.0672,98.1199 52.4232,98.3399 C53.5472,98.5229 54.5972,98.2619 55.4132,97.6389 C56.1262,97.9639 56.9752,97.9949 57.6542,97.5309 C59.3022,96.4039 60.7302,95.0759 61.9422,93.5309 C62.3572,93.0809 62.7222,92.5839 63.0082,92.0319 C63.1162,91.8239 63.1872,91.6189 63.2392,91.4179 C64.3072,89.7129 65.1592,87.8719 65.7722,85.9539 C68.4622,83.5629 69.2832,79.6619 69.2132,76.0009 C71.9852,79.3199 76.0612,81.4739 80.3882,81.9489 C85.9862,82.5659 91.3792,79.9259 94.7522,75.4969 C95.7052,74.2459 96.4522,72.8709 97.0062,71.4229 C97.2962,70.9069 97.5732,70.3849 97.8362,69.8559 C100.0572,73.5319 103.5772,76.4919 107.8262,77.3909 C112.8882,78.4609 118.0032,76.0769 120.5132,71.5449 C121.0582,70.5619 121.4302,69.5039 121.6352,68.4209 C121.9752,70.3099 122.5732,71.9479 124.0662,73.4409 C124.7102,74.0849 125.5282,74.6559 126.4202,75.1059 C127.9132,76.4769 129.7772,77.3779 132.1522,77.4499 C135.0272,77.5379 137.4762,75.7819 138.8612,73.3479 C139.9162,71.4949 140.3032,69.4359 140.4232,67.3429 C142.5002,70.4139 146.1232,72.4679 149.8862,72.2169 C153.7972,71.9559 157.1802,69.4299 158.8382,66.0089 C159.6522,66.4509 160.5352,66.7559 161.4602,66.9009 C161.5422,66.9399 161.6192,66.9879 161.7032,67.0239 C157.4142,72.4069 157.7182,80.3679 159.0822,86.7709 C160.6862,94.2959 164.1272,101.2539 166.9412,108.3659 C168.5622,112.4669 169.9902,116.6519 170.7912,120.9959 C170.8082,121.0859 170.8472,121.1519 170.8822,121.2199 C171.4692,126.5889 171.5232,132.0049 171.0482,137.3859 M117.8832,188.8349 C117.1192,189.6029 115.9012,189.9819 114.8752,190.2389 C113.7792,190.5129 112.5172,190.6419 111.4572,190.1569 C110.3372,189.6439 109.8642,188.4459 109.1062,187.5539 C108.7652,187.1539 108.3692,186.8629 107.9382,186.5719 C107.2822,186.1279 107.3522,185.6849 107.3302,184.9359 C107.2492,182.1359 107.1682,179.3349 107.0872,176.5349 C110.5702,177.7419 114.0602,178.9279 117.5672,180.0449 C117.5612,180.1429 117.5662,180.2449 117.6022,180.3579 C118.0742,181.8179 118.4032,183.3169 118.5222,184.8479 C118.6192,186.1059 118.8592,187.8539 117.8832,188.8349 M106.4552,3.6919 C105.7522,4.2209 104.9322,4.6619 104.0512,4.9889 C104.8062,4.4849 105.6122,4.0489 106.4552,3.6919 M136.7942,73.4409 C136.8192,73.4129 136.8442,73.3809 136.8682,73.3539 C135.8132,74.7409 134.3262,75.6979 132.5432,75.7819 C134.1462,75.4079 135.6632,74.6719 136.7942,73.4409 M143.5782,68.4159 C142.5952,67.5849 141.7742,66.5579 141.1932,65.4049 C141.9152,66.4679 142.7142,67.4769 143.5782,68.4159 M171.5002,116.7339 C167.9882,103.8099 159.5952,92.0199 159.8552,78.3009 C159.9282,74.4409 160.8552,70.4299 163.4792,67.5049 C163.9122,67.5579 164.3512,67.5719 164.7852,67.5309 C168.1542,67.2119 170.7352,64.4909 171.9512,61.4929 C173.4152,57.8859 173.4802,53.5769 173.3082,49.7399 C173.1832,46.9779 172.7312,44.1559 171.6812,41.5809 C171.2992,40.2199 170.5812,39.0019 169.6522,37.9809 C168.0102,35.8019 165.7902,34.0499 163.2032,33.2119 C163.1912,33.1789 163.1752,33.1469 163.1632,33.1139 C163.6032,30.9639 163.9002,28.6319 162.8152,26.6339 C162.4212,25.9109 161.8802,25.3109 161.2422,24.8699 C160.7512,22.8709 159.9432,21.0879 158.5402,19.6219 C158.1392,18.7569 157.5722,17.9689 156.8192,17.3269 C155.5442,16.2409 153.8752,15.7079 152.2412,15.7999 C151.7432,14.6939 151.0342,13.6469 150.0822,12.6939 C146.8422,9.4529 140.6902,8.1849 136.7522,10.9739 C136.4592,11.1819 136.1642,11.3959 135.8672,11.6099 C135.1262,8.8609 133.1882,6.5939 130.7022,5.1849 C130.5082,5.0309 130.3212,4.8689 130.1132,4.7279 C128.0402,3.3169 125.3352,2.7479 122.9072,3.3419 C122.3382,2.7839 121.7072,2.2929 121.0282,1.8699 C120.5282,1.2759 119.8552,0.8029 119.0992,0.5489 C118.2872,0.2779 117.4352,0.2119 116.5792,0.2259 C114.6382,-0.0761 112.6142,0.0949 110.7382,0.8179 C110.5512,0.8489 110.3612,0.8679 110.1752,0.9029 C106.6942,1.5449 103.1602,3.0479 100.7712,5.6169 C99.3162,5.6349 97.9232,5.2839 96.8582,4.4499 C93.6812,1.9629 90.3702,0.9649 87.0852,1.5909 C83.6392,1.9059 81.1682,4.2479 78.7222,6.5529 C77.8332,7.2779 76.9442,8.0019 76.0552,8.7269 C73.5072,7.2979 70.9732,5.8089 68.3442,4.5479 C65.8212,3.3379 62.9882,2.4959 60.2262,3.3969 C54.9222,5.1239 52.9682,10.6539 51.7072,15.5959 C47.7112,13.1979 42.7212,12.5509 38.2412,13.8839 C36.7452,14.3279 35.3532,15.0189 34.0692,15.8689 C31.8062,16.8919 29.7672,18.4469 28.1492,20.6259 C25.7332,23.8799 24.7342,27.7929 25.1942,31.5389 C24.4952,31.8209 23.6742,31.9739 23.1372,32.1849 C22.0382,32.6149 20.9802,33.1419 19.9862,33.7819 C17.4972,35.3829 15.3892,37.6019 13.9202,40.1779 C12.6112,41.7549 11.5772,43.5879 10.9542,45.7559 C9.4902,50.8549 10.7252,55.7419 13.5082,59.8039 C10.0692,60.6649 6.8512,62.3929 4.4482,65.0269 C2.6182,67.0319 1.4072,69.4799 0.9062,72.0739 C-0.5768,76.0229 -0.0618,80.6739 3.2622,83.7259 C3.4382,83.8879 3.6222,84.0319 3.8052,84.1809 C0.4352,86.0269 -0.4948,90.9599 0.2312,94.5029 C0.9472,98.0079 3.1172,101.1139 6.0922,103.0259 C5.6362,103.5479 5.2252,104.1269 4.8662,104.7669 C4.8512,104.7889 4.8322,104.8089 4.8172,104.8319 C4.4972,105.3059 4.2812,105.8209 4.1372,106.3549 C2.4112,111.0709 3.8602,117.3849 8.7492,119.7739 C9.8902,120.3309 10.0042,120.1529 10.4612,120.8639 C11.5082,122.4949 12.7792,123.6699 14.1592,124.4929 C13.1802,125.6229 12.6882,127.2039 13.0822,128.9819 C13.0932,129.0309 13.1072,129.0779 13.1172,129.1259 C13.0822,129.4279 13.0452,129.7299 13.0312,130.0319 C12.8632,133.8679 14.5132,137.4439 16.4182,140.6709 C18.4942,144.1889 20.5872,147.8239 23.0112,151.1149 C25.1952,154.0779 28.1282,156.7399 31.9202,157.2339 C34.9432,157.6259 38.1962,156.1819 39.5592,153.4699 C40.2092,154.0279 40.9262,154.5109 41.6872,154.9089 C42.6952,156.3309 44.2092,157.5359 45.4232,158.4799 C47.6722,160.2269 50.2612,161.6009 53.0582,162.2099 C58.1562,163.3219 63.8292,161.6729 66.8692,157.2849 C67.6612,158.1469 68.4902,158.9719 69.3632,159.7389 C75.6902,165.2929 83.7282,168.3429 91.5652,171.0819 C96.1842,172.6969 100.7982,174.3469 105.4242,175.9619 C105.5032,178.7089 105.5822,181.4569 105.6622,184.2039 C105.6952,185.3649 105.5322,186.7179 106.4982,187.5569 C106.8852,187.8929 107.3582,188.1029 107.7172,188.4719 C108.1152,188.8789 108.4002,189.3749 108.7302,189.8349 C110.1132,191.7649 112.1292,192.3599 114.4292,192.0049 C116.4152,191.6989 118.9962,190.8189 119.8472,188.8209 C120.4012,187.5229 120.2712,185.9369 120.1452,184.5659 C120.0212,183.2239 119.7642,181.9039 119.3932,180.6109 C126.1772,182.6399 133.7522,184.0209 140.4232,181.0849 C147.7282,177.8699 150.8512,170.2849 155.1182,164.0469 C155.2702,164.0249 155.4202,163.9719 155.5582,163.8389 C162.2942,157.4089 169.4282,150.2619 171.7902,141.0539 C172.0842,140.9509 172.3382,140.7109 172.3852,140.3279 C173.3342,132.6649 173.1942,124.9329 172.0222,117.3019 C171.9692,116.9539 171.7532,116.7839 171.5002,116.7339" id="Fill-28" fill="#231F20" mask="url(#mask-2)"></path>
                </g>
                <path d="M139.3578,129.5402 C137.3168,126.8232 135.2228,124.1442 133.1698,121.4362 C131.1828,118.8182 128.7848,115.2682 130.6528,111.9462 C131.1718,111.0212 129.7508,110.1902 129.2308,111.1152 C127.5728,114.0632 128.5148,117.4432 130.2278,120.1342 C132.3118,123.4062 134.9118,126.4082 137.2638,129.4892 C138.6078,131.2492 143.2738,137.4882 138.6788,138.2522 C136.7328,138.5752 134.7038,137.7562 132.9208,137.0752 C131.0618,136.3652 129.2628,135.5212 127.5108,134.5782 C126.5788,134.0752 125.7458,135.4972 126.6798,136.0002 C129.4588,137.4962 132.4848,138.9482 135.5738,139.6682 C137.9918,140.2312 141.4728,140.0962 142.1288,137.1092 C142.7368,134.3472 140.9288,131.6332 139.3578,129.5402" id="Fill-31" fill="#231F20"></path>
                <path d="M113.8451,101.924 C106.2231,98.71 97.8491,97.771 89.6931,99.087 C88.4251,99.291 88.9631,101.219 90.2241,101.016 C96.9171,99.936 103.7611,100.551 110.1641,102.68 C103.4351,104.5 97.0951,107.623 91.5591,111.882 C90.5531,112.655 91.5481,114.394 92.5691,113.609 C98.8421,108.782 106.0921,105.452 113.8451,103.852 C114.9261,103.629 114.6521,102.264 113.8451,101.924" id="Fill-33" fill="#231F20"></path>
                <path d="M161.3246,104.257 C153.9426,101.473 146.0146,100.527 138.2076,101.403 C142.1746,98.814 146.6946,97.116 151.4146,96.551 C151.9556,96.486 152.4086,96.138 152.4146,95.551 C152.4206,95.06 151.9506,94.486 151.4146,94.551 C145.6316,95.244 140.1106,97.394 135.4466,100.9 C135.1076,101.154 134.9966,101.517 135.0316,101.859 C135.0196,101.861 135.0096,101.861 134.9976,101.863 C133.7316,102.088 134.2676,104.016 135.5286,103.792 C144.0076,102.287 152.7426,103.149 160.7926,106.186 C161.9986,106.641 162.5186,104.708 161.3246,104.257" id="Fill-35" fill="#231F20"></path>
                <path d="M149.4408,157.9318 C149.5628,157.5738 149.6568,157.2048 149.7038,156.8288 C149.9198,156.4228 150.0938,155.9948 150.2298,155.5558 C150.1908,155.8538 150.1378,156.1528 150.0548,156.4528 C149.9078,156.9928 149.6968,157.4828 149.4408,157.9318 M130.9538,151.9998 C130.9878,151.8058 130.9358,151.5988 130.8218,151.4278 C135.7078,148.4528 141.6158,145.6868 146.9668,148.9578 C147.3778,149.2088 147.7538,149.4988 148.0978,149.8138 C142.3828,150.5428 136.6688,151.2718 130.9538,151.9998 M142.8858,161.6118 C139.1578,161.9398 135.4918,160.8398 131.7678,160.9148 C128.0308,160.9908 124.4848,162.2718 120.8168,162.8148 C120.4798,162.8648 120.1348,162.9068 119.7858,162.9418 C125.1558,156.5848 135.6588,155.4298 142.1188,160.8228 C142.2048,160.8938 142.2948,160.9368 142.3848,160.9668 C142.5368,161.2658 142.7488,161.4718 143.0038,161.5978 C142.9648,161.6018 142.9258,161.6078 142.8858,161.6118 M109.7958,154.6988 C109.7808,154.7008 109.7718,154.7078 109.7568,154.7108 C109.9698,154.2258 110.2828,153.7698 110.7148,153.3648 C113.0348,151.1968 116.8728,151.7258 119.6748,152.3898 C120.6408,152.6198 121.6288,152.8628 122.6228,153.0628 C118.3468,153.6078 114.0708,154.1538 109.7958,154.6988 M149.8128,149.3498 C147.5268,146.7648 143.7398,145.7008 140.3808,146.0118 C135.8398,146.4338 131.8628,148.9268 128.1108,151.3238 C127.8908,151.4628 127.7868,151.6588 127.7628,151.8608 C124.6818,152.4168 121.3878,151.0508 118.3588,150.5598 C115.4638,150.0878 112.0278,150.1188 109.7208,152.2028 C107.3848,154.3138 107.4418,157.7598 109.0058,160.3078 C110.8618,163.3278 114.3218,164.5148 117.7268,164.5618 C121.9798,164.6188 125.9798,162.9848 130.1688,162.5438 C134.4838,162.0908 138.7258,163.5488 143.0348,163.1258 C146.3968,162.7958 149.6698,161.2938 151.0958,158.0558 C152.3798,155.1408 151.9348,151.7488 149.8128,149.3498" id="Fill-37" fill="#231F20"></path>
                <path d="M87.3354,115.757 C87.1904,115.321 86.9434,114.926 86.5324,114.696 C86.5044,114.681 86.4714,114.68 86.4424,114.666 C86.3624,114.611 86.2834,114.554 86.1774,114.518 C80.6734,112.641 73.5134,113.486 71.0724,119.508 C70.1174,121.862 70.1664,124.823 71.8604,126.844 C74.3054,129.759 77.7584,124.993 79.1384,123.179 C81.0664,120.641 83.4464,117.284 87.0674,117.673 C88.2434,117.799 88.3154,116.134 87.3354,115.757" id="Fill-39" fill="#808184"></path>
                <path d="M165.7269,104.1154 C165.9949,103.6534 166.3729,103.2614 166.9019,103.0964 C166.9379,103.0854 166.9759,103.0934 167.0119,103.0844 C167.1179,103.0394 167.2229,102.9934 167.3529,102.9764 C174.1519,102.1384 182.2309,104.7954 183.6489,112.2324 C184.2039,115.1404 183.4579,118.5034 181.0279,120.4054 C177.5239,123.1484 174.6429,116.9024 173.4719,114.5094 C171.8329,111.1624 169.8649,106.7744 165.5889,106.3614 C164.2019,106.2284 164.5049,104.3134 165.7269,104.1154" id="Fill-41" fill="#808184"></path>
                <path d="M168.724,96.6701 C168.822,96.7461 168.945,96.8021 169.079,96.8371 C169.253,97.2771 169.725,97.5961 170.321,97.3361 C171.376,96.8761 172.466,96.6091 173.607,96.5761 C174.726,96.5441 175.719,96.8451 176.768,97.0731 C178.54,97.4591 181.015,97.0631 181.61,95.1411 C182.152,93.3911 180.504,91.8641 178.864,91.3321 C177.191,90.7901 175.24,90.9021 173.528,91.6111 C171.569,92.4231 169.981,93.7891 168.702,95.3331 C168.345,95.7641 168.273,96.3161 168.724,96.6701" id="Fill-43" fill="#808184"></path>
                <path d="M70.7836,146.0353 C70.4356,145.7553 70.0236,145.5613 69.5656,145.5913 C69.5346,145.5943 69.5086,145.6103 69.4766,145.6143 C69.3826,145.6103 69.2866,145.6063 69.1806,145.6333 C63.6836,147.0043 58.2696,151.4793 59.4536,157.6973 C59.9156,160.1293 61.5186,162.5273 63.9736,163.2863 C67.5146,164.3803 67.8236,158.6553 67.9946,156.4413 C68.2326,153.3453 68.4076,149.3403 71.5766,147.7453 C72.6056,147.2273 71.7856,145.8263 70.7836,146.0353" id="Fill-45" fill="#808184"></path>
                <path d="M72.1898,172.8673 C71.9298,172.7233 71.6348,172.6453 71.3288,172.7213 C71.3068,172.7263 71.2908,172.7413 71.2698,172.7483 C71.2058,172.7573 71.1408,172.7653 71.0718,172.7963 C67.4828,174.3843 64.2238,178.0283 65.5738,182.0223 C66.1018,183.5843 67.3968,184.9833 69.1218,185.1863 C71.6088,185.4803 71.3098,181.6323 71.2288,180.1373 C71.1158,178.0463 70.8778,175.3583 72.8768,173.9083 C73.5258,173.4363 72.8468,172.6043 72.1898,172.8673" id="Fill-47" fill="#808184"></path>
                <path d="M176.9818,141.0138 C177.2978,140.8278 177.6558,140.7208 178.0238,140.7998 C178.0488,140.8048 178.0688,140.8228 178.0928,140.8288 C178.1708,140.8368 178.2488,140.8458 178.3318,140.8788 C182.6278,142.6548 186.4838,146.9398 184.7738,151.8438 C184.1058,153.7628 182.5148,155.5158 180.4308,155.8358 C177.4248,156.2978 177.8638,151.6138 177.9928,149.7958 C178.1708,147.2538 178.5118,143.9818 176.1318,142.3058 C175.3588,141.7618 176.1938,140.7228 176.9818,141.0138" id="Fill-49" fill="#808184"></path>
                <path d="M152.7543,83.2453 C147.6943,83.0003 142.7853,81.4593 138.4753,78.8023 C137.3763,78.1253 136.3703,79.8543 137.4653,80.5293 C142.0763,83.3713 147.3473,84.9833 152.7543,85.2453 C154.0413,85.3083 154.0373,83.3073 152.7543,83.2453" id="Fill-51" fill="#231F20"></path>
                <path d="M101.5863,85.0773 C95.2453,88.4983 88.1603,90.2983 80.9573,90.3343 C79.6703,90.3413 79.6683,92.3413 80.9573,92.3343183 C88.5133,92.2963 95.9463,90.3913 102.5953,86.8043 C103.7293,86.1923 102.7193,84.4663 101.5863,85.0773" id="Fill-53" fill="#231F20"></path>
            </g>
        </g>
    </g>
</svg>