<?xml version="1.0" encoding="UTF-8"?>
<svg width="500px" height="600px" viewBox="0 0 500 600" version="1.1" xmlns="http://www.w3.org/2000/svg" xmlns:xlink="http://www.w3.org/1999/xlink">
    <title>crylookingstraight</title>
    <g id="crylookingstraight" stroke="none" stroke-width="1" fill="none" fill-rule="evenodd">
        <g id="face" transform="translate(153.000000, 64.000000)">
            <g id="fill" transform="translate(32.416287, 60.628360)">
                <path d="M84.4166126,49.7130404 C84.4166126,63.8740404 77.8926126,75.3540404 69.8436126,75.3540404 C61.7956126,75.3540404 55.2706126,63.8740404 55.2706126,49.7130404 C55.2706126,35.5520404 61.7956126,24.0720404 69.8436126,24.0720404 C77.8926126,24.0720404 84.4166126,35.5520404 84.4166126,49.7130404" id="Fill-1" fill="#FEFEFE"></path>
                <path d="M131.123613,45.5568404 C131.123613,57.1108404 125.372613,66.4768404 118.277613,66.4768404 C111.184613,66.4768404 105.432613,57.1108404 105.432613,45.5568404 C105.432613,34.0028404 111.184613,24.6378404 118.277613,24.6378404 C125.372613,24.6378404 131.123613,34.0028404 131.123613,45.5568404" id="Fill-3" fill="#FEFEFE"></path>
                <path d="M86.7535126,122.40844 C86.5665126,121.73044 86.2355126,121.12844 85.8165126,120.59144 C85.7655126,120.44444 85.7125126,120.29844 85.6495126,120.15144 C85.4625126,119.72744 85.0925126,119.50844 84.6845126,119.44544 C84.3875126,119.20744 84.0745126,118.98744 83.7515126,118.78944 C82.2725126,117.88144 80.5905126,117.25444 78.9875126,116.60344 C78.3725126,116.35444 77.7045126,116.01444 77.0255126,115.91944 C76.6225126,115.46444 75.8615126,115.33844 75.3325126,115.57144 C74.6535126,115.86944 74.2635126,116.60344 74.4635126,117.34144 C74.5195126,117.54544 74.5565126,117.75044 74.6015126,117.95544 C74.5825126,118.05744 74.5655126,118.16144 74.5545126,118.26544 C74.3155126,120.36344 74.4575126,122.48544 74.8085126,124.56144 C74.8685126,124.91844 75.1035126,125.19944 75.4025126,125.38944 C75.4055126,125.40244 75.4065126,125.41644 75.4095126,125.42944 C75.4045126,125.42944 75.3995126,125.42944 75.3945126,125.43044 C75.7945126,127.14744 77.1445126,128.57344 78.8345126,129.07144 C79.7195126,129.33344 80.6625126,129.31044 81.5405126,129.05644 C82.1105126,129.57544 83.1135126,129.67744 83.6775126,129.07644 C84.2155126,128.50144 84.6385126,127.83844 84.9605126,127.13344 C85.2215126,127.08244 85.4775126,126.97844 85.6945126,126.77344 C86.8725126,125.66144 87.1735126,123.93344 86.7535126,122.40844" id="Fill-5" fill="#E4C3A2"></path>
                <path d="M78.0338126,126.40544 C78.4438126,126.13644 78.7458126,125.70444 78.6838126,125.19544 C78.4718126,123.44544 78.2618126,121.69644 78.0508126,119.94644 C78.0098126,119.60844 77.9708126,119.27344 77.9178126,118.94244 C78.0028126,118.85244 78.0828126,118.75344 78.1528126,118.63544 C78.5178126,118.01944 78.4028126,117.20944 77.9918126,116.65444 C77.4978126,115.98644 76.5748126,115.77244 75.8378126,116.18244 C75.8278126,116.18844 75.8218126,116.19644 75.8128126,116.20244 C75.6708126,116.16644 75.5318126,116.12544 75.3788126,116.10644 C74.7948126,116.03444 74.0238126,116.61944 73.9318126,117.20744 C73.3498126,120.93644 73.8758126,124.65144 75.5038126,128.06044 C75.8528126,128.79144 76.8988126,128.98344 77.5558126,128.59844 C78.3038126,128.16144 78.4448126,127.28044 78.0948126,126.54644 C78.0728126,126.50144 78.0548126,126.45144 78.0338126,126.40544" id="Fill-7" fill="#C3996B"></path>
                <path d="M108.628513,48.7238404 C107.574513,44.4618404 108.867513,44.3478404 109.473513,40.0248404 C109.685513,38.5168404 110.012513,37.0178404 110.456513,35.5568404 C110.606513,34.9358404 110.789513,34.3278404 111.014513,33.7388404 C110.992513,33.6198404 110.980513,33.5008404 110.982513,33.3808404 C111.009513,31.6858404 111.708513,29.9918404 113.266513,29.1598404 C113.412513,29.0808404 113.563513,29.0128404 113.715513,28.9508404 C114.061513,28.4928404 114.430513,28.0488404 114.823513,27.6228404 C116.024513,26.3248404 117.719513,27.2288404 118.133513,28.5388404 C118.543513,28.3888404 118.926513,28.1568404 119.288513,27.8758404 C119.418513,27.9158404 119.548513,27.9558404 119.676513,28.0018404 C119.723513,28.0188404 119.769513,28.0398404 119.816513,28.0568404 C119.910513,28.3388404 120.001513,28.6218404 120.106513,28.9038404 C120.294513,28.9148404 120.482513,28.9488404 120.666513,28.9738404 C120.792513,28.9918404 120.913513,29.0248404 121.031513,29.0728404 C121.300513,29.1798404 121.588513,29.2848404 121.834513,29.4468404 C122.137513,29.6248404 122.378513,29.8668404 122.558513,30.1698404 C122.625513,30.3298404 122.693513,30.4918404 122.761513,30.6518404 C122.801513,30.8028404 122.815513,30.9528404 122.821513,31.1038404 C124.812513,32.3988404 126.246513,34.6378404 126.774513,36.9578404 C126.836513,37.0408404 126.904513,37.1198404 126.946513,37.2178404 C127.415513,38.3218404 127.974513,39.4568404 128.461513,40.6148404 C128.779513,41.5868404 128.205513,42.0208404 128.470513,43.0088404 C128.493513,43.0938404 128.807513,43.6618404 128.866513,43.7208404 C129.145513,45.1608404 127.765513,45.0378404 127.116513,46.4998404 C127.151513,46.7048404 129.134513,48.5388404 129.156513,48.7428404 C129.171513,48.8788404 129.175513,49.0178404 129.165513,49.1558404 C129.165513,49.1618404 129.164513,49.1688404 129.163513,49.1758404 C129.205513,49.4638404 129.189513,49.7568404 129.145513,50.0768404 M57.0065126,54.8108404 C55.5975126,52.3078404 56.6535126,54.5948404 56.2235126,51.7758404 C55.2575126,49.0098404 55.5575126,51.9728404 56.4185126,49.0358404 C56.4385126,48.9688404 56.3005126,47.3388404 56.3205126,47.2728404 C56.6365126,44.4328404 56.6825126,44.1278404 57.8875126,41.5948404 C58.3445126,40.6328404 58.2955126,39.0138404 59.0665126,39.2468404 C59.2675126,38.8698404 59.4645126,38.4928404 59.6555126,38.1128404 C59.8835126,37.6608404 60.3015126,37.3678404 60.7725126,37.2268404 C61.0575126,36.7238404 61.3705126,36.2428404 61.6985126,35.7728404 C61.9255126,35.1778404 62.2105126,34.6058404 62.5945126,34.0848404 C64.1425126,31.9808404 66.5375126,30.5808404 69.1835126,30.5178404 C69.7285126,30.5048404 70.2555126,30.5768404 70.7705126,30.6908404 C71.2395126,30.6548404 71.7485126,30.6068404 71.8965126,30.8208404 C71.9815126,30.9428404 72.0725126,31.0378404 72.1615126,31.1488404 C73.0805126,31.5778404 73.8965126,32.2098404 74.5625126,32.9908404 C75.4375126,33.4228404 76.3775126,33.7938404 77.3595126,34.4288404 C77.6495126,34.7988404 77.9595126,35.1278404 78.2975126,35.3848404 C79.1775126,37.2828404 79.9665126,39.2118404 80.7085126,41.1588404 C80.7585126,41.1818404 80.8145126,41.1998404 80.8595126,41.2268404 C81.3505126,41.5128404 81.5825126,41.9248404 81.7875126,42.4318404 C82.3695126,43.8698404 82.5005126,45.4838404 82.5565126,47.0188404 C82.6085126,48.4648404 80.0955126,47.2738404 80.2005126,48.7168404 C80.2255126,49.0508404 79.7725126,49.9808404 79.6255126,50.2508404 C79.6865126,50.4428404 79.5415126,51.4808404 79.5285126,51.6898404 C79.4265126,53.4818404 78.9035126,51.9738404 78.2825126,53.7028404 C77.6915126,53.6808404 75.6165126,54.5898404 74.9275126,54.8528404 C68.4235126,57.3338404 63.9185126,52.1658404 57.9845126,56.8668404 C57.8825126,56.3928404 56.7445126,55.2568404 57.0065126,54.8108404 M139.058513,65.6108404 C139.046513,65.1658404 138.962513,64.7538404 138.847513,64.3608404 C138.956513,62.5758404 138.905513,60.8058404 138.657513,58.9728404 C138.361513,56.7868404 138.238513,53.6498404 136.461513,52.0968404 C136.430513,52.0698404 136.397513,52.0508404 136.364513,52.0258404 C135.851513,49.8728404 135.232513,47.7488404 134.482513,45.6548404 C134.190513,44.8408404 133.699513,44.2578404 133.112513,43.8688404 C132.412513,41.5318404 131.681513,39.2048404 130.838513,36.9198404 C130.605513,36.2878404 130.245513,35.8088404 129.821513,35.4378404 C128.961513,33.1148404 128.114513,30.7778404 127.785513,28.3108404 C127.472513,25.9568404 127.096513,23.8308404 126.262513,21.5938404 C126.236513,21.5268404 126.198513,21.4738404 126.170513,21.4088404 C126.276513,19.4258404 126.420513,17.4458404 126.648513,15.4698404 C126.672513,15.2568404 126.660513,15.0498404 126.632513,14.8458404 C126.756513,14.1078404 126.635513,13.4588404 126.341513,12.9168404 C126.835513,11.8528404 127.363513,10.8038404 127.964513,9.77284035 C127.991513,9.73484035 128.021513,9.70184035 128.048513,9.66084035 C128.590513,8.86984035 129.132513,8.07984035 129.674513,7.28884035 C132.957513,2.49684035 126.263513,-2.03615965 122.255513,0.963840352 C122.089513,1.06984035 121.927513,1.18784035 121.770513,1.31784035 C119.771513,1.23884035 117.749513,2.29384035 116.950513,4.84784035 L116.655513,5.78984035 C116.415513,5.87384035 116.176513,5.98484035 115.941513,6.12684035 C114.915513,2.12884035 109.273513,-0.119159648 107.006513,4.52584035 C106.990513,4.55884035 106.975513,4.59284035 106.958513,4.62584035 C105.078513,4.38384035 103.102513,5.07384035 102.116513,6.98484035 C101.490513,8.20084035 100.899513,9.42784035 100.329513,10.6618404 C99.7375126,10.5728404 99.1265126,10.5778404 98.5235126,10.6858404 C98.9615126,8.25084035 97.8775126,6.42984035 96.2675126,5.48784035 C93.9105126,2.43284035 87.5745126,3.53984035 87.1365126,8.59784035 C87.1135126,8.86284035 87.0835126,9.12684035 87.0605126,9.39184035 C86.9705126,9.22984035 86.8855126,9.06484035 86.7785126,8.91084035 C86.7555126,8.73684035 86.7325126,8.56284035 86.7085126,8.38984035 C86.3645126,5.87584035 82.8355126,4.02784035 80.5575126,4.89784035 C79.5285126,5.28984035 78.5295126,5.71084035 77.5445126,6.15084035 C77.0205126,3.02784035 73.8625126,0.520840352 70.3155126,2.61384035 C69.4565126,3.11984035 68.6265126,3.66484035 67.7895126,4.20284035 C66.5595126,4.14584035 65.2865126,4.54284035 64.2075126,5.57484035 L56.9125126,12.5458404 C56.8705126,12.5338404 56.8275126,12.5258404 56.7855126,12.5138404 C57.2985126,7.55184035 50.3745126,5.64884035 47.4315126,9.73984035 C46.2235126,11.4188404 45.0855126,13.1328404 43.9995126,14.8718404 C43.5535126,12.1418404 40.4915126,10.8038404 37.8875126,11.2728404 C35.4605126,10.4498404 32.4765126,11.2858404 31.5215126,14.5128404 C31.0855126,15.9838404 30.6325126,17.4488404 30.1705126,18.9098404 C30.0415126,19.0788404 29.9165126,19.2578404 29.8045126,19.4548404 C28.1105126,22.4108404 26.3345126,25.3118404 24.4315126,28.1368404 C24.3235126,27.6768404 24.2195126,27.2168404 24.1105126,26.7568404 C22.7535126,21.0088404 14.6775126,22.6948404 14.2895126,28.0858404 C14.2795126,28.2088404 14.2775126,28.3318404 14.2705126,28.4548404 C13.0535126,29.2228404 12.1235126,30.5658404 11.9365126,32.5098404 C11.7115126,34.8458404 12.1175126,37.3158404 13.0655126,39.4108404 C13.7355126,42.3728404 14.6435126,45.2578404 15.7955126,48.1548404 C15.8035126,48.1928404 15.8105126,48.2308404 15.8175126,48.2688404 C15.8245126,48.2668404 15.8315126,48.2638404 15.8375126,48.2608404 C15.9975126,48.6618404 16.1525126,49.0618404 16.3215126,49.4628404 C16.9455126,50.9398404 17.9935126,51.6988404 19.1595126,51.9428404 C19.9405126,56.0028404 20.9205126,60.0268404 22.1185126,64.0088404 C21.6105126,64.1078404 21.1045126,64.2668404 20.6135126,64.5328404 C20.2615126,64.7228404 19.9065126,64.9158404 19.5465126,65.0928404 C19.6125126,65.0518404 19.5275126,65.0728404 19.3795126,65.1198404 C19.2475126,65.0108404 19.1105126,64.9088404 18.9715126,64.8118404 C17.2125126,61.7738404 14.9035126,59.0628404 12.1125126,56.8888404 C10.9325126,55.9698404 9.52551259,55.4348404 8.15251259,55.4918404 C7.80051259,55.4178404 7.42851259,55.3728404 7.02451259,55.3738404 C4.49751259,55.3838404 2.46151259,56.5688404 1.32651259,58.8398404 C0.00951258704,61.4788404 0.946512587,64.0908404 2.25851259,66.4858404 C2.58151259,70.1978404 5.30751259,73.2598404 7.59451259,76.0968404 C10.2675126,79.4128404 13.2645126,82.5438404 16.5685126,85.2368404 C19.5365126,87.6558404 23.6965126,88.6408404 26.4465126,85.2868404 C28.1515126,83.2098404 28.0005126,81.2758404 27.2575126,78.8328404 C27.2475126,78.8018404 27.2385126,78.7718404 27.2295126,78.7408404 C27.2775126,78.7418404 27.3235126,78.7468404 27.3735126,78.7468404 C27.6895126,78.7468404 27.9835126,78.7168404 28.2675126,78.6718404 C28.7275126,83.5558404 30.9355126,88.3618404 33.4535126,92.8478404 C33.9695126,93.7668404 34.6335126,94.3918404 35.3665126,94.7838404 C36.7735126,96.9938404 38.7905126,98.4438404 40.9855126,100.17884 C42.1605126,101.10684 43.3105126,102.16184 44.6225126,102.89084 C45.7355126,103.50884 47.2465126,103.68984 47.9675126,104.24584 C48.6835126,104.79884 49.5465126,105.01284 50.4255126,104.98084 C58.5385126,108.98784 67.6135126,111.48884 75.9745126,114.41684 C78.4525126,115.28584 81.4235126,116.74784 84.2095126,116.92184 C84.8155126,117.23584 85.4265126,117.52684 86.0445126,117.79084 C86.2385126,117.98984 86.4485126,118.17584 86.6875126,118.33984 C88.2065126,119.38584 89.4265126,119.73784 91.2695126,119.54984 C91.4155126,119.53584 91.5545126,119.50884 91.6935126,119.48484 C93.1095126,119.73784 94.5425126,119.86884 95.9825126,119.87484 C96.1045126,119.89484 96.2215126,119.92684 96.3455126,119.93984 C97.5005126,120.05884 98.6525126,120.05084 99.7925126,119.94984 C100.190513,120.07684 100.630513,120.15184 101.103513,120.17684 C101.234513,120.20284 101.367513,120.22984 101.499513,120.25584 C102.830513,120.51984 104.150513,120.45384 105.352513,119.75084 C105.420513,119.71184 105.485513,119.65684 105.553513,119.61184 C111.148513,117.96884 115.012513,113.08184 118.173513,108.08484 C118.534513,107.51384 118.759513,106.94784 118.874513,106.39784 C120.470513,104.53884 121.933513,102.60084 123.276513,100.59284 C124.202513,100.44084 125.135513,99.9368404 125.976513,98.9638404 C126.124513,98.7928404 126.264513,98.6188404 126.408513,98.4458404 C128.472513,97.6458404 129.474513,95.9428404 129.629513,94.1638404 C129.649513,94.1318404 129.670513,94.1008404 129.691513,94.0688404 C130.048513,93.8408404 130.400513,93.5618404 130.744513,93.2118404 L132.488513,91.4308404 C133.383513,90.5188404 133.832513,89.5288404 133.949513,88.5578404 C135.337513,86.2188404 136.444513,83.7618404 137.250513,81.1198404 C137.302513,80.9868404 137.368513,80.8668404 137.410513,80.7238404 C138.632513,76.5768404 139.317513,72.3808404 139.595513,68.0698404 C139.656513,67.1108404 139.440513,66.2958404 139.058513,65.6108404" id="Fill-9" fill="#E4C3A2"></path>
                <path d="M116.006513,113.02954 C115.945513,112.84254 115.842513,112.68254 115.695513,112.54654 C115.409513,112.28454 115.034513,112.08954 114.635513,112.10754 L114.236513,112.16054 C113.982513,112.23154 113.762513,112.36054 113.574513,112.54654 L111.899513,113.87054 C111.829513,113.89454 111.760513,113.89954 111.692513,113.93254 C110.422513,114.54854 109.152513,115.16254 107.883513,115.77754 C107.551513,115.60654 107.185513,115.50854 106.796513,115.53954 C99.7895126,116.09154 92.8285126,115.31954 86.1205126,113.21954 C85.6965126,113.08854 85.3115126,113.07254 84.9605126,113.13454 C76.2885126,109.99854 67.6895126,106.66454 59.1645126,103.14654 C58.9345126,102.48754 58.4325126,101.91554 57.5785126,101.64454 C46.7795126,98.2265404 35.2035126,91.1245404 34.0345126,78.7255404 C33.9075126,77.3815404 32.9765126,76.2255404 31.5345126,76.2255404 C31.1735126,76.2255404 30.8065126,76.3295404 30.4645126,76.4965404 C29.6235126,75.9715404 28.5135126,75.8225404 27.5925126,76.1685404 C27.2455126,76.2995404 26.9595126,76.4665404 26.6825126,76.6655404 C26.6405126,76.6625404 26.5995126,76.6535404 26.5585126,76.6545404 C26.1235126,76.6745404 25.7785126,76.8375404 25.5275126,77.0935404 C25.1875126,77.2375404 24.8635126,77.3995404 24.5735126,77.5815404 C23.9345126,77.9815404 23.3905126,78.4975404 22.9825126,79.1335404 C22.6225126,79.6905404 22.4715126,80.4855404 22.2285126,80.9475404 C22.0955126,81.2005404 22.2275126,80.9795404 22.0495126,81.1535404 C22.1385126,81.0665404 22.0415126,81.1145404 21.9905126,81.1525404 C18.9825126,80.6785404 16.5255126,78.2625404 14.4555126,76.1765404 C11.9875126,73.6905404 9.69351259,70.8985404 8.93151259,67.3975404 C8.87451259,67.1415404 8.77151259,66.9395404 8.63851259,66.7785404 C8.59351259,65.6825404 8.75151259,64.5835404 9.19151259,63.5165404 C9.69051259,62.3045404 10.6285126,61.0955404 11.9025126,60.6495404 C13.0405126,61.1945404 14.0965126,61.9285404 15.0005126,62.8505404 C15.6845126,63.5495404 16.5635126,63.3505404 17.0925126,62.8065404 C18.0145126,62.6755404 18.8865126,61.6585404 18.3325126,60.5505404 C17.2005126,58.2845404 14.6555126,57.2585404 12.2545126,57.5375404 C11.9565126,57.1015404 11.5895126,56.7465404 11.1595126,56.4675404 C10.9175126,56.0145404 10.4865126,55.6655404 9.90751259,55.6485404 C9.16051259,55.6285404 8.43451259,55.7015404 7.71751259,55.8165404 C6.72551259,55.6935404 5.71851259,55.7725404 4.71551259,56.2115404 C4.28951259,56.3975404 3.94151259,56.6415404 3.62551259,56.9105404 C3.32351259,56.7705404 2.98551259,56.7125404 2.65051259,56.7965404 C-0.748487413,57.6425404 -0.108487413,62.2445404 0.433512587,64.7685404 C0.850512587,66.7165404 1.58351259,68.5715404 2.56051259,70.2925404 C3.04151259,71.6215404 3.70751259,72.9115404 4.39451259,74.0755404 C4.65851259,74.5245404 5.13251259,74.7195404 5.61351259,74.7405404 C6.64351259,76.3045404 7.71751259,77.8395404 8.83951259,79.3395404 C9.28751259,79.9375404 10.0825126,80.3065404 10.7935126,79.9255404 C12.7225126,83.2575404 15.2315126,86.4555404 19.3045126,86.9825404 C19.5425126,87.0135404 19.7785126,87.0275404 20.0145126,87.0335404 C20.8035126,87.3645404 21.6585126,87.5335404 22.4675126,87.3935404 C22.4825126,87.4085404 22.4855126,87.4295404 22.5015126,87.4445404 C23.1195126,88.0115404 24.0065126,88.0135404 24.6225126,87.4445404 C25.6895126,86.4575404 26.3875126,85.2525404 26.8795126,83.9505404 C27.6105126,83.0105404 27.9785126,81.8505404 27.7395126,80.5945404 C27.7695126,80.4165404 27.7835126,80.2395404 27.8105126,80.0595404 C27.8265126,80.0135404 27.8405126,79.9665404 27.8585126,79.9225404 C27.9265126,79.7765404 28.0115126,79.6405404 28.0945126,79.5045404 L28.0955126,79.5045404 C28.1515126,79.4955404 28.1555126,79.4925404 28.1515126,79.4915404 C28.1645126,79.4915404 28.1795126,79.4905404 28.2265126,79.4885404 C28.3625126,79.4805404 28.4945126,79.4845404 28.6315126,79.4865404 L28.6695126,79.4865404 C28.6695126,79.4885404 28.6765126,79.4915404 28.6895126,79.4955404 C28.7775126,79.8105404 28.9775126,80.0865404 29.2405126,80.2825404 C30.2395126,86.8695404 33.5475126,92.7195404 38.6175126,97.1205404 C42.7865126,100.73654 47.6865126,103.33654 52.8295126,105.27154 C53.1555126,105.82654 53.7035126,106.26054 54.3555126,106.53454 C64.3625126,110.73454 74.4795126,114.67354 84.6945126,118.34454 C85.1025126,118.49154 85.5275126,118.47854 85.9335126,118.36954 C92.6855126,120.33254 99.7855126,121.09154 106.796513,120.53954 C107.561513,120.47854 108.259513,120.13754 108.721513,119.59354 C108.833513,119.56154 108.943513,119.51854 109.044513,119.45554 L112.044513,117.57254 C112.342513,117.38554 112.578513,117.10254 112.696513,116.76954 C112.866513,116.68754 113.036513,116.60554 113.205513,116.52354 C113.211513,116.52054 113.215513,116.51554 113.221513,116.51254 C113.443513,116.43854 113.642513,116.32454 113.810513,116.15854 L115.695513,114.66854 C115.842513,114.53254 115.945513,114.37154 116.006513,114.18454 C116.100513,114.00654 116.143513,113.81354 116.136454,113.60754 C116.143513,113.40054 116.100513,113.20854 116.006513,113.02954" id="Fill-11" fill="#C3996B"></path>
                <path d="M65.7096126,5.72085547 C64.8186126,5.71194035 64.3056126,6.41994035 64.2096126,7.22094035 C63.6776126,11.6799404 61.3556126,16.0929404 57.6766126,18.7419404 C53.8386126,21.5069404 48.8296126,22.2349404 44.4086126,20.5319404 C44.3416126,20.5049404 44.2786126,20.4939404 44.2146126,20.4779404 C43.9446126,20.2749404 43.6186126,20.1469404 43.2986126,20.1469404 C43.1566126,20.1469404 43.0256126,20.1699404 42.9016126,20.2039404 C42.9076126,20.1179404 42.9096126,20.0309404 42.9136126,19.9439404 C44.1826126,19.5359404 44.5076126,17.4339404 42.9156126,17.0859404 L41.1696126,16.7049404 C40.0866126,15.1839404 38.5926126,12.9969404 36.6716126,14.3209404 C36.2516126,14.6099404 35.9736126,15.0379404 35.7626126,15.5089404 C35.6396126,15.5799404 35.5196126,15.6639404 35.4136126,15.7869404 C34.5316126,16.8299404 34.0326126,18.1159404 34.0376126,19.4339404 C32.9626126,22.5619404 31.7726126,25.6499404 30.4586126,28.6849404 C30.3046126,29.0399404 30.2886126,29.4039404 30.3666126,29.7339404 C27.3456126,30.7409404 24.6466126,32.4399404 22.4746126,34.7629404 C22.3536126,34.6699404 22.2206126,34.5929404 22.0756126,34.5389404 C20.9946126,34.1379404 19.9386126,34.1189404 18.8176126,34.3469404 C18.7006126,34.3699404 18.5966126,34.4099404 18.4986126,34.4599404 C18.3296126,34.4659404 18.1596126,34.4819404 17.9906126,34.4989404 C17.0426126,34.0869404 15.7646126,34.6459404 15.8546126,35.7879404 C15.4246126,36.0959404 15.1936126,36.6179404 15.4586126,37.2829404 L19.7706126,48.0879404 C19.7716126,48.0899404 19.7716126,48.0909404 19.7716126,48.0929404 C19.8276126,48.3049404 19.8836126,48.5169404 19.9376126,48.7299404 C20.3606126,51.1779404 20.7836126,53.6269404 21.2076126,56.0749404 C21.3286126,56.7799404 21.9996126,57.1409404 22.6636126,57.1409404 C22.5196126,57.4179404 22.3746126,57.6949404 22.2286126,57.9699404 C21.3256126,59.6759404 23.9136126,61.1939404 24.8186126,59.4849404 C26.7076126,55.9169404 28.4336126,52.3559404 28.8786126,48.2929404 C29.2476126,44.9289404 28.7996126,41.5409404 28.2206126,38.2109404 C29.6656126,38.2589404 31.1176126,38.0619404 32.4936126,37.5909404 C34.8576126,36.7819404 36.7236126,35.2679404 38.4476126,33.4989404 C41.1676126,30.7109404 43.5256126,27.4869404 44.4396126,23.7109404 C49.4686126,25.3179404 55.2306126,24.2699404 59.4636126,21.1339404 C63.9436126,17.8149404 66.5556126,12.6989404 67.2096126,7.22094035 C67.3066126,6.40994035 66.4506126,5.72894035 65.7096126,5.72085547" id="Fill-13" fill="#C3996B"></path>
                <path d="M56.9625126,105.54704 C56.7375126,105.19904 56.4485126,105.01004 56.0665126,104.85804 C54.7265126,104.32604 53.3865126,103.79404 52.0475126,103.26204 C51.8035126,103.16504 51.4685126,103.19704 51.1875126,103.28804 C51.1655126,103.25904 51.1485126,103.22804 51.1255126,103.19904 C49.7835126,101.50204 47.7935126,100.66204 45.9125126,99.7180404 C44.0205126,98.7680404 42.2155126,97.6220404 40.5865126,96.2670404 C39.7005126,95.5300404 38.8685126,94.7410404 38.0845126,93.9130404 C38.2205126,93.4110404 38.0665126,92.8650404 37.7135126,92.4320404 C34.6785126,88.7030404 31.5465126,84.7570404 30.7075126,79.8920404 C30.5695126,79.0930404 29.5885126,78.6450404 28.8625126,78.8440404 C28.0185126,79.0760404 27.6775126,79.8880404 27.8155126,80.6890404 C28.2055126,82.9550404 29.0585126,85.0440404 30.1615126,87.0120404 C30.1355126,87.2730404 30.1715126,87.5500404 30.3065126,87.8360404 C32.1745126,91.7950404 34.9045126,95.3690404 38.2445126,98.2030404 C39.9105126,99.6160404 41.7105126,100.87604 43.6345126,101.91204 C45.5025126,102.91804 47.6465126,103.60304 49.0045126,105.32004 C49.3535126,105.76104 49.9835126,105.83704 50.5135126,105.67104 C50.7115126,105.89304 50.9505126,106.03604 51.2495126,106.15504 C52.5895126,106.68704 53.9295126,107.21904 55.2685126,107.75004 C55.6075126,107.88504 56.1235126,107.77604 56.4245126,107.60004 C56.7345126,107.41704 57.0315126,107.06104 57.1135126,106.70304 C57.2005126,106.31804 57.1825126,105.88804 56.9625126,105.54704" id="Fill-15" fill="#C3996B"></path>
                <path d="M18.5289126,62.8625404 C17.0629126,60.8895404 14.8269126,59.0935404 12.2159126,59.2885404 C9.72291259,59.4735404 7.39791259,61.4055404 7.39291259,64.0235404 C7.39291259,64.1295404 7.40591259,64.2325404 7.42691259,64.3335404 C5.91091259,66.6285404 5.73491259,69.7165404 6.98591259,72.1835404 C7.35291259,72.9065404 8.36991259,73.1135404 9.03891259,72.7215404 C9.77291259,72.2935404 9.94491259,71.3945404 9.57691259,70.6705404 C9.56391259,70.6445404 9.47691259,70.4565404 9.45891259,70.4235404 C9.41391259,70.3075404 9.37191259,70.1905404 9.33591259,70.0725404 C9.29291259,69.9315404 9.25491259,69.7895404 9.22191259,69.6455404 C9.19991259,69.5495404 9.18091259,69.4535404 9.16391259,69.3565404 C9.15590432,69.3065404 9.15391259,69.2935404 9.14991259,69.2675404 C9.15991259,69.3385404 9.13291259,68.9995404 9.13091259,68.9485404 C9.12491259,68.8005404 9.12291259,68.6535404 9.12691259,68.5055404 C9.13091259,68.3565404 9.14091259,68.2105404 9.15391259,68.0615404 C9.15691259,68.0345404 9.15590432,68.0365404 9.15791259,68.0235404 C9.16591259,67.9735404 9.17391259,67.9245404 9.18291259,67.8745404 C9.24191259,67.5585404 9.32391259,67.2485404 9.42791259,66.9445404 C9.44091259,66.9105404 9.51691259,66.7225404 9.53091259,66.6845404 C9.58191259,66.5745404 9.63491259,66.4645404 9.69291259,66.3565404 C9.82491259,66.1145404 9.97391259,65.8745404 10.1419126,65.6545404 C10.1809126,65.6135404 10.2979126,65.4785404 10.3119126,65.4635404 C10.4129126,65.3545404 10.5169126,65.2495404 10.6269126,65.1495404 C10.6269126,65.1485404 10.8199126,64.9885404 10.8419126,64.9645404 C10.9499126,64.8855404 11.0609126,64.8095404 11.1739126,64.7405404 C11.3029126,64.6605404 11.4369126,64.5855404 11.5739126,64.5155404 C11.5749126,64.5145404 11.7759126,64.4255404 11.8249126,64.4005404 C12.0939126,64.2975404 12.3709126,64.2115404 12.6519126,64.1455404 C12.7759126,64.1175404 12.9029126,64.0935404 13.0289126,64.0735404 C13.0769126,64.0705404 13.2799126,64.0495404 13.3159126,64.0465404 C13.6249126,64.0275404 13.9279126,64.0425404 14.2369126,64.0555404 C14.2999126,64.0575404 14.3309126,64.0575404 14.3489126,64.0575404 C14.3649126,64.0625404 14.3899126,64.0685404 14.4469126,64.0805404 C14.5969126,64.1105404 14.7479126,64.1385404 14.8969126,64.1765404 C15.5679126,64.3475404 15.8439126,64.4775404 16.4759126,64.9155404 C17.0169126,65.2895404 17.8489126,65.1255404 18.2949126,64.6805404 C18.7289126,64.2465404 18.9199126,63.3895404 18.5289126,62.8625404" id="Fill-17" fill="#C3996B"></path>
                <path d="M84.8024126,42.3214404 C84.4054126,40.6214404 84.0374126,38.8824404 83.4184126,37.2464404 C82.8364126,35.7104404 81.8144126,34.3584404 81.2744126,32.8244404 C80.8264126,31.5514404 79.5654126,30.7034404 78.1984126,31.0784404 C76.9644126,31.4184404 76.0634126,32.5234404 76.5134126,33.8034404 C77.0644126,35.3724404 79.2764126,36.7534404 79.8904126,38.2804404 C80.4924126,39.7784404 79.5224126,41.7094404 79.8934126,43.2754404 C80.6694126,46.5554404 81.3374126,49.8724404 81.7564126,53.2174404 C81.9244126,54.5574404 82.7854126,55.7174404 84.2564126,55.7174404 C85.4774126,55.7174404 86.9264126,54.5664404 86.7564126,53.2174404 C86.2964126,49.5504404 85.6444126,45.9214404 84.8024126,42.3214404" id="Fill-19" fill="#E4C3A2"></path>
                <path d="M129.838513,43.4601404 C129.701513,42.2481404 129.566513,41.0351404 129.430513,39.8221404 C129.406513,39.6131404 129.278513,39.4801404 129.123513,39.4081404 C129.122513,39.2921404 129.106513,39.1771404 129.110513,39.0601404 C129.140513,38.4171404 128.140513,38.4181404 128.110513,39.0601404 C128.044513,40.5381404 128.483513,41.9571404 128.799513,43.3851404 C128.824513,43.4961404 128.843513,43.6081404 128.866513,43.7211404 C129.026513,45.1371404 129.185513,46.5531404 129.343513,47.9681404 C129.413513,48.5921404 130.339513,48.6281404 130.343513,47.9681404 C130.351513,46.4511404 130.150513,44.9421404 129.838513,43.4601404" id="Fill-21" fill="#E4C3A2"></path>
            </g>
            <g id="outline" transform="translate(0.000158, 0.000027)">
                <path d="M162.840542,113.215473 C162.668542,111.569473 161.855542,109.853473 160.864542,108.537473 C159.801542,107.123473 158.377542,106.364473 156.611542,106.235473 C155.217542,106.132473 153.790542,106.184473 152.374542,106.255473 C151.166542,105.784473 149.774542,105.710473 148.480542,105.884473 C146.093542,106.206473 143.750542,106.929473 141.571542,107.949473 C141.083542,108.178473 140.771542,108.683473 140.964542,109.226473 C140.974542,109.256473 141.000542,109.279473 141.014542,109.309473 C141.026542,109.413473 141.049542,109.519473 141.092542,109.619473 C141.134542,109.764473 141.199542,109.906473 141.317542,110.038473 C142.367542,111.217473 143.997542,111.152473 145.428542,110.922473 C146.278542,110.785473 147.159542,110.602473 147.899542,111.150473 C148.478542,111.578473 148.887542,112.206473 149.416542,112.690473 C150.564542,113.736473 151.885542,113.859473 153.305542,113.318473 C153.885542,113.096473 154.550542,112.685473 155.192542,112.853473 C156.110542,113.091473 156.697542,114.232473 157.265542,114.903473 C158.169542,115.974473 159.502542,116.886473 160.975542,116.480473 C162.433542,116.077473 162.985542,114.612473 162.840542,113.215473" id="Fill-26" fill="#808184"></path>
                <path d="M171.048542,137.301373 C170.903542,137.431373 170.791542,137.604373 170.762542,137.835373 C169.531542,147.460373 162.427542,154.872373 155.684542,161.355373 C155.361542,161.267373 154.987542,161.335373 154.737542,161.668373 C150.648542,167.128373 148.045542,174.273373 142.171542,178.172373 C135.643542,182.507373 127.366542,181.131373 120.296542,179.075373 C116.359542,177.931373 112.502542,176.508373 108.629542,175.167373 C104.283542,173.663373 99.9385419,172.159373 95.5935419,170.655373 C87.9335419,168.004373 80.0705419,165.431373 73.3785419,160.724373 C67.2355419,156.405373 62.1385419,149.788373 61.3945419,142.178373 C61.3825419,142.089373 61.3775419,141.999373 61.3615419,141.911373 C61.3175419,141.377373 61.2915419,140.839373 61.2905419,140.296373 C61.2895419,139.481373 60.3215419,139.298373 59.8725419,139.737373 C59.3965419,139.859373 58.9965419,140.377373 59.3065419,140.940373 C59.5345419,141.355373 59.6705419,141.793373 59.7475419,142.239373 C59.7655419,142.419373 59.7815419,142.600373 59.8035419,142.780373 C59.8695419,144.188373 59.2885419,145.624373 58.2985419,146.660373 C57.4495419,147.548373 56.3585419,148.058373 55.1935419,148.285373 C54.8835419,148.078373 54.5215419,147.958373 54.1365419,147.986373 C50.5765419,148.237373 47.9105419,145.011373 45.7255419,142.643373 C42.8615419,139.538373 40.1355419,136.303373 37.5835419,132.937373 C37.3715419,132.657373 37.1115419,132.428373 36.8265419,132.257373 C36.7135419,132.065373 36.5935419,131.876373 36.4835419,131.682373 C36.4775419,131.670373 36.4705419,131.657373 36.4645419,131.645373 C36.4575419,131.630373 36.4455419,131.618373 36.4385419,131.604373 C35.0865419,129.205373 33.9885419,126.684373 33.5095419,123.954373 C33.2795419,122.650373 33.2595419,121.277373 33.5135419,119.964373 C33.6395419,119.847373 33.7595419,119.715373 33.8645419,119.553373 C34.9285419,117.910373 36.6935419,116.824373 38.5935419,116.452373 C39.3825419,116.601373 40.1795419,116.559373 40.9345419,116.362373 C41.3285419,116.410373 41.7205419,116.489373 42.1025419,116.606373 C43.9485419,117.164373 45.7135419,118.550373 47.1935419,119.760373 C48.7965419,121.071373 50.1475419,122.532373 51.0015419,124.437373 C51.3435419,125.199373 52.2755419,125.506373 53.0785419,125.376373 C53.3595419,125.440373 53.6345419,125.447373 53.8975419,125.406373 C54.0605419,125.405373 54.2125419,125.364373 54.3445419,125.280373 C54.8955419,125.061373 55.3395419,124.609373 55.5365419,123.979373 C55.8915419,122.854373 56.0095419,121.742373 55.9535419,120.649373 C56.0115419,120.457373 56.0695419,120.265373 56.1275419,120.073373 C56.2285419,119.739373 56.0615419,119.357373 55.7715419,119.168373 C55.5665419,118.087373 55.2135419,117.029373 54.7685419,115.998373 C53.4955419,108.974373 50.8125419,102.246373 46.8585419,96.2873731 L48.4815419,96.9053731 C49.7575419,97.3923731 51.0675419,98.0363731 52.4235419,98.2563731 C53.5465419,98.4383731 54.5975419,98.1773731 55.4125419,97.5543731 C56.1255419,97.8803731 56.9745419,97.9113731 57.6535419,97.4473731 C59.3025419,96.3203731 60.7295419,94.9913731 61.9415419,93.4473731 C62.3575419,92.9963731 62.7225419,92.4993731 63.0085419,91.9483731 C63.1155419,91.7393731 63.1875419,91.5353731 63.2385419,91.3333731 C64.3075419,89.6293731 65.1595419,87.7883731 65.7715419,85.8703731 C68.4615419,83.4793731 69.2835419,79.5773731 69.2135419,75.9163731 C71.9845419,79.2363731 76.0605419,81.3893731 80.3875419,81.8653731 C85.9855419,82.4823731 91.3785419,79.8413731 94.7515419,75.4133731 C95.7045419,74.1623731 96.4515419,72.7873731 97.0065419,71.3393731 C97.2965419,70.8223731 97.5735419,70.3003731 97.8355419,69.7723731 C100.056542,73.4473731 103.577542,76.4083731 107.826542,77.3073731 C112.888542,78.3763731 118.003542,75.9933731 120.513542,71.4603731 C121.057542,70.4773731 121.429542,69.4193731 121.635542,68.3363731 C121.975542,70.2253731 122.573542,71.8633731 124.066542,73.3573731 C124.709542,74.0003731 125.528542,74.5723731 126.420542,75.0223731 C127.913542,76.3923731 129.777542,77.2943731 132.152542,77.3663731 C135.027542,77.4533731 137.476542,75.6973731 138.860542,73.2643731 C139.916542,71.4103731 140.303542,69.3523731 140.422542,67.2593731 C142.499542,70.3293731 146.122542,72.3843731 149.885542,72.1333731 C153.796542,71.8713731 157.179542,69.3463731 158.837542,65.9253731 C159.652542,66.3673731 160.535542,66.6723731 161.459542,66.8163731 C161.541542,66.8563731 161.619542,66.9033731 161.702542,66.9393731 C157.413542,72.3223731 157.717542,80.2833731 159.081542,86.6873731 C160.685542,94.2113731 164.127542,101.169373 166.940542,108.282373 C168.562542,112.383373 169.990542,116.567373 170.791542,120.912373 C170.808542,121.002373 170.846542,121.067373 170.882542,121.135373 C171.468542,126.504373 171.523542,131.921373 171.048542,137.301373 M117.882542,188.751373 C117.119542,189.518373 115.901542,189.898373 114.874542,190.154373 C113.778542,190.428373 112.516542,190.557373 111.457542,190.072373 C110.337542,189.559373 109.863542,188.361373 109.105542,187.470373 C108.764542,187.069373 108.369542,186.779373 107.938542,186.487373 C107.282542,186.044373 107.351542,185.601373 107.329542,184.852373 C107.248542,182.051373 107.167542,179.251373 107.087542,176.451373 C110.569542,177.657373 114.059542,178.844373 117.567542,179.961373 C117.560542,180.058373 117.565542,180.160373 117.602542,180.273373 C118.074542,181.733373 118.402542,183.233373 118.521542,184.764373 C118.618542,186.021373 118.859542,187.769373 117.882542,188.751373 M106.455542,3.60837308 C105.752542,4.13737308 104.931542,4.57737308 104.051542,4.90437308 C104.806542,4.40037308 105.612542,3.96437308 106.455542,3.60837308 M136.793542,73.3573731 C136.819542,73.3293731 136.843542,73.2973731 136.868542,73.2693731 C135.812542,74.6563731 134.326542,75.6133731 132.543542,75.6973731 C134.146542,75.3233731 135.662542,74.5883731 136.793542,73.3573731 M143.578542,68.3323731 C142.594542,67.5003731 141.773542,66.4743731 141.192542,65.3213731 C141.915542,66.3833731 142.714542,67.3923731 143.578542,68.3323731 M171.499542,116.650373 C167.988542,103.726373 159.594542,91.9353731 159.855542,78.2163731 C159.928542,74.3573731 160.855542,70.3463731 163.478542,67.4203731 C163.912542,67.4743731 164.351542,67.4883731 164.784542,67.4473731 C168.154542,67.1273731 170.735542,64.4063731 171.950542,61.4083731 C173.414542,57.8023731 173.480542,53.4933731 173.307542,49.6553731 C173.183542,46.8943731 172.731542,44.0713731 171.680542,41.4963731 C171.298542,40.1353731 170.581542,38.9183731 169.652542,37.8963731 C168.009542,35.7183731 165.789542,33.9653731 163.202542,33.1273731 C163.191542,33.0943731 163.175542,33.0633731 163.162542,33.0303731 C163.602542,30.8793731 163.899542,28.5483731 162.814542,26.5503731 C162.421542,25.8263731 161.879542,25.2273731 161.241542,24.7863731 C160.750542,22.7873731 159.942542,21.0033731 158.540542,19.5383731 C158.139542,18.6723731 157.571542,17.8843731 156.819542,17.2423731 C155.543542,16.1563731 153.875542,15.6243731 152.240542,15.7153731 C151.742542,14.6103731 151.034542,13.5623731 150.081542,12.6103731 C146.841542,9.36937308 140.690542,8.10037308 136.751542,10.8903731 C136.458542,11.0973731 136.164542,11.3123731 135.867542,11.5263731 C135.126542,8.77637308 133.187542,6.50937308 130.702542,5.10137308 C130.508542,4.94737308 130.320542,4.78437308 130.113542,4.64437308 C128.040542,3.23337308 125.334542,2.66337308 122.907542,3.25737308 C122.338542,2.69937308 121.706542,2.20837308 121.028542,1.78637308 C120.527542,1.19137308 119.855542,0.718373076 119.098542,0.465373076 C118.287542,0.193373076 117.434542,0.128373076 116.578542,0.142373076 C114.637542,-0.159626924 112.614542,0.0103730755 110.737542,0.733373076 C110.551542,0.764373076 110.361542,0.783373076 110.175542,0.818373076 C106.694542,1.46037308 103.160542,2.96337308 100.770542,5.53337308 C99.3165419,5.55137308 97.9225419,5.20037308 96.8585419,4.36637308 C93.6815419,1.87837308 90.3695419,0.880373076 87.0855419,1.50737308 C83.6395419,1.82237308 81.1685419,4.16437308 78.7225419,6.46837308 C77.8325419,7.19337308 76.9445419,7.91737308 76.0555419,8.64337308 C73.5075419,7.21337308 70.9725419,5.72537308 68.3435419,4.46437308 C65.8215419,3.25437308 62.9875419,2.41237308 60.2255419,3.31237308 C54.9215419,5.03937308 52.9685419,10.5703731 51.7075419,15.5123731 C47.7115419,13.1143731 42.7215419,12.4673731 38.2415419,13.7993731 C36.7445419,14.2443731 35.3525419,14.9343731 34.0695419,15.7843731 C31.8055419,16.8083731 29.7665419,18.3633731 28.1485419,20.5413731 C25.7325419,23.7953731 24.7345419,27.7093731 25.1945419,31.4553731 C24.4955419,31.7363731 23.6745419,31.8903731 23.1375419,32.1003731 C22.0375419,32.5303731 20.9805419,33.0583731 19.9865419,33.6973731 C17.4975419,35.2993731 15.3885419,37.5183731 13.9205419,40.0943731 C12.6105419,41.6703731 11.5765419,43.5043731 10.9545419,45.6723731 C9.48954188,50.7713731 10.7245419,55.6583731 13.5085419,59.7203731 C10.0695419,60.5813731 6.85154188,62.3083731 4.44854188,64.9423731 C2.61754188,66.9473731 1.40754188,69.3963731 0.905541884,71.9893731 C-0.577458116,75.9383731 -0.0614581164,80.5903731 3.26254188,83.6423731 C3.43854188,83.8033731 3.62254188,83.9473731 3.80454188,84.0973731 C0.435541884,85.9423731 -0.494458116,90.8763731 0.230541884,94.4193731 C0.947541884,97.9243731 3.11654188,101.029373 6.09254188,102.942373 C5.63554188,103.463373 5.22454188,104.042373 4.86654188,104.682373 C4.85154188,104.704373 4.83254188,104.724373 4.81754188,104.747373 C4.49754188,105.221373 4.28054188,105.737373 4.13654188,106.271373 C2.41154188,110.986373 3.86054188,117.300373 8.74854188,119.689373 C9.89054188,120.246373 10.0045419,120.068373 10.4605419,120.779373 C11.5085419,122.411373 12.7785419,123.585373 14.1585419,124.409373 C13.1805419,125.538373 12.6875419,127.119373 13.0815419,128.898373 C13.0925419,128.946373 13.1065419,128.993373 13.1165419,129.042373 C13.0815419,129.344373 13.0445419,129.646373 13.0315419,129.948373 C12.8635419,133.783373 14.5125419,137.359373 16.4175419,140.587373 C18.4945419,144.105373 20.5875419,147.739373 23.0115419,151.030373 C25.1945419,153.994373 28.1275419,156.656373 31.9195419,157.149373 C34.9435419,157.541373 38.1965419,156.098373 39.5585419,153.386373 C40.2085419,153.943373 40.9265419,154.427373 41.6875419,154.825373 C42.6945419,156.246373 44.2085419,157.451373 45.4235419,158.396373 C47.6715419,160.143373 50.2605419,161.517373 53.0575419,162.126373 C58.1565419,163.237373 63.8285419,161.589373 66.8685419,157.201373 C67.6605419,158.062373 68.4895419,158.887373 69.3635419,159.655373 C75.6905419,165.208373 83.7275419,168.259373 91.5655419,170.998373 C96.1835419,172.613373 100.797542,174.263373 105.423542,175.877373 C105.503542,178.625373 105.582542,181.372373 105.661542,184.120373 C105.695542,185.280373 105.531542,186.633373 106.498542,187.473373 C106.885542,187.808373 107.358542,188.019373 107.717542,188.387373 C108.114542,188.794373 108.399542,189.290373 108.729542,189.750373 C110.112542,191.680373 112.128542,192.275373 114.429542,191.920373 C116.415542,191.614373 118.995542,190.735373 119.847542,188.737373 C120.400542,187.439373 120.270542,185.852373 120.144542,184.482373 C120.020542,183.139373 119.764542,181.819373 119.392542,180.526373 C126.177542,182.555373 133.751542,183.937373 140.422542,181.001373 C147.728542,177.785373 150.851542,170.200373 155.118542,163.963373 C155.269542,163.941373 155.419542,163.887373 155.558542,163.755373 C162.294542,157.324373 169.427542,150.177373 171.789542,140.969373 C172.083542,140.866373 172.337542,140.626373 172.385542,140.244373 C173.334542,132.581373 173.194542,124.848373 172.022542,117.218373 C171.968542,116.870373 171.752542,116.700373 171.499542,116.650373" id="Fill-28" fill="#231F20"></path>
                <path d="M91.1003419,118.694973 C90.2493419,116.168973 89.8493419,113.469973 89.8453419,110.889973 C89.8353419,105.616973 91.4983419,100.356973 94.6133419,96.0939731 C94.9603419,96.1039731 95.3003419,96.1419731 95.6293419,96.2099731 C95.6543419,96.1649731 95.6813419,96.1239731 95.7013419,96.0709731 C96.9543419,92.6019731 102.032342,92.1999731 105.049342,93.0099731 C107.932342,93.7849731 110.102342,95.6819731 111.476342,98.1829731 C111.323342,98.3779731 111.252342,98.6229731 111.309342,98.8859731 C110.831342,98.6779731 110.332342,98.5279731 109.824342,98.4539731 C106.375342,97.9599731 103.413342,100.687973 101.829342,103.470973 C100.010342,106.666973 99.1443419,110.805973 100.409342,114.356973 C101.038342,114.140973 101.670342,113.933973 102.308342,113.740973 C101.493342,111.415973 101.783342,108.796973 102.621342,106.498973 C103.480342,104.139973 105.116342,101.562973 107.589342,100.673973 C108.883342,100.209973 110.203342,100.358973 111.326342,101.168973 C112.380342,101.929973 113.042342,103.123973 112.634342,104.413973 C112.343342,105.334973 113.353342,105.860973 114.040342,105.551973 C114.441342,107.412973 114.571342,109.333973 114.454342,111.250973 C115.120342,111.168973 115.783342,111.091973 116.446342,111.023973 C116.608342,107.628973 116.093342,104.219973 114.738342,101.109973 C113.996342,98.2839731 112.693342,95.5399731 110.433342,93.6259731 C108.137342,91.6809731 105.140342,90.6009731 102.128342,90.6449731 C99.4113419,90.6839731 96.4363419,91.6459731 94.7463419,93.7919731 C94.4123419,93.5979731 93.9963419,93.6079731 93.6773419,94.0139731 C88.1533419,101.041973 86.1893419,111.347973 89.3713419,119.825973 C89.9383419,119.432973 90.5143419,119.055973 91.1003419,118.694973" id="Fill-30" fill="#231F20"></path>
                <path d="M140.433342,129.456673 C138.391342,126.738673 136.298342,124.060673 134.245342,121.352673 C132.258342,118.734673 129.860342,115.184673 131.728342,111.862673 C132.247342,110.937673 130.826342,110.106673 130.305342,111.031673 C128.648342,113.978673 129.590342,117.358673 131.303342,120.049673 C133.386342,123.321673 135.986342,126.324673 138.339342,129.405673 C139.682342,131.164673 144.349342,137.403673 139.753342,138.167673 C137.808342,138.490673 135.779342,137.671673 133.996342,136.990673 C132.137342,136.281673 130.337342,135.436673 128.586342,134.494673 C127.654342,133.991673 126.821342,135.412673 127.755342,135.916673 C130.534342,137.412673 133.560342,138.864673 136.648342,139.583673 C139.067342,140.146673 142.547342,140.011673 143.204342,137.024673 C143.811342,134.263673 142.004342,131.548673 140.433342,129.456673" id="Fill-32" fill="#231F20"></path>
                <path d="M141.411842,107.322873 C141.446842,107.705873 141.491842,108.090873 141.530842,108.474873 C142.063842,108.383873 142.608842,108.297873 143.159842,108.218873 C142.876842,105.476873 142.801842,102.635873 143.128842,99.8678731 C143.237842,99.7188731 143.321842,99.5438731 143.326842,99.3118731 C143.333842,98.9868731 143.343842,98.6598731 143.354842,98.3308731 C143.393842,98.1128731 143.426842,97.8928731 143.470842,97.6768731 C143.441842,97.6708731 143.418842,97.6588731 143.390842,97.6518731 C143.507842,95.6768731 143.832842,93.6868731 144.927842,92.0118731 C146.161842,90.1238731 148.214842,89.0668731 150.452842,89.6858731 C152.637842,90.2918731 154.669842,91.8428731 156.198842,93.4808731 C157.301842,94.6628731 158.179842,96.0648731 158.648842,97.6038731 C155.629842,96.4148731 151.815842,99.1218731 150.578842,101.924873 C149.770842,103.751873 149.524842,105.822873 149.889842,107.718873 C150.562842,107.719873 151.236842,107.740873 151.907842,107.780873 C151.136842,104.909873 152.303842,101.464873 154.909842,99.9768731 C156.150842,99.2678731 157.763842,98.9618731 158.832842,100.111873 C159.114842,100.414873 159.448842,100.457873 159.747842,100.367873 C160.887842,103.354873 161.347842,106.770873 161.003842,110.062873 C161.629842,110.388873 162.228842,110.760873 162.802842,111.170873 C162.936842,110.374873 163.029842,109.590873 163.074842,108.836873 C163.310842,104.913873 162.462842,100.998873 160.671842,97.5068731 C160.148842,95.4688731 159.073842,93.6328731 157.612842,92.0658731 C155.753842,90.0738731 153.128842,88.1308731 150.405842,87.6238731 C147.634842,87.1078731 145.127842,88.3628731 143.493842,90.5838731 C141.651842,93.0868731 141.391842,96.3078731 141.326842,99.3118731 C141.321842,99.5158731 141.381842,99.6768731 141.462842,99.8148731 C141.175842,102.304873 141.187842,104.846873 141.411842,107.322873" id="Fill-34" fill="#231F20"></path>
                <path d="M89.2819419,119.444973 C88.9359419,117.803973 90.6169419,117.975973 92.1399419,116.782973 C94.1389419,115.217973 97.0239419,114.546973 99.2599419,113.332973 C102.277942,111.693973 105.430942,110.391973 108.632942,109.431973 C110.479942,108.779973 112.342942,108.226973 114.215942,107.755973 C114.570942,107.457973 115.079942,107.306973 115.466942,107.585973 C116.731942,108.494973 116.604942,110.266973 115.632942,111.756973 C114.394942,113.649973 112.055942,114.581973 110.038942,115.531973 C109.017942,116.011973 107.890942,116.582973 107.105942,117.400973 C106.276942,118.265973 106.205942,119.256973 105.644942,120.198973 C104.533942,122.064973 102.195942,122.812973 100.251942,122.699973 C99.2279419,122.640973 98.3269419,122.332973 97.3599419,122.151973 C96.0819419,121.913973 95.3139419,122.391973 94.0699419,122.972973 C92.3459419,123.777973 89.6129419,121.014973 89.2819419,119.444973" id="Fill-36" fill="#808184"></path>
                <path d="M98.4235419,80.0201731 C94.1565419,86.6391731 88.9615419,92.6041731 83.0095419,97.7591731 C82.0345419,98.6041731 83.4545419,100.013173 84.4245419,99.1741731 C90.5005419,93.9091731 95.7945419,87.7871731 100.150542,81.0301731 C100.849542,79.9451731 99.1185419,78.9411731 98.4235419,80.0201731" id="Fill-38" fill="#231F20"></path>
                <path d="M153.829842,82.1607731 C148.768842,81.9167731 143.860842,80.3757731 139.550842,77.7187731 C138.451842,77.0417731 137.445842,78.7707731 138.540842,79.4457731 C143.151842,82.2877731 148.421842,83.8987731 153.829842,84.1607731 C155.115842,84.2237731 155.112842,82.2227731 153.829842,82.1607731" id="Fill-40" fill="#231F20"></path>
                <path d="M144.331742,155.722273 C141.611742,152.645273 137.248742,151.221273 133.241742,152.160273 C129.400742,153.061273 126.282742,156.096273 125.076742,159.816273 C124.679742,161.042273 126.609742,161.569273 127.005742,160.347273 C128.003742,157.270273 130.617742,154.832273 133.772742,154.088273 C137.112742,153.302273 140.674742,154.598273 142.916742,157.136273 C143.770742,158.102273 145.181742,156.684273 144.331742,155.722273" id="Fill-42" fill="#231F20"></path>
                <path d="M116.638442,108.329673 C116.643442,108.191673 116.615442,108.062673 116.552442,107.943673 C116.511442,107.820673 116.443442,107.713673 116.345442,107.622673 C116.254442,107.524673 116.147442,107.455673 116.023442,107.415673 C115.942442,107.373673 115.851442,107.368673 115.761442,107.357673 C115.738442,107.257673 115.720442,107.156673 115.693442,107.057673 C115.731442,106.299673 115.654442,105.542673 115.392442,104.817673 C115.111442,104.039673 114.656442,103.314673 114.056442,102.748673 C114.052442,102.732673 114.050442,102.715673 114.045442,102.699673 C113.999442,102.510673 113.943442,102.322673 113.884442,102.135673 C113.870442,102.097673 113.858442,102.058673 113.844442,102.018673 C113.789442,101.853673 113.742442,101.685673 113.677442,101.523673 C113.652442,101.457673 113.609442,101.404673 113.574442,101.346673 C113.569442,101.334673 113.565442,101.321673 113.560442,101.308673 C113.122442,100.359673 112.328442,99.0236731 111.130442,99.0065747 C110.720442,99.0016731 110.371442,99.1876731 110.118442,99.4636731 C109.888442,99.3906731 109.625442,99.3946731 109.353442,99.5476731 C109.324442,99.5626731 109.296442,99.5826731 109.268442,99.6006731 C109.037442,99.4596731 108.785442,99.4306731 108.536442,99.4926731 C108.518442,99.4966731 108.499442,99.4986731 108.481442,99.5046731 C108.325442,99.5516731 108.175442,99.6196731 108.040442,99.7256731 C107.962442,99.7856731 107.892442,99.8566731 107.815442,99.9206731 C107.458442,99.6316731 106.946442,99.5556731 106.541442,99.9876731 C104.886442,101.758673 103.475442,103.867673 102.761442,106.182673 C102.654442,106.174673 102.546442,106.170673 102.443442,106.203673 C102.206442,106.279673 101.958442,106.431673 101.845442,106.662673 C101.525442,107.322673 101.284442,108.016673 101.181442,108.744673 C101.140442,108.877673 101.134442,109.010673 101.163442,109.142673 C101.164442,109.169673 101.183442,109.190673 101.187442,109.217673 C101.161442,109.275673 101.132442,109.332673 101.116442,109.392673 C101.106442,109.428673 101.099442,109.463673 101.093442,109.498673 C101.076442,109.617673 101.052442,109.738673 101.051442,109.859673 C101.050442,109.979673 101.076442,110.115673 101.093442,110.225673 C101.099442,110.263673 101.106442,110.299673 101.117442,110.336673 C101.130442,110.391673 101.169442,110.432673 101.193442,110.481673 C96.8354419,111.853673 92.6874419,113.871673 88.9434419,116.515673 C88.2834419,116.980673 88.4464419,117.840673 88.9214419,118.217673 C89.1924419,118.576673 89.6594419,118.754673 90.1434419,118.422673 C94.0244419,115.756673 98.3194419,113.808673 102.872442,112.636673 C102.878442,112.654673 102.884442,112.674673 102.891442,112.693673 C106.343442,111.634673 109.909442,110.897673 113.482442,110.377673 C114.096442,110.359673 114.711442,110.351673 115.328442,110.360673 C115.679442,110.365673 115.927442,110.220673 116.085442,110.012673 C116.214442,109.961673 116.332442,109.892673 116.433442,109.793673 C116.485442,109.726673 116.536442,109.658673 116.589442,109.591673 C116.679442,109.435673 116.725442,109.266673 116.726442,109.086673 C116.697442,108.834673 116.667442,108.582673 116.638442,108.329673" id="Fill-44" fill="#231F20"></path>
                <path d="M161.183342,105.441073 C161.229342,105.278073 161.242342,105.102073 161.192342,104.922073 C161.155342,104.791073 161.110342,104.662073 161.070342,104.531073 C160.849342,102.909073 160.435342,101.313073 159.795342,99.7900731 C159.587342,99.2930731 159.134342,98.9360731 158.566342,99.0920731 C158.527342,99.1020731 158.488342,99.1220731 158.449342,99.1380731 C158.599342,98.8370731 158.601342,98.4510731 158.443342,98.1720731 C158.151342,97.6590731 157.566342,97.5970731 157.075342,97.8130731 C155.383342,98.5580731 153.970342,99.9640731 153.179342,101.647073 C152.146342,102.673073 151.492342,104.050073 151.314342,105.493073 C148.445342,105.488073 145.578342,105.639073 142.723342,105.956073 C142.732342,105.850073 142.735342,105.744073 142.746342,105.638073 C142.803342,105.117073 142.246342,104.616073 141.746342,104.638073 C141.156342,104.665073 140.807342,105.079073 140.746342,105.638073 C140.704342,106.021073 140.685342,106.405073 140.666342,106.789073 C140.639342,106.878073 140.609342,106.963073 140.608292,107.067073 C140.607342,107.143073 140.621342,107.222073 140.642342,107.300073 C140.631342,107.746073 140.629342,108.192073 140.644342,108.637073 C140.649342,108.635073 140.652342,108.633073 140.658342,108.633073 C141.300342,108.512073 141.961342,108.399073 142.634342,108.296073 C142.632342,108.186073 142.638342,108.075073 142.638342,107.963073 C145.546342,107.639073 148.467342,107.485073 151.390342,107.493073 C151.404342,107.559073 151.409342,107.628073 151.425342,107.696073 C151.431342,107.721073 151.448342,107.735073 151.455342,107.758073 C154.857342,107.919073 158.185342,108.585073 161.023342,110.073073 C161.253342,108.536073 161.318342,106.981073 161.183342,105.441073" id="Fill-46" fill="#231F20"></path>
            </g>
        </g>
    </g>
</svg>