<?xml version="1.0" encoding="UTF-8"?>
<svg width="500px" height="600px" viewBox="0 0 500 600" version="1.1" xmlns="http://www.w3.org/2000/svg" xmlns:xlink="http://www.w3.org/1999/xlink">
    <title>crylookingup</title>
    <defs>
        <polygon id="path-1" points="0.000362517026 0.084 173.375333 0.084 173.375333 192.102015 0.000362517026 192.102015"></polygon>
    </defs>
    <g id="crylookingup" stroke="none" stroke-width="1" fill="none" fill-rule="evenodd">
        <g id="face" transform="translate(154.000000, 64.000000)">
            <g id="fill" transform="translate(32.340687, 61.628264)">
                <path d="M82.4167126,49.7127363 C82.4167126,63.8737363 75.8927126,75.3537363 67.8447126,75.3537363 C59.7957126,75.3537363 53.2707126,63.8737363 53.2707126,49.7127363 C53.2707126,35.5527363 59.7957126,24.0727363 67.8447126,24.0727363 C75.8927126,24.0727363 82.4167126,35.5527363 82.4167126,49.7127363" id="Fill-1" fill="#FEFEFE"></path>
                <path d="M129.123713,45.5574363 C129.123713,57.1114363 123.372713,66.4774363 116.277713,66.4774363 C109.184713,66.4774363 103.433713,57.1114363 103.433713,45.5574363 C103.433713,34.0034363 109.184713,24.6374363 116.277713,24.6374363 C123.372713,24.6374363 129.123713,34.0034363 129.123713,45.5574363" id="Fill-3" fill="#FEFEFE"></path>
                <path d="M86.7536126,122.408936 C86.5666126,121.729936 86.2356126,121.128936 85.8166126,120.590936 C85.7656126,120.444936 85.7136126,120.298936 85.6496126,120.151936 C85.4626126,119.726936 85.0926126,119.508936 84.6846126,119.445936 C84.3876126,119.207936 84.0756126,118.987936 83.7516126,118.788936 C82.2726126,117.880936 80.5906126,117.254936 78.9876126,116.603936 C78.3726126,116.353936 77.7046126,116.013936 77.0266126,115.919936 C76.6226126,115.464936 75.8616126,115.338936 75.3326126,115.570936 C74.6546126,115.868936 74.2636126,116.603936 74.4636126,117.340936 C74.5196126,117.545936 74.5566126,117.750936 74.6016126,117.954936 C74.5836126,118.057936 74.5656126,118.161936 74.5546126,118.264936 C74.3166126,120.363936 74.4576126,122.484936 74.8086126,124.560936 C74.8686126,124.918936 75.1036126,125.199936 75.4026126,125.389936 C75.4056126,125.402936 75.4066126,125.415936 75.4096126,125.428936 C75.4046126,125.429936 75.3996126,125.429936 75.3946126,125.429936 C75.7946126,127.146936 77.1446126,128.572936 78.8346126,129.071936 C79.7196126,129.332936 80.6626126,129.310936 81.5406126,129.055936 C82.1106126,129.574936 83.1136126,129.676936 83.6776126,129.075936 C84.2166126,128.501936 84.6386126,127.838936 84.9606126,127.132936 C85.2226126,127.081936 85.4786126,126.977936 85.6946126,126.772936 C86.8726126,125.661936 87.1746126,123.932936 86.7536126,122.408936" id="Fill-5" fill="#E4C3A2"></path>
                <path d="M78.0339126,126.406036 C78.4439126,126.137036 78.7459126,125.705036 78.6839126,125.195036 C78.4719126,123.446036 78.2619126,121.696036 78.0509126,119.947036 C78.0099126,119.608036 77.9709126,119.273036 77.9179126,118.943036 C78.0039126,118.853036 78.0829126,118.754036 78.1529126,118.636036 C78.5179126,118.019036 78.4029126,117.210036 77.9919126,116.655036 C77.4979126,115.986036 76.5749126,115.773036 75.8379126,116.183036 C75.8289126,116.188036 75.8219126,116.197036 75.8129126,116.202036 C75.6709126,116.167036 75.5329126,116.125036 75.3799126,116.106036 C74.7949126,116.034036 74.0239126,116.620036 73.9319126,117.208036 C73.3499126,120.936036 73.8759126,124.651036 75.5049126,128.060036 C75.8529126,128.792036 76.8989126,128.983036 77.5559126,128.598036 C78.3049126,128.162036 78.4449126,127.280036 78.0949126,126.547036 C78.0729126,126.501036 78.0549126,126.452036 78.0339126,126.406036" id="Fill-7" fill="#C3996B"></path>
                <path d="M108.628613,48.7244363 C107.574613,44.4624363 108.867613,44.3474363 109.473613,40.0254363 C109.685613,38.5174363 110.012613,37.0174363 110.456613,35.5564363 C110.606613,34.9354363 110.789613,34.3274363 111.014613,33.7384363 C110.992613,33.6204363 110.980613,33.5014363 110.982613,33.3804363 C111.009613,31.6854363 111.708613,29.9914363 113.266613,29.1594363 C113.412613,29.0804363 113.563613,29.0134363 113.715613,28.9504363 C114.061613,28.4924363 114.430613,28.0484363 114.823613,27.6224363 C116.024613,26.3244363 117.719613,27.2284363 118.133613,28.5384363 C118.543613,28.3884363 118.926613,28.1564363 119.288613,27.8754363 C119.418613,27.9154363 119.548613,27.9564363 119.676613,28.0014363 C119.723613,28.0194363 119.769613,28.0394363 119.816613,28.0564363 C119.910613,28.3394363 120.001613,28.6214363 120.106613,28.9034363 C120.294613,28.9154363 120.482613,28.9484363 120.666613,28.9744363 C120.792613,28.9924363 120.913613,29.0254363 121.031613,29.0724363 C121.300613,29.1794363 121.588613,29.2854363 121.834613,29.4464363 C122.137613,29.6244363 122.378613,29.8674363 122.558613,30.1694363 C122.625613,30.3294363 122.693613,30.4914363 122.761613,30.6524363 C122.801613,30.8024363 122.815613,30.9534363 122.821613,31.1034363 C124.812613,32.3984363 126.246613,34.6374363 126.774613,36.9584363 C126.836613,37.0404363 126.904613,37.1204363 126.946613,37.2184363 C127.415613,38.3214363 127.974613,39.4564363 128.461613,40.6154363 C128.779613,41.5874363 128.205613,42.0204363 128.470613,43.0084363 C128.493613,43.0934363 128.807613,43.6624363 128.866613,43.7204363 C129.145613,45.1614363 127.765613,45.0384363 127.116613,46.5004363 C127.151613,46.7054363 129.134613,48.5384363 129.156613,48.7424363 C129.171613,48.8784363 129.175613,49.0174363 129.165613,49.1564363 C129.165613,49.1614363 129.164613,49.1684363 129.163613,49.1754363 C129.205613,49.4634363 129.189613,49.7574363 129.145613,50.0764363 M55.5616126,61.4684363 C54.1516126,58.9664363 55.3936126,59.9804363 54.9616126,57.1614363 C53.9966126,54.3954363 53.8366126,51.4864363 54.6976126,48.5474363 C54.7176126,48.4814363 54.7426126,48.4174363 54.7626126,48.3514363 C55.0786126,45.5114363 55.7826126,42.7204363 56.9866126,40.1874363 C57.4446126,39.2264363 58.2956126,39.0134363 59.0666126,39.2474363 C59.2676126,38.8704363 59.4646126,38.4924363 59.6556126,38.1134363 C59.8836126,37.6614363 60.3016126,37.3674363 60.7726126,37.2264363 C61.0576126,36.7244363 61.3706126,36.2424363 61.6986126,35.7734363 C61.9256126,35.1774363 62.2106126,34.6054363 62.5946126,34.0844363 C64.1426126,31.9804363 66.5376126,30.5804363 69.1836126,30.5174363 C69.7286126,30.5054363 70.2556126,30.5764363 70.7706126,30.6914363 C71.2396126,30.6544363 71.7486126,30.6064363 71.8966126,30.8204363 C71.9816126,30.9434363 72.0726126,31.0384363 72.1616126,31.1484363 C73.0806126,31.5774363 73.8966126,32.2094363 74.5626126,32.9904363 C75.4376126,33.4224363 76.3776126,33.7934363 77.3596126,34.4284363 C77.6496126,34.7984363 77.9596126,35.1274363 78.2976126,35.3844363 C79.1776126,37.2834363 79.9666126,39.2114363 80.7086126,41.1584363 C80.7586126,41.1814363 80.8146126,41.1994363 80.8596126,41.2264363 C81.3506126,41.5134363 81.5826126,41.9254363 81.7876126,42.4314363 C82.3696126,43.8694363 82.5006126,45.4834363 82.5566126,47.0194363 C82.6086126,48.4644363 80.0956126,47.2744363 80.2006126,48.7174363 C80.2256126,49.0504363 79.7726126,49.9814363 79.6256126,50.2514363 C79.6866126,50.4434363 79.5416126,51.4804363 79.5286126,51.6894363 C79.4266126,53.4814363 78.9036126,51.9734363 78.2826126,53.7034363 C77.6916126,53.6814363 75.6166126,54.5894363 74.9276126,54.8534363 C68.4246126,57.3334363 64.1786126,58.1114363 58.2446126,62.8114363 C58.1426126,62.3374363 55.2996126,61.9154363 55.5616126,61.4684363 M139.058613,65.6104363 C139.046613,65.1654363 138.962613,64.7534363 138.847613,64.3604363 C138.956613,62.5754363 138.905613,60.8064363 138.657613,58.9724363 C138.361613,56.7874363 138.238613,53.6494363 136.461613,52.0974363 C136.430613,52.0704363 136.397613,52.0504363 136.364613,52.0254363 C135.851613,49.8724363 135.232613,47.7484363 134.482613,45.6544363 C134.190613,44.8414363 133.699613,44.2574363 133.112613,43.8684363 C132.412613,41.5314363 131.681613,39.2044363 130.838613,36.9194363 C130.605613,36.2884363 130.245613,35.8084363 129.821613,35.4374363 C128.961613,33.1154363 128.114613,30.7774363 127.785613,28.3104363 C127.472613,25.9564363 127.096613,23.8314363 126.262613,21.5934363 C126.236613,21.5264363 126.198613,21.4734363 126.170613,21.4084363 C126.276613,19.4254363 126.420613,17.4454363 126.648613,15.4704363 C126.672613,15.2574363 126.660613,15.0494363 126.632613,14.8454363 C126.756613,14.1074363 126.635613,13.4584363 126.341613,12.9164363 C126.835613,11.8524363 127.363613,10.8034363 127.964613,9.77343633 C127.991613,9.73443633 128.021613,9.70143633 128.048613,9.66143633 L129.674613,7.28843633 C132.957613,2.49643633 126.263613,-2.03556367 122.255613,0.963436335 C122.089613,1.07043633 121.927613,1.18743633 121.770613,1.31843633 C119.771613,1.23843633 117.749613,2.29443633 116.950613,4.84743633 L116.655613,5.79043633 C116.415613,5.87343633 116.176613,5.98443633 115.941613,6.12643633 C114.915613,2.12843633 109.273613,-0.119563665 107.006613,4.52543633 C106.990613,4.55843633 106.975613,4.59243633 106.958613,4.62543633 C105.078613,4.38343633 103.102613,5.07443633 102.116613,6.98443633 C101.490613,8.20043633 100.899613,9.42743633 100.329613,10.6614363 C99.7376126,10.5724363 99.1266126,10.5774363 98.5236126,10.6854363 C98.9616126,8.25043633 97.8776126,6.42943633 96.2676126,5.48843633 C93.9106126,2.43343633 87.5746126,3.53943633 87.1366126,8.59743633 C87.1136126,8.86343633 87.0836126,9.12643633 87.0606126,9.39243633 C86.9706126,9.22943633 86.8856126,9.06443633 86.7786126,8.91043633 C86.7556126,8.73643633 86.7326126,8.56243633 86.7086126,8.38943633 C86.3646126,5.87543633 82.8356126,4.02743633 80.5576126,4.89743633 C79.5286126,5.28943633 78.5296126,5.71043633 77.5446126,6.15043633 C77.0206126,3.02743633 73.8626126,0.520436335 70.3156126,2.61343633 C69.4566126,3.12043633 68.6266126,3.66543633 67.7896126,4.20343633 C66.5596126,4.14543633 65.2866126,4.54243633 64.2076126,5.57443633 L56.9126126,12.5454363 C56.8706126,12.5334363 56.8276126,12.5254363 56.7856126,12.5134363 C57.2986126,7.55143633 50.3746126,5.64843633 47.4316126,9.74043633 C46.2236126,11.4194363 45.0856126,13.1324363 43.9996126,14.8724363 C43.5536126,12.1424363 40.4916126,10.8044363 37.8876126,11.2724363 C35.4606126,10.4494363 32.4766126,11.2854363 31.5216126,14.5124363 C31.0856126,15.9834363 30.6326126,17.4484363 30.1706126,18.9094363 C30.0416126,19.0794363 29.9166126,19.2574363 29.8046126,19.4544363 C28.1106126,22.4104363 26.3346126,25.3124363 24.4316126,28.1364363 C24.3236126,27.6774363 24.2196126,27.2164363 24.1106126,26.7574363 C22.7536126,21.0084363 14.6776126,22.6954363 14.2896126,28.0854363 C14.2796126,28.2084363 14.2776126,28.3314363 14.2706126,28.4544363 C13.0536126,29.2224363 12.1236126,30.5664363 11.9366126,32.5094363 C11.7116126,34.8454363 12.1176126,37.3164363 13.0656126,39.4104363 C13.7356126,42.3724363 14.6436126,45.2574363 15.7956126,48.1544363 C15.8036126,48.1934363 15.8106126,48.2304363 15.8176126,48.2694363 C15.8246126,48.2664363 15.8316126,48.2634363 15.8376126,48.2604363 C15.9976126,48.6624363 16.1526126,49.0624363 16.3216126,49.4624363 C16.9456126,50.9394363 17.9936126,51.6994363 19.1596126,51.9434363 C19.9406126,56.0024363 20.9206126,60.0264363 22.1186126,64.0084363 C21.6106126,64.1074363 21.1046126,64.2664363 20.6136126,64.5324363 C20.2616126,64.7224363 19.9066126,64.9154363 19.5466126,65.0924363 C19.6126126,65.0514363 19.5276126,65.0724363 19.3796126,65.1194363 C19.2476126,65.0114363 19.1106126,64.9084363 18.9716126,64.8114363 C17.2126126,61.7734363 14.9036126,59.0624363 12.1126126,56.8884363 C10.9326126,55.9704363 9.52561259,55.4344363 8.15261259,55.4914363 C7.80061259,55.4174363 7.42861259,55.3724363 7.02461259,55.3744363 C4.49761259,55.3844363 2.46161259,56.5684363 1.32661259,58.8394363 C0.00961258704,61.4784363 0.946612587,64.0914363 2.25861259,66.4864363 C2.58161259,70.1974363 5.30761259,73.2594363 7.59461259,76.0974363 C10.2676126,79.4124363 13.2646126,82.5434363 16.5686126,85.2364363 C19.5366126,87.6554363 23.6966126,88.6404363 26.4466126,85.2874363 C28.1516126,83.2094363 28.0006126,81.2754363 27.2576126,78.8324363 C27.2476126,78.8014363 27.2386126,78.7714363 27.2296126,78.7404363 C27.2776126,78.7424363 27.3236126,78.7474363 27.3736126,78.7474363 C27.6896126,78.7474363 27.9836126,78.7164363 28.2676126,78.6714363 C28.7276126,83.5554363 30.9356126,88.3614363 33.4536126,92.8474363 C33.9696126,93.7664363 34.6336126,94.3924363 35.3666126,94.7834363 C36.7736126,96.9944363 38.7906126,98.4434363 40.9856126,100.178436 C42.1606126,101.107436 43.3106126,102.161436 44.6226126,102.890436 C45.7356126,103.508436 47.2466126,103.689436 47.9676126,104.245436 C48.6836126,104.798436 49.5466126,105.012436 50.4256126,104.980436 C58.5386126,108.987436 67.6136126,111.488436 75.9746126,114.416436 C78.4526126,115.285436 81.4236126,116.747436 84.2096126,116.921436 C84.8156126,117.235436 85.4266126,117.527436 86.0446126,117.790436 C86.2386126,117.990436 86.4486126,118.175436 86.6876126,118.339436 C88.2066126,119.385436 89.4266126,119.737436 91.2696126,119.550436 C91.4156126,119.535436 91.5546126,119.509436 91.6936126,119.484436 C93.1096126,119.737436 94.5426126,119.868436 95.9826126,119.874436 C96.1046126,119.894436 96.2216126,119.926436 96.3456126,119.939436 C97.5006126,120.058436 98.6526126,120.050436 99.7926126,119.949436 C100.190613,120.076436 100.630613,120.152436 101.103613,120.177436 C101.234613,120.203436 101.367613,120.229436 101.499613,120.255436 C102.830613,120.519436 104.150613,120.454436 105.352613,119.751436 C105.420613,119.711436 105.485613,119.656436 105.553613,119.611436 C111.148613,117.968436 115.012613,113.081436 118.173613,108.084436 C118.534613,107.513436 118.759613,106.947436 118.874613,106.397436 C120.470613,104.538436 121.933613,102.601436 123.276613,100.592436 C124.202613,100.440436 125.135613,99.9374363 125.976613,98.9644363 C126.124613,98.7924363 126.264613,98.6184363 126.408613,98.4454363 C128.472613,97.6464363 129.474613,95.9424363 129.629613,94.1634363 C129.649613,94.1324363 129.670613,94.1004363 129.691613,94.0684363 C130.048613,93.8404363 130.400613,93.5624363 130.744613,93.2114363 L132.488613,91.4314363 C133.383613,90.5194363 133.832613,89.5284363 133.949613,88.5584363 C135.337613,86.2184363 136.444613,83.7614363 137.250613,81.1194363 C137.302613,80.9864363 137.368613,80.8664363 137.410613,80.7244363 C138.632613,76.5764363 139.317613,72.3804363 139.595613,68.0694363 C139.656613,67.1114363 139.440613,66.2964363 139.058613,65.6104363" id="Fill-9" fill="#E4C3A2"></path>
                <path d="M116.006513,113.029136 C115.945513,112.843136 115.842513,112.682136 115.695513,112.547136 C115.409513,112.284136 115.034513,112.090136 114.635513,112.107136 C114.502513,112.125136 114.369513,112.143136 114.236513,112.161136 C113.983513,112.232136 113.762513,112.361136 113.574513,112.547136 L111.899513,113.871136 C111.829513,113.894136 111.760513,113.900136 111.692513,113.932136 L107.883513,115.778136 C107.551513,115.606136 107.185513,115.508136 106.796513,115.539136 C99.7895126,116.091136 92.8285126,115.320136 86.1205126,113.220136 C85.6975126,113.088136 85.3115126,113.073136 84.9615126,113.134136 C76.2885126,109.998136 67.6895126,106.665136 59.1645126,103.147136 C58.9345126,102.487136 58.4325126,101.915136 57.5785126,101.645136 C46.7795126,98.2271363 35.2035126,91.1251363 34.0345126,78.7251363 C33.9075126,77.3821363 32.9765126,76.2251363 31.5345126,76.2251363 C31.1735126,76.2251363 30.8075126,76.3291363 30.4645126,76.4971363 C29.6235126,75.9721363 28.5135126,75.8231363 27.5925126,76.1691363 C27.2455126,76.2991363 26.9595126,76.4661363 26.6825126,76.6651363 C26.6405126,76.6621363 26.5995126,76.6531363 26.5585126,76.6551363 C26.1235126,76.6751363 25.7785126,76.8371363 25.5275126,77.0931363 C25.1875126,77.2381363 24.8635126,77.4001363 24.5745126,77.5821363 C23.9355126,77.9811363 23.3905126,78.4981363 22.9825126,79.1331363 C22.6225126,79.6901363 22.4715126,80.4861363 22.2285126,80.9481363 C22.0955126,81.2001363 22.2275126,80.9801363 22.0505126,81.1531363 C22.1385126,81.0671363 22.0415126,81.1151363 21.9905126,81.1521363 C18.9825126,80.6781363 16.5265126,78.2631363 14.4555126,76.1771363 C11.9875126,73.6901363 9.69351259,70.8991363 8.93151259,67.3971363 C8.87551259,67.1421363 8.77151259,66.9391363 8.63851259,66.7791363 C8.59351259,65.6831363 8.75151259,64.5831363 9.19151259,63.5161363 C9.69051259,62.3051363 10.6285126,61.0951363 11.9025126,60.6501363 C13.0405126,61.1941363 14.0965126,61.9281363 15.0005126,62.8501363 C15.6855126,63.5491363 16.5645126,63.3501363 17.0925126,62.8061363 C18.0145126,62.6751363 18.8865126,61.6581363 18.3325126,60.5501363 C17.2005126,58.2851363 14.6555126,57.2581363 12.2545126,57.5381363 C11.9565126,57.1021363 11.5895126,56.7461363 11.1595126,56.4671363 C10.9175126,56.0151363 10.4865126,55.6651363 9.90751259,55.6491363 C9.16051259,55.6281363 8.43451259,55.7011363 7.71751259,55.8171363 C6.72551259,55.6941363 5.71851259,55.7731363 4.71551259,56.2121363 C4.28951259,56.3971363 3.94151259,56.6421363 3.62551259,56.9101363 C3.32351259,56.7711363 2.98551259,56.7131363 2.65051259,56.7961363 C-0.748487413,57.6431363 -0.108487413,62.2451363 0.433512587,64.7681363 C0.851512587,66.7161363 1.58351259,68.5721363 2.56051259,70.2921363 C3.04151259,71.6221363 3.70751259,72.9111363 4.39551259,74.0751363 C4.65951259,74.5241363 5.13251259,74.7191363 5.61351259,74.7411363 C6.64351259,76.3041363 7.71751259,77.8391363 8.83951259,79.3391363 C9.28751259,79.9371363 10.0825126,80.3071363 10.7935126,79.9251363 C12.7235126,83.2581363 15.2315126,86.4551363 19.3055126,86.9821363 C19.5435126,87.0131363 19.7795126,87.0271363 20.0145126,87.0331363 C20.8035126,87.3641363 21.6585126,87.5341363 22.4675126,87.3931363 C22.4825126,87.4081363 22.4855126,87.4301363 22.5015126,87.4441363 C23.1195126,88.0111363 24.0075126,88.0141363 24.6225126,87.4441363 C25.6895126,86.4581363 26.3875126,85.2521363 26.8795126,83.9501363 C27.6105126,83.0111363 27.9785126,81.8501363 27.7395126,80.5951363 C27.7695126,80.4161363 27.7835126,80.2391363 27.8105126,80.0601363 C27.8265126,80.0141363 27.8405126,79.9671363 27.8585126,79.9221363 C27.9265126,79.7771363 28.0115126,79.6411363 28.0945126,79.5051363 L28.0965126,79.5051363 C28.1515126,79.4951363 28.1555126,79.4931363 28.1515126,79.4911363 C28.1645126,79.4911363 28.1795126,79.4911363 28.2265126,79.4881363 C28.3625126,79.4801363 28.4945126,79.4841363 28.6315126,79.4861363 L28.6695126,79.4861363 C28.6695126,79.4891363 28.6765126,79.4921363 28.6895126,79.4961363 C28.7775126,79.8101363 28.9775126,80.0861363 29.2405126,80.2831363 C30.2395126,86.8691363 33.5475126,92.7201363 38.6185126,97.1211363 C42.7865126,100.737136 47.6865126,103.336136 52.8295126,105.272136 C53.1555126,105.827136 53.7035126,106.261136 54.3555126,106.534136 C64.3635126,110.735136 74.4805126,114.673136 84.6945126,118.344136 C85.1025126,118.492136 85.5275126,118.479136 85.9335126,118.369136 C92.6855126,120.332136 99.7855126,121.091136 106.796513,120.539136 C107.561513,120.479136 108.260513,120.138136 108.721513,119.593136 C108.833513,119.561136 108.944513,119.519136 109.045513,119.456136 L112.044513,117.573136 C112.342513,117.385136 112.578513,117.102136 112.697513,116.769136 C112.866513,116.687136 113.036513,116.605136 113.206513,116.523136 C113.211513,116.520136 113.215513,116.515136 113.221513,116.513136 C113.443513,116.438136 113.642513,116.325136 113.810513,116.158136 L115.695513,114.668136 C115.842513,114.532136 115.945513,114.371136 116.006513,114.185136 C116.100513,114.007136 116.143513,113.814136 116.136454,113.607136 C116.143513,113.401136 116.100513,113.208136 116.006513,113.029136" id="Fill-11" fill="#C3996B"></path>
                <path d="M65.7097126,5.72133181 C64.8187126,5.71143633 64.3057126,6.42043633 64.2097126,7.22143633 C63.6777126,11.6804363 61.3557126,16.0934363 57.6767126,18.7424363 C53.8387126,21.5074363 48.8297126,22.2354363 44.4087126,20.5314363 C44.3417126,20.5054363 44.2787126,20.4934363 44.2147126,20.4784363 C43.9447126,20.2744363 43.6187126,20.1464363 43.2987126,20.1464363 C43.1567126,20.1464363 43.0267126,20.1704363 42.9017126,20.2044363 C42.9077126,20.1174363 42.9097126,20.0314363 42.9137126,19.9444363 C44.1827126,19.5364363 44.5077126,17.4334363 42.9157126,17.0864363 L41.1697126,16.7054363 C40.0877126,15.1844363 38.5927126,12.9964363 36.6717126,14.3204363 C36.2517126,14.6104363 35.9737126,15.0374363 35.7627126,15.5084363 C35.6397126,15.5794363 35.5197126,15.6634363 35.4137126,15.7874363 C34.5317126,16.8304363 34.0327126,18.1154363 34.0387126,19.4344363 C32.9627126,22.5614363 31.7727126,25.6494363 30.4587126,28.6844363 C30.3047126,29.0394363 30.2887126,29.4034363 30.3667126,29.7334363 C27.3457126,30.7414363 24.6467126,32.4394363 22.4747126,34.7634363 C22.3537126,34.6704363 22.2207126,34.5924363 22.0767126,34.5384363 C20.9947126,34.1374363 19.9397126,34.1194363 18.8177126,34.3464363 C18.7007126,34.3704363 18.5967126,34.4104363 18.4997126,34.4604363 C18.3297126,34.4654363 18.1597126,34.4814363 17.9907126,34.4994363 C17.0427126,34.0864363 15.7647126,34.6464363 15.8547126,35.7884363 C15.4247126,36.0964363 15.1937126,36.6184363 15.4587126,37.2824363 L19.7707126,48.0884363 C19.7717126,48.0904363 19.7717126,48.0914363 19.7727126,48.0924363 C19.8277126,48.3054363 19.8837126,48.5174363 19.9377126,48.7294363 C20.3607126,51.1784363 20.7837126,53.6264363 21.2077126,56.0754363 C21.3287126,56.7794363 21.9997126,57.1414363 22.6637126,57.1414363 C22.5197126,57.4174363 22.3747126,57.6954363 22.2287126,57.9704363 C21.3257126,59.6754363 23.9137126,61.1934363 24.8187126,59.4844363 C26.7077126,55.9164363 28.4347126,52.3554363 28.8787126,48.2924363 C29.2477126,44.9284363 28.7997126,41.5414363 28.2207126,38.2114363 C29.6657126,38.2594363 31.1177126,38.0614363 32.4937126,37.5904363 C34.8577126,36.7824363 36.7237126,35.2674363 38.4477126,33.4984363 C41.1677126,30.7104363 43.5257126,27.4874363 44.4397126,23.7104363 C49.4687126,25.3184363 55.2307126,24.2694363 59.4637126,21.1334363 C63.9437126,17.8154363 66.5557126,12.6984363 67.2097126,7.22143633 C67.3067126,6.40943633 66.4507126,5.72943633 65.7097126,5.72133181" id="Fill-13" fill="#C3996B"></path>
                <path d="M56.9626126,105.547636 C56.7376126,105.198636 56.4486126,105.009636 56.0666126,104.858636 C54.7266126,104.325636 53.3876126,103.794636 52.0476126,103.262636 C51.8036126,103.165636 51.4686126,103.197636 51.1876126,103.287636 C51.1656126,103.258636 51.1486126,103.227636 51.1256126,103.198636 C49.7836126,101.502636 47.7936126,100.662636 45.9126126,99.7186363 C44.0206126,98.7686363 42.2156126,97.6216363 40.5866126,96.2666363 C39.7006126,95.5296363 38.8696126,94.7416363 38.0846126,93.9126363 C38.2206126,93.4116363 38.0666126,92.8656363 37.7136126,92.4326363 C34.6786126,88.7026363 31.5466126,84.7566363 30.7076126,79.8916363 C30.5706126,79.0926363 29.5886126,78.6446363 28.8626126,78.8436363 C28.0186126,79.0756363 27.6776126,79.8876363 27.8156126,80.6896363 C28.2056126,82.9546363 29.0586126,85.0436363 30.1616126,87.0116363 C30.1356126,87.2726363 30.1716126,87.5506363 30.3066126,87.8356363 C32.1746126,91.7956363 34.9046126,95.3696363 38.2446126,98.2026363 C39.9106126,99.6156363 41.7106126,100.875636 43.6346126,101.911636 C45.5026126,102.918636 47.6466126,103.603636 49.0046126,105.319636 C49.3536126,105.761636 49.9836126,105.837636 50.5136126,105.671636 C50.7116126,105.892636 50.9516126,106.036636 51.2496126,106.154636 C52.5896126,106.687636 53.9296126,107.218636 55.2686126,107.750636 C55.6076126,107.885636 56.1236126,107.776636 56.4246126,107.599636 C56.7356126,107.417636 57.0316126,107.060636 57.1136126,106.702636 C57.2006126,106.318636 57.1826126,105.888636 56.9626126,105.547636" id="Fill-15" fill="#C3996B"></path>
                <path d="M18.5290126,62.8630363 C17.0630126,60.8890363 14.8280126,59.0930363 12.2160126,59.2880363 C9.72301259,59.4740363 7.39801259,61.4060363 7.39301259,64.0240363 C7.39301259,64.1300363 7.40601259,64.2320363 7.42701259,64.3330363 C5.91101259,66.6290363 5.73501259,69.7170363 6.98701259,72.1840363 C7.35301259,72.9070363 8.37001259,73.1140363 9.03901259,72.7220363 C9.77301259,72.2930363 9.94501259,71.3950363 9.57701259,70.6700363 C9.56401259,70.6450363 9.47701259,70.4570363 9.45901259,70.4240363 C9.41401259,70.3080363 9.37301259,70.1910363 9.33601259,70.0730363 C9.29301259,69.9320363 9.25501259,69.7900363 9.22201259,69.6450363 C9.20101259,69.5500363 9.18101259,69.4540363 9.16401259,69.3560363 C9.15601259,69.3070363 9.15401259,69.2940363 9.15001259,69.2680363 C9.16001259,69.3390363 9.13301259,68.9990363 9.13101259,68.9490363 C9.12501259,68.8000363 9.12401259,68.6530363 9.12801259,68.5060363 C9.13201259,68.3570363 9.14101259,68.2100363 9.15401259,68.0620363 C9.15701259,68.0340363 9.15701259,68.0360363 9.15801259,68.0240363 C9.16601259,67.9740363 9.17401259,67.9250363 9.18301259,67.8750363 C9.24301259,67.5590363 9.32401259,67.2480363 9.42901259,66.9450363 C9.44101259,66.9110363 9.51701259,66.7230363 9.53101259,66.6850363 C9.58201259,66.5740363 9.63501259,66.4650363 9.69301259,66.3570363 C9.82501259,66.1140363 9.97401259,65.8750363 10.1430126,65.6540363 C10.1810126,65.6140363 10.2980126,65.4790363 10.3120126,65.4630363 C10.4130126,65.3540363 10.5170126,65.2500363 10.6270126,65.1500363 C10.6270126,65.1490363 10.8200126,64.9880363 10.8420126,64.9640363 C10.9500126,64.8850363 11.0610126,64.8100363 11.1740126,64.7410363 C11.3040126,64.6610363 11.4370126,64.5860363 11.5740126,64.5150363 C11.5750126,64.5150363 11.7760126,64.4250363 11.8250126,64.4000363 C12.0940126,64.2970363 12.3710126,64.2110363 12.6520126,64.1460363 C12.7760126,64.1170363 12.9030126,64.0930363 13.0290126,64.0730363 C13.0770126,64.0710363 13.2800126,64.0490363 13.3160126,64.0470363 C13.6260126,64.0280363 13.9290126,64.0430363 14.2380126,64.0550363 C14.3000126,64.0580363 14.3310126,64.0580363 14.3500126,64.0570363 C14.3650126,64.0620363 14.3910126,64.0690363 14.4480126,64.0810363 C14.5980126,64.1100363 14.7480126,64.1390363 14.8970126,64.1770363 C15.5680126,64.3480363 15.8440126,64.4770363 16.4760126,64.9150363 C17.0170126,65.2900363 17.8500126,65.1250363 18.2950126,64.6800363 C18.7290126,64.2460363 18.9200126,63.3890363 18.5290126,62.8630363" id="Fill-17" fill="#C3996B"></path>
                <path d="M84.8024126,42.3220363 C84.4054126,40.6210363 84.0374126,38.8820363 83.4184126,37.2460363 C82.8364126,35.7100363 81.8144126,34.3590363 81.2744126,32.8240363 C80.8264126,31.5510363 79.5654126,30.7030363 78.1984126,31.0780363 C76.9644126,31.4180363 76.0034126,32.8740363 76.4524126,34.1540363 C77.0044126,35.7220363 77.9824126,37.0470363 78.5974126,38.5750363 C79.1994126,40.0730363 79.5224126,41.7090363 79.8934126,43.2750363 C80.6694126,46.5550363 81.3374126,49.8720363 81.7564126,53.2180363 C81.9244126,54.5570363 82.7854126,55.7180363 84.2564126,55.7180363 C85.4774126,55.7180363 86.9264126,54.5660363 86.7564126,53.2180363 C86.2964126,49.5510363 85.6444126,45.9210363 84.8024126,42.3220363" id="Fill-19" fill="#E4C3A2"></path>
                <path d="M129.838613,43.4607363 C129.701613,42.2477363 129.566613,41.0347363 129.430613,39.8217363 C129.406613,39.6127363 129.278613,39.4797363 129.123613,39.4077363 C129.122613,39.2917363 129.106613,39.1777363 129.110613,39.0607363 C129.140613,38.4167363 128.140613,38.4177363 128.110613,39.0607363 C128.044613,40.5387363 128.483613,41.9567363 128.799613,43.3847363 C128.824613,43.4957363 128.843613,43.6087363 128.866613,43.7207363 C129.026613,45.1367363 129.185613,46.5527363 129.343613,47.9687363 C129.413613,48.5917363 130.339613,48.6277363 130.343613,47.9687363 C130.351613,46.4507363 130.150613,44.9427363 129.838613,43.4607363" id="Fill-21" fill="#E4C3A2"></path>
            </g>
            <g id="outline" transform="translate(0.000000, 0.916000)">
                <g id="Group-28" transform="translate(0.000000, -0.000000)">
                    <mask id="mask-2" fill="white">
                        <use xlink:href="#path-1"></use>
                    </mask>
                    <g id="Clip-27"></g>
                    <path d="M171.0484,137.3859 C170.9034,137.5149 170.7914,137.6879 170.7624,137.9199 C169.5324,147.5449 162.4284,154.9569 155.6854,161.4389 C155.3624,161.3509 154.9874,161.4199 154.7374,161.7529 C150.6494,167.2129 148.0454,174.3569 142.1714,178.2569 C135.6434,182.5909 127.3674,181.2159 120.2964,179.1599 C116.3594,178.0159 112.5024,176.5929 108.6294,175.2519 C104.2834,173.7479 99.9394,172.2429 95.5934,170.7399 C87.9344,168.0879 80.0714,165.5149 73.3784,160.8089 C67.2354,156.4899 62.1394,149.8729 61.3944,142.2619 C61.3824,142.1729 61.3774,142.0839 61.3614,141.9949 C61.3174,141.4609 61.2914,140.9229 61.2904,140.3799 C61.2894,139.5659 60.3224,139.3819 59.8724,139.8209 C59.3974,139.9429 58.9964,140.4619 59.3064,141.0249 C59.5344,141.4389 59.6714,141.8779 59.7484,142.3229 C59.7654,142.5039 59.7814,142.6849 59.8034,142.8639 C59.8694,144.2729 59.2884,145.7079 58.2984,146.7449 C57.4494,147.6329 56.3584,148.1419 55.1934,148.3689 C54.8834,148.1629 54.5224,148.0429 54.1364,148.0699 C50.5764,148.3219 47.9104,145.0959 45.7254,142.7269 C42.8614,139.6229 40.1364,136.3869 37.5834,133.0219 C37.3714,132.7409 37.1114,132.5119 36.8264,132.3409 C36.7144,132.1489 36.5934,131.9609 36.4834,131.7669 C36.4774,131.7539 36.4714,131.7409 36.4654,131.7299 C36.4574,131.7139 36.4454,131.7029 36.4384,131.6889 C35.0864,129.2899 33.9884,126.7679 33.5094,124.0379 C33.2804,122.7339 33.2604,121.3619 33.5144,120.0479 C33.6394,119.9319 33.7594,119.7999 33.8644,119.6369 C34.9284,117.9939 36.6934,116.9089 38.5944,116.5359 C39.3824,116.6849 40.1804,116.6429 40.9354,116.4469 C41.3294,116.4939 41.7204,116.5739 42.1034,116.6899 C43.9484,117.2489 45.7144,118.6349 47.1944,119.8439 C48.7974,121.1549 50.1484,122.6169 51.0014,124.5219 C51.3434,125.2829 52.2754,125.5909 53.0784,125.4599 C53.3594,125.5239 53.6354,125.5319 53.8974,125.4909 C54.0604,125.4899 54.2134,125.4489 54.3444,125.3649 C54.8964,125.1449 55.3394,124.6929 55.5374,124.0629 C55.8914,122.9389 56.0104,121.8259 55.9534,120.7339 C56.0114,120.5409 56.0694,120.3499 56.1274,120.1569 C56.2284,119.8239 56.0624,119.4419 55.7714,119.2519 C55.5674,118.1719 55.2134,117.1139 54.7684,116.0819 C53.4954,109.0589 50.8124,102.3309 46.8594,96.3719 L48.4814,96.9899 C49.7574,97.4769 51.0674,98.1199 52.4234,98.3399 C53.5474,98.5229 54.5974,98.2619 55.4134,97.6389 C56.1264,97.9639 56.9754,97.9949 57.6544,97.5309 C59.3024,96.4039 60.7304,95.0759 61.9414,93.5309 C62.3574,93.0809 62.7224,92.5839 63.0084,92.0319 C63.1164,91.8239 63.1874,91.6189 63.2394,91.4179 C64.3074,89.7129 65.1594,87.8719 65.7714,85.9539 C68.4624,83.5629 69.2834,79.6619 69.2134,76.0009 C71.9844,79.3199 76.0614,81.4739 80.3884,81.9489 C85.9854,82.5659 91.3794,79.9259 94.7524,75.4969 C95.7054,74.2459 96.4514,72.8709 97.0064,71.4229 C97.2964,70.9069 97.5734,70.3849 97.8364,69.8559 C100.0564,73.5319 103.5774,76.4919 107.8264,77.3909 C112.8884,78.4609 118.0034,76.0769 120.5134,71.5449 C121.0584,70.5619 121.4304,69.5039 121.6354,68.4209 C121.9754,70.3099 122.5734,71.9479 124.0664,73.4409 C124.7104,74.0849 125.5284,74.6559 126.4204,75.1059 C127.9134,76.4769 129.7774,77.3779 132.1524,77.4499 C135.0274,77.5379 137.4764,75.7819 138.8614,73.3479 C139.9164,71.4949 140.3034,69.4359 140.4234,67.3429 C142.5004,70.4139 146.1234,72.4679 149.8864,72.2169 C153.7974,71.9559 157.1804,69.4299 158.8374,66.0089 C159.6524,66.4509 160.5354,66.7559 161.4604,66.9009 C161.5424,66.9399 161.6194,66.9879 161.7034,67.0239 C157.4134,72.4069 157.7184,80.3679 159.0824,86.7709 C160.6864,94.2959 164.1274,101.2539 166.9404,108.3659 C168.5624,112.4669 169.9904,116.6519 170.7914,120.9959 C170.8084,121.0859 170.8474,121.1519 170.8824,121.2199 C171.4694,126.5889 171.5234,132.0049 171.0484,137.3859 M117.8824,188.8349 C117.1194,189.6029 115.9014,189.9819 114.8754,190.2389 C113.7784,190.5129 112.5174,190.6419 111.4574,190.1569 C110.3374,189.6439 109.8644,188.4459 109.1064,187.5539 C108.7644,187.1539 108.3694,186.8629 107.9384,186.5719 C107.2824,186.1279 107.3524,185.6849 107.3304,184.9359 C107.2494,182.1359 107.1684,179.3349 107.0874,176.5349 C110.5704,177.7419 114.0604,178.9279 117.5674,180.0449 C117.5604,180.1429 117.5664,180.2449 117.6024,180.3579 C118.0744,181.8179 118.4024,183.3169 118.5224,184.8479 C118.6194,186.1059 118.8594,187.8539 117.8824,188.8349 M106.4554,3.6919 C105.7524,4.2209 104.9314,4.6619 104.0514,4.9889 C104.8064,4.4849 105.6124,4.0489 106.4554,3.6919 M136.7944,73.4409 C136.8194,73.4129 136.8434,73.3809 136.8684,73.3539 C135.8134,74.7409 134.3264,75.6979 132.5434,75.7819 C134.1464,75.4079 135.6634,74.6719 136.7944,73.4409 M143.5784,68.4159 C142.5954,67.5849 141.7744,66.5579 141.1934,65.4049 C141.9154,66.4679 142.7144,67.4769 143.5784,68.4159 M171.5004,116.7339 C167.9884,103.8099 159.5954,92.0199 159.8554,78.3009 C159.9284,74.4409 160.8554,70.4299 163.4794,67.5049 C163.9124,67.5579 164.3514,67.5719 164.7854,67.5309 C168.1544,67.2119 170.7354,64.4909 171.9514,61.4929 C173.4154,57.8859 173.4804,53.5769 173.3084,49.7399 C173.1834,46.9779 172.7314,44.1559 171.6814,41.5809 C171.2984,40.2199 170.5814,39.0019 169.6524,37.9809 C168.0094,35.8019 165.7904,34.0499 163.2034,33.2119 C163.1914,33.1789 163.1754,33.1469 163.1634,33.1139 C163.6024,30.9639 163.9004,28.6319 162.8144,26.6339 C162.4214,25.9109 161.8804,25.3109 161.2424,24.8699 C160.7514,22.8709 159.9434,21.0879 158.5404,19.6219 C158.1394,18.7569 157.5724,17.9689 156.8194,17.3269 C155.5444,16.2409 153.8754,15.7079 152.2404,15.7999 C151.7434,14.6939 151.0344,13.6469 150.0824,12.6939 C146.8424,9.4529 140.6904,8.1849 136.7524,10.9739 C136.4594,11.1819 136.1644,11.3959 135.8674,11.6099 C135.1264,8.8609 133.1884,6.5939 130.7024,5.1849 C130.5084,5.0309 130.3214,4.8689 130.1134,4.7279 C128.0404,3.3169 125.3344,2.7479 122.9074,3.3419 C122.3384,2.7839 121.7064,2.2929 121.0284,1.8699 C120.5284,1.2759 119.8554,0.8029 119.0984,0.5489 C118.2874,0.2779 117.4344,0.2119 116.5784,0.2259 C114.6384,-0.0761 112.6144,0.0949 110.7384,0.8179 C110.5514,0.8489 110.3614,0.8679 110.1754,0.9029 C106.6944,1.5449 103.1604,3.0479 100.7714,5.6169 C99.3164,5.6349 97.9234,5.2839 96.8584,4.4499 C93.6814,1.9629 90.3704,0.9649 87.0854,1.5909 C83.6394,1.9059 81.1684,4.2479 78.7224,6.5529 C77.8334,7.2779 76.9444,8.0019 76.0554,8.7269 C73.5074,7.2979 70.9734,5.8089 68.3444,4.5479 C65.8214,3.3379 62.9884,2.4959 60.2254,3.3969 C54.9224,5.1239 52.9684,10.6539 51.7074,15.5959 C47.7114,13.1979 42.7214,12.5509 38.2414,13.8839 C36.7454,14.3279 35.3524,15.0189 34.0694,15.8689 C31.8064,16.8919 29.7674,18.4469 28.1494,20.6259 C25.7324,23.8799 24.7344,27.7929 25.1944,31.5389 C24.4954,31.8209 23.6744,31.9739 23.1374,32.1849 C22.0384,32.6149 20.9804,33.1419 19.9864,33.7819 C17.4974,35.3829 15.3884,37.6019 13.9204,40.1779 C12.6104,41.7549 11.5764,43.5879 10.9544,45.7559 C9.4904,50.8549 10.7254,55.7419 13.5084,59.8039 C10.0694,60.6649 6.8514,62.3929 4.4484,65.0269 C2.6184,67.0319 1.4074,69.4799 0.9064,72.0739 C-0.5766,76.0229 -0.0616,80.6739 3.2624,83.7259 C3.4384,83.8879 3.6224,84.0319 3.8054,84.1809 C0.4354,86.0269 -0.4946,90.9599 0.2314,94.5029 C0.9474,98.0079 3.1174,101.1139 6.0924,103.0259 C5.6354,103.5479 5.2254,104.1269 4.8664,104.7669 C4.8514,104.7889 4.8324,104.8089 4.8174,104.8319 C4.4974,105.3059 4.2814,105.8209 4.1374,106.3549 C2.4114,111.0709 3.8604,117.3849 8.7484,119.7739 C9.8904,120.3309 10.0044,120.1529 10.4614,120.8639 C11.5084,122.4949 12.7794,123.6699 14.1594,124.4929 C13.1804,125.6229 12.6874,127.2039 13.0824,128.9819 C13.0934,129.0309 13.1074,129.0779 13.1174,129.1259 C13.0824,129.4279 13.0444,129.7299 13.0314,130.0319 C12.8634,133.8679 14.5134,137.4439 16.4184,140.6709 C18.4944,144.1889 20.5874,147.8239 23.0114,151.1149 C25.1954,154.0779 28.1284,156.7399 31.9204,157.2339 C34.9434,157.6259 38.1964,156.1819 39.5594,153.4699 C40.2084,154.0279 40.9264,154.5109 41.6874,154.9089 C42.6954,156.3309 44.2084,157.5359 45.4234,158.4799 C47.6724,160.2269 50.2614,161.6009 53.0584,162.2099 C58.1564,163.3219 63.8294,161.6729 66.8694,157.2849 C67.6614,158.1469 68.4904,158.9719 69.3634,159.7389 C75.6904,165.2929 83.7284,168.3429 91.5654,171.0819 C96.1834,172.6969 100.7984,174.3469 105.4244,175.9619 C105.5034,178.7089 105.5824,181.4569 105.6624,184.2039 C105.6954,185.3649 105.5314,186.7179 106.4984,187.5569 C106.8854,187.8929 107.3584,188.1029 107.7174,188.4719 C108.1144,188.8789 108.4004,189.3749 108.7294,189.8349 C110.1134,191.7649 112.1294,192.3599 114.4294,192.0049 C116.4154,191.6989 118.9964,190.8189 119.8474,188.8209 C120.4004,187.5229 120.2714,185.9369 120.1454,184.5659 C120.0214,183.2239 119.7644,181.9039 119.3934,180.6109 C126.1774,182.6399 133.7524,184.0209 140.4234,181.0849 C147.7284,177.8699 150.8514,170.2849 155.1184,164.0469 C155.2694,164.0249 155.4204,163.9719 155.5584,163.8389 C162.2944,157.4089 169.4274,150.2619 171.7904,141.0539 C172.0844,140.9509 172.3384,140.7109 172.3854,140.3279 C173.3344,132.6649 173.1944,124.9329 172.0224,117.3019 C171.9694,116.9539 171.7524,116.7839 171.5004,116.7339" id="Fill-26" fill="#231F20" mask="url(#mask-2)"></path>
                </g>
                <path d="M86.5269,121.9621 C86.1809,120.3211 87.8619,120.4931 89.3849,119.3011 C91.3829,117.7351 94.2689,117.0651 96.5049,115.8511 C99.5229,114.2111 102.6759,112.9091 105.8779,111.9501 C107.7239,111.2981 109.5869,110.7451 111.4609,110.2731 C111.8159,109.9761 112.3239,109.8241 112.7119,110.1031 C113.9769,111.0131 113.8489,112.7841 112.8779,114.2741 C111.6399,116.1681 109.3009,117.1001 107.2839,118.0491 C106.2629,118.5291 105.1359,119.1001 104.3509,119.9191 C103.5219,120.7831 103.4509,121.7741 102.8899,122.7161 C101.7789,124.5821 99.4409,125.3301 97.4969,125.2181 C96.4729,125.1581 95.5719,124.8511 94.6039,124.6701 C93.3259,124.4321 92.5589,124.9101 91.3149,125.4901 C89.5909,126.2961 86.8579,123.5321 86.5269,121.9621" id="Fill-29" fill="#808184"></path>
                <path d="M163.3199,110.3273 C162.8439,108.7403 161.7239,107.2073 160.5069,106.0993 C159.1969,104.9093 157.6569,104.4303 155.8969,104.6323 C154.5079,104.7923 153.1169,105.1083 151.7389,105.4433 C150.4649,105.2063 149.0819,105.3933 147.8429,105.8063 C145.5579,106.5683 143.3919,107.7163 141.4419,109.1243 C141.0059,109.4403 140.7929,109.9943 141.0839,110.4923 C141.0989,110.5193 141.1299,110.5383 141.1479,110.5633 C141.1789,110.6643 141.2219,110.7643 141.2829,110.8543 C141.3509,110.9893 141.4419,111.1163 141.5819,111.2233 C142.8349,112.1863 144.4239,111.8183 145.7859,111.3253 C146.5949,111.0323 147.4269,110.6863 148.2569,111.0873 C148.9049,111.4003 149.4239,111.9413 150.0339,112.3163 C151.3559,113.1303 152.6779,113.0043 153.9709,112.2073 C154.4999,111.8823 155.0769,111.3533 155.7379,111.3983 C156.6849,111.4613 157.4749,112.4723 158.1579,113.0263 C159.2459,113.9093 160.7259,114.5563 162.0969,113.8823 C163.4539,113.2153 163.7229,111.6723 163.3199,110.3273" id="Fill-31" fill="#808184"></path>
                <path d="M87.7515,120.4523 C87.0065,118.3623 86.4295,116.2193 86.3295,114.0073 C86.1685,110.4403 87.4805,107.1773 89.2205,104.1323 C90.8825,101.2213 92.6875,98.2073 94.8735,95.6583 C95.3465,95.1063 95.8575,94.5813 96.3975,94.0883 C96.0975,95.3533 96.1055,96.7393 96.2335,97.9543 C96.5715,101.1693 97.8975,104.2023 99.8115,106.7903 C101.0675,108.4913 102.5505,110.0683 104.1755,111.4583 C98.2905,113.6083 92.7595,116.6413 87.7515,120.4523 M114.0835,109.5573 C113.4385,105.7053 112.2315,101.9693 110.4825,98.4643 C110.0645,97.1953 109.5005,95.9793 108.7805,94.8533 C108.6965,94.7223 108.5915,94.6363 108.4805,94.5733 C108.2485,94.0793 108.0045,93.5913 107.7255,93.1203 C106.8615,91.6683 105.5795,90.3313 104.0345,89.7163 C103.9075,89.5113 103.6965,89.3583 103.3795,89.3622233 C103.1805,89.3643 102.9885,89.3863 102.7945,89.3983 C102.2425,89.3313 101.6685,89.3543 101.0735,89.5013 C100.8905,89.5483 100.7675,89.6433 100.6725,89.7573 C96.2115,90.9933 93.0385,95.0013 90.5635,98.8373 C87.2865,103.9143 84.0155,109.1823 84.8145,115.4793 C85.0855,117.6153 85.7045,119.6653 86.4535,121.6713 C86.2955,122.4253 87.3865,123.2303 88.1975,122.5893 C95.3765,116.9093 103.8015,112.9753 112.7395,111.0323 C113.4025,110.8883 113.5585,110.2863 113.3825,109.7873 C113.6155,109.7133 113.8495,109.6293 114.0835,109.5573" id="Fill-33" fill="#231F20"></path>
                <path d="M139.358,129.5402 C137.316,126.8232 135.223,124.1442 133.17,121.4362 C131.183,118.8182 128.785,115.2682 130.653,111.9462 C131.172,111.0212 129.751,110.1902 129.231,111.1152 C127.573,114.0632 128.515,117.4432 130.228,120.1342 C132.312,123.4062 134.911,126.4082 137.264,129.4892 C138.607,131.2492 143.274,137.4882 138.679,138.2522 C136.733,138.5752 134.704,137.7562 132.921,137.0752 C131.062,136.3652 129.262,135.5212 127.511,134.5782 C126.579,134.0752 125.746,135.4972 126.68,136.0002 C129.459,137.4962 132.485,138.9482 135.573,139.6682 C137.992,140.2312 141.472,140.0962 142.129,137.1092 C142.737,134.3472 140.929,131.6332 139.358,129.5402" id="Fill-35" fill="#231F20"></path>
                <path d="M155.9332,103.7394 C157.1692,103.4104 158.2882,102.7924 159.1092,101.8334 C159.3272,102.8134 159.4932,103.8064 159.6422,104.8014 C158.4422,104.3084 157.1982,103.9544 155.9332,103.7394 M143.3242,94.4044 C144.0792,98.0204 146.0042,101.4634 149.4472,103.1074 C149.8652,103.3064 150.3102,103.4734 150.7722,103.6104 C147.6162,103.9694 144.5502,105.1224 141.9562,106.9794 C141.6252,102.7454 141.8352,98.3294 143.3242,94.4044 M161.5332,106.4204 C161.2972,104.4984 160.9832,102.5844 160.5372,100.7194 C160.4442,100.3334 160.3392,99.9474 160.2302,99.5614 C160.2262,99.4174 160.1932,99.2854 160.1192,99.1784 C159.1872,96.0604 157.6762,93.0694 155.1812,90.9244 C154.1042,89.9974 152.8942,89.2534 151.6072,88.7354 C151.4782,88.6344 151.3512,88.5284 151.2182,88.4304 C150.1932,87.6804 148.9512,86.9094 147.6252,87.0564 C147.2242,87.1014 146.8652,87.2354 146.5442,87.4254 C146.2712,87.2764 145.9302,87.2784 145.6482,87.5774 C140.6442,92.8854 139.7042,100.4244 140.3372,107.4074 C140.3622,107.6784 140.3932,107.9524 140.4202,108.2254 C140.2862,108.3464 140.1442,108.4624 140.0122,108.5884 C139.0812,109.4814 140.4972,110.8934 141.4272,110.0034 C146.1072,105.5104 153.2702,104.2714 159.2272,106.7744 C159.8202,107.0234 160.2452,106.6654 160.3762,106.1824 C160.7992,106.2094 161.1882,106.2874 161.5332,106.4204" id="Fill-37" fill="#231F20"></path>
                <path d="M97.3482,81.1037 C93.0812,87.7227 87.8862,93.6877 81.9352,98.8427 C80.9602,99.6877 82.3802,101.0967 83.3492,100.2577 C89.4252,94.9937 94.7192,88.8707 99.0752,82.1137 C99.7752,81.0287 98.0432,80.0247 97.3482,81.1037" id="Fill-39" fill="#231F20"></path>
                <path d="M152.7545,83.2453 C147.6945,83.0003 142.7855,81.4593 138.4755,78.8023 C137.3765,78.1253 136.3705,79.8543 137.4655,80.5293 C142.0765,83.3713 147.3475,84.9833 152.7545,85.2453 C154.0405,85.3083 154.0375,83.3073 152.7545,83.2453" id="Fill-41" fill="#231F20"></path>
                <path d="M143.2564,156.8058 C140.5364,153.7298 136.1734,152.3048 132.1664,153.2438 C128.3254,154.1448 125.2074,157.1808 124.0014,160.8998 C123.6044,162.1258 125.5344,162.6528 125.9314,161.4308 C126.9284,158.3548 129.5424,155.9158 132.6974,155.1728 C136.0374,154.3858 139.5994,155.6828 141.8414,158.2198 C142.6954,159.1868 144.1064,157.7678 143.2564,156.8058" id="Fill-43" fill="#231F20"></path>
            </g>
        </g>
    </g>
</svg>