<?xml version="1.0" encoding="UTF-8"?>
<svg width="500px" height="600px" viewBox="0 0 500 600" version="1.1" xmlns="http://www.w3.org/2000/svg" xmlns:xlink="http://www.w3.org/1999/xlink">
    <title>cunninglookingup</title>
    <defs>
        <polygon id="path-1" points="0.000162517026 0.084 173.375544 0.084 173.375544 192.102015 0.000162517026 192.102015"></polygon>
    </defs>
    <g id="cunninglookingup" stroke="none" stroke-width="1" fill="none" fill-rule="evenodd">
        <g id="face" transform="translate(154.000000, 64.000000)">
            <g id="fill" transform="translate(32.340487, 61.628364)">
                <path d="M82.4167126,50.7126363 C82.4167126,64.8736363 75.8927126,76.3536363 67.8447126,76.3536363 C59.7957126,76.3536363 53.2707126,64.8736363 53.2707126,50.7126363 C53.2707126,36.5526363 59.7957126,25.0726363 67.8447126,25.0726363 C75.8927126,25.0726363 82.4167126,36.5526363 82.4167126,50.7126363" id="Fill-1" fill="#FEFEFE"></path>
                <path d="M131.123713,46.5573363 C131.123713,58.1113363 125.372713,67.4773363 118.278713,67.4773363 C111.184713,67.4773363 105.433713,58.1113363 105.433713,46.5573363 C105.433713,35.0033363 111.184713,25.6373363 118.278713,25.6373363 C125.372713,25.6373363 131.123713,35.0033363 131.123713,46.5573363" id="Fill-3" fill="#FEFEFE"></path>
                <path d="M86.7546126,122.408836 C86.5676126,121.729836 86.2356126,121.128836 85.8176126,120.590836 C85.7656126,120.444836 85.7136126,120.298836 85.6496126,120.151836 C85.4626126,119.726836 85.0926126,119.508836 84.6846126,119.445836 C84.3886126,119.207836 84.0756126,118.987836 83.7516126,118.788836 C82.2736126,117.880836 80.5906126,117.254836 78.9876126,116.603836 C78.3726126,116.353836 77.7056126,116.013836 77.0266126,115.919836 C76.6226126,115.464836 75.8616126,115.338836 75.3326126,115.570836 C74.6546126,115.868836 74.2646126,116.603836 74.4646126,117.340836 C74.5206126,117.545836 74.5566126,117.750836 74.6016126,117.954836 C74.5836126,118.057836 74.5666126,118.161836 74.5546126,118.264836 C74.3166126,120.363836 74.4576126,122.484836 74.8096126,124.560836 C74.8686126,124.918836 75.1036126,125.199836 75.4036126,125.389836 L75.4096126,125.428836 C75.4046126,125.429836 75.4006126,125.429836 75.3956126,125.429836 C75.7946126,127.146836 77.1446126,128.572836 78.8346126,129.071836 C79.7196126,129.332836 80.6626126,129.310836 81.5406126,129.055836 C82.1106126,129.574836 83.1146126,129.676836 83.6776126,129.075836 C84.2166126,128.501836 84.6386126,127.838836 84.9606126,127.132836 C85.2226126,127.081836 85.4786126,126.977836 85.6946126,126.772836 C86.8736126,125.661836 87.1746126,123.932836 86.7546126,122.408836" id="Fill-5" fill="#E4C3A2"></path>
                <path d="M78.0339126,126.405936 C78.4439126,126.136936 78.7459126,125.704936 78.6839126,125.194936 C78.4729126,123.445936 78.2619126,121.695936 78.0509126,119.946936 C78.0099126,119.607936 77.9709126,119.272936 77.9189126,118.942936 C78.0039126,118.852936 78.0839126,118.753936 78.1529126,118.635936 C78.5179126,118.018936 78.4029126,117.209936 77.9919126,116.654936 C77.4979126,115.985936 76.5749126,115.772936 75.8379126,116.182936 C75.8289126,116.187936 75.8229126,116.196936 75.8129126,116.201936 C75.6709126,116.166936 75.5329126,116.124936 75.3799126,116.105936 C74.7949126,116.033936 74.0249126,116.619936 73.9329126,117.207936 C73.3509126,120.935936 73.8759126,124.650936 75.5049126,128.059936 C75.8529126,128.791936 76.8989126,128.982936 77.5559126,128.597936 C78.3049126,128.161936 78.4449126,127.279936 78.0949126,126.546936 C78.0729126,126.500936 78.0549126,126.451936 78.0339126,126.405936" id="Fill-7" fill="#C3996B"></path>
                <path d="M128.052413,51.6364363 C127.588413,52.8834363 126.747413,53.7564363 125.656413,54.4934363 C125.412413,54.6584363 125.157413,54.8064363 124.896413,54.9394363 C124.898413,55.2154363 124.898413,55.4904363 124.901413,55.7674363 C123.941413,55.8924363 122.976413,56.3464363 122.114413,57.2734363 C121.786413,57.6234363 120.029413,60.3144363 119.407413,61.0134363 C119.406413,60.4254363 117.267413,58.4464363 117.218413,58.3884363 C117.136413,58.2884363 117.070413,58.1824363 116.989413,58.0814363 C116.979413,58.0854363 116.969413,58.0914363 116.958413,58.0954363 C116.181413,58.2994363 115.646413,58.5194363 115.023413,58.8314363 C115.279413,59.3234363 115.556413,59.8044363 115.886413,60.2484363 C116.073413,60.4744363 116.277413,60.6854363 116.497413,60.8774363 C116.662413,60.9944363 116.829413,61.1094363 117.016413,61.1904363 L116.915413,61.1484363 C117.601413,61.4144363 117.984413,62.0624363 117.815413,62.8024363 C117.739413,63.1284363 117.469413,63.4544363 117.185413,63.6214363 C116.896413,63.7904363 116.452413,63.8704363 116.128413,63.7594363 C115.019413,63.3764363 114.227413,62.5874363 113.534413,61.6694363 C113.025413,60.9934363 112.617413,60.2394363 112.282413,59.4624363 C112.255413,59.4134363 112.241413,59.3614363 112.219413,59.3104363 C111.892413,59.1464363 111.607413,58.8964363 111.416413,58.5524363 C110.717413,57.2824363 110.648413,55.9124363 110.646413,54.5094363 C109.411413,51.0824363 108.667413,47.5234363 108.372413,43.8864363 C108.281413,42.7594363 109.369413,41.9144363 110.390413,41.8684363 C110.548413,41.8624363 110.698413,41.8754363 110.840413,41.9074363 C111.166413,41.6914363 111.510413,41.5044363 111.855413,41.3514363 C112.012413,41.2814363 112.172413,41.2144363 112.331413,41.1484363 C112.480413,39.6814363 112.645413,38.2164363 112.861413,36.7574363 C112.874413,36.6644363 112.876413,36.5754363 112.886413,36.4844363 L112.622413,36.5194363 C112.345413,36.5314363 112.086413,36.4724363 111.845413,36.3464363 C111.595413,36.2654363 111.379413,36.1254363 111.197413,35.9294363 C110.999413,35.7454363 110.861413,35.5304363 110.779413,35.2794363 C110.654413,35.0384363 110.595413,34.7804363 110.605413,34.5024363 C110.606413,34.4474363 110.608413,34.3924363 110.613413,34.3364363 C110.622413,34.2244363 110.642413,34.1094363 110.656413,33.9994363 C110.671413,33.8904363 110.683413,33.7754363 110.702413,33.6634363 C110.718413,33.5754363 110.740413,33.4894363 110.769413,33.4044363 C110.782413,33.3614363 110.798413,33.3194363 110.815413,33.2774363 C110.894413,33.0814363 110.975413,32.8864363 111.062413,32.6954363 C111.096413,32.6184363 111.134413,32.5424363 111.171413,32.4684363 C111.351413,32.1654363 111.591413,31.9234363 111.895413,31.7434363 C112.056413,31.6764363 112.216413,31.6094363 112.376413,31.5404363 C112.385413,31.5384363 112.394413,31.5394363 112.402413,31.5374363 C112.509413,31.2874363 112.622413,31.0404363 112.755413,30.8034363 C112.970413,30.4214363 113.241413,30.0754363 113.519413,29.7384363 C113.542413,29.7094363 113.573413,29.6914363 113.599413,29.6654363 C113.734413,29.3784363 113.881413,29.0994363 114.073413,28.8394363 C114.253413,28.5364363 114.494413,28.2944363 114.798413,28.1154363 L115.280413,27.9124363 C115.637413,27.8164363 115.995413,27.8164363 116.353413,27.9124363 L116.834413,28.1154363 C117.070413,28.2424363 117.258413,28.4154363 117.400413,28.6354363 C117.428413,28.6654363 117.445413,28.7024363 117.470413,28.7344363 C118.264413,28.5704363 119.022413,28.2084363 119.656413,27.5874363 C119.884413,28.3354363 120.159413,29.0774363 120.456413,29.8144363 C121.430413,30.5544363 122.435413,31.2484363 123.399413,32.0014363 C124.189413,32.6204363 124.922413,33.3064363 125.548413,34.0924363 C126.160413,34.8634363 126.827413,35.6954363 127.126413,36.6514363 C127.486413,37.7974363 126.974413,39.0324363 125.941413,39.6234363 C125.514413,39.8664363 125.040413,40.0174363 124.560413,40.1404363 C125.384413,42.4974363 126.109413,44.8914363 126.816413,47.2894363 C127.194413,47.5974363 127.519413,47.9654363 127.759413,48.3884363 C128.306413,49.3524363 128.441413,50.5894363 128.052413,51.6364363 M83.1614126,49.3084363 C83.0254126,49.5664363 82.8164126,49.7694363 82.5774126,49.9314363 C82.6054126,50.2554363 82.6314126,50.5784363 82.6654126,50.9024363 C82.6894126,51.0464363 82.7104126,51.1934363 82.7454126,51.3354363 C82.8784126,51.8784363 82.8004126,52.4024363 82.5424126,52.8904363 C82.4864126,52.9954363 82.4154126,53.0914363 82.3394126,53.1804363 C82.2514126,53.3354363 82.1524126,53.4824363 82.0294126,53.5944363 C81.7714126,53.8314363 81.4724126,54.0054363 81.1394126,54.1134363 C80.8704126,54.1974363 80.6034126,54.2094363 80.3344126,54.1504363 C80.1524126,54.1494363 79.9834126,54.1034363 79.8254126,54.0114363 C79.5754126,53.9304363 79.3594126,53.7904363 79.1764126,53.5944363 C79.0714126,53.4584363 78.9664126,53.3224363 78.8614126,53.1864363 C78.8184126,53.0994363 78.7834126,53.0074363 78.7434126,52.9194363 C78.1374126,55.6504363 77.5604126,58.3904363 77.0524126,61.1464363 C76.8784126,62.0934363 76.9624126,62.9484363 77.2034126,63.7144363 C76.5794126,65.8964363 76.7994126,66.3984363 74.7704126,66.2064363 C72.2404126,65.9684363 68.5464126,62.8864363 66.2924126,61.6854363 C64.6074126,60.7854363 62.9794126,60.9194363 61.6674126,61.6234363 C60.7154126,57.4744363 60.1584126,53.2324363 59.9804126,48.9644363 C59.8894126,46.8144363 58.7024126,45.3854363 57.1794126,44.6734363 L58.2584126,41.9674363 L71.4054126,30.4314363 C72.8664126,32.5394363 75.2694126,33.0774363 77.3604126,34.4284363 C77.6504126,34.7984363 77.9604126,35.1274363 78.2974126,35.3844363 C79.2494126,37.4394363 80.1034126,39.5264363 80.8984126,41.6364363 C80.8644126,41.8764363 80.8314126,42.1154363 80.7984126,42.3554363 C81.8724126,44.0314363 83.0424126,45.7514363 83.3644126,47.7534363 C83.4554126,48.3194363 83.4304126,48.8004363 83.1614126,49.3084363 M66.7004126,73.1134363 C64.5114126,73.6094363 62.5074126,72.3634363 61.0014126,70.8804363 C59.6724126,69.5724363 58.4874126,67.9574363 57.7264126,66.2474363 C57.7054126,66.2004363 57.7024126,66.1544363 57.6874126,66.1084363 C57.5624126,66.0094363 57.4414126,65.9044363 57.3314126,65.7944363 C56.4474126,64.8984363 55.9684126,63.6544363 55.5574126,62.4904363 C55.2714126,61.6834363 55.0714126,60.8394363 54.7454126,60.0484363 C54.5464126,59.5654363 54.7084126,58.9584363 54.9394126,58.5134363 C54.8564126,58.3324363 54.7684126,58.1544363 54.6894126,57.9704363 C54.2344126,56.9194363 53.8644126,55.8764363 53.7004126,54.7384363 C53.3314126,52.1674363 53.6984126,49.6184363 54.6464126,47.2064363 C55.0604126,46.1524363 55.9684126,45.5324363 57.1284126,45.7984363 C58.1134126,46.0224363 58.9234126,47.2944363 58.5364126,48.2794363 C58.1364126,49.3004363 57.8044126,50.3564363 57.6424126,51.4434363 C57.6384126,51.4784363 57.6334126,51.5244363 57.6264126,51.5834363 C57.6124126,51.7284363 57.6014126,51.8724363 57.5914126,52.0174363 C57.5734126,52.3084363 57.5664126,52.6004363 57.5724126,52.8914363 C57.5754126,53.1134363 57.5854126,53.3334363 57.6014126,53.5534363 C57.6134126,53.6994363 57.6264126,53.8454363 57.6404126,53.9914363 C57.6104126,53.8044363 57.6144126,53.8314363 57.6544126,54.0744363 C57.7374126,54.5184363 57.8414126,54.9544363 57.9834126,55.3854363 C58.0604126,55.6194363 58.1484126,55.8494363 58.2364126,56.0784363 C58.3254126,56.2964363 58.3284126,56.3044363 58.2454126,56.1024363 C58.2954126,56.2134363 58.3454126,56.3244363 58.3964126,56.4364363 C58.8444126,57.4134363 59.3114126,58.3764363 59.7244126,59.3704363 C59.9784126,59.9824363 59.7654126,60.6204363 59.3634126,61.1094363 C59.4644126,61.4194363 59.5694126,61.7304363 59.6874126,62.0344363 C59.8024126,62.2864363 59.9334126,62.5314363 60.0774126,62.7674363 C60.4544126,62.8514363 60.8134126,63.0774363 61.0834126,63.3254363 C61.4804126,63.6904363 61.6524126,64.2314363 61.6754126,64.7534363 C61.6974126,65.2554363 61.4344126,65.8294363 61.0834126,66.1794363 C61.0234126,66.2404363 60.9564126,66.2844363 60.8934126,66.3334363 C60.9914126,66.4924363 61.0854126,66.6564363 61.1894126,66.8124363 C61.3114126,66.9934363 61.4374126,67.1744363 61.5654126,67.3524363 C61.6384126,67.4534363 61.7084126,67.5704363 61.7944126,67.6614363 C61.7814126,67.6484363 61.7824126,67.6484363 61.7724126,67.6374363 C61.7914126,67.6584363 61.8114126,67.6814363 61.8214126,67.6934363 C62.1094126,68.0524363 62.4114126,68.4024363 62.7334126,68.7324363 C63.0484126,69.0594363 63.3844126,69.3614363 63.7344126,69.6514363 C63.7364126,69.6524363 63.7364126,69.6524363 63.7374126,69.6544363 C63.7434126,69.6574363 63.7454126,69.6594363 63.7554126,69.6654363 C63.8574126,69.7364363 63.9554126,69.8084363 64.0584126,69.8764363 C64.2334126,69.9914363 64.4124126,70.0994363 64.5974126,70.1954363 C64.6744126,70.2364363 64.7534126,70.2714363 64.8314126,70.3104363 C64.8324126,70.3124363 64.8324126,70.3124363 64.8334126,70.3124363 C64.8524126,70.3184363 64.8664126,70.3234363 64.8954126,70.3334363 C65.0754126,70.3974363 65.2584126,70.4384363 65.4434126,70.4854363 C65.5324126,70.4904363 65.6214126,70.4974363 65.7124126,70.4964363 C65.7684126,70.4954363 65.8354126,70.4844363 65.8964126,70.4844363 C65.9214126,70.4794363 65.9474126,70.4744363 65.9724126,70.4684363 C66.7224126,70.2984363 67.4214126,70.6934363 67.6584126,71.4254363 C67.8794126,72.1084363 67.4024126,72.9534363 66.7004126,73.1134363 M139.058413,65.6104363 C139.046413,65.1654363 138.962413,64.7534363 138.847413,64.3604363 C138.956413,62.5744363 138.906413,60.8064363 138.657413,58.9724363 C138.362413,56.7864363 138.238413,53.6494363 136.461413,52.0974363 C136.430413,52.0704363 136.396413,52.0504363 136.365413,52.0254363 C135.851413,49.8724363 135.234413,47.7484363 134.482413,45.6544363 C134.190413,44.8404363 133.698413,44.2574363 133.113413,43.8674363 C132.413413,41.5314363 131.681413,39.2044363 130.838413,36.9194363 C130.605413,36.2884363 130.245413,35.8084363 129.822413,35.4374363 C128.961413,33.1154363 128.114413,30.7774363 127.786413,28.3104363 C127.472413,25.9564363 127.097413,23.8314363 126.261413,21.5934363 C126.236413,21.5264363 126.198413,21.4734363 126.171413,21.4074363 C126.277413,19.4254363 126.420413,17.4454363 126.648413,15.4704363 C126.672413,15.2574363 126.660413,15.0494363 126.632413,14.8454363 C126.757413,14.1074363 126.634413,13.4584363 126.341413,12.9164363 C126.835413,11.8524363 127.364413,10.8034363 127.964413,9.77343633 C127.991413,9.73443633 128.021413,9.70043633 128.048413,9.66043633 C128.590413,8.87043633 129.132413,8.07943633 129.673413,7.28843633 C132.956413,2.49643633 126.263413,-2.03556367 122.255413,0.963436335 C122.089413,1.07043633 121.927413,1.18743633 121.770413,1.31843633 C119.771413,1.23843633 117.749413,2.29443633 116.950413,4.84743633 L116.656413,5.79043633 C116.415413,5.87343633 116.177413,5.98443633 115.942413,6.12643633 C114.915413,2.12843633 109.273413,-0.119563665 107.007413,4.52543633 C106.990413,4.55843633 106.975413,4.59143633 106.958413,4.62543633 C105.077413,4.38343633 103.102413,5.07343633 102.116413,6.98443633 C101.490413,8.19943633 100.900413,9.42743633 100.329413,10.6614363 C99.7384126,10.5724363 99.1264126,10.5764363 98.5234126,10.6854363 C98.9614126,8.25043633 97.8784126,6.42943633 96.2674126,5.48843633 C93.9094126,2.43343633 87.5754126,3.53943633 87.1364126,8.59743633 C87.1144126,8.86343633 87.0834126,9.12643633 87.0604126,9.39243633 C86.9704126,9.22943633 86.8844126,9.06443633 86.7794126,8.90943633 L86.7084126,8.38843633 C86.3644126,5.87543633 82.8354126,4.02743633 80.5584126,4.89643633 C79.5294126,5.28943633 78.5304126,5.71043633 77.5444126,6.15043633 C77.0214126,3.02743633 73.8634126,0.520436335 70.3164126,2.61343633 C69.4564126,3.11943633 68.6264126,3.66543633 67.7904126,4.20243633 C66.5594126,4.14543633 65.2864126,4.54243633 64.2074126,5.57343633 L56.9124126,12.5454363 C56.8704126,12.5324363 56.8274126,12.5254363 56.7854126,12.5134363 C57.2984126,7.55143633 50.3744126,5.64843633 47.4314126,9.74043633 C46.2244126,11.4194363 45.0854126,13.1324363 43.9994126,14.8724363 C43.5534126,12.1424363 40.4914126,10.8044363 37.8884126,11.2724363 C35.4604126,10.4484363 32.4764126,11.2844363 31.5214126,14.5124363 C31.0854126,15.9834363 30.6324126,17.4474363 30.1704126,18.9084363 C30.0414126,19.0794363 29.9174126,19.2574363 29.8044126,19.4544363 C28.1114126,22.4094363 26.3334126,25.3124363 24.4314126,28.1364363 C24.3234126,27.6774363 24.2194126,27.2164363 24.1114126,26.7574363 C22.7534126,21.0084363 14.6774126,22.6944363 14.2884126,28.0854363 C14.2814126,28.2084363 14.2784126,28.3314363 14.2694126,28.4544363 C13.0534126,29.2224363 12.1244126,30.5664363 11.9374126,32.5094363 C11.7104126,34.8454363 12.1184126,37.3164363 13.0664126,39.4094363 C13.7364126,42.3724363 14.6444126,45.2574363 15.7944126,48.1544363 C15.8034126,48.1934363 15.8104126,48.2304363 15.8184126,48.2694363 C15.8244126,48.2664363 15.8314126,48.2634363 15.8374126,48.2604363 C15.9974126,48.6614363 16.1524126,49.0624363 16.3224126,49.4624363 C16.9464126,50.9394363 17.9934126,51.6984363 19.1594126,51.9434363 C19.9414126,56.0024363 20.9204126,60.0264363 22.1184126,64.0084363 C21.6114126,64.1074363 21.1044126,64.2664363 20.6134126,64.5324363 C20.2614126,64.7224363 19.9064126,64.9154363 19.5464126,65.0924363 C19.6134126,65.0514363 19.5284126,65.0724363 19.3794126,65.1184363 C19.2474126,65.0104363 19.1114126,64.9074363 18.9704126,64.8114363 C17.2124126,61.7734363 14.9044126,59.0624363 12.1134126,56.8884363 C10.9334126,55.9704363 9.52641259,55.4344363 8.15341259,55.4904363 C7.80041259,55.4174363 7.42741259,55.3724363 7.02441259,55.3744363 C4.49741259,55.3844363 2.46241259,56.5684363 1.32741259,58.8394363 C0.00941258704,61.4784363 0.947412587,64.0914363 2.25841259,66.4864363 C2.58141259,70.1974363 5.30741259,73.2594363 7.59441259,76.0974363 C10.2674126,79.4124363 13.2654126,82.5434363 16.5704126,85.2364363 C19.5364126,87.6554363 23.6974126,88.6404363 26.4474126,85.2864363 C28.1524126,83.2094363 28.0004126,81.2754363 27.2574126,78.8324363 C27.2474126,78.8004363 27.2394126,78.7714363 27.2304126,78.7404363 C27.2794126,78.7414363 27.3234126,78.7474363 27.3744126,78.7474363 C27.6894126,78.7474363 27.9844126,78.7164363 28.2674126,78.6714363 C28.7284126,83.5554363 30.9354126,88.3614363 33.4544126,92.8474363 C33.9694126,93.7654363 34.6344126,94.3924363 35.3664126,94.7824363 C36.7734126,96.9924363 38.7904126,98.4434363 40.9864126,100.178436 C42.1614126,101.107436 43.3104126,102.160436 44.6224126,102.890436 C45.7364126,103.508436 47.2464126,103.689436 47.9674126,104.245436 C48.6834126,104.798436 49.5464126,105.012436 50.4254126,104.980436 C58.5384126,108.987436 67.6144126,111.488436 75.9744126,114.416436 C78.4524126,115.284436 81.4234126,116.747436 84.2104126,116.921436 C84.8154126,117.234436 85.4264126,117.527436 86.0444126,117.790436 C86.2384126,117.990436 86.4484126,118.175436 86.6874126,118.339436 C88.2064126,119.385436 89.4274126,119.736436 91.2694126,119.550436 C91.4154126,119.534436 91.5544126,119.509436 91.6954126,119.484436 C93.1094126,119.737436 94.5424126,119.867436 95.9824126,119.874436 C96.1044126,119.894436 96.2214126,119.925436 96.3454126,119.939436 C97.4994126,120.058436 98.6534126,120.050436 99.7924126,119.949436 C100.191413,120.075436 100.630413,120.152436 101.103413,120.176436 C101.236413,120.202436 101.366413,120.229436 101.499413,120.255436 C102.829413,120.519436 104.152413,120.453436 105.352413,119.751436 C105.420413,119.710436 105.486413,119.656436 105.554413,119.611436 C111.148413,117.968436 115.011413,113.081436 118.173413,108.084436 C118.534413,107.513436 118.759413,106.947436 118.874413,106.397436 C120.470413,104.538436 121.933413,102.601436 123.277413,100.592436 C124.202413,100.440436 125.135413,99.9374363 125.976413,98.9644363 C126.124413,98.7924363 126.263413,98.6174363 126.409413,98.4454363 C128.472413,97.6464363 129.474413,95.9424363 129.629413,94.1634363 C129.650413,94.1324363 129.671413,94.1004363 129.692413,94.0684363 C130.048413,93.8404363 130.402413,93.5614363 130.743413,93.2114363 C131.325413,92.6174363 131.907413,92.0254363 132.489413,91.4314363 C133.384413,90.5184363 133.832413,89.5284363 133.948413,88.5574363 C135.337413,86.2184363 136.445413,83.7614363 137.250413,81.1184363 C137.302413,80.9864363 137.368413,80.8654363 137.410413,80.7244363 C138.632413,76.5754363 139.318413,72.3804363 139.595413,68.0694363 C139.656413,67.1114363 139.441413,66.2964363 139.058413,65.6104363" id="Fill-9" fill="#E4C3A2"></path>
                <path d="M82.4518126,53.0192363 C82.4148126,53.0742363 82.3818126,53.1302363 82.3398126,53.1802363 C82.2528126,53.3352363 82.1528126,53.4822363 82.0298126,53.5942363 C81.7718126,53.8312363 81.4728126,54.0052363 81.1398126,54.1132363 C80.8718126,54.1972363 80.6028126,54.2092363 80.3348126,54.1502363 C80.1528126,54.1492363 79.9828126,54.1032363 79.8258126,54.0112363 C79.5758126,53.9302363 79.3588126,53.7902363 79.1768126,53.5942363 C79.0708126,53.4582363 78.9668126,53.3222363 78.8608126,53.1862363 C78.5758126,52.6092363 78.3598126,52.0052363 78.1248126,51.4082363 C78.0198126,51.1722363 77.9108126,50.9392363 77.7758126,50.7192363 C77.6618126,50.5352363 77.5978126,50.3312363 77.5558126,50.1242363 C75.9958126,50.6662363 74.8288126,52.1342363 75.5028126,54.1672363 C75.9808126,55.6102363 75.4498126,60.0522363 74.2378126,63.1872363 C74.0028126,62.9712363 73.7418126,62.7942363 73.4638126,62.6552363 C73.2678126,62.3962363 73.0618126,62.1422363 72.8538126,61.9002363 C72.3838126,61.3542363 71.8668126,60.8562363 71.3088126,60.3992363 C70.2568126,59.5362363 68.8088126,58.2962363 67.4218126,58.0542363 C66.6308126,57.9152363 65.8598126,57.9902363 65.1808126,58.2492363 C64.7388126,57.1282363 64.5308126,55.9412363 64.5818126,54.6072363 C64.6218126,53.5472363 64.2558126,52.7472363 63.6838126,52.1862363 C63.7348126,51.9382363 63.7998126,51.6752363 63.8918126,51.3782363 C64.0888126,50.7492363 64.2758126,50.4212363 64.6868126,49.7532363 C64.8368126,49.5112363 64.9368126,49.2512363 65.0148126,48.9882363 C65.0268126,48.9682363 65.0388126,48.9482363 65.0528126,48.9292363 C65.5028126,48.2492363 65.6058126,47.4402363 65.4728126,46.6622363 C65.4188126,45.9492363 65.1518126,45.2652363 64.6528126,44.7222363 C64.6458126,44.6752363 64.6308126,44.6282363 64.6218126,44.5812363 C65.2428126,44.3242363 65.8048126,43.8362363 66.2118126,43.0482363 C67.3998126,40.7482363 68.5998126,38.1592363 70.8818126,36.7652363 C74.7198126,34.4202363 71.2068126,28.3642363 67.3478126,30.7212363 C63.9658126,32.7882363 61.9428126,36.0782363 60.1678126,39.5152363 C59.7188126,40.3842363 59.6688126,41.2242363 59.8608126,41.9772363 C59.4298126,42.1422363 59.0338126,42.3882363 58.7298126,42.7362363 C58.5328126,42.9622363 58.3578126,43.1882363 58.1858126,43.4152363 C58.0048126,43.5252363 57.8268126,43.6442363 57.6568126,43.7772363 C56.9988126,44.2942363 56.5238126,45.0032363 56.1588126,45.7952363 C56.4558126,45.7272363 56.7788126,45.7182363 57.1288126,45.7982363 C58.1138126,46.0222363 58.9248126,47.2942363 58.5378126,48.2792363 C58.1368126,49.3002363 57.8058126,50.3562363 57.6418126,51.4432363 C57.6388126,51.4782363 57.6338126,51.5242363 57.6268126,51.5832363 C57.6118126,51.7282363 57.6008126,51.8732363 57.5918126,52.0172363 C57.5738126,52.3082363 57.5668126,52.6002363 57.5718126,52.8912363 C57.5758126,53.1132363 57.5858126,53.3332363 57.6018126,53.5532363 C57.6138126,53.7002363 57.6268126,53.8452363 57.6398126,53.9922363 C57.6098126,53.8042363 57.6148126,53.8312363 57.6538126,54.0742363 C57.7368126,54.5182363 57.8428126,54.9552363 57.9828126,55.3852363 C58.0598126,55.6202363 58.1478126,55.8492363 58.2368126,56.0792363 C58.3258126,56.2962363 58.3288126,56.3042363 58.2468126,56.1022363 C58.2958126,56.2132363 58.3458126,56.3252363 58.3968126,56.4362363 C58.8448126,57.4142363 59.3108126,58.3762363 59.7238126,59.3712363 C59.9778126,59.9822363 59.7648126,60.6212363 59.3628126,61.1092363 C59.4648126,61.4192363 59.5688126,61.7302363 59.6878126,62.0352363 C59.8028126,62.2872363 59.9328126,62.5312363 60.0788126,62.7672363 C60.4558126,62.8512363 60.8128126,63.0782363 61.0848126,63.3262363 C61.4798126,63.6902363 61.6518126,64.2312363 61.6758126,64.7532363 C61.6978126,65.2552363 61.4338126,65.8302363 61.0848126,66.1792363 C60.6808126,66.5832363 60.2068126,66.7132363 59.6578126,66.7712363 C59.3288126,66.8042363 59.0078126,66.7382363 58.6988126,66.6342363 C59.7568126,68.5122363 61.0458126,70.1622363 62.5868126,71.3142363 C65.1058126,73.2012363 68.3028126,73.9622363 71.2418126,73.4742363 C71.3328126,73.4722363 71.4148126,73.4862363 71.5098126,73.4782363 C76.0338126,73.0912363 79.0638126,70.2182363 80.5358126,65.9862363 C81.8158126,62.3052363 83.3928126,56.9942363 82.4518126,53.0192363" id="Fill-11" fill="#FEFEFE"></path>
                <path d="M110.841513,41.9059363 C111.167513,41.6909363 111.510513,41.5049363 111.855513,41.3509363 C112.828513,40.9179363 113.842513,40.5379363 114.897513,40.3589363 C115.254513,40.2619363 115.612513,40.2619363 115.969513,40.3589363 C116.130513,40.4269363 116.291513,40.4939363 116.451513,40.5619363 C116.650513,40.6669363 116.812513,40.8169363 116.951513,40.9859363 C117.181513,39.6179363 117.505513,38.2209363 118.040513,36.9569363 C118.759513,35.2579363 118.553513,33.3559363 116.930513,32.2749363 C116.918513,32.3259363 116.902513,32.3749363 116.891513,32.4269363 C116.795513,32.7679363 116.622513,33.0649363 116.372513,33.3159363 L115.964513,33.6329363 C115.929513,33.6519363 115.891513,33.6599363 115.856513,33.6769363 C115.652513,34.1949363 115.454513,34.7169363 115.237513,35.2299363 C115.057513,35.5339363 114.816513,35.7749363 114.512513,35.9549363 L114.030513,36.1579363 C113.910513,36.1969363 113.788513,36.2169363 113.665513,36.2259363 C113.509513,36.3199363 113.341513,36.3959363 113.159513,36.4479363 C112.981513,36.4719363 112.802513,36.4959363 112.623513,36.5199363 C112.345513,36.5309363 112.086513,36.4719363 111.846513,36.3459363 C111.596513,36.2649363 111.379513,36.1259363 111.196513,35.9289363 C111.170513,35.9049363 111.153513,35.8749363 111.130513,35.8489363 C110.487513,37.8379363 110.053513,39.8449363 109.794513,41.9919363 C109.989513,41.9259363 110.190513,41.8779363 110.390513,41.8689363 C110.548513,41.8619363 110.698513,41.8749363 110.841513,41.9059363" id="Fill-13" fill="#FEFEFE"></path>
                <path d="M129.220413,48.3307363 C129.227413,48.3097363 129.238413,48.2927363 129.244413,48.2707363 C129.712413,46.7377363 129.716413,44.9587363 129.169413,43.4447363 C128.921413,42.7597363 128.567413,42.1587363 128.029413,41.6977363 C127.924413,41.1327363 127.818413,40.5657363 127.718413,39.9977363 C127.618413,39.4347363 127.329413,38.9597363 126.946413,38.5657363 C126.721413,38.9957363 126.382413,39.3707363 125.941413,39.6237363 C125.232413,40.0287363 124.394413,40.1827363 123.610413,40.3667363 C122.640413,40.5947363 121.725413,40.1597363 121.283413,39.3217363 C120.920413,40.0757363 120.811413,40.9687363 120.968413,41.8577363 C121.201413,43.1867363 121.617413,44.6847363 121.845413,46.1597363 C121.987413,46.1497363 122.127413,46.1327363 122.272413,46.1327363 C122.888413,46.1307363 123.510413,46.2217363 124.124413,46.1407363 L123.998413,46.1577363 C124.437413,46.1187363 124.842413,46.1797363 125.253413,46.3957363 C125.315413,46.4297363 125.366413,46.4747363 125.423413,46.5147363 C126.384413,46.8567363 127.255413,47.5017363 127.759413,48.3887363 C128.306413,49.3517363 128.441413,50.5897363 128.052413,51.6367363 C127.588413,52.8837363 126.747413,53.7567363 125.657413,54.4937363 C124.664413,55.1657363 123.495413,55.5497363 122.356413,55.8897363 C122.138413,56.6577363 121.894413,57.4167363 121.620413,58.1677363 C121.610413,58.1987363 121.596413,58.2297363 121.584413,58.2617363 C121.560413,58.2847363 121.533413,58.2987363 121.508413,58.3217363 C121.481413,58.3477363 121.262413,58.3927363 121.211413,58.4217363 C121.069413,58.3737363 120.783413,58.2727363 120.687413,58.2277363 C120.298413,58.0447363 120.047413,57.8647363 119.873413,57.6457363 C119.869413,57.4537363 119.839413,57.2577363 119.797413,57.0587363 C119.295413,57.3867363 118.650413,57.4367363 118.078413,57.2557363 C117.799413,57.6597363 117.401413,57.9777363 116.958413,58.0957363 C115.857413,58.3847363 115.249413,58.6937363 114.177413,59.2757363 C113.818413,59.4707363 113.408413,59.5517363 113.010413,59.5247363 C114.122413,62.9537363 117.512413,65.1617363 120.933413,65.2927363 C121.692413,65.7037363 122.568413,65.8577363 123.379413,65.5277363 C124.615413,65.0247363 125.856413,64.6177363 126.727413,63.5527363 C127.608413,62.4747363 128.052413,60.9487363 128.509413,59.6497363 C129.509413,56.8047363 130.031413,53.8547363 130.337413,50.8617363 C130.438413,49.8787363 129.952413,48.9757363 129.220413,48.3307363" id="Fill-15" fill="#FEFEFE"></path>
                <path d="M116.006513,113.029036 C115.945513,112.843036 115.842513,112.682036 115.695513,112.547036 C115.410513,112.284036 115.034513,112.090036 114.635513,112.107036 C114.502513,112.125036 114.369513,112.143036 114.236513,112.161036 C113.983513,112.232036 113.762513,112.361036 113.574513,112.547036 L111.899513,113.871036 C111.829513,113.894036 111.760513,113.900036 111.692513,113.932036 C110.422513,114.548036 109.153513,115.163036 107.884513,115.778036 C107.551513,115.606036 107.185513,115.508036 106.796513,115.539036 C99.7895126,116.091036 92.8295126,115.320036 86.1215126,113.220036 C85.6975126,113.088036 85.3115126,113.073036 84.9615126,113.134036 C76.2885126,109.998036 67.6905126,106.665036 59.1645126,103.147036 C58.9355126,102.487036 58.4325126,101.915036 57.5795126,101.645036 C46.7805126,98.2270363 35.2035126,91.1250363 34.0345126,78.7250363 C33.9075126,77.3820363 32.9765126,76.2250363 31.5345126,76.2250363 C31.1745126,76.2250363 30.8075126,76.3290363 30.4655126,76.4970363 C29.6235126,75.9720363 28.5145126,75.8230363 27.5925126,76.1690363 C27.2455126,76.2990363 26.9595126,76.4660363 26.6825126,76.6650363 C26.6415126,76.6620363 26.5995126,76.6530363 26.5585126,76.6550363 C26.1235126,76.6750363 25.7785126,76.8370363 25.5275126,77.0930363 C25.1875126,77.2380363 24.8645126,77.4000363 24.5745126,77.5820363 C23.9355126,77.9810363 23.3905126,78.4980363 22.9825126,79.1330363 C22.6225126,79.6900363 22.4725126,80.4860363 22.2295126,80.9480363 C22.0965126,81.2000363 22.2275126,80.9800363 22.0505126,81.1530363 C22.1385126,81.0670363 22.0415126,81.1150363 21.9905126,81.1520363 C18.9835126,80.6780363 16.5265126,78.2630363 14.4555126,76.1770363 C11.9875126,73.6900363 9.69351259,70.8990363 8.93151259,67.3970363 C8.87551259,67.1420363 8.77151259,66.9390363 8.63851259,66.7790363 C8.59451259,65.6830363 8.75151259,64.5830363 9.19151259,63.5160363 C9.69051259,62.3050363 10.6285126,61.0950363 11.9025126,60.6500363 C13.0415126,61.1940363 14.0965126,61.9280363 15.0005126,62.8500363 C15.6855126,63.5490363 16.5645126,63.3500363 17.0925126,62.8060363 C18.0155126,62.6750363 18.8865126,61.6580363 18.3325126,60.5500363 C17.2005126,58.2850363 14.6555126,57.2580363 12.2545126,57.5380363 C11.9565126,57.1020363 11.5895126,56.7460363 11.1595126,56.4670363 C10.9185126,56.0150363 10.4865126,55.6650363 9.90751259,55.6490363 C9.16051259,55.6280363 8.43451259,55.7010363 7.71851259,55.8170363 C6.72551259,55.6940363 5.71851259,55.7730363 4.71551259,56.2120363 C4.28951259,56.3970363 3.94151259,56.6420363 3.62551259,56.9100363 C3.32351259,56.7710363 2.98551259,56.7130363 2.65051259,56.7960363 C-0.748487413,57.6430363 -0.108487413,62.2450363 0.433512587,64.7680363 C0.851512587,66.7160363 1.58351259,68.5720363 2.56051259,70.2920363 C3.04151259,71.6220363 3.70851259,72.9110363 4.39551259,74.0750363 C4.65951259,74.5240363 5.13251259,74.7190363 5.61351259,74.7410363 C6.64451259,76.3040363 7.71751259,77.8390363 8.83951259,79.3390363 C9.28751259,79.9370363 10.0835126,80.3070363 10.7935126,79.9250363 C12.7235126,83.2580363 15.2315126,86.4550363 19.3055126,86.9820363 C19.5435126,87.0130363 19.7795126,87.0270363 20.0145126,87.0330363 C20.8045126,87.3640363 21.6595126,87.5340363 22.4675126,87.3930363 C22.4825126,87.4080363 22.4865126,87.4300363 22.5015126,87.4440363 C23.1195126,88.0110363 24.0075126,88.0140363 24.6225126,87.4440363 C25.6895126,86.4580363 26.3875126,85.2520363 26.8795126,83.9500363 C27.6115126,83.0110363 27.9785126,81.8500363 27.7405126,80.5950363 C27.7695126,80.4160363 27.7835126,80.2390363 27.8105126,80.0600363 C27.8275126,80.0140363 27.8405126,79.9670363 27.8585126,79.9220363 C27.9265126,79.7770363 28.0115126,79.6410363 28.0945126,79.5050363 L28.0965126,79.5050363 C28.1515126,79.4950363 28.1555126,79.4930363 28.1515126,79.4910363 C28.1645126,79.4910363 28.1795126,79.4910363 28.2265126,79.4880363 C28.3625126,79.4800363 28.4945126,79.4840363 28.6315126,79.4860363 L28.6695126,79.4860363 C28.6695126,79.4890363 28.6765126,79.4920363 28.6895126,79.4960363 C28.7775126,79.8100363 28.9775126,80.0860363 29.2415126,80.2830363 C30.2395126,86.8690363 33.5475126,92.7200363 38.6185126,97.1210363 C42.7865126,100.737036 47.6865126,103.336036 52.8305126,105.272036 C53.1555126,105.827036 53.7035126,106.261036 54.3555126,106.534036 C64.3635126,110.735036 74.4805126,114.673036 84.6945126,118.344036 C85.1025126,118.492036 85.5285126,118.479036 85.9335126,118.369036 C92.6855126,120.332036 99.7865126,121.091036 106.796513,120.539036 C107.561513,120.479036 108.260513,120.138036 108.722513,119.593036 C108.834513,119.561036 108.944513,119.519036 109.045513,119.456036 L112.044513,117.573036 C112.342513,117.385036 112.578513,117.102036 112.697513,116.769036 C112.866513,116.687036 113.036513,116.605036 113.206513,116.523036 C113.211513,116.520036 113.216513,116.515036 113.221513,116.513036 C113.443513,116.438036 113.642513,116.325036 113.810513,116.158036 L115.695513,114.668036 C115.842513,114.532036 115.945513,114.371036 116.006513,114.185036 C116.100513,114.007036 116.143513,113.814036 116.136454,113.607036 C116.143513,113.401036 116.100513,113.208036 116.006513,113.029036" id="Fill-17" fill="#C3996B"></path>
                <path d="M65.7097126,5.72123181 C64.8197126,5.71133633 64.3057126,6.42033633 64.2097126,7.22133633 C63.6777126,11.6803363 61.3557126,16.0933363 57.6777126,18.7423363 C53.8387126,21.5073363 48.8307126,22.2353363 44.4087126,20.5313363 C44.3417126,20.5053363 44.2787126,20.4933363 44.2147126,20.4783363 C43.9457126,20.2743363 43.6187126,20.1463363 43.2987126,20.1463363 C43.1567126,20.1463363 43.0267126,20.1703363 42.9017126,20.2043363 C42.9077126,20.1173363 42.9097126,20.0313363 42.9137126,19.9443363 C44.1827126,19.5363363 44.5087126,17.4333363 42.9157126,17.0863363 L41.1697126,16.7053363 C40.0877126,15.1843363 38.5927126,12.9963363 36.6727126,14.3203363 C36.2517126,14.6103363 35.9747126,15.0373363 35.7637126,15.5083363 C35.6397126,15.5793363 35.5197126,15.6633363 35.4147126,15.7873363 C34.5317126,16.8303363 34.0327126,18.1153363 34.0387126,19.4343363 C32.9627126,22.5613363 31.7727126,25.6493363 30.4587126,28.6843363 C30.3057126,29.0393363 30.2887126,29.4033363 30.3667126,29.7333363 C27.3457126,30.7413363 24.6467126,32.4393363 22.4757126,34.7633363 C22.3537126,34.6703363 22.2207126,34.5923363 22.0767126,34.5383363 C20.9957126,34.1373363 19.9397126,34.1193363 18.8177126,34.3463363 C18.7007126,34.3703363 18.5967126,34.4103363 18.4997126,34.4603363 C18.3297126,34.4653363 18.1607126,34.4813363 17.9907126,34.4993363 C17.0427126,34.0863363 15.7657126,34.6463363 15.8557126,35.7883363 C15.4247126,36.0963363 15.1937126,36.6183363 15.4587126,37.2823363 L19.7717126,48.0883363 C19.7717126,48.0903363 19.7717126,48.0913363 19.7727126,48.0923363 C19.8277126,48.3053363 19.8837126,48.5173363 19.9377126,48.7293363 C20.3607126,51.1783363 20.7837126,53.6263363 21.2077126,56.0753363 C21.3287126,56.7793363 21.9997126,57.1413363 22.6647126,57.1413363 C22.5197126,57.4173363 22.3747126,57.6953363 22.2297126,57.9703363 C21.3257126,59.6753363 23.9147126,61.1933363 24.8187126,59.4843363 C26.7077126,55.9163363 28.4347126,52.3553363 28.8787126,48.2923363 C29.2477126,44.9283363 28.7997126,41.5413363 28.2207126,38.2113363 C29.6667126,38.2593363 31.1177126,38.0613363 32.4937126,37.5903363 C34.8577126,36.7823363 36.7237126,35.2673363 38.4477126,33.4983363 C41.1677126,30.7103363 43.5257126,27.4873363 44.4397126,23.7103363 C49.4687126,25.3183363 55.2307126,24.2693363 59.4637126,21.1333363 C63.9437126,17.8153363 66.5557126,12.6983363 67.2097126,7.22133633 C67.3067126,6.40933633 66.4507126,5.72933633 65.7097126,5.72123181" id="Fill-19" fill="#C3996B"></path>
                <path d="M56.9626126,105.547536 C56.7376126,105.198536 56.4486126,105.009536 56.0666126,104.858536 C54.7266126,104.325536 53.3876126,103.794536 52.0476126,103.262536 C51.8036126,103.165536 51.4686126,103.197536 51.1876126,103.287536 C51.1666126,103.258536 51.1496126,103.227536 51.1266126,103.198536 C49.7836126,101.502536 47.7936126,100.662536 45.9126126,99.7185363 C44.0206126,98.7685363 42.2156126,97.6215363 40.5866126,96.2665363 C39.7016126,95.5295363 38.8696126,94.7415363 38.0846126,93.9125363 C38.2206126,93.4115363 38.0666126,92.8655363 37.7136126,92.4325363 C34.6786126,88.7025363 31.5466126,84.7565363 30.7086126,79.8915363 C30.5706126,79.0925363 29.5896126,78.6445363 28.8626126,78.8435363 C28.0186126,79.0755363 27.6776126,79.8875363 27.8156126,80.6895363 C28.2056126,82.9545363 29.0596126,85.0435363 30.1616126,87.0115363 C30.1356126,87.2725363 30.1716126,87.5505363 30.3066126,87.8355363 C32.1746126,91.7955363 34.9056126,95.3695363 38.2456126,98.2025363 C39.9106126,99.6155363 41.7106126,100.875536 43.6346126,101.911536 C45.5026126,102.918536 47.6476126,103.603536 49.0046126,105.319536 C49.3536126,105.761536 49.9836126,105.837536 50.5136126,105.671536 C50.7116126,105.892536 50.9516126,106.036536 51.2496126,106.154536 C52.5896126,106.687536 53.9296126,107.218536 55.2696126,107.750536 C55.6076126,107.885536 56.1236126,107.776536 56.4246126,107.599536 C56.7356126,107.417536 57.0326126,107.060536 57.1136126,106.702536 C57.2016126,106.318536 57.1826126,105.888536 56.9626126,105.547536" id="Fill-21" fill="#C3996B"></path>
                <path d="M18.5290126,62.8629363 C17.0630126,60.8889363 14.8280126,59.0929363 12.2160126,59.2879363 C9.72301259,59.4739363 7.39801259,61.4059363 7.39301259,64.0239363 C7.39301259,64.1299363 7.40601259,64.2319363 7.42801259,64.3329363 C5.91101259,66.6289363 5.73501259,69.7169363 6.98701259,72.1839363 C7.35301259,72.9069363 8.37001259,73.1139363 9.03901259,72.7219363 C9.77301259,72.2929363 9.94501259,71.3949363 9.57701259,70.6699363 C9.56401259,70.6449363 9.47801259,70.4569363 9.45901259,70.4239363 C9.41401259,70.3079363 9.37301259,70.1909363 9.33601259,70.0729363 C9.29301259,69.9319363 9.25501259,69.7899363 9.22201259,69.6449363 C9.20101259,69.5499363 9.18101259,69.4539363 9.16501259,69.3559363 C9.15601259,69.3069363 9.15401259,69.2939363 9.15001259,69.2679363 C9.16001259,69.3389363 9.13301259,68.9989363 9.13101259,68.9489363 C9.12501259,68.7999363 9.12401259,68.6529363 9.12801259,68.5059363 C9.13201259,68.3569363 9.14101259,68.2099363 9.15401259,68.0619363 C9.15701259,68.0339363 9.15701259,68.0359363 9.15801259,68.0239363 C9.16601259,67.9739363 9.17401259,67.9249363 9.18301259,67.8749363 C9.24301259,67.5589363 9.32401259,67.2479363 9.42901259,66.9449363 C9.44101259,66.9109363 9.51801259,66.7229363 9.53101259,66.6849363 C9.58301259,66.5739363 9.63501259,66.4649363 9.69301259,66.3569363 C9.82501259,66.1139363 9.97401259,65.8749363 10.1430126,65.6539363 C10.1810126,65.6139363 10.2980126,65.4789363 10.3120126,65.4629363 C10.4130126,65.3539363 10.5170126,65.2499363 10.6270126,65.1499363 C10.6280126,65.1489363 10.8200126,64.9879363 10.8420126,64.9639363 C10.9500126,64.8849363 11.0610126,64.8099363 11.1740126,64.7409363 C11.3040126,64.6609363 11.4380126,64.5859363 11.5740126,64.5149363 C11.5750126,64.5149363 11.7760126,64.4249363 11.8260126,64.3999363 C12.0940126,64.2969363 12.3710126,64.2109363 12.6520126,64.1459363 C12.7770126,64.1169363 12.9030126,64.0929363 13.0300126,64.0729363 C13.0770126,64.0709363 13.2800126,64.0489363 13.3160126,64.0469363 C13.6260126,64.0279363 13.9290126,64.0429363 14.2380126,64.0549363 C14.3000126,64.0579363 14.3310126,64.0579363 14.3500126,64.0569363 C14.3650126,64.0619363 14.3910126,64.0689363 14.4480126,64.0809363 C14.5980126,64.1099363 14.7490126,64.1389363 14.8970126,64.1769363 C15.5680126,64.3479363 15.8440126,64.4769363 16.4760126,64.9149363 C17.0180126,65.2899363 17.8500126,65.1249363 18.2950126,64.6799363 C18.7290126,64.2459363 18.9210126,63.3889363 18.5290126,62.8629363" id="Fill-23" fill="#C3996B"></path>
                <path d="M79.0544126,38.4411363 C79.1844126,37.8821363 78.8364126,37.2841363 78.2864126,37.0021363 C78.2684126,36.9701363 78.2454126,36.9401363 78.2264126,36.9091363 C78.5924126,34.7351363 76.3644126,32.8171363 74.6224126,31.6151363 C72.7134126,30.2961363 70.2614126,29.3791363 67.7644126,29.3761234 C64.5484126,29.3711363 61.6714126,30.8121363 59.5334126,32.9711363 C57.3624126,35.1661363 56.1674126,37.8971363 55.1374126,40.6031363 C54.6804126,40.9311363 54.4174126,41.5131363 54.5074126,41.9891363 C54.6574126,42.7851363 54.4504126,46.1251363 55.2924126,46.0501363 C55.3924126,46.0411363 55.4924126,46.0311363 55.5914126,46.0191363 C56.0184126,45.7581363 56.5404126,45.6641363 57.1284126,45.7981363 C57.4964126,45.8821363 57.8404126,46.1131363 58.1074126,46.4201363 C61.2604126,45.8451363 65.0904126,42.9841363 68.0404126,42.3301363 C68.4724126,42.2341363 68.8964126,42.1191363 69.3244126,42.0111363 C69.6344126,42.1561363 70.0204126,42.2501363 70.3694126,42.1521363 C70.8774126,42.0091363 71.3834126,41.8471363 71.8554126,41.6191363 C72.1254126,41.4881363 72.3844126,41.3351363 72.6384126,41.1741363 C72.8474126,41.2221363 73.0844126,41.2321363 73.3504126,41.1811363 C73.3704126,41.1771363 73.3874126,41.1701363 73.4084126,41.1661363 C73.6214126,41.2111363 73.8484126,41.2321363 74.0834126,41.2141363 C75.1764126,41.1381363 76.1674126,40.8041363 77.0524126,40.2951363 C78.1044126,40.5461363 79.4984126,39.5991363 79.0544126,38.4411363" id="Fill-25" fill="#E4C3A2"></path>
                <path d="M75.9294126,35.3776363 C68.5584126,38.0176363 63.9754126,40.0936363 56.9094126,41.8846363 C55.6084126,42.2146363 54.2694126,45.8496363 55.5654126,45.5206363 C62.8504126,43.6746363 70.8214126,43.7156363 77.1054126,39.0766363 C78.2004126,38.2676363 77.2134126,34.9176363 75.9294126,35.3776363" id="Fill-27" fill="#C3996B"></path>
                <path d="M126.012413,35.6061363 C126.310413,34.4781363 125.647413,33.2611363 124.835413,32.3511363 C123.054413,30.3551363 120.710413,28.5931363 118.173413,27.7401363 C115.585413,26.8711363 112.626413,27.4331363 111.302413,30.0641363 C110.601413,31.4571363 110.274413,33.0541363 109.919413,34.5651363 C109.603413,35.9181363 109.354413,37.2961363 109.267413,38.6861363 L109.246413,38.7131363 C109.104413,38.9641363 109.032413,39.2341363 109.031413,39.5231363 L109.031413,39.9811363 C109.023413,40.2021363 109.068413,40.4081363 109.166413,40.5991363 C109.230413,40.7971363 109.339413,40.9701363 109.493413,41.1151363 C109.637413,41.2711363 109.807413,41.3821363 110.002413,41.4471363 C110.191413,41.5471363 110.394413,41.5931363 110.612413,41.5851363 C110.751413,41.5661363 110.892413,41.5461363 111.033413,41.5281363 C111.043413,41.5251363 111.052413,41.5181363 111.063413,41.5151363 C111.160413,41.5021363 111.248413,41.4571363 111.343413,41.4281363 C111.456413,41.4381363 111.565413,41.4371363 111.675413,41.4381363 C111.735413,41.4101363 111.795413,41.3771363 111.855413,41.3511363 C112.828413,40.9181363 113.842413,40.5381363 114.897413,40.3591363 C115.132413,40.2941363 115.367413,40.2891363 115.603413,40.3091363 C116.417413,40.0251363 117.237413,39.7561363 118.065413,39.5171363 C120.077413,38.9351363 122.125413,38.4981363 124.194413,38.1811363 C124.398413,38.1911363 124.600413,38.2161363 124.806413,38.2181363 C126.287413,38.2281363 126.686413,36.5371363 126.012413,35.6061363" id="Fill-29" fill="#E4C3A2"></path>
                <path d="M124.634513,34.6169363 C119.841513,36.3399363 114.943513,37.7459363 109.966513,38.8259363 C108.863513,39.0659363 109.137513,40.5759363 110.068513,40.7619363 C110.324513,40.6069363 110.590513,40.4689363 110.855513,40.3509363 C111.828513,39.9179363 112.842513,39.5379363 113.897513,39.3589363 C114.254513,39.2629363 114.612513,39.2629363 114.969513,39.3589363 C115.124513,39.4239363 115.280513,39.4899363 115.435513,39.5539363 C118.719513,38.6899363 121.968513,37.6949363 125.165513,36.5449363 C126.367513,36.1129363 125.849513,34.1799363 124.634513,34.6169363" id="Fill-31" fill="#C3996B"></path>
                <path d="M123.868813,33.4303363 C121.669813,34.4253363 119.402813,35.2533363 117.126813,36.0513363 C114.702813,36.9013363 113.470813,37.6503363 110.171813,38.0763363 C109.631813,38.1463363 109.177813,38.4863363 109.171773,39.0763363 C109.166813,39.5633363 109.635813,40.1453363 110.171813,40.0763363 C112.764813,39.7413363 115.201813,38.8413363 117.658813,37.9803363 C120.097813,37.1243363 122.520813,36.2243363 124.877813,35.1573363 C126.048813,34.6273363 125.032813,32.9033363 123.868813,33.4303363" id="Fill-33" fill="#C3996B"></path>
            </g>
            <g id="outline" transform="translate(0.000000, 0.916000)">
                <g id="Group-40">
                    <mask id="mask-2" fill="white">
                        <use xlink:href="#path-1"></use>
                    </mask>
                    <g id="Clip-39"></g>
                    <path d="M171.0482,137.3859 C170.9032,137.5149 170.7922,137.6879 170.7622,137.9199 C169.5322,147.5449 162.4282,154.9569 155.6852,161.4389 C155.3622,161.3509 154.9872,161.4199 154.7382,161.7529 C150.6492,167.2129 148.0462,174.3569 142.1722,178.2569 C135.6442,182.5909 127.3672,181.2159 120.2962,179.1599 C116.3592,178.0159 112.5022,176.5929 108.6292,175.2519 C104.2832,173.7479 99.9392,172.2429 95.5932,170.7399 C87.9342,168.0879 80.0712,165.5149 73.3782,160.8089 C67.2352,156.4899 62.1392,149.8729 61.3942,142.2619 C61.3822,142.1729 61.3782,142.0839 61.3612,141.9949 C61.3172,141.4609 61.2912,140.9229 61.2912,140.3799 C61.2902,139.5659 60.3222,139.3819 59.8722,139.8209 C59.3972,139.9429 58.9962,140.4619 59.3072,141.0249 C59.5352,141.4389 59.6712,141.8779 59.7482,142.3229 C59.7652,142.5039 59.7812,142.6849 59.8032,142.8639 C59.8692,144.2729 59.2892,145.7079 58.2982,146.7449 C57.4492,147.6329 56.3582,148.1419 55.1932,148.3689 C54.8832,148.1629 54.5222,148.0429 54.1362,148.0699 C50.5762,148.3219 47.9102,145.0959 45.7252,142.7269 C42.8612,139.6229 40.1362,136.3869 37.5832,133.0219 C37.3712,132.7409 37.1112,132.5119 36.8272,132.3409 C36.7142,132.1489 36.5932,131.9609 36.4832,131.7669 C36.4772,131.7539 36.4712,131.7409 36.4652,131.7299 C36.4572,131.7139 36.4452,131.7029 36.4382,131.6889 C35.0862,129.2899 33.9882,126.7679 33.5092,124.0379 C33.2802,122.7339 33.2602,121.3619 33.5142,120.0479 C33.6402,119.9319 33.7592,119.7999 33.8642,119.6369 C34.9282,117.9939 36.6942,116.9089 38.5942,116.5359 C39.3822,116.6849 40.1802,116.6429 40.9352,116.4469 C41.3292,116.4939 41.7212,116.5739 42.1032,116.6899 C43.9482,117.2489 45.7142,118.6349 47.1942,119.8439 C48.7972,121.1549 50.1482,122.6169 51.0012,124.5219 C51.3432,125.2829 52.2752,125.5909 53.0782,125.4599 C53.3592,125.5239 53.6352,125.5319 53.8972,125.4909 C54.0612,125.4899 54.2132,125.4489 54.3442,125.3649 C54.8962,125.1449 55.3392,124.6929 55.5372,124.0629 C55.8912,122.9389 56.0102,121.8259 55.9532,120.7339 C56.0122,120.5409 56.0692,120.3499 56.1272,120.1569 C56.2282,119.8239 56.0622,119.4419 55.7712,119.2519 C55.5672,118.1719 55.2132,117.1139 54.7682,116.0819 C53.4952,109.0589 50.8122,102.3309 46.8592,96.3719 L48.4812,96.9899 C49.7582,97.4769 51.0682,98.1199 52.4232,98.3399 C53.5472,98.5229 54.5972,98.2619 55.4132,97.6389 C56.1262,97.9639 56.9752,97.9949 57.6542,97.5309 C59.3022,96.4039 60.7302,95.0759 61.9422,93.5309 C62.3572,93.0809 62.7222,92.5839 63.0082,92.0319 C63.1162,91.8239 63.1872,91.6189 63.2392,91.4179 C64.3072,89.7129 65.1592,87.8719 65.7722,85.9539 C68.4622,83.5629 69.2842,79.6619 69.2132,76.0009 C71.9852,79.3199 76.0612,81.4739 80.3882,81.9489 C85.9862,82.5659 91.3792,79.9259 94.7522,75.4969 C95.7052,74.2459 96.4522,72.8709 97.0062,71.4229 C97.2962,70.9069 97.5732,70.3849 97.8362,69.8559 C100.0572,73.5319 103.5772,76.4919 107.8262,77.3909 C112.8882,78.4609 118.0032,76.0769 120.5132,71.5449 C121.0582,70.5619 121.4302,69.5039 121.6352,68.4209 C121.9752,70.3099 122.5732,71.9479 124.0662,73.4409 C124.7102,74.0849 125.5282,74.6559 126.4202,75.1059 C127.9132,76.4769 129.7772,77.3779 132.1522,77.4499 C135.0272,77.5379 137.4762,75.7819 138.8612,73.3479 C139.9162,71.4949 140.3032,69.4359 140.4232,67.3429 C142.5002,70.4139 146.1232,72.4679 149.8862,72.2169 C153.7972,71.9559 157.1802,69.4299 158.8382,66.0089 C159.6522,66.4509 160.5352,66.7559 161.4602,66.9009 C161.5422,66.9399 161.6192,66.9879 161.7032,67.0239 C157.4142,72.4069 157.7182,80.3679 159.0822,86.7709 C160.6862,94.2959 164.1272,101.2539 166.9412,108.3659 C168.5622,112.4669 169.9912,116.6519 170.7912,120.9959 C170.8082,121.0859 170.8472,121.1519 170.8822,121.2199 C171.4692,126.5889 171.5232,132.0049 171.0482,137.3859 M117.8832,188.8349 C117.1192,189.6029 115.9022,189.9819 114.8752,190.2389 C113.7792,190.5129 112.5172,190.6419 111.4572,190.1569 C110.3372,189.6439 109.8642,188.4459 109.1062,187.5539 C108.7652,187.1539 108.3692,186.8629 107.9382,186.5719 C107.2822,186.1279 107.3522,185.6849 107.3302,184.9359 C107.2492,182.1359 107.1682,179.3349 107.0872,176.5349 C110.5702,177.7419 114.0602,178.9279 117.5672,180.0449 C117.5612,180.1429 117.5662,180.2449 117.6022,180.3579 C118.0742,181.8179 118.4022,183.3169 118.5222,184.8479 C118.6192,186.1059 118.8592,187.8539 117.8832,188.8349 M106.4562,3.6919 C105.7532,4.2209 104.9322,4.6619 104.0512,4.9889 C104.8062,4.4849 105.6132,4.0489 106.4562,3.6919 M136.7942,73.4409 C136.8192,73.4129 136.8442,73.3809 136.8682,73.3539 C135.8132,74.7409 134.3262,75.6979 132.5432,75.7819 C134.1462,75.4079 135.6632,74.6719 136.7942,73.4409 M143.5782,68.4159 C142.5952,67.5849 141.7742,66.5579 141.1932,65.4049 C141.9152,66.4679 142.7142,67.4769 143.5782,68.4159 M171.5002,116.7339 C167.9882,103.8099 159.5952,92.0199 159.8552,78.3009 C159.9282,74.4409 160.8552,70.4299 163.4792,67.5049 C163.9122,67.5579 164.3512,67.5719 164.7852,67.5309 C168.1542,67.2119 170.7352,64.4909 171.9512,61.4929 C173.4152,57.8859 173.4812,53.5769 173.3082,49.7399 C173.1842,46.9779 172.7312,44.1559 171.6812,41.5809 C171.2992,40.2199 170.5812,39.0019 169.6522,37.9809 C168.0102,35.8019 165.7902,34.0499 163.2032,33.2119 C163.1912,33.1789 163.1762,33.1469 163.1632,33.1139 C163.6032,30.9639 163.9002,28.6319 162.8152,26.6339 C162.4212,25.9109 161.8802,25.3109 161.2422,24.8699 C160.7512,22.8709 159.9432,21.0879 158.5402,19.6219 C158.1392,18.7569 157.5722,17.9689 156.8192,17.3269 C155.5442,16.2409 153.8762,15.7079 152.2412,15.7999 C151.7432,14.6939 151.0342,13.6469 150.0822,12.6939 C146.8422,9.4529 140.6902,8.1849 136.7522,10.9739 C136.4592,11.1819 136.1642,11.3959 135.8672,11.6099 C135.1262,8.8609 133.1882,6.5939 130.7032,5.1849 C130.5082,5.0309 130.3212,4.8689 130.1142,4.7279 C128.0402,3.3169 125.3352,2.7479 122.9082,3.3419 C122.3382,2.7839 121.7072,2.2929 121.0282,1.8699 C120.5282,1.2759 119.8552,0.8029 119.0992,0.5489 C118.2872,0.2779 117.4352,0.2119 116.5792,0.2259 C114.6382,-0.0761 112.6142,0.0949 110.7382,0.8179 C110.5512,0.8489 110.3622,0.8679 110.1752,0.9029 C106.6942,1.5449 103.1602,3.0479 100.7712,5.6169 C99.3162,5.6349 97.9232,5.2839 96.8582,4.4499 C93.6812,1.9629 90.3702,0.9649 87.0852,1.5909 C83.6392,1.9059 81.1682,4.2479 78.7222,6.5529 C77.8332,7.2779 76.9442,8.0019 76.0552,8.7269 C73.5072,7.2979 70.9732,5.8089 68.3442,4.5479 C65.8212,3.3379 62.9882,2.4959 60.2262,3.3969 C54.9222,5.1239 52.9682,10.6539 51.7082,15.5959 C47.7112,13.1979 42.7212,12.5509 38.2412,13.8839 C36.7452,14.3279 35.3532,15.0189 34.0692,15.8689 C31.8062,16.8919 29.7672,18.4469 28.1492,20.6259 C25.7332,23.8799 24.7342,27.7929 25.1942,31.5389 C24.4952,31.8209 23.6742,31.9739 23.1372,32.1849 C22.0382,32.6149 20.9802,33.1419 19.9862,33.7819 C17.4972,35.3829 15.3892,37.6019 13.9202,40.1779 C12.6112,41.7549 11.5772,43.5879 10.9542,45.7559 C9.4902,50.8549 10.7252,55.7419 13.5082,59.8039 C10.0692,60.6649 6.8512,62.3929 4.4482,65.0269 C2.6182,67.0319 1.4082,69.4799 0.9062,72.0739 C-0.5768,76.0229 -0.0618,80.6739 3.2622,83.7259 C3.4382,83.8879 3.6222,84.0319 3.8052,84.1809 C0.4352,86.0269 -0.4948,90.9599 0.2312,94.5029 C0.9472,98.0079 3.1172,101.1139 6.0922,103.0259 C5.6362,103.5479 5.2252,104.1269 4.8662,104.7669 C4.8512,104.7889 4.8322,104.8089 4.8172,104.8319 C4.4972,105.3059 4.2812,105.8209 4.1372,106.3549 C2.4122,111.0709 3.8612,117.3849 8.7492,119.7739 C9.8902,120.3309 10.0042,120.1529 10.4612,120.8639 C11.5082,122.4949 12.7792,123.6699 14.1592,124.4929 C13.1802,125.6229 12.6882,127.2039 13.0822,128.9819 C13.0932,129.0309 13.1072,129.0779 13.1172,129.1259 C13.0822,129.4279 13.0452,129.7299 13.0312,130.0319 C12.8632,133.8679 14.5132,137.4439 16.4182,140.6709 C18.4942,144.1889 20.5872,147.8239 23.0112,151.1149 C25.1952,154.0779 28.1282,156.7399 31.9202,157.2339 C34.9432,157.6259 38.1972,156.1819 39.5592,153.4699 C40.2092,154.0279 40.9262,154.5109 41.6872,154.9089 C42.6952,156.3309 44.2092,157.5359 45.4242,158.4799 C47.6722,160.2269 50.2612,161.6009 53.0582,162.2099 C58.1562,163.3219 63.8292,161.6729 66.8692,157.2849 C67.6612,158.1469 68.4902,158.9719 69.3632,159.7389 C75.6902,165.2929 83.7282,168.3429 91.5652,171.0819 C96.1842,172.6969 100.7982,174.3469 105.4242,175.9619 C105.5032,178.7089 105.5822,181.4569 105.6622,184.2039 C105.6952,185.3649 105.5322,186.7179 106.4982,187.5569 C106.8852,187.8929 107.3582,188.1029 107.7182,188.4719 C108.1152,188.8789 108.4002,189.3749 108.7302,189.8349 C110.1132,191.7649 112.1292,192.3599 114.4302,192.0049 C116.4152,191.6989 118.9962,190.8189 119.8472,188.8209 C120.4012,187.5229 120.2712,185.9369 120.1452,184.5659 C120.0212,183.2239 119.7652,181.9039 119.3932,180.6109 C126.1772,182.6399 133.7522,184.0209 140.4232,181.0849 C147.7282,177.8699 150.8512,170.2849 155.1192,164.0469 C155.2702,164.0249 155.4202,163.9719 155.5582,163.8389 C162.2952,157.4089 169.4282,150.2619 171.7902,141.0539 C172.0842,140.9509 172.3382,140.7109 172.3852,140.3279 C173.3342,132.6649 173.1942,124.9329 172.0222,117.3019 C171.9692,116.9539 171.7532,116.7839 171.5002,116.7339" id="Fill-38" fill="#231F20" mask="url(#mask-2)"></path>
                </g>
                <path d="M110.5882,86.1584 C104.4202,81.0184 94.6432,81.4144 88.9962,87.1794 C88.0962,88.0994 89.5082,89.5144 90.4102,88.5934 C95.2462,83.6564 103.8332,83.1224 109.1742,87.5724 C110.1562,88.3904 111.5782,86.9834 110.5882,86.1584" id="Fill-41" fill="#231F20"></path>
                <path d="M148.8773,77.7277 C143.1713,78.3277 138.1433,82.6377 136.8633,88.2707 C136.5783,89.5247 138.5063,90.0597 138.7913,88.8027 C139.8613,84.0967 144.0373,80.2357 148.8773,79.7277 C149.4143,79.6707 149.8773,79.3077 149.8773,78.7277 C149.8773,78.2307 149.4173,77.6707 148.8773,77.7277" id="Fill-43" fill="#231F20"></path>
                <path d="M134.89,154.214 C129.766,156.058 123.865,154.741 120.008,150.921 C120.055,150.836 120.094,150.747 120.145,150.664 C120.209,150.56 120.278,150.458 120.348,150.359 C120.368,150.331 120.388,150.304 120.408,150.276 C120.418,150.264 120.44,150.237 120.465,150.206 C120.622,150.019 120.791,149.841 120.971,149.675 C121.055,149.599 121.142,149.527 121.229,149.454 C121.237,149.449 121.231,149.452 121.243,149.444 C121.309,149.398 121.375,149.351 121.444,149.306 C121.879,149.017 122.108,148.41 121.803,147.938 C121.524,147.505 120.901,147.269 120.434,147.579 C119.399,148.269 118.543,149.234 118.038,150.377 C117.494,151.61 117.313,152.88 117.498,154.216 C117.571,154.735 118.262,155.066 118.729,154.914 C119.299,154.73 119.504,154.241 119.427,153.685 C119.446,153.821 119.44,153.777 119.429,153.666 C119.424,153.612 119.42,153.558 119.417,153.503 C119.41,153.382 119.407,153.259 119.408,153.137 C119.408,153.122 119.41,153.108 119.41,153.093 C123.729,156.818 130.019,158.087 135.422,156.143 C136.623,155.71 136.106,153.777 134.89,154.214" id="Fill-45" fill="#231F20"></path>
                <path d="M116.5824,113.3537 C116.6224,113.2867 116.6704,113.2237 116.6984,113.1517 C117.4634,111.2177 117.8614,109.1827 117.9424,107.1067 C118.0064,105.4647 115.8524,105.2277 115.1584,106.3757 C114.8894,105.4567 114.5554,104.5657 114.1724,103.6547 C113.6094,102.3117 113.2854,100.9997 113.0814,99.5597 C112.8774,98.1247 112.6194,96.7587 111.9324,95.4637 C111.0254,93.7587 108.4354,95.2727 109.3414,96.9787 C109.9804,98.1817 110.0684,99.5887 110.2684,100.9157 C110.4964,102.4297 110.9914,103.7627 111.5824,105.1687 C112.7174,107.8687 112.7014,110.8617 113.9574,113.5087 C114.1164,113.8467 114.3524,114.0507 114.6174,114.1587 C114.5454,114.3327 114.5004,114.5217 114.4884,114.7187 C114.2784,118.1637 113.8204,121.5787 113.1144,124.9567 C112.9494,125.7497 113.3474,126.5777 114.1624,126.8017 C114.9064,127.0057 115.8414,126.5497 116.0084,125.7537 C116.7684,122.1187 117.2634,118.4257 117.4884,114.7187 C117.5244,114.1227 117.1114,113.5917 116.5824,113.3537" id="Fill-47" fill="#E4C3A2"></path>
                <path d="M164.0941,109.2804 C164.1021,108.1844 164.1551,107.0914 164.1891,105.9954 C164.2221,104.9114 164.1001,103.8604 163.5611,102.9014 C162.6161,101.2174 160.0241,102.7274 160.9711,104.4154 C161.3371,105.0674 161.1921,105.9194 161.1601,106.6414 C161.1161,107.6804 161.0931,108.7194 161.0921,109.7604 C161.0901,111.8414 161.1771,113.9204 161.3451,115.9934 C161.4101,116.8014 161.9881,117.4934 162.8451,117.4934 C163.6061,117.4934 164.4101,116.8054 164.3451,115.9934 C164.1641,113.7604 164.0761,111.5204 164.0941,109.2804" id="Fill-49" fill="#E4C3A2"></path>
                <path d="M112.4388,122.4211 C111.8068,125.9871 110.8258,130.4011 107.6408,132.5841 C104.3578,134.8351 99.6048,134.7881 96.0848,133.1441 C92.8388,131.6281 90.4828,128.7861 89.4068,125.4391 C89.5158,125.2261 89.5528,124.9701 89.4398,124.7001 C88.0008,121.3011 86.4978,117.7441 86.3288,114.0071 C86.2388,111.9911 86.6268,110.0771 87.2888,108.2391 C91.0608,107.2291 94.7748,106.0251 98.4148,104.6221 C98.8348,105.3721 99.2988,106.0981 99.8108,106.7901 C101.6038,109.2151 103.8398,111.4071 106.3118,113.1391 C108.2928,114.5271 110.7718,115.2431 112.9338,114.2051 C113.0688,116.9501 112.9198,119.7081 112.4388,122.4211 M89.2198,104.1321 C90.8818,101.2211 92.6868,98.2071 94.8738,95.6581 C95.2288,95.2431 95.6118,94.8491 96.0068,94.4671 C96.8328,93.1671 98.5828,92.4331 99.9788,91.9891 C101.7168,91.4371 104.4608,91.2961 105.7168,92.8921 C106.1898,93.3101 106.5488,93.8081 106.8028,94.3661 C107.0768,94.6911 107.3148,95.0441 107.5158,95.3341 C107.9648,95.9801 108.4178,96.6751 108.6778,97.4231 C108.8028,97.7831 108.6758,98.3171 108.3768,98.5661 C106.9538,99.7411 105.2058,100.2851 103.4868,100.8721 C102.7928,101.2091 102.0848,101.5161 101.3718,101.8001 C100.0728,102.3171 98.7368,102.7261 97.4268,103.2141 C97.0418,103.3581 96.6528,103.3551 96.2838,103.2651 C93.6538,104.2341 90.9928,105.1201 88.2928,105.8871 C88.5848,105.2941 88.8908,104.7081 89.2198,104.1321 M114.4618,112.3581 C114.0018,107.5151 112.6528,102.8141 110.4828,98.4641 C110.0648,97.1951 109.5008,95.9801 108.7808,94.8541 C108.6958,94.7221 108.5908,94.6361 108.4798,94.5731 C108.2488,94.0791 108.0038,93.5911 107.7248,93.1201 C106.8618,91.6681 105.5788,90.3311 104.0358,89.7161 C103.9088,89.5111 103.6978,89.3581 103.3788,89.3620233 C103.1798,89.3641 102.9888,89.3861 102.7938,89.3991 C102.2428,89.3311 101.6678,89.3551 101.0738,89.5011 C100.8888,89.5481 100.7678,89.6441 100.6718,89.7571 C96.2108,90.9931 93.0388,95.0011 90.5628,98.8371 C88.9768,101.2961 87.3948,103.8021 86.2718,106.4451 C86.2158,106.4601 86.1608,106.4781 86.1048,106.4911 C85.2948,106.7041 85.2448,107.5871 85.6448,108.0931 C84.8608,110.4181 84.4818,112.8581 84.8148,115.4801 C85.1878,118.4151 86.2128,121.1901 87.3378,123.9101 C87.3398,123.9271 87.3348,123.9391 87.3358,123.9551 C88.7388,132.4841 97.8248,138.1441 106.0818,135.1761 C110.2798,133.6671 112.2488,130.0351 113.3458,125.9321 C114.5238,121.5261 114.8928,116.8961 114.4618,112.3581" id="Fill-51" fill="#231F20"></path>
                <path d="M139.3578,129.5402 C137.3168,126.8232 135.2228,124.1442 133.1698,121.4362 C131.1828,118.8182 128.7848,115.2682 130.6528,111.9462 C131.1728,111.0212 129.7508,110.1902 129.2308,111.1152 C127.5728,114.0632 128.5148,117.4432 130.2278,120.1342 C132.3118,123.4062 134.9118,126.4082 137.2638,129.4892 C138.6078,131.2492 143.2738,137.4882 138.6788,138.2522 C136.7328,138.5752 134.7038,137.7562 132.9208,137.0752 C131.0618,136.3652 129.2628,135.5212 127.5108,134.5782 C126.5788,134.0752 125.7458,135.4972 126.6798,136.0002 C129.4588,137.4962 132.4848,138.9482 135.5738,139.6682 C137.9918,140.2312 141.4728,140.0962 142.1288,137.1092 C142.7368,134.3472 140.9288,131.6332 139.3578,129.5402" id="Fill-53" fill="#231F20"></path>
                <path d="M160.0902,117.4259 C159.6702,120.0919 158.7292,123.1609 156.7662,125.1199 C155.6062,126.2789 153.6782,125.9299 152.1922,125.7059 C150.6472,125.4739 149.1332,125.0049 147.8482,124.0979 C143.3472,120.9189 142.7312,113.9759 142.1482,108.9819 C141.9142,106.9839 141.7912,104.9189 141.8372,102.8609 C142.0552,103.1299 142.3912,103.3019 142.8222,103.2019 C143.1332,103.1319 143.4382,103.0399 143.7452,102.9619 C143.9522,103.1249 144.2272,103.1949 144.5662,103.0639 C145.5382,102.6849 146.4962,102.2739 147.4522,101.8579 C147.4692,101.8519 147.4852,101.8479 147.5012,101.8419 C147.5312,101.8669 147.5672,101.8889 147.5982,101.9129 C147.6082,101.8719 147.6142,101.8319 147.6252,101.7899 L147.6252,101.7859 C147.9882,101.6259 148.3462,101.4519 148.7072,101.2879 C149.6432,103.6809 151.3502,105.7139 153.5472,107.0639 C154.6972,107.7699 155.9902,108.2949 157.3172,108.5499 C158.2512,108.7299 159.3052,108.8409 160.1012,108.4449 C160.1072,108.5019 160.1152,108.5599 160.1212,108.6159 C160.4152,111.5309 160.5472,114.5209 160.0902,117.4259 M143.2232,94.7109 C143.3502,94.0769 143.5572,93.4599 143.8552,92.8759 C144.1942,92.2119 144.6782,91.6539 145.2382,91.1819 C145.7232,91.3219 146.2812,91.1439 146.4212,90.5099 C146.8892,88.3839 149.4762,88.5639 151.0702,89.1419 C152.7272,89.7429 154.1272,90.9169 155.2402,92.2589 C155.8562,93.0009 156.3732,93.7999 156.8162,94.6399 C153.7022,96.6139 150.4522,98.3639 147.0822,99.8559 C146.7032,99.9889 146.3262,100.1299 145.9402,100.2429 C145.9422,100.2459 145.9442,100.2489 145.9452,100.2529 C144.7462,100.6449 143.5292,100.9909 142.2912,101.2749 C142.1252,101.3119 141.9952,101.3809 141.8892,101.4669 C142.0382,99.1459 142.4492,96.8599 143.2232,94.7109 M161.9542,110.9279 C161.8212,108.6369 161.5692,106.3199 161.1812,104.0359 C161.4182,103.8179 161.5692,103.5009 161.4852,103.0989 C160.4832,98.3539 159.3172,93.3199 155.7052,89.8179 C154.1042,88.2649 152.0492,87.0629 149.8112,86.7869 C148.4492,86.6189 147.0052,86.9429 145.9472,87.7429 C145.9812,87.6159 146.0112,87.4889 146.0472,87.3639 C145.9102,87.3879 145.7742,87.4449 145.6482,87.5769 C140.6452,92.8849 139.7042,100.4239 140.3372,107.4069 C140.6462,110.8179 141.0942,114.3199 142.0312,117.6199 C142.8072,120.3509 144.0582,123.1109 146.2852,124.9619 C148.7052,126.9739 152.4202,127.8739 155.5312,127.5089 C158.5602,127.1529 160.2342,123.2029 161.0292,120.6669 C162.0102,117.5369 162.1432,114.1799 161.9542,110.9279" id="Fill-55" fill="#231F20"></path>
            </g>
        </g>
    </g>
</svg>