<svg width="500" height="600" xmlns="http://www.w3.org/2000/svg" xmlns:xlink="http://www.w3.org/1999/xlink"><defs><path id="a" d="M0 .084h173.375v192.018H0z"/></defs><g fill="none" fill-rule="evenodd"><path d="M268.757 179.341c0 14.161-6.524 25.641-14.572 25.641-8.049 0-14.573-11.48-14.573-25.641 0-14.16 6.524-25.64 14.573-25.64 8.048 0 14.572 11.48 14.572 25.64m48.708-6.155c0 11.554-5.751 20.92-12.846 20.92-7.094 0-12.845-9.366-12.845-20.92 0-11.554 5.75-20.92 12.845-20.92 7.095 0 12.846 9.366 12.846 20.92" fill="#FEFEFE"/><path d="M273.094 248.037a5.2 5.2 0 00-.937-1.818 6.79 6.79 0 00-.168-.439c-.186-.425-.557-.643-.965-.706a9.037 9.037 0 00-.932-.657c-1.479-.908-3.162-1.534-4.764-2.185-.615-.25-1.283-.59-1.96-.684-.405-.455-1.166-.58-1.695-.349-.678.298-1.069 1.033-.869 1.77.056.205.092.41.138.614a4.736 4.736 0 00-.047.31c-.238 2.1-.097 4.22.254 6.296.06.358.294.64.594.83l.007.038-.015.001a5.046 5.046 0 003.44 3.642 4.827 4.827 0 002.706-.016c.57.52 1.573.621 2.136.02a7.17 7.17 0 001.284-1.943c.261-.05.517-.155.734-.36 1.178-1.11 1.48-2.84 1.06-4.364" fill="#E4C3A2"/><path d="M264.375 252.034c.41-.269.71-.7.65-1.21l-.634-5.249c-.041-.339-.08-.674-.132-1.004.085-.09.165-.189.235-.307.365-.617.25-1.426-.161-1.98a1.673 1.673 0 00-2.154-.473c-.01.005-.016.014-.025.02-.142-.036-.28-.078-.434-.097-.585-.072-1.355.514-1.447 1.102-.582 3.728-.057 7.443 1.572 10.852.349.732 1.395.923 2.052.538.748-.436.889-1.318.539-2.05-.022-.047-.04-.096-.061-.142" fill="#C3996B"/><path d="M315.413 173.757c.035.205.062.41.084.613a2.385 2.385 0 01.008.434c.042.288.025.582-.02.9a19.125 19.125 0 01-.774 3.254c-.004 2.41-.21 4.795-1.117 6.899.07.238.105.492.067.754-.16 1.094-.807 2.121-1.661 2.81-1.626 1.312-3.811 1.846-5.878 1.725-1.931-.114-4.123-.783-5.125-2.583a1.45 1.45 0 01-.134-.351c-2.2-1.487-4.031-3.555-4.187-6.203-.024-.4.108-.703.32-.914a16.378 16.378 0 01-.741-2.22c-1.053-4.262-1.047-8.899-.441-13.222.212-1.507.539-3.007.983-4.468.15-.621.333-1.23.558-1.819a1.77 1.77 0 01-.032-.357c.028-1.695.726-3.39 2.284-4.222.146-.078.297-.145.45-.209a17.15 17.15 0 011.108-1.327c1.2-1.299 2.895-.394 3.309.916.41-.15.793-.383 1.155-.663.13.04.26.081.388.126.047.018.093.038.14.055.095.283.186.565.29.846.188.013.377.045.56.072.127.017.248.05.366.097.269.108.557.213.802.374.303.179.544.421.724.724l.203.482c.04.151.054.301.06.452 1.99 1.295 3.425 3.534 3.953 5.855.063.082.13.161.173.26.468 1.102 1.027 2.238 1.515 3.396.318.973.618 1.951.883 2.939a.473.473 0 00.134.212c.278 1.441.24 2.9-.407 4.363m-46.534 4.736c-.155 2.717-.98 5.47-2.251 7.926.014.094.03.187.029.281-.003.412-.034.827-.075 1.239.334.474.473 1.084.299 1.67-.39 1.322-1.036 2.578-1.841 3.73-.093.2-.186.401-.286.598-1.05 2.072-2.802 4.306-5.212 4.79a2.341 2.341 0 01-.94-.005c-1.714.748-3.574 1.076-5.47.597a1.877 1.877 0 01-1.23-1.012c-2.945-.812-5.64-2.445-7.665-4.843-.622-.736-.752-1.664-.29-2.455-1.408-2.502-2.213-5.4-2.644-8.22-.966-2.765-1.126-5.675-.265-8.613.02-.066.045-.13.065-.196.316-2.84 1.02-5.631 2.225-8.164.458-.961 1.309-1.174 2.08-.94.2-.378.398-.756.588-1.135.228-.452.646-.746 1.117-.886.285-.502.599-.985.927-1.453a7.038 7.038 0 01.895-1.689c1.548-2.104 3.944-3.504 6.589-3.567a6.529 6.529 0 011.587.174c.47-.038.978-.085 1.126.128.085.123.177.219.265.329a7.124 7.124 0 012.4 1.841c.876.433 1.816.804 2.799 1.439.29.37.6.699.938.956a90.634 90.634 0 012.41 5.773c.05.024.106.041.152.069.49.287.722.699.927 1.205.582 1.437.714 3.051.769 4.588.053 1.445-.003 2.894.102 4.338.025.334-.061.637-.207.908.06.191.1.39.087.599m56.52 12.745a4.85 4.85 0 00-.211-1.25 27.267 27.267 0 00-.19-5.387c-.295-2.186-.418-5.323-2.195-6.875-.032-.028-.065-.047-.097-.073a60.48 60.48 0 00-1.883-6.371c-.292-.812-.783-1.396-1.37-1.786-.7-2.337-1.431-4.663-2.274-6.948a3.593 3.593 0 00-1.016-1.482c-.861-2.323-1.708-4.661-2.036-7.127-.314-2.354-.69-4.479-1.524-6.717-.025-.068-.063-.12-.091-.186.106-1.982.249-3.963.477-5.937a2.458 2.458 0 00-.016-.625c.125-.738.003-1.387-.291-1.929a38.321 38.321 0 011.623-3.143c.027-.04.057-.073.085-.112l1.625-2.373c3.283-4.792-3.411-9.324-7.42-6.325a4.872 4.872 0 00-.484.354c-2-.08-4.02.977-4.82 3.53l-.294.943c-.241.083-.48.193-.714.336-1.026-3.998-6.67-6.246-8.935-1.602l-.048.101c-1.881-.242-3.857.448-4.842 2.358a94.264 94.264 0 00-1.787 3.678 5.512 5.512 0 00-1.807.024c.439-2.435-.645-4.256-2.256-5.198-2.357-3.054-8.692-1.948-9.131 3.11-.022.265-.052.529-.076.795-.09-.163-.175-.328-.281-.483a81.533 81.533 0 00-.071-.52c-.344-2.514-3.872-4.363-6.151-3.492a59.631 59.631 0 00-3.013 1.252c-.524-3.123-3.681-5.629-7.228-3.537-.86.507-1.69 1.053-2.526 1.59-1.231-.057-2.504.34-3.582 1.371l-7.295 6.972c-.042-.013-.085-.021-.127-.032.513-4.962-6.412-6.865-9.355-2.774a94.326 94.326 0 00-3.432 5.133c-.446-2.73-3.507-4.068-6.112-3.6-2.427-.824-5.411.012-6.366 3.24-.435 1.47-.888 2.935-1.35 4.396-.13.171-.254.349-.367.546a140.44 140.44 0 01-5.373 8.682c-.108-.459-.212-.92-.32-1.379-1.358-5.749-9.434-4.063-9.822 1.328-.01.123-.011.246-.02.369-1.216.768-2.145 2.112-2.333 4.055-.225 2.336.182 4.806 1.13 6.9a58.346 58.346 0 002.729 8.744l.023.116.02-.009c.16.401.315.802.484 1.202.624 1.477 1.67 2.236 2.838 2.48.78 4.06 1.76 8.083 2.958 12.066a5.234 5.234 0 00-1.504.523c-.353.191-.707.384-1.067.561.066-.041-.02-.021-.167.026a6.709 6.709 0 00-.41-.307c-1.758-3.038-4.066-5.749-6.857-7.923-1.181-.918-2.587-1.454-3.96-1.398a5.383 5.383 0 00-1.13-.116c-2.526.01-4.561 1.193-5.696 3.465-1.318 2.639-.38 5.252.932 7.646.323 3.711 3.048 6.774 5.335 9.612 2.673 3.315 5.67 6.446 8.975 9.138 2.968 2.419 7.128 3.405 9.878.051 1.705-2.077 1.553-4.012.81-6.454l-.028-.093c.049.002.095.008.145.008.315 0 .61-.031.893-.076.46 4.884 2.668 9.689 5.187 14.176.515.919 1.18 1.545 1.913 1.935 1.406 2.211 3.424 3.66 5.619 5.396 1.175.929 2.324 1.982 3.637 2.712 1.113.618 2.623.799 3.345 1.355.715.553 1.579.767 2.458.735 8.112 4.006 17.188 6.507 25.548 9.436 2.479.868 5.45 2.331 8.236 2.505a27.34 27.34 0 001.835.869c.194.199.403.385.642.549 1.519 1.046 2.739 1.397 4.582 1.211.147-.016.285-.041.425-.067a25.05 25.05 0 004.288.391c.122.02.239.052.363.065 1.155.119 2.308.111 3.448.009.398.127.838.203 1.31.229l.396.078c1.33.264 2.652.199 3.853-.504.069-.04.134-.096.2-.141 5.596-1.642 9.46-6.529 12.622-11.526a5.137 5.137 0 00.7-1.687 60.927 60.927 0 004.403-5.805c.926-.152 1.858-.655 2.699-1.628.149-.172.288-.347.433-.52 2.063-.798 3.065-2.503 3.22-4.281l.063-.096a5.85 5.85 0 001.052-.856l1.745-1.78c.895-.912 1.344-1.904 1.46-2.873a33.797 33.797 0 003.3-7.44c.053-.133.12-.253.162-.394 1.222-4.149 1.907-8.344 2.184-12.656a4.386 4.386 0 00-.537-2.459" fill="#E4C3A2"/><path d="M302.347 238.657a1.123 1.123 0 00-.31-.482c-.286-.263-.661-.457-1.061-.44l-.4.054c-.252.071-.473.2-.661.386l-1.675 1.324c-.07.023-.14.03-.207.061l-3.81 1.846a2 2 0 00-1.086-.239 54.561 54.561 0 01-20.675-2.319 2.44 2.44 0 00-1.16-.086 622.715 622.715 0 01-25.797-9.987c-.23-.66-.732-1.232-1.585-1.502-10.8-3.418-22.376-10.52-23.545-22.92-.126-1.343-1.058-2.5-2.5-2.5a2.46 2.46 0 00-1.07.272c-.841-.525-1.951-.674-2.872-.328-.347.13-.632.297-.91.496-.042-.003-.083-.012-.124-.01-.435.02-.78.182-1.031.438-.34.145-.663.307-.953.49a5.048 5.048 0 00-1.592 1.55c-.36.557-.511 1.353-.754 1.815-.133.252-.001.032-.178.205.088-.086-.008-.038-.06 0-3.008-.475-5.464-2.89-7.535-4.976-2.468-2.487-4.761-5.278-5.524-8.78a1.43 1.43 0 00-.293-.618 7.663 7.663 0 01.553-3.263c.499-1.21 1.437-2.42 2.71-2.866a10.916 10.916 0 013.099 2.2c.685.7 1.564.5 2.092-.044.922-.13 1.794-1.148 1.24-2.256-1.132-2.265-3.677-3.292-6.078-3.012a3.858 3.858 0 00-1.094-1.07c-.242-.453-.673-.803-1.252-.819a11.608 11.608 0 00-2.191.168c-.992-.123-2-.044-3.002.395-.426.185-.774.43-1.09.698a1.476 1.476 0 00-.975-.114c-3.4.847-2.76 5.45-2.217 7.972a19.463 19.463 0 002.127 5.524c.482 1.33 1.148 2.62 1.835 3.783.264.45.737.644 1.219.666a93.633 93.633 0 003.225 4.598c.448.598 1.244.968 1.954.586 1.93 3.333 4.438 6.53 8.512 7.057.238.031.474.045.709.051.789.331 1.645.501 2.453.36.015.015.019.037.035.051.617.567 1.505.57 2.12 0 1.067-.986 1.765-2.192 2.258-3.494.73-.939 1.098-2.1.86-3.355.029-.179.044-.356.07-.535.017-.046.03-.093.048-.138.068-.145.153-.28.236-.417h.002c.055-.01.06-.012.055-.014.013 0 .028 0 .075-.003.136-.008.268-.004.405-.002h.038c0 .003.007.006.02.01.088.314.288.59.552.787.998 6.586 4.306 12.437 9.377 16.838 4.168 3.616 9.068 6.215 14.212 8.151.325.555.874.99 1.525 1.262a621.447 621.447 0 0030.339 11.81c.408.148.834.135 1.239.025 6.752 1.963 13.853 2.722 20.863 2.17.765-.06 1.464-.4 1.925-.946.113-.032.223-.074.324-.137l3-1.883a1.59 1.59 0 00.652-.804l.509-.246c.005-.003.009-.008.015-.01.222-.075.42-.188.589-.355l1.886-1.49c.146-.136.249-.297.31-.483.094-.178.137-.37.13-.578a1.139 1.139 0 00-.13-.578M252.05 131.35c-.89-.01-1.404.699-1.5 1.5-.532 4.459-2.854 8.872-6.533 11.52-3.838 2.766-8.846 3.494-13.267 1.79-.068-.026-.13-.038-.195-.053a1.55 1.55 0 00-.916-.332c-.142 0-.272.024-.396.058.006-.087.008-.173.011-.26 1.27-.408 1.594-2.511.002-2.858l-1.746-.381c-1.082-1.521-2.577-3.71-4.498-2.385-.42.29-.698.717-.909 1.188a1.27 1.27 0 00-.348.279c-.882 1.043-1.38 2.328-1.376 3.647a128.098 128.098 0 01-3.58 9.25c-.154.355-.17.719-.092 1.049-3.02 1.008-5.72 2.706-7.892 5.03a1.548 1.548 0 00-.398-.225c-1.08-.401-2.137-.42-3.259-.192a1.237 1.237 0 00-.318.114c-.17.005-.339.02-.509.039-.948-.413-2.226.147-2.136 1.289-.43.308-.66.83-.395 1.494l4.311 10.806.002.004.165.637 1.27 7.346c.122.704.793 1.066 1.457 1.066-.145.276-.29.554-.436.829-.903 1.705 1.686 3.223 2.59 1.514 1.89-3.568 3.616-7.13 4.06-11.192.37-3.364-.079-6.751-.658-10.081 1.446.048 2.898-.15 4.274-.621 2.364-.808 4.23-2.323 5.953-4.092 2.72-2.788 5.078-6.011 5.992-9.788 5.03 1.608 10.791.559 15.024-2.577 4.48-3.318 7.092-8.435 7.746-13.912.097-.812-.759-1.492-1.5-1.5" fill="#C3996B"/><path d="M243.303 231.176c-.224-.35-.513-.538-.896-.69l-4.019-1.595c-.244-.097-.579-.065-.86.025-.021-.03-.039-.06-.061-.09-1.342-1.695-3.333-2.535-5.213-3.48-1.893-.95-3.698-2.096-5.327-3.451a29.05 29.05 0 01-2.502-2.354c.136-.501-.018-1.047-.371-1.48-3.035-3.73-6.167-7.676-7.005-12.541-.138-.8-1.12-1.247-1.845-1.048-.845.232-1.186 1.044-1.048 1.846.39 2.265 1.243 4.354 2.347 6.322-.027.26.009.539.144.824a31.004 31.004 0 007.939 10.367c1.666 1.413 3.465 2.673 5.389 3.709 1.869 1.007 4.012 1.692 5.37 3.408.349.442.979.518 1.509.352.198.22.438.365.737.483 1.339.533 2.679 1.064 4.018 1.596.339.135.855.026 1.156-.151.311-.182.608-.54.689-.897.088-.384.069-.814-.151-1.155m-38.433-42.685c-1.466-1.974-3.702-3.77-6.314-3.575-2.492.186-4.818 2.118-4.822 4.736a1.38 1.38 0 00.034.31c-1.517 2.295-1.692 5.383-.44 7.85.365.723 1.382.93 2.051.538.735-.429.906-1.327.538-2.052-.012-.025-.099-.213-.118-.246a5.617 5.617 0 01-.295-1.068 7.558 7.558 0 01-.014-.088c.01.071-.017-.269-.019-.319a6.553 6.553 0 01.023-.887l.004-.038.025-.149c.06-.316.141-.627.246-.93.012-.034.09-.222.102-.26a5.399 5.399 0 01.612-1.031c.04-.04.155-.175.17-.19.1-.11.205-.214.314-.314 0 0 .194-.162.215-.186a4.81 4.81 0 01.332-.223c.13-.08.264-.155.4-.226.001 0 .203-.09.251-.115.27-.103.546-.189.827-.254.125-.029.251-.053.377-.073.048-.002.251-.024.288-.026.31-.019.612-.004.921.008.062.003.093.003.112.002a.958.958 0 00.098.024c.15.03.3.058.45.096.671.171.946.3 1.58.738.54.375 1.372.21 1.817-.235.434-.434.625-1.29.234-1.817" fill="#C3996B"/><path d="M271.143 167.95c-.397-1.7-.765-3.44-1.384-5.076-.582-1.536-1.605-2.887-2.144-4.422-.448-1.273-1.709-2.12-3.076-1.746-1.234.34-2.195 1.796-1.746 3.076.552 1.568 1.53 2.893 2.144 4.421.603 1.498.925 3.134 1.296 4.7.777 3.28 1.445 6.597 1.864 9.943.168 1.34 1.03 2.5 2.5 2.5 1.221 0 2.67-1.152 2.5-2.5a105.615 105.615 0 00-1.954-10.896m45.036 1.139l-.408-3.639a.509.509 0 00-.306-.414c-.001-.116-.018-.23-.013-.347.029-.644-.971-.643-1 0-.067 1.478.372 2.896.688 4.324.025.111.044.224.068.336l.476 4.248c.07.623.996.659 1 0 .008-1.518-.193-3.026-.505-4.508" fill="#E4C3A2"/><g transform="translate(154 64.916)"><mask id="b" fill="#fff"><use xlink:href="#a"/></mask><path d="M171.049 137.386a.837.837 0 00-.286.534c-1.23 9.625-8.335 17.037-15.078 23.519-.322-.088-.697-.02-.947.314-4.09 5.46-6.692 12.604-12.566 16.504-6.528 4.334-14.804 2.959-21.875.903-3.937-1.144-7.794-2.567-11.667-3.908-4.346-1.504-8.691-3.01-13.036-4.512-7.66-2.652-15.522-5.225-22.215-9.931-6.143-4.32-11.24-10.936-11.984-18.547-.012-.09-.017-.178-.033-.267a20.1 20.1 0 01-.071-1.615c-.001-.814-.968-.998-1.418-.56-.476.123-.876.642-.566 1.205.228.414.365.853.442 1.298.017.18.033.362.055.54.066 1.41-.515 2.845-1.505 3.882-.85.888-1.941 1.397-3.106 1.624a1.685 1.685 0 00-1.056-.3c-3.56.253-6.226-2.973-8.411-5.342a131.582 131.582 0 01-8.142-9.705 2.67 2.67 0 00-.757-.681c-.112-.192-.234-.38-.343-.574l-.018-.037c-.008-.016-.02-.027-.027-.041-1.352-2.4-2.45-4.921-2.93-7.651-.228-1.304-.25-2.676.005-3.99.126-.116.246-.248.35-.411 1.065-1.643 2.83-2.728 4.73-3.101a5.351 5.351 0 002.34-.09 6.86 6.86 0 011.169.244c1.846.559 3.612 1.945 5.09 3.154 1.605 1.31 2.955 2.773 3.809 4.678.34.76 1.274 1.069 2.077.938.28.064.556.072.819.03a.828.828 0 00.447-.125c.55-.22.995-.672 1.193-1.302a9.408 9.408 0 00.416-3.33l.174-.576c.1-.333-.066-.715-.356-.905-.205-1.08-.558-2.138-1.004-3.17a52.648 52.648 0 00-7.91-19.71l1.623.618c1.277.487 2.587 1.13 3.943 1.35 1.124.183 2.174-.078 2.99-.701.713.325 1.56.356 2.24-.108a19.136 19.136 0 004.288-4 6.88 6.88 0 001.066-1.5c.109-.207.18-.412.232-.613a24.114 24.114 0 002.532-5.464c2.69-2.391 3.512-6.292 3.442-9.953 2.77 3.319 6.847 5.473 11.174 5.948 5.598.617 10.992-2.023 14.365-6.452a16.372 16.372 0 002.254-4.074c.29-.516.567-1.038.83-1.567 2.22 3.676 5.74 6.636 9.99 7.535 5.062 1.07 10.177-1.314 12.687-5.846.544-.983.916-2.041 1.122-3.124.339 1.889.938 3.527 2.43 5.02.645.644 1.463 1.215 2.355 1.665 1.493 1.37 3.357 2.272 5.732 2.344 2.875.088 5.323-1.668 6.709-4.102 1.055-1.853 1.44-3.912 1.562-6.005 2.077 3.07 5.7 5.125 9.462 4.874 3.912-.261 7.294-2.787 8.952-6.208a8.14 8.14 0 002.623.892c.082.039.159.087.243.123-4.29 5.383-3.986 13.344-2.621 19.747 1.603 7.525 5.045 14.483 7.858 21.595 1.62 4.1 3.05 8.286 3.85 12.63.018.09.056.156.09.224a82.23 82.23 0 01.168 16.166m-53.166 51.449c-.763.768-1.981 1.147-3.007 1.404-1.097.274-2.36.403-3.418-.082-1.12-.513-1.593-1.711-2.352-2.603-.341-.4-.736-.691-1.167-.982-.656-.444-.587-.887-.608-1.636l-.243-8.401a436.517 436.517 0 0010.48 3.51.81.81 0 00.034.313c.473 1.46.8 2.959.92 4.49.098 1.258.338 3.006-.64 3.987M106.457 3.692a9.546 9.546 0 01-2.404 1.297c.755-.504 1.56-.94 2.404-1.297m30.339 69.749c.025-.028.049-.06.074-.087-1.056 1.387-2.542 2.344-4.325 2.428 1.603-.374 3.12-1.11 4.25-2.341m6.785-5.025a9.634 9.634 0 01-2.386-3.011 26.27 26.27 0 002.386 3.01m27.922 48.319c-3.512-12.924-11.906-24.714-11.645-38.433.073-3.86 1-7.871 3.623-10.796.434.053.873.067 1.307.026 3.369-.32 5.949-3.04 7.166-6.038 1.464-3.607 1.529-7.916 1.356-11.753-.124-2.762-.576-5.584-1.627-8.16-.382-1.36-1.1-2.578-2.028-3.6-1.643-2.178-3.862-3.93-6.45-4.768-.012-.033-.027-.065-.04-.098.44-2.15.737-4.482-.348-6.48a5.09 5.09 0 00-1.572-1.764c-.491-2-1.3-3.782-2.702-5.248a6.68 6.68 0 00-1.721-2.295 6.538 6.538 0 00-4.58-1.527 10.423 10.423 0 00-2.157-3.106c-3.241-3.241-9.393-4.51-13.33-1.72-.293.208-.588.422-.885.636-.741-2.75-2.68-5.016-5.165-6.425-.194-.154-.381-.316-.59-.457-2.072-1.411-4.778-1.98-7.205-1.386a10.98 10.98 0 00-1.88-1.472 4.362 4.362 0 00-1.93-1.321c-.81-.271-1.663-.337-2.52-.323-1.94-.302-3.963-.131-5.84.592-.186.03-.376.05-.562.085-3.481.642-7.015 2.145-9.405 4.714-1.454.018-2.847-.333-3.912-1.167-3.177-2.487-6.488-3.485-9.773-2.86-3.447.316-5.917 2.658-8.363 4.963l-2.668 2.174c-2.547-1.43-5.082-2.918-7.711-4.18-2.522-1.21-5.355-2.051-8.118-1.15-5.303 1.727-7.258 7.257-8.518 12.199-3.996-2.398-8.986-3.045-13.466-1.712-1.496.444-2.89 1.135-4.172 1.985a14.964 14.964 0 00-5.921 4.757c-2.416 3.254-3.415 7.167-2.954 10.913-.7.282-1.52.435-2.057.646-1.1.43-2.157.957-3.151 1.597a18.612 18.612 0 00-6.066 6.396 15.191 15.191 0 00-2.966 5.578c-1.464 5.099-.23 9.986 2.554 14.048-3.44.86-6.658 2.589-9.06 5.223a14.553 14.553 0 00-3.542 7.047c-1.483 3.949-.968 8.6 2.355 11.652.177.162.36.306.543.455C.435 86.027-.495 90.96.23 94.503c.717 3.505 2.887 6.61 5.862 8.523a10.177 10.177 0 00-1.226 1.74c-.016.023-.034.043-.05.066a5.07 5.07 0 00-.68 1.523c-1.725 4.716-.276 11.03 4.612 13.419 1.142.557 1.256.379 1.713 1.09 1.047 1.63 2.318 2.806 3.698 3.629-.98 1.13-1.472 2.71-1.077 4.489.01.049.024.096.035.144-.035.302-.073.604-.086.906-.168 3.836 1.48 7.412 3.387 10.639 2.076 3.518 4.169 7.153 6.593 10.444 2.184 2.963 5.117 5.625 8.909 6.119 3.022.392 6.276-1.052 7.638-3.764a11.34 11.34 0 002.129 1.439c1.008 1.422 2.52 2.627 3.736 3.57 2.249 1.748 4.837 3.122 7.634 3.73 5.099 1.113 10.772-.536 13.812-4.924a32.793 32.793 0 002.494 2.454c6.327 5.554 14.364 8.604 22.202 11.343 4.618 1.615 9.233 3.265 13.858 4.88l.239 8.242c.033 1.16-.131 2.514.836 3.353.387.336.86.546 1.219.915.397.407.682.903 1.012 1.363 1.384 1.93 3.4 2.525 5.7 2.17 1.986-.306 4.567-1.186 5.418-3.184.553-1.298.423-2.884.297-4.255a21.42 21.42 0 00-.752-3.955c6.785 2.029 14.36 3.41 21.03.474 7.306-3.215 10.429-10.8 14.696-17.038a.763.763 0 00.44-.208c6.736-6.43 13.869-13.577 16.232-22.785a.865.865 0 00.595-.726c.949-7.663.809-15.395-.363-23.026-.054-.348-.27-.518-.522-.568" fill="#231F20" mask="url(#b)"/></g><path d="M266.439 187.337c-.632 3.566-1.613 7.98-4.798 10.163-3.283 2.25-8.036 2.204-11.556.56-3.245-1.517-5.602-4.358-6.678-7.705a.843.843 0 00.032-.739c-1.44-3.399-2.941-6.956-3.11-10.693-.161-3.567 1.15-6.829 2.89-9.876 1.664-2.91 3.469-5.924 5.655-8.473.473-.55.984-1.078 1.524-1.57-.3 1.266-.292 2.651-.164 3.866.338 3.216 1.664 6.248 3.577 8.836a28.552 28.552 0 006.5 6.35c1.983 1.387 4.46 2.103 6.623 1.065a36.728 36.728 0 01-.495 8.216m2.023-10.063a39.43 39.43 0 00-3.98-13.894 15.973 15.973 0 00-1.701-3.61.829.829 0 00-.3-.28 16.8 16.8 0 00-.755-1.454c-.864-1.452-2.146-2.789-3.691-3.404a.72.72 0 00-.655-.354c-.2.002-.391.024-.586.037a4.704 4.704 0 00-1.72.103.745.745 0 00-.402.255c-4.461 1.237-7.633 5.244-10.108 9.08-3.277 5.077-6.55 10.346-5.75 16.644.374 2.934 1.399 5.71 2.524 8.43.002.015-.003.028-.001.044 1.4 8.53 10.488 14.19 18.745 11.221 4.198-1.509 6.167-5.14 7.264-9.244a38.603 38.603 0 001.116-13.574m24.896 17.182c-2.042-2.717-4.134-5.396-6.188-8.104-1.986-2.618-4.385-6.168-2.517-9.49.52-.925-.902-1.756-1.422-.83-1.658 2.947-.715 6.327.998 9.018 2.083 3.272 4.682 6.274 7.035 9.355 1.344 1.76 6.01 8 1.415 8.763-1.946.323-3.975-.496-5.758-1.177a46.191 46.191 0 01-5.41-2.497c-.932-.503-1.765.92-.83 1.422 2.778 1.496 5.804 2.948 8.892 3.668 2.419.563 5.9.428 6.556-2.559.608-2.762-1.2-5.476-2.771-7.569m-42.629-44.978c-5.253 1.319-10.04 4.29-13.533 8.433-.68.804.48 1.975 1.164 1.164a24.622 24.622 0 0112.807-8.01c1.027-.258.592-1.846-.438-1.587m59.051.664c-4.072-3.508-9.534-4.211-14.705-4.562-1.057-.072-1.053 1.576 0 1.647 4.689.317 9.835.889 13.54 4.079.8.689 1.97-.471 1.165-1.164m4.31 32.2c-.42 2.666-1.36 5.735-3.324 7.694-1.16 1.158-3.088.81-4.575.586-1.544-.231-3.058-.701-4.343-1.608-4.5-3.18-5.117-10.122-5.7-15.116-.563-4.82-.549-10.031 1.176-14.577.755 3.617 2.681 7.058 6.123 8.703 3.014 1.439 7.433 1.328 9.662-1.275.496 2.233.784 4.519 1.013 6.783.293 2.915.426 5.905-.032 8.81m1.865-6.498c-.198-3.408-.623-6.887-1.418-10.208a29.424 29.424 0 00-.307-1.157.694.694 0 00-.11-.384c-.933-3.118-2.444-6.11-4.939-8.255a12.806 12.806 0 00-3.574-2.188c-.129-.102-.256-.207-.389-.305-1.025-.75-2.268-1.522-3.593-1.374a2.696 2.696 0 00-1.08.368.71.71 0 00-.897.152c-5.004 5.308-5.943 12.847-5.31 19.83.308 3.41.756 6.913 1.693 10.213.775 2.732 2.027 5.492 4.254 7.342 2.42 2.012 6.135 2.912 9.247 2.547 3.028-.356 4.702-4.306 5.497-6.842.981-3.13 1.114-6.487.926-9.74m-22.725 42.285c-.262-.81-1.076-1.318-1.92-1.09l-8.642 2.318c-.789.21-1.349 1.122-1.09 1.92.262.811 1.075 1.32 1.922 1.091 2.88-.77 5.76-1.545 8.64-2.317.788-.212 1.35-1.122 1.09-1.922" fill="#231F20"/></g></svg>