<?xml version="1.0" encoding="UTF-8"?>
<svg width="500px" height="600px" viewBox="0 0 500 600" version="1.1" xmlns="http://www.w3.org/2000/svg" xmlns:xlink="http://www.w3.org/1999/xlink">
    <title>hmmlookingup</title>
    <defs>
        <polygon id="path-1" points="5.81164294e-05 0.084 173.37508 0.084 173.37508 192.102015 5.81164294e-05 192.102015"></polygon>
    </defs>
    <g id="hmmlookingup" stroke="none" stroke-width="1" fill="none" fill-rule="evenodd">
        <g id="face" transform="translate(154.000000, 64.000000)">
            <g id="fill" transform="translate(32.340387, 61.628564)">
                <path d="M82.4167126,53.7124363 C82.4167126,67.8734363 75.8927126,79.3534363 67.8447126,79.3534363 C59.7957126,79.3534363 53.2717126,67.8734363 53.2717126,53.7124363 C53.2717126,39.5524363 59.7957126,28.0724363 67.8447126,28.0724363 C75.8927126,28.0724363 82.4167126,39.5524363 82.4167126,53.7124363" id="Fill-1" fill="#FEFEFE"></path>
                <path d="M131.124213,47.5571363 C131.124213,59.1111363 125.373213,68.4771363 118.278213,68.4771363 C111.184213,68.4771363 105.433213,59.1111363 105.433213,47.5571363 C105.433213,36.0031363 111.184213,26.6371363 118.278213,26.6371363 C125.373213,26.6371363 131.124213,36.0031363 131.124213,47.5571363" id="Fill-3" fill="#FEFEFE"></path>
                <path d="M86.7541126,122.408636 C86.5671126,121.729636 86.2361126,121.128636 85.8171126,120.590636 C85.7651126,120.444636 85.7131126,120.298636 85.6491126,120.151636 C85.4631126,119.726636 85.0921126,119.508636 84.6841126,119.445636 C84.3881126,119.207636 84.0761126,118.987636 83.7521126,118.788636 C82.2731126,117.880636 80.5901126,117.254636 78.9881126,116.603636 C78.3731126,116.353636 77.7051126,116.013636 77.0271126,115.919636 C76.6231126,115.464636 75.8621126,115.338636 75.3331126,115.570636 C74.6551126,115.868636 74.2641126,116.603636 74.4641126,117.340636 C74.5201126,117.545636 74.5561126,117.750636 74.6021126,117.954636 C74.5841126,118.057636 74.5661126,118.161636 74.5551126,118.264636 C74.3171126,120.363636 74.4581126,122.484636 74.8091126,124.560636 C74.8691126,124.918636 75.1031126,125.199636 75.4031126,125.389636 C75.4061126,125.402636 75.4071126,125.415636 75.4101126,125.428636 C75.4051126,125.429636 75.4001126,125.429636 75.3951126,125.429636 C75.7951126,127.146636 77.1441126,128.572636 78.8351126,129.071636 C79.7201126,129.332636 80.6631126,129.310636 81.5411126,129.055636 C82.1111126,129.574636 83.1141126,129.676636 83.6771126,129.075636 C84.2161126,128.501636 84.6391126,127.838636 84.9611126,127.132636 C85.2221126,127.081636 85.4781126,126.977636 85.6951126,126.772636 C86.8731126,125.661636 87.1741126,123.932636 86.7541126,122.408636" id="Fill-5" fill="#E4C3A2"></path>
                <path d="M78.0344126,126.405736 C78.4444126,126.136736 78.7454126,125.704736 78.6844126,125.194736 C78.4724126,123.445736 78.2624126,121.695736 78.0504126,119.946736 C78.0094126,119.607736 77.9704126,119.272736 77.9184126,118.942736 C78.0034126,118.852736 78.0834126,118.753736 78.1534126,118.635736 C78.5184126,118.018736 78.4034126,117.209736 77.9924126,116.654736 C77.4974126,115.985736 76.5754126,115.772736 75.8384126,116.182736 C75.8284126,116.187736 75.8224126,116.196736 75.8134126,116.201736 C75.6714126,116.166736 75.5334126,116.124736 75.3794126,116.105736 C74.7944126,116.033736 74.0244126,116.619736 73.9324126,117.207736 C73.3504126,120.935736 73.8754126,124.650736 75.5044126,128.059736 C75.8534126,128.791736 76.8994126,128.982736 77.5564126,128.597736 C78.3044126,128.161736 78.4454126,127.279736 78.0954126,126.546736 C78.0734126,126.500736 78.0554126,126.451736 78.0344126,126.405736" id="Fill-7" fill="#C3996B"></path>
                <path d="M129.072513,48.1284363 C129.107513,48.3334363 129.134513,48.5384363 129.156513,48.7414363 C129.171513,48.8784363 129.175513,49.0174363 129.166513,49.1554363 C129.165513,49.1614363 129.164513,49.1684363 129.164513,49.1754363 C129.206513,49.4634363 129.189513,49.7574363 129.145513,50.0754363 C128.989513,51.1894363 128.714513,52.2694363 128.370513,53.3294363 C128.366513,55.7394363 128.161513,58.1244363 127.253513,60.2284363 C127.324513,60.4664363 127.358513,60.7204363 127.320513,60.9824363 C127.160513,62.0764363 126.513513,63.1034363 125.659513,63.7924363 C124.033513,65.1044363 121.848513,65.6384363 119.781513,65.5174363 C117.850513,65.4034363 115.658513,64.7344363 114.656513,62.9344363 C114.591513,62.8164363 114.551513,62.6984363 114.522513,62.5834363 C112.322513,61.0964363 110.491513,59.0284363 110.335513,56.3804363 C110.311513,55.9804363 110.443513,55.6774363 110.655513,55.4664363 C110.356513,54.7324363 110.098513,53.9884363 109.914513,53.2464363 C108.861513,48.9844363 108.867513,44.3474363 109.473513,40.0244363 C109.685513,38.5174363 110.012513,37.0174363 110.456513,35.5564363 C110.606513,34.9354363 110.789513,34.3264363 111.014513,33.7374363 C110.992513,33.6204363 110.980513,33.5014363 110.982513,33.3804363 C111.010513,31.6854363 111.708513,29.9904363 113.266513,29.1584363 C113.412513,29.0804363 113.563513,29.0134363 113.716513,28.9494363 C114.061513,28.4914363 114.430513,28.0484363 114.824513,27.6224363 C116.024513,26.3234363 117.719513,27.2284363 118.133513,28.5384363 C118.543513,28.3884363 118.926513,28.1554363 119.288513,27.8754363 C119.418513,27.9154363 119.548513,27.9564363 119.676513,28.0014363 C119.723513,28.0194363 119.769513,28.0394363 119.817513,28.0564363 C119.911513,28.3394363 120.002513,28.6214363 120.106513,28.9024363 C120.294513,28.9154363 120.483513,28.9474363 120.667513,28.9744363 C120.793513,28.9914363 120.914513,29.0244363 121.032513,29.0714363 C121.301513,29.1794363 121.589513,29.2844363 121.834513,29.4454363 C122.137513,29.6244363 122.378513,29.8664363 122.558513,30.1694363 C122.626513,30.3294363 122.694513,30.4904363 122.761513,30.6514363 C122.801513,30.8024363 122.815513,30.9524363 122.822513,31.1034363 C124.812513,32.3984363 126.246513,34.6374363 126.774513,36.9584363 C126.837513,37.0404363 126.905513,37.1194363 126.947513,37.2184363 C127.415513,38.3204363 127.974513,39.4564363 128.462513,40.6144363 C128.780513,41.5874363 129.080513,42.5654363 129.345513,43.5534363 C129.368513,43.6384363 129.419513,43.7064363 129.479513,43.7654363 C129.757513,45.2064363 129.720513,46.6654363 129.072513,48.1284363 M82.5385126,52.8644363 C82.3835126,55.5814363 81.5595126,58.3344363 80.2875126,60.7904363 C80.3015126,60.8844363 80.3175126,60.9774363 80.3165126,61.0714363 C80.3135126,61.4834363 80.2825126,61.8984363 80.2415126,62.3104363 C80.5755126,62.7844363 80.7145126,63.3944363 80.5405126,63.9804363 C80.1505126,65.3024363 79.5045126,66.5584363 78.6995126,67.7104363 C78.6065126,67.9104363 78.5135126,68.1114363 78.4135126,68.3084363 C77.3645126,70.3804363 75.6115126,72.6144363 73.2015126,73.0984363 C72.8835126,73.1614363 72.5635126,73.1574363 72.2615126,73.0934363 C70.5475126,73.8414363 68.6875126,74.1694363 66.7915126,73.6904363 C66.2205126,73.5474363 65.8015126,73.1614363 65.5615126,72.6784363 C62.6165126,71.8664363 59.9215126,70.2334363 57.8965126,67.8354363 C57.2745126,67.0994363 57.1445126,66.1714363 57.6075126,65.3804363 C56.1985126,62.8784363 55.3935126,59.9804363 54.9625126,57.1604363 C53.9965126,54.3954363 53.8365126,51.4854363 54.6975126,48.5474363 C54.7175126,48.4814363 54.7425126,48.4174363 54.7625126,48.3514363 C55.0785126,45.5114363 55.7825126,42.7204363 56.9875126,40.1874363 C57.4455126,39.2264363 58.2965126,39.0134363 59.0675126,39.2474363 C59.2675126,38.8694363 59.4655126,38.4914363 59.6555126,38.1124363 C59.8835126,37.6604363 60.3015126,37.3664363 60.7725126,37.2264363 C61.0575126,36.7244363 61.3715126,36.2414363 61.6995126,35.7734363 C61.9255126,35.1774363 62.2115126,34.6054363 62.5945126,34.0844363 C64.1425126,31.9804363 66.5385126,30.5804363 69.1835126,30.5174363 C69.7285126,30.5054363 70.2565126,30.5754363 70.7705126,30.6914363 C71.2405126,30.6534363 71.7485126,30.6064363 71.8965126,30.8194363 C71.9815126,30.9424363 72.0735126,31.0384363 72.1615126,31.1484363 C73.0805126,31.5764363 73.8965126,32.2094363 74.5625126,32.9894363 C75.4375126,33.4224363 76.3775126,33.7934363 77.3605126,34.4284363 C77.6505126,34.7984363 77.9605126,35.1274363 78.2985126,35.3844363 C79.1775126,37.2824363 79.9665126,39.2114363 80.7095126,41.1574363 C80.7595126,41.1814363 80.8145126,41.1984363 80.8605126,41.2264363 C81.3505126,41.5134363 81.5825126,41.9254363 81.7875126,42.4314363 C82.3695126,43.8684363 82.5015126,45.4824363 82.5565126,47.0194363 C82.6095126,48.4644363 82.5535126,49.9134363 82.6585126,51.3574363 C82.6835126,51.6914363 82.5975126,51.9944363 82.4515126,52.2654363 C82.5125126,52.4564363 82.5515126,52.6554363 82.5385126,52.8644363 M139.058513,65.6094363 C139.046513,65.1654363 138.963513,64.7534363 138.847513,64.3594363 C138.956513,62.5744363 138.906513,60.8064363 138.657513,58.9724363 C138.362513,56.7864363 138.239513,53.6494363 136.462513,52.0974363 C136.430513,52.0694363 136.397513,52.0504363 136.365513,52.0244363 C135.851513,49.8724363 135.233513,47.7484363 134.482513,45.6534363 C134.190513,44.8414363 133.699513,44.2574363 133.113513,43.8674363 C132.413513,41.5304363 131.681513,39.2044363 130.838513,36.9194363 C130.605513,36.2884363 130.245513,35.8084363 129.822513,35.4374363 C128.961513,33.1144363 128.114513,30.7764363 127.786513,28.3104363 C127.472513,25.9564363 127.096513,23.8314363 126.262513,21.5934363 C126.237513,21.5254363 126.199513,21.4734363 126.171513,21.4074363 C126.277513,19.4254363 126.420513,17.4444363 126.648513,15.4704363 C126.672513,15.2574363 126.661513,15.0494363 126.632513,14.8454363 C126.757513,14.1074363 126.635513,13.4584363 126.341513,12.9164363 C126.836513,11.8524363 127.364513,10.8034363 127.964513,9.77343633 C127.991513,9.73343633 128.021513,9.70043633 128.049513,9.66143633 C128.591513,8.87043633 129.132513,8.07943633 129.674513,7.28843633 C132.957513,2.49643633 126.263513,-2.03556367 122.255513,0.963436335 C122.089513,1.06943633 121.927513,1.18743633 121.770513,1.31743633 C119.771513,1.23743633 117.750513,2.29443633 116.951513,4.84743633 L116.656513,5.79043633 C116.415513,5.87343633 116.176513,5.98343633 115.942513,6.12643633 C114.916513,2.12843633 109.273513,-0.119563665 107.007513,4.52443633 C106.990513,4.55843633 106.975513,4.59243633 106.959513,4.62543633 C105.078513,4.38343633 103.102513,5.07343633 102.117513,6.98343633 C101.490513,8.19943633 100.900513,9.42743633 100.330513,10.6614363 C99.7385126,10.5714363 99.1275126,10.5764363 98.5235126,10.6854363 C98.9625126,8.25043633 97.8785126,6.42943633 96.2675126,5.48743633 C93.9105126,2.43343633 87.5755126,3.53943633 87.1365126,8.59743633 C87.1145126,8.86243633 87.0845126,9.12643633 87.0605126,9.39243633 C86.9705126,9.22943633 86.8855126,9.06443633 86.7795126,8.90943633 C86.7565126,8.73543633 86.7325126,8.56243633 86.7085126,8.38943633 C86.3645126,5.87543633 82.8365126,4.02643633 80.5575126,4.89743633 C79.5295126,5.28943633 78.5305126,5.71043633 77.5445126,6.14943633 C77.0205126,3.02643633 73.8635126,0.520436335 70.3165126,2.61243633 C69.4575126,3.11943633 68.6265126,3.66543633 67.7905126,4.20243633 C66.5595126,4.14543633 65.2865126,4.54243633 64.2085126,5.57343633 L56.9135126,12.5454363 C56.8715126,12.5324363 56.8285126,12.5244363 56.7865126,12.5134363 C57.2995126,7.55143633 50.3745126,5.64843633 47.4315126,9.73943633 C46.2235126,11.4194363 45.0855126,13.1324363 43.9995126,14.8724363 C43.5535126,12.1424363 40.4925126,10.8044363 37.8875126,11.2724363 C35.4605126,10.4484363 32.4765126,11.2844363 31.5215126,14.5124363 C31.0865126,15.9824363 30.6335126,17.4474363 30.1715126,18.9084363 C30.0415126,19.0794363 29.9175126,19.2574363 29.8045126,19.4544363 C28.1115126,22.4094363 26.3345126,25.3124363 24.4315126,28.1364363 C24.3235126,27.6774363 24.2195126,27.2164363 24.1115126,26.7574363 C22.7535126,21.0084363 14.6775126,22.6944363 14.2895126,28.0854363 C14.2805126,28.2084363 14.2785126,28.3314363 14.2705126,28.4544363 C13.0535126,29.2224363 12.1245126,30.5664363 11.9365126,32.5094363 C11.7115126,34.8454363 12.1185126,37.3154363 13.0665126,39.4094363 C13.7365126,42.3724363 14.6435126,45.2574363 15.7955126,48.1534363 C15.8035126,48.1924363 15.8105126,48.2304363 15.8185126,48.2694363 C15.8245126,48.2664363 15.8315126,48.2634363 15.8385126,48.2604363 C15.9985126,48.6614363 16.1535126,49.0624363 16.3225126,49.4624363 C16.9465126,50.9394363 17.9935126,51.6984363 19.1605126,51.9424363 C19.9415126,56.0024363 20.9205126,60.0254363 22.1185126,64.0084363 C21.6115126,64.1074363 21.1045126,64.2664363 20.6145126,64.5314363 C20.2615126,64.7224363 19.9075126,64.9154363 19.5475126,65.0924363 C19.6135126,65.0514363 19.5285126,65.0714363 19.3805126,65.1184363 C19.2475126,65.0114363 19.1115126,64.9074363 18.9715126,64.8114363 C17.2125126,61.7734363 14.9045126,59.0624363 12.1135126,56.8884363 C10.9325126,55.9704363 9.52651259,55.4344363 8.15351259,55.4904363 C7.80151259,55.4174363 7.42851259,55.3724363 7.02451259,55.3744363 C4.49751259,55.3844363 2.46251259,56.5674363 1.32751259,58.8394363 C0.00951258704,61.4784363 0.947512587,64.0914363 2.25951259,66.4854363 C2.58251259,70.1964363 5.30751259,73.2594363 7.59451259,76.0974363 C10.2675126,79.4124363 13.2645126,82.5434363 16.5695126,85.2354363 C19.5375126,87.6544363 23.6975126,88.6404363 26.4475126,85.2864363 C28.1525126,83.2094363 28.0005126,81.2744363 27.2585126,78.8324363 C27.2485126,78.8014363 27.2395126,78.7714363 27.2295126,78.7394363 C27.2785126,78.7414363 27.3245126,78.7474363 27.3745126,78.7474363 C27.6895126,78.7474363 27.9845126,78.7164363 28.2675126,78.6714363 C28.7275126,83.5554363 30.9355126,88.3604363 33.4545126,92.8474363 C33.9695126,93.7664363 34.6345126,94.3924363 35.3675126,94.7824363 C36.7735126,96.9934363 38.7915126,98.4424363 40.9865126,100.178436 C42.1615126,101.107436 43.3105126,102.160436 44.6235126,102.890436 C45.7365126,103.508436 47.2465126,103.689436 47.9685126,104.245436 C48.6835126,104.798436 49.5475126,105.012436 50.4265126,104.980436 C58.5385126,108.986436 67.6145126,111.487436 75.9745126,114.416436 C78.4535126,115.284436 81.4245126,116.747436 84.2105126,116.921436 C84.8155126,117.234436 85.4265126,117.526436 86.0455126,117.790436 C86.2395126,117.989436 86.4485126,118.175436 86.6875126,118.339436 C88.2065126,119.385436 89.4265126,119.736436 91.2695126,119.550436 C91.4165126,119.534436 91.5545126,119.509436 91.6945126,119.483436 C93.1105126,119.736436 94.5425126,119.867436 95.9825126,119.874436 C96.1045126,119.894436 96.2215126,119.926436 96.3455126,119.939436 C97.5005126,120.058436 98.6535126,120.050436 99.7935126,119.948436 C100.191513,120.075436 100.631513,120.151436 101.103513,120.177436 C101.235513,120.202436 101.367513,120.229436 101.499513,120.255436 C102.830513,120.519436 104.151513,120.454436 105.352513,119.751436 C105.421513,119.711436 105.486513,119.655436 105.553513,119.610436 C111.148513,117.968436 115.012513,113.081436 118.174513,108.084436 C118.535513,107.513436 118.759513,106.946436 118.875513,106.397436 C120.470513,104.538436 121.933513,102.601436 123.277513,100.592436 C124.203513,100.440436 125.135513,99.9374363 125.976513,98.9644363 C126.125513,98.7924363 126.264513,98.6174363 126.409513,98.4444363 C128.472513,97.6464363 129.474513,95.9414363 129.629513,94.1634363 C129.650513,94.1324363 129.671513,94.1004363 129.692513,94.0674363 C130.049513,93.8404363 130.401513,93.5624363 130.744513,93.2114363 L132.489513,91.4314363 C133.384513,90.5194363 133.833513,89.5274363 133.949513,88.5584363 C135.337513,86.2184363 136.445513,83.7614363 137.250513,81.1184363 C137.302513,80.9854363 137.369513,80.8654363 137.411513,80.7244363 C138.633513,76.5754363 139.318513,72.3804363 139.595513,68.0684363 C139.656513,67.1104363 139.440513,66.2964363 139.058513,65.6094363" id="Fill-9" fill="#E4C3A2"></path>
                <path d="M116.006513,113.028836 C115.945513,112.842836 115.842513,112.681836 115.696513,112.546836 C115.410513,112.283836 115.035513,112.089836 114.635513,112.106836 C114.502513,112.124836 114.369513,112.142836 114.236513,112.160836 C113.983513,112.231836 113.762513,112.360836 113.574513,112.546836 L111.899513,113.870836 C111.830513,113.893836 111.760513,113.899836 111.692513,113.931836 L107.883513,115.777836 C107.551513,115.605836 107.185513,115.507836 106.796513,115.538836 C99.7895126,116.090836 92.8295126,115.319836 86.1215126,113.219836 C85.6975126,113.087836 85.3115126,113.072836 84.9615126,113.133836 C76.2885126,109.997836 67.6895126,106.664836 59.1645126,103.146836 C58.9345126,102.486836 58.4325126,101.914836 57.5795126,101.644836 C46.7805126,98.2268363 35.2035126,91.1248363 34.0345126,78.7248363 C33.9085126,77.3818363 32.9765126,76.2248363 31.5345126,76.2248363 C31.1735126,76.2248363 30.8075126,76.3288363 30.4645126,76.4968363 C29.6235126,75.9718363 28.5135126,75.8228363 27.5925126,76.1688363 C27.2455126,76.2988363 26.9605126,76.4658363 26.6825126,76.6648363 C26.6405126,76.6618363 26.5995126,76.6528363 26.5585126,76.6548363 C26.1235126,76.6748363 25.7785126,76.8368363 25.5275126,77.0928363 C25.1875126,77.2378363 24.8645126,77.3998363 24.5745126,77.5818363 C23.9355126,77.9808363 23.3905126,78.4978363 22.9825126,79.1328363 C22.6225126,79.6898363 22.4715126,80.4858363 22.2285126,80.9478363 C22.0955126,81.1998363 22.2275126,80.9798363 22.0505126,81.1528363 C22.1385126,81.0668363 22.0425126,81.1148363 21.9915126,81.1518363 C18.9825126,80.6778363 16.5265126,78.2628363 14.4555126,76.1768363 C11.9875126,73.6898363 9.69451259,70.8988363 8.93151259,67.3968363 C8.87551259,67.1418363 8.77151259,66.9388363 8.63851259,66.7788363 C8.59351259,65.6828363 8.75251259,64.5828363 9.19151259,63.5158363 C9.69051259,62.3048363 10.6285126,61.0948363 11.9025126,60.6498363 C13.0415126,61.1938363 14.0965126,61.9278363 15.0005126,62.8498363 C15.6855126,63.5488363 16.5645126,63.3498363 17.0925126,62.8058363 C18.0145126,62.6748363 18.8865126,61.6578363 18.3335126,60.5498363 C17.2005126,58.2848363 14.6555126,57.2578363 12.2545126,57.5378363 C11.9575126,57.1018363 11.5895126,56.7458363 11.1605126,56.4668363 C10.9185126,56.0148363 10.4875126,55.6648363 9.90851259,55.6488363 C9.16051259,55.6278363 8.43451259,55.7008363 7.71751259,55.8168363 C6.72551259,55.6938363 5.71851259,55.7728363 4.71551259,56.2118363 C4.28951259,56.3968363 3.94151259,56.6418363 3.62651259,56.9098363 C3.32451259,56.7708363 2.98651259,56.7128363 2.65051259,56.7958363 C-0.748487413,57.6428363 -0.108487413,62.2448363 0.433512587,64.7678363 C0.851512587,66.7158363 1.58351259,68.5718363 2.56051259,70.2918363 C3.04251259,71.6218363 3.70851259,72.9108363 4.39551259,74.0748363 C4.65951259,74.5238363 5.13251259,74.7188363 5.61451259,74.7408363 C6.64351259,76.3038363 7.71751259,77.8388363 8.83951259,79.3388363 C9.28751259,79.9368363 10.0835126,80.3068363 10.7935126,79.9248363 C12.7235126,83.2578363 15.2315126,86.4548363 19.3055126,86.9818363 C19.5435126,87.0128363 19.7795126,87.0268363 20.0145126,87.0328363 C20.8035126,87.3638363 21.6595126,87.5338363 22.4675126,87.3928363 C22.4825126,87.4078363 22.4865126,87.4298363 22.5025126,87.4438363 C23.1195126,88.0108363 24.0075126,88.0138363 24.6235126,87.4438363 C25.6895126,86.4578363 26.3875126,85.2518363 26.8805126,83.9498363 C27.6115126,83.0108363 27.9785126,81.8498363 27.7405126,80.5948363 C27.7695126,80.4158363 27.7845126,80.2388363 27.8105126,80.0598363 C27.8275126,80.0138363 27.8405126,79.9668363 27.8585126,79.9218363 C27.9265126,79.7768363 28.0115126,79.6408363 28.0945126,79.5048363 L28.0965126,79.5048363 C28.1515126,79.4948363 28.1565126,79.4928363 28.1515126,79.4908363 C28.1645126,79.4908363 28.1795126,79.4908363 28.2265126,79.4878363 C28.3625126,79.4798363 28.4945126,79.4838363 28.6315126,79.4858363 L28.6695126,79.4858363 C28.6695126,79.4888363 28.6765126,79.4918363 28.6895126,79.4958363 C28.7775126,79.8098363 28.9775126,80.0858363 29.2415126,80.2828363 C30.2395126,86.8688363 33.5475126,92.7198363 38.6185126,97.1208363 C42.7865126,100.736836 47.6865126,103.335836 52.8305126,105.271836 C53.1555126,105.826836 53.7045126,106.260836 54.3555126,106.533836 C64.3635126,110.734836 74.4805126,114.672836 84.6945126,118.343836 C85.1025126,118.491836 85.5285126,118.478836 85.9335126,118.368836 C92.6855126,120.331836 99.7865126,121.090836 106.796513,120.538836 C107.561513,120.478836 108.260513,120.137836 108.721513,119.592836 C108.834513,119.560836 108.944513,119.518836 109.045513,119.455836 L112.045513,117.572836 C112.342513,117.384836 112.579513,117.101836 112.697513,116.768836 C112.867513,116.686836 113.036513,116.604836 113.206513,116.522836 C113.211513,116.519836 113.215513,116.514836 113.221513,116.512836 C113.443513,116.437836 113.642513,116.324836 113.810513,116.157836 L115.696513,114.667836 C115.842513,114.531836 115.945513,114.370836 116.006513,114.184836 C116.100513,114.006836 116.143513,113.813836 116.136454,113.606836 C116.143513,113.400836 116.100513,113.207836 116.006513,113.028836" id="Fill-11" fill="#C3996B"></path>
                <path d="M65.7097126,5.72103181 C64.8197126,5.71113633 64.3057126,6.42013633 64.2097126,7.22113633 C63.6777126,11.6801363 61.3557126,16.0931363 57.6767126,18.7421363 C53.8387126,21.5071363 48.8307126,22.2351363 44.4097126,20.5311363 C44.3417126,20.5051363 44.2787126,20.4931363 44.2147126,20.4781363 C43.9457126,20.2741363 43.6197126,20.1461363 43.2987126,20.1461363 C43.1567126,20.1461363 43.0267126,20.1701363 42.9027126,20.2041363 C42.9087126,20.1171363 42.9107126,20.0311363 42.9137126,19.9441363 C44.1827126,19.5361363 44.5077126,17.4331363 42.9157126,17.0861363 L41.1697126,16.7051363 C40.0877126,15.1841363 38.5927126,12.9961363 36.6717126,14.3201363 C36.2517126,14.6101363 35.9737126,15.0371363 35.7627126,15.5081363 C35.6397126,15.5791363 35.5197126,15.6631363 35.4147126,15.7871363 C34.5327126,16.8301363 34.0337126,18.1151363 34.0387126,19.4341363 C32.9627126,22.5611363 31.7737126,25.6491363 30.4587126,28.6841363 C30.3047126,29.0391363 30.2887126,29.4031363 30.3667126,29.7331363 C27.3457126,30.7411363 24.6467126,32.4391363 22.4747126,34.7631363 C22.3537126,34.6701363 22.2207126,34.5921363 22.0767126,34.5381363 C20.9957126,34.1371363 19.9397126,34.1191363 18.8177126,34.3461363 C18.7017126,34.3701363 18.5967126,34.4101363 18.4997126,34.4601363 C18.3297126,34.4651363 18.1607126,34.4811363 17.9907126,34.4991363 C17.0427126,34.0861363 15.7647126,34.6461363 15.8547126,35.7881363 C15.4247126,36.0961363 15.1947126,36.6181363 15.4597126,37.2821363 L19.7707126,48.0881363 C19.7717126,48.0901363 19.7717126,48.0911363 19.7727126,48.0921363 C19.8277126,48.3051363 19.8837126,48.5171363 19.9377126,48.7291363 C20.3607126,51.1781363 20.7847126,53.6261363 21.2077126,56.0751363 C21.3297126,56.7791363 22.0007126,57.1411363 22.6647126,57.1411363 C22.5197126,57.4171363 22.3747126,57.6951363 22.2287126,57.9701363 C21.3257126,59.6751363 23.9147126,61.1931363 24.8187126,59.4841363 C26.7087126,55.9161363 28.4347126,52.3551363 28.8787126,48.2921363 C29.2477126,44.9281363 28.7997126,41.5411363 28.2207126,38.2111363 C29.6667126,38.2591363 31.1187126,38.0611363 32.4947126,37.5901363 C34.8587126,36.7821363 36.7237126,35.2671363 38.4477126,33.4981363 C41.1677126,30.7101363 43.5257126,27.4871363 44.4397126,23.7101363 C49.4687126,25.3181363 55.2307126,24.2691363 59.4637126,21.1331363 C63.9437126,17.8151363 66.5557126,12.6981363 67.2097126,7.22113633 C67.3067126,6.40913633 66.4507126,5.72913633 65.7097126,5.72103181" id="Fill-13" fill="#C3996B"></path>
                <path d="M56.9626126,105.547336 C56.7386126,105.198336 56.4496126,105.009336 56.0666126,104.858336 C54.7266126,104.325336 53.3876126,103.794336 52.0476126,103.262336 C51.8036126,103.165336 51.4686126,103.197336 51.1876126,103.287336 C51.1666126,103.258336 51.1486126,103.227336 51.1266126,103.198336 C49.7846126,101.502336 47.7936126,100.662336 45.9136126,99.7183363 C44.0206126,98.7683363 42.2156126,97.6213363 40.5866126,96.2663363 C39.7016126,95.5293363 38.8696126,94.7413363 38.0846126,93.9123363 C38.2206126,93.4113363 38.0666126,92.8653363 37.7136126,92.4323363 C34.6786126,88.7023363 31.5466126,84.7563363 30.7086126,79.8913363 C30.5706126,79.0923363 29.5886126,78.6443363 28.8636126,78.8433363 C28.0186126,79.0753363 27.6776126,79.8873363 27.8156126,80.6893363 C28.2056126,82.9543363 29.0586126,85.0433363 30.1626126,87.0113363 C30.1356126,87.2723363 30.1716126,87.5503363 30.3066126,87.8353363 C32.1746126,91.7953363 34.9056126,95.3693363 38.2456126,98.2023363 C39.9116126,99.6153363 41.7106126,100.875336 43.6346126,101.911336 C45.5036126,102.918336 47.6466126,103.603336 49.0046126,105.319336 C49.3536126,105.761336 49.9836126,105.837336 50.5136126,105.671336 C50.7116126,105.892336 50.9516126,106.036336 51.2506126,106.154336 C52.5896126,106.687336 53.9296126,107.218336 55.2686126,107.750336 C55.6076126,107.885336 56.1236126,107.776336 56.4246126,107.599336 C56.7356126,107.417336 57.0326126,107.060336 57.1136126,106.702336 C57.2016126,106.318336 57.1826126,105.888336 56.9626126,105.547336" id="Fill-15" fill="#C3996B"></path>
                <path d="M18.5290126,62.8627363 C17.0640126,60.8887363 14.8280126,59.0927363 12.2160126,59.2877363 C9.72401259,59.4737363 7.39801259,61.4057363 7.39401259,64.0237363 C7.39301259,64.1297363 7.40601259,64.2317363 7.42801259,64.3327363 C5.91101259,66.6287363 5.73601259,69.7167363 6.98701259,72.1837363 C7.35301259,72.9067363 8.37001259,73.1137363 9.03901259,72.7217363 C9.77401259,72.2927363 9.94501259,71.3947363 9.57701259,70.6697363 C9.56501259,70.6447363 9.47801259,70.4567363 9.45901259,70.4237363 C9.41401259,70.3077363 9.37301259,70.1907363 9.33601259,70.0727363 C9.29301259,69.9317363 9.25501259,69.7897363 9.22201259,69.6447363 C9.20101259,69.5497363 9.18101259,69.4537363 9.16401259,69.3557363 C9.15601259,69.3067363 9.15401259,69.2937363 9.15001259,69.2677363 C9.16001259,69.3387363 9.13301259,68.9987363 9.13101259,68.9487363 C9.12501259,68.7997363 9.12401259,68.6527363 9.12801259,68.5057363 C9.13201259,68.3567363 9.14201259,68.2097363 9.15401259,68.0617363 C9.15701259,68.0337363 9.15701259,68.0357363 9.15801259,68.0237363 C9.16601259,67.9737363 9.17401259,67.9247363 9.18301259,67.8747363 C9.24301259,67.5587363 9.32401259,67.2477363 9.42901259,66.9447363 C9.44101259,66.9107363 9.51801259,66.7227363 9.53101259,66.6847363 C9.58201259,66.5737363 9.63501259,66.4647363 9.69401259,66.3567363 C9.82501259,66.1137363 9.97501259,65.8747363 10.1430126,65.6537363 C10.1820126,65.6137363 10.2980126,65.4787363 10.3130126,65.4627363 C10.4130126,65.3537363 10.5180126,65.2497363 10.6270126,65.1497363 C10.6270126,65.1487363 10.8210126,64.9877363 10.8420126,64.9637363 C10.9500126,64.8847363 11.0610126,64.8097363 11.1740126,64.7407363 C11.3040126,64.6607363 11.4380126,64.5857363 11.5740126,64.5147363 C11.5750126,64.5147363 11.7770126,64.4247363 11.8250126,64.3997363 C12.0940126,64.2967363 12.3710126,64.2107363 12.6520126,64.1457363 C12.7770126,64.1167363 12.9030126,64.0927363 13.0290126,64.0727363 C13.0770126,64.0707363 13.2800126,64.0487363 13.3170126,64.0467363 C13.6260126,64.0277363 13.9290126,64.0427363 14.2380126,64.0547363 C14.3000126,64.0577363 14.3310126,64.0577363 14.3500126,64.0567363 C14.3650126,64.0617363 14.3910126,64.0687363 14.4480126,64.0807363 C14.5980126,64.1097363 14.7480126,64.1387363 14.8970126,64.1767363 C15.5690126,64.3477363 15.8440126,64.4767363 16.4770126,64.9147363 C17.0180126,65.2897363 17.8500126,65.1247363 18.2950126,64.6797363 C18.7290126,64.2457363 18.9200126,63.3887363 18.5290126,62.8627363" id="Fill-17" fill="#C3996B"></path>
                <path d="M84.8029126,42.3217363 C84.4059126,40.6207363 84.0379126,38.8817363 83.4189126,37.2457363 C82.8369126,35.7097363 81.8139126,34.3587363 81.2749126,32.8237363 C80.8269126,31.5507363 79.5659126,30.7027363 78.1989126,31.0777363 C76.9649126,31.4177363 76.0039126,32.8737363 76.4529126,34.1537363 C77.0049126,35.7217363 77.9829126,37.0467363 78.5969126,38.5747363 C79.1999126,40.0727363 79.5219126,41.7087363 79.8929126,43.2747363 C80.6699126,46.5547363 81.3379126,49.8717363 81.7569126,53.2177363 C81.9249126,54.5567363 82.7859126,55.7177363 84.2569126,55.7177363 C85.4779126,55.7177363 86.9269126,54.5657363 86.7569126,53.2177363 C86.2969126,49.5507363 85.6439126,45.9207363 84.8029126,42.3217363" id="Fill-19" fill="#E4C3A2"></path>
                <path d="M129.838613,43.4604363 C129.702613,42.2474363 129.566613,41.0344363 129.430613,39.8214363 C129.406613,39.6124363 129.278613,39.4794363 129.124613,39.4074363 C129.123613,39.2914363 129.106613,39.1774363 129.111613,39.0604363 C129.140613,38.4164363 128.140613,38.4174363 128.111613,39.0604363 C128.044613,40.5384363 128.483613,41.9564363 128.799613,43.3844363 C128.824613,43.4954363 128.843613,43.6084363 128.867613,43.7204363 C129.026613,45.1364363 129.185613,46.5524363 129.343613,47.9684363 C129.413613,48.5914363 130.339613,48.6274363 130.343613,47.9684363 C130.351613,46.4504363 130.150613,44.9424363 129.838613,43.4604363" id="Fill-21" fill="#E4C3A2"></path>
            </g>
            <g id="outline" transform="translate(0.000000, 0.916000)">
                <g id="Group-28">
                    <mask id="mask-2" fill="white">
                        <use xlink:href="#path-1"></use>
                    </mask>
                    <g id="Clip-27"></g>
                    <path d="M171.0486,137.3859 C170.9036,137.5149 170.7916,137.6879 170.7626,137.9199 C169.5326,147.5449 162.4276,154.9569 155.6846,161.4389 C155.3626,161.3509 154.9876,161.4199 154.7376,161.7529 C150.6486,167.2129 148.0456,174.3569 142.1716,178.2569 C135.6436,182.5909 127.3676,181.2159 120.2966,179.1599 C116.3596,178.0159 112.5026,176.5929 108.6296,175.2519 C104.2836,173.7479 99.9386,172.2429 95.5936,170.7399 C87.9336,168.0879 80.0716,165.5149 73.3786,160.8089 C67.2356,156.4899 62.1386,149.8729 61.3946,142.2619 C61.3826,142.1729 61.3776,142.0839 61.3616,141.9949 C61.3176,141.4609 61.2916,140.9229 61.2906,140.3799 C61.2896,139.5659 60.3226,139.3819 59.8726,139.8209 C59.3966,139.9429 58.9966,140.4619 59.3066,141.0249 C59.5346,141.4389 59.6716,141.8779 59.7486,142.3229 C59.7656,142.5039 59.7816,142.6849 59.8036,142.8639 C59.8696,144.2729 59.2886,145.7079 58.2986,146.7449 C57.4496,147.6329 56.3576,148.1419 55.1926,148.3689 C54.8836,148.1629 54.5216,148.0429 54.1366,148.0699 C50.5766,148.3219 47.9106,145.0959 45.7256,142.7269 C42.8616,139.6229 40.1356,136.3869 37.5836,133.0219 C37.3716,132.7409 37.1116,132.5119 36.8266,132.3409 C36.7146,132.1489 36.5926,131.9609 36.4836,131.7669 C36.4776,131.7539 36.4706,131.7409 36.4656,131.7299 C36.4576,131.7139 36.4456,131.7029 36.4386,131.6889 C35.0866,129.2899 33.9886,126.7679 33.5096,124.0379 C33.2806,122.7339 33.2596,121.3619 33.5136,120.0479 C33.6396,119.9319 33.7596,119.7999 33.8646,119.6369 C34.9286,117.9939 36.6936,116.9089 38.5936,116.5359 C39.3826,116.6849 40.1796,116.6429 40.9346,116.4469 C41.3296,116.4939 41.7206,116.5739 42.1026,116.6899 C43.9486,117.2489 45.7146,118.6349 47.1936,119.8439 C48.7976,121.1549 50.1476,122.6169 51.0016,124.5219 C51.3426,125.2829 52.2756,125.5909 53.0786,125.4599 C53.3596,125.5239 53.6346,125.5319 53.8976,125.4909 C54.0606,125.4899 54.2136,125.4489 54.3446,125.3649 C54.8956,125.1449 55.3396,124.6929 55.5376,124.0629 C55.8906,122.9389 56.0096,121.8259 55.9536,120.7339 C56.0116,120.5409 56.0696,120.3499 56.1276,120.1569 C56.2286,119.8239 56.0616,119.4419 55.7716,119.2519 C55.5666,118.1719 55.2136,117.1139 54.7676,116.0819 C53.4956,109.0589 50.8126,102.3309 46.8586,96.3719 L48.4806,96.9899 C49.7576,97.4769 51.0676,98.1199 52.4236,98.3399 C53.5476,98.5229 54.5976,98.2619 55.4136,97.6389 C56.1266,97.9639 56.9746,97.9949 57.6546,97.5309 C59.3016,96.4039 60.7296,95.0759 61.9416,93.5309 C62.3566,93.0809 62.7216,92.5839 63.0076,92.0319 C63.1166,91.8239 63.1876,91.6189 63.2396,91.4179 C64.3076,89.7129 65.1596,87.8719 65.7716,85.9539 C68.4626,83.5629 69.2836,79.6619 69.2136,76.0009 C71.9846,79.3199 76.0606,81.4739 80.3876,81.9489 C85.9856,82.5659 91.3796,79.9259 94.7526,75.4969 C95.7056,74.2459 96.4516,72.8709 97.0066,71.4229 C97.2966,70.9069 97.5736,70.3849 97.8366,69.8559 C100.0566,73.5319 103.5776,76.4919 107.8266,77.3909 C112.8886,78.4609 118.0036,76.0769 120.5136,71.5449 C121.0576,70.5619 121.4296,69.5039 121.6356,68.4209 C121.9746,70.3099 122.5736,71.9479 124.0666,73.4409 C124.7106,74.0849 125.5286,74.6559 126.4206,75.1059 C127.9136,76.4769 129.7776,77.3779 132.1526,77.4499 C135.0276,77.5379 137.4756,75.7819 138.8616,73.3479 C139.9166,71.4949 140.3026,69.4359 140.4236,67.3429 C142.5006,70.4139 146.1236,72.4679 149.8856,72.2169 C153.7976,71.9559 157.1796,69.4299 158.8376,66.0089 C159.6526,66.4509 160.5356,66.7559 161.4606,66.9009 C161.5426,66.9399 161.6196,66.9879 161.7036,67.0239 C157.4136,72.4069 157.7176,80.3679 159.0826,86.7709 C160.6856,94.2959 164.1276,101.2539 166.9406,108.3659 C168.5616,112.4669 169.9906,116.6519 170.7916,120.9959 C170.8086,121.0859 170.8466,121.1519 170.8816,121.2199 C171.4686,126.5889 171.5236,132.0049 171.0486,137.3859 M117.8826,188.8349 C117.1196,189.6029 115.9016,189.9819 114.8756,190.2389 C113.7786,190.5129 112.5166,190.6419 111.4576,190.1569 C110.3376,189.6439 109.8646,188.4459 109.1056,187.5539 C108.7646,187.1539 108.3696,186.8629 107.9386,186.5719 C107.2826,186.1279 107.3516,185.6849 107.3306,184.9359 C107.2496,182.1359 107.1686,179.3349 107.0876,176.5349 C110.5706,177.7419 114.0596,178.9279 117.5676,180.0449 C117.5606,180.1429 117.5656,180.2449 117.6016,180.3579 C118.0746,181.8179 118.4026,183.3169 118.5216,184.8479 C118.6196,186.1059 118.8596,187.8539 117.8826,188.8349 M106.4556,3.6919 C105.7526,4.2209 104.9316,4.6619 104.0516,4.9889 C104.8066,4.4849 105.6126,4.0489 106.4556,3.6919 M136.7946,73.4409 C136.8196,73.4129 136.8436,73.3809 136.8686,73.3539 C135.8126,74.7409 134.3266,75.6979 132.5436,75.7819 C134.1466,75.4079 135.6636,74.6719 136.7946,73.4409 M143.5786,68.4159 C142.5946,67.5849 141.7736,66.5579 141.1926,65.4049 C141.9156,66.4679 142.7146,67.4769 143.5786,68.4159 M171.5006,116.7339 C167.9886,103.8099 159.5946,92.0199 159.8556,78.3009 C159.9286,74.4409 160.8556,70.4299 163.4786,67.5049 C163.9126,67.5579 164.3516,67.5719 164.7856,67.5309 C168.1546,67.2119 170.7346,64.4909 171.9516,61.4929 C173.4156,57.8859 173.4806,53.5769 173.3076,49.7399 C173.1836,46.9779 172.7316,44.1559 171.6806,41.5809 C171.2986,40.2199 170.5816,39.0019 169.6526,37.9809 C168.0096,35.8019 165.7906,34.0499 163.2036,33.2119 C163.1906,33.1789 163.1756,33.1469 163.1636,33.1139 C163.6026,30.9639 163.8996,28.6319 162.8146,26.6339 C162.4216,25.9109 161.8806,25.3109 161.2426,24.8699 C160.7516,22.8709 159.9426,21.0879 158.5406,19.6219 C158.1396,18.7569 157.5726,17.9689 156.8196,17.3269 C155.5446,16.2409 153.8756,15.7079 152.2406,15.7999 C151.7436,14.6939 151.0346,13.6469 150.0826,12.6939 C146.8416,9.4529 140.6896,8.1849 136.7526,10.9739 C136.4596,11.1819 136.1646,11.3959 135.8676,11.6099 C135.1266,8.8609 133.1876,6.5939 130.7026,5.1849 C130.5086,5.0309 130.3216,4.8689 130.1136,4.7279 C128.0406,3.3169 125.3346,2.7479 122.9076,3.3419 C122.3386,2.7839 121.7066,2.2929 121.0286,1.8699 C120.5286,1.2759 119.8556,0.8029 119.0986,0.5489 C118.2876,0.2779 117.4346,0.2119 116.5786,0.2259 C114.6376,-0.0761 112.6146,0.0949 110.7386,0.8179 C110.5516,0.8489 110.3616,0.8679 110.1756,0.9029 C106.6946,1.5449 103.1606,3.0479 100.7706,5.6169 C99.3166,5.6349 97.9236,5.2839 96.8586,4.4499 C93.6816,1.9629 90.3706,0.9649 87.0856,1.5909 C83.6386,1.9059 81.1686,4.2479 78.7226,6.5529 L76.0546,8.7269 C73.5076,7.2979 70.9726,5.8089 68.3436,4.5479 C65.8216,3.3379 62.9886,2.4959 60.2256,3.3969 C54.9226,5.1239 52.9676,10.6539 51.7076,15.5959 C47.7116,13.1979 42.7216,12.5509 38.2416,13.8839 C36.7456,14.3279 35.3526,15.0189 34.0696,15.8689 C31.8056,16.8919 29.7666,18.4469 28.1486,20.6259 C25.7326,23.8799 24.7336,27.7929 25.1946,31.5389 C24.4956,31.8209 23.6746,31.9739 23.1376,32.1849 C22.0386,32.6149 20.9806,33.1419 19.9866,33.7819 C17.4976,35.3829 15.3886,37.6019 13.9206,40.1779 C12.6106,41.7549 11.5766,43.5879 10.9546,45.7559 C9.4906,50.8549 10.7246,55.7419 13.5086,59.8039 C10.0696,60.6649 6.8506,62.3929 4.4486,65.0269 C2.6186,67.0319 1.4076,69.4799 0.9066,72.0739 C-0.5764,76.0229 -0.0614,80.6739 3.2616,83.7259 C3.4386,83.8879 3.6226,84.0319 3.8046,84.1809 C0.4356,86.0269 -0.4944,90.9599 0.2306,94.5029 C0.9476,98.0079 3.1176,101.1139 6.0926,103.0259 C5.6356,103.5479 5.2246,104.1269 4.8666,104.7669 C4.8506,104.7889 4.8326,104.8089 4.8176,104.8319 C4.4976,105.3059 4.2816,105.8209 4.1366,106.3549 C2.4116,111.0709 3.8606,117.3849 8.7486,119.7739 C9.8906,120.3309 10.0046,120.1529 10.4616,120.8639 C11.5086,122.4949 12.7796,123.6699 14.1596,124.4929 C13.1806,125.6229 12.6876,127.2039 13.0826,128.9819 C13.0926,129.0309 13.1066,129.0779 13.1176,129.1259 C13.0826,129.4279 13.0446,129.7299 13.0316,130.0319 C12.8636,133.8679 14.5126,137.4439 16.4186,140.6709 C18.4946,144.1889 20.5876,147.8239 23.0116,151.1149 C25.1956,154.0779 28.1286,156.7399 31.9206,157.2339 C34.9426,157.6259 38.1966,156.1819 39.5586,153.4699 C40.2086,154.0279 40.9266,154.5109 41.6876,154.9089 C42.6956,156.3309 44.2086,157.5359 45.4236,158.4799 C47.6726,160.2269 50.2606,161.6009 53.0576,162.2099 C58.1566,163.3219 63.8296,161.6729 66.8696,157.2849 C67.6616,158.1469 68.4906,158.9719 69.3636,159.7389 C75.6906,165.2929 83.7276,168.3429 91.5656,171.0819 C96.1836,172.6969 100.7986,174.3469 105.4236,175.9619 C105.5036,178.7089 105.5826,181.4569 105.6626,184.2039 C105.6956,185.3649 105.5316,186.7179 106.4986,187.5569 C106.8856,187.8929 107.3586,188.1029 107.7176,188.4719 C108.1146,188.8789 108.3996,189.3749 108.7296,189.8349 C110.1136,191.7649 112.1296,192.3599 114.4296,192.0049 C116.4156,191.6989 118.9966,190.8189 119.8476,188.8209 C120.4006,187.5229 120.2706,185.9369 120.1446,184.5659 C120.0206,183.2239 119.7646,181.9039 119.3926,180.6109 C126.1776,182.6399 133.7526,184.0209 140.4236,181.0849 C147.7286,177.8699 150.8516,170.2849 155.1186,164.0469 C155.2696,164.0249 155.4206,163.9719 155.5586,163.8389 C162.2946,157.4089 169.4276,150.2619 171.7906,141.0539 C172.0846,140.9509 172.3386,140.7109 172.3856,140.3279 C173.3346,132.6649 173.1946,124.9329 172.0226,117.3019 C171.9686,116.9539 171.7526,116.7839 171.5006,116.7339" id="Fill-26" fill="#231F20" mask="url(#mask-2)"></path>
                </g>
                <path d="M112.4387,122.4211 C111.8067,125.9871 110.8257,130.4011 107.6407,132.5841 C104.3577,134.8341 99.6047,134.7881 96.0847,133.1441 C92.8397,131.6271 90.4827,128.7861 89.4067,125.4391 C89.5167,125.2261 89.5537,124.9711 89.4387,124.7001 C87.9997,121.3011 86.4977,117.7441 86.3287,114.0071 C86.1677,110.4401 87.4797,107.1781 89.2197,104.1311 C90.8827,101.2211 92.6877,98.2071 94.8737,95.6581 C95.3467,95.1071 95.8577,94.5801 96.3977,94.0881 C96.0977,95.3541 96.1057,96.7391 96.2337,97.9541 C96.5717,101.1701 97.8977,104.2021 99.8107,106.7901 C101.6037,109.2151 103.8397,111.4071 106.3117,113.1391 C108.2937,114.5271 110.7717,115.2431 112.9337,114.2051 C113.0687,116.9491 112.9197,119.7091 112.4387,122.4211 M114.4617,112.3581 C114.0027,107.5151 112.6527,102.8131 110.4827,98.4641 C110.0647,97.1951 109.5007,95.9811 108.7807,94.8541 C108.6957,94.7211 108.5917,94.6361 108.4807,94.5731 C108.2487,94.0781 108.0047,93.5901 107.7257,93.1201 C106.8617,91.6681 105.5797,90.3311 104.0347,89.7161 C103.9077,89.5101 103.6977,89.3581 103.3797,89.3620229 C103.1807,89.3641 102.9887,89.3861 102.7937,89.3991 C102.2427,89.3311 101.6677,89.3551 101.0737,89.5021 C100.8897,89.5471 100.7677,89.6451 100.6717,89.7571 C96.2107,90.9941 93.0387,95.0011 90.5637,98.8371 C87.2867,103.9141 84.0147,109.1831 84.8147,115.4811 C85.1877,118.4151 86.2127,121.1901 87.3377,123.9101 C87.3397,123.9261 87.3347,123.9391 87.3367,123.9551 C88.7377,132.4841 97.8247,138.1451 106.0817,135.1761 C110.2797,133.6671 112.2487,130.0351 113.3457,125.9321 C114.5237,121.5271 114.8927,116.8951 114.4617,112.3581" id="Fill-29" fill="#231F20"></path>
                <path d="M139.3577,129.5402 C137.3157,126.8232 135.2237,124.1442 133.1697,121.4362 C131.1837,118.8182 128.7847,115.2682 130.6527,111.9462 C131.1727,111.0212 129.7507,110.1902 129.2307,111.1152 C127.5727,114.0632 128.5157,117.4432 130.2287,120.1342 C132.3117,123.4062 134.9107,126.4082 137.2637,129.4892 C138.6077,131.2492 143.2737,137.4882 138.6787,138.2522 C136.7327,138.5752 134.7037,137.7562 132.9207,137.0752 C131.0627,136.3652 129.2627,135.5212 127.5117,134.5782 C126.5787,134.0752 125.7457,135.4972 126.6807,136.0002 C129.4587,137.4962 132.4847,138.9482 135.5727,139.6682 C137.9917,140.2312 141.4727,140.0962 142.1287,137.1092 C142.7367,134.3472 140.9297,131.6332 139.3577,129.5402" id="Fill-31" fill="#231F20"></path>
                <path d="M96.7288,84.5617 C91.4758,85.8807 86.6898,88.8527 83.1958,92.9947 C82.5158,93.7987 83.6758,94.9697 84.3598,94.1587 C87.6868,90.2167 92.1638,87.4067 97.1668,86.1497 C98.1938,85.8907 97.7588,84.3027 96.7288,84.5617" id="Fill-33" fill="#231F20"></path>
                <path d="M155.7796,85.2257 C151.7076,81.7177 146.2456,81.0147 141.0746,80.6637 C140.0176,80.5917 140.0216,82.2397 141.0746,82.3107 C145.7636,82.6277 150.9096,83.1997 154.6146,86.3897 C155.4146,87.0787 156.5846,85.9187 155.7796,85.2257" id="Fill-35" fill="#231F20"></path>
                <path d="M160.0901,117.4259 C159.6701,120.0919 158.7291,123.1609 156.7661,125.1199 C155.6061,126.2779 153.6781,125.9299 152.1911,125.7059 C150.6471,125.4749 149.1331,125.0049 147.8481,124.0979 C143.3471,120.9189 142.7311,113.9759 142.1481,108.9819 C141.5851,104.1619 141.5991,98.9509 143.3241,94.4049 C144.0791,98.0219 146.0051,101.4629 149.4471,103.1079 C152.4611,104.5469 156.8801,104.4359 159.1091,101.8329 C159.6051,104.0659 159.8931,106.3519 160.1221,108.6159 C160.4151,111.5309 160.5481,114.5209 160.0901,117.4259 M161.9551,110.9279 C161.7571,107.5199 161.3321,104.0409 160.5371,100.7199 C160.4441,100.3329 160.3391,99.9469 160.2301,99.5629 C160.2261,99.4169 160.1931,99.2849 160.1191,99.1789 C159.1871,96.0609 157.6761,93.0699 155.1811,90.9239 C154.1041,89.9969 152.8941,89.2519 151.6071,88.7359 C151.4781,88.6339 151.3511,88.5289 151.2181,88.4309 C150.1931,87.6809 148.9501,86.9089 147.6251,87.0569 C147.2241,87.1019 146.8641,87.2359 146.5451,87.4249 C146.2711,87.2769 145.9301,87.2789 145.6481,87.5769 C140.6441,92.8849 139.7051,100.4239 140.3371,107.4069 C140.6461,110.8179 141.0941,114.3199 142.0311,117.6199 C142.8061,120.3519 144.0581,123.1119 146.2851,124.9619 C148.7051,126.9739 152.4201,127.8739 155.5321,127.5089 C158.5601,127.1529 160.2341,123.2029 161.0291,120.6669 C162.0101,117.5369 162.1431,114.1799 161.9551,110.9279" id="Fill-37" fill="#231F20"></path>
                <path d="M139.2302,153.2121 C138.9682,152.4011 138.1542,151.8941 137.3092,152.1211 C134.4292,152.8941 131.5482,153.6671 128.6682,154.4401 C127.8792,154.6501 127.3192,155.5621 127.5782,156.3601 C127.8402,157.1711 128.6532,157.6791 129.5002,157.4511 C132.3792,156.6801 135.2592,155.9061 138.1392,155.1341 C138.9282,154.9221 139.4892,154.0121 139.2302,153.2121" id="Fill-39" fill="#231F20"></path>
            </g>
        </g>
    </g>
</svg>