<svg width="500" height="600" xmlns="http://www.w3.org/2000/svg" xmlns:xlink="http://www.w3.org/1999/xlink"><defs><path id="a" d="M0 .084h173.375v192.018H0z"/></defs><g fill="none" fill-rule="evenodd"><path d="M298.698 209.723c-8.554-.717-16.78 3.048-25.446 2.424-6.466-.465-14.622-3.538-17.35 4.74-.392 1.189-.227 2.208.26 3.008a8.449 8.449 0 00.086 1.574c2.32 15.153 26.388 15.636 37.446 12.397 5.775-1.693 11.091-5.51 13.477-11.168 3.121-7.401-.762-12.33-8.473-12.975m-29.941-30.382c0 14.161-6.524 25.641-14.573 25.641-8.048 0-14.573-11.48-14.573-25.641 0-14.16 6.525-25.64 14.573-25.64 8.05 0 14.573 11.48 14.573 25.64m47.932-6.155c0 11.554-5.354 20.92-11.958 20.92s-11.957-9.366-11.957-20.92c0-11.554 5.353-20.92 11.957-20.92 6.604 0 11.958 9.366 11.958 20.92" fill="#FEFEFE"/><path d="M273.094 248.037a5.2 5.2 0 00-.937-1.818 6.79 6.79 0 00-.168-.439c-.186-.425-.556-.643-.965-.706a9.037 9.037 0 00-.932-.657c-1.479-.908-3.162-1.534-4.764-2.185-.615-.25-1.283-.59-1.96-.684-.405-.455-1.166-.58-1.695-.349-.678.298-1.069 1.033-.869 1.77.056.205.092.41.138.614a4.736 4.736 0 00-.047.31c-.238 2.1-.097 4.22.254 6.296.06.358.294.64.594.83l.007.038-.015.001a5.046 5.046 0 003.44 3.642 4.827 4.827 0 002.706-.016c.57.52 1.573.621 2.136.02a7.17 7.17 0 001.284-1.943c.261-.05.517-.155.734-.36 1.178-1.11 1.48-2.84 1.06-4.364" fill="#E4C3A2"/><path d="M264.375 252.034c.41-.269.71-.7.65-1.21l-.634-5.249c-.04-.339-.08-.674-.132-1.004.085-.09.165-.189.235-.307.365-.617.25-1.426-.161-1.98a1.673 1.673 0 00-2.154-.473c-.01.005-.016.014-.025.02-.142-.036-.28-.078-.434-.097-.585-.072-1.354.514-1.446 1.102-.583 3.728-.058 7.443 1.57 10.852.35.732 1.396.923 2.053.538.748-.436.889-1.318.539-2.05-.022-.047-.04-.096-.061-.142" fill="#C3996B"/><path d="M315.413 173.757c.035.205.062.41.084.613a2.385 2.385 0 01.008.434c.042.288.025.582-.02.9a19.125 19.125 0 01-.774 3.254c-.004 2.41-.21 4.795-1.117 6.899.07.238.105.492.067.754-.16 1.094-.807 2.121-1.661 2.81-1.626 1.312-3.811 1.846-5.878 1.725-1.931-.114-4.123-.783-5.125-2.583a1.45 1.45 0 01-.134-.351c-2.2-1.487-4.031-3.555-4.187-6.203-.024-.4.108-.703.32-.914a16.378 16.378 0 01-.741-2.22c-1.053-4.262-1.047-8.899-.441-13.222.212-1.507.539-3.007.983-4.468.15-.621.333-1.23.558-1.819a1.77 1.77 0 01-.032-.357c.028-1.695.726-3.39 2.284-4.222.146-.078.297-.145.45-.209a17.15 17.15 0 011.108-1.327c1.2-1.299 2.895-.394 3.309.916.41-.15.793-.383 1.155-.663.13.04.26.081.388.126.047.018.093.038.14.055.095.283.186.565.29.846.188.013.377.045.56.072.127.017.248.05.366.097.269.108.557.213.802.374.303.179.544.421.724.724l.203.482c.04.151.054.301.06.452 1.99 1.295 3.425 3.534 3.953 5.855.063.082.13.161.173.26.468 1.102 1.027 2.238 1.515 3.396.318.973.618 1.951.883 2.939a.473.473 0 00.134.212c.278 1.441.24 2.9-.407 4.363m-10.862 42.952c-.077.337-.326.609-.61.791-.28.181-.702.221-1.02.134a1.39 1.39 0 01-.587-.357 1.647 1.647 0 01-.28.029c-3.918.023-7.714 1.289-11.638 1.22a1.336 1.336 0 01-.49-.101c-1.723.303-3.491.161-5.234.23-2.102.082-4.198.203-6.29.434-2.21.244-4.418.438-6.645.314-1.87-.104-3.95-.863-5.766-.173-.941.355-1.56-.386-1.592-1.178-.276.084-.552.166-.822.269-.18.082-.36.166-.526.275a1.155 1.155 0 01-.601.171c-.403.424-1.116.523-1.61.234-.65-.38-.785-1.168-.473-1.81.74-1.526 2.286-2.521 3.876-3.141.16-.158.355-.287.575-.377 1.017-.413 2.048-.525 3.08-.469 1.41-.111 2.836.039 4.134.602a.982.982 0 01.435.408c.967.301 1.926.597 2.868.798 1.126-.043 2.252-.083 3.378-.124.137-.112.294-.205.464-.277 2.539-1.052 5.303-1.194 8.005-1.528.01-.008.02-.019.032-.027 1.107-.841 2.54-1.283 3.88-1.578 1.394-.307 2.856-.493 4.284-.444 1.492.051 2.976.389 4.287 1.118.117.064.222.145.334.216.062-.014.124-.03.19-.033a1.01 1.01 0 01.528.024c.156.041.31.117.453.181.045.022.088.045.129.072.133.088.258.188.378.291.04.034.077.071.112.108.147.159.28.335.399.516.013.019.023.041.036.06.029.014.062.023.092.036.333.15.62.374.904.603.21.169.4.363.57.574.229.282.449.571.627.889.179.319.213.669.134 1.02m-10.123 16.223c-5.398 1.022-10.764.938-16.19.187-.712-.098-1.094-1.009-.924-1.628.2-.731.88-.999 1.567-.925.23-.182.522-.298.836-.329 2.477-.239 4.774-1.218 7.303-1.111 2.506.108 4.974.691 7.408 1.252 1.234.285 1.292 2.309 0 2.554m-50.48-41.923c-1.41-2.502-2.214-5.4-2.645-8.22-.966-2.765-1.126-5.675-.264-8.613.019-.066.044-.13.064-.196.316-2.84 1.02-5.631 2.225-8.164.458-.961 1.309-1.174 2.08-.94.2-.378.398-.756.589-1.135.227-.452.646-.746 1.116-.886.285-.502.599-.985.927-1.453a7.038 7.038 0 01.895-1.689c1.548-2.104 3.944-3.504 6.589-3.567a6.529 6.529 0 011.587.174c.47-.038.978-.085 1.126.128.085.123.177.219.265.329a7.124 7.124 0 012.4 1.841c.876.433 1.816.804 2.799 1.439.29.37.6.699.938.956a90.634 90.634 0 012.41 5.773c.05.024.106.041.152.069.49.287.722.699.927 1.205.582 1.437.714 3.051.769 4.588.053 1.445-.003 2.894.102 4.338.025.334-.061.637-.207.908.06.191.1.39.087.599-.102 1.792-.501 3.599-1.122 5.328a4.876 4.876 0 00-1.923.342c-6.504 2.481-16.16 3.553-22.093 8.253a1.925 1.925 0 01.207-1.407m81.45.229a4.85 4.85 0 00-.21-1.25 27.267 27.267 0 00-.19-5.387c-.295-2.186-.418-5.323-2.195-6.875-.032-.028-.065-.047-.097-.073a60.48 60.48 0 00-1.883-6.371c-.292-.812-.783-1.396-1.37-1.786-.7-2.337-1.431-4.663-2.274-6.948a3.593 3.593 0 00-1.016-1.482c-.861-2.323-1.708-4.661-2.036-7.127-.314-2.354-.69-4.479-1.524-6.717-.025-.068-.063-.12-.091-.186.106-1.982.249-3.963.477-5.937a2.458 2.458 0 00-.016-.625c.125-.738.003-1.387-.291-1.929a38.321 38.321 0 011.623-3.143c.027-.04.057-.073.085-.112l1.625-2.373c3.283-4.792-3.411-9.324-7.42-6.325a4.872 4.872 0 00-.484.354c-2-.08-4.02.977-4.82 3.53l-.294.943c-.241.083-.48.193-.714.336-1.026-3.998-6.67-6.246-8.935-1.602l-.048.101c-1.881-.242-3.857.448-4.842 2.358a94.264 94.264 0 00-1.787 3.678 5.512 5.512 0 00-1.807.024c.439-2.435-.645-4.256-2.256-5.198-2.357-3.054-8.692-1.948-9.131 3.11-.022.265-.052.529-.076.795-.09-.163-.175-.328-.281-.483l-.071-.52c-.344-2.514-3.872-4.363-6.151-3.492a59.631 59.631 0 00-3.013 1.252c-.524-3.123-3.681-5.629-7.228-3.537-.86.507-1.69 1.053-2.526 1.59-1.231-.057-2.504.34-3.582 1.371l-7.295 6.972c-.042-.013-.085-.021-.127-.032.513-4.962-6.412-6.865-9.355-2.774a94.326 94.326 0 00-3.432 5.133c-.446-2.73-3.507-4.068-6.112-3.6-2.427-.824-5.411.012-6.366 3.24-.435 1.47-.888 2.935-1.35 4.396-.13.171-.254.349-.367.546a140.44 140.44 0 01-5.373 8.682c-.108-.459-.212-.92-.32-1.379-1.358-5.749-9.434-4.063-9.822 1.328-.01.123-.011.246-.02.369-1.216.768-2.145 2.112-2.333 4.055-.225 2.336.182 4.806 1.13 6.9a58.346 58.346 0 002.729 8.744l.023.116.02-.009c.16.401.315.802.484 1.202.624 1.477 1.67 2.236 2.838 2.48.78 4.06 1.76 8.083 2.958 12.066a5.234 5.234 0 00-1.504.523c-.353.191-.707.384-1.067.561.066-.041-.02-.021-.167.026a6.709 6.709 0 00-.41-.307c-1.758-3.038-4.066-5.749-6.857-7.923-1.181-.918-2.587-1.454-3.96-1.398a5.383 5.383 0 00-1.13-.116c-2.526.01-4.561 1.193-5.696 3.465-1.318 2.639-.38 5.252.932 7.646.323 3.711 3.048 6.774 5.335 9.612 2.673 3.315 5.67 6.446 8.975 9.138 2.968 2.419 7.128 3.405 9.878.051 1.705-2.077 1.553-4.012.81-6.454l-.028-.093c.049.002.095.008.145.008.315 0 .61-.031.893-.076.46 4.884 2.668 9.689 5.187 14.176.515.919 1.18 1.545 1.913 1.935 1.406 2.211 3.424 3.66 5.619 5.396 1.175.929 2.324 1.982 3.637 2.712 1.113.618 2.623.799 3.345 1.355.715.553 1.579.767 2.458.735 8.112 4.006 17.188 6.507 25.548 9.436 2.479.868 5.45 2.331 8.236 2.505a27.34 27.34 0 001.835.869c.194.199.403.385.642.549 1.519 1.046 2.74 1.397 4.582 1.211.147-.016.285-.041.425-.067a25.05 25.05 0 004.288.391c.122.02.239.052.363.065 1.155.119 2.308.111 3.448.009.398.127.838.203 1.31.229l.396.078c1.33.264 2.652.199 3.853-.504.069-.04.134-.096.2-.141 5.596-1.642 9.46-6.529 12.622-11.526a5.137 5.137 0 00.7-1.687 60.927 60.927 0 004.403-5.805c.926-.152 1.858-.655 2.699-1.628.149-.172.288-.347.433-.52 2.063-.798 3.065-2.503 3.22-4.281l.063-.096a5.85 5.85 0 001.052-.856l1.745-1.78c.895-.912 1.344-1.904 1.46-2.873a33.797 33.797 0 003.3-7.44c.053-.133.12-.253.162-.394 1.222-4.149 1.907-8.344 2.184-12.656a4.386 4.386 0 00-.537-2.459" fill="#E4C3A2"/><path d="M302.347 238.657a1.123 1.123 0 00-.31-.482c-.286-.263-.661-.457-1.061-.44l-.4.054a1.5 1.5 0 00-.66.386l-1.676 1.324c-.07.023-.14.03-.207.061l-3.808 1.846a2.006 2.006 0 00-1.088-.239 54.561 54.561 0 01-20.675-2.319 2.44 2.44 0 00-1.16-.086 622.125 622.125 0 01-25.796-9.987c-.231-.66-.733-1.232-1.586-1.502-10.8-3.418-22.376-10.52-23.544-22.92-.127-1.343-1.06-2.5-2.5-2.5-.361 0-.728.104-1.07.272-.842-.525-1.952-.674-2.873-.328-.347.13-.632.297-.91.496-.042-.003-.083-.012-.124-.01-.435.02-.78.182-1.031.438-.34.145-.663.307-.953.49a5.048 5.048 0 00-1.592 1.55c-.36.557-.511 1.353-.754 1.815-.133.252-.001.032-.178.205.088-.086-.008-.038-.06 0-3.007-.475-5.464-2.89-7.534-4.976-2.47-2.487-4.762-5.278-5.525-8.78a1.43 1.43 0 00-.293-.618 7.663 7.663 0 01.553-3.263c.499-1.21 1.437-2.42 2.71-2.866a10.916 10.916 0 013.099 2.2c.685.7 1.564.5 2.092-.044.923-.13 1.794-1.148 1.24-2.256-1.131-2.265-3.676-3.292-6.078-3.012a3.858 3.858 0 00-1.094-1.07c-.242-.453-.673-.803-1.252-.819a11.608 11.608 0 00-2.191.168c-.992-.123-2-.044-3.002.395-.426.185-.774.43-1.09.698a1.476 1.476 0 00-.975-.114c-3.4.847-2.76 5.45-2.217 7.972a19.493 19.493 0 002.127 5.524c.482 1.33 1.148 2.62 1.835 3.783.264.45.737.644 1.219.666a92.975 92.975 0 003.226 4.598c.447.598 1.243.968 1.953.586 1.93 3.333 4.438 6.53 8.512 7.057.238.031.474.045.709.051.789.331 1.645.501 2.453.36.015.015.019.037.035.051.617.567 1.505.57 2.12 0 1.067-.986 1.765-2.192 2.258-3.494.73-.939 1.098-2.1.86-3.355.029-.179.044-.356.07-.535.017-.046.03-.093.048-.138.068-.145.153-.28.236-.417h.002c.055-.01.06-.012.055-.014.014 0 .028 0 .075-.003.137-.008.269-.004.406-.002h.037c0 .003.007.006.02.01.088.314.288.59.552.787.998 6.586 4.306 12.437 9.377 16.838 4.168 3.616 9.068 6.215 14.212 8.151.325.555.874.99 1.525 1.262a621.447 621.447 0 0030.339 11.81c.408.148.834.135 1.239.025 6.752 1.963 13.853 2.722 20.863 2.17.765-.06 1.464-.4 1.925-.946.113-.032.223-.074.324-.137l3-1.883a1.59 1.59 0 00.652-.804l.509-.246c.005-.003.009-.008.015-.01.222-.075.42-.188.589-.355l1.886-1.49c.146-.136.249-.297.31-.483.094-.178.137-.37.13-.578a1.139 1.139 0 00-.13-.578M252.05 131.35c-.89-.01-1.404.699-1.5 1.5-.532 4.459-2.854 8.872-6.532 11.52-3.839 2.766-8.847 3.494-13.268 1.79-.068-.026-.13-.038-.195-.053a1.55 1.55 0 00-.916-.332c-.142 0-.272.024-.396.058.006-.087.008-.173.011-.26 1.269-.408 1.595-2.511.002-2.858l-1.746-.381c-1.082-1.521-2.577-3.71-4.498-2.385-.42.29-.698.717-.909 1.188a1.27 1.27 0 00-.348.279c-.882 1.043-1.381 2.328-1.376 3.647a128.556 128.556 0 01-3.579 9.25 1.65 1.65 0 00-.093 1.049c-3.021 1.008-5.72 2.706-7.892 5.03a1.548 1.548 0 00-.398-.225c-1.081-.401-2.137-.42-3.259-.192a1.237 1.237 0 00-.318.114c-.17.005-.339.02-.509.039-.948-.413-2.226.147-2.135 1.289-.431.308-.661.83-.396 1.494l4.311 10.806.002.004.165.637 1.27 7.346c.122.704.793 1.066 1.457 1.066-.145.276-.29.554-.436.829-.903 1.705 1.686 3.223 2.591 1.514 1.889-3.568 3.615-7.13 4.059-11.192.369-3.364-.079-6.751-.658-10.081 1.446.048 2.898-.15 4.274-.621 2.364-.808 4.229-2.323 5.953-4.092 2.72-2.788 5.078-6.011 5.993-9.788 5.028 1.608 10.79.559 15.023-2.577 4.48-3.318 7.092-8.435 7.746-13.912.097-.812-.759-1.492-1.5-1.5" fill="#C3996B"/><path d="M243.303 231.176c-.225-.35-.514-.538-.896-.69l-4.02-1.595c-.244-.097-.578-.065-.86.025-.02-.03-.038-.06-.06-.09-1.343-1.695-3.333-2.535-5.214-3.48-1.892-.95-3.698-2.096-5.326-3.451a28.905 28.905 0 01-2.502-2.354c.136-.501-.018-1.047-.372-1.48-3.034-3.73-6.167-7.676-7.004-12.541-.138-.8-1.12-1.247-1.846-1.048-.844.232-1.186 1.044-1.047 1.846.39 2.265 1.243 4.354 2.346 6.322-.026.26.01.539.144.824a31.02 31.02 0 007.94 10.367 31.306 31.306 0 005.388 3.709c1.87 1.007 4.013 1.692 5.371 3.408.35.442.978.518 1.508.352.2.22.44.365.737.483l4.02 1.596c.338.135.854.026 1.154-.151.312-.182.608-.54.69-.897.087-.384.07-.814-.15-1.155m-38.434-42.685c-1.466-1.974-3.702-3.77-6.314-3.575-2.492.186-4.818 2.118-4.822 4.736a1.38 1.38 0 00.034.31c-1.517 2.295-1.692 5.383-.44 7.85.365.723 1.382.93 2.051.538.735-.429.906-1.327.538-2.052-.012-.025-.099-.213-.118-.246a5.617 5.617 0 01-.295-1.068 7.558 7.558 0 01-.014-.088c.01.071-.017-.269-.019-.319a6.553 6.553 0 01.023-.887l.004-.038a6.46 6.46 0 01.271-1.079c.012-.034.09-.222.102-.26a5.399 5.399 0 01.612-1.031c.04-.04.155-.175.17-.19.1-.11.205-.214.314-.314 0 0 .194-.162.215-.186a4.81 4.81 0 01.332-.223c.13-.08.264-.155.4-.226.001 0 .203-.09.251-.115.27-.103.546-.189.827-.254.125-.029.251-.053.378-.073.047-.002.25-.024.287-.026.31-.019.612-.004.921.008.062.003.093.003.112.002a.958.958 0 00.098.024c.15.03.3.058.45.096.671.171.946.3 1.58.738.54.375 1.372.21 1.817-.235.434-.434.625-1.29.234-1.817" fill="#C3996B"/><path d="M271.143 167.95c-.397-1.7-.765-3.44-1.384-5.076-.582-1.536-1.605-2.887-2.144-4.422-.448-1.273-1.709-2.12-3.076-1.746-1.234.34-2.195 1.796-1.746 3.076.552 1.568 1.53 2.893 2.144 4.421.603 1.498.925 3.134 1.296 4.7.777 3.28 1.445 6.597 1.864 9.943.168 1.34 1.03 2.5 2.5 2.5 1.221 0 2.67-1.152 2.5-2.5a105.615 105.615 0 00-1.954-10.896m45.036 1.139l-.408-3.639a.509.509 0 00-.306-.414c-.001-.116-.018-.23-.013-.347.029-.644-.971-.643-1 0-.067 1.478.372 2.896.688 4.324.025.111.044.224.068.336l.476 4.248c.07.623.996.659 1 0 .008-1.518-.193-3.026-.505-4.508m-44.875 12.942c-.795.038-1.582.096-2.364.165-.74-.186-1.57-.197-2.48.034-.701.18-1.397.37-2.093.558-8.443 1.42-16.228 4.545-24.167 8.275-5.461 2.567-1.334 10.316 3.984 9.013a5.375 5.375 0 002.098-.465c6.693-2.923 13.595-5.265 20.64-7.158a46.95 46.95 0 014.382-.422c6.407-.305 6.444-10.306 0-10m45.534-7.588c-.637 0-1.208.1-1.718.277-.057-.002-.111-.007-.17-.007a5.63 5.63 0 00-.806.062 6.694 6.694 0 00-2.436-.064c-.373.058-.737.138-1.108.203-1.588-.002-3.171.103-4.746.43-2.545.529-4.834 1.804-7.347 2.449a5.09 5.09 0 00-1.697.77 5.91 5.91 0 00-.58.3l-.772.459c-.651.265-1.301.534-1.95.816-2.497 1.082-3.014 4.696-1.794 6.84a4.546 4.546 0 001.999 1.89c.365 1.563 1.44 2.887 3.372 3.243 3.893.719 7.79 1.407 11.694 2.064 2.7.455 4.736-1.058 5.685-3.017 3.067-.426 5.668-3.955 4.134-7.01 4.606-1.641 4.03-9.705-1.76-9.705" fill="#E4C3A2"/><g transform="translate(154 64.916)"><mask id="b" fill="#fff"><use xlink:href="#a"/></mask><path d="M171.048 137.386a.837.837 0 00-.286.534c-1.23 9.625-8.334 17.037-15.077 23.519-.322-.088-.697-.02-.947.314-4.09 5.46-6.692 12.604-12.566 16.504-6.529 4.334-14.804 2.959-21.876.903-3.937-1.144-7.794-2.567-11.667-3.908-4.346-1.504-8.69-3.01-13.035-4.512-7.66-2.652-15.522-5.225-22.215-9.931-6.142-4.32-11.24-10.936-11.985-18.547-.011-.09-.017-.178-.032-.267a19.649 19.649 0 01-.07-1.615c-.003-.814-.97-.998-1.42-.56-.475.123-.876.642-.566 1.205.229.414.366.853.443 1.298.017.18.032.362.054.54.067 1.41-.514 2.845-1.505 3.882-.849.888-1.94 1.397-3.105 1.624a1.69 1.69 0 00-1.056-.3c-3.56.253-6.227-2.973-8.412-5.342a131.582 131.582 0 01-8.142-9.705 2.67 2.67 0 00-.756-.681c-.112-.192-.234-.38-.343-.574l-.019-.037c-.008-.016-.02-.027-.027-.041-1.352-2.4-2.45-4.921-2.928-7.651-.23-1.304-.25-2.676.004-3.99.125-.116.245-.248.35-.411 1.065-1.643 2.83-2.728 4.73-3.101a5.351 5.351 0 002.34-.09 6.86 6.86 0 011.169.244c1.846.559 3.611 1.945 5.09 3.154 1.605 1.31 2.955 2.773 3.809 4.678.341.76 1.273 1.069 2.076.938.281.064.556.072.82.03a.828.828 0 00.446-.125c.551-.22.995-.672 1.194-1.302a9.385 9.385 0 00.416-3.33l.173-.576c.101-.333-.066-.715-.355-.905-.206-1.08-.558-2.138-1.003-3.17a52.666 52.666 0 00-7.91-19.71l1.621.618c1.278.487 2.588 1.13 3.944 1.35 1.123.183 2.173-.078 2.99-.701.712.325 1.56.356 2.24-.108a19.115 19.115 0 004.287-4c.416-.45.78-.947 1.067-1.5a2.8 2.8 0 00.231-.613 24.114 24.114 0 002.533-5.464c2.69-2.391 3.511-6.292 3.441-9.953 2.772 3.319 6.848 5.473 11.175 5.948 5.599.617 10.991-2.023 14.364-6.452a16.34 16.34 0 002.255-4.074c.29-.516.566-1.038.83-1.567 2.22 3.676 5.74 6.636 9.99 7.535 5.061 1.07 10.177-1.314 12.686-5.846.544-.983.916-2.041 1.122-3.124.34 1.889.938 3.527 2.431 5.02.644.644 1.462 1.215 2.355 1.665 1.492 1.37 3.356 2.272 5.731 2.344 2.876.088 5.325-1.668 6.71-4.102 1.055-1.853 1.44-3.912 1.561-6.005 2.077 3.07 5.7 5.125 9.463 4.874 3.912-.261 7.293-2.787 8.953-6.208a8.127 8.127 0 002.621.892c.082.039.16.087.243.123-4.29 5.383-3.986 13.344-2.62 19.747 1.602 7.525 5.044 14.483 7.857 21.595 1.621 4.1 3.05 8.286 3.852 12.63.017.09.054.156.09.224a82.307 82.307 0 01.166 16.166m-53.166 51.449c-.763.768-1.98 1.147-3.007 1.404-1.097.274-2.359.403-3.418-.082-1.12-.513-1.592-1.711-2.351-2.603-.341-.4-.736-.691-1.167-.982-.656-.444-.587-.887-.608-1.636-.082-2.8-.163-5.601-.243-8.401a436.517 436.517 0 0010.48 3.51.792.792 0 00.035.313c.472 1.46.8 2.959.919 4.49.097 1.258.337 3.006-.64 3.987M106.456 3.692a9.546 9.546 0 01-2.403 1.297c.754-.504 1.56-.94 2.403-1.297m30.34 69.749c.025-.028.049-.06.074-.087-1.056 1.387-2.542 2.344-4.326 2.428 1.603-.374 3.12-1.11 4.251-2.341m6.784-5.025a9.634 9.634 0 01-2.386-3.011 26.27 26.27 0 002.386 3.01m27.922 48.319c-3.512-12.924-11.905-24.714-11.644-38.433.073-3.86 1-7.871 3.623-10.796.433.053.872.067 1.306.026 3.37-.32 5.95-3.04 7.167-6.038 1.464-3.607 1.529-7.916 1.356-11.753-.124-2.762-.576-5.584-1.627-8.16-.383-1.36-1.1-2.578-2.029-3.6-1.642-2.178-3.861-3.93-6.448-4.768-.013-.033-.029-.065-.04-.098.439-2.15.736-4.482-.35-6.48a5.09 5.09 0 00-1.571-1.764c-.492-2-1.3-3.782-2.702-5.248a6.68 6.68 0 00-1.721-2.295 6.538 6.538 0 00-4.58-1.527 10.423 10.423 0 00-2.157-3.106c-3.242-3.241-9.393-4.51-13.33-1.72-.293.208-.588.422-.885.636-.742-2.75-2.68-5.016-5.166-6.425-.194-.154-.38-.316-.589-.457-2.072-1.411-4.778-1.98-7.206-1.386a10.98 10.98 0 00-1.879-1.472 4.362 4.362 0 00-1.93-1.321c-.81-.271-1.663-.337-2.519-.323-1.941-.302-3.964-.131-5.84.592-.188.03-.377.05-.564.085-3.48.642-7.014 2.145-9.404 4.714-1.454.018-2.847-.333-3.912-1.167-3.177-2.487-6.488-3.485-9.773-2.86-3.447.316-5.918 2.658-8.364 4.963l-2.667 2.174c-2.548-1.43-5.083-2.918-7.712-4.18-2.522-1.21-5.355-2.051-8.118-1.15-5.303 1.727-7.258 7.257-8.517 12.199-3.996-2.398-8.986-3.045-13.466-1.712-1.496.444-2.89 1.135-4.172 1.985a14.964 14.964 0 00-5.922 4.757c-2.415 3.254-3.413 7.167-2.953 10.913-.7.282-1.52.435-2.058.646-1.099.43-2.157.957-3.15 1.597a18.612 18.612 0 00-6.066 6.396 15.206 15.206 0 00-2.966 5.578c-1.464 5.099-.23 9.986 2.553 14.048-3.438.86-6.656 2.589-9.06 5.223a14.553 14.553 0 00-3.542 7.047c-1.482 3.949-.968 8.6 2.357 11.652.175.162.36.306.542.455C.434 86.027-.495 90.96.23 94.503c.718 3.505 2.888 6.61 5.862 8.523a10.177 10.177 0 00-1.225 1.74c-.016.023-.035.043-.05.066a5.07 5.07 0 00-.68 1.523c-1.725 4.716-.276 11.03 4.612 13.419 1.141.557 1.255.379 1.712 1.09 1.047 1.63 2.319 2.806 3.698 3.629-.979 1.13-1.472 2.71-1.077 4.489.01.049.024.096.035.144-.035.302-.072.604-.086.906-.168 3.836 1.481 7.412 3.388 10.639 2.075 3.518 4.168 7.153 6.593 10.444 2.183 2.963 5.116 5.625 8.909 6.119 3.022.392 6.276-1.052 7.638-3.764a11.373 11.373 0 002.129 1.439c1.008 1.422 2.521 2.627 3.735 3.57 2.25 1.748 4.837 3.122 7.634 3.73 5.1 1.113 10.773-.536 13.813-4.924a32.793 32.793 0 002.493 2.454c6.328 5.554 14.365 8.604 22.203 11.343 4.617 1.615 9.233 3.265 13.858 4.88l.238 8.242c.033 1.16-.13 2.514.837 3.353.386.336.86.546 1.219.915.397.407.681.903 1.011 1.363 1.385 1.93 3.4 2.525 5.7 2.17 1.986-.306 4.567-1.186 5.418-3.184.553-1.298.424-2.884.297-4.255a21.42 21.42 0 00-.752-3.955c6.785 2.029 14.36 3.41 21.031.474 7.305-3.215 10.428-10.8 14.696-17.038a.763.763 0 00.44-.208c6.736-6.43 13.869-13.577 16.232-22.785a.865.865 0 00.595-.726c.948-7.663.809-15.395-.363-23.026-.054-.348-.27-.518-.523-.568" fill="#231F20" mask="url(#b)"/></g><path d="M242.997 188.564c-1.291-3.08-2.517-6.286-2.667-9.641-.162-3.566 1.15-6.83 2.89-9.875 1.663-2.911 3.467-5.924 5.653-8.473.474-.552.985-1.077 1.525-1.571-.3 1.266-.292 2.652-.164 3.867.339 3.214 1.664 6.248 3.577 8.836a28.547 28.547 0 006.5 6.348c1.123.786 2.406 1.343 3.699 1.5.079.113.167.218.265.308.397.363.892.58 1.434.586.016 0 .03-.01.047-.01-.033.103-.08.203-.095.31-8.025.995-15.74 3.629-22.664 7.815m25.465-11.29a39.435 39.435 0 00-3.98-13.894 15.973 15.973 0 00-1.701-3.61.812.812 0 00-.301-.28 16.657 16.657 0 00-.754-1.453c-.864-1.452-2.146-2.79-3.69-3.405a.724.724 0 00-.656-.353c-.2.002-.391.023-.586.036a4.726 4.726 0 00-1.72.103.745.745 0 00-.402.255c-4.461 1.237-7.633 5.245-10.11 9.08-3.274 5.078-6.547 10.346-5.747 16.643.373 2.936 1.398 5.71 2.524 8.43 0 .017-.005.029-.002.046.129.784.329 1.542.582 2.272.195-.248.397-.486.602-.722.28.25.685.347 1.106.089 6.853-4.217 14.564-6.921 22.563-7.838.385-.043.65-.26.802-.536l.027-.01a.977.977 0 00.273.023c.28-.027.33-.042.586-.157.105-.048.199-.134.283-.206.162-.143.299-.39.35-.596.02-.076.02-.147.028-.218.03-.005.06-.01.09-.013a38.387 38.387 0 00-.167-3.685m24.896 17.181c-2.042-2.717-4.134-5.396-6.188-8.104-1.986-2.618-4.385-6.168-2.517-9.49.52-.925-.902-1.756-1.422-.83-1.658 2.947-.715 6.327.998 9.018 2.083 3.272 4.682 6.274 7.036 9.355 1.343 1.76 6.009 8 1.414 8.763-1.946.323-3.975-.496-5.758-1.177a46.191 46.191 0 01-5.41-2.497c-.932-.503-1.765.92-.83 1.422 2.778 1.496 5.804 2.948 8.892 3.668 2.419.563 5.9.428 6.556-2.559.608-2.762-1.2-5.476-2.771-7.569m3.29-17.302c-.036.02-.051.053-.083.077-.164-1.16-.295-2.29-.417-3.333-.562-4.82-.548-10.03 1.176-14.577.755 3.616 2.68 7.059 6.123 8.703 3.014 1.44 7.433 1.328 9.662-1.274.45 2.023.726 4.09.944 6.147a29.144 29.144 0 00-17.405 4.257m19.226-2.385c-.221-3.061-.625-6.158-1.337-9.133a32.977 32.977 0 00-.306-1.158.698.698 0 00-.112-.383c-.932-3.118-2.442-6.11-4.937-8.254a12.857 12.857 0 00-3.574-2.19c-.13-.101-.256-.206-.39-.304-1.025-.75-2.267-1.521-3.592-1.374a2.691 2.691 0 00-1.081.369c-.273-.15-.614-.147-.897.152-5.003 5.307-5.943 12.847-5.311 19.83.213 2.35.505 4.74.965 7.082.425-.197.855-.391 1.287-.582.278.226.666.305 1.068.057a27.338 27.338 0 0116.887-3.96c.288.027.5-.064.659-.205.223.02.447.028.67.053M299.6 229.83c.086-.077.156-.17.213-.27a10.034 10.034 0 003.222-3.547c.035.004.07.008.105.008-.897 1.481-2.117 2.767-3.54 3.81m-11.987 3.615c-3.138.096-6.325-.157-9.459-.58 4.981-2.555 11.04-2.773 16.166-.466.006.004.012.002.018.005-2.17.66-4.453.972-6.725 1.041m-26.015-16.015a.82.82 0 00-.359.042c.007-.017.01-.035.017-.05.695-1.722 1.998-3.12 3.774-3.727 1.766-.602 3.773-.38 5.256.785.446.352.958-.013 1.027-.44 2.973 1.008 6.157 1.352 9.28.941 3.931-.518 7.487-2.438 11.381-3.117 3.15-.55 6.735-.5 9.413 1.48 1.216.897 2.07 2.106 2.618 3.452a.9.9 0 00-.833-.335c-13.769 1.88-27.733 2.187-41.574.97m43.696-.952c-1.29-3.369-4.322-5.493-7.83-6.03-4.402-.678-8.527.834-12.633 2.185-4.857 1.597-9.873 1.676-14.617-.382-.353-.153-.65.023-.797.285-2.575-.979-5.663-.274-7.632 1.732-2.705 2.755-2.98 7.132-1.363 10.506 3.768 7.86 13.571 9.053 21.26 9.727 8.043.705 17.855-.13 22.557-7.743 1.87-3.027 2.335-6.936 1.055-10.28m-28.095-60.269a92.953 92.953 0 00-24.495-10.239c-1.247-.322-1.78 1.607-.532 1.928a90.984 90.984 0 0124.017 10.04c1.108.661 2.114-1.068 1.01-1.729m30.215-13.753a84.697 84.697 0 00-21.203 13.77c-.966.854.453 2.264 1.414 1.413a83.05 83.05 0 0120.798-13.456c1.171-.53.156-2.254-1.009-1.727" fill="#231F20"/></g></svg>