<svg width="500" height="600" xmlns="http://www.w3.org/2000/svg" xmlns:xlink="http://www.w3.org/1999/xlink"><defs><path id="a" d="M0 .084h173.375v192.018H0z"/></defs><g fill="none" fill-rule="evenodd"><path d="M268.757 179.341c0 14.161-6.524 25.641-14.573 25.641-8.048 0-14.573-11.48-14.573-25.641 0-14.16 6.525-25.64 14.573-25.64 8.05 0 14.573 11.48 14.573 25.64m47.932-6.155c0 11.554-5.354 20.92-11.958 20.92s-11.957-9.366-11.957-20.92c0-11.554 5.353-20.92 11.957-20.92 6.604 0 11.958 9.366 11.958 20.92" fill="#FEFEFE"/><path d="M273.094 248.037a5.214 5.214 0 00-.936-1.818c-.053-.146-.105-.292-.169-.439-.186-.425-.556-.643-.965-.706a9.037 9.037 0 00-.932-.657c-1.479-.908-3.16-1.534-4.764-2.185-.615-.25-1.282-.59-1.96-.684-.405-.455-1.166-.58-1.695-.349-.678.298-1.069 1.033-.869 1.77.056.205.092.41.138.614a4.736 4.736 0 00-.047.31c-.238 2.1-.097 4.22.254 6.296.06.358.294.64.595.83l.006.038-.015.001c.4 1.717 1.75 3.143 3.44 3.642a4.827 4.827 0 002.706-.016c.57.52 1.574.621 2.136.02a7.17 7.17 0 001.284-1.943c.261-.05.517-.155.734-.36 1.18-1.11 1.48-2.84 1.06-4.364" fill="#E4C3A2"/><path d="M264.375 252.034c.41-.269.71-.7.65-1.21l-.634-5.249c-.04-.339-.08-.674-.132-1.004.085-.09.165-.189.235-.307.365-.617.25-1.426-.161-1.98a1.673 1.673 0 00-2.154-.473c-.01.005-.016.014-.025.02-.142-.036-.28-.078-.434-.097-.585-.072-1.354.514-1.446 1.102-.582 3.728-.058 7.443 1.57 10.852.35.732 1.396.923 2.053.538.748-.436.889-1.318.539-2.05-.022-.047-.04-.096-.061-.142" fill="#C3996B"/><path d="M315.413 173.757c.035.205.062.41.084.613a2.385 2.385 0 01.008.434c.042.288.025.582-.019.9a19.125 19.125 0 01-.775 3.254c-.004 2.41-.209 4.795-1.117 6.899.071.238.105.492.067.754-.16 1.094-.807 2.121-1.66 2.81-1.627 1.312-3.812 1.846-5.879 1.725-1.93-.114-4.123-.783-5.125-2.583a1.45 1.45 0 01-.134-.351c-2.2-1.487-4.03-3.555-4.187-6.203-.024-.4.108-.703.32-.914a16.378 16.378 0 01-.74-2.22c-1.054-4.262-1.048-8.899-.442-13.222a29.67 29.67 0 01.983-4.468c.15-.621.333-1.23.558-1.819a1.77 1.77 0 01-.032-.357c.028-1.695.726-3.39 2.284-4.222.146-.078.297-.145.45-.209a17.15 17.15 0 011.108-1.327c1.2-1.299 2.895-.394 3.31.916.41-.15.792-.383 1.154-.663.13.04.26.081.388.126.047.018.093.038.141.055.094.283.185.565.29.846.187.013.376.045.56.072.126.017.247.05.365.097.27.108.557.213.802.374.303.179.544.421.724.724l.203.482c.04.151.054.301.061.452 1.99 1.295 3.424 3.534 3.952 5.855.063.082.131.161.173.26.468 1.102 1.027 2.238 1.515 3.396.318.973.618 1.951.883 2.939a.473.473 0 00.134.212c.278 1.441.241 2.9-.407 4.363m-46.534 4.736c-.155 2.717-.979 5.47-2.25 7.926.013.094.03.187.028.281-.003.412-.034.827-.075 1.239.334.474.473 1.084.3 1.67-.39 1.322-1.037 2.578-1.842 3.73-.093.2-.186.401-.286.598-1.049 2.072-2.802 4.306-5.212 4.79a2.341 2.341 0 01-.94-.005c-1.714.748-3.574 1.076-5.47.597a1.877 1.877 0 01-1.23-1.012c-2.945-.812-5.64-2.445-7.665-4.843-.622-.736-.752-1.664-.289-2.455-1.409-2.502-2.214-5.4-2.645-8.22-.966-2.765-1.126-5.675-.265-8.613.02-.066.045-.13.065-.196.316-2.84 1.02-5.631 2.225-8.164.458-.961 1.31-1.174 2.08-.94.2-.378.398-.756.588-1.135.228-.452.646-.746 1.117-.886.285-.502.6-.985.927-1.453a7.038 7.038 0 01.895-1.689c1.548-2.104 3.944-3.504 6.59-3.567a6.529 6.529 0 011.586.174c.47-.038.978-.085 1.126.128.085.123.177.219.265.329a7.124 7.124 0 012.401 1.841c.875.433 1.815.804 2.798 1.439.29.37.6.699.938.956a90.634 90.634 0 012.411 5.773c.05.024.105.041.151.069.49.287.722.699.927 1.205.582 1.437.714 3.051.77 4.588.052 1.445-.004 2.894.101 4.338.025.334-.06.637-.207.908.061.191.1.39.087.599m56.52 12.745a4.85 4.85 0 00-.21-1.25 27.267 27.267 0 00-.19-5.387c-.296-2.186-.419-5.323-2.196-6.875-.032-.028-.065-.047-.097-.073a60.48 60.48 0 00-1.883-6.371c-.292-.812-.783-1.396-1.369-1.786-.7-2.337-1.432-4.663-2.275-6.948a3.593 3.593 0 00-1.016-1.482c-.86-2.323-1.708-4.661-2.036-7.127-.314-2.354-.69-4.479-1.524-6.717-.025-.068-.063-.12-.09-.186.105-1.982.248-3.963.476-5.937a2.458 2.458 0 00-.016-.625c.125-.738.003-1.387-.29-1.929a38.321 38.321 0 011.622-3.143c.027-.04.057-.073.085-.112l1.625-2.373c3.283-4.792-3.41-9.324-7.419-6.325a4.872 4.872 0 00-.485.354c-1.999-.08-4.02.977-4.819 3.53l-.295.943a3.66 3.66 0 00-.714.336c-1.026-3.998-6.669-6.246-8.935-1.602l-.048.101c-1.88-.242-3.857.448-4.842 2.358a94.264 94.264 0 00-1.787 3.678 5.512 5.512 0 00-1.807.024c.44-2.435-.645-4.256-2.256-5.198-2.357-3.054-8.692-1.948-9.13 3.11-.023.265-.053.529-.077.795-.09-.163-.175-.328-.28-.483a81.533 81.533 0 00-.072-.52c-.344-2.514-3.872-4.363-6.15-3.492a59.631 59.631 0 00-3.014 1.252c-.524-3.123-3.68-5.629-7.228-3.537-.859.507-1.69 1.053-2.526 1.59-1.23-.057-2.504.34-3.582 1.371l-7.295 6.972c-.042-.013-.085-.021-.127-.032.513-4.962-6.412-6.865-9.355-2.774a94.326 94.326 0 00-3.432 5.133c-.446-2.73-3.507-4.068-6.112-3.6-2.427-.824-5.41.012-6.366 3.24-.435 1.47-.888 2.935-1.35 4.396-.13.171-.254.349-.367.546a140.44 140.44 0 01-5.373 8.682c-.108-.459-.212-.92-.32-1.379-1.358-5.749-9.434-4.063-9.822 1.328-.009.123-.01.246-.019.369-1.217.768-2.146 2.112-2.334 4.055-.225 2.336.182 4.806 1.13 6.9a58.346 58.346 0 002.73 8.744l.022.116a.39.39 0 01.02-.009c.16.401.315.802.484 1.202.624 1.477 1.671 2.236 2.838 2.48.781 4.06 1.76 8.083 2.958 12.066a5.234 5.234 0 00-1.504.523c-.353.191-.707.384-1.067.561.066-.041-.019-.021-.167.026a6.709 6.709 0 00-.409-.307c-1.759-3.038-4.067-5.749-6.858-7.923-1.18-.918-2.587-1.454-3.96-1.398a5.383 5.383 0 00-1.129-.116c-2.527.01-4.562 1.193-5.697 3.465-1.318 2.639-.38 5.252.932 7.646.323 3.711 3.048 6.774 5.335 9.612 2.673 3.315 5.67 6.446 8.975 9.138 2.968 2.419 7.128 3.405 9.878.051 1.705-2.077 1.553-4.012.811-6.454l-.029-.093c.05.002.095.008.145.008.315 0 .61-.031.893-.076.46 4.884 2.668 9.689 5.187 14.176.515.919 1.18 1.545 1.913 1.935 1.406 2.211 3.424 3.66 5.62 5.396 1.174.929 2.323 1.982 3.636 2.712 1.113.618 2.623.799 3.345 1.355.715.553 1.58.767 2.458.735 8.112 4.006 17.188 6.507 25.548 9.436 2.48.868 5.45 2.331 8.236 2.505a27.34 27.34 0 001.835.869c.194.199.403.385.642.549 1.52 1.046 2.74 1.397 4.582 1.211.147-.016.285-.041.425-.067a25.05 25.05 0 004.288.391c.122.02.24.052.363.065 1.155.119 2.308.111 3.448.009.398.127.838.203 1.31.229l.396.078c1.331.264 2.652.199 3.853-.504.07-.04.134-.096.201-.141 5.595-1.642 9.46-6.529 12.621-11.526a5.137 5.137 0 00.701-1.687 60.927 60.927 0 004.402-5.805c.926-.152 1.858-.655 2.7-1.628.148-.172.287-.347.432-.52 2.063-.798 3.065-2.503 3.22-4.281l.063-.096a5.85 5.85 0 001.052-.856l1.745-1.78c.895-.912 1.344-1.904 1.46-2.873a33.797 33.797 0 003.301-7.44c.052-.133.12-.253.161-.394 1.222-4.149 1.907-8.344 2.184-12.656a4.386 4.386 0 00-.537-2.459" fill="#E4C3A2"/><path d="M302.347 238.657a1.123 1.123 0 00-.31-.482c-.286-.263-.661-.457-1.061-.44l-.4.054a1.5 1.5 0 00-.66.386l-1.676 1.324c-.07.023-.14.03-.207.061l-3.808 1.846a2.006 2.006 0 00-1.088-.239 54.561 54.561 0 01-20.675-2.319 2.44 2.44 0 00-1.16-.086 623.222 623.222 0 01-25.796-9.987c-.231-.66-.733-1.232-1.586-1.502-10.8-3.418-22.376-10.52-23.544-22.92-.127-1.343-1.06-2.5-2.5-2.5-.361 0-.728.104-1.071.272-.841-.525-1.951-.674-2.872-.328-.347.13-.632.297-.91.496-.041-.003-.083-.012-.124-.01-.435.02-.78.182-1.031.438-.34.145-.663.307-.953.49a5.048 5.048 0 00-1.592 1.55c-.36.557-.511 1.353-.753 1.815-.134.252-.002.032-.18.205.089-.086-.007-.038-.058 0-3.008-.475-5.465-2.89-7.535-4.976-2.47-2.487-4.762-5.278-5.525-8.78a1.43 1.43 0 00-.293-.618c-.044-1.096.114-2.196.553-3.263.499-1.21 1.438-2.42 2.71-2.866a10.916 10.916 0 013.099 2.2c.685.7 1.564.5 2.092-.044.923-.13 1.794-1.148 1.24-2.256-1.131-2.265-3.676-3.292-6.078-3.012a3.858 3.858 0 00-1.094-1.07c-.242-.453-.673-.803-1.252-.819a11.59 11.59 0 00-2.19.168c-.993-.123-2-.044-3.003.395-.426.185-.774.43-1.09.698a1.476 1.476 0 00-.975-.114c-3.398.847-2.76 5.45-2.217 7.972a19.493 19.493 0 002.127 5.524c.482 1.33 1.148 2.62 1.835 3.783.264.45.737.644 1.219.666a93.633 93.633 0 003.225 4.598c.448.598 1.244.968 1.955.586 1.929 3.333 4.437 6.53 8.51 7.057.239.031.475.045.71.051.79.331 1.645.501 2.453.36.015.015.019.037.035.051.617.567 1.505.57 2.12 0 1.067-.986 1.765-2.192 2.258-3.494.73-.939 1.098-2.1.86-3.355.029-.179.044-.356.07-.535.017-.046.03-.093.048-.138.068-.145.153-.28.236-.417h.002c.055-.01.06-.012.055-.014.014 0 .028 0 .075-.003.137-.008.269-.004.405-.002h.039c-.001.003.006.006.019.01.088.314.288.59.552.787.998 6.586 4.306 12.437 9.377 16.838 4.169 3.616 9.068 6.215 14.212 8.151.325.555.874.99 1.525 1.262a621.447 621.447 0 0030.339 11.81c.408.148.834.135 1.239.025 6.752 1.963 13.853 2.722 20.863 2.17.765-.06 1.464-.4 1.925-.946.113-.032.223-.074.324-.137l3-1.883a1.59 1.59 0 00.652-.804l.509-.246c.005-.003.01-.008.015-.01.222-.075.42-.188.589-.355l1.886-1.49c.146-.136.249-.297.31-.483.094-.178.137-.37.13-.578a1.139 1.139 0 00-.13-.578M252.05 131.35c-.89-.01-1.404.699-1.5 1.5-.533 4.459-2.855 8.872-6.533 11.52-3.839 2.766-8.846 3.494-13.268 1.79-.067-.026-.13-.038-.194-.053a1.552 1.552 0 00-.916-.332c-.142 0-.272.024-.397.058.006-.087.008-.173.012-.26 1.268-.408 1.594-2.511.002-2.858l-1.747-.381c-1.082-1.521-2.577-3.71-4.497-2.385-.42.29-.698.717-.909 1.188a1.254 1.254 0 00-.348.279c-.883 1.043-1.382 2.328-1.376 3.647a129.037 129.037 0 01-3.58 9.25c-.154.355-.17.719-.092 1.049-3.02 1.008-5.72 2.706-7.892 5.03a1.548 1.548 0 00-.398-.225c-1.082-.401-2.137-.42-3.259-.192a1.224 1.224 0 00-.318.114c-.17.005-.339.02-.509.039-.948-.413-2.226.147-2.136 1.289-.43.308-.66.83-.396 1.494l4.312 10.806.002.004.165.637 1.27 7.346c.121.704.792 1.066 1.457 1.066-.145.276-.29.554-.436.829-.903 1.705 1.686 3.223 2.59 1.514 1.89-3.568 3.615-7.13 4.06-11.192.37-3.364-.08-6.751-.659-10.081 1.447.048 2.898-.15 4.274-.621 2.364-.808 4.23-2.323 5.954-4.092 2.72-2.788 5.078-6.011 5.992-9.788 5.028 1.608 10.791.559 15.023-2.577 4.481-3.318 7.093-8.435 7.747-13.912.097-.812-.759-1.492-1.5-1.5" fill="#C3996B"/><path d="M243.303 231.176c-.225-.35-.514-.538-.896-.69l-4.019-1.595c-.245-.097-.579-.065-.86.025-.022-.03-.039-.06-.06-.09-1.344-1.695-3.334-2.535-5.215-3.48-1.892-.95-3.698-2.096-5.326-3.451a28.905 28.905 0 01-2.502-2.354c.136-.501-.018-1.047-.372-1.48-3.034-3.73-6.167-7.676-7.004-12.541-.138-.8-1.12-1.247-1.846-1.048-.844.232-1.185 1.044-1.047 1.846.39 2.265 1.243 4.354 2.346 6.322-.026.26.01.539.144.824a31.02 31.02 0 007.94 10.367 31.306 31.306 0 005.388 3.709c1.87 1.007 4.013 1.692 5.371 3.408.35.442.978.518 1.508.352.2.22.44.365.737.483l4.02 1.596c.338.135.854.026 1.155-.151.311-.182.608-.54.69-.897.086-.384.068-.814-.152-1.155m-38.433-42.685c-1.466-1.974-3.702-3.77-6.314-3.575-2.492.186-4.818 2.118-4.822 4.736a1.38 1.38 0 00.034.31c-1.517 2.295-1.692 5.383-.44 7.85.365.723 1.382.93 2.051.538.735-.429.906-1.327.538-2.052-.012-.025-.099-.213-.118-.246a5.617 5.617 0 01-.295-1.068 7.558 7.558 0 01-.014-.088c.01.071-.017-.269-.019-.319a6.553 6.553 0 01.023-.887l.004-.038a6.46 6.46 0 01.271-1.079c.012-.034.09-.222.102-.26a5.399 5.399 0 01.612-1.031c.04-.04.155-.175.17-.19.1-.11.205-.214.314-.314.001 0 .194-.162.215-.186a4.81 4.81 0 01.332-.223c.13-.08.264-.155.4-.226.001 0 .203-.09.251-.115.27-.103.546-.189.827-.254.125-.029.252-.053.378-.073.047-.002.25-.024.287-.026.31-.019.612-.004.921.008.062.003.093.003.112.002a.958.958 0 00.098.024c.15.03.3.058.45.096.671.171.946.3 1.58.738.54.375 1.372.21 1.817-.235.434-.434.626-1.29.234-1.817" fill="#C3996B"/><path d="M271.144 167.95c-.397-1.7-.765-3.44-1.384-5.076-.582-1.536-1.605-2.887-2.144-4.422-.448-1.273-1.71-2.12-3.076-1.746-1.234.34-2.195 1.796-1.746 3.076.552 1.568 1.53 2.893 2.144 4.421.603 1.498.925 3.134 1.296 4.7.777 3.28 1.445 6.597 1.864 9.943.168 1.34 1.029 2.5 2.5 2.5 1.22 0 2.67-1.152 2.5-2.5a105.615 105.615 0 00-1.954-10.896m45.036 1.139l-.409-3.639a.509.509 0 00-.306-.414c0-.116-.018-.23-.013-.347.03-.644-.97-.643-1 0-.067 1.478.372 2.896.688 4.324.025.111.044.224.068.336.16 1.416.318 2.832.476 4.248.07.623.996.659 1 0 .008-1.518-.193-3.026-.505-4.508" fill="#E4C3A2"/><path d="M266.44 187.337c-.634 3.566-1.615 7.98-4.799 10.163-3.284 2.25-8.036 2.204-11.556.56-3.246-1.517-5.602-4.358-6.678-7.705a.843.843 0 00.032-.739c-1.439-3.399-2.94-6.956-3.11-10.693-.16-3.567 1.151-6.829 2.891-9.876 1.662-2.91 3.467-5.924 5.653-8.473a17.92 17.92 0 011.525-1.57c-.3 1.266-.292 2.651-.164 3.866.338 3.216 1.663 6.248 3.577 8.836a28.531 28.531 0 006.501 6.35c1.981 1.387 4.46 2.103 6.621 1.065a36.668 36.668 0 01-.494 8.216m2.023-10.063a39.45 39.45 0 00-3.979-13.894 16.016 16.016 0 00-1.702-3.61.83.83 0 00-.3-.28 16.524 16.524 0 00-.756-1.454c-.863-1.452-2.146-2.789-3.69-3.404a.721.721 0 00-.656-.354c-.199.002-.39.024-.585.037a4.703 4.703 0 00-1.72.103.742.742 0 00-.402.255c-4.46 1.237-7.634 5.244-10.109 9.08-3.276 5.077-6.548 10.346-5.749 16.644.373 2.934 1.398 5.71 2.524 8.43.002.015-.004.028-.002.044 1.402 8.53 10.488 14.19 18.746 11.221 4.198-1.509 6.166-5.14 7.264-9.244a38.627 38.627 0 001.116-13.574m24.896 17.182c-2.042-2.717-4.134-5.396-6.188-8.104-1.986-2.618-4.385-6.168-2.517-9.49.52-.925-.902-1.756-1.422-.83-1.658 2.947-.715 6.327.998 9.018 2.083 3.272 4.683 6.274 7.036 9.355 1.343 1.76 6.009 8 1.414 8.763-1.946.323-3.975-.496-5.758-1.177a46.191 46.191 0 01-5.41-2.497c-.932-.503-1.765.92-.83 1.422 2.778 1.496 5.804 2.948 8.892 3.668 2.419.563 5.9.428 6.556-2.559.608-2.762-1.2-5.476-2.771-7.569m-42.629-44.978c-5.253 1.319-10.04 4.29-13.533 8.433-.68.804.48 1.975 1.164 1.164a24.622 24.622 0 0112.807-8.01c1.027-.258.592-1.846-.438-1.587m59.051.664c-4.072-3.508-9.534-4.211-14.705-4.562-1.057-.072-1.053 1.576 0 1.647 4.689.317 9.835.889 13.54 4.079.8.689 1.97-.471 1.165-1.164m4.31 32.2c-.42 2.666-1.361 5.735-3.324 7.694-1.16 1.158-3.087.81-4.575.586-1.544-.231-3.057-.701-4.343-1.608-4.501-3.18-5.117-10.122-5.7-15.116-.562-4.82-.549-10.031 1.176-14.577.755 3.617 2.681 7.058 6.123 8.703 3.014 1.439 7.433 1.328 9.662-1.275.496 2.233.784 4.519 1.013 6.783.294 2.915.426 5.905-.032 8.81m1.865-6.498c-.198-3.408-.623-6.887-1.418-10.208a29.424 29.424 0 00-.307-1.157.686.686 0 00-.111-.384c-.932-3.118-2.443-6.11-4.938-8.255a12.815 12.815 0 00-3.573-2.188c-.13-.102-.257-.207-.39-.305-1.025-.75-2.268-1.522-3.592-1.374a2.695 2.695 0 00-1.081.368.71.71 0 00-.897.152c-5.004 5.308-5.943 12.847-5.311 19.83.309 3.41.757 6.913 1.694 10.213.775 2.732 2.027 5.492 4.254 7.342 2.42 2.012 6.135 2.912 9.247 2.547 3.028-.356 4.702-4.306 5.497-6.842.981-3.13 1.114-6.487.926-9.74m-16.653 41.4c-1.577 5.123-6.377 9.125-11.77 9.512-5.529.396-10.842-2.929-13.164-7.899-.545-1.166-2.269-.15-1.727 1.01 2.646 5.664 8.967 9.466 15.243 8.86 6.167-.596 11.53-5.049 13.347-10.952.38-1.232-1.55-1.76-1.929-.53" fill="#231F20"/><g transform="translate(154 64.916)"><mask id="b" fill="#fff"><use xlink:href="#a"/></mask><path d="M171.048 137.386a.842.842 0 00-.286.534c-1.23 9.625-8.334 17.037-15.077 23.519-.322-.088-.697-.02-.947.314-4.09 5.46-6.691 12.604-12.565 16.504-6.53 4.334-14.805 2.959-21.877.903-3.937-1.144-7.794-2.567-11.667-3.908-4.346-1.504-8.69-3.01-13.035-4.512-7.66-2.652-15.522-5.225-22.215-9.931-6.144-4.32-11.24-10.936-11.985-18.547-.011-.09-.017-.178-.032-.267a19.649 19.649 0 01-.07-1.615c-.002-.814-.97-.998-1.42-.56-.475.123-.876.642-.566 1.205.23.414.366.853.443 1.298.017.18.032.362.054.54.067 1.41-.514 2.845-1.505 3.882-.849.888-1.94 1.397-3.105 1.624a1.69 1.69 0 00-1.056-.3c-3.56.253-6.227-2.973-8.412-5.342a131.582 131.582 0 01-8.142-9.705 2.67 2.67 0 00-.756-.681c-.112-.192-.233-.38-.343-.574l-.019-.037c-.008-.016-.02-.027-.027-.041-1.352-2.4-2.45-4.921-2.928-7.651-.23-1.304-.25-2.676.004-3.99.125-.116.245-.248.35-.411 1.065-1.643 2.83-2.728 4.73-3.101a5.351 5.351 0 002.34-.09 6.86 6.86 0 011.169.244c1.846.559 3.611 1.945 5.09 3.154 1.605 1.31 2.955 2.773 3.809 4.678.341.76 1.273 1.069 2.076.938.281.064.556.072.82.03a.828.828 0 00.446-.125c.551-.22.995-.672 1.194-1.302a9.385 9.385 0 00.416-3.33l.173-.576c.101-.333-.066-.715-.355-.905-.206-1.08-.558-2.138-1.003-3.17a52.666 52.666 0 00-7.91-19.71l1.622.618c1.276.487 2.587 1.13 3.942 1.35 1.124.183 2.174-.078 2.99-.701.714.325 1.562.356 2.242-.108a19.115 19.115 0 004.286-4 6.85 6.85 0 001.067-1.5 2.8 2.8 0 00.231-.613 24.114 24.114 0 002.533-5.464c2.69-2.391 3.511-6.292 3.441-9.953 2.772 3.319 6.848 5.473 11.175 5.948 5.599.617 10.991-2.023 14.364-6.452a16.34 16.34 0 002.255-4.074c.29-.516.566-1.038.83-1.567 2.22 3.676 5.74 6.636 9.99 7.535 5.061 1.07 10.177-1.314 12.686-5.846.544-.983.916-2.041 1.122-3.124.34 1.889.938 3.527 2.431 5.02.644.644 1.462 1.215 2.355 1.665 1.492 1.37 3.356 2.272 5.731 2.344 2.876.088 5.325-1.668 6.71-4.102 1.055-1.853 1.442-3.912 1.561-6.005 2.077 3.07 5.7 5.125 9.463 4.874 3.912-.261 7.293-2.787 8.953-6.208a8.127 8.127 0 002.621.892c.082.039.16.087.243.123-4.288 5.383-3.986 13.344-2.62 19.747 1.602 7.525 5.044 14.483 7.857 21.595 1.623 4.1 3.05 8.286 3.852 12.63.017.09.054.156.09.224a82.307 82.307 0 01.166 16.166m-53.166 51.449c-.763.768-1.98 1.147-3.007 1.404-1.096.274-2.359.403-3.418-.082-1.12-.513-1.592-1.711-2.351-2.603-.341-.4-.736-.691-1.167-.982-.656-.444-.587-.887-.608-1.636-.082-2.8-.163-5.601-.243-8.401a436.517 436.517 0 0010.48 3.51.792.792 0 00.035.313c.472 1.46.8 2.959.919 4.49.097 1.258.337 3.006-.64 3.987M106.456 3.692a9.546 9.546 0 01-2.403 1.297c.754-.504 1.56-.94 2.403-1.297m30.34 69.749c.025-.028.049-.06.074-.087-1.056 1.387-2.542 2.344-4.326 2.428 1.603-.374 3.12-1.11 4.251-2.341m6.784-5.025a9.634 9.634 0 01-2.386-3.011 26.27 26.27 0 002.386 3.01m27.922 48.319c-3.512-12.924-11.905-24.714-11.644-38.433.073-3.86 1-7.871 3.623-10.796.433.053.872.067 1.306.026 3.37-.32 5.95-3.04 7.167-6.038 1.464-3.607 1.529-7.916 1.356-11.753-.124-2.762-.576-5.584-1.627-8.16-.383-1.36-1.1-2.578-2.029-3.6-1.642-2.178-3.861-3.93-6.448-4.768-.013-.033-.029-.065-.04-.098.439-2.15.736-4.482-.35-6.48a5.09 5.09 0 00-1.571-1.764c-.492-2-1.3-3.782-2.702-5.248a6.68 6.68 0 00-1.721-2.295 6.537 6.537 0 00-4.578-1.527 10.445 10.445 0 00-2.16-3.106c-3.24-3.241-9.392-4.51-13.33-1.72-.293.208-.588.422-.885.636-.74-2.75-2.68-5.016-5.165-6.425-.194-.154-.38-.316-.589-.457-2.072-1.411-4.778-1.98-7.206-1.386a10.94 10.94 0 00-1.879-1.472 4.362 4.362 0 00-1.93-1.321c-.81-.271-1.663-.337-2.519-.323-1.941-.302-3.964-.131-5.84.592-.188.03-.377.05-.564.085-3.48.642-7.014 2.145-9.404 4.714-1.454.018-2.847-.333-3.912-1.167-3.177-2.487-6.488-3.485-9.773-2.86-3.447.316-5.918 2.658-8.364 4.963l-2.666 2.174c-2.549-1.43-5.084-2.918-7.712-4.18-2.522-1.21-5.355-2.051-8.118-1.15-5.303 1.727-7.258 7.257-8.518 12.199-3.996-2.398-8.986-3.045-13.466-1.712-1.496.444-2.89 1.135-4.172 1.985a14.964 14.964 0 00-5.922 4.757c-2.415 3.254-3.413 7.167-2.953 10.913-.7.282-1.52.435-2.058.646-1.099.43-2.157.957-3.15 1.597a18.612 18.612 0 00-6.066 6.396 15.206 15.206 0 00-2.966 5.578c-1.464 5.099-.23 9.986 2.553 14.048-3.438.86-6.656 2.589-9.06 5.223a14.553 14.553 0 00-3.542 7.047c-1.482 3.949-.968 8.6 2.357 11.652.175.162.36.306.542.455C.434 86.027-.495 90.96.23 94.503c.718 3.505 2.888 6.61 5.862 8.523a10.177 10.177 0 00-1.225 1.74c-.016.023-.035.043-.05.066a5.07 5.07 0 00-.68 1.523c-1.725 4.716-.276 11.03 4.612 13.419 1.141.557 1.255.379 1.712 1.09 1.047 1.63 2.319 2.806 3.698 3.629-.979 1.13-1.472 2.71-1.077 4.489.01.049.024.096.035.144-.035.302-.072.604-.086.906-.168 3.836 1.481 7.412 3.388 10.639 2.075 3.518 4.168 7.153 6.593 10.444 2.183 2.963 5.116 5.625 8.909 6.119 3.023.392 6.276-1.052 7.638-3.764a11.373 11.373 0 002.129 1.439c1.008 1.422 2.521 2.627 3.735 3.57 2.25 1.748 4.837 3.122 7.634 3.73 5.1 1.113 10.773-.536 13.813-4.924a32.793 32.793 0 002.493 2.454c6.328 5.554 14.365 8.604 22.203 11.343 4.617 1.615 9.233 3.265 13.858 4.88l.238 8.242c.033 1.16-.13 2.514.837 3.353.386.336.86.546 1.219.915.397.407.681.903 1.011 1.363 1.385 1.93 3.4 2.525 5.7 2.17 1.986-.306 4.567-1.186 5.418-3.184.553-1.298.424-2.884.297-4.255a21.42 21.42 0 00-.752-3.955c6.785 2.029 14.36 3.41 21.031.474 7.305-3.215 10.428-10.8 14.696-17.038a.763.763 0 00.44-.208c6.736-6.43 13.869-13.577 16.232-22.785a.865.865 0 00.595-.726c.948-7.663.809-15.395-.363-23.026-.054-.348-.27-.518-.523-.568" fill="#231F20" mask="url(#b)"/></g></g></svg>