<?xml version="1.0" encoding="UTF-8"?>
<svg width="500px" height="600px" viewBox="0 0 500 600" version="1.1" xmlns="http://www.w3.org/2000/svg" xmlns:xlink="http://www.w3.org/1999/xlink">
    <title>tiredlookingstraight</title>
    <defs>
        <polygon id="path-1" points="0 0.0840269245 173.37498 0.0840269245 173.37498 192.101515 0 192.101515"></polygon>
    </defs>
    <g id="tiredlookingstraight" stroke="none" stroke-width="1" fill="none" fill-rule="evenodd">
        <g id="face" transform="translate(153.000000, 63.000000)">
            <g id="fill" transform="translate(32.415987, 61.628060)">
                <path d="M83.0243126,50.1499404 C83.0243126,59.7869404 77.1653126,67.5989404 69.9373126,67.5989404 C62.7093126,67.5989404 56.8503126,59.7869404 56.8503126,50.1499404 C56.8503126,40.5119404 62.7093126,32.6999404 69.9373126,32.6999404 C77.1653126,32.6999404 83.0243126,40.5119404 83.0243126,50.1499404" id="Fill-1" fill="#FEFEFE"></path>
                <path d="M130.659313,47.6264404 C130.659313,56.2824404 125.810313,63.2994404 119.828313,63.2994404 C113.846313,63.2994404 108.996313,56.2824404 108.996313,47.6264404 C108.996313,38.9714404 113.846313,31.9534404 119.828313,31.9534404 C125.810313,31.9534404 130.659313,38.9714404 130.659313,47.6264404" id="Fill-3" fill="#FEFEFE"></path>
                <path d="M110.058513,94.5717404 C109.229513,93.0967404 108.217513,91.6277404 106.879513,90.6167404 C106.106513,89.8857404 105.163513,89.3337404 104.145513,89.0157404 C103.292513,88.7507404 101.878513,88.6197404 100.810513,88.9317404 C99.9595126,88.9797404 99.1185126,89.1467404 98.3415126,89.5007404 C97.5395126,89.8657404 96.8765126,90.4707404 96.2725126,91.1017404 C95.0365126,92.3927404 93.9965126,93.8807404 93.2125126,95.4857404 C92.8575126,96.2137404 93.0155126,97.1077404 93.7505126,97.5377404 C94.3085126,97.8637404 95.1315126,97.7717404 95.5895126,97.2947404 C95.8475126,97.3937404 96.1475126,97.4217404 96.4845126,97.3377404 C100.355513,96.3737404 104.417513,96.1567404 108.364513,96.7747404 C109.613513,96.9707404 110.748513,95.7997404 110.058513,94.5717404" id="Fill-6" fill="#FEFEFE"></path>
                <path d="M86.7541126,122.40874 C86.5671126,121.73074 86.2361126,121.12874 85.8171126,120.59174 C85.7651126,120.44474 85.7131126,120.29874 85.6491126,120.15174 C85.4631126,119.72774 85.0931126,119.50874 84.6841126,119.44574 C84.3881126,119.20774 84.0761126,118.98774 83.7521126,118.78974 C82.2731126,117.88174 80.5901126,117.25474 78.9881126,116.60374 C78.3731126,116.35474 77.7051126,116.01474 77.0271126,115.91974 C76.6221126,115.46474 75.8621126,115.33874 75.3331126,115.57174 C74.6551126,115.86974 74.2641126,116.60374 74.4641126,117.34174 C74.5201126,117.54574 74.5561126,117.75074 74.6011126,117.95574 C74.5831126,118.05774 74.5661126,118.16174 74.5551126,118.26574 C74.3171126,120.36374 74.4571126,122.48574 74.8091126,124.56174 C74.8691126,124.91874 75.1031126,125.19974 75.4031126,125.38974 C75.4061126,125.40274 75.4071126,125.41674 75.4101126,125.42974 C75.4051126,125.42974 75.4001126,125.42974 75.3951126,125.43074 C75.7951126,127.14774 77.1441126,128.57374 78.8351126,129.07174 C79.7201126,129.33374 80.6631126,129.31074 81.5411126,129.05674 C82.1111126,129.57574 83.1141126,129.67774 83.6771126,129.07674 C84.2161126,128.50174 84.6391126,127.83874 84.9611126,127.13374 C85.2221126,127.08274 85.4781126,126.97874 85.6951126,126.77374 C86.8731126,125.66174 87.1741126,123.93374 86.7541126,122.40874" id="Fill-8" fill="#E4C3A2"></path>
                <path d="M78.0343126,126.40574 C78.4443126,126.13674 78.7453126,125.70474 78.6843126,125.19574 C78.4723126,123.44574 78.2613126,121.69674 78.0503126,119.94674 C78.0093126,119.60874 77.9703126,119.27374 77.9183126,118.94274 C78.0033126,118.85274 78.0833126,118.75374 78.1533126,118.63574 C78.5183126,118.01974 78.4033126,117.20974 77.9923126,116.65474 C77.4973126,115.98674 76.5753126,115.77274 75.8383126,116.18274 C75.8283126,116.18874 75.8223126,116.19674 75.8133126,116.20274 C75.6713126,116.16674 75.5323126,116.12574 75.3793126,116.10674 C74.7943126,116.03474 74.0243126,116.61974 73.9333126,117.20774 C73.3503126,120.93674 73.8753126,124.65174 75.5043126,128.06074 C75.8533126,128.79174 76.8993126,128.98374 77.5563126,128.59874 C78.3043126,128.16174 78.4453126,127.28074 78.0943126,126.54674 C78.0733126,126.50174 78.0553126,126.45174 78.0343126,126.40574" id="Fill-10" fill="#C3996B"></path>
                <path d="M124.886613,53.2348404 C124.885613,54.0768404 124.893613,54.9218404 124.901613,55.7678404 C123.941613,55.8918404 122.976613,56.3468404 122.114613,57.2728404 C121.786613,57.6238404 120.029613,60.3148404 119.407613,61.0128404 C119.407613,60.4248404 117.267613,58.4468404 117.218613,58.3878404 C116.355613,57.3508404 115.630613,56.2518404 115.005613,55.1048404 C114.005613,52.7158404 113.108613,50.2928404 112.427613,47.8038404 C112.286613,47.2938404 112.092613,46.8478404 111.862613,46.4528404 C112.056613,43.2088404 112.385613,39.9728404 112.861613,36.7578404 C112.875613,36.6648404 112.877613,36.5758404 112.886613,36.4848404 C112.798613,36.4968404 112.710613,36.5078404 112.623613,36.5198404 C112.345613,36.5308404 112.086613,36.4728404 111.845613,36.3458404 C111.595613,36.2648404 111.379613,36.1268404 111.197613,35.9288404 C111.000613,35.7468404 110.861613,35.5298404 110.779613,35.2798404 C110.653613,35.0398404 110.595613,34.7808404 110.605613,34.5028404 C110.606613,34.4478404 110.608613,34.3918404 110.613613,34.3378404 C110.623613,34.2238404 110.641613,34.1098404 110.657613,33.9998404 C110.671613,33.8898404 110.683613,33.7748404 110.702613,33.6648404 C110.718613,33.5768404 110.740613,33.4888404 110.768613,33.4038404 C110.782613,33.3618404 110.798613,33.3188404 110.815613,33.2778404 C110.894613,33.0828404 110.975613,32.8868404 111.062613,32.6948404 C111.096613,32.6188404 111.134613,32.5438404 111.171613,32.4678404 C111.350613,32.1658404 111.592613,31.9238404 111.895613,31.7448404 C112.055613,31.6768404 112.216613,31.6088404 112.377613,31.5418404 C112.385613,31.5388404 112.393613,31.5398404 112.402613,31.5378404 C112.510613,31.2878404 112.622613,31.0408404 112.756613,30.8028404 C112.970613,30.4218404 113.241613,30.0758404 113.518613,29.7378404 C113.542613,29.7098404 113.574613,29.6918404 113.599613,29.6658404 C113.734613,29.3798404 113.881613,29.0998404 114.074613,28.8398404 C114.253613,28.5368404 114.494613,28.2958404 114.798613,28.1168404 L115.280613,27.9128404 C115.637613,27.8168404 115.995613,27.8168404 116.352613,27.9128404 L116.834613,28.1168404 C117.070613,28.2428404 117.258613,28.4168404 117.400613,28.6358404 C117.428613,28.6658404 117.445613,28.7028404 117.469613,28.7338404 C118.264613,28.5708404 119.022613,28.2098404 119.657613,27.5888404 C119.884613,28.3368404 120.159613,29.0778404 120.456613,29.8148404 C121.430613,30.5538404 122.435613,31.2488404 123.399613,32.0028404 C124.189613,32.6208404 124.922613,33.3058404 125.548613,34.0928404 C126.160613,34.8638404 126.827613,35.6948404 127.127613,36.6518404 C127.486613,37.7978404 126.974613,39.0318404 125.940613,39.6238404 C125.514613,39.8678404 125.040613,40.0168404 124.560613,40.1398404 C125.583613,43.0678404 126.466613,46.0478404 127.336613,49.0278404 C125.929613,49.7898404 124.890613,51.2108404 124.886613,53.2348404 M108.777613,96.6728404 C105.272613,97.6308404 101.598613,97.6278404 98.0006126,97.8978404 C97.7896126,97.9138404 97.5826126,97.8798404 97.3846126,97.8118404 C96.8696126,98.2008404 96.1476126,98.3468404 95.5446126,98.2098404 C94.4136126,97.9528404 93.9516126,96.7628404 94.1356126,95.7278404 C94.4196126,94.1188404 95.2186126,92.6148404 96.3356126,91.4278404 C98.2046126,89.4438404 101.061613,88.4158404 103.760613,88.7778404 C106.872613,89.1958404 109.113613,91.2998404 110.186613,94.1918404 C110.566613,95.2158404 109.762613,96.4048404 108.777613,96.6728404 M83.1616126,49.3088404 C83.0256126,49.5668404 82.8166126,49.7698404 82.5776126,49.9308404 C82.6046126,50.2558404 82.6316126,50.5798404 82.6656126,50.9028404 C82.6896126,51.0468404 82.7106126,51.1928404 82.7456126,51.3358404 C82.8786126,51.8798404 82.8006126,52.4018404 82.5426126,52.8898404 C82.4866126,52.9968404 82.4156126,53.0908404 82.3396126,53.1808404 C82.2526126,53.3368404 82.1526126,53.4818404 82.0296126,53.5948404 C81.7716126,53.8318404 81.4716126,54.0058404 81.1396126,54.1138404 C80.8716126,54.1978404 80.6026126,54.2098404 80.3346126,54.1498404 C80.1526126,54.1488404 79.9836126,54.1028404 79.8256126,54.0118404 C79.5756126,53.9308404 79.3596126,53.7918404 79.1766126,53.5948404 C79.0716126,53.4588404 78.9666126,53.3228404 78.8616126,53.1868404 C78.8176126,53.0988404 78.7836126,53.0078404 78.7436126,52.9198404 C78.1376126,55.6508404 77.5596126,58.3898404 77.0526126,61.1468404 C76.8786126,62.0928404 76.9626126,62.9488404 77.2036126,63.7138404 C76.5796126,65.8968404 76.7996126,66.3988404 74.7706126,66.2078404 C72.2406126,65.9688404 68.5466126,62.8868404 66.2926126,61.6848404 C64.6076126,60.7858404 62.9796126,60.9198404 61.6686126,61.6238404 C60.7156126,57.4738404 60.1586126,53.2318404 59.9796126,48.9638404 C59.8896126,46.8148404 58.7036126,45.3858404 57.1786126,44.6738404 L58.2586126,41.9678404 L71.4056126,30.4308404 C72.8676126,32.5408404 75.2696126,33.0788404 77.3606126,34.4288404 C77.6506126,34.7978404 77.9606126,35.1278404 78.2976126,35.3838404 C79.2506126,37.4388404 80.1026126,39.5268404 80.8976126,41.6358404 C80.8656126,41.8768404 80.8316126,42.1158404 80.7996126,42.3558404 C81.8726126,44.0308404 83.0426126,45.7518404 83.3656126,47.7548404 C83.4556126,48.3188404 83.4306126,48.7998404 83.1616126,49.3088404 M139.058613,65.6098404 C139.046613,65.1668404 138.963613,64.7548404 138.847613,64.3598404 C138.956613,62.5748404 138.906613,60.8058404 138.657613,58.9718404 C138.362613,56.7878404 138.238613,53.6488404 136.461613,52.0968404 C136.430613,52.0698404 136.396613,52.0508404 136.365613,52.0248404 C135.850613,49.8738404 135.233613,47.7498404 134.482613,45.6548404 C134.190613,44.8408404 133.699613,44.2568404 133.112613,43.8688404 C132.413613,41.5318404 131.681613,39.2058404 130.838613,36.9198404 C130.605613,36.2888404 130.245613,35.8088404 129.822613,35.4378404 C128.961613,33.1148404 128.115613,30.7768404 127.786613,28.3108404 C127.472613,25.9578404 127.096613,23.8318404 126.261613,21.5938404 C126.236613,21.5268404 126.198613,21.4728404 126.171613,21.4088404 C126.277613,19.4258404 126.420613,17.4458404 126.648613,15.4698404 C126.672613,15.2568404 126.660613,15.0498404 126.632613,14.8458404 C126.757613,14.1078404 126.635613,13.4598404 126.341613,12.9178404 C126.836613,11.8518404 127.364613,10.8028404 127.964613,9.77284035 C127.991613,9.73484035 128.021613,9.70084035 128.049613,9.66184035 C128.590613,8.87084035 129.132613,8.07984035 129.674613,7.28884035 C132.957613,2.49684035 126.263613,-2.03615965 122.255613,0.963840352 C122.089613,1.06984035 121.927613,1.18784035 121.770613,1.31784035 C119.771613,1.23784035 117.750613,2.29484035 116.950613,4.84784035 L116.656613,5.79084035 C116.415613,5.87384035 116.177613,5.98484035 115.942613,6.12684035 C114.915613,2.12984035 109.273613,-0.119159648 107.007613,4.52484035 C106.990613,4.55884035 106.975613,4.59184035 106.959613,4.62584035 C105.078613,4.38284035 103.102613,5.07384035 102.117613,6.98384035 C101.490613,8.20084035 100.900613,9.42784035 100.330613,10.6628404 C99.7376126,10.5728404 99.1266126,10.5768404 98.5236126,10.6858404 C98.9616126,8.25084035 97.8786126,6.42884035 96.2676126,5.48784035 C93.9106126,2.43284035 87.5756126,3.54084035 87.1366126,8.59684035 C87.1146126,8.86284035 87.0846126,9.12684035 87.0606126,9.39184035 C86.9706126,9.22884035 86.8856126,9.06484035 86.7796126,8.90984035 L86.7086126,8.38884035 C86.3656126,5.87584035 82.8366126,4.02784035 80.5576126,4.89684035 C79.5296126,5.28984035 78.5306126,5.71184035 77.5446126,6.15084035 C77.0206126,3.02684035 73.8636126,0.520840352 70.3166126,2.61284035 C69.4566126,3.12084035 68.6266126,3.66584035 67.7906126,4.20284035 C66.5596126,4.14584035 65.2866126,4.54384035 64.2076126,5.57484035 C61.7766126,7.89784035 59.3446126,10.2218404 56.9126126,12.5468404 C56.8706126,12.5328404 56.8286126,12.5258404 56.7856126,12.5138404 C57.2986126,7.55184035 50.3746126,5.64784035 47.4316126,9.73984035 C46.2236126,11.4198404 45.0856126,13.1318404 43.9996126,14.8728404 C43.5536126,12.1418404 40.4916126,10.8038404 37.8876126,11.2718404 C35.4606126,10.4498404 32.4766126,11.2858404 31.5216126,14.5118404 C31.0856126,15.9838404 30.6336126,17.4478404 30.1706126,18.9088404 C30.0416126,19.0798404 29.9176126,19.2578404 29.8046126,19.4558404 C28.1116126,22.4108404 26.3346126,25.3118404 24.4316126,28.1368404 C24.3236126,27.6768404 24.2196126,27.2158404 24.1106126,26.7568404 C22.7536126,21.0078404 14.6786126,22.6948404 14.2896126,28.0868404 C14.2806126,28.2098404 14.2786126,28.3318404 14.2696126,28.4558404 C13.0536126,29.2228404 12.1246126,30.5658404 11.9366126,32.5098404 C11.7116126,34.8458404 12.1186126,37.3158404 13.0666126,39.4098404 C13.7356126,42.3728404 14.6436126,45.2578404 15.7956126,48.1548404 C15.8036126,48.1928404 15.8106126,48.2308404 15.8186126,48.2688404 C15.8246126,48.2658404 15.8316126,48.2628404 15.8386126,48.2608404 C15.9986126,48.6618404 16.1526126,49.0618404 16.3226126,49.4638404 C16.9466126,50.9398404 17.9936126,51.6988404 19.1596126,51.9428404 C19.9416126,56.0028404 20.9206126,60.0258404 22.1186126,64.0088404 C21.6116126,64.1078404 21.1046126,64.2658404 20.6136126,64.5328404 C20.2616126,64.7228404 19.9076126,64.9158404 19.5466126,65.0918404 C19.6126126,65.0508404 19.5286126,65.0718404 19.3796126,65.1198404 C19.2476126,65.0108404 19.1116126,64.9088404 18.9706126,64.8118404 C17.2126126,61.7738404 14.9046126,59.0618404 12.1126126,56.8878404 C10.9326126,55.9698404 9.52661259,55.4348404 8.15361259,55.4908404 C7.80061259,55.4188404 7.42861259,55.3728404 7.02461259,55.3748404 C4.49761259,55.3838404 2.46261259,56.5678404 1.32761259,58.8398404 C0.00961258704,61.4778404 0.947612587,64.0908404 2.25861259,66.4858404 C2.58261259,70.1968404 5.30761259,73.2598404 7.59461259,76.0968404 C10.2666126,79.4128404 13.2646126,82.5438404 16.5696126,85.2368404 C19.5376126,87.6558404 23.6976126,88.6398404 26.4476126,85.2878404 C28.1516126,83.2098404 28.0006126,81.2748404 27.2586126,78.8328404 C27.2486126,78.8008404 27.2396126,78.7718404 27.2296126,78.7408404 C27.2786126,78.7418404 27.3246126,78.7478404 27.3746126,78.7478404 C27.6886126,78.7478404 27.9836126,78.7168404 28.2676126,78.6718404 C28.7276126,83.5548404 30.9356126,88.3618404 33.4546126,92.8478404 C33.9696126,93.7658404 34.6346126,94.3918404 35.3676126,94.7838404 C36.7736126,96.9938404 38.7906126,98.4438404 40.9866126,100.17784 C42.1616126,101.10684 43.3106126,102.16084 44.6236126,102.88984 C45.7366126,103.50784 47.2466126,103.68984 47.9676126,104.24684 C48.6836126,104.79884 49.5476126,105.01184 50.4266126,104.97984 C58.5386126,108.98684 67.6146126,111.48884 75.9746126,114.41784 C78.4526126,115.28484 81.4236126,116.74884 84.2106126,116.92184 C84.8156126,117.23484 85.4266126,117.52684 86.0456126,117.79184 C86.2386126,117.98984 86.4486126,118.17484 86.6876126,118.33984 C88.2066126,119.38584 89.4276126,119.73684 91.2696126,119.54984 C91.4156126,119.53584 91.5546126,119.50884 91.6946126,119.48484 C93.1096126,119.73784 94.5426126,119.86784 95.9826126,119.87584 C96.1046126,119.89384 96.2216126,119.92584 96.3446126,119.93884 C97.5006126,120.05784 98.6536126,120.05084 99.7936126,119.94884 C100.191613,120.07684 100.630613,120.15184 101.103613,120.17684 C101.235613,120.20384 101.367613,120.22884 101.499613,120.25584 C102.830613,120.51984 104.151613,120.45484 105.352613,119.75184 C105.420613,119.71184 105.486613,119.65684 105.553613,119.61184 C111.148613,117.96884 115.011613,113.08284 118.173613,108.08484 C118.535613,107.51284 118.759613,106.94784 118.875613,106.39784 C120.470613,104.53884 121.933613,102.60084 123.277613,100.59284 C124.203613,100.43984 125.135613,99.9368404 125.976613,98.9638404 C126.125613,98.7938404 126.263613,98.6178404 126.409613,98.4458404 C128.472613,97.6458404 129.474613,95.9428404 129.629613,94.1638404 C129.650613,94.1318404 129.671613,94.0998404 129.692613,94.0688404 C130.049613,93.8398404 130.401613,93.5618404 130.744613,93.2118404 C131.326613,92.6188404 131.907613,92.0248404 132.489613,91.4308404 C133.384613,90.5188404 133.832613,89.5288404 133.949613,88.5578404 C135.337613,86.2178404 136.445613,83.7618404 137.250613,81.1198404 C137.302613,80.9868404 137.368613,80.8668404 137.410613,80.7238404 C138.632613,76.5768404 139.318613,72.3808404 139.595613,68.0688404 C139.656613,67.1108404 139.440613,66.2968404 139.058613,65.6098404" id="Fill-12" fill="#E4C3A2"></path>
                <path d="M82.3393126,53.1811404 C82.2523126,53.3361404 82.1523126,53.4821404 82.0293126,53.5951404 C81.7723126,53.8311404 81.4723126,54.0061404 81.1393126,54.1141404 C80.8713126,54.1981404 80.6033126,54.2091404 80.3353126,54.1501404 C80.1523126,54.1491404 79.9833126,54.1031404 79.8253126,54.0121404 C79.5753126,53.9311404 79.3593126,53.7911404 79.1763126,53.5951404 C79.0713126,53.4581404 78.9663126,53.3231404 78.8613126,53.1871404 C78.5763126,52.6101404 78.3603126,52.0051404 78.1243126,51.4091404 C78.0203126,51.1731404 77.9113126,50.9401404 77.7763126,50.7201404 C77.6613126,50.5351404 77.5973126,50.3321404 77.5563126,50.1251404 C75.9963126,50.6661404 74.8283126,52.1341404 75.5033126,54.1671404 C75.9813126,55.6101404 75.4493126,60.0521404 74.2383126,63.1871404 C74.0023126,62.9711404 73.7413126,62.7941404 73.4643126,62.6551404 C73.2683126,62.3971404 73.0623126,62.1431404 72.8543126,61.9011404 C72.3833126,61.3541404 71.8663126,60.8561404 71.3093126,60.3991404 C70.2563126,59.5351404 68.8093126,58.2961404 67.4213126,58.0541404 C66.6303126,57.9161404 65.8603126,57.9901404 65.1813126,58.2501404 C64.7383126,57.1281404 64.5313126,55.9421404 64.5813126,54.6081404 C64.6213126,53.5471404 64.2563126,52.7471404 63.6843126,52.1861404 C63.7353126,51.9381404 63.7993126,51.6751404 63.8923126,51.3791404 C64.0893126,50.7491404 64.2763126,50.4221404 64.6873126,49.7541404 C64.8363126,49.5111404 64.9373126,49.2521404 65.0143126,48.9881404 C65.0273126,48.9681404 65.0393126,48.9491404 65.0523126,48.9291404 C65.5023126,48.2501404 65.6063126,47.4401404 65.4723126,46.6611404 C65.4183126,45.9501404 65.1523126,45.2661404 64.6533126,44.7231404 C64.6463126,44.6761404 64.6303126,44.6291404 64.6213126,44.5821404 C65.2433126,44.3241404 65.8043126,43.8361404 66.2113126,43.0491404 C67.4003126,40.7481404 68.6003126,38.1591404 70.8813126,36.7661404 C74.7193126,34.4201404 71.2063126,28.3641404 67.3483126,30.7211404 C63.9653126,32.7871404 61.9433126,36.0781404 60.1673126,39.5161404 C59.7183126,40.3841404 59.6693126,41.2251404 59.8613126,41.9781404 C59.4293126,42.1421404 59.0333126,42.3881404 58.7303126,42.7371404 C58.5323126,42.9621404 58.3583126,43.1891404 58.1863126,43.4161404 C58.0053126,43.5261404 57.8263126,43.6451404 57.6573126,43.7781404 C55.4263126,45.5321404 55.1213126,49.3451404 55.1040562,51.9831404 C55.1003126,52.6941404 55.1433126,53.3911404 55.2193126,54.0801404 C55.1923126,54.3121404 55.1813126,54.5561404 55.2013126,54.8191404 C55.6083126,60.2651404 58.0433126,67.9141404 62.5863126,71.3151404 C65.1063126,73.2011404 68.3023126,73.9621404 71.2423126,73.4751404 C71.3333126,73.4731404 71.4143126,73.4871404 71.5093126,73.4791404 C76.0343126,73.0921404 79.0643126,70.2191404 80.5363126,65.9871404 C81.8163126,62.3051404 83.3933126,56.9941404 82.4513126,53.0201404 C82.4143126,53.0741404 82.3813126,53.1311404 82.3393126,53.1811404" id="Fill-14" fill="#FEFEFE"></path>
                <path d="M129.220113,48.3315404 C129.227113,48.3105404 129.238113,48.2925404 129.245113,48.2705404 C129.712113,46.7385404 129.716113,44.9595404 129.169113,43.4455404 C128.922113,42.7595404 128.567113,42.1595404 128.029113,41.6985404 C127.924113,41.1325404 127.818113,40.5655404 127.718113,39.9975404 C127.619113,39.4355404 127.330113,38.9605404 126.945113,38.5655404 C126.721113,38.9965404 126.382113,39.3705404 125.940113,39.6235404 C125.232113,40.0295404 124.394113,40.1835404 123.609113,40.3665404 C122.640113,40.5945404 121.725113,40.1605404 121.283113,39.3225404 C120.921113,40.0755404 120.811113,40.9685404 120.968113,41.8585404 C121.359113,44.0825404 122.271113,46.7765404 121.931113,49.0505404 C121.724113,50.4315404 122.083113,51.8235404 123.082113,52.6775404 C122.898113,53.7515404 122.661113,54.8135404 122.363113,55.8675404 C122.144113,56.6445404 121.897113,57.4095404 121.621113,58.1675404 C121.610113,58.1995404 121.596113,58.2305404 121.585113,58.2625404 C121.560113,58.2845404 121.533113,58.2985404 121.509113,58.3215404 C121.481113,58.3485404 121.262113,58.3935404 121.212113,58.4225404 C121.069113,58.3735404 120.783113,58.2735404 120.687113,58.2275404 C120.298113,58.0445404 120.047113,57.8655404 119.874113,57.6455404 C119.861113,57.0905404 119.703113,56.5035404 119.313113,55.9055404 C118.582113,54.7855404 118.291113,53.6615404 117.988113,52.3605404 C117.782113,51.4765404 117.108113,49.7865404 117.296113,48.9095404 C117.474113,48.0785404 117.376113,47.3385404 117.095113,46.7125404 C117.035113,46.2215404 116.852113,45.7285404 116.479113,45.2695404 C116.509113,44.8805404 116.541113,44.4905404 116.575113,44.1025404 C116.647113,43.3025404 116.718113,42.4995404 116.834113,41.7055404 C117.066113,40.1155404 117.412113,38.4435404 118.040113,36.9565404 C118.759113,35.2575404 118.553113,33.3555404 116.930113,32.2755404 C116.918113,32.3265404 116.901113,32.3755404 116.891113,32.4265404 C116.795113,32.7685404 116.622113,33.0645404 116.372113,33.3165404 L115.964113,33.6325404 C115.929113,33.6525404 115.891113,33.6595404 115.856113,33.6775404 C115.652113,34.1955404 115.455113,34.7175404 115.236113,35.2305404 C115.057113,35.5335404 114.816113,35.7745404 114.512113,35.9545404 L114.031113,36.1575404 C113.911113,36.1965404 113.788113,36.2165404 113.665113,36.2265404 C113.509113,36.3205404 113.342113,36.3965404 113.160113,36.4475404 C112.981113,36.4725404 112.802113,36.4965404 112.623113,36.5195404 C112.345113,36.5305404 112.086113,36.4735404 111.846113,36.3465404 C111.596113,36.2655404 111.379113,36.1265404 111.197113,35.9295404 C111.171113,35.9045404 111.154113,35.8755404 111.130113,35.8505404 C110.484113,37.8465404 110.049113,39.8615404 109.791113,42.0185404 C109.519113,44.2815404 108.926113,47.0815404 110.362113,49.0005404 C110.376113,50.5495404 110.744113,52.0445404 111.102113,53.6225404 C111.494113,55.3485404 111.950113,57.0465404 112.780113,58.6025404 C112.787113,58.6445404 112.786113,58.6875404 112.795113,58.7305404 C113.608113,62.6115404 117.255113,65.1525404 120.933113,65.2935404 C121.692113,65.7045404 122.568113,65.8585404 123.379113,65.5275404 C124.615113,65.0245404 125.856113,64.6175404 126.727113,63.5525404 C127.608113,62.4755404 128.052113,60.9495404 128.509113,59.6495404 C129.509113,56.8045404 130.030113,53.8555404 130.337113,50.8625404 C130.438113,49.8795404 129.952113,48.9755404 129.220113,48.3315404" id="Fill-16" fill="#FEFEFE"></path>
                <path d="M116.006513,113.02984 C115.945513,112.84284 115.842513,112.68284 115.696513,112.54684 C115.410513,112.28484 115.035513,112.08984 114.635513,112.10784 C114.502513,112.12584 114.369513,112.14284 114.236513,112.16084 C113.982513,112.23184 113.762513,112.36084 113.575513,112.54684 L111.899513,113.87084 C111.830513,113.89484 111.760513,113.89984 111.692513,113.93284 C110.423513,114.54884 109.153513,115.16284 107.884513,115.77784 C107.551513,115.60684 107.185513,115.50884 106.796513,115.53984 C99.7895126,116.09184 92.8295126,115.31984 86.1215126,113.21984 C85.6975126,113.08884 85.3115126,113.07284 84.9615126,113.13484 C76.2885126,109.99884 67.6895126,106.66484 59.1645126,103.14684 C58.9345126,102.48784 58.4325126,101.91584 57.5795126,101.64484 C46.7805126,98.2268404 35.2035126,91.1248404 34.0355126,78.7258404 C33.9085126,77.3818404 32.9765126,76.2258404 31.5355126,76.2258404 C31.1745126,76.2258404 30.8075126,76.3298404 30.4645126,76.4968404 C29.6235126,75.9718404 28.5135126,75.8228404 27.5925126,76.1688404 C27.2455126,76.2998404 26.9595126,76.4668404 26.6825126,76.6658404 C26.6405126,76.6628404 26.5995126,76.6538404 26.5585126,76.6548404 C26.1235126,76.6748404 25.7785126,76.8378404 25.5275126,77.0938404 C25.1875126,77.2378404 24.8645126,77.3998404 24.5745126,77.5818404 C23.9345126,77.9818404 23.3905126,78.4978404 22.9815126,79.1338404 C22.6225126,79.6908404 22.4715126,80.4858404 22.2285126,80.9478404 C22.0955126,81.2008404 22.2275126,80.9798404 22.0505126,81.1538404 C22.1385126,81.0668404 22.0425126,81.1148404 21.9915126,81.1528404 C18.9825126,80.6788404 16.5255126,78.2628404 14.4555126,76.1768404 C11.9875126,73.6908404 9.69451259,70.8988404 8.93151259,67.3978404 C8.87551259,67.1418404 8.77151259,66.9398404 8.63851259,66.7788404 C8.59351259,65.6828404 8.75151259,64.5838404 9.19151259,63.5168404 C9.69051259,62.3048404 10.6285126,61.0958404 11.9025126,60.6498404 C13.0415126,61.1948404 14.0965126,61.9288404 15.0005126,62.8508404 C15.6845126,63.5498404 16.5635126,63.3508404 17.0925126,62.8068404 C18.0155126,62.6758404 18.8865126,61.6588404 18.3335126,60.5508404 C17.2015126,58.2848404 14.6565126,57.2588404 12.2545126,57.5378404 C11.9565126,57.1018404 11.5895126,56.7468404 11.1605126,56.4678404 C10.9185126,56.0148404 10.4875126,55.6658404 9.90851259,55.6488404 C9.16051259,55.6288404 8.43451259,55.7018404 7.71751259,55.8168404 C6.72551259,55.6938404 5.71851259,55.7728404 4.71551259,56.2118404 C4.28951259,56.3978404 3.94151259,56.6418404 3.62651259,56.9108404 C3.32451259,56.7708404 2.98651259,56.7128404 2.65051259,56.7968404 C-0.748487413,57.6428404 -0.108487413,62.2448404 0.433512587,64.7688404 C0.850512587,66.7168404 1.58351259,68.5718404 2.56051259,70.2928404 C3.04251259,71.6218404 3.70851259,72.9118404 4.39451259,74.0758404 C4.65951259,74.5248404 5.13251259,74.7198404 5.61451259,74.7408404 C6.64351259,76.3048404 7.71751259,77.8398404 8.83951259,79.3398404 C9.28751259,79.9378404 10.0835126,80.3068404 10.7935126,79.9258404 C12.7235126,83.2578404 15.2315126,86.4558404 19.3055126,86.9828404 C19.5435126,87.0138404 19.7795126,87.0278404 20.0145126,87.0338404 C20.8035126,87.3648404 21.6595126,87.5338404 22.4675126,87.3938404 C22.4825126,87.4088404 22.4865126,87.4298404 22.5015126,87.4448404 C23.1195126,88.0118404 24.0075126,88.0138404 24.6235126,87.4448404 C25.6895126,86.4578404 26.3875126,85.2528404 26.8805126,83.9508404 C27.6115126,83.0108404 27.9785126,81.8508404 27.7405126,80.5948404 C27.7695126,80.4168404 27.7845126,80.2398404 27.8105126,80.0598404 C27.8275126,80.0138404 27.8405126,79.9668404 27.8585126,79.9228404 C27.9265126,79.7768404 28.0115126,79.6408404 28.0945126,79.5048404 L28.0965126,79.5048404 C28.1515126,79.4958404 28.1565126,79.4928404 28.1505126,79.4918404 C28.1645126,79.4918404 28.1795126,79.4908404 28.2265126,79.4888404 C28.3635126,79.4808404 28.4955126,79.4848404 28.6315126,79.4868404 L28.6695126,79.4868404 C28.6695126,79.4888404 28.6765126,79.4918404 28.6895126,79.4958404 C28.7775126,79.8108404 28.9775126,80.0868404 29.2415126,80.2828404 C30.2395126,86.8698404 33.5475126,92.7198404 38.6185126,97.1208404 C42.7865126,100.73684 47.6865126,103.33684 52.8305126,105.27184 C53.1555126,105.82684 53.7045126,106.26084 54.3555126,106.53484 C64.3635126,110.73484 74.4795126,114.67384 84.6945126,118.34484 C85.1025126,118.49184 85.5285126,118.47884 85.9335126,118.36984 C92.6855126,120.33284 99.7865126,121.09184 106.796513,120.53984 C107.561513,120.47884 108.260513,120.13784 108.721513,119.59384 C108.834513,119.56184 108.943513,119.51884 109.045513,119.45584 L112.045513,117.57284 C112.342513,117.38584 112.579513,117.10284 112.697513,116.76984 C112.867513,116.68784 113.036513,116.60584 113.206513,116.52384 C113.211513,116.52084 113.215513,116.51584 113.221513,116.51284 C113.443513,116.43884 113.642513,116.32484 113.810513,116.15884 L115.696513,114.66884 C115.842513,114.53284 115.945513,114.37184 116.006513,114.18484 C116.100513,114.00684 116.143513,113.81384 116.136454,113.60784 C116.143513,113.40084 116.100513,113.20884 116.006513,113.02984" id="Fill-18" fill="#C3996B"></path>
                <path d="M65.7096126,5.72115547 C64.8196126,5.71224035 64.3056126,6.42024035 64.2096126,7.22124035 C63.6776126,11.6802404 61.3556126,16.0932404 57.6776126,18.7422404 C53.8386126,21.5072404 48.8306126,22.2352404 44.4086126,20.5322404 C44.3416126,20.5052404 44.2796126,20.4942404 44.2146126,20.4782404 C43.9456126,20.2752404 43.6186126,20.1472404 43.2986126,20.1472404 C43.1566126,20.1472404 43.0266126,20.1702404 42.9026126,20.2042404 C42.9086126,20.1182404 42.9096126,20.0312404 42.9136126,19.9442404 C44.1826126,19.5362404 44.5086126,17.4342404 42.9156126,17.0862404 C42.3336126,16.9592404 41.7516126,16.8322404 41.1696126,16.7052404 C40.0876126,15.1842404 38.5926126,12.9972404 36.6716126,14.3212404 C36.2516126,14.6102404 35.9736126,15.0382404 35.7626126,15.5092404 C35.6396126,15.5802404 35.5186126,15.6642404 35.4146126,15.7872404 C34.5326126,16.8302404 34.0336126,18.1162404 34.0386126,19.4342404 C32.9626126,22.5622404 31.7736126,25.6502404 30.4586126,28.6852404 C30.3046126,29.0402404 30.2886126,29.4042404 30.3666126,29.7342404 C27.3456126,30.7412404 24.6466126,32.4402404 22.4746126,34.7632404 C22.3536126,34.6702404 22.2206126,34.5932404 22.0766126,34.5392404 C20.9956126,34.1382404 19.9396126,34.1192404 18.8176126,34.3472404 C18.7016126,34.3702404 18.5966126,34.4102404 18.4996126,34.4602404 C18.3296126,34.4662404 18.1606126,34.4822404 17.9906126,34.4992404 C17.0426126,34.0872404 15.7646126,34.6462404 15.8546126,35.7882404 C15.4246126,36.0962404 15.1946126,36.6182404 15.4586126,37.2832404 L19.7706126,48.0882404 C19.7716126,48.0902404 19.7726126,48.0912404 19.7726126,48.0932404 C19.8276126,48.3052404 19.8836126,48.5172404 19.9376126,48.7302404 C20.3606126,51.1782404 20.7846126,53.6272404 21.2076126,56.0752404 C21.3296126,56.7802404 21.9996126,57.1412404 22.6646126,57.1412404 C22.5196126,57.4182404 22.3746126,57.6952404 22.2286126,57.9702404 C21.3256126,59.6762404 23.9146126,61.1942404 24.8196126,59.4852404 C26.7086126,55.9172404 28.4336126,52.3562404 28.8786126,48.2932404 C29.2476126,44.9292404 28.7996126,41.5412404 28.2206126,38.2112404 C29.6666126,38.2592404 31.1176126,38.0622404 32.4936126,37.5912404 C34.8586126,36.7822404 36.7236126,35.2682404 38.4476126,33.4992404 C41.1676126,30.7112404 43.5256126,27.4872404 44.4406126,23.7112404 C49.4686126,25.3182404 55.2306126,24.2702404 59.4636126,21.1342404 C63.9436126,17.8152404 66.5556126,12.6992404 67.2096126,7.22124035 C67.3066126,6.41024035 66.4506126,5.72924035 65.7096126,5.72115547" id="Fill-20" fill="#C3996B"></path>
                <path d="M56.9628126,105.54734 C56.7378126,105.19934 56.4488126,105.01034 56.0668126,104.85834 C54.7268126,104.32634 53.3868126,103.79434 52.0478126,103.26234 C51.8038126,103.16534 51.4688126,103.19734 51.1868126,103.28834 C51.1658126,103.25934 51.1488126,103.22834 51.1258126,103.19934 C49.7848126,101.50234 47.7938126,100.66234 45.9128126,99.7183404 C44.0208126,98.7683404 42.2158126,97.6223404 40.5868126,96.2673404 C39.7018126,95.5303404 38.8698126,94.7413404 38.0848126,93.9133404 C38.2208126,93.4113404 38.0668126,92.8653404 37.7138126,92.4323404 C34.6788126,88.7033404 31.5458126,84.7573404 30.7088126,79.8923404 C30.5708126,79.0933404 29.5888126,78.6453404 28.8628126,78.8443404 C28.0188126,79.0763404 27.6778126,79.8883404 27.8158126,80.6893404 C28.2058126,82.9553404 29.0588126,85.0443404 30.1618126,87.0123404 C30.1358126,87.2733404 30.1718126,87.5503404 30.3068126,87.8363404 C32.1748126,91.7953404 34.9058126,95.3693404 38.2458126,98.2033404 C39.9108126,99.6163404 41.7108126,100.87634 43.6348126,101.91234 C45.5028126,102.91834 47.6468126,103.60334 49.0048126,105.32034 C49.3538126,105.76134 49.9828126,105.83734 50.5128126,105.67134 C50.7118126,105.89334 50.9518126,106.03634 51.2498126,106.15534 C52.5898126,106.68734 53.9288126,107.21934 55.2688126,107.75034 C55.6078126,107.88534 56.1238126,107.77634 56.4248126,107.60034 C56.7358126,107.41734 57.0328126,107.06134 57.1138126,106.70334 C57.2018126,106.31834 57.1828126,105.88834 56.9628126,105.54734" id="Fill-22" fill="#C3996B"></path>
                <path d="M18.5290126,62.8628404 C17.0640126,60.8898404 14.8280126,59.0938404 12.2150126,59.2888404 C9.72401259,59.4738404 7.39801259,61.4058404 7.39401259,64.0238404 C7.39301259,64.1298404 7.40601259,64.2328404 7.42801259,64.3338404 C5.91101259,66.6288404 5.73501259,69.7168404 6.98701259,72.1838404 C7.35301259,72.9068404 8.37001259,73.1138404 9.03901259,72.7218404 C9.77401259,72.2938404 9.94501259,71.3948404 9.57701259,70.6708404 C9.56401259,70.6448404 9.47801259,70.4568404 9.45901259,70.4238404 C9.41401259,70.3078404 9.37301259,70.1908404 9.33601259,70.0728404 C9.29301259,69.9318404 9.25501259,69.7898404 9.22201259,69.6458404 C9.20101259,69.5498404 9.18101259,69.4538404 9.16401259,69.3568404 C9.15601259,69.3068404 9.15401259,69.2938404 9.15001259,69.2678404 C9.16001259,69.3388404 9.13301259,68.9998404 9.13101259,68.9488404 C9.12501259,68.8008404 9.12301259,68.6538404 9.12701259,68.5058404 C9.13101259,68.3568404 9.14201259,68.2108404 9.15401259,68.0618404 C9.15701259,68.0348404 9.15701259,68.0368404 9.15801259,68.0238404 C9.16601259,67.9738404 9.17401259,67.9248404 9.18401259,67.8748404 C9.24301259,67.5588404 9.32401259,67.2488404 9.42901259,66.9448404 C9.44101259,66.9108404 9.51801259,66.7228404 9.53101259,66.6848404 C9.58201259,66.5748404 9.63501259,66.4648404 9.69301259,66.3568404 C9.82501259,66.1148404 9.97501259,65.8748404 10.1430126,65.6548404 C10.1820126,65.6138404 10.2980126,65.4788404 10.3130126,65.4638404 C10.4130126,65.3548404 10.5180126,65.2498404 10.6260126,65.1498404 C10.6270126,65.1488404 10.8200126,64.9888404 10.8420126,64.9648404 C10.9500126,64.8858404 11.0610126,64.8098404 11.1740126,64.7408404 C11.3040126,64.6608404 11.4380126,64.5858404 11.5740126,64.5158404 C11.5750126,64.5148404 11.7760126,64.4258404 11.8250126,64.4008404 C12.0950126,64.2978404 12.3710126,64.2118404 12.6520126,64.1458404 C12.7770126,64.1178404 12.9030126,64.0938404 13.0300126,64.0738404 C13.0770126,64.0708404 13.2800126,64.0498404 13.3160126,64.0468404 C13.6250126,64.0278404 13.9290126,64.0428404 14.2380126,64.0558404 C14.3000126,64.0578404 14.3310126,64.0578404 14.3500126,64.0578404 C14.3650126,64.0628404 14.3910126,64.0688404 14.4480126,64.0808404 C14.5980126,64.1108404 14.7480126,64.1388404 14.8970126,64.1768404 C15.5690126,64.3478404 15.8440126,64.4778404 16.4770126,64.9158404 C17.0180126,65.2898404 17.8500126,65.1258404 18.2940126,64.6808404 C18.7290126,64.2468404 18.9200126,63.3898404 18.5290126,62.8628404" id="Fill-24" fill="#C3996B"></path>
                <path d="M79.2043126,60.1069404 C76.5753126,61.5319404 73.3443126,60.7579404 70.4913126,60.9119404 C68.8773126,60.9989404 67.2883126,61.3359404 65.6743126,61.4299404 C63.9523126,61.5319404 62.2243126,61.4429404 60.5243126,61.1469404 C58.6633126,60.8239404 57.8543126,63.6219404 59.6513126,64.0189404 C59.6963126,64.3439404 59.8373126,64.6649404 60.0583126,64.9339404 C61.5313126,66.7249404 63.3713126,68.2399404 65.4403126,69.2939404 C66.5603126,69.8649404 67.7323126,70.3249404 68.9843126,70.4899404 C70.2143126,70.6519404 71.4253126,70.4689404 72.6453126,70.2919404 C74.6153126,70.0029404 76.3363126,69.2429404 77.7343126,67.8439404 C77.9263126,67.8719404 78.1223126,67.8639404 78.3103126,67.8029404 C78.6593126,67.6899404 79.0493126,67.4619404 79.2063126,67.1139404 C79.6313126,66.1719404 80.1623126,65.2839404 80.7913126,64.4639404 C80.9003126,64.2929404 80.9603126,64.1059404 80.9693126,63.9069404 C81.0143126,63.7079404 81.0043126,63.5079404 80.9423126,63.3079404 C80.9173126,63.2189404 80.8813126,63.1279404 80.8353126,63.0389404 C80.9753126,62.7449404 81.1243126,62.4559404 81.2573126,62.1589404 C81.8513126,60.8329404 80.6103126,59.3439404 79.2043126,60.1069404" id="Fill-26" fill="#E4C3A2"></path>
                <path d="M81.9267126,41.8237404 C81.9137126,41.7817404 81.8967126,41.7407404 81.8837126,41.6987404 C82.6547126,39.1607404 80.7947126,36.3447404 79.2867126,34.5007404 C77.6337126,32.4787404 75.3647126,30.8167404 72.8787126,30.2467404 C69.6787126,29.5107404 66.5447126,30.5957404 64.0117126,32.7157404 C61.4397126,34.8677404 59.7397126,37.8887404 58.2077126,40.9187404 C57.6907126,41.2107404 57.3207126,41.8517404 57.3207126,42.4457404 C57.3207126,43.4397404 58.0477126,44.0287404 58.8987126,44.1297404 C59.1757126,44.1627404 59.4537126,44.1837404 59.7307126,44.2157404 C59.9157126,44.6727404 60.2617126,45.0517404 60.7297126,45.1397404 C64.0307126,45.7617404 67.3777126,46.0547404 70.7287126,45.9247404 C71.1767126,45.9067404 71.6207126,45.8637404 72.0657126,45.8307404 C72.3487126,46.0767404 72.7147126,46.2767404 73.0807126,46.2377404 C73.6137126,46.1817404 74.1467126,46.0987404 74.6587126,45.9317404 C74.9527126,45.8367404 75.2397126,45.7097404 75.5217126,45.5737404 C75.7217126,45.6787404 75.9557126,45.7437404 76.2297126,45.7437404 C76.2507126,45.7437404 76.2697126,45.7377404 76.2907126,45.7367404 C76.4947126,45.8407404 76.7167126,45.9167404 76.9537126,45.9507404 C78.0557126,46.1057404 79.1047126,45.9277404 80.0817126,45.5127404 C81.0817126,46.0557404 82.6467126,45.2297404 82.4217126,43.7327404 C82.6557126,43.0887404 82.4207126,42.2887404 81.9267126,41.8237404" id="Fill-28" fill="#E4C3A2"></path>
                <path d="M78.5968126,60.2426404 C77.1908126,59.8706404 75.8638126,60.1806404 74.4748126,60.4886404 C72.8748126,60.8436404 71.2718126,60.8486404 69.6468126,60.8376404 C66.4778126,60.8156404 63.3088126,60.7926404 60.1388126,60.7686404 C58.9928126,60.7616404 58.9918126,62.7616404 60.1388126,62.7686404 C63.1888126,62.7916404 66.2388126,62.8126404 69.2878126,62.8356404 C70.7598126,62.8466404 72.2348126,62.8746404 73.6978126,62.6546404 C75.1548126,62.4356404 76.6508126,61.7816404 78.1228126,62.1716404 C79.2378126,62.4666404 79.7138126,60.5386404 78.5968126,60.2426404" id="Fill-30" fill="#C3996B"></path>
                <path d="M80.6337126,42.4516404 C77.0947126,43.8536404 73.3417126,44.1886404 69.5637126,44.0796404 C67.7167126,44.0256404 65.8737126,43.8756404 64.0337126,43.7046404 C62.1537126,43.5296404 60.1827126,43.4576404 58.4727126,42.5776404 C57.3297126,41.9896404 56.3167126,43.7146404 57.4627126,44.3046404 C59.1467126,45.1706404 60.9537126,45.4056404 62.8157126,45.5886404 C64.9237126,45.7966404 67.0357126,45.9886404 69.1537126,46.0656404 C73.2247126,46.2156404 77.3477126,45.8926404 81.1657126,44.3806404 C82.3477126,43.9116404 81.8327126,41.9756404 80.6337126,42.4516404" id="Fill-32" fill="#C3996B"></path>
                <path d="M81.0116126,42.7944404 C73.6946126,44.8984404 66.2326126,42.2244404 58.9086126,41.5544404 C57.5586126,41.4314404 57.5656126,44.0424404 58.9086126,44.1654404 C66.4606126,44.8564404 74.0216126,47.4834404 81.5706126,45.3124404 C82.8866126,44.9334404 82.3296126,42.4144404 81.0116126,42.7944404" id="Fill-34" fill="#C3996B"></path>
                <path d="M78.9938126,60.7885404 C75.7888126,60.4095404 72.7938126,61.8555404 69.6368126,62.1015404 C66.4358126,62.3515404 63.3438126,61.0525404 60.1348126,61.5405404 C59.0038126,61.7125404 59.4858126,63.6405404 60.6088126,63.4695404 C63.7408126,62.9925404 66.8288126,64.4065404 69.9738126,64.0705404 C73.0008126,63.7465404 75.9208126,62.4255404 78.9938126,62.7885404 C80.1328126,62.9235404 80.1238126,60.9225404 78.9938126,60.7885404" id="Fill-36" fill="#C3996B"></path>
                <path d="M127.217713,56.6899404 C125.003713,57.0339404 122.779713,57.2299404 120.550713,57.2859404 C118.487713,57.3359404 115.988713,57.5759404 114.136713,56.5279404 C113.534713,56.1859404 112.801713,56.2049404 112.249713,56.6049404 C112.040713,56.6759404 111.836713,56.7799404 111.648713,56.9599404 C111.063713,57.5179404 110.956713,58.3779404 111.256713,59.0929404 C112.580713,62.2559404 115.509713,64.6309404 118.771713,65.2549404 C120.510713,65.5879404 122.658713,65.6739404 124.247713,64.6389404 C125.152713,64.0499404 125.800713,63.1409404 126.494713,62.3129404 C127.225713,61.4419404 127.956713,60.5699404 128.686713,59.6989404 C129.833713,58.3319404 128.968713,56.4189404 127.217713,56.6899404" id="Fill-38" fill="#E4C3A2"></path>
                <path d="M126.028713,36.3598404 C126.310713,35.3048404 125.682713,34.1668404 124.912713,33.3158404 C123.222713,31.4498404 120.998713,29.8018404 118.591713,29.0048404 C116.136713,28.1918404 113.328713,28.7168404 112.071713,31.1778404 C111.406713,32.4798404 111.096713,33.9738404 110.760713,35.3858404 C110.459713,36.6508404 110.224713,37.9408404 110.141713,39.2398404 L110.121713,39.2648404 C109.986713,39.4998404 109.918713,39.7518404 109.917713,40.0218404 L109.917713,40.4498404 C109.909713,40.6568404 109.952713,40.8488404 110.046713,41.0278404 C110.106713,41.2138404 110.210713,41.3748404 110.356713,41.5098404 C110.492713,41.6568404 110.653713,41.7598404 110.839713,41.8208404 C111.017713,41.9148404 111.210713,41.9578404 111.417713,41.9498404 C111.549713,41.9318404 111.682713,41.9148404 111.816713,41.8958404 C111.826713,41.8928404 111.834713,41.8868404 111.844713,41.8838404 C111.938713,41.8728404 112.021713,41.8308404 112.111713,41.8028404 C113.299713,41.9058404 114.269713,41.4248404 115.391713,41.0178404 C116.411713,40.6478404 117.444713,40.3138404 118.488713,40.0158404 C120.397713,39.4718404 122.340713,39.0628404 124.302713,38.7668404 C124.497713,38.7768404 124.688713,38.7998404 124.884713,38.8008404 C126.289713,38.8108404 126.667713,37.2288404 126.028713,36.3598404" id="Fill-40" fill="#E4C3A2"></path>
                <path d="M126.314613,38.3266404 C121.160613,38.9826404 115.978613,39.2906404 110.796613,39.2456404 C109.487613,39.2336404 109.551613,41.3336404 110.859613,41.3456404 C116.042613,41.3896404 121.224613,41.0826404 126.377613,40.4266404 C127.670613,40.2616404 127.621613,38.1606404 126.314613,38.3266404" id="Fill-42" fill="#C3996B"></path>
                <path d="M128.136913,55.8442404 C123.583913,56.3212404 118.439913,57.3822404 114.031913,55.6462404 C113.525913,55.4462404 112.964913,55.5172404 112.670913,56.0312404 C112.429913,56.4492404 112.552913,57.1942404 113.054913,57.3912404 C117.900913,59.3012404 123.169913,58.3692404 128.192913,57.8442404 C129.463913,57.7112404 129.420913,55.7092404 128.136913,55.8442404" id="Fill-44" fill="#C3996B"></path>
                <path d="M125.841713,36.9340404 C123.428713,37.4450404 120.987713,37.7690404 118.544713,38.0590404 C116.116713,38.3480404 113.620713,38.7610404 111.179713,38.5240404 C110.628713,38.4700404 110.098713,38.7130404 109.950713,39.3170404 C109.828713,39.8150404 110.153713,40.5200404 110.699713,40.5740404 C113.346713,40.8300404 115.971713,40.4730404 118.608713,40.1590404 C121.226713,39.8480404 123.838713,39.4860404 126.425713,38.9380404 C127.710713,38.6650404 127.119713,36.6630404 125.841713,36.9340404" id="Fill-46" fill="#C3996B"></path>
                <path d="M127.339813,51.2612404 C127.332813,51.2682404 127.324813,51.2742404 127.318813,51.2812404 C127.304813,51.2852404 127.291813,51.2812404 127.277813,51.2842404 C127.101813,51.3532404 126.923813,51.4112404 126.741813,51.4592404 C126.665813,51.4792404 126.589813,51.4962404 126.513813,51.5132404 C126.512813,51.5132404 126.507813,51.5132404 126.506813,51.5142404 C126.411813,51.4952404 126.318813,51.4752404 126.225813,51.4482404 C126.176813,51.4332404 126.128813,51.4172404 126.080813,51.4002404 C126.054813,51.3872404 126.029813,51.3732404 126.004813,51.3612404 C126.204813,51.1182404 126.379813,50.8532404 126.505813,50.5482404 C126.537813,50.6202404 126.570813,50.6932404 126.603813,50.7652404 C126.745813,51.0782404 127.043813,51.2252404 127.358813,51.2432404 C127.352813,51.2482404 127.342813,51.2572404 127.339813,51.2612404 M129.016813,49.6202404 C128.878813,49.5892404 128.730813,49.5932404 128.585813,49.6182404 C128.837813,48.0272404 128.906813,46.4112404 128.766813,44.8132404 C128.813813,44.6502404 128.825813,44.4742404 128.775813,44.2942404 C128.739813,44.1622404 128.693813,44.0332404 128.653813,43.9032404 C128.502813,42.7882404 128.252813,41.6892404 127.907813,40.6152404 C128.195813,40.5112404 128.487813,40.4202404 128.774813,40.3122404 C129.965813,39.8592404 129.449813,37.9252404 128.242813,38.3832404 C127.873813,38.5232404 127.498813,38.6432404 127.126813,38.7732404 C127.065813,38.7052404 126.998813,38.6462404 126.924813,38.5952404 C127.088813,39.1892404 126.644813,39.8042404 126.090813,39.9732404 C123.134813,40.8782404 119.907813,41.2572404 116.820813,41.1682404 C116.660813,41.1632404 116.506813,41.1272404 116.364813,41.0662404 C114.102813,41.2602404 111.822813,41.3002404 109.537813,41.1382404 C108.253813,41.0472404 108.258813,43.0472404 109.537813,43.1382404 C112.882813,43.3762404 116.241813,43.2342404 119.545813,42.7302404 C118.882813,44.0582404 118.653813,45.6012404 119.008813,47.0682404 C119.079813,47.3592404 119.247813,47.5292404 119.444813,47.6382404 C119.479813,47.7732404 119.528813,47.9022404 119.571813,48.0332404 C119.346813,48.2822404 119.226813,48.6262404 119.327813,48.9602404 C120.046813,51.3202404 122.227813,53.0672404 124.621813,53.4902404 C125.323813,53.8002404 126.116813,53.9022404 126.906813,53.7362404 C127.278813,53.6572404 127.633813,53.5072404 127.963813,53.3082404 C128.393813,53.1402404 128.797813,52.8782404 129.092813,52.5272404 C129.262813,52.3252404 129.366813,52.0672404 129.376813,51.8102404 C129.535813,51.5052404 129.652813,51.1832404 129.714813,50.8502404 C129.809813,50.3372404 129.573813,49.7472404 129.016813,49.6202404" id="Fill-54" fill="#231F20"></path>
                <path d="M66.5390126,20.0512404 C61.5090126,25.0512404 55.3140126,28.7452404 48.5200126,30.7852404 C47.2900126,31.1552404 47.8140126,33.0852404 49.0510126,32.7142404 C56.1700126,30.5762404 62.6820126,26.7052404 67.9530126,21.4652404 C68.8670126,20.5562404 67.4530126,19.1422404 66.5390126,20.0512404" id="Fill-56" fill="#231F20"></path>
                <path d="M123.428113,22.9223404 C118.819113,22.4763404 114.418113,20.7453404 110.683113,18.0213404 C110.243113,17.7003404 109.572113,17.9493404 109.314113,18.3793404 C109.013113,18.8823404 109.239113,19.4313404 109.673113,19.7483404 C113.704113,22.6883404 118.470113,24.4423404 123.428113,24.9223404 C123.966113,24.9743404 124.428113,24.4253404 124.428113,23.9223404 C124.428113,23.3383404 123.968113,22.9753404 123.428113,22.9223404" id="Fill-58" fill="#231F20"></path>
                <path d="M94.0766126,96.8745404 C95.2896126,92.5045404 98.2636126,89.1935404 101.557613,88.8785404 C104.947613,88.5545404 108.193613,91.2935404 109.825613,95.5095404 C109.758613,95.5025404 109.703613,95.4795404 109.628613,95.4865404 C104.444613,95.9495404 99.2606126,96.4115404 94.0766126,96.8745404 M111.255613,95.1225404 C109.480613,89.8635404 105.388613,86.3535404 101.308613,86.9075404 C97.3046126,87.4515404 93.8316126,91.5275404 92.5656126,96.9965404 C92.4316126,97.5745404 92.6636126,97.9875404 92.9726126,98.1445404 C93.0366126,98.5735404 93.3356126,98.9405404 93.9036126,98.8905404 L109.628613,97.4865404 C110.168613,97.4375404 110.467613,97.0475404 110.550613,96.6245404 C111.014613,96.6645404 111.530613,95.9375404 111.255613,95.1225404" id="Fill-60" fill="#231F20"></path>
                <path d="M84.4298126,57.1850404 C84.3078126,56.9780404 84.0708126,56.7800404 83.8318126,56.7250404 C83.5758126,56.6670404 83.2888126,56.6790404 83.0618126,56.8260404 C82.9938126,56.8780404 82.9268126,56.9300404 82.8588126,56.9820404 C82.7348126,57.1070404 82.6498126,57.2540404 82.6018126,57.4230404 C82.4258126,57.8780404 82.2498126,58.3320404 82.0748126,58.7870404 C82.0208126,58.8200404 81.9648126,58.8410404 81.9148126,58.8810404 C81.1378126,59.5080404 80.8048126,60.5480404 80.4508126,61.4450404 C80.1938126,62.0920404 79.9608126,62.7470404 79.7298126,63.4040404 C79.4498126,63.4550404 79.1908126,63.6040404 79.0658126,63.8670404 C78.6178126,64.7980404 78.2208126,65.7790404 77.7978126,66.7470404 C77.5198126,66.7920404 77.2628126,66.9390404 77.1078126,67.2060404 C76.9058126,67.5570404 76.6698126,67.8860404 76.4448126,68.2220404 C76.4438126,68.2240404 76.4418126,68.2230404 76.4408126,68.2240404 C76.0358126,68.5030404 75.6558126,68.8160404 75.2898126,69.1440404 C74.9208126,69.3210404 74.5608126,69.5170404 74.2198126,69.7440404 C71.1568126,69.6400404 68.0918126,69.6820404 65.1418126,68.8550404 C65.1228126,68.6400404 65.0518126,68.4320404 64.8748126,68.2830404 C62.9188126,66.6320404 61.0448126,64.8890404 59.2578126,63.0580404 C59.1778126,62.9740404 59.0768126,62.9160404 58.9718126,62.8690404 C58.6848126,62.2030404 58.4228126,61.5210404 58.1678126,60.8390404 C58.5248126,60.5440404 58.7068126,59.9680404 58.4198126,59.5680404 C57.5658126,58.3750404 57.3268126,56.9390404 57.0968126,55.5210404 C56.9258126,54.4620404 56.7098126,53.4450404 56.3868126,52.4510404 C56.5848126,52.2120404 56.6738126,51.8980404 56.6088126,51.5540404 L55.8048126,47.3060404 C55.7068126,46.7910404 55.0588126,46.4510404 54.5738126,46.6080404 C54.0238126,46.7860404 53.7708126,47.2870404 53.8758126,47.8370404 C54.0458126,48.7360404 54.2158126,49.6330404 54.3858126,50.5310404 C53.9038126,50.8230404 53.8018126,51.4070404 54.0388126,51.8880404 C55.0638126,53.9720404 55.0158126,56.4210404 55.7238126,58.5950404 C55.5128126,58.8440404 55.4028126,59.1830404 55.5248126,59.4910404 L56.7598126,62.6130404 C57.0868126,63.4410404 57.4098126,64.2790404 57.8098126,65.0770404 C57.5418126,65.0840404 57.2698126,65.1900404 57.0908126,65.3660404 C56.6698126,65.7780404 56.7558126,66.3610404 57.0908126,66.7800404 C58.1398126,68.0910404 59.3798126,69.2340404 60.7468126,70.1930404 C60.6028126,70.3260404 60.4918126,70.4920404 60.4448126,70.6640404 C60.2868126,71.2390404 60.6418126,71.6860404 61.1428126,71.8940404 C64.5078126,73.2890404 68.1108126,74.0400404 71.7478126,74.1600404 C72.0568126,74.5110404 72.5928126,74.6870404 73.0118126,74.4070404 C73.4568126,74.1090404 73.8748126,73.7780404 74.2908126,73.4440404 C74.4448126,73.4020404 74.5908126,73.3330404 74.7078126,73.2060404 C74.7128126,73.2010404 74.7148126,73.1930404 74.7198126,73.1870404 C75.0638126,73.4200404 75.5388126,73.4680404 75.9598126,73.1100404 C76.6698126,72.5040404 77.2458126,71.8060404 77.7508126,71.0600404 C78.1118126,71.1230404 78.5028126,71.0080404 78.7568126,70.6160404 C79.8188126,68.9740404 80.5288126,67.1420404 81.1778126,65.3060404 C81.5008126,64.3920404 81.8098126,63.4750404 82.1508126,62.5680404 C82.4288126,61.8280404 82.6808126,60.8440404 83.3088126,60.3190404 C83.3378126,60.3040404 83.3718126,60.3060404 83.3998126,60.2880404 C83.4668126,60.2360404 83.5338126,60.1830404 83.6018126,60.1310404 C83.7258126,60.0060404 83.8118126,59.8590404 83.8588126,59.6900404 C84.0828126,59.1120404 84.3068126,58.5340404 84.5308126,57.9560404 C84.5718126,57.8230404 84.5778126,57.6890404 84.5488126,57.5560404 C84.5418126,57.4230404 84.5028126,57.3000404 84.4298126,57.1850404" id="Fill-62" fill="#E4C3A2"></path>
                <path d="M129.806313,52.2046404 C129.198313,54.9316404 127.984313,57.4726404 126.758313,59.9686404 C125.649313,62.2276404 124.100313,64.1286404 121.716313,65.1096404 C121.213313,65.3166404 120.868313,65.7716404 121.017313,66.3406404 C121.142313,66.8136404 121.748313,67.2436404 122.247313,67.0386404 C124.937313,65.9316404 126.944313,63.9956404 128.266313,61.4146404 C129.676313,58.6636404 131.059313,55.7656404 131.735313,52.7356404 C132.014313,51.4816404 130.087313,50.9466404 129.806313,52.2046404" id="Fill-64" fill="#E4C3A2"></path>
                <path d="M81.8170126,52.7212404 C81.7900126,52.8922404 81.7490126,53.0682404 81.7190126,53.2402404 C81.3330126,53.2402404 80.9720126,53.4492404 80.8810126,53.9522404 C80.4740126,56.2092404 78.4170126,57.8082404 76.1530126,57.9232404 C73.7190126,58.0482404 71.5670126,56.3652404 70.4260126,54.3262404 C68.9750126,51.7352404 69.2180126,48.5772404 70.2050126,45.8702404 C70.3030126,45.6022404 70.4150126,45.3312404 70.5360126,45.0622404 C69.9310126,45.0362404 69.3260126,45.0002404 68.7250126,44.9352404 C68.6410126,44.9252404 68.5650126,44.8942404 68.4840126,44.8722404 C67.3350126,47.7492404 66.9510126,51.0382404 68.0540126,53.9312404 C69.2000126,56.9392404 71.8030126,59.4672404 75.0850126,59.8732404 C76.9060126,60.0992404 78.7910126,59.5402404 80.2560126,58.4502404 C80.0250126,59.0352404 79.7690126,59.6102404 79.4940126,60.1742404 C72.7350126,59.7832404 65.9760126,59.3902404 59.2170126,58.9972404 C59.1470126,58.9932404 59.0960126,59.0172404 59.0330126,59.0252404 C57.9410126,56.2322404 57.4340126,53.1712404 57.4289762,50.2622404 C57.4200126,44.9892404 59.0830126,39.7292404 62.1980126,35.4662404 C62.5460126,35.4762404 62.8850126,35.5142404 63.2130126,35.5812404 C63.2380126,35.5362404 63.2660126,35.4952404 63.2850126,35.4432404 C64.5390126,31.9742404 69.6160126,31.5722404 72.6330126,32.3822404 C75.3800126,33.1202404 77.4700126,34.8842404 78.8510126,37.2122404 C78.9930126,37.3102404 79.1190126,37.4342404 79.1790126,37.5702404 C79.3390126,37.9292404 79.4850126,38.2942404 79.6320126,38.6582404 C79.9130126,39.0752404 80.1740126,39.5032404 80.3800126,39.9542404 C80.9870126,41.2832404 81.4230126,42.6762404 81.7130126,44.1072404 C81.7720126,44.3982404 81.7340126,44.6802404 81.6150126,44.9272404 C81.6180126,44.9262404 81.6220126,44.9252404 81.6260126,44.9242404 C82.1710126,47.4652404 82.2260126,50.1172404 81.8170126,52.7212404 M75.5740126,65.6302404 C71.3910126,69.5072404 65.5360126,68.1752404 62.0210126,64.1052404 C61.2130126,63.1702404 60.5230126,62.1382404 59.9420126,61.0402404 C66.1040126,61.3982404 72.2650126,61.7552404 78.4270126,62.1132404 C77.6190126,63.4132404 76.6740126,64.6112404 75.5740126,65.6302404 M82.3220126,40.4822404 C81.5800126,37.6562404 80.2770126,34.9112404 78.0180126,32.9972404 C75.7210126,31.0532404 72.7240126,29.9732404 69.7130126,30.0172404 C66.9950126,30.0562404 64.0210126,31.0182404 62.3310126,33.1632404 C61.9960126,32.9702404 61.5800126,32.9802404 61.2610126,33.3862404 C54.4680126,42.0292404 53.0060126,55.6522404 59.9490126,64.7052404 C63.3070126,69.0832404 69.3360126,71.6382404 74.5200126,68.8452404 C79.2430126,66.3012404 82.0180126,60.5352404 83.2750126,55.5462404 C84.5330126,50.5582404 84.3710126,45.1802404 82.3220126,40.4822404" id="Fill-66" fill="#231F20"></path>
                <path d="M108.017213,68.8286404 C105.975213,66.1106404 103.882213,63.4326404 101.828213,60.7246404 C99.8432126,58.1066404 97.4442126,54.5566404 99.3122126,51.2346404 C99.8322126,50.3096404 98.4102126,49.4786404 97.8902126,50.4036404 C96.2322126,53.3506404 97.1742126,56.7306404 98.8872126,59.4216404 C100.971213,62.6936404 103.570213,65.6966404 105.923213,68.7776404 C107.267213,70.5366404 111.933213,76.7756404 107.338213,77.5396404 C105.392213,77.8626404 103.363213,77.0436404 101.580213,76.3626404 C99.7212126,75.6536404 97.9222126,74.8086404 96.1712126,73.8666404 C95.2382126,73.3636404 94.4052126,74.7846404 95.3402126,75.2886404 C98.1182126,76.7846404 101.144213,78.2366404 104.232213,78.9556404 C106.651213,79.5186404 110.132213,79.3836404 110.788213,76.3966404 C111.396213,73.6356404 109.589213,70.9206404 108.017213,68.8286404" id="Fill-68" fill="#231F20"></path>
                <path d="M128.467413,50.4311404 C128.142413,49.9861404 127.469413,49.7401404 126.922413,50.2031404 C124.547413,52.2181404 120.818413,50.5411404 119.736413,47.9461404 C118.808413,45.7211404 119.213413,42.9591404 120.647413,41.0181404 C119.840413,41.0961404 119.036413,41.1421404 118.233413,41.1561404 C118.211413,41.2021404 118.183413,41.2491404 118.163413,41.2961404 C116.340413,45.4231404 117.342413,50.8041404 121.882413,52.5791404 C124.011413,53.4121404 126.441413,53.1421404 128.225413,51.6991404 C127.970413,52.8241404 127.605413,53.9131404 127.136413,54.9501404 C127.008413,54.8931404 126.860413,54.8591404 126.681413,54.8721404 C122.219413,55.2121404 117.724413,55.0621404 113.300413,54.3731404 C113.147413,54.3491404 112.996413,54.3581404 112.852413,54.3841404 C112.073413,52.3841404 111.397413,50.3471404 110.809413,48.2831404 C110.808413,48.2791404 110.808413,48.2741404 110.807413,48.2701404 C110.463413,45.3231404 110.358413,42.2361404 110.713413,39.2401404 C110.822413,39.0911404 110.906413,38.9151404 110.911413,38.6841404 C110.918413,38.3591404 110.927413,38.0321404 110.940413,37.7021404 C110.978413,37.4851404 111.010413,37.2651404 111.054413,37.0491404 C111.026413,37.0421404 111.002413,37.0311404 110.975413,37.0241404 C111.092413,35.0481404 111.417413,33.0591404 112.511413,31.3841404 C113.746413,29.4951404 115.799413,28.4391404 118.037413,29.0581404 C120.221413,29.6631404 122.254413,31.2141404 123.782413,32.8531404 C124.842413,33.9881404 125.685413,35.3311404 126.167413,36.8001404 C126.167413,36.8011404 126.168413,36.8021404 126.168413,36.8021404 C126.351413,37.0561404 126.492413,37.3411404 126.615413,37.6271404 C126.720413,37.8081404 126.772413,38.0021404 126.774413,38.2101404 C126.818413,38.3181404 126.872413,38.4191404 126.911413,38.5291404 C127.053413,38.9331404 126.899413,39.3531404 126.613413,39.6441404 C126.847413,39.7941404 127.099413,39.8101404 127.332413,39.7401404 C128.587413,43.0301404 129.029413,46.8411404 128.467413,50.4311404 M124.437413,58.9911404 C122.066413,61.4521404 118.140413,63.1001404 115.590413,59.9291404 C114.767413,58.9061404 114.177413,57.6651404 113.660413,56.4151404 C117.776413,56.9971404 121.926413,57.1731404 126.075413,56.9011404 C125.596413,57.6441404 125.057413,58.3471404 124.437413,58.9911404 M128.256413,36.8781404 C127.733413,34.8411404 126.658413,33.0041404 125.196413,31.4381404 C123.338413,29.4461404 120.713413,27.5021404 117.989413,26.9951404 C115.219413,26.4801404 112.711413,27.7351404 111.077413,29.9551404 C109.237413,32.4581404 108.976413,35.6801404 108.911413,38.6841404 C108.906413,38.8881404 108.965413,39.0481404 109.047413,39.1871404 C108.759413,41.6771404 108.772413,44.2191404 108.996413,46.6951404 C109.031413,47.0771404 109.076413,47.4641404 109.115413,47.8501404 C108.888413,48.0671404 108.755413,48.3781404 108.868413,48.7751404 C109.063413,49.4581404 109.266413,50.1521404 109.475413,50.8461404 C109.502413,51.0401404 109.523413,51.2341404 109.552413,51.4271404 C109.568413,51.3791404 109.591413,51.3341404 109.609413,51.2871404 C110.520413,54.2601404 111.612413,57.2711404 113.163413,59.8981404 C114.764413,62.6111404 117.463413,64.2731404 120.655413,63.5541404 C127.227413,62.0721404 130.299413,54.2041404 130.659413,48.2081404 C130.895413,44.2851404 130.047413,40.3701404 128.256413,36.8781404" id="Fill-70" fill="#231F20"></path>
                <path d="M81.8446126,43.0678404 C81.7306126,43.1118404 81.6156126,43.1468404 81.5016126,43.1868404 C81.5776126,43.4918404 81.6496126,43.7978404 81.7126126,44.1068404 C81.8076126,44.5798404 81.6796126,45.0408404 81.2916126,45.3408404 C81.0366126,45.5378404 80.7166126,45.6088404 80.4066126,45.5648404 C80.2536126,45.5878404 80.0956126,45.5838404 79.9386126,45.5508404 C77.0386126,44.9568404 74.0596126,45.1638404 71.1066126,45.0818404 C70.9686126,45.0778404 70.8296126,45.0738404 70.6906126,45.0668404 C70.0336126,45.0428404 69.3776126,45.0048404 68.7246126,44.9348404 C68.5456126,44.9158404 68.3786126,44.8608404 68.2246126,44.7878404 C68.2146126,44.7858404 68.2036126,44.7848404 68.1936126,44.7828404 C68.0386126,44.7518404 67.9016126,44.6818404 67.7836126,44.5878404 C64.2846126,44.2668404 60.7896126,43.6018404 57.3866126,42.9248404 C56.1296126,42.6748404 55.5916126,44.6028404 56.8546126,44.8528404 C60.9216126,45.6618404 65.1266126,46.4628404 69.3196126,46.7128404 C69.0206126,47.7128404 68.8356126,48.7448404 68.8336126,49.8108404 C68.8266126,52.9698404 70.3816126,56.1828404 73.2106126,57.7218404 C73.5006126,57.8808404 73.7816126,57.8808404 74.0216126,57.7888404 C74.5996126,58.3148404 75.4296126,58.5468404 76.1886126,58.0888404 C76.2596126,58.0468404 76.2976126,57.9888404 76.3516126,57.9368404 C77.3576126,57.9638404 78.3236126,57.5188404 79.0696126,56.8298404 C79.4226126,57.0498404 79.8746126,57.0648404 80.2116126,56.6618404 C82.3106126,54.1438404 83.1006126,50.6978404 82.2346126,47.5438404 C82.2716126,46.7748404 82.1956126,46.0088404 81.9346126,45.2758404 C81.9216126,45.2388404 81.9026126,45.2028404 81.8886126,45.1658404 C82.0516126,45.1068404 82.2146126,45.0588404 82.3766126,44.9968404 C83.5646126,44.5388404 83.0486126,42.6038404 81.8446126,43.0678404" id="Fill-72" fill="#231F20"></path>
            </g>
            <g id="outline" transform="translate(0.000000, 0.916000)">
                <mask id="mask-2" fill="white">
                    <use xlink:href="#path-1"></use>
                </mask>
                <g id="Clip-52"></g>
                <path d="M171.0485,137.3854 C170.9045,137.5154 170.7915,137.6884 170.7625,137.9194 C169.5325,147.5444 162.4285,154.9564 155.6845,161.4394 C155.3625,161.3514 154.9875,161.4194 154.7385,161.7524 C150.6485,167.2124 148.0455,174.3574 142.1715,178.2564 C135.6435,182.5914 127.3675,181.2154 120.2965,179.1594 C116.3595,178.0154 112.5025,176.5924 108.6295,175.2514 C104.2845,173.7474 99.9385,172.2434 95.5935,170.7394 C87.9335,168.0884 80.0715,165.5154 73.3785,160.8084 C67.2365,156.4894 62.1395,149.8724 61.3945,142.2624 C61.3825,142.1734 61.3775,142.0834 61.3615,141.9954 C61.3175,141.4614 61.2915,140.9234 61.2915,140.3804 C61.2895,139.5654 60.3225,139.3824 59.8725,139.8214 C59.3965,139.9434 58.9965,140.4614 59.3065,141.0244 C59.5355,141.4394 59.6715,141.8774 59.7485,142.3234 C59.7655,142.5034 59.7815,142.6844 59.8035,142.8644 C59.8695,144.2724 59.2895,145.7084 58.2985,146.7444 C57.4505,147.6324 56.3575,148.1424 55.1935,148.3694 C54.8835,148.1624 54.5215,148.0424 54.1365,148.0704 C50.5765,148.3214 47.9105,145.0954 45.7255,142.7274 C42.8615,139.6224 40.1365,136.3874 37.5835,133.0214 C37.3715,132.7414 37.1115,132.5124 36.8275,132.3414 C36.7145,132.1494 36.5935,131.9604 36.4835,131.7664 C36.4775,131.7544 36.4715,131.7414 36.4655,131.7294 C36.4575,131.7144 36.4455,131.7024 36.4385,131.6884 C35.0865,129.2894 33.9885,126.7684 33.5095,124.0384 C33.2805,122.7344 33.2605,121.3614 33.5135,120.0484 C33.6395,119.9314 33.7595,119.7994 33.8645,119.6374 C34.9285,117.9944 36.6935,116.9084 38.5945,116.5364 C39.3825,116.6854 40.1805,116.6434 40.9345,116.4464 C41.3295,116.4944 41.7205,116.5734 42.1025,116.6904 C43.9485,117.2484 45.7145,118.6344 47.1935,119.8444 C48.7975,121.1554 50.1475,122.6164 51.0015,124.5214 C51.3435,125.2834 52.2755,125.5904 53.0785,125.4604 C53.3595,125.5244 53.6355,125.5314 53.8975,125.4904 C54.0605,125.4894 54.2135,125.4484 54.3445,125.3644 C54.8955,125.1454 55.3395,124.6934 55.5375,124.0634 C55.8915,122.9384 56.0095,121.8264 55.9545,120.7334 C56.0115,120.5414 56.0695,120.3494 56.1275,120.1574 C56.2285,119.8234 56.0615,119.4414 55.7715,119.2524 C55.5665,118.1714 55.2135,117.1134 54.7685,116.0824 C53.4955,109.0584 50.8125,102.3304 46.8585,96.3714 L48.4805,96.9894 C49.7575,97.4764 51.0675,98.1204 52.4235,98.3404 C53.5475,98.5224 54.5975,98.2614 55.4135,97.6384 C56.1265,97.9644 56.9755,97.9954 57.6545,97.5314 C59.3025,96.4044 60.7295,95.0754 61.9415,93.5314 C62.3575,93.0804 62.7225,92.5834 63.0085,92.0324 C63.1165,91.8234 63.1875,91.6194 63.2395,91.4174 C64.3075,89.7134 65.1605,87.8724 65.7715,85.9544 C68.4625,83.5634 69.2845,79.6614 69.2135,76.0004 C71.9845,79.3204 76.0605,81.4734 80.3875,81.9494 C85.9865,82.5664 91.3795,79.9254 94.7525,75.4974 C95.7055,74.2464 96.4525,72.8714 97.0065,71.4234 C97.2965,70.9064 97.5745,70.3844 97.8365,69.8564 C100.0565,73.5314 103.5775,76.4924 107.8265,77.3914 C112.8885,78.4604 118.0035,76.0774 120.5135,71.5444 C121.0575,70.5614 121.4295,69.5034 121.6355,68.4204 C121.9755,70.3094 122.5735,71.9474 124.0665,73.4414 C124.7105,74.0844 125.5285,74.6564 126.4205,75.1064 C127.9135,76.4764 129.7775,77.3784 132.1525,77.4504 C135.0275,77.5374 137.4765,75.7814 138.8615,73.3484 C139.9165,71.4944 140.3035,69.4364 140.4235,67.3434 C142.5005,70.4134 146.1235,72.4684 149.8855,72.2174 C153.7975,71.9554 157.1805,69.4304 158.8385,66.0094 C159.6525,66.4514 160.5355,66.7564 161.4605,66.9004 C161.5425,66.9404 161.6195,66.9874 161.7035,67.0234 C157.4135,72.4064 157.7185,80.3674 159.0825,86.7714 C160.6855,94.2954 164.1275,101.2534 166.9405,108.3664 C168.5615,112.4674 169.9915,116.6514 170.7915,120.9964 C170.8085,121.0864 170.8475,121.1514 170.8825,121.2194 C171.4695,126.5884 171.5235,132.0054 171.0485,137.3854 M117.8825,188.8354 C117.1195,189.6024 115.9015,189.9824 114.8755,190.2384 C113.7795,190.5124 112.5165,190.6414 111.4575,190.1564 C110.3375,189.6434 109.8645,188.4454 109.1055,187.5544 C108.7645,187.1534 108.3695,186.8634 107.9385,186.5714 C107.2835,186.1284 107.3515,185.6854 107.3305,184.9364 C107.2495,182.1354 107.1685,179.3354 107.0875,176.5354 C110.5705,177.7414 114.0595,178.9284 117.5675,180.0454 C117.5605,180.1424 117.5655,180.2444 117.6025,180.3574 C118.0755,181.8174 118.4025,183.3174 118.5215,184.8484 C118.6195,186.1054 118.8595,187.8534 117.8825,188.8354 M106.4555,3.6924 C105.7525,4.2214 104.9315,4.6614 104.0515,4.9884 C104.8065,4.4844 105.6135,4.0484 106.4555,3.6924 M136.7945,73.4414 C136.8195,73.4134 136.8435,73.3814 136.8695,73.3534 C135.8125,74.7404 134.3265,75.6974 132.5435,75.7814 C134.1465,75.4074 135.6635,74.6724 136.7945,73.4414 M143.5785,68.4164 C142.5945,67.5844 141.7735,66.5584 141.1925,65.4054 C141.9155,66.4674 142.7145,67.4764 143.5785,68.4164 M171.5005,116.7344 C167.9885,103.8104 159.5945,92.0194 159.8555,78.3004 C159.9285,74.4414 160.8555,70.4304 163.4785,67.5044 C163.9135,67.5584 164.3515,67.5724 164.7855,67.5314 C168.1555,67.2114 170.7355,64.4904 171.9515,61.4924 C173.4155,57.8864 173.4805,53.5774 173.3075,49.7394 C173.1835,46.9784 172.7315,44.1554 171.6815,41.5804 C171.2985,40.2194 170.5815,39.0024 169.6525,37.9804 C168.0095,35.8024 165.7905,34.0494 163.2035,33.2114 C163.1915,33.1784 163.1755,33.1474 163.1635,33.1144 C163.6025,30.9634 163.8995,28.6324 162.8145,26.6344 C162.4215,25.9104 161.8805,25.3114 161.2425,24.8704 C160.7515,22.8714 159.9425,21.0874 158.5405,19.6224 C158.1395,18.7564 157.5725,17.9684 156.8195,17.3264 C155.5445,16.2404 153.8755,15.7084 152.2415,15.7994 C151.7435,14.6944 151.0355,13.6464 150.0825,12.6944 C146.8415,9.4534 140.6895,8.1844 136.7525,10.9744 C136.4595,11.1814 136.1645,11.3964 135.8685,11.6104 C135.1265,8.8604 133.1875,6.5934 130.7035,5.1854 C130.5085,5.0314 130.3215,4.8684 130.1145,4.7284 C128.0405,3.3174 125.3355,2.7474 122.9085,3.3414 C122.3385,2.7834 121.7065,2.2924 121.0285,1.8704 C120.5285,1.2754 119.8555,0.8024 119.0985,0.5494 C118.2875,0.2774 117.4345,0.2124 116.5795,0.2264 C114.6385,-0.0756 112.6155,0.0944 110.7385,0.8174 C110.5515,0.8484 110.3625,0.8674 110.1755,0.9024 C106.6945,1.5444 103.1615,3.0474 100.7705,5.6174 C99.3165,5.6354 97.9235,5.2844 96.8585,4.4504 C93.6815,1.9624 90.3705,0.9644 87.0855,1.5914 C83.6395,1.9064 81.1685,4.2484 78.7225,6.5524 C77.8335,7.2774 76.9445,8.0014 76.0555,8.7274 C73.5075,7.2974 70.9735,5.8094 68.3445,4.5484 C65.8215,3.3384 62.9885,2.4964 60.2255,3.3964 C54.9225,5.1234 52.9685,10.6544 51.7075,15.5964 C47.7115,13.1984 42.7215,12.5514 38.2425,13.8834 C36.7455,14.3284 35.3525,15.0184 34.0695,15.8684 C31.8055,16.8924 29.7675,18.4474 28.1485,20.6254 C25.7325,23.8794 24.7345,27.7934 25.1945,31.5394 C24.4955,31.8204 23.6745,31.9744 23.1375,32.1844 C22.0385,32.6144 20.9805,33.1424 19.9865,33.7814 C17.4975,35.3834 15.3885,37.6024 13.9205,40.1784 C12.6105,41.7544 11.5775,43.5884 10.9545,45.7564 C9.4905,50.8554 10.7255,55.7424 13.5085,59.8044 C10.0705,60.6654 6.8515,62.3924 4.4485,65.0264 C2.6185,67.0314 1.4085,69.4804 0.9065,72.0734 C-0.5765,76.0224 -0.0615,80.6744 3.2625,83.7264 C3.4385,83.8874 3.6225,84.0314 3.8045,84.1814 C0.4355,86.0264 -0.4945,90.9604 0.2305,94.5034 C0.9475,98.0084 3.1175,101.1134 6.0925,103.0264 C5.6355,103.5474 5.2255,104.1264 4.8675,104.7664 C4.8515,104.7884 4.8325,104.8084 4.8175,104.8314 C4.4975,105.3054 4.2815,105.8214 4.1365,106.3554 C2.4125,111.0704 3.8605,117.3844 8.7485,119.7734 C9.8905,120.3304 10.0045,120.1524 10.4615,120.8634 C11.5085,122.4954 12.7795,123.6694 14.1595,124.4934 C13.1805,125.6224 12.6875,127.2034 13.0825,128.9824 C13.0925,129.0304 13.1065,129.0774 13.1175,129.1264 C13.0825,129.4284 13.0455,129.7304 13.0315,130.0324 C12.8635,133.8674 14.5125,137.4434 16.4185,140.6714 C18.4945,144.1894 20.5875,147.8234 23.0115,151.1144 C25.1955,154.0784 28.1285,156.7404 31.9205,157.2334 C34.9425,157.6254 38.1975,156.1824 39.5585,153.4704 C40.2095,154.0274 40.9265,154.5114 41.6875,154.9094 C42.6955,156.3304 44.2095,157.5354 45.4235,158.4804 C47.6725,160.2274 50.2615,161.6014 53.0585,162.2104 C58.1565,163.3214 63.8295,161.6734 66.8695,157.2854 C67.6615,158.1464 68.4905,158.9714 69.3645,159.7394 C75.6905,165.2924 83.7275,168.3434 91.5655,171.0824 C96.1835,172.6974 100.7985,174.3474 105.4235,175.9614 C105.5035,178.7094 105.5825,181.4564 105.6625,184.2044 C105.6955,185.3644 105.5325,186.7174 106.4985,187.5574 C106.8855,187.8924 107.3585,188.1034 107.7175,188.4714 C108.1155,188.8784 108.3995,189.3744 108.7295,189.8344 C110.1135,191.7644 112.1295,192.3594 114.4295,192.0044 C116.4155,191.6984 118.9965,190.8194 119.8475,188.8214 C120.4005,187.5234 120.2705,185.9364 120.1445,184.5664 C120.0205,183.2234 119.7645,181.9034 119.3925,180.6104 C126.1775,182.6394 133.7525,184.0214 140.4235,181.0854 C147.7285,177.8694 150.8515,170.2844 155.1195,164.0474 C155.2695,164.0254 155.4205,163.9714 155.5585,163.8394 C162.2945,157.4084 169.4275,150.2614 171.7905,141.0534 C172.0845,140.9504 172.3385,140.7104 172.3855,140.3284 C173.3345,132.6654 173.1945,124.9324 172.0225,117.3024 C171.9685,116.9544 171.7525,116.7844 171.5005,116.7344" id="Fill-51" fill="#231F20" mask="url(#mask-2)"></path>
            </g>
        </g>
    </g>
</svg>