<?xml version="1.0" encoding="UTF-8"?>
<svg width="500px" height="600px" viewBox="0 0 500 600" version="1.1" xmlns="http://www.w3.org/2000/svg" xmlns:xlink="http://www.w3.org/1999/xlink">
    <title>tiredlookingdown</title>
    <defs>
        <polygon id="path-1" points="0 0.0841574019 173.37488 0.0841574019 173.37488 192.101864 0 192.101864"></polygon>
    </defs>
    <g id="tiredlookingdown" stroke="none" stroke-width="1" fill="none" fill-rule="evenodd">
        <g id="face" transform="translate(153.000000, 64.000000)">
            <g id="fill" transform="translate(32.415887, 61.628076)">
                <path d="M110.058513,94.5717243 C109.229513,93.0967243 108.217513,91.6277243 106.879513,90.6167243 C106.106513,89.8857243 105.163513,89.3337243 104.145513,89.0157243 C103.292513,88.7507243 101.878513,88.6197243 100.810513,88.9317243 C99.9595126,88.9797243 99.1185126,89.1467243 98.3415126,89.5007243 C97.5395126,89.8657243 96.8765126,90.4707243 96.2725126,91.1017243 C95.0365126,92.3927243 93.9965126,93.8807243 93.2125126,95.4857243 C92.8575126,96.2137243 93.0155126,97.1077243 93.7505126,97.5377243 C94.3085126,97.8637243 95.1315126,97.7717243 95.5895126,97.2947243 C95.8475126,97.3937243 96.1475126,97.4217243 96.4845126,97.3377243 C100.355513,96.3737243 104.417513,96.1567243 108.364513,96.7747243 C109.613513,96.9707243 110.748513,95.7997243 110.058513,94.5717243" id="Fill-1" fill="#FEFEFE"></path>
                <path d="M86.7541126,122.408624 C86.5671126,121.730624 86.2361126,121.128624 85.8181126,120.591624 C85.7651126,120.444624 85.7131126,120.298624 85.6491126,120.152624 C85.4631126,119.727624 85.0931126,119.509624 84.6841126,119.445624 C84.3881126,119.207624 84.0761126,118.987624 83.7521126,118.789624 C82.2731126,117.881624 80.5911126,117.254624 78.9881126,116.603624 C78.3731126,116.354624 77.7051126,116.014624 77.0271126,115.919624 C76.6231126,115.464624 75.8621126,115.339624 75.3331126,115.571624 C74.6551126,115.869624 74.2641126,116.603624 74.4641126,117.341624 C74.5201126,117.545624 74.5561126,117.750624 74.6011126,117.955624 C74.5831126,118.057624 74.5661126,118.161624 74.5551126,118.265624 C74.3171126,120.363624 74.4581126,122.485624 74.8091126,124.561624 C74.8691126,124.918624 75.1031126,125.199624 75.4041126,125.389624 C75.4061126,125.402624 75.4081126,125.416624 75.4101126,125.429624 C75.4051126,125.429624 75.4001126,125.429624 75.3951126,125.430624 C75.7951126,127.147624 77.1441126,128.573624 78.8351126,129.071624 C79.7201126,129.333624 80.6631126,129.310624 81.5411126,129.056624 C82.1111126,129.575624 83.1151126,129.677624 83.6771126,129.076624 C84.2161126,128.501624 84.6391126,127.839624 84.9611126,127.133624 C85.2221126,127.082624 85.4781126,126.978624 85.6951126,126.773624 C86.8731126,125.662624 87.1741126,123.933624 86.7541126,122.408624" id="Fill-3" fill="#E4C3A2"></path>
                <path d="M78.0344126,126.405624 C78.4444126,126.136624 78.7454126,125.705624 78.6844126,125.195624 C78.4734126,123.445624 78.2614126,121.696624 78.0504126,119.946624 C78.0094126,119.608624 77.9704126,119.273624 77.9184126,118.942624 C78.0034126,118.852624 78.0834126,118.753624 78.1534126,118.635624 C78.5184126,118.019624 78.4034126,117.210624 77.9924126,116.654624 C77.4974126,115.986624 76.5754126,115.772624 75.8384126,116.182624 C75.8284126,116.188624 75.8224126,116.196624 75.8134126,116.202624 C75.6714126,116.166624 75.5324126,116.125624 75.3794126,116.106624 C74.7944126,116.034624 74.0244126,116.619624 73.9334126,117.207624 C73.3514126,120.936624 73.8754126,124.651624 75.5044126,128.060624 C75.8534126,128.791624 76.8994126,128.983624 77.5564126,128.598624 C78.3044126,128.161624 78.4454126,127.280624 78.0954126,126.547624 C78.0734126,126.501624 78.0554126,126.451624 78.0344126,126.405624" id="Fill-5" fill="#C3996B"></path>
                <path d="M124.886613,53.2347243 C124.885613,54.0767243 124.893613,54.9217243 124.901613,55.7677243 C123.941613,55.8917243 122.976613,56.3467243 122.114613,57.2727243 C121.786613,57.6247243 120.029613,60.3147243 119.407613,61.0127243 C119.407613,60.4247243 117.267613,58.4467243 117.218613,58.3877243 C116.355613,57.3507243 115.630613,56.2517243 115.005613,55.1047243 C114.005613,52.7157243 113.108613,50.2927243 112.427613,47.8037243 C112.286613,47.2937243 112.092613,46.8477243 111.862613,46.4527243 C112.056613,43.2087243 112.385613,39.9727243 112.861613,36.7577243 C112.875613,36.6657243 112.877613,36.5757243 112.886613,36.4847243 C112.798613,36.4967243 112.710613,36.5077243 112.623613,36.5197243 C112.345613,36.5307243 112.086613,36.4727243 111.845613,36.3467243 C111.595613,36.2647243 111.379613,36.1267243 111.197613,35.9287243 C111.000613,35.7467243 110.861613,35.5307243 110.779613,35.2797243 C110.653613,35.0397243 110.595613,34.7807243 110.605613,34.5037243 C110.606613,34.4477243 110.608613,34.3917243 110.613613,34.3377243 C110.623613,34.2237243 110.641613,34.1097243 110.657613,33.9997243 C110.671613,33.8897243 110.683613,33.7747243 110.702613,33.6647243 C110.718613,33.5767243 110.740613,33.4897243 110.768613,33.4037243 C110.782613,33.3617243 110.798613,33.3197243 110.815613,33.2777243 C110.894613,33.0827243 110.975613,32.8867243 111.062613,32.6947243 C111.096613,32.6187243 111.134613,32.5437243 111.171613,32.4677243 C111.350613,32.1657243 111.592613,31.9237243 111.895613,31.7447243 C112.055613,31.6767243 112.216613,31.6087243 112.377613,31.5417243 C112.385613,31.5387243 112.393613,31.5407243 112.402613,31.5387243 C112.510613,31.2887243 112.622613,31.0407243 112.756613,30.8037243 C112.970613,30.4217243 113.241613,30.0757243 113.518613,29.7377243 C113.542613,29.7107243 113.574613,29.6917243 113.599613,29.6657243 C113.734613,29.3797243 113.881613,29.0997243 114.074613,28.8397243 C114.253613,28.5367243 114.494613,28.2957243 114.798613,28.1167243 L115.280613,27.9137243 C115.637613,27.8167243 115.995613,27.8167243 116.352613,27.9137243 L116.834613,28.1167243 C117.070613,28.2437243 117.258613,28.4167243 117.400613,28.6357243 C117.428613,28.6657243 117.445613,28.7027243 117.469613,28.7337243 C118.264613,28.5707243 119.022613,28.2097243 119.657613,27.5887243 C119.884613,28.3367243 120.159613,29.0777243 120.456613,29.8147243 C121.430613,30.5537243 122.435613,31.2497243 123.399613,32.0027243 C124.189613,32.6207243 124.922613,33.3057243 125.548613,34.0927243 C126.160613,34.8637243 126.827613,35.6947243 127.127613,36.6517243 C127.486613,37.7977243 126.974613,39.0327243 125.940613,39.6247243 C125.514613,39.8677243 125.040613,40.0167243 124.560613,40.1397243 C125.583613,43.0677243 126.466613,46.0477243 127.336613,49.0287243 C125.929613,49.7897243 124.890613,51.2107243 124.886613,53.2347243 M108.777613,96.6727243 C105.272613,97.6317243 101.598613,97.6277243 98.0006126,97.8977243 C97.7896126,97.9137243 97.5826126,97.8807243 97.3846126,97.8117243 C96.8696126,98.2007243 96.1476126,98.3467243 95.5446126,98.2107243 C94.4136126,97.9527243 93.9516126,96.7627243 94.1356126,95.7277243 C94.4196126,94.1187243 95.2186126,92.6147243 96.3356126,91.4277243 C98.2046126,89.4437243 101.061613,88.4157243 103.760613,88.7777243 C106.872613,89.1957243 109.113613,91.2997243 110.186613,94.1917243 C110.566613,95.2157243 109.762613,96.4047243 108.777613,96.6727243 M83.1616126,49.3087243 C83.0256126,49.5667243 82.8166126,49.7697243 82.5776126,49.9307243 C82.6046126,50.2557243 82.6316126,50.5797243 82.6656126,50.9027243 C82.6896126,51.0467243 82.7106126,51.1927243 82.7456126,51.3357243 C82.8786126,51.8797243 82.8006126,52.4017243 82.5426126,52.8897243 C82.4866126,52.9967243 82.4156126,53.0907243 82.3396126,53.1807243 C82.2526126,53.3367243 82.1526126,53.4817243 82.0296126,53.5947243 C81.7716126,53.8317243 81.4716126,54.0057243 81.1396126,54.1137243 C80.8716126,54.1977243 80.6026126,54.2107243 80.3346126,54.1497243 C80.1526126,54.1497243 79.9836126,54.1027243 79.8256126,54.0117243 C79.5756126,53.9307243 79.3596126,53.7917243 79.1766126,53.5947243 C79.0716126,53.4587243 78.9666126,53.3227243 78.8616126,53.1867243 C78.8176126,53.0987243 78.7836126,53.0077243 78.7436126,52.9197243 C78.1376126,55.6507243 77.5596126,58.3897243 77.0526126,61.1467243 C76.8786126,62.0927243 76.9626126,62.9487243 77.2036126,63.7137243 C76.5796126,65.8967243 76.7996126,66.3987243 74.7706126,66.2077243 C72.2416126,65.9687243 68.5466126,62.8867243 66.2926126,61.6847243 C64.6076126,60.7867243 62.9796126,60.9197243 61.6686126,61.6247243 C60.7156126,57.4737243 60.1586126,53.2317243 59.9796126,48.9637243 C59.8896126,46.8147243 58.7036126,45.3857243 57.1786126,44.6737243 L58.2586126,41.9677243 L71.4056126,30.4307243 C72.8676126,32.5407243 75.2696126,33.0787243 77.3606126,34.4287243 C77.6506126,34.7977243 77.9606126,35.1287243 78.2976126,35.3837243 C79.2506126,37.4387243 80.1026126,39.5267243 80.8976126,41.6357243 C80.8656126,41.8767243 80.8316126,42.1167243 80.7996126,42.3557243 C81.8726126,44.0307243 83.0426126,45.7517243 83.3656126,47.7547243 C83.4556126,48.3197243 83.4306126,48.7997243 83.1616126,49.3087243 M139.058613,65.6107243 C139.046613,65.1667243 138.963613,64.7547243 138.847613,64.3607243 C138.956613,62.5757243 138.906613,60.8057243 138.657613,58.9717243 C138.362613,56.7877243 138.238613,53.6497243 136.461613,52.0967243 C136.430613,52.0697243 136.396613,52.0507243 136.365613,52.0247243 C135.850613,49.8737243 135.233613,47.7497243 134.482613,45.6547243 C134.190613,44.8407243 133.699613,44.2567243 133.112613,43.8687243 C132.413613,41.5317243 131.681613,39.2057243 130.838613,36.9197243 C130.605613,36.2887243 130.245613,35.8087243 129.822613,35.4377243 C128.961613,33.1147243 128.115613,30.7767243 127.786613,28.3107243 C127.472613,25.9577243 127.096613,23.8317243 126.261613,21.5937243 C126.236613,21.5267243 126.198613,21.4737243 126.171613,21.4087243 C126.277613,19.4257243 126.420613,17.4457243 126.648613,15.4697243 C126.672613,15.2567243 126.660613,15.0497243 126.632613,14.8457243 C126.757613,14.1077243 126.635613,13.4597243 126.341613,12.9177243 C126.836613,11.8527243 127.364613,10.8037243 127.964613,9.77272429 C127.991613,9.73472429 128.021613,9.70072429 128.049613,9.66172429 C128.590613,8.87072429 129.132613,8.07972429 129.674613,7.28872429 C132.957613,2.49772429 126.263613,-2.03627571 122.255613,0.963724294 C122.089613,1.06972429 121.927613,1.18772429 121.770613,1.31772429 C119.771613,1.23772429 117.750613,2.29472429 116.950613,4.84772429 L116.656613,5.79072429 C116.415613,5.87472429 116.177613,5.98472429 115.942613,6.12672429 C114.915613,2.12972429 109.273613,-0.119275706 107.007613,4.52472429 C106.990613,4.55872429 106.975613,4.59172429 106.959613,4.62672429 C105.078613,4.38372429 103.102613,5.07372429 102.117613,6.98372429 C101.490613,8.20072429 100.900613,9.42772429 100.330613,10.6627243 C99.7376126,10.5727243 99.1266126,10.5777243 98.5236126,10.6857243 C98.9616126,8.25172429 97.8786126,6.42872429 96.2676126,5.48772429 C93.9106126,2.43272429 87.5756126,3.54072429 87.1376126,8.59672429 C87.1146126,8.86272429 87.0846126,9.12672429 87.0606126,9.39172429 C86.9706126,9.22972429 86.8856126,9.06472429 86.7796126,8.90972429 L86.7086126,8.38872429 C86.3656126,5.87672429 82.8366126,4.02772429 80.5576126,4.89672429 C79.5296126,5.29072429 78.5306126,5.71172429 77.5446126,6.15072429 C77.0206126,3.02672429 73.8636126,0.520724294 70.3166126,2.61272429 C69.4566126,3.12072429 68.6266126,3.66572429 67.7906126,4.20272429 C66.5596126,4.14572429 65.2866126,4.54372429 64.2076126,5.57472429 C61.7766126,7.89772429 59.3446126,10.2217243 56.9126126,12.5467243 C56.8706126,12.5327243 56.8286126,12.5257243 56.7856126,12.5137243 C57.2986126,7.55172429 50.3746126,5.64772429 47.4316126,9.73972429 C46.2236126,11.4197243 45.0856126,13.1317243 43.9996126,14.8727243 C43.5536126,12.1417243 40.4916126,10.8037243 37.8876126,11.2727243 C35.4606126,10.4497243 32.4766126,11.2857243 31.5216126,14.5127243 C31.0856126,15.9837243 30.6336126,17.4477243 30.1706126,18.9097243 C30.0416126,19.0797243 29.9176126,19.2577243 29.8046126,19.4557243 C28.1116126,22.4107243 26.3346126,25.3117243 24.4316126,28.1367243 C24.3236126,27.6767243 24.2196126,27.2157243 24.1106126,26.7567243 C22.7536126,21.0087243 14.6786126,22.6947243 14.2896126,28.0867243 C14.2806126,28.2097243 14.2786126,28.3317243 14.2696126,28.4557243 C13.0536126,29.2227243 12.1246126,30.5657243 11.9366126,32.5097243 C11.7116126,34.8457243 12.1186126,37.3157243 13.0666126,39.4097243 C13.7356126,42.3727243 14.6436126,45.2577243 15.7956126,48.1547243 C15.8036126,48.1927243 15.8106126,48.2307243 15.8186126,48.2687243 C15.8246126,48.2667243 15.8316126,48.2627243 15.8386126,48.2607243 C15.9986126,48.6617243 16.1526126,49.0617243 16.3226126,49.4637243 C16.9466126,50.9397243 17.9936126,51.6987243 19.1596126,51.9427243 C19.9416126,56.0037243 20.9206126,60.0267243 22.1186126,64.0087243 C21.6116126,64.1077243 21.1046126,64.2667243 20.6136126,64.5327243 C20.2616126,64.7227243 19.9076126,64.9157243 19.5466126,65.0927243 C19.6126126,65.0517243 19.5286126,65.0717243 19.3796126,65.1197243 C19.2476126,65.0107243 19.1116126,64.9087243 18.9706126,64.8117243 C17.2126126,61.7737243 14.9046126,59.0617243 12.1126126,56.8877243 C10.9326126,55.9697243 9.52661259,55.4347243 8.15361259,55.4917243 C7.80061259,55.4187243 7.42861259,55.3727243 7.02461259,55.3747243 C4.49761259,55.3837243 2.46261259,56.5677243 1.32761259,58.8397243 C0.00961258704,61.4777243 0.947612587,64.0907243 2.25861259,66.4857243 C2.58261259,70.1967243 5.30761259,73.2597243 7.59461259,76.0967243 C10.2666126,79.4137243 13.2646126,82.5447243 16.5696126,85.2367243 C19.5376126,87.6557243 23.6976126,88.6397243 26.4476126,85.2877243 C28.1516126,83.2107243 28.0006126,81.2747243 27.2586126,78.8337243 C27.2486126,78.8007243 27.2396126,78.7717243 27.2296126,78.7407243 C27.2786126,78.7417243 27.3246126,78.7477243 27.3746126,78.7477243 C27.6886126,78.7477243 27.9836126,78.7167243 28.2676126,78.6717243 C28.7276126,83.5557243 30.9356126,88.3617243 33.4546126,92.8477243 C33.9696126,93.7657243 34.6346126,94.3917243 35.3676126,94.7837243 C36.7736126,96.9937243 38.7906126,98.4437243 40.9866126,100.178724 C42.1616126,101.106724 43.3106126,102.161724 44.6236126,102.889724 C45.7366126,103.508724 47.2466126,103.689724 47.9676126,104.246724 C48.6836126,104.798724 49.5476126,105.012724 50.4266126,104.979724 C58.5386126,108.987724 67.6146126,111.488724 75.9746126,114.417724 C78.4526126,115.284724 81.4236126,116.748724 84.2106126,116.921724 C84.8156126,117.234724 85.4266126,117.526724 86.0456126,117.791724 C86.2386126,117.989724 86.4496126,118.174724 86.6876126,118.339724 C88.2066126,119.385724 89.4276126,119.736724 91.2696126,119.549724 C91.4156126,119.535724 91.5546126,119.508724 91.6946126,119.484724 C93.1096126,119.737724 94.5426126,119.868724 95.9826126,119.875724 C96.1046126,119.893724 96.2216126,119.925724 96.3446126,119.938724 C97.5006126,120.057724 98.6536126,120.050724 99.7936126,119.948724 C100.191613,120.076724 100.630613,120.151724 101.103613,120.176724 C101.235613,120.203724 101.367613,120.229724 101.499613,120.255724 C102.830613,120.519724 104.151613,120.454724 105.352613,119.751724 C105.420613,119.711724 105.486613,119.656724 105.553613,119.611724 C111.148613,117.968724 115.011613,113.082724 118.173613,108.085724 C118.535613,107.512724 118.759613,106.947724 118.875613,106.397724 C120.470613,104.538724 121.933613,102.600724 123.277613,100.592724 C124.203613,100.440724 125.135613,99.9367243 125.976613,98.9637243 C126.125613,98.7937243 126.263613,98.6187243 126.409613,98.4457243 C128.472613,97.6457243 129.474613,95.9427243 129.629613,94.1637243 C129.650613,94.1317243 129.671613,94.1007243 129.692613,94.0687243 C130.049613,93.8407243 130.401613,93.5617243 130.744613,93.2127243 C131.326613,92.6187243 131.907613,92.0247243 132.489613,91.4307243 C133.384613,90.5187243 133.832613,89.5287243 133.949613,88.5577243 C135.337613,86.2177243 136.445613,83.7617243 137.250613,81.1197243 C137.302613,80.9867243 137.368613,80.8667243 137.410613,80.7237243 C138.632613,76.5767243 139.318613,72.3807243 139.595613,68.0697243 C139.656613,67.1107243 139.440613,66.2967243 139.058613,65.6107243" id="Fill-7" fill="#E4C3A2"></path>
                <path d="M82.3393126,53.1810243 C82.2523126,53.3360243 82.1523126,53.4820243 82.0293126,53.5950243 C81.7723126,53.8310243 81.4723126,54.0060243 81.1393126,54.1140243 C80.8713126,54.1980243 80.6033126,54.2100243 80.3353126,54.1500243 C80.1523126,54.1500243 79.9833126,54.1030243 79.8253126,54.0120243 C79.5753126,53.9310243 79.3593126,53.7910243 79.1763126,53.5950243 C79.0713126,53.4580243 78.9663126,53.3230243 78.8613126,53.1870243 C78.5763126,52.6100243 78.3603126,52.0050243 78.1243126,51.4090243 C78.0203126,51.1730243 77.9113126,50.9400243 77.7763126,50.7200243 C77.6613126,50.5350243 77.5973126,50.3320243 77.5563126,50.1250243 C75.9963126,50.6670243 74.8283126,52.1340243 75.5033126,54.1670243 C75.9813126,55.6110243 75.4493126,60.0520243 74.2383126,63.1870243 C74.0023126,62.9720243 73.7413126,62.7940243 73.4643126,62.6560243 C73.2683126,62.3970243 73.0623126,62.1430243 72.8543126,61.9010243 C72.3833126,61.3550243 71.8663126,60.8570243 71.3093126,60.4000243 C70.2563126,59.5360243 68.8093126,58.2960243 67.4213126,58.0540243 C66.6303126,57.9160243 65.8603126,57.9900243 65.1813126,58.2500243 C64.7383126,57.1280243 64.5313126,55.9420243 64.5813126,54.6080243 C64.6213126,53.5480243 64.2563126,52.7470243 63.6843126,52.1870243 C63.7353126,51.9390243 63.7993126,51.6750243 63.8923126,51.3790243 C64.0893126,50.7490243 64.2763126,50.4220243 64.6873126,49.7540243 C64.8363126,49.5110243 64.9373126,49.2520243 65.0143126,48.9880243 C65.0273126,48.9680243 65.0393126,48.9490243 65.0523126,48.9290243 C65.5023126,48.2500243 65.6063126,47.4410243 65.4723126,46.6610243 C65.4183126,45.9500243 65.1523126,45.2660243 64.6533126,44.7230243 C64.6463126,44.6760243 64.6303126,44.6290243 64.6213126,44.5820243 C65.2433126,44.3240243 65.8043126,43.8370243 66.2113126,43.0490243 C67.4003126,40.7490243 68.6003126,38.1600243 70.8813126,36.7660243 C74.7193126,34.4210243 71.2063126,28.3650243 67.3483126,30.7220243 C63.9653126,32.7880243 61.9433126,36.0780243 60.1673126,39.5160243 C59.7183126,40.3840243 59.6693126,41.2250243 59.8613126,41.9780243 C59.4293126,42.1420243 59.0333126,42.3880243 58.7303126,42.7370243 C58.5323126,42.9620243 58.3583126,43.1890243 58.1863126,43.4160243 C58.0053126,43.5260243 57.8263126,43.6450243 57.6573126,43.7780243 C55.4263126,45.5320243 55.1213126,49.3450243 55.1040562,51.9830243 C55.1003126,52.6940243 55.1433126,53.3910243 55.2193126,54.0800243 C55.1923126,54.3120243 55.1813126,54.5560243 55.2013126,54.8190243 C55.6083126,60.2650243 58.0433126,67.9140243 62.5863126,71.3150243 C65.1063126,73.2010243 68.3023126,73.9620243 71.2423126,73.4750243 C71.3333126,73.4730243 71.4143126,73.4870243 71.5093126,73.4790243 C76.0343126,73.0920243 79.0643126,70.2190243 80.5363126,65.9870243 C81.8163126,62.3060243 83.3933126,56.9940243 82.4513126,53.0200243 C82.4143126,53.0740243 82.3813126,53.1310243 82.3393126,53.1810243" id="Fill-9" fill="#FEFEFE"></path>
                <path d="M82.5424126,53.0209243 C82.5424126,64.3179243 76.7254126,73.4749243 69.5504126,73.4749243 C62.3754126,73.4749243 56.5584126,64.3179243 56.5584126,53.0209243 C56.5584126,41.7249243 62.3754126,32.5679243 69.5504126,32.5679243 C76.7254126,32.5679243 82.5424126,41.7249243 82.5424126,53.0209243" id="Fill-11" fill="#FEFEFE"></path>
                <path d="M129.220413,48.3314243 C129.227413,48.3104243 129.238413,48.2924243 129.244413,48.2704243 C129.712413,46.7384243 129.716413,44.9594243 129.169413,43.4454243 C128.921413,42.7594243 128.567413,42.1594243 128.029413,41.6984243 C127.924413,41.1324243 127.818413,40.5654243 127.718413,39.9974243 C127.619413,39.4354243 127.329413,38.9604243 126.945413,38.5654243 C126.721413,38.9964243 126.382413,39.3704243 125.940413,39.6234243 C125.232413,40.0294243 124.394413,40.1834243 123.609413,40.3664243 C122.640413,40.5944243 121.725413,40.1604243 121.283413,39.3224243 C120.921413,40.0754243 120.811413,40.9684243 120.968413,41.8584243 C121.359413,44.0824243 122.271413,46.7764243 121.931413,49.0504243 C121.724413,50.4314243 122.083413,51.8234243 123.082413,52.6774243 C122.898413,53.7514243 122.661413,54.8144243 122.363413,55.8674243 C122.144413,56.6444243 121.897413,57.4094243 121.621413,58.1674243 C121.609413,58.1994243 121.596413,58.2304243 121.585413,58.2624243 C121.560413,58.2844243 121.533413,58.2984243 121.509413,58.3214243 C121.481413,58.3484243 121.262413,58.3934243 121.211413,58.4224243 C121.069413,58.3734243 120.783413,58.2734243 120.687413,58.2274243 C120.298413,58.0444243 120.047413,57.8654243 119.873413,57.6454243 C119.861413,57.0904243 119.703413,56.5034243 119.313413,55.9054243 C118.582413,54.7854243 118.291413,53.6614243 117.988413,52.3604243 C117.782413,51.4764243 117.108413,49.7864243 117.296413,48.9094243 C117.474413,48.0784243 117.376413,47.3384243 117.095413,46.7134243 C117.035413,46.2214243 116.852413,45.7284243 116.479413,45.2694243 C116.509413,44.8804243 116.541413,44.4904243 116.575413,44.1024243 C116.647413,43.3024243 116.718413,42.4994243 116.834413,41.7054243 C117.066413,40.1154243 117.412413,38.4434243 118.040413,36.9564243 C118.759413,35.2574243 118.553413,33.3554243 116.930413,32.2754243 C116.918413,32.3264243 116.901413,32.3754243 116.891413,32.4264243 C116.795413,32.7684243 116.622413,33.0644243 116.372413,33.3164243 L115.964413,33.6324243 C115.929413,33.6524243 115.891413,33.6594243 115.856413,33.6774243 C115.651413,34.1954243 115.455413,34.7174243 115.236413,35.2304243 C115.057413,35.5334243 114.815413,35.7744243 114.512413,35.9544243 L114.031413,36.1574243 C113.911413,36.1964243 113.788413,36.2164243 113.665413,36.2264243 C113.509413,36.3204243 113.342413,36.3964243 113.160413,36.4484243 C112.981413,36.4724243 112.802413,36.4964243 112.623413,36.5194243 C112.345413,36.5304243 112.086413,36.4734243 111.846413,36.3464243 C111.596413,36.2654243 111.379413,36.1264243 111.197413,35.9294243 C111.171413,35.9044243 111.154413,35.8754243 111.130413,35.8504243 C110.484413,37.8464243 110.049413,39.8614243 109.791413,42.0184243 C109.519413,44.2814243 108.926413,47.0814243 110.362413,49.0004243 C110.376413,50.5494243 110.744413,52.0444243 111.102413,53.6224243 C111.494413,55.3484243 111.950413,57.0464243 112.780413,58.6024243 C112.787413,58.6444243 112.786413,58.6874243 112.795413,58.7314243 C113.608413,62.6114243 117.255413,65.1524243 120.933413,65.2934243 C121.692413,65.7044243 122.568413,65.8584243 123.379413,65.5274243 C124.615413,65.0244243 125.856413,64.6184243 126.727413,63.5524243 C127.608413,62.4754243 128.052413,60.9494243 128.509413,59.6494243 C129.509413,56.8044243 130.030413,53.8554243 130.337413,50.8624243 C130.438413,49.8794243 129.952413,48.9764243 129.220413,48.3314243" id="Fill-13" fill="#FEFEFE"></path>
                <path d="M129.049713,46.9759243 C129.049713,57.2889243 124.837713,65.6489243 119.640713,65.6489243 C114.444713,65.6489243 110.232713,57.2889243 110.232713,46.9759243 C110.232713,36.6639243 114.444713,28.3039243 119.640713,28.3039243 C124.837713,28.3039243 129.049713,36.6639243 129.049713,46.9759243" id="Fill-15" fill="#FEFEFE"></path>
                <path d="M116.006513,113.029724 C115.945513,112.843724 115.842513,112.682724 115.696513,112.547724 C115.410513,112.284724 115.035513,112.089724 114.635513,112.107724 C114.502513,112.125724 114.370513,112.142724 114.236513,112.161724 C113.982513,112.232724 113.762513,112.360724 113.575513,112.547724 C113.016513,112.987724 112.457513,113.428724 111.899513,113.870724 C111.830513,113.894724 111.760513,113.899724 111.692513,113.932724 C110.423513,114.548724 109.153513,115.163724 107.884513,115.777724 C107.551513,115.606724 107.185513,115.508724 106.796513,115.539724 C99.7895126,116.091724 92.8295126,115.319724 86.1215126,113.219724 C85.6975126,113.088724 85.3115126,113.073724 84.9615126,113.134724 C76.2885126,109.998724 67.6895126,106.664724 59.1645126,103.146724 C58.9345126,102.487724 58.4325126,101.915724 57.5795126,101.644724 C46.7805126,98.2267243 35.2035126,91.1247243 34.0355126,78.7257243 C33.9085126,77.3817243 32.9765126,76.2257243 31.5355126,76.2257243 C31.1745126,76.2257243 30.8075126,76.3297243 30.4645126,76.4967243 C29.6235126,75.9717243 28.5135126,75.8227243 27.5925126,76.1687243 C27.2455126,76.2997243 26.9595126,76.4667243 26.6825126,76.6657243 C26.6415126,76.6627243 26.5995126,76.6537243 26.5585126,76.6557243 C26.1235126,76.6747243 25.7785126,76.8377243 25.5275126,77.0937243 C25.1875126,77.2377243 24.8645126,77.4007243 24.5745126,77.5817243 C23.9345126,77.9817243 23.3905126,78.4987243 22.9825126,79.1337243 C22.6225126,79.6907243 22.4715126,80.4867243 22.2285126,80.9477243 C22.0955126,81.2007243 22.2275126,80.9797243 22.0505126,81.1537243 C22.1385126,81.0667243 22.0425126,81.1147243 21.9915126,81.1527243 C18.9825126,80.6787243 16.5255126,78.2627243 14.4555126,76.1767243 C11.9875126,73.6907243 9.69451259,70.8987243 8.93151259,67.3977243 C8.87551259,67.1417243 8.77151259,66.9397243 8.63851259,66.7787243 C8.59451259,65.6827243 8.75151259,64.5837243 9.19151259,63.5167243 C9.69051259,62.3047243 10.6285126,61.0957243 11.9025126,60.6497243 C13.0415126,61.1947243 14.0965126,61.9287243 15.0005126,62.8507243 C15.6845126,63.5497243 16.5635126,63.3507243 17.0925126,62.8067243 C18.0155126,62.6757243 18.8865126,61.6587243 18.3335126,60.5507243 C17.2015126,58.2857243 14.6565126,57.2587243 12.2545126,57.5377243 C11.9565126,57.1017243 11.5895126,56.7467243 11.1605126,56.4677243 C10.9185126,56.0147243 10.4875126,55.6657243 9.90851259,55.6487243 C9.16051259,55.6287243 8.43451259,55.7017243 7.71851259,55.8167243 C6.72551259,55.6937243 5.71851259,55.7727243 4.71551259,56.2117243 C4.28951259,56.3977243 3.94151259,56.6417243 3.62651259,56.9107243 C3.32451259,56.7717243 2.98651259,56.7127243 2.65051259,56.7967243 C-0.748487413,57.6427243 -0.108487413,62.2447243 0.433512587,64.7687243 C0.850512587,66.7167243 1.58351259,68.5717243 2.56051259,70.2927243 C3.04251259,71.6217243 3.70851259,72.9117243 4.39451259,74.0757243 C4.65951259,74.5247243 5.13251259,74.7197243 5.61451259,74.7407243 C6.64351259,76.3047243 7.71751259,77.8397243 8.83951259,79.3397243 C9.28751259,79.9377243 10.0835126,80.3067243 10.7935126,79.9257243 C12.7235126,83.2577243 15.2315126,86.4557243 19.3055126,86.9827243 C19.5435126,87.0137243 19.7795126,87.0277243 20.0145126,87.0337243 C20.8045126,87.3647243 21.6595126,87.5347243 22.4675126,87.3937243 C22.4825126,87.4087243 22.4865126,87.4307243 22.5015126,87.4447243 C23.1195126,88.0117243 24.0075126,88.0147243 24.6235126,87.4447243 C25.6895126,86.4587243 26.3875126,85.2527243 26.8805126,83.9507243 C27.6115126,83.0107243 27.9785126,81.8507243 27.7405126,80.5947243 C27.7695126,80.4167243 27.7845126,80.2397243 27.8105126,80.0597243 C27.8275126,80.0137243 27.8405126,79.9667243 27.8585126,79.9227243 C27.9265126,79.7767243 28.0115126,79.6407243 28.0945126,79.5047243 L28.0965126,79.5047243 C28.1515126,79.4957243 28.1565126,79.4927243 28.1515126,79.4917243 C28.1645126,79.4917243 28.1795126,79.4907243 28.2265126,79.4887243 C28.3635126,79.4807243 28.4955126,79.4847243 28.6315126,79.4867243 L28.6695126,79.4867243 C28.6695126,79.4887243 28.6765126,79.4917243 28.6895126,79.4957243 C28.7775126,79.8107243 28.9775126,80.0867243 29.2415126,80.2827243 C30.2395126,86.8697243 33.5475126,92.7207243 38.6185126,97.1207243 C42.7875126,100.737724 47.6865126,103.336724 52.8305126,105.271724 C53.1555126,105.826724 53.7045126,106.260724 54.3555126,106.534724 C64.3635126,110.734724 74.4795126,114.673724 84.6945126,118.344724 C85.1025126,118.491724 85.5285126,118.478724 85.9335126,118.369724 C92.6855126,120.332724 99.7865126,121.091724 106.796513,120.539724 C107.561513,120.478724 108.260513,120.137724 108.721513,119.593724 C108.834513,119.561724 108.943513,119.519724 109.045513,119.455724 L112.045513,117.572724 C112.342513,117.385724 112.579513,117.102724 112.697513,116.769724 C112.867513,116.687724 113.037513,116.605724 113.206513,116.523724 C113.211513,116.520724 113.216513,116.515724 113.221513,116.512724 C113.443513,116.438724 113.642513,116.325724 113.810513,116.158724 L115.696513,114.668724 C115.842513,114.532724 115.945513,114.371724 116.006513,114.185724 C116.100513,114.006724 116.143513,113.813724 116.136454,113.607724 C116.143513,113.400724 116.100513,113.208724 116.006513,113.029724" id="Fill-17" fill="#C3996B"></path>
                <path d="M65.7099126,5.72191963 C64.8199126,5.71202429 64.3059126,6.42002429 64.2099126,7.22202429 C63.6779126,11.6800243 61.3549126,16.0930243 57.6769126,18.7430243 C53.8389126,21.5080243 48.8309126,22.2350243 44.4089126,20.5320243 C44.3419126,20.5060243 44.2789126,20.4940243 44.2149126,20.4780243 C43.9459126,20.2750243 43.6189126,20.1470243 43.2989126,20.1470243 C43.1569126,20.1470243 43.0269126,20.1700243 42.9019126,20.2040243 C42.9079126,20.1180243 42.9099126,20.0310243 42.9139126,19.9440243 C44.1819126,19.5370243 44.5079126,17.4340243 42.9159126,17.0860243 C42.3339126,16.9590243 41.7519126,16.8320243 41.1699126,16.7050243 C40.0869126,15.1850243 38.5929126,12.9970243 36.6719126,14.3210243 C36.2519126,14.6100243 35.9739126,15.0380243 35.7629126,15.5090243 C35.6399126,15.5800243 35.5189126,15.6640243 35.4149126,15.7880243 C34.5319126,16.8300243 34.0329126,18.1160243 34.0389126,19.4340243 C32.9629126,22.5620243 31.7739126,25.6500243 30.4589126,28.6850243 C30.3049126,29.0400243 30.2889126,29.4040243 30.3669126,29.7340243 C27.3459126,30.7410243 24.6459126,32.4400243 22.4749126,34.7630243 C22.3539126,34.6700243 22.2209126,34.5930243 22.0769126,34.5390243 C20.9949126,34.1380243 19.9399126,34.1200243 18.8179126,34.3470243 C18.7009126,34.3700243 18.5969126,34.4100243 18.4999126,34.4600243 C18.3299126,34.4660243 18.1609126,34.4820243 17.9909126,34.5000243 C17.0429126,34.0870243 15.7649126,34.6460243 15.8549126,35.7890243 C15.4249126,36.0970243 15.1939126,36.6180243 15.4589126,37.2830243 L19.7709126,48.0890243 C19.7719126,48.0900243 19.7719126,48.0910243 19.7729126,48.0930243 C19.8279126,48.3050243 19.8839126,48.5170243 19.9379126,48.7300243 C20.3609126,51.1790243 20.7839126,53.6270243 21.2079126,56.0760243 C21.3289126,56.7800243 21.9999126,57.1420243 22.6649126,57.1420243 C22.5199126,57.4180243 22.3749126,57.6950243 22.2289126,57.9710243 C21.3259126,59.6760243 23.9149126,61.1940243 24.8189126,59.4850243 C26.7079126,55.9170243 28.4339126,52.3560243 28.8789126,48.2930243 C29.2479126,44.9290243 28.7999126,41.5410243 28.2199126,38.2110243 C29.6669126,38.2590243 31.1179126,38.0620243 32.4939126,37.5910243 C34.8589126,36.7820243 36.7239126,35.2680243 38.4479126,33.4990243 C41.1679126,30.7110243 43.5259126,27.4870243 44.4399126,23.7110243 C49.4689126,25.3180243 55.2309126,24.2700243 59.4639126,21.1340243 C63.9439126,17.8150243 66.5559126,12.6990243 67.2099126,7.22202429 C67.3069126,6.41002429 66.4509126,5.73002429 65.7099126,5.72191963" id="Fill-19" fill="#C3996B"></path>
                <path d="M56.9628126,105.547224 C56.7388126,105.199224 56.4498126,105.010224 56.0668126,104.858224 C54.7268126,104.326224 53.3868126,103.794224 52.0478126,103.263224 C51.8038126,103.165224 51.4688126,103.197224 51.1868126,103.288224 C51.1658126,103.259224 51.1488126,103.228224 51.1268126,103.199224 C49.7848126,101.502224 47.7938126,100.662224 45.9128126,99.7192243 C44.0208126,98.7692243 42.2158126,97.6222243 40.5868126,96.2672243 C39.7018126,95.5302243 38.8698126,94.7412243 38.0848126,93.9132243 C38.2208126,93.4112243 38.0668126,92.8662243 37.7138126,92.4322243 C34.6788126,88.7032243 31.5468126,84.7572243 30.7088126,79.8922243 C30.5708126,79.0932243 29.5888126,78.6452243 28.8628126,78.8442243 C28.0188126,79.0762243 27.6778126,79.8882243 27.8158126,80.6892243 C28.2058126,82.9552243 29.0588126,85.0442243 30.1618126,87.0122243 C30.1358126,87.2732243 30.1718126,87.5502243 30.3058126,87.8362243 C32.1748126,91.7962243 34.9058126,95.3692243 38.2458126,98.2032243 C39.9108126,99.6162243 41.7108126,100.876224 43.6348126,101.912224 C45.5028126,102.918224 47.6468126,103.603224 49.0048126,105.320224 C49.3538126,105.761224 49.9828126,105.838224 50.5138126,105.671224 C50.7118126,105.893224 50.9518126,106.036224 51.2498126,106.155224 C52.5898126,106.687224 53.9298126,107.219224 55.2688126,107.751224 C55.6078126,107.885224 56.1238126,107.776224 56.4248126,107.600224 C56.7358126,107.417224 57.0328126,107.061224 57.1138126,106.703224 C57.2018126,106.319224 57.1828126,105.888224 56.9628126,105.547224" id="Fill-21" fill="#C3996B"></path>
                <path d="M18.5290126,62.8636243 C17.0640126,60.8896243 14.8280126,59.0936243 12.2160126,59.2886243 C9.72401259,59.4736243 7.39801259,61.4066243 7.39401259,64.0236243 C7.39301259,64.1296243 7.40601259,64.2326243 7.42801259,64.3336243 C5.91101259,66.6296243 5.73501259,69.7176243 6.98701259,72.1846243 C7.35301259,72.9066243 8.37001259,73.1136243 9.03901259,72.7226243 C9.77401259,72.2936243 9.94501259,71.3946243 9.57701259,70.6706243 C9.56501259,70.6446243 9.47801259,70.4566243 9.45901259,70.4246243 C9.41401259,70.3076243 9.37301259,70.1906243 9.33601259,70.0726243 C9.29301259,69.9316243 9.25501259,69.7896243 9.22201259,69.6456243 C9.20101259,69.5506243 9.18101259,69.4536243 9.16401259,69.3566243 C9.15601259,69.3066243 9.15401259,69.2936243 9.15001259,69.2686243 C9.16001259,69.3396243 9.13301259,68.9996243 9.13101259,68.9486243 C9.12501259,68.8006243 9.12301259,68.6536243 9.12701259,68.5056243 C9.13101259,68.3576243 9.14201259,68.2106243 9.15401259,68.0626243 C9.15701259,68.0346243 9.15701259,68.0366243 9.15801259,68.0236243 C9.16601259,67.9736243 9.17401259,67.9246243 9.18401259,67.8746243 C9.24301259,67.5586243 9.32401259,67.2486243 9.42901259,66.9446243 C9.44101259,66.9106243 9.51801259,66.7226243 9.53101259,66.6846243 C9.58201259,66.5746243 9.63501259,66.4646243 9.69401259,66.3576243 C9.82501259,66.1146243 9.97501259,65.8746243 10.1430126,65.6546243 C10.1820126,65.6136243 10.2980126,65.4796243 10.3130126,65.4636243 C10.4130126,65.3546243 10.5180126,65.2506243 10.6270126,65.1496243 C10.6270126,65.1486243 10.8200126,64.9886243 10.8420126,64.9646243 C10.9500126,64.8856243 11.0610126,64.8106243 11.1740126,64.7406243 C11.3040126,64.6606243 11.4380126,64.5856243 11.5740126,64.5156243 C11.5750126,64.5146243 11.7760126,64.4256243 11.8250126,64.4006243 C12.0950126,64.2976243 12.3710126,64.2116243 12.6520126,64.1456243 C12.7770126,64.1176243 12.9030126,64.0936243 13.0300126,64.0736243 C13.0770126,64.0706243 13.2800126,64.0496243 13.3170126,64.0476243 C13.6250126,64.0276243 13.9290126,64.0426243 14.2380126,64.0556243 C14.3000126,64.0576243 14.3310126,64.0586243 14.3500126,64.0576243 C14.3650126,64.0626243 14.3910126,64.0696243 14.4480126,64.0806243 C14.5980126,64.1106243 14.7480126,64.1396243 14.8970126,64.1766243 C15.5690126,64.3486243 15.8440126,64.4776243 16.4770126,64.9156243 C17.0180126,65.2896243 17.8500126,65.1256243 18.2950126,64.6806243 C18.7290126,64.2466243 18.9200126,63.3896243 18.5290126,62.8636243" id="Fill-23" fill="#C3996B"></path>
                <path d="M78.3325126,63.5072243 C75.7035126,64.9312243 72.4725126,64.1582243 69.6195126,64.3122243 C68.0055126,64.3982243 66.4165126,64.7362243 64.8025126,64.8302243 C63.0805126,64.9312243 61.3525126,64.8432243 59.6525126,64.5472243 C57.7915126,64.2242243 56.9825126,67.0212243 58.7795126,67.4192243 C58.8245126,67.7442243 58.9655126,68.0652243 59.1865126,68.3342243 C60.6595126,70.1242243 62.4995126,71.6402243 64.5685126,72.6942243 C65.6885126,73.2652243 66.8605126,73.7242243 68.1125126,73.8902243 C69.3425126,74.0522243 70.5535126,73.8682243 71.7735126,73.6912243 C73.7435126,73.4032243 75.4645126,72.6422243 76.8625126,71.2432243 C77.0545126,71.2722243 77.2505126,71.2642243 77.4385126,71.2022243 C77.7875126,71.0902243 78.1775126,70.8622243 78.3345126,70.5132243 C78.7595126,69.5722243 79.2905126,68.6842243 79.9195126,67.8642243 C80.0285126,67.6932243 80.0885126,67.5062243 80.0975126,67.3072243 C80.1425126,67.1072243 80.1325126,66.9072243 80.0705126,66.7082243 C80.0455126,66.6192243 80.0095126,66.5282243 79.9635126,66.4392243 C80.1035126,66.1452243 80.2525126,65.8562243 80.3855126,65.5592243 C80.9795126,64.2332243 79.7385126,62.7442243 78.3325126,63.5072243" id="Fill-25" fill="#E4C3A2"></path>
                <path d="M80.7021126,42.3051243 C80.6901126,42.2671243 80.6741126,42.2311243 80.6611126,42.1941243 C81.3941126,39.9331243 79.6271126,37.4221243 78.1941126,35.7801243 C76.6221126,33.9791243 74.4661126,32.4971243 72.1041126,31.9901243 C69.0631126,31.3341243 66.0851126,32.3011243 63.6791126,34.1891243 C61.2351126,36.1071243 59.6191126,38.8001243 58.1631126,41.4991243 C57.6731126,41.7581243 57.3211126,42.3301243 57.3211126,42.8601243 C57.3211126,43.7451243 58.0121126,44.2701243 58.8211126,44.3601243 C59.0831126,44.3891243 59.3481126,44.4081243 59.6111126,44.4371243 C59.7861126,44.8431243 60.1161126,45.1811243 60.5601126,45.2601243 C63.6971126,45.8141243 66.8771126,46.0761243 70.0621126,45.9591243 C70.4871126,45.9441243 70.9091126,45.9051243 71.3321126,45.8761243 C71.6001126,46.0951243 71.9481126,46.2731243 72.2961126,46.2391243 C72.8031126,46.1891243 73.3091126,46.1151243 73.7961126,45.9661243 C74.0761126,45.8801243 74.3481126,45.7681243 74.6161126,45.6471243 C74.8061126,45.7411243 75.0281126,45.7981243 75.2881126,45.7981243 C75.3091126,45.7981243 75.3261126,45.7921243 75.3461126,45.7921243 C75.5401126,45.8841243 75.7511126,45.9521243 75.9761126,45.9821243 C77.0231126,46.1201243 78.0201126,45.9611243 78.9491126,45.5931243 C79.8991126,46.0761243 81.3861126,45.3411243 81.1721126,44.0061243 C81.3941126,43.4331243 81.1711126,42.7201243 80.7021126,42.3051243" id="Fill-27" fill="#E4C3A2"></path>
                <path d="M79.6635126,64.4271243 C78.0855126,64.0561243 76.5945126,64.3651243 75.0355126,64.6731243 C73.2375126,65.0291243 71.4385126,65.0341243 69.6135126,65.0231243 C66.0545126,65.0001243 62.4965126,64.9771243 58.9365126,64.9541243 C57.6495126,64.9461243 57.6485126,66.9461243 58.9365126,66.9541243 C62.3615126,66.9761243 65.7865126,66.9971243 69.2105126,67.0201243 C70.8635126,67.0311243 72.5195126,67.0591243 74.1625126,66.8391243 C75.7985126,66.6211243 77.4785126,65.9661243 79.1315126,66.3571243 C80.3835126,66.6521243 80.9175126,64.7241243 79.6635126,64.4271243" id="Fill-29" fill="#C3996B"></path>
                <path d="M80.6337126,42.4515243 C77.0947126,43.8535243 73.3417126,44.1885243 69.5637126,44.0795243 C67.7167126,44.0255243 65.8737126,43.8755243 64.0337126,43.7045243 C62.1537126,43.5305243 60.1827126,43.4575243 58.4727126,42.5775243 C57.3297126,41.9895243 56.3167126,43.7145243 57.4627126,44.3045243 C59.1467126,45.1705243 60.9537126,45.4055243 62.8157126,45.5895243 C64.9237126,45.7965243 67.0357126,45.9885243 69.1537126,46.0655243 C73.2247126,46.2155243 77.3477126,45.8925243 81.1657126,44.3805243 C82.3477126,43.9115243 81.8327126,41.9755243 80.6337126,42.4515243" id="Fill-31" fill="#C3996B"></path>
                <path d="M79.8915126,42.5033243 C72.9295126,44.1153243 65.8285126,42.0663243 58.8595126,41.5543243 C57.5755126,41.4593243 57.5815126,43.4593243 58.8595126,43.5543243 C66.0455126,44.0823243 73.2405126,46.0953243 80.4235126,44.4323243 C81.6765126,44.1423243 81.1455126,42.2123243 79.8915126,42.5033243" id="Fill-33" fill="#C3996B"></path>
                <path d="M80.1093126,64.9730243 C76.5103126,64.5940243 73.1473126,66.0400243 69.6023126,66.2860243 C66.0083126,66.5360243 62.5363126,65.2380243 58.9323126,65.7260243 C57.6633126,65.8980243 58.2033126,67.8250243 59.4643126,67.6540243 C62.9813126,67.1770243 66.4493126,68.5910243 69.9813126,68.2550243 C73.3803126,67.9320243 76.6593126,66.6100243 80.1093126,66.9730243 C81.3883126,67.1080243 81.3783126,65.1070243 80.1093126,64.9730243" id="Fill-35" fill="#C3996B"></path>
                <path d="M126.602913,56.6664243 C124.810913,57.5014243 122.969913,58.2214243 121.087913,58.8274243 C119.345913,59.3894243 117.282913,60.2124243 115.428913,59.8354243 C114.824913,59.7124243 114.205913,59.9124243 113.843913,60.3744243 C113.684913,60.4834243 113.538913,60.6194243 113.425913,60.8114243 C113.076913,61.4084243 113.215913,62.1284243 113.660913,62.6294243 C115.630913,64.8424243 118.755913,66.0174243 121.698913,65.6964243 C123.266913,65.5254243 125.117913,65.0534243 126.193913,63.8184243 C126.807913,63.1164243 127.115913,62.2204243 127.485913,61.3784243 L128.654913,58.7184243 C129.266913,57.3274243 128.020913,56.0064243 126.602913,56.6664243" id="Fill-37" fill="#E4C3A2"></path>
                <path d="M126.028713,36.3597243 C126.310713,35.3047243 125.682713,34.1677243 124.912713,33.3157243 C123.222713,31.4497243 120.998713,29.8017243 118.591713,29.0057243 C116.136713,28.1917243 113.328713,28.7177243 112.071713,31.1777243 C111.406713,32.4797243 111.096713,33.9737243 110.760713,35.3857243 C110.459713,36.6507243 110.224713,37.9407243 110.141713,39.2397243 L110.121713,39.2647243 C109.986713,39.4997243 109.918713,39.7517243 109.917713,40.0227243 L109.917713,40.4507243 C109.909713,40.6567243 109.952713,40.8487243 110.046713,41.0277243 C110.106713,41.2137243 110.210713,41.3747243 110.356713,41.5107243 C110.492713,41.6567243 110.653713,41.7597243 110.839713,41.8207243 C111.017713,41.9147243 111.210713,41.9587243 111.417713,41.9507243 C111.549713,41.9317243 111.682713,41.9147243 111.816713,41.8957243 C111.826713,41.8937243 111.834713,41.8867243 111.844713,41.8837243 C111.938713,41.8727243 112.021713,41.8307243 112.111713,41.8037243 C113.299713,41.9057243 114.269713,41.4247243 115.391713,41.0187243 C116.411713,40.6477243 117.444713,40.3137243 118.488713,40.0157243 C120.397713,39.4717243 122.340713,39.0627243 124.302713,38.7667243 C124.497713,38.7767243 124.688713,38.7997243 124.884713,38.8017243 C126.289713,38.8107243 126.667713,37.2297243 126.028713,36.3597243" id="Fill-39" fill="#E4C3A2"></path>
                <path d="M125.634213,35.6166243 C120.842213,37.3406243 115.943213,38.7456243 110.966213,39.8266243 C109.709213,40.0986243 110.241213,42.0286243 111.498213,41.7556243 C116.475213,40.6746243 121.373213,39.2686243 126.166213,37.5456243 C127.368213,37.1126243 126.849213,35.1796243 125.634213,35.6166243" id="Fill-41" fill="#C3996B"></path>
                <path d="M128.086313,56.0521243 C123.778313,57.6031243 119.036313,59.8611243 114.341313,59.2271243 C113.802313,59.1541243 113.274313,59.3571243 113.111313,59.9251243 C112.978313,60.3901243 113.275313,61.0831243 113.810313,61.1561243 C118.971313,61.8531243 123.865313,59.6911243 128.618313,57.9821243 C129.820313,57.5481243 129.301313,55.6151243 128.086313,56.0521243" id="Fill-43" fill="#C3996B"></path>
                <path d="M124.868613,34.4310243 C122.669613,35.4260243 120.402613,36.2540243 118.126613,37.0520243 C115.863613,37.8450243 113.563613,38.7670243 111.171613,39.0770243 C110.631613,39.1460243 110.177613,39.4860243 110.171573,40.0770243 C110.166613,40.5640243 110.635613,41.1460243 111.171613,41.0770243 C113.765613,40.7420243 116.201613,39.8410243 118.658613,38.9800243 C121.098613,38.1250243 123.521613,37.2240243 125.877613,36.1580243 C127.048613,35.6280243 126.033613,33.9040243 124.868613,34.4310243" id="Fill-45" fill="#C3996B"></path>
                <path d="M127.595113,56.8812243 C127.598113,56.9292243 127.603113,56.9542243 127.443113,57.0542243 C127.315113,57.1322243 127.183113,57.1982243 127.047113,57.2592243 C126.489113,57.5032243 125.896113,57.6932243 125.325113,57.9082243 C124.249113,58.3162243 123.176113,58.7332243 122.090113,59.1132243 C119.937113,59.8702243 117.738113,60.4482243 115.439113,60.2102243 C114.901113,60.1552243 114.439113,60.7102243 114.439113,61.2102243 C114.439113,61.7982243 114.900113,62.1552243 115.439113,62.2102243 C118.240113,62.5002243 120.969113,61.6632243 123.564113,60.7002243 C124.904113,60.2042243 126.249113,59.7122243 127.578113,59.1872243 C128.587113,58.7882243 129.658113,58.1102243 129.595113,56.8812243 C129.530113,55.6012243 127.529113,55.5932243 127.595113,56.8812243" id="Fill-47" fill="#C3996B"></path>
                <path d="M68.0698126,73.7806243 C68.1268126,73.8076243 68.1748126,73.8506243 68.2378126,73.8636243 C69.3188126,74.0816243 70.4038126,73.9696243 71.3988126,73.6136243 C70.3198126,73.7736243 69.1638126,73.8956243 68.0698126,73.7806243" id="Fill-55" fill="#231F20"></path>
                <path d="M78.6445126,69.5951243 C78.6265126,69.6431243 78.6155126,69.6891243 78.5815126,69.7381243 C77.7135126,70.9691243 76.5285126,71.9311243 75.1875126,72.5851243 C75.4345126,72.6551243 75.7065126,72.6291243 75.9625126,72.5061243 C77.3815126,71.8281243 78.5305126,70.5481243 79.1095126,69.0701243 C78.9865126,69.2701243 78.8315126,69.4471243 78.6445126,69.5951243" id="Fill-57" fill="#231F20"></path>
                <path d="M66.5390126,20.0511243 C61.5090126,25.0511243 55.3140126,28.7451243 48.5200126,30.7851243 C47.2900126,31.1551243 47.8140126,33.0851243 49.0510126,32.7141243 C56.1710126,30.5761243 62.6820126,26.7051243 67.9530126,21.4651243 C68.8670126,20.5561243 67.4530126,19.1421243 66.5390126,20.0511243" id="Fill-59" fill="#231F20"></path>
                <path d="M123.428113,22.9222243 C118.819113,22.4762243 114.418113,20.7452243 110.683113,18.0212243 C110.243113,17.7002243 109.572113,17.9492243 109.314113,18.3792243 C109.013113,18.8822243 109.239113,19.4312243 109.673113,19.7482243 C113.704113,22.6882243 118.470113,24.4422243 123.428113,24.9222243 C123.966113,24.9742243 124.428113,24.4252243 124.428113,23.9222243 C124.428113,23.3382243 123.968113,22.9752243 123.428113,22.9222243" id="Fill-61" fill="#231F20"></path>
                <path d="M94.0766126,96.8744243 C95.2896126,92.5044243 98.2636126,89.1934243 101.557613,88.8784243 C104.947613,88.5544243 108.193613,91.2934243 109.825613,95.5094243 C109.758613,95.5024243 109.703613,95.4794243 109.628613,95.4864243 C104.444613,95.9494243 99.2606126,96.4114243 94.0766126,96.8744243 M111.255613,95.1224243 C109.480613,89.8634243 105.388613,86.3534243 101.308613,86.9074243 C97.3046126,87.4514243 93.8316126,91.5274243 92.5656126,96.9964243 C92.4316126,97.5744243 92.6636126,97.9874243 92.9726126,98.1444243 C93.0366126,98.5734243 93.3356126,98.9404243 93.9036126,98.8904243 C99.1446126,98.4224243 104.386613,97.9544243 109.628613,97.4864243 C110.168613,97.4374243 110.467613,97.0474243 110.550613,96.6244243 C111.014613,96.6644243 111.530613,95.9374243 111.255613,95.1224243" id="Fill-63" fill="#231F20"></path>
                <path d="M81.3320126,59.9974243 C79.9510126,55.6624243 76.0180126,52.2684243 71.1530126,52.6854243 C65.9170126,53.1344243 62.1550126,58.1184243 62.1730126,63.1994243 C61.0340126,63.2014243 59.8950126,63.2034243 58.7560126,63.2054243 C58.3680126,63.2064243 58.1110126,63.3964243 57.9570126,63.6504243 C56.5620126,60.3534243 55.1520126,56.9094243 54.9890126,53.2954243 C54.8700126,50.6494243 55.5620126,48.1714243 56.6370126,45.8254243 C64.6320126,48.4074243 73.2050126,48.7214243 81.3750126,46.7974243 C81.4070126,47.1164243 81.4440126,47.4354243 81.4720126,47.7554243 C81.4250126,47.7664243 81.3800126,47.7824243 81.3330126,47.7944243 C81.4680126,47.8704243 81.5770126,47.9844243 81.6010126,48.1404243 C81.6100126,48.1944243 81.6110126,48.2504243 81.6180126,48.3064243 L81.6230126,48.3064243 L81.6230126,48.3524243 C81.6870126,48.8784243 81.6780126,49.3984243 81.6440126,49.9174243 C81.6700126,50.2674243 81.6960126,50.6164243 81.7210126,50.9624243 C81.9440126,53.9994243 81.9630126,57.0504243 81.3320126,59.9974243 M79.3950126,68.4624243 C79.2450126,68.9054243 79.0090126,69.3054243 78.6430126,69.5974243 C78.6250126,69.6434243 78.6150126,69.6894243 78.5820126,69.7374243 C77.1510126,71.7674243 74.8670126,73.0784243 72.4260126,73.4564243 C70.4640126,73.7604243 68.0020126,74.2114243 66.1530126,73.2264243 C63.6700126,72.9194243 61.8310126,71.2234243 60.4100126,69.1904243 C60.2910126,69.0764243 60.1700126,68.9664243 60.0580126,68.8454243 C59.9360126,68.7124243 59.8990126,68.5664243 59.9010126,68.4254243 C59.6900126,68.0894243 59.4910126,67.7484243 59.2980126,67.4064243 C59.1450126,67.1474243 59.0030126,66.8844243 58.8670126,66.6154243 C58.6240126,66.1514243 58.3950126,65.6934243 58.1790126,65.2514243 C57.9730126,65.1434243 57.9080126,64.9344243 57.9360126,64.7254243 C58.0850126,64.9984243 58.3490126,65.2064243 58.7560126,65.2054243 C65.8890126,65.1924243 73.0220126,65.1814243 80.1550126,65.1684243 C80.2330126,65.1684243 80.2920126,65.1404243 80.3610126,65.1264243 C80.0950126,66.1134243 79.7650126,67.0934243 79.3430126,68.0134243 C79.4120126,68.1404243 79.4400126,68.3294243 79.3950126,68.4624243 M57.8800126,43.4194243 C59.2850126,40.9584243 60.8080126,38.4414243 62.5610126,36.1774243 C62.5600126,36.1434243 62.5650126,36.1104243 62.5640126,36.0774243 C62.8710126,36.0054243 63.1510126,35.8134243 63.2860126,35.4424243 C64.5390126,31.9744243 69.6170126,31.5714243 72.6340126,32.3824243 C76.2510126,33.3534243 78.7690126,36.0764243 79.9650126,39.5674243 C80.5420126,41.2524243 80.8890126,43.0184243 81.1360126,44.8064243 C73.3430126,46.6904243 65.2060126,46.4024243 57.5580126,44.0084243 C57.6650126,43.8114243 57.7690126,43.6134243 57.8800126,43.4194243 M83.8160126,52.5054243 C83.6420126,48.9334243 83.3420126,45.2614243 82.6210126,41.7544243 C81.9500126,38.4944243 80.6160126,35.1984243 78.0180126,32.9974243 C75.7220126,31.0534243 72.7250126,29.9734243 69.7120126,30.0174243 C66.3450126,30.0654243 62.5790126,31.5284243 61.3570126,34.9104243 C61.3250126,34.9994243 61.3300126,35.0754243 61.3210126,35.1564243 C60.5690126,36.1244243 59.8680126,37.1264243 59.2230126,38.1254243 C55.9470126,43.2024243 52.6750126,48.4704243 53.4750126,54.7684243 C53.8470126,57.7024243 54.8730126,60.4774243 55.9980126,63.1984243 C56.0000126,63.2144243 55.9940126,63.2264243 55.9970126,63.2434243 C57.3980126,71.7724243 66.4840126,77.4324243 74.7410126,74.4644243 C78.9390126,72.9544243 80.9080126,69.3224243 82.0050126,65.2194243 C82.1850126,64.5494243 82.3380126,63.8724243 82.4800126,63.1934243 C83.7580126,59.7844243 83.9920126,56.1204243 83.8160126,52.5054243" id="Fill-65" fill="#231F20"></path>
                <path d="M108.017313,68.8285243 C105.976313,66.1105243 103.882313,63.4325243 101.829313,60.7245243 C99.8433126,58.1065243 97.4443126,54.5565243 99.3123126,51.2345243 C99.8323126,50.3095243 98.4103126,49.4785243 97.8903126,50.4035243 C96.2323126,53.3515243 97.1753126,56.7315243 98.8883126,59.4225243 C100.971313,62.6945243 103.570313,65.6965243 105.923313,68.7775243 C107.267313,70.5365243 111.933313,76.7755243 107.338313,77.5395243 C105.392313,77.8635243 103.363313,77.0435243 101.580313,76.3625243 C99.7223126,75.6535243 97.9223126,74.8095243 96.1713126,73.8665243 C95.2383126,73.3635243 94.4053126,74.7845243 95.3403126,75.2885243 C98.1183126,76.7845243 101.144313,78.2365243 104.233313,78.9555243 C106.651313,79.5185243 110.132313,79.3845243 110.788313,76.3965243 C111.396313,73.6355243 109.589313,70.9205243 108.017313,68.8285243" id="Fill-67" fill="#231F20"></path>
                <path d="M128.749913,56.7142243 C128.329913,59.3802243 127.388913,62.4482243 125.425913,64.4072243 C124.265913,65.5662243 122.337913,65.2182243 120.850913,64.9942243 C119.306913,64.7622243 117.792913,64.2932243 116.507913,63.3862243 C115.230913,62.4842243 114.283913,61.2672243 113.544913,59.8902243 C118.804913,59.8782243 123.976913,58.7312243 128.764913,56.5712243 C128.757913,56.6182243 128.756913,56.6672243 128.749913,56.7142243 M112.078913,56.2692243 C111.737913,55.4462243 111.539913,54.5812243 111.517913,53.6912243 C111.516913,53.6512243 111.529913,53.6212243 111.534913,53.5852243 C111.202913,51.7382243 110.997913,49.9012243 110.807913,48.2702243 C110.631913,46.7652243 110.520913,45.2252243 110.499913,43.6792243 C110.677913,43.7292243 110.868913,43.7522243 111.062913,43.7262243 C116.526913,42.9852243 121.833913,41.4972243 126.905913,39.3562243 C126.966913,39.4102243 127.033913,39.4582243 127.104913,39.4972243 C127.300913,40.1102243 127.451913,40.7372243 127.527913,41.3702243 C127.608913,41.2882243 127.692913,41.2102243 127.768913,41.1212243 C127.933913,41.8612243 128.068913,42.6102243 128.192913,43.3592243 C128.179913,43.3532243 128.167913,43.3472243 128.156913,43.3392243 C128.389913,44.0222243 128.566913,44.8002243 128.500913,45.5192243 C128.603913,46.3142243 128.700913,47.1102243 128.780913,47.9032243 C128.892913,49.0152243 128.962913,50.1362243 129.001913,51.2592243 C127.675913,48.8172243 124.861913,47.2372243 121.954913,47.5232243 C118.578913,47.8552243 116.038913,50.1342243 114.875913,53.0932243 C114.671913,53.5872243 114.516913,54.1032243 114.411913,54.6282243 C114.304913,55.1202243 114.229913,55.6222243 114.196913,56.1322243 C114.185913,56.2982243 114.211913,56.4422243 114.262913,56.5662243 C114.275913,56.8352243 114.298913,57.1052243 114.340913,57.3732243 C114.371913,57.5722243 114.498913,57.7242243 114.652913,57.8482243 C114.242913,57.8632243 113.832913,57.8942243 113.422913,57.8932479 C113.419913,57.8182243 113.432913,57.7472243 113.431913,57.6742243 C112.611913,57.6442243 112.375913,56.9852243 112.078913,56.2692243 M110.712913,39.2392243 C110.822913,39.0912243 110.905913,38.9162243 110.911913,38.6842243 C110.917913,38.3602243 110.927913,38.0312243 110.939913,37.7022243 C110.978913,37.4852243 111.010913,37.2652243 111.054913,37.0492243 C111.026913,37.0422243 111.002913,37.0302243 110.974913,37.0242243 C111.091913,35.0482243 111.416913,33.0592243 112.511913,31.3842243 C113.746913,29.4952243 115.798913,28.4392243 118.036913,29.0592243 C120.221913,29.6632243 122.254913,31.2142243 123.782913,32.8532243 C124.931913,34.0832243 125.848913,35.5502243 126.300913,37.1652243 C126.266913,37.2322243 126.237913,37.3022243 126.201913,37.3662243 C126.220913,37.4022243 126.235913,37.4402243 126.253913,37.4752243 C121.236913,39.6192243 115.938913,41.0652243 110.531913,41.7972243 C110.529913,41.7972243 110.527913,41.7982243 110.525913,41.7992243 C110.557913,40.9432243 110.612913,40.0872243 110.712913,39.2392243 M130.613913,50.2162243 C130.416913,46.8082243 129.991913,43.3292243 129.196913,40.0072243 C129.103913,39.6202243 128.998913,39.2352243 128.889913,38.8502243 C128.885913,38.7042243 128.852913,38.5732243 128.778913,38.4662243 C128.737913,38.3312243 128.684913,38.2002243 128.638913,38.0682243 C128.633913,37.8642243 128.563913,37.6652243 128.436913,37.4882243 C128.406913,37.4072243 128.380913,37.3252243 128.351913,37.2442243 C127.868913,35.0602243 126.745913,33.0982243 125.196913,31.4382243 C123.337913,29.4452243 120.712913,27.5022243 117.989913,26.9952243 C115.219913,26.4802243 112.711913,27.7352243 111.077913,29.9552243 C109.236913,32.4582243 108.975913,35.6802243 108.911913,38.6842243 C108.906913,38.8882243 108.965913,39.0482243 109.046913,39.1882243 C108.758913,41.6772243 108.772913,44.2192243 108.996913,46.6942243 C109.305913,50.1052243 109.753913,53.6072243 110.690913,56.9082243 C111.465913,59.6392243 112.717913,62.3992243 114.944913,64.2502243 C117.364913,66.2612243 121.079913,67.1622243 124.191913,66.7962243 C127.219913,66.4412243 128.893913,62.4912243 129.688913,59.9542243 C130.669913,56.8252243 130.802913,53.4682243 130.613913,50.2162243" id="Fill-69" fill="#231F20"></path>
            </g>
            <g id="outline" transform="translate(0.000000, 0.916000)">
                <mask id="mask-2" fill="white">
                    <use xlink:href="#path-1"></use>
                </mask>
                <g id="Clip-53"></g>
                <path d="M171.0484,137.3863 C170.9044,137.5153 170.7924,137.6883 170.7624,137.9193 C169.5324,147.5453 162.4284,154.9563 155.6844,161.4393 C155.3624,161.3513 154.9874,161.4193 154.7384,161.7523 C150.6484,167.2123 148.0464,174.3573 142.1724,178.2573 C135.6434,182.5913 127.3674,181.2153 120.2964,179.1603 C116.3594,178.0163 112.5024,176.5923 108.6294,175.2513 C104.2844,173.7473 99.9384,172.2433 95.5934,170.7403 C87.9334,168.0883 80.0714,165.5153 73.3784,160.8083 C67.2364,156.4893 62.1394,149.8733 61.3944,142.2623 C61.3824,142.1733 61.3774,142.0843 61.3624,141.9953 C61.3174,141.4613 61.2914,140.9233 61.2914,140.3803 C61.2904,139.5663 60.3224,139.3823 59.8724,139.8213 C59.3964,139.9433 58.9964,140.4613 59.3064,141.0243 C59.5354,141.4393 59.6714,141.8783 59.7484,142.3233 C59.7654,142.5043 59.7824,142.6843 59.8034,142.8643 C59.8694,144.2723 59.2894,145.7083 58.2984,146.7443 C57.4504,147.6323 56.3584,148.1423 55.1934,148.3693 C54.8834,148.1623 54.5214,148.0423 54.1364,148.0703 C50.5764,148.3213 47.9104,145.0953 45.7254,142.7273 C42.8614,139.6223 40.1364,136.3873 37.5834,133.0213 C37.3714,132.7413 37.1114,132.5123 36.8274,132.3413 C36.7144,132.1493 36.5934,131.9603 36.4834,131.7663 C36.4774,131.7543 36.4714,131.7413 36.4654,131.7293 C36.4574,131.7143 36.4454,131.7023 36.4384,131.6883 C35.0864,129.2893 33.9884,126.7683 33.5094,124.0383 C33.2804,122.7343 33.2604,121.3623 33.5144,120.0483 C33.6394,119.9313 33.7594,119.8003 33.8644,119.6373 C34.9284,117.9943 36.6934,116.9083 38.5944,116.5363 C39.3824,116.6853 40.1804,116.6433 40.9344,116.4473 C41.3294,116.4943 41.7204,116.5743 42.1024,116.6903 C43.9484,117.2483 45.7144,118.6343 47.1934,119.8443 C48.7974,121.1553 50.1474,122.6163 51.0014,124.5213 C51.3434,125.2833 52.2754,125.5903 53.0794,125.4603 C53.3594,125.5243 53.6354,125.5313 53.8974,125.4903 C54.0604,125.4893 54.2134,125.4483 54.3444,125.3653 C54.8954,125.1453 55.3394,124.6933 55.5374,124.0633 C55.8914,122.9393 56.0094,121.8263 55.9544,120.7333 C56.0114,120.5413 56.0694,120.3493 56.1274,120.1573 C56.2284,119.8243 56.0614,119.4423 55.7714,119.2523 C55.5664,118.1713 55.2134,117.1133 54.7684,116.0823 C53.4954,109.0593 50.8124,102.3303 46.8584,96.3713 L48.4814,96.9903 C49.7574,97.4763 51.0674,98.1203 52.4234,98.3403 C53.5474,98.5223 54.5974,98.2623 55.4134,97.6383 C56.1264,97.9643 56.9754,97.9953 57.6544,97.5313 C59.3024,96.4043 60.7294,95.0753 61.9414,93.5313 C62.3574,93.0803 62.7224,92.5843 63.0084,92.0323 C63.1164,91.8233 63.1874,91.6193 63.2394,91.4173 C64.3074,89.7133 65.1604,87.8723 65.7714,85.9543 C68.4624,83.5633 69.2844,79.6613 69.2134,76.0003 C71.9844,79.3203 76.0604,81.4743 80.3874,81.9493 C85.9864,82.5663 91.3794,79.9253 94.7524,75.4973 C95.7054,74.2463 96.4524,72.8713 97.0064,71.4233 C97.2964,70.9073 97.5744,70.3843 97.8364,69.8563 C100.0564,73.5323 103.5774,76.4923 107.8264,77.3913 C112.8884,78.4613 118.0034,76.0773 120.5134,71.5443 C121.0574,70.5613 121.4304,69.5033 121.6354,68.4203 C121.9754,70.3093 122.5734,71.9483 124.0664,73.4413 C124.7104,74.0843 125.5284,74.6563 126.4204,75.1063 C127.9134,76.4763 129.7774,77.3783 132.1524,77.4503 C135.0274,77.5373 137.4764,75.7823 138.8614,73.3483 C139.9164,71.4943 140.3034,69.4363 140.4234,67.3433 C142.5004,70.4143 146.1234,72.4683 149.8864,72.2173 C153.7974,71.9563 157.1804,69.4303 158.8384,66.0093 C159.6524,66.4513 160.5354,66.7563 161.4604,66.9013 C161.5424,66.9403 161.6204,66.9873 161.7034,67.0233 C157.4144,72.4073 157.7184,80.3683 159.0824,86.7713 C160.6854,94.2953 164.1274,101.2533 166.9404,108.3663 C168.5624,112.4673 169.9914,116.6513 170.7914,120.9963 C170.8084,121.0863 170.8474,121.1513 170.8824,121.2193 C171.4694,126.5883 171.5234,132.0053 171.0484,137.3863 M117.8824,188.8353 C117.1194,189.6023 115.9014,189.9823 114.8754,190.2393 C113.7794,190.5123 112.5174,190.6413 111.4574,190.1573 C110.3374,189.6433 109.8644,188.4453 109.1054,187.5543 C108.7644,187.1543 108.3694,186.8633 107.9384,186.5713 C107.2834,186.1283 107.3514,185.6853 107.3304,184.9363 C107.2494,182.1363 107.1684,179.3353 107.0874,176.5353 C110.5704,177.7423 114.0594,178.9283 117.5674,180.0453 C117.5604,180.1423 117.5654,180.2443 117.6024,180.3583 C118.0754,181.8173 118.4024,183.3173 118.5214,184.8483 C118.6194,186.1053 118.8594,187.8543 117.8824,188.8353 M106.4554,3.6923 C105.7524,4.2213 104.9314,4.6623 104.0514,4.9883 C104.8064,4.4843 105.6134,4.0483 106.4554,3.6923 M136.7944,73.4413 C136.8194,73.4133 136.8434,73.3813 136.8694,73.3533 C135.8124,74.7403 134.3264,75.6983 132.5434,75.7823 C134.1464,75.4083 135.6634,74.6723 136.7944,73.4413 M143.5784,68.4163 C142.5944,67.5843 141.7734,66.5583 141.1924,65.4053 C141.9154,66.4673 142.7144,67.4763 143.5784,68.4163 M171.5004,116.7343 C167.9884,103.8103 159.5944,92.0193 159.8554,78.3013 C159.9284,74.4413 160.8554,70.4303 163.4784,67.5043 C163.9134,67.5583 164.3514,67.5723 164.7854,67.5313 C168.1554,67.2113 170.7354,64.4903 171.9514,61.4923 C173.4154,57.8863 173.4804,53.5773 173.3074,49.7403 C173.1834,46.9783 172.7314,44.1553 171.6814,41.5803 C171.2984,40.2193 170.5814,39.0023 169.6524,37.9803 C168.0094,35.8023 165.7904,34.0493 163.2034,33.2113 C163.1914,33.1783 163.1754,33.1473 163.1634,33.1143 C163.6024,30.9633 163.8994,28.6323 162.8144,26.6343 C162.4214,25.9103 161.8804,25.3113 161.2424,24.8703 C160.7514,22.8713 159.9424,21.0883 158.5404,19.6223 C158.1394,18.7563 157.5724,17.9693 156.8194,17.3263 C155.5444,16.2403 153.8754,15.7083 152.2414,15.7993 C151.7434,14.6943 151.0354,13.6473 150.0824,12.6943 C146.8414,9.4533 140.6904,8.1843 136.7524,10.9743 C136.4594,11.1813 136.1644,11.3963 135.8684,11.6103 C135.1264,8.8613 133.1874,6.5943 130.7034,5.1853 C130.5084,5.0313 130.3214,4.8683 130.1144,4.7283 C128.0404,3.3173 125.3354,2.7483 122.9084,3.3423 C122.3384,2.7843 121.7074,2.2923 121.0294,1.8703 C120.5284,1.2763 119.8554,0.8023 119.0984,0.5493 C118.2874,0.2773 117.4344,0.2123 116.5794,0.2263 C114.6384,-0.0757 112.6154,0.0953 110.7384,0.8183 C110.5514,0.8483 110.3624,0.8673 110.1754,0.9033 C106.6944,1.5443 103.1614,3.0473 100.7704,5.6173 C99.3164,5.6353 97.9234,5.2843 96.8584,4.4503 C93.6814,1.9633 90.3704,0.9643 87.0854,1.5913 C83.6394,1.9063 81.1684,4.2483 78.7224,6.5533 C77.8334,7.2783 76.9444,8.0023 76.0554,8.7273 C73.5074,7.2973 70.9734,5.8093 68.3444,4.5483 C65.8214,3.3383 62.9884,2.4963 60.2254,3.3963 C54.9224,5.1233 52.9684,10.6543 51.7074,15.5963 C47.7114,13.1983 42.7214,12.5513 38.2424,13.8833 C36.7454,14.3283 35.3524,15.0183 34.0694,15.8693 C31.8054,16.8923 29.7674,18.4473 28.1484,20.6253 C25.7324,23.8793 24.7344,27.7933 25.1944,31.5393 C24.4954,31.8203 23.6744,31.9743 23.1374,32.1843 C22.0384,32.6153 20.9804,33.1423 19.9864,33.7823 C17.4974,35.3833 15.3884,37.6023 13.9204,40.1783 C12.6104,41.7553 11.5774,43.5883 10.9544,45.7563 C9.4904,50.8553 10.7254,55.7423 13.5084,59.8043 C10.0704,60.6653 6.8514,62.3933 4.4484,65.0263 C2.6184,67.0323 1.4084,69.4803 0.9064,72.0733 C-0.5766,76.0223 -0.0616,80.6743 3.2624,83.7263 C3.4384,83.8873 3.6224,84.0323 3.8054,84.1813 C0.4354,86.0263 -0.4946,90.9603 0.2304,94.5033 C0.9474,98.0083 3.1174,101.1133 6.0924,103.0263 C5.6354,103.5473 5.2254,104.1263 4.8674,104.7663 C4.8514,104.7893 4.8324,104.8093 4.8174,104.8313 C4.4974,105.3063 4.2814,105.8213 4.1364,106.3553 C2.4124,111.0703 3.8604,117.3853 8.7494,119.7733 C9.8904,120.3303 10.0044,120.1523 10.4614,120.8643 C11.5084,122.4953 12.7794,123.6693 14.1594,124.4933 C13.1804,125.6223 12.6874,127.2033 13.0824,128.9823 C13.0934,129.0303 13.1064,129.0773 13.1174,129.1263 C13.0824,129.4283 13.0454,129.7303 13.0314,130.0323 C12.8644,133.8673 14.5124,137.4443 16.4184,140.6713 C18.4944,144.1893 20.5874,147.8243 23.0114,151.1143 C25.1954,154.0783 28.1284,156.7403 31.9204,157.2333 C34.9434,157.6263 38.1974,156.1823 39.5584,153.4703 C40.2094,154.0283 40.9264,154.5113 41.6874,154.9093 C42.6954,156.3303 44.2094,157.5353 45.4234,158.4803 C47.6724,160.2273 50.2614,161.6013 53.0584,162.2103 C58.1564,163.3213 63.8294,161.6733 66.8694,157.2853 C67.6614,158.1463 68.4904,158.9723 69.3644,159.7393 C75.6904,165.2923 83.7274,168.3433 91.5654,171.0823 C96.1834,172.6973 100.7984,174.3473 105.4244,175.9613 C105.5034,178.7093 105.5824,181.4573 105.6624,184.2043 C105.6954,185.3653 105.5324,186.7183 106.4984,187.5573 C106.8854,187.8933 107.3584,188.1033 107.7174,188.4713 C108.1154,188.8783 108.3994,189.3743 108.7294,189.8353 C110.1134,191.7653 112.1294,192.3603 114.4294,192.0043 C116.4154,191.6983 118.9964,190.8193 119.8474,188.8213 C120.4004,187.5233 120.2704,185.9363 120.1444,184.5663 C120.0204,183.2233 119.7644,181.9033 119.3924,180.6103 C126.1774,182.6393 133.7524,184.0213 140.4234,181.0853 C147.7284,177.8693 150.8514,170.2843 155.1194,164.0473 C155.2694,164.0253 155.4204,163.9713 155.5584,163.8393 C162.2944,157.4083 169.4274,150.2613 171.7904,141.0533 C172.0844,140.9503 172.3384,140.7103 172.3854,140.3283 C173.3344,132.6653 173.1944,124.9333 172.0224,117.3023 C171.9684,116.9543 171.7534,116.7843 171.5004,116.7343" id="Fill-52" fill="#231F20" mask="url(#mask-2)"></path>
            </g>
        </g>
    </g>
</svg>