<?xml version="1.0" encoding="UTF-8"?>
<svg width="500px" height="600px" viewBox="0 0 500 600" version="1.1" xmlns="http://www.w3.org/2000/svg" xmlns:xlink="http://www.w3.org/1999/xlink">
    <title>winklookingstraight</title>
    <defs>
        <polygon id="path-1" points="0 0.0840269245 173.37498 0.0840269245 173.37498 192.101515 0 192.101515"></polygon>
    </defs>
    <g id="winklookingstraight" stroke="none" stroke-width="1" fill="none" fill-rule="evenodd">
        <g id="face" transform="translate(153.000000, 63.000000)">
            <g id="fill" transform="translate(32.415987, 61.628844)">
                <path d="M127.301713,39.9938564 C127.762713,34.8038564 124.884713,31.3438564 120.084713,28.9308564 C115.692713,26.7228564 110.689713,29.1658564 109.777713,34.2138564 C109.550713,35.4698564 109.909713,36.9718564 111.155713,37.6018564 C111.781713,37.9188564 112.470713,38.0278564 113.168713,38.0628564 C113.160713,38.2258564 113.156713,38.3908564 113.176713,38.5708564 C113.205713,38.8348564 113.244713,39.0998564 113.290713,39.3668564 L113.283713,39.3678564 C113.287713,39.3798564 113.292713,39.3908564 113.296713,39.4028564 C113.514713,40.6728564 113.928713,41.9348564 114.634713,42.9288564 C114.498713,43.2538564 114.404713,43.6138564 114.388713,44.0258564 C114.256713,47.4578564 113.116713,53.4098564 115.979713,56.0198564 C116.246713,56.2648564 116.567713,56.4778564 116.914713,56.6378564 C117.238713,57.8848564 118.178713,58.9248564 119.677713,58.7318564 C121.864713,58.4538564 123.506713,57.1648564 124.728713,55.4228564 C125.690713,55.2328564 126.600713,54.6038564 127.083713,53.4368564 C128.904713,49.0458564 128.881713,44.2508564 127.301713,39.9938564" id="Fill-1" fill="#FEFEFE"></path>
                <path d="M86.7541126,122.407956 C86.5671126,121.729956 86.2361126,121.127956 85.8171126,120.590956 C85.7651126,120.443956 85.7131126,120.297956 85.6491126,120.150956 C85.4631126,119.726956 85.0931126,119.507956 84.6841126,119.444956 C84.3881126,119.206956 84.0751126,118.986956 83.7521126,118.788956 C82.2731126,117.880956 80.5901126,117.253956 78.9881126,116.602956 C78.3731126,116.353956 77.7051126,116.013956 77.0271126,115.918956 C76.6221126,115.463956 75.8621126,115.337956 75.3331126,115.570956 C74.6551126,115.868956 74.2641126,116.602956 74.4641126,117.340956 C74.5201126,117.544956 74.5561126,117.749956 74.6011126,117.954956 C74.5831126,118.056956 74.5661126,118.160956 74.5551126,118.264956 C74.3171126,120.362956 74.4571126,122.484956 74.8091126,124.560956 C74.8691126,124.917956 75.1031126,125.198956 75.4031126,125.388956 C75.4061126,125.401956 75.4071126,125.415956 75.4101126,125.428956 C75.4051126,125.428956 75.4001126,125.428956 75.3951126,125.429956 C75.7951126,127.146956 77.1441126,128.572956 78.8351126,129.070956 C79.7201126,129.332956 80.6631126,129.309956 81.5401126,129.055956 C82.1111126,129.574956 83.1141126,129.676956 83.6771126,129.075956 C84.2161126,128.500956 84.6391126,127.837956 84.9611126,127.132956 C85.2221126,127.081956 85.4781126,126.977956 85.6951126,126.772956 C86.8731126,125.660956 87.1741126,123.932956 86.7541126,122.407956" id="Fill-3" fill="#E4C3A2"></path>
                <path d="M78.0342126,126.404956 C78.4442126,126.135956 78.7452126,125.703956 78.6842126,125.194956 C78.4732126,123.444956 78.2612126,121.695956 78.0502126,119.945956 C78.0092126,119.607956 77.9702126,119.272956 77.9182126,118.941956 C78.0032126,118.851956 78.0832126,118.752956 78.1532126,118.634956 C78.5182126,118.018956 78.4032126,117.208956 77.9922126,116.653956 C77.4972126,115.985956 76.5752126,115.771956 75.8382126,116.181956 C75.8282126,116.187956 75.8222126,116.195956 75.8132126,116.201956 C75.6712126,116.165956 75.5322126,116.124956 75.3792126,116.105956 C74.7942126,116.033956 74.0242126,116.618956 73.9332126,117.206956 C73.3512126,120.935956 73.8752126,124.650956 75.5042126,128.059956 C75.8532126,128.790956 76.8992126,128.982956 77.5562126,128.597956 C78.3042126,128.160956 78.4452126,127.279956 78.0942126,126.545956 C78.0732126,126.500956 78.0552126,126.450956 78.0342126,126.404956" id="Fill-5" fill="#C3996B"></path>
                <path d="M126.641713,42.6979564 C126.262713,42.8209564 125.792713,42.7789564 125.398713,42.6359564 C126.080713,44.7539564 126.712713,46.8899564 127.336713,49.0269564 C125.929713,49.7889564 124.890713,51.2099564 124.886713,53.2339564 C124.884713,54.0759564 124.893713,54.9219564 124.901713,55.7669564 C123.940713,55.8909564 122.976713,56.3459564 122.113713,57.2719564 C121.787713,57.6229564 120.029713,60.3139564 119.407713,61.0129564 C119.407713,60.4249564 117.266713,58.4459564 117.218713,58.3869564 C116.354713,57.3499564 115.630713,56.2509564 115.005713,55.1039564 C114.004713,52.7159564 113.108713,50.2919564 112.426713,47.8029564 C112.286713,47.2929564 112.092713,46.8469564 111.862713,46.4519564 C112.050713,43.3139564 112.370713,40.1849564 112.821713,37.0739564 C112.412713,37.0029564 111.997713,36.7869564 111.722713,36.5109564 C111.388713,36.1769564 111.087713,35.5719564 111.131713,35.0849564 C111.254713,33.7269564 111.657713,32.4259564 112.398713,31.2719564 C113.120713,30.1489564 114.063713,29.1799564 115.207713,28.4839564 C115.971713,28.0179564 116.887713,28.1829564 117.526713,28.7189564 C118.299713,28.5499564 119.037713,28.1929564 119.657713,27.5879564 C119.958713,28.5819564 120.329713,29.5669564 120.755713,30.5419564 C120.773713,30.5449564 120.792713,30.5449564 120.810713,30.5479564 C123.061713,30.8969564 124.828713,32.6799564 125.969713,34.5419564 C127.016713,36.2479564 127.731713,38.2409564 128.050713,40.2169564 C128.231713,41.3369564 127.774713,42.3319564 126.641713,42.6979564 M80.2287126,46.5139564 C79.0217126,51.3539564 77.9577126,56.2289564 77.0527126,61.1459564 C76.8777126,62.0929564 76.9627126,62.9479564 77.2037126,63.7139564 C76.5787126,65.8959564 76.7997126,66.3979564 74.7697126,66.2069564 C72.2417126,65.9689564 68.5467126,62.8859564 66.2927126,61.6839564 C64.6077126,60.7849564 62.9797126,60.9189564 61.6677126,61.6239564 C60.7157126,57.4739564 60.1587126,53.2309564 59.9797126,48.9639564 C59.8897126,46.8139564 58.7037126,45.3859564 57.1787126,44.6739564 L58.2587126,41.9679564 C62.2867126,36.9499564 66.7817126,32.3499564 71.6047126,28.0999564 C71.7497126,28.4989564 71.9517126,28.9019564 72.2327126,29.3069564 C73.6947126,31.4169564 75.2697126,33.0779564 77.3597126,34.4279564 C77.6507126,34.7979564 77.9597126,35.1269564 78.2977126,35.3839564 C79.2497126,37.4379564 80.1027126,39.5259564 80.8977126,41.6359564 C80.6797126,43.2619564 80.4577126,44.8889564 80.2287126,46.5139564 M139.058713,65.6089564 C139.046713,65.1659564 138.962713,64.7539564 138.847713,64.3589564 C138.956713,62.5739564 138.906713,60.8049564 138.657713,58.9709564 C138.362713,56.7869564 138.238713,53.6479564 136.461713,52.0959564 C136.430713,52.0689564 136.396713,52.0509564 136.365713,52.0239564 C135.850713,49.8729564 135.233713,47.7489564 134.481713,45.6539564 C134.190713,44.8409564 133.699713,44.2569564 133.112713,43.8679564 C132.412713,41.5309564 131.681713,39.2049564 130.838713,36.9189564 C130.605713,36.2879564 130.245713,35.8079564 129.822713,35.4369564 C128.961713,33.1139564 128.114713,30.7769564 127.786713,28.3099564 C127.472713,25.9569564 127.096713,23.8309564 126.262713,21.5939564 C126.236713,21.5259564 126.199713,21.4719564 126.170713,21.4079564 C126.277713,19.4259564 126.420713,17.4449564 126.647713,15.4689564 C126.672713,15.2569564 126.661713,15.0499564 126.632713,14.8449564 C126.756713,14.1069564 126.635713,13.4589564 126.341713,12.9169564 C126.835713,11.8509564 127.364713,10.8019564 127.964713,9.77195643 C127.991713,9.73395643 128.021713,9.69995643 128.048713,9.66095643 C128.590713,8.86995643 129.132713,8.07895643 129.674713,7.28895643 C132.957713,2.49595643 126.263713,-2.03604357 122.255713,0.963956433 C122.089713,1.06895643 121.927713,1.18695643 121.769713,1.31695643 C119.771713,1.23695643 117.749713,2.29395643 116.951713,4.84695643 L116.656713,5.78995643 C116.415713,5.87295643 116.176713,5.98395643 115.941713,6.12595643 C114.915713,2.12895643 109.272713,-0.120043567 107.006713,4.52395643 C106.990713,4.55795643 106.975713,4.59195643 106.958713,4.62495643 C105.078713,4.38295643 103.102713,5.07295643 102.117713,6.98395643 C101.490713,8.19995643 100.900713,9.42695643 100.329713,10.6619564 C99.7377126,10.5719564 99.1267126,10.5759564 98.5237126,10.6849564 C98.9617126,8.24995643 97.8777126,6.42795643 96.2677126,5.48695643 C93.9107126,2.43195643 87.5757126,3.53995643 87.1367126,8.59595643 C87.1137126,8.86195643 87.0837126,9.12595643 87.0597126,9.39095643 C86.9707126,9.22795643 86.8857126,9.06395643 86.7797126,8.90895643 C86.7557126,8.73595643 86.7317126,8.56195643 86.7087126,8.38795643 C86.3647126,5.87495643 82.8357126,4.02695643 80.5577126,4.89595643 C79.5287126,5.28895643 78.5297126,5.71095643 77.5447126,6.14995643 C77.0207126,3.02595643 73.8637126,0.519956433 70.3167126,2.61195643 C69.4567126,3.11995643 68.6267126,3.66495643 67.7897126,4.20195643 C66.5587126,4.14495643 65.2867126,4.54295643 64.2077126,5.57395643 C61.7767126,7.89695643 59.3447126,10.2209564 56.9127126,12.5459564 C56.8707126,12.5329564 56.8287126,12.5249564 56.7867126,12.5129564 C57.2987126,7.55195643 50.3747126,5.64695643 47.4317126,9.73895643 C46.2237126,11.4189564 45.0857126,13.1319564 43.9997126,14.8719564 C43.5537126,12.1409564 40.4927126,10.8029564 37.8877126,11.2709564 C35.4607126,10.4489564 32.4767126,11.2849564 31.5217126,14.5109564 C31.0857126,15.9829564 30.6327126,17.4469564 30.1707126,18.9079564 C30.0417126,19.0789564 29.9167126,19.2579564 29.8047126,19.4549564 C28.1117126,22.4099564 26.3347126,25.3109564 24.4317126,28.1359564 C24.3237126,27.6769564 24.2197126,27.2169564 24.1107126,26.7569564 C22.7537126,21.0079564 14.6777126,22.6939564 14.2897126,28.0859564 C14.2807126,28.2089564 14.2777126,28.3319564 14.2697126,28.4549564 C13.0537126,29.2219564 12.1237126,30.5649564 11.9367126,32.5099564 C11.7117126,34.8449564 12.1187126,37.3149564 13.0657126,39.4089564 C13.7357126,42.3719564 14.6437126,45.2579564 15.7957126,48.1539564 C15.8037126,48.1919564 15.8097126,48.2299564 15.8187126,48.2679564 C15.8247126,48.2649564 15.8317126,48.2619564 15.8377126,48.2599564 C15.9977126,48.6609564 16.1527126,49.0609564 16.3227126,49.4629564 C16.9467126,50.9389564 17.9937126,51.6979564 19.1607126,51.9419564 C19.9417126,56.0019564 20.9207126,60.0249564 22.1187126,64.0089564 C21.6107126,64.1069564 21.1047126,64.2649564 20.6137126,64.5319564 C20.2617126,64.7219564 19.9077126,64.9149564 19.5467126,65.0919564 C19.6127126,65.0509564 19.5287126,65.0709564 19.3797126,65.1189564 C19.2477126,65.0099564 19.1117126,64.9079564 18.9717126,64.8109564 C17.2127126,61.7729564 14.9047126,59.0609564 12.1127126,56.8869564 C10.9327126,55.9689564 9.52571259,55.4339564 8.15271259,55.4899564 C7.80071259,55.4179564 7.42871259,55.3719564 7.02371259,55.3739564 C4.49771259,55.3839564 2.46171259,56.5669564 1.32771259,58.8399564 C0.00971258704,61.4769564 0.947712587,64.0909564 2.25871259,66.4849564 C2.58171259,70.1959564 5.30771259,73.2599564 7.59471259,76.0959564 C10.2667126,79.4129564 13.2647126,82.5429564 16.5697126,85.2359564 C19.5377126,87.6549564 23.6967126,88.6389564 26.4477126,85.2869564 C28.1517126,83.2089564 28.0007126,81.2739564 27.2577126,78.8319564 C27.2477126,78.8009564 27.2397126,78.7709564 27.2297126,78.7399564 C27.2787126,78.7409564 27.3247126,78.7469564 27.3737126,78.7469564 C27.6887126,78.7469564 27.9837126,78.7169564 28.2677126,78.6709564 C28.7277126,83.5539564 30.9357126,88.3609564 33.4537126,92.8469564 C33.9697126,93.7649564 34.6337126,94.3909564 35.3677126,94.7829564 C36.7737126,96.9929564 38.7907126,98.4429564 40.9867126,100.176956 C42.1617126,101.105956 43.3097126,102.159956 44.6227126,102.888956 C45.7367126,103.507956 47.2467126,103.688956 47.9677126,104.245956 C48.6837126,104.798956 49.5467126,105.010956 50.4257126,104.979956 C58.5387126,108.985956 67.6147126,111.487956 75.9747126,114.416956 C78.4537126,115.283956 81.4237126,116.747956 84.2097126,116.920956 C84.8147126,117.233956 85.4267126,117.525956 86.0447126,117.790956 C86.2387126,117.988956 86.4487126,118.174956 86.6877126,118.339956 C88.2067126,119.385956 89.4267126,119.735956 91.2697126,119.549956 C91.4157126,119.534956 91.5547126,119.508956 91.6947126,119.483956 C93.1097126,119.736956 94.5427126,119.866956 95.9817126,119.874956 C96.1037126,119.892956 96.2217126,119.925956 96.3457126,119.937956 C97.5007126,120.056956 98.6537126,120.050956 99.7927126,119.948956 C100.191713,120.075956 100.630713,120.150956 101.103713,120.176956 C101.235713,120.202956 101.367713,120.227956 101.499713,120.254956 C102.830713,120.518956 104.151713,120.453956 105.352713,119.750956 C105.420713,119.710956 105.486713,119.655956 105.553713,119.610956 C111.148713,117.968956 115.012713,113.081956 118.173713,108.083956 C118.535713,107.512956 118.759713,106.946956 118.874713,106.396956 C120.470713,104.537956 121.933713,102.599956 123.277713,100.592956 C124.203713,100.439956 125.135713,99.9359564 125.976713,98.9639564 C126.124713,98.7929564 126.264713,98.6169564 126.409713,98.4449564 C128.472713,97.6449564 129.474713,95.9419564 129.629713,94.1639564 C129.650713,94.1319564 129.670713,94.0989564 129.692713,94.0679564 C130.048713,93.8399564 130.401713,93.5609564 130.744713,93.2109564 L132.489713,91.4299564 C133.383713,90.5179564 133.832713,89.5279564 133.949713,88.5569564 C135.337713,86.2179564 136.445713,83.7609564 137.250713,81.1189564 C137.302713,80.9859564 137.369713,80.8659564 137.411713,80.7229564 C138.632713,76.5759564 139.318713,72.3809564 139.595713,68.0679564 C139.656713,67.1099564 139.440713,66.2959564 139.058713,65.6089564" id="Fill-7" fill="#E4C3A2"></path>
                <path d="M127.796413,47.4137564 C127.802413,47.3947564 127.813413,47.3797564 127.819413,47.3607564 C128.264413,46.0127564 128.268413,44.4467564 127.748413,43.1147564 C127.513413,42.5117564 127.176413,41.9827564 126.665413,41.5777564 C126.565413,41.0797564 126.464413,40.5817564 126.369413,40.0817564 C126.057413,38.4417564 123.893413,37.5197564 122.278413,37.9317564 C120.411413,38.4057564 119.644413,40.0747564 119.956413,41.7187564 C120.328413,43.6757564 121.194413,46.0457564 120.871413,48.0467564 C120.675413,49.2617564 121.016413,50.4857564 121.964413,51.2367564 C121.790413,52.1827564 121.564413,53.1177564 121.282413,54.0437564 C121.074413,54.7257564 120.839413,55.4007564 120.576413,56.0677564 C120.566413,56.0957564 120.553413,56.1227564 120.542413,56.1507564 C120.518413,56.1707564 120.493413,56.1827564 120.470413,56.2027564 C120.444413,56.2267564 120.235413,56.2667564 120.188413,56.2917564 C120.052413,56.2487564 119.781413,56.1607564 119.689413,56.1207564 C119.320413,55.9587564 119.082413,55.8027564 118.916413,55.6087564 C118.904413,55.1197564 118.754413,54.6027564 118.384413,54.0777564 C117.689413,53.0927564 117.413413,52.1027564 117.125413,50.9587564 C116.930413,50.1807564 116.289413,48.6937564 116.468413,47.9227564 C116.637413,47.1907564 116.544413,46.5397564 116.277413,45.9897564 C116.220413,45.5577564 116.046413,45.1247564 115.691413,44.7197564 C115.720413,44.3777564 115.751413,44.0347564 115.783413,43.6917564 C115.851413,42.9887564 115.918413,42.2827564 116.028413,41.5837564 C116.249413,40.1847564 116.577413,38.7147564 117.175413,37.4057564 C117.879413,35.8627564 117.662413,34.1247564 115.982413,33.1927564 C114.595413,32.4237564 112.131413,32.7677564 111.432413,34.2977564 C110.303413,36.7707564 109.682413,39.1927564 109.337413,41.8587564 C109.079413,43.8507564 108.516413,46.3137564 109.880413,48.0027564 C109.894413,49.3647564 110.242413,50.6807564 110.583413,52.0687564 C110.955413,53.5867564 111.389413,55.0817564 112.177413,56.4497564 C112.184413,56.4877564 112.183413,56.5247564 112.192413,56.5627564 C112.964413,59.9767564 116.428413,62.2137564 119.923413,62.3377564 C120.644413,62.6987564 121.476413,62.8347564 122.247413,62.5437564 C123.421413,62.1017564 124.600413,61.7427564 125.428413,60.8057564 C126.265413,59.8567564 126.687413,58.5157564 127.120413,57.3717564 C128.070413,54.8677564 128.566413,52.2737564 128.857413,49.6407564 C128.953413,48.7757564 128.492413,47.9797564 127.796413,47.4137564" id="Fill-9" fill="#FEFEFE"></path>
                <path d="M116.006513,113.029056 C115.945513,112.842056 115.842513,112.682056 115.696513,112.546056 C115.410513,112.284056 115.035513,112.089056 114.635513,112.107056 L114.236513,112.160056 C113.982513,112.231056 113.762513,112.360056 113.574513,112.546056 L111.899513,113.870056 C111.830513,113.894056 111.760513,113.899056 111.692513,113.932056 C110.422513,114.548056 109.153513,115.162056 107.884513,115.777056 C107.551513,115.606056 107.185513,115.508056 106.796513,115.539056 C99.7895126,116.091056 92.8295126,115.319056 86.1215126,113.219056 C85.6975126,113.088056 85.3115126,113.072056 84.9615126,113.134056 C76.2885126,109.998056 67.6895126,106.664056 59.1645126,103.146056 C58.9345126,102.487056 58.4325126,101.915056 57.5795126,101.644056 C46.7805126,98.2260564 35.2035126,91.1240564 34.0345126,78.7250564 C33.9085126,77.3810564 32.9765126,76.2250564 31.5345126,76.2250564 C31.1745126,76.2250564 30.8075126,76.3290564 30.4645126,76.4960564 C29.6235126,75.9710564 28.5135126,75.8220564 27.5925126,76.1680564 C27.2455126,76.2990564 26.9595126,76.4660564 26.6825126,76.6650564 C26.6405126,76.6620564 26.5995126,76.6530564 26.5585126,76.6540564 C26.1235126,76.6740564 25.7785126,76.8370564 25.5275126,77.0930564 C25.1875126,77.2370564 24.8645126,77.3990564 24.5745126,77.5810564 C23.9345126,77.9810564 23.3905126,78.4970564 22.9815126,79.1330564 C22.6225126,79.6900564 22.4715126,80.4850564 22.2285126,80.9470564 C22.0955126,81.2000564 22.2275126,80.9790564 22.0505126,81.1530564 C22.1385126,81.0660564 22.0425126,81.1140564 21.9905126,81.1520564 C18.9825126,80.6780564 16.5255126,78.2620564 14.4555126,76.1760564 C11.9875126,73.6900564 9.69451259,70.8980564 8.93151259,67.3970564 C8.87551259,67.1410564 8.77151259,66.9390564 8.63851259,66.7780564 C8.59351259,65.6820564 8.75151259,64.5830564 9.19151259,63.5160564 C9.69051259,62.3040564 10.6285126,61.0950564 11.9025126,60.6490564 C13.0415126,61.1940564 14.0965126,61.9280564 15.0005126,62.8500564 C15.6845126,63.5490564 16.5635126,63.3500564 17.0925126,62.8060564 C18.0145126,62.6750564 18.8865126,61.6580564 18.3335126,60.5500564 C17.2005126,58.2840564 14.6565126,57.2580564 12.2545126,57.5370564 C11.9565126,57.1010564 11.5895126,56.7460564 11.1605126,56.4670564 C10.9185126,56.0140564 10.4875126,55.6650564 9.90851259,55.6480564 C9.16051259,55.6280564 8.43451259,55.7010564 7.71751259,55.8160564 C6.72551259,55.6930564 5.71851259,55.7720564 4.71551259,56.2110564 C4.28951259,56.3970564 3.94151259,56.6410564 3.62651259,56.9100564 C3.32451259,56.7700564 2.98651259,56.7120564 2.65051259,56.7960564 C-0.748487413,57.6420564 -0.108487413,62.2440564 0.433512587,64.7680564 C0.850512587,66.7160564 1.58351259,68.5710564 2.56051259,70.2920564 C3.04251259,71.6210564 3.70851259,72.9110564 4.39451259,74.0750564 C4.65951259,74.5240564 5.13251259,74.7190564 5.61451259,74.7400564 C6.64351259,76.3040564 7.71751259,77.8390564 8.83951259,79.3390564 C9.28751259,79.9370564 10.0835126,80.3060564 10.7935126,79.9250564 C12.7225126,83.2570564 15.2305126,86.4550564 19.3055126,86.9820564 C19.5435126,87.0130564 19.7795126,87.0270564 20.0145126,87.0330564 C20.8035126,87.3640564 21.6595126,87.5330564 22.4675126,87.3930564 C22.4815126,87.4080564 22.4865126,87.4290564 22.5015126,87.4440564 C23.1195126,88.0110564 24.0075126,88.0130564 24.6235126,87.4440564 C25.6895126,86.4570564 26.3875126,85.2520564 26.8795126,83.9500564 C27.6115126,83.0100564 27.9785126,81.8500564 27.7405126,80.5940564 C27.7695126,80.4160564 27.7845126,80.2390564 27.8105126,80.0590564 C27.8275126,80.0130564 27.8405126,79.9660564 27.8585126,79.9220564 C27.9265126,79.7760564 28.0115126,79.6400564 28.0945126,79.5040564 L28.0965126,79.5040564 C28.1515126,79.4950564 28.1565126,79.4920564 28.1505126,79.4910564 C28.1645126,79.4910564 28.1795126,79.4900564 28.2265126,79.4880564 C28.3635126,79.4800564 28.4945126,79.4840564 28.6315126,79.4860564 L28.6695126,79.4860564 C28.6695126,79.4880564 28.6765126,79.4910564 28.6895126,79.4950564 C28.7775126,79.8100564 28.9775126,80.0860564 29.2415126,80.2820564 C30.2395126,86.8690564 33.5475126,92.7190564 38.6185126,97.1200564 C42.7865126,100.736056 47.6865126,103.336056 52.8305126,105.271056 C53.1555126,105.826056 53.7045126,106.260056 54.3555126,106.534056 C64.3635126,110.734056 74.4795126,114.673056 84.6945126,118.344056 C85.1025126,118.491056 85.5285126,118.478056 85.9335126,118.369056 C92.6855126,120.332056 99.7865126,121.091056 106.796513,120.539056 C107.561513,120.478056 108.260513,120.137056 108.721513,119.593056 C108.834513,119.561056 108.943513,119.518056 109.045513,119.455056 L112.044513,117.572056 C112.342513,117.385056 112.579513,117.102056 112.697513,116.769056 C112.867513,116.687056 113.036513,116.605056 113.206513,116.523056 C113.211513,116.520056 113.215513,116.515056 113.221513,116.512056 C113.443513,116.438056 113.642513,116.324056 113.810513,116.158056 L115.696513,114.668056 C115.842513,114.532056 115.945513,114.371056 116.006513,114.184056 C116.100513,114.006056 116.143513,113.813056 116.136454,113.607056 C116.143513,113.400056 116.100513,113.208056 116.006513,113.029056" id="Fill-11" fill="#C3996B"></path>
                <path d="M65.7097126,5.72037155 C64.8197126,5.71145643 64.3057126,6.41945643 64.2097126,7.22045643 C63.6777126,11.6794564 61.3557126,16.0924564 57.6767126,18.7414564 C53.8387126,21.5064564 48.8307126,22.2344564 44.4087126,20.5314564 C44.3417126,20.5044564 44.2787126,20.4934564 44.2147126,20.4774564 C43.9457126,20.2744564 43.6187126,20.1464564 43.2987126,20.1464564 C43.1567126,20.1464564 43.0267126,20.1694564 42.9027126,20.2034564 C42.9087126,20.1174564 42.9097126,20.0304564 42.9137126,19.9434564 C44.1827126,19.5354564 44.5077126,17.4334564 42.9157126,17.0854564 C42.3337126,16.9584564 41.7517126,16.8314564 41.1697126,16.7044564 C40.0877126,15.1834564 38.5927126,12.9964564 36.6717126,14.3204564 C36.2517126,14.6094564 35.9737126,15.0374564 35.7627126,15.5084564 C35.6397126,15.5794564 35.5187126,15.6634564 35.4147126,15.7864564 C34.5317126,16.8294564 34.0337126,18.1154564 34.0387126,19.4334564 C32.9627126,22.5614564 31.7737126,25.6494564 30.4587126,28.6844564 C30.3047126,29.0394564 30.2887126,29.4034564 30.3667126,29.7334564 C27.3457126,30.7404564 24.6457126,32.4394564 22.4747126,34.7624564 C22.3537126,34.6694564 22.2207126,34.5924564 22.0767126,34.5384564 C20.9957126,34.1374564 19.9397126,34.1184564 18.8177126,34.3464564 C18.7017126,34.3694564 18.5967126,34.4094564 18.4997126,34.4594564 C18.3297126,34.4654564 18.1607126,34.4814564 17.9907126,34.4984564 C17.0427126,34.0864564 15.7647126,34.6454564 15.8547126,35.7874564 C15.4247126,36.0954564 15.1937126,36.6174564 15.4587126,37.2824564 L19.7707126,48.0874564 C19.7717126,48.0894564 19.7727126,48.0904564 19.7727126,48.0924564 C19.8277126,48.3044564 19.8837126,48.5164564 19.9377126,48.7294564 C20.3607126,51.1774564 20.7847126,53.6264564 21.2077126,56.0744564 C21.3297126,56.7794564 21.9997126,57.1404564 22.6647126,57.1404564 C22.5197126,57.4174564 22.3747126,57.6944564 22.2287126,57.9694564 C21.3257126,59.6754564 23.9147126,61.1934564 24.8187126,59.4844564 C26.7077126,55.9164564 28.4337126,52.3554564 28.8787126,48.2924564 C29.2477126,44.9284564 28.7997126,41.5404564 28.2207126,38.2104564 C29.6667126,38.2584564 31.1177126,38.0614564 32.4937126,37.5904564 C34.8587126,36.7814564 36.7237126,35.2674564 38.4477126,33.4984564 C41.1677126,30.7104564 43.5257126,27.4864564 44.4407126,23.7104564 C49.4687126,25.3174564 55.2307126,24.2694564 59.4637126,21.1334564 C63.9437126,17.8144564 66.5557126,12.6984564 67.2097126,7.22045643 C67.3067126,6.40945643 66.4507126,5.72845643 65.7097126,5.72037155" id="Fill-13" fill="#C3996B"></path>
                <path d="M56.9627126,105.546556 C56.7387126,105.198556 56.4487126,105.009556 56.0667126,104.857556 C54.7267126,104.325556 53.3867126,103.793556 52.0477126,103.261556 C51.8037126,103.164556 51.4687126,103.196556 51.1867126,103.287556 C51.1657126,103.258556 51.1487126,103.227556 51.1257126,103.198556 C49.7847126,101.501556 47.7937126,100.661556 45.9127126,99.7175564 C44.0207126,98.7675564 42.2157126,97.6215564 40.5867126,96.2665564 C39.7017126,95.5295564 38.8697126,94.7405564 38.0847126,93.9125564 C38.2207126,93.4105564 38.0667126,92.8645564 37.7137126,92.4315564 C34.6787126,88.7025564 31.5467126,84.7565564 30.7087126,79.8915564 C30.5707126,79.0925564 29.5887126,78.6445564 28.8627126,78.8435564 C28.0187126,79.0755564 27.6777126,79.8875564 27.8157126,80.6885564 C28.2057126,82.9545564 29.0587126,85.0435564 30.1617126,87.0115564 C30.1357126,87.2725564 30.1717126,87.5495564 30.3067126,87.8355564 C32.1747126,91.7945564 34.9057126,95.3685564 38.2457126,98.2025564 C39.9107126,99.6155564 41.7107126,100.875556 43.6347126,101.911556 C45.5027126,102.917556 47.6467126,103.602556 49.0047126,105.319556 C49.3537126,105.760556 49.9827126,105.836556 50.5127126,105.670556 C50.7117126,105.892556 50.9517126,106.035556 51.2497126,106.154556 C52.5897126,106.686556 53.9287126,107.218556 55.2687126,107.749556 C55.6077126,107.884556 56.1237126,107.775556 56.4247126,107.599556 C56.7357126,107.416556 57.0327126,107.060556 57.1137126,106.702556 C57.2017126,106.317556 57.1827126,105.887556 56.9627126,105.546556" id="Fill-15" fill="#C3996B"></path>
                <path d="M18.5290126,62.8620564 C17.0640126,60.8890564 14.8280126,59.0930564 12.2150126,59.2880564 C9.72401259,59.4730564 7.39801259,61.4050564 7.39301259,64.0230564 C7.39301259,64.1290564 7.40601259,64.2320564 7.42801259,64.3330564 C5.91101259,66.6280564 5.73501259,69.7160564 6.98701259,72.1830564 C7.35301259,72.9060564 8.37001259,73.1130564 9.03901259,72.7210564 C9.77401259,72.2930564 9.94501259,71.3940564 9.57701259,70.6700564 C9.56401259,70.6440564 9.47801259,70.4560564 9.45901259,70.4230564 C9.41401259,70.3070564 9.37201259,70.1900564 9.33601259,70.0720564 C9.29301259,69.9310564 9.25501259,69.7890564 9.22201259,69.6450564 C9.20101259,69.5490564 9.18101259,69.4530564 9.16401259,69.3560564 C9.15601259,69.3060564 9.15401259,69.2930564 9.15001259,69.2670564 C9.16001259,69.3380564 9.13301259,68.9990564 9.13101259,68.9480564 C9.12501259,68.8000564 9.12301259,68.6530564 9.12701259,68.5050564 C9.13101259,68.3560564 9.14101259,68.2100564 9.15401259,68.0610564 C9.15701259,68.0340564 9.15701259,68.0360564 9.15801259,68.0230564 C9.16601259,67.9730564 9.17401259,67.9240564 9.18301259,67.8740564 C9.24301259,67.5580564 9.32401259,67.2480564 9.42901259,66.9440564 C9.44101259,66.9100564 9.51801259,66.7220564 9.53101259,66.6840564 C9.58201259,66.5740564 9.63501259,66.4640564 9.69301259,66.3560564 C9.82501259,66.1140564 9.97401259,65.8740564 10.1430126,65.6540564 C10.1820126,65.6130564 10.2980126,65.4780564 10.3130126,65.4630564 C10.4130126,65.3540564 10.5180126,65.2490564 10.6260126,65.1490564 C10.6270126,65.1480564 10.8200126,64.9880564 10.8420126,64.9640564 C10.9500126,64.8850564 11.0610126,64.8090564 11.1740126,64.7400564 C11.3040126,64.6600564 11.4380126,64.5850564 11.5740126,64.5150564 C11.5750126,64.5140564 11.7760126,64.4250564 11.8250126,64.4000564 C12.0950126,64.2970564 12.3710126,64.2110564 12.6520126,64.1450564 C12.7770126,64.1170564 12.9030126,64.0930564 13.0300126,64.0730564 C13.0770126,64.0700564 13.2800126,64.0490564 13.3160126,64.0460564 C13.6250126,64.0270564 13.9290126,64.0420564 14.2380126,64.0550564 C14.3000126,64.0570564 14.3310126,64.0570564 14.3500126,64.0570564 C14.3650126,64.0620564 14.3910126,64.0680564 14.4480126,64.0800564 C14.5980126,64.1100564 14.7480126,64.1380564 14.8970126,64.1760564 C15.5680126,64.3470564 15.8440126,64.4770564 16.4770126,64.9150564 C17.0180126,65.2890564 17.8500126,65.1250564 18.2940126,64.6800564 C18.7290126,64.2460564 18.9200126,63.3890564 18.5290126,62.8620564" id="Fill-17" fill="#C3996B"></path>
                <path d="M85.3780126,39.7165564 C84.7290126,39.1905564 84.0740126,38.6825564 83.4130126,38.1925564 C85.7410126,35.5855564 86.0450126,31.2915564 82.1060126,29.2365564 C74.4930126,25.2635564 64.4790126,24.6035564 60.9100126,33.7575564 C60.6700126,33.9985564 60.4300126,34.2355564 60.1910126,34.4935564 C55.0710126,40.0485564 53.3490126,46.6465564 57.6910126,52.8945564 C57.6900126,53.0375564 57.6870126,53.1815564 57.6880126,53.3245564 C53.8860126,56.5915564 51.2320126,60.9385564 51.1140126,65.7925564 C51.0410126,68.7875564 53.9330126,72.1285564 57.1140126,71.7925564 C61.3800126,71.3405564 64.8120126,70.0095564 68.2430126,67.5715564 C70.4550126,69.9015564 74.5650126,70.6385564 77.0650126,67.9755564 C79.1890126,65.7145564 80.8760126,62.3885564 81.6020126,59.0585564 C85.6350126,57.1585564 86.4100126,51.4685564 83.8450126,48.8795564 C87.2260126,47.1305564 89.1030126,42.7375564 85.3780126,39.7165564" id="Fill-19" fill="#E4C3A2"></path>
                <path d="M112.471313,91.1315564 C112.002313,90.6615564 111.165313,90.5495564 110.600313,90.9185564 C107.490313,90.8725564 104.498313,91.8575564 101.403313,91.9735564 C98.1893126,92.0945564 95.0513126,91.3425564 91.9473126,90.6045564 C91.3553126,90.4635564 90.8703126,90.6555564 90.5433126,90.9985564 C89.7623126,90.3655564 89.0153126,89.6895564 88.3203126,88.9455564 C86.9983126,87.5335564 84.8803126,89.6575564 86.1993126,91.0675564 C88.7893126,93.8335564 92.0023126,95.8455564 95.3663126,97.5335564 C95.5333126,97.9645564 95.9043126,98.3085564 96.3723126,98.4765564 C96.7453126,98.6105564 97.1183126,98.7445564 97.4923126,98.8785564 C98.3443126,99.5935564 99.4023126,100.032556 100.551313,100.131556 C100.668313,100.141556 100.783313,100.128556 100.895313,100.101556 C100.988313,100.135556 101.080313,100.168556 101.173313,100.201556 C101.945313,100.479556 102.729313,100.812556 103.566313,100.800556 C104.414313,100.787556 105.199313,100.439556 105.917313,100.014556 C107.113313,99.3085564 108.172313,98.3755564 109.028313,97.2845564 C109.458313,96.7375564 109.825313,96.1625564 110.178313,95.5655564 C110.320313,95.3245564 110.459313,95.0845564 110.620313,94.8655564 C111.295313,94.4125564 111.917313,93.8845564 112.471313,93.2525564 C113.005313,92.6435564 113.071313,91.7305564 112.471313,91.1315564" id="Fill-21" fill="#FEFEFE"></path>
                <path d="M108.017213,68.8278564 C105.976213,66.1098564 103.883213,63.4318564 101.828213,60.7238564 C99.8432126,58.1058564 97.4442126,54.5558564 99.3122126,51.2338564 C99.8322126,50.3088564 98.4102126,49.4778564 97.8902126,50.4028564 C96.2322126,53.3498564 97.1752126,56.7298564 98.8872126,59.4208564 C100.971213,62.6928564 103.570213,65.6958564 105.923213,68.7768564 C107.267213,70.5358564 111.933213,76.7748564 107.338213,77.5388564 C105.392213,77.8618564 103.363213,77.0428564 101.580213,76.3618564 C99.7222126,75.6528564 97.9222126,74.8078564 96.1712126,73.8658564 C95.2382126,73.3628564 94.4052126,74.7838564 95.3402126,75.2878564 C98.1182126,76.7838564 101.144213,78.2358564 104.232213,78.9548564 C106.651213,79.5178564 110.132213,79.3828564 110.788213,76.3958564 C111.396213,73.6348564 109.589213,70.9198564 108.017213,68.8278564" id="Fill-29" fill="#231F20"></path>
                <path d="M128.467513,50.4313564 C128.142513,49.9853564 127.469513,49.7393564 126.921513,50.2023564 C124.547513,52.2163564 120.817513,50.5403564 119.735513,47.9453564 C118.486513,44.9493564 119.644513,40.9743564 122.493513,39.3483564 C123.735513,38.6393564 125.347513,38.3323564 126.417513,39.4823564 C126.699513,39.7853564 127.033513,39.8283564 127.331513,39.7393564 C128.586513,43.0293564 129.029513,46.8393564 128.467513,50.4313564 M124.437513,58.9903564 C122.066513,61.4523564 118.140513,63.0993564 115.590513,59.9283564 C114.336513,58.3693564 113.605513,56.3143564 112.886513,54.4773564 C112.091513,52.4473564 111.406513,50.3783564 110.808513,48.2823564 C110.808513,48.2783564 110.807513,48.2733564 110.807513,48.2693564 C110.463513,45.3223564 110.358513,42.2353564 110.712513,39.2393564 C110.822513,39.0903564 110.906513,38.9153564 110.911513,38.6833564 C110.918513,38.3593564 110.927513,38.0313564 110.939513,37.7023564 C110.978513,37.4843564 111.010513,37.2643564 111.054513,37.0483564 C111.026513,37.0413564 111.002513,37.0303564 110.974513,37.0233564 C111.091513,35.0473564 111.416513,33.0583564 112.511513,31.3833564 C113.746513,29.4943564 115.799513,28.4383564 118.036513,29.0583564 C120.221513,29.6623564 122.254513,31.2133564 123.782513,32.8513564 C124.885513,34.0333564 125.763513,35.4363564 126.233513,36.9743564 C123.213513,35.7853564 119.400513,38.4933564 118.162513,41.2953564 C116.340513,45.4233564 117.342513,50.8033564 121.882513,52.5783564 C124.011513,53.4113564 126.441513,53.1413564 128.225513,51.6983564 C127.603513,54.4353564 126.370513,56.9833564 124.437513,58.9903564 M128.255513,36.8773564 C127.733513,34.8403564 126.658513,33.0033564 125.196513,31.4373564 C123.337513,29.4453564 120.712513,27.5013564 117.989513,26.9943564 C115.219513,26.4783564 112.711513,27.7343564 111.077513,29.9543564 C109.236513,32.4573564 108.975513,35.6793564 108.911513,38.6833564 C108.906513,38.8873564 108.965513,39.0473564 109.046513,39.1873564 C108.759513,41.6763564 108.772513,44.2183564 108.996513,46.6943564 C109.031513,47.0773564 109.076513,47.4643564 109.115513,47.8493564 C108.887513,48.0663564 108.755513,48.3773564 108.868513,48.7743564 C109.062513,49.4573564 109.266513,50.1503564 109.475513,50.8453564 C109.502513,51.0383564 109.523513,51.2333564 109.552513,51.4263564 C109.568513,51.3783564 109.591513,51.3333564 109.608513,51.2863564 C110.520513,54.2593564 111.612513,57.2703564 113.163513,59.8973564 C114.764513,62.6103564 117.462513,64.2723564 120.655513,63.5523564 C127.227513,62.0713564 130.298513,54.2033564 130.659513,48.2073564 C130.895513,44.2853564 130.046513,40.3693564 128.255513,36.8773564" id="Fill-31" fill="#231F20"></path>
                <path d="M126.505213,50.5475564 C126.538213,50.6195564 126.571213,50.6925564 126.604213,50.7655564 C126.745213,51.0775564 127.043213,51.2245564 127.359213,51.2425564 C127.353213,51.2475564 127.343213,51.2565564 127.339213,51.2605564 C127.333213,51.2675564 127.325213,51.2735564 127.318213,51.2795564 C127.305213,51.2845564 127.291213,51.2795564 127.278213,51.2845564 C127.102213,51.3515564 126.924213,51.4105564 126.741213,51.4585564 C126.666213,51.4785564 126.590213,51.4955564 126.514213,51.5115564 C126.513213,51.5125564 126.507213,51.5135564 126.506213,51.5135564 C126.412213,51.4945564 126.318213,51.4745564 126.226213,51.4465564 C126.177213,51.4325564 126.128213,51.4155564 126.080213,51.3995564 C126.055213,51.3865564 126.030213,51.3725564 126.004213,51.3595564 C126.204213,51.1185564 126.380213,50.8535564 126.505213,50.5475564 M129.016213,49.6195564 C128.878213,49.5875564 128.731213,49.5925564 128.585213,49.6185564 C128.838213,48.0255564 128.907213,46.4105564 128.767213,44.8125564 C128.813213,44.6495564 128.826213,44.4735564 128.776213,44.2935564 C128.739213,44.1615564 128.694213,44.0325564 128.654213,43.9015564 C128.434213,42.2795564 128.019213,40.6845564 127.380213,39.1615564 C127.171213,38.6635564 126.718213,38.3065564 126.150213,38.4625564 C126.110213,38.4735564 126.072213,38.4925564 126.033213,38.5095564 C126.184213,38.2075564 126.186213,37.8215564 126.027213,37.5435564 C125.735213,37.0295564 125.151213,36.9685564 124.659213,37.1845564 C122.967213,37.9295564 121.555213,39.3355564 120.763213,41.0195564 C119.206213,42.5645564 118.486213,44.9045564 119.009213,47.0675564 C119.080213,47.3575564 119.248213,47.5275564 119.444213,47.6375564 C119.479213,47.7715564 119.529213,47.9015564 119.572213,48.0325564 C119.346213,48.2805564 119.226213,48.6245564 119.328213,48.9585564 C120.046213,51.3185564 122.227213,53.0665564 124.621213,53.4885564 C125.324213,53.7985564 126.116213,53.9005564 126.906213,53.7355564 C127.279213,53.6565564 127.634213,53.5055564 127.963213,53.3065564 C128.394213,53.1385564 128.797213,52.8775564 129.093213,52.5265564 C129.262213,52.3245564 129.367213,52.0665564 129.376213,51.8085564 C129.535213,51.5045564 129.653213,51.1825564 129.715213,50.8495564 C129.810213,50.3365564 129.574213,49.7465564 129.016213,49.6195564" id="Fill-33" fill="#231F20"></path>
                <path d="M103.345913,23.1559564 C105.047913,22.9919564 106.192913,21.2389564 107.274913,20.1049564 C108.567913,18.7509564 110.054913,17.7719564 111.938913,17.5009564 C116.151913,16.8939564 119.686913,19.4469564 122.842913,21.8739564 C123.862913,22.6589564 122.456913,24.0839564 121.447913,23.3069564 C118.598913,21.1159564 114.845913,18.3149564 111.039913,19.7739564 C109.475913,20.3749564 108.467913,21.8109564 107.342913,22.9749564 C106.219913,24.1349564 104.988913,24.9979564 103.348913,25.1559564 C102.068913,25.2789564 102.071913,23.2779564 103.345913,23.1559564" id="Fill-35" fill="#231F20"></path>
                <path d="M78.8755126,52.9293564 C78.8545126,52.9293564 78.8325126,52.9303564 78.8105126,52.9303564 C78.8925126,52.5593564 78.7815126,52.1533564 78.3555126,51.9043564 C74.1485126,49.4363564 68.8805126,48.9653564 64.3205126,50.7243564 C63.8185126,50.9183564 63.4665126,51.3983564 63.6225126,51.9543564 C63.7565126,52.4353564 64.3445126,52.8493564 64.8525126,52.6533564 C68.5175126,51.2403564 72.6055126,51.3743564 76.1425126,53.0153564 C68.8755126,53.5753564 61.9195126,56.9063564 56.9775126,62.3093564 C56.1105126,63.2573564 57.5205126,64.6753564 58.3915126,63.7233564 C63.6135126,58.0143564 71.1385126,54.7773564 78.8755126,54.9293564 C80.1635126,54.9543564 80.1635126,52.9543564 78.8755126,52.9293564" id="Fill-37" fill="#231F20"></path>
                <path d="M73.6026126,36.1715564 C68.3136126,35.2165564 63.2506126,37.3815564 58.6176126,39.7025564 C57.6696126,40.1785564 58.5086126,41.5955564 59.4526126,41.1215564 C63.6546126,39.0165564 68.3786126,36.8965564 73.1906126,37.7665564 C74.2286126,37.9535564 74.6476126,36.3605564 73.6026126,36.1715564" id="Fill-39" fill="#231F20"></path>
                <path d="M85.5712126,89.1334564 C94.0352126,92.7784564 103.599213,93.7074564 112.609213,91.7104564 C109.316213,96.1894564 106.618213,102.581456 99.9752126,100.330456 C96.5202126,99.1594564 93.4402126,96.6164564 90.7132126,94.2634564 C88.8752126,92.6764564 87.1722126,90.9514564 85.5712126,89.1334564 M81.0932126,86.8204564 C83.6522126,90.2404564 86.5802126,93.3744564 89.8372126,96.1404564 C92.8582126,98.7074564 96.3222126,101.473456 100.231213,102.484456 C103.746213,103.393456 106.982213,102.241456 109.408213,99.6234564 C111.714213,97.1354564 113.120213,93.9674564 115.386213,91.4454564 C115.746213,91.0434564 115.665213,90.6094564 115.398213,90.2994564 C115.481213,89.6804564 115.095213,89.0294564 114.343213,89.2354564 C103.581213,92.1744564 91.9842126,90.7444564 82.2602126,85.2764564 C81.3332126,84.7544564 80.5462126,86.0874564 81.0932126,86.8204564" id="Fill-41" fill="#231F20"></path>
                <path d="M79.6301126,83.5709564 C80.8191126,82.5469564 82.4951126,81.9979564 84.0521126,82.3179564 C84.5631126,82.4239564 85.0121126,82.8819564 84.9141126,83.4399564 C84.8251126,83.9419564 84.3401126,84.4149564 83.7921126,84.3009564 C83.6441126,84.2709564 83.4961126,84.2479564 83.3461126,84.2339564 C83.2721126,84.2269515 83.1981126,84.2249564 83.1241126,84.2199564 C83.1131126,84.2189564 83.1111126,84.2189564 83.1041126,84.2179564 C83.0901126,84.2199564 83.0791126,84.2209564 83.0581126,84.2229564 C82.9101126,84.2379564 82.7641126,84.2489564 82.6161126,84.2739564 C82.5431126,84.2859564 82.4711126,84.3029564 82.3991126,84.3169564 C82.3771126,84.3209564 82.3781126,84.3199564 82.3641126,84.3219564 C82.0741126,84.4339564 81.7861126,84.5289564 81.5101126,84.6779564 C81.4581126,84.7069564 81.2651126,84.8329564 81.4731126,84.6969564 C81.4101126,84.7379564 81.3471126,84.7769564 81.2841126,84.8199564 C81.1611126,84.9059564 81.0411126,84.9969564 80.9251126,85.0929564 C80.8301126,85.1739564 80.7401126,85.2579564 80.6501126,85.3449564 C80.6231126,85.3739564 80.5781126,85.4209564 80.5651126,85.4349564 C80.5161126,85.4909564 80.4681126,85.5489564 80.4211126,85.6069564 C80.3271126,85.7239564 80.2391126,85.8449564 80.1571126,85.9699564 C80.1331126,86.0069564 80.1111126,86.0429564 80.0891126,86.0799564 C80.0771126,86.1019564 80.0381126,86.1719564 80.0231126,86.1999564 C79.9571126,86.3329564 79.8971126,86.4689564 79.8451126,86.6079564 C79.8191126,86.6769564 79.7981126,86.7489564 79.7731126,86.8179564 C79.7661126,86.8369564 79.7661126,86.8309564 79.7621126,86.8409564 C79.7611126,86.8469564 79.7631126,86.8419564 79.7611126,86.8529564 C79.7281126,87.0109564 79.6971126,87.1679564 79.6801126,87.3289564 C79.6731126,87.4029564 79.6701126,87.4769564 79.6641126,87.5509564 C79.6621126,87.5659564 79.6621126,87.5729564 79.6611126,87.5839564 C79.6621126,87.5929564 79.6621126,87.6019564 79.6631126,87.6219564 C79.6831126,88.1429564 79.3861126,88.6969564 78.8111126,88.7509564 C78.3151126,88.7969564 77.7041126,88.4579564 77.6821126,87.8979564 C77.6171126,86.2099564 78.3551126,84.6689564 79.6301126,83.5709564" id="Fill-43" fill="#231F20"></path>
            </g>
            <g id="outline" transform="translate(0.000000, 0.916000)">
                <mask id="mask-2" fill="white">
                    <use xlink:href="#path-1"></use>
                </mask>
                <g id="Clip-27"></g>
                <path d="M171.0485,137.3854 C170.9045,137.5154 170.7915,137.6884 170.7625,137.9194 C169.5325,147.5444 162.4285,154.9564 155.6845,161.4394 C155.3625,161.3514 154.9875,161.4194 154.7385,161.7524 C150.6485,167.2124 148.0455,174.3574 142.1715,178.2564 C135.6435,182.5914 127.3675,181.2154 120.2965,179.1594 C116.3595,178.0154 112.5025,176.5924 108.6295,175.2514 C104.2835,173.7474 99.9385,172.2434 95.5935,170.7394 C87.9335,168.0884 80.0715,165.5154 73.3785,160.8084 C67.2365,156.4894 62.1385,149.8724 61.3945,142.2624 C61.3825,142.1734 61.3775,142.0834 61.3615,141.9954 C61.3175,141.4614 61.2915,140.9234 61.2915,140.3804 C61.2895,139.5654 60.3225,139.3824 59.8725,139.8214 C59.3965,139.9434 58.9965,140.4614 59.3065,141.0244 C59.5355,141.4394 59.6715,141.8774 59.7485,142.3234 C59.7655,142.5034 59.7815,142.6844 59.8035,142.8644 C59.8695,144.2724 59.2895,145.7084 58.2985,146.7444 C57.4495,147.6324 56.3575,148.1424 55.1925,148.3694 C54.8835,148.1624 54.5215,148.0424 54.1365,148.0704 C50.5765,148.3214 47.9105,145.0954 45.7255,142.7274 C42.8615,139.6224 40.1365,136.3874 37.5835,133.0214 C37.3715,132.7414 37.1115,132.5124 36.8275,132.3414 C36.7145,132.1494 36.5935,131.9604 36.4835,131.7664 C36.4775,131.7544 36.4715,131.7414 36.4655,131.7294 C36.4575,131.7144 36.4455,131.7024 36.4385,131.6884 C35.0865,129.2894 33.9885,126.7684 33.5095,124.0384 C33.2805,122.7344 33.2605,121.3614 33.5135,120.0484 C33.6395,119.9314 33.7595,119.7994 33.8645,119.6374 C34.9285,117.9944 36.6935,116.9084 38.5945,116.5364 C39.3825,116.6854 40.1795,116.6434 40.9345,116.4464 C41.3295,116.4944 41.7205,116.5734 42.1025,116.6904 C43.9485,117.2484 45.7135,118.6344 47.1935,119.8444 C48.7965,121.1554 50.1475,122.6164 51.0015,124.5214 C51.3435,125.2834 52.2755,125.5904 53.0785,125.4604 C53.3595,125.5244 53.6355,125.5314 53.8975,125.4904 C54.0605,125.4894 54.2125,125.4484 54.3445,125.3644 C54.8955,125.1454 55.3395,124.6934 55.5375,124.0634 C55.8915,122.9384 56.0095,121.8264 55.9535,120.7334 C56.0115,120.5414 56.0695,120.3494 56.1275,120.1574 C56.2285,119.8234 56.0615,119.4414 55.7715,119.2524 C55.5665,118.1714 55.2135,117.1134 54.7685,116.0824 C53.4955,109.0584 50.8125,102.3304 46.8585,96.3714 L48.4805,96.9894 C49.7575,97.4764 51.0675,98.1204 52.4235,98.3404 C53.5475,98.5224 54.5975,98.2614 55.4135,97.6384 C56.1265,97.9644 56.9755,97.9954 57.6545,97.5314 C59.3025,96.4044 60.7295,95.0754 61.9415,93.5314 C62.3565,93.0804 62.7225,92.5834 63.0085,92.0324 C63.1165,91.8234 63.1875,91.6194 63.2395,91.4174 C64.3075,89.7134 65.1595,87.8724 65.7715,85.9544 C68.4625,83.5634 69.2845,79.6614 69.2135,76.0004 C71.9845,79.3204 76.0605,81.4734 80.3875,81.9494 C85.9865,82.5664 91.3795,79.9254 94.7525,75.4974 C95.7055,74.2464 96.4525,72.8714 97.0065,71.4234 C97.2965,70.9064 97.5745,70.3844 97.8365,69.8564 C100.0565,73.5314 103.5775,76.4924 107.8265,77.3914 C112.8885,78.4604 118.0035,76.0774 120.5135,71.5444 C121.0575,70.5614 121.4295,69.5034 121.6355,68.4204 C121.9755,70.3094 122.5735,71.9474 124.0665,73.4414 C124.7105,74.0844 125.5285,74.6564 126.4205,75.1064 C127.9135,76.4764 129.7775,77.3784 132.1525,77.4504 C135.0275,77.5374 137.4765,75.7814 138.8615,73.3484 C139.9165,71.4944 140.3035,69.4364 140.4235,67.3434 C142.5005,70.4134 146.1235,72.4684 149.8855,72.2174 C153.7975,71.9554 157.1795,69.4304 158.8375,66.0094 C159.6525,66.4514 160.5355,66.7564 161.4605,66.9004 C161.5425,66.9404 161.6195,66.9874 161.7035,67.0234 C157.4135,72.4064 157.7185,80.3674 159.0825,86.7714 C160.6855,94.2954 164.1275,101.2534 166.9405,108.3664 C168.5615,112.4674 169.9915,116.6514 170.7915,120.9964 C170.8085,121.0864 170.8465,121.1514 170.8825,121.2194 C171.4695,126.5884 171.5225,132.0054 171.0485,137.3854 M117.8825,188.8354 C117.1195,189.6024 115.9015,189.9824 114.8755,190.2384 C113.7795,190.5124 112.5165,190.6414 111.4575,190.1564 C110.3375,189.6434 109.8645,188.4454 109.1055,187.5544 C108.7645,187.1534 108.3695,186.8634 107.9385,186.5714 C107.2825,186.1284 107.3515,185.6854 107.3305,184.9364 C107.2495,182.1354 107.1685,179.3354 107.0875,176.5354 C110.5705,177.7414 114.0595,178.9284 117.5675,180.0454 C117.5605,180.1424 117.5655,180.2444 117.6025,180.3574 C118.0745,181.8174 118.4025,183.3174 118.5215,184.8484 C118.6195,186.1054 118.8595,187.8534 117.8825,188.8354 M106.4555,3.6924 C105.7525,4.2214 104.9315,4.6614 104.0515,4.9884 C104.8065,4.4844 105.6135,4.0484 106.4555,3.6924 M136.7945,73.4414 C136.8195,73.4134 136.8435,73.3814 136.8685,73.3534 C135.8125,74.7404 134.3265,75.6974 132.5435,75.7814 C134.1465,75.4074 135.6635,74.6724 136.7945,73.4414 M143.5785,68.4164 C142.5945,67.5844 141.7735,66.5584 141.1925,65.4054 C141.9155,66.4674 142.7145,67.4764 143.5785,68.4164 M171.5005,116.7344 C167.9885,103.8104 159.5945,92.0194 159.8555,78.3004 C159.9285,74.4414 160.8555,70.4304 163.4785,67.5044 C163.9125,67.5584 164.3515,67.5724 164.7855,67.5314 C168.1555,67.2114 170.7345,64.4904 171.9515,61.4924 C173.4155,57.8864 173.4805,53.5774 173.3075,49.7394 C173.1835,46.9784 172.7305,44.1554 171.6805,41.5804 C171.2985,40.2194 170.5815,39.0024 169.6525,37.9804 C168.0095,35.8024 165.7905,34.0494 163.2035,33.2114 C163.1905,33.1784 163.1755,33.1474 163.1635,33.1144 C163.6025,30.9634 163.8995,28.6324 162.8145,26.6344 C162.4215,25.9104 161.8805,25.3114 161.2425,24.8704 C160.7515,22.8714 159.9425,21.0874 158.5405,19.6224 C158.1395,18.7564 157.5725,17.9684 156.8185,17.3264 C155.5445,16.2404 153.8755,15.7084 152.2415,15.7994 C151.7435,14.6944 151.0345,13.6464 150.0825,12.6944 C146.8415,9.4534 140.6895,8.1844 136.7525,10.9744 C136.4595,11.1814 136.1645,11.3964 135.8675,11.6104 C135.1265,8.8604 133.1875,6.5934 130.7035,5.1854 C130.5085,5.0314 130.3215,4.8684 130.1145,4.7284 C128.0405,3.3174 125.3345,2.7474 122.9085,3.3414 C122.3385,2.7834 121.7065,2.2924 121.0285,1.8704 C120.5285,1.2754 119.8555,0.8024 119.0985,0.5494 C118.2875,0.2774 117.4345,0.2124 116.5795,0.2264 C114.6375,-0.0756 112.6155,0.0944 110.7385,0.8174 C110.5515,0.8484 110.3625,0.8674 110.1755,0.9024 C106.6945,1.5444 103.1605,3.0474 100.7705,5.6174 C99.3165,5.6354 97.9235,5.2844 96.8575,4.4504 C93.6815,1.9624 90.3705,0.9644 87.0855,1.5914 C83.6395,1.9064 81.1685,4.2484 78.7225,6.5524 C77.8335,7.2774 76.9445,8.0014 76.0555,8.7274 C73.5075,7.2974 70.9725,5.8094 68.3445,4.5484 C65.8215,3.3384 62.9885,2.4964 60.2255,3.3964 C54.9225,5.1234 52.9685,10.6544 51.7075,15.5964 C47.7115,13.1984 42.7215,12.5514 38.2415,13.8834 C36.7455,14.3284 35.3525,15.0184 34.0695,15.8684 C31.8055,16.8924 29.7665,18.4474 28.1485,20.6254 C25.7325,23.8794 24.7335,27.7934 25.1945,31.5394 C24.4955,31.8204 23.6745,31.9744 23.1375,32.1844 C22.0385,32.6144 20.9805,33.1424 19.9865,33.7814 C17.4975,35.3834 15.3885,37.6024 13.9205,40.1784 C12.6105,41.7544 11.5775,43.5884 10.9545,45.7564 C9.4905,50.8554 10.7245,55.7424 13.5085,59.8044 C10.0705,60.6654 6.8515,62.3924 4.4485,65.0264 C2.6185,67.0314 1.4085,69.4804 0.9065,72.0734 C-0.5765,76.0224 -0.0615,80.6744 3.2625,83.7264 C3.4385,83.8874 3.6225,84.0314 3.8045,84.1814 C0.4355,86.0264 -0.4945,90.9604 0.2305,94.5034 C0.9475,98.0084 3.1175,101.1134 6.0925,103.0264 C5.6355,103.5474 5.2245,104.1264 4.8665,104.7664 C4.8515,104.7884 4.8325,104.8084 4.8175,104.8314 C4.4975,105.3054 4.2815,105.8214 4.1365,106.3554 C2.4125,111.0704 3.8605,117.3844 8.7485,119.7734 C9.8905,120.3304 10.0045,120.1524 10.4615,120.8634 C11.5085,122.4954 12.7795,123.6694 14.1595,124.4934 C13.1805,125.6224 12.6875,127.2034 13.0825,128.9824 C13.0925,129.0304 13.1065,129.0774 13.1175,129.1264 C13.0825,129.4284 13.0445,129.7304 13.0315,130.0324 C12.8635,133.8674 14.5125,137.4434 16.4185,140.6714 C18.4945,144.1894 20.5875,147.8234 23.0115,151.1144 C25.1955,154.0784 28.1285,156.7404 31.9205,157.2334 C34.9425,157.6254 38.1975,156.1824 39.5585,153.4704 C40.2095,154.0274 40.9265,154.5114 41.6875,154.9094 C42.6955,156.3304 44.2095,157.5354 45.4235,158.4804 C47.6715,160.2274 50.2615,161.6014 53.0585,162.2104 C58.1565,163.3214 63.8295,161.6734 66.8695,157.2854 C67.6615,158.1464 68.4905,158.9714 69.3645,159.7394 C75.6905,165.2924 83.7275,168.3434 91.5655,171.0824 C96.1835,172.6974 100.7975,174.3474 105.4235,175.9614 C105.5035,178.7094 105.5825,181.4564 105.6625,184.2044 C105.6955,185.3644 105.5325,186.7174 106.4985,187.5574 C106.8855,187.8924 107.3585,188.1034 107.7175,188.4714 C108.1155,188.8784 108.3995,189.3744 108.7295,189.8344 C110.1135,191.7644 112.1285,192.3594 114.4295,192.0044 C116.4155,191.6984 118.9965,190.8194 119.8475,188.8214 C120.4005,187.5234 120.2705,185.9364 120.1445,184.5664 C120.0205,183.2234 119.7645,181.9034 119.3925,180.6104 C126.1775,182.6394 133.7525,184.0214 140.4225,181.0854 C147.7285,177.8694 150.8515,170.2844 155.1195,164.0474 C155.2695,164.0254 155.4205,163.9714 155.5585,163.8394 C162.2945,157.4084 169.4275,150.2614 171.7905,141.0534 C172.0845,140.9504 172.3375,140.7104 172.3855,140.3284 C173.3345,132.6654 173.1945,124.9324 172.0225,117.3024 C171.9685,116.9544 171.7525,116.7844 171.5005,116.7344" id="Fill-26" fill="#231F20" mask="url(#mask-2)"></path>
            </g>
        </g>
    </g>
</svg>