<svg baseProfile="basic" xmlns="http://www.w3.org/2000/svg" viewBox="0 0 500 600"><path fill-rule="evenodd" clip-rule="evenodd" fill="#BEBEBE" d="M260.3 234.2v0m0-16.2c-.1.8-.3 1.7-.3 2.5-.1.8-.1 1.5-.2 2.3 0 .5-.1 1-.1 1.5 0 .6 0 1.2.1 1.9v2.7s-.1 0-.1-.1c-.6-.5-1.2-1-1.8-1.4-1.2-1-2.4-2-3.5-2.9-.6-.5-1.2-1-1.9-1.4-.6-.4-1.2-.9-1.8-1.4-.2-.2-.5-.4-.7-.6h.1c1.3-.3 2.7-.8 4-1.2 1.3-.4 2.7-.7 4.1-1.1.6-.2 1.2-.4 1.7-.6-.1 0-.2.1-.2.1.2-.2.4-.3.6-.3m1.5-2c-.6.1-1.1.2-1.7.3-1.3.2-2.6.5-3.9.7-2.1.4-4.1.7-6.2 1-.1 0-.2 0-.3.1-.2 0-.4.1-.6.1-1.3.2-2.6.4-3.9.5l-2.4.3c-.5.1-.9.1-1.4.2-.2 0-.5.1-.7.1v.1c0 .1-.1.2-.1.3-.4 1.1-.6 2.4-.6 3.6 0 1 .1 1.9.3 2.8.1.8.3 1.7.7 2.4.3.7.7 1.6 1.2 2.3.5.7 1.1 1.3 1.8 1.9 1.1 1 2.5 1.6 3.7 2.3.6.3 1.1.8 1.8 1 .7.3 1.3.6 2 .9 1.3.5 2.5 1.1 3.8 1.7 1 .5 2 1 3 1.4.7.3 1.6.5 2.3.7.5.1.9.2 1.3.1.6-.1 1.3-.3 1.8-.7.8-.7 1.2-1.4 1.6-2.4.2-.6.4-1.3.5-1.9.2-.8.2-1.8.2-2.4v-.8c0-.5 0-.9-.1-1.4 0-.1-.1-.3-.1-.4-.1-.2-.2-.5-.3-.7l-.1-.3c-.2 0-.5-.1-.7-.2-.2-.2-.3-.4-.4-.7-.1-.2-.1-.4-.2-.6-.1-.2-.1-.4-.2-.6-.1-.3-.2-.6-.3-1-.3-.8-.5-1.6-.8-2.4l-.6-2.1-.3-1.2c0-.1-.1-.3-.1-.4-.1-.4-.2-.7 0-1.1.1-.1.1-.2.2-.3-.1-.3-.1-.5-.2-.8v-.4-.3c-.1-.5-.1-1.1-.2-1.6.2.1.2 0 .2-.1"/><path fill-rule="evenodd" clip-rule="evenodd" fill="#BEBEBE" d="M259.4 216.2c-.8.1-1.6.3-2.4.4 0 .2-.1.3-.1.5-.3 0-.5.2-.8.3-.3.2-.7.3-1.1.4-.7.3-1.4.5-2.1.8-1.4.5-2.7.9-4.1 1.4-1.4.5-2.7 1-4.1 1.6-.3.2-.5.5-.6.8-.2.7-.3 1.4-.2 2.1.1.4.2.8.4 1.1l.3.3c.2.2.5.2.7 0l4.2-1.5c.6-.2 1.2-.4 1.8-.5 0 1.4.3 2.8.8 4.2.2.5.5 1 .8 1.5.3.5.7.9 1.1 1.3.3.3.5.5.8.7.4.3 1 .4 1.4.6.2.1.5 0 .7 0 .4.6 1 1.1 1.8.7.4-.4.7-.8.9-1.3.3-.7.4-1.5.4-2.3v-.1c.2-.4.3-1 .4-1.4.2-.8.2-1.6.3-2.4 0-.4 0-.7.1-1.1 0-.5.1-1.1 0-1.6 0-.6 0-1.2-.1-1.8v-.9c0-.8-.1-1.5-.2-2.3-.1-.6-.2-1.1-.4-1.7-.1.1-.4.1-.7.2M202.9 281.6c0 .3.1.5.1.8v.1h-.5c.1-.3.3-.6.4-.9m16.3-38.6l-.9.3c-.3.2-.6.5-.9.7-.5.4-1 .9-1.5 1.4-.7.7-1.3 1.4-1.9 2.2-.5.6-.8 1.2-1.2 1.9-.4.6-.8 1.3-1.2 1.9-.4.7-.8 1.4-1.1 2.1-.8 1.5-1.5 3.1-2.2 4.7-.3.8-.7 1.5-1 2.3l-.9 2.1c-.6 1.4-1.1 2.8-1.7 4.3l-1.5 4.2c-.5 1.5-1.1 3.1-1.6 4.6-.4 1.1-.9 2.2-1.3 3.3-.3.8-.5 1.6-.8 2.4-.2 1.1-.5 2.3-.5 3.5 0 .4 0 .7.1 1.1.2.7.3 1.3.8 1.7.3.2.5.3.8.3.2 0 .3-.1.5-.2.6-.1 1.3-.1 1.9 0 .3 0 .6.1.9.1.3 0 .6-.1.8-.3.2-.2.4-.4.5-.6.2-.3.3-.5.4-.8.3-.5.5-1.1.7-1.7.2-.6.5-1.2.7-1.8 1-2.8 1.5-5.8 2.2-8.7.1-.2.1-.4.2-.6.3-1.3.7-2.5 1.1-3.7.4-1.4.8-2.8 1.3-4.2.4-1.4.8-2.9 1.3-4.3.1-.2.1-.4.2-.6.1-.1.1-.3.2-.4.7-1.4 1.4-2.8 2-4.2.3-.5.6-1.1.9-1.6.3-.5.7-1 1-1.4.7-.9 1.5-1.7 2.2-2.5.3-.4.7-.7 1-1.1.4-.4.9-.8 1.3-1.2.3-.2.5-.4.8-.6l.3-.3.4-.4.1-.1c.4-.3.5-.9.5-1.4 0-.3 0-.6-.1-.9-.1-.2-.3-.7-.6-.6-.2 0-.4 0-.6.1-.2 0-.3.1-.5.2v-.1c-.1-.2-.3-.7-.6-.6-.2 0-.3.1-.5.1l-.6.3c-.1-.3-.3-.5-.6-.7-.3-.1-.5-.2-.8-.2.1 0 0 0 0 0"/><path fill-rule="evenodd" clip-rule="evenodd" fill="#BEBEBE" d="M203 287.2c-.6.4-.8 1.3-1 1.9 0 .6 0 1.2.1 1.9.1.3.1.5.2.8.1.4.4.8.7 1.1 1.6.5 3.2 1 4.9 1.1 1.5.1 3 0 4.5-.1 1.4-.1 2.7-.3 4.1-.5.7-.1 1.3-.2 2-.4.6-.1 1.1-.3 1.6-.6.3-.2.5-.5.6-.9.2-.5.3-1 .2-1.5 0-.5-.1-1-.2-1.5l-.3-.6c-.2-.3-.4-.5-.8-.5l-1.2.3c-.6.1-1.3.2-1.9.3-1.4.1-2.7.2-4.1.2h-2.1c-.7 0-1.4-.1-2.1-.1-1.4-.2-2.8-.5-4.2-.9-.2-.1-.3-.2-.5-.2s-.3.1-.5.2M298.2 280c-.4.1-.8.2-1.2.4-.2.1-.4.2-.7.3.1 0 .2-.1.3-.1l-1.8.6c-.6.2-1.2.5-1.8.8-1.1.5-2.2.9-3.3 1.3-1 .3-2 .5-3 .7-.6.1-1.3.1-1.9.2h-.9c-.4 0-.9 0-1.3-.1-.1 0-.1-.1-.2-.1-.4-.3-.8-.3-1.2 0-.8.5-1.1 1.6-1.2 2.4-.1.8-.1 1.6 0 2.4.2.9.5 1.9 1.2 2.4.4.3 1 .4 1.4.5.3.1.7.1 1.1.1.4 0 .8.1 1.1.1h2.3c1.5-.1 3-.1 4.4-.3.7-.1 1.4-.2 2.1-.4.3 0 .6-.1.9-.1.3-.1.7-.2 1-.3.3-.1.7-.2 1-.3.5-.1 1-.3 1.5-.5.7-.4 1.3-.9 1.8-1.5.4-.7.7-1.5.8-2.3.2-1 .2-2 0-3-.1-.8-.4-1.6-.8-2.3-.3-.5-.8-.8-1.4-.9h-.2c.2 0 .1 0 0 0M256.3 267l-4.5.3c-1.5.1-2.9.1-4.4.3-3.1.3-6.2.6-9.2 1.1-3.1.5-6.2 1.1-9.4 1.6-.4.1-.7.1-1.1.2-.9.2-2 .3-2.8.8-.3.3-.6.6-.7 1.1-.3.8-.3 1.8-.2 2.7.1.8.7 2.6 1.8 1.9.1-.1.2-.1.3-.2 1.1-.3 2.3-.4 3.5-.5.8-.1 1.5-.2 2.3-.2 1.6-.1 3.1-.3 4.7-.4 3-.2 6-.3 9.1-.4h4.4c1.5 0 3-.1 4.4-.2 1.5-.1 2.9-.2 4.4-.4.7-.1 1.5-.2 2.2-.3.7-.1 1.4-.3 2.1-.5l1.5-.3c1.1-.2 1.4-1.9 1.4-2.9 0-.6-.1-1.2-.3-1.7l-.3-.6c-.2-.3-.4-.5-.8-.6-.6-.2-1.3-.3-1.9-.4-.7-.1-1.5-.1-2.2-.2-.7 0-1.4 0-2.1-.1-.5 0-1.1-.1-1.6-.1h-.6"/><path fill-rule="evenodd" clip-rule="evenodd" fill="#BEBEBE" d="M265.5 266.2c-.5.4-.9 1-1.1 1.7-.1.4-.2.9-.3 1.3-.2 1-.2 2 0 3 .3 1.6.6 3.2.8 4.8v2.3c0 .9-.1 1.8-.1 2.8-.1 2.2.1 4.4.2 6.6v-.7c.1 1.3.1 2.7.3 4 0 .3.1.7.1 1 0 .1 0 .3.1.4.2 1.1.4 1.6.9 2.6.3.5.7.8 1.3.9.9 0 1.5-1.1 1.7-1.9.4-1.6.6-3.2.7-4.8 0-1.1 0-2.1-.1-3.2-.1-1.2-.1-2.5-.2-3.7 0-1.3 0-2.7-.1-4 0-1.9-.2-3.7-.4-5.5-.2-1.6-.5-3.1-.8-4.6-.1-.8-.4-1.6-.8-2.3-.4-.5-.8-.9-1.3-.9-.4 0-.6.1-.9.2M267.6 313.6c-.5.7-.6 1.7-.6 2.5.1 1.9.2 3.7.4 5.6.1.8.1 1.6.1 2.4 0 .2-.1.4-.1.6-.2.9-.1 1.8 0 2.7 0 .3.4 1.3.3 1.1.1.5.4.9.8 1.2.2.1.3.1.5.2.2.2.4.1.6-.1.5-.6.7-.7 1-1.5.2-.5.3-1 .4-1.5.2-1.2.1-2.4 0-3.6-.1-.9-.3-1.8-.4-2.6-.2-1-.3-2-.4-3 0-.5-.1-.9-.1-1.4 0-.6-.1-1.3-.3-1.8-.2-.5-.6-1.3-1.2-1.3-.5-.1-.8.1-1 .5M254.5 312c-.7 0-1.5.1-2.2.2-1.5.2-2.9.3-4.4.5-1.5.2-2.9.4-4.4.6-1.4.2-2.9.4-4.3.6-1.5.2-3 .3-4.6.5-1.5.2-3 .3-4.5.5s-3 .3-4.5.5-3 .2-4.6.3H212.3c-2.1-.1-4.3-.3-6.4-.9-.3-.1-.7-.2-1-.4-.4-.2-.8-.4-1.1-.7-.5-.3-.8.5-.8.8-.1.5 0 1.3.4 1.7.4.3.7.5 1.1.7.4.2.9.4 1.4.6.6.3 1.3.4 1.9.7.7.2 1.4.5 2.2.7 1.4.4 2.9.6 4.4.7l4.5.3c.7.1 1.4.1 2.1.1h2.2c.8 0 1.5 0 2.3-.1.7-.1 1.5-.1 2.2-.2l4.5-.3c1.6-.1 3.1-.3 4.6-.5 1.5-.2 3-.4 4.5-.7 1.5-.3 2.9-.6 4.4-.9 1.4-.3 2.9-.6 4.3-.9.7-.2 1.5-.4 2.2-.5.7-.2 1.4-.3 2.1-.5.7-.2 1.5-.4 2.2-.6.7-.2 1.4-.3 2.1-.4 1.1-.2 2.3-.2 3.4-.3.5 0 1.1 0 1.6.1.6 0 1.2.1 1.8.1.3 0 .4-.6.4-.8 0-.3-.1-.7-.4-.8-.8-.1-1.6-.3-2.4-.4-.7-.1-1.5-.1-2.2-.2-1.4-.1-2.8-.2-4.3-.3h-1.3c-.1.2-.4.2-.7.2"/><path fill-rule="evenodd" clip-rule="evenodd" fill="#BEBEBE" d="M201.8 306.1c-.4.3-.6 1-.7 1.5-.1.5-.1 1 0 1.5s.3 1.1.7 1.5c.2.1.5.3.7.4-.1.5-.2 1-.2 1.4 0 .5.1 1.2.3 1.7.1.3.3.6.4.9.1.2.4.5.6.7l.4.4c.2.2.5.4.7.6.6.5 1.2.9 1.8 1.3.7.5 1.4 1.1 2.1 1.7.9.7 1.9 1.3 2.8 1.8.7.4 1.5.7 2.3.9.6.2 1.3.3 1.9.4 1.5.1 2.9.2 4.4.2 1.4.1 2.9.1 4.3 0 .7 0 1.5-.2 2.2-.3l2.1-.3h.3c.4 0 .7-.2.9-.6.5-.7.6-1.6.6-2.4v-.5H233.3c.4 0 .8 0 1.1-.2.1-.1.2-.1.2-.3.2-.3.3-.6.3-.9.1-.7 0-1.4-.3-2-.3-.5-.9-.7-1.5-.8-.4-.1-.8-.2-1.2-.2-.8-.1-1.5-.2-2.3-.3-1.5-.2-3-.3-4.5-.5-3-.4-5.9-1-8.8-1.6-1.8-.4-3.7-.8-5.5-1.4-1.1-.4-2.1-.7-3.1-1.2-1.1-.5-2.2-1.1-3.2-1.8-.7-.5-1.4-1-2.1-1.6 0-.1-.2-.1-.3-.1-.1 0-.2 0-.3.1M277.4 260.1c-.1.1-.2.3-.3.5-.1.4-.1.9-.1 1.3.1.7.3 1.3.4 2 .1.5.1 1 .2 1.4.2 1.1.3 2.3.5 3.4.1.7.1 1.4.2 2.1.1 1 .2 1.9.3 2.9.2 2.4.3 4.8.4 7.2 0 .2 0 .5.1.7.1.2.2.5.4.5.1 0 .2-.1.3-.2.2-.3.2-.6.2-.9v-2.3-2.2c0-.7-.1-1.4-.1-2.1 0-.6-.1-1.3-.1-1.9-.1-1-.2-1.9-.3-2.9 0-.5-.1-1.1-.2-1.6-.2-1.7-.5-3.3-.7-5-.1-.7-.2-1.3-.4-2-.1-.3-.2-1-.6-1 0 0-.1 0-.2.1M269.2 330.2c-.7 1.2-1.5 2.3-2.4 3.4l-.1.1c.1-.3.1-.6.1-.8 0-.3 0-.6-.1-.8-.1-.2-.2-.4-.4-.5-.5-.2-.9-.5-1.4-.7-.7-.3-1.4-.3-2.2-.3-1.4 0-2.8 0-4.2.1-1.5.1-2.9.3-4.4.4-1.5.1-3.1.2-4.6.3-1.5.1-3 .3-4.5.3-1.6.1-3.1.1-4.7.2s-3.1.2-4.7.3c-1.4.1-2.8.3-4.2.4l-2.4.3c-.4.1-.8.1-1.1.2-.4.1-.8.2-1.2.4-.1-.3-.1-.5-.2-.8-.1-.4-.4-.7-.7-1-.1 0-.3-.1-.4-.1-.4 0-.6.2-.8.5-.2.2-.3.6-.5.8-.1.1-.1.2-.1.4-.2.4-.3.9-.4 1.3-.1.4-.2.8-.2 1.3 0 .3 0 .5-.1.8-.1.3-.2.5-.3.8-.3.6-.6 1.3-.8 1.9-.2.5-.5 1.1-.7 1.6-.2.5-.4 1.1-.5 1.6-.1.8 0 1.6.4 2.3.1.3.5.5.8.4.3 0 .6-.2.9-.4.2-.1.3-.2.4-.3.5-.3 1-.6 1.4-1 .3-.2.5-.4.7-.7.1-.1.3-.2.4-.4H227.3c.3 0 .6-.1.9-.2.1 0 .2-.1.3-.1l1.5-.3c.7-.1 1.3-.2 2-.3 1.6-.2 3.2-.4 4.8-.7.7-.1 1.4-.3 2.1-.4.8-.2 1.5-.3 2.3-.5 1.5-.3 3.1-.6 4.6-.9 3-.5 6-1 9-1.3 1.5-.2 3-.3 4.5-.4 1.5-.1 3-.3 4.5-.5.6-.1 1.3-.1 1.9-.2.1 0 .3 0 .4-.1.1 0 .4-.1.5-.1.2-.1.3-.2.4-.3.2-.2.3-.5.5-.7.7-1.2 1.5-2.3 2.2-3.5.2-.4.3-1 .1-1.4 0-.1-.1-.3-.3-.4h-.2c.1-.2-.1-.1-.1 0"/><path fill-rule="evenodd" clip-rule="evenodd" fill="#BEBEBE" d="M270.9 329.3l-1.5 2.4c-.2.3-.4.7-.6 1-.1.1-.2.3-.2.4 0-.2-.1-.4-.3-.5-.3-.1-.5-.1-.8-.1h-.9c-.6 0-1.2.1-1.7.2l-3.3.6c-2.5.4-5.1.7-7.6 1.1-1.2.2-2.3.4-3.5.6-.4.1-.8.1-1.2.2-.7.1-1.3.3-2 .4-.7.2-1.4.3-2 .5l-1.2.3-3.3.9c-1.4.4-2.8.9-4.2 1.3-1.1.3-2.2.7-3.3 1.1-.9.3-1.9.6-2.8 1-1.3.5-2.6.9-3.9 1.4-.7.3-1.4.5-2.1.8-.2.1-.5.2-.7.3-.4.1-.8.3-1.1.5-.2.1-.3.3-.3.5-.1.3-.1.7-.1 1 .1.2.2.8.5.7.4 0 .8-.2 1.1-.3l.9-.3 1.8-.6c1.1-.4 2.3-.7 3.5-1 1.2-.3 2.3-.7 3.5-1.1l3.3-.9c1.1-.3 2.2-.6 3.3-.8 1.3-.3 2.6-.5 3.8-.8 1.1-.2 2.1-.5 3.2-.7 1.2-.3 2.4-.6 3.6-.8 1.1-.2 2.3-.4 3.4-.6 2.3-.4 4.6-.7 7-1l3.6-.3c1.2-.1 2.4-.1 3.6-.2.4 0 .8-.1 1-.4.1-.2.2-.4.3-.5l.9-1.5c.5-.8 1-1.6 1.5-2.3.1-.2.2-.5.3-.7.1-.4.1-.9-.1-1.3-.1-.2-.2-.4-.4-.5-.1 0-.2-.1-.2-.1-.6-.2-.7-.1-.8.1M283.8 289.1c-.2.2-.4.5-.5.8-.3.8-.4 1.7-.2 2.5.1.5.1.9.2 1.4l.3 1.5c.2.9.3 1.8.5 2.7.2 1.4.5 2.8.7 4.1.5 3.1 1 6.1 1.3 9.2.4 3.4.7 6.8 1 10.1.1.6.5 1.8 1.3 1.3.2-.2.4-.5.5-.8.2-.6.2-1.3.1-1.9-.3-3.2-.6-6.3-.9-9.5-.2-2.3-.6-4.5-.9-6.7.1.5.2.9.4 1.4.2 1 .4 2.1.5 3.1.2 1.1.4 2.2.5 3.3v.6c0 .1 0 .2-.1.3 0 .3-.1.5 0 .8 0 .2 0 .4.1.7v-.1c.1.8.2 1.5.3 2.3.1.8.2 1.5.4 2.3.2 1.5.4 2.9.7 4.4.3 1.5.5 3.1.8 4.6.3 1.5.7 2.9 1 4.4.2 1 .4 1.9.6 2.9.2 1.5.3 3 .5 4.5.1 1.4.3 2.8.5 4.3.1 1.6.3 3.3.4 4.9.1.7.1 1.4.2 2 0 .9-.1 1.7-.1 2.6-.1 1.6-.3 3.2-.6 4.8-.1.5-.2.9-.3 1.4-.1.4-.2.8-.3 1.3-.2.8-.3 1.6-.5 2.4-.6 2.3-1.1 4.5-1.9 6.8-.4 1.1-.8 2.1-1.2 3.1-.3.8-.7 1.7-1 2.5-.6 1.6-1.1 3.2-1.5 4.8-.1.3-.2.7-.2 1 0 .5.1 1 .3 1.4.1.2.3.3.5.3.3 0 .6-.4.7-.7.3-.9.5-1.9.8-2.8.3-1.1.8-2.1 1.2-3.2.3-.7.5-1.3.8-2 .5-1.4 1.1-2.7 1.5-4.1.4-1.5.8-3 1.3-4.5.4-1.3.7-2.7 1.2-4 .3-.8.4-1.7.6-2.6.1-.7.3-1.4.4-2.1.1-.7.2-1.4.2-2.1.1-1 .2-1.9.2-2.9.1-1.5.1-3 .1-4.5v-4.3c-.1-2.7-.4-5.4-.8-8.1-.2-1.2-.4-2.4-.7-3.7-.3-1.2-.6-2.4-.9-3.7-.3-1.3-.5-2.5-.7-3.8-.2-1-.4-2-.6-3.1 0-.3-.1-.6-.1-.8-.2-2.5-.7-4.9-.9-7.4-.1-1.1-.1-2.2-.3-3.2-.1-.5-.2-.9-.2-1.4-.1-.5-.2-.9-.2-1.4-.1-.9-.2-1.8-.4-2.7-.2-1-.5-2.1-.8-3.1v.1c-.5-1.9-1-3.8-1.7-5.7-.3-.9-.7-1.8-1.1-2.7-.3-.6-.6-1.2-.9-1.7-.3-.6-.7-1.2-1.2-1.6-.3-.1-.4-.1-.5-.1-.2 0-.3 0-.4.1"/><path fill-rule="evenodd" clip-rule="evenodd" fill="#BEBEBE" d="M295.9 336.6v0c0-.1 0 0 0 0m-9.6-44.3c-.4.6-.4 1.5-.2 2.1.4 1.2.8 2.5 1.2 3.7.2.8.5 1.5.7 2.3.5 1.8 1 3.5 1.5 5.3.4 1.5.7 2.9 1 4.4.3 1.5.5 3 .8 4.4l.9 4.2c.3 1.5.5 3 .7 4.5.1.8.2 1.7.3 2.5.1 1.8.2 3.7.4 5.5.1 1.8.4 3.6.6 5.4v.5c.2 2.6.3 5.1.4 7.7.1 1.3.2 2.7.3 4 .1 1.4.2 2.9.3 4.3v-.5c.1 1.1.1 2.1.1 3.2-.1 1.3-.3 2.6-.6 3.9v.3c-.2-.1-.4-.2-.6-.2-.4 0-.7.2-.9.6-.1.2-.2.4-.3.7 0 .1-.1.1-.1.2-.7 1.5-1.2 3-1.8 4.5-.5 1.4-1.1 2.8-1.4 4.3 0 .2-.1.4-.1.7-.3.8-.6 1.5-.8 2.3l-.6 2.1c-.3 1-.5 2-.7 3.1-.1.3-.1.7-.2 1-.1 1.1-.1 2.3.3 3.3.2.5.5 1 .9 1.3.4.2.8.2 1.2 0 .2-.2.4-.4.5-.6.2-.3.3-.6.5-.9.2-.4.2-.9.3-1.3 0-.1 0-.1.1-.2l.3-.6.9-1.8c.2-.4.4-.9.6-1.3l.9-1.8c.1-.3.2-.5.3-.8l.3-1.2.6-2.1c.2-.7.3-1.3.4-2 .1-.7.3-1.4.4-2.1.2-.7.3-1.4.4-2.1l.6-4.5c.1-.7.2-1.4.2-2.2.1-.9.2-1.8.2-2.7 0-1.4-.1-2.8-.3-4.1-.1-1.1-.1-2.3-.2-3.4-.1-1.3-.2-2.5-.2-3.8-.2-2.7-.2-5.3-.4-8v-.2-.2-.2-.1-.2c-.1-1.5-.3-3.1-.5-4.6-.2-3-.4-6.1-.8-9.1-.2-1.5-.5-3.1-.8-4.6-.3-1.5-.6-2.9-.9-4.4-.3-1.5-.5-2.9-.9-4.4-.3-1.5-.7-3-1.1-4.5-.4-1.7-.9-3.3-1.4-5-.4-1.5-.9-3-1.4-4.4-.2-.6-.4-1.3-.6-1.9-.1-.2-.2-.4-.4-.5-.1 0-.2-.1-.2-.1-.4 0-.6.1-.7.3"/><path fill-rule="evenodd" clip-rule="evenodd" fill="#161616" d="M264.6 272.3c-.2.2-.2.4-.2.6-.2 2.2-.3 4.4-.3 6.6v1.6c0 .5 0 1.1.1 1.6 0 1.1.1 2.1.2 3.2.1 1.4.2 2.8.3 4.3.1.7.1 1.4.1 2.1 0 .7.1 1.4.2 2.1v.9c0 .2.1.4.3.5.2.2.4.3.6.3.3 0 .6-.2.8-.5.1-.2.1-.3.2-.5 0-.1 0-.3.1-.4v-.4-.7c0-.5 0-1.1.1-1.6v-1.6c0-.6 0-1.1-.1-1.7 0-1-.1-2-.1-3.1-.1-1.1-.3-2.1-.4-3.2 0-.1 0-.3-.1-.4-.1-1.1-.2-2.1-.2-3.2v-1.6-.7c0-.4-.1-.8-.1-1.2 0-.2-.1-.3-.2-.4 0-.6.1-1.2.1-1.8 0-.2-.1-.5-.2-.6-.1-.2-.3-.3-.5-.3-.4-.2-.6-.1-.7.1"/><path fill-rule="evenodd" clip-rule="evenodd" fill="#161616" d="M265.3 275.3h0M257 272c-1.3 0-2.6 0-3.9.1-1.4.1-2.8.1-4.2.2l-8.1.3c-1.2 0-2.4.1-3.5.2-1.4.1-2.7.2-4.1.4-.9.1-1.8.2-2.7.4-1.2.2-2.4.4-3.6.7-.3.1-.6.3-.7.6-.2.4-.2.8-.2 1.1.1.3.3.6.6.8.3.2.6.2.9.1 1.2-.3 2.4-.5 3.6-.7.4-.1.8-.1 1.2-.2.4-.1.8-.1 1.2-.2 1.4-.1 2.8-.3 4.2-.4 1.2-.1 2.4-.1 3.6-.2 2.7-.1 5.3-.1 8-.3 2.2-.1 4.4-.2 6.6-.2h3.1c1 0 2 0 3 .1.6.1 1.1.2 1.7.3.6.1 1.2 0 1.8.1h.1c.5.1 1-.1 1.3-.6.1-.3.2-.6.1-.9-.1-.3-.3-.6-.5-.7-.3-.1-.5-.2-.8-.3-.2 0-.4-.1-.7-.1-.2 0-.4-.1-.6-.1-.6-.1-1.1-.2-1.7-.4-.7-.1-1.3-.2-2-.3h-1.9c-.6.2-1.2.2-1.8.2"/><g transform="translate(370 364)"><defs><filter id="a" filterUnits="userSpaceOnUse" x=".2" y=".2" width=".5" height=".6"><feColorMatrix values="1 0 0 0 0 0 1 0 0 0 0 0 1 0 0 0 0 0 1 0"/></filter></defs><mask maskUnits="userSpaceOnUse" x=".2" y=".2" width=".5" height=".6" id="b"><g filter="url(#a)"><path fill-rule="evenodd" clip-rule="evenodd" fill="#FFF" d="M.2.2h.5v.5H.2z"/></g></mask><path mask="url(#b)" fill-rule="evenodd" clip-rule="evenodd" fill="#161616" d="M.2.7L.7.2V.1C.4.3.3.5.2.7"/></g><path fill-rule="evenodd" clip-rule="evenodd" fill="#161616" d="M234.7 354.1l-.1.1.1-.1zm39.7-117.9l-1.8.3c-.4.1-.7.6-.6 1 .1.2.2.4.4.5.2.1.4.1.6.1.5-.1.9-.2 1.4-.2h.7c.1 0 .3.1.4.1h.2l.1.1c.1.2.2.3.3.5.1.3.2.5.2.8.1.3.1.6.2.9.1 1.3.1 2.7.1 4 0 .7-.1 1.3-.1 2s-.1 1.4-.1 2.1c-.1 1.4-.2 2.7-.4 4.1-.1 1.3-.3 2.7-.4 4-.2 2.5-.5 4.9-.8 7.4-.4 2.8-1 5.6-1.6 8.3-.7 2.8-1.3 5.5-2 8.3-.7 2.7-1.4 5.5-2.1 8.2-.2.6-.4 1.3-.5 1.9l-.3.9c-.1.3-.2.7-.3 1-.4 1.3-.9 2.6-1.4 3.9-1 2.7-2.1 5.4-3.1 8.2-.9 2.4-2 4.8-3 7.2-.5 1.2-1 2.4-1.6 3.5l-1.8 3.9c-.6 1.3-1.2 2.7-1.9 4-.6 1.2-1.3 2.5-1.9 3.7-.7 1.2-1.3 2.4-2 3.6-.7 1.2-1.4 2.5-2.1 3.7-.4.7-.8 1.3-1.2 2-.4.6-.8 1.3-1.3 1.9-.7 1.1-1.5 2.2-2.3 3.3-.7 1.1-1.5 2.2-2.2 3.2-.6.9-1.4 1.9-2.1 2.8-.8 1.1-1.7 2.1-2.5 3.2-.9 1.1-1.8 2.2-2.6 3.3-.8 1-1.6 2-2.4 3.1-.9 1.1-1.8 2.2-2.7 3.2-.9 1-1.8 2.1-2.7 3.1-.4.5-.9.9-1.3 1.4-.5.5-.9 1-1.3 1.6 0 .1-.1.1-.1.2-.3.5-.2 1.3.2 1.7.3.3.6.4 1 .4s.7-.2 1-.4c1.9-1.8 3.6-3.7 5.4-5.7.9-1.1 1.9-2.1 2.8-3.2.9-1.1 1.7-2.1 2.6-3.2.8-1.1 1.7-2.2 2.6-3.2.9-1.1 1.8-2.3 2.7-3.4.9-1.2 1.8-2.3 2.6-3.5.8-1.2 1.6-2.4 2.4-3.5 1.6-2.3 3.2-4.6 4.6-7l2.1-3.6c.8-1.4 1.5-2.7 2.3-4.1.6-1.2 1.2-2.4 1.9-3.6.6-1.3 1.2-2.6 1.8-3.8.6-1.3 1.2-2.5 1.8-3.8l1.8-4.2c.5-1.3 1.1-2.5 1.6-3.8.6-1.5 1.2-2.9 1.7-4.4.5-1.2.9-2.5 1.4-3.7.5-1.3 1-2.6 1.5-4 .2-.7.5-1.3.7-2 .1-.4.3-.8.4-1.2.1-.3.2-.5.3-.8.2-.7.4-1.5.6-2.2.2-.8.4-1.5.6-2.3.3-1.4.7-2.7 1-4.1.3-1.4.7-2.8 1-4.2.3-1.4.6-2.7.9-4.1.3-1.4.6-2.7.9-4.1.1-.6.2-1.2.4-1.9.1-.8.3-1.5.4-2.3.3-1.4.4-2.8.6-4.3.1-1.4.3-2.7.5-4.1.1-1.4.3-2.8.4-4.2.1-1.4.3-2.8.4-4.2.1-1.4.2-2.8.2-4.2v-1.6-1.7c-.7-.9-.9-2-1.1-3-.1-.5-.3-1-.5-1.5-.3-.6-.7-1.3-1.2-1.7-.4-.3-.8-.4-1.2-.5h-.5c-.3-.1-.5-.1-.7-.1z"/><g fill-rule="evenodd" clip-rule="evenodd"><path fill="#BEBEBE" d="M208.337 365.188l-.1.1c0-.1.1-.1.1-.1zm.5-4.5c-.5 0-1.1.1-1.6.2-.4.1-.8.3-1.2.5-.1.1-.3.2-.4.3-.2.2-.3.4-.5.6-.1.1-.2.3-.3.4l-.3.6c-.3-.2-.5-.4-.8-.5-.4-.3-1.1-.3-1.5-.2-.4.2-.9.5-1.1 1-.3.5-.3 1-.2 1.5.1.5.5.9.9 1.2 1 .7 2.1 1.5 3.1 2.2l1.5 1.2c.7.6 1.3 1.1 1.9 1.7 1.1 1.2 2.3 2.4 3.3 3.7.7 1 1.4 1.9 2 3 .6 1 1.1 2.1 1.6 3.2 1 2.6 1.9 5.3 2.8 7.9.4 1.3.9 2.7 1.3 4 .5 1.4.9 2.8 1.2 4.2.4 1.4.7 2.8.9 4.3.1 1.1.2 2.1.2 3.2v3.1c0 .5.3 1.1.6 1.5.5.5 1.3.7 2.1.5.5-.1 1-.5 1.3-1 .2-.3.3-.7.3-1.1 0-.3.1-.7.1-1v-1.5c0-.8 0-1.5.1-2.3v-4.3c0-1.5 0-3-.2-4.4-.1-1.6-.3-3.2-.5-4.7l-.3-2.1c-.1-.7-.2-1.5-.4-2.2-.2-.7-.3-1.5-.5-2.2-.1-.4-.2-.8-.4-1.2-.3-1-.7-2-1.2-2.9-.6-1.2-1.2-2.3-1.9-3.4v-.2c0-.2-.1-.3-.1-.5-.1-.3-.1-.6-.2-.9-.2-.6-.3-1.3-.6-1.9l-.6-1.8c-.2-.5-.4-1.1-.7-1.6-.4-.9-.9-1.7-1.5-2.5s-1.2-1.5-1.8-2.3c-.7-.8-1.5-1.4-2.3-2-.8-.5-1.6-.9-2.5-1.1-.5-.1-1.1-.2-1.6-.2z"/><path fill="#161616" d="M209.337 357.188c-.9.1-1.7.2-2.6.3-.6.1-1.3.3-1.9.5-.8.3-1.6.6-2.2 1.1l-1.2.9c-.2.3-.5.5-.8.8-.5.5-.9 1-1.4 1.6-.5.7-1.1 1.4-1.6 2.2-.3.6-.6 1.2-.9 1.9-.3.8-.7 1.5-1 2.3-.2.4-.3.8-.5 1.3-.1.4-.2.9-.3 1.3-.2.8-.4 1.7-.5 2.6-.1.7-.2 1.4-.2 2.2v1.9c0 1.5.1 3.1.3 4.6.1.8.2 1.6.4 2.4.1.4.1.7.2 1.1.1.3.2.7.3 1 .5 1.5 1.1 2.9 1.7 4.3l.9 1.8c.1.3.3.6.4.9.2.4.4.8.7 1.2.3.4.6.9 1.1 1.1.1 0 .1 0 .2.1.2.1.5 0 .7-.1.3-.2.4-.5.5-.8 0-.3-.1-.7-.1-1 0-.2-.2-.4-.4-.6-.1-.1-.2-.1-.3-.1-.5-1.5-.8-3-1.2-4.6-.4-1.4-.8-2.9-1-4.4-.2-1.7-.3-3.4-.3-5.1 0-1.7 0-3.5.2-5.2.1-.7.2-1.3.4-1.9l.3-1.2c.1-.5.3-.9.5-1.3.3-.8.7-1.5 1-2.3.4-.8.9-1.6 1.4-2.3.9-1.1 1.8-2.1 2.8-3 .2-.1.4-.3.7-.4.9-.3 1.8-.6 2.8-.8.9-.1 1.8-.2 2.7-.1.4.1.9.2 1.3.4.8.4 1.5.8 2.3 1.4.6.5 1.2 1 1.7 1.5.4.6.7 1.2 1 1.8.4.8.8 1.5 1.1 2.3.5 1.2.9 2.4 1.4 3.6.5 1.3 1.1 2.6 1.5 4 .2.7.4 1.4.6 2 .2.6.3 1.3.5 1.9.4 1.3.8 2.6 1.1 4 .3 1.2.5 2.4.7 3.6.3 1.2.5 2.5.8 3.7.3 1.2.5 2.5.7 3.7l.6 3.3c.1.8.2 1.7.2 2.5.1.8.2 1.7.3 2.5.1.9.2 1.7.3 2.6 0 .4.1.8.1 1.2v1.3c-.1.6.5 1.2 1 1.3.2.1.5.1.7 0 .3-.1.7-.3.8-.6.1-.3.2-.5.3-.8.1-.3.1-.6.1-.8v-.9c0-.7-.1-1.3-.1-2-.1-1.4-.2-2.7-.3-4.1-.1-.7-.1-1.5-.2-2.2l-.3-2.1c-.2-1.5-.4-3.1-.7-4.6-.2-1.4-.5-2.8-.7-4.2-.2-1.3-.4-2.7-.6-4-.1-.6-.2-1.2-.4-1.9s-.3-1.4-.5-2.1c-.4-1.3-.6-2.7-1-4-.4-1.4-.9-2.7-1.4-4.1-.5-1.4-1-2.7-1.6-4.1-.6-1.4-1.3-2.8-2-4.2-.2-.3-.3-.5-.5-.8l-.9-1.2c-.4-.4-.9-.8-1.4-1.2-.6-.5-1.3-1-2-1.5-.7-.4-1.4-.7-2.1-1-.2-.1-.5-.2-.8-.3-.5-.1-.9-.2-1.4-.3-.3 0-.6-.1-1-.1-.3.2-.7.2-1 .3"/><path fill="#161616" d="M213.437 379.188s-.1 0 0 0c-.1 0-.1 0 0 0-.1 0 0 0 0 0m-2.5-2.7c-.3.2-.7.6-.9.9-.1.2-.3.5-.3.8 0 .2-.1.4-.1.6 0 .4-.1.7-.1 1.1v.8c.1.9.1 1.9.2 2.8 0 1 .1 1.9.1 2.9 0 .9 0 1.8-.1 2.6-.1.5-.2 1-.4 1.5-.1.3-.3.5-.5.8-.4.5-.8.9-1.3 1.3-.7.5-1.4.9-2.1 1.2-.7.3-1.4.6-2.2.8h-.3c-.6-.1-1.1-.3-1.7-.5-.3-.1-.5-.2-.8-.4-.3-.2-.6-.4-.8-.6-.5-.4-1.3-.1-1.6.4-.2.3-.2.6-.1.9.1.3.3.5.5.7.3.2.7.5 1 .7l1.2.6c.6.1 1 .3 1.5.4.5.2 1.1.3 1.7.2.4 0 .8-.1 1.2-.2.6-.2 1.3-.4 1.9-.6.6-.2 1.2-.5 1.7-.8.6-.3 1.2-.8 1.7-1.2.5-.4.9-.8 1.3-1.3.3-.3.5-.7.7-1.1.2-.4.4-.9.5-1.3.2-.7.3-1.5.4-2.3.1-.8.1-1.5.1-2.3v-2.4-1 .1l.6 2.1c.4 1.4.8 2.7 1.2 4.1l.3.9c.1.4.3.8.4 1.2.2.6.4 1.3.5 1.9.3 1.4.6 2.8.8 4.2.1.5.1 1 .2 1.5.3 2.2.7 4.4 1 6.5.1 1.3.2 2.7.3 4 .1.7.1 1.5.3 2.2.1.5.3.9.5 1.3.3.4.7.8 1.1 1 .3.1.5.2.8.3.3 0 .6.1.9.1.4 0 .8-.1 1.2-.1.3-.1.6-.1.9-.3.3-.1.6-.3.9-.4.2-.1.4-.2.5-.4.4-.3.7-.6 1.1-.9.6-.5 1.1-1.1 1.5-1.7.7-.9.7-2.1.8-3.2 0-.3-.1-.6-.2-.9-.2-.4-.6-.7-1-.8-.4-.1-.9-.1-1.3.2-.4.2-.6.6-.8 1 0 .1-.1.2-.1.2-.1.1-.2.3-.3.4-.2.2-.4.5-.6.7l-1.5 1.5-.1.1c-.1.1-.2.1-.3.1-.2.1-.3.1-.5.1 0-.5 0-.9-.1-1.4 0-.7-.1-1.4-.1-2-.1-1.6-.4-3.2-.6-4.8-.1-.7-.3-1.4-.4-2.2-.1-.7-.2-1.4-.3-2-.2-1.4-.5-2.8-.8-4.1-.2-.7-.3-1.4-.5-2.1-.2-.7-.4-1.3-.6-2-.1-.3-.2-.6-.4-1-.1-.4-.2-.7-.4-1.1-.2-.7-.4-1.3-.6-2-.4-1.4-.9-2.7-1.4-4.1-.3-.8-.6-1.6-1-2.4-.4-.7-.9-1.5-1.5-2-.2-.2-.4-.3-.7-.4-.4-.2-.6-.2-1-.3h-.1c-.1.5-.6.7-1 .9"/><path fill="#161616" d="M213.537 415.488h-.4.4m-12.8-21.2c-.3.2-.5.4-.5.7-.1.3 0 .6.1.9.1.3.3.6.4.9.5 1.3.9 2.7 1.3 4 .2.7.4 1.4.5 2.1.2.7.4 1.4.6 2 .2.7.4 1.3.6 2 .2.7.4 1.4.5 2.1.2.6.3 1.3.6 1.9.3.7.5 1.3.8 2 .3.7.6 1.5 1 2.1.4.7.9 1.4 1.4 2 .2.2.4.5.6.7.4.4.8.7 1.2 1.1.6.5 1.4.6 2.1.8.5.1 1 .1 1.5.1.8 0 1.7-.2 2.5-.4.6-.1 1.3-.4 1.9-.6.8-.3 1.5-.6 2.2-.9.6-.3 1.2-.5 1.8-.8.7-.4 1.3-.8 2-1.2.8-.5 1.5-1.1 2.3-1.6.6-.4 1.1-.9 1.7-1.4.8-.7 1.3-1.6 1.9-2.4.4-.7.3-1.6-.3-2.1-.3-.3-.8-.5-1.3-.5-.4 0-1 .2-1.3.5-.3.3-.6.7-.9 1-.3.2-.6.3-.8.5-.3.2-.6.4-.9.7-.7.5-1.4 1-2.1 1.4-.7.5-1.4.8-2.1 1.2-.7.4-1.4.7-2.1 1-.7.3-1.3.5-2 .8-.8.3-1.6.5-2.5.7h-.9c-.2 0-.5-.1-.7-.2l-.1-.1c-.7-.6-1.4-1.3-2-2.1-.4-.6-.8-1.2-1.1-1.9-.4-.7-.8-1.5-1.1-2.2-.4-1.1-.8-2.1-1.2-3.2-.4-1.2-.9-2.3-1.2-3.4-.4-1.2-.8-2.3-1.1-3.5-.2-.7-.5-1.4-.7-2.1l-.9-2.1c-.1-.3-.4-.5-.7-.5h-.3c-.4-.2-.6-.1-.7 0M203.837 383.488c-.2 0-.4.1-.5.2-.2.1-.4.4-.6.6-.1.2-.3.4-.4.6-.1.2-.2.4-.3.7-.1.3 0 .7.1 1 .1.2.2.5.3.7l.3.3.2.2.2.2c.2.3.6.5.9.6.2.1.5.1.7.1.2.1.4.1.6.1.2 0 .4-.1.7-.2.2-.1.3-.2.4-.3.1-.1.2-.3.4-.4.1-.1.1-.2.2-.3l.3-.3c.1-.1.2-.3.3-.4.2-.5.4-1 .2-1.6-.2-.6-.7-.9-1.1-1.2-.5-.3-1-.4-1.5-.3h-.1c-.2 0-.4-.1-.5-.1h-.1c-.5-.2-.6-.2-.7-.2"/></g><path fill="none" stroke="#161616" stroke-width="3" d="M224 333c-5.5 7.1-9.2 12.1-11 15s-3.5 6.6-5 11"/><path fill-rule="evenodd" clip-rule="evenodd" fill="#FFF" d="M259 303l9-8h3v3l-2 2-1 1-1 3-1 4-3 6h-7z"/><path fill-rule="evenodd" clip-rule="evenodd" fill="#BEBEBE" d="M269 285l1 10-4 1v-9z"/><path fill-rule="evenodd" clip-rule="evenodd" fill="#FFF" d="M242 331h16l5-17h-9z"/><path fill-rule="evenodd" clip-rule="evenodd" fill="#161616" d="M292.6 383.3l.1-.5.1-.5v-.2-.2l.2-.2c.3-.4.5-.7.8-1.1.1-.1.2-.2.2-.4.1-.2.3-.4.4-.7l.1-.1c-.1.3-.2.6-.3 1-.1.4-.3.8-.4 1.1-.2.5-.6 1-.8 1.5-.1.1-.2.3-.3.4-.1 0-.1 0-.1-.1zm-58.6-63c1.1-.1 2.2-.3 3.3-.5.6-.1 1.2-.2 1.7-.3.5-.1 1-.2 1.6-.3l2.4-.6c.3-.1.6-.2.9-.2l.6-.1c.9-.2 1.8-.5 2.8-.7.7-.2 1.5-.4 2.2-.6.3-.1.7-.2 1-.3 1.1-.3 2.1-.5 3-.6.7-.1 1.5-.1 2.2-.2.3 0 .7-.1 1-.1.4 0 .8-.1 1.2-.1.7-.1 1.5-.2 2.2-.2H261.8c.5 0 1.1.1 1.6.1.7.1 1.3.1 1.8.1h1.3c-.1.2-.2.4-.2.6 0 .4.1.8.1 1.1v.9c0 .6.1 1.3.2 1.9v.1c.1.8.2 1.6.2 2.2.1.8.2 1.6.3 2.5.1.7.1 1.3.2 2 0 .3 0 .6.1.9 0 .5.1.9.1 1.3-.6-.1-1.2-.1-1.8-.1h-3c-1.5 0-3 0-4.1.1h-1.7c-1 0-2 .1-3 .1h-.4c-1.5 0-2.9 0-4.4.1-1.4 0-2.9.1-4.3.2h-.4c-.5 0-1 0-1.5.1-1 0-2 .1-2.9.1-.6 0-1.2.1-1.8.1-.9.1-1.9.1-2.8.2-1.7.1-3.1.2-4.3.4-.6.1-1.2.1-1.8.2h-.3c-.4 0-.8.1-1.2.1v-.3c0-.4-.1-.7-.2-1.1-.1-.2-.1-.5-.2-.7-.1-1 0-1.9.1-2.9v-.2c.1-1.3.2-2.6.3-4v-.3c1.1-.1 2.3-.3 3.4-.4l.9-.1c.7-.4 1.3-.4 1.9-.5zm35.5 7.3v-.6-.5c0-.4 0-.8-.1-1.1 0-.5-.1-.9-.2-1.4v-.2c-.1-.5-.1-1.1-.1-1.6v-.2c0-.4-.1-.8-.1-1.2v-.4c0-.3-.1-.6-.1-.9 0-.2-.1-.5-.1-.7-.1-.6-.1-1.2-.1-1.6 0-.3 0-.6-.1-.8v-.3c0-.2-.1-.3-.3-.5.5 0 1-.1 1.4-.2.2 0 .3 0 .5-.1-.1.2-.1.3-.1.5 0 1.4-.1 2.5-.1 3.6 0 1 0 1.9.1 2.8v.3c0 .3 0 .7.1 1v.1c.1.4.1.9.2 1.3v.3c0 .4.1.8.2 1.3 0 .2.1.3.1.5s.1.3.1.5l-.9.9-.2.2c-.2-.3-.2-.6-.2-1zm-46.8-25.1c-.2 0-.4-.1-.5-.1-.1 0-.2 0-.2-.1-.4-.1-.9-.2-1.4-.4-.1 0-.2-.1-.3-.2v-.4c.1-.4.1-.7.2-1l.1-.3c.1-.3.2-.7.3-1l.1-.5v-.2-.2c0-.1 0-.3.1-.4 0-.3.1-.7.1-1 .1-.7.2-1.4.3-2l.3-1.8v-.2c.1-.5.1-1 .2-1.5 0-.2.1-.4.1-.7 0-.2.1-.5.3-.7.2-.2.4-.2.6-.2.2 0 .3 0 .4.1.3.1.4.5.4.8V292.6c0 .4-.1.9-.1 1.3s-.1.8-.1 1.2c-.1.8-.2 1.7-.2 2.5v2.5c0 .4 0 .8.1 1.1 0 .2.1.4 0 .6-.1.2-.2.4-.4.5 0 .1-.2.2-.4.2zm-8.7-13h.3c.4 0 .9 0 1.3-.1h.8c.6 0 1.2-.1 1.8-.1.8-.1 1.5-.1 2.2-.2.2 0 .3 0 .5-.1 0 .5 0 1 .1 1.5 0 .8.1 1.6.2 2.5l-.6.9-.2.3c-.2.3-.4.6-.5.9-.2.4-.4.8-.7 1.3l-.6 1.5c-.1.2-.1.4-.2.6-.1.2-.2.5-.3.7-.2.4-.3.8-.4 1.3-.1.3-.1.6-.1 1 0 .2 0 .4.1.6 0 .3.1.4.2.6.1.2.2.4.4.6l.5.5c.3.2.7.4 1 .5h.1c.2.1.4.1.7.2l.2.1c.3.1.7.2 1 .2 1 .2 1.9.3 2.9.5h.2c.2 0 .3.1.5.1.3.1.7.1 1 .2.6.1 1.1.1 1.7.2 1 .1 2 .2 3.1.2.4 0 .8.1 1.3.1.6 0 1.1.1 1.7.1 1.2 0 2.2.1 3.2.1 1.1 0 2.2 0 3.2-.1.3 0 .6 0 .9-.1h.4c.5 0 1.1-.1 1.6-.1 1 0 2-.1 3-.1h.3c.7 0 1.4 0 2-.1h1c.9 0 1.9-.1 2.9-.2.5-.1 1.1-.2 1.7-.3.4-.1.9-.2 1.3-.4.9-.3 2-.6 2.9-1.1.6-.3 1.2-.6 1.7-.9.2-.1.5-.3.7-.4l.2-.1c.3-.2.7-.4 1-.6.4-.3.8-.6 1.3-1 .6-.5 1.2-1 2-1.8l.3-.3c.4-.4.8-.8 1.3-1.2.3-.2.6-.4 1-.7.3-.2.6-.3.9-.5.4-.2.7-.3 1.1-.3v.2c.1.2.2.4.4.7-.5.6-1 1.2-1.6 1.8l-.3.3c-.2.2-.4.4-.6.7-.1.2-.3.4-.4.6v.1c-.1.2-.2.4-.2.6 0 .1 0 .2.1.3.1.1.1.2.2.4.2.2.6.3.9.3h.4c.2 0 .5 0 .8-.1.2-.1.5-.1.7-.2.1 0 .3-.1.4-.1.1 0 .2-.1.4-.1.3-.1.5-.2.8-.2.1 0 .2 0 .4-.1s.5-.1.7-.1h.5v.7c-.1.2-.2.4-.3.5l-.3.3c-.3.2-.6.4-.8.5-.5.2-1 .3-1.6.5-.5.1-1 .2-1.7.3-.3 0-.5.4-.5.6 0 .2.1.3.2.5.1.1.3.2.5.2h.8c.3 0 .6-.1.9-.1.5-.1.9-.2 1.4-.4.2-.1.4-.1.5-.2v.6c0 .1-.1.2-.1.3 0 .1-.1.2-.1.2l-.4.4c-.6.4-1.2.7-1.8.9-.2.1-.5.2-.7.2l-.2.1c-.2.1-.5.2-.8.2h-.1c-.3 0-.5.2-.6.5 0 .2 0 .4.1.5.1.1.2.2.4.3.2 0 .3.1.5.1s.3 0 .5-.1c.1 0 .3-.1.4-.1l.9-.3c.2-.1.5-.2.7-.3h.1c.3.1.6.1.8.2-.1.1-.1.2-.2.3-.7.5-1.4.8-2.2 1.2-.4.2-.8.3-1.2.5l-.3.1c-.1 0-.3.1-.4.1h-.1c-.2.1-.3.1-.5.2s-.3.2-.5.3c-.1.1-.2.3-.3.5-.1.3.1.7.4.9.1.1.3.1.4.1.2 0 .4-.1.6-.2.2-.1.4-.1.5-.2.1 0 .3-.1.4-.1.1 0 .2-.1.3-.1.2-.1.4-.1.6-.2.3-.1.6-.2.9-.4.1.2.4.3.6.3h.5c-.1 0-.1.1-.2.1-.2.2-.4.3-.6.4-.2.1-.5.2-.7.4-.4.2-.8.3-1.3.5-.1 0-.2.1-.3.1h-1.2c-.4 0-.9 0-1.3-.1-.5 0-1.1-.1-1.6-.2l-.7.2c-1-.2-2.1-.3-3.1-.3h-.4c-1 0-2 .1-3 .2h-.1c-.5.1-1 .1-1.5.1h-.8c-.4 0-.8.1-1.2.1-.6.1-1.3.2-2 .3-.6.1-1.1.3-1.6.4-.7.2-1.5.4-2.3.6-.4.1-.7.2-1.1.3-.3.1-.6.2-.9.2-.3.1-.5.2-.8.2-.3.1-.6.2-.9.2-.3.1-.5.1-.8.2-.3.1-.6.2-1 .3-.8.2-1.5.4-2.3.6-.6.1-1.2.3-1.9.4l-1.5.3c-1.5.3-3.1.6-4.5.8l-2.1.3c-.9.1-1.9.3-2.8.4-1.2.1-2.3.3-3.5.4-.6.1-1.1.1-1.7.1H215c-.6 0-1.1 0-1.7-.1h-.6c-.1 0-.3 0-.4-.1-.3-.1-.7-.1-1-.2l-.3-.1c-.6-.1-1.3-.3-1.9-.4h-.4c-.3-.1-.5-.2-.8-.4-.3-.2-.5-.4-.8-.5l-.2-.2c-.5-.4-1-.8-1.4-1.2l-.2-.3c-.2-.3-.5-.6-.7-.9-.3-.4-.5-.8-.7-1.2-.2-.7-.4-1.4-.6-2.3-.2-.9-.3-1.7-.4-2.6-.1-.8-.2-1.6-.2-2.6 0-.9 0-1.7.1-2.7.1-.9.1-2 .1-3.1 0-1 .1-1.8.2-2.6.1-.5.1-.9.2-1.4.2-1.1.3-2.2.4-3.2.1-.5.1-1 .2-1.6.1-.8.3-1.5.5-2.6l1.5.1h.2c1.4.1 2.8.2 3.9.3.6 0 1.2 0 1.9.1h.3c.8.4 1.3.4 1.8.3zm76.4 71.8l-.1-.4c-.1-.4-.1-.7-.2-1.1l-.3-1.5-.3-2.1c-.1-.7-.2-1.3-.3-2-.1-.6-.1-1.3-.2-1.9 0-.4-.1-.8-.1-1.1 0-.4-.1-.8-.2-1.3.2-.3.4-.6.4-1 0-1.4 0-2.5-.1-3.5 0-.3 0-.5-.1-.8 0-.2 0-.5-.1-.7 0-.5-.1-1-.1-1.5-.1-.9-.2-1.9-.3-3.1 0-.5-.1-1.1-.2-1.6 0-.3-.1-.6-.1-.9 0-.4-.1-.7-.1-1.1v-.5c0-.3-.1-.5-.1-.8l-.1-.4c-.3-2-.6-4-1.1-6.3-.2-1-.4-2-.7-3-.3-1.1-.5-2.1-.8-3-.3-1.1-.7-2.1-1-3l-.1-.4c-.1-.4-.3-.8-.4-1.3l-.1-.5c-.1-.3-.2-.7-.3-1-.3-1-.6-2.1-1-3.1-.3-.8-.6-1.8-1-2.9-.2-.5-.3-1.1-.5-1.7l-.3-1.5c-.1-1.1-.2-2.1-.2-3.1v-1.6-1.6-3.2-3.3c0-.3 0-.6.1-.9v-.6-.6c0-.3 0-.6.1-.9 0-.3 0-.6.1-.9 0-.2 0-.5.1-.7 0-.3 0-.6.1-.8 0-.2 0-.5.1-.7v-.7.2c.1.5.3 1.1.4 1.6.3 1.2.5 2.1.8 3.1.1.6.3 1.3.4 1.9.1.4.2.8.3 1.1.2 1 .5 2 .7 3l.1.5c.2.9.5 1.8.7 2.7.1.2.1.4.2.6.1.3.1.5.2.8.1.6.3 1.2.4 1.7.2.9.4 1.8.6 2.6l.1.5c.2.8.4 1.9.6 3 .1.4.1.8.2 1.2.1.6.2 1.2.3 1.9.2 1.2.4 2.3.6 3.3.1.5.1 1 .2 1.5l.1.4c.1.4.1.8.2 1.2.1.6.2 1.1.4 1.7.1.3.1.5.2.8 0 .2.1.4.1.6v.1c.3 1.4.7 2.8 1 4.2.3 1.3.5 2.6.7 4.1.2 2 .5 4 .7 6.2.2 2.2.4 4.4.5 6.5v2.2c0 .3 0 .6.1.9.1 1.1.1 2.2.1 3.3V356.3c0 .8-.1 1.5-.2 2.3-.1.4-.1.7-.2 1.1-.1.3 0 .6.1.8 0 0 0 .1.1.1-.2.3-.3.6-.5.9-.2.2-.4.4-.5.6l-.2.2c.2-.2.1-.6 0-1zm-6.7-74.7c1.1-.3 2.1-.6 3.2-.8.5-.1 1-.2 1.5-.4.2-.1.5-.1.7-.2 1.3-.3 2.7-.5 4.5-.8.8-.1 1.5-.1 2.3-.2.4 0 .7-.1 1.1-.1h.5c.4 0 .7-.1 1.1-.1l.1.3.1.3c.3 1.3.5 2.7.7 3.9l.6 3.9c.2 1.2.3 2.4.5 3.6.1.8.2 1.5.3 2.3.1.4.1.9.2 1.3v.1c.1.8.2 1.5.3 2.3.1 1.1.2 2.1.3 3.2.1.7.1 1.3.2 2l.3 3.3c.2 1.8.4 3.8.5 5.8 0 .5.1 1 .1 1.4.1 1.3.2 2.7.3 4.1.2 1.8.3 3.7.5 5.7 0 .6.1 1.1.1 1.7 0 .4 0 .8.1 1.1v.1c0 .9.1 1.7.1 2.6.1 1.9.1 3.8.1 5.6v3.1c0 .8-.1 1.7-.1 2.5v.1c-.1 1.2-.1 2.5-.2 3.7 0 .7-.1 1.4-.1 2.2-.1 1.8-.2 3.7-.4 5.7-.1 1-.1 2-.2 3-.1.8-.1 1.7-.2 2.5-.1 1.1-.2 2.3-.3 3.4-.1.7-.1 1.4-.2 2.1-.2 1.9-.3 3.4-.5 4.9-.2 1.4-.5 2.8-.9 4.2-.1.3-.2.7-.2 1-.1.6-.3 1.3-.4 1.9-.1.4-.2.8-.3 1.1-.1.5-.2.9-.4 1.4-.1.4-.2.7-.4 1-.2.4-.3.8-.5 1.2-.2.5-.4.9-.6 1.2-.3.3-.5.6-.8.9-.2.3-.5.5-.7.8l-.2.2c-.2.2-.3.4-.5.6-.2.3-.5.5-.7.7-.2.2-.4.4-.6.5-.3.3-.7.6-1 .9-.5.4-.9.8-1.4 1.2-.5.4-1.1.7-1.8 1-.4.2-.8.3-1.2.3h-.7c-.2 0-.4-.1-.6-.1-.1 0-.1-.1-.2-.1.1-.2.2-.3.3-.5.4-.5.9-1 1.4-1.5.5-.5 1-.9 1.5-1.3l.3-.2c.7-.6 1.3-1.1 1.9-1.7.6-.6 1.1-1.3 1.7-2.2.2-.3.4-.5.6-.9.3-.4.5-.9.6-1.3.4-1 .7-2 .5-3.1 0-.2-.1-.4-.2-.6-.1-.2-.2-.4-.3-.5-.3-.3-.6-.5-.9-.5h-.4c-.6 0-1.3.3-1.8.8-.3.3-.5.6-.7.9l-.1.2c-.2.3-.5.7-.7 1-.3.4-.5.7-.8.9-.2.2-.5.3-.8.5-.5.2-.9.3-1.4.4h-.1c-.1-.2-.1-.4-.2-.7 0-.5.1-.9.1-1.4.1-.4.1-.9.3-1.5.1-.4.3-.8.4-1.2l.1-.3c.2-.7.5-1.4.7-2.1l.3-.9c.4-1.2.6-2.4.8-3.7.1-.5.1-1.1.2-1.6 0-.5.1-1.1.2-1.6s.2-.9.3-1.3c.1-.3.3-.6.5-.8.1-.1.2-.3.3-.4l.3-1.5c.1-.8.3-1.5.5-2.3.3-1.4.6-2.8.8-4.3v-.2c0-1.1 0-2.2-.1-3.4 0-.3.2-.6.4-.7v-.1-.9c0-1.3 0-2.6-.1-3.9v-.3c0-1-.1-2-.1-3s-.1-2.1-.2-3.4c0-.3 0-.5-.1-.8 0-.2 0-.4-.1-.7 0-.5-.1-1.1-.1-1.6s-.1-1-.1-1.5c-.1-.6-.1-1.1-.2-1.7-.1-1.2-.2-2.3-.3-3.4-.1-.5-.1-.9-.2-1.4l-.1-.5c-.1-.4-.1-.9-.2-1.4-.4-2.3-.9-4.5-1.4-6.3-.3-1.1-.5-2.2-.7-3.2-.1-.6-.2-1.3-.3-1.9-.1-.5-.2-.9-.2-1.4-.1-.7-.2-1.3-.4-1.9-.1-.4-.2-.7-.2-1.1-.2-1.1-.4-2.1-.6-3-.5-2.1-1-4.2-1.6-6.3l-.6-2.1-.3-.9c-.2-.8-.5-1.7-.7-2.5l-.1-.4c-.3-1.1-.6-2.2-.8-3.3-.1-.3-.1-.6-.2-.8-.1-.2-.1-.4-.2-.6-.1-.3-.2-.7-.3-1l-.1-.4c-.2-.9-.5-1.9-.8-2.8l-.1-.5c-.1-.2-.1-.5-.2-.7.2.1.4.1.6.1.2.1.4 0 .5 0zm-46.4 17.3c-1.1 0-2.1-.1-3.2-.1-.6 0-1.1-.1-1.7-.1-.4 0-.8-.1-1.3-.1-1.1-.1-2.1-.2-3.1-.3-.3 0-.7-.1-1-.1-.5-.1-1-.2-1.5-.2v-.3-.6c0-.3 0-.6-.1-.9v-.1c.1-.5.2-1 .2-1.6v-1.2c0-.6-.1-1.3-.1-1.9v-.1c-.1-1.4-.2-2.8-.4-4.2 0-.3-.1-.6-.1-.9 0-.4-.1-.7-.1-1.1-.1-.6-.2-1.4-.2-2.2v-.6c.2-.3.3-.5.5-.8.1-.3.2-.7.2-1.1v-.2c0-.3.1-.6 0-.8 0-.4-.1-.8-.1-1.3-.1-.8-.1-1.5-.1-2.3v-.9c0-1.9 0-3.8.2-5.8.1-.6.2-1.2.3-1.7.1-.3.1-.7.2-1 .7-.1 1.3-.2 2-.3h.4c.3 0 .5-.1.8-.1h.4c2.1-.3 4.2-.5 6.2-.7l1-.1c.6-.1 1.2-.1 1.8-.2.5-.1 1-.1 1.5-.2.8-.1 1.6-.2 2.4-.2.4 0 .9-.1 1.3-.1 1.1-.1 2.3-.2 3.6-.3h.6c.9-.1 1.9-.1 2.8-.2 1.3-.1 2.5-.1 3.8-.1 1.1 0 2.3-.1 3.5-.1 1.4-.1 2.6-.1 3.8-.1h1.4c.7 0 1.3 0 1.9.1.2 0 .5.1.7.1.1 0 .2 0 .4.1.1 0 .3 0 .4.1.1.2.3.5.4.8.1.3.2.6.3 1.1.1.5.2.9.3 1.3 0 .3.1.7.2 1 0 .5.1 1.1.1 1.6 0 .7 0 1.4.1 2 0 1.1 0 2.3.1 3.4V281.9c0 .3 0 .6.1 1v.9c.1 1.1.1 2.2.2 3.3.1.8.1 1.6.2 2.4 0 .6.1 1.3.1 1.9.1.7.1 1.5.4 2.3l.1.3c.1.2.1.4.2.6-.2 0-.4.1-.6.1-.5.1-1 .3-1.4.5h-.1c-.4.2-.8.4-1.2.7-.5.3-.9.7-1.3 1-.3.3-.6.5-.8.8-.7.7-1.4 1.4-2.2 2-.3.2-.6.5-1 .7-.3.2-.7.4-1.1.6l-.2.1-.6.3-1.8.9c-.8.3-1.7.6-2.5.8-.3.1-.5.1-.8.2-.2 0-.4.1-.6.1-.4.1-.8.2-1.3.2-1 .1-1.9.2-2.7.3h-.6c-.8 0-1.6.1-2.4.1h-.6c-.9 0-1.7 0-2.6.1-.5 0-1.1.1-1.6.1h-.4c-.3 0-.6 0-.9.1H237.3c.2-.4.1-.4 0-.4zm17.4-53.6l3-.3c1-.2 1.8-.3 2.5-.5.6-.1 1.2-.3 1.9-.4l.3-.1c1.6-.4 2.9-.7 4.3-1.1.7-.2 1.4-.5 2.1-.9.5-.3 1-.7 1.5-1.1l.1-.1c.6-.5 1.1-1.2 1.5-1.8.1-.1.2-.2.2-.3l.1-.1c.3-.3.6-.7.8-1.1.2-.3.3-.6.4-.9v-.2l1.2.6c.6.3 1.2.4 2 .6.3.1.5.1.8.2.2 0 .4 0 .6.1l.9.2c.4.1.8.2 1.3.3.9.2 1.9.5 3 .9.3.1.6.3.8.4l.1.1c.1.1.2.2.3.2.2.1.3.1.5.2.6.2 1.1.4 1.7.6.7.3 1.2.6 1.7.9.1.1.3.2.4.3.5.4 1 .8 1.4 1.2l.5.5.9.9c.6.6 1.1 1.2 1.6 1.9l1.2 1.8.1.1c.3.6.7 1.1 1 1.7.3.6.6 1.2.9 1.7 0 .1.1.2.1.3.2.4.3.7.5 1.1.1.3.2.6.4.8l.1.2.1.2v.2l.1.1.6 1.4.2.7c.6 1.9 1.1 3.8 1.6 5.7.1.4 0 .8-.2 1.2 0 0 0 .1-.1.1l-.3.3h-.1v.2l.3.9c.1.3.2.7.4 1 .2.5.4 1 .5 1.6.3.7.5 1.5.8 2.2.1.2.1.4.2.5l.1.2v.6c.1.8.3 1.7.5 2.6 0 .1.1.2.1.3 0 .1-.1.2-.1.3-.2.4-.6.6-.9.7-.1 0-.3.1-.4.1-.1 0-.3 0-.4-.1-.1 0-.1 0-.2-.1-.1 0-.2-.1-.3-.1h-.2c-.5.1-1 .1-1.5.2h-.2c-1 .1-2.1.3-3.1.4-.8.1-1.4.2-2.1.3-.6.1-1.2.2-1.7.3h-.1c-1.2.2-2.5.5-3.7.8-1.5.3-2.9.7-4.3 1.1-.3.1-.7.3-.9.6-.2-.8-.4-1.5-.6-2.1-.1-.2-.1-.3-.2-.5s-.1-.3-.2-.5c-.1-.8-.2-1.6-.3-2.3-.1-.4-.1-.9-.3-1.3-.1-.4-.2-.9-.4-1.3-.1-.3-.2-.6-.3-1l-.1-.2c-.1-.2-.2-.4-.2-.6l-.2-.9-.2-.8c0-.2-.2-.4-.4-.5v-.1c0-.1-.1-.2-.1-.3 0-.1-.1-.3-.1-.4v-.1c0-.1-.1-.3-.1-.4 0-.1-.1-.1-.2-.1h-.1c-.2.1-.3.2-.3.4-.1.2-.1.4-.1.6v.8c-.1.2-.1.4-.1.6.3 1.3.6 2.6.8 3.9v.3c.1.8.2 1.7.2 2.5v4.3c0 .4 0 .8-.1 1.3v.2c-.1.8-.1 1.7-.2 2.6-.1.8-.2 1.5-.3 2.2-.1.8-.2 1.5-.3 2.3l-.1.4c-.1.4-.1.8-.2 1.2-.1.6-.1 1.2-.1 1.7-.1 1.1-.1 2.2-.2 3.3 0 1.1-.1 2.2-.1 3.2v3.2c0 1.2.2 2.4.3 3.7.1.5.1.9.3 1.4.1.5.3 1 .4 1.5.2.8.5 1.7.8 2.5l.1.4c.4 1.1.7 2.2.9 3.1l.1.2c.1.5.3.9.4 1.4l.2.5c.1.3.2.7.3 1 .3.9.6 1.9.9 3 .5 1.9 1.1 4 1.6 6 .2.7.4 1.5.5 2.3 0 .2.1.4.1.7.1.6.2 1.1.3 1.7.2 1.4.5 2.9.7 4.4.1.5.1 1 .2 1.5 0 .3.1.6.1.9 0 .3.1.6.1 1 .1.5.1 1 .2 1.5 0 .4.1.8.1 1.2 0 .4.1.9.1 1.3 0 .6.1 1.1.1 1.7h-.5c-.5.1-.9.3-1.3.4l-.2.1c-.5.2-1 .3-1.4.4h-.1c-.6.2-1.2.3-1.8.4-.5.1-.9.2-1.4.4-.8.2-1.8.4-2.8.6-1 .2-2 .3-3.2.5-.9.1-1.9.2-2.9.4-.5.1-.9.1-1.4.2-.3.1-.7.1-1 .2-2.7.3-5.5.5-8.6.7-1.4.1-3 .1-4.6.3-.2 0-.5 0-.7.1-1.1.1-2.2.2-3.3.2h-.5c-1.4 0-2.5-.1-3.5-.2-.8-.1-1.7-.1-2.5-.1h-1.3c-2.1-.1-4.2-.4-6.2-.6l-.9-.1c-1.4-.2-2.6-.4-3.6-.7-.1 0-.3-.1-.4-.1-.5-.1-1-.2-1.5-.4s-1-.4-1.6-.6l-.6-.3c-.8-.3-1.6-.7-2.3-1l-.6-.3c-.4-.2-.8-.4-1.1-.5l-.3-.1c-.7-.4-1.3-.7-2-1.1-.2-.1-.4-.2-.7-.2.1-.3 0-.7-.1-.9.1-.4.3-.8.4-1.1v-.1c.3-.8.6-1.5.8-2.2 1.3-3 2.2-5.6 2.8-8 .1-.2.1-.4.2-.6.1-.3.2-.6.2-.9.3.5.8.7 1.3.9.4.2.9.2 1.4.2H228.6c.3 0 .6 0 .9-.1h.3c.3 0 .6 0 .9-.1.4 0 .8-.1 1.2-.1.8-.1 1.7-.1 2.5-.1 1.4-.1 3-.2 4.5-.2.6 0 1.3 0 1.9-.1.8 0 1.6-.1 2.5-.1.8 0 1.6 0 2.3-.1.8 0 1.6-.1 2.5-.1 1.6 0 3.3-.1 4.6-.1 1.9 0 3.9-.1 5.8-.1 1.1 0 2.3-.1 3.4-.1H265.1c.9 0 1.9 0 2.8-.2.1 0 .2 0 .3-.1.2.1.3.1.5.1s.3 0 .5-.1c.1-.1.2-.1.3-.2.1-.1.2-.2.2-.3 0-.1.1-.1.1-.2.2-.2.3-.4.5-.6.2-.2.4-.4.7-.6.4-.3.9-.7 1.3-1.1.3-.4.6-.8.6-1.4v-.7c-.1-1.2-.2-2.3-.3-3.5-.1-.4-.1-.9-.2-1.4-.1-.6-.1-1.3-.1-1.9v-4.1c0-.3-.1-.6-.4-.9.1 0 .3-.1.4-.1.3-.1.5-.2.6-.5.2-.3.2-.6.1-.8-.1-.3-.3-.5-.5-.6h-.1c.4-.3.6-.6.6-1 .1-.3 0-.6-.1-.8-.1-.1-.1-.2-.2-.3-.1-.1-.2-.2-.3-.2-.1 0-.2-.1-.2-.1.4-.2.6-.4.9-.7.3-.3.4-.5.5-.7.1-.3.2-.6.1-.8 0-.1 0-.2-.1-.3-.1-.2-.2-.3-.3-.4-.2-.2-.4-.3-.6-.4.2-.2.4-.5.6-.7.1-.3.2-.5.3-.9v-.9c0-.2-.1-.4-.1-.6.4-.3.8-.7 1-1.2.2-.3.2-.6.3-.9v-.7c0-.3-.1-.6-.3-.8-.2-.2-.4-.4-.8-.5-.1 0-.3-.1-.4-.1-.2 0-.5 0-.7.1-.2 0-.4.1-.7.2-.2.1-.4.1-.6.2-.2.1-.5.1-.7.2-.5.2-.9.3-1.2.4-.2.1-.4.1-.6.1h-.2l.8-.8c.3-.3.7-.6.9-.9 0 .2.2.4.4.4s.4-.2.4-.4-.2-.4-.4-.4h-.1c.3-.3.6-.7.8-.9.2-.3.4-.5.4-.8.1-.3.1-.7.1-1 0-.4-.1-.7-.3-1-.1-.1-.2-.2-.3-.4v-.2c.1-.5.2-1.1.2-1.7v-1.1-.9c0-1.3-.1-2.7-.3-4.4v.1c-.1-1.1-.2-2.3-.3-3.3 0-.3-.1-.6-.1-.9 0-.2 0-.5-.1-.7 0-.6-.1-1.1-.1-1.7v-.1c-.1-1.1-.1-2.2-.2-3.4 0-.6-.1-1.2-.1-2 0-.2 0-.4-.1-.6v-.4c0-.3-.1-.5-.1-.8v-.2c-.1-.5-.2-1.1-.3-1.6-.1-.6-.3-1.1-.5-1.7-.1-.4-.3-.7-.5-1.1-.1-.4-.4-.8-.8-.9-.1 0-.1-.1-.2-.1h-.3-.1c-.2 0-.4-.1-.6-.1-.2 0-.4-.1-.7-.1-.7-.1-1.3-.2-1.8-.2h-1.7.4-1.8c-.8 0-1.5 0-2.3.1h-5.1c-2.4 0-4.8.1-7 .3-1.2.1-2.3.2-3.7.3-.4 0-.7.1-1.1.1-.8.1-1.6.1-2.4.2-1.4.1-2.8.3-4.2.4-1 .1-2 .2-2.9.3h-.5c-.4 0-.9.1-1.3.1l-1.1.1H228.9c-.1.1-.1.1-.2.1-.4.2-.8.3-1.3.2-.6-.2-1.1-.7-1.2-1.3-.1-.3-.1-.7-.1-1v-2.7c-.1-.3-.1-.6-.1-.9v-.3 1.1h-.3c-.3 0-.6.1-.9.2-.3.1-.5.4-.6.6-.1.8-.3 1.7-.4 2.6v.3l-.1-.3c-.1.5-.1 1-.2 1.5 0 .3-.1.6-.1 1-.1.8-.1 1.6-.2 2.4 0 .3 0 .6-.1.9 0 1.1-.1 2.2-.1 3.2 0 .3 0 .6-.1.9-.1.8-.1 1.6-.1 2.4v2.1c0 .2 0 .6-.1.9-.1.4-.2.7-.5.9-.1.1-.3.2-.4.3l-.2.1-.2.1c-.2.1-.4.1-.7.1v.4c-.3.1-.6.1-.9.2-1.1.1-2.1.2-3.4.3-.3 0-.5 0-.8.1-1 .1-2.1.2-3.1.2h-4.1c-1.1 0-2.2-.1-3.1-.2v-.1l.1-.3h-1.5c-.5 0-1-.1-1.5-.2-.1-.2-.3-.2-.4-.2 0 .1 0 .2-.1.2v.2c-.2 0-.5-.1-.7-.1-.6-.1-1.2-.1-1.7-.3.1-.4.3-.8.4-1.2l.3-.9.1-.2c0-.3 0-.5.1-.7.1-.3.3-.7.5-1.1 0-.1.1-.1.1-.2.1-.2.2-.3.3-.5.2-.3.3-.6.5-.9l-.1-.1c.3-1 .6-1.9.9-2.7.3-.8.7-1.7 1-2.5l.2-.4v-.1c.1-.3.2-.6.4-.8.1-.2.2-.5.2-.7.2-.7.5-1.3.7-1.9.2-.5.4-1 .6-1.6 0-.1.1-.2.1-.4.3-1 .7-2 1.1-3 .1-.3.2-.7.4-1 .6-1.5 1.1-2.9 1.7-4.3.5-1.3 1.2-2.8 1.8-4.2.4-.8.8-1.7 1.3-2.7.1-.2.1-.4.2-.7 0-.2.1-.4.1-.5.1-.5.2-1 .4-1.5.1-.3.3-.5.4-.8.3-.3.6-.7.9-1.1l.2-.2c.2-.2.3-.4.5-.6.2-.2.3-.3.5-.4.4-.3.9-.6 1.3-.8.1-.1.3-.1.4-.2.3-.2.6-.3.9-.5.2-.1.5-.2.7-.3.8-.3 1.9-.7 2.9-.9h.8c.4 0 .7 0 1.1.1.3 0 .5.1.8.1.3 0 .5.1.8.1.7.1 1.5.2 2.3.3h1.2c1.1 0 2.2-.1 3.3-.3h.2c.3 0 .6-.1.8-.1.5-.1 1.1-.3 1.7-.6.3-.1.6-.3.8-.5v.2c.1.4.3.7.6 1 .6.8 1.4 1.5 2.3 2.1.4.3.9.5 1.4.7.7.3 1.3.6 2 .8.9.4 1.8.6 2.8.9l.2.1c1.1.3 2.2.6 3.3.8 1.2.2 2.4.3 3.6.4h1.3c.4-.1 1.1-.1 1.9-.2zm6.2-34.6c-.2 1.1-.4 2.1-.4 3 0 .4-.1.9-.1 1.3v1.4c.1 1.7.4 3.3.9 4.8.1.3.2.5.3.8.2.5.4 1.1.6 1.6.3.8.6 1.5 1.1 2.4.3.6.6 1.1.9 1.7.1.2.2.4.3.5.4.7.8 1.4 1.4 2.1.3.4.6.8 1 1.2l.9.9.1.1c.4.4.8.7 1.2 1l.2.1c.2.2.4.3.7.5.2.1.3.2.5.3l.1.1.1.1-.2.1-.1.1c-.2.1-.3.3-.4.5-.2.2-.4.5-.7.7-.1.2-.3.3-.4.5-.5.5-.9.9-1.3 1.2-.5.3-.9.6-1.3.8-1.4.5-2.9.8-4.3 1.2l-.5.1c-.7.2-1.4.3-2.3.5-.7.1-1.4.3-2.4.4h-.2c-.6.1-1.1.1-1.7.2-.7.1-1.4.1-2.1.1-1.1 0-2.2-.1-3.5-.2-1.2-.2-2.3-.4-3.4-.7-1-.3-2.2-.6-3.4-1.1-.7-.3-1.5-.7-2.3-1.2l-1.2-1.2c-.2-.3-.6-.5-1.1-.6.3-.4.6-.7.8-1.1.4-.6.7-1.3.9-1.9.3-.8.6-1.5.8-2.2.5-1.4.8-2.8 1.1-4.1.3-1.6.4-3 .5-4.5v-1.6-.6-2-4.2c0-.3-.1-.5-.3-.7-.2-.2-.5-.3-.8-.3-.6 0-1 .5-1.1 1 0 1.1 0 2.2-.1 3.3v4.1c0 .8-.1 1.5-.2 2.2-.2 1.4-.5 2.7-.8 3.9-.4 1.4-.8 2.7-1.4 4.1-.2.5-.4 1-.7 1.4-.3.5-.6.9-.9 1.4-.6.7-1.2 1.3-2 2-.3.2-.7.4-1.1.6-.7.2-1.4.4-2.2.5-.7.1-1.5.2-2.2.2h-.2c-.8 0-1.6-.1-2.4-.2-.3 0-.6-.1-1-.2-.9-.2-1.9-.3-2.8-.3-.7 0-1.5.1-2.2.3-.4.1-.8.2-1.1.4-.2.1-.4.1-.6.2-.1 0-.2 0-.2.1-.2.1-.4.1-.5.2-.3.1-.7.3-1.1.5-.2.1-.4.2-.6.4l-.2.1c-.2.1-.3.2-.5.3-.1.1-.2.1-.4.2s-.5.3-.7.5c-.3.2-.6.5-.9.8-.5.5-.9 1-1.3 1.4l-.1.1c-.5.5-.9 1-1.2 1.7-.3.6-.5 1.3-.7 1.9-.3.5-.5.9-.6 1.2-.3.7-.6 1.4-.9 2.2l-.1.2c-.2.5-.3 1-.5 1.4-.2.5-.3 1-.5 1.6-.4 1.1-.8 2.1-1.2 3.2-.5 1.2-1.1 2.3-1.6 3.4-.3.6-.6 1.2-.8 1.8-.3.6-.5 1.3-.8 1.9-.5 1.1-.9 2.2-1.4 3.1-.2.4-.4.9-.6 1.3-.3.6-.5 1.2-.8 1.8 0 .1-.1.2-.2.3-.2.5-.4.9-.6 1.4-.2.5-.3 1.1-.4 1.7 0 .2-.1.4-.1.7-.1.2-.2.5-.2.7-.2.5-.4 1.1-.6 1.6l-.1.2-.1.2c-.1.2-.3.6-.4.9v.1l-.1.1c-.2.4-.4.9-.5 1.4-.2.5-.3 1-.3 1.5 0 .4 0 .9.3 1.4 0 .2.1.5.2.6l.1.1.1.1c.1.2.3.4.6.6.3.2.7.4 1.1.5l-.1-.1c.5.2 1 .3 1.6.4.4.1.8.1 1.3.2 0 .2-.1.4-.1.6 0 .2-.1.5-.1.7v.3c-.1.5-.1 1-.2 1.4-.1.5-.1.9-.1 1.4 0 .3 0 .5-.1.8l-.1.9-.3 3c-.1 1-.1 2.1-.2 3.1v1.2c0 .4 0 .7-.1 1.1-.1 1-.1 2.1 0 3.1.1 1.6.3 3 .7 4.3l.3 1.5.1.4c.1.5.3 1.1.5 1.7.2.7.5 1.3 1 2 .1.2.2.3.4.5.1.1.2.3.3.4l.2.2c.2.3.4.6.6.8.3.3.6.6.9.8l.1.1.3.3.1.1.9.6c.7.4 1.5.7 2.6 1h.3c.4 0 .8-.2 1-.6 1.1.3 2 .4 2.8.5 1.3.2 2.5.2 3.9.3.8 0 1.7.1 2.5.1h3.5v2.8c0 .5 0 1-.1 1.5v.3c-.1 1-.1 2-.3 3.2-.1.8-.3 1.4-.4 2l-.2.7-.3 1.2c-.4 1.3-.8 2.7-1.3 4.1l-1.2 3c-.1.3-.3.6-.4 1-.5 1.2-1 2.5-1.1 3.9 0 .4.1.8.3 1.1.1.2.2.3.4.5.2.1.3.2.5.3-.3.4-.3 1-.2 1.5-.1.1-.2.2-.2.4v.1c-.1.2-.1.4-.1.7v.2c0 .4-.1.8-.1 1.1 0 .3-.1.6-.1.9v1.1c0 1.3.1 2.7.1 4V357.7c0 .5 0 1.1.1 1.6 0 .6.1 1.1.1 1.7 0 .2 0 .4.1.6v.5c0 .5.1 1.1.1 1.6.1.6.1 1.3.2 1.9v.3c.3 2.3.4 4.6.5 6.8.1 2.3.1 4.7.2 7.4v.8c0 .8 0 1.7.1 2.5 0 1.1.1 2.2.2 3.4v.9c.1 2 .2 4 .4 6 .1 1.4.2 2.8.4 4.1.1 1 .2 1.9.3 2.9.2 2.4.4 4.9.6 7.3 0 .6.1 1.2.1 1.8.1 1.6.3 3.3.4 5 .1 1.3.2 2.5.4 3.8l.3 2.1c0 .3.1.6.1.9 1.1 8.4 2 17 3 25.3l.3 2.7c.2 2.2.5 4.4.7 6.5.3 2.4.5 5 .8 7.4l.2 1.8c.2 1.9.4 3.9.7 5.8.1.8.2 1.6.2 2.3l.1.9c.1 1 .2 2 .3 3.3.3 2.8.6 5.2.8 7.4.2 2.4.5 4.8.7 7.1v.3c.2 2.2.4 4.4.7 6.6.1.5.1 1 .2 1.5.1.6.1 1.2.2 1.8.1 1.3.3 2.5.4 3.8 0 .4.1.8.1 1.1.1.7.2 1.4.2 2.1l.3 3.6c.1.9.2 1.9.3 2.8l.1.5c.1.6.1 1.2.2 1.9 0 .5.1.9.1 1.4.1.6.1 1.1.2 1.7.1.6.1 1.1.2 1.7 0 .4.1.7.1 1.1v.5c0 .6.1 1.2.1 1.7 0 1.1.1 2.2 0 3.4 0 1-.1 2.2-.1 3.5v3.4c0 1.1.1 2.5.1 3.8v1c0 1.2-.1 2.3 0 3.5 0 .8.2 1.6.4 2.4.2.7.5 1.4.7 1.9-.2.8-.3 1.6-.5 2.5l-.3.9-.1.2-.3.9c-.1.2-.1.3-.2.5-.2.5-.4.9-.6 1.4-.2.5-.3 1-.3 1.4v1.1c0 .7 0 1.5.2 2.3.1.5.3 1.1.5 1.6l.1.2c.1.3.3.7.5 1.1.1.1.2.2.2.4 0 .4.1.8.2 1.2.1.3.2.5.4.8.2.4.5.7 1 1 .3.2.6.4 1 .6.3.2.7.4 1 .5.4.2.9.3 1.4.4.2 0 .5.1.7.1h.3c1.4.2 2.9.2 4.3.2h2.2c.9 0 1.6 0 2.3-.1.6-.1 1.3-.2 2.1-.3.3-.1.6-.2.9-.2.5-.2.9-.4 1.2-.7.3-.3.5-.8.7-1.2.1-.2.3-.4.4-.5.4-.5.7-1 .9-1.5.1-.2.2-.4.4-.7.2-.3.4-.7.5-1 .4-.9.8-1.9 1.1-2.8.1-.4.3-.9.4-1.3.1-.6.2-1.1.2-1.7 0-.5.1-.9.1-1.4 0-.5 0-1 .1-1.5.3-1.6.6-3.7.5-5.6v-.2c0-.4 0-.8-.1-1.2v-.4c0-.3-.1-.6-.1-1v-.7-.4c0-.4-.1-.8-.1-1.1v-.3c0-.2 0-.3-.1-.5v-.3c-.2-2.1-.4-4.3-.4-6.5-.1-2.5 0-4.8.2-7.1.1-.9.3-1.9.5-3 .2-1.3.4-2.6.5-3.8.2-1.9.4-4 .4-6.6v-1.6c0-1.8 0-3.6.1-5.4 0-1.2.1-2.4.2-3.6.1-1.1.1-2.1.1-3.2.1-1.4.1-2.5.1-3.5 0-1.2 0-2.4-.1-3.6v-.1-1.2c0-.6 0-1.3-.1-1.9 0-1.4-.1-2.7-.1-4v-7.4-6.3c0-2.3-.1-4.6-.2-7-.1-2.4-.3-4.9-.5-7-.2-2.4-.3-4.7-.5-7.1l-.1-.7c-.1-.8-.1-1.7-.2-2.6-.1-.6-.1-1.2-.2-1.8-.1-.6-.1-1.2-.2-1.8-.1-1-.2-2-.3-3.1-.1-1.4-.3-2.8-.4-4.2-.1-.8-.1-1.6-.2-2.4 0-.4 0-.8-.1-1.2 0-.6-.1-1.2-.1-1.8 0-.5-.1-1.1-.1-1.6-.1-1.3-.1-2.7-.2-4 0-.9-.1-1.7-.1-2.6l-.3-4.5c-.1-.8-.1-1.5-.2-2.3 0-.5-.1-1.1-.1-1.6-.1-1.5-.2-3-.2-4.5 0-.5 0-1-.1-1.4 0-.4 0-.9-.1-1.3 0-.9 0-2-.1-3.1v-2.8c0-1 0-2.1.1-3.1v-.8-1.2c.2 1.1.4 2.2.5 3.2v.1l.2 1.2c.3 1.8.5 3.7.8 5.6.2 1.2.4 2.4.6 3.5.2 1 .4 2.1.5 3.1.3 2.2.7 4.4.9 6.4.1 1.2.3 2.3.4 3.4.1 1 .2 1.9.3 2.9l.1.7c.2 2.3.4 4.6.6 6.8 0 .5.1 1 .1 1.4 0 .6.1 1.2.1 1.8.1 1 .2 2.1.3 3.6.1 1.3.3 2.6.4 3.9.1 1 .2 2.1.3 3.1l.1.9.6 6.3.1 1c.2 1.9.3 3.8.5 5.7.1 1.3.2 2.7.2 4v.4c0 .9.1 1.8.1 2.7.1 2.5.3 4.9.4 7.4.1 1.1.1 2.1.2 3.2.1 1.2.2 2.5.2 3.7 0 .6.1 1.2.1 1.7 0 .4 0 .8.1 1.3.1 1.5.1 2.8.2 4 .2 2.8.3 4.9.4 6.9 0 1 .1 2.1.1 3.2 0 1.2.1 2.5.1 3.8 0 .6.1 1.3.1 1.9.1 1.6.2 3.3.2 4.9V518c0 5.2 0 9.7-.1 13.9v10.8c0 .6 0 1.2-.1 1.8v1.3c0 .8-.1 1.6 0 2.3 0 .4.1 1 .3 1.5.1.4.3.8.6 1.4.3.6.7 1 1 1.5-.2.7-.5 1.4-.7 2l-.1.1c0 .1-.1.3-.1.4-.1.5-.2.9-.3 1.3 0 .6 0 1.2.1 1.7v.2c0 .2.1.5.1.7.1.5.2.9.4 1.3.3.6.5 1 .8 1.3.3.4.6.8 1 1.2l.2.2.3.3V563.5c.1.2.2.5.3.8.1.1.1.2.2.3.2.2.4.5.6.7.2.3.6.5 1 .7.5.2 1 .3 1.5.4.3.1.6.1.9.1h2.4c.7 0 1.4-.1 2.1-.1.4 0 .7-.1 1.1-.1.6-.1 1.3-.1 1.9-.2.4-.2.9-.3 1.3-.3.5 0 1 .1 1.5.2.3 0 .5 0 .8-.1.3-.1.5-.1.8-.2l.1-.1c.2-.1.4-.1.5-.2l.6-.3c.4-.2.9-.5 1.3-.8.3-.2.5-.4.7-.5l.1-.1c.1-.1.3-.2.4-.4.5-.6.8-1.2 1-1.8.1-.3.1-.7.1-1v-.1c0-.3 0-.6-.1-1v-.2c0-.3-.1-.6-.1-.8l-.3-1.5c-.1-.3-.2-.5-.3-.8v-.1c0-.1-.1-.2-.1-.3-.1-.3-.2-.7-.2-1.1v-.8c0-.2 0-.5.1-.7 0-.2.1-.3.1-.5.1-.4.1-.9.2-1.3v-.3c0-.3.1-.6.1-.9 0-.4.1-.8.1-1.2 0-.7 0-1.4-.1-2 0-.2-.1-.5-.1-.7-.1-.2-.1-.4-.3-.6-.1-.2-.1-.5-.2-.8v-1.6-.5c0-.6 0-1.1-.1-1.6 0-.3-.1-.6-.1-.9-.1-.5-.2-.9-.4-1.3l-.1-.1c-.2-.4-.4-.8-.5-1.2-.1-.2-.1-.5-.2-.8-.1-.5-.1-.9-.1-1.3v-.9-.6-1.2-2.4-1.1-.5-1.2-.6c.1-.9.2-1.9.3-2.8l.1-.7v-.4c.1-1.1.2-2.1.3-3.2.1-1.2.2-2.3.3-3.5l.1-.7c.1-.9.1-1.8.2-2.7.1-1.3.3-2.5.4-3.8.2-2.2.2-4.3.3-6.9v-3.4-2-1.2c-.1-2.5-.1-5.1-.1-7.3v-.5-4.5-1.4-.7c0-.6 0-1.1.1-1.7 0-.5 0-.9.1-1.4.1-1.3.1-2.7.2-4 0-.9.1-1.8.1-2.7v-.5c0-1.2.1-2.5.1-3.7v-.1c.1-2.2.1-4.5.3-6.7.1-.9.1-1.7.2-2.6l.3-4.5c.1-2.3.3-4.7.3-7.2v-1.4c.1-1.9.1-3.8.2-5.7.1-2.6.3-4.8.5-6.8 0-.4.1-.7.1-1.1l.3-2.4c.1-1.2.2-2.4.3-3.7.1-1.1.1-2.2.2-3.3v-.7c0-.9.1-1.7.1-2.6 0-1.2.1-2.3.1-3.4 0-1.2 0-2.3.1-3.5 0-.9.1-1.9.1-2.8v-.8c0-.6.1-1.1.1-1.7 0-.5 0-1 .1-1.4 0-1.1.1-2.1.1-3.1v-1-.4-1.6c0-.8 0-1.6-.1-2.3 0-.5-.1-1.1-.2-1.6v-.7c-.1-.2-.2-.5-.4-.6l-.1-.1c.8-.3 1.5-.6 2.1-1 .6-.4 1.2-1 1.8-1.5l.1-.1c.3-.3.6-.5 1-.8.3-.2.6-.5.9-.8l.6-.6.2-.2c.3-.3.6-.6.9-1l.2-.2.7-.7c.4-.3.7-.8 1-1.4.4-.8.8-1.7 1.2-2.6.3-.7.5-1.5.7-2.3l.3-1.2c.1-.6.2-1.1.4-1.7.1-.4.2-.8.3-1.1.1-.4.2-.9.3-1.3v-.1c.2-.8.4-1.6.5-2.4.3-1.9.5-3.9.7-5.8.1-.7.1-1.3.2-2 .1-1.1.2-2.3.3-3.5.1-.8.1-1.6.2-2.3.1-1.1.1-2.1.2-3.2.1-1.6.3-3.4.4-5.6 0-.7.1-1.4.1-2.2.1-1.2.1-2.4.2-3.7v-.3c.1-.8.1-1.6.1-2.4v-3c0-1.9 0-3.8-.1-5.7 0-1.2-.1-2.5-.2-3.7 0-.6-.1-1.2-.1-1.8-.1-1.7-.2-3.5-.4-5.5-.1-1.7-.3-3.4-.4-5.1v-.5c-.1-1.9-.3-3.7-.4-5.8-.1-1-.2-2-.2-3-.1-.8-.1-1.6-.2-2.4l-.1-.8c-.1-1.4-.2-2.8-.4-4.2-.2-1.7-.4-3.3-.7-4.9v-.2l-.2-1.3c-.4-3.3-.9-6.7-1.5-10 0-.2-.1-.5-.1-.7.6-.2 1.2-.5 1.7-.8.2-.1.4-.3.6-.4.3-.2.7-.5 1-.9.2-.4.3-.8.3-1.3 0-.6-.3-1.2-.6-1.7v-.1l-.3-.6c-.2-.6-.5-1.1-.6-1.7-.2-.7-.4-1.4-.6-2.2 0-.1-.1-.2-.1-.3-.2-1.5-.4-2.7-.6-3.9-.2-1.1-.4-2.1-.7-3.2l-.1-.5c-.1-.2-.1-.5-.2-.7-.2-1-.4-2-.8-2.9-.4-1.1-.8-2.3-1.3-3.7-.5-1.2-1-2.6-1.6-3.9l-.9-1.8c-.3-.5-.6-1.1-1-1.7-.3-.5-.7-.9-1-1.4l-.1-.1c-.4-.6-.9-1.1-1.4-1.7-1.1-1.2-2-2.1-3-2.8-.1-.1-.3-.2-.4-.3-.2-.1-.3-.2-.5-.3-.4-.3-.7-.5-.9-.7-.3-.2-.6-.4-.9-.5l-.2-.1c-.3.3-.4.3-.5.2-.2-.1-.5-.3-.7-.4-.4-.2-.7-.3-1.1-.5-.2-.2-.5-.4-.8-.5l-.6-.3c-.8-.3-1.6-.6-2.6-.9-.6-.2-1.2-.3-1.9-.4-.2 0-.4-.1-.6-.1-.3 0-.5-.1-.8-.1l-1.8-.3c-.4-.1-.7-.2-.9-.2-.2-.1-.5-.2-.7-.3H275.2c-1-.4-1.9-.9-2.8-1.5-.3-.2-.5-.3-.8-.5-.2-.1-.4-.3-.7-.4l-.1-.1c-.4-.3-.8-.5-1.2-.8-.4-.3-.8-.7-1.2-1.1-.4-.4-.8-.8-1.1-1.2-.4-.5-.6-.9-.9-1.3l-.3-.5c-.2-.3-.4-.7-.6-1-.6-1-1.1-1.9-1.5-2.8l-.2-.5c-.1-.3-.2-.5-.3-.8l-.1-.4c-.2-.4-.4-.9-.5-1.3-.3-1-.5-1.8-.7-2.7-.2-1.6-.1-3.1.1-4.6v-.2c.1-.4.1-.8.2-1.2.1-.5-.2-1-.6-1.1h-.2c-.3.1-.7.3-.8.8zM258 543zM222 293.1v-.1.1M258 543zM258 543"/><g transform="translate(214 566)"><defs><filter id="c" filterUnits="userSpaceOnUse" x=".1" y=".2" width="41.4" height="29.7"><feColorMatrix values="1 0 0 0 0 0 1 0 0 0 0 0 1 0 0 0 0 0 1 0"/></filter></defs><mask maskUnits="userSpaceOnUse" x=".1" y=".2" width="41.4" height="29.7" id="d"><g filter="url(#c)"><path fill-rule="evenodd" clip-rule="evenodd" fill="#FFF" d="M.1.2h41.4v29.7H.1z"/></g></mask><path mask="url(#d)" fill-rule="evenodd" clip-rule="evenodd" fill="#161616" d="M23.3.2c-.4 0-.8.1-1.2.2l-.9.3c-.3.1-.6.3-.8.4-.7.4-1.3.7-2 1.1-.7.4-1.3.8-2 1.1-.6.4-1.3.7-1.9 1.1-1.3.8-2.7 1.7-3.9 2.7-1.2 1-2.3 2-3.4 3-.5.5-1 1-1.5 1.6-.5.6-1 1.1-1.5 1.7-.5.6-1 1.3-1.4 2-.4.6-.8 1.3-1.1 2-.4.7-.7 1.4-1 2.2-.2.4-.3.8-.4 1.3-.1.5-.2 1.1-.2 1.6 0 .2.1.6.1.8 0 .1.1.3.1.4 0 .2.1.3.1.5.2.5.4 1.1.7 1.5.4.7 1 1.3 1.5 1.9.5.5 1 1 1.7 1.4.2.1.5.2.7.4l.6.3c.2.1.4.1.6.2.6.1 1.2.2 1.8.1.7 0 1.3-.2 2-.3.4-.1.8-.1 1.2-.2.7-.1 1.4-.4 2-.6 1.4-.4 2.8-.9 4.2-1.5.8-.3 1.5-.6 2.3-1 .7-.3 1.4-.6 2-.9.6-.3 1.1-.6 1.7-.9l1.8-.9c.6-.2 1.2-.4 1.8-.7.7-.2 1.3-.5 2-.7.7-.3 1.4-.5 2.1-.8.8-.3 1.5-.6 2.3-1 .6-.3 1.2-.6 1.7-1 .7-.5 1.3-1.1 1.9-1.7 1-1.1 2-2.3 2.9-3.5.3-.4.6-.8.8-1.3.2-.3.3-.7.4-1.1.1-.3.2-.6.2-.9.1-.7.2-1.3.2-2 0-.6 0-1.1-.1-1.7-.1-.7-.2-1.4-.4-2-.1-.4-.3-.8-.5-1.2-.1-.2-.2-.5-.4-.7-.3-.5-.5-.9-.8-1.4-.3-.5-.7-.9-1.2-1.2-.3-.2-.6-.3-1-.5-.2-.1-.5-.1-.7 0-.3.1-.6.3-.8.6-.2.3-.2.7-.1 1 .1.3.3.5.5.7l.6.6c.3.5.5 1 .8 1.5.2.4.4.8.5 1.2.1.3.2.5.2.8 0 .4.1.9.1 1.3 0 .5 0 1-.1 1.5-.1.7-.3 1.3-.5 2-.2.4-.5.9-.8 1.3-.3.5-.7 1-1 1.4-.8 1-1.6 2-2.6 2.9-1 .7-2.2 1.2-3.4 1.8l-3.3 1.2c-1.2.5-2.4.9-3.6 1.5-.5.3-1.1.6-1.6.9-.5.3-1 .6-1.5.8-1 .5-2.1 1-3.1 1.4-1.3.5-2.6 1-3.9 1.4-.7.2-1.4.5-2.2.7-.3.1-.6.1-.9.2-.4.1-.8.1-1.2.2-.2 0-.3 0-.5.1h-.9c-.3 0-.6-.1-.8-.2-.3-.1-.6-.3-.8-.5-.4-.4-.8-.9-1.2-1.4-.3-.4-.5-.7-.7-1.1-.1-.3-.2-.7-.3-1v-.3c.1-.5.2-1 .4-1.5.4-.9.8-1.7 1.3-2.5.3-.5.5-1 .8-1.4.3-.5.6-.9.9-1.4 2.1-2.7 4.5-5.2 7.2-7.4 1.2-1 2.5-1.9 3.8-2.7.9-.9 1.6-1.4 2.3-1.8.7-.5 1.5-1 2.3-1.3.3-.1.7-.2 1-.3h.3c.1 0 .3.1.4.1.6.2 1.2-.2 1.4-.8.2-.6-.2-1.2-.8-1.4-.4-.1-.7-.2-1.1-.2h-.2"/></g><path fill-rule="evenodd" clip-rule="evenodd" fill="#161616" d="M220.3 589.9c0 .1 0 .1 0 0m27.1-18s0 .1 0 0c0 .1 0 0 0 0m1.5-3.8c-.6.1-.9.6-1.1 1.1-.1.2-.1.5-.1.8 0 .3-.1.6-.1.9-.1.5-.1.9-.2 1.4 0 .1 0 .3-.1.4 0 .3-.1.6-.2.8 0 0 0 .1-.1.1l-1.2 1.2c-.7.5-1.5.9-2.3 1.3l-2.4 1.2-3.3 1.2c-1.2.4-2.5.8-3.7 1.1-1.2.3-2.4.6-3.5.9-.5.2-1.1.3-1.6.4-.6.1-1.1.3-1.7.4-.5 0-1.1 0-1.6-.1-.3 0-.5-.1-.8-.2h-.1c0-.6 0-1.1.1-1.6.1-.4.1-.7.2-1.1.1-.3.1-.6-.1-1-.2-.3-.4-.5-.7-.6-.3-.1-.7 0-1 .1-.3.1-.5.4-.6.7-.1.5-.2 1-.2 1.5-.6.3-1 1.1-1.4 1.7-.1.2-.3.4-.4.7-.3.1-.5.2-.8.5-.3.3-.6.7-.9 1.1-.6.8-1.2 1.7-1.7 2.7-.4.9-.7 1.9-1 2.9l-.3 1.5c-.1.6.1 1.1.3 1.6.2.4.6.7.9 1 .1 0 .2.1.3.1.1.1.3.1.4.1.2 0 .3.1.5.1 0 .2.1.5.2.7.1.2.4.5.6.6.4.2.9.4 1.3.5l1.5.3c.4.1.7.1 1.1-.1.3-.2.6-.5.7-.9.5-.1 1-.3 1.5-.4.4-.1.7-.2 1-.3.9-.3 1.7-.5 2.6-.8 1.5-.5 3-1 4.4-1.4.7-.2 1.5-.5 2.2-.8.9-.3 1.8-.7 2.6-1.1 1.1-.5 2.1-1.1 3-1.7.4-.2.8-.5 1.1-.8.1 0 .2-.1.3-.1.2.1.3.1.5.1.3 0 .5-.1.7-.2.2-.1.4-.3.6-.4.2-.2.4-.4.6-.5.3-.2.7-.3 1-.5 1.2-.6 2.3-1.3 3.3-2.2.3-.3.6-.5.8-.8.4-.1.7-.3.9-.5.4-.4.6-.9.8-1.5.1-.2.2-.4.3-.7.3-.5.5-1 .7-1.5l.6-1.8c.1-.3.1-.7.1-1 0-.3.1-.6.1-.9v-.5c0-.2-.1-.4-.1-.6 0-.3-.3-.6-.5-.8-.3-.3-.7-.5-1.1-.5h-.3c-.1-.8-.5-1.5-.8-2.2-.1-.2-.2-.4-.3-.5-.1-.1-.2-.3-.3-.4-.1-.1-.2-.2-.4-.3-.1-.1-.3-.1-.5-.2h-.4c.4-.3.2-.3.1-.2M281.7 565.2c-.4.2-.6.6-.7 1h.3c.9 0 1.7.2 2.6.5.3.1.7.2 1 .3h.1c-.1-.1-.2-.3-.4-.4l-.6-.6c-.3-.3-.6-.5-.9-.7-.2-.1-.5-.2-.7-.2-.2-.1-.5 0-.7.1M297.4 572.5c0-.1 0-.1 0 0 0-.1 0-.1 0 0 0 0 .1 0 0 0 .1 0 0 0 0 0zm-26.5-5zm-.1-2.4c-.3.2-.7.4-1 .7-.3.3-.6.7-.9 1.1-.5.9-.9 2-1.1 3l-.3 2.1c0 .4-.1.8-.1 1.1-.1 1.5-.2 2.9-.4 4.4 0 .3-.1.7-.1 1 0 .6 0 1.1.1 1.6.2.8.5 1.5.9 2.2.1.3.3.5.5.8.2.3.4.7.7.9.4.4.8.8 1.2 1.1.8.6 1.7 1 2.6 1.3l1.8.6 2.1.6c.7.2 1.3.5 2 .7 1.4.4 2.8.7 4.3.9.9.1 1.8.3 2.8.4.8.1 1.5.1 2.3.2 1.4.1 2.8.1 4.2 0 3 0 5.9-.2 8.9-.3 1.5-.1 2.9-.1 4.4-.3.7-.1 1.4-.1 2.1-.2.4-.1.8-.1 1.2-.2.3-.1.7-.2 1-.4.2-.1.3-.2.5-.2l.6-.3c.2-.1.4-.3.6-.4l.5-.5c.5-.7.7-1.5.8-2.4.1-.8 0-1.5-.2-2.3-.1-.7-.4-1.4-.7-2-.1-.3-.3-.6-.4-.9-.1-.2-.2-.5-.4-.7-.2-.3-.5-.7-.8-1-.4-.4-.8-.7-1.3-1-.3-.2-.5-.4-.8-.6-.5-.4-1.1-.7-1.7-.9-1.3-.5-2.6-1-3.8-1.5-.5-.2-1-.5-1.5-.7-.7-.3-1.3-.6-2-.8-1.4-.5-2.7-.9-4.1-1.2-.1 0-.2 0-.3-.1.2.1.4.3.7.4.6.4 1.1.7 1.7 1.2.1.1.2.1.2.2l-.1-.1c.6.5 1.2 1 1.7 1.6.3.3.5.6.6.9.1.2.2.5.3.7v.1c.2.1.3.1.5.2.6.3 1.2.5 1.8.7 1 .4 2 .7 3 1.1.9.4 1.8 1 2.6 1.6l.6.6c.3.5.6 1.1.8 1.6l.3.9c.1.3.2.7.2 1v1c0 .2-.1.3-.1.5v.1c-.3.1-.5.3-.8.4-.1.1-.3.1-.4.2-.2.1-.5.1-.7.2-.6.1-1.3.1-1.9.1-.7 0-1.4.1-2.2.1-1.5 0-3.1.1-4.6.1-2.9.1-5.9.2-8.8.2H289c-.4 0-.8 0-1.3-.1-.5 0-1 0-1.5-.1s-1-.1-1.4-.2c-.4-.1-.9-.1-1.3-.2-.5-.1-.9-.2-1.4-.3-.9-.2-1.8-.5-2.7-.7-.8-.2-1.6-.6-2.5-.8-.5-.1-.9-.3-1.4-.4-.7-.2-1.5-.4-2.2-.7-.5-.2-1-.5-1.4-.8l-.6-.6c-.5-.7-1-1.5-1.4-2.3-.1-.2-.1-.3-.2-.5s-.1-.4-.1-.5c-.1-1.2-.1-2.4-.2-3.6v-1.9c0-.8.1-1.5.2-2.3.1-.8.3-1.5.6-2.2.2-.4.4-.7.6-1 0-.1.1-.1.1-.2.2-.1.4-.3.6-.4.5-.3.6-.9.4-1.4-.2-.3-.5-.5-.9-.5.1.2-.1.2-.2.3z"/><path fill-rule="evenodd" clip-rule="evenodd" fill="#161616" d="M310.2 577.2l.2.2c0-.1-.1-.2-.2-.2m-9.3-2.4s.1 0 0 0c.1 0 0 0 0 0m-3.1-2c.1.1.2.1.2.2l-.2-.2m-.1-.1c0 .1.1.1 0 0 .1.1.1.1 0 0 .1.1.1.1 0 0 .1.1.1.1 0 0 .1.1.1.1 0 0 .1.1 0 .1 0 0m-12-7.7c-.1 0-.1 0-.2.1-.1 0-.2-.1-.3-.1-.3 0-.5.1-.7.3-.2.2-.3.5-.4.7 0 .1-.1.3-.1.4v.5c.1 0 .2.1.3.1.3.1.7.2 1 .3 1.5.5 3 1 4.5 1.6 1.5.6 3 1.1 4.4 1.8.3.1.7.3 1 .5.3.2.6.3.9.5.6.3 1.1.7 1.7 1.1.5.4 1.1.8 1.5 1.3.6.2 1.1.5 1.7.7.1 0 .1.1.2.1-.1 0-.1 0-.2-.1.8.3 1.6.6 2.4 1 .4.2.8.4 1.2.5.5.2.9.5 1.4.8.8.5 1.6 1 2.4 1.6.3.3.7.5 1 .8.1.1.2.2.4.3.2.1.3.3.5.4 0 0 .1.1.1.2.1.3.2.5.2.8v.8l-.3 1.2c-.1.3-.3.5-.4.7-.2.3-.5.5-.7.7l-.6.3c-.2.1-.4.2-.7.4-.9.4-1.9.6-2.8.9-1 .3-2.1.6-3.1.9-.6.2-.9.7-.7 1.3.1.3.2.5.5.6.3.1.5.2.8.1 1.2-.2 2.4-.5 3.6-.8.5-.1 1-.2 1.6-.4.4-.1.7-.2 1.1-.3l1.2-.6.6-.3c.2-.2.4-.3.6-.5.4-.4.7-.8 1-1.2.3-.4.5-.9.6-1.4.1-.3.1-.5.2-.8.1-.3.1-.7.1-1 0-.3 0-.7-.1-1-.1-.4-.2-.8-.4-1.2-.1-.3-.3-.6-.5-.8-.1-.2-.3-.3-.5-.4-.4-.3-.8-.6-1.3-.9-.5-.4-1-.7-1.5-1.1-.5-.4-1.1-.7-1.6-1-.5-.3-1.1-.6-1.6-.9-.7-.3-1.3-.6-2-.9-.3-.1-.7-.3-1-.4.1 0 .2.1.3.1-1-.4-2.1-.9-3.1-1.3.1 0 .2.1.3.1-1.1-.5-2.2-.9-3.4-1.3-.5-.2-1.1-.3-1.6-.5s-1.1-.4-1.6-.5c-1-.4-2-.6-3-1-.5-.2-1-.4-1.5-.5-.5-.2-1.1-.2-1.6-.3-.1-.6-.3-1.3-.4-1.9-.1-.4-.5-.7-.9-.7-.4-.4-.5-.4-.5-.4M268.3 575.3c-.2.2-.3.5-.3.7 0 .3.1.5.3.7.2.2.5.3.7.3l3.3.3c1 .2 1.9.4 2.9.5 1.2.2 2.3.4 3.5.6.5.1 1 .1 1.5.2s1 .2 1.4.2c1 .2 2 .4 3 .5.6.1 1.2.2 1.8.2.6.1 1.1.1 1.7.2.3 0 .6 0 .8.1-.3 0-.5-.1-.8-.1-.8-.1-1.6-.3-2.5-.4-.8-.1-1.5-.4-2.3-.6-.7-.2-1.4-.5-2.1-.7-.4-.2-.9-.4-1.3-.6-.6-.3-1.3-.6-1.9-1-.2-.1-.4-.3-.6-.4-.9-.1-1.8-.3-2.7-.4-.9-.2-1.7-.3-2.6-.4-1.1-.1-2.2-.3-3.3-.3h-.1c0 .1-.2.2-.4.4"/><path fill-rule="evenodd" clip-rule="evenodd" fill="#161616" d="M303.7 578.4c0 .1 0 .1 0 0 0 .1 0 .1 0 0m.2-.2v.1c.1 0 0 0 0-.1m-3.1-3.1l-.3.3c.1.2.2.4.2.6 0 .2.1.4.1.7.1.1.2.1.2.1.4.1.8.3 1.2.4.3.1.5.2.8.4.3.1.5.3.8.5l.1.1v.2c-.1 0-.1.1-.2.1-.2.1-.4.1-.7.2h-2.8c-.2.2-.4.4-.7.6l-.6.3c-.4.2-.9.4-1.3.5-.4.1-.8.1-1.1.2-.4 0-.8 0-1.1.1-.6 0-1.3-.1-1.9-.1-.6.1-1.2.2-1.8.2h-.5c.5 0 .9.1 1.4.1 1.1.1 2.1.1 3.2.2 1 .1 2 .2 3.1.2H303.1c.4-.1.8-.1 1.2-.2.3-.1.6-.2.9-.4.2-.2.5-.4.6-.6.1-.2.2-.4.3-.7.2-.5.2-1 0-1.5s-.5-.9-1-1.2c-.3-.2-.6-.3-.9-.4-.4-.2-.8-.4-1.2-.5-.5-.2-1-.3-1.4-.3h-.3c-.2-.2-.4-.2-.5-.1"/><path fill-rule="evenodd" clip-rule="evenodd" fill="#161616" d="M299.6 576.2c-.1 0-.2.1-.4.2.1.4.1.8 0 1.2 0 .2-.1.4-.2.7-.2.5-.6.9-1.1 1.2l-.6.3c-.4.2-.8.4-1.3.5-.4.1-.7.1-1.1.1h-.1v.2c-.5 0-1.1-.1-1.6-.1h-.3c-.4 0-.9 0-1.3-.1-.5.1-1 .1-1.5.1-.7 0-1.5-.1-2.2-.2-.8-.1-1.6-.3-2.5-.4h-.2c-.6-.1-1.3-.1-1.9-.1-.1-.1-.2-.1-.3-.1-.3-.1-.5-.2-.7-.3-.2-.1-.5-.1-.7-.2l-1.2-.3c-.8-.2-1.7-.4-2.6-.6-.4-.1-.9-.2-1.3-.2-.5-.1-1-.1-1.5-.2-.7-.1-1.4-.2-2.1-.2-.5-.1-1-.2-1.5-.2-.1 0-.2 0-.3-.1-.1 0-.2 0-.2-.1-.3-.1-.5 0-.8 0-.8.2-1.2 1.2-1.3 2 0 .5 0 .9.2 1.3.1.4.3.8.5 1.2l.6.9c.1.1.2.3.3.4.2.2.4.3.6.5.6.4 1.2.8 1.9 1 .2.2.5.3.7.5.8.6 1.8 1 2.7 1.4 1 .4 2.1.7 3.1 1 2.4.6 4.9.9 7.3 1.2.7.1 1.4.1 2.1.2.7.1 1.4.1 2.1.2.7 0 1.4.1 2.1.1h1.6c.2 0 .5 0 .7-.1.4-.1.7-.4.9-.7.7 0 1.4-.1 2.1-.1.3.3.8.6 1.2.5.9-.1 1.7-.2 2.6-.4.4-.1.8-.1 1.1-.2 1.1-.2 2.1-.6 3.1-1s2-1.2 2.3-2.3c.2-.5.2-1.1 0-1.6-.1-.3-.2-.5-.3-.7-.1-.2-.2-.3-.4-.5l-.1-.1c0-.2 0-.3-.1-.5-.1-.5-.3-1-.5-1.4 0-.1-.1-.1-.1-.2-.1-.2-.3-.4-.4-.5-.2-.2-.5-.5-.8-.6-.5-.3-1.1-.4-1.6-.4-.2 0-.4 0-.5.1 0-.1-.1-.1-.1-.2-.2-.2-.3-.5-.5-.7-.2-.2-.5-.4-.7-.6-.6-.5-1.4-.8-2.2-.8-.1-.2-.4-.2-.7 0"/><path fill-rule="evenodd" clip-rule="evenodd" fill="#161616" d="M272.1 567.4c-.1.1-.1.2-.2.3h-.1c-.2 0-.5.1-.7.2-.1.1-.2.2-.4.3-.2 0-.4.1-.5.2-.4.2-.6.5-.7.9 0 .1 0 .1-.1.2 0 .1-.1.3-.1.4v.1c0 .1-.1.3-.1.4-.1.3-.1.6-.2.8-.1.4-.1.8-.1 1.2 0 .2 0 .5.1.7v.3c.1.6.3 1.2.5 1.7.1.2.2.4.2.7v.1c.1.3.2.7.3 1 .1.2.1.3.2.5s.1.3.2.5c.2.3.5.5.8.6.4.1.9 0 1.2-.3.2-.2.3-.4.3-.7.2.2.3.4.5.6l.3.3.3.3c.2.2.4.3.8.4.4.1.7.1 1-.1.3-.2.5-.4.6-.7.1-.1.2-.1.3-.2l.2-.2c.1-.2.2-.4.2-.6 0-.3-.1-.6-.2-.8-.1-.2-.2-.3-.4-.5l-.3-.3c-.3-.4-.5-.7-.8-1.1-.4-.5-.8-1.1-1.1-1.7-.3-.8-.5-1.6-.7-2.5-.1-.4-.2-.7-.2-1.1 0-.2 0-.4-.1-.5.1-.1.2-.3.3-.4.2-.3.1-.8-.3-1-.1-.1-.2-.1-.4-.1-.2-.3-.4-.2-.6.1M282.2 565c-.7 0-1.2.5-1.2 1.2v.2h.2c.8 0 1.7.2 2.5.5.3.1.7.2 1 .3.2.1.5.2.7.3h.8c.4 0 .7 0 1.1.1.6.1 1.2.1 1.8.2.9.1 1.7.5 2.6.8.5.2.9.3 1.4.5.8.3 1.5.6 2.3.9.6.3 1.3.5 1.9.8.4.2.7.3 1.1.5.4.2.7.4 1.1.6.6.4 1.3.8 1.9 1.2l.9.6c.2.2.5.3.7.5.8.6 1.6 1.2 2.4 1.9.4.3.8.6 1.1 1 .2.2.4.4.5.6.1.1.2.2.2.3v.4c.1.2.3.4.4.5-.1-.1-.1-.2-.2-.3.3.3.5.7.7 1.1.1.4.2.8.3 1.1v.3c-.1.6-.3 1.1-.5 1.6-.1.2-.3.5-.4.7-.2.3-.5.5-.8.7-.4.3-.8.6-1.3.8-1.1.4-2.3.7-3.5 1-.6.1-1.2.3-1.8.4-.2 0-.3.1-.5.3-.2.2-.3.5-.3.7s.1.5.3.7c.2.2.5.3.7.3.7-.1 1.5-.2 2.2-.3 1.5-.3 3-.6 4.4-1.3.8-.4 1.5-.9 2-1.5.6-.6.9-1.3 1.2-2.1.2-.6.4-1.2.5-1.9 0-.5-.1-1.1-.2-1.6-.3-1.4-1.1-2.5-1.9-3.6-.2-.3-.4-.6-.7-.8-.2-.2-.4-.4-.6-.5l-1.5-1.2c-.5-.4-1.1-.9-1.6-1.3s-1-.7-1.6-1.1c-1.1-.7-2.2-1.3-3.4-1.9-1.2-.6-2.5-1.1-3.7-1.6-.6-.2-1.2-.5-1.8-.7-.6-.2-1.3-.4-1.9-.6-.5-.2-1-.3-1.5-.5-.7-.2-1.3-.2-2-.3-.7-.1-1.3-.1-2-.2h-3.5c.1-.3-.2-.3-.5-.3M307 578.1c0-.1 0-.1 0 0 0-.1 0-.1 0 0 0-.1 0-.1 0 0M308 578.1c0-.1 0-.1 0 0 0-.1 0-.1 0 0 0-.1 0-.1 0 0"/><path fill-rule="evenodd" clip-rule="evenodd" fill="#161616" d="M286 566.7c-.1.2 0 .5.1.7.1.2.3.3.5.4.9.3 1.8.6 2.7 1 .7.3 1.4.5 2.1.8 1.2.5 2.4 1 3.6 1.4 1.3.6 2.6 1.2 3.8 1.8.3.1.6.3.9.5.9.5 1.7 1 2.5 1.5.6.4 1.2.8 1.8 1.3.3.2.5.5.8.7.3.3.8.3 1.1 0 .1-.1.2-.3.2-.6 0-.2-.1-.4-.2-.6-.7-.8-1.5-1.4-2.3-2-.9-.7-1.8-1.3-2.8-1.8-.4-.2-.9-.5-1.3-.7l-3.2-1.5c-.5-.3-1.1-.5-1.7-.7-1.2-.5-2.5-1-3.7-1.5-.4-.2-.8-.3-1.2-.5l-2.4-.9h-.2c-.6 0-1 .3-1.1.7M225.4 265.2c-.1.1-.1.2-.1.4 0 .6-.1 1.3-.1 1.9 0 .5-.1 1.1-.1 1.6v3.4c0 .3.1.5.3.5.2 0 .3-.2.3-.5v-1.7-1.7c0-.5.1-1.1.1-1.6 0-.7.1-1.3.1-2 0-.1 0-.3-.1-.4-.1-.1-.2-.2-.3-.2 0 .1 0 .2-.1.3M275.6 263c-.4.1-.6.5-.5.9.4 1.6.9 3.3 1.3 4.9.4 1.3.7 2.6 1.1 3.9.1.4.2.7.4 1.1.1.4.1.7.2 1.1.1.5.2 1.1.3 1.6.1.7.2 1.3.3 2 0 .1.1.2.2.3.1.1.3.2.5.2s.4-.1.5-.2c.1-.1.2-.3.2-.5-.1-.7-.2-1.5-.2-2.2l-.3-2.1c-.1-.7-.3-1.3-.4-2-.1-.6-.2-1.2-.4-1.8-.3-1.1-.5-2.1-.9-3.2-.2-.5-.4-1-.5-1.5-.1-.3-.2-.5-.3-.8 0-.1 0-.1-.1-.2-.1-.2-.1-.5-.2-.7 0-.1-.1-.1-.1-.2s0-.2-.1-.3c-.1-.3-.4-.5-.7-.5-.2.2-.3.2-.3.2M296.4 254.5s0 .1.1.1c-.1 0-.1 0-.1-.1m-.3-.7s0 .1.1.1c-.1 0-.1-.1-.1-.1m-20.3-12.1s.1 0 0 0c.1 0 0 0 0 0m-2.6-1.5c-.1.1-.2.2-.2.4s.1.3.2.4c.3.3.6.7.9 1 .4.4 1 .7 1.6.9.4.2.8.4 1.2.5.4.1.8.3 1.1.4.4.1.8.2 1.2.4.4.1.7.3 1.1.4.4.1.7.3 1.1.4.4.1.8.3 1.2.5.7.3 1.3.5 2 .7.6.2 1.1.3 1.7.5.6.3 1.1.6 1.7.8.3.1.6.3.9.4l.9.6c.8.6 1.6 1.4 2.2 2.1.5.6.9 1.2 1.4 1.9l.6.9c.2.3.4.6.5 1 .4 1.1.9 2.1 1.4 3.2.3.7.6 1.3.8 2 .1.2.2.4.2.6 0-.1-.1-.2-.1-.2.3.7.5 1.4.7 2.1.2.8.4 1.6.6 2.3.2.8.4 1.5.7 2.3.1.4.2.8.4 1.2.1.4.3.7.4 1.1l.3 1.2.3 1.2c.2.8.3 1.6.5 2.4l.6 2.4.6 2.4c.1.4.2.9.2 1.3 0 .3.1.5.1.8 0 .3.1.5.2.8.1.5.6.7 1.1.6.2-.1.4-.2.5-.4 0-.1.1-.1.1-.2v-.5c0-.2 0-.4-.1-.6 0-.4-.1-.8-.1-1.2-.1-.4-.1-.8-.2-1.2l-.6-2.4c-.4-1.6-.7-3.2-1-4.8l-.3-1.2-.3-1.2c-.2-.8-.5-1.5-.7-2.3-.5-1.5-.9-3.1-1.4-4.6-.2-.6-.4-1.1-.6-1.7-.2-.6-.6-1.2-.8-1.9-.3-.6-.5-1.2-.8-1.8-.3-.6-.5-1.2-.8-1.7-.1-.2-.1-.3-.2-.5-.2-.4-.3-.8-.6-1.2-.2-.3-.4-.6-.6-1-.5-.7-1-1.4-1.5-2-.3-.4-.6-.7-.9-1.1l-.8-.8c-.7-.6-1.4-1.2-2.1-1.6-.3-.2-.7-.3-1-.5-.3-.2-.7-.3-1-.5-.4-.2-.8-.4-1.3-.5-.4-.1-.7-.2-1.1-.3-.8-.2-1.6-.5-2.4-.8-.4-.1-.7-.3-1.1-.4-.4-.1-.8-.2-1.1-.3-.4-.1-.8-.3-1.2-.4l-1.2-.3c-.4-.1-.7-.2-1.1-.3-.4-.1-.8-.3-1.2-.4-.3-.1-.6-.3-.9-.4-.4-.3-.7-.7-1-1-.3-.1-.4-.1-.5-.1-.2 0-.3.1-.4.2M219.9 290.2s0-.1 0 0m.4-2l-.1.1c-.1.1-.1.2-.1.3-.1.5-.1 1-.2 1.4v-.1.1c-.1.4-.1.8-.2 1.1-.1.6-.3 1.1-.4 1.7-.2.7-.3 1.3-.5 2l-.3 1.2c-.1.4-.1.7-.2 1.1-.1.3-.1.6-.1.8 0 .2 0 .3-.1.5 0 .4-.1.7.1 1.1.1.2.4.4.7.4.3 0 .7-.2.7-.5.1-.3.1-.5.2-.8 0-.2.1-.4.1-.5.1-.3.2-.7.2-1 .2-.7.3-1.4.5-2 .1-.7.3-1.4.4-2.1.1-.2.1-.4.2-.6.2-.8.4-1.5.6-2.2 0-.1.1-.2.1-.4s.1-.3.1-.5v-.4c0-.2-.1-.3-.2-.4-.1-.1-.2-.2-.4-.2l-.1-.1c-.1-.1-.3-.2-.5-.2s-.4.1-.5.2M222.7 287c-.5.1-.8.7-.6 1.2.1.5.3.9.4 1.4.1.3.2.7.2 1 0 .2.1.3.1.5s.1.3.1.5c0 .3.1.6.1.9.1.8.1 1.6.2 2.3.1.8.2 1.5.2 2.3 0 .4.1.8.1 1.2V301.2c0 .6.1 1.2.1 1.7 0 .3 0 .7.3.9.1 0 .2.1.3.1.2 0 .2-.1.4-.2.1-.1.2-.3.2-.4 0-.1 0-.2.1-.4 0-.2.1-.5.1-.7v-1.1-1.1-2.4c0-.8-.1-1.6-.1-2.3-.1-1.3-.1-2.5-.3-3.8l-.3-1.8c-.1-.3-.1-.6-.2-.9-.1-.4-.2-.9-.4-1.3-.1-.3-.2-.5-.4-.6-.1.1-.2.1-.4.1h-.2"/><path fill-rule="evenodd" clip-rule="evenodd" fill="#161616" d="M221.6 289.3c-.2.3-.3.6-.3.9-.1.3-.2.6-.3 1-.2.7-.3 1.3-.5 2s-.3 1.3-.5 2l-.3 2.1v-.2c-.2 1.6-.5 3.3-.7 4.9 0 .2 0 .4.1.5.1.2.3.3.4.3.2.1.4 0 .6-.1.1-.1.3-.3.3-.4.3-1.7.5-3.5.8-5.2.1-.8.3-1.6.5-2.4.2-.8.4-1.5.6-2.2.1-.5.3-1 .4-1.6.1-.2.1-.4.2-.6 0-.2.1-.3.1-.5s0-.3-.1-.5-.3-.4-.5-.5h-.2c-.2.2-.5.3-.6.5"/><path fill-rule="evenodd" clip-rule="evenodd" fill="#161616" d="M218.1 302.3c0 .1-.1.2-.1.2 0 .3.3.5.5.6.1.1.3.1.4.2.1 0 .1.1.2.1.2.1.4.2.6.2.2 0 .4.1.7.1.3 0 .5.1.8.1h.5c.1 0 .2 0 .3.1.2 0 .4.1.6.1h.9c.1 0 .2-.1.3-.2.1-.1.2-.3.2-.4 0-.3-.2-.5-.5-.6-.2 0-.4 0-.6-.1h-.3c-.2 0-.3-.1-.5-.1s-.4-.1-.6-.1h-.4c-.4-.1-.9-.1-1.3-.2-.1 0-.2 0-.3-.1-.1 0-.2-.1-.4-.1-.1 0-.3 0-.4-.1h-.1c-.2 0-.4.1-.5.3M253.9 286h-.6c-.4 0-.8.1-1.2.1-.2 0-.5 0-.7.1-.7.1-1.4.1-2.2.2-.9.1-1.7.2-2.6.2-1.3.1-2.6.2-3.9.4l-2.7.3-5.7.6c-.1 0-.3 0-.4.2-.1.1-.1.2-.1.4 0 .1.1.3.1.4.1.1.2.2.4.2l8.1-.9 2.7-.3 3-.3c.8-.1 1.7-.1 2.5-.2v.1c0 .1.1.2.2.3.1.1.2.1.3 0 1-.2 2.1-.4 3.1-.7.2-.1.4-.3.4-.5 0-.3-.2-.5-.5-.5.2-.1 0-.1-.2-.1.1 0 0 0 0 0M249.6 289c-.8.1-1.7.1-2.5.2-.3 0-.6.1-.9.1-.5.1-1.1.1-1.6.2l-2.1.3c-.5.1-1.1.2-1.6.3-.2 0-.5.1-.7.1-.8.2-1.7.3-2.5.5-.9.2-1.8.3-2.7.5-.3.1-.5.1-.8.2-.2 0-.3.2-.2.4 0 .2.2.3.4.2.6-.1 1.2-.3 1.8-.4.4-.1.9-.2 1.3-.2.9-.2 1.9-.3 2.8-.5.1 0 .3 0 .4-.1.4-.1.9-.1 1.3-.2.7-.1 1.5-.2 2.2-.3h-.1c.4 0 .8-.1 1.2-.1.4 0 .7-.1 1.1-.1.8-.1 1.6-.1 2.4-.2.2 0 .5 0 .7-.1.1 0 .2 0 .3-.1.1-.1.1-.2.1-.3.1-.2-.1-.4-.3-.4M249.5 292c-1.1.1-2.3.2-3.4.3l-3.6.3c-.4 0-.8.1-1.3.1-.3 0-.7 0-1 .1-.6 0-1.3.1-1.9.1H236.5c-.3 0-.5.2-.5.5s.2.5.5.5h2.2c.8 0 1.5-.1 2.3-.1.3 0 .7-.1 1-.1.8-.1 1.6-.1 2.3-.2 1.7-.2 3.4-.3 5.2-.5.1 0 .3 0 .4-.1.1-.1.1-.2.1-.4s-.2-.5-.5-.5M239.3 296.9zm9.2-1.9c-1.1 0-2.3.1-3.4.2s-2.2.2-3.2.3c-.5.1-1 .1-1.5.2-.7.1-1.3.2-2 .3-.1 0-.2.1-.2.1-.1.1-.1.2-.1.4 0 .1.1.3.2.4.2.2.4.2.5.1 0 0 .1 0 .1-.1.2 0 .3 0 .5-.1.7-.1 1.5-.2 2.2-.2.5-.1 1-.1 1.5-.1.6-.1 1.1-.1 1.7-.2.6 0 1.1-.1 1.7-.1.7 0 1.3-.1 2-.1.3 0 .5-.2.5-.6 0-.2-.2-.5-.5-.5zM262.3 320c-.3 0-.6 0-.9.1-.7 0-1.3.1-2 .1-.9.1-1.8.2-2.7.2-.5 0-1.1.1-1.6.2l-2.7.3c-1 .1-2 .3-2.9.4-.2 0-.3.2-.4.4-.1.2-.1.4-.1.6 0 .2.2.4.3.5.1 0 .1.1.2.1h.4c.5-.1 1.1-.2 1.6-.2l2.1-.3c.9-.1 1.8-.2 2.8-.4.5-.1 1.1-.1 1.6-.2.7-.1 1.4-.1 2.1-.2.6-.1 1.2-.1 1.8-.2.5-.1 1-.1 1.6-.2.3 0 .5-.2.6-.5 0-.2 0-.4-.1-.5-.1-.1-.2-.3-.4-.3h-.7c-.2.1-.4.1-.6.1M262.5 323c-2.4.2-4.7.4-7.1.5-1.9.1-3.9.2-5.8.4-.2 0-.3.1-.4.2-.1.1-.2.2-.2.4 0 .3.3.6.6.5 1.8-.1 3.6-.2 5.4-.4.4 0 .9-.1 1.3-.1.6-.1 1.3-.1 1.9-.2.7-.1 1.4-.1 2-.2.8-.1 1.5-.1 2.3-.2.1 0 .3 0 .4-.1.1-.1.2-.2.2-.4-.1-.1-.3-.4-.6-.4M293.8 346.9s0 .1 0 0c0 .1 0 0 0 0m-1-7.9c-.2.1-.3.2-.2.4l.3 1.2c.1.3.1.6.2.9.1.3.1.6.2.9.1.4.1.7.2 1.1.1.6.1 1.2.2 1.8l.3 1.8c.1.5.1.9.1 1.4v2.6s-.1 0-.1.1c-.1.1-.2.2-.2.4s-.1.4-.1.6v.7c0 .4-.1.8-.1 1.3 0 .4 0 .9-.1 1.3 0 .4-.1.9-.1 1.3-.1.5-.1 1-.2 1.5l-.3 1.5c-.2 1-.4 2.1-.7 3.1-.1.4-.3.9-.4 1.3-.2.5-.3 1.1-.5 1.6-.3 1-.5 2-.7 3-.1.5-.3 1.1-.4 1.6-.1.2 0 .4.1.6.2.2.5.2.7.1.2-.1.3-.4.4-.6 0-.1.1-.2.1-.4.1-.2.2-.5.2-.7.1-.2.2-.5.2-.7.1-.2.1-.4.2-.6.2-.4.3-.9.5-1.4.2-.5.3-1 .5-1.5.1-.2.2-.5.3-.7.1-.2.2-.5.2-.7.1-.5.3-.9.4-1.4.1-.5.2-1 .3-1.6.1-.5.2-1 .3-1.4.1-.5.2-1 .3-1.6.1-.6.2-1.1.2-1.7.1-.5.1-1 .1-1.5v-1.5c0-.5-.1-1-.1-1.5v-1.5c0-1.1-.1-2.1-.2-3.2l-.3-1.5c-.1-.5-.2-1-.3-1.6-.1-.5-.2-1.1-.2-1.6 0-.2-.1-.4-.1-.6-.1-.3-.1-.6-.2-.8 0-.2-.1-.4-.1-.6-.1-.3-.1-.5-.2-.8-.3-.3-.5-.4-.7-.4"/><path fill-rule="evenodd" clip-rule="evenodd" fill="#161616" d="M292.2 331c-.1 0-.2.1-.2.1v.2c.2 1 .3 2 .5 3 .1.8.3 1.6.5 2.5.1.5.2.9.3 1.4.1.4.2.8.2 1.2.1.9.2 1.7.3 2.6.1.4.1.9.1 1.3s0 .8.1 1.3v5.2c0 .7-.1 1.4-.2 2.1-.1.7-.2 1.3-.3 2-.1.3-.1.6-.2.9-.1.3-.1.6-.1.9-.1.6-.2 1.1-.3 1.7-.1.3-.1.6-.2 1s-.1.7-.2 1.1c-.1.7-.2 1.4-.3 2 0 .1.1.3.2.4.1.1.3.1.4.1.2 0 .3-.1.4-.1l.1-.1c.1-.1.1-.2.1-.3.1-.5.1-.9.2-1.4v.1c.1-.4.1-.9.2-1.3 0-.2.1-.5.1-.7v-.3c0-.1 0-.3.1-.4.1-.4.1-.9.2-1.3s.1-.8.1-1.2c.2-1.8.4-3.5.4-5.3v-2.5-1.4c0-.4 0-.9-.1-1.3 0-.3 0-.6-.1-.9 0-.3-.1-.6-.1-.9-.1-.6-.2-1.2-.3-1.9-.1-.9-.3-1.7-.5-2.6l-.6-2.7c-.1-.7-.3-1.4-.4-2-.1-.7-.2-1.5-.4-2.2 0-.1-.1-.1-.2-.2.4-.1.4-.1.2-.1.1 0 .1 0 0 0"/><path fill-rule="evenodd" clip-rule="evenodd" fill="#161616" d="M292.5 359c-.1 0-.2.1-.2.2-.3.4-.5.8-.7 1.2-.2.4-.4.7-.6 1.1-.2.3-.3.6-.5.9-.2.4-.4.9-.7 1.3l-.3.6c0 .1-.1.2-.1.3 0 .1-.1.1-.1.2s-.1.1-.1.2c-.1.2-.3.5-.3.7 0 .1.1.2.2.3.1 0 .3 0 .3-.1.2-.3.4-.7.6-1l.1-.1v-.1c.2-.3.4-.6.5-.8.2-.4.4-.8.6-1.1.1-.2.2-.5.4-.7.1-.1.2-.3.3-.4 0-.1.1-.1 0-.2.3-.5.5-1.1.7-1.6 0-.1.1-.2.1-.3 0-.2 0-.3-.2-.4-.1 0-.1-.1-.2-.1.3-.1.2-.1.2-.1"/></svg>