<svg width="500" height="600" xmlns="http://www.w3.org/2000/svg"><g fill-rule="evenodd"><path d="M43.5749356 58.8750619C43.5339102 58.8680788 43.4893932 58.8645873 43.4483678 58.8576042 43.4893932 58.8645873 43.5339102 58.8715703 43.5749356 58.8750619M26.9442716 61.3091847C26.9827454 61.2899041 27.0205197 61.2745785 27.0645897 61.2627135 27.0806788 61.260736 27.0946692 61.2587585 27.1107583 61.2587585 27.1275469 61.2587585 27.1408378 61.260736 27.1576264 61.2627135 27.190504 61.2627135 27.2226821 61.268646 27.2527617 61.2800166 27.2800431 61.2899041 27.3080241 61.2992972 27.3325074 61.3131397 27.3569907 61.3264878 27.3842722 61.3398359 27.4087555 61.3536784 27.4304408 61.369004 27.4500274 61.3863071 27.4661165 61.4036102 27.4878017 61.4308008 27.5017922 61.4579914 27.5150832 61.4886426 27.5206794 61.5118782 27.5234775 61.5331363 27.5290737 61.5563719 27.5262756 61.57763 27.5206794 61.5988881 27.5178813 61.6201462 27.5073884 61.6394268 27.496196 61.6567299 27.4850036 61.6760105 27.4276427 61.7496723 27.3353055 61.8094916 27.2226821 61.8361879 27.2121893 61.8401428 27.1981988 61.8421203 27.1849078 61.8460753 27.1548283 61.8846365 27.0974673 61.9118271 27.028914 61.9118271 26.958262 61.9118271 26.8925068 61.9039172 26.8323477 61.8732659 26.7854796 61.8480528 26.7554001 61.8188847 26.7337148 61.782301 26.7022363 61.733358 26.693842 61.6844149 26.7008372 61.6334943L26.6875462 61.6280562C26.6574667 61.6082812 26.6273872 61.5890006 26.6001057 61.5677425 26.6252886 61.5504394 26.6490724 61.5326419 26.6735558 61.5153388 26.6714572 61.4911145 26.6728562 61.4673845 26.6763539 61.4441489 26.679152 61.4095427 26.6931424 61.380869 26.7281186 61.3576334 26.7581982 61.3343978 26.8050663 61.3205553 26.8512349 61.3205553 26.8708215 61.3205553 26.8897087 61.3245103 26.9085958 61.3284653 26.9197882 61.3205553 26.9330792 61.3151172 26.9442716 61.3091847M26.2034756 58.9821642C26.039787 59.0227029 25.8760984 59.0765897 25.7229026 59.136409 25.5725049 59.1947452 25.4416939 59.2812607 25.3073853 59.360855 25.1325043 59.4631905 24.9905009 59.6021097 24.8568918 59.737074 24.7337756 59.8221064 24.6323446 59.9244419 24.5316132 60.0213393 24.3399436 60.2007972 24.1979402 60.3861876 24.0916126 60.5987686 24.0286554 60.7223622 23.9873835 60.855349 23.9552054 60.9848751 23.8782577 61.2879266 23.8153006 61.5796075 23.9768906 61.8767266 24.1790531 62.2494849 24.5505003 62.5817045 24.9716138 62.8442173 25.1625839 62.9643503 25.3731406 63.072124 25.5892935 63.1709989 25.8348264 63.2827275 26.1384199 63.3445243 26.4168304 63.3949505 26.9603606 63.4913535 27.5290737 63.4641629 28.0754019 63.4043436 28.367803 63.3717149 28.6469131 63.3099181 28.9169293 63.2248857 29.0484399 63.184347 29.1764528 63.1378758 29.3051652 63.0899214 29.458361 63.0315853 29.6437348 62.9505079 29.766851 62.8639923 30.1683778 62.5742889 30.4090141 62.2089462 30.5020508 61.8114691 30.5950875 61.4036102 30.6027823 60.9888301 30.3978217 60.5967911 30.1984574 60.2082128 29.9529244 59.7756352 29.5374072 59.4765386 29.3380428 59.3336644 29.0757213 59.2234189 28.8266907 59.1289934 28.5671673 59.0325904 28.2859587 58.9589286 28.00475 58.9010868 27.7802028 58.8526381 27.553557 58.83138 27.3269112 58.83138 26.9470697 58.83138 26.5672281 58.8911993 26.2034756 58.9821642" transform="translate(210 122)"/><path d="M30.9258373 61.5138305C30.7311847 61.5339068 30.6360407 61.5548559 30.4623373 61.6403983 30.3977441 61.6744407 30.3357695 61.7180847 30.2711763 61.7556186 30.0756508 61.8656017 29.8722695 61.9624915 29.6662695 62.0558898 29.3433034 62.1807119 29.0020068 62.2549068 28.6650746 62.3291017 28.3595661 62.3954407 28.0558034 62.459161 27.7511678 62.5062966 27.3269475 62.5612881 26.9001085 62.6188983 26.4758881 62.6765085 26.5413542 62.6660339 26.6024559 62.6590508 26.6670492 62.6494492 26.0088966 62.7044407 25.3297949 62.6852373 24.6725153 62.6110424 24.4700068 62.577 24.2762271 62.5289915 24.0833203 62.4617797 23.8572441 62.3404492 23.637278 62.2086441 23.4146932 62.0794576 23.1039475 61.9022627 22.6980576 62.0043898 22.5138797 62.3151356 22.3366847 62.6223898 22.4388119 63.0378814 22.7495576 63.2150763 22.9197695 63.3110932 23.0899814 63.4097288 23.2610661 63.5048729 23.6154559 63.71 23.9838119 63.8287119 24.3827186 63.9037797 24.8051932 63.982339 25.2416339 64.0128898 25.6684729 64.0504237 25.9678712 64.0748644 26.2681424 64.1089068 26.5684136 64.1019237 26.881778 64.0984322 27.1960153 64.0504237 27.5058881 64.0128898 27.8707525 63.9692458 28.2391085 63.9247288 28.5969898 63.842678 28.9208288 63.7676102 29.2446678 63.6890508 29.5685068 63.6043814 30.0119305 63.4882881 30.4282949 63.3041102 30.8437864 63.1199322 31.1239814 62.9968559 31.3963203 62.8982203 31.553439 62.6084237 31.6791339 62.3797288 31.6861169 62.1038983 31.553439 61.8752034 31.4408373 61.6831695 31.2051593 61.5120847 30.9703542 61.5120847 30.9555153 61.5120847 30.9406763 61.5129576 30.9258373 61.5138305M53.5232384 62.1070861C53.5452509 62.1159102 53.5659687 62.1251986 53.5873338 62.1349515 53.590571 62.1368092 53.5925133 62.1386669 53.5957504 62.140989 53.617763 62.165139 53.6378333 62.189289 53.6566087 62.2139034 53.6702047 62.2478062 53.6818585 62.2807803 53.6928647 62.3142187 53.694807 62.3634475 53.694807 62.4117475 53.6915699 62.4609763 53.672147 62.528782 53.6507819 62.5956589 53.6261796 62.6620714 53.5892761 62.6699666 53.5517252 62.6778617 53.5141743 62.6857569 53.4947515 62.6876146 53.475976 62.6894723 53.4559057 62.69133 53.37174 62.6973675 53.2882216 62.7006185 53.2040559 62.7006185 53.1554987 62.6917944 53.1069415 62.6820415 53.0590318 62.6713598 53.0570895 62.670431 53.0544998 62.6695021 53.0525575 62.6685733 53.0344295 62.6560339 53.0169489 62.6425656 52.9988209 62.6290974 52.9878146 62.6160935 52.9774557 62.6030897 52.9677443 62.5900858 52.9489689 62.5506099 52.9327831 62.5106695 52.9172448 62.4702648L52.9172448 62.4605119C52.9282511 62.4284667 52.9405523 62.396886 52.9535009 62.3648408 52.9845775 62.3249004 53.0175963 62.2858889 53.0519101 62.2478062 53.0965827 62.2129745 53.1412553 62.1790717 53.1878701 62.1460977 53.2545553 62.1307717 53.3212405 62.1177679 53.3892206 62.1070861 53.4345406 62.1061573 53.4792132 62.1061573 53.5232384 62.1070861M52.660863 60.0515509C52.537204 60.0640903 52.4180771 60.0965999 52.3015399 60.1277163 51.6489315 60.2963017 51.0345214 60.5378016 50.5392382 60.8893696 50.0355385 61.2469752 49.7370738 61.753196 49.734484 62.2575591 49.734484 62.3987437 49.7830412 62.5403926 49.8134704 62.6783262 49.8335407 62.7707463 49.8639698 62.8562001 49.9067001 62.9449048 50.0484871 63.2425998 50.291273 63.4947814 50.6072183 63.7088803 50.6389423 63.7302438 50.6713138 63.7511428 50.7036852 63.7720418 50.8474144 63.9341254 51.0280471 64.0818118 51.2319872 64.2020973 51.4870743 64.354428 51.7654687 64.4417395 52.076882 64.5234779 52.3623982 64.5977855 52.6887024 64.6228643 52.9897569 64.6265797 53.3439005 64.6321528 53.712935 64.5866394 54.0470084 64.5067586 54.5902013 64.3743982 55.1036125 64.1352204 55.4959544 63.8356677 55.6636385 63.7079515 55.7944192 63.5639804 55.8973604 63.4107209 55.9744044 63.3429152 56.0456216 63.2727873 56.1181337 63.2026595 56.3304904 62.9959913 56.370631 62.7219819 56.4062395 62.474909 56.4670979 62.0652881 56.3686887 61.6278018 56.0423845 61.2813424 56.0307307 61.2697319 56.0197245 61.2585857 56.0087182 61.2469752 55.9983593 61.2311848 55.9892953 61.2158588 55.9789364 61.199604 55.8397392 60.9822542 55.6073122 60.7862678 55.3923658 60.6065361 55.0913113 60.3506392 54.6814888 60.2182787 54.2593651 60.0984576 54.0767901 60.0478355 53.8469528 60.0385471 53.6624356 60.0204346 53.5381292 60.0078952 53.4196497 60.0023221 53.2953434 60.0004644 53.2810999 60 53.2668565 60 53.2519656 60 53.0538524 60 52.8563865 60.032974 52.660863 60.0515509" transform="translate(210 122)"/><path d="M50.5452424 63.5067932C50.5731746 63.5181407 50.599361 63.5286153 50.6272932 63.5399627 50.599361 63.5294881 50.5723017 63.5181407 50.5452424 63.5067932M48.5987169 63.1969203C48.4311237 63.4797339 48.5166661 63.8952254 48.8195559 64.0523441 49.2769458 64.2845305 49.7404458 64.5123525 50.2109288 64.7139881 50.6368949 64.8981661 51.0707169 65.0107678 51.5272339 65.0823441 51.7559288 65.119878 51.9837508 65.1399542 52.2089542 65.1670136 52.5362847 65.2045475 52.8636153 65.2350983 53.1909458 65.266522 53.3681407 65.2796153 53.5488271 65.2761237 53.7268949 65.2796153 53.8901237 65.2865983 54.0603356 65.2865983 54.2244373 65.2700136 54.6338186 65.2350983 55.0388356 65.1844712 55.4412339 65.1024203 55.7650729 65.0343356 56.0793102 64.9322085 56.3926746 64.8335729 56.7069119 64.7340644 57.0202763 64.6520136 57.3301492 64.5429034 57.4942508 64.4852932 57.6574797 64.4241915 57.8180898 64.3526153 57.9717169 64.281039 58.118361 64.1920051 58.2274712 64.0523441 58.2990475 63.9807678 58.3496746 63.8917339 58.3776068 63.7930983 58.4212508 63.6394712 58.3976831 63.4727508 58.3191237 63.3365814 58.1969203 63.1279627 57.8931576 62.9682254 57.6513695 63.0633695 57.5588441 63.1009034 57.4567169 63.118361 57.3615729 63.1454203 57.2419881 63.1759712 57.1224034 63.2100136 57.0028186 63.2440559 56.7069119 63.3295983 56.4136237 63.4081576 56.1168441 63.4867169 55.8715644 63.5513102 55.6323949 63.6359797 55.3836237 63.6944627 55.0964458 63.766039 54.8092678 63.8201576 54.5168525 63.869039 54.0725559 63.9144288 53.623022 63.9449797 53.174361 63.9292678 52.7012593 63.9126831 52.2316492 63.8777678 51.762039 63.839361 51.3849542 63.7826237 51.0253271 63.6944627 50.6700644 63.5565475 50.2589373 63.375861 49.8513017 63.1785898 49.4506492 62.9752085 49.3476492 62.9219627 49.2367932 62.8949034 49.1285559 62.8949034 48.9181915 62.8949034 48.7156831 62.9961576 48.5987169 63.1969203M36.3980178 56.2040932C36.0811619 56.3882712 35.999111 56.7810678 36.1623398 57.0944322 36.2958907 57.353678 36.4250771 57.6085593 36.5446619 57.8721695 36.7428059 58.3662203 36.83795 58.8777288 36.9234924 59.398839 37.0046703 60.0770678 37.0631534 60.759661 37.0832297 61.4448729 37.1041788 62.1571441 37.0596619 62.8798898 36.9915771 63.5895424 36.8449331 65.0690763 36.6642466 66.5494831 36.4835602 68.0290169 36.2958907 69.2597797 36.1012381 70.4905424 35.7878737 71.7012288 35.6272636 72.3113729 35.4361025 72.9119153 35.2458144 73.5150763 35.0991703 73.9689746 34.9935517 74.4429492 34.8163568 74.8855 34.7954076 74.9300169 34.7753314 74.9780254 34.7543822 75.025161 34.638289 75.2913898 34.6217042 75.3524915 34.5841703 75.643161 34.5667127 75.7924237 34.6557466 76.0586525 34.7308144 76.1887119 34.8163568 76.3344831 34.9760941 76.5055678 35.1332127 76.5806356 35.29295 76.6722881 35.4640347 76.7202966 35.6482127 76.7202966 35.9205517 76.7202966 36.183289 76.6111864 36.3709585 76.4200254 36.5787042 76.2157712 36.6808314 75.9294661 36.6677381 75.6492712 36.6860686 75.5707119 36.7070178 75.4930254 36.7288398 75.4144661 36.6633737 75.2372712 36.6345686 75.0487288 36.6572636 74.8549492 36.7078907 74.4080339 36.7358229 74.2753559 36.9165093 73.8729576 37.0081619 73.6617203 37.1635347 73.4827797 37.3154161 73.3082034 37.5039585 72.6238644 37.6715517 71.9369068 37.8059754 71.2377288 37.9936449 70.2862881 38.0791873 69.3112797 38.1882975 68.3458729 38.2904246 67.4459322 38.3419246 66.5355169 38.419611 65.6320847 38.4815856 64.9503644 38.5391958 64.2712627 38.5872042 63.5895424 38.6317212 62.9793983 38.6142636 62.3718729 38.5732381 61.7652203 38.5287212 61.0459661 38.4606364 60.3302034 38.3480347 59.6170593 38.3008992 59.3071864 38.2354331 58.9999322 38.1708398 58.6935508 38.088789 58.3217034 37.9831703 57.956839 37.8470008 57.5989576 37.6933737 57.2000508 37.4891195 56.8177288 37.2909754 56.4362797 37.1792466 56.227661 36.9540432 56.1185508 36.7253483 56.1185508 36.6127466 56.1185508 36.4966534 56.1464831 36.3980178 56.2040932" transform="translate(210 122)"/><path d="M51.7556669,89.8656669 C52.1406076,89.5898364 52.5264212,89.3131331 52.9148534,89.0407941 L53.3783534,88.7134636 L53.535472,88.6043534 L53.6960822,88.4917517 C53.7746415,88.9412856 53.9413619,89.3541585 54.2040992,89.7801246 L54.2756754,89.8962178 L53.6105398,89.9337517 L52.7551161,90.0227856 C52.2095653,90.0908703 51.7417008,90.144989 51.2782008,90.1929975 C51.4457941,90.0838873 51.6055314,89.9747771 51.7556669,89.8656669 M65.8919805,59.6622263 L66.0595737,58.1381754 L66.2027263,56.7913195 C66.3083449,55.7316415 66.4139636,54.7252093 66.4069805,53.71965 L66.4069805,53.3478025 L66.4069805,53.0379297 C66.403489,52.5194381 66.3999975,52.0044381 66.3869042,51.4859466 L66.5195822,51.5339551 C66.6863025,51.526972 66.8233449,51.5243534 66.9664975,51.5243534 C67.0206161,51.5243534 67.0686246,51.5243534 67.1201246,51.526972 L67.242328,51.5749805 C67.3444551,51.9154042 67.4230144,52.2741585 67.4814975,52.6695737 C67.4945907,52.7882856 67.5085568,52.9148534 67.5190314,53.0405483 C67.5565653,53.3713703 67.5495822,53.7397263 67.4945907,54.23465 C67.293828,55.5195314 66.9394381,56.7817178 66.5981415,58.0020059 L66.4209466,58.61215 L66.1922517,59.4274212 L66.0255314,60.0270907 L65.800328,60.8353788 L65.6912178,61.2377771 L65.6571754,61.3538703 C65.7418449,60.8659297 65.8204042,60.3238703 65.8919805,59.6622263 M12.0116331,62.6867602 L11.7628619,62.6116924 C11.4250568,62.4310059 11.0916161,62.2162771 10.7127856,61.9404466 C10.5591585,61.8173703 10.4160059,61.6846924 10.2798364,61.5380483 C10.1567602,61.3608534 10.0441585,61.1461246 9.94203136,60.9279042 C9.78491271,60.5150314 9.71333644,60.0550229 9.64525169,59.5775568 L9.60160763,59.17865 C9.51955678,58.4524127 9.45147203,57.8012432 9.46805678,57.1561839 C9.48551441,56.4334381 9.51257373,55.6661754 9.5981161,54.9303364 C9.72730254,54.1796585 9.86696356,53.4464381 10.1192263,52.7856669 C10.3889466,52.1851246 10.6988195,51.6465568 11.0401161,51.1856754 C11.1012178,51.1114805 11.1666839,51.0460144 11.2382602,50.9814212 C11.3264212,50.916828 11.4250568,50.8618364 11.5210737,50.8077178 L11.7087432,50.7562178 L11.8038873,50.7701839 L11.9025229,50.7876415 L11.9095059,51.3427941 L11.8518958,52.74115 C11.8003958,53.8828788 11.8003958,54.8212263 11.8518958,55.6906161 C11.8955398,56.3993958 11.9435483,57.1125398 11.9950483,57.824811 L12.0666246,58.8818703 C12.1347093,59.877828 12.188828,60.8694212 12.2228703,61.8688703 C12.2333449,62.16565 12.240328,62.4554466 12.2438195,62.7417517 L12.2508025,62.7522263 C12.1652602,62.7242941 12.0832093,62.7007263 12.0116331,62.6867602 M16.9425398,40.2921161 L17.1948025,40.2100653 L17.838989,40.0023195 C18.5137263,39.7875907 19.1622771,39.5222347 19.9321585,39.1870483 C20.1914042,39.0779381 20.45065,38.968828 20.7133873,38.8675737 C21.4055822,38.5943619 22.1082517,38.2495737 22.7079212,37.9493025 L22.841472,37.8855822 L23.4647093,37.5748364 C23.7859297,37.4177178 24.1027856,37.2475059 24.4231331,37.0738025 L24.5086754,37.0292856 L24.9512263,36.7901161 C25.3265653,36.5928449 25.6984127,36.3947008 26.0737517,36.1904466 C27.0487602,35.664972 28.006311,35.1264042 28.9612432,34.5773619 C29.7014466,34.1479042 30.4722008,33.6599636 31.096311,33.2610568 L31.2525568,33.1589297 L31.6654297,32.8935737 L32.8420737,32.1298025 C33.001811,32.0268025 33.1589297,31.9142008 33.3160483,31.802472 L33.4932432,31.6724127 L33.6259212,31.5807602 L33.707972,31.5222771 C33.8746924,31.4061839 33.9977686,31.3180229 34.1138619,31.2185144 L34.4167517,30.9767263 L34.5127686,30.8981669 C34.7816161,30.6799466 35.0478449,30.4617263 35.3035992,30.2304127 L35.5384042,30.0121924 C35.8456585,29.7319975 36.1459297,29.4596585 36.452311,29.1864466 C36.8992263,28.7875398 37.3496331,28.3886331 37.7991669,27.9932178 L37.8672517,27.9356076 C38.2940907,27.5532856 38.6275314,27.2538873 38.9347856,26.9326669 L39.1940314,26.6638195 C39.4497856,26.4010822 39.8355992,26.0056669 40.1184127,25.6268364 C40.2650568,25.4260737 40.3907517,25.2314212 40.5173195,25.0306585 L40.5714381,24.9486076 L40.660472,24.8124381 L40.7390314,24.6963449 L40.8891669,24.4781246 C40.9232093,24.6858703 41.0052602,24.8560822 41.0934212,25.0236754 L41.1484127,25.122311 L41.3046585,25.4260737 C41.5228788,25.8319636 41.7821246,26.2308703 42.1234212,26.6838958 C42.3861585,27.0147178 42.668972,27.3629975 43.0032856,27.645811 C43.2276161,27.8395907 43.4632941,28.0307517 43.698972,28.2149297 L44.1895314,28.5972517 L45.1750144,29.3610229 C46.112489,30.0837686 46.9103025,30.6563788 47.6234466,31.1094042 C48.3182602,31.5737771 49.1405144,32.0032347 49.6825737,32.2860483 L49.8187432,32.3541331 L49.9042856,32.3951585 L50.0168873,32.4536415 L50.2962093,32.5933025 L50.9203195,32.9206331 L51.1586161,33.0428364 C52.1004551,33.5272856 53.0414212,34.0117347 53.9928619,34.4682517 C55.3938364,35.1403703 56.7372008,35.6920314 57.8658364,36.1459297 L57.9889127,36.2009212 C58.4759805,36.4121585 58.9909805,36.6373619 59.4719381,36.8896246 C60.0820822,37.209972 60.6005737,37.5303195 61.0675653,37.8716161 C61.2107178,37.9946924 61.3433958,38.1334805 61.4970229,38.3316246 C61.7187347,38.6179297 61.9334636,38.9286754 62.1281161,39.2385483 C62.3253873,39.5588958 62.496472,39.8897178 62.6841415,40.3156839 C63.1712093,41.587472 63.5395653,43.0137602 63.8398364,44.8031669 C63.9655314,45.8707008 64.0615483,46.7566754 64.0920992,47.6199551 C64.1025737,47.8818195 64.1086839,48.1419381 64.1121754,48.400311 C64.1156669,48.6255144 64.1191585,48.8472263 64.1261415,49.0689381 L64.1671669,50.1015568 C63.9044297,50.2892263 63.7813534,50.7020992 63.8808619,51.0704551 C63.9454551,51.2851839 64.0650398,51.4588873 64.2247771,51.571489 L64.2012093,53.6271246 C64.2012093,54.2381415 64.1767686,54.7627432 64.1366161,55.2367178 C64.1051924,55.6085653 64.0650398,55.9804127 64.0205229,56.3487686 L63.9794975,56.7136331 L63.938472,57.0540568 L63.8974466,57.3953534 L63.8738788,57.5926246 C63.8188873,58.0360483 63.7778619,58.3773449 63.7438195,58.7177686 C63.6687517,59.457972 63.5910653,60.1981754 63.4985398,60.9375059 C63.3414212,62.0731246 63.2087432,62.8473703 63.0455144,63.6111415 C62.9329127,64.1636754 62.7993619,64.6987517 62.6527178,65.2373195 C62.5401161,65.6702686 62.4004551,66.0971076 62.2607941,66.5230737 L62.2162771,66.6557517 C61.9849636,67.3959551 61.6846924,68.2548703 61.1836585,69.6226754 C61.0230483,70.0591161 60.8694212,70.4920653 60.7166669,70.9319975 L60.6171585,71.2113195 L60.5185229,71.4941331 C60.4233788,71.7804381 60.3238703,72.0667432 60.2182517,72.3565398 C59.972972,73.0426246 59.7032517,73.7138703 59.4274212,74.385989 L59.3898873,74.4776415 C59.0931076,75.1558703 58.7937093,75.8419551 58.4689975,76.5132008 C58.0665992,77.3415653 57.6650737,78.167311 57.2452178,78.9817093 C56.4919212,80.4341839 55.4889805,81.8115907 54.6815653,82.9166585 L54.4493788,83.2335144 C53.852328,83.9972856 53.1706076,84.7514551 52.2977263,85.6068788 C51.902311,85.9988025 51.5068958,86.3776331 51.114972,86.7320229 L51.2275737,86.7590822 L51.3017686,86.7355144 L51.0870398,86.8647008 C50.7972432,87.069828 50.5144297,87.2740822 50.2351076,87.4853195 C50.1085398,87.5778449 49.9828449,87.6764805 49.8597686,87.7751161 L48.9703025,88.4201754 C48.7581924,88.570311 48.5434636,88.7204466 48.3252432,88.8662178 L48.3217517,88.8601076 L48.1751076,88.9142263 C48.0048958,88.9892941 47.8416669,89.078328 47.6740737,89.1699805 L47.5003703,89.2721076 C46.443311,89.8482093 45.5878873,90.2785398 44.81015,90.6189636 C44.4592517,90.7621161 44.1004975,90.8817008 43.7356331,91.0012856 L43.4083025,91.1103958 L43.2860992,91.1514212 C43.0879551,91.2195059 42.8976669,91.2840992 42.7030144,91.3486924 C42.3276754,91.4647856 41.9497178,91.5564381 41.5639042,91.645472 C41.2845822,91.696972 40.9982771,91.7345059 40.711972,91.7685483 L40.4282856,91.8060822 L40.2135568,91.8226669 L39.9377263,91.8401246 L39.5833364,91.8671839 C39.5012856,91.8706754 39.4157432,91.8741669 39.3267093,91.8741669 C39.115472,91.8741669 38.9077263,91.8636924 38.6991076,91.8497263 L38.5629381,91.8401246 C38.0243703,91.8025907 37.4858025,91.7345059 36.9507263,91.6629297 L36.8346331,91.6559466 C35.9207263,91.5258873 34.958811,91.2806076 34.1889297,91.0833364 L33.9087347,91.0143788 L33.6058449,90.9366924 C32.9852263,90.7725907 32.4457856,90.6259466 31.9176924,90.4487517 C31.3887263,90.2680653 30.8676161,90.0664297 30.3491246,89.8551924 C30.0287771,89.7120398 29.7154127,89.5584127 29.4011754,89.4056585 C29.2414381,89.3270992 29.0843195,89.2450483 28.9306924,89.1629975 L28.7840483,89.0879297 C28.6583534,89.0198449 28.5282941,88.9517602 28.3991076,88.8906585 C27.9626669,88.6794212 27.6789805,88.5388873 27.4136246,88.3721669 C27.1508873,88.2150483 26.8986246,88.0308703 26.6533449,87.8440737 C26.4211585,87.6598958 26.1924636,87.4617517 25.9742432,87.2540059 C25.7664975,87.0628449 25.5718449,86.8411331 25.3815568,86.6229127 L25.2445144,86.4657941 L25.1083449,86.3130398 C24.7539551,85.9237347 24.3821076,85.5527602 24.0067686,85.1809127 L23.8705992,85.0447432 C23.6829297,84.8605653 23.4987517,84.6763873 23.3145737,84.4852263 L23.2229212,84.3900822 C22.6538025,83.7965229 22.0672263,83.1828873 21.5286585,82.5552856 C21.244972,82.2279551 20.9691415,81.8971331 20.693311,81.566311 C20.1233195,80.6052686 19.4415992,79.6948534 18.7799551,78.8114975 L18.4290568,78.2964975 C18.1252941,77.7989551 17.6783788,77.0447856 17.2969297,76.2094381 C17.1607602,75.8419551 17.0481585,75.4596331 16.9390483,75.0781839 L16.9015144,74.9551076 C16.808989,74.6347602 16.720828,74.3074297 16.6352856,73.9835907 L16.6082263,73.8814636 L16.5776754,73.7688619 L16.53665,73.6222178 L16.4205568,73.1857771 C16.2224127,72.4630314 16.0111754,71.678311 15.8610398,70.9145398 C15.7763703,70.5016669 15.7013025,70.0826839 15.6262347,69.6602093 L15.5782263,69.397472 L15.5310907,69.1382263 C15.4760992,68.8248619 15.4219805,68.5176076 15.3600059,68.2077347 L15.2779551,67.7608195 L15.2474042,67.5967178 C15.1147263,66.8984127 14.9951415,66.2463703 14.8930144,65.5917093 C14.8415144,65.1962941 14.7908873,64.8008788 14.7699381,64.4054636 C14.7428788,63.8834805 14.7228025,63.3623703 14.7053449,62.8403873 L14.6983619,62.4859975 C14.6713025,61.5651076 14.6477347,60.6616754 14.5857602,59.8027602 C14.5517178,59.2947432 14.5115653,58.7832347 14.4705398,58.2752178 L14.4565737,58.1076246 C14.343972,56.6787178 14.2278788,55.1991839 14.2584297,53.6952093 C14.2723958,53.1260907 14.2994551,52.5604636 14.3308788,51.990472 L14.3745229,51.0800568 C14.4050737,50.3162856 14.4155483,49.5525144 14.4225314,48.7852517 L14.4260229,48.5024381 C14.4426076,47.5309212 14.4740314,46.7261246 14.5211669,46.0444042 L14.5621924,45.4613195 L14.5831415,45.1959636 C14.6206754,44.6800907 14.6582093,44.1895314 14.7088364,43.6980992 L14.7943788,43.176989 L14.8825398,42.6139805 L14.8965059,42.5153449 C14.9340398,42.2560992 14.9715737,41.9933619 14.9820483,41.7280059 C14.9881585,41.6119127 14.9820483,41.492328 14.9715737,41.3771076 C14.9610992,41.2601415 14.9576076,41.1885653 14.9576076,41.116989 C14.9576076,41.0043873 14.9480059,40.932811 14.9305483,40.8682178 L15.0222008,40.8752008 C15.6707517,40.704989 16.3254127,40.4963703 16.9425398,40.2921161 M44.022811,0.347319492 L43.4257602,0.375251695 C42.7065059,0.398819492 41.9837602,0.402311017 41.2671246,0.405802542 L40.9912941,0.405802542 L40.7215737,0.409294068 C39.9717686,0.412785593 39.1390398,0.459921186 38.0278619,0.55855678 C37.3321754,0.624022881 36.636489,0.671158475 35.937311,0.719166949 L35.4092178,0.756700847 C34.81915,0.794234746 34.2325737,0.851844915 33.6459975,0.910327966 L32.91365,0.985395763 C31.8600822,1.09101441 30.9837093,1.18615847 30.0828958,1.37731949 C29.1899381,1.57197203 28.2830144,1.86787881 27.682472,2.06253136 L27.4782178,2.12712458 C26.5608195,2.41692119 25.6748449,2.86034492 24.8936161,3.25226864 L24.0992941,3.65117542 C23.4551076,3.97588729 22.8135398,4.29972627 22.1763364,4.63665847 C20.4715992,5.53048898 18.8384381,6.5735822 17.3204975,7.73276864 C16.6387771,8.26522627 15.9570568,8.84831102 15.2578788,9.44798051 L15.1863025,9.51257373 L14.8999975,9.76134492 C14.1126585,10.4474297 13.3925314,11.12915 12.7003364,11.8518958 C12.2202517,12.3599127 11.7558788,12.8784042 11.2853958,13.4064975 L10.7092941,14.0541754 C9.88791271,14.9715737 9.16516695,15.9125398 8.62223475,16.6291754 C8.15524322,17.2463025 7.73276864,17.9175483 7.39147203,18.4596076 L7.30680254,18.5992686 L7.06414153,18.9850822 C6.53604831,19.8169381 6.04112458,20.641811 5.59159068,21.4431161 L5.43447203,21.723311 C5.1411839,22.2444212 4.85138729,22.7664042 4.5650822,23.2944975 C4.06753983,24.2049127 3.70616695,25.1528619 3.37883644,26.0466924 C3.01746356,27.0417771 2.69013305,28.0447178 2.41342966,29.0267093 C2.26329407,29.5757517 2.1306161,30.1274127 1.99793814,30.684311 L1.92287034,31.0002941 L1.84431102,31.3110398 L1.71774322,31.8120737 C1.48992119,32.7059042 1.29876017,33.5752941 1.02903983,34.9186585 C0.667666949,36.7805144 0.429370339,38.7610822 0.268760169,41.1545229 C0.15965,42.8592602 0.0775991525,44.7315907 0.0164974576,47.0429805 C-0.0175449153,48.4483195 0.00602288136,49.9514212 0.0374466102,51.3637432 L0.0610144068,52.7952686 C0.0775991525,53.7502008 0.118624576,54.6841839 0.180599153,55.6530822 C0.214641525,56.1331669 0.22424322,56.6106331 0.234717797,57.0915907 L0.241700847,57.2652941 L0.245192373,57.449472 L0.265268644,58.2952941 C0.316768644,59.8804466 0.418895763,61.4359212 0.528005932,63.0245653 L0.541972034,63.232311 L0.555065254,63.4470398 L0.599582203,64.0746415 L0.61005678,64.2413619 C1.05260763,65.7758873 1.44016695,67.3235059 1.84780254,68.8650144 C2.05554831,69.6462432 2.25020085,70.4300907 2.45445508,71.2113195 C2.61855678,71.8319381 2.83677712,72.4316076 3.06110763,73.0286585 C3.50802288,74.143328 3.99247203,75.2309381 4.45597203,76.3360059 C4.89939576,77.3825907 5.33234492,78.4291754 5.78886186,79.46965 C6.29687881,80.6218534 6.84242966,81.757472 7.39496356,82.8895992 C7.56866695,82.97165 7.72927712,83.0833788 7.87242966,83.2274042 C8.46249746,83.8131076 8.96353136,84.5053025 9.48202288,85.156472 C9.89402288,85.6819466 10.3103873,86.2039297 10.7267517,86.7285314 C11.5891585,87.8266161 12.4550568,88.9247008 13.3113534,90.0288958 C13.8595229,90.7385483 14.4085653,91.447328 14.9576076,92.153489 C15.6157602,92.940828 16.2739127,93.7255483 16.9495229,94.4963025 C17.1267178,94.625489 17.2733619,94.7930822 17.3789805,94.9798788 C17.4976924,95.1134297 17.6172771,95.2461076 17.7368619,95.3752941 C18.0126924,95.6825483 18.2928873,95.986311 18.5652263,96.2961839 C18.6097432,96.3476839 18.6603703,96.4018025 18.7118703,96.4602856 C18.9911924,96.6680314 19.2774975,96.8626839 19.5777686,97.0398788 C19.6362517,97.0599551 19.6973534,97.0809042 19.7584551,97.097489 C19.7890059,97.1009805 19.8204297,97.1009805 19.854472,97.104472 C20.2839297,96.8967263 20.8190059,96.7623025 21.2982178,96.8408619 C21.3636839,96.6758873 21.4274042,96.5091669 21.4911246,96.3407008 C21.664828,95.8841839 21.8315483,95.4233025 21.9921585,94.9598025 C22.1929212,94.3566415 22.3299636,93.7150737 22.45915,93.0979466 L22.5481839,92.6850737 C22.782989,91.5599297 22.9261415,90.6905398 23.0116839,89.8691585 C23.0902432,89.0949127 23.0527093,88.2866246 22.8955907,87.3971585 C23.106828,87.6319636 23.2744212,87.8065398 23.4411415,87.9837347 L23.7143534,88.2840059 C23.9666161,88.563328 24.1638873,88.7815483 24.3821076,88.9788195 C24.7364975,89.3026585 25.0952517,89.5898364 25.44615,89.8246415 C25.7900653,90.0603195 26.188972,90.3291669 26.5817686,90.5342941 C26.7720568,90.6364212 26.9667093,90.7350568 27.1648534,90.8302008 L27.2460314,90.8747178 L27.7304805,91.1199975 C28.1843788,91.3556754 28.6443873,91.5843703 29.1148703,91.7956076 C30.0113195,92.2145907 30.9322093,92.5663619 31.8461161,92.8352093 C32.7390737,93.1119127 33.6023534,93.3467178 34.4132602,93.5343873 L34.6934551,93.602472 L34.8086754,93.6365144 C35.0818873,93.7080907 35.3516076,93.7761754 35.6204551,93.8346585 C36.0123788,93.9132178 36.4051754,93.9638449 36.7970992,94.0153449 L36.9227941,94.0319297 L37.2300483,94.0729551 C37.9152602,94.1654805 38.6554636,94.25015 39.4087602,94.25015 C39.5964297,94.25015 39.7910822,94.2440398 39.9822432,94.2335653 C40.5277941,94.1960314 41.0663619,94.1209636 41.6049297,94.0458958 C42.153972,93.9638449 42.5973958,93.8687008 42.9997941,93.7526076 C43.3987008,93.6400059 43.7906246,93.507328 44.1825483,93.3711585 L44.2881669,93.3301331 L44.3937856,93.2960907 C44.4217178,93.3091839 44.4758364,93.3196585 44.5404297,93.3196585 C44.670489,93.3196585 44.81015,93.3030737 44.9707602,93.27165 C45.1479551,93.2341161 45.3181669,93.1590483 45.4822686,93.087472 L45.7065992,92.9818534 C46.1089975,92.8186246 46.4983025,92.6309551 46.8902263,92.4397941 C46.8492008,92.477328 46.8457093,92.5489042 46.8457093,92.6108788 C46.8422178,93.2995822 47.1765314,93.9062347 47.7631076,94.2780822 L47.9132432,94.3732263 C47.9472856,94.5539127 48.0083873,94.7450737 48.0869466,94.9388534 C48.3837263,95.7026246 48.8472263,96.3922008 49.2155822,96.9438619 L49.4338025,97.2711924 C50.0064127,98.1475653 50.78415,98.9523619 51.7382093,99.6655059 C52.0114212,99.8662686 52.3082008,100.043464 52.601489,100.217167 L52.7446415,100.306201 L53.1191076,100.534896 C53.6000653,100.851752 54.0810229,101.159006 54.5785653,101.445311 L54.7190992,101.526489 C55.3117856,101.867786 55.8442432,102.18115 56.324328,102.546014 C56.5259636,102.737175 56.7136331,102.948413 56.8943195,103.197184 C57.0846076,103.48087 57.2661669,103.814311 57.4328873,104.18965 C57.5996076,104.70465 57.7157008,105.264167 57.8082263,106.003497 C57.8658364,106.811786 57.8963873,107.507472 57.8963873,108.128091 C57.8998788,108.496447 57.8859127,108.868294 57.8728195,109.235777 L57.869328,109.335286 C57.8553619,109.730701 57.8457602,110.095565 57.8483788,110.46043 C57.8658364,111.912904 57.8352856,113.429972 57.7602178,115.233345 C57.7331585,116.000608 57.7741839,116.764379 57.8213195,117.549099 L57.8317941,117.681777 C57.8798025,118.551167 57.9339212,119.448489 58.0500144,120.300421 C58.1695992,121.166319 58.4419381,121.981591 58.6671415,122.595226 C59.0660483,123.709896 59.7242008,124.811472 60.6171585,125.872023 C61.0675653,126.400116 61.4804381,126.816481 61.9133873,127.184836 L62.1822347,127.41004 C62.437989,127.62826 62.6937432,127.842989 62.9494975,128.054226 C63.1607347,128.224438 63.3658619,128.385048 63.6006669,128.524709 C63.7202517,128.599777 63.8529297,128.660879 63.989972,128.722853 L64.2047008,128.821489 L64.5215568,128.975116 C65.0470314,129.23087 65.5611585,129.472658 66.0726669,129.660328 C66.5405314,129.834031 67.0136331,130.011226 67.4745144,130.212862 C68.4224636,130.703421 69.2778873,131.372048 70.0660992,132.016235 C70.3934297,132.306031 70.7067941,132.582735 70.9765144,132.903082 C71.0576924,133.032269 71.1362517,133.178913 71.207828,133.329048 C71.4469975,134.099803 71.5761839,134.942133 71.6852941,135.61687 L71.7088619,135.767006 C71.9035144,137.004752 72.5721415,138.269557 73.5951585,139.326616 C74.2323619,139.974294 74.9961331,140.383675 75.8550483,140.813133 C76.2679212,141.020879 76.6938873,141.236481 77.0797008,141.501836 C77.4541669,141.757591 77.8059381,142.030803 78.1533449,142.313616 C78.6788195,142.780608 79.2034212,143.302591 79.7594466,143.909243 C80.3564975,144.55343 80.8610229,145.082396 81.4030822,145.58343 C81.7880229,145.937819 82.1834381,146.279116 82.5858364,146.592481 C83.104328,146.994879 83.7249466,147.254125 84.3185059,147.472345 C85.2044805,147.817133 86.237972,147.990836 86.9912686,148.11304 C88.0317432,148.291108 88.8531246,148.375777 89.5968195,148.38276 L89.688472,148.38276 C90.0873788,148.38276 90.4862856,148.372286 90.8851924,148.362684 C91.3286161,148.348718 91.7170483,148.341735 92.1063534,148.341735 C92.5489042,148.341735 92.992328,148.352209 93.4392432,148.366175 C93.7595907,148.375777 94.0834297,148.38276 94.4072686,148.389743 C94.9458364,148.389743 95.4267941,148.341735 95.8737093,148.297218 C96.4262432,148.232625 96.8792686,148.058921 97.2650822,147.901803 C98.6355059,147.370218 99.0344127,145.869735 99.3888025,144.549938 L99.4437941,144.331718 C99.620989,143.677057 99.7746161,143.016286 99.9282432,142.354642 C100.258192,140.905658 100.54537,139.41565 100.787158,137.918658 C101.005379,136.544743 101.128455,135.197887 101.152023,133.908642 C101.165116,132.998226 101.021964,132.064243 100.906743,131.313565 L100.878811,131.126769 C100.794142,130.560269 100.719074,129.99115 100.650989,129.421158 C100.575921,128.129294 100.633531,126.877582 100.824692,125.592701 C100.978319,124.945023 101.168608,124.28687 101.356277,123.652286 C101.598938,122.827413 101.854692,121.974608 102.021413,121.101726 C102.379294,119.198845 102.611481,117.490616 102.727574,115.878404 C102.788675,115.05615 102.849777,114.234769 102.894294,113.409896 C102.91437,113.031065 102.931828,112.649616 102.935319,112.270786 C102.938811,111.970514 102.904769,111.673735 102.867235,111.397904 L102.842794,111.172701 C102.80526,110.879413 102.692658,110.593108 102.611481,110.385362 L102.52943,110.180235 C102.443887,109.959396 102.345252,109.743794 102.239633,109.525574 C101.885243,108.786243 101.380718,108.069608 101.012362,107.551989 L100.749625,107.17665 L100.309692,106.535955 C99.9107856,105.945887 99.5048958,105.359311 99.0894042,104.783209 L98.6904975,104.227184 L98.3116669,103.702582 L97.8516585,103.064506 C97.34015,102.314701 96.8111839,101.495938 96.4262432,100.589014 L96.3747432,100.431896 L96.3241161,100.279142 C96.2045314,99.9212602 96.125972,99.5459212 96.074472,99.1330483 C96.0168619,98.4443449 95.9653619,97.7111246 96.0168619,96.9752856 C96.0779636,96.1835822 96.170489,95.3892602 96.2900737,94.6219975 C96.5082941,93.2410992 96.7020737,91.7816415 96.9002178,90.0358788 C97.1149466,88.1024466 97.1350229,86.2990737 96.9613195,84.6728958 C96.9272771,84.3490568 96.8321331,84.0418025 96.7265144,83.7013788 L96.633989,83.3941246 C96.5248788,83.0222771 96.4018025,82.6539212 96.2726161,82.2890568 L96.1975483,82.0708364 C95.9417941,81.3376161 95.6380314,80.4717178 95.2391246,79.7114381 C94.8716415,78.9886924 94.4212347,78.2694381 94.0258195,77.6313619 L93.5623195,76.8885398 C92.9853449,75.9405907 92.2215737,74.6923703 91.4001924,73.5567517 C90.7594975,72.6603025 90.1048364,71.7839297 89.4466839,70.9075568 L89.2930568,70.7033025 C88.5807856,69.7623364 87.8711331,68.8213703 87.1824297,67.8734212 L86.4937263,66.918489 L86.1489381,66.4375314 C85.95865,66.1582093 85.7779636,65.8719042 85.5937856,65.5855992 L85.5353025,65.5000568 L85.4811839,65.4180059 L85.1329042,64.8829297 C84.8265229,64.4124466 84.5122856,63.9585483 84.082828,63.5666246 C84.1037771,63.0315483 84.0967941,62.4720314 84.0863195,61.9029127 L84.0662432,60.9994805 C84.0418025,58.9674127 84.0182347,56.9449466 83.9667347,54.9268449 C83.9431669,53.7877347 83.8165992,52.6355314 83.7179636,51.7076585 L83.6909042,51.4519042 L83.6673364,51.2205907 C83.5922686,50.5283958 83.5206924,49.8362008 83.4691924,49.1405144 C83.3530992,47.4628364 83.1654297,45.2430992 82.7534297,42.9718619 C82.4732347,41.4067856 82.0647263,39.8556754 81.6998619,38.4852517 L81.5017178,37.7555229 C81.235489,36.7595653 80.9596585,35.8831924 80.6524042,35.0818873 C80.4446585,34.5328449 80.2534975,33.9776924 80.0667008,33.4216669 C79.93315,33.0262517 79.8240398,32.7120144 79.7149297,32.4021415 C79.3064212,31.2324805 78.9240992,30.0156839 78.6037517,28.9752093 C78.2729297,27.91815 77.8504551,26.9125907 77.3354551,25.7053958 L77.2839551,25.5823195 L77.1678619,25.313472 C76.8475144,24.5427178 76.5437517,23.819972 76.2303873,23.1007178 C76.0531924,22.7149042 75.8655229,22.3299636 75.6743619,21.9476415 L75.5966754,21.7844127 L75.5181161,21.620311 L75.4395568,21.4640653 L75.1663449,20.9220059 C74.7814042,20.1547432 74.3824975,19.3630398 73.9565314,18.6472771 C73.5506415,17.9655568 73.1176924,17.2934381 72.6812517,16.6326669 L72.6227686,16.5436331 C72.2107686,15.9029381 71.7263195,15.1627347 71.2348873,14.5045822 C70.9896076,14.1772517 70.7338534,13.8569042 70.4746076,13.5330653 L70.3043958,13.321828 L70.2188534,13.2153364 L70.1411669,13.1201924 L70.0626076,13.0285398 L69.6602093,12.5405992 C69.0972008,11.8588788 68.5822008,11.2862686 68.0916415,10.7913449 C67.4675314,10.1777093 66.778828,9.6496161 66.2228025,9.22277712 L65.6501924,8.73920085 L65.4555398,8.57859068 C64.9038788,8.12207373 64.4429975,7.73626017 63.9934636,7.41242119 C63.2567517,6.88432797 62.4685398,6.39638729 61.5860568,5.93288729 C60.0139975,5.09055678 58.5135144,4.24124322 57.1256331,3.45041271 C54.4563619,1.92636186 51.7556669,0.930404237 49.1029805,0.484361864 C48.2746161,0.350811017 47.3912602,0.286217797 46.3272178,0.286217797 C45.5599551,0.286217797 44.7900737,0.316768644 44.022811,0.347319492" transform="translate(210 122.587)"/><path d="M16.4001314 99.5663466C16.4036229 99.5052449 16.4071144 99.4467619 16.4071144 99.3856602L16.3896568 99.3682025C16.3486314 99.32805 16.3084788 99.2870246 16.2674534 99.2494907 16.3110975 99.3516178 16.3556144 99.460728 16.4001314 99.5663466M80.0543932 46.1539508C80.0648678 46.1810102 80.0735966 46.2080695 80.0840712 46.2360017 80.0735966 46.2080695 80.0639949 46.1818831 80.0543932 46.1539508M76.5253339 35.7474593C76.5323169 35.7666627 76.5393 35.7849932 76.5454102 35.8033237 76.5393 35.7849932 76.5323169 35.7666627 76.5253339 35.7474593M72.2185373 25.6447305C72.7335373 26.6232305 73.2319525 27.6087136 73.7155288 28.6011797 74.1048339 29.4024847 74.4216898 30.2308492 74.7385458 31.0627051 74.7254525 31.0286627 74.7114864 30.9946203 74.6975203 30.9570864 75.0012831 31.7889424 75.2910797 32.6242898 75.6044441 33.4491627 75.9204271 34.2618153 76.2538678 35.0674847 76.5733424 35.8792644 76.8718678 36.7093746 77.1695203 37.544722 77.4287661 38.3870525 77.7115797 39.3175441 77.9917746 40.2480356 78.2850627 41.1759085 78.5539102 42.0217305 78.7860966 42.8771542 79.0959695 43.7055186 79.4198085 44.5757814 79.7663424 45.4434254 80.1093847 46.3067051 80.2630119 46.7335441 80.4061644 47.1612559 80.5213847 47.5994424 80.6540627 48.0943661 80.7701559 48.5919085 80.8862492 49.0929424 81.0974864 49.9902644 81.247622 50.8971881 81.4492576 51.7971288 81.6735881 52.7895949 81.8752237 53.7846797 82.0829695 54.7806373 82.277622 55.732078 82.4513254 56.6931203 82.7245373 57.6244847 83.0108424 58.5994932 83.2220797 59.5919593 83.5118763 60.5634763 83.8217492 61.603078 84.2206559 62.6121288 84.6405119 63.6080864 85.0324356 64.5359593 85.3868254 65.4804169 85.7927153 66.4004339 86.2020966 67.3387814 86.6525034 68.2553068 87.0784695 69.1831797 87.4058 69.8849763 87.7226559 70.5946288 88.0464949 71.2972983 88.3843 72.0305186 88.7657492 72.7392983 89.1550542 73.4515695 89.5164271 74.1132136 89.8917661 74.7678746 90.2356814 75.4434847 90.3997831 75.7638322 90.5595203 76.0876712 90.7131475 76.4115102 90.8571729 76.7222559 90.9863593 77.0321288 91.1120542 77.347239 91.3128169 77.9233407 91.5074695 78.5003153 91.6846644 79.0851458 91.8819356 79.731078 91.9639864 80.4206542 92.0617492 81.0875356 92.2284695 83.0218407 92.2869525 84.9605102 92.2572746 86.9035441 92.2302153 88.993222 91.9028847 91.0663153 91.6061051 93.1324254 91.4935034 93.9206373 91.3477322 94.7079763 91.2176729 95.4918237 91.2412407 95.3626373 91.2656814 95.2299593 91.2892492 95.0964085 91.0544441 96.4266797 90.8257492 97.7595695 90.5394441 99.0758746 90.3962915 99.7340271 90.201639 100.385197 90.0314271 101.036366 89.8638339 101.673569 89.7756729 102.331722 89.598478 102.969798 89.4483424 103.501383 89.6290288 104.071375 90.1064949 104.377756 90.6450627 104.722544 91.4699356 104.585502 91.8007576 104.002417 92.3358339 103.057959 92.7181559 101.998281 93.0350119 100.957807 93.1991136 100.426222 93.3457576 99.9007475 93.4749441 99.3586881 93.6041305 98.8367051 93.6966559 98.2981373 93.8022746 97.7700441 94.0030373 96.7950356 94.1706305 95.8130441 94.3478254 94.8345441 94.5590627 93.6439339 94.7572068 92.4541966 94.9274186 91.2609678 95.0670797 90.2580271 95.2006305 89.2594508 95.2922831 88.2530186 95.3368 87.7354 95.3333085 87.2099254 95.3402915 86.6914339 95.3472746 86.2008746 95.3437831 85.7094424 95.3368 85.2188831 95.3123593 84.1548407 95.2652237 83.0881797 95.1866644 82.0241373 95.101122 80.9024847 94.9885203 79.7773407 94.7126898 78.6827475 94.5896136 78.1878237 94.4159102 77.7068661 94.2491898 77.2267814 94.0440627 76.6402051 93.8162407 76.0606119 93.5840542 75.4871288 93.5054949 75.2863661 93.3963847 75.0917136 93.3012407 74.9014254 93.1816559 74.6622559 93.0620712 74.4204678 92.9398678 74.1847898 92.6910966 73.7177983 92.4414525 73.2542983 92.1760966 72.7969085 91.6610966 71.9074424 91.1426051 71.0136119 90.7026729 70.0831203 90.2461559 69.1212051 89.7922576 68.1566712 89.3217746 67.1982475 88.7901898 66.1106373 88.2647153 65.0265186 87.7977237 63.9048661 87.3673932 62.8643915 86.8803254 61.845739 86.456978 60.8009 86.3077153 60.3810441 86.1601983 59.9638068 86.0214102 59.5404593 85.8677831 59.0664847 85.7586729 58.5785441 85.6190119 58.1019508 85.3396898 57.1670949 85.021961 56.247078 84.7871559 55.3017475 84.5418763 54.3171373 84.3236559 53.3246712 84.0914695 52.3356966 83.8662661 51.3947305 83.6174949 50.4607475 83.3757068 49.5224 83.256122 49.0554085 83.1129695 48.5954 82.9768 48.1319 82.8397576 47.6640356 82.7245373 47.1839508 82.5569441 46.726561 82.3561814 46.1775186 82.1510542 45.6354593 81.9092661 45.1038746 81.7215966 44.6979847 81.5374186 44.2886034 81.3567322 43.8766034 81.1489864 43.4026288 80.9377492 42.9286542 80.7361136 42.4511881 80.5484441 41.9972898 80.3817237 41.5372814 80.1870712 41.0868746 79.9898 40.6233746 79.798639 40.1563831 79.6039864 39.6928831 79.4171898 39.2494593 79.2050797 38.8200017 79.0182831 38.3800695 78.6019186 37.3876034 78.172461 36.4091034 77.7080881 35.4375864 77.2655373 34.5097136 76.7950542 33.5958068 76.3647237 32.6618237 75.9387576 31.7313322 75.5538169 30.7798915 75.1584017 29.8354339 74.7760797 28.9250186 74.3361475 28.0346797 73.8866136 27.1617983 73.5592831 26.531578 73.2354441 25.9039763 72.904622 25.2763746 72.8304271 25.1340949 72.7090966 25.0756119 72.5860203 25.0756119 72.3259017 25.0756119 72.0596729 25.3409678 72.2185373 25.6447305" transform="translate(210 122)"/><path d="M80.2325483 60.0313678C80.0073449 60.1509525 79.9122008 60.4477322 80.0378958 60.6720627 80.34515 61.2385627 80.6620059 61.7972068 80.9552941 62.3706898 81.1874805 62.8167322 81.4153025 63.2636475 81.6439975 63.7105627 81.9582347 64.3207068 82.2820737 64.9273593 82.5683788 65.547978 82.8957093 66.2681051 83.2300229 66.9838678 83.5503703 67.7066136 83.5634636 67.7380373 83.5783025 67.7685881 83.5922686 67.8000119 83.6961415 68.1404356 83.8139805 68.4773678 83.9388025 68.8116814 84.1430568 69.3607237 84.3927008 69.8783424 84.6449636 70.4073085 84.7505822 70.6220373 85.0159381 70.7311475 85.2446331 70.6761559 85.3808025 70.6456051 85.5003873 70.5609356 85.5754551 70.4413508 85.5990229 70.4055627 85.6156076 70.3715203 85.6287008 70.3366051 85.7989127 70.3462068 85.973489 70.3104186 86.1384636 70.2231305 86.3662856 70.1000542 86.5434805 69.8923085 86.6220398 69.6470288 86.6770314 69.4183339 86.6840144 69.3022407 86.649972 69.0700542 86.6325144 68.9408678 86.6255314 68.8046983 86.6019636 68.674639L86.5199127 68.2041559C86.4657941 67.8942831 86.407311 67.5870288 86.3427178 67.2806475 86.2816161 66.9803763 86.21615 66.6801051 86.1550483 66.3772153L86.0633958 65.9372831C86.0424466 65.8377746 86.0223703 65.7356475 85.9979297 65.6370119 85.9577771 65.4292661 85.8652517 65.231122 85.7901839 65.032978 85.7055144 64.8767322 85.5894212 64.7501644 85.4392856 64.6515288 85.4261924 64.6436729 85.413972 64.6358169 85.4008788 64.6288339 85.3013703 64.3303085 85.1966246 64.0344017 85.0875144 63.7411136 84.965311 63.4172746 84.8186669 63.1039102 84.6650398 62.7931644 84.6039381 62.6735797 84.5323619 62.560978 84.4538025 62.4518678 84.3307263 62.2781644 84.1980483 62.1454864 84.0409297 62.0023339 83.8907941 61.8626729 83.7310568 61.7666559 83.516328 61.7596729 83.2396246 61.7500712 83.0048195 61.8862407 82.8477008 62.1079525 82.8101669 62.155961 82.7796161 62.2065881 82.7595398 62.2615797L82.677489 62.4352831C82.6469381 62.5443932 82.6364636 62.6535034 82.6364636 62.7661051 82.625989 62.9433 82.684472 63.1239864 82.7115314 63.2976898 82.7403364 63.4862322 82.76565 63.6765203 82.7970737 63.8650627 82.7071669 63.6896136 82.6163873 63.5141644 82.5273534 63.3387153 82.2881839 62.8821983 82.0533788 62.4248085 81.8177008 61.9682915 81.514811 61.3817153 81.1944636 60.8056136 80.8767347 60.2260203 80.7894466 60.0689017 80.6235992 59.9772492 80.4525144 59.9772492 80.3783195 59.9772492 80.3032517 59.9947068 80.2325483 60.0313678M57.4268644 86.8170415C57.2872034 86.8615585 57.1711102 86.9025839 57.0480339 86.9802703 56.9389237 87.049228 56.8367966 87.1338975 56.731178 87.2124568 56.6491271 87.2735585 56.5740593 87.3425161 56.4928814 87.4071093 56.2467288 87.600889 56.0049407 87.7990331 55.759661 87.9971771 55.6915763 88.0512958 55.6234915 88.1054144 55.5545339 88.1586602 55.399161 88.0155076 55.1949068 87.931711 54.9749407 87.9151263 54.7401356 87.8976686 54.5149322 87.9081432 54.2801271 87.9596432 54.0645254 88.0067788 53.8567797 88.1089059 53.6525254 88.1839737 53.3723305 88.2895924 53.1034831 88.4196517 52.8372542 88.5523297 52.5273814 88.7024653 52.2201271 88.8595839 51.9163644 89.0228127 51.5995085 89.197389 51.2756695 89.4016432 51.0268983 89.6643805 50.5869661 90.1208975 50.352161 90.8270585 50.6445763 91.426728 50.6777458 91.4930669 50.7205169 91.5541686 50.7702712 91.6091602 50.6637797 91.6798636 50.5572881 91.7523127 50.4542881 91.8291263 50.2561441 91.9792619 50.1880593 92.2926263 50.2430508 92.5213212 50.3207373 92.8556347 50.5939492 93.0328297 50.9142966 93.0773466 51.1560847 93.1078975 51.3917627 93.0022788 51.5925254 92.8826941 51.8282034 92.7465246 52.0464237 92.5798042 52.2646441 92.4191941 52.4863559 92.2550924 52.7010847 92.0744059 52.9158136 91.897211 53.2431441 91.6283636 53.5634915 91.3481686 53.8803475 91.0653551 54.1640339 90.8200754 54.4363729 90.5643212 54.7130763 90.3120585 54.8527373 90.1819992 54.9923983 90.0528127 55.1355508 89.9236263 55.2036356 89.8581602 55.2752119 89.7970585 55.3432966 89.7359568 55.4026525 89.6835839 55.4576441 89.6399398 55.5108898 89.5858212 55.7186356 89.4191008 55.9263814 89.2523805 56.135 89.0847873 56.2668051 88.9782958 56.3986102 88.8709314 56.5312881 88.7609483 56.4893898 88.8656941 56.4483644 88.9704398 56.407339 89.0743127 56.2196695 89.5587619 56.0223983 90.0388466 55.8277458 90.5198042 55.6741186 90.9082364 55.5449322 91.3080161 55.4078898 91.7034314 55.1870508 92.3476178 54.9714492 92.9918042 54.774178 93.6429737 54.7095847 93.8646856 54.8282966 94.1073466 55.0500085 94.1754314 55.2682288 94.2470076 55.5143814 94.1204398 55.5824661 93.9022195 55.7631525 93.30255 55.9569322 92.7159737 56.1620593 92.1259059 56.3017203 91.7235076 56.4247966 91.3106347 56.5880254 90.918711 56.9633644 90.0144059 57.3221186 89.1004992 57.7297542 88.2084144 57.797839 88.0661347 57.8650508 87.924728 57.9244068 87.7789568 57.9863814 87.6323127 58.0064576 87.4717025 58.0300254 87.3180754 58.0780339 87.0509737 57.797839 86.7995839 57.5394661 86.7995839 57.5010593 86.7995839 57.4635254 86.8048212 57.4268644 86.8170415M80.9374873 70.6696093C80.8859873 71.6655669 80.8894788 72.6606517 80.917411 73.6566093 80.9444703 74.6176517 80.9680381 75.5830585 81.0230297 76.5441008 81.0771483 77.4990331 81.1181737 78.4504737 81.2037161 79.4019144 81.2918771 80.4144568 81.373928 81.4304907 81.4795466 82.4430331 81.7754534 85.3191771 82.0713602 88.1979398 82.3803602 91.073211 82.4205127 91.5175076 82.4632839 91.9618042 82.5025636 92.4061008 82.5400975 92.8224653 82.5881059 93.2353381 82.6116737 93.6508297 82.6413517 94.1972534 82.6710297 94.7454229 82.7007076 95.2918466 82.6064364 94.9645161 82.5348602 94.6310754 82.4510636 94.3054907 82.2293517 93.4361008 82.0111314 92.5702025 81.7998941 91.7008127 81.3128263 89.6783466 80.8109195 87.6567534 80.3002839 85.6377788 79.3453517 81.8634398 78.3258263 78.1030669 77.2722585 74.3522958 77.2129025 74.1462958 77.150928 73.9402958 77.0976822 73.73255 77.0985551 73.6889059 77.091572 73.6452619 77.0776059 73.6016178 77.0671314 73.5640839 77.0540381 73.52655 77.040072 73.4890161 76.9414364 73.2166771 76.70925 73.0255161 76.4063602 73.0936008 76.1226737 73.1616856 75.9489703 73.4488636 76.010072 73.7281856 76.106089 74.1375669 76.2282924 74.5425839 76.3443856 74.9449822 76.5285636 75.6066263 76.7127415 76.2647788 76.8969195 76.9264229 77.0741144 77.5610076 77.2417076 78.1947195 77.4049364 78.8293042 77.8928771 80.714728 78.4078771 82.5931686 78.857411 84.4890669 79.3182924 86.4390839 79.7983771 88.3899737 80.2182331 90.3504653 80.4189958 91.308889 80.6276144 92.2664398 80.8283771 93.2248636 81.0291398 94.1893975 81.2098263 95.1617873 81.4420127 96.1193381 81.5816737 96.6919483 81.7187161 97.2619398 81.8749619 97.8310585 81.9500297 98.1042703 82.0250975 98.3766093 82.1071483 98.6498212 82.1481737 98.7964653 82.1918178 98.9396178 82.2293517 99.0862619 82.2808517 99.2704398 82.3358432 99.4511263 82.4309873 99.6178466 82.543589 99.8194822 82.7207839 99.9591432 82.9084534 100.084838 83.4269449 100.433118 84.1322331 100.143321 84.3233941 99.5733297 84.4220297 99.2835331 84.5276483 99.004211 84.5861314 98.7039398 84.6542161 98.3565331 84.6987331 98.0082534 84.7292839 97.6538636 84.779911 97.0707788 84.779911 96.4772195 84.7563432 95.8915161 84.7362669 95.3285076 84.7118263 94.7628805 84.6882585 94.199872 84.6507246 93.2178805 84.5555805 92.2393805 84.4770212 91.257389 84.3949703 90.2142958 84.2753856 89.1703297 84.1697669 88.1272364 84.0746229 87.1723042 83.985589 86.217372 83.8939364 85.2633127 83.7760975 84.062228 83.6556398 82.8602703 83.5351822 81.6591856 83.4540042 80.7461517 83.3754449 79.8339907 83.2933941 78.9244483 83.2113432 78.0000669 83.1807924 77.0695754 83.1266737 76.1425754 83.0245466 74.3453127 82.9931229 72.5445585 82.8909958 70.7481686 82.8779025 70.4784483 82.8194195 70.2506263 82.63175 70.0454992 82.4580466 69.8543381 82.2092754 69.7426093 81.9535212 69.7321347 81.940428 69.7312619 81.9290805 69.7312619 81.9159873 69.7312619 81.3940042 69.7312619 80.9636737 70.1502449 80.9374873 70.6696093M1.51087034 48.4059847C1.49690424 48.7874339 1.81114153 49.1557898 2.20655678 49.1557898 2.59848051 49.1557898 2.93977712 48.8659932 2.95636186 48.4601034 2.97032797 48.0786542 2.65609068 47.7102983 2.26067542 47.7102983 1.86875169 47.7102983 1.52832797 48.0000949 1.51087034 48.4059847M2.55247966 58.8836161L2.55247966 58.8827432 2.55335254 58.8940907 2.55247966 58.8836161zM2.54898814 58.8530653C2.54986102 58.8583025 2.5507339 58.8644127 2.5507339 58.86965 2.54986102 58.8644127 2.54898814 58.8583025 2.54898814 58.8530653zM1.37234407 54.3184466C1.31822542 56.0057263 1.28069153 57.7139551 1.38281864 59.4021076 1.42733559 60.2034127 1.51898814 61.0012263 1.59754746 61.7990398 1.67261525 62.5322602 1.81140339 63.2584975 1.89781864 63.9882263 1.95892034 64.6847856 2.04271695 65.3699975 2.16404746 66.057828 2.28625085 66.7360568 2.42940339 67.4081754 2.54898814 68.0864042 2.77419153 69.3887432 2.97495424 70.6980653 3.1966661 72.0004042 3.42186949 73.3341669 3.70119153 74.6530907 4.13414068 75.9388449 4.61509831 77.3773534 5.18159831 78.7861839 5.7201661 80.2081076 6.1836661 81.4353788 6.72572542 82.6495568 7.38387797 83.7877941 8.06210678 84.9539636 8.79532712 86.0825992 9.51807288 87.2182178 9.93094576 87.8693873 10.3403271 88.5170653 10.7907339 89.1376839 11.2271746 89.7382263 11.6941661 90.2968703 12.1882169 90.8494042 12.6045814 91.3129042 13.0305475 91.7737856 13.4495305 92.2407771 13.8964458 92.734828 14.3328864 93.2463364 14.8138441 93.7098364 15.4580305 94.3339466 16.1371322 94.9205229 16.7909203 95.53765 17.3844797 96.0971669 17.8959881 96.7448449 18.4450305 97.3480059 19.0281153 97.9930653 19.6382593 98.6136839 20.1942847 99.2849297 20.4491661 99.5965483 20.6996831 99.9134042 20.9449627 100.235497 21.5507424 101.26637 22.0255898 102.382786 22.5807424 103.438099 22.7177847 103.693853 22.8504627 103.946116 22.9796492 104.20187 23.0276576 104.293523 23.0756661 104.382557 23.1262932 104.474209 23.1472424 104.511743 23.1673186 104.549277 23.1917593 104.586811 23.3890305 104.931599 23.5286915 105.07126 23.8324542 105.31043 23.9616407 105.412557 24.1152678 105.487625 24.275878 105.521667 24.4260136 105.545235 24.5752763 105.572294 24.7254119 105.600226 25.0326661 105.609828 25.3224627 105.545235 25.5948017 105.398591 25.7449373 105.333997 25.8845983 105.237981 25.9910898 105.115777 26.2634288 104.798921 26.2974712 104.736947 26.4711746 104.348514 26.5637 104.146879 26.5602085 103.898108 26.5907593 103.676396 26.6047254 103.564667 26.6213102 103.452065 26.6352763 103.335972 26.6736831 103.05054 26.6693186 102.765108 26.6413864 102.482294L26.6693186 102.442142C26.9128525 102.104336 27.0699712 101.685353 27.2410559 101.307396 27.520378 100.706853 27.7804966 100.10893 27.9611831 99.4621246 28.1933695 98.6381246 28.2544712 97.7774636 28.3758017 96.9316415 28.4578525 96.5170229 28.5477593 96.1050229 28.6097339 95.6842941 28.6944034 95.1012093 28.6778186 94.5521669 28.6062424 93.9690822 28.5346661 93.4104381 28.2754203 92.881472 28.0231576 92.3874212 27.8049373 91.9614551 27.5561661 91.5485822 27.2934288 91.1461839 26.1700305 89.4397008 24.8825305 87.8562941 23.5435305 86.3165314 23.4745729 86.2274975 23.4021237 86.1402093 23.3279288 86.0555398 22.8234034 85.4794381 21.9295729 85.3493788 21.2618186 85.7072602 20.9990814 85.8477941 20.7878441 86.0450653 20.6237424 86.297328 20.3575136 86.7136924 20.3339458 87.1361669 20.398539 87.6101415 20.4465475 87.9680229 20.6473102 88.2752771 20.8524373 88.5615822 21.0706576 88.8653449 21.2853864 89.1717263 21.5070983 89.4719975 21.5341576 89.5086585 21.5612169 89.5453195 21.5882763 89.5819805 21.6790559 89.7792517 21.7637254 89.9782686 21.8449034 90.1799042 22.0509034 90.8075059 22.2446831 91.4281246 22.4253695 92.0618364 22.1556492 91.9998619 21.8833102 91.9998619 21.6092254 92.0635822 21.3019712 92.1351585 21.0296322 92.2818025 20.7939542 92.4965314 20.5626407 92.7112602 20.3950475 92.9739975 20.2999034 93.2733958 20.2859373 93.3545737 20.2710983 93.4357517 20.2571322 93.5160568 19.9551153 93.2044381 19.6461153 92.8998025 19.3222763 92.6100059 18.4502678 91.5852432 17.6105559 90.5404042 16.7909203 89.475489 16.2287847 88.7422686 15.6457 88.0247602 15.0984034 87.2819381 13.6031576 84.943489 12.283361 82.4758534 11.1416322 79.9488619 10.885878 79.3823619 10.6746407 78.7861839 10.4564203 78.2030992 10.2102678 77.5589127 9.96847966 76.9103619 9.7232 76.2626839 9.20121695 74.8922602 8.68010678 73.5244551 8.13106441 72.1645059 8.00449661 71.8502686 7.86832712 71.5369042 7.73215763 71.2270314 7.43188644 70.5409466 6.55202203 70.2136161 5.85982712 70.3742263 5.57090339 70.442311 5.31078475 70.5889551 5.09954746 70.7853534L5.07597966 70.6980653C4.70064068 69.3407347 4.35585254 67.9738025 3.99797119 66.6129805 3.82775932 65.961811 3.65056441 65.3141331 3.51090339 64.6559805 3.37386102 64.0083025 3.27871695 63.35015 3.15214915 62.702472 3.02994576 62.0888364 2.89377627 61.4848025 2.8082339 60.8650568 2.72356441 60.2374551 2.63889492 59.6063619 2.56382712 58.9752686 2.45384407 57.4363788 2.44336949 55.9009805 2.48788644 54.3620907 2.49836102 54.0557093 2.25919153 53.792972 1.95281017 53.7790059L1.93360678 53.7790059C1.63857288 53.7790059 1.38281864 54.0173025 1.37234407 54.3184466zM48.9025669 93.6223737C48.8720161 93.6590347 48.8423381 93.6956958 48.8117873 93.7323568 48.8397195 93.6930771 48.8702703 93.6564161 48.9025669 93.6223737M47.6325246 92.0136534C47.1140331 92.3924839 46.9062873 93.1047551 46.7561517 93.6948229 46.7116347 93.8859839 46.6644992 94.0771449 46.6199822 94.2674331 46.5274568 94.6733229 46.4838127 95.0451703 46.5379314 95.4606619 46.6234737 96.1257975 46.776228 96.78395 46.9263636 97.4351195 47.0634059 98.0321703 47.1725161 98.6353314 47.3392364 99.2253992 47.5199229 99.8695856 47.8332873 100.432594 48.1335585 101.022662 48.3587619 101.468704 48.6284822 101.926094 48.9994568 102.263026 49.2587025 102.502196 49.5074737 102.70645 49.814728 102.870552 50.0399314 102.989264 50.2677534 103.105357 50.4929568 103.228433 51.0524737 103.532196 51.6084992 103.79406 52.235228 103.924119 52.8008551 104.042831 53.3743381 104.105679 53.9434568 104.191221 54.1005754 104.224391 54.2533297 104.265416 54.4034653 104.317789 54.4217958 104.329136 54.441872 104.340484 54.4602025 104.351831 54.6714398 104.697492 54.8652195 105.062357 55.0240839 105.436823 55.1497788 105.806052 55.2615076 106.181391 55.4029144 106.549747 55.5294822 106.873586 55.7407195 107.138942 55.9554483 107.419136 56.1396263 107.585857 56.3342788 107.742975 56.5350415 107.889619 56.7602449 108.059831 57.1416941 108.175925 57.4253805 108.250992 57.9089568 108.380179 58.4344314 108.414221 58.9354653 108.43517 59.7917619 108.472704 60.5895754 107.909696 60.8488212 107.091806 61.1726602 106.081882 60.5930669 104.997764 59.5971093 104.666942 59.4548297 104.619806 59.31255 104.57267 59.1720161 104.523789 59.0166432 104.015772 58.8691263 103.506882 58.6386856 103.020687 58.267711 102.228984 57.7352534 101.459103 57.0229822 100.947594 56.3307873 100.449179 55.5294822 100.23445 54.7037364 100.101772 53.9923381 99.9909161 53.2704653 100.014484 52.5555754 99.9385432 52.1383381 99.8285602 51.720228 99.6775517 51.3195754 99.5055941 51.248872 99.4663144 51.1790415 99.425289 51.1118297 99.3816449 50.8377449 99.10145 50.5977025 98.7872127 50.3646432 98.4721025 49.7885415 97.5983483 49.3625754 96.62945 48.9872364 95.6544415 48.8920924 95.3751195 48.8048042 95.1019076 48.7454483 94.8164754 48.7506856 94.5825432 48.7733805 94.3529754 48.8004398 94.120789 48.843211 93.9322466 48.8929653 93.7524331 48.9584314 93.5700008 48.9802534 93.5525432 49.0012025 93.5359585 49.0238975 93.5211195 49.4734314 93.1868059 49.4297873 92.4466025 49.0815076 92.0686449 48.8973297 91.8705008 48.6380839 91.7509161 48.3692364 91.7413144 48.3570161 91.7404415 48.3439229 91.7404415 48.3325754 91.7404415 48.0541263 91.7404415 47.8516178 91.8504246 47.6325246 92.0136534M42.9236788 42.6364136C43.054611 42.6669644 43.1890347 42.6905322 43.3225856 42.7132271 43.2981449 42.7018797 43.2728314 42.6896593 43.2475178 42.677439 43.0903992 42.6006254 42.9332805 42.5386508 42.7726703 42.4967525 42.8232975 42.5438881 42.8730517 42.5901508 42.9236788 42.6364136M36.1580627 74.6735644C36.1580627 74.6700729 36.1589356 74.6657085 36.1598085 74.6622169 36.1615542 74.6438864 36.1641729 74.6264288 36.1667915 74.6089712 36.1633 74.6307932 36.1598085 74.6526153 36.1580627 74.6735644M37.9544525 75.7576831C37.9666729 75.7585559 37.9788932 75.7594288 37.9919864 75.7611746 37.9788932 75.7594288 37.9666729 75.7585559 37.9544525 75.7576831M37.4839695 75.6433356C37.5092831 75.6538102 37.5337237 75.6642847 37.5581644 75.6756322 37.5337237 75.6660305 37.5084102 75.6555559 37.4839695 75.6433356M36.4984864 72.2452085C36.3693 73.0334203 36.2689186 73.8207593 36.1667915 74.6089712 36.1694102 74.5932593 36.1720288 74.5766746 36.1746475 74.5609627 36.1694102 74.5941322 36.1641729 74.6281746 36.1598085 74.6622169L36.1571898 74.6796746C36.1580627 74.6779288 36.1580627 74.6753102 36.1580627 74.6735644 36.1379864 74.8167169 36.1187831 74.9589966 36.0891051 75.0995305 36.0655373 75.2191153 36.0175288 75.3378271 36.0140373 75.4609034 36.0157831 75.4600305 36.0166559 75.4582847 36.0184017 75.4574119 36.0184017 75.6738864 36.1868678 75.8763949 36.4304017 75.8763949 36.4609525 75.8772678 36.4897576 75.8746492 36.5168169 75.8702847 36.5307831 75.9052 36.5464949 75.9392424 36.5622068 75.9732847 36.391122 75.9497169 36.2191644 75.9261492 36.0480797 75.9174203 35.8673932 75.9078186 35.6797237 75.9244034 35.5095119 75.9828864 35.3523932 76.0335136 35.2022576 76.1190559 35.0931475 76.2447508 34.9744356 76.3844119 34.8993678 76.538039 34.8478678 76.7152339 34.7797831 76.964878 34.7867661 77.2887169 34.9229356 77.516539 35.1751983 77.9363949 35.7032915 78.0690729 36.1606814 78.1336661 37.1191051 78.2672169 38.0871305 78.3387932 39.0551559 78.3082424 39.9830288 78.2768186 40.9239949 78.1956407 41.8413932 78.0280475 42.1163508 77.980039 42.3930542 77.9329034 42.6680119 77.8787847 42.8137831 77.8578356 42.9595542 77.832522 43.1027068 77.8028441 43.4134525 77.7382508 43.7233254 77.6806407 44.0270881 77.5846237 44.4155203 77.4624203 44.8074441 77.2546746 45.1007322 76.9674966 45.2168254 76.8487847 45.3329186 76.6777 45.3564864 76.5109797 45.3739441 76.3844119 45.3774356 76.2997424 45.3425203 76.1696831 45.3119695 76.0570814 45.2334102 75.934878 45.1452492 75.8598102 45.1155712 75.8344966 45.0850203 75.8126746 45.0527237 75.7925983 45.0239186 75.7332424 44.9855119 75.6799966 44.9409949 75.6415898 44.844978 75.559539 44.7969695 75.5324797 44.6817492 75.4879627 44.6162831 75.4609034 44.5481983 75.4609034 44.4801136 75.4574119 44.3954441 75.4469373 44.2959356 75.4809797 44.2077746 75.4984373 44.1562746 75.508039 44.1039017 75.515022 44.0506559 75.5237508 43.6273085 75.5691407 43.2057068 75.5953271 42.7823593 75.6241322 42.2368085 75.6581746 41.6912576 75.6992 41.1491983 75.7402254 40.6682407 75.7777593 40.1872831 75.7812508 39.7063254 75.7882339 39.1441898 75.7917254 38.5759441 75.8135475 38.0155542 75.7629203 37.8313763 75.7349881 37.6506898 75.6957085 37.4734949 75.6380983 37.4577831 75.6293695 37.4429441 75.6206407 37.4281051 75.611039 37.3940627 75.5804881 37.362639 75.5490644 37.3338339 75.515022 37.2971729 75.463522 37.2648763 75.4111492 37.2360712 75.3552847 37.2037746 75.2618864 37.1810797 75.1702339 37.163622 75.0724712 37.1470373 74.8848017 37.1505288 74.6980051 37.1627492 74.5103356 37.2072661 74.3645644 37.2500373 74.2196661 37.2928085 74.073022 37.4263593 73.6034119 37.5354695 73.1259458 37.5860966 72.6414966 37.6131559 72.4896153 37.627122 72.336861 37.4970627 72.2146576 37.4385797 72.1614119 37.3687492 72.1264966 37.2963 72.1134034 37.2369441 72.027861 37.1496559 71.9632678 37.0475288 71.9353356 37.0126136 71.9257339 36.9750797 71.9204966 36.9366729 71.9204966 36.7420203 71.9204966 36.5299102 72.0461915 36.4984864 72.2452085M21.9566322 52.9802805C21.943539 52.9855178 21.9313186 52.991628 21.9182254 52.9968653 21.9313186 52.9907551 21.943539 52.9855178 21.9566322 52.9802805M31.3820051 51.6465178C31.4012085 51.6491364 31.419539 51.6508822 31.4378695 51.652628 31.419539 51.6508822 31.4012085 51.6491364 31.3820051 51.6465178M28.9492847 50.1119924C28.7066237 50.1250856 28.4683271 50.1495263 28.2300305 50.1696025 27.7761322 50.2036449 27.3196153 50.2551449 26.8692085 50.3267212 26.3472254 50.408772 25.8296068 50.4969331 25.3111153 50.5964415 24.9052254 50.6706364 24.4958441 50.7561788 24.1039203 50.8687805 23.7696068 50.9639246 23.4352932 51.05645 23.1114542 51.1760347 22.7369881 51.3122042 22.3686322 51.4518653 22.0037678 51.6124754 21.6729458 51.755628 21.3525983 51.902272 21.031378 52.0620093 20.6944458 52.2330941 20.3566407 52.410289 20.0223271 52.5874839 19.4156746 52.9043398 18.8491746 53.3067381 18.2800559 53.6855686 17.6629288 54.0940771 17.0597678 54.5409924 16.5142169 55.0420263 16.278539 55.2567551 16.2959966 55.6495517 16.5142169 55.8712636 16.7455305 56.1025771 17.1069034 56.0859924 17.3425814 55.8712636 17.5608017 55.6678822 17.7929881 55.4810856 18.0251746 55.2934161 18.3062424 55.095272 18.5855644 54.889272 18.8736153 54.7016025 19.2314966 54.4694161 19.589378 54.2407212 19.9507508 54.0128992 20.2710983 53.807772 20.6158864 53.6410517 20.9563102 53.4708398 21.3150644 53.2910263 21.6764373 53.1190686 22.0378102 52.9462381 22.4035475 52.792611 22.767539 52.6416025 23.1454966 52.5124161 23.3401492 52.4443314 23.5382932 52.365772 23.7425475 52.3107805 24.018378 52.2392042 24.2985729 52.1641364 24.5778949 52.0925602 24.7996068 52.0314585 25.0309203 52.0009076 25.2561237 51.9563907 25.4403017 51.9188568 25.6244797 51.8848144 25.8086576 51.8542636 26.3062 51.7722127 26.8046153 51.704128 27.3021576 51.6325517 27.2445475 51.6430263 27.1825729 51.6500093 27.1214712 51.659611 27.8276322 51.5644669 28.5433949 51.5339161 29.2521746 51.5164585 29.6344966 51.5094754 30.0098356 51.5269331 30.3877932 51.5435178 30.7081407 51.556611 31.029361 51.6028737 31.3470898 51.6421534 31.8926407 51.7268229 32.4443017 51.8036364 32.9828695 51.9258398 33.2726661 51.9904331 33.5519881 52.0689924 33.8313102 52.1781025 33.9343102 52.219128 34.0399288 52.2636449 34.1420559 52.3046703 34.3026661 52.3727551 34.4589119 52.4137805 34.6299966 52.4443314 34.7696576 52.4818653 34.9093186 52.4818653 35.0489797 52.4443314 35.2471237 52.3893398 35.4208271 52.2601534 35.5229542 52.0829585 35.7481576 51.6971449 35.6015136 51.2266619 35.2401407 50.9979669 35.0184288 50.8583059 34.7661661 50.777128 34.5208864 50.6915856 34.3227424 50.6235008 34.1245983 50.5615263 33.9203441 50.5178822 33.4393864 50.408772 32.9488271 50.3537805 32.4573949 50.2961703 32.0209542 50.2411788 31.5880051 50.1870602 31.1480729 50.1495263 30.9298525 50.1285771 30.7081407 50.0980263 30.4864288 50.0945347 30.2140898 50.0910432 29.9382593 50.0849331 29.6615559 50.0814415 29.6362424 50.0805686 29.6100559 50.0805686 29.5847424 50.0805686 29.3735051 50.0796958 29.1587763 50.1032636 28.9492847 50.1119924M48.5070644 52.5118051C48.4843695 52.5144237 48.4608017 52.5179153 48.4372339 52.5205339 48.4599288 52.5179153 48.4834966 52.5144237 48.5070644 52.5118051M49.4122424 50.5670254C48.3962085 50.6997034 47.4072339 50.9179237 46.4217508 51.1946271 45.9041322 51.3447627 45.3856407 51.5219576 44.8880983 51.7331949 44.3730983 51.9549068 43.8816661 52.2237542 43.3841237 52.483 42.9747424 52.6942373 42.8551576 53.2607373 43.080361 53.6421864 43.323022 54.0585508 43.831039 54.160678 44.2395475 53.9494407 44.6122678 53.7547881 44.978878 53.5479153 45.3577085 53.3707203 46.4191322 52.9412627 47.5311831 52.674161 48.6624373 52.4926017 48.8317763 52.4707797 49.0002424 52.4472119 49.1704542 52.4245169 49.8818525 52.3494492 50.6115814 52.2831102 51.3282169 52.3058051 51.7445814 52.3197712 52.1574542 52.3328644 52.5694542 52.3642881 52.8941661 52.3861102 53.2171322 52.4271356 53.5418441 52.4672881 54.0900136 52.5746525 54.6294542 52.6916186 55.1715136 52.8277881 55.440361 52.8958729 55.7065898 53.0049831 55.9693271 53.0905254 56.2486492 53.182178 56.5227339 53.3000169 56.7950729 53.4056356 57.0080559 53.4955424 57.2236576 53.5845763 57.4287847 53.6936864 57.7596068 53.8673898 58.0904288 54.0410932 58.4177593 54.2287627 59.0244119 54.5770424 59.6310644 54.9209576 60.2551746 55.2413051 60.7055814 55.47 61.2546237 55.3608898 61.5199797 54.9113559 61.7792254 54.4679322 61.6186153 53.9084153 61.1891576 53.645678 60.7431153 53.3698475 60.3197678 53.0625932 59.8728525 52.7902542 59.4163356 52.5109322 58.9493441 52.2612881 58.4753695 52.0160085 58.2300898 51.8938051 57.9708441 51.7942966 57.7185814 51.688678 57.3877593 51.5490169 57.0499542 51.4259407 56.7086576 51.3037373 56.2695983 51.1431271 55.8226831 51.0069576 55.3687847 50.9048305 54.0638271 50.6106695 52.7117339 50.4422034 51.3657508 50.4422034 50.7110898 50.4422034 50.0581746 50.4823559 49.4122424 50.5670254" transform="translate(210 122)"/><path d="M246.567224,205.16527 C252.68976,205.674804 250.166216,209.746644 246.651541,205.680097" stroke="#000"/></g></svg>