<?xml version="1.0" encoding="UTF-8"?>
<svg width="500px" height="600px" viewBox="0 0 500 600" version="1.1" xmlns="http://www.w3.org/2000/svg" xmlns:xlink="http://www.w3.org/1999/xlink">
    <!-- Generator: Sketch 63.1 (92452) - https://sketch.com -->
    <title>rofl</title>
    <desc>Created with Sketch.</desc>
    <g id="rofl" stroke="none" stroke-width="1" fill="none" fill-rule="evenodd">
        <g transform="translate(144.000000, 128.000000)" fill-rule="nonzero">
            <g id="Group-56" fill="#000000">
                <path d="M39.7984412,53.7725565 C39.7609713,53.7661786 39.7203125,53.7629897 39.6828426,53.7566118 C39.7203125,53.7629897 39.7609713,53.7693675 39.7984412,53.7725565" id="Fill-1"></path>
                <path d="M31.566865,64.9408151 C31.4512665,65.3577673 31.5852014,65.759572 31.862638,66.0370086 L31.8658269,66.0370086 C32.2891569,66.1773214 32.7252426,66.2610306 33.1645173,66.3264037 C33.8836202,66.3830071 34.6003315,66.4013434 35.3194344,66.4013434 C36.0417263,66.4045324 36.7703959,66.4172881 37.493485,66.3798182 C38.2309244,66.3423483 38.9691608,66.3359705 39.7073973,66.2985006 C40.0653544,66.2801642 40.4201224,66.2522611 40.7788767,66.2147912 C40.8849084,65.9469214 40.927959,65.6973879 40.8506275,65.398426 C40.828305,65.3147168 40.8004019,65.2302101 40.762932,65.1528787 C40.7565542,65.1337451 40.7509735,65.1154088 40.7477846,65.0962753 C40.7158954,64.9551653 40.6545085,64.8331888 40.5731909,64.7295487 C40.1386997,64.8515251 39.7010195,64.9591514 39.2529753,65.0221327 C38.7236134,65.0994642 38.1910627,65.1871596 37.658512,65.2397769 C37.2343848,65.2772468 36.8078659,65.2987721 36.3845359,65.3298641 C36.0297677,65.3553755 35.6462993,65.4207485 35.2915313,65.3864676 C34.9208186,65.3489977 34.509447,65.3298641 34.1921488,65.109031 C33.9250763,64.9256677 33.6771372,64.6522173 33.5551608,64.3357163 C33.359839,64.2719377 33.1645173,64.2081592 32.9683982,64.1435834 C32.8687444,64.1093024 32.7659015,64.0941551 32.6630586,64.0941551 C32.1711667,64.0941551 31.6976111,64.4608816 31.566865,64.9408151" id="Fill-3"></path>
                <path d="M33.2435229,46.7664051 C32.9541279,46.934621 32.879188,47.2933753 33.0282704,47.5795814 C33.1502468,47.8163592 33.2682371,48.0491508 33.3774579,48.2899148 C33.5584294,48.7411479 33.6453277,49.2083256 33.7234564,49.684273 C33.7975989,50.3037219 33.8510134,50.927157 33.8693498,51.5529839 C33.8884833,52.2035249 33.8478245,52.8636327 33.7856404,53.5117821 C33.6517056,54.8630897 33.4866786,56.2151946 33.3216516,57.5665021 C33.1502468,58.6905988 32.9724641,59.8146954 32.686258,60.9204556 C32.5395674,61.4777206 32.3649736,62.026216 32.1911772,62.577103 C32.0572422,62.9916635 31.9607772,63.4245603 31.7989392,63.8287567 C31.7798056,63.8694154 31.7614693,63.9132632 31.7423357,63.9563137 C31.636304,64.1994694 31.6211565,64.2552756 31.5868755,64.5207537 C31.5709309,64.6570803 31.6522486,64.9002359 31.7208105,65.0190235 C31.7989392,65.1521612 31.9448326,65.3084186 32.0883343,65.3769805 C32.2342277,65.4606898 32.390485,65.5045376 32.5587009,65.5045376 C32.8074372,65.5045376 33.047404,65.4048836 33.2188088,65.2302899 C33.4085498,65.0437377 33.501826,64.7822457 33.4898675,64.5263344 C33.5066093,64.4545835 33.5257429,64.3836299 33.5456737,64.311879 C33.4858813,64.150041 33.4595727,63.977839 33.4803008,63.8008536 C33.5265402,63.392671 33.5520516,63.2714917 33.7170785,62.9039679 C33.8007879,62.7110379 33.942695,62.5476055 34.0814134,62.3881591 C34.2536154,61.7631295 34.4066839,61.1357082 34.5294575,60.4971256 C34.7008623,59.6281431 34.7789911,58.7376355 34.8786451,57.8558972 C34.9719211,57.0339514 35.0189578,56.2024388 35.0899114,55.377304 C35.1465148,54.7546662 35.1991322,54.1344199 35.2429798,53.5117821 C35.2836387,52.9545171 35.2676941,52.3996439 35.2302241,51.8455679 C35.1895654,51.188649 35.1273812,50.5349191 35.0245384,49.8835808 C34.9814879,49.6005636 34.9216956,49.3199381 34.8627004,49.0401097 C34.7877606,48.7004891 34.6912955,48.3672463 34.5669274,48.0403813 C34.4266146,47.6760464 34.2400625,47.326859 34.0590909,46.9784688 C33.9570452,46.7879304 33.7513595,46.6882764 33.5424848,46.6882764 C33.4396419,46.6882764 33.3336101,46.7137879 33.2435229,46.7664051" id="Fill-15"></path>
                <g id="Group-19" transform="translate(0.000000, 0.535739)">
                    <path d="M47.2701758,82.0773091 C47.6217549,81.8253839 47.9741314,81.5726616 48.3288994,81.3239253 L48.7522294,81.0249634 L48.8957311,80.9253094 L49.0424217,80.8224666 C49.1141726,81.2330408 49.2664439,81.6101314 49.5064106,81.9991805 L49.5717835,82.1052123 L48.964293,82.1394932 L48.183006,82.2208108 C47.6847363,82.2829949 47.2574201,82.3324233 46.8340901,82.3762711 C46.9871586,82.2766171 47.133052,82.1769631 47.2701758,82.0773091 M60.1813422,54.4915 L60.3344106,53.0995335 L60.4651567,51.8694051 C60.5616217,50.9015659 60.6580868,49.9823578 60.6517089,49.063947 L60.6517089,48.7243263 L60.6517089,48.4413091 C60.64852,47.9677535 60.645331,47.4973868 60.6333725,47.0238312 L60.7545517,47.067679 C60.9068229,47.0613011 61.0319883,47.0589094 61.1627344,47.0589094 C61.2121627,47.0589094 61.2560105,47.0589094 61.3030471,47.0613011 L61.4146596,47.1051489 C61.5079357,47.4160692 61.5796865,47.7437314 61.633101,48.1048773 C61.6450595,48.2133008 61.6578152,48.3288994 61.667382,48.4437008 C61.701663,48.7458515 61.6952851,49.0822834 61.6450595,49.5343137 C61.4616962,50.7078387 61.1380201,51.8606356 60.8263026,52.9751654 L60.6644646,53.5324303 L60.4555899,54.2770447 L60.3033187,54.8247428 L60.0976329,55.5629793 L59.9979789,55.9305031 L59.9668869,56.0365349 C60.0442183,55.5908825 60.1159692,55.0958015 60.1813422,54.4915 M10.9706249,57.2539076 L10.7434139,57.1853457 C10.4348852,57.0203187 10.1303427,56.8241998 9.78434418,56.5722746 C9.64403143,56.4598649 9.51328539,56.3386857 9.38891725,56.2047508 C9.27650765,56.0429128 9.17366476,55.8467938 9.08038864,55.6474858 C8.93688694,55.2703953 8.87151395,54.8502542 8.80932988,54.4141685 L8.7694683,54.0498337 C8.69452853,53.3865369 8.63234445,52.7918021 8.64749186,52.202648 C8.66343649,51.5425401 8.68815067,50.8417735 8.76627937,50.1697072 C8.88426965,49.4840881 9.01182672,48.8144135 9.24222669,48.2109091 C9.48857123,47.6624138 9.77158848,47.1705219 10.083306,46.7495835 C10.1391123,46.6818189 10.1989046,46.6220265 10.2642776,46.5630314 C10.344798,46.5040362 10.4348852,46.4538106 10.5225806,46.4043823 L10.6939855,46.3573456 L10.7808837,46.3701013 L10.8709709,46.3860459 L10.8773487,46.8930853 L10.8247315,48.1702503 C10.7776948,49.2130293 10.7776948,50.0700534 10.8247315,50.864096 C10.864593,51.5114482 10.9084408,52.1627864 10.9554774,52.8133274 L11.0208505,53.7787749 C11.0830345,54.6884162 11.1324629,55.5940714 11.1635549,56.5069015 C11.1731217,56.7779603 11.1794996,57.0426412 11.1826885,57.3041332 L11.1890663,57.3137 C11.1109376,57.2881886 11.0359978,57.2666634 10.9706249,57.2539076 M15.4741864,36.8001327 L15.7045863,36.725193 L16.2929433,36.5354518 C16.9092034,36.3393328 17.5015464,36.0969744 18.2047048,35.7908374 C18.4414825,35.6911835 18.6782603,35.5915296 18.9182271,35.4990506 C19.5504317,35.2495172 20.1922032,34.9346106 20.7399014,34.660363 L20.8618778,34.6021651 L21.4311012,34.3183506 C21.7244825,34.1748489 22.0138775,34.0193887 22.3064616,33.8607396 L22.3845902,33.8200808 L22.7887867,33.6016394 C23.1315963,33.421465 23.4712169,33.2404934 23.8140266,33.0539412 C24.7045343,32.5740078 25.5790974,32.0821158 26.4512688,31.5806572 C27.1273212,31.1884192 27.8312767,30.7427668 28.4012974,30.3784319 L28.5440019,30.2851558 L28.9210925,30.0427973 L29.9957606,29.3452196 C30.141654,29.2511463 30.2851558,29.1483034 30.4286574,29.0462578 L30.5904955,28.9274703 L30.7116747,28.843761 L30.7866144,28.7903464 C30.9388857,28.6843146 31.0512953,28.6037942 31.1573272,28.5129098 L31.4339666,28.2920767 L31.521662,28.2203258 C31.7672094,28.0210179 32.010365,27.82171 32.2439539,27.6104436 L32.4584092,27.4111357 C32.7390348,27.1552244 33.0132825,26.9064881 33.2931107,26.6569546 C33.7012934,26.2926197 34.1126649,25.9282849 34.5232391,25.5671389 L34.5854232,25.5145216 C34.9752695,25.1653342 35.279812,24.8918837 35.5604375,24.5985024 L35.7972153,24.3529551 C36.0308042,24.1129884 36.3831806,23.7518424 36.6414836,23.4058439 C36.7754185,23.2224806 36.8902199,23.044698 37.0058185,22.8613348 L37.0552468,22.7863949 L37.1365644,22.6620268 L37.2083153,22.555995 L37.3454391,22.3566871 C37.3765312,22.5464282 37.451471,22.7018884 37.5319914,22.8549569 L37.5822169,22.945044 L37.7249214,23.2224806 C37.9242293,23.5931934 38.1610071,23.9575282 38.4727247,24.3712915 C38.7126914,24.6734423 38.9709944,24.9915377 39.2763342,25.2498407 C39.4812227,25.4268262 39.6964753,25.6014199 39.9117278,25.7696358 L40.359772,26.1188232 L41.2598465,26.8164009 C42.1160733,27.4765087 42.8447429,27.9994926 43.4960812,28.4132558 C44.1306776,28.8373831 44.8816698,29.229621 45.3767506,29.4879241 L45.5011188,29.5501082 L45.5792475,29.5875781 L45.6820904,29.6409926 L45.9372045,29.7685496 L46.5072251,30.0675116 L46.7248694,30.1791239 C47.5850823,30.6215875 48.444498,31.064051 49.3134805,31.4810032 C50.5930372,32.0948715 51.8199767,32.598722 52.8507972,33.0132825 L52.9632069,33.063508 C53.4080622,33.2564381 53.8784289,33.4621239 54.3177035,33.6925238 C54.8749684,33.9851078 55.348524,34.2776918 55.775043,34.5894094 C55.9057889,34.7018191 56.0269682,34.8285789 56.1672809,35.0095505 C56.3697777,35.2710425 56.5658968,35.5548569 56.7436794,35.8378741 C56.9238537,36.1304582 57.0801111,36.4326089 57.2515159,36.821658 C57.6963712,37.9832244 58.032803,39.285901 58.3070506,40.9202258 C58.421852,41.8952401 58.5095474,42.7044302 58.5374506,43.4928923 C58.5470173,43.7320618 58.552598,43.9696368 58.5557869,44.2056174 C58.5589758,44.4113032 58.5621648,44.6138 58.5685426,44.8162968 L58.6060124,45.7594219 C58.3660458,45.9308267 58.2536361,46.3079173 58.3445205,46.644349 C58.4035157,46.840468 58.5127364,46.9991171 58.6586298,47.10196 L58.6371045,48.9794405 C58.6371045,49.5375026 58.614782,50.0166388 58.5781094,50.4495356 C58.5494091,50.7891563 58.5127364,51.1287769 58.4720776,51.4652087 L58.4346077,51.7984516 L58.3971378,52.1093719 L58.3596679,52.4210894 L58.3381426,52.6012638 C58.2879171,53.0062574 58.2504472,53.317975 58.2193551,53.6288953 C58.1507932,54.3049478 58.0798396,54.9810002 57.995333,55.6562554 C57.8518314,56.6934538 57.7306521,57.4005982 57.5815698,58.0981759 C57.4787269,58.6028235 57.3567505,59.0915266 57.2228156,59.5834185 C57.1199727,59.9788453 56.9924157,60.3686916 56.8648586,60.7577406 L56.8241998,60.8789199 C56.6129334,61.5549723 56.3386857,62.3394482 55.8810748,63.5887102 C55.7343841,63.987326 55.5940714,64.382753 55.4545558,64.7845577 L55.3636714,65.0396718 L55.2735842,65.2979749 C55.186686,65.5594668 55.0958015,65.8209588 54.9993366,66.0856397 C54.7753144,66.7122638 54.5289699,67.3253349 54.2770447,67.9392033 L54.2427637,68.0229126 C53.9717049,68.6423615 53.6982545,69.2689857 53.4016844,69.8820567 C53.0341606,70.6386296 52.667434,71.3928107 52.2839656,72.1366278 C51.5959547,73.4632213 50.6799355,74.7212528 49.9424963,75.7305481 L49.7304326,76.0199432 C49.1851262,76.7175208 48.5624883,77.406329 47.7652567,78.187616 C47.4041107,78.545573 47.0429648,78.8915716 46.6850078,79.2152476 L46.7878506,79.2399617 L46.8556153,79.2184365 L46.6594964,79.3364267 C46.3948155,79.5237762 46.1365125,79.7103284 45.8813983,79.9032585 C45.7657997,79.987765 45.6509983,80.0778522 45.5385887,80.1679394 L44.7262096,80.7570935 C44.5324824,80.8942174 44.3363634,81.0313412 44.1370555,81.1644789 L44.1338666,81.1588983 L43.9999316,81.2083267 C43.8444715,81.2768886 43.6953891,81.3582062 43.5423206,81.4419155 L43.3836715,81.5351916 C42.418224,82.0613645 41.6369371,82.4543997 40.9266037,82.7653201 C40.6061166,82.896066 40.2784544,83.0052867 39.9452116,83.1145075 L39.6462496,83.2141615 L39.5346373,83.2516314 C39.3536657,83.3138154 39.1798691,83.3728106 39.0020865,83.4318057 C38.6592769,83.5378375 38.3140756,83.6215468 37.9616992,83.7028644 C37.7065851,83.7499011 37.4450931,83.7841821 37.1836011,83.8152741 L36.9245008,83.8495551 L36.7283819,83.8647024 L36.4764567,83.8806471 L36.1527806,83.9053613 C36.0778408,83.9085502 35.9997121,83.9117391 35.9183945,83.9117391 C35.7254644,83.9117391 35.5357234,83.9021724 35.3451849,83.8894167 L35.2208168,83.8806471 C34.7289249,83.8463662 34.2370329,83.7841821 33.74833,83.7188091 L33.6422982,83.7124312 C32.8075967,83.5936437 31.9290474,83.3696216 31.2258891,83.1894472 L30.9699777,83.126466 L30.6933383,83.0555124 C30.1265067,82.9056328 29.6338175,82.7716979 29.1514924,82.6098599 C28.66837,82.444833 28.1924227,82.2606725 27.7188671,82.0677424 C27.4262831,81.9369964 27.1400769,81.7966836 26.8530735,81.6571681 C26.7071801,81.5854173 26.5636785,81.5104774 26.4233657,81.4355377 L26.2894308,81.3669758 C26.1746294,81.3047917 26.0558419,81.2426076 25.9378516,81.1868014 C25.5392358,80.9938714 25.2801355,80.8655171 25.0377771,80.7132458 C24.7978104,80.5697441 24.5674105,80.4015282 24.3433883,80.2309206 C24.1313248,80.0627048 23.9224501,79.8817332 23.7231421,79.6919921 C23.533401,79.5173983 23.3556183,79.3149016 23.1818219,79.1155936 L23.0566565,78.9720919 L22.9322883,78.8325764 C22.6086123,78.477011 22.2689916,78.1381876 21.926182,77.7985669 L21.8018139,77.6741988 C21.6304091,77.505983 21.4621932,77.3377671 21.2939773,77.1631734 L21.210268,77.0762751 C20.6904729,76.5341576 20.1547334,75.9737037 19.6628414,75.4004942 C19.4037411,75.1015323 19.1518159,74.7993816 18.8998907,74.4972307 C18.3792985,73.6194787 17.7566606,72.7879661 17.152359,71.9811677 L16.8318719,71.5108011 C16.5544353,71.056379 16.1462526,70.3675708 15.7978625,69.6046201 C15.6734943,69.2689857 15.5706514,68.9197982 15.4709974,68.571408 L15.4367165,68.4589983 C15.35221,68.1664143 15.2716896,67.8674525 15.1935608,67.5716795 L15.1688467,67.4784034 L15.1409435,67.3755605 L15.1034737,67.2416256 L14.9974419,66.8430098 C14.8164703,66.182902 14.6235402,65.4661907 14.4864164,64.768613 C14.4090849,64.3915224 14.340523,64.0088513 14.271961,63.6229912 L14.2281134,63.3830244 L14.1850628,63.1462467 C14.1348373,62.8600405 14.0854089,62.5794149 14.0288054,62.2963977 L13.9538657,61.8882151 L13.9259625,61.7383356 C13.8047834,61.1005503 13.6955626,60.5050182 13.6022865,59.9070945 C13.5552498,59.5459486 13.5090104,59.1848026 13.4898768,58.8236568 C13.4651626,58.3469122 13.4468263,57.8709649 13.4308817,57.3942204 L13.4245039,57.0705444 C13.3997896,56.2294649 13.3782644,55.4043302 13.321661,54.6198543 C13.2905689,54.1558655 13.2538963,53.6886877 13.2164264,53.2246989 L13.2036706,53.0716305 C13.1008278,51.7665623 12.994796,50.4152546 13.0226991,49.0416245 C13.0354548,48.5218295 13.060169,48.0052234 13.0888693,47.4846311 L13.1287309,46.6531185 C13.156634,45.9555408 13.1662008,45.2579632 13.1725787,44.5571966 L13.1757676,44.2988935 C13.1909149,43.4115747 13.2196153,42.6765271 13.2626658,42.0538892 L13.3001357,41.5213385 L13.3192692,41.2789801 C13.3535502,40.8078162 13.3878312,40.359772 13.4340706,39.9109306 L13.5121993,39.4349833 L13.5927197,38.9207689 L13.6054754,38.8306817 C13.6397564,38.5939039 13.6740373,38.3539372 13.6836041,38.1115787 C13.6891848,38.0055469 13.6836041,37.8963262 13.6740373,37.7910916 C13.6644706,37.6842626 13.6612816,37.6188896 13.6612816,37.5535166 C13.6612816,37.4506737 13.6525121,37.3853007 13.6365674,37.3263056 L13.7202767,37.3326834 C14.3126199,37.1772233 14.9105436,36.9866849 15.4741864,36.8001327 M40.2075007,0.317218469 L39.6621943,0.342729881 C39.0052754,0.364255136 38.3451676,0.367444062 37.6906405,0.370632988 L37.4387153,0.370632988 L37.1923706,0.373821915 C36.5075487,0.377010842 35.7469897,0.42006135 34.7321139,0.510148526 C34.0967202,0.569940898 33.4613266,0.612991407 32.822744,0.656839147 L32.3404189,0.691120107 C31.8014903,0.725401068 31.2657506,0.778018356 30.730011,0.831432876 L30.0611337,0.899994797 C29.0988751,0.996459828 28.2984545,1.08335807 27.4757115,1.2579518 C26.6601435,1.43573445 25.8318198,1.70599598 25.2833244,1.88377864 L25.0967723,1.94277378 C24.2588818,2.20745469 23.4496917,2.61244836 22.7361694,2.97040536 L22.0106886,3.33474022 C21.4223316,3.63131039 20.8363664,3.92708333 20.2543872,4.23481474 C18.6973939,5.05117994 17.2057735,6.00387174 15.8193877,7.06259536 C15.1967498,7.54890666 14.5741119,8.0814574 13.9355293,8.62915553 L13.8701563,8.68815067 L13.6086644,8.91536169 C12.8895614,9.54198579 12.2318453,10.1646237 11.5996406,10.8247315 C11.1611632,11.2887203 10.737036,11.7622758 10.3073282,12.2446011 L9.78115528,12.8361469 C9.03096028,13.6740373 8.37085248,14.533453 7.8749744,15.1879802 C7.44845547,15.751623 7.06259536,16.3646941 6.75087779,16.8597749 L6.67354632,16.987332 L6.45191593,17.3397084 C5.96959079,18.0994701 5.51756045,18.852854 5.10698615,19.5847127 L4.96348445,19.840624 C4.69561463,20.3165714 4.43093372,20.7933158 4.16944174,21.2756411 C3.71501971,22.1071536 3.38496581,22.9729472 3.08600395,23.7893124 C2.75595005,24.6981564 2.45698819,25.6141756 2.20426576,26.5110612 C2.06714192,27.0125199 1.9459627,27.5163703 1.8247835,28.025004 L1.75622158,28.3136019 L1.68447073,28.5974164 L1.56887214,29.0550273 C1.36079469,29.8713925 1.18620096,30.6654353 0.939856378,31.8923748 C0.60980248,33.5928698 0.392158243,35.4017884 0.245467621,37.5877976 C0.145813667,39.144791 0.0708738926,40.8548528 0.0150676779,42.9659222 C-0.016024356,44.2494651 0.00550089831,45.622298 0.0342012373,46.9122188 L0.0557264915,48.2196787 C0.0708738926,49.0918501 0.108343779,49.944888 0.164947226,50.8298151 C0.196039259,51.2682924 0.204808808,51.7043782 0.214375588,52.1436528 L0.22075344,52.3023019 L0.223942367,52.4705178 L0.242278695,53.2430353 C0.289315362,54.6908079 0.382591464,56.1114747 0.482245418,57.5624363 L0.495001124,57.7521774 L0.506959599,57.9482964 L0.547618412,58.5215059 L0.557185192,58.6737772 C0.961381635,60.0753104 1.31535248,61.4888021 1.68765965,62.8967132 C1.87740079,63.6102355 2.05518344,64.3261495 2.24173564,65.0396718 C2.39161519,65.6065035 2.5909231,66.1542016 2.79581164,66.6995081 C3.20399423,67.7175729 3.64645779,68.7109235 4.06978779,69.7202187 C4.47478146,70.6760995 4.87020836,71.6319802 5.2871605,72.5822803 C5.75114931,73.6346261 6.24941909,74.6718244 6.75406672,75.7058339 C6.91271581,75.7807737 7.05940644,75.8828193 7.19015242,76.0143625 C7.72908101,76.5493049 8.18669198,77.1815096 8.66024756,77.7762444 C9.0365409,78.2561779 9.4168204,78.7329225 9.79709989,79.2120587 C10.5847648,80.214976 11.3756185,81.2178934 12.1577028,82.2263915 C12.6583642,82.8745408 13.159823,83.5218929 13.6612816,84.1668533 C14.2623943,84.8859562 14.8635069,85.6026674 15.4805642,86.306623 C15.6424023,86.4246133 15.7763372,86.5776817 15.8728022,86.7482893 C15.9812257,86.8702658 16.0904464,86.9914449 16.1996672,87.1094353 C16.4515924,87.3900608 16.7075037,87.6674974 16.95624,87.9505146 C16.9968988,87.9975513 17.0431382,88.0469796 17.0901749,88.1003942 C17.3452891,88.2901353 17.606781,88.467918 17.8810287,88.629756 C17.9344432,88.6480923 17.9902494,88.6672258 18.0460557,88.6823733 C18.0739587,88.6855622 18.1026591,88.6855622 18.1337511,88.6887511 C18.5259891,88.49901 19.0146921,88.3762363 19.4523723,88.4479872 C19.5121646,88.2973104 19.5703625,88.1450391 19.6285605,87.9911734 C19.7872096,87.5742213 19.9394808,87.153283 20.0861714,86.729953 C20.2695347,86.1790659 20.3947001,85.5931006 20.5126903,85.0294579 L20.594008,84.6523673 C20.8084633,83.6247358 20.9392092,82.830693 21.017338,82.0804981 C21.0890888,81.3733536 21.0548078,80.6351171 20.9113062,79.8227381 C21.1042362,80.0371934 21.2573047,80.1966397 21.4095759,80.3584777 L21.6591094,80.6327254 C21.8895094,80.8878396 22.0696837,81.0871474 22.2689916,81.2673218 C22.5926677,81.5630948 22.9203299,81.8253839 23.240817,82.0398392 C23.5549263,82.2550918 23.9192611,82.5006391 24.2780153,82.6879886 C24.4518119,82.7812647 24.6295945,82.8713519 24.8105661,82.9582501 L24.8847087,82.9989089 L25.3271722,83.2229311 C25.7417326,83.4381835 26.1618737,83.6470582 26.5915815,83.8399883 C27.4103385,84.2226595 28.2514178,84.5439439 29.0861194,84.7894912 C29.9016873,85.0422136 30.6901494,85.2566689 31.4307776,85.4280737 L31.686689,85.4902578 L31.7919235,85.5213498 C32.0414571,85.5867228 32.2878016,85.6489069 32.533349,85.7023214 C32.891306,85.7740723 33.2500602,85.8203117 33.6080173,85.8673483 L33.7228186,85.8824958 L34.0034441,85.9199657 C34.629271,86.0044722 35.3053234,86.0818037 35.9933343,86.0818037 C36.1647391,86.0818037 36.3425217,86.076223 36.5171155,86.0666563 C37.0153853,86.0323753 37.5072772,85.9638134 37.9991691,85.8952515 C38.5006278,85.8203117 38.9056215,85.7334134 39.2731453,85.6273816 C39.6374801,85.5245387 39.9954371,85.4033596 40.3533941,85.2789914 L40.4498591,85.2415216 L40.5463242,85.2104295 C40.5718356,85.222388 40.6212639,85.2319548 40.6802591,85.2319548 C40.7990466,85.2319548 40.9266037,85.2168073 41.0732943,85.188107 C41.2351323,85.153826 41.3905924,85.0852641 41.540472,85.0198911 L41.7453606,84.9234261 C42.1128844,84.7743438 42.4684496,84.602939 42.8264067,84.4283453 C42.7889367,84.4626262 42.7857478,84.5279992 42.7857478,84.5846026 C42.7825589,85.2136184 43.0878987,85.7676944 43.6236383,86.1073151 L43.7607621,86.1942134 C43.7918542,86.3592403 43.8476604,86.533834 43.9194112,86.7108194 C44.19047,87.4083971 44.6138,88.0382101 44.9502317,88.5420605 L45.1495396,88.8410224 C45.6725236,89.641443 46.382857,90.3764905 47.2542312,91.0278287 C47.5037647,91.211192 47.7748234,91.3730305 48.0426933,91.5316792 L48.1734392,91.6129969 L48.5154516,91.8218717 C48.9547263,92.1112668 49.3940009,92.3918921 49.848423,92.653384 L49.9767773,92.7275266 C50.5180975,93.0392445 51.0044088,93.3254503 51.4428862,93.6586928 C51.6270468,93.8332865 51.7984516,94.0262172 51.9634785,94.2534281 C52.1372749,94.5125279 52.3030991,94.8170707 52.4553704,95.1598803 C52.6076416,95.630247 52.7136734,96.1412725 52.79818,96.8165273 C52.8507972,97.5547645 52.8787004,98.1901578 52.8787004,98.7569898 C52.8818893,99.0934216 52.8691336,99.4330419 52.8571751,99.7686763 L52.8539862,99.8595612 C52.8412305,100.220707 52.832461,100.553949 52.8348526,100.887193 C52.8507972,102.213786 52.8228942,103.599374 52.7543323,105.246455 C52.7296181,105.947222 52.767088,106.644799 52.8101385,107.36151 L52.8197053,107.48269 C52.8635529,108.276733 52.9129814,109.096287 53.0190132,109.874385 C53.1282339,110.665238 53.3769701,111.409853 53.5826559,111.970306 C53.9469908,112.988372 54.5481034,113.994478 55.3636714,114.963114 C55.775043,115.445439 56.1521335,115.825719 56.5475604,116.16215 L56.7931077,116.367837 C57.0266966,116.567144 57.2602855,116.763263 57.4938744,116.956193 C57.6868044,117.111653 57.8741539,117.258344 58.0886091,117.385901 C58.1978299,117.454463 58.3190091,117.510269 58.4441744,117.566872 L58.6402934,117.65696 L58.9296885,117.797273 C59.409622,118.030861 59.8791914,118.251694 60.3463691,118.4231 C60.7736853,118.581748 61.2057849,118.743586 61.6267232,118.927747 C62.4925168,119.375791 63.2738037,119.986471 63.9937039,120.574828 C64.2926658,120.839508 64.5788719,121.092231 64.8252165,121.384815 C64.8993591,121.502806 64.9711099,121.636741 65.0364829,121.773864 C65.2549244,122.47782 65.3729146,123.247148 65.4725686,123.863408 L65.4940939,124.000532 C65.6718765,125.131007 66.2825559,126.286195 67.2169114,127.251643 C67.7988905,127.843189 68.4964682,128.21709 69.2809441,128.609328 C69.6580347,128.799069 70.0470837,128.995986 70.3994601,129.238344 C70.7414724,129.471933 71.0627568,129.721467 71.380055,129.979769 C71.8599885,130.406289 72.3391247,130.883033 72.8469612,131.437109 C73.3922677,132.025466 73.8530676,132.508588 74.3481484,132.966199 C74.6997276,133.289875 75.0608735,133.601593 75.4283972,133.887799 C75.9019529,134.255323 76.4687846,134.492101 77.0109021,134.691408 C77.8200922,135.006315 78.7640144,135.164964 79.4520253,135.276577 C80.4023255,135.439212 81.1525205,135.516543 81.8317618,135.522921 L81.9154711,135.522921 C82.279806,135.522921 82.6441408,135.513355 83.0084757,135.504585 C83.4134694,135.491829 83.7682374,135.485451 84.1238028,135.485451 C84.5279992,135.485451 84.9329929,135.495018 85.3411755,135.507773 C85.6337595,135.516543 85.9295325,135.522921 86.2253053,135.529299 C86.7171972,135.529299 87.1564719,135.485451 87.5646545,135.444792 C88.0693021,135.385798 88.4830653,135.227148 88.8354417,135.083647 C90.0870954,134.598132 90.4514303,133.227691 90.7751063,132.022277 L90.8253319,131.822969 C90.98717,131.225045 91.1274827,130.621541 91.2677955,130.01724 C91.5691487,128.693834 91.8314379,127.33296 92.052271,125.965708 C92.2515795,124.710865 92.3639889,123.480737 92.3855143,122.303226 C92.3974726,121.471713 92.2667271,120.618675 92.1614919,119.933056 L92.1359807,119.762449 C92.0586497,119.245046 91.9900876,118.72525 91.9279033,118.204658 C91.8593412,117.024755 91.9119583,115.881525 92.086552,114.708 C92.2268647,114.116454 92.400662,113.515341 92.5720663,112.935755 C92.7936967,112.182371 93.0272854,111.403475 93.1795572,110.606243 C93.5064219,108.868278 93.718486,107.308096 93.8245176,105.835609 C93.8803232,105.084617 93.9361297,104.334422 93.9767885,103.581038 C93.9951246,103.235039 94.0110696,102.886649 94.0144838,102.540651 C94.0174474,102.266403 93.9863557,101.995345 93.9520746,101.743419 L93.9297519,101.537734 C93.8954708,101.269864 93.7926276,101.008372 93.718486,100.818631 L93.6435461,100.631281 C93.5654168,100.429582 93.4753302,100.232665 93.3788648,100.033358 C93.0551886,99.3581019 92.5943891,98.7035753 92.2579573,98.2308166 L92.0179908,97.888007 L91.6161854,97.3028389 C91.2518508,96.7639101 90.8811382,96.2281707 90.5016558,95.7019976 L90.137321,95.1941614 L89.7913224,94.7150249 L89.3711814,94.1322488 C88.9040037,93.4474269 88.4208813,92.6996234 88.0693021,91.8712995 L88.0222655,91.7277983 L87.976026,91.588283 C87.8668053,91.2614123 87.7950544,90.918608 87.7480178,90.5415174 C87.6954005,89.9125017 87.6483639,89.2428271 87.6954005,88.5707608 C87.7512068,87.8476717 87.8357133,87.122191 87.944934,86.4214244 C88.1442419,85.1602039 88.3212273,83.8272326 88.5021989,82.2327693 C88.6983179,80.4669012 88.7166542,78.8198206 88.5580051,77.3345782 C88.5269131,77.0388052 88.4400149,76.7581796 88.3435498,76.4472593 L88.2590433,76.1666338 C88.1593893,75.8270131 88.0469796,75.4905814 87.9289894,75.1573385 L87.8604274,74.9580306 C87.6268386,74.288356 87.349402,73.4975023 86.9850671,72.8031135 C86.6494326,72.1430057 86.238061,71.4860868 85.8769151,70.9033105 L85.4535851,70.2248664 C84.926615,69.3590728 84.2290373,68.2190315 83.4788424,67.1818332 C82.8936744,66.3630763 82.2957506,65.5626558 81.694638,64.7622352 L81.5543252,64.575683 C80.9037842,63.7162672 80.2556349,62.8568515 79.6266191,61.991058 L78.9976034,61.1188866 L78.6826968,60.679612 C78.5089003,60.4244978 78.3438734,60.1630058 78.1756575,59.9015139 L78.1222429,59.8233852 L78.0728146,59.7484454 L77.7547192,59.2597425 C77.4748909,58.8300346 77.1878875,58.4154741 76.7956496,58.0575171 C76.8147831,57.5688141 76.8084053,57.0577887 76.7988385,56.5379936 L76.7805021,55.7128589 C76.7581796,53.8569036 76.7366544,52.0097179 76.6896177,50.1665183 C76.6680924,49.126131 76.5524939,48.0737853 76.4624068,47.2263281 L76.4376925,46.9927392 L76.4161672,46.7814728 C76.3476053,46.1492682 76.2822324,45.5170634 76.2351957,44.8816698 C76.1291639,43.3493906 75.9577591,41.3220306 75.5814658,39.2476339 C75.3255544,37.8181975 74.95245,36.4015169 74.6192072,35.1498632 L74.4382356,34.4833776 C74.19508,33.5737363 73.9431548,32.7733157 73.6625292,32.0414571 C73.4727881,31.5399983 73.2981944,31.0329591 73.1275867,30.5251224 C73.0056103,30.1639766 72.9059564,29.8769732 72.8063025,29.5939559 C72.433198,28.5256655 72.0840106,27.4143246 71.7914266,26.4640245 C71.4892758,25.498577 71.1034157,24.5801662 70.633049,23.4775948 L70.5860123,23.3651851 L70.4799805,23.1196378 C70.1873965,22.4156823 69.9099599,21.7555744 69.6237537,21.0986556 C69.4619157,20.7462792 69.2905109,20.3947001 69.1159172,20.0455126 L69.0449635,19.8964303 L68.9732127,19.7465507 L68.9014619,19.6038463 L68.6519283,19.1087654 C68.3003492,18.4079988 67.9360144,17.6849097 67.5469653,17.0311798 C67.1762526,16.4085419 66.7808257,15.7946735 66.3822099,15.1911691 L66.3287953,15.1098516 C65.952502,14.5246835 65.5100385,13.848631 65.0611971,13.2475184 C64.8371749,12.9485566 64.6035861,12.6559725 64.3668083,12.3601996 L64.2113482,12.1672696 L64.1332194,12.0700072 L64.0622658,11.9831091 L63.9905149,11.8993997 L63.6229912,11.4537473 C63.1087767,10.8311093 62.6384101,10.3081253 62.1903659,9.85609501 C61.6203453,9.29564116 60.9913296,8.81331604 60.4834929,8.42346977 L59.9605091,7.98180344 L59.7827264,7.83511282 C59.278876,7.41816067 58.8579377,7.06578429 58.4473634,6.77001135 C57.7744999,6.28768621 57.0545997,5.84203372 56.2485985,5.41870372 C54.8127844,4.64937519 53.4423432,3.87366881 52.1747449,3.15137694 C49.7368105,1.7594105 47.2701758,0.849769203 44.8473889,0.442383836 C44.090816,0.320407396 43.2840176,0.261412255 42.3121923,0.261412255 C41.6114257,0.261412255 40.9082673,0.289315362 40.2075007,0.317218469" id="Fill-17"></path>
                </g>
                <path d="M14.9787867,90.9372632 C14.9819756,90.881457 14.9851645,90.8280425 14.9851645,90.7722363 L14.9692199,90.7562916 C14.93175,90.719619 14.8950773,90.6821491 14.8576074,90.6478682 C14.897469,90.7411443 14.9381278,90.8407982 14.9787867,90.9372632" id="Fill-20"></path>
                <path d="M65.9595974,23.4221872 C66.4299641,24.3158839 66.8851833,25.2159584 67.3268496,26.1224108 C67.682415,26.8542694 67.97181,27.6108423 68.2612052,28.370604 C68.2492466,28.3395119 68.2364909,28.3084199 68.2237352,28.2741389 C68.5011719,29.0339007 68.7658528,29.7968514 69.0520589,30.5502353 C69.3406568,31.292458 69.6451993,32.0283027 69.9369861,32.7697282 C70.2096393,33.5278955 70.4814952,34.2908461 70.718273,35.0601746 C70.9765761,35.9100236 71.2324875,36.7598725 71.5003573,37.6073298 C71.7459046,38.3798472 71.9579682,39.1611342 72.2409855,39.917707 C72.5367584,40.712547 72.8532594,41.5049952 73.1665714,42.2934573 C73.3068842,42.6833036 73.4376302,43.0739471 73.5428647,43.4741574 C73.6640439,43.9261877 73.7700757,44.3806098 73.8761076,44.8382207 C74.0690376,45.6577748 74.2061614,46.4860985 74.3903219,47.3080443 C74.5952105,48.2144967 74.779371,49.1233408 74.9691121,50.0329821 C75.1468948,50.9019646 75.3055439,51.7797165 75.5550774,52.6303627 C75.8165694,53.5208705 76.0094995,54.4273228 76.2741804,55.3146417 C76.5571976,56.2641446 76.9215324,57.1857443 77.3050009,58.0953856 C77.6629578,58.9428428 77.9866339,59.8054474 78.3573466,60.6457296 C78.7312482,61.5027537 79.1426198,62.3398469 79.5316688,63.1873041 C79.8306307,63.8282784 80.1200257,64.4764276 80.4157987,65.1181991 C80.7243273,65.7878737 81.0727176,66.4352258 81.4282828,67.0857668 C81.7583368,67.6900684 82.1011464,68.2879921 82.4152557,68.9050494 C82.5651352,69.1976334 82.7110285,69.4934064 82.8513414,69.7891793 C82.9828846,70.0729937 83.1008748,70.356011 83.2156762,70.6438116 C83.3990394,71.1699845 83.5768221,71.6969546 83.7386602,72.2310998 C83.9188345,72.8210512 83.9937742,73.4508642 84.0830643,74.0599492 C84.2353355,75.8266145 84.2887499,77.597266 84.2616441,79.3719036 C84.23693,81.2804761 83.937968,83.1739013 83.6669093,85.0609485 C83.5640664,85.7808487 83.4309287,86.4999517 83.3121412,87.2158656 C83.3336665,87.0978754 83.355989,86.9766962 83.3775143,86.8547198 C83.1630589,88.0697008 82.9541843,89.2870735 82.6926923,90.4892988 C82.5619462,91.0904114 82.3841636,91.6851466 82.2287034,92.2798809 C82.075635,92.8618597 81.9951146,93.4629728 81.8332766,94.0457488 C81.6961527,94.5312631 81.8611796,95.0518558 82.2972653,95.3316838 C82.7891573,95.6465902 83.5425412,95.5214252 83.8446919,94.9888742 C84.333395,94.1262692 84.6825824,93.15843 84.9719775,92.2081304 C85.1218571,91.7226161 85.2557919,91.2426827 85.3737823,90.7476018 C85.4917725,90.2708573 85.5762791,89.7789654 85.6727441,89.2966403 C85.8561074,88.4061325 86.0091759,87.5092469 86.1710139,86.6155503 C86.3639439,85.5281263 86.5449155,84.4414996 86.7003757,83.3516839 C86.8279328,82.4356648 86.9499092,81.5236317 87.0336186,80.6044237 C87.0742773,80.1316653 87.0710884,79.6517319 87.0774662,79.1781763 C87.0838441,78.7301321 87.0806552,78.2812907 87.0742773,77.8332466 C87.0519548,76.8614212 87.0089043,75.8872041 86.9371535,74.9153787 C86.8590248,73.890936 86.7561819,72.8633045 86.5042567,71.8635761 C86.3918471,71.4115456 86.233198,70.972271 86.0809267,70.5337937 C85.8935773,69.998054 85.6854998,69.4686922 85.4734362,68.944911 C85.4016853,68.7615477 85.3020314,68.5837651 85.2151332,68.4099685 C85.1059124,68.1915271 84.9966917,67.9706939 84.8850793,67.7554414 C84.6578682,67.3289224 84.4298599,66.9055924 84.1875016,66.4878431 C83.7171349,65.6754641 83.2435793,64.8590989 82.8417746,64.0092499 C82.4248224,63.1307007 82.0102619,62.2497597 81.5805541,61.3743994 C81.09504,60.3810487 80.6151066,59.390887 80.1885876,58.3664444 C79.7955525,57.4161442 79.3506972,56.485775 78.9640399,55.5314887 C78.8277133,55.1480203 78.6929811,54.7669435 78.5662213,54.3802862 C78.4259086,53.9473894 78.3262546,53.5017369 78.1986975,53.0664484 C77.9435834,52.2126133 77.653391,51.3723312 77.4389357,50.5089294 C77.2149137,49.6096521 77.0156057,48.7031997 76.8035421,47.7999362 C76.5978564,46.9405205 76.3706453,46.0874827 76.1498122,45.2304587 C76.0405914,44.8039398 75.9098455,44.3837987 75.7854773,43.9604687 C75.6603119,43.5331525 75.5550774,43.0946751 75.4020089,42.6769257 C75.2186457,42.175467 75.0312962,41.6803862 74.810463,41.1948721 C74.6390582,40.8241594 74.4708423,40.4502578 74.3058154,40.0739644 C74.1160742,39.6410676 73.9231443,39.2081708 73.7389838,38.7720851 C73.5675789,38.3575247 73.4153076,37.9373837 73.237525,37.5260121 C73.0573507,37.1026821 72.882757,36.6761632 72.7049742,36.2528332 C72.5343667,35.8478395 72.3406395,35.4556016 72.1700319,35.0537968 C71.7897523,34.1473444 71.3975144,33.2536478 70.9733871,32.3663289 C70.5691907,31.5188718 70.1394828,30.6841702 69.7464476,29.8311323 C69.3573986,28.9812834 69.0058194,28.1123009 68.6446736,27.2496963 C68.2954861,26.4181837 67.8936814,25.6050075 67.4831071,24.8077758 C67.1841452,24.2321746 66.8883723,23.658965 66.5862214,23.0857555 C66.5184568,22.9558067 66.4076416,22.9023922 66.2952319,22.9023922 C66.0576569,22.9023922 65.8145012,23.1447506 65.9595974,23.4221872" id="Fill-22"></path>
                <path d="M73.2790608,54.8286493 C73.073375,54.9378699 72.9864767,55.2089287 73.1012782,55.4138173 C73.3819037,55.9312206 73.6712987,56.4414489 73.9391686,56.96523 C74.1512322,57.3726154 74.3593096,57.780798 74.5681844,58.1889806 C74.8551877,58.7462455 75.1509606,59.3003215 75.4124526,59.8671532 C75.7114145,60.5248693 76.0167542,61.1785993 76.3093382,61.8387071 C76.3212968,61.8674074 76.3348496,61.8953105 76.3476053,61.9240109 C76.4424759,62.2349312 76.5501022,62.5426626 76.6641063,62.8480023 C76.8506585,63.349461 77.0786667,63.8222194 77.3090668,64.3053418 C77.4055317,64.5014607 77.6478901,64.6011147 77.8567649,64.5508891 C77.9811329,64.522986 78.0903537,64.4456545 78.1589157,64.3364337 C78.1804409,64.3037473 78.1955883,64.2726552 78.2075467,64.240766 C78.3630069,64.2495355 78.5224533,64.216849 78.6731301,64.1371259 C78.8812075,64.0247162 79.0430455,63.8349751 79.1147964,63.610953 C79.165022,63.4020783 79.1713998,63.2960465 79.1403078,63.0839828 C79.1243632,62.9659926 79.1179853,62.8416244 79.0964601,62.722837 L79.0215203,62.2931291 C78.9720919,62.0101119 78.9186774,61.7294863 78.8596823,61.4496581 C78.803876,61.1754104 78.7440837,60.9011627 78.6882774,60.6245233 L78.6045682,60.2227186 C78.5854346,60.1318341 78.5670982,60.038558 78.5447758,59.9484709 C78.5081031,59.7587297 78.4235966,59.5777581 78.3550346,59.3967866 C78.2777032,59.2540821 78.1716714,59.1384835 78.0345475,59.0483963 C78.0225891,59.0412212 78.0114278,59.0340461 77.9994693,59.0276683 C77.9085849,58.7550151 77.8129171,58.4847536 77.7132632,58.2168838 C77.6016507,57.9211108 77.4677158,57.6349046 77.327403,57.3510902 C77.2715968,57.2418695 77.2062239,57.1390266 77.1344729,57.0393726 C77.0220634,56.8807235 76.9008841,56.7595442 76.7573825,56.6287983 C76.6202586,56.5012412 76.4743652,56.4135457 76.2782462,56.4071679 C76.0255238,56.3983984 75.8110685,56.5227665 75.6675667,56.7252633 C75.6332858,56.769111 75.6053827,56.8153505 75.5870464,56.8655761 L75.5121066,57.0242252 C75.4842035,57.1238791 75.4746368,57.2235331 75.4746368,57.326376 C75.46507,57.488214 75.5184844,57.6532409 75.5431987,57.81189 C75.5695072,57.9840921 75.592627,58.1578885 75.6213273,58.3300906 C75.5392124,58.1698471 75.4563004,58.0096035 75.3749828,57.84936 C75.1565413,57.4324078 74.942086,57.0146584 74.7268334,56.5977062 C74.450194,56.0619666 74.1576101,55.5357938 73.8674177,55.0064319 C73.7876946,54.8629302 73.6362206,54.7792209 73.4799632,54.7792209 C73.4121985,54.7792209 73.3436366,54.7951655 73.2790608,54.8286493" id="Fill-24"></path>
                <path d="M52.4498695,79.2928979 C52.3223124,79.3335568 52.2162806,79.3710266 52.103871,79.4419802 C52.004217,79.5049616 51.9109409,79.5822931 51.8144759,79.6540439 C51.7395361,79.7098501 51.6709742,79.7728314 51.5968317,79.8318265 C51.3720123,80.008812 51.1511792,80.1897836 50.927157,80.3707551 C50.864973,80.4201835 50.8027889,80.4696118 50.7398076,80.518243 C50.5979004,80.3874969 50.4113482,80.3109627 50.2104458,80.2958154 C49.9959905,80.2798707 49.7903047,80.2894375 49.5758494,80.3364741 C49.3789332,80.3795246 49.1891921,80.4728007 49.0026399,80.5413626 C48.7467285,80.6378277 48.5011812,80.7566152 48.2580255,80.8777945 C47.9750083,81.0149183 47.6943828,81.15842 47.4169462,81.3075023 C47.1275511,81.4669486 46.8317781,81.6535008 46.6045671,81.8934675 C46.2027624,82.3104197 45.988307,82.9553801 46.2553797,83.5030782 C46.2856745,83.5636678 46.3247388,83.619474 46.370181,83.6696996 C46.2729188,83.7342754 46.1756565,83.8004456 46.0815831,83.870602 C45.9006116,84.0077259 45.8384275,84.293932 45.8886531,84.5028067 C45.9596067,84.8081464 46.2091403,84.9699845 46.5017242,85.0106432 C46.7225574,85.0385464 46.9378099,84.9420813 47.1211732,84.8328606 C47.3364258,84.7084925 47.5357336,84.5562212 47.7350416,84.4095306 C47.9375384,84.2596511 48.1336574,84.0946241 48.3297764,83.932786 C48.6287383,83.6872388 48.9213222,83.4313273 49.2107174,83.1730243 C49.4698176,82.9490022 49.7185539,82.7154134 49.9712764,82.4850134 C50.0988334,82.3662259 50.2263904,82.2482356 50.3571364,82.1302454 C50.4193205,82.070453 50.4846935,82.0146468 50.5468776,81.9588405 C50.6010893,81.9110066 50.6513149,81.871145 50.699946,81.8217167 C50.8896872,81.6694454 51.0794283,81.5171742 51.2699667,81.3641057 C51.3903487,81.2668435 51.5107306,81.168784 51.6319098,81.0683328 C51.5936427,81.1640006 51.5561728,81.2596684 51.518703,81.3545389 C51.3472981,81.7970025 51.1671238,82.2354799 50.9893412,82.6747545 C50.8490283,83.0295226 50.7310381,83.3946547 50.6058727,83.7558007 C50.4041731,84.3441576 50.2072569,84.9325145 50.0270826,85.5272493 C49.9680874,85.7297462 50.0765109,85.9513766 50.2790078,86.0135607 C50.4783156,86.0789336 50.703135,85.963335 50.765319,85.7640271 C50.9303459,85.216329 51.1073314,84.6805893 51.2946808,84.1416607 C51.4222379,83.7741369 51.5346476,83.3970464 51.6837299,83.0390894 C52.0265395,82.2131574 52.3542017,81.3784559 52.7265088,80.5636852 C52.788693,80.4337364 52.8500797,80.3045849 52.9042915,80.1714472 C52.960895,80.0375123 52.9792313,79.8908216 53.0007565,79.7505089 C53.0446043,79.506556 52.788693,79.2769533 52.5527124,79.2769533 C52.5176342,79.2769533 52.4833532,79.2817367 52.4498695,79.2928979" id="Fill-26"></path>
                <path d="M73.9229051,64.5449098 C73.8758684,65.4545511 73.8790573,66.3633952 73.9045687,67.2730365 C73.9292829,68.1507886 73.9508081,69.0325268 74.0010338,69.9102787 C74.0504621,70.7824502 74.087932,71.6514326 74.1660607,72.5204152 C74.2465811,73.4452039 74.3215209,74.3731815 74.4179859,75.2979702 C74.6882474,77.9248484 74.958509,80.5541184 75.240729,83.1801994 C75.2774016,83.5859903 75.316466,83.9917812 75.3523414,84.3975721 C75.3866224,84.7778516 75.4304701,85.1549421 75.4519953,85.5344245 C75.4791012,86.0334914 75.5062071,86.5341529 75.5333129,87.0332199 C75.4472119,86.734258 75.381839,86.4297155 75.3053048,86.1323482 C75.1028079,85.3383054 74.9035,84.5474516 74.7105699,83.7534089 C74.2657147,81.9062232 73.8073065,80.0598348 73.340926,78.215838 C72.4687546,74.7686084 71.537588,71.3341344 70.5753294,67.9084302 C70.5211176,67.7202835 70.4645142,67.5321368 70.4158831,67.3423957 C70.4166803,67.3025341 70.4103024,67.2626725 70.3975467,67.2228109 C70.38798,67.18853 70.3760215,67.154249 70.3632658,67.119968 C70.2731786,66.8712318 70.061115,66.696638 69.7844756,66.7588221 C69.5253753,66.8210062 69.3667262,67.0832954 69.4225324,67.3384095 C69.510228,67.7123111 69.6218404,68.0822266 69.7278722,68.4497504 C69.8960881,69.054052 70.0643039,69.6551646 70.2325198,70.2594662 C70.3943578,70.8390536 70.5474263,71.4178438 70.6965086,71.9974312 C71.1421611,73.7194516 71.6125278,75.435094 72.023102,77.1666811 C72.4440404,78.9476966 72.8825178,80.7295093 73.2659862,82.5200916 C73.4493495,83.395452 73.6398878,84.270015 73.8232511,85.1453754 C74.0066144,86.0263164 74.1716414,86.9144324 74.3837049,87.7889955 C74.511262,88.3119794 74.6364274,88.8325717 74.7791319,89.3523668 C74.8476938,89.6019002 74.9162557,89.8506365 74.9911954,90.10017 C75.0286653,90.234105 75.0685269,90.3648509 75.1028079,90.4987859 C75.1498446,90.6670017 75.2000701,90.8320287 75.2869684,90.9842999 C75.3898113,91.1684604 75.5516493,91.2960175 75.7230541,91.4108187 C76.1966097,91.7289144 76.8407729,91.4642332 77.0153666,90.9436411 C77.1054538,90.6789602 77.2019188,90.423846 77.2553333,90.1495984 C77.3175174,89.8323002 77.3581762,89.5142048 77.3860793,89.1905288 C77.4323187,88.657978 77.4323187,88.1158605 77.4107935,87.580918 C77.3924571,87.0667036 77.3701347,86.5500975 77.3486094,86.0358831 C77.3143285,85.1389975 77.2274302,84.2453009 77.1556794,83.3484153 C77.0807395,82.3957235 76.9715188,81.4422345 76.8750538,80.4895426 C76.7881556,79.6173712 76.706838,78.7451998 76.6231286,77.8738256 C76.5155024,76.7768349 76.4054844,75.6790469 76.2954664,74.5820562 C76.2213238,73.7481519 76.149573,72.9150448 76.0746333,72.0843294 C75.9996935,71.2400611 75.9717904,70.3902122 75.922362,69.5435522 C75.8290859,67.9020523 75.8003856,66.2573634 75.7071095,64.6166607 C75.6951509,64.3703161 75.6417365,64.1622387 75.4703317,63.9748893 C75.3116826,63.8002955 75.0844715,63.6982498 74.8508827,63.688683 C74.8389242,63.6878859 74.8285602,63.6878859 74.8166017,63.6878859 C74.3398572,63.6878859 73.946822,64.070557 73.9229051,64.5449098" id="Fill-28"></path>
                <path d="M1.37992824,44.2107994 C1.36717254,44.5591896 1.65417593,44.8956214 2.01532186,44.8956214 C2.37327887,44.8956214 2.68499644,44.6309405 2.70014383,44.2602278 C2.71289955,43.9118375 2.42589615,43.5754058 2.06475022,43.5754058 C1.70679321,43.5754058 1.39587288,43.8400867 1.37992824,44.2107994" id="Fill-30"></path>
                <path d="M1.25340758,49.6108479 C1.20397922,51.1518967 1.16969826,52.712079 1.26297436,54.2539249 C1.30363317,54.9857836 1.3873425,55.7144534 1.45909335,56.443123 C1.52765526,57.1127976 1.6544151,57.7760944 1.73334102,58.44258 C1.78914724,59.0787708 1.86568148,59.7045977 1.97649668,60.3328162 C2.08810911,60.9522652 2.2188551,61.5661335 2.32807583,62.1855825 C2.5337616,63.3750521 2.71712487,64.5708996 2.9196217,65.7603692 C3.12530747,66.9785391 3.3804216,68.1831562 3.77584849,69.3574783 C4.21512312,70.6713161 4.73252646,71.958048 5.22441837,73.2567383 C5.64774837,74.377646 6.14282922,75.4865952 6.74394188,76.5261853 C7.36339086,77.5912868 8.03306544,78.6221073 8.69317323,79.6593056 C9.07026379,80.2540404 9.44416542,80.8455863 9.85553696,81.412418 C10.2541528,81.9609134 10.6806717,82.4711415 11.1319048,82.9757892 C11.5121843,83.3991192 11.9012334,83.8200575 12.2839045,84.2465764 C12.6920872,84.6978096 13.0907029,85.1649872 13.5299776,85.5883172 C14.1183345,86.1583379 14.7385807,86.6940776 15.3357072,87.2577203 C15.8778248,87.7687458 16.3450025,88.3602917 16.8464612,88.9111787 C17.379012,89.500333 17.9362768,90.0671646 18.4441134,90.6802358 C18.676905,90.9648474 18.9057106,91.2542425 19.1297326,91.5484206 C19.6830114,92.4899513 20.1167054,93.5096112 20.6237447,94.4734638 C20.74891,94.7070524 20.8700893,94.9374526 20.9880796,95.1710413 C21.0319273,95.254751 21.075775,95.3360687 21.1220145,95.4197776 C21.1411481,95.4540586 21.1594843,95.4883397 21.1818068,95.5226207 C21.3619812,95.8375271 21.4895382,95.9650841 21.7669748,96.1835261 C21.8849652,96.2768021 22.0252779,96.3453642 22.1719686,96.3764559 C22.3090924,96.3979813 22.445419,96.4226952 22.5825429,96.4482064 C22.8631684,96.4569762 23.1278493,96.3979813 23.3765856,96.2640464 C23.5137094,96.2050506 23.6412664,96.117356 23.7385287,96.005743 C23.987265,95.7163478 24.018357,95.6597449 24.1770061,95.3049761 C24.2615127,95.1208162 24.2583238,94.8936053 24.2862268,94.6911083 C24.2989825,94.5890625 24.31413,94.4862194 24.3268857,94.3801878 C24.3619639,94.1194932 24.3579777,93.8587986 24.3324662,93.6004952 L24.3579777,93.563823 C24.5804053,93.2552935 24.723907,92.8726224 24.8801644,92.5274217 C25.1352786,91.9789257 25.3728536,91.4328227 25.5378806,90.8420738 C25.7499441,90.0894871 25.8057504,89.3034168 25.9165656,88.5308992 C25.9915053,88.1522142 26.0736202,87.7759209 26.1302236,87.3916553 C26.2075551,86.8591045 26.1924077,86.3576458 26.1270347,85.8250951 C26.0616617,85.3148668 25.8248839,84.8317444 25.5944839,84.3805114 C25.3951761,83.9914623 25.167965,83.6143717 24.9279983,83.246848 C23.9019612,81.6882601 22.7260445,80.2420819 21.5030912,78.8357653 C21.4401099,78.7544477 21.3739396,78.6747245 21.306175,78.597393 C20.8453751,78.0712201 20.0290099,77.9524326 19.4191277,78.2792976 C19.179161,78.4076519 18.9862309,78.5878263 18.8363514,78.8182262 C18.5931958,79.1985057 18.5716705,79.5843658 18.6306656,80.0172626 C18.6745134,80.3441276 18.8578766,80.6247531 19.0452261,80.8862451 C19.2445339,81.1636817 19.4406529,81.44351 19.6431498,81.7177577 C19.6678639,81.7512414 19.6925781,81.7847251 19.7172924,81.8182089 C19.8002044,81.9983832 19.8775359,82.180152 19.9516784,82.3643125 C20.1398251,82.9375221 20.3168106,83.5043538 20.4818375,84.0831439 C20.2354929,84.0265405 19.9867566,84.0265405 19.7364259,84.0847384 C19.4558004,84.1501114 19.2070641,84.2840463 18.9918115,84.4801653 C18.7805452,84.6762843 18.6274767,84.916251 18.5405784,85.1897015 C18.5278227,85.263844 18.5142698,85.3379866 18.5015141,85.4113319 C18.225672,85.1267201 17.943452,84.8484863 17.647679,84.5838054 C16.8512446,83.6478555 16.0843077,82.6935692 15.3357072,81.7209466 C14.82229,81.051272 14.2897393,80.3959476 13.7898751,79.7175035 C12.4242173,77.58172 11.218803,75.3279461 10.1760241,73.0199605 C9.94243524,72.5025572 9.74950517,71.958048 9.55019721,71.4254973 C9.32537792,70.8371403 9.10454476,70.2447972 8.88052267,69.6532513 C8.40377815,68.4015976 7.92783086,67.1523357 7.42637216,65.9102487 C7.31077357,65.6232453 7.18640544,65.3370392 7.0620373,65.054022 C6.78778962,64.4273979 5.98418012,64.128436 5.35197544,64.2751267 C5.08809176,64.3373107 4.85051674,64.4712457 4.65758668,64.6506228 L4.63606142,64.5708996 C4.29325182,63.3312044 3.97834532,62.0827396 3.65148035,60.8398555 C3.49602018,60.2451207 3.33418216,59.6535749 3.2066251,59.0524622 C3.08145973,58.4609163 2.99456148,57.8598037 2.87896289,57.2682578 C2.76735046,56.7078039 2.64298233,56.1561196 2.56485363,55.5900852 C2.48752216,55.0168757 2.41019069,54.4404772 2.34162877,53.8640787 C2.24117758,52.4585593 2.2316108,51.0562289 2.27226962,49.6507095 C2.2818364,49.3708812 2.06339493,49.1309144 1.78356662,49.1181587 L1.76602753,49.1181587 C1.49656323,49.1181587 1.26297436,49.3358029 1.25340758,49.6108479 Z" id="Fill-32"></path>
                <path d="M44.6643444,85.5084346 C44.6364414,85.5419184 44.6093355,85.5754022 44.5814324,85.6088859 C44.6069438,85.5730104 44.6348469,85.5395267 44.6643444,85.5084346 M43.5043725,84.0391368 C43.0308169,84.3851353 42.8410757,85.0356763 42.7039519,85.5746049 C42.663293,85.7491986 42.6202426,85.9237923 42.5795837,86.0975889 C42.4950772,86.4683016 42.4552156,86.8079222 42.504644,87.1874045 C42.5827726,87.7948951 42.7222882,88.3960077 42.8594121,88.9907425 C42.9845774,89.5360489 43.0842314,90.086936 43.2365026,90.6258646 C43.4015296,91.2142215 43.6877357,91.7284359 43.9619834,92.2673646 C44.1676692,92.6747497 44.4140137,93.0924992 44.7528372,93.4002304 C44.989615,93.6186723 45.216826,93.8052243 45.4974516,93.9551042 C45.7031373,94.0635278 45.9112148,94.1695594 46.1169005,94.2819688 C46.627926,94.5594057 47.1357626,94.7985748 47.7081749,94.917362 C48.224781,95.0257856 48.7485621,95.0831868 49.2683572,95.1613152 C49.4118589,95.1916104 49.5513745,95.2290799 49.6884983,95.276914 C49.7052402,95.2872775 49.7235764,95.2976421 49.7403183,95.3080056 C49.9332484,95.6237094 50.1102338,95.9569527 50.25533,96.298965 C50.3701313,96.6361942 50.4721769,96.9790038 50.6013285,97.3154356 C50.7169271,97.6112085 50.9098571,97.853567 51.1059761,98.1094775 C51.274192,98.2617494 51.4519746,98.4052505 51.6353379,98.5391854 C51.8410237,98.6946456 52.1894139,98.8006782 52.4485142,98.8692394 C52.8901805,98.9872302 53.370114,99.0183218 53.827725,99.0374553 C54.6098092,99.0717363 55.3384789,98.5575223 55.5752567,97.8105161 C55.8710296,96.8881189 55.3416678,95.8979578 54.4320265,95.595807 C54.3020778,95.5527561 54.172129,95.5097053 54.0437747,95.4650606 C53.9018675,95.0010718 53.7671354,94.5362856 53.5566662,94.0922275 C53.2178427,93.3691387 52.7315314,92.6659807 52.0809904,92.1988025 C51.4487857,91.7435835 50.7169271,91.5474643 49.9627459,91.4262851 C49.3130021,91.3250367 48.6536916,91.3465621 48.0007589,91.2772028 C47.6196821,91.1767516 47.2378082,91.0388306 46.8718789,90.8817759 C46.8073031,90.8459005 46.7435246,90.8084306 46.6821378,90.768569 C46.431807,90.5126577 46.2125683,90.2256543 45.9997075,89.9378536 C45.4735346,89.1398248 45.0844855,88.2548977 44.7416759,87.3643899 C44.6547777,87.1092758 44.5750545,86.8597423 44.5208428,86.5990475 C44.5256262,86.3853895 44.5463542,86.1757175 44.5710684,85.963654 C44.6101327,85.7914519 44.655575,85.6272222 44.7153673,85.4606007 C44.7352981,85.4446561 44.7544316,85.4295088 44.7751597,85.4159558 C45.185734,85.1106161 45.1458724,84.4345636 44.8277769,84.0893623 C44.6595611,83.9083907 44.4227833,83.79917 44.1772359,83.7904005 C44.1660747,83.7896032 44.1541162,83.7896032 44.1437522,83.7896032 C43.8894354,83.7896032 43.7044776,83.8900545 43.5043725,84.0391368" id="Fill-34"></path>
                <path d="M33.3352842,61.4172904 C33.217294,62.1371905 33.1256123,62.8562935 33.0323362,63.5761937 C33.034728,63.5618435 33.0371196,63.5466961 33.0395114,63.5323459 C33.034728,63.5626407 33.0299446,63.5937328 33.0259584,63.6248248 L33.0235667,63.6407695 C33.0243639,63.639175 33.0243639,63.6367833 33.0243639,63.6351888 C33.0060276,63.7659348 32.9884886,63.8958836 32.9613827,64.0242379 C32.9398574,64.1334586 32.8960096,64.2418821 32.8928207,64.3542918 C32.8944152,64.3534945 32.8952124,64.3519 32.8968069,64.3511029 C32.8968069,64.5488162 33.0506726,64.733774 33.2731002,64.733774 C33.3010033,64.7345713 33.3273119,64.7321796 33.3520261,64.7281934 C33.3647819,64.7600827 33.379132,64.7911747 33.3934822,64.8222667 C33.2372248,64.8007414 33.0801702,64.7792163 32.9239128,64.7712439 C32.7588858,64.7624743 32.587481,64.7776218 32.4320209,64.8310362 C32.2885191,64.8772758 32.1513953,64.9554044 32.0517414,65.0702057 C31.9433178,65.1977629 31.8747559,65.3380756 31.8277193,65.4999136 C31.7655352,65.7279219 31.771913,66.0236948 31.8962812,66.2317723 C32.1266811,66.6152407 32.6090062,66.7364199 33.0267557,66.795415 C33.902116,66.9173914 34.7862459,66.9827645 35.6703757,66.9548614 C36.517833,66.926161 37.3772487,66.8520185 38.2151391,66.69895 C38.4662671,66.6551023 38.7189895,66.6120518 38.9701175,66.5626234 C39.1032552,66.5434898 39.2363928,66.5203701 39.3671389,66.4932643 C39.6509533,66.4342691 39.9339705,66.3816518 40.2114071,66.2939563 C40.5661752,66.1823439 40.9241323,65.9926028 41.1920021,65.7303136 C41.2980339,65.62189 41.4040657,65.4656327 41.4255909,65.3133615 C41.4415356,65.1977629 41.4447245,65.1204314 41.4128352,65.0016439 C41.3849321,64.898801 41.3131813,64.7871886 41.2326609,64.7186266 C41.205555,64.6955069 41.1776519,64.6755761 41.1481543,64.6572398 C41.1218457,64.6030281 41.0867675,64.5543969 41.0461087,64.5193187 C40.9584132,64.444379 40.9145655,64.4196648 40.8093309,64.3790059 C40.7495386,64.3542918 40.6873544,64.3542918 40.6251704,64.3511029 C40.5478389,64.3415361 40.4569545,64.3726281 40.3764341,64.3885727 C40.3293975,64.3973423 40.2815636,64.4037201 40.2329324,64.4116924 C39.8462751,64.4531485 39.4612122,64.4770654 39.0745548,64.5033741 C38.5762851,64.5344661 38.0780153,64.571936 37.5829344,64.6094059 C37.1436598,64.6436868 36.7043852,64.6468757 36.2651105,64.6532536 C35.7516934,64.6564425 35.2326956,64.6763734 34.7208728,64.6301339 C34.552657,64.6046225 34.38763,64.5687471 34.225792,64.5161298 C34.2114419,64.5081575 34.1978889,64.5001852 34.184336,64.4914156 C34.1532439,64.4635125 34.1245436,64.4348122 34.098235,64.4037201 C34.0647512,64.3566834 34.0352537,64.3088496 34.008945,64.2578267 C33.9794475,64.1725229 33.9587195,64.0888136 33.9427748,63.9995237 C33.9276274,63.8281189 33.9308163,63.6575113 33.9419776,63.4861065 C33.9826364,63.3529688 34.0217007,63.2206284 34.0607651,63.0866934 C34.1827415,62.6577829 34.2823955,62.2216972 34.3286349,61.7792336 C34.3533491,61.6405153 34.3661048,61.5009997 34.2473173,61.3893873 C34.1939028,61.3407562 34.1301243,61.3088669 34.063954,61.2969084 C34.0097423,61.2187797 33.9300191,61.1597846 33.836743,61.1342732 C33.8048538,61.1255036 33.7705728,61.1207202 33.7354946,61.1207202 C33.5577119,61.1207202 33.3639846,61.2355216 33.3352842,61.4172904" id="Fill-36"></path>
                <path d="M35.4787213,68.5302708 C35.3216666,68.551796 35.1654092,68.5709296 35.0107463,68.5964411 C35.0338661,68.5932521 35.0569857,68.5892659 35.0801055,68.586077 C35.219621,68.5669435 35.3599337,68.5470126 35.4994493,68.5278791 C35.4930714,68.5286764 35.4858964,68.5294735 35.4787213,68.5302708" id="Fill-38"></path>
                <path d="M39.9331733,39.3779812 C39.9140398,39.3644283 39.894109,39.3508753 39.8749754,39.3373224 C39.7753214,39.2663688 39.6413866,39.2352767 39.5114378,39.2320878 C39.6509533,39.2815162 39.7920633,39.3301473 39.9331733,39.3779812" id="Fill-40"></path>
                <path d="M40.2593208,73.7177773 C40.4060114,73.7823531 40.5415408,73.8477261 40.6722867,73.9322327 C40.6659089,73.8357677 40.6579366,73.7393026 40.6483698,73.6428376 C40.6427892,73.5902203 40.6372086,73.5368057 40.6300335,73.4849858 C40.5080571,73.5663034 40.3844862,73.644432 40.2593208,73.7177773" id="Fill-42"></path>
                <path d="M40.2593208,73.7177773 C40.3406384,73.7536528 40.4179699,73.7895282 40.4929096,73.8293898 C40.4753706,73.7560445 40.4538453,73.6842936 40.4307256,73.6141372 C40.3741221,73.6492154 40.3167215,73.6842936 40.2593208,73.7177773" id="Fill-44"></path>
            </g>
            <g id="Group-2" transform="translate(15.526667, 39.273333)" fill="#161616">
                <g id="Group">
                    <path d="M33.6700161,6.72177108 C33.714899,6.72718435 33.7597819,6.7331991 33.8046649,6.73921385 C33.7597819,6.73349984 33.714899,6.72778582 33.6700161,6.72177108 M23.9752967,1.93944318 C23.6071963,2.15537272 23.4189288,2.70301573 23.6776836,3.07532876 C23.9505961,3.46899416 24.2271233,3.86115587 24.5295562,4.23376965 C24.7539709,4.5107489 25.0172441,4.76126325 25.289253,4.99884588 C25.290759,5.00034956 25.291964,5.00245473 25.2931689,5.00425915 C25.4850511,5.26981038 25.7157917,5.51070112 25.989909,5.69144436 C26.1640188,5.80662683 26.346563,5.90526874 26.5312157,6.00150474 C26.5776047,6.02586448 26.6239938,6.04992348 26.6709854,6.07398248 C27.2249435,6.45170879 27.8063134,6.78943702 28.4078655,7.08716716 C28.8702504,7.31632914 29.3528175,7.50880114 29.8341797,7.69676208 C30.3553041,7.90006065 30.8884775,8.0552412 31.4330975,8.18185169 C31.8261999,8.27357663 32.2310503,8.34876101 32.631081,8.40409671 C33.1028038,8.46875527 33.5724182,8.52739909 34.0477558,8.56860013 C34.4161576,8.60138052 34.7890777,8.60619232 35.1583832,8.60258347 C35.6045017,8.59777167 36.040981,8.4946187 36.470532,8.38755615 C36.7657353,8.31387546 37.0612399,8.23959329 37.3567445,8.16531112 C37.4073508,8.15839417 37.4573547,8.14786835 37.5046474,8.12801968 C37.6317656,8.09283338 37.7426174,8.02817483 37.8366005,7.93524693 C37.9766715,7.79540399 38.0567982,7.60293199 38.0567982,7.40444523 C38.0567982,7.05318381 37.8236477,6.79214366 37.5046474,6.68057003 C37.3284291,6.61831737 37.1223892,6.62072327 36.9365315,6.63245204 C36.7588071,6.6441808 36.5798777,6.67365308 36.4045631,6.6995165 C36.15605,6.73620647 35.9087419,6.77981342 35.6602289,6.81981151 C35.0930167,6.85890738 34.5206837,6.81319528 33.9534715,6.75876179 C33.9146131,6.75364925 33.8751523,6.74853671 33.8359926,6.74342418 C33.2552252,6.66011989 32.6753615,6.5768156 32.0970039,6.48689508 C31.8433699,6.43787486 31.5915434,6.3828399 31.3403193,6.31998576 C31.1472322,6.2721685 30.9556513,6.21773501 30.7658777,6.15788825 C30.7167776,6.13864104 30.6676774,6.11909311 30.6188785,6.09924443 C30.3890416,6.00571507 30.1604096,5.91128349 29.9320788,5.81534822 C29.431438,5.58919361 28.9422439,5.34258885 28.4515436,5.09478114 L27.7454654,4.73539982 C27.693353,4.70863418 27.640638,4.68216928 27.5882244,4.65540364 C27.3773649,4.51736512 27.1710238,4.37301112 26.969201,4.22234162 C26.7574378,4.0545301 26.5483856,3.88160603 26.3471654,3.70026131 C26.3390323,3.69003623 26.3308991,3.6801119 26.3224647,3.66988682 C26.2929444,3.62778357 26.2649302,3.58507884 26.2390245,3.54026896 C26.2239631,3.48914358 26.2125165,3.4380182 26.2028772,3.38208102 C26.1465476,3.0804413 25.8353792,2.86330882 25.5410795,2.83714465 C25.3952852,2.63925937 25.253708,2.43896819 25.1133358,2.23777479 C24.9850128,2.05432492 24.8380135,1.91688787 24.616611,1.85583816 C24.5446175,1.83629022 24.4708167,1.82666662 24.3970159,1.82666662 C24.2497154,1.82666662 24.1030175,1.86516102 23.9752967,1.93944318" id="Fill-127" transform="translate(30.807324, 5.215133) rotate(-12.000000) translate(-30.807324, -5.215133) "></path>
                    <path d="M10.8366823,6.72177108 C10.8815652,6.72718435 10.9264482,6.7331991 10.9713311,6.73921385 C10.9264482,6.73349984 10.8815652,6.72778582 10.8366823,6.72177108 M1.14196299,1.93944318 C0.773862473,2.15537272 0.585595024,2.70301572 0.844349805,3.07532876 C1.1172623,3.46899416 1.39378953,3.86115587 1.69622235,4.23376965 C1.92063715,4.5107489 2.18391035,4.76126325 2.45591916,4.99884588 C2.4574253,5.00034956 2.45863021,5.00245473 2.45983512,5.00425915 C2.6517173,5.26981038 2.88245789,5.51070112 3.15657529,5.69144436 C3.33068503,5.80662683 3.51322914,5.90526874 3.69788186,6.00150474 C3.74427096,6.02586448 3.79066006,6.04992348 3.83765161,6.07398248 C4.39160975,6.45170879 4.97297963,6.78943702 5.57453178,7.08716715 C6.03691663,7.31632914 6.51948375,7.50880114 7.00084596,7.69676208 C7.52197026,7.90006065 8.05514367,8.05524119 8.59976374,8.18185169 C8.99286617,8.27357663 9.39771648,8.34876101 9.79774716,8.40409671 C10.26947,8.46875527 10.7390844,8.52739909 11.2144221,8.56860013 C11.5828238,8.60138052 11.9557439,8.60619232 12.3250494,8.60258347 C12.7711679,8.59777167 13.2076472,8.4946187 13.6371982,8.38755615 C13.9324015,8.31387546 14.2279061,8.23959329 14.5234107,8.16531112 C14.574017,8.15839417 14.6240209,8.14786835 14.6713137,8.12801968 C14.7984318,8.09283338 14.9092837,8.02817483 15.0032668,7.93524693 C15.1433377,7.79540399 15.2234644,7.60293199 15.2234644,7.40444523 C15.2234644,7.05318381 14.9903139,6.79214366 14.6713137,6.68057003 C14.4950953,6.61831737 14.2890554,6.62072327 14.1031978,6.63245203 C13.9254733,6.6441808 13.7465439,6.67365308 13.5712293,6.6995165 C13.3227162,6.73620647 13.0754081,6.77981342 12.8268951,6.81981151 C12.2596829,6.85890738 11.6873499,6.81319528 11.1201377,6.75876179 C11.0812793,6.75364925 11.0418185,6.74853671 11.0026588,6.74342418 C10.4218914,6.66011989 9.84202767,6.5768156 9.26367011,6.48689508 C9.01003616,6.43787486 8.75820962,6.3828399 8.50698554,6.31998576 C8.31389845,6.27216849 8.12231749,6.21773501 7.93254391,6.15788825 C7.88344375,6.13864104 7.8343436,6.11909311 7.78554469,6.09924443 C7.55570779,6.00571507 7.32707579,5.91128349 7.09874504,5.81534822 C6.59810424,5.58919361 6.1089101,5.34258885 5.61820983,5.09478114 L4.91213159,4.73539982 C4.86001916,4.70863418 4.80730427,4.68216928 4.75489062,4.65540364 C4.54403108,4.51736512 4.33768995,4.37301112 4.13586724,4.22234162 C3.92410402,4.0545301 3.71505185,3.88160603 3.5138316,3.70026131 C3.50569844,3.69003623 3.49756529,3.6801119 3.48913091,3.66988682 C3.45961057,3.62778357 3.43159638,3.58507884 3.40569078,3.54026896 C3.39062938,3.48914358 3.37918272,3.4380182 3.36954343,3.38208102 C3.31321381,3.0804413 3.00204537,2.86330882 2.7077457,2.83714465 C2.56195138,2.63925937 2.42037426,2.43896819 2.28000206,2.23777479 C2.15167896,2.05432492 2.00467973,1.91688787 1.78327722,1.85583816 C1.71128375,1.83629022 1.63748291,1.82666662 1.56368207,1.82666662 C1.41638161,1.82666662 1.26968362,1.86516102 1.14196299,1.93944318" id="Fill-127" transform="translate(7.973990, 5.215133) scale(-1, 1) rotate(-12.000000) translate(-7.973990, -5.215133) "></path>
                    <path d="M8.97112456,11.6382417 C8.93924173,11.6424966 8.9071018,11.6465011 8.87521899,11.6505057 C8.9071018,11.6462508 8.93924173,11.6422462 8.97112456,11.6382417 M11.005454,8.20132961 C10.897978,8.38003302 10.8748372,8.58451578 10.8969496,8.78874825 C10.9121196,8.93741747 10.9311464,9.08508555 10.9643149,9.23175249 C11.0008258,9.39443771 11.0797615,9.54936397 11.1553546,9.70103667 C11.0579063,9.69753267 10.9607151,9.69477952 10.8637812,9.69227671 C10.7082239,9.68827211 10.5524095,9.6832664 10.3958237,9.67851104 C10.1628734,9.67250414 9.93172294,9.66874988 9.6987727,9.6842676 C9.44268171,9.70203778 9.18864763,9.74208343 8.93641342,9.78513239 C8.27150242,9.89751029 7.61481923,10.0539384 6.96276421,10.2201275 C6.68764635,10.2904575 6.41561393,10.372551 6.14435286,10.4538936 C5.86203566,10.5387402 5.55580635,10.630845 5.3125713,10.7970342 C5.26089028,10.8320741 5.21563726,10.8696168 5.17784069,10.9129161 C4.78367651,11.0398105 4.39799727,11.1919837 4.02414552,11.3649306 C3.827192,11.455784 3.64335156,11.5674111 3.46568199,11.6885489 C3.26487167,11.826456 3.04683434,11.9778783 2.88716313,12.1628388 C2.75063269,12.320268 2.6611551,12.4814515 2.6611551,12.6946942 C2.6611551,12.8931701 2.74240486,13.0856392 2.88716313,13.2255484 C3.03166429,13.3662085 3.2296463,13.44655 3.43354206,13.44655 C3.62329624,13.44655 3.85341819,13.3722154 3.97992098,13.2255484 C4.04497221,13.150463 4.11953686,13.0858895 4.19718695,13.0240691 C4.45173525,12.8443646 4.71991088,12.7004507 5.00557063,12.5748078 C6.29759608,12.06723 7.6803847,11.8186971 9.05417415,11.62798 C9.87772786,11.5286169 10.7048812,11.4765577 11.5338345,11.4227464 C11.8914878,11.3997202 12.2565974,11.3811991 12.619393,11.3857042 C12.690358,11.4094813 12.7602945,11.4345098 12.8294596,11.4597886 C12.9680471,11.5105964 13.1066345,11.5624053 13.2452218,11.6142144 C13.3195294,11.6427468 13.3969224,11.6670245 13.4753438,11.679789 C13.5434805,11.6885489 13.6108458,11.6973089 13.6792396,11.7060689 C13.7563754,11.6963078 13.8347969,11.6865467 13.9121898,11.6757844 C14.099887,11.6505057 14.2978691,11.471552 14.3912035,11.3171262 C14.6624645,10.8643608 14.4068878,10.3067261 13.9638709,10.0679543 C13.9155324,10.0111396 13.8558807,9.96358548 13.7846586,9.92979708 C13.5617359,9.82317564 13.3305855,9.73332337 13.1007207,9.63946659 C13.1354319,9.65348251 13.1706572,9.66799903 13.2058826,9.6827659 C13.1174334,9.6464746 13.0284701,9.61018321 12.9397639,9.5743925 C12.8546574,9.5381012 12.7716078,9.5003082 12.6906151,9.4585106 C12.6438194,9.40995533 12.5980521,9.35964811 12.5538276,9.30808935 C12.4432662,9.15967049 12.3489034,9.00524467 12.2671393,8.83880523 C12.2337138,8.75546035 12.2023452,8.67261606 12.1745763,8.5875192 C12.1583778,8.53746222 12.1475787,8.48465211 12.1354942,8.43384428 C12.1033542,8.29693844 12.0501305,8.18956623 11.9506253,8.08294486 C11.8413494,7.96531096 11.6927344,7.91175 11.5428337,7.91175 C11.3312243,7.91175 11.1167867,8.01812107 11.005454,8.20132961" id="Fill-129"></path>
                    <path d="M27.8476373,8.91458088 C27.2316717,9.33017329 26.61147,9.74029101 26.0538119,10.2284811 C25.8240706,10.4300887 25.5905918,10.6290779 25.3870142,10.8559161 C25.0989655,11.1777264 24.8799389,11.5347646 24.7476259,11.9410739 C24.6220407,12.3297694 24.6960463,12.7703544 24.9569346,13.0931169 C25.0336811,13.1888031 25.0942312,13.2649712 25.1904135,13.3394732 C25.2624256,13.394219 25.3374279,13.4511071 25.4154203,13.5003784 C25.5038782,13.5560763 25.5933327,13.6127263 25.6840332,13.6677102 C26.0022322,13.8628911 26.3204312,14.0330792 26.6700266,14.17161 C26.8063265,14.2256418 26.9443705,14.2692005 27.0876473,14.2980015 C27.208249,14.3222801 27.3358276,14.3510812 27.457426,14.3558417 C27.4875764,14.3565558 27.5177268,14.35846 27.5478773,14.3594121 C27.7046096,14.3660767 27.833185,14.3008578 27.9694848,14.2394473 C28.1125124,14.1754184 28.2488123,14.0004698 28.2799594,13.8536081 C28.2916707,13.796958 28.2974018,13.7393559 28.3041296,13.6824678 C28.331539,13.4399199 28.1212336,13.1897552 27.9119249,13.0735988 C27.741737,12.9776745 27.533425,12.9574424 27.3455455,12.9126936 C27.2722875,12.8962699 27.2010228,12.8727054 27.1307549,12.8469986 C26.7881365,12.6951384 26.4582262,12.5094786 26.1475024,12.3050148 C26.1460073,12.3038247 26.1445123,12.3026345 26.1432664,12.3014444 C26.1524859,12.2738335 26.1624531,12.2466985 26.1729185,12.2195637 C26.2486683,12.0648472 26.334136,11.9163193 26.4358002,11.7749322 C26.7998478,11.3493428 27.2256914,10.9608853 27.6759543,10.6197949 C27.9572751,10.4189014 28.2450745,10.2263389 28.5318774,10.0321101 C28.6808852,9.93190149 28.7927657,9.81836338 28.8433486,9.64531886 C28.8911906,9.47798706 28.8667712,9.29589762 28.7753233,9.14617964 C28.6858688,9.00193621 28.5388543,8.8931586 28.3694139,8.84864784 C28.3121032,8.83341422 28.2473171,8.82508333 28.1815344,8.82508333 C28.0624278,8.82508333 27.9393344,8.85221823 27.8476373,8.91458088" id="Fill-131"></path>
                    <path d="M28.9971731,10.2224667 C28.3417977,10.2390663 27.680781,10.259255 27.032028,10.3494308 C26.8539583,10.3750031 26.6766243,10.4003511 26.4992903,10.4256991 C26.1227928,10.4793111 25.7703323,10.5878811 25.4271923,10.7377257 C25.3928537,10.7525307 25.359251,10.76756 25.3246673,10.782365 C25.2079162,10.8341825 25.1169191,10.8999078 25.013413,10.9734842 C24.9366418,11.0277692 24.9013222,11.0697166 24.8390223,11.1547333 C24.7526854,11.2713787 24.7411575,11.380846 24.7259504,11.5174558 C24.7163847,11.6060615 24.7396859,11.6998266 24.7853071,11.7879836 C24.7725527,11.8036859 24.7602889,11.8200611 24.7480252,11.8373336 C24.6665938,11.9494927 24.6692919,12.1213205 24.7480252,12.2343768 C24.8122873,12.3272446 24.8927376,12.4113639 25.0153752,12.4376091 C25.1129947,12.4577978 25.2069351,12.4611626 25.3055358,12.4638544 C25.4195887,12.4683408 25.5326606,12.4761919 25.6467136,12.4885294 C25.8363113,12.5078208 25.9974572,12.3272446 25.9974572,12.1677544 C25.9974572,12.1592302 25.9969667,12.1507062 25.9959855,12.142182 C26.5225914,12.0930564 27.0440465,12.0087127 27.5686902,11.9393984 C27.8853405,11.9005913 28.201255,11.8593168 28.5181506,11.8178179 C29.3955001,11.72338 30.2905093,11.7913483 31.1649154,11.8907214 C31.4428123,11.9250421 31.7204639,11.9600357 31.9961532,12.0082641 C32.3218787,12.0661382 32.6466231,12.1300689 32.9694053,12.2000561 C33.2904705,12.2693705 33.6066303,12.3474332 33.9171487,12.4499467 C34.2303652,12.553806 34.5455438,12.6543006 34.8555717,12.7698244 C34.9519648,12.8068369 35.0490938,12.8422793 35.1472039,12.8748053 C35.2048436,12.8940968 35.262238,12.9124908 35.3206134,12.9266229 C35.3502918,12.9335767 35.3799701,12.938736 35.4106295,12.9432224 C35.5084943,12.959822 35.6436409,12.9835997 35.7498451,12.973954 C35.9090287,12.9607192 36.0115538,12.9474845 36.1493984,12.8705433 C36.2663948,12.8057153 36.3630332,12.7198014 36.4292574,12.6094369 C36.5950635,12.3324039 36.5555742,11.9775325 36.3066199,11.752317 C36.1273237,11.5912565 35.9146701,11.5192503 35.6885263,11.4326635 C35.4376098,11.3353094 35.172222,11.2659951 34.9105134,11.1978023 C34.8749484,11.188381 34.8391383,11.1791839 34.803328,11.1702112 L34.803328,11.1697626 C34.7667821,11.0488551 34.664257,10.901478 34.5330348,10.8489875 C34.3569271,10.7787759 34.1815553,10.7078914 33.997599,10.6578684 C33.8585279,10.6201829 33.7177399,10.5914702 33.5759709,10.5634304 C33.2828669,10.5064536 32.9828954,10.4703383 32.6868482,10.4310827 C32.0363783,10.3442715 31.383701,10.2794435 30.7285708,10.2357015 C30.4342406,10.2157372 30.1381934,10.2087833 29.841901,10.2087833 C29.5600797,10.2087833 29.2780132,10.2150642 28.9971731,10.2224667" id="Fill-133"></path>
                    <path d="M13.3388631,10.8348928 C12.9018435,11.2059493 12.4648239,11.577006 12.0230463,11.9432665 C11.9121856,12.0338851 11.8018007,12.1250085 11.6868957,12.2088118 C11.6319412,12.2385973 11.5767487,12.2681303 11.5210804,12.2971586 C11.3992763,12.3602635 11.2598678,12.4253877 11.1651843,12.5329184 C10.9765307,12.745708 10.9663011,13.0801637 11.1651843,13.2919436 C11.299359,13.4343081 11.4872988,13.4762098 11.6571584,13.4264832 C11.6573963,13.4277453 11.6576341,13.428755 11.6576341,13.430017 C11.7906195,13.3838243 11.9169435,13.3068364 12.0442193,13.2457508 C12.1603137,13.1894613 12.274743,13.1283758 12.3898858,13.0682999 C12.6063735,12.9567306 12.8211959,12.8375887 13.0357803,12.7232426 C13.252268,12.6068773 13.4680419,12.4905118 13.6788201,12.3653118 C13.8741348,12.2497038 14.0506554,12.1118828 14.2374058,11.9836537 C14.4826792,11.8150375 14.5830723,11.4808342 14.4298657,11.2026679 C14.3632541,11.0822638 14.2531071,10.9931598 14.1293998,10.9494912 C14.1072753,10.9075896 14.079917,10.8689694 14.0478007,10.8348928 C13.9540687,10.7354396 13.8256034,10.67915 13.6928561,10.67915 C13.5486895,10.67915 13.4475827,10.7422548 13.3388631,10.8348928" id="Fill-135"></path>
                </g>
                <path d="M28.657825,34.1075252 L28.658221,34.1071562 C28.8009759,34.0043935 28.9451168,33.9038447 29.1011374,33.8270956 C29.1379646,33.8151035 29.1757818,33.8034805 29.2130049,33.7933333 L29.2185489,33.8173175 L29.2266667,33.842593 C28.8738383,34.5377632 28.5594211,35.0440124 28.2077808,35.4827371 C27.6524029,36.1199765 26.9922852,36.6586965 26.4198796,37.1016645 L26.3773105,37.1311833 C26.2478213,37.220847 26.1183321,37.3105107 25.9836951,37.3942707 L25.7771855,37.5239693 L25.6372026,37.6119725 C25.5778038,37.6488712 25.5146433,37.6815264 25.4516806,37.7143662 L25.3683244,37.7580911 C24.9416437,37.9874161 24.4953613,38.1879601 24.1148136,38.354004 C23.8641511,38.4512319 23.6134885,38.5464303 23.36144,38.6379389 C23.1131534,38.7287096 22.8692227,38.8156058 22.6159861,38.878518 C22.3342383,38.9493634 22.0342748,39.0170724 21.6727346,39.0919766 C21.3973226,39.1497229 21.1060709,39.1888355 20.872238,39.2200149 C20.7564105,39.2308999 20.640385,39.2425229 20.5243595,39.2539615 C20.4445673,39.2617103 20.363389,39.2639242 20.2822108,39.2661381 L20.1679673,39.269828 C20.1069847,39.2724109 20.0460019,39.2733333 19.9848213,39.2733333 C19.8925553,39.2733333 19.8002892,39.2711194 19.7080233,39.26909 L19.5322031,39.2655846 C19.2647109,39.2611568 18.9978127,39.2546995 18.7309145,39.2467663 C18.5580642,39.2423385 18.383432,39.2253652 18.2145417,39.2087608 L18.0684209,39.1949238 L17.4045413,39.1024927 C17.1279413,39.0637491 16.8509453,39.0250056 16.5743453,38.9873689 C16.3183369,38.9526843 16.0623284,38.918184 15.807112,38.8799939 L15.7211818,38.8676329 C15.4998226,38.8359001 15.2709395,38.8032448 15.0563122,38.7329529 C14.9026676,38.6571262 14.7603087,38.5551015 14.6223056,38.4565822 L14.517764,38.3822314 C14.4148062,38.3102791 14.3120464,38.2366663 14.2090886,38.163238 C14.0344565,38.0294806 13.8649721,37.8925866 13.6911319,37.7446231 C13.5883721,37.6575424 13.4875923,37.5676942 13.3866145,37.4780305 C13.3123661,37.4117974 13.2381177,37.3457489 13.1628794,37.2806228 C13.0660594,37.196125 12.9684476,37.1127341 12.8706377,37.0291587 L12.6508625,36.8409757 C12.485932,36.697809 12.3152597,36.5498455 12.165377,36.3869381 C12.0667751,36.2542874 11.9713412,36.106324 11.8733333,35.9347454 C11.8990728,35.9102077 11.9261982,35.8843787 11.9556996,35.8600256 C11.9976746,35.8334586 12.0402437,35.8098435 12.0851888,35.7888112 C12.1140961,35.7803245 12.1426075,35.7731293 12.1727028,35.76741 C12.1891365,35.766672 12.2055701,35.766303 12.2220037,35.766303 C12.2493272,35.766303 12.2764525,35.76741 12.3043699,35.7696239 C12.531867,35.8098435 12.7556022,35.8906514 12.9836932,35.9769942 C13.0963528,36.0233021 13.1955486,36.0690563 13.2866266,36.1168401 C13.3832486,36.1677602 13.4749206,36.2295653 13.5634246,36.2895257 L13.6321292,36.3356489 C13.7131094,36.3893365 13.7946836,36.4417325 13.8762579,36.493944 C14.0019852,36.5743831 14.1275144,36.6548221 14.2494798,36.7400579 C14.3985705,36.8524143 14.5336036,36.9752867 14.6591329,37.0915174 C14.7983239,37.221216 14.9476126,37.3483318 15.0751218,37.4555223 C15.1796636,37.5424186 15.2919271,37.6335582 15.4156745,37.7108608 C15.5053665,37.7665777 15.6033743,37.813808 15.6982143,37.8595623 L15.7261317,37.8730303 C15.9076938,37.9599266 16.1193511,38.0588149 16.3357604,38.1340881 C16.5204904,38.1981073 16.7054184,38.2615729 16.8919304,38.3228246 C17.0770564,38.3844454 17.2588164,38.4427452 17.4475063,38.4772454 C17.8898287,38.5580534 18.2893841,38.6274228 18.6960672,38.6565728 C19.0623593,38.6827707 19.488644,38.7106292 19.9135428,38.7106292 C20.1398519,38.7106292 20.3239879,38.7025115 20.4930762,38.6848001 C20.7502726,38.6574952 21.0041031,38.6143238 21.2418959,38.5722594 C21.6293736,38.5027054 22.0287309,38.4257718 22.4290782,38.3438568 C22.5272841,38.3237471 22.624698,38.3034529 22.7221119,38.2811292 C22.8628868,38.2495808 22.9981178,38.190912 23.128795,38.1340881 L23.223041,38.0934997 L23.4364803,38.0047585 C23.5495359,37.9577127 23.6625914,37.9108514 23.775251,37.8628832 C24.1369892,37.7093849 24.464078,37.5265522 24.8543276,37.3036845 C25.0139121,37.2119914 25.1837925,37.1127341 25.3463469,37.0081265 C25.5023675,36.9068397 25.6554182,36.7965128 25.803321,36.6898757 L25.897963,36.6217978 C26.0100285,36.5408053 26.1175402,36.4498502 26.2214879,36.3616625 L26.3226637,36.2764266 C26.4563108,36.1649928 26.5905518,36.0448877 26.7333068,35.9096543 C26.8222069,35.8255254 26.9037811,35.7316184 26.9823854,35.6408477 C27.0215886,35.5956469 27.0609897,35.5506306 27.1009848,35.5065367 C27.2255241,35.3703808 27.3514494,35.2364387 27.4783646,35.1023123 C27.5642948,35.0130176 27.6516108,34.9244609 27.7403129,34.8379336 C27.8167393,34.7639518 27.8991055,34.6960583 27.9814717,34.6281648 L28.0543341,34.5678356 C28.1238306,34.5099047 28.196495,34.4558483 28.2691594,34.4017917 L28.3735032,34.3233821 L28.5150701,34.2158226 L28.6520831,34.1115841 L28.6566371,34.1060493 L28.657825,34.1075252 Z M13.9952044,31.2170824 C13.9128217,31.1794916 13.8352852,31.1453848 13.756739,31.1123783 L13.7258455,31.0799219 L13.7,31.0533333 C13.8094396,31.1052269 13.904745,31.1573039 13.9952044,31.2170824 Z M19.9290024,32.7891494 C20.497803,32.7891494 20.9896424,32.7481201 21.4326145,32.6633032 C21.5145217,32.647443 21.5968248,32.6326174 21.6795234,32.617964 C21.8575827,32.5858991 22.041973,32.5529722 22.2186475,32.5090122 L22.4097644,32.4622939 C22.6107736,32.4129898 22.8117829,32.3638581 23.0108135,32.3097269 L23.1910492,32.2611124 C23.652025,32.1366453 24.1282348,32.0082132 24.5836709,31.8530602 C25.08105,31.6842884 25.5853535,31.4982774 26.1254668,31.2839939 L26.5193736,31.1276344 C27.0697747,30.9086964 27.6391688,30.6823456 28.2051997,30.4713376 C28.5264978,30.3548006 28.8175259,30.2515377 29.1239858,30.1662036 C29.1580149,30.156722 29.1926375,30.1481025 29.2266667,30.14 L29.1867022,30.1774091 C29.127547,30.2399874 29.0685896,30.3025658 29.0082472,30.3641097 C28.8109971,30.5659809 28.5884229,30.7478546 28.3585285,30.9317969 C28.2819631,30.9929961 28.2061889,31.0555745 28.1306126,31.1181528 C28.0014207,31.2250359 27.8676784,31.3355392 27.7309683,31.4381125 L27.6290789,31.5146546 C27.4436993,31.6541198 27.2521866,31.7982396 27.0565193,31.9330502 C26.7975419,32.0964779 26.5181865,32.243356 26.2481299,32.3855794 L26.0419768,32.4945312 C25.7374953,32.6557178 25.3950279,32.8188008 24.9949879,32.9927444 C24.5009722,33.1620335 23.9735209,33.2711577 23.4638757,33.3768341 L23.368515,33.3966591 C23.1320918,33.4457908 22.8517472,33.5021631 22.5654675,33.5488813 C22.2774071,33.5968064 21.9867746,33.6402492 21.701484,33.678003 C21.3922544,33.7073097 21.0513697,33.7312722 20.6289734,33.7535107 L20.5102672,33.7597169 C20.2045987,33.7759217 19.8884444,33.7926438 19.5782256,33.7931609 L19.4759404,33.7933333 L19.3736552,33.7933333 C19.0535441,33.7933333 18.7395661,33.7919542 18.4206422,33.7764389 C18.042365,33.757993 17.6607245,33.7261004 17.3024295,33.6948975 L17.2375368,33.6869674 C16.9101055,33.6474896 16.5717928,33.6064603 16.2463399,33.5306078 C15.8666779,33.4409639 15.5000735,33.3339084 15.1259512,33.2034076 C14.8414519,33.0949729 14.5622944,32.9794702 14.2959969,32.8600025 C14.0368216,32.7429483 13.7622145,32.6157229 13.5056112,32.4609148 C13.3305196,32.3354134 13.1936118,32.2192211 13.0749055,32.095616 C13.0167395,32.0233837 12.9732139,31.9608053 12.9381956,31.8985718 C12.8713244,31.7442809 12.8238419,31.5998163 12.7931762,31.4565585 C12.7864495,31.3888083 12.7850646,31.3145074 12.7884279,31.2226224 C12.8816123,31.3051982 12.990822,31.3458828 13.1065606,31.3501925 C13.1967773,31.3903599 13.2871919,31.4320788 13.3768151,31.4744872 C13.4484345,31.5084484 13.5198561,31.5434441 13.5910798,31.5786121 C13.7382755,31.6510167 13.8906151,31.7260073 14.0463181,31.7891028 C14.2896658,31.8882282 14.547654,31.9818371 14.8345273,32.0752737 C15.1099258,32.1654348 15.393238,32.2435284 15.6674493,32.3192085 C15.7507415,32.3421366 15.8346272,32.3593759 15.9181172,32.3766151 L16.0289098,32.4000604 C16.1440548,32.4255745 16.2591998,32.4512609 16.3759276,32.4721203 C16.6463799,32.5200453 16.9385951,32.5702114 17.2399109,32.6114131 C17.8567876,32.6972644 18.4760384,32.7357079 18.9465106,32.7596703 C19.2581145,32.7750132 19.5924703,32.7891494 19.9290024,32.7891494 Z M30.6234506,29.2266667 C30.5642885,29.2266667 30.504117,29.2303341 30.4425319,29.2360186 C30.3407652,29.2461039 30.2373831,29.2596732 30.1356163,29.2761765 C29.8898819,29.3163344 29.625773,29.3616266 29.3618658,29.420855 C29.1603515,29.4661473 28.9632794,29.5394952 28.7726687,29.6102758 L28.6373835,29.6603357 C28.4178985,29.7404683 28.2008364,29.8277522 27.9843802,29.9148527 L27.8335473,29.9753646 C27.4799885,30.116926 27.1254203,30.2696729 26.7823613,30.4172854 C26.6371822,30.4798144 26.4915991,30.5423434 26.3460162,30.6043223 C25.7965968,30.8372017 25.2825132,31.0469765 24.7748909,31.2453824 C24.3884195,31.388044 23.977718,31.5255711 23.4824128,31.6779512 C23.4464713,31.6876698 23.4103279,31.6966549 23.3743865,31.7056401 L23.3136091,31.7208597 C23.0424331,31.7881564 22.7627764,31.8440841 22.4926099,31.8981781 L22.252933,31.9465877 C21.8856439,32.0210358 21.4995763,32.091633 21.1052301,32.1563625 C21.021636,32.1708487 20.9396572,32.1842347 20.8560631,32.197804 L20.7686325,32.2093563 C20.6230496,32.2287935 20.4720148,32.2487808 20.3238069,32.2566656 C20.0336505,32.2729855 19.7917525,32.2819707 19.5629792,32.2852713 C19.5088651,32.2860048 19.454751,32.2863715 19.4008389,32.2863715 C18.9533883,32.2863715 18.4982647,32.2599663 18.0479872,32.2078893 C17.8040701,32.1737826 17.5542973,32.1211555 17.2847365,32.0476244 C17.1411728,32.0081999 16.9992242,31.9651081 16.8572758,31.9214661 C16.6307236,31.851969 16.4005369,31.7736702 16.1539948,31.6823521 C15.9361251,31.582599 15.7226976,31.4665262 15.5163372,31.3541206 C15.4446563,31.3150629 15.3729753,31.2761885 15.3006886,31.2376809 C15.1377407,31.150397 14.9707544,31.0695309 14.8041719,30.9888483 C14.6791846,30.9281531 14.5541972,30.8674577 14.4308252,30.8041952 C14.3423851,30.7590863 14.2541468,30.7139774 14.1691392,30.6646509 C14.1374381,30.6461306 14.1073523,30.6259599 14.0772665,30.6056059 C14.0360752,30.5781005 13.9948838,30.550595 13.9504618,30.5271237 C13.7707547,30.4321383 13.5759037,30.3745603 13.4262823,30.3349525 C13.3917543,30.3259674 13.3562167,30.319366 13.320881,30.3129481 L13.2738341,30.3041464 C13.1876151,30.2872764 13.0860502,30.2685727 12.9856969,30.2581206 C12.9334001,30.2531696 12.8811032,30.2507858 12.8290083,30.2507858 C12.7567217,30.2507858 12.6846369,30.2553701 12.6131578,30.2632549 C12.4905935,30.2188795 12.3571256,30.2042099 12.2280999,30.1900905 L12.1709571,30.1836725 C12.1309773,30.1792717 12.0897859,30.1770712 12.0481908,30.1770712 C11.9213862,30.1770712 11.7766109,30.1961417 11.6055862,30.2353828 C11.2514217,30.3164321 10.9382467,30.4757802 10.6991756,30.6963739 C10.6666667,30.7266299 10.6359752,30.7579861 10.606697,30.7895256 C10.5703518,30.8122635 10.535218,30.8372017 10.4986709,30.8625068 C10.426586,30.9145837 10.3682317,30.9827971 10.3123004,31.0742986 C10.2491,31.1784525 10.2107355,31.3002099 10.1772171,31.4076645 C10.1299682,31.562245 10.1010939,31.7080239 10.0889788,31.8536193 C10.0683832,31.9704258 10.0560662,32.0720125 10.0510182,32.1638806 C10.039307,32.3903421 10.0530374,32.6136862 10.0708062,32.8610518 C10.086152,33.0678927 10.110988,33.2776675 10.1350162,33.4804743 L10.1449102,33.5622571 L10.1723711,33.8050384 C10.1891303,33.9572352 10.2058894,34.1092486 10.226889,34.2614453 C10.2458692,34.3931047 10.271109,34.5486021 10.3153291,34.7022658 C10.3460207,34.8097203 10.3839813,34.9153412 10.42174,35.0209621 L10.439105,35.0697384 C10.4768637,35.1742591 10.5188626,35.2782297 10.5606597,35.3814667 L10.5869091,35.4452793 C10.6430423,35.5807895 10.7007909,35.7207005 10.7698469,35.8521765 C10.8673734,36.0360961 10.9826687,36.2491716 11.1153289,36.451795 C11.2770653,36.7006275 11.4721183,36.9854005 11.7380446,37.2193801 C11.961366,37.4159523 12.1963988,37.6081235 12.4239605,37.793877 C12.5921584,37.9314042 12.7603562,38.068748 12.9257271,38.2093924 L12.9671204,38.2442326 C13.1540966,38.4022973 13.3475343,38.565863 13.5506639,38.7129253 C13.811744,38.9019794 14.0825163,39.0835153 14.3363275,39.2516651 C14.4572765,39.3314309 14.6012441,39.4242159 14.7498558,39.5081992 C14.9481395,39.6202381 15.1849896,39.6712148 15.3915518,39.7104559 C15.5839798,39.7474965 15.7836769,39.7724347 15.9767107,39.7966395 L16.1709559,39.8213944 C16.6965489,39.8912582 17.2181036,39.960572 17.7396582,40.0284187 C18.0701982,40.0711438 18.4053824,40.1146024 18.7377397,40.1422913 C19.0149733,40.1652125 19.2903897,40.1727306 19.5960938,40.1795153 C19.7796374,40.1837328 19.9629791,40.1866667 20.1463208,40.1866667 C20.5663106,40.1866667 20.9128021,40.1708969 21.2368808,40.1373403 C21.4755481,40.1125854 21.7899347,40.0770117 22.1031097,40.0220008 C22.3940738,39.9697404 22.6836245,39.9123458 22.9729732,39.8536675 C23.4795859,39.750247 23.9692374,39.5754959 24.4427355,39.4062457 L24.530368,39.3750729 C25.1310746,39.1599804 25.7087624,38.9028962 26.1451076,38.7032067 C26.2165866,38.6705669 26.2860464,38.633893 26.3555063,38.5970358 L26.4417254,38.5519269 L26.5424826,38.5004 C26.6236536,38.4591418 26.7050267,38.4178837 26.7817555,38.3713078 C27.0812002,38.1897719 27.3220886,38.0383087 27.5397563,37.8941801 C28.0053796,37.5864859 28.4326385,37.2276317 28.8659549,36.8563083 C29.1054298,36.6505676 29.35177,36.4092533 29.5981101,36.1391498 C29.8652479,35.8446583 30.1111842,35.5129427 30.3294578,35.1531716 C30.5941724,34.7178522 30.8441471,34.2552107 31.0725166,33.7784498 C31.2027538,33.5068795 31.3317795,33.2226566 31.4670647,32.9094614 C31.5462166,32.7260918 31.6362721,32.5122829 31.7004821,32.2948065 C31.7117895,32.2575825 31.7239046,32.2203585 31.7362216,32.1829511 C31.7626728,32.1009848 31.7905375,32.0162682 31.8085083,31.9322849 C31.829104,31.8376662 31.8478824,31.7430475 31.8652473,31.6484287 C31.8803912,31.6027697 31.888266,31.5565606 31.888266,31.5114517 C31.8904871,31.4973322 31.8929101,31.4830294 31.8945255,31.4678098 C31.9268324,31.2266787 31.9524759,31.0251555 31.964591,30.8139138 C31.9851867,30.4699124 31.8492958,30.1257277 31.6996744,29.8051977 C31.5688315,29.5226252 31.2358684,29.297264 30.8714061,29.2446369 C30.7817544,29.2327179 30.7007852,29.2266667 30.6234506,29.2266667 Z" id="Fill-137"></path>
            </g>
        </g>
    </g>
</svg>