<svg width="500" height="600" xmlns="http://www.w3.org/2000/svg"><g fill="none" fill-rule="evenodd"><path d="M227 197.053c-15.762 2.463-24.425 4.296-25.988 5.5-.959.738-10.958 13.766-20.668 48.406-4.085 14.574-10.767 45.075-20.044 91.5 7.46 2.564 11.19 3.666 11.19 3.307 0-.201 3.656-4.299 10.941-22.741 3.818-9.666 11.792-31.544 23.922-65.633v90.195c5.157 5.977 17.154 8.433 35.991 7.366 18.837-1.067 32.023-4.917 39.558-11.552l4.125-90.772c7.91 27.996 13.888 48.175 17.936 60.536 4.047 12.362 7.326 20.067 9.837 23.116l13.244-1c-5.48-25.006-8.943-42.58-10.39-52.722-2.239-15.707-.429-27.585-2.854-39.706-4.774-23.862-9.133-36.91-13.078-39.144l-24.522-3.956c-7.207 2.867-15.94 4.269-26.2 4.206-10.26-.063-17.927-2.365-23-6.906z" fill="#BDC59A"/><path d="M234.75 186.38c6.328.883 11.01 1.4 14.044 1.555 3.035.153 7.696-.364 13.986-1.554.792 2.18 1.946 4.24 3.46 6.177 1.514 1.937 4.267 4.435 8.26 7.495-9.567 3.133-18.667 4.533-27.3 4.2-8.633-.333-15.267-2.733-19.9-7.2 3.19-3.29 5.33-5.996 6.422-8.118 1.09-2.123 1.433-2.974 1.028-2.554zM161.398 343.4c-.332 3.702-1.331 5.553-2.998 5.553-1.2 0-8-4.11-12.743-2.305-5.132 1.953-6.353 11.183-4.875 12.412 1.248 1.038 3.53 1.968 9.818 3.718 2.18.607 6.031 1.332 11.555 2.175 1.246-1.414 2.334-3.464 3.264-6.15.93-2.686 2.057-7.032 3.381-13.037l-7.402-2.365zm162.51-7.941c-1.42 3.342-1.256 5.013.492 5.013 1.26 0 7.898-3 12.874-1.158 5.383 1.994 6.663 11.416 5.113 12.67-1.308 1.06-4.264 3.633-10.86 5.419-4.397 1.191-7.873 1.961-10.427 2.312-2.06-2.587-3.578-5.251-4.554-7.993-.975-2.741-2.157-7.177-3.546-13.308l10.908-2.955z" fill="#EEDDC5"/><path d="M148.7 279.3v.3c0 .3-.1.6-.1.9 0 .1-.1.3-.2.4 0 .1 0 .1.1.2 0 .1.1.3.1.4.3-.5.5-1 .8-1.4 0-.1-.1-.1-.1-.2-.2-.3-.3-.7-.5-1 .1.1 0 .3-.1.4m91.7-25.3c.1 0 .2-.1.3-.1-.1 0-.2.1-.3.1m95.2 37.5c0 .4.4.8.8.8s.8-.4.8-.8-.4-.8-.8-.8-.8.3-.8.8" fill="#161616"/><path d="M235.344 187.65c-.4.406-.7.812-1 1.217-.2.243-.4.568-.6.81-.5.487-.9 1.136-1.1 1.704-.4.73-.6 1.702-.7 2.594-1.6.973-3.3 1.865-5.1 2.433-.6.08-1.3.162-1.9.243.1.081.3.162.4.243.6-.162 1.3 0 1.7.324.4.325.7.73 1 1.136.2 0 .3 0 .5.08.2.082.5.163.7.244l.3.243c.2.081.3.243.5.406.2.243.4.405.6.648.2.243.5.487.7.811.4.487.8.973 1.1 1.46.2.243.4.486.5.73l.1.08c.6.406 1.1.892 1.7 1.298h.2c.2 0 .3 0 .5.08.3.082.6.082 1 .163.3.08.5.08.8.162.5 0 1 0 1.5-.081.2-.162.4-.243.6-.405.8-.568 1.6-1.136 2.3-1.703.9-.649 1.7-1.297 2.5-2.027 1.3-1.135 2.4-2.514 2.9-3.973.7-1.784 1.2-3.568 1.6-5.433.2-.81.2-1.621 0-2.351 0-.081-.1-.243-.1-.405h-.5c-1 0-2 .08-3.1.08-1 0-1.9-.08-2.9-.161-.9-.082-1.7-.244-2.5-.487-1.2-.243-2.3-.649-3.4-1.054-.2.324-.5.649-.8.892m-33.8 14.408c-.6.2-1.1.4-1.7.5-.3.1-.7.2-1 .3-.2.1-.5.3-.7.4-.1.1-.3.1-.4.2-.1 0-.1.1-.2.1-.2.3-.4.5-.6.8-.9 1.3-1.6 2.8-2.2 4.3-.4.9-.6 1.9-.9 2.8-.3 1-.6 1.9-.9 2.9-1.2 4-2.7 8-4.2 11.9-.8 2.1-1.5 4.3-2.3 6.4-.7 2.1-1.3 4.2-2 6.2-1.4 4-2.8 8-4.1 12.1-1.4 4.3-2.6 8.7-3.9 13-.9 2.9-1.6 5.8-2.2 8.7l-1.5 6.6c-.5 2.2-1 4.3-1.5 6.5-.5 2.1-.9 4.3-1.2 6.5-.8 4.3-1.5 8.6-2.3 13-.8 4.5-1.8 8.9-2.6 13.4-.8 4.3-1.8 8.6-2.6 12.9-.1.6-.2 1.3-.3 1.9-.2 1.2-.2 2.4-.3 3.5-.1 1.4.1 2.8.4 4.1-.1-.2-.1-.4-.2-.6.1.5.3 1.1.4 1.7v.1c.5 1.7 1.4 3.3 3.2 3.5 1.1.1 1.8-.9 2.4-1.6.1-.1.2-.3.4-.4.5-.7 1-1.4 1.4-2.2.5-1 1-1.9 1.4-2.9.1-2.1.4-4.1.8-6.1.3-1.9.8-3.8 1.2-5.6.4-1.8.7-3.6 1.1-5.4.3-1.7.7-3.4 1.1-5.2.8-3.8 1.6-7.6 2.6-11.4.4-1.8.9-3.6 1.3-5.3.4-1.9.9-3.9 1.3-5.8.8-3.6 1.5-7.3 2.3-10.9.4-1.8.8-3.6 1.3-5.4.5-1.9.9-3.9 1.3-5.8.8-3.7 1.6-7.5 2.4-11.2.4-1.8.7-3.5 1.1-5.3l1.2-5.1c.5-1.9.9-3.8 1.4-5.7.4-1.9.9-3.9 1.3-5.8.8-3.6 1.7-7.2 2.5-10.8.4-1.8.8-3.7 1.3-5.5.4-1.8 1-3.6 1.6-5.4.6-1.8 1.2-3.7 1.8-5.5.6-1.7 1-3.5 1.5-5.3.4-1.6.8-3.1 1.2-4.7-.5.3-1 .4-1.4.6" fill="#161616" opacity=".2"/><path d="M218.544 203.859v.5h.3c0-.4-.1-.8-.1-1.3-.2.2-.2.5-.2.8m-10.6.2h-.1c-.2 1.3-.4 2.5-.6 3.8-.1.4-.1.8-.2 1.3.2-.7.3-1.4.5-2.2.2-1 .5-2 .7-3 0 0-.2.1-.3.1m4.2 13c.1 0 .3-.1.4-.1v-1.7c-.1.5-.2 1.2-.4 1.8m-26.1 69.1c.3-1.2.6-2.4.8-3.6-.3 1.2-.6 2.4-.8 3.6" fill="#BEBEBE"/><path d="M160.944 342.959c-.2.2-.4.5-.6.8-.03.03 1.026 2.948-1.121 3.5-4.925 1.266-15.63.895-15.979 1.8-.2.4-.3.8-.4 1.3-.2.8-.4 1.5-.6 2.3-.4 1.8-.2 3.6.3 5.3.2.8.6 1.5 1.1 2.2.2.3.8.9 1 1.1.3.2.8.4 1.1.4.6.1 1.2 0 1.8-.1.6-.1 1.1-.4 1.5-.9.7-1 1-2.5 1-3.8.5.1.9.3 1.3.4.7.2 1.5.4 2.3.3.8-.1 1.5-.2 2.2-.5 1.9-.6 3.9-1.2 5.5-2.3.7-.5 1.3-1.1 1.8-1.8.4-.6.8-1.5 1.1-2.1.6-1.2.9-2.4 1.1-3.6.1-.9.1-1.8 0-2.7l-.3-1.2c-.2-.6-.5-1.1-1-1.5-.3-.1-.7-.4-1.1-.4.1.2 0 .2-.1.2-1 .2-1.2.5-1.9 1.3zm80.2-106.4c-1 .6-1.3 2.1-1.6 3.1-.1.2-.1.4-.2.7-.1.3-.2.6-.3.8-.4.9-.6 1.9-.9 2.9-.7 2.7-1 5.6-.4 8.3 0 .7.1 1.3.2 2 .2.8.4 1.8.9 2.5.3.5 1 1.3 1.7 1.2l.2.2c.8.6 1.9 1 2.9 1 .8 0 1.4-.3 2.2-.5.7-.2 1.3-.6 2-.9l.9-.6c.3 0 .6 0 1-.2.3.3.7.5 1.2.6.2-.1.4-.1.6-.2.4-.1.8-.2 1.1-.4l.2-.2.9-.9c.2-.3.5-.6.7-.9.2-.3.4-.5.5-.8.3-.5.6-1.1.8-1.6.7-1.7.8-3.8.5-5.6-.1-.6-.3-1.1-.4-1.7-.1-.4-.9-1.9-1.5-2.2-.3-.1-.7-.2-1-.3-.4 0-.8.2-1.3.4s-1 .7-1.4 1c-.5.4-1 .9-1.6 1.4-.1 0-.2-.1-.3-.1-.4.1-.8.2-1.1.4-.2.1-.3.2-.5.2-.3.2-.7.4-1 .6-.3.2-.7.4-1 .6 0-1.2 0-2.4-.1-3.6 0-.5-.1-1-.1-1.5-.1-1.1-.3-2.1-.6-3.1-.1-.3-.2-.6-.4-.8-.2-.7-.6-1.3-1.2-1.7-.3-.2-.5-.2-.8-.2-.2-.2-.5-.1-.8.1" fill="#161616" opacity=".2"/><path d="M234.444 563.359c-.8.2-1.7.5-2.4.9-1.8.8-3.3 2.1-4.6 3.5h-.1c-1.4.2-2.9.4-4.3.7-.5-1.1-1.2-2.2-2.4-2.6-.9-.3-1.6-.5-2.5-.6-.8 0-1.7.1-2.5.2-1.7.3-3.3.9-4.9 1.6-1.5.7-2.9 1.4-4.4 2.2-2.4 1.4-4.5 3.1-6.5 5-1 1-2 2.1-3 3.1-1.6 1.6-3.2 3-4.7 4.6l.3-.3c-.7.7-1.4 1.3-2.2 1.9-1.2.9-1.7 2-2.3 3.4-.8 1.9-.8 4.4-.5 6.4 0 .1 0 .2.1.3.2 1.2.6 2.4 1.3 3.5.4.5.8 1 1.4 1.3.3.2 1.1.4 1.6.5.3 0 .6 0 .9-.1.3.1.6.1 1 .2 1.5.1 3.1-.2 4.7-.5 1.4-.3 2.7-.6 4-.9.5.8 1.2 1.3 2.2 1.4 2.5-.8 5.1-1.5 7.6-2.2 1.2-.4 2.5-.7 3.8-1.1 2-.5 4-1.1 6-1.4 1-.1 1.8-.6 2.3-1.5.2-.2.3-.4.4-.7 1.1-.3 2.1-.7 3.2-1 0 .1 0 .2.1.3.3.9.8 1.6 1.5 2.2.6.3 1.3.5 1.9.6.7.2 1.4.1 2.1 0 .6-.1 1.2-.3 1.7-.5.3-.1.6-.2.9-.5 1.1-.8 1.7-2 2.2-3.2.3-.9.5-1.9.8-2.8.5-1.8 1-3.6 1.2-5.5.3-2 .5-4 .5-6 0-2.3-.3-4.7-1.1-6.8 0-.1-.1-.2-.1-.3-.1-.4-.2-.7-.3-1.1-.2-.9-.7-1.7-1.2-2.4-.7-1-1.5-1.5-2.7-1.8h-1m80.5 21.6c.1 0 .1 0 .2.1 0 0-.1 0-.2-.1m-39.9-18.9c-.2.1-.3.1-.4.2-.6.1-1.1.4-1.6.8-2.2 1.8-3 4.8-3.7 7.5-.3 1.2-.5 2.5-.7 3.8-.4 2.7-.9 5.5-.5 8.3.1.8.3 1.6.6 2.4.3 1 .9 1.9 1.7 2.5.5.2.9.3 1.4.4.7 0 1.4-.3 2-.5.4-.1.8-.3 1.2-.5.3-.1.6-.3.9-.4 1 .3 2.1.5 3.2.6 1.1.1 2.2.1 3.3.2 2.1.1 4.2.1 6.3.2 4.5.1 8.9-.4 13.3-1 2.2-.3 4.3-.7 6.4-1 2.6-.5 5.2-.7 7.7-1.4.7-.2 1.5-.4 2.2-.8 1.3-.9 1.8-2.6 2.1-4 .3-1.4.2-3 0-4.4-.2-1.7-1-3.4-2.3-4.5-1-.8-2.3-1.2-3.4-1.7-1.1-.4-2.3-.8-3.4-1.3-1.7-.6-3.4-1.2-5.1-1.6-.4-.1-.9-.1-1.3-.2-.2-.3-.5-.5-.8-.8-.5-.5-.9-.7-1.6-.9-1.4-.5-2.7-.8-4.2-.9-1.9-.2-3.7-.2-5.6-.1-2.5 0-5 .3-7.4.8-1.2.2-2.3.5-3.5.9-.5.1-.9.3-1.3.4-.2-.5-.5-1-.8-1.4-.2-.4-.7-.9-1-1.1-.4-.3-.7-.4-1.2-.5-.3-.1-.6-.1-.9-.1-.5-.3-1-.1-1.6.1" fill="#866653"/><path d="M326.344 335.659c.1 0 .1 0 .2.1h.7c.1 0 .3-.1.4-.1 0-.1.1-.2.1-.4-.4.2-.9.3-1.4.4" fill="#BEBEBE"/><path d="M318.344 336.159c-.4 0-.7-.1-1-.3-.1.4-.2.7-.2 1-.1 1-.2 2.1-.3 3.1-.2 1.8-.3 3.1 0 5 .1.7.2 1.3.5 1.9.3.9.6 1.5 1.2 2-.4 1.4-.6 2.8-.6 4.3 0 1.7.2 3.3.8 4.8.5 1.4 1.1 2.7 2.3 3.6 1.2.9 2.1.5 3.3 0 .4-.2.9-.4 1.3-.6 1-.4 1.9-.9 2.8-1.4.9-.5 1.7-1 2.7-1.4.9-.4 1.9-.7 2.8-1 .7-.2 1.4-.5 2.1-.7.4-.1.8-.3 1.1-.4 1.1-.4 1.8-1 2.5-1.9 1.2-1.5 1.7-3.5 2.1-5.3.2-1.1.3-2.3.2-3.4 0-.5-.1-1-.1-1.5-.1 0-.1-.1-.2-.1-.3-.2-.5-.4-.6-.6-.1-.2-.2-.3-.2-.5-.1-.3-.2-.5-.3-.8-.2-.4-.3-.7-.5-1-.2-.3-.3-.5-.5-.8-.5-.7-1.1-1.2-1.8-1.8-.2-.1-.4-.3-.6-.4-.3-.1-.7-.2-1.1-.3-.8-.1-1.7 0-2.5.1-.9.2-1.9.3-2.8.7l-1.5.6-1.2.3c-.3.1-.7.1-1 .1-.4 0-.8 0-1.2-.1-.4-.1-.7-.1-1-.3l-.6-.3c-.2-.1-.3-.3-.5-.4l-.6-.9-.6-1.5c-.1-.2-.1-.3-.2-.5-1.3.1-2.6.5-4 .7" fill="#161616" opacity=".2"/><path d="M326.244 335.759c.1 0 .1.1 0 0 .1.1.1 0 0 0" fill="#BEBEBE"/><g fill="#161616"><path d="M150 365.453h.2-.2m-1-10.9c-1.2.2-2.4.3-3.7.5-.4.1-.9.1-1.3.1-.2.4-.3.7-.5 1.1h.3c.3 0 .6-.1.9-.1.2 0 .5-.1.7-.1.3 0 .5-.1.8-.1.9-.1 1.8-.3 2.8-.5.2 0 .3-.2.3-.4 0-.1 0-.2-.1-.3.1-.2 0-.2-.2-.2.1 0 .1 0 0 0m97.4-116c.6 0 1.2 0 1.8.1.7.1 1.4.2 2 .5.3.1.5.3.8.4.3.2.6.3.9.5.4.4.8.8 1.1 1.3.1.1.2.3.3.4.3.4.6.9.8 1.4.1.2.2.4.3.7-.8.3-1.6.8-2.3 1.2-.9.5-1.8 1-2.8 1.5-.7.3-1.4.5-2.1.6h-.2l-.3-.3c-.1-.1-.2-.2-.2-.4-.1-.2-.1-.5-.2-.7-.1-.9-.1-1.7-.2-2.6-.1-1.3-.1-2.6 0-4 .2-.2.2-.4.3-.6m-3.2-.9c-.1.5-.2 1.1-.2 1.6-.1.8-.1 1.5-.1 2.3 0 .8.1 1.7.1 2.5s.1 1.6.2 2.4c.1.3.1.7.2 1 .2.6.5 1.1.9 1.5.3.4.6.7 1 .9.3.2.7.3 1 .4.2 0 .4.1.7.1.3 0 .6-.1.9-.1.8-.1 1.5-.4 2.2-.7.7-.3 1.4-.6 2.1-1 .5-.3 1-.6 1.6-.9.5-.3.9-.5 1.4-.8v.2c.1.7.1 1.4.1 2.1 0 .6-.1 1.3-.2 1.9-.1.4-.1.7-.3 1.1-.1.2-.2.3-.3.5-.7.9-1.6 1.6-2.5 2.3-.9.7-1.9 1.3-3 1.7-.8.3-1.6.5-2.4.7-1.1.1-2.2 0-3.3-.2l-1.2-.3c-.4-.2-.7-.4-1-.6-.5-.3-.9-.5-1.3-.8l-.9-.9c-.4-.5-.7-1-1-1.6l-.3-1.2c-.2-1.4-.3-2.9-.2-4.3.2-1.3.5-2.5 1-3.7.7-1.5 1.5-3 2.5-4.3.3-.4.7-.9 1.1-1.2.6-.3.9-.5 1.2-.6m3-3.3c-.9.1-1.9.2-2.8.5-.5.1-.9.4-1.4.6-.5.2-.9.5-1.3.8-.8.6-1.4 1.3-2 2.1-.7.9-1.2 1.8-1.8 2.7-.5.9-.9 1.8-1.3 2.8-.4 1-.6 2.1-.8 3.2-.2 1-.2 2-.1 3 0 .5.1 1.1.1 1.6 0 .6.1 1.2.3 1.8.1.5.4 1 .6 1.4.2.4.4.8.7 1.2.3.4.6.8 1 1.2.4.4.9.8 1.4 1.1.4.3.9.5 1.3.8.8.4 1.6.8 2.5 1 1 .2 2 .3 3 .4 1 .1 2.1-.1 3.1-.3 1.1-.2 2.1-.7 3.1-1.2 1.3-.6 2.4-1.5 3.5-2.4.5-.5 1.1-1 1.6-1.5.5-.6 1-1.2 1.2-1.9.2-.6.3-1.2.4-1.8.1-.7.2-1.5.2-2.2 0-.7 0-1.4-.1-2.2 0-.4-.1-.8-.2-1.1-.1-.2-.1-.5-.2-.7-.1-.3-.2-.7-.3-1-.2-.7-.5-1.4-.8-2.2l-.6-1.2c-.2-.2-.3-.5-.5-.7-.3-.4-.7-.9-1-1.3-.2-.3-.5-.5-.7-.8-.5-.5-1-.8-1.6-1.1-.3-.2-.6-.3-.9-.5-.7-.4-1.5-.6-2.3-.7-.7-.1-1.5-.3-2.3-.3 0-.2-.2-.4-.3-.6 0-.3-.3-.5-.7-.5.1 0 0 0 0 0m-33.3 341c-.3.2-.6.5-.8.8-.1.2-.2.4-.3.5-.3.5-.6 1.1-.9 1.6-.3.6-.6 1.2-.8 1.8-.3-.3-.6-.5-1-.6-.4-.1-.6-.1-1 0-.2 0-.4.1-.6.2-.2.1-.3.2-.5.4-.3-.2-.7-.4-1-.4-.8 0-1.5.5-1.8 1.3 0 .1-.1.2-.1.3h-.1c-.6.1-1.1.2-1.7.3-1.1.2-2.3.5-3.4.7l-1.2.3-1.5.3-1.2.3c-.3.1-.6.2-1 .3-.4.1-.8.3-1.1.6-.1.1-.2.2-.2.3-.1.2-.2.5-.2.7 0 .2 0 .4.1.6.1.2.2.5.4.6.2.2.7.5 1 .4.7-.1 1.5-.2 2.2-.3.7-.1 1.4-.3 2.1-.5.1 0 .1 0 .2-.1 0 .3.1.6.1.9.1.3.2.7.3 1 .1.3.3.5.6.6h.5c.1 0 .3-.1.4-.2.2-.1.3-.3.3-.5 0-.1.1-.2.1-.4 0-.1 0-.2.1-.4 0-.2.1-.4.1-.7 0 .1.1.1.1.2.1.2.2.3.4.5.5.5 1.4.5 1.9 0 .1-.1.3-.3.4-.5.1-.1.1-.2.2-.4h.7c.2 0 .3-.1.5-.2.3-.2.5-.4.7-.7 0 0 .1-.1.1-.2.1.1.1.2.2.2.4.4 1.1.6 1.7.5.5-.1.8-.4 1.1-.9.3.3.7.5 1.1.5.1 0 .3 0 .4-.1.3-.1.5-.2.7-.4l.3-.3c.2-.2.3-.4.4-.6.1-.1.1-.2.2-.3.9 0 1.8.1 2.8.2.1 0 .2 0 .4.1.3.3.7.5 1.1.5.1 0 .3 0 .4-.1.3-.1.5-.2.7-.4.3-.2.3-.5.5-.8.1-.3.1-.6 0-.9l-.3-.6c0-.1 0-.1-.1-.2 1.2-.3 2.3-.5 3.5-.8l1.5-.3c.1 0 .2 0 .3-.1.4.3 1 .3 1.5 0h.1c.2-.1.3-.1.5-.2.1 0 .2-.1.2-.1.1-.1.2-.2.4-.3l.3-.3c.1-.2.2-.5.2-.8 0-.3-.1-.5-.2-.8-.2-.4-.5-.6-1-.8-.2-.1-.4-.1-.6 0h-.5.1c-.7.1-1.3.3-2 .4l-1.5.3-2.4.6c-.4.1-.9.2-1.3.3-.1-.3-.1-.5-.2-.8-.1-.2-.2-.4-.2-.7-.2-.6-.4-1.2-.9-1.6-.4-.3-.8-.5-1.3-.6h-.1c-.4.5-.7.6-1.1.8m79-.8h-1c-.4 0-.8.1-1.2.2-.7.1-1.1.8-1.1 1.5 0 .3.1.5.2.8.2.3.5.6.9.7.7.1 1.3.1 2 .2.4 0 .9.1 1.3.2 1.4.2 2.7.4 4 .9.4.2.8.4 1.2.7.4.4.8.8 1.3 1.2.5.4 1.2.5 1.8.3.2.2.4.3.7.3.4.1.8.1 1.2-.2.3-.2.5-.4.8-.7.3.1.6.2.9.1.1 0 .2-.1.3-.1.1.2.3.3.5.4-.1.3-.2.6-.2.9-.1.5-.1 1 0 1.5 0 .2.1.5.2.6.1.2.2.3.3.5.3.4 1 .5 1.4.2.1-.1.2-.2.3-.2.1-.1.2-.3.3-.4.1-.3.2-.5.3-.8.2-.1.4-.3.5-.5.1-.1.2-.3.3-.4.3-.2.5-.5.7-.8.1-.1.2-.1.3-.2.1-.1.2-.1.2-.2l.3.1c.6.2 1.1.3 1.7.4.6.1 1.1.2 1.7.3.7.1 1.4.2 2.2.2h.8c.3 0 .6 0 .9-.1.3-.1.6-.2.9-.5.2-.2.3-.5.4-.8.1-.4.1-.9-.2-1.2-.2-.4-.6-.6-1-.7-.8-.3-1.7-.4-2.6-.6-.7-.2-1.4-.3-2-.5-.2 0-.4-.1-.6-.1v-.3c0-.5-.2-.9-.6-1.2-.1-.2-.2-.4-.3-.5-.2-.2-.3-.3-.6-.3-.2-.1-.5-.1-.7 0-.7.1-1 .7-1.3 1.2h-.5v-.1c0-.3-.3-.5-.5-.6-.3-.1-.6-.2-.8-.1-.3.1-.5.3-.6.5 0 .1-.1.1-.1.2-.1 0-.2 0-.3-.1-.6-.1-1.1-.2-1.7-.3-1-.2-2-.3-3.1-.5-1.2-.2-2.3-.3-3.5-.5-1.4-.2-2.8-.3-4.1-.3-.6 0-1.3-.1-1.9-.1-.2-.2-.3-.2-.3-.2"/><path d="M299.3 573.053c-.1.2-.2.3-.2.5-.1.2-.1.5-.2.8 0 .1-.1.2-.1.4-.3.6-.7 1.1-1 1.7-.3.5-.7 1-1 1.5-.1.1-.1.3-.1.4 0 .2.1.4.3.6.2.2.6.3.9.2h.1c.1 0 .2-.1.3-.1 0 .1-.1.2-.1.4-.2.6.2 1.3.8 1.4.3.1.6 0 .9-.1.3-.2.4-.4.5-.7 0-.1.1-.2.1-.3v-.1c0 .3 0 .7.2 1 .3.4.7.7 1.3.7.2 0 .5-.1.7-.2.1.2.2.4.4.6.1.1.2.3.3.4l.5.5c.2.1.4.3.6.3.2.1.5.1.7.1.1 0 .3 0 .4-.1.2-.1.4-.1.5-.2.1-.1.4-.3.5-.4l.3-.3c.3-.3.5-.6.7-1 .3-.4.5-.8.7-1.3.2-.3.3-.7.5-1 .2-.4.3-.8.5-1.2.1-.2.1-.4.2-.5.1-.3.1-.5.1-.8 0-.3 0-.7-.1-1.1-.1-.3-.3-.6-.5-.8-.2-.2-.5-.4-.8-.4-.5-.1-1.1-.1-1.5.2-.1.1-.2.2-.4.3l-.1-.1c-.2-.2-.5-.4-.8-.5-.2 0-.3-.1-.5-.1s-.4 0-.5.1c-.1 0-.3.1-.4.2-.3-.1-.7-.2-1-.1h-.1l-.6.3c-.2.1-.3.3-.4.5h-.7c-.2 0-.3.1-.5.2-.1.1-.2.1-.4.2h-.3c-.1 0-.2 0-.3.1.1-.1.1-.3.2-.4.1-.2.2-.4.2-.6.1-.2.2-.5.2-.7 0-.2 0-.4-.1-.5-.1-.2-.3-.3-.5-.3h-.1s-.2.1-.3.3"/><path d="M228.1 572.253c1.4 0 3.1 0 4.8-.1 2.4-.1 4.4-.5 6.1-1.1.3-.1.6-.2.9-.4.3-.1.5-.3.7-.5.1.3.1.6.2.9.1.7.1 1.4.1 2.3 0 .8-.1 1.5-.2 2.2-.1.7-.3 1.5-.4 2.2l-.2.8c-.1.3-.1.6-.2.9-.2.9-.3 1.8-.6 2.6l-.1.5c-.3 1-.5 2.1-.9 3.1-.3 1.1-.8 2.2-1.1 3.2-.2.5-.4 1-.8 1.5l-.3.3c-.1.1-.2.2-.4.2-.5.2-.9.2-1.3.3-.9.1-1.9.2-2.8.2h-.3c-.7 0-1.4.1-2.1.1-.7 0-1.3 0-1.8-.1l-.4-.1c-.2 0-.4-.1-.7-.1-.5-.1-.9-.1-1.4-.2-.5 0-1-.1-1.5-.1h-.2c-.7 0-1.5.2-2 .3-1.1.3-2.3.6-3.4.9l-1.2.3c-3.3.9-6.6 1.7-9.7 2.5l-.6.1c-1.7.4-3.5.8-5.2 1.1-.6.1-1.3.2-2 .2h-.1c-.6 0-1.2.1-1.8.1h-.4c-2 0-3.6-.1-5.1-.3-.7-.1-1.3-.2-1.8-.4-1-.4-1.8-.9-2.5-1.4-.1-.1-.2-.1-.2-.2-.1-.1-.1-.2-.2-.3-.1-.4-.2-.7-.3-1 0-.5 0-.9.1-1.3.1-.8.3-1.7.6-2.6.1-.3.3-.5.4-.7.1-.1.1-.2.2-.2 1.4-1.6 2.9-3.1 4.8-4.7.9-.8 1.8-1.5 2.8-2.3.7-.5 1.3-1.1 2-1.6l.5-.4.1-.1c.4-.3.8-.6 1.2-.8.6-.4 1.2-.8 1.8-1.1.4-.2.8-.5 1.3-.7l.5-.3 1.2-.6c.2-.1.4-.2.5-.3l2.7-1.2.3-.1.9-.4 3.1-1.4c1 .2 2 .3 2.9.3h.3c.8.1 1.6.1 2.2.1 1.8 0 3.6.1 5.4.1h5.6v-.2zm66-1.4c.4 0 .9-.1 1.4-.2.2 0 .4-.1.6-.1.5-.1.9-.3 1.4-.5.7-.3 1.3-.8 2.1-1.5.2-.1.3-.3.5-.5.2.3.5.5.8.5 1.5.4 3.2.8 4.9 1.3 1.6.5 3.2 1.1 4.6 1.7l.2.1c1.7.7 3.4 1.5 5 2.3.7.3 1.4.7 2.3 1.2.6.3 1.2.7 1.9 1.3.3.2.5.4.7.7.2.3.4.7.7 1.2.1.4.3.9.3 1.4v.8c0 .1-.1.3-.1.4-.1.2-.2.3-.3.5-.7.8-1.4 1.4-2.1 2.1-.6.5-1.2.9-1.7 1.2-.2.1-.3.2-.5.3-.6.4-1.2.8-1.9 1.1-1.2.5-2.4.8-3.8 1.1-1.2.3-2.4.5-3.7.7-1.6.2-3.2.4-4.7.5-1.8.1-3.6.2-5.5.2-2 0-4.1.1-6.9.1H287c-.5 0-1.1 0-1.7-.1-.9-.1-1.9-.3-2.9-.5-.5-.1-.9-.2-1.4-.3-.6-.1-1.3-.3-2-.4-.8-.1-1.7-.2-2.5-.2h-1.2c-.9.1-1.9.3-2.8.5-.3.1-.5.1-.8.2h-1.6c-.3-.1-.6-.1-.8-.2-.1-.1-.2-.1-.3-.2l-.6-.6c-.1-.1-.1-.2-.1-.2-.1-.3-.2-.6-.2-.9-.1-.7-.1-1.5-.1-2.2 0-.7 0-1.5.1-2.4.1-1.4.2-2.6.3-3.8v-.6c0-.2.1-.3.1-.5v-.1c0-.2.1-.4.1-.5 0-.2.1-.4.1-.6.2-1.1.3-2 .4-2.9 0-.3 0-.6.1-.8.2-.1.4-.2.5-.3.2-.2.3-.3.4-.5h.1c.2.1.4.1.6.1.6.1 1.2.3 1.8.4l.4.1c.6.1 1.3.3 2 .3l.4.1c.5.1.9.1 1.4.2h.4c.6 0 1.1.1 1.7.1 1 0 2.2.1 3.3.1h.8c1.3 0 2.6-.1 4.1-.2h.6c1.2-.1 2.4-.2 3.5-.3.7-.1 1.3-.1 1.9-.2h.5c.3-.5.4-.5.5-.5zm27.8-213.1l-.1-.2.4.3.5.3c-.2 0-.4.1-.6.1 0-.1-.1-.3-.2-.5zm-.8-.6c-.1 0-.2-.1-.3-.1h-.1c-.3-.2-.7-.4-1.1-.7-.5-.4-1.1-1-1.6-1.6-.1-.2-.3-.4-.4-.7v-.1c0-.2.1-.3.1-.4 0-.1.1-.1.1-.2h1.1v.3c0 .3.1.5.1.8v.1c.1.3.2.5.3.8.1.3.3.5.5.7l.1.1c.4.2.8.6 1.2 1zm5.4.1l-.1-.1c-.2-.2-.5-.3-.8-.3-.3-.1-.5-.2-.8-.3-.5-.2-1-.5-1.5-.7l-.3-.1c-.6-.3-1.1-.6-1.7-1-.2-.2-.4-.4-.6-.5-.1-.2-.2-.3-.3-.6 0-.1-.1-.2-.1-.3v-.7c0-.1 0-.3.1-.4 0-.1.1-.1.1-.2l.1-.1s.1 0 .1-.1h1.7c.1.2.3.4.5.5.1.1.2.1.3.2.8.7 1.4 1.5 1.9 2.1l1 1c.4.3.8.7 1.3 1 .1.1.3.2.4.3l-.7.2-.7.2c.2 0 .1 0 .1-.1zm-169.6-8.1c.4 0 1-.1 1.5-.2s.9-.3 1.3-.6c.6-.4 1-.8 1.3-1.2.2-.3.4-.6.5-.9l.1-.1c.2-.4.4-.8.6-1.4.2.1.4.2.7.3.6.2 1.3.4 1.9.6h.1c.7.2 1.4.3 2.2.3.2 0 .5 0 .7.1l-.3.7c-.2.5-.4 1-.6 1.4.1 0 .2 0 .3.1-.1.3-.2.6-.4 1-.3.7-.6 1.4-.9 2.2v-.1c-.1.3-.3.7-.4 1-.1.3-.3.5-.5.9l-.3.3s-.1 0-.1.1c-.2.1-.5.1-.7.1h-.1c-.2 0-.4.1-.7.1h-.9c-.1 0-.2-.1-.4-.1v-.3c-.1-.3-.3-.5-.5-.6-.2-.1-.4-.2-.6-.2h-.3c-.2.1-.4.1-.6.2-.1.1-.2.2-.3.2-.1.1-.2.2-.2.3-.2.3-.2.6-.1.9 0 .2.1.3.2.4.4.3.7.5 1.1.8.1 0 .2.1.2.1h.1c.4.1.8.2 1.3.2h.1c.3 0 .6 0 .9-.1.2 0 .5-.1.7-.1h.2v.1c-.2.3-.3.6-.5 1s-.4.8-.5 1.2v.7c-.1.4-.4.7-.7 1-.3.6-.7 1.3-1.2 2-.1.2-.2.3-.4.4l.3-.6.6-1.5h-.4c-.5 0-1-.2-1.3-.6l-.1-.1s0 .1-.1.1l-.1.2-.1.3c-.3.8-.7 1.6-1.2 2.3l-.4.4h-.5c-.3 0-.5.1-.7.2l-.1.1c.3-.4.6-.9 1-1.4.1-.1.1-.2.2-.4s.2-.3.3-.5c.2-.3.4-.6.5-.8l.4-.5c.1-.1.2-.2.3-.4l-.1-.1c-.4-.3-.7-.6-1.1-.8l-.3.3-.1.1c-.2.3-.5.5-.7.8-.3.3-.5.7-.8 1-.2.2-.3.5-.5.7-.3.4-.6.8-1 1.1l-.1.1c-.2.1-.4.1-.6.1-.3 0-.5.1-.8.1h-.6c.4-.2.7-.3 1-.5l1.2-.9.3-.3.1-.1c.4-.3.8-.6 1.1-1 .5-.5.9-1 1.2-1.5.1-.1.1-.3.2-.4-.5-.3-1-.7-1.4-1-.3-.2-.5-.3-.8-.5-.1.1-.2.3-.3.4-.1.2-.2.4-.4.5-.4.5-.8.9-1.2 1.3l-.2.2c-.4.3-.7.7-1.1 1-.5.4-1.1.6-1.6.9-.3.1-.5.2-.8.2h-.6c.3-.3.6-.6.8-.9l.2-.2c.3-.4.6-.8.8-1.2.7-1 1.3-2 2.1-3.3 0-.1.1-.1.1-.2-.1-.1-.2-.1-.3-.2-.6-.4-1.3-.8-1.9-1.1-.1.1-.1.1-.1.2v.1l-.1.2c-.1.2-.3.4-.5.7-.7.8-1.3 1.5-1.9 2.1-.2.2-.4.3-.6.5-.2.1-.3.3-.5.4-.2.2-.4.4-.6.7-.1.1-.1.2-.2.3-.1-.1-.3-.1-.4-.2-.6-.1-1.1-.2-1.7-.2h-.1c-.5-.1-1.1-.2-1.6-.3-.2-.1-.3-.2-.5-.3l-.1-.1c0-.1-.1-.3-.1-.4-.1-.7 0-1.5.1-2.4.1-.8.3-1.5.6-2.3.3-.6.6-1.1.9-1.7l.2-.4c.1-.2.2-.4.4-.6.2-.2.2-.4.4-.6.2-.3.4-.7.6-1l.2-.2c.3-.1.7-.2 1-.2.5 0 1-.1 1.7-.1l.4.1c.3.1.7.2 1 .2.3.1.6.1.9.2.5.1.9.2 1.4.3.7.1 1.4.3 2.2.4h.1c.7.1 1.5.2 2.2.2.2.2.3.2.5.2zm161.9-11.2c1.1 0 2.3-.2 3.1-.4 0 .4.1 1 .2 1.5l.3.9c.2.3.4.6.8.8.2.1.5.2.8.3.7.1 1.3.2 1.8.2s1.1-.1 1.7-.2c.4-.1.8-.2 1.2-.4l.2-.1.5-.2c.7-.2 1.4-.5 2.1-.7.4-.1.7-.2 1.1-.3.3-.1.7-.2 1-.3.6-.2 1.2-.4 1.8-.5h.3c.1 0 .2 0 .2.1.1 0 .1.1.2.1l.1.1c.1.1.2.3.3.4.1.2.2.3.3.5.2.3.5.6.7 1 .1.2.3.4.4.5.5.7 1 1.4 1.3 2.1l.1.2c.4.7.7 1.4 1 2.1l.3.9.1.2c.2.4.2.9.3 1.3.1.5.1.9.1 1.4v.2c-.1.1-.1.2-.2.4l-.3.3c-.4.3-.9.6-1.4.9-.2.1-.3.2-.4.3-.3.2-.7.4-1 .6-.3.2-.6.3-.9.5-.6.4-1.3.8-2 1.2-.7.4-1.4.7-2 .9-.4.2-.8.3-1.2.3h-.5c-.3 0-.6 0-1-.1-.3-.1-.5-.1-.7-.2-.3-.1-.5-.3-.8-.5-.7-.5-1.2-1.1-1.6-1.6-.3-.4-.7-.9-1.1-1.3-.2-.2-.4-.4-.6-.5-.2-.1-.3-.3-.5-.4l.4-.4c.1 0 .2 0 .2.1.3.1.6.3.8.5.2.1.3.3.5.4.2.1.3.3.5.4.4.4.9.7 1.5 1 .3.1.6.2.8.3.2 0 .4 0 .6.1h1c.7 0 1.4-.1 2.1-.3.4-.1.7-.5.7-.9 0-.2-.1-.5-.3-.6-.1-.1-.4-.3-.6-.3h-1.6c-.4 0-.8 0-1.3-.1.2-.1.3-.1.5-.2.3-.2.6-.4.8-.6.2-.2.4-.4.6-.5.3-.2.5-.5.8-.9.2-.3.4-.6.6-1 .1-.1.1-.3.1-.5s-.2-.3-.3-.4c-.1-.1-.2-.1-.3-.1-.2 0-.5.1-.6.3-.2.4-.5.8-.7 1.1-.3.4-.7.7-1.1 1-.3.2-.5.4-.8.5-.4.1-.7.3-1.2.4-.1 0-.1 0-.2.1l-.3-.3-.9-.6-.6-.3c-.2-.1-.4-.2-.6-.2-.2-.1-.4-.1-.6-.1-.2 0-.4 0-.6.1-.4.1-.7.4-1.1.8-.2.2-.4.5-.6.7-.3.1-.6.3-.7.6v.1h-1.6c-.3 0-.5 0-.7.1-.3.1-.6.4-.8.7-.1.1-.1.2-.2.2h-1.6c-.1-.3-.4-.4-.6-.5-.1-.1-.2-.2-.3-.2-.1 0-.1-.1-.2-.1l.1-.1h.5c.3 0 .5 0 .8-.1.4 0 .8-.1 1.2-.2 1.1-.2 2.3-.7 3.7-1.3.4-.2.7-.3 1.1-.5.5-.2.9-.5 1.4-.7.7-.3 1.4-.5 2.1-.8.8-.3 1.6-.6 2.4-1.1.4-.2.6-.8.5-1.2-.1-.5-.6-.8-1.1-.8h-.3c-.4.1-.9.3-1.3.4-.2.1-.5.1-.7.2-.6.2-1.2.4-1.9.6-.8.3-1.5.6-2.1.8-.3.1-.5.3-.8.4-.3.1-.6.3-.9.4-1.2.5-2.1.8-3.1.9-.3 0-.6.1-.9.1h-.1c-.3 0-.5 0-.8-.1-.3 0-.6-.1-.9-.2 0 0-.1 0-.1-.1l-.1-.1c-.1-.1-.2-.2-.2-.4-.1-.3-.2-.6-.3-1-.1-.6-.1-1.3-.1-1.9 0-.3 0-.7-.1-1 0-.6-.1-1.2-.2-1.8 0-.1-.1-.3-.1-.4 0-.1 0-.2-.1-.3 0-.2-.1-.4-.1-.6-.1-.7-.1-1.5-.1-2.3 1.5.2 2.8.3 4.1.3h.9zm-64.5-133c.6 0 1.1-.1 1.7-.1v.6c0 .6 0 1.2-.1 1.8v.8h-.2c-1 0-1.8.1-2.6.1h-1.4c0-.3.1-.5.1-.8.1-.6.1-1.2.2-1.8l.1-.6h2.2zm-8.2 3c-.3 0-.6 0-1-.1 0-.2-.1-.3-.2-.5v-1.7c.1-.2.1-.3.1-.5v-.3c0-.1 0-.2-.1-.3 1.3.1 2.8.2 4.4.3h.2c-.1.5-.1.9-.1 1.4v.4c0 .2-.1.5-.1.7v.7c-1 0-2.1 0-3.2-.1zm12.3-.7v-.8c0-.5 0-1.1.1-1.6v-.2c.2 0 .5 0 .7-.1.9-.1 1.7-.2 2.6-.3-.1.6-.1 1.3-.1 2 0 .3.1.7.2 1.1l-1.8.3h-.4c-.4.1-.9.1-1.3.2v-.6zm-16.4.4h-.6c-.7-.1-1.4-.1-2.1-.2.2-1.1.3-2.3.5-3.4h.4c.3.1.6.1.9.1l.4.1c.3.1.7.1 1 .1h.8c-.3.4-.4 1-.4 1.4v.2c0 .3-.1.6-.1 1 0 .2 0 .5.1.7h-.9zm22.3-1.8c0-.5 0-1.1.1-1.6v-.5c1.3-.3 2.7-.6 4.1-1 .3.9.6 1.8 1 2.7v.1c-.8.2-1.6.4-2.5.7-.8.2-1.7.4-2.6.6 0-.3-.1-.7-.1-1zm-29.2 1c-.4-.1-.8-.1-1.2-.2l-.4-.1-1.2-.3c.1-.4.3-.9.5-1.3.1-.2.1-.4.2-.5.3-.7.5-1.3.8-2 .5.2.9.3 1.3.4l1.2.4c.3.1.6.1.8.2h.1l-.1.5-.3 2.4c0 .2 0 .5-.1.7-.5 0-1.1-.1-1.6-.2zm41.1-6c.7.3 1.5.6 2.3.8-.3.2-.7.4-1.1.6-.3.2-.7.4-1 .6 0-.6-.1-1.3-.2-2zm-5.5 1.5l-.1-.2c.3-.1.6-.2.8-.3.4-.2.9-.3 1.3-.5.5-.2 1-.4 1.4-.7v.3c.1.9.3 1.9.4 2.8l-.3.1-.2.1c-.8.3-1.7.6-2.6.9-.1-.8-.4-1.6-.7-2.5zm-99.6 141.2l-.2-.1c-.2-.1-.3-.1-.5-.2-.1 0-.3-.1-.4-.1h-.1c-.4-.1-.7-.1-1-.1-.8-.1-1.6-.1-2.4-.2-1.2-.2-2.3-.5-3.3-.9-.3-.1-.6-.3-.9-.4 0-.1.1-.3.1-.4v-.1c0-.1.1-.3.1-.4.1-.2.1-.4.2-.7.4-1.7.7-3.2 1-4.6l.3-1.5c.2-1.1.5-2.3.7-3.4.3-1.5.7-3.2 1-5 .1-.7.2-1.5.4-2.2.2-1 .3-1.9.5-2.9.1-.7.2-1.4.4-2.1.2-1.1.4-2.1.5-3.2.3-1.8.6-3.4.8-4.9.1-.8.2-1.7.4-2.5.1-1 .3-1.9.4-2.9.1-.9.3-1.7.4-2.6.1-.9.3-1.8.4-2.6.2-1.6.5-3.2.9-4.9.3-1.6.6-3.2 1-4.8l.1-.6c.3-1.6.7-3.2 1.1-4.8l.1-.3c.4-1.6.8-3.4 1.3-5 .2-.8.4-1.6.7-2.4.3-.9.5-1.8.8-2.7.3-.9.5-1.8.8-2.8.2-.7.4-1.3.6-2 .5-1.9 1.1-3.8 1.4-5.2l.2-.8 1.2-4.2.5-1.6c.4-1.3.7-2.5 1.1-3.8.4-1.5.9-2.9 1.4-4.3.6-1.8 1.2-3.6 1.7-5.5l.2-.6c.2-.6.4-1.3.5-1.9.2-.9.5-1.9.7-2.8l.2-.6c.4-1.4.7-2.8 1.1-4.2.5-1.6 1-3.5 1.6-5.4.3-.8.5-1.7.8-2.5v-.1c.1-.3.2-.6.3-.8.1-.5.3-.9.4-1.4.4-1.3.9-2.5 1.3-3.7.1-.2.1-.4.2-.6.2-.4.3-.9.5-1.3.2-.6.5-1.2.7-1.8l.2-.4c.3-.6.5-1.2.8-1.7l.7-1.3.6-1.3c.4-.7.8-1.5 1.2-2.1.2-.3.4-.7.7-1.1.2-.3.4-.5.6-.8l.2-.2c.2-.3.5-.6.7-.9l.6-.7c.3-.3.7-.7 1.2-1.1.7-.5 1.4-.9 2.1-1.2.2-.1.4-.1.6-.2.2-.1.5-.1.8-.2l1.8-.3c.6-.1 1.3-.1 2.2-.2.6-.1 1.2-.1 1.9-.2l.6-.1 2.4-.3c1-.1 1.9-.3 2.7-.4.8-.2 1.6-.3 2.4-.5.8-.2 1.6-.4 2.4-.7l.2-.1c.1 0 .3-.1.4-.1.2.7.5 1.3.7 1.8.2.5.4.9.7 1.2.4.7 1 1.2 1.6 1.8v.2c0 .2 0 .4.2.7.1.1.2.3.3.4.1.1.2.2.4.3.2.1.3.1.5.1s.3 0 .5-.1c1.1.8 2.5 1.4 4.2 2l.9.3.3.1c.1 0 .2.1.3.1.2.1.5.1.7.2l.4.1c.6.1 1.2.3 1.8.4.8.1 1.6.3 2.4.4 1.7.2 3.3.4 4.9.6 2 .2 3.5.3 4.9.4 1.6.1 3.2.2 4.7.2h2.2c.6 0 1.2 0 1.8-.1h.5c.3 0 .5 0 .8-.1h.7c.2 0 .5 0 .7-.1l.6-.1c.7-.1 1.3-.2 2-.2h.1c.8-.1 1.5-.2 2.3-.3.8-.1 1.6-.3 2.4-.5.6-.1 1.3-.3 2-.5l.4-.1c.6-.1 1.2-.3 1.8-.5l.4-.1.4-.1c.1.2.2.3.4.4.2.1.3.1.5.1h.3c.5-.1.8-.6.8-1.1.6-.2 1.1-.4 1.6-.6.4-.1.8-.3 1.2-.5.2.2.5.4.8.4h.2c.2-.1.4-.2.6-.4.1-.2.2-.4.1-.7.1-.1.3-.1.4-.2.1-.1.2-.1.3-.2.2-.1.5-.3.7-.4l.3-.2c.6-.3 1.3-.8 2-1.3.4-.3.8-.6 1.1-.8l.1-.1c.1-.1.3-.2.4-.3.1 0 .1-.1.2-.1.4.1.8.1 1.2.2l.7.1c.8.1 1.7.2 2.5.3.5 0 1 .1 1.6.1h.4c1.3.1 2.7.1 4.4.2 1.2 0 2.5.1 3.7.2.8.1 1.5.4 2.6.8l.1.1c.4.2.7.3 1.1.5.4.3.7.7 1 1 .4.6.8 1.1 1.1 1.6.2.3.3.6.5.9v.1l.6 1.2c.3.9.6 1.8.8 2.6.2.7.4 1.3.5 2.1.3 1.6.7 3 1.2 4.8.8 3.1 1.3 6.1 1.9 9.2.2 1.2.4 2.4.7 3.6l.2 1.1c.3 1.4.5 2.9.6 4.2.1.9.2 1.9.3 2.8.2 1.8.4 3.7.6 5.6l.1.5c.2 1.3.3 2.6.6 3.9.3 1.5.5 2.7.7 4 .1.9.2 1.7.3 2.6.2 1.7.4 3.5.6 5.2.4 2.9.7 5.8 1.1 8.5v-.2c.5 3.5.9 6.7 1.4 9.8.2 1.6.5 3.1.8 4.7.3 1.5.5 3.1.8 4.6l.1.7c.2 1.4.4 2.8.7 4.2.3 1.7.6 3.4.8 5.1.2 1.1.3 2.1.5 3.2.3 2 .6 4.1.9 6.1.1.7.3 1.4.4 2.1.1.8.3 1.5.4 2.3.3 1.5.5 2.9.7 4.4.1 1.1.3 2.1.4 3.2.1 1.2.3 2.5.4 3.8.2 1.5.4 3 .6 4.2.1.5.2 1 .2 1.5.1.4.1.9.2 1.3 0 .1-.1.1-.1.2-.1.4-.1.9.2 1.2.1.2.3.4.5.5-.6.2-1 .4-1.5.5l-.9.3c-.3.1-.7.1-1 .2-.5.1-1 .1-1.5.1h-1.1c-.8 0-1.7-.1-2.8-.2-1.1-.2-2.2-.4-3.2-.6.2-.5.2-1 0-1.4-.1-.1-.1-.3-.2-.4l-.3-.9v-.1c-.3-.7-.5-1.5-.8-2.2-.3-.9-.6-1.8-.9-2.6l-.6-1.8-.5-1.4-.9-2.7c-.2-.5-.4-1.1-.6-1.6-.3-.9-.7-1.9-1-2.8-.9-2.5-1.7-5.1-2.5-7.6l-.5-1.4c-.2-.7-.4-1.3-.6-2-.3-.9-.6-1.8-.9-2.6l-1.2-3.9-.2-.7-1.5-4.5c-.5-1.4-.9-2.9-1.4-4.5-.5-1.7-1-3.5-1.4-5.3-.3-1.3-.7-2.6-1-3.9l-.6-2.1c-.2-.7-.4-1.5-.6-2.2-.5-1.9-.9-3.4-1.3-4.7-.2-.6-.3-1.2-.5-1.8-.3-.9-.5-1.8-.8-2.7l-.9-3.6-.2-1c-.2-1-.5-2-.8-3.4l-.1-.5c-.1-.4-.2-.8-.2-1.2l-.1-.3-.3-1.8c-.2-1.3-.3-2.7-.5-4.2-.1-1.3-.3-2.7-.5-4.6l-.1-.9c-.2-1.3-.3-2.6-.4-4-.1-1.1-.1-2.2-.2-3.2 0-.4 0-.9-.1-1.3v-.7c-.1-1.1-.1-2.2-.2-3.3 0-.2 0-.4-.1-.7-.1-.6-.1-1.1-.2-1.7l-.1-.5-.3-2.1c-.1-.3-.3-.6-.6-.8-.2-.1-.4-.2-.6-.2h-.3c-.3.1-.6.3-.8.6-.2.3-.2.7-.1 1l.3 2.1v.5c.1 1.4.3 2.8.3 4.3v5c0 1.4.2 2.8.3 4.1v.2c.1.8.2 1.5.2 2.3-.2.1-.3.2-.4.3-.3.3-.4.7-.4 1-.2 2.4-.4 4.8-.6 7.1 0 .5-.1.9-.1 1.4v.2l-.1 1.8-.1 1.7c-.1 1.2-.1 2.4-.1 3.5v1.5c0 1.5-.1 2.9-.1 4.4 0 3.4 0 6.7-.1 10.6v5.4c0 1.4 0 2.8-.1 4.1v.8c0 .6 0 1.1-.1 1.7 0 .3 0 .6-.1.9 0 .6-.1 1.1-.1 1.7-.1 1.9-.2 3.7-.2 5.5v1.6c0 1.1-.1 2.2-.1 3.2v.5c-.1 1.4-.1 2.9-.2 4.3-.1 3.2-.2 6.7-.4 10.1-.2 3.3-.2 6.6-.3 9.8v12.4l-.1.1c-.3.1-.5.3-.6.6 0 0 0 .1-.1.1-.4.4-.8.9-1.2 1.2-.4.3-.8.6-1.3.8-.2.1-.3.2-.5.3-.5.3-1.1.6-1.7.9-1.2.5-2.5.9-3.9 1.3h-.2c-1.3.4-2.6.7-3.9 1-1.7.4-3.3.7-4.8 1-1.1.2-2.2.4-3.2.6l-1 .2-.8.1c-1 .1-2.1.3-3.1.4l-.8.1c-1.3.1-2.7.3-4.1.4h-.6c-1.4.1-2.9.2-4.3.3l-1.4.1-1.4.1h-5.7c-1.8 0-3.6 0-5.4-.1h-.9c-1.1 0-2.3-.1-3.4-.1h-1.2c-1 0-2.1-.1-3.1-.2-.3 0-.7-.1-1-.1l-1.1-.2-1.3-.2c-.6-.1-1.2-.2-1.7-.3-.2-.1-.5-.1-.7-.2-.6-.1-1.2-.3-1.8-.5l-.6-.1c-1.4-.4-3-.8-4.5-1.4 0-.1.1-.2.1-.3 0-.7-.6-1.3-1.3-1.3h-.8c-.3 0-.6.1-.8.1h-.2v-3.8c0-1.2.1-2.5.2-4.1 0-.7.1-1.4.1-2.1.1-2.1.2-4.2.2-6.3v-31.6c.1-1 .1-2 .1-2.9v-1.1c0-.8 0-1.6.1-2.4v-6.2c0-2.7 0-5.5.1-8.4v-1.4c0-.9.1-1.9.1-2.8 0-.9.1-1.9.1-2.8 0-.5.1-.9.1-1.4.1-1.3.2-2.7.3-4v-.2c.1-1 .2-2 .3-3.1l.1-1 .1-1.6c.1-.8.1-1.6.2-2.4.1-1.1.1-2.3.2-3.4v-.7c0-.9.1-1.7.1-2.6 0-.5 0-1.1.1-1.6v-3.9c0-1 .1-2 .1-3v-1c0-.7.1-1.5.1-2.1 0-.5 0-1.1.1-1.6v-2.4c0-.5-.1-1-.1-1.5 0-.2 0-.4-.1-.6v-.1c0-.3-.1-.7-.1-1-.1-.6-.2-1.2-.6-1.6-.3-.3-.7-.5-1-.5-.2 0-.5.1-.8.2-.2-.3-.5-.4-.8-.4-.3 0-.5.1-.8.3-.2.2-.3.4-.3.7.1 2.2.2 4.4.2 6.6l.1 3.8c.1 2.5.1 5.3.2 8.3v.1c-.1.1-.2.2-.2.3-.1.1-.1.3-.2.4l-.3.6c-.1.2-.2.5-.3.7-.2.4-.3.7-.4 1.2-.1.3-.1.6-.1.9v.1c-.2 1.1-.4 2.2-.6 3.2l-.1.7c-.3 1.6-.7 3-1 4.3-.4 1.5-.8 3-1.2 4.4-.5 1.5-.9 2.9-1.4 4.2-.3 1-.7 1.9-1 2.9-.6 1.9-1.3 3.8-2 5.7l-.3.9c-.4 1.1-.8 2.2-1.3 3.3l-.4 1c-.4 1.1-.9 2.2-1.3 3.3-.4 1-.7 1.9-1.1 2.9-.7 1.9-1.4 3.9-2.2 5.9-.4 1.2-.9 2.4-1.4 3.5l-.3.8c-.5 1.3-1 2.6-1.5 3.8l-.1.2c-.2.4-.3.9-.5 1.3-.4.9-.8 1.9-1.1 2.9-.5 1.3-.9 2.7-1.3 4v.1c-1 3.3-1.9 6.1-2.8 8.8-1 2.9-1.8 5.3-2.5 7.5l-.2.7c-.3 1-.7 2-1.1 3-.5 1.2-1 2.5-1.4 3.5-.5 1.2-1.1 2.4-1.7 3.7l-.3.6c-.1.1-.1.2-.2.3 0 .1-.1.2-.1.2-.1.2-.2.4-.3.5l-.2.3c-.5.7-.9 1.5-1.4 2.2v.1c-.5.1-.6.1-.8 0zm58-138.3c-.7-.3-1.4-.7-2.1-1.1l.2-.4c.1-.3.2-.5.3-.8.5-1.1 1-2.2 1.5-3.2.4.3.8.6 1.3 1 .4.3.8.6 1.4.8-.2.4-.4.9-.5 1.3l-.1.3c-.1.2-.2.4-.2.6 0 .1-.1.2-.1.3-.1.2-.1.4-.2.6l-.2.6c0 .1 0 .2-.1.2-.4.1-.8 0-1.2-.2zm-4.5-3.2c-.3-.5-.7-1-1-1.7-.1-.3-.2-.7-.3-1 .4-.2.8-.4 1.3-.7.4-.3.8-.6 1.1-.8l.2-.1c.3-.2.6-.5.9-.7 0 .1.1.1.1.2.1.2.2.4.4.6l-.1.1c-.7 1.5-1.3 2.8-1.8 4l-.3.6c-.2-.1-.3-.3-.5-.5zm9.6-19.2c0 .4-.1.9-.1 1.3v.1c-.1.6-.3 1.3-.4 2-.1.5-.3 1.1-.6 1.8l-.1.2-.1.1c-.2.4-.4.7-.6 1-.5.6-1.1 1.2-1.6 1.7l-.1.1c-.3.3-.7.6-1.1 1-.8.6-1.6 1.3-2.5 2.1l-.2.1c-.7.5-1.3 1-2 1.5-.5.3-.9.6-1.3.8-.5.3-1 .5-1.5.7-.8.3-1.4.5-2.1.7-.2.1-.5.1-.7.2l-.2.1h-.1c-.3.1-.5.2-.8.2-1.3.3-2.7.6-4.1.8-1.3.2-2.7.3-4 .4l-.9.3h-.8c-1.4.1-2.9.3-4.3.5-.9.2-1.6.3-2.3.6-1.1.5-2.1 1-2.9 1.7-.9.7-1.7 1.5-2.6 2.7l-.2.2c-.5.6-1 1.3-1.4 2-.5.8-.9 1.6-1.4 2.4-.3.5-.5.9-.7 1.4-.1.2-.2.5-.4.7-.4.7-.8 1.5-1.3 2.6-.3.5-.5 1.1-.7 1.7-.1.2-.2.4-.3.7-.3.7-.6 1.4-1 2.4l-.3.7c-.2.6-.4 1.2-.6 1.7-.7 1.8-1.3 3.6-1.7 5-.7 2-1.2 3.6-1.6 5.1-.6 1.9-1.1 3.5-1.5 5.1-.1.5-.3 1-.4 1.5-.3 1.2-.7 2.5-1 3.7-.5 1.6-1 3.2-1.7 5.2-.5 1.6-1.1 3.3-1.6 4.9-.4 1.2-.7 2.3-1.1 3.5-.1.5-.3 1-.4 1.5-.6 2-1.2 4.1-1.7 6.1l-1.2 4.2c-.5 1.7-1 3.5-1.5 5.2-.2.5-.3 1.1-.5 1.6v.7c-.1.4-.2.8-.4 1.2-.1.4-.2.8-.3 1.1-.9 3.4-1.8 6.9-2.6 10.5-.8 3.7-1.4 7-2 10.1-.1.4-.1.9-.2 1.3s-.1.8-.2 1.2c-.1.5-.1.9-.2 1.4-.1.4-.2.9-.2 1.4-.2 1-.3 2.1-.5 3.1l-.3 1.8v.3c-.2 1.6-.5 3.3-.8 5-.2 1-.4 2.1-.5 3.1-.1.6-.2 1.2-.3 1.9-.3 1.6-.5 3.2-.8 5.2-.3 1.6-.6 3.3-.9 5.1-.1.5-.2 1.1-.3 1.6-.2.7-.3 1.4-.4 2.1l-.2 1.1c-.2.7-.3 1.5-.5 2.2v.1c-.2 1.1-.5 2.1-.7 3.2-.1.3-.1.5-.2.8-.1.2-.1.4-.2.6 0 .2-.1.4-.1.7-.1.3 0 .4 0 .7v.2c.2.4.4.8.7 1.1h.2c.2.1.5.3.7.4-.1.2-.2.5-.3.7v.1c-.2.4-.5.9-.7 1.3-.1.1-.2.2-.4.3-.2.2-.5.3-.8.5-.1 0-.3.1-.4.1H157c-.5 0-.9-.1-1.3-.1h-.4l-.5-.1c-1.3-.2-2.7-.5-4-.8-.8-.2-1.6-.4-2.5-.5 0 .1 0 .2-.1.3h-2.5c-.9 0-1.6.3-2.1.8-.5.4-.9 1-1.2 1.5v.1c-.2.3-.5.7-.7 1-.1.2-.3.4-.4.6-.3.5-.7 1-1 1.6-.3.7-.6 1.4-.8 2.1-.2.7-.3 1.5-.4 2.2-.1.6-.1 1.2-.1 1.9 0 .4.1.7.1 1 .1.4.3.8.4 1 .3.5.7.9 1.2 1.2.2.1.3.2.5.3l.6.3.1.1c.3.1.6.2 1 .2h.6l1.2.6c.5.2 1 .4 1.7.6.6.2 1.2.3 1.9.4.3 0 .5.1.8.1.1.3.2.4.4.6.9.4 2 .7 3 .7h.1c.3 0 .7 0 1-.1h.3c.2.2.4.3.6.4.1.1.3.1.4.2.3.1.5.1.8.2h.8c.1.1.3.2.5.2.5.1 1.1.2 1.6.2h.7c.3 0 .6-.1.9-.1h.4c.2.2.4.4.7.4h.3c.2 0 .4-.1.7-.2.5-.2 1-.6 1.4-.9.3-.2.5-.4.7-.5.2-.2.3-.4.4-.5v-.1c.1-.2.3-.4.4-.7.3-.6.5-1.2.7-1.8.1-.3.2-.6.3-.8v-.1l.1-.2c.5-1 .9-2.1 1.2-3.2.3-1.1.5-2.3.7-3.3.1-.6.2-1.1.3-1.7.1-.4.2-.9.4-1.3 0-.1.1-.3.1-.4.1-.3.1-.5.2-.8.1-.3.1-.5.2-.8.1-.4.2-.8.4-1.1.1-.2.1-.4.2-.6v-.1l.2-.6h.6c.6 0 1.1-.4 1.3-.9.2.1.3.1.5.1.4 0 .8-.2 1-.6.8-1.2 1.8-2.7 2.6-4.3.7-1.4 1.4-2.8 2.1-4.3l.3-.6c.6-1.2 1.1-2.5 1.6-3.8.5-1.2.9-2.4 1.4-3.5l.3-.7c1.1-3 2.1-5.8 3-8.4.2-.6.4-1.3.6-1.9.3-.9.6-1.7.9-2.6.2-.6.4-1.3.6-1.9.2-.7.5-1.5.7-2.2.4-1.2.9-2.6 1.6-4.1.2-.6.5-1.1.7-1.7.3-.8.7-1.6 1-2.5.3-.7.6-1.4.8-2.1.9-2.1 1.7-4.2 2.5-6.3l.6-1.6c.8-2.3 1.7-4.7 2.6-7.1.9-2.4 2.2-5.6 3.3-8.8l.9-2.7c.2-.5.3-1 .5-1.5.1-.4.3-.8.4-1.3.3-.9.6-1.9.9-2.8l.2-.8c.4-1.2.8-2.4 1.1-3.6.1-.2.1-.4.2-.6v.2c0 .6-.1 1.1-.2 1.7-.1.8-.2 1.7-.2 2.5-.1 1.7-.2 3-.2 4.2 0 .7-.1 1.5-.1 2.2 0 .7 0 1.3-.1 2-.1 1.6-.1 2.9-.1 4.1v12.8c0 .8 0 1.6-.1 2.4v1.7c-.1 2.2-.3 4.5-.5 6.7-.1.6-.1 1.3-.2 1.9-.1.9-.1 1.9-.1 2.8v1.2c-.1 1.3-.1 2.7-.2 4.1l-.3 4.5c-.1 1.2-.1 2.4-.1 3.5v.4c0 .9 0 1.8-.1 2.8-.1 1.8-.1 3.7-.1 5.6v4.3c0 .5 0 1.1-.1 1.6v.4c0 .7 0 1.4-.1 2.1v3.9c0 1.7.3 3 .9 4.1-.2.2-.4.5-.4.9-.1 1.5-.1 3.1-.1 4.6v5.9c0 .4 0 .8.1 1.1.1.6.1 1.2.2 1.8.1.6.1 1.1.2 1.7.2 2 .2 4.1.3 6.1v.6c0 2.5.1 5.1.2 7.6 0 .7.1 1.4.1 2.1 0 .3 0 .7.1 1l.1 1.2c0 .8.1 1.6.1 2.4.1 1.3.1 2.5.2 3.8.1 1.2.1 2.4.2 3.5v4.4c0 .8.1 1.6.1 2.4l.1 1.3.3 6.3.1 2.4.3 4.8c.1 2 .2 4.3.3 6.6 0 1.6.1 3.3.1 4.9.1 3.1.2 6.3.3 9.5 0 1.5.1 3 .1 4.5.1 3.3.2 6.8.4 10.1.1 1.7.2 3.3.3 5 0 .7.1 1.5.1 2.2.1 1.6.1 3.2.2 4.7 0 .7.1 1.4.1 2.2 0 .7.1 1.3.1 2 .1 1.5.1 3.1.2 4.6l.3 6.9v.5c0 1 .1 2.1.1 3.1.1 1.5.1 2.9.2 4.4.1 1.3.1 2.5.2 3.7.1.9.1 1.9.2 2.8.2 2.8.3 5 .4 7.4.1 2 .1 4 .1 5.9v1.3c0 2.2 0 4.7.1 7.1 0 1.3.1 2.7.1 4 0 1 .1 1.9.1 2.9 0 1.1.1 2.1.1 3.2 0 1.3.1 2.5.1 3.8v.8c0 .9.1 1.8.1 2.7.1 1.1.1 2.1.2 3.2v.4c0 .5.1 1 .1 1.5s.1 1.1.1 1.6l.3 3.9c.2 2.4.3 4.8.4 6.9l.3 4.5c-.1 0-.3 0-.4.1-.3.1-.6.3-.9.5-.3.3-.5.5-.6.7-.3.5-.5 1-.6 1.6-.1.5-.2 1-.3 1.4l-.1.3c-.1.4-.1.7-.2 1.1-.1.5-.1.9-.2 1.4-.2 1.2-.6 2.4-.9 3.6-.1.4-.2.7-.3 1.1l-.1.3c-.1.3-.2.5-.2.8-.1.5-.2 1.1-.3 1.7-.1.6.1 1.1.2 1.5.1.4.4.9.7 1.4.1.2.3.4.5.6l.2.2-2.1.9-.5.2c-1.4.6-2.9 1.3-4.3 2.1-.7.4-1.4.8-2.2 1.3-.6.4-1.3.8-1.8 1.3l-.2.2c-.6.4-1.1.9-1.7 1.3-.2.2-.4.3-.6.5-.6.4-1.2.9-1.9 1.5-.5.4-.9.7-1.4 1.1l-.7.6c-.4.4-.9.8-1.3 1.1l-.5.5c-.5.5-1.1 1.1-1.7 1.8-.3.3-.5.6-.8.9-.4.5-.8 1-1.1 1.5-.4.7-.6 1.5-.9 2.6-.1.6-.2 1.1-.3 1.6 0 .3-.1.8-.1 1.2 0 .7.1 1.4.4 2.1.1.3.2.6.4.9.2.4.4.8.8 1.1.3.3.7.6 1.2.9.2.1.5.3.7.4 1.2.7 2.2 1.1 3.3 1.4 1.1.2 2.2.3 3.4.4.8 0 1.6.1 2.4.1h1.4c1.4 0 2.5-.1 3.5-.2.9-.1 1.9-.3 2.8-.5.8-.2 1.6-.3 2.4-.5.4-.1.9-.2 1.3-.3.3-.1.7-.2 1-.2.9-.2 1.7-.4 2.6-.6 2.1-.5 4.1-1 5.9-1.5.5-.1 1-.3 1.6-.5.5-.1 1-.3 1.5-.4 1-.3 1.9-.5 2.9-.7h.6c.8 0 1.6.1 2.3.2.3 0 .6.1.8.2.9.2 1.8.2 2.7.2h.2c.8 0 1.7 0 2.4-.1.8 0 1.7-.1 2.4-.2.9-.1 1.8-.2 2.6-.5 1.1-.4 2-1.2 2.6-2.2.4-.6.6-1.3.9-2l.1-.4c.5-1.3 1-2.7 1.5-4.4l.1-.4c.2-.6.3-1.2.5-1.7.2-.8.3-1.5.5-2.3l.3-1.5c.2-.9.4-1.8.5-2.7.1-.7.2-1.5.2-2.3.1-.8 0-1.6 0-2.2 0-.8-.2-1.5-.3-2.3-.1-.3-.1-.6-.3-.9-.1-.4-.3-.9-.6-1.3-.1-.2-.3-.4-.6-.6-.2-.1-.5-.2-.8-.2h-.1c-.1-.4-.1-.8-.3-1.3-.1-.5-.2-.9-.3-1.5-.1-.7-.2-1.4-.3-2l-.1-.6c-.1-1-.2-2-.2-2.9 0-.5 0-1-.1-1.5-.1-.6-.1-1.4-.3-2.1l.1-1.2c0-.8.1-1.6.1-2.5.1-1.8.2-3.7.3-5.5.2-4.1.5-8.2.8-11.6.1-1 .2-2 .2-3 .1-.8.1-1.6.2-2.4l.1-1.4c.1-1.4.2-2.8.4-4.2.3-4.1.6-7.9.8-11.4l.1-1.1c.1-1.4.2-2.9.3-4.4 0-.3 0-.7.1-1 0-.6.1-1.3.1-1.9v-.8c0-.6 0-1.3.1-1.9.1-3.5.3-7.1.5-10.5l.1-1.1c.1-1.5.2-3 .2-4.5l.1-.9c0-.7.1-1.5.1-2.2.1-1.2.1-2.5.2-3.7.1-2 .3-4 .4-6.1.1-1.9.2-3.7.4-5.6l.2-2.7.2-2.8c0-.6.1-1.2.1-1.8v-1.8c0-.5.1-1.1.1-1.6v-1.4c0-1.4.1-2.9.1-4.4v-6.2c0-4.3-.1-8.1-.1-11.7 0-1.5-.1-3-.1-4.5v-1.3c0-.5 0-1.1-.1-1.6v-1.5c0-.6 0-1.3-.1-2v-.4c-.1-1.7-.2-3.5-.4-5.3-.2-2-.4-4-.5-6.1-.1-.7-.1-1.4-.1-2.1v-5.1c.1.2.1.4.2.7.3.9.5 1.9.7 2.8l.1.5c.2.6.3 1.2.4 1.8.2.8.3 1.7.5 2.5v.1l.1.6c.1.6.1 1.1.2 1.7 0 .3 0 .6.1.9 0 .6.1 1.3.2 1.9 0 .3.1.7.1 1 .1.6.1 1.3.2 1.9 0 .3.1.6.1.9.1.6.2 1.2.2 1.8.2 1.7.4 3.7.5 5.7.2 2 .3 4 .5 5.9.3 3.5.7 7.1 1.2 11.2l.3 2.1c.1 1 .3 2 .4 3 .2 1.6.4 3.3.6 5.4.2 2.2.4 4.2.6 6.2.2 1.7.4 3.5.6 5.2v.3c.2 2 .6 3.9.9 5.8.3 2 .6 3.9 1 5.9.6 3.6 1.2 7.3 2 11.2.3 1.8.7 3.6 1 5.4.2 1.1.5 2.2.7 3.3.1.6.2 1.1.4 1.7l.2.9c.5 2.3 1 4.7 1.4 7.1.1.5.2.9.2 1.4.2.9.3 1.8.5 2.7l.2 1.3c.1 1 .3 2 .4 3l.3 2.4.3 2.7c0 .3.1.7.1 1 .1.7.2 1.5.3 2.2l.2 1.6.2 1.6c.2 1.5.4 3 .7 4.5.3 2 .6 4 .9 6.1.3 1.7.5 3.4.8 5l.1.8c.4 2.1.7 4.2.9 5.9l.3 2c.3 2 .5 4 .8 6 .3 3 .7 5.7 1 8.4v.1h-.2c-.3.1-.6.2-.8.4-.3.2-.5.5-.6.9-.1.3-.1.6 0 .9-.1.1-.2.2-.3.4-.2.4-.3.9-.3 1.3v.9c0 .8-.1 1.6-.2 2.3-.1.7-.2 1.4-.4 2.2-.1.4-.1.7-.2 1.1v.1c0 .2-.1.4-.1.6v.4c0 .2 0 .3-.1.5-.1.9-.2 1.7-.2 2.6-.1 1.7-.2 3.4-.1 5.2.1.9.2 2.1.8 3 .3.4.6.7 1 1.2.4.4.9.8 1.7 1.1.4.1.7.2 1 .3.6.1 1.3.2 1.8.2s1.1-.1 1.6-.1c.2 0 .5-.1.7-.1l1.8-.3c.4 0 .9-.1 1.3-.1.6 0 1.2 0 1.8.1.6.1 1.1.2 1.7.3l.5.1 1.8.3.5.1h.2c.8.2 1.7.3 2.6.4h2.3c3.6 0 7.1 0 10.6-.1s7-.4 10.4-.9c1.7-.3 3.4-.7 4.7-1 .9-.2 2.1-.6 3.2-1.1.7-.3 1.4-.8 2.2-1.3.7-.5 1.6-1.1 2.4-1.7.6-.5 1.2-1.1 1.8-1.7.5-.5.8-1 1.1-1.6.1-.2.2-.4.3-.7.1-.3.1-.7.2-.9v-.9c0-.5-.1-.9-.2-1.4v-.1c-.1-.7-.4-1.3-.7-2-.5-.9-1-1.6-1.5-2.1-.3-.3-.6-.5-.9-.8l-.1-.1c-.3-.2-.7-.5-1-.7-.6-.4-1.3-.8-2-1.2l-2.2-1.1c-1.4-.7-2.8-1.3-4-1.8-1.6-.7-3.1-1.3-4.6-1.8-1.7-.6-3.5-1-5.3-1.4l-.5-.1h-.5c0-.2.1-.4.1-.7.1-.8.2-1.5.1-2.2-.1-.5-.1-.8-.2-1.2l-.3-.9v-.1c-.2-.7-.5-1.3-.9-2s-.7-1.4-1-2c-.1-.1-.1-.3-.2-.4l-.1-.1c-.2-1.2-.3-2.5-.4-3.7l-.1-1.1c-.1-1-.3-2-.4-3-.2-1.2-.3-2.3-.4-3.5-.5-3.9-.9-7.9-1.2-11.7l-.3-2.9c-.6-5.6-1-10.1-1.3-14.3-.1-1-.2-2-.2-2.9 0-.4-.1-.8-.1-1.2-.1-.8-.1-1.7-.2-2.5-.2-2.8-.3-5.3-.4-7.6v-.5c-.2-4.4-.4-9-.7-13.5-.2-2.4-.3-4.8-.5-7.2-.1-1.6-.2-3.1-.3-4.7l-.2-2.4c-.2-2.2-.3-4.5-.4-6.6-.1-2.3-.3-4.8-.4-7.2-.2-2.6-.4-5.3-.6-7.9l-.6-6.6c-.1-.8-.1-1.5-.2-2.3-.1-1.5-.3-3-.4-4.5v-.4c-.2-2.3-.4-4.5-.5-6.8-.4-4.8-.8-9.9-1.3-15.4-.1-.9-.2-1.9-.3-2.8 0-.4-.1-.8-.1-1.2-.1-.8-.2-1.6-.2-2.3 0-.6-.1-1.2-.1-1.8-.1-1.7-.3-3.4-.3-5.1-.3-5.3-.5-10.5-.6-15.4-.1-1.6-.1-3.2-.1-4.8-.1-2.8-.1-5.7-.3-8.5-.1-3-.3-6-.4-8.9l-.3-6.3c-.1-1.3-.1-2.7-.2-4 0-.7 0-1.4-.1-2.1v-7.5c0-.3-.1-.6-.3-.8.1-.1.1-.3.1-.4.1-.4.1-.7.1-1.1v-8.8c0-3.2 0-6.5.1-9.7 0-1.8.1-3.4.2-4.8.1-1.3.1-2.7.2-3.9v-1c.1-2 .1-4 .2-5.9 0-1.3.1-2.7.1-4 0-1.2.1-2.4.1-3.7.1-2 .1-4.1.2-6.1.1-1.9.2-3.7.2-5.4v-28.6c0-.9.1-1.7.1-2.7 0 .2.1.4.1.6.6 3.2 1.4 6.3 2.2 9.3.3.9.5 1.9.8 2.8.2.5.3 1.1.5 1.6.3.9.5 1.8.8 2.7.1.5.3 1 .4 1.6l.4 1.6c.3 1.1.6 2.1.9 3.2.3 1.3.7 2.5 1 3.8l.2.9c.9 3.6 1.7 6.4 2.6 9 .5 1.6 1 3.2 1.5 4.7.4 1.4.9 2.7 1.3 4.1.9 2.8 1.8 5.5 2.7 8.3l.3.8c.5 1.5 1 3.1 1.5 4.6.3.8.5 1.5.8 2.3.2.6.4 1.3.7 1.9l.5 1.4c.6 1.7 1.2 3.4 1.7 5.1.3.9.6 1.9 1 2.9.2.5.4 1 .6 1.6.1.2.2.5.3.7 0 .1.1.1.1.2s.1.2.1.3c0 .3.1.6.2.8.1.2.2.3.4.4 0 .1-.1.1-.1.2-.1.4 0 .9.2 1.3s.6.6.9.7c.4.1.8.2 1.2.2v2c0 .8.1 1.7.2 2.5.1 1 .1 2 .1 2.9v.9c0 .7.1 1.5.3 2.2.1.3.2.7.4 1.1.1.1.1.3.2.4.1.2.2.3.4.5.1.2.3.3.5.4l.2.1c.1.1.2.1.4.2v.6l.3.9c.2.3.5.6.7.9l.4.4.2.1c-.1.1-.1.3-.2.4-.1.1-.2.2-.2.3 0 .1 0 .1.1.2-.1.7.2 1.3.6 2 .2.4.5.8.8 1.2l.2.2c.2.3.4.5.6.8.2.3.5.5.7.7.2.2.4.3.6.4-.1.2-.2.5-.1.8.1.3.2.5.5.6.2.1.3.1.5.1h.3l.7-.1c1.7-.3 3.4-.6 5-1.2h.2c1.1-.4 2.2-.7 3.3-1.1h.1c.4-.1.9-.3 1.3-.4.3-.1.6-.2.8-.3.3 0 .5-.1.8-.1.6-.1 1.1-.3 1.6-.5 1-.4 1.9-.9 2.9-1.4.4-.2.8-.5 1.2-.7.4-.3.9-.5 1.3-.8.8-.5 1.7-1 2.6-1.6.2-.2.5-.3.7-.5.2-.2.4-.5.6-.7l.1-.1c.2-.3.3-.6.4-.9.1-.3.1-.6.1-.9v-1.4c-.1-.7-.2-1.3-.3-1.7-.4-1.1-.8-2-1.3-2.9-.1-.1-.2-.3-.2-.4-.2-.3-.3-.6-.5-.9-.2-.4-.5-.8-.8-1.2-.4-.6-.8-1.1-1.3-1.6-.2-.2-.4-.4-.5-.6-.1-.1-.2-.2-.2-.3-.2-.3-.4-.6-.7-.9-.2-.3-.5-.5-.7-.5-.2-.1-.4-.2-.8-.3-.3-.1-.5-.1-.8-.1h-.2c-.2 0-.5 0-.7.1h-.2c-.4.1-.9.2-1.4.3-.4.1-.7.2-1.1.3-.6.2-1.1.3-1.7.5-.3.1-.5.2-.8.3-.2.1-.3.1-.5.2s-.5.2-.7.2c-.2.1-.5.2-.7.2-.6.2-1 .3-1.5.4h-.7c-.4 0-.7 0-1.2-.1h-.2c-.2-.6-.4-1.2-.5-1.6.3-.1.5-.2.8-.3h.1c.4-.2.9-.4 1.3-.6.2-.2.5-.3.7-.6l.1-.1c.2-.3.4-.5.5-.9.1-.3.1-.5 0-.8-.1-.2-.2-.5-.4-.6-.1-.1-.3-.2-.4-.3.2-.3.3-.7.2-1.2 0-.3-.1-.5-.1-.8v-.3c-.1-.4-.1-.8-.2-1.2l-.1-.5c-.1-.9-.3-1.9-.4-2.8l-.1-.4c-.2-1.3-.3-2.6-.5-3.9-.2-1.9-.5-4-.7-5.9-.2-1.6-.5-3.2-.8-4.6-.3-1.8-.6-3.3-.9-4.8-.3-1.9-.6-3.9-.9-5.8-.2-1.3-.4-2.5-.6-3.8-.1-1-.3-2-.5-3l-.3-1.5c-.1-.7-.2-1.5-.4-2.2-.2-.9-.3-1.9-.5-2.8-.3-1.8-.6-3.7-1-5.5l-.3-2c-.4-2.1-.7-4.2-1-6.2l-.1-.9v.4c-.3-2-.5-3.9-.8-5.8v.2l-.9-7.5-.2-2.1c-.1-.4-.1-.9-.2-1.3-.1-1.2-.3-2.5-.5-3.7-.1-.8-.3-1.6-.4-2.4-.1-.7-.3-1.5-.4-2.3-.1-.6-.2-1.3-.3-1.9v-.1c-.2-1.8-.4-3.2-.5-4.5-.1-1.4-.3-3.2-.6-5.1-.4-2.7-.9-5.5-1.4-8.2l-.2-1.2c-.6-3.5-1.3-6.6-2-9.5l-.2-.6c-.1-.5-.3-1-.4-1.5l-.3-1.2-.3-1.2c-.2-.8-.4-1.5-.5-2.1-.1-.4-.3-.8-.4-1.2-.2-.7-.6-1.4-.9-2.1v-.1c-.8-1.7-1.7-3-2.7-4.1-.5-.5-1-.9-1.5-1.2-.3-.1-.5-.3-.8-.4l-.2-.1c-.7-.3-1.5-.6-2.1-.8-.8-.2-1.5-.4-2.4-.5-.8-.1-1.5-.1-2.3-.1-.6 0-1.2 0-1.8-.1-1 0-2-.1-2.9-.1h-.9c-.5 0-1-.1-1.5-.1-.7-.1-1.4-.1-2.1-.2l-.3-.1c-.7-.1-1.3-.2-2-.4-.7-.1-1.4-.3-2.2-.5-.7-.2-1.5-.4-2.3-.7-.8-.3-1.5-.6-2.2-.8-.8-.4-1.5-.7-2.2-1.1-.7-.4-1.4-.9-2.2-1.4-.4-.3-.9-.8-1.4-1.2-.6-.6-1.1-1.1-1.6-1.7-.5-.5-1-1.1-1.4-1.7-.2-.2-.4-.5-.6-.7-.2-.2-.4-.5-.6-.7-.5-.6-.8-1.3-1.1-1.9-.3-.7-.6-1.3-.9-2l-.2-.4c-.2-.4-.3-.8-.5-1.3-.1-.3-.3-.6-.6-.8-.2-.1-.4-.2-.7-.2h-.3c-.3.1-.6.3-.8.6-.2.3-.3.7-.1 1 .2.6.4 1.1.7 1.7.4.9.7 1.8 1.1 2.8.2.7.5 1.3.9 2 .4.6.8 1.1 1.2 1.7l.1.2c.4.5.8 1.1 1.2 1.6.3.4.7.8 1 1.1l.5.5c.9 1 2.1 2 3.7 3-.3.1-.6.2-1 .4-1.1.4-2.2.7-3 .9-2.2.6-4.4 1-6.2 1.4h.1-.3c-.5.1-1 .1-1.5.2-.8.1-1.7.2-2.5.2-.9.1-1.7.1-2.6.2h-3.4c-2.6 0-5.3-.1-8.5-.4-.5 0-.9-.1-1.4-.2h-.2c-2.7-.5-5-.9-7.4-1.8-.8-.4-1.6-.8-2.2-1.2-.7-.5-1.2-1.1-1.7-1.7-.2-.3-.4-.5-.5-.8-.1-.2-.1-.4-.2-.6l.1-.1c1.2-1 2.1-1.9 2.9-2.7l.1-.1c.9-.9 1.7-1.8 2.2-3 .6-1.3.8-1.9 1-2.5v-.2c.1-.5.2-1.1.3-1.7l.1-.3.3-2.4c0-.2-.1-.4-.2-.5-.1-.2-.4-.3-.6-.3-.4.1-.7.4-.7.8z"/><path d="M159.7 359.253l.2.1c-.1 0-.1 0-.2-.1m-9.6-7c-.3.1-.6.2-.8.3-.3.2-.5.5-.7.7-.1.2-.3.4-.4.5-.1.1-.2.3-.3.4l-.1.1s-.1 0-.1.1c-.1 0-.2.1-.3.1-.9.1-1.8.1-2.8.2-.4 0-.8.3-.8.8 0 .4.4.8.8.8.6 0 1.1-.1 1.7-.1.5 0 .9 0 1.4-.1.2 0 .4-.1.7-.1.2-.1.3-.1.4-.2.2-.1.4-.3.6-.5.1-.2.3-.3.4-.5l.4-.4c.1 0 .2 0 .2-.1h.5v.3c-.1.2-.2.4-.4.6l-.4.4c-.3.3-.3.8-.1 1.1.1.2.3.4.6.4.2.1.5 0 .7-.1.3-.2.6-.4.8-.7.2-.1.3-.3.4-.5.2-.2.3-.5.4-.8.2-.6.2-1.3-.1-1.9-.1-.3-.3-.5-.6-.7-.2-.1-.4-.2-.7-.3-.2-.1-.5-.1-.8-.1-.2.3-.4.3-.6.3z"/><path d="M154.9 353.753c-.2.1-.4.2-.6.2-.2.1-.5.1-.7.2-.5.1-1 .3-1.5.4-.1 0-.2 0-.3.1-.4.1-.6.5-.5.9.1.4.5.6.9.5.6-.2 1.1-.3 1.7-.5.3-.1.7-.2 1-.3v.2c0 .3-.1.5-.2.7-.3.8-.8 1.5-1.3 2.2-.1.2-.3.3-.5.5-.3.2-.6.4-1 .6-.4.2-.5.6-.4 1 .1.5.6.7 1.1.6.7-.2 1.4-.4 2-.9.4-.3.7-.7 1-1.2.2-.4.4-.7.6-1.1.2-.4.4-.9.5-1.3.2-.5.2-1.1.1-1.7-.1-.4-.2-.8-.5-1.1-.3-.2-.6-.3-.9-.3-.1.2-.3.2-.5.3"/><path d="M157.1 356.353c-.6.4-1.1.8-1.7 1.2-.2.1-.3.2-.3.4-.1.2 0 .4.1.6.2.3.7.5 1 .3.3-.2.7-.5 1-.7 0 .1-.1.2-.1.3v-.1c-.2.4-.3.7-.5 1.1-.1.2-.2.3-.3.4 0 .1-.1.1-.1.2-.1.1-.1.2-.2.3l.1-.1c-.2.2-.3.4-.3.7 0 .2.1.5.3.7.2.2.4.3.7.3h.2c.1 0 .3-.1.4-.2.5-.4 1-.9 1.3-1.5.3-.6.5-1.2.6-1.8.1-.5.1-1-.1-1.5-.2-.4-.5-.6-1-.7h-.1c-.4-.2-.7 0-1 .1"/><path d="M159 357.953c-.4.1-.8.2-1.2.4-.5.2-.9.7-.7 1.3.1.5.7.9 1.3.7.2-.1.4-.1.6-.2v1.3c0 .4.2.7.5.9.4.2.9.2 1.3-.2.8-.7.6-1.8.5-2.8 0-.2-.1-.3-.1-.5-.1-.3-.2-.5-.4-.7-.2-.2-.6-.3-.9-.4h-.1c-.4.1-.6.1-.8.2"/><path d="M163.2 355.153c-.1.1-.2.3-.3.4l-.3.6c-.1.3-.2.6-.4.9-.1.3-.3.6-.4.8-.1.2-.2.4-.4.6-.4.5-1 .9-1.5 1.4-.3.2-.2.7 0 .9.1.1.3.2.4.2.1 0 .2 0 .3-.1-.1.2-.3.3-.4.5-.2.2-.3.4-.3.6 0 .2.1.5.3.6.3.3.9.3 1.3 0 .3-.3.6-.6.8-.9.3-.3.5-.7.8-1 .4-.7.7-1.4 1-2.1.2-.4.3-.8.4-1.2 0-.3.1-.5.1-.8 0-.2 0-.5-.1-.7-.1-.3-.2-.6-.5-.8-.1-.1-.3-.1-.4-.1h-.1s-.2.1-.3.2"/><path d="M167.7 345.653c-.1.3-.2.7-.3 1-.1.3-.1.6-.2.8-.2.6-.3 1.2-.5 1.8l-.6 1.8c-.2.5-.3 1.1-.6 1.6-.2.4-.3.7-.5 1h-.4c-.3 0-.7-.1-1-.1-.6-.1-1.1-.2-1.6-.4l-1.5-.6-1.2-.6-.6-.3c-.4-.2-.8-.4-1.3-.3-.2 0-.3.1-.4.2l-.2.2c-.3 0-.6.1-.8.4-.2.4-.1.9.3 1.1.8.4 1.7.8 2.5 1.2.4.2.7.3 1.1.5.4.2.7.4 1.1.5l.9.3c.2 0 .4.1.6.1.4.1.8.1 1.2.1h.5c.3 0 .5 0 .8-.1.5-.1.9-.3 1.2-.6.2-.1.3-.4.4-.5.1-.1.1-.2.1-.2.1-.2.2-.5.3-.8.2-.6.4-1.1.5-1.7.2-.6.3-1.2.5-1.8.2-.6.3-1.2.4-1.8.1-.3.1-.6.2-.9.1-.3.1-.7.1-1v.2c0-.3.1-.6.1-.9 0-.3-.2-.6-.5-.6h-.2c0-.1-.3.1-.4.4m76.5-97.6c-.5 1.5-1 3.1-1.5 4.6-.1.4-.3.9-.4 1.3-.3.8-.7 1.7-.8 2.6 0 .4.3.8.7.9h.5c.1.1.3.2.5.3.6.2 1.1-.2 1.3-.7.4-1.3.9-2.6 1.4-3.9.2-.6.4-1.2.6-1.9.1-.3.2-.5.3-.8l.3-.9c.1-.3 0-.6-.1-.8-.2-.4-.7-.6-1.2-.5 0-.4-.3-.7-.6-.8h-.2c-.3 0-.7.2-.8.6"/></g></g></svg>