<svg width="500" height="600" xmlns="http://www.w3.org/2000/svg"><g fill="none" fill-rule="evenodd"><path d="M263.272 185.866a73.844 73.844 0 002.232 3.543c1.264 1.862 3.337 4.593 6.22 8.193-1.657 3.9-8.897 6.4-21.719 7.496-12.822 1.096-20.52-1.402-23.095-7.496 3.769-1.594 6.252-3.26 7.449-4.998.911-1.323 1.73-3.636 2.459-6.939.113-.512 6.552 2.425 12.964 2.43 6.552.006 13.084-2.908 13.49-2.229z" fill="#EEDDC5"/><path d="M229.738 197.466c-14.554.659-22.294 1.349-23.22 2.07-.926.721-6.943 10.74-18.053 30.057l-18.057 29.458h29.665L210 244.195l-2 99.77c-4.248 2.023.129 3.035 13.13 3.035 19.501 0 59.83-.867 61.143-5.217.876-2.899 1.314-20.4 1.314-52.501 13.839-1.73 20.758-3.825 20.758-6.282 0-1.991 2.87-17.04 3.992-51 .174-5.301-.302-14.674-1.431-28.118l-28.626-5.694c-5.714 3.86-14.032 5.969-24.956 6.325-10.924.355-18.786-1.994-23.586-7.047z" fill="#BDC59A"/><path d="M137.21 228.597l50.41-3.447 12.453 33.9 40.578 13.547c-1.705 4.478-3.574 6.717-5.604 6.717-2.031 0-10.41 1.59-25.14 4.767L155 277.511l-17.79-48.914z" fill="#D8D8D8"/><path d="M166.727 277.51l20.893 1.804c-1.747 2.333-3.074 3.561-3.983 3.686-.909.125-1.757-.805-2.546-2.79-1.72 1.734-3.04 2.663-3.962 2.79-.921.127-1.896-.488-2.923-1.844-1.376.787-2.451 1.234-3.226 1.34-.775.107-1.726-.061-2.854-.505-.759-.734-1.225-1.38-1.4-1.938-.174-.558-.174-1.405 0-2.543zM255.53 267l-10.79-5.511c-3.548 1.293-6.117 1.987-7.708 2.082-7.066.424-11.259-.712-11.259 0 0 1.429-1.74 1.804 0 2.929.748.483 2.949 2.718 7.227 2.89 1.573.063 4.573-.525 9-1.765-.123 3.579-1.114 6.362-2.975 8.35-1.516 1.62-6.336 2.009-11.251 4.969-1.114.671-2.899 2.672-2 4.018.598.898 2.436 1.314 5.512 1.247 1.109.709 2.013 1.063 2.714 1.063.7 0 1.711-.354 3.032-1.063.86.642 1.645.996 2.358 1.063.713.067 1.75-.117 3.11-.55 1.119.128 2.12-.043 3.006-.513.885-.47 2.216-1.54 3.994-3.209 2.026.799 3.283.655 3.77-.43.278-.619 3.233-1.892 3.685-5.191.226-1.651-.25-5.11-1.426-10.379z" fill="#EEDDC5"/><path d="M239.53 551.276l2.014 21.587c-7.568-.34-12.955-.34-16.161 0-9.128.967-16.165 3.416-20.993 3.815-2.142.177-8.511.632-10.516.6-3.265-.051-4.33-1.523-3.193-4.415.894-5.453 3.022-9.406 6.385-11.86 3.364-2.452 10.73-5.954 22.101-10.505l20.363.778zm38.162 9.978l17.557-7.45c17.52 21.464 21.267 34.869 11.244 40.215-10.024 5.345-19.624-5.576-28.801-32.765z" fill="#866653"/><g fill="#161616"><path d="M154.262 274.258c.007.083.01.167.007.25-.006.23-.08.484-.118.713a1.202 1.202 0 01-.151.297l.063.15.14.332.759-1.086-.09-.157-.419-.757-.19.258M242 250.135l.032.022.311-.157-.343.135m-70.233-2.585a6.943 6.943 0 00-.91.797 12.93 12.93 0 00-1.001 1.103c-.189.235-.363.486-.549.75l-.145.208c0 .002-.006.008-.007.008a13.98 13.98 0 01-.492-.257l-.074-.038c-.145-.076-.29-.152-.436-.225-.35-.173-.65-.307-.974-.384-.122-.029-.241-.05-.365-.072l-.068-.012a4.998 4.998 0 00-.913-.118c-.245 0-.475.092-.648.173a2.016 2.016 0 00-.416.295c-.1.081-.18.199-.257.32l-.061.091a2.317 2.317 0 00-.234.526 5.302 5.302 0 00-.174.672c-.084.443-.045.807.123 1.146.048.097.103.189.16.276.078.199.16.39.251.58.131.27.327.5.519.723l.034.041c.134.158.29.298.482.463l.087.076a13.62 13.62 0 00.92.738c.183.133.403.222.65.319.412.16.862.195 1.31.23l.068.005c.14.011.279.016.416.016.338 0 .684-.029 1.056-.087.078-.023.154-.051.252-.097.156-.067.308-.132.46-.2.112-.053.223-.106.335-.162l.1-.05c.367-.185.688-.447.984-.697.24-.2.438-.471.635-.741l.09-.126c.503-.685.95-1.31 1.316-2.007.169-.322.304-.67.44-1.012l.015-.04c.148-.39.197-.804.24-1.267a2.923 2.923 0 00-.154-1.267c-.18-.484-.457-.823-.874-1.066a1.396 1.396 0 00-.709-.181c-.62 0-1.193.344-1.482.55"/><path d="M235.14 551.817l-.084-.007a7.29 7.29 0 00.352-.283c.37-.311.732-.66 1.082-1.035.131-.051.259-.107.387-.165-.057.11-.111.223-.172.334-.084.161-.185.31-.263.421-.101.114-.21.22-.324.322a4.721 4.721 0 01-.553.31c-.109.038-.22.074-.333.107l-.092-.004zm.59-5.645l.03-.04c.084-.109.163-.318.213-.558.154-.119.3-.253.445-.383l.114-.104c.271-.243.541-.536.829-.897-.041.357-.077.714-.115 1.071-.05.316-.116.688-.242 1.052a4.09 4.09 0 01-.285.494 1.48 1.48 0 00-.228-.089c-.18-.055-.483-.148-.703-.148-.026 0-.05 0-.074.003l-.358.045c.14-.134.254-.286.375-.446zm6.132-22.526l-.005-.051.044-.503c.051-.588.062-1.18.07-1.734v.355l.014.62c.017.84.023 1.746.015 2.845l-.138-1.532zm-1.927-51.674l-.009-.087c.045-.611.09-1.221.137-1.832l-.007 3.165c-.04-.416-.082-.831-.12-1.246zM183.41 281.587c-.25-.045-.49-.11-.73-.2a2.768 2.768 0 01-.19-.102 1.698 1.698 0 01-.153-.162 3.991 3.991 0 01-.164-.259l1.442.178 1.486.175c-.039.02-.076.044-.116.066l-.069-.005c-.223 0-.432.1-.574.27-.074.018-.15.036-.227.05a3.83 3.83 0 01-.265.01c-.147 0-.293-.008-.44-.021zm-8.36-.759c.15-.28.225-.527.236-.775.192.026.39.048.587.072l3.374.399c-.087.091-.158.174-.232.256-.286.314-.539.56-.797.772a3.5 3.5 0 01-.504.292c-.15.052-.299.093-.45.12a4.194 4.194 0 01-.624.022 2.41 2.41 0 01-.366-.105 4.522 4.522 0 01-.704-.396 4.702 4.702 0 01-.527-.563l-.032-.037.003.002.035-.059zm-5.023-.073a5.756 5.756 0 01-1.052-.259 4.232 4.232 0 01-.47-.284.646.646 0 01-.048-.043 3.571 3.571 0 01-.11-.201 10.845 10.845 0 01-.221-.654c1.518.15 3.042.299 4.565.458-.063.057-.128.117-.195.176a7.21 7.21 0 01-1.052.66c-.18.062-.366.114-.566.156a4.975 4.975 0 01-.851-.01zm38.66-5.87a1.82 1.82 0 00-.35-.125 1.554 1.554 0 01-.133-.044 3.706 3.706 0 00-.163-.291l-.027-.036h.003v-.04c.05-.361-.095-.698-.235-1.022a8.664 8.664 0 01-.083-.199l-.04-.104-.041-.104.059-.05c.122-.057.242-.117.361-.179l.68.397-.034.015-.034.022a.719.719 0 00-.326.798.742.742 0 00.681.526c.065 0 .13-.01.19-.033.323-.114.655-.25 1.048-.427l.228.142.253.153a7.337 7.337 0 00-.832.263c-.317.124-.565.268-.74.569a1.127 1.127 0 00-.085.179.81.81 0 00-.38-.41zm3.765-1.926c.254-.114.509-.237.764-.362l.224.144c.329.206.656.413.985.616-.304.066-.611.135-.916.206l-.105.024c-.279-.2-.59-.404-.952-.628zm-2.31-1.361l.555-.284.249-.13.61.383.242.15c-.301.126-.57.241-.839.357a75.14 75.14 0 00-.816-.476zm5.395 1.011l-.324-.195-.37-.224-.365-.22c.444-.213.89-.43 1.34-.642a.538.538 0 00.215-.185l.176.093.185.093.59.297c.566.286 1.132.571 1.7.848l-.22.016-.221.023c-.51.055-1.05.118-1.58.249-.204.051-.404.105-.605.162a38.304 38.304 0 00-.52-.315zm-2.91-1.76l-.494-.298c.349-.18.698-.365 1.048-.55a.823.823 0 00.223-.173l1.164.585-.744.35-.747.359-.45-.272zm-5.967-.631l-.077-.226-.065-.192.1-.059.715-.444.127-.08.099-.063.1-.062.277.18c.382.245.765.489 1.148.732l-.06.026-.06.031-.783.409-.17-.101-.188-.108a1.004 1.004 0 00-.5-.134 1.03 1.03 0 00-.623.21c-.012-.04-.027-.08-.04-.12zm33.763.492l-.119-.04c-.732-.248-1.47-.48-2.208-.714-.356-.113-.71-.224-1.064-.338l.767-.174c.233-.054.467-.108.699-.167.313-.077.625-.163.939-.25l.55-.15.474-.129c.343-.094.687-.19 1.032-.274a9.01 9.01 0 01.202-.047l-.102.227-.022.05c-.382.78-.717 1.444-1.033 2.047l-.115-.04zm-30.882-1.759l-.704-.439-.109-.067-.04-.024.35-.224.348-.23c.042-.028.083-.06.12-.093l.64.323 1.217.612c-.37.189-.744.386-1.117.58l-.705-.438zm-3.648-1.02l-.074-.22c.1.125.223.235.328.325l-.091.053-.09.059-.073-.217zm49.903 14.083c.503-.636.867-1.189 1.142-1.74.348-.694.578-1.3.723-1.91.106-.445.161-.9.219-1.402.084-.744.14-1.37.141-2.007a74.831 74.831 0 00-.03-2.254 13.258 13.258 0 00-.068-.947l-.045-.509c-.06-.769-.18-1.532-.306-2.31-.057-.353-.12-.753-.236-1.137l-.02-.062c.053-.015.115-.018.176-.021.42-.018.837-.038 1.252-.06.14-.006.28-.018.42-.03.03.115.077.225.14.323.017.057.032.114.047.173.11.443.202.854.282 1.258.176 1.496.18 2.964.163 4.202-.023 1.49-.054 2.834-.216 4.19a7.56 7.56 0 01-.259 1.122c-.077.247-.164.49-.256.732a6.005 6.005 0 01-.499.884 7.512 7.512 0 01-.391.458 5.684 5.684 0 01-.546.509c-.436.29-.88.536-1.35.752-.275.111-.6.237-.947.332l-.036.01c.187-.184.35-.366.5-.556zm-50.457-15.74l-.11-.324-.06-.176-.04-.117c.875.452 1.757.9 2.64 1.345-.216.135-.433.274-.648.413-.045-.035-.095-.071-.143-.107a3.875 3.875 0 01-.236-.198.526.526 0 00-.046-.429c-.063-.106-.19-.23-.324-.249-.154-.023-.31-.042-.464-.063-.035-.005-.048-.005-.06-.005-.164 0-.321.118-.402.229l-.107-.319zm31.673-1.74a17.513 17.513 0 002.72-.445c.4-.098.83-.21 1.249-.371.462-.177.923-.374 1.395-.578.316-.128.74-.288 1.199-.382a5.106 5.106 0 01.49-.006c.108.022.211.051.316.085.135.071.264.15.394.244.18.16.35.338.512.51l.168.176.177.18c.195.2.39.399.576.607l.24.272c.288.334.59.678.932.974a6.13 6.13 0 001.392.881c.235.11.485.212.741.303l.037.011c.06.31.28.547.555.603l.2.042c.314.066.628.133.945.185l.197.03a2.73 2.73 0 00.913.316l.075.01c.208.028.424.058.636.058l.096-.003c.258-.01.562-.03.858-.097.138-.032.283-.068.424-.113.035.348.226.641.534.823.087.051.182.089.28.113.014.085.029.174.042.264l.026.188.024.18c.152 1.2.203 2.518.16 4.027-.012.44-.04.878-.065 1.316l-.008.119a12.18 12.18 0 01-.1.931c-.142.798-.283 1.513-.543 2.207a9.637 9.637 0 01-.988 1.644c-.172.2-.357.397-.567.603-.015-.003-.033-.003-.052-.003a1.08 1.08 0 00-.202.02l-.253.041c-.675.086-1.344.152-2.013.218l-.166.017a.98.98 0 00-.248-.428.979.979 0 00-.942-.25 1.672 1.672 0 00-.802.481 8.97 8.97 0 00-.246.275l-.081.093c-.246.277-.51.533-.758.773a29.813 29.813 0 01-1.701 1.557c-.28.206-.56.408-.84.61-.267.19-.555.392-.858.563l-.226.127c-.236.136-.471.27-.717.39-.51.249-1.014.492-1.532.716-.722.287-1.285.457-1.829.551a3.997 3.997 0 01-.55.01l-.127-.03a36.156 36.156 0 001.96-1.257c.457-.32.947-.7 1.497-1.154a44.994 44.994 0 002.42-2.143c.492-.471.974-1.05 1.472-1.767l.11-.158c.417-.598.85-1.216.994-1.934.097-.47-.08-.9-.457-1.122a.998.998 0 00-.505-.135.976.976 0 00-.705.292c-.243.254-.44.548-.63.83-.055.083-.11.164-.167.245-.185.269-.378.532-.571.796l-.104.142c-.297.372-.535.645-.771.889-.342.35-.698.674-1 .946a46.416 46.416 0 01-2.251 1.92c-1.615 1.22-3.102 2.15-4.548 2.846a10.76 10.76 0 01-1.881.516 3.3 3.3 0 00.298-.133c.4-.195.828-.41 1.253-.649.403-.227.787-.474 1.177-.728.416-.272.83-.58 1.27-.943.296-.245.574-.528.842-.8l.128-.13c.623-.63 1.158-1.339 1.675-2.025.46-.615.917-1.232 1.37-1.854l.11-.15c.174-.236.355-.48.519-.733.19-.29.351-.598.508-.897l.126-.238c.176-.33.357-.655.54-.978l.082-.143.18-.32c.072-.132.153-.287.192-.425.025-.081.04-.161.055-.24l.013-.072c.08-.396-.012-.736-.264-.988a1.084 1.084 0 00-.73-.309.735.735 0 00-.26.047l-.064.025a1.736 1.736 0 00-.455.229l-.072.055c-.111.084-.159.119-.244.227a4.896 4.896 0 00-.262.35c-.104.15-.205.303-.308.455l-.119.176c-.177.266-.343.539-.509.812-.14.232-.281.463-.43.69-.254.387-.541.762-.819 1.123l-.17.224c-.18.235-.354.472-.528.71-.148.199-.296.4-.445.598l-.087.115-.156.2c-.36.46-.768.98-1.221 1.454-.265.274-.533.546-.806.815a7.95 7.95 0 01-.588.508 19.663 19.663 0 01-3.618 2.118c-.3.117-.603.23-.91.336-.377.133-.813.28-1.252.362-.137.01-.272.015-.41.015-.406 0-.807-.039-1.144-.078a7.17 7.17 0 01-1.285-.305 2.272 2.272 0 01-.2-.115l-.055-.05.001-.16c.038-.191.094-.388.17-.6a2.5 2.5 0 01.066-.119c.048-.05.1-.1.156-.147.154-.102.321-.194.542-.299a33.76 33.76 0 011.954-.695c.288-.096.577-.193.864-.293.293-.1.59-.193.887-.284.188-.059.376-.117.563-.179l.086-.027.057-.02.446-.079.443-.08.79-.14.403-.071a.88.88 0 00.161.121.967.967 0 00.493.133.926.926 0 00.086.004c.447 0 .8-.318.97-.508.165-.183.33-.366.488-.557.164-.194.334-.383.506-.572.17-.19.342-.379.508-.576.26-.309.527-.66.837-1.105.115-.164.235-.326.356-.487.123-.164.246-.326.361-.493.454-.65.87-1.336 1.273-2.002l.193-.318c.427-.703.801-1.453 1.165-2.177l.283-.563c.315-.617.62-1.242.919-1.867.392-.816.733-1.659 1.045-2.447.089-.223.015-.52-.09-.7a.92.92 0 00-.787-.452 1.814 1.814 0 00-.206-.146c-.24-.14-.515-.16-.755-.16h-.05c-.385.005-.765.068-1.217.161-.6.124-1.203.268-1.789.408l-.426.1c-.39.092-.778.18-1.17.256-.378.072-.77.147-1.15.246l-.118.031c-.324.085-.66.173-.995.24-.323.063-.648.115-.974.161a12.603 12.603 0 01-1.572.055c-.28-.008-.56-.023-.837-.044-.77-.28-1.566-.575-2.428-.898a1.658 1.658 0 01-1.746-.523l-.24.032a1.637 1.637 0 01-1.639-1.634c0-.391.157-.902.478-1.156l.092-.072c.172-.15.318-.336.533-.431.4-.176.51-.225.946-.257l.077-.003c.17 0 .347.04.505.062.08.012.16.028.238.046.094.023.185.042.274.08.167.067.377.119.526.234.292.224.402.308.592.551l.149.018-.047-.01.145.024c.408.057.817.113 1.223.164a58.99 58.99 0 011.624.26c.298.05.597.1.896.148.538.087 1.03.137 1.51.15l.223.002c.425 0 .854-.032 1.254-.066zm-26.46 12.398c.291-.1.577-.215.863-.33.234-.094.467-.188.704-.274a24.13 24.13 0 011.651-.524c.363-.101.725-.201 1.088-.3l.767-.212c.248-.068.495-.142.744-.217.576-.171 1.175-.35 1.782-.453.8-.104 1.63-.202 2.469-.29.32-.033.64-.062.96-.089l.207-.02.195-.014c.162-.014.324-.026.485-.047l.47-.059a4.57 4.57 0 00.367-.054c.184-.031.333-.16.466-.273a.894.894 0 00.31-.66c.013-.304-.1-.61-.304-.815-.252-.255-.604-.371-.945-.482l-.141-.048a16.567 16.567 0 01-.818-.302c-1.591-.682-3.175-1.454-4.705-2.202-.583-.284-1.166-.57-1.75-.85a457.09 457.09 0 01-6.638-3.257 482.663 482.663 0 01-4.61-2.333l-.027-.083c-.302-.896-.603-1.795-.908-2.691l.035-.038c.718.28 1.425.574 2.135.864.239.098.477.198.716.299.476.2.968.408 1.459.589l1.233.456c1.02.377 2.041.754 3.061 1.134 1.95.729 3.895 1.474 5.84 2.219 1.125.431 2.25.86 3.377 1.289l.63.24c1.254.476 2.508.953 3.758 1.444l1.03.407c.993.393 2.02.799 3.039 1.174l1.883.696c.886.327 1.772.655 2.658.98.994.363 2.016.695 3.006 1.014.411.134.822.267 1.232.402.234.076.467.155.7.233-.166.252-.337.506-.505.761l-.17.252a41.23 41.23 0 01-1.066 1.56l.002-.002c-.157.203-.306.398-.452.593-.12.155-.24.313-.36.472-1.26.18-2.52.371-3.78.565a29.53 29.53 0 00-1.26.23c-.213.042-.425.084-.638.123-.54.102-1.076.22-1.613.34l-.168.035c-2.188.486-4.427.92-6.592 1.339l-1.02.198c-1.485.29-2.973.565-4.46.841a676.66 676.66 0 00-3.052.57 44.59 44.59 0 01-1.547.252l-.124.018h-.045a2.289 2.289 0 00-.47.07 1.563 1.563 0 00-.616-.392 1.058 1.058 0 00-.053-.272c-.464-1.407-1.086-2.74-1.575-3.744l-.249-.508.104-.036.11-.042c.229.2.512.31.792.31.115 0 .226-.019.333-.056zm-4.41-18.408a7.723 7.723 0 01-.711-.227l-.162-.057-.22-.074c-.2-.068-.402-.135-.595-.218l-.304-.121c-.358-.143-.73-.292-1.05-.505.175-.251.336-.523.491-.787.074-.125.148-.251.223-.374.327-.542.645-1.088.958-1.638l.404-.707c.44-.777.881-1.552 1.335-2.32a84.37 84.37 0 011.855-2.975c-.042.547-.08 1.096-.118 1.645l-.04.544c-.088 1.278-.102 2.58-.116 3.84l-.003.27c-.006.557-.007 1.117-.009 1.674v.332l-.001.265a27.1 27.1 0 00.028 1.634l.02.326a74.24 74.24 0 00-1.222-.499 3.653 3.653 0 01-.345.022c-.144 0-.285-.016-.418-.05zm-62.175-30.502c.19 0 .381-.012.572-.024l.1-.006c.066-.005.132-.01.199-.012l1.021-.048 1.073-.053c.778-.037 1.49-.081 2.173-.135 2.028-.156 4.054-.311 6.082-.455l.776-.054 2.32-.165c.679-.047 1.37-.078 2.047-.108.325-.016.649-.03.976-.047l1.476-.072.738-.036.761-.038c2.542-.119 5.42-.255 8.24-.472l1.727-.13 1.672-.128c.694-.053 1.389-.119 2.088-.185.323-.031.647-.063.973-.093a294.8 294.8 0 015.322-.414l.214-.017a177.859 177.859 0 012.622-.168l.207-.012.006.006c.303.757.622 1.568.907 2.375-.076.164-.15.34-.199.52a1.62 1.62 0 00.405 1.542c.143.153.34.276.571.36l.035.12.158.516c.197.63.446 1.245.693 1.855a364.454 364.454 0 013.261 8.353c.291.77.585 1.542.88 2.31l.016.042.026.068c.7 1.827 1.422 3.716 2.069 5.596a309.9 309.9 0 001.21 3.414l.041.12c.573 1.592 1.129 3.15 1.65 4.705.289.862.58 1.726.872 2.59.64 1.904 1.28 3.805 1.904 5.712.271.827.546 1.653.821 2.48.217.652.434 1.303.648 1.957l.224.679a94.076 94.076 0 001.022 3.007.346.346 0 00-.017.051c-.092.341-.016.62.124.933.304.673.596 1.35.889 2.03l.048.112.085.2.096.22.095.235.257.65c.1.367.199.691.303.992.208.593.423 1.186.645 1.805l.085.23h-.003l.003.009c-.732-.095-1.467-.182-2.204-.267l-.566-.067c-1.53-.178-2.942-.343-4.32-.523l-.944-.12.102.016.033.012.039.006-.038-.006.038.015-1.95-.274-1.043-.145-2.135-.296a159.387 159.387 0 00-3.436-.435l-1.247-.15a1011.7 1011.7 0 00-10.426-1.22l-1.502-.17-.09-.011c-2.388-.272-5.094-.58-7.703-.826l-.85-.081c-1.37-.131-2.784-.266-4.182-.361l-.386-.027-.207-.015a324.58 324.58 0 00-4.492-.281l-.37-.02a492.62 492.62 0 00-3.749-.198l-.1-.186-.023-.05c-.05-.106-.098-.211-.145-.32l-.108-.246c-.058-.129-.113-.258-.169-.389l-.196-.46-.271-.636-.005-.031-.006-.016v.01l.005.022-.006-.018v.02l-.027-.083-.013-.05-.007-.015.004.021.018.05-.015-.033.008.037-.433-1.078-.39-.95c-.212-.509-.409-1.026-.608-1.544-.102-.267-.203-.536-.309-.804a180.84 180.84 0 01-1.087-2.878l-.095-.255-.131-.358-.075-.204-.53-1.437-.516-1.393-.1-.271-.05-.134a43.835 43.835 0 00-.386-1.03c-.19-.485-.381-.968-.573-1.452a213.51 213.51 0 01-1.158-2.962l-.032-.082c-1.059-2.772-2.154-5.638-3.198-8.52a824.85 824.85 0 00-1.767-4.833c-.155-.42-.313-.84-.47-1.258l-.193-.516-.076-.201c-.28-.743-.56-1.486-.832-2.23-.234-.636-.47-1.27-.708-1.905l-.191-.514a39.556 39.556 0 00-.58-1.5l-.142-.34-.142-.34a55.654 55.654 0 00-.656-1.544l-.28-.625c-.228-.506-.455-1.012-.69-1.514l-.49-1.048-.155-.334a6.876 6.876 0 00-.22-.422l-.008-.03-.01-.018c.001 0 .003 0 .005.002l-.002-.008c.039.014.084.018.128.024l.074.018c.156.038.317.075.473.075l.132-.006.097-.006c.177-.006.362-.036.548-.066l.08-.012.149-.024c.235-.033.469-.076.702-.12l.148-.028c.49-.09.983-.173 1.476-.256l.462-.078.588-.098.1-.016.51.006.516.006.51.006h.06zm109.543-18.595l-.007-.102a1051.26 1051.26 0 00-.179-3.545c.82-.031 1.644-.052 2.466-.078l.416-.012c.622-.02 1.244-.039 1.865-.068l-.041.248c-.08.556-.162 1.13-.194 1.695-.035.62-.07 1.263.037 1.886a.163.163 0 00-.028-.002h-.033l-1.585.088-.05.003c-.495.027-1 .03-1.488.033l-.4.003c-.258.001-.516.008-.772.014l-.007-.163zm-6.415-.046a68.6 68.6 0 01-1.23-.07c.165-1.231.323-2.466.477-3.702l.203.027.186.021c.656.074 1.333.092 1.986.11l.107.003a62.133 62.133 0 002.563.018l.063.928c.045.86.093 1.749.166 2.62l.01.121.01.118a524.998 524.998 0 01-4.54-.194zm13.257-.332l.04-.302c.107-.793.216-1.585.321-2.378.012-.093.026-.185.04-.276.014-.12.03-.242.047-.362 0-.109-.011-.215-.036-.317a91.2 91.2 0 001.861-.205.99.99 0 00-.029.275c.021.528.047 1.139.096 1.738.026.311.071.626.135.91.057.256.138.507.244.744l-.78.11-1.403.204c-.184.018-.367.036-.551.052l.015-.193zm-17.811.015c-.426-.03-.851-.072-1.276-.116l-.14-.013-.616-.057a92.478 92.478 0 01-.917-.089l.01-.06.006-.065c.092-.644.172-1.29.252-1.936l.134-1.106c.036-.292.07-.585.093-.878.006-.077.01-.155.008-.231.464.127.955.243 1.497.355a47.8 47.8 0 002.777.487.719.719 0 00-.019.173l-.102.828c-.098.786-.199 1.6-.28 2.402l-.043.4.002.013c-.462-.037-.923-.073-1.386-.107zm22.68-.795c-.005-.123-.002-.249 0-.375l.002-.203c0-.209-.006-.42-.013-.628l-.024-.778-.024-.8a1.387 1.387 0 00-.158-.597 1.79 1.79 0 00.17-.021 59.663 59.663 0 004.536-.888c.133-.031.268-.064.402-.097 0 .036.004.073.012.11l.065.37c.069.392.14.796.229 1.188.12.526.245.992.537 1.396-.578.173-1.158.35-1.741.521a45.12 45.12 0 01-3.944.98 4.901 4.901 0 01-.048-.178zm6.843-1.956a8.325 8.325 0 01-.3-1.146 61.198 61.198 0 01-.217-1.168l-.068-.379a.541.541 0 00-.036-.113 64.436 64.436 0 002.789-.917c-.05.174-.05.37-.005.607.083.446.177.919.347 1.388.13.359.289.694.483 1.024-.605.218-1.118.395-1.612.55-.433.138-.867.276-1.301.411a.975.975 0 00-.08-.257zM236 208.134c-.827-.218-1.704-.521-2.758-.958-.27-.119-.54-.24-.806-.37.044-.126.09-.255.133-.385.057-.166.114-.333.167-.498l.147-.452.15-.46.11-.335c.28-.847.56-1.694.842-2.541.392.193.795.374 1.194.553l.228.1c.62.281 1.26.547 1.95.816a1.201 1.201 0 00.3 1.155 9.764 9.764 0 01-.045.395l-.02.152c-.078.539-.152 1.048-.22 1.557l-.022.156c-.063.457-.128.929-.147 1.394-.433-.088-.826-.18-1.203-.279zm-17.355-6.623c.217-.009.432-.02.649-.03.41-.02.82-.042 1.231-.052.714-.02 1.317-.04 1.93-.078.9-.053 1.77-.131 2.583-.233.063.715.249 1.452.547 2.188.18.442.386.83.624 1.192.248.375.557.769.97 1.24l.063.072c.463.528.94 1.073 1.472 1.55.465.42.925.826 1.423 1.202.314.236.675.42 1.026.6l.157.08c.52.268 1.066.496 1.597.719l.037.015c.983.407 1.89.72 2.775.958 1.067.287 2.227.5 3.447.63 1.404.154 3.035.328 4.641.465.06.141.131.26.237.365a.89.89 0 00.623.257.89.89 0 00.623-.257.805.805 0 00.165-.233 120.054 120.054 0 004.98.3c.187.01.374.018.56.03.33.016.66.034.992.041.025.113.059.229.1.343.087.244.213.408.399.516a.864.864 0 00.67.088.875.875 0 00.628-.95l.606.002c.345 0 .69-.002 1.035-.005.494 0 .995-.028 1.48-.055l.51-.029c1.785-.09 3.224-.22 4.526-.406l.692-.091c.523-.068 1.062-.137 1.585-.237l2.404-.468.075-.015c.518-.099 1.04-.231 1.544-.359.26-.064.518-.13.778-.192.199-.046.394-.108.59-.168l.274-.084 1.037-.3.289-.086c.491-.143.978-.298 1.465-.45l.45-.144.479-.148c.525-.163 1.07-.332 1.596-.52a65.735 65.735 0 002.254-.838 66.355 66.355 0 002.448-1.044c.6-.266 1.184-.589 1.725-.899.081.113.185.203.31.278a1.162 1.162 0 00.886.115c.297-.08.566-.3.72-.585a1.04 1.04 0 00.084-.826 6.167 6.167 0 01-.05-.156l.041-.026.044-.028a11.005 11.005 0 001.676-1.316c.275-.267.508-.563.743-.87.33-.405.647-.793.96-1.183 2.071.34 4.173.712 6.148 1.065a94.55 94.55 0 003.015.477l.933.138c.72.11 1.448.24 2.153.364.518.092 1.036.185 1.556.269.62.102 1.253.186 1.88.248.226.022.453.036.68.05.228.013.454.026.68.047.223.043.453.104.687.185.047.026.095.052.142.08l.086.09a6.1 6.1 0 01.417.78c.15.388.274.758.375 1.134.13.479.209.973.27 1.394l.171 1.584c.072.688.145 1.376.225 2.063.173 1.506.227 3.005.256 4.142.013.549.02 1.098.027 1.647.009.755.02 1.51.045 2.266.059 1.686.094 3.072.109 4.364.005.439-.008.886-.02 1.32l-.012.477c-.017.714-.032 1.43-.042 2.145-.014.881-.021 1.763-.03 2.643l-.017 1.65c-.015 1.317-.1 2.669-.173 3.863-.097 1.57-.195 3.01-.297 4.404-.131 1.772-.205 3.58-.279 5.328-.037.91-.075 1.82-.12 2.73l-.054 1.099c-.116 2.354-.237 4.787-.437 7.176-.075.902-.15 1.803-.223 2.706l-.107 1.316c-.076.922-.17 1.861-.264 2.767l-.125 1.235a54.64 54.64 0 01-.072.686c-.044.406-.087.811-.117 1.22-.053.698-.11 1.395-.172 2.09-.05.54-.107 1.08-.166 1.617-.077.724-.157 1.47-.216 2.21-.119 1.5-.284 3.023-.445 4.495l-.015.14a82.09 82.09 0 01-.091.787c-.056.487-.113.975-.157 1.465a63.579 63.579 0 01-.201 1.954 54.857 54.857 0 01-.159.969 6.801 6.801 0 00-.03.24 5.12 5.12 0 01-.193.164c-.593.446-1.263.787-1.911 1.116-.223.112-.445.227-.664.344-.742.396-1.533.776-2.35 1.127a18.11 18.11 0 01-1.323.507c-.44.141-.901.245-1.345.344l-.3.066c-1.115.25-2.127.439-3.094.579-1.028.103-2.245.22-3.486.299-.308.02-.616.042-.925.064-.86.062-1.75.125-2.624.141-.213.005-.424.006-.636.006-.735 0-1.484-.022-2.207-.043l-.82-.024c-1.342-.035-2.37-.096-3.335-.203l-.672-.102a67.86 67.86 0 00-.953-.143 127.4 127.4 0 00-2.296-.291l-.098-.012c-.694-.094-1.413-.191-2.104-.35-.81-.187-1.64-.341-2.442-.491l-.08-.015c-1.579-.298-3.102-.872-4.251-1.339-.383-.171-.758-.356-1.134-.54a42.635 42.635 0 00-.68-.331l-.325-.156a37.648 37.648 0 00-.506-.24 11.197 11.197 0 00-.836-.355c-.17-.062-.344-.08-.526-.1l-.079-.01.041-.063.094-.122c.141-.184.287-.374.402-.58.188-.343.348-.696.474-1.046.304-.864.485-1.644.549-2.383.105-1.24.057-2.489.004-3.561l-.035-.738a60.54 60.54 0 00-.158-2.634 1.636 1.636 0 01-.179-1.513l-.018-.12a7.227 7.227 0 00-.175-.933 10.05 10.05 0 00-.134-.433 65.252 65.252 0 011.425-.022c.113-.001.226-.005.34-.005.121 0 .242.004.36.01.376.027.752.052 1.127.076.58.086 1.242.185 1.897.321.146.005.29.013.435.025.636.05 1.269.106 1.903.17.642.062 1.296.116 1.931.228l.12.02c1.057.13 2.102.366 3.148.59l-.014-.052c-.126-.453-.458-.72-.848-.998-.105-.076-.212-.15-.32-.226l.692-.037.678-.042c.224-.013.453-.015.681-.015h.865c.581 0 1.17.039 1.741.076l.45.029.055.007c.58.078 1.18.158 1.762.273.85.17 1.695.346 2.541.53.7.153 1.4.318 2.08.49.317.082.69.18 1.055.29l.264.084c.155.051.31.101.467.142a2.434 2.434 0 00.54.084c.66 0 1.21-.56 1.361-1.103.07-.262.07-.532 0-.796-.1-.359-.318-.643-.69-.893-.175-.118-.381-.193-.583-.265a3.62 3.62 0 01-.194-.072c-.098-.038-.198-.07-.296-.104l-.103-.034a33.37 33.37 0 00-.987-.314l-.255-.078-.319-.098a3.596 3.596 0 00-.169-.825 39.21 39.21 0 00-.263-.847c-.145-.45-.26-.935-.359-1.529a32.398 32.398 0 01-.258-3.75c-.006-1.001.029-2.02.064-3.005.016-.466.031-.933.043-1.399.035-1.37.112-2.762.186-4.108.062-1.099.16-2.212.254-3.288l.082-.925c.054-.637.111-1.274.167-1.91.125-1.417.25-2.835.358-4.253.07-.912.145-1.824.22-2.737l.047-.578c.057-.691.142-1.393.225-2.072l.075-.638.104-.634.1-.617c.026-.157.05-.314.075-.472.045-.299.091-.598.15-.895l.334-1.661.334-1.651c.121-.612.26-1.218.397-1.827l.14-.625c.296-1.32.594-2.638.903-3.955.143-.604-.198-1.201-.776-1.362a1.067 1.067 0 00-.28-.038c-.519 0-.975.341-1.085.811-.416 1.76-.82 3.553-1.21 5.288l-.082.368a136.11 136.11 0 00-.607 2.864l-.237 1.145c-.1.48-.185.973-.268 1.45-.04.228-.078.454-.12.681-.11.616-.195 1.241-.278 1.848l-.008.048c-.171 1.27-.33 2.626-.501 4.27a585.34 585.34 0 01-.988 8.906c-.29 2.462-.424 4.979-.552 7.412l-.04.757-.036.671a60.838 60.838 0 00-.1 2.245c-.018.812.032 1.637.078 2.435l.01.146.004.079c.053.872.107 1.774.351 2.62.078.265.182.523.283.775l.042.106c-.174-.035-.337-.06-.501-.088a39.293 39.293 0 00-2.115-.286c-.181-.02-.363-.04-.544-.062a30.336 30.336 0 00-1.393-.14l-1.123-.077-1.208-.083a29.05 29.05 0 00-1.493-.048c-.248-.005-.498-.008-.746-.015a47.714 47.714 0 00-1.388-.015h-.463l-.298.002c-.783 0-1.596.001-2.39.03-.69.025-1.218.543-1.23 1.204-.446-.07-.896-.129-1.35-.18a25.671 25.671 0 00-1.749-.117 8.42 8.42 0 00-.382-.008c-.22 0-.442.006-.662.014-.16.004-.32.01-.477.012-.47.007-.94.031-1.409.055l-.104.005a.902.902 0 00-.668-.29c-.138 0-.28.026-.416.05l-.079.014c-.661.068-1.336.097-1.988.125l-.191.008-.522.024c-.366.016-.732.033-1.1.048a.688.688 0 00-.087-.104c-.167-.168-.406-.276-.607-.276a.61.61 0 00-.054.003c-.43.042-.942.085-1.47.107l-.396.015-.398.015-.098.004c-.26.01-.53.021-.79.062.02-.537-.343-1.03-.88-1.195a7.993 7.993 0 01-.542-.187c-.49-.229-.9-.461-1.258-.712-.274-.24-.524-.51-.766-.771a8.849 8.849 0 00-.878-.856l-.172-.152c-.095-.084-.187-.17-.28-.255a8.392 8.392 0 00-.425-.38 5.436 5.436 0 00-.595-.437c-.184-.113-.384-.196-.579-.277l-.084-.036c-.336-.14-.72-.182-1.051-.204a2.597 2.597 0 00-.183-.006c-.303 0-.65.051-1.033.15-.573.149-1.123.398-1.654.64-.159.072-.315.143-.473.212-.203.084-.407.167-.615.243-.301.11-.615.194-.908.266a18.19 18.19 0 01-1.608.326c-.478.056-.953.096-1.394.13-.16.013-.321.017-.484.017-.383 0-.762-.028-1.15-.061-.34-.048-.68-.104-1.018-.158a41.628 41.628 0 00-1.666-.243 56.167 56.167 0 00-.714-.077c-.205-.023-.411-.044-.618-.068a20.547 20.547 0 00-1.49-.127 11.486 11.486 0 00-.325-.006c-.785 0-1.595.105-2.412.31-.141.035-.281.079-.422.12l-.21.064c-.198.059-.4.14-.623.248-.305.147-.533.456-.698.68-.165.221-.225.515-.248.671-.045.325-.028.64.055 1.022l.028.119c-1.215-.458-2.437-.906-3.659-1.355l-2.523-.928c-2.099-.777-4.195-1.552-6.298-2.318l-.92-.337c.272-.52.234-1.119.198-1.698a9.4 9.4 0 01-.024-.583c-.005-1.2-.006-2.596.015-3.957.021-1.417.08-2.827.172-4.19.09-1.359.141-2.72.176-3.753.033-.959.077-1.915.125-2.874.228-.441.517-1.029.722-1.649.179-.545-.074-1.185-.603-1.52.01-.745-.003-1.493-.015-2.061l-.006-.356c-.01-.51-.017-1.04-.048-1.558a23.597 23.597 0 00-.243-2.197 180.486 180.486 0 00-.634-3.8 113.733 113.733 0 01-.527-3.27 70.794 70.794 0 01-.374-3.595 64.96 64.96 0 01-.167-4.033c-.006-.732-.013-1.462-.021-2.195-.005-.49.012-.966.028-1.427.008-.2.015-.4.02-.6.035-1.335.105-2.69.175-4.004l.042-.803a.882.882 0 00-.256-.658 1.02 1.02 0 00-.723-.322c-.53 0-.952.42-.982.98l-.056 1.023c-.068 1.239-.139 2.522-.184 3.785a173.695 173.695 0 00-.095 4.228c-.004.392-.01.784-.017 1.176l-.011.772a60.192 60.192 0 00.064 3.499l.025.553.008.236c.025.563.047 1.144.105 1.714.099.985.22 1.987.335 2.954.196 1.624.398 3.305.505 4.964.066 1.028.059 2.078.05 3.093l-.005.763v.183a41.841 41.841 0 01-.027 1.7l-.003.077-.004.083a.676.676 0 00-.03.083 32.017 32.017 0 01-1.077 3.008l.022-.034a51.746 51.746 0 01-1.25 2.573l-.112.22-.444.878-.446.88a75.13 75.13 0 01-1.445 2.703l-.077.136c-.503.895-1.005 1.788-1.496 2.689-.15.276-.286.566-.418.846l-.162.34c-.048.098-.099.196-.15.294a54.18 54.18 0 00-.592-1.683 948.76 948.76 0 01-.934-2.537c-.26-.16-.45-.392-.603-.599-.155-.21-.229-.577-.283-.844a16.634 16.634 0 01-.164-1.055l-.015-.111-.023-.162a9.429 9.429 0 01-.037-.294l-.006-.044-.037-.102c-.286-.807-.581-1.64-.9-2.45-.329-.83-.663-1.659-1-2.488-.245-.608-.49-1.216-.734-1.826l-.023-.059-.023-.055a.976.976 0 00.102-.085c-.083-.177-.136-.366-.19-.55a6.09 6.09 0 00-.056-.198l-.131-.423-.332-1.057c-.207-.654-.417-1.307-.628-1.96a3.062 3.062 0 00-.113.248l-.14.32c-.191-.49-.393-.978-.596-1.464l-.131-.316c-.678-1.616-1.377-3.289-2.083-4.926-.256-.637-.494-1.292-.725-1.925.19-.265.344-.483.486-.722l.407-.685.5-.843c.547-.92 1.268-2.131 2.01-3.329a42.678 42.678 0 001.801-3.184 158.23 158.23 0 011.736-3.321c.421-.793.785-1.633 1.137-2.445l.119-.275c.175-.314.35-.63.52-.947.242-.449.482-.9.72-1.35.364-.687.727-1.373 1.106-2.052.534-.958 1.126-1.905 1.699-2.82l.256-.408c.274-.439.545-.879.815-1.319.369-.599.736-1.198 1.115-1.793.334-.528.71-1.07 1.152-1.659l.492-.04c.21-.018.42-.036.629-.057l.456-.045c.419-.042.836-.084 1.258-.117.687-.055 1.375-.106 2.064-.158l.68-.051.435.096.218.048c.703.158 1.431.218 2.05.255.455.029.92.04 1.427.04.712 0 1.434-.025 2.109-.055zm63.628-.893c.436.082.874.159 1.314.234-.05.048-.098.102-.15.154-.293.305-.548.547-.8.76l-.006.008c-.117-.386-.236-.77-.358-1.156zm-5.336 3.683a8.54 8.54 0 01-.272-.802c-.067-.238-.112-.486-.156-.726l-.034-.194c-.046-.243-.24-.506-.497-.67l.095-.031.341-.137c.5-.195.996-.395 1.49-.605.174-.074.345-.149.513-.235.17-.085.319-.211.464-.333l.087-.075a1.26 1.26 0 00.294-.383c.229.043.462.084.697.123a1.03 1.03 0 00-.042.736c.157.485.31.973.463 1.46l.201.642-.757.432c-.796.458-1.65.838-2.476 1.205l-.168.076a8.851 8.851 0 01-.243-.483zm-47.006.663c-.473-.45-.937-.952-1.416-1.532a6.533 6.533 0 01-.654-1.082 8.184 8.184 0 01-.361-1.253 7.202 7.202 0 01-.025-.484c.181-.053.42-.128.662-.224.405-.16.804-.336 1.205-.512.233-.104.467-.206.702-.306l.042-.017.042-.018.234.185c.53.414 1.08.844 1.639 1.242a.646.646 0 00-.046.108 443.032 443.032 0 00-1.125 3.442 22.42 22.42 0 00-.236.804l-.056.196c-.206-.177-.41-.359-.607-.549zm31.888-23.674c-.199.198-.26.414-.292.701-.055.489-.08.893-.083 1.274-.003.442.054.88.125 1.367l.046.33.094.648.054.374c.074.523.15 1.064.283 1.579.156.602.4 1.16.717 1.81.246.5.528 1.017.865 1.577l.234.39c.193.328.393.666.607.986.387.575.83 1.116 1.22 1.594.65.797 1.445 1.717 2.39 2.48.596.479 1.25.884 1.867 1.25.95.564 2.011.81 3.035 1.05.406.094.814.18 1.22.267l.667.14c-.368.137-.725.277-1.08.414-1.22.469-2.48.856-3.667 1.212-2.478.748-5.092 1.163-7.323 1.468-.726.088-1.454.177-2.181.255-.661.072-1.336.123-1.989.173l-.307.022c-.482.037-.975.052-1.452.067-.226.007-.454.013-.678.022-.83.031-1.656.059-2.484.08l-.668.02c-1.007.028-2.05.058-3.074.058-.241 0-.484-.002-.725-.006a74.733 74.733 0 01-2.433-.083 25.09 25.09 0 01-1.973-.198l-.21-.027-.107-.014-.105-.013-.4-.06a52.247 52.247 0 01-1.69-.275c-1.701-.31-3.443-.834-5.323-1.606a33.242 33.242 0 01-2.285-1.065c-.84-.433-1.605-1.008-2.343-1.562l-.093-.07c.25-.247.494-.504.736-.764l.082-.087c.615-.656 1.249-1.337 1.749-2.104.497-.765.833-1.486 1.027-2.201.081-.296.157-.622.232-.993.2-.557.356-1.065.475-1.555.042-.168.087-.334.132-.503.083-.302.17-.612.225-.928.078-.43.132-.873.185-1.302l.035-.277c.203-1.436.38-2.598.553-3.66.034-.21.05-.436-.067-.666a.79.79 0 00-.744-.532.864.864 0 00-.277.045c-.312.065-.653.293-.713.658l-.18 1.096c-.174 1.044-.345 2.086-.533 3.125a9.519 9.519 0 01-.46 1.71l-.203.537c-.133.352-.264.704-.406 1.05-.25.567-.557 1.23-.941 1.865a17.53 17.53 0 01-.96 1.409 10.402 10.402 0 01-1.448 1.48c-.552.402-1.196.764-2.023 1.142-1.034.409-2.06.705-3.052.88a4.616 4.616 0 01-.174.02c.028.084.054.165.074.245-.633.088-1.266.19-1.9.293-.476.076-.954.153-1.433.225-.262.035-.525.066-.79.098l-.79.097-.271.035c-.182.024-.366.048-.551.069l-.244.01c-.927.04-1.883.082-2.825.082a23.11 23.11 0 01-2.368-.11c-.381-.063-.764-.15-1.133-.235l-.217-.05a13.739 13.739 0 00-2.088-.29 18.42 18.42 0 00-1.206-.05 9.36 9.36 0 00-.577.018c-.731.048-1.446.156-1.988.245-.946.157-1.598.43-2.114.883-.368.323-.656.703-.968 1.131-.186.117-.36.25-.52.376-.414.326-.736.78-1.03 1.22a34.727 34.727 0 00-.98 1.581c-.445.747-.84 1.537-1.222 2.3-.163.324-.324.647-.491.97-.253.491-.505.983-.752 1.475a65.78 65.78 0 00-1.283 2.387l-.278.53c-.68 1.304-1.432 2.598-2.158 3.849-.48.823-.973 1.675-1.443 2.522-.51.92-1.055 1.897-1.618 2.873-.285.498-.577.99-.87 1.484-.237.401-.475.804-.71 1.21a95.793 95.793 0 00-1.085 1.92l-.128-.337c.098-.18.15-.382.15-.595 0-.248-.057-.46-.17-.652-.158-.27-.396-.454-.751-.578a2.185 2.185 0 00-.47-.084l-.124-.014a7.396 7.396 0 00-.303-.03 13.659 13.659 0 01-.652-.06 13.991 13.991 0 00-1.29-.1l-.438-.014a24.519 24.519 0 00-.938-.024l-.054.001h-.053a840.2 840.2 0 00-1.731.02l-.9.009c-1.538.015-3.128.032-4.69.073-1.99.055-3.97.215-5.826.375-.905.078-1.835.168-2.844.276l-.437.046a38.35 38.35 0 00-1.238.142l-.609.082-.703.096-.973.132-.974.133-3.02.377c-.657.082-1.328.135-1.98.185-.292.022-.585.045-.878.07-.68.06-1.375.092-2.047.122l-.578.025c-.53.026-1.062.04-1.593.053-.393.01-.784.02-1.177.035-1.078.04-2.152.09-3.229.147-.95.05-1.783.11-2.55.189-1.038.11-2.11.222-3.167.371-.872.122-1.807.263-3.03.455-.315.05-.629.105-.942.16-.396.067-.792.136-1.189.195-.19.024-.38.048-.57.085-.255.048-.569.244-.746.412-.232.219-.378.45-.473.75a.898.898 0 00-.04.238.126.126 0 00-.063-.013.287.287 0 00-.226.115.265.265 0 00-.045.234c.023.073.045.146.07.219.03.094.061.187.087.283l.074.266.025.097c.074.255.152.512.232.769a.152.152 0 00.15.115c.049 0 .096-.02.126-.05l.07.18c.22.518.437 1.033.652 1.55l.246.593c.208.496.424 1.008.618 1.519.19.494.38.99.568 1.485l.072.186c.062.158.124.316.178.477l.45 1.315.451 1.316c.281.822.553 1.648.823 2.476.194.593.388 1.186.587 1.78.334.997.666 1.996.996 2.995l.348 1.053a754.95 754.95 0 001.607 4.776c.377 1.11.782 2.231 1.175 3.314l.398 1.102c.494 1.375.996 2.746 1.498 4.118l.211.566c.151.404.302.808.439 1.215l.425 1.247.414 1.22c.274.808.547 1.616.818 2.426.666 1.977 1.353 4.02 2.067 6.019l.139.383.136.383-.025.054a1.143 1.143 0 000 .605 61.156 61.156 0 001.42 3.217 1.206 1.206 0 00.668.544c.248.478.76.79 1.33.815 1.577.07 3.178.16 4.727.247l1.181.066c.5.029.999.065 1.496.103a147.8 147.8 0 001.604.11c.377.023.754.047 1.129.077l.013.04h-.004l.07.24c.1.342.204.698.324 1.04.157.451.32.917.647 1.288.245.281.566.497.876.706l.065.045c.249.168.542.275.827.377l.165.06c.143.054.31.1.525.147a8.224 8.224 0 001.576.194c.396 0 .828-.07 1.285-.212.406-.124.83-.327 1.294-.618.238-.15.464-.293.675-.453.116.15.24.3.37.445.202.222.455.404.719.586.289.196.622.363.99.496.307.11.653.123.95.123a4.03 4.03 0 001.04-.141c.135-.037.268-.095.397-.152l.07-.03a3.08 3.08 0 00.463-.25c.187-.123.362-.27.532-.414l.052-.044c.147-.124.281-.269.41-.41l.07-.075c.131-.138.253-.28.37-.428.115.228.237.42.364.587.162.217.35.442.616.627.248.17.517.282.815.4.477.193.977.256 1.447.304.103.01.205.015.308.015.598 0 1.225-.163 1.865-.486.266-.134.512-.325.748-.51l.056-.043a3.98 3.98 0 00.46-.415.956.956 0 00.274-.637c2.023.248 4.049.496 6.075.751l1.81.26c2.077.297 4.222.605 6.338.846l.057.006.022-.017c.354-.28.322-.264.74-.432a1.19 1.19 0 01.462-.077c.277 0 .57.056.807.09.176.026.342.065.508.131.285.111.596.206.85.381.176.122.346.248.515.379.441.054.883.108 1.325.16.068.212.185.405.344.567.375.383.913.577 1.598.577a4.1 4.1 0 00.505-.032 57.939 57.939 0 001.682-.23h-.008c1.13-.154 2.271-.345 3.375-.528l.068-.012c1.233-.208 2.466-.406 3.7-.601.581-.092 1.164-.177 1.746-.265.66-.097 1.32-.195 1.976-.3 1.184-.19 2.367-.38 3.55-.562-.07.101-.12.221-.166.337l-.035.08a6.771 6.771 0 00-.208.534c-.221.669-.164 1.37.154 1.876.253.404.68.774 1.173 1.013.3.144.62.255.92.354.412.135.852.198 1.277.258l.128.019c.307.045.61.076.926.096a3.57 3.57 0 00.924-.06.933.933 0 00.09.07c.634.448 1.285.738 1.934.861.288.055.595.084.915.084.447 0 .916-.055 1.393-.162l.095-.021c.506-.113 1.029-.229 1.523-.409a8.69 8.69 0 00.93-.405.898.898 0 00.118.37c.125.21.312.353.59.45.304.107.592.175.905.218.13.018.256.025.382.025.145 0 .297-.009.48-.03.492-.054 1.009-.176 1.625-.381.15.384.51.643.889.643l.046-.002c.482-.024.907-.1 1.297-.235.416-.14.823-.328 1.218-.512l.096-.045c.304-.14.606-.29.907-.44l.492-.242.058-.028c.201-.098.404-.197.6-.305.332-.185.632-.439.91-.682.269-.236.486-.446.68-.661.154-.168.306-.34.456-.512.252.18.585.267 1.016.267.14 0 .28-.009.416-.022.32-.03.641-.086.979-.17.173.353.495.622.88.738a6.027 6.027 0 001.498.232c.255 0 .523-.025.867-.08.32-.05.637-.11.956-.177.595-.123 1.166-.368 1.72-.603l.178-.077a7.29 7.29 0 001.157-.631c.083.542.494 1 1.043 1.161l.066.02c.12.052.242.105.365.156.471.206.94.44 1.393.667.441.22.898.447 1.359.65a28.029 28.029 0 003.674 1.35c.715.203 1.455.345 2.17.481.466.09.948.18 1.418.289 1.219.282 2.48.44 3.7.592l.506.063.66.084.77.11c1.036.151 2.107.307 3.175.374a74.46 74.46 0 003.066.108c.045 2.445.055 5.05.025 7.96l-.013 1.471c-.021 2.2-.041 4.475-.127 6.71a350.005 350.005 0 01-.47 8.716c-.078 1.257-.111 2.538-.144 3.776l-.018.709a192.19 192.19 0 00-.07 3.892l-.015 1.541-.015 1.593c-.006.714-.04 1.44-.074 2.141l-.02.415c-.041.889-.074 1.79-.099 2.675-.022.866-.051 1.713-.149 2.565a23.473 23.473 0 01-.354 1.794c-.143.611-.288 1.229-.503 1.811-.063.122-.13.236-.205.349l-.034.039a1.791 1.791 0 00-.346.544l-.715.225-1.04.329c-1.21.383-2.538.79-4.174 1.284-.412.125-.83.233-1.247.343l-.58.151-.4.111c-.397.11-.807.225-1.216.304-.88.174-1.761.349-2.641.521-.432.086-.877.147-1.305.206l-.21.028-1.066.148-1.109.152-.703.088c-1.033.13-2.065.258-3.1.373-1.445.16-2.867.285-4.317.408-1.412.119-2.6.209-3.809.26-1.514.065-3.03.119-4.544.171-2.738.094-5.514.281-8.198.462l-.127.007c-.957.064-1.928.15-2.868.233-.404.034-.806.07-1.21.103-.369.032-.738.06-1.108.09l-.555.041c-.217.018-.435.038-.654.058-.446.041-.905.085-1.357.098l-1.518.048-1.569.048c-.1.003-.198.005-.298.005-.203 0-.407-.005-.61-.01-.163-.005-.324-.01-.485-.011l-1.792-.023a47.021 47.021 0 01-2.018-.085c-.32-.018-.637-.036-.955-.051a53.098 53.098 0 01-1.87-.128l-.757-.059-.23-.03-1.182-.159.103.021-.984-.178-.833-.146a20.265 20.265 0 01-4.111-1.165c-1.017-.444-1.866-.92-2.596-1.453a8.623 8.623 0 01-1.113-1.12 4.947 4.947 0 01-.11-.157.876.876 0 00.075-.214c-.259-.091-.515-.2-.76-.294a29.605 29.605 0 01-2.11-.922 9.125 9.125 0 01-.04.79c0 .107.012.213.035.317a1.064 1.064 0 00-.092.454c.04 1.734.05 3.5.058 5.206l.013 1.735c.015 1.983.075 4.06.18 6.35.06 1.298.17 2.616.273 3.888.065.796.13 1.592.184 2.388.134 1.986.304 4.152.533 6.815.368 4.259.598 8.598.821 12.795l.006.127c.04.75.081 1.499.124 2.248a302.3 302.3 0 01.218 4.191c.074 1.702.12 3.431.164 5.104l.038 1.432.1 3.708c.09 3.377.183 6.871.295 10.306.064 1.966.149 3.966.23 5.9.089 2.106.18 4.286.247 6.43.08 2.609.157 4.802.265 7.031.122 2.501.268 4.955.395 7.027.229 3.744.425 7.554.612 11.239l.113 2.193c.185 3.591.399 7.241.607 10.771l.125 2.145c.132 2.277.263 4.553.393 6.83.02.335.04.672.062 1.007.042.674.084 1.348.11 2.023l.077 1.97.08 2.039c.193 4.98.434 10.043.67 14.939.173 3.63.352 7.382.51 11.075.127 2.959.23 5.969.327 8.88.056 1.68.113 3.363.175 5.044.065 1.753.158 3.638.29 5.93l.096 1.659.095 1.658c.022.389.048.78.073 1.168.053.792.107 1.612.137 2.418.097 2.631.193 5.44.232 8.291l.005.347c.015 1.194.031 2.43.008 3.644-.007.31-.011.619-.014.928l-.015.927a1.343 1.343 0 00-.1.087c-.233.235-.453.636-.417 1.005l.032.32c.054.555.11 1.13.194 1.689a.812.812 0 00-.48-.139c-.297 0-.608.125-.79.319-.346.372-.529.918-.527 1.579.001.208.051.438.149.681l-.027.304-.027.305c-.047.524-.101 1.12-.109 1.708-.004.359.041.72.092 1.087.077.57.27 1.137.588 1.738.137.257.325.491.509.717l.083.1c.1.127.23.227.355.323.205.16.376.289.56.41.273.18.561.34.814.483.505.284 1.053.504 1.585.72l.31.124.122.05c.485.196.986.4 1.488.573.56.192 1.172.363 1.873.524l.51.118c.841.193 1.712.394 2.584.51.746.1 1.478.13 2.29.158.095.006.19.006.286.006.48 0 .95-.04 1.35-.081l.221-.021a53.208 53.208 0 001.638-.174 150.8 150.8 0 004.099-.56l.605-.09c.36-.052.72-.105 1.079-.17.193.009.387.012.58.012.857 0 1.75-.067 2.656-.199a9.13 9.13 0 00.774-.142c.826-.19 1.541-.6 2.068-1.184.401-.443.75-.978 1.138-1.734.164-.327.29-.676.417-1.033.076-.216.16-.461.216-.705a18.54 18.54 0 00.334-1.699l.072-.516c.071-.494.143-1.004.18-1.508.022-.277.036-.56.04-.868.14-.167.241-.358.298-.567.158-.582.206-1.203.25-1.804.011-.177.025-.353.04-.527.013-.16.03-.32.045-.48.03-.306.059-.61.078-.915l.059-.935c.038-.577.075-1.154.105-1.732.058-1.05.113-2.1.17-3.15l.004-.103c.033-.613.05-1.226.067-1.84a214.932 214.932 0 00.122-6.019 188.81 188.81 0 00-.01-5.63 329.04 329.04 0 00-.08-2.979l-.015-.587c-.017-.616-.032-1.254-.074-1.878-.063-.95-.123-1.898-.185-2.846l-.006-.089a53.161 53.161 0 00-.15-1.732 98.858 98.858 0 01-.082-.889 248.99 248.99 0 00-.308-3.202c-.075-.766-.152-1.533-.224-2.297-.078-.841-.154-1.658-.214-2.479-.034-.471-.063-.943-.092-1.415a93.7 93.7 0 00-.084-1.313c-.07-.979-.133-1.958-.191-2.938-.036-.597-.055-1.197-.074-1.796l-.026-.78c-.06-1.672-.07-3.375-.08-5.024l-.001-.277c-.018-3.288-.027-6.86-.027-11.241v-11.087l-.002-11.086v-11.2l.002-1.551c.003-1.184.004-2.368-.005-3.551l-.013-1.656-.014-1.654a51.623 51.623 0 00-.059-1.886c-.013-.323-.027-.646-.037-.969-.062-1.77-.159-3.525-.244-5.01a360.51 360.51 0 01-.204-3.815l.068-.85.066-.852.15-1.879c.238-3.02.486-6.14.688-9.215.13-1.96.26-4.06.357-6.129.07-1.496.143-2.99.215-4.486l.073-1.512c.052-1.1.149-2.217.24-3.297l.093-1.092c.102-1.242.244-2.5.382-3.72l.024-.22.157-1.362c.118-1.007.24-2.049.34-3.075.047-.467.09-.933.136-1.4.124-1.304.253-2.651.41-3.976.198 1.594.422 3.186.643 4.778l.237 1.694.391 2.84c.336 2.422.67 4.845 1.003 7.27.187 1.542.373 3.085.556 4.626l.187 1.56c.15 1.247.273 2.518.392 3.748.054.564.108 1.129.165 1.692.127 1.229.26 2.456.394 3.683l.203 1.875c.062.575.14 1.149.217 1.722.04.297.081.592.119.888l.229 1.773.223 1.717c.505 3.914 1.133 7.84 1.785 11.854a662.28 662.28 0 001.918 11.027c.314 1.75.663 3.577 1.033 5.43l.128.643c.312 1.563.624 3.125.928 4.687l.24 1.226c.277 1.42.554 2.84.828 4.261.12.616.24 1.23.362 1.845.26 1.326.532 2.699.773 4.05l1.02 5.715c.099.553.18 1.117.258 1.664.041.283.082.565.125.846l.208 1.36.202 1.317c.12.793.249 1.584.377 2.376.146.896.29 1.793.425 2.691.248 1.656.494 3.311.74 4.966l.063.421.146 1.098c.166 1.247.337 2.536.486 3.806l.205 1.695c.158 1.295.323 2.633.456 3.95.068.663.133 1.324.198 1.986.123 1.256.25 2.554.393 3.828l.032.275.373 3.336c.03.246.055.492.082.739.064.61.132 1.243.221 1.862l.381 2.635.38 2.633c.154 1.057.336 2.13.512 3.167.084.494.167.986.249 1.48.245 1.495.49 2.99.738 4.486.16.972.289 1.965.415 2.926l.121.913.01.07c.234 1.843.478 3.746.687 5.622.138 1.22.269 2.444.4 3.666l.223 2.067c.205 1.893.434 3.788.61 5.228.047.381.078.764.11 1.147.035.421.069.854.125 1.278l.051.397c.102.826.211 1.68.497 2.462.115.31.244.662.428.973.152.257.35.495.544.723l.16.192c.145.177.338.41.555.634.403.418.88.756 1.457 1.035 1.115.54 2.345.657 3.537.768a23.11 23.11 0 002.923.085c2.125-.06 3.866-.126 5.477-.204.883-.044 1.68-.117 2.436-.224.52-.073 1.035-.242 1.532-.404a20.208 20.208 0 001.69-.658l.232-.097c.505-.214.999-.478 1.434-.713.426-.23.928-.503 1.413-.792l.6-.36.6-.36.246-.147c1.353-.81 2.752-1.648 4.062-2.57.37-.26.567-.517.661-.857.1-.37.048-.773-.145-1.104a1.49 1.49 0 00-1.27-.713c-.253 0-.494.07-.697.2-.42.27-.845.531-1.273.787.048-.116.086-.24.12-.367.056-.224.082-.46.106-.688l.03-.262c.06-.47.042-.951.018-1.404-.053-1.053-.137-2.12-.217-3.15-.072-.902-.137-1.794-.203-2.688a247.432 247.432 0 00-.318-4.07 672.83 672.83 0 01-1.049-13.678l-.234-3.502a1798.62 1798.62 0 00-.683-9.967c-.29-4.051-.503-8.346-.65-13.127l-.032-1.092c-.062-1.97-.124-4.005-.21-6.007-.083-1.987-.17-3.974-.257-5.962l-.065-1.478c-.03-.692-.056-1.385-.08-2.077a130.86 130.86 0 00-.176-3.882l-.131-2.038-.131-2.037a87.4 87.4 0 00-.19-2.337c-.036-.404-.072-.807-.105-1.21-.28-3.352-.71-6.744-1.126-10.026-.147-1.164-.295-2.33-.437-3.495-.479-3.945-.949-8.2-1.438-13.01l-.12-1.149a93.487 93.487 0 01-.233-2.32l-.167-2.026-.167-2.025c-.067-.8-.107-1.614-.146-2.401l-.029-.556-.023-.437c-.048-.867-.095-1.734-.128-2.6a351.44 351.44 0 00-.341-7.048c-.103-1.725-.21-3.448-.316-5.17l-.103-1.686-.088-1.437c-.107-1.726-.218-3.51-.3-5.267l-.099-2.163c-.066-1.452-.131-2.905-.203-4.357l-.217-4.385c-.035-.724-.097-1.457-.155-2.167a87.906 87.906 0 01-.071-.873c-.068-.885-.142-1.77-.214-2.654a341.556 341.556 0 01-.298-3.754 520.33 520.33 0 00-.136-1.824c-.114-1.547-.235-3.145-.328-4.72a774.298 774.298 0 00-.485-7.645c-.115-1.69-.223-3.38-.332-5.07l-.093-1.442a226.78 226.78 0 01-.217-4.222c-.035-.74-.068-1.483-.105-2.222l-.035-.685c-.058-1.128-.116-2.296-.2-3.442l-.317-4.339-.366-5.03c-.033-.45-.045-.909-.056-1.352-.006-.21-.012-.42-.02-.63-.015-.39-.028-.78-.04-1.17a1.45 1.45 0 00.334-.651c.09-.459.041-.825-.152-1.15l-.233-.304c-.03-.1-.053-.184-.08-.263l.07-.256c.153-.603.28-1.197.417-1.853.307-1.475.362-2.953.378-4.205.009-.733.031-1.464.055-2.195.019-.582.037-1.163.047-1.745.024-1.25.018-2.521.012-3.75l-.004-.775c-.014-3.033.013-5.773.082-8.377.026-.956.071-1.928.115-2.87.026-.536.051-1.072.072-1.608.047-1.161.057-2.342.067-3.485l.005-.753c.022-2.155-.018-4.347-.055-6.466l-.03-1.714c-.04-2.522-.082-5.213-.15-7.942h.043c.233 0 .47-.007.708-.02.638-.03 1.277-.071 1.916-.114l.224-.015a103.01 103.01 0 003.968-.318 34.764 34.764 0 004.301-.731l.095-.022c.586-.135 1.192-.273 1.772-.465.512-.168 1.015-.39 1.503-.607l.464-.203c.84-.363 1.656-.81 2.442-1.242.23-.126.46-.252.693-.377.75-.403 1.329-.783 1.818-1.196.333-.28.628-.607.913-.924.26-.286.506-.583.613-.979.04-.156.065-.321.089-.48l.025-.172c.09-.523.148-1.06.206-1.579l.05-.46c.071-.612.135-1.226.198-1.84.063-.61.126-1.219.197-1.829.142-1.208.271-2.483.384-3.791.082-.938.177-1.872.272-2.808l.117-1.173c.054-.56.1-1.12.145-1.68.06-.747.122-1.518.206-2.275a137.2 137.2 0 00.395-3.934l.1-1.257c.079-1.002.159-2.005.246-3.006.124-1.394.214-2.676.276-3.922l.09-1.727a1227 1227 0 00.121-2.363c.032-.637.059-1.272.084-1.909.03-.712.06-1.424.097-2.135l.054-1.062c.054-1.066.108-2.134.173-3.2.04-.672.09-1.343.139-2.015.045-.64.092-1.28.13-1.921l.061-.934c.068-1.02.139-2.075.15-3.113.008-.596.013-1.194.019-1.79.006-.772.013-1.545.024-2.317.013-.982.033-1.964.052-2.947l.03-1.478c.02-1.107-.02-2.236-.061-3.327l-.02-.54c-.031-.902-.043-1.823-.055-2.712-.026-1.84-.052-3.743-.246-5.603-.06-.57-.123-1.137-.187-1.705-.075-.674-.15-1.35-.22-2.026-.12-1.17-.312-2.537-.824-3.797-.13-.317-.275-.676-.452-1.014a5.564 5.564 0 00-.623-.93c-.527-.65-1.296-.96-1.908-1.157-.607-.195-1.26-.23-1.892-.267a19.086 19.086 0 01-1.411-.13 64.732 64.732 0 01-1.86-.316c-.576-.102-1.152-.206-1.728-.296-.626-.098-1.252-.192-1.879-.286a122.66 122.66 0 01-4.716-.775c-.499-.09-.998-.18-1.496-.267a295.894 295.894 0 00-3.712-.608l-.329-.053-.77-.12c-.92-.146-1.837-.288-2.753-.45a95.41 95.41 0 00-1.327-.217c-.732-.116-1.488-.234-2.223-.387-.86-.178-1.729-.393-2.566-.6-.31-.076-.62-.155-.93-.23-.414-.099-.84-.184-1.253-.266-.196-.038-.393-.08-.589-.12-.684-.142-1.392-.29-2.06-.534a15.643 15.643 0 01-1.832-1.094c-.621-.506-1.192-1.07-1.72-1.604-.225-.23-.44-.472-.658-.712l-.244-.272c-.3-.33-.569-.641-.82-.953-.299-.4-.583-.809-.87-1.22l-.266-.382-.153-.215c-.396-.56-.805-1.14-1.105-1.768a10.026 10.026 0 01-.398-1.355l-.023-.105a25.412 25.412 0 01-.31-1.585 7.822 7.822 0 01-.068-.986c0-.35.04-.714.075-1.036.029-.253-.13-.542-.292-.701a1 1 0 00-.7-.29 1 1 0 00-.702.29z"/><path d="M235.299 550.123l.027.021-.027-.02zm-.159-.067zm.003-.02zm-.03-.011h.002-.002zm-.02-.111l.04.052-.04-.052zm.426-3.337a.856.856 0 01.024.055l-.024-.055zm-.116-.064a.897.897 0 01.093.04l-.093-.04zm-.728-1.513c-.348.002-.706.094-1.032.21-.35.128-.666.309-.963.53-.31.232-.58.49-.808.8-.247.335-.472.685-.7 1.03-.212.32-.066.773.252.958.344.201.75.067.962-.25.21-.32.42-.643.644-.953.137-.16.287-.302.448-.437.165-.116.333-.218.514-.307.172-.064.345-.116.526-.154.157-.013.31-.01.467.004.175.034.347.077.516.13.012.042.021.084.03.126a1.57 1.57 0 010 .168.8.8 0 01-.013.043 2.216 2.216 0 01-.157.26c-.308.349-.672.643-1.038.93a6.16 6.16 0 01-.131.093c-.331.02-.661.068-.984.125-.807.146-1.586.42-2.36.678-.369.123-.73.267-1.083.426-.305.137-.614.28-.908.439-.299.16-.598.412-.74.723a.846.846 0 00-.117.43c.003.104.014.206.035.307.046.168.147.325.228.48.17.33.598.476.945.383.346-.092.69-.176 1.025-.3.38-.141.747-.322 1.113-.495.363-.171.731-.332 1.095-.5.356-.165.703-.35 1.052-.534.229-.122.458-.244.684-.37.207-.011.412-.01.62.004.104.02.208.042.31.07-.011.036-.024.07-.037.105a3.283 3.283 0 01-.23.364 4.448 4.448 0 01-.528.535c-.23.16-.468.3-.72.423a8.657 8.657 0 00-.44.055c-.177.029-.353.096-.524.15a8.71 8.71 0 00-.373.161c-.11.077-.214.162-.315.25-.38.326-.418.951-.176 1.362.264.45.776.627 1.272.516.365-.08.714-.23 1.05-.39l.058-.028.065-.007c.291-.03.535-.095.75-.308a1.05 1.05 0 00.224-.333c.189-.145.368-.3.54-.464.295-.285.535-.631.767-.968.234-.34.395-.758.471-1.162.032-.17.047-.326.03-.496a1.737 1.737 0 00-.232-.708l-.229-.296a1.617 1.617 0 00-.393-.3c.284-.278.534-.585.695-.944.137-.304.19-.614.16-.947a1.887 1.887 0 00-.3-.903c-.206-.302-.52-.449-.862-.552a3.962 3.962 0 00-1.124-.162h-.031z"/><path d="M190.681 565.66l.105-.135.124-.161-.229.296zm.48-.621zm25.065-13.982c-2.17.715-4.329 1.46-6.488 2.209a193.149 193.149 0 00-4.246 1.542c-1.565.583-3.147 1.142-4.686 1.796a20.29 20.29 0 00-2.769 1.408c-.95.586-1.816 1.3-2.62 2.072-.861.823-1.622 1.757-2.406 2.654a36.666 36.666 0 00-1.388 1.702l-.035.045.017-.022-.086.112.164-.212-.209.27-.137.178c-.118.135-.22.284-.332.431l-.219.283a55.8 55.8 0 00-1.445 1.967c-.498.713-.819 1.551-1.03 2.393-.06.235-.12.47-.175.709a5.404 5.404 0 00-.09 1.916c.073.558.186 1.068.399 1.588.227.556.51 1.038.894 1.5.705.844 1.64 1.458 2.625 1.928 1.65.787 3.48 1.12 5.285 1.304.382.04.772.108 1.155.117l1.481.04c.675.019 1.358.019 2.032-.013a57.277 57.277 0 002.518-.16c.823-.074 1.64-.162 2.462-.25 1.53-.161 3.067-.276 4.588-.501a22.732 22.732 0 002.143-.408c.715-.177 1.424-.383 2.136-.572 1.47-.388 2.925-.832 4.384-1.26 1.396-.412 2.803-.799 4.236-1.054a98.57 98.57 0 014.158-.415c1.517-.121 3.025-.318 4.536-.488 1.462-.167 2.917-.404 4.339-.783.321-.087.631-.224.94-.348.283-.115.564-.236.842-.365a1.391 1.391 0 00.784-.39c.195-.104.385-.215.566-.341.279-.195.551-.396.784-.642.422-.447.636-1.021.852-1.585.275-.72.486-1.489.603-2.25.071-.464.133-.924.169-1.394.03-.379.026-.76.034-1.14.024-1.349-.008-2.697-.013-4.045-.008-1.417-.014-2.835-.018-4.252-.002-.768.015-1.528-.11-2.29a5.747 5.747 0 00-.2-.822 4.535 4.535 0 00-.308-.766c-.28-.52-.856-.789-1.423-.81-.545-.019-1.044.31-1.322.762-.15.242-.21.486-.27.757-.077.345-.113.71-.11 1.064 0 .256 0 .512.01.769.015.544.031 1.088.045 1.633.028 1.123-.03 2.24-.11 3.359-.16 2.23-.41 4.46-.694 6.68a53.45 53.45 0 01-.239 1.547 15.38 15.38 0 01-.275 1.361c-.191.092-.384.18-.578.266-.292.118-.585.23-.891.312a26.978 26.978 0 01-3.107.605c-1.408.177-2.82.348-4.233.475-1.475.131-2.953.238-4.424.424-.833.105-1.664.219-2.48.42-.737.182-1.47.38-2.2.586-1.455.412-2.897.879-4.36 1.27-.841.225-1.679.472-2.526.682-.444.11-.886.22-1.334.308-.344.068-.691.119-1.038.17a237.69 237.69 0 01-7 .726c-1.184.11-2.375.113-3.564.125-.59.006-1.18-.026-1.772-.04-.215-.005-.432-.04-.647-.06l-.904-.09c-1.143-.171-2.278-.41-3.357-.825a9.341 9.341 0 01-1.4-.795 5.706 5.706 0 01-.576-.564 4.845 4.845 0 01-.317-.53 5.565 5.565 0 01-.24-.886 4.984 4.984 0 01-.003-.68c.12-.578.26-1.148.457-1.703.385-.803.937-1.516 1.463-2.235.185-.254.373-.507.562-.76.066-.07.123-.148.173-.228l.316-.42c.458-.57.911-1.142 1.386-1.697 1.034-1.215 2.062-2.434 3.303-3.446 1.11-.82 2.31-1.459 3.57-2.017 2.166-.85 4.34-1.676 6.516-2.504 1.124-.427 2.276-.793 3.413-1.189 1.588-.555 3.18-1.093 4.778-1.622.694-.23 1.14-.921.938-1.656-.155-.564-.71-.997-1.293-.997-.12 0-.24.018-.359.057z"/><path d="M218.708 559.226c-.215.483-.39.986-.564 1.487-.71.092-1.42.187-2.125.312-.31-.125-.654-.165-.979-.058a1.97 1.97 0 00-.687.362l-1.006.183-.131.023a1.725 1.725 0 00-.696-.148 1.713 1.713 0 00-1.23.557l-1.346.33c-.575.141-1.149.285-1.722.422-.193.047-.383.11-.573.165l-1.317.378c-.489.14-.981.273-1.465.43l-1.974.648c-1.391.451-2.782.935-4.117 1.535a1.59 1.59 0 00-.557.56c-.196.337-.292.823-.155 1.202.072.2.14.401.257.58.177.271.38.478.675.616.226.106.403.179.638.223.237.045.47.068.708.07.413.002.838-.092 1.24-.18.228-.05.454-.107.68-.162.127.146.251.295.374.446l.027.04c.08.108.161.215.245.322.178.146.326.265.544.345.355.128.799.12 1.13-.075.346-.203.54-.54.712-.885.132-.266.241-.545.347-.824l.41-.075c.195.316.415.614.737.796.263.147.54.28.851.263.17-.004.337-.022.502-.058.168-.047.323-.12.463-.22.448-.291.692-.756.926-1.219l.11-.22c.006 0 .013-.002.02-.004.372.228.815.356 1.237.304.28-.034.446-.058.69-.16.31-.131.547-.229.79-.474.078-.079.148-.164.212-.254l.61-.117c.023.017.046.032.07.048.553.362 1.303.421 1.86.03.232-.14.418-.327.556-.563a.56.56 0 00.036-.049l.31-.072.011.014c.286.357.647.674 1.095.8.286.077.686.062.97-.016.369-.103.653-.321.934-.568l.098-.121c.122-.14.231-.29.33-.45.108-.166.198-.348.282-.529.978-.233 1.952-.492 2.927-.742 1.147-.293 2.295-.589 3.443-.881.55-.141 1.1-.285 1.65-.428l.758-.197c.448-.118.902-.22 1.33-.398.263-.075.492-.208.685-.403.29-.292.456-.693.456-1.107 0-.85-.707-1.567-1.554-1.564-.48.003-.955.095-1.425.196-.213.046-.43.092-.64.157-.454.143-.908.3-1.324.53l-.89.231-2.249.577a2.313 2.313 0 00-.074-.586c-.09-.3-.22-.585-.344-.871a4.185 4.185 0 00-.637-1.021c-.37-.437-.9-.709-1.477-.709-.754 0-1.382.565-1.678 1.226m54.182-4.803l.138.177c.13.164.403.245.603.245h.024c-.254.02-.517.027-.773.056a3.28 3.28 0 01-.003-.428l.011-.05m12.592-.642l-.166.02.166-.02m7.986-25.727c-.51.137-.956.552-1.083 1.064a2.68 2.68 0 00-.077.975l.05.414c.04.353.094.707.15 1.058.09.565.198 1.127.307 1.69.205 1.057.432 2.107.595 3.173.168 1.091.294 2.183.68 3.228.216.587.454 1.185.79 1.718.285.449.618.862.951 1.278.147.199.293.4.426.609.109.257.22.515.331.772.019.075.035.152.05.23.01.095.019.19.027.286a11.125 11.125 0 00-.369 1.633 17.787 17.787 0 00-.233 2.018l-.02.373-.03.057c-.2.38-.427.741-.663 1.101-.39.597-.128 1.431.474 1.776.06.035.125.065.19.09l.003.088c-.638.23-1.288.418-1.954.557-1.057.222-2.119.412-3.182.605-1.933.35-3.87.674-5.81.986-.745.098-1.49.197-2.234.297-1.473.05-2.946.093-4.42.113-.32.004-.643.003-.964 0-.453-.004-.902.067-1.347.14-.336.053-.666.16-.995.247a6.917 6.917 0 01-.804.144c-.17.021-.338.04-.508.058l-.045.005a.84.84 0 00.73-.83c0-.244-.104-.407-.249-.592-.129-.161-.255-.323-.386-.481-.118-.143-.303-.248-.459-.342a1.303 1.303 0 00-1.107-.11c-.822.318-1.145 1.257-1.254 2.051-.072.535-.001 1.05.112 1.575l.053.226a1.501 1.501 0 00.447 1.228l.06.045c.108.161.242.318.355.455a4.328 4.328 0 001.211 1.023c.218.125.473.202.706.296.266.106.547.175.825.244.906.223 1.858.31 2.788.351.65.028 1.31.031 1.962.01 1.389-.046 2.774-.104 4.162-.174.68-.034 1.366-.107 2.039-.206.683-.103 1.37-.186 2.048-.305l2.341-.406c.627-.11 1.25-.246 1.873-.37 1.189-.239 2.376-.5 3.561-.76.61-.132 1.22-.267 1.83-.397.295-.064.59-.128.887-.183.372-.068.75-.121 1.117-.208.303-.07.61-.265.842-.46.194-.163.336-.36.478-.57.168-.25.226-.634.247-.925.014-.189.018-.376.025-.565.012-.488-.025-.978-.034-1.467-.013-.645-.027-1.29-.038-1.934-.02-1.209-.024-2.423-.083-3.63-.036-.779-.071-1.552-.185-2.324a4.965 4.965 0 00-.21-.927 4.775 4.775 0 00-.273-.605 3.308 3.308 0 01-.068-.088 1.54 1.54 0 00-.551-.543 1.362 1.362 0 00-.075-.05 4.201 4.201 0 00-.516-1.116 72.46 72.46 0 01-.572-1.43c-.225-.58-.45-1.157-.657-1.744a33.203 33.203 0 01-1.022-3.61c-.221-.962-.397-1.937-.59-2.905-.09-.445-.178-.891-.265-1.336l-.111-.558c-.05-.254-.085-.507-.155-.757a2.135 2.135 0 00-.616-.988 1.654 1.654 0 00-1.106-.445 1.53 1.53 0 00-.403.054"/><path d="M294.397 552.02c-1.039.414-2.03.92-3.026 1.421-1.046.527-2.08 1.08-3.117 1.624a.5.5 0 00-.186.689.535.535 0 00.709.181c1.024-.543 2.044-1.091 3.073-1.626.961-.499 1.919-1.01 2.915-1.44.192-.082.27-.34.22-.524a.468.468 0 00-.22-.278.544.544 0 00-.252-.067.316.316 0 00-.116.02"/><path d="M294.127 553.094c-.63.13-1.072.806-1.072 1.431 0 .392.156.771.428 1.048.258.263.659.458 1.033.434a2.19 2.19 0 01.161-.004c.357.078.709.197 1.05.33.567.29 1.07.675 1.57 1.067.55.44 1.1.868 1.556 1.412.27.323.532.651.79.984l.577.79c.2.278.38.572.569.858.357.545.677 1.111 1.003 1.676.372.644.746 1.285 1.125 1.921.27.45.536.9.797 1.354.459.797.87 1.617 1.233 2.462.575 1.448.987 2.962 1.39 4.467.303 1.136.605 2.272.925 3.402.143.509.287 1.016.433 1.523.159.553.335 1.101.47 1.66.14.583.287 1.159.384 1.751.099.601.188 1.202.278 1.804.012.09.026.178.039.266.047.378.089.755.102 1.137.008.313-.01.627-.023.939-.018.377-.034.753-.066 1.13-.059.707-.137 1.41-.218 2.115-.124.797-.28 1.586-.555 2.346-.425.931-1.007 1.803-1.613 2.622-.368.47-.758.928-1.207 1.318a4.69 4.69 0 01-.485.293 8.392 8.392 0 01-1.379.338 6.23 6.23 0 01-1.133.003c-.585-.116-1.156-.316-1.72-.51a26.567 26.567 0 01-1.701-.661 23.877 23.877 0 01-3.32-1.792c-.602-.386-1.203-.773-1.802-1.16-.473-.305-.93-.638-1.395-.955a46.628 46.628 0 01-2.04-1.473c-1.301-1.035-2.52-2.173-3.55-3.489-.817-1.107-1.54-2.276-2.223-3.474-.658-1.155-1.21-2.357-1.728-3.58-.476-1.216-.958-2.428-1.417-3.651-.332-.884-.665-1.766-.969-2.662a30.07 30.07 0 01-1.317-5.574 58.004 58.004 0 01-.263-2.687c-.121-1.55-.288-3.106-.117-4.66.08-.56.2-1.11.404-1.634.083-.184.172-.36.282-.53.024-.027.047-.055.072-.081.047.05.091.104.135.16.224.311.434.634.643.958.152.237.45.335.7.187.234-.138.337-.476.184-.714-.185-.292-.373-.582-.553-.878-.143-.238-.29-.481-.478-.686a1.014 1.014 0 00-.387-.252.798.798 0 00-.304-.073 1.813 1.813 0 00-.275.047c-.131.027-.267.124-.375.2-.12.084-.229.184-.332.287-.212.215-.37.495-.517.757-.368.662-.57 1.425-.709 2.166-.207 1.11-.23 2.242-.212 3.367.009.557.01 1.118.031 1.675l.076 2.01c.025.635.098 1.276.174 1.908.102.849.25 1.69.428 2.525.403 1.898 1.05 3.72 1.671 5.55.344 1.01.716 2.01 1.078 3.013a32.768 32.768 0 001.942 4.346c.786 1.469 1.65 2.889 2.673 4.2 1.574 2.025 3.62 3.63 5.694 5.093.5.353 1.003.705 1.504 1.06.514.364 1.052.696 1.577 1.043.9.596 1.826 1.157 2.79 1.638.725.361 1.477.673 2.224.981.785.322 1.591.613 2.407.837.425.115.878.158 1.316.188.359.023.72 0 1.078-.044.852-.106 1.732-.269 2.514-.642.673-.322 1.256-.81 1.765-1.355.577-.618 1.083-1.304 1.566-1.998.42-.606.805-1.238 1.14-1.895.392-.766.63-1.609.798-2.45.18-.9.266-1.819.374-2.73.056-.474.1-.955.122-1.43l.043-.901c.042-.858-.058-1.706-.182-2.553-.075-.516-.143-1.036-.227-1.55l-.165-1.011c-.038-.24-.107-.477-.164-.713-.254-1.06-.568-2.1-.864-3.146-.35-1.24-.688-2.482-1.02-3.725-.327-1.224-.654-2.45-1.054-3.65a24.592 24.592 0 00-2.061-4.537c-.367-.636-.745-1.263-1.12-1.893-.254-.427-.496-.861-.746-1.291-.27-.463-.526-.94-.82-1.388-.328-.5-.654-.996-1.006-1.479-.372-.512-.742-1.031-1.148-1.517-.225-.27-.448-.542-.686-.802-.291-.317-.634-.581-.969-.849a89.85 89.85 0 00-1.526-1.193 6.031 6.031 0 00-.613-.416c-.31-.181-.641-.318-.973-.457a4.706 4.706 0 00-1.486-.368 2.833 2.833 0 00-.214-.008c-.275 0-.546.04-.82.094"/><path d="M279.856 555.208c-.364.213-.56.527-.701.91-.803 2.206-1.513 4.44-1.895 6.758-.384 2.322-.395 4.73.326 6.99.308.97.711 1.91 1.103 2.848.34.818.687 1.632 1.074 2.428.669 1.38 1.33 2.764 2.012 4.137.73 1.472 1.434 2.962 2.236 4.396.803 1.43 1.607 2.844 2.556 4.182.524.738 1.16 1.392 1.778 2.049.272.29.57.559.852.835.27.264.547.534.839.775 1.29 1.076 2.63 2.065 4.081 2.915 1.417.832 2.866 1.595 4.412 2.158a25.1 25.1 0 001.552.508c.582.172 1.173.345 1.769.46.6.116 1.203.216 1.81.3.65.087 1.312.168 1.969.136.788-.038 1.588-.124 2.329-.412a6.914 6.914 0 001.258-.621c.35-.225.676-.509.989-.785.38-.335.696-.767.915-1.22.38-.794.482-1.686.604-2.547.11-.789.21-1.578.273-2.372.06-.8-.718-1.472-1.473-1.472-.389 0-.767.157-1.041.432-.078.098-.153.198-.23.297-.134.23-.201.478-.201.743-.01.07-.017.139-.026.208-.05.335-.103.668-.16 1.004-.133.78-.249 1.57-.506 2.323-.02.037-.04.072-.062.107a5.63 5.63 0 01-.582.549 5.403 5.403 0 01-.725.41 5.477 5.477 0 01-.812.208 11.2 11.2 0 01-1.983-.027 23.179 23.179 0 01-2.594-.52 26.24 26.24 0 01-2.794-.912 29.896 29.896 0 01-3.005-1.566 26 26 0 01-1.524-.944 36.206 36.206 0 01-1.412-1.025c-1.332-1.112-2.598-2.32-3.697-3.666-1.566-2.223-2.833-4.649-4.035-7.082-.585-1.184-1.178-2.363-1.743-3.557-.542-1.148-1.124-2.272-1.641-3.43a88.93 88.93 0 01-.563-1.37l-.354-.886a11.594 11.594 0 01-.684-2.483 15.34 15.34 0 01.015-3.403c.36-2.42 1.094-4.748 1.93-7.043.135-.37.04-.847-.153-1.177a1.541 1.541 0 00-1.316-.754c-.268 0-.536.07-.77.208"/><path d="M292.746 564.03c-.346.097-.666.467-.632.858a9.638 9.638 0 00.267 1.663 1.324 1.324 0 00-.105.222l-.273.134c-.465.229-.926.464-1.39.697a48.641 48.641 0 00-1.832.972c-.358.205-.696.443-1.04.673-.448.3-.741.768-.741 1.331 0 .69.458 1.3 1.098 1.487.102.03.2.047.298.056l.012.066c.087.437.386.856.76 1.082.2.121.413.185.629.204-.014.297.056.597.202.855a1.524 1.524 0 001.01.74l-.09.147c-.282.462-.263 1.09 0 1.556.048.085.103.162.164.234-.374.471-.39 1.21-.1 1.722.11.195.262.359.438.484a1.546 1.546 0 00.21 1.86c.098.13.22.238.364.319.228.137.476.205.74.206.352.045.706-.054 1.037-.171.292.068.575.16.858.271a17.34 17.34 0 013.24 1.968c.24.196.476.398.703.61l.201.308c.189.283.385.56.601.82.138.162.304.294.478.41.342.228.753.216 1.132.124.342-.084.65-.346.826-.655.126-.223.189-.462.189-.72a1.43 1.43 0 00-.189-.718c-.403-.861-1.132-1.532-1.834-2.14l-.037-.032a18.248 18.248 0 01-1.133-1.909c.318-.116.627-.253.902-.444.222-.138.4-.32.532-.549.2-.354.254-.783.149-1.177a1.534 1.534 0 00-.382-.675c-.099-.08-.2-.158-.3-.238a1.45 1.45 0 00-.748-.21c-.16-.016-.314-.032-.475-.036a4.003 4.003 0 01-.095.013 4.504 4.504 0 00-.033-.184 1.57 1.57 0 00-.182-.42 20.94 20.94 0 001.07-.707 1.53 1.53 0 00.537-.552c.134-.24.203-.5.203-.777 0-.658-.452-1.34-1.098-1.487a2.968 2.968 0 00-.427-.074 1.963 1.963 0 00-.239-1.155 1.76 1.76 0 00-.98-.8 1.562 1.562 0 00-.173-1.069 1.519 1.519 0 00-.537-.552 1.395 1.395 0 00-.767-.202l.226-.11c.253-.124.509-.226.693-.462a1.562 1.562 0 00.414-.808 1.4 1.4 0 00.228-.3c.195-.343.247-.761.145-1.144-.206-.77-1.02-1.265-1.774-1.036-.57.173-1.118.377-1.66.634-.098-.27-.194-.54-.313-.804-.13-.286-.453-.439-.756-.439a.8.8 0 00-.22.03M256.2 265.034c-1.647.055-3.294.11-4.941.187-.34.016-.644.106-.89.316a1.01 1.01 0 00-.369.763c0 .564.573 1.112 1.259 1.08 1.677-.079 3.355-.133 5.034-.188 1.19-.038 2.379-.027 3.57-.026 1.16 0 2.322.027 3.484.05.537.012 1.076.028 1.612.053l.941.044c.245.01.491.041.735.066.818.102 1.636.204 2.455.303.378.046.756.095 1.136.14.214.024.427.051.64.076.286.034.566.055.85.073.066.01.134.02.214.026.376.033.736-.208.921-.46.214-.296.187-.7-.014-.994-.214-.312-.558-.453-.93-.586a3.964 3.964 0 00-.744-.162 81.478 81.478 0 00-.828-.122c-.565-.08-1.13-.153-1.697-.227-.656-.084-1.313-.182-1.972-.242a48.06 48.06 0 00-3.409-.16 195.95 195.95 0 00-3.701-.044h-.576c-.928 0-1.853.003-2.78.034"/><path d="M258.039 266.013c-.595.01-1.188.02-1.783.036l-.955.027c-.331.01-.664.039-.994.06-.167.013-.307.13-.307.305 0 .158.14.316.307.304l.988-.06c.256-.014.514-.011.771-.019.53-.011 1.06-.02 1.592-.025 1.12-.01 2.237 0 3.358.033.347.009.695.03 1.043.047.323.018.647.06.969.093l.823.125c.238.036.474.085.71.13.34.066.681.131 1.02.202a.609.609 0 00.436.516c1.022.3 2.044.595 3.066.889 1.161.332 2.319.674 3.477 1.019.48.141.953.313 1.427.472.172.057.345.11.514.178l.761.306.342.144c.13.057.26.111.394.157a1.1 1.1 0 00.317.048c.12 0 .234-.03.337-.09.052-.038.101-.077.153-.116a.661.661 0 00.171-.643c-.056-.285-.32-.454-.558-.58a12.242 12.242 0 00-1.146-.516c-.487-.19-.984-.364-1.485-.512-.495-.145-.988-.297-1.486-.433l-1.733-.474c-.45-.122-.894-.262-1.345-.385-.305-.082-.613-.165-.918-.249-.269-.073-.544-.128-.815-.19-.456-.107-.92-.182-1.382-.262-.592-.103-1.185-.2-1.779-.295a20.889 20.889 0 00-3.11-.25c-.462-.003-.924-.005-1.385-.005-.599 0-1.197.004-1.795.013m-25.927-2.442l-.072.028.072-.028m-4.721-.57a3.063 3.063 0 00-.735.103 2.456 2.456 0 00-.833.357 2.88 2.88 0 00-.567.569 1.318 1.318 0 00-.204.346c-.072.173-.053.381-.036.563a14.413 14.413 0 00.288 1.792c.045.197.296.308.497.257a.37.37 0 00.282-.451c-.046-.205-.086-.409-.127-.613-.03-.21-.055-.422-.076-.634a3.208 3.208 0 01-.022-.587l.016-.052a1.2 1.2 0 01.05-.074 3.29 3.29 0 01.43-.393c.041-.025.084-.048.13-.068a3.16 3.16 0 01.53-.122 3.9 3.9 0 01.716.003c.323.05.63.152.946.228.312.077.63.128.942.207.342.087.678.19 1.016.284.238.065.478.103.727.125.151.012.316-.019.463-.046.162-.03.326-.109.472-.171.15-.062.293-.138.433-.214.255-.142.35-.447.198-.685a.56.56 0 00-.329-.23c-.154-.038-.282-.006-.424.051l-.023.01c-.203.071-.406.146-.618.186a1.58 1.58 0 01-.125 0c-.44-.076-.857-.24-1.293-.338a11.035 11.035 0 00-.607-.12c-.203-.034-.407-.058-.61-.095-.225-.041-.448-.092-.675-.128a4.922 4.922 0 00-.78-.061h-.052"/><path d="M225.113 266.115a.385.385 0 000 .545c.064.065.133.09.215.104a.53.53 0 00.138.17c.07.058.144.113.218.166.171.126.353.23.547.318.21.092.414.187.616.297.199.11.396.224.594.336.205.115.409.231.617.338.217.113.438.214.657.324.455.23.9.479 1.36.706.434.216.883.407 1.322.614.462.218.915.439 1.394.618l.156.057c.13.076.26.15.388.23a.444.444 0 00.65-.5c-.034-.122-.107-.191-.204-.265l-.012-.01.025.02-.026-.02a.433.433 0 00-.101-.158 1.228 1.228 0 00-.341-.224l-.028-.023a17.175 17.175 0 00-1.22-.935c-.2-.134-.404-.256-.609-.38a29.75 29.75 0 01-1.206-.774c-.195-.13-.4-.264-.613-.365a75.995 75.995 0 00-.693-.32c-.479-.215-.955-.436-1.46-.586-.235-.071-.476-.122-.717-.175a8.137 8.137 0 00-.704-.135 1.318 1.318 0 00-.283-.02 3.727 3.727 0 00-.433-.068.383.383 0 00-.247.115m-16.454 17.817c.075 1.367.19 2.737.207 4.107.007.726.017 1.449-.009 2.175-.023.694-.088 1.381-.15 2.072-.06.664-.158 1.327-.236 1.99-.072.602-.132 1.205-.199 1.809a87.607 87.607 0 00-.35 4.127c-.164 2.635-.229 5.278-.315 7.916a362.887 362.887 0 00-.162 8.017c-.013 1.305-.077 2.61-.099 3.914-.024 1.305-.06 2.608-.084 3.913a206.645 206.645 0 00-.04 4.204c.003 1.264.041 2.53.057 3.794.03 2.325.118 4.648.05 6.974-.032 1.117-.12 2.232-.19 3.348-.034.569-.08 1.14-.106 1.71-.014.294-.03.589-.032.883-.002.135-.002.269.002.404.005.181.04.36.077.536.01.197.067.389.176.563.155.252.466.522.784.569.326.05.424.063.747.006.156-.029.303-.093.433-.176.237-.15.444-.34.589-.575.068-.11.19-.38.224-.536.088-.414.137-.842.174-1.263.062-.681.116-1.365.165-2.046.091-1.287.174-2.57.207-3.859a77.31 77.31 0 00-.02-3.887 501.75 501.75 0 01-.093-4.067c-.022-1.269-.064-2.539-.059-3.809.007-1.423.025-2.845.054-4.269.054-2.55.064-5.103.059-7.655-.002-1.374-.005-2.748.016-4.121.02-1.36.008-2.717.008-4.074.002-2.662.053-5.324.11-7.984.024-1.152.122-2.302.181-3.452.064-1.25.113-2.5.155-3.75.037-1.191-.035-2.379-.098-3.57-.068-1.313-.181-2.624-.257-3.938a.975.975 0 00-.988-.932c-.517 0-1.015.425-.988.932"/><path d="M209.09 283.025c-.162.045-.361.171-.431.335a5.55 5.55 0 00-.338 1.073c-.078.386-.1.786-.122 1.18-.022.396-.033.792-.046 1.19-.02.62-.04 1.238-.055 1.857a84.681 84.681 0 01-.188 3.796c-.174 2.46-.25 4.92-.31 7.386-.028 1.132-.08 2.261-.123 3.393a354.65 354.65 0 00-.124 3.852l-.193 7.115a121.11 121.11 0 01-.41 7.25c-.207 2.365-.419 4.739-.498 7.113-.04 1.252-.074 2.505-.119 3.756-.041 1.186-.1 2.371-.113 3.558a197.91 197.91 0 00-.016 3.744c.009 1.207.076 2.41.119 3.616.031.888.015 1.775.01 2.663-.001.461-.016.926.017 1.385.049.712.085 1.453.445 2.086.28.493.88.733 1.42.583.213-.06.398-.168.554-.326.213-.215.405-.582.37-.897a1.394 1.394 0 01.004-.322c.08-.592.136-1.182.172-1.781.036-.595.048-1.194.066-1.792.037-1.148-.052-2.302-.094-3.448-.086-2.45-.076-4.908-.007-7.36.033-1.17.086-2.339.108-3.511.026-1.256.067-2.51.122-3.767.053-1.184.133-2.368.212-3.549.08-1.192.184-2.381.24-3.573.032-.662.054-1.324.077-1.987.018-.55.046-1.1.049-1.652.006-1.202-.045-2.404-.075-3.606-.06-2.443-.143-4.885-.178-7.33-.018-1.173-.003-2.347-.021-3.519-.016-1.24-.043-2.482-.067-3.723-.025-1.256-.037-2.51-.037-3.767 0-1.203.067-2.408.077-3.613.006-.868.01-1.736.014-2.604.004-.965-.003-1.946.096-2.906a5.52 5.52 0 01.21-.842c.078-.184.124-.345.068-.549a.725.725 0 00-.885-.507m32.848-43.015c-.009.022-.018.045-.028.066.01-.022.02-.044.028-.066m10.515-4.304l.107.046-.107-.046m-1.825-.51c.72.135 1.409.345 2.086.621l.217.093c.231.112.452.23.664.374.435.353.857.721 1.28 1.09.495.433.938.899 1.347 1.412.352.462.698.94.955 1.459.303.817.467 1.673.595 2.534.064.63.124 1.262.117 1.896a28.866 28.866 0 01-.094 2.117 7.617 7.617 0 01-.329 1.354 9.998 9.998 0 01-.962 1.644c-.524.64-1.112 1.23-1.75 1.753-.785.572-1.638 1.014-2.521 1.411-.29.108-.578.217-.87.32a13.07 13.07 0 01-2.299.585c-.386.043-.772.073-1.161.077a6.318 6.318 0 01-.842-.064 9.96 9.96 0 01-2.042-.547 8.194 8.194 0 01-1.398-.822 9.932 9.932 0 01-1.237-1.285 8.703 8.703 0 01-.887-1.529c-.227-.611-.387-1.256-.525-1.893a25.577 25.577 0 01-.3-1.634 14.71 14.71 0 01-.04-.39c.033-.508.068-1.016.12-1.523l.191-1.172c.069-.417.198-.818.329-1.218.117-.358.255-.709.386-1.061.118-.318.23-.636.353-.952.166-.366.356-.714.587-1.046.132-.16.269-.318.414-.47.16-.169.337-.32.518-.465.63-.462 1.308-.873 1.972-1.281.335-.205.665-.402 1.014-.579.332-.168.661-.347 1-.504a7.99 7.99 0 011.149-.358c.65-.055 1.315-.017 1.963.053m-1.964-3.178c-.627.037-1.222.198-1.809.41-.565.205-1.096.464-1.628.742-.146.076-.293.149-.44.224a6.897 6.897 0 00-.609.2 8.11 8.11 0 00-1.147.55c-.4.23-.764.522-1.125.806-.586.457-1.048 1.023-1.502 1.606a14.93 14.93 0 00-.404.542l-.127.173c-.075.103-.145.21-.21.32v.002c-.203.31-.352.656-.488 1.003-.155.362-.295.732-.42 1.105a12.474 12.474 0 00-.63 3.625l-.008.071c-.041.44-.085.877-.105 1.318-.033.699.005 1.396.08 2.088.078.702.153 1.411.297 2.103.08.377.157.754.244 1.13.1.437.275.853.454 1.262.193.443.41.862.675 1.263.943 1.43 2.223 2.662 3.775 3.396.769.363 1.576.642 2.41.811.45.091.908.14 1.363.194a7.57 7.57 0 001.502.001c.947-.079 1.89-.247 2.801-.518.495-.147.978-.336 1.463-.513.376-.137.743-.312 1.111-.471.268-.117.54-.256.796-.401.337-.19.674-.38 1-.593.4-.266.778-.571 1.147-.876a8.23 8.23 0 00.86-.809c.241-.265.489-.524.717-.8.438-.53.82-1.09 1.15-1.69.443-.806.79-1.666.925-2.58.105-.715.178-1.428.2-2.15.018-.592.034-1.184-.01-1.774a27.873 27.873 0 00-.196-1.822 11.45 11.45 0 00-.275-1.475c-.158-.581-.324-1.15-.576-1.699-.257-.558-.627-1.055-.99-1.55-.33-.446-.669-.907-1.055-1.308-.37-.383-.763-.734-1.164-1.085a27.988 27.988 0 00-1.072-.897c-.257-.201-.511-.416-.803-.569a9.676 9.676 0 00-.625-.292l.038.016-.049-.021c-.093-.04-.186-.08-.28-.118-.491-.208-.98-.406-1.494-.558-.669-.197-1.359-.299-2.052-.362a11.684 11.684 0 00-1.715-.03"/><path d="M246.017 234.48c-.03 1.786-.033 3.578.096 5.361.117 1.602.308 3.197.457 4.798.033.369.07.736.128 1.103.067.42.453.84.827 1.036.264.14.557.222.86.222.37 0 .73-.123 1.067-.253 1.028-.402 2.013-.911 3.019-1.36 1.454-.647 2.928-1.251 4.37-1.929l.957-.45c.409-.192.744-.391.996-.796.505-.81.038-1.977-.914-2.201a1.99 1.99 0 00-.955.009c-.223.048-.508.21-.726.31-.33.158-.661.313-.993.469-.693.328-1.39.644-2.096.943-.713.302-1.422.611-2.13.927-.486.217-.968.446-1.451.671l-.061-.519c-.107-.883-.214-1.764-.287-2.653-.156-1.892-.172-3.79-.14-5.688.012-.807-.699-1.48-1.513-1.48-.833 0-1.497.673-1.511 1.48"/></g></g></svg>