<svg width="180" height="200" xmlns="http://www.w3.org/2000/svg"><g fill="#FFF" fill-rule="evenodd" stroke="#18181A"><ellipse cx="5.441" cy="5.465" rx="5.441" ry="5.465" transform="translate(28 70)"/><ellipse cx="5.441" cy="5.465" rx="5.441" ry="5.465" transform="translate(141 70)"/><path d="M36.455 56.779c.134-.453.555-1.78 1.814-3.643 1.674-2.478 3.506-3.942 5.442-5.465a43.154 43.154 0 015.441-3.643c2.927-1.657 5.221-2.534 8.162-3.643 5.699-2.15 10.24-3.274 11.79-3.643.938-.224 4.77-1.122 9.976-1.822 2.317-.311 6.298-.835 10.883-.91 6.728-.112 11.722.793 17.232 1.82 5.1.953 11.494 2.184 19.045 5.465 1.94.844 4.868 2.218 8.162 4.554 5.112 3.625 6.83 6.532 7.256 7.287a17.856 17.856 0 011.813 4.553c.187.778.848 3.774 0 8.197-.43 2.242-1.804 5.168-4.534 10.93-1.254 2.647-2.191 4.616-3.628 7.286-1.595 2.966-2.207 3.823-3.628 6.375 0 0-2.495 4.486-4.534 9.108-2.982 6.763-4.218 12.519-5.442 18.216-1.219 5.676-1.16 7.242-2.72 13.661-.524 2.154-.833 3.224-1.814 7.287-1.192 4.934-1.273 5.585-1.814 7.286-.45 1.416-1.506 4.68-3.628 8.197-1.605 2.661-3.783 6.273-8.162 9.108-4.983 3.226-9.879 3.544-11.79 3.643-.752.039-4.046.176-8.162-.911-1.612-.426-4.731-1.28-8.162-3.643a24.6 24.6 0 01-6.349-6.376c-.428-.626-1.677-2.533-3.627-8.197-1.006-2.92-1.894-5.956-3.175-11.384-.532-2.258-.945-4.139-2.72-12.751-2.167-10.516-2.2-10.87-2.721-12.751-.321-1.158-1.765-6.288-4.535-12.75a105.013 105.013 0 00-5.441-10.93c-2.36-4.097-2.41-3.516-4.535-7.286-2.969-5.274-4.512-9.331-5.441-12.751a25.433 25.433 0 01-.907-6.376c-.03-2.277.277-3.498.453-4.098z"/></g></svg>