<svg width="500" height="600" xmlns="http://www.w3.org/2000/svg" xmlns:xlink="http://www.w3.org/1999/xlink"><defs><path id="a" d="M0 .027h94.94v32.806H0z"/></defs><g fill="none" fill-rule="evenodd"><path d="M240.685 236.04l-8.51 3.103c-4.825-1.092-8.217-1.29-10.175-.595-1.958.695-3.625 2.69-5 5.983l-3.973 11.88L208 272.767l-5.874 18.104 8.295 2.07 14.784 1.034H230l3 23.28v45.022l2.232 18.583 29.768-2.4 29-5.085 1-8.71-6.238-17.928-3.368-24.83 2.368-16.552 3.238-24.83.5 11.38c5.56.024 9.894-.666 13-2.068a180.675 180.675 0 0110-4.138l-7.927-18.622L299 249.558l-5.25-14.553-13.75 1.242-10-1.388 2 5.319-6 3.28-16.5 1.073-10.5-2.186 1.685-6.306z" fill="#BCD1EC"/><path d="M210.235 281.956c-.05.363-.094.723-.13 1.085-.161.014-.322.028-.484.04l-.045.004c.227-.373.448-.749.66-1.13m4.808-.717c-.012.515-.02 1.03-.04 1.546a9.639 9.639 0 01-.034.2c-.077.012-.154.02-.23.028.1-.592.202-1.183.304-1.774m.695-11.771c-.04.553-.086 1.106-.131 1.659l.007-.084-.019.216a5.659 5.659 0 00-.224-.655c.13-.377.254-.756.367-1.136m1.454-25.238l-.065.399a9.395 9.395 0 01-.033.054c-.512.839-.888 1.838-1.155 2.785-.466 1.649-.913 3.295-1.216 4.984-.192 1.07-.382 2.14-.57 3.21-.269.774-.558 1.543-.806 2.32-.424 1.332-.776 2.682-1.142 4.03a80.138 80.138 0 01-1.31 4.269c-.439 1.318-1 2.597-1.536 3.878a76.646 76.646 0 01-1.43 3.192 68.485 68.485 0 01-2.047 3.524c-.717 1.16-1.49 2.285-2.215 3.44-1.069 1.705-2.147 3.484-2.386 5.527-.151 1.301-.211 2.618.056 3.913.293 1.417.757 2.816 1.92 3.756.433.349 1.018.49 1.552.603.164.034.328.063.495.074 1.421.096 2.868-.175 4.264-.415.73-.126 1.457-.26 2.19-.374.291-.045.587-.064.88-.097.803-.088 1.567-.242 2.3-.606.452-.224.856-.46 1.225-.806.296-.279.58-.574.844-.882.273-.32.58-1.047.69-1.295.11-.25.203-.505.306-.756.376-.92.647-1.852.865-2.826.23-1.034.259-2.117.278-3.173.012-.715-.018-1.433-.033-2.148a247.16 247.16 0 01-.06-4.306c-.014-2.908.168-5.816.234-8.723.03-1.38.011-2.76.042-4.14.033-1.544.074-3.088.085-4.633a55.72 55.72 0 00-.065-2.69c.09-.405.176-.81.261-1.216.31-1.48.554-2.963.717-4.467.148-1.374.36-3.063.026-4.43-.101-.412-.196-.85-.356-1.259a5.737 5.737 0 00-.07-.716c-.103-.595-.335-1.48-.912-1.822a.934.934 0 00-.477-.146c-.801 0-1.241 1.323-1.346 1.968" fill="#9AABC0"/><path fill="#F9E6C8" d="M209.128 295l16.957 1-1.974 14.271-4.017 13.673L215 335l-10 .672-28.837-7.936-21.798-6.288-9.906-1.018-12.281-.732-8.135-1.99-.529-2.372 10.983-3.594 9.157-.943 1.288-1.846-.483-3.889h2.337l4.997 3.89 4.88 1.317 12.388.528 18.574 3.352 18.186 2.687zM292 290.348l6 16.19 2.938 13.137 4.394 8.52 5.855 1.804 11.301-4.193 28.861-15.833 27.08-15.078L382 292l7.492-1.652 9.08-6.353 6.727-8.588-1.822-1.46-10.172 3.782-14.876 5.041h-4.03l-.848-6.863h-2.124l-3.99 10.683-21.299 6.295-26.534 10.406-5.104 3.247-1-10.673-2.813-10.133zm-51-71.113l20.5-1.029v9.162l3.5 5.32 6 6.312v2.5l-7 2.897-14 1.655-11.315-2.821 2.315-7.372zm.313 344.936L253.55 566v6.5l-3.55 1.049-7.482-1.549-2.334-4zm30.805.061L284.266 563l5.734 9.543-4.47 4.457-9.687-1.664-4.843-4.922z"/><path fill="#F9E6C8" d="M241.118 572.232L253.266 571l5.734 9.543-4.47 4.457-9.687-1.664-4.843-4.922z"/><path d="M237.095 241.836a2.193 2.193 0 01-.12-.118 3.663 3.663 0 01-.13-.214 3.173 3.173 0 01-.094-.346 4.667 4.667 0 01.016-.614 2.23 2.23 0 01.043-.186 3.95 3.95 0 01.392-.376c.153-.11.31-.214.468-.316.231-.105.461-.21.691-.318a.82.82 0 00.337-.29l.166-.095.168-.097c.232-.135.467-.268.7-.4a21.276 21.276 0 01-.424 1.533l-.116.357a66.98 66.98 0 01-.283.85l-.07.2c-.11.32-.224.647-.283.987a1.415 1.415 0 00-.035.16c-.498-.215-.981-.431-1.426-.717m25.71-23.797c-.247.068-.564.258-.674.514-.155.362-.315.753-.412 1.186-.091.413-.14.869-.16 1.48-.02.603.03 1.215.077 1.807l.032.406.006.091c.044.605.09 1.23.174 1.84.089.656.172 1.314.254 1.973l.01.079c.086.703.176 1.43.387 2.12l.032.102c.077.26.158.528.25.788.161.457.366.903.526 1.241.097.204.192.409.287.613.18.39.362.78.554 1.165.258.518.563 1.047.93 1.618.41.636.82 1.251 1.34 1.794.594.617 1.197 1.228 1.8 1.839l.71.72.073.074c.334.34.669.678 1.008 1.011.173.17.357.328.515.46.125.106.252.207.382.307a15.59 15.59 0 01-2.708 1.531 25.63 25.63 0 01-1.928.682c-.343.107-.797.244-1.264.367-.31.082-.628.15-.936.214l-.24.05c-.855.183-1.71.365-2.566.542-.702.144-1.42.259-2.04.354a48.92 48.92 0 01-1.575.148c-.519.04-1.048.049-1.561.057l-.291.005c-.405.008-.812.012-1.218.012-.916 0-1.819-.017-2.657-.036-1.141-.023-2.3-.111-3.422-.196l-.358-.027a78.32 78.32 0 01-3.271-.338l-.26-.03a15.93 15.93 0 01-1.196-.205l-.095-.02c-.284-.06-.566-.12-.848-.187a9.083 9.083 0 01-1.205-.382c-.119-.052-.238-.107-.357-.16.233-.257.36-.51.498-.862l.12-.31c.088-.233.173-.484.252-.744l.085-.279c.14-.465.288-.944.407-1.424.126-.496.223-1.005.318-1.498l.04-.207.02-.1c.104-.535.212-1.088.292-1.636.19-1.299.303-2.603.404-3.827.08-.962.037-1.943-.003-2.891-.011-.272-.023-.545-.031-.816a118.983 118.983 0 01-.055-4.257c.003-.631.03-1.272.057-1.891l.013-.312c.03-.725.054-1.503.08-2.521a.873.873 0 00-.262-.638.955.955 0 00-.675-.288.939.939 0 00-.935.926 168.205 168.205 0 01-.236 5.008c-.032.562-.064 1.125-.094 1.688-.033.596-.055 1.193-.078 1.79-.051 1.332-.104 2.71-.264 4.058a65.323 65.323 0 01-.786 4.294c-.314.17-.628.344-.943.517l-.565.31a1.013 1.013 0 00-.714-.302 1.27 1.27 0 00-.542.139c-.972.45-1.96.89-2.941 1.307-.84.333-1.707.628-2.544.914-.28.096-.56.19-.838.287a107.922 107.922 0 01-1.99.663c.667.04 1.337.06 2.006.076.545.013 1.09.014 1.636.02.144 0 .291-.002.435.01.24.021.47.047.713.087.089.01.177.028.264.054.139.054.282.1.417.16.182-.083.36-.166.533-.247a3.791 3.791 0 00-.072.535c.188.15.344.331.47.54.276.388.391 1.019.275 1.506.145.149.303.277.454.39l.456.344c.24.18.48.361.72.544l-.01-.007.01.006v.001l.074.057-.002-.002c.21.161.42.322.634.481l-.186-.148c.545.417 1.099.786 1.766 1.225.867.567 1.885.851 2.87 1.126l.142.04c1.252.351 2.565.533 3.835.709l.3.041a77.88 77.88 0 004.849.51 61.857 61.857 0 005.024.196c.493 0 .903-.007 1.29-.023a26.45 26.45 0 002.22-.182c.932-.115 1.704-.23 2.43-.362.35-.064.698-.13 1.046-.195.36-.068.721-.136 1.083-.202l.345-.062c.561-.1 1.141-.203 1.697-.364.694-.2 1.431-.417 2.15-.667a14.731 14.731 0 003.756-1.925c.45-.325.924-.68 1.335-1.09.413-.41.811-.872 1.253-1.452.345-.452.576-.829.729-1.186l.046-.108.002-.004a1.992 1.992 0 01-.257-.56 1.99 1.99 0 01.204-1.538c.117-.197.287-.399.488-.563a9.83 9.83 0 00.009-.103 1.13 1.13 0 00.004-.1l.051.023.056.021.064.024c.167-.108.349-.187.533-.218.95-.161 1.9-.32 2.853-.456l-.205-.053c-.486-.127-.963-.283-1.425-.434a26.504 26.504 0 01-1.655-.578 4.496 4.496 0 01-.573-.318 24.479 24.479 0 01-.305-.264l-.052-.046a.93.93 0 00-.611-.237.818.818 0 00-.391.1 2.472 2.472 0 00-.626-.18 5.134 5.134 0 00-.784-.057c-.394 0-.78.036-1.186.073l-.077.006a1.56 1.56 0 00-.313.056l-.103-.013c-.225-.03-.452-.051-.677-.069l-.163-.013a4.982 4.982 0 00-.46-.028c-.185 0-.342.021-.479.065-.648-.6-1.277-1.19-1.824-1.837-1.21-1.592-2.121-3.062-2.784-4.493-.147-.36-.3-.743-.41-1.137-.12-.425-.225-.868-.31-1.32l-.022-.119c-.17-.9-.345-1.83-.492-2.75l-.01-.073c-.149-1.155-.304-2.35-.187-3.526a4.94 4.94 0 01.26-.918l-.017.033c.106-.268.149-.49.073-.76a1.122 1.122 0 00-1.09-.818c-.099 0-.199.014-.296.04" fill="#161616" fill-rule="nonzero"/><path d="M248.255 588.482l-.02-.066.036-.002.006.036.048.254-.07-.222zm-.748-3.16l-.01-.049a18.61 18.61 0 00-.163-.66c.154.037.314.06.472.082.001.095.007.191.015.288a9.072 9.072 0 00-.303.382l-.01-.043zm-.264-5.854c-.36-.057-.7-.13-1.035-.225a7.781 7.781 0 01-.962-.35 6.58 6.58 0 01-1.145-.643 3.762 3.762 0 01-.37-.365 4.92 4.92 0 01-.492-.833 3.809 3.809 0 01-.168-.654 6.81 6.81 0 01-.012-.818l.18-.692c.609.248 1.243.48 1.881.688.76.25 1.593.456 2.617.649.918.173 1.85.349 2.774.349l.159-.002c.56-.013 1.111-.068 1.64-.165.563-.103 1.08-.31 1.555-.52a3.69 3.69 0 00.354-.177l-.05.129-.072.2a6.66 6.66 0 01-.108.278 2.95 2.95 0 01-.166.304 28.29 28.29 0 01-.574.673c-.263.294-.52.58-.807.824-.589.43-1.252.823-1.971 1.167a4.57 4.57 0 01-.786.2 10.57 10.57 0 01-1.02.046c-.415 0-.867-.02-1.422-.063zm30.763-5.445a5.165 5.165 0 01-.75-.18 5.651 5.651 0 01-.556-.345 9.947 9.947 0 01-1.158-1.13 6.43 6.43 0 01-.552-.973 12.068 12.068 0 01-.52-2.104 11.449 11.449 0 01.028-2.519c.148-.985.394-1.934.64-2.813.057.035.118.068.18.1.852.444 1.767.778 2.575 1.07.863.315 1.726.537 2.764.794 1.054.263 2.148.407 3.09.522.745.09 1.354.152 1.916.194-.017.049-.03.099-.043.148-.065.268-.118.543-.17.81-.044.223-.084.442-.125.661-.15.812-.306 1.652-.588 2.447a5.004 5.004 0 01-.367.59c-.368.439-.804.86-1.375 1.33a9.823 9.823 0 01-1.59.907c-.619.24-1.264.42-1.915.536a5.719 5.719 0 01-.443.017c-.35 0-.707-.03-1.041-.062zm10.161-330.84l-.52 1.18-.025.053c-.497 1.117-1.012 2.271-1.343 3.476-.162.588-.33 1.213-.422 1.834a32.47 32.47 0 00-.249 2.219c-.026.322-.056.645-.085.97-.097 1.067-.197 2.173-.18 3.258.01.648.087 1.297.157 1.855.094.747.19 1.517.31 2.283.081.533.216 1.063.345 1.576l.105.416c.142.582.303 1.27.43 1.962.04.224.078.448.117.673.074.441.152.898.25 1.341.134.611.305 1.222.457 1.762.058.208.118.417.178.625.13.456.265.927.384 1.394.143.565.308 1.222.454 1.869l.063.284c.174.776.355 1.58.496 2.38.052.466.093.968.126 1.53.012.24.03.478.047.718.022.312.044.625.057.938.054 1.241.067 2.47.072 3.613.01 2.52-.265 5.038-.505 6.95-.346 2.398-.818 4.815-1.275 7.153l-.182.933c-.25 1.283-.482 2.59-.707 3.855l-.042.231c-.11.616-.204 1.172-.286 1.702l-.014.05a1.564 1.564 0 00-.05.29c-.02.092-.03.19-.03.295a1.58 1.58 0 00-.049.335 47.32 47.32 0 00-.214 1.805l-.143 1.414c-.096.935-.196 1.902-.277 2.855-.119 1.4-.216 2.824-.311 4.202l-.012.166a390.48 390.48 0 00-.292 4.856 534.634 534.634 0 01-.207 3.56c-.087 1.375-.176 2.798-.172 4.208l.004 1.232c0 .245.017.494.034.736.008.13.018.258.024.387.032.612.082 1.233.13 1.834l.026.342c.097 1.208.254 2.429.408 3.61l.072.56c.223 1.734.443 3.156.694 4.474.117.618.239 1.235.36 1.852.16.811.32 1.622.47 2.434.288 1.551.653 3.031.972 4.274.315 1.23.702 2.68 1.18 4.108.144.434.291.87.439 1.303.302.894.616 1.82.908 2.735.16.505.318 1.01.475 1.516.175.565.35 1.13.531 1.694l.23.705c.1.305.2.608.297.914.139.44.252.899.362 1.342l.05.197c.129.515.263 1.065.365 1.625l.139.773.172.947c.075.409.154.817.233 1.226.104.547.21 1.094.308 1.642.057.658.085 1.317.11 1.937a.797.797 0 00-.433.143c-.156.108-.31.222-.465.337-.346.255-.703.519-1.086.724l-.3.105c-.226.076-.451.177-.669.274l-.09.04c-1.09.444-2.386.936-3.72 1.228-.45.099-.913.173-1.36.246-.193.03-.383.061-.574.094-.24.04-.479.082-.719.123-.446.077-.892.154-1.339.225-1.102.133-2.297.21-3.76.247-1.347.033-2.788.088-4.197.258l-.5.06c-.659.076-1.337.157-1.997.278-.775.142-1.539.324-2.255.497-1.23.298-2.553.597-4.042.914l-.585.126c-.422.092-.843.183-1.264.267a53.11 53.11 0 01-1.934.343l-1.19.147c-.89.111-1.778.22-2.668.335-1.377.177-2.823.352-4.296.519-.388.044-.775.09-1.163.137a83.336 83.336 0 01-3.118.332c-1.128.091-2.278.127-3.39.161-.331.01-.663.02-.995.032a78.546 78.546 0 00-3.7.206c-.307.025-.614.054-.92.082-.282.027-.565.054-.848.077l-1.105.092c-.26.022-.534.034-.815.034-.57 0-1.176-.043-1.905-.135a13.05 13.05 0 01-1.25-.246 1.757 1.757 0 00-.01-.802c-.066-.29-.107-.58-.147-.86l-.051-.375a116.336 116.336 0 00-.484-3.265l-.126-.808a49.235 49.235 0 01-.27-3.734 91.087 91.087 0 01-.027-3.382c.002-.338.004-.676.004-1.014v-.469c.003-2.605.006-5.301.18-7.943.04-.62.084-1.238.129-1.857.057-.817.115-1.634.166-2.452.067-1.075.122-2.169.176-3.226l.065-1.266c.076-1.42.125-2.858.172-4.33.023-.734.054-1.467.086-2.2.028-.659.056-1.316.078-1.974.094-2.834.072-5.683-.064-8.472-.067-1.354-.152-2.732-.233-4.063l-.015-.243-.067-1.072a183.91 183.91 0 01-.177-3.002c-.017-.368-.035-.737-.051-1.106-.047-1.03-.095-2.094-.174-3.138-.072-.931-.153-1.86-.234-2.79-.045-.505-.09-1.01-.132-1.515a74.16 74.16 0 00-.513-4.395l-.142-1.003c-.14-.999-.286-2.031-.448-3.043l-.162-1.016c-.203-1.268-.414-2.579-.598-3.873a284.98 284.98 0 00-.542-4.18 128.03 128.03 0 00-.366-2.414c-.078-.495-.156-.99-.23-1.487-.154-1.259-.3-2.491-.374-3.728a760.71 760.71 0 00-.13-2.097l-.128-2.079c-.054-.89-.09-1.798-.128-2.673a138.466 138.466 0 00-.142-2.938l-.04-.738a77.917 77.917 0 01-.059-1.316l-.03-.74c-.073-1.72-.217-3.15-.453-4.5-.264-1.516-.67-2.953-1.032-4.158-.14-.466-.307-.933-.468-1.386-.065-.184-.13-.366-.193-.55a85.643 85.643 0 00-.683-1.878c-.265-.701-.523-1.403-.775-2.107-.096-.266-.188-.533-.281-.8-.13-.378-.262-.758-.402-1.133-.265-.711-.52-1.425-.775-2.139-.117-.327-.233-.654-.352-.981a24.1 24.1 0 00-.559-1.37l-.084-.195a230.13 230.13 0 01-.63-1.484c-.259-.635-.563-1.388-.858-2.152-.154-.4-.355-.93-.543-1.467a18.44 18.44 0 01-.501-1.758c-.064.05-.133.095-.204.138l-.042.018c-.207.732-.439 1.457-.64 2.19.12.35.248.7.38 1.056a241.394 241.394 0 001.122 2.956c.397 1.024.807 2.084 1.147 3.15l.252.784c.33 1.03.672 2.095.992 3.148.212.7.447 1.403.674 2.085.214.64.434 1.3.635 1.956l.017.052c.287.937.583 1.905.828 2.87a35.1 35.1 0 01.607 2.976c.125 1.048.272 2.43.287 3.816.015 1.462.037 2.945.065 4.409.013.674.015 1.346.018 2.02.002.71.004 1.444.02 2.165.02.975.062 1.965.102 2.922.017.388.032.777.048 1.165.026.67.059 1.462.106 2.246-.267.21-.46.5-.61.915-.108.302-.232.633-.393 1.038a4.039 4.039 0 01-.131.25 4.554 4.554 0 01-.19.182c-.144.09-.3.177-.476.263a6.184 6.184 0 01-.647.217c-.26.07-.54.13-.884.187a20.287 20.287 0 01-2.43.145c-.5 0-1.009-.014-1.5-.028l-.26-.007a42.492 42.492 0 01-2.32-.132l-.634-.049a67.73 67.73 0 01-1.487-.126c-.349-.061-.7-.139-1.04-.214l-.121-.027c-.364-.08-.739-.14-1.102-.197l-.3-.048-.169-.027c-.882-.143-1.795-.29-2.694-.417l.047.011-.243-.038a57.066 57.066 0 00-2.326-.29l-.53-.048c-.442-.04-.898-.081-1.344-.134a33.438 33.438 0 00-1.98-.237 40.515 40.515 0 00-.694-.05l-.119-.008c.082-.217.166-.438.254-.657.261-.6.536-1.204.812-1.8a8.41 8.41 0 01.318-1.42c.105-.337.21-.675.325-1.009.24-.694.478-1.389.72-2.081.44-1.254.863-2.506 1.37-3.732l-.086.207a41.527 41.527 0 001.898-5.64c.488-1.898.922-3.809 1.453-5.694.184-.657.385-1.307.594-1.955.212-.654.39-1.32.586-1.978.174-.588.368-1.171.56-1.753.095-.358.194-.713.298-1.068.102-.35.22-.697.343-1.042.33-1.246.584-2.51.917-3.756.16-.601.306-1.213.528-1.795.252-.662.54-1.312.82-1.963.095-.231.192-.463.289-.693l.015-.102c.06-.499.114-.997.182-1.494.042-.325.122-.642.181-.963a15.41 15.41 0 01.837-3.433c.46-1.241.942-2.47 1.472-3.68-.576.24-1.213.516-1.751.904a7.51 7.51 0 00-.968.81c-.197.195-.36.43-.518.659l-.067.095a3.57 3.57 0 00-.33.65l-.024.055c-.33.767-.568 1.548-.737 2.143-.114.399-.216.8-.319 1.203-.078.301-.154.603-.236.902-.15.553-.323 1.14-.53 1.793-.299.94-.564 1.906-.821 2.84-.107.39-.214.778-.323 1.166-.186.656-.387 1.318-.58 1.959-.2.652-.404 1.327-.592 1.994l-.213.761c-.285 1.028-.58 2.09-.923 3.118-.52 1.555-.947 2.865-1.346 4.204-.204.687-.419 1.37-.633 2.054a164.05 164.05 0 00-.538 1.736 44.642 44.642 0 01-1.108 3.28c-.246.623-.497 1.245-.747 1.866-.205.51-.412 1.02-.615 1.533a69.35 69.35 0 00-1.045 2.88c-.352 1.012-.714 2.058-1.121 3.069l-.274.627c-.28.644-.569 1.309-.867 1.957-.5 1.08-1.016 2.198-1.34 3.368-.2.721-.077 1.519.328 2.134.426.644 1.086 1.084 2.02 1.345.387.108.794.166 1.187.222.143.02.286.04.428.063l.04.006c.524.083 1.065.169 1.595.272.684.136 1.383.23 1.984.307l.817.11c.968.145 1.947.31 2.894.47l.923.154.407.068c.315.052.631.104.946.162l-.085.607c.353.007.706.012 1.06.016v-.003l.055-.4.07.02.303.069c.476.105.975.165 1.445.216.366.04.731.077 1.093.111.938.001 1.876.01 2.813.058.676.034 1.352.074 2.029.098.676.024 1.353.002 2.028-.026.098-.01.193-.022.287-.034 1.318-.162 2.7-.418 3.884-1.173.081-.052.162-.106.242-.162l-.11.703-.005.032c-.067.442-.14.878-.226 1.354a1.9 1.9 0 011.148.9c.144.264.296.54.337.842.045.319.104.643.132.962.03.363.026.727-.008 1.088l-.083.9a221.689 221.689 0 00.3 2.05c.114.764.229 1.527.332 2.292.106.784.215 1.567.325 2.35l.186 1.345c.142 1.196.24 2.415.335 3.594l.046.561.052.643c.092 1.11.186 2.259.237 3.391.087 1.965.19 3.963.292 5.894.044.858.089 1.716.132 2.576.021.419.044.837.068 1.256l.002.046c.087.31.171.62.237.933.189.894.31 1.802.366 2.714.05.808.125 1.617.079 2.427a32.79 32.79 0 01-.219 2.305 107.261 107.261 0 00-.384 3.689c-.016.17-.032.343-.05.514l-.02.464a319.94 319.94 0 00-.115 2.813c-.011.314-.023.63-.037.946a46.163 46.163 0 00-.003 3.096c.046 1.229.033 2.461.034 3.69 0 .608-.043 1.213-.056 1.82a82.531 82.531 0 01-.06 2.082c-.056 1.258-.034 2.522-.035 3.782v3.873c0 .606-.025 1.22.005 1.825.011.252.029.503.042.754.016.362-.007.647-.069 1.024a1.998 1.998 0 01-1.238 1.35 1.623 1.623 0 00.564.04c.006.318.022.64.039.961l.022.445c.064 1.378.224 2.806.49 4.362l.118.705c.17 1.03.348 2.093.604 3.12.05.2.1.398.158.595l.025.076c0 .303.15.604.4.8a106.98 106.98 0 01-.017 3.36c-.042 2.098-.219 4.177-.396 6.124-.028.306-.058.611-.088.917a41.868 41.868 0 00-.18 2.187c-.044.96-.074 2.003-.089 3.187-.01.776.01 1.567.032 2.332.008.285.015.571.021.856.013.596.033 1.193.054 1.788.016.454.031.907.044 1.36l.024.887c.046 1.752.094 3.562.168 5.343.045 1.06.088 2.12.13 3.178.042 1.066.086 2.132.13 3.198.042.966.085 1.966.097 2.95l.018 1.778.015 1.478c.02 1.662.084 3.353.145 4.99l.042 1.152c.016.43.03.86.043 1.29.02.643.04 1.286.066 1.93.052 1.257.116 2.484.172 3.52.093 1.758.172 3.624.25 5.874.053 1.54.098 3.078.143 4.617.023.77.044 1.538.068 2.307.053 1.738.078 3.504.102 5.213l.017 1.242c.01.621.026 1.243.044 1.864.01.36.02.717.028 1.075l.018.763c.016.763.034 1.526.058 2.29l.026.806a476.1 476.1 0 00.21 5.946c.076 1.727.186 3.48.293 5.176l.075 1.191c.04.64.098 1.29.155 1.919.031.348.062.697.091 1.046.082.998.144 1.987.21 3.085.166 2.723.363 5.49.554 8.165.11 1.551.22 3.103.326 4.656.046.68.075 1.375.104 2.047.013.332.027.666.043.998l.085 1.773.087 1.774c.089 1.86.188 4.063.252 6.297.027.95.078 1.915.127 2.849.057 1.11.117 2.257.139 3.386.047 2.356.054 4.737.056 6.755 0 1.703-.008 3.405-.015 5.109l-.004 1.024c-.004.859.021 1.733.045 2.577l.013.422c.012.45.023.902.032 1.352.013.628.027 1.255.05 1.881.014.427.036.852.058 1.277.028.566.057 1.15.07 1.727.02.906.034 1.86.039 2.911a491.18 491.18 0 01-.032 7.052c-.02 1.527-.042 3.107.065 4.659.134 1.965.421 3.894.853 5.732.206.873.359 1.636.47 2.334.076.767.114 1.54.14 2.194.03.74-.033 1.446-.099 2.04-.05.32-.103.64-.158.96a31.07 31.07 0 00-.266 1.753c-.115 1.007-.147 2.035-.163 2.907-.019.917-.04 1.955.057 2.969.048.515.131 1.06.27 1.766.108.555.223.994.36 1.38.117.323.283.743.54 1.12.148.214.31.42.482.61.168.186.389.348.601.503l.17.126c.176.136.367.264.58.391a2.416 2.416 0 00-.078.173l-.027.063c-.175.398-.325.788-.46 1.194-.209.629-.373 1.284-.532 1.918l-.011.046-.009.036c-.165.664-.337 1.352-.437 2.04a14.48 14.48 0 00-.14 1.28c-.02.366-.022.727-.021 1.032.006 1.818.154 3.284.467 4.617l.032.135c.14.6.285 1.22.506 1.807.298.792.664 1.559.982 2.206.224.454.48.902.73 1.334l.197.344c.154.268.32.554.507.828.14.206.305.422.519.681l.07.117c.14.226.297.455.482.696l.018.022c.154.203.315.412.492.601.236.25.507.48.878.744.158.114.343.191.52.266l.041.018c.235.1.43.176.615.241a6.3 6.3 0 00.326.171c.539.266 1.169.559 1.822.67.47.08.863.123 1.237.136h.1c.371 0 .748-.055 1.113-.11l.128-.018c.34-.05.652-.11.954-.183.421-.1.816-.274 1.251-.474.618-.283 1.171-.706 1.642-1.08l.345-.28c.25-.205.47-.496.651-.753.18-.252.35-.509.522-.766.331-.5.674-1.019.966-1.556.113-.21.214-.433.31-.648l.065-.145c.194-.43.352-.815.482-1.178.196-.551.36-1.157.486-1.8.283-1.428.376-2.874.434-4.226.061-1.41.03-2.787-.092-4.09-.103-1.104-.35-2.198-.592-3.226a36.206 36.206 0 00-.345-1.348c-.06-.294-.117-.571-.191-.84-.092-.334-.197-.687-.374-.997a1.487 1.487 0 00-.07-.136c.2-.232.396-.47.59-.71l.238-.29c.265-.32.539-.654.782-1.004.32-.459.517-.998.708-1.518l.062-.17c.136-.37.311-.86.46-1.366.335-1.134.537-2.023.655-2.88a31.08 31.08 0 00.27-3.422c.015-.517.022-1.034.03-1.55.008-.624.017-1.27.039-1.905.016-.475.055-.96.091-1.426l.004-.051c.047-.597.088-1.052.137-1.474.12-.755.3-1.507.474-2.237l.047-.2c.246-1.036.411-1.838.538-2.598.232-1.395.4-2.822.562-4.202.07-.588.138-1.173.212-1.76.196-1.548.334-3.126.467-4.651.045-.505.088-1.01.135-1.515.194-2.116.32-4.217.442-6.248.07-1.145.128-2.29.186-3.436.049-.948.097-1.895.151-2.843.148-2.6.252-4.76.324-6.8.017-.485.032-.97.045-1.455.016-.52.03-1.04.049-1.56l.009-.262c.034-.942.068-1.916.084-2.876.015-.926.019-1.851.022-2.777.004-1.163.01-2.364.037-3.545.062-2.535.1-4.644.119-6.636.017-1.64.017-3.31.017-4.922v-1.753c.002-1.59.041-3.206.079-4.769l.036-1.54c.045-2.142.053-4.29.054-6.11l.002-3.992c0-2.986.002-5.973.012-8.96l.011-3.083.012-3.228c.002-.701.002-1.403.003-2.105 0-1.38.001-2.807.016-4.21.013-1.29.047-2.602.08-3.87a385.1 385.1 0 00.063-2.649c.032-1.729.036-3.487.041-5.187l.003-1.092.006-1.542.006-1.543v-.33l.007-.977c.003-.515.032-1.038.06-1.542l.013-.244c.115-2.088.291-4.189.448-5.995.008-.093.02-.186.032-.278l.032-.217c.096-.667.194-1.333.3-1.998.037.535.071 1.077.097 1.614.064 1.342.195 2.702.32 4.018l.027.274c.272 2.84.554 5.775.82 8.698.085.934.14 1.887.192 2.807.031.545.062 1.088.1 1.63l.04.574c.084 1.244.173 2.53.28 3.793.086 1.015.148 2.048.208 3.047.028.45.055.898.084 1.346.045.701.086 1.403.128 2.103a373.02 373.02 0 00.24 3.79c.16 2.372.325 4.825.34 7.244.016 2.956.032 5.912.045 8.867.021 4.45.06 8.974.1 13.35l.041 5.01c.049 5.912.084 11.876.12 17.975.025 4.17.043 8.338.062 12.507l.024 5.21c.014 3.166.033 6.266.098 9.39.064 3.101.33 6.277.565 9.079l.3 3.587.15 1.786a162.7 162.7 0 00.549 5.207l.07.62c.014.117.034.253.079.378-.189.912-.359 1.847-.523 2.75l-.014.075c-.097.533-.173 1.08-.247 1.607l-.072.52-.05.347c-.088.6-.178 1.22-.22 1.834-.04.566.014 1.138.066 1.69l.007.072c.082.875.166 1.581.264 2.22.092.601.255 1.2.513 1.884.233.62.535 1.215.826 1.789l.12.238c.108.213.243.417.373.616l.133.204c.25.394.523.77.812 1.12.465.565 1.043 1.08 1.82 1.616a19 19 0 00.767.503c.44.272.937.47 1.322.612l.14.052c.234.088.476.179.723.227a46.755 46.755 0 002.056.36l.217.032c.256.037.512.076.768.106.174.021.347.031.53.031.442 0 .87-.058 1.308-.124 1.179-.176 2.225-.775 3.237-1.356l.089-.05c.654-.376 1.25-.86 1.825-1.329l.156-.126a8.74 8.74 0 001.326-1.352c.316-.4.568-.742.794-1.076.17-.255.32-.531.463-.798l.054-.1c.355-.652.646-1.38.916-2.291a17.3 17.3 0 00.708-4.557c.015-.761-.08-1.595-.283-2.48a6.69 6.69 0 00-.273-.88l-.015-.04-.026-.07a5.33 5.33 0 00.608-.353c.802-.543 1.514-1.231 2.201-1.895.648-.627 1.065-1.449 1.419-2.244.177-.4.307-.777.398-1.153a26.4 26.4 0 00.174-.789c.45-2.174.255-4.436-.004-6.756-.11-.99-.219-2.053-.265-3.13a28.165 28.165 0 01-.02-1.6c.006-.498.05-.977.104-1.506.101-.727.218-1.505.359-2.38l.08-.492c.14-.856.284-1.741.366-2.616.073-.76.123-1.535.17-2.284l.052-.785c.026-.378.055-.755.084-1.131.047-.6.094-1.22.126-1.83a95.6 95.6 0 01.071-1.238c.032-.52.063-1.039.086-1.558.022-.535.044-1.052.057-1.57.012-.437.003-.882-.005-1.311l-.003-.162c-.009-.39-.042-.79-.075-1.175l-.014-.171a21.54 21.54 0 00-.218-1.902c-.062-.358-.126-.715-.19-1.073a96.009 96.009 0 01-.295-1.688 35.586 35.586 0 01-.19-2.659c-.032-1.005-.042-2.03-.05-2.99-.01-1.117.027-2.252.062-3.349.026-.795.053-1.62.061-2.428.036-3.289.037-6.633.04-9.868v-2.322l.01-7.495c.007-5.765.014-11.53.017-17.296v-.52c.001-1.835.002-3.731-.015-5.598-.01-1.06-.04-2.136-.069-3.177-.023-.881-.05-1.792-.062-2.688l-.009-.672c-.024-1.78-.049-3.619-.16-5.425a580.74 580.74 0 00-.41-6.259c-.085-1.17-.155-2.36-.224-3.512a309.12 309.12 0 00-.17-2.765c-.066-.954-.108-1.924-.148-2.862-.042-.997-.086-2.027-.158-3.039-.141-1.97-.225-4.002-.249-6.041-.02-1.88-.032-3.869-.033-6.079 0-1.007-.003-2.015-.01-3.022a82.373 82.373 0 00-.047-2.005 107.14 107.14 0 01-.033-1.129c-.016-.685-.022-1.37-.027-2.055a440.77 440.77 0 00-.01-1.03c-.012-.895-.059-1.804-.103-2.683l-.01-.207c-.018-.36-.035-.721-.051-1.082-.028-.62-.056-1.24-.092-1.86-.062-1.076-.15-2.145-.236-3.147-.161-1.892-.258-3.817-.35-5.678l-.02-.382c-.02-.39-.035-.779-.051-1.168-.027-.625-.054-1.27-.094-1.906a68.976 68.976 0 01-.118-3.009 90.62 90.62 0 01.025-3.303c.015-.781.031-1.59.031-2.383 0-.72-.006-1.442-.012-2.163a135.685 135.685 0 010-3.828c.016-.816.064-1.644.11-2.445l.03-.56c.04-.722.126-1.455.21-2.164l.063-.536c.061-.541.122-1.173.06-1.816 0-.265-.064-.517-.187-.752a.66.66 0 00.216-.1l.08-.061.078-.06a.81.81 0 00.16-.235 1.528 1.528 0 001.406-1.105c.223-.774.347-1.55.467-2.478.033-.26.039-.53.046-.79l.006-.228c.01-.277.01-.554.01-.833v-.219a7.824 7.824 0 00-.082-1.008c-.065-.503-.143-.99-.21-1.4-.057-.35-.12-.7-.184-1.05-.048-.268-.096-.536-.142-.804l-.091-.54a52.336 52.336 0 00-.25-1.416 39.214 39.214 0 00-.478-2.049l-.014-.052a27.546 27.546 0 00-.501-1.676l-.06-.187c-.164-.508-.324-1.015-.481-1.525.024.005.043.005.064.005h.03a88.604 88.604 0 00-.479-1.304c-.23-.61-.482-1.209-.671-1.833-.11-.365-.214-.73-.32-1.095l-.121-.354a290.18 290.18 0 00-.43-1.25l-.277-.81a34.91 34.91 0 01-.54-1.78l-.083-.287c-.31-1.088-.61-2.191-.889-3.279.068-.042.13-.09.19-.14a16.132 16.132 0 00-.168-.673c-.153-.56-.33-1.114-.501-1.668-.203-.654-.39-1.312-.612-1.96-.194-.57-.295-1.16-.384-1.756-.106-.7-.218-1.401-.313-2.103l-.076-.558-.033-.202c-.213-1.309-.39-2.592-.582-4.014a90.814 90.814 0 01-.386-4.297c-.089-1.44-.056-2.87-.011-4.08.095-2.652.227-5.47.402-8.614.108-1.926.227-3.976.396-5.99.06-.749.14-1.506.214-2.24l.06-.586c.025-.247.05-.493.072-.74.065-.676.132-1.375.22-2.06v-.013l.001-.008v-.03l.01-.043.01-.068.01-.083.005-.028v-.014l.052-.378.009-.073.005-.038c.124-.77.25-1.516.371-2.209.01-.381.036-.763.082-1.142.06-.503.139-1 .219-1.501.095-.599.199-1.197.303-1.794.16-.91.384-1.793.657-2.668.176-1.018.352-2.056.51-3.083a61.125 61.125 0 00.582-5.4c-.15-2.352-.277-4.705-.505-7.05-.12-1.215-.216-2.434-.348-3.648a3.394 3.394 0 01-.176-.255c-.239-.382-.383-.824-.536-1.249-.053-.149-.111-.303-.147-.457-.14-.612-.217-1.228-.297-1.85a6.885 6.885 0 01-.066-1.052 27.383 27.383 0 01-.713-2.478c-.227-.983-.367-1.982-.509-2.981-.168-1.19-.355-2.38-.522-3.57l-.109-.412c-.229-.866-.358-1.775-.485-2.653l-.048-.342a14.197 14.197 0 01-.133-1.63 32.09 32.09 0 01.046-1.887c.014-.276.026-.553.039-.83.041-.925.084-1.883.188-2.82.21-1.24.438-2.231.714-3.115.077-.247.159-.492.246-.736-.093-.607.004-1.296.34-1.802.273-.414.543-.833.817-1.248-.09-.374-.175-.75-.248-1.127a99.54 99.54 0 00-.946-.025c-.178.397-.352.794-.524 1.184z" fill="#161616" fill-rule="nonzero"/><path d="M219 354.291a2.789 2.789 0 01.5.209l-.393-.5a9.14 9.14 0 01-.107.291m59.2-118.242c-.556.074-1.107.199-1.657.312-.398.083-.62.62-.519 1.03a.84.84 0 00.341.501c.123.08.246.11.374.108a69.72 69.72 0 012.128-.375c.413-.066.827-.123 1.237-.202.3-.057.599-.129.896-.204a2.9 2.9 0 00-.582-.668 2.38 2.38 0 00-.284-.197c-.073-.035-.145-.073-.216-.11a2.826 2.826 0 00-.64-.201 2.5 2.5 0 00-.474-.043c-.2 0-.4.021-.604.049m-46.027 93.99a2.916 2.916 0 00-.173.053c.17.78.28 1.573.333 2.37.05.754.127 1.51.08 2.266l-.019.272c.117-.076.226-.164.34-.243.29-.198.587-.387.866-.596.146-.109.31-.394.359-.556a.958.958 0 00-.028-.635c-.076-.19-.18-.389-.347-.528.018-.028.036-.055.052-.083.162-.287.144-.63-.08-.88.13-.305.108-.655-.074-.944a1.2 1.2 0 00-1.31-.496m-15.626-58.893a1.08 1.08 0 00-.506.64c-.07.247-.058.61.11.825 1.374 1.737 2.782 3.447 4.18 5.166l.981 1.338c.328.446.625.916.936 1.374.27.396.514.81.769 1.217.269.425.528.861.774 1.3.544.974 1.081 1.951 1.618 2.929.253.459.51.916.77 1.372.28.49.61.947.965 1.385a1.1 1.1 0 001.311.164c.395-.224.66-.749.498-1.19-.438-1.185-1.017-2.306-1.636-3.412a66.798 66.798 0 00-1.941-3.272c-.34-.534-.696-1.057-1.05-1.581-.142-.212-.297-.415-.446-.621-.185-.259-.364-.524-.558-.777-.419-.544-.822-1.105-1.265-1.631l-1.27-1.512c-.89-1.058-1.773-2.12-2.633-3.2l.04.05-.143-.18-.172-.216a1.109 1.109 0 00-.777-.314c-.194 0-.387.05-.555.146m2.617 14.006a.508.508 0 000 .746c.623.589 1.259 1.164 1.895 1.74.42.38.86.74 1.293 1.107.217.186.446.362.67.543.104.084.22.162.328.242.133.097.262.198.4.29a23.496 23.496 0 001.044.658c.184.105.372.186.573.263.242.092.5.147.753.207l.185.038c.293.06.594-.078.676-.36.082-.275-.096-.552-.384-.633a10.14 10.14 0 01-.77-.244c-.272-.119-.52-.272-.774-.422a17.127 17.127 0 01-1.24-.818c-.248-.194-.5-.385-.74-.587l-1.03-.864c-.293-.246-.569-.513-.853-.77a75.076 75.076 0 01-1.231-1.136.576.576 0 00-.397-.152.582.582 0 00-.398.152m10.08-22.796c-.152.673-.313 1.343-.456 2.02-.142.67-.284 1.342-.42 2.014a50.197 50.197 0 00-.371 2.028 42.685 42.685 0 00-.27 2.129 91.338 91.338 0 00-.227 2.414l-.152 1.909c-.03.396-.05.793-.073 1.19-.026.459-.05.917-.07 1.377-.04.958-.087 1.916-.173 2.87l-.03.316a.37.37 0 00.22.363.248.248 0 00.232-.038.365.365 0 00.138-.225 58.82 58.82 0 00.288-3.116c.06-.883.118-1.765.196-2.646.126-1.417.246-2.834.397-4.247l-.014.128c.075-.698.16-1.395.267-2.086.106-.681.233-1.356.368-2.029.135-.673.279-1.343.42-2.013.148-.704.314-1.401.473-2.101.058-.254-.068-.526-.269-.596a.302.302 0 00-.1-.017c-.17 0-.326.143-.374.356M289 268.223c0 .684.326 1.324.816 1.667.06.042.122.079.184.11a29.772 29.772 0 01-.492-2.088c-.058-.303-.11-.607-.158-.912-.212.357-.35.78-.35 1.223" fill="#161616" fill-rule="nonzero"/><path d="M274.016 236.332c-.066.241.08.48.313.552 1.106.341 2.211.683 3.319 1.02l.316.096a72.447 72.447 0 011.633-.25l.403-.055a32.96 32.96 0 00-.541-.17c-.896-.273-1.792-.55-2.687-.828l-2.204-.678a.405.405 0 00-.12-.019c-.195 0-.38.14-.432.332" fill="#161616" fill-rule="nonzero"/><path d="M272.258 236.24a.787.787 0 00-.258.576c0 .214.094.422.258.574l.179.126a.926.926 0 00.446.111l3.144.373c.109-.046.22-.08.333-.097 1.097-.173 2.194-.344 3.296-.485.47-.061.942-.115 1.409-.188.314-.048.625-.109.935-.172a68.38 68.38 0 01-1.823-.163c-1.136-.146-2.27-.298-3.407-.432l-3.887-.46a.526.526 0 00-.058-.003c-.205 0-.432.116-.567.24m19.742.868c.248.125.495.256.737.392.07-.171.161-.337.263-.5l-1 .108" fill="#161616" fill-rule="nonzero"/><path d="M292.348 237.034l-.348.058c.126.131.252.267.376.408.034-.17.077-.336.124-.5l-.152.034m-10.934.466l.15-.033.436-.096a57.134 57.134 0 01-1-.371c.077.195.222.37.414.5" fill="#161616" fill-rule="nonzero"/><path d="M278.371 236.09c-.927.132-1.849.296-2.771.451-.44.073-.684.55-.573.917a.766.766 0 00.377.446c.202.107.407.112.631.075.895-.15 1.788-.309 2.69-.431.38-.038.757-.041 1.139-.035.158-.021.317-.043.474-.067.43-.066.853-.155 1.277-.243l.385-.08a27.357 27.357 0 01-1.893-.709c-.293-.125-.577-.267-.866-.4l-.029-.014c-.281.022-.561.05-.84.09m13.628-.072l.028.016c.252.146.503.302.75.466.058-.172.135-.337.222-.5l-1 .018" fill="#161616" fill-rule="nonzero"/><path d="M276.52 237.018a.719.719 0 00-.427.26.503.503 0 00.151.722 129.2 129.2 0 012.756-.35l-.533-.12c-.195-.043-.386-.108-.577-.165a100.52 100.52 0 01-.82-.29 1.109 1.109 0 00-.374-.075.866.866 0 00-.176.018m17.733 6.813c.168.571.376 1.129.56 1.694.03.091.059.184.087.276l.079.189c.57 1.405 1.066 2.844 1.654 4.241.286.68.59 1.35.897 2.02.288.626.56 1.26.831 1.893.351.876.692 1.754 1.052 2.623.361.87.741 1.73 1.136 2.585.765 1.661 1.53 3.323 2.238 5.012.111.284.218.575.35.848l.38.79c.205.426.438.837.66 1.252.505.935 1.057 1.839 1.592 2.754.245.419.478.844.734 1.257.289.466.582.927.885 1.384.594.9 1.233 1.77 1.887 2.624l-.064-.085c.278.367.563.728.843 1.093.3.403.595.809.87 1.229.33.506.606 1.048.906 1.57.284.495.558.996.884 1.462.23.328.418.674.588 1.033-.357 0-.621.15-.886.376l-.071.061c-.304.24-.602.485-.903.727-.367.276-.747.53-1.15.745-.459.246-.922.482-1.384.719-.444.23-.891.454-1.329.698-.428.24-.851.48-1.294.69a54.62 54.62 0 01-4.181 1.54c-.348.113-.693.229-1.045.328a54.605 54.605 0 01-3.056.51c-.974.115-1.945.188-2.926.217-.473.015-.947.02-1.421.023l-.702.002-.355.001-.262.002c-.27.004-.456.074-.692.201-.4.215-.645.699-.645 1.152 0 .24.06.465.178.673.153.267.464.567.778.613.264.039.528.084.794.1l.515.03c.29.017.581.011.871.015.484.008.974-.01 1.457-.044a37.239 37.239 0 003.594-.415c.537-.091 1.073-.177 1.606-.284.308-.06.61-.132.91-.215l.203-.04c.559-.113 1.12-.22 1.677-.342.505-.11 1.018-.198 1.518-.33.989-.262 1.951-.631 2.916-.968 1.001-.35 2.005-.696 2.988-1.093.502-.203.995-.444 1.482-.68a6.865 6.865 0 001.459-.942c.451-.386.85-.867 1.192-1.356.148-.209.283-.424.416-.642.332-.54.46-1.203.445-1.833-.016-.674-.29-1.32-.604-1.902a8.023 8.023 0 00-.495-.806c-.205-.292-.379-.607-.558-.915-.197-.341-.395-.682-.584-1.029-.772-1.418-1.79-2.66-2.767-3.932a54.703 54.703 0 01-1.63-2.33c-.601-.906-1.125-1.858-1.685-2.79a64.704 64.704 0 01-1.563-2.743c-.264-.49-.507-.988-.749-1.49-.112-.23-.196-.477-.296-.713a71.763 71.763 0 00-.33-.775 154.796 154.796 0 00-1.703-3.744c-.312-.671-.631-1.34-.931-2.016-.26-.586-.51-1.178-.758-1.768a66.602 66.602 0 00-1.519-3.553c-.262-.565-.55-1.117-.819-1.68-.262-.55-.491-1.117-.731-1.677l.12.291c-.44-1.07-.9-2.13-1.38-3.183-.207-.457-.426-.925-.692-1.348-.13-.206-.28-.398-.428-.592a32.925 32.925 0 00-.58-.755c-.094-.118-.19-.235-.284-.354a3.136 3.136 0 00-.678-.623 3.204 3.204 0 00-.756-.387c.18.953.382 1.902.654 2.831z" fill="#161616" fill-rule="nonzero"/><path d="M268.737 235.036a.929.929 0 00-.292.089c-.151.075-.233.175-.333.292-.163.194-.135.496 0 .692a.846.846 0 00.543.333c.056.014.113.023.17.038.092.023.187.042.28.066.09.023.18.046.27.071.185.053.37.104.556.153.35.09.708.19 1.067.249.787.13 1.579.222 2.372.32.436.053.872.108 1.307.17l.047.012c.53.143 1.064.272 1.598.4.092.022.16-.02.188-.079a16.578 16.578 0 00.809.158c.867-.125 1.733-.247 2.604-.35.431-.052.864-.098 1.293-.16.42-.06.835-.141 1.25-.222l.534-.104c-.2-.062-.4-.126-.598-.195-.36-.126-.721-.242-1.09-.347a12.94 12.94 0 00-1.035-.26c-.745-.141-1.5-.243-2.254-.353-.472-.07-.938-.165-1.411-.236a27.22 27.22 0 00-1.786-.197c-.957-.08-1.914-.15-2.869-.235a38.274 38.274 0 01-1.31-.187 19.118 19.118 0 00-.957-.128 5.097 5.097 0 00-.366-.023c-.052-.001-.105-.003-.158-.003-.144 0-.29.01-.43.036M294.657 244c.41-.386.45-.92.133-1.358-.187-.257-.468-.475-.79-.642.188.672.399 1.34.657 2M290 242.5a34.98 34.98 0 01-.083-.471A92.597 92.597 0 00289 242c.329.18.664.34 1 .5m-49.273-6.496c-.448.044-.909.087-1.344.21-.316.088-.62.202-.925.322-.425.168-.847.346-1.26.54-.329.152-.644.33-.966.497a6.814 6.814 0 01-1.011.211c-.753.09-1.511.178-2.267.22-.44.025-.878.057-1.317.062a73.3 73.3 0 01-1.268.003c-.883-.005-1.768-.004-2.65-.054a45.188 45.188 0 01-2.58-.22 58.818 58.818 0 01-1.39-.198c-.617-.097-1.22-.244-1.844-.298a4.576 4.576 0 00-.756-.005 11.55 11.55 0 00-.87.11c-.44.07-.86.247-1.26.427-.115.051-.22.133-.323.201a3.71 3.71 0 00-.435.338c-.081.077-.164.153-.24.235-.243.26-.468.542-.685.823a14.4 14.4 0 00-.89 1.284c-.32.526-.539 1.116-.76 1.685-.186.475-.34.953-.465 1.446-.131.524-.264 1.047-.383 1.573a38.15 38.15 0 00-.534 2.858c-.13.889-.249 1.777-.363 2.667-.23.798-.446 1.599-.7 2.389-.17.53-.347 1.056-.521 1.584-.166.5-.274 1.025-.405 1.535-.077.293-.154.587-.234.88l-.442 1.13c-.114.29-.22.585-.32.881-.058.17-.12.338-.17.51-.079.266-.165.571-.147.846.03.466.24.882.673 1.126a1.39 1.39 0 00.804.173c.086-.263.18-.523.277-.783.337-1.218.597-2.453.938-3.67.164-.589.314-1.187.54-1.755.26-.647.553-1.282.84-1.918.098-.227.197-.452.296-.678l.017-.099c.06-.488.116-.975.184-1.461.045-.317.126-.627.187-.94.15-1.147.436-2.273.856-3.356.617-1.591 1.274-3.16 2.029-4.695a5.554 5.554 0 01.674-1.317c.107-.12.217-.234.336-.343.047-.027.095-.055.142-.079a2.49 2.49 0 01.248-.061 4.79 4.79 0 01.339 0c.052.01.103.022.153.033.181-.137.375-.262.584-.369.685-.35 1.42-.46 2.177-.547.29-.034.58-.065.871-.08.203-.011.402-.017.601-.017.579 0 1.147.045 1.733.12.566.074 1.122.2 1.685.29 1.073.106 2.152.142 3.23.167.55.012 1.1.013 1.651.018.145.001.294 0 .44.012.242.02.473.046.719.084.09.01.179.028.267.053.213.082.439.143.629.268l.096.058c.367-.233.734-.467 1.107-.692a8.38 8.38 0 00.413-.083c.461-.106.875-.333 1.284-.555.42-.226.856-.418 1.297-.603.234-.09.47-.177.712-.25.35-.103.688-.23 1.035-.34.542-.173.934-.615.934-1.18 0-.323-.135-.637-.372-.865-.203-.194-.527-.362-.827-.362a.58.58 0 00-.074.004" fill="#161616" fill-rule="nonzero"/><path d="M289.11 234.041c-.54.028-1.078.07-1.615.135-.622.076-1.23.185-1.842.316-.518.111-1.04.207-1.562.301-1.078.193-2.16.36-3.245.516l-.775.111c-.364.048-.726.096-1.091.14l-.876.102a13.09 13.09 0 01-1.601.07 69.817 69.817 0 01-2.88-.056c-.484-.023-.965-.04-1.447-.08a85.837 85.837 0 01-1.523-.136 60.599 60.599 0 01-1.433-.166c-.488-.06-.997-.131-1.49-.11-.327.014-.615.207-.704.524a.705.705 0 00.073.55c.085.142.262.304.437.328l.133.03c.044.012.086.027.129.044.114.054.227.109.341.165a1.214 1.214 0 00.335 1.185l.26.195c.198.113.413.169.644.17 1.112.111 2.225.118 3.341.115a291.589 291.589 0 004.206-.035 97.734 97.734 0 012.815-.437c.448-.062.896-.115 1.34-.19.437-.07.866-.167 1.297-.263.8-.18 1.593-.362 2.401-.506a53.918 53.918 0 012.577-.383c.56-.076 1.123-.154 1.689-.198.241-.018.484-.042.727-.044h.037c.362 0 .699.043 1.062.093.395.055.776.187 1.13.368.314.16.64.373.866.641.26.31.515.602.681.968.13.286.244.565.334.864.069.227.137.454.199.683.075.28.115.568.11.85.22 1.164.459 2.328.808 3.462l.03.096.09.175c.174.347.347.694.537 1.033.19.337.379.673.549 1.019.184.372.35.75.514 1.13l-.01-.023.37.844c.154.35.345.681.596.974.22.257.63.389.962.389a1.38 1.38 0 001.174-.658c.198-.321.249-.743.117-1.096-.035-.094-.07-.189-.103-.283-.084-.233-.156-.47-.23-.706a15.59 15.59 0 00-.522-1.435l-.08-.19a1.295 1.295 0 00-.131-.299l-.004-.005c-.398-.889-.846-1.756-1.256-2.638-.201-.433-.386-.871-.603-1.298a64.66 64.66 0 00-.764-1.446c-.116-.215-.235-.428-.353-.642-.2-.578-.43-1.144-.674-1.708a205.56 205.56 0 01-.46-1.09c-.124-.294-.245-.59-.39-.875a2.759 2.759 0 00-.42-.62c-.208-.233-.482-.415-.757-.563a4.177 4.177 0 00-.844-.324c-.237-.066-.499-.073-.743-.095-.147-.014-.293-.013-.44-.013a3.71 3.71 0 00-.188.005 4.24 4.24 0 00-.279-.017 11.842 11.842 0 00-.322-.004c-.419 0-.838.02-1.254.041m-80.427 61.089c-.18.114-.369.339-.404.572-.202 1.317-.4 2.635-.594 3.953-.122.818-.249 1.636-.356 2.456-.14 1.088-.283 2.176-.424 3.265-.125.957-.225 1.918-.336 2.879-.181 1.457-.358 2.913-.595 4.362a24.164 24.164 0 01-.44 2.065c-.086.334-.182.666-.275.997-.047.17-.093.34-.142.51a3 3 0 00-.08.34 2.136 2.136 0 00-.036.375c-.01.231.078.437.199.619a.925.925 0 00.318.344.823.823 0 00.682.098 1.53 1.53 0 00.33-.15c.29-.185.45-.548.41-.905.123-.356.198-.739.294-1.096.118-.44.231-.883.32-1.33.183-.917.296-1.849.416-2.777.143-1.094.253-2.195.377-3.292.104-.921.2-1.844.3-2.765.152-1.223.292-2.45.47-3.669.283-1.924.564-3.85.86-5.772.04-.263.039-.496-.09-.735a.897.897 0 00-.526-.44.822.822 0 00-.678.096m16.757 1.122c-.184.175-.242.373-.267.61-.162 1.519-.33 3.038-.5 4.556-.099.892-.222 1.779-.34 2.668l-.324 1.757c-.091.492-.213.979-.326 1.468-.243 1.047-.489 2.093-.71 3.145-.428 2.031-.824 4.074-1.403 6.074-.591 2.037-1.32 4.032-2.01 6.04a111.852 111.852 0 01-1.1 3.057c-.34.896-.712 1.78-1.096 2.659a56.66 56.66 0 01-.975 1.973c-.174.336-.351.67-.537 1-.088.155-.18.309-.27.462-.137.232-.26.479-.43.69-.1.164-.152.342-.152.533 0 .278.118.548.327.746.14.13.304.221.493.27.258.068.638.058.861-.105.153-.112.305-.216.437-.35.098-.1.237-.274.314-.398.071-.117.14-.234.207-.354.125-.224.245-.45.366-.676.243-.456.461-.924.69-1.387.49-.991.954-2.002 1.345-3.033.375-.986.757-1.974 1.09-2.974.34-1.019.682-2.035 1.023-3.053.327-.98.621-1.969.924-2.956.17-.56.335-1.119.486-1.684.13-.491.234-.99.348-1.483.482-2.074.83-4.173 1.276-6.254l.26-1.204c.105-.481.23-.962.315-1.448.164-.945.342-1.887.46-2.838.286-2.298.532-4.6.776-6.9.022-.217-.112-.463-.267-.61a.948.948 0 00-1.29 0" fill="#161616" fill-rule="nonzero"/><g transform="translate(122 304)"><mask id="b" fill="#fff"><use xlink:href="#a"/></mask><path d="M22.703.08c-.346.086-.626.26-.9.485-.209.173-.367.392-.515.62-.307.474-.248 1.095-.203 1.632.03.342.1.676.192 1.004.062.221.137.439.208.658.06.188.105.379.142.573a2.69 2.69 0 010 .284c-.018.08-.039.157-.063.234a.372.372 0 00-.008.014 1.64 1.64 0 01-.056.058c-.088.06-.178.115-.272.164-.482.162-1.002.216-1.51.281l.051-.007a30.33 30.33 0 01-1.756.167c-.567.037-1.133.061-1.699.124-1.237.138-2.47.349-3.701.53a54.491 54.491 0 00-3.174.564c-1.054.222-2.09.529-3.104.895-.995.36-1.999.68-2.973 1.096a34.73 34.73 0 00-1.553.701c-.23.112-.468.219-.692.344a3.01 3.01 0 00-.683.516c-.171.176-.28.386-.361.616-.1.284-.08.53-.04.819.071.491.406.886.733 1.232.175.184.366.353.554.524.456.413.948.775 1.488 1.064.541.289 1.133.486 1.716.662.524.158 1.057.282 1.587.41 1.09.262 2.208.42 3.314.592.541.084 1.08.188 1.619.275.624.1 1.251.172 1.878.246.544.064 1.088.135 1.634.17.585.038 1.17.069 1.756.094.506.022 1.012.04 1.518.016.564-.025 1.127-.054 1.69-.074a125.49 125.49 0 014.022-.059 34.61 34.61 0 002.02-.066c.744-.047 1.493-.115 2.238-.044.751.133 1.488.368 2.226.56.61.16 1.216.324 1.82.497 1.161.332 2.312.71 3.466 1.069 2.183.68 4.38 1.314 6.568 1.976 1.133.342 2.262.702 3.397 1.04 1.001.296 2.007.578 3.02.827 2.296.567 4.596 1.134 6.847 1.87a468.78 468.78 0 016.929 2.342c1.083.373 2.167.744 3.253 1.11 1.107.374 2.227.705 3.35 1.03a91.43 91.43 0 003.391.892c1.131.28 2.26.564 3.394.832 1.05.247 2.104.459 3.172.611 1.306.186 2.61.362 3.923.497.808.082 1.631.106 2.442.126.943.023 1.887.041 2.83.05.853.01 1.707.024 2.558-.022a6.21 6.21 0 00.53-.048c.24-.03.48-.06.718-.105.25-.048.488-.15.72-.246.344-.145.671-.291.985-.496.234-.152.452-.34.657-.531.2-.186.382-.385.563-.59.234-.266.38-.572.38-.938 0-.35-.138-.691-.38-.939a1.29 1.29 0 00-1.838 0c-.18.186-.363.36-.557.528a4.552 4.552 0 01-.669.396c-.22.086-.442.157-.674.204-.775.08-1.554.072-2.332.066a148.09 148.09 0 01-2.674-.036 69.926 69.926 0 01-2.918-.124 39.026 39.026 0 01-2.476-.268c-.507-.072-1.014-.142-1.52-.223-.58-.092-1.164-.177-1.735-.31a212.398 212.398 0 01-3.546-.854c-1.14-.286-2.28-.57-3.417-.872a83.997 83.997 0 01-3.327-.986c-1.037-.322-2.064-.68-3.09-1.036-1.135-.393-2.27-.784-3.406-1.17-1.033-.35-2.061-.714-3.097-1.053-.579-.188-1.155-.393-1.738-.566l-1.916-.572c-.562-.168-1.132-.306-1.698-.458a70.892 70.892 0 00-1.396-.363c-.618-.152-1.241-.29-1.856-.458l-1.92-.522c-1.078-.293-2.148-.635-3.216-.968-1.14-.356-2.283-.699-3.426-1.04-2.203-.656-4.4-1.33-6.597-2.01-1.08-.335-2.171-.624-3.264-.915a151.39 151.39 0 00-1.196-.317 7.893 7.893 0 00-2.04-.245c-.514.003-1.03.05-1.543.082-1.084.07-2.167.061-3.252.072a92.727 92.727 0 00-3.395.086c-.524.024-1.05.07-1.575.062a54.682 54.682 0 01-1.625-.052 43.143 43.143 0 01-1.67-.107c-.543-.046-1.084-.118-1.627-.173-.103-.01-.207-.023-.31-.036-.636-.1-1.27-.21-1.906-.3-.689-.097-1.382-.19-2.068-.315-1.312-.237-2.627-.5-3.883-.96a6.972 6.972 0 01-1.129-.664 16.722 16.722 0 01-.215-.179l.275-.13c.3-.14.6-.278.903-.411.906-.381 1.83-.709 2.758-1.034a29.087 29.087 0 013.081-.914c1.032-.24 2.082-.4 3.127-.563 1.034-.161 2.068-.312 3.102-.467.78-.089 1.56-.142 2.343-.201.806-.062 1.605-.191 2.404-.316.29-.046.577-.094.86-.171.39-.107.754-.3 1.077-.544a2.62 2.62 0 00.62-.64 2.98 2.98 0 00.327-.7c.093-.265.107-.562.132-.84.022-.245-.028-.516-.073-.755-.122-.66-.397-1.269-.527-1.924a4.936 4.936 0 01-.023-.381c.047.001.093.003.14.007.417.078.82.19 1.217.348.165.073.33.15.487.24.254.147.503.303.754.46.417.264.848.497 1.248.787.29.245.56.504.834.768.439.422.898.808 1.38 1.177.536.41 1.123.753 1.787.887.594.12 1.195.166 1.798.197 1.06.052 2.118.144 3.178.197 1.15.057 2.294.18 3.442.237 1.16.059 2.322.095 3.483.15.604.03 1.204.08 1.807.129.512.041 1.023.119 1.534.18 2.304.28 4.623.43 6.932.658l.737.072c1.067.15 2.129.31 3.184.527 1.167.24 2.332.476 3.491.744 1.164.269 2.319.571 3.477.861 1.13.283 2.28.483 3.426.687 1.133.203 2.275.36 3.409.547 1.168.192 2.33.408 3.492.641 2.24.448 4.518.798 6.802.86.59.015 1.18.03 1.771.035.438.004.803-.376.803-.82a.82.82 0 00-.803-.82c-.897-.008-1.8-.01-2.696-.087-.394-.034-.79-.056-1.182-.105l-1.218-.151c-.493-.082-.989-.153-1.477-.255-.577-.12-1.154-.239-1.73-.366a97.396 97.396 0 00-3.491-.696c-2.267-.412-4.546-.759-6.773-1.371-1.163-.321-2.324-.647-3.493-.945-1.148-.294-2.3-.563-3.455-.825-.573-.13-1.15-.231-1.727-.341-.238-.046-.481-.076-.722-.113-.36-.055-.72-.12-1.081-.16a321.89 321.89 0 00-3.353-.355c-1.21-.124-2.418-.252-3.628-.379-.58-.06-1.158-.153-1.735-.229-.572-.075-1.146-.117-1.72-.168-.516-.045-1.038-.063-1.556-.085-.64-.029-1.279-.058-1.918-.093-1.115-.06-2.224-.185-3.34-.265l-2.759-.196a38.031 38.031 0 00-1.342-.067 9.42 9.42 0 00-.576.004c-.214.006-.43.012-.644 0a3.52 3.52 0 01-.281-.073 5.956 5.956 0 01-.83-.55 15.39 15.39 0 01-1.04-.972 10.74 10.74 0 00-1.12-.986c-.367-.285-.776-.498-1.163-.747-.418-.269-.828-.534-1.277-.745-.478-.224-.96-.417-1.474-.526-.334-.07-.69-.143-1.038-.143-.16 0-.32.015-.476.053" fill="#161616" fill-rule="nonzero" mask="url(#b)"/></g><path d="M145.555 313.017c-1.658.597-3.322 1.176-4.983 1.76a78.82 78.82 0 00-1.31.473.39.39 0 00-.249.468c.05.196.254.328.44.267.418-.136.831-.29 1.245-.44l1.176-.424c.716-.258 1.435-.508 2.151-.765.573-.205 1.145-.41 1.716-.617a.383.383 0 00.246-.46c-.04-.157-.186-.279-.338-.279a.282.282 0 00-.094.017m234.995-20.975a1.15 1.15 0 00-.498.289c-.557.418-1.148.792-1.73 1.174-.494.326-.984.658-1.484.976-.626.398-1.252.786-1.893 1.157-.57.331-1.152.641-1.73.958-1.22.667-2.456 1.305-3.684 1.957-1.202.64-2.383 1.317-3.57 1.982-1.044.585-2.065 1.213-3.1 1.812-1.247.72-2.493 1.442-3.743 2.154-2.382 1.355-4.805 2.636-7.226 3.918-1.142.605-2.297 1.186-3.436 1.797-1.32.706-2.642 1.411-3.966 2.111-2.395 1.27-4.775 2.566-7.16 3.853-2.391 1.291-4.856 2.438-7.295 3.634-2.324 1.14-4.563 2.444-6.866 3.624-.748.384-1.496.767-2.242 1.153a68.05 68.05 0 01-2.064 1.017c-.894.367-1.79.734-2.686 1.097l-.76.31c-.697.282-1.394.536-2.122.731-.757.203-1.511.418-2.285.548a9.018 9.018 0 01-1.605-.007 6.76 6.76 0 01-1.231-.33 8.69 8.69 0 01-1.439-.874c-.319-.27-.603-.569-.89-.874a18.198 18.198 0 01-.93-1.07c-.247-.338-.483-.68-.69-1.046a73.214 73.214 0 01-.783-1.435 38.107 38.107 0 01-1.252-2.56c-.45-1.138-.793-2.321-1.137-3.495-.188-.641-.342-1.294-.506-1.942a403.11 403.11 0 01-.49-1.955c-.29-1.184-.576-2.37-.845-3.562-.316-1.396-.652-2.787-.984-4.18-.22-.922-.387-1.858-.597-2.783a27.989 27.989 0 00-.783-2.724 211.84 211.84 0 00-2.228-6.256c-.127-.337-.292-.611-.611-.799a1.335 1.335 0 00-1.025-.135c-.331.092-.62.316-.795.615-.166.285-.253.708-.134 1.03.993 2.655 1.984 5.32 2.776 8.045.351 1.207.532 2.456.823 3.677.33 1.385.666 2.766.98 4.154a170.274 170.274 0 001.847 7.495c.171.627.37 1.246.566 1.865.19.598.389 1.193.624 1.776.495 1.218 1.103 2.39 1.724 3.547.296.553.6 1.1.943 1.627.372.57.817 1.113 1.274 1.617.37.408.739.828 1.155 1.188.266.228.55.445.839.644.25.173.502.352.772.494 1.089.573 2.279.927 3.514.954.28.006.557.008.838-.004.474-.02.952-.109 1.417-.2.503-.099.995-.239 1.49-.371a18.674 18.674 0 001.685-.513c.49-.181.97-.386 1.453-.582.585-.237 1.17-.471 1.754-.711.695-.288 1.394-.565 2.075-.889a68.601 68.601 0 001.982-.991c1.122-.58 2.254-1.142 3.364-1.744 1.17-.635 2.34-1.275 3.523-1.886 1.253-.648 2.51-1.28 3.776-1.902.687-.337 1.38-.662 2.07-.994.59-.283 1.17-.588 1.752-.884 1.122-.569 2.224-1.17 3.33-1.77a826.246 826.246 0 017.416-3.97c1.098-.582 2.186-1.18 3.289-1.752a496.423 496.423 0 003.953-2.074 212.75 212.75 0 006.856-3.78c1.235-.715 2.471-1.43 3.703-2.152 1.26-.738 2.529-1.457 3.803-2.171 1.087-.609 2.19-1.186 3.29-1.77 1.165-.62 2.346-1.22 3.485-1.888.446-.262.89-.521 1.323-.805.472-.311.936-.625 1.395-.953.966-.694 1.927-1.408 2.755-2.266.435-.452.448-1.184 0-1.634a1.15 1.15 0 00-.813-.339l-.306.042" fill="#161616" fill-rule="nonzero"/><path d="M310.86 287.044c-.29.085-.542.29-.693.567-.144.26-.225.657-.117.95.313.854.598 1.718.887 2.581.215.641.376 1.303.556 1.956.352 1.275.657 2.565.979 3.85.333 1.332.59 2.69.85 4.04a69.4 69.4 0 01.62 3.888c.095.826.184 1.653.279 2.481.059.516.114 1.033.188 1.547.1.69.156 1.58.82 1.931.384.202.803.237 1.184 0 .435-.27.703-.88.538-1.407-.052-.167-.06-.35-.089-.523l-.06-.368c-.034-.214-.064-.429-.095-.644-.156-1.306-.295-2.615-.475-3.918a68.193 68.193 0 00-.676-3.967 106.077 106.077 0 00-1.914-7.913c-.158-.568-.306-1.138-.494-1.695-.28-.834-.558-1.669-.862-2.495-.115-.311-.251-.561-.532-.737a1.12 1.12 0 00-.895-.124" fill="#161616" fill-rule="nonzero"/><path d="M310.583 307.804c.07-.052.138-.105.207-.158-.07.052-.138.105-.207.158zm1.552 2.122c-.04.032-.082.063-.124.095l.124-.095zm90.876-34.099l-.068.16.068-.16zm.25-2.753c-.332.05-.666.153-.987.244-.335.096-.67.188-1 .296-1.306.428-2.58.947-3.857 1.451-2.504.989-4.967 2.08-7.51 2.967-.52.18-1.04.357-1.556.55-.518.193-1.036.393-1.56.568-1.003.335-2 .699-3.011 1.01a78.115 78.115 0 01-3.051.883l-1.385.365c-.712.185-1.43.406-2.158.527a6 6 0 01-1.068.063 4.117 4.117 0 01-.463-.13 1.58 1.58 0 01-.059-.033l-.029-.027a4.32 4.32 0 01-.118-.535c-.138-1.342-.106-2.714-.397-4.037l-.107-.489c-.09-.409-.255-.8-.437-1.176-.096-.198-.26-.363-.398-.534l-.13-.11a1.122 1.122 0 00-.383-.261c-.221-.106-.542-.23-.794-.21a5.504 5.504 0 00-.581.065c-.173.07-.345.142-.517.215a4.63 4.63 0 00-1.231 1.09c-.27.334-.523.675-.755 1.037-1.402 2.189-1.846 4.797-2.477 7.268-.12.462-.223.93-.377 1.381a2.705 2.705 0 01-.055.098c-.387.157-.775.318-1.169.454-.571.199-1.146.361-1.736.499-1.265.295-2.536.568-3.8.872-1.316.315-2.639.622-3.937 1.002-1.484.434-2.97.866-4.455 1.299-1.149.333-2.305.64-3.452.977l-2.267.665c-.227.066-.448.155-.671.231-.491.17-.984.34-1.475.508-.498.172-.995.338-1.484.533l-2.583 1.034c-1.176.47-2.34.97-3.507 1.463-1.203.482-2.4.98-3.609 1.447-1.355.524-2.721 1.022-4.066 1.57-.721.296-1.443.59-2.165.884-.569.232-1.143.454-1.701.71-.837.384-1.674.769-2.512 1.152-.518.238-1.016.505-1.52.772-1.14.603-2.27 1.221-3.4 1.842-.773.425-1.543.855-2.311 1.288a31.38 31.38 0 00-2.255 1.386c-.667.456-1.305.955-1.945 1.448l.063-.048c-.494.377-.979.76-1.463 1.147-.26.208-.39.617-.39.934a1.324 1.324 0 001.332 1.321l.354-.048c.226-.062.422-.175.589-.339.332-.265.661-.532.997-.792l.568-.435-.27.207c.497-.38.998-.755 1.511-1.114.59-.413 1.21-.783 1.833-1.145.754-.438 1.517-.86 2.281-1.28.89-.49 1.773-.993 2.671-1.468l1.602-.846c.29-.154.577-.31.877-.447l2.92-1.339c1.026-.422 2.05-.858 3.087-1.26l4.021-1.552c2.295-.887 4.563-1.845 6.83-2.797l2.079-.832c.499-.2.993-.406 1.5-.582l2.598-.895c.557-.192 1.127-.347 1.693-.513 1.244-.366 2.498-.703 3.743-1.064 1.46-.425 2.92-.85 4.381-1.277 2.609-.763 5.264-1.364 7.915-1.96.6-.134 1.202-.261 1.786-.456.507-.17 1-.37 1.498-.566l.353-.137c.215-.081.418-.163.61-.289a1.79 1.79 0 00.425-.38 3.64 3.64 0 00.401-.573c.104-.192.177-.403.254-.608.069-.186.115-.384.166-.575a66.87 66.87 0 00.457-1.855c.338-1.449.711-2.892 1.254-4.28.297-.653.652-1.277 1.08-1.855l.055-.066c.075.303.134.61.191.918.07.584.123 1.169.182 1.754.038.379.08.758.135 1.135.063.427.127.846.292 1.249.08.194.14.341.257.506.122.17.242.309.392.447.32.294.696.455 1.097.608.6.228 1.239.22 1.868.18.6-.04 1.188-.142 1.772-.282.342-.083.682-.17 1.023-.254 1.322-.33 2.643-.655 3.95-1.035 1.296-.378 2.575-.807 3.86-1.218.64-.204 1.268-.448 1.898-.678.635-.233 1.28-.438 1.919-.664 1.281-.455 2.54-.965 3.797-1.48 1.35-.554 2.707-1.086 4.067-1.616 1.19-.462 2.385-.913 3.616-1.256l.234-.066c-.405.823-.995 1.548-1.536 2.287-.264.361-.54.714-.812 1.067-.749.892-1.49 1.791-2.294 2.635-.214.224-.418.466-.646.677l-.82.76c-.416.386-.855.746-1.287 1.113l.27-.206c-.396.302-.785.618-1.19.905-.489.344-.976.688-1.47 1.024a30.553 30.553 0 01-2.65 1.595c-.862.466-1.717.947-2.59 1.39-.4.203-.794.416-1.198.61-.435.209-.873.408-1.31.612a14.92 14.92 0 01-1.615.496c-.336.085-.681.145-1.02.216-.313.067-.626.132-.941.187-.42.04-.844.042-1.265.005a3.309 3.309 0 01-.184-.042 3.636 3.636 0 01-.306-.343 1.242 1.242 0 00-1.485-.19 1.226 1.226 0 00-.563.727c-.081.294-.056.678.124.936.189.272.388.537.62.776.263.272.623.45.977.575.5.177 1.052.224 1.582.222.889-.003 1.766-.224 2.633-.407.344-.074.687-.153 1.028-.239.311-.078.617-.192.922-.29.395-.13.773-.32 1.15-.495.313-.147.627-.291.94-.439 1.117-.529 2.184-1.151 3.276-1.725a56.652 56.652 0 001.767-.97 24.888 24.888 0 001.645-1.06c.45-.306.906-.607 1.337-.937.516-.394 1.052-.773 1.547-1.195.473-.403.942-.805 1.397-1.227.204-.189.42-.37.61-.57l.804-.846c.37-.388.713-.8 1.066-1.203.437-.496.866-1.01 1.269-1.533.347-.452.7-.902 1.035-1.362l.598-.818c.202-.276.4-.554.586-.842.213-.332.366-.696.518-1.058.327-.747.677-1.576.348-2.383-.092-.225-.222-.524-.42-.686-.167-.136-.325-.27-.522-.362a2.05 2.05 0 00-.844-.217h-.053c-.26 0-.508.035-.769.074z" fill="#161616" fill-rule="nonzero"/><path d="M401.859 276.112c-.538.413-1.137.726-1.718 1.06-.44.254-.89.485-1.336.727-.854.465-1.712.92-2.568 1.378l-2.146 1.15-1.696.91c-.198.106-.394.219-.595.317l-3.992 1.964-1.84.907c-1.165.572-2.347 1.108-3.52 1.66-.203.095-.36.363-.416.581-.064.252-.031.526.092.752.117.217.313.38.539.446l.24.036a.86.86 0 00.457-.133c1.385-.653 2.774-1.294 4.147-1.974l3.487-1.726 1.39-.689c.15-.073.3-.144.445-.225l3.051-1.68c1.097-.603 2.188-1.221 3.279-1.837.523-.295 1.04-.605 1.559-.909.214-.125.423-.257.633-.392.499-.317.984-.632 1.428-1.038.258-.235.28-.693.118-.991a.777.777 0 00-.453-.376.747.747 0 00-.212-.03.621.621 0 00-.373.112" fill="#161616" fill-rule="nonzero"/><path d="M287.132 297.623c-15.557 5.362-25.604 6.318-41.684 5.528-.396-.02-.658 1.09-.268 1.159l12.55 4.463c4.257.757 8.7.747 12.97.073 4.562-.72 9.12-2.043 13.202-4.205 1.628-.863 2.145-2.996 3.218-4.494" fill="#9AABC0"/></g></svg>