<svg width="500" height="600" xmlns="http://www.w3.org/2000/svg" xmlns:xlink="http://www.w3.org/1999/xlink"><defs><path id="a" d="M.43.573h.919v1H.43z"/><path id="c" d="M0 .899h160.619V403H0z"/></defs><g fill="none" fill-rule="evenodd"><path d="M270.49 200.02c-.51.046-1.015.089-1.525.128 0 .042-.003.084-.003.127l-.022.5c-.05 1.009-.11 2.15.132 3.22.162.7.462 1.281.95 1.823.182.202.37.393.57.577.421.376.839.747 1.267 1.113.516.439 1.05.864 1.585 1.285.347.273.697.55 1.036.83a332.11 332.11 0 002.817 2.28l.47.379a50.41 50.41 0 001.535 1.211 3.356 3.356 0 00-.948.57c-.159.14-.311.288-.463.437l-.195.194c-.39.38-.778.755-1.182 1.12-.94.853-1.967 1.64-2.756 2.23-.75.507-1.507.99-2.28 1.47a22.246 22.246 0 01-2.704 1.414c-.502.216-1.02.415-1.539.612a11.21 11.21 0 01-1.92.48c-.903.08-1.816.144-2.725.197l-.392.025c-.386.021-.783.043-1.175.053-.174.003-.332.007-.492.007-1.001 0-2.044-.056-3.18-.18l-.343-.05-1.712-.255c-1.518-.223-3.13-.652-5.063-1.346-1.928-.75-3.672-1.633-5.193-2.632a22.627 22.627 0 01-3.69-3.297 17.512 17.512 0 01-.57-.713c-.35.309-.707.613-1.071.9-.562.443-1.128.872-1.709 1.283l.007.01a25.726 25.726 0 002.862 2.993c1.932 1.715 4.358 3.202 7.217 4.413 2.271.968 4.584 1.659 6.884 2.048.896.148 1.953.319 3.04.44a14.63 14.63 0 00-.298 1.447l-.205 1.308-.184 1.165-.142.85c-.127.744-.261 1.537-.335 2.32l-.17 1.863a214.656 214.656 0 00-.485 5.621l-.135 1.959c-.262 3.712-.59 8.333-.82 12.793a283.663 283.663 0 01-.492 7.807 155.5 155.5 0 00-.202 2.915l-.05.807-.066 1.048c-.036.503-.067 1.003-.1 1.502.181 2.129.262 4.265.333 6.404.05 1.427.11 2.851.142 4.275.59-.266 1.191-.5 1.793-.73-.008-.08-.014-.166-.021-.251-.195-2.224-.453-4.463-.503-6.694-.024-1.07.333-2.072.934-2.894.068-1.102.139-2.203.21-3.309l.063-.97.092-1.384c.035-.496.078-.992.117-1.488a52.76 52.76 0 00.123-1.637c.081-1.292.156-2.585.22-3.878.08-1.717.173-3.436.262-5.154l.06-1.09.074-1.322c.095-1.838.215-3.601.332-5.366l.11-1.668.064-.991.02-.351a65.22 65.22 0 01.135-1.842l.036-.404.389-4.3c.035-.428.074-.853.11-1.286l.017-.162.011-.11.01-.138-.078.128.273-1.322.269-1.725.3-1.912c.093-.57.21-1.141.323-1.708l.138.032h.007c.269 0 .534-.006.802-.02 1.119-.054 2.233-.114 3.344-.185a24.57 24.57 0 002.006-.223c.789-.135 1.539-.408 2.235-.687l.265-.106.149-.058c.503-.2.966-.389 1.433-.59.884-.376 1.77-.848 2.703-1.439l.403-.255c.477-.297.952-.595 1.412-.914.94-.652 1.673-1.176 2.39-1.757a40.97 40.97 0 002.145-1.873c.201-.191.396-.38.587-.57l.184-.177.128-.128c.236-.248.473-.524.696-.825.074-.093.139-.195.198-.294l.05-.085c.082-.134.16-.27.262-.4a1.53 1.53 0 00.117-.188c.329.216.704.417 1.082.612 1.196.617 2.3 1.137 3.389 1.598 1.002.425 2.134.829 3.545 1.271 2.614.829 4.945 1.506 7.122 2.07l.232.063c2.145.566 4.356 1.148 6.595 1.568.357-.07.715-.137 1.068-.208 2.26-.44 4.543-.833 6.767-1.436-1.084-.202-2.169-.4-3.254-.597-2.278-.41-4.574-.734-6.86-1.098-3.134-.5-6.222-1.215-9.29-2.037-3.303-.882-6.417-2.31-9.413-3.935-1.652-.896-3.216-2.072-4.447-3.503-.913-1.06-1.715-2.186-2.497-3.334a65.302 65.302 0 01-1.206-.948c-.63-.503-1.42-1.13-2.073-1.81a2.5 2.5 0 01-.17-.528c-.061-.652-.058-1.312-.051-1.95a11.87 11.87 0 01-.328-.664c-.065-.145-.132-.29-.199-.434-.574.01-1.146.017-1.722.02m-13.23 94.088c-.754.36-1.47.58-2.26.508.155 1.942.287 3.896.397 5.963.08 1.544.1 3.115.12 4.631l.02 1.612c.018.956.028 1.908.042 2.863.028 2.61.059 5.863.238 9.017.144 2.5.286 4.404.455 6.176.186 2.018.365 4.038.52 6.06.062.834.12 1.668.175 2.507l.052.834.12 1.67.087 1.118.083 1.058c.037.515.085 1.058.192 1.591.186.952.971 2.025 2.108 2.238.162.028.327.046.479.046.71 0 1.312-.31 1.653-.846a1.508 1.508 0 00.093-1.533c-.003-.203-.003-.413-.003-.626a11.823 11.823 0 00-.135-2.124l-.041-.29a65.902 65.902 0 01-.262-2.85c-.116-1.594-.255-3.192-.389-4.783l-.114-1.307a231.72 231.72 0 00-.233-2.667 951.037 951.037 0 01-.307-3.527c-.141-1.736-.197-3.562-.244-5.029l-.032-.841c-.058-1.832-.127-3.91-.148-6.031l-.002-.267a6.648 6.648 0 01-.16-.158c-.975-1.006-1.295-2.163-1.422-3.538-.049-.522-.094-1.044-.138-1.567l-.073-.33c-.151-.77-.137-1.267-.203-1.982-.052-.585-.11-1.172-.148-1.757a164.767 164.767 0 01-.21-3.726c-.031-.739-.057-1.48-.08-2.221l-.23.108" fill="#161616"/><path d="M269.103 197.174a.988.988 0 00-.097.379c-.018.191.01.39.02.579.006.122.01.24.017.357a121.84 121.84 0 00.141 2.815c.023.38.272.696.635.696.269 0 .537-.21.615-.497a.684.684 0 00.315.085.59.59 0 00.212-.037c.091.228.279.39.527.39a.55.55 0 00.425-.198.66.66 0 00.416.183c.316.026.564-.243.665-.545.003-.006.004-.013.006-.02-.125-.252-.243-.51-.352-.772a169.14 169.14 0 00-1.545-3.589 88.93 88.93 0 01-2 .174M284.093 167l-.093.125c.034-.042.065-.083.097-.125h-.004zm-.093.258c.074.016.145.031.215.043l.035-.02c.023-.027.051-.05.074-.078.043-.066.082-.132.121-.203a9.881 9.881 0 00-.445.258m-.961-.168c-.012-.027-.027-.059-.039-.09.012.031.023.063.039.09m.961-.086l.003-.004c-.002.001-.003.001-.003.004m0 .004l.005-.004V167l-.005.008m-1 .996v.008h.004V168s0 .004-.004.004m-25.528 126.172c-.625.271-1.25.549-1.874.829-.173.07-.35.139-.523.211L255 298c1-.421 1.999-.842 3-1.26a118.846 118.846 0 01-.122-2.74l-.406.176m-1.909-16.744c-.186.062-.373.13-.563.192.026.793.054 1.583.072 2.376a31.632 31.632 0 011.928-.808l-.024-.275c-.054-.639-.113-1.278-.17-1.917-.415.143-.83.286-1.243.432m-.542 21.276c-.01.297-.016.59-.021.886.132.333.42.598.786.721.734.24 1.472.466 2.214.685-.042-.443-.086-.887-.115-1.33a150.38 150.38 0 01-.078-1.187c-.465-.139-.93-.284-1.393-.435a1.007 1.007 0 00-.312-.048c-.458 0-.894.296-1.08.708" fill="#161616"/><path d="M255 298.811c.52.015 1.038.035 1.559.055.48.02.96.076 1.441.134l-.013-.174c-.041-.55-.079-1.1-.114-1.648-.485-.052-.97-.107-1.458-.125-.453-.018-.91-.038-1.367-.053l-.048 1.811m0-21.228c.029.805.051 1.61.066 2.417l1.934-.635-.12-1.217a163.51 163.51 0 00-.111-1.148c-.59.196-1.18.39-1.769.583m51.071-55.939h.004c.02.01.04.017.059.027-.02-.01-.043-.017-.063-.027m-1.988-1.337c-.133.227-.11.557.093.737.203.183.468.336.717.46.203.103.405.203.607.306.123.065.244.128.367.19 1.376-.268 2.76-.519 4.133-.819-.414-.182-.835-.35-1.27-.487l-.153-.04a.482.482 0 00-.577.3c-.057-.017-.11-.037-.167-.057l-.893-.31c-.355-.123-.763-.31-1.144-.287a1.23 1.23 0 00-.1.017c-.28-.083-.561-.157-.836-.254l-.093-.037a.514.514 0 00-.16-.026.637.637 0 00-.524.307" fill="#161616"/><path d="M257.021 226.641c-.406 5.997-.962 11.98-1.355 17.977-.333 5.045-.41 10.112-.647 15.164-.056 1.224.024 2.46.07 3.683.047 1.253.074 2.505.11 3.758.077 2.6.027 5.208.004 7.808-.027 2.6.13 5.205.253 7.801.117 2.477.16 4.957.303 7.434.3 5.236.17 10.494.196 15.74.014 2.378.167 4.77.307 7.144.153 2.582.356 5.162.496 7.745.12 2.302.233 4.606.403 6.909.08 1.044.227 2.088.357 3.125.166 1.376.35 2.749.555 4.12.12.451.334.84.643 1.172a2.45 2.45 0 001.772.779c1.373 0 2.488-1.21 2.502-2.657.02-2.682.017-5.36-.06-8.042-.067-2.484-.213-4.968-.377-7.447-.336-5.078-.722-10.155-.742-15.246-.013-2.604-.017-5.211-.08-7.812-.03-1.288-.05-2.576-.137-3.86-.096-1.355-.22-2.71-.31-4.065-.166-2.456-.312-4.911-.515-7.363-.114-1.366-.24-2.728-.33-4.097-.084-1.235-.117-2.47-.164-3.705-.1-2.532-.293-5.052-.516-7.575-.113-1.27-.243-2.54-.353-3.81-.12-1.366-.176-2.732-.23-4.1a340.18 340.18 0 01-.213-7.628c-.04-2.686.033-5.357.127-8.039.07-1.935.259-3.87.396-5.802.213-3.036.43-6.072.63-9.11.056-.896-.75-1.642-1.546-1.642-.89 0-1.486.75-1.549 1.641m-76.255-47.485c-.312.248-.613.522-.806.835-.137.213-.26.434-.377.655-.16.28-.279.576-.397.867A18.73 18.73 0 00179 182a126.77 126.77 0 002-3 1.94 1.94 0 00-.234.156M194 177.06l.027-.028-.003-.032-.024.06m11.546 39.222c-.181.24-.363.48-.546.718.445-.344.862-.72 1.224-1.159.499-.605.925-1.239 1.315-1.922.168-.297.318-.606.461-.919l-2.454 3.282m80.998.153c.039.015.078.032.117.05-.04-.018-.078-.032-.117-.05m-5.239-3.133c-.398.392-.416 1.086 0 1.479.833.781 1.655 1.57 2.46 2.38.93.933 2.253 1.388 3.477 1.809a26.83 26.83 0 003.708.978c1.167.22 2.324.438 3.502.596 1.232.169 2.459.287 3.7.4.502.042 1.013.028 1.518.042.51.014 1.022.018 1.534.01 1.16-.018 2.32-.045 3.481-.049 1.108-.004 2.213 0 3.316-.06 1.16-.062 2.318-.157 3.475-.251.175-.014.35-.03.524-.047a710.814 710.814 0 00-3.127-.57c-2.272-.407-4.562-.726-6.84-1.088a73.46 73.46 0 01-2.863-.511c-1.836.028-3.671-.133-5.5-.305-2.442-.383-4.876-.775-7.18-1.704a9.38 9.38 0 01-.965-.501c-.43-.372-.822-.796-1.228-1.196-.49-.48-1.002-.943-1.502-1.412a1.117 1.117 0 00-.759-.302c-.265 0-.526.098-.73.302" fill="#161616"/><path d="M271.29 201.935c.978 1.676 2 3.32 3.022 4.97.721 1.167 1.55 2.276 2.335 3.395.25.352.497.704.743 1.056.28.399.58.78.89 1.152.27.327.664.603 1 .855.843.635 1.815 1.098 2.754 1.565 1.382.681 2.771 1.267 4.243 1.722 2.671.825 5.396 1.49 8.086 2.262a44.228 44.228 0 008.534 1.582c3.032.251 6.072.363 9.115.455.662.02 1.325.035 1.988.051a608.038 608.038 0 00-4.845-.9c-2.301-.418-4.619-.744-6.927-1.113-3.164-.506-6.283-1.231-9.379-2.065-3.336-.893-6.48-2.339-9.504-3.986-1.669-.91-3.247-2.1-4.49-3.55-1.14-1.328-2.107-2.757-3.08-4.207-1.131-1.687-2.464-3.295-3.307-5.15a79.43 79.43 0 00-.472-1.029c-.962.62-1.289 1.936-.706 2.935" fill="#161616"/><path d="M302.575 219.317c.904.217 1.815.407 2.719.62.914.213 1.818.464 2.736.673.897.206 1.832.354 2.75.37 1 .015 2 .015 3.003.019L314 221a526.69 526.69 0 00-5.354-1.067c-2.282-.44-4.582-.788-6.872-1.18A72.006 72.006 0 01298 218c1.523.451 3.036.94 4.575 1.317" fill="#161616"/><path d="M297 218.523c0 .39.147.766.402 1.04.23.244.63.477.969.431 1.869-.253 3.747-.482 5.629-.64-.671-.11-1.343-.22-2.013-.335a73.167 73.167 0 01-4.895-1.019 1.52 1.52 0 00-.092.523m112.002 135.546v.102c.183-.036.362-.051.534-.051a3.16 3.16 0 011.42.347l.044-.162a8.542 8.542 0 00-2-.305c0 .023 0 .046.002.069M398 363c.084-.009.166-.022.247-.039a79 79 0 00-.009-2.961l-.238 3m-1 11.309l.023-.297-.019-.012c0 .106-.004.207-.004.309" fill="#161616"/><g transform="translate(411 377)"><mask id="b" fill="#fff"><use xlink:href="#a"/></mask><path d="M.43 1.555c.315-.255.618-.524.92-.796A3.598 3.598 0 01.682.573C.597.9.513 1.227.43 1.555" fill="#161616" mask="url(#b)"/></g><path d="M302.844 219.98c.94.407 1.876.652 2.873.805-.033-.004-.065-.008-.093-.01.06.006.129.017.193.028-.032-.007-.068-.01-.1-.018 1.172.156 2.347.167 3.533.2 1.054.029 2.126 0 3.18.113.74.143 1.454.376 2.151.655.804.361 1.586.766 2.39 1.137 1.036.481 2.105.9 3.166 1.33.54.238 1.075.485 1.584.78.09-.71.187-1.42.279-2.13-1.965-.416-3.932-.807-5.9-1.2a472.59 472.59 0 00-7.14-1.366c-2.3-.422-4.619-.754-6.927-1.129A49.73 49.73 0 01301 219c.607.35 1.212.707 1.844.98m3.359.047" fill="#161616"/><path d="M316.67 223.785h.012l.002.002a.07.07 0 00-.013-.002m-51.668-26.967c-.064 2.045.992 3.826 2.055 5.485.363.569.655 1.18.97 1.773.275.508.62 1.002.954 1.467a53.685 53.685 0 002.149 2.75 36.92 36.92 0 002.044 2.252c.81.822 1.756 1.505 2.678 2.191.8.6 1.65 1.137 2.486 1.685a87.884 87.884 0 002.635 1.662c.779.469 1.593.876 2.4 1.292a25.65 25.65 0 002.905 1.283c1.733.622 3.539.987 5.338 1.384 1.771.389 3.578.625 5.374.876 1.888.26 3.787.422 5.679.654 1.007.164 2.01.314 3.016.468 1.198.186 2.382.437 3.58.634 1.22.2 2.44.407 3.657.621 1.184.204 2.378.315 3.57.469.672.114 1.337.25 2.013.371.44.08.881.144 1.308.283.16.086.313.175.463.276.26.235.483.507.71.779.146.176.293.35.438.527.154-1.519.384-3.034.575-4.55-.328-.151-.672-.274-1.009-.397-.284-.103-.58-.157-.87-.236-.389-.103-.77-.229-1.156-.343a29.584 29.584 0 00-2.59-.665c-.935-.182-1.87-.343-2.805-.529-1.287-.258-2.582-.472-3.866-.744a85.35 85.35 0 00-3.94-.743c-1.323-.215-2.643-.469-3.98-.594-1.23-.115-2.46-.233-3.687-.386-1.636-.243-3.268-.526-4.858-.969-1.625-.45-3.24-.94-4.818-1.53-1.882-.884-3.664-1.956-5.392-3.112-.907-.607-1.781-1.265-2.67-1.902a87.83 87.83 0 01-2.066-1.523c-1.573-1.355-2.92-2.95-4.201-4.588-.465-.632-.92-1.276-1.258-1.983-.218-.559-.43-1.138-.754-1.631-.488-.734-.986-1.456-1.384-2.235a9.829 9.829 0 01-.093-.315c0-.067 0-.139.004-.207.05-1.534-1.308-2.818-2.802-2.818-1.565 0-2.756 1.284-2.802 2.818" fill="#161616"/><path d="M320.99 222.052c-1.699.055-3.396.01-5.094-.041a.883.883 0 00-.896.858c0 .48.409.844.896.858 2.099.072 4.22.065 6.31.294a6.62 6.62 0 011.08.26c.275.134.528.293.78.466.785.65 1.488 1.404 2.14 2.18.259.335.515.674.739 1.034.25.39.462.798.654 1.214.217.591.376 1.186.495 1.802.1 1.004.134 2.013.142 3.023.33-1.23.599-2.475.895-3.711.318-1.323.604-2.653.869-3.988a7.118 7.118 0 00-.595-.703c-1.055-1.072-2.279-2.052-3.609-2.805a5.958 5.958 0 00-2.347-.751 7.992 7.992 0 00-.863-.042c-.532 0-1.07.038-1.597.052M332 242.351l.082.061.001-.412-.083.351" fill="#161616"/><g transform="translate(155 197)"><mask id="d" fill="#fff"><use xlink:href="#c"/></mask><path d="M127.191 360.956h.131c.381 0 .76-.035 1.134-.074l1.356-.11a78.15 78.15 0 011.421-.11l.993-.066c.466-.036.933-.068 1.399-.096l.919-.06.812-.06.244.219.163.134c.177.145.353.294.527.442.643.535 1.282 1.168 2.02 1.992 1.184 1.45 2.128 3.025 2.894 4.376l.403.736.141.262.06.11c.226.417.456.834.696 1.245l.184.311h-.046a2.18 2.18 0 00-.545.074l-.24.047c-.159.031-.318.07-.476.116l-.255.067c-.375.1-.77.205-1.138.35-.565.216-1.123.446-1.678.686a5.922 5.922 0 00-1.208.69.901.901 0 00-.29.287c-.222.103-.455.226-.685.354-.386.209-.707.474-1.06.778-.163.138-.234.378-.234.556 0 .275.139.516.393.683.11.07.2.113.3.14a.59.59 0 00.205.04.807.807 0 00.76-.566c.438-.29.964-.524 1.427-.726l.127-.053h.007c.127 0 .212-.02.29-.067l.194-.11c.17-.067.304-.113.432-.155l.558-.195.83-.286c.234-.067.434-.113.625-.156l.12-.028c.488-.106.965-.206 1.456-.29l.315-.05.272-.042.12-.017c.236-.037.455-.068.629-.178l.187.382c-.435.096-.763.195-1.085.297l-.12.04c-.396.13-.706.244-1.017.36l-.364.142a13.792 13.792 0 00-2.372 1.14 7.687 7.687 0 00-.773.55l-.17.132c-.204.158-.258.498-.19.732a.744.744 0 00.72.552c.128 0 .244-.014.365-.033.197-.038.374-.208.455-.35.28-.162.54-.314.81-.448l.37-.185.548-.279.346-.174a25.024 25.024 0 013.399-.976l.385.69.18.315-.088.014-.505.138c-.269.082-.538.18-.803.28l-.123.045-.096.036-.13.035a61.15 61.15 0 00-2.816.782c-.636.194-.996.835-.823 1.458a1.2 1.2 0 001.145.874.917.917 0 00.31-.054 63.856 63.856 0 012.414-.672l.18-.05.42-.106c.502-.134.954-.25 1.413-.346l.927-.184.035.085.304.442.148.212c.321.46.643.916.95 1.376.45.669.813 1.387 1.167 2.084a91.87 91.87 0 012.745 6.923c.271.778.466 1.62.64 2.36l.073.308c.07.353.141.668.216.976.226.976.437 1.998.628 3.038.015.156.015.312.011.464-.053.081-.106.163-.16.237a7.502 7.502 0 01-.617.555c-.71.432-1.495.768-2.17 1.036-1.346.486-3.116 1.076-4.882 1.388-.467.035-.933.067-1.396.067-.135 0-.258-.004-.385-.011-.59-.028-1.17-.078-1.752-.138a15.127 15.127 0 01-1.803-.35 15.188 15.188 0 01-2-1.079c-1.232-.913-2.257-1.826-3.136-2.784-1.202-1.482-2.113-3.141-2.77-4.426a20.795 20.795 0 01-1.488-4.86l-.068-.482-.162-1.128c-.05-.379-.088-.754-.127-1.132a29.892 29.892 0 00-.128-1.129l-.02-.159c-.075-.537-.134-.962-.318-1.362a2.199 2.199 0 00-.65-.986c-.258-.27-.573-.468-.852-.648a10.003 10.003 0 00-1.148-.47l-.117-.043-.102-.032a4.64 4.64 0 00-.435-.13 36.269 36.269 0 00-1.587-.41l-.265-.061-.155-.04a38.698 38.698 0 01-1.544-.399 67.379 67.379 0 01-2.388-.781 28.417 28.417 0 01-1.59-.747l-.16-.078c-.151-.08-.303-.155-.459-.23l-.183-.088-.427-.21-.156-.074.325-1.1.265-.919.233-.835c.269-.945.555-1.886.855-2.823l.194-.608c.208-.637.445-1.362.597-2.053.22-.965.403-1.938.57-2.982.466-.382.731-.944.745-1.58.643-.125 1.34-.213 2.187-.309a117.6 117.6 0 012.296-.223l.396-.031a.79.79 0 00.216.042h.003zm-51.276 10.8a.784.784 0 00.36-.463c.066-.247 0-.446-.078-.609-.29-.647-.686-1.27-1.003-1.768l-.178-.28c-.434-.693-.83-1.32-1.264-1.906l-.124-.167c-.293-.396-.55-.735-.862-1.04a2.966 2.966 0 00-.667-.473l.109-.076.343-.278c1.406-1.238 2.847-2.6 4.674-4.415.887-.889 1.774-1.784 2.653-2.678l1.428-1.444a.432.432 0 00.025.223c.172.588.572 1.189 1.229 1.84a4.258 4.258 0 002.307 1.17c.562.082 1.124.142 1.689.191.706.054 1.434.068 2.116.075l.145.007h.223c1.056.014 2.025.028 2.993.046.586.01 1.166.028 1.745.05.859.032 1.678.06 2.501.06.28 0 .562-.004.845-.015 1.728-.049 3.455-.229 4.914-.4l.354-.045a52.597 52.597 0 003.2-.51c.061.096.167.202.273.308.34.326.763.59 1.134.814l.234.145c.497.311 1.116.478 1.79.478.202 0 .41-.015.612-.043l-.032.117h-.007l-.024.092a29.543 29.543 0 00-.252 1.616c-.063.506-.087 1.019-.113 1.536l-.024.466c-.067 1.39-.141 2.749-.322 4.08a77.578 77.578 0 01-.527 2.705l-.077.376c-.191.902-.407 1.927-.785 2.883-.056.102-.12.202-.187.304a13.92 13.92 0 01-2.24.467c-.633.064-1.272.12-1.908.166l-.335.025c-.767.056-1.817.134-2.816.134-.364 0-.721-.01-1.085-.035a11.815 11.815 0 01-1.463-.343c-.685-.202-1.378-.333-2.243-.429a6.203 6.203 0 00-.721-.038c-.866 0-1.824.155-3.01.491-1.276.347-2.562.896-3.54 1.334a57.243 57.243 0 00-3.233 1.504c-.753.375-1.477.824-2.148 1.256l-.294.184-.498.307-.752.464-.308.191-.187.113c-.537.333-1.075.665-1.615.987a104.092 104.092 0 01-6.525 3.566c-.587.286-1.248.551-1.648.707l-.356.145-.884.354-.925.372-.428.17c-1.833.654-3.49 1.212-5.186 1.474a19.37 19.37 0 01-3.76-.084c-.724-.1-1.413-.258-2.102-.488a5.972 5.972 0 01-.696-.343l-.134-.128a6.736 6.736 0 01-.548-.913c-.53-1.227-.883-2.307-1.08-3.29a7.674 7.674 0 01.017-1.496c.23-1.146.509-2.101.852-2.918.074-.12.152-.241.232-.361.187-.071.4-.195.686-.396 1.647-1.171 3.788-2.713 5.717-4.277 1.342-1.09 2.533-2.23 3.946-3.608a109.915 109.915 0 003.752 4.014.903.903 0 001.092.139.973.973 0 00.435-.627c.046-.23.007-.446-.117-.609-.523-.728-1.13-1.407-1.717-2.062a99.451 99.451 0 00-1.211-1.32l-.237-.254-.52-.562c.52-.35.983-.705 1.441-1.058l.085.162.3.379c.47.58.93 1.15 1.393 1.716.526.64 1.088 1.32 1.717 1.934.138.135.318.21.509.21a.717.717 0 00.353-.099c.254-.15.449-.514.321-.81a3.776 3.776 0 00-.307-.634 8.369 8.369 0 00-.325-.484 19.144 19.144 0 00-.64-.842l-.109-.142-.18-.23-.979-1.213-.823-1.023.342-.237c.124.16.28.217.491.258.107.054.202.107.294.17.201.184.375.386.512.563.442.59.859 1.206 1.276 1.822l.064.095a43.56 43.56 0 001.568 2.236c.13.173.254.29.463.354a.75.75 0 00.205.032.77.77 0 00.4-.113zm45.492-15.933c.24-1.206.414-2.363.524-3.13l.116.024c.746.113 1.505.181 2.325.216.325.01.65.028.979.05l.165.01a97.91 97.91 0 002.717.208l.916.061c1.088.074 2.105.113 3.028.113l.367-.003c.632-.008 1.244-.015 1.855-.025-.166.272-.258.52-.346.767l-.043.135-.063.191c-.092.272-.195.541-.3.81l-.061.148-.049.128-.1.247-.045.12a7.27 7.27 0 00-.703.047l-.16.015-.667.07c-.438.043-.876.082-1.31.12l-.477.042a4.614 4.614 0 00-.937-.137c-.777 0-1.558.077-2.31.155l-.46.04a69.7 69.7 0 00-3.003.353l-.392.057c-.604.081-1.248.17-1.859.311.117-.371.205-.76.293-1.143zm-39.49-5.437l.19-.396.234.045.156.008a1.58 1.58 0 00-.135.07l-.286.252-.258.223.099-.202zm21.945-.902c.198 0 .406-.011.604-.021l.117-.01.105-.008-.067.23a24.937 24.937 0 00-.374 3.912c-.004.372.014.804.06 1.323-.014.114-.021.21-.025.308a55.098 55.098 0 01-6.752.796 20.54 20.54 0 01-1.403.043c-.522 0-1.042-.011-1.564-.025l-.297-.014-.452-.015a235.335 235.335 0 00-3.863-.084l-.526-.007h-.148c-.94-.018-1.89-.035-2.802-.12a18.489 18.489 0 01-.583-.106 5.66 5.66 0 01-.261-.4 7.043 7.043 0 01.003-1.072l.028-.135c.13-.626.064-1.093-.219-1.514a2.616 2.616 0 00-.155-.223s.081-.035.081-.039l1.402-1.23c.265-.249.45-.546.528-.867.445.056.946.063 1.458.067l1.332.007c.739 0 1.484-.007 2.233-.028a40.89 40.89 0 002.37-.178l.174-.013.703-.07c.997-.097 1.986-.21 2.972-.323l.48-.056c1.017-.12 2.05-.128 3.046-.135l.632-.004c.36 0 .71.004 1.07.01h.093zm1.194-114.175h.025a.361.361 0 00.145-.043l-.025.082-.039.22c-.074.66-.134 1.33-.19 1.994.027-.75.06-1.503.084-2.253zm4.19-14.232l.015-.106c.176-1.252.35-2.497.494-3.754l.092-.763c.074-.599.148-1.193.198-1.783.078-.899.148-1.794.222-2.693.24-2.904.382-5.903.495-8.316l.01-.177.04-.765.042-.866.017-.35c.06-1.14.117-2.282.149-3.425l.014-.598.046-1.69c.59-.16 1.056-.605 1.212-1.153l.032-.11.17-.57.038-.13-.024.095c.031.216.087.431.148.644l.067.25c.102.39.208.772.317 1.154l.191.634.082.268.046.16c.117.385.222.745.32 1.107.16.59.308 1.195.45 1.796l.092.372.085.35a54.5 54.5 0 00.77 2.816c.142.489.283.98.417 1.471.452 1.65.742 3.585.869 4.413l.064.413c.226 1.5.508 3.368.54 5.095.035 1.598.057 3.194.074 4.79l.015.777.01.927.032 2.402v.149l.004.156.007.466.006.485c.033 2.437.074 5.476.181 8.367l.04.983.002.106.003.12.004.106c.046 1.327.11 3.15.258 4.864l.057.665c.067.835.134 1.642.226 2.442.099.802.19 1.602.28 2.401l.094.825c.223 1.97.396 4.061.527 6.396.106 1.743.085 3.47.063 5.14v.342l-.006.442c-.015 1.238.11 2.536.374 3.972.084.453.194.906.304 1.355l.092.404.098.431.096.421c.014.075.024.139.035.213l.025.106c.025.177.064.379.116.563l-.155.395-.156.432c-.165.474-.32.948-.473 1.422l-.127.397c-.381 1.17-.742 2.277-1.198 3.331l-.332.761a44.72 44.72 0 00-.823 1.95 9.832 9.832 0 00-.647 3.08 40.78 40.78 0 00-.031 2.276v.63c.003 1.043.003 2.083-.004 3.13a180.387 180.387 0 01-.52 12.537c-.292 3.88-.547 7.903-.759 11.957l-.074 1.38-.01.251-.008.11-.007.176-.01.212c-.156 3.025-.35 6.79-.393 10.37l-.024 1.853v.142l-.004.318-.004.33c-.042 3.288-.085 6.692.032 10.17.015.51.07 1.022.128 1.499.05.467.116.931.198 1.397.134.828.487 1.568.777 2.116l.07.128c-.48.506-.773.994-1.088 1.79-.098.25-.16.527-.212.774l-.046.206-.057.24a42.3 42.3 0 00-.314 1.299l-.07.304-.166.75c-.188.796-.368 1.644-.371 2.462l-.05.371-.053.375c-.095.693.368 1.617.618 2.116l.074.137c.047.41.184.782.421 1.129.69 1.022 2.11 1.312 3.25 1.546l-.12.523-.095.659c-.17.874-.35 1.796-.63 2.663a8.71 8.71 0 01-.35.92 7.628 7.628 0 00-.402 1.09 6.767 6.767 0 00-.211 1.701c-.004.58-.007 1.295.233 1.91-.142.245-.248.559-.336 1.005a.931.931 0 000-.142c-.021-.466-.095-.933-.177-1.429a19.32 19.32 0 01-.148-1.284 6.691 6.691 0 00-.41-1.825 4.683 4.683 0 00-.48-.966c-.23-.379-.513-.7-.891-1.019a15.588 15.588 0 00-.269-1.472 27.424 27.424 0 01-.148-.739 16.82 16.82 0 01-.123-1.913 15.82 15.82 0 01.039-1.093c.032-.563.06-1.08.024-1.575a10.22 10.22 0 01-.02-.746l-.004-.124c0-.315 0-.63-.025-.945-.12-1.464-.576-2.89-1.018-4.266l-.102-.318c-.07-.216-.138-.432-.206-.648l-.215-.7c.032-.216.043-.435.028-.654-.078-1.012-.282-1.578-.678-2.396l.018-.368c.007-.169.014-.336.028-.495l.24-.166c.813-.662.99-1.879.403-2.77-.335-.516-.894-.898-1.537-1.05a2.816 2.816 0 00-.717-.1 3.03 3.03 0 00-.71.1l-.028-.27c-.11-.827-.223-1.662-.34-2.493l.007-.156.004-.156a17.809 17.809 0 00-.095-1.97c-.141-1.34-.417-2.756-.894-4.592l-.116-.76-.12-.768-.259-1.642-.081-.52a752.497 752.497 0 00-.608-4.025l-.031-.156-.004-.096c-.06-.498-.12-.99-.184-1.481a79.364 79.364 0 01-.396-3.404c-.11-1.15-.194-2.13-.265-3.006.025-.34.05-.69.07-1.037l.097-1.663c.056-.965.113-1.932.162-2.897.166-3.595.272-6.817.318-9.856.046-3.286.096-6.573.18-9.86.046-2.026.057-4.088.064-6.08.004-1.189.01-2.377.024-3.566.043-4.033.237-8.186.393-11.522l.003-.095c.116-2.544.23-5.087.31-7.631a254.453 254.453 0 01.68-12.41l.127-1.655.063-.938.07-1.011c.054-.822.106-1.638.174-2.459.382-4.903.993-9.778 1.487-13.475h-.003l.081-.573zm-31.12-49.236c-.06-.753-.336-1.525-.841-2.352.053.046.12.074.187.102.322.146.693.259 1.201.361l.686.347-.091.145c-.199.4-.404.813-.673 1.157l-.293.393-.169.219c.004-.124 0-.251-.007-.372zm6.247-6.328l.014-.23.01-.276a1.52 1.52 0 00-.006-.132l.042.1c.063.11.134.216.2.322l.058.092c-.103.074-.216.162-.336.24l.018-.116zm-20.913-8.222c.49-.01 1-.08 1.41-.138l.102-.014.12-.014c.65-.092 1.3-.262 1.932-.428l.265-.074c.81-.209 1.52-.36 2.174-.464l.77-.106a22.651 22.651 0 012.568-.149c.862 0 1.646.047 2.34.135 1.462.212 2.978.647 4.766 1.369.378.177.682.343.957.523.19.167.37.347.544.545.043.071.092.152.138.234l.032.099-.141.003a5.286 5.286 0 01-.407.071c-.526.057-1.056.085-1.582.113l-.199.007-.148.011-.148.008-.449-.047a37.977 37.977 0 01-1.509-.276l-.247-.05a51.789 51.789 0 00-1.194-.219 170.94 170.94 0 00-3.342-.466c-1.092-.152-2.07-.29-3.075-.29-.293 0-.582.01-.872.038-.752.067-1.441.22-2.014.361a5.653 5.653 0 00-1.159.396c-.339.16-.594.403-.802.623a1.407 1.407 0 00-.282 1.528.842.842 0 01.102-.028c.957-.184 1.915-.371 2.875-.524 1.022-.159 2.043-.304 3.078-.354.47-.02.944-.031 1.417-.031.417 0 .837.007 1.254.031.473.028.944.067 1.413.09.47.024.944.038 1.41.077.936.081 1.869.195 2.802.293.456.047.912.11 1.367.142.47.035.937.05 1.407.078.487.031.978.085 1.462.173.474.088 1.036.255 1.29.708.128.23.222.551.12.81-.096.247-.23.502-.48.63-.378.19-.81.247-1.23.254-.473.007-.936-.014-1.41-.067-.007 0-.01 0-.017-.004a7.805 7.805 0 01-1.085.078c-.261 0-.53-.021-.795-.05a25.104 25.104 0 01-1.833-.346 43.992 43.992 0 00-1.894-.113c-.947-.032-1.894-.047-2.841-.053-.905-.004-1.81-.01-2.71 0-.834.006-1.66.063-2.491.158l-.088.015c.028.145.084.286.158.41.308.028.615.06.92.093.434.048.869.12 1.3.18.466.06.929.127 1.396.194.448.05.897.1 1.345.173.312.05.625.114.937.163.389.043.78.067 1.166.114.416.046.83.113 1.247.169.286.039.576.078.865.107.368.032.735.049 1.103.078.657.049 1.31.127 1.967.13.633.004 1.262-.032 1.894-.063.319-.015.64.007.955.035.42.043.918.156 1.134.57.148.286.18.576.098.887-.165.616-.667 1.015-1.257 1.19-.4.119-.848.126-1.262.158-.427.032-.862.018-1.29 0-.932-.04-1.865 0-2.797-.045-.498-.03-.993-.114-1.488-.188-.449-.068-.897-.131-1.35-.195.043.004.086.011.127.014a34.343 34.343 0 01-1.561-.233c-.495-.089-.997-.166-1.488-.276-.91-.21-1.813-.438-2.738-.573-.67-.082-1.342-.16-2.007-.273-.558-.099-1.109-.208-1.668-.29a40.444 40.444 0 00-1.583-.145c-.275-.021-.55-.042-.826-.053-.12-.007-.24-.014-.357-.024-.092.512.141 1.05.633 1.369.696.449 1.523.566 2.321.68l.173.024.12.018.27.045c.511.078 1.034.213 1.497.332.35.096.53.142.71.185l.166.042c1.335.326 2.812.686 4.155 1.22.487.213 1.088.478 1.615.84.642.55 1.194 1.216 1.657 1.8.13.173.25.364.36.565.043.125.07.255.095.379.015.18.015.354 0 .538l-.028.148a.941.941 0 01-.311.014c-.755-.127-1.494-.357-2.413-.717a17.594 17.594 0 01-1.343-.69l-.116-.075-.191-.116a8.93 8.93 0 00-.395-.245 8.546 8.546 0 00-1.043-.492l-.127-.052c-.6-.251-1.201-.4-1.71-.514a27.095 27.095 0 00-1.749-.367l-.872-.152c-1.11-.202-2.113-.372-3.13-.446a6.268 6.268 0 00-.372-.01c-.368 0-.731.032-1.095.067l-.287.017a39.12 39.12 0 01-1.84.113 10.556 10.556 0 01-1.61-.05l-.125-.017a15.06 15.06 0 01-.908-.155 7.501 7.501 0 01-1.042-.35c-.859-.383-1.572-.705-2.258-1.094a15.383 15.383 0 01-1.113-.69l.212-.19c.544-.638 1.077-1.256 1.63-1.808a3.14 3.14 0 012.214-.903 4.61 4.61 0 01.738-.449c.855-1.184 1.735-2.409 2.654-3.569l.392-.506c.576-.746 1.286-1.673 2.095-2.398.092-.082.188-.16.283-.238.367.202.806.294 1.356.294h.12zm2.784-46.176l-.028.093-.05.243-.078.57-.268.092-.025-.443-.028-.466a.821.821 0 00.477-.089zM87.4 1.001a.73.73 0 00-.332.832l.013.096-.035.091a1.52 1.52 0 00-.067.191c-.01 0-.02-.004-.031-.004-.05 0-.103.015-.167.032-.498.131-.799.425-1.116.853l-.311.414-.311.414c-.036-.022-.099-.028-.195-.028-.706 0-1.42.286-2.002.81-.64.57-1.305 1.16-1.855 1.822l-.21.254c-.532.655-1.052 1.288-1.638 1.854a48.322 48.322 0 01-3.7 3.24c-1.883 1.284-4.035 2.565-6.578 3.916-2.35 1.253-4.452 2.286-6.431 3.156-1.664.626-3.61 1.323-5.589 1.67l-1.594.286c-1.293.234-2.59.468-3.89.669l-.756.081-.495.046-.219.021c-.854.085-1.826.18-2.756.326a64.73 64.73 0 00-2.367.424 52.59 52.59 0 01-1.71.315l-.095.015c-1.06.187-2.382.42-3.622.724l-.127.146-.007.148.003.127c-.3.065-.614.206-.894.33-.653.282-1.212.64-1.752.986l-.29.185.025.279.021.187-.547.199-.265.102c-.65.244-1.392.523-2.031.94a14.162 14.162 0 00-2.587 2.116c-.643.68-1.131 1.511-1.597 2.318l-.329.559-.197.332c-.22.365-.396.666-.56.969a13.51 13.51 0 00-.606 1.377l-.138.34-.27.632-.342.832-.374.849-.092.216a48.777 48.777 0 00-1.636 4.17 94.372 94.372 0 01-1.138 3.028l-.045.124-.096.241-.526 1.348c-.803 2.076-1.54 4.227-2.191 6.13l-.043.12c-.48 1.409-.964 2.817-1.47 4.217a148.429 148.429 0 01-1.49 3.867 111.513 111.513 0 01-2.074 4.528l-.658 1.338-.218.442a149.745 149.745 0 00-1.576 3.254 199.703 199.703 0 00-2.297 5.073c-.692 1.577-1.466 3.134-2.335 4.86a330.901 330.901 0 00-1.869 3.765c-.407.834-.834 1.655-1.261 2.476l-.095.18-.538 1.033c-.64 1.242-1.204 2.49-1.827 3.874-.236.527-.48 1.047-.727 1.567l-.06.127-.064.135a60.416 60.416 0 00-.855 1.878l-.085.209c-.233.53-.41.976-.551 1.4-.184.528-.25 1.108-.307 1.572l-.025.187c-.117.916-.17 1.687-.17 2.426 0 .21-.025.422-.05.634l-.027.258c-.036.365-.06.729-.067 1.094-.018.852-.036 1.651.049 2.433a9.206 9.206 0 00.873 2.975c.381.789.876 1.5 1.307 2.105.498.68.93 1.359 1.332 2 .476.766.929 1.551 1.377 2.334.446.774.891 1.55 1.364 2.306.608.977 1.24 1.938 1.874 2.898.374.566.748 1.135 1.12 1.705l.388.605.08.123c.853 1.32 1.736 2.685 2.675 3.966a185.53 185.53 0 007.166 9.095c1.992 2.37 4.021 4.676 6.462 7.443l1.096 1.245c.515.583 1.027 1.171 1.536 1.758.739.857 1.413 1.635 2.102 2.41 1.053 1.188 2.124 2.366 3.194 3.544l.404.442c.89.98 1.738 1.946 2.582 2.908l1.12 1.274.251.283c.46.524.918 1.043 1.407 1.539.48.491.981.962 1.483 1.432l.276.262c.374.353.728.74 1.053 1.097l.102.11c.261.29.48.527.7.764l.823.852.328.343.664.694c.319.336.634.672.947 1.011l.326.35.258.28.176.191c.322.347.632.68.947 1.012l.35.035c.357.032.689.081 1.014.135l.102.017c.269.22.538.428.799.627l.16.12.112.084c.746.56 1.618 1.2 2.583 1.734.855.474 1.989 1.057 3.2 1.34l.188.047c.54.127 1.046.251 1.57.336.494.074.991.134 1.49.194l.244.033.236.028.845.091c.392.039.784.082 1.177.131.875.134 1.752.393 2.526.623.343.106.614.187.886.262l.141.038c.958.273 2.046.584 3.047.981.42.19.862.424 1.353.71.512.309 1.077.538 1.66.762l.212.084c.516.209 1.092.308 1.587.386.41.057.815.11 1.229.127l-.25.198-.323.272-1.24 1.132a314.431 314.431 0 01-3.433 3.079l-.795.703a1663.74 1663.74 0 01-7.406 6.523c.028 1.182.074 2.331.127 3.485l.06 1.298c.06 1.132.127 2.268.198 3.4l.074 1.096.063.931c.085 1.235.163 2.441.184 3.636a38.45 38.45 0 01-.028 1.83 31.692 31.692 0 01-.647 5.175c-.01 2.402-.063 4.217-.169 5.883-.035.626-.074 1.252-.12 1.882l-.015.247-.017.28c-.092 1.433-.18 2.78-.201 4.122-.095 4.673.01 8.949.322 13.078.056.703.169 1.397.278 2.073l.018.11.017.112.022.106.084.492c.12.722.255 1.497.424 2.247.241 1.1.555 2.179.88 3.283l.212.742a56.23 56.23 0 011.04 4.189c.257 1.26.469 2.533.674 3.767l.046.329c.254 2.074.459 4.093.664 6.152.11 1.04.23 2.08.35 3.117l.053.516.057.5c.095.83.187 1.662.268 2.49l.01.095c.3 3.113.806 8.32 1.238 13.348l.045.586.039.414c.155 1.787.318 3.606.513 5.395.236 2.14.504 4.274.78 6.406.558 4.281 1.113 8.562 1.668 12.846.247 1.892.501 3.778.76 5.663l.039.301.038.283.088.647c.308 2.31.612 4.613.908 6.916.262 2.014.442 3.998.633 6.36.064.73.106 1.455.144 2.184l.011.255.018.268.025.485c.074 1.337.134 2.777.074 4.22-.01.34-.043.683-.089 1.019a3.4 3.4 0 00-.943.4 5.324 5.324 0 00-.607.372l.056.835.074.887.07.846c.11 1.248.188 2.55.23 3.866l.015.163.043 1.631c.045 1.34.087 2.684.116 4.03l.007.508c.014.842.018 1.642.007 2.442a4.596 4.596 0 01-.017.293c.211.095.395.145.578.184.22.053.445.089.675.117l.191.056c.417.148.791.276 1.177.354.428.092.845.17 1.262.24-.096.273-.135.517-.16.874l-.007.156-.007.152c-.007.1-.01.202-.014.304-.007.237.007.464.042.672l-.812.796c-.321.308-.625.605-.926.91l-.915.923c-.484.488-.965.973-1.434 1.46-.842.875-1.672 1.844-2.697 3.135a60.46 60.46 0 00-.727.96l-.12.154-.173.224a38.75 38.75 0 01-.876 1.132c-.33.35-.672.685-1.018 1.021l-.174.17-.187.18-.11.107-.67.644c-.82.807-1.513 1.606-2.336 2.568-.657.746-1.318 1.497-1.964 2.257l-.329.382-.202.23-.543.62a34.45 34.45 0 01-2.675 2.472l-1.261 1.061c-.82.69-1.64 1.38-2.463 2.062-.35.29-.572.677-.644 1.115a7.135 7.135 0 00-.794 1.28c-.466.98-.77 2.148-.954 3.676-.12 1.086-.007 2.218.34 3.364.303.998.741 1.963 1.063 2.675.258.572.488 1.029.72 1.443a5.484 5.484 0 001.25 1.454c.524.414 1.118.665 1.845.948 1.905.767 4.042.93 5.894 1.023.183.01.37.013.55.013 1.167 0 2.408-.173 3.905-.544 2.499-.595 4.947-1.521 7.218-2.434 2.028-.8 3.957-1.85 5.823-2.866l.184-.102.11-.06.501-.28c.996-.548 2-1.157 2.936-1.73l.34-.208a91.57 91.57 0 012.667-1.602c1.41-.807 2.971-1.466 4.31-2.003 1.145-.4 2.184-.747 3.315-.937a8.115 8.115 0 01.682-.007c.505.084.992.23 1.423.356l.205.058c.4.116.742.215 1.092.297.894.208 1.87.307 2.978.307.947 0 1.909-.074 2.838-.148l.728-.043c1.049-.077 2.639-.212 4.331-.502.43-.082 1.074-.202 1.685-.382.788-.212 1.34-.566 1.824-.917.427-.307.766-.728 1.014-1.036.204-.265.304-.428.413-.633l.089-.163.14-.269c-.017.054 0 .1.018.141.135.35.374.69.696.995.318.297.679.512.919.654.212.124.502.22.76.298.58.24 1.085.488 1.6.742l.608.3c.986.496 2.039.843 3.035 1.147.767.244 1.54.439 2.4.651l.126.032.092.021c.816.21 1.674.428 2.477.683.098.976.272 2.1.519 3.431.202 1.043.495 2.134.9 3.322.824 2.36 2.008 4.66 3.517 6.831 1.49 2.158 3.625 4.086 6.172 5.586.926.545 1.721.913 2.427 1.128.686.216 1.481.4 2.424.57a25.95 25.95 0 004.155.35l.452-.007c.612-.01 1.237-.102 1.84-.19l.57-.075c.396-.06.787-.138 1.173-.22l.096-.017.162-.032.159-.032.505-.117.809-.173c1.25-.258 2.668-.548 3.933-1.09 1.445-.611 2.522-1.326 3.297-2.183.858-.954 1.331-1.86 1.49-2.843.113-.662.138-1.28.078-1.95-.113-1.242-.343-2.561-.717-4.156-.25-1.087-.604-2.505-1.134-3.856a44.18 44.18 0 00-.947-2.193l-.067-.156-.117-.265a82.92 82.92 0 01-.375-.825l-.209-.477c-.547-1.245-1.088-2.459-1.716-3.626-.506-.94-1.184-1.981-2.085-3.173-.647-.878-1.257-1.705-1.798-2.551a116.233 116.233 0 00-1.576-2.398c-.548-.82-1.084-1.649-1.618-2.474l-.226-.34a189.705 189.705 0 00-1.615-2.472l-.31-.47a58.637 58.637 0 00-1.467-2.165c-.678-.959-1.53-1.857-2.272-2.61a28.437 28.437 0 00-2.2-1.996c.133-.128.21-.336.215-.555h.003c.032 0 .084-.043.158-.117.234-.237.294-.51.322-.768a3.909 3.909 0 00-.063-1.266l-.039-.23-.053-.319c-.056-.378-.12-.807-.311-1.199a.833.833 0 00-.197-.265l.095.017.159.015c.667-.011 1.264-.025 1.861-.04.545-.014 1.04-.046 1.53-.094.555-.068 1.248-.149 1.877-.344a6.844 6.844 0 001.165-.432c.262-.113.516-.24.76-.378.424-.043.859-.103 1.29-.173.876-.145 1.604-.425 2.391-.744 1.16-.459 1.905-1.29 2.626-2.175l.102-.22c.297-.406.492-.851.573-1.326l.01-.106c.127-.577.22-1.033.142-1.574l-.057-.417c-.056-.429-.106-.8-.279-1.238-.22-.564-.431-.977-.685-1.345.017-.22.024-.46.031-.7l.008-.234c.01-.551.028-1.104.07-1.655.088-1.044-.9-1.946-1.866-2.18l.046-.095c.015-.527.05-1.04.089-1.564.091-1.238.222-2.493.353-3.664l.029-.273.056-.484.018-.128.173-1.531c.222-2.077.413-4.189.569-5.948l.028-.29.007-.098c.07-.818.134-1.635.194-2.453l.046-.566.014-.2c.06-.832.124-1.667.19-2.502l.107-1.26.042-.551a406.541 406.541 0 001.078-17.313c.226-5.915.682-12.201 1.018-16.793l.024-.36.018-.224.01-.17.015-.17.01-.137.01-.152.019-.255c.148-2.013.293-4.025.428-6.038.204-3.036.356-6.325.48-8.968l.013-.315.008-.113c.057-1.267.11-2.452.17-3.634l.116-2.377c.06-1.316.12-2.56.188-3.803.113-1.967.218-3.88.3-5.797.088-2.045.187-4.09.29-6.139.116-2.37.233-4.725.321-7.078.08-1.988.173-3.973.268-5.957l.029-.651.032-.676c.081-1.74.162-3.481.222-5.222.046-1.319.117-2.639.187-3.958l.028-.53.061-1.118c.042-.853.084-1.71.123-2.565.06-1.309.12-2.568.19-3.828.11-1.78.241-3.573.375-5.352.082.283.174.477.269.668l.06.12.06.117c0-.003.056-.11.056-.113l-.01-.375a130.86 130.86 0 01-.077-4.227v-.687l.003-.64c0-1.086.004-2.158.017-3.226.015-1.05.054-2.102.096-3.152l.056-1.44c.036-1.153.026-2.289.015-3.389l-.004-.117c-.003-.434-.003-.845-.003-1.255a238.145 238.145 0 00-.05-4.758 93.803 93.803 0 00-.078-2.08l-.01-.29a82.981 82.981 0 01-.068-2.112c-.035-2.607-.215-5.466-.565-8.993a6.908 6.908 0 01-.045-.47l-.015-.195a67.532 67.532 0 00-.24-1.672 4.664 4.664 0 01-.385.625c-.329.453-.657.902-1.007 1.341-.364.453-.731.902-1.106 1.348-.544.643-1.081 1.287-1.629 1.924-.074.16-.144.329-.24.474-.095.148-.197.29-.308.424a7.524 7.524 0 01-.604.655c-.399.403-.788.813-1.211 1.188-.435.503-.866 1.006-1.297 1.507-.148.17-.385.256-.619.262-.02.029-.041.06-.067.089-.152.198-.293.347-.54.417a.906.906 0 01-.696-.092.847.847 0 01-.262-.24.86.86 0 01-.095-.015c-.151-.024-.283-.087-.42-.152-.117-.056-.244-.19-.33-.293a2.032 2.032 0 01-.257-.39 2.985 2.985 0 01-.16-.399 1.1 1.1 0 01-.112-.014c-.321.335-.692.608-1.148.704a.92.92 0 01-1.088-.566c-.435.431-1.05.796-1.668.626a2.078 2.078 0 01-.873-.467 2.773 2.773 0 01-.488-.623 1.24 1.24 0 01-.44-.07 2.755 2.755 0 01-.676-.343c-.257-.188-.49-.414-.64-.701a6.117 6.117 0 01-.112-.233 2.962 2.962 0 01-.378-.616c-.269-.59-.39-1.238-.467-1.882a13.58 13.58 0 01-.208-1.193c-.495.453-1.103.772-1.785.644a1.867 1.867 0 01-1.225-.796 4.08 4.08 0 01-.53-1.114c-.117-.382-.167-.768-.226-1.16-.061-.375-.12-.75-.163-1.128-.07-.644-.102-1.327-.018-1.97.092-.702.212-1.409.523-2.05a3.01 3.01 0 01.297-.497l-3.162.66-1.028.22a46.53 46.53 0 01-2.12.421c-2.008.371-4.173.73-6.621 1.1l-.28.036-1.342.155-1.343.159c-2.247.187-4.11.308-5.689.375-.788.039-1.572.064-2.36.081l-.837.03a43.74 43.74 0 01-1.607.035l-.184-.004c-1.844-.01-3.809-.032-5.688-.117l-.634-.025a28.446 28.446 0 01-1.762-.099l-1.4-.124-1.423-.134-.633-.092c-1.473-.22-3.035-.463-4.56-.775l-.39-.07-.597-.113a25.251 25.251 0 01-1.954-.39 1008.1 1008.1 0 00-3.219-.813c-.738-.191-1.462-.386-2.172-.584-.043.081-.054.135-.064.184a3.543 3.543 0 01-.551 1.287 5.652 5.652 0 00-.346-.555.385.385 0 00-.311-.174.329.329 0 00-.17.05.385.385 0 00-.152.188c-.01-.06-.042-.1-.084-.149a2.84 2.84 0 00.784-.39 2.69 2.69 0 001.166-2.043 3.266 3.266 0 00-.12-1.083c-.102-.393-.364-.725-.604-.994a1.111 1.111 0 00-.432-.29l.046-.082c.085-.502.06-1.004-.081-1.63-.177-.8-.696-1.642-1.544-2.502-.75-.757-1.777-1.189-2.6-1.53-1.435-.61-2.689-.98-3.841-1.14a25.47 25.47 0 00-2.045-.206 14.34 14.34 0 00-.545-.01c-.307 0-.618.01-.925.021l-.184.004c-1.515.06-2.876.233-4.045.509-.891.205-1.806.523-2.537.782l-.403.141-.308.106-.331.117.007-.096-.007-.357a67.073 67.073 0 01-.191-3.887 136.877 136.877 0 01-.036-5.183l.095.092c.16.128.308.223.456.315.661.407 1.446.806 2.393 1.224.667.304 1.236.538 1.794.736l.089.032c1.166.427 2.49.913 3.798 1.277l1.448.406.113.032.7.244.124.05.462.166.343.124c.682.265 1.48.566 2.293.767l.403.107 1.441.368c.34.088.682.16 1.028.23l.149.028.135.028.628.117c1.212.24 2.166.404 3.003.517l.923.123.134.022.103.013.14.018.107.011c.815.106 1.681.216 2.511.283l1.259.096.109.006.106.007.11.008.127.007.124.007.116.006c1.788.132 3.64.262 5.466.295l1.003.02.41.008.428.007.42.004c.559.01 1.106.02 1.661.02l.346-.003c2.41-.014 5.035-.234 8.027-.672l1.018-.145.205-.032.3-.046c.686-.1 1.346-.195 1.993-.315l4.109-.767a39.02 39.02 0 002.003-.428l.163-.043.123-.032.139-.031.36-.078.858-.206c.82-.184 1.633-.392 2.441-.605l.573-.148 1.382-.36c1.208-.316 2.416-.631 3.631-.924a2.387 2.387 0 001.481-1.03c.34-.516.428-1.114.247-1.684-.293-.958-1.265-1.602-2.423-1.602-.202 0-.41.028-.619.067-1.596.333-3.29.722-5.173 1.196-1.84.456-3.677.888-5.529 1.308-1.173.266-2.378.5-3.544.722l-.127.025-.297.057-1.123.209c-.516.102-1.031.184-1.555.262l-.572.087c-1.138.184-2.265.362-3.406.51-1.957.22-4.085.322-6.695.322-.382 0-.764 0-1.142-.004l-.381-.028a124.86 124.86 0 01-4.134-.308l-.636-.052-.47-.04a93.568 93.568 0 01-1.416-.134 67.125 67.125 0 01-2.502-.286 59.087 59.087 0 01-3.268-.585l-.33-.07a126.088 126.088 0 01-3.03-.658l-.234-.046-1.416-.329a16.772 16.772 0 00-.77-.432c-.36-.187-.732-.36-1.107-.527l-.184-.085a38.612 38.612 0 00-2.388-.997l-.572-.23-.215-.092c-.736-.315-1.5-.64-2.223-1.02a53.133 53.133 0 01-1.72-.95l-.27-.153-.738-.42a78.586 78.586 0 01-2.784-1.628c-.76-.474-1.52-.937-2.285-1.386l.162-1.809.018-.212.031-.382c.056-.69.113-1.37.163-2.051l.099-1.405c.169-2.441.36-5.203.71-7.945.11-.771.237-1.54.367-2.307.59-.152 1.06-.63 1.226-1.238.11-.389.223-.774.34-1.16.159-.534.317-1.069.452-1.61.215-.83.317-1.694.417-2.529l.06-.474c.209-1.741.42-3.598.515-5.518.089-1.872-.045-3.758-.19-5.53a111.15 111.15 0 00-.304-3.103l-.042-.375-.043-.37a6.636 6.636 0 00-.06-.517l-.134-.998-.134-.997-.015-.107-.014-.106-.039-.269-.045-.353c-.089-.63-.202-1.26-.315-1.89-.057-.314-.113-.619-.163-.92a46.285 46.285 0 00-.413-2.058l-.035-.145-.163-.803a516.99 516.99 0 00-1.028-4.886l-.357-1.655c-.117-.57-.604-1.033-1.244-1.179l-.081-.594-.156-.89-.161-.934c-.241-.69-.46-1.401-.679-2.12l-.155-.499a174.563 174.563 0 00-1.969-5.946 90.321 90.321 0 00-1.024-2.75l-.046-.119-.145-.382a175.61 175.61 0 01-.983-2.597c-.784-2.165-1.727-4.302-2.628-6.307-.424-.935-.84-1.876-1.255-2.813a24.03 24.03 0 01-.341-.803l-.096-.233-.099-.24c-.194-.485-.389-.97-.604-1.448a451.83 451.83 0 00-1.827-4.005l-.173-.377-.498-1.083-.093-.192-.066-.144-.064-.145c-.622-1.351-1.392-3.036-2.02-4.695l-.057-.152a9.63 9.63 0 00-1.039.198l.04.124c.26.655.497 1.235.723 1.811l.322.797.314.75.053.127.07.17c.237.558.478 1.131.682 1.708l.778 2.168.777 2.17c.23.653.434 1.319.636 1.984l.208.675.21.67.088.278c.215.672.43 1.345.61 2.027l.637 2.414.473 1.782c.219.831.403 1.712.55 2.423l.019.11-.1.113c-.076.106-.144.198-.193.297-1.056 2.087-2.445 4.854-3.799 7.772a70.393 70.393 0 01-1.727 3.552c-.57 1.082-1.276 2.056-1.89 2.862-.944 1.181-2.071 2.328-2.89 3.166l-.255.265-.254.265c-.29.308-.583.616-.887.91-.417.41-.838.771-1.346 1.202l-.16.139c-.42.36-.752.763-.989 1.192-.286.51-.449 1.047-.604 1.567l-.208.665-.035.12c-.132.418-.262.835-.361 1.257-.075.3-.141.6-.208.905-.237 1.033-.445 1.945-.771 2.794-.25.527-.583 1.033-.848 1.436-.431.648-.826 1.228-1.226 1.805a121.942 121.942 0 01-2.43 3.406 74.666 74.666 0 01-1.742 2.095 17.54 17.54 0 01-1.374 1.422l-.078.07-.074.067c-.259.23-.517.464-.747.719-.423.474-.628.97-.628 1.506 0 .56.23 1.112.628 1.515.4.4.951.626 1.506.626.664 0 1.134-.315 1.505-.626 1.378-1.15 2.548-2.565 3.512-3.796l.096-.124.265-.35.007.036a43.816 43.816 0 011.957-2.544c.04-.05.078-.095.117-.141l-.096-.156a58.637 58.637 0 001.742-2.639c.54-.857 1.208-2.01 1.533-3.329.205-.803.276-1.631.347-2.437.038-.453.074-.839.12-1.22.074-.482.148-.964.237-1.434l.052-.29c.075-.428.188-1.075.393-1.648a6.67 6.67 0 01.169-.297c.177-.202.37-.393.565-.587l.07-.075.075-.074.113-.11c.184-.177.372-.357.548-.541.329-.347.647-.707.96-1.069l.069-.074.522-.587.4-.439c.943-1.032 1.971-2.16 2.801-3.382.855-1.266 1.63-2.674 2.364-4.301l.686-1.507c.508-1.132 1.02-2.26 1.543-3.385a111.277 111.277 0 011.678-3.422l.05.3.145.822c.357 1.921.682 3.916 1.056 6.474.403.159.693.304.947.473.138.104.276.217.406.347.382.382.654.846.806 1.388a2.4 2.4 0 01.244 1.17l.064.489.056.42.014.11c.103 1.29.067 2.717-.11 4.362l.414 4.715.036.41.02.251.022.252c.219.141.388.27.516.392.098.1.18.195.257.301l.089.113.05.089.067.141.084.213.05.145.028.12c.177.76.36 1.539.4 2.342a19.009 19.009 0 01-.001 2.023 52.009 52.009 0 01-.35 3.829l-.024.211-.022.149-.028.198a66.325 66.325 0 01-.582 3.495c0 .913.002 1.822.01 2.731.025 1.758.021 3.62-.014 5.522a629.519 629.519 0 01-.074 3.457.89.89 0 01.074.35c.004.513 0 1.029-.01 1.542l-.004.106-.004.145c-.014.73-.039 1.461-.067 2.19l-.024.828c-.026.739-.05 1.468-.089 2.19l-.053 1.075-.056 1.018v.135c.017.874.024 1.74.028 2.608l.003 1.241v1.235c.004 1.397-.01 2.794-.028 4.192l-.018 1.634-.007.41a110.796 110.796 0 01-.17 4.957l-.035.576-.035.545-.025.318c-.017.269-.095.456-.25.616a1.09 1.09 0 01-.22.163l-.018.127c-.01.442-.028.803-.123 1.15-.103.293-.28.492-.533.59l.007.206-.035-.074-.128-.259c-.304-.626-.608-1.248-.894-1.885-.31-.775-.6-1.575-.88-2.356l-.042-.117-.082-.234a70.535 70.535 0 00-.95-2.575c-.31-.79-.646-1.623-1.01-2.399-.247-.544-.608-1.075-1.131-1.673-.138-.159-.367-.325-.52-.438a5.703 5.703 0 01-.246-.177l-.146-.11-.243-.187c-.4-.304-.823-.58-1.237-.853-.152-.099-.29-.188-.417-.273.047.63.092 1.256.127 1.883l.096 2.009c.01.23.024.46.035.69.007.18.007.364.004.549.01.06.017.115.028.176.06.41.12.82.17 1.23.384 1.08.742 2.19 1.098 3.326.294.938.587 1.869.908 2.791.283.828.654 1.642 1.04 2.47l.133.29.089.195.261.573c.449 1.004.89 2.016 1.333 3.027l.14.334.283.664.05.103.088.222.088.217v-.057c.007.035.018.078.018.078.148.37.304.739.467 1.1l-.315.262-.124.12c-.547.52-1.099 1.043-1.625 1.581l-.424.431a1.74 1.74 0 00-.544.263c-.53.381-1.212.902-1.788 1.513-.417.45-.83.906-1.24 1.362-.368.408-.735.824-1.092 1.25a2.13 2.13 0 00-1.028-.252c-.149 0-.314.018-.488.057l-.593-.662a121.78 121.78 0 00-1.9-1.967 38.777 38.777 0 01-.658-.682l-.22-.23c-.324-.35-.653-.7-.992-1.036a35.768 35.768 0 00-.94-.874l-.162-.153c-.23-.209-.46-.42-.686-.64a35.05 35.05 0 01-1.562-1.62l-.074-.081c-.847-.917-1.692-1.836-2.537-2.753l-1.296-1.415c-.435-.474-.873-.945-1.314-1.411l-.443-.471a188.968 188.968 0 01-1.854-1.991 767.331 767.331 0 01-4.596-5.095 682.518 682.518 0 00-2.845-3.17 467.2 467.2 0 01-5.367-6.038c-1.954-2.243-3.76-4.52-4.95-6.039-1.593-2.093-3.12-4.308-4.462-6.261l-.088-.124-.078-.113a371.48 371.48 0 00-1.417-2.048 51.181 51.181 0 01-1.318-2.002l-.488-.807c-.317-.524-.628-1.047-.964-1.553a43.17 43.17 0 00-1.516-2.18c-.498-.658-1-1.304-1.505-1.955a8.905 8.905 0 01-.873-1.409 6.357 6.357 0 01-.304-1.054 13.86 13.86 0 01.04-2.858l.077-.495c.046-.273.089-.545.128-.82l.052-.28c.19-.956.495-1.95.93-3.039.36-.825.607-1.38.893-1.939.247-.488.474-.983.703-1.482l.04-.082.066-.152.043-.091.166-.368c.64-1.397 1.36-2.863 2.335-4.748.191-.36.382-.718.577-1.079.215-.4.43-.803.64-1.21l.624-1.217.622-1.216a360.24 360.24 0 002.336-4.602c.5-1.01.971-2.038 1.437-3.06l.05-.114.053-.117c.282-.626.565-1.245.855-1.864a198.81 198.81 0 012.431-5.006c.996-1.995 1.749-3.594 2.364-5.023.745-1.72 1.399-3.456 2.144-5.536a65.245 65.245 0 001.65-5.207 71.54 71.54 0 011.505-4.942l.36-1.02c.442-1.234.95-2.68 1.375-4.064a88.954 88.954 0 011.72-5.119l.185-.488c.211-.563.423-1.129.625-1.698l.187-.524.039-.113c.127-.365.254-.725.399-1.086.29-.665.598-1.323.915-1.978l.067-.137c.3-.623.573-1.182.947-1.702.456-.549.99-1.08 1.586-1.575.46-.328.955-.615 1.435-.894l.102-.057.096-.057.007.191.07.754.128-.074.173-.117c.395-.333.799-.648 1.194-.958l.117-.093.18-.141c.268-.206.548-.407.841-.591l-.018.096-.014.304v.64l.014.888.148-.036c.343-.23.682-.452 1.036-.653.608-.347 1.318-.595 2.226-.78.795-.169 1.671-.272 2.314-.346l.48-.056c.704-.099 1.41-.195 2.114-.286l1.596-.206 1.332-.173c.746-.113 1.491-.265 2.16-.4l.116-.025.985-.215.262-.054c.353-.081.714-.156 1.07-.226.873-.184 2.18-.464 3.477-.785l.386-.1c.306-.078.617-.162.925-.254a93.726 93.726 0 008.667-2.912l.096-.039.172-.067.223-.085.64-.286a79.995 79.995 0 004.324-1.982l.113-.063.576-.34c.678-.4 1.477-.877 2.244-1.41a86.545 86.545 0 001.773-1.26c.524-.375 1.04-.757 1.551-1.14.898-.746 1.848-1.556 2.739-2.44 1.099-1.08 2.056-2.29 2.982-3.46l.356-.482c.453-.612.83-1.12 1.166-1.644l.145-.223.1-.152.76-1.196.087-.142.174-.269.265-.427.067-.11c.165-.265.324-.527.483-.792l.043-.082c.039-.042.078-.092.117-.142a.435.435 0 00-.12-.197.9.9 0 00-.167-.128c-.043-.254-.145-.626-.505-.842a.923.923 0 00-.307-.106l-.008-.113c-.088-.294-.151-.502-.268-.68A.772.772 0 0087.76.9c-.12 0-.24.035-.36.102z" fill="#161616" mask="url(#d)"/></g><path d="M314.804 230.06l-.155.084a81.441 81.441 0 00-3.019 1.973c-.48.328-.96.659-1.44.997-.453.366-.934.8-1.568 1.405l-.206.194a976.987 976.987 0 01-1.868 6.814l-.159.574c-.651 2.342-1.227 4.453-1.69 6.539l-.214.915c-.2.81-.384 1.624-.564 2.442l-.203.853c-.796 3.336-1.618 6.788-2.15 10.29-.33 2.184-.446 4.47-.55 6.489l-.011.187-.05.979c-.044.835-.084 1.673-.124 2.508l-.018.451c-.065 1.452-.13 2.9-.232 4.348-.057.87-.12 1.74-.184 2.614l.003.094c-.279 3.657-.59 7.808-.26 11.767l.076.892c.18 2.226.365 4.491.785 6.675.25 1.286.543 2.579.825 3.795l.037.175.036.152c.228.997.452 1.99.651 2.991.21 1.029.435 2.05.666 3.072l-.017.172-.102 1.357.51.148.055.342.112.532a155.414 155.414 0 011.451 7.993c.29 2.286.496 4.544.699 6.852.203 2.259.452 4.369.786 7.102.299 2.374.644 4.729 1.048 7.173.352-.122.704-.24 1.058-.359a31.4 31.4 0 011.375-.427l.467-.221c.485-.233.974-.462 1.462-.695l.666-.306c.091-.042.182-.077.275-.116.138-.057.3-.141.456-.166l.232-.031c.058-.015.114-.028.17-.045a296.89 296.89 0 01-.398-2.742 526.621 526.621 0 01-.836-7.12c-.043-.398-.083-.8-.123-1.202a3.31 3.31 0 01-.485-1.233 3.98 3.98 0 01-.04-.475c-.025-.719.007-1.445.043-2.057l.044-.853-.014-.137a142.42 142.42 0 00-.167-1.547c-.275-2.332-.67-4.82-1.238-7.83-.057-.311-.12-.621-.18-.932a55.876 55.876 0 01-.93-3.427c-.095-.391-.193-.786-.29-1.177l-.03-.116c-.14-.574-.282-1.148-.4-1.722-.06-.261-.11-.525-.157-.79a63.4 63.4 0 01-.253-1.581l-.051-.324-.054-.367-.025-.158-.026-.166-.029-.19-.029-.194-.094-.56a48.391 48.391 0 01-.315-2.153 23.099 23.099 0 01-.09-.86l-.022-.239-.08-.73-.061.142-.044.151c-.018.159-.036.317-.05.473l-.026.235-.018.183-.007.1-.047-.35-.062-.39a89.022 89.022 0 01-.445-2.506c-.282-2.149-.564-4.439-.677-6.707-.126-2.487-.079-5.034-.021-7.43l.032-1.339.004-.094c.047-1.83.1-3.837.05-5.775a255.59 255.59 0 00-.166-4.375l-.061-1.452c.122-.961.238-1.93.354-2.9v.103l.066.19.195.494.097.246.051-.166-.018-.151c-.065-.542-.014-1.106.163-1.772.116-.433.2-.873.279-1.317l.021-.124.03-.158.112-.62.08-.437.075-.437.07-.458c.075-.536.147-.976.292-1.409 0-.01.004-.018.007-.025.24-1.233.478-2.47.739-3.702.029-.17.058-.338.09-.504.05-.254.16-.518.316-.765a1.14 1.14 0 00-.797-.3l.058-.231a98.75 98.75 0 00.434-1.931l.04-.172.036-.16c.257-1.162.546-2.483.884-3.712.253-.93.513-1.857.773-2.783l.287-1.011.604-2.142.413-1.48c.449-1.614 1.01-3.626 1.578-5.496a74.724 74.724 0 001.01-3.544l.162-.635.059-.235.054-.208.141-.546A6.97 6.97 0 00315 230l-.196.06zM312 346.703a7.08 7.08 0 01.457-.312.88.88 0 01.281-.114c.008-.094.02-.187.028-.277-.254.238-.508.473-.766.703m.285 7.656a2.39 2.39 0 01-.285.477c.086-.09.168-.176.25-.266a.983.983 0 01.347-.231c0-.113-.003-.226-.007-.339-.098.121-.2.242-.305.359m-1.238 1.739c-.016.039-.031.078-.047.113l.176-.211a.61.61 0 01-.129.098M307 365.074a.535.535 0 00.031-.07V365a.41.41 0 01-.031.074m-3.98 2.153c.02-.051.039-.098.066-.145A.55.55 0 01303 367c.008.075.016.153.02.227m-1.012 2.605c-.004.022-.004.048-.008.074l.033.094c.242-.374.495-.744.74-1.118.079-.112.153-.227.227-.34a.987.987 0 01-.48-.258.922.922 0 01-.193-.284c-.003.628-.074 1.249-.32 1.832m-1.64 2.422a3.26 3.26 0 01-.367.43c.008.015.015.031.027.047.074-.067.145-.133.207-.207.113-.161.207-.325.289-.5a.057.057 0 00.008-.024 3.429 3.429 0 01-.164.254m4.805-.085c-.059.065-.113.136-.172.201.004.114.008.227.02.34.019.1.043.194.07.29.035-.019.07-.04.105-.063.118-.198.231-.392.34-.59.016-.025.032-.054.047-.08-.004-.006-.012-.01-.019-.018a.988.988 0 01-.192-.249 2.825 2.825 0 01-.199.169m.848 1.841c-.008.008-.012.016-.02.023.011-.01.02-.021.03-.033l-.01.01m-101.813-41.945l.055.548c.203.135.41.264.615.387-.214-.556-.332-1.138-.498-1.705-.047-.164-.094-.328-.145-.49L204 330c.07.688.141 1.377.207 2.065m11.795 36.325c.093 2.204.264 4.398.21 6.61-.047 2.007-.03 4.022-.036 6.033-.007.994.047 1.994.053 2.991.006.997.004 1.993.057 2.99.063 1.2.173 2.38.357 3.57.087.578.274 1.157.515 1.685.136.304.357.726.59.922.034.029.063.054.093.083.428.36.498.4 1.009.618.725.31 1.499-.1 2.04-.575.738-.647.962-1.88 1.021-2.841.044-.683.057-1.361.07-2.047.027-1.464.034-2.94-.04-4.405-.077-1.533-.26-3.062-.397-4.588-.14-1.563-.353-3.122-.557-4.681a113.3 113.3 0 01-.52-6.365c-.062-1.3-.966-2.39-2.232-2.39-1.175 0-2.29 1.086-2.233 2.39" fill="#161616"/><path d="M228.856 378.187l.002.002-.002-.002m1.967-6.495l.129.018h-.007a.927.927 0 01-.122-.018m.676-.194c-.055.023-.11.047-.164.073l.012-.01.152-.063m2.366-1.87l-.024.03.024-.03m-.958-4.12c-.466.463-.58 1.088-.448 1.72.078.387.356.669.602.96.277.367.546.753.755 1.16.024.066.045.131.066.198a9.054 9.054 0 01-.527.482c-.257.177-.525.34-.781.522-.176.124-.351.253-.527.386-.236.178-.472.36-.71.545a2.49 2.49 0 00-.193.172c-.057.02-.116.036-.176.052a4.187 4.187 0 00-.4-.038c-.352-.014-.749.043-1.082.106-.292.06-.575.12-.856.202a10.584 10.584 0 00-1.404-.922c-.659-.353-1.365-.613-2.078-.842-.311-.1-.63-.186-.945-.275a4.968 4.968 0 00-1.27-.196 4.384 4.384 0 00-.238-.182 2.181 2.181 0 00-.462-.282c-.358-.186-.606-.236-1.003-.283-1.164-.131-2.22 1.05-1.87 2.188.082.272.168.536.233.81.144.59.204 1.203.29 1.802.083.6.168 1.198.252 1.798a63.34 63.34 0 01.254 3.056c.056.925.035 1.863.02 2.792a258.003 258.003 0 01-.078 3.375c-.029 1.12-.067 2.246-.183 3.358-.05-.079-.099-.157-.15-.235-.245-.376-.552-.733-.751-1.136a13.774 13.774 0 01-.094-.249.902.902 0 00.139-.482 119.38 119.38 0 01-.014-4.25c.01-.735-.03-1.478-.04-2.216a74.845 74.845 0 01-.01-2.224c.014-1.456.043-2.943-.126-4.396-.2-1.728-.222-3.465-.203-5.203a.631.631 0 00-.624-.625.622.622 0 00-.199.033 1.142 1.142 0 00-1.044-.215 1.22 1.22 0 00-.534.31 1.16 1.16 0 00-.322.639l.011-.078a30.852 30.852 0 00-.043.292c-.005.037-.007.072-.011.109-.064.593-.076 1.194-.111 1.79-.04.692-.015 1.388-.011 2.084.007 1.55-.004 3.105.126 4.654.089 1.06.17 2.125.28 3.185v.07c-.004.785-.012 1.566-.019 2.351a53.742 53.742 0 01-.068 2.273c-.015.28-.01.56-.018.843-.01.393.122.685.28 1.031.104.23.256.429.418.622.35.465.724.907 1.092 1.356.397.547.766 1.116 1.172 1.652.273.36.516.699.985.813.43.107.806-.086 1.107-.378.172-.165.283-.41.362-.628.115-.31.211-.617.29-.939.171-.71.233-1.459.28-2.187.035-.564.071-1.132.11-1.7.047-.752.083-1.509.115-2.261.045-1.085.086-2.167.098-3.25.177.628.35 1.258.504 1.891.079.481.158.974.3 1.433.305.96 1.15 1.656 2.186 1.656.597 0 1.178-.239 1.6-.66.38-.382.731-1.039.664-1.595-.119-.973-.375-1.918-.65-2.857.094-.023.187-.047.28-.073.73-.203 1.443-.474 2.184-.63l.127-.002c.265.093.542.14.83.142a2.53 2.53 0 001.774-.73c.658-.656.862-1.647.62-2.504a5.6 5.6 0 00.436-.198c.33-.168.735-.55.906-.882.021-.039.04-.078.059-.117.393-.386.85-.716 1.267-1.075a6.957 6.957 0 001.36-1.62c.373-.604.506-1.263.517-1.967a3.007 3.007 0 00-.192-1.079l.349-.065c.742-.137 1.258-.939 1.258-1.65a1.7 1.7 0 00-.502-1.205c-.35-.35-.738-.446-1.21-.504l-.183-.02.226.03c-.445-.058-.891-.1-1.338-.147a58.682 58.682 0 00-1.61-.187 1.751 1.751 0 00-.208-.012 1.78 1.78 0 00-1.268.508m5.79-5.211c-.293.284-.378.777-.504 1.163-.03.097-.062.194-.095.29a.797.797 0 01.192.247c.136.273.165.55.09.847-.151.588-.61.97-1.15 1.135a2.303 2.303 0 01-.23.058 1.072 1.072 0 00.75.911c.381.125.705.011.976-.215a.948.948 0 001.128-.186c.198-.206.26-.44.285-.716.039-.392.078-.78.113-1.173a.768.768 0 00.721-.587.854.854 0 00-.081-.629c-.107-.192-.258-.283-.446-.365l-.055-.03a.893.893 0 00-.049-.294c-.119-.347-.336-.617-.688-.72a.956.956 0 00-.255-.033c-.259 0-.505.112-.702.297m-45.405-65.255l-.02.032c-.182.32-.272.664-.272 1.033 0 .22.033.421.094.611.056.332.124.658.216.99.073.276.156.553.229.83l.06.22a.984.984 0 00.05.4 73.089 73.089 0 004.223 9.817c.788 1.52 1.62 3.013 2.45 4.507.72 1.3 1.402 2.605 1.983 3.971.274.71.508 1.432.768 2.147.213.59.452 1.169.688 1.748l.136.609c.296 1.292.584 2.587.876 3.882.257 1.155.508 2.314.744 3.476.103.825.21 1.65.33 2.472.067.426.147.849.23 1.275.102.521.178 1.057.3 1.575.187.799.966 1.363 1.756 1.363.792 0 1.56-.564 1.756-1.363.163-.685.12-1.405.037-2.1a74.792 74.792 0 00-.274-2.005c-.139-.93-.334-1.856-.51-2.783a219.518 219.518 0 00-1.163-5.533c-.184-.841-.379-1.682-.574-2.52-.257-1.103-.524-2.207-1.014-3.23a147.517 147.517 0 01-2.17-4.709c-.138-.312-.27-.628-.403-.944-.382-.941-.754-1.89-1.183-2.81a35.057 35.057 0 00-1.36-2.627c-.455-.802-.955-1.579-1.407-2.38a27.706 27.706 0 01-1.172-2.317 22.33 22.33 0 01-.822-2.606c-.117-.479-.211-.966-.316-1.448-.052-.227-.104-.455-.167-.685a2.886 2.886 0 00-.757-1.302c-.456-.434-.95-.607-1.565-.636l-.079-.002c-.697 0-1.343.453-1.698 1.042m134.91-67.369l.259.106a3.233 3.233 0 01-.26-.106m-8.023-5.024c-.352.6-.178 1.519.484 1.841.96.469 1.93.901 2.918 1.306.715.294 1.45.539 2.165.83l1.013.436a.057.057 0 01-.017-.01c.334.146.668.29 1.002.429.132.057.26.11.388.163.714.312 1.357.689 1.984 1.15.554.453 1.073.922 1.535 1.471.274.38.54.757.779 1.161.263.45.472.926.682 1.401.27.663.533 1.33.821 1.987.274.624.637 1.217.996 1.795.739 1.185 1.422 2.401 2.14 3.601.74 1.234 1.49 2.459 2.254 3.676.81 1.301 1.774 2.507 2.716 3.717a164.937 164.937 0 013.754 5.105c1.201 1.71 2.314 3.477 3.558 5.151a390.6 390.6 0 013.95 5.464c.537.748 1.074 1.493 1.596 2.248.59.852 1.205 1.693 1.717 2.594.398.699.711 1.444 1.06 2.168.348.724.71 1.44 1.074 2.157.703 1.39 1.307 2.827 1.983 4.228.693 1.444 1.283 2.93 1.976 4.374.666 1.373 1.472 2.672 2.102 4.063a16.86 16.86 0 01.938 3.288c.054.482.09.962.114 1.448a7.85 7.85 0 01-.067 1.245 12.213 12.213 0 01-.666 2.423c-.295.748-.604 1.49-.913 2.235-.871 1.926-1.81 3.824-2.699 5.747-.877 1.895-1.716 3.81-2.64 5.684a117.3 117.3 0 01-1.644 3.214c-.518.975-1.087 1.915-1.649 2.866-.477.798-.992 1.572-1.486 2.36-.572.908-1.141 1.82-1.724 2.724a243.766 243.766 0 01-2.012 3.072c-.604.911-1.262 1.784-1.895 2.671a167.117 167.117 0 01-3.143 3.924 107.987 107.987 0 00-3.618 4.608c-2.08 2.803-4.1 5.644-6.218 8.415a256.92 256.92 0 01-3.53 4.258c-1.252 1.465-2.57 2.866-3.865 4.292-.743.818-1.476 1.647-2.197 2.487l.047.003c.341.043.604.199.828.458.131.152.241.32.345.486.121.195.241.39.355.59.068.113.136.23.203.347.028-.025.056-.046.085-.07.334-.281.68-.555 1.032-.81.405-.294.81-.59 1.212-.88.426-.312.835-.635 1.248-.965.746-.6 1.443-1.263 2.182-1.877a91.092 91.092 0 002.18-1.848c.714-.631 1.436-1.26 2.1-1.947.658-.681 1.34-1.338 1.991-2.03.358-.381.716-.765 1.081-1.14.252-.322.5-.645.747-.97 1.73-2.282 3.458-4.566 5.186-6.851.55-.692 1.091-1.394 1.664-2.072.693-.83 1.415-1.643 2.083-2.494 1.49-1.901 3.022-3.788 4.366-5.804a294.394 294.394 0 003.661-5.64c1.05-1.66 2.151-3.304 3.075-5.038a147.531 147.531 0 003.094-6.205c.412-.873.785-1.76 1.186-2.636.487-1.064.985-2.125 1.49-3.182a88.502 88.502 0 002.706-6.24c.188-.497.362-.986.522-1.49.196-.639.267-1.39.334-2.044.05-.468.103-.936.103-1.408 0-.55-.053-1.086-.106-1.632a19.017 19.017 0 00-.608-3.278c-.284-.986-.683-1.947-1.123-2.877-.41-.862-.886-1.689-1.366-2.515-.48-.82-.913-1.66-1.322-2.52-.75-1.567-1.44-3.156-2.187-4.725a137.824 137.824 0 00-2.442-4.913c-.54-1.033-1.102-2.023-1.802-2.955-.868-1.15-1.724-2.299-2.585-3.452-1.72-2.303-3.413-4.62-5.176-6.89l.342.437c-1.412-1.93-2.773-3.899-4.231-5.793a351.877 351.877 0 00-2.528-3.246c-.7-.884-1.429-1.742-2.137-2.618a76.395 76.395 0 01-3.27-4.772c-.536-.841-1.062-1.685-1.603-2.522-.512-.795-1.052-1.576-1.557-2.378-.569-.9-.95-1.9-1.447-2.838a14.32 14.32 0 00-1.902-2.749c-.687-.78-1.547-1.409-2.392-2.008-.818-.581-1.725-.954-2.663-1.301-.996-.37-1.988-.767-3-1.09a36.173 36.173 0 01-2.652-.98c-.406-.19-.819-.379-1.22-.577a1.615 1.615 0 00-.703-.167c-.456 0-.886.209-1.142.65M325 354.195c.141.016.27.055.387.117a7.985 7.985 0 00-.184-.312 4.67 4.67 0 00-.203.195m-4.091 3.917c-.878 1.052-1.77 2.09-2.676 3.115-.474.542-.988 1.042-1.44 1.597-.368.453-.733.914-1.167 1.312-.037.012-.075.026-.113.037a2.599 2.599 0 00-.574.264c.004.099-.004.2-.03.298-.126.512-.373.94-.692 1.364l-.217.283a1.974 1.974 0 001.5 1.618c.281-.403.652-.735 1.02-1.067.296-.276.585-.555.858-.852.164-.185.32-.377.487-.56-.058.063-.11.12-.164.183.464-.523.83-1.1 1.152-1.705.32-.679.555-1.389.855-2.071.148-.349.274-.707.395-1.063.114-.34.251-.67.365-1.012.201-.61.344-1.237.532-1.853l-.091.112m-14.627-90.721c-.18.247-.282.59-.282.94 0 .316.093.737.282.942.223.24.443.482.661.727a1.268 1.268 0 01-.078-.467c.012-.465.015-.931.048-1.392l.079-1.026L307 267l-.032-.001c-.256 0-.506.144-.686.391" fill="#161616"/><path d="M327 291.978l.025.022c.252-.667.501-1.333.747-2-.256.66-.513 1.32-.772 1.978m8.206 2.13c-.405.485-.805.972-1.206 1.46l.16.135c.307.26.628.507.969.72.35.225.745.376 1.136.518.452.162 1.01-.026 1.335-.35a1.35 1.35 0 00.217-1.636c-.244-.406-.572-.755-.886-1.107a16.303 16.303 0 00-.802-.848l-.923 1.108" fill="#161616"/><path d="M337.14 292.499l-.357.347-.053.063c-.432.516-.861 1.031-1.292 1.548-.733.873-1.454 1.754-2.175 2.634-.161.215-.307.436-.511.607-.847 1.267-1.686 2.537-2.535 3.8-.846 1.26-1.732 2.495-2.568 3.762-.478.727-.953 1.46-1.421 2.196-.42.664-.778 1.369-1.143 2.063-.685 1.323-1.442 2.604-2.16 3.913-.774 1.41-1.564 2.817-2.31 4.245-.69 1.327-1.36 2.66-2.032 3.99-.693 1.368-1.392 2.73-2.017 4.13-.982 2.2-1.878 4.435-2.814 6.655-.504 1.162-1.007 2.317-1.585 3.44-.3.582-.597 1.158-.897 1.736-.246.47-.457.983-.746 1.428-.221.249-.365.467-.464.79-.116.382-.058.802.127 1.154l1.055-.505c.217-.102.436-.204.657-.305.089-.042.178-.077.272-.116.135-.057.296-.14.45-.165a2.5 2.5 0 01.228-.032c.086-.02.167-.046.25-.073.132-.063.26-.13.381-.207l.054-.039.14-.116c.13-.105.25-.188.385-.244.256-.444.515-.886.775-1.327.757-1.281 1.396-2.625 2.025-3.973.653-1.393 1.267-2.807 1.885-4.214.61-1.396 1.285-2.768 1.953-4.14.336-.69.714-1.364 1.064-2.049.36-.705.718-1.41 1.072-2.12.66-1.318 1.335-2.63 2.024-3.932.754-1.422 1.507-2.843 2.257-4.264.703-1.333 1.278-2.736 2.032-4.049 1.388-2.414 2.935-4.726 4.445-7.067a698.25 698.25 0 002.386-3.705c.896-1.389 1.853-2.747 2.803-4.102.475-.68.131-1.673-.55-2.066a1.652 1.652 0 00-.572-.19c-.171.165-.343.333-.517.499" fill="#161616"/><path d="M317.343 356.98h-.008.008zm.319 0zm-.308-.273c.028.031.052.064.078.095-.03-.031-.054-.064-.078-.095zm1.307-1.047c-.018.025-.036.045-.053.07.017-.025.035-.045.053-.07zm-3.296-23.294c-1.268.733-1.778 2.455-.988 3.712 1.765 2.804 3.553 5.58 5.495 8.265.84 1.16 1.686 2.315 2.515 3.485.401.566.791 1.134 1.138 1.732.039.066.078.133.12.199-.35.384-.726.74-1.102 1.103-.46.443-.885.923-1.29 1.414-.881 1.07-1.685 2.2-2.529 3.3-.38.464-.78.901-1.233 1.296-.163-.224-.315-.454-.468-.685a13.753 13.753 0 01-.712 1.659c-.095.189-.191.377-.29.566a.863.863 0 01.33.467c.07.252.014.462-.092.689l-.046.1.039.021c.39.214.81.273 1.247.308.453.031.885-.165 1.279-.35.299-.137.576-.348.838-.571.04-.114.081-.228.118-.343.22-.689.365-1.397.588-2.085.245-.765.546-1.547 1.035-2.193.24-.325.513-.622.766-.935.293-.363.615-.706.931-1.048.255-.276.493-.58.78-.824.378-.321.835-.748 1.374-.684.34.041.602.195.826.45.131.15.24.314.343.479.12.191.242.383.355.579l.12.206c.696-.492 1.363-1.015 1.793-1.76.442-.768.429-1.742.191-2.573-.517-1.792-1.736-3.293-2.802-4.791-1.056-1.484-2.12-2.965-3.175-4.448-.52-.73-.985-1.506-1.477-2.257a290.416 290.416 0 01-2.25-3.508 2.86 2.86 0 00-2.406-1.341c-.46 0-.928.115-1.36.366z" fill="#161616"/><path d="M325 354.199a1 1 0 01.387.113 7.985 7.985 0 00-.184-.312c-.07.062-.137.129-.203.199m-13-.036l.13.183a.277.277 0 01.016-.006c-.004-.114-.004-.227-.008-.34l-.138.163m8.86-83.663c.022.03.046.06.068.092l-.069-.093m-13.809-16.21c-1.012.596-1.345 1.931-.767 2.952.43.755.872 1.504 1.344 2.238.53.826 1.146 1.6 1.748 2.37.487.625.973 1.25 1.464 1.874.769.977 1.543 1.948 2.312 2.927.466.622.92 1.262 1.316 1.932.505.855.932 1.752 1.39 2.632a12.86 12.86 0 001.636 2.382c.63.742 1.382 1.364 2.006 2.111.842 1.154 1.576 2.38 2.427 3.522.288.385.582.78.932 1.112.252.237.519.452.788.667.657.52 1.36.98 2.038 1.473.42.36.784.772 1.177 1.162.59.586 1.292 1.064 1.97 1.548.52.448.993.936 1.432 1.466l.402.545c.454.629 1.005 1.091 1.628 1.543.514.375 1.062.702 1.585 1.07.285.241.555.503.838.75.355.307.741.567 1.12.84.027.047.052.094.075.14.186.528.345 1.077.66 1.54.47.69 1.234 1.08 2.071.847a1.84 1.84 0 001.093-.847c.224-.385.36-.992.185-1.423-.178-.434-.308-.88-.512-1.3a6.046 6.046 0 00-.864-1.292c-.08-.067-.165-.134-.245-.197a1.877 1.877 0 00-.571-.389l-.449-.233a6.626 6.626 0 01-.736-.467 21.445 21.445 0 00-1.484-1.119c-.418-.277-.842-.542-1.253-.827a6.597 6.597 0 01-.52-.509c-.578-.787-1.174-1.548-1.855-2.25-.739-.764-1.646-1.3-2.311-2.141-.263-.336-.518-.678-.809-.992-.336-.37-.714-.703-1.093-1.031-.53-.461-1.038-.93-1.491-1.467-.738-1.096-1.335-2.289-2.021-3.417a16.591 16.591 0 00-1.584-2.15c-.458-.525-.945-1.02-1.39-1.556-.573-.805-1.025-1.677-1.485-2.547-.626-1.195-1.323-2.314-2.192-3.348-1.648-1.96-3.3-3.911-4.872-5.933-.819-1.092-1.532-2.246-2.206-3.436-.385-.682-1.119-1.061-1.86-1.061-.367 0-.736.093-1.067.288" fill="#161616"/><path d="M340.954 286.284c-.402.47-.768.975-1.14 1.467a64.581 64.581 0 00-1.628 2.234 324.55 324.55 0 00-4.278 6.355c-.404.617-.336 1.41.04 2.009-.932 1.696-1.845 3.4-2.732 5.118-.424.817-.225 1.825.612 2.306.808.47 1.848.183 2.33-.603.9-1.466 1.838-2.912 2.69-4.404a2128.83 2128.83 0 012.834-4.92c.801-1.385 1.7-2.72 2.596-4.042.51-.758 1.021-1.518 1.532-2.275.207-.308.396-.627.577-.95.09-.158.178-.32.258-.48.17-.352.39-.843.35-1.249-.042-.506-.17-.936-.543-1.306-.377-.372-.809-.487-1.319-.538a1.62 1.62 0 00-.148-.006c-.834 0-1.53.698-2.03 1.284m-26.336 51.741l-.754.328a26.14 26.14 0 00-.74.319c-.113.052-.165.154-.09.239.068.08.23.118.343.063.246-.11.495-.214.74-.319.252-.107.505-.217.758-.327.114-.05.161-.154.09-.24a.299.299 0 00-.222-.088.32.32 0 00-.125.025" fill="#161616"/><path d="M294.118 349.045c-.046.022-.088.04-.13.058.042-.018.084-.04.13-.058m22.001-13.936c-.326.055-.647.143-.967.227-.678.174-1.356.356-2.028.56a49.354 49.354 0 00-4.584 1.666c-.8.336-1.58.736-2.362 1.123-.667.331-1.335.66-1.993 1.012-.703.376-1.403.759-2.101 1.145-.665.368-1.337.715-1.986 1.111-.76.467-1.526.915-2.292 1.367-.781.459-1.572.911-2.314 1.436a52.191 52.191 0 00-2.545 1.877 6.036 6.036 0 00-1.265.948c-.123.12-.214.27-.341.382-.658.58-.296 1.803.51 2 .73.176 1.311-.31 1.87-.717.149-.078.3-.152.455-.223a28.17 28.17 0 011.792-1.162c.488-.292.98-.58 1.471-.86.84-.478 1.67-.98 2.532-1.418.963-.484 1.911-.998 2.9-1.428.598-.26 1.199-.522 1.796-.784.397-.172.801-.32 1.205-.481a88.874 88.874 0 012.742-1.024c.44-.16.887-.31 1.337-.445.15-.076.302-.149.453-.225.47-.241.945-.478 1.42-.719l.647-.316c.087-.044.176-.08.266-.12.135-.06.293-.147.444-.172a2.49 2.49 0 01.225-.033 2.92 2.92 0 00.246-.076 3.68 3.68 0 00.375-.216c.019-.014.036-.029.054-.04l.137-.12c.225-.193.422-.316.728-.331.01-.004.02-.004.031-.004.326 0 .633.225.777.527l.305-.221c.04-.029.082-.058.124-.09a1.27 1.27 0 00.153-.136c.11-.021.222-.044.335-.061.32-.063.654-.107.96-.22-.004-.003-.007-.003-.01-.007a1.73 1.73 0 00.833-.488c.582-.605.73-1.608.291-2.344-.38-.637-.99-.98-1.7-1.005-.022-.004-.043-.004-.068-.004-.284 0-.572.066-.858.11" fill="#161616"/><path d="M305.706 345.177c-.32.095-.633.24-.946.36a61 61 0 00-2.567 1.073c-1.528.669-3.008 1.45-4.52 2.155-.544.228-1.092.448-1.645.658-.352.13-.703.266-1.055.404-.425.162-.884.252-1.334.326l.081-.257c.215-.49.454-.967.704-1.443.292-.563.137-1.277-.408-1.61-.524-.317-1.256-.138-1.55.424-.493.93-.96 1.864-1.306 2.864-.194.557-.26 1.265.084 1.769.356.518.865.755 1.428.952.7.248 1.478.124 2.202.058.661-.062 1.273-.284 1.906-.47.401-.117.799-.24 1.196-.365.886-.285 1.73-.683 2.581-1.058l-.38.164c1.467-.635 2.902-1.35 4.334-2.068.555-.281 1.107-.576 1.617-.945.612-.442 1.259-.875 1.685-1.525l-.085.114c.212-.295.338-.605.236-.986-.123-.467-.517-.74-.967-.766a3.805 3.805 0 00-1.291.172" fill="#161616"/><path d="M290.75 362.493l.024.03-.024-.03m-.11-.206l.029.071c-.011-.024-.022-.047-.03-.071m14.446-17.04c-.173.172-.222.366-.246.6l-.038.321c-.037.254-.072.503-.118.753a4.381 4.381 0 01-.249.775 22.64 22.64 0 01-1.132 2.175 25.03 25.03 0 01-1.37 2.143c-.53.66-1.138 1.233-1.769 1.795a21.4 21.4 0 01-1.036.727c-.43.29-.85.59-1.269.893-.835.607-1.681 1.206-2.518 1.82-.377.275-.755.53-1.16.76-.434.247-.868.494-1.301.746-.41.237-.819.478-1.235.7-.35.186-.7.367-1.04.565-.232.133-.44.29-.648.457-.368.293-.624.7-.797 1.133a2.034 2.034 0 00-.15.963c.024.223.063.38.15.582.072.174.138.272.26.425.294.377.69.62 1.116.823.627.3 1.314.425 1.997.52.27.038.545.083.818.076a6.88 6.88 0 00.96-.108c.476-.076.948-.223 1.405-.366.566-.178 1.1-.425 1.637-.67a20.73 20.73 0 001.273-.64 8.879 8.879 0 001.196-.754c1-.75 2.091-1.371 3.085-2.128l-.075.06.18-.14.004-.003-.002.002c.385-.302.765-.61 1.148-.911.391-.302.774-.612 1.146-.942.378-.331.752-.662 1.137-.99.742-.627 1.533-1.192 2.257-1.845.34-.306.385-.867.16-1.255-.295-.506-.91-.63-1.408-.37-.638.328-1.179.844-1.72 1.312-.489.421-.967.861-1.436 1.31-.884.853-1.768 1.695-2.714 2.482-.82.584-1.68 1.103-2.514 1.671-.844.572-1.817.931-2.743 1.346l.11-.047c-.247.106-.495.21-.742.317l.18-.079c-.818.294-1.656.552-2.512.702-.468.037-.932.01-1.396-.043a4.728 4.728 0 01-.913-.247 2.161 2.161 0 01-.226-.127 2.586 2.586 0 01-.125-.119l-.011-.045v-.038c.015-.06.032-.12.052-.18a2.99 2.99 0 01.139-.237c.07-.076.144-.146.223-.213.311-.219.65-.393.99-.558.427-.201.853-.4 1.273-.616.423-.224.835-.461 1.259-.68.413-.213.835-.416 1.227-.663a55.791 55.791 0 002.504-1.695c.853-.606 1.72-1.199 2.555-1.833.35-.262.66-.55.964-.869.672-.7 1.3-1.437 1.827-2.26.67-1.031 1.259-2.112 1.82-3.206.272-.524.514-1.06.698-1.622.09-.272.128-.558.167-.84.048-.338.093-.677.131-1.015.021-.212-.104-.457-.246-.6a.84.84 0 00-1.19 0" fill="#161616"/><path d="M293.264 366.81l.005.004v-.004l-.005-.004v.004zm.24.157l.067.03a.724.724 0 01-.067-.03zm-.231-.1l.003.001.005.038-.008-.038zm-.01-.103l.006.046.09.074a1.315 1.315 0 01-.09-.07l.007.054h-.003a1.282 1.282 0 01-.01-.058l-.01-.01v-.002l.01.008c0-.011-.002-.021-.003-.032l.003-.01zm-.05 0l.035.028v.003l-.034-.03zm.109-.177l-.01.024a.104.104 0 00.008-.021l.002-.003zm-.041-.051a6.662 6.662 0 01-.018.132l-.002-.01a.648.648 0 01.02-.122zm.097-.084l-.053.128-.003.003c.018-.044.036-.087.056-.13zm.08-.048zm.018-.024c-.006.007-.01.016-.017.023.006-.007.01-.016.017-.023zm15.49-3.475c-.098.08-.198.158-.299.237l.298-.237zm-.806-3.2l-.084.069c.028-.023.055-.046.084-.068zm1.399-1.27c-.552.509-1.098 1.018-1.676 1.49-.971.773-1.932 1.553-2.888 2.345-.778.611-1.568 1.192-2.417 1.707-.506.309-1.024.602-1.54.897-.39.22-.796.404-1.202.589-.587.24-1.174.477-1.763.713-.945.374-1.895.744-2.893.928a5.676 5.676 0 01-1.075-.012 5.38 5.38 0 01-.686-.174l-.042-.047a2.781 2.781 0 01-.095-.168.117.117 0 01.007-.025 2.65 2.65 0 01.084-.15c.067-.075.133-.145.207-.212l.407-.3c.244-.177.433-.384.513-.693a1.21 1.21 0 00-.111-.896c-.29-.516-1.035-.784-1.535-.417-.308.225-.616.446-.91.697-.313.268-.551.678-.712 1.059-.2.472-.294.94-.188 1.455.09.45.275.878.503 1.274.255.45.674.733 1.118.94.437.207.888.364 1.357.461 1.104.24 2.237.03 3.31-.276.691-.2 1.377-.443 2.059-.682a26.713 26.713 0 002.268-.89c1.282-.577 2.481-1.353 3.65-2.148.628-.428 1.219-.94 1.803-1.433.549-.468 1.097-.94 1.656-1.401l.2-.162c.45-.36.898-.722 1.342-1.097.455-.384.87-.82 1.276-1.263.542-.587.562-1.524 0-2.108a1.413 1.413 0 00-1.014-.436c-.399 0-.72.17-1.013.436z" fill="#161616"/><path d="M317.787 362.123c-.031.045-.066.087-.1.132.034-.045.069-.087.1-.132m1.339-4.092c-.335.126-.635.415-.886.669-.254.254-.477.536-.715.807-.446.51-.9 1.014-1.35 1.52-.49.553-1.055 1.019-1.62 1.5-.58.49-1.13 1.016-1.723 1.497-1.46.996-3.02 1.828-4.565 2.681-.422.236-.843.477-1.276.696-.454.23-.91.446-1.363.669-.761.369-1.5.776-2.274 1.121-.544.202-1.092.393-1.643.581-.715.237-1.454.457-2.197.582a5.877 5.877 0 01-.993-.028 3.75 3.75 0 01-.562-.122c-.042-.028-.084-.052-.122-.08a3.564 3.564 0 01-.223-.226 4.311 4.311 0 01-.108-.164c-.01-.338.021-.676.045-1.01.046-.678-.607-1.246-1.251-1.246-.328 0-.65.132-.883.365-.247.244-.341.543-.366.881-.017.268-.035.533-.048.801a4.96 4.96 0 000 .345c.006.153.02.404.062.525.073.223.167.436.282.638.203.358.478.714.772.992.432.422.972.662 1.555.79.334.074.683.108 1.024.147.27.03.53.045.803.034.463-.02.94-.124 1.394-.232.538-.13 1.074-.29 1.594-.467 1.064-.37 2.11-.777 3.086-1.334.935-.533 1.88-1.04 2.807-1.584 1.691-.99 3.425-1.922 5.046-3.026.44-.296.882-.616 1.27-.979.369-.347.735-.7 1.098-1.05.338-.328.69-.641 1.007-.986.307-.338.587-.697.862-1.055.36-.446.718-.895 1.077-1.344.234-.285.454-.581.67-.884.15-.21.268-.434.368-.667.078-.276.149-.553.22-.83a.908.908 0 00-.187-.346.705.705 0 00-.506-.212.53.53 0 00-.181.031" fill="#161616"/><path d="M292.938 370.223c.032.04.064.078.093.118a1.29 1.29 0 01-.093-.118zm22.179-7.783l-.053.129.053-.13zm5.534-5.006c-.025.068-.053.132-.082.2.029-.068.057-.132.082-.2zm-.865.533c.043-.23.107-.455.182-.676.118-.23.254-.44.401-.647.396-.49.797-.972 1.19-1.457a69.131 69.131 0 01-.875 2.167c-.23.452-.458.91-.687 1.363a6.538 6.538 0 01-.29.514c.032-.418.04-.844.08-1.264zm3.822-9.635c-.519.337-.947.797-1.391 1.219-.454.432-.89.861-1.28 1.35-.661.837-1.326 1.67-2.002 2.494-.586.716-1.236 1.412-1.662 2.242a5.533 5.533 0 00-.58 2.126c-.035.51.047 1.021.029 1.533l-.04.131c-.206.383-.474.74-.707 1.108-.336.544-.558 1.151-.793 1.744-.15.33-.311.654-.465.987-.19.414-.362.842-.53 1.268-.046.097-.093.19-.146.279-.057.06-.114.118-.175.17-.3.208-.62.39-.927.595-.521.35-1 .768-1.458 1.196-.404.38-.8.768-1.187 1.17-.34.35-.658.717-1.025 1.04-.555.384-1.148.695-1.76.985-.018.007-.032.014-.046.018-.09-.004-.179-.008-.268-.008-.258 0-.561.086-.815.137-.176.032-.343.086-.511.135-.473.133-.923.311-1.38.483-.312.117-.623.25-.93.389-.547.061-1.098.086-1.651.082a3.73 3.73 0 00-.713-.257c-.482-.121-1.007-.082-1.5-.068-.486.018-.977.104-1.452.179a5.344 5.344 0 00-.493.097c-.801-.05-1.595-.14-2.392-.236-.704-.1-1.405-.208-2.08-.44a1.651 1.651 0 01-.112-.06c-.018-.29-.024-.583-.039-.872a10.999 10.999 0 00-.19-1.54c-.128-.734-.453-1.412-.579-2.145-.053-.41-.118-.81-.321-1.186-.193-.361-.469-.704-.82-.925-.41-.265-.982-.405-1.464-.24-.334.11-.626.25-.866.518a1.165 1.165 0 00-.265.38c-.131.285-.164.51-.206.82-.026.201.035.433.12.651-.042.047-.085.093-.128.143-.247.29-.408.596-.408.99 0 .371.147.729.408.99.432.425 1.19.547 1.716.225l.06.136c.083.207.162.418.222.64.1.346.154.71.215 1.068.053.324.104.654.168.982.211 1.055 1.23 1.562 2.16 1.858.5.161 1.014.258 1.533.358l-.043.06c-.286.426-.457.909-.429 1.426.036.568.257 1.1.633 1.526.318.354.733.583 1.198.675.31.065.6.054.896.015a1.753 1.753 0 00-.225.5 1.93 1.93 0 00.497 1.877c.165.128.33.253.494.382.375.218.761.26 1.183.268.294.003.654-.093.95-.154.205-.043.405-.1.605-.15.94-.243 1.52-1.216 1.373-2.144a10.647 10.647 0 00.468-.658 50.73 50.73 0 003.396-1.458c1.506-.718 2.936-1.586 4.337-2.487.722-.468 1.438-.943 2.149-1.425.733-.5 1.427-1.076 2.095-1.655a48.74 48.74 0 001.199-1.077c-.021-.224-.031-.434.038-.66a2.49 2.49 0 01.229-.571c.272-.469.664-.836 1.054-1.205.28-.27.551-.542.808-.836.154-.186.3-.372.458-.554-.04.044-.076.086-.113.13l-.04.049.04-.05c.42-.5.748-1.052 1.042-1.63.304-.664.522-1.365.804-2.04.14-.343.258-.697.373-1.047.107-.336.235-.66.343-.997.222-.704.368-1.43.593-2.133.247-.783.551-1.583 1.044-2.244.243-.333.518-.636.772-.958.297-.372.622-.722.94-1.071.258-.283.498-.594.787-.844.275-.237.591-.528.948-.65.116-.35.233-.698.353-1.048.115-.335.218-.643.261-1 .061-.504-.242-.997-.668-1.247a1.339 1.339 0 00-.686-.186 1.9 1.9 0 00-1.03.332z" fill="#161616"/></g></svg>