<svg xmlns="http://www.w3.org/2000/svg" width="215.095" height="365.409"><path d="M105.52 53.277c-.091-1.282.086-2.605 1.249-3.353.915-.587 1.994-.151 2.526.699 1.898 3.031-2.053 6.92-3.546 9.194-1.4 2.132-1.349 4.751.833 6.287 2.041 1.436 4.536.125 5.248-1.995.258-.766-.95-1.092-1.205-.332-1.129 3.359-5.269 1.002-4.432-2.049.491-1.787 2.137-3.212 3.159-4.711 1.312-1.922 2.087-4.848 1.021-7.025-.694-1.42-2.46-1.872-3.85-1.331-1.854.722-2.381 2.823-2.254 4.616.058.799 1.308.805 1.251 0zm3.667 20.333l.001-.124c.029-.188-.013-.167-.126.06.338-.046.518-.474.437-.769-.1-.361-.432-.482-.769-.437-.645.088-.79.718-.792 1.269-.006.807 1.245.807 1.249.001z"/></svg>