<svg xmlns="http://www.w3.org/2000/svg" viewBox="0 0 496.8 597.6"><path d="M245.9,165.7c-1.8-.8-14.1,4.5-8.9,5.3a11.4,11.4,0,0,1,13.9-.5,2.1,2.1,0,0,0,1.9,0c2.6-3.3-4.5-5.1-6.9-4.8"/><path d="M270.5,167.6c-2.4.5-8.4,1-8,4.2a.9.9,0,0,0,1.2,0c4.2-3.6,9.8-2.6,13.6.9,1.8-2.2-4.8-5.9-6.8-5.1"/><path d="M271.2,168.8c-2.4-.2-4.7,1.5-6.9,1.3s-1.6,1.5-.2,1.5c4.3-2.5,10.4-2.1,13.9,1.8.6-.5,0-1.1-.5-1.4h.1c-1.8-1.6-3.9-3.5-6.4-3.2"/><path d="M252.2,191.3c-.6,2.7,8.1,2.6,9.1,1.4s-1-2.8-1.9-1.5l-3.6.4c-.8-.8-3.1-1.9-3.6-.3"/><path d="M243.3,172.4c-2.3.9-5.4,2.4-6.4,4.6,2.8.1,5.2-4,8.6-3.1h-.3a8.4,8.4,0,0,1,5.5,3.5c4.9,1.8-2.3-7.5-7.4-5"/><path d="M245,176.4c.6-.3.9.8.2.9s-.6-.1-.5-.4-.1,0-.1-.1h0c0-.2.1-.4.3-.3h.1m-.9-3.7c-5.3,2.4-1.4,9.4,3.6,6.6,3.4-2.2.2-8.3-3.6-6.6"/><path d="M248.8,181.4a10,10,0,0,0-4.1-1.1h.2c0,.1-2.8.9-3.8.3-.6-2.9,11-1.4,7.7.7"/><path d="M269.4,172.5c-1.9-.7-10.9,4.6-7.2,5.8,1.7-1.6,3.7-3.4,6.2-3.7s5.4,1.6,7.8,3c3.6-.8-5.1-5.7-6.8-5.1"/><path d="M269.7,176.6c.3.2.2.7.1,1s-1.1-1-.1-1m-1.1-3.5c-5.8.9-3.6,9.3,1.8,7.6a3.9,3.9,0,1,0-1.8-7.6"/><path d="M265,182.2c-.8-2.9,11.7-1.8,8.2.1-2.3-.8-5.1-1.3-7.4.1-.3,0-.7,0-.8-.2"/><path d="M253.9,173.3a35.1,35.1,0,0,1-1.7,17.6c3,5.7,5.5-18.4,1.7-17.6"/><path d="M267.9,208.8l1.8-1.2a2.1,2.1,0,0,0,.5,1.3l-2.8.2.5-.3m12.9-27.3a36.8,36.8,0,0,0,.4-7.4h.8c.9,3-.8,6.1-1.4,8.9a7.7,7.7,0,0,1,.2-1.5m-49.3,2.7c-3.4-.8-3-9.8-.1-10.8-.2,3.8.3,7.3.4,10.8h-.3m4.6-20.2c8-3.1,16.5-7.5,21.8-14.4,2.7,5.5,10.3,8.1,15.5,10.6s5.7,7.8,5.8,12.6a.8.8,0,0,0-.1,1.1c.1.1.1.2.2.2-.2,11.4-3.6,23.8-12,31.9h.2l-2.8,1.9h0c-4.2,2.6-8.7,3.5-13.4,1.9-7-1.5-11.5-7.5-14.9-13.3-3.4-10.3-3-21.4-2.2-32l1.9-.5m24.7-36.2c-22.3-1.7-38.8,15-40,36.9a170.2,170.2,0,0,0,.3,20.2,63.6,63.6,0,0,0,6.2,17.6c4.2,3.8,6.8,9.7,11.5,12.8l1.3-.2c.9-2.6,1.8-5.6,1.4-8.5,4.7,5,13.1,7.5,19.6,5.4.8.1,1.6-.5,2.3-.8a1.8,1.8,0,0,0,1,1.8,9.5,9.5,0,0,0,4.4,5.3c9.6,3.8.7,16.6,7.1,23.2,2.5,3.3,7.5,3.2,9.8,6.7.5,2,.5,3.8,2.1,5.4,4.5,2.1,7.1,7.4,12.3,7.9s10.6,2,11.3-3.3,1.1-11.4,1.3-17a40.9,40.9,0,0,0,1.9-13c-1.2-3.8-4.4-6.2-5.9-9.7s1.6-10.3.2-15.3c-2.1-6.8-7.4-12.3-11.5-18.2,1-23.2-8.7-56.9-36.6-57.2"/><path d="M235.6,217.1v-.2h-.1a.4.4,0,0,0,.1.3"/><path d="M286.6,150.2a26.2,26.2,0,0,1,2.2,4.8h0c4.2,9.6,5.9,19.8,9.1,29.6s9.2,18.3,6,28.8v-.2c.1,2.6-2.2,6-1.1,8.3s2.3-1.9,2.7-3.1c4.9-15.1.8-23.1-5.9-36.3-2.4-8.8-4.9-17.4-9.3-25.5-.7-1.2-3-8.2-3.7-6.3"/><path d="M293.9,181.3c-.1,2.1,2.4,4.6,3,6.9.4.7.8,3.6,1.9,2.4s.5-4.6-.2-5.2-3-4.1-2.4-.7c-.8-1-1-3.2-2.3-3.4"/><path d="M273,205.5l-1.6,1.3c-1.5-.7-5.5,1.1-4.4,3.1-.7.3-.7,1.3.1,1.3s3.4-2.7,5.1-3.9c-.2.8-2.7,5.7-.8,4.7,0-1.5,3.2-6.1,1.6-6.5"/><path d="M294.5,190.9c-.2,7.4,1.2,14.9,1.6,22.4-4.6-20.1-9-30.9-1.7-1.9.6,1.4.8,8.1,3.2,5.7,1.2-6.1-.7-12.5-.9-18.8-.5-1.4.6-10.9-2.2-7.4"/><path d="M221.9,176.1c-.1,10.9,1.9,22.5,8.5,31.5,3.4,4.6,8.7,7.6,10.8,13,.9,3,4.2,2.2,3.7-.9,3.4-5.2,1.5-10.7-2.9-14.6a1.5,1.5,0,1,0-2.7,1.2c.6,1.3,1.5,2.5,1.7,4a1.6,1.6,0,0,0-1.9,1.3c-7.1-4.7-10.9-24.1-13.9-20.6a64.4,64.4,0,0,1-2.2-10.6C222.7,179.5,223.5,174.1,221.9,176.1Z"/><path d="M265.3,211.7h0m-1.2-1.4c-2.1,2.6-.5,6.8,1.3,9.2s4.7.8,5.5,2.9c.7,5,8.9,2,3.7-.8-1.2-6.7-10-1.4-9.3-9.9,1-.8-.3-2.3-1.2-1.4"/><path d="M262.3,183.6h.1l-.5-.3h.1l-.8-.6a2.1,2.1,0,0,0,1.1.8m1,1.5-.3-.2.3.2m-.6.6h0c-.1-.2-.3-.3-.4-.4l.4.4m14.2.2-.6-.6c-.7.2-1.5-1-2.2-1.3h0c.3.3,1.6,2.1.5,1.7s-.8-.5-1.1-.7h-.2c.1.5-.4.4-.5.1s-.2.2-.3.1l-.6-.4c-.2-.2,0,.4-.2.3h-.4c-.2-.1,0,.2-.1.1l-1.4-.6v.4c.5.6.2,1.5-.5.8s-.3-.2-.4-.3l-1.2-.8c-.3-.2.4.6.2.8h-.2c.3.7-.3.3-.5,0h0c0,.2,0,.3-.1.3.9,1.6-.9-.4-1.3-1s.9,1.6.2.8h-.1c.3.3.1.6-.1.2l-.6-.4c-.1.4-.7-.6-1-.8v.4c.5.4.4.8-.1.2a.6.6,0,0,1-.7-.1c.1.2.8,1,.4.9s-.7,0-1-.2l-1.6-1.5c2.2,2.4,1,1.8-.7.3l1.4,1.5c.6.9-1.4-1.2-1.6-1.6s1.5,1,1.9,1.3-2.2-2.4-1-1.6v-.4c-.6-.6-.7-1,.1-.2h.3c-1.8-1.7.2-.4,1,.2a1.5,1.5,0,0,1-.8-1.2c-.2-.1-.2-.4.1-.2h0c-.4-.7.5,0,.7.2s.5-.1.7.1h0c-1.4-1.2-.8-1.4.4-.1-1.4-1.7.9.4,1.5.8s-1.9-1.8-1-1.3v-.3c-.6-.5-.6-1.1.1-.3h.2l.4.3c0-.6.4-.1.5,0h0c-.1-.1-.2-.5,0-.4s.2-.3.3-.2.9,0,1.3.2.4-.5.7-.1c-.2-1.4,1-.3,1.4.1s.2-.6.4-.4.6,0,.8.2-.2-.4,0-.5.7-.2,1,0,.4-.1.4.1h.1c.2-.4.6.3.9.4-.8-2.2,5.9,3.9,4.7,4.3s-.1.3-.2.2-.1.4-.3.4" opacity="0.15" style="isolation:isolate"/><path d="M239.3,182.4h.4l-1-.6Zm-.5.2,1.1.7A4.1,4.1,0,0,0,238.8,182.6Zm6.2-.6c.2,0,.3.2.4.4l-1-1Zm-3.9,1.3.3.2-1.4-1.2a5.2,5.2,0,0,0,1.1,1Zm-.6.8.4.4-.3-.4h0v-.2h0Zm9.4-2.1,2.3,2.1a15.8,15.8,0,0,0-2.3-2.2Zm3.8,3.1c-.4-.1-.7-.5-1-.7a7.4,7.4,0,0,1-1.5-.8c-.4-.4,1.7,2.7.2,1.1a18.7,18.7,0,0,0-4.7-3.8c.9.5,5.4,5.6,2.8,3.3-.5.4-1.3-1.2-1.9-1.5,1.2,1,1.6,2.4,0,.6h0c.1.2.6.6.4.9s-1.6-.7-2.1-1.1a.4.4,0,0,1,.1.3c.5.4,1.1,2.1.1,1,.4.6-.1,1-.5.4s-.4-.3-.5-.3a11.9,11.9,0,0,0-2.1-1.2c-.6-.1,1.4,1.1,1.4,1.8s-2.3-2.2-3.7-2.8c1.1.7,4.3,4.7,1.4,1.8h-.3c.9,1.4-.9-.6-1.4-.7s1.2,1.2,1.5,2-.9-.7-1.3-.9-.1.2-.3.1,0,.3-.2.1-.6.1-1-.1l-.6-.5c1.1,1,1,1.9-.4.7.5,1-.5.5-1,.2s-.6-.2-.5-.5-.1-.8.5-.4.5-.1.8,0-2.1-2.2-.3-1.1c-.1-.1-.2-.1-.3-.3h0c-.1,0-.1-.2,0-.2h.3c.1.1-.1-.2,0-.3l.4.2c0-.3.5-.2.6-.1s-.7-1.3.4-.5.3-.2.5-.1h0c-.2-.2-.1-.6.1-.4h.1c0-.4.4-1,.5-.3l1.6,1.1c-.3-.1-1.4-1.4-.6-1s0-.6.2-.4a17.1,17.1,0,0,0,1.8.7v-.2h0v-.3c-1.1-.8-1.2-1.9.2-.7.1-.5.7.3,1,.5s-.1-.2,0-.3-1.5-1.9.1-.5c.1-.3.5.2.7.2v-.2c-1.5-1.9,1.9.7,2.6,1.2h.2c-1-1.2.4-.4.8.2h0c-1.3-1.6.6-.3,1.2.2a6.8,6.8,0,0,0,1.8,1.3c-1.8-2.5,3,1.7,2,2.4Z" opacity="0.15" style="isolation:isolate"/><path d="M246.1,174.3c1.3,0,1.3,2.1,0,2A1,1,0,0,1,246.1,174.3Z"/><path d="M270.9,175.3c1.2-.1,1.2,2,0,2S269.6,175.2,270.9,175.3Z"/><path d="M259.5,198.5c-.7,2.3-4,3.9-5.5,1.3-.3-.6-.2-1.6-1.2-1.5-2.2,1.7,1.9,5.2,3.9,4.4s6.3-4.5,2.8-4.2"/><path d="M259.7,197.9l-1.6.8h.1c-1.6,1.7-6-1.1-5.4.3s5.1,1.4,6.8.1c-.6.3-.6,1.4.2,1s1.3-2.2-.1-2.1"/><path d="M258.5,199.4a5.1,5.1,0,0,1-4,.5c-.4-.7-1.2.1-.7.6s4.9,2.2,3.9.6c.3-.1.7-.3.6-.7h0c1.1-.2,1.7-1.4.2-.9"/></svg>