<svg width="500" height="600" viewBox="0 0 500 600" fill="none" xmlns="http://www.w3.org/2000/svg">
<path fill-rule="evenodd" clip-rule="evenodd" d="M253.575 180.875C253.534 180.868 253.489 180.865 253.448 180.858C253.489 180.865 253.534 180.872 253.575 180.875ZM244.562 193.103C244.436 193.56 244.582 194 244.886 194.303H244.89C245.354 194.449 245.83 194.555 246.312 194.62C247.099 194.682 247.884 194.702 248.671 194.702C249.461 194.706 250.26 194.72 251.051 194.679C251.859 194.638 252.667 194.631 253.475 194.589C253.867 194.569 254.255 194.539 254.648 194.498C254.764 194.205 254.812 193.931 254.727 193.604C254.704 193.512 254.671 193.421 254.631 193.335C254.624 193.315 254.618 193.294 254.614 193.273C254.581 193.127 254.517 192.99 254.424 192.872C253.947 193.005 253.468 193.123 252.978 193.192C252.398 193.277 251.815 193.372 251.232 193.43C250.768 193.471 250.301 193.495 249.837 193.529C249.449 193.557 249.029 193.629 248.64 193.591C248.234 193.55 247.784 193.529 247.437 193.287C247.144 193.087 246.873 192.787 246.739 192.441L246.097 192.231C245.989 192.194 245.876 192.176 245.762 192.176C245.224 192.176 244.705 192.578 244.562 193.103V193.103ZM240.54 173.33C240.548 173.284 240.555 173.237 240.558 173.19C240.551 173.238 240.548 173.282 240.541 173.33H240.54ZM265.67 172.737C265.742 172.771 265.806 172.812 265.874 172.857C265.947 172.847 266.021 172.84 266.094 172.834C265.914 172.779 265.732 172.729 265.549 172.684L265.67 172.737ZM271.344 176.44L271.398 176.47L271.504 176.552C271.622 176.641 271.734 176.737 271.84 176.84C271.771 176.701 271.662 176.586 271.528 176.508C271.49 176.488 271.453 176.463 271.415 176.44L271.294 176.335C271.312 176.369 271.328 176.404 271.344 176.44ZM259.819 181.445L259.718 181.493L259.813 181.537C259.815 181.506 259.819 181.477 259.823 181.445H259.819Z" fill="black"/>
<path fill-rule="evenodd" clip-rule="evenodd" d="M246.398 173.204C246.081 173.388 245.999 173.781 246.162 174.094C246.296 174.354 246.425 174.609 246.545 174.872C246.743 175.366 246.838 175.878 246.923 176.399C247.005 177.077 247.063 177.759 247.083 178.445C247.097 179.161 247.067 179.878 246.992 180.59C246.845 182.07 246.664 183.55 246.484 185.029C246.296 186.259 246.101 187.491 245.788 188.701C245.628 189.311 245.436 189.911 245.246 190.515C245.099 190.969 244.994 191.443 244.816 191.885C244.796 191.93 244.776 191.978 244.754 192.025C244.658 192.218 244.601 192.428 244.584 192.643C244.567 192.793 244.656 193.059 244.731 193.189C244.816 193.334 244.976 193.506 245.133 193.581C245.328 193.695 245.556 193.742 245.78 193.713C246.004 193.683 246.212 193.58 246.371 193.42C246.579 193.216 246.681 192.93 246.668 192.65C246.686 192.57 246.707 192.493 246.728 192.414C246.661 192.236 246.637 192.044 246.658 191.854C246.708 191.408 246.736 191.275 246.917 190.873C247.008 190.662 247.164 190.483 247.315 190.308C247.506 189.625 247.67 188.934 247.806 188.238C247.994 187.286 248.079 186.311 248.188 185.346C248.29 184.446 248.342 183.536 248.42 182.632C248.482 181.95 248.54 181.272 248.587 180.59C248.632 179.98 248.614 179.372 248.573 178.765C248.532 178.046 248.457 177.329 248.348 176.617C248.301 176.307 248.235 176 248.171 175.694C248.09 175.322 247.982 174.956 247.847 174.599C247.693 174.2 247.489 173.818 247.291 173.436C247.234 173.337 247.152 173.255 247.052 173.199C246.952 173.143 246.839 173.116 246.725 173.119C246.611 173.118 246.498 173.148 246.398 173.204" fill="black"/>
<path fill-rule="evenodd" clip-rule="evenodd" d="M261.756 212.452C262.141 212.176 262.526 211.9 262.915 211.627L263.378 211.3L263.535 211.19L263.696 211.078C263.775 211.528 263.941 211.941 264.204 212.367L264.276 212.483L263.611 212.52L262.755 212.61C262.263 212.672 261.771 212.729 261.278 212.78C261.446 212.67 261.606 212.561 261.756 212.452ZM275.892 182.249L276.06 180.725L276.203 179.378C276.308 178.318 276.414 177.312 276.407 176.306V175.624C276.405 175.107 276.399 174.59 276.387 174.073L276.52 174.121C276.72 174.113 276.92 174.11 277.12 174.114L277.242 174.162C277.344 174.502 277.423 174.861 277.482 175.256C277.495 175.375 277.509 175.501 277.519 175.627C277.557 175.957 277.549 176.327 277.495 176.821C277.294 178.106 276.939 179.368 276.598 180.589L276.421 181.199L276.192 182.014L276.026 182.614L275.8 183.422L275.691 183.824L275.657 183.94C275.742 183.453 275.82 182.91 275.892 182.249V182.249ZM222.012 185.273L221.762 185.198C221.397 184.999 221.046 184.775 220.712 184.527C220.558 184.404 220.414 184.269 220.28 184.125C220.151 183.931 220.038 183.727 219.942 183.515C219.785 183.102 219.713 182.642 219.645 182.165L219.602 181.765C219.52 181.039 219.452 180.388 219.468 179.743C219.486 179.02 219.513 178.253 219.598 177.517C219.728 176.767 219.867 176.033 220.119 175.372C220.389 174.772 220.699 174.233 221.04 173.772C221.101 173.698 221.167 173.632 221.238 173.568C221.326 173.503 221.425 173.448 221.521 173.394L221.709 173.343L221.804 173.357L221.903 173.374L221.91 173.929L221.852 175.328C221.8 176.311 221.8 177.295 221.852 178.278C221.896 178.986 221.944 179.699 221.995 180.411L222.067 181.468C222.135 182.464 222.189 183.456 222.223 184.455C222.233 184.752 222.24 185.042 222.243 185.328L222.251 185.338C222.172 185.312 222.092 185.29 222.011 185.273H222.012ZM226.943 162.879L227.195 162.797L227.839 162.589C228.514 162.374 229.162 162.109 229.932 161.774C230.192 161.664 230.451 161.555 230.713 161.454C231.391 161.177 232.057 160.871 232.708 160.536L232.841 160.472L233.465 160.162C233.785 160.004 234.103 159.834 234.423 159.66L234.509 159.616L234.951 159.376C236.302 158.664 237.639 157.926 238.961 157.163C239.682 156.74 240.394 156.301 241.096 155.848L241.253 155.746L241.665 155.48L242.842 154.716C243.002 154.613 243.159 154.501 243.316 154.389L243.493 154.259L243.626 154.167L243.708 154.109C243.875 153.993 243.998 153.905 244.114 153.805L244.417 153.563L244.513 153.485C244.782 153.267 245.048 153.048 245.303 152.817L245.538 152.599C245.846 152.319 246.146 152.046 246.452 151.773C246.899 151.374 247.35 150.975 247.799 150.58L247.867 150.522C248.294 150.14 248.627 149.84 248.935 149.519L249.194 149.25C249.45 148.988 249.836 148.592 250.118 148.213C250.265 148.013 250.391 147.818 250.518 147.617L250.571 147.535L250.661 147.399L250.739 147.283L250.889 147.065C250.923 147.272 251.005 147.443 251.093 147.61L251.148 147.709L251.305 148.013C251.523 148.419 251.782 148.817 252.123 149.27C252.386 149.601 252.669 149.95 253.003 150.232C253.228 150.426 253.463 150.617 253.699 150.802L254.189 151.184L255.175 151.948C256.112 152.67 256.91 153.243 257.623 153.696C258.318 154.16 259.141 154.59 259.683 154.873L259.819 154.941L259.904 154.981L260.017 155.041L260.297 155.18L260.92 155.507L261.159 155.629C262.1 156.114 263.041 156.599 263.993 157.055C265.265 157.657 266.557 158.216 267.866 158.733L267.989 158.787C268.492 158.999 268.986 159.229 269.472 159.477C270.082 159.797 270.601 160.117 271.068 160.458C271.211 160.581 271.343 160.72 271.497 160.918C271.719 161.205 271.933 161.515 272.128 161.825C272.325 162.145 272.496 162.476 272.684 162.902C273.171 164.174 273.54 165.6 273.84 167.39C273.966 168.457 274.062 169.343 274.092 170.207C274.102 170.468 274.109 170.729 274.112 170.987C274.116 171.212 274.119 171.434 274.126 171.656L274.167 172.688C273.904 172.876 273.781 173.288 273.881 173.657C273.936 173.858 274.057 174.034 274.225 174.158L274.201 176.214C274.201 176.824 274.177 177.349 274.137 177.824C274.105 178.195 274.065 178.567 274.021 178.935L273.979 179.3L273.939 179.64L273.897 179.982L273.874 180.179C273.819 180.623 273.778 180.964 273.744 181.304C273.671 182.045 273.589 182.785 273.499 183.524C273.382 184.421 273.231 185.313 273.046 186.198C272.933 186.744 272.802 187.286 272.653 187.824C272.54 188.257 272.4 188.684 272.261 189.11L272.216 189.242C271.985 189.982 271.685 190.842 271.184 192.209C271.023 192.646 270.869 193.079 270.717 193.519L270.617 193.798L270.519 194.081C270.423 194.37 270.323 194.657 270.219 194.943C269.971 195.626 269.707 196.303 269.427 196.973L269.39 197.064C269.093 197.742 268.794 198.429 268.469 199.1C268.067 199.928 267.665 200.754 267.245 201.568C266.492 203.021 265.489 204.398 264.682 205.503L264.449 205.82C263.786 206.658 263.067 207.451 262.298 208.193C261.902 208.585 261.507 208.964 261.115 209.319L261.228 209.346L261.302 209.322L261.087 209.452C260.671 209.746 260.262 210.049 259.86 210.362L258.97 211.007C258.758 211.157 258.543 211.307 258.325 211.453L258.322 211.447L258.175 211.501C258.005 211.579 257.838 211.665 257.675 211.757L257.5 211.859C256.443 212.435 255.588 212.865 254.81 213.206C254.46 213.349 254.1 213.468 253.736 213.588L253.408 213.697L253.286 213.738C253.088 213.806 252.898 213.871 252.703 213.935C252.328 214.051 251.95 214.143 251.563 214.232C251.285 214.284 250.998 214.322 250.712 214.355L250.428 214.393L250.214 214.409L249.938 214.427L249.583 214.454C249.498 214.458 249.412 214.46 249.327 214.461C249.115 214.461 248.907 214.451 248.699 214.436L248.563 214.426C248.024 214.384 247.486 214.326 246.951 214.25L246.835 214.243C245.921 214.113 244.959 213.867 244.189 213.67L243.909 213.601L243.606 213.523C242.986 213.359 242.446 213.213 241.918 213.035C241.39 212.852 240.866 212.655 240.349 212.442C240.029 212.299 239.715 212.145 239.401 211.992C239.243 211.914 239.086 211.834 238.931 211.75L238.784 211.675C238.658 211.606 238.529 211.54 238.399 211.477C237.963 211.266 237.679 211.125 237.414 210.959C236.895 210.64 236.412 210.265 235.974 209.841C235.766 209.641 235.568 209.43 235.382 209.209L235.245 209.052L235.108 208.9C234.754 208.51 234.382 208.14 234.007 207.767L233.871 207.631C233.683 207.447 233.498 207.26 233.315 207.071L233.223 206.977C232.642 206.381 232.077 205.769 231.529 205.142C231.245 204.815 230.969 204.484 230.693 204.152C230.123 203.192 229.442 202.282 228.78 201.398L228.43 200.883C228.012 200.21 227.633 199.513 227.297 198.796C227.164 198.424 227.044 198.046 226.939 197.665L226.902 197.542C226.809 197.219 226.72 196.895 226.635 196.57L226.608 196.468L226.578 196.355L226.537 196.209L226.421 195.772C226.207 195.022 226.02 194.265 225.861 193.502C225.776 193.088 225.701 192.669 225.626 192.247L225.578 191.984L225.531 191.724C225.478 191.413 225.421 191.103 225.36 190.794L225.278 190.347L225.248 190.183C225.119 189.517 225 188.848 224.893 188.178C224.842 187.783 224.791 187.388 224.77 186.992C224.744 186.471 224.722 185.949 224.705 185.427L224.698 185.073C224.671 184.152 224.648 183.248 224.586 182.389C224.551 181.88 224.513 181.371 224.471 180.862L224.457 180.694C224.344 179.265 224.227 177.786 224.258 176.282C224.272 175.712 224.299 175.147 224.331 174.577L224.375 173.667C224.405 172.903 224.415 172.139 224.423 171.372L224.426 171.089C224.437 170.269 224.468 169.449 224.521 168.631L224.562 168.048L224.583 167.783C224.618 167.283 224.66 166.784 224.709 166.285L224.794 165.764L224.883 165.201L224.897 165.101C224.939 164.841 224.967 164.578 224.982 164.315C224.988 164.198 224.982 164.079 224.972 163.964C224.963 163.878 224.959 163.791 224.958 163.704C224.961 163.62 224.952 163.536 224.931 163.454L225.022 163.462C225.668 163.287 226.308 163.093 226.942 162.879H226.943ZM254.022 122.934L253.426 122.962C252.706 122.985 251.984 122.989 251.267 122.992H250.991L250.721 122.996C249.971 122.999 249.139 123.046 248.028 123.146C247.332 123.211 246.636 123.258 245.938 123.306L245.409 123.343C244.821 123.384 244.233 123.435 243.646 123.497L242.914 123.572C241.86 123.678 240.984 123.772 240.083 123.964C239.19 124.159 238.283 124.454 237.683 124.649L237.478 124.714C236.561 125.004 235.675 125.447 234.894 125.839L234.099 126.238C233.455 126.562 232.814 126.886 232.176 127.223C230.473 128.116 228.849 129.152 227.32 130.319C226.62 130.875 225.932 131.448 225.258 132.035L225.186 132.099L224.9 132.348C224.135 133.011 223.401 133.708 222.7 134.438C222.22 134.946 221.756 135.465 221.285 135.993L220.709 136.641C219.888 137.558 219.165 138.499 218.622 139.216C218.155 139.833 217.732 140.504 217.392 141.046L217.307 141.186L217.064 141.572C216.551 142.378 216.061 143.198 215.592 144.03L215.434 144.31C215.141 144.831 214.851 145.353 214.565 145.881C214.068 146.791 213.706 147.739 213.379 148.633C213.021 149.614 212.699 150.608 212.413 151.613C212.263 152.163 212.131 152.714 211.998 153.271L211.923 153.587L211.844 153.897L211.718 154.399C211.461 155.428 211.231 156.464 211.029 157.505C210.668 159.367 210.429 161.348 210.269 163.741C210.159 165.446 210.078 167.318 210.016 169.63C209.99 171.07 209.997 172.51 210.037 173.95L210.061 175.382C210.078 176.337 210.119 177.271 210.181 178.24C210.215 178.72 210.224 179.197 210.235 179.678L210.242 179.852L210.245 180.036L210.265 180.882C210.317 182.467 210.419 184.022 210.528 185.612L210.542 185.819L210.555 186.034L210.6 186.661L210.61 186.828C211.053 188.362 211.44 189.91 211.848 191.452C212.056 192.232 212.25 193.017 212.454 193.798C212.619 194.418 212.837 195.018 213.061 195.615C213.508 196.73 213.992 197.818 214.456 198.923C214.899 199.969 215.332 201.016 215.789 202.056C216.302 203.206 216.838 204.346 217.395 205.476C217.569 205.558 217.729 205.67 217.872 205.814C218.462 206.4 218.964 207.092 219.482 207.743C219.894 208.269 220.31 208.791 220.727 209.315C221.589 210.413 222.455 211.511 223.311 212.615C223.86 213.325 224.409 214.034 224.958 214.74C225.613 215.529 226.277 216.31 226.95 217.083C227.127 217.213 227.273 217.38 227.379 217.566C227.498 217.7 227.617 217.833 227.737 217.962C228.013 218.269 228.293 218.572 228.565 218.882L228.712 219.047C228.992 219.255 229.277 219.449 229.578 219.627C229.636 219.647 229.698 219.667 229.758 219.684C229.789 219.688 229.82 219.688 229.854 219.691C230.284 219.483 230.819 219.349 231.298 219.427C231.542 218.805 231.774 218.178 231.992 217.546C232.192 216.943 232.33 216.302 232.459 215.685L232.549 215.272C232.783 214.147 232.926 213.277 233.012 212.456C233.09 211.681 233.052 210.873 232.896 209.984C233.106 210.219 233.274 210.394 233.441 210.57L233.714 210.87C233.967 211.15 234.164 211.368 234.382 211.565C234.736 211.889 235.095 212.176 235.446 212.411C235.989 212.795 236.564 213.132 237.165 213.417L237.246 213.461L237.73 213.707C238.184 213.942 238.644 214.171 239.115 214.382C240.011 214.802 240.932 215.152 241.846 215.422C242.739 215.698 243.602 215.933 244.413 216.121L244.693 216.189L244.809 216.223C245.082 216.295 245.352 216.363 245.62 216.421C246.012 216.5 246.405 216.551 246.797 216.601L246.923 216.619L247.23 216.659C247.915 216.752 248.655 216.837 249.409 216.837C249.596 216.837 249.791 216.831 249.982 216.82C250.525 216.777 251.067 216.714 251.605 216.632C252.076 216.566 252.542 216.468 253 216.339C253.399 216.227 253.79 216.094 254.183 215.958L254.288 215.917L254.394 215.883C254.441 215.9 254.49 215.908 254.54 215.906C254.67 215.906 254.81 215.89 254.97 215.858C255.148 215.821 255.318 215.746 255.482 215.674L255.707 215.568C256.109 215.405 256.498 215.218 256.89 215.026C256.85 215.064 256.846 215.136 256.846 215.197C256.842 215.887 257.176 216.493 257.763 216.865L257.913 216.96C257.947 217.14 258.008 217.332 258.087 217.525C258.384 218.289 258.847 218.979 259.216 219.53L259.434 219.858C260.006 220.734 260.784 221.538 261.738 222.252C262.011 222.452 262.308 222.63 262.601 222.804L262.745 222.893L263.119 223.121C263.6 223.438 264.081 223.746 264.579 224.031L264.719 224.113C265.312 224.454 265.844 224.768 266.324 225.133C266.526 225.323 266.714 225.535 266.894 225.783C267.084 226.067 267.266 226.401 267.433 226.776C267.6 227.291 267.716 227.851 267.808 228.59C267.866 229.398 267.896 230.094 267.896 230.715C267.9 231.083 267.886 231.455 267.873 231.822L267.869 231.922C267.855 232.317 267.846 232.682 267.849 233.047C267.863 234.639 267.833 236.23 267.76 237.82C267.733 238.587 267.774 239.351 267.821 240.136L267.831 240.268C267.88 241.138 267.934 242.035 268.05 242.887C268.17 243.753 268.442 244.568 268.667 245.182C269.066 246.296 269.724 247.398 270.617 248.459C271.067 248.987 271.48 249.403 271.913 249.771L272.183 249.997C272.438 250.215 272.693 250.43 272.949 250.641C273.161 250.811 273.366 250.971 273.601 251.111C273.721 251.186 273.853 251.247 273.99 251.309L274.205 251.409L274.522 251.562C275.047 251.817 275.562 252.059 276.072 252.247C276.541 252.421 277.014 252.597 277.475 252.799C278.422 253.29 279.278 253.959 280.066 254.603C280.393 254.893 280.706 255.169 280.976 255.49C281.058 255.619 281.136 255.765 281.208 255.916C281.447 256.686 281.576 257.529 281.685 258.203L281.709 258.353C281.904 259.591 282.572 260.856 283.595 261.913C284.232 262.561 284.996 262.97 285.855 263.4C286.268 263.607 286.694 263.823 287.08 264.088C287.454 264.344 287.806 264.618 288.153 264.9C288.679 265.367 289.203 265.89 289.759 266.496C290.285 267.075 290.834 267.634 291.403 268.17C291.788 268.524 292.183 268.866 292.586 269.18C293.104 269.581 293.725 269.84 294.319 270.059C295.204 270.404 296.238 270.577 296.991 270.699C298.031 270.878 298.853 270.962 299.597 270.969H299.688C300.088 270.969 300.486 270.959 300.885 270.949C301.736 270.922 302.588 270.923 303.439 270.953C303.759 270.963 304.083 270.969 304.407 270.976C304.946 270.976 305.427 270.928 305.874 270.884C306.426 270.819 306.879 270.645 307.265 270.488C308.635 269.957 309.035 268.456 309.389 267.137L309.444 266.918C309.621 266.264 309.774 265.603 309.928 264.941C310.258 263.492 310.545 262.002 310.788 260.505C311.005 259.131 311.128 257.785 311.152 256.495C311.165 255.585 311.022 254.651 310.907 253.9L310.879 253.713C310.795 253.146 310.719 252.577 310.651 252.008C310.576 250.729 310.634 249.446 310.825 248.179C310.978 247.532 311.169 246.873 311.356 246.239C311.599 245.414 311.855 244.561 312.021 243.689C312.379 241.785 312.611 240.077 312.728 238.465C312.788 237.643 312.85 236.821 312.894 235.996C312.914 235.618 312.932 235.236 312.935 234.857C312.934 234.565 312.912 234.273 312.867 233.984L312.843 233.759C312.805 233.466 312.693 233.179 312.611 232.972L312.529 232.767C312.441 232.545 312.345 232.326 312.239 232.112C311.885 231.372 311.381 230.656 311.012 230.139L310.75 229.763L310.31 229.123C309.912 228.533 309.506 227.948 309.09 227.37L308.69 226.814L308.312 226.289L307.852 225.651C307.34 224.901 306.812 224.083 306.426 223.176L306.375 223.018L306.325 222.866C306.204 222.493 306.12 222.109 306.075 221.72C306.017 221.03 305.965 220.298 306.017 219.562C306.078 218.774 306.169 217.989 306.29 217.209C306.508 215.828 306.702 214.369 306.9 212.622C307.115 210.689 307.135 208.886 306.961 207.259C306.927 206.936 306.832 206.629 306.727 206.288L306.634 205.981C306.524 205.609 306.402 205.241 306.273 204.876L306.198 204.657C305.942 203.924 305.638 203.058 305.239 202.298C304.872 201.575 304.421 200.856 304.026 200.218L303.562 199.475C302.985 198.527 302.222 197.279 301.4 196.143C300.76 195.247 300.105 194.371 299.447 193.494L299.293 193.29C298.581 192.354 297.877 191.41 297.183 190.46L296.493 189.505L296.149 189.025C295.959 188.745 295.778 188.458 295.594 188.172L295.535 188.087L295.481 188.005L295.133 187.47C294.827 186.999 294.513 186.545 294.083 186.153C294.103 185.618 294.097 185.059 294.086 184.489L294.066 183.586C294.047 181.561 294.014 179.537 293.966 177.513C293.943 176.374 293.816 175.223 293.718 174.294L293.691 174.038L293.667 173.808C293.589 173.116 293.523 172.422 293.469 171.728C293.353 170.049 293.165 167.83 292.753 165.558C292.473 163.993 292.065 162.442 291.7 161.072L291.502 160.342C291.266 159.436 290.982 158.544 290.652 157.668C290.447 157.118 290.252 156.565 290.067 156.008C289.933 155.613 289.824 155.298 289.715 154.988C289.324 153.853 288.953 152.711 288.604 151.562C288.273 150.505 287.85 149.499 287.335 148.292L287.284 148.169L287.168 147.9C286.848 147.13 286.544 146.407 286.23 145.687C286.053 145.301 285.866 144.917 285.674 144.534L285.597 144.371L285.518 144.207L285.44 144.051L285.166 143.509C284.781 142.741 284.382 141.949 283.956 141.234C283.547 140.553 283.122 139.881 282.681 139.219L282.623 139.13C282.211 138.49 281.726 137.75 281.235 137.091C280.987 136.763 280.734 136.44 280.475 136.12L280.305 135.908L280.219 135.802L280.141 135.707L280.063 135.615L279.66 135.127C279.164 134.52 278.641 133.936 278.092 133.377C277.468 132.764 276.779 132.237 276.222 131.809L275.65 131.326L275.456 131.166C274.904 130.709 274.443 130.323 273.993 129.999C273.226 129.45 272.422 128.956 271.586 128.519C270.089 127.711 268.602 126.884 267.126 126.037C264.456 124.513 261.756 123.517 259.103 123.071C258.275 122.937 257.391 122.873 256.327 122.873C255.56 122.873 254.79 122.903 254.023 122.933L254.022 122.934ZM226.4 221.566C226.404 221.506 226.407 221.446 226.407 221.386L226.39 221.368C226.349 221.328 226.308 221.287 226.267 221.249L226.4 221.566" fill="black"/>
<path fill-rule="evenodd" clip-rule="evenodd" d="M290.054 168.154L290.084 168.236C290.074 168.209 290.064 168.181 290.054 168.154V168.154ZM286.525 157.747L286.545 157.803L286.525 157.747ZM282.219 147.645C282.734 148.623 283.232 149.609 283.716 150.601C284.105 151.402 284.422 152.231 284.739 153.063C284.724 153.028 284.711 152.993 284.698 152.957C285.001 153.789 285.291 154.624 285.604 155.449C285.92 156.262 286.254 157.067 286.574 157.879C286.872 158.709 287.17 159.545 287.429 160.387C287.712 161.317 287.992 162.248 288.285 163.176C288.554 164.022 288.786 164.877 289.096 165.706C289.42 166.576 289.766 167.443 290.109 168.306C290.263 168.734 290.406 169.161 290.521 169.599C290.654 170.094 290.771 170.592 290.886 171.093C291.097 171.99 291.248 172.897 291.449 173.797C291.674 174.79 291.875 175.785 292.083 176.781C292.278 177.732 292.451 178.693 292.725 179.624C293.011 180.599 293.222 181.592 293.512 182.564C293.822 183.604 294.221 184.612 294.641 185.608C295.032 186.536 295.387 187.48 295.793 188.4C296.203 189.339 296.653 190.255 297.078 191.183C297.406 191.885 297.723 192.595 298.046 193.297C298.384 194.031 298.766 194.739 299.156 195.452C299.516 196.113 299.892 196.768 300.236 197.443C300.564 198.061 300.856 198.696 301.112 199.347C301.312 199.923 301.507 200.5 301.685 201.085C301.882 201.731 301.964 202.421 302.062 203.088C302.228 205.022 302.287 206.961 302.257 208.904C302.23 210.994 301.903 213.066 301.607 215.132C301.494 215.921 301.347 216.708 301.217 217.492C301.241 217.362 301.266 217.23 301.289 217.096C301.054 218.426 300.826 219.76 300.539 221.076C300.396 221.734 300.202 222.386 300.031 223.036C299.864 223.674 299.776 224.332 299.598 224.97C299.448 225.501 299.629 226.071 300.106 226.378C300.646 226.723 301.47 226.586 301.801 226.002C302.336 225.058 302.718 223.998 303.035 222.958C303.199 222.426 303.345 221.901 303.475 221.358C303.605 220.837 303.697 220.298 303.802 219.77C304.003 218.795 304.171 217.813 304.348 216.835C304.559 215.644 304.758 214.455 304.928 213.261C305.073 212.261 305.195 211.258 305.292 210.253C305.337 209.735 305.333 209.21 305.34 208.691C305.347 208.201 305.344 207.709 305.337 207.219C305.314 206.153 305.264 205.088 305.187 204.024C305.101 202.902 304.989 201.777 304.713 200.683C304.59 200.188 304.416 199.707 304.249 199.227C304.041 198.642 303.82 198.062 303.584 197.487C303.505 197.287 303.396 197.092 303.301 196.901C303.181 196.662 303.062 196.421 302.94 196.185C302.691 195.718 302.441 195.255 302.176 194.797C301.661 193.907 301.143 193.014 300.703 192.083C300.246 191.121 299.793 190.157 299.322 189.198C298.79 188.111 298.265 187.027 297.798 185.905C297.368 184.865 296.88 183.845 296.457 182.801C296.306 182.383 296.161 181.963 296.021 181.541C295.868 181.066 295.759 180.579 295.619 180.102C295.339 179.167 295.022 178.247 294.787 177.302C294.542 176.317 294.324 175.325 294.091 174.336C293.866 173.395 293.617 172.461 293.376 171.522C293.256 171.055 293.113 170.595 292.976 170.132C292.84 169.664 292.725 169.184 292.556 168.727C292.356 168.177 292.151 167.635 291.909 167.104C291.721 166.697 291.537 166.288 291.357 165.877C291.149 165.403 290.937 164.929 290.737 164.451C290.548 163.997 290.382 163.537 290.187 163.087C289.99 162.623 289.799 162.157 289.604 161.693C289.417 161.249 289.205 160.82 289.018 160.38C288.605 159.389 288.169 158.408 287.708 157.438C287.266 156.51 286.795 155.596 286.365 154.662C285.939 153.732 285.554 152.78 285.158 151.835C284.776 150.925 284.336 150.035 283.887 149.162C283.559 148.532 283.235 147.904 282.905 147.276C282.877 147.216 282.831 147.165 282.775 147.129C282.718 147.094 282.653 147.075 282.586 147.076C282.326 147.076 282.06 147.341 282.219 147.645" fill="black"/>
<path fill-rule="evenodd" clip-rule="evenodd" d="M290.233 182.031C290.123 182.091 290.041 182.192 290.004 182.311C289.968 182.431 289.98 182.561 290.038 182.672C290.345 183.239 290.662 183.797 290.955 184.371C291.187 184.817 291.415 185.264 291.644 185.711C291.958 186.321 292.282 186.927 292.568 187.548C292.896 188.268 293.23 188.984 293.55 189.707L293.592 189.8C293.696 190.14 293.814 190.477 293.939 190.812C294.143 191.361 294.393 191.878 294.645 192.407C294.695 192.499 294.769 192.574 294.861 192.624C294.952 192.675 295.056 192.697 295.16 192.69C295.264 192.683 295.363 192.645 295.447 192.583C295.53 192.52 295.593 192.435 295.629 192.337C295.806 192.346 295.983 192.307 296.139 192.223C296.366 192.1 296.543 191.893 296.622 191.647C296.677 191.418 296.684 191.302 296.65 191.07C296.633 190.94 296.626 190.805 296.602 190.675L296.52 190.205C296.466 189.895 296.407 189.587 296.343 189.281C296.282 188.981 296.216 188.681 296.155 188.377L296.063 187.937C296.043 187.837 296.023 187.736 295.998 187.637C295.958 187.429 295.865 187.231 295.79 187.033C295.707 186.879 295.587 186.748 295.44 186.652L295.4 186.629C295.302 186.331 295.198 186.035 295.088 185.741C294.963 185.418 294.822 185.102 294.665 184.793C294.51 184.492 294.298 184.224 294.041 184.003C293.891 183.863 293.731 183.767 293.516 183.76C293.384 183.757 293.254 183.787 293.137 183.848C293.02 183.908 292.921 183.998 292.848 184.108C292.811 184.154 292.781 184.206 292.76 184.262L292.677 184.435C292.649 184.543 292.635 184.654 292.637 184.766C292.626 184.943 292.684 185.124 292.712 185.298C292.74 185.486 292.766 185.677 292.797 185.865L292.527 185.339C292.288 184.882 292.053 184.425 291.817 183.969C291.515 183.382 291.194 182.806 290.877 182.226C290.816 182.117 290.714 182.035 290.594 181.999C290.474 181.963 290.345 181.974 290.233 182.031V182.031ZM267.427 208.817C267.287 208.862 267.171 208.903 267.048 208.98C266.938 209.05 266.837 209.134 266.731 209.212C266.649 209.274 266.574 209.342 266.493 209.407C266.247 209.601 266.005 209.799 265.76 209.997L265.555 210.159C265.395 210.015 265.19 209.929 264.975 209.915C264.743 209.896 264.508 209.911 264.28 209.96C264.065 210.007 263.857 210.109 263.653 210.184C263.373 210.29 263.103 210.42 262.837 210.552C262.527 210.702 262.22 210.86 261.917 211.022C261.6 211.197 261.276 211.402 261.027 211.664C260.587 212.121 260.352 212.827 260.645 213.427C260.678 213.493 260.72 213.554 260.77 213.609C260.663 213.679 260.557 213.753 260.454 213.829C260.256 213.979 260.188 214.293 260.244 214.521C260.321 214.856 260.594 215.033 260.914 215.077C261.156 215.107 261.392 215.002 261.593 214.883C261.828 214.747 262.046 214.58 262.265 214.419C262.486 214.255 262.701 214.074 262.915 213.897C263.243 213.628 263.563 213.348 263.88 213.065C264.164 212.82 264.436 212.565 264.713 212.312C264.853 212.182 264.993 212.052 265.136 211.924C265.204 211.858 265.276 211.797 265.343 211.736C265.403 211.684 265.458 211.64 265.511 211.586L266.135 211.085C266.267 210.978 266.399 210.871 266.531 210.761L266.407 211.074C266.22 211.559 266.022 212.039 265.827 212.52C265.674 212.908 265.545 213.308 265.407 213.703C265.187 214.348 264.971 214.992 264.774 215.643C264.742 215.75 264.753 215.866 264.804 215.965C264.856 216.064 264.944 216.14 265.05 216.175C265.157 216.208 265.272 216.198 265.372 216.147C265.471 216.096 265.547 216.008 265.582 215.902C265.763 215.302 265.957 214.716 266.162 214.126C266.302 213.724 266.425 213.311 266.588 212.919C266.963 212.014 267.322 211.1 267.73 210.209C267.798 210.066 267.865 209.925 267.924 209.779C267.986 209.632 268.006 209.472 268.03 209.319C268.078 209.051 267.798 208.799 267.54 208.799C267.502 208.799 267.464 208.805 267.427 208.817V208.817ZM290.937 192.67C290.891 193.665 290.884 194.661 290.917 195.657C290.944 196.617 290.968 197.583 291.023 198.544C291.077 199.499 291.118 200.45 291.203 201.402C291.292 202.414 291.373 203.43 291.48 204.443C291.775 207.319 292.071 210.198 292.38 213.073C292.42 213.518 292.463 213.962 292.503 214.406C292.54 214.822 292.588 215.236 292.612 215.651L292.701 217.291C292.606 216.965 292.535 216.631 292.451 216.305C292.229 215.436 292.011 214.57 291.8 213.701C290.406 207.888 288.897 202.104 287.272 196.352C287.212 196.146 287.151 195.94 287.098 195.732C287.099 195.688 287.092 195.644 287.078 195.602C287.067 195.564 287.054 195.526 287.04 195.489C286.941 195.217 286.71 195.026 286.406 195.094C286.271 195.128 286.154 195.212 286.08 195.331C286.006 195.449 285.981 195.592 286.01 195.728C286.106 196.138 286.228 196.543 286.344 196.945L286.897 198.926C287.074 199.561 287.242 200.195 287.405 200.829C287.893 202.715 288.408 204.593 288.857 206.489C289.318 208.439 289.798 210.39 290.218 212.35C290.419 213.309 290.628 214.266 290.828 215.225C291.029 216.189 291.21 217.162 291.442 218.119C291.582 218.692 291.719 219.262 291.875 219.831C291.95 220.104 292.025 220.377 292.107 220.65C292.148 220.796 292.192 220.94 292.229 221.086C292.281 221.27 292.336 221.451 292.431 221.618C292.544 221.819 292.721 221.959 292.908 222.085C293.427 222.433 294.132 222.143 294.323 221.573C294.422 221.283 294.528 221.004 294.586 220.703C294.654 220.357 294.699 220.008 294.729 219.653C294.779 219.071 294.779 218.477 294.756 217.892C294.736 217.329 294.712 216.762 294.688 216.2C294.651 215.218 294.556 214.24 294.477 213.257C294.395 212.214 294.275 211.17 294.17 210.127C294.075 209.172 293.986 208.217 293.894 207.263C293.776 206.063 293.656 204.86 293.535 203.659C293.454 202.746 293.375 201.834 293.293 200.924C293.211 200 293.181 199.07 293.127 198.143C293.025 196.345 292.993 194.545 292.891 192.748C292.878 192.478 292.819 192.251 292.631 192.045C292.456 191.855 292.212 191.742 291.954 191.732H291.916C291.664 191.734 291.422 191.832 291.24 192.007C291.058 192.181 290.95 192.418 290.937 192.67V192.67ZM211.51 170.406C211.497 170.787 211.811 171.156 212.207 171.156C212.598 171.156 212.94 170.866 212.957 170.46C212.97 170.079 212.657 169.71 212.261 169.71C212.07 169.706 211.885 169.776 211.745 169.906C211.605 170.036 211.521 170.215 211.511 170.406H211.51ZM212.552 180.884V180.883L212.553 180.894V180.884H212.552ZM212.549 180.854L212.551 180.87C212.55 180.864 212.549 180.859 212.549 180.853V180.854ZM211.372 176.318C211.318 178.006 211.281 179.714 211.382 181.402C211.427 182.203 211.519 183.002 211.598 183.799C211.673 184.532 211.811 185.259 211.898 185.989C211.958 186.685 212.043 187.37 212.164 188.058C212.286 188.736 212.429 189.408 212.549 190.086C212.774 191.389 212.975 192.698 213.197 194C213.422 195.334 213.701 196.653 214.134 197.939C214.615 199.377 215.182 200.786 215.72 202.209C216.184 203.435 216.726 204.649 217.384 205.788C218.062 206.954 218.795 208.083 219.518 209.218C219.931 209.869 220.34 210.518 220.791 211.138C221.227 211.738 221.694 212.297 222.188 212.849C222.605 213.313 223.031 213.774 223.45 214.241C223.896 214.735 224.333 215.246 224.814 215.71C225.458 216.334 226.137 216.92 226.791 217.538C227.384 218.098 227.896 218.745 228.445 219.348C229.028 219.993 229.638 220.614 230.195 221.285C230.449 221.597 230.7 221.913 230.945 222.235C231.551 223.266 232.025 224.383 232.581 225.438C232.718 225.694 232.851 225.946 232.98 226.202C233.028 226.294 233.076 226.382 233.126 226.474C233.147 226.512 233.167 226.549 233.192 226.587C233.389 226.932 233.529 227.071 233.832 227.31C233.962 227.413 234.115 227.488 234.276 227.522C234.426 227.545 234.576 227.572 234.726 227.6C235.033 227.61 235.322 227.545 235.595 227.399C235.745 227.334 235.885 227.238 235.991 227.116C236.263 226.799 236.297 226.736 236.471 226.349C236.564 226.147 236.561 225.899 236.591 225.676C236.605 225.565 236.621 225.452 236.635 225.336C236.674 225.051 236.669 224.766 236.641 224.482L236.669 224.442C236.913 224.104 237.07 223.685 237.241 223.307C237.521 222.707 237.781 222.109 237.961 221.462C238.193 220.638 238.254 219.777 238.376 218.932C238.458 218.517 238.548 218.105 238.61 217.684C238.687 217.115 238.686 216.538 238.606 215.969C238.535 215.41 238.276 214.881 238.023 214.387C237.802 213.961 237.558 213.547 237.293 213.147C236.17 211.44 234.883 209.857 233.543 208.317C233.474 208.228 233.402 208.141 233.328 208.056C232.823 207.479 231.93 207.349 231.262 207.707C230.999 207.847 230.788 208.045 230.624 208.297C230.358 208.714 230.334 209.137 230.399 209.61C230.447 209.968 230.647 210.275 230.852 210.562C231.071 210.865 231.285 211.172 231.507 211.472L231.588 211.582C231.679 211.779 231.764 211.978 231.845 212.18C232.051 212.808 232.245 213.428 232.425 214.062C231.983 213.96 231.52 214.029 231.126 214.253C230.732 214.478 230.438 214.842 230.3 215.274L230.257 215.516C229.956 215.203 229.644 214.901 229.322 214.61C228.453 213.586 227.609 212.541 226.791 211.475C226.229 210.742 225.646 210.025 225.098 209.282C223.605 206.936 222.283 204.485 221.142 201.949C220.886 201.382 220.675 200.786 220.456 200.203C220.21 199.559 219.968 198.91 219.723 198.263C219.206 196.892 218.675 195.526 218.131 194.165C218.003 193.85 217.87 193.538 217.732 193.227C217.432 192.541 216.552 192.214 215.86 192.374C215.575 192.443 215.314 192.584 215.1 192.785L215.076 192.698C214.701 191.341 214.356 189.974 213.998 188.613C213.828 187.962 213.651 187.314 213.511 186.656C213.374 186.008 213.279 185.35 213.152 184.702C213.03 184.089 212.894 183.485 212.808 182.865C212.724 182.237 212.638 181.606 212.564 180.975C212.462 179.44 212.436 177.9 212.488 176.362C212.493 176.214 212.44 176.07 212.34 175.961C212.24 175.852 212.101 175.787 211.953 175.779H211.933C211.788 175.78 211.65 175.837 211.545 175.937C211.441 176.038 211.38 176.174 211.373 176.319L211.372 176.318ZM258.903 215.622L258.812 215.732C258.84 215.693 258.87 215.656 258.902 215.622H258.903ZM257.632 214.014C257.114 214.392 256.906 215.104 256.756 215.694C256.712 215.886 256.664 216.077 256.62 216.267C256.527 216.673 256.484 217.045 256.538 217.461C256.623 218.126 256.776 218.784 256.926 219.435C257.063 220.032 257.173 220.635 257.339 221.225C257.519 221.87 257.833 222.433 258.134 223.023C258.359 223.469 258.628 223.926 258.999 224.263C259.259 224.503 259.507 224.706 259.815 224.871C260.04 224.989 260.268 225.105 260.493 225.228C261.053 225.532 261.608 225.794 262.235 225.924C262.801 226.043 263.375 226.106 263.943 226.191C264.101 226.224 264.253 226.265 264.403 226.318C264.422 226.329 264.442 226.34 264.46 226.352C264.671 226.697 264.865 227.062 265.024 227.437C265.15 227.807 265.262 228.181 265.403 228.55C265.529 228.874 265.741 229.139 265.955 229.42C266.14 229.586 266.335 229.743 266.535 229.89C266.76 230.06 267.142 230.176 267.425 230.251C267.909 230.381 268.435 230.414 268.935 230.435C269.357 230.449 269.772 230.326 270.117 230.084C270.462 229.842 270.719 229.493 270.849 229.092C271.173 228.082 270.593 226.998 269.597 226.667C269.455 226.62 269.313 226.573 269.172 226.524C269.017 226.016 268.869 225.507 268.639 225.021C268.268 224.229 267.735 223.459 267.023 222.948C266.331 222.449 265.529 222.234 264.703 222.102C263.993 221.991 263.27 222.014 262.556 221.939C262.134 221.825 261.721 221.68 261.32 221.506C261.249 221.467 261.18 221.426 261.112 221.382C260.843 221.096 260.593 220.792 260.365 220.472C259.789 219.598 259.363 218.629 258.987 217.654C258.889 217.38 258.808 217.1 258.745 216.816C258.753 216.584 258.771 216.352 258.8 216.121C258.842 215.934 258.894 215.75 258.958 215.57C258.979 215.553 259.001 215.536 259.024 215.521C259.474 215.187 259.43 214.447 259.082 214.069C258.897 213.87 258.641 213.752 258.369 213.741H258.333C258.054 213.741 257.852 213.851 257.633 214.014H257.632ZM246.158 191.674C246.158 191.67 246.158 191.666 246.16 191.662L246.167 191.609C246.163 191.631 246.16 191.652 246.158 191.674V191.674ZM246.498 189.245C246.369 190.033 246.268 190.821 246.167 191.609L246.175 191.561C246.169 191.594 246.165 191.628 246.16 191.662L246.157 191.68L246.158 191.674C246.138 191.817 246.118 191.959 246.089 192.1C246.066 192.22 246.018 192.338 246.014 192.46C246.016 192.46 246.017 192.458 246.018 192.457C246.017 192.519 246.03 192.581 246.056 192.637C246.082 192.694 246.121 192.744 246.169 192.783C246.216 192.823 246.273 192.851 246.333 192.866C246.393 192.881 246.456 192.883 246.517 192.87C246.531 192.905 246.547 192.94 246.562 192.973C246.392 192.947 246.22 192.928 246.048 192.917C245.868 192.907 245.68 192.924 245.51 192.983C245.35 193.031 245.206 193.121 245.093 193.245C244.974 193.385 244.899 193.538 244.848 193.715C244.78 193.965 244.787 194.289 244.923 194.517C245.175 194.937 245.703 195.069 246.161 195.134C247.119 195.267 248.087 195.339 249.055 195.308C249.989 195.283 250.921 195.189 251.841 195.028C252.116 194.98 252.393 194.933 252.668 194.878C252.814 194.858 252.96 194.833 253.103 194.803C253.413 194.738 253.723 194.681 254.027 194.585C254.428 194.464 254.795 194.253 255.101 193.967C255.217 193.849 255.333 193.677 255.356 193.511C255.378 193.398 255.373 193.281 255.343 193.17C255.296 193.013 255.193 192.879 255.053 192.793C255.026 192.736 254.988 192.684 254.941 192.642C254.866 192.573 254.778 192.521 254.681 192.488C254.616 192.461 254.548 192.461 254.481 192.458C254.395 192.447 254.296 192.481 254.208 192.498C254.156 192.508 254.104 192.515 254.051 192.524C253.627 192.569 253.206 192.595 252.782 192.624C252.237 192.658 251.692 192.699 251.149 192.74C250.669 192.778 250.187 192.781 249.706 192.788C249.144 192.792 248.576 192.814 248.016 192.763C247.832 192.736 247.65 192.695 247.473 192.638C247.458 192.63 247.443 192.62 247.428 192.611C247.395 192.581 247.363 192.549 247.334 192.515C247.298 192.464 247.265 192.411 247.236 192.355C247.205 192.263 247.181 192.168 247.164 192.072C247.149 191.885 247.149 191.697 247.163 191.51C247.207 191.365 247.251 191.219 247.293 191.073C247.431 190.605 247.529 190.126 247.586 189.641C247.613 189.49 247.627 189.337 247.497 189.215C247.441 189.163 247.372 189.128 247.297 189.113C247.257 189.055 247.203 189.007 247.14 188.973C247.078 188.94 247.008 188.921 246.937 188.92C246.742 188.92 246.53 189.046 246.498 189.245V189.245ZM248.845 197.033C248.673 197.057 248.502 197.078 248.333 197.106L248.409 197.094L248.868 197.031L248.845 197.033V197.033ZM241.054 164.404L240.944 164.507C240.857 164.498 240.769 164.508 240.687 164.537C240.605 164.567 240.53 164.614 240.468 164.676C239.932 165.246 239.378 165.783 238.76 166.261C238.178 166.698 237.563 167.09 236.92 167.433C236.52 167.563 236.115 167.673 235.715 167.79C235.22 167.936 234.719 168.056 234.218 168.178C233.764 168.291 233.297 168.358 232.837 168.434C232.379 168.511 231.923 168.58 231.466 168.647C231.168 168.677 230.874 168.705 230.576 168.737C230.279 168.765 229.973 168.765 229.673 168.779C229.397 168.792 229.117 168.782 228.841 168.779C228.58 168.775 228.316 168.741 228.055 168.751C227.675 168.708 227.294 168.99 227.194 169.351C227.165 169.456 227.157 169.565 227.171 169.673C227.185 169.781 227.221 169.885 227.276 169.979C227.388 170.173 227.555 170.279 227.763 170.353C228.033 170.456 228.343 170.466 228.63 170.503C228.898 170.541 229.181 170.537 229.454 170.555C229.864 170.578 230.283 170.582 230.692 170.565C231.649 170.534 232.605 170.463 233.556 170.35C234.143 170.276 234.722 170.2 235.298 170.091C235.793 169.995 236.28 169.883 236.768 169.771C236.987 169.72 237.201 169.668 237.416 169.617C237.638 169.566 237.859 169.514 238.078 169.45C238.439 169.34 238.786 169.174 239.118 168.993C239.738 168.659 240.294 168.192 240.836 167.742C241.16 167.472 241.48 167.192 241.794 166.906C242.163 166.568 242.585 166.207 242.807 165.754C242.93 165.541 242.979 165.294 242.948 165.05C242.917 164.806 242.806 164.579 242.633 164.404C242.532 164.302 242.412 164.221 242.279 164.166C242.147 164.11 242.005 164.082 241.861 164.082C241.574 164.082 241.283 164.194 241.054 164.404V164.404ZM252.995 164.985C252.778 165.044 252.593 165.186 252.48 165.38C252.421 165.479 252.383 165.589 252.368 165.704C252.353 165.818 252.361 165.935 252.392 166.046C252.457 166.274 252.6 166.427 252.788 166.561C253.872 167.328 255.054 168.017 256.344 168.378C256.913 168.534 257.506 168.623 258.093 168.705C258.594 168.777 259.099 168.827 259.607 168.862C260.06 168.896 260.517 168.93 260.974 168.937C262.963 168.951 264.948 168.786 266.907 168.446C267.421 168.353 267.961 168.224 268.444 168.023C268.727 167.907 269.024 167.802 269.284 167.634C269.358 167.59 269.423 167.539 269.491 167.488C269.682 167.344 269.795 167.235 269.877 166.997C269.999 166.649 269.741 166.25 269.403 166.162C269.106 166.083 268.881 166.199 268.609 166.28C268.309 166.37 268.001 166.441 267.699 166.516C267.115 166.659 266.522 166.746 265.929 166.829C265.259 166.899 264.585 166.958 263.913 167.014C263.214 167.076 262.508 167.096 261.806 167.114C260.496 167.146 259.185 167.048 257.887 166.894C257.693 166.859 257.497 166.827 257.305 166.792C256.856 166.713 256.416 166.588 255.993 166.418C255.172 166.049 254.39 165.598 253.66 165.071C253.533 164.991 253.385 164.95 253.234 164.954C253.153 164.954 253.073 164.964 252.995 164.985" fill="black"/>
<path opacity="0.6" fill-rule="evenodd" clip-rule="evenodd" d="M264.618 183.178C264.625 183.185 264.632 183.192 264.638 183.199L264.618 183.179V183.178ZM264.315 182.979L264.332 182.984L264.315 182.979ZM266.794 180.125H266.797H266.794ZM266.659 178.071C266.575 178.102 266.495 178.143 266.42 178.193C266.3 178.271 266.197 178.374 266.1 178.483C265.903 178.556 265.708 178.633 265.51 178.701C265.25 178.769 264.99 178.809 264.723 178.835C264.588 178.805 264.45 178.782 264.317 178.757C264.009 178.7 263.702 178.645 263.394 178.59C263.043 178.528 262.693 178.462 262.343 178.393C262.017 178.327 261.691 178.256 261.361 178.22C260.74 178.15 260.114 178.142 259.491 178.196C259.272 178.216 259.054 178.234 258.837 178.265C258.612 178.298 258.391 178.351 258.175 178.422C258.01 178.476 257.839 178.532 257.699 178.636C257.595 178.714 257.5 178.805 257.418 178.906C257.389 178.944 257.365 178.985 257.345 179.029C257.289 179.136 257.245 179.233 257.212 179.348C257.198 179.399 257.184 179.45 257.171 179.502L257.157 179.532C257.103 179.646 257.079 179.778 257.052 179.899C257.018 180.052 257.012 180.221 257.002 180.375C256.992 180.559 257.015 180.746 257.03 180.93C257.045 181.094 257.078 181.256 257.13 181.413L257.131 181.437C257.135 181.547 257.152 181.717 257.199 181.821C257.242 181.939 257.314 182.045 257.407 182.129C257.527 182.226 257.664 182.267 257.811 182.307C258.006 182.36 258.216 182.346 258.416 182.339L258.743 182.324C258.763 182.355 258.783 182.388 258.801 182.421C258.849 182.534 258.89 182.651 258.931 182.766C258.994 182.938 259.071 183.1 259.159 183.26C259.227 183.382 259.319 183.488 259.412 183.592C259.528 183.722 259.647 183.846 259.776 183.962C259.909 184.077 260.07 184.153 260.243 184.182C260.431 184.221 260.622 184.242 260.808 184.284C260.863 184.304 260.917 184.326 260.968 184.353C260.978 184.409 260.985 184.466 260.994 184.523C261.034 184.756 261.093 184.985 261.171 185.208C261.207 185.302 261.266 185.4 261.318 185.487C261.371 185.574 261.424 185.661 261.48 185.746C261.535 185.828 261.61 185.912 261.683 185.978C261.725 186.023 261.776 186.058 261.833 186.081C261.903 186.105 261.973 186.127 262.044 186.146C262.206 186.193 262.384 186.118 262.534 186.064C262.59 186.044 262.656 185.961 262.688 185.927C262.718 185.893 262.744 185.856 262.763 185.815C262.861 185.622 262.918 185.431 262.971 185.22C263.01 185.066 263.05 184.912 263.073 184.756C263.118 184.454 263.164 184.156 263.229 183.859C263.283 183.674 263.338 183.489 263.412 183.311C263.477 183.196 263.55 183.086 263.632 182.981C263.664 182.954 263.699 182.932 263.736 182.914C263.908 182.881 264.076 182.91 264.243 182.957C264.402 183.03 264.549 183.128 264.677 183.247C264.716 183.347 264.747 183.447 264.776 183.549C264.786 183.599 264.795 183.649 264.802 183.7C264.811 183.885 264.812 184.068 264.8 184.254C264.797 184.319 264.792 184.383 264.797 184.447C264.807 184.577 264.812 184.691 264.841 184.813C264.873 184.944 264.907 185.074 264.942 185.204C265.031 185.537 265.119 185.881 265.29 186.18C265.348 186.268 265.425 186.342 265.516 186.395C265.595 186.441 265.685 186.466 265.776 186.467C265.856 186.468 265.944 186.427 266.014 186.398C266.155 186.315 266.277 186.202 266.369 186.067C266.452 185.937 266.517 185.792 266.583 185.652C266.681 185.442 266.756 185.227 266.828 185.006C266.909 184.755 266.992 184.503 267.06 184.246L267.187 183.758C267.269 183.586 267.349 183.413 267.415 183.233C267.545 182.882 267.654 182.523 267.745 182.16C267.819 181.866 267.875 181.566 267.93 181.267C267.998 180.892 267.989 180.506 267.987 180.127C267.985 179.872 267.966 179.617 267.93 179.365C267.91 179.22 267.872 179.079 267.835 178.937C267.793 178.767 267.729 178.604 267.643 178.452C267.572 178.336 267.484 178.232 267.38 178.144C267.262 178.054 267.119 178.003 266.97 178C266.863 178 266.763 178.035 266.659 178.071V178.071ZM237.96 182.763L237.979 182.797C237.956 182.811 237.934 182.825 237.911 182.84L237.961 182.763H237.96ZM232.347 181.591L232.344 181.632L232.332 181.6L232.347 181.59V181.591ZM235.36 180.253L235.352 180.262L235.348 180.255L235.36 180.253V180.253ZM238.225 179.723C238.223 179.729 238.221 179.734 238.218 179.74L238.208 179.727L238.225 179.724V179.723ZM239.378 177.98C239.062 178.025 238.748 178.08 238.434 178.135C238.114 178.19 237.794 178.235 237.474 178.291C237.17 178.345 236.869 178.412 236.564 178.466C236.249 178.521 235.934 178.578 235.618 178.629C235.098 178.713 234.578 178.789 234.052 178.825C233.51 178.862 232.964 178.858 232.424 178.925C232.138 178.959 231.86 179.041 231.601 179.167C231.446 179.255 231.317 179.382 231.227 179.535C231.057 179.805 230.991 180.157 231.001 180.473C231.011 180.771 231.075 181.057 231.121 181.351C231.165 181.648 231.205 181.946 231.247 182.244C231.274 182.441 231.431 182.874 231.708 182.727C231.791 182.943 231.896 183.15 232.013 183.347C232.14 183.564 232.289 183.767 232.47 183.94C232.558 184.024 232.653 184.102 232.752 184.172C232.856 184.244 232.986 184.272 233.105 184.311C233.212 184.349 233.325 184.365 233.438 184.357C233.505 184.351 233.571 184.337 233.636 184.323C233.897 184.27 234.135 184.24 234.393 184.298C234.507 184.348 234.608 184.41 234.704 184.49C235.034 184.886 235.226 185.383 235.644 185.705C235.754 185.79 235.904 185.823 236.032 185.863C236.162 185.902 236.306 185.89 236.438 185.873C236.598 185.853 236.764 185.787 236.908 185.717C236.978 185.683 237.035 185.622 237.088 185.569C237.192 185.472 237.284 185.362 237.361 185.243C237.428 185.133 237.485 185.013 237.541 184.896C237.631 184.73 237.729 184.573 237.852 184.431C237.926 184.361 238.002 184.294 238.082 184.231C238.174 184.158 238.282 184.103 238.385 184.047C238.577 183.94 238.783 183.866 238.991 183.796C239.191 183.734 239.394 183.673 239.593 183.605C239.726 183.56 239.843 183.493 239.955 183.409C240.139 183.269 240.255 183.069 240.34 182.861C240.438 182.621 240.494 182.364 240.556 182.114C240.596 181.956 240.634 181.797 240.673 181.639C240.848 181.001 241.022 180.365 240.998 179.696C240.99 179.485 240.965 179.276 240.923 179.069C240.846 178.69 240.704 178.315 240.365 178.1C240.276 178.043 240.149 178.01 240.05 177.984C239.953 177.957 239.852 177.944 239.75 177.945C239.626 177.945 239.501 177.962 239.378 177.98" fill="#7F7F7F"/>
<path fill-rule="evenodd" clip-rule="evenodd" d="M254.168 202.267L254.145 202.281C254.301 202.417 254.43 202.582 254.519 202.779L254.506 202.632C254.487 202.451 254.458 202.272 254.418 202.095C254.338 202.158 254.255 202.216 254.168 202.267Z" fill="black"/>
<path fill-rule="evenodd" clip-rule="evenodd" d="M254.144 202.28C254.147 202.282 254.149 202.284 254.151 202.287L254.148 202.279L254.144 202.281V202.28ZM241.095 176.263C241.045 176.293 240.997 176.328 240.953 176.367C240.539 176.507 240.093 176.579 239.663 176.655C239.159 176.744 238.654 176.832 238.146 176.915C237.126 177.081 236.1 177.221 235.076 177.368C235.162 177.354 235.251 177.344 235.336 177.331C233.725 177.493 232.113 177.631 230.498 177.746C229.966 177.784 229.519 178.166 229.519 178.725C229.519 179.233 229.966 179.741 230.498 179.703C231.812 179.61 233.125 179.5 234.436 179.373C234.836 179.336 235.238 179.308 235.636 179.25C236.189 179.168 236.742 179.09 237.291 179.01C238.108 178.896 238.921 178.755 239.732 178.602C240.162 178.52 240.594 178.438 241.017 178.322C241.315 178.251 241.601 178.139 241.867 177.989C242.173 177.805 242.503 177.374 242.466 176.996C242.466 176.843 242.426 176.693 242.35 176.56C242.272 176.426 242.16 176.316 242.025 176.24C241.89 176.164 241.737 176.125 241.582 176.128C241.411 176.129 241.243 176.176 241.095 176.263V176.263ZM267.342 176.522C266.902 176.652 266.466 176.785 266.016 176.884C265.634 176.964 265.251 177.022 264.866 177.076C264.176 177.133 263.49 177.176 262.801 177.214C262.481 177.231 262.159 177.224 261.839 177.228C261.556 177.231 261.266 177.248 260.984 177.238C259.438 177.186 257.893 177.117 256.349 177.03C255.699 176.993 255.149 177.606 255.149 178.23C255.149 178.916 255.699 179.393 256.349 179.43C257.315 179.488 258.276 179.543 259.238 179.58C259.834 179.604 260.428 179.625 261.021 179.649C261.515 179.669 262.01 179.642 262.504 179.639C263.934 179.643 265.361 179.51 266.766 179.243C267.186 179.155 267.588 179.014 267.994 178.885C268.628 178.681 269.034 178.043 268.85 177.378C268.776 177.12 268.621 176.893 268.407 176.73C268.194 176.568 267.933 176.479 267.665 176.476C267.557 176.476 267.449 176.491 267.342 176.522" fill="black"/>
<path fill-rule="evenodd" clip-rule="evenodd" d="M248.31 204.692C248.29 204.702 248.268 204.71 248.246 204.72L248.311 204.692H248.31ZM249.686 203.657C249.571 203.67 249.456 203.685 249.342 203.704C249.176 203.73 249.009 203.756 248.843 203.789C248.606 203.839 248.373 203.906 248.146 203.991C247.977 204.05 247.812 204.122 247.653 204.205C247.534 204.275 247.427 204.365 247.337 204.47C247.227 204.592 247.117 204.724 247.049 204.875C247.003 204.959 246.989 205.058 247.012 205.152C247.032 205.219 247.071 205.28 247.124 205.325C247.178 205.371 247.243 205.4 247.313 205.409C247.382 205.418 247.453 205.407 247.516 205.377C247.58 205.346 247.633 205.298 247.669 205.238C247.696 205.18 247.728 205.126 247.764 205.074C247.829 204.996 247.894 204.921 247.971 204.854C248.049 204.804 248.133 204.765 248.219 204.728C248.451 204.639 248.689 204.564 248.93 204.505C249.152 204.455 249.376 204.421 249.6 204.386C249.782 204.36 249.967 204.352 250.15 204.362C250.345 204.376 250.54 204.393 250.733 204.417C251.073 204.47 251.403 204.56 251.723 204.688C251.855 204.747 251.98 204.812 252.098 204.897L252.233 205.007C252.317 205.077 252.406 205.14 252.493 205.207C252.558 205.244 252.633 205.26 252.707 205.25C252.781 205.24 252.85 205.207 252.903 205.154C252.966 205.09 253.001 205.004 253.001 204.915C253.001 204.826 252.966 204.74 252.903 204.676C252.837 204.614 252.775 204.549 252.711 204.486C252.63 204.406 252.541 204.336 252.45 204.267C252.297 204.151 252.114 204.077 251.938 204.005C251.65 203.884 251.349 203.795 251.041 203.742C250.848 203.71 250.653 203.685 250.457 203.669C250.282 203.654 250.108 203.639 249.933 203.639H249.929C249.849 203.639 249.766 203.649 249.686 203.657" fill="#161616"/>
<path d="M249.686 203.657C249.571 203.67 249.456 203.685 249.342 203.704C249.176 203.73 249.009 203.756 248.843 203.789C248.606 203.839 248.373 203.906 248.146 203.991C247.977 204.05 247.812 204.122 247.653 204.205C247.534 204.275 247.427 204.365 247.337 204.47C247.227 204.592 247.117 204.724 247.049 204.875C247.003 204.959 246.989 205.058 247.012 205.152C247.032 205.219 247.071 205.28 247.124 205.325C247.178 205.371 247.243 205.4 247.313 205.409C247.382 205.418 247.453 205.407 247.516 205.377C247.58 205.346 247.633 205.298 247.669 205.238C247.696 205.18 247.728 205.126 247.764 205.074C247.829 204.996 247.894 204.921 247.971 204.854C248.049 204.804 248.133 204.765 248.219 204.728C248.451 204.639 248.689 204.564 248.93 204.505C249.152 204.455 249.376 204.421 249.6 204.386C249.782 204.36 249.967 204.352 250.15 204.362C250.345 204.376 250.54 204.393 250.733 204.417C251.073 204.47 251.403 204.56 251.723 204.688C251.855 204.747 251.98 204.812 252.098 204.897L252.233 205.007C252.317 205.077 252.406 205.14 252.493 205.207C252.558 205.244 252.633 205.26 252.707 205.25C252.781 205.24 252.85 205.207 252.903 205.154C252.966 205.09 253.001 205.004 253.001 204.915C253.001 204.826 252.966 204.74 252.903 204.676C252.837 204.614 252.775 204.549 252.711 204.486C252.63 204.406 252.541 204.336 252.45 204.267C252.297 204.151 252.114 204.077 251.938 204.005C251.65 203.884 251.349 203.795 251.041 203.742C250.848 203.71 250.653 203.685 250.457 203.669C250.282 203.654 250.108 203.639 249.933 203.639H249.929C249.849 203.639 249.766 203.649 249.686 203.657M248.31 204.692C248.29 204.702 248.268 204.71 248.246 204.72L248.311 204.692H248.31Z" stroke="#0E0E0E"/>
</svg>
