<?xml version="1.0" encoding="UTF-8"?>
<svg width="500px" height="600px" viewBox="0 0 500 600" version="1.1" xmlns="http://www.w3.org/2000/svg" xmlns:xlink="http://www.w3.org/1999/xlink">
    <!-- Generator: Sketch 63.1 (92452) - https://sketch.com -->
    <title>excited</title>
    <desc>Created with Sketch.</desc>
    <g id="excited" stroke="none" stroke-width="1" fill="none" fill-rule="evenodd">
        <g id="Group" transform="translate(221.999809, 127.261412)" fill="#000000">
            <path d="M39.7986322,53.5111443 C39.7611624,53.5047664 39.7205035,53.5015775 39.6830336,53.4951996 C39.7205035,53.5015775 39.7611624,53.5079553 39.7986322,53.5111443" id="Fill-1" fill-rule="nonzero"></path>
            <path d="M31.5670561,64.6794028 C31.4514575,65.096355 31.5853925,65.4981598 31.8628291,65.7755964 L31.866018,65.7755964 C32.289348,65.9159091 32.7254337,65.9996184 33.1647084,66.0649914 C33.8838112,66.1215949 34.6005225,66.1399311 35.3196255,66.1399311 C36.0419173,66.1431201 36.770587,66.1558758 37.4936761,66.118406 C38.2311154,66.080936 38.9693519,66.0745582 39.7075883,66.0370883 C40.0655454,66.018752 40.4203135,65.9908488 40.7790677,65.953379 C40.8850995,65.6855092 40.92815,65.4359756 40.8508185,65.1370138 C40.828496,65.0533045 40.800593,64.9687979 40.7631231,64.8914664 C40.7567452,64.8723329 40.7511646,64.8539965 40.7479757,64.834863 C40.7160864,64.693753 40.6546996,64.5717765 40.5733819,64.4681364 C40.1388907,64.5901129 39.7012105,64.6977392 39.2531664,64.7607205 C38.7238045,64.8380519 38.1912538,64.9257474 37.6587031,64.9783647 C37.2345759,65.0158345 36.808057,65.0373598 36.384727,65.0684519 C36.0299588,65.0939633 35.6464904,65.1593363 35.2917223,65.1250553 C34.9210096,65.0875855 34.5096381,65.0684519 34.1923399,64.8476187 C33.9252673,64.6642555 33.6773283,64.390805 33.5553518,64.0743041 C33.3600301,64.0105254 33.1647084,63.9467469 32.9685893,63.8821711 C32.8689354,63.8478902 32.7660925,63.8327428 32.6632496,63.8327428 C32.1713577,63.8327428 31.6978021,64.1994694 31.5670561,64.6794028" id="Fill-3" fill-rule="nonzero"></path>
            <path d="M22.7716777,45.5989392 C22.3945873,45.736063 22.0246717,45.8851453 21.653959,46.0318359 C21.2673017,46.1841072 20.8750637,46.3395673 20.5075399,46.5332946 C20.1216798,46.7357915 19.7573449,46.9566246 19.4177243,47.2340612 C19.1506517,47.4493138 18.886768,47.6693497 18.618101,47.8822106 C18.0935225,48.276043 17.5601745,48.654728 17.0475546,49.064505 C16.8673803,49.2080068 16.6927865,49.3634669 16.5277596,49.5284939 C16.4344834,49.6225672 16.3037375,49.7190322 16.2447424,49.8370225 C16.1761805,49.9741463 16.1634247,50.1240259 16.2447424,50.2603525 C16.3164932,50.3887068 16.4591977,50.4724161 16.6058883,50.4692272 C16.7581596,50.4660382 16.911228,50.3910985 17.0475546,50.3321034 C17.1942453,50.2699193 17.3281801,50.1917906 17.468493,50.1176481 C17.9261039,49.8713034 18.3621896,49.5819084 18.7982753,49.298094 C19.0318642,49.1490116 19.265453,48.999132 19.4990419,48.8468608 C19.7103083,48.7065481 19.9096162,48.5510879 20.1184909,48.4075862 C20.5163095,48.1325413 20.9603675,47.9292472 21.4012366,47.7387088 C21.7464379,47.6039767 22.1004087,47.4947559 22.4511906,47.3767657 C22.8410369,47.2468169 23.2237081,47.1328128 23.6255129,47.0634536 C23.8471433,47.047509 24.0655847,47.0483063 24.2888096,47.0562786 C24.4936981,47.0658454 24.7025728,47.1001263 24.9082586,47.1280294 C24.826941,47.1184626 24.7464206,47.1057069 24.6682919,47.0969374 C24.854844,47.1216515 25.0390045,47.1527436 25.2223678,47.1902134 C25.3786253,47.2213055 25.5308965,47.2803006 25.680776,47.3337152 C25.9797379,47.4349636 26.2747136,47.5513594 26.568892,47.666958 C26.6900713,47.7227642 26.8088588,47.7817593 26.9292408,47.8439435 C27.0695535,47.9156943 27.2002996,48.0089704 27.3374234,48.090288 C27.5749984,48.2321953 27.8101817,48.3701163 28.0365955,48.5279682 C28.3483131,48.8006214 28.6361137,49.0955971 28.9406562,49.3730337 C29.0905358,49.5101576 29.242807,49.6377146 29.3894976,49.7780274 C29.5425661,49.9279069 29.6844733,50.086556 29.8231916,50.2499885 C29.9116844,50.3743567 29.993002,50.5011165 30.0743196,50.6342542 C30.3174753,51.0456257 30.8595928,51.1915191 31.273356,50.9491606 C31.6847275,50.709194 31.8338098,50.1606986 31.5914514,49.7469354 C31.5069449,49.6098115 31.4296134,49.4663098 31.3355401,49.3355638 C31.2207387,49.1673479 31.0987622,49.002321 30.980772,48.8341051 C30.8404592,48.641175 30.7097132,48.4354893 30.5510641,48.2553149 C30.4330739,48.1181911 30.3174753,47.9810673 30.2018767,47.8439435 C29.9499515,47.5417926 29.6916484,47.2276834 29.3926865,46.9685831 C29.0315407,46.6640406 28.6416944,46.4336406 28.2279311,46.2088213 C27.4865057,45.8133944 26.6797073,45.5487135 25.8489919,45.4339122 C25.4009478,45.3709309 24.944134,45.3262859 24.4889147,45.3262859 C23.9061384,45.3262859 23.3257538,45.3996312 22.7716777,45.5989392" id="Fill-5" fill-rule="nonzero"></path>
            <path d="M28.2457891,51.3545529 C28.0680064,51.3728893 27.9811082,51.3920228 27.8224591,51.4701515 C27.763464,51.5012436 27.7068605,51.5411051 27.6478654,51.5753861 C27.4692854,51.6758373 27.2835305,51.76433 27.0953839,51.8496338 C26.8004082,51.9636379 26.4886906,52.0314026 26.1809592,52.0991673 C25.9019281,52.1597569 25.6244915,52.2179548 25.3462576,52.2610053 C24.9588031,52.3112309 24.5689568,52.3638482 24.1815022,52.4164655 C24.2412946,52.4068987 24.2971008,52.4005208 24.356096,52.3917513 C23.7549833,52.4419769 23.1347371,52.4244378 22.5344217,52.3566731 C22.3494639,52.3255811 22.1724785,52.2817333 21.9962903,52.2203465 C21.7898073,52.1095313 21.588905,51.9891494 21.3856108,51.871159 C21.1017964,51.709321 20.7310837,51.8025971 20.5628678,52.0864116 C20.4010297,52.3670371 20.4943059,52.7465194 20.7781203,52.9083574 C20.9335805,52.9960529 21.0890407,53.08614 21.2452981,53.1730383 C21.5689741,53.3603877 21.9054059,53.4688113 22.2697407,53.5373732 C22.6556008,53.609124 23.0542167,53.6370271 23.444063,53.6713081 C23.7175134,53.6936306 23.9917611,53.7247226 24.2660088,53.7183447 C24.552215,53.7151558 24.8392184,53.6713081 25.1222355,53.6370271 C25.4554783,53.5971656 25.7919101,53.5565067 26.1187751,53.481567 C26.414548,53.4130051 26.710321,53.3412541 27.0060939,53.2639228 C27.4110876,53.1578909 27.7913671,52.9896751 28.1708493,52.8214592 C28.4267607,52.7090495 28.6754969,52.6189623 28.8189987,52.3542814 C28.9338,52.1454067 28.9401778,51.8934815 28.8189987,51.6846069 C28.7161558,51.5092159 28.5009032,51.3529584 28.2864479,51.3529584 C28.272895,51.3529584 28.2593421,51.3537557 28.2457891,51.3545529" id="Fill-9" fill-rule="nonzero"></path>
            <path d="M48.7982613,45.7238654 C48.2561437,45.7334321 47.7235931,45.7924273 47.1910424,45.8888923 C46.7366203,45.9726016 46.3037235,46.1344397 45.8740157,46.3026555 C44.9516186,46.6669903 44.1488064,47.237011 43.3451969,47.8102205 C42.9123001,48.1219381 42.4913618,48.4424252 42.0959349,48.8003822 C41.930908,48.9502618 41.7850146,49.1184777 41.635135,49.2803157 C41.311459,49.6318948 41.0124971,49.9930407 40.7318716,50.382887 C40.4799464,50.7344662 40.6696875,51.2670169 41.018875,51.4727026 C41.2022382,51.5787344 41.4262604,51.6098265 41.6319461,51.553223 C41.8471986,51.4942279 41.9811336,51.3602931 42.1086906,51.1856992 C42.1533356,51.1259069 42.1963861,51.0661145 42.2410311,51.0071194 C42.581449,50.5973423 42.9697008,50.2306158 43.3850585,49.897373 C43.8641947,49.5609412 44.364059,49.2492236 44.8615314,48.940695 C45.2928337,48.668839 45.7392835,48.4248861 46.2032724,48.2176058 C46.7206757,48.0358371 47.2412679,47.8995105 47.7801965,47.8102205 C48.2888303,47.7735478 48.7847084,47.7639811 49.2909504,47.8173956 C49.6592714,47.8795797 50.0267952,47.9545195 50.3927246,48.0342426 C50.7722068,48.1227354 51.1405279,48.2391311 51.5064571,48.3754578 C51.6946038,48.4607616 51.8835477,48.5492543 52.0677082,48.6449221 C52.3292002,48.7788569 52.5787338,48.9343171 52.8338479,49.0746299 C53.0833814,49.2117537 53.3384955,49.3520665 53.5688954,49.5170935 C53.7921203,49.6789315 54.0089673,49.8495391 54.2313949,50.0097826 C54.3756938,50.1253812 54.5160067,50.2433715 54.6619,50.3573756 C54.9640508,50.5941534 55.2662016,50.7528025 55.6241586,50.8867374 C55.9358761,50.9991471 56.3065889,50.8125949 56.465238,50.544725 C56.6677348,50.1955376 56.5489473,49.7251709 56.1973681,49.5226741 C56.16229,49.5027433 56.1272118,49.4820153 56.0937281,49.46049 C55.8027385,49.2133482 55.5340714,48.9470729 55.2630127,48.6792031 C54.9050557,48.3180571 54.5343429,47.9816254 54.1197825,47.6890413 C53.7307334,47.4147936 53.3289287,47.1533016 52.9183544,46.910146 C52.4878493,46.6550319 52.0214688,46.4652907 51.5566828,46.2811302 C51.158067,46.1256701 50.7315481,46.029205 50.3145959,45.9295511 C49.8522015,45.8203303 49.3627013,45.7222709 48.8819706,45.7222709 C48.8540675,45.7222709 48.8261644,45.7230681 48.7982613,45.7238654" id="Fill-11" fill-rule="nonzero"></path>
            <path d="M49.7801602,50.73976 C49.8084925,50.7546096 49.8351581,50.7702407 49.862657,50.7866534 C49.8668235,50.7897796 49.8693235,50.7929058 49.8734899,50.7968136 C49.9018221,50.8374545 49.9276544,50.8780953 49.9518201,50.9195177 C49.9693194,50.9765713 49.9843189,51.0320617 49.998485,51.0883337 C50.0009849,51.1711786 50.0009849,51.2524603 49.9968184,51.3353052 C49.9718194,51.4494123 49.9443205,51.5619562 49.912655,51.6737186 C49.8651569,51.6870051 49.8168255,51.7002915 49.768494,51.713578 C49.7434951,51.7167042 49.7193293,51.7198304 49.693497,51.7229567 C49.5851679,51.7331168 49.4776722,51.7385877 49.3693431,51.7385877 C49.3068456,51.7237381 49.244348,51.7073255 49.1826838,51.6893498 C49.180184,51.6877866 49.1768507,51.6862235 49.1743508,51.6846604 C49.1510184,51.6635584 49.1285193,51.6408933 49.105187,51.6182283 C49.0910208,51.5963447 49.077688,51.5744611 49.0651884,51.5525775 C49.0410228,51.4861454 49.0201903,51.4189316 49.0001911,51.3509363 L49.0001911,51.3345236 C49.0143572,51.2805963 49.0301898,51.2274506 49.0468559,51.1735233 C49.0868543,51.1063095 49.1293526,51.0406588 49.1735175,50.9765713 C49.2310152,50.9179547 49.288513,50.8609011 49.3485106,50.8054107 C49.4343406,50.7796194 49.5201706,50.7577358 49.6076671,50.73976 C49.6659981,50.738197 49.7234958,50.738197 49.7801602,50.73976 M48.6252385,48.8054351 C48.5143127,48.8216953 48.4074524,48.8638514 48.3029151,48.9042007 C47.7175063,49.1228098 47.1663625,49.4359689 46.7220791,49.8918563 C46.2702457,50.3555725 46.0025141,51.0120021 46.0001911,51.6660229 C46.0001911,51.8491004 46.0437483,52.0327803 46.0710441,52.2116423 C46.0890477,52.3314859 46.1163435,52.442296 46.1546739,52.5573217 C46.2818609,52.9433505 46.4996469,53.2703608 46.7830591,53.5479884 C46.8115165,53.575691 46.8405547,53.6027912 46.8695928,53.6298916 C46.9985221,53.8400695 47.1605549,54.0315783 47.3434951,54.1875556 C47.5723157,54.3850867 47.8220436,54.4983058 48.1013905,54.604298 C48.3575069,54.7006547 48.6502113,54.733175 48.9202659,54.7379929 C49.2379431,54.7452196 49.5689778,54.6862012 49.8686514,54.5826178 C50.3559113,54.4109826 50.8164561,54.1008346 51.1683983,53.7123969 C51.3188159,53.5467839 51.4361299,53.360093 51.5284712,53.1613574 C51.597582,53.073432 51.6614659,52.9824954 51.7265113,52.8915588 C51.9170014,52.6235669 51.9530088,52.2682518 51.9849507,51.947866 C52.0395424,51.4167 51.9512664,50.8494004 51.658562,50.4001375 C51.6481083,50.3850818 51.6382354,50.3706283 51.6283624,50.3555725 C51.6190702,50.3350968 51.6109395,50.3152232 51.6016473,50.2941452 C51.4767833,50.0123021 51.2682895,49.7581614 51.0754763,49.5250988 C50.8054216,49.1932706 50.4377989,49.0216353 50.0591416,48.8662603 C49.8953665,48.8006173 49.6891957,48.7885728 49.5236783,48.7650858 C49.4121719,48.7488256 49.3058923,48.7415989 49.1943859,48.73919 C49.1816091,48.7385877 49.1688323,48.7385877 49.1554748,48.7385877 C48.9777614,48.7385877 48.8006288,48.781346 48.6252385,48.8054351" id="Fill-13" fill-rule="nonzero"></path>
            <path d="M24.7801602,49.73976 C24.8084925,49.7546096 24.8351581,49.7702407 24.862657,49.7866534 C24.8668235,49.7897796 24.8693235,49.7929058 24.8734899,49.7968136 C24.9018221,49.8374545 24.9276544,49.8780953 24.9518201,49.9195177 C24.9693194,49.9765713 24.9843189,50.0320617 24.998485,50.0883337 C25.0009849,50.1711786 25.0009849,50.2524603 24.9968184,50.3353052 C24.9718194,50.4494123 24.9443205,50.5619562 24.912655,50.6737186 C24.8651569,50.6870051 24.8168255,50.7002915 24.768494,50.713578 C24.7434951,50.7167042 24.7193293,50.7198304 24.693497,50.7229567 C24.5851679,50.7331168 24.4776722,50.7385877 24.3693431,50.7385877 C24.3068456,50.7237381 24.244348,50.7073255 24.1826838,50.6893498 C24.180184,50.6877866 24.1768507,50.6862235 24.1743508,50.6846604 C24.1510184,50.6635584 24.1285193,50.6408933 24.105187,50.6182283 C24.0910208,50.5963447 24.077688,50.5744611 24.0651884,50.5525775 C24.0410228,50.4861454 24.0201903,50.4189316 24.0001911,50.3509363 L24.0001911,50.3345236 C24.0143572,50.2805963 24.0301898,50.2274506 24.0468559,50.1735233 C24.0868543,50.1063095 24.1293526,50.0406588 24.1735175,49.9765713 C24.2310152,49.9179547 24.288513,49.8609011 24.3485106,49.8054107 C24.4343406,49.7796194 24.5201706,49.7577358 24.6076671,49.73976 C24.6659981,49.738197 24.7234958,49.738197 24.7801602,49.73976 M23.6252385,47.8054351 C23.5143127,47.8216953 23.4074524,47.8638514 23.3029151,47.9042007 C22.7175063,48.1228098 22.1663625,48.4359689 21.7220791,48.8918563 C21.2702457,49.3555725 21.0025141,50.0120021 21.0001911,50.6660229 C21.0001911,50.8491004 21.0437483,51.0327803 21.0710441,51.2116423 C21.0890477,51.3314859 21.1163435,51.442296 21.1546739,51.5573217 C21.2818609,51.9433505 21.4996469,52.2703608 21.7830591,52.5479884 C21.8115165,52.575691 21.8405547,52.6027912 21.8695928,52.6298916 C21.9985221,52.8400695 22.1605549,53.0315783 22.3434951,53.1875556 C22.5723157,53.3850867 22.8220436,53.4983058 23.1013905,53.604298 C23.3575069,53.7006547 23.6502113,53.733175 23.9202659,53.7379929 C24.2379431,53.7452196 24.5689778,53.6862012 24.8686514,53.5826178 C25.3559113,53.4109826 25.8164561,53.1008346 26.1683983,52.7123969 C26.3188159,52.5467839 26.4361299,52.360093 26.5284712,52.1613574 C26.597582,52.073432 26.6614659,51.9824954 26.7265113,51.8915588 C26.9170014,51.6235669 26.9530088,51.2682518 26.9849507,50.947866 C27.0395424,50.4167 26.9512664,49.8494004 26.658562,49.4001375 C26.6481083,49.3850818 26.6382354,49.3706283 26.6283624,49.3555725 C26.6190702,49.3350968 26.6109395,49.3152232 26.6016473,49.2941452 C26.4767833,49.0123021 26.2682895,48.7581614 26.0754763,48.5250988 C25.8054216,48.1932706 25.4377989,48.0216353 25.0591416,47.8662603 C24.8953665,47.8006173 24.6891957,47.7885728 24.5236783,47.7650858 C24.4121719,47.7488256 24.3058923,47.7415989 24.1943859,47.73919 C24.1816091,47.7385877 24.1688323,47.7385877 24.1554748,47.7385877 C23.9777614,47.7385877 23.8006288,47.781346 23.6252385,47.8054351" id="Fill-13" fill-rule="nonzero"></path>
            <path d="M44.3870192,52.891775 C44.2339507,53.150078 44.3120794,53.5295603 44.5887188,53.673062 C45.0064682,53.8851256 45.4297982,54.093203 45.859506,54.2773635 C46.2485551,54.4455795 46.6447792,54.5484223 47.0617313,54.6137954 C47.270606,54.6480763 47.4786834,54.6664126 47.6843692,54.6911268 C47.9833311,54.7254078 48.282293,54.7533109 48.5812549,54.7820112 C48.7430929,54.7939697 48.9081198,54.7907807 49.0707551,54.7939697 C49.2198374,54.8003475 49.3752976,54.8003475 49.5251771,54.7852002 C49.8990787,54.7533109 50.2689942,54.7070714 50.636518,54.6321316 C50.932291,54.5699476 51.2192944,54.4766715 51.5055005,54.3865843 C51.7925039,54.2956999 52.0787101,54.2207602 52.3617273,54.1211062 C52.5116068,54.0684889 52.6606892,54.0126826 52.8073797,53.9473097 C52.9476925,53.8819367 53.0816274,53.8006191 53.1812814,53.673062 C53.2466544,53.607689 53.2928939,53.5263714 53.3184053,53.4362842 C53.3582668,53.2959714 53.3367416,53.1437001 53.2649907,53.0193321 C53.1533783,52.8287937 52.8759417,52.6829003 52.6551085,52.7697986 C52.570602,52.8040795 52.4773258,52.8200241 52.3904276,52.8447383 C52.2812069,52.8726414 52.1719862,52.9037335 52.0627654,52.9348255 C51.7925039,53.0129542 51.524634,53.084705 51.2535753,53.1564558 C51.0295532,53.2154511 50.8111117,53.2927825 50.5839007,53.346197 C50.3216115,53.41157 50.0593223,53.4609984 49.7922497,53.5056434 C49.3864588,53.5470994 48.9758845,53.5750025 48.5661074,53.5606523 C48.1340079,53.545505 47.7050973,53.5136157 47.2761867,53.4785375 C46.9317826,53.4267174 46.6033231,53.346197 46.2788499,53.2202345 C45.9033538,53.0552075 45.5310466,52.8750331 45.1651173,52.6892782 C45.071044,52.640647 44.9697955,52.6159329 44.8709388,52.6159329 C44.678806,52.6159329 44.4938483,52.7084117 44.3870192,52.891775" id="Fill-15" fill-rule="nonzero"></path>
            <path d="M33.243714,46.5049929 C32.9543189,46.6732088 32.8793791,47.031963 33.0284614,47.3181692 C33.1504379,47.554947 33.2684281,47.7877386 33.3776489,48.0285026 C33.5586204,48.4797356 33.6455187,48.9469134 33.7236474,49.4228607 C33.7977899,50.0423097 33.8512045,50.6657448 33.8695408,51.2915717 C33.8886744,51.9421127 33.8480156,52.6022204 33.7858315,53.2503698 C33.6518966,54.6016774 33.4868696,55.9537823 33.3218427,57.3050898 C33.1504379,58.4291865 32.9726552,59.5532831 32.686449,60.6590434 C32.5397585,61.2163083 32.3651647,61.7648037 32.1913682,62.3156908 C32.0574333,62.7302512 31.9609683,63.163148 31.7991303,63.5673444 C31.7799967,63.6080032 31.7616604,63.6518509 31.7425268,63.6949015 C31.636495,63.9380571 31.6213476,63.9938633 31.5870666,64.2593415 C31.571122,64.3956681 31.6524396,64.6388237 31.7210015,64.7576113 C31.7991303,64.890749 31.9450237,65.0470063 32.0885253,65.1155683 C32.2344187,65.1992775 32.3906761,65.2431253 32.558892,65.2431253 C32.8076283,65.2431253 33.047595,65.1434713 33.2189998,64.9688776 C33.4087409,64.7823254 33.5020171,64.5208335 33.4900585,64.2649221 C33.5068004,64.1931713 33.525934,64.1222176 33.5458647,64.0504668 C33.4860724,63.8886288 33.4597637,63.7164267 33.4804918,63.5394413 C33.5267312,63.1312587 33.5522426,63.0100795 33.7172695,62.6425557 C33.8009789,62.4496256 33.9428861,62.2861932 34.0816044,62.1267469 C34.2538065,61.5017172 34.4068749,60.874296 34.5296486,60.2357134 C34.7010534,59.3667309 34.7791821,58.4762232 34.8788361,57.594485 C34.9721122,56.7725392 35.0191489,55.9410265 35.0901024,55.1158918 C35.1467059,54.4932539 35.1993232,53.8730077 35.2431709,53.2503698 C35.2838297,52.6931049 35.2678851,52.1382317 35.2304152,51.5841556 C35.1897564,50.9272368 35.1275723,50.2735069 35.0247294,49.6221686 C34.981679,49.3391513 34.9218866,49.0585258 34.8628914,48.7786975 C34.7879517,48.4390769 34.6914866,48.105834 34.5671184,47.778969 C34.4268057,47.4146341 34.2402535,47.0654467 34.0592819,46.7170565 C33.9572363,46.5265181 33.7515505,46.4268641 33.5426758,46.4268641 C33.4398329,46.4268641 33.3338012,46.4523756 33.243714,46.5049929" id="Fill-17" fill-rule="nonzero"></path>
            <path d="M47.2703668,82.3516363 C47.621946,82.0997111 47.9743224,81.8469887 48.3290905,81.5982524 L48.7524205,81.2992906 L48.8959221,81.1996366 L49.0426128,81.0967937 C49.1143636,81.507368 49.2666349,81.8844586 49.5066017,82.2735076 L49.5719746,82.3795394 L48.9644841,82.4138204 L48.1831971,82.495138 C47.6849274,82.557322 47.2576111,82.6067504 46.8342811,82.6505982 C46.9873497,82.5509442 47.1332431,82.4512902 47.2703668,82.3516363 M60.1815332,54.7658272 L60.3346017,53.3738607 L60.4653477,52.1437323 C60.5618127,51.1758931 60.6582778,50.256685 60.6518999,49.3382742 L60.6518999,48.9986534 L60.6518999,48.7156363 C60.648711,48.2420806 60.6455221,47.771714 60.6335636,47.2981584 L60.7547428,47.3420062 C60.907014,47.3356283 61.0321794,47.3332366 61.1629254,47.3332366 C61.2123538,47.3332366 61.2562015,47.3332366 61.3032382,47.3356283 L61.4148506,47.379476 C61.5081267,47.6903963 61.5798775,48.0180586 61.6332921,48.3792045 C61.6452506,48.487628 61.6580063,48.6032266 61.6675731,48.7180279 C61.701854,49.0201787 61.6954761,49.3566105 61.6452506,49.8086408 C61.4618873,50.9821658 61.1382112,52.1349627 60.8264936,53.2494925 L60.6646556,53.8067575 L60.4557809,54.5513719 L60.3035097,55.09907 L60.097824,55.8373065 L59.99817,56.2048302 L59.9670779,56.310862 C60.0444094,55.8652096 60.1161602,55.3701287 60.1815332,54.7658272 M10.970816,57.5282348 L10.7436049,57.4596729 C10.4350763,57.2946459 10.1305338,57.0985269 9.78453523,56.8466017 C9.64422248,56.734192 9.51347644,56.6130129 9.3891083,56.4790779 C9.2766987,56.3172399 9.17385582,56.121121 9.08057969,55.921813 C8.93707799,55.5447225 8.871705,55.1245814 8.80952093,54.6884957 L8.76965935,54.3241608 C8.69471958,53.6608641 8.63253551,53.0661293 8.64768291,52.4769751 C8.66362755,51.8168673 8.68834173,51.1161007 8.76647042,50.4440344 C8.88446071,49.7584153 9.01201777,49.0887406 9.24241774,48.4852363 C9.48876228,47.936741 9.77177953,47.444849 10.0834971,47.0239107 C10.1393033,46.956146 10.1990957,46.8963536 10.2644687,46.8373585 C10.3449891,46.7783634 10.4350763,46.7281377 10.5227717,46.6787094 L10.6941765,46.6316727 L10.7810748,46.6444285 L10.871162,46.6603731 L10.8775398,47.1674124 L10.8249225,48.4445775 C10.7778859,49.4873565 10.7778859,50.3443805 10.8249225,51.1384232 C10.8647841,51.7857753 10.9086318,52.4371135 10.9556685,53.0876545 L11.0210415,54.053102 C11.0832255,54.9627434 11.132654,55.8683985 11.1637459,56.7812287 C11.1733127,57.0522875 11.1796906,57.3169684 11.1828795,57.5784604 L11.1892573,57.5880272 C11.1111287,57.5625158 11.0361889,57.5409905 10.970816,57.5282348 M15.4743774,37.0744599 L15.7047773,36.9995201 L16.2931343,36.809779 C16.9093944,36.61366 17.5017375,36.3713015 18.2048958,36.0651646 C18.4416736,35.9655106 18.6784514,35.8658567 18.9184181,35.7733778 C19.5506228,35.5238444 20.1923943,35.2089378 20.7400924,34.9346901 L20.8620688,34.8764922 L21.4312922,34.5926777 C21.7246735,34.4491761 22.0140686,34.2937159 22.3066526,34.1350668 L22.3847813,34.094408 L22.7889777,33.8759665 C23.1317874,33.6957922 23.471408,33.5148206 23.8142176,33.3282684 C24.7047254,32.8483349 25.5792884,32.356443 26.4514598,31.8549844 C27.1275123,31.4627463 27.8314678,31.0170939 28.4014884,30.652759 L28.5441929,30.559483 L28.9212835,30.3171245 L29.9959517,29.6195468 C30.1418451,29.5254734 30.2853468,29.4226306 30.4288485,29.3205849 L30.5906865,29.2017974 L30.7118657,29.1180881 L30.7868055,29.0646736 C30.9390768,28.9586418 31.0514864,28.8781214 31.1575183,28.787237 L31.4341576,28.5664038 L31.521853,28.4946529 C31.7674004,28.2953451 32.0105561,28.0960372 32.244145,27.8847708 L32.4586002,27.6854629 C32.7392258,27.4295515 33.0134735,27.1808153 33.2933018,26.9312817 C33.7014844,26.5669468 34.112856,26.2026121 34.5234302,25.8414661 L34.5856143,25.7888488 C34.9754606,25.4396613 35.2800031,25.1662109 35.5606286,24.8728296 L35.7974064,24.6272823 C36.0309952,24.3873156 36.3833717,24.0261696 36.6416747,23.6801711 C36.7756096,23.4968078 36.8904109,23.3190252 37.0060095,23.1356619 L37.0554379,23.0607221 L37.1367555,22.936354 L37.2085064,22.8303222 L37.3456302,22.6310143 C37.3767222,22.8207554 37.451662,22.9762156 37.5321824,23.129284 L37.582408,23.2193712 L37.7251125,23.4968078 C37.9244204,23.8675206 38.1611982,24.2318554 38.4729157,24.6456187 C38.7128825,24.9477694 38.9711855,25.2658649 39.2765252,25.5241679 C39.4814138,25.7011533 39.6966663,25.875747 39.9119188,26.043963 L40.3599631,26.3931504 L41.2600375,27.0907281 C42.1162643,27.7508358 42.844934,28.2738198 43.4962723,28.687583 C44.1308687,29.1117102 44.8818609,29.5039482 45.3769417,29.7622513 L45.5013098,29.8244354 L45.5794386,29.8619053 L45.6822815,29.9153197 L45.9373955,30.0428768 L46.5074162,30.3418387 L46.7250604,30.4534511 C47.5852734,30.8959147 48.4446891,31.3383782 49.3136716,31.7553304 C50.5932283,32.3691987 51.8201678,32.8730492 52.8509883,33.2876096 L52.963398,33.3378352 C53.4082532,33.5307653 53.8786199,33.736451 54.3178945,33.966851 C54.8751595,34.2594349 55.348715,34.552019 55.775234,34.8637365 C55.90598,34.9761462 56.0271592,35.102906 56.167472,35.2838776 C56.3699687,35.5453696 56.5660878,35.829184 56.7438704,36.1122013 C56.9240448,36.4047853 57.0803021,36.7069361 57.251707,37.0959851 C57.6965622,38.2575516 58.032994,39.5602281 58.3072416,41.1945529 C58.4220431,42.1695672 58.5097385,42.9787574 58.5376417,43.7672195 C58.5472084,44.006389 58.552789,44.243964 58.5559779,44.4799445 C58.5591668,44.6856303 58.5623558,44.8881272 58.5687336,45.090624 L58.6062035,46.033749 C58.3662368,46.2051538 58.2538272,46.5822444 58.3447116,46.9186762 C58.4037067,47.1147951 58.5129274,47.2734442 58.6588208,47.3762871 L58.6372955,49.2537676 C58.6372955,49.8118297 58.614973,50.2909659 58.5783004,50.7238627 C58.5496001,51.0634835 58.5129274,51.4031041 58.4722686,51.7395358 L58.4347988,52.0727787 L58.3973288,52.383699 L58.3598589,52.6954166 L58.3383337,52.875591 C58.2881081,53.2805846 58.2506383,53.5923022 58.2195462,53.9032225 C58.1509843,54.5792749 58.0800307,55.2553274 57.9955241,55.9305825 C57.8520224,56.967781 57.7308432,57.6749254 57.5817609,58.3725031 C57.478918,58.8771507 57.3569416,59.3658537 57.2230066,59.8577456 C57.1201638,60.2531725 56.9926067,60.6430188 56.8650497,61.0320678 L56.8243908,61.153247 C56.6131245,61.8292995 56.3388768,62.6137754 55.8812658,63.8630374 C55.7345752,64.2616532 55.5942624,64.6570801 55.4547468,65.0588849 L55.3638625,65.313999 L55.2737753,65.5723021 C55.186877,65.833794 55.0959926,66.0952859 54.9995276,66.3599668 C54.7755055,66.986591 54.5291609,67.599662 54.2772357,68.2135304 L54.2429548,68.2972397 C53.971896,68.9166887 53.6984455,69.5433128 53.4018754,70.1563839 C53.0343517,70.9129568 52.667625,71.6671379 52.2841566,72.410955 C51.5961457,73.7375485 50.6801266,74.99558 49.9426874,76.0048753 L49.7306237,76.2942703 C49.1853173,76.991848 48.5626793,77.6806562 47.7654477,78.4619431 C47.4043018,78.8199001 47.0431559,79.1658987 46.6851988,79.4895747 L46.7880417,79.5142889 L46.8558064,79.4927636 L46.6596874,79.6107539 C46.3950065,79.7981034 46.1367035,79.9846556 45.8815893,80.1775856 C45.7659907,80.2620922 45.6511894,80.3521793 45.5387797,80.4422665 L44.7264007,81.0314207 C44.5326734,81.1685445 44.3365545,81.3056684 44.1372465,81.4388061 L44.1340576,81.4332254 L44.0001227,81.4826538 C43.8446625,81.5512158 43.6955802,81.6325334 43.5425117,81.7162427 L43.3838626,81.8095188 C42.4184151,82.3356917 41.6371281,82.7287268 40.9267947,83.0396472 C40.6063076,83.1703932 40.2786454,83.2796139 39.9454026,83.3888347 L39.6464407,83.4884887 L39.5348283,83.5259585 C39.3538567,83.5881425 39.1800602,83.6471378 39.0022775,83.7061329 C38.6594679,83.8121647 38.3142666,83.895874 37.9618902,83.9771916 C37.7067761,84.0242283 37.4452841,84.0585092 37.1837921,84.0896013 L36.9246919,84.1238822 L36.7285729,84.1390296 L36.4766477,84.1549743 L36.1529716,84.1796885 C36.0780319,84.1828774 35.9999032,84.1860663 35.9185855,84.1860663 C35.7256555,84.1860663 35.5359144,84.1764996 35.345376,84.1637438 L35.2210079,84.1549743 C34.7291159,84.1206933 34.237224,84.0585092 33.7485211,83.9931363 L33.6424893,83.9867584 C32.8077877,83.8679709 31.9292384,83.6439488 31.2260802,83.4637744 L30.9701687,83.4007931 L30.6935294,83.3298396 C30.1266977,83.17996 29.6340086,83.0460251 29.1516834,82.884187 C28.6685611,82.7191601 28.1926138,82.5349996 27.7190582,82.3420696 C27.4264741,82.2113235 27.140268,82.0710108 26.8532646,81.9314953 C26.7073712,81.8597444 26.5638695,81.7848046 26.4235568,81.7098649 L26.2896218,81.641303 C26.1748205,81.5791188 26.056033,81.5169348 25.9380427,81.4611286 C25.5394268,81.2681985 25.2803266,81.1398442 25.0379682,80.9875729 C24.7980015,80.8440713 24.5676015,80.6758554 24.3435794,80.5052478 C24.1315158,80.337032 23.9226411,80.1560604 23.7233332,79.9663192 C23.5335921,79.7917255 23.3558094,79.5892287 23.1820129,79.3899208 L23.0568475,79.2464191 L22.9324794,79.1069035 C22.6088034,78.7513382 22.2691827,78.4125148 21.926373,78.0728941 L21.802005,77.9485259 C21.6306002,77.7803101 21.4623843,77.6120942 21.2941684,77.4375005 L21.2104591,77.3506022 C20.690664,76.8084847 20.1549244,76.2480309 19.6630325,75.6748213 C19.4039321,75.3758595 19.152007,75.0737087 18.9000818,74.7715579 C18.3794895,73.8938058 17.7568517,73.0622933 17.15255,72.2554949 L16.8320629,71.7851282 C16.5546263,71.3307062 16.1464437,70.641898 15.7980535,69.8789473 C15.6736854,69.5433128 15.5708425,69.1941254 15.4711885,68.8457351 L15.4369075,68.7333254 C15.352401,68.4407415 15.2718806,68.1417796 15.1937519,67.8460067 L15.1690377,67.7527306 L15.1411346,67.6498877 L15.1036647,67.5159527 L14.9976329,67.1173369 C14.8166613,66.4572292 14.6237313,65.7405179 14.4866074,65.0429402 C14.4092759,64.6658496 14.340714,64.2831785 14.2721521,63.8973183 L14.2283044,63.6573516 L14.1852539,63.4205738 C14.1350283,63.1343677 14.0855999,62.8537421 14.0289964,62.5707249 L13.9540567,62.1625423 L13.9261536,62.0126627 C13.8049744,61.3748774 13.6957536,60.7793454 13.6024775,60.1814217 C13.5554409,59.8202758 13.5092015,59.4591298 13.4900679,59.0979839 C13.4653537,58.6212393 13.4470173,58.145292 13.4310727,57.6685476 L13.4246949,57.3448715 C13.3999807,56.5037921 13.3784554,55.6786574 13.321852,54.8941815 C13.29076,54.4301926 13.2540874,53.9630149 13.2166174,53.4990261 L13.2038617,53.3459576 C13.1010188,52.0408894 12.994987,50.6895818 13.0228902,49.3159517 C13.0356459,48.7961567 13.06036,48.2795506 13.0890604,47.7589583 L13.128922,46.9274457 C13.156825,46.229868 13.1663918,45.5322903 13.1727697,44.8315237 L13.1759586,44.5732206 C13.191106,43.6859019 13.2198064,42.9508543 13.2628568,42.3282163 L13.3003268,41.7956656 L13.3194603,41.5533072 C13.3537413,41.0821433 13.3880222,40.6340992 13.4342616,40.1852578 L13.5123904,39.7093104 L13.5929107,39.195096 L13.6056664,39.1050088 C13.6399474,38.8682311 13.6742284,38.6282644 13.6837952,38.3859059 C13.6893758,38.2798741 13.6837952,38.1706534 13.6742284,38.0654188 C13.6646617,37.9585897 13.6614727,37.8932168 13.6614727,37.8278438 C13.6614727,37.7250009 13.6527031,37.6596279 13.6367585,37.6006327 L13.7204678,37.6070106 C14.3128109,37.4515504 14.9107347,37.261012 15.4743774,37.0744599 M40.2076918,0.591545628 L39.6623854,0.61705704 C39.0054664,0.638582295 38.3453587,0.641771221 37.6908315,0.644960147 L37.4389063,0.644960147 L37.1925617,0.648149074 C36.5077397,0.651338 35.7471807,0.694388509 34.7323049,0.784475684 C34.0969113,0.844268057 33.4615177,0.887318566 32.8229351,0.931166305 L32.34061,0.965447266 C31.8016814,0.999728227 31.2659417,1.05234551 30.7302021,1.10576003 L30.0613247,1.17432196 C29.0990661,1.27078699 28.2986455,1.35768523 27.4759025,1.53227896 C26.6603345,1.71006161 25.8320109,1.98032314 25.2835155,2.1581058 L25.0969633,2.21710094 C24.2590729,2.48178185 23.4498827,2.88677552 22.7363604,3.24473252 L22.0108797,3.60906738 C21.4225227,3.90563755 20.8365574,4.20141049 20.2545783,4.50914189 C18.697585,5.32550709 17.2059645,6.2781989 15.8195788,7.33692252 C15.1969408,7.82323382 14.5743029,8.35578456 13.9357204,8.90348269 L13.8703473,8.96247783 L13.6088554,9.18968885 C12.8897525,9.81631295 12.2320364,10.4389508 11.5998316,11.0990587 C11.1613543,11.5630474 10.737227,12.036603 10.3075192,12.5189282 L9.78134633,13.110474 C9.03115133,13.9483645 8.37104353,14.8077802 7.87516546,15.4623074 C7.44864653,16.0259501 7.06278641,16.6390213 6.75106884,17.1341021 L6.67373737,17.2616591 L6.45210698,17.6140356 C5.96978184,18.3737973 5.5177515,19.1271812 5.10717721,19.8590399 L4.96367551,20.1149512 C4.69580568,20.5908985 4.43112478,21.067643 4.1696328,21.5499682 C3.71521076,22.3814808 3.38515687,23.2472744 3.086195,24.0636396 C2.7561411,24.9724836 2.45717924,25.8885027 2.20445681,26.7853883 C2.06733297,27.286847 1.94615376,27.7906974 1.82497455,28.2993312 L1.75641263,28.5879291 L1.68466178,28.8717435 L1.56906319,29.3293545 C1.36098574,30.1457197 1.18639201,30.9397624 0.94004743,32.1667019 C0.609993532,33.867197 0.392349295,35.6761156 0.245658673,37.8621247 C0.146004719,39.4191181 0.071064945,41.12918 0.0152587303,43.2402493 C-0.0158333036,44.5237923 0.00569195067,45.8966252 0.0343922897,47.1865459 L0.0559175439,48.4940058 C0.071064945,49.3661772 0.108534832,50.2192151 0.165138279,51.1041422 C0.196230312,51.5426196 0.20499986,51.9787054 0.21456664,52.41798 L0.220944493,52.5766291 L0.22413342,52.7448449 L0.242469747,53.5173624 C0.289506414,54.9651351 0.382782516,56.3858019 0.48243647,57.8367635 L0.495192177,58.0265045 L0.507150651,58.2226235 L0.547809464,58.7958331 L0.557376245,58.9481044 C0.961572688,60.3496376 1.31554353,61.7631292 1.68785071,63.1710403 C1.87759184,63.8845626 2.0553745,64.6004767 2.24192669,65.313999 C2.39180624,65.8808306 2.59111416,66.4285288 2.79600269,66.9738353 C3.20418528,67.9919001 3.64664884,68.9852506 4.06997884,69.9945459 C4.47497251,70.9504267 4.87039941,71.9063074 5.28735155,72.8566075 C5.75134037,73.9089533 6.24961014,74.9461516 6.75425777,75.9801611 C6.91290687,76.0551008 7.05959749,76.1571465 7.19034348,76.2886897 C7.72927207,76.8236321 8.18688303,77.4558368 8.66043862,78.0505716 C9.03673195,78.5305051 9.41701145,79.0072496 9.79729094,79.4863858 C10.5849558,80.4893032 11.3758096,81.4922206 12.1578938,82.5007187 C12.6585553,83.1488679 13.160014,83.7962201 13.6614727,84.4411804 C14.2625854,85.1602834 14.863698,85.8769946 15.4807553,86.5809501 C15.6425933,86.6989404 15.7765283,86.8520089 15.8729932,87.0226165 C15.9814168,87.144593 16.0906375,87.2657721 16.1998583,87.3837624 C16.4517834,87.6643879 16.7076948,87.9418245 16.9564311,88.2248418 C16.9970898,88.2718785 17.0433293,88.3213068 17.0903659,88.3747213 C17.3454801,88.5644625 17.6069721,88.7422451 17.8812197,88.9040831 C17.9346343,88.9224195 17.9904405,88.941553 18.0462467,88.9567004 C18.0741498,88.9598893 18.1028502,88.9598893 18.1339421,88.9630783 C18.5261802,88.7733372 19.0148831,88.6505634 19.4525633,88.7223144 C19.5123557,88.5716376 19.5705536,88.4193663 19.6287515,88.2655006 C19.7874006,87.8485485 19.9396718,87.4276101 20.0863625,87.0042801 C20.2697257,86.4533931 20.3948911,85.8674278 20.5128814,85.3037851 L20.594199,84.9266945 C20.8086543,83.899063 20.9394003,83.1050202 21.017529,82.3548253 C21.0892798,81.6476808 21.0549989,80.9094443 20.9114972,80.0970653 C21.1044273,80.3115206 21.2574957,80.4709668 21.409767,80.6328049 L21.6593005,80.9070525 C21.8897004,81.1621667 22.0698748,81.3614746 22.2691827,81.541649 C22.5928588,81.8374219 22.9205209,82.0997111 23.2410081,82.3141664 C23.5551174,82.529419 23.9194521,82.7749663 24.2782064,82.9623158 C24.4520029,83.0555919 24.6297855,83.145679 24.8107572,83.2325772 L24.8848997,83.2732361 L25.3273632,83.4972582 C25.7419237,83.7125107 26.1620648,83.9213854 26.5917726,84.1143154 C27.4105295,84.4969867 28.2516089,84.818271 29.0863104,85.0638183 C29.9018784,85.3165408 30.6903405,85.5309961 31.4309687,85.7024009 L31.68688,85.7645849 L31.7921146,85.795677 C32.0416481,85.86105 32.2879927,85.923234 32.53354,85.9766486 C32.891497,86.0483994 33.2502513,86.0946388 33.6082083,86.1416755 L33.7230097,86.156823 L34.0036352,86.1942928 C34.629462,86.2787993 35.3055145,86.3561308 35.9935254,86.3561308 C36.1649302,86.3561308 36.3427128,86.3505502 36.5173065,86.3409835 C37.0155763,86.3067025 37.5074683,86.2381406 37.9993602,86.1695787 C38.5008188,86.0946388 38.9058125,86.0077406 39.2733363,85.9017088 C39.6376711,85.7988659 39.9956282,85.6776867 40.3535852,85.5533186 L40.4500502,85.5158487 L40.5465152,85.4847567 C40.5720266,85.4967151 40.621455,85.5062819 40.6804502,85.5062819 C40.7992377,85.5062819 40.9267947,85.4911345 41.0734854,85.4624342 C41.2353234,85.4281532 41.3907835,85.3595913 41.540663,85.2942183 L41.7455517,85.1977533 C42.1130754,85.048671 42.4686407,84.8772662 42.8265977,84.7026724 C42.7891278,84.7369534 42.7859389,84.8023263 42.7859389,84.8589298 C42.78275,85.4879456 43.0880897,86.0420215 43.6238293,86.3816422 L43.7609532,86.4685405 C43.7920452,86.6335674 43.8478515,86.8081611 43.9196023,86.9851466 C44.1906611,87.6827243 44.6139911,88.3125372 44.9504228,88.8163877 L45.1497307,89.1153496 C45.6727147,89.9157701 46.3830481,90.6508177 47.2544222,91.3021559 C47.5039557,91.4855191 47.7750144,91.6473576 48.0428843,91.8060064 L48.1736303,91.8873241 L48.5156427,92.0961988 C48.9549174,92.385594 49.394192,92.6662193 49.848614,92.9277112 L49.9769683,93.0018538 C50.5182886,93.3135717 51.0045998,93.5997775 51.4430773,93.9330199 C51.6272378,94.1076137 51.7986426,94.3005444 51.9636695,94.5277552 C52.137466,94.7868551 52.3032902,95.0913979 52.4555615,95.4342075 C52.6078327,95.9045742 52.7138644,96.4155997 52.7983711,97.0908544 C52.8509883,97.8290917 52.8788915,98.4644849 52.8788915,99.0313169 C52.8820804,99.3677488 52.8693247,99.707369 52.8573662,100.043003 L52.8541773,100.133888 C52.8414216,100.495034 52.832652,100.828277 52.8350437,101.16152 C52.8509883,102.488113 52.8230852,103.873702 52.7545233,105.520782 C52.7298091,106.221549 52.767279,106.919127 52.8103295,107.635838 L52.8198963,107.757017 C52.863744,108.55106 52.9131724,109.370614 53.0192042,110.148712 C53.128425,110.939565 53.3771612,111.68418 53.582847,112.244634 C53.9471818,113.262699 54.5482944,114.268805 55.3638625,115.237441 C55.775234,115.719766 56.1523245,116.100046 56.5477515,116.436477 L56.7932987,116.642164 C57.0268877,116.841471 57.2604765,117.03759 57.4940654,117.23052 C57.6869954,117.385981 57.8743449,117.532671 58.0888002,117.660228 C58.1980209,117.72879 58.3192002,117.784597 58.4443655,117.8412 L58.6404844,117.931287 L58.9298796,118.0716 C59.4098131,118.305188 59.8793825,118.526021 60.3465602,118.697427 C60.7738764,118.856075 61.205976,119.017914 61.6269142,119.202074 C62.4927078,119.650118 63.2739948,120.260798 63.993895,120.849155 C64.2928568,121.113835 64.579063,121.366558 64.8254075,121.659142 C64.8995501,121.777133 64.9713009,121.911068 65.036674,122.048191 C65.2551154,122.752147 65.3731057,123.521475 65.4727597,124.137735 L65.4942849,124.274859 C65.6720675,125.405334 66.282747,126.560523 67.2171025,127.52597 C67.7990816,128.117516 68.4966593,128.491417 69.2811352,128.883655 C69.6582257,129.073397 70.0472748,129.270313 70.3996511,129.512671 C70.7416635,129.74626 71.0629479,129.995794 71.3802461,130.254096 C71.8601795,130.680616 72.3393157,131.15736 72.8471523,131.711436 C73.3924588,132.299793 73.8532586,132.782916 74.3483395,133.240527 C74.6999186,133.564202 75.0610645,133.87592 75.4285883,134.162126 C75.902144,134.52965 76.4689756,134.766428 77.0110931,134.965736 C77.8202832,135.280642 78.7642055,135.439291 79.4522164,135.550904 C80.4025165,135.713539 81.1527115,135.79087 81.8319529,135.797248 L81.9156621,135.797248 C82.279997,135.797248 82.6443319,135.787682 83.0086668,135.778912 C83.4136604,135.766156 83.7684285,135.759778 84.1239938,135.759778 C84.5281902,135.759778 84.933184,135.769345 85.3413665,135.7821 C85.6339506,135.79087 85.9297235,135.797248 86.2254964,135.803626 C86.7173883,135.803626 87.156663,135.759778 87.5648455,135.71912 C88.0694932,135.660125 88.4832564,135.501475 88.8356328,135.357974 C90.0872864,134.87246 90.4516213,133.502018 90.7752973,132.296604 L90.825523,132.097296 C90.987361,131.499373 91.1276738,130.895868 91.2679865,130.291567 C91.5693397,128.968161 91.831629,127.607287 92.052462,126.240035 C92.2517705,124.985192 92.36418,123.755064 92.3857054,122.577554 C92.3976637,121.74604 92.2669182,120.893002 92.161683,120.207383 L92.1361718,120.036776 C92.0588407,119.519373 91.9902786,118.999577 91.9280943,118.478985 C91.8595322,117.299082 91.9121494,116.155852 92.0867431,114.982327 C92.2270557,114.390781 92.400853,113.789668 92.5722574,113.210082 C92.7938878,112.456698 93.0274764,111.677802 93.1797483,110.88057 C93.5066129,109.142606 93.718677,107.582423 93.8247086,106.109936 C93.8805142,105.358944 93.9363207,104.60875 93.9769796,103.855366 C93.9953157,103.509367 94.0112606,103.160976 94.0146748,102.814978 C94.0176384,102.54073 93.9865467,102.269672 93.9522657,102.017746 L93.9299429,101.812061 C93.8956619,101.544191 93.7928187,101.282699 93.718677,101.092958 L93.6437371,100.905608 C93.5656078,100.703909 93.4755212,100.506992 93.3790559,100.307685 C93.0553797,99.6324291 92.5945802,98.9779025 92.2581483,98.5051438 L92.0181819,98.1623342 L91.6163764,97.5771661 C91.2520419,97.0382373 90.8813292,96.5024979 90.5018469,95.9763247 L90.1375121,95.4684885 L89.7915135,94.9893521 L89.3713725,94.406576 C88.9041947,93.7217541 88.4210723,92.9739505 88.0694932,92.1456266 L88.0224565,92.0021255 L87.9762171,91.8626102 C87.8669964,91.5357394 87.7952455,91.1929352 87.7482088,90.8158446 C87.6955916,90.1868288 87.6485549,89.5171543 87.6955916,88.845088 C87.7513978,88.1219989 87.8359043,87.3965181 87.945125,86.6957515 C88.144433,85.4345311 88.3214184,84.1015597 88.50239,82.5070965 C88.6985089,80.7412284 88.7168453,79.0941478 88.5581962,77.6089053 C88.5271041,77.3131324 88.440206,77.0325068 88.3437409,76.7215865 L88.2592343,76.440961 C88.1595804,76.1013402 88.0471707,75.7649085 87.9291804,75.4316657 L87.8606185,75.2323577 C87.6270297,74.5626832 87.3495931,73.7718294 86.9852582,73.0774406 C86.6496236,72.4173329 86.2382521,71.760414 85.8771062,71.1776377 L85.4537762,70.4991935 C84.9268061,69.6334 84.2292284,68.4933587 83.4790334,67.4561604 C82.8938654,66.6374034 82.2959416,65.836983 81.694829,65.0365624 L81.5545163,64.8500101 C80.9039752,63.9905944 80.255826,63.1311787 79.6268102,62.2653852 L78.9977944,61.3932138 L78.6828879,60.9539392 C78.5090914,60.698825 78.3440645,60.437333 78.1758486,60.1758411 L78.122434,60.0977124 L78.0730057,60.0227725 L77.7549102,59.5340696 C77.475082,59.1043617 77.1880786,58.6898013 76.7958406,58.3318443 C76.8149741,57.8431413 76.8085963,57.3321158 76.7990295,56.8123208 L76.7806932,55.987186 C76.7583707,54.1312308 76.7368454,52.2840451 76.6898087,50.4408455 C76.6682835,49.4004582 76.552685,48.3481125 76.4625978,47.5006553 L76.4378836,47.2670663 L76.4163583,47.0558 C76.3477964,46.4235953 76.2824234,45.7913906 76.2353868,45.155997 C76.129355,43.6237177 75.9579502,41.5963578 75.5816568,39.521961 C75.3257454,38.0925247 74.9526411,36.675844 74.6193983,35.4241904 L74.4384266,34.7577047 C74.195271,33.8480635 73.9433458,33.0476429 73.6627202,32.3157842 C73.4729791,31.8143255 73.2983854,31.3072862 73.1277778,30.7994496 C73.0058014,30.4383037 72.9061474,30.1513003 72.8064935,29.8682831 C72.4333891,28.7999927 72.0842017,27.6886518 71.7916176,26.7383517 C71.4894668,25.7729042 71.1036067,24.8544933 70.63324,23.751922 L70.5862034,23.6395123 L70.4801716,23.3939649 C70.1875875,22.6900094 69.9101509,22.0299016 69.6239448,21.3729827 C69.4621068,21.0206063 69.290702,20.6690272 69.1161083,20.3198397 L69.0451546,20.1707574 L68.9734038,20.0208779 L68.9016529,19.8781735 L68.6521194,19.3830925 C68.3005402,18.6823259 67.9362054,17.9592368 67.5471564,17.3055069 C67.1764436,16.682869 66.7810168,16.0690006 66.3824009,15.4654963 L66.3289864,15.3841787 C65.952693,14.7990106 65.5102295,14.1229582 65.0613881,13.5218456 C64.837366,13.2228837 64.6037772,12.9302997 64.3669993,12.6345268 L64.2115392,12.4415967 L64.1334105,12.3443344 L64.0624568,12.2574362 L63.990706,12.1737268 L63.6231822,11.7280744 C63.1089678,11.1054365 62.6386011,10.5824525 62.190557,10.1304222 C61.6205364,9.56996832 60.9915206,9.0876432 60.483684,8.69779693 L59.9607001,8.2561306 L59.7829174,8.10943998 C59.279067,7.69248783 58.8581288,7.34011145 58.4475545,7.04433851 C57.7746909,6.56201337 57.0547907,6.11636088 56.2487896,5.69303088 C54.8129754,4.92370235 53.4425342,4.14799597 52.174936,3.4257041 C49.7370016,2.03373766 47.2703668,1.12409636 44.8475799,0.716710995 C44.0910071,0.594734554 43.2842087,0.535739413 42.3123833,0.535739413 C41.6116167,0.535739413 40.9084584,0.56364252 40.2076918,0.591545628" id="Fill-19" fill-rule="nonzero"></path>
            <path d="M14.9789777,90.675851 C14.9821666,90.6200448 14.9853555,90.5666303 14.9853555,90.5108241 L14.9694109,90.4948794 C14.9319411,90.4582067 14.8952684,90.4207369 14.8577985,90.3864559 C14.8976601,90.479732 14.9383189,90.579386 14.9789777,90.675851" id="Fill-22" fill-rule="nonzero"></path>
            <path d="M65.9597885,23.1607749 C66.4301551,24.0544716 66.8853743,24.9545462 67.3270407,25.8609985 C67.682606,26.5928571 67.9720011,27.34943 68.2613962,28.1091917 C68.2494377,28.0780997 68.236682,28.0470076 68.2239263,28.0127267 C68.501363,28.7724885 68.7660438,29.5354391 69.05225,30.288823 C69.3408478,31.0310457 69.6453903,31.7668904 69.9371771,32.5083159 C70.2098303,33.2664832 70.4816863,34.0294338 70.7184641,34.7987624 C70.9767672,35.6486114 71.2326785,36.4984603 71.5005483,37.3459175 C71.7460957,38.1184349 71.9581593,38.8997219 72.2411765,39.6562947 C72.5369495,40.4511348 72.8534504,41.2435829 73.1667624,42.0320451 C73.3070753,42.4218914 73.4378212,42.8125348 73.5430557,43.2127451 C73.664235,43.6647755 73.7702668,44.1191975 73.8762987,44.5768085 C74.0692286,45.3963626 74.2063525,46.2246862 74.390513,47.046632 C74.5954015,47.9530844 74.779562,48.8619285 74.9693032,49.7715698 C75.1470858,50.6405523 75.3057349,51.5183043 75.5552685,52.3689504 C75.8167604,53.2594582 76.0096905,54.1659106 76.2743714,55.0532294 C76.5573887,56.0027323 76.9217234,56.924332 77.3051919,57.8339733 C77.6631489,58.6814306 77.9868249,59.5440352 78.3575377,60.3843174 C78.7314393,61.2413414 79.1428108,62.0784346 79.5318599,62.9258919 C79.8308217,63.5668661 80.1202168,64.2150154 80.4159897,64.8567869 C80.7245184,65.5264614 81.0729087,66.1738135 81.4284739,66.8243546 C81.7585278,67.4286562 82.1013374,68.0265799 82.4154467,68.6436371 C82.5653263,68.9362212 82.7112196,69.2319941 82.8515324,69.5277671 C82.9830756,69.8115815 83.1010659,70.0945987 83.2158672,70.3823994 C83.3992305,70.9085723 83.5770132,71.4355424 83.7388512,71.9696876 C83.9190256,72.559639 83.9939653,73.1894519 84.0832553,73.7985369 C84.2355265,75.5652023 84.288941,77.3358537 84.2618352,79.1104914 C84.237121,81.0190638 83.9381591,82.9124891 83.6671004,84.7995363 C83.5642575,85.5194365 83.4311198,86.2385394 83.3123323,86.9544534 C83.3338576,86.8364631 83.3561801,86.7152839 83.3777053,86.5933075 C83.16325,87.8082885 82.9543753,89.0256612 82.6928833,90.2278865 C82.5621373,90.8289992 82.3843547,91.4237343 82.2288945,92.0184687 C82.075826,92.6004474 81.9953056,93.2015605 81.8334676,93.7843366 C81.6963438,94.2698509 81.8613707,94.7904436 82.2974564,95.0702716 C82.7893483,95.3851779 83.5427322,95.2600129 83.844883,94.7274619 C84.333586,93.864857 84.6827734,92.8970177 84.9721686,91.9467181 C85.1220481,91.4612038 85.255983,90.9812705 85.3739733,90.4861895 C85.4919636,90.0094451 85.5764701,89.5175531 85.6729352,89.035228 C85.8562985,88.1447203 86.0093669,87.2478347 86.1712049,86.354138 C86.364135,85.266714 86.5451066,84.1800873 86.7005667,83.0902717 C86.8281238,82.1742525 86.9501002,81.2622195 87.0338096,80.3430114 C87.0744684,79.8702531 87.0712795,79.3903196 87.0776573,78.916764 C87.0840352,78.4687199 87.0808463,78.0198785 87.0744684,77.5718343 C87.0521459,76.6000089 87.0090954,75.6257919 86.9373445,74.6539665 C86.8592158,73.6295238 86.7563729,72.6018923 86.5044477,71.6021638 C86.3920381,71.1501334 86.233389,70.7108588 86.0811177,70.2723814 C85.8937683,69.7366417 85.6856909,69.2072799 85.4736272,68.6834987 C85.4018764,68.5001355 85.3022224,68.3223528 85.2153242,68.1485563 C85.1061034,67.9301148 84.9968827,67.7092817 84.8852703,67.4940291 C84.6580593,67.0675102 84.430051,66.6441802 84.1876926,66.2264308 C83.7173259,65.4140518 83.2437704,64.5976866 82.8419656,63.7478376 C82.4250134,62.8692884 82.010453,61.9883474 81.5807452,61.1129871 C81.0952311,60.1196365 80.6152977,59.1294747 80.1887787,58.1050321 C79.7957435,57.154732 79.3508883,56.2243627 78.964231,55.2700764 C78.8279044,54.886608 78.6931722,54.5055313 78.5664124,54.1188739 C78.4260996,53.6859771 78.3264456,53.2403247 78.1988886,52.8050361 C77.9437744,51.9512011 77.6535821,51.110919 77.4391268,50.2475171 C77.2151047,49.3482398 77.0157968,48.4417874 76.8037332,47.538524 C76.5980474,46.6791083 76.3708364,45.8260705 76.1500033,44.9690464 C76.0407825,44.5425275 75.9100365,44.1223864 75.7856684,43.6990564 C75.660503,43.2717403 75.5552685,42.8332628 75.4022,42.4155135 C75.2188367,41.9140547 75.0314872,41.4189739 74.8106541,40.9334599 C74.6392493,40.5627471 74.4710334,40.1888455 74.3060065,39.8125522 C74.1162653,39.3796554 73.9233353,38.9467586 73.7391748,38.5106729 C73.56777,38.0961124 73.4154987,37.6759714 73.2377161,37.2645999 C73.0575417,36.8412699 72.882948,36.414751 72.7051653,35.991421 C72.5345577,35.5864272 72.3408305,35.1941893 72.170223,34.7923846 C71.7899434,33.8859322 71.3977054,32.9922355 70.9735782,32.1049167 C70.5693818,31.2574595 70.1396739,30.422758 69.7466387,29.5697201 C69.3575897,28.7198712 69.0060105,27.8508886 68.6448646,26.988284 C68.2956772,26.1567714 67.8938724,25.3435952 67.4832981,24.5463635 C67.1843363,23.9707623 66.8885633,23.3975528 66.5864125,22.8243432 C66.5186478,22.6943944 66.4078326,22.6409799 66.2954229,22.6409799 C66.0578479,22.6409799 65.8146923,22.8833383 65.9597885,23.1607749" id="Fill-24" fill-rule="nonzero"></path>
            <path d="M73.2792518,54.567237 C73.0735661,54.6764577 72.9866678,54.9475165 73.1014692,55.152405 C73.3820947,55.6698083 73.6714898,56.1800366 73.9393597,56.7038178 C74.1514232,57.1112032 74.3595007,57.5193858 74.5683754,57.9275683 C74.8553787,58.4848333 75.1511517,59.0389092 75.4126437,59.605741 C75.7116055,60.2634571 76.0169453,60.917187 76.3095293,61.5772948 C76.3214878,61.6059951 76.3350407,61.6338982 76.3477964,61.6625986 C76.442667,61.9735189 76.5502932,62.2812503 76.6642973,62.5865901 C76.8508496,63.0880487 77.0788578,63.5608071 77.3092578,64.0439295 C77.4057228,64.2400485 77.6480812,64.3397025 77.856956,64.2894768 C77.981324,64.2615737 78.0905448,64.1842423 78.1591067,64.0750215 C78.180632,64.042335 78.1957793,64.011243 78.2077378,63.9793537 C78.363198,63.9881233 78.5226443,63.9554367 78.6733211,63.8757136 C78.8813986,63.7633039 79.0432366,63.5735628 79.1149874,63.3495407 C79.1652131,63.140666 79.1715909,63.0346343 79.1404988,62.8225706 C79.1245542,62.7045803 79.1181764,62.5802122 79.0966511,62.4614247 L79.0217113,62.0317168 C78.972283,61.7486996 78.9188684,61.468074 78.8598733,61.1882458 C78.8040671,60.9139981 78.7442747,60.6397504 78.6884685,60.3631111 L78.6047592,59.9613063 C78.5856256,59.8704219 78.5672893,59.7771458 78.5449668,59.6870586 C78.5082941,59.4973175 78.4237876,59.3163458 78.3552257,59.1353743 C78.2778942,58.9926698 78.1718624,58.8770712 78.0347386,58.786984 C78.0227801,58.779809 78.0116188,58.7726338 77.9996604,58.766256 C77.9087759,58.4936028 77.8131082,58.2233413 77.7134542,57.9554715 C77.6018418,57.6596985 77.4679068,57.3734924 77.3275941,57.0896779 C77.2717879,56.9804572 77.2064149,56.8776143 77.134664,56.7779603 C77.0222544,56.6193112 76.9010752,56.498132 76.7575735,56.367386 C76.6204497,56.239829 76.4745563,56.1521335 76.2784373,56.1457557 C76.0257149,56.1369861 75.8112595,56.2613543 75.6677578,56.463851 C75.6334768,56.5076988 75.6055738,56.5539382 75.5872374,56.6041639 L75.5122977,56.762813 C75.4843945,56.8624669 75.4748278,56.9621209 75.4748278,57.0649637 C75.465261,57.2268017 75.5186755,57.3918287 75.5433897,57.5504778 C75.5696983,57.7226798 75.5928181,57.8964763 75.6215184,58.0686783 C75.5394035,57.9084348 75.4564915,57.7481912 75.3751738,57.5879477 C75.1567323,57.1709955 74.942277,56.7532462 74.7270244,56.336294 C74.4503851,55.8005544 74.1578011,55.2743815 73.8676087,54.7450196 C73.7878856,54.601518 73.6364117,54.5178087 73.4801542,54.5178087 C73.4123895,54.5178087 73.3438276,54.5337533 73.2792518,54.567237" id="Fill-26" fill-rule="nonzero"></path>
            <path d="M52.4500605,79.0314856 C52.3225035,79.0721445 52.2164717,79.1096144 52.104062,79.180568 C52.004408,79.2435493 51.9111319,79.3208808 51.814667,79.3926316 C51.7397271,79.4484378 51.6711652,79.5114191 51.5970227,79.5704142 C51.3722034,79.7473997 51.1513702,79.9283713 50.9273481,80.1093428 C50.8651641,80.1587712 50.80298,80.2081996 50.7399987,80.2568307 C50.5980914,80.1260847 50.4115393,80.0495505 50.2106369,80.0344031 C49.9961816,80.0184584 49.7904958,80.0280252 49.5760405,80.0750619 C49.3791243,80.1181124 49.1893832,80.2113885 49.0028309,80.2799504 C48.7469196,80.3764155 48.5013723,80.495203 48.2582166,80.6163822 C47.9751994,80.7535061 47.6945738,80.8970077 47.4171372,81.04609 C47.1277421,81.2055364 46.8319692,81.3920885 46.6047582,81.6320553 C46.2029534,82.0490075 45.9884981,82.6939678 46.2555707,83.241666 C46.2858655,83.3022555 46.3249298,83.3580617 46.3703721,83.4082874 C46.2731098,83.4728632 46.1758475,83.5390333 46.0817742,83.6091898 C45.9008027,83.7463136 45.8386185,84.0325198 45.8888441,84.2413944 C45.9597978,84.5467341 46.2093313,84.7085722 46.5019153,84.749231 C46.7227484,84.7771341 46.938001,84.680669 47.1213643,84.5714484 C47.3366168,84.4470802 47.5359247,84.2948089 47.7352327,84.1481184 C47.9377294,83.9982388 48.1338484,83.8332118 48.3299675,83.6713738 C48.6289293,83.4258265 48.9215133,83.1699151 49.2109084,82.9116121 C49.4700087,82.6875899 49.718745,82.4540011 49.9714674,82.2236012 C50.0990245,82.1048137 50.2265815,81.9868233 50.3573274,81.8688331 C50.4195116,81.8090407 50.4848846,81.7532345 50.5470686,81.6974283 C50.6012803,81.6495944 50.651506,81.6097328 50.7001371,81.5603044 C50.8898782,81.4080331 51.0796194,81.2557619 51.2701577,81.1026935 C51.3905397,81.0054312 51.5109217,80.9073718 51.6321009,80.8069205 C51.5938337,80.9025884 51.5563639,80.9982561 51.518894,81.0931267 C51.3474892,81.5355903 51.1673148,81.9740676 50.9895322,82.4133422 C50.8492194,82.7681103 50.7312291,83.1332425 50.6060637,83.4943884 C50.4043641,84.0827453 50.207448,84.6711022 50.0272736,85.2658371 C49.9682784,85.4683339 50.0767019,85.6899643 50.2791988,85.7521484 C50.4785067,85.8175214 50.7033261,85.7019228 50.7655101,85.5026149 C50.930537,84.9549167 51.1075225,84.4191771 51.2948719,83.8802485 C51.4224289,83.5127247 51.5348386,83.1356341 51.6839209,82.7776771 C52.0267305,81.9517451 52.3543927,81.1170437 52.7266999,80.3022729 C52.788884,80.1723241 52.8502708,80.0431727 52.9044826,79.910035 C52.9610861,79.7761 52.9794223,79.6294094 53.0009476,79.4890966 C53.0447953,79.2451437 52.788884,79.015541 52.5529034,79.015541 C52.5178252,79.015541 52.4835443,79.0203244 52.4500605,79.0314856" id="Fill-28" fill-rule="nonzero"></path>
            <path d="M73.9230961,64.2834976 C73.8760595,65.1931388 73.8792484,66.101983 73.9047598,67.0116242 C73.9294739,67.8893763 73.9509992,68.7711145 74.0012248,69.6488665 C74.0506532,70.521038 74.088123,71.3900204 74.1662518,72.2590029 C74.2467721,73.1837916 74.321712,74.1117693 74.4181769,75.036558 C74.6884385,77.6634362 74.9587,80.2927061 75.24092,82.9187871 C75.2775927,83.324578 75.316657,83.7303689 75.3525325,84.1361598 C75.3868134,84.5164394 75.4306611,84.8935299 75.4521864,85.2730122 C75.4792923,85.7720792 75.5063982,86.2727407 75.533504,86.7718076 C75.447403,86.4728458 75.38203,86.1683033 75.3054958,85.8709359 C75.1029989,85.0768931 74.9036911,84.2860394 74.710761,83.4919967 C74.2659057,81.644811 73.8074975,79.7984225 73.341117,77.9544257 C72.4689456,74.5071961 71.5377791,71.0727222 70.5755205,67.6470179 C70.5213087,67.4588712 70.4647053,67.2707246 70.4160741,67.0809834 C70.4168714,67.0411218 70.4104935,67.0012603 70.3977378,66.9613987 C70.3881711,66.9271177 70.3762125,66.8928367 70.3634568,66.8585558 C70.2733696,66.6098195 70.0613061,66.4352258 69.7846667,66.4974098 C69.5255664,66.5595939 69.3669173,66.8218832 69.4227235,67.0769973 C69.510419,67.4508988 69.6220314,67.8208144 69.7280632,68.1883382 C69.8962791,68.7926398 70.064495,69.3937524 70.2327109,69.998054 C70.3945489,70.5776414 70.5476173,71.1564316 70.6966996,71.7360189 C71.1423521,73.4580393 71.6127188,75.1736817 72.0232931,76.9052688 C72.4442314,78.6862844 72.8827088,80.4680971 73.2661773,82.2586794 C73.4495405,83.1340397 73.6400789,84.0086028 73.8234421,84.8839632 C74.0068054,85.7649041 74.1718324,86.6530201 74.383896,87.5275832 C74.511453,88.0505672 74.6366184,88.5711594 74.7793229,89.0909545 C74.8478848,89.340488 74.9164468,89.5892242 74.9913865,89.8387578 C75.0288564,89.9726927 75.068718,90.1034387 75.1029989,90.2373736 C75.1500356,90.4055894 75.2002612,90.5706164 75.2871595,90.7228876 C75.3900023,90.9070482 75.5518403,91.0346052 75.7232452,91.1494065 C76.1968007,91.4675022 76.840964,91.2028209 77.0155577,90.6822289 C77.1056448,90.417548 77.2021098,90.1624338 77.2555244,89.8881861 C77.3177084,89.570888 77.3583673,89.2527925 77.3862703,88.9291165 C77.4325098,88.3965657 77.4325098,87.8544482 77.4109845,87.3195058 C77.3926482,86.8052914 77.3703257,86.2886853 77.3488005,85.7744708 C77.3145195,84.8775853 77.2276212,83.9838886 77.1558704,83.087003 C77.0809306,82.1343112 76.9717099,81.1808222 76.8752448,80.2281303 C76.7883466,79.3559589 76.707029,78.4837875 76.6233196,77.6124133 C76.5156934,76.5154227 76.4056754,75.4176346 76.2956575,74.3206439 C76.2215149,73.4867396 76.1497641,72.6536326 76.0748243,71.8229172 C75.9998845,70.9786488 75.9719814,70.1287999 75.922553,69.2821399 C75.8292769,67.64064 75.8005766,65.9959512 75.7073005,64.3552484 C75.695342,64.1089039 75.6419275,63.9008264 75.4705227,63.713477 C75.3118736,63.5388832 75.0846626,63.4368376 74.8510737,63.4272708 C74.8391153,63.4264736 74.8287512,63.4264736 74.8167928,63.4264736 C74.3400482,63.4264736 73.947013,63.8091448 73.9230961,64.2834976" id="Fill-30" fill-rule="nonzero"></path>
            <path d="M1.3801193,43.9493871 C1.36736359,44.2977774 1.65436698,44.6342091 2.01551291,44.6342091 C2.37346992,44.6342091 2.68518749,44.3695282 2.70033488,43.9988155 C2.7130906,43.6504252 2.42608721,43.3139935 2.06494127,43.3139935 C1.70698426,43.3139935 1.39606393,43.5786744 1.3801193,43.9493871" id="Fill-32" fill-rule="nonzero"></path>
            <path d="M1.25359864,49.3494356 C1.20417027,50.8904844 1.16988932,52.4506667 1.26316541,53.9925127 C1.30382422,54.7243713 1.38753355,55.4530411 1.4592844,56.1817108 C1.52784631,56.8513854 1.65460615,57.5146821 1.73353208,58.1811678 C1.7893383,58.8173586 1.86587253,59.4431855 1.97668773,60.071404 C2.08830016,60.690853 2.21904615,61.3047213 2.32826689,61.9241702 C2.53395265,63.1136399 2.71731592,64.3094874 2.91981276,65.4989569 C3.12549852,66.7171268 3.38061265,67.9217439 3.77603954,69.0960661 C4.21531418,70.4099039 4.73271751,71.6966357 5.22460942,72.995326 C5.64793942,74.1162337 6.14302027,75.225183 6.74413293,76.264773 C7.36358191,77.3298745 8.03325649,78.360695 8.69336428,79.3978933 C9.07045485,79.9926281 9.44435647,80.5841741 9.85572801,81.1510057 C10.2543439,81.6995011 10.6808628,82.2097293 11.1320958,82.7143769 C11.5123754,83.1377069 11.9014244,83.5586453 12.2840956,83.9851642 C12.6922782,84.4363973 13.090894,84.903575 13.5301687,85.326905 C14.1185256,85.8969256 14.7387718,86.4326653 15.3358983,86.9963081 C15.8780158,87.5073335 16.3451935,88.0988794 16.8466522,88.6497665 C17.379203,89.2389207 17.9364679,89.8057524 18.4443044,90.4188235 C18.6770961,90.7034352 18.9059016,90.9928302 19.1299237,91.2870083 C19.6832024,92.228539 20.1168964,93.248199 20.6239358,94.2120515 C20.7491011,94.4456402 20.8702803,94.6760404 20.9882707,94.909629 C21.0321183,94.9933388 21.0759661,95.0746565 21.1222055,95.1583653 C21.1413391,95.1926464 21.1596754,95.2269274 21.1819979,95.2612085 C21.3621722,95.5761148 21.4897293,95.7036719 21.7671659,95.9221138 C21.8851562,96.0153898 22.025469,96.0839519 22.1721596,96.1150436 C22.3092835,96.136569 22.4456101,96.1612829 22.5827339,96.1867942 C22.8633594,96.195564 23.1280403,96.136569 23.3767766,96.0026342 C23.5139005,95.9436383 23.6414575,95.8559437 23.7387197,95.7443307 C23.987456,95.4549356 24.0185481,95.3983327 24.1771972,95.0435639 C24.2617037,94.8594039 24.2585148,94.6321931 24.2864179,94.4296961 C24.2991736,94.3276503 24.314321,94.2248071 24.3270767,94.1187755 C24.362155,93.8580809 24.3581687,93.5973864 24.3326573,93.3390829 L24.3581687,93.3024108 C24.5805963,92.9938813 24.7240981,92.6112102 24.8803554,92.2660094 C25.1354696,91.7175135 25.3730446,91.1714105 25.5380716,90.5806615 C25.7501352,89.8280749 25.8059414,89.0420045 25.9167566,88.269487 C25.9916963,87.890802 26.0738112,87.5145087 26.1304147,87.130243 C26.2077462,86.5976922 26.1925987,86.0962335 26.1272258,85.5636828 C26.0618528,85.0534545 25.8250749,84.5703322 25.594675,84.1190991 C25.3953671,83.7300501 25.1681561,83.3529595 24.9281894,82.9854357 C23.9021522,81.4268478 22.7262356,79.9806697 21.5032822,78.5743531 C21.440301,78.4930355 21.3741307,78.4133122 21.306366,78.3359808 C20.8455662,77.8098079 20.029201,77.6910204 19.4193187,78.0178854 C19.1793521,78.1462397 18.986422,78.3264141 18.8365424,78.556814 C18.5933868,78.9370935 18.5718615,79.3229535 18.6308567,79.7558503 C18.6747044,80.0827153 18.8580677,80.3633408 19.0454171,80.6248328 C19.244725,80.9022694 19.440844,81.1820978 19.6433408,81.4563455 C19.668055,81.4898292 19.6927692,81.5233129 19.7174834,81.5567966 C19.8003954,81.736971 19.8777269,81.9187397 19.9518695,82.1029002 C20.1400162,82.6761098 20.3170016,83.2429415 20.4820285,83.8217317 C20.235684,83.7651283 19.9869477,83.7651283 19.7366169,83.8233262 C19.4559914,83.8886992 19.2072551,84.022634 18.9920026,84.2187531 C18.7807362,84.4148721 18.6276678,84.6548388 18.5407695,84.9282892 C18.5280138,85.0024317 18.5144608,85.0765743 18.5017051,85.1499196 C18.225863,84.8653079 17.943643,84.587074 17.6478701,84.3223931 C16.8514356,83.3864432 16.0844988,82.4321569 15.3358983,81.4595344 C14.8224811,80.7898597 14.2899304,80.1345354 13.7900662,79.4560912 C12.4244083,77.3203077 11.2189941,75.0665339 10.1762151,72.7585483 C9.94262629,72.2411449 9.74969623,71.6966357 9.55038826,71.164085 C9.32556898,70.575728 9.10473581,69.9833849 8.88071372,69.391839 C8.4039692,68.1401854 7.92802191,66.8909234 7.42656321,65.6488365 C7.31096462,65.3618331 7.18659649,65.0756269 7.06222835,64.7926098 C6.78798067,64.1659856 5.98437117,63.8670238 5.35216649,64.0137144 C5.08828282,64.0758985 4.85070779,64.2098334 4.65777773,64.3892105 L4.63625248,64.3094874 C4.29344287,63.0697921 3.97853637,61.8213274 3.65167141,60.5784433 C3.49621123,59.9837085 3.33437321,59.3921626 3.20681615,58.7910499 C3.08165078,58.199504 2.99475253,57.5983914 2.87915394,57.0068455 C2.76754151,56.4463917 2.64317338,55.8947074 2.56504468,55.328673 C2.48771321,54.7554634 2.41038175,54.1790649 2.34181982,53.6026664 C2.24136864,52.197147 2.23180185,50.7948166 2.27246067,49.3892973 C2.28202745,49.1094689 2.06358598,48.8695022 1.78375767,48.8567465 L1.76621858,48.8567465 C1.49675428,48.8567465 1.26316541,49.0743907 1.25359864,49.3494356 Z" id="Fill-34" fill-rule="nonzero"></path>
            <path d="M44.6645355,85.2470224 C44.6366324,85.2805061 44.6095265,85.3139899 44.5816235,85.3474736 C44.6071349,85.3115982 44.6350379,85.2781145 44.6645355,85.2470224 M43.5045635,83.7777245 C43.031008,84.123723 42.8412668,84.7742641 42.7041429,85.3131927 C42.6634841,85.4877864 42.6204337,85.6623801 42.5797748,85.8361766 C42.4952683,86.2068893 42.4554067,86.54651 42.5048351,86.9259923 C42.5829637,87.5334828 42.7224793,88.1345954 42.8596031,88.7293302 C42.9847684,89.2746366 43.0844224,89.8255238 43.2366936,90.3644523 C43.4017206,90.9528093 43.6879268,91.4670236 43.9621745,92.0059524 C44.1678603,92.4133374 44.4142048,92.8310869 44.7530283,93.1388182 C44.989806,93.3572601 45.217017,93.5438121 45.4976426,93.6936919 C45.7033284,93.8021155 45.9114058,93.9081471 46.1170916,94.0205566 C46.628117,94.2979934 47.1359537,94.5371625 47.708366,94.6559498 C48.224972,94.7643734 48.7487532,94.8217746 49.2685483,94.8999029 C49.4120499,94.9301982 49.5515655,94.9676677 49.6886894,95.0155017 C49.7054312,95.0258653 49.7237675,95.0362298 49.7405093,95.0465934 C49.9334394,95.3622971 50.1104249,95.6955405 50.255521,96.0375528 C50.3703224,96.3747819 50.472368,96.7175915 50.6015195,97.0540233 C50.7171181,97.3497963 50.9100482,97.5921548 51.1061672,97.8480653 C51.2743831,98.0003371 51.4521657,98.1438382 51.635529,98.2777731 C51.8412147,98.4332334 52.189605,98.5392659 52.4487052,98.6078271 C52.8903716,98.7258179 53.3703051,98.7569096 53.827916,98.776043 C54.6100003,98.8103241 55.3386699,98.2961101 55.5754477,97.5491039 C55.8712207,96.6267066 55.3418588,95.6365455 54.4322175,95.3343948 C54.3022688,95.2913439 54.1723201,95.248293 54.0439658,95.2036484 C53.9020585,94.7396595 53.7673264,94.2748733 53.5568572,93.8308152 C53.2180338,93.1077265 52.7317225,92.4045685 52.0811815,91.9373903 C51.4489768,91.4821712 50.7171181,91.2860521 49.962937,91.1648728 C49.3131932,91.0636245 48.6538827,91.0851498 48.0009499,91.0157905 C47.6198732,90.9153394 47.2379993,90.7774183 46.8720699,90.6203637 C46.8074941,90.5844882 46.7437156,90.5470184 46.6823288,90.5071568 C46.4319981,90.2512454 46.2127593,89.964242 45.9998985,89.6764414 C45.4737256,88.8784125 45.0846766,87.9934854 44.741867,87.1029776 C44.6549688,86.8478636 44.5752456,86.59833 44.5210338,86.3376353 C44.5258172,86.1239772 44.5465452,85.9143053 44.5712594,85.7022417 C44.6103238,85.5300396 44.655766,85.36581 44.7155584,85.1991885 C44.7354892,85.1832439 44.7546227,85.1680965 44.7753508,85.1545436 C45.1859251,84.8492038 45.1460635,84.1731514 44.827968,83.8279501 C44.6597522,83.6469785 44.4229743,83.5377578 44.177427,83.5289882 C44.1662658,83.528191 44.1543073,83.528191 44.1439433,83.528191 C43.8896264,83.528191 43.7046686,83.6286422 43.5045635,83.7777245" id="Fill-36" fill-rule="nonzero"></path>
            <path d="M33.3354753,61.1558782 C33.2174851,61.8757783 33.1258034,62.5948812 33.0325273,63.3147814 C33.034919,63.3004312 33.0373107,63.2852839 33.0397024,63.2709337 C33.034919,63.3012285 33.0301356,63.3323205 33.0261495,63.3634125 L33.0237577,63.3793572 C33.024555,63.3777627 33.024555,63.3753711 33.024555,63.3737766 C33.0062186,63.5045225 32.9886796,63.6344713 32.9615737,63.7628256 C32.9400485,63.8720464 32.8962007,63.9804698 32.8930118,64.0928795 C32.8946063,64.0920823 32.8954034,64.0904878 32.8969979,64.0896906 C32.8969979,64.287404 33.0508636,64.4723618 33.2732913,64.4723618 C33.3011943,64.473159 33.327503,64.4707673 33.3522172,64.4667811 C33.364973,64.4986704 33.3793231,64.5297625 33.3936733,64.5608544 C33.2374158,64.5393292 33.0803612,64.517804 32.9241038,64.5098316 C32.7590768,64.5010621 32.587672,64.5162095 32.4322119,64.569624 C32.2887102,64.6158635 32.1515863,64.6939921 32.0519324,64.8087935 C31.9435089,64.9363506 31.874947,65.0766634 31.8279103,65.2385014 C31.7657263,65.4665097 31.7721041,65.7622825 31.8964722,65.97036 C32.1268722,66.3538284 32.6091973,66.4750077 33.0269467,66.5340028 C33.902307,66.6559792 34.7864369,66.7213522 35.6705668,66.6934491 C36.518024,66.6647487 37.3774397,66.5906063 38.2153302,66.4375378 C38.4664581,66.39369 38.7191806,66.3506395 38.9703086,66.3012111 C39.1034463,66.2820776 39.2365839,66.2589578 39.3673299,66.231852 C39.6511443,66.1728568 39.9341616,66.1202396 40.2115982,66.0325441 C40.5663663,65.9209316 40.9243233,65.7311905 41.1921931,65.4689013 C41.2982249,65.3604778 41.4042567,65.2042204 41.425782,65.0519492 C41.4417267,64.9363506 41.4449156,64.8590191 41.4130263,64.7402316 C41.3851232,64.6373888 41.3133724,64.5257763 41.232852,64.4572144 C41.2057461,64.4340946 41.1778429,64.4141639 41.1483454,64.3958275 C41.1220367,64.3416158 41.0869586,64.2929846 41.0462997,64.2579064 C40.9586043,64.1829667 40.9147565,64.1582525 40.809522,64.1175937 C40.7497296,64.0928795 40.6875455,64.0928795 40.6253615,64.0896906 C40.54803,64.0801238 40.4571456,64.1112159 40.3766252,64.1271605 C40.3295885,64.13593 40.2817546,64.1423078 40.2331234,64.1502801 C39.8464661,64.1917363 39.4614033,64.2156532 39.0747459,64.2419618 C38.5764761,64.2730539 38.0782063,64.3105237 37.5831255,64.3479936 C37.1438509,64.3822746 36.7045763,64.3854635 36.2653016,64.3918414 C35.7518844,64.3950303 35.2328867,64.4149611 34.7210639,64.3687216 C34.5528481,64.3432102 34.3878211,64.3073348 34.2259831,64.2547175 C34.211633,64.2467452 34.19808,64.2387729 34.184527,64.2300034 C34.153435,64.2021002 34.1247347,64.1733999 34.098426,64.1423078 C34.0649423,64.0952712 34.0354447,64.0474373 34.0091361,63.9964144 C33.9796385,63.9111107 33.9589105,63.8274014 33.9429658,63.7381114 C33.9278185,63.5667066 33.9310074,63.3960991 33.9421687,63.2246943 C33.9828274,63.0915566 34.0218918,62.9592161 34.0609561,62.8252812 C34.1829325,62.3963706 34.2825865,61.9602849 34.3288259,61.5178213 C34.3535401,61.3791031 34.3662958,61.2395875 34.2475083,61.127975 C34.1940938,61.0793439 34.1303153,61.0474546 34.0641451,61.0354962 C34.0099333,60.9573675 33.9302101,60.8983723 33.836934,60.8728609 C33.8050448,60.8640914 33.7707638,60.859308 33.7356856,60.859308 C33.5579029,60.859308 33.3641757,60.9741093 33.3354753,61.1558782" id="Fill-38" fill-rule="nonzero"></path>
            <path d="M31.3739667,77.645339 C31.3739667,77.645339 31.3739667,77.645339 31.3747638,77.645339 C31.3699804,77.6118553 31.3651971,77.5775743 31.3604137,77.5424961 C31.3651971,77.5759798 31.3691833,77.611058 31.3739667,77.645339" id="Fill-42" fill-rule="nonzero"></path>
            <path d="M26.7527337,36.652468 C24.7070373,36.752122 22.6669215,37.1786409 20.8013995,38.0412455 C19.7554316,38.5243679 18.7867952,39.1908536 17.8867206,39.9099565 C17.0304938,40.5923868 16.2484096,41.3951991 15.6225828,42.2984625 C15.451178,42.547996 15.5763434,42.9155198 15.8218907,43.0614132 C16.0993273,43.2232512 16.4134366,43.1084498 16.5848414,42.8589164 C16.6542005,42.7608569 16.721168,42.6627974 16.7921216,42.5663323 C17.3812757,41.8599851 18.0358029,41.2214026 18.7565004,40.6489903 C19.5999715,40.0056243 20.5112072,39.4491566 21.4814381,39.0162598 C22.6103181,38.5578517 23.8037738,38.2676593 25.0107825,38.0938629 C25.6645125,38.0141397 26.3198369,37.9750754 26.9767557,37.9607252 C27.7309369,37.9423888 28.4787402,37.9543474 29.2265434,38.0460289 C29.8244672,38.1337245 30.4144187,38.2652677 31.0035728,38.3999998 C31.5456903,38.521179 32.08143,38.6766392 32.6235475,38.7858599 C32.8380028,38.8297077 33.0373107,38.8201409 33.2302408,38.7077312 C33.4048345,38.6048884 33.5355805,38.4342807 33.5913867,38.2373645 C33.7069853,37.8140345 33.4486822,37.4002713 33.0404996,37.2727143 C32.8754727,37.2192998 32.700879,37.1945855 32.5262853,37.1666825 C32.339733,37.1355904 32.1499919,37.1044984 31.9594535,37.0734064 C31.5488792,37.0016555 31.1343188,36.9299046 30.7237445,36.8581538 C30.1505349,36.7584998 29.5709476,36.6835601 28.9921574,36.6373207 C28.7099374,36.6142009 28.4277174,36.6062286 28.1462946,36.6062286 C27.6815086,36.6062286 27.218317,36.6293484 26.7527337,36.652468" id="Fill-52" fill-rule="nonzero"></path>
            <path d="M47.3638024,35.9546512 C46.8344406,35.9729875 46.3082677,36.0040796 45.7789059,36.0415494 C45.2431662,36.0790194 44.7106155,36.1754844 44.1844426,36.2783273 C43.7045092,36.3716033 43.2373314,36.5119161 42.7637758,36.6394731 C41.5495921,36.9607575 40.3975924,37.4964972 39.2479843,38.0003476 C39.0614321,38.0848541 38.9179305,38.3088762 38.8685021,38.4986174 C38.8095069,38.7138699 38.83741,38.9466616 38.9490224,39.1371999 C39.0582432,39.3245494 39.2392147,39.460876 39.4472923,39.5198711 C39.6808811,39.5828524 39.8714195,39.5294379 40.0858747,39.4361617 C40.4573848,39.2711348 40.8312864,39.1116885 41.201999,38.9522422 C42.0462674,38.6054464 42.9128581,38.3399683 43.7977853,38.1287019 C43.9970932,38.0816652 44.1964011,38.0162922 44.3957091,37.9852002 C44.5982058,37.9557027 44.8015,37.9246106 45.004794,37.8927213 C45.5333586,37.8512653 46.0563425,37.822565 46.588096,37.8042286 C47.1365914,37.7890812 47.6795062,37.8273484 48.2248126,37.8664127 C48.8378837,37.9604861 49.444577,38.0633288 50.0448924,38.2307475 C50.6755026,38.4085302 51.2845877,38.6285661 51.8944698,38.862155 C52.5569693,39.1643058 53.2019297,39.4999403 53.8819683,39.7598378 C54.2678284,39.9097174 54.7381951,39.6665618 54.9343141,39.3301299 C55.1583362,38.9466616 55.06506,38.5233316 54.7884207,38.1996555 C54.4392332,37.7922701 53.9003046,37.5738287 53.4243573,37.3466176 C52.9165208,37.1066509 52.387159,36.9169098 51.8577971,36.7295603 C50.8891607,36.384359 49.8798655,36.1786733 48.8618007,36.060683 C48.6345896,36.0319827 48.4073786,35.99531 48.1769787,35.9857432 C47.9513621,35.9753793 47.7201649,35.9514622 47.4937512,35.9514622 C47.4499034,35.9514622 47.4068529,35.9522595 47.3638024,35.9546512" id="Fill-54" fill-rule="nonzero"></path>
            <path d="M36.2286871,80.7385877 C39.4589608,80.7385877 43.7493527,73.697639 43.7493527,70.4673654 C43.7493527,67.2370918 39.7383031,69.5243109 36.5080295,69.5243109 C33.2777558,69.5243109 29.411081,68.0374913 29.411081,71.2677649 C29.411081,74.4980385 32.9984135,80.7385877 36.2286871,80.7385877 Z" id="Oval"></path>
        </g>
    </g>
</svg>