<svg xmlns="http://www.w3.org/2000/svg" viewBox="0 0 496.8 597.6"><path d="M245,182.5c.4-.1.8.4.2.5s-.5,0-.4-.2a.1.1,0,0,1-.1-.1h.1c-.1-.1.1-.2.2-.2h0m-.7-2c-6.7,2.7,4.8,6.7,3.9,1.4-.6-1.4-2.5-1.8-3.9-1.4"/><path d="M248.6,182.7a11.2,11.2,0,0,1-4,1h.2a4,4,0,0,1-3-.5c-1.1-.4-1.1,1.1-.2,1.3s9.9.2,7-1.8"/><path d="M269.2,183.2c.1.1.2.3.1.4h0c-.7.3-.9-.5-.1-.5m-.8-1.8c-6.9,1.5,1.7,7,3.3,2.2.1-1.6-1.9-2.4-3.3-2.2"/><path d="M264.7,184.2c-.7,2.9,11.6,1.9,8.2-.1-2.4.8-5.1,1.3-7.4-.1a.8.8,0,0,0-.8.2"/><path d="M253.6,177.9a33.2,33.2,0,0,1-1.5,17.1,1.1,1.1,0,0,0,.2,1.4,1,1,0,0,0,1.4-.3,1,1,0,0,0,.2-.7c.8-3.5,3.7-15.7-.3-17.5"/><path d="M267.6,209l1.7-1.2a3.4,3.4,0,0,0,.6,1.2m10.6-28.8a30.2,30.2,0,0,0,.3-6h.8c.9,3-.8,6.1-1.4,8.9.1-.7.2-2,.3-2.9Zm-49.3,4c-3.1-1.1-2.7-9.7.2-10.7-.3,3.8.2,7.3.3,10.8h-.5Zm14.3-21.1a61.3,61.3,0,0,0,12.2-6.3c15,14.7,22,6,21.1,16.1a.8.8,0,0,0-.1,1.1l.2.2c-.2,11.4-3.5,23.8-11.9,32h.2c-1,.5-1.8,1.3-2.8,1.9h0a15,15,0,0,1-13.3,1.9c-6.9-1.6-11.4-7.5-14.8-13.4-3.1-9.8-3.2-20.4-2.2-30.4M260,127.8c-21.7-1.8-38.3,15.8-39.2,37a170.2,170.2,0,0,0,.3,20.2,63.6,63.6,0,0,0,6.2,17.6c4.1,3.9,6.7,9.8,11.3,12.9a2.2,2.2,0,0,1,1.4-.2c.9-2.7,1.7-5.6,1.3-8.5,4.7,4.9,13.1,7.4,19.5,5.3a6.2,6.2,0,0,0,2.3-.7,1.6,1.6,0,0,0,1,1.7,9.2,9.2,0,0,0,4.4,5.3c9.6,4,.7,16.7,7.1,23.3,2.4,3.3,7.4,3.2,9.6,6.7.6,2.1.5,3.9,2.1,5.5,4.5,2,7.1,7.4,12.3,7.9s10.3,2,11.2-3.1,2.1-9.3,1.1-13.9,2.7-10.9,2-16.4c-1.1-3.8-4.3-6.2-5.8-9.7s1.6-10.4.2-15.3c-2.1-6.9-7.4-12.4-11.4-18.3,1-23.2-8.7-57.5-36.9-57.3Z"/><path d="M235.5,217.2h0V217a.4.4,0,0,0,.1.3"/><path d="M286.2,150.2c.8,1.5,1.5,3.2,2.2,4.9h-.1c4.2,9.6,5.9,19.8,9.1,29.6s9.1,18.4,5.9,28.9v-.2c0,2.6-2.3,5.9-1,8.3s2.1-1.9,2.6-3.1c4.8-15.1.7-23.1-5.9-36.4-2.4-8.8-4.9-17.4-9.3-25.6-.7-1.1-2.8-8.2-3.6-6.3"/><path d="M293.4,181.4c-.1,2.1,2.4,4.6,3,6.9.4.7.8,3.6,1.9,2.4s.5-4.5-.2-5.2-3-4.1-2.4-.7c-.8-1-1-3.2-2.3-3.4"/><path d="M272.6,205.7a6.1,6.1,0,0,0-1.6,1.2c-1.4-.7-5.4,1.2-4.3,3.2a.6.6,0,0,0-.3.9c0,.2.2.3.4.4,2-.6,3.4-2.7,5-3.9-.1.8-2.6,5.7-.7,4.7-.1-1.5,3.1-6.1,1.5-6.5"/><path d="M294,191c-.2,7.5,1.2,14.9,1.6,22.4-4.6-20-8.9-30.9-1.7-1.9.6,1.4.8,8.2,3.2,5.7,1.2-6-.7-12.5-.9-18.7-.5-1.4.6-11-2.2-7.5"/><path d="M222,170.8c-.1.9,1.3.9,1.3.1s-1.3-.9-1.3-.1"/><path d="M221.9,176.2c-.1,11,1.8,22.6,8.5,31.6,3.3,4.6,8.5,7.6,10.6,13,.9,3,4.2,2.2,3.7-.9,3.4-5.2,1.5-10.7-2.8-14.7a1.6,1.6,0,0,0-2.2-.4,1.4,1.4,0,0,0-.6,1.6c.6,1.4,1.6,2.5,1.8,4.1a1.6,1.6,0,0,0-1.9,1.3c-7.1-4.8-10.8-24.2-13.8-20.6a78.4,78.4,0,0,1-2.3-10.7C222.6,179.6,223.5,174.2,221.9,176.2Z"/><path d="M265,211.9h0m-1.2-1.5c-2.1,2.6-.5,6.9,1.3,9.3s4.6.8,5.5,2.9c.6,5,8.8,2,3.6-.8-1.2-6.8-9.8-1.3-9.2-9.9,1-.8-.3-2.3-1.2-1.5"/><path d="M259.5,165.6h.4l-.5-.2h.1"/><path d="M253.7,192.5l-.3,2.1h0c0,.2-.1.5-.1.7h0a.5.5,0,0,0,.5.4h0c-.9-.3-2,.4-1.5,1.4s10.6.9,9.1-1.6c-1.9-.9-5.2.9-7-.4s.9-2.3.1-2.9a.5.5,0,0,0-.7,0c-.1,0-.1,0-.1.1"/><path d="M246.8,172.4c-1.6-1-14.7,4.7-10.5,5.2a15.8,15.8,0,0,1,9-3.8h-.1a14.3,14.3,0,0,1,6.8.7.8.8,0,0,0,.8-.3c.1-2.3-4.3-1.6-6-1.8"/><path d="M265.4,172.8c-1.7.5-5.8.6-5.8,2.8,6.1-.7,9.2-2.9,15.6,1.5,5.4-1.3-8-5.7-9.8-4.3"/><path d="M253.8,202.4c5.5.4,3.2,4.1.1.4" stroke="#000" stroke-miterlimit="3.97" stroke-width="0.99"/></svg>