<svg width="500" height="600" viewBox="0 0 500 600" fill="none" xmlns="http://www.w3.org/2000/svg">
<path fill-rule="evenodd" clip-rule="evenodd" d="M243.729 168.79L243.732 168.81L243.729 168.79ZM238.582 167.625L238.655 167.634L238.582 167.625ZM237.707 164.402C237.12 164.433 236.541 164.483 235.957 164.565C235.43 164.635 234.901 164.714 234.38 164.835C233.872 164.957 233.35 165.072 232.858 165.258C231.801 165.66 230.813 166.211 229.841 166.782C228.907 167.327 228.011 167.932 227.123 168.55C227.093 168.57 227.063 168.594 227.028 168.614C226.82 168.764 226.66 168.928 226.592 169.179C226.558 169.301 226.549 169.428 226.566 169.554C226.582 169.679 226.623 169.8 226.687 169.909C226.932 170.324 227.563 170.54 227.989 170.247C228.677 169.765 229.386 169.315 230.114 168.898C230.785 168.525 231.474 168.186 232.178 167.882C232.69 167.69 233.21 167.519 233.736 167.371C234.393 167.353 235.049 167.349 235.706 167.361C236.616 167.375 237.528 167.498 238.433 167.607C239.076 167.726 239.704 167.875 240.312 168.107C241.322 168.582 242.148 169.407 243.211 169.781C243.483 169.875 243.776 169.909 244.066 169.939C244.291 169.966 244.526 169.919 244.745 169.879C244.902 169.843 245.053 169.785 245.195 169.709C245.389 169.604 245.648 169.419 245.747 169.209C245.805 169.077 245.877 168.952 245.897 168.809C245.942 168.529 245.951 168.418 245.894 168.138C245.845 167.924 245.761 167.72 245.645 167.533C245.495 167.269 245.277 167.033 245.072 166.806C244.728 166.428 244.336 166.072 243.885 165.816C243.422 165.549 242.9 165.369 242.399 165.18C241.39 164.805 240.339 164.552 239.269 164.426C238.995 164.393 238.72 164.378 238.444 164.38C238.198 164.38 237.954 164.39 237.707 164.402V164.402ZM257.6 170.725C257.58 170.743 257.56 170.755 257.54 170.77C257.56 170.756 257.58 170.743 257.6 170.725ZM264.584 166.555C264.024 166.608 263.462 166.69 262.914 166.812C261.88 167.038 260.857 167.282 259.858 167.619C259.361 167.785 258.876 167.977 258.395 168.19C257.472 168.603 256.592 169.08 255.907 169.84C255.572 170.212 255.535 170.766 255.907 171.135C256.247 171.472 256.875 171.506 257.212 171.135C257.362 170.968 257.521 170.809 257.69 170.661C258.256 170.263 258.883 169.975 259.51 169.691C260.149 169.439 260.803 169.228 261.468 169.059C262.17 168.897 262.883 168.759 263.595 168.653C263.696 168.643 263.796 168.63 263.895 168.613C264.553 168.538 265.216 168.532 265.875 168.596C266.145 168.647 266.405 168.724 266.661 168.819C267.08 169.012 267.499 169.204 267.895 169.438C268.24 169.642 268.56 169.895 268.879 170.138C269.039 170.205 269.195 170.276 269.344 170.353C270.104 170.746 270.835 171.194 271.53 171.692C271.719 171.829 271.923 171.96 272.105 172.115C272.244 172.053 272.366 171.958 272.46 171.838C272.554 171.719 272.618 171.578 272.645 171.428C272.673 171.279 272.664 171.125 272.619 170.979C272.574 170.834 272.494 170.702 272.386 170.594C271.925 170.147 271.543 169.634 271.086 169.184C270.643 168.755 270.159 168.384 269.664 168.011C269.473 167.865 269.277 167.724 269.078 167.589C268.863 167.44 268.621 167.335 268.385 167.227C268.165 167.122 267.939 167.031 267.718 166.933C267.442 166.812 267.158 166.708 266.868 166.623C266.488 166.523 266.095 166.475 265.702 166.48C265.33 166.48 264.952 166.521 264.584 166.555" fill="black"/>
<path fill-rule="evenodd" clip-rule="evenodd" d="M265.338 167.933C264.866 167.959 264.395 168.004 263.926 168.068C263.476 168.129 263.019 168.179 262.576 168.264C261.993 168.376 261.427 168.531 260.864 168.717C260.54 168.825 260.22 168.937 259.896 169.052C259.49 169.2 259.081 169.366 258.658 169.45C258.521 169.455 258.385 169.452 258.248 169.44C258.16 169.425 258.072 169.405 257.986 169.38C257.938 169.356 257.891 169.329 257.846 169.298C257.471 169.041 256.919 169.228 256.704 169.596C256.648 169.691 256.612 169.797 256.597 169.906C256.583 170.016 256.59 170.127 256.619 170.234C256.68 170.454 256.82 170.603 257.004 170.728C257.182 170.851 257.394 170.934 257.608 170.992C257.722 170.906 257.839 170.823 257.959 170.745C258.44 170.427 259.009 170.231 259.555 170.052C260.571 169.714 261.59 169.525 262.658 169.413C263.52 169.322 264.411 169.231 265.28 169.231H265.416C266.268 169.241 267.066 169.433 267.854 169.745C268.344 169.937 268.877 170.11 269.344 170.353C270.105 170.745 270.835 171.193 271.53 171.692C271.806 171.891 272.116 172.08 272.338 172.347C272.496 172.541 272.671 172.717 272.841 172.901C272.963 172.819 273.055 172.701 273.106 172.563C273.156 172.425 273.161 172.275 273.121 172.134C273.071 171.949 272.955 171.824 272.798 171.714C272.634 171.6 272.471 171.488 272.314 171.367L272.382 171.424C272.301 171.36 272.218 171.3 272.136 171.238C271.873 171.023 271.627 170.789 271.4 170.536C271.26 170.383 271.124 170.231 270.977 170.089C270.795 169.926 270.6 169.777 270.394 169.646C270.033 169.41 269.657 169.193 269.289 168.97C268.87 168.717 268.464 168.45 268.008 168.271C267.817 168.194 267.621 168.129 267.421 168.075C267.161 168.007 266.899 167.977 266.636 167.943C266.43 167.92 266.223 167.908 266.016 167.909C265.791 167.909 265.563 167.922 265.338 167.933V167.933ZM253.575 180.363C253.534 180.356 253.489 180.353 253.448 180.346C253.489 180.353 253.534 180.36 253.575 180.363ZM244.561 192.484C244.374 193.16 244.791 193.792 245.434 194.005C245.832 194.136 246.236 194.263 246.63 194.405C246.798 194.493 246.953 194.6 247.126 194.678C247.507 194.857 247.862 194.955 248.289 194.942C248.647 194.932 249.011 194.867 249.373 194.837C249.938 194.789 250.508 194.756 251.074 194.702C251.624 194.647 252.184 194.572 252.74 194.594C252.961 194.64 253.201 194.704 253.41 194.688C253.88 194.651 254.381 194.445 254.593 193.988C254.75 193.654 254.821 193.349 254.726 192.981C254.703 192.889 254.671 192.801 254.629 192.716L254.614 192.653C254.401 191.726 253.016 191.533 252.544 192.347C252.417 192.379 252.288 192.404 252.157 192.421C251.584 192.493 251.009 192.572 250.433 192.623C250.106 192.649 249.779 192.673 249.454 192.7C249.155 192.724 248.844 192.771 248.539 192.785C248.351 192.577 248.133 192.398 247.892 192.254C247.631 192.099 247.312 192.014 247.023 191.92C246.713 191.818 246.406 191.72 246.096 191.619C245.989 191.583 245.876 191.565 245.763 191.565C245.223 191.565 244.706 191.965 244.561 192.485V192.484ZM242.54 176.67C242.561 176.7 242.583 176.728 242.605 176.757C242.583 176.728 242.561 176.699 242.539 176.67H242.54ZM240.814 175.038L240.896 175.098L240.814 175.038ZM234.932 171.776C234.519 171.924 234.114 172.086 233.709 172.246C233.285 172.411 232.856 172.579 232.453 172.79C232.031 173.01 231.632 173.25 231.26 173.55C230.968 173.784 230.679 174.023 230.385 174.254C229.81 174.681 229.226 175.092 228.665 175.537C228.466 175.694 228.276 175.862 228.095 176.041C227.994 176.143 227.851 176.247 227.786 176.376C227.711 176.524 227.697 176.687 227.786 176.835C227.865 176.975 228.021 177.065 228.181 177.062C228.348 177.058 228.516 176.977 228.665 176.912C228.825 176.845 228.972 176.761 229.125 176.68C229.627 176.413 230.105 176.099 230.582 175.79C230.838 175.629 231.093 175.466 231.349 175.3C231.58 175.149 231.799 174.98 232.027 174.824C232.463 174.526 232.949 174.304 233.432 174.098C233.81 173.952 234.197 173.833 234.582 173.705C235.001 173.56 235.431 173.446 235.867 173.365C236.109 173.35 236.351 173.347 236.593 173.357C236.818 173.367 237.046 173.405 237.272 173.435C237.182 173.425 237.094 173.411 237.009 173.401C237.213 173.428 237.415 173.462 237.616 173.503C237.786 173.536 237.953 173.601 238.117 173.658C238.445 173.768 238.767 173.895 239.09 174.02C239.222 174.08 239.353 174.145 239.484 174.212C239.638 174.29 239.781 174.392 239.931 174.48C240.191 174.634 240.449 174.783 240.697 174.955C241.038 175.251 241.353 175.571 241.687 175.872C241.851 176.021 242.017 176.159 242.178 176.312C242.346 176.474 242.501 176.646 242.653 176.824C242.75 176.959 242.839 177.096 242.928 177.241C243.06 177.458 243.27 177.614 243.515 177.678C243.761 177.742 244.021 177.708 244.241 177.583C244.459 177.455 244.618 177.246 244.684 177.002C244.749 176.758 244.715 176.498 244.589 176.278C244.496 176.128 244.412 175.973 244.309 175.831C244.183 175.649 244.049 175.47 243.92 175.287C243.767 175.077 243.624 174.854 243.45 174.659C243.32 174.509 243.194 174.361 243.068 174.212C242.792 173.884 242.508 173.543 242.182 173.262C241.786 172.932 241.359 172.682 240.906 172.438C240.094 172.007 239.213 171.722 238.302 171.596C237.809 171.523 237.311 171.485 236.812 171.48C236.174 171.48 235.539 171.56 234.932 171.776" fill="black"/>
<path fill-rule="evenodd" clip-rule="evenodd" d="M236.705 176.189C236.751 176.155 236.802 176.128 236.855 176.107C236.875 176.104 236.892 176.1 236.912 176.1C236.933 176.1 236.95 176.104 236.971 176.107C237.011 176.107 237.052 176.117 237.09 176.137C237.124 176.155 237.159 176.171 237.19 176.195C237.22 176.219 237.254 176.242 237.284 176.266C237.311 176.293 237.335 176.322 237.356 176.354C237.382 176.401 237.402 176.451 237.416 176.503C237.424 176.543 237.427 176.58 237.434 176.621C237.431 176.658 237.424 176.696 237.42 176.733L237.38 176.831C237.31 176.962 237.193 177.062 237.052 177.111C237.039 177.118 237.022 177.121 237.005 177.128C236.986 177.163 236.958 177.192 236.923 177.212C236.889 177.232 236.85 177.243 236.81 177.243C236.723 177.248 236.637 177.224 236.565 177.176C236.51 177.135 236.468 177.08 236.442 177.016C236.405 176.935 236.391 176.845 236.401 176.756L236.384 176.746C236.347 176.712 236.309 176.678 236.275 176.641C236.307 176.611 236.336 176.58 236.367 176.549C236.365 176.508 236.366 176.466 236.37 176.425C236.37 176.397 236.376 176.368 236.387 176.342C236.398 176.316 236.415 176.293 236.435 176.273C236.455 176.252 236.479 176.236 236.506 176.225C236.532 176.214 236.56 176.208 236.589 176.208C236.613 176.208 236.637 176.215 236.66 176.222C236.674 176.208 236.69 176.199 236.705 176.189V176.189ZM235.78 172.116C235.573 172.189 235.372 172.28 235.18 172.386C234.993 172.488 234.83 172.639 234.662 172.778C234.444 172.958 234.267 173.201 234.1 173.437C233.946 173.586 233.82 173.765 233.694 173.934C233.315 174.426 233.067 175.007 232.974 175.621C232.879 176.151 232.8 176.661 233.002 177.181C233.254 177.834 233.718 178.416 234.243 178.875C234.481 179.085 234.744 179.275 235.013 179.447C235.32 179.643 235.699 179.751 236.047 179.839C236.725 180.008 237.434 179.96 238.117 179.856C238.479 179.798 238.832 179.692 239.167 179.542C239.331 179.469 239.493 179.39 239.651 179.305C239.86 179.199 240.053 179.067 240.227 178.91C240.717 178.406 241.038 177.763 241.144 177.068C241.26 176.354 241.27 175.628 241.014 174.942C240.765 174.262 240.459 173.504 239.94 172.981C239.692 172.731 239.364 172.538 239.054 172.373C238.726 172.206 238.383 172.072 238.028 171.973C237.754 171.891 237.469 171.85 237.182 171.852C236.708 171.852 236.234 171.956 235.78 172.116" fill="black"/>
<path fill-rule="evenodd" clip-rule="evenodd" d="M240.926 178.023C240.731 178.043 240.636 178.063 240.462 178.148C240.398 178.182 240.336 178.225 240.272 178.262C240.074 178.37 239.872 178.469 239.666 178.56C239.343 178.684 239.002 178.757 238.666 178.83C238.36 178.897 238.056 178.96 237.751 179.006C237.327 179.061 236.901 179.118 236.476 179.176C236.541 179.165 236.602 179.158 236.667 179.148C236.009 179.203 235.33 179.184 234.673 179.11C234.473 179.077 234.275 179.028 234.083 178.962C233.857 178.842 233.637 178.712 233.415 178.583C233.264 178.498 233.085 178.475 232.917 178.518C232.749 178.562 232.605 178.669 232.514 178.817C232.428 178.967 232.405 179.144 232.449 179.311C232.493 179.478 232.601 179.621 232.75 179.709C232.92 179.804 233.09 179.902 233.261 179.996C233.61 180.191 233.989 180.325 234.383 180.392C234.805 180.47 235.242 180.5 235.668 180.537C235.968 180.561 236.268 180.595 236.568 180.588C236.882 180.585 237.196 180.538 237.506 180.5C237.871 180.457 238.239 180.413 238.597 180.331C238.921 180.257 239.245 180.179 239.569 180.095C240.012 179.98 240.429 179.797 240.844 179.615C241.124 179.493 241.396 179.395 241.554 179.108C241.618 178.997 241.651 178.872 241.651 178.745C241.651 178.617 241.618 178.492 241.554 178.381C241.441 178.191 241.205 178.021 240.97 178.021C240.956 178.021 240.94 178.021 240.926 178.023ZM269.231 176.447L269.307 176.507L269.231 176.447ZM257.618 176.349L257.568 176.389L257.618 176.349ZM263.428 171.911C262.835 171.921 262.252 171.986 261.668 172.091C261.171 172.181 260.698 172.357 260.227 172.539C259.217 172.935 258.337 173.554 257.458 174.176C256.982 174.508 256.526 174.867 256.09 175.25C255.91 175.413 255.75 175.596 255.586 175.771C255.231 176.153 254.904 176.545 254.596 176.968C254.321 177.35 254.529 177.928 254.911 178.151C255.115 178.267 255.356 178.298 255.582 178.238C255.818 178.174 255.965 178.028 256.104 177.839C256.154 177.774 256.2 177.709 256.249 177.646C256.625 177.203 257.045 176.8 257.502 176.441C258.031 176.08 258.57 175.734 259.118 175.403C259.59 175.108 260.079 174.843 260.588 174.618C261.15 174.421 261.727 174.273 262.314 174.176C262.871 174.136 263.414 174.126 263.968 174.183C264.371 174.251 264.774 174.333 265.174 174.419C265.59 174.515 265.994 174.641 266.394 174.789C266.6 174.882 266.807 174.978 267.008 175.082C267.295 175.227 267.568 175.396 267.848 175.548C268.12 175.697 268.4 175.849 268.652 176.028C268.896 176.204 269.134 176.389 269.377 176.563C269.535 176.688 269.689 176.817 269.849 176.94C270.179 177.197 270.51 177.37 270.902 177.515C271.243 177.637 271.649 177.435 271.823 177.144C271.93 176.958 271.959 176.737 271.904 176.529C271.85 176.321 271.715 176.143 271.53 176.034C271.491 176.013 271.453 175.99 271.416 175.967C271.098 175.699 270.804 175.41 270.506 175.119C270.121 174.725 269.703 174.365 269.255 174.044C268.828 173.745 268.389 173.463 267.94 173.199C267.468 172.922 266.958 172.716 266.449 172.516C266.012 172.347 265.545 172.243 265.089 172.134C264.582 172.016 264.047 171.909 263.52 171.909L263.429 171.911" fill="black"/>
<path fill-rule="evenodd" clip-rule="evenodd" d="M263.733 176.414C263.763 176.43 263.791 176.447 263.82 176.466L263.831 176.476C263.861 176.522 263.888 176.566 263.913 176.613C263.931 176.676 263.947 176.737 263.962 176.8C263.965 176.891 263.964 176.982 263.96 177.073C263.934 177.199 263.905 177.324 263.872 177.448L263.721 177.492L263.642 177.502C263.529 177.514 263.416 177.52 263.302 177.52C263.237 177.503 263.172 177.485 263.107 177.465L263.099 177.46L263.026 177.386C263.011 177.362 262.997 177.338 262.984 177.314C262.959 177.24 262.936 177.165 262.916 177.09V177.072C262.931 177.012 262.948 176.953 262.966 176.894C263.008 176.82 263.052 176.747 263.098 176.676C263.158 176.611 263.218 176.548 263.281 176.486C263.371 176.458 263.461 176.434 263.553 176.414C263.613 176.412 263.673 176.412 263.733 176.414V176.414ZM262.571 172.584C262.404 172.607 262.243 172.668 262.086 172.726C261.206 173.04 260.378 173.49 259.71 174.145C259.027 174.819 258.637 175.735 258.625 176.694C258.625 176.957 258.691 177.221 258.732 177.478C258.758 177.647 258.8 177.814 258.857 177.975C259.049 178.529 259.376 178.999 259.802 179.398L259.932 179.516C260.126 179.818 260.369 180.093 260.644 180.317C260.988 180.601 261.364 180.764 261.784 180.916C262.168 181.054 262.608 181.101 263.014 181.108C263.491 181.118 263.989 181.033 264.439 180.885C265.181 180.631 265.851 180.202 266.393 179.635C266.619 179.396 266.795 179.128 266.934 178.843C267.038 178.716 267.134 178.586 267.232 178.455C267.518 178.07 267.572 177.559 267.62 177.099C267.702 176.336 267.57 175.521 267.13 174.875C267.114 174.854 267.099 174.833 267.084 174.811L267.044 174.723C266.856 174.318 266.544 173.953 266.254 173.618C265.847 173.141 265.294 172.895 264.726 172.671C264.48 172.577 264.17 172.56 263.921 172.526C263.757 172.504 263.592 172.491 263.426 172.489L263.368 172.488C263.1 172.488 262.834 172.549 262.571 172.584" fill="black"/>
<path fill-rule="evenodd" clip-rule="evenodd" d="M260.545 179.998L260.627 180.031C260.599 180.021 260.572 180.009 260.545 179.998ZM258.599 179.691C258.431 179.971 258.517 180.383 258.819 180.539C259.277 180.769 259.74 180.995 260.211 181.195C260.637 181.378 261.071 181.489 261.527 181.56C261.756 181.597 261.984 181.617 262.209 181.644C262.536 181.681 262.864 181.712 263.191 181.743C263.368 181.756 263.549 181.753 263.727 181.756C263.89 181.763 264.06 181.763 264.224 181.746C264.634 181.712 265.039 181.661 265.441 181.58C265.765 181.513 266.079 181.411 266.393 181.313C266.707 181.215 267.02 181.133 267.33 181.025C267.495 180.969 267.658 180.906 267.818 180.837C267.972 180.766 268.118 180.677 268.228 180.539C268.32 180.447 268.378 180.328 268.395 180.2C268.411 180.071 268.384 179.941 268.319 179.829C268.197 179.623 267.893 179.464 267.651 179.559C267.559 179.596 267.457 179.613 267.361 179.64C267.242 179.67 267.122 179.704 267.003 179.738C266.707 179.823 266.413 179.9 266.117 179.978C265.872 180.042 265.632 180.126 265.384 180.184C265.096 180.255 264.809 180.309 264.517 180.357C264.071 180.407 263.623 180.427 263.174 180.417C262.703 180.398 262.232 180.368 261.762 180.327C261.389 180.274 261.023 180.18 260.67 180.047C260.258 179.866 259.851 179.674 259.45 179.471C259.351 179.419 259.241 179.392 259.129 179.391C259.022 179.39 258.917 179.417 258.824 179.469C258.73 179.522 258.653 179.599 258.599 179.691V179.691ZM246.902 175.772L246.91 175.838L246.902 175.772ZM246.397 172.76C246.08 172.942 245.998 173.331 246.162 173.642C246.295 173.897 246.426 174.152 246.546 174.412C246.742 174.901 246.837 175.41 246.922 175.926C247.007 176.6 247.064 177.274 247.082 177.955C247.102 178.662 247.059 179.378 246.991 180.081C246.84 181.55 246.671 183.016 246.485 184.481C246.297 185.703 246.101 186.921 245.787 188.121C245.627 188.728 245.435 189.322 245.245 189.921C245.099 190.369 244.992 190.84 244.816 191.278L244.754 191.418C244.658 191.609 244.601 191.817 244.584 192.03C244.566 192.178 244.655 192.442 244.73 192.57C244.815 192.716 244.975 192.884 245.132 192.959C245.327 193.073 245.554 193.119 245.778 193.091C246.002 193.062 246.21 192.96 246.37 192.801C246.471 192.701 246.55 192.582 246.601 192.45C246.653 192.318 246.676 192.177 246.669 192.035C246.704 191.875 246.753 191.72 246.796 191.56C246.909 191.16 247.014 190.758 247.13 190.36C247.392 189.467 247.628 188.575 247.805 187.662C247.993 186.719 248.078 185.752 248.188 184.797C248.29 183.904 248.34 183.001 248.418 182.105C248.481 181.43 248.538 180.757 248.586 180.081C248.63 179.476 248.613 178.874 248.572 178.273C248.531 177.56 248.456 176.849 248.347 176.143C248.3 175.836 248.235 175.532 248.17 175.227C248.089 174.858 247.981 174.495 247.846 174.142C247.693 173.747 247.488 173.369 247.29 172.99C247.233 172.892 247.151 172.81 247.051 172.755C246.952 172.699 246.84 172.671 246.726 172.674C246.611 172.673 246.497 172.703 246.397 172.76V172.76ZM245.693 198.583C245.463 198.599 245.236 198.638 245.014 198.702C244.786 198.776 244.564 198.878 244.342 198.962C244.008 199.094 243.674 199.222 243.337 199.348C242.277 199.746 241.175 200.071 240.046 200.236C239.849 200.263 239.65 200.284 239.446 200.304C239.38 200.311 239.314 200.321 239.248 200.334C239.63 200.463 239.998 200.624 240.336 200.841C240.793 201.139 241.342 201.471 241.724 201.846C242.02 201.768 242.317 201.679 242.61 201.595C243.045 201.46 243.471 201.299 243.886 201.112C244.417 200.892 244.956 200.696 245.485 200.477C245.635 200.422 245.782 200.388 245.938 200.362C246.047 200.348 246.156 200.341 246.265 200.348C246.811 200.645 247.315 201.048 247.919 201.234C248.069 201.277 248.229 201.298 248.386 201.304C248.615 201.318 248.826 201.25 249.03 201.159C249.229 201.071 249.42 200.953 249.614 200.855C249.754 200.784 249.89 200.713 250.03 200.649C250.33 200.527 250.63 200.399 250.93 200.269C251.112 200.195 251.299 200.136 251.49 200.091C251.578 200.084 251.663 200.087 251.751 200.091C252.175 200.172 252.581 200.334 252.983 200.479C253.439 200.649 253.89 200.838 254.35 200.993C254.772 201.135 255.189 201.25 255.618 201.332C255.764 201.209 255.913 201.087 256.064 200.967L256.154 200.889C256.449 200.639 256.755 200.411 257.068 200.194C256.974 200.193 256.878 200.194 256.781 200.189C256.631 200.183 256.481 200.165 256.331 200.145C256.031 200.087 255.734 200.02 255.437 199.939C255.2 199.871 254.967 199.788 254.741 199.69V199.692C254.738 199.692 254.738 199.688 254.735 199.688H254.736L254.731 199.687V199.688C254.094 199.401 253.477 199.06 252.811 198.837C252.457 198.718 252.082 198.61 251.704 198.61C251.334 198.61 250.999 198.728 250.663 198.868L250.643 198.878C250.641 198.879 250.639 198.88 250.637 198.881C250.261 199.036 249.897 199.206 249.529 199.371C249.177 199.531 248.843 199.736 248.509 199.922C248.498 199.918 248.488 199.912 248.478 199.905C248.366 199.807 248.258 199.702 248.141 199.608C247.867 199.38 247.58 199.167 247.281 198.972C247.109 198.858 246.925 198.763 246.732 198.688C246.565 198.621 246.385 198.607 246.204 198.583C246.034 198.565 245.862 198.565 245.692 198.583H245.693ZM250.517 198.928L250.567 198.908L250.517 198.928Z" fill="black"/>
<path fill-rule="evenodd" clip-rule="evenodd" d="M254.732 199.687L254.728 199.686H254.732V199.687ZM254.741 199.69L254.737 199.689L254.741 199.69ZM250.662 198.868L250.689 198.857C250.68 198.86 250.671 198.863 250.662 198.868V198.868ZM255.709 201.063C255.412 201.131 255.115 201.198 254.819 201.276C254.569 201.336 254.324 201.415 254.075 201.482C253.779 201.56 253.485 201.642 253.192 201.719C252.636 201.871 252.077 202.006 251.511 202.111C250.952 202.212 250.396 202.314 249.834 202.398C249.339 202.446 248.849 202.483 248.35 202.52C247.417 202.575 246.481 202.577 245.547 202.526C245.288 202.516 245.03 202.503 244.771 202.486C244.547 202.471 244.324 202.451 244.101 202.426C243.592 202.345 243.086 202.242 242.585 202.118C242.295 202.039 242.008 201.947 241.725 201.843L241.743 201.861C242.143 202.264 242.539 202.668 242.936 203.073C243.023 203.097 243.111 203.119 243.198 203.142C243.431 203.207 243.665 203.26 243.901 203.317C244.365 203.425 244.846 203.463 245.32 203.503C245.794 203.544 246.268 203.574 246.744 203.595C247.663 203.637 248.583 203.604 249.496 203.497C249.763 203.467 250.024 203.429 250.287 203.389C250.512 203.352 250.737 203.304 250.959 203.26C251.429 203.166 251.9 203.078 252.367 202.976C252.711 202.906 253.049 202.811 253.387 202.716C253.74 202.621 254.093 202.523 254.444 202.423C254.659 202.187 254.887 201.964 255.126 201.753C255.417 201.502 255.718 201.243 256.031 200.995C255.923 201.017 255.815 201.039 255.709 201.063" fill="black"/>
<path fill-rule="evenodd" clip-rule="evenodd" d="M243.502 203.652C244.054 204.213 244.555 204.822 245.152 205.332C245.469 205.552 245.793 205.738 246.138 205.906C246.663 206.086 247.193 206.222 247.733 206.333C247.652 206.23 247.54 206.157 247.413 206.123C246.881 205.984 246.349 205.87 245.834 205.673C245.65 205.586 245.473 205.485 245.305 205.369C245.014 205.132 244.748 204.866 244.511 204.575C244.276 204.25 244.044 203.922 243.799 203.608C243.679 203.449 243.552 203.296 243.419 203.148C243.225 202.949 243.013 202.769 242.786 202.608C242.591 202.463 242.387 202.331 242.182 202.198C242.085 202.138 241.99 202.077 241.895 202.015C242.433 202.559 242.969 203.105 243.502 203.652V203.652ZM256.199 200.814C255.68 201.088 255.237 201.46 254.818 201.866C254.62 202.058 254.418 202.251 254.215 202.433C254.006 202.616 253.788 202.792 253.6 202.991C253.286 203.318 252.981 203.654 252.687 203.999C252.867 203.829 253.055 203.667 253.246 203.511C253.58 203.248 253.921 202.981 254.215 202.671C254.505 202.359 254.798 202.034 255.125 201.754C255.426 201.492 255.74 201.225 256.065 200.968C256.094 200.94 256.124 200.914 256.155 200.888L256.326 200.746L256.199 200.814" fill="black"/>
<path fill-rule="evenodd" clip-rule="evenodd" d="M245.892 205.782C245.85 205.755 245.808 205.727 245.766 205.7C245.73 205.677 245.69 205.659 245.649 205.646C245.729 205.693 245.81 205.738 245.892 205.782ZM253.905 201.743C253.271 202.495 252.616 203.228 251.941 203.943C251.631 204.264 251.301 204.565 250.989 204.89C250.679 205.218 250.359 205.546 250.011 205.839C249.821 205.967 249.619 206.078 249.408 206.17C249.058 206.292 248.698 206.384 248.332 206.446L248.398 206.458C248.613 206.471 248.828 206.471 249.039 206.458C249.193 206.42 249.346 206.37 249.492 206.312C250.206 205.975 250.864 205.535 251.508 205.078C252.104 204.575 252.637 204 253.247 203.51C253.581 203.246 253.922 202.98 254.215 202.668C254.45 202.417 254.687 202.155 254.944 201.916C254.912 201.852 254.87 201.794 254.819 201.743C254.692 201.621 254.522 201.554 254.345 201.557C254.263 201.555 254.181 201.57 254.105 201.602C254.029 201.634 253.961 201.682 253.905 201.743" fill="black"/>
<path fill-rule="evenodd" clip-rule="evenodd" d="M244.944 205.147C245.012 205.21 245.082 205.272 245.152 205.332C245.469 205.552 245.793 205.738 246.138 205.906C246.284 205.957 246.432 206.004 246.579 206.048C246.497 205.998 246.416 205.946 246.335 205.893C246.005 205.677 245.68 205.45 245.357 205.223C245.269 205.164 245.164 205.134 245.058 205.136C245.02 205.136 244.982 205.139 244.944 205.146" fill="black"/>
<path fill-rule="evenodd" clip-rule="evenodd" d="M244.424 204.478L244.444 204.503L244.424 204.478ZM239.569 200.875L239.651 200.91C239.623 200.9 239.596 200.888 239.569 200.875V200.875ZM239.078 200.297C239.017 200.527 239.156 200.737 239.375 200.811C239.469 200.843 239.564 200.878 239.659 200.914C240.099 201.107 240.542 201.298 240.977 201.503C241.38 201.699 241.787 201.886 242.151 202.14C242.359 202.319 242.551 202.51 242.746 202.7C242.954 202.907 243.17 203.109 243.374 203.318C243.562 203.515 243.742 203.714 243.916 203.918C244.099 204.128 244.296 204.323 244.472 204.541C244.672 204.807 244.875 205.065 245.096 205.316C245.208 205.448 245.351 205.563 245.488 205.671C245.644 205.796 245.805 205.918 245.969 206.036C246.139 206.164 246.317 206.279 246.504 206.384C246.64 206.455 246.784 206.514 246.927 206.57C247.005 206.6 247.08 206.634 247.159 206.658C247.326 206.708 247.493 206.763 247.667 206.797C247.892 206.837 248.123 206.864 248.352 206.884C248.512 206.898 248.662 206.767 248.7 206.624C248.748 206.452 248.642 206.219 248.447 206.185C247.937 206.099 247.437 205.958 246.957 205.764C246.595 205.594 246.267 205.374 245.948 205.137C245.823 205.039 245.701 204.936 245.583 204.829C245.451 204.709 245.331 204.563 245.212 204.427C245.106 204.309 245.014 204.18 244.915 204.059C244.803 203.927 244.687 203.799 244.571 203.669C244.363 203.437 244.165 203.194 243.954 202.964C243.704 202.69 243.451 202.42 243.194 202.152C242.954 201.902 242.726 201.646 242.45 201.439C241.898 201.045 241.304 200.712 240.68 200.446C240.323 200.286 239.968 200.132 239.596 200.006C239.561 199.995 239.523 199.989 239.486 199.989C239.395 199.992 239.306 200.023 239.233 200.078C239.16 200.133 239.106 200.21 239.078 200.297" fill="black"/>
<path fill-rule="evenodd" clip-rule="evenodd" d="M249.702 205.651L249.65 205.671L249.702 205.651ZM254.42 201.936C254.413 201.94 254.41 201.946 254.404 201.95C254.411 201.947 254.414 201.94 254.42 201.936ZM256.105 200.091C255.508 200.408 254.956 200.798 254.375 201.139C253.939 201.396 253.572 201.731 253.2 202.065L252.79 202.42C252.671 202.521 252.538 202.616 252.426 202.724C252.187 202.947 251.993 203.208 251.789 203.458C251.583 203.704 251.362 203.931 251.151 204.168C250.956 204.384 250.759 204.593 250.567 204.806C250.442 204.946 250.329 205.093 250.22 205.242C250.146 205.326 250.066 205.404 249.98 205.476C249.859 205.557 249.732 205.629 249.6 205.692C249.341 205.79 249.08 205.863 248.8 205.907L248.811 205.905C248.621 205.932 248.43 205.962 248.242 205.999C248.147 206.002 248.054 206.03 247.973 206.08C247.838 206.157 247.738 206.285 247.697 206.435C247.657 206.588 247.679 206.751 247.757 206.888C247.836 207.025 247.965 207.126 248.117 207.169C248.433 207.263 248.781 207.27 249.111 207.243C249.292 207.226 249.466 207.193 249.641 207.135C249.807 207.077 249.968 207 250.127 206.925C250.237 206.875 250.333 206.807 250.427 206.736C250.537 206.658 250.649 206.577 250.748 206.486C250.959 206.292 251.144 206.071 251.298 205.83C251.379 205.695 251.471 205.566 251.56 205.438L252.04 204.748C252.211 204.502 252.388 204.258 252.556 204.011C252.723 203.758 252.886 203.501 253.064 203.254C253.244 203.044 253.438 202.849 253.636 202.656C253.871 202.424 254.103 202.196 254.359 201.988C254.703 201.74 255.082 201.531 255.443 201.308C255.698 201.148 255.954 200.986 256.217 200.836C256.347 200.728 256.48 200.622 256.615 200.521C256.633 200.472 256.64 200.42 256.636 200.368C256.631 200.316 256.615 200.265 256.589 200.22C256.558 200.166 256.513 200.122 256.459 200.092C256.405 200.061 256.344 200.046 256.282 200.047C256.22 200.047 256.16 200.062 256.105 200.091V200.091Z" fill="black"/>
<path fill-rule="evenodd" clip-rule="evenodd" d="M255.81 200.672C255.316 201.098 254.825 201.527 254.334 201.963C253.9 202.346 253.488 202.745 253.075 203.146C252.875 203.339 252.69 203.542 252.495 203.742C252.312 203.937 252.12 204.123 251.93 204.312C251.725 204.512 251.524 204.718 251.32 204.917C251.148 205.078 250.968 205.231 250.78 205.374C250.49 205.577 250.184 205.756 249.857 205.901C249.657 205.973 249.45 206.028 249.24 206.063C248.979 206.097 248.714 206.101 248.452 206.077C248.121 206.022 247.795 205.936 247.48 205.82C247.438 205.8 247.396 205.778 247.357 205.753C247.282 205.687 247.214 205.613 247.153 205.533C247.005 205.344 246.845 205.164 246.675 204.995C246.482 204.803 246.294 204.607 246.11 204.407C245.95 204.227 245.799 204.039 245.652 203.853C245.284 203.363 244.947 202.855 244.575 202.373C244.436 202.189 244.286 202.013 244.125 201.848C243.999 201.717 243.845 201.602 243.702 201.49C243.521 201.344 243.332 201.208 243.136 201.082C243.014 201.009 242.887 200.947 242.754 200.896C242.611 200.832 242.468 200.761 242.314 200.723C242.134 200.679 241.957 200.686 241.772 200.686C241.582 200.683 241.39 200.69 241.2 200.692C241.002 200.699 240.814 200.74 240.613 200.716C240.48 200.699 240.35 200.821 240.32 200.94C240.272 201.108 240.377 201.257 240.535 201.314L240.586 201.335C240.736 201.403 240.876 201.49 241.026 201.558C241.156 201.616 241.278 201.68 241.397 201.761C241.487 201.848 241.561 201.947 241.643 202.045C241.749 202.163 241.854 202.275 241.971 202.383C242.161 202.568 242.359 202.747 242.556 202.93C242.706 203.072 242.846 203.224 242.98 203.383C243.512 204.086 244.085 204.757 244.698 205.391C244.988 205.688 245.321 205.931 245.648 206.189C245.926 206.405 246.171 206.665 246.468 206.861C246.593 206.946 246.754 207.003 246.894 207.051C247.003 207.084 247.115 207.114 247.224 207.145C247.561 207.228 247.905 207.281 248.251 207.304C248.646 207.334 249.038 207.324 249.431 207.274C249.795 207.226 250.147 207.185 250.487 207.05C251.065 206.822 251.59 206.48 252.033 206.044C252.241 205.761 252.448 205.477 252.66 205.198L252.57 205.313C252.735 205.097 252.864 204.853 253.004 204.62C253.287 204.153 253.628 203.72 253.973 203.295C254.365 202.812 254.78 202.362 255.2 201.903C255.506 201.561 255.803 201.186 256.155 200.889C256.233 200.823 256.311 200.759 256.391 200.696L256.37 200.672C256.335 200.636 256.293 200.607 256.247 200.587C256.2 200.568 256.15 200.557 256.1 200.557C255.993 200.559 255.89 200.6 255.81 200.672" fill="black"/>
<path fill-rule="evenodd" clip-rule="evenodd" d="M256.97 199.47C256.87 199.496 256.775 199.55 256.68 199.597C256.485 199.692 256.295 199.797 256.103 199.895C255.878 200.013 255.667 200.135 255.462 200.287C255.285 200.419 255.111 200.561 254.937 200.697C254.678 200.895 254.426 201.109 254.18 201.322C253.945 201.532 253.968 201.923 254.18 202.136C254.29 202.244 254.44 202.305 254.592 202.305C254.729 202.305 254.842 202.256 254.948 202.179L255.2 201.903C255.506 201.561 255.803 201.186 256.154 200.889C256.664 200.459 257.206 200.089 257.761 199.734C257.721 199.666 257.668 199.607 257.604 199.56C257.541 199.513 257.468 199.48 257.391 199.462C257.253 199.423 257.106 199.425 256.969 199.469" fill="black"/>
<path fill-rule="evenodd" clip-rule="evenodd" d="M261.756 211.666C262.141 211.392 262.526 211.118 262.915 210.848L263.378 210.523L263.535 210.415L263.696 210.304C263.775 210.749 263.941 211.158 264.204 211.581L264.276 211.696L263.611 211.733L262.755 211.821C262.21 211.889 261.742 211.942 261.278 211.99C261.446 211.882 261.606 211.774 261.756 211.666V211.666ZM275.892 181.725L276.06 180.214L276.203 178.879C276.308 177.829 276.414 176.831 276.407 175.834V175.158C276.405 174.645 276.399 174.132 276.387 173.619L276.52 173.667C276.72 173.659 276.92 173.657 277.12 173.66L277.242 173.708C277.344 174.045 277.423 174.401 277.482 174.793C277.495 174.91 277.509 175.036 277.519 175.161C277.557 175.488 277.549 175.854 277.495 176.344C277.294 177.618 276.939 178.869 276.598 180.079L276.421 180.684L276.192 181.492L276.026 182.086L275.8 182.888L275.691 183.286L275.657 183.402C275.742 182.918 275.82 182.381 275.892 181.725V181.725ZM222.012 184.723L221.762 184.648C221.397 184.451 221.046 184.229 220.712 183.983C220.558 183.861 220.414 183.727 220.28 183.584C220.151 183.392 220.038 183.19 219.942 182.979C219.785 182.57 219.713 182.114 219.645 181.641L219.602 181.245C219.52 180.525 219.452 179.88 219.468 179.24C219.478 178.503 219.522 177.767 219.598 177.034C219.728 176.29 219.867 175.563 220.119 174.908C220.389 174.313 220.699 173.778 221.04 173.322C221.101 173.248 221.167 173.183 221.238 173.119C221.326 173.055 221.425 173.001 221.521 172.947L221.709 172.896L221.804 172.91L221.903 172.927L221.91 173.477L221.852 174.864C221.8 175.838 221.8 176.814 221.852 177.788C221.896 178.49 221.944 179.198 221.995 179.903L222.067 180.951C222.135 181.938 222.189 182.921 222.223 183.912C222.233 184.2 222.24 184.489 222.243 184.777L222.251 184.787C222.172 184.761 222.092 184.74 222.011 184.723H222.012ZM226.943 162.523L227.195 162.442L227.839 162.236C228.514 162.023 229.162 161.76 229.932 161.427C230.192 161.319 230.451 161.211 230.713 161.111C231.391 160.836 232.056 160.533 232.708 160.201L232.841 160.137L233.465 159.829C233.788 159.67 234.107 159.505 234.423 159.333L234.509 159.288L234.951 159.051C236.302 158.345 237.638 157.614 238.961 156.857C239.701 156.432 240.472 155.948 241.096 155.553L241.253 155.452L241.665 155.189L242.842 154.432C243.002 154.329 243.159 154.218 243.316 154.107L243.493 153.978L243.626 153.888L243.708 153.829C243.848 153.736 243.984 153.636 244.114 153.529L244.417 153.289L244.513 153.211C244.782 152.994 245.048 152.778 245.303 152.549L245.538 152.332C245.846 152.055 246.146 151.785 246.452 151.514C246.899 151.118 247.35 150.723 247.799 150.331L247.867 150.274C248.294 149.894 248.627 149.598 248.935 149.28L249.194 149.013C249.45 148.753 249.836 148.361 250.118 147.985C250.265 147.786 250.391 147.593 250.518 147.395L250.571 147.313L250.661 147.178L250.739 147.063L250.889 146.846C250.923 147.052 251.005 147.221 251.093 147.387L251.148 147.485L251.305 147.786C251.523 148.188 251.782 148.584 252.123 149.033C252.386 149.361 252.669 149.706 253.003 149.987C253.228 150.179 253.463 150.368 253.699 150.551L254.189 150.93L255.175 151.687C256.112 152.403 256.91 152.971 257.623 153.42C258.318 153.88 259.141 154.306 259.683 154.586L259.819 154.654L259.904 154.694L260.017 154.753L260.297 154.891L260.92 155.215L261.159 155.337C262.1 155.817 263.041 156.297 263.993 156.75C265.266 157.346 266.557 157.901 267.866 158.413L267.989 158.467C268.476 158.677 268.991 158.9 269.472 159.15C270.082 159.468 270.601 159.785 271.068 160.123C271.211 160.245 271.343 160.383 271.497 160.579C271.719 160.863 271.933 161.171 272.128 161.479C272.325 161.796 272.496 162.124 272.684 162.546C273.171 163.807 273.54 165.221 273.84 166.995C273.966 168.053 274.062 168.931 274.092 169.787C274.102 170.047 274.109 170.304 274.112 170.561C274.116 170.784 274.119 171.004 274.126 171.223L274.167 172.247C273.904 172.433 273.781 172.842 273.881 173.207C273.937 173.407 274.058 173.582 274.225 173.704L274.201 175.742C274.201 176.348 274.177 176.868 274.137 177.338C274.105 177.706 274.065 178.075 274.021 178.44L273.979 178.802L273.939 179.139L273.897 179.477L273.874 179.673C273.819 180.113 273.778 180.451 273.744 180.788C273.671 181.522 273.589 182.256 273.499 182.988C273.382 183.877 273.231 184.761 273.046 185.639C272.933 186.181 272.802 186.718 272.653 187.251C272.54 187.681 272.4 188.104 272.261 188.526L272.216 188.657C271.985 189.391 271.685 190.243 271.184 191.598C271.023 192.031 270.869 192.46 270.717 192.896L270.617 193.173L270.519 193.453C270.423 193.74 270.323 194.025 270.219 194.309C269.971 194.985 269.706 195.656 269.427 196.32L269.39 196.411C269.093 197.084 268.794 197.764 268.469 198.429C268.067 199.25 267.665 200.069 267.245 200.876C266.492 202.316 265.489 203.681 264.682 204.776L264.449 205.091C263.786 205.923 263.067 206.709 262.298 207.444C261.902 207.832 261.507 208.208 261.115 208.559L261.228 208.586L261.302 208.563L261.087 208.691C260.671 208.982 260.262 209.283 259.86 209.593L258.97 210.233C258.757 210.383 258.542 210.53 258.325 210.675L258.322 210.669L258.175 210.722C258.005 210.797 257.842 210.885 257.675 210.976L257.5 211.077C256.443 211.648 255.588 212.075 254.81 212.412C254.46 212.554 254.1 212.672 253.736 212.792L253.408 212.899L253.286 212.94C253.088 213.008 252.898 213.072 252.703 213.136C252.327 213.248 251.947 213.346 251.563 213.43C251.285 213.48 250.998 213.518 250.712 213.552L250.428 213.589L250.214 213.606L249.938 213.623L249.583 213.65C249.498 213.654 249.412 213.656 249.327 213.657C249.115 213.657 248.907 213.647 248.699 213.632L248.563 213.622C248.024 213.581 247.486 213.522 246.951 213.447L246.835 213.44C245.921 213.311 244.959 213.068 244.189 212.873L243.909 212.804L243.606 212.727C243.038 212.584 242.475 212.423 241.918 212.244C241.39 212.063 240.866 211.866 240.349 211.655C240.029 211.513 239.715 211.361 239.401 211.21C239.243 211.132 239.086 211.052 238.931 210.969L238.784 210.895C238.658 210.826 238.529 210.761 238.399 210.699C237.963 210.489 237.679 210.35 237.414 210.185C236.895 209.869 236.412 209.498 235.974 209.077C235.766 208.879 235.568 208.67 235.382 208.451L235.245 208.295L235.108 208.144C234.751 207.76 234.384 207.386 234.007 207.021L233.871 206.887C233.683 206.705 233.498 206.52 233.315 206.332L233.223 206.238C232.642 205.647 232.077 205.04 231.529 204.418C231.245 204.094 230.969 203.766 230.693 203.438C230.123 202.486 229.442 201.583 228.78 200.708L228.43 200.197C228.011 199.531 227.632 198.84 227.297 198.128C227.164 197.759 227.044 197.385 226.939 197.007L226.902 196.885C226.809 196.565 226.72 196.244 226.635 195.922L226.608 195.82L226.578 195.709L226.537 195.563L226.421 195.131C226.207 194.387 226.02 193.636 225.861 192.879C225.776 192.469 225.701 192.055 225.626 191.636L225.578 191.376L225.531 191.118C225.476 190.808 225.422 190.503 225.36 190.196L225.278 189.753L225.248 189.59C225.119 188.93 225 188.267 224.893 187.603C224.837 187.213 224.796 186.82 224.77 186.427C224.744 185.91 224.722 185.393 224.705 184.875L224.698 184.524C224.671 183.611 224.648 182.715 224.586 181.864C224.551 181.359 224.513 180.854 224.471 180.35L224.457 180.184C224.344 178.767 224.227 177.3 224.258 175.809C224.272 175.245 224.299 174.685 224.331 174.119L224.375 173.217C224.405 172.46 224.415 171.703 224.423 170.942L224.426 170.662C224.437 169.849 224.469 169.036 224.521 168.225L224.562 167.647L224.583 167.384C224.621 166.873 224.658 166.386 224.709 165.899L224.794 165.383L224.883 164.825L224.897 164.727C224.934 164.47 224.972 164.209 224.982 163.947C224.987 163.831 224.983 163.714 224.972 163.598C224.963 163.513 224.959 163.427 224.958 163.341C224.961 163.258 224.952 163.175 224.931 163.094L225.022 163.101C225.668 162.928 226.308 162.735 226.942 162.523H226.943ZM254.023 122.925L253.427 122.953C252.707 122.976 251.985 122.98 251.268 122.983H250.992L250.722 122.987C249.972 122.99 249.14 123.037 248.029 123.135C247.333 123.2 246.637 123.246 245.939 123.294L245.41 123.331C244.82 123.368 244.234 123.425 243.647 123.483L242.915 123.558C241.861 123.663 240.985 123.757 240.084 123.946C239.191 124.139 238.284 124.433 237.684 124.626L237.479 124.69C236.562 124.977 235.676 125.416 234.895 125.805L234.1 126.2C233.456 126.522 232.815 126.843 232.177 127.177C230.475 128.062 228.851 129.089 227.321 130.247C226.621 130.798 225.934 131.365 225.259 131.947L225.187 132.011L224.901 132.257C224.137 132.914 223.403 133.606 222.701 134.33C222.221 134.833 221.757 135.347 221.286 135.871L220.71 136.513C219.889 137.423 219.166 138.355 218.623 139.066C218.156 139.677 217.733 140.343 217.393 140.88L217.308 141.019L217.065 141.401C216.552 142.2 216.062 143.012 215.593 143.838L215.435 144.115C215.141 144.632 214.852 145.151 214.566 145.673C214.069 146.576 213.707 147.515 213.38 148.401C213.018 149.388 212.691 150.381 212.414 151.355C212.267 151.901 212.129 152.449 211.999 152.999L211.924 153.312L211.845 153.62L211.719 154.117C211.462 155.137 211.232 156.164 211.03 157.197C210.669 159.042 210.43 161.005 210.27 163.377C210.16 165.067 210.079 166.924 210.017 169.215C209.991 170.643 209.998 172.071 210.038 173.498L210.062 174.918C210.079 175.864 210.12 176.79 210.182 177.75C210.216 178.226 210.225 178.7 210.236 179.176L210.243 179.349L210.246 179.531L210.266 180.37C210.318 181.94 210.42 183.483 210.529 185.058L210.543 185.264L210.556 185.477L210.601 186.099L210.611 186.264C211.054 187.785 211.441 189.319 211.849 190.847C212.057 191.622 212.251 192.399 212.455 193.173C212.62 193.789 212.838 194.383 213.062 194.975C213.509 196.08 213.993 197.158 214.457 198.253C214.9 199.291 215.333 200.328 215.79 201.36C216.303 202.5 216.839 203.631 217.396 204.75C217.57 204.831 217.73 204.942 217.873 205.085C218.463 205.665 218.965 206.352 219.483 206.997C219.895 207.518 220.311 208.036 220.728 208.556C221.59 209.644 222.456 210.733 223.312 211.827C223.86 212.53 224.409 213.232 224.959 213.933C225.617 214.714 226.275 215.492 226.951 216.256C227.128 216.384 227.274 216.55 227.38 216.736C227.499 216.868 227.618 216.999 227.738 217.127C228.014 217.432 228.294 217.733 228.566 218.04L228.713 218.203C228.993 218.409 229.278 218.602 229.579 218.777C229.637 218.797 229.699 218.818 229.759 218.834C229.79 218.838 229.821 218.838 229.855 218.841C230.285 218.635 230.82 218.502 231.299 218.581C231.543 217.964 231.775 217.342 231.993 216.716C232.193 216.117 232.331 215.481 232.46 214.87L232.55 214.46C232.784 213.345 232.927 212.483 233.013 211.669C233.091 210.901 233.053 210.1 232.897 209.219C233.107 209.451 233.275 209.624 233.442 209.8L233.715 210.098C233.968 210.375 234.165 210.591 234.383 210.786C234.737 211.107 235.096 211.392 235.447 211.625C235.99 212.006 236.566 212.34 237.166 212.622L237.247 212.666L237.731 212.909C238.185 213.143 238.645 213.369 239.116 213.579C240 213.99 240.912 214.334 241.847 214.609C242.694 214.871 243.55 215.102 244.414 215.302L244.694 215.37L244.81 215.404C245.083 215.474 245.353 215.542 245.621 215.6C246.013 215.678 246.406 215.728 246.798 215.78L246.924 215.796L247.231 215.836C247.916 215.928 248.656 216.012 249.41 216.012C249.597 216.012 249.792 216.006 249.983 215.995C250.526 215.952 251.067 215.89 251.606 215.809C252.155 215.729 252.598 215.634 253.001 215.519C253.4 215.407 253.791 215.276 254.184 215.141L254.289 215.1L254.395 215.066C254.442 215.083 254.491 215.091 254.541 215.089C254.671 215.089 254.811 215.073 254.971 215.042C255.149 215.005 255.319 214.93 255.483 214.859L255.708 214.755C256.108 214.589 256.503 214.41 256.891 214.217C256.851 214.254 256.847 214.325 256.847 214.387C256.843 215.07 257.177 215.671 257.764 216.04L257.914 216.134C257.948 216.313 258.009 216.503 258.088 216.694C258.385 217.452 258.848 218.135 259.217 218.682L259.435 219.007C260.007 219.875 260.785 220.673 261.739 221.38C262.012 221.58 262.309 221.755 262.602 221.927L262.746 222.015L263.12 222.242C263.601 222.556 264.082 222.861 264.58 223.145L264.72 223.225C265.313 223.563 265.845 223.874 266.325 224.235C266.527 224.425 266.715 224.635 266.895 224.881C267.085 225.162 267.267 225.493 267.434 225.865C267.601 226.375 267.717 226.93 267.809 227.663C267.867 228.464 267.897 229.154 267.897 229.769C267.901 230.134 267.887 230.503 267.874 230.867L267.87 230.966C267.856 231.358 267.847 231.72 267.85 232.081C267.864 233.659 267.834 235.237 267.761 236.813C267.734 237.573 267.775 238.33 267.822 239.108L267.832 239.24C267.881 240.102 267.935 240.991 268.051 241.836C268.171 242.694 268.443 243.502 268.668 244.111C269.067 245.216 269.725 246.308 270.618 247.359C271.068 247.882 271.481 248.295 271.914 248.66L272.184 248.884C272.439 249.1 272.694 249.313 272.95 249.522C273.162 249.691 273.367 249.85 273.602 249.989C273.722 250.063 273.854 250.124 273.991 250.185L274.206 250.283L274.523 250.435C275.048 250.689 275.563 250.928 276.073 251.115C276.542 251.286 277.015 251.462 277.476 251.662C278.423 252.148 279.279 252.812 280.067 253.45C280.394 253.737 280.707 254.011 280.977 254.329C281.059 254.457 281.137 254.602 281.209 254.751C281.448 255.515 281.577 256.351 281.686 257.019L281.71 257.168C281.905 258.395 282.573 259.648 283.596 260.697C284.233 261.339 284.997 261.744 285.856 262.17C286.269 262.376 286.695 262.59 287.081 262.853C287.455 263.106 287.807 263.377 288.154 263.658C288.68 264.121 289.204 264.638 289.76 265.239C290.286 265.814 290.835 266.367 291.404 266.899C291.789 267.25 292.184 267.589 292.587 267.899C293.105 268.299 293.726 268.555 294.32 268.771C295.205 269.113 296.239 269.285 296.992 269.407C298.032 269.583 298.854 269.667 299.598 269.674H299.689C300.089 269.674 300.487 269.664 300.886 269.654C301.737 269.627 302.589 269.628 303.44 269.658C303.76 269.668 304.084 269.674 304.408 269.681C304.947 269.681 305.428 269.633 305.875 269.589C306.427 269.525 306.88 269.353 307.266 269.197C308.636 268.67 309.036 267.183 309.39 265.874L309.445 265.658C309.622 265.009 309.775 264.354 309.929 263.698C310.262 262.242 310.549 260.775 310.789 259.301C311.006 257.939 311.129 256.604 311.153 255.326C311.166 254.423 311.023 253.497 310.908 252.753L310.88 252.568C310.796 252.006 310.72 251.442 310.652 250.878C310.577 249.61 310.635 248.338 310.826 247.082C310.979 246.44 311.17 245.788 311.357 245.158C311.6 244.341 311.856 243.495 312.022 242.63C312.38 240.744 312.612 239.05 312.729 237.452C312.789 236.637 312.851 235.822 312.895 235.005C312.915 234.63 312.933 234.251 312.936 233.875C312.935 233.586 312.912 233.297 312.868 233.011L312.844 232.787C312.806 232.497 312.694 232.213 312.612 232.007L312.53 231.804C312.442 231.583 312.346 231.367 312.24 231.154C311.886 230.422 311.382 229.711 311.013 229.198L310.751 228.826L310.311 228.191C309.913 227.606 309.507 227.026 309.091 226.453L308.691 225.903L308.313 225.383L307.853 224.75C307.341 224.006 306.813 223.195 306.427 222.296L306.376 222.14L306.326 221.988C306.205 221.619 306.121 221.238 306.076 220.852C306.018 220.17 305.966 219.442 306.018 218.713C306.079 217.929 306.171 217.141 306.291 216.381C306.509 215.011 306.703 213.565 306.901 211.834C307.116 209.918 307.136 208.13 306.962 206.518C306.928 206.197 306.833 205.892 306.728 205.555L306.635 205.25C306.524 204.882 306.404 204.517 306.274 204.155L306.199 203.938C305.943 203.212 305.639 202.353 305.24 201.6C304.873 200.883 304.422 200.17 304.027 199.538L303.563 198.801C302.986 197.861 302.223 196.624 301.401 195.498C300.761 194.61 300.106 193.741 299.448 192.872L299.294 192.67C298.582 191.742 297.878 190.806 297.184 189.864L296.494 188.918L296.15 188.441C295.96 188.164 295.779 187.881 295.595 187.597L295.536 187.512L295.482 187.43L295.134 186.9C294.828 186.434 294.514 185.984 294.084 185.595C294.104 185.065 294.098 184.51 294.087 183.945L294.067 183.05C294.048 181.043 294.015 179.036 293.967 177.03C293.944 175.901 293.817 174.759 293.719 173.84L293.692 173.586L293.668 173.356C293.59 172.67 293.524 171.982 293.47 171.294C293.354 169.631 293.166 167.431 292.754 165.179C292.474 163.628 292.066 162.09 291.701 160.732L291.503 160.008C291.267 159.11 290.983 158.226 290.653 157.358C290.448 156.813 290.253 156.264 290.068 155.712C289.953 155.375 289.836 155.038 289.716 154.702C289.325 153.576 288.954 152.443 288.605 151.304C288.274 150.256 287.851 149.26 287.336 148.063L287.285 147.941L287.169 147.674C286.849 146.91 286.545 146.194 286.231 145.481C286.052 145.097 285.867 144.716 285.675 144.338L285.598 144.176L285.519 144.013L285.441 143.858L285.167 143.321C284.782 142.561 284.383 141.776 283.957 141.066C283.548 140.391 283.123 139.725 282.682 139.069L282.624 138.981C282.185 138.292 281.722 137.618 281.236 136.96C280.988 136.635 280.735 136.313 280.476 135.996L280.306 135.787L280.22 135.681L280.142 135.587L280.064 135.497L279.661 135.013C279.165 134.412 278.642 133.833 278.093 133.279C277.469 132.67 276.78 132.147 276.223 131.724L275.651 131.244L275.457 131.085C274.905 130.632 274.444 130.25 273.994 129.929C273.227 129.385 272.422 128.895 271.587 128.462C270.09 127.661 268.603 126.841 267.127 126.002C264.456 124.491 261.756 123.502 259.103 123.061C258.275 122.928 257.391 122.864 256.327 122.864C255.56 122.864 254.79 122.894 254.023 122.924" fill="black"/>
<path fill-rule="evenodd" clip-rule="evenodd" d="M226.4 220.7C226.404 220.64 226.407 220.582 226.407 220.522L226.39 220.504C226.35 220.464 226.309 220.425 226.267 220.387C226.311 220.488 226.356 220.597 226.4 220.701V220.7ZM290.054 167.753L290.084 167.834C290.074 167.807 290.064 167.78 290.054 167.753V167.753ZM286.525 157.437L286.545 157.492L286.525 157.437ZM282.219 147.422C282.734 148.392 283.232 149.369 283.716 150.352C284.105 151.147 284.422 151.968 284.739 152.792C284.724 152.758 284.711 152.723 284.698 152.688C285.001 153.513 285.291 154.341 285.604 155.158C285.92 155.964 286.254 156.763 286.574 157.568C286.872 158.39 287.17 159.218 287.429 160.053C287.712 160.976 287.992 161.898 288.285 162.818C288.554 163.656 288.786 164.504 289.096 165.326C289.42 166.188 289.766 167.048 290.109 167.904C290.263 168.327 290.406 168.751 290.521 169.186C290.654 169.676 290.771 170.17 290.886 170.666C291.097 171.556 291.248 172.455 291.449 173.346C291.674 174.331 291.875 175.317 292.083 176.304C292.278 177.248 292.451 178.2 292.725 179.124C293.011 180.09 293.222 181.074 293.512 182.037C293.822 183.067 294.221 184.067 294.641 185.055C295.032 185.975 295.387 186.911 295.793 187.823C296.203 188.753 296.653 189.662 297.078 190.582C297.406 191.278 297.723 191.981 298.046 192.678C298.384 193.404 298.766 194.107 299.156 194.813C299.516 195.469 299.892 196.118 300.236 196.788C300.564 197.4 300.856 198.03 301.112 198.675C301.312 199.246 301.507 199.818 301.685 200.398C301.882 201.038 301.964 201.722 302.062 202.383C302.228 204.3 302.287 206.222 302.257 208.148C302.23 210.22 301.903 212.275 301.607 214.323C301.494 215.104 301.347 215.885 301.217 216.662C301.241 216.534 301.266 216.402 301.289 216.27C301.054 217.589 300.826 218.91 300.539 220.215C300.396 220.867 300.202 221.513 300.031 222.158C299.864 222.79 299.776 223.442 299.598 224.075C299.448 224.602 299.629 225.167 300.106 225.47C300.646 225.812 301.47 225.676 301.801 225.098C302.336 224.162 302.718 223.112 303.035 222.08C303.199 221.553 303.345 221.032 303.475 220.495C303.605 219.978 303.697 219.444 303.802 218.92C304.003 217.954 304.171 216.98 304.348 216.01C304.559 214.83 304.758 213.65 304.928 212.468C305.074 211.477 305.195 210.483 305.292 209.486C305.337 208.973 305.333 208.452 305.34 207.938C305.346 207.451 305.345 206.965 305.337 206.478C305.314 205.421 305.264 204.365 305.187 203.311C305.101 202.199 304.989 201.084 304.713 199.999C304.59 199.509 304.416 199.031 304.249 198.556C304.041 197.976 303.82 197.401 303.584 196.831C303.505 196.632 303.396 196.439 303.301 196.251C303.181 196.013 303.062 195.774 302.94 195.54C302.694 195.077 302.439 194.618 302.176 194.164C301.661 193.282 301.143 192.396 300.703 191.474C300.246 190.52 299.793 189.564 299.322 188.614C298.79 187.536 298.265 186.461 297.798 185.349C297.368 184.318 296.88 183.309 296.457 182.272C296.307 181.856 296.16 181.442 296.021 181.022C295.868 180.553 295.759 180.069 295.619 179.597C295.339 178.67 295.022 177.758 294.787 176.821C294.542 175.845 294.324 174.861 294.091 173.881C293.866 172.948 293.617 172.022 293.376 171.091C293.256 170.629 293.113 170.173 292.976 169.714C292.84 169.25 292.725 168.774 292.556 168.32C292.362 167.776 292.146 167.239 291.909 166.712C291.721 166.308 291.537 165.903 291.357 165.495C291.149 165.025 290.937 164.555 290.737 164.082C290.548 163.632 290.382 163.176 290.187 162.73C289.99 162.27 289.799 161.807 289.604 161.348C289.417 160.908 289.205 160.483 289.018 160.046C288.605 159.063 288.169 158.091 287.708 157.13C287.266 156.21 286.795 155.304 286.365 154.378C285.939 153.456 285.554 152.512 285.158 151.576C284.769 150.676 284.345 149.792 283.887 148.926C283.559 148.301 283.235 147.679 282.905 147.056C282.876 146.996 282.831 146.946 282.774 146.911C282.718 146.876 282.653 146.857 282.586 146.858C282.326 146.858 282.06 147.121 282.219 147.422" fill="black"/>
<path fill-rule="evenodd" clip-rule="evenodd" d="M290.233 181.51C290.123 181.568 290.041 181.668 290.004 181.787C289.968 181.906 289.98 182.035 290.038 182.145C290.345 182.706 290.662 183.26 290.955 183.829C291.187 184.271 291.415 184.714 291.644 185.157C291.958 185.762 292.282 186.363 292.568 186.978C292.896 187.692 293.23 188.402 293.55 189.118L293.592 189.211C293.696 189.548 293.814 189.882 293.939 190.214C294.143 190.758 294.393 191.271 294.645 191.795C294.695 191.886 294.77 191.961 294.861 192.01C294.953 192.06 295.056 192.083 295.16 192.075C295.263 192.068 295.362 192.031 295.446 191.969C295.529 191.907 295.593 191.822 295.629 191.725C295.799 191.735 295.973 191.699 296.139 191.613C296.366 191.491 296.543 191.285 296.622 191.042C296.677 190.815 296.684 190.7 296.65 190.47C296.633 190.342 296.626 190.207 296.602 190.078L296.52 189.611C296.467 189.305 296.408 189 296.343 188.696C296.282 188.398 296.216 188.101 296.155 187.8L296.063 187.364C296.043 187.265 296.023 187.164 295.998 187.066C295.958 186.861 295.865 186.664 295.79 186.468C295.706 186.313 295.59 186.188 295.44 186.09L295.4 186.067C295.301 185.771 295.197 185.477 295.088 185.187C294.963 184.867 294.822 184.553 294.665 184.247C294.51 183.948 294.298 183.682 294.041 183.463C293.891 183.325 293.731 183.23 293.516 183.223C293.385 183.219 293.255 183.249 293.138 183.309C293.021 183.37 292.921 183.459 292.848 183.568C292.811 183.614 292.781 183.665 292.76 183.72L292.677 183.893C292.649 184 292.635 184.11 292.637 184.221C292.626 184.396 292.684 184.575 292.712 184.747C292.74 184.934 292.766 185.123 292.797 185.31L292.527 184.788C292.288 184.336 292.053 183.882 291.817 183.43C291.515 182.848 291.194 182.277 290.877 181.703C290.815 181.594 290.714 181.514 290.594 181.478C290.474 181.442 290.345 181.453 290.233 181.51V181.51ZM267.427 208.062C267.287 208.107 267.171 208.147 267.048 208.224C266.938 208.293 266.837 208.377 266.731 208.454C266.649 208.515 266.574 208.584 266.493 208.647C266.247 208.839 266.005 209.036 265.76 209.232C265.692 209.286 265.624 209.339 265.555 209.392C265.394 209.249 265.19 209.164 264.975 209.151C264.743 209.132 264.508 209.146 264.28 209.195C264.065 209.242 263.857 209.343 263.653 209.417C263.373 209.522 263.103 209.651 262.837 209.783C262.527 209.931 262.22 210.087 261.917 210.249C261.6 210.422 261.276 210.625 261.027 210.885C260.587 211.338 260.352 212.038 260.645 212.632C260.678 212.697 260.721 212.758 260.77 212.812C260.663 212.883 260.558 212.956 260.454 213.031C260.256 213.18 260.188 213.491 260.244 213.717C260.321 214.049 260.594 214.224 260.914 214.268C261.156 214.298 261.392 214.194 261.593 214.075C261.828 213.94 262.046 213.775 262.265 213.615C262.486 213.453 262.701 213.275 262.915 213.098C263.243 212.832 263.563 212.554 263.88 212.274C264.164 212.031 264.436 211.777 264.713 211.527C264.853 211.398 264.993 211.27 265.136 211.142C265.204 211.077 265.276 211.017 265.343 210.956C265.403 210.904 265.458 210.861 265.511 210.807L266.135 210.31C266.267 210.205 266.399 210.098 266.531 209.99L266.407 210.3C266.22 210.78 266.022 211.256 265.827 211.733C265.674 212.118 265.545 212.514 265.407 212.906C265.185 213.543 264.973 214.184 264.774 214.829C264.71 215.049 264.828 215.289 265.05 215.357C265.157 215.39 265.272 215.38 265.371 215.33C265.471 215.279 265.546 215.192 265.582 215.086C265.763 214.495 265.957 213.909 266.162 213.326C266.302 212.926 266.425 212.516 266.588 212.128C266.963 211.232 267.322 210.326 267.73 209.442C267.799 209.302 267.864 209.16 267.924 209.016C267.986 208.871 268.006 208.711 268.03 208.559C268.078 208.294 267.798 208.045 267.54 208.045C267.502 208.045 267.464 208.05 267.427 208.062ZM290.937 192.055C290.891 193.041 290.884 194.029 290.917 195.016C290.944 195.969 290.968 196.926 291.023 197.879C291.077 198.825 291.118 199.769 291.203 200.712C291.292 201.715 291.373 202.722 291.48 203.726C291.775 206.578 292.071 209.431 292.38 212.282L292.503 213.602C292.54 214.016 292.588 214.425 292.612 214.837L292.701 216.464C292.606 216.139 292.535 215.809 292.451 215.486C292.229 214.624 292.011 213.766 291.8 212.904C290.406 207.142 288.897 201.408 287.272 195.706C287.212 195.502 287.151 195.298 287.098 195.092C287.099 195.048 287.092 195.004 287.078 194.962C287.067 194.924 287.054 194.887 287.04 194.85C286.941 194.58 286.71 194.39 286.406 194.458C286.271 194.49 286.154 194.575 286.08 194.692C286.006 194.81 285.981 194.952 286.01 195.088C286.106 195.493 286.228 195.895 286.344 196.294L286.897 198.258C287.074 198.887 287.242 199.515 287.405 200.144C287.893 202.014 288.408 203.875 288.857 205.754C289.318 207.688 289.798 209.622 290.218 211.565C290.419 212.515 290.628 213.465 290.828 214.415C291.029 215.371 291.21 216.335 291.442 217.284C291.582 217.851 291.719 218.417 291.875 218.981C291.95 219.251 292.025 219.521 292.107 219.792C292.148 219.938 292.192 220.08 292.229 220.225C292.281 220.408 292.336 220.587 292.431 220.752C292.544 220.952 292.721 221.09 292.908 221.215C293.427 221.56 294.132 221.273 294.323 220.708C294.422 220.421 294.528 220.144 294.586 219.846C294.653 219.502 294.7 219.154 294.729 218.805C294.779 218.227 294.779 217.639 294.756 217.058C294.736 216.499 294.713 215.94 294.688 215.381C294.651 214.408 294.556 213.438 294.477 212.464C294.395 211.43 294.275 210.395 294.17 209.361C294.075 208.415 293.986 207.468 293.894 206.522C293.776 205.332 293.656 204.14 293.535 202.949C293.454 202.044 293.375 201.14 293.293 200.239C293.211 199.322 293.181 198.399 293.127 197.481C293.025 195.699 292.993 193.914 292.891 192.133C292.878 191.866 292.819 191.64 292.631 191.437C292.455 191.248 292.212 191.136 291.954 191.126H291.916C291.665 191.127 291.424 191.224 291.242 191.397C291.06 191.569 290.951 191.805 290.937 192.056V192.055ZM212.552 180.372V180.371L212.553 180.382V180.372H212.552ZM212.549 180.342L212.551 180.358C212.55 180.352 212.549 180.347 212.549 180.341V180.342ZM211.372 175.846C211.318 177.519 211.281 179.212 211.382 180.886C211.427 181.68 211.519 182.471 211.598 183.262C211.673 183.989 211.811 184.709 211.898 185.432C211.958 186.122 212.043 186.802 212.164 187.484C212.286 188.156 212.429 188.822 212.549 189.494C212.774 190.786 212.975 192.084 213.197 193.374C213.422 194.697 213.701 196.004 214.134 197.279C214.615 198.705 215.182 200.101 215.72 201.511C216.184 202.728 216.726 203.931 217.384 205.059C218.062 206.216 218.795 207.334 219.518 208.46C219.931 209.106 220.34 209.748 220.791 210.363C221.227 210.958 221.694 211.512 222.188 212.06C222.605 212.52 223.031 212.976 223.45 213.439C223.896 213.929 224.333 214.436 224.814 214.895C225.458 215.514 226.137 216.095 226.791 216.707C227.384 217.262 227.896 217.904 228.445 218.502C229.028 219.142 229.638 219.757 230.195 220.422C230.449 220.731 230.7 221.045 230.945 221.364C231.551 222.386 232.025 223.493 232.581 224.539C232.718 224.793 232.851 225.043 232.98 225.296C233.028 225.387 233.076 225.476 233.126 225.566C233.147 225.603 233.167 225.641 233.192 225.678C233.389 226.02 233.529 226.158 233.832 226.395C233.962 226.496 234.115 226.571 234.276 226.605C234.426 226.628 234.576 226.655 234.726 226.682C235.028 226.694 235.328 226.625 235.595 226.482C235.745 226.418 235.885 226.323 235.991 226.202C236.263 225.888 236.297 225.827 236.471 225.442C236.564 225.242 236.561 224.995 236.591 224.775C236.605 224.665 236.621 224.553 236.635 224.438C236.674 224.155 236.669 223.872 236.641 223.591L236.669 223.551C236.913 223.217 237.07 222.801 237.241 222.427C237.521 221.831 237.781 221.239 237.961 220.597C238.193 219.781 238.254 218.927 238.376 218.089C238.458 217.679 238.548 217.269 238.61 216.853C238.687 216.289 238.686 215.717 238.606 215.153C238.535 214.598 238.276 214.074 238.023 213.584C237.802 213.161 237.558 212.751 237.293 212.354C236.17 210.662 234.883 209.093 233.543 207.566C233.474 207.478 233.402 207.392 233.328 207.308C232.823 206.736 231.93 206.608 231.262 206.962C230.999 207.102 230.788 207.297 230.624 207.547C230.358 207.96 230.334 208.379 230.399 208.849C230.447 209.203 230.647 209.508 230.852 209.792C231.071 210.092 231.285 210.397 231.507 210.694L231.588 210.804C231.679 210.999 231.764 211.196 231.845 211.396C232.051 212.014 232.244 212.636 232.425 213.262C232.139 213.196 231.841 213.201 231.557 213.275C231.272 213.35 231.011 213.493 230.794 213.692C230.565 213.901 230.395 214.167 230.3 214.462L230.257 214.703C229.955 214.394 229.647 214.093 229.322 213.805C228.453 212.79 227.609 211.754 226.791 210.698C226.229 209.971 225.646 209.26 225.098 208.523C223.606 206.198 222.283 203.769 221.142 201.253C220.886 200.693 220.675 200.101 220.456 199.523C220.21 198.885 219.968 198.242 219.723 197.6C219.206 196.24 218.675 194.886 218.131 193.537C218.003 193.225 217.87 192.915 217.732 192.607C217.432 191.927 216.552 191.603 215.86 191.763C215.576 191.831 215.314 191.971 215.1 192.17L215.076 192.084C214.701 190.738 214.356 189.383 213.998 188.034C213.828 187.388 213.651 186.746 213.511 186.094C213.374 185.452 213.279 184.799 213.152 184.157C213.03 183.549 212.894 182.95 212.808 182.336C212.724 181.714 212.638 181.088 212.564 180.463C212.462 178.941 212.436 177.415 212.488 175.89C212.493 175.743 212.439 175.6 212.339 175.492C212.239 175.384 212.1 175.319 211.953 175.312H211.933C211.789 175.313 211.651 175.368 211.547 175.468C211.443 175.567 211.381 175.702 211.373 175.846H211.372ZM258.903 214.809L258.812 214.918C258.839 214.879 258.87 214.842 258.902 214.808L258.903 214.809ZM257.632 213.214C257.114 213.589 256.906 214.295 256.756 214.88C256.712 215.07 256.664 215.26 256.62 215.448C256.527 215.85 256.484 216.219 256.538 216.631C256.623 217.291 256.776 217.943 256.926 218.588C257.063 219.18 257.173 219.778 257.339 220.363C257.519 221.001 257.833 221.56 258.134 222.145C258.359 222.587 258.628 223.04 258.999 223.375C259.259 223.611 259.507 223.814 259.815 223.976C260.04 224.094 260.268 224.209 260.493 224.331C261.053 224.632 261.608 224.891 262.235 225.021C262.801 225.138 263.375 225.201 263.943 225.286C264.101 225.318 264.253 225.359 264.403 225.411L264.46 225.445C264.671 225.787 264.865 226.149 265.024 226.52C265.15 226.886 265.262 227.258 265.403 227.624C265.529 227.944 265.741 228.208 265.955 228.485C266.14 228.651 266.335 228.806 266.535 228.952C266.76 229.121 267.142 229.236 267.425 229.31C267.909 229.438 268.435 229.472 268.935 229.493C269.355 229.508 269.769 229.387 270.114 229.146C270.46 228.906 270.717 228.56 270.849 228.161C271.173 227.16 270.593 226.085 269.597 225.757C269.455 225.71 269.313 225.664 269.172 225.615C269.017 225.112 268.869 224.607 268.639 224.125C268.268 223.34 267.735 222.577 267.023 222.07C266.331 221.576 265.529 221.363 264.703 221.232C263.993 221.122 263.27 221.145 262.556 221.07C262.134 220.957 261.721 220.813 261.32 220.64C261.249 220.602 261.18 220.561 261.112 220.518C260.843 220.235 260.593 219.933 260.365 219.616C259.789 218.75 259.363 217.79 258.987 216.823C258.889 216.552 258.808 216.274 258.745 215.993C258.751 215.76 258.773 215.533 258.8 215.303C258.841 215.118 258.894 214.936 258.958 214.757C258.979 214.74 259.001 214.723 259.024 214.708C259.474 214.377 259.43 213.643 259.082 213.268C258.896 213.071 258.64 212.954 258.369 212.944L258.333 212.943C258.054 212.943 257.852 213.052 257.633 213.213" fill="black"/>
<path opacity="0.6" fill-rule="evenodd" clip-rule="evenodd" d="M242 201L246 200L248 201L252 199L255 201L251 206H247L245 204L242 201Z" fill="black"/>
</svg>
