<svg width="500" height="600" xmlns="http://www.w3.org/2000/svg" xmlns:xlink="http://www.w3.org/1999/xlink"><defs><path id="a" d="M0 .286h102.935V148.39H0z"/></defs><g fill="none" fill-rule="evenodd"><path d="M253.575 180.875c-.041-.007-.086-.01-.127-.017.041.007.086.014.127.017m-9.013 12.228c-.126.457.02.897.324 1.2h.004a8.45 8.45 0 001.422.317c.787.062 1.572.082 2.359.082.79.004 1.589.018 2.38-.023.808-.041 1.616-.048 2.424-.09.392-.02.78-.05 1.173-.091.116-.293.164-.567.079-.894a1.515 1.515 0 00-.096-.269.407.407 0 01-.017-.062 1.003 1.003 0 00-.19-.401c-.477.133-.956.251-1.446.32-.58.085-1.163.18-1.746.238-.464.041-.931.065-1.395.099-.388.028-.808.1-1.197.062-.406-.041-.856-.062-1.203-.304-.293-.2-.564-.5-.698-.846l-.642-.21a1.024 1.024 0 00-.335-.055c-.538 0-1.057.402-1.2.927m-2.022-15.953l.065.087a4.56 4.56 0 01-.066-.088m-1.725-1.646l.082.06-.082-.06m-5.882-3.29c-.413.15-.818.312-1.223.473-.424.167-.853.337-1.256.55a6.977 6.977 0 00-1.193.766c-.292.236-.581.477-.875.71-.575.431-1.159.846-1.72 1.294a6.782 6.782 0 00-.57.508c-.101.103-.244.21-.309.338-.075.15-.089.315 0 .464a.45.45 0 00.395.228c.167-.003.335-.085.484-.15.16-.068.307-.153.46-.234.502-.27.98-.587 1.457-.898.256-.163.511-.327.767-.494.231-.153.45-.324.678-.48.436-.302.922-.525 1.405-.733.378-.148.765-.267 1.15-.396a8.761 8.761 0 011.285-.343 6.51 6.51 0 01.726-.008c.225.01.453.048.679.078-.09-.01-.178-.024-.263-.034.204.027.406.061.607.102.17.034.337.099.501.157.328.111.65.239.973.365.132.061.263.126.394.194.154.079.297.18.447.27.26.155.518.306.766.479.341.299.656.622.99.925.164.15.33.29.491.444.168.164.323.338.475.516.097.137.186.275.275.421a.97.97 0 001.313.345.973.973 0 00.348-1.316c-.093-.15-.177-.308-.28-.45-.126-.185-.26-.366-.389-.55-.153-.211-.296-.436-.47-.633-.13-.15-.256-.3-.382-.45-.276-.332-.56-.676-.886-.96-.396-.333-.823-.585-1.276-.831a7.819 7.819 0 00-2.604-.849 10.74 10.74 0 00-1.49-.117c-.638 0-1.273.08-1.88.298" fill="#000"/><path d="M236.705 176.664a.66.66 0 01.15-.082.278.278 0 01.057-.007c.021 0 .038.003.059.007a.25.25 0 01.119.03c.034.018.069.034.1.059.03.023.064.047.094.071a.565.565 0 01.072.088.732.732 0 01.06.15c.008.042.011.08.018.12-.003.038-.01.075-.014.113l-.04.098a.599.599 0 01-.328.283c-.013.007-.03.01-.047.018a.222.222 0 01-.195.116.399.399 0 01-.245-.068.374.374 0 01-.123-.161.5.5 0 01-.041-.263l-.017-.01c-.037-.034-.075-.068-.109-.106.032-.03.061-.062.092-.092a.751.751 0 01.003-.126.213.213 0 01.065-.153.212.212 0 01.154-.065c.024 0 .048.007.071.014.014-.014.03-.024.045-.034m-.925-4.109a3.978 3.978 0 00-.6.272c-.187.103-.35.256-.518.397-.218.18-.395.426-.562.664-.154.15-.28.33-.406.502a3.702 3.702 0 00-.72 1.701c-.095.535-.174 1.05.028 1.575.252.658.716 1.244 1.241 1.708.238.212.501.402.77.577.307.197.686.306 1.034.395.678.17 1.387.123 2.07.017a4.167 4.167 0 001.05-.317 7.73 7.73 0 00.484-.238 2.64 2.64 0 00.576-.4c.5-.51.801-1.156.917-1.857.116-.72.126-1.453-.13-2.145-.249-.686-.555-1.45-1.074-1.978-.248-.252-.576-.447-.886-.614-.324-.17-.675-.3-1.026-.402a2.88 2.88 0 00-.846-.123c-.474 0-.948.105-1.402.266" fill="#000"/><path d="M240.926 178.514c-.195.02-.29.04-.464.126-.064.034-.126.078-.19.116-.196.11-.4.206-.606.3-.323.125-.664.199-1 .273-.306.066-.61.13-.915.177-.424.055-.85.113-1.275.17l.191-.027c-.658.055-1.337.036-1.994-.038a3.575 3.575 0 01-.59-.15c-.226-.12-.446-.252-.668-.382a.668.668 0 00-.901.236.666.666 0 00.236.9c.17.096.34.195.511.29.354.205.723.324 1.122.399.422.078.859.109 1.285.146.3.025.6.059.9.052.314-.004.628-.052.938-.09.365-.043.733-.087 1.091-.17.324-.074.648-.153.972-.238.443-.116.86-.3 1.275-.484.28-.123.552-.222.71-.512a.742.742 0 000-.733c-.113-.192-.349-.363-.584-.363l-.044.002m28.305-1.59l.076.06-.076-.06m-11.613-.098l-.05.04.05-.04m5.81-4.477c-.593.01-1.176.075-1.76.18-.497.092-.97.27-1.441.454-1.01.398-1.89 1.023-2.769 1.65-.474.341-.935.692-1.368 1.084-.18.164-.34.349-.504.526-.355.385-.682.78-.99 1.207-.275.385-.067.968.315 1.193.2.116.446.15.671.088.236-.064.383-.21.522-.402l.145-.196c.373-.448.798-.85 1.253-1.215a33.84 33.84 0 011.616-1.047c.472-.298.961-.565 1.47-.792a10.218 10.218 0 011.726-.446c.557-.04 1.1-.05 1.654.008.403.068.806.15 1.206.237.416.097.82.225 1.22.374.206.093.413.19.614.295.287.147.56.317.84.47.272.15.552.304.804.485.244.177.482.364.725.54.158.126.312.255.472.38.33.26.661.433 1.053.58.341.123.747-.082.921-.375a.828.828 0 00-.293-1.119 2.438 2.438 0 01-.114-.068c-.318-.27-.612-.562-.91-.855a9.41 9.41 0 00-1.251-1.085c-.426-.3-.866-.586-1.315-.852-.472-.28-.982-.487-1.491-.689-.437-.17-.904-.276-1.36-.385-.507-.12-1.042-.227-1.569-.227l-.091.002" fill="#000"/><path d="M263.733 176.89c.03.017.058.035.087.053l.011.012c.03.045.057.09.082.137.018.063.034.125.049.188.003.093.003.183-.002.276a6.79 6.79 0 01-.088.378l-.151.044-.079.01a3.402 3.402 0 01-.34.018 3.823 3.823 0 01-.195-.055l-.008-.005c-.025-.023-.048-.049-.073-.074a1.569 1.569 0 01-.042-.073 3.941 3.941 0 01-.068-.226v-.018c.015-.06.032-.12.05-.18.041-.075.086-.148.132-.22a4.7 4.7 0 01.183-.19c.09-.03.18-.054.272-.074a2.7 2.7 0 01.18 0m-1.162-3.864c-.167.024-.328.085-.485.144-.88.316-1.708.77-2.376 1.431a3.695 3.695 0 00-1.085 2.572c0 .265.066.531.107.79.027.174.068.335.125.501.192.56.519 1.034.945 1.436l.13.12c.194.304.437.581.712.807.344.287.72.45 1.14.604.384.14.824.187 1.23.194.477.01.975-.075 1.425-.225a4.885 4.885 0 001.954-1.261c.226-.24.402-.511.541-.799.104-.127.2-.26.298-.391.286-.389.34-.904.388-1.368.082-.77-.05-1.592-.49-2.243a2.909 2.909 0 01-.046-.065l-.04-.089c-.188-.408-.5-.777-.79-1.114-.407-.481-.96-.73-1.528-.955-.246-.096-.556-.113-.805-.147a4.106 4.106 0 00-.495-.038h-.058c-.268 0-.534.062-.797.096" fill="#000"/><path d="M260.545 180.507l.082.033a2.298 2.298 0 01-.082-.033m-1.946-.31c-.168.283-.082.698.22.855.458.233.921.46 1.392.662.426.184.86.297 1.316.368.229.038.457.058.682.085.327.038.655.068.982.1.177.013.358.01.536.013.163.007.333.007.497-.01.41-.035.815-.086 1.217-.168.324-.068.638-.17.952-.268.314-.1.627-.182.937-.291.164-.058.327-.119.488-.19.154-.072.3-.161.41-.3a.592.592 0 00.091-.716c-.122-.209-.426-.369-.668-.274-.092.038-.194.055-.29.082-.119.031-.239.065-.358.1-.296.085-.59.163-.886.242-.245.064-.485.149-.733.207-.288.072-.575.126-.867.175a9.842 9.842 0 01-1.343.06 30.349 30.349 0 01-1.412-.09 5.062 5.062 0 01-1.092-.282 24.304 24.304 0 01-1.22-.582.704.704 0 00-.321-.08.603.603 0 00-.53.302m-12.201-6.993c-.317.184-.399.577-.236.89.134.26.263.515.383.778.198.494.293 1.006.378 1.527.082.678.14 1.36.16 2.046a17.28 17.28 0 01-.091 2.145c-.147 1.48-.328 2.96-.508 4.439-.188 1.23-.383 2.462-.696 3.672-.16.61-.352 1.21-.542 1.814-.147.454-.252.928-.43 1.37-.02.045-.04.093-.062.14a1.681 1.681 0 00-.17.618c-.017.15.072.416.147.546.085.145.245.317.402.392a1.018 1.018 0 001.238-.161c.208-.204.31-.49.297-.77.018-.08.039-.157.06-.236a1.201 1.201 0 01-.07-.56c.05-.446.078-.579.259-.981.091-.211.247-.39.398-.565a26.92 26.92 0 00.491-2.07c.188-.952.273-1.927.382-2.892.102-.9.154-1.81.232-2.714.062-.682.12-1.36.167-2.042.045-.61.027-1.218-.014-1.825a22.765 22.765 0 00-.225-2.148c-.047-.31-.113-.617-.177-.923a7.786 7.786 0 00-.324-1.095c-.154-.399-.358-.781-.556-1.163a.631.631 0 00-.566-.317.655.655 0 00-.327.085" fill="#000"/><g transform="translate(210 122.587)"><mask id="b" fill="#fff"><use xlink:href="#a"/></mask><path d="M51.756 89.866c.385-.276.77-.553 1.159-.825l.463-.328.157-.109.161-.112c.079.45.245.862.508 1.288l.072.116-.665.038-.856.089a69.71 69.71 0 01-1.477.17c.168-.11.328-.218.478-.327m14.136-30.204l.168-1.524.143-1.347c.105-1.06.211-2.066.204-3.071v-.682a83.64 83.64 0 00-.02-1.552l.133.048a10.272 10.272 0 01.6-.007l.122.048c.102.34.181.7.24 1.095.013.118.027.245.037.37.038.331.03.7-.024 1.195-.201 1.285-.556 2.547-.897 3.767l-.177.61-.229.815-.166.6-.226.808-.109.403-.034.116c.085-.488.163-1.03.235-1.692m-53.88 3.025l-.25-.075a8.903 8.903 0 01-1.05-.672 4 4 0 01-.432-.402 4.248 4.248 0 01-.338-.61c-.157-.413-.229-.873-.297-1.35l-.043-.4c-.082-.726-.15-1.377-.134-2.022.018-.723.045-1.49.13-2.226.13-.75.269-1.484.521-2.144.27-.6.58-1.14.921-1.6.061-.075.127-.14.198-.205.088-.064.187-.12.283-.173l.188-.052.095.014.099.018.007.555-.058 1.398a28.038 28.038 0 000 2.95c.044.708.092 1.422.143 2.134l.072 1.057a87.3 87.3 0 01.156 2.987c.01.297.017.586.02.873l.008.01a2.091 2.091 0 00-.24-.065m4.932-22.395l.252-.082.644-.208c.675-.214 1.323-.48 2.093-.815.26-.11.519-.218.781-.32a25.396 25.396 0 001.995-.918l.133-.063.624-.311c.32-.157.638-.327.958-.501l.086-.045.442-.239a120.092 120.092 0 004.01-2.213 59.99 59.99 0 002.135-1.316l.157-.102.412-.265 1.177-.764c.16-.103.317-.216.474-.328l.177-.13.133-.091.082-.059c.167-.116.29-.204.406-.303l.303-.242.096-.079c.269-.218.535-.436.79-.668l.235-.218a162.636 162.636 0 012.261-2.019l.068-.057c.427-.383.76-.682 1.068-1.003l.259-.27c.256-.262.642-.657.924-1.036.147-.2.273-.396.4-.596l.053-.082.09-.137.078-.116.15-.218c.034.208.116.378.204.546l.055.098.157.304c.218.406.477.805.818 1.258.263.33.546.679.88.962.225.194.46.385.696.569l.49.382.986.764c.937.723 1.735 1.295 2.448 1.748.695.465 1.518.894 2.06 1.177l.136.068.085.041.113.059.28.14.623.327.239.122c.941.484 1.882.969 2.834 1.425a64.339 64.339 0 003.873 1.678l.123.055a22.41 22.41 0 011.483.689c.61.32 1.129.64 1.596.982.143.123.275.261.429.46.222.286.436.597.631.907.197.32.368.65.556 1.077.487 1.271.856 2.698 1.156 4.487.126 1.068.222 1.954.252 2.817.01.262.017.522.02.78.004.226.007.447.014.669l.041 1.033c-.263.187-.386.6-.286.968a.928.928 0 00.344.501l-.024 2.056c0 .611-.024 1.136-.064 1.61-.032.372-.072.743-.116 1.112l-.042.365-.04.34-.042.341-.023.198c-.055.443-.096.784-.13 1.125a98.41 98.41 0 01-.245 2.22 35.615 35.615 0 01-.453 2.673 25.657 25.657 0 01-.393 1.626c-.113.433-.253.86-.392 1.286l-.045.133c-.231.74-.531 1.599-1.032 2.967-.161.436-.315.87-.467 1.309l-.1.28-.098.282a31.79 31.79 0 01-.3.863 47.16 47.16 0 01-.792 2.029l-.037.092c-.297.678-.596 1.364-.921 2.035-.402.829-.804 1.654-1.224 2.469-.753 1.452-1.756 2.83-2.563 3.935l-.233.317a23.9 23.9 0 01-2.151 2.373c-.396.392-.791.77-1.183 1.125l.113.027.074-.023-.215.129a33.345 33.345 0 00-1.227.91l-.89.645c-.212.15-.427.3-.645.446l-.003-.006-.147.054a6.61 6.61 0 00-.5.256l-.175.102c-1.057.576-1.912 1.007-2.69 1.347-.35.143-.71.263-1.074.382l-.328.11-.122.04c-.198.069-.388.133-.583.198-.375.116-.753.207-1.14.296-.278.052-.565.09-.851.124l-.284.037-.214.017-.276.017-.355.027a5.968 5.968 0 01-.256.007c-.212 0-.42-.01-.628-.024l-.136-.01a25.631 25.631 0 01-1.612-.177l-.116-.007c-.914-.13-1.876-.375-2.646-.573l-.28-.069-.303-.077c-.62-.164-1.16-.311-1.688-.488a29.05 29.05 0 01-1.569-.594c-.32-.143-.634-.297-.948-.45a13.78 13.78 0 01-.47-.242l-.147-.075a7.99 7.99 0 00-.385-.197c-.436-.212-.72-.352-.985-.519a8.326 8.326 0 01-1.44-1.118 8 8 0 01-.592-.631l-.137-.157-.137-.153c-.354-.39-.726-.76-1.101-1.132l-.136-.136a28.033 28.033 0 01-.556-.56l-.092-.095a45.66 45.66 0 01-1.694-1.835c-.284-.327-.56-.658-.836-.989-.57-.96-1.251-1.871-1.913-2.755l-.35-.515a20.046 20.046 0 01-1.133-2.087c-.136-.367-.249-.75-.358-1.13l-.037-.124c-.093-.32-.181-.648-.267-.971l-.027-.103-.03-.112-.041-.147-.116-.436a32.33 32.33 0 01-.56-2.271c-.085-.413-.16-.832-.235-1.255l-.048-.263-.047-.259a40.13 40.13 0 00-.171-.93l-.082-.447-.03-.164a61.435 61.435 0 01-.355-2.005c-.051-.396-.102-.791-.123-1.187a85.255 85.255 0 01-.065-1.565l-.007-.354c-.027-.92-.05-1.824-.112-2.683-.034-.508-.074-1.02-.115-1.528l-.014-.167c-.113-1.43-.23-2.909-.199-4.413.014-.569.041-1.135.073-1.705l.044-.91c.03-.764.04-1.527.048-2.295l.003-.283a47.96 47.96 0 01.095-2.458l.041-.583.021-.265a50.33 50.33 0 01.126-1.498l.085-.521.089-.563.014-.099a7.59 7.59 0 00.085-.787 2.55 2.55 0 00-.01-.35 2.77 2.77 0 01-.014-.261.913.913 0 00-.027-.249l.091.007a32.09 32.09 0 001.92-.583M44.023.347l-.596.028c-.72.024-1.442.027-2.159.03h-.276l-.27.004c-.75.004-1.582.05-2.693.15-.696.065-1.392.112-2.09.16l-.529.038a49.32 49.32 0 00-1.763.153l-.732.075c-1.054.106-1.93.201-2.831.392-.893.195-1.8.49-2.4.686l-.205.064c-.917.29-1.803.733-2.584 1.125l-.795.4c-.644.324-1.285.648-1.923.985a34.163 34.163 0 00-4.856 3.096 59.198 59.198 0 00-2.062 1.715l-.072.065-.286.248a33.336 33.336 0 00-2.2 2.09 75.78 75.78 0 00-1.415 1.555l-.576.648c-.821.918-1.544 1.859-2.087 2.575-.467.617-.89 1.289-1.23 1.83l-.085.14-.243.386a52.939 52.939 0 00-1.472 2.458l-.158.28c-.293.521-.583 1.043-.869 1.571-.497.91-.859 1.859-1.186 2.753a42.76 42.76 0 00-.966 2.98c-.15.549-.282 1.1-.415 1.657L1.923 31l-.079.311-.126.501a59.195 59.195 0 00-.689 3.107c-.361 1.862-.6 3.842-.76 6.236-.11 1.704-.191 3.577-.253 5.888a95.121 95.121 0 00.021 4.32l.024 1.432c.017.955.058 1.89.12 2.858.034.48.043.958.054 1.439l.007.173.003.184.02.846c.052 1.585.154 3.14.263 4.73l.014.207.013.215.045.628.01.166c.443 1.535.83 3.083 1.238 4.624.208.781.402 1.565.606 2.346.165.62.383 1.22.607 1.818.447 1.114.931 2.202 1.395 3.307.443 1.047.876 2.093 1.333 3.134a97.463 97.463 0 001.606 3.42c.174.082.334.193.477.337.59.586 1.092 1.278 1.61 1.93.412.525.828 1.047 1.245 1.572.862 1.098 1.728 2.196 2.584 3.3.549.71 1.098 1.418 1.647 2.124a131.11 131.11 0 001.992 2.343c.177.13.323.297.429.484.119.133.238.266.358.395.276.308.556.611.828.921.045.052.095.106.147.164.28.208.565.403.866.58.058.02.12.04.18.057.031.004.062.004.096.007.43-.207.965-.342 1.444-.263a48.969 48.969 0 00.694-1.881c.2-.603.338-1.245.467-1.862l.09-.413c.234-1.125.377-1.994.463-2.816.078-.774.04-1.582-.116-2.472.21.235.378.41.545.587l.273.3c.253.28.45.498.668.695.354.324.713.61 1.064.846a11.544 11.544 0 001.719 1.005l.081.045.484.245c.454.236.914.464 1.385.676.896.419 1.817.77 2.731 1.04.893.276 1.756.51 2.567.698l.28.068.116.035c.273.071.543.14.811.198.392.078.785.129 1.177.18l.126.017.307.041c.685.092 1.425.177 2.179.177.187 0 .382-.006.573-.016.546-.038 1.084-.113 1.623-.188A10.66 10.66 0 0043 93.753c.399-.113.79-.246 1.183-.382l.105-.04.106-.035a.384.384 0 00.146.024c.13 0 .27-.017.43-.048.178-.038.348-.113.512-.185l.225-.105a19.06 19.06 0 001.183-.542c-.04.037-.044.109-.044.17-.004.69.33 1.296.917 1.668l.15.095c.034.18.095.372.174.566.297.764.76 1.453 1.129 2.005l.218.327c.572.877 1.35 1.681 2.304 2.395.273.2.57.377.863.551l.144.09.374.228c.481.317.962.624 1.46.91l.14.081c.593.342 1.125.655 1.605 1.02.202.191.39.402.57.651.19.284.372.617.539.993.167.515.283 1.074.375 1.813.058.809.088 1.504.088 2.125.004.368-.01.74-.023 1.108l-.004.1c-.014.395-.023.76-.02 1.124a88.043 88.043 0 01-.089 4.773c-.027.768.014 1.531.061 2.316l.01.133c.049.87.103 1.766.219 2.618.12.866.392 1.682.617 2.295.399 1.115 1.057 2.216 1.95 3.277.45.528.863.944 1.296 1.313l.27.225c.255.218.51.433.766.644.212.17.417.331.652.47.12.076.252.137.389.199l.215.098.317.154c.525.256 1.04.498 1.55.685.469.174.942.351 1.403.553.947.49 1.803 1.159 2.591 1.803.327.29.64.567.91.887.082.13.16.276.232.426.239.77.368 1.613.477 2.288l.024.15c.195 1.238.863 2.503 1.886 3.56.637.647 1.401 1.057 2.26 1.486.413.208.839.423 1.225.689.374.256.726.529 1.073.812.526.467 1.05.989 1.606 1.595a30.007 30.007 0 001.644 1.674c.385.355.78.696 1.183 1.01.518.402 1.139.661 1.733.88.885.344 1.919.518 2.672.64 1.04.178 1.862.263 2.606.27h.091c.4 0 .798-.01 1.197-.02a38.044 38.044 0 012.554.003c.32.01.644.017.968.024.539 0 1.02-.048 1.467-.093.552-.064 1.005-.238 1.391-.395 1.37-.532 1.77-2.032 2.124-3.352l.055-.218c.177-.655.33-1.316.484-1.977.33-1.45.617-2.94.86-4.436.217-1.374.34-2.721.364-4.01.013-.91-.13-1.845-.245-2.595l-.028-.187a58.405 58.405 0 01-.228-1.706 18.436 18.436 0 01.174-3.828c.153-.648.344-1.306.531-1.94.243-.826.499-1.678.665-2.551.358-1.903.59-3.611.707-5.224.06-.822.122-1.643.166-2.468.02-.379.038-.76.041-1.14.004-.3-.03-.596-.068-.872l-.024-.225c-.038-.294-.15-.58-.232-.788l-.082-.205a8.802 8.802 0 00-.29-.654c-.354-.74-.858-1.456-1.227-1.974l-.262-.375-.44-.641a70.422 70.422 0 00-1.22-1.753l-.4-.556-.378-.524-.46-.638c-.512-.75-1.04-1.57-1.426-2.476l-.051-.157-.05-.153a5.874 5.874 0 01-.25-1.146c-.058-.689-.11-1.422-.058-2.158.061-.791.153-1.586.273-2.353.218-1.38.412-2.84.61-4.586.215-1.934.235-3.737.061-5.363-.034-.324-.129-.631-.234-.972l-.093-.307c-.11-.372-.232-.74-.361-1.105l-.075-.218c-.256-.733-.56-1.6-.959-2.36-.367-.722-.818-1.442-1.213-2.08l-.464-.742c-.577-.948-1.34-2.197-2.162-3.332-.64-.897-1.295-1.773-1.953-2.65l-.154-.204a180.103 180.103 0 01-2.11-2.83l-.69-.955-.344-.48c-.19-.28-.371-.566-.555-.852l-.059-.086-.054-.082-.348-.535c-.306-.47-.62-.924-1.05-1.316.02-.535.014-1.095.003-1.664l-.02-.904a435.515 435.515 0 00-.1-6.072c-.023-1.14-.15-2.291-.248-3.22l-.027-.255-.024-.231a61.171 61.171 0 01-.198-2.08c-.116-1.678-.304-3.898-.716-6.17-.28-1.564-.688-3.115-1.053-4.486l-.198-.73a26.72 26.72 0 00-.85-2.673 46.797 46.797 0 01-.585-1.66c-.134-.396-.243-.71-.352-1.02a98.198 98.198 0 01-1.111-3.427c-.331-1.057-.754-2.062-1.269-3.27l-.051-.123-.116-.269c-.32-.77-.624-1.493-.938-2.212a35.821 35.821 0 00-.556-1.153l-.077-.164-.079-.164-.078-.156-.274-.542c-.385-.767-.784-1.559-1.21-2.275a51.198 51.198 0 00-1.275-2.014l-.058-.09c-.412-.64-.897-1.38-1.388-2.038a38.578 38.578 0 00-.76-.972l-.17-.211-.086-.107-.078-.095-.078-.091-.403-.488a25.922 25.922 0 00-1.568-1.75c-.624-.613-1.313-1.141-1.87-1.568l-.572-.484-.194-.16c-.552-.457-1.013-.843-1.463-1.167a20.275 20.275 0 00-2.407-1.48 194.758 194.758 0 01-4.46-2.482c-2.67-1.524-5.37-2.52-8.023-2.966-.828-.133-1.712-.198-2.776-.198-.767 0-1.537.03-2.304.061" fill="#000" mask="url(#b)"/></g><path d="M226.4 221.566c.004-.06.007-.12.007-.18l-.017-.018c-.041-.04-.082-.081-.123-.119l.133.317m63.654-53.412l.03.082a3.092 3.092 0 01-.03-.082m-3.529-10.407l.02.056-.02-.056m-4.306-10.102c.515.978 1.013 1.964 1.497 2.956.389.801.706 1.63 1.023 2.462a1.812 1.812 0 01-.041-.106c.303.832.593 1.667.906 2.492.316.813.65 1.618.97 2.43.298.83.596 1.666.855 2.508.283.93.563 1.861.856 2.789.269.846.501 1.701.811 2.53.324.87.67 1.737 1.013 2.6.154.428.297.855.412 1.293.133.495.25.993.365 1.494.211.897.362 1.804.563 2.704.225.993.426 1.988.634 2.984.195.951.368 1.912.642 2.843.286.975.497 1.968.787 2.94.31 1.04.709 2.048 1.129 3.044.391.928.746 1.872 1.152 2.792.41.939.86 1.855 1.285 2.783.328.702.645 1.412.968 2.114.338.734.72 1.442 1.11 2.155.36.661.736 1.316 1.08 1.991a18.573 18.573 0 01.876 1.904c.2.576.395 1.153.573 1.738.197.646.279 1.336.377 2.003.166 1.934.225 3.873.195 5.816-.027 2.09-.354 4.162-.65 6.228-.113.789-.26 1.576-.39 2.36.024-.13.049-.262.072-.396-.235 1.33-.463 2.664-.75 3.98-.143.658-.337 1.31-.508 1.96-.167.638-.255 1.296-.433 1.934-.15.531.031 1.101.508 1.408.54.345 1.364.208 1.695-.376.535-.944.917-2.004 1.234-3.044.164-.532.31-1.057.44-1.6.13-.521.222-1.06.327-1.588.201-.975.369-1.957.546-2.935.211-1.191.41-2.38.58-3.574a63.66 63.66 0 00.364-3.008c.045-.518.041-1.043.048-1.562.007-.49.004-.982-.003-1.472a63.083 63.083 0 00-.15-3.195c-.086-1.122-.198-2.247-.474-3.341-.123-.495-.297-.976-.464-1.456a38.61 38.61 0 00-.665-1.74c-.079-.2-.188-.395-.283-.586-.12-.239-.239-.48-.361-.716-.249-.467-.499-.93-.764-1.388-.515-.89-1.033-1.783-1.473-2.714-.457-.962-.91-1.926-1.381-2.885-.532-1.087-1.057-2.171-1.524-3.293-.43-1.04-.918-2.06-1.341-3.104a52.09 52.09 0 01-.436-1.26c-.153-.475-.262-.962-.402-1.439-.28-.935-.597-1.855-.832-2.8-.245-.985-.463-1.977-.696-2.966-.225-.941-.474-1.875-.715-2.814-.12-.467-.263-.927-.4-1.39-.136-.468-.251-.948-.42-1.405-.2-.55-.405-1.092-.647-1.623a68.032 68.032 0 01-.552-1.227c-.208-.474-.42-.948-.62-1.426-.189-.454-.355-.914-.55-1.364-.197-.464-.388-.93-.583-1.394-.187-.444-.399-.873-.586-1.313a66.034 66.034 0 00-1.31-2.942c-.442-.928-.913-1.842-1.343-2.776-.426-.93-.811-1.882-1.207-2.827-.382-.91-.822-1.8-1.271-2.673-.328-.63-.652-1.258-.982-1.886a.349.349 0 00-.319-.2c-.26 0-.526.265-.367.569" fill="#000"/><path d="M290.233 182.031a.477.477 0 00-.195.641c.307.567.624 1.125.917 1.699.232.446.46.893.689 1.34.314.61.638 1.216.924 1.837.328.72.662 1.436.982 2.159l.042.093c.104.34.222.677.347 1.012.204.549.454 1.066.706 1.595a.541.541 0 00.984-.07.97.97 0 00.51-.114c.227-.123.404-.33.483-.576.055-.229.062-.345.028-.577-.017-.13-.024-.265-.048-.395l-.082-.47c-.054-.31-.113-.618-.177-.924-.061-.3-.127-.6-.188-.904l-.092-.44c-.02-.1-.04-.201-.065-.3-.04-.208-.133-.406-.208-.604a1.043 1.043 0 00-.35-.381l-.04-.023a25.852 25.852 0 00-.312-.888 10.556 10.556 0 00-.423-.948 2.642 2.642 0 00-.624-.79c-.15-.14-.31-.236-.525-.243a.776.776 0 00-.668.348.565.565 0 00-.088.154l-.083.173a1.21 1.21 0 00-.04.331c-.011.177.047.358.075.532.028.188.054.379.085.567l-.27-.526c-.239-.457-.474-.914-.71-1.37-.302-.587-.623-1.163-.94-1.743a.486.486 0 00-.644-.195m-22.806 26.786c-.14.045-.256.086-.379.163-.11.07-.211.154-.317.232-.082.062-.157.13-.238.195-.246.194-.488.392-.733.59l-.205.162a.956.956 0 00-.58-.244 2.36 2.36 0 00-.695.045c-.215.047-.423.149-.627.224-.28.106-.55.236-.816.368-.31.15-.617.308-.92.47-.317.175-.641.38-.89.642-.44.457-.675 1.163-.382 1.763a.818.818 0 00.125.182 7.05 7.05 0 00-.316.22c-.198.15-.266.464-.21.692.077.335.35.512.67.556.242.03.478-.075.679-.194.235-.136.453-.303.672-.464.221-.164.436-.345.65-.522.328-.269.648-.549.965-.832.284-.245.556-.5.833-.753.14-.13.28-.26.423-.388.068-.066.14-.127.207-.188.06-.052.115-.096.168-.15l.624-.501c.132-.107.264-.214.396-.324l-.124.313c-.187.485-.385.965-.58 1.446-.153.388-.282.788-.42 1.183-.22.645-.436 1.289-.633 1.94a.43.43 0 00.276.532.427.427 0 00.532-.273c.181-.6.375-1.186.58-1.776.14-.402.263-.815.426-1.207.375-.905.734-1.819 1.142-2.71.068-.143.135-.284.194-.43.062-.147.082-.307.106-.46.048-.268-.232-.52-.49-.52a.353.353 0 00-.113.018m23.51-16.147a37.459 37.459 0 00-.02 2.987c.027.96.051 1.926.106 2.887.054.955.095 1.906.18 2.858.089 1.012.17 2.028.277 3.041.295 2.876.591 5.755.9 8.63.04.445.083.889.123 1.333.037.416.085.83.109 1.245l.089 1.64c-.095-.326-.166-.66-.25-.986-.222-.869-.44-1.735-.651-2.604a448.956 448.956 0 00-4.528-17.349c-.06-.206-.121-.412-.174-.62a.401.401 0 00-.02-.13 1.418 1.418 0 00-.038-.113c-.099-.272-.33-.463-.634-.395a.537.537 0 00-.396.634c.096.41.218.815.334 1.217l.553 1.981c.177.635.345 1.269.508 1.903.488 1.886 1.003 3.764 1.452 5.66.461 1.95.941 3.901 1.361 5.861.201.959.41 1.916.61 2.875.201.964.382 1.937.614 2.894.14.573.277 1.143.433 1.712.075.273.15.546.232.819.041.146.085.29.122.436.052.184.107.365.202.532.113.201.29.341.477.467.519.348 1.224.058 1.415-.512.099-.29.205-.569.263-.87.068-.346.113-.695.143-1.05.05-.582.05-1.176.027-1.761-.02-.563-.044-1.13-.068-1.692-.037-.982-.132-1.96-.211-2.943-.082-1.043-.202-2.087-.307-3.13-.095-.955-.184-1.91-.276-2.864-.118-1.2-.238-2.403-.359-3.604-.081-.913-.16-1.825-.242-2.735-.082-.924-.112-1.854-.166-2.781-.102-1.798-.134-3.598-.236-5.395-.013-.27-.072-.497-.26-.703a.975.975 0 00-.677-.313h-.038a.988.988 0 00-.979.938m-79.427-22.264c-.013.381.301.75.697.75.391 0 .733-.29.75-.696.013-.381-.3-.75-.696-.75a.735.735 0 00-.75.696m1.041 10.478v-.001l.001.011v-.01zm-.003-.03l.002.016a.107.107 0 01-.002-.017zm-1.177-4.536c-.054 1.688-.091 3.396.01 5.084.045.801.137 1.6.216 2.397.075.733.213 1.46.3 2.19.06.696.145 1.381.266 2.069.122.678.265 1.35.385 2.028.225 1.303.426 2.612.648 3.914.225 1.334.504 2.653.937 3.939.481 1.438 1.048 2.847 1.586 4.27.464 1.226 1.006 2.44 1.664 3.579.678 1.166 1.411 2.295 2.134 3.43.413.651.822 1.3 1.273 1.92.436.6.903 1.159 1.397 1.711.417.464.843.925 1.262 1.392.446.494.883 1.005 1.364 1.469.644.624 1.323 1.21 1.977 1.828.593.56 1.105 1.207 1.654 1.81.583.645 1.193 1.266 1.75 1.937.254.312.505.628.75.95.606 1.031 1.08 2.148 1.636 3.203.137.256.27.508.399.764.048.092.096.18.146.272.021.038.041.075.066.113.197.345.337.484.64.723.13.103.283.178.444.212.15.023.3.05.45.078.307.01.596-.055.869-.201.15-.065.29-.161.396-.283.272-.317.306-.38.48-.767.093-.202.09-.45.12-.673.014-.111.03-.224.044-.34.039-.285.034-.57.006-.854l.028-.04c.244-.338.401-.757.572-1.135.28-.6.54-1.198.72-1.845.232-.824.293-1.685.415-2.53.082-.415.172-.827.234-1.248a6.306 6.306 0 00-.004-1.715c-.071-.559-.33-1.088-.583-1.582a13.743 13.743 0 00-.73-1.24c-1.123-1.707-2.41-3.29-3.75-4.83a5.605 5.605 0 00-.215-.261c-.505-.577-1.398-.707-2.066-.349-.263.14-.474.338-.638.59-.266.417-.29.84-.225 1.313.048.358.248.665.453.952.219.303.433.61.655.91l.081.11c.091.197.176.396.257.598.206.628.4 1.248.58 1.882a1.805 1.805 0 00-2.125 1.212l-.043.242a18.315 18.315 0 00-.935-.906 82.031 82.031 0 01-2.531-3.135c-.562-.733-1.145-1.45-1.693-2.193a57.84 57.84 0 01-3.956-7.333c-.256-.567-.467-1.163-.686-1.746-.246-.644-.488-1.293-.733-1.94a222.067 222.067 0 00-1.592-4.098 32.816 32.816 0 00-.399-.938c-.3-.686-1.18-1.013-1.872-.853a1.69 1.69 0 00-.76.411l-.024-.087c-.375-1.357-.72-2.724-1.078-4.085-.17-.651-.347-1.299-.487-1.957-.137-.648-.232-1.306-.359-1.954-.122-.613-.258-1.217-.344-1.837-.084-.628-.17-1.259-.244-1.89a45.962 45.962 0 01-.076-4.613.565.565 0 00-.535-.583h-.02a.565.565 0 00-.56.54zm47.531 39.304l-.091.11c.028-.039.058-.076.09-.11m-1.27-1.608c-.518.378-.726 1.09-.876 1.68-.044.192-.092.383-.136.573-.093.406-.136.778-.082 1.194.085.665.238 1.323.388 1.974.137.597.247 1.2.413 1.79.18.645.494 1.208.795 1.798.225.446.494.903.865 1.24.26.24.508.443.816.608.225.118.453.234.678.357.56.304 1.115.566 1.742.696.566.119 1.14.182 1.708.267.158.033.31.074.46.127.019.011.039.022.057.034.211.345.405.71.564 1.085.126.37.238.744.379 1.113.126.324.338.589.552.87.185.166.38.323.58.47.225.17.607.286.89.361.484.13 1.01.163 1.51.184a1.942 1.942 0 001.914-1.343c.324-1.01-.256-2.094-1.252-2.425a30.267 30.267 0 01-.425-.143c-.155-.508-.303-1.017-.533-1.503-.371-.792-.904-1.562-1.616-2.073-.692-.499-1.494-.714-2.32-.846-.71-.111-1.433-.088-2.147-.163a8.949 8.949 0 01-1.236-.433 3.565 3.565 0 01-.208-.124 8.585 8.585 0 01-.747-.91c-.576-.874-1.002-1.843-1.378-2.818a7.034 7.034 0 01-.242-.838 7.42 7.42 0 01.055-.695 4.75 4.75 0 01.158-.551.85.85 0 01.066-.049c.45-.334.406-1.074.058-1.452a1.03 1.03 0 00-.713-.328h-.036c-.279 0-.481.11-.7.273m-4.709-49.378c.13.031.265.055.399.077l-.075-.036a2.546 2.546 0 00-.475-.18l.15.14m-6.765 27.037c0-.004 0-.008.002-.012l.007-.053a.878.878 0 00-.009.065m.34-2.429c-.129.788-.23 1.576-.331 2.364l.008-.048c-.006.033-.01.067-.015.101l-.003.018.001-.006c-.02.143-.04.285-.069.426-.023.12-.071.238-.075.36.002 0 .003-.002.004-.003a.415.415 0 00.499.413c.014.035.03.07.045.103a6.046 6.046 0 00-.514-.056c-.18-.01-.368.007-.538.066a.922.922 0 00-.417.262c-.119.14-.194.293-.245.47-.068.25-.061.574.075.802.252.42.78.552 1.238.617.958.133 1.926.205 2.894.174a19.17 19.17 0 002.786-.28c.275-.048.552-.095.827-.15.146-.02.292-.045.435-.075.31-.065.62-.122.924-.218a2.72 2.72 0 001.074-.618c.116-.118.232-.29.255-.456a.755.755 0 00-.013-.341.667.667 0 00-.29-.377.473.473 0 00-.112-.151.727.727 0 00-.26-.154c-.065-.027-.133-.027-.2-.03-.086-.011-.185.023-.273.04-.052.01-.104.017-.157.026-.424.045-.845.071-1.269.1-.545.034-1.09.075-1.633.116-.48.038-.962.041-1.443.048-.562.004-1.13.026-1.69-.025a3.389 3.389 0 01-.543-.125.778.778 0 01-.045-.027.977.977 0 01-.094-.096 1.304 1.304 0 01-.098-.16 1.84 1.84 0 01-.072-.283 3.662 3.662 0 01-.001-.562 36.1 36.1 0 00.13-.437 8.56 8.56 0 00.293-1.432c.027-.151.041-.304-.089-.426a.408.408 0 00-.2-.102.448.448 0 00-.36-.193c-.195 0-.407.126-.439.325m-14.541-19.265l-.039.017a.728.728 0 01.039-.017m9.425-1.333l.056.006-.056-.006m-2.433-1.535c-.242.013-.48.038-.719.058-.454.034-.91.085-1.36.157-.523.082-1.04.17-1.559.27a12.6 12.6 0 00-1.207.272c-.334.095-.669.187-.993.307a20.05 20.05 0 00-2.08.886c-.337.171-.674.348-1.009.525-.606.317-1.173.72-1.742 1.099a14.15 14.15 0 00-1.766 1.356c-.235.215-.218.608 0 .83.232.23.593.214.829 0 .218-.204.45-.39.682-.579.281-.198.56-.404.849-.591.357-.233.715-.461 1.077-.69.32-.204.665-.37 1.005-.541.36-.18.72-.352 1.082-.525.366-.153.73-.304 1.107-.434.195-.068.393-.146.598-.201.275-.072.556-.147.835-.218.222-.062.453-.092.678-.137.184-.037.368-.071.553-.102.497-.082.996-.15 1.493-.221-.057.01-.12.017-.18.027a19.582 19.582 0 012.13-.144c.382-.007.758.01 1.136.028.32.013.641.059.96.098.545.085 1.096.162 1.635.284.29.064.569.143.848.252l.311.127c.16.068.317.109.488.14a.794.794 0 00.893-.362c.225-.386.079-.856-.283-1.085-.222-.14-.474-.22-.72-.306a5.18 5.18 0 00-.6-.174c-.48-.11-.971-.164-1.463-.222a31.547 31.547 0 00-1.309-.146c-.218-.021-.44-.052-.662-.055l-.824-.014h-.077c-.211-.001-.426.022-.636.031m19.558 2.4l-.07.009.07-.01m.905-1.944c-1.016.133-2.005.35-2.99.628-.518.15-1.036.327-1.534.538-.515.222-1.006.49-1.504.75-.41.211-.529.778-.304 1.16.243.416.751.518 1.16.306.372-.194.739-.401 1.118-.578 1.061-.43 2.173-.697 3.304-.878l.508-.068c.712-.076 1.442-.142 2.158-.12.417.015.83.028 1.241.06.325.021.648.062.973.102.548.108 1.087.225 1.63.36.268.069.535.178.797.264.28.091.554.209.826.315.213.09.429.179.634.288.33.173.661.347.989.535.606.348 1.213.692 1.837 1.012.45.229 1 .12 1.265-.33a.935.935 0 00-.33-1.265c-.447-.276-.87-.583-1.317-.856-.457-.28-.924-.529-1.398-.774-.245-.122-.504-.222-.756-.327a19.43 19.43 0 00-1.01-.385 11.13 11.13 0 00-1.34-.4 18.285 18.285 0 00-4.003-.462c-.655 0-1.308.04-1.954.125" fill="#000"/><path d="M250.802 199.74l.01-.001.004-.001c-.004 0-.009 0-.014.002zm-6.296.14l.047.006-.047-.006zm11.678-1.555v.001l-.002.001.002-.002zm-.419.153l.014-.004c-1.575.612-3.292 1.01-4.963 1.264a.681.681 0 01.042-.005l-.046.006-.056.008c.016-.003.03-.006.046-.007-2.075.234-4.242.32-6.322.137l-.387-.052c.024.004.045.004.068.007-.757-.126-1.585-.174-2.302-.474-.01-.003-.016.01-.01.018.4.316.867.483 1.337.657.746.277 1.467.511 2.257.634a15.39 15.39 0 005.187-.091c1.036-.191 2.097-.461 3.072-.863.794-.324 1.68-.682 2.346-1.245l-.01.01a.445.445 0 00.126-.125v.016c0 .01.017.014.02.004.026-.059.013-.08-.022-.08-.1 0-.378.177-.397.185z" fill="#161616"/><path d="M241.737 198.68l.008.008-.013-.017.005.009zm1.72.402zm1.774.25c.033.004.066.008.098.014l-.098-.014zm-3.392-.539l.003.002.015.012-.018-.014zm-.02-.016a.205.205 0 00.02.016h-.002a.108.108 0 01-.019-.016zm15.597-1.163c-.103.054-.205.112-.307.167-.324.185-.66.357-.997.518-.418.165-.845.307-1.277.43-.212.06-.423.13-.638.173-.248.053-.496.099-.749.142-1.352.166-2.717.192-4.075.278a32.75 32.75 0 01-2.17.072c-.334 0-.667-.004-1.001-.01a13.745 13.745 0 01-1.016-.058c-.56-.08-1.122-.165-1.685-.238l.034.005-.078-.01c-.033-.004-.066-.01-.1-.013.018.002.037.003.054.006a45.521 45.521 0 00-.624-.086c-.3-.04-.601-.08-.887-.175a1.95 1.95 0 01-.102-.06.667.667 0 00-.053-.067l.047.064a.406.406 0 01-.055-.072c-.19-.205-.485-.28-.742-.129-.263.154-.392.539-.211.809.047.068.112.173.173.228.082.072.167.136.253.198.184.132.413.204.627.27.242.074.498.118.747.173.423.088.842.18 1.264.256.506.091 1.01.19 1.518.242.433.044.873.051 1.306.051.487 0 .972-.007 1.46-.027.436-.017.873-.055 1.309-.096.93-.082 1.861-.16 2.785-.283a24.444 24.444 0 001.801-.304c.539-.116 1.054-.296 1.568-.477.3-.106.593-.228.883-.361.256-.116.498-.26.74-.403.198-.119.396-.242.59-.37l.205-.15c.126-.1.18-.223.198-.383.02-.188-.147-.375-.318-.42a.459.459 0 00-.115-.014c-.131 0-.24.06-.362.124z" fill="#000"/><path d="M246.538 206.55c.04.027.079.058.116.09l-.116-.09zm-4.166-4.365l.062.15c-.022-.05-.044-.1-.062-.15zm-.914-1.535l.046.063a1.168 1.168 0 01-.046-.063zm-.962-1.946a.64.64 0 00-.188.453c0 .18.076.314.188.45.16.197.334.376.512.553.179.185.348.379.512.575a8.5 8.5 0 01.916 1.604c.279.672.557 1.346.843 2.014.147.345.31.689.5 1.01.304.511.625 1.009 1.034 1.445.273.29.552.566.856.822.17.143.354.277.535.41.154.115.304.231.463.334a4.15 4.15 0 001.191.535c.358.096.74.116 1.111.132.42.018.843 0 1.261-.036a.58.58 0 00.383-.161.545.545 0 00.157-.379.545.545 0 00-.157-.381c-.113-.113-.232-.14-.383-.16-.44-.058-.88-.097-1.318-.148h.01a4.464 4.464 0 01-.914-.226c-.487-.239-.916-.574-1.346-.906a7.062 7.062 0 01-.462-.422c-.221-.224-.447-.45-.648-.694-.285-.397-.54-.815-.767-1.25-.207-.405-.384-.827-.568-1.246l-.39-.919a17.554 17.554 0 00-.382-.87c-.157-.326-.36-.627-.562-.93a5.797 5.797 0 00-.763-.89c-.12-.12-.25-.225-.372-.345a3.538 3.538 0 01-.348-.374c-.103-.127-.297-.188-.45-.188a.642.642 0 00-.454.188z" fill="#000"/><path d="M254.6 204.139l.03-.072.045-.105c-.024.057-.052.116-.075.177m3.092-6.533c-.477.403-.784.968-1.135 1.476-.331.478-.532 1.027-.743 1.565-.096.25-.195.498-.266.754-.072.256-.127.511-.208.764-.16.5-.333.996-.53 1.48l-.18.422c-.118.279-.234.56-.368.832a4.91 4.91 0 01-.49.77 5.244 5.244 0 01-.717.757c-.36.266-.728.52-1.136.712-.53.19-1.082.312-1.635.412-.59.061-1.19.025-1.784.002-.361-.013-.696.263-.79.604-.124.443.146.873.572 1.01a4.61 4.61 0 001.606.224c.497-.028.975-.143 1.449-.283.46-.133.914-.28 1.353-.47a5.68 5.68 0 001.132-.683c.143-.109.287-.218.427-.33.122-.1.228-.219.337-.338a7.16 7.16 0 00.511-.655 5.5 5.5 0 00.648-1.234c.14-.378.256-.764.382-1.149.136-.406.266-.815.372-1.23.065-.26.122-.523.184-.782.058-.262.095-.524.167-.784.13-.482.274-.963.438-1.433.106-.235.223-.46.35-.684.144-.26.286-.526.458-.77.086-.1.18-.188.281-.273.202-.172.174-.512 0-.686a.461.461 0 00-.329-.138.56.56 0 00-.356.138" fill="#000"/><path d="M251.552 198.817l.052-.006.051-.008-.103.014zm-11.384.745l.082.035-.082-.035zm1.706-.781h.006-.006zm16.497-.617zm-.34-.958l-.028.02c.008-.007.018-.013.029-.02zm-.255.027c-.068.077-.14.15-.214.22-.099.032-.197.058-.294.087-.256.075-.512.15-.768.215-.538.14-1.08.276-1.626.395-.556.123-1.108.273-1.67.385a27.09 27.09 0 01-1.549.268l.018-.001-.07.01a6.548 6.548 0 01-.129.017l.078-.012-.04.006.068-.01c-.78.098-1.562.146-2.346.19-.768.044-1.537.024-2.305.058-.385.016-.77.034-1.156.04-.362.01-.72-.003-1.077-.03-.631-.043-1.26-.09-1.888-.163a.588.588 0 00-.185-.096 8.665 8.665 0 01-.553-.199c-.18-.085-.35-.185-.539-.258-.112-.041-.235-.072-.35-.106a2.298 2.298 0 00-.727-.078c-.177.01-.361.017-.518.109-.304.177-.454.607-.249.917.142.22.359.318.59.411l.098.042-.074-.03c.068.027.136.058.204.085l-.147-.061.03.011.011.006-.006-.003c.001 0 .003 0 .004.002.003 0 .007.002.01.004l.02.008a.203.203 0 01.024.01l-.024-.01c.32.127.655.212.992.278.593.12 1.192.2 1.79.279.403.058.81.107 1.217.148.42.04.833.092 1.252.102.876.027 1.752-.003 2.629-.003.886 0 1.78-.045 2.663-.12.89-.078 1.773-.238 2.65-.415.466-.096.927-.219 1.383-.352.447-.13.89-.252 1.33-.395a8.53 8.53 0 001.296-.55c.147-.075.304-.146.444-.234.136-.09.255-.209.384-.311-.024.02-.05.037-.073.056.17-.131.386-.284.418-.513a.67.67 0 00-.058-.412c-.072-.164-.276-.256-.444-.263h-.016c-.204 0-.376.123-.508.266z" fill="#000"/><path d="M249.818 208.126l-.089.013c.03-.005.06-.01.09-.013m-10.216-9.224a.57.57 0 00.395.699c.093.024.185.053.276.086.015.009.032.018.046.028.077.07.147.145.216.223.376.54.614 1.155.904 1.743.147.297.27.607.437.89.188.317.375.634.56.954.088.15.166.31.259.458.095.157.194.306.293.46.188.3.372.604.556.903a19.15 19.15 0 001.292 1.842l-.143-.18c.303.395.603.79.971 1.128.44.406.932.77 1.48 1.009a4.82 4.82 0 001.695.381c.365.014.737.018 1.098-.05a3.25 3.25 0 00.916-.328c.206-.109.39-.262.574-.406.191-.15.197-.47.085-.665-.12-.2-.385-.327-.618-.248-.125.04-.248.082-.37.126a3.458 3.458 0 01-.65.162c-.317.02-.628.003-.94-.03a5.06 5.06 0 01-.885-.22 2.744 2.744 0 01-.492-.286 3.918 3.918 0 01-.478-.445c-.162-.185-.325-.37-.48-.56-.463-.615-.9-1.252-1.29-1.919-.098-.166-.18-.347-.279-.514a29.286 29.286 0 00-.334-.57c-.096-.167-.205-.33-.307-.49-.136-.212-.26-.433-.392-.642-.436-.678-.917-1.326-1.377-1.987a11.211 11.211 0 00-.877-1.088c-.126-.143-.28-.266-.426-.389a1.98 1.98 0 00-.716-.392l-.3-.081a.579.579 0 00-.143-.018.57.57 0 00-.556.416" fill="#000"/><path d="M249.23 207.667l-.054-.007.054.007m2.805-.272l-.07.029.07-.03m6.026-9.724l-.015.012a3.304 3.304 0 00-.53.5c-.199.248-.394.5-.59.75-.22.273-.41.559-.595.856-.18.293-.35.586-.5.896-.328.672-.61 1.364-.856 2.07-.116.33-.209.668-.321 1-.102.313-.209.622-.33.929-.119.268-.25.533-.413.778-.184.284-.383.56-.577.838a5.656 5.656 0 01-.735.754 5.06 5.06 0 01-.709.4 4.688 4.688 0 01-.578.197c-.102.024-.207.035-.313.051-.101.02-.2.036-.301.052a4.77 4.77 0 01-.797.024 12.395 12.395 0 00-.797-.126 2.321 2.321 0 00-.045-.007l-.201-.028a.768.768 0 00-.662 1.15c.041.05.082.105.12.155a.758.758 0 00.338.195c.23.099.463.188.702.263.32.098.661.14.995.15.474.02.941-.041 1.401-.14a3.53 3.53 0 00.703-.27 8.28 8.28 0 00.658-.33 4.2 4.2 0 001.07-.88c.308-.348.563-.736.775-1.145.218-.413.412-.836.552-1.283.122-.395.18-.8.245-1.207.065-.436.15-.876.256-1.306.079-.323.167-.644.28-.955.11-.312.233-.617.356-.923.206-.485.454-.957.721-1.412.123-.212.27-.412.406-.624.122-.189.242-.386.375-.57.115-.13.234-.246.372-.357.136-.11.112-.344 0-.457a.296.296 0 00-.216-.093.406.406 0 00-.244.093" fill="#000"/><path d="M247.67 207.306l.036.017-.036-.017m-1.604-.474c-.116.194-.038.422.14.538.282.191.57.369.86.546.29.177.602.293.93.379.204.05.413.082.62.116.335.057.67.098 1.006.109a4.9 4.9 0 001.095-.106c.16-.031.273-.201.273-.355a.374.374 0 00-.369-.368 22.499 22.499 0 01-1.663-.119c.037.006.077.01.118.017-.493-.067-.982-.124-1.447-.302a8.599 8.599 0 01-1.025-.595.34.34 0 00-.19-.057.41.41 0 00-.348.197m5.186-6.422a2.431 2.431 0 00-.078.012l.078-.011m.054-.006c-.016.002-.035.003-.051.006.016-.003.035-.004.051-.006m4.525-1.289a4.973 4.973 0 00-.671.337c-.232.14-.468.274-.708.394a52.6 52.6 0 01-.827.159c-.789.142-1.577.29-2.372.405-.521.055-1.041.1-1.57.113-.6.017-1.195.017-1.796-.003-.586-.018-1.176-.041-1.766-.065-.567-.02-1.127-.08-1.687-.153-.383-.063-.77-.123-1.147-.226-.22-.06-.433-.122-.651-.197a10.597 10.597 0 01-.63-.239c-.191-.075-.41.082-.461.263a.38.38 0 00.037.29.42.42 0 00.226.17l.006.002c-.221.126-.347.424-.187.656.051.072.102.147.184.188.065.034.133.06.198.089.092.037.187.064.283.091.211.061.426.106.64.154.464.106.932.2 1.403.266.373.05.75.075 1.127.083a47.1 47.1 0 001.719.121c.44.024.88.031 1.32.014.454-.017.91-.028 1.36-.058.47-.034.944-.058 1.415-.11.488-.053.989-.094 1.466-.217.678-.174 1.357-.351 2.002-.632a4.85 4.85 0 00.642-.338c.316-.075.629-.163.926-.292.215-.092.416-.256.594-.416a.588.588 0 00.156-.188.472.472 0 00.045-.333c-.028-.096-.1-.212-.192-.252-.118-.052-.234-.079-.358-.028a4.452 4.452 0 00-.227.103.52.52 0 00-.37-.174.346.346 0 00-.129.023" fill="#000"/><path d="M254.43 205.199c-.09.089-.19.167-.286.249-.197.166-.374.351-.568.52-.236.17-.509.29-.764.424-.22.116-.439.226-.664.327-.256.102-.512.207-.78.283a7.04 7.04 0 01-.803.176 4.468 4.468 0 01-.962.037 37.597 37.597 0 01-.642-.046 7.341 7.341 0 01-.882-.176 6.895 6.895 0 01-.819-.288c-.133-.067-.269-.127-.399-.2l-.511-.3c-.137-.08-.267-.167-.4-.253-.197-.129-.395-.256-.59-.392-.224-.153-.551-.04-.681.181a.494.494 0 00-.05.382.52.52 0 00.227.296c.444.304.894.59 1.35.867.386.231.791.422 1.215.583.207.075.419.156.637.204.236.054.467.099.703.14.228.038.46.055.688.072.184.014.369.027.553.03.204.007.41-.02.613-.04.88-.086 1.723-.416 2.465-.894.165-.109.331-.218.495-.33.15-.106.296-.208.437-.328.126-.102.228-.232.33-.361.201-.256.406-.512.545-.812.059-.119.055-.252-.043-.351a.288.288 0 00-.204-.085.308.308 0 00-.21.085" fill="#000"/><path d="M257.74 197.793a8.992 8.992 0 00-.447.447c-.153.166-.32.334-.45.52-.194.284-.364.58-.545.874-.168.273-.348.532-.505.811-.15.267-.317.53-.464.798-.163.304-.317.61-.477.914-.153.293-.283.597-.416.9-.123.273-.263.539-.406.801-.16.302-.29.614-.483.895-.233.295-.468.587-.72.865a7.65 7.65 0 01-.916.837 4.365 4.365 0 01-.756.43c-.093.037-.185.072-.279.107a.623.623 0 00-.436.767.634.634 0 00.77.437c.328-.092.638-.208.942-.365.262-.136.49-.338.712-.528a7.52 7.52 0 00.603-.58c.386-.43.737-.89 1.089-1.347.163-.215.268-.477.381-.723.116-.253.242-.498.345-.754.188-.468.36-.939.545-1.407.103-.242.206-.486.303-.73.106-.253.198-.508.304-.76l-.041.101c.052-.12.1-.236.148-.352a19.284 19.284 0 01.37-.796c.069-.147.147-.29.215-.437.096-.196.186-.387.304-.567.22-.27.453-.523.705-.766a.279.279 0 000-.392.272.272 0 00-.195-.08.287.287 0 00-.2.08" fill="#000"/><path d="M252.35 206.631l-.041.018.041-.018m-4.992-.217c.031.012.064.024.095.038a4.336 4.336 0 01-.095-.038m-.705-.488l.045.036-.045-.036m-4.361-5.077a.438.438 0 000 .617c.135.137.265.28.39.425.152.21.282.43.417.65.123.2.246.395.365.6.218.378.372.791.576 1.18.427.815.942 1.579 1.613 2.209.124.118.253.23.385.338a.517.517 0 00.091.076c.093.08.192.16.292.233.116.086.232.161.357.233.172.102.358.17.539.245.443.184.914.297 1.388.361.876.113 1.767.175 2.646.093a5.29 5.29 0 00.457-.065c.14-.024.28-.04.415-.075.328-.075.635-.177.925-.348.525-.314.934-.787 1.316-1.254.099-.12.163-.236.163-.392a.554.554 0 00-.163-.393.56.56 0 00-.781 0c-.24.242-.478.482-.737.703-.162.12-.336.223-.52.31-.379.117-.766.18-1.155.236-.847.078-1.698.05-2.54-.035a6.788 6.788 0 01-1.257-.336 4.484 4.484 0 01-.675-.42c.038.026.075.057.113.087-.017-.013-.036-.026-.052-.04-.006-.004-.01-.01-.017-.014l-.1-.077-.015-.012h-.002l-.02-.016c-.223-.182-.455-.364-.647-.58-.19-.209-.375-.425-.552-.648-.393-.557-.714-1.15-1.036-1.749-.15-.28-.342-.532-.515-.795-.11-.16-.219-.324-.324-.487a5.695 5.695 0 00-.727-.86.436.436 0 00-.613 0" fill="#000"/></g></svg>