<svg width="500" height="600" xmlns="http://www.w3.org/2000/svg" xmlns:xlink="http://www.w3.org/1999/xlink"><defs><path id="a" d="M0 .286h102.935V148.39H0z"/></defs><g fill="none" fill-rule="evenodd"><path d="M253.575 180.875c-.041-.007-.086-.01-.127-.017.041.007.086.014.127.017m-9.013 12.228c-.126.457.02.897.324 1.2h.004a8.45 8.45 0 001.422.317c.787.062 1.572.082 2.359.082.79.004 1.589.018 2.38-.023.808-.041 1.616-.048 2.424-.09.392-.02.78-.05 1.173-.091.116-.293.164-.567.079-.894a1.515 1.515 0 00-.096-.269.407.407 0 01-.017-.062 1.003 1.003 0 00-.19-.401c-.477.133-.956.251-1.446.32-.58.085-1.163.18-1.746.238-.464.041-.931.065-1.395.099-.388.028-.808.1-1.197.062-.406-.041-.856-.062-1.203-.304-.293-.2-.564-.5-.698-.846l-.642-.21a1.024 1.024 0 00-.335-.055c-.538 0-1.057.402-1.2.927" fill="#000"/><path d="M246.398 173.204c-.317.184-.399.577-.236.89.134.26.263.515.383.778.198.494.293 1.006.378 1.527.082.678.14 1.36.16 2.046a17.28 17.28 0 01-.091 2.145c-.147 1.48-.328 2.96-.508 4.439-.188 1.23-.383 2.462-.696 3.672-.16.61-.352 1.21-.542 1.814-.147.454-.252.928-.43 1.37-.02.045-.04.093-.062.14a1.681 1.681 0 00-.17.618c-.017.15.072.416.147.546.085.145.245.317.402.392a1.018 1.018 0 001.238-.161c.208-.204.31-.49.297-.77.018-.08.039-.157.06-.236a1.201 1.201 0 01-.07-.56c.05-.446.078-.579.259-.981.091-.211.247-.39.398-.565a26.92 26.92 0 00.491-2.07c.188-.952.273-1.927.382-2.892.102-.9.154-1.81.232-2.714.062-.682.12-1.36.167-2.042.045-.61.027-1.218-.014-1.825a22.765 22.765 0 00-.225-2.148c-.047-.31-.113-.617-.177-.923a7.786 7.786 0 00-.324-1.095c-.154-.399-.358-.781-.556-1.163a.631.631 0 00-.566-.317.655.655 0 00-.327.085" fill="#000"/><g transform="translate(210 122.587)"><mask id="b" fill="#fff"><use xlink:href="#a"/></mask><path d="M51.756 89.866c.385-.276.77-.553 1.159-.825l.463-.328.157-.109.161-.112c.079.45.245.862.508 1.288l.072.116-.665.038-.856.089a69.71 69.71 0 01-1.477.17c.168-.11.328-.218.478-.327m14.136-30.204l.168-1.524.143-1.347c.105-1.06.211-2.066.204-3.071v-.682a83.64 83.64 0 00-.02-1.552l.133.048a10.272 10.272 0 01.6-.007l.122.048c.102.34.181.7.24 1.095.013.118.027.245.037.37.038.331.03.7-.024 1.195-.201 1.285-.556 2.547-.897 3.767l-.177.61-.229.815-.166.6-.226.808-.109.403-.034.116c.085-.488.163-1.03.235-1.692m-53.88 3.025l-.25-.075a8.903 8.903 0 01-1.05-.672 4 4 0 01-.432-.402 4.248 4.248 0 01-.338-.61c-.157-.413-.229-.873-.297-1.35l-.043-.4c-.082-.726-.15-1.377-.134-2.022.018-.723.045-1.49.13-2.226.13-.75.269-1.484.521-2.144.27-.6.58-1.14.921-1.6.061-.075.127-.14.198-.205.088-.064.187-.12.283-.173l.188-.052.095.014.099.018.007.555-.058 1.398a28.038 28.038 0 000 2.95c.044.708.092 1.422.143 2.134l.072 1.057a87.3 87.3 0 01.156 2.987c.01.297.017.586.02.873l.008.01a2.091 2.091 0 00-.24-.065m4.932-22.395l.252-.082.644-.208c.675-.214 1.323-.48 2.093-.815.26-.11.519-.218.781-.32a25.396 25.396 0 001.995-.918l.133-.063.624-.311c.32-.157.638-.327.958-.501l.086-.045.442-.239a120.092 120.092 0 004.01-2.213 59.99 59.99 0 002.135-1.316l.157-.102.412-.265 1.177-.764c.16-.103.317-.216.474-.328l.177-.13.133-.091.082-.059c.167-.116.29-.204.406-.303l.303-.242.096-.079c.269-.218.535-.436.79-.668l.235-.218a162.636 162.636 0 012.261-2.019l.068-.057c.427-.383.76-.682 1.068-1.003l.259-.27c.256-.262.642-.657.924-1.036.147-.2.273-.396.4-.596l.053-.082.09-.137.078-.116.15-.218c.034.208.116.378.204.546l.055.098.157.304c.218.406.477.805.818 1.258.263.33.546.679.88.962.225.194.46.385.696.569l.49.382.986.764c.937.723 1.735 1.295 2.448 1.748.695.465 1.518.894 2.06 1.177l.136.068.085.041.113.059.28.14.623.327.239.122c.941.484 1.882.969 2.834 1.425a64.339 64.339 0 003.873 1.678l.123.055a22.41 22.41 0 011.483.689c.61.32 1.129.64 1.596.982.143.123.275.261.429.46.222.286.436.597.631.907.197.32.368.65.556 1.077.487 1.271.856 2.698 1.156 4.487.126 1.068.222 1.954.252 2.817.01.262.017.522.02.78.004.226.007.447.014.669l.041 1.033c-.263.187-.386.6-.286.968a.928.928 0 00.344.501l-.024 2.056c0 .611-.024 1.136-.064 1.61-.032.372-.072.743-.116 1.112l-.042.365-.04.34-.042.341-.023.198c-.055.443-.096.784-.13 1.125a98.41 98.41 0 01-.245 2.22 35.615 35.615 0 01-.453 2.673 25.657 25.657 0 01-.393 1.626c-.113.433-.253.86-.392 1.286l-.045.133c-.231.74-.531 1.599-1.032 2.967-.161.436-.315.87-.467 1.309l-.1.28-.098.282a31.79 31.79 0 01-.3.863 47.16 47.16 0 01-.792 2.029l-.037.092c-.297.678-.596 1.364-.921 2.035-.402.829-.804 1.654-1.224 2.469-.753 1.452-1.756 2.83-2.563 3.935l-.233.317a23.9 23.9 0 01-2.151 2.373c-.396.392-.791.77-1.183 1.125l.113.027.074-.023-.215.129a33.345 33.345 0 00-1.227.91l-.89.645c-.212.15-.427.3-.645.446l-.003-.006-.147.054a6.61 6.61 0 00-.5.256l-.175.102c-1.057.576-1.912 1.007-2.69 1.347-.35.143-.71.263-1.074.382l-.328.11-.122.04c-.198.069-.388.133-.583.198-.375.116-.753.207-1.14.296-.278.052-.565.09-.851.124l-.284.037-.214.017-.276.017-.355.027a5.968 5.968 0 01-.256.007c-.212 0-.42-.01-.628-.024l-.136-.01a25.631 25.631 0 01-1.612-.177l-.116-.007c-.914-.13-1.876-.375-2.646-.573l-.28-.069-.303-.077c-.62-.164-1.16-.311-1.688-.488a29.05 29.05 0 01-1.569-.594c-.32-.143-.634-.297-.948-.45a13.78 13.78 0 01-.47-.242l-.147-.075a7.99 7.99 0 00-.385-.197c-.436-.212-.72-.352-.985-.519a8.326 8.326 0 01-1.44-1.118 8 8 0 01-.592-.631l-.137-.157-.137-.153c-.354-.39-.726-.76-1.101-1.132l-.136-.136a28.033 28.033 0 01-.556-.56l-.092-.095a45.66 45.66 0 01-1.694-1.835c-.284-.327-.56-.658-.836-.989-.57-.96-1.251-1.871-1.913-2.755l-.35-.515a20.046 20.046 0 01-1.133-2.087c-.136-.367-.249-.75-.358-1.13l-.037-.124c-.093-.32-.181-.648-.267-.971l-.027-.103-.03-.112-.041-.147-.116-.436a32.33 32.33 0 01-.56-2.271c-.085-.413-.16-.832-.235-1.255l-.048-.263-.047-.259a40.13 40.13 0 00-.171-.93l-.082-.447-.03-.164a61.435 61.435 0 01-.355-2.005c-.051-.396-.102-.791-.123-1.187a85.255 85.255 0 01-.065-1.565l-.007-.354c-.027-.92-.05-1.824-.112-2.683-.034-.508-.074-1.02-.115-1.528l-.014-.167c-.113-1.43-.23-2.909-.199-4.413.014-.569.041-1.135.073-1.705l.044-.91c.03-.764.04-1.527.048-2.295l.003-.283a47.96 47.96 0 01.095-2.458l.041-.583.021-.265a50.33 50.33 0 01.126-1.498l.085-.521.089-.563.014-.099a7.59 7.59 0 00.085-.787 2.55 2.55 0 00-.01-.35 2.77 2.77 0 01-.014-.261.913.913 0 00-.027-.249l.091.007a32.09 32.09 0 001.92-.583M44.023.347l-.596.028c-.72.024-1.442.027-2.159.03h-.276l-.27.004c-.75.004-1.582.05-2.693.15-.696.065-1.392.112-2.09.16l-.529.038a49.32 49.32 0 00-1.763.153l-.732.075c-1.054.106-1.93.201-2.831.392-.893.195-1.8.49-2.4.686l-.205.064c-.917.29-1.803.733-2.584 1.125l-.795.4c-.644.324-1.285.648-1.923.985a34.163 34.163 0 00-4.856 3.096 59.198 59.198 0 00-2.062 1.715l-.072.065-.286.248a33.336 33.336 0 00-2.2 2.09 75.78 75.78 0 00-1.415 1.555l-.576.648c-.821.918-1.544 1.859-2.087 2.575-.467.617-.89 1.289-1.23 1.83l-.085.14-.243.386a52.939 52.939 0 00-1.472 2.458l-.158.28c-.293.521-.583 1.043-.869 1.571-.497.91-.859 1.859-1.186 2.753a42.76 42.76 0 00-.966 2.98c-.15.549-.282 1.1-.415 1.657L1.923 31l-.079.311-.126.501a59.195 59.195 0 00-.689 3.107c-.361 1.862-.6 3.842-.76 6.236-.11 1.704-.191 3.577-.253 5.888a95.121 95.121 0 00.021 4.32l.024 1.432c.017.955.058 1.89.12 2.858.034.48.043.958.054 1.439l.007.173.003.184.02.846c.052 1.585.154 3.14.263 4.73l.014.207.013.215.045.628.01.166c.443 1.535.83 3.083 1.238 4.624.208.781.402 1.565.606 2.346.165.62.383 1.22.607 1.818.447 1.114.931 2.202 1.395 3.307.443 1.047.876 2.093 1.333 3.134a97.463 97.463 0 001.606 3.42c.174.082.334.193.477.337.59.586 1.092 1.278 1.61 1.93.412.525.828 1.047 1.245 1.572.862 1.098 1.728 2.196 2.584 3.3.549.71 1.098 1.418 1.647 2.124a131.11 131.11 0 001.992 2.343c.177.13.323.297.429.484.119.133.238.266.358.395.276.308.556.611.828.921.045.052.095.106.147.164.28.208.565.403.866.58.058.02.12.04.18.057.031.004.062.004.096.007.43-.207.965-.342 1.444-.263a48.969 48.969 0 00.694-1.881c.2-.603.338-1.245.467-1.862l.09-.413c.234-1.125.377-1.994.463-2.816.078-.774.04-1.582-.116-2.472.21.235.378.41.545.587l.273.3c.253.28.45.498.668.695.354.324.713.61 1.064.846a11.544 11.544 0 001.719 1.005l.081.045.484.245c.454.236.914.464 1.385.676.896.419 1.817.77 2.731 1.04.893.276 1.756.51 2.567.698l.28.068.116.035c.273.071.543.14.811.198.392.078.785.129 1.177.18l.126.017.307.041c.685.092 1.425.177 2.179.177.187 0 .382-.006.573-.016.546-.038 1.084-.113 1.623-.188A10.66 10.66 0 0043 93.753c.399-.113.79-.246 1.183-.382l.105-.04.106-.035a.384.384 0 00.146.024c.13 0 .27-.017.43-.048.178-.038.348-.113.512-.185l.225-.105a19.06 19.06 0 001.183-.542c-.04.037-.044.109-.044.17-.004.69.33 1.296.917 1.668l.15.095c.034.18.095.372.174.566.297.764.76 1.453 1.129 2.005l.218.327c.572.877 1.35 1.681 2.304 2.395.273.2.57.377.863.551l.144.09.374.228c.481.317.962.624 1.46.91l.14.081c.593.342 1.125.655 1.605 1.02.202.191.39.402.57.651.19.284.372.617.539.993.167.515.283 1.074.375 1.813.058.809.088 1.504.088 2.125.004.368-.01.74-.023 1.108l-.004.1c-.014.395-.023.76-.02 1.124a88.043 88.043 0 01-.089 4.773c-.027.768.014 1.531.061 2.316l.01.133c.049.87.103 1.766.219 2.618.12.866.392 1.682.617 2.295.399 1.115 1.057 2.216 1.95 3.277.45.528.863.944 1.296 1.313l.27.225c.255.218.51.433.766.644.212.17.417.331.652.47.12.076.252.137.389.199l.215.098.317.154c.525.256 1.04.498 1.55.685.469.174.942.351 1.403.553.947.49 1.803 1.159 2.591 1.803.327.29.64.567.91.887.082.13.16.276.232.426.239.77.368 1.613.477 2.288l.024.15c.195 1.238.863 2.503 1.886 3.56.637.647 1.401 1.057 2.26 1.486.413.208.839.423 1.225.689.374.256.726.529 1.073.812.526.467 1.05.989 1.606 1.595a30.007 30.007 0 001.644 1.674c.385.355.78.696 1.183 1.01.518.402 1.139.661 1.733.88.885.344 1.919.518 2.672.64 1.04.178 1.862.263 2.606.27h.091c.4 0 .798-.01 1.197-.02a38.044 38.044 0 012.554.003c.32.01.644.017.968.024.539 0 1.02-.048 1.467-.093.552-.064 1.005-.238 1.391-.395 1.37-.532 1.77-2.032 2.124-3.352l.055-.218c.177-.655.33-1.316.484-1.977.33-1.45.617-2.94.86-4.436.217-1.374.34-2.721.364-4.01.013-.91-.13-1.845-.245-2.595l-.028-.187a58.405 58.405 0 01-.228-1.706 18.436 18.436 0 01.174-3.828c.153-.648.344-1.306.531-1.94.243-.826.499-1.678.665-2.551.358-1.903.59-3.611.707-5.224.06-.822.122-1.643.166-2.468.02-.379.038-.76.041-1.14.004-.3-.03-.596-.068-.872l-.024-.225c-.038-.294-.15-.58-.232-.788l-.082-.205a8.802 8.802 0 00-.29-.654c-.354-.74-.858-1.456-1.227-1.974l-.262-.375-.44-.641a70.422 70.422 0 00-1.22-1.753l-.4-.556-.378-.524-.46-.638c-.512-.75-1.04-1.57-1.426-2.476l-.051-.157-.05-.153a5.874 5.874 0 01-.25-1.146c-.058-.689-.11-1.422-.058-2.158.061-.791.153-1.586.273-2.353.218-1.38.412-2.84.61-4.586.215-1.934.235-3.737.061-5.363-.034-.324-.129-.631-.234-.972l-.093-.307c-.11-.372-.232-.74-.361-1.105l-.075-.218c-.256-.733-.56-1.6-.959-2.36-.367-.722-.818-1.442-1.213-2.08l-.464-.742c-.577-.948-1.34-2.197-2.162-3.332-.64-.897-1.295-1.773-1.953-2.65l-.154-.204a180.103 180.103 0 01-2.11-2.83l-.69-.955-.344-.48c-.19-.28-.371-.566-.555-.852l-.059-.086-.054-.082-.348-.535c-.306-.47-.62-.924-1.05-1.316.02-.535.014-1.095.003-1.664l-.02-.904a435.515 435.515 0 00-.1-6.072c-.023-1.14-.15-2.291-.248-3.22l-.027-.255-.024-.231a61.171 61.171 0 01-.198-2.08c-.116-1.678-.304-3.898-.716-6.17-.28-1.564-.688-3.115-1.053-4.486l-.198-.73a26.72 26.72 0 00-.85-2.673 46.797 46.797 0 01-.585-1.66c-.134-.396-.243-.71-.352-1.02a98.198 98.198 0 01-1.111-3.427c-.331-1.057-.754-2.062-1.269-3.27l-.051-.123-.116-.269c-.32-.77-.624-1.493-.938-2.212a35.821 35.821 0 00-.556-1.153l-.077-.164-.079-.164-.078-.156-.274-.542c-.385-.767-.784-1.559-1.21-2.275a51.198 51.198 0 00-1.275-2.014l-.058-.09c-.412-.64-.897-1.38-1.388-2.038a38.578 38.578 0 00-.76-.972l-.17-.211-.086-.107-.078-.095-.078-.091-.403-.488a25.922 25.922 0 00-1.568-1.75c-.624-.613-1.313-1.141-1.87-1.568l-.572-.484-.194-.16c-.552-.457-1.013-.843-1.463-1.167a20.275 20.275 0 00-2.407-1.48 194.758 194.758 0 01-4.46-2.482c-2.67-1.524-5.37-2.52-8.023-2.966-.828-.133-1.712-.198-2.776-.198-.767 0-1.537.03-2.304.061" fill="#000" mask="url(#b)"/></g><path d="M226.4 221.566c.004-.06.007-.12.007-.18l-.017-.018c-.041-.04-.082-.081-.123-.119l.133.317m63.654-53.412l.03.082a3.092 3.092 0 01-.03-.082m-3.529-10.407l.02.056-.02-.056m-4.306-10.102c.515.978 1.013 1.964 1.497 2.956.389.801.706 1.63 1.023 2.462a1.812 1.812 0 01-.041-.106c.303.832.593 1.667.906 2.492.316.813.65 1.618.97 2.43.298.83.596 1.666.855 2.508.283.93.563 1.861.856 2.789.269.846.501 1.701.811 2.53.324.87.67 1.737 1.013 2.6.154.428.297.855.412 1.293.133.495.25.993.365 1.494.211.897.362 1.804.563 2.704.225.993.426 1.988.634 2.984.195.951.368 1.912.642 2.843.286.975.497 1.968.787 2.94.31 1.04.709 2.048 1.129 3.044.391.928.746 1.872 1.152 2.792.41.939.86 1.855 1.285 2.783.328.702.645 1.412.968 2.114.338.734.72 1.442 1.11 2.155.36.661.736 1.316 1.08 1.991a18.573 18.573 0 01.876 1.904c.2.576.395 1.153.573 1.738.197.646.279 1.336.377 2.003.166 1.934.225 3.873.195 5.816-.027 2.09-.354 4.162-.65 6.228-.113.789-.26 1.576-.39 2.36.024-.13.049-.262.072-.396-.235 1.33-.463 2.664-.75 3.98-.143.658-.337 1.31-.508 1.96-.167.638-.255 1.296-.433 1.934-.15.531.031 1.101.508 1.408.54.345 1.364.208 1.695-.376.535-.944.917-2.004 1.234-3.044.164-.532.31-1.057.44-1.6.13-.521.222-1.06.327-1.588.201-.975.369-1.957.546-2.935.211-1.191.41-2.38.58-3.574a63.66 63.66 0 00.364-3.008c.045-.518.041-1.043.048-1.562.007-.49.004-.982-.003-1.472a63.083 63.083 0 00-.15-3.195c-.086-1.122-.198-2.247-.474-3.341-.123-.495-.297-.976-.464-1.456a38.61 38.61 0 00-.665-1.74c-.079-.2-.188-.395-.283-.586-.12-.239-.239-.48-.361-.716-.249-.467-.499-.93-.764-1.388-.515-.89-1.033-1.783-1.473-2.714-.457-.962-.91-1.926-1.381-2.885-.532-1.087-1.057-2.171-1.524-3.293-.43-1.04-.918-2.06-1.341-3.104a52.09 52.09 0 01-.436-1.26c-.153-.475-.262-.962-.402-1.439-.28-.935-.597-1.855-.832-2.8-.245-.985-.463-1.977-.696-2.966-.225-.941-.474-1.875-.715-2.814-.12-.467-.263-.927-.4-1.39-.136-.468-.251-.948-.42-1.405-.2-.55-.405-1.092-.647-1.623a68.032 68.032 0 01-.552-1.227c-.208-.474-.42-.948-.62-1.426-.189-.454-.355-.914-.55-1.364-.197-.464-.388-.93-.583-1.394-.187-.444-.399-.873-.586-1.313a66.034 66.034 0 00-1.31-2.942c-.442-.928-.913-1.842-1.343-2.776-.426-.93-.811-1.882-1.207-2.827-.382-.91-.822-1.8-1.271-2.673-.328-.63-.652-1.258-.982-1.886a.349.349 0 00-.319-.2c-.26 0-.526.265-.367.569" fill="#000"/><path d="M290.233 182.031a.477.477 0 00-.195.641c.307.567.624 1.125.917 1.699.232.446.46.893.689 1.34.314.61.638 1.216.924 1.837.328.72.662 1.436.982 2.159l.042.093c.104.34.222.677.347 1.012.204.549.454 1.066.706 1.595a.541.541 0 00.984-.07.97.97 0 00.51-.114c.227-.123.404-.33.483-.576.055-.229.062-.345.028-.577-.017-.13-.024-.265-.048-.395l-.082-.47c-.054-.31-.113-.618-.177-.924-.061-.3-.127-.6-.188-.904l-.092-.44c-.02-.1-.04-.201-.065-.3-.04-.208-.133-.406-.208-.604a1.043 1.043 0 00-.35-.381l-.04-.023a25.852 25.852 0 00-.312-.888 10.556 10.556 0 00-.423-.948 2.642 2.642 0 00-.624-.79c-.15-.14-.31-.236-.525-.243a.776.776 0 00-.668.348.565.565 0 00-.088.154l-.083.173a1.21 1.21 0 00-.04.331c-.011.177.047.358.075.532.028.188.054.379.085.567l-.27-.526c-.239-.457-.474-.914-.71-1.37-.302-.587-.623-1.163-.94-1.743a.486.486 0 00-.644-.195m-22.806 26.786c-.14.045-.256.086-.379.163-.11.07-.211.154-.317.232-.082.062-.157.13-.238.195-.246.194-.488.392-.733.59l-.205.162a.956.956 0 00-.58-.244 2.36 2.36 0 00-.695.045c-.215.047-.423.149-.627.224-.28.106-.55.236-.816.368-.31.15-.617.308-.92.47-.317.175-.641.38-.89.642-.44.457-.675 1.163-.382 1.763a.818.818 0 00.125.182 7.05 7.05 0 00-.316.22c-.198.15-.266.464-.21.692.077.335.35.512.67.556.242.03.478-.075.679-.194.235-.136.453-.303.672-.464.221-.164.436-.345.65-.522.328-.269.648-.549.965-.832.284-.245.556-.5.833-.753.14-.13.28-.26.423-.388.068-.066.14-.127.207-.188.06-.052.115-.096.168-.15l.624-.501c.132-.107.264-.214.396-.324l-.124.313c-.187.485-.385.965-.58 1.446-.153.388-.282.788-.42 1.183-.22.645-.436 1.289-.633 1.94a.43.43 0 00.276.532.427.427 0 00.532-.273c.181-.6.375-1.186.58-1.776.14-.402.263-.815.426-1.207.375-.905.734-1.819 1.142-2.71.068-.143.135-.284.194-.43.062-.147.082-.307.106-.46.048-.268-.232-.52-.49-.52a.353.353 0 00-.113.018m23.51-16.147a37.459 37.459 0 00-.02 2.987c.027.96.051 1.926.106 2.887.054.955.095 1.906.18 2.858.089 1.012.17 2.028.277 3.041.295 2.876.591 5.755.9 8.63.04.445.083.889.123 1.333.037.416.085.83.109 1.245l.089 1.64c-.095-.326-.166-.66-.25-.986-.222-.869-.44-1.735-.651-2.604a448.956 448.956 0 00-4.528-17.349c-.06-.206-.121-.412-.174-.62a.401.401 0 00-.02-.13 1.418 1.418 0 00-.038-.113c-.099-.272-.33-.463-.634-.395a.537.537 0 00-.396.634c.096.41.218.815.334 1.217l.553 1.981c.177.635.345 1.269.508 1.903.488 1.886 1.003 3.764 1.452 5.66.461 1.95.941 3.901 1.361 5.861.201.959.41 1.916.61 2.875.201.964.382 1.937.614 2.894.14.573.277 1.143.433 1.712.075.273.15.546.232.819.041.146.085.29.122.436.052.184.107.365.202.532.113.201.29.341.477.467.519.348 1.224.058 1.415-.512.099-.29.205-.569.263-.87.068-.346.113-.695.143-1.05.05-.582.05-1.176.027-1.761-.02-.563-.044-1.13-.068-1.692-.037-.982-.132-1.96-.211-2.943-.082-1.043-.202-2.087-.307-3.13-.095-.955-.184-1.91-.276-2.864-.118-1.2-.238-2.403-.359-3.604-.081-.913-.16-1.825-.242-2.735-.082-.924-.112-1.854-.166-2.781-.102-1.798-.134-3.598-.236-5.395-.013-.27-.072-.497-.26-.703a.975.975 0 00-.677-.313h-.038a.988.988 0 00-.979.938m-79.427-22.264c-.013.381.301.75.697.75.391 0 .733-.29.75-.696.013-.381-.3-.75-.696-.75a.735.735 0 00-.75.696m1.041 10.478v-.001l.001.011v-.01zm-.003-.03l.002.016a.107.107 0 01-.002-.017zm-1.177-4.536c-.054 1.688-.091 3.396.01 5.084.045.801.137 1.6.216 2.397.075.733.213 1.46.3 2.19.06.696.145 1.381.266 2.069.122.678.265 1.35.385 2.028.225 1.303.426 2.612.648 3.914.225 1.334.504 2.653.937 3.939.481 1.438 1.048 2.847 1.586 4.27.464 1.226 1.006 2.44 1.664 3.579.678 1.166 1.411 2.295 2.134 3.43.413.651.822 1.3 1.273 1.92.436.6.903 1.159 1.397 1.711.417.464.843.925 1.262 1.392.446.494.883 1.005 1.364 1.469.644.624 1.323 1.21 1.977 1.828.593.56 1.105 1.207 1.654 1.81.583.645 1.193 1.266 1.75 1.937.254.312.505.628.75.95.606 1.031 1.08 2.148 1.636 3.203.137.256.27.508.399.764.048.092.096.18.146.272.021.038.041.075.066.113.197.345.337.484.64.723.13.103.283.178.444.212.15.023.3.05.45.078.307.01.596-.055.869-.201.15-.065.29-.161.396-.283.272-.317.306-.38.48-.767.093-.202.09-.45.12-.673.014-.111.03-.224.044-.34.039-.285.034-.57.006-.854l.028-.04c.244-.338.401-.757.572-1.135.28-.6.54-1.198.72-1.845.232-.824.293-1.685.415-2.53.082-.415.172-.827.234-1.248a6.306 6.306 0 00-.004-1.715c-.071-.559-.33-1.088-.583-1.582a13.743 13.743 0 00-.73-1.24c-1.123-1.707-2.41-3.29-3.75-4.83a5.605 5.605 0 00-.215-.261c-.505-.577-1.398-.707-2.066-.349-.263.14-.474.338-.638.59-.266.417-.29.84-.225 1.313.048.358.248.665.453.952.219.303.433.61.655.91l.081.11c.091.197.176.396.257.598.206.628.4 1.248.58 1.882a1.805 1.805 0 00-2.125 1.212l-.043.242a18.315 18.315 0 00-.935-.906 82.031 82.031 0 01-2.531-3.135c-.562-.733-1.145-1.45-1.693-2.193a57.84 57.84 0 01-3.956-7.333c-.256-.567-.467-1.163-.686-1.746-.246-.644-.488-1.293-.733-1.94a222.067 222.067 0 00-1.592-4.098 32.816 32.816 0 00-.399-.938c-.3-.686-1.18-1.013-1.872-.853a1.69 1.69 0 00-.76.411l-.024-.087c-.375-1.357-.72-2.724-1.078-4.085-.17-.651-.347-1.299-.487-1.957-.137-.648-.232-1.306-.359-1.954-.122-.613-.258-1.217-.344-1.837-.084-.628-.17-1.259-.244-1.89a45.962 45.962 0 01-.076-4.613.565.565 0 00-.535-.583h-.02a.565.565 0 00-.56.54zm47.531 39.304l-.091.11c.028-.039.058-.076.09-.11m-1.27-1.608c-.518.378-.726 1.09-.876 1.68-.044.192-.092.383-.136.573-.093.406-.136.778-.082 1.194.085.665.238 1.323.388 1.974.137.597.247 1.2.413 1.79.18.645.494 1.208.795 1.798.225.446.494.903.865 1.24.26.24.508.443.816.608.225.118.453.234.678.357.56.304 1.115.566 1.742.696.566.119 1.14.182 1.708.267.158.033.31.074.46.127.019.011.039.022.057.034.211.345.405.71.564 1.085.126.37.238.744.379 1.113.126.324.338.589.552.87.185.166.38.323.58.47.225.17.607.286.89.361.484.13 1.01.163 1.51.184a1.942 1.942 0 001.914-1.343c.324-1.01-.256-2.094-1.252-2.425a30.267 30.267 0 01-.425-.143c-.155-.508-.303-1.017-.533-1.503-.371-.792-.904-1.562-1.616-2.073-.692-.499-1.494-.714-2.32-.846-.71-.111-1.433-.088-2.147-.163a8.949 8.949 0 01-1.236-.433 3.565 3.565 0 01-.208-.124 8.585 8.585 0 01-.747-.91c-.576-.874-1.002-1.843-1.378-2.818a7.034 7.034 0 01-.242-.838 7.42 7.42 0 01.055-.695 4.75 4.75 0 01.158-.551.85.85 0 01.066-.049c.45-.334.406-1.074.058-1.452a1.03 1.03 0 00-.713-.328h-.036c-.279 0-.481.11-.7.273m-11.475-22.34c0-.004 0-.008.002-.012l.007-.053a.878.878 0 00-.009.065m.34-2.429c-.129.788-.23 1.576-.331 2.364l.008-.048c-.006.033-.01.067-.015.101l-.003.018.001-.006c-.02.143-.04.285-.069.426-.023.12-.071.238-.075.36.002 0 .003-.002.004-.003a.415.415 0 00.499.413c.014.035.03.07.045.103a6.046 6.046 0 00-.514-.056c-.18-.01-.368.007-.538.066a.922.922 0 00-.417.262c-.119.14-.194.293-.245.47-.068.25-.061.574.075.802.252.42.78.552 1.238.617.958.133 1.926.205 2.894.174a19.17 19.17 0 002.786-.28c.275-.048.552-.095.827-.15.146-.02.292-.045.435-.075.31-.065.62-.122.924-.218a2.72 2.72 0 001.074-.618c.116-.118.232-.29.255-.456a.755.755 0 00-.013-.341.667.667 0 00-.29-.377.473.473 0 00-.112-.151.727.727 0 00-.26-.154c-.065-.027-.133-.027-.2-.03-.086-.011-.185.023-.273.04-.052.01-.104.017-.157.026-.424.045-.845.071-1.269.1-.545.034-1.09.075-1.633.116-.48.038-.962.041-1.443.048-.562.004-1.13.026-1.69-.025a3.389 3.389 0 01-.543-.125.778.778 0 01-.045-.027.977.977 0 01-.094-.096 1.304 1.304 0 01-.098-.16 1.84 1.84 0 01-.072-.283 3.662 3.662 0 01-.001-.562 36.1 36.1 0 00.13-.437 8.56 8.56 0 00.293-1.432c.027-.151.041-.304-.089-.426a.408.408 0 00-.2-.102.448.448 0 00-.36-.193c-.195 0-.407.126-.439.325m2.347 7.788c-.172.024-.343.045-.512.073l.076-.012.459-.063-.023.002m-6.144-31.167c.013.005.024.011.036.017.025-.042.05-.085.07-.13.094-.165.145-.342.15-.532a3.816 3.816 0 01-.256.645m10.294-.881a.854.854 0 00-.515.395.852.852 0 00-.088.666c.065.228.208.381.396.515 1.084.767 2.266 1.456 3.556 1.817.569.156 1.162.245 1.749.327.501.072 1.006.122 1.514.157.453.034.91.068 1.367.075a33.32 33.32 0 005.933-.491c.514-.093 1.054-.222 1.537-.423.283-.116.58-.221.84-.389.074-.044.139-.095.207-.146.191-.144.304-.253.386-.491.122-.348-.136-.747-.474-.835-.297-.079-.522.037-.794.118-.3.09-.608.161-.91.236-.584.143-1.177.23-1.77.313-.67.07-1.344.129-2.016.185-.699.062-1.405.082-2.107.1-1.31.032-2.621-.066-3.919-.22-.194-.035-.39-.067-.582-.102a6.583 6.583 0 01-1.312-.374 13.268 13.268 0 01-2.333-1.347.766.766 0 00-.426-.117.914.914 0 00-.239.031m.974 41.946v.065c0 .031-.002.062-.004.092a2.74 2.74 0 00.163-.213c-.054.02-.106.038-.16.056m-10.099 1.678c.069.018.137.031.203.04l-.022-.013a1.473 1.473 0 01-.362-.303c-.108 0-.214-.011-.316-.035.14.143.31.26.497.31" fill="#000"/><path d="M244.087 164.623c-.15.034-.256.116-.38.2a23.485 23.485 0 01-1.073.71c-.584.37-1.155.754-1.783 1.044-.443.176-.897.325-1.35.48-.574.193-1.147.397-1.745.485-.607.076-1.216.14-1.826.18-.678.048-1.36.065-2.042.082-.709.02-1.415.04-2.124.062a41.85 41.85 0 00-.937.03c-.437.018-.88.014-1.313.092-.225.044-.382.287-.382.502 0 .269.2.474.453.514a.82.82 0 00.235.427c.14.122.26.218.44.272a3.166 3.166 0 00.501.12c.29.048.583.095.877.129.42.055.828.096 1.251.078.972-.037 1.937-.19 2.891-.347.465-.079.925-.16 1.385-.256.423-.085.852-.15 1.275-.239.447-.092.89-.19 1.323-.33a21.57 21.57 0 002.308-.917c.434-.202.835-.478 1.241-.727.19-.117.373-.242.552-.373.373-.24.74-.499 1.038-.82a.844.844 0 00.215-.368.823.823 0 00-.086-.645.828.828 0 00-.73-.41.953.953 0 00-.214.025m6.703 42.783c-.024-.056-.049-.114-.07-.172a10.151 10.151 0 00.07.172m-1.257-1.614l.056.042-.056-.042m-.435-5.376c-.699.052-1.398.171-2.083.32-.293.066-.583.15-.87.24a4.73 4.73 0 00-1.289.63 8.402 8.402 0 00-1.486 1.313c-.28.314-.542.645-.791.989-.348.491-.597 1.255-.27 1.81.273.465.795.615 1.293.631.415.018.903-.153 1.275-.338.275-.134.534-.297.8-.455.25-.017.5-.043.754-.077.694-.086 1.376-.131 2.073-.068.233.038.46.085.687.159.106.056.203.122.301.194.36.284.708.582 1.01.93l.024.044c.063.165.127.331.193.496.117.282.245.574.47.79.255.248.5.378.834.493.29.1.682.083.972-.002.457-.134.819-.472 1.04-.887.369-.689.392-1.48.328-2.24-.048-.593-.136-1.19-.341-1.753-.208-.566-.54-1.053-.945-1.497-.286-.316-.59-.63-.951-.865-.351-.23-.734-.383-1.122-.536a4.51 4.51 0 00-1.647-.33c-.087 0-.173.003-.259.01m-12.189-18.73l-.037.005a1.85 1.85 0 01.037-.005m1.426-.234l-.004.001-.02.01.024-.011m-5.43-.834l.016.013-.016-.013m-.046-.035l.025.018-.025-.018m9.214-2.918l-.015.034-.009.021a.52.52 0 01.024-.055m-11.202-1.35l.065.026c-.022-.008-.044-.018-.065-.025m9.888-.116l-.003.001-.02.008.023-.009m-3.37 1.468c.465-.038.929-.086 1.392-.14.488-.058.968-.16 1.446-.277.218-.054.43-.132.638-.21.249-.096.497-.198.743-.31.27-.124.529-.264.777-.43.055-.039.11-.078.164-.119a6.253 6.253 0 01-.058.32 4.3 4.3 0 01-.188.59c-.054.15-.115.299-.177.446a8.88 8.88 0 01-.875 1.44 6.21 6.21 0 01-.506.59c-.157.155-.327.305-.49.463-.123.12-.24.248-.363.371-.098.092-.214.17-.317.253l-.299.239a5.29 5.29 0 01-.318.22l-.062.03c-.278.11-.557.218-.838.319-.207.075-.433.106-.647.143-.157.026-.313.05-.467.074-.2.025-.402.05-.6.062-.251.019-.5.043-.746.024-.24-.052-.461-.159-.693-.238-.27-.091-.542-.161-.809-.259-.418-.184-.84-.39-1.207-.663a7.757 7.757 0 01-.62-.575 14.52 14.52 0 01-.551-.592 4.613 4.613 0 01-.424-.665 7.326 7.326 0 01-.199-.58 4.795 4.795 0 01-.15-.578c-.035-.311-.056-.622-.08-.934-.01-.127-.02-.255-.034-.383a.036.036 0 00.009.004c.178.08.357.163.536.243.221.106.442.211.67.3.424.157.85.296 1.28.433.88.28 1.8.378 2.72.4.23.006.463.013.694.013.217 0 .434-.006.65-.024m1.677-1.52l-.096.01.096-.01m-9.072-1.303c-.25.057-.444.313-.508.551a1.592 1.592 0 00-.038.556c.034.417.081.832.13 1.249.026.262.057.528.119.787.037.143.095.283.154.42.054.14.109.283.17.419.054.126.109.252.167.379.102.214.248.402.398.586.15.184.294.365.47.525.294.277.587.56.902.819.283.238.569.467.903.637.184.092.372.188.562.277.222.102.447.19.683.265.197.062.401.113.6.174.157.051.31.123.47.164.28.071.563.071.846.048.463-.041.92-.106 1.38-.18.222-.038.444-.093.662-.144.27-.062.528-.209.777-.327.24-.11.485-.209.706-.356.188-.122.372-.255.556-.385.385-.27.74-.569 1.088-.886.327-.298.602-.661.83-1.047a9.98 9.98 0 00.844-1.47 5.9 5.9 0 00.262-.634c.086-.239.154-.48.225-.722.052-.174.093-.352.11-.536.013-.194.027-.4-.017-.59a1.124 1.124 0 00-.106-.307.561.561 0 00-.318-.249c-.19-.055-.364.014-.535.09-.184.077-.354.193-.524.292a4.904 4.904 0 01-.482.246c-.4.15-.804.282-1.213.399-.437.122-.888.193-1.335.269-.685.083-1.373.138-2.064.16a20.043 20.043 0 01-2.074-.076 9.33 9.33 0 01-1.234-.278c-.433-.134-.87-.265-1.29-.431-.404-.173-.802-.359-1.213-.517-.113-.045-.228-.086-.34-.127a1.88 1.88 0 00-.383-.082.93.93 0 00-.084-.004c-.087 0-.169.015-.256.036" fill="#000"/><path d="M235.285 176.812c-.212.12-.368.333-.474.551a.479.479 0 00-.1.237c-.049.128-.09.258-.114.394a1.7 1.7 0 00.016.73c.041.171.127.341.216.491.249.43.74.632 1.19.775.18.057.378.075.569.091.348.03.688-.146.992-.29.464-.218.733-.756.863-1.227.112-.413.085-.897-.16-1.255-.183-.267-.478-.422-.802-.354-.123-.062-.248-.114-.375-.167a2.512 2.512 0 00-.95-.197 1.72 1.72 0 00-.87.22m-2.993 2.912l-.008.012.008-.012zm.1-.185l-.013.03.014-.03zm.958-1.013a.36.36 0 01-.059.067c-.08.056-.167.094-.258.134a.97.97 0 00-.306.235c-.167.177-.262.402-.355.622a.998.998 0 01-.067.12l-.013.015h-.005c-.2.003-.4-.013-.6-.024-.126-.01-.232.11-.232.232 0 .133.106.226.232.233.14.01.279.016.42.023.084.007.17.01.255-.003a.25.25 0 00.13-.034c.023-.01.044-.021.067-.03l.103-.083c.065-.051.112-.136.153-.204.024-.038.045-.079.068-.12.054-.098.111-.193.176-.284a1.27 1.27 0 01.136-.138c.066-.047.134-.088.203-.13a1.17 1.17 0 00.185-.133.592.592 0 00.14-.211c.044-.1.044-.205-.038-.287a.25.25 0 00-.174-.07.212.212 0 00-.16.07zm1.401 2.44l-.012.002h.001l.01-.002m.222-.824c-.037.116-.085.227-.12.343-.04.146-.055.295-.104.44l-.023.038-.06.014.05-.007v.002l-.159.018a.318.318 0 00-.32.318c0 .16.146.337.32.32.13-.014.26-.03.386-.058.119-.027.218-.13.293-.222.119-.153.18-.33.232-.518.055-.201.167-.39.164-.6a.338.338 0 00-.335-.333.35.35 0 00-.324.245m2.368-.164c-.089.024-.2.096-.241.185a3.284 3.284 0 00-.096.238.778.778 0 00-.027.345c.014.109.037.2.078.304.032.073.066.144.1.214a2.405 2.405 0 01-.1.133c-.058.075-.061.204-.037.29a.39.39 0 00.173.228c.09.051.195.065.294.038.102-.028.164-.093.225-.174a4 4 0 00.146-.201.649.649 0 00.085-.331c.004-.099-.037-.204-.064-.3a1.307 1.307 0 01-.031-.146c-.01-.11-.01-.222-.002-.334a.403.403 0 00-.19-.448.4.4 0 00-.313-.04m2.451-1.182l.002.003-.002-.003m-.025-.035l.022.03h-.001l-.021-.03m-.6-.334c-.236.065-.423.342-.334.583.044.12.085.236.16.338a.993.993 0 00.283.263c.085.057.198.088.294.115.068.018.132.038.198.064l.02.01c-.02.068-.042.135-.066.203-.077.222.086.47.3.528.24.068.451-.079.53-.3.027-.071.05-.144.075-.215.023-.078.06-.174.054-.258-.01-.11-.004-.247-.068-.342-.03-.04-.058-.082-.086-.123a.495.495 0 00-.156-.156 1.95 1.95 0 00-.324-.198c-.075-.039-.147-.074-.215-.118a1.576 1.576 0 01-.084-.087.651.651 0 01-.046-.089.466.466 0 00-.535-.218m2.609-.663l-.034.013c.011-.004.024-.008.034-.013m-.215-.017l.03.022c-.01-.007-.021-.014-.03-.022m.358-.085l-.013.01.013-.01m.13-.106l-.155.125a.883.883 0 01-.163.099.409.409 0 01-.075.016l.027.006a.167.167 0 01-.028-.006l-.033.006.03-.006.031-.005h-.051a.11.11 0 01-.009-.002c-.008-.005-.016-.01-.024-.013a.68.68 0 00-.025-.026.246.246 0 00-.344 0 .246.246 0 000 .345.593.593 0 00.225.143.698.698 0 00.443-.03c.096-.034.174-.093.252-.15.079-.056.15-.117.222-.178.099-.078.082-.242 0-.324a.226.226 0 00-.16-.065.249.249 0 00-.164.065m-10.176.349c-.2.04-.409.082-.596.174a3.61 3.61 0 00-.696.432.29.29 0 00-.126.168.273.273 0 00.191.337c.064.02.157.017.214-.027.22-.162.442-.31.683-.431a2.377 2.377 0 01.473-.135c.143-.03.225-.194.188-.33a.268.268 0 00-.268-.194.307.307 0 00-.063.006m35.208-3.672l-.083.034.084-.034m1.595-.797c-.313.095-.59.272-.876.433-.268.147-.544.279-.821.405-.656.255-1.325.474-2.002.675a123.396 123.396 0 01-1.681.481c-.211.062-.42.139-.635.185-.432.037-.872.017-1.302.013a19.428 19.428 0 01-1.51-.084c-.206-.03-.415-.055-.617-.1a16.42 16.42 0 01-.873-.222c-.497-.142-.98-.342-1.46-.534a61.24 61.24 0 01-1.183-.564c-.177-.085-.355-.126-.548-.071a.719.719 0 00-.427.327c-.184.313-.092.801.256.972.508.248 1.016.508 1.545.713l.722.286c.229.088.47.156.703.235.446.146.913.235 1.377.3.518.072 1.037.11 1.562.127.457.013.914-.004 1.367-.014a4.36 4.36 0 00.685-.061c.286-.052.563-.15.842-.23.853-.237 1.709-.446 2.537-.763.522-.198 1.051-.399 1.545-.662.474-.252.975-.522 1.323-.937.16-.188.219-.436.085-.662a.557.557 0 00-.471-.27.501.501 0 00-.143.022" fill="#000"/><path d="M259.465 180.703l.079.031-.079-.031zm9.82-7.61a.79.79 0 00-.095.092 2.2 2.2 0 01-.256.246c-.377.276-.789.482-1.2.688l-.778.392c-.228.112-.29.43-.17.638.061.105.163.18.28.214a.5.5 0 00.357-.048c.383-.177.757-.357 1.132-.538.201-.097.397-.2.584-.315a27.891 27.891 0 01-.043.366c-.054.38-.104.763-.148 1.146a8.47 8.47 0 01-.361 1.328c-.097.229-.2.456-.307.68-.133.27-.262.539-.437.784-.15.179-.314.355-.48.518a8.187 8.187 0 01-.562.528c-.273.2-.56.371-.847.546a7.883 7.883 0 01-.903.465c-.547.216-1.107.4-1.687.493-.57.062-1.135.032-1.703-.032a16.598 16.598 0 01-1.067-.234 8.127 8.127 0 01-1.016-.303c-.358-.173-.705-.372-1.057-.556-.48-.248-.953-.519-1.392-.833-.364-.298-.666-.645-.962-1.008-.493-.676-.939-1.385-1.273-2.152a.927.927 0 01-.028-.096c-.016-.352-.003-.707.017-1.059.014-.273-.242-.504-.505-.504-.286 0-.488.23-.501.504-.014.208-.02.412-.03.62-.004.112-.011.222-.014.334-.011.232.027.45.116.669.166.419.344.835.565 1.227.215.382.46.744.713 1.102.205.293.44.569.679.831.392.423.876.764 1.374 1.05.395.23.797.44 1.207.642.303.147.606.286.924.389.228.075.457.125.689.18.92.208 1.868.328 2.816.276.733-.037 1.429-.249 2.117-.49a7.82 7.82 0 001.245-.573c.365-.209.73-.423 1.07-.669.376-.27.7-.597 1.03-.917.218-.215.417-.444.587-.7.129-.193.245-.391.365-.589.109-.178.218-.348.327-.521.16-.26.263-.57.365-.856.064-.178.129-.362.17-.549a5.38 5.38 0 00.102-.778c.03-.44.075-.873.079-1.313.003-.429.007-.927-.273-1.278a.562.562 0 00-.418-.201.618.618 0 00-.397.163z" fill="#000"/><path d="M254.863 175.349c-.006.008-.013.016-.018.025a.36.36 0 01.018-.025m-.464-1.076a1.09 1.09 0 00-.297.19c-.116.12-.263.277-.297.448a2.36 2.36 0 00-.038.248c.007.079.018.157.031.236.014.085.034.167.052.249.071.31.422.49.715.41a.591.591 0 00.406-.717 1.671 1.671 0 01-.018-.091l.011-.008c.123-.09.215-.184.256-.334a.563.563 0 00-.054-.433.575.575 0 00-.474-.276.662.662 0 00-.293.078m7.998 2.97c.023.027.046.055.068.084h-.002a1.012 1.012 0 01-.066-.084zm.467-1.565c-.34.004-.674.065-.988.205a1.889 1.889 0 00-.421.274.9.9 0 00-.62-.053c-.238.066-.391.215-.53.413-.145.195-.24.416-.274.658-.027.13-.037.26-.03.389 0 .17.064.47.166.61.188.252.369.454.624.634.212.148.435.262.673.351.311.183.68.274 1.04.315.187.016.367.02.555.013a2 2 0 00.682-.12c.16-.065.31-.141.443-.242a2.79 2.79 0 00.242-.173c.27-.215.416-.55.515-.87.058-.191.082-.392.09-.59.003-.283-.09-.535-.199-.787-.133-.317-.426-.576-.712-.757-.362-.223-.794-.27-1.208-.27h-.048zm-6.889 2.943l-.03.004.03-.004zm1.794-1.087a2.119 2.119 0 01-.203.131c-.07.025-.137.048-.21.07a1.56 1.56 0 00-.43.195c-.058.034-.115.085-.167.13-.05.044-.102.085-.15.128-.126.11-.252.219-.378.322.02-.014.038-.032.058-.045-.056.047-.12.09-.187.126a.767.767 0 01-.095.025c-.097.006-.195.009-.29.012a.303.303 0 00-.298.3c0 .158.134.304.297.297a3.99 3.99 0 01.205-.007c.095-.003.187-.02.283-.037.211-.038.385-.204.546-.338.168-.137.326-.292.496-.429.081-.05.164-.094.25-.135.093-.04.182-.078.273-.121.061-.034.13-.072.18-.122.038-.038.076-.079.11-.123a.243.243 0 00.037-.294.258.258 0 00-.213-.12c-.04 0-.08.011-.114.035z" fill="#000"/><path d="M260.471 178.942l-.04-.05a.56.56 0 00.04.05zm-.116-.15l.014.018-.014-.018zm.361-.689zm-.222-.478c-.002.014-.005.028-.005.042a.2.2 0 01.005-.042zm0-.005v.001zm.025-.08l-.013.037.013-.036zm-.068-.766a1.423 1.423 0 00-.423.295.868.868 0 00-.201.352c-.062.184-.014.41.057.583l.021.05a3.112 3.112 0 00.19.377c.085.134.179.258.277.382.019.027.04.053.06.078a1.718 1.718 0 00.36.36c.033.025.071.045.109.066.03.013.064.03.098.044.066.031.134.058.198.085.215.059.433.086.651.102a1.8 1.8 0 00.355-.02c.15-.017.297-.04.443-.075.208-.048.41-.136.604-.225a2.8 2.8 0 00.385-.211c.164-.106.31-.238.45-.372.14-.133.27-.283.372-.443.137-.222.201-.467.252-.723.048-.235-.027-.474-.245-.603a.541.541 0 00-.412-.052.515.515 0 00-.318.245c-.088.185-.174.372-.269.553a2.612 2.612 0 01-.189.326c-.06.073-.126.144-.2.208a2.426 2.426 0 01-.372.221 4.062 4.062 0 01-.784.198 4.077 4.077 0 01-.438-.003 2.374 2.374 0 01-.355-.092.842.842 0 01-.102-.06 2.226 2.226 0 01-.264-.264 1.876 1.876 0 01-.218-.373l.007.019a1.192 1.192 0 01-.05-.156v-.047l.012-.02c.04-.045.08-.083.125-.12a.985.985 0 01.165-.086c.17-.078.211-.327.123-.477a.346.346 0 00-.209-.156.3.3 0 00-.085-.014.415.415 0 00-.18.048zm-1.441 3.66a.26.26 0 01-.03.025l.03-.025m.027-.01l-.01.029a.106.106 0 01.01-.028m.052-.079l-.03.038.03-.038m.368-.841c-.082.023-.18.084-.215.163a1.723 1.723 0 00-.12.341c-.032.125-.037.256-.074.38l-.01.017-.009.01c-.1.066-.208.114-.32.166-.081.037-.142.136-.166.222a.36.36 0 00.038.282.353.353 0 00.218.167.388.388 0 00.283-.037c.12-.055.232-.106.34-.181a.831.831 0 00.314-.389c.052-.122.068-.255.092-.388.02-.106.04-.208.069-.314a.36.36 0 00-.168-.402.334.334 0 00-.272-.037m2.097 1.407v.001m-.019-.03l.001.002a.359.359 0 01-.022.045l.021-.048m.006-.013v.003l-.001-.002v-.001m-.008-.02l.008.018h-.001c-.003-.005-.005-.012-.007-.019m.623-.395c0 .01.003.021.004.03l-.004-.03m.004-.18l-.004.03c0-.01.002-.021.004-.03m-.791-.328c-.02.081-.034.163-.041.245-.01.099.003.195.02.294a.838.838 0 00.12.296c.02.034.043.067.066.099a.95.95 0 01-.062.093c-.098.11-.196.215-.298.32a.349.349 0 000 .49.35.35 0 00.491 0c.195-.197.406-.398.536-.647a.637.637 0 00.055-.44.989.989 0 00-.077-.206.601.601 0 01-.026-.083l.001-.073c.014-.093.027-.186.033-.279.014-.184-.137-.355-.307-.402a.384.384 0 00-.105-.014c-.181 0-.366.118-.406.307m2.912.865v.002c.002.01.003.021.003.032l-.003-.034m-.226-.661c-.01.16.007.31.083.457.03.057.065.108.104.158-.02.036-.044.07-.069.106a4.69 4.69 0 01-.243.264.431.431 0 000 .603c.163.164.44.164.603 0 .195-.197.402-.415.511-.674a.772.772 0 00.076-.276c.003-.075-.01-.147-.021-.218-.01-.066-.051-.134-.085-.192a.78.78 0 00-.083-.11.6.6 0 01-.03-.051.866.866 0 01-.04-.176.418.418 0 00-.106-.181.42.42 0 00-.29-.12c-.232 0-.392.188-.41.41m2.382-.995l.041.034-.04-.034m.187-.801l.014.019c-.004-.006-.01-.012-.014-.02m-.914-.371a.355.355 0 000 .5c.077.077.162.13.254.174a.552.552 0 00.135.223c.114.131.261.229.403.33.106.092.2.193.288.3.036.054.07.107.103.164a.359.359 0 00.488.126.359.359 0 00.126-.483 2.65 2.65 0 00-.32-.437 2.53 2.53 0 00-.24-.236 6.709 6.709 0 01-.115-.088 1.597 1.597 0 01-.123-.105.298.298 0 00-.01-.12.458.458 0 00-.188-.263c-.112-.076-.237-.096-.361-.134l-.01-.005a.36.36 0 00-.43.054m2.987-1.505l-.038.007.038-.007m-.706-.596c-.13.048-.249.116-.368.18-.096.052-.19.095-.287.137-.06.02-.12.035-.182.046a2.558 2.558 0 01-.409.01.427.427 0 00-.496.306c-.058.218.071.481.3.528.092.021.184.03.28.03.099.004.204-.026.303-.046a2.81 2.81 0 00.563-.178c.215-.095.411-.224.622-.322.063-.021.124-.04.187-.055a.381.381 0 00.155.176.35.35 0 00.28.037.357.357 0 00.218-.166c.055-.093.055-.181.038-.284a.8.8 0 00-.085-.292.357.357 0 00-.134-.134c-.095-.045-.184-.099-.293-.102l-.04-.001c-.221 0-.445.053-.652.13m-11.422 2.45l-.002.024c0-.008 0-.016.002-.024m.032-.112l-.008.022c.002-.007.004-.015.008-.022m1.04-.771a7.224 7.224 0 01-.549.027c-.061.003-.123 0-.184 0a2.017 2.017 0 00-.535.038c-.29.082-.474.36-.522.648-.041.258.044.532.102.784.045.198.266.31.454.26a.38.38 0 00.26-.455 5.498 5.498 0 01-.089-.405.4.4 0 010-.056l.007-.025.003-.005c.187-.012.374-.007.562-.02.198-.01.393-.04.586-.085.154-.034.263-.191.263-.345 0-.18-.153-.362-.339-.362h-.019" fill="#000"/><path d="M261.707 178.723c.004.005.008.01.01.015l-.01-.015m-.034-.064l.013.027c-.004-.008-.01-.017-.013-.027m0-.044l.01.056a.394.394 0 01-.01-.056m2.005-1.047a9.441 9.441 0 00-.07.441.263.263 0 00-.064.026.309.309 0 00-.098.106c-.024.031-.038.085-.05.123-.011.027-.018.058-.029.086a3.041 3.041 0 01-.054.165 1.306 1.306 0 01-.113.208 1.03 1.03 0 01-.14.142c-.03.02-.061.037-.09.055a2.533 2.533 0 01-.354.085c-.1.006-.198.001-.3-.01a1.844 1.844 0 01-.35-.106 2.922 2.922 0 01-.251-.162l-.018-.02a.056.056 0 01-.007-.012l-.007-.023a.726.726 0 010-.088c.035-.21.097-.413.153-.617a.215.215 0 00-.153-.265.217.217 0 00-.266.15c-.06.208-.123.416-.164.63a.82.82 0 00.004.351c.024.11.1.209.18.28l.088.076a.234.234 0 00-.125.122.278.278 0 00-.038.137c0 .077.032.136.082.193.09.103.229.144.355.172.15.034.3.05.454.057.194.01.392-.02.583-.064a1.99 1.99 0 00.433-.178 1.24 1.24 0 00.31-.232c.082-.078.15-.167.219-.256.08-.109.132-.225.183-.347.154-.365.171-.767.195-1.157.007-.112-.082-.218-.185-.245a.253.253 0 00-.062-.008c-.111 0-.228.071-.251.185m-27.969.294l.015-.002-.015.002zm-.94.754l.003.004-.007-.01.005.006zm2.212.782h.005-.005zm-2.2-.766l.002.002c.002.002.002.005.004.006a.031.031 0 01-.006-.008zm3.366-.001l-.008.023.008-.023zm.112-.427zm-1.422-.388c.375 0 .75 0 1.122.03.061.01.12.02.18.04a.95.95 0 01.082.046l.007.012c.01.03.018.062.025.094.003.076.001.15-.005.226a2.11 2.11 0 01-.087.328c-.062.109-.128.21-.2.31-.07.079-.14.156-.218.225a1.82 1.82 0 01-.218.129 2.99 2.99 0 01-.539.141l.049-.007-.052.007-.037.007a3.148 3.148 0 01-.86-.008 2.662 2.662 0 01-.54-.132 2.101 2.101 0 01-.356-.218l.062.052a3.137 3.137 0 01-.48-.478l.01.013c0-.001 0-.002-.002-.002l-.01-.015-.026-.033.021.028a1.717 1.717 0 01-.064-.098l.043-.009a.441.441 0 00.311-.381c.091-.06.186-.11.285-.156.063-.023.125-.046.19-.067a1.15 1.15 0 01.179-.038h-.011.011l.081-.012c-.023.005-.044.007-.066.01a8.58 8.58 0 011.113-.044zm-1.933-.247a.2.2 0 00-.02.01l.014-.008.006-.002zm.327-.626c-.198.075-.392.146-.587.227-.061.025-.119.052-.18.079a.675.675 0 00-.17.116.75.75 0 00-.127.184c-.044.086-.065.184-.092.28a1.066 1.066 0 00-.03.416c.012.102.026.204.06.307.048.143.117.28.199.405.193.297.45.574.746.768.225.146.48.239.747.29.249.044.498.078.75.092.154.007.307-.014.46-.03l.304-.045a2.75 2.75 0 00.586-.184c.406-.178.689-.542.921-.907l.047-.11a2.204 2.204 0 00.127-.371 2.72 2.72 0 00.054-.331c.017-.147-.01-.31-.054-.45a.81.81 0 00-.327-.413c-.059-.04-.14-.06-.21-.082-.077-.023-.166-.027-.244-.034-.11-.01-.229.004-.338.01-.228.01-.457.014-.685.02-.27.004-.539.008-.808 0-.259-.003-.518-.023-.778-.03l-.076.001a.242.242 0 00-.23-.22.174.174 0 00-.065.012zm-5.495 11.333h.002-.003zm-.237-1.35l-.006.037.006-.037zm.082-3.206c-.08.076-.152.16-.218.26a1.94 1.94 0 00-.287.858 8.08 8.08 0 00-.343 1.73c-.027.307-.056.621-.062.935l-.003.02a4.5 4.5 0 00-.051.613c-.004.16.027.328.075.478.064.2.211.354.375.477.228.17.501.246.784.239.358-.01.712-.235.907-.532.18-.273.26-.58.26-.903.003-.202-.058-.413-.113-.608a9.383 9.383 0 00-.3-.852 4.364 4.364 0 01-.213-.797 3.178 3.178 0 01-.003-.569c.02-.106.048-.21.083-.312a1.71 1.71 0 01.085-.138c.058-.062.118-.124.174-.189.065-.072.123-.15.177-.229.113-.15.11-.347.075-.517a.587.587 0 00-.584-.438c-.328 0-.615.217-.818.474z" fill="#000"/></g></svg>