<svg width="500" height="600" xmlns="http://www.w3.org/2000/svg" xmlns:xlink="http://www.w3.org/1999/xlink"><defs><path id="a" d="M0 .286h102.935V148.39H0z"/></defs><g fill="none" fill-rule="evenodd"><path d="M253.575 180.875c-.041-.007-.086-.01-.127-.017.041.007.086.014.127.017m-9.013 12.228c-.126.457.02.897.324 1.2h.004a8.45 8.45 0 001.422.317c.787.062 1.572.082 2.359.082.79.004 1.589.018 2.38-.023.808-.041 1.616-.048 2.424-.09.392-.02.78-.05 1.173-.091.116-.293.164-.567.079-.894a1.515 1.515 0 00-.096-.269.407.407 0 01-.017-.062 1.003 1.003 0 00-.19-.401c-.477.133-.956.251-1.446.32-.58.085-1.163.18-1.746.238-.464.041-.931.065-1.395.099-.388.028-.808.1-1.197.062-.406-.041-.856-.062-1.203-.304-.293-.2-.564-.5-.698-.846l-.642-.21a1.024 1.024 0 00-.335-.055c-.538 0-1.057.402-1.2.927m-2.022-15.953l.065.087a4.56 4.56 0 01-.066-.088m-1.725-1.646l.082.06-.082-.06m-5.882-3.29c-.413.15-.818.312-1.223.473-.424.167-.853.337-1.256.55a6.977 6.977 0 00-1.193.766c-.292.236-.581.477-.875.71-.575.431-1.159.846-1.72 1.294a6.782 6.782 0 00-.57.508c-.101.103-.244.21-.309.338-.075.15-.089.315 0 .464a.45.45 0 00.395.228c.167-.003.335-.085.484-.15.16-.068.307-.153.46-.234.502-.27.98-.587 1.457-.898.256-.163.511-.327.767-.494.231-.153.45-.324.678-.48.436-.302.922-.525 1.405-.733.378-.148.765-.267 1.15-.396a8.761 8.761 0 011.285-.343 6.51 6.51 0 01.726-.008c.225.01.453.048.679.078-.09-.01-.178-.024-.263-.034.204.027.406.061.607.102.17.034.337.099.501.157.328.111.65.239.973.365.132.061.263.126.394.194.154.079.297.18.447.27.26.155.518.306.766.479.341.299.656.622.99.925.164.15.33.29.491.444.168.164.323.338.475.516.097.137.186.275.275.421a.97.97 0 001.313.345.973.973 0 00.348-1.316c-.093-.15-.177-.308-.28-.45-.126-.185-.26-.366-.389-.55-.153-.211-.296-.436-.47-.633-.13-.15-.256-.3-.382-.45-.276-.332-.56-.676-.886-.96-.396-.333-.823-.585-1.276-.831a7.819 7.819 0 00-2.604-.849 10.74 10.74 0 00-1.49-.117c-.638 0-1.273.08-1.88.298" fill="#000"/><path d="M236.705 176.664a.66.66 0 01.15-.082.278.278 0 01.057-.007c.021 0 .038.003.059.007a.25.25 0 01.119.03c.034.018.069.034.1.059.03.023.064.047.094.071a.565.565 0 01.072.088.732.732 0 01.06.15c.008.042.011.08.018.12-.003.038-.01.075-.014.113l-.04.098a.599.599 0 01-.328.283c-.013.007-.03.01-.047.018a.222.222 0 01-.195.116.399.399 0 01-.245-.068.374.374 0 01-.123-.161.5.5 0 01-.041-.263l-.017-.01c-.037-.034-.075-.068-.109-.106.032-.03.061-.062.092-.092a.751.751 0 01.003-.126.213.213 0 01.065-.153.212.212 0 01.154-.065c.024 0 .048.007.071.014.014-.014.03-.024.045-.034m-.925-4.109a3.978 3.978 0 00-.6.272c-.187.103-.35.256-.518.397-.218.18-.395.426-.562.664-.154.15-.28.33-.406.502a3.702 3.702 0 00-.72 1.701c-.095.535-.174 1.05.028 1.575.252.658.716 1.244 1.241 1.708.238.212.501.402.77.577.307.197.686.306 1.034.395.678.17 1.387.123 2.07.017a4.167 4.167 0 001.05-.317 7.73 7.73 0 00.484-.238 2.64 2.64 0 00.576-.4c.5-.51.801-1.156.917-1.857.116-.72.126-1.453-.13-2.145-.249-.686-.555-1.45-1.074-1.978-.248-.252-.576-.447-.886-.614-.324-.17-.675-.3-1.026-.402a2.88 2.88 0 00-.846-.123c-.474 0-.948.105-1.402.266" fill="#000"/><path d="M240.926 178.514c-.195.02-.29.04-.464.126-.064.034-.126.078-.19.116-.196.11-.4.206-.606.3-.323.125-.664.199-1 .273-.306.066-.61.13-.915.177-.424.055-.85.113-1.275.17l.191-.027c-.658.055-1.337.036-1.994-.038a3.575 3.575 0 01-.59-.15c-.226-.12-.446-.252-.668-.382a.668.668 0 00-.901.236.666.666 0 00.236.9c.17.096.34.195.511.29.354.205.723.324 1.122.399.422.078.859.109 1.285.146.3.025.6.059.9.052.314-.004.628-.052.938-.09.365-.043.733-.087 1.091-.17.324-.074.648-.153.972-.238.443-.116.86-.3 1.275-.484.28-.123.552-.222.71-.512a.742.742 0 000-.733c-.113-.192-.349-.363-.584-.363l-.044.002m28.305-1.59l.076.06-.076-.06m-11.613-.098l-.05.04.05-.04m5.81-4.477c-.593.01-1.176.075-1.76.18-.497.092-.97.27-1.441.454-1.01.398-1.89 1.023-2.769 1.65-.474.341-.935.692-1.368 1.084-.18.164-.34.349-.504.526-.355.385-.682.78-.99 1.207-.275.385-.067.968.315 1.193.2.116.446.15.671.088.236-.064.383-.21.522-.402l.145-.196c.373-.448.798-.85 1.253-1.215a33.84 33.84 0 011.616-1.047c.472-.298.961-.565 1.47-.792a10.218 10.218 0 011.726-.446c.557-.04 1.1-.05 1.654.008.403.068.806.15 1.206.237.416.097.82.225 1.22.374.206.093.413.19.614.295.287.147.56.317.84.47.272.15.552.304.804.485.244.177.482.364.725.54.158.126.312.255.472.38.33.26.661.433 1.053.58.341.123.747-.082.921-.375a.828.828 0 00-.293-1.119 2.438 2.438 0 01-.114-.068c-.318-.27-.612-.562-.91-.855a9.41 9.41 0 00-1.251-1.085c-.426-.3-.866-.586-1.315-.852-.472-.28-.982-.487-1.491-.689-.437-.17-.904-.276-1.36-.385-.507-.12-1.042-.227-1.569-.227l-.091.002" fill="#000"/><path d="M263.733 176.89c.03.017.058.035.087.053l.011.012c.03.045.057.09.082.137.018.063.034.125.049.188.003.093.003.183-.002.276a6.79 6.79 0 01-.088.378l-.151.044-.079.01a3.402 3.402 0 01-.34.018 3.823 3.823 0 01-.195-.055l-.008-.005c-.025-.023-.048-.049-.073-.074a1.569 1.569 0 01-.042-.073 3.941 3.941 0 01-.068-.226v-.018c.015-.06.032-.12.05-.18.041-.075.086-.148.132-.22a4.7 4.7 0 01.183-.19c.09-.03.18-.054.272-.074a2.7 2.7 0 01.18 0m-1.162-3.864c-.167.024-.328.085-.485.144-.88.316-1.708.77-2.376 1.431a3.695 3.695 0 00-1.085 2.572c0 .265.066.531.107.79.027.174.068.335.125.501.192.56.519 1.034.945 1.436l.13.12c.194.304.437.581.712.807.344.287.72.45 1.14.604.384.14.824.187 1.23.194.477.01.975-.075 1.425-.225a4.885 4.885 0 001.954-1.261c.226-.24.402-.511.541-.799.104-.127.2-.26.298-.391.286-.389.34-.904.388-1.368.082-.77-.05-1.592-.49-2.243a2.909 2.909 0 01-.046-.065l-.04-.089c-.188-.408-.5-.777-.79-1.114-.407-.481-.96-.73-1.528-.955-.246-.096-.556-.113-.805-.147a4.106 4.106 0 00-.495-.038h-.058c-.268 0-.534.062-.797.096" fill="#000"/><path d="M260.545 180.507l.082.033a2.298 2.298 0 01-.082-.033m-1.946-.31c-.168.283-.082.698.22.855.458.233.921.46 1.392.662.426.184.86.297 1.316.368.229.038.457.058.682.085.327.038.655.068.982.1.177.013.358.01.536.013.163.007.333.007.497-.01.41-.035.815-.086 1.217-.168.324-.068.638-.17.952-.268.314-.1.627-.182.937-.291.164-.058.327-.119.488-.19.154-.072.3-.161.41-.3a.592.592 0 00.091-.716c-.122-.209-.426-.369-.668-.274-.092.038-.194.055-.29.082-.119.031-.239.065-.358.1-.296.085-.59.163-.886.242-.245.064-.485.149-.733.207-.288.072-.575.126-.867.175a9.842 9.842 0 01-1.343.06 30.349 30.349 0 01-1.412-.09 5.062 5.062 0 01-1.092-.282 24.304 24.304 0 01-1.22-.582.704.704 0 00-.321-.08.603.603 0 00-.53.302m-12.201-6.993c-.317.184-.399.577-.236.89.134.26.263.515.383.778.198.494.293 1.006.378 1.527.082.678.14 1.36.16 2.046a17.28 17.28 0 01-.091 2.145c-.147 1.48-.328 2.96-.508 4.439-.188 1.23-.383 2.462-.696 3.672-.16.61-.352 1.21-.542 1.814-.147.454-.252.928-.43 1.37-.02.045-.04.093-.062.14a1.681 1.681 0 00-.17.618c-.017.15.072.416.147.546.085.145.245.317.402.392a1.018 1.018 0 001.238-.161c.208-.204.31-.49.297-.77.018-.08.039-.157.06-.236a1.201 1.201 0 01-.07-.56c.05-.446.078-.579.259-.981.091-.211.247-.39.398-.565a26.92 26.92 0 00.491-2.07c.188-.952.273-1.927.382-2.892.102-.9.154-1.81.232-2.714.062-.682.12-1.36.167-2.042.045-.61.027-1.218-.014-1.825a22.765 22.765 0 00-.225-2.148c-.047-.31-.113-.617-.177-.923a7.786 7.786 0 00-.324-1.095c-.154-.399-.358-.781-.556-1.163a.631.631 0 00-.566-.317.655.655 0 00-.327.085" fill="#000"/><g transform="translate(210 122.587)"><mask id="b" fill="#fff"><use xlink:href="#a"/></mask><path d="M51.756 89.866c.385-.276.77-.553 1.159-.825l.463-.328.157-.109.161-.112c.079.45.245.862.508 1.288l.072.116-.665.038-.856.089a69.71 69.71 0 01-1.477.17c.168-.11.328-.218.478-.327m14.136-30.204l.168-1.524.143-1.347c.105-1.06.211-2.066.204-3.071v-.682a83.64 83.64 0 00-.02-1.552l.133.048a10.272 10.272 0 01.6-.007l.122.048c.102.34.181.7.24 1.095.013.118.027.245.037.37.038.331.03.7-.024 1.195-.201 1.285-.556 2.547-.897 3.767l-.177.61-.229.815-.166.6-.226.808-.109.403-.034.116c.085-.488.163-1.03.235-1.692m-53.88 3.025l-.25-.075a8.903 8.903 0 01-1.05-.672 4 4 0 01-.432-.402 4.248 4.248 0 01-.338-.61c-.157-.413-.229-.873-.297-1.35l-.043-.4c-.082-.726-.15-1.377-.134-2.022.018-.723.045-1.49.13-2.226.13-.75.269-1.484.521-2.144.27-.6.58-1.14.921-1.6.061-.075.127-.14.198-.205.088-.064.187-.12.283-.173l.188-.052.095.014.099.018.007.555-.058 1.398a28.038 28.038 0 000 2.95c.044.708.092 1.422.143 2.134l.072 1.057a87.3 87.3 0 01.156 2.987c.01.297.017.586.02.873l.008.01a2.091 2.091 0 00-.24-.065m4.932-22.395l.252-.082.644-.208c.675-.214 1.323-.48 2.093-.815.26-.11.519-.218.781-.32a25.396 25.396 0 001.995-.918l.133-.063.624-.311c.32-.157.638-.327.958-.501l.086-.045.442-.239a120.092 120.092 0 004.01-2.213 59.99 59.99 0 002.135-1.316l.157-.102.412-.265 1.177-.764c.16-.103.317-.216.474-.328l.177-.13.133-.091.082-.059c.167-.116.29-.204.406-.303l.303-.242.096-.079c.269-.218.535-.436.79-.668l.235-.218a162.636 162.636 0 012.261-2.019l.068-.057c.427-.383.76-.682 1.068-1.003l.259-.27c.256-.262.642-.657.924-1.036.147-.2.273-.396.4-.596l.053-.082.09-.137.078-.116.15-.218c.034.208.116.378.204.546l.055.098.157.304c.218.406.477.805.818 1.258.263.33.546.679.88.962.225.194.46.385.696.569l.49.382.986.764c.937.723 1.735 1.295 2.448 1.748.695.465 1.518.894 2.06 1.177l.136.068.085.041.113.059.28.14.623.327.239.122c.941.484 1.882.969 2.834 1.425a64.339 64.339 0 003.873 1.678l.123.055a22.41 22.41 0 011.483.689c.61.32 1.129.64 1.596.982.143.123.275.261.429.46.222.286.436.597.631.907.197.32.368.65.556 1.077.487 1.271.856 2.698 1.156 4.487.126 1.068.222 1.954.252 2.817.01.262.017.522.02.78.004.226.007.447.014.669l.041 1.033c-.263.187-.386.6-.286.968a.928.928 0 00.344.501l-.024 2.056c0 .611-.024 1.136-.064 1.61-.032.372-.072.743-.116 1.112l-.042.365-.04.34-.042.341-.023.198c-.055.443-.096.784-.13 1.125a98.41 98.41 0 01-.245 2.22 35.615 35.615 0 01-.453 2.673 25.657 25.657 0 01-.393 1.626c-.113.433-.253.86-.392 1.286l-.045.133c-.231.74-.531 1.599-1.032 2.967-.161.436-.315.87-.467 1.309l-.1.28-.098.282a31.79 31.79 0 01-.3.863 47.16 47.16 0 01-.792 2.029l-.037.092c-.297.678-.596 1.364-.921 2.035-.402.829-.804 1.654-1.224 2.469-.753 1.452-1.756 2.83-2.563 3.935l-.233.317a23.9 23.9 0 01-2.151 2.373c-.396.392-.791.77-1.183 1.125l.113.027.074-.023-.215.129a33.345 33.345 0 00-1.227.91l-.89.645c-.212.15-.427.3-.645.446l-.003-.006-.147.054a6.61 6.61 0 00-.5.256l-.175.102c-1.057.576-1.912 1.007-2.69 1.347-.35.143-.71.263-1.074.382l-.328.11-.122.04c-.198.069-.388.133-.583.198-.375.116-.753.207-1.14.296-.278.052-.565.09-.851.124l-.284.037-.214.017-.276.017-.355.027a5.968 5.968 0 01-.256.007c-.212 0-.42-.01-.628-.024l-.136-.01a25.631 25.631 0 01-1.612-.177l-.116-.007c-.914-.13-1.876-.375-2.646-.573l-.28-.069-.303-.077c-.62-.164-1.16-.311-1.688-.488a29.05 29.05 0 01-1.569-.594c-.32-.143-.634-.297-.948-.45a13.78 13.78 0 01-.47-.242l-.147-.075a7.99 7.99 0 00-.385-.197c-.436-.212-.72-.352-.985-.519a8.326 8.326 0 01-1.44-1.118 8 8 0 01-.592-.631l-.137-.157-.137-.153c-.354-.39-.726-.76-1.101-1.132l-.136-.136a28.033 28.033 0 01-.556-.56l-.092-.095a45.66 45.66 0 01-1.694-1.835c-.284-.327-.56-.658-.836-.989-.57-.96-1.251-1.871-1.913-2.755l-.35-.515a20.046 20.046 0 01-1.133-2.087c-.136-.367-.249-.75-.358-1.13l-.037-.124c-.093-.32-.181-.648-.267-.971l-.027-.103-.03-.112-.041-.147-.116-.436a32.33 32.33 0 01-.56-2.271c-.085-.413-.16-.832-.235-1.255l-.048-.263-.047-.259a40.13 40.13 0 00-.171-.93l-.082-.447-.03-.164a61.435 61.435 0 01-.355-2.005c-.051-.396-.102-.791-.123-1.187a85.255 85.255 0 01-.065-1.565l-.007-.354c-.027-.92-.05-1.824-.112-2.683-.034-.508-.074-1.02-.115-1.528l-.014-.167c-.113-1.43-.23-2.909-.199-4.413.014-.569.041-1.135.073-1.705l.044-.91c.03-.764.04-1.527.048-2.295l.003-.283a47.96 47.96 0 01.095-2.458l.041-.583.021-.265a50.33 50.33 0 01.126-1.498l.085-.521.089-.563.014-.099a7.59 7.59 0 00.085-.787 2.55 2.55 0 00-.01-.35 2.77 2.77 0 01-.014-.261.913.913 0 00-.027-.249l.091.007a32.09 32.09 0 001.92-.583M44.023.347l-.596.028c-.72.024-1.442.027-2.159.03h-.276l-.27.004c-.75.004-1.582.05-2.693.15-.696.065-1.392.112-2.09.16l-.529.038a49.32 49.32 0 00-1.763.153l-.732.075c-1.054.106-1.93.201-2.831.392-.893.195-1.8.49-2.4.686l-.205.064c-.917.29-1.803.733-2.584 1.125l-.795.4c-.644.324-1.285.648-1.923.985a34.163 34.163 0 00-4.856 3.096 59.198 59.198 0 00-2.062 1.715l-.072.065-.286.248a33.336 33.336 0 00-2.2 2.09 75.78 75.78 0 00-1.415 1.555l-.576.648c-.821.918-1.544 1.859-2.087 2.575-.467.617-.89 1.289-1.23 1.83l-.085.14-.243.386a52.939 52.939 0 00-1.472 2.458l-.158.28c-.293.521-.583 1.043-.869 1.571-.497.91-.859 1.859-1.186 2.753a42.76 42.76 0 00-.966 2.98c-.15.549-.282 1.1-.415 1.657L1.923 31l-.079.311-.126.501a59.195 59.195 0 00-.689 3.107c-.361 1.862-.6 3.842-.76 6.236-.11 1.704-.191 3.577-.253 5.888a95.121 95.121 0 00.021 4.32l.024 1.432c.017.955.058 1.89.12 2.858.034.48.043.958.054 1.439l.007.173.003.184.02.846c.052 1.585.154 3.14.263 4.73l.014.207.013.215.045.628.01.166c.443 1.535.83 3.083 1.238 4.624.208.781.402 1.565.606 2.346.165.62.383 1.22.607 1.818.447 1.114.931 2.202 1.395 3.307.443 1.047.876 2.093 1.333 3.134a97.463 97.463 0 001.606 3.42c.174.082.334.193.477.337.59.586 1.092 1.278 1.61 1.93.412.525.828 1.047 1.245 1.572.862 1.098 1.728 2.196 2.584 3.3.549.71 1.098 1.418 1.647 2.124a131.11 131.11 0 001.992 2.343c.177.13.323.297.429.484.119.133.238.266.358.395.276.308.556.611.828.921.045.052.095.106.147.164.28.208.565.403.866.58.058.02.12.04.18.057.031.004.062.004.096.007.43-.207.965-.342 1.444-.263a48.969 48.969 0 00.694-1.881c.2-.603.338-1.245.467-1.862l.09-.413c.234-1.125.377-1.994.463-2.816.078-.774.04-1.582-.116-2.472.21.235.378.41.545.587l.273.3c.253.28.45.498.668.695.354.324.713.61 1.064.846a11.544 11.544 0 001.719 1.005l.081.045.484.245c.454.236.914.464 1.385.676.896.419 1.817.77 2.731 1.04.893.276 1.756.51 2.567.698l.28.068.116.035c.273.071.543.14.811.198.392.078.785.129 1.177.18l.126.017.307.041c.685.092 1.425.177 2.179.177.187 0 .382-.006.573-.016.546-.038 1.084-.113 1.623-.188A10.66 10.66 0 0043 93.753c.399-.113.79-.246 1.183-.382l.105-.04.106-.035a.384.384 0 00.146.024c.13 0 .27-.017.43-.048.178-.038.348-.113.512-.185l.225-.105a19.06 19.06 0 001.183-.542c-.04.037-.044.109-.044.17-.004.69.33 1.296.917 1.668l.15.095c.034.18.095.372.174.566.297.764.76 1.453 1.129 2.005l.218.327c.572.877 1.35 1.681 2.304 2.395.273.2.57.377.863.551l.144.09.374.228c.481.317.962.624 1.46.91l.14.081c.593.342 1.125.655 1.605 1.02.202.191.39.402.57.651.19.284.372.617.539.993.167.515.283 1.074.375 1.813.058.809.088 1.504.088 2.125.004.368-.01.74-.023 1.108l-.004.1c-.014.395-.023.76-.02 1.124a88.043 88.043 0 01-.089 4.773c-.027.768.014 1.531.061 2.316l.01.133c.049.87.103 1.766.219 2.618.12.866.392 1.682.617 2.295.399 1.115 1.057 2.216 1.95 3.277.45.528.863.944 1.296 1.313l.27.225c.255.218.51.433.766.644.212.17.417.331.652.47.12.076.252.137.389.199l.215.098.317.154c.525.256 1.04.498 1.55.685.469.174.942.351 1.403.553.947.49 1.803 1.159 2.591 1.803.327.29.64.567.91.887.082.13.16.276.232.426.239.77.368 1.613.477 2.288l.024.15c.195 1.238.863 2.503 1.886 3.56.637.647 1.401 1.057 2.26 1.486.413.208.839.423 1.225.689.374.256.726.529 1.073.812.526.467 1.05.989 1.606 1.595a30.007 30.007 0 001.644 1.674c.385.355.78.696 1.183 1.01.518.402 1.139.661 1.733.88.885.344 1.919.518 2.672.64 1.04.178 1.862.263 2.606.27h.091c.4 0 .798-.01 1.197-.02a38.044 38.044 0 012.554.003c.32.01.644.017.968.024.539 0 1.02-.048 1.467-.093.552-.064 1.005-.238 1.391-.395 1.37-.532 1.77-2.032 2.124-3.352l.055-.218c.177-.655.33-1.316.484-1.977.33-1.45.617-2.94.86-4.436.217-1.374.34-2.721.364-4.01.013-.91-.13-1.845-.245-2.595l-.028-.187a58.405 58.405 0 01-.228-1.706 18.436 18.436 0 01.174-3.828c.153-.648.344-1.306.531-1.94.243-.826.499-1.678.665-2.551.358-1.903.59-3.611.707-5.224.06-.822.122-1.643.166-2.468.02-.379.038-.76.041-1.14.004-.3-.03-.596-.068-.872l-.024-.225c-.038-.294-.15-.58-.232-.788l-.082-.205a8.802 8.802 0 00-.29-.654c-.354-.74-.858-1.456-1.227-1.974l-.262-.375-.44-.641a70.422 70.422 0 00-1.22-1.753l-.4-.556-.378-.524-.46-.638c-.512-.75-1.04-1.57-1.426-2.476l-.051-.157-.05-.153a5.874 5.874 0 01-.25-1.146c-.058-.689-.11-1.422-.058-2.158.061-.791.153-1.586.273-2.353.218-1.38.412-2.84.61-4.586.215-1.934.235-3.737.061-5.363-.034-.324-.129-.631-.234-.972l-.093-.307c-.11-.372-.232-.74-.361-1.105l-.075-.218c-.256-.733-.56-1.6-.959-2.36-.367-.722-.818-1.442-1.213-2.08l-.464-.742c-.577-.948-1.34-2.197-2.162-3.332-.64-.897-1.295-1.773-1.953-2.65l-.154-.204a180.103 180.103 0 01-2.11-2.83l-.69-.955-.344-.48c-.19-.28-.371-.566-.555-.852l-.059-.086-.054-.082-.348-.535c-.306-.47-.62-.924-1.05-1.316.02-.535.014-1.095.003-1.664l-.02-.904a435.515 435.515 0 00-.1-6.072c-.023-1.14-.15-2.291-.248-3.22l-.027-.255-.024-.231a61.171 61.171 0 01-.198-2.08c-.116-1.678-.304-3.898-.716-6.17-.28-1.564-.688-3.115-1.053-4.486l-.198-.73a26.72 26.72 0 00-.85-2.673 46.797 46.797 0 01-.585-1.66c-.134-.396-.243-.71-.352-1.02a98.198 98.198 0 01-1.111-3.427c-.331-1.057-.754-2.062-1.269-3.27l-.051-.123-.116-.269c-.32-.77-.624-1.493-.938-2.212a35.821 35.821 0 00-.556-1.153l-.077-.164-.079-.164-.078-.156-.274-.542c-.385-.767-.784-1.559-1.21-2.275a51.198 51.198 0 00-1.275-2.014l-.058-.09c-.412-.64-.897-1.38-1.388-2.038a38.578 38.578 0 00-.76-.972l-.17-.211-.086-.107-.078-.095-.078-.091-.403-.488a25.922 25.922 0 00-1.568-1.75c-.624-.613-1.313-1.141-1.87-1.568l-.572-.484-.194-.16c-.552-.457-1.013-.843-1.463-1.167a20.275 20.275 0 00-2.407-1.48 194.758 194.758 0 01-4.46-2.482c-2.67-1.524-5.37-2.52-8.023-2.966-.828-.133-1.712-.198-2.776-.198-.767 0-1.537.03-2.304.061" fill="#000" mask="url(#b)"/></g><path d="M226.4 221.566c.004-.06.007-.12.007-.18l-.017-.018c-.041-.04-.082-.081-.123-.119l.133.317m63.654-53.412l.03.082a3.092 3.092 0 01-.03-.082m-3.529-10.407l.02.056-.02-.056m-4.306-10.102c.515.978 1.013 1.964 1.497 2.956.389.801.706 1.63 1.023 2.462a1.812 1.812 0 01-.041-.106c.303.832.593 1.667.906 2.492.316.813.65 1.618.97 2.43.298.83.596 1.666.855 2.508.283.93.563 1.861.856 2.789.269.846.501 1.701.811 2.53.324.87.67 1.737 1.013 2.6.154.428.297.855.412 1.293.133.495.25.993.365 1.494.211.897.362 1.804.563 2.704.225.993.426 1.988.634 2.984.195.951.368 1.912.642 2.843.286.975.497 1.968.787 2.94.31 1.04.709 2.048 1.129 3.044.391.928.746 1.872 1.152 2.792.41.939.86 1.855 1.285 2.783.328.702.645 1.412.968 2.114.338.734.72 1.442 1.11 2.155.36.661.736 1.316 1.08 1.991a18.573 18.573 0 01.876 1.904c.2.576.395 1.153.573 1.738.197.646.279 1.336.377 2.003.166 1.934.225 3.873.195 5.816-.027 2.09-.354 4.162-.65 6.228-.113.789-.26 1.576-.39 2.36.024-.13.049-.262.072-.396-.235 1.33-.463 2.664-.75 3.98-.143.658-.337 1.31-.508 1.96-.167.638-.255 1.296-.433 1.934-.15.531.031 1.101.508 1.408.54.345 1.364.208 1.695-.376.535-.944.917-2.004 1.234-3.044.164-.532.31-1.057.44-1.6.13-.521.222-1.06.327-1.588.201-.975.369-1.957.546-2.935.211-1.191.41-2.38.58-3.574a63.66 63.66 0 00.364-3.008c.045-.518.041-1.043.048-1.562.007-.49.004-.982-.003-1.472a63.083 63.083 0 00-.15-3.195c-.086-1.122-.198-2.247-.474-3.341-.123-.495-.297-.976-.464-1.456a38.61 38.61 0 00-.665-1.74c-.079-.2-.188-.395-.283-.586-.12-.239-.239-.48-.361-.716-.249-.467-.499-.93-.764-1.388-.515-.89-1.033-1.783-1.473-2.714-.457-.962-.91-1.926-1.381-2.885-.532-1.087-1.057-2.171-1.524-3.293-.43-1.04-.918-2.06-1.341-3.104a52.09 52.09 0 01-.436-1.26c-.153-.475-.262-.962-.402-1.439-.28-.935-.597-1.855-.832-2.8-.245-.985-.463-1.977-.696-2.966-.225-.941-.474-1.875-.715-2.814-.12-.467-.263-.927-.4-1.39-.136-.468-.251-.948-.42-1.405-.2-.55-.405-1.092-.647-1.623a68.032 68.032 0 01-.552-1.227c-.208-.474-.42-.948-.62-1.426-.189-.454-.355-.914-.55-1.364-.197-.464-.388-.93-.583-1.394-.187-.444-.399-.873-.586-1.313a66.034 66.034 0 00-1.31-2.942c-.442-.928-.913-1.842-1.343-2.776-.426-.93-.811-1.882-1.207-2.827-.382-.91-.822-1.8-1.271-2.673-.328-.63-.652-1.258-.982-1.886a.349.349 0 00-.319-.2c-.26 0-.526.265-.367.569" fill="#000"/><path d="M290.233 182.031a.477.477 0 00-.195.641c.307.567.624 1.125.917 1.699.232.446.46.893.689 1.34.314.61.638 1.216.924 1.837.328.72.662 1.436.982 2.159l.042.093c.104.34.222.677.347 1.012.204.549.454 1.066.706 1.595a.541.541 0 00.984-.07.97.97 0 00.51-.114c.227-.123.404-.33.483-.576.055-.229.062-.345.028-.577-.017-.13-.024-.265-.048-.395l-.082-.47c-.054-.31-.113-.618-.177-.924-.061-.3-.127-.6-.188-.904l-.092-.44c-.02-.1-.04-.201-.065-.3-.04-.208-.133-.406-.208-.604a1.043 1.043 0 00-.35-.381l-.04-.023a25.852 25.852 0 00-.312-.888 10.556 10.556 0 00-.423-.948 2.642 2.642 0 00-.624-.79c-.15-.14-.31-.236-.525-.243a.776.776 0 00-.668.348.565.565 0 00-.088.154l-.083.173a1.21 1.21 0 00-.04.331c-.011.177.047.358.075.532.028.188.054.379.085.567l-.27-.526c-.239-.457-.474-.914-.71-1.37-.302-.587-.623-1.163-.94-1.743a.486.486 0 00-.644-.195m-22.806 26.786c-.14.045-.256.086-.379.163-.11.07-.211.154-.317.232-.082.062-.157.13-.238.195-.246.194-.488.392-.733.59l-.205.162a.956.956 0 00-.58-.244 2.36 2.36 0 00-.695.045c-.215.047-.423.149-.627.224-.28.106-.55.236-.816.368-.31.15-.617.308-.92.47-.317.175-.641.38-.89.642-.44.457-.675 1.163-.382 1.763a.818.818 0 00.125.182 7.05 7.05 0 00-.316.22c-.198.15-.266.464-.21.692.077.335.35.512.67.556.242.03.478-.075.679-.194.235-.136.453-.303.672-.464.221-.164.436-.345.65-.522.328-.269.648-.549.965-.832.284-.245.556-.5.833-.753.14-.13.28-.26.423-.388.068-.066.14-.127.207-.188.06-.052.115-.096.168-.15l.624-.501c.132-.107.264-.214.396-.324l-.124.313c-.187.485-.385.965-.58 1.446-.153.388-.282.788-.42 1.183-.22.645-.436 1.289-.633 1.94a.43.43 0 00.276.532.427.427 0 00.532-.273c.181-.6.375-1.186.58-1.776.14-.402.263-.815.426-1.207.375-.905.734-1.819 1.142-2.71.068-.143.135-.284.194-.43.062-.147.082-.307.106-.46.048-.268-.232-.52-.49-.52a.353.353 0 00-.113.018m23.51-16.147a37.459 37.459 0 00-.02 2.987c.027.96.051 1.926.106 2.887.054.955.095 1.906.18 2.858.089 1.012.17 2.028.277 3.041.295 2.876.591 5.755.9 8.63.04.445.083.889.123 1.333.037.416.085.83.109 1.245l.089 1.64c-.095-.326-.166-.66-.25-.986-.222-.869-.44-1.735-.651-2.604a448.956 448.956 0 00-4.528-17.349c-.06-.206-.121-.412-.174-.62a.401.401 0 00-.02-.13 1.418 1.418 0 00-.038-.113c-.099-.272-.33-.463-.634-.395a.537.537 0 00-.396.634c.096.41.218.815.334 1.217l.553 1.981c.177.635.345 1.269.508 1.903.488 1.886 1.003 3.764 1.452 5.66.461 1.95.941 3.901 1.361 5.861.201.959.41 1.916.61 2.875.201.964.382 1.937.614 2.894.14.573.277 1.143.433 1.712.075.273.15.546.232.819.041.146.085.29.122.436.052.184.107.365.202.532.113.201.29.341.477.467.519.348 1.224.058 1.415-.512.099-.29.205-.569.263-.87.068-.346.113-.695.143-1.05.05-.582.05-1.176.027-1.761-.02-.563-.044-1.13-.068-1.692-.037-.982-.132-1.96-.211-2.943-.082-1.043-.202-2.087-.307-3.13-.095-.955-.184-1.91-.276-2.864-.118-1.2-.238-2.403-.359-3.604-.081-.913-.16-1.825-.242-2.735-.082-.924-.112-1.854-.166-2.781-.102-1.798-.134-3.598-.236-5.395-.013-.27-.072-.497-.26-.703a.975.975 0 00-.677-.313h-.038a.988.988 0 00-.979.938m-79.427-22.264c-.013.381.301.75.697.75.391 0 .733-.29.75-.696.013-.381-.3-.75-.696-.75a.735.735 0 00-.75.696m1.041 10.478v-.001l.001.011v-.01zm-.003-.03l.002.016a.107.107 0 01-.002-.017zm-1.177-4.536c-.054 1.688-.091 3.396.01 5.084.045.801.137 1.6.216 2.397.075.733.213 1.46.3 2.19.06.696.145 1.381.266 2.069.122.678.265 1.35.385 2.028.225 1.303.426 2.612.648 3.914.225 1.334.504 2.653.937 3.939.481 1.438 1.048 2.847 1.586 4.27.464 1.226 1.006 2.44 1.664 3.579.678 1.166 1.411 2.295 2.134 3.43.413.651.822 1.3 1.273 1.92.436.6.903 1.159 1.397 1.711.417.464.843.925 1.262 1.392.446.494.883 1.005 1.364 1.469.644.624 1.323 1.21 1.977 1.828.593.56 1.105 1.207 1.654 1.81.583.645 1.193 1.266 1.75 1.937.254.312.505.628.75.95.606 1.031 1.08 2.148 1.636 3.203.137.256.27.508.399.764.048.092.096.18.146.272.021.038.041.075.066.113.197.345.337.484.64.723.13.103.283.178.444.212.15.023.3.05.45.078.307.01.596-.055.869-.201.15-.065.29-.161.396-.283.272-.317.306-.38.48-.767.093-.202.09-.45.12-.673.014-.111.03-.224.044-.34.039-.285.034-.57.006-.854l.028-.04c.244-.338.401-.757.572-1.135.28-.6.54-1.198.72-1.845.232-.824.293-1.685.415-2.53.082-.415.172-.827.234-1.248a6.306 6.306 0 00-.004-1.715c-.071-.559-.33-1.088-.583-1.582a13.743 13.743 0 00-.73-1.24c-1.123-1.707-2.41-3.29-3.75-4.83a5.605 5.605 0 00-.215-.261c-.505-.577-1.398-.707-2.066-.349-.263.14-.474.338-.638.59-.266.417-.29.84-.225 1.313.048.358.248.665.453.952.219.303.433.61.655.91l.081.11c.091.197.176.396.257.598.206.628.4 1.248.58 1.882a1.805 1.805 0 00-2.125 1.212l-.043.242a18.315 18.315 0 00-.935-.906 82.031 82.031 0 01-2.531-3.135c-.562-.733-1.145-1.45-1.693-2.193a57.84 57.84 0 01-3.956-7.333c-.256-.567-.467-1.163-.686-1.746-.246-.644-.488-1.293-.733-1.94a222.067 222.067 0 00-1.592-4.098 32.816 32.816 0 00-.399-.938c-.3-.686-1.18-1.013-1.872-.853a1.69 1.69 0 00-.76.411l-.024-.087c-.375-1.357-.72-2.724-1.078-4.085-.17-.651-.347-1.299-.487-1.957-.137-.648-.232-1.306-.359-1.954-.122-.613-.258-1.217-.344-1.837-.084-.628-.17-1.259-.244-1.89a45.962 45.962 0 01-.076-4.613.565.565 0 00-.535-.583h-.02a.565.565 0 00-.56.54zm47.531 39.304l-.091.11c.028-.039.058-.076.09-.11m-1.27-1.608c-.518.378-.726 1.09-.876 1.68-.044.192-.092.383-.136.573-.093.406-.136.778-.082 1.194.085.665.238 1.323.388 1.974.137.597.247 1.2.413 1.79.18.645.494 1.208.795 1.798.225.446.494.903.865 1.24.26.24.508.443.816.608.225.118.453.234.678.357.56.304 1.115.566 1.742.696.566.119 1.14.182 1.708.267.158.033.31.074.46.127.019.011.039.022.057.034.211.345.405.71.564 1.085.126.37.238.744.379 1.113.126.324.338.589.552.87.185.166.38.323.58.47.225.17.607.286.89.361.484.13 1.01.163 1.51.184a1.942 1.942 0 001.914-1.343c.324-1.01-.256-2.094-1.252-2.425a30.267 30.267 0 01-.425-.143c-.155-.508-.303-1.017-.533-1.503-.371-.792-.904-1.562-1.616-2.073-.692-.499-1.494-.714-2.32-.846-.71-.111-1.433-.088-2.147-.163a8.949 8.949 0 01-1.236-.433 3.565 3.565 0 01-.208-.124 8.585 8.585 0 01-.747-.91c-.576-.874-1.002-1.843-1.378-2.818a7.034 7.034 0 01-.242-.838 7.42 7.42 0 01.055-.695 4.75 4.75 0 01.158-.551.85.85 0 01.066-.049c.45-.334.406-1.074.058-1.452a1.03 1.03 0 00-.713-.328h-.036c-.279 0-.481.11-.7.273m-11.475-22.34c0-.004 0-.008.002-.012l.007-.053a.878.878 0 00-.009.065m.34-2.429c-.129.788-.23 1.576-.331 2.364l.008-.048c-.006.033-.01.067-.015.101l-.003.018.001-.006c-.02.143-.04.285-.069.426-.023.12-.071.238-.075.36.002 0 .003-.002.004-.003a.415.415 0 00.499.413c.014.035.03.07.045.103a6.046 6.046 0 00-.514-.056c-.18-.01-.368.007-.538.066a.922.922 0 00-.417.262c-.119.14-.194.293-.245.47-.068.25-.061.574.075.802.252.42.78.552 1.238.617.958.133 1.926.205 2.894.174a19.17 19.17 0 002.786-.28c.275-.048.552-.095.827-.15.146-.02.292-.045.435-.075.31-.065.62-.122.924-.218a2.72 2.72 0 001.074-.618c.116-.118.232-.29.255-.456a.755.755 0 00-.013-.341.667.667 0 00-.29-.377.473.473 0 00-.112-.151.727.727 0 00-.26-.154c-.065-.027-.133-.027-.2-.03-.086-.011-.185.023-.273.04-.052.01-.104.017-.157.026-.424.045-.845.071-1.269.1-.545.034-1.09.075-1.633.116-.48.038-.962.041-1.443.048-.562.004-1.13.026-1.69-.025a3.389 3.389 0 01-.543-.125.778.778 0 01-.045-.027.977.977 0 01-.094-.096 1.304 1.304 0 01-.098-.16 1.84 1.84 0 01-.072-.283 3.662 3.662 0 01-.001-.562 36.1 36.1 0 00.13-.437 8.56 8.56 0 00.293-1.432c.027-.151.041-.304-.089-.426a.408.408 0 00-.2-.102.448.448 0 00-.36-.193c-.195 0-.407.126-.439.325m2.347 7.788c-.172.024-.343.045-.512.073l.076-.012.459-.063-.023.002m3.352 4.099c.024.007.052.01.076.017.075.018.15.04.22.065a13.395 13.395 0 00-.058-.306c-.072.083-.15.159-.238.224m-11.143-36.728l-.11.103a.583.583 0 00-.476.169c-.536.57-1.09 1.107-1.708 1.585a14.18 14.18 0 01-1.84 1.172c-.4.13-.805.24-1.205.357-.495.146-.996.266-1.497.388-.454.113-.921.18-1.381.256-.458.077-.914.146-1.371.213-.298.03-.592.058-.89.09-.297.028-.603.028-.903.042-.276.013-.556.003-.832 0-.261-.004-.525-.038-.786-.028-.38-.043-.761.239-.861.6a.81.81 0 00.082.628c.112.194.279.3.487.374.27.103.58.113.867.15.268.038.551.034.824.052.41.023.829.027 1.238.01a33.406 33.406 0 002.864-.215c.587-.074 1.166-.15 1.742-.259.495-.096.982-.208 1.47-.32.219-.051.433-.103.648-.154.222-.051.443-.103.662-.167.361-.11.708-.276 1.04-.457.62-.334 1.176-.801 1.718-1.251.324-.27.644-.55.958-.836.369-.338.791-.699 1.013-1.152a1.123 1.123 0 00-.174-1.35 1.084 1.084 0 00-.772-.322c-.287 0-.578.112-.807.322m11.941.581a.854.854 0 00-.515.395.852.852 0 00-.088.666c.065.228.208.381.396.515 1.084.767 2.266 1.456 3.556 1.817.569.156 1.162.245 1.749.327.501.072 1.006.122 1.514.157.453.034.91.068 1.367.075a33.32 33.32 0 005.933-.491c.514-.093 1.054-.222 1.537-.423.283-.116.58-.221.84-.389.074-.044.139-.095.207-.146.191-.144.304-.253.386-.491.122-.348-.136-.747-.474-.835-.297-.079-.522.037-.794.118-.3.09-.608.161-.91.236-.584.143-1.177.23-1.77.313-.67.07-1.344.129-2.016.185-.699.062-1.405.082-2.107.1-1.31.032-2.621-.066-3.919-.22-.194-.035-.39-.067-.582-.102a6.583 6.583 0 01-1.312-.374 13.268 13.268 0 01-2.333-1.347.766.766 0 00-.426-.117.914.914 0 00-.239.031" fill="#000"/><path d="M249.713 206.92l.076.013-.076-.012m-4.8-.183l.035.016a1.45 1.45 0 00-.035-.016m7.197-.182l-.036.004.036-.004m-.226-.007l.092.013a.464.464 0 01-.092-.013m-6.733-3.874a.978.978 0 01-.028.035c.009-.011.02-.023.028-.035m1.816-1.745l-.055.041.055-.04m3.417-.792c.292.05.582.123.865.218.194.093.385.199.562.322.142.13.278.264.404.408.156.226.284.467.404.716.073.185.14.371.206.559.071.208.107.423.14.64.04.398.062.79.069 1.188.007.44-.041.88-.1 1.312l.021-.163a3.522 3.522 0 01-.172.681 3.6 3.6 0 01-.221.423 3.1 3.1 0 01-.517.12h-.059c-.268-.075-.533-.168-.8-.242a7.304 7.304 0 01-.744-.242c-.535-.201-1.139-.317-1.709-.25-.317.038-.61.106-.913.202-.263.078-.522.174-.781.273a8.7 8.7 0 01-1.48.414c-.188.02-.378.03-.57.02a3.142 3.142 0 01-.165-.046l-.03-.016a.938.938 0 01-.029-.03 6.034 6.034 0 01-.06-.1 1.545 1.545 0 01-.034-.152c-.036-.4-.041-.8 0-1.2.032-.183.067-.362.11-.544a7.31 7.31 0 01.301-.87.957.957 0 00-.134-.787c.077-.126.16-.25.247-.37.525-.64 1.154-1.193 1.797-1.712a4.12 4.12 0 01.658-.41c.224-.082.451-.145.684-.205.229-.058.465-.12.696-.15h-.002l.054-.007a8.2 8.2 0 011.302 0m-2.81-1.238c-.235.075-.456.16-.682.256-.245.106-.456.27-.665.43a9.346 9.346 0 00-.954.859c-.474.488-.935.992-1.31 1.565-.169.262-.31.542-.44.83a.807.807 0 00-.163.213c-.222.416-.437.846-.559 1.302a4.203 4.203 0 00-.147 1.168l-.02.108c-.03.168-.028.32.055.471.023.216.055.432.091.644.052.276.157.55.317.774.18.253.334.405.587.586.266.191.638.26.958.28.283.017.56-.014.835-.082.32-.078.635-.173.945-.286.62-.223 1.21-.52 1.81-.786.296-.124.587-.228.902-.284.236-.022.465-.029.703-.009.335.057.666.143 1 .213.199.04.39.092.58.156l.349.113c.16.048.344.04.511.02.307-.033.623-.067.893-.231a.995.995 0 00.272-.273 4.8 4.8 0 00.243-.327c.242-.359.416-.754.553-1.166.303-.907.361-1.869.268-2.813-.048-.478-.177-.928-.337-1.374a4.39 4.39 0 00-.78-1.361c-.464-.542-1.119-.941-1.794-1.152a5.35 5.35 0 00-1.317-.219 5.549 5.549 0 00-.341-.01c-.799 0-1.602.153-2.363.385" fill="#000"/><path d="M244.515 207.034l.014.002c-.005 0-.01 0-.014-.002zm8.3-1.182a.657.657 0 01-.023.05l.022-.05zm-6.145-4.279c-.015.014-.03.025-.045.037l.045-.037zm3.41-1.46a.96.96 0 01.092.025c.263.12.528.23.794.336.264.132.512.287.75.46.136.116.266.239.383.374.12.189.221.388.313.593.176.458.305.94.405 1.423.044.378.066.755.076 1.138.009.356.023.715-.006 1.07a3.337 3.337 0 01-.122.424 2.176 2.176 0 01-.106.186 2.77 2.77 0 01-.15.086c-.158.054-.316.1-.48.132a2.014 2.014 0 01-.162 0 4.647 4.647 0 01-.614-.152c-.228-.072-.446-.174-.675-.247-.225-.068-.457-.098-.689-.132-.33-.05-.659-.11-.992-.116a4.246 4.246 0 00-1.528.232c-.516.185-.988.471-1.484.695a6.42 6.42 0 01-1.27.355l-.12.009a3.938 3.938 0 01-.207-.378l-.042-.108c.154-.884.33-1.759.674-2.595.144-.323.305-.646.509-.938l.28-.414c.067-.085.134-.172.204-.257.193-.248.421-.463.662-.663.24-.187.49-.364.74-.534.295-.2.582-.398.907-.546a8.505 8.505 0 011.634-.45c.074-.005.149-.01.224-.009zm-.116-.023l.048.008-.048-.008zm1.092-.973zm-1.048-.291a5.669 5.669 0 00-1.02.187 8.615 8.615 0 00-1.326.453c-.43.188-.815.464-1.197.737-.224.163-.446.33-.664.501a4.6 4.6 0 00-.864.91 9.762 9.762 0 00-.674 1.034c-.515.927-.777 1.943-.974 2.973a.79.79 0 00-.676.985c.065.239.126.478.2.713.085.252.208.491.352.716.157.25.409.494.702.573.314.081.603.072.918.017.344-.058.667-.15.995-.263a7.51 7.51 0 001.074-.443c.316-.167.624-.35.946-.5a4.88 4.88 0 01.827-.222c.422-.04.835.003 1.25.052.11.018.218.038.326.066.16.041.313.106.47.16.314.106.631.192.955.246.464.079.91.014 1.364-.095.225-.052.46-.143.654-.263.232-.136.406-.372.55-.593.119-.181.194-.392.269-.593.075-.195.092-.406.116-.611.007-.078.01-.16.007-.238-.007-.365-.035-.73-.058-1.095a11.064 11.064 0 00-.164-1.258c-.071-.386-.235-.736-.386-1.094l.03.073c-.277-.645-.605-1.303-1.134-1.775a5.91 5.91 0 00-.795-.59 3.662 3.662 0 00-.623-.327c-.157-.062-.314-.115-.47-.175-.29-.131-.57-.265-.893-.265a.857.857 0 00-.087.004z" fill="#000"/><path d="M251.884 201.736h-.002l-.016-.001.018.001m-1.309.074l-.056.007a1.12 1.12 0 01.056-.007m.438-.85c-.492.01-.979.072-1.463.14.037-.006.078-.01.116-.017-.358.031-.723.042-1.08.069-.148.014-.29.027-.434.048-.092.013-.188.03-.28.047-.143.028-.283.082-.419.126-.191.061-.379.133-.567.201-.756.27-1.506.574-2.263.856a.552.552 0 00-.321.246.538.538 0 00-.054.409.522.522 0 00.249.32.512.512 0 00.409.055c.91-.337 1.814-.692 2.72-1.037.127-.048.253-.091.383-.136a3.96 3.96 0 01.634-.14c.232-.034.463-.071.695-.112.433-.072.86-.16 1.292-.232l-.014.001c.415-.052.837-.116 1.25-.07a.497.497 0 01.033.004c-.005 0-.01 0-.015-.002.098.015.199.026.298.04.147.016.287-.116.324-.25a.335.335 0 00-.034-.255c-.048-.085-.116-.12-.202-.157-.316-.13-.662-.157-1.003-.157-.086 0-.17.002-.254.003m-.822 2.93c-.5.006-.995.03-1.49.102a9.842 9.842 0 00-1.288.266c-.443.122-.866.317-1.275.528a12.484 12.484 0 00-1.715 1.054c-.164.12-.324.245-.471.384-.147.144-.245.328-.35.499-.083.14-.161.28-.244.419a.515.515 0 00.185.7c.239.139.56.057.699-.185.128-.217.252-.443.397-.65.056-.056.113-.109.175-.16.65-.465 1.37-.85 2.101-1.17a5.27 5.27 0 01.88-.277c.28-.058.558-.108.84-.151a10.69 10.69 0 012.266.018c.175.032.345.076.512.136.182.086.349.184.51.302.31.253.62.547 1.024.616.262.047.512.01.709-.188.222-.218.297-.614.116-.884a1.416 1.416 0 00-.242-.286c-.105-.095-.222-.167-.341-.242-.167-.109-.334-.218-.501-.33-.177-.124-.382-.199-.58-.28a2.42 2.42 0 00-.573-.16 6.952 6.952 0 00-1.05-.063c-.097 0-.195 0-.294.002" fill="#000"/><path d="M251.117 200.632c-.334.01-.668.04-.999.082-.75.091-1.493.197-2.233.354-1.108.236-2.182.628-3.229 1.054l-.337.143a1.411 1.411 0 00-.648 1.596c.003.014.009.03.013.044l-.017.045c-.068.18-.075.47-.082.67-.016.383.338.874.727.942.18.031.348.058.532.048.187-.014.371-.048.555-.086.563-.109 1.112-.276 1.674-.395a31.25 31.25 0 011.648-.307c.221-.024.443-.051.665-.068.323-.027.659-.07.986-.056.646.135 1.263.408 1.901.577.211.055.423.103.645.106.514.014.985-.3 1.22-.746.154-.29.253-.651.208-.979-.034-.283-.03-.375-.167-.627-.116-.219-.276-.351-.473-.485a.9.9 0 00-.331-.13c.173-.577-.048-1.266-.603-1.56a2.035 2.035 0 00-.99-.24c-.221 0-.443.007-.665.018" fill="#000"/></g></svg>