<svg width="500" height="600" viewBox="0 0 500 600" fill="none" xmlns="http://www.w3.org/2000/svg">
<path fill-rule="evenodd" clip-rule="evenodd" d="M253.575 180.875C253.534 180.868 253.489 180.865 253.448 180.858C253.489 180.865 253.534 180.872 253.575 180.875ZM244.562 193.103C244.436 193.56 244.582 194 244.886 194.303H244.89C245.354 194.449 245.83 194.556 246.312 194.62C247.099 194.682 247.884 194.702 248.671 194.702C249.461 194.706 250.26 194.72 251.051 194.679C251.859 194.638 252.667 194.631 253.475 194.589C253.867 194.569 254.255 194.539 254.648 194.498C254.764 194.205 254.812 193.931 254.727 193.604C254.704 193.512 254.671 193.422 254.631 193.335C254.624 193.315 254.618 193.294 254.614 193.273C254.581 193.127 254.516 192.99 254.424 192.872C253.947 193.005 253.468 193.123 252.978 193.192C252.398 193.277 251.815 193.372 251.232 193.43C250.768 193.471 250.301 193.495 249.837 193.529C249.449 193.557 249.029 193.629 248.64 193.591C248.234 193.55 247.784 193.529 247.437 193.287C247.144 193.087 246.873 192.787 246.739 192.441L246.097 192.231C245.989 192.194 245.876 192.176 245.762 192.176C245.224 192.176 244.705 192.578 244.562 193.103V193.103ZM242.54 177.15L242.605 177.237C242.583 177.208 242.561 177.179 242.539 177.149L242.54 177.15ZM240.814 175.503L240.896 175.563L240.814 175.503ZM234.932 172.213C234.519 172.363 234.114 172.525 233.709 172.686C233.285 172.853 232.856 173.023 232.453 173.236C232.03 173.45 231.631 173.707 231.26 174.002C230.968 174.238 230.679 174.479 230.385 174.712C229.81 175.143 229.226 175.558 228.665 176.006C228.466 176.165 228.275 176.334 228.095 176.514C227.994 176.617 227.851 176.724 227.786 176.852C227.711 177.002 227.697 177.167 227.786 177.316C227.826 177.386 227.883 177.444 227.952 177.484C228.022 177.524 228.101 177.545 228.181 177.544C228.348 177.541 228.516 177.459 228.665 177.394C228.825 177.326 228.972 177.241 229.125 177.16C229.627 176.89 230.105 176.573 230.582 176.262C230.838 176.099 231.093 175.935 231.349 175.768C231.58 175.615 231.799 175.444 232.027 175.288C232.463 174.986 232.949 174.763 233.432 174.555C233.81 174.407 234.197 174.288 234.582 174.159C235.001 174.012 235.431 173.898 235.867 173.816C236.109 173.8 236.351 173.797 236.593 173.808C236.818 173.818 237.046 173.856 237.272 173.886C237.182 173.876 237.094 173.862 237.009 173.852C237.213 173.879 237.415 173.913 237.616 173.954C237.786 173.988 237.953 174.053 238.117 174.111C238.445 174.222 238.767 174.35 239.09 174.476C239.222 174.537 239.353 174.602 239.484 174.67C239.638 174.749 239.781 174.85 239.931 174.94C240.191 175.095 240.449 175.246 240.697 175.419C241.038 175.718 241.353 176.041 241.687 176.344C241.851 176.494 242.017 176.634 242.178 176.788C242.346 176.952 242.501 177.126 242.653 177.304C242.75 177.441 242.839 177.579 242.928 177.725C243.058 177.943 243.269 178.101 243.514 178.166C243.76 178.23 244.02 178.196 244.241 178.07C244.46 177.94 244.618 177.729 244.683 177.483C244.748 177.237 244.715 176.975 244.589 176.754C244.496 176.604 244.412 176.446 244.309 176.304C244.183 176.119 244.049 175.938 243.92 175.754C243.767 175.543 243.624 175.318 243.45 175.121C243.32 174.971 243.194 174.821 243.068 174.671C242.792 174.339 242.508 173.995 242.182 173.711C241.786 173.378 241.359 173.126 240.906 172.88C240.095 172.446 239.213 172.159 238.302 172.031C237.809 171.958 237.311 171.918 236.812 171.914C236.174 171.914 235.539 171.994 234.932 172.212" fill="black"/>
<path fill-rule="evenodd" clip-rule="evenodd" d="M236.705 176.664C236.751 176.63 236.802 176.603 236.855 176.582C236.874 176.578 236.893 176.575 236.912 176.575C236.933 176.575 236.95 176.578 236.971 176.582C237.013 176.582 237.053 176.592 237.09 176.612C237.124 176.63 237.159 176.646 237.19 176.671C237.22 176.694 237.254 176.718 237.284 176.742C237.311 176.769 237.335 176.798 237.356 176.83C237.382 176.878 237.402 176.928 237.416 176.98C237.424 177.022 237.427 177.06 237.434 177.1C237.431 177.138 237.424 177.175 237.42 177.213L237.38 177.311C237.31 177.443 237.193 177.544 237.052 177.594C237.039 177.601 237.022 177.604 237.005 177.612C236.986 177.647 236.958 177.676 236.923 177.697C236.889 177.717 236.85 177.728 236.81 177.728C236.723 177.733 236.637 177.709 236.565 177.66C236.51 177.619 236.467 177.563 236.442 177.499C236.405 177.417 236.391 177.326 236.401 177.236L236.384 177.226C236.347 177.192 236.309 177.158 236.275 177.12C236.307 177.09 236.336 177.058 236.367 177.028C236.365 176.986 236.365 176.944 236.37 176.902C236.37 176.874 236.376 176.845 236.387 176.819C236.398 176.793 236.414 176.769 236.435 176.749C236.455 176.728 236.479 176.712 236.505 176.701C236.532 176.69 236.56 176.684 236.589 176.684C236.613 176.684 236.637 176.691 236.66 176.698C236.674 176.684 236.69 176.674 236.705 176.664V176.664ZM235.78 172.555C235.573 172.629 235.372 172.72 235.18 172.827C234.993 172.93 234.83 173.083 234.662 173.224C234.444 173.404 234.267 173.65 234.1 173.888C233.946 174.038 233.82 174.218 233.694 174.39C233.314 174.887 233.066 175.472 232.974 176.091C232.879 176.626 232.8 177.141 233.002 177.666C233.254 178.324 233.718 178.91 234.243 179.374C234.481 179.586 234.744 179.776 235.013 179.951C235.32 180.148 235.699 180.257 236.047 180.346C236.725 180.516 237.434 180.469 238.117 180.363C238.479 180.304 238.833 180.198 239.167 180.046C239.331 179.972 239.493 179.893 239.651 179.808C239.86 179.701 240.054 179.566 240.227 179.408C240.727 178.898 241.028 178.252 241.144 177.551C241.26 176.831 241.27 176.098 241.014 175.406C240.765 174.72 240.459 173.956 239.94 173.428C239.692 173.176 239.364 172.981 239.054 172.814C238.73 172.644 238.379 172.514 238.028 172.412C237.754 172.329 237.469 172.288 237.182 172.289C236.708 172.289 236.234 172.394 235.78 172.555" fill="black"/>
<path fill-rule="evenodd" clip-rule="evenodd" d="M240.926 178.514C240.731 178.534 240.636 178.554 240.462 178.64C240.398 178.674 240.336 178.718 240.272 178.756C240.076 178.866 239.872 178.962 239.666 179.056C239.343 179.181 239.002 179.255 238.666 179.329C238.36 179.395 238.056 179.459 237.751 179.506C237.327 179.561 236.901 179.619 236.476 179.676L236.667 179.649C236.009 179.704 235.33 179.685 234.673 179.611C234.472 179.578 234.275 179.528 234.083 179.461C233.857 179.341 233.637 179.209 233.415 179.079C233.264 178.993 233.085 178.97 232.917 179.014C232.748 179.058 232.604 179.166 232.514 179.315C232.428 179.466 232.405 179.645 232.449 179.813C232.493 179.981 232.601 180.126 232.75 180.215C232.92 180.311 233.09 180.41 233.261 180.505C233.615 180.71 233.984 180.829 234.383 180.904C234.805 180.982 235.242 181.013 235.668 181.05C235.968 181.075 236.268 181.109 236.568 181.102C236.882 181.098 237.196 181.05 237.506 181.012C237.871 180.969 238.239 180.925 238.597 180.842C238.921 180.768 239.245 180.689 239.569 180.604C240.012 180.488 240.429 180.304 240.844 180.12C241.124 179.997 241.396 179.898 241.554 179.608C241.617 179.496 241.651 179.37 241.651 179.242C241.651 179.113 241.617 178.987 241.554 178.875C241.441 178.683 241.205 178.512 240.97 178.512L240.926 178.514V178.514ZM269.231 176.924L269.307 176.984L269.231 176.924ZM257.618 176.826L257.568 176.866L257.618 176.826ZM263.428 172.349C262.835 172.359 262.252 172.424 261.668 172.529C261.171 172.621 260.698 172.799 260.227 172.983C259.217 173.381 258.337 174.006 257.458 174.633C256.984 174.974 256.523 175.325 256.09 175.717C255.91 175.881 255.75 176.066 255.586 176.243C255.231 176.628 254.904 177.023 254.596 177.45C254.321 177.835 254.529 178.418 254.911 178.643C255.111 178.759 255.357 178.793 255.582 178.731C255.818 178.667 255.965 178.521 256.104 178.329L256.249 178.133C256.622 177.685 257.047 177.283 257.502 176.918C258.031 176.554 258.57 176.205 259.118 175.871C259.59 175.573 260.079 175.306 260.588 175.079C261.149 174.88 261.727 174.731 262.314 174.633C262.871 174.593 263.414 174.583 263.968 174.641C264.371 174.709 264.774 174.791 265.174 174.878C265.59 174.975 265.994 175.103 266.394 175.252C266.6 175.345 266.807 175.442 267.008 175.547C267.295 175.694 267.568 175.864 267.848 176.017C268.12 176.167 268.4 176.321 268.652 176.502C268.896 176.679 269.134 176.866 269.377 177.042C269.535 177.168 269.689 177.297 269.849 177.422C270.179 177.682 270.51 177.855 270.902 178.002C271.243 178.125 271.649 177.92 271.823 177.627C271.93 177.439 271.959 177.217 271.904 177.008C271.85 176.799 271.715 176.619 271.53 176.508C271.491 176.486 271.453 176.464 271.416 176.44C271.098 176.17 270.804 175.878 270.506 175.585C270.122 175.187 269.703 174.824 269.255 174.5C268.829 174.2 268.389 173.914 267.94 173.648C267.468 173.368 266.958 173.161 266.449 172.959C266.012 172.789 265.545 172.683 265.089 172.574C264.582 172.454 264.047 172.347 263.52 172.347L263.429 172.349" fill="black"/>
<path fill-rule="evenodd" clip-rule="evenodd" d="M263.733 176.89C263.763 176.907 263.791 176.925 263.82 176.943L263.831 176.955C263.861 177 263.888 177.045 263.913 177.092C263.931 177.155 263.947 177.217 263.962 177.28C263.965 177.373 263.965 177.463 263.96 177.556C263.934 177.683 263.905 177.809 263.872 177.934L263.721 177.978L263.642 177.988C263.529 178 263.416 178.006 263.302 178.006C263.237 177.989 263.171 177.971 263.107 177.951L263.099 177.946C263.074 177.923 263.051 177.897 263.026 177.872C263.011 177.848 262.997 177.824 262.984 177.799C262.959 177.724 262.936 177.649 262.916 177.573V177.555C262.931 177.495 262.948 177.435 262.966 177.375C263.007 177.3 263.052 177.227 263.098 177.155C263.157 177.09 263.218 177.027 263.281 176.965C263.371 176.935 263.461 176.911 263.553 176.891C263.613 176.889 263.673 176.889 263.733 176.891V176.89ZM262.571 173.027C262.404 173.051 262.243 173.112 262.086 173.171C261.206 173.487 260.378 173.941 259.71 174.602C259.026 175.285 258.636 176.208 258.625 177.174C258.625 177.439 258.691 177.705 258.732 177.964C258.759 178.138 258.8 178.299 258.857 178.465C259.049 179.025 259.376 179.499 259.802 179.901L259.932 180.021C260.126 180.325 260.369 180.602 260.644 180.828C260.988 181.115 261.364 181.278 261.784 181.432C262.168 181.572 262.608 181.619 263.014 181.626C263.491 181.636 263.989 181.551 264.439 181.401C265.182 181.144 265.853 180.712 266.393 180.14C266.619 179.9 266.795 179.629 266.934 179.341C267.038 179.214 267.134 179.081 267.232 178.95C267.518 178.561 267.572 178.046 267.62 177.582C267.702 176.812 267.57 175.99 267.13 175.339C267.114 175.318 267.099 175.296 267.084 175.274L267.044 175.185C266.856 174.777 266.544 174.408 266.254 174.071C265.847 173.59 265.294 173.341 264.726 173.116C264.48 173.02 264.17 173.003 263.921 172.969C263.757 172.946 263.592 172.934 263.426 172.931H263.368C263.1 172.931 262.834 172.993 262.571 173.027" fill="black"/>
<path fill-rule="evenodd" clip-rule="evenodd" d="M260.545 180.507L260.627 180.54C260.599 180.53 260.572 180.519 260.545 180.507ZM258.599 180.197C258.431 180.48 258.517 180.895 258.819 181.052C259.277 181.285 259.74 181.512 260.211 181.714C260.637 181.898 261.071 182.011 261.527 182.082C261.756 182.12 261.984 182.14 262.209 182.167C262.536 182.205 262.864 182.235 263.191 182.267C263.368 182.28 263.549 182.277 263.727 182.28C263.89 182.287 264.06 182.287 264.224 182.27C264.634 182.235 265.039 182.184 265.441 182.102C265.765 182.034 266.079 181.932 266.393 181.834C266.707 181.734 267.02 181.652 267.33 181.543C267.494 181.485 267.657 181.424 267.818 181.353C267.972 181.281 268.118 181.192 268.228 181.053C268.32 180.96 268.379 180.84 268.395 180.711C268.412 180.581 268.385 180.45 268.319 180.337C268.197 180.128 267.893 179.968 267.651 180.063C267.559 180.101 267.457 180.118 267.361 180.145C267.242 180.176 267.122 180.21 267.003 180.245C266.707 180.33 266.413 180.408 266.117 180.487C265.872 180.551 265.632 180.636 265.384 180.694C265.096 180.766 264.809 180.82 264.517 180.869C264.071 180.92 263.623 180.94 263.174 180.929C262.703 180.91 262.232 180.88 261.762 180.839C261.389 180.786 261.022 180.691 260.67 180.557C260.258 180.374 259.851 180.18 259.45 179.975C259.351 179.923 259.241 179.896 259.129 179.895C259.022 179.894 258.916 179.921 258.823 179.974C258.73 180.027 258.653 180.104 258.599 180.197V180.197ZM246.398 173.204C246.081 173.388 245.999 173.781 246.162 174.094C246.296 174.354 246.425 174.609 246.545 174.872C246.743 175.366 246.838 175.878 246.923 176.399C247.005 177.077 247.063 177.759 247.083 178.445C247.097 179.161 247.067 179.878 246.992 180.59C246.845 182.07 246.664 183.55 246.484 185.029C246.296 186.259 246.101 187.491 245.788 188.701C245.628 189.311 245.436 189.911 245.246 190.515C245.099 190.969 244.994 191.443 244.816 191.885C244.796 191.93 244.776 191.978 244.754 192.025C244.658 192.218 244.601 192.428 244.584 192.643C244.567 192.793 244.656 193.059 244.731 193.189C244.816 193.334 244.976 193.506 245.133 193.581C245.328 193.695 245.555 193.742 245.78 193.713C246.004 193.683 246.212 193.581 246.371 193.42C246.579 193.216 246.681 192.93 246.668 192.65C246.686 192.57 246.707 192.493 246.728 192.414C246.661 192.236 246.637 192.044 246.658 191.854C246.708 191.408 246.736 191.275 246.917 190.873C247.008 190.662 247.164 190.483 247.315 190.308C247.506 189.625 247.67 188.934 247.806 188.238C247.994 187.286 248.079 186.311 248.188 185.346C248.29 184.446 248.342 183.536 248.42 182.632C248.482 181.95 248.54 181.272 248.587 180.59C248.632 179.98 248.614 179.372 248.573 178.765C248.532 178.046 248.457 177.329 248.348 176.617C248.301 176.307 248.235 176 248.171 175.694C248.09 175.322 247.982 174.956 247.847 174.599C247.693 174.2 247.489 173.818 247.291 173.436C247.234 173.337 247.152 173.255 247.052 173.199C246.952 173.143 246.839 173.116 246.725 173.119C246.61 173.118 246.498 173.148 246.398 173.204Z" fill="black"/>
<path fill-rule="evenodd" clip-rule="evenodd" d="M261.756 212.453C262.141 212.177 262.526 211.9 262.915 211.628L263.378 211.3L263.535 211.191L263.696 211.079C263.775 211.529 263.941 211.941 264.204 212.367L264.276 212.483L263.611 212.521L262.755 212.61C262.263 212.672 261.771 212.729 261.278 212.78C261.446 212.67 261.606 212.562 261.756 212.453V212.453ZM275.892 182.249L276.06 180.725L276.203 179.378C276.308 178.318 276.414 177.312 276.407 176.307V175.625C276.405 175.108 276.398 174.59 276.387 174.073L276.52 174.121C276.72 174.113 276.92 174.111 277.12 174.114L277.242 174.162C277.344 174.502 277.423 174.862 277.482 175.257C277.495 175.375 277.509 175.502 277.519 175.627C277.557 175.958 277.549 176.327 277.495 176.822C277.294 178.107 276.939 179.369 276.598 180.589L276.421 181.199L276.192 182.014L276.026 182.614L275.8 183.422L275.691 183.825L275.657 183.941C275.742 183.453 275.82 182.911 275.892 182.249V182.249ZM222.012 185.274L221.762 185.199C221.397 185 221.046 184.775 220.712 184.527C220.558 184.404 220.414 184.269 220.28 184.125C220.151 183.931 220.038 183.727 219.942 183.515C219.785 183.102 219.713 182.642 219.645 182.165L219.602 181.765C219.52 181.039 219.452 180.388 219.468 179.743C219.486 179.02 219.513 178.253 219.598 177.517C219.728 176.767 219.867 176.033 220.119 175.373C220.389 174.773 220.699 174.233 221.04 173.773C221.101 173.698 221.167 173.633 221.238 173.568C221.326 173.504 221.425 173.448 221.521 173.395L221.709 173.343L221.804 173.357L221.903 173.375L221.91 173.93L221.852 175.328C221.8 176.311 221.8 177.295 221.852 178.278C221.896 178.986 221.944 179.7 221.995 180.412L222.067 181.469C222.136 182.464 222.188 183.46 222.223 184.456C222.233 184.753 222.24 185.042 222.243 185.329L222.251 185.339C222.172 185.313 222.092 185.291 222.011 185.274H222.012ZM226.943 162.879L227.195 162.797L227.839 162.589C228.514 162.375 229.162 162.109 229.932 161.774C230.192 161.664 230.451 161.556 230.713 161.454C231.391 161.177 232.057 160.871 232.708 160.536L232.841 160.473L233.465 160.162C233.785 160.005 234.103 159.835 234.423 159.661L234.509 159.616L234.951 159.377C236.302 158.665 237.639 157.927 238.961 157.164C239.682 156.74 240.394 156.302 241.096 155.848L241.253 155.746L241.665 155.481L242.842 154.717C243.002 154.614 243.159 154.501 243.316 154.389L243.493 154.259L243.626 154.168L243.708 154.109C243.875 153.993 243.998 153.905 244.114 153.806L244.417 153.564L244.513 153.485C244.782 153.267 245.048 153.049 245.303 152.817L245.538 152.599C246.285 151.919 247.039 151.246 247.799 150.58L247.867 150.523C248.294 150.14 248.627 149.841 248.935 149.52L249.194 149.25C249.45 148.988 249.836 148.593 250.118 148.214C250.265 148.014 250.391 147.818 250.518 147.618L250.571 147.536L250.661 147.399L250.739 147.283L250.889 147.065C250.923 147.273 251.005 147.443 251.093 147.611L251.148 147.709L251.305 148.013C251.523 148.419 251.782 148.818 252.123 149.271C252.386 149.601 252.669 149.95 253.003 150.233C253.228 150.427 253.463 150.618 253.699 150.802L254.189 151.184L255.175 151.948C256.112 152.671 256.91 153.243 257.623 153.696C258.318 154.161 259.141 154.59 259.683 154.873L259.819 154.941L259.904 154.982L260.017 155.041L260.297 155.181L260.92 155.508L261.159 155.63C262.1 156.114 263.041 156.599 263.993 157.055C265.265 157.657 266.557 158.216 267.866 158.733L267.989 158.788C268.492 159 268.986 159.229 269.472 159.477C270.082 159.797 270.601 160.117 271.068 160.459C271.211 160.582 271.343 160.72 271.497 160.919C271.719 161.205 271.933 161.516 272.128 161.826C272.325 162.146 272.496 162.476 272.684 162.903C273.171 164.174 273.54 165.601 273.84 167.39C273.966 168.458 274.062 169.344 274.092 170.207C274.102 170.469 274.109 170.729 274.112 170.987C274.116 171.213 274.119 171.434 274.126 171.656L274.167 172.689C273.904 172.876 273.781 173.289 273.881 173.657C273.936 173.858 274.057 174.034 274.225 174.158L274.201 176.214C274.201 176.825 274.177 177.35 274.137 177.824C274.105 178.196 274.065 178.567 274.021 178.936L273.979 179.301L273.939 179.641L273.897 179.982L273.874 180.18C273.819 180.623 273.778 180.964 273.744 181.305C273.671 182.046 273.589 182.786 273.499 183.525C273.382 184.421 273.231 185.313 273.046 186.198C272.933 186.744 272.802 187.286 272.653 187.824C272.54 188.257 272.4 188.684 272.261 189.11L272.216 189.243C271.985 189.983 271.685 190.842 271.184 192.21C271.023 192.646 270.869 193.08 270.717 193.519L270.617 193.799L270.519 194.081C270.423 194.37 270.323 194.658 270.219 194.944C269.971 195.626 269.707 196.303 269.427 196.973L269.39 197.065C269.093 197.743 268.794 198.429 268.469 199.1C268.067 199.929 267.665 200.754 267.245 201.569C266.492 203.021 265.489 204.399 264.682 205.504L264.449 205.821C263.786 206.659 263.067 207.452 262.298 208.194C261.902 208.586 261.507 208.964 261.115 209.319L261.228 209.346L261.302 209.323L261.087 209.452C260.671 209.746 260.262 210.049 259.86 210.362L258.97 211.007C258.758 211.157 258.543 211.307 258.325 211.453L258.322 211.447L258.175 211.501C258.005 211.579 257.838 211.665 257.675 211.757L257.5 211.859C256.443 212.435 255.588 212.866 254.81 213.206C254.46 213.349 254.1 213.469 253.736 213.588L253.408 213.698L253.286 213.738C253.088 213.807 252.898 213.871 252.703 213.936C252.328 214.052 251.95 214.143 251.563 214.232C251.285 214.284 250.998 214.322 250.712 214.356L250.428 214.393L250.214 214.41L249.938 214.427L249.583 214.454C249.498 214.458 249.412 214.461 249.327 214.461C249.115 214.461 248.907 214.451 248.699 214.437L248.563 214.427C248.024 214.385 247.486 214.326 246.951 214.25L246.835 214.243C245.921 214.113 244.959 213.868 244.189 213.67L243.909 213.601L243.606 213.524C242.986 213.36 242.446 213.213 241.918 213.036C241.389 212.853 240.866 212.655 240.349 212.442C240.029 212.299 239.715 212.145 239.401 211.992C239.243 211.914 239.086 211.834 238.931 211.75L238.784 211.675C238.657 211.606 238.529 211.54 238.399 211.478C237.963 211.266 237.679 211.126 237.414 210.959C236.895 210.64 236.412 210.265 235.974 209.841C235.765 209.642 235.568 209.431 235.382 209.21L235.245 209.053L235.108 208.9C234.754 208.51 234.382 208.14 234.007 207.768L233.871 207.632C233.683 207.448 233.498 207.261 233.315 207.072L233.223 206.977C232.642 206.381 232.077 205.769 231.529 205.142C231.245 204.815 230.969 204.484 230.693 204.153C230.123 203.193 229.442 202.282 228.78 201.398L228.43 200.883C228.011 200.21 227.633 199.513 227.297 198.796C227.161 198.429 227.048 198.046 226.939 197.666L226.902 197.542C226.809 197.222 226.721 196.894 226.635 196.571L226.608 196.468L226.578 196.356L226.537 196.209L226.421 195.773C226.207 195.023 226.02 194.266 225.861 193.502C225.776 193.089 225.701 192.67 225.626 192.247L225.578 191.984L225.531 191.725C225.478 191.414 225.421 191.104 225.36 190.795L225.278 190.348L225.248 190.184C225.119 189.518 225 188.849 224.893 188.179C224.842 187.783 224.791 187.388 224.77 186.992C224.744 186.471 224.722 185.949 224.705 185.427L224.698 185.073C224.671 184.153 224.648 183.249 224.586 182.39C224.552 181.882 224.512 181.37 224.471 180.862L224.457 180.695C224.344 179.265 224.227 177.786 224.258 176.282C224.272 175.713 224.299 175.147 224.331 174.577L224.375 173.667C224.405 172.903 224.415 172.14 224.423 171.372L224.426 171.089C224.437 170.269 224.468 169.449 224.521 168.631L224.562 168.048L224.583 167.783C224.618 167.283 224.66 166.784 224.709 166.285L224.794 165.764L224.883 165.201L224.897 165.102C224.939 164.841 224.967 164.579 224.982 164.315C224.987 164.198 224.983 164.081 224.972 163.965C224.963 163.878 224.959 163.791 224.958 163.704C224.96 163.62 224.951 163.536 224.931 163.455L225.022 163.462C225.668 163.288 226.308 163.093 226.942 162.879H226.943ZM254.023 122.934L253.427 122.962C252.707 122.986 251.985 122.989 251.268 122.992H250.992L250.722 122.996C249.972 123 249.14 123.046 248.029 123.146C247.333 123.211 246.637 123.258 245.939 123.306L245.41 123.344C244.821 123.384 244.234 123.436 243.647 123.497L242.915 123.572C241.861 123.678 240.985 123.773 240.084 123.964C239.191 124.159 238.284 124.454 237.684 124.65L237.479 124.714C236.562 125.004 235.676 125.447 234.895 125.839L234.1 126.239C233.456 126.563 232.815 126.887 232.177 127.224C230.474 128.118 228.85 129.153 227.321 130.32C226.621 130.876 225.933 131.448 225.259 132.035L225.187 132.1L224.901 132.348C224.136 133.011 223.402 133.708 222.701 134.438C222.222 134.95 221.75 135.468 221.286 135.993L220.71 136.641C219.889 137.559 219.166 138.5 218.623 139.216C218.156 139.833 217.733 140.505 217.393 141.046L217.308 141.186L217.065 141.572C216.552 142.378 216.061 143.198 215.593 144.03L215.435 144.31C215.142 144.831 214.852 145.353 214.566 145.881C214.069 146.791 213.707 147.74 213.38 148.634C213.022 149.615 212.699 150.609 212.414 151.614C212.264 152.163 212.132 152.714 211.999 153.271L211.923 153.587L211.844 153.898L211.718 154.399C211.461 155.428 211.231 156.464 211.029 157.506C210.668 159.368 210.429 161.348 210.269 163.742C210.159 165.446 210.078 167.319 210.016 169.63C209.99 171.07 209.997 172.51 210.037 173.95L210.061 175.382C210.078 176.337 210.119 177.272 210.181 178.24C210.215 178.72 210.224 179.198 210.235 179.679L210.242 179.852L210.245 180.036L210.265 180.882C210.317 182.467 210.419 184.022 210.528 185.612L210.542 185.819L210.555 186.034L210.6 186.662L210.61 186.828C211.053 188.363 211.44 189.911 211.848 191.452C212.056 192.233 212.25 193.017 212.454 193.798C212.619 194.418 212.837 195.018 213.061 195.616C213.508 196.73 213.992 197.818 214.456 198.923C214.899 199.97 215.332 201.016 215.789 202.057C216.302 203.207 216.838 204.348 217.395 205.477C217.569 205.559 217.729 205.67 217.872 205.814C218.462 206.4 218.964 207.092 219.482 207.744C219.894 208.269 220.31 208.791 220.727 209.316C221.589 210.414 222.455 211.512 223.311 212.616C223.86 213.326 224.409 214.034 224.958 214.74C225.613 215.529 226.277 216.31 226.95 217.083C227.127 217.213 227.273 217.38 227.379 217.567C227.498 217.7 227.617 217.833 227.737 217.962C228.013 218.27 228.293 218.573 228.565 218.883C228.61 218.935 228.66 218.989 228.712 219.047C228.992 219.255 229.277 219.45 229.578 219.627C229.636 219.647 229.698 219.667 229.758 219.684C229.789 219.688 229.82 219.688 229.854 219.691C230.284 219.484 230.819 219.349 231.298 219.428C231.542 218.806 231.774 218.179 231.992 217.547C232.192 216.944 232.33 216.302 232.459 215.685L232.549 215.272C232.783 214.147 232.926 213.278 233.012 212.456C233.09 211.682 233.052 210.874 232.896 209.984C233.106 210.219 233.274 210.394 233.441 210.571L233.714 210.871C233.967 211.151 234.164 211.369 234.382 211.566C234.736 211.89 235.095 212.176 235.446 212.412C235.989 212.796 236.564 213.132 237.165 213.417L237.246 213.462L237.73 213.707C238.184 213.943 238.644 214.171 239.115 214.383C240.011 214.802 240.932 215.153 241.846 215.423C242.739 215.699 243.602 215.933 244.413 216.121L244.693 216.189L244.809 216.224C245.082 216.295 245.352 216.364 245.62 216.422C246.012 216.5 246.405 216.551 246.797 216.602L246.923 216.619L247.23 216.66C247.915 216.752 248.655 216.837 249.409 216.837C249.596 216.837 249.791 216.831 249.982 216.821C250.528 216.783 251.066 216.708 251.605 216.633C252.076 216.567 252.542 216.469 253 216.34C253.399 216.227 253.79 216.094 254.183 215.958L254.288 215.918L254.394 215.883C254.441 215.9 254.49 215.909 254.54 215.907C254.67 215.907 254.81 215.89 254.97 215.859C255.148 215.821 255.318 215.746 255.482 215.674L255.707 215.569C256.107 215.402 256.502 215.221 256.89 215.027C256.85 215.064 256.846 215.136 256.846 215.197C256.842 215.887 257.176 216.493 257.763 216.865L257.913 216.96C257.947 217.14 258.008 217.332 258.087 217.526C258.384 218.29 258.847 218.979 259.216 219.531L259.434 219.858C260.006 220.735 260.784 221.539 261.738 222.253C262.011 222.453 262.308 222.63 262.601 222.804L262.745 222.894L263.119 223.122C263.6 223.439 264.081 223.746 264.579 224.032L264.719 224.113C265.312 224.455 265.844 224.768 266.324 225.133C266.526 225.324 266.714 225.535 266.894 225.784C267.084 226.068 267.266 226.401 267.433 226.777C267.6 227.292 267.716 227.851 267.808 228.59C267.866 229.399 267.896 230.094 267.896 230.715C267.9 231.083 267.886 231.455 267.873 231.823L267.869 231.923C267.855 232.318 267.846 232.683 267.849 233.047C267.862 234.639 267.833 236.23 267.76 237.82C267.733 238.588 267.774 239.351 267.821 240.136L267.831 240.269C267.88 241.139 267.934 242.035 268.05 242.887C268.17 243.753 268.442 244.569 268.667 245.182C269.066 246.297 269.724 247.398 270.617 248.459C271.067 248.987 271.48 249.403 271.913 249.772L272.183 249.997C272.438 250.215 272.693 250.43 272.949 250.641C273.161 250.811 273.366 250.972 273.601 251.111C273.721 251.187 273.853 251.248 273.99 251.31L274.205 251.408L274.522 251.562C275.047 251.818 275.562 252.06 276.072 252.247C276.541 252.421 277.014 252.598 277.475 252.8C278.422 253.29 279.278 253.959 280.066 254.603C280.393 254.893 280.706 255.17 280.976 255.49C281.058 255.62 281.136 255.766 281.208 255.916C281.447 256.686 281.576 257.529 281.685 258.204L281.709 258.354C281.904 259.592 282.572 260.857 283.595 261.914C284.232 262.561 284.996 262.971 285.855 263.4C286.268 263.608 286.694 263.823 287.08 264.089C287.454 264.345 287.806 264.618 288.153 264.901C288.679 265.368 289.203 265.89 289.759 266.496C290.285 267.075 290.833 267.634 291.403 268.17C291.788 268.525 292.183 268.866 292.586 269.18C293.104 269.582 293.725 269.841 294.319 270.06C295.204 270.404 296.238 270.578 296.991 270.7C298.031 270.878 298.853 270.963 299.597 270.97H299.688C300.088 270.97 300.486 270.96 300.885 270.95C301.736 270.922 302.588 270.923 303.439 270.953C303.759 270.963 304.083 270.97 304.407 270.977C304.946 270.977 305.427 270.929 305.874 270.884C306.426 270.82 306.879 270.646 307.265 270.489C308.635 269.957 309.035 268.457 309.389 267.137L309.444 266.919C309.621 266.264 309.774 265.603 309.928 264.942C310.258 263.492 310.545 262.002 310.788 260.506C311.005 259.132 311.128 257.785 311.152 256.496C311.165 255.586 311.022 254.651 310.907 253.901L310.879 253.714C310.795 253.147 310.719 252.578 310.651 252.008C310.576 250.729 310.634 249.447 310.825 248.18C310.978 247.532 311.169 246.874 311.356 246.24C311.599 245.414 311.855 244.562 312.021 243.689C312.379 241.786 312.611 240.078 312.728 238.465C312.788 237.643 312.85 236.822 312.894 235.997C312.914 235.618 312.932 235.237 312.935 234.857C312.939 234.557 312.905 234.261 312.867 233.985L312.843 233.76C312.805 233.466 312.693 233.18 312.611 232.972L312.529 232.767C312.441 232.545 312.344 232.327 312.239 232.113C311.885 231.373 311.381 230.657 311.012 230.139L310.75 229.764L310.31 229.123C309.912 228.533 309.506 227.948 309.09 227.37L308.69 226.814L308.312 226.29L307.852 225.652C307.34 224.902 306.812 224.082 306.426 223.176L306.375 223.019L306.325 222.866C306.204 222.493 306.12 222.109 306.075 221.72C306.017 221.031 305.965 220.298 306.017 219.562C306.078 218.771 306.17 217.976 306.29 217.209C306.508 215.829 306.702 214.369 306.9 212.623C307.115 210.689 307.135 208.886 306.961 207.26C306.927 206.936 306.832 206.629 306.727 206.288L306.634 205.981C306.524 205.609 306.402 205.241 306.273 204.876L306.198 204.658C305.942 203.925 305.638 203.058 305.239 202.298C304.872 201.576 304.421 200.856 304.026 200.218L303.562 199.476C302.985 198.528 302.222 197.279 301.4 196.144C300.76 195.247 300.105 194.371 299.447 193.494L299.293 193.29C298.58 192.354 297.877 191.41 297.183 190.46L296.493 189.505L296.149 189.025C295.959 188.745 295.778 188.459 295.594 188.173L295.535 188.087L295.481 188.005L295.133 187.47C294.827 187 294.513 186.546 294.083 186.154C294.103 185.619 294.097 185.059 294.086 184.49L294.066 183.586C294.047 181.562 294.013 179.538 293.966 177.514C293.943 176.374 293.816 175.223 293.718 174.294L293.691 174.039L293.667 173.808C293.589 173.116 293.523 172.422 293.469 171.728C293.353 170.05 293.165 167.83 292.753 165.558C292.473 163.994 292.065 162.443 291.7 161.072L291.502 160.342C291.266 159.437 290.982 158.545 290.652 157.669C290.447 157.119 290.252 156.566 290.067 156.009C289.933 155.613 289.824 155.299 289.715 154.989C289.324 153.854 288.953 152.711 288.604 151.562C288.273 150.505 287.85 149.5 287.335 148.292L287.284 148.169L287.168 147.9C286.848 147.13 286.544 146.407 286.23 145.688C286.052 145.3 285.866 144.916 285.674 144.535L285.597 144.371L285.518 144.207L285.44 144.051L285.166 143.509C284.781 142.742 284.382 141.95 283.956 141.234C283.547 140.553 283.122 139.881 282.681 139.22L282.623 139.13C282.211 138.49 281.726 137.75 281.235 137.092C280.987 136.764 280.734 136.44 280.475 136.12L280.305 135.909L280.219 135.802L280.141 135.707L280.063 135.616L279.66 135.128C279.164 134.521 278.641 133.937 278.092 133.378C277.468 132.765 276.779 132.237 276.222 131.81L275.65 131.326L275.456 131.166C274.904 130.709 274.443 130.323 273.993 129.999C273.226 129.45 272.422 128.956 271.586 128.519C270.089 127.711 268.602 126.884 267.126 126.037C264.456 124.513 261.756 123.517 259.103 123.071C258.275 122.938 257.391 122.873 256.327 122.873C255.56 122.873 254.79 122.903 254.023 122.934" fill="black"/>
<path fill-rule="evenodd" clip-rule="evenodd" d="M226.4 221.566C226.404 221.506 226.407 221.446 226.407 221.386L226.39 221.368C226.349 221.328 226.308 221.287 226.267 221.249L226.4 221.566V221.566ZM290.054 168.154L290.084 168.236C290.074 168.209 290.064 168.182 290.054 168.154V168.154ZM286.525 157.747L286.545 157.803L286.525 157.747ZM282.219 147.645C282.734 148.623 283.232 149.609 283.716 150.601C284.105 151.402 284.422 152.231 284.739 153.063C284.724 153.028 284.711 152.993 284.698 152.957C285.001 153.789 285.291 154.624 285.604 155.449C285.92 156.262 286.254 157.067 286.574 157.879C286.872 158.709 287.17 159.545 287.429 160.387C287.712 161.317 287.992 162.248 288.285 163.176C288.554 164.022 288.786 164.877 289.096 165.706C289.42 166.576 289.766 167.443 290.109 168.306C290.263 168.734 290.406 169.161 290.521 169.599C290.654 170.094 290.771 170.592 290.886 171.093C291.097 171.99 291.248 172.897 291.449 173.797C291.674 174.79 291.875 175.785 292.083 176.781C292.278 177.732 292.451 178.693 292.725 179.624C293.011 180.599 293.222 181.592 293.512 182.564C293.822 183.604 294.221 184.612 294.641 185.608C295.032 186.536 295.387 187.48 295.793 188.4C296.203 189.339 296.653 190.255 297.078 191.183C297.406 191.885 297.723 192.595 298.046 193.297C298.384 194.031 298.766 194.739 299.156 195.452C299.516 196.113 299.892 196.768 300.236 197.443C300.564 198.061 300.856 198.696 301.112 199.347C301.312 199.923 301.507 200.5 301.685 201.085C301.882 201.731 301.964 202.421 302.062 203.088C302.228 205.022 302.287 206.961 302.257 208.904C302.23 210.994 301.903 213.066 301.607 215.132C301.494 215.921 301.347 216.708 301.217 217.492C301.241 217.362 301.266 217.23 301.289 217.096C301.054 218.426 300.826 219.76 300.539 221.076C300.396 221.734 300.202 222.386 300.031 223.036C299.864 223.674 299.776 224.332 299.598 224.97C299.448 225.501 299.629 226.071 300.106 226.378C300.646 226.723 301.47 226.586 301.801 226.002C302.336 225.058 302.718 223.998 303.035 222.958C303.199 222.426 303.345 221.901 303.475 221.358C303.605 220.837 303.697 220.298 303.802 219.77C304.003 218.795 304.171 217.813 304.348 216.835C304.559 215.644 304.758 214.455 304.928 213.261C305.073 212.261 305.195 211.258 305.292 210.253C305.337 209.735 305.333 209.21 305.34 208.691C305.347 208.201 305.344 207.709 305.337 207.219C305.314 206.153 305.264 205.088 305.187 204.024C305.101 202.902 304.989 201.777 304.713 200.683C304.59 200.188 304.416 199.707 304.249 199.227C304.041 198.642 303.82 198.062 303.584 197.487C303.505 197.287 303.396 197.092 303.301 196.901C303.181 196.662 303.062 196.421 302.94 196.185C302.691 195.718 302.441 195.255 302.176 194.797C301.661 193.907 301.143 193.014 300.703 192.083C300.246 191.121 299.793 190.157 299.322 189.198C298.79 188.111 298.265 187.027 297.798 185.905C297.368 184.865 296.88 183.845 296.457 182.801C296.306 182.383 296.161 181.963 296.021 181.541C295.868 181.066 295.759 180.579 295.619 180.102C295.339 179.167 295.022 178.247 294.787 177.302C294.542 176.317 294.324 175.325 294.091 174.336C293.866 173.395 293.617 172.461 293.376 171.522C293.256 171.055 293.113 170.595 292.976 170.132C292.84 169.664 292.725 169.184 292.556 168.727C292.356 168.177 292.151 167.635 291.909 167.104C291.721 166.697 291.537 166.288 291.357 165.877C291.149 165.403 290.937 164.929 290.737 164.451C290.548 163.997 290.382 163.537 290.187 163.087C289.99 162.623 289.799 162.157 289.604 161.693C289.417 161.249 289.205 160.82 289.018 160.38C288.605 159.389 288.169 158.408 287.708 157.438C287.266 156.51 286.795 155.596 286.365 154.662C285.939 153.732 285.554 152.78 285.158 151.835C284.776 150.925 284.336 150.035 283.887 149.162C283.559 148.532 283.235 147.904 282.905 147.276C282.877 147.216 282.831 147.165 282.775 147.129C282.718 147.094 282.653 147.075 282.586 147.076C282.326 147.076 282.06 147.341 282.219 147.645" fill="black"/>
<path fill-rule="evenodd" clip-rule="evenodd" d="M290.233 182.031C290.123 182.091 290.04 182.192 290.004 182.312C289.967 182.431 289.98 182.561 290.038 182.672C290.345 183.239 290.662 183.797 290.955 184.371C291.187 184.817 291.415 185.264 291.644 185.711C291.958 186.321 292.282 186.927 292.568 187.548C292.896 188.268 293.23 188.984 293.55 189.707L293.592 189.8C293.696 190.14 293.814 190.477 293.939 190.812C294.143 191.361 294.393 191.878 294.645 192.407C294.694 192.499 294.769 192.574 294.861 192.624C294.952 192.675 295.056 192.697 295.16 192.69C295.263 192.683 295.363 192.645 295.446 192.583C295.53 192.52 295.593 192.435 295.629 192.337C295.806 192.346 295.983 192.307 296.139 192.223C296.366 192.1 296.543 191.893 296.622 191.647C296.677 191.418 296.684 191.302 296.65 191.07C296.633 190.94 296.626 190.805 296.602 190.675L296.52 190.205C296.466 189.895 296.407 189.587 296.343 189.281C296.282 188.981 296.216 188.681 296.155 188.377L296.063 187.937C296.043 187.837 296.023 187.736 295.998 187.637C295.958 187.429 295.865 187.231 295.79 187.033C295.707 186.879 295.587 186.748 295.44 186.652L295.4 186.629C295.301 186.331 295.197 186.035 295.088 185.741C294.963 185.418 294.821 185.102 294.665 184.793C294.51 184.492 294.298 184.224 294.041 184.003C293.891 183.863 293.731 183.767 293.516 183.76C293.384 183.757 293.254 183.787 293.137 183.848C293.02 183.908 292.921 183.998 292.848 184.108C292.811 184.154 292.781 184.206 292.76 184.262L292.677 184.435C292.648 184.543 292.635 184.654 292.637 184.766C292.626 184.943 292.684 185.124 292.712 185.298C292.74 185.486 292.766 185.677 292.797 185.865L292.527 185.339C292.288 184.882 292.053 184.425 291.817 183.969C291.515 183.382 291.194 182.806 290.877 182.226C290.816 182.117 290.714 182.035 290.594 181.999C290.474 181.963 290.345 181.974 290.233 182.031V182.031ZM267.427 208.817C267.287 208.862 267.171 208.903 267.048 208.98C266.938 209.05 266.837 209.134 266.731 209.212C266.649 209.274 266.574 209.342 266.493 209.407C266.247 209.601 266.005 209.799 265.76 209.997L265.555 210.159C265.395 210.015 265.19 209.929 264.975 209.915C264.742 209.896 264.508 209.911 264.28 209.96C264.065 210.007 263.857 210.109 263.653 210.184C263.373 210.29 263.103 210.42 262.837 210.552C262.527 210.702 262.22 210.86 261.917 211.022C261.6 211.197 261.276 211.402 261.027 211.664C260.587 212.121 260.352 212.827 260.645 213.427C260.678 213.493 260.72 213.554 260.77 213.609C260.663 213.679 260.557 213.753 260.454 213.829C260.256 213.979 260.188 214.293 260.244 214.521C260.321 214.856 260.594 215.033 260.914 215.077C261.156 215.107 261.392 215.002 261.593 214.883C261.828 214.747 262.046 214.58 262.265 214.419C262.486 214.255 262.701 214.074 262.915 213.897C263.243 213.628 263.563 213.348 263.88 213.065C264.164 212.82 264.436 212.565 264.713 212.312C264.853 212.182 264.993 212.052 265.136 211.924C265.204 211.858 265.276 211.797 265.343 211.736C265.403 211.684 265.458 211.64 265.511 211.586L266.135 211.085C266.267 210.978 266.399 210.871 266.531 210.761L266.407 211.074C266.22 211.559 266.022 212.039 265.827 212.52C265.674 212.908 265.545 213.308 265.407 213.703C265.187 214.348 264.971 214.992 264.774 215.643C264.742 215.75 264.752 215.866 264.804 215.965C264.856 216.064 264.944 216.14 265.05 216.175C265.157 216.208 265.272 216.198 265.372 216.147C265.471 216.096 265.547 216.008 265.582 215.902C265.763 215.302 265.957 214.716 266.162 214.126C266.302 213.724 266.425 213.311 266.588 212.919C266.963 212.014 267.322 211.1 267.73 210.209C267.798 210.066 267.865 209.925 267.924 209.779C267.986 209.632 268.006 209.472 268.03 209.319C268.078 209.051 267.798 208.799 267.54 208.799C267.502 208.799 267.463 208.805 267.427 208.817V208.817ZM290.937 192.67C290.891 193.665 290.884 194.661 290.917 195.657C290.944 196.617 290.968 197.583 291.023 198.544C291.077 199.499 291.118 200.45 291.203 201.402C291.292 202.414 291.373 203.43 291.48 204.443C291.775 207.319 292.071 210.198 292.38 213.073C292.42 213.518 292.463 213.962 292.503 214.406C292.54 214.822 292.588 215.236 292.612 215.651L292.701 217.291C292.606 216.965 292.535 216.631 292.451 216.305C292.229 215.436 292.011 214.57 291.8 213.701C290.406 207.888 288.897 202.104 287.272 196.352C287.212 196.146 287.151 195.94 287.098 195.732C287.099 195.688 287.092 195.644 287.078 195.602C287.067 195.564 287.054 195.526 287.04 195.489C286.941 195.217 286.71 195.026 286.406 195.094C286.271 195.128 286.153 195.212 286.08 195.331C286.006 195.449 285.981 195.592 286.01 195.728C286.106 196.138 286.228 196.543 286.344 196.945L286.897 198.926C287.074 199.561 287.242 200.195 287.405 200.829C287.893 202.715 288.408 204.593 288.857 206.489C289.318 208.439 289.798 210.39 290.218 212.35C290.419 213.309 290.628 214.266 290.828 215.225C291.029 216.189 291.21 217.162 291.442 218.119C291.582 218.692 291.719 219.262 291.875 219.831C291.95 220.104 292.025 220.377 292.107 220.65C292.148 220.796 292.192 220.94 292.229 221.086C292.281 221.27 292.336 221.451 292.431 221.618C292.544 221.819 292.721 221.959 292.908 222.085C293.427 222.433 294.132 222.143 294.323 221.573C294.422 221.283 294.528 221.004 294.586 220.703C294.654 220.357 294.699 220.008 294.729 219.653C294.779 219.071 294.779 218.477 294.756 217.892C294.736 217.329 294.712 216.762 294.688 216.2C294.651 215.218 294.556 214.24 294.477 213.257C294.395 212.214 294.275 211.17 294.17 210.127C294.075 209.172 293.986 208.217 293.894 207.263C293.776 206.063 293.656 204.86 293.535 203.659C293.454 202.746 293.375 201.834 293.293 200.924C293.211 200 293.181 199.07 293.127 198.143C293.025 196.345 292.993 194.545 292.891 192.748C292.878 192.478 292.819 192.251 292.631 192.045C292.456 191.855 292.212 191.743 291.954 191.732H291.916C291.664 191.734 291.422 191.832 291.24 192.007C291.058 192.181 290.95 192.418 290.937 192.67V192.67ZM211.51 170.406C211.497 170.787 211.811 171.156 212.207 171.156C212.598 171.156 212.94 170.866 212.957 170.46C212.97 170.079 212.657 169.71 212.261 169.71C212.07 169.706 211.885 169.776 211.745 169.906C211.605 170.036 211.521 170.215 211.511 170.406H211.51ZM212.552 180.884V180.883L212.553 180.894V180.884H212.552ZM212.549 180.854L212.551 180.87C212.55 180.864 212.549 180.859 212.549 180.853V180.854ZM211.372 176.318C211.318 178.006 211.281 179.714 211.382 181.402C211.427 182.203 211.519 183.002 211.598 183.799C211.673 184.532 211.811 185.259 211.898 185.989C211.958 186.685 212.043 187.37 212.164 188.058C212.286 188.736 212.429 189.408 212.549 190.086C212.774 191.389 212.975 192.698 213.197 194C213.422 195.334 213.701 196.653 214.134 197.939C214.615 199.377 215.182 200.786 215.72 202.209C216.184 203.435 216.726 204.649 217.384 205.788C218.062 206.954 218.795 208.083 219.518 209.218C219.931 209.869 220.34 210.518 220.791 211.138C221.227 211.738 221.694 212.297 222.188 212.849C222.605 213.313 223.031 213.774 223.45 214.241C223.896 214.735 224.333 215.246 224.814 215.71C225.458 216.334 226.137 216.92 226.791 217.538C227.384 218.098 227.896 218.745 228.445 219.348C229.028 219.993 229.638 220.614 230.195 221.285C230.449 221.597 230.7 221.913 230.945 222.235C231.551 223.266 232.025 224.383 232.581 225.438C232.718 225.694 232.851 225.946 232.98 226.202C233.028 226.294 233.076 226.382 233.126 226.474C233.147 226.512 233.167 226.549 233.192 226.587C233.389 226.932 233.529 227.071 233.832 227.31C233.962 227.413 234.115 227.488 234.276 227.522C234.426 227.545 234.576 227.572 234.726 227.6C235.033 227.61 235.322 227.545 235.595 227.399C235.745 227.334 235.885 227.238 235.991 227.116C236.263 226.799 236.297 226.736 236.471 226.349C236.564 226.147 236.561 225.899 236.591 225.676C236.605 225.565 236.621 225.452 236.635 225.336C236.674 225.051 236.669 224.766 236.641 224.482L236.669 224.442C236.913 224.104 237.07 223.685 237.241 223.307C237.521 222.707 237.781 222.109 237.961 221.462C238.193 220.638 238.254 219.777 238.376 218.932C238.458 218.517 238.548 218.105 238.61 217.684C238.687 217.115 238.685 216.538 238.606 215.969C238.535 215.41 238.276 214.881 238.023 214.387C237.801 213.961 237.558 213.547 237.293 213.147C236.17 211.44 234.883 209.857 233.543 208.317C233.474 208.228 233.402 208.141 233.328 208.056C232.823 207.479 231.93 207.349 231.262 207.707C230.999 207.847 230.788 208.045 230.624 208.297C230.358 208.714 230.334 209.137 230.399 209.61C230.447 209.968 230.647 210.275 230.852 210.562C231.071 210.865 231.285 211.172 231.507 211.472L231.588 211.582C231.679 211.779 231.764 211.978 231.845 212.18C232.051 212.808 232.245 213.428 232.425 214.062C231.983 213.96 231.52 214.029 231.126 214.253C230.732 214.478 230.437 214.842 230.3 215.274L230.257 215.516C229.956 215.203 229.644 214.901 229.322 214.61C228.453 213.586 227.609 212.541 226.791 211.475C226.229 210.742 225.646 210.025 225.098 209.282C223.605 206.936 222.283 204.485 221.142 201.949C220.886 201.382 220.675 200.786 220.456 200.203C220.21 199.559 219.968 198.91 219.723 198.263C219.206 196.892 218.675 195.526 218.131 194.165C218.003 193.85 217.87 193.538 217.732 193.227C217.432 192.541 216.552 192.214 215.86 192.374C215.575 192.443 215.313 192.584 215.1 192.785L215.076 192.698C214.701 191.341 214.356 189.974 213.998 188.613C213.828 187.962 213.651 187.314 213.511 186.656C213.374 186.008 213.279 185.35 213.152 184.702C213.03 184.089 212.894 183.485 212.808 182.865C212.724 182.237 212.638 181.606 212.564 180.975C212.461 179.44 212.436 177.9 212.488 176.362C212.493 176.214 212.44 176.07 212.34 175.961C212.24 175.852 212.101 175.787 211.953 175.779H211.933C211.788 175.78 211.649 175.837 211.545 175.937C211.441 176.038 211.379 176.174 211.373 176.319L211.372 176.318ZM258.903 215.622L258.812 215.732C258.84 215.693 258.87 215.656 258.902 215.622H258.903ZM257.632 214.014C257.114 214.392 256.906 215.104 256.756 215.694C256.712 215.886 256.664 216.077 256.62 216.267C256.527 216.673 256.484 217.045 256.538 217.461C256.623 218.126 256.776 218.784 256.926 219.435C257.063 220.032 257.173 220.635 257.339 221.225C257.519 221.87 257.833 222.433 258.134 223.023C258.359 223.469 258.628 223.926 258.999 224.263C259.259 224.503 259.507 224.706 259.815 224.871C260.04 224.989 260.268 225.105 260.493 225.228C261.053 225.532 261.608 225.794 262.235 225.924C262.801 226.043 263.375 226.106 263.943 226.191C264.101 226.224 264.253 226.265 264.403 226.318C264.422 226.329 264.442 226.34 264.46 226.352C264.671 226.697 264.865 227.062 265.024 227.437C265.15 227.807 265.262 228.181 265.403 228.55C265.529 228.874 265.741 229.139 265.955 229.42C266.14 229.586 266.335 229.743 266.535 229.89C266.76 230.06 267.142 230.176 267.425 230.251C267.909 230.381 268.435 230.414 268.935 230.435C269.357 230.449 269.771 230.326 270.117 230.084C270.462 229.842 270.719 229.493 270.849 229.092C271.173 228.082 270.593 226.998 269.597 226.667C269.455 226.62 269.313 226.573 269.172 226.524C269.017 226.016 268.869 225.507 268.639 225.021C268.268 224.229 267.735 223.459 267.023 222.948C266.331 222.449 265.529 222.234 264.703 222.102C263.993 221.991 263.27 222.014 262.556 221.939C262.134 221.825 261.721 221.68 261.32 221.506C261.249 221.467 261.18 221.426 261.112 221.382C260.842 221.096 260.593 220.792 260.365 220.472C259.789 219.598 259.363 218.629 258.987 217.654C258.889 217.38 258.808 217.1 258.745 216.816C258.752 216.584 258.771 216.352 258.8 216.121C258.841 215.934 258.894 215.75 258.958 215.57C258.979 215.553 259.001 215.536 259.024 215.521C259.474 215.187 259.43 214.447 259.082 214.069C258.897 213.87 258.641 213.752 258.369 213.741H258.333C258.054 213.741 257.852 213.851 257.633 214.014H257.632ZM246.158 191.674C246.158 191.67 246.158 191.666 246.16 191.662L246.167 191.609C246.163 191.631 246.16 191.652 246.158 191.674V191.674ZM246.498 189.245C246.369 190.033 246.268 190.821 246.167 191.609L246.175 191.561C246.169 191.594 246.165 191.628 246.16 191.662L246.157 191.68L246.158 191.674C246.138 191.817 246.118 191.959 246.089 192.1C246.066 192.22 246.018 192.338 246.014 192.46C246.016 192.46 246.017 192.458 246.018 192.457C246.017 192.519 246.03 192.581 246.056 192.637C246.082 192.694 246.12 192.744 246.168 192.783C246.216 192.823 246.272 192.851 246.333 192.866C246.393 192.881 246.456 192.883 246.517 192.87C246.531 192.905 246.547 192.94 246.562 192.973C246.392 192.947 246.22 192.928 246.048 192.917C245.868 192.907 245.68 192.924 245.51 192.983C245.35 193.031 245.206 193.121 245.093 193.245C244.974 193.385 244.899 193.538 244.848 193.715C244.78 193.965 244.787 194.289 244.923 194.517C245.175 194.937 245.703 195.069 246.161 195.134C247.119 195.267 248.087 195.339 249.055 195.308C249.989 195.283 250.92 195.189 251.841 195.028C252.116 194.98 252.393 194.933 252.668 194.878C252.814 194.858 252.96 194.833 253.103 194.803C253.413 194.738 253.723 194.681 254.027 194.585C254.428 194.464 254.795 194.253 255.101 193.967C255.217 193.849 255.333 193.677 255.356 193.511C255.378 193.398 255.373 193.281 255.343 193.17C255.296 193.013 255.193 192.879 255.053 192.793C255.026 192.736 254.988 192.684 254.941 192.642C254.866 192.573 254.777 192.521 254.681 192.488C254.616 192.461 254.548 192.461 254.481 192.458C254.395 192.447 254.296 192.481 254.208 192.498C254.156 192.508 254.104 192.515 254.051 192.524C253.627 192.569 253.206 192.595 252.782 192.624C252.237 192.658 251.692 192.699 251.149 192.74C250.669 192.778 250.187 192.781 249.706 192.788C249.144 192.792 248.576 192.814 248.016 192.763C247.832 192.736 247.65 192.695 247.473 192.638C247.458 192.63 247.443 192.621 247.428 192.611C247.394 192.581 247.363 192.549 247.334 192.515C247.298 192.464 247.265 192.411 247.236 192.355C247.205 192.263 247.18 192.168 247.164 192.072C247.149 191.885 247.149 191.697 247.163 191.51C247.207 191.365 247.251 191.219 247.293 191.073C247.431 190.605 247.529 190.126 247.586 189.641C247.613 189.49 247.627 189.337 247.497 189.215C247.441 189.163 247.372 189.128 247.297 189.113C247.257 189.055 247.203 189.007 247.14 188.973C247.078 188.94 247.008 188.921 246.937 188.92C246.742 188.92 246.53 189.046 246.498 189.245V189.245ZM248.845 197.033C248.673 197.057 248.502 197.078 248.333 197.106L248.409 197.094L248.868 197.031L248.845 197.033V197.033ZM252.197 201.132C252.221 201.139 252.249 201.142 252.273 201.149C252.348 201.167 252.423 201.189 252.493 201.214C252.475 201.112 252.455 201.01 252.435 200.908C252.363 200.991 252.285 201.067 252.197 201.132V201.132ZM241.054 164.404L240.944 164.507C240.857 164.498 240.769 164.508 240.687 164.537C240.604 164.567 240.53 164.614 240.468 164.676C239.932 165.246 239.378 165.783 238.76 166.261C238.178 166.698 237.562 167.09 236.92 167.433C236.52 167.563 236.115 167.673 235.715 167.79C235.22 167.936 234.719 168.056 234.218 168.178C233.764 168.291 233.297 168.358 232.837 168.434C232.379 168.511 231.923 168.58 231.466 168.647C231.168 168.677 230.874 168.705 230.576 168.737C230.279 168.765 229.973 168.765 229.673 168.779C229.397 168.792 229.117 168.782 228.841 168.779C228.58 168.775 228.316 168.741 228.055 168.751C227.675 168.708 227.294 168.99 227.194 169.351C227.165 169.456 227.157 169.565 227.171 169.673C227.185 169.781 227.221 169.885 227.276 169.979C227.388 170.173 227.555 170.279 227.763 170.353C228.033 170.456 228.343 170.466 228.63 170.503C228.898 170.541 229.181 170.537 229.454 170.555C229.864 170.578 230.283 170.582 230.692 170.565C231.649 170.534 232.605 170.463 233.556 170.35C234.143 170.276 234.722 170.2 235.298 170.091C235.793 169.995 236.28 169.883 236.768 169.771C236.987 169.72 237.201 169.668 237.416 169.617C237.638 169.566 237.859 169.514 238.078 169.45C238.439 169.34 238.786 169.174 239.118 168.993C239.738 168.659 240.294 168.192 240.836 167.742C241.16 167.472 241.48 167.192 241.794 166.906C242.163 166.568 242.585 166.207 242.807 165.754C242.93 165.541 242.979 165.294 242.948 165.05C242.916 164.806 242.806 164.579 242.633 164.404C242.532 164.302 242.412 164.221 242.279 164.166C242.147 164.11 242.005 164.082 241.861 164.082C241.574 164.082 241.283 164.194 241.054 164.404V164.404ZM252.995 164.985C252.778 165.044 252.593 165.186 252.48 165.38C252.421 165.479 252.383 165.59 252.368 165.704C252.352 165.818 252.361 165.935 252.392 166.046C252.457 166.274 252.6 166.427 252.788 166.561C253.872 167.328 255.054 168.017 256.344 168.378C256.913 168.534 257.506 168.623 258.093 168.705C258.594 168.777 259.099 168.827 259.607 168.862C260.06 168.896 260.517 168.93 260.974 168.937C262.962 168.951 264.948 168.786 266.907 168.446C267.421 168.353 267.961 168.224 268.444 168.023C268.727 167.907 269.024 167.802 269.284 167.634C269.358 167.59 269.423 167.539 269.491 167.488C269.682 167.344 269.795 167.235 269.877 166.997C269.999 166.649 269.741 166.25 269.403 166.162C269.106 166.083 268.881 166.199 268.609 166.28C268.309 166.37 268.001 166.441 267.699 166.516C267.115 166.659 266.522 166.746 265.929 166.829C265.259 166.899 264.585 166.958 263.913 167.014C263.214 167.076 262.508 167.096 261.806 167.114C260.496 167.146 259.185 167.048 257.887 166.894C257.693 166.859 257.497 166.827 257.305 166.792C256.856 166.713 256.416 166.588 255.993 166.418C255.172 166.049 254.39 165.598 253.66 165.071C253.533 164.991 253.384 164.95 253.234 164.954C253.153 164.954 253.073 164.964 252.995 164.985" fill="black"/>
<path fill-rule="evenodd" clip-rule="evenodd" d="M249.713 206.92L249.789 206.933L249.713 206.921V206.92ZM244.913 206.738L244.948 206.754C244.936 206.749 244.925 206.743 244.913 206.738V206.738ZM252.11 206.556L252.074 206.56L252.11 206.556ZM251.884 206.549L251.976 206.562C251.945 206.561 251.914 206.557 251.884 206.549ZM245.151 202.675C245.142 202.687 245.133 202.699 245.123 202.71C245.132 202.699 245.143 202.687 245.151 202.675ZM246.967 200.93L246.912 200.971L246.967 200.931V200.93ZM250.384 200.139C250.676 200.189 250.966 200.262 251.249 200.357C251.443 200.45 251.634 200.556 251.811 200.679C251.953 200.809 252.089 200.943 252.215 201.087C252.371 201.313 252.499 201.554 252.619 201.803C252.692 201.988 252.759 202.174 252.825 202.362C252.896 202.57 252.932 202.785 252.965 203.002C253.005 203.4 253.027 203.792 253.034 204.19C253.041 204.63 252.993 205.07 252.934 205.502L252.955 205.339C252.921 205.571 252.863 205.799 252.783 206.02C252.719 206.166 252.645 206.307 252.562 206.443C252.393 206.498 252.22 206.538 252.045 206.563H251.986C251.718 206.488 251.453 206.395 251.186 206.321C250.934 206.254 250.686 206.173 250.442 206.079C249.907 205.878 249.303 205.762 248.733 205.829C248.416 205.867 248.123 205.935 247.82 206.031C247.557 206.109 247.298 206.205 247.039 206.304C246.559 206.486 246.064 206.624 245.559 206.718C245.371 206.738 245.181 206.748 244.989 206.738C244.934 206.724 244.879 206.709 244.824 206.692L244.794 206.676C244.784 206.666 244.774 206.656 244.765 206.646C244.745 206.613 244.725 206.58 244.705 206.546C244.691 206.496 244.68 206.445 244.671 206.394C244.635 205.994 244.63 205.594 244.671 205.194C244.703 205.011 244.738 204.832 244.781 204.65C244.863 204.354 244.963 204.063 245.082 203.78C245.118 203.647 245.124 203.508 245.101 203.372C245.078 203.236 245.026 203.107 244.948 202.993C245.025 202.867 245.108 202.743 245.195 202.623C245.72 201.983 246.349 201.43 246.992 200.911C247.198 200.754 247.418 200.617 247.65 200.501C247.874 200.419 248.101 200.356 248.334 200.296C248.563 200.238 248.799 200.176 249.03 200.146H249.028L249.082 200.139C249.515 200.105 249.951 200.105 250.384 200.139V200.139ZM247.574 198.901C247.339 198.976 247.118 199.061 246.892 199.157C246.647 199.263 246.436 199.427 246.227 199.587C245.89 199.851 245.571 200.138 245.273 200.446C244.799 200.934 244.338 201.438 243.963 202.011C243.794 202.273 243.653 202.553 243.523 202.841C243.457 202.903 243.402 202.975 243.36 203.054C243.138 203.47 242.923 203.9 242.801 204.356C242.697 204.737 242.648 205.13 242.654 205.524L242.634 205.632C242.604 205.8 242.606 205.952 242.689 206.103C242.712 206.319 242.744 206.535 242.78 206.747C242.832 207.023 242.937 207.297 243.097 207.521C243.277 207.774 243.431 207.926 243.684 208.107C243.95 208.298 244.322 208.367 244.642 208.387C244.925 208.404 245.202 208.373 245.477 208.305C245.797 208.227 246.112 208.132 246.422 208.019C247.042 207.796 247.632 207.499 248.232 207.233C248.528 207.109 248.819 207.005 249.134 206.949C249.37 206.927 249.599 206.92 249.837 206.94C250.172 206.997 250.503 207.083 250.837 207.153C251.036 207.193 251.227 207.245 251.417 207.309L251.766 207.422C251.926 207.47 252.11 207.462 252.277 207.442C252.584 207.409 252.9 207.375 253.17 207.211C253.278 207.139 253.37 207.046 253.442 206.938C253.528 206.833 253.609 206.723 253.685 206.611C253.927 206.252 254.101 205.857 254.238 205.445C254.541 204.538 254.599 203.576 254.506 202.632C254.458 202.154 254.329 201.704 254.169 201.258C253.993 200.761 253.729 200.3 253.389 199.897C252.925 199.355 252.27 198.956 251.595 198.745C251.167 198.617 250.724 198.544 250.278 198.526C250.164 198.519 250.051 198.516 249.937 198.516C249.138 198.516 248.335 198.669 247.574 198.901" fill="black"/>
<path fill-rule="evenodd" clip-rule="evenodd" d="M244.515 207.034L244.529 207.036C244.524 207.036 244.519 207.036 244.515 207.034ZM252.815 205.852C252.808 205.869 252.8 205.886 252.792 205.902L252.814 205.852H252.815ZM246.67 201.573C246.655 201.587 246.64 201.598 246.625 201.61L246.67 201.573ZM250.08 200.113C250.111 200.12 250.142 200.128 250.172 200.138C250.435 200.258 250.7 200.368 250.966 200.474C251.23 200.606 251.478 200.761 251.716 200.934C251.852 201.05 251.982 201.173 252.099 201.308C252.219 201.497 252.32 201.696 252.412 201.901C252.588 202.359 252.717 202.841 252.817 203.324C252.861 203.702 252.883 204.079 252.893 204.462C252.902 204.818 252.916 205.177 252.887 205.532C252.856 205.676 252.815 205.818 252.765 205.956C252.733 206.02 252.697 206.082 252.659 206.142C252.61 206.172 252.56 206.201 252.509 206.228C252.351 206.282 252.193 206.328 252.029 206.36C251.975 206.362 251.921 206.362 251.867 206.36C251.659 206.323 251.454 206.273 251.253 206.208C251.025 206.136 250.807 206.034 250.578 205.961C250.353 205.893 250.121 205.863 249.889 205.829C249.559 205.779 249.23 205.719 248.897 205.713C248.378 205.696 247.86 205.775 247.369 205.945C246.853 206.13 246.381 206.416 245.885 206.64C245.475 206.802 245.049 206.921 244.615 206.995L244.495 207.004C244.419 206.882 244.35 206.756 244.288 206.626L244.246 206.518C244.4 205.634 244.576 204.759 244.92 203.923C245.064 203.6 245.225 203.277 245.429 202.985L245.709 202.571C245.776 202.486 245.843 202.399 245.913 202.314C246.106 202.066 246.334 201.851 246.575 201.651C246.815 201.464 247.065 201.287 247.315 201.117C247.61 200.917 247.897 200.719 248.222 200.571C248.75 200.367 249.298 200.216 249.856 200.121C249.93 200.116 250.005 200.111 250.08 200.112V200.113ZM249.964 200.09L250.012 200.098L249.964 200.09ZM250.008 198.826C249.663 198.857 249.322 198.92 248.988 199.013C248.534 199.128 248.091 199.279 247.662 199.466C247.232 199.654 246.847 199.93 246.465 200.203C246.241 200.366 246.019 200.533 245.801 200.704C245.473 200.966 245.182 201.273 244.937 201.614C244.691 201.944 244.466 202.289 244.263 202.648C243.748 203.575 243.486 204.591 243.289 205.621C243.176 205.634 243.068 205.67 242.971 205.729C242.874 205.787 242.79 205.866 242.726 205.959C242.662 206.052 242.619 206.159 242.599 206.27C242.58 206.382 242.584 206.496 242.613 206.606C242.678 206.845 242.739 207.084 242.813 207.319C242.898 207.571 243.021 207.81 243.165 208.035C243.322 208.285 243.574 208.529 243.867 208.608C244.181 208.689 244.47 208.68 244.785 208.625C245.129 208.567 245.452 208.475 245.78 208.362C246.149 208.242 246.508 208.094 246.854 207.919C247.17 207.752 247.478 207.569 247.8 207.419C248.069 207.321 248.345 207.247 248.627 207.197C249.049 207.157 249.462 207.2 249.877 207.249C249.987 207.267 250.095 207.287 250.203 207.315C250.363 207.356 250.516 207.421 250.673 207.475C250.987 207.581 251.304 207.667 251.628 207.721C252.092 207.8 252.538 207.735 252.992 207.626C253.217 207.574 253.452 207.483 253.646 207.363C253.878 207.227 254.052 206.991 254.196 206.77C254.315 206.589 254.39 206.378 254.465 206.177C254.54 205.982 254.557 205.771 254.581 205.566C254.588 205.488 254.591 205.406 254.588 205.328C254.581 204.963 254.553 204.598 254.53 204.233C254.499 203.811 254.445 203.391 254.366 202.975C254.295 202.589 254.131 202.239 253.98 201.881L254.01 201.954C253.733 201.309 253.405 200.651 252.876 200.179C252.628 199.96 252.362 199.763 252.081 199.589C251.884 199.46 251.676 199.351 251.458 199.262C251.301 199.2 251.144 199.147 250.988 199.087C250.698 198.956 250.418 198.822 250.095 198.822C250.066 198.822 250.037 198.823 250.008 198.826V198.826Z" fill="black"/>
<path fill-rule="evenodd" clip-rule="evenodd" d="M251.884 201.736H251.882L251.866 201.735L251.884 201.736ZM250.575 201.81L250.519 201.817C250.538 201.814 250.556 201.812 250.575 201.81V201.81ZM251.013 200.96C250.521 200.97 250.034 201.032 249.55 201.1C249.587 201.094 249.628 201.09 249.666 201.083C249.308 201.114 248.943 201.125 248.586 201.152C248.438 201.166 248.296 201.179 248.152 201.2C248.06 201.213 247.964 201.23 247.872 201.247C247.729 201.275 247.589 201.329 247.453 201.373C247.262 201.434 247.074 201.506 246.886 201.574C246.13 201.844 245.38 202.148 244.623 202.43C244.489 202.468 244.374 202.556 244.302 202.676C244.267 202.737 244.244 202.805 244.234 202.875C244.225 202.945 244.23 203.017 244.248 203.085C244.266 203.152 244.297 203.215 244.34 203.27C244.383 203.325 244.436 203.371 244.497 203.405C244.558 203.442 244.625 203.466 244.696 203.476C244.766 203.485 244.838 203.48 244.906 203.46C245.816 203.123 246.72 202.768 247.626 202.423C247.753 202.375 247.879 202.332 248.009 202.287C248.216 202.223 248.428 202.176 248.643 202.147C248.875 202.113 249.106 202.076 249.338 202.035C249.771 201.963 250.198 201.875 250.63 201.803L250.616 201.804C251.031 201.752 251.453 201.688 251.866 201.734C251.877 201.735 251.888 201.736 251.899 201.738C251.894 201.738 251.889 201.738 251.884 201.736C251.982 201.751 252.083 201.762 252.182 201.776C252.329 201.792 252.469 201.66 252.506 201.526C252.517 201.483 252.52 201.439 252.514 201.395C252.509 201.351 252.494 201.309 252.472 201.271C252.424 201.186 252.356 201.151 252.27 201.114C251.954 200.984 251.608 200.957 251.267 200.957C251.181 200.957 251.097 200.959 251.013 200.96V200.96ZM250.191 203.89C249.691 203.896 249.196 203.92 248.701 203.992C248.266 204.052 247.836 204.141 247.413 204.258C246.97 204.38 246.547 204.575 246.138 204.786C245.539 205.091 244.965 205.443 244.423 205.84C244.259 205.96 244.099 206.085 243.952 206.224C243.805 206.368 243.707 206.552 243.602 206.723C243.519 206.863 243.441 207.003 243.358 207.142C243.291 207.26 243.272 207.399 243.307 207.53C243.341 207.661 243.426 207.773 243.543 207.842C243.782 207.981 244.103 207.899 244.242 207.657C244.37 207.44 244.494 207.214 244.639 207.007C244.695 206.951 244.752 206.898 244.814 206.847C245.464 206.382 246.184 205.997 246.915 205.677C247.2 205.559 247.494 205.466 247.795 205.4C248.075 205.342 248.353 205.292 248.635 205.249C249.389 205.175 250.148 205.181 250.901 205.267C251.076 205.299 251.246 205.343 251.413 205.403C251.595 205.489 251.762 205.587 251.923 205.705C252.233 205.958 252.543 206.252 252.947 206.321C253.209 206.368 253.459 206.331 253.656 206.133C253.878 205.915 253.953 205.519 253.772 205.249C253.704 205.143 253.623 205.047 253.53 204.963C253.425 204.868 253.308 204.796 253.189 204.721C253.022 204.612 252.855 204.503 252.688 204.391C252.511 204.267 252.306 204.192 252.108 204.111C251.924 204.034 251.732 203.981 251.535 203.951C251.187 203.904 250.836 203.882 250.485 203.888C250.388 203.888 250.29 203.888 250.191 203.89" fill="black"/>
<path fill-rule="evenodd" clip-rule="evenodd" d="M251.117 200.632C250.783 200.642 250.449 200.672 250.118 200.714C249.368 200.805 248.625 200.911 247.885 201.068C246.777 201.304 245.703 201.696 244.656 202.122L244.319 202.265C244.05 202.422 243.84 202.664 243.723 202.953C243.606 203.241 243.588 203.561 243.671 203.861C243.674 203.875 243.68 203.891 243.684 203.905L243.667 203.95C243.599 204.13 243.592 204.42 243.585 204.62C243.569 205.003 243.923 205.494 244.312 205.562C244.492 205.593 244.66 205.62 244.844 205.61C245.031 205.596 245.215 205.562 245.399 205.524C245.962 205.415 246.511 205.248 247.073 205.129C247.619 205.012 248.169 204.91 248.721 204.822C248.942 204.798 249.164 204.771 249.386 204.754C249.709 204.727 250.045 204.684 250.372 204.698C251.018 204.833 251.635 205.106 252.273 205.275C252.484 205.33 252.696 205.378 252.918 205.381C253.432 205.395 253.903 205.081 254.138 204.635C254.292 204.345 254.391 203.984 254.346 203.656C254.312 203.373 254.316 203.281 254.179 203.029C254.063 202.81 253.903 202.678 253.706 202.544C253.605 202.479 253.493 202.435 253.375 202.414C253.548 201.837 253.327 201.148 252.772 200.854C252.468 200.691 252.127 200.609 251.782 200.614C251.561 200.614 251.339 200.621 251.117 200.632" fill="black"/>
</svg>
