<svg width="500" height="600" xmlns="http://www.w3.org/2000/svg" xmlns:xlink="http://www.w3.org/1999/xlink"><defs><path id="a" d="M0 .454h182.161v197.653H0z"/></defs><g fill="none" fill-rule="evenodd"><path d="M278.072 214.538l-8.738 1.088c-2.29.284-4.975.756-7.156-.253-.094-.044-.187-.073-.281-.104l-.226-.474c-.467-.975-1.86-1.232-2.737-.718-.997.583-1.185 1.758-.717 2.736 1.148 2.402 2.159 4.956 3.5 7.255 1.279 2.189 3.675 3.35 6.19 3.093 2.712-.276 4.908-1.884 6.856-3.68 1.914-1.761 3.585-3.777 5.037-5.933.786-1.17-.234-3.196-1.728-3.01" fill="#FEFEFE"/><path d="M283.887 217.966c-.492-.797-1.214-1.326-2.082-1.65-1.472-.551-3.246-.125-4.372.943a2.89 2.89 0 00-.759 1.246c-.584-.014-1.146.168-1.596.592-.455.428-.692 1.006-.725 1.625-.059 1.086.692 1.936 1.637 2.336.5.21 1.021.377 1.55.5a7.691 7.691 0 001.554.2c.815.224 1.7.27 2.522.063 1.705-.432 2.77-2.013 2.83-3.72a3.967 3.967 0 00-.559-2.135m-19.03-41.374c0 14.16-6.524 25.64-14.572 25.64-8.048 0-14.573-11.48-14.573-25.64s6.525-25.64 14.573-25.64 14.572 11.48 14.572 25.64m45.708-4.156c0 11.553-5.752 20.92-12.846 20.92s-12.845-9.367-12.845-20.92c0-11.554 5.75-20.92 12.845-20.92 7.094 0 12.846 9.366 12.846 20.92" fill="#FEFEFE"/><path d="M209.277 161.571a5.245 5.245 0 00-.381-1.148 7.674 7.674 0 00-.363-.843c-1.041-2.063-3.045-3.387-5.316-3.66-2.126-.257-4.368.482-5.914 1.968-1.524 1.465-2.18 3.567-2.255 5.642-1.05 2.028-1.323 4.442-.52 6.66.139.381.388.683.703.874.135 4.16 1.525 8.281 4.068 11.597.984 1.283 2.15 2.718 3.769 3.186 1.2.348 2.627-.047 3.438-.997.54-.229.818-.763.84-1.312.486-.187.862-.613.84-1.32-.1-3.45-.201-6.91.096-10.353.166-1.914.474-3.84.38-5.733.006-.01.013-.019.018-.03a7.391 7.391 0 00.66-2.637 5.995 5.995 0 00-.063-1.894m126.908-2.754a5.268 5.268 0 00-.227 1.21l-.205-1.524c.117.132.259.242.432.314m7.822-.967c-1.277-4.025-5.72-7.312-9.764-4.582-2.2 1.485-3.25 4.006-2.857 6.61.241 1.595.824 3.148 1.295 4.69l.332 1.087c.02 1.457.107 2.91.245 4.358a1.516 1.516 0 00-.079.505l.128 9.105c.028 1.995-.253 4.94 2.088 5.8 2.609.956 4.217-1.657 4.641-3.815.54-2.754.875-5.545 1.429-8.297.573-2.842 1.579-5.528 2.32-8.32.61-2.307.958-4.82.222-7.14" fill="#E4C3A2"/><path d="M309.802 176.005c-.212 1.344-.524 2.827-1.305 3.98a23.597 23.597 0 01-.71 1.526c-1.38 2.688-3.372 5.267-5.945 6.906-2.688 1.713-6.079 1.85-8.666-.142a2.66 2.66 0 01-.845-1.073c-1.566-.845-2.778-2.197-3.593-3.796a16.929 16.929 0 01-1.788-2.84l-.039-.016c-3.016-1.721-3.165-5.936-2.829-8.978.234-2.106.634-4.466 1.524-6.526-.089-1.576.408-3.164 1.154-4.598.02-.07.054-.135.074-.205-.029-.072-.063-.142-.083-.214-.157-.57-.019-1.036.203-1.553.336-.783.794-1.492 1.32-2.15a25.24 25.24 0 011.132-1.683c.332-.445.676-.755 1.207-.927.273-.09.56-.093.838-.044 1.465-.811 3.101-1.317 4.756-1.407.15-.01.293.004.431.032 1.943-.136 3.913.28 5.62 1.24 3.04 1.712 4.623 4.816 5.53 8.128.288.252.513.586.635.97.972 3.08 1.84 6.167 1.758 9.428a29.967 29.967 0 01-.379 3.942m-25.78 44.4c-.095.15-.208.28-.328.4.004.042.013.086.013.126 0 .413-.192 1.02-.534 1.29a5.533 5.533 0 01-1.068.684c-.02.02-.037.05-.06.068-.526.409-1.069.735-1.733.874-.717.15-1.334.143-2.05.04a3.75 3.75 0 01-1.285-.446c-.29.017-.576.029-.856.035-1.923.038-3.843-.094-5.765-.135a32.677 32.677 0 00-2.169.018c-.329.25-.662.474-1.026.679-.386.219-.783.422-1.19.602-.496.219-1.024.47-1.566.566-.507.088-.86.122-1.362.017a2.285 2.285 0 01-.59-.234 2.092 2.092 0 01-.745-.728 2.187 2.187 0 01-.318-1.211c.023-.553.183-.943.41-1.442a1.27 1.27 0 01.376-.456c.26-1.702 1.066-3.294 2.9-3.778.162-.043.325-.066.488-.091.027-.061.05-.126.087-.185.115-.212.271-.384.47-.512.176-.161.383-.27.62-.327.365-.09.734-.143 1.108-.182.393-.042.792.014 1.178.088.31.087.578.243.805.469l.285.37c.136.233.203.487.227.752.071.007.143.016.215.02.148.008.297.004.446.008a.798.798 0 00.121-.011 48.402 48.402 0 001.948-.58c1.618-.526 3.241-1.132 4.921-1.426.776-.136 1.607-.257 2.384-.043.206.056.438.17.618.249-.442-.194.463.207.542.242.287.128.57.273.845.426.722.073 1.391.512 1.544 1.333.481.707.645 1.554.094 2.43m-38.784-30.971a4.98 4.98 0 00-1.016-.377 65.62 65.62 0 01-2.015-2.832 3.946 3.946 0 00-.698-1.386 28.461 28.461 0 01-1.528-2.193 71.573 71.573 0 01-1.58-2.845 4.982 4.982 0 00-.64-.946c-1.593-4.753-.624-10.188.814-15.13.395-1.357.166-2.512-.41-3.42a50.278 50.278 0 014.954-6.211c3.008-1.856 6.67-2.602 10.371-2.834.19.107.387.209.601.296 2.9 1.18 5.308 3.003 7.271 5.302.052.232.118.469.214.715 2.588 6.655 3.303 13.666 1.934 20.439-1.229.375-2.242 1.349-2.563 3.065-1.398 7.458-8.507 11.94-15.709 8.357m87.37-5.621c.01-.08.035-.15.042-.232.527-6.638.174-13.146-.827-19.723-.172-1.137-.664-1.94-1.319-2.47a159.17 159.17 0 01.313-13.511c.382-.207.766-.414 1.138-.644 4.813-2.983.583-10.506-4.236-7.942-1.745-.226-3.699.458-4.774 2.035-3.723.888-7.677.26-10.79-2.424-3.308-2.851-5.517-8.017-3.818-12.205 3.497-2.264 1.04-9.001-3.997-8.054-6.189 1.16-11.672-2.502-14.12-8.035-1.675-3.784-7.156-2.266-8.226 1.074-.837 2.614-4.354.285-5.385-.58-3.448-2.9-8.115.349-7.855 3.688-1.645 3.564-4.833 6.132-8.85 6.62-4.32.527-8.305-3.215-12.477-1.785-3.595 1.233-3.726 4.945-5.61 7.672-2.343 3.389-6.798 5.512-10.912 4.943-2.339-.322-4.917.532-5.537 3.144-.337 1.427-4.776 11.849-5.868 10.513-3.142-3.844-8.237.304-7.344 4.37a4.84 4.84 0 00-.442 1.552c-.339 3.24-.39 6.42-.335 9.607-1.788 6.639-3.152 12.395-2.062 19.484.153.999.33 1.985.518 2.963-.613 3.242-.336 6.656.482 10.045.014.109.027.217.048.328 1.435 7.22 3.483 14.752 9.11 19.899a65.55 65.55 0 002.307 2.007c.33.764.913 1.465 1.811 2.007l2.037 1.23c2.48 3.735 6.024 5.988 10.118 7.787.632.862 1.601 1.475 2.907 1.613 3.48 2.987 7.853 5.167 12.5 6.837.292.224.593.394.897.539.2.178.416.349.663.505 2.796 1.77 5.983 3.606 9.311 4.889-.93.572-1.662 1.445-1.958 2.565-1.227 4.628.686 9.12 4.514 11.832 1.455 1.03 3.69.659 4.998-.352.081-.062.152-.136.228-.203 2.794-1.411 4.113-5.354 3.877-8.527a.413.413 0 00-.037.005 13.96 13.96 0 00-.123-1.201c-.163-1.09-.89-1.953-1.822-2.518 1.253-.146 2.45-.477 3.605-.922.13.01.247.039.384.039.138 0 .262-.022.394-.033.112.008.21.033.327.033 1.404 0 2.461-.535 3.185-1.336 14.343-6.6 27.547-16.337 39.621-26.441 5.738-4.803 9.005-10.664 11.291-17.707.832-2.56 1.618-5.242 1.82-7.852.556-.893.82-2.005.585-3.287-.112-.613-.203-1.228-.307-1.841" fill="#E4C3A2"/><path d="M266.124 253.321c.244.044.065.02-.033-.035.012.012.024.023.033.035m-.009.001l.01.001-.001-.002c-.005 0-.006 0-.011-.002l.002.003m-.027-.036h.002l-.014-.012c.003.004.01.008.012.012" fill="#C3996B"/><path d="M266.49 253.402c-.084-.017-.168-.032-.251-.055-.018-.005-.065-.014-.114-.024a.079.079 0 01.013.03c-.001-.006-.015-.02-.023-.03-.103-.022-.197-.038-.002-.004-.008-.012-.01-.018-.024-.033h-.002c-.252-.145-.106-.087-.01-.012-.092-.092-.255-.225-.294-.262-.035-.054-.073-.108-.106-.163-.018-.029-.121-.185-.196-.322a1.89 1.89 0 00-.027-.097c-.033-.107-.073-.213-.105-.322a6.272 6.272 0 01-.145-.594l-.024-.108-.003-.097c-.113-2.264.495-4.486-.175-6.719-.281-.935-1.272-1.625-2.252-1.438a1.808 1.808 0 00-.58-.567c-.428-.25-1.06-.358-1.541-.202-.955.31-1.79 1.411-1.397 2.46a19.91 19.91 0 01.988 3.711c.034.827.094 1.654.193 2.476.066.55.18 1.008.586 1.414.11.11.246.205.39.292.446 2.053 1.873 4.108 4.039 4.523 1.024.197 2.207-.286 2.459-1.397.225-.986-.297-2.25-1.396-2.46m-56.733-91.352a1.728 1.728 0 00-.267-.92 10.389 10.389 0 00-.785-1.037 13.986 13.986 0 00-2.422-2.857c-.396-.355-.87-.586-1.414-.586-.353 0-.754.116-1.077.316-.056-.014-.11-.034-.167-.047-2.826-.64-5.683.14-7.229 2.719-1.277 2.127-1.776 4.867-1.776 7.316 0 2.635.646 5.197 1.813 7.55.48.968 1.85 1.237 2.736.718.985-.576 1.2-1.765.718-2.736-1.526-3.078-1.742-6.993-.397-10.14.28-.653.572-1.192 1.164-1.483.453-.221 1.255-.223 1.797-.11a5.662 5.662 0 013.024 1.7c.25.409.48.829.681 1.265.2.43.755.799 1.196.92.478.13 1.116.072 1.541-.202.427-.276.802-.686.92-1.196.022-.176.047-.354.07-.532a2.002 2.002 0 00-.126-.658" fill="#C3996B"/><path d="M309.246 124.565c-.03-.502-.199-1.016-.579-1.363-.39-.36-.873-.588-1.415-.586a14.693 14.693 0 00-4.247.635 2.14 2.14 0 00-1.042.71 29.36 29.36 0 01-4.163-3.01c-3.056-2.645-5.68-5.738-8.197-8.884-.477-.596-1.337-.694-2.051-.456-.77-.409-1.641-.26-2.357.326-.024.021-.035.028-.051.041a8.023 8.023 0 01-.177.128 9.013 9.013 0 01-1.163.678c-.081.04-.164.076-.245.115l-.004.001c-.43.142-.848.295-1.29.398a13.24 13.24 0 01-.623.125l-.017.003c-.106.018-.218.024-.32.032-.423.033-.848.04-1.272.02-.203-.012-.404-.033-.605-.052-.017-.003-.025-.006-.047-.009l-.312-.06a9.217 9.217 0 01-1.41-.413c-.055-.024-.121-.053-.14-.06a9.329 9.329 0 01-.634-.333c-.616-.995-2.031-1.538-3.107-.467-1.612 1.605-2.407 3.656-3.552 5.574-1.2 2.011-3.221 3.337-5.155 4.58-4.004 2.572-8.678 3.386-13.045 1.196.008-.09.026-.18.033-.272.083-1.079-.98-2-2-2-1.152 0-1.917.92-2 2-.325 4.207-1.996 8.393-4.742 11.61-1.208 1.417-2.667 2.833-4.63 2.938-1.578.084-4.026.07-5.244-1.127-.226-.633-.791-1.18-1.395-1.346-1.15-.316-2.046.394-2.46 1.397-1.486 3.597-3.202 7.29-5.851 10.191-.31.34-.636.656-.97.965-.352-.52-.94-.845-1.644-.894-.027-.002-.056.002-.083.001-.491-.554-1.242-.847-2.01-.623-.59.171-1.187.297-1.792.393a14.56 14.56 0 01-2.325.062 1.9 1.9 0 00-1.608-.043 2.007 2.007 0 00-1.164 1.371 1.664 1.664 0 00-.112.627c.017.387.116.783.329 1.11.02.308.045.616.124.917.105.393.313.746.576 1.052-.03.001-.057.005-.085.005-1.721.02-2.288 1.812-1.705 2.99a1.404 1.404 0 00-.233.571 100.79 100.79 0 00-.965 19.07c-.99.16-1.676.936-1.733 1.965a18.654 18.654 0 00.698 6.088 2.2 2.2 0 00-.673 1.47c-.196 3.194.35 6.266 1.319 9.23-.735.453-1.22 1.392-.918 2.24a46.8 46.8 0 006.957 12.83c1.81 6.008 6.86 10.736 11.386 14.816 5.256 4.738 11.177 8.881 18.076 10.78.69.19 1.272.037 1.697-.3.033.1.092.193.192.258l3.624 2.341c.457.275.86-.253.689-.642.343.12.684.246 1.039.341a.537.537 0 00.234.01c.519.323 1.048.63 1.574.944-.727-.328-1.456-.654-2.183-.98-.574-.259-1.082.55-.505.863a24.569 24.569 0 003.314 1.488l6.567 2.95c.583.261 1.092-.6.505-.864-.967-.433-1.934-.868-2.901-1.303.158-.216.165-.528-.143-.688a81.686 81.686 0 01-7.157-4.212l-3.848-2.668a.424.424 0 00-.331-.076 2.047 2.047 0 00-.826-1.117l-9.861-6.695a1.968 1.968 0 00-.515-.96 98.81 98.81 0 01-19.888-30.558c-.003-.016-.002-.03-.006-.047-2.73-11.604-3.293-23.709-1.56-35.51.037-.253.039-.504.009-.747a18.664 18.664 0 0011.466-5.78c2.536-2.698 4.317-5.928 5.83-9.277 1.802.938 4.063 1.146 6.006 1.134 2.939-.017 5.395-1.373 7.372-3.483 2.837-3.026 4.775-6.759 5.773-10.747 4.802 1.93 10.11 1.492 14.658-1.139 2.306-1.334 4.81-2.959 6.513-5.037 1.228-1.498 1.912-3.385 2.964-4.994 3.77 1.833 8.26 1.406 11.693-.93 2.929 3.63 6.03 7.117 9.747 9.966 3.238 2.481 9.817 6.822 12.84 1.721.595-1.008.205-1.968-.518-2.515m34.265 31.731a6.676 6.676 0 00-2.198-2.834 1.998 1.998 0 00-.517-.896 142.87 142.87 0 00-.405-.314 1.989 1.989 0 00-1.009-.272h-1.054a1.5 1.5 0 00-.77.17c-.073.025-.139.065-.206.099-.144.007-.283-.004-.429.014-2.673.314-4.984 2.469-5.36 5.167-.052.368-.013.727.076 1.065a2.264 2.264 0 00-.205 1.396c-.977-4.021-2.122-8.006-3.276-11.97a2.038 2.038 0 00-.323-.647c-.006-.017-.005-.035-.01-.052.214-.324.344-.704.36-1.113.021-.578-.146-1.096-.394-1.606-.115-.238-.298-.448-.463-.65-.178-.217-.418-.371-.639-.54-.037-.024-.078-.035-.116-.055a1.49 1.49 0 00-.157-.58 1.492 1.492 0 00-.413-.644 1.501 1.501 0 00-.643-.413 1.525 1.525 0 00-.77-.173c-.518.024-1.055.194-1.415.586-.34.37-.632.893-.586 1.414.022.249.054.5.098.749-1.657-1.175-3.074-2.73-4.365-4.303-2.345-2.856-4.579-5.977-5.429-9.628-.583-2.507-4.44-1.446-3.857 1.063 1.01 4.336 3.68 8.01 6.456 11.394 2.397 2.92 5.308 5.66 8.968 6.809 2.78 9.556 5.533 19.233 5.68 29.255.001.028.008.05.01.077-.216.436-.28.957-.193 1.477 1.103 6.588.138 13.526-2.702 19.57a2.578 2.578 0 00-.176.535l-4.524 9.659c-.228.485.368 1.043.785.605a19.097 19.097 0 002.166-2.758c.198.239.61.289.815-.044.285-.458.544-.928.791-1.407a.474.474 0 00.155-.232l.065-.222c.498-1.027.92-2.091 1.245-3.187.814.154 1.767-.154 2.132-.93 3.26-6.94 4.334-14.565 3.173-22.126.162-.278.264-.612.258-1.017-.093-6.338-1.173-12.548-2.652-18.676.207.762.811 1.399 1.836 1.399.25 0 .464-.047.665-.114.031.009.061.027.091.035 1.062.24 2.16-.32 2.461-1.398.04-.144.096-.284.147-.424.141-.295.307-.577.495-.844.225-.266.473-.512.74-.737.278-.195.571-.365.88-.511.244-.088.493-.162.747-.217.48.77.64 1.812.694 2.703.306 4.9-.003 9.904-.45 14.785-.098 1.077.99 2 2 2 1.164 0 1.902-.92 2-2 .294-3.208.47-6.426.511-9.646.036-2.866.31-6.136-.794-8.846" fill="#C3996B"/><path d="M264.094 184.06c-.826.001-1.648.037-2.469.09.284-.859-.29-2.04-1.385-2.109a40.55 40.55 0 00-17.5 2.782c-.51.203-.81.584-.94 1.006a1.236 1.236 0 00-.294.476c-1.167.42-2.32.888-3.459 1.414-.789.364-.905 1.104-.638 1.73-.829.94.214 2.777 1.62 2.405a179.66 179.66 0 014.043-1.016c.622-.055 1.25-.09 1.876-.109-.08.984 1.042 2.13 2.288 1.588 3.322-1.444 6.838-2.383 10.421-2.887 1.103-.19 1.291-1.2.9-1.978a39.74 39.74 0 015.537-.393c1.931-.006 1.935-3.006 0-3m43.275-.592a1.282 1.282 0 00-.697-.391c-6.52-1.376-13.298-2.272-19.837-.52-.785.21-1.117.965-1.045 1.658-1.078.68-.624 2.928.872 2.768.226-.024.45-.037.678-.054-.617.84-.096 2.429 1.164 2.457.172.757.847 1.415 1.819 1.174a40.869 40.869 0 013.99-.76c2.815.874 5.71 1.338 8.75.897 1.15-.167 1.339-1.655.71-2.438a1.87 1.87 0 00.06-.405c.423-.278.656-.813.667-1.34.087.017.175.033.27.037a5.818 5.818 0 002.239-.348c1.19-.441 1.468-2.133.36-2.735" fill="#E4C3A2"/><path d="M338.625 152.126a.053.053 0 01-.018-.004.032.032 0 00.017.004" fill="#231F20"/><g transform="translate(171 60.546)"><mask id="b" fill="#fff"><use xlink:href="#a"/></mask><path d="M172.495 104.535a166.134 166.134 0 01-.88 4.533 4.565 4.565 0 00-.15.715c-.653 3.113-1.363 6.22-2.055 9.314-.385 1.707-.863 4-2.493 4.992-.929.565-3.584.36-3.358-1.235a1.023 1.023 0 00-.251-.841c.132-8.737-1.17-17.39-2.821-26.02.567-.086 1.087-.41 1.442-.944a9.54 9.54 0 01.213-.313 10.6 10.6 0 01.077-.102l.121-.148c.065-.076.133-.151.2-.226.325-.356.685-.663 1.042-.984.005-.005.004-.005.007-.01.002 0 .004 0 .006-.002.082-.058.162-.118.245-.174a10.696 10.696 0 011.508-.865c.044-.021.09-.043.136-.062.135-.061.093-.043-.13.052.09-.113.511-.195.64-.238a10.789 10.789 0 011.315-.347c.099-.02.198-.036.298-.054-.004-.001-.008 0-.01-.002.001 0 .007 0 .01.002.024-.004.048-.01.073-.013.287-.05.034.019-.055.017.064.008.25-.01.42-.03a5.22 5.22 0 011.663.884c3.563 2.9 3.516 7.99 2.787 12.1m-11.213 19.763a72.355 72.355 0 01-.425 4.813 4.567 4.567 0 00-.237 1.915 61.142 61.142 0 01-.956 4.947 47.123 47.123 0 01-5.692 11.789.615.615 0 00-.026-.027c-2.853 3.262-6.216 6.097-9.69 8.699-6.52 4.885-13.28 9.474-20.046 14.006a664.006 664.006 0 01-12.111 7.92.987.987 0 00-.41.5c-1.324.828-2.691 1.579-4.147 2.168-5.438 2.197-11.213 1.196-16.55-.778-5.017-1.856-9.825-4.38-14.589-6.801-8.522-4.33-17.004-9.164-23.92-15.85-7.166-6.93-11.758-15.658-13.307-25.516-1.608-10.22-.255-20.7 1.145-30.86.669-4.842 1.372-9.704 1.9-14.58 4.798 2.555 9.913 3.123 13.707-2.78 1.774-2.76 2.925-5.86 3.617-9.093 2.743 1.8 5.757 2.758 9.073 1.854 3.219-.877 5.773-3.393 7.232-6.317 1.26-2.527 1.004-5.807 2.309-8.193 3.06 1.719 6.442 2.798 9.908 2.926 7.94.293 12.318-5.733 14.79-12.523 3.907 2.043 8.844 2.068 12.69-.2.25.629.537 1.242.86 1.84 1.492 4.483 5.444 8.04 10.014 9.386 2.989.88 6.141.729 8.984-.557.065-.03.133-.066.197-.097-.042 5.918 1.22 11.675 5.624 16.26 3.934 4.096 9.6 5.728 14.802 4.666.016.08.03.163.047.244.004.126.01.25.016.377.028.883.238 1.72.564 2.505.358 1.766.719 3.532 1.073 5.295 2.121 10.532 4.112 21.27 3.554 32.062m-58.766 66.836c-1.555 2.528-3.877 5.22-7.122 4.957-3.122-.254-4.815-3.378-6.049-5.964a.95.95 0 00.129-.48v-7.84c3.34 1.313 6.8 2.298 10.397 2.48.85.043 1.677.008 2.493-.062v6.416c0 .18.064.344.152.493m-66-67.791a.416.416 0 00-.131.089c-.085.093-.157.222-.148.353.003.038 0 .075-.003.113a.806.806 0 01-.029.107.74.74 0 01-.05.086c-.038.039-.075.078-.114.116a.522.522 0 00-.137.31l-.013-.002a.939.939 0 00-.91.018c-1.873 1.012-3.694-.704-4.836-2.065-1.343-1.603-2.268-3.577-3.218-5.425-1.98-3.86-3.703-8.162-3.096-12.583.476-3.46 2.47-7.194 6.102-8.083 2.962-.725 6.71.515 7.661 3.644a.92.92 0 00.762.67c-1.065 7.533-1.97 15.074-1.84 22.652M99.186 3.83a24.903 24.903 0 00-4.565-1.323c1.599.136 3.145.598 4.565 1.323m82.837 96.855c-.151-1.146-.475-2.216-.779-3.327-.394-1.438-.102-2.614.218-4.03 1.046-4.628-.444-9.534-3.867-12.812 3.084-7.248 1.282-16.171-4.569-21.53.052-1.364-.36-2.57-1.01-3.674a5.73 5.73 0 00-1.974-2.53 37.213 37.213 0 00-.88-.896 19.251 19.251 0 00-.477-.448c-.346-2.881-.71-5.818-1.382-8.6a23.75 23.75 0 00-.135-1.3c-.442-3.26-1.495-7.136-3.893-9.54-1.633-1.641-4.282-2.351-6.293-1.255-1.059-2.558-2.552-4.985-4.433-7.032-.977-1.535-2.234-2.88-3.873-3.892-2.35-1.45-5.076-1.596-7.518-.836-.484-3.513-2.808-6.705-6.26-7.962-3.984-1.452-8.647.266-11.084 3.63-2.257-2.875-4.824-5.711-8.375-6.871-2.741-.894-6.003-.628-8.306 1.126-.103-.098-.203-.202-.307-.296-.075-.07-.156-.127-.232-.194-2.468-4.545-7.215-7.731-12.47-7.95C88.487.229 83.22 3.529 80.549 8.374c-3.759-3.515-9.81-4.216-14.34-1.751-.593.323-1.148.709-1.67 1.136-.584.475-1.104 1.22-1.773 1.566-.938.483-1.831-.3-2.673-.683a10.732 10.732 0 00-2.454-.792c-3.222-.603-6.622.16-9.172 2.247-2.175 1.778-3.54 4.399-3.91 7.159a18.837 18.837 0 00-2.174 3.418c-4.202-4.243-12.313-3.768-15.45 1.63-.909 1.564-1.334 3.357-2.235 4.923-.398.69-.893 1.346-1.617 1.722-1.197.624-2.636.383-3.93.346-3.971-.116-7.005 2.28-8.275 6.003-1.252 3.664-.191 7.387 1.492 10.75.323.812.71 1.598 1.168 2.352-5.72 2.089-8.209 10.013-5.28 15.21.043.473.107.942.197 1.405-4.894 1.737-8.644 6.51-8.445 11.87.2 5.425 4.308 10.075 9.435 11.404-4.89 5.755-2.98 14.634.671 20.69 1.198 1.987 2.711 3.676 4.205 5.439 1.807 2.133 2.71 4.359 3.41 7.038 1.163 4.446 3.235 8.324 6.837 11.276 3.826 3.137 8.671 4.915 13.64 4.694.04-.002.066-.021.103-.026 1.663 6.25 4.509 12.105 8.717 17.238 6.204 7.568 14.553 13.092 23.062 17.748 4.393 2.402 8.889 4.618 13.406 6.775 1.338.639 2.697 1.269 4.075 1.86a1 1 0 00-.096.437v7.819c-.267.288-.397.709-.188 1.156 1.623 3.447 3.856 7.358 8.11 7.657 4.175.293 7.216-3.145 9.13-6.414.265-.453.127-.88-.162-1.162v-6.568c3.466-.671 6.651-2.246 9.68-4.26-.05-.035-.09-.083-.138-.121a659.916 659.916 0 0020.876-13.926c6.284-4.371 12.823-8.671 18.317-14.043.388-.38.743-.793 1.117-1.187.242-.044.474-.173.65-.42.23-.322.446-.652.668-.98.025-.028.052-.052.076-.08l-.016-.007a48.833 48.833 0 005.45-10.787c.054.022.11.033.163.056.155-.593.285-1.19.42-1.787.053-.166.112-.33.162-.496a.958.958 0 00.032-.33l.023-.094c.097.042.195.084.315.096 4.149.398 7.979-1.532 10.934-4.324 3.093-2.926 6.014-7.15 6.587-11.448.132-1.01.114-2.038-.125-3.033-.284-1.172-1.219-2.265-.909-3.506.255-1.018 1.083-1.918 1.58-2.828a16.014 16.014 0 001.332-3.27 16.11 16.11 0 00.466-6.486" fill="#231F20" mask="url(#b)"/></g><path d="M262.837 161.36c-.742-2.826-2.045-5.57-4.304-7.484a12.683 12.683 0 00-8.305-2.98c-2.717.038-5.692 1-7.382 3.146-.334-.194-.75-.184-1.07.222-6.424 8.173-8.069 20.795-2.359 29.8.216-.092.42-.192.657-.265.431-.132.866-.238 1.298-.353-2.386-3.564-3.42-8.097-3.428-12.306-.008-5.273 1.655-10.532 4.77-14.796.347.01.686.048 1.015.116.025-.045.052-.086.072-.139 1.253-3.469 6.331-3.87 9.348-3.06 2.882.775 5.053 2.671 6.427 5.172-.218.277-.284.655-.026 1.045a17.973 17.973 0 011.418 2.654c.122.492.232.988.331 1.486l.22-.076c1.1 3.2 1.345 6.668.813 10.058a26.455 26.455 0 01-2.344 7.447 37.752 37.752 0 00-18.713 2.666c-1.169.49-.656 2.425.532 1.928a36.518 36.518 0 0118.91-2.523.901.901 0 00.334-.025c.032.043.074.08.106.122.038-.068.07-.14.106-.209.268-.16.408-.46.4-.79a29.335 29.335 0 002.127-5.792c1.258-4.988 1.096-10.366-.953-15.064m24.339 18.989a26.829 26.829 0 01-2.002-6.748c-.532-3.391-.287-6.86.815-10.06l.218.078c.1-.5.21-.995.331-1.486.402-.914.86-1.807 1.418-2.655.258-.39.193-.769-.025-1.045 1.373-2.5 3.544-4.397 6.427-5.173 3.016-.81 8.094-.408 9.347 3.061.02.052.048.093.073.138a5.928 5.928 0 011.015-.115c3.114 4.264 4.778 9.523 4.77 14.796-.005 2.528-.395 5.168-1.213 7.65-.5.118-.932.564-.77 1.206.128.503.05.936-.2 1.321-6.596-1.775-13.47-2.088-20.204-.969m18.554-26.084c-.32-.406-.735-.416-1.07-.223-1.69-2.145-4.664-3.107-7.38-3.146a12.688 12.688 0 00-8.307 2.98c-2.259 1.914-3.562 4.66-4.304 7.485-2.049 4.698-2.21 10.076-.953 15.064a30.377 30.377 0 001.46 4.361c.221.003.442.012.664.017-.457.608.07 1.781 1.072 1.598a45.325 45.325 0 0114.011-.372c1.13.148 2.254.345 3.37.581 1.048.221 2.247.755 3.312.811 1.406.076 1.972-1.65 1.996-2.996l.341-.025c3.346-8.536 1.38-19.02-4.212-26.135m-24.808 39.846c-.085-.533-.75-.83-1.23-.698-.569.156-.784.695-.699 1.23.4 2.506-1.635 5.202-4.135 5.558-2.625.374-5.324-1.877-5.506-4.499-.09-1.278-2.09-1.287-2 0 .207 2.96 2.394 5.537 5.258 6.306 2.89.777 5.82-.647 7.365-3.132a6.895 6.895 0 00.947-4.765" fill="#231F20"/><path d="M257.537 169.845c-.023-.101-.066-.197-.094-.297a9.416 9.416 0 00-.617-3.86 12.882 12.882 0 00-.554-1.94c-.851-2.233-2.664-4.328-5.294-3.876-1.036.178-1.925.713-2.682 1.422a7.794 7.794 0 00-2.3 1.969c-.915 1.158-1.466 2.517-1.744 3.942-.616 1.994-.64 4.192-.175 6.209.349 1.516 1.12 3.014 2.247 4.048.207.267.429.523.673.763 1.13 1.115 2.658 1.679 4.159 1.535a5.235 5.235 0 002.874-.84c2.936-1.867 4.269-5.751 3.507-9.075m44.239-7.149c-3.143-2.622-7.995-1.42-10.394 1.634a7.539 7.539 0 00-1.48 3.28c-.932.92-1.018 2.377-.688 3.708.02 1.365.347 2.725 1.029 3.92a8.012 8.012 0 001.728 2.068c.099.1.184.21.288.3a5.892 5.892 0 001.914 1.095 8.394 8.394 0 003.385.71c.082 0 .144-.029.215-.045.36-.023.724-.069 1.088-.17 1.98-.55 3.477-2.19 4.355-3.989 1.828-3.738 2.039-9.608-1.44-12.51m-49.175-23.989c-4.171 6.08-11.56 9.51-18.884 8.932-1.284-.102-1.277 1.898 0 2 8.047.635 16.058-3.286 20.611-9.922.729-1.065-1.003-2.066-1.727-1.01m59.381 7.951c-9.383.392-18.754-2.592-26.118-8.442-.997-.792-2.422.613-1.414 1.414 7.782 6.182 17.588 9.443 27.532 9.028 1.282-.053 1.289-2.054 0-2m-28.639 73.728c-.447 1.803-2.139 2.724-3.897 2.827-1.965.116-3.697-.746-5.523-1.322-1.73-.545-3.498-.686-5.162.144-1.613.805-2.979 2.704-4.882 2.82-2.27.14-2.225-3.015-1.596-4.456.72-1.643 2.271-2.918 4.09-3.034.607-.037.917-.51.95-.984.962.399 1.932 1.154 2.622 1.486 1.761.85 3.623.737 5.477.273 1.806-.451 3.604-1.241 5.505-1.007 1.71.21 2.85 1.507 2.416 3.253m1.23-3.425c-1.27-1.67-3.46-2.023-5.429-1.792-3.019.356-5.912 2.294-8.848.617-2.016-1.151-4.618-2.671-6.63-.59a.924.924 0 00-.193 1.063c-2.542 1.463-4.173 4.489-3.404 7.484.57 2.218 2.47 3.52 4.74 2.975 2.5-.602 4.094-3.461 6.793-3.291 2.533.159 4.724 1.762 7.317 1.798 2.123.03 4.34-.762 5.57-2.57 1.138-1.668 1.341-4.036.083-5.694" fill="#231F20"/></g></svg>