<?xml version="1.0" encoding="UTF-8"?>
<svg width="500px" height="600px" viewBox="0 0 500 600" version="1.1" xmlns="http://www.w3.org/2000/svg" xmlns:xlink="http://www.w3.org/1999/xlink">
    <title>cunning</title>
    <defs>
        <polygon id="path-1" points="0.000258924701 0.454 182.161318 0.454 182.161318 198.107401 0.000258924701 198.107401"></polygon>
    </defs>
    <g id="cunning" stroke="none" stroke-width="1" fill="none" fill-rule="evenodd">
        <g id="face" transform="translate(169.000000, 58.000000)">
            <g id="fill" transform="translate(23.062088, 48.386245)">
                <path d="M69.7952123,66.2054548 C69.7952123,80.3664548 63.2712123,91.8464548 55.2232123,91.8464548 C47.1742123,91.8464548 40.6492123,80.3664548 40.6492123,66.2054548 C40.6492123,52.0454548 47.1742123,40.5654548 55.2232123,40.5654548 C63.2712123,40.5654548 69.7952123,52.0454548 69.7952123,66.2054548" id="Fill-1" fill="#FEFEFE"></path>
                <path d="M116.502212,62.0501548 C116.502212,73.6031548 110.751212,82.9691548 103.656212,82.9691548 C96.5632123,82.9691548 90.8112123,73.6031548 90.8112123,62.0501548 C90.8112123,50.4961548 96.5632123,41.1301548 103.656212,41.1301548 C110.751212,41.1301548 116.502212,50.4961548 116.502212,62.0501548" id="Fill-3" fill="#FEFEFE"></path>
                <path d="M15.2141123,53.1848548 C15.1401123,52.7908548 15.0001123,52.4088548 14.8341123,52.0368548 C14.7301123,51.7518548 14.6101123,51.4698548 14.4711123,51.1938548 C13.4301123,49.1308548 11.4261123,47.8068548 9.15511232,47.5338548 C7.02811232,47.2768548 4.78611232,48.0158548 3.24011232,49.5018548 C1.71611232,50.9668548 1.06211232,53.0688548 0.985112318,55.1438548 C-0.0628876821,57.1718548 -0.336887682,59.5858548 0.466112318,61.8028548 C0.605112318,62.1848548 0.854112318,62.4868548 1.16911232,62.6778548 C1.30411232,66.8368548 2.69311232,70.9588548 5.23611232,74.2748548 C6.22111232,75.5578548 7.38711232,76.9928548 9.00511232,77.4608548 C10.2061123,77.8088548 11.6331123,77.4138548 12.4431123,76.4638548 C12.9831123,76.2348548 13.2621123,75.7008548 13.2831123,75.1518548 C13.7691123,74.9648548 14.1451123,74.5388548 14.1241123,73.8308548 C14.0241123,70.3808548 13.9221123,66.9208548 14.2201123,63.4788548 C14.3851123,61.5648548 14.6931123,59.6378548 14.6001123,57.7458548 C14.6051123,57.7348548 14.6131123,57.7268548 14.6181123,57.7158548 C15.0091123,56.8638548 15.2231123,55.9728548 15.2791123,55.0788548 C15.3581123,54.4608548 15.3381123,53.8318548 15.2141123,53.1848548" id="Fill-5" fill="#E4C3A2"></path>
                <path d="M142.122312,50.4309548 C142.001312,50.8019548 141.931312,51.2119548 141.896312,51.6399548 C141.827312,51.1319548 141.759312,50.6239548 141.690312,50.1169548 C141.808312,50.2489548 141.950312,50.3589548 142.122312,50.4309548 M149.944312,49.4639548 C148.668312,45.4389548 144.225312,42.1519548 140.181312,44.8819548 C137.980312,46.3669548 136.930312,48.8879548 137.323312,51.4909548 C137.565312,53.0869548 138.148312,54.6399548 138.618312,56.1809548 C138.729312,56.5429548 138.840312,56.9069548 138.951312,57.2689548 C138.970312,58.7259548 139.057312,60.1789548 139.196312,61.6269548 C139.145312,61.7789548 139.114312,61.9449548 139.117312,62.1319548 C139.160312,65.1659548 139.202312,68.2019548 139.245312,71.2369548 C139.272312,73.2319548 138.991312,76.1769548 141.333312,77.0359548 C143.941312,77.9929548 145.550312,75.3799548 145.973312,73.2219548 C146.513312,70.4679548 146.849312,67.6769548 147.403312,64.9249548 C147.976312,62.0829548 148.981312,59.3969548 149.722312,56.6039548 C150.333312,54.2979548 150.681312,51.7849548 149.944312,49.4639548" id="Fill-7" fill="#E4C3A2"></path>
                <path d="M115.740512,67.6184548 C115.528512,68.9624548 115.215512,70.4454548 114.434512,71.5984548 C114.214512,72.1174548 113.978512,72.6294548 113.724512,73.1244548 C112.344512,75.8124548 110.352512,78.3914548 107.780512,80.0304548 C105.092512,81.7434548 101.700512,81.8804548 99.1145123,79.8884548 C98.7335123,79.5954548 98.4375123,79.2234548 98.2685123,78.8154548 C96.7025123,77.9704548 95.4915123,76.6184548 94.6765123,75.0194548 C93.9875123,74.1394548 93.3925123,73.1844548 92.8875123,72.1794548 C92.8755123,72.1734548 92.8625123,72.1694548 92.8495123,72.1634548 C89.8335123,70.4424548 89.6845123,66.2274548 90.0205123,63.1854548 C90.2545123,61.0794548 90.6545123,58.7194548 91.5445123,56.6594548 C91.4555123,55.0834548 91.9525123,53.4954548 92.6985123,52.0614548 C92.7185123,51.9914548 92.7525123,51.9264548 92.7725123,51.8564548 C92.7435123,51.7844548 92.7095123,51.7144548 92.6895123,51.6424548 C92.5325123,51.0734548 92.6705123,50.6064548 92.8925123,50.0894548 C93.2285123,49.3064548 93.6865123,48.5974548 94.2115123,47.9404548 C94.5705123,47.3674548 94.9405123,46.8004548 95.3455123,46.2564548 C95.6765123,45.8114548 96.0205123,45.5014548 96.5515123,45.3294548 C96.8245123,45.2404548 97.1105123,45.2364548 97.3895123,45.2854548 C98.8545123,44.4744548 100.490512,43.9684548 102.145512,43.8784548 C102.295512,43.8694548 102.438512,43.8824548 102.576512,43.9104548 C104.519512,43.7744548 106.489512,44.1914548 108.195512,45.1514548 C111.235512,46.8624548 112.819512,49.9664548 113.725512,53.2784548 C114.014512,53.5304548 114.239512,53.8644548 114.361512,54.2494548 C115.333512,57.3294548 116.201512,60.4154548 116.119512,63.6764548 C116.086512,64.9974548 115.947512,66.3124548 115.740512,67.6184548 M51.1765123,81.0464548 C50.8345123,80.8754548 50.4945123,80.7534548 50.1605123,80.6694548 C49.4665123,79.7414548 48.7905123,78.8024548 48.1455123,77.8374548 C48.0205123,77.3744548 47.7985123,76.9074548 47.4475123,76.4514548 C46.8915123,75.7294548 46.3895123,75.0034548 45.9195123,74.2584548 C45.3765123,73.3254548 44.8455123,72.3814548 44.3385123,71.4134548 C44.1475123,71.0494548 43.9315123,70.7374548 43.6985123,70.4674548 C42.1065123,65.7144548 43.0755123,60.2794548 44.5135123,55.3374548 C44.9085123,53.9804548 44.6795123,52.8254548 44.1035123,51.9184548 C45.5875123,49.7194548 47.2335123,47.6594548 49.0575123,45.7064548 C52.0655123,43.8504548 55.7265123,43.1044548 59.4285123,42.8724548 C59.6185123,42.9794548 59.8155123,43.0814548 60.0295123,43.1684548 C62.9295123,44.3494548 65.3375123,46.1714548 67.3005123,48.4704548 C67.3525123,48.7024548 67.4185123,48.9394548 67.5145123,49.1854548 C70.1025123,55.8404548 70.8175123,62.8514548 69.4485123,69.6244548 C68.2205123,69.9994548 67.2065123,70.9734548 66.8855123,72.6894548 C65.4875123,80.1474548 58.3785123,84.6304548 51.1765123,81.0464548 M138.546512,75.4254548 C138.556512,75.3454548 138.581512,75.2754548 138.588512,75.1934548 C139.115512,68.5554548 138.762512,62.0474548 137.761512,55.4704548 C137.589512,54.3334548 137.097512,53.5304548 136.442512,53.0014548 C136.356512,48.5024548 136.458512,43.9974548 136.755512,39.4894548 C137.137512,39.2824548 137.521512,39.0754548 137.893512,38.8454548 C142.706512,35.8624548 138.476512,28.3394548 133.657512,30.9034548 C131.912512,30.6774548 129.958512,31.3614548 128.883512,32.9384548 C125.160512,33.8264548 121.206512,33.1984548 118.093512,30.5144548 C114.785512,27.6634548 112.576512,22.4974548 114.275512,18.3094548 C117.772512,16.0454548 115.315512,9.30845476 110.278512,10.2554548 C104.089512,11.4164548 98.6065123,7.75345476 96.1575123,2.22045476 C94.4835123,-1.56354524 89.0025123,-0.0455452445 87.9325123,3.29445476 C87.0955123,5.90845476 83.5785123,3.57945476 82.5475123,2.71445476 C79.0995123,-0.184545245 74.4325123,3.06345476 74.6925123,6.40245476 C73.0475123,9.96645476 69.8595123,12.5344548 65.8415123,13.0224548 C61.5215123,13.5494548 57.5375123,9.80745476 53.3655123,11.2374548 C49.7705123,12.4704548 49.6395123,16.1824548 47.7555123,18.9094548 C45.4125123,22.2984548 40.9575123,24.4214548 36.8435123,23.8524548 C34.5045123,23.5304548 31.9265123,24.3844548 31.3065123,26.9964548 C30.9695123,28.4234548 26.5305123,38.8454548 25.4385123,37.5094548 C22.2965123,33.6654548 17.2015123,37.8134548 18.0945123,41.8804548 C17.8795123,42.3444548 17.7135123,42.8504548 17.6525123,43.4314548 C17.3135123,46.6714548 17.2615123,49.8524548 17.3175123,53.0384548 C15.5295123,59.6774548 14.1655123,65.4334548 15.2555123,72.5224548 C15.4085123,73.5214548 15.5855123,74.5074548 15.7735123,75.4854548 C15.1605123,78.7274548 15.4375123,82.1414548 16.2555123,85.5304548 C16.2695123,85.6394548 16.2825123,85.7474548 16.3035123,85.8584548 C17.7385123,93.0784548 19.7865123,100.610455 25.4125123,105.757455 C26.1495123,106.431455 26.9225123,107.100455 27.7205123,107.764455 C28.0505123,108.528455 28.6335123,109.229455 29.5315123,109.771455 C30.2115123,110.181455 30.8895123,110.592455 31.5685123,111.002455 C34.0485123,114.736455 37.5925123,116.989455 41.6865123,118.788455 C42.3185123,119.650455 43.2875123,120.263455 44.5935123,120.401455 C48.0735123,123.388455 52.4465123,125.568455 57.0935123,127.238455 C57.3855123,127.462455 57.6865123,127.632455 57.9905123,127.777455 C58.1905123,127.955455 58.4065123,128.126455 58.6535123,128.282455 C61.4495123,130.052455 64.6365123,131.888455 67.9645123,133.171455 C67.0335123,133.743455 66.3035123,134.616455 66.0065123,135.736455 C64.7795123,140.364455 66.6925123,144.856455 70.5205123,147.568455 C71.9755123,148.598455 74.2105123,148.227455 75.5185123,147.216455 C75.5995123,147.154455 75.6705123,147.080455 75.7465123,147.013455 C78.5405123,145.602455 79.8595123,141.659455 79.6235123,138.486455 C79.6105123,138.487455 79.5985123,138.489455 79.5865123,138.491455 C79.5625123,138.091455 79.5225123,137.690455 79.4635123,137.290455 C79.3005123,136.200455 78.5735123,135.337455 77.6415123,134.772455 C78.8945123,134.626455 80.0915123,134.295455 81.2465123,133.850455 C81.3765123,133.860455 81.4935123,133.889455 81.6305123,133.889455 C81.7685123,133.889455 81.8925123,133.867455 82.0245123,133.856455 C82.1365123,133.864455 82.2345123,133.889455 82.3515123,133.889455 C83.7555123,133.889455 84.8125123,133.354455 85.5365123,132.553455 C99.8795123,125.954455 113.083512,116.216455 125.157512,106.112455 C130.895512,101.309455 134.162512,95.4484548 136.448512,88.4054548 C137.280512,85.8454548 138.066512,83.1634548 138.268512,80.5534548 C138.824512,79.6604548 139.088512,78.5484548 138.853512,77.2664548 C138.741512,76.6534548 138.650512,76.0384548 138.546512,75.4254548" id="Fill-9" fill="#E4C3A2"></path>
                <path d="M72.0608123,144.934855 L72.0618123,144.934855 C72.3058123,144.978855 72.1258123,144.954855 72.0278123,144.899855 C72.0408123,144.911855 72.0528123,144.922855 72.0608123,144.934855" id="Fill-11" fill="#C3996B"></path>
                <path d="M72.0530123,144.935855 C72.0560123,144.936855 72.0590123,144.936855 72.0620123,144.936855 C72.0620123,144.936855 72.0620123,144.935855 72.0610123,144.934855 C72.0570123,144.934855 72.0550123,144.933855 72.0510123,144.932855 C72.0520123,144.933855 72.0520123,144.934855 72.0530123,144.935855" id="Fill-13" fill="#C3996B"></path>
                <path d="M72.0266123,144.899755 L72.0276123,144.899755 C72.0226123,144.895755 72.0186123,144.891755 72.0136123,144.887755 C72.0176123,144.891755 72.0226123,144.895755 72.0266123,144.899755" id="Fill-15" fill="#C3996B"></path>
                <path d="M72.4280123,145.015955 C72.3440123,144.998955 72.2590123,144.983955 72.1760123,144.960955 C72.1580123,144.955955 72.1110123,144.946955 72.0620123,144.936955 C72.0700123,144.947955 72.0750123,144.957955 72.0750123,144.965955 C72.0750123,144.960955 72.0600123,144.946955 72.0530123,144.935955 C71.9490123,144.914955 71.8560123,144.898955 72.0510123,144.932955 C72.0420123,144.920955 72.0410123,144.914955 72.0270123,144.899955 C72.0260123,144.899955 72.0250123,144.898955 72.0250123,144.898955 C71.7720123,144.754955 71.9190123,144.812955 72.0140123,144.887955 C71.9230123,144.795955 71.7590123,144.662955 71.7210123,144.625955 C71.6860123,144.571955 71.6480123,144.517955 71.6150123,144.462955 C71.5970123,144.433955 71.4940123,144.277955 71.4180123,144.140955 C71.4150123,144.123955 71.4080123,144.097955 71.3920123,144.043955 C71.3580123,143.936955 71.3190123,143.830955 71.2860123,143.721955 C71.2290123,143.526955 71.1800123,143.328955 71.1420123,143.127955 C71.1400123,143.117955 71.1290123,143.070955 71.1180123,143.019955 C71.1170123,142.993955 71.1160123,142.965955 71.1150123,142.922955 C71.0010123,140.658955 71.6100123,138.436955 70.9400123,136.203955 C70.6580123,135.268955 69.6670123,134.578955 68.6870123,134.765955 C68.5360123,134.545955 68.3610123,134.345955 68.1080123,134.198955 C67.6790123,133.947955 67.0470123,133.840955 66.5670123,133.996955 C65.6120123,134.305955 64.7770123,135.407955 65.1700123,136.455955 C65.6210123,137.660955 65.9460123,138.901955 66.1570123,140.167955 C66.1920123,140.994955 66.2520123,141.821955 66.3510123,142.643955 C66.4160123,143.192955 66.5310123,143.651955 66.9370123,144.057955 C67.0460123,144.167955 67.1830123,144.262955 67.3270123,144.349955 C67.7730123,146.402955 69.2000123,148.457955 71.3650123,148.872955 C72.3890123,149.069955 73.5730123,148.586955 73.8250123,147.475955 C74.0500123,146.489955 73.5270123,145.225955 72.4280123,145.015955" id="Fill-17" fill="#C3996B"></path>
                <path d="M15.6965123,53.6634548 C15.6895123,53.3434548 15.6115123,53.0244548 15.4285123,52.7444548 C15.1915123,52.3804548 14.9255123,52.0384548 14.6435123,51.7064548 C13.9645123,50.6514548 13.1495123,49.6764548 12.2225123,48.8494548 C11.8255123,48.4944548 11.3515123,48.2634548 10.8075123,48.2634548 C10.4555123,48.2634548 10.0545123,48.3794548 9.73051232,48.5794548 C9.67551232,48.5654548 9.62051232,48.5454548 9.56351232,48.5324548 C6.73851232,47.8934548 3.88151232,48.6734548 2.33451232,51.2514548 C1.05851116,53.3784548 0.559512318,56.1184548 0.55851116,58.5674548 C0.557512318,61.2024548 1.20451232,63.7644548 2.37151232,66.1184548 C2.85151232,67.0854548 4.22151232,67.3544548 5.10751232,66.8354548 C6.09351232,66.2594548 6.30651232,65.0704548 5.82551232,64.0994548 C4.30051232,61.0214548 4.08451232,57.1064548 5.42951232,53.9604548 C5.70951232,53.3064548 6.00151232,52.7674548 6.59351232,52.4764548 C7.04551232,52.2554548 7.84851232,52.2534548 8.38951232,52.3664548 C9.60451232,52.6204548 10.6375123,53.2264548 11.4145123,54.0674548 C11.6635123,54.4754548 11.8925123,54.8954548 12.0945123,55.3314548 C12.2955123,55.7614548 12.8505123,56.1304548 13.2905123,56.2514548 C13.7685123,56.3824548 14.4065123,56.3234548 14.8315123,56.0494548 C15.2595123,55.7734548 15.6345123,55.3634548 15.7505123,54.8534548 C15.7745123,54.6774548 15.7985123,54.4994548 15.8225123,54.3214548 C15.8215123,54.0914548 15.7705123,53.8744548 15.6965123,53.6634548" id="Fill-19" fill="#C3996B"></path>
                <path d="M115.184812,16.1790548 C115.152812,15.6770548 114.984812,15.1630548 114.604812,14.8160548 C114.213812,14.4560548 113.731812,14.2280548 113.190812,14.2300548 C111.761812,14.2340548 110.308812,14.4450548 108.942812,14.8650548 C108.535812,14.9910548 108.165812,15.2400548 107.900812,15.5750548 C106.427812,14.6950548 105.037812,13.6880548 103.738812,12.5640548 C100.682812,9.92005476 98.0578123,6.82705476 95.5398123,3.68105476 C95.0638123,3.08505476 94.2038123,2.98705476 93.4898123,3.22505476 C92.7198123,2.81605476 91.8478123,2.96405476 91.1318123,3.55105476 C91.1078123,3.57205476 91.0978123,3.57905476 91.0818123,3.59205476 C91.0238123,3.63505476 90.9638123,3.67805476 90.9048123,3.72005476 C90.7078123,3.85505476 90.5068123,3.98205476 90.3008123,4.10105476 C90.1178123,4.20605476 89.9308123,4.30605476 89.7408123,4.39805476 C89.6598123,4.43805476 89.5778123,4.47405476 89.4958123,4.51305476 C89.4938123,4.51305476 89.4938123,4.51305476 89.4918123,4.51405476 C89.0618123,4.65605476 88.6438123,4.80905476 88.2028123,4.91205476 C87.9958123,4.96005476 87.7878123,4.99905476 87.5788123,5.03705476 C87.5698123,5.03905476 87.5698123,5.03905476 87.5618123,5.04005476 C87.4558123,5.05805476 87.3448123,5.06405476 87.2428123,5.07205476 C86.8188123,5.10505476 86.3938123,5.11205476 85.9698123,5.09105476 C85.7678123,5.08005476 85.5668123,5.05905476 85.3648123,5.04005476 C85.3488123,5.03705476 85.3398123,5.03405476 85.3178123,5.03105476 C85.2138123,5.01005476 85.1098123,4.99205476 85.0058123,4.97105476 C84.5918123,4.88405476 84.1838123,4.77105476 83.7858123,4.62805476 C83.7618123,4.62005476 83.6708123,4.58605476 83.5958123,4.55805476 C83.5418123,4.53405476 83.4748123,4.50505476 83.4558123,4.49705476 C83.2408123,4.39605476 83.0308123,4.28305476 82.8228123,4.16505476 C82.2058123,3.17005476 80.7908123,2.62705476 79.7158123,3.69805476 C78.1038123,5.30305476 77.3078123,7.35405476 76.1648123,9.27205476 C74.9638123,11.2830548 72.9418123,12.6090548 71.0088123,13.8510548 C67.0048123,16.4240548 62.3308123,17.2380548 57.9638123,15.0480548 C57.9718123,14.9570548 57.9888123,14.8670548 57.9958123,14.7760548 C58.0788123,13.6970548 57.0168123,12.7760548 55.9958123,12.7760548 C54.8448123,12.7760548 54.0798123,13.6950548 53.9958123,14.7760548 C53.6718123,18.9830548 52.0008123,23.1690548 49.2548123,26.3860548 C48.0458123,27.8030548 46.5878123,29.2190548 44.6248123,29.3240548 C43.0458123,29.4080548 40.5988123,29.3940548 39.3808123,28.1970548 C39.1538123,27.5640548 38.5898123,27.0170548 37.9858123,26.8510548 C36.8358123,26.5350548 35.9398123,27.2450548 35.5258123,28.2480548 C34.0398123,31.8450548 32.3228123,35.5380548 29.6738123,38.4390548 C29.3648123,38.7780548 29.0388123,39.0950548 28.7058123,39.4040548 C28.3528123,38.8840548 27.7648123,38.5590548 27.0608123,38.5100548 C27.0328123,38.5080548 27.0048123,38.5120548 26.9768123,38.5110548 C26.4868123,37.9570548 25.7348123,37.6640548 24.9668123,37.8880548 C24.3778123,38.0590548 23.7808123,38.1850548 23.1748123,38.2810548 C22.4028123,38.3680548 21.6258123,38.3800548 20.8508123,38.3430548 C20.3658123,38.1060548 19.8028123,38.0630548 19.2428123,38.3000548 C18.6478123,38.5500548 18.2268123,39.0710548 18.0778123,39.6710548 C18.0048123,39.8790548 17.9568123,40.0940548 17.9658123,40.2980548 C17.9838123,40.6850548 18.0828123,41.0810548 18.2948123,41.4080548 C18.3158123,41.7160548 18.3398123,42.0240548 18.4198123,42.3250548 C18.5238123,42.7180548 18.7318123,43.0710548 18.9948123,43.3770548 C18.9658123,43.3780548 18.9388123,43.3820548 18.9108123,43.3820548 C17.1888123,43.4010548 16.6218123,45.1940548 17.2048123,46.3720548 C17.0918123,46.5440548 17.0038123,46.7300548 16.9728123,46.9430548 C16.0428123,53.2770548 15.7288123,59.6580548 16.0068123,66.0130548 C15.0188123,66.1730548 14.3308123,66.9490548 14.2748123,67.9780548 C14.1618123,70.0170548 14.4138123,72.0970548 14.9728123,74.0660548 C14.5818123,74.4350548 14.3348123,74.9590548 14.2998123,75.5350548 C14.1028123,78.7300548 14.6498123,81.8020548 15.6178123,84.7660548 C14.8828123,85.2190548 14.3998123,86.1580548 14.6998123,87.0050548 C16.3468123,91.6590548 18.7038123,95.9730548 21.6578123,99.8350548 C23.4678123,105.844055 28.5168123,110.572055 33.0428123,114.652055 C38.2998123,119.390055 44.2208123,123.533055 51.1188123,125.432055 C51.8098123,125.622055 52.3908123,125.469055 52.8158123,125.132055 C52.8488123,125.232055 52.9088123,125.325055 53.0088123,125.390055 C54.2168123,126.170055 55.4238123,126.950055 56.6318123,127.731055 C57.0898123,128.006055 57.4928123,127.478055 57.3208123,127.089055 C57.6648123,127.208055 58.0058123,127.335055 58.3598123,127.430055 C58.4468123,127.452055 58.5238123,127.452055 58.5948123,127.439055 C59.1138123,127.763055 59.6428123,128.070055 60.1678123,128.384055 C59.4408123,128.056055 58.7128123,127.730055 57.9858123,127.403055 C57.4108123,127.145055 56.9038123,127.953055 57.4808123,128.267055 C58.5488123,128.846055 59.6578123,129.342055 60.7948123,129.755055 C62.9838123,130.739055 65.1718123,131.722055 67.3618123,132.704055 C67.9438123,132.966055 68.4528123,132.105055 67.8668123,131.841055 C66.8998123,131.408055 65.9328123,130.973055 64.9658123,130.538055 C65.1238123,130.322055 65.1308123,130.010055 64.8228123,129.850055 C62.3628123,128.572055 59.9808123,127.158055 57.6648123,125.638055 C56.3828123,124.749055 55.0998123,123.860055 53.8168123,122.970055 C53.6998123,122.890055 53.5868123,122.874055 53.4858123,122.894055 C53.3588123,122.469055 53.0938123,122.072055 52.6598123,121.777055 C49.3728123,119.545055 46.0858123,117.314055 42.7988123,115.082055 C42.7298123,114.753055 42.5728123,114.425055 42.2838123,114.122055 C33.8358123,105.279055 27.0538123,94.8760548 22.3968123,83.5640548 C22.3928123,83.5480548 22.3938123,83.5330548 22.3898123,83.5170548 C19.6618123,71.9130548 19.0978123,59.8080548 20.8308123,48.0060548 C20.8668123,47.7540548 20.8688123,47.5030548 20.8398123,47.2600548 C25.2078123,46.7570548 29.2628123,44.7160548 32.3058123,41.4800548 C34.8418123,38.7820548 36.6218123,35.5520548 38.1358123,32.2030548 C39.9378123,33.1410548 42.1988123,33.3490548 44.1418123,33.3370548 C47.0808123,33.3200548 49.5368123,31.9640548 51.5138123,29.8540548 C54.3498123,26.8280548 56.2888123,23.0950548 57.2858123,19.1070548 C62.0888123,21.0360548 67.3958123,20.5990548 71.9448123,17.9680548 C74.2508123,16.6340548 76.7558123,15.0090548 78.4578123,12.9310548 C79.6858123,11.4330548 80.3698123,9.54605476 81.4208123,7.93705476 C85.1918123,9.77005476 89.6818123,9.34305476 93.1148123,7.00605476 C96.0438123,10.6370548 99.1448123,14.1240548 102.862812,16.9730548 C106.100812,19.4540548 112.679812,23.7950548 115.700812,18.6940548 C116.296812,17.6860548 115.907812,16.7260548 115.184812,16.1790548" id="Fill-21" fill="#C3996B"></path>
                <path d="M149.449412,47.9095548 C148.976412,46.7495548 148.201412,45.7845548 147.250412,45.0755548 C147.249412,45.0705548 147.249412,45.0655548 147.248412,45.0605548 C147.153412,44.7215548 146.981412,44.4285548 146.733412,44.1795548 L146.329412,43.8655548 C146.017412,43.6845548 145.680412,43.5945548 145.319412,43.5935548 L144.266412,43.5935548 C143.991412,43.5825548 143.734412,43.6395548 143.496412,43.7645548 C143.422412,43.7885548 143.357412,43.8285548 143.290412,43.8625548 C143.146412,43.8695548 143.006412,43.8585548 142.861412,43.8765548 C140.187412,44.1905548 137.876412,46.3455548 137.500412,49.0435548 C137.449412,49.4115548 137.488412,49.7705548 137.577412,50.1085548 C137.357412,50.5295548 137.294412,51.0305548 137.372412,51.5045548 C136.394412,47.4835548 135.250412,43.4985548 134.095412,39.5355548 C134.021412,39.2785548 133.906412,39.0695548 133.772412,38.8875548 C133.767412,38.8705548 133.768412,38.8525548 133.762412,38.8355548 C133.977412,38.5115548 134.106412,38.1315548 134.122412,37.7225548 C134.143412,37.1445548 133.976412,36.6265548 133.729412,36.1165548 C133.613412,35.8785548 133.430412,35.6685548 133.265412,35.4675548 C133.088412,35.2495548 132.848412,35.0955548 132.627412,34.9265548 C132.589412,34.9025548 132.548412,34.8915548 132.510412,34.8715548 C132.493412,34.6685548 132.450412,34.4725548 132.354412,34.2925548 C132.273412,34.0445548 132.136412,33.8295548 131.941412,33.6475548 C131.760412,33.4535548 131.545412,33.3155548 131.297412,33.2345548 C131.058412,33.1095548 130.802412,33.0525548 130.526412,33.0615548 C130.010412,33.0855548 129.472412,33.2555548 129.112412,33.6475548 C128.771412,34.0185548 128.480412,34.5405548 128.526412,35.0615548 C128.549412,35.3105548 128.580412,35.5615548 128.624412,35.8105548 C126.968412,34.6355548 125.550412,33.0815548 124.259412,31.5075548 C121.915412,28.6515548 119.680412,25.5305548 118.831412,21.8795548 C118.248412,19.3725548 114.389412,20.4335548 114.973412,22.9425548 C115.983412,27.2785548 118.653412,30.9525548 121.430412,34.3365548 C123.827412,37.2565548 126.738412,39.9975548 130.397412,41.1455548 C133.178412,50.7015548 135.931412,60.3785548 136.078412,70.4005548 C136.078412,70.4285548 136.085412,70.4505548 136.087412,70.4775548 C135.871412,70.9135548 135.807412,71.4345548 135.894412,71.9545548 C136.997412,78.5425548 136.032412,85.4805548 133.193412,91.5245548 C133.111412,91.6985548 133.056412,91.8785548 133.017412,92.0595548 C131.509412,95.2785548 130.001412,98.4985548 128.492412,101.718555 C128.264412,102.203555 128.861412,102.761555 129.277412,102.323555 C130.089412,101.472555 130.806412,100.544555 131.443412,99.5655548 C131.641412,99.8045548 132.052412,99.8545548 132.259412,99.5215548 C132.543412,99.0635548 132.803412,98.5935548 133.050412,98.1145548 C133.116412,98.0575548 133.174412,97.9875548 133.205412,97.8825548 C133.226412,97.8085548 133.249412,97.7345548 133.270412,97.6605548 C133.768412,96.6335548 134.190412,95.5695548 134.514412,94.4735548 C135.328412,94.6275548 136.282412,94.3195548 136.647412,93.5435548 C139.906412,86.6045548 140.980412,78.9785548 139.819412,71.4175548 C139.982412,71.1395548 140.084412,70.8055548 140.078412,70.4005548 C139.985412,64.0625548 138.905412,57.8525548 137.425412,51.7245548 C137.633412,52.4865548 138.236412,53.1235548 139.262412,53.1235548 C139.510412,53.1235548 139.726412,53.0765548 139.927412,53.0095548 C139.957412,53.0185548 139.987412,53.0365548 140.018412,53.0445548 C141.079412,53.2855548 142.177412,52.7245548 142.478412,51.6465548 C142.519412,51.5025548 142.574412,51.3625548 142.626412,51.2225548 C142.767412,50.9275548 142.932412,50.6455548 143.120412,50.3785548 C143.346412,50.1125548 143.594412,49.8665548 143.860412,49.6415548 C144.139412,49.4465548 144.432412,49.2765548 144.740412,49.1305548 C144.984412,49.0425548 145.233412,48.9685548 145.488412,48.9135548 C145.967412,49.6845548 146.127412,50.7255548 146.182412,51.6165548 C146.488412,56.5165548 146.179412,61.5205548 145.732412,66.4015548 C145.634412,67.4785548 146.721412,68.4015548 147.732412,68.4015548 C148.896412,68.4015548 149.633412,67.4815548 149.732412,66.4015548 C150.026412,63.1935548 150.202412,59.9755548 150.242412,56.7555548 C150.278412,53.8895548 150.553412,50.6195548 149.449412,47.9095548" id="Fill-23" fill="#C3996B"></path>
                <path d="M69.2864123,43.2395548 C65.3314123,42.1075548 61.5434123,40.9545548 57.5044123,41.8855548 C53.5404123,42.7985548 49.8964123,45.1955548 46.3924123,47.9315548 C45.6334123,48.5255548 45.1314123,49.3055548 44.8114123,50.1645548 C43.7964123,50.5815548 42.7904123,51.0705548 41.7764123,51.6875548 C39.8214123,52.8795548 39.2464123,57.2275548 40.3254123,59.6315548 C41.2244123,61.6335548 42.5144123,60.4455548 43.9084123,60.3605548 C44.7344123,61.1705548 45.8184123,61.4665548 47.0984123,60.8385548 C51.1424123,58.8505548 55.3614123,60.5275548 59.3824123,58.6945548 C63.0564123,57.0185548 66.9804123,57.0815548 70.2524123,53.8495548 C72.8724123,51.2615548 72.9614123,44.2905548 69.2864123,43.2395548" id="Fill-25" fill="#E4C3A2"></path>
                <path d="M112.216012,45.1097548 L112.204012,45.1217548 C106.321012,41.4767548 96.6490123,41.6877548 92.9440123,47.7887548 C91.9350123,47.8437548 90.9180123,47.8637548 89.8930123,47.8417548 C87.7910123,47.7987548 86.1400123,49.7407548 86.3730123,52.7577548 C86.5870123,55.5037548 88.6030123,58.4897548 90.7160123,58.5347548 C90.7970123,58.5357548 90.8130123,58.9977548 90.8940123,58.9987548 C91.2090123,59.1727548 91.6070123,58.8467548 91.9660123,58.9317548 C92.3730123,59.0287548 92.7930123,59.0747548 93.2050123,59.1497548 C95.9000123,59.3727548 96.8590123,61.0167548 98.1820123,59.7877548 C105.435012,60.3047548 113.508012,58.5547548 118.418012,53.1887548 C121.995012,49.2787548 115.772012,41.2237548 112.216012,45.1097548" id="Fill-27" fill="#E4C3A2"></path>
                <path d="M144.562712,43.7395548 C144.554712,43.7385548 144.548712,43.7375548 144.544712,43.7355548 L144.543712,43.7355548 C144.548712,43.7375548 144.553712,43.7395548 144.562712,43.7395548" id="Fill-29" fill="#231F20"></path>
            </g>
            <g id="outline" transform="translate(0.000000, 0.546000)">
                <g id="Group-33">
                    <mask id="mask-2" fill="white">
                        <use xlink:href="#path-1"></use>
                    </mask>
                    <g id="Clip-32"></g>
                    <path d="M172.4949,104.5349 C172.2269,106.0479 171.9269,107.5579 171.6159,109.0679 C171.5469,109.3019 171.4959,109.5399 171.4659,109.7829 C170.8129,112.8959 170.1029,116.0029 169.4089,119.0969 C169.0259,120.8039 168.5469,123.0969 166.9179,124.0889 C165.9879,124.6539 163.3319,124.4499 163.5589,122.8539 C163.6079,122.5109 163.4939,122.2269 163.3069,122.0129 C163.4389,113.2759 162.1379,104.6229 160.4869,95.9929 C161.0539,95.9069 161.5739,95.5839 161.9289,95.0489 C161.9989,94.9429 162.0689,94.8389 162.1419,94.7359 C162.1529,94.7209 162.1859,94.6759 162.2189,94.6339 C162.2659,94.5759 162.3239,94.5049 162.3409,94.4859 C162.4059,94.4099 162.4729,94.3349 162.5409,94.2599 C162.8649,93.9039 163.2239,93.5969 163.5809,93.2759 L163.5899,93.2669 C163.5919,93.2659 163.5919,93.2659 163.5939,93.2639 C163.6759,93.2059 163.7579,93.1459 163.8399,93.0899 C164.0259,92.9609 164.2179,92.8389 164.4129,92.7219 C164.6069,92.6049 164.8059,92.4949 165.0079,92.3909 C165.1199,92.3349 165.2329,92.2789 165.3479,92.2249 C165.3929,92.2039 165.4389,92.1819 165.4849,92.1629 C165.6199,92.1019 165.5769,92.1199 165.3549,92.2149 C165.4449,92.1019 165.8659,92.0199 165.9929,91.9769 C166.2089,91.9049 166.4259,91.8399 166.6449,91.7819 C166.8639,91.7229 167.0859,91.6729 167.3079,91.6299 C167.4069,91.6099 167.5069,91.5939 167.6059,91.5759 C167.6029,91.5749 167.5989,91.5759 167.5979,91.5739 C167.5989,91.5749 167.6049,91.5749 167.6069,91.5759 C167.6319,91.5719 167.6559,91.5669 167.6809,91.5629 C167.9679,91.5139 167.7129,91.5819 167.6249,91.5799 C167.6889,91.5879 167.8739,91.5699 168.0449,91.5509 C168.6459,91.7489 169.2179,92.0359 169.7079,92.4339 C173.2709,95.3349 173.2239,100.4239 172.4949,104.5349 M161.2829,124.2969 C161.1999,125.8999 161.0469,127.5069 160.8579,129.1099 C160.6389,129.7179 160.5659,130.3769 160.6209,131.0249 C160.3779,132.6879 160.0419,134.3349 159.6649,135.9719 C158.3249,140.1539 156.4059,144.1129 153.9709,147.7609 L153.9469,147.7339 C151.0919,150.9959 147.7289,153.8309 144.2559,156.4329 C137.7359,161.3179 130.9759,165.9069 124.2099,170.4389 C120.2019,173.1239 116.1629,175.7629 112.0989,178.3589 C111.8869,178.4949 111.7569,178.6709 111.6889,178.8589 C110.3639,179.6869 108.9969,180.4379 107.5419,181.0269 C102.1039,183.2239 96.3289,182.2229 90.9909,180.2489 C85.9749,178.3929 81.1669,175.8689 76.4029,173.4479 C67.8809,169.1179 59.3999,164.2839 52.4829,157.5979 C45.3169,150.6689 40.7259,141.9399 39.1759,132.0819 C37.5679,121.8619 38.9219,111.3819 40.3219,101.2219 C40.9889,96.3799 41.6929,91.5179 42.2199,86.6419 C47.0189,89.1969 52.1329,89.7649 55.9279,83.8619 C57.7009,81.1019 58.8519,78.0019 59.5449,74.7689 C62.2879,76.5689 65.3009,77.5269 68.6179,76.6229 C71.8369,75.7459 74.3909,73.2299 75.8499,70.3059 C77.1099,67.7789 76.8529,64.4989 78.1589,62.1129 C81.2189,63.8319 84.6019,64.9109 88.0679,65.0389 C96.0069,65.3319 100.3839,59.3059 102.8569,52.5159 C106.7649,54.5589 111.7009,54.5839 115.5459,52.3169 C115.7959,52.9449 116.0839,53.5579 116.4069,54.1559 C117.8979,58.6389 121.8499,62.1959 126.4209,63.5419 C129.4089,64.4219 132.5619,64.2709 135.4059,62.9849 C135.4709,62.9559 135.5379,62.9189 135.6029,62.8879 C135.5599,68.8059 136.8209,74.5629 141.2249,79.1479 C145.1589,83.2439 150.8259,84.8759 156.0269,83.8139 C156.0439,83.8949 156.0579,83.9769 156.0739,84.0579 C156.0789,84.1839 156.0859,84.3089 156.0899,84.4349 C156.1189,85.3179 156.3289,86.1559 156.6539,86.9399 C157.0129,88.7059 157.3729,90.4719 157.7279,92.2349 C159.8499,102.7669 161.8399,113.5059 161.2829,124.2969 M102.5169,191.1329 C100.9619,193.6609 98.6399,196.3529 95.3949,196.0899 C92.2729,195.8359 90.5789,192.7119 89.3459,190.1259 C89.4199,189.9919 89.4729,189.8389 89.4729,189.6469 L89.4729,181.8069 C92.8149,183.1189 96.2749,184.1039 99.8709,184.2859 C100.7209,184.3289 101.5469,184.2939 102.3629,184.2239 L102.3629,190.6399 C102.3629,190.8209 102.4289,190.9839 102.5169,191.1329 M36.5169,123.3419 C36.4689,123.3649 36.4219,123.3899 36.3849,123.4309 C36.2989,123.5239 36.2269,123.6529 36.2379,123.7839 C36.2409,123.8219 36.2369,123.8589 36.2349,123.8969 C36.2269,123.9329 36.2179,123.9689 36.2059,124.0039 C36.1899,124.0339 36.1739,124.0619 36.1559,124.0899 C36.1179,124.1289 36.0799,124.1679 36.0419,124.2059 C35.9619,124.2879 35.9149,124.4009 35.9039,124.5159 C35.8999,124.5159 35.8959,124.5149 35.8909,124.5139 C35.6339,124.3789 35.3139,124.3529 34.9809,124.5319 C33.1079,125.5439 31.2879,123.8279 30.1449,122.4669 C28.8019,120.8639 27.8759,118.8899 26.9279,117.0419 C24.9469,113.1829 23.2239,108.8799 23.8309,104.4589 C24.3069,100.9989 26.3019,97.2649 29.9329,96.3759 C32.8949,95.6509 36.6419,96.8909 37.5939,100.0199 C37.7199,100.4329 38.0249,100.6349 38.3559,100.6899 C37.2919,108.2229 36.3859,115.7639 36.5169,123.3419 M99.1859,3.8299 C97.7149,3.2469 96.1889,2.8029 94.6219,2.5069 C96.2199,2.6429 97.7659,3.1049 99.1859,3.8299 M182.0229,100.6849 C181.8719,99.5389 181.5489,98.4689 181.2439,97.3579 C180.8499,95.9199 181.1409,94.7439 181.4609,93.3279 C182.5079,88.6999 181.0169,83.7939 177.5949,80.5159 C180.6799,73.2679 178.8769,64.3449 173.0259,58.9869 C173.0789,57.6219 172.6669,56.4169 172.0159,55.3119 C171.5909,54.2519 170.9019,53.4059 170.0419,52.7819 C169.7539,52.4779 169.4599,52.1789 169.1619,51.8859 C169.0109,51.7369 168.8489,51.5889 168.6839,51.4379 C168.3389,48.5569 167.9759,45.6199 167.3029,42.8389 C167.2679,42.4049 167.2259,41.9719 167.1679,41.5389 C166.7259,38.2789 165.6729,34.4019 163.2759,31.9979 C161.6409,30.3569 158.9929,29.6469 156.9819,30.7429 C155.9239,28.1849 154.4299,25.7579 152.5489,23.7109 C151.5729,22.1759 150.3159,20.8309 148.6759,19.8189 C146.3259,18.3689 143.5989,18.2229 141.1569,18.9829 C140.6739,15.4699 138.3489,12.2779 134.8969,11.0209 C130.9139,9.5689 126.2499,11.2869 123.8149,14.6509 C121.5569,11.7759 118.9889,8.9399 115.4379,7.7799 C112.6979,6.8859 109.4349,7.1519 107.1319,8.9059 C107.0299,8.8079 106.9289,8.7039 106.8259,8.6099 C106.7509,8.5409 106.6689,8.4829 106.5929,8.4159 C104.1259,3.8709 99.3779,0.6849 94.1239,0.4659 C88.4869,0.2289 83.2189,3.5289 80.5499,8.3739 C76.7899,4.8589 70.7379,4.1579 66.2099,6.6229 C65.6169,6.9459 65.0609,7.3319 64.5379,7.7589 C63.9559,8.2339 63.4359,8.9799 62.7659,9.3249 C61.8289,9.8079 60.9349,9.0259 60.0929,8.6419 C59.3069,8.2849 58.4889,8.0099 57.6399,7.8499 C54.4169,7.2469 51.0169,8.0099 48.4659,10.0969 C46.2919,11.8749 44.9259,14.4959 44.5579,17.2559 C43.7049,18.3189 42.9839,19.4629 42.3839,20.6739 C38.1809,16.4309 30.0699,16.9059 26.9329,22.3049 C26.0239,23.8679 25.5989,25.6609 24.6979,27.2269 C24.3009,27.9179 23.8049,28.5729 23.0819,28.9489 C21.8829,29.5729 20.4449,29.3319 19.1509,29.2949 C15.1789,29.1789 12.1469,31.5749 10.8749,35.2979 C9.6239,38.9619 10.6839,42.6849 12.3669,46.0489 C12.6919,46.8599 13.0789,47.6459 13.5359,48.3999 C7.8169,50.4889 5.3269,58.4129 8.2559,63.6109 C8.2979,64.0829 8.3629,64.5519 8.4529,65.0149 C3.5579,66.7519 -0.1921,71.5249 0.0079,76.8859 C0.2089,82.3099 4.3149,86.9599 9.4429,88.2889 C4.5539,94.0439 6.4619,102.9229 10.1149,108.9789 C11.3129,110.9659 12.8259,112.6549 14.3189,114.4179 C16.1269,116.5509 17.0289,118.7769 17.7289,121.4559 C18.8909,125.9019 20.9639,129.7799 24.5659,132.7319 C28.3929,135.8689 33.2369,137.6469 38.2049,137.4259 C38.2449,137.4239 38.2719,137.4049 38.3089,137.3999 C39.9729,143.6499 42.8169,149.5049 47.0249,154.6379 C53.2299,162.2059 61.5789,167.7299 70.0889,172.3859 C74.4799,174.7879 78.9769,177.0039 83.4939,179.1609 C84.8329,179.7999 86.1909,180.4299 87.5679,181.0219 C87.5099,181.1459 87.4729,181.2899 87.4729,181.4579 L87.4729,189.2769 C87.2059,189.5649 87.0759,189.9859 87.2859,190.4329 C88.9079,193.8799 91.1409,197.7909 95.3949,198.0899 C99.5699,198.3829 102.6099,194.9449 104.5249,191.6759 C104.7899,191.2229 104.6529,190.7959 104.3629,190.5139 L104.3629,183.9459 C107.8279,183.2749 111.0149,181.6999 114.0419,179.6859 C113.9929,179.6509 113.9529,179.6029 113.9059,179.5649 C120.9489,175.0529 127.9139,170.4159 134.7809,165.6389 C141.0659,161.2679 147.6049,156.9679 153.0979,151.5959 C153.4859,151.2159 153.8409,150.8029 154.2149,150.4089 C154.4559,150.3649 154.6879,150.2359 154.8639,149.9889 C155.0949,149.6669 155.3109,149.3369 155.5329,149.0089 C155.5579,148.9809 155.5849,148.9569 155.6079,148.9299 C155.6029,148.9269 155.5989,148.9249 155.5929,148.9219 C157.8499,145.5669 159.6809,141.9399 161.0439,138.1349 C161.0969,138.1569 161.1529,138.1679 161.2069,138.1909 C161.3599,137.5979 161.4909,137.0009 161.6269,136.4039 C161.6789,136.2379 161.7379,136.0739 161.7889,135.9079 C161.8249,135.7889 161.8229,135.6829 161.8199,135.5779 C161.8269,135.5469 161.8359,135.5149 161.8429,135.4839 C161.9389,135.5259 162.0379,135.5679 162.1579,135.5799 C166.3059,135.9779 170.1369,134.0479 173.0919,131.2559 C176.1859,128.3299 179.1059,124.1069 179.6779,119.8079 C179.8119,118.7979 179.7929,117.7699 179.5539,116.7749 C179.2699,115.6029 178.3349,114.5099 178.6459,113.2689 C178.9009,112.2509 179.7279,111.3509 180.2239,110.4409 C180.7869,109.4089 181.2349,108.3019 181.5569,107.1719 C182.1529,105.0729 182.3079,102.8469 182.0229,100.6849" id="Fill-31" fill="#231F20" mask="url(#mask-2)"></path>
                </g>
                <path d="M91.3328,113.0535 C90.6038,117.7015 88.5998,122.7115 85.0898,125.9635 C80.9068,129.8395 75.0518,128.5075 71.5368,124.4375 C68.3158,120.7085 66.9528,115.4355 66.9447637,110.5945 C66.9358,105.3215 68.5988,100.0615 71.7138,95.7985 C72.0618,95.8085 72.3998,95.8465 72.7288,95.9135 C72.7538,95.8685 72.7818,95.8275 72.8008,95.7755 C74.0548,92.3065 79.1318,91.9045 82.1488,92.7145 C85.0318,93.4895 87.2018,95.3865 88.5758,97.8875 C88.3568,98.1625 88.2928,98.5415 88.5498,98.9325 C89.1088,99.7805 89.5668,100.6725 89.9688,101.5865 C90.0898,102.0775 90.1998,102.5745 90.2998,103.0725 C90.3718,103.0465 90.4448,103.0215 90.5188,102.9955 C91.6198,106.1965 91.8648,109.6645 91.3328,113.0535 M91.8378,100.8155 C91.0958,97.9885 89.7928,95.2435 87.5328,93.3305 C85.2368,91.3855 82.2398,90.3055 79.2288,90.3495 C76.5108,90.3885 73.5368,91.3505 71.8468,93.4955 C71.5118,93.3025 71.0958,93.3125 70.7768,93.7185 C63.9828,102.3615 62.5208,115.9855 69.4648,125.0375 C72.8218,129.4165 78.8518,131.9705 84.0348,129.1785 C88.7588,126.6335 91.5328,120.8675 92.7908,115.8785 C94.0488,110.8915 93.8868,105.5125 91.8378,100.8155" id="Fill-36" fill="#231F20"></path>
                <path d="M114.9891,102.9958 C115.0611,103.0208 115.1351,103.0468 115.2081,103.0718 C115.3061,102.5738 115.4171,102.0778 115.5391,101.5868 C115.9401,100.6728 116.3981,99.7798 116.9571,98.9328 C117.2151,98.5418 117.1491,98.1628 116.9301,97.8878 C118.3041,95.3868 120.4741,93.4888 123.3571,92.7148 C126.3751,91.9038 131.4531,92.3068 132.7061,95.7748 C132.7251,95.8278 132.7531,95.8688 132.7771,95.9138 C133.1061,95.8468 133.4461,95.8088 133.7941,95.7988 C136.9081,100.0608 138.5711,105.3208 138.562136,110.5948 C138.5531,115.4348 137.1901,120.7088 133.9701,124.4368 C130.4551,128.5078 124.5991,129.8398 120.4171,125.9638 C116.9081,122.7118 114.9031,117.7018 114.1741,113.0538 C113.6421,109.6648 113.8871,106.1958 114.9891,102.9958 M112.7161,115.8788 C113.9731,120.8678 116.7481,126.6338 121.4711,129.1788 C126.6551,131.9708 132.6841,129.4168 136.0431,125.0378 C142.9851,115.9848 141.5231,102.3608 134.7301,93.7188 C134.4111,93.3118 133.9951,93.3028 133.6611,93.4958 C131.9701,91.3498 128.9961,90.3888 126.2791,90.3498 C123.2661,90.3058 120.2691,91.3858 117.9731,93.3308 C115.7141,95.2438 114.4121,97.9878 113.6701,100.8148 C111.6201,105.5128 111.4591,110.8918 112.7161,115.8788" id="Fill-38" fill="#231F20"></path>
                <path d="M109.9227,133.5642 C109.8377,133.0312 109.1717,132.7342 108.6927,132.8662 C108.1237,133.0222 107.9087,133.5612 107.9937,134.0962 C108.3927,136.6022 106.3587,139.2982 103.8587,139.6542 C101.2337,140.0282 98.5347,137.7772 98.3517,135.1552 C98.2627,133.8772 96.2617,133.8682 96.3517,135.1552 C96.5587,138.1152 98.7457,140.6922 101.6097,141.4612 C104.5007,142.2382 107.4287,140.8142 108.9747,138.3292 C109.8677,136.8922 110.1867,135.2272 109.9227,133.5642" id="Fill-40" fill="#231F20"></path>
                <path d="M90.8729,103.0632 C89.1349,103.5242 87.3859,103.9472 85.6349,104.3572 C85.6309,104.3452 85.6269,104.3342 85.6229,104.3242 C85.6019,104.3282 85.5839,104.3372 85.5609,104.3422 C82.2319,105.0212 78.9739,106.0232 75.5799,106.2242 C75.0249,106.3562 74.4669,106.4682 73.8999,106.5442 C73.6819,106.6132 73.4629,106.6642 73.2429,106.6942 C73.2329,106.7362 73.2269,106.7782 73.2149,106.8192 C70.8299,107.2072 68.4389,107.5592 66.0389,107.8492 C64.7769,108.0012 64.7629,110.0032 66.0389,109.8492 C68.3109,109.5742 70.5759,109.2522 72.8359,108.8962 C72.7089,110.2282 72.7809,111.5842 73.0759,112.8692 C73.4249,114.3832 74.1969,115.8802 75.3239,116.9162 C75.5309,117.1812 75.7519,117.4382 75.9959,117.6782 C77.1279,118.7942 78.6539,119.3572 80.1559,119.2132 C81.1179,119.2182 82.0999,118.9662 83.0289,118.3752 C85.9649,116.5062 87.2989,112.6232 86.5359,109.2982 C86.5139,109.1982 86.4699,109.1012 86.4429,109.0012 C86.4909,108.0762 86.3909,107.1622 86.1739,106.2802 C87.9219,105.8712 89.6679,105.4522 91.4049,104.9922 C92.6479,104.6622 92.1209,102.7322 90.8729,103.0632" id="Fill-42" fill="#231F20"></path>
                <path d="M138.0252,103.7126 C136.6412,103.7346 135.2592,103.7946 133.8792,103.8706 C133.5762,104.0036 133.2512,104.0816 132.9202,104.0816 C130.6192,104.0916 128.3282,104.3066 126.0462,104.5926 C125.7832,104.6256 125.5212,104.6596 125.2572,104.6946 C125.1572,104.7076 125.0952,104.7166 125.0512,104.7226 C124.9442,104.7356 124.8382,104.7506 124.7302,104.7656 L123.0312,104.9996 C121.8232,105.1646 120.6152,105.3266 119.4032,105.4686 C119.3872,105.5056 119.3652,105.5406 119.3502,105.5776 C117.0822,105.9956 114.8242,106.4766 112.5832,107.0326 C111.3342,107.3436 111.8632,109.2726 113.1152,108.9616 C114.8612,108.5276 116.6192,108.1466 118.3802,107.7986 C117.9562,108.6666 117.9622,109.7556 118.2142,110.7726 C118.2342,112.1376 118.5602,113.4966 119.2422,114.6916 C119.6942,115.4826 120.2912,116.1696 120.9712,116.7606 C121.0702,116.8586 121.1542,116.9706 121.2592,117.0606 C121.8442,117.5646 122.4942,117.9176 123.1732,118.1546 C124.2372,118.6166 125.3902,118.8726 126.5572,118.8646 C126.6392,118.8646 126.7012,118.8356 126.7732,118.8196 C127.1332,118.7976 127.4962,118.7516 127.8602,118.6506 C129.8412,118.0996 131.3382,116.4596 132.2162,114.6596 C133.4262,112.1856 133.9202,108.7766 133.1082,105.9116 C134.7452,105.8126 136.3832,105.7386 138.0252,105.7126 C139.3112,105.6916 139.3152,103.6916 138.0252,103.7126" id="Fill-44" fill="#231F20"></path>
                <path d="M118.866,150.572 C118.502,150.492 118.142,150.388 117.793,150.259 C117.741,150.24 117.689,150.22 117.638,150.2 C117.628,150.195 117.602,150.185 117.58,150.176 C117.579,150.176 117.575,150.174 117.574,150.174 C117.533,150.155 117.494,150.136 117.454,150.119 C117.275,150.035 117.098,149.945 116.926,149.849 C116.763,149.758 116.603,149.662 116.447,149.559 C116.374,149.511 116.301,149.462 116.229,149.411 C116.193,149.386 116.158,149.36 116.122,149.335 C116.113,149.328 116.036,149.269 116.025,149.261 C115.994,149.236 115.965,149.213 115.934,149.187 C115.859,149.125 115.783,149.06 115.711,148.994 C115.562,148.863 115.422,148.724 115.284,148.582 C114.92,148.205 114.23,148.189 113.87,148.582 C113.498,148.987 113.481,149.594 113.87,149.997 C114.27,150.412 114.724,150.769 115.199,151.099 C110.978,155.709 104.852,158.251 98.597,157.941 C97.31,157.879 97.314,159.879 98.597,159.941 C105.484,160.281 112.375,157.369 116.922,152.181 C116.951,152.148 116.958,152.111 116.982,152.076 C117.422,152.252 117.873,152.4 118.334,152.501 C118.844,152.613 119.44,152.348 119.564,151.802 C119.679,151.297 119.412,150.692 118.866,150.572" id="Fill-46" fill="#231F20"></path>
                <path d="M86.9608,86.2849 C84.0318,84.2839 80.8388,82.5119 77.2618,82.0899 C74.0778,81.7149 70.7238,82.5719 68.4038,84.8529 C67.4838,85.7579 68.8988,87.1709 69.8178,86.2669 C74.5178,81.6459 81.4568,84.9409 85.9508,88.0119 C87.0178,88.7389 88.0188,87.0069 86.9608,86.2849" id="Fill-48" fill="#231F20"></path>
                <path d="M132.1922,81.9158 C129.4082,79.8948 125.6132,79.5968 122.4122,80.7208 C119.0652,81.8958 116.4272,84.3548 114.4132,87.2128 C113.6702,88.2678 115.4042,89.2678 116.1402,88.2228 C117.8342,85.8178 120.1232,83.6398 122.9432,82.6488 C125.6992,81.6818 128.7872,81.9028 131.1832,83.6428 C132.2262,84.3998 133.2242,82.6658 132.1922,81.9158" id="Fill-50" fill="#231F20"></path>
            </g>
        </g>
    </g>
</svg>