<svg width="500" height="600" xmlns="http://www.w3.org/2000/svg"><g fill="none" fill-rule="evenodd"><path d="M303.724 163.001L292.2 197.996c-4.746 17.772-10.251 26.987-16.516 27.646-9.398.987-33.582-7.395-38.332-14.388-3.167-4.663-6.299-21.726-9.396-51.19 9.092-13.306 17.031-20.315 23.817-21.028 4.566-.48 14.814-2.88 28.919 4.52 4.57 2.399 12.247 8.88 23.03 19.445z" fill="#F1DDC2"/><g fill-rule="nonzero"><path d="M229.596 161.452c-.355.484-.452 1.195-.452 1.773-.004.446.067.878.213 1.298.14.365.413.899.89.899a.824.824 0 00.65-.424c.356-.485.452-1.194.452-1.773a3.797 3.797 0 00-.213-1.297c-.14-.365-.413-.899-.89-.899a.824.824 0 00-.65.423" fill="#BEBEBE"/><path d="M228.758 162.987c-.03.516-.062 1.03-.094 1.546-.052.59-.11 1.18-.165 1.768a46.945 46.945 0 00-.182 3.192c-.044 1.513-.002 3.033.013 4.546.017 1.579.102 3.146.188 4.722.099 1.78.344 3.525.624 5.282.254 1.6.479 3.203.771 4.798.344 1.873.845 3.704 1.337 5.544.379 1.416.843 2.79 1.343 4.168a136.345 136.345 0 001.648 4.35 62.25 62.25 0 002.159 4.84 20.27 20.27 0 001.203 2.078c.428.646.862 1.288 1.263 1.949.838 1.382 1.615 2.805 2.492 4.163.806 1.247 1.648 2.5 2.612 3.63.223.26.469.5.707.746.63.652 1.24 1.3 1.964 1.85.626.477 1.287.921 1.957 1.331a40.435 40.435 0 004.03 2.18c.334.214.667.214 1 0 .634-.375.888-1.344 1.001-1.994a6.19 6.19 0 000-1.992c-.113-.655-.367-1.615-1-1.995-1.126-.674-2.129-1.495-3.124-2.343a46.852 46.852 0 00-1.17-.963c-.718-.57-1.47-1.12-2.138-1.75-.43-.46-.855-.924-1.26-1.406-.413-.492-.768-1.02-1.138-1.544a46.11 46.11 0 01-2.175-3.347c-.339-.579-4.684-9.924-6.624-19.495-2.107-10.397-1.806-21.088-1.76-21.841.126-1.466-.086-7.53 0-9 .005-.551-2.832 3.9-3.013 3.38-.174-.452-.513-1.115-1.103-1.115-.353.04-.623.215-.806.525-.46.626-.516 1.458-.56 2.197z" fill="#161616" opacity=".2"/><g fill="#161616"><path d="M252.945 141.827c.175-.03.348-.072.52-.113l.222-.052.086-.021c1.286-.297 2.615-.605 3.872-1.089l.535-.207.534-.205a5.91 5.91 0 00.206-.083l-.165.237a181.165 181.165 0 01-1.191 1.82c-.154.231-.306.46-.454.69a11.06 11.06 0 00-.512.912c-.042.091-.07.177-.087.262l-.036.16-.038.157c.001.146.007.289.02.432.035.447.44.832.802.968.296.11.587.132.974.073.136-.024.25-.055.36-.086l.135-.037c.246-.06.49-.126.733-.196.636-.179 1.275-.39 1.893-.593l.07-.023.214-.07c1.007-.333 2.047-.676 2.975-1.227.863-.515 1.679-1.133 2.468-1.73l.46-.35c.5-.374.968-.792 1.367-1.154.081.464.182.963.328 1.454.158.535.338 1.103.637 1.654.09.154.183.306.283.454.142.179.304.322.458.45.172.142.535.265.754.288.114.011.28.002.445-.023.099.525.253 1.064.39 1.54l.015.057c.405 1.425 1.087 2.756 1.7 3.872l.31.558.101.183c.182.328.363.655.54.985l.185.337.023.042c.224.41.455.835.657 1.263.148.312.293.627.438.94l.031.069c.386.836.785 1.7 1.232 2.523.6 1.102 1.14 2.062 1.648 2.936.167.288.338.575.51.86l.018.032c.362.608.736 1.236 1.066 1.874.497.962.979 1.906 1.404 2.882l.07.16c.18.406.364.826.516 1.257.158.449.311.897.462 1.348l.012.045c.242.857.491 1.743.784 2.614.108.318.271.626.415.897l.048.09c.112.21.246.429.411.67.163.238.321.47.521.66.237.228.533.465.93.501.157.02.316.02.474.001.152-.038.3-.089.441-.152a8.34 8.34 0 00.395-.255c.105-.087.201-.18.286-.276.1-.102.195-.21.29-.318l.022-.026.043-.05c.15-.172.297-.347.444-.522l.06-.072.326-.388.378-.446a77.714 77.714 0 011.626-1.888c.25-.261.474-.483.687-.679-.065.5-.111.993-.16 1.54-.026.262-.048.522-.07.782l-.006.072c-.028.328-.056.655-.087.983l-.044.461c-.105 1.068-.212 2.172-.138 3.27.092 1.345.21 2.684.354 3.98l.146 1.312c.099.887.197 1.772.294 2.659.052.481.092.969.133 1.467a30.397 30.397 0 01-.064 2.991.438.438 0 00-.118.02c-.272.082-.543.167-.814.253l-.14.043c-.264.079-.531.151-.798.224-.689.187-1.4.38-2.066.681-.509.232-1.051.495-1.572.851-.35.24-.704.548-1.115.97a53.93 53.93 0 00-2.387 2.596 18.87 18.87 0 00-.954 1.231c-.257.355-.47.746-.7 1.184a14.917 14.917 0 00-.827 1.925c-.111.312-.219.625-.325.94l-.051.15a7.49 7.49 0 01-.352.912c-.076.138-.154.275-.233.413a25.62 25.62 0 00-.349.627c-.26.491-.52.984-.775 1.479l-.75 1.463c-.093.184-.184.369-.275.554-.086.173-.17.346-.258.517-.185.322-.38.638-.576.954-.159.256-.317.512-.47.772l-.337.574c-.24.41-.478.82-.728 1.226-.818 1.325-1.568 2.512-2.479 3.598a9.156 9.156 0 01-1.155.94c-.24.145-.491.282-.747.409l-.161.08c-.31.154-.63.313-.957.44a5.117 5.117 0 01-.68.11 5.358 5.358 0 01-.798-.08 2.501 2.501 0 01-.182-.062c-.22-.227-.411-.46-.596-.684a7.173 7.173 0 00-.96-1.008l-.058-.053a3.036 3.036 0 00-.623-.445 4.845 4.845 0 00-.467-.236 2.177 2.177 0 00-.51-.141c-.704-.163-1.446-.08-2.164.002a13.24 13.24 0 00-.704.103c-.293.05-.585.109-.877.167l-.077.015c-1.353.267-2.546.57-3.648.925a3.25 3.25 0 00-1.659 1.215 10.08 10.08 0 00-.343.534l-.09.148-.063.1c-.236.386-.48.784-.775 1.139-.28.283-.54.513-.798.702a3.548 3.548 0 01-.425.195 4.953 4.953 0 01-.632.105 4.87 4.87 0 01-.726-.075 2.728 2.728 0 01-.24-.085 7.898 7.898 0 01-.857-.645 21.803 21.803 0 01-1.215-1.339l-.26-.3a17.84 17.84 0 01-1.319-1.726c-.28-.455-.544-.924-.784-1.392a34.265 34.265 0 00-.79-1.473 84.288 84.288 0 00-1.497-2.478l-.31-.502c-.285-.462-.636-.999-1.08-1.469a19.357 19.357 0 00-1.344-1.277 30.77 30.77 0 00-1.365-1.113c-.401-.311-.938-.7-1.537-.953a3.046 3.046 0 00-1.029-.237 2.542 2.542 0 00-.571.037 4.292 4.292 0 00-.518.127c-.426.13-.873.306-1.329.522a37.22 37.22 0 00-.757.374l-.07-.219c-.222-.65-.443-1.3-.654-1.953-.61-2.07-1.114-4.14-1.62-6.257a219.009 219.009 0 01-.781-3.396c-.232-1.034-.393-2.099-.548-3.129l-.008-.048a59.232 59.232 0 01-.41-3.4c-.08-.861-.127-1.74-.172-2.589l-.04-.75a59.68 59.68 0 00-.303-3.307c-.125-1.116-.345-2.241-.539-3.234-.21-1.075-.44-2.355-.574-3.692a78.493 78.493 0 01-.313-4.463c-.01-.43.005-.842.044-1.258.345-.365.646-.694.932-1.015.45-.504.87-1.03 1.278-1.537l.045-.056c.381-.477.735-1.011 1.047-1.482l.074-.114c.222-.334.438-.672.654-1.01l.324-.506c.456-.708.91-1.416 1.362-2.125l.233-.364a467.383 467.383 0 012.8-4.344 94.971 94.971 0 011.632-2.382c.274-.391.54-.772.804-1.155.474-.69.954-1.375 1.435-2.06.48-.68 1.04-1.38 1.662-2.076.604-.634 1.148-1.116 1.714-1.516a4.928 4.928 0 011.11-.496 28.164 28.164 0 013.851-.832c.685-.1 1.373-.186 1.956-.258l.619-.08.302-.04c.049-.006.097-.014.145-.023m22.04-43.567a1.037 1.037 0 00-.28.089 5.041 5.041 0 00-.807.526c-.308.236-.587.436-.851.613-.863.526-1.812.968-2.635 1.342-.532.24-1.11.496-1.723.743-.463.185-.93.341-1.382.492l-.056.018-.31.093c-.412.124-.877.265-1.34.376l-.318.078-.167.041c-.47.118-.955.24-1.44.323l-.049.009-.088.014c-.726.124-1.38.234-2.039.321-.778.104-1.545.192-2.203.266-1.248.138-2.54.248-3.95.337l-.423.025c-.467.026-.997.056-1.512.121-.617.078-1.183.162-1.73.257l-.332.06c-1.083.2-2.505.47-3.904.78a13.73 13.73 0 00-2.91.999c-.664.315-1.324.637-1.983.962-.424.209-.846.436-1.255.656l-.432.232a11.64 11.64 0 00-.579.334l-.296.177-.125.072c-.247.144-.51.298-.755.462a50.98 50.98 0 00-1.74 1.204c-.533.39-1.06.807-1.526 1.174l-.147.116a31.99 31.99 0 00-2.69 2.386l-.127.126a44.91 44.91 0 00-1.402 1.426 73.17 73.17 0 00-1.553 1.74c-.56.646-1.083 1.345-1.544 1.962l-.07.093c-.23.307-.46.613-.695.914-.48.62-.92 1.162-1.343 1.658-.293.346-.6.684-.914 1.03l-.258.284a123.52 123.52 0 01-2.584 2.63c-.297.295-.622.597-.883.84-.14.129-.28.258-.417.388-.143.136-.294.264-.445.392l-.205.175c-.357.311-.746.64-1.175.942-.205.127-.417.246-.628.366l-.192.109c-.426.24-.8.416-1.177.55a3.72 3.72 0 01-.309.072c-.055.01-.11.016-.166.02a.914.914 0 00-.38.114c-.4.231-.602.618-.526 1.01.047.233.14.41.283.637.133.209.29.431.48.679.32.413.696.76 1.055 1.074a8.144 8.144 0 002.367 1.424c.24.096.505.153.738.203l.157.036c.374.083.76.098 1.121.102.32.001.636-.022.902-.046-.38.487-.783.945-1.127 1.328-.789.792-1.604 1.611-2.535 2.306-.34.254-.698.5-1.015.715-.17.117-.341.234-.51.353-.248.173-.5.345-.754.514l-.287.195c-.737.444-1.594.957-2.439 1.422a8.174 8.174 0 01-.19.101l-.052.026c-.217.113-.438.227-.622.372a1.518 1.518 0 00-.456.543.743.743 0 00-.105.321l.001.086v.048c0 .17 0 .344.08.494.286.531.67 1.027.973 1.4.287.35.615.678.904.966.43.429.82.79 1.202 1.113.208.178.452.32.688.457l.171.099c.26.155.544.296.794.42.385.19.805.296 1.167.375a22.48 22.48 0 01-.745.945l-.347.426a45.435 45.435 0 01-1.446 1.723c-.452.49-.939 1.007-1.465 1.469l-.686.602-.267.233c-.86.755-1.722 1.507-2.587 2.255a.8.8 0 00-.071 1.144c-.04.047-.076.105-.109.164a1.996 1.996 0 00-.26.684c-.04.21-.021.408.001.573.06.416.365.818.84 1.103.221.133.468.218.707.3.141.047.301.102.451.167.158.092.314.188.47.284l.056.035c.236.145.468.29.707.421.325.183.669.364 1.05.554a5.46 5.46 0 001.508.496 6.518 6.518 0 002.192.01 7.02 7.02 0 00.302-.06c-.07.179-.133.365-.196.551a15.364 15.364 0 01-.8 1.964c-.601 1.051-1.37 1.99-2.24 3.019-.39.46-.8.913-1.197 1.35l-.06.066-.445.473-.219.231c-.105.092-.21.2-.31.322-.126.138-.2.286-.265.427-.118.248-.117.543.004.83.133.319.388.569.68.67.351.122.693.088 1.01.033.083-.014.166-.03.25-.048l.042-.007a13.766 13.766 0 01.903-.145 24.06 24.06 0 011.753-.145c.332-.02.602-.046.85-.08l.112-.019c.26-.045.519-.12.747-.186l.098-.027a29.714 29.714 0 002.022-.67c.558-.207 1.073-.505 1.674-.889.657-.42 1.22-.81 1.722-1.196.535-.407 1.053-.81 1.527-1.268.214-.206.425-.416.64-.631.007.43.032.864.057 1.298l.006.104.051.89.053.905c.032.541.075 1.082.118 1.623l.012.147c.031.388.083.782.134 1.163l.062.48c.063.521.159 1.048.25 1.556.089.489.18.994.244 1.494l.063.478c.05.373.103.758.137 1.139.015.185.033.37.051.556.037.375.075.763.093 1.144l.068 1.45.008.314c.046 2.052.095 4.173.356 6.243l.01.085c.144 1.135.292 2.309.488 3.457.158.93.367 1.869.568 2.777l.08.364a221.41 221.41 0 001.231 5.321c.213.863.452 1.787.751 2.698.189.572.375 1.147.56 1.72a.803.803 0 00-.12.219.943.943 0 00.03.733.99.99 0 00.54.486c.27.881.555 1.778.843 2.664.166.512.337.998.508 1.443.054.144.108.288.16.432.124.334.25.678.393 1.01.482 1.12.9 2.058 1.366 2.99.152.302.303.606.454.91.336.678.685 1.379 1.04 2.062.458.885.96 1.808 1.626 2.992.627 1.12 1.266 2.056 1.951 2.864.4.468.807.926 1.245 1.4.295.319.608.627.912.926l.216.214c.306.302.628.598.939.885l.312.29c.379.35.824.754 1.307 1.1a44.21 44.21 0 001.516 1.046c.428.28.88.535 1.304.768.647.355 1.224.652 1.763.91.405.192.842.37 1.415.574l.493.175c.854.304 1.737.619 2.617.895 1.16.363 2.338.68 3.501.943.472.107.936.208 1.414.255.338.033.683.041 1.017.049l.224.005c.426.011.851.01 1.277.01l.314-.002c1.058-.005 2.176-.08 3.517-.237l.21-.025a22.401 22.401 0 001.436-.2 8.29 8.29 0 00.744-.168l.105-.03c.49-.142.995-.288 1.46-.519l.82-.406c.177-.088.35-.19.518-.288l.225-.131c.4-.227.789-.486 1.165-.736.134-.09.267-.179.402-.266.345-.226.684-.464 1.022-.7l.386-.269.092-.064c.384-.266.78-.54 1.153-.834.482-.378.959-.76 1.434-1.147.316-.257.628-.53.93-.794l.301-.263c.317-.276.627-.571.925-.857l.196-.187.26-.248c.312-.297.625-.595.932-.897.391-.383.79-.809 1.253-1.34l.16-.18c.114-.127.229-.255.334-.39l.32-.41.32-.411c.725-.93 1.304-1.772 1.77-2.575a41.728 41.728 0 001.646-3.148 40.21 40.21 0 001.305-3.032 94.803 94.803 0 001.118-3.134c.241-.716.472-1.459.685-2.208.255-.895.462-1.787.614-2.464.237-.977.504-1.963.763-2.916.255-.94.519-1.911.753-2.875.076-.315.155-.63.235-.945.118-.464.235-.929.342-1.395a.346.346 0 00.072.007 1.89 1.89 0 00.383-.027c.334-.058.656-.204.985-.447.151-.11.3-.224.45-.339l.045-.035.292-.225c1.017-.766 1.871-1.69 2.697-2.582a37.8 37.8 0 001.42-1.652c.292-.355.593-.7.893-1.048l.31-.357c.471-.547.855-1.034 1.173-1.489.308-.437.573-.925.807-1.357l.14-.252c.347-.635.726-1.346 1.157-2.175.236-.459.44-.95.636-1.424l.174-.416c.301-.717.58-1.444.888-2.251.178-.467.356-.933.54-1.397.437-1.102.924-2.17 1.426-3.259.5-1.088.985-2.083 1.481-3.043a18.255 18.255 0 012.29-3.282c.331-.344.773-.79 1.258-1.203.165-.14.326-.281.487-.424l.15-.133c.569-.5.916-.94 1.093-1.382.372-.926.221-1.96.035-2.939-.121-.632-.245-1.265-.375-1.897l-.155-.775c-.202-1.01-.411-2.054-.675-3.071l-.072-.277c-.148-.568-.296-1.136-.466-1.689l-.079-.261-.039-.132a11.6 11.6 0 00-.252-.796l-.204-.555-.205-.554c-.462-1.255-.996-2.457-1.458-3.467a76.318 76.318 0 00-1.872-3.86 90.478 90.478 0 00-1.849-3.31c-.42-.72-.755-1.307-1.086-1.9a65.275 65.275 0 01-.927-1.751l-.018-.035c-.35-.684-.628-1.396-.874-2.024-.186-.594-.348-1.142-.416-1.72.005-.081.012-.163.024-.245.014-.04.03-.081.047-.12.194-.283.433-.54.665-.788l.046-.05.417-.432.152-.159c.245-.251.506-.491.76-.724l.027-.026c.135-.124.282-.236.423-.344l.04-.031.142-.11.162-.128c.212-.17.425-.337.64-.501.53-.404 1.063-.8 1.601-1.194l.22-.16c.442-.32.9-.653 1.31-1.044.258-.245.52-.526.675-.914.092-.234.086-.465.073-.682a1.473 1.473 0 00-.095-.385l-.033-.096-.036-.058-.026-.041a1.09 1.09 0 00-.253-.343 2.976 2.976 0 00-.383-.33 7.002 7.002 0 00-.449-.3 32.857 32.857 0 00-1.889-1.054 158 158 0 00-1.787-.916l-.161-.082c-.452-.23-.904-.46-1.355-.694-.786-.407-1.573-.816-2.358-1.225a61.722 61.722 0 01-4.51-2.913 32.208 32.208 0 01-2.036-1.617 15.534 15.534 0 00-1.094-.822l-.081-.059a7.76 7.76 0 00.533-.071l1.048-.165 1.049-.163c.58-.091 1.162-.18 1.742-.27.232-.036.465-.07.697-.104l.469-.07c.088-.014.178-.026.268-.038.146-.019.29-.038.432-.062.235-.042.555-.156.74-.316a3.48 3.48 0 00.317-.325l.054-.06c.188-.211.227-.573.184-.82-.058-.333-.249-.537-.447-.708-.277-.238-.621-.395-.954-.548-.11-.05-.211-.096-.308-.144a38.255 38.255 0 00-.837-.393c-.578-.267-1.2-.548-1.828-.799a325.83 325.83 0 00-1.956-.774l-.309-.122c-.476-.189-.968-.385-1.458-.553l-.992-.34c-.33-.113-.66-.225-.99-.34a7.821 7.821 0 00-.602-.172 15.54 15.54 0 01-.309-.082l-.516-.144-.51-.142c-.357-.1-.728-.177-1.086-.252l-.254-.052a20.086 20.086 0 00-1.33-.232 34.595 34.595 0 00-1.732-.191l-.56-.054c-.474-.044-.947-.087-1.422-.126-1.976-.163-4.275-.335-6.541-.3-.717.009-1.444.034-2.086.056l-1.042.034c-.54.016-1.113.03-1.676.005.231-.196.434-.425.584-.601.65-.754 1.191-1.577 1.636-2.282a15.148 15.148 0 001.45-3c.212-.595.36-1.16.45-1.726.042-.26.047-.56.015-.826-.05-.396-.154-.693-.322-.906a1.2 1.2 0 00-.262-.271.932.932 0 00-.441-.163 1.406 1.406 0 00-.539-.016"/><path d="M230.07 166.345c.001-.003.004-.004.006-.007l.001-.017a.715.715 0 00-.008.024m2.282-4.393a5.154 5.154 0 00-.655.98c.187-.265.383-.524.58-.782l.054-.07a.7.7 0 00.03-.041l.19-.322c-.067.078-.134.156-.199.235m54.908-8.423c-.325.116-.634.246-.917.45-.22.158-.422.333-.622.514-.522.472-1.02.957-1.483 1.489-.563.645-.96 1.385-1.272 2.177-.2.506-.429 1.085-.295 1.637l.096.304c.09.19.22.345.391.466.222.193.479.278.764.33.432.076.904.001 1.336-.06.774-.111 1.51-.347 2.248-.595.63-.213 1.26-.433 1.89-.646 1.523-.447 3.072-.846 4.64-1.089.643-.1 1.08-.744.971-1.376-.112-.648-.736-1.07-1.377-.97-1.231.19-2.44.493-3.645.807-1.309.343-2.58.808-3.861 1.243-.22.063-.442.12-.665.168l.012-.025c.24-.415.533-.79.85-1.15.247-.256.505-.5.77-.74.212-.192.422-.383.648-.558a4.99 4.99 0 01.537-.222c.278-.099.51-.395.608-.66a1.192 1.192 0 00-.699-1.532 1.112 1.112 0 00-.597-.052c-.108.019-.217.05-.328.09m-25.375 3.568c-.639.142-1.267.334-1.896.518-.38.112-.755.24-1.132.365-.309.1-.615.203-.92.313l-.753.273c-.14.051-.287.096-.424.155-.444.192-.89.379-1.33.58a.491.491 0 00-.233.647.494.494 0 00.65.234c.287-.131.577-.256.868-.378.174-.073.346-.155.523-.217l1.431-.507c.234-.071.466-.146.7-.218.224-.07.448-.149.676-.208l.968-.257c.253-.067.511-.118.766-.175.218-.048.442-.086.663-.112.272-.033.543-.071.816-.098.286-.025.573-.062.86-.08l.825-.05c.378-.01.756-.02 1.135-.016.402.004.808.005 1.209.038.223.018.449.029.67.057l.682.086c.396.05.789.126 1.18.202.384.102.762.21 1.141.327.38.117.77.24 1.132.405.397.18.783.38 1.175.574.408.203.842.326 1.288.418.225.046.464-.136.54-.338.104-.276-.045-.557-.306-.67a5.725 5.725 0 01-.168-.076c-.5-.276-.995-.56-1.495-.834a7.401 7.401 0 00-.926-.43 11.82 11.82 0 00-.806-.274 21.29 21.29 0 00-.967-.271 14.9 14.9 0 00-1.026-.207c-.296-.053-.6-.08-.898-.11-.338-.035-.673-.06-1.012-.08-.29-.019-.581-.016-.871-.019-.33-.004-.662.002-.99.019-.605.029-1.211.056-1.813.128-.49.059-.983.112-1.47.196a10.18 10.18 0 00-.462.09m-18.762 4.888c-.584.176-1.172.348-1.745.56-.554.202-1.107.406-1.656.622-.541.213-1.074.446-1.605.685-.504.228-.991.487-1.474.755-.492.273-.972.572-1.434.893-.24.167-.482.329-.718.5-.23.169-.47.33-.694.507-.221.175-.45.343-.662.529-.222.193-.447.382-.661.582-.305.284-.61.571-.88.889l-.02.025.033.378c.018.262.037.523.048.784a8.205 8.205 0 01.692-.374c.1-.117.2-.233.303-.348a17.444 17.444 0 011.922-1.694c.402-.3.806-.593 1.214-.883.326-.231.662-.45.998-.667.245-.138.49-.281.734-.421.233-.135.478-.251.717-.375.454-.236.924-.443 1.394-.644.957-.412 1.93-.777 2.912-1.12.446-.135.89-.272 1.338-.393a21.95 21.95 0 013.592-.622c.265-.026.44-.316.397-.562a.488.488 0 00-.199-.315.513.513 0 00-.364-.082c-.619.06-1.237.14-1.85.245-.787.136-1.565.314-2.332.546"/><path d="M234.295 167.345a.425.425 0 01.021.02l-.021-.02m-.018-.002h.001a.213.213 0 01.017.028l-.018-.028m4.424-3.445l.003-.001-.003.001v.001a.878.878 0 00-.042.026l.042-.027m-.089.642a1.607 1.607 0 00-.071-.167 1.115 1.115 0 00-.094-.155c.063-.09.132-.178.205-.263a.805.805 0 01.067-.062 1.85 1.85 0 01.162-.02c.033 0 .065.002.098.006l-.042.081c-.08.16-.152.325-.226.487-.026.058-.05.115-.07.173a3.22 3.22 0 00-.029-.08m7.944-2.396a.289.289 0 01.011.035l-.01-.035m-1.608-1.456a1.002 1.002 0 00-.387.168.973.973 0 00-.133.102c-.052-.016-.106-.025-.16-.037l-.062-.001a1.21 1.21 0 00-.202.014c-.082.01-.186.047-.26.074a2.33 2.33 0 00-.458.247 1.58 1.58 0 00-.27.223 1.096 1.096 0 00-.595-.045c-.18.035-.333.135-.48.237-.052.035-.1.076-.146.12a1.005 1.005 0 00-.315-.11c-.336-.065-.672.103-.914.325a2.966 2.966 0 00-.488.621.509.509 0 00-.054.027c-.08.037-.152.093-.222.144a1.86 1.86 0 00-.306.284c-.24-.13-.53-.143-.801-.112a1.003 1.003 0 00-.618.271c-.06.054-.11.117-.164.177a3.07 3.07 0 00-.225.29c-.119 0-.233.028-.347.066-.303.099-.543.33-.734.578a1.13 1.13 0 00-.327-.01c-.162.02-.32.08-.462.159a2.51 2.51 0 00-.763.67 2.022 2.022 0 00-.341.214c-.224.17-.403.4-.56.632a3.851 3.851 0 00-.254.44 2.212 2.212 0 00-.992.478 3.027 3.027 0 00-.324.326 2.94 2.94 0 00-.383.544c-.042.03-.082.064-.12.101-.239.229-.37.54-.49.842l.014.164c.018.261.036.522.048.784.073-.045.146-.088.221-.13a9.81 9.81 0 011.054-.503l.138-.126c.076-.07.153-.138.23-.205.02-.15.012-.3-.022-.448a1.694 1.694 0 00-.077-.231.373.373 0 00-.033-.065c.043-.06.089-.12.138-.176.071-.074.146-.144.225-.209l.005.055c.007.077.072.2.121.257a.6.6 0 00.22.161c.196.073.404.006.58-.086a2 2 0 00.38-.272.93.93 0 00.25-.334l.013-.034.007-.024a.7.7 0 00.234-.06c.135-.062.262-.145.38-.234.116-.09.215-.21.308-.324.021-.027.043-.054.061-.083.038.04.08.079.126.116.13.104.315.115.471.088a.934.934 0 00.513-.306.54.54 0 00.142-.009c.078-.015.151-.04.226-.066.08-.025.15-.075.218-.12.25-.16.437-.414.608-.653a2.42 2.42 0 00.218-.405l.012-.03a.49.49 0 00.486.22c.281-.033.532-.25.681-.48.068-.105.116-.22.15-.34.03.02.062.035.094.045.072.02.144.04.22.043a1 1 0 00.836-.395c.026-.034.05-.07.073-.106.307.18.675.013.932-.179a.837.837 0 00.109-.103c.14.09.307.124.469.077a1.01 1.01 0 00.223-.09c.072-.043.144-.086.211-.133a2 2 0 00.345-.315c.07-.081.13-.167.181-.257a.64.64 0 00.112.174.59.59 0 00.544.19.984.984 0 00.504-.26c.056-.053.103-.11.144-.171.04.021.083.04.119.056.25.106.536-.048.691-.242.08-.101.143-.218.187-.34.126.103.284.113.438.095a.587.587 0 00.244-.109.582.582 0 00.122-.104l.007-.008c.042.042.088.08.146.098a.783.783 0 00.137.035c.048 0 .098-.003.145-.007a.348.348 0 00.17-.069l.005.004c.108.076.26.072.364-.012.22-.18.202-.518.192-.773l-.004-.066c.013-.037.028-.074.044-.11a1.25 1.25 0 01.116-.16.192.192 0 01.029-.028.275.275 0 00.033-.383c-.093-.11-.275-.135-.384-.033l-.044.04a.707.707 0 00-.046-.041c-.054-.049-.137-.063-.207-.063a.768.768 0 00-.046-.062.624.624 0 00-.606-.26.74.74 0 00-.216.058 1.656 1.656 0 00-.3.178 1.01 1.01 0 00-.6.095.677.677 0 00-.365-.245.376.376 0 00-.174-.028.747.747 0 00-.168.01l-.015.003m30.986-.659zm-.04-.001l-.015.004c.006-.002.01-.004.015-.004zm.003-.002l.02-.006-.02.007v-.001zm-19.17-.406a.118.118 0 01-.01.012c.002-.004.006-.008.01-.012zm.008-.213a2.59 2.59 0 01.271-.385l.08-.077a2.132 2.132 0 01-.132.359c-.06.104-.129.2-.206.292a1.727 1.727 0 01-.133.12c.031-.107.073-.208.12-.309zm.894-.741zm-.06 0l.028-.004h.005a2.098 2.098 0 01-.035.273c.01-.09.012-.18.001-.27zm.015-.022l.019.01-.02-.01zm10.69-1.858c.002.004.003.01.005.012v.002l-.005-.014zm-8.47 1.35a.358.358 0 00-.016-.078c.045-.044.092-.089.14-.131l-.015.03a3.32 3.32 0 00-.107.226c0-.016 0-.031-.002-.048zm2.976-2.076c-.102.032-.186.06-.279.108a1.963 1.963 0 00-.37.264.795.795 0 00-.332-.1c-.187-.02-.377.049-.547.12-.15.063-.29.163-.419.263a1.787 1.787 0 00-.152.133c-.213-.077-.463-.01-.677.06-.315.106-.579.352-.815.575a2.48 2.48 0 00-.064.062.903.903 0 00-.44.148 2.29 2.29 0 00-.612.586c-.175-.213-.481-.237-.733-.167a1.219 1.219 0 00-.064.019c-.046-.036-.112-.062-.164-.087a.342.342 0 00-.18-.026c-.305.05-.541.279-.741.497a2.628 2.628 0 00-.448.722 2.93 2.93 0 00-.134.423 1.257 1.257 0 00-.023.49c.035.266.285.462.525.54a.89.89 0 00.404.01c.09-.015.182-.04.271-.07l.027.002c.317.028.658.008.962-.09.3-.095.565-.268.815-.454.183.003.368-.033.543-.089a2.73 2.73 0 00.76-.388l.09-.02c.15-.038.297-.086.438-.14.103.025.21.039.319.042.396.01.76-.128 1.115-.292a4.8 4.8 0 00.539-.292c.131.01.265-.001.393-.013.151-.014.3-.056.445-.096a3.59 3.59 0 00.53-.197c.121-.057.238-.127.35-.203l.195-.011c.055-.004.11-.011.167-.02.065.043.137.08.217.114.144.062.323.075.48.082.18.007.362-.002.54-.021a2.45 2.45 0 00.433-.099c.136.064.28.103.426.13.182.033.36.022.545.012.243-.015.488-.072.72-.153.035.015.068.03.104.044.159.06.337.073.506.076a3.08 3.08 0 00.606-.05.92.92 0 00.442.38c.29.117.601.138.91.13.296-.006.587-.036.874-.102.077.083.164.156.254.226.25.194.543.274.846.34.25.053.506.05.76.035.13.166.335.269.522.354.131.062.267.104.405.14.198.036.395.084.581.156.262.1.51.226.756.358.286.153.558.319.802.532.072.064.147.126.22.19a.612.612 0 00.179-.377c.012-.186-.062-.417-.236-.514a.963.963 0 00-.387-.135c-.065-.004-.13-.004-.193-.009a1.012 1.012 0 01-.06-.007 2.3 2.3 0 01.24-.19l.026-.013a.435.435 0 00.02-.008c.189-.066.286-.304.254-.486-.044-.253-.277-.397-.523-.368-.076.008-.156.044-.227.073l-.02.009c-.071.01-.144.014-.217.017l.032-.002a2.214 2.214 0 01-.5-.05l-.282-.074a.371.371 0 00.04-.05.543.543 0 00.088-.25.464.464 0 00-.302-.485.77.77 0 00-.359-.039 1.79 1.79 0 00-.232.051c-.072.02-.144.044-.215.067a.795.795 0 00-.16.075c-.04.001-.078.003-.117.006-.075.002-.149.005-.224.006a2.965 2.965 0 01-.613-.059.672.672 0 00.24-.276.51.51 0 00.001-.473c-.089-.18-.266-.262-.455-.284-.172-.02-.355.063-.506.137a2.985 2.985 0 00-.362.216.684.684 0 00-.184.197l-.165.033a3.747 3.747 0 01-.62.052c.01-.004.017-.01.025-.014.132-.078.266-.16.388-.254.1-.08.18-.186.245-.293a.634.634 0 00.097-.425 2.844 2.844 0 00-.052-.162.607.607 0 00-.183-.218.778.778 0 00-.493-.115.922.922 0 00-.207.041c-.3.094-.594.243-.84.441 0-.008.003-.016.004-.023.02-.106.012-.208.007-.315-.005-.08-.045-.16-.071-.234l-.025-.04a.54.54 0 00-.179-.213.784.784 0 00-.455-.182 1.055 1.055 0 00-.285.025 1.187 1.187 0 00-.196.059.644.644 0 00-.23-.31c-.153-.11-.308-.193-.502-.194a1.314 1.314 0 00-.599.15 1.9 1.9 0 00-.147.081l-.081-.074a.58.58 0 00-.278-.103 2.109 2.109 0 00-.2-.042l-.063.001a.511.511 0 00-.22.024 1.358 1.358 0 00-.276.103c-.086.045-.167.104-.249.159a5.43 5.43 0 00-.466.357l-.005-.002a.593.593 0 00-.28-.104c-.089-.014-.177-.004-.266 0a.982.982 0 00-.26.074 1.499 1.499 0 00-.26.15h-.002a.9.9 0 00-.184-.196.227.227 0 00-.083-.057.571.571 0 00-.274-.103.804.804 0 00-.31-.001.98.98 0 00-.149.036zm-10.29 33.05l.094.05a.621.621 0 01-.094-.05m-2.851-23.336l.027.086a2.9 2.9 0 01-.027-.086m-.514-2.794a.61.61 0 00-.29.805c.298.644.577 1.293.797 1.968.285.941.514 1.908.657 2.88.117.798.227 1.594.31 2.395.181 1.72.348 3.444.447 5.171l.002.04.021 1.142c.009.405-.003.808 0 1.212.009.85.018 1.7.016 2.55 0 .421-.006.844-.01 1.264-.004.371-.007.747-.033 1.116a82.435 82.435 0 01-.221 2.538c-.117 1.1-.218 2.204-.175 3.312.002.052.007.105.015.156.057.375.298.653.569.895.607.545 1.442.553 2.209.443.636-.092 1.261-.27 1.88-.441.221-.061.403-.147.539-.341a.836.836 0 00.141-.624.837.837 0 00-.342-.538.858.858 0 00-.624-.14 17.45 17.45 0 00-.946.132c-.424.073-.843.17-1.272.206a2.188 2.188 0 01-.324-.025l-.032-.011a3.3 3.3 0 01-.013-.18 16.2 16.2 0 01.002-1.129c.016-.422.053-.84.091-1.26.074-.809.14-1.616.19-2.426.05-.823.045-1.648.045-2.473 0-.816-.02-1.632-.035-2.45-.017-.86-.02-1.723-.047-2.586-.027-.884-.119-1.76-.221-2.639a75.582 75.582 0 00-.297-2.24c-.06-.41-.117-.821-.184-1.23-.069-.424-.127-.849-.211-1.27-.13-.632-.256-1.265-.425-1.89-.111-.415-.22-.833-.342-1.247a20.825 20.825 0 00-.48-1.433c-.177-.463-.391-.914-.601-1.363a.612.612 0 00-.806-.289m10.959 8.063l.016.039-.016-.039m3.547-7.082c.25.047.489.128.732.202.237.072.48.127.715.206l.014.008c.225.207.424.442.65.648.146.134.29.265.444.391l.24.194c.158.13.304.26.438.41.174.258.3.544.445.818.165.31.342.615.487.934.093.251.16.508.216.77.044.207.086.412.12.62.037.336.055.68.025 1.017-.013.131-.025.263-.036.395-.035.208-.072.414-.118.622-.025.118-.064.233-.098.35a7.962 7.962 0 01-.184.58c-.23.49-.56.936-.873 1.378a4.277 4.277 0 01-.563.572c-.24.174-.485.35-.75.483-.148.055-.297.104-.446.154a5.48 5.48 0 01-.953.218 1.88 1.88 0 01-.212.009 3.153 3.153 0 01-.388-.115c-.121-.06-.238-.13-.355-.196a5.837 5.837 0 01-.518-.326c-.197-.161-.389-.33-.581-.499-.326-.283-.648-.563-.926-.895a8.47 8.47 0 01-.573-.906 12.658 12.658 0 01-.524-1.022 8.096 8.096 0 01-.463-1.767 6.321 6.321 0 01-.043-.596.497.497 0 00.322-.143c.1-.101.128-.213.144-.349l.067-.56a8.44 8.44 0 01.417-1.631c.04-.073.08-.145.124-.214.176-.192.363-.375.542-.564.24-.255.473-.51.741-.736.167-.12.342-.221.528-.308.18-.07.365-.127.554-.165.212-.016.426-.007.639.013m-.802-1.618c-.321.06-.632.2-.924.339a3.92 3.92 0 00-.886.61c-.26.227-.475.505-.69.775l-.253.322a2.793 2.793 0 00-.244.32l-.053.072a2.108 2.108 0 00-.224.368c-.08.176-.15.357-.203.543-.128.348-.225.708-.323 1.065-.091.327-.176.653-.254.983-.034.142-.048.29-.071.433a9.45 9.45 0 00-.063.51c-.023.242-.04.481-.037.725.002.285.043.57.08.852.037.279.078.555.14.83.068.305.178.597.29.889.12.317.252.634.405.938.082.165.162.33.252.492.228.417.516.794.837 1.142.226.242.48.465.72.691.246.234.506.446.787.635.175.117.363.22.545.325.227.129.484.21.735.28.199.056.413.08.618.078.134-.002.282-.03.41-.049.136-.02.27-.042.405-.066a5.07 5.07 0 00.811-.231c.302-.11.605-.221.879-.393.14-.09.28-.187.414-.288a6.74 6.74 0 00.778-.651c.33-.336.596-.742.86-1.13.141-.21.28-.42.405-.639.189-.332.316-.695.427-1.059.096-.312.187-.623.245-.946a8.17 8.17 0 00.145-1.42c.004-.596-.114-1.183-.226-1.766-.124-.649-.412-1.235-.69-1.827-.18-.38-.327-.79-.574-1.13a3.497 3.497 0 00-.447-.517c-.085-.08-.174-.154-.263-.229-.122-.106-.245-.21-.362-.322-.223-.211-.434-.435-.653-.65a3.692 3.692 0 00-.524-.434c-.11-.077-.249-.114-.373-.165-.078-.033-.162-.054-.243-.077-.084-.023-.17-.04-.254-.06a23.059 23.059 0 00-.885-.184 3.434 3.434 0 00-.663-.063c-.27 0-.538.029-.806.08"/><path d="M260.549 173.985l-.093-.12.093.12m3.74-9.928c.134.022.266.05.396.09.225.117.44.262.643.413.137.109.27.22.407.33.162.132.33.252.499.373.032.031.063.064.092.099.088.121.172.246.257.37.104.15.201.303.282.465.08.204.153.41.221.617.097.296.234.572.36.855.111.29.179.589.225.896.022.17.04.34.057.511.021.218.055.434.087.65.01.126.006.25-.006.374-.075.415-.218.805-.377 1.193-.107.241-.218.48-.322.723-.086.202-.18.4-.298.587a10.62 10.62 0 01-.439.63c-.105.145-.203.294-.306.44a3.48 3.48 0 01-.47.446c-.138.098-.285.185-.43.274a6.693 6.693 0 01-.621.35.548.548 0 01-.02.005h-.038a.634.634 0 00-.178-.07 5.055 5.055 0 00-.482-.079 3.045 3.045 0 01-.253-.054l-.271-.1c-.159-.08-.303-.183-.45-.283l-.263-.179a2.402 2.402 0 01-.111-.116c-.105-.162-.186-.34-.286-.505-.143-.234-.325-.442-.498-.654a7.075 7.075 0 01-.776-1.333 4.648 4.648 0 01-.301-1.011 5.193 5.193 0 01-.042-.47c-.008-.21.01-.419.025-.628.031-.422.046-.846.092-1.267.055-.36.128-.72.234-1.07.091-.301.213-.596.335-.888.1-.21.203-.419.306-.627.08-.162.182-.314.29-.46.114-.138.233-.263.365-.383.273-.174.58-.303.875-.436.104-.038.207-.07.315-.092.292-.02.584-.014.875.014m-1.284-2.026c-.383.073-.743.26-1.081.449-.4.224-.798.482-1.112.82a4.706 4.706 0 00-.696.98c-.151.281-.276.579-.4.872-.147.348-.271.706-.395 1.063-.097.286-.167.576-.24.87a7.92 7.92 0 00-.17 1.154c-.027.314-.061.628-.067.944-.006.364.049.732.11 1.09.053.312.105.623.185.93.15.592.403 1.146.69 1.683.21.397.464.77.74 1.124 0 .002.002.003.003.005a1.977 1.977 0 00.007.01c.148.196.274.407.417.607.119.165.246.333.4.468l.279.237c.325.28.675.468 1.078.616.165.06.335.124.51.155.15.025.302.053.454.062.113.027.23.047.344.066.121.022.245.039.368.05.168.013.333-.014.5-.042.115-.02.229-.076.337-.12.115-.048.23-.096.343-.148a5.47 5.47 0 00.373-.193c.19-.106.372-.22.545-.352.19-.146.388-.291.543-.476.153-.182.3-.368.427-.567.26-.41.551-.794.77-1.229.12-.242.214-.497.317-.747l.179-.426-.077.18c.147-.346.285-.691.398-1.049.11-.346.148-.708.19-1.068.073-.62.124-1.246.125-1.871a4.626 4.626 0 00-.12-1.073c-.06-.258-.159-.505-.226-.762s-.126-.513-.218-.762a3.74 3.74 0 00-.28-.619c-.091-.152-.19-.296-.288-.442a8.522 8.522 0 00-.318-.451c-.09-.118-.178-.244-.287-.348a2.562 2.562 0 00-.215-.175c-.21-.171-.41-.355-.615-.532a8.468 8.468 0 00-.963-.697c-.497-.317-1.112-.396-1.69-.404h-.062a5.88 5.88 0 00-1.112.118m-23.785 5.823l.127-.097.047-.037-.173.134m1.641 1.067c.077-.029.153-.06.23-.084.187.044.374.107.554.172.13.07.247.154.366.246-.07-.056-.142-.11-.214-.166.24.186.486.364.7.58.111.112.206.246.307.368.067.082.136.163.204.244.13.19.24.392.36.587.117.19.244.378.353.574.079.216.148.435.22.652.09.272.185.544.259.821.141.537.261 1.09.338 1.64l-.042-.315c.062.46.135.93.155 1.393.02.473-.023.948-.07 1.418a8.777 8.777 0 01-.36 1.5c-.126.247-.286.48-.452.704-.142.17-.298.326-.466.47-.074.048-.15.092-.228.132a2.136 2.136 0 01-.134.038h-.043a.513.513 0 00-.384-.184 1.41 1.41 0 01-.108-.004 7.925 7.925 0 00-.353-.056 2.626 2.626 0 00-.198-.017 4.615 4.615 0 01-.488-.297 4.713 4.713 0 01-.557-.557c-.322-.449-.568-.933-.79-1.436-.235-.612-.473-1.225-.668-1.851a10.685 10.685 0 01-.172-.625 5.38 5.38 0 01-.036-.769c.01-.314.048-.627.07-.94.044-.607.075-1.217.137-1.822.079-.493.2-.98.377-1.448a2.85 2.85 0 01.215-.36c.11-.126.23-.243.358-.353.088-.056.178-.106.273-.15.095-.037.191-.07.287-.105m.302-1.987a1.998 1.998 0 00-.822.263c-.101.057-.203.11-.308.16-.112.052-.225.104-.335.164-.126.07-.24.15-.352.236a4.488 4.488 0 00-.857.868 3.22 3.22 0 00-.438.837c-.275.75-.385 1.572-.378 2.368l-.039.238c-.07.448-.09.905-.095 1.358-.005.443.02.878.061 1.318.046.472.136.933.232 1.397.09.429.2.854.295 1.283.09.41.214.807.365 1.196.16.414.337.817.55 1.205.31.562.752 1.055 1.256 1.448.242.19.481.363.755.505.272.14.57.247.865.33.289.083.605.146.903.164a2.46 2.46 0 001.019-.16 3.42 3.42 0 00.759-.389c.179-.127.35-.267.513-.413.33-.289.586-.634.852-.98.13-.169.241-.348.353-.528.23-.373.334-.82.447-1.239.237-.874.313-1.793.313-2.696 0-.195-.035-.395-.058-.59a52.32 52.32 0 00-.121-.93c-.05-.366-.115-.727-.192-1.088-.077-.365-.15-.732-.27-1.087-.13-.385-.268-.77-.424-1.148-.126-.306-.247-.598-.44-.867-.118-.164-.232-.328-.347-.493-.163-.233-.31-.472-.489-.695-.134-.167-.278-.326-.419-.488-.125-.143-.249-.286-.387-.416-.2-.186-.436-.341-.658-.5-.332-.236-.67-.425-1.069-.526-.22-.056-.45-.073-.675-.101a1.57 1.57 0 00-.365-.004"/><path d="M241.698 173.28c-.232.047-.453.159-.664.263-.222.11-.423.256-.613.414-.102.083-.21.238-.28.34a2.288 2.288 0 00-.162.27 4.796 4.796 0 00-.278.702c-.17.537-.192 1.124-.127 1.68.03.266.071.53.137.79.061.248.163.49.266.723.218.492.548.913.907 1.313.077.086.151.17.234.249.102.1.226.18.34.267.188.138.422.225.642.293.13.038.308.058.432.067.094.007.185.007.278.003.344-.016.672-.097.951-.302.13-.094.23-.176.333-.294.088-.1.17-.214.245-.326.304-.31.53-.68.683-1.09.171-.46.25-.938.302-1.423.024-.227.033-.453.014-.68a4.084 4.084 0 00-.198-.936 6.692 6.692 0 00-.635-1.367 2.045 2.045 0 00-.55-.585c-.228-.167-.503-.271-.769-.36-.128-.043-.305-.058-.431-.07a6.189 6.189 0 00-.405-.019c-.219 0-.44.034-.652.078m22.258-6.313a1.842 1.842 0 00-.48.15 3.22 3.22 0 00-.888.58c-.235.21-.424.482-.6.741-.18.266-.298.57-.42.867-.248.603-.319 1.267-.266 1.914a5.048 5.048 0 00.219 1.11c.003.066.008.131.016.197.064.58.305 1.117.608 1.61.141.233.286.457.457.669.204.253.447.451.737.599.573.293 1.26.316 1.859.096.655-.241 1.172-.76 1.583-1.308.09-.12.174-.242.255-.368.099-.158.158-.34.229-.51.116-.279.175-.584.225-.878.12-.696.157-1.383.05-2.081a3.434 3.434 0 00-.274-.945 4.221 4.221 0 00-.547-.857c-.23-.291-.484-.563-.734-.837a3.867 3.867 0 00-.55-.52c-.276-.204-.57-.24-.9-.282a.85.85 0 00-.102-.005c-.158 0-.333.036-.477.058"/><path d="M264.643 168.69l.022.01-.022-.01m-.255-.075l-.027.004a.423.423 0 01.027-.004m-.284-.727c-.06.026-.112.07-.164.108-.055.04-.107.082-.159.125-.05.043-.097.088-.146.132l-.211.19c-.153.138-.14.394 0 .533.151.152.38.136.533 0 .109-.097.217-.194.329-.287a1.06 1.06 0 01.118-.07l.017-.005c.056.015.11.033.164.054.052.027.102.057.15.09.048.042.09.088.131.137.11.156.195.33.273.504a2.605 2.605 0 01.161.632c.026.258.04.513.047.771a5.17 5.17 0 01-.041.757c-.03.177-.065.352-.124.521-.046.106-.073.203-.04.321.03.106.1.2.197.255a.43.43 0 00.584-.153 2.33 2.33 0 00.266-.719c.043-.244.05-.494.056-.741.004-.214-.013-.43-.026-.644a5.267 5.267 0 00-.083-.728 3.392 3.392 0 00-.198-.645 3.816 3.816 0 00-.272-.524 1.55 1.55 0 00-.84-.65 1.318 1.318 0 00-.351-.062.903.903 0 00-.371.098"/></g></g><path d="M258.625 205.902c4.375-.741 4.375-6.201 4.375-7.582 0-.778-3.928-.014-7.253.988-2.578.778-4.747 1.672-4.747 2.275 0 1.381 3.25 5.061 7.625 4.32z" fill="#161616"/></g></svg>