<?xml version="1.0" encoding="UTF-8"?>
<svg width="500px" height="600px" viewBox="0 0 500 600" version="1.1" xmlns="http://www.w3.org/2000/svg" xmlns:xlink="http://www.w3.org/1999/xlink">
    <!-- Generator: Sketch 63.1 (92452) - https://sketch.com -->
    <title>rofl</title>
    <desc>Created with Sketch.</desc>
    <defs>
        <polygon id="path-1" points="0.154647532 0.195673348 38.0203102 0.195673348 38.0203102 33.8296946 0.154647532 33.8296946"></polygon>
    </defs>
    <g id="rofl" stroke="none" stroke-width="1" fill="none" fill-rule="evenodd">
        <path d="M305.498878,166.840949 L290.38155,200.439725 C283.803787,217.618284 277.365183,226.207563 271.065738,226.207563 C261.616571,226.207563 238.440539,215.343149 234.447598,207.891437 C231.785638,202.923629 230.454658,185.626643 230.454658,156.000478 C240.887597,143.717778 249.515562,137.576428 256.338555,137.576428 C260.930134,137.576428 271.372778,136.260279 284.626676,145.095647 C288.920756,147.958184 295.878157,155.206618 305.498878,166.840949 Z" id="Path-147" fill="#F1DDC2"></path>
        <g transform="translate(217.000000, 103.000000)">
            <path d="M74.3852005,70.4444951 C74.3854928,70.4477765 74.3857852,70.4507595 74.3863699,70.4537426 C74.3860776,70.4537426 74.3860776,70.4534443 74.3857852,70.453146 C74.3854928,70.4504612 74.3852005,70.4474782 74.3852005,70.4444951 M55.5499291,35.1731726 C55.2061195,36.1868227 55.0383077,37.2320933 55.0485401,38.3077914 C55.0485401,39.7187875 55.2815471,41.4048234 56.1130051,42.5911937 C57.6043086,44.717532 59.0251545,46.8844401 60.2954376,49.1545628 C60.9514825,50.6398375 61.5101731,52.1638923 61.9893432,53.7186728 C62.2013006,54.7332177 62.376129,55.7504475 62.5263995,56.7816977 C62.7000585,57.9725426 62.8418507,59.1693536 63.028958,60.3590053 C63.392063,62.6732775 63.6852952,64.9914277 63.9267806,67.3203171 C63.973265,68.2391052 63.9969458,69.1558052 63.990514,70.0766815 C63.5543201,73.7041048 62.7944892,77.3002059 61.9510446,80.847981 C61.4552103,82.7291103 60.9225393,84.5959207 60.3167795,86.4460259 C59.612496,88.5959306 58.7526796,90.6664853 57.8349768,92.7260026 C57.3353419,93.7175779 56.8283981,94.7058717 56.2831558,95.6711959 C55.4587144,97.1302196 54.590712,98.560009 53.741128,100.002626 C52.9257495,101.387967 52.1752739,102.808509 51.4546185,104.247546 C50.4828301,106.187741 49.5212741,108.124653 48.7082345,110.139126 C48.4717192,110.726494 48.2536223,111.325496 48.0697309,111.933746 C47.9703302,112.265763 47.8712218,112.598973 47.7773758,112.933674 C47.5809131,113.630521 47.4040383,114.335423 47.2417812,115.039131 C46.9026492,116.512175 46.9505955,118.159729 47.1985126,119.638441 C47.356092,120.764255 47.7294295,121.808332 48.3188175,122.76948 C48.7389318,123.497948 49.3546317,123.908121 50.164163,124 C50.5696596,123.867253 51.0184247,123.853233 51.3256899,123.543291 C51.8887659,122.975909 52.0290964,122.819596 52.3854773,122.323212 C52.6605834,121.939886 52.8868663,121.505252 53.1242587,121.098658 C53.3493721,120.715332 53.584718,120.337675 53.8153862,119.95763 C54.2433941,119.251536 54.6830962,118.553495 55.1321537,117.860228 C55.9954784,116.523809 56.8427235,115.175457 57.7060482,113.839038 C59.5642574,110.963052 61.4987713,108.141955 63.3511333,105.262688 C64.1334756,104.047382 64.8848283,102.799262 65.6110385,101.549054 C66.4460047,100.113298 67.3183924,98.6939493 68.1156448,97.2352239 C68.2223544,97.0392357 68.3296488,96.8429491 68.4363584,96.6469609 C68.7985864,96.957201 69.2225013,97.1266399 69.74991,97.2292578 C69.9346784,97.265353 70.487522,97.0219338 70.7009412,96.844739 C70.9968046,96.602513 71.3587402,96.1711599 71.5689436,95.9369882 C71.7963959,95.6840232 72.071502,95.4394107 72.2656258,95.158703 C72.540732,94.7565841 72.8173,94.3544651 73.0924061,93.9538377 C73.510474,93.345588 73.8382041,92.655602 74.1989703,92.011257 C74.758538,91.0137156 75.2052566,89.9278751 75.6961209,88.8942384 C76.0627342,88.1252008 76.3311162,87.2908338 76.6442285,86.4961417 C76.922843,85.7933284 77.1043955,85.0347316 77.3280472,84.3110367 C77.4584376,83.8904227 77.548483,83.4501203 77.6581161,83.0223469 C77.8270974,82.3604018 78.0089423,81.7008431 78.1551198,81.0332302 C78.3296558,80.2361516 78.5386898,79.4402663 78.6758043,78.6363267 C78.8880541,77.3732913 79.1292471,76.112344 79.297059,74.8433425 C79.4134163,73.9636327 79.530066,73.0851161 79.6464233,72.2051079 C79.861012,70.5867879 80.0735542,68.9401286 79.9753229,67.3062966 C79.9092506,66.2168764 79.8326536,64.9944108 79.1701768,64.0705514 C78.8251978,63.5902758 77.9984175,62.9029746 77.3897341,63.5019767 C76.8667108,64.0156628 76.5802028,64.3175503 76.315329,65.0445265 C76.167982,65.4505235 76.0723819,65.8732257 75.9832136,66.2971212 C75.8972612,66.6333141 75.8124782,66.970402 75.7288646,67.3071915 C75.6075373,67.2147161 75.4639909,67.1589325 75.2976408,67.1398408 C74.9789738,67.1956244 74.6854492,67.2690081 74.3840311,67.3960873 C74.2252822,67.5407666 74.0747193,67.6943951 73.9329271,67.8563762 C73.8154004,68.0276049 73.7159996,68.2047998 73.6098747,68.3831879 C73.4464482,68.6606142 73.2695733,68.9296879 73.0994226,69.2023412 C72.7874797,69.7023052 72.5155895,70.2300117 72.2290814,70.7439961 C71.9653771,71.2159191 71.7414331,71.7134966 71.5005325,72.1982469 C71.1958984,72.8142526 70.8903873,73.4299599 70.5956933,74.0510369 C70.7287149,72.9887626 70.7635052,71.8599658 70.8471188,70.7812846 C70.8757696,70.4268949 70.8529659,70.058783 70.841564,69.7023052 C70.7959566,68.2083795 70.7079577,66.7052063 70.5515477,65.2193349 C70.2214788,62.1127571 69.5636798,59.0622611 68.9126049,56.0126601 C68.5837054,54.4721984 68.3267252,52.9072754 67.9466636,51.379641 C67.6154252,50.0429235 67.2841868,48.7100841 66.874305,47.3954415 C66.6342814,46.6275971 66.3042125,45.8877936 65.9867148,45.1512716 C65.5335643,44.0991398 64.978382,43.0875779 64.4655911,42.0631888 C64.111549,41.3570942 63.7244708,40.6942541 63.2847687,40.0391701 C62.4237829,38.760921 61.5774148,37.4734244 60.7038577,36.2044228 C60.2001298,35.4747618 59.6966943,34.7465924 59.1850728,34.0240908 C58.834539,33.4170344 58.3229175,33.0754719 57.649039,33 C56.5263953,33 55.8823369,34.2910763 55.5499291,35.1731726" id="Fill-1" fill="#161616" fill-rule="nonzero" opacity="0.200000003"></path>
            <g id="Group-18" transform="translate(23.000000, 63.000000)">
                <g id="Group-5" transform="translate(15.682807, 32.332805)">
                    <g id="Fill-3-Clipped">
                        <mask id="mask-2" fill="white">
                            <use xlink:href="#path-1"></use>
                        </mask>
                        <g id="path-1"></g>
                        <path d="M25.0557398,18.4104192 C25.0545562,18.4122154 25.0530767,18.4140117 25.0515972,18.415808 C25.0885849,18.3676081 25.1252768,18.3194083 25.1622645,18.2712085 C25.2022113,18.2188174 25.2421581,18.1667256 25.2821049,18.1143345 C25.2063539,18.2128298 25.1311948,18.3116245 25.0557398,18.4104192 M25.6706242,17.6056916 C25.6182495,17.6742491 25.5661708,17.7425072 25.5137961,17.8110648 C25.4992969,17.8302249 25.4845018,17.8493851 25.4700026,17.8685453 C25.5365806,17.7808276 25.6034544,17.6931099 25.6706242,17.6056916 M34.6388225,0.777364468 C34.033111,1.34079354 33.7499328,2.07546673 33.4575816,2.8319945 C33.2865503,3.2762712 33.1489558,3.73581617 33.0010048,4.18967295 C32.7349889,5.00128624 32.4340565,5.80092442 32.1254307,6.59726945 C31.7008114,7.49809733 31.242755,8.38305819 30.8406242,9.29556181 C30.6095247,9.82186803 30.3136227,10.3128477 30.0292609,10.8110124 C29.7206351,11.3489943 29.4108257,11.8869763 29.0998326,12.4237607 C28.5648418,13.3464432 28.0378403,14.2924771 27.4194051,15.1612716 C26.7551051,16.0914385 26.0916928,17.0228029 25.4134853,17.9424916 C25.330041,18.0520639 25.2463007,18.1616362 25.1622645,18.2712085 C25.1249809,18.3197077 25.0879931,18.3682069 25.0510054,18.4167061 C25.0513013,18.4164067 25.0513013,18.4161073 25.0515972,18.415808 C25.0480464,18.420598 25.0444955,18.4250887 25.0409447,18.4298787 C25.045975,18.4232924 25.0507095,18.4170055 25.0557398,18.4104192 C25.0663923,18.3963484 25.0773407,18.3822776 25.0879931,18.3679075 C24.0061754,19.7854615 22.868728,21.1596058 21.6874872,22.4939327 C21.0365027,23.2283065 20.3639175,23.9369339 19.6691395,24.6290954 C19.039756,25.2571901 18.3562223,25.8230142 17.6667706,26.3813538 C16.9335254,26.9501717 16.1958417,27.5067151 15.4134768,28.0078736 C14.5556568,28.5572319 13.6593696,29.0113881 12.7417775,29.4430909 C11.9236084,29.7646227 11.1039598,30.0702874 10.248803,30.2765588 C9.76115648,30.3945136 9.26759192,30.4822313 8.77876179,30.592103 C8.43699496,30.6690431 8.09937076,30.7334093 7.75671623,30.7872973 C7.5167397,30.807655 7.27794677,30.8283121 7.03797024,30.8495679 C6.50149989,30.8953727 5.95940739,30.8612437 5.42471245,30.8034637 C4.89741506,30.7130516 4.37869883,30.6151551 3.85820719,30.4906139 C3.19242766,30.3301474 2.53582109,30.130163 1.88039812,29.9325736 C1.16845788,29.7164228 0.397337225,30.1828535 0.203225504,30.8962709 C0.00230803571,31.6342372 0.44497745,32.3754967 1.15573409,32.5931444 C2.02479831,32.8586925 2.89534203,33.1077749 3.77505872,33.3391939 C4.96547253,33.651445 6.20352656,33.8071215 7.43092811,33.8244854 C7.79962202,33.830473 8.16949954,33.832868 8.53819345,33.8232879 C8.91961115,33.8128097 9.29659032,33.7696993 9.6756408,33.727487 C10.5864272,33.6256985 11.4948464,33.5697149 12.3861033,33.3427865 C12.7237274,33.2562663 13.0598721,33.164956 13.3939455,33.0667601 C13.8298092,32.9392252 14.2446638,32.7919313 14.6689873,32.6305666 C15.4874523,32.3195131 16.3068049,31.9734323 17.0859149,31.5710685 C17.4418851,31.3875499 17.7990388,31.2037319 18.1514581,31.0121301 C18.5204479,30.8109482 18.8693164,30.5840198 19.2241029,30.3582889 C19.5271066,30.1654896 19.8194578,29.9526319 20.1165434,29.7502525 C20.5790382,29.4344089 21.0424208,29.1000039 21.4747336,28.7434449 C22.1091476,28.2216293 22.7255114,27.694425 23.3344778,27.1423723 C23.9079359,26.6220536 24.4568341,26.0768866 24.9909373,25.5167507 C26.0289615,24.4282129 27.0033669,23.2866852 27.9499574,22.1185129 C29.0098784,20.8099325 30.0245264,19.4660254 31.0175736,18.1071494 C31.9653478,16.8090472 32.7710889,15.4256222 33.5836359,14.0386047 C34.0772004,13.1955568 34.5891109,12.3593945 34.9832524,11.4648536 C35.3833119,10.5583375 35.8455109,9.68026232 36.255927,8.7785363 C36.5033011,8.23247114 36.7125038,7.65946198 36.9101663,7.09333851 C37.0732083,6.62690785 37.2477905,6.16257284 37.3910071,5.68895712 C37.5448761,5.1815117 37.6880927,4.67256939 37.8162183,4.15704077 C37.9156414,3.75946701 37.9585472,3.35111566 38.0058915,2.94426119 C38.0348899,2.69278381 38.0106259,2.44370146 38.0138808,2.19102657 C38.0245333,1.48928494 37.6303918,0.816882342 37.035037,0.463915882 C36.7261153,0.281295407 36.3932255,0.195673348 36.0635907,0.195673348 C35.5481293,0.195673348 35.0400656,0.404339695 34.6388225,0.777364468" id="Fill-3" fill="#161616" fill-rule="nonzero" mask="url(#mask-2)"></path>
                    </g>
                </g>
                <path d="M21.8245194,4.8922229 C21.7088217,4.93563269 21.6141331,4.99520887 21.5505141,5.10508054 C21.4892624,5.21255718 21.4721001,5.34248715 21.5043534,5.46163953 C21.5667887,5.69096295 21.8325088,5.8711884 22.0671591,5.78556634 C22.1553379,5.75293416 22.2432208,5.72718766 22.3337668,5.70742873 C22.6435762,5.68647228 22.9524979,5.72419389 23.2611237,5.7469466 C23.4451747,5.76101736 23.6301135,5.77269309 23.8150523,5.7834707 C24.0588755,5.79724208 24.2621602,5.56702053 24.2621602,5.33081142 C24.2621602,5.21016215 24.2148159,5.09460231 24.1304838,5.01047714 C24.0390501,4.91677188 23.9387393,4.89342041 23.8150523,4.87695463 C23.6046659,4.85001063 23.3954632,4.82785667 23.1850769,4.80809773 C22.9942201,4.78923693 22.8024756,4.77516617 22.6092515,4.77187301 C22.592681,4.77157364 22.5764064,4.77127426 22.55954,4.77127426 C22.3071356,4.77127426 22.0644959,4.80540333 21.8245194,4.8922229" id="Fill-6" fill="#161616" fill-rule="nonzero"></path>
                <path d="M29.642221,1.12090053 C29.624171,1.12329555 29.606121,1.12569057 29.5877751,1.12778622 C29.6058251,1.12539119 29.624171,1.12299617 29.642221,1.12090053 M30.3819761,0.193428015 C30.1600496,0.199116193 29.9369394,0.213186951 29.7173802,0.238933445 C29.4850971,0.265877449 29.2572525,0.318567947 29.0297039,0.370060933 C28.8065938,0.420356408 28.5834836,0.472747528 28.3627407,0.537113761 C28.1523544,0.59788746 27.9455189,0.66824125 27.7351326,0.727817438 C27.5143897,0.792183671 27.2924631,0.856549904 27.069353,0.912533558 C26.7873584,0.983785481 26.4982621,1.03767349 26.2186347,1.11730799 C26.0822239,1.15473022 25.9526188,1.22238961 25.8233096,1.27987015 C25.7410489,1.31609487 25.6602676,1.3535171 25.5794864,1.39093933 C25.4383411,1.45530556 25.2983795,1.51967179 25.1598973,1.58733118 C24.840619,1.74420516 24.5171981,1.89838475 24.2073887,2.07382015 C23.8789375,2.25973378 23.5567002,2.45043746 23.2365342,2.64802683 C22.9163682,2.8468137 22.6065588,3.05967134 22.3023716,3.2830072 C22.2251411,3.33929023 22.1671443,3.39886642 22.1416968,3.49346981 C22.1162492,3.58478005 22.1288498,3.68417349 22.1766132,3.76590364 C22.2665674,3.9203826 22.5000341,4.00570528 22.6550868,3.89343859 C23.179721,3.50993559 23.7253644,3.16385482 24.2929044,2.85040624 C24.8077739,2.5659973 25.3356631,2.31362179 25.8747966,2.08250211 C26.0206763,2.02292592 26.1662601,1.96215222 26.3156906,1.91006048 C26.5364335,1.832821 26.7778895,1.80258384 27.0069177,1.75707841 C27.3131763,1.69480782 27.6170677,1.61068265 27.9200713,1.53344317 C28.2171569,1.45770058 28.5106917,1.37088101 28.8077774,1.29603656 C29.0930269,1.22358712 29.382715,1.16550782 29.6726989,1.11730799 C30.1789873,1.05833056 30.6900101,1.06791065 31.197482,1.11491297 C31.4646815,1.15532898 31.7312893,1.19993627 31.9943462,1.26340437 C32.2949826,1.3346563 32.5885174,1.422374 32.8832358,1.52056993 C33.4694177,1.71576427 34.042284,1.94748271 34.6136708,2.18429057 C34.9344286,2.32559691 35.2486765,2.47887835 35.5670671,2.62467536 C35.9579536,2.80490081 36.3473607,2.99201195 36.760144,3.11805002 C36.9726016,3.18361376 37.2119864,3.07733463 37.3229496,2.88663096 C37.4593605,2.65161936 37.3806505,2.33098571 37.1439289,2.19536755 C36.9471541,2.08310087 36.7403186,1.99209001 36.5346667,1.89958226 C36.3242803,1.80378135 36.113894,1.71007609 35.9035077,1.61427519 C35.4561038,1.41189577 35.0030778,1.22957468 34.5441338,1.05653429 C34.093475,0.885589553 33.6416327,0.726619926 33.1803214,0.587409236 C32.9652007,0.523043003 32.7515594,0.457778637 32.5308165,0.41317134 C32.3121449,0.371258445 32.0925856,0.333836216 31.8718427,0.299707144 C31.6037555,0.258991759 31.3356683,0.223665175 31.0640302,0.20510375 C30.9154874,0.194326148 30.7678323,0.190733614 30.6195854,0.190733614 C30.5405796,0.190733614 30.4612778,0.191631748 30.3819761,0.193428015" id="Fill-8" fill="#161616" fill-rule="nonzero"></path>
                <path d="M27.9318482,0.847838009 C27.8590563,0.863106278 27.7886316,0.880470192 27.7179111,0.903821663 C27.5735109,0.954117138 27.4314779,1.00680764 27.289149,1.06428818 C26.9689831,1.1963138 26.6511843,1.33312947 26.3366405,1.48042336 C26.2037804,1.54359208 26.0673696,1.60227014 25.9368768,1.67112704 C25.7531217,1.76812545 25.5681829,1.86632138 25.3844278,1.96361917 C25.2687301,2.02439287 25.1577668,2.09324977 25.0444364,2.15881352 C24.9080255,2.23934615 24.7671762,2.31538812 24.6331326,2.39981267 C24.3002428,2.61147279 23.9682407,2.82193541 23.641269,3.04167873 C23.3163686,3.2581289 22.9917641,3.47427969 22.6656801,3.68953235 C22.5801644,3.74581538 22.5153618,3.82185735 22.4878429,3.92334644 C22.4600282,4.0251349 22.4739356,4.13500656 22.526902,4.22511929 C22.6298759,4.40294972 22.8796172,4.48258422 23.0562707,4.366725 C23.6273616,3.99010769 24.1925345,3.60660469 24.7716147,3.24286063 C25.060711,3.06053954 25.3554294,2.88839729 25.6501478,2.7153569 C25.7634783,2.64889502 25.8791759,2.58901946 25.9933941,2.52704825 C26.1274377,2.45459881 26.25941,2.37855684 26.3946372,2.31209497 C26.7298942,2.14594027 27.0672225,1.9821806 27.4012959,1.81393026 C27.5643379,1.73190074 27.7261963,1.65017059 27.8880547,1.56694355 C28.068259,1.47234016 28.3029093,1.37534174 28.3641611,1.16008908 C28.3919758,1.06189316 28.3478864,0.930765667 28.2531978,0.884062726 C28.1848444,0.851430543 28.1153075,0.836761029 28.0434033,0.836761029 C28.0067114,0.836761029 27.9694278,0.840652941 27.9318482,0.847838009" id="Fill-10" fill="#161616" fill-rule="nonzero"></path>
                <path d="M0.755674565,0.412812087 C0.385797047,0.432571024 0.0759876374,0.709794893 0.0759876374,1.09928545 C0.0759876374,1.45823946 0.385797047,1.80671525 0.755674565,1.78695632 C2.15706651,1.70851933 3.56408059,1.6630139 4.9613299,1.83874868 C5.22142777,1.87886531 5.47975023,1.9303583 5.7398481,1.97975564 C5.86679006,2.00310711 5.99284432,2.0288536 6.12008219,2.05579761 C6.39852598,2.11447566 6.66424599,2.20428901 6.92759879,2.31056814 C7.5176274,2.57970881 8.08783059,2.90064184 8.65951328,3.20660598 C8.90333654,3.33653596 9.14597619,3.4709566 9.39926832,3.58322329 C9.69990476,3.71644642 10.0061633,3.83350315 10.3076875,3.96193624 C10.2712916,3.94606921 10.2351915,3.93050157 10.1990915,3.91493392 C10.2106316,3.91972396 10.2221718,3.92451401 10.233712,3.92930406 C10.405927,4.002951 10.5550616,4.04965394 10.7447348,3.99726282 C10.9098481,3.95145801 11.0545442,3.83919133 11.1412435,3.6883049 C11.317897,3.3832389 11.2232083,2.94105785 10.9030424,2.77041248 C10.3863974,2.49438613 9.88010909,2.19860083 9.35872974,1.92946016 C9.11372287,1.8034221 8.86753239,1.67828217 8.62134192,1.55433975 C8.074515,1.2795109 7.53035119,0.998694497 6.94772012,0.80799082 C6.50268349,0.663091951 6.01710829,0.611598965 5.55727656,0.531964463 C4.82669448,0.405926397 4.08102141,0.356828433 3.34008276,0.341560164 C3.20130472,0.338566386 3.06193487,0.337368874 2.92286092,0.337368874 C2.1999723,0.337368874 1.47590007,0.372695458 0.755674565,0.412812087" id="Fill-12" fill="#161616" fill-rule="nonzero"></path>
                <path d="M26.2871656,29.4144404 C26.2525451,29.4291099 26.2176287,29.4440788 26.1830081,29.458449 C26.1738352,29.4626403 26.1646622,29.4665322 26.1554892,29.4704241 C26.1960278,29.4530602 26.2371582,29.4356962 26.2779927,29.4183323 C26.186559,29.4575508 26.0948293,29.4964699 26.0028038,29.5359878 C26.0980842,29.4955718 26.1936606,29.4542577 26.2877574,29.414141 C26.3401321,29.3919871 26.3922109,29.3698331 26.4442896,29.3476792 C26.3919149,29.3698331 26.3395403,29.3919871 26.2871656,29.4144404 M29.1988415,24.9225755 C29.0384626,25.0219689 28.8813386,25.1285474 28.7248064,25.2351259 C28.6759826,25.2548849 28.6274547,25.2746438 28.5786308,25.2941034 C27.3272612,25.4198421 26.0829932,25.6066538 24.8481941,25.8464555 C23.4870449,26.1117042 22.1267833,26.3628822 20.7573488,26.5760392 C18.9280825,26.7862025 17.099704,26.9721161 15.2588976,27.0460624 C14.3205923,27.0834847 13.3796239,27.0742039 12.4398391,27.081389 C11.5104108,27.0870772 10.5800949,27.0906697 9.64948306,27.0942623 C9.15000046,27.0951604 8.64844654,27.1014473 8.14866804,27.0981542 C8.12677129,27.0975554 8.10517044,27.0975554 8.0832737,27.0975554 C7.60243292,27.0930647 7.16568155,27.435553 7.03844368,27.902283 C6.8801361,28.4869679 7.22930048,29.082131 7.79565694,29.2518783 C8.10073191,29.3416916 8.41616346,29.3874964 8.7307073,29.4377919 C9.16982589,29.5090438 9.61042399,29.5674225 10.0495426,29.6389738 C10.5685547,29.7242965 11.0911177,29.8281806 11.6157519,29.8599146 C12.0723288,29.8868586 12.527722,29.8880561 12.9854824,29.8856611 C13.403296,29.8832661 13.8208138,29.8724885 14.2380356,29.8560227 C14.4931031,29.8955406 14.7487625,29.9335616 15.0047177,29.9685888 C15.435847,30.028165 15.8669762,30.0889387 16.2981054,30.1521074 C16.8242192,30.2281494 17.3512207,30.3230521 17.8805894,30.3745451 C18.3510736,30.4200505 18.8224455,30.4610653 19.2941133,30.4960925 C19.7749541,30.5323172 20.2546113,30.5275272 20.7366356,30.524234 C21.1284099,30.5206415 21.5216637,30.49729 21.9110707,30.4610653 C22.4138083,30.4128655 22.9212802,30.3661625 23.417212,30.2772473 C23.8379847,30.2024029 24.2631959,30.133546 24.673612,30.0096035 C24.8884368,29.9452373 25.1035576,29.8832661 25.3151275,29.8048291 C25.6083664,29.6958556 25.8959832,29.579697 26.1830081,29.458449 C26.6508292,29.2584646 27.107406,29.0390206 27.5622074,28.8096972 C27.9448087,28.6157004 28.3019625,28.3570379 28.6496473,28.1079556 C29.0819602,27.799297 29.5062837,27.4810584 29.9143325,27.1397677 C30.0702729,27.0086402 30.2205911,26.873022 30.3709093,26.7350089 C30.5602866,26.560771 30.8135788,26.3467158 30.918624,26.1117042 L30.9177363,26.1117042 C31.0059151,25.9590215 31.0538512,25.7838855 31.0538512,25.6054563 C31.0538512,25.3399082 30.948806,25.0827426 30.7638672,24.8956315 C30.5650211,24.6944496 30.3339216,24.6264908 30.0622835,24.6019418 C30.0400909,24.5998462 30.0178982,24.5989481 29.9960015,24.5989481 C29.7042421,24.5989481 29.4397057,24.7722878 29.1988415,24.9225755" id="Fill-14" fill="#161616" fill-rule="nonzero"></path>
                <path d="M8.77796285,27.1461744 C8.80341043,27.1566526 8.828858,27.1674302 8.85430557,27.1782078 L8.77796285,27.1461744 Z M6.44655088,26.1965479 C6.33795484,26.2070261 6.17964726,26.2166062 6.06276597,26.2633092 C5.76242542,26.383659 5.75177295,26.3953348 5.49640951,26.5977142 C5.26412643,26.7824303 5.08599342,27.1276129 5.03184335,27.4174107 C4.99603921,27.6069168 4.97295885,27.7847473 4.98657034,27.9730559 C4.99840642,28.1320256 5.02592531,28.2886002 5.05018927,28.4454741 C5.07119832,28.5798948 5.13925578,28.720303 5.17505992,28.8523286 C5.29075761,29.2816364 5.37390608,29.7154349 5.47569637,30.1480359 C5.58784323,30.6264416 5.72425406,31.0976623 5.83166649,31.5772656 C5.93789532,32.0496838 6.02015608,32.5256946 6.10567176,33.0026034 C6.26309163,33.8875643 6.39506393,34.7821053 6.51608785,35.6742512 C6.61965356,36.4834695 6.71108728,37.3001722 6.90904573,38.093224 C7.15641981,39.0874578 7.50203337,40.0837872 7.99530203,40.9807232 C8.26013433,41.4624221 8.61166592,41.8917299 8.946627,42.3243309 C9.2102757,42.665921 9.54671629,42.924284 9.88759541,43.1838446 C10.4181477,43.5850109 11.0433887,43.8316982 11.6733641,44.027192 C12.2062836,44.1921491 12.7726401,44.2678917 13.319467,44.3684827 C13.8512029,44.4657805 14.3932954,44.5394274 14.9318371,44.5789453 C15.6553175,44.6316358 16.3373716,44.0304851 16.5211268,43.3547894 C16.6377122,42.924284 16.5776441,42.4554584 16.3545339,42.0707579 C16.2690183,41.9584912 16.1835026,41.845027 16.0968033,41.7327603 C15.892335,41.5267883 15.6496953,41.383087 15.369772,41.30465 C14.5953965,40.9858126 13.7958692,40.7331377 13.0170551,40.4283711 C12.8463197,40.342749 12.682094,40.25084 12.5214192,40.1496503 C12.4604634,40.0894754 12.401283,40.0281029 12.3435821,39.9646348 C12.0317014,39.5044911 11.7544412,38.9970457 11.522454,38.4982822 C11.3097005,37.956109 11.1185478,37.4064513 10.9395271,36.8526023 C10.7359465,36.2209151 10.6042701,35.5730615 10.4320551,34.9335904 C10.2471164,34.2504102 10.0482702,33.5711219 9.85179127,32.8915343 C9.75591901,32.5547342 9.66330168,32.2167366 9.55115482,31.8847266 C9.4458137,31.5679849 9.31916764,31.2599251 9.18926666,30.9524641 C9.06173289,30.6276391 8.94070896,30.3007185 8.80814486,29.978588 C8.62083889,29.5214381 8.45424605,29.0358472 8.23113593,28.5963606 C8.20598426,28.5469632 8.17964898,28.4978653 8.152426,28.4493661 C8.34505821,28.511936 8.53621091,28.5822898 8.72825132,28.6595293 C9.08658866,28.8020331 9.50262689,28.5050503 9.59642783,28.1601671 C9.64732297,27.9763491 9.62069179,27.7754666 9.52570725,27.6105094 C9.42421285,27.435074 9.28188399,27.356637 9.10404688,27.2817925 C9.04782549,27.2587404 8.99190001,27.2356883 8.93597453,27.2123369 C8.6522045,27.0898913 8.36843447,26.9602607 8.09709232,26.8093743 C7.84587151,26.6692655 7.58814085,26.5569988 7.32242084,26.4534141 C7.06942462,26.3243822 6.82441775,26.192656 6.53384198,26.192656 C6.50513948,26.192656 6.47614108,26.1938535 6.44655088,26.1965479 Z" id="Fill-16" fill="#161616" fill-rule="nonzero"></path>
            </g>
            <g id="Group-52" fill="#161616" fill-rule="nonzero">
                <path d="M44.7574804,58.7367586 C44.8044422,58.7564945 44.851105,58.7762304 44.8980669,58.7959663 C44.8496094,58.7792207 44.8026475,58.7594848 44.7574804,58.7367586 M44.875932,58.7346654 C44.9255859,58.7415431 44.975539,58.7481217 45.0254921,58.7552984 C44.9722487,58.751112 44.9196035,58.7445334 44.8672575,58.7358616 C44.8699496,58.7355625 44.8729408,58.7352635 44.875932,58.7346654 M44.8182018,58.7268907 L44.8708469,58.7340674 C44.868454,58.7343664 44.866061,58.7349645 44.8633689,58.7352635 C44.8484129,58.7325722 44.8331578,58.729881 44.8182018,58.7268907 M57.9657326,54.0850716 C57.946888,54.0877629 57.9280434,54.0901551 57.9091988,54.0925473 C57.9280434,54.0895571 57.946888,54.0871648 57.9657326,54.0850716 M57.7635273,51.1474159 C57.4901314,51.1602741 57.2122487,51.1919711 56.9505185,51.2700175 C56.7028469,51.3447747 56.4785067,51.4781414 56.2586534,51.6088168 C55.1300727,52.2864153 54.0598205,53.0725612 53.0149935,53.8703692 C51.9085478,54.7160217 50.7985126,55.5604781 49.6510874,56.3502124 C49.1135683,56.7204096 48.5365654,57.0451545 47.9769114,57.3839538 C47.3693982,57.7529549 46.7484246,58.1046124 46.1011284,58.4003516 C45.7397912,58.5361105 45.3748645,58.6389763 44.9961783,58.7113412 C44.9142194,58.7158267 44.8322604,58.7161257 44.7500023,58.7122383 C44.7362428,58.708949 44.7224833,58.7056597 44.7087238,58.7017723 C44.5460023,58.5429882 44.4042194,58.3668604 44.2597443,58.1886394 C44.1308235,58.0184922 44.0025009,57.8474479 43.8813572,57.6713202 C43.5134393,57.1327699 43.2271812,56.5451789 42.9337443,55.9635685 C42.6160786,55.3326184 41.7408528,55.1573878 41.1590639,55.4985792 C40.8692164,55.6678294 40.651756,55.9495142 40.5632164,56.273063 C40.4648059,56.6256176 40.5339026,56.9539509 40.693932,57.2727152 C41.0187765,57.9222051 41.3307589,58.5950191 41.7617912,59.1826101 C42.0271109,59.5435375 42.2948235,59.8999794 42.5715097,60.2504408 C42.7025243,60.4161026 42.8404188,60.5692052 43.0004481,60.7070573 C43.3836211,61.0374838 43.8230287,61.2267688 44.3207648,61.3107958 C45.39341,61.492007 46.48819,61.1544039 47.4651167,60.7279893 C48.1240786,60.4394268 48.7609056,60.1042159 49.3848704,59.7444846 C50.0052457,59.3859495 50.6384833,59.0402726 51.2379202,58.646452 C52.4251284,57.8662867 53.5737501,57.0194381 54.7199789,56.1818593 C55.252712,55.7928233 55.7902311,55.41216 56.3427062,55.0524288 C56.6502018,54.8538738 56.9573982,54.6553189 57.2657912,54.4576611 C57.3800551,54.3846982 57.4952164,54.3108381 57.6124716,54.2399684 C58.1505889,54.7321693 58.6578968,55.2596555 59.2687003,55.6645401 C59.6330287,55.9061551 59.9964598,56.1420885 60.3703601,56.3699482 C60.683539,56.5604294 61.0047941,56.7356601 61.3122897,56.9375043 C61.7971636,57.2553716 62.4887296,57.1303777 62.8850639,56.734464 C63.1279496,56.4925499 63.265844,56.1597312 63.265844,55.8173436 C63.265844,55.4552201 63.1174804,55.1657606 62.8850639,54.8993262 C62.6233337,54.6002977 62.3532282,54.3153236 62.0460317,54.0617474 C61.7008469,53.7764742 61.3475859,53.5034612 60.991932,53.2328405 C60.7583191,53.0423593 60.5259026,52.8536724 60.3039554,52.6497349 C60.0655566,52.429949 59.8271578,52.209266 59.5818792,51.9978528 C59.372495,51.8178377 59.1598205,51.6381216 58.9262076,51.4909996 C58.7613924,51.3857416 58.566366,51.3307203 58.3862956,51.2559632 C58.2367355,51.1937653 57.9352223,51.1468178 57.7910463,51.1468178 C57.7811754,51.1468178 57.7719026,51.1471168 57.7635273,51.1474159" id="Fill-19"></path>
                <path d="M44.906173,62.2404155 C44.7775513,62.3151726 44.6525191,62.4566131 44.6247009,62.6073235 C44.5194106,63.1656096 44.403651,63.7203075 44.289088,64.2773975 C44.2110176,64.6583598 44.117393,65.0369299 44.0273578,65.4152009 C43.9468944,65.7551963 43.8652346,66.0951916 43.7832757,66.4336919 C43.7306305,66.6486934 43.6791818,66.8636948 43.6280323,67.0786963 C43.6067947,67.1707971 43.5846598,67.2631969 43.5637214,67.3552977 C43.5520557,67.4034412 43.5424839,67.4512858 43.5320147,67.4991304 C43.5122727,67.5924272 43.4913343,67.716225 43.5041965,67.8158015 C43.5041965,67.8155025 43.5041965,67.8155025 43.5041965,67.8155025 C43.5035982,67.8639451 43.5095806,67.9132848 43.5227419,67.9617274 C43.5741906,68.1450319 43.7213578,68.2921539 43.9047185,68.3435868 C44.097651,68.3962158 44.2938739,68.3379052 44.4365543,68.2021463 C44.5861144,68.062201 44.6480323,67.8797936 44.714437,67.6917047 C44.7425543,67.6124621 44.7646891,67.5293322 44.7871232,67.4476975 C44.8418622,67.2398727 44.8945073,67.032945 44.9471525,66.8251202 C45.0359912,66.4746588 45.1212405,66.1218052 45.2040968,65.7692506 C45.294132,65.3906805 45.3874575,65.0124095 45.465827,64.6314472 C45.582783,64.0650873 45.6994399,63.5008206 45.8059267,62.9320684 C45.8373343,62.7649115 45.8328475,62.6118089 45.7440088,62.4599024 C45.6644428,62.3232464 45.5313343,62.2206796 45.3781848,62.1785166 C45.3249413,62.1641633 45.2705015,62.1569866 45.2160616,62.1569866 C45.1077801,62.1569866 45.0003959,62.1850953 44.906173,62.2404155" id="Fill-21"></path>
                <path d="M44.5674792,62.2167624 C44.4050569,62.3791348 44.3524117,62.5660276 44.3314733,62.7879068 C44.2620774,63.4972023 44.178922,64.2044047 44.0936727,64.911308 C44.0176962,65.3146974 43.9465056,65.7177878 43.8454029,66.1157947 C43.7380188,66.5374249 43.6138839,66.9533735 43.4843648,67.3690231 C43.4305232,67.5430576 43.3686053,67.7161951 43.3022006,67.8866414 C43.2390862,68.0490138 43.1619132,68.2077979 43.1080716,68.3737587 C43.0099601,68.6784688 43.1044821,69.0289301 43.3288223,69.2532015 C43.6013208,69.5253174 44.0392328,69.5767503 44.3700598,69.3829799 C44.6760598,69.2041608 44.808271,68.8677538 44.9087754,68.5477933 C45.0254323,68.1752038 45.1214499,67.7954377 45.2183648,67.4183628 C45.323356,67.0080957 45.4367226,66.5960344 45.5103062,66.1788897 C45.5958545,65.6929684 45.6799073,65.2106355 45.7370393,64.7199298 C45.8118194,64.0764205 45.8842065,63.4326122 45.9461243,62.7879068 C45.9661654,62.5845674 45.8492094,62.3558106 45.7101185,62.2167624 C45.5593619,62.066052 45.3526698,61.9796328 45.1387988,61.9796328 C44.9249279,61.9796328 44.7182358,62.066052 44.5674792,62.2167624" id="Fill-25"></path>
                <path d="M35.4142205,83.6789035 C35.3795226,83.695051 35.345722,83.7111985 35.3125196,83.7285422 C35.3185021,83.7234587 35.3247836,83.7189733 35.330766,83.7141888 C35.3585842,83.7025267 35.3864023,83.6905656 35.4142205,83.6789035 M37.7159507,59.3218378 C37.3501267,59.4223113 37.0393408,59.8660696 37.1889009,60.2503212 C37.390807,60.7715278 37.5756633,61.298117 37.7332997,61.834275 C37.9109771,62.4356213 37.9971238,63.0635811 38.0865607,63.6843642 C38.2367191,65.0446448 38.3841853,66.4070185 38.3922616,67.7774661 C38.3970475,68.4562607 38.3934581,69.1347563 38.3396164,69.8111587 C38.2839801,70.5040077 38.2226604,71.1938664 38.1460856,71.8843232 C38.0123789,72.7793154 37.8774757,73.6752047 37.7425724,74.5710941 C37.5989947,75.536059 37.4084551,76.4890627 37.2134287,77.4444587 C37.0264786,78.360383 36.7844903,79.274812 36.5227601,80.1730936 C36.2658158,81.0561247 35.9580211,81.9170277 35.6086487,82.7668666 C35.4495167,83.1316814 35.2936751,83.5087563 35.0941619,83.8547322 C34.9784023,83.9309845 34.8668305,84.020095 34.7525666,84.1307355 C34.6290299,84.2506459 34.5243378,84.3887971 34.422637,84.5287424 C34.3197396,84.650447 34.218637,84.7754409 34.1357806,84.9109008 C33.9966897,85.1375644 33.8495226,85.5965731 33.8749478,85.8662968 C33.8890065,86.0346498 33.9114405,86.2027038 33.9404551,86.3698608 C34.0035695,86.5229633 34.0678804,86.6748698 34.1345842,86.8264772 C34.2700856,87.1350746 34.6006135,87.348581 34.853071,87.537866 C35.0095109,87.6302658 35.1767191,87.7038268 35.3520035,87.7576519 C35.4770358,87.811178 35.6056575,87.8545372 35.7375695,87.884739 C35.9807543,87.9538146 36.2353056,88.000463 36.4853701,88.0366455 C37.0638686,88.1173832 37.6363848,88.1828704 38.2181736,88.2118762 C38.761376,88.2375926 39.3527367,88.2552353 39.8657279,88.0599697 C40.1576692,87.9783349 40.4113232,87.8300168 40.6263906,87.6174076 C40.9476457,87.2950549 41.1310065,86.8533898 41.1310065,86.3991655 C41.1310065,85.6291672 40.6042557,84.944691 39.8657279,84.7380623 C39.336285,84.5897442 38.7661619,84.5744938 38.2181736,84.5463851 C38.0387015,84.5380123 37.8598276,84.5281444 37.6809537,84.5167813 C37.7476575,84.2975934 37.8146604,84.0781065 37.8840563,83.8595167 C38.0883554,83.2091297 38.281288,82.5572476 38.455376,81.8984879 C38.6375402,81.206835 38.7850065,80.5095006 38.9249947,79.810073 C39.0512235,79.1755346 39.1822381,78.5412952 39.286332,77.9037665 C39.5268246,76.4259677 39.7161677,74.9460758 39.8761971,73.4566149 C40.0176809,72.1402916 40.1391238,70.8239682 40.1379273,69.499272 C40.1379273,68.3240901 40.0422088,67.1608693 39.9088012,65.9949573 C39.8295343,65.3024073 39.7430886,64.6119506 39.6530534,63.9217929 C39.5830592,63.3844387 39.5011003,62.8494767 39.4029889,62.316907 C39.246549,61.4676661 38.9590944,60.6522155 38.6447191,59.8487259 C38.569939,59.6582448 38.4811003,59.5051422 38.2977396,59.397791 C38.1816809,59.3302106 38.0488716,59.2952242 37.9151648,59.2952242 C37.8481619,59.2952242 37.7811589,59.3038961 37.7159507,59.3218378" id="Fill-33"></path>
                <g id="Group-37">
                    <g id="Fill-35-Clipped">
                        <path d="M38.6455267,40.3921988 C39.1585179,40.3921988 39.6792862,40.363492 40.1830047,40.3356824 L40.5186176,40.3174416 C41.1207466,40.2860436 41.7315501,40.2103894 42.3223126,40.1368284 C42.49999,40.1149994 42.6773683,40.0931703 42.8547466,40.0722383 C43.7123243,39.9699705 44.4705941,39.8503592 45.1729284,39.7065265 C45.5725531,39.6257888 45.9721777,39.544154 46.3706059,39.4625192 C46.6499842,39.4051057 46.9317554,39.3282554 47.2039548,39.2543954 C47.3442422,39.2161197 47.4842305,39.1778441 47.6245179,39.1422597 C48.2254504,38.9900542 48.8278786,38.787911 49.4102657,38.5926454 L49.4991044,38.5627425 C49.0235032,39.0199571 48.525468,39.4613231 48.0145707,39.9104639 L47.7773683,40.1182887 C47.306254,40.5306489 46.8189871,40.9570636 46.4029109,41.4349111 C45.9491455,41.9558187 45.7861249,42.4812117 45.9033801,43.041292 C46.084946,43.9045873 46.9891865,44.258936 47.7154504,44.4045629 C48.0734974,44.4760307 48.4572686,44.5125122 48.8568933,44.5125122 C49.3905238,44.5125122 49.9597496,44.448221 50.5490164,44.321732 C50.9830399,44.2278371 51.416166,44.0759306 51.8352334,43.9291076 C51.9824006,43.8773757 52.1292686,43.8259428 52.2752393,43.7772011 C53.0385941,43.5224289 53.7816088,43.1767519 54.4369812,42.8717429 L55.0190692,42.600225 L55.6008581,42.3287072 C55.8428463,42.2162725 56.0818434,42.0864941 56.3133625,41.9609022 C56.4303185,41.8972091 56.5469754,41.833815 56.6642305,41.7725142 C57.6623947,41.2489153 58.640817,40.6855457 59.5713801,40.0985528 C59.7574328,39.9807356 59.9407935,39.859031 60.1232569,39.7340371 C60.1238551,40.1508828 60.1421015,40.4905791 60.1759021,40.8006717 L60.1812862,40.8503104 C60.2094035,41.1050826 60.2384182,41.3685267 60.3054211,41.6188136 C60.3601601,41.822452 60.416993,42.0192127 60.511515,42.1872667 C60.6461191,42.4252934 60.8172158,42.642089 60.9826293,42.852007 L61.0304886,42.9130088 C61.1668874,43.0870434 61.3729812,43.2410431 61.6613331,43.3845767 C61.8790927,43.492825 62.1240721,43.5738618 62.3887935,43.6255937 C62.4414387,43.6360597 62.4952804,43.6453296 62.5479255,43.6534033 C62.5622833,43.8154768 62.5766411,43.9805405 62.5912979,44.1453052 C62.6209109,44.4781239 62.651122,44.8220066 62.700776,45.1590117 C62.7396616,45.4329218 62.7869226,45.7259697 62.8667877,46.0109439 C62.9373801,46.2630249 63.0214328,46.5309544 63.1309109,46.8542042 L63.2544475,47.2154306 C63.3962305,47.6283889 63.5427994,48.0551026 63.663644,48.4836104 C63.7405179,48.7575204 63.8099138,49.0332247 63.8793097,49.309527 C63.9534915,49.6046681 64.0276733,49.8998092 64.1111279,50.1925581 C64.3118375,50.8973682 64.6055736,51.5674911 64.8391865,52.0725502 C65.0689109,52.5674423 65.3420076,53.1409789 65.6773214,53.6801273 C65.8573918,53.971082 66.0539138,54.2584483 66.2438551,54.5362458 C66.4254211,54.8017831 66.6069871,55.0673204 66.7777848,55.3400343 C67.0930575,55.8438973 67.3577789,56.3668981 67.596776,56.8570058 C67.7430457,57.2391642 67.8908111,57.6551128 67.9796499,58.1036555 C68.0684886,59.010908 68.024817,59.9396904 67.9823419,60.8376729 C67.9697789,61.1023131 67.957515,61.3669533 67.9482422,61.6306965 C67.9183302,62.4437549 68.0777613,63.327384 68.4355091,64.3324188 C68.5512686,64.6571637 68.6694211,64.9819086 68.7908639,65.3054574 C69.1151103,66.1765274 69.3229988,66.9130345 69.4450399,67.6235262 C69.5159314,68.3713964 69.5030692,69.1348161 69.4911044,69.8728184 C69.485122,70.236437 69.4788405,70.6003547 69.4824299,70.9636743 C69.4896088,71.663999 69.554817,72.3200675 69.6822422,72.9698564 C69.7504416,73.3152343 69.898207,73.6459598 70.0411865,73.9656212 C70.0776792,74.046957 70.1138727,74.1279937 70.1485707,74.2087314 C70.1874563,74.2981409 70.231427,74.3857562 70.2753977,74.4733716 L70.3379138,74.5989635 C70.4162833,74.7601399 70.5024299,74.918625 70.5891748,75.0777081 C70.7163009,75.3112494 70.8978669,75.5205693 71.0737496,75.7233106 L71.1727584,75.8378385 C71.3567173,76.0537371 71.6034915,76.2193988 71.8421894,76.3796781 L71.8849636,76.4083848 C72.072512,76.5085594 72.2696323,76.5958757 72.4709402,76.6679416 C72.7326704,76.7696112 72.9360721,76.8276228 73.2603185,76.8422752 C73.3024944,76.8440693 73.3440721,76.8449664 73.385949,76.8449664 C74.2970692,76.8449664 75.1121718,76.3722024 75.7896792,75.9096053 C76.4396674,75.4643519 76.988254,74.8779571 77.5185941,74.3107001 L77.6373449,74.183912 C77.9026645,73.900134 78.172471,73.6196453 78.4470633,73.343941 C78.4150575,73.6055909 78.3929226,73.8696331 78.3776674,74.1348713 C78.3262188,75.0164073 78.3127584,75.8811976 78.3016909,76.8389859 L78.2992979,77.0240845 C78.2786587,78.7384148 78.2568229,80.5110556 78.0797437,82.2424305 C77.9430457,83.1664285 77.7725472,84.1520263 77.4512921,85.0975544 C77.2598551,85.4737322 77.033122,85.8436304 76.7588287,86.227583 C76.4737672,86.5756522 76.1534094,86.9359815 75.7190868,87.3955882 C75.3149754,87.823797 74.9066762,88.3118115 74.4711572,88.8871423 C74.2985648,89.114703 74.1681484,89.3258171 74.0724299,89.5324458 C73.9462012,89.8039636 73.8549695,90.0306272 73.7858727,90.2453296 C73.7122891,90.4755816 73.687163,90.7249713 73.6626352,90.9659883 C73.6542598,91.0515104 73.6455853,91.1364345 73.6351161,91.2201625 C73.617468,91.3648923 73.5998199,91.5111172 73.5836674,91.655847 L73.5764886,91.7177459 C73.3135619,91.5712219 73.0335853,91.4575911 72.7485238,91.3777505 C72.3596674,91.2683061 71.957949,91.2129858 71.5535384,91.2129858 C71.1862188,91.2129858 70.8045413,91.2593352 70.4192745,91.3508379 C69.736383,91.5150046 69.1725413,91.929458 68.6751044,92.2951699 C68.285949,92.5825362 67.9036733,92.8791725 67.5216968,93.1770048 C67.2752217,93.3683831 67.0448991,93.5914583 66.8220545,93.8073569 L66.6931337,93.9317527 C66.1645883,94.4392041 65.6533918,94.9855291 65.158946,95.5139124 L65.0802774,95.5976404 C64.0055384,96.7471059 62.922424,97.8893946 61.8393097,99.0319825 C61.0325824,99.8830175 60.2647408,100.799839 59.5223243,101.686458 L59.1271865,102.157727 C58.8187935,102.525233 58.5145883,102.896627 58.2100839,103.268319 C57.6638903,103.935152 57.0988522,104.625011 56.5170633,105.279883 C55.4351455,106.497228 54.5198375,107.482527 53.6356381,108.381108 C53.3451924,108.675651 53.048166,108.963017 52.7511396,109.250683 C52.5686762,109.427109 52.386512,109.603536 52.2055443,109.781458 C51.7873742,110.19322 51.3300194,110.60588 50.8083537,111.043059 C50.1607584,111.518515 49.381251,112.059457 48.5096147,112.466435 C48.2655326,112.549266 48.0041015,112.615052 47.7109636,112.668279 C47.6161425,112.673662 47.5210223,112.676054 47.4265003,112.676054 C47.2401484,112.676054 47.047515,112.666485 46.8378317,112.647048 C46.5958434,112.598905 46.3726997,112.539697 46.1561367,112.466136 C46.0170457,112.392575 45.8749636,112.303763 45.7221132,112.195814 C45.4433331,111.946125 45.1822012,111.668627 44.9294446,111.400398 C44.7550575,111.2153 44.5806704,111.030201 44.4000018,110.852578 C44.104471,110.564614 43.7574915,110.319111 43.4553801,110.111885 C43.084471,109.856813 42.698905,109.653474 42.2768463,109.490204 C41.8670516,109.33142 41.3947408,109.25756 40.7914152,109.25756 C40.7007818,109.25756 40.6104475,109.259354 40.5207114,109.262046 C39.8070106,109.283875 39.0681836,109.348166 38.2617554,109.458208 C38.0754035,109.480636 37.8863595,109.500371 37.6961191,109.520107 C36.5944592,109.634934 35.4554094,109.753649 34.5553566,110.426164 C34.1365883,110.738648 33.7716616,111.075055 33.4390399,111.454523 C33.3017437,111.610914 33.1692334,111.773885 33.0370223,111.937155 C32.7714035,112.264591 32.4968111,112.602792 32.1797437,112.886271 C32.098383,112.937405 32.0155267,112.985249 31.9302774,113.029506 C31.8593859,113.052531 31.7869988,113.072566 31.7149109,113.091105 C31.6188933,113.042364 31.5384299,112.993323 31.459163,112.939797 C31.0888522,112.63419 30.7795619,112.336059 30.5133449,112.028059 C30.1615795,111.514328 29.871732,110.977273 29.5564592,110.379216 L29.3976264,110.077197 C29.1200428,109.549711 28.8331865,109.004582 28.5328698,108.476498 C28.4141191,108.266281 28.2878903,108.06025 28.1613625,107.854519 C28.0952569,107.746569 28.0291513,107.63862 27.9639431,107.530073 C27.7524651,107.176322 27.5553449,106.792968 27.3974094,106.484669 C27.0794446,105.864783 26.7405413,105.196156 26.4147994,104.507493 C26.1566587,103.961766 25.9083889,103.399592 25.6684944,102.855959 C25.3080545,102.039013 24.9353507,101.194556 24.520471,100.388675 C24.3595443,100.074695 24.179773,99.7544353 23.9374856,99.3501488 C23.7876264,99.0983668 23.6093507,98.8543595 23.4367584,98.6184261 C23.3715501,98.5290166 23.3066411,98.4402051 23.2432276,98.3510946 C22.888471,97.851119 22.5624299,97.4055666 22.1631044,97.0144373 C21.935773,96.790764 21.6626762,96.6110479 21.398254,96.4370133 L21.2783067,96.3577708 C21.142207,96.2662681 20.9938434,96.1858294 20.796424,96.0970179 C20.4898258,95.9594648 20.1790399,95.908929 19.8888933,95.8745408 C19.7761249,95.8613835 19.6600663,95.8548049 19.5443067,95.8548049 C19.092037,95.8548049 18.6200252,95.9531852 18.0588757,96.1645984 C17.952688,96.2043692 17.8462012,96.2477283 17.7421073,96.2931806 C17.6610457,95.6239549 17.5734035,94.953234 17.4821718,94.281616 C17.3906411,93.556771 17.2949226,92.7757086 17.2123654,91.9761065 C17.1585238,91.4387523 17.1256205,90.889736 17.0942129,90.3589605 C17.0810516,90.1391745 17.0678903,89.9196876 17.0532334,89.7007988 C16.9596088,88.2744329 16.9018786,86.7218771 16.8770516,84.9537217 C16.8701718,84.5030858 16.877949,84.0449741 16.8857261,83.602113 C16.8908111,83.2893292 16.8964944,82.9765454 16.8967935,82.6631635 L16.8967935,82.0600231 C16.8958962,81.4846923 16.8952979,80.9096605 16.9075619,80.3340307 C16.9270047,79.3562076 16.9865296,78.363433 17.0442598,77.4035516 C17.0768639,76.861413 17.109468,76.3195734 17.1351924,75.7774348 C17.1947173,74.5478297 17.228817,73.2957974 17.2620194,72.0850311 L17.2904358,71.0536819 C17.3269284,69.784306 17.3936323,68.4939981 17.4582422,67.2458532 L17.4962305,66.5099441 C17.5410985,65.6445557 17.5967349,64.7797654 17.6520721,63.914676 C17.6960428,63.2278076 17.7403126,62.5409391 17.7788991,61.8540707 C17.8261601,61.0239677 17.8524827,60.1792122 17.8779079,59.3628645 C17.8997437,58.6685203 17.9212804,57.9738772 17.9553801,57.2798321 C18.2595853,57.0660267 18.569773,56.8366719 18.9020956,56.5810025 L19.400729,56.1961529 L19.9101308,55.8020333 L19.8449226,55.8465886 L20.0282833,55.7117267 L20.1709636,55.6010862 C20.2071572,55.5732766 20.2421543,55.546364 20.2759548,55.5179563 C20.4518375,55.6079639 20.6483595,55.6552104 20.8415912,55.6552104 C20.9552569,55.6552104 21.0680252,55.6390628 21.1772041,55.6073658 L21.4577789,55.5245349 C21.746729,55.4384147 22.0455501,55.3496033 22.3428757,55.284116 C22.4164592,55.3002636 22.4885472,55.3199994 22.5588405,55.3424266 C22.8926587,55.5068922 23.2237848,55.7111287 23.5710633,55.9656019 L23.642254,56.0218193 L23.983251,56.2891507 C24.3676205,56.5893753 24.7451103,56.8964776 25.1214035,57.2047759 C25.403773,57.4344298 25.7142598,57.6766429 26.0702129,57.9454695 C26.4629578,58.2415077 26.8832217,58.4580043 27.2424651,58.6302447 C27.732424,58.8631879 28.2217848,59.116166 28.6952921,59.3604722 L28.7359724,59.3814042 C29.1221367,59.5796601 29.523556,59.7647587 29.9118141,59.9435778 L30.2142246,60.0835231 L30.401773,60.1714375 C30.6419666,60.2847693 30.8905355,60.4022875 31.1453859,60.492295 C31.329644,60.5583803 31.5324475,60.5879842 31.7283713,60.6163919 L31.8904944,60.6409122 L31.9213038,60.6456966 C32.1253038,60.6776927 32.3367818,60.7108849 32.5458669,60.7108849 C32.5991103,60.7108849 32.6523537,60.7087917 32.7055971,60.7040072 C32.8387056,60.6923451 32.9706176,60.6794869 33.1028287,60.6642364 C33.2628581,60.6465937 33.4231865,60.628054 33.5832158,60.607122 C33.9577144,60.5574832 34.3687056,60.5030601 34.6271455,60.2112083 C34.9086176,59.893042 35.1416323,59.5198544 35.3671689,59.1589271 C35.4515208,59.0237662 35.5355736,58.8889043 35.6217202,58.7576308 C35.9770751,58.2169873 36.3414035,57.6808293 36.7060311,57.1458673 C36.822688,56.974823 36.8591806,56.7583264 36.8092276,56.5367463 C36.7535912,56.2897488 36.5980487,56.071159 36.3931513,55.9512486 C36.2588463,55.8729031 36.1158669,55.8331323 35.9678023,55.8331323 C35.6731689,55.8331323 35.3863126,55.9940096 35.1996616,56.2640323 L35.1374446,56.3543389 C34.7452979,56.9245863 34.33999,57.5139714 33.9179314,58.0779391 L33.8841308,58.1207002 C33.7659783,58.2699154 33.6436381,58.4239151 33.5093331,58.5623652 C33.4115208,58.5656545 33.3116147,58.5677477 33.2114094,58.5677477 C33.0316381,58.5677477 32.8500721,58.5608701 32.6714974,58.5474138 C32.5210399,58.5133246 32.3780604,58.4735538 32.2350809,58.4263073 C32.0633859,58.33929 31.8970751,58.234331 31.7361484,58.1326613 C31.6302598,58.0656789 31.5243713,57.9986966 31.4154915,57.9359006 C31.0637261,57.7313651 30.7143537,57.5223442 30.3676733,57.3133233 C30.1457261,57.1793585 29.9261718,57.0418054 29.7066176,56.9039533 C29.5642364,56.8145438 29.421556,56.7254333 29.2785765,56.6369209 C29.1598258,56.5633599 29.0398786,56.4906959 28.9199314,56.418032 C28.6151279,56.2332324 28.2998551,56.0421532 28.0052217,55.8334313 C27.5691044,55.4704108 27.1643947,55.0574524 26.7731455,54.6579504 L26.6466176,54.5290691 C26.1746059,54.0473342 25.6526411,53.5883255 25.0514094,53.1257285 C24.8118141,52.9409289 24.5611513,52.7827428 24.3066,52.6559547 C24.2282305,52.6173801 24.1489636,52.5811976 24.0693977,52.5462113 C24.8279666,51.9696844 25.7082774,51.2920858 26.5598727,50.611198 C27.7898551,49.6273943 28.9866352,48.6531595 30.1122246,47.5539308 C31.2677261,46.4274905 32.2542246,45.3988326 33.1279548,44.4093473 L33.4794211,44.0092472 C33.8679783,43.565788 34.2699959,43.1076764 34.6809871,42.6713938 C35.3444358,41.9662847 35.8634094,41.3586588 36.3132862,40.7591067 C36.4227642,40.6125827 36.5265589,40.4514064 36.6303537,40.2657097 C37.1813331,40.3288047 37.7006059,40.3673794 38.2144944,40.3853211 C38.3580721,40.3898065 38.501949,40.3921988 38.6455267,40.3921988 Z M30.8483595,11.2581531 L31.3484886,10.8780879 L31.3490868,10.878686 L30.8483595,11.2581531 Z M73.8190751,0.00451533003 C73.5863595,0.00451533003 73.3868463,0.0703015954 73.149644,0.156421797 C72.8657789,0.259287594 72.5807173,0.360957277 72.2956557,0.461430846 C71.1117378,0.881864887 70.1865589,1.14740218 69.2966762,1.32203481 C68.3691044,1.50384412 67.4179021,1.63541665 66.4981073,1.76220473 L66.2926117,1.79061243 C64.8972158,1.94790141 63.4539607,2.11057291 61.9852804,2.11057291 L61.7770927,2.10937679 C61.0304886,2.10220011 60.1624416,2.08874383 59.3048639,2.02295756 C58.7266645,1.97780426 58.1038962,1.91171897 57.3444299,1.81513277 C56.9005355,1.74545913 56.374383,1.65844185 55.8362657,1.54301685 C55.5329578,1.47752962 55.229949,1.40935112 54.9272393,1.3408736 C54.6562364,1.27987179 54.3855326,1.21886998 54.1139314,1.15996137 C53.0822657,0.937484184 52.0532921,0.770626293 51.0021836,0.604964515 C50.3261718,0.499706491 49.63999,0.421361029 49.0579021,0.358565049 C48.6038375,0.310421464 48.2021191,0.286798214 47.8294152,0.286798214 C47.7208346,0.286798214 47.612254,0.288891413 47.5033742,0.293077812 C46.151949,0.345706824 44.9859783,0.500304548 43.9390575,0.766140865 C42.7216381,1.07443923 41.594254,1.46257819 40.5886117,1.91919468 L40.2428287,2.07528755 C39.9081132,2.22569887 39.561732,2.38119368 39.228512,2.54775254 C38.6153155,2.85485479 38.1178786,3.11321539 37.6626176,3.36081098 C37.1935971,3.61588227 36.7060311,3.89218458 36.1715032,4.2052674 C35.673468,4.49771725 35.1873977,4.80661367 34.7321367,5.09786741 C33.8045648,5.69054185 32.9012217,6.35199285 32.0277906,6.99161476 L31.9930927,7.01703218 C31.0021073,7.74098013 30.150512,8.39076902 29.3895501,9.00407643 L28.8101543,9.47026182 C28.1284592,10.018082 27.4234328,10.584741 26.7453273,11.1591747 C26.3002364,11.5356515 25.8584358,11.9160158 25.4169343,12.296679 C25.0552979,12.6082667 24.6936616,12.9198544 24.3302305,13.2290498 C23.908471,13.5887811 23.4867114,13.9485123 23.0649519,14.3061504 C22.9405179,14.4117074 22.8169812,14.5184606 22.6931455,14.6249147 C22.4018023,14.8757996 22.1008874,15.1353564 21.7957848,15.3784665 L20.8284299,16.1493619 L20.2936029,16.5216524 L19.7572804,16.895438 C19.6454094,16.9728864 19.5245648,17.0410648 19.4043185,17.1089443 C19.3415032,17.1445287 19.278688,17.1801131 19.2176674,17.2165946 L18.5937026,17.5879879 C18.4590985,17.6678285 18.3191103,17.7392963 18.1797202,17.8101661 L17.9918727,17.9070513 L17.81599,18.0018434 C17.6942481,18.0679286 17.572207,18.134313 17.4474739,18.1941187 L17.0699842,18.3753299 C16.6694622,18.5682033 16.2554798,18.7673563 15.8423947,18.9476704 C15.3291044,19.1569904 14.8274798,19.3340152 14.3085062,19.4883139 C14.1060018,19.5478206 13.9005062,19.5968613 13.6953097,19.6459019 L13.5047701,19.6913543 C13.3115384,19.7377037 13.1186059,19.77269 12.9235795,19.8079754 L12.8891806,19.8139559 C12.7898727,19.8318976 12.6905648,19.8483442 12.591556,19.8650898 L12.4593449,19.8875169 C12.3746938,19.9075518 12.2927349,19.9308761 12.2110751,19.9589847 C11.9119548,20.0546739 11.7468405,20.1751823 11.5287818,20.3486189 C11.2176968,20.5968125 11.0845883,20.9508622 11.0277554,21.2041393 C10.9622481,21.4977853 10.9792979,21.7941225 11.0815971,22.1365101 C11.1273625,22.2878185 11.1806059,22.4364357 11.2335501,22.5850528 L11.2649578,22.6726682 C11.4103302,23.0856265 11.6185179,23.4869227 11.919732,23.9360635 C12.1497554,24.2787501 12.3767877,24.5586408 12.6130927,24.791584 C12.7554739,24.9318283 12.9026411,25.0684844 13.0522012,25.2018511 L13.2750457,25.4024992 C13.502078,25.6085298 13.7371865,25.8214381 13.9815677,26.0125173 L14.2642364,26.2355925 L14.5472041,26.4586678 C15.0584006,26.8608611 15.5142598,27.1422469 15.9811865,27.3443901 C16.3212862,27.4924092 16.6410457,27.605442 16.9587114,27.6903661 C16.7430457,27.8910142 16.5255853,28.0835885 16.3111161,28.2576231 C15.4783654,28.8751169 14.5711337,29.401706 13.613949,29.8224391 C12.626254,30.2180538 11.6274915,30.4937581 10.6457789,30.6420762 C9.83755601,30.7329808 8.98775543,30.777237 8.04732141,30.777237 C7.6997437,30.777237 7.35276422,30.7712565 7.00668211,30.7601924 L6.78114545,30.7530157 L6.5556088,30.7461381 C6.46916305,30.7437459 6.38600762,30.7425497 6.2983654,30.7425497 L6.20294604,30.7467361 L6.11141525,30.7506235 C5.94779648,30.7670701 5.78537419,30.7880021 5.62265279,30.8125224 C5.4366,30.8657495 5.25652962,30.9222659 5.09560293,31.0341025 L4.8512217,31.2233875 C4.76597243,31.3238611 4.68820117,31.4267269 4.61342111,31.5382645 C4.42557361,31.8115766 4.4166,32.2045 4.49138006,32.4727285 C4.5171044,32.5675206 4.56795484,32.6727786 4.61730968,32.7744483 L4.65769091,32.8587743 C4.76178475,33.0788592 4.86348563,33.3001403 4.96518651,33.5217204 C5.04355601,33.6927647 5.12222463,33.863809 5.20208974,34.0348533 C5.59722757,34.882001 6.04142111,35.7760961 6.61393724,36.5759973 C6.7596088,36.7805328 6.90408387,36.9832741 7.05214839,37.1836232 C7.17957361,37.3558636 7.33152669,37.5580068 7.49275249,37.7523753 C7.61359707,37.8980022 7.76136246,38.0218 7.90434194,38.1414114 L8.0072393,38.2281297 C8.36408974,38.5337368 8.83849443,38.9305475 9.34400762,39.2899798 C9.61231848,39.481059 9.91173783,39.6135286 10.1953038,39.7286546 C10.0855267,39.8913261 9.9733566,40.0557917 9.86148563,40.2193603 C9.79089326,40.3237212 9.72000176,40.4274841 9.65060587,40.531247 C9.27072317,41.0970089 8.88425982,41.6493145 8.52082874,42.1666337 L8.37755015,42.3517324 C8.11043578,42.6977083 7.83464692,43.0550474 7.54629501,43.3938466 C7.11376716,43.901597 6.64235367,44.3931998 6.1048346,44.8970628 C5.48116891,45.4828596 4.96399003,45.9346916 4.47732141,46.3183451 C3.56261173,47.0013262 2.57880528,47.618521 1.62730381,48.2153818 L1.57166745,48.2500691 C1.42210733,48.3439641 1.27194897,48.4366629 1.1214915,48.5293617 L0.94889912,48.6355168 C0.50231261,48.9118191 -0.0277284457,49.2392553 0.00128621701,49.824155 C0.0225237537,50.2496726 0.27228915,50.6088058 0.686271554,50.8088558 C0.935139589,50.9290653 1.19567331,51.0202689 1.44035367,51.1010066 C1.99701642,51.283414 2.55786686,51.482567 3.10047097,51.6754403 C3.4247173,51.7905663 3.74866452,51.9053932 4.07410733,52.017828 C4.80725103,52.2714041 5.42642991,52.4711551 6.06535073,52.6218655 C6.55052375,52.7369914 7.10688739,52.8012826 7.81640059,52.8240087 C7.85468798,52.8252048 7.8905824,52.826401 7.92617771,52.826401 L7.82118651,52.9397328 L7.73354428,53.0411034 C7.18764985,53.5940071 6.60077595,54.1256797 6.03304575,54.6397097 C5.80750909,54.8436471 5.58286979,55.0472855 5.36062346,55.25212 C4.8778434,55.6961773 4.23712786,56.2780867 3.56111613,56.8393631 C3.30147977,57.0555607 3.04094604,57.2705622 2.7801132,57.4858627 C2.2790868,57.8991201 1.77776129,58.3129755 1.2827173,58.7340076 C1.24233607,58.7680968 1.20554428,58.8072696 1.17024809,58.853619 L1.04372023,58.9418324 C0.9486,59.0085157 0.853180645,59.0754981 0.756265689,59.1403873 L0.694646921,59.1807561 C0.592646921,59.2471405 0.487057478,59.316216 0.399415249,59.399944 C0.202295015,59.5862387 0.098201173,59.8278538 0.0817495601,60.1391424 C0.0515384164,60.6950363 0.623456305,61.0631404 1.04102815,61.332266 L1.14183167,61.3974542 C1.71853548,61.7751272 2.3499783,62.056513 3.01911026,62.2341359 C3.5724827,62.381557 4.17191965,62.4563141 4.80126862,62.4563141 C5.177861,62.4563141 5.57509267,62.4294015 5.98219531,62.3767725 C6.41771437,62.3202561 6.95972023,62.2499844 7.46852375,62.1417361 C7.60462346,62.1127304 7.74132141,62.0843227 7.87831848,62.056214 C8.45442405,61.9372006 9.05057067,61.8140009 9.60962639,61.6172402 C10.4076792,61.3370505 11.1557789,61.0075211 12.0507466,60.6056268 C12.6878727,60.3188585 13.300471,59.998599 13.9241367,59.6687706 L14.4293507,59.4026353 C14.9264886,59.1421815 15.4403771,58.8724578 15.9336264,58.5868856 C15.8717085,59.7519005 15.8154739,60.8038827 15.7095853,61.8537717 C15.6258317,62.6796884 15.5235326,63.5178652 15.4245238,64.3282324 C15.335685,65.0551706 15.2468463,65.7815108 15.1699724,66.5093461 L15.0963889,67.1926262 C14.9605883,68.4572176 14.8200018,69.7642711 14.7245824,71.0533828 L14.6506997,72.0542312 C14.5588698,73.2949003 14.4667408,74.5352705 14.3856792,75.7771357 C14.3452979,76.3979189 14.2878669,77.0273738 14.2322305,77.6358968 C14.1517672,78.5186288 14.0683126,79.4315628 14.0354094,80.3340307 C14.0150692,80.8878315 14.006993,81.4425293 13.9992158,81.9972271 L13.9884475,82.6631635 C13.9836616,82.9466425 13.9752862,83.2301215 13.9669109,83.5136005 C13.9525531,83.9854675 13.9378962,84.4734819 13.9417848,84.9537217 C13.9531513,86.6871898 14.0013097,88.2400447 14.0889519,89.7010978 C14.1027114,89.9304527 14.1149754,90.1598075 14.1269402,90.3894614 C14.1544592,90.910668 14.1825765,91.4492183 14.2316323,91.9767045 C14.3022246,92.7344427 14.3847818,93.48321 14.4861836,94.3746139 C14.6557848,95.8799233 14.860383,97.6286418 15.1418551,99.3381876 C15.2022774,99.7065907 15.2603067,100.075891 15.3183361,100.445191 C15.4870399,101.518404 15.661427,102.628099 15.8989284,103.706695 L15.9461894,103.922294 C16.0990399,104.618433 16.2569754,105.337895 16.4573859,106.03493 C16.6951865,106.863538 16.9497378,107.643704 17.2356968,108.42058 C17.7896674,109.91931 18.4273918,111.411761 19.1312217,112.856069 L19.3522716,113.312087 C19.7231806,114.078796 20.1066528,114.871521 20.5367877,115.623279 C21.0961425,116.599906 21.5920839,117.37738 22.0981953,118.069631 C22.4143654,118.502325 22.7652334,118.920666 23.1044358,119.32555 L23.1893859,119.426921 C23.2596792,119.510948 23.3296733,119.596171 23.3996674,119.681394 C23.6419548,119.976834 23.8926176,120.282142 24.1710985,120.548577 C24.8704416,121.217503 25.6433683,121.882543 26.4683419,122.524557 L26.5715384,122.604696 L26.5697437,122.603201 L26.5727349,122.605594 L26.5727349,122.605893 L26.58799,122.617854 L26.5885883,122.618153 L26.5888874,122.618452 C26.5921777,122.620844 26.5951689,122.623236 26.5984592,122.625628 L26.9265941,122.879205 L26.8326704,122.804447 C28.1021367,123.763133 29.3997202,124.580079 30.6931161,125.23525 C31.4202774,125.603354 32.2108522,125.851249 33.0244592,126.092864 C33.2347408,126.155959 33.4462188,126.216661 33.6567994,126.275271 C33.9610047,126.426878 34.2622188,126.584167 34.5646293,126.742354 L34.6830809,126.804252 C35.2633742,127.107168 35.8909284,127.345494 36.4975443,127.575746 L36.7293625,127.663959 L36.9351572,127.743202 C37.1514211,127.827229 37.375163,127.914246 37.6012979,127.978238 C38.0248522,128.097551 38.4487056,128.187558 38.8073507,128.259923 C39.4782774,128.395981 40.2386411,128.550579 40.9867408,128.660621 C41.8120135,128.782027 42.656729,128.8212 43.4021367,128.855588 C43.7631748,128.872333 44.1322891,128.880706 44.4984123,128.880706 C44.8815853,128.880706 45.2758258,128.871436 45.6703654,128.853196 C46.0394798,128.836749 46.4175677,128.78412 46.7833918,128.732986 L47.0038434,128.702485 L47.1665648,128.680357 C47.4911103,128.636699 47.826424,128.590948 48.1548581,128.530843 C49.6669109,128.25155 51.1355912,127.830219 52.520817,127.278512 C53.8910868,126.731589 55.4740311,126.077912 56.9190809,125.240034 C58.3294328,124.422192 59.7068815,123.467095 61.0137378,122.401357 C61.7492745,121.802702 62.3959724,121.256975 62.9909226,120.731881 C63.4817789,120.299486 63.9394328,119.810275 64.3821308,119.337212 L64.496993,119.214611 C65.24599,118.413513 65.9130282,117.655775 66.5360956,116.898037 C66.6428815,116.793676 66.7368053,116.678251 66.8145765,116.555649 C67.0852804,116.218943 67.3610692,115.863697 67.6335677,115.49978 C68.5587466,114.260008 69.5344768,112.933218 70.3992334,111.543334 C70.6430164,111.151906 70.8706469,110.74134 71.0907994,110.344529 C71.2101484,110.128929 71.3297965,109.91333 71.4521367,109.699823 C71.6019959,109.438772 71.7527525,109.178318 71.9038082,108.917565 C72.146993,108.497131 72.3904768,108.076697 72.629773,107.653572 C73.2262188,106.599197 73.7173742,105.467673 74.1917789,104.373229 C74.3075384,104.106496 74.4232979,103.839762 74.540254,103.574225 C74.8010868,102.981252 75.1023009,102.278535 75.3619372,101.560268 C75.5758082,101.549503 75.7908757,101.506144 75.998166,101.43348 C76.7986117,101.155384 77.5224827,100.663781 78.2227232,100.188326 C78.3648053,100.091739 78.5062891,99.9957512 78.6474739,99.9018563 C79.2436205,99.5077368 79.8014798,99.090293 80.4167701,98.6250047 C80.7565707,98.3672422 81.1005589,98.1154602 81.4442481,97.8633792 C82.322166,97.2195709 83.230295,96.5539335 84.0495853,95.80397 C84.2840956,95.5895666 84.5317672,95.3590157 84.7567056,95.1027483 C84.9810457,94.847976 85.198207,94.5809436 85.4081894,94.3222839 L85.5021132,94.2068589 C85.9801073,93.6216602 86.496688,93.0588886 86.9965179,92.5146568 C87.5998434,91.855299 88.1523185,91.1391258 88.6862481,90.4468748 L89.1830868,89.8171209 C89.9560135,88.8398958 90.7552628,87.8291795 91.4788346,86.7882614 C91.8814504,86.2096413 92.3130809,85.6381979 92.7306528,85.0849952 C93.1960839,84.4695946 93.6770692,83.8326639 94.119468,83.1834731 C94.3578669,82.8351049 94.5875912,82.4810552 94.8176147,82.1273045 C94.9914035,81.859674 95.1654915,81.5917445 95.3431689,81.3262072 C95.7448874,80.725758 96.1663478,80.1247108 96.5740487,79.5433994 L96.7331806,79.3158387 C97.1552393,78.7138944 97.5246528,78.1161365 97.8306528,77.5390115 C98.1827173,76.8763644 98.5305941,76.2579735 98.8940252,75.6491515 C99.1799842,75.1704069 99.4740194,74.7227613 99.8284768,74.1869023 C100.28314,73.5003329 100.636999,72.6705289 100.879585,71.7214125 C101.226266,70.3602348 101.380612,68.8695779 101.380612,66.8882152 C101.381509,66.6705224 101.373433,66.4528297 101.365656,66.2348379 C101.359673,66.0766519 101.354289,65.9181668 101.351597,65.7596817 C101.346213,65.479193 101.356981,65.1930227 101.367151,64.9167204 L101.377321,64.6386239 C101.386893,64.3180654 101.406336,63.998404 101.426078,63.6790415 C101.44911,63.2986773 101.47304,62.9051558 101.479022,62.5173159 C101.505644,60.8687719 101.196653,59.2145463 100.891251,57.813897 C100.587345,56.4144437 100.243057,55.0517709 99.8676616,53.7641543 C99.6741308,53.1027033 99.4719255,52.3928097 99.2996323,51.6814209 C99.1581484,51.1033989 99.0660194,50.5074351 98.9948287,50.0008809 L98.9062891,49.2380592 C98.8686,48.910025 98.8309109,48.5822898 98.791427,48.2545545 C98.7064768,47.5596124 98.6813507,46.9917573 98.7121601,46.4681584 C98.779163,46.1688309 98.8778727,45.8596355 99.0322188,45.4655159 C99.2798903,44.9057346 99.5063243,44.4012736 99.7656616,43.8983077 C99.8467232,43.7410187 99.9289812,43.5843278 100.01094,43.4276368 C100.227802,43.0146785 100.451843,42.5876658 100.646571,42.1552707 C100.890653,41.6161223 101.122172,41.0315216 101.354887,40.3679774 C101.627984,39.5937927 101.78921,38.8554914 101.848137,38.1118076 C101.901081,37.4392925 101.922019,36.7479387 101.910055,36.0565848 C101.898688,35.3679223 101.752119,34.6505529 101.448512,33.7992189 C101.116489,32.8719315 100.773398,32.1264535 100.400096,31.5209209 C99.9693625,30.8226894 99.4605589,30.167219 98.9688053,29.5332786 L98.9146645,29.4636049 L98.9341073,29.4985913 C98.4519255,28.8724256 97.9619666,28.2947026 97.4411982,27.7298378 C97.0128581,27.2654466 96.4532041,26.6485508 95.9222657,25.9966688 L95.8944475,25.9634766 L95.8965413,25.9616824 L95.8154798,25.8567234 L95.7466821,25.768211 L95.8032158,25.8498458 C95.3694915,25.254181 94.848424,24.5469787 94.333339,23.8242269 C94.8840194,23.8128638 95.3940194,23.7638231 95.8902598,23.679198 C96.3637672,23.5984604 96.7382657,23.4743635 97.0687935,23.2889659 C97.7139959,22.9283375 97.9882891,22.2064828 98.1043478,21.6643442 C98.159685,21.4080768 98.1875032,21.2155024 98.1875032,21.0926017 C98.1886997,20.8823847 98.1546,20.6712706 98.122295,20.4673332 L98.097468,20.3073529 C98.0738375,20.150363 98.0268757,19.992775 97.9811103,19.8402704 L97.9362422,19.6865698 C97.8480018,19.3749821 97.7370282,19.0657867 97.597339,18.7413408 C97.5019196,18.5182655 97.3921425,18.2874155 97.2617261,18.0353345 C97.1133625,17.745875 96.9090633,17.4842251 96.711644,17.2309479 L96.6410516,17.1403423 C95.8468874,16.1206552 94.7790282,15.2071232 93.375556,14.3477153 C92.863163,14.0337354 92.2475736,13.671612 91.5664768,13.3666029 C90.9595619,13.0956831 90.2808581,12.831641 89.4301601,12.5359018 C88.1538141,12.0906484 86.8236264,11.7449715 85.5377085,11.4103586 L84.9397672,11.2545648 C81.7484534,10.4178831 78.3112628,9.75703014 74.7239138,9.28964862 C74.7705765,9.29772239 74.8172393,9.3051981 74.8639021,9.31207576 C74.2560897,9.22804876 73.5678141,9.14521787 72.8753507,9.09109371 C72.2884768,9.04534236 71.666905,9.00557157 70.975339,8.96849204 C70.7064299,8.9544377 70.4378199,8.94845713 70.1689109,8.9460649 C70.2066,8.92453485 70.2415971,8.89702423 70.2765941,8.86921458 L70.3624416,8.80193317 L70.5066176,8.69458195 C70.6238727,8.60816272 70.7420252,8.52114543 70.848512,8.42695146 C71.1135326,8.19460633 71.3818434,7.95927092 71.6348991,7.7143666 C72.0808874,7.28406462 72.5032452,6.80143265 72.9265003,6.23866105 C73.291427,5.75423492 73.6399021,5.27010781 73.9919666,4.75847009 C74.309034,4.30035846 74.577644,3.81443718 74.7903185,3.31446156 C74.9216323,3.00436903 75.0667056,2.63267663 75.1480663,2.22510081 C75.1833625,2.05046818 75.2010106,1.86955595 75.2177613,1.69432526 L75.2276323,1.59295461 C75.2264358,1.43237632 75.2099842,1.27149899 75.1785765,1.11421001 C75.1693038,0.962901604 75.1211455,0.819367935 75.0355971,0.688094432 C74.7849343,0.260184679 74.3302716,0.00451533003 73.8190751,0.00451533003 Z" id="Fill-35"></path>
                    </g>
                </g>
                <path d="M41.513312,103.34499 L41.5426258,103.34499 C42.4944264,103.34499 43.4202035,103.228668 44.2939337,102.999014 L44.5251537,102.940105 C44.7551771,102.882393 44.9932768,102.822288 45.2218047,102.746933 L45.2825261,102.726898 C45.2810305,103.000808 45.2642798,103.280998 45.2481273,103.551918 C45.0863032,103.780674 44.9217871,104.010926 44.7521859,104.236095 C44.6283501,104.382918 44.4922504,104.52376 44.3483736,104.655034 C43.9266141,104.688824 43.4937871,104.691814 43.0863853,104.691814 L42.9457988,104.691814 L42.8055114,104.691515 C42.1220217,104.691515 41.438532,104.681049 40.7562387,104.669387 C39.5836874,104.648455 38.3094352,104.553065 36.861095,104.377535 C36.4874938,104.329691 36.0642387,104.275566 35.6720921,104.139209 C35.619746,104.114988 35.5674,104.090468 35.5159513,104.064751 L35.5901331,103.944243 C35.6388897,103.861412 35.6876463,103.777983 35.7346082,103.693956 L35.8192592,103.542648 C35.8952358,103.405992 35.9736053,103.264252 36.0639396,103.132381 C36.1114997,103.076761 36.1605554,103.02174 36.2140979,102.971503 C36.2383267,102.955655 36.2628545,102.940404 36.2885789,102.925154 L36.3253707,102.913492 L36.3256698,102.916183 C36.3666493,102.914688 36.4079279,102.913492 36.4489073,102.913492 C36.5395408,102.913492 36.6298751,102.917977 36.7211067,102.926948 L36.8368663,102.942497 L36.9526258,102.958346 C37.176966,102.990641 37.4013062,103.026225 37.6253472,103.061511 C38.1517988,103.144641 38.6961977,103.230462 39.2382035,103.275017 C39.9889953,103.337514 40.7427783,103.343794 41.513312,103.34499 M33.9491595,95.3322227 C33.8695935,94.6958901 33.8124616,94.1181671 33.7741742,93.5661605 C33.9931302,93.487516 34.2150774,93.4079744 34.4382211,93.3332173 L34.6461097,93.2626466 C34.9784323,93.1490158 35.3224205,93.0317966 35.6673062,92.9468725 C35.9999279,92.8646397 36.3648545,92.794368 36.7827255,92.7318711 C37.2412768,92.6852226 37.7007255,92.6714673 38.0898809,92.6639916 C38.2191009,92.6621974 38.3483208,92.6604032 38.4775408,92.6604032 C38.712051,92.6604032 38.9022915,92.6669819 39.0769777,92.6804382 C39.2953355,92.7261895 39.5121977,92.7988534 39.7218809,92.8688261 L39.9106258,92.9313231 L40.0401449,92.972589 C40.2695701,93.0452529 40.5064733,93.1206081 40.7353003,93.2082234 C40.9425906,93.3027164 41.147488,93.4040871 41.3523853,93.5054577 C41.5225848,93.5894847 41.692485,93.6735117 41.8638809,93.7536514 L41.9748545,93.8056823 C42.4495584,94.0275615 42.9404147,94.2572153 43.4414411,94.4240732 C43.946356,94.5918282 44.491054,94.6360844 44.9717402,94.6755562 C45.1000628,94.6857231 45.2283853,94.6908066 45.3564088,94.6908066 C45.8364968,94.6908066 46.3593589,94.621432 46.9543091,94.4793935 C47.7371067,94.2907065 48.4729425,93.9318723 49.1597226,93.5808129 C49.0995994,93.6818845 49.0403736,93.7787698 48.9748663,93.8729637 C48.6724557,94.2365824 48.3156053,94.5888379 47.914485,94.9201615 C47.6578399,95.1049611 47.3940158,95.2604559 47.1077578,95.3953177 C46.6958692,95.5541018 46.2561625,95.6784977 45.8009015,95.7652159 C45.6399748,95.7804664 45.4724674,95.7876431 45.2894059,95.7876431 C44.9143091,95.7876431 44.5362211,95.755049 44.2490657,95.7266413 C43.8637988,95.6886647 43.4797284,95.6462026 43.0956581,95.6043386 L42.8701214,95.5795193 C42.2081683,95.5071544 41.533054,95.4628982 40.8800745,95.4198381 L40.2318809,95.3761799 C39.7556815,95.3429877 39.2803795,95.3008247 38.8050774,95.2586617 C38.3477226,95.2182929 37.8900686,95.177625 37.4321155,95.1450309 C37.0630012,95.1193144 36.5751361,95.0879164 36.0768018,95.0735631 C36.0337284,95.072367 35.9906551,95.0720679 35.9475818,95.0720679 C35.4743736,95.0717689 34.997576,95.1384523 34.5103091,95.2126113 C34.3353238,95.2398229 34.1516639,95.2786966 33.9491595,95.3322227 M52.914878,85.8048763 C52.7022035,85.8048763 52.4934176,85.8613927 52.3118516,85.9678469 C52.0447372,86.1233417 51.845224,86.3828984 51.7635642,86.6798337 C51.698356,86.9175613 51.7106199,87.1472152 51.8021507,87.4022865 C51.725576,87.5159173 51.6714352,87.6433034 51.6418223,87.7778662 C51.5891771,88.0132017 51.5434117,88.2700671 51.501834,88.5643111 C51.3196698,88.7156196 51.1407959,88.8744037 50.961922,89.0334868 L50.7618106,89.2105117 C50.5180276,89.4264103 50.2589894,89.6327399 50.0083267,89.8321919 L49.9452123,89.8824287 C49.5749015,90.1557407 49.1725848,90.4454993 48.7433472,90.7113356 C48.3081273,90.9819564 47.8370129,91.2448024 47.3027842,91.5148251 C47.237576,91.5429338 47.1720686,91.5698464 47.1068604,91.5964599 C46.7428311,91.7495625 46.3192768,91.8655856 45.8116698,91.9514067 C45.6785613,91.9615737 45.5457519,91.9660591 45.4135408,91.9660591 C45.172749,91.9660591 44.9131126,91.9508087 44.6193765,91.9197097 C44.3429894,91.8646885 44.0630129,91.7794654 43.7378692,91.6514812 C43.4486199,91.523497 43.1614645,91.3886351 42.8743091,91.2537733 C42.2682915,90.9690982 41.6416346,90.6748542 40.9991243,90.4517789 C40.8702035,90.4072237 40.7409836,90.3572859 40.6111654,90.3067501 C40.3069601,90.1889329 39.9922856,90.0669293 39.6725261,90.0157954 C39.4158809,89.9745295 39.1116757,89.9323664 38.8020862,89.9323664 L38.7383736,89.9329645 C38.4799337,89.937749 38.2229894,89.9515043 37.965746,89.9667547 C37.3564381,90.001143 36.7324733,90.0773953 36.0585554,90.1993989 C35.6266258,90.2768472 35.1707666,90.4132042 34.6242739,90.6282057 C34.1806786,90.8031374 33.738878,91.0037855 33.3120334,91.198154 L33.057183,91.313878 C32.8480979,91.40867 32.6390129,91.5007708 32.4275349,91.5907784 C32.4490716,91.5223009 32.4574469,91.4535243 32.4574469,91.3844487 C32.4574469,91.1512065 32.3620276,90.9224497 32.1960158,90.7561899 C32.0306023,90.5908271 31.8014762,90.4960351 31.5675642,90.4960351 C31.3435232,90.4960351 31.1556757,90.5737825 30.9394117,90.7558909 C30.8933472,90.7950636 30.8457871,90.8330402 30.798227,90.8710168 C30.7031067,90.946671 30.6049953,91.0247175 30.519746,91.1123328 C30.3459572,91.2893577 30.1850305,91.4947902 30.0133355,91.7588324 C29.8880041,91.9511077 29.8069425,92.1634179 29.721095,92.4008465 C29.6032416,92.7255915 29.6355466,93.1110392 29.8075408,93.4321958 C29.8757402,93.5589838 29.9508194,93.6911544 30.0501273,93.7904319 C30.1072592,93.8478453 30.1727666,93.8974841 30.2445554,93.9381519 C30.2867314,94.0048353 30.3339924,94.0661361 30.3839455,94.1196622 C30.3842446,94.2919026 30.4306082,94.4686285 30.5332065,94.6914047 C30.5939279,94.8220801 30.6534528,94.9539517 30.7117812,95.0861223 C30.7102856,95.0672835 30.7034059,95.0511359 30.6974235,95.0346894 L30.7446845,95.1626736 L30.7970305,95.2882655 L30.8245496,95.3513605 L30.8520686,95.4144555 L30.8697167,95.4590108 L30.8855701,95.4948942 L30.8975349,95.5239 L30.9169777,95.5696513 L30.9361214,95.6151036 L30.9501801,95.6491929 L30.9827842,95.7272393 C31.0052182,95.7786722 31.0273531,95.8301051 31.0482915,95.881538 C31.0898692,96.0023455 31.1299513,96.1150793 31.1697343,96.228112 C31.2726317,96.5187677 31.3788194,96.8192913 31.4547959,97.1216091 L31.5316698,97.4266182 L31.6348663,97.8353901 C31.6737519,97.992081 31.6994762,98.1562477 31.7246023,98.3153308 L31.7563091,98.5111945 C31.8263032,99.0951971 31.8816405,99.640027 31.9256111,100.176783 L31.9453531,100.418099 C31.9965026,101.050245 32.0494469,101.703922 32.1511478,102.343842 C32.2531478,102.981371 32.3883501,103.542349 32.5648311,104.05907 C32.6704205,104.366471 32.7996405,104.669686 32.9246727,104.962734 L32.9447138,105.00998 C33.0727372,105.310803 33.2270833,105.552119 33.4606962,105.816759 C33.6614059,106.046114 33.9644147,106.202506 34.2081977,106.328098 C34.3215642,106.385212 34.4361273,106.437841 34.5527842,106.486882 C34.761271,106.576292 34.9371537,106.651647 35.1327783,106.707864 C35.3176346,106.761689 35.512661,106.792788 35.7014059,106.82299 L35.8132768,106.840932 C36.6005613,106.970411 37.3896405,107.048458 38.1526962,107.123813 C39.537922,107.259871 40.9913472,107.282896 42.1594117,107.301137 C42.4941273,107.306818 42.8282446,107.311304 43.162661,107.31549 L43.6621918,107.322368 L43.6924029,107.322667 C43.8042739,107.324461 43.9182387,107.325956 44.0334,107.325956 C44.3758927,107.325956 44.7758164,107.312799 45.1446317,107.214717 C45.6259161,107.087032 46.00879,106.761988 46.2884674,106.493162 C46.6312592,106.16423 46.914227,105.774596 47.1876229,105.398119 L47.2094587,105.368217 C47.5052886,104.960342 47.7972299,104.549178 48.0858809,104.136817 C48.2297578,103.930189 48.3754293,103.724756 48.5216991,103.519323 C48.7813355,103.152715 48.9850364,102.747232 49.1552358,102.396172 C49.3819689,101.925502 49.6236581,101.454233 49.8937636,100.954556 C49.9823032,100.789791 50.0744323,100.626522 50.1662622,100.463551 C50.3008663,100.224329 50.4354704,99.9854049 50.5599044,99.7410986 C50.8096698,99.2494958 51.024139,98.7324755 51.2314293,98.2324999 L51.2469836,98.1954204 C51.3435994,97.9699529 51.4417109,97.7453825 51.5398223,97.5205131 C51.7868956,96.9544522 52.0423443,96.3692535 52.2714704,95.7843538 C52.4359865,95.366312 52.584051,94.9345148 52.7273296,94.516772 C52.8649249,94.1148778 53.0073062,93.6995272 53.1643443,93.2964368 C53.3928721,92.7085468 53.5968721,92.1771732 53.7778399,91.6281569 C53.8451419,91.7029141 53.9274,91.7672052 54.0177343,91.8201332 C54.1975056,91.9253912 54.4038985,91.9807115 54.6141801,91.9807115 C54.7203677,91.9807115 54.8253589,91.9666572 54.9267607,91.9385485 C55.2216933,91.8578108 55.4786375,91.660751 55.6317871,91.397606 C55.7699806,91.1613735 55.8662974,90.7756267 55.7511361,90.4873633 C55.2545965,89.2416107 54.6626375,87.9031592 53.9411595,86.3954576 C53.8077519,86.1149689 53.4873941,85.9179091 53.2289543,85.8470394 C53.1275525,85.8192297 53.021963,85.8048763 52.914878,85.8048763" id="Fill-38"></path>
                <g id="Group" transform="translate(20.000000, 61.000000)">
                    <path d="M33.1982944,0.9229669 C32.9727578,0.9298445 32.7496141,0.9370212 32.5252739,0.9534678 C32.07779,0.9860619 31.634793,1.0596229 31.1980774,1.1612926 C30.9746346,1.2139216 30.7502944,1.2686438 30.5295437,1.3305427 C30.2211507,1.4169619 29.9301067,1.5652801 29.6414557,1.701039 C28.6612387,2.1612438 27.7312739,2.6950097 26.8572446,3.3340335 C26.4238194,3.6516018 26.0089396,3.9972787 25.5916669,4.3372741 C25.0765818,4.7589042 24.5623941,5.1805344 24.0458135,5.6000713 C23.9255672,5.6981527 23.8648457,5.8874377 23.8648457,6.0357558 C23.8648457,6.1993244 23.9303531,6.3569124 24.0458135,6.4726364 C24.1603765,6.5868653 24.318312,6.6523525 24.4816317,6.6523525 C24.6581126,6.6523525 24.7843413,6.5787915 24.9174499,6.4726364 C25.4938545,6.0067501 26.0711566,5.5411627 26.6508516,5.0800608 C26.8916434,4.8940651 27.129444,4.7011917 27.3795085,4.5301474 C27.7031566,4.3067732 28.0280012,4.0896785 28.3657079,3.8887313 C28.9681361,3.5290001 29.5950921,3.2266823 30.2387988,2.9494829 C30.3261419,2.9141975 30.4131859,2.8783141 30.5002299,2.8433278 C30.7470041,2.7428542 31.0099308,2.6857398 31.2704645,2.6364001 C31.4989924,2.59334 31.7275202,2.5562604 31.9572446,2.5227693 C32.2285466,2.4967538 32.500746,2.4707383 32.7729455,2.4740276 C33.122617,2.478513 33.4722886,2.4761208 33.8195672,2.5111071 C34.2434205,2.5840701 34.6436434,2.7153436 35.0444645,2.8633627 C35.3573443,3.0098866 35.6612504,3.1692688 35.9615672,3.3433034 C36.2980774,3.53827 36.622922,3.7577569 36.9746874,3.9249138 C37.2166757,4.0394417 37.4571683,4.1644356 37.7072328,4.2601247 C37.9175144,4.3408624 38.1268985,4.4213011 38.3359836,4.5020388 C38.7670158,4.6668034 39.2216786,4.7741547 39.6667695,4.8910748 C39.9892211,4.9762979 40.3350041,4.8396419 40.5046053,4.5498833 C40.6051097,4.3794371 40.6320305,4.1701171 40.5793853,3.9787389 C40.5315261,3.8059005 40.4052974,3.6154193 40.2380891,3.5346816 C39.4822123,3.1737543 38.702705,2.8678481 37.9480246,2.5045285 C37.6163003,2.3445483 37.3052152,2.1540671 36.9806698,1.9812287 C36.5867284,1.7710117 36.1906933,1.5736529 35.7782065,1.4020105 C35.160224,1.1436499 34.5150217,0.9824736 33.8455906,0.924163 C33.7585466,0.9166873 33.6706053,0.913996 33.582963,0.913996 C33.4546405,0.913996 33.3260188,0.9196776 33.1982944,0.9229669" id="Fill-23"></path>
                    <path d="M24.5699619,6.3063766 C24.4075396,6.3613978 24.2487067,6.4301744 24.0955572,6.5061276 C23.799129,6.6520535 23.5547478,7.0031129 23.5562434,7.339221 C23.5317155,7.349986 23.5074868,7.360751 23.4832581,7.3718151 C23.3360909,7.4370033 23.2227243,7.6158223 23.1817449,7.7641404 C23.1350821,7.9333905 23.1584135,8.1190872 23.2472522,8.2709937 C23.3336979,8.4172186 23.4763783,8.5269621 23.6399971,8.5724144 C23.8257507,8.6238473 23.9786012,8.5804882 24.1470059,8.5057311 C24.4141202,8.3870167 24.682132,8.2709937 24.9507419,8.1543726 C25.1415806,8.0814096 25.3336158,8.0072506 25.528044,7.9408663 C25.5495806,7.9429595 25.5714164,7.9447536 25.5932522,7.9471459 C25.834044,7.9839264 26.0787243,8.0204078 26.3108416,8.0936698 C26.5178328,8.200722 26.714654,8.3331916 26.9617273,8.3212305 C27.4092111,8.3002985 27.7831114,7.9650876 27.7831114,7.5000983 C27.7831114,7.2809104 27.6894868,7.0724876 27.5396276,6.9202821 C27.5405249,6.919983 27.5414223,6.919983 27.5426188,6.919684 C27.3122962,6.6403914 26.9303196,6.4839995 26.5926129,6.3951881 C26.319217,6.3240193 26.0341554,6.2806601 25.7547771,6.2420855 C25.5815865,6.2184622 25.411088,6.2023147 25.2414868,6.2023147 C25.0168475,6.2023147 24.7943021,6.2307224 24.5699619,6.3063766" id="Fill-27"></path>
                    <path d="M13.6374463,1.8802169 C13.3921677,2.0228534 13.1397103,2.301847 13.0894581,2.5928017 C13.0368129,2.8942224 13.0066018,3.1768043 13.0299331,3.4806173 C13.0613408,3.907929 13.1630416,4.3250737 13.2928598,4.7314534 C13.3873818,5.0304819 13.5007484,5.3226327 13.6069361,5.6180728 C13.6865021,5.8381578 13.7666663,6.0594389 13.8489243,6.2792248 C13.7316692,6.3692324 13.6162088,6.4607351 13.5043378,6.5561252 C13.2321384,6.7872742 12.9467777,7.01633 12.7107718,7.2836615 C12.4771589,7.5477036 12.3311883,7.8410506 12.3311883,8.2007818 C12.3311883,8.5440665 12.4690827,8.8759881 12.7107718,9.1187992 C13.2028246,9.6107011 14.0568129,9.6292409 14.5464727,9.1187992 C14.7732059,8.8816697 15.0208774,8.6666682 15.2532938,8.4379114 C15.4614815,8.2333759 15.6762499,8.034821 15.9041795,7.8539088 C16.288549,7.5488997 16.5562616,7.0955726 16.5514757,6.5946999 C16.5478862,6.2594889 16.4171707,5.9778041 16.2780798,5.6811679 C16.1850534,5.4820149 16.092027,5.2828619 16.00259,5.0816158 C15.7671824,4.5161529 15.5305783,3.9491949 15.4094346,3.3478486 C15.4052469,3.2503653 15.4064434,3.1564704 15.4133232,3.057492 C15.4157161,3.0338687 15.41781,3.0108435 15.4193056,2.9875193 C15.4196047,2.9836319 15.4199038,2.9797446 15.4205021,2.9758572 C15.4202029,2.9776514 15.4199038,2.9797446 15.4196047,2.9818378 C15.4336633,2.7482965 15.3992645,2.5285106 15.2697455,2.3078276 C15.1133056,2.0413932 14.8548657,1.8416422 14.5569419,1.7600074 C14.4537455,1.7313007 14.3478569,1.7172463 14.2416692,1.7172463 C14.0307894,1.7172463 13.8211062,1.7728656 13.6374463,1.8802169" id="Fill-29"></path>
                    <path d="M7.8328088,2.9739733 C7.3712663,2.9892238 6.9166035,3.1046488 6.4691196,3.2063185 C6.0087736,3.3103804 5.5508205,3.432982 5.0940639,3.5522944 C4.5460757,3.6934358 4.0226152,3.9293693 3.526973,4.199392 C3.1357238,4.4120013 2.7441754,4.6246105 2.3645918,4.8569557 C2.1845214,4.965503 2.006844,5.0764426 1.8306622,5.1909705 C1.5360287,5.3850399 1.2252428,5.5788104 1.064017,5.9071437 C0.8935185,6.2504284 0.8630082,6.6266062 1.064017,6.9686948 C1.1576416,7.1265818 1.2826739,7.2527718 1.4415067,7.3460687 C1.703237,7.4991713 1.9613777,7.5015635 2.2512252,7.4513267 C2.588932,7.3939133 2.8739935,7.1768186 3.1578587,6.9991957 C3.3786094,6.8601474 3.604146,6.729472 3.8296827,6.5984975 C4.3013953,6.3257835 4.7731079,6.04679 5.2675537,5.8174351 C5.6402575,5.6828723 6.0177472,5.5722318 6.397929,5.4630864 C6.8783161,5.3258323 7.367976,5.1903724 7.8609261,5.101561 C8.3553718,5.0513242 8.8522106,5.0378679 9.3493484,5.0378679 C9.6613308,5.0378679 9.9676299,5.0462407 10.2796123,5.0623882 C10.4680581,5.0716581 10.65441,5.0922911 10.841061,5.1153163 C11.4626328,5.2199762 12.0767267,5.4266049 12.6627032,5.6640335 C13.2355185,5.9286737 13.7760287,6.2423546 14.2803455,6.624214 C14.4729789,6.7701399 14.794234,6.781802 15.0164804,6.7199031 C15.2545801,6.6547149 15.4615713,6.4956317 15.5866035,6.2821254 C15.7161226,6.0611433 15.7514188,5.7926158 15.6835185,5.5462163 C15.6111314,5.2833703 15.4522985,5.133856 15.2441109,4.9747729 C14.7732956,4.6174338 14.2707736,4.314817 13.739237,4.0543632 C13.2612428,3.820822 12.7578235,3.6387136 12.2588909,3.453914 C12.0590786,3.3791569 11.8616592,3.306792 11.654668,3.2520698 C11.4689144,3.2030291 11.2786739,3.1749205 11.0893308,3.1444196 C10.7573073,3.0920896 10.427976,3.0499266 10.0926622,3.023014 C9.6030023,2.9832432 9.1109496,2.9763656 8.6203924,2.9635073 C8.5581754,2.9620122 8.4959584,2.9614141 8.4340405,2.9614141 C8.2333308,2.9614141 8.0326211,2.9676937 7.8328088,2.9739733" id="Fill-31"></path>
                    <path d="M25.5289413,1.7753775 C25.2603314,2.6198339 24.9926188,3.4690748 24.6758504,4.2973837 C24.4230938,4.9555453 24.1577742,5.6089226 23.9005308,6.2655891 C23.853868,6.3672588 23.8101965,6.4692275 23.7844721,6.5783729 C23.6687126,7.0678825 23.9316393,7.5783241 24.4305718,7.7161763 C24.6689707,7.7816635 24.9295044,7.7478733 25.1433754,7.6228794 C25.3210528,7.5191165 25.5109941,7.3187674 25.5609472,7.1079523 C25.659956,6.9183683 25.7329413,6.7111415 25.8140029,6.516474 C25.88639,6.3448317 25.9578798,6.1743854 26.0278739,6.0027431 C26.1810235,5.6253691 26.3281906,5.2479952 26.4717683,4.8673319 C26.7954164,4.0156988 27.0712053,3.1443298 27.3469941,2.2753531 C27.5013402,1.7858435 27.1693167,1.2484893 26.6880323,1.1166177 C26.6045777,1.0935925 26.5214223,1.0828275 26.4400616,1.0828275 C26.0257801,1.0828275 25.6587595,1.3660075 25.5289413,1.7753775" id="Fill-40"></path>
                    <path d="M30.1447255,5.7005748 C30.121095,5.7035651 30.0974645,5.7068544 30.0741331,5.7095457 C30.0974645,5.7065554 30.121095,5.7035651 30.1447255,5.7005748 M31.9891009,4.0532269 C31.4306434,4.0882132 30.869793,4.1163219 30.3134293,4.1794169 C29.8485965,4.2332421 29.382268,4.3032147 28.921922,4.3896339 C28.4346551,4.4796415 27.9578575,4.6151014 27.4858457,4.7598312 C26.5792123,5.0403199 25.6899279,5.3698493 24.8009425,5.6990797 C24.6127959,5.7690523 24.4596463,5.8638443 24.3555525,6.0414673 C24.2541507,6.2143057 24.2272299,6.4233266 24.2798751,6.6162 C24.3310246,6.8030928 24.4560569,6.9642692 24.6232651,7.0623505 C24.7832944,7.1556474 25.0169073,7.2034919 25.1969777,7.1371076 C26.0078927,6.836883 26.8212006,6.5435361 27.6437812,6.2774007 C28.0795994,6.1359603 28.5199044,6.0097702 28.9652944,5.9060074 C29.3801742,5.8103183 29.8028311,5.7484194 30.2248897,5.6907069 C30.7800569,5.6228274 31.3370188,5.5809634 31.8933824,5.5286334 C32.0333707,5.5157752 32.1736581,5.502917 32.3139455,5.4912549 C32.3827431,5.4852743 32.4530364,5.4783966 32.521834,5.4724161 C32.6773765,5.4595578 32.8430891,5.4550724 32.9917519,5.4072279 C32.9911537,5.4069288 32.9908545,5.4063308 32.9902563,5.4060317 C33.1508839,5.3611775 33.2920686,5.2562185 33.3785144,5.1090965 C33.4380393,5.0077258 33.467054,4.8988794 33.467054,4.7822583 C33.467054,4.599851 33.3922739,4.4599056 33.27801,4.3241467 C33.0593531,4.0672812 32.7123736,4.0615997 32.4015877,4.043957 C32.3647959,4.0418638 32.3274059,4.0406677 32.2897167,4.0406677 C32.1892123,4.0406677 32.0866141,4.0472463 31.9891009,4.0532269" id="Fill-42"></path>
                    <path d="M13.2397361,7.0101401 C13.2633666,7.0265867 13.2858006,7.0442294 13.3076364,7.0627691 C13.2849032,7.0454255 13.2624692,7.0277828 13.2397361,7.0101401 M13.1990557,6.9784431 C13.199654,6.9787421 13.2005513,6.9790412 13.2011496,6.9790412 C13.2092258,6.9853208 13.2170029,6.9916004 13.2244809,6.998179 C13.2158065,6.9916004 13.2074311,6.9850217 13.1990557,6.9784431 M13.1814076,6.9646878 C13.1826041,6.9655849 13.1835015,6.966482 13.1846979,6.96708 C13.1843988,6.96708 13.1843988,6.966781 13.1840997,6.966781 C13.1832023,6.9661829 13.182305,6.9655849 13.1814076,6.9646878 M11.8353666,5.6038092 C11.1108974,5.8047563 10.3912141,6.0245423 9.6736246,6.2500097 C9.3652317,6.346895 9.062522,6.4635161 8.7634018,6.5864168 C8.6799472,6.6211041 8.5958944,6.6545953 8.5118416,6.6889835 C8.4035601,6.7242689 8.2949795,6.7598533 8.1860997,6.7954377 C7.9046276,6.8887346 7.6114897,6.9799382 7.348563,7.1177904 C7.2468622,7.1716155 7.1218299,7.2975065 7.0739707,7.4015684 C7.0036774,7.5510826 6.9396657,7.7612997 7.0084633,7.9284566 C7.0820469,8.1036873 7.1511437,8.2448287 7.3216422,8.3453023 C7.3916364,8.3862692 7.4664164,8.4131817 7.5447859,8.42604 C7.7036188,8.4610263 7.8358299,8.4388982 7.9910733,8.4083973 C8.1149091,8.3826808 8.2411378,8.3151004 8.3580938,8.2672558 C8.4373607,8.2343627 8.5157302,8.2005725 8.5940997,8.1667823 C8.6856305,8.1276095 8.776563,8.0884368 8.8671965,8.0495631 C9.4020235,7.8372529 9.938346,7.6357077 10.4821466,7.4482168 C10.7582346,7.3540229 11.0346217,7.2619221 11.3113079,7.1698213 C11.5742346,7.1073244 11.838956,7.0534992 12.1054721,7.0122333 C12.4288211,6.9715654 12.7524692,6.9285053 13.0773138,6.9473441 C13.1132082,6.9545208 13.1485044,6.9631926 13.1838006,6.9736586 C13.1999531,6.9835266 13.2155073,6.9936936 13.2310616,7.0041595 C13.261871,7.0319692 13.2884927,7.0633672 13.3109267,7.0989516 C13.4069443,7.2218523 13.6055601,7.2813589 13.7527273,7.2813589 C13.918739,7.2813589 14.0775718,7.2146756 14.1942287,7.0989516 C14.3111848,6.9823305 14.3778886,6.8223502 14.3778886,6.6575855 C14.3778886,6.4751782 14.301912,6.3525765 14.1942287,6.2159205 C14.0063812,5.9743055 13.7117478,5.811933 13.4174135,5.7416613 C13.0904751,5.6627178 12.7497771,5.6869391 12.4189501,5.7246167 C12.3025924,5.633413 12.1569208,5.580784 12.0064633,5.580784 C11.9499296,5.580784 11.8921994,5.5882597 11.8353666,5.6038092" id="Fill-44"></path>
                </g>
                <path d="M31.9242352,58.1182481 C31.8793672,58.1245277 31.8342,58.1305083 31.789332,58.1364889 C31.8342,58.1305083 31.8793672,58.1242287 31.9242352,58.1182481 M35.3231384,55.0893887 C34.7781413,55.9688314 34.2157953,56.8428917 33.5954199,57.6712006 C33.5481589,57.7256237 33.5005988,57.7773557 33.4503466,57.8269944 C33.3914199,57.8613827 33.3306985,57.8921826 33.2693789,57.9214874 C33.1951971,57.9442136 33.1207161,57.9618562 33.0453378,57.9762096 C32.5751208,58.0279415 32.1058012,58.0895414 31.6367806,58.1568228 C31.6535314,58.1544306 31.6702821,58.1523374 31.687332,58.1499452 C31.6819478,58.1505432 31.6768628,58.1514403 31.6717777,58.1520384 C31.5760592,58.1648966 31.4815372,58.1777548 31.3867161,58.190613 C31.2057484,58.2408498 31.0490094,58.3320535 30.9159009,58.4651212 C30.7160886,58.6648722 30.602722,58.9381842 30.602722,59.2210652 C30.602722,59.7874251 31.0887924,60.3107249 31.6717777,60.289793 C32.3286457,60.2652726 33.0004698,60.3143133 33.6501589,60.1893194 C34.2633554,60.0723992 34.8454434,59.7315068 35.2438716,59.2560515 C35.6177718,58.8087049 35.9378305,58.3099254 36.2683584,57.8284895 C36.6249097,57.3099742 36.9626164,56.7774044 37.2955372,56.2424425 C37.6227748,55.7131621 37.4112968,54.987719 36.8854434,54.6794206 C36.7065695,54.5747607 36.5127396,54.526019 36.3216018,54.526019 C35.9270622,54.526019 35.54359,54.7338438 35.3231384,55.0893887" id="Fill-46"></path>
                <path d="M57.8283765,35.5884558 C57.8283765,35.8279776 58.0293853,36.0289247 58.2689806,36.0289247 C58.5082768,36.0289247 58.7092856,35.8279776 58.7092856,35.5884558 C58.7092856,35.3489339 58.5082768,35.1479868 58.2689806,35.1479868 C58.0293853,35.1479868 57.8283765,35.3489339 57.8283765,35.5884558" id="Fill-48"></path>
                <path d="M57.7379525,35.8201729 C57.274017,36.0922888 57.064932,36.7534408 57.370932,37.2217194 C57.6257824,37.6131477 57.868668,38.0090614 58.1094598,38.4085634 C58.2706856,38.6785862 58.4459701,38.9423293 58.5931372,39.2204258 C58.9520815,39.8956321 59.3023513,40.5720345 59.6379642,41.2598 C60.1994129,42.4104616 60.7611607,43.559628 61.2687677,44.7345109 C61.7808616,46.0143528 62.2806915,47.3010723 62.6943748,48.6164986 C63.1418587,50.0392761 63.5567384,51.4725196 64.0230669,52.8893165 C64.4564921,54.206836 64.8875243,55.5234584 65.284756,56.8538361 C65.7160874,58.2999378 66.1611783,59.7424512 66.5817413,61.1921413 C66.7782633,61.8682447 66.9194481,62.5667752 67.0794774,63.2524475 C67.2173718,63.8424307 67.3412076,64.4368993 67.4653425,65.0304708 C67.7408323,66.3467942 68.0459349,67.6562399 68.3836416,68.9585089 C68.712973,70.2213062 69.0635419,71.4769268 69.4410317,72.7268658 C69.6187091,73.3156529 69.7916006,73.9065332 69.9749613,74.4941241 C70.0895243,74.8619292 70.2097707,75.2219595 70.3817648,75.5676364 C70.5651255,75.9342453 70.9659466,76.2601863 71.3548029,76.3678366 C71.5967912,76.4342209 71.9039877,76.4378092 72.1471724,76.3711259 C72.4112956,76.298761 72.5910669,76.1644972 72.7896827,75.983286 C73.0445331,75.7533331 73.1800346,75.3807436 73.1800346,75.0443365 C73.1797355,74.9695794 73.1737531,74.8969155 73.1617883,74.8257467 C73.1641812,74.7814905 73.165976,74.7372343 73.165976,74.692679 C73.1671724,74.4382058 73.1004686,74.177453 73.0573953,73.925372 C73.0011607,73.5994309 72.9359525,73.274686 72.8680522,72.9511372 C72.738234,72.3342414 72.5737179,71.7233263 72.4041167,71.1171955 C72.011671,69.7027908 71.6506328,68.2800133 71.3024569,66.8536475 C70.9623572,65.4601748 70.6668264,64.0574322 70.3431783,62.659175 C70.0288029,61.2971003 69.638451,59.9619381 69.1897707,58.6387371 C68.7072897,57.2087829 68.2621988,55.7662695 67.7910845,54.3318299 C67.3588557,53.0119182 66.8225331,51.7293851 66.3412487,50.4271161 C65.8037296,48.9738376 65.2754833,47.5136816 64.6269906,46.1052575 C64.0182809,44.7841496 63.3778645,43.4851699 62.6569848,42.2211765 C61.5026798,40.1970528 60.4219584,38.1364475 59.1411255,36.187978 C58.9335361,35.8728019 58.5940346,35.6814237 58.2410727,35.6814237 C58.0720698,35.6814237 57.9000757,35.7253809 57.7379525,35.8201729" id="Fill-50"></path>
            </g>
        </g>
    </g>
</svg>