<svg width="500" height="600" xmlns="http://www.w3.org/2000/svg"><g fill="none" fill-rule="evenodd"><path d="M305.499 166.84l-15.117 33.6c-6.578 17.178-13.017 25.768-19.316 25.768-9.45 0-32.625-10.865-36.618-18.317-2.662-4.967-3.993-22.264-3.993-51.89 10.433-12.283 19.06-18.425 25.884-18.425 4.591 0 15.034-1.316 28.288 7.52 4.294 2.862 11.251 10.11 20.872 21.745z" fill="#F1DDC2"/><g fill="#161616" fill-rule="nonzero"><path d="M278.25 142.072c-.459.108-.907.287-1.361.416-.54.15-1.081.298-1.623.444-2.003.536-4.013 1.029-5.991 1.654a.664.664 0 00-.524.341c-.285.39-.363.963-.363 1.43-.002.359.054.707.172 1.045.076.197.373.832.715.725a49.796 49.796 0 014.475-1.183c.8-.17 1.603-.338 2.406-.496.34-.067.682-.129 1.024-.187.354-.06.719-.135 1.078-.11.025.015.05.033.075.052 1.043 1.165 1.884 2.54 2.604 3.929 1.137 2.426 1.896 5.02 2.581 7.609.228.956.455 1.913.599 2.887.143.967.26 1.93.364 2.9.103 2.074.151 4.148.13 6.227a91.776 91.776 0 01-.265 5.762 76.6 76.6 0 01-.628 4.62c-.25 1.49-.616 2.964-.952 4.435-.668 2.923-1.41 5.832-2.151 8.737-.436 1.543-.88 3.082-1.336 4.618a108.142 108.142 0 01-1.531 4.68c-1.042 3.002-2.526 5.835-3.783 8.749a60.129 60.129 0 00-1.274 3.217c-.119.336-.218.676-.315 1.02l-.285 1.098c-.064.483-.1.968-.106 1.454-.027 1.28.276 2.941 1.36 3.775.252.195.568.259.876.31.188.031.717-.21.93-.361.32-.228.575-.572.83-.872.15-.175.291-.354.445-.527.74-.842 1.342-1.836 1.946-2.777.739-1.152 1.42-2.338 2.093-3.528 1.173-2.073 2.259-4.188 3.334-6.31.436.78 1.225 1.58 2.101.94.936-.682 1.33-1.753 1.825-2.754.186-.374.353-.756.526-1.136.301-.66.575-1.335.838-2.01.25-.642.494-1.286.732-1.933.318.164.677.197 1-.081a4.7 4.7 0 00.59-.598c.232-.315.365-.681.483-1.047.045-.139.086-.278.126-.418.161-.56.299-1.126.442-1.691.164-.653.321-1.31.478-1.966.133-.563.28-1.125.396-1.69.139-.664.313-1.329.414-1.999.116-.772.231-1.545.348-2.317.157-1.043.263-2.098.343-3.155.526-2.094 1.049-4.19 1.564-6.286.586-2.384 1.199-4.763 1.728-7.16.055-.207.1-.416.137-.626v-.002c.078-.448.114-.903.11-1.364 0-1.137-.188-2.535-.884-3.486-.29-.494-.715-.771-1.275-.833-.908 0-1.498 1.047-1.742 1.768-.132.39-.25.784-.358 1.18a3.388 3.388 0 00-.176-.15c-.2-.063-.399-.128-.598-.192a3.131 3.131 0 00-.2-.175l-.615-.197c-.503.055-.885.305-1.147.749-1.02 2.005-1.843 4.107-2.616 6.225.021-.409.04-.818.062-1.227.039-.714.065-1.439.054-2.153a115.627 115.627 0 00-.165-4.746c-.11-1.945-.19-3.907-.472-5.836-.273-1.872-.606-3.738-1.143-5.557-.432-1.461-.856-2.936-1.455-4.34-.64-1.502-1.236-3.035-2-4.48-.653-1.234-1.61-2.31-2.532-3.348-.356-.4-.713-.837-1.131-1.17-.337-.268-.67-.55-1.1-.55-.076 0-.155.01-.237.028" opacity=".2"/><path d="M261.43 141.85c.175 0 .35-.011.524-.023l.222-.013.087-.006c1.295-.073 2.633-.148 3.932-.407l.552-.111.551-.11c.071-.014.143-.03.214-.046l-.2.202c-.363.397-.73.79-1.097 1.184-.12.129-.24.255-.36.381-.19.2-.374.395-.556.594a10.7 10.7 0 00-.649.798c-.055.082-.097.16-.128.24l-.062.148-.063.147c-.023.141-.041.28-.053.422-.041.439.286.88.614 1.073.269.157.547.227.93.234.137 0 .252-.012.364-.023l.137-.013c.248-.018.495-.04.742-.067.646-.068 1.3-.164 1.932-.258l.072-.011.22-.033c1.03-.154 2.095-.312 3.085-.691.922-.355 1.816-.817 2.68-1.265l.504-.261c.547-.28 1.07-.607 1.517-.891.001.464.014.965.074 1.465.063.545.142 1.126.34 1.71.06.165.125.328.197.488.107.198.24.363.368.513.142.167.474.348.682.406.108.03.27.05.434.051.008.526.066 1.075.118 1.56l.006.057c.153 1.45.59 2.855.998 4.04l.205.593.068.194c.12.349.241.697.358 1.046l.121.358.015.044c.148.436.301.886.425 1.335.09.327.179.657.266.986l.02.07c.232.876.473 1.782.769 2.654.396 1.169.757 2.19 1.102 3.123.114.307.231.614.35.92l.013.034c.248.65.505 1.321.717 1.995.32 1.016.628 2.013.876 3.03l.041.167c.105.424.214.862.288 1.306.078.46.152.922.221 1.384l.005.045c.09.872.183 1.773.32 2.666.051.327.158.653.252.94l.03.095c.074.222.168.457.287.718.118.259.232.51.394.728.19.26.437.54.815.642.15.045.303.072.46.08a2.63 2.63 0 00.452-.073c.145-.058.286-.118.425-.182.117-.067.225-.14.323-.219.115-.083.224-.171.334-.26l.027-.021.049-.042c.175-.142.346-.287.518-.432l.07-.06.38-.321.441-.37a75.005 75.005 0 011.891-1.558c.285-.211.54-.39.78-.543a75.302 75.302 0 00-.613 2.213l-.018.069c-.082.313-.165.625-.25.939l-.12.439c-.28 1.018-.569 2.07-.681 3.148a94.47 94.47 0 00-.325 3.919l-.079 1.296a771.7 771.7 0 01-.161 2.628c-.03.475-.073.955-.118 1.445a29.892 29.892 0 01-.562 2.89.42.42 0 00-.118 0c-.277.033-.554.07-.831.108l-.142.019c-.27.032-.54.057-.81.083-.699.066-1.42.134-2.115.315-.532.139-1.101.303-1.665.562a7.32 7.32 0 00-1.242.753 52.908 52.908 0 00-2.747 2.118c-.42.348-.807.718-1.13 1.034-.308.3-.58.645-.876 1.03-.371.484-.73 1.035-1.124 1.73-.16.283-.316.569-.472.856l-.074.137c-.15.277-.305.564-.494.826l-.294.361c-.15.182-.3.363-.444.55-.335.432-.67.867-.998 1.304-.325.431-.649.861-.971 1.294-.122.162-.241.326-.36.49a47.26 47.26 0 01-.337.459c-.233.28-.475.554-.718.828-.196.222-.392.444-.585.67l-.422.5c-.3.359-.6.716-.91 1.067-1.014 1.149-1.94 2.173-3.003 3.074a8.94 8.94 0 01-1.277.718c-.256.1-.522.192-.79.272l-.171.05c-.326.098-.662.198-1 .267a4.352 4.352 0 01-.676-.009 5.206 5.206 0 01-.76-.21 2.496 2.496 0 01-.165-.09 11.058 11.058 0 01-.464-.763 26.927 26.927 0 00-.218-.379c-.157-.268-.353-.518-.542-.76l-.047-.06a2.965 2.965 0 00-.53-.536 4.729 4.729 0 00-.411-.307 2.13 2.13 0 00-.47-.223c-.654-.276-1.387-.318-2.096-.36a12.661 12.661 0 00-.699-.018c-.292 0-.584.008-.876.015l-.078.002c-1.354.032-2.56.126-3.686.286a3.195 3.195 0 00-1.81.9 10.21 10.21 0 00-.422.461l-.112.128-.077.087c-.294.334-.598.679-.942.974-.318.228-.61.407-.89.547a3.493 3.493 0 01-.444.118 4.605 4.605 0 01-.63-.004 4.772 4.772 0 01-.69-.194 2.613 2.613 0 01-.218-.122 7.784 7.784 0 01-.722-.77c-.344-.48-.653-.999-.952-1.501l-.2-.336a17.523 17.523 0 01-.989-1.893 20.311 20.311 0 01-.526-1.482c-.181-.59-.35-1.1-.518-1.56a84.52 84.52 0 00-1.033-2.655l-.216-.538c-.198-.496-.448-1.075-.8-1.605-.314-.472-.67-.951-1.086-1.464-.338-.415-.71-.842-1.135-1.308-.336-.368-.79-.836-1.328-1.182a2.981 2.981 0 00-.956-.401 2.471 2.471 0 00-.56-.06c-.157 0-.328.012-.522.037-.435.054-.897.15-1.374.283-.267.076-.532.155-.796.236l-.032-.224a145.1 145.1 0 01-.305-2.004c-.243-2.109-.385-4.201-.52-6.338a216.046 216.046 0 01-.186-3.424c-.05-1.042-.028-2.102-.006-3.126l.002-.048a58.46 58.46 0 01.172-3.367c.067-.847.17-1.707.268-2.538l.087-.735c.126-1.098.2-2.215.262-3.258.065-1.102.041-2.23.02-3.225-.022-1.078-.032-2.358.063-3.677a77.51 77.51 0 01.446-4.38c.063-.42.146-.816.254-1.212.395-.297.741-.566 1.073-.83a37.57 37.57 0 001.494-1.275l.053-.048c.45-.397.881-.856 1.262-1.261l.092-.097c.27-.287.536-.579.802-.87l.399-.438c.56-.609 1.117-1.22 1.675-1.831l.286-.314c1.119-1.227 2.275-2.496 3.44-3.744a93.463 93.463 0 011.98-2.037c.33-.333.652-.658.971-.985.576-.59 1.154-1.174 1.735-1.757.58-.58 1.239-1.164 1.958-1.735.69-.514 1.298-.89 1.913-1.183a4.845 4.845 0 011.159-.295 27.74 27.74 0 013.867-.163c.68.018 1.361.05 1.938.078.204.01.408.017.612.025l.3.013c.047.002.095.002.144.002m28.645-38.557c-.102 0-.199.013-.287.039-.306.09-.586.23-.868.375-.339.177-.642.325-.928.452-.923.365-1.916.635-2.775.86-.556.144-1.158.296-1.793.432-.48.102-.958.175-1.421.245l-.057.009-.316.038c-.419.051-.893.11-1.36.14l-.321.023-.169.012c-.474.035-.964.072-1.447.072h-.05l-.087-.001a54.04 54.04 0 01-2.028-.03c-.77-.03-1.528-.073-2.178-.11a81.531 81.531 0 01-3.88-.336l-.415-.047a20.712 20.712 0 00-1.483-.135 37.494 37.494 0 00-2.05-.039c-1.082.013-2.505.036-3.91.104-1.026.05-2.03.212-2.985.48-.696.195-1.39.396-2.081.601-.446.132-.893.282-1.326.427l-.457.152c-.208.068-.412.147-.616.228l-.317.12-.132.05c-.264.098-.544.204-.81.322-.599.266-1.242.557-1.886.876-.582.29-1.162.605-1.674.883l-.162.088a31.418 31.418 0 00-3.005 1.863l-.144.1c-.534.372-1.078.752-1.596 1.149-.534.41-1.122.876-1.796 1.428-.65.532-1.274 1.122-1.824 1.643l-.083.078c-.274.26-.549.518-.826.77a37.648 37.648 0 01-2.636 2.228l-.298.234c-1.001.748-2.006 1.46-2.942 2.117a36.87 36.87 0 01-.997.666c-.156.102-.313.204-.468.307-.162.107-.33.207-.497.305l-.227.136c-.398.242-.83.497-1.296.717-.22.088-.445.169-.67.25l-.203.073a7.426 7.426 0 01-1.233.337c-.107.01-.209.017-.31.017-.055 0-.11-.002-.165-.008a.89.89 0 00-.387.047c-.426.158-.687.499-.678.89.006.235.066.423.166.666.094.225.209.467.35.74.242.453.548.853.843 1.218a7.998 7.998 0 002.052 1.776c.218.134.464.234.681.321l.146.06c.348.145.72.224 1.068.288.31.055.62.085.881.106-.449.41-.916.786-1.314 1.1-.896.636-1.823 1.293-2.84 1.811-.372.19-.76.367-1.103.524l-.554.256c-.268.127-.542.25-.815.373l-.311.14c-.788.308-1.704.662-2.6.972l-.201.065-.055.017a3.872 3.872 0 00-.664.256c-.235.127-.4.266-.533.451a.728.728 0 00-.155.293l-.014.084-.007.046c-.029.165-.058.334-.006.493.187.563.476 1.108.707 1.52.22.389.481.76.713 1.089.345.487.662.903.977 1.28.172.207.385.386.59.558l.15.125c.224.194.475.378.697.54.34.249.73.422 1.066.56a21.02 21.02 0 01-.879.79l-.407.356a44.71 44.71 0 01-1.69 1.429c-.52.399-1.077.819-1.664 1.179l-.765.468-.298.182c-.959.588-1.92 1.173-2.883 1.754a.788.788 0 00-.26 1.096c-.047.04-.092.09-.133.142a1.97 1.97 0 00-.366.62c-.074.197-.09.391-.096.555-.012.414.217.855.628 1.21.192.167.417.29.634.409.13.07.275.15.41.239.137.115.271.234.406.353l.049.044c.203.18.405.358.614.527.284.23.586.464.923.713a5.36 5.36 0 001.378.733 6.399 6.399 0 002.12.376c.1 0 .201-.002.302-.007-.097.161-.19.332-.282.502a15.139 15.139 0 01-1.104 1.77c-.758.92-1.66 1.7-2.675 2.552-.455.382-.928.752-1.385 1.11l-.068.053-.512.384-.25.188a2.86 2.86 0 00-.355.26 1.58 1.58 0 00-.328.37c-.156.22-.204.507-.135.806.076.33.28.616.546.763.32.177.656.201.972.201.083 0 .166-.002.25-.004h.042a13.87 13.87 0 01.899.01c.594.024 1.193.093 1.721.153a10.468 10.468 0 00.948.065c.26 0 .523-.029.754-.054l.1-.01a29.12 29.12 0 002.07-.312c.576-.107 1.124-.31 1.77-.581a23.799 23.799 0 001.868-.872c.586-.305 1.156-.61 1.69-.974.242-.164.482-.332.726-.505-.065.42-.114.844-.162 1.269l-.012.101-.1.871-.1.887c-.06.53-.109 1.062-.158 1.594l-.014.145c-.035.381-.05.772-.065 1.15l-.02.476a26.93 26.93 0 00-.018 1.551c.003.488.007.993-.016 1.49-.007.157-.012.315-.018.473-.014.37-.028.753-.06 1.127a47.25 47.25 0 00-.042.55c-.028.369-.056.75-.103 1.123l-.177 1.418-.045.305c-.3 1.998-.608 4.063-.703 6.114l-.004.084a78.944 78.944 0 00-.107 3.434 56.31 56.31 0 00.084 2.788l.017.367c.067 1.477.162 3.422.298 5.366.062.873.139 1.808.275 2.742.087.587.171 1.175.254 1.763a.793.793 0 00-.153.19.929.929 0 00-.094.717c.06.224.226.434.441.562.115.9.24 1.816.37 2.723.075.525.159 1.025.249 1.485l.084.446c.063.344.128.7.21 1.045.279 1.168.525 2.147.821 3.128l.287.958c.212.714.432 1.453.66 2.175.296.934.627 1.913 1.073 3.173.42 1.19.881 2.206 1.41 3.104.307.521.624 1.034.97 1.567.231.358.483.71.727 1.05l.174.244c.245.343.506.685.76 1.016l.253.332c.308.404.672.87 1.081 1.287.493.5.903.903 1.293 1.267a18.9 18.9 0 001.133.964 34.11 34.11 0 001.555 1.176c.36.255.752.5 1.273.794l.448.253c.776.438 1.578.89 2.384 1.306a43.607 43.607 0 003.231 1.5c.44.184.87.36 1.326.485.321.089.655.154.977.218l.216.043c.41.081.822.151 1.234.221l.304.052c1.026.173 2.12.287 3.446.36l.207.01c.41.024.833.048 1.25.048.058 0 .116 0 .174-.002a8.09 8.09 0 00.748-.037l.107-.012c.498-.056 1.012-.113 1.5-.259l.863-.256a8.13 8.13 0 00.55-.193l.24-.089c.424-.153.844-.34 1.251-.519.144-.064.289-.128.433-.19.372-.162.74-.335 1.108-.508l.418-.196.1-.046c.416-.194.846-.394 1.257-.616.53-.286 1.055-.577 1.58-.873.35-.196.697-.408 1.033-.614l.336-.205c.353-.214.702-.448 1.04-.676l.22-.148.293-.196c.353-.237.705-.473 1.054-.715.443-.305.9-.652 1.438-1.09.06-.05.122-.098.184-.147.132-.104.265-.209.389-.322l.379-.345.38-.345c.857-.78 1.558-1.5 2.144-2.2a41.014 41.014 0 002.122-2.776 39.835 39.835 0 001.771-2.723 93.623 93.623 0 001.609-2.851 47.68 47.68 0 001.034-2.027 44.75 44.75 0 001.007-2.286c.393-.908.818-1.82 1.228-2.7.404-.869.823-1.767 1.21-2.662.127-.293.257-.585.387-.878.192-.43.384-.86.565-1.295.02.008.045.014.07.019.122.025.249.038.375.038.332 0 .668-.088 1.028-.268.165-.082.328-.168.492-.254l.05-.026.32-.17c1.113-.572 2.095-1.324 3.044-2.052a37.395 37.395 0 001.652-1.365c.343-.294.691-.58 1.041-.866l.36-.294c.548-.451 1-.86 1.385-1.247.372-.372.71-.802 1.01-1.18l.177-.223c.443-.557.928-1.183 1.484-1.914.307-.406.586-.847.855-1.275l.238-.373c.412-.646.805-1.304 1.238-2.035.25-.424.501-.846.758-1.264.607-.996 1.258-1.95 1.926-2.922a72.297 72.297 0 011.945-2.703c.843-1.057 1.773-2 2.767-2.799.378-.278.882-.637 1.42-.956.183-.107.363-.218.542-.33l.167-.104c.636-.39 1.046-.758 1.291-1.157.515-.836.543-1.863.527-2.844-.012-.633-.025-1.268-.045-1.902l-.02-.777c-.026-1.014-.054-2.061-.139-3.092l-.022-.28a38.76 38.76 0 00-.201-1.983l-.015-.134a11.752 11.752 0 00-.111-.815l-.105-.572-.105-.571c-.237-1.294-.553-2.55-.83-3.607a75.168 75.168 0 00-1.166-4.056 88.785 88.785 0 00-1.234-3.52c-.286-.768-.512-1.393-.733-2.024-.209-.6-.405-1.219-.604-1.853l-.012-.037c-.224-.722-.374-1.458-.506-2.108-.08-.609-.145-1.167-.114-1.738a2.79 2.79 0 01.064-.234c.02-.037.043-.074.065-.11.235-.24.51-.45.776-.651l.053-.041c.149-.108.312-.228.476-.35l.175-.127c.279-.203.572-.393.856-.576l.031-.02a6.26 6.26 0 01.467-.263l.044-.024c.052-.027.105-.054.156-.082l.18-.098c.233-.128.466-.255.702-.378.58-.303 1.164-.598 1.75-.89l.24-.118c.482-.237.98-.482 1.443-.793.292-.195.592-.423.808-.774.128-.211.162-.436.184-.648a1.46 1.46 0 00-.027-.39l-.015-.098-.026-.063-.018-.044a1.07 1.07 0 00-.187-.375 2.952 2.952 0 00-.316-.385 6.928 6.928 0 00-.384-.365 32.233 32.233 0 00-1.652-1.338c-.522-.4-1.05-.795-1.577-1.188l-.142-.107c-.399-.298-.798-.597-1.195-.9a903.605 903.605 0 01-2.078-1.583 60.619 60.619 0 01-3.878-3.58 31.656 31.656 0 01-1.7-1.908c-.288-.345-.61-.668-.921-.981l-.07-.07c.178.014.354.018.53.02l1.042.016 1.043.017 1.731.03c.231.004.462.01.693.016l.465.01c.089.002.177.005.266.009.145.006.287.012.429.012.235-.001.564-.058.77-.183.126-.076.242-.168.36-.262l.064-.049c.217-.173.315-.518.315-.764 0-.333-.15-.563-.314-.761-.228-.277-.535-.488-.831-.691a11.5 11.5 0 01-.275-.192 35.94 35.94 0 00-.744-.521 37.112 37.112 0 00-1.636-1.081c-.586-.362-1.175-.72-1.764-1.079l-.278-.169c-.43-.263-.873-.535-1.319-.781-.3-.166-.602-.33-.903-.495l-.903-.496a7.57 7.57 0 00-.554-.267l-.285-.132-.475-.226-.47-.223a15.962 15.962 0 00-1.01-.426l-.236-.094c-.39-.155-.799-.301-1.25-.447a34.004 34.004 0 00-1.644-.476l-.533-.145c-.452-.122-.902-.244-1.355-.36-1.887-.49-4.084-1.042-6.283-1.388a96.496 96.496 0 00-2.03-.294 123.15 123.15 0 01-1.013-.142 22.19 22.19 0 01-1.624-.275c.257-.152.491-.34.666-.486.755-.622 1.418-1.329 1.967-1.938a14.93 14.93 0 001.907-2.667 9.478 9.478 0 00.725-1.598c.084-.245.14-.536.153-.798.019-.393-.033-.698-.16-.933a1.187 1.187 0 00-.208-.307.915.915 0 00-.4-.232 1.38 1.38 0 00-.519-.105"/><path d="M270.337 152.935a15.27 15.27 0 00-2.468.234c-.382.07-.748.199-1.116.321-.415.14-.817.33-1.21.525-.303.15-.598.33-.892.499a14.76 14.76 0 00-.555.331c-.199.124-.378.284-.56.432a12.441 12.441 0 00-1.709 1.71c-.13.156-.216.31-.216.521 0 .037.003.075.008.112.294-.164.59-.323.892-.471.311-.153.621-.309.937-.453.343-.158.69-.333 1.052-.444.26-.079.528-.153.798-.213.339-.166.68-.33 1.025-.485.692-.276 1.393-.506 2.128-.636.448-.05.896-.087 1.345-.114.427-.023.844 0 1.265.048.323.05.638.12.95.224.284.095.565.195.845.299.35.153.696.311 1.04.476.583.28 1.173.546 1.701.921a21.936 21.936 0 011.046.547c.352.172.709.33 1.05.523.2.082.399.168.592.262.273.132.515.298.769.464.152.1.305.198.454.303.181.127.382.256.543.407a12.434 12.434 0 00-.338-.687 9.947 9.947 0 00-1.05-1.537c-.2-.246-.421-.475-.636-.708-.537-.582-1.13-1.14-1.806-1.555-.27-.166-.567-.294-.851-.432-.218-.104-.438-.202-.658-.303-.437-.2-.885-.405-1.34-.56-.482-.166-.965-.327-1.463-.428-.299-.06-.613-.073-.916-.103a5.774 5.774 0 00-.565-.03h-.09"/><path d="M276.605 157.22l-.001-.004.025.034-.024-.03zm-.017-.022l.002.001.008.01v.001l-.01-.012zm-1.785-1.694zm-4.545-3.142c-.281.053-.43.267-.601.472-.08.094-.157.188-.236.28-.15.178-.297.362-.45.54a3.287 3.287 0 00-.03-.297 1.05 1.05 0 00-.117-.392c-.067-.116-.18-.191-.286-.269-.147-.112-.426-.07-.543.07a2.376 2.376 0 00-.214.288c-.043.071-.078.148-.116.22-.05.095-.102.188-.153.283-.035.07-.072.138-.107.206a1.285 1.285 0 00-.028-.251.845.845 0 00-.16-.345c-.077-.1-.15-.178-.278-.213a.47.47 0 00-.358.046.683.683 0 00-.132.086.458.458 0 00-.167.167c-.057.074-.096.151-.142.232l-.187.327-.153.27a1.464 1.464 0 00-.126-.37.84.84 0 00-.257-.302.452.452 0 00-.17-.084c-.118-.033-.226-.01-.342.014-.134.026-.264.14-.348.24-.09.108-.143.223-.205.347-.077.155-.142.32-.21.48-.038.09-.077.177-.116.267-.028-.12-.06-.238-.091-.357-.033-.126-.044-.27-.115-.382a.704.704 0 00-.234-.254.605.605 0 00-.311-.077.561.561 0 00-.483.277c-.096.168-.119.361-.155.55a53.043 53.043 0 00-.137.772.539.539 0 00-.375-.15c-.25 0-.43.154-.526.366a.457.457 0 00-.288.334c-.095.563-.066 1.122-.027 1.687.008.118.017.235.029.352.394-.225.791-.444 1.198-.643.29-.144.58-.288.874-.424l.02-.242c.008-.056.018-.112.025-.17.036.037.076.07.122.098.09.055.18.096.287.103.172-.08.347-.155.525-.218.16-.146.245-.341.328-.54a40.4 40.4 0 00.225-.515l-.003.007a.115.115 0 01.008-.017l.044-.108-.006.015c.013-.031.026-.06.038-.092.043.133.1.272.197.369.232.232.616.164.84-.04.2-.18.346-.412.48-.649a.93.93 0 00.152.39c.112.16.283.288.489.262a.58.58 0 00.347-.147c.097-.094.168-.2.24-.314.097-.156.187-.318.274-.48l-.003.06a.6.6 0 00.17.451c.089.09.248.177.376.163a4.11 4.11 0 00.219-.03c.098-.026.197-.084.283-.137a2.02 2.02 0 00.311-.266 7.91 7.91 0 00.35-.359l.05-.054-.019.184.006-.043c-.018.174-.013.34.098.495a.768.768 0 00.255.24.615.615 0 00.467.06.896.896 0 00.296-.133c.096-.065.186-.144.277-.216a1.2 1.2 0 00.086-.074.736.736 0 00.595.328c.118 0 .3-.04.403-.106.1.132.235.234.404.28.236.066.454.015.668-.072l.028.03c.206.207.453.267.714.279.04.102.102.197.18.264.068.062.141.12.217.174.085.042.173.076.264.104l.159.024.176.024c.05.145.165.277.26.384.073.06.147.119.223.175.074.05.15.097.226.143.158.093.334.161.501.238.1.045.205.084.302.136.013.022.024.044.036.067a.543.543 0 00-.002.044l.025.014.025.011c.335.163.674.315 1 .495a.785.785 0 00.224-.337c.114-.278.098-.582.03-.872a1.17 1.17 0 00-.26-.477 1.39 1.39 0 00-.406-.317c-.22-.12-.448-.224-.665-.346l-.024-.16c-.03-.206-.213-.366-.37-.48a1.158 1.158 0 00-.299-.138.847.847 0 00-.416-.617c-.198-.115-.407-.127-.621-.11.002-.04.004-.078.003-.118a.768.768 0 00-.375-.654.746.746 0 00-.382-.103.749.749 0 00-.382.103 1.229 1.229 0 00-.252.178.829.829 0 00-.883-.334.544.544 0 00-.14-.202.809.809 0 00-.348-.2.722.722 0 00-.685.196c-.12.124-.236.251-.352.377a1.663 1.663 0 00-.078-.442.59.59 0 00-.263-.342.54.54 0 00-.278-.073.904.904 0 00-.163.016zm-8.934 10.15l.009.073-.01-.073m8.191-3.389a14.28 14.28 0 00-2.204.194c-.785.136-1.545.455-2.25.816-.684.35-1.305.784-1.911 1.254-.128.1-.25.204-.368.314a43.39 43.39 0 00-.255-1.262c-.071-.329-.383-.547-.705-.573l-.401.228a1.032 1.032 0 01-.3.114.865.865 0 00-.11.65c.13.611.245 1.226.339 1.845l.049.388.028.239c.021.196.036.326.125.503.077.153.179.229.311.33.224.171.63.167.863.012.148-.1.208-.162.312-.305l.081-.12c.073-.115.143-.228.219-.339.194-.23.393-.454.608-.665.2-.196.415-.372.635-.545.266-.192.535-.38.821-.543.305-.175.615-.339.933-.489.25-.097.502-.182.759-.261a5.45 5.45 0 01.78-.167 12.536 12.536 0 012.589.008c.377.067.75.148 1.115.266.363.118.716.253 1.068.397.489.225.971.468 1.44.735a1 1 0 01.547-.16c.264 0 .53.1.737.293.357.335.744.649 1.076 1.01.23.252.405.536.605.81l-.002-.003c.128.172.245.345.336.544.12.264.211.486.217.784.001.032 0 .063-.001.095a.774.774 0 00.372-.105.78.78 0 00.277-1.058 13.187 13.187 0 01-.341-.596c-.097-.182-.172-.377-.27-.56a5.878 5.878 0 00-.31-.507c-.18-.265-.38-.537-.627-.745-.36-.304-.74-.576-1.134-.832a13.67 13.67 0 00-3.503-1.651 8.327 8.327 0 00-2.55-.343m-16.098 12.406c.084-.076.167-.152.249-.23a.846.846 0 00.162-.21.437.437 0 00.089-.259.445.445 0 00-.11-.287l-.017-.019c-.122.335-.246.67-.373 1.005"/><path d="M253.326 171.864a2.43 2.43 0 00.42-.563c.054-.093.032-.191-.039-.276-.125.28-.252.56-.381.839m1.35-10.067l.023.074c.116.648.238 1.298.208 1.958-.02.432-.061.86-.113 1.288l.021.186c.052.452.117.904.147 1.358.03.48.056.959.053 1.44a65.246 65.246 0 01-.09 3.128c-.05.947-.128 1.893-.18 2.84a80.821 80.821 0 01-.174 2.407 55.02 55.02 0 01-.23 2.07 33.094 33.094 0 01-.531 2.771c-.233.953-.401 1.918-.64 2.87-.12.477-.251.952-.381 1.428-.102.37-.218.74-.3 1.115-.073.33-.182.697-.095 1.03.04.155.158.384.283.494.12.104.25.2.38.294.188.135.412.247.625.338.317.134.64.294.979.363.743.15 1.495.098 2.237-.025a4.067 4.067 0 001.026-.342c.11-.052.223-.098.33-.155.275-.15.546-.304.814-.466a.92.92 0 00.417-1.026.916.916 0 00-.417-.543c-.194-.113-.483-.174-.7-.09-.707.268-1.412.555-2.16.684a5.56 5.56 0 01-1.102.014 4.09 4.09 0 01-.588-.174c.162-.386.31-.772.444-1.17a23.478 23.478 0 00.712-2.761c.106-.521.222-1.04.347-1.558a25.28 25.28 0 00.518-2.998c.112-.974.199-1.947.242-2.929.045-1.006.064-2.013.093-3.021a54.894 54.894 0 00-.039-4.589 16.97 16.97 0 00-.143-1.439 21.803 21.803 0 00-.285-1.56c-.102-.496-.18-.998-.26-1.5-.034-.21-.062-.421-.09-.633-.02-.241-.038-.481-.048-.723-.016-.403-.326-.742-.742-.742a.764.764 0 00-.59.294m6.421 42.823l.113-.014c.248-.033.498-.066.747-.089l.043-.004c.159-.015.319-.03.48-.036-.234.232-.493.45-.743.66a4.204 4.204 0 01-.647.342l-.113.051a20.88 20.88 0 01-.565.256c-.155.06-.31.124-.464.187-.717.294-1.46.597-2.233.717-.181.02-.36.038-.544.05-.16.013-.322.025-.484.025a2.52 2.52 0 01-.22-.009 6.095 6.095 0 01-1.06-.308 3.915 3.915 0 01-.696-.406 3.617 3.617 0 01-.225-.197.702.702 0 00.07-.15c.063-.193.127-.385.199-.575.074-.025.15-.05.229-.065.395-.04.803-.04 1.162-.04h.067l.081.001h.734c.334 0 .668-.001 1.001-.012.562-.016 1.1-.09 1.745-.186l.458-.07c.288-.043.577-.087.865-.128zm-3.737-10.008c-.165 0-.325-.007-.474-.021a2.56 2.56 0 01-.403-.108 1.677 1.677 0 01-.163-.091l-.027-.027a6.771 6.771 0 01-.253-.954c.28-.076.563-.155.846-.234l.435-.122c.326-.093.663-.189.997-.269l.538-.13c.358-.087.716-.174 1.075-.258.104-.023.208-.048.312-.073l.234-.055c.064.087.132.174.2.26l.142.178.168.21.234.3a4.02 4.02 0 01-.134.601.811.811 0 01-.04.038 1.358 1.358 0 01-.18.101c-.16.059-.33.1-.495.14l-.133.033c-.136.034-.272.068-.408.1l-.283.07c-.26.066-.515.128-.771.17a28.65 28.65 0 01-.595.091c-.3.034-.568.05-.822.05zm3.776-4.555h-.021c-.126.008-.23.023-.333.037l-.072.01c-.13.018-.259.039-.388.063-.238.042-.474.096-.71.15l-.134.032c-.395.09-.788.184-1.18.28l-.494.119c-.356.085-.715.187-1.062.285l-.342.097c-.76.21-1.52.427-2.257.647a1.07 1.07 0 00-.733 1.293c.078.284.28.526.553.662a3.4 3.4 0 00.123.475c.066.19.142.378.218.565l.059.145c.167.418.338.865.43 1.332.004.182.006.398-.014.613-.047.27-.108.509-.187.732-.138.309-.293.615-.475.937-.183.329-.417.635-.644.932l-.07.09c-.302.395-.614.803-.854 1.25-.106.197-.207.42-.31.682a3.396 3.396 0 00-.215.718c-.098.61-.065 1.112.1 1.537.136.35.27.701.401 1.053.121.321.226.587.386.843.104.167.2.317.317.457.167.198.37.385.656.605.362.279.754.5 1.198.677.2.08.412.139.617.195l.06.017c.356.099.656.147.942.15h.06c.146 0 .293-.009.44-.018l.092-.005a8.41 8.41 0 001.183-.132 9.949 9.949 0 001.089-.309c.837-.274 1.52-.52 2.151-.774l.115-.046c.24-.095.486-.193.712-.33.13-.08.256-.168.382-.256l.104-.073c.251-.175.485-.369.693-.575a.697.697 0 00.343-.293.589.589 0 00.068-.168c.096-.12.181-.24.261-.366a5.63 5.63 0 00.318-.547c.122-.241.212-.502.3-.755l.013-.037c.112-.32.208-.667.31-1.124.098-.448.12-.917.142-1.371.02-.45.023-.815.009-1.143a14.299 14.299 0 00-.37-2.638 10.12 10.12 0 00-.312-1.005l-.045-.127a16.45 16.45 0 00-.432-1.073l-.078-.18a9.345 9.345 0 00-.5-1.034c-.096-.161-.19-.322-.288-.483-.12-.195-.27-.382-.414-.562l-.038-.048c-.284-.356-.57-.689-.849-.991a.99.99 0 00-.014-.47c-.081-.293-.348-.629-.702-.701l-.046-.01a1.291 1.291 0 00-.262-.036zm-15.127-35.818c-.73.066-1.432.258-2.135.446-.347.092-.689.201-1.032.304-.178.054-.352.121-.528.18-.153.053-.309.103-.46.162-.383.145-.765.292-1.145.442a5.963 5.963 0 00-.942.48c-.132.08-.258.165-.388.248-.224.144-.445.293-.66.448-.236.17-.472.342-.707.515-.318.234-.668.46-.932.755-.416.462-.78.96-1.141 1.465-.166.233-.335.465-.499.7-.08.115-.163.229-.236.349l-.035.06.381-.229c.082-.06.165-.118.247-.176.363-.252.725-.513 1.105-.739.004-.354.173-.71.502-.87.173-.086.345-.169.52-.252.987-.468 1.999-.894 3.054-1.184a5.41 5.41 0 01.235-.115c.335-.132.672-.264 1.008-.393.339-.13.683-.24 1.025-.358.326-.113.661-.21.993-.303.622-.175 1.24-.36 1.88-.461a13.59 13.59 0 011.627-.062c.403.004.799.042 1.197.09.484.074.96.166 1.416.344.318.146.62.318.906.52.156.129.303.268.443.414a8.387 8.387 0 011.515.413l.013-.04c.038-.14.03-.334-.06-.455a8.544 8.544 0 00-.955-1.1c-.368-.355-.815-.641-1.27-.874-.697-.36-1.475-.49-2.24-.624a9.998 9.998 0 00-1.229-.113c-.237-.011-.478-.02-.718-.02-.252 0-.505.01-.756.033m30.606 13.541c-.006.013-.01.026-.017.038a.522.522 0 01.017-.037m1.364-3.468c-.165.096-.239.23-.309.401l-.13.32c.036.122.059.248.062.392.003.176-.03.352-.058.526-.02.215-.032.438-.103.64-.102.294-.239.52-.454.75a1.383 1.383 0 01-.33.255 5.059 5.059 0 01-.083.266 4.462 4.462 0 01-.704.153c-.67.083-1.34.16-2.01.231-.794.084-1.59.109-2.387.135-.696.024-1.395.033-2.093.035-.74 0-1.484-.014-2.22-.096a55.929 55.929 0 01-.59-.07c-.202-.024-.404-.016-.605-.036-.287-.026-.56.22-.632.482-.08.29.051.582.302.739.232.146.503.185.77.214.187.019.373.034.56.051.335.03.669.043 1.004.052.778.021 1.556.009 2.333-.004.752-.013 1.503-.038 2.255-.06.713-.024 1.42-.111 2.13-.185a55.74 55.74 0 001.295-.15c.243-.03.483-.07.72-.127.23-.053.472-.135.664-.27.389-.274.5-.75.627-1.18.27-.922.608-1.818.972-2.706.064-.158.015-.377-.068-.517a.672.672 0 00-.918-.241"/><path d="M271.138 164.952c.005.01.01.02.013.03l-.013-.03m-.912-.09l-.027.012.027-.012m.679-.013c.049.01.097.023.145.038l.066.037c.021.067.038.134.051.202.017.255.012.506-.012.76a3.52 3.52 0 01-.24.4 3 3 0 01-.31.304 1.394 1.394 0 01-.085.051l-.006.002a2.18 2.18 0 01-.145.001 2.075 2.075 0 01-.148-.038 1.766 1.766 0 01-.108-.063 2.098 2.098 0 01-.102-.108 2.29 2.29 0 01-.103-.18 2.27 2.27 0 01-.07-.262c-.004-.138 0-.273.012-.41.025-.146.058-.287.103-.427.036-.07.075-.138.119-.203a.856.856 0 01.028-.029.426.426 0 01.015-.009 2.6 2.6 0 01.229-.064c.187-.014.373-.013.56-.002m.14-.045l.035.046-.035-.046m-1.233-3.796a9.9 9.9 0 00-.49.071c-.163.028-.305.09-.458.156-.322.137-.598.37-.842.617-.415.42-.69.961-.933 1.49-.27.59-.465 1.214-.64 1.837-.08.292-.119.596-.138.898-.018.295.02.581.062.872.018.123.062.236.108.35l.007.049c.054.37.184.71.354 1.043.128.254.327.485.53.683a3.008 3.008 0 001.606.798 4.69 4.69 0 001.11.071c.602-.035 1.23-.187 1.723-.546.16-.115.307-.241.443-.379a8.66 8.66 0 00.605-.273c.468-.233.81-.642 1.004-1.121.09-.222.133-.448.166-.685.047-.34.083-.682.1-1.025a4.856 4.856 0 00-.031-.775c-.033-.298-.074-.588-.177-.871a3.088 3.088 0 00-.644-1.045c-.076-.28-.2-.554-.336-.808a2.758 2.758 0 00-.542-.644 3.173 3.173 0 00-.92-.543 3.279 3.279 0 00-1.25-.244c-.139 0-.277.008-.417.024"/><path d="M277.512 164.635a.89.89 0 00-.113.04c.113.25.197.465.203.75.003.177-.028.353-.058.527-.02.216-.032.438-.103.64a2.01 2.01 0 01-.454.75c-.372.394-.964.525-1.49.477-.28-.025-.52-.095-.724-.3a1.03 1.03 0 01-.27-.478l-.15.026c-.34.056-.676.122-1.014.176-1.131.12-2.284.017-3.419-.014a68.06 68.06 0 00-2.071-.027 77.92 77.92 0 01-1.047-.005c-.456-.005-.916.001-1.372-.017a1.169 1.169 0 00-1.416-.205c-.27.15-.415.355-.598.595-.176.232-.19.62-.116.886a1.149 1.149 0 00.804.804c.138.059.273.116.414.162.226.073.48.076.714.107.285.037.578.042.865.06l1.078.066c.545.034 1.09.066 1.633.104 1.072.076 2.145.142 3.219.083a10.783 10.783 0 003.032-.622c.52-.187 1.018-.414 1.456-.751.142-.109.272-.21.393-.34.116-.122.214-.26.316-.392.136-.176.246-.373.373-.555.159-.197.325-.388.496-.574.317-.345.724-.84.525-1.345-.089-.228-.194-.41-.413-.537a.898.898 0 00-.693-.09"/><path d="M269.18 162.987l-.05.022a2.55 2.55 0 01.05-.022m.122-1.56a3.43 3.43 0 00-.843.24 4.5 4.5 0 00-.743.379 3.6 3.6 0 00-.772.717c-.224.269-.42.564-.623.849-.259.362-.416.776-.538 1.202a3.134 3.134 0 00-.097.74c-.004.148.038.305.067.45.026.127.07.252.11.377.084.258.204.516.338.752.175.31.465.554.76.745.133.087.312.156.46.21.129.048.254.084.39.114.129.031.261.054.393.08.263.05.526.097.79.141.24.04.454.04.671-.088a.884.884 0 00.4-.52c.12-.436-.144-.972-.608-1.07a40.436 40.436 0 01-.653-.144c-.263-.06-.525-.114-.779-.203a2.958 2.958 0 01-.203-.11 1.94 1.94 0 01-.117-.118 3.56 3.56 0 01-.192-.354 3.152 3.152 0 01-.113-.355c0-.08.002-.156.008-.236a3.63 3.63 0 01.136-.512 5.08 5.08 0 01.27-.475c.114-.182.229-.362.354-.535.106-.124.216-.242.337-.352.172-.119.352-.217.542-.305.178-.065.353-.116.538-.15.183-.017.365-.027.548-.024.41.004.75-.347.75-.752a.759.759 0 00-.805-.752c-.26 0-.518.023-.776.06m-8.164 43.889l-.098.074.098-.074m2.385-8.695l.052.124-.052-.124m-9.493-3.29l-.024.019a.64.64 0 01.024-.018m.164-1.296c-.07 0-.14.002-.21.009-.188.02-.322.047-.496.121-.255.109-.464.3-.602.541a.95.95 0 00-.125.58.75.75 0 00.074.32c.04.108.09.218.142.32.121.245-.583 6.221-.712 6.498-.163.344-.341.69-.447 1.058a7.113 7.113 0 00-.22 1.249c-.039.38-.057.773-.053 1.156.005.421.025.852.126 1.263.049.204.145.402.226.592.063.147.138.29.209.433.216.432.585.755.992 1.001.13.08.261.156.387.242.055.037.109.076.161.117.158.12.347.193.538.242.37.094.744.179 1.118.254.41.084.827.126 1.242.17.187.02.373.038.561.053.186.016.374.006.56-.001.176-.006.35-.029.524-.052.224-.028.458-.05.678-.103.755-.18 1.542-.37 2.216-.767.641-.379 1.264-.79 1.795-1.313.264-.26.526-.523.762-.807.26-.316.485-.663.698-1.01.216-.356.353-.754.503-1.142.117-.304.243-.605.355-.911.226-.616.359-1.253.473-1.897a7.421 7.421 0 00.097-1.799 10.69 10.69 0 00-.083-.776 3.706 3.706 0 00-.275-.917c-.133-.322-.292-.63-.45-.943-.204-.4-.759-.512-1.13-.295a.829.829 0 00-.378.493l-.03.218c0 .15.038.289.113.417l.06.14c.19.454.364.915.448 1.402a7.527 7.527 0 010 1.621c-.055.372-.104.746-.193 1.112-.083.344-.2.67-.332.998-.149.348-.295.696-.435 1.047-.181.382-.42.736-.675 1.075-.426.509-.91.986-1.432 1.396-.353.268-.718.531-1.119.72-.276.106-.56.193-.845.275a6.75 6.75 0 01-.912.203 6.137 6.137 0 01-1.114.032 26.213 26.213 0 01-1.114-.1 6.73 6.73 0 01-1.247-.313l-.007-.004c-.127-.109-.25-.222-.386-.32-.132-.095-.269-.183-.402-.276a1.943 1.943 0 01-.182-.178 5.046 5.046 0 01-.428-.754 4.003 4.003 0 01-.182-.793 8.717 8.717 0 01-.03-1.904c.045-.264.11-.516.208-.766.142-.32.294-.63.503-.91.129-.162.262-.316.409-.462a5.92 5.92 0 00.643-.808c.208-.3.357-.635.497-.97a4.91 4.91 0 00.279-.918c.07-.352.133-.742.091-1.104-.046-.409-.11-.801-.267-1.183a5.7 5.7 0 00-.511-.987c-.153-.23-.334-.435-.512-.642.091-.002.183-.002.275-.003a.627.627 0 00.62-.62.627.627 0 00-.62-.621l-.244-.001c-.06 0-.122 0-.183.002"/><path d="M261.693 191.292l.044.005-.044-.005m-.796-.59c0 .327.26.545.568.568l.15.013c.147.028.29.064.43.113.093.05.18.108.265.169.205.17.394.356.565.561.208.295.358.62.538.935.197.347.413.677.585 1.038.175.432.336.871.489 1.312.09.262.153.532.216.802.054.233.101.466.138.702.044.433.075.868.093 1.303.02.449.025.898-.02 1.346a8.564 8.564 0 01-.292 1.217c-.145.45-.309.891-.487 1.327-.164.37-.35.725-.547 1.08-.109.197-.23.388-.343.584a5.72 5.72 0 01-.297.47c-.236.286-.478.568-.715.854-.235.283-.515.513-.798.745-.23.156-.466.304-.709.442a.595.595 0 000 1.026c.124.071.32.117.46.06a9.97 9.97 0 001.155-.55c.35-.204.665-.45.976-.707a7.74 7.74 0 00.73-.674c.275-.298.517-.629.745-.964.435-.636.796-1.308 1.09-2.02.282-.692.571-1.398.71-2.134.076-.41.13-.828.126-1.245a12.544 12.544 0 00-.056-1.155c-.04-.418-.1-.834-.163-1.25-.053-.35-.156-.681-.258-1.018-.215-.71-.589-1.353-.918-2.013-.154-.31-.342-.594-.53-.882a15.555 15.555 0 01-.504-.827 3.73 3.73 0 00-1.754-1.582c-.339-.134-.71-.189-1.07-.214a.4.4 0 00-.032-.001c-.295 0-.536.286-.536.568m-16.873-37.308c-.338.08-.664.217-.982.353-.181.077-.362.153-.541.233-.253.11-.506.22-.756.334-.223.1-.437.213-.652.328-.12.064-.235.144-.351.215-.112.068-.22.145-.33.218-.225.151-.438.322-.652.487-.372.29-.727.604-1.094.902-.184.15-.37.3-.55.454a4.974 4.974 0 00-.948 1.056c-.116.178-.22.366-.32.553-.114.21-.235.414-.37.61-.142.207-.3.406-.452.606-.023.027-.046.053-.068.081-.116.138-.141.328-.026.471.318-.222.637-.446.97-.645.004-.354.173-.711.503-.871.156-.077.313-.153.47-.228a6.17 6.17 0 01.178-.276c.146-.18.304-.347.471-.51.19-.185.397-.35.602-.52.422-.349.844-.704 1.279-1.039l-.033.025c.07-.056.141-.11.21-.164a17.24 17.24 0 01.351-.25c.004.03.01.057.018.08.006.016.012.031.016.047a.552.552 0 00.142.244c.275.335.732.264 1.105.183a3.29 3.29 0 00.628-.225c.11-.05.223-.096.328-.155.212-.114.422-.23.62-.366.146-.1.287-.207.42-.324a.445.445 0 00.04-.042c.248.013.496.036.744.064.155.017.334-.077.44-.183a.628.628 0 00.173-.546c.1-.056.193-.123.272-.212a.485.485 0 00.111-.195c.015-.072.04-.156.01-.228-.028-.073-.05-.157-.111-.212a.963.963 0 00-.196-.136 2.375 2.375 0 00-.866-.262 8.534 8.534 0 00-.322-.025 2.18 2.18 0 00-.48.07m-6.711 7.027z"/><path d="M245.717 153.558c-.087.313.102.611.401.708.739.24 1.492.437 2.25.604.382.084.77.15 1.157.195.415.048.88.088 1.274-.071a2.43 2.43 0 01.402-.136h.067l.008.002c.047.074.09.15.142.223.062.09.142.196.24.248l.047.025c0 .057 0 .114.004.172.01.19.043.382.074.57.015.086.033.172.054.257.025.1.048.195.11.279.095.127.211.218.378.217a.665.665 0 00.295-.078.566.566 0 00.193-.199 8.11 8.11 0 00.135-.283c.055-.12.103-.243.152-.365l.196-.484.508-1.273c.04-.098.009-.232-.041-.32a.417.417 0 00-.567-.149.451.451 0 00-.192.248l-.242.607a.692.692 0 00-.013-.092c-.033-.167-.19-.305-.348-.349a.55.55 0 00-.293.005 1.29 1.29 0 00-.28-.248.606.606 0 00-.1-.05c-.085-.035-.152-.065-.239-.085a1.207 1.207 0 00-.405-.02c-.159.02-.3.05-.45.104-.105.04-.204.084-.311.111a4.531 4.531 0 01-.727-.038 14.421 14.421 0 01-1.435-.289c-.58-.144-1.162-.284-1.736-.448a.55.55 0 00-.151-.022.584.584 0 00-.557.424m20.113-.568c-.458.074-.914.154-1.37.244-.388.078-.78.147-1.147.298-.423.173-.863.332-1.238.596-.254.18-.458.406-.636.658-.11.154-.146.367-.142.551.006.23.133.424.305.567a.88.88 0 00.523.219.762.762 0 00.463-.13c.299-.203.403-.54.503-.869a.55.55 0 00.024-.167c.202-.103.411-.192.617-.283.433-.17.892-.253 1.344-.354a96.068 96.068 0 011.487-.308c.306-.059.61-.129.916-.188.21-.041.356-.264.356-.468 0-.275-.221-.469-.484-.484a4.234 4.234 0 00-.259-.007c-.423 0-.845.058-1.262.125m10.87 14.3l.003.03-.004-.025.001-.006m.868-1.834l.01.005-.009-.003-.001-.002m.756-.586l.002.004.003.023-.005-.027m-4.726-3.804a.522.522 0 00-.365.642c.032.12.123.261.24.314.672.3 1.32.646 1.916 1.08a10.022 10.022 0 011.508 1.58c.132.183.243.386.392.551-.039.142-.084.283-.12.425-.05.204-.118.405-.183.603a10.018 10.018 0 01-.196.55 10.77 10.77 0 01-.5.099c-.284.051-.568.109-.854.158-.29.05-.573.114-.859.184a9.429 9.429 0 01-.862.159c-.268.04-.532.1-.798.14-.312.048-.623.092-.933.137-.597.083-1.191.176-1.78.302-.157.033-.266.194-.266.348 0 .196.164.363.362.362.412-.003.826-.026 1.24-.036a20.7 20.7 0 001.25-.076c.377-.033.75-.03 1.128-.041a10.72 10.72 0 001.205-.126c.222-.025.443-.047.664-.079.197-.028.392-.065.588-.1.19-.031.38-.064.57-.1.141-.028.282-.059.424-.083l.04-.002c.022 0 .043.004.065.001a.868.868 0 00.41-.115c.203-.104.365-.353.4-.58.042-.28.04-.56.065-.84.024-.267.069-.532.09-.798.01-.118.018-.235.004-.353a8.318 8.318 0 00-.05-.373.575.575 0 00-.1-.238 1.43 1.43 0 00-.134-.275c-.067-.11-.122-.23-.19-.34-.061-.102-.137-.195-.209-.29a5.609 5.609 0 00-.328-.398c-.179-.193-.356-.39-.548-.57-.09-.084-.192-.158-.288-.236-.105-.086-.213-.17-.32-.253a6.57 6.57 0 00-.723-.487 15.254 15.254 0 00-1.551-.794.663.663 0 00-.274-.07.477.477 0 00-.13.018m-37.274 2.447l.009.073-.01-.073m8.191-3.389a14.28 14.28 0 00-2.204.194c-.785.136-1.545.455-2.25.816-.684.35-1.305.784-1.911 1.254-.128.1-.25.204-.368.314a43.39 43.39 0 00-.255-1.262c-.071-.329-.383-.547-.705-.573l-.401.228a1.032 1.032 0 01-.3.114.865.865 0 00-.11.65c.13.611.245 1.226.339 1.845l.049.388.028.239c.021.196.036.326.125.503.077.153.179.229.311.33.224.171.63.167.863.012.148-.1.208-.162.312-.305l.081-.12c.073-.115.143-.228.219-.339.194-.23.393-.454.608-.665.2-.196.415-.372.635-.545.266-.192.535-.38.821-.543.305-.175.615-.339.933-.489.25-.097.502-.182.759-.261a5.45 5.45 0 01.78-.167 12.536 12.536 0 012.589.008c.377.067.75.148 1.115.266.363.118.716.253 1.068.397.489.225.971.468 1.44.735a1 1 0 01.547-.16c.264 0 .53.1.737.293.357.335.744.649 1.076 1.01.23.252.405.536.605.81l-.002-.003c.128.172.245.345.336.544.12.264.211.486.217.784.001.032 0 .063-.001.095a.774.774 0 00.372-.105.78.78 0 00.277-1.058 13.187 13.187 0 01-.341-.596c-.097-.182-.172-.377-.27-.56a5.878 5.878 0 00-.31-.507c-.18-.265-.38-.537-.627-.745-.36-.304-.74-.576-1.134-.832a13.67 13.67 0 00-3.503-1.651 8.327 8.327 0 00-2.55-.343"/><path d="M251.615 168.78c-.006.013-.01.026-.017.038a.522.522 0 01.017-.037m1.364-3.468c-.165.096-.239.23-.309.401l-.13.32c.036.122.059.248.062.392.003.176-.03.352-.058.526-.02.215-.032.438-.103.64-.102.294-.239.52-.454.75a1.383 1.383 0 01-.33.255 5.059 5.059 0 01-.083.266 4.462 4.462 0 01-.704.153c-.67.083-1.34.16-2.01.231-.794.084-1.59.109-2.387.135-.696.024-1.395.033-2.093.035-.74 0-1.484-.014-2.22-.096a55.929 55.929 0 01-.59-.07c-.202-.024-.404-.016-.605-.036-.287-.026-.56.22-.632.482-.08.29.051.582.302.739.232.146.503.185.77.214.187.019.373.034.56.051.335.03.669.043 1.004.052.778.021 1.556.009 2.333-.004.752-.013 1.503-.038 2.255-.06.713-.024 1.42-.111 2.13-.185a55.74 55.74 0 001.295-.15c.243-.03.483-.07.72-.127.23-.053.472-.135.664-.27.389-.274.5-.75.627-1.18.27-.922.608-1.818.972-2.706.064-.158.015-.377-.068-.517a.672.672 0 00-.918-.241"/><path d="M246.138 165.952c.005.01.01.02.013.03l-.013-.03m-.912-.09l-.027.012.027-.012m.679-.013c.049.01.097.023.145.038l.066.037c.021.067.038.134.051.202.017.255.012.506-.012.76a3.52 3.52 0 01-.24.4 3 3 0 01-.31.304 1.394 1.394 0 01-.085.051l-.006.002a2.18 2.18 0 01-.145.001 2.075 2.075 0 01-.148-.038 1.766 1.766 0 01-.108-.063 2.098 2.098 0 01-.102-.108 2.29 2.29 0 01-.103-.18 2.27 2.27 0 01-.07-.262c-.004-.138 0-.273.012-.41.025-.146.058-.287.103-.427.036-.07.075-.138.119-.203a.856.856 0 01.028-.029.426.426 0 01.015-.009 2.6 2.6 0 01.229-.064c.187-.014.373-.013.56-.002m.14-.045l.035.046-.035-.046m-1.233-3.796a9.9 9.9 0 00-.49.071c-.163.028-.305.09-.458.156-.322.137-.598.37-.842.617-.415.42-.69.961-.933 1.49-.27.59-.465 1.214-.64 1.837-.08.292-.119.596-.138.898-.018.295.02.581.062.872.018.123.062.236.108.35l.007.049c.054.37.184.71.354 1.043.128.254.327.485.53.683a3.008 3.008 0 001.606.798 4.69 4.69 0 001.11.071c.602-.035 1.23-.187 1.723-.546.16-.115.307-.241.443-.379a8.66 8.66 0 00.605-.273c.468-.233.81-.642 1.004-1.121.09-.222.133-.448.166-.685.047-.34.083-.682.1-1.025a4.856 4.856 0 00-.031-.775c-.033-.298-.074-.588-.177-.871a3.088 3.088 0 00-.644-1.045c-.076-.28-.2-.554-.336-.808a2.758 2.758 0 00-.542-.644 3.173 3.173 0 00-.92-.543 3.279 3.279 0 00-1.25-.244c-.139 0-.277.008-.417.024"/><path d="M252.512 165.635a.89.89 0 00-.113.04c.113.25.197.465.203.75.003.177-.028.353-.058.527-.02.216-.032.438-.103.64a2.01 2.01 0 01-.454.75c-.372.394-.964.525-1.49.477-.28-.025-.52-.095-.724-.3a1.03 1.03 0 01-.27-.478l-.15.026c-.34.056-.676.122-1.014.176-1.131.12-2.284.017-3.419-.014a68.06 68.06 0 00-2.071-.027 77.92 77.92 0 01-1.047-.005c-.456-.005-.916.001-1.372-.017a1.169 1.169 0 00-1.416-.205c-.27.15-.415.355-.598.595-.176.232-.19.62-.116.886a1.149 1.149 0 00.804.804c.138.059.273.116.414.162.226.073.48.076.714.107.285.037.578.042.865.06l1.078.066c.545.034 1.09.066 1.633.104 1.072.076 2.145.142 3.219.083a10.783 10.783 0 003.032-.622c.52-.187 1.018-.414 1.456-.751.142-.109.272-.21.393-.34.116-.122.214-.26.316-.392.136-.176.246-.373.373-.555.159-.197.325-.388.496-.574.317-.345.724-.84.525-1.345-.089-.228-.194-.41-.413-.537a.898.898 0 00-.693-.09"/><path d="M244.18 163.987l-.05.022a2.55 2.55 0 01.05-.022m.122-1.56a3.43 3.43 0 00-.843.24 4.5 4.5 0 00-.743.379 3.6 3.6 0 00-.772.717c-.224.269-.42.564-.623.849-.259.362-.416.776-.538 1.202a3.134 3.134 0 00-.097.74c-.004.148.038.305.067.45.026.127.07.252.11.377.084.258.204.516.338.752.175.31.465.554.76.745.133.087.312.156.46.21.128.048.254.084.39.114.128.031.261.054.393.08.263.05.526.097.79.141.24.04.454.04.671-.088a.884.884 0 00.4-.52c.12-.436-.144-.972-.608-1.07a40.436 40.436 0 01-.653-.144c-.263-.06-.525-.114-.779-.203a2.958 2.958 0 01-.203-.11 1.94 1.94 0 01-.117-.118 3.56 3.56 0 01-.192-.354 3.152 3.152 0 01-.113-.355c0-.08.002-.156.008-.236a3.63 3.63 0 01.136-.512 5.08 5.08 0 01.27-.475c.114-.182.229-.362.354-.535.106-.124.216-.242.337-.352.172-.119.352-.217.542-.305.178-.065.353-.116.538-.15.183-.017.365-.027.548-.024.41.004.75-.347.75-.752a.759.759 0 00-.805-.752c-.26 0-.518.023-.776.06m7.398 5.862l.003.03-.004-.025.001-.006m.868-1.834l.01.005-.009-.003-.001-.002m.756-.586l.002.004.003.023-.005-.027m-4.726-3.804a.522.522 0 00-.365.642c.032.12.123.261.24.314.672.3 1.32.646 1.916 1.08a10.022 10.022 0 011.508 1.58c.132.183.243.386.392.551-.039.142-.084.283-.12.425-.05.204-.118.405-.183.603a10.018 10.018 0 01-.196.55 10.77 10.77 0 01-.5.099c-.284.051-.568.109-.854.158-.29.05-.573.114-.859.184a9.429 9.429 0 01-.862.159c-.268.04-.532.1-.798.14-.312.048-.623.092-.933.137-.597.083-1.191.176-1.78.302-.157.033-.266.194-.266.348 0 .196.164.363.362.362.412-.003.826-.026 1.24-.036a20.7 20.7 0 001.25-.076c.377-.033.75-.03 1.128-.041a10.72 10.72 0 001.205-.126c.222-.025.443-.047.664-.079.197-.028.392-.065.588-.1.19-.031.38-.064.57-.1.141-.028.282-.059.424-.083l.04-.002c.022 0 .043.004.065.001a.868.868 0 00.41-.115c.203-.104.365-.353.4-.58.042-.28.04-.56.065-.84.024-.267.069-.532.09-.798.01-.118.018-.235.004-.353a8.318 8.318 0 00-.05-.373.575.575 0 00-.1-.238 1.43 1.43 0 00-.134-.275c-.067-.11-.122-.23-.19-.34-.061-.102-.137-.195-.209-.29a5.609 5.609 0 00-.328-.398c-.179-.193-.356-.39-.548-.57-.09-.084-.192-.158-.288-.236-.105-.086-.213-.17-.32-.253a6.57 6.57 0 00-.723-.487 15.254 15.254 0 00-1.551-.794.663.663 0 00-.274-.07.477.477 0 00-.13.018m44.092-3.121c-.335.058-.656.132-.964.282a7.153 7.153 0 00-.688.395 17.23 17.23 0 00-1.686 1.195c-.653.532-1.16 1.183-1.597 1.898-.278.458-.597.98-.56 1.539l.042.31c.056.199.156.371.3.518.183.224.417.35.685.447.406.146.875.153 1.304.166.767.022 1.52-.084 2.276-.2.646-.101 1.292-.21 1.937-.31 1.55-.179 3.117-.306 4.676-.28.639.011 1.171-.54 1.171-1.17 0-.648-.533-1.161-1.171-1.172-1.224-.022-2.446.069-3.664.172-1.325.113-2.634.351-3.947.559-.224.023-.448.041-.672.05l.016-.021a7.11 7.11 0 011.015-.973c.283-.207.574-.4.871-.589.237-.15.473-.3.72-.432a4.82 4.82 0 01.557-.126c.286-.049.56-.297.7-.538a1.174 1.174 0 00-.42-1.603 1.092 1.092 0 00-.569-.15c-.108 0-.218.013-.333.033"/></g></g></svg>