<?xml version="1.0" encoding="UTF-8"?>
<svg width="500px" height="600px" viewBox="0 0 500 600" version="1.1" xmlns="http://www.w3.org/2000/svg" xmlns:xlink="http://www.w3.org/1999/xlink">
    <!-- Generator: Sketch 63.1 (92452) - https://sketch.com -->
    <title>tired</title>
    <desc>Created with Sketch.</desc>
    <g id="tired" stroke="none" stroke-width="1" fill="none" fill-rule="evenodd">
        <g id="Group-2" transform="translate(217.000000, 98.000000)">
            <g id="Group" transform="translate(0.000000, 5.200000)">
                <path d="M17.3733582,47.0320194 C27.9639139,36.9216624 38.4930332,31.866484 48.9607162,31.866484 C64.6622406,31.866484 81.1702355,45.9480206 81.1702355,58.7176065 C81.1702355,71.4871923 64.6622406,109.114179 64.6622406,109.114179 C64.6622406,109.114179 33.8075763,130.689478 17.3733582,109.114179 C13.1549068,103.576079 13.1549068,82.8820256 17.3733582,47.0320194 Z" id="Path-86" fill="#EEDDC5"></path>
                <path d="M60.9,39.1 C60.4,39.2 60,39.4 59.5,39.5 C59,39.7 58.4,39.8 57.9,39.9 C55.9,40.4 53.8,40.9 51.8,41.6 C51.6,41.6 51.4,41.7 51.3,41.9 C51,42.3 50.9,42.9 50.9,43.3 C50.9,43.7 51,44 51.1,44.4 C51.2,44.6 51.5,45.2 51.8,45.1 C53.3,44.6 54.8,44.2 56.3,43.9 C57.1,43.7 57.9,43.6 58.7,43.4 C59,43.3 59.4,43.3 59.7,43.2 C60.1,43.1 60.4,43.1 60.8,43.1 C60.8,43.1 60.9,43.1 60.9,43.2 C62,44.4 62.8,45.8 63.5,47.2 C64.6,49.6 65.4,52.3 66.1,54.9 C66.3,55.9 66.6,56.8 66.7,57.8 C66.8,58.8 67,59.7 67.1,60.7 C67.2,62.8 67.3,64.9 67.2,67 C67.2,68.9 67.1,70.9 66.9,72.8 C66.7,74.4 66.5,75.9 66.3,77.4 C66,78.9 65.7,80.4 65.3,81.9 C64.6,84.8 63.9,87.8 63.1,90.7 C62.7,92.3 62.2,93.8 61.8,95.3 C61.3,96.9 60.8,98.4 60.3,100 C59.2,103 57.7,105.9 56.5,108.8 C56.2,109.5 55.9,110.1 55.7,110.8 C55.5,111.2 55.4,111.6 55.2,112 C55.1,112.3 55,112.7 54.9,113 C54.8,113.4 54.7,113.7 54.6,114.1 C54.5,114.6 54.5,115.1 54.5,115.6 C54.5,116.9 54.8,118.6 55.9,119.4 C56.2,119.6 56.5,119.7 56.8,119.7 C57,119.7 57.5,119.5 57.7,119.3 C58,119.1 58.3,118.7 58.5,118.4 C58.7,118.2 58.8,118 58.9,117.9 C59.6,117.1 60.3,116.1 60.9,115.1 C61.6,113.9 62.3,112.7 63,111.6 C64.2,109.5 65.3,107.4 66.4,105.3 C66.8,106.1 67.6,106.9 68.5,106.2 C69.4,105.5 69.8,104.4 70.3,103.4 C70.5,103 70.7,102.6 70.8,102.3 C71.1,101.6 71.4,101 71.6,100.3 C71.9,99.7 72.1,99 72.3,98.4 C72.6,98.6 73,98.6 73.3,98.3 L73.9,97.7 C74.1,97.4 74.3,97 74.4,96.6 C74.4,96.5 74.5,96.3 74.5,96.2 C74.7,95.6 74.8,95.1 74.9,94.5 C75.1,93.8 75.2,93.2 75.4,92.5 C75.5,91.9 75.7,91.4 75.8,90.8 C75.9,90.1 76.1,89.5 76.2,88.8 C76.3,88 76.4,87.2 76.6,86.5 C76.8,85.5 76.9,84.4 76.9,83.3 C77.4,81.2 78,79.1 78.5,77 C79.1,74.6 79.7,72.2 80.2,69.8 C80.3,69.6 80.3,69.4 80.3,69.2 C80.4,68.7 80.4,68.3 80.4,67.8 C80.4,66.7 80.2,65.3 79.5,64.3 C79.2,63.8 78.8,63.5 78.2,63.5 C77.3,63.5 76.7,64.6 76.4,65.3 C76.3,65.7 76.1,66.1 76,66.5 L75.8,66.3 C75.6,66.2 75.4,66.2 75.2,66.1 L75,65.9 C74.8,65.8 74.6,65.8 74.4,65.7 C73.9,65.8 73.5,66 73.2,66.5 C72.2,68.5 71.3,70.6 70.6,72.8 C70.6,72.4 70.6,72 70.7,71.6 C70.7,70.9 70.8,70.2 70.8,69.4 C70.8,67.8 70.7,66.2 70.6,64.6 C70.5,62.6 70.4,60.7 70.1,58.7 C69.8,56.8 69.5,54.9 68.9,53.1 C68.5,51.6 68,50.1 67.4,48.7 C66.8,47.2 66.2,45.6 65.4,44.2 C64.7,43 63.8,41.9 62.8,40.8 C62.4,40.4 62.1,40 61.7,39.6 C61.4,39.3 61,39 60.6,39 C61,39.1 60.9,39.1 60.9,39.1" id="Fill-1" fill="#161616" opacity="0.200000003"></path>
                <path d="M43.8,38.6 L44.6,38.6 C45.9,38.5 47.3,38.5 48.6,38.2 L49.2,38.1 L49.8,38 L50,38 L49.8,38.2 C49.4,38.6 49.1,39 48.7,39.4 C48.6,39.5 48.5,39.7 48.3,39.8 L47.7,40.4 C47.5,40.7 47.2,41 47,41.2 C46.9,41.3 46.9,41.4 46.9,41.4 L46.8,41.5 L46.7,41.6 C46.7,41.7 46.7,41.9 46.6,42 C46.6,42.4 46.9,42.9 47.2,43.1 C47.5,43.3 47.8,43.3 48.1,43.3 L48.6,43.3 C48.8,43.3 49.1,43.3 49.3,43.2 C50,43.1 50.6,43 51.2,42.9 L51.5,42.9 C52.5,42.7 53.6,42.6 54.6,42.2 C55.5,41.8 56.4,41.4 57.3,40.9 L57.8,40.6 C58.4,40.3 58.9,40 59.3,39.7 C59.3,40.2 59.3,40.7 59.4,41.2 C59.5,41.7 59.5,42.3 59.7,42.9 C59.8,43.1 59.8,43.2 59.9,43.4 C60,43.6 60.1,43.8 60.3,43.9 C60.4,44.1 60.8,44.2 61,44.3 C61.1,44.3 61.3,44.3 61.4,44.4 C61.4,44.9 61.5,45.5 61.5,46 L61.5,46.1 C61.7,47.6 62.1,49 62.5,50.1 L62.7,50.7 L62.8,50.9 C62.9,51.2 63,51.6 63.2,51.9 L63.3,52.3 C63.4,52.7 63.6,53.2 63.7,53.6 C63.8,53.9 63.9,54.3 64,54.6 L64,54.7 C64.2,55.6 64.5,56.5 64.8,57.4 C65.2,58.6 65.6,59.6 65.9,60.5 C66,60.8 66.1,61.1 66.3,61.4 C66.6,62.1 66.8,62.7 67,63.4 L67.9,66.4 L67.9,66.6 C68,67 68.1,67.5 68.2,67.9 C68.3,68.4 68.4,68.8 68.4,69.3 L68.7,72 C68.8,72.3 68.9,72.7 69,72.9 L69,73 C69.1,73.2 69.2,73.5 69.3,73.7 C69.4,74 69.5,74.2 69.7,74.4 C69.9,74.7 70.1,74.9 70.5,75 C70.6,75 70.8,75.1 71,75.1 C71.2,75.1 71.3,75.1 71.5,75 C71.6,74.9 71.8,74.9 71.9,74.8 C72,74.7 72.1,74.7 72.2,74.6 L72.5,74.3 C72.7,74.2 72.8,74 73,73.9 L73.1,73.8 L73.5,73.5 L73.9,73.1 C74.5,72.6 75.2,72 75.8,71.5 C76.1,71.3 76.3,71.1 76.6,71 C76.5,71.5 76.3,71.9 76.2,72.5 C76.1,72.7 76.1,73 76,73.2 L76,73.3 L75.7,74.2 L75.6,74.6 C75.3,75.6 75,76.7 74.9,77.8 L74.6,81.7 L75,83.3 C74.9,84.2 74.9,85.1 74.8,85.9 C74.8,86.4 74.7,86.9 74.7,87.3 C74.5,88.4 74.3,89.4 74.1,90.2 L74,90.2 L73.9,90.2 C73.6,90.2 73.3,90.3 73.1,90.3 L73,90.3 C72.7,90.3 72.5,90.4 72.2,90.4 C71.5,90.5 70.8,90.5 70.1,90.7 C69.6,90.8 69,91 68.4,91.3 C68,91.5 67.6,91.7 67.1,92.1 C66.1,92.8 65.2,93.5 64.3,94.2 C63.9,94.5 63.5,94.9 63.2,95.2 C62.9,95.5 62.6,95.8 62.3,96.2 C61.9,96.7 61.6,97.2 61.2,97.9 C61,98.2 60.9,98.5 60.7,98.8 L60.6,98.9 C60.4,99.2 60.3,99.5 60.1,99.7 C60,99.8 59.9,99.9 59.8,100.1 C59.6,100.3 59.5,100.5 59.4,100.7 C59.1,101.1 58.7,101.6 58.4,102 C58.1,102.4 57.7,102.9 57.4,103.3 C57.3,103.5 57.2,103.6 57,103.8 C56.9,104 56.8,104.1 56.7,104.3 C56.5,104.6 56.2,104.9 56,105.1 C55.8,105.3 55.6,105.5 55.4,105.8 C55.3,106 55.1,106.1 55,106.3 C54.7,106.7 54.4,107 54.1,107.4 C53.1,108.6 52.1,109.6 51.1,110.5 C50.7,110.7 50.3,111 49.8,111.2 C49.5,111.3 49.3,111.4 49,111.5 L48.8,111.6 C48.5,111.7 48.1,111.8 47.8,111.9 L47.1,111.9 C46.8,111.8 46.6,111.8 46.3,111.7 C46.2,111.7 46.2,111.6 46.1,111.6 C45.9,111.3 45.8,111.1 45.6,110.8 C45.5,110.7 45.5,110.5 45.4,110.4 C45.2,110.1 45,109.9 44.9,109.6 L44.9,109.5 C44.8,109.4 44.7,109.3 44.7,109.2 L44.4,108.9 C44.3,108.8 44.1,108.7 44,108.6 C43.9,108.5 43.7,108.4 43.5,108.4 C42.8,108.1 42.1,108.1 41.4,108 L39.7,108 C38.3,108 37.1,108.1 36,108.3 C35.3,108.4 34.7,108.7 34.2,109.2 C34.1,109.3 33.9,109.5 33.8,109.7 L33.7,109.8 L33.6,109.9 C33.3,110.2 33,110.6 32.7,110.9 C32.4,111.1 32.1,111.3 31.8,111.4 C31.7,111.4 31.5,111.5 31.4,111.5 L30.8,111.5 C30.6,111.5 30.3,111.4 30.1,111.3 C30,111.3 30,111.2 29.9,111.2 C29.7,111 29.4,110.7 29.2,110.4 C28.9,109.9 28.5,109.4 28.2,108.9 L28,108.6 C27.6,108 27.3,107.3 27,106.7 C26.8,106.2 26.6,105.7 26.5,105.2 C26.3,104.6 26.1,104.1 26,103.6 C25.7,102.7 25.3,101.8 25,100.9 L24.8,100.4 C24.6,99.9 24.3,99.3 24,98.8 C23.7,98.3 23.3,97.8 22.9,97.3 C22.6,96.9 22.2,96.5 21.8,96 C21.5,95.6 21,95.2 20.5,94.8 C20.2,94.6 19.9,94.5 19.5,94.4 C19.3,94.4 19.1,94.3 18.9,94.3 L18.4,94.3 C18,94.4 17.5,94.5 17,94.6 C16.7,94.7 16.5,94.8 16.2,94.8 L16.2,94.6 C16.1,93.9 16,93.3 15.9,92.6 C15.7,90.5 15.5,88.4 15.4,86.2 C15.3,85 15.3,83.8 15.2,82.8 C15.1,81.8 15.2,80.7 15.2,79.7 C15.2,78.6 15.3,77.4 15.4,76.3 C15.5,75.5 15.6,74.6 15.7,73.8 L15.8,73.1 L16.1,69.8 C16.2,68.7 16.1,67.6 16.1,66.6 C16.1,65.5 16.1,64.2 16.2,62.9 C16.3,61.5 16.5,60 16.6,58.5 C16.7,58.1 16.7,57.7 16.9,57.3 C17.3,57 17.6,56.7 18,56.5 C18.5,56.1 19,55.6 19.5,55.2 L19.6,55.2 C20.1,54.8 20.5,54.3 20.9,53.9 L21,53.8 C21.3,53.5 21.5,53.2 21.8,52.9 L22.2,52.5 C22.8,51.9 23.3,51.3 23.9,50.7 L24.2,50.4 C25.3,49.2 26.5,47.9 27.7,46.6 C28.4,45.9 29,45.2 29.7,44.6 L30.7,43.6 C31.3,43 31.9,42.4 32.4,41.8 C33,41.2 33.6,40.6 34.4,40.1 C35.1,39.6 35.7,39.2 36.3,38.9 L37.2,38.6 L37.5,38.6 C38.5,38.5 39.6,38.4 40.6,38.4 L41.4,38.4 C42.1,38.4 42.8,38.4 43.4,38.5 L44.3,38.5 C43.7,38.6 43.7,38.6 43.8,38.6 M72.7,4.54747351e-13 L72.4,4.54747351e-13 C72.1,0.1 71.8,0.2 71.5,0.4 C71.2,0.6 70.9,0.7 70.6,0.9 C69.7,1.3 68.7,1.5 67.8,1.8 C67.2,1.9 66.6,2.1 66,2.2 C65.5,2.3 65,2.4 64.6,2.4 L64.2,2.4 C63.8,2.5 63.3,2.5 62.8,2.5 L62.3,2.5 C61.8,2.5 61.3,2.6 60.8,2.6 L58.7,2.6 C57.9,2.6 57.2,2.5 56.5,2.5 C55.3,2.4 54,2.3 52.6,2.2 L52.2,2.2 C51.7,2.1 51.2,2.1 50.7,2.1 L48.7,2.1 C47.6,2.1 46.2,2.1 44.8,2.2 C43.8,2.3 42.8,2.4 41.8,2.7 L39.7,3.3 C39.3,3.4 38.8,3.6 38.4,3.7 L37.9,3.9 C37.7,4 37.5,4 37.3,4.1 L37,4.2 L36.9,4.2 C36.6,4.3 36.4,4.4 36.1,4.5 C35.5,4.8 34.8,5.1 34.2,5.4 C33.6,5.7 33,6 32.5,6.3 L32.3,6.4 C31.3,6.9 30.3,7.6 29.3,8.3 L29.2,8.4 C28.7,8.8 28.1,9.2 27.6,9.6 C27.1,10 26.5,10.5 25.8,11 C25.1,11.5 24.5,12.1 24,12.6 L23.9,12.7 C23.6,13 23.3,13.2 23.1,13.5 C22.5,14 22,14.5 21.5,14.9 C21.2,15.2 20.8,15.5 20.4,15.7 L19.8,15.8 C18.8,16.6 17.8,17.3 16.8,17.9 C16.5,18.1 16.1,18.4 15.8,18.6 C15.6,18.7 15.5,18.8 15.3,18.9 C15.1,19 15,19.1 14.8,19.2 L14.6,19.3 C14.2,19.5 13.8,19.8 13.3,20 C13.1,20.1 12.9,20.2 12.6,20.2 L12.4,20.3 C11.9,20.5 11.5,20.6 11.2,20.6 L10.7,20.6 L10.6,20.6 C10.5,20.6 10.4,20.6 10.3,20.7 C9.9,20.9 9.6,21.2 9.6,21.6 C9.6,21.8 9.7,22 9.8,22.3 C9.9,22.5 10,22.8 10.2,23 C10.4,23.5 10.8,23.9 11,24.2 C11.6,24.9 12.3,25.5 13.1,26 C13.3,26.1 13.6,26.2 13.8,26.3 L13.9,26.4 C14.3,26.5 14.6,26.6 15,26.7 C15.3,26.8 15.6,26.8 15.9,26.8 C15.4,27.2 15,27.6 14.6,27.9 C13.7,28.5 12.8,29.2 11.7,29.7 C11.3,29.9 10.9,30.1 10.6,30.2 L10,30.5 C9.7,30.6 9.5,30.8 9.2,30.9 L8.9,31 C8.1,31.3 7.2,31.7 6.3,32 C6.2,32 6.2,32 6.1,32.1 L6,32.1 C5.8,32.2 5.5,32.2 5.3,32.4 C5.1,32.5 4.9,32.7 4.8,32.9 C4.7,33 4.7,33.1 4.6,33.2 L4.6,33.3 C4.6,33.5 4.5,33.6 4.6,33.8 C4.8,34.4 5.1,34.9 5.3,35.3 C5.5,35.7 5.8,36.1 6,36.4 C6.3,36.9 6.7,37.3 7,37.7 L7.6,38.3 L7.8,38.4 C8,38.6 8.3,38.8 8.5,38.9 C8.8,39.1 9.2,39.3 9.6,39.5 C9.3,39.8 9,40 8.7,40.3 L8.3,40.7 C7.7,41.2 7.2,41.7 6.6,42.1 C6.1,42.5 5.5,42.9 4.9,43.3 L4.1,43.8 L3.8,44 C2.8,44.6 1.9,45.2 0.9,45.8 C0.5,46 0.4,46.5 0.6,46.9 L0.5,47 C0.3,47.2 0.2,47.4 0.1,47.6 C0,47.7 0,47.9 0,48.1 C0,48.5 0.2,49 0.6,49.3 C0.8,49.5 1,49.6 1.2,49.7 C1.4,49.8 1.5,49.8 1.7,49.9 C1.8,50 2,50.1 2.1,50.3 C2.3,50.5 2.5,50.7 2.7,50.8 C3,51 3.3,51.3 3.6,51.5 C4,51.8 4.5,52 5,52.2 C5.6,52.4 6.3,52.5 6.9,52.6 L7.4,52.6 C7.3,52.8 7.2,52.9 7.1,53.1 C6.7,53.8 6.4,54.4 6,54.9 C5.2,55.8 4.3,56.6 3.3,57.5 C3,57.9 2.5,58.3 2,58.6 L2,58.7 L1.5,59.1 L1.2,59.3 C1.1,59.4 1,59.5 0.8,59.6 C0.7,59.7 0.6,59.8 0.5,60 C0.3,60.2 0.3,60.5 0.4,60.8 C0.5,61.1 0.7,61.4 1,61.6 C1.3,61.8 1.7,61.8 2,61.8 L3.2,61.8 C3.8,61.8 4.4,61.9 4.9,62 C5.2,62 5.5,62.1 5.7,62.1 L5.8,62.1 C6.1,62.1 6.3,62.1 6.6,62 L6.7,62 C7.4,61.9 8,61.8 8.8,61.7 C9.4,61.6 9.9,61.4 10.6,61.1 C11.3,60.8 11.9,60.5 12.5,60.2 C13.1,59.9 13.7,59.6 14.2,59.2 C14.4,59 14.7,58.9 14.9,58.7 C14.8,59.1 14.8,59.5 14.7,60 L14.7,60.1 L14.6,60.8 L14.5,61.7 C14.4,62.2 14.4,62.8 14.3,63.3 L14.3,63.4 C14.3,63.8 14.2,64.2 14.2,64.6 L14.2,68.7 C14.2,69.1 14.2,69.5 14.1,69.8 L14.1,70.4 C14.1,70.8 14,71.2 14,71.5 C13.9,72 13.9,72.4 13.8,72.9 L13.8,73.2 C13.5,75.2 13.2,77.3 13.1,79.3 L13.1,79.4 C13,80.5 13,81.7 13,82.8 C13,83.7 13,84.7 13.1,85.6 L13.1,86 C13.2,87.5 13.3,89.4 13.4,91.4 C13.5,92.3 13.5,93.2 13.7,94.1 L14,95.9 L13.8,96.1 C13.7,96.3 13.6,96.6 13.7,96.8 C13.8,97 13.9,97.2 14.1,97.4 C14.2,98.3 14.3,99.2 14.5,100.1 L14.8,101.6 C14.8,101.7 14.9,101.9 14.9,102 C15,102.3 15,102.7 15.1,103 C15.4,104.2 15.6,105.2 15.9,106.1 C16,106.4 16.1,106.7 16.2,107.1 C16.4,107.8 16.6,108.6 16.9,109.3 C17.2,110.2 17.5,111.2 18,112.5 C18.4,113.7 18.9,114.7 19.4,115.6 C19.7,116.1 20,116.6 20.4,117.2 C20.6,117.6 20.9,117.9 21.1,118.3 L21.3,118.5 C21.5,118.8 21.8,119.2 22.1,119.5 L22.4,119.8 C22.7,120.2 23.1,120.7 23.5,121.1 L24.8,122.4 C25.2,122.7 25.6,123.1 25.9,123.4 C26.5,123.9 27,124.2 27.5,124.6 C27.9,124.9 28.3,125.1 28.8,125.4 L29.3,125.7 C30.1,126.1 30.9,126.6 31.7,127 C32.8,127.5 33.9,128.1 35,128.5 C35.4,128.7 35.9,128.9 36.3,129 C36.6,129.1 37,129.2 37.3,129.2 L37.5,129.2 C37.9,129.3 38.3,129.4 38.7,129.4 L39,129.5 C40,129.7 41.1,129.8 42.5,129.9 L45.1,129.9 C45.6,129.8 46.1,129.8 46.6,129.6 L47.5,129.3 C47.7,129.2 47.9,129.2 48.1,129.1 C48.2,129.1 48.3,129 48.3,129 C48.7,128.8 49.2,128.7 49.6,128.5 C49.7,128.4 49.9,128.4 50,128.3 C50.4,128.1 50.7,128 51.1,127.8 L51.5,127.6 L51.6,127.6 C52,127.4 52.5,127.2 52.9,127 C53.4,126.7 54,126.4 54.5,126.1 C54.9,125.9 55.2,125.7 55.5,125.5 L55.8,125.3 C56.2,125.1 56.5,124.9 56.8,124.6 L57,124.5 L57.3,124.3 C57.7,124.1 58,123.8 58.4,123.6 C58.8,123.3 59.3,122.9 59.8,122.5 C59.9,122.5 59.9,122.4 60,122.4 C60.1,122.3 60.3,122.2 60.4,122.1 L60.8,121.8 L61.2,121.5 C62.1,120.7 62.8,120 63.4,119.3 C64.1,118.4 64.8,117.5 65.5,116.5 C66.2,115.4 66.8,114.6 67.3,113.8 C67.9,112.8 68.4,111.9 68.9,110.9 C69.3,110.2 69.6,109.6 69.9,108.9 C70.3,108.1 70.7,107.2 70.9,106.6 L72.1,103.9 L73.3,101.2 C73.4,100.9 73.6,100.6 73.7,100.3 C73.9,99.9 74.1,99.4 74.3,99 L74.8,99 C75.1,99 75.5,98.9 75.8,98.7 C76,98.6 76.1,98.5 76.3,98.4 L76.4,98.4 L76.7,98.2 C77.8,97.6 78.8,96.9 79.8,96.1 C80.4,95.7 80.9,95.2 81.5,94.7 C81.8,94.4 82.2,94.1 82.5,93.8 L82.9,93.5 C83.5,93 83.9,92.6 84.3,92.3 C84.7,91.9 85,91.5 85.3,91.1 L85.5,90.9 C85.9,90.3 86.4,89.7 87,89 C87.3,88.6 87.6,88.2 87.9,87.7 L88.1,87.3 C88.5,86.7 88.9,86 89.3,85.3 C89.6,84.9 89.8,84.5 90.1,84 C90.7,83 91.4,82 92,81.1 C92.7,80.1 93.3,79.2 94,78.4 C94.8,77.3 95.8,76.4 96.8,75.6 C97.2,75.3 97.7,75 98.2,74.6 C98.4,74.5 98.6,74.4 98.7,74.3 L98.9,74.2 C99.5,73.8 100,73.4 100.2,73 C100.7,72.2 100.7,71.1 100.7,70.1 L100.7,67.4 C100.7,66.4 100.6,65.3 100.6,64.3 L100.6,64 C100.6,63.4 100.5,62.8 100.4,62.3 L100.4,61.9 C100.4,61.6 100.3,61.3 100.3,61.1 L100.2,60.5 L100.1,59.9 C99.9,58.6 99.5,57.3 99.3,56.3 C99,55.1 98.6,53.7 98.1,52.2 C97.8,51.1 97.3,50 96.9,48.7 C96.6,47.9 96.4,47.3 96.2,46.7 C96,46.1 95.8,45.5 95.6,44.8 C95.4,44.1 95.2,43.3 95.1,42.7 C95,42.1 95,41.5 95,41 C95,40.9 95,40.8 95.1,40.8 C95.1,40.8 95.1,40.7 95.2,40.7 C95.4,40.5 95.7,40.2 96,40 L96.1,40 C96.2,39.9 96.4,39.8 96.6,39.7 L96.8,39.6 L97.7,39 C97.9,38.9 98,38.8 98.2,38.7 C98.3,38.7 98.3,38.6 98.4,38.6 L98.6,38.5 C98.8,38.4 99.1,38.2 99.3,38.1 L101.1,37.2 L101.3,37.1 C101.8,36.9 102.3,36.6 102.8,36.3 C103.1,36.1 103.4,35.9 103.6,35.5 C103.7,35.3 103.8,35.1 103.8,34.9 L103.8,34.3 C103.8,34.2 103.7,34 103.6,33.9 C103.5,33.8 103.4,33.6 103.3,33.5 L102.9,33.1 C102.3,32.6 101.7,32.1 101.2,31.8 C100.7,31.4 100.1,31 99.6,30.6 L99.5,30.5 L98.3,29.6 C97.6,29.1 96.9,28.5 96.2,28 C94.7,26.7 93.4,25.6 92.3,24.4 C91.7,23.8 91.1,23.1 90.6,22.5 C90.3,22.2 90,21.8 89.7,21.5 L89.6,21.4 L95.9,21.4 C96.1,21.4 96.5,21.3 96.7,21.2 C96.8,21.1 96.9,21 97.1,20.9 L97.2,20.9 C97.4,20.7 97.5,20.4 97.5,20.1 C97.5,19.8 97.3,19.5 97.2,19.3 C97,19 96.7,18.8 96.4,18.6 C96.3,18.5 96.2,18.5 96.1,18.4 C95.9,18.2 95.6,18 95.4,17.9 C94.9,17.5 94.3,17.2 93.8,16.8 C93.2,16.4 92.6,16.1 92,15.7 L91.7,15.5 C91.3,15.2 90.8,15 90.4,14.7 C90.1,14.5 89.8,14.4 89.5,14.2 C89.2,14 88.9,13.9 88.6,13.7 L88,13.4 C87.9,13.4 87.8,13.3 87.7,13.3 L87.2,13.1 L86.7,12.9 C86.4,12.7 86,12.6 85.7,12.5 L85.5,12.4 C85.1,12.2 84.7,12.1 84.2,12 C83.7,11.8 83.1,11.7 82.5,11.5 L82,11.4 C81.5,11.3 81.1,11.2 80.6,11 C78.7,10.5 76.5,10 74.3,9.6 C73.6,9.5 72.9,9.4 72.3,9.3 C72,9.3 71.6,9.2 71.3,9.2 C70.8,9.1 70.2,9 69.7,8.9 C70,8.7 70.2,8.6 70.4,8.4 C71.2,7.8 71.8,7.1 72.4,6.5 C73.1,5.7 73.8,4.8 74.3,3.8 C74.6,3.3 74.8,2.7 75,2.2 C75.1,2 75.1,1.7 75.2,1.4 C75.2,1 75.2,0.7 75,0.5 C74.9,0.4 74.9,0.3 74.8,0.2 C74.7,0.1 74.6,4.54747351e-13 74.4,4.54747351e-13 L72.7,4.54747351e-13" id="Fill-12" fill="#161616"></path>
                <path d="M20.3,54.7 C20.1,54.8 20,55 19.8,55.2 C19.7,55.3 19.6,55.4 19.5,55.6 C19.7,55.4 20,55.2 20.2,54.9 L20.3,54.8 C20.2,54.8 20.3,54.8 20.3,54.7 C20.4,54.7 20.5,54.6 20.5,54.5 C20.4,54.6 20.4,54.7 20.3,54.7" id="Fill-17" fill="#161616"></path>
                <path d="M75.3,55.7 C75,55.8 74.6,55.8 74.3,56 C74.1,56.1 73.8,56.3 73.6,56.4 C73,56.8 72.4,57.2 71.9,57.6 C71.2,58.1 70.7,58.8 70.3,59.5 C70,60 69.7,60.5 69.7,61 L69.7,61.3 C69.8,61.5 69.9,61.7 70,61.8 C70.2,62 70.4,62.2 70.7,62.2 C71.1,62.3 71.6,62.4 72,62.4 C72.8,62.4 73.5,62.3 74.3,62.2 C75,62.1 75.6,62 76.3,61.9 C77.9,61.7 79.4,61.6 81,61.6 C81.6,61.6 82.2,61.1 82.2,60.4 C82.2,59.8 81.7,59.2 81,59.2 C79.8,59.2 78.5,59.3 77.3,59.4 C76,59.5 74.6,59.8 73.3,60 C73.1,60 72.8,60 72.6,60.1 C72.9,59.7 73.3,59.4 73.6,59.1 L74.5,58.5 C74.7,58.3 75,58.2 75.2,58.1 C75.4,58 75.6,58 75.8,58 C76.1,58 76.4,57.7 76.5,57.5 C76.7,57.2 76.7,56.9 76.6,56.6 C76.5,56.3 76.3,56.1 76.1,55.9 C75.9,55.8 75.7,55.7 75.5,55.7 L75.3,55.7" id="Fill-21" fill="#161616"></path>
                <path d="M35.9,57.8 C35.6,57.9 35.4,58.2 35.5,58.5 C35.7,59.2 35.8,59.9 35.9,60.5 C36,61.5 36.1,62.4 36.1,63.4 C36.1,64.2 36.1,65 36,65.8 C35.9,67.5 35.8,69.2 35.6,70.9 C35.5,71.3 35.5,71.6 35.4,72 C35.3,72.4 35.3,72.8 35.2,73.2 C35.1,74 34.9,74.9 34.8,75.7 C34.7,76.1 34.7,76.5 34.6,76.9 C34.4,77.4 34.4,77.8 34.3,78.1 L33.7,80.5 C33.4,81.5 33.1,82.6 33,83.7 L33,83.9 C33,84.3 33.2,84.6 33.4,84.9 C33.9,85.5 34.7,85.7 35.5,85.7 C36.1,85.7 36.8,85.6 37.4,85.6 C37.6,85.6 37.8,85.5 38,85.4 C38.2,85.2 38.2,85 38.2,84.8 C38.2,84.6 38.1,84.4 38,84.2 C37.8,84 37.6,84 37.4,84 L35.2,84 C35.1,84 35,84 34.9,83.9 L34.9,83.7 C35,83.3 35,83 35.1,82.6 L35.4,81.4 C35.6,80.6 35.8,79.9 36,79.1 C36.2,78.3 36.3,77.5 36.5,76.7 C36.6,75.9 36.8,75.1 36.9,74.3 C37,73.5 37.2,72.6 37.3,71.8 C37.4,70.9 37.5,70.1 37.5,69.2 C37.5,68.5 37.6,67.7 37.6,67 L37.6,65.8 L37.6,64.5 C37.6,63.9 37.6,63.2 37.5,62.6 C37.5,62.2 37.4,61.8 37.4,61.3 C37.3,60.8 37.3,60.3 37.2,59.8 C37.1,59.3 37,58.8 36.8,58.4 C36.7,58.1 36.5,58 36.2,58 C36,57.8 35.9,57.8 35.9,57.8" id="Fill-43" fill="#161616"></path>
            </g>
            <g id="sad">
                <g id="Group-11" transform="translate(29.000000, 39.000000)"></g>
                <g id="Group-53">
                    <g id="Group-14">
                        <g id="Fill-12-Clipped"></g>
                    </g>
                </g>
            </g>
            <path d="M15.9764261,70.9925182 C19.5474213,69.4334142 22.6218935,68.6235004 25.1998427,68.5627766 C27.777792,68.5020529 31.0366531,69.1627848 34.9764261,70.5449722 C33.8071715,75.0796052 30.8259834,77.415568 26.0328616,77.5528606 C21.2397398,77.6901531 17.8875946,75.5033723 15.9764261,70.9925182 Z" id="Path-9" fill="#FFFEFF"></path>
            <path d="M44.9764261,69.9925182 C48.5474213,68.4334142 51.6218935,67.6235004 54.1998427,67.5627766 C56.777792,67.5020529 60.0366531,68.1627848 63.9764261,69.5449722 C62.8071715,74.0796052 59.8259834,76.415568 55.0328616,76.5528606 C50.2397398,76.6901531 46.8875946,74.5033723 44.9764261,69.9925182 Z" id="Path-9" fill="#FFFEFF"></path>
            <path d="M44.1221672,59.0511616 C43.8200468,59.5239675 44.005635,60.133318 44.5127657,60.4136455 C44.9594723,60.6590965 45.4176882,60.8801999 45.8798604,61.1009743 C46.2647043,61.2862142 46.6455917,61.4763894 47.0372692,61.6511006 C47.902988,62.0367154 48.7920851,62.3992987 49.7124733,62.6588977 C50.6580382,62.9237612 51.6133141,63.1188717 52.586933,63.2797639 C53.1375834,63.3695872 53.6871547,63.4557912 54.2435598,63.5136992 C54.7226364,63.5650268 55.201713,63.5650268 55.6836669,63.5508788 C56.6108888,63.525215 57.540988,63.424863 58.4567005,63.2899636 C58.883985,63.2267912 59.3098309,63.151116 59.7381944,63.0905758 C60.203244,63.0251002 60.6682936,62.9635729 61.1319046,62.892833 C61.5732161,62.8260414 62.0127293,62.7437856 62.4540409,62.6717296 C62.9104585,62.5970414 63.3532087,62.4674064 63.7941606,62.3374423 C63.9995305,62.2759151 64.2102955,62.2064912 64.3955241,62.102191 C64.4940728,62.0469151 64.5893846,61.9788074 64.6695904,61.9004999 C64.7947546,61.7797485 64.8663283,61.6550489 64.9350247,61.5007371 C65.0432845,61.2539699 64.9267524,60.9262631 64.7300145,60.7462876 C64.5642079,60.5959241 64.3365386,60.5189328 64.104913,60.521565 C63.8909111,60.5248552 63.7078405,60.608098 63.5204539,60.6870635 C61.9109435,61.268776 60.1942524,61.5458133 58.4926672,61.8047543 C57.3805764,61.9110287 56.260573,61.9199123 55.1459646,61.8281149 C54.666888,61.7600072 54.1964434,61.6639325 53.7220424,61.5665417 C53.1965688,61.4569771 52.6685774,61.3490576 52.1470601,61.2233708 C51.5992871,61.0907746 51.0486367,60.9624557 50.5159697,60.7851123 C50.0829305,60.6403422 49.6513299,60.5028107 49.223326,60.3478409 C47.9882291,59.8566097 46.7642819,59.3281989 45.6115488,58.6938428 C45.4446632,58.6020454 45.2587153,58.5589434 45.0738464,58.5589434 C44.6954766,58.5589434 44.3214228,58.739577 44.1221672,59.0511616" id="Fill-19" fill="#161616"></path>
            <path d="M49.8193816,74.8249545 C49.8576727,74.8403585 49.8966863,74.8561126 49.9349774,74.8715166 C49.9674887,74.8851701 50,74.8981235 50.0325113,74.9110769 C49.9606252,74.8823694 49.8898228,74.853662 49.8193816,74.8249545 L49.8193816,74.8249545 Z M44.8298574,66.8249545 C44.8266063,66.8484106 44.8233552,66.8715166 44.8193816,66.8953228 L44.8298574,66.8249545 Z M46.8471968,62.8249545 C46.8385271,62.8368576 46.829135,62.8480605 46.8193816,62.8589133 C46.8287737,62.8477104 46.8378046,62.8365075 46.8471968,62.8249545 L46.8471968,62.8249545 Z M46.6100936,62.0651169 C46.2318786,62.4491668 45.9002631,62.8650749 45.5982691,63.3082902 C45.3316763,63.6993418 45.0618323,64.095995 44.8602621,64.5224058 C44.4397824,65.4196891 44.2266526,66.3876908 44.0828804,67.3574429 C44.0120779,67.8360174 43.9795666,68.3282453 44.0135229,68.8096205 C44.030501,69.0697381 44.0673472,69.3295057 44.1110568,69.5864725 C44.1504317,69.8175326 44.2038947,70.049993 44.277587,70.273001 C44.4311127,70.742123 44.5907794,71.2140457 44.8263059,71.6502591 C44.9447916,71.8704663 45.0748368,72.0822714 45.2045209,72.2944266 C45.3584078,72.5443915 45.5346914,72.7702003 45.7167548,72.99986 C45.6914682,72.9683518 45.6672653,72.9382439 45.6419787,72.9070858 C45.9609509,73.30759 46.2784781,73.7136956 46.67331,74.0487327 C46.8752414,74.2185268 47.0797015,74.3837698 47.2899414,74.5451617 C47.5229392,74.7216076 47.7516021,74.9103067 47.9929083,75.0758997 C48.2017032,75.2180367 48.4216965,75.3465201 48.6377162,75.4792046 C48.8620443,75.6160902 49.0921522,75.7417729 49.3320134,75.8552024 C49.5772933,75.9703823 49.8287141,76.096065 50.0855536,76.1877888 C50.3647897,76.2889651 50.644387,76.38454 50.926513,76.4762638 C51.1577046,76.5515334 51.3935923,76.6212015 51.6320086,76.673015 C51.9087161,76.734631 52.1821724,76.7825935 52.4617697,76.8263549 C52.7424508,76.8715166 53.0303566,76.8974233 53.3139275,76.9247304 C53.5819653,76.9492368 53.8518093,76.9793446 54.121292,76.9863465 C54.4102815,76.9943985 54.6996322,76.9985996 54.9889829,77 C55.2501572,77 55.5109702,76.9821454 55.7721445,76.9670914 C56.081002,76.9481865 56.3858859,76.9044252 56.6922148,76.8606638 C56.8247888,76.8414088 56.9588076,76.8028988 57.0913816,76.7755917 C57.2199819,76.7468842 57.348221,76.7101246 57.4753764,76.6758157 C57.7094579,76.6127993 57.9439006,76.5445316 58.1711186,76.4626103 C58.4872009,76.3505812 58.7931685,76.223148 59.1023873,76.0904635 C59.3335789,75.9906876 59.5593519,75.8716566 59.7822351,75.7554264 C60.0069244,75.6377958 60.2326975,75.5163142 60.4429373,75.3780283 C60.5711764,75.2933063 60.6983318,75.2099846 60.8265709,75.1263128 C60.9479465,75.0457919 61.0620973,74.9526677 61.1794993,74.8665453 C61.4106909,74.6957009 61.6281555,74.5098025 61.8398403,74.3169024 C62.0316571,74.1418569 62.2292537,73.965411 62.4012024,73.7711105 C62.4958465,73.6646828 62.5904906,73.5579051 62.6836897,73.4511273 C62.8104838,73.3089903 62.923551,73.1503991 63.0420367,73.0012603 C63.3411408,72.6210615 63.6077336,72.2079541 63.8421763,71.7867946 C63.9635519,71.569388 64.0679494,71.3411287 64.1752367,71.11532 C64.2966123,70.8597535 64.4024547,70.5929842 64.491319,70.3251645 C64.6719374,69.7765719 64.8254631,69.2185268 64.9016841,68.6457779 C64.9370853,68.3870606 64.9638168,68.1314942 64.9851298,67.8703263 C65.0049978,67.6214116 64.9992181,67.3696961 64.9992181,67.119381 C65.000663,66.665313 64.9569533,66.2045932 64.8948206,65.7547262 C64.8720627,65.5877328 64.8525559,65.4210895 64.8185996,65.2554964 C64.793313,65.127013 64.7622467,64.99993 64.7311803,64.8724968 C64.6802459,64.6648929 64.6040249,64.4569388 64.526359,64.2573869 C64.4219615,63.9920179 64.3078107,63.7322504 64.1766817,63.4791346 C64.0509713,63.2396723 63.8717978,63.0142137 63.6980428,62.8062596 C63.561134,62.6448677 63.4159168,62.4848761 63.2464967,62.3535919 C63.1760555,62.2989777 63.1070593,62.2401624 63.0279484,62.1950007 C62.8881497,62.11553 62.7682191,62.0938244 62.6103586,62.0815712 C62.3968676,62.065467 62.1555614,62.1732951 62.0125116,62.3378378 C61.891136,62.4435653 61.8297257,62.6315642 61.8297257,62.7831536 C61.8297257,62.9399944 61.8998056,63.1234421 62.022265,63.2428231 C62.0999309,63.3324464 62.1960199,63.4098166 62.2870516,63.4899874 C62.4369649,63.623022 62.5735124,63.7623582 62.7017515,63.9125473 C62.7714702,64.0098726 62.8426339,64.1092984 62.900793,64.2136255 C62.9582297,64.3207534 63.0124152,64.426831 63.0640721,64.5353592 C63.1532976,64.7594174 63.2338534,64.9834757 63.3057396,65.2117351 C63.3783482,65.4399944 63.423864,65.6780563 63.4607102,65.9143677 C63.5134508,66.3232741 63.5575217,66.734631 63.5600503,67.1466881 C63.562579,67.3942025 63.5683588,67.6420669 63.5513807,67.8895813 C63.5372924,68.1003361 63.5181469,68.3089903 63.4943052,68.519045 C63.4274764,68.8771881 63.3498105,69.2290295 63.2537215,69.5812211 C63.1648572,69.9029548 63.0525125,70.2162862 62.9286083,70.5257667 C62.7664129,70.8783084 62.5980765,71.2248985 62.3957839,71.5585352 C62.2812718,71.7472343 62.1700108,71.9373337 62.0443004,72.1179807 C61.9272597,72.2881249 61.8055228,72.4526677 61.6812573,72.6179107 C61.5866133,72.7316902 61.4926917,72.84617 61.3911841,72.9532979 C61.2484956,73.1052374 61.1061682,73.2529758 60.9562549,73.3965131 C60.8095928,73.5358493 60.6585957,73.6699342 60.5061538,73.8054194 C60.3956153,73.9030948 60.2760459,73.992368 60.1582827,74.0819913 C59.8313633,74.3063997 59.502999,74.5213556 59.1544054,74.7135555 C58.8130365,74.9005041 58.4644429,75.0660972 58.1097083,75.2271391 C57.795071,75.3451197 57.47935,75.4564487 57.1549593,75.5488727 C56.9559177,75.6062876 56.7583212,75.6598516 56.556751,75.707814 C56.3801062,75.7480745 56.2034613,75.7788825 56.0246491,75.8100406 C55.4799039,75.8744574 54.9337137,75.9059656 54.3835499,75.9059656 C54.0844458,75.9073659 53.7853417,75.9003641 53.4862375,75.8786585 C53.191107,75.8594034 52.8992276,75.830696 52.6040971,75.8019885 C52.6116831,75.8033889 52.6189078,75.8040891 52.6264938,75.8051393 C52.4776642,75.7862344 52.3288346,75.7683798 52.1821724,75.7403725 C51.9607342,75.6966111 51.7447145,75.6514494 51.5276112,75.5940344 C51.1295281,75.4900574 50.7401148,75.361574 50.3521464,75.2264389 C50.3590099,75.2292396 50.3658734,75.2323904 50.3727369,75.2351911 C50.3228862,75.2145358 50.2730355,75.1942305 50.2235461,75.1742753 C49.8630316,75.0258367 49.5093807,74.8675956 49.1752366,74.6669934 C48.9877547,74.5549643 48.8013565,74.4411847 48.6124296,74.3319563 C48.4448157,74.2339308 48.2891226,74.1068478 48.1345132,73.9892172 C48.15402,74.0035709 48.1735268,74.0179247 48.1930336,74.0322784 C47.8094,73.7452038 47.4199866,73.4595295 47.0782566,73.1244924 C46.7766238,72.826915 46.508586,72.5006302 46.2437994,72.1718947 C45.9389154,71.7486346 45.6492035,71.3008682 45.4324613,70.8282453 C45.296275,70.5072119 45.1626174,70.1861784 45.0549688,69.8532418 C44.9491264,69.526957 44.8880774,69.1856183 44.8393104,68.8463801 C44.7750102,68.2088643 44.8179974,67.5713486 44.9007207,66.9366335 C44.960686,66.5469822 45.0434092,66.1629324 45.1282999,65.7778322 C45.2175254,65.3832797 45.3461257,64.9964291 45.5029025,64.6211315 C45.6369214,64.3358073 45.7853898,64.0588853 45.9439728,63.7840639 C46.1112254,63.4920879 46.2701697,63.1976614 46.4645151,62.9228399 C46.6158734,62.7372917 46.7690378,62.5555945 46.9373742,62.3822994 C47.0233486,62.2933763 47.0291283,62.1526397 46.9373742,62.0651169 C46.892942,62.0224058 46.831893,62 46.770844,62 C46.7116011,62 46.6523583,62.0210055 46.6100936,62.0651169 L46.6100936,62.0651169 Z" id="Fill-31" fill="#161616"></path>
            <path d="M52.8853439,66.7997253 C52.8870552,66.7997253 52.8887665,66.7993231 52.8904778,66.798921 C52.8699423,66.8021382 52.8494069,66.8057577 52.8288715,66.8085728 C52.8476956,66.8057577 52.8665198,66.8025404 52.8853439,66.7997253 M52.8483801,66.798921 C52.8422195,66.7997253 52.8353744,66.8009318 52.8288715,66.8017361 C52.8353744,66.8009318 52.8422195,66.7997253 52.8483801,66.798921 M53.9050247,66.0357921 C53.4101211,66.0655518 52.9155597,66.0908877 52.4237364,66.1568416 C51.9490259,66.2195783 51.4743154,66.2963905 51.000974,66.3687789 C50.7124513,66.4130163 50.4263244,66.4584602 50.1401976,66.5228055 C49.9047248,66.5762925 49.674728,66.651496 49.4447313,66.7287104 C48.9809731,66.8827369 48.5223487,67.07899 48.0757033,67.2957532 C47.595859,67.5265919 47.1040356,67.7212364 46.6320632,67.9758024 C46.4099384,68.0952434 46.1987658,68.2460526 45.9862242,68.3860036 C45.7374034,68.5524971 45.4916628,68.725425 45.2469491,68.9027767 C45.0142143,69.0692702 44.927281,69.427593 45.0676064,69.7087014 C45.2027979,69.9821689 45.5197279,70.0871322 45.7534895,69.9190301 C46.1707008,69.6202267 46.5916769,69.3367052 47.0325039,69.0889759 C47.0735748,69.068868 47.1146456,69.0483579 47.1560587,69.02825 L47.0318194,69.0897802 C47.4743577,68.8838753 47.927506,68.7157732 48.3714133,68.5098683 C48.8204545,68.3011483 49.2790789,68.1109275 49.7404414,67.9379996 C49.975572,67.8487205 50.2110448,67.7622565 50.4516515,67.694694 C50.6922581,67.6287401 50.9328648,67.5720358 51.1775786,67.5249833 C51.6420214,67.4344977 52.1068064,67.3440122 52.5736449,67.2688086 C53.4200465,67.1541936 54.2784271,67.1023152 55.1282513,67.1023152 C55.5225314,67.1023152 55.9185227,67.1509763 56.3114338,67.1811382 C56.7053716,67.2117022 57.0982826,67.2382446 57.4894824,67.2909273 C57.9262024,67.3641201 58.3601842,67.4493776 58.7955352,67.5249833 C59.2661386,67.6066214 59.7326349,67.7011285 60.1967354,67.8282104 C60.6379047,67.9524773 61.0763359,68.0827765 61.51066,68.2351944 C61.8943301,68.369113 62.2711551,68.5444539 62.6414772,68.7262293 L62.6325785,68.7222078 C62.7821448,68.7974113 62.9265773,68.8870926 63.0723788,68.9719479 C63.29245,69.1030514 63.558726,69.2578823 63.7842734,69.094204 C63.9061169,69.0165875 64.0009221,68.8541156 63.998184,68.6924481 C64.0118743,68.5154985 63.9471877,68.3449835 63.8369809,68.2211188 C63.8061778,68.1865333 63.7729789,68.1535563 63.7394377,68.1205793 C63.6350493,68.0200398 63.5282651,67.9271413 63.4132668,67.8455032 C63.2366621,67.7184213 63.0388376,67.6351746 62.8478582,67.5438847 C62.6431885,67.4465625 62.436123,67.3568812 62.2287152,67.2704172 C61.3542486,66.9012362 60.437342,66.6736147 59.5214623,66.5022954 C59.1066468,66.4242767 58.6890932,66.3615401 58.2729087,66.2967926 C57.7882728,66.216361 57.3070594,66.139951 56.8179741,66.1065719 C56.3422369,66.0752036 55.8661574,66.0466503 55.3917892,66.015282 C55.2213452,66.0044237 55.0505589,66 54.8794304,66 C54.5542863,66 54.2281153,66.0160863 53.9050247,66.0357921" id="Fill-33" fill="#161616"></path>
            <path d="M53.9991528,65.6158056 C53.6870712,65.6808417 53.3763192,65.7718212 53.0974732,65.9331676 C52.9884607,65.9267706 52.8794482,65.9232167 52.7711004,65.9267706 C52.7086176,65.9296137 52.6451378,65.9392092 52.5866433,65.9530693 C52.491922,65.9740373 52.4231245,66.032321 52.3503387,66.0948694 C52.2842001,66.1517316 52.2453145,66.2487527 52.2037701,66.3280043 C52.1386285,66.4527457 52.0867811,66.5902811 52.0518838,66.7278165 C51.979098,67.0110612 51.9648067,67.3039014 51.9844157,67.5953201 C51.9907304,67.7093998 51.9983746,67.8245457 52.0206424,67.9368485 C52.0362631,68.0132571 52.0804663,68.1049473 52.1090489,68.171405 C52.1386285,68.238218 52.1778464,68.3007664 52.2154025,68.3618933 C52.4008567,68.6600643 52.6541114,68.932292 52.927972,69.1419712 C53.0502787,69.2350831 53.202165,69.3001192 53.3397601,69.3584029 C53.4720374,69.4141989 53.6019883,69.4515147 53.7395834,69.4834997 C53.886152,69.5169062 54.0393677,69.5321879 54.1885952,69.5460481 C54.2886341,69.5556436 54.3913319,69.562396 54.4910384,69.5570651 C54.5977244,69.5528005 54.7054075,69.5460481 54.8117612,69.5346756 C55.0144978,69.5140631 55.1949667,69.4625318 55.3830797,69.3861232 C55.534966,69.3253518 55.69217,69.2642249 55.8324239,69.1753778 C55.9816514,69.0808444 56.117917,68.9504168 56.2465384,68.82532 C56.4283367,68.6462041 56.5552964,68.4116477 56.6852473,68.1895298 C56.8072216,67.978429 56.8527543,67.745294 56.9085899,67.5107376 C56.9541226,67.3220262 56.9890199,67.1166116 56.9720698,66.922214 C56.9604374,66.7736616 56.9385019,66.6084059 56.9072605,66.4598535 C56.8853251,66.3571462 56.8424513,66.2597697 56.7995774,66.1641702 C56.7410829,66.032321 56.6164497,65.9018934 56.4971342,65.8322372 C56.3203213,65.7281084 56.1325406,65.7042973 55.9507423,65.7508532 C55.9347893,65.7536963 55.9191686,65.7565394 55.9035479,65.7600933 C55.7985237,65.7920783 55.7726,65.8226417 55.6984848,65.8588914 C55.6828641,65.8659991 55.6679081,65.8745285 55.6532845,65.884124 C55.6243696,65.8659991 55.5954547,65.8475189 55.5662074,65.8297495 C55.260773,65.6371289 54.9005,65.5589434 54.5422211,65.5589434 C54.3580963,65.5589434 54.1743039,65.5795559 53.9991528,65.6158056" id="Fill-35" fill="#161616"></path>
            <path d="M46.799609,71.8152144 C46.8160411,71.8174318 46.8324732,71.8196492 46.849306,71.8214971 C46.8324732,71.8200188 46.8160411,71.8178014 46.799609,71.8152144 M47.8160411,70.8152144 C47.8104301,70.8218667 47.8056208,70.8281494 47.799609,70.8348017 C47.80522,70.8281494 47.8104301,70.8214971 47.8160411,70.8152144 M48.8108309,70.8152144 C48.8072239,70.8237145 48.8032161,70.8322147 48.799609,70.8407148 C48.8032161,70.8322147 48.8068231,70.8237145 48.8108309,70.8152144 M48.818045,69.8152144 C48.8124341,69.8196492 48.8064223,69.8237145 48.799609,69.8277798 C48.8060215,69.8237145 48.8120333,69.8196492 48.818045,69.8152144 M49.2148642,70.1223281 C49.2116579,70.1260238 49.2084516,70.1293499 49.2048446,70.1326761 C49.0377185,70.2431779 48.86418,70.3522014 48.682225,70.4386811 C48.5784224,70.467138 48.4706121,70.4819209 48.378833,70.5366174 C48.2581977,70.6090534 48.1720296,70.7084681 48.114317,70.8285787 C48.0501919,70.9664288 47.9996933,71.107605 47.9419807,71.2476725 C47.935969,71.2576509 47.9303581,71.2672598 47.9239455,71.2764991 C47.9223424,71.2779773 47.9211401,71.2794556 47.9199377,71.2805643 C47.888276,71.2983038 47.8558126,71.3149345 47.8221469,71.3304565 C47.7295663,71.3640874 47.6357833,71.3947619 47.5379925,71.4158274 C47.4410033,71.4376321 47.3155586,71.4391104 47.2325967,71.4982418 C47.1480317,71.5573732 47.0839066,71.600613 47.026194,71.6874623 C46.9259985,71.8386169 46.8738969,72.012685 46.7757053,72.1649483 C46.7737014,72.166057 46.7712967,72.1675353 46.768892,72.168644 C46.7384326,72.1775137 46.7079732,72.1852747 46.6767122,72.191927 C46.640241,72.1937749 46.6041706,72.1937749 46.5668979,72.1922966 C46.5628901,72.1915574 46.5580807,72.1908183 46.5532713,72.1897096 C46.3216194,72.1420349 46.0803487,72.2517976 46.0146204,72.4713229 C45.9537016,72.6749566 46.0883643,72.9203519 46.3216194,72.9680266 C46.7191951,73.0500714 47.14202,72.978005 47.4394002,72.7078485 C47.5780707,72.5825638 47.6454021,72.4103436 47.7351773,72.2532758 C47.7520101,72.2510584 47.7688429,72.2484714 47.785275,72.2458844 C47.8666337,72.2314711 47.945187,72.2085577 48.0217363,72.1812095 C48.1283443,72.1420349 48.2333492,72.1047082 48.3379533,72.0610988 C48.5367411,71.9775757 48.6826257,71.8216166 48.7920392,71.6512443 C48.8477479,71.5658733 48.8830167,71.4642412 48.9226941,71.3685223 C48.9327137,71.3485655 48.9423324,71.3286086 48.9527528,71.3086518 C49.0553529,71.2750208 49.1539453,71.2332592 49.2493314,71.1807801 C49.338305,71.1331054 49.4212668,71.073974 49.5042287,71.0189079 C49.6689501,70.9091452 49.8284613,70.7967956 49.9366724,70.6364017 C50.0460859,70.4745295 50.0084124,70.2553737 49.8645317,70.1223281 C49.7763596,70.041392 49.6569266,70 49.5378944,70 C49.4196637,70 49.3022346,70.0406528 49.2148642,70.1223281" id="Fill-37" fill="#161616"></path>
            <path d="M49.9093919,72.8139945 C49.9088382,72.8199467 49.9082846,72.8258989 49.907731,72.8318511 C49.9082846,72.8258989 49.9088382,72.8199467 49.9093919,72.8139945 L49.9093919,72.8139945 Z M50.9086537,72.8139945 C50.9082846,72.8147386 50.9081001,72.8154826 50.907731,72.8165986 C50.9079156,72.8154826 50.9082846,72.8147386 50.9084692,72.8143666 L50.9086537,72.8139945 Z M50.8295395,71.0104163 C50.7531408,71.0539416 50.7249065,71.1889815 50.7033155,71.3269976 C50.6874452,71.4214884 50.676742,71.5189552 50.6651162,71.6160501 C50.6536748,71.715005 50.6435252,71.8154479 50.6341138,71.9155189 C50.623226,72.0271221 50.618059,72.1387254 50.6016351,72.2480966 C50.5804132,72.3347752 50.5564233,72.4184776 50.5291117,72.4977159 C50.5064135,72.5483094 50.4824236,72.5970429 50.4567728,72.6420562 C50.4628626,72.6323839 50.4689523,72.6230836 50.4752266,72.6137834 C50.4362891,72.6729331 50.4025186,72.7328268 50.392,72.8355019 C50.3840648,72.908044 50.3875711,72.975006 50.392,73.04606 C50.4023341,73.2268573 50.4054712,73.4121188 50.4012269,73.5929161 C50.3979052,73.622677 50.3942144,73.6509498 50.3894164,73.6792226 C50.3801895,73.7149357 50.3702245,73.7480446 50.3589677,73.7807816 C50.3023145,73.9154496 50.2371726,74.034121 50.1712926,74.1505605 C50.1432428,74.2000379 50.115193,74.2465393 50.0891732,74.3015969 C50.0646296,74.3555385 50.0423005,74.4135722 50.0229241,74.474582 C50.003363,74.5355917 49.9969042,74.6155741 50.0013331,74.6866282 C50.0048393,74.7565662 50.0149889,74.816088 50.0323355,74.8770978 C50.0646296,74.9961413 50.143981,75.0340864 50.200265,74.9671244 C50.2517511,74.9064866 50.2713122,74.783723 50.2547037,74.6743518 C50.3788978,74.4024118 50.5534707,74.2115702 50.6261786,73.8555558 C50.6688069,73.6449976 50.6579192,73.4136068 50.654413,73.1915163 C50.6534903,73.1353427 50.6501686,73.079541 50.6486923,73.0233674 C50.6553356,73.0125791 50.6617945,73.0021628 50.6680688,72.9910024 C50.6998093,72.9370608 50.7278591,72.8715869 50.7531408,72.804997 C50.7848813,72.7190624 50.8107166,72.6290358 50.8359983,72.534545 C50.8799183,72.3690002 50.8893298,72.1859708 50.9088908,72.0070336 C50.9240229,71.8749697 50.9398932,71.7440218 50.9600078,71.6160501 C50.9694193,71.5580164 50.9786462,71.4999827 50.9873194,71.441949 C51.0031897,71.3370419 51.0076186,71.2339949 50.9801225,71.1339239 C50.9577934,71.0502215 50.9111053,71.000372 50.8646017,71 C50.8527913,71 50.8407963,71.0033481 50.8295395,71.0104163 L50.8295395,71.0104163 Z" id="Fill-39" fill="#161616"></path>
            <path d="M54.7997105,73.8323628 C54.7972016,73.8474501 54.7942746,73.8625375 54.7909295,73.8776248 C54.7938565,73.8625375 54.7967835,73.8474501 54.7997105,73.8323628 M54.7909295,71.8323628 C54.7972016,71.8440974 54.8034737,71.855832 54.8093277,71.8679019 C54.8034737,71.855832 54.7972016,71.8440974 54.7909295,71.8323628 M54.7926021,71.8323628 L54.7913476,71.8394035 C54.7913476,71.8390683 54.7909295,71.8383977 54.7909295,71.8380624 C54.7913476,71.8363861 54.7921839,71.8343744 54.7926021,71.8323628 M54.1620035,72.0858303 C54.1293885,72.1156697 54.098446,72.1485266 54.068758,72.1813835 C54.0298709,72.2246339 53.9972559,72.3319217 54.0001829,72.3828834 C54.0085457,72.4589907 54.0231806,72.5257104 54.0557956,72.5964533 C54.0867381,72.6631729 54.1260433,72.7288867 54.1686937,72.791583 C54.258594,72.9240164 54.4020164,73.0286221 54.5588193,73.1084174 C54.6374298,73.1476445 54.7231487,73.1761428 54.8105402,73.2012884 C54.797996,73.2499032 54.7850336,73.298518 54.7712349,73.3467975 C54.7026598,73.5918832 54.6307395,73.8352924 54.6094144,74.0854072 C54.5981245,74.2138173 54.6257219,74.3499387 54.661682,74.4746608 C54.7026598,74.6171525 54.8105402,74.7391924 54.9230201,74.8518446 C54.9886683,74.9172231 55.0785686,74.9681849 55.1601061,75.0218288 C55.2169733,75.0597148 55.269659,75.1036358 55.3198359,75.1485625 C55.2671502,75.3212289 55.1831038,75.4922189 55.1078385,75.6571739 C55.0455354,75.7959775 55.1764136,75.9532213 55.3428337,75.9897662 C55.5309972,76.0316755 55.6957447,75.9401455 55.7580477,75.8013419 C55.8446029,75.6099002 55.9407754,75.4134294 55.9896979,75.2132705 C56.0699809,74.8726316 55.6622934,74.6946009 55.4172628,74.4776783 C55.3930106,74.4485094 55.3716854,74.41867 55.3511965,74.3868189 C55.3361434,74.3482624 55.3244355,74.3097058 55.3156545,74.2701434 C55.3089643,74.1937008 55.3085461,74.1182641 55.316909,74.0414862 C55.3658315,73.8031061 55.4511322,73.5697551 55.5339242,73.3377451 C55.5473047,73.2998591 55.560267,73.2629789 55.5732294,73.2250929 C55.5878643,73.1949182 55.5995723,73.1647435 55.6058444,73.133563 C55.6188068,73.0809249 55.6271696,72.9944241 55.6024993,72.9421213 C55.5861918,72.9095996 55.5698843,72.8767427 55.5519042,72.8438858 C55.5079994,72.7825306 55.4410968,72.7496737 55.3725217,72.7091055 C55.3562142,72.7024 55.3399067,72.6973709 55.3231811,72.6906654 C55.269659,72.6712195 55.2140463,72.6541205 55.1584335,72.6370215 C55.1145287,72.6242811 55.0718783,72.6118759 55.0288098,72.5988002 C54.9953585,72.5853892 54.9639979,72.5713077 54.9326374,72.5555498 C54.9163299,72.5438152 54.9012768,72.53141 54.8862237,72.5183343 C54.8582083,72.4844716 54.8343742,72.4489325 54.8117946,72.4123876 C54.8000867,72.3882478 54.7887969,72.3644433 54.7795977,72.339633 C54.8080313,72.2246339 54.7252394,72.096559 54.6014697,72.0398977 C54.5466932,72.0137463 54.4797906,72 54.4128881,72 C54.3179701,72 54.2234702,72.0274925 54.1620035,72.0858303" id="Fill-41" fill="#161616"></path>
            <path d="M59.8581703,72.8261648 L59.8581703,72.8261648 C59.8587376,72.8282508 59.8595886,72.8306845 59.8604396,72.8327706 C59.8595886,72.8306845 59.8587376,72.8282508 59.8581703,72.8261648 L59.8581703,72.8261648 Z M59.8581703,72.8261648 C59.8632762,72.8334659 59.8680984,72.8411146 59.8720696,72.8491111 C59.8675311,72.8414623 59.8627089,72.8338136 59.8581703,72.8261648 L59.8581703,72.8261648 Z M59.8581703,71.8261648 C59.8646945,71.8362473 59.8715023,71.8463297 59.8777428,71.8567598 C59.8706513,71.847025 59.8641272,71.8365949 59.8581703,71.8261648 L59.8581703,71.8261648 Z M59.8581703,71.8261648 C59.859305,71.8411146 59.8610069,71.8560645 59.8624252,71.8710143 C59.8607233,71.8560645 59.859305,71.8411146 59.8581703,71.8261648 L59.8581703,71.8261648 Z M58.8581703,70.8261648 C58.8641272,70.8320752 58.8706513,70.8379856 58.8768918,70.8435483 C58.8703677,70.8379856 58.8641272,70.8320752 58.8581703,70.8261648 L58.8581703,70.8261648 Z M58.8581703,69.8261648 C58.8632762,69.8345089 58.8683821,69.842853 58.8732043,69.8508494 C58.8678147,69.8432007 58.8629925,69.8352043 58.8581703,69.8272078 L58.8581703,69.8261648 Z M58.0087173,70.1804409 C57.99652,70.2715305 57.9942507,70.3528854 58.0209147,70.4411937 C58.0572231,70.567398 58.1403353,70.6463192 58.2291206,70.718287 C58.3000355,70.7766956 58.3908065,70.8065952 58.4739187,70.8267601 C58.5275303,70.8399716 58.5808583,70.8483157 58.6336189,70.8594411 C58.6242581,70.9686096 58.6183013,71.0749967 58.6256764,71.1841652 C58.6367391,71.3618248 58.6756005,71.5276635 58.7720447,71.6660363 C58.8140263,71.7258356 58.861681,71.7706851 58.915009,71.8155346 C58.9691879,71.8614271 59.0301747,71.8961941 59.0857719,71.9400006 C59.1067627,71.9636422 59.1257679,71.9876314 59.1444894,72.0130113 C59.1501626,72.0234415 59.1558358,72.0345669 59.160658,72.0453447 C59.1986684,72.1823268 59.2083128,72.3304344 59.2253323,72.4729792 C59.2417846,72.6183054 59.2783766,72.7486818 59.3526954,72.8654991 C59.4043214,72.9468539 59.4726833,73.0118683 59.5447328,73.0650618 C59.5467184,73.076535 59.5489877,73.0873127 59.551257,73.0987859 C59.5509733,73.113388 59.5506896,73.1276425 59.5498387,73.1422447 C59.5339537,73.2253379 59.512112,73.3049544 59.4868663,73.3838756 C59.4616206,73.4544526 59.4352403,73.522596 59.4068743,73.5921301 C59.3515608,73.7235495 59.3770901,73.8852162 59.4868663,73.9641374 C59.5864307,74.0361051 59.7350682,73.9978614 59.7903818,73.866442 C59.8933502,73.6192484 59.9931982,73.3584956 59.9997224,73.0758396 C60.0019917,73.0243844 59.9897943,72.9698002 59.9832702,72.9197356 C59.9753277,72.8679327 59.9566062,72.7987463 59.9356154,72.7552876 C59.9154756,72.7173915 59.8944848,72.6833198 59.8700901,72.6506388 C59.8417241,72.6137857 59.8005935,72.5884058 59.7642851,72.5609398 C59.7503858,72.54599 59.7367702,72.5306925 59.7234382,72.515395 C59.7206016,72.5098323 59.717765,72.5039219 59.7152121,72.4983592 C59.6998945,72.4399505 59.6913847,72.3804989 59.6840095,72.3193089 C59.6698266,72.1729397 59.6562109,72.0258752 59.625292,71.8833303 C59.5952242,71.7505202 59.5223237,71.638918 59.4480049,71.5384413 C59.3629071,71.4254485 59.2432029,71.3680828 59.1379653,71.2881187 C59.133143,71.2825559 59.1288882,71.2766455 59.1243496,71.2707351 C59.120662,71.2637817 59.1172581,71.2564807 59.1135705,71.2495273 C59.1056281,71.2171939 59.0991039,71.1855559 59.0942817,71.1525272 C59.0846373,71.0089394 59.0985366,70.8681329 59.1110176,70.7248927 C59.1254842,70.5510575 59.0168427,70.4057313 58.8894796,70.350104 C58.7887806,70.3052546 58.680139,70.2920431 58.5740504,70.2770933 C58.5360401,70.2673585 58.499448,70.2565807 58.462856,70.2419786 C58.4407305,70.2280718 58.4191724,70.2138173 58.397898,70.1981721 C58.382013,70.1084732 58.331238,70.0333764 58.2557846,70.0079964 C58.2398997,70.0027814 58.2231638,70 58.2064279,70 C58.1184935,70 58.0234676,70.0688387 58.0087173,70.1804409 L58.0087173,70.1804409 Z" id="Fill-43" fill="#161616"></path>
            <path d="M25.6856084,72.7604234 C26.2051678,72.7604234 26.7704543,72.6342518 27.3649052,72.385181 C27.4761622,72.3382757 27.5665361,72.2997334 27.6551096,72.2470103 C27.7472837,72.1946509 27.8387377,72.1059308 27.9247909,72.0179379 C28.0612517,71.8739496 28.1775495,71.6721477 28.2700837,71.4172592 C28.4385894,70.9616597 28.468474,70.4900614 28.3543365,70.0897301 C28.2535211,69.7319409 28.0032829,69.365425 27.6097427,69 L27.6799534,69.0058177 L27.7912104,69.0094538 L28.1242614,69.0079994 C28.6229376,69.0079994 29.0668855,69.0167259 29.4802287,69.0349063 C29.9760246,69.0549047 30.5031452,69.0974467 31.0918352,69.1654412 L31.2394578,69.1854396 C31.7417346,69.2548885 32.2620142,69.3268827 32.7621307,69.4552359 C32.8334216,69.4741435 32.9032723,69.4945055 32.9731229,69.5145039 L33.078259,69.5446833 C33.2244414,69.5886797 33.3699036,69.6315853 33.5175262,69.6654008 L33.6003389,69.6824903 L33.6935931,69.7028523 L33.8059303,69.7279412 C33.8703802,69.7435763 33.9351901,69.7523028 34,69.7592114 L33.9906386,69.7908452 C33.9143069,70.2329913 33.8311342,70.6922269 33.7072752,71.1707337 C33.6539871,71.3725356 33.5963783,71.5685197 33.5344488,71.7641403 L33.313375,71.7488688 L33.2518056,71.7463235 C33.0231706,71.7361425 32.7866144,71.7252343 32.5565392,71.6979638 L32.5406968,71.6557854 C32.5144128,71.5928814 32.4917293,71.5390676 32.4607646,71.487799 C32.4056762,71.3925339 32.3034205,71.2976325 32.1475167,71.1983678 C32.0726252,71.1500081 31.9736101,71.1252828 31.8529916,71.1252828 C31.8007836,71.1252828 31.7485757,71.1311005 31.7006883,71.1369182 C31.613195,71.1503717 31.5267817,71.1674612 31.4392884,71.1849144 L31.2988669,71.0245637 C31.2164143,70.9216629 31.1184793,70.8380333 31.0421476,70.7769473 C30.9550143,70.7067712 30.8592396,70.6336862 30.7533835,70.5733274 C30.6601292,70.5184228 30.5564333,70.4773352 30.4646193,70.4413381 L30.4156518,70.4227941 C30.3810865,70.4082498 30.3429207,70.4009777 30.298994,70.4009777 C30.2190617,70.4009777 30.1261675,70.4271574 30.050916,70.4711538 C29.9450598,70.5326034 29.8654877,70.6362314 29.8327227,70.7558581 C29.7988775,70.8798481 29.8165202,71.0140191 29.88061,71.1238284 C29.9385788,71.2260019 30.0253521,71.2936328 30.1628931,71.3427198 L30.2428254,71.3725356 C30.3562427,71.4270766 30.4667796,71.4925259 30.5906386,71.5783371 C30.6493275,71.6288785 30.7083766,71.6830559 30.7674256,71.7383242 C30.8228741,71.7906836 30.8761622,71.8423158 30.9409721,71.8877666 C31.0047019,71.9324903 31.070952,71.9575792 31.1390024,71.9819409 C31.1588055,71.9863041 31.1775283,71.989213 31.1958911,71.9906674 C31.2254157,72.0001212 31.2560203,72.0048481 31.2891454,72.0048481 C31.3118289,72.0048481 31.3345123,72.0019392 31.3575559,71.9961215 C31.4338875,71.9877586 31.4968972,71.9739415 31.573949,71.9477618 C31.7010484,71.9066742 31.7867415,71.8790401 31.8738748,71.8572237 L31.934004,71.8964932 C31.9851318,71.9750323 32.0344594,72.0488445 32.0935084,72.1172027 C32.1828021,72.218649 32.3153023,72.2531917 32.411077,72.2648271 C32.4888489,72.2717356 32.5659007,72.2739173 32.6433125,72.2760989 L32.6897596,72.2775533 L32.7740125,72.2790078 C32.9057927,72.2830074 33.0364926,72.2877343 33.1668326,72.2928248 L33.3609023,72.300097 C33.3184158,72.3891807 33.2903315,72.4586296 33.2615271,72.5291694 L33.2449645,72.5709842 L33.2168802,72.643342 L33.1635921,72.7622414 C33.1099439,72.882959 33.0566557,73.0025856 32.9976067,73.1171218 C32.9727629,73.1636635 32.9500794,73.2105688 32.9263158,73.2578378 L32.9090331,73.2934712 C32.8456635,73.4240061 32.7808535,73.5559955 32.7063221,73.6781674 C32.6685164,73.7392534 32.6317907,73.8003394 32.5950651,73.8628798 C32.5219739,73.9865061 32.4492428,74.1097689 32.3678704,74.2261231 L32.1853225,74.4817388 L32.0935084,74.6097285 L31.9923329,74.7518988 C31.5905115,75.258767 31.1876099,75.6783694 30.7609446,76.0350679 L30.6745314,76.0994263 L30.7292598,76.0034341 C30.8124325,75.8419926 30.8855237,75.6812783 30.946373,75.5263817 C31.0126231,75.3598497 31.0673515,75.20968 31.0687917,75.0576923 C31.0687917,74.8188025 30.9456529,74.5951842 30.7483427,74.4737395 C30.6860532,74.4366516 30.6212432,74.4068358 30.5546331,74.37702 L30.4437361,74.3257515 C30.3965689,74.1926713 30.3573229,74.0875889 30.3108758,73.9839609 C30.2705496,73.8956044 30.1938579,73.8137928 30.1265276,73.7417986 L30.0779202,73.6901665 L30.0199513,73.6319893 L29.9641428,73.5738122 C29.9475802,73.5447237 29.9306576,73.5134535 29.9151753,73.4810924 C29.8777295,73.3872818 29.8377634,73.2963801 29.7898761,73.2069328 C29.7103039,73.0527634 29.5367574,72.9534987 29.3480885,72.9534987 C29.3074023,72.9534987 29.2616753,72.95968 29.2166684,72.9720427 C29.0920894,73.0047673 28.9811924,73.0905785 28.913142,73.2065692 C28.8494123,73.3181965 28.8339299,73.4396412 28.8620142,73.6010827 C28.887218,73.7425259 28.9372657,73.8894231 29.0200784,74.0635908 C29.0931695,74.2213963 29.2159483,74.353022 29.3243249,74.4693762 L29.383734,74.533371 C29.3984962,74.5580963 29.4125384,74.5864577 29.4265805,74.6162734 L29.4503442,74.6686328 L29.4654665,74.7209922 C29.48815,74.779533 29.5101133,74.8377101 29.5360373,74.884979 C29.5806841,74.9696994 29.638653,75.0424208 29.6941015,75.1096881 C29.7290268,75.1511393 29.7797946,75.1900452 29.8496452,75.2285876 C29.7711532,75.3827569 29.690861,75.5463801 29.6105687,75.7081852 L29.5320767,75.8699903 C29.4539447,76.0274321 29.435942,76.1677844 29.475188,76.3114092 C29.5122736,76.4535795 29.6073282,76.5782967 29.7358678,76.6531997 C29.762872,76.6699257 29.7934766,76.6844699 29.8294822,76.696469 L29.7700731,76.7281028 C29.6638568,76.7910068 29.5630414,76.8470023 29.4633062,76.9022705 L29.2955205,76.9960811 C29.0186381,77.1549774 28.7197924,77.3058743 28.3817007,77.4574984 C27.7786085,77.7036603 27.1996399,77.8680107 26.6102298,77.9600032 C26.4568463,77.9770928 26.3027428,77.9912734 26.1486392,78 C26.1684422,77.9861829 26.1785238,77.9658209 26.186805,77.9483678 C26.3081436,77.6829347 26.2559356,77.4007757 26.2051678,77.1280705 C26.1968866,77.0404412 26.1954464,76.9880818 26.1983268,76.9342679 C26.2220904,76.8135504 26.2616965,76.6870152 26.3178651,76.5477537 L26.3992375,76.3586781 C26.4698083,76.1997818 26.5385788,76.0394312 26.6033888,75.875808 C26.6815207,75.6780058 26.7214868,75.5158371 26.7326485,75.3493051 C26.7340887,75.2907644 26.722567,75.2216791 26.6977232,75.1431399 C26.6642381,75.0467841 26.6318331,75.0020604 26.5673832,74.9177036 C26.5349783,74.8777069 26.4982527,74.8435278 26.4615271,74.8108032 C26.4485651,74.7755333 26.4402838,74.7442631 26.4330827,74.7133565 C26.539299,74.541734 26.5148152,74.320661 26.3729535,74.1773998 C26.2915811,74.0963154 26.1778037,74.0497738 26.0611458,74.0497738 C25.9466483,74.0497738 25.8379117,74.0963154 25.7633803,74.1773998 C25.6974902,74.2464851 25.6413216,74.3082983 25.617918,74.3602941 C25.5855131,74.4301067 25.5541883,74.4984648 25.5343853,74.5737314 C25.4980197,74.7246283 25.5401461,74.8784341 25.5808324,74.9951519 C25.6355607,75.1525937 25.6935296,75.262403 25.7741819,75.3627586 C25.7925447,75.3867566 25.813788,75.4082094 25.8350312,75.4282078 C25.7932649,75.5641968 25.7345759,75.7052763 25.6780472,75.8412654 L25.63052,75.9583468 L25.598115,76.0350679 C25.5343853,76.1856012 25.4724558,76.3350436 25.4245685,76.4899402 C25.3777613,76.6382919 25.3514773,76.8033694 25.3475167,76.9808096 C25.3460765,77.1309793 25.3849624,77.2782401 25.4227682,77.4207741 L25.4429313,77.4974952 L25.4472519,77.5876697 L25.3669597,77.6469376 C25.2740654,77.7160229 25.2110558,77.780745 25.1829715,77.8887363 C25.1739701,77.9192793 25.1689294,77.9534583 25.1674891,77.9930915 L25.009425,77.9727295 L24.5917611,77.938914 L24.2673515,77.8876454 L23.9944297,77.843649 C23.8554485,77.8225598 23.7164672,77.7872899 23.577846,77.75202 L23.4831515,77.728022 C23.4230223,77.7127505 23.3628931,77.697479 23.3024039,77.6847527 C23.1598221,77.6509373 23.0172403,77.6018504 22.8793392,77.5545814 C22.7878852,77.5229476 22.7191147,77.498586 22.6499841,77.4774968 C22.5084825,77.4320459 22.3677009,77.376414 22.2272795,77.3211458 L22.0569734,77.2546057 L21.871185,77.1731577 L21.9053902,77.1651584 C21.9853225,77.1338882 22.0616541,77.0953458 22.1322249,77.0506222 C22.2128773,77.0018988 22.2938897,76.9328135 22.3720216,76.8455478 C22.4703166,76.7361021 22.5092026,76.5804783 22.472477,76.4401261 C22.4418723,76.3274079 22.387864,76.2179622 22.3399767,76.1216063 L22.3230541,76.0874273 L22.2737266,75.9867081 C22.2600445,75.9499838 22.2474426,75.9143504 22.2362808,75.8761716 C22.250323,75.8143584 22.270126,75.7507272 22.2938897,75.6867324 C22.3997458,75.4485698 22.531526,75.2173158 22.6593455,74.9936975 L22.6777084,74.9617001 L22.7029122,74.9177036 C22.7562004,74.8282563 22.8069681,74.7359001 22.8548554,74.6431803 C22.9038229,74.5482789 22.9560309,74.4326519 22.9704331,74.2981173 C22.9866356,74.1424935 22.9283067,74.011595 22.8829397,73.9268746 L22.8876205,73.8763332 L22.8973419,73.8316096 C22.9794345,73.7694328 23.0294822,73.6668956 23.0294822,73.5592679 C23.0294822,73.3701923 22.8728582,73.2105688 22.6870698,73.2105688 C22.6287409,73.2105688 22.5891348,73.2145685 22.5470084,73.2247495 C22.4807582,73.241839 22.3986657,73.2901988 22.3471778,73.3421946 C22.2704861,73.4196429 22.2146775,73.5352699 22.1815525,73.6861668 C22.1531081,73.8279735 22.1491475,73.9541451 22.1685905,74.072681 C22.1804723,74.1435844 22.197755,74.1955802 22.224399,74.237395 L22.2607646,74.2941176 C22.2474426,74.3282967 22.2348406,74.3664754 22.2207985,74.4046542 C22.1408663,74.5890029 22.0508525,74.7678975 21.9608387,74.9453378 L21.9089908,75.0489657 C21.8344594,75.199499 21.766769,75.3518504 21.7048396,75.5082014 C21.6763952,75.5780139 21.6594726,75.6503717 21.6439903,75.7260019 C21.6299481,75.8041774 21.6166261,75.9048966 21.6414699,75.9903442 C21.675315,76.1310601 21.7430054,76.2626858 21.8078153,76.3899483 L21.8737054,76.5179379 C21.7869321,76.5772059 21.7199619,76.6121122 21.6475908,76.6452004 L21.2972572,76.791734 L21.1946415,76.834276 C21.112549,76.7819166 21.0268559,76.7262847 20.9408027,76.6695621 C20.667881,76.4866677 20.4007201,76.2961377 20.1335593,76.1045168 L19.8872816,75.9030785 L19.7781849,75.8121768 C19.6816901,75.7343649 19.5913163,75.6485537 19.5005824,75.5620152 L19.3533199,75.4216629 C19.3039924,75.3765756 19.2579053,75.3296703 19.2118183,75.282765 L19.1848141,75.2554945 L19.2399026,75.240223 L19.2960712,75.2173158 C19.4685375,75.144958 19.6597268,75.0642372 19.6878111,74.8551632 C19.7036535,74.7377182 19.6917717,74.6239092 19.6510855,74.5068277 L19.6356031,74.466831 L19.6204808,74.426107 C19.6071587,74.3890191 19.5934766,74.3522948 19.5823149,74.3137524 C19.6010378,74.249394 19.6212009,74.2152149 19.6424441,74.1835811 C19.6755692,74.1483112 19.7104945,74.1144958 19.7486604,74.0817712 C19.889802,73.977416 20.0392248,73.8806965 20.1875675,73.7847043 L20.2376152,73.7527069 C20.3593138,73.6763494 20.4745314,73.6039916 20.5782273,73.5181803 C20.6848036,73.4272786 20.7607752,73.3174693 20.7917399,73.2080236 C20.8086625,73.1502101 20.8144234,73.0905785 20.818384,73.0338559 L20.8129832,72.9836781 C20.8086625,72.9593164 20.8057821,72.9353184 20.8029016,72.9113203 L20.798941,72.8673239 C20.8270253,72.748788 20.8623107,72.6277069 20.9112782,72.4997172 L20.9476438,72.4233597 C20.9728476,72.3735456 20.9969713,72.3237314 21.0207349,72.2724628 C21.138833,72.1408371 21.1604363,71.9426713 21.0725829,71.7917744 C21.001292,71.6685116 20.8648311,71.5885181 20.7251297,71.5885181 C20.6905644,71.5885181 20.6545589,71.5943358 20.6214339,71.6056076 C20.4864132,71.6496041 20.3056656,71.7441419 20.2113311,71.9426713 C20.1663243,72.033573 20.125278,72.1306561 20.0943132,72.2273756 C20.0701896,72.3055511 20.0478661,72.3822721 20.0295033,72.4619021 C20.0111405,72.5357143 19.9956582,72.6113445 19.9844965,72.6851568 C19.9733347,72.7666047 19.9646934,72.8404169 19.9675739,72.9215013 C19.9675739,72.9574984 19.9733347,72.9916774 19.9801758,73.0287654 C19.9297681,73.0749434 19.8725193,73.1203943 19.8141904,73.166936 L19.7735042,73.2000242 L19.6791698,73.2709276 L19.5851954,73.341831 L19.4429736,73.4498222 C19.3893254,73.4912734 19.3360373,73.532361 19.2841893,73.574903 C19.2204596,73.6272624 19.1700519,73.6919845 19.1203643,73.7588882 C19.0429525,73.8643342 18.9882241,73.9694166 18.9619401,74.0625 C18.9262946,74.1857628 18.9234142,74.3068439 18.9536588,74.4675582 C18.9648205,74.5206448 18.9907445,74.5726406 19.0159483,74.6235456 L19.0411522,74.675905 L19.0634756,74.7173562 C18.9795828,74.7577165 18.8924494,74.7988041 18.8053161,74.8398917 C18.6710156,74.7075388 18.5334745,74.5544602 18.3887324,74.3722931 C18.151096,74.0508646 17.9246214,73.6774402 17.6761834,73.1967518 C17.581849,73.012403 17.5008366,72.8233274 17.4108228,72.6135262 L17.3769777,72.5240789 C17.3107275,72.3491839 17.2448374,72.1746526 17.1883088,71.9972123 L17.1238589,71.7870475 L17.0576088,71.5754282 C17.0367256,71.5074337 17.0183628,71.4390756 17,71.3696267 L17.0453669,71.3598093 L17.1681457,71.312904 C17.3226093,71.2561813 17.477433,71.1994586 17.6336969,71.1438268 C17.9134597,71.0431076 18.1946627,70.9434793 18.4762258,70.845669 L18.5943238,70.8045814 L18.7307847,70.7569489 C19.2615059,70.5726002 19.791867,70.3886151 20.3251085,70.2079024 C20.8846341,70.0191904 21.4740443,69.8646574 21.9943238,69.7283048 L22.0663349,69.7093972 C22.3695012,69.6304945 22.6744679,69.5570459 22.9790744,69.4879606 C22.9283067,69.5275937 22.9009425,69.5610456 22.8753786,69.6003151 C22.8498147,69.6534017 22.8282114,69.7075792 22.812729,69.7646655 C22.7983268,69.8082983 22.7911257,69.8577489 22.7839246,69.905745 L22.7720428,69.9922835 C22.7551202,70.0933662 22.7453987,70.1940853 22.7371174,70.2951681 C22.7241555,70.4453378 22.7299163,70.6111425 22.75368,70.8169441 L22.7691623,70.9292986 C22.7778037,70.9987476 22.7860849,71.0685601 22.7961665,71.1383727 C22.8105687,71.2347285 22.8285714,71.3056319 22.8595362,71.3816257 C22.9131844,71.5259777 22.9913163,71.6317873 23.0878111,71.7546865 C23.2059091,71.9004929 23.3805358,72.023392 23.5202372,72.1219295 L23.5681245,72.1561086 C23.7013449,72.2528281 23.8568887,72.3386393 24.0570793,72.4262686 C24.4124537,72.5826196 24.8250768,72.6833387 25.356158,72.7433339 C25.4663349,72.7546057 25.5757916,72.7604234 25.6856084,72.7604234 M30.6721611,63.3485264 C30.7918567,63.3485264 30.9041593,63.3036326 30.9731602,63.2282385 C31.0291355,63.1672378 31.0759576,63.0966415 31.124892,63 C31.1646731,63.0222755 31.2160718,63.0349554 31.2727512,63.0394106 C31.3033792,63.0956134 31.348089,63.1483893 31.4026561,63.1949966 L31.5103821,63.2847841 C31.6230367,63.3797121 31.7349873,63.4736121 31.8596115,63.5555175 L31.9821234,63.6343386 L32.1042833,63.7121316 C32.3598685,63.9232351 32.594683,64.152159 32.80239,64.3927347 C33.0164339,64.6830021 33.2033702,65.0027416 33.3741124,65.3704592 C33.6321619,66.0140507 33.8261391,66.7429746 33.9497072,67.5370117 C33.9873761,67.8348184 34.0035702,68.1336532 33.9993456,68.4506511 L33.9993456,68.584647 L33.9993456,68.6737491 C33.9641411,68.6473612 33.9314008,68.6319397 33.8969003,68.6175463 C33.725102,68.5438657 33.5427423,68.4753256 33.3396119,68.4088417 C33.117823,68.3344757 32.863646,68.2758739 32.5390598,68.2237834 C31.9222756,68.1267992 31.2583173,68.0301576 30.5845017,67.982865 C30.0652342,67.9475668 29.5280124,67.9307745 28.9422082,67.9307745 C28.8499722,67.9307745 28.7566801,67.9307745 28.6644441,67.9318026 C27.9526076,67.9372858 27.4009519,67.95305 26.8753475,67.982865 C25.4034442,68.0671693 24.1357274,68.2587389 22.9989716,68.5678547 C21.7551939,68.905072 20.5522535,69.3505826 19.4232428,69.8920493 C19.2810163,69.959904 19.1384378,70.0253598 18.9962113,70.0911583 L18.8152597,70.1744345 C18.6047364,70.2710761 18.3945651,70.3673749 18.1854499,70.4677862 L18.10976,70.5037697 C17.9090939,70.6004112 17.7084279,70.6967101 17.5088179,70.7971213 L17.3162489,70.8934202 L17.1053735,71 L17.0962203,70.8721727 C17.0416532,70.3296779 16.9930709,69.7991775 17.0008159,69.2741604 C17.0106731,68.6069225 17.0416532,68.067512 17.0983325,67.5771076 C17.147619,67.3019191 17.2141556,66.9982865 17.301815,66.6497601 C17.3746885,66.3642906 17.4813583,66.0822481 17.5841557,65.8094585 C17.7534897,65.4516792 17.9031092,65.1651816 18.101663,64.8879369 C18.1234898,64.8642906 18.1467248,64.8389308 18.171368,64.8163125 C18.2435374,64.7686772 18.3245079,64.7261823 18.4178001,64.6867718 C18.5033472,64.652159 18.5663634,64.5771076 18.5959352,64.476011 L18.7793511,64.5010281 C19.0497222,64.5291295 19.3141086,64.5562029 19.5799031,64.5668266 L19.7133285,64.5705963 C20.0090469,64.5815627 20.3047654,64.5921864 20.6004838,64.5976696 C20.7817874,64.6381083 20.9750605,64.6830021 21.1588284,64.7484578 C21.2552889,64.7902673 21.3429483,64.8265936 21.4383527,64.8464702 C21.5168589,64.8625771 21.5995897,64.8704592 21.6854889,64.8704592 C21.8344042,64.8704592 21.9903605,64.8474983 22.1607506,64.7995202 C22.2582673,64.7727896 22.3582483,64.7481151 22.4568211,64.7237834 C22.6201704,64.6843729 22.7521875,64.652159 22.8842047,64.6120631 C22.9693998,64.588074 23.0531867,64.5623715 23.1373256,64.5356408 C23.2707509,64.5277587 23.4062886,64.5185058 23.5421782,64.5092529 C23.6073067,64.5527759 23.6815883,64.5760795 23.7562221,64.5760795 C23.8491621,64.5723098 23.9192192,64.5620288 23.9906845,64.5517478 C24.0596855,64.5442084 24.1124924,64.5185058 24.163539,64.4934887 C24.1885343,64.4808088 24.209305,64.4712132 24.2293716,64.4619602 L24.3346332,64.4420836 C24.8693908,64.388965 25.4449856,64.3262509 26.0300856,64.2292666 L26.148373,64.20939 C26.1758326,64.2957505 26.2381447,64.3687457 26.324748,64.4177519 C26.3905805,64.4561343 26.4764797,64.4784099 26.5602666,64.4784099 C26.6408851,64.4784099 26.7137585,64.4571624 26.771494,64.4174092 C26.8320459,64.3762851 26.8908375,64.3334476 26.948221,64.2895819 C26.9820174,64.3543523 27.0313038,64.4006169 27.0950241,64.4362577 C27.163321,64.4763537 27.2478119,64.4982865 27.3333591,64.4982865 C27.4182021,64.4982865 27.4967083,64.4770391 27.5607806,64.4362577 C27.7589824,64.3132282 27.9395819,64.1641535 28.1138445,64.0195339 L28.1853098,63.9619602 C28.2602956,64.0438657 28.3750625,64.0911583 28.5116562,64.0993831 C28.6264232,64.0993831 28.7080978,64.0805346 28.7830835,64.0373544 C28.8538447,63.9982865 28.9027791,63.9468814 28.9408,63.901645 L29.0604956,63.7676491 L29.2322939,63.5750514 C29.2717231,63.5908156 29.3217136,63.5986977 29.3727602,63.5986977 C29.5002008,63.5986977 29.6149677,63.5520905 29.6874891,63.4705278 C29.7082598,63.4479095 29.7286785,63.4235778 29.748041,63.3992461 C29.8152817,63.4557916 29.90963,63.4876628 30.0011619,63.4876628 C30.0384787,63.4876628 30.0764997,63.4814942 30.1138165,63.4688143 C30.2486501,63.425634 30.3310288,63.3663468 30.3891163,63.2703907 C30.4141116,63.2793009 30.4433314,63.2909527 30.4721991,63.3029472 C30.501771,63.314599 30.5309908,63.3262509 30.5602106,63.3337903 C30.5975274,63.3433859 30.6351963,63.3485264 30.6721611,63.3485264 M34.3258945,59 C34.2759862,59 34.2228695,59.0073614 34.1679703,59.0220842 C34.1202009,59.0354049 34.0784918,59.052231 34.0399911,59.0743152 C33.9850919,59.0462717 33.9162897,59.0315489 33.8442792,59.0315489 C33.7469579,59.0315489 33.6503496,59.0553858 33.563723,59.1006059 C33.4432301,59.161951 33.3355707,59.2495869 33.23718,59.3347689 C33.1398587,59.4227553 33.0464588,59.5131955 32.9534154,59.6050378 C32.8767705,59.6818068 32.8040469,59.7610296 32.7327493,59.8434073 C32.681415,59.9033502 32.6464792,59.9492714 32.6225945,60.007111 C32.5908671,60.0607442 32.5748251,60.11613 32.5733991,60.1753718 L32.5256297,60.2240974 C32.4482718,60.3082278 32.398007,60.3814913 32.3677055,60.4537032 L32.3259964,60.403225 C32.234379,60.3131354 32.1071127,60.2612549 31.9766381,60.2612549 C31.8864466,60.2612549 31.8026719,60.2833392 31.7270964,60.3275076 C31.6108813,60.394812 31.5559822,60.4849016 31.5000135,60.6181081 C31.4554525,60.7201162 31.4483228,60.8336922 31.4468968,60.9314938 C31.3420893,60.969703 31.2561757,61.0468226 31.2133971,61.139366 C31.2002071,61.1330562 31.1784613,61.1320046 31.1634888,61.1320046 C30.9674203,61.1320046 30.7902458,61.2557464 30.7228695,61.4397817 L30.6890032,61.4331213 L30.6886467,61.4331213 C30.6465811,61.4331213 30.6062979,61.43873 30.5649453,61.4499474 C30.5196713,61.4622164 30.4804576,61.4797436 30.4440958,61.5035805 C30.3332281,61.5239121 30.2230732,61.5459963 30.1175528,61.5870099 C29.9902865,61.6364365 29.8230936,61.7047924 29.6633869,61.7896239 C29.543607,61.8068005 29.4241834,61.8565777 29.3090378,61.9046021 L29.1874754,61.9554309 C29.0217084,62.0209825 28.8573674,62.0949472 28.6958783,62.170314 L28.6249372,62.2032651 L28.4830549,62.2660123 L28.3422421,62.3305123 L28.137618,62.4248085 L28.0641814,62.4454905 L28.003222,62.461966 C27.9622258,62.4731834 27.9212297,62.4844008 27.8805901,62.4945666 L27.613224,62.5629225 L27.2734909,62.6519605 L27.0046988,62.720667 L26.7330549,62.7918273 L26.5590887,62.8370474 C26.3747844,62.8847213 26.191193,62.9327458 26.0086711,62.9888327 L25.4646703,63.0985528 C25.1609425,63.1602484 24.8575711,63.2215935 24.5566952,63.2917021 L24.4479663,63.3190445 L24.3367421,63.3463869 C24.2953894,63.3074766 24.2369254,63.2776804 24.1713316,63.2601532 C24.1185713,63.2454304 24.0593943,63.2433272 24.0030692,63.2433272 L23.9570822,63.2433272 L23.9139472,63.2433272 C23.6626231,63.246482 23.411299,63.2797837 23.1895634,63.3092293 L23.1492803,63.3172918 C23.1492803,63.3172918 23.1139879,63.3221994 23.1136314,63.3221994 C22.8462654,63.3600581 22.5999321,63.4157945 22.4120629,63.4599629 C22.2698242,63.4936151 22.1315068,63.5479493 22.0270558,63.5917672 C21.9311605,63.6306776 21.8188667,63.6790525 21.7147722,63.7396965 L21.4520405,63.7446041 L21.0912746,63.7530172 L20.7148232,63.6446993 L20.600747,63.6120988 L20.3251817,63.5339276 C20.2203742,63.505183 20.1116453,63.4901097 20.0050554,63.4753868 L19.8998914,63.4610146 C19.7088138,63.4350744 19.5180927,63.4185988 19.3259456,63.407732 C19.0628574,63.3912564 18.8022646,63.3709249 18.5406024,63.3421804 C18.3680621,63.3158896 18.1983738,63.2888978 18.0258336,63.2573489 C17.8108713,63.218088 17.6308448,63.1798788 17.4522442,63.1216886 C17.3592009,63.0771696 17.2682964,63.0291452 17.175966,62.9807702 L17.1396042,62.9618409 L17.0604638,62.9208273 C16.8512053,62.8111072 16.6294698,62.7213681 16.4597814,62.6551154 C16.2576527,62.5720367 16.0726354,62.5071861 15.8940348,62.4563574 L15.8494738,62.4440883 C15.7075916,62.4055286 15.5653528,62.3673193 15.4291744,62.3168411 C15.3404089,62.2772297 15.2527128,62.2320096 15.1664427,62.1829335 L15.0897977,62.1377135 C14.9596796,62.0598928 14.7974775,61.9631429 14.63278,61.9631429 C14.6156686,61.9631429 14.5999831,61.9641945 14.5832282,61.9655967 C14.4759253,61.9659472 14.3775346,61.9925885 14.2884125,62.0444689 C14.1593638,62.118083 14.0616861,62.2421754 14.02069,62.3848465 C13.9789809,62.5348791 14.0007267,62.6912214 14.0823624,62.8244279 C14.1586509,62.9905854 14.3319041,63.0911913 14.4848375,63.1802294 C14.5586305,63.2240473 14.6309976,63.266463 14.7062166,63.3074766 C14.724041,63.351645 14.7546989,63.3937103 14.8003294,63.4385798 C14.8235011,63.4666233 14.8495248,63.4901097 14.8812522,63.5114928 C15.1446969,63.7277781 15.4569805,63.8637889 15.7592824,63.9948921 C16.0049026,64.1035605 16.2654954,64.200661 16.533931,64.2840903 C16.7631528,64.3556012 17.0216066,64.4362262 17.2836254,64.4909109 C17.4255076,64.5210576 17.5666769,64.5512044 17.7082027,64.5781962 C17.655086,64.621313 17.6240715,64.6560168 17.59377,64.6921228 C17.4868236,64.8162151 17.4005535,64.952927 17.3246215,65.0731634 L17.2879032,65.1320547 C17.1485164,65.3511443 17.042283,65.5404377 16.9634991,65.7101007 C16.7977321,66.0645 16.650859,66.3852471 16.5300096,66.723872 L16.4341143,66.9867795 C16.3446358,67.2240974 16.2590786,67.4568581 16.2013276,67.6938254 C16.1310994,67.9781161 16.0516026,68.3093795 16.0024072,68.6459011 L15.9870782,68.7510641 C15.9396653,69.0763684 15.8908265,69.41289 15.8701501,69.7455556 C15.8462654,70.1090691 15.8394922,70.4568081 15.8476914,70.808403 C15.8658723,71.4036256 15.9186325,71.9213781 16.0091805,72.3921578 C16.0925987,72.8159647 16.2305596,73.2278532 16.3670945,73.6095949 C16.4979257,73.9755621 16.6433728,74.3152386 16.7991581,74.6195102 C16.9207205,74.8557765 17.0319448,75.0692573 17.1642019,75.2848415 C17.3927107,75.6599229 17.6928737,76.0434173 18.1085388,76.4917622 C18.6446969,77.0680555 19.224703,77.577395 19.8332281,78.0054084 L19.868164,78.0313486 C20.2439024,78.2946066 20.6324744,78.5669788 21.0506349,78.7836146 C21.4513275,78.9911363 21.8890949,79.1569433 22.2680417,79.2957584 L22.334705,79.320647 C22.4494942,79.3644649 22.5621444,79.4068807 22.6790725,79.4422855 C22.7375365,79.4615654 22.7960006,79.4808453 22.8544646,79.5011768 C22.9785225,79.5435926 23.1057887,79.5860083 23.232342,79.6151034 L23.7043322,79.7244729 L23.814487,79.7493615 C23.9282067,79.7760028 24.0422829,79.7942311 24.1563591,79.8121088 L24.1987812,79.8191196 L24.3032322,79.8355952 C24.7363652,79.9043017 25.1730631,79.9442636 25.548445,79.9765136 C25.7366707,79.991587 25.9302438,80 26.1252428,80 C26.8524784,80 27.6039553,79.8888778 28.3586406,79.6697882 C28.9963977,79.4843507 29.6694472,79.1902449 30.4772492,78.7440032 C30.7834725,78.5764435 31.0804271,78.4102859 31.352071,78.2150333 L31.829765,77.8739546 C32.1805493,77.6236667 32.5160046,77.3292103 32.8568072,76.9741099 C33.0952977,76.7231208 33.3316493,76.441284 33.5794085,76.1124743 L33.6909893,75.9687516 C33.7843892,75.8495668 33.8621036,75.749662 33.9309058,75.6423957 L34.252458,75.1509339 C34.311635,75.0601432 34.3633258,74.9640943 34.4146601,74.8673444 C34.4570822,74.7849667 34.4848882,74.7330863 34.5130508,74.6808553 C34.6973551,74.3478392 34.8538534,73.9913366 34.9825456,73.6867144 C35.2595368,73.0347038 35.4420587,72.494166 35.5561349,71.985177 C35.6367012,71.6416445 35.7047904,71.3131854 35.7650369,70.9815714 C35.8110239,70.7211177 35.8459597,70.4596124 35.8805391,70.1967049 L35.9183268,69.9281887 L35.8940856,70.0256397 L35.8940856,70.0249387 L35.9140489,69.9281887 L35.9040673,69.9642947 C35.9197528,69.8654414 35.9315169,69.7585257 35.941855,69.6512595 C35.9960412,69.1321048 36.0124397,68.6143522 35.9906939,68.1120236 C35.9728695,67.7467575 35.9129795,67.3797386 35.8552284,67.0246382 L35.8249269,66.8381491 C35.7889216,66.614853 35.7422217,66.3940107 35.6858966,66.181932 C35.5771677,65.7700436 35.4566747,65.332916 35.2805696,64.9108618 C34.9600868,64.1421203 34.5579683,63.5195553 34.0503293,63.007762 L33.9597813,62.9173218 C33.9719019,62.914167 33.9833095,62.8997947 33.9943606,62.886474 C34.028227,62.8973409 34.0688666,62.902599 34.1087933,62.902599 C34.1522849,62.902599 34.1972024,62.8962892 34.2421199,62.8833191 C34.4563692,62.8268817 34.6050247,62.6358355 34.6121545,62.4076318 C34.6150064,62.3157895 34.6164323,62.2256998 34.6178583,62.1338575 C34.6691926,62.0511293 34.6887994,61.9817217 34.6873735,61.8884771 C34.6873735,61.8502679 34.6852345,61.8110071 34.6827391,61.7720967 L34.6802437,61.7352897 C34.7251612,61.692874 34.7554627,61.6357354 34.7665138,61.5729881 C34.7893291,61.4471431 34.7807733,61.3163904 34.7722176,61.1898443 C34.7679398,61.1176323 34.7640184,61.0450699 34.7654444,60.9739096 C34.7665138,60.7835645 34.7779214,60.59357 34.7932504,60.4018228 C34.8153527,60.2461816 34.8392374,60.0859833 34.8723908,59.9327958 C35.0078562,59.8938855 35.0805798,59.7620812 35.0549127,59.6001302 C35.0481394,59.5507036 35.0395837,59.4998748 35.0313845,59.4507987 C35.0146295,59.3582553 34.9255075,59.2755271 34.8139267,59.2492363 C34.7048414,59.0935951 34.52125,59 34.3258945,59" id="Fill-45" fill="#161616"></path>
            <path d="M39.4711393,95 C39.3416402,95 39.2117804,95.0073668 39.0819206,95.0202586 L38.975147,95.030572 C38.513784,95.0755092 38.0365492,95.1219198 37.6127012,95.3182438 C37.309695,95.4589488 37.0211176,95.6165973 36.7018789,95.7933994 C36.4378307,95.9399978 36.1957864,96.1145899 35.9295738,96.3116505 C35.6446037,96.5201297 35.4050845,96.7175587 35.1976695,96.9146193 C34.7316171,97.3603079 34.2987511,97.8229401 33.8741817,98.327931 C33.6260051,98.6237062 33.3918968,98.943055 33.166085,99.2520903 L33.0935799,99.3504365 C32.9857241,99.4962982 32.8785898,99.6421599 32.7793913,99.7957567 C32.6553031,99.9887657 32.5351828,100.18288 32.4197518,100.382887 L32.2967457,100.599101 C32.1470462,100.860621 31.9977074,101.121772 31.8519759,101.385871 L31.7498917,101.567829 C31.6763044,101.696379 31.6027172,101.825666 31.5392302,101.959004 L31.472136,102.098236 C31.3830377,102.284615 31.2939394,102.470257 31.2095306,102.658109 C30.9909332,102.858853 30.9382679,103.150945 31.0757028,103.389628 C31.1734584,103.560905 31.3732982,103.676194 31.573138,103.676194 C31.6712543,103.676194 31.7643205,103.648201 31.8418757,103.59516 L32.0575872,103.445983 C32.2155833,103.336219 32.372858,103.226454 32.534822,103.121846 C32.7343011,102.994033 32.956145,102.864746 33.2335399,102.714833 C33.6682096,102.477623 34.0981898,102.264356 34.5480098,102.062875 C34.8311763,101.952374 35.1157857,101.844451 35.4003951,101.739475 C35.7603953,101.606505 36.1478104,101.473167 36.5381113,101.398762 C36.9129011,101.353457 37.2887731,101.330252 37.6549056,101.330252 C37.917511,101.330252 38.1804771,101.342038 38.4365895,101.365612 C39.1706581,101.500792 39.9465705,101.740211 40.8786753,102.119231 C41.2924231,102.305241 41.6127439,102.484622 41.8868924,102.684261 C42.2851292,103.012081 42.6797587,103.393311 43.1295786,103.883937 C43.3265327,104.100888 43.5379156,104.304947 43.7583165,104.489852 C44.0757516,104.754687 44.3946296,104.992633 44.8072952,105 L44.8076559,105 C45.0785579,105 45.332506,104.848613 45.4656123,104.613982 C45.485452,104.580832 45.5027666,104.543261 45.5168347,104.504217 C45.6766344,104.451545 45.8187588,104.33515 45.8840494,104.202181 C46.0312239,103.902722 46.0117449,103.627942 45.9691797,103.375631 C45.940322,103.206932 45.8977568,103.042285 45.8551917,102.876533 C45.7935083,102.636745 45.7134281,102.412059 45.6355122,102.19474 L45.5702215,102.01094 C45.348017,101.381819 45.1088585,100.75012 44.9039686,100.215293 C44.7914234,99.9220966 44.6687781,99.6093779 44.5345896,99.3069726 L44.5089784,99.2491436 C44.3881366,98.9743637 44.2633269,98.690007 44.1129059,98.4248039 L44.0858518,98.37692 C43.946974,98.1323437 43.8073747,97.8870308 43.660561,97.6476113 C43.5133865,97.4067185 43.3550297,97.1779808 43.175751,96.9481381 C43.0271337,96.7602858 42.8954703,96.6114774 42.7721034,96.493241 C42.4178747,96.1558437 42.0264917,95.8070279 41.5669323,95.5429298 C41.2292968,95.3480791 40.8458496,95.2022174 40.4256089,95.1093963 C40.1024023,95.0368338 39.7809992,95 39.4711393,95" id="Fill-51" fill="#161616"></path>
            <path d="M60.8411519,81.4410566 C60.8354094,81.2868836 60.8311982,81.1333176 60.8323467,80.9791446 C60.8350266,80.7988715 60.8411519,80.6210263 60.8530197,80.4410566 L60.8648876,80.4744405 C60.8553167,80.6865801 60.8511056,80.8841522 60.8472772,81.0820278 L60.8442146,81.2088867 C60.8423004,81.2859732 60.8415347,81.3636666 60.8411519,81.4410566 M62.0071793,75.4410566 C61.7767135,75.4410566 61.5573498,75.5502889 61.4340774,75.726481 C61.2935775,75.9280367 61.1523119,76.1454868 60.9899904,76.4109585 C60.8632725,76.6165723 60.7445941,76.8532988 60.627447,77.1353414 C60.4949866,77.4532311 60.4276079,77.7890444 60.3793708,78.0754834 C60.3223286,78.4214421 60.3089294,78.7416992 60.3391733,79.0548544 C60.3541038,79.1989193 60.3717142,79.3429842 60.3958327,79.4873874 C60.2587782,79.9899237 60.167281,80.4484966 60.1175126,80.8881314 C60.0834404,81.1968902 60.0459228,81.563478 60.0263982,81.9422402 C60.0175931,82.1052433 60.0309922,82.2699372 60.0443914,82.4288821 C60.0577906,82.6020306 60.0742524,82.7765318 60.1010508,82.9479893 L60.1178955,83.0646616 C60.1404827,83.2219156 60.1634527,83.3849186 60.2105412,83.5404817 C60.2645207,83.7247901 60.330751,83.8881314 60.4126773,84.0403126 L60.4329675,84.078527 C60.4965179,84.198243 60.5604511,84.3182971 60.6278298,84.4353075 C60.7422971,84.6287468 60.8636553,84.76943 61.0087493,84.8790005 C61.0895272,84.9408875 61.1844699,84.9956728 61.3088908,85.0511344 C61.3881374,85.1434577 61.5075815,85.2175192 61.602907,85.2716281 C61.7449383,85.3521151 61.8685935,85.4011513 61.9914831,85.4255003 C62.0454627,85.4359839 62.1009735,85.4410566 62.1618441,85.4410566 C62.25181,85.4410566 62.3406274,85.4298967 62.4294448,85.4160313 C62.5821954,85.3920204 62.7353288,85.3193116 62.8674064,85.2530282 C62.9363165,85.2195483 63.0013982,85.1813339 63.0664799,85.1431195 L63.1085916,85.1184323 C63.3735124,84.9652365 63.5794769,84.8204952 63.7226567,84.6125142 C63.7873556,84.5185 63.8359754,84.4085913 63.8826811,84.3024026 L63.9041198,84.2540428 C63.922113,84.2158283 63.9385748,84.1776139 63.9550367,84.1390614 C63.99332,84.0565453 64.0032737,83.9628693 64.0128445,83.8722369 L64.0178214,83.8265825 C64.0453854,83.5702416 63.9692015,83.3213407 63.8891893,83.0879961 C63.8375068,82.9385203 63.7544319,82.7819427 63.6418788,82.6223214 C63.4615642,82.3693623 63.2751242,82.1076106 63.1128027,81.8299643 C62.9531611,81.5536708 62.8115127,81.2692609 62.7062335,81.0521489 C62.6465114,80.9212731 62.5910005,80.7907353 62.5389352,80.6585067 C62.5014175,80.5668598 62.46122,80.4762274 62.4214053,80.385595 C62.3812077,80.2953008 62.341393,80.2050066 62.3038753,80.1130214 C62.1867283,79.8279352 62.095231,79.5039582 62.0167501,79.0937452 C62.003351,78.9672656 61.9914831,78.8404479 61.9822951,78.7136302 C61.9734899,78.6094706 61.9673646,78.5063255 61.9688959,78.4008131 C61.9688959,78.2533664 61.9857406,78.1069342 62.0110076,77.9320948 C62.109013,77.4106204 62.3237827,76.9019968 62.5316613,76.4102822 L62.6315809,76.1735558 C62.6629733,76.0710871 62.6629733,75.967942 62.6315809,75.8661496 C62.5867894,75.7217465 62.4765333,75.595267 62.3306737,75.5195145 C62.2319026,75.4681111 62.1201152,75.4410566 62.0071793,75.4410566" id="Fill-53" fill="#161616" transform="translate(62.000000, 80.000000) scale(-1, 1) translate(-62.000000, -80.000000) "></path>
        </g>
    </g>
</svg>