<?xml version="1.0" encoding="UTF-8"?>
<svg width="500px" height="600px" viewBox="0 0 500 600" version="1.1" xmlns="http://www.w3.org/2000/svg" xmlns:xlink="http://www.w3.org/1999/xlink">
    <title>smile</title>
    <defs>
        <polygon id="path-1" points="0 0.454 182.161684 0.454 182.161684 198.107401 0 198.107401"></polygon>
    </defs>
    <g id="smile" stroke="none" stroke-width="1" fill="none" fill-rule="evenodd">
        <g id="face" transform="translate(169.000000, 58.000000)">
            <g id="fill" transform="translate(23.062105, 48.386245)">
                <path d="M70.4536953,61.2679548 C70.4536953,73.1259548 63.2996953,82.7399548 54.4746953,82.7399548 C45.6486953,82.7399548 38.4956953,73.1259548 38.4956953,61.2679548 C38.4956953,49.4089548 45.6486953,39.7949548 54.4746953,39.7949548 C63.2996953,39.7949548 70.4536953,49.4089548 70.4536953,61.2679548" id="Fill-1" fill="#FEFEFE"></path>
                <path d="M119.458995,62.2679548 C119.458995,74.1259548 112.304995,83.7399548 103.479995,83.7399548 C94.6549953,83.7399548 87.5009953,74.1259548 87.5009953,62.2679548 C87.5009953,50.4089548 94.6549953,40.7949548 103.479995,40.7949548 C112.304995,40.7949548 119.458995,50.4089548 119.458995,62.2679548" id="Fill-3" fill="#FEFEFE"></path>
                <path d="M15.2143953,53.1848548 C15.1393953,52.7908548 15.0003953,52.4088548 14.8343953,52.0368548 C14.7293953,51.7518548 14.6103953,51.4698548 14.4703953,51.1938548 C13.4293953,49.1308548 11.4253953,47.8068548 9.1553953,47.5338548 C7.0283953,47.2768548 4.7863953,48.0158548 3.2403953,49.5018548 C1.7163953,50.9668548 1.0613953,53.0688548 0.985395305,55.1438548 C-0.0636046952,57.1718548 -0.336604695,59.5858548 0.466395305,61.8028548 C0.604395305,62.1848548 0.853395305,62.4868548 1.1693953,62.6778548 C1.3033953,66.8368548 2.6933953,70.9588548 5.2363953,74.2748548 C6.2203953,75.5578548 7.3873953,76.9928548 9.0053953,77.4608548 C10.2063953,77.8088548 11.6323953,77.4138548 12.4433953,76.4638548 C12.9833953,76.2348548 13.2613953,75.7008548 13.2833953,75.1518548 C13.7693953,74.9648548 14.1453953,74.5388548 14.1243953,73.8308548 C14.0243953,70.3808548 13.9223953,66.9208548 14.2193953,63.4788548 C14.3853953,61.5648548 14.6933953,59.6378548 14.5993953,57.7458548 C14.6053953,57.7348548 14.6133953,57.7268548 14.6183953,57.7158548 C15.0093953,56.8638548 15.2223953,55.9728548 15.2793953,55.0788548 C15.3573953,54.4608548 15.3383953,53.8318548 15.2143953,53.1848548" id="Fill-5" fill="#E4C3A2"></path>
                <path d="M142.122595,50.4309548 C142.000595,50.8019548 141.930595,51.2119548 141.896595,51.6399548 C141.827595,51.1319548 141.759595,50.6239548 141.690595,50.1169548 C141.807595,50.2489548 141.950595,50.3589548 142.122595,50.4309548 M149.944595,49.4639548 C148.667595,45.4389548 144.224595,42.1519548 140.180595,44.8819548 C137.980595,46.3669548 136.930595,48.8879548 137.323595,51.4909548 C137.565595,53.0869548 138.148595,54.6399548 138.618595,56.1809548 C138.729595,56.5429548 138.840595,56.9069548 138.951595,57.2689548 C138.970595,58.7259548 139.057595,60.1789548 139.196595,61.6269548 C139.145595,61.7789548 139.114595,61.9449548 139.117595,62.1319548 C139.160595,65.1659548 139.202595,68.2019548 139.245595,71.2369548 C139.272595,73.2319548 138.991595,76.1769548 141.332595,77.0359548 C143.941595,77.9929548 145.549595,75.3799548 145.973595,73.2219548 C146.513595,70.4679548 146.848595,67.6769548 147.403595,64.9249548 C147.975595,62.0829548 148.981595,59.3969548 149.722595,56.6039548 C150.332595,54.2979548 150.680595,51.7849548 149.944595,49.4639548" id="Fill-7" fill="#E4C3A2"></path>
                <path d="M115.740295,67.6184548 C115.528295,68.9624548 115.215295,70.4454548 114.435295,71.5984548 C114.214295,72.1174548 113.978295,72.6294548 113.724295,73.1244548 C112.344295,75.8124548 110.353295,78.3914548 107.780295,80.0304548 C105.092295,81.7434548 101.700295,81.8804548 99.1142953,79.8884548 C98.7332953,79.5954548 98.4382953,79.2234548 98.2692953,78.8154548 C96.7022953,77.9704548 95.4912953,76.6184548 94.6762953,75.0194548 C93.9882953,74.1394548 93.3922953,73.1844548 92.8882953,72.1794548 C92.8752953,72.1734548 92.8622953,72.1694548 92.8492953,72.1634548 C89.8332953,70.4424548 89.6842953,66.2274548 90.0202953,63.1854548 C90.2542953,61.0794548 90.6542953,58.7194548 91.5442953,56.6594548 C91.4552953,55.0834548 91.9522953,53.4954548 92.6982953,52.0614548 C92.7182953,51.9914548 92.7522953,51.9264548 92.7722953,51.8564548 C92.7432953,51.7844548 92.7092953,51.7144548 92.6892953,51.6424548 C92.5322953,51.0734548 92.6702953,50.6064548 92.8922953,50.0894548 C93.2282953,49.3064548 93.6862953,48.5974548 94.2112953,47.9404548 C94.5702953,47.3674548 94.9402953,46.8004548 95.3442953,46.2564548 C95.6762953,45.8114548 96.0202953,45.5014548 96.5512953,45.3294548 C96.8242953,45.2404548 97.1102953,45.2364548 97.3892953,45.2854548 C98.8542953,44.4744548 100.490295,43.9684548 102.145295,43.8784548 C102.295295,43.8694548 102.438295,43.8824548 102.576295,43.9104548 C104.519295,43.7744548 106.489295,44.1914548 108.195295,45.1514548 C111.235295,46.8624548 112.819295,49.9664548 113.725295,53.2784548 C114.014295,53.5304548 114.239295,53.8644548 114.361295,54.2494548 C115.333295,57.3294548 116.201295,60.4154548 116.119295,63.6764548 C116.086295,64.9974548 115.947295,66.3124548 115.740295,67.6184548 M51.1762953,81.0464548 C50.8342953,80.8754548 50.4942953,80.7534548 50.1602953,80.6694548 C49.4662953,79.7414548 48.7902953,78.8024548 48.1452953,77.8374548 C48.0202953,77.3744548 47.7982953,76.9074548 47.4472953,76.4514548 C46.8912953,75.7294548 46.3892953,75.0034548 45.9192953,74.2584548 C45.3762953,73.3254548 44.8442953,72.3814548 44.3382953,71.4134548 C44.1472953,71.0494548 43.9312953,70.7374548 43.6982953,70.4674548 C42.1062953,65.7144548 43.0752953,60.2794548 44.5132953,55.3374548 C44.9082953,53.9804548 44.6792953,52.8254548 44.1032953,51.9184548 C45.5872953,49.7194548 47.2332953,47.6594548 49.0572953,45.7064548 C52.0652953,43.8504548 55.7262953,43.1044548 59.4282953,42.8724548 C59.6182953,42.9794548 59.8152953,43.0814548 60.0292953,43.1684548 C62.9292953,44.3494548 65.3372953,46.1714548 67.3002953,48.4704548 C67.3522953,48.7024548 67.4182953,48.9394548 67.5142953,49.1854548 C70.1022953,55.8404548 70.8172953,62.8514548 69.4482953,69.6244548 C68.2192953,69.9994548 67.2062953,70.9734548 66.8852953,72.6894548 C65.4872953,80.1474548 58.3782953,84.6304548 51.1762953,81.0464548 M138.546295,75.4254548 C138.556295,75.3454548 138.581295,75.2754548 138.588295,75.1934548 C139.115295,68.5554548 138.762295,62.0474548 137.761295,55.4704548 C137.589295,54.3334548 137.097295,53.5304548 136.442295,53.0014548 C136.356295,48.5024548 136.458295,43.9974548 136.755295,39.4894548 C137.137295,39.2824548 137.521295,39.0754548 137.893295,38.8454548 C142.706295,35.8624548 138.476295,28.3394548 133.657295,30.9034548 C131.912295,30.6774548 129.958295,31.3614548 128.883295,32.9384548 C125.160295,33.8264548 121.206295,33.1984548 118.093295,30.5144548 C114.785295,27.6634548 112.576295,22.4974548 114.275295,18.3094548 C117.772295,16.0454548 115.315295,9.30845476 110.278295,10.2554548 C104.089295,11.4164548 98.6062953,7.75345476 96.1572953,2.22045476 C94.4832953,-1.56354524 89.0022953,-0.0455452445 87.9322953,3.29445476 C87.0952953,5.90845476 83.5782953,3.57945476 82.5472953,2.71445476 C79.0992953,-0.184545245 74.4322953,3.06345476 74.6922953,6.40245476 C73.0472953,9.96645476 69.8592953,12.5344548 65.8412953,13.0224548 C61.5212953,13.5494548 57.5372953,9.80745476 53.3652953,11.2374548 C49.7702953,12.4704548 49.6392953,16.1824548 47.7552953,18.9094548 C45.4122953,22.2984548 40.9572953,24.4214548 36.8432953,23.8524548 C34.5042953,23.5304548 31.9262953,24.3844548 31.3062953,26.9964548 C30.9692953,28.4234548 26.5302953,38.8454548 25.4382953,37.5094548 C22.2962953,33.6654548 17.2012953,37.8134548 18.0942953,41.8804548 C17.8792953,42.3444548 17.7132953,42.8504548 17.6522953,43.4314548 C17.3132953,46.6714548 17.2612953,49.8524548 17.3172953,53.0384548 C15.5292953,59.6774548 14.1652953,65.4334548 15.2552953,72.5224548 C15.4082953,73.5214548 15.5852953,74.5074548 15.7732953,75.4854548 C15.1602953,78.7274548 15.4372953,82.1414548 16.2552953,85.5304548 C16.2692953,85.6394548 16.2822953,85.7474548 16.3032953,85.8584548 C17.7382953,93.0784548 19.7862953,100.610455 25.4122953,105.757455 C26.1492953,106.431455 26.9222953,107.100455 27.7202953,107.764455 C28.0502953,108.528455 28.6332953,109.229455 29.5312953,109.771455 C30.2112953,110.181455 30.8892953,110.592455 31.5682953,111.002455 C34.0482953,114.736455 37.5922953,116.989455 41.6862953,118.788455 C42.3182953,119.650455 43.2872953,120.263455 44.5932953,120.401455 C48.0732953,123.388455 52.4462953,125.568455 57.0932953,127.238455 C57.3852953,127.462455 57.6862953,127.632455 57.9902953,127.777455 C58.1902953,127.955455 58.4062953,128.126455 58.6532953,128.282455 C61.4492953,130.052455 64.6362953,131.888455 67.9642953,133.171455 C67.0332953,133.743455 66.3022953,134.616455 66.0062953,135.736455 C64.7792953,140.364455 66.6922953,144.856455 70.5202953,147.568455 C71.9752953,148.598455 74.2102953,148.227455 75.5182953,147.216455 C75.5992953,147.154455 75.6702953,147.080455 75.7462953,147.013455 C78.5402953,145.602455 79.8592953,141.659455 79.6232953,138.486455 C79.6102953,138.487455 79.5982953,138.489455 79.5862953,138.491455 C79.5622953,138.091455 79.5222953,137.690455 79.4632953,137.290455 C79.3002953,136.200455 78.5732953,135.337455 77.6412953,134.772455 C78.8942953,134.626455 80.0912953,134.295455 81.2462953,133.850455 C81.3762953,133.860455 81.4932953,133.889455 81.6302953,133.889455 C81.7682953,133.889455 81.8922953,133.867455 82.0242953,133.856455 C82.1362953,133.864455 82.2342953,133.889455 82.3512953,133.889455 C83.7552953,133.889455 84.8122953,133.354455 85.5362953,132.553455 C99.8792953,125.954455 113.083295,116.216455 125.157295,106.112455 C130.895295,101.309455 134.162295,95.4484548 136.448295,88.4054548 C137.280295,85.8454548 138.066295,83.1634548 138.268295,80.5534548 C138.824295,79.6604548 139.088295,78.5484548 138.853295,77.2664548 C138.741295,76.6534548 138.650295,76.0384548 138.546295,75.4254548" id="Fill-9" fill="#E4C3A2"></path>
                <path d="M72.0610953,144.934855 L72.0610953,144.934855 C72.3060953,144.978855 72.1260953,144.954855 72.0280953,144.899855 C72.0410953,144.911855 72.0530953,144.922855 72.0610953,144.934855" id="Fill-11" fill="#C3996B"></path>
                <path d="M72.0527953,144.935855 C72.0557953,144.936855 72.0587953,144.936855 72.0617953,144.936855 C72.0617953,144.936855 72.0617953,144.935855 72.0607953,144.934855 C72.0567953,144.934855 72.0547953,144.933855 72.0507953,144.932855 C72.0517953,144.933855 72.0527953,144.934855 72.0527953,144.935855" id="Fill-13" fill="#C3996B"></path>
                <path d="M72.0263953,144.899755 L72.0273953,144.899755 C72.0233953,144.895755 72.0193953,144.891755 72.0143953,144.887755 C72.0173953,144.891755 72.0233953,144.895755 72.0263953,144.899755" id="Fill-15" fill="#C3996B"></path>
                <path d="M72.4282953,145.015955 C72.3442953,144.998955 72.2592953,144.983955 72.1762953,144.960955 C72.1582953,144.955955 72.1112953,144.946955 72.0622953,144.936955 C72.0692953,144.947955 72.0752953,144.957955 72.0752953,144.965955 C72.0752953,144.960955 72.0602953,144.946955 72.0532953,144.935955 C71.9492953,144.914955 71.8552953,144.898955 72.0512953,144.932955 C72.0422953,144.920955 72.0412953,144.914955 72.0262953,144.899955 C72.0252953,144.899955 72.0252953,144.898955 72.0242953,144.898955 C71.7722953,144.754955 71.9192953,144.812955 72.0142953,144.887955 C71.9232953,144.795955 71.7592953,144.662955 71.7202953,144.625955 C71.6852953,144.571955 71.6472953,144.517955 71.6142953,144.462955 C71.5962953,144.433955 71.4942953,144.277955 71.4182953,144.140955 C71.4152953,144.123955 71.4082953,144.097955 71.3912953,144.043955 C71.3582953,143.936955 71.3182953,143.830955 71.2862953,143.721955 C71.2282953,143.526955 71.1802953,143.328955 71.1412953,143.127955 C71.1392953,143.117955 71.1292953,143.070955 71.1182953,143.019955 C71.1172953,142.993955 71.1162953,142.965955 71.1142953,142.922955 C71.0012953,140.658955 71.6092953,138.436955 70.9392953,136.203955 C70.6582953,135.268955 69.6672953,134.578955 68.6872953,134.765955 C68.5362953,134.545955 68.3602953,134.345955 68.1072953,134.198955 C67.6792953,133.947955 67.0472953,133.840955 66.5662953,133.996955 C65.6112953,134.305955 64.7762953,135.407955 65.1702953,136.455955 C65.6212953,137.660955 65.9462953,138.901955 66.1572953,140.167955 C66.1912953,140.994955 66.2522953,141.821955 66.3502953,142.643955 C66.4162953,143.192955 66.5302953,143.651955 66.9362953,144.057955 C67.0462953,144.167955 67.1822953,144.262955 67.3272953,144.349955 C67.7722953,146.402955 69.2002953,148.457955 71.3652953,148.872955 C72.3892953,149.069955 73.5722953,148.586955 73.8252953,147.475955 C74.0502953,146.489955 73.5272953,145.225955 72.4282953,145.015955" id="Fill-17" fill="#C3996B"></path>
                <path d="M15.6962953,53.6634548 C15.6892953,53.3434548 15.6122953,53.0244548 15.4292953,52.7444548 C15.1922953,52.3804548 14.9252953,52.0384548 14.6442953,51.7064548 C13.9642953,50.6514548 13.1492953,49.6764548 12.2222953,48.8494548 C11.8252953,48.4944548 11.3512953,48.2634548 10.8082953,48.2634548 C10.4552953,48.2634548 10.0542953,48.3794548 9.7312953,48.5794548 C9.6752953,48.5654548 9.6202953,48.5454548 9.5642953,48.5324548 C6.7382953,47.8934548 3.8812953,48.6734548 2.3342953,51.2514548 C1.0582953,53.3784548 0.559294146,56.1184548 0.559294146,58.5674548 C0.558295305,61.2024548 1.2042953,63.7644548 2.3712953,66.1184548 C2.8512953,67.0854548 4.2212953,67.3544548 5.1082953,66.8354548 C6.0932953,66.2594548 6.3072953,65.0704548 5.8252953,64.0994548 C4.3002953,61.0214548 4.0842953,57.1064548 5.4292953,53.9604548 C5.7092953,53.3064548 6.0012953,52.7674548 6.5932953,52.4764548 C7.0452953,52.2554548 7.8482953,52.2534548 8.3902953,52.3664548 C9.6042953,52.6204548 10.6372953,53.2264548 11.4142953,54.0674548 C11.6632953,54.4754548 11.8932953,54.8954548 12.0952953,55.3314548 C12.2952953,55.7614548 12.8502953,56.1304548 13.2902953,56.2514548 C13.7692953,56.3824548 14.4062953,56.3234548 14.8312953,56.0494548 C15.2592953,55.7734548 15.6342953,55.3634548 15.7502953,54.8534548 C15.7742953,54.6774548 15.7982953,54.4994548 15.8222953,54.3214548 C15.8212953,54.0914548 15.7702953,53.8744548 15.6962953,53.6634548" id="Fill-19" fill="#C3996B"></path>
                <path d="M115.184595,16.1790548 C115.152595,15.6770548 114.984595,15.1630548 114.604595,14.8160548 C114.214595,14.4560548 113.731595,14.2280548 113.190595,14.2300548 C111.762595,14.2340548 110.309595,14.4450548 108.942595,14.8650548 C108.535595,14.9910548 108.166595,15.2400548 107.900595,15.5750548 C106.427595,14.6950548 105.037595,13.6880548 103.738595,12.5640548 C100.682595,9.92005476 98.0585953,6.82705476 95.5405953,3.68105476 C95.0635953,3.08505476 94.2035953,2.98705476 93.4895953,3.22505476 C92.7205953,2.81605476 91.8485953,2.96405476 91.1325953,3.55105476 C91.1075953,3.57205476 91.0975953,3.57905476 91.0815953,3.59205476 C91.0235953,3.63505476 90.9645953,3.67805476 90.9045953,3.72005476 C90.7085953,3.85505476 90.5065953,3.98205476 90.3005953,4.10105476 C90.1175953,4.20605476 89.9305953,4.30605476 89.7405953,4.39805476 C89.6595953,4.43805476 89.5775953,4.47405476 89.4955953,4.51305476 C89.4935953,4.51305476 89.4935953,4.51305476 89.4915953,4.51405476 C89.0615953,4.65605476 88.6435953,4.80905476 88.2025953,4.91205476 C87.9955953,4.96005476 87.7875953,4.99905476 87.5785953,5.03705476 C87.5695953,5.03905476 87.5695953,5.03905476 87.5615953,5.04005476 C87.4565953,5.05805476 87.3445953,5.06405476 87.2425953,5.07205476 C86.8185953,5.10505476 86.3935953,5.11205476 85.9705953,5.09105476 C85.7675953,5.08005476 85.5665953,5.05905476 85.3645953,5.04005476 C85.3485953,5.03705476 85.3405953,5.03405476 85.3175953,5.03105476 C85.2145953,5.01005476 85.1095953,4.99205476 85.0065953,4.97105476 C84.5925953,4.88405476 84.1835953,4.77105476 83.7855953,4.62805476 C83.7625953,4.62005476 83.6705953,4.58605476 83.5965953,4.55805476 C83.5415953,4.53405476 83.4755953,4.50505476 83.4565953,4.49705476 C83.2405953,4.39605476 83.0305953,4.28305476 82.8225953,4.16505476 C82.2065953,3.17005476 80.7915953,2.62705476 79.7155953,3.69805476 C78.1035953,5.30305476 77.3085953,7.35405476 76.1635953,9.27205476 C74.9635953,11.2830548 72.9415953,12.6090548 71.0085953,13.8510548 C67.0045953,16.4240548 62.3305953,17.2380548 57.9635953,15.0480548 C57.9715953,14.9570548 57.9885953,14.8670548 57.9955953,14.7760548 C58.0785953,13.6970548 57.0175953,12.7760548 55.9955953,12.7760548 C54.8445953,12.7760548 54.0795953,13.6950548 53.9955953,14.7760548 C53.6715953,18.9830548 52.0005953,23.1690548 49.2545953,26.3860548 C48.0465953,27.8030548 46.5875953,29.2190548 44.6255953,29.3240548 C43.0465953,29.4080548 40.5985953,29.3940548 39.3805953,28.1970548 C39.1535953,27.5640548 38.5895953,27.0170548 37.9855953,26.8510548 C36.8365953,26.5350548 35.9395953,27.2450548 35.5255953,28.2480548 C34.0395953,31.8450548 32.3225953,35.5380548 29.6745953,38.4390548 C29.3645953,38.7780548 29.0385953,39.0950548 28.7055953,39.4040548 C28.3525953,38.8840548 27.7645953,38.5590548 27.0605953,38.5100548 C27.0325953,38.5080548 27.0045953,38.5120548 26.9765953,38.5110548 C26.4865953,37.9570548 25.7345953,37.6640548 24.9675953,37.8880548 C24.3785953,38.0590548 23.7805953,38.1850548 23.1755953,38.2810548 C22.4025953,38.3680548 21.6265953,38.3800548 20.8505953,38.3430548 C20.3655953,38.1060548 19.8025953,38.0630548 19.2425953,38.3000548 C18.6475953,38.5500548 18.2265953,39.0710548 18.0775953,39.6710548 C18.0045953,39.8790548 17.9565953,40.0940548 17.9665953,40.2980548 C17.9835953,40.6850548 18.0825953,41.0810548 18.2955953,41.4080548 C18.3155953,41.7160548 18.3405953,42.0240548 18.4195953,42.3250548 C18.5235953,42.7180548 18.7315953,43.0710548 18.9945953,43.3770548 C18.9655953,43.3780548 18.9385953,43.3820548 18.9105953,43.3820548 C17.1885953,43.4010548 16.6225953,45.1940548 17.2045953,46.3720548 C17.0925953,46.5440548 17.0035953,46.7300548 16.9725953,46.9430548 C16.0425953,53.2770548 15.7285953,59.6580548 16.0075953,66.0130548 C15.0185953,66.1730548 14.3315953,66.9490548 14.2745953,67.9780548 C14.1615953,70.0170548 14.4135953,72.0970548 14.9725953,74.0660548 C14.5815953,74.4350548 14.3345953,74.9590548 14.2995953,75.5350548 C14.1025953,78.7300548 14.6495953,81.8020548 15.6175953,84.7660548 C14.8835953,85.2190548 14.3995953,86.1580548 14.6995953,87.0050548 C16.3465953,91.6590548 18.7035953,95.9730548 21.6575953,99.8350548 C23.4675953,105.844055 28.5175953,110.572055 33.0435953,114.652055 C38.2995953,119.390055 44.2205953,123.533055 51.1185953,125.432055 C51.8095953,125.622055 52.3915953,125.469055 52.8155953,125.132055 C52.8495953,125.232055 52.9085953,125.325055 53.0085953,125.390055 C54.2165953,126.170055 55.4245953,126.950055 56.6325953,127.731055 C57.0895953,128.006055 57.4925953,127.478055 57.3205953,127.089055 C57.6645953,127.208055 58.0055953,127.335055 58.3595953,127.430055 C58.4465953,127.452055 58.5235953,127.452055 58.5945953,127.439055 C59.1135953,127.763055 59.6425953,128.070055 60.1685953,128.384055 C59.4405953,128.056055 58.7125953,127.730055 57.9855953,127.403055 C57.4105953,127.145055 56.9035953,127.953055 57.4805953,128.267055 C58.5495953,128.846055 59.6575953,129.342055 60.7945953,129.755055 C62.9835953,130.739055 65.1725953,131.722055 67.3615953,132.704055 C67.9435953,132.966055 68.4525953,132.105055 67.8665953,131.841055 C66.8995953,131.408055 65.9325953,130.973055 64.9655953,130.538055 C65.1235953,130.322055 65.1305953,130.010055 64.8225953,129.850055 C62.3625953,128.572055 59.9805953,127.158055 57.6655953,125.638055 C56.3825953,124.749055 55.0995953,123.860055 53.8165953,122.970055 C53.6995953,122.890055 53.5875953,122.874055 53.4855953,122.894055 C53.3585953,122.469055 53.0945953,122.072055 52.6595953,121.777055 C49.3725953,119.545055 46.0855953,117.314055 42.7995953,115.082055 C42.7295953,114.753055 42.5725953,114.425055 42.2835953,114.122055 C33.8365953,105.279055 27.0545953,94.8760548 22.3965953,83.5640548 C22.3925953,83.5480548 22.3935953,83.5330548 22.3905953,83.5170548 C19.6615953,71.9130548 19.0975953,59.8080548 20.8305953,48.0060548 C20.8665953,47.7540548 20.8685953,47.5030548 20.8395953,47.2600548 C25.2075953,46.7570548 29.2635953,44.7160548 32.3055953,41.4800548 C34.8415953,38.7820548 36.6225953,35.5520548 38.1355953,32.2030548 C39.9375953,33.1410548 42.1985953,33.3490548 44.1415953,33.3370548 C47.0805953,33.3200548 49.5365953,31.9640548 51.5135953,29.8540548 C54.3505953,26.8280548 56.2885953,23.0950548 57.2855953,19.1070548 C62.0885953,21.0360548 67.3955953,20.5990548 71.9445953,17.9680548 C74.2505953,16.6340548 76.7555953,15.0090548 78.4575953,12.9310548 C79.6855953,11.4330548 80.3695953,9.54605476 81.4215953,7.93705476 C85.1915953,9.77005476 89.6815953,9.34305476 93.1145953,7.00605476 C96.0435953,10.6370548 99.1445953,14.1240548 102.862595,16.9730548 C106.100595,19.4540548 112.679595,23.7950548 115.700595,18.6940548 C116.297595,17.6860548 115.907595,16.7260548 115.184595,16.1790548" id="Fill-21" fill="#C3996B"></path>
                <path d="M149.449295,47.9095548 C148.976295,46.7495548 148.201295,45.7845548 147.250295,45.0755548 C147.249295,45.0705548 147.249295,45.0655548 147.248295,45.0605548 C147.153295,44.7215548 146.982295,44.4285548 146.734295,44.1795548 C146.599295,44.0745548 146.464295,43.9705548 146.329295,43.8655548 C146.017295,43.6845548 145.680295,43.5945548 145.320295,43.5935548 L144.266295,43.5935548 C143.991295,43.5825548 143.734295,43.6395548 143.496295,43.7645548 C143.422295,43.7885548 143.357295,43.8285548 143.290295,43.8625548 C143.146295,43.8695548 143.006295,43.8585548 142.861295,43.8765548 C140.188295,44.1905548 137.876295,46.3455548 137.500295,49.0435548 C137.449295,49.4115548 137.488295,49.7705548 137.577295,50.1085548 C137.358295,50.5295548 137.294295,51.0305548 137.372295,51.5045548 C136.395295,47.4835548 135.250295,43.4985548 134.096295,39.5355548 C134.021295,39.2785548 133.907295,39.0695548 133.773295,38.8875548 C133.767295,38.8705548 133.768295,38.8525548 133.762295,38.8355548 C133.977295,38.5115548 134.107295,38.1315548 134.122295,37.7225548 C134.144295,37.1445548 133.977295,36.6265548 133.729295,36.1165548 C133.614295,35.8785548 133.431295,35.6685548 133.266295,35.4675548 C133.088295,35.2495548 132.848295,35.0955548 132.627295,34.9265548 C132.589295,34.9025548 132.548295,34.8915548 132.510295,34.8715548 C132.493295,34.6685548 132.450295,34.4725548 132.354295,34.2925548 C132.274295,34.0445548 132.136295,33.8295548 131.941295,33.6475548 C131.760295,33.4535548 131.545295,33.3155548 131.297295,33.2345548 C131.059295,33.1095548 130.802295,33.0525548 130.527295,33.0615548 C130.010295,33.0855548 129.473295,33.2555548 129.113295,33.6475548 C128.772295,34.0185548 128.481295,34.5405548 128.527295,35.0615548 C128.549295,35.3105548 128.580295,35.5615548 128.624295,35.8105548 C126.968295,34.6355548 125.550295,33.0815548 124.259295,31.5075548 C121.915295,28.6515548 119.681295,25.5305548 118.831295,21.8795548 C118.248295,19.3725548 114.390295,20.4335548 114.974295,22.9425548 C115.983295,27.2785548 118.654295,30.9525548 121.430295,34.3365548 C123.827295,37.2565548 126.738295,39.9975548 130.398295,41.1455548 C133.178295,50.7015548 135.931295,60.3785548 136.078295,70.4005548 C136.078295,70.4285548 136.085295,70.4505548 136.087295,70.4775548 C135.871295,70.9135548 135.807295,71.4345548 135.895295,71.9545548 C136.997295,78.5425548 136.032295,85.4805548 133.193295,91.5245548 C133.112295,91.6985548 133.057295,91.8785548 133.017295,92.0595548 C131.509295,95.2785548 130.001295,98.4985548 128.492295,101.718555 C128.265295,102.203555 128.861295,102.761555 129.278295,102.323555 C130.089295,101.472555 130.806295,100.544555 131.444295,99.5655548 C131.642295,99.8045548 132.052295,99.8545548 132.259295,99.5215548 C132.543295,99.0635548 132.803295,98.5935548 133.050295,98.1145548 C133.116295,98.0575548 133.174295,97.9875548 133.205295,97.8825548 C133.227295,97.8085548 133.249295,97.7345548 133.270295,97.6605548 C133.768295,96.6335548 134.190295,95.5695548 134.515295,94.4735548 C135.328295,94.6275548 136.282295,94.3195548 136.647295,93.5435548 C139.907295,86.6045548 140.981295,78.9785548 139.820295,71.4175548 C139.982295,71.1395548 140.084295,70.8055548 140.078295,70.4005548 C139.985295,64.0625548 138.905295,57.8525548 137.425295,51.7245548 C137.633295,52.4865548 138.237295,53.1235548 139.262295,53.1235548 C139.510295,53.1235548 139.726295,53.0765548 139.927295,53.0095548 C139.957295,53.0185548 139.988295,53.0365548 140.018295,53.0445548 C141.079295,53.2855548 142.177295,52.7245548 142.479295,51.6465548 C142.519295,51.5025548 142.574295,51.3625548 142.626295,51.2225548 C142.767295,50.9275548 142.933295,50.6455548 143.120295,50.3785548 C143.346295,50.1125548 143.594295,49.8665548 143.860295,49.6415548 C144.139295,49.4465548 144.432295,49.2765548 144.740295,49.1305548 C144.985295,49.0425548 145.234295,48.9685548 145.488295,48.9135548 C145.967295,49.6845548 146.127295,50.7255548 146.182295,51.6165548 C146.488295,56.5165548 146.179295,61.5205548 145.732295,66.4015548 C145.634295,67.4785548 146.722295,68.4015548 147.732295,68.4015548 C148.896295,68.4015548 149.633295,67.4815548 149.732295,66.4015548 C150.026295,63.1935548 150.202295,59.9755548 150.242295,56.7555548 C150.279295,53.8895548 150.553295,50.6195548 149.449295,47.9095548" id="Fill-23" fill="#C3996B"></path>
                <path d="M144.562495,43.7395548 C144.554495,43.7385548 144.549495,43.7375548 144.545495,43.7355548 L144.544495,43.7355548 C144.549495,43.7375548 144.553495,43.7395548 144.562495,43.7395548" id="Fill-25" fill="#231F20"></path>
                <path d="M68.2705953,65.2132548 C67.5415953,69.8612548 65.5375953,74.8712548 62.0275953,78.1232548 C57.8445953,81.9992548 51.9895953,80.6672548 48.4745953,76.5972548 C45.2535953,72.8682548 43.8915953,67.5952548 43.882559,62.7542548 C43.8735953,57.4812548 45.5365953,52.2212548 48.6515953,47.9582548 C48.9995953,47.9682548 49.3385953,48.0062548 49.6665953,48.0732548 C49.6915953,48.0282548 49.7195953,47.9872548 49.7385953,47.9352548 C50.9925953,44.4662548 56.0695953,44.0642548 59.0865953,44.8742548 C61.9695953,45.6492548 64.1405953,47.5462548 65.5145953,50.0472548 C65.2955953,50.3222548 65.2305953,50.7012548 65.4875953,51.0922548 C66.0465953,51.9402548 66.5045953,52.8322548 66.9065953,53.7462548 C67.0275953,54.2372548 67.1385953,54.7342548 67.2365953,55.2322548 C67.3105953,55.2062548 67.3835953,55.1812548 67.4565953,55.1552548 C68.5575953,58.3562548 68.8025953,61.8242548 68.2705953,65.2132548 M68.7755953,52.9752548 C68.0335953,50.1482548 66.7305953,47.4032548 64.4715953,45.4902548 C62.1745953,43.5452548 59.1775953,42.4652548 56.1665953,42.5092548 C53.4485953,42.5482548 50.4745953,43.5102548 48.7845953,45.6552548 C48.4495953,45.4622548 48.0335953,45.4722548 47.7145953,45.8782548 C40.9215953,54.5212548 39.4595953,68.1452548 46.4025953,77.1972548 C49.7605953,81.5762548 55.7895953,84.1302548 60.9735953,81.3382548 C65.6965953,78.7932548 68.4715953,73.0272548 69.7285953,68.0382548 C70.9855953,63.0512548 70.8245953,57.6722548 68.7755953,52.9752548" id="Fill-32" fill="#231F20"></path>
                <path d="M91.9267953,55.1555548 C91.9997953,55.1805548 92.0727953,55.2065548 92.1457953,55.2315548 C92.2447953,54.7335548 92.3547953,54.2375548 92.4767953,53.7465548 C92.8777953,52.8325548 93.3357953,51.9395548 93.8947953,51.0925548 C94.1527953,50.7015548 94.0867953,50.3225548 93.8687953,50.0475548 C95.2417953,47.5465548 97.4127953,45.6485548 100.295795,44.8745548 C103.312795,44.0635548 108.390795,44.4665548 109.643795,47.9345548 C109.662795,47.9875548 109.690795,48.0285548 109.715795,48.0735548 C110.043795,48.0065548 110.383795,47.9685548 110.731795,47.9585548 C113.845795,52.2205548 115.508795,57.4805548 115.499832,62.7545548 C115.491795,67.5945548 114.128795,72.8685548 110.907795,76.5965548 C107.392795,80.6675548 101.537795,81.9995548 97.3547953,78.1235548 C93.8447953,74.8715548 91.8417953,69.8615548 91.1117953,65.2135548 C90.5797953,61.8245548 90.8247953,58.3555548 91.9267953,55.1555548 M89.6537953,68.0385548 C90.9117953,73.0275548 93.6857953,78.7935548 98.4087953,81.3385548 C103.592795,84.1305548 109.622795,81.5765548 112.980795,77.1975548 C119.923795,68.1445548 118.461795,54.5205548 111.667795,45.8785548 C111.348795,45.4715548 110.932795,45.4625548 110.598795,45.6555548 C108.907795,43.5095548 105.933795,42.5485548 103.216795,42.5095548 C100.204795,42.4655548 97.2077953,43.5455548 94.9107953,45.4905548 C92.6517953,47.4035548 91.3497953,50.1475548 90.6067953,52.9745548 C88.5577953,57.6725548 88.3967953,63.0515548 89.6537953,68.0385548" id="Fill-34" fill="#231F20"></path>
                <path d="M51.8417953,36.3411548 C46.5887953,37.6611548 41.8027953,40.6331548 38.3087953,44.7741548 C37.6297953,45.5791548 38.7887953,46.7501548 39.4727953,45.9391548 C42.7997953,41.9971548 47.2767953,39.1871548 52.2797953,37.9291548 C53.3067953,37.6711548 52.8717953,36.0821548 51.8417953,36.3411548" id="Fill-36" fill="#231F20"></path>
                <path d="M114.892595,40.0061548 C110.820595,36.4981548 105.358595,35.7941548 100.187595,35.4441548 C99.1305953,35.3721548 99.1345953,37.0191548 100.187595,37.0901548 C104.876595,37.4081548 110.022595,37.9791548 113.727595,41.1701548 C114.527595,41.8591548 115.697595,40.6981548 114.892595,40.0061548" id="Fill-38" fill="#231F20"></path>
                <path d="M86.8603953,85.7239548 C86.7753953,85.1909548 86.1093953,84.8939548 85.6303953,85.0259548 C85.0613953,85.1819548 84.8463953,85.7209548 84.9313953,86.2559548 C85.3303953,88.7619548 83.2963953,91.4579548 80.7963953,91.8139548 C78.1713953,92.1879548 75.4723953,89.9369548 75.2893953,87.3149548 C75.2003953,86.0369548 73.1993953,86.0279548 73.2893953,87.3149548 C73.4963953,90.2749548 75.6843953,92.8519548 78.5483953,93.6209548 C81.4383953,94.3979548 84.3663953,92.9739548 85.9123953,90.4889548 C86.8053953,89.0519548 87.1243953,87.3869548 86.8603953,85.7239548" id="Fill-40" fill="#231F20"></path>
                <path d="M63.4741953,61.4583548 C63.4511953,61.3573548 63.4081953,61.2613548 63.3811953,61.1613548 C63.4501953,59.8293548 63.2281953,58.5183548 62.7631953,57.3023548 C62.6241953,56.6383548 62.4471953,55.9853548 62.2101953,55.3623548 C61.3581953,53.1283548 59.5461953,51.0333548 56.9151953,51.4853548 C55.8791953,51.6633548 54.9901953,52.1983548 54.2331953,52.9073548 C53.3611953,53.3963548 52.5761953,54.0623548 51.9331953,54.8763548 C51.0181953,56.0343548 50.4681953,57.3933548 50.1891953,58.8183548 C49.5731953,60.8123548 49.5501953,63.0103548 50.0141953,65.0273548 C50.3631953,66.5433548 51.1341953,68.0413548 52.2621953,69.0753548 C52.4691953,69.3423548 52.6901953,69.5983548 52.9341953,69.8383548 C54.0651953,70.9533548 55.5921953,71.5173548 57.0931953,71.3733548 C58.0561953,71.3783548 59.0371953,71.1263548 59.9671953,70.5343548 C62.9031953,68.6663548 64.2361953,64.7823548 63.4741953,61.4583548" id="Fill-42" fill="#231F20"></path>
                <path d="M107.713395,54.3098548 C104.570395,51.6878548 99.7183953,52.8888548 97.3203953,55.9438548 C96.5323953,56.9478548 96.0613953,58.0648548 95.8403953,59.2238548 C94.9083953,60.1428548 94.8213953,61.6008548 95.1523953,62.9318548 C95.1723953,64.2968548 95.4993953,65.6568548 96.1803953,66.8508548 C96.6313953,67.6428548 97.2293953,68.3298548 97.9093953,68.9198548 C98.0073953,69.0188548 98.0923953,69.1298548 98.1973953,69.2198548 C98.7823953,69.7238548 99.4323953,70.0778548 100.111395,70.3148548 C101.174395,70.7758548 102.328395,71.0328548 103.495395,71.0250361 C103.577395,71.0250361 103.639395,70.9958548 103.711395,70.9798548 C104.071395,70.9568548 104.434395,70.9108548 104.798395,70.8098548 C106.779395,70.2598548 108.275395,68.6198548 109.154395,66.8208548 C110.981395,63.0828548 111.192395,57.2128548 107.713395,54.3098548" id="Fill-44" fill="#231F20"></path>
                <path d="M93.0874953,105.050155 C89.9834953,110.487155 83.9784953,114.070155 77.6814953,113.988155 C71.5144953,113.906155 65.7004953,110.316155 62.6864953,104.977155 C62.0534953,103.856155 60.3254953,104.863155 60.9594953,105.986155 C64.3164953,111.934155 70.8254953,115.898155 77.6814953,115.988155 C84.6644953,116.078155 91.3714953,112.093155 94.8144953,106.059155 C95.4534953,104.939155 93.7264953,103.931155 93.0874953,105.050155" id="Fill-46" fill="#231F20"></path>
            </g>
            <g id="outline" transform="translate(0.000000, 0.546000)">
                <mask id="mask-2" fill="white">
                    <use xlink:href="#path-1"></use>
                </mask>
                <g id="Clip-28"></g>
                <path d="M172.4953,104.5349 C172.2273,106.0479 171.9273,107.5579 171.6163,109.0679 C171.5463,109.3019 171.4963,109.5399 171.4653,109.7829 C170.8133,112.8959 170.1033,116.0029 169.4093,119.0969 C169.0263,120.8039 168.5463,123.0969 166.9173,124.0889 C165.9883,124.6539 163.3323,124.4499 163.5593,122.8539 C163.6083,122.5109 163.4943,122.2269 163.3073,122.0129 C163.4393,113.2759 162.1383,104.6229 160.4873,95.9929 C161.0543,95.9069 161.5743,95.5839 161.9293,95.0489 C161.9983,94.9429 162.0693,94.8389 162.1423,94.7359 C162.1533,94.7209 162.1863,94.6759 162.2183,94.6339 C162.2663,94.5759 162.3243,94.5049 162.3403,94.4859 C162.4063,94.4099 162.4733,94.3349 162.5403,94.2599 C162.8653,93.9039 163.2243,93.5969 163.5813,93.2759 C163.5863,93.2709 163.5853,93.2709 163.5893,93.2669 C163.5913,93.2659 163.5923,93.2659 163.5943,93.2639 C163.6763,93.2059 163.7573,93.1459 163.8403,93.0899 C164.0263,92.9609 164.2183,92.8389 164.4123,92.7219 C164.6073,92.6049 164.8063,92.4949 165.0083,92.3909 C165.1203,92.3349 165.2333,92.2789 165.3483,92.2249 C165.3933,92.2039 165.4393,92.1819 165.4853,92.1629 C165.6203,92.1019 165.5773,92.1199 165.3553,92.2149 C165.4453,92.1019 165.8663,92.0199 165.9933,91.9769 C166.2083,91.9049 166.4263,91.8399 166.6453,91.7819 C166.8643,91.7229 167.0853,91.6729 167.3083,91.6299 C167.4073,91.6099 167.5073,91.5939 167.6063,91.5759 C167.6033,91.5749 167.5983,91.5759 167.5973,91.5739 C167.5983,91.5749 167.6053,91.5749 167.6073,91.5759 C167.6313,91.5719 167.6563,91.5669 167.6803,91.5629 C167.9673,91.5139 167.7133,91.5819 167.6243,91.5799 C167.6893,91.5879 167.8743,91.5699 168.0453,91.5509 C168.6463,91.7489 169.2173,92.0359 169.7083,92.4339 C173.2713,95.3349 173.2233,100.4239 172.4953,104.5349 M161.2833,124.2969 C161.2003,125.8999 161.0473,127.5069 160.8583,129.1099 C160.6393,129.7179 160.5663,130.3769 160.6203,131.0249 C160.3783,132.6879 160.0413,134.3349 159.6643,135.9719 C158.3253,140.1539 156.4063,144.1129 153.9713,147.7609 C153.9633,147.7519 153.9553,147.7429 153.9473,147.7339 C151.0923,150.9959 147.7293,153.8309 144.2553,156.4329 C137.7363,161.3179 130.9763,165.9069 124.2103,170.4389 C120.2023,173.1239 116.1633,175.7629 112.0983,178.3589 C111.8863,178.4949 111.7573,178.6709 111.6893,178.8589 C110.3643,179.6869 108.9973,180.4379 107.5413,181.0269 C102.1043,183.2239 96.3293,182.2229 90.9913,180.2489 C85.9743,178.3929 81.1673,175.8689 76.4033,173.4479 C67.8813,169.1179 59.4003,164.2839 52.4833,157.5979 C45.3173,150.6689 40.7263,141.9399 39.1753,132.0819 C37.5683,121.8619 38.9213,111.3819 40.3223,101.2219 C40.9893,96.3799 41.6933,91.5179 42.2203,86.6419 C47.0193,89.1969 52.1333,89.7649 55.9273,83.8619 C57.7013,81.1019 58.8523,78.0019 59.5443,74.7689 C62.2883,76.5689 65.3013,77.5269 68.6183,76.6229 C71.8363,75.7459 74.3913,73.2299 75.8493,70.3059 C77.1103,67.7789 76.8533,64.4989 78.1593,62.1129 C81.2193,63.8319 84.6023,64.9109 88.0683,65.0389 C96.0063,65.3319 100.3843,59.3059 102.8573,52.5159 C106.7643,54.5589 111.7013,54.5839 115.5463,52.3169 C115.7963,52.9449 116.0833,53.5579 116.4073,54.1559 C117.8983,58.6389 121.8503,62.1959 126.4203,63.5419 C129.4093,64.4219 132.5623,64.2709 135.4063,62.9849 C135.4703,62.9559 135.5383,62.9189 135.6033,62.8879 C135.5603,68.8059 136.8213,74.5629 141.2253,79.1479 C145.1593,83.2439 150.8263,84.8759 156.0273,83.8139 C156.0433,83.8949 156.0583,83.9769 156.0743,84.0579 C156.0783,84.1839 156.0853,84.3089 156.0903,84.4349 C156.1193,85.3179 156.3293,86.1559 156.6543,86.9399 C157.0133,88.7059 157.3733,90.4719 157.7283,92.2349 C159.8503,102.7669 161.8403,113.5059 161.2833,124.2969 M102.5173,191.1329 C100.9613,193.6609 98.6393,196.3529 95.3953,196.0899 C92.2733,195.8359 90.5793,192.7119 89.3453,190.1259 C89.4203,189.9919 89.4733,189.8389 89.4733,189.6469 L89.4733,181.8069 C92.8153,183.1189 96.2753,184.1039 99.8713,184.2859 C100.7213,184.3289 101.5473,184.2939 102.3633,184.2239 L102.3633,190.6399 C102.3633,190.8209 102.4283,190.9839 102.5173,191.1329 M36.5173,123.3419 C36.4693,123.3649 36.4213,123.3899 36.3843,123.4309 C36.2993,123.5239 36.2273,123.6529 36.2383,123.7839 C36.2413,123.8219 36.2373,123.8589 36.2353,123.8969 C36.2273,123.9329 36.2173,123.9689 36.2053,124.0039 C36.1903,124.0339 36.1743,124.0619 36.1563,124.0899 C36.1183,124.1289 36.0793,124.1679 36.0413,124.2059 C35.9613,124.2879 35.9153,124.4009 35.9043,124.5159 C35.9003,124.5159 35.8963,124.5149 35.8913,124.5139 C35.6333,124.3789 35.3143,124.3529 34.9813,124.5319 C33.1083,125.5439 31.2873,123.8279 30.1453,122.4669 C28.8013,120.8639 27.8763,118.8899 26.9273,117.0419 C24.9473,113.1829 23.2243,108.8799 23.8313,104.4589 C24.3063,100.9989 26.3013,97.2649 29.9333,96.3759 C32.8953,95.6509 36.6423,96.8909 37.5943,100.0199 C37.7193,100.4329 38.0253,100.6349 38.3563,100.6899 C37.2913,108.2229 36.3863,115.7639 36.5173,123.3419 M99.1863,3.8299 C97.7153,3.2469 96.1893,2.8029 94.6213,2.5069 C96.2193,2.6429 97.7663,3.1049 99.1863,3.8299 M182.0233,100.6849 C181.8713,99.5389 181.5483,98.4689 181.2443,97.3579 C180.8503,95.9199 181.1413,94.7439 181.4613,93.3279 C182.5073,88.6999 181.0173,83.7939 177.5943,80.5159 C180.6793,73.2679 178.8773,64.3449 173.0263,58.9869 C173.0783,57.6219 172.6663,56.4169 172.0163,55.3119 C171.5913,54.2519 170.9023,53.4059 170.0423,52.7819 C169.7533,52.4779 169.4603,52.1789 169.1623,51.8859 C169.0103,51.7369 168.8493,51.5889 168.6843,51.4379 C168.3383,48.5569 167.9763,45.6199 167.3023,42.8389 C167.2683,42.4049 167.2263,41.9719 167.1683,41.5389 C166.7263,38.2789 165.6723,34.4019 163.2763,31.9979 C161.6413,30.3569 158.9933,29.6469 156.9823,30.7429 C155.9233,28.1849 154.4303,25.7579 152.5493,23.7109 C151.5733,22.1759 150.3163,20.8309 148.6763,19.8189 C146.3263,18.3689 143.5993,18.2229 141.1573,18.9829 C140.6733,15.4699 138.3493,12.2779 134.8973,11.0209 C130.9133,9.5689 126.2503,11.2869 123.8153,14.6509 C121.5563,11.7759 118.9893,8.9399 115.4383,7.7799 C112.6983,6.8859 109.4353,7.1519 107.1323,8.9059 C107.0303,8.8079 106.9293,8.7039 106.8263,8.6099 C106.7503,8.5409 106.6693,8.4829 106.5933,8.4159 C104.1253,3.8709 99.3783,0.6849 94.1233,0.4659 C88.4873,0.2289 83.2193,3.5289 80.5493,8.3739 C76.7903,4.8589 70.7383,4.1579 66.2093,6.6229 C65.6173,6.9459 65.0613,7.3319 64.5383,7.7589 C63.9553,8.2339 63.4363,8.9799 62.7663,9.3249 C61.8283,9.8079 60.9353,9.0259 60.0923,8.6419 C59.3073,8.2849 58.4893,8.0099 57.6393,7.8499 C54.4173,7.2469 51.0173,8.0099 48.4663,10.0969 C46.2923,11.8749 44.9263,14.4959 44.5583,17.2559 C43.7053,18.3189 42.9843,19.4629 42.3833,20.6739 C38.1813,16.4309 30.0703,16.9059 26.9333,22.3049 C26.0243,23.8679 25.5993,25.6609 24.6983,27.2269 C24.3003,27.9179 23.8043,28.5729 23.0813,28.9489 C21.8833,29.5729 20.4453,29.3319 19.1513,29.2949 C15.1793,29.1789 12.1473,31.5749 10.8753,35.2979 C9.6233,38.9619 10.6843,42.6849 12.3673,46.0489 C12.6923,46.8599 13.0783,47.6459 13.5363,48.3999 C7.8173,50.4889 5.3273,58.4129 8.2563,63.6109 C8.2983,64.0829 8.3633,64.5519 8.4533,65.0149 C3.5583,66.7519 -0.1917,71.5249 0.0073,76.8859 C0.2083,82.3099 4.3153,86.9599 9.4433,88.2889 C4.5533,94.0439 6.4623,102.9229 10.1153,108.9789 C11.3133,110.9659 12.8263,112.6549 14.3193,114.4179 C16.1263,116.5509 17.0293,118.7769 17.7293,121.4559 C18.8913,125.9019 20.9633,129.7799 24.5663,132.7319 C28.3933,135.8689 33.2373,137.6469 38.2053,137.4259 C38.2453,137.4239 38.2723,137.4049 38.3093,137.3999 C39.9723,143.6499 42.8173,149.5049 47.0253,154.6379 C53.2303,162.2059 61.5793,167.7299 70.0883,172.3859 C74.4803,174.7879 78.9773,177.0039 83.4943,179.1609 C84.8323,179.7999 86.1913,180.4299 87.5683,181.0219 C87.5093,181.1459 87.4733,181.2899 87.4733,181.4579 L87.4733,189.2769 C87.2053,189.5649 87.0763,189.9859 87.2863,190.4329 C88.9083,193.8799 91.1403,197.7909 95.3953,198.0899 C99.5703,198.3829 102.6103,194.9449 104.5253,191.6759 C104.7903,191.2229 104.6533,190.7959 104.3633,190.5139 L104.3633,183.9459 C107.8283,183.2749 111.0143,181.6999 114.0423,179.6859 C113.9933,179.6509 113.9533,179.6029 113.9063,179.5649 C120.9493,175.0529 127.9133,170.4159 134.7813,165.6389 C141.0663,161.2679 147.6053,156.9679 153.0983,151.5959 C153.4863,151.2159 153.8413,150.8029 154.2153,150.4089 C154.4563,150.3649 154.6883,150.2359 154.8643,149.9889 C155.0943,149.6669 155.3113,149.3369 155.5333,149.0089 C155.5573,148.9809 155.5843,148.9569 155.6083,148.9299 C155.6033,148.9269 155.5983,148.9249 155.5933,148.9219 C157.8503,145.5669 159.6803,141.9399 161.0433,138.1349 C161.0973,138.1569 161.1533,138.1679 161.2063,138.1909 C161.3603,137.5979 161.4913,137.0009 161.6263,136.4039 C161.6793,136.2379 161.7383,136.0739 161.7883,135.9079 C161.8253,135.7889 161.8233,135.6829 161.8203,135.5779 C161.8273,135.5469 161.8353,135.5149 161.8423,135.4839 C161.9393,135.5259 162.0373,135.5679 162.1583,135.5799 C166.3063,135.9779 170.1363,134.0479 173.0913,131.2559 C176.1863,128.3299 179.1063,124.1069 179.6783,119.8079 C179.8123,118.7979 179.7933,117.7699 179.5533,116.7749 C179.2703,115.6029 178.3353,114.5099 178.6463,113.2689 C178.9013,112.2509 179.7283,111.3509 180.2243,110.4409 C180.7873,109.4089 181.2353,108.3019 181.5563,107.1719 C182.1533,105.0729 182.3083,102.8469 182.0233,100.6849" id="Fill-27" fill="#231F20" mask="url(#mask-2)"></path>
            </g>
        </g>
    </g>
</svg>