<svg width="500" height="600" xmlns="http://www.w3.org/2000/svg" xmlns:xlink="http://www.w3.org/1999/xlink"><defs><path id="a" d="M0 .797h94.015v135.268H0z"/></defs><g transform="translate(144 128)" fill="none" fill-rule="evenodd"><path d="M12.19 36.838c7.149-2.34 12.147-4.475 14.993-6.408 2.845-1.933 6.322-5.553 10.43-10.86 3.004 4.02 6.09 7.081 9.26 9.183 3.168 2.103 8.153 4.397 14.955 6.882 3.845 6.357 3.558 15.825-.86 28.406-4.42 12.58-12.474 19.753-24.163 21.518-7.566-1.234-12.364-2.789-14.395-4.665C8.137 67.712 4.73 53.026 12.19 36.838z" fill="#EFDFD3"/><path d="M18.067 49.847c3.455-2.195 6-3.272 7.638-3.232 1.637.04 3.57 1.226 5.799 3.558.592 1.779-1.34 2.754-5.799 2.924-4.458.17-7.004-.913-7.638-3.25zm24 1c3.455-2.195 6-3.272 7.638-3.232 1.637.04 3.57 1.226 5.799 3.558.592 1.779-1.34 2.754-5.799 2.924-4.458.17-7.004-.913-7.638-3.25z" fill="#FFFEFF"/><path d="M39.799 53.773c-.038-.007-.078-.01-.116-.016.038.006.078.012.116.016M31.567 64.94c-.116.418.018.82.296 1.097h.003c.423.14.86.224 1.299.29.719.056 1.436.074 2.155.074.722.004 1.45.016 2.174-.021.737-.038 1.475-.044 2.214-.081.358-.019.712-.047 1.071-.084.106-.268.15-.518.072-.817a1.384 1.384 0 00-.088-.245.372.372 0 01-.015-.057.916.916 0 00-.175-.366 9.9 9.9 0 01-1.32.292c-.53.077-1.062.165-1.594.218-.424.037-.85.059-1.274.09-.355.025-.739.09-1.093.056-.371-.037-.782-.056-1.1-.277a1.738 1.738 0 01-.637-.773l-.586-.192a.935.935 0 00-.306-.05c-.492 0-.965.367-1.096.847M22.772 45.86c-.377.137-.747.287-1.118.433-.387.153-.779.308-1.146.502-.386.202-.75.423-1.09.7-.267.216-.531.436-.8.649-.524.393-1.058.772-1.57 1.182-.18.143-.355.299-.52.464-.094.094-.224.19-.283.308-.069.138-.082.287 0 .424a.412.412 0 00.36.209c.153-.004.306-.078.443-.137.146-.063.28-.14.42-.215.458-.246.894-.536 1.33-.82.234-.149.467-.298.701-.45.211-.141.41-.296.62-.44.397-.275.841-.478 1.282-.669.345-.135.7-.244 1.05-.362.39-.13.773-.244 1.175-.313.221-.016.44-.015.663-.007.205.01.414.044.62.071-.082-.01-.163-.022-.24-.03.186.024.37.055.553.093.157.03.309.09.459.143.299.101.594.218.888.333.121.056.24.115.36.177.14.072.271.165.408.247.238.142.473.28.7.437.311.273.6.568.904.845.15.138.302.265.448.405.154.15.295.309.434.472.089.125.17.252.251.385a.885.885 0 001.2.315.889.889 0 00.317-1.203c-.084-.137-.161-.28-.255-.411-.115-.168-.237-.333-.355-.501-.14-.193-.271-.4-.43-.58a53.23 53.23 0 01-.35-.41c-.251-.303-.51-.617-.808-.876-.361-.305-.751-.535-1.165-.76a7.14 7.14 0 00-2.379-.775 9.806 9.806 0 00-1.36-.107c-.583 0-1.163.073-1.717.272" fill="#000" fill-rule="nonzero"/><path d="M24.39 49.926a.603.603 0 01.138-.075c.018-.003.034-.006.052-.006.02 0 .034.003.054.006.037 0 .074.01.108.028.031.016.063.031.09.054.029.021.06.043.088.065a.516.516 0 01.065.08.7.7 0 01.056.138l.016.109c-.003.034-.01.068-.013.103l-.037.09a.547.547 0 01-.3.258c-.011.006-.027.01-.042.016a.202.202 0 01-.178.106.364.364 0 01-.224-.062.342.342 0 01-.113-.147.457.457 0 01-.037-.24l-.015-.009c-.034-.032-.069-.063-.1-.097l.084-.084a.686.686 0 01.003-.115.195.195 0 01.06-.14.194.194 0 01.14-.06c.022 0 .043.007.065.013.013-.013.028-.021.04-.03m-.844-3.753a3.633 3.633 0 00-.548.248c-.17.094-.32.234-.473.362-.2.165-.361.39-.513.607-.14.137-.256.302-.371.458a3.381 3.381 0 00-.657 1.554c-.088.489-.16.96.025 1.438.23.601.653 1.137 1.133 1.56.218.194.458.368.704.528.28.18.626.28.943.36.62.156 1.268.112 1.89.016.334-.053.652-.152.96-.29.15-.065.295-.14.442-.217.175-.094.386-.225.526-.365a3.119 3.119 0 00.838-1.697c.106-.658.115-1.326-.119-1.959-.227-.626-.507-1.324-.98-1.806-.227-.23-.526-.408-.81-.56a5.057 5.057 0 00-.937-.368 2.63 2.63 0 00-.772-.113c-.433 0-.866.097-1.28.244" fill="#000" fill-rule="nonzero"/><path d="M28.246 51.616a1.035 1.035 0 00-.424.116c-.059.03-.115.07-.174.105a7.12 7.12 0 01-.553.274c-.295.114-.606.182-.914.25-.28.06-.557.118-.835.161-.387.05-.777.103-1.164.156.06-.01.115-.016.174-.025a9.401 9.401 0 01-1.822-.035 3.265 3.265 0 01-.538-.136c-.206-.111-.407-.231-.61-.35a.61.61 0 00-.823.216.608.608 0 00.215.822c.156.087.311.178.467.264.324.188.66.296 1.025.365.386.072.784.1 1.174.134.274.022.548.053.822.047.286-.003.573-.047.856-.082.333-.04.67-.08.997-.155.296-.069.591-.14.887-.218.405-.106.785-.274 1.165-.442.256-.113.504-.203.648-.467a.678.678 0 000-.67c-.103-.175-.318-.332-.533-.332l-.04.002m20.552-5.631a9.97 9.97 0 00-1.607.165c-.454.084-.887.246-1.317.414-.922.364-1.725.934-2.529 1.508a14.18 14.18 0 00-1.25.99c-.164.15-.31.318-.46.48-.324.351-.623.712-.903 1.102-.252.352-.062.884.287 1.09a.807.807 0 00.613.08c.215-.058.35-.192.477-.367.044-.06.087-.12.132-.178a7.9 7.9 0 011.144-1.11c.48-.337.98-.648 1.477-.957.43-.272.877-.516 1.341-.723a9.333 9.333 0 011.577-.407 8.461 8.461 0 011.511.007c.368.062.736.137 1.102.217.38.088.748.205 1.113.34.189.086.378.175.562.27.261.134.51.29.766.43.25.137.504.277.735.443.223.161.44.332.662.492.145.116.285.234.43.348.303.237.605.395.963.53.312.112.683-.075.841-.343a.757.757 0 00-.268-1.022c-.035-.02-.07-.04-.103-.062-.291-.247-.56-.514-.831-.781a8.595 8.595 0 00-1.143-.99c-.39-.275-.791-.536-1.202-.78-.43-.255-.897-.444-1.361-.628-.399-.156-.825-.252-1.242-.352-.463-.11-.952-.207-1.433-.207l-.084.001" fill="#000" fill-rule="nonzero"/><path d="M49.077 50.134l.079.047.01.01c.027.042.052.084.075.126.017.058.03.115.044.172.003.085.003.168-.001.252a6.64 6.64 0 01-.08.345l-.139.04-.071.01c-.104.01-.207.016-.31.016a3.492 3.492 0 01-.179-.05l-.008-.005-.066-.067a1.433 1.433 0 01-.038-.067 3.6 3.6 0 01-.063-.206v-.017c.014-.055.03-.109.045-.164.038-.069.079-.135.121-.2.055-.06.11-.119.168-.175.082-.027.164-.05.248-.067a2.27 2.27 0 01.165 0m-1.062-3.529c-.153.022-.3.077-.443.13-.803.29-1.56.705-2.17 1.308a3.375 3.375 0 00-.99 2.349c0 .242.059.485.096.722.025.159.063.306.115.458.175.51.474.944.863 1.311l.119.109c.177.278.399.531.65.738.314.261.657.411 1.04.552.352.127.754.17 1.125.177.436.01.89-.069 1.302-.206a4.462 4.462 0 001.784-1.152c.206-.22.367-.466.494-.73.095-.116.183-.236.272-.357.261-.355.31-.825.355-1.249.075-.703-.047-1.454-.448-2.049a2.657 2.657 0 01-.042-.059l-.037-.081c-.17-.373-.457-.71-.722-1.018-.37-.44-.875-.667-1.395-.872-.225-.087-.508-.103-.735-.134a3.75 3.75 0 00-.452-.035h-.053c-.244 0-.488.056-.728.088" fill="#000" fill-rule="nonzero"/><path d="M44.387 53.153c-.153.258-.075.638.202.781.417.213.84.42 1.27.605.39.168.786.27 1.203.336.209.034.417.053.622.078.3.034.598.062.897.09.162.012.327.01.49.012.149.007.304.007.454-.008a9.648 9.648 0 001.112-.153c.295-.063.582-.156.869-.246.287-.09.573-.166.856-.265a5.85 5.85 0 00.445-.174.98.98 0 00.374-.275.541.541 0 00.084-.653c-.112-.19-.39-.337-.61-.25-.084.034-.178.05-.265.075-.109.028-.218.06-.327.09-.27.078-.538.15-.81.222-.223.059-.442.136-.67.19-.261.065-.524.114-.79.16-.407.04-.817.068-1.227.054a27.719 27.719 0 01-1.29-.082 4.623 4.623 0 01-.997-.258 22.234 22.234 0 01-1.114-.531.643.643 0 00-.294-.074.55.55 0 00-.484.276m-11.143-6.387c-.29.169-.365.527-.216.814.122.236.24.47.35.71.18.451.268.918.346 1.394.074.62.127 1.243.146 1.869.019.65-.022 1.31-.084 1.959a179.738 179.738 0 01-.464 4.055c-.172 1.124-.35 2.248-.636 3.353a33.47 33.47 0 01-.495 1.657c-.134.415-.23.848-.392 1.252-.019.04-.037.084-.056.127a1.535 1.535 0 00-.156.565.972.972 0 00.501.856.93.93 0 001.131-.147.93.93 0 00.271-.704c.017-.071.036-.142.056-.214a1.097 1.097 0 01-.066-.511c.047-.408.072-.53.237-.897.084-.193.226-.356.365-.516.172-.625.325-1.252.448-1.89.171-.87.25-1.76.349-2.642.093-.822.14-1.654.211-2.479.057-.622.11-1.243.153-1.865.04-.557.025-1.112-.013-1.666a20.51 20.51 0 00-.205-1.962c-.043-.283-.103-.564-.162-.844a7.111 7.111 0 00-.296-1c-.14-.364-.327-.713-.508-1.062a.577.577 0 00-.516-.29.598.598 0 00-.3.078" fill="#000" fill-rule="nonzero"/><mask id="b" fill="#fff"><use xlink:href="#a"/></mask><path d="M47.27 82.613c.352-.252.704-.505 1.06-.753l.422-.3.144-.099.147-.103c.071.41.224.788.464 1.177l.065.106-.608.034-.78.082a63.67 63.67 0 01-1.35.155c.153-.1.3-.2.436-.299m12.912-27.586l.153-1.392.13-1.23c.097-.968.193-1.887.187-2.805v-.623a76.392 76.392 0 00-.018-1.417l.12.043a9.381 9.381 0 01.55-.006l.11.044c.094.31.166.638.22 1 .011.108.024.224.034.338.034.303.027.639-.023 1.091-.183 1.174-.507 2.326-.819 3.44l-.161.558-.21.745-.151.547-.206.739-.1.367-.03.106c.076-.445.148-.94.214-1.545M10.97 57.79l-.227-.069a8.132 8.132 0 01-.96-.613 3.654 3.654 0 01-.395-.368 3.88 3.88 0 01-.308-.557c-.144-.377-.21-.797-.271-1.233l-.04-.364c-.075-.664-.137-1.258-.122-1.848.016-.66.04-1.36.118-2.033.118-.685.246-1.355.476-1.958.247-.549.53-1.04.841-1.462.056-.067.116-.127.181-.186.081-.06.171-.11.259-.159l.171-.047.087.013.09.016.007.507-.053 1.277a25.608 25.608 0 000 2.694c.04.647.084 1.299.13 1.95l.066.965c.062.91.112 1.815.143 2.728.01.27.016.535.019.797l.006.01a1.91 1.91 0 00-.218-.06m4.503-20.454l.23-.075.59-.19a19.723 19.723 0 001.91-.744c.238-.1.474-.2.714-.292.633-.25 1.274-.565 1.822-.839l.122-.058.57-.284c.293-.143.582-.299.875-.458l.078-.04.404-.219a109.684 109.684 0 003.662-2.021 54.79 54.79 0 001.95-1.202l.143-.093.377-.242 1.075-.698c.146-.094.29-.197.433-.299l.162-.119.12-.083.076-.054c.152-.106.264-.186.37-.277l.277-.221.088-.072c.245-.2.489-.399.722-.61l.215-.2c.28-.255.554-.504.834-.753.408-.365.82-.729 1.23-1.09l.063-.053a17.2 17.2 0 00.975-.916l.236-.245c.234-.24.586-.601.845-.947a9.39 9.39 0 00.364-.545l.05-.075.08-.124.073-.106.137-.2c.03.19.106.346.186.499l.05.09.143.277c.2.37.436.735.748 1.149.24.302.498.62.804.879.204.177.42.351.635.52l.448.349.9.697a30.71 30.71 0 002.236 1.597c.635.424 1.386.816 1.88 1.075l.125.062.078.037.103.054.255.127.57.3.218.11c.86.443 1.72.886 2.589 1.303a58.763 58.763 0 003.537 1.532l.112.05c.445.193.916.399 1.355.63a11.5 11.5 0 011.457.896c.131.113.252.24.392.42.203.262.4.546.577.829.18.292.336.594.508.983.445 1.162.781 2.465 1.055 4.099.115.975.203 1.784.23 2.573.01.239.016.476.019.712.003.206.006.409.013.611l.037.943c-.24.172-.352.549-.261.885a.848.848 0 00.314.458l-.022 1.877c0 .558-.022 1.037-.059 1.47-.028.34-.065.68-.106 1.016l-.037.333-.038.311-.037.312-.022.18c-.05.405-.087.717-.118 1.028-.069.676-.14 1.352-.224 2.027a32.529 32.529 0 01-.414 2.442 23.434 23.434 0 01-.717 2.66l-.04.12a60.55 60.55 0 01-.944 2.71c-.146.4-.287.794-.426 1.196l-.091.255-.09.259a41.592 41.592 0 01-.997 2.641l-.034.084a54.08 54.08 0 01-.841 1.859 105.8 105.8 0 01-1.118 2.254c-.688 1.327-1.604 2.585-2.341 3.594l-.212.29a21.828 21.828 0 01-1.966 2.167c-.36.358-.722.704-1.08 1.028l.103.025.068-.022-.196.118a30.456 30.456 0 00-1.121.832l-.813.589c-.193.137-.39.274-.589.407l-.003-.005-.134.05a5.787 5.787 0 00-.457.233l-.16.093c-.965.526-1.746.92-2.456 1.23-.32.13-.648.24-.982.35l-.299.099-.111.037c-.181.063-.355.122-.533.18-.343.107-.688.19-1.04.272-.255.047-.517.08-.778.112l-.26.034-.195.015-.252.016-.324.025a5.45 5.45 0 01-.234.006c-.193 0-.383-.01-.574-.022l-.124-.009a23.41 23.41 0 01-1.472-.161l-.107-.007c-.834-.119-1.713-.343-2.416-.523l-.256-.063-.276-.07a24.54 24.54 0 01-1.542-.446c-.483-.165-.96-.35-1.433-.543-.293-.13-.579-.27-.866-.41-.146-.072-.29-.147-.43-.222l-.133-.068a7.297 7.297 0 00-.352-.18 9.257 9.257 0 01-.9-.474 7.604 7.604 0 01-1.315-1.021 7.307 7.307 0 01-.541-.577l-.125-.143-.125-.14a27.944 27.944 0 00-1.006-1.034l-.124-.124c-.171-.168-.34-.336-.508-.511l-.084-.087a41.703 41.703 0 01-1.547-1.676 61.81 61.81 0 01-.763-.903c-.52-.878-1.143-1.71-1.747-2.516l-.32-.47a18.308 18.308 0 01-1.035-1.907 14.286 14.286 0 01-.327-1.033l-.034-.112a40.344 40.344 0 01-.243-.888l-.025-.093-.028-.103-.037-.134-.106-.398a29.528 29.528 0 01-.726-3.22l-.044-.24-.043-.237c-.05-.286-.1-.567-.156-.85l-.075-.408-.028-.15a56.11 56.11 0 01-.324-1.831 14.255 14.255 0 01-.112-1.084 77.866 77.866 0 01-.059-1.429l-.006-.324c-.025-.84-.047-1.666-.103-2.45-.031-.464-.068-.932-.105-1.396l-.013-.153c-.103-1.305-.209-2.656-.181-4.03.013-.52.037-1.036.066-1.557l.04-.831c.028-.698.037-1.395.044-2.096l.003-.258c.015-.888.044-1.623.087-2.245l.037-.533.02-.242c.034-.471.068-.92.114-1.368l.078-.476.08-.514.014-.09c.034-.237.068-.477.078-.72.005-.106 0-.215-.01-.32a2.53 2.53 0 01-.013-.238.834.834 0 00-.024-.227l.083.006c.593-.155 1.19-.346 1.754-.532M40.208.853l-.546.025c-.657.022-1.317.025-1.971.028h-.252l-.246.004a29.25 29.25 0 00-2.46.136c-.636.06-1.271.103-1.91.147l-.482.034c-.54.034-1.075.087-1.61.14l-.67.069c-.962.096-1.762.183-2.585.358-.816.177-1.644.448-2.192.626l-.187.059c-.838.264-1.647.67-2.36 1.027l-.726.364c-.588.297-1.174.593-1.756.9a31.202 31.202 0 00-4.435 2.828 54.068 54.068 0 00-1.884 1.567l-.066.059-.261.227c-.72.627-1.377 1.25-2.01 1.91-.438.463-.862.937-1.291 1.42l-.527.59a37.01 37.01 0 00-1.906 2.353 23.606 23.606 0 00-1.124 1.672l-.077.127-.222.352a48.35 48.35 0 00-1.345 2.245l-.143.256a99.29 99.29 0 00-.794 1.435c-.455.832-.785 1.698-1.084 2.514-.33.909-.629 1.825-.882 2.722a47.184 47.184 0 00-.379 1.514l-.069.288-.071.284-.116.458c-.208.816-.383 1.61-.629 2.837-.33 1.7-.548 3.51-.694 5.696-.1 1.557-.175 3.267-.23 5.378a86.878 86.878 0 00.018 3.946l.022 1.307c.015.873.053 1.726.11 2.61.03.439.039.875.049 1.314l.006.159.003.168.018.773c.048 1.448.14 2.868.24 4.32l.013.189.012.196.04.573.01.153c.405 1.401.759 2.815 1.13 4.222.19.714.368 1.43.555 2.143.15.567.35 1.115.554 1.66.408 1.018.85 2.012 1.274 3.021.405.956.8 1.912 1.217 2.862a90.54 90.54 0 001.467 3.124c.159.075.306.177.436.308.54.535.997 1.167 1.47 1.762.377.48.757.957 1.137 1.436.788 1.003 1.579 2.006 2.36 3.014.502.648 1.003 1.296 1.504 1.94.602.72 1.203 1.436 1.82 2.14.162.118.296.271.392.442.108.122.218.243.327.361.252.28.508.558.756.841l.134.15c.255.19.517.368.791.53.054.018.11.037.165.052.028.003.057.003.088.006.392-.19.88-.312 1.319-.24a44.725 44.725 0 00.634-1.718c.183-.551.308-1.137.426-1.7l.081-.378a25.29 25.29 0 00.424-2.572 8.134 8.134 0 00-.107-2.258c.193.215.346.374.499.536l.25.274c.23.256.41.455.61.635.323.296.65.558.971.773a10.544 10.544 0 001.57.918l.074.04.442.225c.415.215.835.424 1.265.617.819.382 1.66.704 2.494.95.816.252 1.604.466 2.345.638l.256.062.105.031c.25.065.496.128.742.181.357.072.716.118 1.074.165l.115.015.28.038c.626.084 1.303.162 1.99.162.172 0 .35-.006.524-.016.499-.034.99-.102 1.482-.171a9.703 9.703 0 001.274-.268c.365-.103.723-.224 1.08-.348l.097-.038.097-.03a.351.351 0 00.133.02c.12 0 .247-.014.393-.043.162-.034.318-.103.468-.168l.205-.097c.367-.149.723-.32 1.08-.495-.037.034-.04.1-.04.156a1.76 1.76 0 00.838 1.523l.137.087c.031.165.087.34.159.517.27.697.694 1.327 1.03 1.83l.2.3c.523.8 1.233 1.535 2.104 2.187.25.183.521.345.789.503l.13.082.343.209c.439.289.878.57 1.333.831l.128.074c.541.312 1.028.598 1.466.931.184.175.356.368.52.595.174.26.34.564.493.907.152.47.258.981.342 1.656.053.739.08 1.374.08 1.94.004.337-.009.677-.02 1.012l-.004.091a24.07 24.07 0 00-.019 1.028 80.412 80.412 0 01-.08 4.36c-.025.7.012 1.398.055 2.114l.01.121c.044.794.093 1.614.2 2.392.108.791.357 1.536.563 2.096.364 1.018.965 2.024 1.78 2.993.412.482.79.862 1.185 1.199l.245.206c.234.199.467.395.701.588.193.155.38.302.595.43.109.068.23.124.355.18l.196.09.29.141c.48.234.95.454 1.417.626.427.158.859.32 1.28.504.866.449 1.647 1.06 2.367 1.648.299.264.585.517.831.81.075.118.146.251.212.389.218.704.336 1.473.436 2.09l.021.136c.178 1.13.789 2.286 1.723 3.251.582.592 1.28.966 2.064 1.358.377.19.766.387 1.119.63.342.233.663.482.98.74.48.427.96.904 1.467 1.458a27.406 27.406 0 001.501 1.529c.352.324.713.635 1.08.922.474.367 1.041.604 1.583.803.81.315 1.753.474 2.441.585.95.163 1.7.24 2.38.247h.084c.364 0 .728-.01 1.093-.019.405-.012.76-.019 1.115-.019.404 0 .81.01 1.217.023.293.008.589.015.884.021.492 0 .932-.044 1.34-.084.504-.06.918-.218 1.27-.362 1.252-.485 1.617-1.856 1.94-3.061l.05-.2c.162-.597.303-1.2.443-1.805.301-1.323.564-2.684.784-4.052.2-1.254.312-2.485.334-3.662.012-.832-.12-1.685-.224-2.37l-.026-.17a53.342 53.342 0 01-.208-1.559 16.838 16.838 0 01.159-3.496c.14-.592.314-1.193.485-1.773.222-.753.455-1.532.608-2.329.327-1.738.539-3.298.645-4.77.056-.752.111-1.502.152-2.255.018-.346.034-.695.038-1.04a5.489 5.489 0 00-.063-.798l-.022-.206c-.034-.267-.137-.529-.211-.719l-.075-.187a8.04 8.04 0 00-.265-.598c-.324-.675-.784-1.33-1.12-1.802l-.24-.343-.403-.585a64.319 64.319 0 00-1.114-1.601l-.364-.508-.346-.48-.42-.582c-.468-.685-.95-1.433-1.303-2.261l-.047-.143-.046-.14a5.365 5.365 0 01-.228-1.047c-.052-.629-.1-1.298-.052-1.97.055-.724.14-1.45.25-2.15.198-1.261.375-2.594.556-4.188.197-1.766.215-3.413.056-4.899-.03-.295-.118-.576-.214-.887l-.085-.28c-.1-.34-.212-.677-.33-1.01l-.068-.2c-.234-.669-.511-1.46-.876-2.154-.335-.66-.747-1.317-1.108-1.9l-.423-.678c-.527-.866-1.225-2.006-1.975-3.043a121.76 121.76 0 00-1.784-2.42l-.14-.187c-.651-.859-1.3-1.718-1.928-2.584l-.63-.872-.314-.44c-.174-.255-.339-.516-.507-.778l-.054-.078-.049-.075-.318-.489c-.28-.43-.567-.844-.96-1.202.02-.488.014-1 .004-1.52l-.018-.824c-.023-1.856-.044-3.704-.091-5.547-.022-1.04-.137-2.092-.227-2.94l-.025-.234-.022-.21a55.87 55.87 0 01-.18-1.9c-.107-1.533-.278-3.56-.654-5.635-.256-1.43-.63-2.846-.963-4.097l-.18-.667c-.244-.91-.496-1.71-.776-2.442a42.74 42.74 0 01-.535-1.516 73.544 73.544 0 00-.322-.931A89.688 89.688 0 0171.792 27c-.303-.966-.688-1.884-1.159-2.987l-.047-.112-.106-.246a128.68 128.68 0 00-.856-2.02 35.395 35.395 0 00-.508-1.054l-.07-.149-.073-.15-.071-.142-.25-.495c-.351-.701-.716-1.424-1.105-2.078a46.76 46.76 0 00-1.165-1.84l-.053-.081a33.168 33.168 0 00-1.268-1.863 35.234 35.234 0 00-.694-.887l-.155-.193-.079-.097-.07-.087-.072-.084-.368-.446a23.676 23.676 0 00-1.432-1.597c-.57-.56-1.2-1.043-1.707-1.433l-.523-.441-.178-.147c-.504-.417-.925-.77-1.335-1.065a18.518 18.518 0 00-2.2-1.352 177.878 177.878 0 01-4.073-2.267C49.737 2.295 47.27 1.386 44.848.978a15.686 15.686 0 00-2.536-.18c-.7 0-1.404.027-2.104.055M14.979 90.937c.003-.056.006-.109.006-.165l-.016-.016c-.037-.036-.074-.074-.111-.108.04.093.08.193.121.29" fill="#000" fill-rule="nonzero" mask="url(#b)"/><path d="M65.96 23.422c.47.894.925 1.794 1.367 2.7.356.732.645 1.489.934 2.249l-.037-.097c.277.76.542 1.523.828 2.276.289.742.593 1.478.885 2.22.273.758.545 1.52.781 2.29.259.85.515 1.7.783 2.547.245.773.457 1.554.74 2.31.296.796.612 1.588.926 2.376.14.39.27.78.376 1.181.121.452.227.907.333 1.364.193.82.33 1.648.515 2.47.204.906.389 1.815.578 2.725.178.869.337 1.747.586 2.597.262.89.455 1.797.72 2.685.282.95.647 1.87 1.03 2.78.358.848.682 1.71 1.053 2.55.373.858.785 1.695 1.174 2.542.299.641.588 1.29.884 1.931.309.67.657 1.317 1.012 1.968.33.604.673 1.202.987 1.819.15.293.296.588.437.884.131.284.25.567.364.855.183.526.361 1.053.523 1.587.18.59.255 1.22.344 1.829a52.48 52.48 0 01.179 5.312c-.025 1.908-.324 3.802-.595 5.689-.103.72-.236 1.439-.355 2.155l.066-.361c-.215 1.215-.424 2.432-.685 3.634-.13.601-.309 1.196-.464 1.79-.153.583-.234 1.184-.396 1.767-.137.485.028 1.006.464 1.286.492.315 1.246.19 1.548-.343.489-.863.838-1.83 1.127-2.78.15-.486.284-.966.402-1.461.118-.477.202-.969.299-1.451.183-.89.336-1.788.498-2.681a99.37 99.37 0 00.53-3.264c.127-.916.25-1.828.333-2.748.04-.472.037-.952.044-1.426.006-.448.003-.897-.004-1.345a57.616 57.616 0 00-.137-2.918c-.078-1.024-.18-2.052-.433-3.051-.112-.452-.27-.892-.423-1.33a35.265 35.265 0 00-.607-1.59c-.072-.182-.172-.36-.259-.534-.109-.218-.218-.44-.33-.655a39.88 39.88 0 00-.697-1.267c-.47-.813-.944-1.629-1.346-2.479-.417-.878-.832-1.76-1.261-2.635-.486-.993-.966-1.983-1.392-3.008-.393-.95-.838-1.88-1.225-2.835a49.042 49.042 0 01-.398-1.15c-.14-.434-.24-.88-.367-1.315-.255-.853-.545-1.694-.76-2.557-.224-.9-.423-1.806-.635-2.71-.206-.858-.433-1.712-.654-2.569-.11-.426-.24-.846-.364-1.27-.125-.427-.23-.865-.384-1.283-.183-.502-.37-.997-.591-1.482a56.96 56.96 0 01-.505-1.121c-.19-.433-.383-.866-.567-1.302-.171-.414-.324-.835-.501-1.246-.18-.423-.355-.85-.533-1.273-.17-.405-.364-.797-.535-1.2-.38-.906-.772-1.8-1.196-2.687-.405-.847-.834-1.682-1.227-2.535-.39-.85-.741-1.719-1.102-2.581a34.754 34.754 0 00-1.162-2.442c-.299-.576-.594-1.149-.897-1.722a.319.319 0 00-.29-.184c-.238 0-.481.243-.336.52" fill="#000" fill-rule="nonzero" mask="url(#b)"/><path d="M73.28 54.829a.435.435 0 00-.179.585c.281.517.57 1.027.838 1.551.212.408.42.816.63 1.224.286.557.582 1.111.844 1.678.299.658.604 1.312.897 1.972.011.028.025.056.038.085.095.31.202.619.316.924.187.501.415.974.645 1.457a.494.494 0 00.899-.064.883.883 0 00.465-.104.926.926 0 00.442-.526c.05-.209.057-.315.025-.527-.015-.118-.022-.242-.043-.361l-.075-.43c-.05-.283-.103-.564-.162-.843-.056-.275-.116-.549-.172-.825l-.083-.402c-.02-.091-.038-.184-.06-.275-.037-.19-.121-.37-.19-.551a.953.953 0 00-.32-.349l-.035-.02a24.99 24.99 0 00-.287-.811 9.641 9.641 0 00-.385-.866 2.413 2.413 0 00-.57-.722c-.138-.128-.283-.215-.48-.222a.71.71 0 00-.61.318.516.516 0 00-.08.14l-.076.16a1.094 1.094 0 00-.037.301c-.01.162.044.327.068.486.027.172.05.346.079.518-.083-.16-.166-.32-.247-.48-.218-.418-.433-.835-.648-1.252-.277-.536-.57-1.062-.86-1.592a.444.444 0 00-.588-.177M52.45 79.293c-.127.04-.234.078-.346.149-.1.063-.193.14-.29.212-.074.056-.143.119-.217.178-.225.177-.446.358-.67.539a8.61 8.61 0 01-.187.147.873.873 0 00-.53-.222 2.156 2.156 0 00-.634.04c-.197.044-.387.137-.573.205a8.018 8.018 0 00-.745.337c-.283.137-.563.28-.84.43-.29.159-.586.346-.813.585-.402.417-.617 1.062-.35 1.61.03.06.07.116.115.167a6.44 6.44 0 00-.288.2c-.181.138-.243.424-.193.633.07.305.32.467.613.508.22.028.436-.069.62-.178.215-.125.414-.277.613-.423.203-.15.399-.315.595-.477a27.7 27.7 0 00.88-.76c.26-.224.509-.458.761-.688.128-.119.256-.237.386-.355.063-.06.128-.115.19-.171.054-.048.105-.088.153-.137l.57-.458.362-.296-.113.287c-.172.442-.352.88-.53 1.32-.14.355-.258.72-.383 1.08a51.59 51.59 0 00-.579 1.772.393.393 0 00.252.487.39.39 0 00.487-.25c.165-.548.342-1.083.529-1.622.127-.368.24-.745.389-1.103.343-.826.67-1.66 1.043-2.475.062-.13.123-.26.177-.393.057-.133.075-.28.097-.42.044-.244-.212-.474-.448-.474a.322.322 0 00-.103.016m21.473-14.748c-.047.91-.044 1.818-.018 2.728.024.878.046 1.76.096 2.637.05.872.087 1.741.165 2.61.08.925.156 1.853.252 2.778.27 2.627.54 5.256.823 7.882.037.406.076.812.112 1.218.034.38.078.757.1 1.136l.08 1.5c-.086-.3-.151-.604-.228-.902-.202-.794-.401-1.585-.594-2.379a410.046 410.046 0 00-4.135-15.845c-.055-.188-.111-.376-.16-.566 0-.04-.006-.08-.018-.12a1.295 1.295 0 00-.035-.102c-.09-.249-.302-.423-.578-.361a.49.49 0 00-.362.58c.087.373.199.743.305 1.11l.505 1.81c.162.58.315 1.159.464 1.738.445 1.722.916 3.438 1.326 5.17.421 1.78.86 3.563 1.243 5.353.184.875.374 1.75.557 2.625.184.881.349 1.77.56 2.644.128.523.254 1.044.396 1.563.069.25.137.499.212.748.038.134.078.265.112.399.047.168.097.333.184.485.103.184.265.312.436.427.474.318 1.118.053 1.293-.467.09-.265.186-.52.24-.794.062-.318.102-.636.13-.96.047-.532.047-1.074.025-1.61-.018-.513-.04-1.03-.062-1.544-.034-.897-.121-1.79-.193-2.688-.075-.952-.184-1.906-.28-2.858-.088-.873-.169-1.745-.253-2.616-.107-1.097-.217-2.195-.327-3.292-.074-.834-.146-1.667-.221-2.498-.075-.844-.103-1.694-.152-2.54-.094-1.642-.122-3.287-.216-4.927-.012-.247-.065-.455-.236-.642a.89.89 0 00-.62-.286l-.034-.001a.902.902 0 00-.894.857M1.38 44.21c-.013.35.274.686.636.686a.67.67 0 00.684-.636c.013-.348-.274-.685-.635-.685a.671.671 0 00-.685.636m-.126 5.399c-.05 1.542-.084 3.102.01 4.644.04.732.124 1.46.195 2.19.069.669.196 1.332.275 1.999.055.636.132 1.262.243 1.89.111.62.242 1.233.351 1.853.206 1.19.39 2.385.592 3.574.205 1.219.46 2.423.856 3.597.44 1.314.957 2.601 1.449 3.9.423 1.12.918 2.23 1.52 3.27.619 1.064 1.288 2.095 1.948 3.132.377.595.751 1.187 1.163 1.753.398.549.825 1.06 1.276 1.564.38.423.77.844 1.152 1.27.408.452.807.919 1.246 1.342.589.57 1.209 1.106 1.806 1.67.542.51 1.01 1.102 1.51 1.653.533.59 1.09 1.156 1.598 1.77.233.284.462.573.686.867.553.942.987 1.962 1.494 2.925.125.234.246.464.364.698.044.084.088.165.134.249.02.034.038.068.06.103.18.315.308.442.585.66a.992.992 0 00.405.193c.137.022.274.047.41.072.281.009.546-.05.795-.184.137-.059.264-.147.362-.258.248-.29.28-.346.438-.701.085-.184.082-.411.11-.614.012-.102.027-.205.04-.31.035-.262.031-.522.006-.78l.025-.037c.223-.309.366-.691.522-1.037.255-.548.493-1.094.658-1.685.212-.753.268-1.539.379-2.311.075-.379.157-.755.213-1.14a5.76 5.76 0 00-.003-1.566c-.065-.51-.302-.993-.532-1.444-.2-.39-.427-.767-.667-1.134-1.026-1.559-2.202-3.005-3.425-4.411a5.119 5.119 0 00-.197-.239 1.569 1.569 0 00-2.47.22c-.243.382-.264.767-.205 1.2.044.327.227.608.414.87.2.277.396.557.598.83l.074.101c.083.18.16.362.235.546.188.574.365 1.14.53 1.72a1.649 1.649 0 00-1.941 1.107l-.04.22a16.727 16.727 0 00-.853-.827 74.922 74.922 0 01-2.312-2.863c-.514-.67-1.046-1.325-1.546-2.003a52.827 52.827 0 01-3.614-6.698c-.233-.517-.426-1.062-.626-1.595-.224-.588-.445-1.18-.67-1.772-.476-1.251-.952-2.5-1.453-3.743-.116-.287-.24-.573-.365-.856-.274-.627-1.078-.926-1.71-.779a1.544 1.544 0 00-.694.376l-.022-.08c-.343-1.24-.657-2.488-.984-3.731-.156-.595-.318-1.186-.445-1.788-.125-.591-.212-1.192-.328-1.784-.111-.56-.236-1.112-.314-1.678-.077-.573-.155-1.15-.223-1.726-.1-1.405-.11-2.808-.07-4.213a.516.516 0 00-.488-.533h-.018a.516.516 0 00-.512.493zm43.411 35.898l-.083.1a.925.925 0 01.083-.1m-1.16-1.469c-.474.346-.664.997-.8 1.536-.042.174-.085.349-.125.523-.085.37-.125.71-.075 1.09.078.607.217 1.208.355 1.803.125.545.224 1.096.377 1.635.165.588.45 1.102.725 1.641.206.408.452.825.791 1.133.237.219.464.405.745.555.205.109.413.215.62.327.51.277 1.018.517 1.59.635.517.109 1.04.166 1.56.244.144.03.284.068.42.116l.053.031c.192.316.37.649.515.991.114.337.216.68.346 1.016.115.296.308.539.504.794.168.153.346.296.53.43.205.156.554.262.813.33.441.118.921.15 1.379.168.782.035 1.51-.48 1.747-1.226.296-.923-.233-1.913-1.143-2.215-.13-.043-.26-.086-.388-.13-.142-.465-.277-.93-.487-1.374-.339-.723-.825-1.426-1.476-1.893-.632-.455-1.364-.652-2.118-.773-.65-.101-1.31-.08-1.962-.149a8.173 8.173 0 01-1.129-.395 3.219 3.219 0 01-.19-.113 7.84 7.84 0 01-.682-.831c-.526-.798-.915-1.683-1.258-2.574a6.425 6.425 0 01-.221-.765c.005-.214.026-.423.05-.635.04-.173.085-.337.145-.503a.776.776 0 01.06-.045c.41-.305.37-.981.052-1.327a.94.94 0 00-.65-.299h-.034c-.254 0-.44.1-.64.25m-4.3-45.099c.12.028.242.05.364.07l-.068-.032a2.325 2.325 0 00-.434-.165l.138.127m-5.869 22.476c-.118.72-.21 1.44-.302 2.16l.007-.045a3.22 3.22 0 00-.014.093l-.002.016v-.006c-.018.13-.035.26-.062.39-.022.108-.066.217-.069.33l.004-.004c0 .198.154.383.376.383a.418.418 0 00.08-.006c.012.032.026.063.04.094a5.522 5.522 0 00-.469-.05 1.313 1.313 0 00-.492.059.842.842 0 00-.38.24 1.127 1.127 0 00-.224.429c-.062.228-.056.524.068.732.23.383.713.504 1.13.563.876.122 1.76.188 2.645.16a17.509 17.509 0 002.544-.256c.251-.044.504-.087.755-.136.133-.02.267-.043.397-.07.284-.059.567-.111.845-.199.354-.112.712-.301.98-.564.106-.108.212-.264.234-.417a.69.69 0 00-.013-.311.61.61 0 00-.265-.345.432.432 0 00-.102-.138.664.664 0 00-.236-.14c-.06-.025-.122-.025-.185-.028-.077-.01-.168.022-.248.038l-.144.023c-.387.041-.772.065-1.158.091-.499.031-.997.069-1.492.106-.44.035-.878.038-1.318.044-.513.003-1.032.023-1.544-.023a3.095 3.095 0 01-.495-.114.71.71 0 01-.041-.025.893.893 0 01-.087-.087 1.19 1.19 0 01-.089-.146 1.681 1.681 0 01-.066-.258 3.345 3.345 0 010-.514l.118-.4c.122-.428.222-.864.268-1.307.025-.138.037-.278-.081-.39a.372.372 0 00-.184-.092.41.41 0 00-.328-.176c-.178 0-.372.115-.4.296m-8.645-20.494c.01.001.019.004.028.006l-.024-.014-.004.008m-8.54-.533a.76.76 0 00-.271 1.037c.106.18.262.275.452.346.265.096.548.143.822.199.234.047.47.09.707.134.396.075.794.156 1.19.24.812.168 1.61.411 2.398.67.822.267 1.64.554 2.454.844.794.283 1.581.591 2.375.871 1.01.352 2.059.608 3.096.863a.961.961 0 00.039.01c.033.034.067.066.101.099.09.084.196.155.311.196.103.034.25.062.353.022.059-.019.118-.044.173-.068.055-.04.107-.082.157-.124.495-.084.818-.518 1.024-.957.13-.275.234-.564.346-.847.105-.274.215-.548.317-.823.084-.214.022-.501-.09-.69A.902.902 0 0031.57 42a.88.88 0 00-.688.09c-.063.046-.122.093-.185.14a.917.917 0 00-.23.395c-.156.385-.289.778-.431 1.168-.187-.066-.379-.118-.566-.171-.398-.112-.797-.222-1.192-.337a40.22 40.22 0 01-2.467-.797 84.58 84.58 0 00-2.454-.834 148.85 148.85 0 00-1.236-.396c-.392-.127-.797-.222-1.196-.318a34.086 34.086 0 00-.922-.208 9.998 9.998 0 00-1.102-.165l-.577-.066c-.48-.076-.964-.11-1.448-.164-.047-.007-.095-.014-.143-.023a1.37 1.37 0 00-.216-.02.713.713 0 00-.366.095m37.626-2.536a17.36 17.36 0 00-.847.38c-.396.184-.779.39-1.171.58-.835.407-1.7.759-2.554 1.133-.857.374-1.703.766-2.541 1.18-.414.202-.832.405-1.242.62-.428.227-.864.44-1.28.688-.755.446-1.5.913-2.264 1.344l-.132-.123-.731-.695c-.346-.33-.9-.345-1.243 0-.333.334-.349.913 0 1.243.362.349.72.7 1.097 1.031.268.234.541.47.921.47.337 0 .65-.212.943-.36.387-.2.758-.425 1.13-.646.425-.252.855-.498 1.281-.748.424-.248.876-.46 1.314-.688.418-.217.844-.413 1.27-.619.845-.408 1.705-.79 2.567-1.158l1.819-.776-.224.093a30.718 30.718 0 001.538-.704c.23-.111.461-.22.695-.327.13-.055.261-.114.392-.173.155-.071.295-.177.426-.29a.802.802 0 00.337-.458c.084-.296-.02-.549-.203-.776-.181-.222-.488-.317-.79-.317-.181 0-.36.034-.508.096" fill="#000" fill-rule="nonzero" mask="url(#b)"/><path d="M31.43 41.227c-.205.103-.305.33-.405.523a5.254 5.254 0 01-.224.387c-.193.317-.389.632-.582.95a.474.474 0 00.168.638.47.47 0 00.638-.168l.151-.248a.567.567 0 00.606.018.592.592 0 00.265-.343c.071-.19.15-.377.205-.573.028-.1.044-.203.06-.305.018-.088.025-.175.025-.265a.68.68 0 00-.06-.27.605.605 0 00-.265-.344.539.539 0 00-.28-.078.668.668 0 00-.302.078m7.719.517c-.08.019-.155.053-.23.09a.728.728 0 00-.246.24.822.822 0 00-.1.334c-.024.299.19.6.374.822.259.314.589.57.894.834.13.113.303.16.458.117.055.052.113.103.174.154.134.112.27.187.455.187a.644.644 0 00.641-.642c0-.17-.067-.294-.165-.423a9.932 9.932 0 00-.728-.931c-.129-.138-.271-.262-.412-.386-.202-.181-.46-.353-.738-.396a.808.808 0 00-.377 0" fill="#000" fill-rule="nonzero" mask="url(#b)"/><path d="M38 68.007c-1.368.082-2.74.238-4.107.38-.486.047-.893.513-.893 1.21 0 .626.407 1.267.893 1.218.81-.083 1.62-.165 2.432-.243l1.12-.102c.246-.022.493-.054.74-.056.146.153.293.302.44.452.157.172.3.352.434.556.117.241.23.487.347.732.146.3.324.58.493.857.225.368.457.727.675 1.096.181.35.32.725.503 1.072.16.31.339.543.618.645.264.102.556.049.796-.141.228-.184.403-.49.474-.838.047-.248.047-.5 0-.747a1.591 1.591 0 00-.24-.584c-.073-.148-.143-.298-.22-.444a8.068 8.068 0 00-.568-.946c-.317-.463-.644-.91-.95-1.39-.195-.377-.386-.76-.613-1.103-.226-.344-.536-.624-.818-.881a11.81 11.81 0 01-.478-.442c-.257-.25-.566-.308-.873-.308-.069 0-.137.002-.206.007" fill="#571010" fill-rule="nonzero" mask="url(#b)"/><path d="M30.166 76.57l-.04.114c.013-.04.026-.078.04-.114m2.497-7.293a56.831 56.831 0 00-.975 2.398c-.25.656-.47 1.327-.708 1.984-.215.592-.456 1.173-.573 1.807a9.745 9.745 0 01-.307 1.298 1.67 1.67 0 00-.1.509c-.003.228.05.433.125.638.12.31.341.448.573.567.01.005.018.012.026.018.419.466.797.985 1.182 1.487.26.336.538.638.81.96.158.18.297.344.475.512.346.32.877.335 1.288.382.97.107 1.954.097 2.926.125.444.014.888.033 1.329.038.203 0 .407 0 .61-.029.192-.022.384-.05.568-.125a2.11 2.11 0 00.73-.512c.34-.364.633-.839.833-1.337.193-.484.41-.94.618-1.411.414-.932.72-1.919.885-2.967.079-.525-.05-1.052-.44-1.336a.801.801 0 00-.74-.122.971.971 0 00-.57.546 11.2 11.2 0 00-.206.575c-.11.309-.216.62-.321.929-.18.493-.41.957-.627 1.426-.131.283-.263.567-.384.86-.082.198-.16.391-.263.577a3.698 3.698 0 01-.173.23c-.35.023-.701.009-1.047.018-.468.009-.93.023-1.393.032-.846.014-1.71.053-2.555-.053l-.037-.01c-.046-.055-.092-.112-.14-.164-.13-.15-.278-.285-.413-.434-.332-.35-.63-.755-.968-1.085-.257-.252-.531-.475-.795-.717a1.986 1.986 0 00-.217-.17c.047-.151.091-.303.13-.46.094-.358.117-.73.212-1.094.224-.858.505-1.7.778-2.543.13-.357.262-.711.392-1.07.181-.494.403-.97.607-1.449.173-.395.082-.889-.238-1.122a.562.562 0 00-.332-.108.632.632 0 00-.575.402" fill="#571010" fill-rule="nonzero" mask="url(#b)"/><path d="M32.4 69.69a87.37 87.37 0 01-.471 2.842 19.46 19.46 0 01-.573 2.34c.03-.094.059-.19.089-.28-.1.318-.21.638-.292.963a5.75 5.75 0 00-.15.995c-.03.361.173.75.392.926.123.1.255.144.398.149a.666.666 0 00.557-.316c.083-.15.17-.29.243-.448.076-.166.126-.374.182-.555.067-.227.137-.448.2-.678a20.23 20.23 0 00.404-1.645c.106-.533.186-1.08.276-1.622.112-.692.221-1.384.32-2.08.044-.302.037-.582-.082-.858-.106-.248-.282-.433-.487-.511a.598.598 0 00-.206-.037c-.356 0-.728.316-.8.814" fill="#571010" fill-rule="nonzero" mask="url(#b)"/><path d="M39.837 71.548c-.166.025-.335.052-.501.075-.353.052-.706.1-1.059.143-1.47.199-2.946.095-4.412-.094-.216-.03-.46.137-.608.33a1.333 1.333 0 00-.257.804c0 .297.094.585.257.798.172.228.37.298.608.332 1.487.188 2.993.292 4.48.037.43-.071.858-.141 1.286-.236.378-.09.876-.16 1.153-.553s.3-1.003 0-1.395a.68.68 0 00-.533-.288l-.03-.001c-.128 0-.257.027-.384.048m-2.354 6.136c-.535.07-1.07.143-1.606.213l-.941.126c-.376.05-.755.098-1.123.19a1.156 1.156 0 00-.455.234.785.785 0 00-.207.226c-.048.084-.08.172-.109.262-.048.154-.042.336-.042.493 0 .147.007.298.01.444.007.207.156.378.348.378.184 0 .35-.17.348-.378-.007-.21-.015-.421.002-.632l.012-.055a.5.5 0 01.018-.037c.022-.015.045-.03.069-.044.089-.035.18-.059.274-.077.685-.099 1.379-.12 2.066-.165.58-.038 1.164-.072 1.744-.024.081.015.16.036.24.062.116.035.222.04.33.029h.017a.49.49 0 00.367-.168c.12-.133.194-.367.134-.552a.854.854 0 00-.323-.455c-.136-.098-.306-.116-.465-.125a1.155 1.155 0 00-.096-.004c-.204 0-.41.035-.612.06" fill="#571010" fill-rule="nonzero" mask="url(#b)"/><path d="M36.704 72.403c-.296.024-.593.045-.89.07-.208.02-.417.064-.626.1-.32.055-.64.11-.96.185a4.648 4.648 0 00-.785.26 1.01 1.01 0 00-.584.814c-.022.174-.025.34.006.5-.092.163-.174.342-.26.51l-.261.524A3.917 3.917 0 0032 77.021c.006.26.069.45.147.67.133.365.411.54.653.687.002.077.01.151.022.218.065.37.241.57.46.709.326.2.704-.075 1.005-.255.176-.105.356-.19.53-.284.312-.16.618-.296.931-.426.535-.224 1.085-.352 1.633-.479l.178-.035c.086-.018.176-.026.265-.039.013.025.024.049.038.073.218.41.61.466.932.41a7.98 7.98 0 00.67-.14c.155-.04.3-.095.446-.174.231-.13.424-.33.604-.59.287-.43.453-.98.482-1.589a4.617 4.617 0 00-.13-1.22 8.151 8.151 0 00-.186-.69c-.108-.355-.382-.695-.633-.79a2.54 2.54 0 00-.043-.015c-.106-.394-.356-.636-.635-.649-.483-.035-.966-.025-1.449-.035a47.812 47.812 0 00-.43-.003c-.262 0-.524.005-.787.028" fill="#571010" fill-rule="nonzero" mask="url(#b)"/></g></svg>