<svg width="500" height="600" xmlns="http://www.w3.org/2000/svg" xmlns:xlink="http://www.w3.org/1999/xlink"><defs><path id="a" d="M0.0000873015873 0.204940711L54.7097913 0.204940711 54.7097913 60 0.0000873015873 60z"/><path id="c" d="M0.182587719 0.351478873L74.7341323 0.351478873 74.7341323 123.695713 0.182587719 123.695713z"/></defs><g fill="none" fill-rule="evenodd"><g fill="#161616"><path d="M10.3249356,5.55269355 C10.4723025,5.58340323 10.6144759,5.61923118 10.7572985,5.65953763 C10.8780485,5.71775806 10.9936049,5.7798172 11.1098106,5.84763441 C11.6596775,6.28332796 12.1686452,6.75037097 12.6451533,7.26411828 C12.9249557,7.63135484 13.1690525,8.01266667 13.3897783,8.41829032 C13.7435888,9.29991398 13.9682097,10.2135269 14.1473872,11.1437742 C14.2934557,12.1271237 14.3843428,13.1098333 14.4531573,14.1027796 C14.5284638,15.1712204 14.6076654,16.2371022 14.5583267,17.3087419 C14.4628952,17.9318925 14.3070888,18.5307312 14.1025928,19.1282903 C13.5871331,20.3150914 12.9405364,21.4353548 12.2062985,22.5031559 C11.7960081,23.0348172 11.3636452,23.553043 10.8741533,24.0136882 C10.7235404,24.1166935 10.5716291,24.2126613 10.4132259,24.3047903 C10.1042097,24.421871 9.79259684,24.5165591 9.46994765,24.5939731 C9.17845975,24.6214839 8.89086701,24.633 8.60067749,24.6266022 C8.36372184,24.582457 8.13260894,24.5287151 7.90344362,24.4628172 C7.59247991,24.3169462 7.29579846,24.1550806 7.00560894,23.9727419 C6.59986297,23.6566882 6.21618959,23.3259194 5.85848394,22.958043 C5.71306459,22.7539516 5.58387507,22.5441022 5.46312507,22.3240161 C4.85158475,20.8448333 4.50361701,19.2786398 4.15110491,17.7239624 C4.06800813,17.2390054 3.98620975,16.7546882 3.90376217,16.2690914 C3.68498394,14.9786452 3.64992749,13.6446935 3.74665733,12.3376129 C3.89467346,11.2614946 4.18421378,10.2327204 4.5549033,9.21482258 C4.73408071,8.78168817 4.93078636,8.36134946 5.14891539,7.9518871 C5.58647184,7.85847849 5.99935894,7.63967204 6.3259033,7.29994624 C6.57779039,7.03699462 6.83227426,6.77916129 7.09974201,6.5322043 C7.22243959,6.45031183 7.34383878,6.37737634 7.4723791,6.30827957 C8.14234684,6.0222957 8.81556055,5.75806452 9.52447991,5.58596237 C9.79324604,5.56037097 10.0574678,5.54821505 10.3249356,5.55269355 M9.4043791,0.0620591398 C8.89216539,0.129876344 8.38774201,0.227123656 7.89305652,0.377473118 C7.30748394,0.554693548 6.74398394,0.866908602 6.19931055,1.13433871 C5.41313717,1.51437097 4.68279442,2.13176344 4.0615162,2.72676344 C3.74406055,3.03130108 3.51359684,3.43884409 3.26235894,3.79328495 C3.04682668,4.09078495 2.85920975,4.40619892 2.65860894,4.71585484 C2.36777023,5.1637043 2.31583475,5.71647849 2.43788313,6.23342473 C2.25481055,6.53732258 2.08277426,6.84569892 1.92112507,7.16239247 C1.53031055,7.92949462 1.21869765,8.75417742 0.926560554,9.56158602 C0.67337507,10.2640699 0.470177489,10.965914 0.318266199,11.6959086 C0.16116136,12.4578925 0.107927489,13.2480269 0.0469032956,14.0228065 C-0.0394394464,15.095086 0.00860087622,16.1667258 0.0696250698,17.2390054 C0.133246038,18.4085323 0.226729908,19.5780591 0.300737973,20.747586 C0.335794425,21.2824462 0.358516199,21.8173065 0.386431521,22.3521667 C0.457842812,23.6816398 0.799967812,24.9336989 1.57380652,26.0386075 C2.43853233,27.2733925 3.67849201,28.2727366 4.95870168,29.0577527 C6.43756459,29.9675269 8.30659281,30.2797419 10.017867,30.0974032 C10.9059638,30.0020753 11.7726372,29.7871075 12.5841291,29.4224301 C13.0307743,29.2202581 13.4339235,29.0302419 13.8422662,28.7724086 C14.2350283,28.5254516 14.5752057,28.1978817 14.9303146,27.9029409 C15.4503186,27.4704462 15.8839799,26.8959194 16.3098509,26.3783333 C16.9590444,25.5888387 17.5192985,24.7212903 18.0542339,23.8569409 C18.8910444,22.5025161 19.540238,21.0329301 19.9894799,19.5108817 C20.2147501,18.7412204 20.2634396,17.9312527 20.3367985,17.1417581 C20.4004194,16.4591075 20.3744517,15.7444677 20.3290081,15.0598978 C20.2809678,14.3599731 20.2329275,13.6600484 20.1868347,12.9607634 C20.0933509,11.5781882 19.8473065,10.1988118 19.5584154,8.84694624 C19.3733952,7.98195699 19.1169638,7.15727419 18.7469235,6.35242473 C18.5411291,5.90009677 18.3281936,5.46824194 18.084746,5.03830645 C17.7906614,4.52072043 17.3953025,4.07095161 17.0122783,3.61862366 C16.4591654,2.9666828 15.8606089,2.37936022 15.1886936,1.84194086 C14.8387783,1.56171505 14.4531573,1.27956989 14.0805202,1.03965054 C13.5884315,0.722317204 13.0586896,0.499672043 12.4984356,0.322451613 C11.8063952,0.103645161 11.0955283,-4.61852778e-14 10.3781694,-4.61852778e-14 C10.0542218,-4.61852778e-14 9.72962507,0.0211129032 9.4043791,0.0620591398" transform="translate(254.455 149.285)"/><path d="M5.21976949,16.6944396 C4.35877609,18.0426795 3.90877047,19.5798032 3.66751023,21.1520984 C3.53549991,22.0170562 3.50233476,22.9126261 3.48217555,23.7880051 C3.4717708,24.1338579 3.5153407,24.4745002 3.56866507,24.8157937 C3.68051618,25.5205259 3.79496847,26.070243 4.15263189,26.6955137 C4.4907864,27.2862642 4.96550331,27.7923426 5.45582735,28.258039 C5.81414107,28.5986813 6.32462432,28.8813557 6.76942756,29.1028057 C7.35599557,29.39525 7.98353231,29.5020671 8.63122825,29.5196528 C10.6712104,29.5711074 12.6624202,28.5381082 13.9454564,26.9781881 C15.1192427,25.5511381 15.7285712,23.7853998 15.9698314,21.9714635 C16.0868849,21.0960846 16.1629696,20.1926987 16.1070441,19.3101552 C16.0738789,18.7858397 15.9698314,18.2667348 15.8326187,17.7606564 C15.6323272,17.0227067 15.0808752,16.3609619 14.5424292,15.8548835 C14.1132331,15.4504115 13.3562872,15.0635253 12.7794737,14.9339119 C12.2813461,14.8244895 11.7760652,14.7886667 11.2655819,14.7580545 C11.2389198,14.7613111 11.2129079,14.7645678 11.1862457,14.7678244 C10.8962132,14.5874077 10.5808191,14.4447679 10.2647746,14.3438127 C9.8902035,14.2226665 9.52083473,14.1666527 9.16187071,14.1666527 C7.53482728,14.1666527 6.10612448,15.308423 5.21976949,16.6944396" transform="translate(254.455 149.285)"/><path d="M10.6724391,25.5531252 C10.6145232,25.5674323 10.5553482,25.5778374 10.4955437,25.584991 C10.5547187,25.5745858 10.6138937,25.5641806 10.6724391,25.5531252 M9.52608134,5.45230452 C9.58084967,5.46856258 9.63498848,5.48612129 9.69038633,5.50433032 C9.70675388,5.51213419 9.72375094,5.51993806 9.74074801,5.52839226 C10.2405877,5.99467355 10.6762162,6.5461471 11.1112153,7.07876129 C11.7117783,7.83833806 12.3035281,8.60571871 12.7769279,9.45569032 C13.1017607,10.3745961 13.2345897,11.3643871 13.4442202,12.315809 C13.6185975,13.1131045 13.8175261,13.9051974 13.9849787,14.7050942 C14.0391175,15.2357574 14.0441537,15.7566658 14.0145662,16.2879794 C13.9723883,16.6352516 13.9302104,16.9825239 13.8867734,17.3304465 C13.8225623,17.8533058 13.6872153,18.3794168 13.5915281,18.8977239 C13.5103199,19.3217342 13.3875633,19.7411923 13.2843218,20.16 C13.1344958,20.7687019 12.9664137,21.3682994 12.7712622,21.9633445 C12.4904958,22.6422813 12.1618858,23.282849 11.7684352,23.9013058 C11.3869455,24.4202632 10.9802749,24.919711 10.5301674,25.3749368 C10.4382573,25.439969 10.3457177,25.5017497 10.2512896,25.5615794 C9.69668154,25.4659819 9.15151634,25.3417703 8.61012827,25.1726865 C8.20471673,24.9827923 7.82070891,24.7642839 7.4429963,24.51456 C6.90538535,24.0768929 6.41624752,23.5963045 5.95984479,23.0688929 C5.53869523,22.4927071 5.18175681,21.89376 4.86573726,21.2525419 C4.26013804,19.8036232 3.85913315,18.2786168 3.56955349,16.7321497 C3.37566101,15.4067923 3.30767274,14.0885884 3.39580568,12.7495742 C3.54877929,11.5107097 3.82387998,10.3323252 4.23055055,9.15198968 C4.50628076,8.42492903 4.81159845,7.71867871 5.18679298,7.04494452 C6.05805006,7.71217548 7.2812094,7.58016 8.04418887,6.77245935 C8.35391321,6.44664774 8.67370989,6.13514323 9.00294938,5.83274323 C9.17292005,5.69747613 9.34603833,5.5700129 9.52608134,5.45230452 M9.33659552,5.42043871 C9.25412827,5.43474581 9.17229053,5.44970323 9.08919376,5.46466065 C9.17166101,5.44450065 9.25349874,5.43019355 9.33659552,5.42043871 M8.81849972,0.157378065 C8.43008525,0.261429677 7.98249581,0.442219355 7.64570207,0.658126452 C7.01366297,1.06457806 6.48486531,1.58808774 5.99069132,2.15712 C5.5739484,2.63965935 5.20819669,3.18853161 4.86258965,3.73935484 C4.35708428,4.19588129 3.89753393,4.6914271 3.47260725,5.23054452 C2.94380959,5.9010271 2.54280471,6.67100903 2.16446258,7.43838968 C1.4732485,8.84568774 0.927453778,10.3264723 0.55100021,11.856031 C0.155031491,13.4636284 0.00268740503,15.1453626 8.32148866e-05,16.7991329 C-0.00486684717,18.3618581 0.211688383,19.9083252 0.472310083,21.4430865 C0.760001188,23.1397781 1.3895222,24.7480258 2.23308037,26.2314116 C2.64163951,26.9526194 3.17232572,27.5905858 3.69608721,28.2233497 C4.13171575,28.7488103 4.64288682,29.1962323 5.18175681,29.6026839 C5.87737753,30.1255432 6.56355544,30.5476026 7.35801096,30.8929239 C7.96990539,31.1569548 8.60446258,31.3754632 9.23398359,31.5939716 C10.8594069,32.1604026 12.5490413,31.6349419 13.9579093,30.7355458 C14.6415691,30.3011303 15.2389846,29.6586116 15.7828907,29.0512103 C16.4218546,28.3371561 16.9651312,27.5320568 17.4914108,26.7295587 C18.3425232,25.4360671 18.8247363,23.8869987 19.2622534,22.4055639 C19.4416669,21.7988129 19.5744958,21.1738529 19.7318761,20.561249 C20.090703,19.1441961 20.2531195,17.64 20.3739875,16.1845781 C20.5483648,14.1217548 19.9534675,12.1226632 19.4813267,10.138529 C19.3824919,9.72427355 19.2817685,9.31066839 19.1810452,8.8964129 C18.9846346,8.09326452 18.7189768,7.30832516 18.3299328,6.58191484 C17.9364821,5.84770065 17.4353834,5.2155871 16.9091038,4.58022194 C16.239923,3.77252129 15.5172329,2.9979871 14.7422925,2.29628903 C14.3859836,1.97112774 14.0265271,1.66157419 13.6456669,1.36697806 C13.3705662,1.15367226 13.0897998,0.95012129 12.7995906,0.756975484 C12.4533541,0.520908387 12.0397588,0.411654194 11.6538624,0.266632258 C11.0809983,0.0533264516 10.3778233,0.02016 9.78481448,0 C9.46061116,0.0383690323 9.1382964,0.0890941935 8.81849972,0.157378065" transform="translate(220 151.783)"/><path d="M9.98258171,12.5749499 C8.86569272,12.6234209 7.8485945,13.0531101 6.95879348,13.7317047 C6.88714882,13.7860708 6.81678354,13.841092 6.74833731,13.8974232 C6.55003514,14.0120507 6.36004886,14.1397784 6.17965786,14.2792964 C5.11522299,15.102649 4.32521274,16.220758 3.74054118,17.4417041 C3.45844035,18.0351468 3.2511826,18.6796806 3.0458439,19.303909 C2.81363846,20.005429 2.77333834,20.754765 2.71896517,21.4864157 C2.6889,21.8938344 2.74135412,22.2979781 2.80084477,22.6995017 C2.8161972,23.0577943 2.8859228,23.4003667 3.01322,23.7278737 C3.18081731,24.211929 3.5633486,24.8767683 3.96315136,25.2095154 C4.3552779,25.5396425 4.76531561,25.8416039 5.20989628,26.0924743 C5.24379956,26.1114697 5.27834252,26.1298101 5.31288547,26.1481505 C5.37941265,26.2228221 5.44657952,26.2948736 5.51502575,26.3636501 C5.82207427,26.6708517 6.23722946,27.0239042 6.59929084,27.2204084 C7.00421107,27.4378731 7.434079,27.5839412 7.86330724,27.7450747 C7.95350275,27.7680002 8.04369825,27.7889606 8.1358128,27.8118861 C8.5055504,27.855117 8.87784673,27.8937628 9.248224,27.9265135 C9.72286984,27.9140683 10.2525285,27.8472569 10.6996679,27.7247692 C10.7329315,27.715599 10.7649158,27.7064288 10.7969,27.6966036 C11.3163237,27.6324123 11.83063,27.5177848 12.3340616,27.3743367 C13.1758863,27.1313265 13.9908443,26.6708517 14.605581,26.0282829 C14.8927993,25.7263214 15.2951608,25.2658466 15.4525232,24.9049339 C15.6623396,24.4365988 15.8369735,23.9558185 15.9898581,23.464558 C16.0998838,23.1036453 16.131868,22.7126019 16.1696094,22.3359689 C16.2246222,21.781172 16.2668414,21.2715711 16.2572462,20.7220143 C16.2367763,19.7159128 15.9847406,18.6724754 15.6725746,17.7227051 C15.4096643,16.9294831 15.0277727,16.1644268 14.6503589,15.4255709 C14.4578139,15.0463178 14.0528937,14.5786378 13.7931818,14.2996018 C13.4733396,13.9537544 13.1534974,13.7107442 12.7485771,13.4369484 C12.0059035,12.9338976 11.0418991,12.5716748 10.1271504,12.5716748 C10.0785344,12.5716748 10.030558,12.5729849 9.98258171,12.5749499" transform="translate(220 151.783)"/><path d="M34.8549895,46.4557419 C35.2904506,46.4557419 35.7259117,46.4744516 36.167111,46.5163871 C36.7326366,46.5692903 37.3478928,46.6021935 37.8930161,46.7938065 C38.3386783,46.9499355 38.7773273,47.1312258 39.217889,47.3028387 C39.6112704,47.4563871 39.9976385,47.628 40.3808188,47.804129 C41.1210389,48.1447742 41.6935778,48.8247742 41.9549819,49.5963871 C42.2814184,50.564129 42.0251148,51.5692903 41.5813652,52.4467097 C41.2102988,53.1821935 40.7697372,53.8731613 40.3910199,54.6034839 C40.0722343,55.2150968 39.7725759,55.8260645 39.5054336,56.4596129 C39.3689933,56.9454194 39.2931224,57.4370323 39.2293652,57.9350968 C39.1547694,59.3047742 39.1809098,60.6576774 39.3447656,62.0254194 C39.509259,63.4092903 39.7088188,64.7899355 39.9026404,66.1686452 C39.9950882,66.8267097 40.109851,67.4970323 40.0824355,68.1621935 C40.0550199,68.8125161 39.9549212,69.4654194 39.5915057,70.0221935 C39.3651679,70.4428387 39.0508453,70.7828387 38.6523634,71.0428387 C38.5031717,71.1789677 38.3335778,71.2796129 38.1467694,71.3473548 C37.6590275,71.5796129 37.2159155,71.7763871 36.6924696,71.8996129 C36.4935474,71.9473548 36.2914374,71.9905806 36.0925152,72.0305806 C34.7236499,72.3125161 33.3401205,72.4976774 31.9616916,72.7163871 C30.7458434,72.9596129 29.5312704,73.3092903 28.2899193,73.0944516 C27.2787315,72.9202581 26.3619041,72.3150968 25.5598396,71.708 C25.1167277,71.3731613 24.7533121,70.9621935 24.3745949,70.5589677 C23.7995057,69.9492903 23.3385417,69.324129 22.9821394,68.568 C22.5638928,67.6757419 22.1405455,66.804129 21.8842419,65.8486452 C21.4608947,64.2738065 21.1070427,62.6583226 21.047111,61.0202581 C20.9973804,59.6363871 21.1146935,58.2705806 21.2740863,56.8970323 C21.4149895,55.684129 21.8243102,54.4660645 22.4746328,53.4299355 C22.408963,53.2144516 22.3707087,52.9892903 22.3624203,52.7615484 C22.337555,52.0434839 22.6015095,51.4260645 23.0522723,50.8892903 C23.4207884,50.448 23.806519,50.0370323 24.2375171,49.6563871 C24.7156954,49.2383226 25.2187391,48.8047742 25.7766138,48.4950968 C26.8598472,47.8873548 28.0234146,47.3686452 29.2360749,47.0963871 C30.7126897,46.7686452 32.2224582,46.5892903 33.7315892,46.4938065 C34.1090313,46.4692903 34.4820104,46.4557419 34.8549895,46.4557419 Z M35.1073863,51.9492039 L35.0654956,52.0206741 C34.9988878,52.1191171 34.91271,52.2040771 34.8090686,52.2668632 C34.4275424,52.4946947 34.0152056,52.6086105 33.6028689,52.7556413 C33.4317721,52.8152484 33.2600197,52.8748554 33.0908895,52.9371117 C32.8017949,53.0377815 32.5146669,53.1384512 32.2281945,53.2424324 C31.5490516,53.4828476 30.8679421,53.7232629 30.1894547,53.9663273 C28.348689,54.6286282 26.5098899,55.2882799 24.6684687,55.95323 L25.6627927,55.5953037 C25.6411231,55.7058361 25.6216323,55.8165366 25.6044696,55.9273548 C25.5942685,56.4796129 25.6433615,57.0234839 25.6771527,57.5776774 C25.6969174,57.9125161 25.7045683,58.2505806 25.7396347,58.5854194 C25.8027542,59.2067097 25.8563102,59.8260645 25.9436575,60.4434839 C26.2107998,61.7763871 26.6169326,63.0783226 27.1027618,64.3460645 C27.2672552,64.6473548 27.4406745,64.9454194 27.6000673,65.2512258 C27.7690237,65.5815484 27.9207656,65.924129 28.0827087,66.2596129 L27.9005479,65.8736621 C29.9037689,65.594613 31.9089183,65.3161657 33.9120931,65.0394826 C33.9471315,65.0346662 33.9821699,65.0322581 34.0172083,65.0322581 C34.1090489,65.0322581 34.2040182,65.0469041 34.2971677,65.0721994 L34.1849023,64.2763871 C34.07524,63.4976774 33.9604772,62.7163871 33.8559155,61.9350968 C33.761555,61.2163871 33.6793083,60.4583226 33.6837713,59.7325161 C33.6914222,58.7847742 33.721388,57.8525161 33.8412514,56.9099355 C33.9228605,56.2544516 34.012758,55.6144516 34.2295322,54.984129 C34.4386556,54.3796129 34.7000597,53.8073548 34.9844165,53.2350968 C35.1871641,52.8260645 35.4135019,52.4267097 35.6474905,52.0325161 C35.4689706,52.0021935 35.2898131,51.9738065 35.1093804,51.9492903 C35.1087157,51.9492615 35.108051,51.9492327 35.1073863,51.9492039 Z" transform="translate(220 149)"/></g><path d="M23.5463498,59.5225376 C23.6134467,61.2654018 23.7427847,63.0104533 23.9723266,64.741506 C24.4049248,67.9966899 25.1346033,71.2146892 26.0501223,74.3692559 C26.2792228,75.1566946 26.5087647,75.9445707 26.7365409,76.7324468 C26.8416005,77.0929187 26.9365073,77.4551405 27.067611,77.8055507 C27.5655404,79.1420091 28.0210928,80.5055903 28.6037761,81.8092388 C29.1312811,82.9886469 29.6592275,84.1676176 30.1849667,85.3465882 C30.7265973,86.5583688 31.3353248,87.7443389 31.9091796,88.9421206 C32.2852752,89.726497 32.7006578,90.4903125 33.1213375,91.2506282 C33.9975696,92.8346923 35.0132925,94.3163894 36.0753653,95.7810253 C36.9220218,96.9499342 37.7978125,98.0947825 38.6616846,99.25013 C39.394453,100.229179 40.1740127,101.165356 40.9518066,102.11072 C41.6536751,102.961591 42.3312652,103.833023 43.0883121,104.63796 C43.9332029,105.535203 44.7449867,106.480129 45.6331373,107.33275 L48.7059089,110.285645 C49.5786096,111.121205 50.5320914,111.883271 51.4423133,112.674647 C52.3013298,113.421401 53.1943361,114.120472 54.0860182,114.829604 C55.1344067,115.663414 56.2031009,116.463102 57.2863621,117.254477 C58.2932565,117.98767 59.3363479,118.652181 60.3847365,119.327191 C61.4799162,120.029324 62.6196801,120.673711 63.7974067,121.229293 C64.7923826,121.697381 65.8200241,122.107287 66.8423684,122.51413 C68.3321837,123.103834 69.8149362,123.7071 71.3219671,124.253932 C74.3466232,125.351097 77.4467633,126.160846 80.6215045,126.694117 C83.9132237,127.247511 87.2654185,127.575611 90.6052533,127.485055 C92.1383284,127.444371 93.6608093,127.276822 95.1797587,127.0664 C96.8267219,126.841106 98.4838379,126.528317 100.078713,126.061979 C101.420209,125.668697 102.813352,125.200608 103.992844,124.446855 C105.153355,123.70535 105.970877,122.471696 106.425988,121.198233 C106.719095,120.376234 106.100215,119.448369 105.298143,119.229636 C104.403371,118.98553 103.603064,119.525363 103.309957,120.347361 C103.300245,120.374922 103.290092,120.402045 103.280381,120.429605 C103.117495,120.752455 102.91797,121.055181 102.702995,121.346971 C102.618682,121.441901 102.529514,121.531582 102.435049,121.615575 C102.081466,121.853994 101.715082,122.051729 101.325302,122.229777 C99.2792889,123.017216 97.1529363,123.460806 94.9855309,123.772282 C91.6818931,124.172563 88.3914981,124.108693 85.092716,123.699663 C82.835701,123.38425 80.6051717,122.96472 78.3971551,122.394702 C76.0244863,121.78225 73.7365714,120.940565 71.4689622,120.024949 C69.9769398,119.367 68.4774131,118.722613 67.0061377,118.020043 C64.7407357,116.93819 62.7251811,115.495864 60.6888795,114.053977 C59.4974687,113.116925 58.3131207,112.175498 57.1534927,111.196449 C56.6052406,110.73361 56.0375658,110.287395 55.5100609,109.802245 C54.6960699,109.056804 53.8825204,108.313549 53.0685295,107.568544 C51.8166432,106.420196 50.6508352,105.184793 49.4611901,103.974762 C48.3766046,102.876285 47.3939886,101.671504 46.3716443,100.514844 C45.4680437,99.3555593 44.5640017,98.1980245 43.6604012,97.0400522 C43.0485837,96.2403645 42.5029802,95.380744 41.9242697,94.5574331 C40.9204653,93.1304193 39.9272551,91.6968435 39.0377802,90.1945855 C37.6159446,87.7998971 36.5225306,85.233722 35.3960095,82.6933574 C35.1602876,82.121152 34.9245657,81.5498215 34.6888439,80.9789285 C34.4645991,80.4338459 34.2094544,79.8922631 34.0200823,79.3331817 C33.5786556,78.0378451 33.0820505,76.7530077 32.7302334,75.4301108 C32.3559035,74.0236578 31.9299267,72.6207046 31.617838,71.1971905 C31.1715555,69.1590368 30.7120303,67.1366319 30.4008244,65.0735426 C30.1606882,63.0913845 30.0578358,61.0982898 30.0211974,59.1021328 C29.9805861,56.9707989 30.0772586,54.832028 30.3275476,52.7151304 C30.8409269,49.2950219 31.7242218,45.9256594 32.5315913,42.5637338 C32.6406237,42.1109565 32.7712861,41.668241 32.9023898,41.2224633 C33.0886719,40.590325 33.2369913,39.9288765 33.4665332,39.3120496 C33.9807954,37.9235328 34.4698962,36.527579 35.031391,35.1583107 C35.7473852,33.5379369 36.5507819,31.9599974 37.463211,30.437616 C38.3765229,28.9126098 39.4421271,27.4746593 40.5262712,26.0651441 C41.5437599,24.7803067 42.6053912,23.538341 43.760605,22.3720568 C44.5675331,21.5583702 45.4106582,20.7739938 46.2762961,20.0224274 C47.5860092,18.8832661 48.8807139,17.7217941 50.2376597,16.6368786 C51.9817368,15.3594782 53.8467649,14.2426277 55.6755959,13.0912174 C56.699706,12.4468301 57.7224917,11.8011304 58.7536646,11.1685547 C59.8934285,10.4681717 61.0331924,9.76735133 62.1711905,9.06346866 C63.4990022,8.24190767 64.8078325,7.36960063 66.1974439,6.65303145 C66.2565951,6.63422042 66.3166292,6.61628432 66.3766632,6.60053554 C66.5514682,6.6049102 66.7223003,6.62153391 66.9046096,6.64515707 C67.4422674,6.64384467 67.9424039,6.5086677 68.4063434,6.24225096 C69.0720149,5.85771841 69.5703857,5.21683084 69.7738835,4.48013824 C69.9857683,3.71807261 69.8771773,2.88907469 69.4737133,2.20750279 C69.0737806,1.52724329 68.4443061,1.08627764 67.6960878,0.852233375 C66.9787693,0.626938427 66.2354066,0.531133391 65.4836569,0.501823174 C65.0267802,0.484762004 64.4074585,0.591066222 63.9938416,0.669372621 C63.6248088,0.739367168 63.2729917,0.836922068 62.9145532,0.948038411 C62.6452829,1.03334427 62.3866068,1.16852123 62.1279307,1.27613785 C61.5523102,1.51543171 61.0243638,1.76478728 60.4743461,2.0469528 C60.0346851,2.27224775 59.6175368,2.54566395 59.1933257,2.79851925 C58.630948,3.13361814 58.0690117,3.4704669 57.5101655,3.80862805 C55.6067333,4.96222568 53.7200754,6.14119633 51.839156,7.33241603 C50.202787,8.36789785 48.5509681,9.38806838 46.9728675,10.5123558 C45.1917106,11.7770698 43.5743229,13.2500175 41.9361883,14.687093 C40.0517375,16.3411517 38.261752,18.0757041 36.6545172,20.0001166 C35.5010691,21.3807591 34.4111864,22.8230842 33.3579422,24.2789708 C32.307788,25.7296078 31.3662247,27.240615 30.5314867,28.8194295 C29.3851014,30.9844484 28.4673752,33.2522717 27.6366101,35.5507176 L26.938273,37.4781925 C26.7555223,37.9874028 26.6381028,38.5276732 26.4915491,39.0469453 C25.8258776,41.4088237 25.3464881,43.8196984 24.8225145,46.2156993 C24.229237,48.9293004 23.7617661,51.6739615 23.5843125,54.447058 C23.5251613,55.3692361 23.5,56.2927267 23.5,57.2162172 C23.5,57.9848449 23.5172156,58.7539099 23.5463498,59.5225376" fill="#2C2C2C" transform="rotate(90 116.5 192)"/><path d="M33.837908,96.2058414 C33.849331,96.1787153 33.8611934,96.1511518 33.8739345,96.1240257 C33.8620721,96.1520268 33.8502097,96.1800279 33.8383473,96.208029 C33.837908,96.2071539 33.837908,96.2067164 33.837908,96.2058414 M33.8062749,96.2832819 C33.8137438,96.2644686 33.8207734,96.2460929 33.8286817,96.2277172 C33.8286817,96.2285922 33.8286817,96.2294673 33.8286817,96.2303423 C33.8212127,96.247843 33.8137438,96.2657812 33.8062749,96.2832819 M31.833602,91.8875494 C31.8964288,91.83811 31.9574982,91.7842954 32.0163708,91.7252306 C32.2949175,91.4478449 32.4895487,91.0978313 32.5804937,90.7206917 C32.6859373,90.8379463 32.7900628,90.9573884 32.8924309,91.0781431 C33.8242882,92.368818 34.5768915,93.7745598 35.2244905,95.2258035 C36.2169779,97.6802734 36.9129052,100.23056 37.3087579,102.846473 C37.3522533,103.203049 37.390916,103.559626 37.4238671,103.91664 C37.2367048,103.848387 37.0504212,103.778384 36.864577,103.706631 C36.8615015,103.671193 36.8584261,103.637066 36.8544719,103.60294 C36.7841763,103.010105 36.6963066,102.485522 36.4937672,101.928125 C36.2846375,101.357166 36.0254221,100.798456 35.7561017,100.25156 C35.5192931,99.7698542 35.256563,99.2995235 35.0043771,98.8261302 C34.6770628,98.2127315 34.35546,97.5984577 34.0606575,96.9693084 C33.9916798,96.7768009 33.9301711,96.584731 33.8805247,96.3882859 C33.8805247,96.3436592 33.8814034,96.29947 33.8827215,96.2552808 C33.908643,96.1463391 33.938958,96.0387099 33.9732272,95.9310807 C33.9837715,95.912705 33.9943159,95.8947668 34.0052996,95.8763911 C34.5153827,94.9366048 34.4068637,93.7793725 33.6331718,93.0084677 C33.233365,92.6107648 32.686816,92.3775683 32.1270865,92.3303165 C32.0427317,92.1745605 31.9447571,92.0271173 31.833602,91.8875494 M18.276638,100.685577 C18.2937726,99.972862 18.286743,99.260147 18.3341926,98.5474319 C18.4189868,98.082789 18.5318993,97.6277714 18.6803989,97.178004 C18.8047344,96.9413073 18.9409323,96.7159861 19.0933861,96.4919774 C19.34689,96.184403 19.6074234,95.8851415 19.8780618,95.5950677 C20.9768714,95.0359211 22.0585464,94.4492109 23.1819594,93.9434414 C23.1823988,93.9434414 23.1832775,93.9430039 23.1837168,93.9430039 C23.1639462,93.9675048 23.1441755,93.9920058 23.1248442,94.0169442 C22.8124677,94.4168347 22.5721443,94.7537227 22.3608179,95.2083028 C22.0726055,95.8304519 21.9166369,96.467914 21.8841252,97.1548156 C21.8568856,97.7214 21.8946695,98.2897345 21.9755096,98.8528187 C21.8907154,99.07989 21.8230558,99.3122115 21.7826358,99.5475956 C21.6468772,100.336876 21.6350148,100.921399 21.7861506,101.709367 C21.9096074,102.353829 22.1806851,102.963728 22.5154684,103.525937 C22.7386572,103.819948 22.9636034,104.11046 23.1898677,104.400971 C23.3304591,104.56504 23.486867,104.713795 23.6599701,104.847238 C23.9218216,105.070809 24.1942174,105.272505 24.4771576,105.459324 C24.5290007,105.54289 24.5821618,105.626018 24.636641,105.708709 C25.1954917,106.556179 25.9037208,107.290333 26.6554454,107.970234 C26.6123893,107.968921 26.5693332,107.967171 26.5258377,107.964984 C25.9384293,107.836791 25.3791392,107.630721 24.8119408,107.42115 C24.3264612,107.240893 23.842739,107.058449 23.3620921,106.867254 C22.5242553,106.487051 21.7268386,106.049535 20.9773107,105.520139 C20.2967605,104.95968 19.6465254,104.361594 19.0718581,103.694818 C18.8473512,103.375431 18.6430543,103.049481 18.4629216,102.70428 C18.3983374,102.487709 18.3473731,102.272013 18.3047563,102.051942 C18.2687298,101.597362 18.2656543,101.146282 18.276638,100.685577 M10.8318847,97.8915941 C11.1965436,97.3626361 11.558127,96.8323656 11.9403599,96.3152206 C12.1705783,96.0325847 12.4078262,95.7582616 12.6516644,95.4900637 C11.8010865,96.4985402 11.228616,97.6763357 10.8059631,98.9127586 C10.8042057,98.5728079 10.812114,98.2324197 10.8318847,97.8915941 M4.5228461,101.511172 C4.61027637,103.194737 4.93143982,104.859051 5.53202866,106.433237 C5.84923798,107.263644 6.22356255,108.072175 6.64226128,108.854893 C7.1193933,109.74874 7.73711672,110.546771 8.3618697,111.341739 C8.69884968,111.770506 9.06526599,112.176959 9.45013492,112.566349 C10.2752306,113.642203 11.1974223,114.615678 12.2593266,115.475837 C13.6032924,116.564379 15.0535804,117.512915 16.5311081,118.408513 C17.8781493,119.225357 19.3455719,119.845756 20.7734532,120.507281 C21.4702593,120.831919 22.146416,121.195933 22.8502516,121.505257 C23.3133245,121.708703 23.7750793,121.895085 24.2522114,122.055654 C24.8510428,122.255599 25.5170945,122.317289 26.1365753,122.393854 C29.5362508,122.819558 32.9346083,121.906898 36.0785832,120.688413 C37.6865972,120.064514 39.2519945,119.338236 40.7242499,118.437389 C42.265483,117.495852 43.653823,116.284368 44.9274931,115.012506 C46.1132936,113.829898 47.2151786,112.527848 48.0319267,111.064791 C48.4747895,110.271573 48.8214352,109.408789 49.1030573,108.547319 C49.2229993,108.178054 49.2814326,107.795227 49.3363512,107.4124 C49.4290536,106.778438 49.4905623,106.165039 49.4993493,105.524077 C49.5112117,104.638542 49.3587579,103.738133 49.2159698,102.866599 C49.0872408,102.085194 48.835055,101.33179 48.5556296,100.593261 C47.9031977,98.8672568 47.0469083,97.206005 46.0170763,95.6746958 C45.5250065,94.9431675 45.0052577,94.2304525 44.4666169,93.5321755 C44.0501149,92.719269 43.5826486,91.9317386 43.0839885,91.1713342 C42.2294565,89.8657837 41.1947917,88.6573619 40.0946641,87.5500066 C38.8983193,86.3415849 37.5530354,85.2254792 36.0974752,84.3421326 C35.3852919,83.9098659 34.5887539,83.6088542 33.8150619,83.3113427 C33.1164984,83.0431448 32.3854232,82.8720757 31.6525906,82.7355704 L31.6372134,82.7329453 C30.6952511,82.271365 29.6900227,81.9419147 28.6562366,81.7476572 C27.7964324,81.5853385 26.9142214,81.5000113 26.03904,81.5000113 C25.0399625,81.4982726 24.0136454,81.6982178 23.0492763,81.9423523 C22.2940369,82.1339847 21.5647191,82.4244959 20.8472637,82.7185073 C20.0063514,83.0619581 19.1773016,83.4312223 18.3517665,83.8087994 C16.8127302,84.5114516 15.3760619,85.3777351 13.9429085,86.2715822 C12.6336512,87.0901763 11.2896854,87.8593311 10.0318318,88.7584284 C9.34688811,89.2471348 8.68127576,89.7717175 8.03060124,90.3033006 C7.29952602,90.8978861 6.72134394,91.6876041 6.28023846,92.5131986 C5.43844752,94.0834468 5.12914646,95.8387647 4.96395158,97.591895 C4.61906333,98.5767456 4.5,99.6307238 4.5,100.680327 C4.5,100.957713 4.50790827,101.235536 4.5228461,101.511172" fill="#2C2C2C" transform="rotate(90 116.5 192)"/><g transform="rotate(90 79 154.5)"><mask id="b" fill="#fff"><use xlink:href="#a"/></mask><path d="M0.492904762,4.72895652 C0.736912698,5.22156522 1.0232619,5.67852174 1.34715079,6.12330435 C1.68980952,6.59547826 2.04469048,7.0793913 2.42314286,7.52286957 C2.99278571,8.18852174 3.56199206,8.85417391 4.13338095,9.51852174 C5.3625873,10.9502609 6.59223016,12.3802609 7.81969048,13.8137391 C10.5103254,16.9589565 13.2009603,20.1041739 15.8933413,23.2498261 C18.2688175,26.0233043 20.7154444,28.7389565 23.1332619,31.4767826 C24.3371508,32.8367826 25.5392937,34.1989565 26.7431825,35.5611304 C26.9544524,35.8006957 27.1831825,36.028087 27.402746,36.2593913 L29.4949286,38.4654783 C31.3518333,40.4237391 33.2104841,42.382 35.0673889,44.3398261 C35.7016349,45.0093913 36.335881,45.6767826 36.970127,46.345913 C37.1648095,46.5511304 37.3555635,46.7550435 37.5620317,46.9472174 C39.2399683,48.5063478 40.9192143,50.0650435 42.5971508,51.6241739 C44.1965159,53.112 45.8198889,54.5776522 47.395246,56.0911304 C48.2922698,56.9537391 49.1958413,57.808087 50.1950079,58.5537391 C50.640246,58.888087 51.0972698,59.1941739 51.5796111,59.4724348 C51.820127,59.6102609 52.0689365,59.7085217 52.3282222,59.802 C52.6198095,59.9089565 52.9642143,59.9176522 53.2675873,59.972 C53.6770317,60.0450435 54.0672698,59.9854783 54.3728254,59.6815652 C54.7137381,59.3415652 54.8363968,58.7250435 54.5500476,58.3106957 C53.8952857,57.3615652 53.2269921,56.4324348 52.5346905,55.512 C52.149254,54.9989565 51.7655635,54.4876522 51.380127,53.9767826 C50.0671111,52.2389565 48.7575873,50.4998261 47.4463175,48.7624348 C47.2708413,48.528087 47.0971111,48.348087 46.8020317,48.2685217 C46.5222302,48.192 46.2188571,48.2311304 45.9683016,48.3772174 C45.5042937,48.6472174 45.2279841,49.3789565 45.581119,49.8493913 C46.405246,50.9454783 47.2285,52.0424348 48.051754,53.1398261 C47.8841349,52.9754783 47.7169524,52.812 47.5488968,52.6485217 C47.0150476,52.132 46.4829444,51.615913 45.9512778,51.0976522 C44.1009206,49.3028696 42.251,47.5093913 40.4028254,45.7141739 C40.0684603,45.388087 39.7087778,45.0754783 39.3931825,44.7324348 C39.0182222,44.3215652 38.6428254,43.912 38.2678651,43.5011304 L33.0708016,37.8250435 C31.7508016,36.3833043 30.4312381,34.9428696 29.1129841,33.5028696 C28.2914762,32.6041739 27.5306429,31.6446087 26.7449286,30.7172174 C25.0054444,28.6676522 23.2663968,26.615913 21.5273492,24.565913 C20.7036587,23.5946087 19.8542143,22.6398261 19.0580238,21.648087 C17.0073095,19.0885217 14.9400079,16.5428696 12.9036984,13.9724348 C11.7146508,12.4202609 10.5029048,10.8824348 9.34746825,9.30591304 C8.66564286,8.37373913 7.9750873,7.44634783 7.30330159,6.50547826 C6.89734921,5.9346087 6.48965079,5.36243478 6.08238889,4.792 C5.56425397,4.0646087 5.01119841,3.35330435 4.54675397,2.59026087 C4.62139683,1.9546087 4.41973016,1.30330435 3.94044444,0.825913043 C3.12897619,0.0193913043 1.70203175,-0.0232173913 0.897111111,0.825913043 C0.697626984,1.03852174 0.526952381,1.27286957 0.354968254,1.50721739 C0.126238095,1.81982609 0.0223492063,2.42591304 0.00357936508,2.7946087 C0.0013968254,2.83982609 8.73015873e-05,2.88547826 8.73015873e-05,2.93069565 C8.73015873e-05,3.56113043 0.21615873,4.16808696 0.492904762,4.72895652" fill="#2C2C2C" mask="url(#b)"/></g><path d="M30.5685345,56.2795794 C30.6143697,58.5506307 30.6911983,60.8317059 30.8841426,63.0944767 C31.1176839,65.8335974 31.4926595,68.5422107 31.9226373,71.2556181 C31.9924814,71.7036397 32.1016128,72.1442524 32.1967755,72.5870442 C32.3146374,73.1418415 32.4167844,73.7023044 32.5551631,74.2518718 C33.0309761,76.1450683 33.4827802,78.0365215 34.2109051,79.8547572 C34.9425222,81.6747362 35.8683932,83.3992709 36.763271,85.1408025 C37.2683312,86.1213946 37.7764471,87.1154971 38.3303983,88.0686327 C38.920581,89.0784246 39.4609999,90.1387716 40.1140423,91.1093399 C40.7740692,92.0864455 41.4170716,93.0757539 42.102417,94.0341193 C43.6573216,96.2027533 45.2502039,98.3360859 46.9622578,100.385741 C47.7279239,101.303576 48.4866056,102.220974 49.2898129,103.106122 C50.1065525,104.006959 50.9232921,104.907361 51.7470161,105.802968 C53.3377158,107.529246 54.9388921,109.248551 56.6033647,110.905098 C57.890679,112.190327 59.162715,113.480786 60.5421362,114.670572 C62.3257803,116.211627 64.3124088,117.411871 66.3313402,118.601656 C68.3961069,119.817155 70.5311542,120.853968 72.7460856,121.770059 C75.1997967,122.784644 77.7883942,123.262738 80.3970718,123.681559 C82.7608586,124.059414 85.1137322,124.447729 87.4941069,124.706605 C88.8717821,124.856527 90.2498937,125.004269 91.6275689,125.154191 C92.3487094,125.232638 93.0803265,125.229152 93.8067053,125.253122 C96.951,125.362076 100.092239,125.462315 103.23828,125.5 C105.016686,125.520279 106.5,124.001886 106.5,122.241614 C106.5,120.448656 105.016686,119.006968 103.23828,118.984741 C99.7120251,118.940288 96.1923183,118.810849 92.6678097,118.681847 C91.7777337,118.647417 90.9046823,118.535412 90.0194082,118.434738 C88.7783656,118.293533 87.5368864,118.152327 86.2958438,118.011122 C82.4190589,117.365675 78.4636994,116.869277 74.7933912,115.420616 C73.0525267,114.650524 71.3753949,113.755352 69.7414791,112.776068 C68.4353942,111.992901 67.1432781,111.220195 65.9096564,110.325459 C64.7934602,109.417213 63.7606403,108.419624 62.7470276,107.399808 C62.0411655,106.688116 61.3130406,105.993421 60.6255126,105.264732 C59.230813,103.78382 57.8361133,102.305959 56.464986,100.80282 C55.3020815,99.5293576 54.1186603,98.2680982 53.019052,96.9401585 C51.8963079,95.5873772 50.7966996,94.2245721 49.7114967,92.8443342 C48.9798796,91.8197244 48.2342937,90.8033951 47.5314873,89.7591735 C47.0543647,89.0461741 46.5750594,88.3327388 46.0957542,87.6193036 C45.7478432,87.1019867 45.4597362,86.5419597 45.1476204,86.0037236 C44.4059632,84.7254673 43.7088316,83.4332648 43.0147557,82.1275519 C42.2722255,80.7342394 41.5165995,79.3282882 40.8683588,77.8874715 C40.0887239,75.9040605 39.5592182,73.8077725 39.1165811,71.7254306 C38.95463,70.9562106 38.7568839,70.1848115 38.6342202,69.4086183 C38.5076277,68.5997388 38.3810353,67.7899876 38.2535697,66.9806722 C38.0593158,65.3781668 37.8572044,63.771739 37.7764471,62.1596455 C37.6773558,60.2054344 37.6005273,58.254274 37.5411598,56.2983196 C37.4813558,54.3593621 37.4796097,52.4186613 37.4713157,50.479268 C37.4678235,49.5636129 37.5036186,48.6492652 37.5223892,47.7353533 C37.544652,46.5922008 37.578701,45.4276932 37.6969995,44.2875914 C37.8951821,43.0725288 38.1466209,41.8666184 38.3884562,40.6598364 C38.6014807,39.5994895 38.8131957,38.5352201 39.0755477,37.4866403 C39.6011246,35.3755344 40.2153163,33.304088 41.0159045,31.2827608 C41.8675661,29.4170209 42.9737223,27.70251 44.1728584,26.03899 C45.1454377,24.8030081 46.1267475,23.5805366 47.1307567,22.3693963 C47.713955,21.6664207 48.3875142,21.026203 49.0134921,20.3607079 C49.6307395,19.7052365 50.3077908,19.0990127 50.9521028,18.4723053 C52.1765574,17.2842635 53.45907,16.1537497 54.707097,14.9909854 C55.3466072,14.3952212 55.9874269,13.8029436 56.6269371,13.2067436 C57.2166833,12.6593552 57.7990086,12.0962775 58.4153829,11.5746024 C58.6506703,11.4198868 58.8907594,11.2826039 59.1474366,11.1540374 C60.3513745,10.544327 60.8883011,8.97799451 60.5438823,7.72850223 C60.1073566,6.14342955 58.4005411,5.15978669 56.8059126,5.60911579 C54.9135737,6.14342955 53.2966824,7.1479917 51.7928513,8.38223031 C50.8787665,9.13140269 49.9939288,9.90933911 49.1121469,10.6977352 C48.1967525,11.5166386 47.297946,12.3507956 46.3960839,13.1849526 C45.6251795,13.8996953 44.8389967,14.6201037 44.1196023,15.3858372 C43.3028627,16.2544239 42.4708447,17.1073211 41.7086708,18.0247195 C40.8779623,19.0257951 40.0716993,20.0386378 39.2702381,21.0636834 C37.5289371,23.2902813 35.9107362,25.5970698 34.7923574,28.2054448 C34.1816579,29.6283929 33.6360007,31.0652873 33.1859427,32.5461993 C32.5106374,34.7762837 32.0129981,37.0455918 31.5542096,39.3301535 C31.1569712,41.3135645 30.7527484,43.300462 30.6471092,45.3244042 C30.5785746,46.6253231 30.5427795,47.9258061 30.517461,49.2280325 C30.5048018,49.8865545 30.5,50.5446408 30.5,51.2022913 C30.5,52.8945754 30.534049,54.5868594 30.5685345,56.2795794" fill="#2C2C2C" transform="rotate(90 116.5 192)"/><g transform="rotate(90 102.5 206)"><mask id="d" fill="#fff"><use xlink:href="#c"/></mask><path d="M21.801886,12.8775746 C21.9641667,12.8098986 22.126886,12.7422225 22.2891667,12.6741099 C22.1282018,12.7413493 21.968114,12.809462 21.8089035,12.8788845 C21.8062719,12.8784479 21.8040789,12.8780113 21.801886,12.8775746 M15.3913596,39.3930535 C15.4071491,39.3865042 15.4233772,39.3795183 15.4396053,39.372969 C15.4238158,39.3795183 15.4071491,39.3865042 15.3913596,39.3930535 M13.6374123,59.628631 C13.7238158,59.6172789 13.8097807,59.6054901 13.8961842,59.5937014 C13.8093421,59.6107296 13.7233772,59.6225183 13.6374123,59.628631 M0.273815789,56.2339127 C0.409342105,56.8377577 0.661096491,57.6000958 1.16460526,57.9939268 C1.43697368,58.2087437 1.71285088,58.4205042 1.98872807,58.6300817 C2.16197368,58.7239549 2.32820175,58.8143352 2.4975,58.9117014 C2.61548246,58.9793775 2.73346491,59.0470535 2.85144737,59.1147296 C2.49442982,59.2609972 2.17469298,59.4740676 1.89442982,59.7504479 C1.74223684,59.9486732 1.58785088,60.146462 1.4352193,60.3442507 C1.16811404,60.7996451 1.03434211,61.2925887 1.03258772,61.8213352 C0.996622807,62.2204056 1.03960526,62.7164056 1.14223684,63.0849127 C1.30846491,63.6887577 1.65802632,64.123631 2.07951754,64.5672366 C2.46855263,64.9763493 3.02030702,65.2169268 3.50144737,65.4998563 C4.01899123,65.8037437 4.53828947,66.1019549 5.06065789,66.3988563 C5.95846491,66.9123211 6.86592105,67.4087577 7.77425439,67.905631 C7.15407895,68.0160958 6.54618421,68.1951099 5.93609649,68.3566592 C5.21679825,68.5478986 4.58785088,69.0390958 4.21241228,69.6769972 C4.11504386,69.9053493 4.01899123,70.134138 3.92118421,70.3624901 C3.78434211,70.872462 3.78434211,71.3806873 3.92118421,71.8906592 C3.96592105,72.2045887 3.99662281,72.4774761 4.11153509,72.7743775 C4.24881579,73.2603352 4.49530702,73.6816732 4.85188596,74.0379549 C4.95451754,74.1898986 5.07951754,74.3213211 5.22864035,74.4287296 C5.89662281,75.0138 6.70890351,75.4517296 7.45758772,75.9228423 C8.3229386,76.4686169 9.22381579,76.9611239 10.1115351,77.4680394 C11.2167982,78.0963352 12.3273246,78.7150254 13.4409211,79.3315324 C13.2540789,79.3607859 13.0711842,79.4061944 12.8922368,79.468631 C12.3558333,79.6323634 11.7904825,79.9528423 11.3913596,80.3501662 C11.1738158,80.5820113 10.9869737,80.8348141 10.8290789,81.1059549 C10.5909211,81.4980394 10.3255702,82.3594901 10.3751316,82.8214338 C10.4075877,83.1488986 10.4505702,83.4746169 10.501886,83.8007718 C10.6733772,84.4229549 11.0330263,84.8137296 11.4185526,85.3049268 C11.6514474,85.6018282 12.1606579,85.8747155 12.5185526,86.0519831 C12.8097807,86.1969408 13.0926754,86.3571803 13.3839035,86.502138 C14.4733772,87.0470394 15.5799561,87.5618141 16.6926754,88.0626169 C16.6689912,88.0818282 16.645307,88.1006028 16.6216228,88.1189408 C16.4606579,88.325462 16.299693,88.533293 16.1387281,88.7398141 C15.8610965,89.2192225 15.7207456,89.7357437 15.7189912,90.2885042 C15.7189912,91.1482085 16.070307,91.828462 16.6216228,92.4598141 C16.8944298,92.7715606 17.1461842,93.0837437 17.4580263,93.3583775 C17.9102193,93.7557014 18.3983772,94.066138 18.9312719,94.3342225 C19.4470614,94.593138 19.9900439,94.8066451 20.5159211,95.0419831 C20.9514474,95.2362789 21.3860965,95.430138 21.8207456,95.6248704 C21.7027632,95.7423211 21.5909211,95.8671944 21.4856579,95.9986169 C21.3352193,96.1929127 21.1825877,96.3893915 21.0299561,96.5854338 C20.7663596,97.0390817 20.6343421,97.5267859 20.6325877,98.0520394 C20.6343421,98.5755465 20.7663596,99.0649972 21.0299561,99.5173352 C21.2887281,99.9539549 21.6382895,100.301504 22.076886,100.55911 C22.3510088,100.753842 22.6198684,100.944645 22.9062719,101.120166 C23.3597807,101.398293 23.8961842,101.575124 24.4032018,101.759377 C24.3444298,102.402518 24.4803947,103.066617 24.8080263,103.62418 C24.9334649,103.837687 25.0821491,104.02718 25.2488158,104.197025 C25.2479386,104.197899 25.2470614,104.198335 25.2466228,104.198772 C24.8799561,104.415335 24.5869737,104.706997 24.3694298,105.072011 C24.1466228,105.452307 24.0352193,105.863603 24.0334649,106.303715 C24.0624123,106.520279 24.0917982,106.735096 24.1207456,106.951659 C24.2374123,107.364265 24.4479386,107.72273 24.7514474,108.027927 C25.6852193,109.161828 27.1053947,109.675293 28.4347807,110.205786 C29.1150439,110.476927 29.8001316,110.732786 30.4839035,110.993885 C31.443114,111.360645 32.4027632,111.722166 33.3672368,112.078448 C34.3027632,112.424687 35.2347807,112.787955 36.1786404,113.11018 C36.6080263,113.256011 37.0374123,113.402715 37.4667982,113.548983 C36.9409211,113.662504 36.424693,113.815758 35.8961842,113.963335 C35.2913596,114.13187 34.8062719,114.609532 34.6387281,115.215124 C34.4773246,115.796701 34.6264474,116.548561 35.1010088,116.95811 C35.3751316,117.193448 35.6510088,117.473321 35.9593421,117.662377 C36.2782018,117.85842 36.6124123,117.989842 36.9615351,118.126504 C37.276886,118.249194 37.6334649,118.286744 37.9641667,118.336082 C38.3654825,118.395899 38.768114,118.438687 39.1707456,118.484532 C41.5606579,118.863518 43.9426754,119.326335 46.324693,119.748546 C48.7729386,120.179927 51.224693,120.580744 53.6799561,120.971082 C58.3878509,121.723377 63.1115351,122.357786 67.8347807,123.00442 C68.9764474,123.16073 70.1167982,123.313983 71.2597807,123.456321 C71.9207456,123.540589 72.5821491,123.619617 73.245307,123.689913 C73.8944298,123.759772 74.518114,123.186927 74.6808333,122.601856 C74.7874123,122.219814 74.7325877,121.801969 74.5303947,121.460532 C74.3536404,121.158828 74.0027632,120.836603 73.6409211,120.778532 C69.2536404,120.084744 64.8597807,119.424138 60.4685526,118.75742 C60.4988158,118.683631 60.5251316,118.607659 60.5466228,118.530377 C60.849693,117.430532 60.1799561,116.304927 59.095307,115.987504 C58.8667982,115.920265 58.6360965,115.862194 58.4049561,115.810237 C55.8803947,115.143082 53.4167982,114.272462 50.9387281,113.453363 C50.1058333,113.176983 49.276886,112.888814 48.4457456,112.605448 C47.9751316,112.446082 47.5045175,112.288462 47.0330263,112.130842 C47.2211842,111.880659 47.3650439,111.598603 47.4488158,111.295589 C47.6334649,110.62887 47.5378509,109.902335 47.1882895,109.305476 L46.7821491,108.783279 C46.4646053,108.469349 46.0917982,108.250166 45.6641667,108.127476 C44.8549561,107.773814 44.0488158,107.408363 43.2461842,107.035927 C43.2536404,107.028941 43.2610965,107.021955 43.268114,107.014532 C43.7874123,106.499758 44.0821491,105.790251 44.0821491,105.060223 C44.0821491,104.560293 43.9553947,104.094856 43.7036404,103.663476 C43.324693,103.018589 42.7439912,102.624758 42.043114,102.392913 C41.6413596,102.259307 41.2378509,102.130504 40.8334649,102.005631 C40.3580263,101.823997 39.8882895,101.623589 39.4084649,101.456363 C38.7058333,101.210983 38.001886,100.96342 37.2975,100.718039 C36.3900439,100.400617 35.4882895,100.053941 34.5935526,99.6998423 C35.0935526,99.3151803 35.4738158,98.7768282 35.6510088,98.1358704 C35.7948684,97.603631 35.7948684,97.0696451 35.6510088,96.5374056 C35.5501316,96.2972648 35.4488158,96.0584338 35.3461842,95.8178563 C35.0773246,95.3659549 34.7172368,95.0061803 34.2615351,94.7380958 C33.8470614,94.4481803 33.4391667,94.1704901 32.9922368,93.9316592 C32.4216228,93.6260254 31.820307,93.3788986 31.2273246,93.1247859 C30.7755702,92.9313634 30.3255702,92.7344479 29.8764474,92.537969 C30.1799561,92.3000113 30.4325877,92.0118423 30.6347807,91.673462 C31.3439912,90.4657718 31.1211842,88.9358563 30.149693,87.9434197 C29.6957456,87.4775465 29.2110965,87.0802225 28.6610965,86.7256873 C28.1624123,86.4047718 27.5729386,86.186462 27.0299561,85.9493775 C26.870307,85.8790817 26.7102193,85.8092225 26.5505702,85.7393634 C27.1124123,85.4913634 27.6001316,85.0599831 27.9036404,84.5443352 C28.1641667,84.0954901 28.2961842,83.6130254 28.2979386,83.0960676 C28.2961842,82.5778 28.1641667,82.0948986 27.9036404,81.6464901 C27.6654825,81.3207718 27.4273246,80.9505183 27.1549561,80.6606028 C26.7694298,80.2497437 26.2966228,79.9270817 25.8409211,79.5965606 C25.1589035,79.1001239 24.3659211,78.7486451 23.6220614,78.3548141 C23.0089035,78.0290958 22.4005702,77.6911521 21.7874123,77.3619408 C20.593114,76.7192366 19.3922368,76.0865746 18.2032018,75.4298986 C17.6795175,75.1408563 17.1545175,74.8535606 16.6299561,74.5662648 C17.2413596,74.6684338 17.8404825,74.7959268 18.4654825,74.8465746 L18.7738158,74.8107718 C19.3014474,74.8090254 19.7948684,74.6776028 20.2505702,74.4134479 C20.7027632,74.1981944 21.0729386,73.8454056 21.4637281,73.5367155 C22.0374123,73.0848141 22.3220614,72.1687859 22.3220614,71.4728141 C22.3220614,70.7427859 22.0273246,69.9036028 21.4637281,69.4093493 C20.8295175,68.8513493 20.2163596,68.2885465 19.5378509,67.7820676 C18.9194298,67.3214338 18.2597807,66.9363352 17.5830263,66.5660817 C16.8119737,66.1464901 16.0308333,65.7439268 15.2580263,65.3260817 C15.2053947,65.2977014 15.1532018,65.2693211 15.1010088,65.2413775 C15.8010088,65.0855042 16.4532018,64.5096028 16.8036404,63.912307 C16.9027632,63.6800254 17.0005702,63.4481803 17.099693,63.2163352 C17.2387281,62.6993775 17.2387281,62.1828563 17.099693,61.6658986 C16.9628509,61.3401803 16.8255702,61.014462 16.6869737,60.6904901 C16.5378509,60.3748141 16.3391667,60.090138 16.0909211,59.8395183 C15.7624123,59.4557296 15.3676754,59.138307 14.9580263,58.8422789 C15.3558333,58.6754901 15.8619737,58.3401662 16.0597807,58.1166169 C16.2619737,57.8935042 16.4488158,57.6581662 16.6216228,57.4088563 C16.8874123,56.9569549 17.051886,56.2867437 17.051886,55.7632366 C17.051886,54.8096592 16.5378509,53.9041099 15.8045175,53.3225324 C15.7159211,53.2518 15.6286404,53.1836873 15.5422368,53.1190676 C15.7606579,52.6785183 15.8887281,52.1803352 15.8646053,51.7275606 C15.8422368,51.311462 15.7856579,50.8988563 15.7001316,50.4910535 C15.5733772,50.1605324 15.4378509,49.8330676 15.2939912,49.5073493 C15.1808333,49.3060676 15.0575877,49.1095887 14.9273246,48.9205324 C14.468114,48.2210676 13.9387281,47.5491099 13.3032018,46.9980958 C12.7580263,46.5252366 12.1896053,46.081631 11.6124123,45.6485042 C11.9830263,45.6153211 12.3532018,45.5838845 12.7242544,45.5537577 C13.2124123,45.5127155 13.7023246,45.4716732 14.1922368,45.4310676 C15.0422368,45.359462 15.9264474,45.3096873 16.7553947,45.120631 C17.4922368,44.9534056 18.1825877,44.5250817 18.7102193,44.0033211 C19.1488158,43.5684479 19.4128509,43.0279127 19.5189912,42.4275606 C19.5532018,42.166462 19.5891667,41.9053634 19.6233772,41.6447014 C19.5790789,41.2727014 19.5273246,40.9028845 19.4659211,40.532631 C19.3663596,40.1811521 19.2330263,39.8418986 19.0685526,39.5144338 C18.8422368,39.050307 18.5646053,38.7023211 18.2409211,38.2897155 C17.7935526,37.7216732 17.3466228,37.1571239 16.8738158,36.6113493 C16.3238158,35.9760676 15.7295175,35.3861944 15.1400439,34.7910817 C15.5742544,34.3588282 15.9422368,33.8781099 16.3115351,33.3829831 C16.8137281,32.7110254 17.1374123,31.914631 17.5040789,31.1653915 C17.6944298,30.7768 17.8860965,30.3877718 18.0782018,29.9969972 C18.1913596,29.766462 18.3049561,29.5363634 18.4198684,29.3062648 C18.6308333,29.2342225 18.8417982,29.1617437 19.0527632,29.0914479 C19.6935526,28.8801239 20.3360965,28.6823352 20.970307,28.4518 C21.8505702,28.1313211 22.7124123,27.7322507 23.551886,27.3196451 C25.3663596,26.4311239 27.0676754,25.3290958 28.7176754,24.1729268 C29.7352193,23.4599268 30.7545175,22.756969 31.7343421,21.994631 C33.0435526,20.9781803 34.3764474,19.9909831 35.5860965,18.8548986 C36.0282018,18.4370535 36.4167982,17.9628845 36.7970614,17.490462 C37.345307,16.804969 37.868114,16.1055042 38.3273246,15.3584479 C38.7795175,14.6236169 39.1786404,13.8525465 39.5760088,13.088462 C40.1023246,12.0755042 40.6176754,11.0590535 41.1233772,10.0338704 C41.5466228,9.1741662 41.9540789,8.3061662 42.3672368,7.43947606 C42.8878509,6.34312394 43.4738158,5.27209577 44.0356579,4.19582817 C44.3597807,3.57495493 44.4847807,2.91129296 44.2944298,2.22405352 C44.118114,1.58440563 43.6878509,1.02858873 43.1124123,0.694138028 C41.9027632,-0.0118760563 40.3045175,0.411208451 39.5948684,1.61191268 C38.5343421,3.41122254 37.4071491,5.17123662 36.2817105,6.92950423 C35.8360965,7.62372958 35.3904825,8.31795493 34.951886,9.01741972 C34.170307,10.2700817 33.4277632,11.5554901 32.5720614,12.7592507 C32.3488158,12.7723493 32.1251316,12.8072789 31.9040789,12.8636028 C30.0865351,13.3238 28.4777632,14.3402507 26.8602193,15.2510394 C26.6926754,15.3453493 26.5255702,15.4396592 26.3580263,15.533969 C26.3571491,14.7436873 26.0667982,13.9630113 25.4795175,13.3783775 C24.9189912,12.8190676 24.143114,12.4798141 23.3461842,12.4798141 C22.7479386,12.4798141 22.3010088,12.6466028 21.7900439,12.8758282 C21.6426754,12.8513775 21.4935526,12.8439549 21.345307,12.8566169 C20.8553947,12.8972225 20.3944298,12.9710113 19.9286404,13.1207718 C19.6852193,13.1993634 19.445307,13.2932366 19.201886,13.3801239 C18.6896053,13.562631 18.1860965,13.7844338 17.7080263,14.0450958 C17.3053947,14.2651521 16.8444298,14.7375746 16.6150439,15.1300958 C16.3303947,15.6125606 16.2689912,16.0766873 16.2378509,16.6259549 C16.2391667,16.9643352 16.2988158,17.2878704 16.4167982,17.5948141 C16.2334649,17.7402085 16.0501316,17.8860394 15.8667982,18.0314338 C15.7260088,18.1309831 15.5843421,18.2287859 15.4448684,18.3296451 C14.845307,18.7627718 14.5948684,18.9898141 14.1615351,19.5901662 C13.6220614,20.3337296 13.5501316,21.1964901 13.5141667,22.0832648 C13.5010088,22.4011239 13.5457456,22.7093775 13.6378509,22.9988563 C13.2593421,23.2416169 12.8834649,23.4869972 12.5220614,23.7550817 C12.2325877,23.9764479 11.9426754,24.1999972 11.6532018,24.4235465 C11.4356579,24.7016732 11.218114,24.9811099 11.0005702,25.2627296 C10.5277632,26.0674197 10.4282018,27.1113775 10.7553947,27.9863634 C10.8619737,28.2387296 10.9698684,28.4893493 11.0760088,28.7417155 C11.2128509,28.9735606 11.3738158,29.1813915 11.5580263,29.3669549 C11.4102193,29.6415887 11.2536404,29.9114197 11.0812719,30.1742648 C10.6290789,30.6484338 10.1185526,31.0688986 9.71548246,31.5854197 C9.32162281,32.0953915 8.89486842,32.6254479 8.74267544,33.2738282 C8.61416667,33.8161099 8.49925439,34.3583915 8.57118421,34.9128986 C8.63785088,35.4263634 8.66899123,35.7944338 8.85057018,36.2515746 C8.95846491,36.6148423 9.12118421,36.9510394 9.33697368,37.2597296 C9.5597807,37.5561944 9.78916667,37.8478563 10.0273246,38.1347155 C10.1935526,38.3390535 10.4146053,38.5080254 10.6032018,38.6905324 C10.7777632,38.8595042 10.9545175,39.0297859 11.1290789,39.1987577 C11.3501316,39.4113915 11.5659211,39.6310113 11.7839035,39.8484479 C11.726886,39.8541239 11.670307,39.8598 11.6137281,39.8659127 C10.8909211,39.9357718 10.1698684,40.0226592 9.44837719,40.1078 C8.38960526,40.2322366 7.34092105,40.3911662 6.28916667,40.5597014 C5.94135965,40.6142789 5.62951754,40.7116451 5.30583333,40.8448141 C4.66986842,41.1054761 4.09969298,41.3718141 3.60276316,41.8665042 C2.76153509,42.7039408 2.44442982,43.9352085 2.7597807,45.0760958 C2.91241228,45.6288563 3.23083333,46.1558563 3.61109649,46.5789408 C3.7979386,46.7850254 4.00364035,46.9574901 4.21416667,47.1382507 C4.8602193,47.6940676 5.53697368,48.2110254 6.21372807,48.7310394 C7.09969298,49.4099831 8.00495614,50.0609831 8.9097807,50.7146028 C8.91548246,50.7194056 8.92118421,50.7242085 8.92688596,50.7290113 C8.54662281,51.0294056 8.22513158,51.4254197 7.99223684,51.8196873 C7.84267544,52.0738 7.73785088,52.3554197 7.67776316,52.6483915 C7.26504386,52.5968704 6.85232456,52.5457859 6.43960526,52.4942648 C5.82907895,52.4082507 5.21767544,52.3266028 4.60144737,52.3008423 C3.80671053,52.2667859 3.02381579,52.5003775 2.27513158,52.7256732 C1.55539474,52.9404901 0.945307018,53.3854056 0.561535088,54.0355324 C0.297938596,54.4843775 0.182587719,54.9611662 0.182587719,55.4510535 C0.182587719,55.7090958 0.214605263,55.970631 0.273815789,56.2339127" fill="#2C2C2C" mask="url(#d)"/></g></g></svg>