<svg width="500" height="600" xmlns="http://www.w3.org/2000/svg"><g fill="none" fill-rule="evenodd"><path d="M239.582 228.049l-31.336 23.542c-2.625 7.06-3.781 11.425-3.467 13.096.94 4.996-.259.456 0 5.748.388 7.948 5.91 16.373 16.564 25.275l14.4 24.108c2.333 3.613 2.746 11.01 1.238 22.19-1.507 11.18-5.5 27.91-11.981 50.185 3.48 2.489 10.676 3.527 21.587 3.115 7.774-.294 25.212 1.092 46.413-1.038 5.704-.574 14.371-2.45 26-5.628.912-8.702 1.234-14.787.968-18.254-.422-5.49-2.806-10.135-3.468-13.49-2.634-13.34-9.145-25.873-9.932-34.258-.589-6.279 1.106-11.947 1.372-17.241.234-4.647 1.095-10.07 2.583-16.27l15.92-8.386c-4.645-22.711-9.332-35.451-14.058-38.22-2.94-1.72-9.613-7.4-17.961-9.121-2.618-.54-11.336-2.46-17.153-4.442-1.136-.387-2.012-1.622-2.628-3.706-.373-.27-1.109-.27-2.205 0-3.107.765-5.271 4.402-7.925 4.824-1.826.29-10.137-.386-24.931-2.03z" fill="#F796B3"/><path d="M247.727 211.271c4.195 1.4 7.393 2.143 9.593 2.229 2.201.086 5.15-.657 8.846-2.229.683 3.852 1.431 6.439 2.243 7.762a485.936 485.936 0 003.785 6.019c-1.645 3.124-4.205 4.799-7.68 5.026-2.55.166-12.265-1.19-18.598-2.538-1.533-.327-2.446-.667-2.74-1.02a65.487 65.487 0 002.74-4.812c.787-1.54 1.39-5.02 1.81-10.437z" fill="#EFDFD3"/><path d="M251.875 274.083c21.947-7.529 34.203-11.293 36.767-11.293 3.848 0 5.792 1.884 7.141 3.345.603.653 4.763 9.753 6.268 28.733.493 6.222.307 18.01-.559 35.363-.542 2.242-4.116 4.586-10.722 7.03-6.607 2.443-16.466 5.07-29.577 7.877l-9.318-71.055z" fill="#FFF"/><path d="M240.5 225.614c-2.516 2.013-3.683 3.33-3.5 3.953.11.374.25 2.32 5 3.433 2.103.492 7.043.992 14.82 1.5l9.18 12.304c2-7.87 3-12.137 3-12.804 0-1 9-8.386 7.5-8.386-1 0-2.286-.538-3.859-1.614-4.803 3.524-9.075 5.38-12.815 5.567-3.74.188-10.182-1.13-19.326-3.953z" fill="gray"/><path d="M231.5 396.17c3.418 27.225 5.426 46.502 6.026 57.83 3.125 59.04 2.057 89.039 2.881 89.039.673 0 4.795 2.568 13.593 2.568 3.399 0 10.065-.856 20-2.568h16.738c5.248-24.31 9.167-45.6 11.756-63.871 2.589-18.27 6.558-47.459 11.908-87.565L231.5 396.17z" fill="#3A4E5C"/><path d="M249.27 549v13.333c0 1.415-14.726 11.903-13.152 19.063 1.574 7.161 27.893.593 27.893-6.7v-24.322L249.269 549zm26.254-5c.055 7.455-.515 11.218-1.71 11.287-1.792.104-7.254 3.034-5.456 6.03 1.346 2.24 19.966 8.849 30.362 8.457 1.457-.055 9.71-4.499 6.308-8.458-1.365-1.588-7.367-3.865-18.008-6.83V544h-11.496zm35.018-255.837l15.747-6.128c2.998 12.285 4.015 20.114 3.053 23.487-1.547 5.423-10.944 4.528-11.914 7.48-1.141 3.474-16.238 1.841-31.209 6.097-4.594 1.306-11.177 6.85-19.586 11.132-2.231 1.135-5.853 2.158-10.866 3.067-10.212-6.965-15.478-11.288-15.8-12.969-.75-3.914 3.392-5.767 5.56-7.596 3.708-3.13 6.894-4.672 7.956-5.364 5.437-3.541.491 3.814 5.78 2.978 7.59-1.2 20.145-6.67 27.747-8.688 6.572-1.745 8.786 0 8.773-1.659-.03-3.988 6.353-7.003 11.204-9.279a11.514 11.514 0 003.555-2.558z" fill="#EFDFD3"/><g fill="#000" fill-rule="nonzero"><path d="M310.651 231.503c.002 0 .005.003.006.004l.017-.011c-.003-.004-.003-.007-.003-.01l-.02.017m-69.473 139.579l.26-.384-.143-.004c-.038.13-.076.26-.117.388"/><path d="M241.178 371.084l.263-.389-.145-.005c-.038.13-.077.263-.118.394m75.414 10.049a6.01 6.01 0 01-.774 1.17v.004l.06-.07-.06.073-.006.393a7.4 7.4 0 00.445-.465c.066-.087.121-.173.176-.27.139-.375.231-.762.315-1.156l-.156.321zm-82.772 5.31a5.3 5.3 0 01-.294.455c.066.014.131.031.197.045.207.031.414.062.622.09a2.123 2.123 0 01-.166-.18 6.403 6.403 0 01-.339-.445l-.02.035m36.392 10.988c.052-.027.103-.052.155-.075l-.114-.084c-.01.056-.023.107-.041.16"/><path d="M316.591 381.133c-.236.48-.528.877-.866 1.282v.001c.05-.06.1-.12.151-.178l-.152.185c-.02.138-.037.275-.056.413.21-.187.4-.387.588-.595a2.35 2.35 0 00.176-.27c.141-.378.235-.765.315-1.159a7.61 7.61 0 01-.156.321"/><path d="M241.303 580.003a6.723 6.723 0 01-.625-.197l-.045-.076c-.1-.355-.19-.735-.255-1.162-.045-.826.007-1.71.155-2.782.093-.5.214-1.095.377-1.681.161-.598.386-1.235.69-1.954.673-1.356 1.55-2.733 2.688-4.21l.084-.097c.272-.317.548-.635.849-.929.455-.444.91-.883 1.387-1.3.887-.773 1.85-1.585 3.03-2.555a2.11 2.11 0 00.71-.224c.146-.07.284-.162.43-.297.89-.69.793-1.901.71-2.968-.014-.193-.028-.345-.035-.487a81.318 81.318 0 01-.058-1.311l-.007-.224a39.45 39.45 0 00-.083-1.588c-.169-2.213-.227-4.063.034-5.906.063-.306.135-.621.211-.938 1.433.11 2.882.18 4.332.248l1.888.094c1.242.065 2.48.123 3.724.158.069.003.138.003.207.003-.038.615-.076 1.246-.128 1.878-.07.825-.162 1.65-.256 2.471l-.107.956-.144 1.243-.017.148c-.076.615-.152 1.23-.211 1.847l-.12 1.184a78.69 78.69 0 00-.215 2.216c-.048.6.2 1.2.677 1.65.034.169.1.345.19.513l.155.221c-.08.384-.163.773-.252 1.164-.055.13-.11.262-.162.393a62.557 62.557 0 01-2.337 4.438l-.318.536a73.709 73.709 0 01-1.093 1.832c-.249.404-.511.794-.78 1.18-.18.253-.374.491-.573.732l-.087.107-.2.225c-.166.19-.332.38-.515.548l-.469.442-.472.438c-.21.197-.428.387-.646.574l-.265.123a83.15 83.15 0 01-1.367.608l-.284.124c-1.08.467-2.164.922-3.254 1.367l-.242.087c-.462.168-.928.338-1.404.483-.54.162-1.019.306-1.502.431-.417.1-.855.138-1.284.176l-.138.003c-.525.042-1.118.083-1.705.083-.29 0-.583-.01-.873-.038zm24.305-19.693l.034-.98c.028-.894.073-1.785.118-2.672l.024-.449c.11-2.23.255-4.456.4-6.681a36.622 36.622 0 003.859-.328l.152-.021a33.21 33.21 0 002.067-.328c.266-.055.507-.118.735-.19-.241 1.229-.525 2.55-1.032 3.827a2.783 2.783 0 01-.12.221l-.077.143-.003-.007c-.2.054-.394.127-.59.213-.325.135-.628.29-.925.477-.466.29-.94.67-1.48 1.194-.29.28-.553.593-.808.897l-.183.214c-.49.566-.88 1.066-1.191 1.653-.377.7-.57 1.457-.739 2.17-.093.406-.18.81-.262 1.213l.02-.566zm6.306-.902a7.153 7.153 0 01-.55-.965 5.582 5.582 0 01-.183-.773c0-.156.008-.308.025-.463a6.31 6.31 0 01.08-.263c.227-.237.451-.445.68-.624a6.48 6.48 0 01.566-.314 2.99 2.99 0 01.441-.076c.404-.045.708-.266 1.029-.498.366-.268.624-.773.724-1.135.06-.214.087-.442.11-.663l.015-.12c.048-.231.107-.463.162-.694.055-.227.11-.452.159-.676.124-.59.22-1.24.293-1.985.049-.486.09-.977.128-1.467.079-.962.162-1.96.307-2.934.045-.228.093-.458.152-.683l.128-.238.058-.114c.132-.252.252-.507.362-.76.094-.04.194-.086.294-.124a.918.918 0 00.5-.503c.287.12.59.224.894.324l.152.052.307.103c.891.3 1.778.508 2.523.67.984.207 1.975.352 2.989.497.121.017.239.034.359.048l-.234 2.05-.228 2.06-.097.902-.1.9-.01.104c-.028.27-.056.542-.066.814-.01.304.014.58.076.805.017.062.038.124.062.183l-.03.29c-.098.527-.132.748-.077 1.218.041.314.2.725.463.942.313.266.562.415.994.46h.058c.152 0 .242-.015.335-.029.193-.01.39-.013.583-.013 1.19 0 2.378.165 3.486.348l.415.094c.431.1.862.2 1.287.32.794.24 1.446.45 2.057.667 1.219.442 2.409.942 3.524 1.418l.186.09c1.429.673 2.906 1.374 4.266 2.22-.5.186-.86.572-.952 1.014-.118.56-.273 1.215-.542 1.857a9.243 9.243 0 01-.811 1.384 7.14 7.14 0 01-.518.503 6.098 6.098 0 01-.715.364c-.6.185-1.166.317-1.732.39-.304.02-.607.027-.911.027-.511 0-1.06-.02-1.775-.073l-.393-.027a71.551 71.551 0 01-2.851-.245 124.21 124.21 0 00-3.062-.293 32.587 32.587 0 01-2.663-.346c-.77-.166-1.585-.345-2.376-.594a55.554 55.554 0 01-2.433-.831 76.094 76.094 0 01-4.724-1.964 12.67 12.67 0 01-.88-.473 6.102 6.102 0 01-.746-.545l.004.004c-.67-.588-1.17-1.099-1.574-1.617zm13.243-239.017l.39-.28.628-.448c1.736-.169 3.48-.362 5.218-.556.932-.103 1.847-.19 2.761-.276a381.1 381.1 0 002.04-.2 137.72 137.72 0 003.6-.438l.19-.024.983-.128c1.54-.2 3.134-.439 4.736-.701l.158-.024c.07.683.17 1.422.284 2.175.017.3.051.603.086.907l.024.214c.055.7.107 1.405.131 2.102.038 1.032.197 2.126.311 2.92.152 1.043.4 2.071.638 3.065.148.6.277 1.125.387 1.653.345 1.619.694 3.203 1.173 4.815.21.704.408 1.408.605 2.115.255.925.51 1.85.8 2.765a101 101 0 00.784 2.34l.096.283.104.304c.463 1.2.925 2.402 1.38 3.607l.998 2.519.051.131a90.438 90.438 0 011.785 4.956c.335 1.015.635 2.06.928 3.072l.066.232c.127.442.256.886.386 1.328l.197.66c.4 1.345.804 2.705 1.153 4.062.435 1.681.683 3.496.88 4.956.21 1.55.36 3.196.456 5.029.048.976.128 1.95.207 2.923.062.749.12 1.44.165 2.13.038.572.06 1.193-.041 1.85a29.08 29.08 0 01-.252 1.442 6.611 6.611 0 01-.362 1.215c-.097.238-.235.56-.4.756-.35.438-.784.98-1.319 1.409-.722.58-1.602.88-2.45 1.17l-.29.1a22.24 22.24 0 01-1.011.31l-.19.059c-.487.134-.994.19-1.557.238a61.874 61.874 0 00-3.697.462 79.725 79.725 0 00-5.014.96c-1.626.37-3.159.631-4.68.807l-.4.045c-.757.09-1.558.18-2.334.231-.846.052-1.684.087-2.53.118l-.245.007-.131.007c-1.478.052-3.006.107-4.505.217l-.676.069-.455.049c-.984.096-1.965.196-2.952.275l-.43.035c-1.181.104-2.514.214-3.825.214-.21 0-.418-.003-.624-.007a16.548 16.548 0 01-4.999-.973c-.828-.297-1.697-.638-2.464-1.112a6.89 6.89 0 01-.732-.518 7.72 7.72 0 01-1.17.598c-1.584.638-3.168 1.27-4.839 1.643a19.65 19.65 0 01-1.17.22 6.371 6.371 0 01-1.266.894c-1.07.587-2.24.922-3.144 1.15-1.022.252-2.216.535-3.424.69l-.293.038c-.85.114-1.64.217-2.416.231-.467.007-.929.01-1.394.01l-.985-.003c-1.698-.02-3.444-.124-5.084-.231a127.86 127.86 0 00-2.581-.145l-.1-.004c-2.289-.12-4.652-.24-6.94-.635a54.838 54.838 0 01-2.868-.562l-.098-.021a68.002 68.002 0 01-3.462-.853c-.251-.072-.569-.154-.876-.293-.238-.107-.418-.19-.601-.328-.307-.23-.386-.34-.596-.645-.605-.89-.26-2.095-.007-2.975.134-.463.304-.915.472-1.363l.114-.3.107-.294a66.08 66.08 0 00.739-2.147l.117-.359c.435-1.325.925-2.826 1.357-4.294.107-.366.213-.731.317-1.1.321-1.118.684-2.385 1.146-3.566l.27-.693.168-.421.59-1.468.249-.6.124-.3.114-.266a.97.97 0 01.045-.107l.082-.2.118-.29.045-.118.045-.113.145-.38.041-.107c.249-.653.497-1.301.725-1.957a49.39 49.39 0 00.608-1.901l.044-.152.045-.149.035-.29.034-.249a211.862 211.862 0 011.419-9.546c.134-.95.241-1.984.338-3.255.055-.724.1-1.47.149-2.212l.034-.556c.196-3.181.645-6.391 1.08-9.495l.021-.144.017-.128.018-.117c.054-.404.1-.811.137-1.222.114-1.198.16-2.423.198-3.503l.013-.335.03-.766-.023-.107-.02-.097-.038-.142-.029-.141a.515.515 0 00-.013-.145c-.042-.248-.072-.49-.097-.728l-.02-.114a23.678 23.678 0 01-.059-1.591c0-.39.006-.783.017-1.174l.003-.207c.011-.387.02-.776.114-1.15l-.017-.133-.013-.125-.1-.822-.097-.82a3.267 3.267 0 01-.024-.353c0-.324.069-.576.224-.824.09-.132.193-.25.31-.35.19-.148.373-.244.574-.3.145-.034.251-.048.362-.051a.463.463 0 000-.208c.055.066.13.121.21.176.286.083.48.156.652.27a1.7 1.7 0 01.532.552c.7.5 1.374 1.008 1.968 1.46l.638.483c.58.435 1.156.874 1.722 1.325.1.083.2.17.297.255l.148.129.121.103.149.128.297.255c.417.356.834.705 1.256 1.053.424.349.846.704 1.263 1.066.71.639 1.411 1.284 2.105 1.943l.273.255c.241.232.48.46.728.68.293.267.66.598 1.06.857a3.53 3.53 0 001.95.808 5.298 5.298 0 00.58.003c.245-.097.504-.166.739-.224.714-.183 1.466-.277 2.198-.387.728-.11 1.48-.193 2.188-.411.646-.2 1.284-.428 1.915-.665 1.126-.44 2.285-.843 3.338-1.434a45.78 45.78 0 003.255-1.988c.459-.348.908-.703 1.363-1.055.456-.356.94-.68 1.419-1.005.659-.504 1.211-1.094 1.798-1.68.083-.084.155-.176.238-.256a1.67 1.67 0 011.14-.449c.165 0 .33.025.5.073.079.023.152.05.222.084.296-.212.594-.42.889-.626.42-.297.85-.59 1.277-.88.57-.48 1.15-.949 1.736-1.412.39-.31.79-.607 1.194-.897.314-.224.767-.473 1.167-.428.252.027.442.041.652.128a10.47 10.47 0 011.164-.392l.355-.254zm-29.496-13.04c-.203-.31-.386-.558-.753-.68.121-.075.287-.178.49-.285l.1-.053.101-.05c.3-.109.625-.187 1.025-.253.007.028-.007.079-.025.124a2.987 2.987 0 01-.272.456 14.01 14.01 0 01-.37.424l-.075.083-.145.162-.07.09-.006-.018zm-.683 8.543c1.856-1.108 3.437-1.967 4.97-2.699l.503-.238.228-.107.197-.09c.472-.224.946-.445 1.43-.652.85-.363 1.707-.71 2.574-1.053a84.636 84.636 0 014.407-1.577c1.049-.345 2.088-.7 3.13-1.063l.656-.22c.38-.132.763-.263 1.143-.388.486-.169.976-.32 1.466-.469l.252-.076 1.23-.38.807-.259c.677-.217 1.356-.427 2.036-.638l1.554-.435c1.59-.445 3.233-.904 4.865-1.326a94 94 0 003.531-.994 101.1 101.1 0 001.412-.444c.604-.2 1.088-.442 1.526-.763.093-.062.176-.142.241-.228l.096-.017.11-.021c.247-.055.488-.12.723-.197.162-.055.344-.117.462-.231l.148-.121a.785.785 0 00.263-.424c.566-.397 1.1-.839 1.687-1.336a18.269 18.269 0 001.682-1.636l.196-.2c.208-.156.421-.332.646-.542l.503-.342.11-.076c.67-.442 1.337-.887 1.985-1.356.36-.259.708-.528 1.054-.8l.116-.09c.311-.242.619-.477.936-.708a21.148 21.148 0 012.582-.504c.313-.038.624-.049.942-.058l.262-.004c.677 0 1.222.038 1.716.12l.496.073c.515.07 1.108.159 1.657.283a.546.546 0 01.11.221c.077.594.201 1.163.332 1.74l.045.2c.086.38.18.756.28 1.132l.11.448-.45.028-.476.055a31.86 31.86 0 00-1.593.238l-.49.083c-.736.114-1.468.273-2.1.408-.272.059-.459.17-.59.345-.217.127-.327.255-.434.379l-.06.07c-.2.227-.355.514-.489.766l-.069.127-.059.11c-.096.163-.156.263-.203.36l-.425.486-.604.697c-.224.228-.466.439-.711.653l-.18.152-.127.107c-.166.141-.328.283-.486.424l-.712.663c-.314.297-.628.59-.949.876-.186.166-.369.335-.555.508l-.087.08-.096.086a18.77 18.77 0 01-2.544 1.998c-.17.1-.342.196-.528.272-.187.011-.335.06-.466.105-.29.103-.467.22-.635.331l-.19.127c-.694.438-1.398.96-2.02 1.42l-.448.327a165.53 165.53 0 01-3.086 2.205 49.871 49.871 0 00-2.236 1.692l-.107.083-.369.29a88.875 88.875 0 01-2.962 2.24l-.862.61c-.235.007-.556.103-.733.3l-.234.273-.235.265-.963.663c-.445.304-.887.611-1.331.921-.577.404-1.16.812-1.744 1.206l-.614.407-.376.252-.259.176a88.35 88.35 0 00-1.885 1.294l-.638.459-.142.1c-.68.486-1.376.984-2.08 1.456-.625.415-1.253.822-1.882 1.226l-.086.051-.09.056c-.87.525-1.877 1.135-2.923 1.733l-.77.441-.279.162c-.186.08-.37.159-.556.242l-.677.308-.175.075c-.57.259-1.14.517-1.722.752-.277.09-.556.176-.84.26l-.192.058c-.346.1-.691.204-1.036.318-.718.23-1.429.518-2.057.773l-.352.141-.232.083c-.527.187-1.014.363-1.47.594a4.411 4.411 0 00-.866.538c-.277-.021-.498-.134-.718-.252l-.41-.238a20.677 20.677 0 00-.884-.487l-.41-.207-.622-.31-.418-.394c-.876-.815-1.953-1.822-3.04-2.696l-.601-.482c-.587-.477-1.173-.956-1.75-1.443-.698-.594-1.446-1.133-2.168-1.657l-.2-.145-.376-.273a128.295 128.295 0 00-2.399-1.725 68.163 68.163 0 00-2.585-1.695 64.518 64.518 0 012.53-2.74l.428-.428a80.697 80.697 0 011.726-1.71 110.36 110.36 0 011.971-1.835l.428-.397a129.024 129.024 0 014.76-4.17l.79-.659.362-.296.11-.093.211-.17a.75.75 0 00.093.604c.376.57.756 1.136 1.146 1.695l.183.273c.152.221.304.445.465.66l.114.151.118.155c-.621.307-1.287.677-1.97 1.088l-.408.251a1.867 1.867 0 00-.566.77 1.907 1.907 0 00.03 1.47c.201.445.574.804 1.026.98.238.094.504.146.749.146.28 0 .528-.063.715-.18zm60.268-18.803c-.093-.404-.17-.77-.238-1.132l-.076-.384a99.493 99.493 0 01-.348-1.708c-.049-.235-.09-.469-.132-.704-.055-.31-.1-.563-.152-.822a21.2 21.2 0 00-.435-1.818l-.027-.132a1.571 1.571 0 00-.103-.342l.427-.113.276-.1.483-.166.128-.007.135-.014c.017 0 .02-.1.02-.1a1.29 1.29 0 00.315-.107c.327-.134.652-.276.977-.421l.52-.23c1.285-.543 2.627-.988 3.815-1.382l.228-.076.196-.065c.456-.156.914-.308 1.37-.47.808-.283 1.553-.642 2.175-.955.303-.152.604-.308.903-.473l.094.331.13.341c.208.546.412 1.088.598 1.644.083.238.172.476.263.71l.041.114c.103.273.207.545.304.822.542 1.995.973 4.052 1.25 5.426.24 1.156.403 2.04.523 2.86l.025.156.093.618.107.697.028.19.017.12c.052.373.097.68.107.985l.01.152.049.085-.052.266c-.031.194-.066.366-.1.542l-.045.211-.031.169-.027.166-.038.223c-.101.342-.243.68-.442 1.064-.114.21-.225.428-.328.638l-.142.28-.145.286c-.183.314-.38.622-.583.926l-.131.21c-.25.376-.445.67-.673.925-.332.342-.715.635-1.056.894l-.228.172-.393.308c-.373.293-.75.587-1.14.855l-.741.442-.467.28-.666.397c-.428.259-.87.507-1.315.746-1.684.71-3.496 1.407-5.705 2.194-.176.056-.355.11-.538.163-.484.138-.974.262-1.464.386l-.718.186-.925.249-.4.104-.362.096c-.246.066-.49.127-.735.194-.608.154-1.215.3-1.823.445l-.507.12-.09.021-.176.042-.114.024c-.6.145-1.219.29-1.833.397l-.127.024-.156.028-.12.024c-1.436.258-2.872.517-4.304.794-1.898.362-3.517.652-4.947.883-.424.066-.849.124-1.273.183l-.366.052-.659.09c-.825.114-1.618.228-2.41.344a59.8 59.8 0 01-2.205.284l.214-.107c.87-.594 1.73-1.202 2.586-1.812 1.67-1.18 3.382-2.426 5.084-3.708l1.249-.945 1.253-.949c.141-.107.29-.214.442-.32.666-.48 1.336-.967 1.708-1.679.1-.2.162-.393.183-.583.19-.1.376-.217.552-.335.638-.417 1.177-.949 1.677-1.452a35.524 35.524 0 001.53-1.657c.189-.22.348-.407.49-.615.151-.23.286-.473.414-.717l.266-.442c.076-.118.148-.235.217-.353.11-.179.207-.372.3-.562l.086-.176.105-.113c.186-.225.375-.446.569-.66.231-.224.472-.417.71-.576a.701.701 0 00.298-.484l.67-.083c.869-.138 1.662-.258 2.464-.366.441-.061.887-.113 1.335-.165.148.232.47.393.79.393a.954.954 0 00.11-.007c.246-.038.412-.107.566-.234.118-.094.194-.204.273-.352l.36-.014.13-.01.263-.024a1.8 1.8 0 00.325-.052 1.02 1.02 0 00.42-.197c.25-.17.342-.528.304-.78-.041-.262-.234-.573-.525-.659-.086-.024-.172-.052-.261-.07h-.474l-.086.011.007-.003zm-48.068-47.557c.148-.26.197-.56.242-.902.058-.379.113-.762.162-1.145l.083-.59c.058-.425.11-.849.162-1.274a79.3 79.3 0 01.162-1.298c.094-.683.183-1.37.273-2.057l.082-.659c.118-.904.242-1.809.377-2.705.052-.322.107-.643.162-.96l.052-.132.052-.13c.168-.346.342-.684.517-1.018l.049-.087c.169-.293.338-.58.531-.852.18-.252.38-.49.58-.729l.097-.114c.286-.33.58-.67.88-.99.494-.504 1.063-.952 1.612-1.387l.356-.284c.79-.635 1.628-1.325 2.394-2.15a7.9 7.9 0 00.825-1.111c.321.176.67.338 1.015.497l.159.072c.373.173.745.342 1.122.494.828.345 1.708.645 2.484.907l.132.049a54.164 54.164 0 005.36 1.515c1.553.355 3.196.708 5.325 1.143.284.054.566.107.849.155.421.076.84.158 1.256.241l.601.118.477.09c.462.082.986.18 1.48.33.335.101.667.205.99.335.318.125.622.266.93.411.396.187.758.346 1.11.504l.139.059.697.308c1.48.72 2.84 1.559 3.976 2.28.386.246.783.48 1.177.711.262.152.521.304.78.46.7.424 1.322.849 1.901 1.294a21.467 21.467 0 012.262 2.257l.375.445.1.118c.184.22.37.441.56.655.348.397.683.811 1.004 1.236l.238.348c-.017.21-.038.422-.055.636.217.235.414.487.59.72.331.439.646.888.96 1.34.434.621.793 1.295 1.138 1.968.38.741.743 1.487 1.07 2.25.715 1.663 1.464 3.313 2.106 5.001a59.19 59.19 0 011.515 4.497c.466 1.602.897 3.213 1.326 4.825.417 1.564.78 3.137 1.048 4.736.273 1.618.556 3.244.684 4.887.035.465.104.945-.048 1.401.179.838.355 1.677.545 2.516l.041.193c-.193.052-.396.121-.6.19l-.314.103c-.076.446-.332.87-.739 1.067-1.443.69-2.868 1.415-4.304 2.116-.766.376-1.5.853-2.302 1.146-.497.18-1 .162-1.442-.08-.67.339-1.323.712-2.033 1.122-.26.148-.515.3-.77.452.23-1.525.411-3.054.552-4.352.131.144.272.283.42.41a1.585 1.585 0 01-.05-.972c.038-.14.103-.288.189-.425-.031-.95-.104-1.895-.162-2.841a1.124 1.124 0 01-.331-.39 6.918 6.918 0 01-.228-.524c-.055-.273-.083-.55-.114-.821-.522-3.683-.842-7.383-1.243-11.077-.02-.116-.037-.234-.058-.351a3.26 3.26 0 00-.238.02 7.186 7.186 0 00-.266-.587l-.242-.503a.64.64 0 00-.048-.083l-.377.231c-.161.152-.32.3-.485.445.058 1.208.134 2.416.172 3.627l.228 3.16c.041.617.085 1.234.12 1.852.049.863.104 1.726.11 2.592.007.473.022.953-.027 1.426-.038.369-.087.735-.127 1.1-.032.277-.08.518-.194.74-.014.241-.03.479-.052.714l-.072.956-.07.942-.117 1.546a108.1 108.1 0 01-.348 3.472 80.218 80.218 0 01-.387 2.378l-.083-.02-.107.007a12.15 12.15 0 00-1.805.2c-.78.148-1.442.324-2.019.539-.534.189-1.111.486-1.76.91-.504.335-1.001.698-1.477 1.05-.493.365-.918.68-1.36.977-.359.244-.728.489-1.094.731-.663.438-1.318.877-1.964 1.336l-.718.518-.283.203-.294.21c-1.504 1.077-3.06 2.192-4.62 3.248a1.057 1.057 0 00-.228.225l-.314.054c-.415.08-.829.177-1.24.28l-.32.073-.422.096-1.85.394-1.36.294-1.066.23a246.8 246.8 0 00-4.038.943c-.303.076-.604.152-.908.234l.114-.158c.007-.014.014-.028.024-.041-.18.048-.352.092-.527.137-.86.218-1.72.47-2.565.746.093.055.186.107.286.149l-1.097.434-1.125.477-.266.11c-.377.159-.756.32-1.132.483-.318.138-.625.28-.932.435-.252.125-.632.248-.922.248l-.089.007v-.01a5.993 5.993 0 01-.843-.142.796.796 0 01-.107-.034l-.424.138-.625.214c-.97.328-1.936.656-2.899 1a73.006 73.006 0 00-4.515 1.747 53.494 53.494 0 00-3.72 1.71l-.194-.29-.393-.525a17.823 17.823 0 01-.41-.567c.12-.03.272-.13.459-.3.31-.293.6-.628.883-1.022a3.09 3.09 0 00.528-1.242c.055-.314.059-.57.01-.804a1.398 1.398 0 00-.138-.41 1.615 1.615 0 00-.213-.308 2.196 2.196 0 00-.322-.28c-.124-.068-.248-.12-.372-.173-.349-.145-.622-.158-.898-.158-.335 0-.648.038-.966.11.041-.106.041-.245.007-.417a2.9 2.9 0 00-.2-.656 12.98 12.98 0 00-.356-.842l-.038-.086c-.196-.425-.362-.774-.56-1.078a17.023 17.023 0 00-.73-1.08l-.218-.3a21.94 21.94 0 00-.563-.776 71.403 71.403 0 00-1.197-1.543l-.149-.19-.472-.6-.166-.208c-.48-.614-1.036-1.328-1.629-1.991a38.1 38.1 0 00-1.43-1.463c-.358-.356-.717-.712-1.066-1.08a39.522 39.522 0 01-2.378-2.686c-.469-.645-.838-1.401-1.166-2.068l-.19-.393-.21-.421-.407-.825c-.205-.414-.408-.828-.615-1.242l-.276-.556c-.335-.67-.677-1.35-1.029-2.026a6.9 6.9 0 00-.114-.414l-.03-.107a18.438 18.438 0 01-.053-.19 4.947 4.947 0 00-.103-.324l-.027-.087a6.895 6.895 0 01-.101-.351l-.207-.795a26.673 26.673 0 00-.331-1.266c-.128-.435-.241-.877-.359-1.315l-.18-.673a71.655 71.655 0 00-.234-.822 33.652 33.652 0 01-.356-1.273 65.76 65.76 0 01-.531-2.178 65.168 65.168 0 00-.55-2.323 66.29 66.29 0 00-.593-2.098 49.432 49.432 0 00-.766-2.312l-.076-.208a47.414 47.414 0 00-.614-1.677c-.27-.687-.546-1.37-.825-2.057a195.278 195.278 0 01-1.84-4.722c-.08-.206-.324-.366-.518-.427a.838.838 0 00-.683.062.884.884 0 00-.435.51c-.01.087-.024.163-.038.239a.877.877 0 00.104.451l.172.47c.435 1.145.87 2.291 1.33 3.43.414 1.025.824 2.051 1.228 3.086l.23.662.474 1.347c.266.77.497 1.546.725 2.326l.12.411c.17.576.335 1.149.487 1.726l.252.994.032.12c.096.38.192.763.296 1.146.18.673.397 1.392.65 2.136l.144.422.373 1.073a63.728 63.728 0 00-1.412-2.323 110.94 110.94 0 00-1.96-2.95 155.13 155.13 0 01-1.05-1.55c-.766-1.16-1.936-2.883-3.224-4.494a126.432 126.432 0 00-1.539-1.864l-.234-.283a14.698 14.698 0 00-.642-.71l-.252-.277c-.431-.466-.853-.925-1.284-1.38a.57.57 0 00-.418-.17.612.612 0 00-.427.17.61.61 0 000 .852c.469.497.93 1 1.39 1.509l.21.23c.218.235.433.47.636.715l.56.673.562.676c.11.135.22.277.328.418l.207.266.24.317.895 1.222c.21.283.41.58.608.877l.237.355c.335.49.653.988.97 1.488l.418.659.622.952.114.176c.286.44.572.878.848 1.32a207.5 207.5 0 011.591 2.622c.773 1.308 1.781 3.038 2.714 4.815.797 1.536 1.483 3.058 2.367 5.043l.497 1.117.152.339.486 1.08c.156.349.345.76.57 1.17.283.529.656.998 1.046 1.474l.18.221c.275.345.555.686.841 1.021.287.339.587.667.891.994l.079.083c.36.39.735.774 1.111 1.153.27.273.532.539.791.812.58.607 1.108 1.28 1.56 1.867l.176.228.338.434.07.09c.703.915 1.387 1.815 2.022 2.754l.176.256c.393.576.714 1.052.956 1.556l.103.214c.132.262.256.524.38.79l.07.149.133.286c.11.239.263.46.487.725.031.035.07.066.104.093l-.149.059c-.42.262-.842.55-1.294.877a1.442 1.442 0 00-.227.165c-.208.156-.415.315-.622.476l-.12.09-.076.086-.187.114-.09.073c-1.025.797-1.847 1.45-2.578 2.057a87.62 87.62 0 00-2.178 1.891l-.186.166-.07.062a108.58 108.58 0 00-4.441 4.2l-.21.214-.084.087c-.818.828-1.663 1.688-2.436 2.578a67.511 67.511 0 00-2.52 3.113l.004-.083-.045-.093c-.097-.21-.208-.418-.318-.624l-.062-.118-.055-.103-.2-.37a64.987 64.987 0 01-.936-1.895l-.424-.873a117.93 117.93 0 00-1.36-2.716l-.235-.456-.055-.103a46.018 46.018 0 00-1.15-2.11 71.04 71.04 0 00-1.705-2.743 90.601 90.601 0 01-1.666-2.675c-.253-.41-.497-.828-.739-1.242l-.224-.38-.6-.993-.166-.273a18.68 18.68 0 00-.666-1.053l-.912-1.305-.207-.304-.076-.11c-.159-.23-.317-.462-.483-.69a109.324 109.324 0 01-2.796-4.187 53.472 53.472 0 00-1.815-2.73c-.107-.148-.214-.297-.325-.445l-.161-.225-.25-.334a62.826 62.826 0 01-1.076-1.474c-.283-.408-.559-.818-.836-1.228l-.175-.263-.062-.093c-.235-.345-.466-.687-.708-1.025l-1.936-2.776a136.205 136.205 0 00-1.691-2.353l-.148-.2-.774-1.07-.193-.266a27.002 27.002 0 01-.67-.99l-.217-.321a40.059 40.059 0 01-.832-1.336l-.245-.4-.156-.26a37.345 37.345 0 01-.77-1.297l-.293-.529-.297-.53c-.076-.135-.144-.274-.213-.412l-.066-.134-.138-.286c-.09-.177-.176-.356-.258-.532l-.129-.262-.224-.477-.248-.528-.052-.124c-.294-.707-.597-1.436-.832-2.16-.262-.805-.414-1.678-.549-2.448l-.041-.224c-.045-.421-.087-.842-.127-1.267a12.904 12.904 0 01-.036-.645l-.006-.128-.003-.13c0-.15-.004-.29-.012-.436a4.611 4.611 0 01.012-.365l.007-.194.01-.241c0-.139.003-.28.014-.422l.103-1.404.027-.187c.056-.41.114-.822.2-1.228.139-.639.28-1.278.425-1.916.22-.966.539-1.981.974-3.106.534-1.2 1.135-2.24 1.836-3.172.783-.994 1.698-1.923 2.502-2.744l.132-.131c.42-.424.842-.842 1.273-1.257.427-.403.866-.786 1.311-1.17l.121-.1c.75-.576 1.508-1.149 2.267-1.718.242-.177.477-.356.712-.535l.162-.125c.556-.424 1.112-.849 1.684-1.25a217.881 217.881 0 015.253-3.533l.121-.08.083-.055a63.232 63.232 0 002.454-1.67l.442-.321a413.91 413.91 0 012.268-1.626l.87-.614.375-.263a79.81 79.81 0 001.402-.99c.18-.128.355-.259.53-.397l.09-.069.111-.086.424-.332 1.516-1.146c.317-.237.642-.465.97-.69l.324-.228c.59-.41 1.18-.821 1.778-1.222.038.06.107.114.189.16.007.117.038.255.076.414.11.42.345.742.577 1.032.23.279.524.514.828.748l.228.183c.276.232.58.467.936.628.23.11.496.214.804.322.486.169 1.055.355 1.642.473l.194.041.134.024c1.139.232 2.26.456 3.382.549 1.108.086 2.22.13 3.452.183l.11.007c.497.016.991.034 1.488.062.476.017.949.048 1.422.08l.897.051.618.028.142.003.134.004c.438.024.887.044 1.322.1l.152.045.22.11c.211.096.419.228.691.431.273.221.518.462.728.721.46.646.884 1.34 1.294 2.01l.16.255.054.093c.097.159.194.314.297.47.09.154.187.303.284.455l.11.17.196.306c.394.604.795 1.232 1.164 1.868.162.282.31.569.459.859l.062.113.052.11.172.332.083.16c.094.186.19.372.276.562l.066.162.052.114c.075.169.151.338.234.503l.073.125.09-.183.045-.183.058-.138.639 1.17a48.003 48.003 0 001.697 2.727c.194.29.436.645.815.697.038.004.076.004.11.004.3 0 .556-.152.708-.411zm-3.317-18.224c.987-.12 1.916-.497 2.613-.814.756-.335 1.474-.721 2.33-1.191.39-.214.731-.404 1.066-.625.218-.138.431-.29.643-.442l.34-.241.229-.16.231-.16a22.241 22.241 0 001.226-.887l.096-.077.148-.117.083-.076.055.061c.3.228.621.436.943.64l.22.14.049.339c0 .049-.004.094-.008.138-.04.287-.01.5.105.715-.018.155-.076.237-.128.313a10.31 10.31 0 01-1.418 1.409l-.56.427-.393.3c-.594.457-1.187.913-1.774 1.371a36.41 36.41 0 01-1.077.753l-.197.13-.135.09-.124.08c-.411.269-.925.604-1.219 1.118-.659 1.139-1.093 2.099-1.373 3.013a18.614 18.614 0 00-.441 1.716l-.098.521-.023.117-.024.124a25.018 25.018 0 01-.604 2.488 4.469 4.469 0 00-.397-.751c-.4-.652-.86-1.319-1.298-1.94l-.26-.376-.365-.536a98.312 98.312 0 01-.877-1.329l-.144-.224c-.29-.444-.584-.89-.888-1.328a5.937 5.937 0 00-1.09-1.229 7.625 7.625 0 00-1.115-.759c-.166-.094-.31-.177-.456-.235a7.436 7.436 0 00-.38-.166.915.915 0 00-.334-.058c-.114 0-.231.017-.349.034a1.3 1.3 0 00-.183.042l-.128.02c-.145 0-.293-.006-.444-.017l-.128-.007a25.724 25.724 0 00-1.294-.049l-.59-.013c-.936-.034-1.868-.065-2.804-.086l-.945-.017-1.912-.042a42.236 42.236 0 01-1.608-.059c-.37-.02-.735-.062-1.098-.103l-.214-.024-.241-.038c-1.302-.208-2.648-.425-3.904-.898-.4-.193-.753-.452-1.112-.72a4.164 4.164 0 01-.548-.515c-.035-.038-.062-.09-.09-.139a2.755 2.755 0 01-.124-.417 6.433 6.433 0 01.027-.973 6.69 6.69 0 01.283-1.108c.132-.283.277-.556.429-.832l.085-.159.125-.103c.072-.045.148-.087.228-.121.117-.035.238-.059.362-.083h.1c.014.031.042.07.072.11.3.367.612.6.95.715a2.178 2.178 0 00.907.114c.222.1.46.207.698.297l.083.034c.739.277 1.501.566 2.298.787l.27.073c.341.096.641.18.956.248l.427.09.142.031.124.024c.197.042.393.083.59.118l2.754.49c.322.051.646.093.97.13l.453.055c.375.05.748.09 1.125.122l.472.041.335.031c.594.056 1.153.11 1.713.18l.39.044c.324.038.648.076.973.121l.203.024.163.021c.268.035.545.07.814.093a80.49 80.49 0 002.568.149l.359.017c.39.02.759.041 1.132.041.356 0 .673-.02.96-.055zm-16.57-18.41c.048.256.09.473.124.687a.536.536 0 00-.507.528l.004.21c.02 1.029.041 2.095-.118 3.138-.072.476-.148.953-.228 1.429-.062.318-.13.666-.22 1.011a4.213 4.213 0 01-.263.698l-.042.1-.1.234c-.113.287-.217.573-.32.863-.135.387-.277.784-.445 1.163a9.178 9.178 0 01-1.17 1.791l-.097.121c-.17.21-.29.363-.408.515l-.141.176-.221.273-.1.106-.238-.179c-.1-.072-.2-.145-.303-.208a3.619 3.619 0 00-1.043-.451 2.731 2.731 0 00-.677-.083c-.21 0-.424.024-.648.065a2.68 2.68 0 00-.55.18l-.09.038c-.22.086-.434.231-.7.46-.942.807-1.463 2.083-1.546 3.796-.618.4-1.228.814-1.836 1.239l-.438.303c-.308.207-.615.414-.911.638l-2.703 2.044a49.36 49.36 0 01-1.963 1.394l-.677.459c-.621.428-1.239.863-1.85 1.298l-.642.452c-1.142.811-2.344 1.584-3.507 2.33l-.107.07-.259.164-.394.252-1.007.653-.704.452-.273.18c-.562.362-1.125.728-1.68 1.1-.584.394-1.157.805-1.726 1.216l-.176.127-.7.507-.377.27a264.71 264.71 0 00-2.296 1.656 25.252 25.252 0 00-2.353 2.009 78.371 78.371 0 00-2.323 2.292c-.397.417-.763.832-1.112 1.26a15.07 15.07 0 00-1.197 1.725c-.087.134-.165.28-.241.422l-.19.351c-1.032 1.847-1.554 3.935-1.995 5.913-.062.29-.128.58-.197.866-.031.155-.052.317-.073.476l-.055.37a27.042 27.042 0 00-.19 1.705l-.007.089c-.027.37-.045.75-.061 1.126l-.022.386c-.006.159 0 .318.01.48l.008.235.004.21v.094c.003.127.007.251.016.375l.042.476c.03.415.065.843.135 1.26l.02.125c.128.78.263 1.588.47 2.36.197.711.483 1.426.731 2.054l.16.386c.175.44.368.867.565 1.298l.142.304c.338.76.79 1.746 1.311 2.644.56.977 1.13 1.953 1.698 2.923.45.766.942 1.491 1.543 2.358l.228.328.639.925.31.441.152.225c.224.324.449.648.673.98.435.648.859 1.276 1.277 1.908l.425.643c.324.486.638.972.956 1.466.241.377.486.752.735 1.132a70.57 70.57 0 001.356 1.995c.728 1.056 1.453 2.095 2.095 3.155l.408.683a69.188 69.188 0 002.419 3.783l.711 1.073.207.314.138.21a61.51 61.51 0 011.37 2.13c.49.812.956 1.64 1.419 2.468l.18.318c.696 1.253 1.515 2.554 2.115 3.5l.235.376c.324.518.645 1.028.96 1.543.81 1.345 1.559 2.757 2.284 4.12l.162.297.476.894.376.721c.342.653.684 1.305 1.054 1.936.237.415.486.819.74 1.219.167.259.312.532.457.804l.204.376c.155.29.337.532.51.76.097.103.197.186.301.248.2.114.4.142.607.166l.118.017c.279 0 .534-.124.676-.19.193-.09.328-.172.486-.304a3.16 3.16 0 00.411-.407c-.127.943-.172 1.916-.217 2.862l-.052 1.028c-.045.783-.104 1.57-.162 2.354l-.09 1.266c-.124 1.816-.196 3.683-.263 5.333-.027.77-.061 1.536-.096 2.302l-.003.096a73.993 73.993 0 01-.27 3.811c-.058.604-.13 1.212-.203 1.815a82.617 82.617 0 00-.2 1.816c-.273 2.851-.573 5.205-.943 7.407-.092.552-.175 1.108-.262 1.663l-.065.439a46.317 46.317 0 01-.67 3.127c-.283 1.118-.61 2.198-1.014 3.478-.387 1.24-.76 2.482-1.133 3.724a264.186 264.186 0 01-1.076 3.56c-.149.476-.29.955-.432 1.435l-.079.28c-.166.559-.331 1.122-.518 1.674-.38 1.155-.79 2.336-1.26 3.613-.425 1.17-.842 2.34-1.26 3.51-.434 1.218-.79 2.51-1.104 3.652l-.317 1.177a83.257 83.257 0 01-.505 1.84c-.093.33-.176.665-.245 1l-.03.149c-.06.3-.138.71-.16 1.08-.023.352.025.721.066 1.046l.028.213c.117.97.69 1.972 1.698 2.97a8.674 8.674 0 002.002 1.483c.334.18.676.349 1.024.507.66.117 1.364.27 2.216.476l.611.149.121.031c.32.079.65.162.974.245l.148.038.086.024.114.028.197.055c.496.134.945.27 1.387.414l.311.104.11.03.245.1c2.206.267 4.356.391 6.734.515a35.97 35.97 0 001.743.041c1.874 0 3.7-.137 5.24-.268 2.678-.239 5.283-.552 7.751-.936 1.626-.255 3.176-.742 4.608-1.233a22.56 22.56 0 011.304-.393c.384-.11.763-.217 1.136-.338a31.01 31.01 0 001.605-.573l.404-.141c.145-.045.204-.063.262-.083l-.024.121.003.134c.208-.1.387-.217.556-.331.142-.09.273-.18.403-.255a1.4 1.4 0 01.695-.183c.641 0 1.266.456 1.48 1.086l.032-.1-.004-.092c-.01-.387-.021-.746-.034-1.101.192.186.403.335.614.47 1.184.751 2.598.986 3.962 1.21l.5.087c2.496.431 5.043.604 7.51.77l.298.02a73.26 73.26 0 004.617.159 61.13 61.13 0 003.338-.094c3.323-.196 6.068-.4 8.628-.641 1.688-.166 3.37-.38 5.084-.597a210.53 210.53 0 013-.37l1.57-.183a127.61 127.61 0 003.952-.486c-.763 3.3-1.488 6.61-2.17 9.82a94.694 94.694 0 00-.916 4.977 189.696 189.696 0 00-.838 5.649c-.421 3.297-.784 6.583-1.201 10.5-.27 2.512-.556 5.022-.842 7.53a849.26 849.26 0 00-.49 4.321 597.97 597.97 0 01-1.226 10.085c-.29 2.238-.562 4.474-.835 6.71l-.058.498c-.19 1.518-.377 3.04-.567 4.559-.176 1.414-.362 2.826-.548 4.24l-.138 1.061-.139 1.06c-.169 1.28-.335 2.56-.497 3.844-.251 2.01-.5 4.018-.738 6.027l-.06.487c-.161 1.38-.344 2.944-.58 4.462a287.347 287.347 0 01-.807 4.887l-.045.238c-.68 3.607-1.356 7.21-2.008 10.82-.449 2.46-.94 4.96-1.419 7.39l-.124.621-.525 2.668-.393 1.991c-.356 1.806-.711 3.61-1.046 5.423a284.99 284.99 0 00-.98 5.664l-.342 2.053-.41 2.281a264.089 264.089 0 01-1.232 6.63c-.132.653-.27 1.302-.404 1.954l-.094.445c-.161.77-.324 1.543-.472 2.323a96.09 96.09 0 00-.508 2.806c-.059.352-.106.704-.148 1.056l-.034.26c-.042.316-.08.6-.073.872-.003.094 0 .187.007.28a1.882 1.882 0 00-.37.439l-.21.445a4.51 4.51 0 01-.484.227c-.351.117-.69.204-1.034.262-.263.01-.529.018-.795.018-.583 0-1.166-.025-1.746-.049l-.356-.014a55.788 55.788 0 01-3.471-.214c-.325-.03-.65-.076-.97-.12l-.16-.024-.486-.07a15.88 15.88 0 00-1.643-.124c-.586-.017-1.1-.048-1.57-.096.045-.183.07-.397.093-.607.049-.418.063-.805.076-1.188l.018-.414c.05-1.056.1-2.115.145-3.176l.045-1.117.047-1.112c.06-1.443.118-2.886.187-4.328.134-2.799.293-5.595.456-8.394.096-1.67.193-3.345.282-5.018.152-2.8.318-5.595.484-8.397l.007-.121c.107-1.802.214-3.604.317-5.409.193-3.344.3-6.748.404-10.036l.1-3.145c.297-8.877.59-17.758.856-26.634l.097-3.159c.117-3.661.217-6.961.245-10.271.017-2.04.01-4.273-.021-7.023a301.14 301.14 0 01.003-7.055c.01-.897.07-1.815.128-2.699.035-.528.062-.973.087-1.418.02-.373.058-.742.096-1.115.024-.218.045-.431.065-.649l.138-1.477.139-1.502c.082-.904.196-1.808.31-2.713l.132-1.048c.259-2.113.521-4.219.814-6.324.055-.397-.076-.808-.366-1.152-.338-.4-.846-.66-1.328-.677-.514 0-.932.159-1.264.466-.404.369-.514.825-.566 1.225a514.1 514.1 0 00-1.045 8.086l-.132 1.06a62.08 62.08 0 00-.21 1.989l-.07.72-.099.922c-.08.746-.16 1.492-.211 2.237-.08 1.163-.158 2.326-.241 3.49l-.015.223c-.047.722-.061 1.46-.076 2.178l-.003.187c-.006.396-.013.79-.024 1.184a132.232 132.232 0 00-.038 4.383v.259c.004.753.007 1.501.004 2.25-.015 3.662-.176 7.382-.335 10.983l-.014.331-.1 2.282c-.107 2.477-.225 4.955-.339 7.434l-.089 1.89-.19 4.029c-.152 3.248-.293 6.498-.435 9.746l-.017.411c-.232 5.253-.47 10.686-.752 16.022a886.947 886.947 0 01-.884 14.009 437.083 437.083 0 00-.307 4.86l-.096 1.622c-.07 1.18-.149 2.357-.228 3.534l-.05.77c-.054.803-.106 1.608-.155 2.412-.182 3.1-.317 6.147-.424 8.719a487.713 487.713 0 00-.148 3.934c-.024.683-.045 1.367-.062 2.05-.018.67-.038 1.363.096 2.002a16.98 16.98 0 00-1.276 1.529c-.221.307-.432.618-.64.932l-.1.162-.062.104c-.279.041-.572.08-.862.12-.273.032-.494.063-.708.097-.831.13-1.664.241-2.495.342a73.74 73.74 0 01-6.402.252c-.58 0-1.16-.004-1.74-.007l-1.84-.007-.762.003a272.623 272.623 0 01-5.553-.02c-1.816-.025-3.75-.069-5.65-.335a10.623 10.623 0 01-2.023-.618 9.239 9.239 0 01-.504-.252c.172-.466.362-.942.552-1.418l.18-.442c.279-.697-.09-1.463-.598-1.861v-.127l-.034-1.195-.062-2.08c-.041-1.57-.09-3.249-.18-4.933-.107-2.015-.207-4.031-.307-6.05l-.197-3.914c-.217-4.335-.38-8.753-.525-12.653l-.065-1.742a1222.46 1222.46 0 00-.196-5.075 331.84 331.84 0 01-.194-6.685l-.007-.248-.065-2.775c-.042-1.56-.072-3.12-.103-4.68-.032-1.705-.067-3.41-.11-5.112a562.58 562.58 0 00-.178-5.457c-.047-1.345-.092-2.654-.134-3.962-.09-2.878-.203-5.836-.345-9.042a3337.65 3337.65 0 00-.49-10.41c-.052-1.08-.097-2.157-.142-3.238l-.065-1.593c-.038-.94-.104-1.875-.17-2.814l-.023-.313c-.038-.55-.076-1.099-.11-1.647a46.728 46.728 0 00-.136-1.525l-.076-.811-.069-.812-.016-.21a39.581 39.581 0 00-.16-1.681l-.28-2.334-.272-2.301-.179-1.481-.014-.114c-.307-2.588-.618-5.174-.9-7.766-.357-3.261-.746-6.76-1.215-10.278a209.644 209.644 0 01-.546-4.636c-.176-1.608-.345-3.178-.555-4.742-.225-1.705-.45-3.4-.64-5.098-.048-.8-.09-1.664-.065-2.533a1.144 1.144 0 00-1.087-1.177c-.635 0-1.16.49-1.177 1.087-.049 1.743.134 3.438.342 5.168l.107.914c.141 1.167.282 2.336.407 3.504l.245 2.336.097.887c.248 2.364.5 4.729.77 7.083.23 2.042.427 4.124.617 6.136.093.987.187 1.974.286 2.958l.145 1.46.128 1.249c.228 2.296.46 4.59.701 6.882l.162 1.543.162 1.542c.035.487.076.974.118 1.461l.024.283c.08.973.159 1.94.204 2.913.024.51.051 1.018.082 1.528l.018.328c.055.974.107 1.95.134 2.924.09 3.206.186 6.413.297 9.62.117 3.488.228 6.974.317 10.463.032 1.198.052 2.4.076 3.6l.014.877c.028 1.505.056 2.99.094 4.473.09 3.583.145 7.166.196 10.748l.018 1.08c.038 2.526.08 5.05.134 7.576.134 6.16.359 12.353.58 18.34l.045 1.195c.086 2.405.193 4.811.3 7.214l.045 1.066.082 1.819.056 1.24c.134 2.819.259 5.573.314 8.286.017.752.034 1.501.055 2.25.01.441.024.883.045 1.321.007.174.02.342.035.512l.01.117.02.21c.015.118.025.235.035.356.02.235.107.442.18.625l.058.155c.041.07.083.138.132.207a1.64 1.64 0 00-.097.217c-.318.795-.673 1.695-.373 2.651.204.632.524 1.135 1.05 1.63.417.396.866.734 1.366 1.104.56.414 1.25.659 1.857.873.57.204 1.149.325 1.636.414l.255.045.255.049a.847.847 0 00.008.223c.175 1.478.341 2.928.5 4.381.097 1.107.193 2.215.262 3.33.035.576.063 1.157.083 1.733.014.507.065 1.046.331 1.519l-.317.24c-.159.125-.318.25-.472.38-.518.436-1.002.922-1.468 1.392-.214.217-.428.43-.645.642a56.55 56.55 0 01-1.242 1.156l-.621.573c-.581.542-1.099 1.121-1.671 1.767l-.239.265c-.755.863-1.445 1.647-2.101 2.479-.59.745-1.08 1.573-1.56 2.378l-.118.2-.314.521-.1.165c-.86 1.43-1.746 2.91-2.52 4.422-.517 1.015-.914 2.095-1.277 3.113l-.113.321c-.262.746-.528 1.498-.735 2.254-.27.983-.56 2.15-.66 3.362-.04.517-.003 1.097.117 1.825.09.511.335 1.022.529 1.43.324.665.914 1.128 1.484 1.576a6.79 6.79 0 002.613 1.27c.603.16 1.235.263 1.846.363l.497.087c.677.11 1.336.176 2.019.192h.172c.494 0 1.015-.069 1.433-.123l.193-.025 1.008-.134c1.888-.26 3.748-.884 5.477-1.525a47.175 47.175 0 001.789-.691c.32-.135.634-.29.949-.446l.403-.203c.732-.352 1.46-.753 2.16-1.139l.098-.052.648-.359c1.795-.983 3.57-2.194 5.42-3.7l.151-.124c1.487-1.211 3.023-2.46 4.438-3.803.69-.656 1.416-1.47 2.155-2.423.51-.663 1.028-1.333 1.452-2.078.355-.618.69-1.342 1.052-2.275.304-.776.619-1.608.853-2.453.211.1.432.196.65.297.39.19.713.355 1.041.52.408.204.815.41 1.23.604.787.373 1.601.674 2.364.95 1.622.593 3.24 1.101 4.897 1.612 1.677.521 3.41 1.01 5.295 1.505.804.21 1.867.472 2.967.659.864.145 1.747.252 2.603.355l.2.027c1.792.221 3.603.263 5.143.277h.376a43.39 43.39 0 005.319-.311c1.77-.225 3.827-.593 5.678-1.622.43-.238.887-.573 1.39-1.018.453-.397.825-.866 1.188-1.315.397-.497.68-.914.883-1.315.26-.511.428-.963.528-1.422.065-.29.114-.583.162-.873l.038-.232c.135-.783.031-1.577-.068-2.346-.076-.567-.266-1.129-.473-1.706-.211-.603-.411-1.104-.711-1.563a7.003 7.003 0 00-.888-1.118 32.24 32.24 0 00-1.142-1.112c-1.187-1.104-2.492-2.24-3.976-3.075-.867-.494-1.809-.89-2.716-1.274l-.284-.116-.669-.288c-.638-.272-1.274-.548-1.919-.782-.918-.342-1.84-.674-2.768-.99-1.984-.681-3.648-1.105-5.232-1.344a51.315 51.315 0 00-2.292-.28.974.974 0 00.107-.248c.072-.214.104-.442.135-.663l.017-.134c.034-.228.059-.46.08-.69l.02-.228c.059-.594.12-1.184.183-1.778.135-1.332.272-2.644.414-3.951h.021c.335 0 .7-.029 1.111-.08.318-.045.629-.148.928-.245l.145-.048c.73-.235 1.564-.549 2.216-1.097.697-.585 1.108-1.347 1.188-2.21.038-.424-.015-.821-.176-1.325.207-.228.335-.445.424-.718.065-.203.1-.407.135-.614l.027-.18a6.71 6.71 0 00.066-.55 39.9 39.9 0 01.145-1.265c.09-.694.207-1.385.328-2.071l.048-.283-.117.476a562.327 562.327 0 003.561-20.215c.54-3 1.105-5.995 1.668-8.994l.152-.808c.72-3.797 1.48-7.835 2.167-11.742.245-1.401.497-2.802.75-4.204.396-2.18.793-4.362 1.151-6.554.342-2.057.584-3.73.76-5.26.234-2.026.455-4.055.673-6.084.228-2.123.48-4.245.732-6.371l.01-.107c.155-1.316.31-2.63.463-3.949.43-3.762.856-7.528 1.256-11.293.12-1.115.252-2.23.383-3.345l.083-.72c.245-2.037.5-4.205.69-6.307.345-3.803.711-7.606 1.095-11.407.213-2.102.396-4.21.583-6.312a457.8 457.8 0 01.413-4.642c.37-3.856.815-7.352 1.364-10.69.11-.693.224-1.39.342-2.084l.314-1.556c.269-1.347.542-2.696.839-4.032l.41-1.87.128-.584.704-3.179c.8-.252 1.608-.518 2.42-.79l.158-.115.156-.113.041-.3.038-.322a9.55 9.55 0 001.487-1.18c.836-.828 1.309-1.698 1.84-2.92.434-1.018.697-2.056.876-2.85.067-.301.121-.604.177-.908.051-.283.103-.556.162-.832.072-.321.152-.642.228-.96l.045-.176.179-.724c.273-1.122.48-2.385.635-3.862a143.84 143.84 0 00-.238-3.031c-.2-1.677-.487-3.42-.718-4.822l-.117-.717-.18-1.101-.065-.4a119.42 119.42 0 00-.773-4.394c-.398-1.995-.746-3.521-1.13-4.946a64.11 64.11 0 00-.64-2.226c-.274-.89-.56-1.761-.86-2.623-.311-.887-.573-1.802-.83-2.69l-.023-.086-.065-.234c-.16-.542-.315-1.08-.484-1.622a132.294 132.294 0 00-1.546-4.608c-.255-.635-.518-1.267-.78-1.899l-.134-.324-.228-.552-.21-.507c-.602-1.453-1.223-2.958-1.782-4.48-.569-1.543-1.112-3.152-1.591-4.566a76.85 76.85 0 00-.459-1.291c-.362-.994-.773-2.123-1.018-3.252-.162-.745-.318-1.494-.466-2.24l-.1-.49a42.366 42.366 0 01-.311-1.618 23.28 23.28 0 01-.29-3.027 11.957 11.957 0 00-.196-.562 2.831 2.831 0 01-.056-.205 1.504 1.504 0 00-.252-.534l-.023-.097-.108-.886a19.319 19.319 0 001.785-.408l1.37-.383c1.173-.321 2.381-.656 3.565-1.012 1.847-.569 3.265-1.028 4.642-1.552.546-.204 1.09-.463 1.595-.712l.345-.166.259-.12.38-.18.089-.04c.425-.205.849-.408 1.263-.629 1.381-.704 2.861-1.557 4.522-2.602.67-.414 1.363-.894 1.908-1.588.353-.445.518-.977.666-1.446.194-.601.356-1.208.501-1.854a1.662 1.662 0 00-.076-.721.915.915 0 00.131-.652l-.03-.114a6.861 6.861 0 00.255-1.937c.014-.883-.149-1.801-.276-2.54l-.083-.48c-.142-.862-.315-1.86-.556-2.833l-.087-.366-.172-.732a67.896 67.896 0 00-.456-1.86 87.12 87.12 0 00-.797-2.882 16.785 16.785 0 00-.503-1.44c-.101-.251-.183-.455-.27-.651l-.214-.518-.12-.293-.07-.16c-.103-.255-.21-.514-.331-.762-.134-.27-.259-.542-.384-.815a.704.704 0 01.201-.224c.286-.252.47-.51.566-.787.093-.256.086-.452.07-.7a.887.887 0 00-.098-.332.478.478 0 00.107-.252c.045-.238.042-.276.018-.514-.007-.066-.018-.131-.028-.194.083-.442-.014-.942-.076-1.27a52.035 52.035 0 00-.4-1.926l-.1-.458-.128-.556-.128-.552-.127-.552a28.621 28.621 0 00-.228-.867l-.052-.187-.048-.179-.17-.6c-.451-1.66-.845-3-1.228-4.222a99.688 99.688 0 00-.704-2.125l-.141-.424c-.18-.54-.346-1.081-.508-1.626l.031-.263.035-.27c.027-.206.051-.414.076-.62-.139-.359-.228-.756-.318-1.112l-.024-.107a.794.794 0 01-.065-.058c-.239-.3-.277-.315-.402-.684a.891.891 0 00-.034-.1l-.082-.248c-.076-.224-.156-.449-.232-.673-.134-.408-.27-.818-.393-1.233-.17-.555-.342-1.114-.521-1.67-.366-.804-.746-1.602-1.088-2.419-.375-.908-.72-1.837-1.087-2.755a73.744 73.744 0 01-1.363-3.254c-.21-.286-.418-.577-.625-.863-.794-1.105-1.53-2.254-2.26-3.397-.321-.5-.587-1.021-.867-1.542-.318-.604-.666-1.194-1-1.788-.142-.252-.283-.507-.428-.762l-.038.382a3.959 3.959 0 00-.363-.48l-.325-.386c-.286-.342-.59-.677-.897-1.004a15.756 15.756 0 00-1-.956c-.36-.318-.78-.683-1.223-1.008-.77-.559-1.615-1.06-2.412-1.515a57.51 57.51 0 01-1.48-.887l-1.036-.628a32.36 32.36 0 00-2.44-1.298c-.556-.27-1.125-.51-1.695-.75a50.494 50.494 0 01-1.177-.5 11.446 11.446 0 00-1.298-.49 11.523 11.523 0 00-1.574-.366 19.477 19.477 0 00-.607-.092l-.176-.029-.493-.069-.266-.041c-.38-.055-.76-.11-1.136-.155l-.12-.014a50.146 50.146 0 01-2.575-.352l-.114-.01-.1-.018-1.402-.245-1.456-.24-.214-.05c-.787-.155-1.515-.296-2.233-.459-.818-.183-1.664-.4-2.668-.672a34.87 34.87 0 01-5.24-1.872l-.327-.148-.318-.141c-.21-.104-.424-.214-.638-.325a8.203 8.203 0 00-.19-.183c-.041-.61-.252-1.242-.608-1.825a3.615 3.615 0 00-.431-.58 2.29 2.29 0 00-.587-.449 2.303 2.303 0 00-.949-.287c-.045-.002-.09-.006-.135-.006-.207 0-.427.044-.621.079a3.813 3.813 0 00-.32.083c-.18.055-.352.114-.526.176l-.227-.183a23.918 23.918 0 01-.497-.39 4.918 4.918 0 01-.183-.152l-.083-.069-.145-.134-.086-.08a7.908 7.908 0 01-.307-.314l-.3-.31-.1-.104-.101-.104c-.075-.093-.145-.193-.221-.297l-.117-.165-.138-.194a11.268 11.268 0 01-1.105-2.008c-.21-.608-.272-1.263-.335-1.895l-.038-.4-.002-.308-.018-.442c-.004-.082 0-.168.004-.248l.01-.231c.006-.183.017-.369.031-.555a.5.5 0 00-.128-.366.54.54 0 00-.383-.184.538.538 0 00-.548.512 14.38 14.38 0 00-.035 1.608c.013.469.051.928.093 1.394.045.504.093.956.22 1.408.139.47.363.93.557 1.336.175.366.386.728.68 1.174.292.465.58.876.855 1.22.353.436.773.86 1.326 1.34a1.07 1.07 0 00-.17.68l-.099.055-.114.066-.163.104c-.282.172-.562.348-.842.542l-.317.224-.152.107-.363.252c-.49.324-1.031.617-1.508.88l-.362.197c-.522.283-1.067.552-1.674.82a8.6 8.6 0 01-1.533.47 10.85 10.85 0 01-1.108.045l-.29-.003h-.29c-.193-.003-.382-.003-.572-.003a48.57 48.57 0 01-2.568-.08 28.885 28.885 0 01-1.643-.155l-.103-.01a22.12 22.12 0 00-.794-.08c-.746-.076-1.502-.131-2.257-.187l-.266-.017a70.81 70.81 0 01-1.836-.179l-.294-.03-.235-.035c-1.27-.19-2.584-.39-3.875-.615-.65-.114-1.287-.29-1.802-.431a36.741 36.741 0 01-1.232-.373c.39-.345.697-.701.945-1.074a8.468 8.468 0 00.822-1.57c.235-.6.4-1.256.549-1.832l.045-.17c.172-.652.32-1.28.445-1.894l.055-.145.059-.145c.051-.142.082-.294.11-.442l.024-.104c.045-.207.08-.414.11-.618l.025-.134c.059-.342.107-.68.155-1.018l.038-.259.021-.145c.035-.253.07-.504.093-.76.065-.673.062-1.363.056-1.957l-.004-.262-.007-.57c-.007-.327-.242-.582-.545-.59a3.724 3.724 0 00-.177-.673l-.017-.01c-.007 0-.017.014-.017.017z"/><path d="M267.027 251.618a.865.865 0 00-.438.235c-.028 0-.066.017-.104.031a.468.468 0 00-.231.607l.052.132c.004.034.01.08.017.12l.442 2.203.441 2.202.18.894c.22 1.139.432 2.164.722 3.161.348 1.184.893 2.312 1.47 3.455.562 1.115 1.007 2.247 1.415 3.31.293.81.577 1.633.849 2.467.261-.078.518-.15.76-.224.39-.117.779-.238 1.173-.345.28-.076.573-.158.868-.219a99.31 99.31 0 00-1.404-2.994c-.493-1.001-1.021-2.064-1.625-3.08-.12-.202-.245-.407-.372-.606a18.957 18.957 0 01-.577-.967 12.57 12.57 0 01-.6-1.315c-.37-1.094-.626-2.275-.853-3.316l-.12-.546c-.28-1.26-.536-2.523-.788-3.787l-.145-.717c-.083-.414-.483-.728-.929-.728a.73.73 0 00-.203.027m11.359 32.209c.231-.067.462-.133.694-.198l-.032-.227c-.227.135-.443.28-.662.425m36.464-17.692c.038-.103.083-.203.141-.3a1.233 1.233 0 01-.034-.09c-.118-.335-.235-.67-.355-1.004.089.462.172.928.248 1.394m-19.707-16.895c.052.152.1.308.142.462a3.98 3.98 0 01.19-.023 1.8 1.8 0 01.227-.01 1.638 1.638 0 00-.155-.432 1.638 1.638 0 00-.707-.714c.11.237.22.475.303.717m-4.442 9.692c.067.352.17.696.3 1.032a24.757 24.757 0 01-.065-.37c-.097-.545-.159-1.093-.231-1.642l-.14-1.078c-.063.585-.017 1.243.136 2.058m6.92 7.42a195.054 195.054 0 01.35 2.834c.046.038.09.076.135.112-.167-1.135-.333-2.27-.502-3.405.003.153.01.307.017.46M274.08 389.557c-1.359.058-2.698.345-4.04.518-.68.089-1.364.172-2.044.252a1.259 1.259 0 00-.055-.121 1.69 1.69 0 00-.478-.55c-.687.233-1.383.44-2.093.598-.928.206-1.862.332-2.802.407l-.246.08c-.394.024-.79.051-1.183.083-2.203.18-4.398.407-6.597.66-1.688.144-3.375.285-5.063.41a86.05 86.05 0 01-5.585.227c-1.666.014-3.348.021-5.014-.041-.846-.035-1.695-.083-2.54-.124a13.374 13.374 0 00-1.184-.024c-.54.013-1.081.055-1.568.314a2.429 2.429 0 00-.824.773c-.218.342-.273.655-.315 1.052-.065.625.335 1.412.894 1.705.335.18.667.339 1.029.46.31.103.663.138.98.2.666.131 1.34.228 2.016.307.341.352.808.583 1.322.58 4.963-.042 9.922-.059 14.885-.2 1.001-.028 2.006-.018 3.01-.07 1.225-.065 2.452-.134 3.673-.238 2.444-.2 4.86-.597 7.28-.986 2.36-.38 4.741-.622 7.047-1.267.642-.18 1.184-.529 1.55-1.098.469-.731.552-1.77.1-2.537a.16.16 0 01-.018-.03c-.42-.708-1.194-1.34-2.061-1.342l-.075.002m5.203-67.327c-1.012 0-2.044.855-2.012 1.922.005.199.01.398.017.598l.32-.225c.426-.297.85-.59 1.282-.878.458-.386.925-.766 1.393-1.142a2.015 2.015 0 00-.935-.276h-.065z"/><path d="M279.467 381.248c-.018.096-.035.197-.052.294.017-.097.034-.198.052-.294m.77-42.46c-.403.165-.812.314-1.224.452.014.51.024 1.02.03 1.53.024 2.572.01 5.15-.06 7.725-.044 1.718-.11 3.437-.206 5.156-.094 1.59-.235 3.178-.37 4.766-.135 1.65-.29 3.297-.43 4.946-.146 1.67-.257 3.348-.402 5.021-.283 3.317-.534 6.669-1.284 9.92-.358 1.567-.759 3.138-1.249 4.666-.266.833-.576 1.622-1.018 2.379a9.621 9.621 0 01-.407.638 16.76 16.76 0 01-.583 1.919c-.028.041-.052.083-.083.124-.031.031-.066.055-.1.08-.808.652-.943 1.929-.476 2.809.596 1.118 2.032 1.557 3.154.96.9-.484 1.588-1.181 1.96-2.14.155-.404.283-.825.4-1.24.218-.783.401-1.573.594-2.36.428-1.719.743-3.462 1.039-5.208.21-1.226.407-2.451.611-3.677.414-2.356.79-4.717 1.063-7.099.259-2.264.518-4.528.766-6.792.266-2.45.353-4.919.435-7.383.076-2.298.128-4.6.162-6.902.042-2.638-.041-5.267-.179-7.898a108.631 108.631 0 00-.226-3.217c-.631.29-1.27.561-1.918.826m-29.072-64.656c-.36.1-.674.342-.86.662-.217.37-.203.708-.149 1.112.07.473.136.948.2 1.423.44 3.328.867 6.66 1.285 9.99.2 1.602.404 3.2.614 4.801.217 1.698.48 3.404.646 5.109.2 2.032.382 4.062.503 6.102.056.904.07 1.816.09 2.72.008.452.008.9.01 1.352 0 .228 0 .456.004.684 0 .341-.028.739.093 1.06.152.414.36.745.749.976.38.22.84.28 1.26.166.577-.16.985-.61 1.132-1.145l.01.002c.156-.445.076-1 .06-1.466-.018-.456-.05-.915-.073-1.37-.049-.826-.104-1.65-.16-2.472-.11-1.55-.258-3.1-.437-4.646-.415-3.572-.953-7.134-1.436-10.699-.06-.453-.12-.905-.182-1.356-.517-4.002-1.031-8.003-1.589-11.997-.048-.35-.373-.695-.662-.86a1.435 1.435 0 00-1.108-.148"/><path d="M284.438 264.846c-1.66.169-3.306.521-4.936.883a224.404 224.404 0 00-10.21 2.53 252.48 252.48 0 00-5.47 1.56l-2.54.756c-.838.249-1.663.556-2.491.832a620.852 620.852 0 00-5.955 2.023c-.672.234-1.11.89-.914 1.611.183.656.936 1.15 1.611.915a736.98 736.98 0 017.514-2.537c1.698-.565 3.424-1.043 5.143-1.546 3.031-.89 6.098-1.683 9.174-2.4a4.03 4.03 0 01.351-.081l.508-.118c2.468-.56 4.936-1.084 7.435-1.477 1.035-.125 2.091-.21 3.13-.132.232.042.456.094.677.166.224.121.438.252.645.394.208.186.394.387.573.604.424.632.745 1.315 1.07 2.001.162.401.328.802.466 1.212.19.562.366 1.125.534 1.695.294.987.467 2.016.615 3.037.187 1.729.325 3.451.377 5.194.051 1.719.034 3.444.02 5.164-.014 1.673-.024 3.348-.03 5.021-.008 1.767-.07 3.541.072 5.302.003.349.089.673.266.973.251.431.672.756 1.155.89a1.952 1.952 0 001.488-.196c.393-.228.815-.687.887-1.157a12.37 12.37 0 00.173-1.777c.01-.421.007-.845.007-1.267 0-.921-.004-1.843-.007-2.768-.011-1.722-.017-3.444-.059-5.166-.045-1.778-.093-3.559-.204-5.333a46.122 46.122 0 00-.693-5.633 24.43 24.43 0 00-.618-2.615c-.27-.878-.587-1.73-.908-2.59-.345-.924-.79-1.829-1.266-2.695-.221-.404-.498-.77-.78-1.128a5.284 5.284 0 00-.708-.773 8.138 8.138 0 00-1.15-.825c-.731-.435-1.546-.598-2.378-.68a6.363 6.363 0 00-.58-.028c-.665 0-1.339.09-1.994.159m10.152 52.128c-.318.183-.553.49-.65.842-.09.317-.048.6.056.887.144 1.46.148 2.937.041 4.397-.114 1.609-.18 3.217-.373 4.819-.152 1.024-.3 2.05-.569 3.054a27.7 27.7 0 01-.915 2.872c-.2.413-.42.804-.683 1.18a4.38 4.38 0 01-.462.462 4.946 4.946 0 01-.663.384c-.512.186-1.032.32-1.553.476-.608.18-1.215.37-1.82.556-1.197.372-2.36.838-3.561 1.193a114.39 114.39 0 01-4.014 1.132 58.221 58.221 0 01-2.767.65c-.319.068-.638.133-.957.197-1.226.244-2.45.496-3.66.827-1.21.332-2.418.653-3.637.953-1.139.28-2.27.6-3.386.97-.624.207-1.245.414-1.867.628-.462.158-.932.297-1.412.39-.027-.786-.023-1.58-.041-2.37a106.76 106.76 0 00-.12-2.948c-.121-2.265-.26-4.525-.35-6.793-.02-.535-.43-.98-.983-.98-.517 0-1 .445-.98.98.114 2.879.318 5.75.414 8.625.038 1.208.049 2.42.018 3.627-.01.311.003.601.058.909.027.168.128.337.224.476.121.162.311.386.501.476.19.086.376.165.58.217.224.055.48.059.708.059.272 0 .565-.051.835-.104.603-.12 1.187-.3 1.77-.49 1.263-.41 2.526-.804 3.814-1.128 1.267-.317 2.54-.605 3.804-.939a57.434 57.434 0 014.034-.908 70.41 70.41 0 003.887-.815 146.89 146.89 0 004-1.045c1.214-.331 2.398-.75 3.6-1.111.6-.18 1.207-.335 1.808-.511.566-.163 1.15-.273 1.705-.473a9.66 9.66 0 001.056-.445c.431-.214.832-.549 1.173-.874.373-.355.697-.804.963-1.246.17-.286.319-.58.46-.88.317-.673.534-1.394.77-2.098.196-.594.369-1.197.517-1.802a30.04 30.04 0 00.694-3.98c.141-1.352.224-2.708.355-4.065.06-.611.107-1.218.118-1.836a25.92 25.92 0 00-.042-1.784 7.582 7.582 0 00-.2-1.378c-.1-.393-.325-.717-.587-1.014-.245-.276-.614-.411-.98-.411-.259 0-.514.065-.732.19"/><path d="M289.208 261.535c-.652.028-1.305.097-1.95.169-.8.09-1.595.2-2.389.342-2.75.49-5.425 1.315-8.107 2.091-2.682.773-5.357 1.56-8.059 2.265-1.436.373-2.875.735-4.3 1.139-.735.21-1.46.438-2.185.67-.601.189-1.188.444-1.767.69-.68.286-1.374.548-2.04.865-.76.36-1.52.719-2.278 1.081-.504.238-.981.535-1.467.808-.863.49-1.723.983-2.571 1.497a.909.909 0 00-.322 1.226c.246.414.808.572 1.226.32 1.225-.744 2.474-1.442 3.72-2.146.348-.197.725-.352 1.087-.521.503-.24 1.007-.475 1.513-.715 1.253-.529 2.504-1.083 3.803-1.487a78.81 78.81 0 014.332-1.198c2.674-.68 5.339-1.38 7.997-2.13 3.45-.971 6.903-1.978 10.446-2.559.729-.093 1.456-.17 2.192-.208.802-.046 1.597-.075 2.396.001.667.12 1.282.346 1.905.597.45.206.864.44 1.264.725.313.269.586.558.844.877a9.35 9.35 0 01.983 1.652c.313.793.558 1.608.806 2.426.268.897.534 1.811.717 2.733.208 1.032.377 2.064.549 3.103.157.959.329 1.913.479 2.87.124 1.115.219 2.225.274 3.346.058 1.194.114 2.385.18 3.58.065 1.19.086 2.387.095 3.582.008.569.011 1.139.008 1.708l-.011.874c0 .113-.004.227 0 .337.01.29.06.567.113.844-.28.48-.181 1.119.209 1.51.234.235.558.37.89.37.369 0 .614-.155.893-.37a9.1 9.1 0 00.308-.245l-.005.005c.092-.074.185-.149.274-.229.193-.172.338-.404.473-.625.248-.393.29-.873.314-1.325.014-.304-.013-.614-.02-.918-.015-.67-.029-1.342-.046-2.012a86.133 86.133 0 00-.19-4.218c-.048-.663-.106-1.325-.144-1.988-.035-.694-.059-1.39-.128-2.08-.148-1.513-.321-3.032-.628-4.522-.28-1.367-.504-2.744-.822-4.1a27.369 27.369 0 00-1.176-3.707 23.075 23.075 0 00-.884-2.037 10.307 10.307 0 00-1.26-1.912c-.5-.61-1.06-1.16-1.726-1.591a7.966 7.966 0 00-1.908-.908c-.56-.182-1.122-.349-1.705-.441a10.356 10.356 0 00-1.64-.121c-.187 0-.374.003-.562.01m9.759 57.141c.073 1.947.135 3.897.156 5.843.01.94.024 1.874.024 2.814 0 .97.048 1.96-.049 2.93-.03.166-.069.33-.12.493a4.775 4.775 0 01-.176.3c-.17.184-.349.349-.539.511-.48.345-.997.64-1.519.926a29.03 29.03 0 01-1.787.91c-.666.276-1.343.525-2.019.77-.87.315-1.716.683-2.561 1.043l.29-.125c-.594.245-1.187.501-1.792.725-.686.258-1.376.508-2.067.756-1.284.466-2.56.949-3.848 1.405-.985.35-1.992.632-2.998.923-.76.296-1.54.544-2.33.754-.27.071-.542.136-.818.193-.547.167-1.095.336-1.64.504a58.013 58.013 0 01-4.325 1.119c-.732.161-1.457.355-2.189.528-.818.196-1.642.331-2.474.473a1.422 1.422 0 00-.635.372 1.436 1.436 0 000 2.036c.245.242.66.46 1.018.422 1.429-.16 2.817-.556 4.2-.947 1.264-.355 2.54-.641 3.794-1.028 1.273-.39 2.53-.832 3.796-1.235 1.315-.418 2.64-.794 3.952-1.208 1.746-.552 3.441-1.274 5.156-1.912.956-.356 1.923-.697 2.858-1.101.76-.328 1.518-.657 2.278-.988 1.277-.524 2.589-.973 3.835-1.563.569-.27 1.128-.573 1.677-.887.635-.366 1.25-.735 1.819-1.197.307-.25.576-.525.808-.846.52-.711.676-1.53.731-2.392.042-.66.004-1.329-.007-1.988-.02-1.35-.048-2.699-.08-4.049a340.21 340.21 0 00-.158-5.284c-.024-.614-.497-1.128-1.132-1.128-.597 0-1.152.514-1.129 1.128"/><path d="M300.12 317.245a1.518 1.518 0 00-.542 2.075l.024.237c.031.239.056.48.076.722.042.448.059.9.083 1.353.048.938.028 1.884.02 2.826-.015 1.844-.06 3.682-.263 5.514-.09.514-.188 1.018-.358 1.515a5.32 5.32 0 01-.373.65 5.302 5.302 0 01-.528.506c-.434.317-.892.594-1.356.868-.552.324-1.097.656-1.65.977-1.084.627-2.124 1.349-3.266 1.864-1.132.46-2.296.823-3.464 1.184-1.16.358-2.33.686-3.5 1.007-2.681.735-5.363 1.45-8.058 2.127-2.009.5-4.018.987-6.026 1.47-.905.217-1.812.417-2.72.628l-1.944.455-.168.04a.62.62 0 00-.677-.243c-.386.121-.78.234-1.167.355-.345.11-.676.266-1.008.411-.427.183-.413.925 0 1.112.173.08.339.148.518.206.186.06.418.025.608.01.428-.03.849-.148 1.266-.24.304-.07.619-.118.925-.177l2.164-.414c1.332-.252 2.668-.486 4.004-.732 1.257-.23 2.506-.514 3.755-.78a223.79 223.79 0 003.631-.807c2.602-.608 5.209-1.212 7.807-1.837 1.288-.31 2.582-.607 3.859-.96.545-.147 1.09-.295 1.618-.5a24.2 24.2 0 002.03-.903c1.08-.54 2.147-1.108 3.213-1.675.49-.262.977-.538 1.436-.852.37-.249.742-.535 1.049-.863.186-.197.366-.432.521-.65.277-.375.46-.776.643-1.207.34-.811.472-1.673.6-2.54.107-.718.193-1.447.245-2.171.093-1.29.149-2.582.173-3.876.02-.98.01-1.954-.046-2.934a22.82 22.82 0 00-.179-1.808 3.412 3.412 0 00-.438-1.298 1.942 1.942 0 00-1.625-.941c-.317 0-.634.092-.912.296m-23.948-38.93c-.804.073-1.581.321-2.343.573-.788.262-1.585.487-2.376.735-1.635.512-3.24 1.108-4.852 1.682-1.633.58-3.268 1.159-4.901 1.74a.727.727 0 00-.411.316.712.712 0 00-.072.535c.097.342.497.611.852.483 2.385-.849 4.77-1.704 7.155-2.55a68.706 68.706 0 013.576-1.174c1.114-.33 2.197-.796 3.347-.988.26-.03.521-.044.785-.024.034.008.068.017.1.028a.616.616 0 00-.056.446.593.593 0 00.27.349.596.596 0 00.803-.211c.1-.165.225-.31.308-.49.127-.29.158-.642-.087-.887-.107-.103-.248-.155-.376-.228-.173-.093-.345-.19-.531-.255a2.11 2.11 0 00-.702-.105c-.163 0-.327.011-.49.025m1.795 4.489c-.352.02-.705.103-1.047.183-.213.052-.42.103-.63.159l-1.682.455c-.893.242-1.78.528-2.667.79-1.944.58-3.87 1.223-5.796 1.857-.5.163-.821.663-.676 1.191.135.49.69.842 1.19.677 1.847-.608 3.694-1.225 5.557-1.785.932-.283 1.865-.565 2.8-.845.414-.124.834-.242 1.252-.363.247-.072.495-.15.744-.225.235.317.655.378 1.007.205.179-.09.358-.173.53-.266.236-.124.439-.31.643-.48.23-.19.297-.562.224-.838-.08-.284-.314-.536-.604-.605a3.278 3.278 0 00-.747-.113 1.58 1.58 0 00-.098.003m-1.171 4.754c-1.478.27-2.948.57-4.422.864-.614.12-1.225.272-1.84.406-.768.171-1.523.392-2.298.53v-.002c-.17-.29-.59-.424-.884-.231-.185.124-.355.266-.527.407-.176.142-.225.425-.17.628.06.204.239.411.452.453.225.045.442.083.667.103.224.021.469-.027.686-.058.315-.049.632-.104.943-.17l1.315-.268c.666-.136 1.336-.26 2.002-.387.614-.12 1.235-.221 1.85-.335.876-.162 1.753-.325 2.63-.477.182-.03.362-.193.452-.348a.76.76 0 00-.273-1.04.703.703 0 00-.368-.097c-.07 0-.142.01-.215.022"/><path d="M286.096 327.646c-.383.035-.77.055-1.153.118-.42.065-.831.19-1.239.317-.486.152-.973.315-1.456.47l-1.895.61c-1.77.57-3.541 1.143-5.308 1.72-.508.165-.832.676-.687 1.207.138.498.7.853 1.208.688 1.74-.57 3.482-1.136 5.222-1.702l.852-.277a.658.658 0 00.311.7c.135.08.356.133.508.067.565-.238 1.128-.483 1.69-.732.497-.221.984-.466 1.478-.694a3.75 3.75 0 00.756-.438c.135-.104.22-.2.324-.342.08-.103.128-.21.183-.331.142-.307.176-.625 0-.925-.143-.247-.443-.457-.74-.457l-.054.001m-1.021 3.809c-1.405.38-2.814.745-4.221 1.124-.601.16-1.205.308-1.809.46-.428.107-.856.214-1.287.32-.286.073-.571.157-.857.235a.759.759 0 00-.676.011c-.176.086-.348.18-.524.272-.273.145-.398.494-.318.784.08.286.362.529.67.51.673-.037 1.31-.234 1.967-.376.446-.092.89-.19 1.335-.286l1.91-.4c1.428-.304 2.864-.583 4.29-.907.483-.108.758-.657.635-1.116a.915.915 0 00-1.115-.631m8.83-54.322l.037.274c-.014-.09-.025-.183-.037-.274m-2.948-11.288c-.466.048-.936.1-1.405.155-1.049.12-2.102.245-3.151.39-2.022.28-4.035.628-6.04.998a98.6 98.6 0 00-3.003.6c-.959.2-1.909.456-2.858.697-1.025.259-2.053.5-3.075.763-.935.238-1.87.476-2.806.708-1.053.259-2.116.5-3.161.783-1.06.29-2.123.573-3.183.866-1.197.332-2.399.66-3.579 1.046-1.508.494-3.013.988-4.525 1.47a.568.568 0 00-.39.687c.08.287.397.484.687.39 1.14-.362 2.278-.732 3.417-1.104l1.695-.55c.566-.182 1.153-.327 1.725-.49 2.03-.576 4.073-1.104 6.123-1.593.936-.225 1.874-.429 2.806-.66a217.07 217.07 0 013.234-.78c1.916-.442 3.828-.905 5.765-1.256a178.89 178.89 0 016.067-.97c-.065.007-.128.017-.193.024.517-.07 1.039-.142 1.56-.19.576-.055 1.156-.1 1.735-.159.532-.052 1.067-.114 1.599-.152.532-.038 1.076-.084 1.61-.035.104.021.206.049.308.08.017.016.032.033.048.05.058.087.112.176.159.269.183.504.312 1.027.45 1.541.137.525.238 1.057.352 1.585a70.66 70.66 0 01.603 3.113c.053.442.101.884.152 1.326.065.551.14 1.102.218 1.656.218 1.912.377 3.83.638 5.736.249 1.98.316 3.97.363 5.96.024.971.045 1.94.072 2.91.028 1.029.052 2.05.024 3.079-.01.307-.02.611-.013.919.003.34.044.683.082 1.025a1.032 1.032 0 00.756.994c.525.145 1.143-.174 1.266-.722.063-.269.125-.538.18-.808.073-.348.1-.708.135-1.063.052-.5.083-1 .11-1.5.059-1.006.055-2.013.066-3.017.021-2.04.007-4.083-.138-6.12-.08-1.073-.27-2.133-.425-3.2-.138-.973-.269-1.95-.424-2.923-.083-.538-.163-1.074-.255-1.608-.08-.48-.187-.953-.277-1.429a205.81 205.81 0 01-.252-1.422c-.086-.477-.2-.939-.314-1.408-.231-.96-.528-1.902-.787-2.855-.123-.469-.297-.921-.462-1.38-.103-.293-.22-.583-.345-.87-.166-.39-.4-.735-.697-1.042-.423-.435-1.02-.55-1.612-.55-.215 0-.43.016-.635.036m4.53 51.931c-.19.186-.366.517-.332.797.294 2.315.308 4.652.484 6.979.083 1.114.179 2.229.228 3.348.02.52.05 1.041.085 1.56.037.542.098 1.086.07 1.63a3.706 3.706 0 01-.102.36 3.476 3.476 0 01-.14.258c-.073.08-.15.157-.23.232a1.39 1.39 0 00-.826-.641c-.687-.19-1.539.228-1.691.96-.235 1.145-1.053 2.577-.072 3.586.507.52 1.325.514 1.932.19.31-.167.58-.4.853-.625.29-.239.576-.476.872-.708.346-.276.694-.549 1.022-.849.193-.176.397-.393.532-.614.18-.287.304-.587.427-.901a3.37 3.37 0 00.208-1.043c.01-.185.013-.366-.003-.552-.092-.847-.23-1.69-.35-2.533-.204-1.677-.44-3.352-.568-5.036-.145-1.867-.232-3.744-.473-5.601-.042-.314-.097-.566-.332-.797a1.117 1.117 0 00-.797-.332 1.12 1.12 0 00-.797.332"/></g></g></svg>