<svg xmlns="http://www.w3.org/2000/svg" xmlns:xlink="http://www.w3.org/1999/xlink" viewBox="0 0 496.8 597.6"><defs><mask id="a" x="144.98" y="269.9" width="40.41" height="26" maskUnits="userSpaceOnUse"><polygon points="145.1 270.1 185.3 270.1 185.3 295.9 145.1 295.9 145.1 270.1" fill="#fff" fill-rule="evenodd"/></mask></defs><path d="M238.1,227.3l-19,10.5c-5.5,21.6-1,31.8-6.1,58.6l23,1.7c2.4,40.5-.6,49.8-12.4,92.3,3.4,2.5,10.6,3.5,21.4,3.1,14.3.1,48,1.7,72-6.7-.4-14.5-1.2-25-2.5-31.5-2.6-13.2-9.1-25.7-9.9-34,.3-13.6,1.8-21.2,2.8-35.5l16.9-6.2c-9.8-47.2-7.7-48.2-44-51.7-1.1-.4-2.9-1.9-5.4-4.6-6.3-1.8-15.7,4.3-19.7,3.7Z" fill="#f796b3" fill-rule="evenodd"/><path d="M239,222.9c-10.5,8,6.1,8,16.2,8.8l9.1,12.3c2-7.9,3-12.1,3-12.8s8.9-8.3,7.4-8.3a7.6,7.6,0,0,1-3.8-1.6C258.5,229.9,255.1,227.2,239,222.9Z" fill-rule="evenodd"/><path d="M239,222.9c-10.5,8,6.1,8,16.2,8.8l9.1,12.3c2-7.9,3-12.1,3-12.8s8.9-8.3,7.4-8.3a7.6,7.6,0,0,1-3.8-1.6C258.5,229.9,255.1,227.2,239,222.9Z" fill="#fff" fill-rule="evenodd" opacity="0.5" style="isolation:isolate"/><path d="M230,391.4c7.6,42.3,8.7,144.4,8.9,145.9,6.5,3.3,19.5,3,33.3,0h16.6c13.2-61.8,13.5-78.1,23.6-150.5Z" fill="#3a4e5c" fill-rule="evenodd"/><path d="M246.1,210.7c6.6,2.2,11.1,3.3,18.4,0,1.2,6,1.4,8.9,6.4,10.6-9.7,9.6-13.9,4.8-30.4,2C246.3,222.4,245,218.1,246.1,210.7Z" fill="#efdfd3" fill-rule="evenodd"/><path d="M246.7,541.2v13.3c-35.2,31.1,11,24,14.6,12.3V542.6Z" fill="#efdfd3" fill-rule="evenodd"/><path d="M272.7,536.3c.1,7.4-.5,11.1-1.6,11.2s-7.2,3-5.4,6,19.8,8.8,30.1,8.4c14.6-6.5,4.9-11-11.6-15.2V536.3Z" fill="#efdfd3" fill-rule="evenodd"/><path d="M218.3,297.1q18.4-.9,18.6,1.5c-.1,3.5,5,44.2-13.9,50.5-32.5-15.5-40.1-37-54-54.6-3.1-2.6-6.3-.7-9.5-1.1-6.5-.9-12-1.9-12-3.2-.5-8.1,16-4.5,24.9-8.1,6.8-2.8,5.7-14.1,10.2-11.3s-4.3,15.5,2,21.5c1.4,1.4,11.8,9,19.5,15.9C217,322.5,218.6,323.8,218.3,297.1Z" fill="#efdfd3" fill-rule="evenodd"/><path d="M307.5,286.1l15.7-6.2c-6.8,23.9-7.3,29.7-15.3,46.7C303.7,311.9,305.9,304.7,307.5,286.1Z" fill="#efdfd3" fill-rule="evenodd"/><path d="M238.9,366.7l.3-.4H239c0,.1-.1.2-.1.4"/><path d="M238.9,366.7l.3-.4H239c0,.1-.1.2-.1.4"/><path d="M313.5,376.6a4.1,4.1,0,0,1-.7,1.1h0v.4a3.1,3.1,0,0,0,.9-1.8Z"/><path d="M231.6,381.9l-.3.4h.6l-.3-.5h0"/><path d="M267.6,392.7h.1c0,.1-.1.1-.1.2"/><path d="M313.5,376.6a5.7,5.7,0,0,1-.8,1.3h0c0-.1,0-.2.1-.2a1.4,1.4,0,0,0-.2.6,3.1,3.1,0,0,0,1.1-2l-.2.3"/><path d="M261.3,228.5c2.7-.5,5.1-2.2,7.4-3.5.5-.2,1-1,1.6-.9s1.4.6,1.2,1.3a7,7,0,0,1-2,2.8l-2.1,1.6-1.1.7c-2.5.5-3.1,4.3-3.5,6.4h0c-.2.8-.4,1.5-.6,2.5a22.1,22.1,0,0,0-2.3-3.6c-1.2-1.7-2.2-3.8-4-4.9-4.3-1.5-15.2,1.5-18.6-2.4h-.1c-.6-1.2.2-2.5.6-3.5h.9c.5.9,1.7.5,2.4,1a11.2,11.2,0,0,0,4.9,1c4.3.9,10.9.6,15.3.7m-16.4-18.2c0,.2.1.5.1.7s-.5.3-.5.7a16.3,16.3,0,0,1-.8,6.2h-.1a8.3,8.3,0,0,1-1.9,4h-.1c-.3.4-.3.6-.6,1-3.1-2.3-5.8.1-5.8,3.6a52.5,52.5,0,0,0-4.9,3.3v1.6c.5.1,1.7-1.2,2.1-1.5a12.5,12.5,0,0,1,3.3-2c.1,1.7,2,2.6,3.4,3.3a43.2,43.2,0,0,0,8.7,1.1h6.5c1.1.5,2.2,2.4,2.6,3.4h.1c.9,1.3,1.6,2.7,2.4,4.1h.1l.2.4h.1c.1.2.1.4.2.6h.1c.1.2.1.5.2.7h.1v-.4h0c.8.9,2.2,4.5,3.2,4.4s0,.1.1.1c1.7.2,1.5-10.1,2.2-11.9h.1l.5-1.1h.1a9.1,9.1,0,0,1,1.1-1.6h.1c1.7-2.2,4.5-3.4,5.9-5.8,6.2,3,13.5,4,20.1,5.2l3,1.2a40.7,40.7,0,0,1,7,1c-3.8-2.3-8-5.1-12.7-4.7a64,64,0,0,1-17.2-4.4c0-2.2-2-4-4.1-3.1-.2-.2-.6-.3-.7-.6h-.5c-.3-.2-.5-.6-.8-.6a8.2,8.2,0,0,1-1.7-6.6c-1.7-2.4-1.1,3.4-.8,4.2a10.2,10.2,0,0,0,3.4,5,1.9,1.9,0,0,0-.2.7c-.5-.1-1.1.6-1.5.8s-3.7,2.2-5.6,2.6a80.3,80.3,0,0,1-9.8-.4,30.8,30.8,0,0,1-9.5-1.4,7.8,7.8,0,0,0,2.3-4.5h.1a15.5,15.5,0,0,0,.4-2.1h0a.7.7,0,0,0,.1-.5h.1a1.3,1.3,0,0,1,.1-.6h0c0-.4.1-.8.1-1.3h0c0-.9.8-3.7-.3-4a1.9,1.9,0,0,0-.2-.7h0"/><path d="M319.1,256.3v-.4c.7,6.8,2.7,13.9,3,20.6-.1,1.2-1.3,1.5-2.3,1.7a23.5,23.5,0,0,0-3.7,1.4l.2-.2c-.2.1-2.6,1.2-2.7,1h.1l-1.1.5a5.2,5.2,0,0,0,2.1-.4,13,13,0,0,1-3.2,1.4l-2.8,1.6c.1-6.4-1.3-13.5-2.2-20.1h0V263c-.1,3.1-.7,7.5-1.1,10.5a3.8,3.8,0,0,1,.9,3.5,48.6,48.6,0,0,1-.7,9.3H305c-.1,1.1-.1,2.2-.2,3.3h1.6a2.4,2.4,0,0,1,1.4-1.4c2.6-4.2,12.4-6.8,17.1-8,.7-1.6.3-3.7-.2-5.4a11.2,11.2,0,0,0-.4-3.2h-.4c-.8-3.6-2.2-6.3-2.6-9.6,1.2-3.7-1.5-6.9-2.9-10.3.3,1.5.6,3,.8,4.6"/><path d="M239,573.1l-.6-.2h0c-1.1-4.2,1-8.4,3.5-11.7h.1c1.5-1.5,4-4.1,5.9-4.9s1.4-3.2,1.1-3.7c0-3.3-.7-6.6.1-9.9,2.9.3,7.1.4,10,.5a81.2,81.2,0,0,1-.7,8.5c0,2-.7,4.1.8,5.7-.6,2.8-3.4,7.3-5.4,10.2-.3,0-.7.6-.8.8a10.7,10.7,0,0,0-1.6,1.4c-1.4.2-4,1.8-5.4,2a15.3,15.3,0,0,1-4.2,1.1C241.8,573,238.9,572.8,239,573.1Zm24-19.4c0-3.6.3-7.2.5-10.7,1.8,0,5-.5,6.8-.7a23.6,23.6,0,0,1-1,3.8c-.1,0-.1.1-.1.2a10,10,0,0,0-6.3,8Zm6.3-.9a2.7,2.7,0,0,1-.6-2.4,2.7,2.7,0,0,1,1.2-.9,2.2,2.2,0,0,0,2.2-2.2h.1c.8-2.5.6-6.1,1.3-8.6h0l.4-.7a.9.9,0,0,0,.8-.5,46.1,46.1,0,0,0,7.2,1.5,56.7,56.7,0,0,0-.5,5.8h0c.1.6-.2,1.3.1,1.8s.3,3.2,2.3,2.9a22.2,22.2,0,0,1,5.1.6,59.1,59.1,0,0,1,10,4.3c-2.4,1.7-.5,4.9-5.3,5.4-7.6.1-16.1-1-22.5-5.2a9.8,9.8,0,0,1-1.8-1.7Zm35.6-242a6.4,6.4,0,0,0-2,.3l-.3,2.2h.3c.6,10.8,3.6,21.4,7.5,31.4h.1c3.7,9.7,6.4,20.5,6.1,30.9-.1,6.2-6.9,6.3-11.5,6.9-2.9.4-6.9,1.5-9.9,1.7l-9.6.4c-5.7.3-12.2,1.6-17-2a22.6,22.6,0,0,1-7.2,2.4c-2.7,2.3-7,2.5-10.4,3-6.5-.2-13.5,0-19.9-1.5-4.2-1-7.3-1.2-5-6.4v.2c1.7-4.6,2.6-9.5,4.6-13.9a2.7,2.7,0,0,0,.3-1.2h0v-.5h.1l.2-.4h0a18.7,18.7,0,0,0,1.3-4h0c1.1-8,2-17.2,3-25.3h0v-.2h.1c.1-1.6.3-3.8.3-5.8h0v-.2h0c0-.3-.1-.5-.1-.7h0c-.3-1.9.1-3.6.1-5.5h-.1v-.5c-.2.2-.7.6-.7.7h0a1.6,1.6,0,0,1-1.1,1.4c-.2,3.2-.3,7.2-.4,10.1h0a187.9,187.9,0,0,1-2.5,19.8c-2.5,9.7-6.5,19-8.8,28.7h-.1c-1.1,4.8,3.2,7.5,7.4,8a54.6,54.6,0,0,0,17.1.9,52.4,52.4,0,0,0,14.7-2.8c.7-.3,2.1-.7,2.8-1.1a1.9,1.9,0,0,1,2.5.5c0,.1.1.1.1.2h0a4.1,4.1,0,0,0-.1-1.1c11,5.2,30.7,1.7,42.7.4-6.3,27.8-7.6,56.7-11.4,84.9-3.4,19.7-7.1,39-10.7,58.5.3,3.3-2.6,2.8-4.9,2.8a57.6,57.6,0,0,0-8.3-.3c.6-11.1,1-21.8,1.7-33.4h0c1.2-20.9,1.7-43.8,1.8-64.9a142.4,142.4,0,0,1,.9-18.5c-.2-2.7,1.3-5.8.5-8.3a1.8,1.8,0,0,0-2.5-.3,1.7,1.7,0,0,0-.7,1.3c-2.6,16.1-1.8,33.1-2.7,49.4-.4,24.9-3.2,50.5-3.3,75.1a24.3,24.3,0,0,0-2,2.5c-5.3.9-14.6.6-20,.7-2.7-.1-5.7,0-8.1-1.2.4-1.1,1.5-2.8.2-3.7h0c-1.9-35.1-1.3-70.3-4.4-105.3h0c-.9-7.1-1.7-15.3-2.7-22.5-.8-2.5-.1-13.4-2.6-13.1s-.1,4.7-.5,6.8c.6,4.6.8,9.1,1.4,13.7,1,10.2,2,20.6,2.6,30.8.9,24.6.9,49.7,2,74.3.1,5.8,0,12,.7,17.6,0,.1-.1.3.1.4s-.1.1-.1.2c-2.1,3.7,2.8,6.4,5.9,6.6.6,3.6.5,7.7,1.2,11.2a35.1,35.1,0,0,0-4,3.7c-.8.4-2,2.1-2.6,2.6-4.9,6-16.5,24.1-2.1,25.4,11.1,1.6,28.8-9.9,31.6-20.8,2.7,1.7,7,3,10,4,5.2,1.6,11.1,3,16.5,2.7s14.3-.9,15-8a8.7,8.7,0,0,0-3.3-7.8c-4.7-4.5-13.2-7-19.6-7.9.2-.2.2-.6.3-.9h0c.2-2.3.4-3.9.7-6.6,2.6.3,6.5-1.6,5.3-4.7,1-1.5.7-3.7,1.1-5.4v.2c4-23.9,9-45.6,11.3-69.4h0c3.5-23.6,3.5-48,8.9-71.2l2.4-.7v-1.1h.2v-.6c4.6-3.1,4.4-9.2,5.4-14.2a104.6,104.6,0,0,0-5.3-26.6h-.1c-1.4-5.8-4.9-12.7-6.8-18.6-1.8-4.2-1.8-8.9-3-13.1h0v-.9h.5a16.4,16.4,0,0,0-.2-2.2Z"/><path d="M229.2,253c-1.2.7,1.9,6.1,2.2,7.2,3.7,5.4,4.2,15.8,6.9,21.9-.2-6.1-2-12-3.6-17.9a45.7,45.7,0,0,0-2.2-6.2c-.9-1-.8-5.1-3-5.1"/><path d="M238.2,315.5l-.9,1.1v2.8a1,1,0,0,1,.9-.3v-.2c0,.1.1.2.3.2s0-1.4.1-2l-.9-.6c.3-.4,1.1-1.1.9-1.6l-.4.6"/><path d="M264.5,248.5a.5.5,0,0,0-.5.3c-.3,0-.4.4-.3.6h.1c.7,6.5,3.2,12.4,6,18.2,4,9.6,5.4,20.6,6.6,30.8,2.1-8.7.2-18.1-2.7-26.5-.6-5.1-10.2-18.5-7.9-22,.1-.7-.2-1.7-1.1-1.6"/><path d="M276.5,298.8v.8c.3-.1.2-.6.2-.8h-.2"/><path d="M277.2,315.7c.1,1.4.2,2.8.2,4.3h0l2.2-1.5c-.8-.3-.8-1.1-1-1.7a2.6,2.6,0,0,1-1-1.3l-.4.2"/><path d="M271.5,384.9c-2,.1-4.1.6-6.1.7s-4,.8-5.4.5c-7.4.5-16.1,1.6-23.4,1.3-1.8,0-3.9-.5-5.4.2s-.9,3.5.9,3.9a28,28,0,0,1,3.1.6l1.2.5c5.5-.7,39.9,1.7,37.1-6.3h0a2.8,2.8,0,0,0-2-1.3"/><path d="M276.8,376.7a.4.4,0,0,0-.1.3.4.4,0,0,1,.1-.3m.6-57.4v10.3c-.4,3.4,1.1,8.2-1.1,10.9-.7,14.3-.1,29.5-5.9,42.8-2.2,1.4.1,5.1,2.4,3.7s3.1-7.3,4-10.8c3-18.8,5.1-39.8.5-57.9a2.2,2.2,0,0,0,.1.8"/><path d="M234.9,270.2h0m-5.4-15.5c-.9,1.3,2.7,5.4,2.9,6.9a28.4,28.4,0,0,1,2.5,8.6h0c.5,5.9,1.3,12.2,1.5,17.8h0c1,15.2-1.2,31.1-3.2,46v-.3c-1.5,17.2-8.6,33.8-10.4,51.1-.1,2.8,2.5,6,5.3,4.5a1.8,1.8,0,0,0,1.3-2.2,1.9,1.9,0,0,0-2.2-1.3l-.6.3c-1.7-4.4.5-9.5,1.5-14,2-9.5,5-21.8,6.5-31.7,2.8-19.7,4.8-38.3,3-58.3-.6-4.3-1-12-2-16.1a43.7,43.7,0,0,0-3.4-8l-1.7-3c-.2-.3-.6-.3-1-.3"/><path d="M237.7,324c0,.1,0,.1-.1.2s.1-.1.1-.2m-8.9-70.5c-1.7.9,2.3,4.9,2.5,5.9a38.2,38.2,0,0,1,4.1,10.3c1.4,9.3.4,19,1.1,28.3-1.6,9.9-1.1,21.2-3.7,31-.7,3.7-1.6,10.4-2.3,14.4s-4.3,12.4-1.2,14.4c6.2-.4,9.7-46.9,10.1-54.2,0-13.7,2-28.5-3.9-41.2-1.7-2.2-3.5-8.5-6.7-9"/><path d="M305.3,275c.1,17.5-4.4,35.5-1.2,52.8,1.6,9.3,5.1,19.4,7.5,28.3s1.8,15.6,1.8,23.3c-.3,3.3,3.9,1.9,3.5-.8,1.8-20.1-6.8-38.6-9.5-58.1-1.5-3,3.9-57-2.1-45.5"/><path d="M230,349.6c-.4,8.1-13.3,44.4,0,43.1a1.4,1.4,0,0,0,1.5-1.3,1.7,1.7,0,0,0-.7-1.3c-4.2-.3-4.5-3.5-4.3-7,.4-6.1,1.3-12.4,2.2-18.4v.2a8.8,8.8,0,0,1,.2-1.6h0c.6-4.5,1.4-9,2.4-13.3.3-1.2-.1-.7-.5-.8a.7.7,0,0,0-.8.5"/><path d="M234.1,322.6a2.2,2.2,0,0,0-.1.8c1.6-.8.6-2.7.5-4.1-.2,1.2-.3,2.3-.4,3.3"/><path d="M321.9,279.4c-.9-.3-1.7.7-1.6,1.6h0c-2.5,14.6-8,28.9-13.4,43-1.2,2.3,1.1,4.5,2.6,2.1,5.4-14.3,11.1-28.7,13.5-43.6,0-1,1.6-2.9.2-3.6a1,1,0,0,0-1.3.6h0"/><path d="M235.2,226.5a49.1,49.1,0,0,1-5.1,3.9v3.5a35.3,35.3,0,0,0,8.1-6.3h0c.3-1.8-2-2.3-3-1"/><path d="M236.1,287.3c.6.9,0,2.6.2,3.7h0c.4-.6,2-2.1,2-2.8a1.3,1.3,0,0,0-1.5-1.2l-.7.2"/><path d="M265.9,256.5c-.1,1.9.6,4.1.7,6a29,29,0,0,1,1.9,2.9c8,16.5,8.3,35.8,8.9,53.9-.7,5.5,1.5,16.8-1.1,21.2.6,5.1-3.1,21.5-.1,24.8,5-.4,3-32.4,3.6-38.3-.4-9.7.8-22.1-1.4-31.5s-3.4-17-5.5-25.9a23.3,23.3,0,0,0-1.4-3.3c-.4,3.1,1.3,7,1.7,10.4a100.9,100.9,0,0,0-6.6-21.5,1.2,1.2,0,0,0-.7,1.3"/><path d="M279.7,226.6h0m-6.3-2.4c.9,5.3,15.3,7,20.1,8.2h-.1c17.4,1.2,23.4,6.4,25.7,23.9v-.4c.9,4.4,1,9,2.1,13.4.1,2.8,3,8.3-1.1,8.7.2,3.1,4.7,4.6,4.4.6-2.1-9.1-1.8-19.2-3.8-28.3a30.4,30.4,0,0,0-7.8-15.2c-2.7-2.8-7.1-3.3-10.7-3.8l-14.6-2.5a38.7,38.7,0,0,1-10.4-3.5c-.8-.5-2.9-2.6-3.8-1.1"/><path d="M318.7,267.8h0m-.6-6.6h0m-44.4-36.6c-2.9,2.9,8.8,4.4,10.5,5.4a21.5,21.5,0,0,0,5,1.2c6.3,1.2,14,.6,19.4,4.5,9.3,8.8,9,26.1,10.7,38.1h0c.6,2.1.1,5.2,2.2,6.6h-.1c1.4,1.1,3.2-.3,3.1-1.9a23.4,23.4,0,0,0-.7-3.2c-.5-2.5-.7-5.5-1-8-1.3-11-2.9-26-11.9-33.6l.4.3c-7.2-5.7-17.4-3.6-25.8-5.8l-6.7-2c-.6-.1-4.5-2.1-5.1-1.4"/><path d="M307.7,326.5c0,.1.1.1.1.2v-.2m-4.3-70.9c-2.7,2.1,1.1,7.8.8,11a89.2,89.2,0,0,1,.4,13.7c.1,13-2.1,25.5-2,38.6a19,19,0,0,0,3.6,12.4,1.8,1.8,0,0,0,2.4.6c2.1-1.3-.3-3.4-.7-5-1.9-4.2-1-9-1-13.5.7-10.2,1.7-21.1,1.7-31.3.1-3.7-1.4-26.8-5.2-26.5"/><path d="M236.4,294.3v3.3a9,9,0,0,0,1.9-1.5c1.3-1.2-.7-3-1.9-1.8"/><path d="M235.9,228.5a20.7,20.7,0,0,0-5.8,2.3v1.7c1.9-1.1,3.9-2.6,6.2-2.9s.5-1.5-.4-1.2"/><path d="M229.9,294.9h-.6c.1,1.5.3,3,.5,4.4,1.8-.3,3.9.6,5.6-.1s1.3-3.5-.5-4a21,21,0,0,0-5-.3"/><path d="M232.6,298a.4.4,0,1,0,.4-.4.4.4,0,0,0-.4.4h0"/><path d="M235,298.2c-.4,10.1-.9,20.3-1.8,30.4v-.2c0,.3-.1.6-.1.9h0c-.4,1.6-.4,3.5-.8,5.1s-1.3,3.3-1.3,4.9c3.8-4.3,4.1-14.4,4.4-20.2s.6-13.8,1-20.9c.1-1.3-.4-.6-.7-.6a.7.7,0,0,0-.7.6"/><path d="M231.7,335.3h-.3c0,1.7-.5,3.5-.5,5.2,1.3-1.1,3.5-4.8.8-5.3"/><path d="M235.2,226l-1,.7-1.5,1.2a1.6,1.6,0,0,0-1.1.5c-1.7,1.9-4.4,3-6.5,4.5a14.5,14.5,0,0,1,.2,3.6,31.7,31.7,0,0,0,4.1-2.1c1.3-1.1,5.1-1.8,4.2-4.1a1.5,1.5,0,0,0,.5-1.4H234c.1-.1.2-.1.2-.2s2.9-2.5,1-2.6"/><path d="M233.9,228.3h0c-2.2,3.8-6.4,5.6-10.3,7.2a39.2,39.2,0,0,0-7,4.4c-4.1,4.9-2.5,12.8-3.5,18.8-.6,11.8-1.6,23.9-2.7,35.7-1.7,6.7,6.3,5.9,10.6,5.4l4.7-.4c1.6-.1,3.8.7,4.4-1.4.5-3.9-5.8-2.4-8-2.7s-6.1.2-7.5.2c1.5-16.5,1.6-33.6,2.6-50a5.6,5.6,0,0,1,2.6-4.7,55,55,0,0,1,8.3-5.2c1.1-.7,2.8-1.8,3.8-2.6s2.3-2.6,3.4-4-.9-1.5-1.4-.6"/><path d="M218,298.6c-1.8,7-.9,15.6-2,22.9l3.3,3.4c.6-6.4.4-13.6.8-19.9-.1-1.7,1.9-8.4-2.1-6.4"/><path d="M208.2,312.5c3.2,5,8.3,9.1,12,13.6.1-.8.1-1.2.3-2.2s-3.7-5.2-4.5-6.4c-1.8,2.6-6.6-4.7-8.4-5.8l.6.8"/><g mask="url(#a)"><path d="M148.7,290.6c0,.1.1.1.1.2v-.2m-.2-.1c0,.1.1.1.1.2s-.1-.1-.1-.2M182,272.7h0m.1,0h0m-.9-2.5c-8.2,5.2-.9,9.9-18.4,12.1-5.1.9-10.9,1.3-15.2,4.5s-3,7.7,1.7,8.1,12.9,1.5,19,.6c2.2,0,4.5-1.7,2.2-3.6s-8,.1-10.1-.3-8.3-.1-11.5-1h0v-.2c8.4-6.9,23.9-1.7,29.7-12.5,1.1-1.3,1.8-5.2,3.7-5.3,2.5,3-1.3,14.3.4,14.8s1.1-3.2,1.9-5.3c.5-3.9,2.7-12.1-3.4-12.2"/></g><path d="M170.1,293.5c-4.4,5.9,20.9,34.5,25.7,40.8a166.6,166.6,0,0,0,12.6,11.1c5.3,3.2,13.4,8.9,19.6,6.3,1.9-1.2,7.3-8,2.6-8.5a2.6,2.6,0,0,1-2.5,1.9,10.4,10.4,0,0,1-2.3,2.8c-.9.5-2.7-.1-3.5-.3-11.6-3.8-20.9-12.8-28.5-21.7s-15.5-17.2-20.8-27.4c-.9-1.6-.5-5-2.9-5"/><path d="M182.9,278.6c-1,.3-.6,1.5-.5,2.2.4,2.4-.5,4.9-.6,7.4-1.1,8.3,15.4,14.7,20.6,20.7a167.1,167.1,0,0,1,17.7,17h.1l.3-2.1a228.2,228.2,0,0,1-20.4-18.9c-4.6-4.7-9.2-10-14.7-13.5-3.5-2.4,1.2-11.8-2.5-12.9"/><path d="M218.3,297.8c-1.7,1.5-1,4.3-1.4,6.5-.4,5.4-.7,11.8-.7,17.3h0c1.2,1.4,2.6,2.6,3.8,4.1a143.1,143.1,0,0,1,.4-20.7c-.2-2.6,1.5-8.3-2.1-7.3"/><path d="M167.5,287.1a75.8,75.8,0,0,0-13.3,3.2,37,37,0,0,1-4.7-.2c-.3,0-2.2-1.2-2-.2s2.7,1,3,1.2c2.6.3,5.6-.7,8-1.3s6.9-2,10.3-2c.8-.9-.9-.6-1.3-.6"/><path d="M166.8,287.5c-2.9.6-6.3,1.1-9.2,1.9s-4.6,1.4-6.9,1.2c-.4.5.4.7.8.6s0,1.3.6,1.5c4.2.1,10.2-.2,14.4-.2,4.5-2.8-10.9-.9-11.7-1.1a50.4,50.4,0,0,1,7.7-1.7,25,25,0,0,1,5.4-.7c1.1-.8-.1-1.8-1.1-1.5"/><path d="M182.8,293a2,2,0,0,0-.4,1.3A174.8,174.8,0,0,1,204.9,311a87.1,87.1,0,0,1,8.3,7.8c2.6,2.8,6.3,5.4,7.6,8.9.1-.1.1-.1.1-.2,8.5-1.3-20.6-25.2-23.6-26.7s-11.4-10.6-14.5-7.8"/></svg>