<svg xmlns="http://www.w3.org/2000/svg" xmlns:xlink="http://www.w3.org/1999/xlink" viewBox="0 0 496.8 597.6"><defs><mask id="a" x="201.7" y="212.26" width="128.08" height="376.57" maskUnits="userSpaceOnUse"><polygon points="201.7 212.3 329.8 212.3 329.8 588.8 201.7 588.8 201.7 212.3" fill="#fff" fill-rule="evenodd"/></mask></defs><path d="M239.7,369.4c.1-.1.1-.2.2-.4h-.1c0,.1-.1.3-.1.4"/><path d="M239.7,369.4c.1-.1.1-.2.2-.4h-.1c0,.1-.1.3-.1.4"/><path d="M314.6,379.4l-.8,1.2h0v.4a3.4,3.4,0,0,0,.9-1.9Z"/><path d="M232.3,384.6l-.3.5h.8l-.5-.6h0"/><path d="M314.6,379.4a3.8,3.8,0,0,1-.9,1.3h0c.1,0,.1-.1.2-.2s-.1.2-.2.2v.4a3.2,3.2,0,0,0,1-2v.3"/><g mask="url(#a)"><path d="M239.8,577l-.6-.2c-1.6-6.7,3.6-12.7,8.8-16.6,4.1-1,.3-10.6,2-13.9l10,.5c.3,3.3-2.3,11.4-.5,13.5l.3.7a28.4,28.4,0,0,1-6.7,11.5A21.4,21.4,0,0,1,239.8,577Zm24.1-19.6c.1-3.5.4-7.1.6-10.7a39.4,39.4,0,0,0,6.8-.8,33.1,33.1,0,0,1-1.2,4.2h0a9.9,9.9,0,0,0-6.2,8Zm6.3-.9c-2.6-3.3,2-2.7,2.7-5s.4-7.2,1.9-10.3c.3-.2.7-.3.8-.7a25.2,25.2,0,0,0,7.2,1.7c-2.3,18,0,5.3,16.9,15.8-1.8,1-1.1,4.4-3.6,5.1a38,38,0,0,1-24.4-5h0a7.7,7.7,0,0,1-1.5-1.6Zm13.2-237.4c6.2-2.3,13.8-1.5,20.5-3.1a95.9,95.9,0,0,0,7.8,31.6c3.9,10.5,7.1,21.8,5.8,33.2-1.5,4.5-7.1,4.4-11.1,5a107.3,107.3,0,0,1-20.3,2.5c-5.5.5-11.7,1.4-16.4-2.1a26.8,26.8,0,0,1-7.2,2.5c-8.5,5.3-26,2.9-35.3-.1-2.3-2.2.5-5.4.9-8,1.4-4.2,2.6-8.8,4.5-12.9,2.7-6.6,3-13.7,3.8-20.6s1.7-11,1.4-16.5a20.2,20.2,0,0,1-.1-5.5c-.2-1.3-.6-3.4,1.3-3.4v-.3c4.8,3.2,9,7.4,13.6,11.2,5.1,1.4,11.3-1.8,15.7-4.6,2.4-1,4-4.7,6.6-4.2,2.4-1.1,4.2-4.4,6.9-4.1a5.2,5.2,0,0,0,1.6-.6Zm-29.3-12.9c-.2-.4-.5-.7-.8-.7a2.6,2.6,0,0,1,1.7-.7c-.1.6-.6.9-.9,1.4Zm-.7,8.4c11.6-7.4,25.4-8.8,37.8-14,.7-.2,1.6-.3,1.8-1,5-4.1,9.5-9.4,16.5-7.2.4,1.2.5,2.5.9,3.7-7.8.9-4.4.7-9,5.1-2.2,2-4.4,4.4-7.2,5.4-4.2,2.8-8,5.9-12,8.8-5.6,3.7-10.9,7.9-16.9,11.2-3.3,1.9-7.3,2.4-10.4,4.3a14,14,0,0,1-3-1.5A94.4,94.4,0,0,0,238.5,319a118.9,118.9,0,0,1,13.2-12.4c.1,1.3,1.4,2.3,2.1,3.5-.9.5-2.4,1-2.9,2.1a1.8,1.8,0,0,0,1.1,2.4,1.7,1.7,0,0,0,1.4,0Zm59.8-18.7c-.5-2.4-.8-4.7-1.5-7l1.2-.3c.1,0,.3,0,.3-.2,3.4-1.6,7.1-2.3,10.4-4.1a55.5,55.5,0,0,1,3.6,15.1c-1.7,13.3-29.6,15.4-40.4,17.2,3.1-2,6-4.3,9.1-6.5,1.2-1.1,3.2-1.9,3.6-3.5,3.2-1.8,4.6-5.5,7.1-8.1,1.5-.2,2.9-.5,4.4-.6a1,1,0,0,0,1.5.1l.3-.3h.7c1.6,0,1.3-2.1-.3-1.7Zm-47.7-47.3c2.4-13.4-.7-10.6,9.5-20.3,12.8,6,26.9,3.4,36.3,16.8v.6c6.3,9.1,9.5,20.6,10.3,31.5.2.9.3,1.8.5,2.7l-.9.3c-.7,1.5-6.9,4.7-8.7,4.2l-2.8,1.6a33.2,33.2,0,0,0,.6-4.4c.1.2.3.3.4.4a1.4,1.4,0,0,1,.2-1.4c-.1-.9-.1-1.9-.2-2.8-1.8-3.9-1.1-8.8-2-13.1h-.2l-.6-1.2a2.7,2.7,0,0,0-.8.7,95,95,0,0,1-.8,24.4c-7,.4-11.9,6.5-17.7,10-3.7.8-7.6,1.6-11.4,2.6V301c-1,.3-2.1.5-3.1.9h.3c-1.9.6-3.6,1.8-5.5,2.2h0l-.9-.2a97.8,97.8,0,0,0-12.1,4.7l-1-1.3c2.5-1.3,2.5-5.5-1-4.5-1.6-7-9.2-11-12.3-17-1-2.3-2.4-4.5-3.1-6.9s-7.4-29.8-9-22.7c2.7,6.2,4.5,12.7,6.5,19.2A96.8,96.8,0,0,0,225.7,261c-.5-.9-2.6-2.5-2-.5l2.6,3.1a98.3,98.3,0,0,1,13.9,23.6c1.5,3.8,5.2,6.1,7.5,9.4s3,4.6,4.5,6.9a76.6,76.6,0,0,0-17.4,16.2c-5.9-12.9-14.2-24.3-22.3-35.9-2.8-3.9-5.6-7.8-7.5-12.2-3.3-7.4-1.5-17,4.6-22.4,8.1-7.5,17.7-12.7,26.4-19.4h.2c2.3,6.3,13.3,3.8,18.6,5.1,1.7.9,2.4,3.1,3.5,4.6a26.5,26.5,0,0,1,2.9,5.2l.2-.5c.1-.2,2.3,6,4.1,4.4Zm-3.3-18.1c3.4-.7,6.2-2.6,9-4.7l1.1.9c.1.3-.1.8.1,1.2-6,6.6-7.4,2.9-9.5,13.8-2.1-2.8-4.1-8.7-8-8.8s-19.3,1.5-16.8-5.1c.3-.6.6-1.4,1.4-1.3a1.8,1.8,0,0,0,1.8.9c6.5,2.5,14,2.9,20.9,3.1Zm-16.5-18.2c0,.3.1.5.1.7a.6.6,0,0,0-.5.6h0a15.8,15.8,0,0,1-3.9,11.6c-2.6-2.3-5.7.2-5.7,3.7-4.9,3.2-9.6,7-14.5,10.1s-10.1,6.3-14.2,10.8c-9.1,10.2-5.2,23.5,2.4,33.3s14.3,21.4,20.4,32.6c1.4,1.8,3.6,9.6,6.4,6.2-.8,10.3-.9,21.4-2.7,31.4s-6.7,20.9-9.4,31.4c-2.2,5.7,3.5,8.7,8.5,9.4,10.7,2.7,22.7,1,32.9-2.7v.2c1-.8,2.6-1.2,3.1.4v-1.3c13.4,5.4,29,1.5,42.8.3-6.4,27.9-7.5,57-11.7,85.3-3.4,20.1-7.9,40.1-11.1,60.3a3.5,3.5,0,0,0-.6.9c-4,1.3-8.5-.3-12.6-.2,2.6-37.8,3.3-75.5,4.4-113.3-.1-4.2,1.8-8.7,1-12.6-4.7-3.9-3.7,10.2-4.6,12.7-1.2,37.8-3.7,76-5.2,113.7a12.1,12.1,0,0,0-2,2.6,66.2,66.2,0,0,1-14,.8c-4.7-.2-10,.8-14.4-1.2.3-1.1,1.4-2.7.1-3.6-2-35-1.3-70-4.6-104.8-1.2-9.5-2.3-19.2-3.5-28.9-.6-1.9.1-12-2.9-7.6,1,14.3,3.1,28.6,4.3,42.8,2,33.5.8,67.5,3.6,100.8-2.3,3.7,2.6,6.5,5.8,6.9.6,3.7.4,7.5,1.2,11-8.6,6.2-28.1,33.5-5.4,32.1,11.5-2.1,24.2-9.6,28.1-21.2,41.5,20.2,60.1-9.8,18.7-17.2.4-2.6.7-5.1.9-7.7,2.6,0,6.5-1.8,5.4-4.9,1-1.7.6-3.9,1.2-5.7l-.2.5c5.3-28.9,10.7-56,13.3-85.1,2.4-18.7,2.6-38,7.3-56.3a16.2,16.2,0,0,0,2.8-1.1v-.6c6.4-4.7,5.9-16.9,4.3-23.9-2.2-17.5-12-32.7-14.3-50,6.2-1.7,23.2-5.5,22.7-13.3a.8.8,0,0,0,.1-.8c.7-5.7-1.8-12.9-4.1-18.2.6-.5,1.2-1.2.8-2s-.4-3.9-.7-5.7c-1.1-4.6-3-8.6-3.5-13.1a92.4,92.4,0,0,0-10.3-21.2v.3a33.4,33.4,0,0,0-17.6-10.3c-6.5-1.5-13.6-1.8-19.4-4.9-.1-2.1-2.2-4-4.1-2.8a8.7,8.7,0,0,1-4-7.6c-.7-5.5-3,4.5,2.7,8.4a.6.6,0,0,0-.2.7c-2.6,1.5-5.1,3.8-8.2,3.8-5.8-.2-12.3-.6-18-2.2,2-1.2,4.9-12.6,3-13.6a1.4,1.4,0,0,0-.2-.7Z"/></g><path d="M265.3,250.7c-.2,0-.3.1-.4.3s.2,2.5.2,3c.5,5.6,3.3,10.3,5,15.4l2.7-.8c-2.4-5.2-5.7-10.4-6.2-16.5-.1-.6-.4-1.6-1.3-1.4"/><path d="M276.6,282.7l.7-.2c0-.1,0-.1-.1-.2l-.6.4"/><path d="M312.8,265.1l.2-.3c-.1-.3-.3-.7-.4-1.1a6.8,6.8,0,0,1,.2,1.4"/><path d="M293.2,248.3l.2.5h.4a1.8,1.8,0,0,0-.9-1.2c.1.3.3.5.3.7"/><path d="M288.8,258l.3,1.1c-.2-1.1-.3-2.1-.4-3.1a6.9,6.9,0,0,0,.1,2"/><path d="M295.7,265.4c.1.9.3,1.8.4,2.8h.1c-.2-1.1-.3-2.3-.5-3.4v.5"/><path d="M272.3,387.8c-2,.1-4,.5-6,.7l-.5-.6c-10.9,2.7-22.6,2-33.7,2.5-3.4,2.6,1.2,4.7,3.8,4.5,2.9,1.7,50.2.7,36.4-7.1"/><path d="M277.5,320.9a2.1,2.1,0,0,0-2,2.1v.3a22.8,22.8,0,0,0,3-2.1A1.7,1.7,0,0,0,277.5,320.9Z"/><path d="M277.7,379.5a.4.4,0,0,0-.1.3.4.4,0,0,1,.1-.3m.7-42.1-1.2.3c-.5,16.2.5,33.7-6,48.6-2.1,1.7.3,5.1,2.5,3.8,7.7-12.2,7.1-38.7,6.7-53.5l-2,.8"/><path d="M249.6,273.1c-2.7,2.4,1.9,18.2,1.7,22.9.9,2.3-1,17.5,3.8,11.8h.1c-.1-3.3-2.4-36.5-5.6-34.7"/><path d="M282.6,263.8c-10.7,1.8-21.2,5.1-31.4,8.6a1.3,1.3,0,0,0-.9,1.6c1,2.7,19-5.6,23.3-5.5,22.2-8.9,14.4,15.8,16.6,28.7,5.7,4.4,3.2-8.5,3.6-11.3-.4-7.6-.2-23.5-11.2-22.1"/><path d="M292.7,315.7c-1.6,5.3.5,12.6-3.1,17.9-9,4.6-19.9,5.2-29.6,8.7-.4-1.5.7-16.7-2.4-12,.1,2.9.3,5.8.4,8.6s-.9,6.6,2.9,5.6c9.4-2.9,19-4.4,28.2-7.3,5.1.2,9.2-22.9,3.6-21.5"/><path d="M287.3,260.5c-3.1-.5-43.5,10.3-35.9,13.2,9.8-6.1,21.6-7.9,32.7-10.8,15.1-2.7,11.5,19.4,12.7,28.9-.8,1.5,1.3,2.5,2.3,1.3h0c2.3-2.9.4-7.7.6-11.3-.8-7.8-1.5-21.7-12.4-21.3"/><path d="M297.1,317.4c.3,9.4,2.3,13.6-8.6,16.4h.3a136.8,136.8,0,0,1-19.7,6.3c-1.7.8-7.1.3-5.2,3.4,8,.2,16.7-4.5,24.5-6.9,4.4-2.3,12.3-3.3,11.2-9.9-.3-1.7.8-14.1-2.5-9.2"/><path d="M298.2,315.9c-1.6,4,.8,9.7-.9,14.2-8.7,8-22,8.3-32.9,11.7-1.3-1.1-5.3,1.7-1.7,1.8,12.1-2.9,26-3.3,36.5-10.6,2.4-2.1,4.3-19.2-1-17.1"/><path d="M274.4,277.2c-1.4.4-18.3,4.8-14,6.1,4.9-1.5,9.8-4.1,14.8-4.7.1,2.7,3.6-1.7-.8-1.4"/><path d="M276.2,281.7c-13.6,2.5-19.1,8.5-1,2.1,1.6,1.3,3.9-2.3,1-2.1"/><path d="M275,286.5c-2.9.5-5.6,1.1-8.5,1.8h0c-1.1-1.3-2.5,1.5-.4,1.3s13.3-1.5,8.9-3.1"/><path d="M284.3,326.2c-3.8.5-7.4,2.3-11.1,3.3-2.9,3.8,5.2.3,6.6-.1-.1,2.3,8.1-2.3,4.5-3.2"/><path d="M283.3,330.1l-8.2,2.1c-1-.5-2.4,1.3-.8,1.6s13.9-1.9,9-3.7"/><path d="M292,276h0m-2.9-11.2c-12.3,1.8-26.1,4.1-36.9,9.2,9.8-1.5,20.7-6,31.3-7h-.2c7-1.1,7.4-1.1,8.3,6.1a141.4,141.4,0,0,1,1.5,20.5c.1,1-.3,2.5.8,2.9,4.3-.1.9-34.1-4.8-31.7"/><path d="M293.6,316.5c-1.1,4.7,1.5,10.4.1,15-2.9-3.2-4.8,6-.7,4.1,1.8-1.3,4.2-2.7,3.9-5.3s.3-15.8-3.3-13.8"/></svg>