<svg width="500" height="600" viewBox="0 0 500 600" fill="none" xmlns="http://www.w3.org/2000/svg">
<path fill-rule="evenodd" clip-rule="evenodd" d="M299.651 231.503C299.653 231.503 299.656 231.506 299.657 231.507L299.674 231.496C299.671 231.492 299.671 231.489 299.671 231.486L299.651 231.503ZM230.178 371.082L230.438 370.698L230.295 370.694C230.257 370.824 230.219 370.954 230.178 371.082" fill="black"/>
<path fill-rule="evenodd" clip-rule="evenodd" d="M230.178 371.084L230.441 370.695L230.296 370.69C230.258 370.82 230.219 370.953 230.178 371.084ZM305.592 381.133C305.38 381.552 305.121 381.945 304.818 382.303V382.307L304.878 382.237L304.818 382.31L304.812 382.703C304.967 382.555 305.115 382.399 305.257 382.238C305.323 382.151 305.378 382.065 305.433 381.968C305.572 381.593 305.664 381.206 305.748 380.812L305.592 381.133V381.133ZM222.82 386.443C222.73 386.6 222.632 386.751 222.526 386.898C222.592 386.912 222.657 386.929 222.723 386.943C222.93 386.974 223.137 387.005 223.345 387.033C223.286 386.976 223.231 386.916 223.179 386.853C223.059 386.71 222.946 386.561 222.84 386.408L222.82 386.443ZM259.212 397.431C259.264 397.404 259.315 397.379 259.367 397.356L259.253 397.272C259.243 397.328 259.23 397.379 259.212 397.432" fill="black"/>
<path fill-rule="evenodd" clip-rule="evenodd" d="M305.591 381.133C305.355 381.613 305.063 382.01 304.725 382.415V382.416C304.775 382.356 304.825 382.296 304.876 382.238L304.724 382.423C304.704 382.561 304.687 382.698 304.668 382.836C304.878 382.649 305.068 382.449 305.256 382.241C305.321 382.155 305.38 382.065 305.432 381.971C305.573 381.593 305.667 381.206 305.747 380.812C305.697 380.92 305.645 381.027 305.591 381.133Z" fill="black"/>
<path fill-rule="evenodd" clip-rule="evenodd" d="M230.303 580.004C230.091 579.949 229.883 579.883 229.678 579.807L229.633 579.731C229.533 579.376 229.443 578.996 229.378 578.568C229.333 577.743 229.385 576.859 229.533 575.787C229.626 575.286 229.747 574.692 229.91 574.105C230.071 573.508 230.296 572.87 230.6 572.152C231.273 570.796 232.15 569.419 233.288 567.942L233.372 567.844C233.644 567.527 233.92 567.21 234.221 566.916C234.676 566.471 235.131 566.032 235.608 565.616C236.495 564.842 237.458 564.031 238.638 563.061C238.873 563.033 239.121 562.954 239.348 562.836C239.494 562.767 239.632 562.675 239.778 562.54C240.668 561.85 240.571 560.638 240.488 559.572C240.474 559.378 240.46 559.226 240.453 559.085C240.43 558.648 240.411 558.211 240.395 557.774L240.388 557.549C240.371 557.019 240.343 556.49 240.305 555.961C240.136 553.749 240.078 551.899 240.339 550.056C240.402 549.749 240.474 549.435 240.55 549.117C241.983 549.227 243.432 549.297 244.882 549.366L246.77 549.459C248.079 549.531 249.39 549.585 250.701 549.621C250.663 550.236 250.625 550.867 250.573 551.499C250.503 552.324 250.411 553.149 250.317 553.969L250.21 554.926L250.066 556.168L250.049 556.317C249.973 556.932 249.897 557.546 249.838 558.163L249.718 559.347C249.636 560.085 249.564 560.823 249.503 561.563C249.455 562.164 249.703 562.763 250.18 563.213C250.214 563.383 250.28 563.558 250.37 563.727L250.525 563.947C250.445 564.331 250.362 564.721 250.273 565.112C250.218 565.242 250.163 565.373 250.111 565.505C249.392 567.015 248.612 568.495 247.774 569.943L247.456 570.478C247.1 571.094 246.736 571.705 246.363 572.311C246.114 572.715 245.852 573.104 245.583 573.491C245.403 573.743 245.209 573.981 245.01 574.223L244.923 574.33L244.723 574.554C244.557 574.744 244.391 574.934 244.208 575.103L243.739 575.545L243.267 575.983C243.057 576.18 242.839 576.37 242.621 576.556L242.356 576.68C241.902 576.887 241.446 577.089 240.989 577.288L240.705 577.412C239.625 577.878 238.541 578.333 237.451 578.779L237.209 578.865C236.747 579.034 236.281 579.203 235.805 579.348C235.265 579.51 234.786 579.655 234.303 579.78C233.886 579.88 233.448 579.917 233.019 579.955L232.881 579.959C232.356 580 231.763 580.042 231.176 580.042C230.886 580.042 230.593 580.032 230.303 580.004V580.004ZM254.608 560.31L254.642 559.33C254.67 558.436 254.715 557.546 254.76 556.659L254.784 556.209C254.894 553.98 255.039 551.754 255.184 549.529C256.475 549.487 257.763 549.378 259.043 549.2L259.195 549.18C259.875 549.086 260.579 548.99 261.262 548.851C261.528 548.797 261.769 548.734 261.997 548.661C261.756 549.891 261.472 551.212 260.965 552.489C260.928 552.564 260.888 552.637 260.845 552.709L260.768 552.852L260.765 552.845C260.563 552.901 260.366 552.973 260.175 553.059C259.854 553.191 259.544 553.35 259.25 553.535C258.784 553.825 258.31 554.205 257.77 554.73C257.48 555.009 257.217 555.323 256.962 555.627L256.779 555.84C256.289 556.407 255.899 556.907 255.588 557.493C255.211 558.194 255.018 558.95 254.849 559.664C254.756 560.069 254.669 560.473 254.587 560.877L254.607 560.31H254.608ZM260.914 559.41C260.706 559.102 260.522 558.779 260.364 558.443C260.285 558.19 260.223 557.932 260.181 557.67C260.181 557.515 260.189 557.363 260.206 557.207C260.231 557.119 260.257 557.032 260.286 556.945C260.497 556.72 260.724 556.512 260.966 556.32C261.152 556.206 261.334 556.103 261.532 556.006C261.677 555.97 261.824 555.944 261.973 555.93C262.377 555.885 262.681 555.665 263.002 555.433C263.368 555.164 263.626 554.66 263.726 554.298C263.786 554.084 263.813 553.856 263.836 553.635L263.851 553.515C263.899 553.283 263.958 553.052 264.013 552.82C264.068 552.593 264.123 552.369 264.172 552.144C264.296 551.554 264.392 550.904 264.465 550.16C264.514 549.673 264.555 549.183 264.593 548.692C264.672 547.73 264.755 546.732 264.9 545.759C264.945 545.531 264.993 545.3 265.052 545.076L265.18 544.837L265.238 544.723C265.37 544.472 265.49 544.216 265.6 543.964C265.694 543.923 265.794 543.878 265.894 543.84C266.007 543.793 266.109 543.725 266.195 543.638C266.28 543.552 266.348 543.449 266.394 543.336C266.681 543.457 266.984 543.561 267.288 543.66L267.44 543.713L267.747 543.816C268.638 544.116 269.525 544.323 270.27 544.486C271.254 544.692 272.245 544.837 273.259 544.982C273.38 545 273.498 545.017 273.618 545.031L273.384 547.081L273.156 549.141L273.059 550.042L272.959 550.942L272.949 551.047C272.918 551.318 272.896 551.589 272.883 551.861C272.873 552.165 272.897 552.441 272.959 552.666C272.976 552.728 272.997 552.789 273.021 552.849L272.991 553.139C272.893 553.666 272.859 553.887 272.914 554.357C272.955 554.671 273.114 555.081 273.377 555.299C273.69 555.565 273.939 555.713 274.371 555.759H274.429C274.581 555.759 274.671 555.744 274.764 555.729C274.957 555.72 275.154 555.717 275.347 555.717C276.537 555.717 277.725 555.882 278.833 556.065L279.248 556.158C279.679 556.258 280.11 556.358 280.535 556.479C281.329 556.718 281.981 556.928 282.592 557.145C283.811 557.587 285.001 558.087 286.116 558.563L286.302 558.653C287.731 559.327 289.208 560.028 290.568 560.873C290.068 561.06 289.708 561.446 289.616 561.887C289.498 562.447 289.343 563.102 289.074 563.745C288.844 564.229 288.573 564.691 288.263 565.128C288.099 565.305 287.926 565.473 287.745 565.632C287.515 565.769 287.276 565.89 287.03 565.995C286.43 566.181 285.864 566.312 285.298 566.385C284.994 566.405 284.691 566.412 284.387 566.412C283.876 566.412 283.327 566.392 282.612 566.34L282.219 566.312C281.267 566.25 280.317 566.168 279.368 566.068C278.348 565.957 277.328 565.859 276.306 565.774C275.414 565.696 274.525 565.581 273.643 565.429C272.873 565.263 272.058 565.083 271.267 564.835C270.45 564.577 269.638 564.3 268.834 564.004C267.238 563.402 265.662 562.747 264.11 562.039C263.81 561.893 263.517 561.736 263.23 561.567C262.968 561.404 262.718 561.222 262.484 561.022L262.488 561.025C261.818 560.438 261.318 559.927 260.914 559.409V559.41ZM274.157 320.39L274.547 320.111L275.175 319.662C276.911 319.494 278.655 319.3 280.393 319.107C281.325 319.003 282.24 318.917 283.154 318.831C283.834 318.766 284.514 318.699 285.194 318.631C286.396 318.501 287.596 318.355 288.794 318.192L288.984 318.168L289.967 318.04C291.507 317.84 293.101 317.602 294.703 317.34L294.861 317.316C294.931 317.999 295.031 318.737 295.145 319.49C295.162 319.79 295.196 320.094 295.231 320.398L295.255 320.611C295.31 321.312 295.362 322.016 295.386 322.713C295.424 323.745 295.583 324.839 295.697 325.633C295.849 326.676 296.097 327.705 296.335 328.699C296.483 329.299 296.612 329.823 296.722 330.352C297.067 331.97 297.416 333.555 297.895 335.166C298.105 335.87 298.303 336.575 298.5 337.282C298.755 338.207 299.01 339.132 299.3 340.046C299.552 340.829 299.813 341.609 300.084 342.386L300.18 342.67L300.284 342.973C300.747 344.174 301.209 345.376 301.664 346.58L302.662 349.1L302.713 349.23C303.356 350.865 303.951 352.518 304.498 354.187C304.833 355.202 305.133 356.247 305.426 357.259L305.492 357.49C305.619 357.932 305.748 358.377 305.878 358.818L306.075 359.478C306.475 360.824 306.879 362.184 307.228 363.54C307.663 365.222 307.911 367.036 308.108 368.497C308.318 370.047 308.468 371.693 308.564 373.525C308.612 374.502 308.692 375.475 308.771 376.449C308.833 377.197 308.891 377.889 308.936 378.579C308.974 379.151 308.996 379.772 308.895 380.429C308.823 380.911 308.739 381.392 308.643 381.87C308.561 382.286 308.44 382.693 308.281 383.085C308.184 383.324 308.046 383.645 307.881 383.842C307.531 384.28 307.097 384.822 306.562 385.25C305.84 385.83 304.96 386.13 304.112 386.42L303.822 386.52C303.49 386.634 303.148 386.734 302.811 386.83L302.621 386.89C302.134 387.023 301.627 387.08 301.064 387.128C299.827 387.245 298.594 387.399 297.367 387.59C295.686 387.856 294.014 388.177 292.353 388.55C290.809 388.904 289.246 389.173 287.673 389.357L287.273 389.402C286.516 389.492 285.715 389.582 284.939 389.632C284.093 389.685 283.255 389.719 282.409 389.75L282.164 389.757L282.033 389.764C280.555 389.816 279.027 389.871 277.528 389.982L276.852 390.051L276.397 390.099C275.413 390.195 274.432 390.295 273.445 390.375L273.015 390.409C271.834 390.513 270.501 390.624 269.19 390.624C268.98 390.624 268.772 390.62 268.566 390.617C266.859 390.552 265.173 390.224 263.567 389.643C262.739 389.346 261.87 389.005 261.103 388.532C260.848 388.375 260.603 388.202 260.371 388.014C259.999 388.246 259.607 388.446 259.201 388.611C257.617 389.25 256.033 389.881 254.362 390.255C253.974 390.34 253.584 390.413 253.192 390.475C252.808 390.823 252.383 391.124 251.926 391.369C250.856 391.955 249.686 392.29 248.782 392.519C247.76 392.77 246.566 393.054 245.358 393.209L245.065 393.246C244.215 393.36 243.425 393.464 242.649 393.478C242.182 393.485 241.72 393.488 241.255 393.488L240.27 393.485C238.572 393.464 236.826 393.36 235.186 393.253C234.331 393.195 233.468 393.15 232.605 393.109L232.505 393.105C230.216 392.984 227.853 392.864 225.565 392.47C224.604 392.308 223.648 392.121 222.697 391.908L222.599 391.887C221.438 391.633 220.283 391.349 219.137 391.034C218.886 390.961 218.568 390.879 218.261 390.741C218.023 390.634 217.843 390.551 217.66 390.413C217.353 390.183 217.274 390.072 217.064 389.768C216.459 388.878 216.804 387.673 217.057 386.793C217.191 386.33 217.361 385.877 217.529 385.429L217.643 385.129L217.75 384.836C218.009 384.125 218.255 383.409 218.489 382.689L218.606 382.329C219.041 381.005 219.531 379.503 219.963 378.036C220.07 377.67 220.176 377.304 220.28 376.935C220.601 375.817 220.964 374.55 221.426 373.37L221.696 372.676L221.864 372.256L222.454 370.788L222.703 370.188L222.827 369.888L222.941 369.622C222.954 369.585 222.969 369.55 222.986 369.515L223.068 369.315L223.186 369.025L223.231 368.907L223.276 368.794L223.421 368.414L223.462 368.307C223.711 367.654 223.959 367.005 224.187 366.35C224.402 365.72 224.605 365.086 224.795 364.448L224.839 364.296L224.884 364.148L224.919 363.858L224.953 363.609C225.353 360.417 225.826 357.234 226.372 354.063C226.506 353.113 226.613 352.079 226.71 350.808C226.765 350.083 226.81 349.338 226.859 348.596L226.893 348.04C227.089 344.858 227.538 341.648 227.973 338.545L227.994 338.4L228.011 338.273L228.029 338.155C228.083 337.752 228.129 337.345 228.166 336.933C228.28 335.735 228.326 334.511 228.364 333.43L228.377 333.095L228.407 332.329L228.384 332.222L228.364 332.126L228.326 331.984L228.297 331.842C228.299 331.793 228.295 331.744 228.284 331.697C228.242 331.449 228.212 331.207 228.187 330.969L228.167 330.855C228.129 330.326 228.11 329.796 228.108 329.265C228.108 328.875 228.114 328.481 228.125 328.091L228.128 327.884C228.139 327.497 228.148 327.107 228.242 326.734L228.225 326.6L228.212 326.476L228.112 325.654L228.015 324.833C228.001 324.716 227.993 324.599 227.991 324.481C227.991 324.156 228.06 323.904 228.215 323.656C228.302 323.526 228.407 323.409 228.525 323.307C228.715 323.159 228.898 323.062 229.099 323.007C229.244 322.972 229.35 322.959 229.461 322.955C229.477 322.887 229.477 322.816 229.461 322.748C229.516 322.813 229.591 322.868 229.671 322.924C229.957 323.007 230.151 323.079 230.323 323.194C230.54 323.335 230.722 323.523 230.855 323.745C231.518 324.222 232.174 324.709 232.823 325.205L233.461 325.688C234.041 326.124 234.617 326.562 235.183 327.014C235.283 327.097 235.383 327.184 235.48 327.269L235.628 327.397L235.749 327.501L235.898 327.629L236.195 327.884C236.612 328.239 237.029 328.588 237.451 328.936C237.875 329.286 238.297 329.641 238.714 330.003C239.424 330.642 240.125 331.287 240.819 331.946L241.092 332.201C241.333 332.433 241.572 332.661 241.82 332.881C242.113 333.147 242.48 333.479 242.88 333.738C243.432 334.2 244.113 334.482 244.83 334.546C245.023 334.558 245.217 334.559 245.41 334.549C245.655 334.451 245.914 334.383 246.149 334.324C246.863 334.141 247.615 334.048 248.347 333.937C249.075 333.827 249.827 333.745 250.535 333.527C251.181 333.327 251.819 333.099 252.45 332.861C253.576 332.422 254.735 332.018 255.788 331.428C256.9 330.811 257.986 330.148 259.043 329.44C259.502 329.092 259.951 328.737 260.406 328.384C260.862 328.029 261.346 327.704 261.825 327.379C262.484 326.876 263.036 326.286 263.623 325.699C263.706 325.616 263.778 325.523 263.861 325.444C264.17 325.155 264.578 324.994 265.001 324.994C265.166 324.994 265.331 325.019 265.501 325.067C265.577 325.089 265.651 325.117 265.723 325.151C266.019 324.94 266.317 324.732 266.612 324.526C267.032 324.229 267.462 323.936 267.889 323.646C268.459 323.166 269.039 322.696 269.625 322.234C270.015 321.924 270.415 321.627 270.819 321.337C271.133 321.112 271.586 320.863 271.986 320.908C272.238 320.936 272.428 320.95 272.638 321.036C273.018 320.883 273.407 320.752 273.802 320.644L274.157 320.39V320.39ZM244.66 307.352C244.457 307.042 244.274 306.794 243.907 306.673C244.028 306.597 244.194 306.494 244.397 306.387L244.497 306.335L244.598 306.284C244.931 306.168 245.274 306.084 245.623 306.031C245.63 306.059 245.616 306.111 245.598 306.156C245.521 306.316 245.43 306.468 245.326 306.612C245.205 306.756 245.082 306.897 244.956 307.036L244.881 307.119L244.736 307.28L244.666 307.37L244.66 307.353V307.352ZM243.977 315.895C245.833 314.788 247.414 313.928 248.947 313.197L249.45 312.958L249.678 312.851L249.875 312.762C250.347 312.538 250.821 312.317 251.305 312.109C253.592 311.13 255.922 310.253 258.287 309.479C259.335 309.134 260.374 308.779 261.417 308.417L262.072 308.196C262.452 308.064 262.835 307.933 263.215 307.809C263.701 307.64 264.191 307.489 264.681 307.339L264.933 307.264L266.163 306.884L266.97 306.624C267.647 306.408 268.326 306.196 269.006 305.987L270.56 305.551C272.15 305.107 273.793 304.647 275.425 304.226C276.608 303.918 277.785 303.586 278.956 303.232C279.428 303.087 279.898 302.939 280.368 302.788C280.972 302.587 281.456 302.346 281.894 302.024C281.987 301.962 282.068 301.885 282.135 301.796L282.231 301.779L282.341 301.759C282.588 301.703 282.829 301.638 283.064 301.562C283.226 301.506 283.408 301.445 283.526 301.331L283.674 301.209C283.805 301.1 283.898 300.951 283.937 300.785C284.503 300.389 285.037 299.947 285.624 299.449C286.219 298.941 286.781 298.394 287.306 297.814L287.502 297.614C287.71 297.458 287.923 297.282 288.148 297.072L288.651 296.73L288.761 296.654C289.431 296.212 290.098 295.767 290.746 295.298C291.106 295.038 291.454 294.769 291.8 294.498L291.916 294.407C292.227 294.166 292.535 293.931 292.852 293.699C293.701 293.478 294.564 293.31 295.434 293.196C295.747 293.158 296.058 293.147 296.376 293.137L296.638 293.134C297.315 293.134 297.86 293.172 298.354 293.254L298.85 293.326C299.365 293.396 299.958 293.486 300.507 293.61C300.56 293.674 300.597 293.749 300.617 293.83C300.694 294.425 300.818 294.994 300.949 295.57L300.994 295.77C301.08 296.15 301.174 296.527 301.274 296.902L301.384 297.351L300.934 297.378L300.458 297.434C299.925 297.499 299.394 297.579 298.865 297.672L298.375 297.755C297.639 297.869 296.907 298.028 296.275 298.162C296.003 298.222 295.816 298.332 295.685 298.508C295.468 298.635 295.358 298.763 295.251 298.887L295.191 298.957C294.991 299.183 294.836 299.471 294.702 299.722L294.633 299.85L294.574 299.96C294.478 300.123 294.418 300.223 294.371 300.32L293.946 300.806L293.342 301.503C293.118 301.731 292.876 301.941 292.631 302.156L292.451 302.308L292.324 302.415C292.16 302.554 291.998 302.695 291.838 302.839L291.126 303.501C290.812 303.798 290.498 304.091 290.177 304.378C289.991 304.544 289.808 304.713 289.622 304.886L289.535 304.965L289.439 305.051C288.65 305.789 287.799 306.458 286.895 307.05C286.725 307.15 286.553 307.246 286.367 307.322C286.18 307.332 286.032 307.382 285.901 307.426C285.611 307.53 285.434 307.647 285.266 307.758L285.076 307.885C284.382 308.323 283.678 308.845 283.056 309.304L282.608 309.632C281.588 310.379 280.559 311.114 279.522 311.837C278.761 312.38 278.015 312.943 277.286 313.528L277.179 313.611L276.81 313.901C275.838 314.668 274.851 315.415 273.848 316.141L272.986 316.751C272.751 316.758 272.43 316.855 272.253 317.051L272.019 317.325L271.784 317.59L270.821 318.253C270.376 318.556 269.934 318.863 269.49 319.174C268.913 319.578 268.33 319.985 267.746 320.379L267.132 320.787L266.756 321.038L266.497 321.214C265.862 321.642 265.234 322.067 264.612 322.509L263.974 322.967L263.832 323.067C263.146 323.563 262.452 324.049 261.752 324.524C261.127 324.938 260.499 325.346 259.87 325.75L259.784 325.8L259.694 325.856C258.824 326.381 257.817 326.992 256.771 327.589L256.001 328.031L255.722 328.193C255.536 328.273 255.352 328.352 255.166 328.435L254.489 328.742L254.314 328.817C253.744 329.077 253.174 329.335 252.592 329.57C252.315 329.66 252.036 329.746 251.752 329.829L251.56 329.887C251.214 329.988 250.869 330.091 250.524 330.205C249.806 330.435 249.095 330.723 248.467 330.978L248.115 331.12L247.883 331.203C247.356 331.389 246.869 331.565 246.413 331.797C246.104 331.942 245.814 332.123 245.547 332.335C245.27 332.314 245.049 332.2 244.829 332.083L244.419 331.844C244.128 331.675 243.833 331.513 243.535 331.358L243.125 331.151L242.503 330.841L242.085 330.447C241.209 329.632 240.132 328.625 239.045 327.751L238.444 327.268C237.857 326.791 237.271 326.312 236.694 325.826C235.996 325.232 235.248 324.693 234.526 324.169L234.326 324.024L233.95 323.751C233.157 323.166 232.357 322.591 231.551 322.025C230.702 321.441 229.84 320.876 228.966 320.331C229.783 319.393 230.626 318.479 231.496 317.59L231.924 317.162C232.491 316.584 233.066 316.014 233.65 315.453C234.299 314.833 234.956 314.221 235.621 313.617L236.049 313.221C237.601 311.792 239.188 310.402 240.809 309.051L241.599 308.392L241.961 308.095L242.071 308.002L242.282 307.832C242.254 307.934 242.248 308.04 242.264 308.144C242.28 308.249 242.318 308.348 242.375 308.437C242.751 309.007 243.131 309.572 243.521 310.132L243.704 310.405C243.856 310.625 244.008 310.85 244.169 311.064L244.283 311.216L244.401 311.37C243.78 311.678 243.114 312.047 242.431 312.458L242.023 312.71C241.771 312.913 241.576 313.179 241.457 313.48C241.364 313.715 241.319 313.966 241.325 314.218C241.33 314.47 241.385 314.719 241.487 314.95C241.688 315.395 242.061 315.754 242.513 315.93C242.751 316.023 243.017 316.075 243.262 316.075C243.542 316.075 243.79 316.013 243.977 315.895V315.895ZM304.245 297.092C304.152 296.688 304.075 296.322 304.007 295.96L303.931 295.577C303.81 295.004 303.693 294.437 303.583 293.869C303.534 293.634 303.493 293.399 303.451 293.165C303.403 292.89 303.353 292.616 303.299 292.343C303.181 291.731 303.036 291.124 302.864 290.525L302.837 290.393C302.816 290.275 302.781 290.161 302.734 290.051L303.161 289.938L303.437 289.838L303.92 289.672L304.048 289.665L304.183 289.651C304.2 289.651 304.203 289.551 304.203 289.551C304.312 289.529 304.418 289.493 304.518 289.444C304.845 289.31 305.17 289.167 305.495 289.023L306.015 288.792C307.3 288.249 308.642 287.804 309.83 287.411L310.058 287.335L310.254 287.27C310.71 287.114 311.168 286.962 311.624 286.8C312.432 286.517 313.177 286.158 313.799 285.844C314.102 285.692 314.403 285.537 314.702 285.372L314.796 285.703L314.926 286.044C315.134 286.589 315.338 287.132 315.524 287.687C315.607 287.925 315.696 288.164 315.787 288.397L315.828 288.512C315.931 288.785 316.035 289.057 316.132 289.334C316.674 291.329 317.105 293.386 317.382 294.759C317.622 295.915 317.785 296.799 317.905 297.62L317.93 297.776L318.023 298.394L318.13 299.091L318.158 299.281L318.175 299.401C318.227 299.774 318.272 300.081 318.282 300.385L318.292 300.537L318.341 300.623L318.289 300.889C318.258 301.082 318.223 301.255 318.189 301.43L318.144 301.642L318.113 301.81L318.086 301.976L318.048 302.2C317.947 302.542 317.805 302.88 317.606 303.264C317.492 303.474 317.381 303.691 317.278 303.902L317.136 304.182L316.991 304.468C316.808 304.782 316.611 305.089 316.408 305.393L316.277 305.603C316.027 305.98 315.832 306.273 315.604 306.529C315.272 306.87 314.889 307.164 314.548 307.423L314.32 307.595L313.927 307.902C313.554 308.196 313.177 308.489 312.787 308.758L312.046 309.2L311.579 309.48L310.913 309.876C310.485 310.136 310.043 310.384 309.598 310.622C307.914 311.332 306.102 312.03 303.893 312.817C303.717 312.873 303.538 312.927 303.355 312.979C302.871 313.117 302.381 313.242 301.891 313.366L301.173 313.552L300.248 313.8L299.848 313.905L299.486 314.001C299.24 314.066 298.996 314.128 298.751 314.194C298.143 314.349 297.536 314.494 296.928 314.64L296.421 314.76L296.331 314.781L296.155 314.823L296.041 314.846C295.441 314.991 294.822 315.136 294.208 315.243L294.081 315.268L293.925 315.295L293.805 315.319C292.369 315.578 290.933 315.837 289.501 316.113C287.603 316.476 285.984 316.765 284.554 316.997C284.13 317.062 283.705 317.121 283.281 317.18L282.915 317.231L282.256 317.321C281.431 317.435 280.638 317.549 279.846 317.666C279.113 317.774 278.378 317.868 277.641 317.949L277.855 317.843C278.725 317.249 279.585 316.641 280.441 316.03C282.111 314.85 283.823 313.604 285.525 312.323L286.774 311.378L288.027 310.428C288.168 310.322 288.317 310.215 288.469 310.108C289.135 309.628 289.805 309.141 290.177 308.43C290.277 308.23 290.339 308.037 290.36 307.847C290.55 307.747 290.736 307.629 290.912 307.512C291.55 307.095 292.089 306.563 292.589 306.059C293.116 305.523 293.627 304.971 294.119 304.403C294.308 304.182 294.467 303.995 294.609 303.788C294.76 303.558 294.895 303.315 295.023 303.07L295.289 302.628C295.365 302.511 295.437 302.393 295.506 302.276C295.616 302.096 295.713 301.904 295.806 301.714L295.892 301.537L295.997 301.424C296.183 301.2 296.372 300.979 296.566 300.764C296.797 300.541 297.038 300.347 297.276 300.188C297.357 300.133 297.425 300.061 297.476 299.978C297.527 299.895 297.561 299.802 297.574 299.705L298.244 299.622C299.113 299.484 299.906 299.364 300.708 299.256C301.149 299.194 301.595 299.143 302.043 299.091C302.191 299.322 302.513 299.484 302.833 299.484C302.871 299.484 302.909 299.48 302.943 299.477C303.189 299.439 303.355 299.37 303.509 299.243C303.624 299.146 303.718 299.026 303.782 298.89L304.142 298.877L304.272 298.867L304.535 298.842C304.642 298.832 304.749 298.822 304.86 298.79C305.013 298.757 305.157 298.69 305.28 298.593C305.53 298.425 305.622 298.066 305.584 297.814C305.543 297.552 305.35 297.241 305.059 297.154C304.973 297.13 304.887 297.103 304.798 297.085H304.324L304.238 297.095L304.245 297.092V297.092ZM256.178 249.534C256.326 249.275 256.375 248.975 256.42 248.633C256.478 248.254 256.533 247.871 256.582 247.488L256.665 246.898C256.723 246.473 256.775 246.048 256.827 245.624C256.877 245.191 256.931 244.758 256.989 244.326C257.083 243.643 257.172 242.956 257.262 242.269L257.344 241.609C257.462 240.706 257.586 239.801 257.721 238.904C257.773 238.583 257.828 238.262 257.883 237.944L257.935 237.813L257.987 237.683C258.155 237.337 258.329 236.998 258.504 236.664L258.553 236.578C258.722 236.284 258.891 235.998 259.084 235.725C259.264 235.473 259.464 235.235 259.664 234.997L259.761 234.883C260.047 234.552 260.341 234.213 260.641 233.893C261.135 233.389 261.704 232.94 262.253 232.505L262.609 232.222C263.399 231.586 264.237 230.896 265.003 230.072C265.363 229.678 265.645 229.25 265.828 228.961C266.149 229.136 266.498 229.299 266.843 229.457L267.002 229.53C267.375 229.703 267.747 229.871 268.124 230.023C268.952 230.369 269.832 230.668 270.608 230.931L270.74 230.979C272.499 231.576 274.288 232.082 276.1 232.495C277.653 232.85 279.296 233.203 281.425 233.637C281.709 233.692 281.991 233.744 282.274 233.793C282.695 233.869 283.114 233.951 283.53 234.034L284.131 234.151L284.608 234.241C285.07 234.324 285.594 234.421 286.088 234.572C286.423 234.672 286.755 234.776 287.078 234.907C287.396 235.031 287.7 235.173 288.008 235.317C288.404 235.504 288.766 235.663 289.118 235.821L289.257 235.881L289.954 236.188C291.434 236.909 292.794 237.748 293.93 238.469C294.316 238.714 294.713 238.949 295.107 239.179C295.369 239.332 295.628 239.484 295.887 239.639C296.587 240.063 297.209 240.489 297.788 240.934C298.597 241.629 299.353 242.383 300.05 243.19L300.425 243.636L300.525 243.753C300.709 243.974 300.895 244.195 301.085 244.409C301.433 244.805 301.768 245.219 302.089 245.645L302.327 245.993C302.31 246.203 302.289 246.414 302.272 246.628C302.489 246.863 302.686 247.115 302.862 247.349C303.193 247.787 303.508 248.236 303.822 248.689C304.256 249.309 304.615 249.983 304.96 250.656C305.34 251.398 305.703 252.143 306.03 252.906C306.745 254.57 307.494 256.219 308.136 257.908C308.701 259.386 309.206 260.886 309.651 262.404C310.117 264.006 310.548 265.618 310.977 267.229C311.394 268.793 311.757 270.367 312.025 271.965C312.298 273.584 312.581 275.21 312.709 276.852C312.744 277.318 312.813 277.798 312.661 278.254C312.84 279.092 313.016 279.931 313.206 280.77L313.247 280.963C313.045 281.02 312.845 281.083 312.647 281.153L312.333 281.256C312.257 281.701 312.001 282.126 311.594 282.322C310.151 283.013 308.726 283.738 307.29 284.438C306.524 284.815 305.79 285.291 304.988 285.584C304.491 285.764 303.988 285.746 303.546 285.505C302.876 285.843 302.223 286.216 301.513 286.626C301.253 286.775 300.998 286.926 300.743 287.079C300.973 285.554 301.154 284.024 301.295 282.726C301.426 282.871 301.567 283.01 301.715 283.137C301.596 282.826 301.579 282.486 301.665 282.164C301.703 282.025 301.768 281.877 301.854 281.739C301.823 280.79 301.75 279.845 301.692 278.899C301.553 278.796 301.44 278.663 301.361 278.509C301.278 278.337 301.202 278.162 301.133 277.984C301.078 277.712 301.05 277.435 301.019 277.164C300.497 273.481 300.177 269.78 299.776 266.087C299.756 265.97 299.739 265.853 299.718 265.735C299.638 265.739 299.559 265.745 299.48 265.755C299.4 265.556 299.311 265.36 299.214 265.169L298.972 264.665C298.958 264.636 298.942 264.608 298.924 264.582L298.547 264.814C298.386 264.966 298.227 265.114 298.062 265.259C298.12 266.467 298.196 267.675 298.234 268.886L298.462 272.045C298.503 272.662 298.547 273.28 298.582 273.898C298.631 274.761 298.686 275.623 298.692 276.49C298.699 276.963 298.714 277.442 298.665 277.915C298.627 278.285 298.578 278.65 298.538 279.016C298.506 279.293 298.458 279.534 298.344 279.755C298.33 279.997 298.314 280.235 298.292 280.47L298.22 281.426L298.15 282.367L298.033 283.914C297.936 285.073 297.82 286.231 297.685 287.386C297.568 288.181 297.439 288.973 297.298 289.764L297.215 289.744L297.108 289.75C296.502 289.772 295.899 289.838 295.303 289.95C294.523 290.099 293.861 290.274 293.284 290.49C292.75 290.678 292.173 290.975 291.524 291.4C291.02 291.735 290.523 292.097 290.047 292.449C289.554 292.815 289.129 293.129 288.687 293.426C288.328 293.671 287.959 293.916 287.593 294.158C286.93 294.596 286.275 295.034 285.629 295.494L284.911 296.011L284.628 296.215L284.334 296.425C282.83 297.502 281.274 298.617 279.714 299.673C279.627 299.736 279.55 299.811 279.486 299.897L279.172 299.952C278.757 300.032 278.343 300.129 277.932 300.232L277.612 300.305L277.19 300.401L275.34 300.795L273.98 301.088L272.914 301.318C271.565 301.621 270.219 301.936 268.876 302.262C268.573 302.338 268.272 302.414 267.968 302.496L268.082 302.338C268.089 302.324 268.096 302.309 268.106 302.296C267.926 302.345 267.754 302.389 267.579 302.434C266.719 302.651 265.859 302.904 265.014 303.18C265.107 303.235 265.2 303.287 265.3 303.328L264.203 303.763L263.078 304.239L262.812 304.349C262.435 304.509 262.056 304.67 261.68 304.833C261.362 304.971 261.055 305.113 260.748 305.268C260.496 305.392 260.116 305.516 259.826 305.516L259.737 305.523V305.513C259.453 305.486 259.171 305.438 258.894 305.371C258.857 305.362 258.822 305.35 258.787 305.336L258.363 305.474L257.738 305.689C256.768 306.017 255.802 306.345 254.839 306.689C253.315 307.221 251.809 307.804 250.324 308.436C249.063 308.958 247.822 309.528 246.604 310.145L246.41 309.855L246.017 309.33C245.877 309.144 245.74 308.955 245.607 308.764C245.727 308.733 245.879 308.634 246.066 308.464C246.376 308.17 246.666 307.835 246.949 307.442C247.214 307.072 247.395 306.648 247.477 306.2C247.532 305.885 247.536 305.63 247.487 305.396C247.463 305.253 247.416 305.114 247.349 304.985C247.291 304.867 247.212 304.771 247.136 304.677C247.038 304.574 246.93 304.48 246.814 304.398C246.69 304.329 246.566 304.278 246.442 304.225C246.093 304.08 245.82 304.067 245.544 304.067C245.209 304.067 244.896 304.105 244.578 304.177C244.619 304.07 244.619 303.932 244.585 303.759C244.544 303.534 244.477 303.314 244.385 303.104C244.276 302.819 244.157 302.538 244.029 302.262L243.991 302.175C243.795 301.751 243.629 301.402 243.431 301.098C243.201 300.729 242.958 300.369 242.701 300.018L242.483 299.718C242.3 299.456 242.113 299.193 241.92 298.941C241.528 298.422 241.129 297.908 240.723 297.399L240.574 297.209L240.102 296.608L239.936 296.401C239.456 295.787 238.9 295.072 238.307 294.409C237.847 293.906 237.354 293.415 236.877 292.946C236.519 292.59 236.16 292.235 235.811 291.866C234.978 291.007 234.185 290.112 233.433 289.181C232.964 288.536 232.595 287.779 232.267 287.113L232.077 286.72L231.867 286.298L231.46 285.474C231.255 285.06 231.052 284.645 230.845 284.232L230.569 283.676C230.234 283.006 229.892 282.326 229.54 281.65C229.506 281.511 229.468 281.373 229.426 281.236L229.396 281.129C229.378 281.066 229.36 281.002 229.343 280.939C229.312 280.83 229.278 280.721 229.24 280.614L229.213 280.528C229.176 280.412 229.142 280.294 229.112 280.176L228.905 279.382C228.805 278.957 228.695 278.535 228.574 278.116C228.446 277.68 228.333 277.238 228.215 276.8L228.035 276.128C227.959 275.854 227.881 275.58 227.801 275.306C227.674 274.884 227.555 274.46 227.445 274.033C227.256 273.31 227.079 272.584 226.914 271.855C226.745 271.077 226.561 270.303 226.364 269.532C226.178 268.829 225.98 268.129 225.771 267.433C225.535 266.656 225.279 265.885 225.005 265.121L224.929 264.914C224.735 264.351 224.53 263.792 224.315 263.237C224.045 262.549 223.769 261.867 223.49 261.18C222.856 259.614 222.243 258.04 221.65 256.458C221.57 256.251 221.326 256.092 221.132 256.03C221.02 255.992 220.901 255.977 220.784 255.988C220.666 255.999 220.552 256.034 220.449 256.092C220.243 256.198 220.086 256.381 220.014 256.602C220.004 256.689 219.99 256.765 219.976 256.842C219.97 256.999 220.006 257.154 220.08 257.292L220.252 257.762C220.687 258.908 221.122 260.054 221.582 261.192C221.996 262.218 222.406 263.244 222.81 264.278L223.04 264.941L223.514 266.287C223.78 267.057 224.011 267.834 224.239 268.614L224.359 269.024C224.529 269.601 224.694 270.174 224.846 270.75L225.098 271.744L225.13 271.864C225.226 272.244 225.322 272.628 225.426 273.011C225.606 273.684 225.823 274.402 226.076 275.147L226.22 275.568L226.593 276.642C226.139 275.858 225.668 275.083 225.181 274.319C224.543 273.325 223.89 272.341 223.221 271.368C222.867 270.854 222.517 270.337 222.171 269.818C221.405 268.659 220.235 266.936 218.947 265.324C218.44 264.698 217.927 264.077 217.408 263.461L217.174 263.177C216.968 262.933 216.754 262.697 216.532 262.467L216.28 262.19C215.849 261.725 215.427 261.265 214.996 260.81C214.941 260.755 214.876 260.711 214.804 260.682C214.733 260.653 214.655 260.638 214.578 260.64C214.419 260.639 214.266 260.7 214.151 260.81C214.039 260.924 213.977 261.077 213.977 261.237C213.977 261.396 214.039 261.549 214.151 261.663C214.62 262.159 215.081 262.663 215.541 263.171L215.751 263.401C215.969 263.637 216.184 263.871 216.387 264.117L216.947 264.79L217.509 265.466C217.619 265.601 217.729 265.742 217.837 265.884L218.044 266.15L218.284 266.467L219.179 267.689C219.389 267.972 219.589 268.269 219.787 268.565L220.024 268.92C220.359 269.41 220.677 269.908 220.994 270.408L221.412 271.068L222.034 272.02L222.148 272.196C222.434 272.635 222.72 273.073 222.996 273.515C223.531 274.385 224.063 275.257 224.587 276.137C225.36 277.446 226.368 279.175 227.301 280.953C228.098 282.488 228.784 284.011 229.668 285.995L230.165 287.113L230.317 287.451L230.803 288.532C230.959 288.88 231.148 289.291 231.373 289.702C231.656 290.23 232.029 290.699 232.419 291.176L232.599 291.396C233.147 292.093 233.725 292.765 234.331 293.412L234.41 293.495C234.77 293.885 235.145 294.268 235.521 294.648C235.791 294.92 236.053 295.186 236.312 295.459C236.892 296.066 237.42 296.739 237.872 297.326L238.048 297.554L238.386 297.989L238.456 298.078C239.159 298.993 239.843 299.894 240.478 300.833L240.654 301.088C241.047 301.664 241.368 302.141 241.61 302.644L241.713 302.859C241.845 303.121 241.969 303.383 242.093 303.649L242.163 303.797L242.296 304.084C242.406 304.322 242.559 304.544 242.783 304.809C242.814 304.843 242.853 304.874 242.887 304.902L242.738 304.96C242.318 305.223 241.896 305.51 241.444 305.837C241.363 305.885 241.287 305.94 241.217 306.003C241.008 306.159 240.8 306.318 240.595 306.479L240.475 306.569L240.399 306.655L240.212 306.769L240.122 306.841C239.097 307.639 238.275 308.291 237.544 308.898C236.808 309.517 236.081 310.147 235.366 310.79L235.18 310.956L235.11 311.018C233.59 312.376 232.11 313.777 230.669 315.218L230.459 315.432L230.375 315.519C229.557 316.347 228.712 317.206 227.939 318.097C227.068 319.109 226.228 320.147 225.419 321.21L225.423 321.127L225.378 321.034C225.281 320.824 225.17 320.616 225.06 320.409L224.998 320.292L224.943 320.188L224.743 319.819C224.421 319.192 224.109 318.561 223.807 317.924L223.383 317.051C222.941 316.14 222.488 315.234 222.023 314.335L221.788 313.879L221.733 313.775C221.368 313.062 220.985 312.359 220.583 311.666C220.035 310.739 219.467 309.824 218.878 308.923C218.307 308.041 217.752 307.149 217.212 306.247C216.959 305.837 216.715 305.42 216.473 305.005L216.249 304.626L215.649 303.632L215.483 303.359C215.248 302.969 215.043 302.631 214.817 302.307L213.905 301.002L213.698 300.698L213.622 300.588C213.463 300.357 213.305 300.125 213.139 299.898C212.175 298.524 211.243 297.128 210.343 295.711C209.766 294.783 209.161 293.872 208.528 292.981C208.421 292.831 208.313 292.683 208.203 292.535L208.042 292.311L207.792 291.976C207.426 291.49 207.067 290.999 206.716 290.502C206.433 290.095 206.157 289.684 205.88 289.274L205.705 289.012L205.643 288.918C205.408 288.574 205.177 288.232 204.935 287.893L202.999 285.118C202.444 284.327 201.88 283.543 201.308 282.764L201.16 282.564L200.386 281.494L200.193 281.229C199.962 280.904 199.739 280.573 199.523 280.238L199.306 279.918C199.02 279.478 198.742 279.032 198.474 278.581L198.229 278.181L198.073 277.922C197.808 277.495 197.551 277.062 197.303 276.624L197.01 276.096L196.713 275.565C196.637 275.431 196.569 275.292 196.5 275.154L196.434 275.02L196.296 274.733C196.207 274.557 196.121 274.38 196.038 274.202L195.909 273.939L195.685 273.463L195.437 272.935L195.385 272.811C195.091 272.103 194.788 271.375 194.553 270.65C194.291 269.846 194.139 268.973 194.004 268.203L193.963 267.979C193.918 267.557 193.876 267.137 193.836 266.712C193.819 266.497 193.807 266.282 193.8 266.067L193.794 265.938L193.791 265.808C193.791 265.659 193.787 265.518 193.78 265.373C193.778 265.251 193.781 265.129 193.79 265.007L193.798 264.814L193.808 264.572C193.808 264.434 193.811 264.292 193.822 264.151L193.925 262.746L193.952 262.56C194.008 262.149 194.066 261.738 194.152 261.332C194.291 260.692 194.432 260.054 194.577 259.416C194.797 258.449 195.116 257.434 195.551 256.309C196.085 255.109 196.686 254.069 197.387 253.137C198.17 252.143 199.085 251.215 199.889 250.394L200.021 250.262C200.441 249.838 200.863 249.42 201.294 249.006C201.721 248.602 202.16 248.22 202.605 247.836L202.726 247.736C203.476 247.159 204.234 246.586 204.993 246.018C205.235 245.841 205.47 245.662 205.705 245.482L205.867 245.358C206.423 244.934 206.979 244.508 207.551 244.108C209.285 242.905 211.036 241.726 212.804 240.574L212.925 240.495L213.008 240.44C213.839 239.902 214.657 239.345 215.462 238.769L215.904 238.449C216.66 237.903 217.415 237.361 218.172 236.822L219.042 236.208L219.417 235.946C219.89 235.618 220.356 235.29 220.819 234.956C220.999 234.827 221.174 234.696 221.349 234.559L221.439 234.489L221.55 234.403L221.974 234.072L223.49 232.926C223.807 232.688 224.132 232.46 224.46 232.236L224.784 232.008C225.374 231.598 225.964 231.186 226.562 230.786C226.6 230.846 226.669 230.9 226.751 230.945C226.758 231.063 226.789 231.2 226.827 231.359C226.937 231.78 227.172 232.102 227.404 232.391C227.634 232.671 227.928 232.906 228.232 233.14L228.46 233.323C228.736 233.554 229.04 233.789 229.396 233.951C229.626 234.061 229.892 234.165 230.2 234.273C230.686 234.441 231.255 234.628 231.842 234.745L232.036 234.787L232.17 234.811C233.309 235.042 234.43 235.267 235.552 235.359C236.66 235.446 237.772 235.49 239.004 235.542L239.114 235.549C239.611 235.566 240.105 235.584 240.602 235.611C241.078 235.629 241.551 235.66 242.024 235.691L242.921 235.743L243.539 235.77L243.681 235.774L243.815 235.777C244.253 235.801 244.702 235.821 245.137 235.877L245.289 235.922L245.509 236.032C245.72 236.129 245.928 236.261 246.2 236.464C246.473 236.684 246.718 236.926 246.928 237.184C247.388 237.831 247.812 238.524 248.222 239.194L248.382 239.449L248.436 239.542C248.533 239.702 248.63 239.857 248.733 240.012C248.823 240.167 248.92 240.315 249.017 240.467L249.127 240.637L249.323 240.943C249.727 241.556 250.115 242.179 250.487 242.811C250.649 243.094 250.797 243.381 250.946 243.671L251.008 243.784L251.06 243.894L251.232 244.226L251.315 244.385C251.409 244.571 251.505 244.758 251.591 244.948L251.657 245.109L251.709 245.223C251.784 245.393 251.86 245.562 251.943 245.727L252.016 245.852L252.106 245.669L252.151 245.486L252.209 245.348L252.848 246.518C253.383 247.445 253.949 248.355 254.545 249.244C254.739 249.534 254.981 249.889 255.36 249.942C255.398 249.945 255.436 249.945 255.47 249.945C255.77 249.945 256.026 249.793 256.178 249.535V249.534ZM252.861 231.311C253.848 231.19 254.777 230.813 255.474 230.496C256.23 230.161 256.948 229.776 257.804 229.306C258.194 229.091 258.535 228.901 258.87 228.68C259.088 228.543 259.301 228.39 259.513 228.239L259.853 227.997L260.082 227.838L260.313 227.677C260.731 227.395 261.14 227.099 261.538 226.79L261.635 226.714L261.783 226.596L261.866 226.52L261.921 226.582C262.221 226.81 262.542 227.018 262.864 227.221L263.084 227.362L263.133 227.701C263.133 227.749 263.129 227.794 263.125 227.838C263.085 228.126 263.115 228.339 263.23 228.553C263.212 228.709 263.154 228.791 263.102 228.867C262.667 229.388 262.191 229.864 261.684 230.275L261.124 230.703L260.731 231.003C260.137 231.459 259.544 231.915 258.957 232.373C258.604 232.633 258.242 232.881 257.88 233.127L257.683 233.257L257.548 233.347L257.424 233.427C257.013 233.696 256.499 234.03 256.205 234.545C255.546 235.684 255.112 236.643 254.832 237.558C254.658 238.122 254.511 238.695 254.391 239.273L254.293 239.795L254.27 239.911L254.246 240.036C254.087 240.875 253.886 241.706 253.642 242.524C253.534 242.261 253.401 242.009 253.245 241.772C252.845 241.12 252.385 240.454 251.947 239.832L251.687 239.456L251.322 238.921C251.025 238.479 250.735 238.037 250.445 237.592L250.301 237.368C250.011 236.923 249.717 236.478 249.413 236.04C249.108 235.581 248.742 235.167 248.323 234.81C247.974 234.525 247.601 234.271 247.208 234.052C247.042 233.958 246.898 233.875 246.752 233.817C246.627 233.758 246.5 233.702 246.372 233.65C246.265 233.61 246.152 233.59 246.038 233.592C245.924 233.592 245.807 233.61 245.689 233.627C245.586 233.644 245.541 233.657 245.506 233.668L245.378 233.688C245.23 233.688 245.082 233.682 244.934 233.672L244.806 233.665C244.375 233.638 243.944 233.621 243.512 233.616L242.922 233.603C241.986 233.568 241.054 233.537 240.118 233.516L239.173 233.499L237.261 233.458C236.725 233.448 236.188 233.428 235.653 233.398C235.283 233.378 234.918 233.337 234.555 233.295L234.341 233.271L234.1 233.233C232.798 233.026 231.452 232.808 230.196 232.336C229.796 232.142 229.443 231.883 229.084 231.615C228.886 231.461 228.703 231.289 228.536 231.101C228.501 231.063 228.474 231.011 228.446 230.961C228.394 230.826 228.352 230.687 228.322 230.545C228.306 230.22 228.315 229.895 228.349 229.571C228.411 229.194 228.506 228.824 228.632 228.463C228.765 228.181 228.908 227.904 229.061 227.632L229.146 227.472L229.271 227.369C229.343 227.324 229.419 227.283 229.499 227.249C229.618 227.215 229.739 227.187 229.861 227.166H229.961C229.975 227.197 230.003 227.235 230.033 227.276C230.333 227.642 230.645 227.876 230.983 227.99C231.224 228.073 231.463 228.115 231.69 228.115C231.756 228.115 231.822 228.111 231.89 228.105C232.112 228.205 232.35 228.311 232.588 228.401L232.671 228.436C233.41 228.712 234.172 229.002 234.969 229.223L235.239 229.295C235.58 229.392 235.88 229.475 236.195 229.544L236.622 229.634L236.764 229.664L236.888 229.689C237.085 229.73 237.281 229.772 237.478 229.806L240.232 230.296C240.554 230.348 240.878 230.389 241.202 230.427L241.655 230.482C242.03 230.531 242.403 230.572 242.78 230.603L243.252 230.645L243.587 230.675C244.181 230.731 244.74 230.786 245.3 230.855L245.69 230.9C246.014 230.938 246.338 230.976 246.663 231.021L246.866 231.045L247.029 231.066C247.297 231.101 247.574 231.135 247.843 231.159C248.698 231.222 249.554 231.271 250.411 231.307L250.77 231.325C251.16 231.345 251.529 231.365 251.902 231.365C252.258 231.365 252.575 231.345 252.862 231.311H252.861ZM236.291 212.9C236.339 213.155 236.381 213.373 236.415 213.586C236.279 213.593 236.151 213.652 236.057 213.75C235.963 213.849 235.909 213.979 235.908 214.115L235.912 214.325C235.932 215.354 235.953 216.42 235.794 217.463C235.722 217.939 235.646 218.415 235.566 218.891C235.504 219.209 235.436 219.558 235.346 219.903C235.279 220.143 235.191 220.376 235.083 220.6L235.041 220.7L234.941 220.935C234.829 221.221 234.723 221.508 234.621 221.797C234.488 222.191 234.34 222.579 234.176 222.961C233.857 223.602 233.464 224.203 233.006 224.752L232.909 224.873C232.739 225.083 232.619 225.235 232.501 225.387L232.36 225.563L232.139 225.836L232.039 225.943L231.801 225.763C231.701 225.691 231.601 225.619 231.498 225.556C231.176 225.352 230.824 225.199 230.455 225.105C230.234 225.049 230.006 225.021 229.778 225.022C229.568 225.022 229.354 225.045 229.13 225.087C228.941 225.127 228.756 225.187 228.58 225.267L228.49 225.304C228.27 225.391 228.056 225.536 227.79 225.764C226.848 226.571 226.327 227.848 226.244 229.56C225.626 229.96 225.016 230.374 224.408 230.8L223.97 231.103C223.662 231.31 223.355 231.517 223.059 231.741L220.356 233.785C219.713 234.266 219.058 234.73 218.393 235.179L217.716 235.638C217.095 236.066 216.477 236.501 215.866 236.935L215.224 237.388C214.082 238.198 212.88 238.972 211.717 239.718L211.61 239.787L211.351 239.952L210.957 240.204L209.95 240.857L209.246 241.308L208.973 241.488C208.411 241.851 207.848 242.217 207.293 242.589C206.709 242.983 206.136 243.393 205.567 243.804L205.391 243.931L204.691 244.439L204.314 244.709C203.546 245.257 202.78 245.809 202.018 246.365C201.283 246.91 200.514 247.565 199.665 248.373C198.875 249.121 198.1 249.885 197.342 250.665C196.955 251.071 196.584 251.491 196.23 251.925C195.791 252.472 195.391 253.049 195.033 253.651C194.946 253.785 194.868 253.931 194.792 254.072L194.602 254.424C193.57 256.27 193.048 258.359 192.607 260.338C192.545 260.628 192.479 260.918 192.41 261.203C192.379 261.359 192.358 261.521 192.337 261.68L192.282 262.049C192.201 262.615 192.137 263.184 192.092 263.754L192.085 263.844C192.058 264.213 192.04 264.593 192.024 264.969L192.002 265.355C191.996 265.515 192.002 265.673 192.012 265.835L192.02 266.07L192.024 266.28V266.374C192.027 266.501 192.031 266.626 192.04 266.75L192.082 267.226C192.112 267.64 192.147 268.069 192.217 268.486L192.237 268.61C192.365 269.39 192.5 270.198 192.707 270.971C192.904 271.681 193.19 272.396 193.438 273.025L193.598 273.411C193.773 273.85 193.966 274.278 194.163 274.709L194.305 275.013C194.643 275.772 195.095 276.759 195.616 277.656C196.176 278.633 196.746 279.61 197.314 280.58C197.764 281.346 198.256 282.07 198.857 282.937L199.085 283.265L199.724 284.19L200.034 284.632L200.186 284.856C200.41 285.181 200.635 285.505 200.859 285.836C201.294 286.485 201.718 287.113 202.136 287.745L202.561 288.387C202.885 288.873 203.199 289.36 203.517 289.854C203.76 290.233 204.005 290.61 204.252 290.986C204.69 291.662 205.149 292.322 205.608 292.981C206.336 294.037 207.061 295.076 207.703 296.135L208.111 296.819C208.876 298.106 209.683 299.367 210.53 300.601L211.241 301.675L211.448 301.989L211.586 302.199C212.057 302.9 212.514 303.61 212.956 304.329C213.446 305.14 213.912 305.969 214.375 306.797L214.555 307.114C215.251 308.367 216.07 309.669 216.67 310.614L216.905 310.99C217.229 311.508 217.55 312.019 217.865 312.533C218.675 313.879 219.424 315.291 220.149 316.654L220.311 316.951L220.787 317.844L221.163 318.566C221.505 319.218 221.847 319.87 222.217 320.502C222.454 320.916 222.703 321.32 222.957 321.72C223.124 321.98 223.269 322.252 223.414 322.524L223.618 322.901C223.773 323.191 223.955 323.433 224.128 323.661C224.225 323.764 224.325 323.846 224.429 323.909C224.629 324.023 224.829 324.05 225.036 324.074L225.154 324.092C225.433 324.092 225.688 323.967 225.83 323.902C226.023 323.812 226.158 323.73 226.316 323.598C226.465 323.477 226.6 323.339 226.727 323.191C226.6 324.133 226.555 325.106 226.51 326.052L226.458 327.081C226.413 327.864 226.354 328.651 226.296 329.435L226.206 330.701C226.082 332.517 226.01 334.384 225.943 336.033C225.916 336.803 225.882 337.57 225.847 338.336L225.844 338.432C225.787 339.704 225.697 340.975 225.574 342.242C225.516 342.846 225.444 343.454 225.371 344.058C225.298 344.662 225.231 345.267 225.171 345.873C224.898 348.725 224.598 351.078 224.228 353.28C224.136 353.833 224.053 354.388 223.966 354.944L223.901 355.382C223.714 356.432 223.49 357.475 223.231 358.509C222.948 359.628 222.621 360.708 222.217 361.988C221.83 363.228 221.457 364.47 221.084 365.712C220.734 366.901 220.375 368.087 220.008 369.271C219.859 369.747 219.718 370.227 219.576 370.707L219.497 370.986C219.331 371.546 219.166 372.108 218.979 372.66C218.58 373.872 218.16 375.076 217.719 376.273C217.294 377.444 216.877 378.613 216.459 379.783C216.025 381.003 215.669 382.293 215.355 383.435L215.038 384.612C214.877 385.227 214.708 385.841 214.533 386.452C214.44 386.783 214.357 387.118 214.288 387.452L214.258 387.602C214.198 387.902 214.12 388.312 214.098 388.682C214.075 389.034 214.123 389.403 214.164 389.727L214.192 389.941C214.309 390.911 214.882 391.912 215.89 392.91C216.482 393.498 217.157 393.998 217.892 394.393C218.226 394.573 218.568 394.743 218.916 394.9C219.576 395.018 220.28 395.17 221.132 395.377L221.743 395.525L221.864 395.557C222.184 395.636 222.514 395.719 222.838 395.802L222.986 395.84L223.072 395.864L223.186 395.892L223.383 395.947C223.879 396.081 224.328 396.217 224.77 396.361L225.081 396.464L225.191 396.495L225.436 396.595C227.642 396.861 229.792 396.985 232.17 397.109C232.75 397.137 233.332 397.151 233.913 397.151C235.787 397.151 237.613 397.013 239.153 396.882C241.831 396.644 244.436 396.33 246.904 395.947C248.53 395.691 250.08 395.204 251.512 394.714C251.943 394.57 252.377 394.439 252.816 394.321C253.2 394.211 253.579 394.104 253.952 393.982C254.492 393.806 255.027 393.615 255.557 393.41L255.961 393.269C256.106 393.223 256.165 393.206 256.223 393.185L256.199 393.307L256.202 393.441C256.41 393.341 256.589 393.223 256.758 393.11C256.9 393.02 257.031 392.93 257.161 392.854C257.373 392.734 257.612 392.67 257.856 392.671C258.497 392.671 259.122 393.127 259.336 393.758L259.368 393.658L259.364 393.565C259.354 393.178 259.343 392.82 259.33 392.465C259.522 392.651 259.733 392.799 259.944 392.934C261.128 393.686 262.542 393.921 263.906 394.145L264.406 394.232C266.902 394.662 269.449 394.835 271.916 395.002L272.214 395.022C273.751 395.124 275.291 395.177 276.831 395.181C277.944 395.18 279.057 395.149 280.169 395.087C283.492 394.891 286.237 394.687 288.797 394.445C290.485 394.279 292.167 394.065 293.881 393.848C294.88 393.717 295.88 393.594 296.881 393.478L298.451 393.296C299.771 393.154 301.088 392.992 302.403 392.809C301.64 396.109 300.915 399.419 300.233 402.629C299.883 404.28 299.578 405.939 299.317 407.606C299.009 409.485 298.73 411.369 298.479 413.256C298.058 416.552 297.695 419.838 297.278 423.755C297.008 426.268 296.722 428.777 296.436 431.286C296.269 432.726 296.106 434.166 295.946 435.607C295.556 439.128 295.106 442.679 294.72 445.692C294.43 447.929 294.158 450.166 293.885 452.402L293.827 452.899C293.637 454.417 293.45 455.939 293.26 457.459C293.084 458.873 292.898 460.285 292.712 461.699L292.574 462.759L292.435 463.819C292.266 465.099 292.1 466.379 291.938 467.664C291.687 469.673 291.438 471.681 291.2 473.69L291.14 474.177C290.979 475.557 290.796 477.121 290.56 478.639C290.305 480.271 290.036 481.9 289.753 483.527L289.708 483.765C289.028 487.371 288.352 490.975 287.7 494.585C287.251 497.045 286.76 499.545 286.281 501.974L286.157 502.596L285.632 505.264L285.239 507.255C284.883 509.06 284.528 510.865 284.193 512.677C283.847 514.562 283.521 516.45 283.213 518.341L282.871 520.395L282.461 522.675C282.079 524.89 281.668 527.101 281.229 529.306C281.097 529.958 280.959 530.608 280.825 531.26L280.731 531.705C280.57 532.475 280.407 533.248 280.259 534.028C280.076 534.961 279.906 535.896 279.751 536.834C279.692 537.186 279.645 537.537 279.603 537.89L279.569 538.149C279.527 538.466 279.489 538.749 279.496 539.022C279.493 539.115 279.496 539.208 279.503 539.302C279.358 539.428 279.233 539.576 279.133 539.74L278.923 540.185C278.766 540.27 278.605 540.346 278.439 540.412C278.088 540.53 277.749 540.617 277.405 540.675C277.142 540.685 276.876 540.693 276.61 540.693C276.027 540.693 275.444 540.668 274.864 540.644L274.508 540.63C273.349 540.595 272.191 540.523 271.037 540.416C270.712 540.386 270.387 540.34 270.067 540.296L269.907 540.271L269.421 540.202C268.89 540.133 268.351 540.092 267.778 540.078C267.192 540.061 266.678 540.03 266.208 539.981C266.253 539.798 266.278 539.585 266.301 539.374C266.35 538.956 266.364 538.569 266.377 538.187L266.395 537.772C266.445 536.717 266.495 535.657 266.54 534.597L266.585 533.479L266.632 532.368C266.692 530.925 266.75 529.482 266.819 528.039C266.953 525.241 267.112 522.444 267.275 519.645C267.371 517.975 267.468 516.301 267.557 514.628C267.709 511.828 267.875 509.033 268.041 506.23L268.048 506.11C268.155 504.308 268.262 502.506 268.365 500.7C268.558 497.357 268.665 493.953 268.769 490.664L268.869 487.52C269.166 478.643 269.459 469.762 269.725 460.886L269.822 457.727C269.939 454.066 270.039 450.765 270.067 447.456C270.084 445.416 270.077 443.183 270.046 440.432C270.019 438.081 270.02 435.729 270.049 433.378C270.059 432.48 270.119 431.562 270.177 430.678C270.212 430.15 270.239 429.706 270.264 429.26C270.284 428.888 270.322 428.518 270.36 428.145C270.384 427.928 270.405 427.715 270.425 427.497L270.563 426.02L270.702 424.517C270.784 423.614 270.898 422.71 271.012 421.805L271.144 420.756C271.403 418.644 271.665 416.538 271.958 414.433C272.013 414.036 271.882 413.625 271.592 413.28C271.254 412.88 270.746 412.621 270.264 412.604C269.75 412.604 269.332 412.763 269 413.069C268.596 413.439 268.486 413.894 268.434 414.295C268.064 416.988 267.716 419.683 267.389 422.381L267.257 423.441C267.176 424.102 267.106 424.765 267.047 425.429L266.977 426.15L266.878 427.072C266.798 427.818 266.718 428.563 266.667 429.308C266.587 430.472 266.509 431.635 266.426 432.798L266.411 433.022C266.364 433.744 266.35 434.482 266.335 435.2L266.332 435.386C266.326 435.783 266.319 436.177 266.308 436.57C266.271 438.031 266.258 439.492 266.27 440.953V441.213C266.274 441.965 266.277 442.713 266.274 443.463C266.259 447.124 266.098 450.845 265.939 454.445L265.925 454.777L265.825 457.058C265.718 459.536 265.6 462.014 265.486 464.492L265.397 466.383L265.207 470.411C265.055 473.659 264.914 476.91 264.772 480.158L264.755 480.568C264.523 485.822 264.285 491.255 264.003 496.59C263.745 501.262 263.451 505.932 263.119 510.6C263.008 512.219 262.905 513.839 262.812 515.459L262.716 517.081C262.646 518.261 262.567 519.438 262.488 520.615L262.438 521.385C262.384 522.189 262.332 522.994 262.283 523.798C262.101 526.898 261.966 529.945 261.859 532.516C261.804 533.827 261.755 535.139 261.711 536.451C261.687 537.134 261.666 537.817 261.649 538.501C261.631 539.171 261.611 539.864 261.745 540.503C261.29 540.987 260.864 541.497 260.469 542.031C260.248 542.339 260.037 542.65 259.829 542.963L259.729 543.126L259.667 543.229C259.388 543.271 259.095 543.309 258.805 543.35C258.532 543.381 258.311 543.412 258.097 543.447C257.266 543.577 256.433 543.687 255.602 543.789C253.473 543.965 251.337 544.049 249.2 544.04C248.62 544.04 248.04 544.037 247.46 544.033L245.62 544.026L244.858 544.03C244.243 544.033 243.625 544.037 243.008 544.037C241.775 544.037 240.54 544.027 239.305 544.009C237.489 543.985 235.555 543.941 233.655 543.675C232.962 543.537 232.284 543.33 231.632 543.057C231.461 542.978 231.293 542.893 231.128 542.804C231.3 542.339 231.49 541.862 231.68 541.386L231.86 540.944C232.139 540.247 231.77 539.481 231.262 539.084V538.956L231.228 537.762L231.166 535.681C231.125 534.111 231.076 532.433 230.986 530.749C230.879 528.734 230.779 526.717 230.679 524.699L230.482 520.785C230.265 516.449 230.102 512.032 229.957 508.132L229.892 506.389C229.83 504.698 229.765 503.006 229.696 501.315C229.609 499.087 229.544 496.859 229.502 494.63L229.495 494.382L229.43 491.606C229.388 490.046 229.358 488.486 229.327 486.926C229.295 485.222 229.26 483.516 229.217 481.815C229.166 479.996 229.107 478.177 229.039 476.358C228.992 475.012 228.947 473.704 228.905 472.396C228.815 469.517 228.702 466.559 228.56 463.354C228.402 459.884 228.239 456.416 228.07 452.944C228.018 451.864 227.973 450.787 227.928 449.706L227.863 448.112C227.825 447.172 227.759 446.237 227.693 445.299L227.67 444.985C227.632 444.435 227.594 443.887 227.56 443.338C227.523 442.829 227.478 442.321 227.424 441.813L227.348 441.003L227.279 440.191L227.263 439.98C227.222 439.419 227.168 438.859 227.103 438.3L226.823 435.966L226.551 433.664L226.372 432.184L226.358 432.069C226.051 429.481 225.74 426.896 225.458 424.304C225.101 421.042 224.712 417.543 224.243 414.025C224.044 412.482 223.862 410.937 223.697 409.39C223.521 407.782 223.352 406.212 223.142 404.648C222.917 402.943 222.692 401.248 222.502 399.55C222.454 398.75 222.412 397.886 222.437 397.017C222.446 396.718 222.337 396.427 222.134 396.206C221.931 395.986 221.649 395.855 221.35 395.84C220.715 395.84 220.19 396.33 220.173 396.926C220.124 398.67 220.307 400.364 220.515 402.094L220.622 403.009C220.763 404.175 220.904 405.345 221.029 406.512L221.274 408.848L221.371 409.735C221.619 412.1 221.871 414.465 222.141 416.818C222.371 418.861 222.568 420.943 222.758 422.954C222.851 423.941 222.945 424.928 223.044 425.913L223.189 427.373L223.317 428.622C223.545 430.917 223.777 433.212 224.018 435.504L224.18 437.046L224.342 438.589C224.377 439.076 224.418 439.563 224.46 440.049L224.484 440.332C224.564 441.305 224.643 442.272 224.688 443.245C224.712 443.756 224.739 444.263 224.77 444.774L224.788 445.102C224.843 446.075 224.895 447.052 224.922 448.026C225.012 451.232 225.108 454.438 225.219 457.645C225.336 461.134 225.447 464.62 225.536 468.109C225.568 469.307 225.588 470.508 225.612 471.709L225.626 472.586C225.654 474.091 225.682 475.575 225.72 477.058C225.81 480.641 225.865 484.224 225.916 487.806L225.934 488.886C225.972 491.413 226.014 493.936 226.068 496.462C226.202 502.623 226.427 508.815 226.648 514.803L226.693 515.998C226.779 518.403 226.886 520.808 226.993 523.211L227.038 524.278L227.12 526.096L227.176 527.336C227.31 530.156 227.435 532.909 227.49 535.623C227.507 536.375 227.524 537.123 227.545 537.873C227.555 538.314 227.569 538.756 227.59 539.194C227.597 539.367 227.61 539.536 227.625 539.706L227.635 539.822L227.655 540.033C227.67 540.151 227.68 540.268 227.69 540.389C227.71 540.624 227.797 540.83 227.87 541.013L227.928 541.169C227.969 541.238 228.011 541.307 228.06 541.376C228.022 541.446 227.99 541.518 227.963 541.593C227.645 542.387 227.29 543.288 227.59 544.243C227.794 544.875 228.114 545.379 228.64 545.873C229.057 546.27 229.506 546.608 230.006 546.977C230.566 547.392 231.256 547.637 231.863 547.85C232.433 548.054 233.012 548.175 233.499 548.265L233.754 548.31L234.009 548.358C234.002 548.433 234.004 548.508 234.017 548.582C234.192 550.059 234.358 551.509 234.517 552.962C234.614 554.07 234.71 555.178 234.779 556.292C234.814 556.869 234.842 557.449 234.862 558.025C234.876 558.533 234.927 559.072 235.193 559.545L234.876 559.785C234.717 559.91 234.558 560.034 234.404 560.165C233.886 560.6 233.402 561.087 232.936 561.556C232.722 561.773 232.508 561.987 232.291 562.198C231.883 562.59 231.469 562.975 231.049 563.354L230.428 563.928C229.847 564.469 229.329 565.048 228.757 565.695L228.518 565.96C227.763 566.823 227.073 567.607 226.417 568.438C225.827 569.184 225.337 570.012 224.857 570.817L224.739 571.017L224.425 571.537L224.325 571.703C223.465 573.133 222.579 574.613 221.805 576.124C221.288 577.139 220.891 578.219 220.528 579.238L220.415 579.558C220.153 580.304 219.887 581.056 219.68 581.813C219.41 582.796 219.12 583.963 219.02 585.175C218.98 585.691 219.017 586.272 219.137 587C219.227 587.51 219.472 588.021 219.666 588.429C219.99 589.095 220.58 589.558 221.15 590.006C221.92 590.612 222.811 591.045 223.763 591.276C224.366 591.436 224.998 591.539 225.609 591.639L226.106 591.725C226.783 591.835 227.442 591.901 228.125 591.918H228.297C228.791 591.918 229.312 591.849 229.73 591.794L229.923 591.77L230.931 591.635C232.819 591.376 234.679 590.752 236.408 590.11C237.009 589.89 237.606 589.665 238.197 589.42C238.517 589.285 238.831 589.13 239.146 588.974L239.549 588.771C240.279 588.411 241 588.031 241.709 587.631L241.807 587.58L242.455 587.22C244.25 586.238 246.025 585.026 247.875 583.52L248.026 583.397C249.513 582.186 251.049 580.937 252.464 579.593C253.154 578.938 253.88 578.123 254.619 577.17C255.129 576.508 255.647 575.838 256.071 575.092C256.426 574.475 256.761 573.75 257.123 572.818C257.427 572.041 257.742 571.21 257.976 570.364C258.187 570.464 258.408 570.56 258.626 570.661C259.016 570.851 259.339 571.016 259.667 571.183C260.075 571.386 260.482 571.593 260.897 571.786C261.684 572.159 262.498 572.459 263.261 572.735C264.883 573.329 266.501 573.837 268.158 574.347C269.835 574.869 271.568 575.358 273.453 575.852C274.257 576.062 275.32 576.325 276.42 576.512C277.284 576.656 278.167 576.763 279.023 576.866L279.223 576.894C281.015 577.114 282.826 577.156 284.366 577.17H284.742C286.63 577.17 288.37 577.067 290.061 576.86C291.831 576.635 293.888 576.267 295.739 575.237C296.169 575 296.626 574.665 297.129 574.219C297.582 573.823 297.954 573.353 298.317 572.905C298.714 572.407 298.997 571.99 299.2 571.59C299.437 571.141 299.615 570.662 299.728 570.167C299.793 569.877 299.842 569.584 299.89 569.294L299.928 569.063C300.063 568.279 299.959 567.486 299.86 566.716C299.784 566.15 299.594 565.588 299.387 565.011C299.176 564.407 298.976 563.906 298.676 563.448C298.419 563.046 298.121 562.671 297.788 562.329C297.416 561.949 297.036 561.579 296.646 561.218C295.459 560.113 294.154 558.978 292.67 558.143C291.803 557.649 290.861 557.253 289.954 556.869L289.67 556.752L289.001 556.465C288.363 556.193 287.727 555.916 287.082 555.682C286.164 555.34 285.242 555.009 284.314 554.692C282.33 554.012 280.666 553.587 279.082 553.349C278.32 553.238 277.556 553.145 276.79 553.069C276.837 552.991 276.873 552.908 276.897 552.82C276.962 552.604 277.007 552.382 277.032 552.158L277.049 552.023C277.083 551.795 277.108 551.563 277.129 551.333L277.149 551.105C277.208 550.512 277.269 549.921 277.332 549.328C277.467 547.995 277.604 546.684 277.746 545.376H277.767C278.102 545.376 278.467 545.348 278.878 545.296C279.196 545.252 279.507 545.148 279.806 545.051L279.951 545.003C280.681 544.768 281.515 544.455 282.167 543.906C282.864 543.322 283.275 542.56 283.355 541.697C283.393 541.272 283.34 540.875 283.179 540.372C283.386 540.144 283.514 539.927 283.603 539.654C283.668 539.45 283.703 539.246 283.738 539.039L283.765 538.86C283.796 538.677 283.815 538.494 283.831 538.31C283.873 537.887 283.921 537.465 283.976 537.044C284.066 536.351 284.183 535.66 284.304 534.974L284.352 534.691L284.235 535.167C285.545 528.451 286.732 521.711 287.796 514.952C288.336 511.952 288.901 508.957 289.464 505.957L289.616 505.15C290.336 501.353 291.096 497.315 291.783 493.408C292.028 492.007 292.28 490.605 292.533 489.204C292.929 487.024 293.326 484.842 293.684 482.65C294.026 480.593 294.268 478.92 294.444 477.39C294.678 475.364 294.899 473.334 295.117 471.306C295.345 469.182 295.597 467.06 295.849 464.934L295.859 464.827C296.46 459.75 297.034 454.669 297.579 449.586C297.699 448.471 297.83 447.356 297.961 446.241L298.044 445.52C298.289 443.483 298.544 441.316 298.734 439.214C299.079 435.411 299.445 431.607 299.829 427.807C300.042 425.705 300.225 423.596 300.412 421.495C300.542 419.947 300.679 418.4 300.825 416.853C301.195 412.997 301.64 409.5 302.189 406.163C302.299 405.47 302.413 404.773 302.531 404.079L302.845 402.522C303.114 401.176 303.387 399.826 303.684 398.49L304.094 396.62L304.222 396.037L304.926 392.857C305.726 392.606 306.534 392.34 307.346 392.067L307.504 391.953L307.66 391.84L307.701 391.54L307.739 391.218C308.273 390.875 308.771 390.48 309.226 390.038C310.062 389.209 310.535 388.34 311.066 387.118C311.5 386.099 311.763 385.061 311.942 384.267C312.009 383.967 312.063 383.663 312.119 383.359C312.17 383.077 312.222 382.804 312.281 382.528C312.353 382.206 312.433 381.886 312.509 381.568L312.554 381.392L312.733 380.667C313.006 379.546 313.213 378.282 313.368 376.805C313.299 375.794 313.22 374.784 313.13 373.775C312.93 372.098 312.643 370.355 312.412 368.953L312.295 368.235L312.115 367.135L312.05 366.735C311.815 365.288 311.57 363.796 311.277 362.34C310.879 360.345 310.531 358.82 310.147 357.394C309.947 356.648 309.733 355.906 309.507 355.168C309.233 354.278 308.947 353.408 308.647 352.545C308.336 351.658 308.074 350.744 307.817 349.857L307.794 349.77L307.729 349.536C307.569 348.993 307.414 348.456 307.245 347.914C306.758 346.369 306.242 344.832 305.699 343.306C305.444 342.671 305.181 342.039 304.919 341.407L304.785 341.083L304.557 340.531L304.347 340.023C303.745 338.571 303.124 337.065 302.565 335.543C301.996 334.001 301.453 332.392 300.974 330.977C300.825 330.546 300.672 330.116 300.515 329.687C300.153 328.693 299.742 327.563 299.497 326.435C299.335 325.689 299.179 324.941 299.031 324.195L298.931 323.705C298.817 323.167 298.713 322.628 298.62 322.086C298.457 321.084 298.361 320.073 298.33 319.059C298.269 318.87 298.204 318.683 298.134 318.497C298.113 318.43 298.094 318.362 298.078 318.293C298.03 318.1 297.944 317.918 297.826 317.758L297.803 317.661L297.695 316.775C298.296 316.668 298.892 316.532 299.48 316.368L300.85 315.984C302.023 315.664 303.231 315.329 304.415 314.973C306.262 314.403 307.68 313.944 309.057 313.42C309.6 313.209 310.132 312.972 310.652 312.709L310.997 312.543L311.256 312.423L311.636 312.243L311.725 312.202C312.15 312.001 312.571 311.792 312.988 311.574C314.369 310.869 315.849 310.017 317.51 308.971C318.18 308.557 318.873 308.077 319.418 307.384C319.771 306.938 319.936 306.406 320.084 305.937C320.278 305.337 320.44 304.729 320.585 304.084C320.613 303.841 320.587 303.595 320.509 303.363C320.633 303.17 320.68 302.937 320.64 302.711L320.61 302.597C320.787 301.967 320.872 301.314 320.864 300.66C320.879 299.776 320.716 298.858 320.589 298.12L320.506 297.64C320.364 296.777 320.191 295.78 319.95 294.806L319.863 294.44L319.691 293.709C319.548 293.087 319.396 292.467 319.235 291.849C318.994 290.924 318.725 289.929 318.438 288.967C318.292 288.48 318.124 287.999 317.935 287.527C317.834 287.276 317.752 287.072 317.665 286.875L317.451 286.358L317.331 286.064L317.261 285.905C317.158 285.65 317.051 285.391 316.93 285.143C316.796 284.873 316.671 284.6 316.546 284.328C316.596 284.24 316.665 284.163 316.747 284.104C317.033 283.852 317.217 283.593 317.313 283.316C317.406 283.061 317.399 282.865 317.383 282.616C317.372 282.5 317.339 282.387 317.285 282.284C317.344 282.213 317.381 282.125 317.392 282.033C317.437 281.795 317.434 281.757 317.41 281.518C317.403 281.453 317.392 281.388 317.382 281.325C317.465 280.883 317.368 280.383 317.306 280.055C317.185 279.411 317.051 278.768 316.906 278.129L316.806 277.67L316.678 277.115L316.55 276.562L316.423 276.01C316.351 275.72 316.275 275.431 316.195 275.143L316.143 274.957L316.095 274.777L315.925 274.177C315.474 272.517 315.08 271.178 314.697 269.956C314.47 269.245 314.236 268.536 313.993 267.83L313.852 267.406C313.672 266.867 313.506 266.326 313.344 265.78L313.375 265.518L313.41 265.248C313.437 265.042 313.461 264.834 313.486 264.628C313.347 264.268 313.258 263.872 313.168 263.516L313.144 263.409C313.121 263.391 313.099 263.372 313.079 263.351C312.84 263.051 312.802 263.036 312.677 262.667C312.668 262.633 312.656 262.6 312.643 262.567L312.561 262.319C312.485 262.094 312.405 261.869 312.329 261.645C312.195 261.238 312.059 260.827 311.936 260.413C311.766 259.858 311.594 259.299 311.415 258.743C311.049 257.939 310.669 257.141 310.327 256.323C309.952 255.415 309.607 254.487 309.24 253.569C308.76 252.495 308.305 251.41 307.877 250.314C307.667 250.028 307.459 249.737 307.252 249.451C306.458 248.347 305.722 247.197 304.992 246.055C304.671 245.555 304.405 245.033 304.125 244.512C303.807 243.909 303.459 243.318 303.125 242.725C302.983 242.473 302.842 242.217 302.697 241.962L302.659 242.345C302.55 242.176 302.429 242.016 302.296 241.865L301.971 241.479C301.681 241.136 301.382 240.801 301.074 240.474C300.755 240.141 300.421 239.822 300.074 239.518C299.681 239.164 299.273 238.828 298.851 238.51C298.081 237.952 297.236 237.45 296.439 236.996C295.941 236.708 295.448 236.412 294.959 236.109L293.923 235.48C293.128 235.013 292.314 234.58 291.483 234.182C290.925 233.917 290.36 233.667 289.788 233.433C289.393 233.271 289.001 233.105 288.611 232.933C288.189 232.744 287.755 232.58 287.313 232.443C286.74 232.256 286.171 232.153 285.739 232.077C285.537 232.043 285.335 232.012 285.132 231.984L284.956 231.956L284.463 231.886L284.197 231.846C283.817 231.791 283.437 231.735 283.061 231.691L282.941 231.677C282.08 231.582 281.221 231.465 280.366 231.325L280.252 231.315L280.152 231.297L278.75 231.052L277.294 230.811L277.08 230.762C276.293 230.607 275.565 230.465 274.847 230.302C274.029 230.12 273.183 229.902 272.179 229.63C270.385 229.147 268.633 228.521 266.939 227.759L266.612 227.61L266.294 227.47C266.084 227.366 265.87 227.255 265.656 227.145C265.593 227.083 265.531 227.021 265.466 226.962C265.425 226.352 265.214 225.72 264.858 225.136C264.734 224.929 264.59 224.734 264.427 224.556C264.257 224.376 264.059 224.225 263.84 224.108C263.548 223.945 263.224 223.847 262.891 223.821C262.846 223.818 262.801 223.815 262.756 223.815C262.549 223.815 262.329 223.859 262.135 223.893C262.027 223.916 261.92 223.944 261.815 223.976C261.635 224.032 261.463 224.09 261.289 224.152L261.062 223.969C260.895 223.841 260.729 223.711 260.565 223.579C260.503 223.53 260.442 223.48 260.382 223.428L260.299 223.358L260.154 223.224L260.068 223.144C259.963 223.042 259.86 222.937 259.761 222.83L259.461 222.52L259.361 222.417L259.26 222.313C259.185 222.22 259.115 222.12 259.039 222.016L258.922 221.851L258.784 221.657C258.348 221.027 257.978 220.354 257.679 219.649C257.469 219.041 257.407 218.385 257.344 217.753L257.306 217.353L257.304 217.046L257.286 216.604C257.283 216.521 257.285 216.439 257.29 216.356L257.3 216.124C257.306 215.941 257.317 215.756 257.331 215.569C257.335 215.503 257.326 215.436 257.304 215.373C257.282 215.31 257.248 215.252 257.203 215.203C257.155 215.148 257.096 215.104 257.03 215.072C256.964 215.041 256.893 215.023 256.82 215.02C256.68 215.017 256.545 215.069 256.442 215.164C256.34 215.26 256.279 215.391 256.272 215.531C256.23 216.066 256.219 216.603 256.237 217.139C256.25 217.609 256.288 218.068 256.33 218.534C256.375 219.037 256.423 219.49 256.55 219.942C256.689 220.412 256.913 220.871 257.107 221.278C257.282 221.644 257.493 222.006 257.787 222.451C258.079 222.917 258.367 223.328 258.642 223.672C258.995 224.108 259.415 224.532 259.968 225.012C259.837 225.213 259.777 225.453 259.798 225.692L259.699 225.747L259.585 225.812L259.422 225.917C259.136 226.089 258.855 226.27 258.58 226.458L258.263 226.683L258.111 226.79L257.748 227.041C257.258 227.366 256.717 227.659 256.24 227.921L255.878 228.119C255.356 228.401 254.811 228.671 254.204 228.939C253.709 229.143 253.195 229.3 252.671 229.409C252.358 229.44 252.012 229.454 251.563 229.454L251.273 229.451H250.983C250.79 229.447 250.601 229.447 250.411 229.447C249.554 229.443 248.698 229.416 247.843 229.367C247.294 229.331 246.746 229.279 246.2 229.212L246.097 229.202C245.833 229.171 245.568 229.144 245.303 229.122C244.557 229.046 243.801 228.992 243.046 228.936L242.78 228.919C242.167 228.867 241.555 228.807 240.944 228.739L240.65 228.709L240.415 228.674C239.145 228.484 237.831 228.284 236.54 228.059C235.89 227.945 235.253 227.769 234.738 227.629C234.325 227.512 233.914 227.387 233.506 227.255C233.896 226.911 234.203 226.555 234.451 226.182C234.779 225.689 235.055 225.163 235.273 224.612C235.508 224.011 235.673 223.355 235.822 222.779L235.867 222.609C236.039 221.957 236.187 221.329 236.312 220.715L236.367 220.57L236.426 220.425C236.477 220.284 236.508 220.132 236.536 219.984L236.56 219.879C236.605 219.673 236.64 219.466 236.67 219.262L236.695 219.127C236.754 218.785 236.802 218.447 236.85 218.11L236.888 217.85L236.909 217.706C236.944 217.453 236.979 217.201 237.002 216.946C237.067 216.273 237.064 215.583 237.058 214.989L237.054 214.726L237.047 214.157C237.04 213.83 236.805 213.574 236.502 213.567C236.464 213.338 236.405 213.112 236.325 212.894L236.308 212.884C236.301 212.884 236.291 212.897 236.291 212.901V212.9Z" fill="black"/>
<path fill-rule="evenodd" clip-rule="evenodd" d="M256.027 251.618C255.861 251.652 255.709 251.733 255.589 251.853C255.561 251.853 255.523 251.87 255.485 251.884C255.375 251.936 255.29 252.028 255.247 252.141C255.204 252.254 255.206 252.38 255.254 252.491L255.306 252.623C255.31 252.657 255.316 252.703 255.323 252.743L255.765 254.946L256.206 257.148L256.386 258.042C256.606 259.181 256.818 260.206 257.108 261.203C257.456 262.387 258.001 263.515 258.578 264.658C259.14 265.773 259.585 266.905 259.993 267.968C260.286 268.778 260.57 269.601 260.842 270.435C261.103 270.357 261.36 270.285 261.602 270.211C261.992 270.094 262.381 269.973 262.775 269.866C263.055 269.79 263.348 269.708 263.643 269.647C263.191 268.641 262.723 267.643 262.239 266.653C261.746 265.652 261.218 264.589 260.614 263.573C260.494 263.371 260.369 263.166 260.242 262.967C260.04 262.65 259.848 262.328 259.665 262C259.44 261.574 259.239 261.134 259.065 260.685C258.695 259.591 258.439 258.41 258.212 257.369L258.092 256.823C257.812 255.563 257.556 254.3 257.304 253.036L257.159 252.319C257.076 251.905 256.676 251.591 256.23 251.591C256.161 251.59 256.093 251.6 256.027 251.618V251.618ZM267.386 283.827C267.617 283.76 267.848 283.694 268.08 283.629L268.048 283.402C267.821 283.537 267.605 283.682 267.386 283.827V283.827ZM303.85 266.135C303.888 266.032 303.933 265.932 303.991 265.835C303.978 265.805 303.967 265.775 303.957 265.745C303.839 265.41 303.722 265.075 303.602 264.741C303.691 265.203 303.774 265.669 303.85 266.135ZM284.143 249.24C284.195 249.392 284.243 249.548 284.285 249.702C284.348 249.693 284.411 249.685 284.475 249.679C284.55 249.671 284.626 249.668 284.702 249.669C284.671 249.518 284.618 249.373 284.547 249.237C284.392 248.931 284.144 248.681 283.84 248.523C283.95 248.76 284.06 248.998 284.143 249.24V249.24ZM279.701 258.932C279.768 259.284 279.871 259.628 280.001 259.964C279.978 259.841 279.957 259.717 279.936 259.594C279.839 259.049 279.777 258.501 279.705 257.952L279.565 256.874C279.502 257.459 279.548 258.117 279.701 258.932V258.932ZM286.621 266.352C286.744 267.296 286.861 268.24 286.971 269.186C287.017 269.224 287.061 269.262 287.106 269.298C286.939 268.163 286.773 267.028 286.604 265.893C286.607 266.046 286.614 266.2 286.621 266.353V266.352ZM263.08 389.557C261.721 389.615 260.382 389.902 259.04 390.075C258.36 390.164 257.676 390.247 256.996 390.327C256.98 390.286 256.961 390.245 256.941 390.206C256.823 389.99 256.66 389.802 256.463 389.656C255.776 389.889 255.08 390.096 254.37 390.254C253.442 390.46 252.508 390.586 251.568 390.661L251.322 390.741C250.928 390.765 250.532 390.792 250.139 390.824C247.936 391.004 245.741 391.231 243.542 391.484C241.854 391.628 240.167 391.769 238.479 391.894C236.62 392.03 234.757 392.106 232.894 392.121C231.228 392.135 229.546 392.142 227.88 392.08C227.034 392.045 226.185 391.997 225.34 391.956C224.946 391.931 224.551 391.923 224.156 391.932C223.616 391.945 223.075 391.987 222.588 392.246C222.256 392.435 221.974 392.7 221.764 393.019C221.546 393.361 221.491 393.674 221.449 394.071C221.384 394.696 221.784 395.483 222.343 395.776C222.678 395.956 223.01 396.115 223.372 396.236C223.682 396.339 224.035 396.374 224.352 396.436C225.018 396.567 225.692 396.664 226.368 396.743C226.709 397.095 227.176 397.326 227.69 397.323C232.653 397.281 237.612 397.264 242.575 397.123C243.576 397.095 244.581 397.105 245.585 397.053C246.81 396.988 248.037 396.919 249.258 396.815C251.702 396.615 254.118 396.218 256.538 395.829C258.898 395.449 261.279 395.207 263.585 394.562C264.227 394.382 264.769 394.033 265.135 393.464C265.604 392.733 265.687 391.694 265.235 390.927C265.228 390.918 265.222 390.908 265.217 390.897C264.797 390.189 264.023 389.557 263.156 389.555L263.081 389.557H263.08ZM268.284 322.23C267.272 322.23 266.24 323.085 266.272 324.152C266.277 324.351 266.282 324.55 266.289 324.75L266.609 324.525C267.035 324.228 267.459 323.935 267.891 323.647C268.349 323.261 268.816 322.881 269.284 322.505C268.999 322.338 268.678 322.243 268.349 322.229H268.284V322.23Z" fill="black"/>
<path fill-rule="evenodd" clip-rule="evenodd" d="M268.467 381.248C268.449 381.344 268.432 381.445 268.415 381.542C268.432 381.445 268.449 381.344 268.467 381.248ZM269.237 338.788C268.834 338.953 268.425 339.102 268.013 339.24C268.027 339.75 268.037 340.26 268.043 340.77C268.067 343.342 268.053 345.92 267.983 348.495C267.939 350.213 267.873 351.932 267.777 353.651C267.683 355.241 267.542 356.829 267.407 358.417C267.272 360.067 267.117 361.714 266.977 363.363C266.831 365.033 266.72 366.711 266.575 368.384C266.292 371.701 266.041 375.053 265.291 378.304C264.933 379.871 264.532 381.442 264.042 382.97C263.776 383.803 263.466 384.592 263.024 385.349C262.897 385.567 262.761 385.78 262.617 385.987C262.461 386.638 262.266 387.279 262.034 387.906C262.006 387.947 261.982 387.989 261.951 388.03C261.92 388.061 261.885 388.085 261.851 388.11C261.043 388.762 260.908 390.039 261.375 390.919C261.971 392.037 263.407 392.476 264.529 391.879C265.429 391.395 266.117 390.698 266.489 389.739C266.644 389.335 266.772 388.914 266.889 388.499C267.107 387.716 267.29 386.926 267.483 386.139C267.911 384.42 268.226 382.677 268.522 380.931C268.732 379.705 268.929 378.48 269.133 377.254C269.547 374.898 269.923 372.537 270.196 370.155C270.455 367.891 270.714 365.627 270.962 363.363C271.228 360.913 271.315 358.444 271.397 355.98C271.473 353.682 271.525 351.38 271.559 349.078C271.601 346.44 271.518 343.811 271.38 341.18C271.321 340.107 271.245 339.034 271.154 337.963C270.523 338.253 269.884 338.524 269.236 338.789L269.237 338.788ZM240.164 274.133C239.804 274.233 239.49 274.475 239.304 274.795C239.087 275.165 239.101 275.503 239.155 275.907C239.225 276.38 239.291 276.855 239.355 277.33C239.795 280.658 240.222 283.99 240.64 287.32C240.84 288.922 241.044 290.52 241.254 292.121C241.471 293.819 241.734 295.525 241.9 297.23C242.1 299.262 242.282 301.292 242.403 303.332C242.459 304.236 242.473 305.148 242.493 306.052C242.501 306.504 242.501 306.952 242.503 307.404C242.503 307.632 242.503 307.86 242.507 308.088C242.507 308.429 242.479 308.827 242.6 309.148C242.752 309.562 242.96 309.893 243.349 310.124C243.729 310.344 244.189 310.404 244.609 310.29C245.186 310.13 245.594 309.68 245.741 309.145L245.751 309.147C245.907 308.702 245.827 308.147 245.811 307.681C245.793 307.225 245.761 306.766 245.738 306.311C245.689 305.485 245.634 304.661 245.578 303.839C245.468 302.289 245.32 300.739 245.141 299.193C244.726 295.621 244.188 292.059 243.705 288.494C243.645 288.041 243.585 287.589 243.523 287.138C243.006 283.136 242.492 279.135 241.934 275.141C241.886 274.791 241.561 274.446 241.272 274.281C241.107 274.183 240.923 274.12 240.733 274.095C240.543 274.069 240.349 274.082 240.164 274.133" fill="black"/>
<path fill-rule="evenodd" clip-rule="evenodd" d="M273.438 264.846C271.778 265.015 270.132 265.367 268.502 265.729C265.079 266.492 261.675 267.336 258.292 268.259C256.463 268.758 254.639 269.278 252.822 269.819L250.282 270.575C249.444 270.824 248.619 271.131 247.791 271.407C245.802 272.071 243.817 272.746 241.836 273.43C241.164 273.664 240.726 274.32 240.922 275.041C241.105 275.697 241.858 276.191 242.533 275.956C245.033 275.097 247.538 274.251 250.047 273.419C251.745 272.854 253.471 272.376 255.19 271.873C258.221 270.983 261.288 270.19 264.364 269.473C264.48 269.441 264.597 269.414 264.715 269.392L265.223 269.274C267.691 268.714 270.159 268.19 272.658 267.797C273.693 267.672 274.749 267.587 275.788 267.665C276.02 267.707 276.244 267.759 276.465 267.831C276.689 267.952 276.903 268.083 277.11 268.225C277.318 268.411 277.504 268.612 277.683 268.829C278.107 269.461 278.428 270.144 278.753 270.83C278.915 271.231 279.081 271.632 279.219 272.042C279.409 272.604 279.585 273.167 279.753 273.737C280.047 274.724 280.22 275.753 280.368 276.774C280.555 278.503 280.693 280.225 280.745 281.968C280.796 283.687 280.779 285.412 280.765 287.132C280.751 288.805 280.741 290.48 280.735 292.153C280.727 293.92 280.665 295.694 280.807 297.455C280.81 297.804 280.896 298.128 281.073 298.428C281.324 298.859 281.745 299.184 282.228 299.318C282.476 299.385 282.736 299.402 282.991 299.369C283.247 299.335 283.493 299.251 283.716 299.122C284.109 298.894 284.531 298.435 284.603 297.965C284.703 297.378 284.761 296.784 284.776 296.188C284.786 295.767 284.783 295.343 284.783 294.921C284.783 294 284.779 293.078 284.776 292.153C284.765 290.431 284.759 288.709 284.717 286.987C284.672 285.209 284.624 283.428 284.513 281.654C284.398 279.764 284.166 277.883 283.82 276.021C283.662 275.139 283.456 274.266 283.202 273.406C282.932 272.528 282.615 271.676 282.294 270.816C281.949 269.892 281.504 268.987 281.028 268.121C280.807 267.717 280.53 267.351 280.248 266.993C280.038 266.713 279.801 266.454 279.54 266.22C279.181 265.912 278.796 265.636 278.39 265.395C277.659 264.96 276.844 264.797 276.012 264.715C275.819 264.697 275.625 264.688 275.432 264.687C274.767 264.687 274.093 264.777 273.438 264.846ZM283.59 316.974C283.272 317.157 283.037 317.464 282.94 317.816C282.85 318.133 282.892 318.416 282.996 318.703C283.14 320.163 283.144 321.64 283.037 323.1C282.923 324.709 282.857 326.317 282.664 327.919C282.512 328.943 282.364 329.969 282.095 330.973C281.842 331.946 281.537 332.905 281.18 333.845C280.98 334.258 280.76 334.649 280.497 335.025C280.355 335.19 280.2 335.345 280.035 335.487C279.824 335.632 279.602 335.76 279.372 335.871C278.86 336.057 278.34 336.191 277.819 336.347C277.211 336.527 276.604 336.717 275.999 336.903C274.802 337.275 273.639 337.741 272.438 338.096C271.107 338.498 269.769 338.875 268.424 339.228C267.507 339.467 266.584 339.684 265.657 339.878C265.338 339.946 265.019 340.011 264.7 340.075C263.474 340.319 262.25 340.571 261.04 340.902C259.83 341.234 258.622 341.555 257.403 341.855C256.264 342.135 255.133 342.455 254.017 342.825C253.393 343.032 252.772 343.239 252.15 343.453C251.688 343.611 251.218 343.75 250.738 343.843C250.711 343.057 250.715 342.263 250.697 341.473C250.67 340.49 250.63 339.507 250.577 338.525C250.456 336.26 250.317 334 250.227 331.732C250.207 331.197 249.797 330.752 249.244 330.752C248.727 330.752 248.244 331.197 248.264 331.732C248.378 334.611 248.582 337.482 248.678 340.357C248.716 341.565 248.727 342.777 248.696 343.984C248.686 344.295 248.699 344.585 248.754 344.893C248.781 345.061 248.882 345.23 248.978 345.369C249.099 345.531 249.289 345.755 249.479 345.845C249.669 345.931 249.855 346.01 250.059 346.062C250.283 346.117 250.539 346.121 250.767 346.121C251.039 346.121 251.332 346.07 251.602 346.017C252.205 345.897 252.789 345.717 253.372 345.527C254.635 345.117 255.898 344.723 257.186 344.399C258.453 344.082 259.726 343.794 260.99 343.46C262.323 343.109 263.669 342.806 265.024 342.552C266.327 342.317 267.623 342.045 268.911 341.737C270.249 341.407 271.582 341.059 272.911 340.692C274.125 340.361 275.309 339.942 276.511 339.581C277.111 339.401 277.718 339.246 278.319 339.07C278.885 338.907 279.469 338.797 280.024 338.597C280.384 338.47 280.737 338.321 281.08 338.152C281.511 337.938 281.912 337.603 282.253 337.278C282.626 336.923 282.95 336.474 283.216 336.032C283.386 335.746 283.535 335.452 283.676 335.152C283.993 334.479 284.21 333.758 284.446 333.054C284.642 332.46 284.815 331.857 284.963 331.252C285.283 329.942 285.515 328.613 285.657 327.272C285.798 325.92 285.881 324.564 286.012 323.207C286.072 322.596 286.119 321.989 286.13 321.371C286.136 320.776 286.122 320.181 286.088 319.587C286.064 319.123 285.997 318.661 285.888 318.209C285.788 317.816 285.563 317.492 285.301 317.195C285.056 316.919 284.687 316.784 284.321 316.784C284.062 316.784 283.807 316.849 283.589 316.974" fill="black"/>
<path fill-rule="evenodd" clip-rule="evenodd" d="M287.703 293.044V293.047C287.703 293.046 287.703 293.045 287.703 293.044V293.044ZM287.768 292.77L287.761 292.827L287.768 292.77ZM278.208 261.535C277.556 261.563 276.903 261.632 276.258 261.704C275.458 261.794 274.663 261.904 273.869 262.046C271.119 262.536 268.444 263.361 265.762 264.137C263.08 264.91 260.405 265.697 257.703 266.402C256.267 266.775 254.828 267.137 253.403 267.541C252.668 267.751 251.943 267.979 251.218 268.211C250.617 268.4 250.03 268.655 249.451 268.901C248.771 269.187 248.077 269.449 247.411 269.766C246.651 270.126 245.891 270.485 245.133 270.847C244.629 271.085 244.152 271.382 243.666 271.655C242.803 272.145 241.943 272.638 241.095 273.152C240.892 273.274 240.745 273.471 240.685 273.7C240.625 273.929 240.656 274.172 240.773 274.378C241.019 274.792 241.581 274.95 241.999 274.698C243.224 273.954 244.473 273.256 245.719 272.552C246.067 272.355 246.444 272.2 246.806 272.031C247.309 271.791 247.813 271.556 248.319 271.316C249.572 270.787 250.823 270.233 252.122 269.829C253.554 269.389 254.999 268.989 256.454 268.631C259.128 267.951 261.793 267.251 264.451 266.501C267.901 265.53 271.354 264.523 274.897 263.942C275.626 263.849 276.353 263.772 277.089 263.734C277.891 263.688 278.686 263.659 279.485 263.735C280.152 263.855 280.767 264.081 281.39 264.332C281.84 264.538 282.254 264.772 282.654 265.057C282.967 265.326 283.24 265.615 283.498 265.934C283.881 266.449 284.211 267.003 284.481 267.586C284.794 268.379 285.039 269.194 285.287 270.012C285.555 270.909 285.821 271.823 286.004 272.745C286.212 273.777 286.381 274.809 286.553 275.848C286.71 276.807 286.882 277.761 287.032 278.718C287.156 279.833 287.251 280.943 287.306 282.064C287.364 283.258 287.42 284.449 287.486 285.644C287.551 286.834 287.572 288.031 287.581 289.226C287.589 289.795 287.592 290.365 287.589 290.934L287.578 291.808C287.578 291.921 287.574 292.035 287.578 292.145C287.588 292.435 287.638 292.712 287.691 292.989C287.411 293.469 287.51 294.108 287.9 294.499C288.134 294.734 288.458 294.869 288.79 294.869C289.159 294.869 289.404 294.714 289.683 294.499C289.787 294.42 289.89 294.338 289.991 294.254L289.986 294.259C290.078 294.185 290.171 294.11 290.26 294.03C290.453 293.858 290.598 293.626 290.733 293.405C290.981 293.012 291.023 292.532 291.047 292.08C291.061 291.776 291.034 291.466 291.027 291.162C291.012 290.492 290.998 289.82 290.981 289.15C290.952 287.743 290.889 286.336 290.791 284.932C290.743 284.269 290.685 283.607 290.647 282.944C290.612 282.25 290.588 281.554 290.519 280.864C290.371 279.351 290.198 277.832 289.891 276.342C289.611 274.975 289.387 273.598 289.069 272.242C288.765 270.98 288.372 269.741 287.893 268.535C287.631 267.842 287.336 267.162 287.009 266.498C286.661 265.816 286.239 265.175 285.749 264.586C285.249 263.976 284.689 263.426 284.023 262.995C283.43 262.609 282.788 262.304 282.115 262.087C281.555 261.905 280.993 261.738 280.41 261.646C279.867 261.562 279.319 261.522 278.77 261.525C278.583 261.525 278.396 261.528 278.208 261.535V261.535ZM287.967 318.676C288.04 320.623 288.102 322.573 288.123 324.519C288.133 325.459 288.147 326.393 288.147 327.333C288.147 328.303 288.195 329.293 288.098 330.263C288.068 330.429 288.029 330.593 287.978 330.756C287.923 330.858 287.864 330.958 287.802 331.056C287.632 331.24 287.453 331.405 287.263 331.567C286.783 331.912 286.266 332.207 285.744 332.493C285.159 332.817 284.563 333.12 283.957 333.403C283.291 333.679 282.614 333.928 281.938 334.173C281.068 334.488 280.222 334.856 279.377 335.216L279.667 335.091C279.073 335.336 278.48 335.592 277.875 335.816C277.189 336.074 276.499 336.324 275.808 336.572C274.524 337.038 273.248 337.521 271.96 337.977C270.975 338.327 269.968 338.609 268.962 338.9C268.202 339.196 267.422 339.444 266.632 339.654C266.362 339.725 266.09 339.79 265.814 339.847C265.267 340.014 264.719 340.183 264.174 340.351C262.747 340.779 261.304 341.153 259.849 341.47C259.117 341.631 258.392 341.825 257.66 341.998C256.842 342.194 256.018 342.329 255.186 342.471C254.945 342.537 254.726 342.665 254.551 342.843C254.417 342.976 254.31 343.135 254.238 343.31C254.165 343.484 254.128 343.672 254.128 343.861C254.128 344.05 254.165 344.238 254.238 344.412C254.31 344.587 254.417 344.746 254.551 344.879C254.796 345.121 255.211 345.339 255.569 345.301C256.998 345.141 258.386 344.745 259.769 344.354C261.033 343.999 262.309 343.713 263.563 343.326C264.836 342.936 266.093 342.494 267.359 342.091C268.674 341.673 269.999 341.297 271.311 340.883C273.057 340.331 274.752 339.609 276.467 338.971C277.423 338.615 278.39 338.274 279.325 337.87C280.085 337.542 280.843 337.213 281.603 336.882C282.88 336.358 284.192 335.909 285.438 335.319C286.007 335.049 286.566 334.746 287.115 334.432C287.75 334.066 288.365 333.697 288.934 333.235C289.241 332.985 289.51 332.71 289.742 332.389C290.262 331.678 290.418 330.859 290.473 329.997C290.515 329.337 290.477 328.668 290.466 328.009C290.446 326.659 290.418 325.31 290.386 323.96C290.347 322.198 290.294 320.437 290.228 318.676C290.204 318.062 289.731 317.548 289.096 317.548C288.499 317.548 287.944 318.062 287.967 318.676" fill="black"/>
<path fill-rule="evenodd" clip-rule="evenodd" d="M289.12 317.245C288.773 317.449 288.521 317.781 288.42 318.17C288.318 318.559 288.375 318.973 288.578 319.32L288.602 319.557C288.633 319.796 288.658 320.037 288.678 320.279C288.72 320.727 288.737 321.179 288.761 321.632C288.809 322.57 288.789 323.516 288.781 324.458C288.766 326.302 288.721 328.14 288.518 329.972C288.428 330.486 288.33 330.99 288.16 331.487C288.051 331.712 287.926 331.929 287.787 332.137C287.623 332.318 287.446 332.487 287.259 332.643C286.825 332.96 286.367 333.237 285.903 333.511C285.351 333.835 284.806 334.167 284.253 334.488C283.169 335.115 282.129 335.837 280.987 336.352C279.855 336.812 278.691 337.175 277.523 337.536C276.363 337.894 275.193 338.222 274.023 338.543C271.342 339.278 268.66 339.993 265.965 340.67C263.956 341.17 261.947 341.657 259.939 342.14C259.034 342.357 258.127 342.557 257.219 342.768L255.275 343.223L255.107 343.263C255.033 343.157 254.929 343.077 254.807 343.033C254.686 342.99 254.554 342.985 254.43 343.02C254.044 343.141 253.65 343.254 253.263 343.375C252.918 343.485 252.587 343.641 252.255 343.786C251.828 343.969 251.842 344.711 252.255 344.898C252.428 344.978 252.594 345.046 252.773 345.104C252.959 345.164 253.191 345.129 253.381 345.114C253.809 345.084 254.23 344.966 254.647 344.874C254.951 344.804 255.266 344.756 255.572 344.697L257.736 344.283C259.068 344.031 260.404 343.797 261.74 343.551C262.997 343.321 264.246 343.037 265.495 342.771C266.707 342.512 267.918 342.243 269.126 341.964C271.728 341.356 274.335 340.752 276.933 340.127C278.221 339.817 279.515 339.52 280.792 339.167C281.337 339.02 281.882 338.872 282.41 338.667C283.1 338.397 283.777 338.096 284.44 337.764C285.52 337.224 286.587 336.656 287.653 336.089C288.143 335.827 288.63 335.551 289.089 335.237C289.459 334.988 289.831 334.702 290.138 334.374C290.324 334.177 290.504 333.942 290.659 333.724C290.936 333.349 291.119 332.948 291.302 332.517C291.642 331.706 291.774 330.844 291.902 329.977C292.009 329.259 292.095 328.53 292.147 327.806C292.24 326.516 292.296 325.224 292.32 323.93C292.34 322.95 292.33 321.976 292.274 320.996C292.238 320.391 292.179 319.788 292.095 319.188C292.038 318.73 291.889 318.289 291.657 317.89C291.488 317.609 291.25 317.375 290.966 317.21C290.681 317.045 290.36 316.956 290.032 316.949C289.715 316.949 289.398 317.041 289.12 317.245V317.245ZM265.172 278.315C264.368 278.388 263.591 278.636 262.829 278.888C262.041 279.15 261.244 279.375 260.453 279.623C258.818 280.135 257.213 280.731 255.601 281.305C253.968 281.885 252.333 282.464 250.7 283.045C250.529 283.096 250.382 283.209 250.289 283.361C250.196 283.523 250.17 283.715 250.217 283.896C250.314 284.238 250.714 284.507 251.069 284.379C253.454 283.53 255.839 282.675 258.224 281.829C259.405 281.405 260.597 281.014 261.8 280.655C262.914 280.325 263.997 279.859 265.147 279.667C265.407 279.637 265.668 279.623 265.932 279.643C265.966 279.651 266 279.66 266.032 279.671C265.958 279.807 265.938 279.967 265.976 280.117C266.018 280.264 266.114 280.389 266.246 280.466C266.381 280.542 266.54 280.563 266.69 280.523C266.84 280.484 266.969 280.388 267.049 280.255C267.149 280.09 267.274 279.945 267.357 279.765C267.484 279.475 267.515 279.123 267.27 278.878C267.163 278.775 267.022 278.723 266.894 278.65C266.721 278.557 266.549 278.46 266.363 278.395C266.136 278.321 265.899 278.285 265.661 278.29C265.498 278.29 265.334 278.301 265.171 278.315H265.172ZM266.966 282.804C266.614 282.824 266.261 282.907 265.919 282.987C265.706 283.039 265.499 283.09 265.289 283.146L263.607 283.601C262.714 283.843 261.827 284.129 260.94 284.391C258.996 284.971 257.07 285.614 255.144 286.248C254.644 286.411 254.323 286.911 254.468 287.439C254.603 287.929 255.158 288.281 255.658 288.116C257.505 287.508 259.352 286.891 261.215 286.331C262.147 286.048 263.08 285.766 264.015 285.486C264.429 285.362 264.849 285.244 265.267 285.123C265.514 285.051 265.762 284.973 266.011 284.898C266.246 285.215 266.666 285.276 267.018 285.103C267.197 285.013 267.376 284.93 267.548 284.837C267.784 284.713 267.987 284.527 268.191 284.357C268.421 284.167 268.488 283.795 268.415 283.519C268.335 283.235 268.101 282.983 267.811 282.914C267.567 282.848 267.316 282.81 267.064 282.801C267.031 282.801 266.999 282.802 266.966 282.804V282.804ZM265.795 287.558C264.317 287.828 262.847 288.128 261.373 288.422C260.759 288.542 260.148 288.694 259.533 288.828C258.765 288.999 258.01 289.22 257.235 289.358V289.356C257.065 289.066 256.645 288.932 256.351 289.125C256.166 289.249 255.996 289.391 255.824 289.532C255.648 289.674 255.599 289.957 255.654 290.16C255.714 290.364 255.893 290.571 256.106 290.613C256.331 290.658 256.548 290.696 256.773 290.716C256.997 290.737 257.242 290.689 257.459 290.658C257.774 290.609 258.091 290.554 258.402 290.488L259.717 290.22C260.383 290.084 261.053 289.96 261.719 289.833C262.333 289.713 262.954 289.612 263.569 289.498C264.445 289.336 265.322 289.173 266.199 289.021C266.381 288.991 266.561 288.828 266.651 288.673C266.701 288.587 266.734 288.491 266.748 288.393C266.761 288.294 266.755 288.193 266.73 288.096C266.705 288 266.66 287.909 266.6 287.83C266.54 287.75 266.464 287.683 266.378 287.633C266.266 287.567 266.139 287.534 266.01 287.536C265.94 287.536 265.868 287.546 265.795 287.558" fill="black"/>
<path fill-rule="evenodd" clip-rule="evenodd" d="M275.096 327.646C274.713 327.681 274.326 327.701 273.943 327.764C273.523 327.829 273.112 327.954 272.704 328.081C272.218 328.233 271.731 328.396 271.248 328.551L269.353 329.161C267.583 329.731 265.812 330.304 264.045 330.881C263.537 331.046 263.213 331.557 263.358 332.088C263.496 332.586 264.058 332.941 264.566 332.776C266.306 332.206 268.048 331.64 269.788 331.074L270.64 330.797C270.612 330.932 270.627 331.071 270.683 331.197C270.739 331.322 270.833 331.427 270.951 331.497C271.086 331.577 271.307 331.63 271.459 331.564C272.024 331.326 272.587 331.081 273.149 330.832C273.646 330.611 274.133 330.366 274.627 330.138C274.895 330.022 275.149 329.875 275.383 329.7C275.518 329.596 275.603 329.5 275.707 329.358C275.787 329.255 275.835 329.148 275.89 329.027C276.032 328.72 276.066 328.402 275.89 328.102C275.747 327.855 275.447 327.645 275.15 327.645L275.096 327.646V327.646ZM274.075 331.455C272.67 331.835 271.261 332.2 269.854 332.579C269.253 332.739 268.649 332.887 268.045 333.039C267.617 333.146 267.189 333.253 266.758 333.359C266.472 333.432 266.187 333.516 265.901 333.594C265.795 333.543 265.679 333.518 265.562 333.52C265.444 333.522 265.329 333.551 265.225 333.605C265.049 333.691 264.877 333.785 264.701 333.877C264.428 334.022 264.303 334.371 264.383 334.661C264.463 334.947 264.745 335.19 265.053 335.171C265.726 335.134 266.363 334.937 267.02 334.795C267.466 334.703 267.91 334.605 268.355 334.509L270.265 334.109C271.693 333.805 273.129 333.526 274.555 333.202C275.038 333.094 275.313 332.545 275.19 332.086C275.124 331.856 274.97 331.661 274.761 331.543C274.553 331.425 274.306 331.393 274.075 331.455V331.455ZM282.905 277.133L282.942 277.407C282.928 277.317 282.917 277.224 282.905 277.133ZM279.957 265.845C279.491 265.893 279.021 265.945 278.552 266C277.503 266.12 276.45 266.245 275.401 266.39C273.379 266.67 271.366 267.018 269.361 267.388C268.357 267.572 267.356 267.772 266.358 267.988C265.399 268.188 264.449 268.444 263.5 268.685C262.475 268.944 261.447 269.185 260.425 269.448C259.49 269.686 258.555 269.924 257.619 270.156C256.566 270.415 255.503 270.656 254.458 270.939C253.398 271.229 252.335 271.512 251.275 271.805C250.078 272.137 248.876 272.465 247.696 272.851C246.188 273.345 244.683 273.839 243.171 274.321C243.03 274.363 242.91 274.457 242.837 274.586C242.764 274.714 242.744 274.865 242.781 275.008C242.861 275.295 243.178 275.492 243.468 275.398C244.608 275.036 245.746 274.666 246.885 274.294L248.58 273.744C249.146 273.562 249.733 273.417 250.305 273.254C252.335 272.678 254.378 272.15 256.428 271.661C257.364 271.436 258.302 271.232 259.234 271.001C260.31 270.733 261.388 270.473 262.468 270.221C264.384 269.779 266.296 269.316 268.233 268.965C270.25 268.607 272.272 268.284 274.3 267.995C274.235 268.002 274.172 268.012 274.107 268.019C274.624 267.949 275.146 267.877 275.667 267.829C276.243 267.774 276.823 267.729 277.402 267.67C277.934 267.618 278.469 267.556 279.001 267.518C279.533 267.48 280.077 267.434 280.611 267.483C280.715 267.504 280.817 267.532 280.919 267.563C280.936 267.579 280.951 267.596 280.967 267.613C281.025 267.7 281.079 267.789 281.126 267.882C281.309 268.386 281.438 268.909 281.576 269.423C281.713 269.948 281.814 270.48 281.928 271.008C282.152 272.041 282.353 273.079 282.531 274.121C282.584 274.563 282.632 275.005 282.683 275.447C282.748 275.998 282.823 276.549 282.901 277.103C283.119 279.015 283.278 280.933 283.539 282.839C283.788 284.819 283.855 286.809 283.902 288.799C283.926 289.77 283.947 290.739 283.974 291.709C284.002 292.738 284.026 293.759 283.998 294.788C283.988 295.095 283.978 295.399 283.985 295.707C283.988 296.047 284.029 296.39 284.067 296.732C284.067 296.958 284.141 297.177 284.278 297.356C284.414 297.536 284.606 297.666 284.823 297.726C285.348 297.871 285.966 297.552 286.089 297.004C286.152 296.735 286.214 296.466 286.269 296.196C286.342 295.848 286.369 295.488 286.404 295.133C286.456 294.633 286.487 294.133 286.514 293.633C286.573 292.627 286.569 291.62 286.58 290.616C286.601 288.576 286.587 286.533 286.442 284.496C286.362 283.423 286.172 282.363 286.017 281.296C285.879 280.323 285.748 279.346 285.593 278.373C285.51 277.835 285.43 277.299 285.338 276.765C285.258 276.285 285.151 275.812 285.061 275.336C284.975 274.862 284.891 274.388 284.809 273.914C284.723 273.437 284.609 272.975 284.495 272.506C284.264 271.546 283.967 270.604 283.708 269.651C283.585 269.182 283.411 268.73 283.246 268.271C283.143 267.978 283.026 267.688 282.901 267.401C282.735 267.011 282.501 266.666 282.204 266.359C281.781 265.924 281.184 265.809 280.592 265.809C280.377 265.809 280.162 265.825 279.957 265.845ZM287.468 329.312L287.479 329.407L287.468 329.312ZM287.434 329.062C287.44 329.093 287.444 329.125 287.448 329.156L287.434 329.061V329.062ZM284.487 317.776C284.297 317.962 284.121 318.293 284.155 318.573C284.449 320.888 284.463 323.225 284.639 325.552C284.722 326.666 284.818 327.781 284.867 328.9C284.887 329.42 284.917 329.941 284.952 330.46C284.989 331.002 285.05 331.546 285.022 332.09C284.994 332.212 284.96 332.332 284.92 332.45C284.877 332.538 284.83 332.624 284.78 332.708C284.707 332.788 284.63 332.865 284.55 332.94C284.369 332.627 284.072 332.397 283.724 332.299C283.037 332.109 282.185 332.527 282.033 333.259C281.798 334.404 280.98 335.836 281.961 336.845C282.468 337.365 283.286 337.359 283.893 337.035C284.203 336.868 284.473 336.635 284.746 336.41C285.036 336.171 285.322 335.934 285.618 335.702C285.964 335.426 286.312 335.153 286.64 334.853C286.833 334.677 287.037 334.46 287.172 334.239C287.352 333.952 287.476 333.652 287.599 333.338C287.723 333.004 287.793 332.651 287.807 332.295C287.817 332.11 287.82 331.929 287.804 331.743C287.712 330.896 287.574 330.053 287.454 329.21C287.25 327.533 287.014 325.858 286.886 324.174C286.741 322.307 286.654 320.43 286.413 318.573C286.371 318.259 286.316 318.007 286.081 317.776C285.977 317.671 285.853 317.587 285.716 317.53C285.579 317.473 285.432 317.444 285.284 317.444C285.136 317.444 284.989 317.473 284.852 317.53C284.715 317.587 284.591 317.671 284.487 317.776" fill="black"/>
</svg>
