<svg xmlns="http://www.w3.org/2000/svg" xmlns:xlink="http://www.w3.org/1999/xlink" viewBox="0 0 496.8 597.6"><defs><mask id="a" x="157.98" y="289.46" width="30.94" height="30.01" maskUnits="userSpaceOnUse"><polygon points="158 289.5 188.8 289.5 188.8 319.5 158 319.5 158 289.5" fill="#fff" fill-rule="evenodd"/></mask></defs><path d="M239.9,366.7l.3-.3H240c0,.1-.1.2-.1.3"/><path d="M239.9,366.7l.3-.3H240c0,.1-.1.2-.1.3"/><path d="M262.2,228.6c3.5-.7,6.3-2.7,9-4.7l1.1.8c.1.4-.1.9.1,1.2-6,6.6-7.3,2.9-9.4,13.8-2.1-2.9-4.1-8.7-8-8.8s-19.1,1.5-16.6-5.1c.3-.6.5-1.3,1.3-1.3a1.9,1.9,0,0,0,1.8.9c6.5,2.6,13.9,3.1,20.7,3.2m-16.3-18.2c0,.3.1.5.1.7a.6.6,0,0,0-.5.6h0a15.8,15.8,0,0,1-3.8,11.5c-2.6-2.3-5.8.2-5.7,3.6-7.1,5.1-14.4,10-21.7,15v1.8c7.5-5.5,14.7-10.3,22-15.6l.2.2c2.3,6.1,13.3,3.6,18.5,4.9,1.7.9,2.4,3.1,3.5,4.6a20.4,20.4,0,0,1,2.9,5.2c.1-.1.1-.4.2-.5,5.7,11.6,4.2-3.2,5.7-7.6s5.5-5.5,7.7-8.6c5.8,2.8,11.8,3.8,18.1,5.1a62,62,0,0,0,11.9,2.7c-3.3-2.1-7.1-4.4-11.1-4.9-6.5-.9-13.5-1.6-19.2-4.9-.1-2.1-2.1-3.9-4.1-2.8a9.1,9.1,0,0,1-4-7.5c-.6-5.5-2.8,4.6,2.7,8.4a.7.7,0,0,0-.2.6c-2.5,1.5-5,3.8-8.1,3.8-5.8-.2-12.2-.5-17.9-2.2,2.1-1.1,4.9-12.4,3-13.5a1.4,1.4,0,0,0-.2-.7h0"/><path d="M309.2,240.8l.8.9a5.2,5.2,0,0,0-1-1.1Z"/><path d="M319.9,256.4c0-.1-.1-.3-.1-.4.8,6.9,2.7,13.8,3.1,20.6-.9,2.4-4.3,1.8-6,3.1,0-.1.1-.1.1-.2l-2.7,1.1h.2l-.7.2-.4.3a5.2,5.2,0,0,0,2.1-.4c-2,1.1-4.1,1.8-6,3.1l.3-2c-1.3-5.9-1.3-12.1-2.5-18.1h0v-.2h0v-.3c-.2,3.5-.7,7-1.1,10.5l1,1.5a88.1,88.1,0,0,1-1.1,11.3c-.1-.1-.2,0-.3,0s-.1,2.2-.2,3.3h1.6a2.4,2.4,0,0,1,1.4-1.4c3.8-4.9,11.2-6.4,17-8a1.6,1.6,0,0,0,.2-1.5c.5-1.7-.3-3.4-.6-5s-1.7-6.3-2.6-9.2a15.5,15.5,0,0,1-.7-2.3c1.2-3.8-1.5-7.1-2.8-10.6.3,1.5.6,3,.8,4.6"/><path d="M311,244.1l.6.5-.6-1.1v.6"/><path d="M293.3,245.9a1.6,1.6,0,0,0-1-.5l1,.5"/><path d="M297.8,261.4c0,1,.1,2.1.2,3.1l.3-2.8-.4-.4h-.1"/><path d="M312.2,278h.2c-.1-.1-.1-.3-.2-.4v.5"/><path d="M327.4,287.7a5.6,5.6,0,0,1,.4,1.2h.1l-.3-1.3h-.2"/><path d="M305.4,294.6h0v-.2h-.1"/><path d="M240,573.1l-.6-.2c-1.6-6.6,3.6-12.6,8.8-16.5,4.1-1,.2-10.5,1.9-13.8l10,.5c.3,3.3-2.2,11.5-.5,13.4l.3.8a30.1,30.1,0,0,1-6.6,11.5A21.4,21.4,0,0,1,240,573.1Zm24-19.3q.2-5.4.6-10.8a30.7,30.7,0,0,0,6.7-.8,27.7,27.7,0,0,1-1.2,4.1h0a10,10,0,0,0-6.1,8Zm6.2-.9c-2.6-3.4,2-2.9,2.7-5.1s.4-7.1,1.9-10.2a1.7,1.7,0,0,0,.8-.6,42,42,0,0,0,7.2,1.7c-2.3,17.7-.1,5.1,16.7,15.6-1.8,1-1.1,4.4-3.5,5a38.9,38.9,0,0,1-24.3-4.8h0l-1.5-1.6Zm47.6-167.5a97.4,97.4,0,0,0-27.8,5c7.5-.4,13.9-1.4,21.1-2.2-6.3,27.7-7.4,56.7-11.6,84.8-3.4,20-7.9,39.9-11,60-.2.1-.4.5-.6.8-3.9,1.4-8.4-.2-12.5-.2,2.5-37.5,3.3-75,4.3-112.6,0-4.2,1.9-8.6,1.1-12.6-4.7-3.9-3.8,10.2-4.6,12.7-1.2,37.6-3.7,75.6-5.1,113.1a9,9,0,0,0-2.1,2.7,91.3,91.3,0,0,1-13.8.8c-4.8-.3-10,.7-14.4-1.3.4-1.1,1.4-2.7.1-3.7-2-34.8-1.2-69.5-4.6-104.1-1.1-9.6-2.2-19.1-3.4-28.8-.6-1.8.1-11.9-2.9-7.5,1,14.2,3,28.3,4.2,42.5,2.1,33.3.8,67.1,3.6,100.2-2.2,3.8,2.7,6.6,5.8,6.9.6,3.7.5,7.5,1.2,11.1-8.6,6.1-27.7,33-5.3,31.9,11.4-2.1,23.9-9.7,27.8-21.2,41.2,20.2,59.8-9.6,18.6-17.1.7-2.5.6-5.2,1-7.6,2.5,0,6.4-1.8,5.3-5,1-1.6.6-3.8,1.1-5.6v.4c5.2-28.6,10.6-55.7,13.2-84.5,2.4-18.6,2.6-37.9,7.3-56.1a14.8,14.8,0,0,0,2.7-1v-.6l1.6-1.2Z"/><path d="M273,389.1l-.7.2h.5l1.1-.5-.9.2"/><path d="M228.7,390.2h.4l-.6-.2h.2"/><path d="M230.3,253.1c-1.2,2,1.6,5,2,7.2a2.2,2.2,0,0,1,1.2,1.3c0-1.6-.8-8.8-3.2-8.5"/><path d="M224.1,257.8c-.5.5.1,1,.5,1.3a3.9,3.9,0,0,1-.2-1.5l-.3.2"/><path d="M265.4,248.6c-.2.1-.3.1-.4.3s.8,5.4.8,6.1c5.2,14.2,10.7,28.2,11.5,43.6.7-1.1-.2-2.8.8-3.8a61.6,61.6,0,0,0-6.5-30.1c-1-3.5-6.9-11.7-4.9-14.5-.1-.7-.3-1.8-1.3-1.6"/><path d="M277.4,298.9v.8c.1-.1.2-.1.2-.2v-.7h-.2"/><path d="M273,389.1a3.9,3.9,0,0,0-1.7,1.1l2.6-1.3-.9.2"/><path d="M230.6,254.8c-.7,2.1,2.4,4.7,2.9,6.9-.1-2.2-.4-6.4-2.9-6.9"/><path d="M237.7,295.8v1.5l1.7.6c0-.9-.1-1.8-.1-2.7l-1.6-1.2v1.8"/><path d="M223.9,383.6h.6l-.6-.2h0"/><path d="M226.8,389.8l1.1.2-1.8-.7h-.3l1,.5"/><path d="M229.9,253.6c-1.6,2.3,3,5.4,3.5,7.9-.1-1.4-.1-3.3-.1-4.6s-1.6-3.9-3.4-3.3"/><path d="M240.6,291.3v0h0"/><path d="M236.8,294.9a14.8,14.8,0,0,1,.1,2.1l3.7,1.4a19.2,19.2,0,0,1,0-2.4c-1.2-.9-2.8-1.5-3.7-2.8a9.1,9.1,0,0,1-.1,1.7"/><path d="M306.1,275.1c-.3,8.6-.7,17.2-1.8,25.9l4-1.3c-.2-2.2,2.9-33.1-2.2-24.6"/><path d="M225.9,390.2c1,1.9,5.6,4.1,6.6,1.4-2.1-1-4.3-1.4-6.4-2.3h-.6l.4.9"/><path d="M322.6,279.5c-2.2-.3-1.4,2.6-2,3.9,1.5-.5,2.5.8,2.6,2.2,0-1.5,3-9-.6-6.1"/><path d="M321.1,293.5a3.1,3.1,0,0,1-2.8.1c-.3,1.1-.6,2.3-1,3.4l3.4-1c.2-.9.5-1.7.7-2.6h-.3"/><path d="M236.2,226.6c-6.8,5.8-14.8,10-21.9,15.5v3.7l1.7-1.3-.3.2.9-.6-.2.2c7.3-5.9,16.3-9.9,22.8-16.6.4-1.9-2-2.4-3-1.1"/><path d="M266.8,256.6c.2,3.2.5,6.3,2.7,8.9,6.6,14.1,7.9,30.4,8.5,45.9l2.6-1.2c-.5-14.8-3.7-29.9-8.3-43.8-.3,3.2,1.4,7.1,1.9,10.4-1.8-7.4-3.4-14.7-6.7-21.5a1.5,1.5,0,0,0-.7,1.3"/><path d="M280.6,226.7h0m-6.3-2.4c2.1,5.9,14.3,6.5,20,8.2h0c16.1.4,24.1,7.8,25.6,23.9,0-.1-.1-.3-.1-.4,1,5.1,1.3,10.3,2.5,15.4.2,2.3,2.1,6.3-1.4,6.8.1,3.2,4.7,4.5,4.4.6-2.1-8.4-1.8-17.3-3.4-25.8-3.3-21.6-15.4-21.2-33.5-24a33.9,33.9,0,0,1-10.3-3.5c-1.2-.5-2.6-2.7-3.8-1.2"/><path d="M319.4,267.9a.9.9,0,0,1,.1.5.9.9,0,0,0-.1-.5m-.7-6.6c0,.1.1.2.1.3v-.3m-44.1-36.6a1,1,0,0,0-.5,1.4,1,1,0,0,0,.8.7c39.4,13.1,39-3.4,45.2,47.1h0c.5,2.1,0,5.1,2.1,6.6h-.1c6.1,2.3.7-10.1,1.4-13.1-1.4-11.5-2.7-25.4-11.8-33.6l.3.3c-6.3-5-14.9-4.1-22.5-5.2-5-.5-10-3.3-14.9-4"/><path d="M304.2,255.7c-2.5,2.2,1.1,7.8.8,11,.9,11.4.3,22.9-.7,34.3l4.4-1.5c.6-10.2,2.4-37.2-4.5-43.8"/><path d="M237.2,294.5l-.4.2a17.7,17.7,0,0,1,.1,2.3l1,.4c.7-.6,1.7-1,1.9-2a13.7,13.7,0,0,1-2-1.3l-.6.4"/><path d="M173.8,287.1c-1.8.5-19.8-.8-14.3,2.7,16.8-1,33.7-.9,50.4,1.5h0c23.3,2.9,45.4,11.9,66.9,20.7l2.8-1.4c-33.3-14.7-69.2-25.1-105.8-23.5"/><path d="M356.7,289a119.9,119.9,0,0,0-33.2,3.5,6.3,6.3,0,0,1-5,1.2c-15,3.8-28.9,10.6-43.2,16.2-1.3.4-.8,2.4.5,2,24.5-9.6,49.5-20.9,76.3-20.3,9.8,0,15.3-2.1,15.5,10.3a7.9,7.9,0,0,1,2.7,1C369.7,293.6,366.9,287.8,356.7,289Z"/><path d="M367.9,305.2c0,.4.1.8.1,1.2h2.2c-.5-.7-1.5-.8-2.3-1.2Z"/><path d="M368.6,309.3c0,.2.1.3.1.4l1.3-.2C369.6,309.2,369.1,309.4,368.6,309.3Z"/><path d="M369.4,312.7c3.3,16.5,5.9,33.1,5.3,49.9.9,5.4-3.6,25.7,1.9,26.9,3-23.9,1.4-51.3-4.2-75.7-1,.1-2.6.1-3-1.1h0"/><path d="M370.2,306.4h0"/><g mask="url(#a)"><path d="M158,290c14.3,7.7,33.1,6.7,29.2,29.5a4.7,4.7,0,0,1,1.5-1.3c.9-8.2-.4-16.7-8.8-20.4-6.4-4-14.1-5.5-21.1-8.2a.7.7,0,0,0-.8.4"/></g><path d="M188.9,382.2v.2c0-.1,0-.2.1-.2m-1.6-45.7c-.2,10.9-.8,21.9.7,32.8.1,3.1,1.6,6.3.5,9.3s-2.2,3.4-1.6,5.3,4.6.2,6.6.3a112.1,112.1,0,0,1,13-.5c5.6-1.4,12,0,18,0-11.7-3.1-24-2-35.9-.8,3.8-5.5,1.6-11.7,1.1-17.7-1.1-9.7-.6-19.4-.6-29a2.8,2.8,0,0,1-1.8.3"/><path d="M348.9,383.8c-25.1.1-50.7,2.3-74.2,11.9l4.6.9a156.9,156.9,0,0,1,30.2-7.5h0c19.7-2.6,39.8-3.6,59.4-1.3,6.6-4.3-17.7-4.1-20-4"/><path d="M246.8,394.6a2.3,2.3,0,0,0-1.2-.6l1.2.6"/><path d="M266.8,401h-.1v.2"/><path d="M254.3,406H254a1.2,1.2,0,0,0,1,.5.7.7,0,0,1-.2-.6h-.5"/><path d="M213.7,246.2h0m-.6,4.3c0-.1,0-.2.1-.2s-.1.1-.1.2m1.2-7.1c-.6.8-.4,1.7-.6,2.6h0v.3h0c-.2,1.4-.4,2.7-.5,4.1h0v.3h0c-1.1,11.2-4.6,21.8-7.5,32.6,0,1.8-1.8,4.4-.4,5.8,3.2,3.7,15.3-51.5,9.1-45.5"/><path d="M233,265.1c-1.8,9.2-4.4,18.1-6.4,27.1,3.9,7.7,9-25.6,7-28a1.8,1.8,0,0,0-.6.9"/><path d="M194.8,314.4c-3.3.6-7.7,2.3-8.4,6.1,1.7-2.7,9.8-7,11.2-2.6a4,4,0,0,1,.9,3c-3,1-3.3-3.6-8.2-.1.1,1-1,1.2-1.2,1.9s1.6-1.6,2.6-1.2c2.5-1.9,4.1,1.7,6.6,1.2,4.7-1.2.2-8.8-3.5-8.3"/><path d="M195.5,322c-.3.4.1,1.1-.1,1.6s-2.6.3-3.8,1a5.7,5.7,0,0,0-2.4,3.6h.6c1.2-3.1,4.2-2.7,6.4-4.1.5-.5.4-2.8-.7-2.2"/><path d="M195.7,322.1a2.9,2.9,0,0,1,.1,1.3c-1.2.2-5.3.8-3.8,2.5s2.4-1.1,3.7-.9c3.2.6,1.8-6.2,0-2.9"/><path d="M193.8,324.2c-1.6,2.5,2,1-3,5.2.2,1.1-.9,2-1.2,3l.6.3a.5.5,0,0,0,.3-.5c1.4-2.1,7-5.9,3.3-8"/><path d="M187.6,318.3c-4.9,2.4-6.1,21.2,1.8,18.8,2.1-1.3,2.3-4.1,3.2-6.2s-2.3.2-2.6,1.7c1.3.8.6,2.3-.3,3.1-5.6,3.7-4.3-8.3-4-11.2a.8.8,0,0,0-.1.4l.3-2.1c-1.1-1.7,1.5-3.6,2.8-4.6a.9.9,0,0,0-1.1.1"/><path d="M322,280.1c-2.5,1.9,8.8,18.7,10.9,12,.4-2.5-8-14.9-10.9-12"/><path d="M307.5,286.8c-3.1,1.3-.2,3.8,1.4,4.9-1.6,2.7,2.6,4.9,4.4,6.4l2.8-.8c1-3.1-5.5-10.4-8.6-10.5"/><path d="M363,301c-5.1-.2-11,11.4-3.2,10.9a9.3,9.3,0,0,1,9.6-5.5c-1.2-2.6-5.4-1.4-7.3,0s-2.2,4.7-4,3.1c-2.1-4.2,5-7.9,8.7-7.7A7.3,7.3,0,0,0,363,301Z"/><path d="M367.1,309.4a7.4,7.4,0,0,0-4,2.9c1.6-1.4,3.7-1.9,5.7-2.6l-.3-.4h-1.4"/><path d="M360.3,310.4c-2.5,2-.9,6.1,2.2,3.8a2.8,2.8,0,0,1-.1-.9c-2.4,1.7-3.4-1.9-1.4-3.3l-.7.4"/><path d="M368.2,313.1c-1.9.2-3.3,2.5-5,1.8a2.3,2.3,0,0,1-1,.7,2.1,2.1,0,0,1,.6-1,1.2,1.2,0,0,1-.4-.8c-1.4.3-2.2,3.2-.1,3.2s3.4-2.8,5.8-3c.7.4,1.4-.5,1.1-1.2l-1,.3"/><path d="M365.8,301.3l-1.1.7c3.9-1.2,10.9,2.7,9,7.1a1.4,1.4,0,0,1-.9,1.7,1.8,1.8,0,0,1,.6,1.7c4.2-5.2-.6-15.9-7.6-11.2"/><path d="M369.4,313h0"/><path d="M368.6,313.1c-1.4.2-6.3,2.4-2.7,3.1,2-1,4.5-1,6.3-2.4-.9.1-2.2.1-2.7-.9l-.9.2"/><path d="M364.3,305.3l.8-.2-.8.2"/><path d="M361.1,303.1h0m5.9-3.5c-2.2.4-6.1.9-7,3.3-1,.7.2,1.2.7.3h.4c2.5-1.3,5.3-2.2,7.9-.9a.7.7,0,0,0,.7-.6c4.4,2.8,2.4-3.4-2.7-2"/><path d="M362.5,308.1h0m4.4-3.3c-4.7-.7-5.8,5.2-9.1,4.9h-.4c.1-5.1-2.4,1.9,1.5,1.2s4.8-4.7,8.5-4.2,2.7-2.3-.5-1.8"/><path d="M361.1,308.5c-2.4,1.2-4,6.3-.3,6.6,3.5-1.3,4.7-4.7,9-4.7,1.2-1.7-1.6-2-2.7-1.8-2.8.2-4.4,2.8-6.5,4.3-2.5-1.8,2.6-4.4.5-4.4"/><path d="M368.7,313.6h0m-.1-2.2c-2.6.1-3.8,3-6.1,3.5,1.3-3.1-1.9-1.1-1.4.8,2,2.8,5.2-.8,7.2-1.9s4-2.8.3-2.4"/><path d="M370.4,312.8a14,14,0,0,0-3.8,1.6h-.3c-1.1-1.2-1.8,1.2-.6,1.5s3.9-1.7,6.1-1.4-.3-2-1.4-1.8"/><path d="M371.4,302c-.2.2-.3.7,0,.9,3.2,2.9,1.2,7.7-.4,11h0c-.7,1.1.6,2.5,1.6,1.5a9.9,9.9,0,0,0,2.2-4.9c.3-2.7-.1-8.5-3.4-8.5"/><path d="M275.8,311c3.2,26.9,3.1,55.6,1.1,83.1v-.3a3.1,3.1,0,0,0-.1,1h0a1.1,1.1,0,0,0,.2,1.4l1.1.2c2.6-14,1.7-29.4,1.9-43.9s.2-29.3-4.2-41.5"/><path d="M220.1,380.1c-2.7-.1-37.6.8-31.6,4.3,22.3-3.6,45-1.9,67,3.3,5,1.6,10.2,3,15,5.3,2.1.9,6.8,5.7,7.6,1.3h0c-8.1-10.9-44-13.5-58-14.3"/><path d="M277.7,396.9l.2.2-.2-.2M274,394h0m-52.5-14.2a141.4,141.4,0,0,0-31.8,3.3c-2.1,2.2,6.2-.5,7.2-.4h-.1c13.3-1.8,27-2.4,40.3-.7h.1c14.1,2.4,29.3,5.9,40.7,15.1a1,1,0,0,0,1.2.4,1,1,0,0,0,.5-.8c-11.3-12.5-41.5-16.9-58.1-16.9"/><path d="M229.6,380.9c-1.9,1.2.7,12.2.3,15.3a1.2,1.2,0,0,0,.8,1.1c2.3.2,1.5-3.3,1.4-4.7-.7-3,1-10.9-2.5-11.7"/><path d="M224.3,381.9c-3.4,7.7,6.3,14.9,6.8,9.3-.9-1.9-4.2-2-4.7-4.3s.7-3.6.3-5.3a1.2,1.2,0,0,0-1.9-.4,1.3,1.3,0,0,0-.5.7"/><path d="M251.9,389.9h0m-5.8-3.4c-5.7.4-11.4,2.5-17.3,1.7a1.3,1.3,0,0,0-1.3,1.3c4.4,4.4,16-1.3,22.3.2,3.8-.3,10.6,3,13.4,1.4,1-5-13.6-4.5-17.1-4.6"/><path d="M259.8,389.3v.2c-1.3,2,7.3,2.1,8.7,2.8s3.3-.3,2-1.6-9.3-3.6-10.7-1.4"/><path d="M227.8,380.8c-3.2.9-3.9,5.2-2.7,8s7,2.2,4.1-.8c.7-2.2,2.6-7.5-1.4-7.2"/><path d="M349.4,303.2h0m-.5-2.5c-14.6,1.5-31.9,3-43.6,11.2,13.7-4.7,29-9.6,44.2-8.5,1.6,6.7,3.6,14.1,2.7,20.9-13.7-.6-26.9,4.2-38.4,11.5,1-2.6-1.6-31.7-6.6-22.9h0c1.2,5.3,3.6,10.2,3.1,15.8.7,2.7-2.3,14.3,3.2,11.3,8.9-5.6,18.7-10.5,29.3-11.6,4.1-1.6,11.8,2.2,13.2-3.4.6-3.6-1.6-26.6-7.1-24.3"/><path d="M344.6,307c-3.4,1-30.2,4.7-28.7,7.6s15.4-3.2,19.6-3.3,6.5-1.5,9.7-2a1.1,1.1,0,0,0,.6-1.5,1.3,1.3,0,0,0-1.2-.8"/><path d="M337.4,314.2c-5.3,1.5-12.6,1.7-17.1,4.8,4.4.3,9.9-2.3,14.6-2.6.7,1.8,5.2-1.6,2.5-2.2"/><path d="M338.2,319c-5.4,1.3-10.8,2.9-16.2,4.3-.3-.7-3.7.8-3.3,1.6,6.4-.8,13.4-3,19.9-4.4h0a.8.8,0,0,0,.3-1.1.7.7,0,0,0-.7-.4"/><path d="M333,323.9c-4.2,1.8-10.6,2.2-13.7,5.2,1.7,1.3,4.8-1.3,6.9-1.6s10.1-2.3,6.8-3.6"/><path d="M298.8,316.1c-1.8.1-21.8,4.2-14.7,6.4a98.8,98.8,0,0,1,12.1-3.5c1.3-.5,3.2-.3,4.3-1.2s-.7-2-1.7-1.7"/><path d="M297.7,321.8a73.1,73.1,0,0,0-11.6,3c-1-.4-2,1.2-.7,1.4a21.8,21.8,0,0,0,4.4-1.1c1.2-.7,12.3-1.6,7.9-3.3"/><path d="M300.3,326.6c-1.9-.2-21.8,5.1-17.8,7,4.8-1.5,9.6-3.5,14.6-4.6,1.3-.2,6.1-.9,3.2-2.4"/><path d="M300.7,330.9c-4.6,1.1-9.1,2.6-13.5,4.1-2.2-.2-1.9,2.9.3,2.1s19.3-4.2,13.2-6.2"/><path d="M323.5,343.6h0m17.5-4.7a177.2,177.2,0,0,0-48.8,10.4c-2.2,1-5.4,1.7-6.3,4a1.3,1.3,0,1,0,2.5.4,12.7,12.7,0,0,1,3.1-1.5h-.2a160.6,160.6,0,0,1,40.9-9.8c4.4-.6,9-.7,13.5-1.3,3.2-2.7-3-2.6-4.7-2.3"/><path d="M353.7,345.2c-22.5,1.1-46.7,1.7-66.9,12.5h0c-1.2,1.6,2.5.1,3.2.1s-.9-.5-1.4-.3a96.4,96.4,0,0,1,27.4-7.7h-.2a221.4,221.4,0,0,1,29.4-2.5c-2,3.4,8.6-.2,10.2-.1s-.3-2.5-1.7-2"/><path d="M345.4,352.7c-20.1.8-42.5,3.3-59.8,12.7,2,1.4,7-2.2,9.6-2.6a135.7,135.7,0,0,1,28-6.6h-.3c8.6-.9,17.2-1.8,25.9-1.3-1.4.3-8.2.7-4.7,2.7,4-1.2,11.2,0,13.7-3.2-2-2.8-9-1.2-12.4-1.7"/><path d="M353.5,357.9c-21.4,2.4-44.7,1-64.3,10.9-1.1,1.1,2.9,1,2.8.3s-.8-.3-1.3-.4l1.4-.5h0a95.7,95.7,0,0,1,23.6-5.7h-.1c8.1-.9,16.4-1.6,24.6-1.9,1.5-.1,18.3.2,13.3-2.7"/><path d="M356.7,362.6c-23.5,1.8-47.9,2.5-70,11.3-2.4,2,9.1-1.3,7.7-1.9a130.6,130.6,0,0,1,21.5-4.6h0c9.7-1.2,19.6-2,29.5-2.4,2,1.6,5.7-.3,8.3-.1s6.2-.6,3-2.3"/><path d="M349.4,367c-20.7,4-43.8,2.5-63,11.5,1.9.5,5-1.2,7.1-1.7,18.3-5.9,37.8-4.5,56.4-7.8a1,1,0,1,0-.5-2"/><path d="M268,326.2Zm-48-22.9c-2.9.9-2.3,5.3-3.4,7.6-4.5,17.5-15.1,19.9,9.1,16.4,35.2.4,43.2,27.2,42.2-1h0c0-.1,0-.1.1-.2h0c3.3-12-5.4-9.6-13.9-13.4a189.1,189.1,0,0,0-30.5-6.8c-.4,0-1.4.3-1,.8s.3.3.5.1l.2-.2A158.7,158.7,0,0,1,266,318.5c1.9,2.7-1,13.6-1,18.1-14.2-8.7-31.7-14.3-48.4-11.6h.4l-2.2.3c1.4-3.9,9.6-19.6,5.2-22Z"/><path d="M229.5,313.5c-.6,1.5,2.1,2.7,1.6.7l4.5.4h-.2a131.8,131.8,0,0,1,23.1,6.4c-1.1,0-8-1.2-5.2,1,28.9,3.1-19.5-12.1-23.8-8.5"/><path d="M226.3,318.8c-.3.8,1.6,1.2,1.9.6l1.5.2h-.1c9.3.9,18.8,5,27.5,6.2.2-2.8-28-8.2-30.8-7"/><path d="M225.3,321.3c-.5.4-.4,1.3.2,1.4,30,6.1,27.6,2-.2-1.4"/><path d="M190.4,303.2c-1.7,3.1,8.9,1.9,10.9,2.8h-.1l5.3.6h-.1l3.8.5c1.7,2,6.1-.9,1.3-1.5-6.9-1-14.3-2.8-21.1-2.4"/><path d="M194.8,307.5a1,1,0,0,0-.1,1.3.7.7,0,0,0,.8.3c24.1,4.1,18-1.3-.7-1.6"/><path d="M199.1,310.5c0,.2.1.5.3.5h0c3.9.4,8.4,2.3,12.1,2,.1-.2-.1-.4-.3-.5-3.9-.4-8.4-2.3-12.1-2"/><path d="M208.9,337.2c-1.5.2-11-.4-6.9,2.2a176.4,176.4,0,0,1,33.3,1.1H235c8.3,1.2,16.6,2.6,24.8,4.5-1.1,1.8,2.3,1.5,2.9.5,1.5-5.6-48.1-9-53.8-8.2"/><path d="M207.8,342.1c-2,.4-9.5-.7-9.5,1.4,1-.1,6.6,1,5.8-.2l-4.5-.2h.6c20.7-.9,41.3,3.1,61.4,7.7.2,1.6,4.8.6,2.6-.8-7.8-2-15.7-3.4-23.6-4.8-10.9-1.5-21.9-2.9-32.8-3"/><path d="M213.9,348.1c-3,.5-16-.5-16.6,1.7.7.1,3,.6,3.2-.3,21.5-2,42.7,2.6,63.6,7,.2,1.3,2.2.6,3.1.8,3.2.3,1.5-2-.7-1.9-17.4-3.1-34.9-7.5-52.6-7.3"/><path d="M229.3,359c-2.6.3-35.4-.7-29.5,3.5a304.6,304.6,0,0,1,35.7-1.6c3.6-2.5-4.8-1.8-6.2-1.9"/><path d="M217.6,363.6c-1.7.6-19.9-.9-14.6,2.6,9.7-1.3,21.3.8,30.1-1.4-4-2.3-10.6-.5-15.5-1.2"/><path d="M213.5,368.2c-1.4.3-14-.1-11.6,1.8h0c.4,0,.8.1,1.1-.1a88.9,88.9,0,0,1,20.6.4h.1c.2.4.7.6,1,.3s.3-.1.4-.3c1.1-3-9.5-1.6-11.6-2.1"/><path d="M204.2,373.7c-14,2.2,18.8,2.3,19.1.9-5.3-1.9-12.8.2-18.7-.2.2-.1.2-.3.1-.5a.4.4,0,0,0-.5-.2h0"/><path d="M240.6,366a1.1,1.1,0,0,0,1,1h.1c8.1.6,16.1,1.6,24.1,2.9.9,1.9,7.3.1,3.2-1.4-5.8-.5-24.8-5.5-28.4-2.5"/><path d="M242.3,370.6a.5.5,0,0,0,.2.6h.2a146.4,146.4,0,0,1,23.6,5.3c.9.1,2.4,1.3,2.9.1-6.1-4.3-16.2-4.3-23.8-6-.8-.2-2.5-.6-3.1,0"/><path d="M241.5,375.8c1.5,2.1,6.2,1.7,8.8,2.9,5.1,1,9.9,3.6,14.9,4.5,2.9-2.8-19.3-6.2-21.8-7.1-.3-.4-1.5-.7-1.9-.3"/><path d="M230.3,255.2c0,5.8-1.5,39.7,3.4,40.7,1.6,0,2.2-1.9,1.6-3.2-1.2-12.6-1.5-25.4-2-38.1h-.9a1.2,1.2,0,0,0-1.7-.1,1.2,1.2,0,0,0-.4.8"/></svg>