<?xml version="1.0" encoding="UTF-8"?>
<svg width="500px" height="600px" viewBox="0 0 500 600" version="1.1" xmlns="http://www.w3.org/2000/svg" xmlns:xlink="http://www.w3.org/1999/xlink">
    <title>handsheldback</title>
    <g id="handsheldback" stroke="none" stroke-width="1" fill="none" fill-rule="evenodd">
        <g id="body" transform="translate(198.000000, 247.000000)" fill="#231F20">
            <path d="M135.9137,56.2874 C133.1787,57.8234 130.4427,59.3594 127.7067,60.8954 C123.2677,63.3884 118.6687,65.9754 113.5757,66.6914 L112.7377,57.4574 C112.6067,57.0954 112.5217,56.7174 112.5217,56.3314 C112.5217,55.9094 112.5347,55.4874 112.5547,55.0674 C112.4087,54.5984 112.3467,54.1004 112.3887,53.6034 L111.0817,39.2034 C110.9667,37.9324 108.9657,37.9194 109.0817,39.2034 C109.9237,48.4804 110.7657,57.7584 111.6057,67.0354 C110.9687,67.4754 111.0167,68.5794 111.7677,68.8014 C112.0977,72.4464 112.4287,76.0914 112.7587,79.7354 C113.3667,86.4424 113.9947,93.1484 114.5837,99.8564 C115.0107,104.7114 115.2747,109.7684 114.0307,114.5294 C112.6857,119.6694 109.3017,123.3934 104.1667,124.9294 C101.3897,125.7604 98.4907,126.0424 95.6157,126.2984 C92.3237,126.5924 89.0237,126.8064 85.7217,126.9384 C72.4427,127.4724 59.1017,126.7224 45.9727,124.6524 C35.1027,122.9384 21.1927,120.9604 14.3527,111.2394 C16.7397,107.1684 18.1847,102.6504 19.3157,98.0844 C20.5827,92.9744 21.6777,87.8254 23.0057,82.7284 C23.6387,80.3004 24.3177,77.8844 25.0137,75.4724 C25.2547,73.5054 25.7657,71.5974 26.6557,69.8924 C28.5397,63.7014 30.5807,57.5584 32.8247,51.4884 C34.9747,45.6744 37.2887,39.9224 39.7627,34.2384 C40.2707,33.0704 38.5487,32.0514 38.0357,33.2284 C33.7057,43.1794 29.8417,53.3264 26.4957,63.6484 C25.8587,65.6144 25.2517,67.5864 24.6577,69.5614 C23.8227,69.2684 23.0287,68.8814 22.2597,68.4404 C22.2317,68.1714 22.1007,67.9074 21.8217,67.7144 C17.5757,64.7634 13.3317,61.7324 9.7317,57.9944 C8.0107,56.2054 6.4587,54.2594 5.2137,52.1064 C3.8227,49.7064 2.4727,46.7924 2.7307,43.9614 C2.7407,43.8564 2.7167,43.7744 2.69879278,43.6874 C2.9437,43.2014 3.2457,42.7134 3.5797,42.2044 C4.5077,40.7904 5.4397,39.3784 6.3837,37.9754 C13.7157,27.0694 22.1437,15.9004 34.3117,10.1164 C38.2287,8.2554 42.4397,7.1304 46.6887,6.3294 C48.7997,5.9324 50.9237,5.6104 53.0497,5.3094 C53.3087,5.2734 53.6327,5.2094 53.9917,5.1414 C53.9927,5.0834 53.9897,5.0224 53.9897,4.9644 C55.7247,4.6914 57.4667,4.4794 59.2197,4.3484 C59.2917,4.3434 59.3557,4.3154 59.4237,4.2984 C59.6277,5.6734 60.5417,6.9294 61.7717,7.5754 C63.5017,9.5694 66.1217,10.7984 68.8087,10.5324 C72.6027,10.1574 75.6367,6.9664 76.1797,3.2864 C87.0007,6.7374 97.8547,10.3114 107.9807,15.5164 C112.8537,18.0214 117.5477,20.9224 121.8447,24.3324 C122.9257,25.4674 124.2427,26.3044 125.5317,27.1754 C125.5857,27.4004 125.7157,27.6154 125.9677,27.7714 C127.5997,28.7844 128.4377,30.5924 129.2717,32.2504 C130.2817,34.2594 131.2137,36.3084 132.0527,38.3934 C133.2777,41.4424 134.3177,44.5604 135.1797,47.7284 C134.9847,47.9414 134.8857,48.2334 135.0107,48.6014 C135.5107,50.0594 136.0097,51.5184 136.5087,52.9764 C136.7217,53.5994 137.0937,54.2914 137.1747,54.9444 C137.2727,55.7404 136.5007,55.9584 135.9137,56.2874 M116.6727,100.3524 C116.3597,95.8604 115.8137,91.3704 115.4087,86.9034 C114.8577,80.8254 114.3067,74.7494 113.7557,68.6724 C119.6437,67.8424 124.8767,64.7784 130.0127,61.8944 C130.9757,61.3534 131.9387,60.8134 132.9017,60.2724 C129.8477,74.4654 124.3527,88.0384 116.6727,100.3524 M109.7967,167.2144 C109.9997,169.5864 110.2207,171.9564 110.4567,174.3254 C110.6717,176.4684 111.0377,178.6414 111.060193,180.7964 C111.0817,182.8534 110.3687,184.5014 108.5427,185.5304 C106.8957,186.4584 104.9427,186.8174 103.1097,187.1824 C98.7107,188.0574 94.2287,188.4314 89.7487,188.5174 C85.2277,188.6044 80.7077,188.3984 76.1977,188.0954 C73.9077,187.9404 71.6007,187.8244 69.3177,187.5784 C68.1757,187.4554 67.7277,186.9724 67.5537,185.8474 C67.3817,184.7374 67.3467,183.5854 67.3097,182.4654 C67.0047,173.1104 69.1987,163.4824 66.1727,154.3904 C67.0667,150.7094 68.2167,147.0974 69.6407,143.5854 C69.8437,143.0854 69.4197,142.4864 68.9417,142.3554 C68.3697,142.1984 67.9157,142.5514 67.7117,143.0544 C66.5877,145.8244 65.6347,148.6584 64.8397,151.5384 C64.5617,151.6244 64.3127,151.8144 64.1907,152.1584 C62.1457,157.9134 60.5737,163.8274 59.5257,169.8444 C59.0007,172.8614 58.5987,175.9024 58.3267,178.9524 C58.0977,181.5304 58.1597,184.3944 56.9317,186.7464 C55.6297,189.2374 52.9667,190.0334 50.3367,190.2344 C47.3607,190.4624 44.3237,190.2724 41.3597,189.9674 C34.9647,189.3084 28.6927,187.7624 22.4917,186.1124 C19.5347,185.3254 15.9747,184.8034 13.4987,182.8794 C12.3557,181.9914 11.4017,180.6814 11.3137,179.1944 C11.2667,178.3774 11.5177,177.6114 11.8827,176.8884 C11.8347,175.6984 12.0097,174.5264 12.3727,173.3984 C12.3317,173.3944 12.2917,173.3764 12.2497,173.3784 C13.8657,164.9054 15.4817,156.4334 17.0977,147.9604 C17.9987,143.2394 18.8987,138.5184 19.7997,133.7984 C20.6677,129.2454 21.6947,124.6574 21.6137,119.9984 C27.1527,122.9744 33.6657,124.4644 39.7217,125.5964 C53.2797,128.1304 67.0957,129.3054 80.8867,129.0764 C87.4817,128.9674 94.1997,128.7224 100.7277,127.7194 C103.2727,127.3274 105.7477,126.6284 107.9527,125.4884 C107.9827,134.8164 108.2637,144.1434 108.8067,153.4574 C109.0737,158.0474 109.4037,162.6334 109.7967,167.2144 M91.0157,245.6644 C90.7047,248.1064 90.2517,250.5854 90.0717,253.0444 C89.9017,253.3464 89.8667,253.7274 90.0387,254.0504 C90.1197,255.3194 90.7187,256.5294 92.1567,256.6004 C92.5297,256.6184 92.7817,256.4554 92.9377,256.2244 C96.3437,258.7644 99.4627,261.7474 102.0357,265.1184 C102.0147,265.1514 101.9847,265.1674 101.9657,265.2044 C100.8187,267.4174 100.1677,269.8414 100.1077,272.3364 C100.0767,273.6004 100.2107,274.8714 100.4757,276.1084 C100.5247,276.3354 100.6417,276.6024 100.6357,276.8334 C100.6277,277.1274 100.7957,277.0274 100.4857,277.0224 C99.9757,277.0134 99.3247,276.6644 98.8277,276.5344 C93.9267,275.2554 88.7237,275.7864 84.1357,277.8954 C83.4117,278.2274 83.5277,279.0154 83.9967,279.4394 C80.7437,277.6434 77.6897,275.4294 75.2217,272.7844 C72.9457,270.3494 71.5697,267.4024 71.2787,264.0714 C71.1507,262.6124 71.1907,261.1524 71.3217,259.6984 C71.3227,259.6954 71.3227,259.6924 71.3227,259.6904 C71.4817,257.9274 71.7747,256.1714 72.0927,254.4334 C72.2107,254.2864 72.3047,254.1154 72.3257,253.8904 C73.9027,237.4164 74.7787,220.8784 74.9297,204.3304 C74.9727,199.6384 74.9547,194.9454 74.8847,190.2534 C74.8827,190.1564 74.8517,190.0814 74.8287,189.9984 C78.3727,190.2524 81.9217,190.4574 85.4757,190.5184 C89.7727,190.5934 94.0737,190.4304 98.3437,189.9224 C95.8217,208.4924 93.3767,227.0734 91.0157,245.6644 M103.3447,266.9484 C106.1207,271.1414 108.1887,277.2664 104.3227,281.4804 C100.7197,285.4074 94.4847,283.9384 90.1497,282.2864 C88.2297,281.5544 86.3017,280.6784 84.4307,279.6714 C84.6487,279.7334 84.8917,279.7384 85.1447,279.6224 C87.5697,278.5074 90.2167,277.9034 92.8847,277.8424 C94.1877,277.8114 95.4987,277.8964 96.7827,278.1294 C98.0037,278.3494 99.2317,278.9424 100.4607,279.0324 C101.5327,279.1084 102.4257,278.4994 102.6067,277.4174 C102.7917,276.3194 102.2617,275.1164 102.1617,274.0224 C101.9397,271.5964 102.3527,269.1634 103.3447,266.9484 M100.1557,287.2374 C96.2677,288.8364 91.9987,287.2184 88.2677,285.8924 C81.2087,283.3824 73.7977,279.3664 70.8807,272.0304 C70.1997,270.3174 69.8057,268.5014 69.7327,266.6844 C70.1847,268.6944 70.9967,270.6294 72.3307,272.4264 C76.1077,277.5134 82.2187,281.1224 87.9637,283.5474 C92.8417,285.6054 99.3217,287.4524 104.1227,284.2364 C103.0887,285.5384 101.7357,286.5884 100.1557,287.2374 M42.7697,221.7254 C42.6877,221.8544 42.6257,222.0034 42.6077,222.1834 C41.8157,230.1444 41.1517,238.1174 40.6147,246.0994 C40.5797,246.6314 40.9037,246.9294 41.2997,247.0194 C41.6517,250.5554 42.1217,254.1274 41.4337,257.6144 C40.6257,261.7084 38.6527,265.4344 36.4917,268.9614 C36.0357,269.7054 35.5757,270.4784 35.1007,271.2534 C35.0367,270.8094 34.7347,270.3914 34.1657,270.3534 C28.2317,269.9634 22.2717,270.8584 16.7137,272.9484 C16.5977,268.2904 15.8717,263.6654 14.5387,259.1964 C14.4917,259.0404 14.4187,258.9134 14.3297,258.8114 C14.8657,258.3214 15.3887,257.8384 15.8757,257.3614 C18.5147,254.7784 20.5347,251.8514 21.0697,248.1204 C21.3517,246.1474 21.2847,244.1704 21.1617,242.1914 C21.1357,242.1984 21.1097,242.2004 21.0847,242.2064 C20.7807,235.9094 20.4767,229.6114 20.1747,223.3134 C20.1717,223.2664 20.1497,223.2314 20.1427,223.1874 C20.3127,211.3744 20.4837,199.5614 20.6557,187.7484 C22.4937,188.2334 24.3467,188.6764 26.1757,189.1324 C29.6107,189.9904 33.0707,190.7644 36.5667,191.3284 C39.9767,191.8784 43.4187,192.2494 46.8737,192.3044 C47.0727,192.3074 47.2747,192.3084 47.4767,192.3104 C45.4077,202.0294 43.8557,211.8504 42.7697,221.7254 M42.9037,259.9624 C42.3537,266.6184 39.0817,272.8884 34.1197,277.3874 C28.4827,282.4974 18.8977,286.2394 11.6747,282.2294 C9.2257,280.8704 7.3107,278.2854 6.8807,275.5204 C7.0327,275.7554 7.1897,275.9844 7.3547,276.2064 C7.4167,276.3934 7.5427,276.5484 7.7057,276.6654 C11.8337,281.6944 19.5887,282.8144 25.8417,281.3644 C30.1827,280.3564 33.1427,277.7314 35.5737,274.1044 C38.0117,270.4684 40.3827,266.7074 42.0107,262.6284 C42.3587,261.7574 42.6477,260.8634 42.9037,259.9624 M12.7557,260.2534 C14.0767,264.8564 14.7467,269.5914 14.7357,274.3864 C14.7347,274.9704 15.3877,275.6034 16.0017,275.3494 C21.7647,272.9684 27.9437,271.9444 34.1657,272.3534 C34.2657,272.3604 34.3437,272.3344 34.4277,272.3174 C32.9177,274.6614 31.1817,276.8914 28.7537,278.1894 C25.1927,280.0944 20.4737,280.4034 16.5677,279.5804 C12.7447,278.7744 9.1967,276.5244 7.6817,272.7934 C7.5307,272.4234 7.4217,272.0634 7.3247,271.7064 C7.3917,271.5504 7.4507,271.3924 7.5297,271.2384 C7.5567,271.1854 7.5727,271.1344 7.5907,271.0834 C7.5027,270.7734 7.4387,270.4574 7.4037,270.1384 C7.3077,270.0224 7.1887,269.9254 7.0577,269.8564 C6.9537,266.0224 9.8167,262.9774 12.7557,260.2534 M5.3517,55.9244 C6.1147,56.9444 6.9337,57.9254 7.7967,58.8564 C11.0297,62.3484 14.8477,65.2394 18.7297,67.9814 C18.6867,68.0824 18.6527,68.1864 18.6077,68.2864 C20.2657,69.6364 22.0797,70.7764 24.0847,71.4714 C21.8047,79.2434 19.8267,87.0914 17.9977,94.9934 C17.4467,97.3714 16.8497,99.7464 16.1157,102.0714 C9.1907,87.8074 2.4707,72.0334 5.3517,55.9244 M138.7527,53.3664 C138.4677,52.5344 138.1837,51.7034 137.8977,50.8714 C137.9377,50.7244 137.9517,50.5614 137.9097,50.3804 C136.8187,45.6864 135.3457,41.0924 133.4807,36.6474 C132.6007,34.5504 131.6487,32.4804 130.6017,30.4614 C129.9977,29.2974 129.3277,28.1834 128.4447,27.2564 C128.5767,27.2344 128.7067,27.1984 128.8387,27.1834 C127.2677,25.8734 125.4197,24.8914 123.8887,23.5204 C123.9107,23.4764 123.9257,23.4294 123.9487,23.3854 C116.0257,16.9094 106.6007,12.2284 97.1767,8.4744 C90.0817,5.6484 82.8107,3.2984 75.5377,0.9824 C74.9247,0.7874 74.2587,1.3154 74.2717,1.9464 C74.3407,5.1744 71.7957,8.3534 68.4667,8.5604 C66.7297,8.6694 65.0947,7.9954 63.8617,6.8684 C63.8227,6.4654 63.5687,6.0984 63.1477,5.9874 C63.1047,5.9754 63.0627,5.9614 63.0197,5.9484 C62.4287,5.1664 62.0017,4.2564 61.8047,3.2784 C61.7097,2.8054 61.3787,2.5884 61.0157,2.5664 C60.8417,2.4254 60.6077,2.3174 60.3897,2.3274 C60.1747,2.3374 59.9637,2.4144 59.7907,2.5484 C59.6257,2.4214 59.4347,2.3324 59.2197,2.3484 C56.0987,2.5824 52.9927,3.0264 49.9317,3.6814 C49.8367,3.7004 49.7597,3.7534 49.6807,3.8024 C45.7867,4.4064 41.9047,5.1644 38.1657,6.4234 C31.1327,8.7884 24.9527,12.9994 19.6547,18.1444 C14.3557,23.2904 9.9127,29.2564 5.7577,35.3404 C4.7267,36.8494 3.7137,38.3694 2.7077,39.8944 C1.6977,41.4274 0.3367,43.0404 0.1217,44.9224 C-0.0263,46.2204 0.3897,47.4154 1.0237,48.5044 C1.1807,48.5954 1.3217,48.7004 1.4687,48.8024 C1.8957,50.0244 2.4507,51.2064 3.0327,52.3024 C3.2667,52.7404 3.5257,53.1654 3.7837,53.5904 C-0.1433,71.1244 7.1417,88.2064 14.6797,103.6804 C14.8487,104.0254 15.1207,104.1604 15.4047,104.1734 C14.6567,106.2344 13.7737,108.2434 12.6637,110.1534 C12.1797,110.3264 11.8117,110.8194 12.0287,111.3684 C11.9187,111.8864 12.2937,112.3224 12.7667,112.4604 C14.7057,115.1714 17.1427,117.2964 19.8777,118.9974 C19.7147,119.1574 19.6047,119.3814 19.6137,119.6834 C19.7517,124.5214 18.6327,129.2744 17.7307,133.9994 C16.8467,138.6394 15.9607,143.2774 15.0757,147.9174 C13.2907,157.2774 11.5057,166.6384 9.7197,175.9984 C9.6677,176.2714 9.7297,176.5024 9.8437,176.6964 C9.2607,178.1914 9.1167,179.7664 9.8627,181.4504 C11.0097,184.0394 13.5147,185.5064 16.0877,186.3914 C16.9357,186.6834 17.7967,186.9504 18.6637,187.2024 C18.4807,199.8264 18.2977,212.4514 18.1147,225.0754 C18.1617,225.0634 18.2107,225.0604 18.2577,225.0514 C18.5557,231.2254 18.8527,237.4014 19.1497,243.5764 C19.1587,243.7514 19.2087,243.8974 19.2787,244.0244 C19.2987,244.9934 19.2877,245.9614 19.2057,246.9314 C18.8757,250.8764 16.7767,253.7514 13.9977,256.3934 C9.6367,260.5404 3.8397,265.0464 5.2367,271.6124 C4.1537,275.0464 5.2527,278.8294 7.6427,281.5524 C10.8067,285.1594 16.0197,286.1844 20.6037,285.6944 C29.3987,284.7564 37.1567,279.0154 41.4307,271.3824 C43.8367,267.0854 45.1247,262.2044 44.9787,257.2734 C44.9557,256.4874 44.1997,256.1864 43.6247,256.3614 C43.6557,256.0934 43.7007,255.8264 43.7227,255.5564 C43.9427,252.7574 43.5147,249.9664 43.2727,247.1834 C43.1377,245.6084 43.0557,244.0324 43.0087,242.4544 C42.9687,242.4744 42.9267,242.4854 42.8857,242.5024 C43.3277,236.3714 43.8377,230.2454 44.4307,224.1264 C44.4497,224.1364 44.4707,224.1414 44.4887,224.1504 C45.5707,213.5904 47.2177,203.0924 49.4337,192.7034 C49.4657,192.5544 49.4627,192.4154 49.4377,192.2874 C51.4507,192.2144 53.4677,191.9374 55.2737,191.0504 C60.8177,188.3264 60.0507,180.8284 60.6697,175.6834 C61.4427,169.2604 62.8457,162.9204 64.7777,156.7464 C66.8757,164.9704 65.0887,173.6164 65.2967,182.0114 C65.3437,183.8744 65.1907,186.3264 66.1577,187.9964 C67.1447,189.7024 69.2597,189.5744 70.9757,189.7094 C71.6367,189.7614 72.2977,189.8084 72.9587,189.8594 C72.9117,189.9744 72.8817,190.1024 72.8847,190.2534 C73.1347,206.8004 72.6797,223.3544 71.5007,239.8614 C71.1897,244.2164 70.8227,248.5664 70.4137,252.9134 C70.3617,253.0044 70.3107,253.0974 70.2887,253.2224 C69.9237,255.1964 69.5827,257.2204 69.3997,259.2394 C65.3497,266.8084 69.0307,275.9574 75.2257,281.1294 C78.6327,283.9744 82.6427,285.9334 86.7807,287.4744 C90.9257,289.0164 95.7437,290.8544 100.1577,289.3644 C104.2557,287.9814 107.4787,284.3354 108.1217,280.0314 C108.1737,279.6824 108.0547,279.3954 107.8627,279.1804 C108.9247,275.7194 108.2067,271.6474 106.5467,268.4094 C103.3897,262.2484 97.8547,257.0674 92.1457,253.2024 C92.3707,250.2684 93.2677,243.6764 93.3607,242.9494 C93.9057,238.6724 94.4557,234.3954 95.0097,230.1194 C96.1057,221.6484 97.2197,213.1814 98.3507,204.7144 C99.0077,199.7894 99.6717,194.8654 100.3407,189.9414 C100.3527,189.8494 100.3337,189.7684 100.3247,189.6844 C103.8977,189.2114 108.2917,188.6944 111.0067,186.2154 C114.2547,183.2484 112.8367,178.1274 112.4567,174.3254 C111.9587,169.3424 111.5337,164.3514 111.1847,159.3554 C110.3927,148.0544 109.9867,136.7254 109.9517,125.3964 C109.9507,125.0004 109.7517,124.7404 109.4887,124.5884 C111.2507,123.4254 112.7837,121.9174 113.9527,119.9624 C116.4747,115.7454 116.9757,110.5954 116.9127,105.7814 C116.9037,105.0694 116.8827,104.3574 116.8537,103.6454 C116.9597,103.5734 117.0577,103.4774 117.1397,103.3504 C125.7787,90.0614 131.8867,75.1934 135.0777,59.6674 C135.1237,59.4484 135.0857,59.2614 135.0177,59.0914 C136.2227,58.4514 137.7497,57.8504 138.6437,56.8494 C139.5847,55.7974 139.1597,54.5564 138.7527,53.3664" id="bodypose"></path>
        </g>
    </g>
</svg>