<?xml version="1.0" encoding="UTF-8"?>
<svg width="500px" height="600px" viewBox="0 0 500 600" version="1.1" xmlns="http://www.w3.org/2000/svg" xmlns:xlink="http://www.w3.org/1999/xlink">
    <title>holdingbook</title>
    <g id="holdingbook" stroke="none" stroke-width="1" fill="none" fill-rule="evenodd">
        <g id="body" transform="translate(197.897899, 247.941185)" fill="#231F20">
            <path d="M134.671601,61.5391151 C133.963601,62.8061151 132.866601,63.9091151 131.618601,64.8651151 C131.556601,64.7481151 131.496601,64.6371151 131.440601,64.5331151 C130.032601,61.9141151 128.412601,59.3391151 126.287601,57.2371151 C125.253601,56.2141151 124.090601,55.3001151 122.816601,54.5961151 C121.589601,53.9201151 120.072601,53.1861151 118.638601,53.4531151 C117.327601,53.6971151 116.511601,54.8261151 116.384601,56.1091151 C116.233601,57.6351151 117.082601,58.9551151 117.924601,60.1461151 C119.357601,62.1721151 120.800601,64.1911151 122.240601,66.2111151 C119.473601,64.1021151 116.390601,62.3681151 112.982601,62.1991151 C110.862601,62.0941151 108.538601,63.2681151 108.878601,65.7161151 C109.256601,68.4441151 112.155601,69.4091151 114.246601,70.5551151 C115.697601,71.3501151 117.092601,72.2361151 118.433601,73.1961151 C117.322601,72.7581151 116.204601,72.3421151 115.070601,71.9671151 C113.654601,71.4991151 112.189601,70.9861151 110.718601,70.7161151 C109.809601,70.5501151 108.754601,70.5091151 107.925601,70.9861151 C107.093601,71.4631151 106.706601,72.4401151 106.980601,73.3621151 C107.326601,74.5341151 108.502601,75.2591151 109.420601,75.9451151 C111.098601,77.2001151 112.776601,78.4541151 114.454601,79.7071151 C112.360601,78.8311151 110.325601,77.7051151 108.070601,78.8241151 C108.049601,78.8271151 108.032601,78.8201151 108.012601,78.8251151 C105.442601,79.3881151 107.074601,82.8721151 108.055601,84.0901151 C109.365601,85.7181151 111.229601,86.7651151 113.135601,87.5861151 C112.997601,87.6031151 112.859601,87.6491151 112.732601,87.7651151 C111.038601,89.3111151 109.344601,90.8571151 107.650601,92.4031151 C106.803601,93.1761151 105.956601,93.9501151 105.109601,94.7221151 L103.838601,95.8821151 C103.492601,96.1981151 103.138601,96.6061151 102.756601,96.9181151 C102.759601,96.8861151 102.774601,96.8621151 102.773601,96.8281151 C102.455601,82.1501151 102.713601,67.4631151 103.541601,52.8061151 C109.853601,48.8191151 116.531601,45.4441151 123.492601,42.7471151 L123.492601,54.5411151 C123.492601,55.4841151 124.957601,55.4861151 124.957601,54.5411151 L124.957601,41.8171151 C124.957601,41.2901151 124.501601,41.0681151 124.098601,41.1301151 C123.964601,41.0741151 123.809601,41.0561151 123.625601,41.1261151 C122.688601,41.4841151 121.756601,41.8541151 120.829601,42.2351151 C120.832601,42.2121151 120.844601,42.1911151 120.843601,42.1681151 C120.837601,42.0351151 120.792601,41.9101151 120.696601,41.8141151 L120.406601,41.5241151 C120.450601,41.3171151 120.412601,41.0931151 120.219601,40.8971151 C119.206601,39.8701151 118.192601,38.8431151 117.179601,37.8161151 C116.379601,37.0051151 115.599601,36.1271151 114.367601,36.1401151 C113.209601,36.1511151 112.000601,36.6951151 110.906601,37.0361151 C109.760601,37.3921151 108.617601,37.7611151 107.484601,38.1581151 C103.074601,39.7031151 98.7836009,41.7131151 95.3596009,44.9611151 C95.3506009,44.9701151 95.3486009,44.9801151 95.3406009,44.9901151 C95.3116009,44.9781151 95.2926009,44.9581151 95.2616009,44.9491151 C88.7886009,43.1221151 82.0476009,42.6871151 75.3526009,42.6191151 C73.6726009,42.6011151 71.9926009,42.6061151 70.3136009,42.6141151 C68.7716009,42.6221151 67.2176009,42.5911151 65.6916009,42.8441151 C63.2046009,43.2571151 60.6466009,44.8041151 60.2206009,47.4821151 C60.2026009,47.5911151 60.2106009,47.6911151 60.2326009,47.7831151 C59.2546009,47.6791151 58.2766009,47.5751151 57.2996009,47.4711151 C57.1116009,47.3061151 56.8436009,47.2241151 56.6086009,47.2891151 C56.2036009,47.4001151 56.0206009,47.8001151 56.0976009,48.1901151 L57.5446009,55.5361151 C57.5786009,55.7121151 57.6986009,55.8471151 57.8476009,55.9411151 C57.9636009,56.4091151 58.1106009,56.8671151 58.3046009,57.3111151 C52.5846009,59.3711151 48.2866009,64.4781151 45.7406009,69.8911151 C44.5566009,72.4101151 43.6556009,75.0391151 42.8566009,77.6991151 C42.7736009,77.6731151 42.6916009,77.6441151 42.6016009,77.6331151 C38.3286009,77.1551151 34.1926009,75.4951151 30.7456009,72.9241151 C30.7826009,72.8721151 30.8126009,72.8131151 30.8516009,72.7631151 C29.3296009,71.8361151 27.8086009,70.9111151 26.2876009,69.9851151 C26.4346009,69.6351151 26.5826009,69.2871151 26.7586009,68.9521151 C28.6416009,62.7601151 30.6836009,56.6171151 32.9266009,50.5471151 C35.0756009,44.7331151 37.3916009,38.9811151 39.8646009,33.2971151 C40.3736009,32.1291151 38.6506009,31.1091151 38.1376009,32.2881151 C33.8076009,42.2371151 29.9426009,52.3851151 26.5976009,62.7081151 C25.9606009,64.6731151 25.3536009,66.6451151 24.7596009,68.6211151 C24.4106009,68.4981151 24.0756009,68.3451151 23.7396009,68.1951151 C23.6296009,68.0751151 23.4946009,67.9691151 23.3036009,67.9091151 C23.1246009,67.8521151 22.9516009,67.7811151 22.7746009,67.7211151 C22.4906009,67.5711151 22.2056009,67.4271151 21.9316009,67.2601151 C21.9246009,67.2901151 21.9146009,67.3221151 21.9056009,67.3521151 C21.7796009,67.2981151 21.6576009,67.2671151 21.5396009,67.2671151 C12.7336009,63.8761151 5.75760093,56.4601151 2.81460093,47.5191151 C2.98760093,47.4441151 3.14760093,47.3681151 3.32860093,47.2931151 C3.29360093,47.1711151 3.25660093,47.0491151 3.23260093,46.9221151 C3.18060093,46.9241151 3.13160093,46.9181151 3.07660093,46.9291151 C2.98860093,46.7891151 2.88360093,46.6571151 2.80360093,46.5131151 C1.67360093,44.5051151 2.53760093,43.0071151 3.68260093,41.2631151 C4.60960093,39.8491151 5.54160093,38.4371151 6.48460093,37.0341151 C13.8176009,26.1281151 22.2446009,14.9591151 34.4146009,9.17511509 C38.3306009,7.31311509 42.5426009,6.18911509 46.7916009,5.38811509 C48.9016009,4.99011509 51.0256009,4.66911509 53.1506009,4.36911509 C53.4106009,4.33211509 53.7336009,4.26811509 54.0946009,4.20111509 C54.0946009,4.14211509 54.0926009,4.08211509 54.0926009,4.02311509 C55.8256009,3.75011509 57.5686009,3.53811509 59.3216009,3.40711509 C59.3936009,3.40111509 59.4576009,3.37411509 59.5256009,3.35711509 C59.7296009,4.73211509 60.6436009,5.98711509 61.8736009,6.63411509 C63.6046009,8.62911509 66.2236009,9.85711509 68.9096009,9.59111509 C72.7056009,9.21611509 75.7376009,6.02511509 76.2816009,2.34511509 C87.1036009,5.79611509 97.9566009,9.37111509 108.082601,14.5761151 C113.247601,17.2301151 118.226601,20.3071151 122.727601,23.9891151 C124.191601,25.1861151 125.588601,26.4651151 126.943601,27.7861151 C129.763601,34.8851151 132.024601,42.1991151 133.654601,49.6641151 C134.091601,51.6611151 134.484601,53.6671151 134.832601,55.6821151 C135.166601,57.6191151 135.688601,59.7201151 134.671601,61.5391151 M131.014601,70.1661151 C130.415601,70.3411151 130.390601,71.0141151 130.700601,71.3751151 C129.781601,74.3471151 128.152601,76.7321151 126.021601,78.9901151 C124.894601,80.1831151 124.345601,81.6391151 123.536601,83.0401151 C122.746601,84.4101151 121.869601,86.1321151 120.664601,87.1831151 C119.326601,88.3481151 117.513601,87.6751151 116.045601,87.1551151 C114.796601,86.7101151 113.557601,86.2341151 112.382601,85.6171151 C111.248601,85.0221151 110.172601,84.3051151 109.325601,83.3341151 C109.015601,82.9791151 107.481601,80.7251151 108.262601,80.2941151 C108.363601,80.2881151 108.470601,80.2591151 108.577601,80.1981151 C110.111601,79.3351151 111.881601,80.0781151 113.342601,80.7431151 C114.748601,81.3821151 116.144601,82.0001151 117.719601,81.9701151 C118.498601,81.9561151 118.646601,81.0221151 118.088601,80.6051151 C116.070601,79.0971151 114.052601,77.5881151 112.033601,76.0811151 C111.016601,75.3201151 109.865601,74.6151151 108.953601,73.7281151 C108.649601,73.4321151 108.135601,72.8891151 108.447601,72.4291151 C108.660601,72.1141151 109.171601,72.0841151 109.507601,72.0711151 C110.485601,72.0321151 111.474601,72.4071151 112.400601,72.6741151 C113.547601,73.0051151 114.685601,73.3701151 115.812601,73.7661151 C118.168601,74.5931151 120.465601,75.5681151 122.706601,76.6691151 C123.415601,77.0181151 124.239601,76.1161151 123.594601,75.5191151 C121.264601,73.3631151 118.711601,71.4451151 115.967601,69.8441151 C114.731601,69.1231151 113.411601,68.5481151 112.184601,67.8161151 C111.123601,67.1841151 109.441601,65.4951151 110.731601,64.2411151 C111.671601,63.3261151 113.390601,63.6441151 114.510601,63.9191151 C115.890601,64.2571151 117.199601,64.8101151 118.440601,65.4991151 C121.117601,66.9891151 123.428601,69.0321151 125.702601,71.0631151 C126.286601,71.5841151 127.362601,70.8901151 126.853601,70.1751151 C125.127601,67.7491151 123.400601,65.3251151 121.675601,62.8991151 C120.817601,61.6931151 119.953601,60.4911151 119.100601,59.2811151 C118.416601,58.3101151 117.526601,57.0911151 117.920601,55.8361151 C118.741601,53.2161151 123.225601,56.4751151 124.355601,57.4451151 C126.130601,58.9701151 127.548601,60.8511151 128.775601,62.8331151 C129.464601,63.9481151 130.095601,65.0981151 130.695601,66.2621151 C131.151601,67.1451151 132.695601,69.6741151 131.014601,70.1661151 M114.994601,103.677115 C115.116601,107.014115 114.974601,110.369115 114.132601,113.588115 C112.788601,118.728115 109.402601,122.453115 104.268601,123.988115 C101.491601,124.819115 98.5926009,125.100115 95.7176009,125.357115 C92.4256009,125.651115 89.1256009,125.865115 85.8236009,125.997115 C72.5446009,126.531115 59.2036009,125.781115 46.0746009,123.711115 C35.2046009,121.997115 21.2946009,120.019115 14.4546009,110.298115 C16.8416009,106.227115 18.2856009,101.709115 19.4186009,97.1431151 C19.7706009,95.7241151 20.1076009,94.3021151 20.4416009,92.8791151 C27.4906009,96.2861151 35.6596009,96.9181151 43.4316009,96.8641151 C43.6136009,96.8631151 43.7646009,96.8131151 43.8956009,96.7431151 C45.4456009,96.5111151 46.9956009,96.2811151 48.5456009,96.0491151 C50.0596009,95.8241151 51.5926009,95.6551151 52.9496009,94.8901151 C53.2396009,94.7271151 53.3826009,94.4911151 53.4236009,94.2411151 C56.1746009,92.6871151 57.9266009,89.6241151 57.7246009,86.4141151 C58.5676009,86.7481151 59.3716009,87.1591151 60.2436009,87.3931151 C60.2376009,87.4571151 60.2246009,87.5181151 60.2346009,87.5891151 C60.5206009,89.4961151 60.7546009,91.4171151 61.0906009,93.3161151 C61.3576009,94.8211151 62.2666009,95.2641151 63.6856009,95.4821151 C67.2826009,96.0341151 70.8836009,96.5671151 74.4826009,97.1091151 C78.0816009,97.6521151 81.6816009,98.1941151 85.2796009,98.7371151 C87.0796009,99.0071151 88.8796009,99.2781151 90.6796009,99.5501151 C92.1586009,99.7741151 93.7896009,99.9451151 94.9096009,101.041115 C95.1636009,101.289115 95.4686009,101.297115 95.7146009,101.176115 C96.0786009,101.303115 96.5126009,101.188115 96.6096009,100.702115 C96.6426009,100.544115 96.6916009,100.392115 96.7466009,100.245115 C96.8956009,100.132115 96.9966009,99.9581151 97.0016009,99.7191151 C97.5576009,98.8211151 98.5666009,98.2231151 99.6616009,98.2271151 C100.482601,98.2291151 101.121601,98.8001151 101.921601,98.8421151 C102.790601,98.8881151 103.391601,98.2721151 103.985601,97.7301151 L113.768601,88.8011151 C114.091601,88.5061151 114.034601,88.1321151 113.820601,87.8721151 C113.947601,87.9231151 114.074601,87.9771151 114.201601,88.0271151 C114.600601,88.1831151 115.014601,88.3451151 115.437601,88.5001151 C114.711601,93.5361151 114.550601,98.6161151 114.994601,103.677115 M109.898601,166.273115 C110.101601,168.645115 110.321601,171.015115 110.559601,173.384115 C110.773601,175.527115 111.140601,177.700115 111.163094,179.855115 C111.184601,181.913115 110.471601,183.560115 108.644601,184.589115 C106.997601,185.517115 105.045601,185.876115 103.211601,186.241115 C98.8126009,187.116115 94.3306009,187.490115 89.8506009,187.577115 C85.3296009,187.664115 80.8096009,187.457115 76.2996009,187.154115 C74.0096009,186.999115 71.7016009,186.883115 69.4196009,186.637115 C68.2776009,186.514115 67.8306009,186.031115 67.6556009,184.906115 C67.4836009,183.796115 67.4476009,182.644115 67.4116009,181.524115 C67.1066009,172.169115 69.3016009,162.541115 66.2746009,153.449115 C67.1696009,149.768115 68.3176009,146.156115 69.7426009,142.644115 C69.9446009,142.144115 69.5216009,141.545115 69.0436009,141.414115 C68.4726009,141.257115 68.0176009,141.610115 67.8136009,142.113115 C66.6906009,144.883115 65.7366009,147.717115 64.9416009,150.596115 C64.6636009,150.683115 64.4156009,150.873115 64.2926009,151.217115 C62.2486009,156.972115 60.6756009,162.885115 59.6276009,168.903115 C59.1026009,171.920115 58.7006009,174.961115 58.4296009,178.011115 C58.1996009,180.589115 58.2626009,183.454115 57.0326009,185.805115 C55.7326009,188.296115 53.0686009,189.092115 50.4396009,189.293115 C47.4626009,189.521115 44.4256009,189.331115 41.4616009,189.026115 C35.0666009,188.367115 28.7956009,186.821115 22.5946009,185.171115 C19.6376009,184.384115 16.0756009,183.862115 13.6006009,181.938115 C12.4576009,181.050115 11.5036009,179.739115 11.4166009,178.253115 C11.3686009,177.436115 11.6186009,176.670115 11.9836009,175.947115 C11.9366009,174.756115 12.1106009,173.585115 12.4756009,172.457115 C12.4336009,172.454115 12.3936009,172.435115 12.3516009,172.437115 C13.9676009,163.964115 15.5836009,155.492115 17.1996009,147.020115 C18.1006009,142.298115 19.0006009,137.578115 19.9006009,132.857115 C20.7706009,128.304115 21.7966009,123.716115 21.7156009,119.057115 C27.2546009,122.034115 33.7686009,123.523115 39.8226009,124.655115 C53.3816009,127.190115 67.1966009,128.364115 80.9886009,128.135115 C87.5836009,128.026115 94.3026009,127.781115 100.829601,126.778115 C103.375601,126.386115 105.849601,125.687115 108.055601,124.547115 C108.085601,133.875115 108.364601,143.203115 108.907601,152.516115 C109.175601,157.106115 109.505601,161.692115 109.898601,166.273115 M91.1166009,244.723115 C90.8076009,247.165115 90.3546009,249.644115 90.1746009,252.103115 C90.0046009,252.405115 89.9686009,252.787115 90.1416009,253.109115 C90.2216009,254.378115 90.8196009,255.588115 92.2596009,255.659115 C92.6316009,255.677115 92.8836009,255.514115 93.0396009,255.283115 C96.4446009,257.823115 99.5646009,260.806115 102.137601,264.177115 C102.115601,264.209115 102.086601,264.226115 102.067601,264.263115 C100.920601,266.476115 100.270601,268.900115 100.209601,271.395115 C100.179601,272.661115 100.313601,273.930115 100.577601,275.167115 C100.626601,275.394115 100.743601,275.661115 100.736601,275.892115 C100.730601,276.186115 100.897601,276.086115 100.587601,276.081115 C100.076601,276.073115 99.4276009,275.723115 98.9296009,275.593115 C94.0286009,274.315115 88.8246009,274.845115 84.2366009,276.954115 C83.5136009,277.287115 83.6296009,278.074115 84.0986009,278.498115 C80.8456009,276.703115 77.7916009,274.487115 75.3226009,271.843115 C73.0476009,269.408115 71.6726009,266.461115 71.3806009,263.130115 C71.2526009,261.670115 71.2936009,260.211115 71.4246009,258.757115 L71.4246009,258.749115 C71.5836009,256.986115 71.8776009,255.230115 72.1946009,253.492115 C72.3126009,253.346115 72.4056009,253.174115 72.4276009,252.949115 C74.0046009,236.475115 74.8806009,219.938115 75.0306009,203.389115 C75.0736009,198.697115 75.0576009,194.004115 74.9856009,189.312115 C74.9846009,189.215115 74.9526009,189.140115 74.9306009,189.057115 C78.4756009,189.311115 82.0246009,189.516115 85.5766009,189.578115 C89.8756009,189.652115 94.1766009,189.489115 98.4446009,188.981115 C95.9236009,207.551115 93.4796009,226.131115 91.1166009,244.723115 M103.445601,266.008115 C106.222601,270.201115 108.291601,276.325115 104.424601,280.539115 C100.820601,284.467115 94.5876009,282.998115 90.2526009,281.345115 C88.3326009,280.613115 86.4036009,279.737115 84.5326009,278.730115 C84.7506009,278.792115 84.9926009,278.797115 85.2466009,278.681115 C87.6716009,277.566115 90.3186009,276.962115 92.9856009,276.901115 C94.2906009,276.871115 95.6006009,276.956115 96.8856009,277.188115 C98.1056009,277.409115 99.3336009,278.001115 100.563601,278.090115 C101.634601,278.168115 102.527601,277.559115 102.709601,276.477115 C102.894601,275.379115 102.362601,274.174115 102.263601,273.081115 C102.041601,270.655115 102.454601,268.222115 103.445601,266.008115 M100.258601,286.296115 C96.3686009,287.895115 92.1006009,286.278115 88.3706009,284.952115 C81.3106009,282.442115 73.8996009,278.425115 70.9836009,271.088115 C70.3026009,269.376115 69.9066009,267.560115 69.8356009,265.745115 C70.2866009,267.754115 71.0986009,269.688115 72.4326009,271.485115 C76.2106009,276.572115 82.3206009,280.181115 88.0656009,282.606115 C92.9426009,284.664115 99.4236009,286.511115 104.225601,283.295115 C103.190601,284.597115 101.837601,285.647115 100.258601,286.296115 M42.8716009,220.785115 C42.7896009,220.914115 42.7286009,221.062115 42.7096009,221.243115 C41.9186009,229.204115 41.2536009,237.176115 40.7176009,245.159115 C40.6816009,245.690115 41.0066009,245.988115 41.4006009,246.079115 C41.7536009,249.614115 42.2236009,253.186115 41.5356009,256.673115 C40.7286009,260.767115 38.7546009,264.494115 36.5936009,268.020115 C36.1376009,268.764115 35.6776009,269.538115 35.2026009,270.311115 C35.1396009,269.868115 34.8366009,269.450115 34.2676009,269.413115 C28.3346009,269.022115 22.3736009,269.917115 16.8156009,272.008115 C16.6986009,267.350115 15.9736009,262.725115 14.6406009,258.255115 C14.5936009,258.099115 14.5206009,257.972115 14.4316009,257.870115 C14.9686009,257.379115 15.4906009,256.897115 15.9776009,256.420115 C18.6166009,253.837115 20.6376009,250.911115 21.1716009,247.180115 C21.4536009,245.206115 21.3876009,243.229115 21.2636009,241.250115 C21.2376009,241.257115 21.2116009,241.259115 21.1866009,241.265115 C20.8826009,234.967115 20.5796009,228.670115 20.2756009,222.372115 C20.2746009,222.325115 20.2516009,222.290115 20.2446009,222.247115 C20.4156009,210.433115 20.5866009,198.621115 20.7576009,186.807115 C22.5966009,187.292115 24.4476009,187.735115 26.2766009,188.191115 C29.7126009,189.049115 33.1726009,189.823115 36.6686009,190.387115 C40.0776009,190.937115 43.5216009,191.308115 46.9756009,191.363115 C47.1746009,191.366115 47.3776009,191.368115 47.5786009,191.370115 C45.5106009,201.088115 43.9576009,210.911115 42.8716009,220.785115 M43.0056009,259.020115 C42.4556009,265.678115 39.1836009,271.947115 34.2216009,276.446115 C28.5846009,281.556115 19.0006009,285.298115 11.7766009,281.289115 C9.32860093,279.929115 7.41360093,277.344115 6.98260093,274.580115 C7.13460093,274.814115 7.29160093,275.043115 7.45660093,275.265115 C7.51860093,275.453115 7.64460093,275.606115 7.80760093,275.724115 C11.9366009,280.753115 19.6906009,281.873115 25.9426009,280.422115 C30.2846009,279.415115 33.2436009,276.789115 35.6756009,273.164115 C38.1136009,269.527115 40.4846009,265.766115 42.1116009,261.687115 C42.4606009,260.815115 42.7506009,259.922115 43.0056009,259.020115 M12.8586009,259.312115 C14.1786009,263.915115 14.8486009,268.650115 14.8386009,273.444115 C14.8366009,274.029115 15.4886009,274.663115 16.1046009,274.409115 C21.8656009,272.028115 28.0456009,271.002115 34.2676009,271.413115 C34.3676009,271.419115 34.4446009,271.393115 34.5286009,271.376115 C33.0206009,273.720115 31.2836009,275.950115 28.8556009,277.248115 C25.2946009,279.153115 20.5746009,279.462115 16.6696009,278.639115 C12.8466009,277.834115 9.29960093,275.583115 7.78360093,271.852115 C7.63360093,271.482115 7.52360093,271.122115 7.42660093,270.765115 C7.49260093,270.609115 7.55260093,270.452115 7.63160093,270.297115 C7.65860093,270.245115 7.67460093,270.194115 7.69260093,270.142115 C7.60460093,269.832115 7.54160093,269.516115 7.50660093,269.197115 C7.40860093,269.081115 7.29160093,268.984115 7.15860093,268.914115 C7.05560093,265.082115 9.91860093,262.037115 12.8586009,259.312115 M94.9786009,52.9511151 C94.9226009,53.0511151 94.8826009,53.1651151 94.8846009,53.3081151 C95.1026009,68.6561151 95.3186009,84.0031151 95.5366009,99.3501151 C95.5016009,99.4241151 95.4626009,99.4961151 95.4326009,99.5711151 C94.5766009,98.9311151 93.5676009,98.5821151 92.5066009,98.3721151 C90.8426009,98.0431151 89.1456009,97.8471151 87.4696009,97.5941151 C83.9896009,97.0711151 80.5106009,96.5461151 77.0316009,96.0221151 C73.5526009,95.4971151 70.0726009,94.9731151 66.5946009,94.4491151 C65.6346009,94.3041151 64.6706009,94.1781151 63.7146009,94.0151151 C63.4656009,93.9721151 63.1086009,93.9661151 62.8996009,93.8221151 C62.4986009,93.5441151 62.5156009,92.9941151 62.4496009,92.5691151 C62.1946009,90.8971151 61.9486009,89.2231151 61.6996009,87.5501151 C63.1266009,87.4401151 64.3426009,86.5311151 64.6166009,85.0061151 C64.8666009,83.6121151 64.3936009,82.1051151 63.5046009,80.9991151 C64.5776009,81.3711151 65.6586009,81.7231151 66.7516009,82.0371151 C68.4996009,82.5361151 70.2696009,82.9671151 72.0546009,83.3101151 C73.1906009,83.5281151 74.3886009,83.6511151 75.5086009,83.2831151 C76.4716009,82.9661151 77.2676009,82.2381151 77.3586009,81.1831151 C77.4896009,79.6881151 76.2376009,78.2751151 75.4356009,77.1251151 C75.0276009,76.5411151 74.6026009,75.9691151 74.1516009,75.4231151 C74.7966009,75.5191151 75.4556009,75.5601151 76.1356009,75.5211151 C77.2756009,75.4561151 78.6386009,75.2351151 79.3776009,74.2681151 C80.2796009,73.0871151 79.4816009,71.5971151 78.8756009,70.4651151 C78.8616009,70.4401151 78.8456009,70.4161151 78.8316009,70.3921151 C81.7536009,70.6861151 84.6746009,70.9801151 87.5966009,71.2741151 C88.1836009,71.3321151 88.9296009,71.4981151 89.5456009,71.3721151 C89.5976009,71.4141151 89.6556009,71.4491151 89.7256009,71.4691151 C89.9766009,71.5441151 90.2276009,71.5421151 90.4836009,71.5021151 C90.5676009,71.4901151 90.6506009,71.4661151 90.7306009,71.4341151 C90.8516009,71.3861151 90.9686009,71.3361151 91.0746009,71.2611151 C91.1656009,71.1971151 91.2346009,71.1261151 91.2786009,71.0221151 C91.3186009,70.9281151 91.3446009,70.7951151 91.3046009,70.6961151 C91.2886009,70.6571151 91.2736009,70.6181151 91.2566009,70.5781151 C91.3126009,70.4041151 91.3476009,70.2171151 91.3606009,70.0271151 C91.4836009,68.2161151 91.4866009,66.3921151 91.4206009,64.5801151 C91.3556009,62.8051151 91.2046009,61.0331151 90.9736009,59.2721151 C90.9406009,59.0191151 90.8986009,58.2791151 90.7556009,57.5811151 L90.7556009,56.8161151 C90.7556009,56.6491151 90.6566009,56.4941151 90.5176009,56.4051151 C90.4866009,56.1801151 90.3366009,55.9651151 90.0506009,55.9401151 C85.2726009,55.5341151 80.4936009,55.1271151 75.7156009,54.7211151 C72.5676009,54.3011151 69.4226009,53.8581151 66.2816009,53.3841151 C66.2476009,53.3791151 66.2186009,53.3881151 66.1866009,53.3891151 C66.1006009,53.3251151 65.9926009,53.2751151 65.8896009,53.2801151 C65.6426009,53.2911151 65.3596009,53.5011151 65.3896009,53.7801151 C65.4536009,54.3891151 65.5186009,54.9971151 65.5826009,55.6051151 C65.5976009,55.7421151 65.6286009,55.8591151 65.7296009,55.9591151 C65.7336009,55.9641151 65.7426009,55.9671151 65.7486009,55.9721151 C65.7696009,56.1851151 65.8586009,56.3861151 66.0376009,56.5311151 C66.1096009,56.5901151 66.1926009,56.6281151 66.2776009,56.6621151 C64.6566009,56.3531151 62.9956009,56.2731151 61.3006009,56.5351151 C60.5946009,56.6431151 59.9116009,56.8111151 59.2416009,57.0081151 C59.2366009,56.9961151 59.2366009,56.9841151 59.2316009,56.9731151 C59.2216009,56.9511151 59.2116009,56.9291151 59.2016009,56.9081151 C59.3676009,56.7881151 59.4776009,56.5791151 59.4026009,56.3731151 C59.2536009,55.9581151 59.1046009,55.5441151 58.9536009,55.1301151 C58.5506009,53.0811151 58.1476009,51.0321151 57.7426009,48.9831151 C70.1546009,50.3061151 82.5666009,51.6281151 94.9786009,52.9511151 M98.8056009,49.6371151 C97.4956009,49.7231151 96.2986009,50.4781151 95.6216009,51.5771151 C95.5846009,51.5671151 95.5566009,51.5471151 95.5166009,51.5431151 C84.2146009,50.3391151 72.9126009,49.1351151 61.6106009,47.9301151 C61.6156009,47.9091151 61.6296009,47.8951151 61.6336009,47.8721151 C62.0886009,45.0121151 65.1826009,44.2231151 67.6526009,44.1151151 C70.6726009,43.9821151 73.7226009,44.0481151 76.7426009,44.1031151 C82.8516009,44.2141151 88.9706009,44.6961151 94.8716009,46.3621151 C95.1926009,46.4521151 95.4426009,46.3301151 95.5996009,46.1291151 C95.8436009,46.2451151 96.1436009,46.2371151 96.3966009,45.9971151 C99.4836009,43.0681151 103.341601,41.2031151 107.309601,39.7711151 C109.234601,39.0771151 111.192601,38.4691151 113.151601,37.8791151 C113.856601,37.6681151 114.573601,37.4251151 115.212601,37.9311151 C115.643601,38.2721151 116.012601,38.7191151 116.397601,39.1091151 C117.325601,40.0501151 118.254601,40.9921151 119.184601,41.9331151 C119.313601,42.0641151 119.457601,42.1151151 119.600601,42.1311151 C119.729601,42.2621151 119.859601,42.3921151 119.989601,42.5211151 C120.007601,42.5391151 120.033601,42.5491151 120.055601,42.5651151 C113.955601,45.1231151 108.076601,48.1811151 102.490601,51.7331151 C101.756601,50.4361151 100.334601,49.5371151 98.8056009,49.6371151 M101.307601,96.8281151 C101.311601,96.9741151 101.357601,97.0891151 101.419601,97.1911151 C100.936601,97.0571151 100.425601,96.8151151 99.9836009,96.7791151 C99.2736009,96.7191151 98.5586009,96.8561151 97.9016009,97.1311151 C97.5726009,97.2691151 97.2646009,97.4471151 96.9776009,97.6521151 C96.7696009,82.9131151 96.5606009,68.1731151 96.3516009,53.4351151 C96.4456009,53.3501151 96.5256009,53.2421151 96.5636009,53.0831151 C96.8136009,52.0421151 97.7606009,51.1711151 98.8056009,51.1021151 C99.8596009,51.0331151 100.967601,51.6931151 101.345601,52.6871151 C101.463601,52.9971151 101.733601,53.2111151 102.055601,53.2111151 C101.244601,67.7341151 100.993601,82.2861151 101.307601,96.8281151 M17.7376009,89.0161151 C17.6976009,88.9561151 17.6516009,88.8901151 17.6116009,88.8301151 C17.5786009,88.8071151 17.5436009,88.7891151 17.5106009,88.7661151 C10.2976009,83.9361151 5.23960093,76.3831151 3.53060093,67.8701151 C2.65060093,63.4781151 2.74860093,58.9511151 3.85460093,54.6221151 C7.79560093,61.3221151 14.0216009,66.6391151 21.3706009,69.3331151 C22.2676009,69.8791151 23.1636009,70.4251151 24.0616009,70.9711151 C24.0436009,71.0311151 24.0266009,71.0911151 24.0096009,71.1521151 C24.5686009,71.3851151 25.1086009,71.6251151 25.6236009,71.9281151 C25.6246009,71.9261151 25.6246009,71.9241151 25.6256009,71.9231151 L27.4976009,73.0631151 C27.8076009,73.2181151 28.1046009,73.3891151 28.4016009,73.5601151 C28.4406009,73.6171151 28.4666009,73.6821151 28.5226009,73.7281151 C32.3876009,76.8731151 36.9876009,78.8531151 41.9106009,79.5321151 C41.8616009,79.6411151 41.8226009,79.7621151 41.7716009,79.8701151 C41.9556009,79.8371151 42.1316009,79.7761151 42.2766009,79.6621151 C42.0076009,80.6171151 41.7446009,81.5731151 41.4846009,82.5291151 C41.2366009,83.4401151 42.6506009,83.8291151 42.8986009,82.9181151 C44.7336009,76.1681151 46.6556009,68.9161151 51.5536009,63.6641151 C53.7046009,61.3551151 56.3826009,59.4531151 59.4046009,58.4861151 C62.6536009,57.4461151 65.9626009,57.7301151 69.1146009,58.9751151 C71.0586009,59.7421151 72.8806009,60.7921151 74.6726009,61.8591151 C76.0376009,62.6721151 77.7126009,63.5121151 78.5756009,64.9171151 C77.0376009,65.5121151 75.3876009,65.4051151 73.7656009,65.0771151 C73.4216009,64.8661151 73.0706009,64.6651151 72.7116009,64.4831151 C72.3816009,64.3161151 72.0706009,64.4131151 71.8616009,64.6141151 C71.4906009,64.5131151 71.1236009,64.4101151 70.7646009,64.3111151 C68.0286009,63.5631151 65.1236009,62.8131151 62.3356009,63.7381151 C61.4446009,64.0331151 61.8256009,65.4481151 62.7256009,65.1501151 C66.1716009,64.0081151 69.6346009,65.5831151 73.0776009,66.3821151 C74.8936009,67.5231151 76.4156009,69.0741151 77.4766009,70.9601151 C77.7776009,71.4971151 78.1726009,72.1231151 78.2796009,72.7311151 C78.4246009,73.5491151 77.7376009,73.7871151 77.0756009,73.9341151 C75.9436009,74.1851151 74.7386009,74.0811151 73.6216009,73.8091151 C73.1086009,73.6841151 72.6086009,73.5271151 72.1166009,73.3511151 C71.1966009,72.5811151 70.1756009,71.9391151 68.9986009,71.5121151 C68.7146009,71.4091151 68.4906009,71.4941151 68.3356009,71.6531151 C65.8806009,70.4131151 63.4506009,69.1251151 60.6276009,68.8721151 C59.6896009,68.7871151 59.6946009,70.2521151 60.6276009,70.3361151 C64.5466009,70.6901151 67.8426009,73.3071151 71.4576009,74.6871151 C72.4246009,75.5491151 73.2586009,76.5781151 74.0046009,77.6301151 C74.3626009,78.1341151 74.7056009,78.6481151 75.0456009,79.1641151 C75.3896009,79.6881151 76.0826009,80.5061151 75.8796009,81.1891151 C75.6196009,82.0591151 74.2926009,82.0791151 73.5686009,82.0471151 C72.3006009,81.9941151 71.0096009,81.6131151 69.7786009,81.3171151 C68.3986009,80.9851151 67.0276009,80.6071151 65.6716009,80.1841151 C62.8546009,79.3041151 60.1086009,78.2261151 57.4416009,76.9641151 C56.5706009,76.5531151 55.9626009,77.6611151 56.7016009,78.2301151 C58.2396009,79.4141151 60.1396009,80.0231151 61.6546009,81.2321151 C62.7386009,82.0961151 63.6796009,83.8011151 63.0426009,85.2031151 C62.1506009,87.1661151 59.4186009,85.5091151 58.1176009,84.9991151 C56.6056009,84.4061151 54.9256009,84.2151151 53.6166009,85.3351151 C52.9006009,85.9491151 53.9406009,86.9811151 54.6526009,86.3711151 C55.1086009,85.9821151 55.6856009,85.9191151 56.2636009,85.9961151 C56.2566009,86.0481151 56.2396009,86.0941151 56.2456009,86.1551151 C56.4246009,88.0171151 55.8796009,89.8701151 54.6926009,91.3261151 C54.0586009,92.1051151 53.3046009,92.6421151 52.4776009,93.0451151 C52.3066009,93.0371151 52.1276009,93.0581151 51.9406009,93.1641151 C50.7126009,93.8551151 49.2046009,93.9431151 47.8376009,94.1471151 C46.2476009,94.3841151 44.6576009,94.6221151 43.0676009,94.8581151 C43.0636009,94.8591151 43.0606009,94.8631151 43.0556009,94.8641151 C34.3146009,94.9011151 25.1476009,94.0471151 17.7376009,89.0161151 M136.554601,53.9891151 C135.726601,49.4251151 134.669601,44.9021151 133.390601,40.4431151 C132.140601,36.0841151 130.660601,31.7961151 128.996601,27.5801151 C129.115601,27.4871151 129.238601,27.3991151 129.368601,27.3211151 C129.113601,27.0571151 128.848601,26.8051151 128.588601,26.5461151 C128.482601,26.2811151 128.382601,26.0131151 128.274601,25.7481151 C128.055601,25.2171151 127.541601,25.0341151 127.087601,25.1001151 C118.603601,17.2191151 107.941601,11.7811151 97.2776009,7.53411509 C90.1846009,4.70711509 82.9126009,2.35711509 75.6396009,0.0411150861 C75.0256009,-0.153884914 74.3596009,0.374115086 74.3736009,1.00511509 C74.4426009,4.23211509 71.8986009,7.41311509 68.5686009,7.62011509 C66.8326009,7.72811509 65.1956009,7.05411509 63.9636009,5.92711509 C63.9246009,5.52311509 63.6706009,5.15711509 63.2496009,5.04611509 C63.2066009,5.03511509 63.1646009,5.01911509 63.1216009,5.00711509 C62.5296009,4.22511509 62.1036009,3.31411509 61.9066009,2.33711509 C61.8116009,1.86411509 61.4806009,1.64711509 61.1176009,1.62511509 C60.9436009,1.48411509 60.7096009,1.37611509 60.4916009,1.38611509 C60.2756009,1.39611509 60.0656009,1.47411509 59.8936009,1.60711509 C59.7276009,1.48011509 59.5356009,1.39111509 59.3216009,1.40711509 C56.1996009,1.64111509 53.0946009,2.08511509 50.0326009,2.73911509 C49.9396009,2.75911509 49.8606009,2.81111509 49.7816009,2.86011509 C45.8896009,3.46611509 42.0076009,4.22411509 38.2676009,5.48111509 C31.2346009,7.84811509 25.0546009,12.0591151 19.7566009,17.2031151 C14.4586009,22.3491151 10.0146009,28.3151151 5.85960093,34.3991151 C4.82860093,35.9081151 3.81560093,37.4281151 2.80960093,38.9541151 C1.79960093,40.4851151 0.438600926,42.0991151 0.223600926,43.9811151 C0.218600926,44.0271151 0.226600926,44.0701151 0.222600926,44.1161151 C0.0476009256,44.3301151 -0.0493990744,44.6111151 0.0256009256,44.9531151 C0.235600926,45.9291151 0.508600926,46.8861151 0.807600926,47.8321151 C0.655600926,47.9141151 0.503600926,47.9921151 0.351600926,48.0701151 C0.502600926,48.2081151 0.652600926,48.3481151 0.804600926,48.4851151 C0.862600926,48.4531151 0.930600926,48.4221151 0.989600926,48.3901151 C1.44360093,49.7401151 1.99260093,51.0511151 2.61460093,52.3251151 C2.46960093,52.4381151 2.34160093,52.5851151 2.27460093,52.8061151 C-0.391399074,61.5301151 1.08260093,71.1431151 5.62660093,78.9851151 C8.22560093,83.4681151 11.8286009,87.2061151 16.0276009,90.1171151 C16.1006009,90.2591151 16.2056009,90.3921151 16.3606009,90.5021151 C17.0906009,91.0151151 17.8436009,91.4761151 18.6066009,91.9131151 C18.4386009,92.6251151 18.2656009,93.3371151 18.0996009,94.0521151 C16.8856009,99.2941151 15.4816009,104.537115 12.7666009,109.212115 C12.2806009,109.385115 11.9136009,109.878115 12.1316009,110.427115 C12.0206009,110.945115 12.3956009,111.381115 12.8676009,111.519115 C14.8076009,114.230115 17.2456009,116.355115 19.9806009,118.056115 C19.8176009,118.216115 19.7076009,118.440115 19.7166009,118.742115 C19.8546009,123.581115 18.7336009,128.333115 17.8326009,133.058115 C16.9476009,137.698115 16.0636009,142.336115 15.1786009,146.976115 C13.3926009,156.336115 11.6076009,165.697115 9.82160093,175.057115 C9.76960093,175.331115 9.83260093,175.561115 9.94460093,175.754115 C9.36160093,177.250115 9.21860093,178.826115 9.96460093,180.509115 C11.1116009,183.098115 13.6156009,184.565115 16.1906009,185.451115 C17.0376009,185.743115 17.8996009,186.009115 18.7656009,186.261115 C18.5826009,198.885115 18.4006009,211.510115 18.2176009,224.134115 C18.2636009,224.123115 18.3126009,224.120115 18.3596009,224.110115 C18.6566009,230.285115 18.9546009,236.460115 19.2526009,242.635115 C19.2606009,242.810115 19.3106009,242.956115 19.3816009,243.084115 C19.4006009,244.051115 19.3896009,245.020115 19.3086009,245.990115 C18.9776009,249.935115 16.8786009,252.810115 14.0996009,255.453115 C9.73860093,259.599115 3.94160093,264.106115 5.33960093,270.671115 C4.25660093,274.104115 5.35560093,277.887115 7.74360093,280.612115 C10.9076009,284.219115 16.1216009,285.243115 20.7056009,284.753115 C29.5006009,283.815115 37.2586009,278.074115 41.5316009,270.442115 C43.9386009,266.144115 45.2276009,261.264115 45.0806009,256.332115 C45.0576009,255.547115 44.3026009,255.246115 43.7266009,255.420115 C43.7576009,255.152115 43.8036009,254.885115 43.8246009,254.615115 C44.0446009,251.815115 43.6156009,249.025115 43.3756009,246.242115 C43.2386009,244.667115 43.1566009,243.091115 43.1096009,241.514115 C43.0706009,241.533115 43.0276009,241.543115 42.9876009,241.561115 C43.4296009,235.430115 43.9406009,229.304115 44.5316009,223.185115 C44.5516009,223.195115 44.5716009,223.201115 44.5906009,223.209115 C45.6726009,212.649115 47.3186009,202.151115 49.5356009,191.762115 C49.5676009,191.613115 49.5646009,191.474115 49.5396009,191.346115 C51.5526009,191.273115 53.5686009,190.997115 55.3756009,190.109115 C60.9206009,187.385115 60.1516009,179.887115 60.7726009,174.743115 C61.5446009,168.319115 62.9476009,161.979115 64.8796009,155.805115 C66.9786009,164.029115 65.1906009,172.675115 65.3996009,181.070115 C65.4446009,182.933115 65.2926009,185.385115 66.2596009,187.055115 C67.2466009,188.761115 69.3606009,188.633115 71.0766009,188.768115 C71.7376009,188.820115 72.3996009,188.868115 73.0606009,188.918115 C73.0146009,189.034115 72.9836009,189.162115 72.9856009,189.312115 C73.2356009,205.859115 72.7806009,222.414115 71.6036009,238.920115 C71.2916009,243.275115 70.9246009,247.625115 70.5156009,251.972115 C70.4636009,252.063115 70.4126009,252.157115 70.3906009,252.281115 C70.0256009,254.255115 69.6846009,256.279115 69.5016009,258.298115 C65.4506009,265.867115 69.1326009,275.016115 75.3266009,280.188115 C78.7336009,283.033115 82.7436009,284.992115 86.8826009,286.532115 C91.0266009,288.075115 95.8456009,289.914115 100.259601,288.424115 C104.357601,287.040115 107.580601,283.394115 108.223601,279.090115 C108.275601,278.741115 108.156601,278.455115 107.965601,278.239115 C109.025601,274.778115 108.308601,270.706115 106.649601,267.468115 C103.491601,261.307115 97.9576009,256.126115 92.2486009,252.260115 C92.4726009,249.328115 93.3696009,242.735115 93.4626009,242.008115 C94.0076009,237.731115 94.5576009,233.455115 95.1106009,229.178115 C96.2076009,220.707115 97.3216009,212.240115 98.4516009,203.774115 C99.1096009,198.848115 99.7736009,193.924115 100.442601,189.000115 C100.454601,188.908115 100.435601,188.828115 100.426601,188.744115 C103.999601,188.270115 108.394601,187.753115 111.108601,185.274115 C114.356601,182.307115 112.939601,177.186115 112.559601,173.384115 C112.060601,168.401115 111.636601,163.411115 111.285601,158.414115 C110.494601,147.113115 110.089601,135.786115 110.054601,124.456115 C110.053601,124.059115 109.854601,123.799115 109.590601,123.647115 C111.353601,122.484115 112.885601,120.976115 114.055601,119.021115 C116.359601,115.166115 116.969601,110.534115 117.010601,106.089115 C117.127601,105.936115 117.203601,105.741115 117.172601,105.477115 C117.098601,104.835115 117.034601,104.192115 116.979601,103.548115 C116.968601,103.184115 116.964601,102.820115 116.948601,102.456115 C116.934601,102.464115 116.916601,102.468115 116.900601,102.477115 C116.586601,98.0101151 116.729601,93.5161151 117.362601,89.0811151 C118.981601,89.4321151 120.600601,89.3491151 121.900601,88.0251151 C122.923601,86.9861151 123.692601,85.6121151 124.447601,84.3751151 C125.328601,82.9311151 125.882601,81.2651151 127.057601,80.0261151 C129.438601,77.5141151 131.256601,74.7961151 132.220601,71.4371151 C132.245601,71.3471151 132.243601,71.2671151 132.239601,71.1881151 C133.677601,70.2281151 133.216601,68.2911151 132.484601,66.6111151 C133.261601,66.0231151 134.008601,65.3941151 134.700601,64.6981151 C135.932601,63.4591151 136.947601,61.9901151 137.195601,60.2281151 C137.484601,58.1771151 136.919601,56.0001151 136.554601,53.9891151" id="Fill-22"></path>
            <path d="M97.0369009,48.7730151 C92.8089009,47.8680151 88.5259009,47.2260151 84.2189009,46.8630151 C79.9289009,46.5010151 75.6589009,46.5550151 71.3599009,46.5350151 C68.9249009,46.5230151 66.4909009,46.3840151 64.1229009,45.7750151 C63.4999009,45.6150151 63.2329009,46.5790151 63.8569009,46.7400151 C67.9859009,47.8010151 72.2619009,47.4790151 76.4789009,47.5090151 C80.8329009,47.5400151 85.1869009,47.8490151 89.4999009,48.4500151 C91.9379009,48.7900151 94.3639009,49.2220151 96.7709009,49.7370151 C97.3989009,49.8720151 97.6669009,48.9080151 97.0369009,48.7730151" id="Fill-16"></path>
            <path d="M115.517301,38.9614151 C109.339301,41.2144151 103.564301,44.4194151 98.3773009,48.4614151 C97.8713009,48.8564151 98.5823009,49.5594151 99.0843009,49.1684151 C104.126301,45.2404151 109.780301,42.1154151 115.783301,39.9254151 C116.382301,39.7064151 116.123301,38.7404151 115.517301,38.9614151" id="Fill-18"></path>
            <path d="M117.269301,40.8452151 C111.760301,43.0022151 106.504301,45.7512151 101.604301,49.0652151 C101.074301,49.4232151 101.573301,50.2902151 102.108301,49.9282151 C106.935301,46.6652151 112.109301,43.9342151 117.535301,41.8092151 C118.127301,41.5772151 117.870301,40.6102151 117.269301,40.8452151" id="Fill-20"></path>
        </g>
    </g>
</svg>