<?xml version="1.0" encoding="UTF-8"?>
<svg width="500px" height="600px" viewBox="0 0 500 600" version="1.1" xmlns="http://www.w3.org/2000/svg" xmlns:xlink="http://www.w3.org/1999/xlink">
    <title>holdingglass</title>
    <g id="holdingglass" stroke="none" stroke-width="1" fill="none" fill-rule="evenodd">
        <g id="body" transform="translate(196.000000, 247.000000)" fill="#231F20">
            <path d="M124.8729,61.0278 C122.1289,62.9198 119.0429,64.2728 115.8039,65.0118 C115.5839,64.8848 115.3169,64.8408 115.0389,64.9028 C113.6439,65.2108 112.2499,65.5188 110.8539,65.8278 C109.3829,59.6328 108.6449,53.3038 108.6679,46.9328 C108.6719,45.6458 106.6719,45.6448 106.6679,46.9328 C106.6439,53.8528 107.4919,60.7538 109.1859,67.4628 C109.3969,68.2988 110.3259,68.3248 110.8239,67.8808 C111.4189,67.7488 112.0129,67.6178 112.6069,67.4858 C112.6089,67.4868 112.6099,67.4878 112.6109,67.4878 C107.9959,71.4828 102.3809,74.2008 96.4209,75.4158 C96.3509,75.3308 96.2729,75.2478 96.1779,75.1758 L93.0129,72.8358 C92.5369,72.3928 92.0459,71.9688 91.5379,71.5678 L91.1679,71.2088 C91.1719,71.2328 91.1759,71.2568 91.1799,71.2808 C88.8519,69.5088 86.2149,68.1598 83.4019,67.3118 C83.1049,67.2218 82.8529,67.2708 82.6529,67.3928 C82.5139,62.1318 82.3739,56.8688 82.2339,51.6068 C82.2239,51.1948 82.0029,50.9288 81.7189,50.7828 C82.0939,50.2948 82.0389,49.4018 81.2689,49.1168 C75.8489,47.0998 70.0569,46.1218 64.2719,46.2588 C61.4509,46.3258 58.6309,46.6558 55.8689,47.2378 C53.8719,47.6588 50.4489,47.9618 49.6779,50.2178 C49.6429,50.3208 49.6449,50.4108 49.6419,50.5028 C49.2879,50.6268 49.1139,50.9798 49.1179,51.3548 C49.0759,51.3528 49.0329,51.3438 48.9899,51.3408 C49.8259,57.2728 50.6789,63.2018 51.5639,69.1258 C49.8729,68.3398 48.0869,69.1478 46.8339,70.3508 C45.0159,72.0958 43.4629,74.2028 41.8209,76.1138 C41.7739,76.1688 41.7579,76.2278 41.7249,76.2848 C41.7169,76.2838 41.7129,76.2778 41.7049,76.2768 C37.9039,75.5238 34.1809,74.4208 30.5809,72.9938 C29.4489,72.3038 28.3169,71.6148 27.1859,70.9258 C27.3319,70.5768 27.4809,70.2278 27.6559,69.8918 C29.5389,63.7018 31.5809,57.5578 33.8249,51.4888 C35.9749,45.6738 38.2889,39.9228 40.7629,34.2388 C41.2709,33.0698 39.5489,32.0498 39.0359,33.2288 C34.7059,43.1788 30.8419,53.3268 27.4959,63.6488 C26.8579,65.6148 26.2509,67.5868 25.6579,69.5618 C25.3099,69.4398 24.9749,69.2868 24.6379,69.1358 C24.5279,69.0148 24.3939,68.9108 24.2019,68.8498 C24.0219,68.7938 23.8499,68.7218 23.6719,68.6628 C23.3899,68.5108 23.1029,68.3688 22.8289,68.2008 C22.8219,68.2318 22.8129,68.2628 22.8049,68.2938 C22.6779,68.2398 22.5569,68.2088 22.4369,68.2088 C13.6309,64.8168 6.6549,57.4008 3.7119,48.4608 C3.8859,48.3848 4.0459,48.3088 4.2269,48.2338 C4.1909,48.1118 4.1539,47.9908 4.1309,47.8628 C4.0789,47.8648 4.0299,47.8598 3.9759,47.8708 C3.8869,47.7298 3.7819,47.5978 3.7009,47.4548 C2.5709,45.4468 3.4349,43.9488 4.5799,42.2048 C5.5079,40.7908 6.4389,39.3788 7.3839,37.9748 C14.7159,27.0698 23.1439,15.9008 35.3119,10.1168 C39.2289,8.2558 43.4399,7.1308 47.6889,6.3298 C49.7999,5.9308 51.9239,5.6108 54.0499,5.3098 C54.3089,5.2728 54.6329,5.2098 54.9919,5.1418 C54.9929,5.0828 54.9899,5.0228 54.9899,4.9648 C56.7249,4.6908 58.4669,4.4798 60.2199,4.3478 C60.2909,4.3428 60.3549,4.3158 60.4239,4.2988 C60.6269,5.6738 61.5419,6.9288 62.7719,7.5758 C64.5019,9.5698 67.1209,10.7988 69.8079,10.5328 C73.6029,10.1578 76.6359,6.9658 77.1799,3.2868 C88.0009,6.7378 98.8549,10.3118 108.9799,15.5168 C110.5889,16.3428 112.1599,17.2408 113.7169,18.1658 C114.8299,19.3668 115.9659,20.5458 117.1229,21.7048 C121.7209,26.9268 124.5689,33.3658 126.5679,39.9948 C127.6569,43.6068 128.5229,47.2808 129.3379,50.9628 C129.8029,53.0658 130.6439,55.2558 129.2129,57.1518 C128.0639,58.6738 126.4329,59.9538 124.8729,61.0278 M123.8529,79.9598 C120.6639,85.6318 115.0289,89.4228 108.6739,90.6358 C107.7569,90.8118 106.8329,90.9248 105.9079,90.9838 L105.9369,91.0718 C102.5449,91.4238 99.1049,91.9058 95.8479,92.8858 C95.7669,92.9028 95.6869,92.9068 95.6049,92.9458 C95.5749,92.9598 95.5439,92.9708 95.5139,92.9858 C95.0639,93.1268 94.6169,93.2748 94.1759,93.4368 C93.8539,93.6018 93.5289,93.7598 93.2059,93.9218 C93.2269,93.9348 93.2439,93.9568 93.2639,93.9718 C91.2919,94.8278 89.3029,95.6398 87.2739,96.3548 C86.0699,96.7798 84.7519,97.3898 83.4729,97.5378 C82.8369,97.6118 82.6019,97.4278 82.1849,96.9958 C81.8299,96.6278 81.4769,96.4228 81.0189,96.3198 C80.8139,96.0148 80.6559,95.6808 80.5749,95.3138 C80.2649,93.9128 81.3049,92.3468 82.7749,92.2978 C84.0409,92.1978 84.0759,90.2538 82.7749,90.2978 C81.3399,90.4108 77.6949,90.6578 77.8089,88.2968 C77.8939,86.4868 80.9649,85.4888 82.1399,84.4758 C82.9639,83.7658 82.0569,82.6398 81.1669,82.8038 C79.9909,83.0218 78.8039,83.0948 77.6109,82.9988 C77.0659,82.9548 74.9899,82.7968 74.7909,81.9798 C74.5869,81.1468 76.5139,80.2768 77.0589,80.0218 C78.0189,79.5738 79.0569,79.3298 80.1099,79.2478 C81.3889,79.1478 81.4039,77.3258 80.1099,77.2478 C78.7029,77.1628 76.6149,77.1148 75.8299,75.7028 C74.7239,73.7138 77.0619,73.4368 78.4819,73.2998 C81.3299,73.0278 84.1939,73.4318 86.8629,74.4198 C86.8599,74.2388 86.8779,74.0608 86.9179,73.8858 C86.8319,73.4488 86.7749,73.0048 86.7359,72.5628 C86.7269,72.4638 86.7239,72.3648 86.7169,72.2648 C85.4279,71.8488 84.1039,71.5518 82.7459,71.3838 C82.7469,71.3618 82.7579,71.3458 82.7579,71.3218 C82.7379,70.5978 82.7189,69.8738 82.6999,69.1488 C82.7579,69.1788 82.8019,69.2198 82.8699,69.2408 C86.0619,70.2028 88.9909,71.8778 91.4529,74.1158 C91.4559,74.1318 91.4629,74.1488 91.4659,74.1658 L91.6739,74.3188 C91.7949,74.4328 91.9229,74.5408 92.0419,74.6578 C92.1739,74.7868 92.3159,74.8568 92.4589,74.8998 L95.1679,76.9038 C95.3409,77.0308 95.6309,77.0558 95.8509,77.0188 C95.8889,77.1938 95.9329,77.3688 95.9699,77.5438 C102.8319,76.2988 109.2569,73.1938 114.4859,68.5068 C114.9199,68.1188 114.8549,67.6258 114.5809,67.2718 C118.0929,66.6848 121.4679,65.4798 124.5309,63.6288 C125.0149,63.3358 125.4879,63.0248 125.9549,62.7028 C127.5539,68.4558 126.7919,74.7358 123.8529,79.9598 M115.0299,114.5288 C113.6859,119.6698 110.3019,123.3938 105.1659,124.9288 C102.3899,125.7588 99.4899,126.0418 96.6149,126.2988 C93.3229,126.5918 90.0239,126.8058 86.7219,126.9388 C73.4419,127.4718 60.1019,126.7218 46.9729,124.6518 C36.1029,122.9388 22.1929,120.9608 15.3529,111.2398 C17.7389,107.1688 19.1849,102.6508 20.3159,98.0848 C20.6679,96.6658 21.0049,95.2438 21.3389,93.8208 C22.1969,94.2358 23.0769,94.5958 23.9669,94.9298 C24.0539,94.9998 24.1439,95.0668 24.2659,95.1098 C24.3849,95.1518 24.5049,95.1778 24.6239,95.2168 C24.7409,95.3678 24.8999,95.4938 25.1469,95.5468 C32.7159,97.1338 40.6859,95.3458 48.1429,97.5228 C50.0469,98.0788 51.7249,98.9798 53.4239,99.9808 C54.9489,100.8798 56.5489,101.7908 58.3239,102.0618 C60.0089,102.3198 61.8799,101.9138 63.2089,100.8768 C63.3079,100.9518 63.4229,101.0148 63.5659,101.0518 C69.3589,102.5708 75.5269,101.9058 80.8769,99.2278 C80.9629,99.1838 81.0149,99.1248 81.0779,99.0698 C81.1109,99.0908 81.1429,99.1188 81.1779,99.1388 C81.2349,99.0858 81.3009,99.0408 81.3609,98.9898 C81.4739,99.0758 81.5909,99.1558 81.7149,99.2208 C82.2829,99.5258 82.9529,99.5908 83.5849,99.5238 C85.0279,99.3708 86.4469,98.7628 87.8059,98.2838 C90.5999,97.2988 93.3439,96.1728 96.0349,94.9348 C99.8319,93.7218 103.9039,93.2588 107.8609,92.8788 C108.0539,92.8598 108.2079,92.7888 108.3429,92.6978 C110.9559,92.2918 113.4959,91.4588 115.8559,90.2528 C115.9179,92.3788 115.7949,94.5078 115.4349,96.6068 C115.3769,96.9548 115.4699,97.2978 115.6869,97.5438 C115.6289,99.9018 115.6849,102.2608 115.8929,104.6188 C116.0159,107.9548 115.8719,111.3098 115.0299,114.5288 M110.7969,167.2148 C110.9999,169.5858 111.2199,171.9568 111.4569,174.3258 C111.6709,176.4678 112.0379,178.6408 112.060393,180.7968 C112.0819,182.8538 111.3689,184.5018 109.5429,185.5308 C107.8949,186.4588 105.9429,186.8178 104.1099,187.1818 C99.7109,188.0558 95.2289,188.4308 90.7489,188.5168 C86.2279,188.6048 81.7069,188.3988 77.1979,188.0948 C74.9079,187.9408 72.6009,187.8248 70.3179,187.5788 C69.1759,187.4558 68.7279,186.9718 68.5539,185.8468 C68.3819,184.7378 68.3469,183.5858 68.3099,182.4658 C68.0039,173.1108 70.1989,163.4828 67.1729,154.3898 C68.0669,150.7098 69.2169,147.0968 70.6409,143.5858 C70.8439,143.0858 70.4199,142.4868 69.9419,142.3558 C69.3699,142.1988 68.9159,142.5508 68.7119,143.0538 C67.5879,145.8248 66.6349,148.6588 65.8399,151.5378 C65.5609,151.6248 65.3129,151.8138 65.1909,152.1588 C63.1459,157.9138 61.5739,163.8268 60.5249,169.8438 C59.9999,172.8608 59.5989,175.9028 59.3269,178.9528 C59.0979,181.5308 59.1599,184.3948 57.9319,186.7468 C56.6299,189.2378 53.9669,190.0338 51.3369,190.2348 C48.3609,190.4628 45.3229,190.2728 42.3599,189.9668 C35.9639,189.3078 29.6929,187.7618 23.4919,186.1128 C20.5349,185.3258 16.9739,184.8028 14.4989,182.8798 C13.3559,181.9918 12.4009,180.6798 12.3139,179.1948 C12.2669,178.3778 12.5169,177.6118 12.8819,176.8878 C12.8349,175.6978 13.0099,174.5268 13.3729,173.3988 C13.3309,173.3948 13.2919,173.3768 13.2499,173.3788 C14.8649,164.9058 16.4809,156.4328 18.0979,147.9608 C18.9979,143.2398 19.8979,138.5188 20.7999,133.7988 C21.6679,129.2458 22.6949,124.6578 22.6129,119.9988 C28.1519,122.9738 34.6659,124.4648 40.7219,125.5958 C54.2789,128.1308 68.0959,129.3038 81.8869,129.0768 C88.4819,128.9668 95.1999,128.7218 101.7279,127.7178 C104.2729,127.3278 106.7479,126.6288 108.9529,125.4888 C108.9829,134.8168 109.2639,144.1438 109.8059,153.4578 C110.0729,158.0478 110.4029,162.6328 110.7969,167.2148 M92.0159,245.6648 C91.7049,248.1068 91.2519,250.5858 91.0719,253.0448 C90.9019,253.3458 90.8659,253.7278 91.0389,254.0498 C91.1189,255.3198 91.7189,256.5298 93.1569,256.5998 C93.5299,256.6188 93.7809,256.4558 93.9379,256.2238 C97.3429,258.7638 100.4629,261.7478 103.0349,265.1188 C103.0139,265.1508 102.9849,265.1678 102.9659,265.2048 C101.8189,267.4178 101.1679,269.8408 101.1069,272.3368 C101.0769,273.6008 101.2109,274.8718 101.4769,276.1088 C101.5249,276.3358 101.6419,276.6018 101.6359,276.8338 C101.6279,277.1278 101.7949,277.0278 101.4859,277.0228 C100.9759,277.0128 100.3249,276.6648 99.8279,276.5348 C94.9269,275.2558 89.7239,275.7868 85.1359,277.8948 C84.4109,278.2278 84.5279,279.0148 84.9959,279.4398 C81.7429,277.6438 78.6899,275.4278 76.2209,272.7848 C73.9459,270.3488 72.5699,267.4028 72.2779,264.0718 C72.1499,262.6118 72.1909,261.1528 72.3219,259.6988 C72.3219,259.6958 72.3229,259.6928 72.3229,259.6908 C72.4819,257.9268 72.7749,256.1718 73.0929,254.4328 C73.2109,254.2868 73.3049,254.1158 73.3259,253.8898 C74.9029,237.4168 75.7789,220.8788 75.9299,204.3308 C75.9719,199.6378 75.9549,194.9458 75.8839,190.2538 C75.8829,190.1568 75.8509,190.0818 75.8279,189.9988 C79.3729,190.2528 82.9219,190.4578 86.4759,190.5188 C90.7729,190.5928 95.0739,190.4298 99.3439,189.9228 C96.8209,208.4928 94.3769,227.0728 92.0159,245.6648 M104.3449,266.9488 C107.1199,271.1418 109.1889,277.2658 105.3219,281.4808 C101.7199,285.4078 95.4849,283.9388 91.1499,282.2868 C89.2299,281.5538 87.3019,280.6778 85.4309,279.6718 C85.6489,279.7338 85.8909,279.7388 86.1439,279.6228 C88.5699,278.5068 91.2169,277.9038 93.8839,277.8418 C95.1879,277.8118 96.4989,277.8968 97.7829,278.1298 C99.0039,278.3498 100.2319,278.9428 101.4609,279.0318 C102.5319,279.1088 103.4259,278.4998 103.6069,277.4178 C103.7919,276.3198 103.2619,275.1158 103.1609,274.0228 C102.9399,271.5958 103.3529,269.1638 104.3449,266.9488 M101.1559,287.2378 C97.2669,288.8368 92.9979,287.2178 89.2689,285.8928 C82.2079,283.3818 74.7979,279.3668 71.8809,272.0298 C71.1999,270.3178 70.8059,268.5018 70.7329,266.6848 C71.1859,268.6948 71.9969,270.6298 73.3309,272.4258 C77.1079,277.5128 83.2189,281.1228 88.9639,283.5478 C93.8409,285.6058 100.3219,287.4528 105.1229,284.2368 C104.0889,285.5388 102.7359,286.5888 101.1559,287.2378 M43.7699,221.7258 C43.6879,221.8548 43.6259,222.0038 43.6079,222.1828 C42.8159,230.1438 42.1519,238.1178 41.6149,246.0988 C41.5789,246.6318 41.9039,246.9288 42.2999,247.0198 C42.6519,250.5548 43.1219,254.1278 42.4339,257.6148 C41.6259,261.7088 39.6529,265.4348 37.4919,268.9618 C37.0359,269.7058 36.5759,270.4788 36.1009,271.2528 C36.0369,270.8088 35.7339,270.3908 35.1659,270.3538 C29.2319,269.9638 23.2719,270.8588 17.7129,272.9488 C17.5969,268.2908 16.8719,263.6658 15.5379,259.1968 C15.4909,259.0408 15.4189,258.9138 15.3289,258.8108 C15.8659,258.3208 16.3889,257.8388 16.8759,257.3618 C19.5149,254.7788 21.5349,251.8518 22.0689,248.1208 C22.3529,246.1478 22.2849,244.1708 22.1609,242.1918 C22.1359,242.1988 22.1099,242.2008 22.0839,242.2068 C21.7809,235.9088 21.4779,229.6108 21.1739,223.3138 C21.1719,223.2648 21.1499,223.2318 21.1429,223.1878 C21.3129,211.3748 21.4839,199.5618 21.6549,187.7488 C23.4939,188.2338 25.3469,188.6748 27.1759,189.1318 C30.6099,189.9898 34.0699,190.7638 37.5669,191.3278 C40.9769,191.8788 44.4189,192.2498 47.8729,192.3038 C48.0729,192.3068 48.2749,192.3078 48.4769,192.3098 C46.4079,202.0298 44.8549,211.8508 43.7699,221.7258 M43.9029,259.9618 C43.3539,266.6188 40.0819,272.8878 35.1189,277.3868 C29.4829,282.4978 19.8979,286.2398 12.6749,282.2298 C10.2269,280.8708 8.3109,278.2858 7.8799,275.5208 C8.0319,275.7558 8.1899,275.9848 8.3549,276.2068 C8.4169,276.3938 8.5419,276.5478 8.7059,276.6658 C12.8339,281.6948 20.5889,282.8148 26.8419,281.3638 C31.1829,280.3568 34.1429,277.7308 36.5729,274.1048 C39.0119,270.4678 41.3829,266.7078 43.0109,262.6288 C43.3579,261.7568 43.6479,260.8638 43.9029,259.9618 M13.7559,260.2538 C15.0769,264.8568 15.7469,269.5908 15.7359,274.3848 C15.7339,274.9698 16.3879,275.6038 17.0019,275.3498 C22.7639,272.9678 28.9439,271.9438 35.1659,272.3538 C35.2659,272.3608 35.3429,272.3348 35.4279,272.3178 C33.9179,274.6618 32.1819,276.8908 29.7529,278.1898 C26.1919,280.0938 21.4739,280.4038 17.5669,279.5808 C13.7449,278.7748 10.1969,276.5248 8.6819,272.7938 C8.5309,272.4238 8.4209,272.0628 8.3249,271.7068 C8.3909,271.5498 8.4509,271.3928 8.5299,271.2388 C8.5569,271.1858 8.5729,271.1338 8.5909,271.0838 C8.5029,270.7738 8.4389,270.4578 8.4039,270.1378 C8.3069,270.0228 8.1889,269.9248 8.0579,269.8558 C7.9539,266.0228 10.8169,262.9778 13.7559,260.2538 M52.8269,77.3998 L51.1579,77.9948 C51.6559,77.0388 52.0929,76.0518 52.4629,75.0388 C52.5829,75.8258 52.7059,76.6128 52.8269,77.3998 M74.1819,76.8508 C74.6149,77.5558 75.2199,78.0368 75.9079,78.3808 C75.5909,78.5388 75.2749,78.6988 74.9729,78.8928 C73.8399,79.6218 72.4499,80.6828 72.7599,82.2148 C73.1919,84.3598 75.5489,84.9878 77.8669,85.0488 C76.4839,86.0558 75.3889,87.2698 75.9249,89.2318 C76.4079,91.0028 77.8069,91.8158 79.3949,92.1488 C79.0039,92.6948 78.7179,93.3268 78.5919,94.0188 C78.3519,95.3388 78.7619,96.6168 79.5349,97.6478 C74.9259,99.8608 69.6499,100.4118 64.6779,99.2488 C64.7559,98.9708 64.8119,98.6948 64.8349,98.4238 C64.8399,98.4018 64.8479,98.3828 64.8529,98.3618 C64.8949,98.1748 64.8779,98.0108 64.8359,97.8608 C64.7759,96.5968 64.1839,95.4158 63.3139,94.4288 C66.1299,94.2348 69.5589,93.4588 68.7949,90.6368 C68.4209,89.2538 67.3229,88.3318 65.9629,87.7148 C67.3679,87.0918 68.3139,86.0138 68.0189,84.1338 C67.6969,82.0898 66.4469,81.0728 64.8799,80.6378 C65.4259,80.3658 65.9229,80.0268 66.2459,79.4658 C67.1659,77.8748 66.1779,75.7908 64.6879,74.9458 C62.4599,73.6818 59.7289,74.9358 57.5669,75.7078 C56.6219,76.0458 55.6769,76.3818 54.7319,76.7198 C54.4669,74.9938 54.1909,73.2688 53.9299,71.5428 C53.5349,68.9288 53.1519,66.3138 52.7709,63.6988 C55.2519,63.7668 57.4809,62.6638 59.9089,62.3668 C61.3649,62.1878 62.4279,62.6528 63.7519,63.1658 C64.8099,63.5758 65.9099,63.7488 66.9429,63.1748 C67.4979,62.8688 67.9259,62.3248 68.5919,62.2408 C69.1959,62.1638 69.8379,62.4058 70.3979,62.5998 C71.5519,62.9988 72.6329,63.4548 73.8569,63.5908 C76.2049,63.8548 78.5839,63.2018 80.4779,61.7988 C80.4879,61.7928 80.4949,61.7838 80.5039,61.7758 C80.5879,64.9318 80.6719,68.0878 80.7559,71.2438 C79.9239,71.2238 79.0919,71.2378 78.2649,71.3228 C77.1329,71.4398 75.8229,71.5268 74.8459,72.1688 C73.2849,73.1928 73.2799,75.3868 74.1819,76.8508 M51.6709,50.6578 C52.0919,49.9428 54.2649,49.6698 54.8889,49.5138 C56.0369,49.2288 57.1949,48.9908 58.3619,48.7988 C60.8979,48.3818 63.4769,48.2118 66.0469,48.2518 C70.6029,48.3238 75.0959,49.1278 79.4039,50.5798 C70.2999,52.7208 60.8779,51.7788 51.6709,50.6578 M80.2559,52.4308 C80.3239,54.9678 80.3909,57.5058 80.4589,60.0428 C80.1889,59.8448 79.8329,59.8028 79.4689,60.0718 C77.5459,61.4958 75.1389,62.0428 72.8169,61.3498 C70.6689,60.7108 68.6369,59.5138 66.5589,61.0128 C65.9829,61.4278 65.5709,61.6338 64.8549,61.4418 C64.2609,61.2818 63.7119,60.9668 63.1369,60.7488 C62.0519,60.3358 60.9259,60.2438 59.7769,60.3758 C57.3439,60.6558 55.0799,61.8248 52.5999,61.7008 C52.5539,61.6988 52.5219,61.7158 52.4799,61.7178 C52.0409,58.6788 51.6079,55.6388 51.1799,52.5978 C60.8389,53.7768 70.7049,54.7628 80.2559,52.4308 M18.6369,89.9578 C18.5959,89.8968 18.5499,89.8318 18.5099,89.7708 C18.4769,89.7488 18.4409,89.7298 18.4079,89.7078 C11.1949,84.8778 6.1379,77.3248 4.4299,68.8098 C3.5489,64.4198 3.6459,59.8918 4.7529,55.5638 C8.6929,62.2628 14.9189,67.5798 22.2689,70.2748 C23.1659,70.8208 24.0619,71.3668 24.9589,71.9118 C24.9409,71.9718 24.9249,72.0328 24.9069,72.0928 C25.4669,72.3268 26.0069,72.5668 26.5219,72.8688 C26.5219,72.8678 26.5219,72.8658 26.5229,72.8648 L26.5619,72.8878 C26.5869,73.2138 26.7319,73.5328 27.0299,73.6668 C27.8159,74.0198 28.6159,74.3378 29.4139,74.6608 C29.4169,74.6638 29.4179,74.6668 29.4199,74.6698 C29.7109,74.9058 30.0179,75.1168 30.3159,75.3398 C30.3529,75.2558 30.3899,75.1688 30.4259,75.0828 C33.9109,76.4268 37.4999,77.4778 41.1739,78.2048 C41.6429,78.2988 42.0119,78.0878 42.2239,77.7738 C42.5459,77.9188 42.9279,77.8858 43.2349,77.5288 L46.6549,73.5458 C47.5229,72.5348 48.6709,70.7428 50.1859,70.8158 C53.0569,70.9568 48.8089,78.2088 48.0589,79.3468 C47.5939,80.0518 48.3709,81.1078 49.1869,80.8168 C50.4979,80.3488 51.8109,79.8478 53.1279,79.3468 C53.1479,79.4838 53.1719,79.6188 53.1919,79.7558 C53.3639,79.6818 53.5469,79.6288 53.7389,79.5918 C53.7429,79.5878 53.7549,79.5798 53.7679,79.5698 C53.3939,79.6048 53.6499,79.5778 53.8299,79.5308 C53.8319,79.5298 53.8319,79.5298 53.8329,79.5298 C53.8729,79.5068 53.9189,79.4858 53.9639,79.4628 C54.1919,79.1558 54.3539,79.1208 54.3629,79.1818 C54.5759,79.0488 54.8119,78.9568 55.0699,78.9048 C55.0569,78.8118 55.0419,78.7198 55.0269,78.6288 C56.9829,77.8988 58.9509,77.2088 60.9389,76.6698 C61.8199,76.4298 62.9839,76.1988 63.8069,76.7458 C64.2329,77.0298 64.7719,77.7678 64.5779,78.3248 C64.3209,79.0588 62.9769,79.2998 62.3379,79.5558 C61.3279,79.9608 60.3189,80.3648 59.3099,80.7688 C58.1369,81.2398 58.5559,82.9828 59.8409,82.6978 C61.8099,82.2608 65.5679,81.5308 66.0419,84.3998 C66.2499,85.6598 65.1889,85.9648 64.1559,86.1648 C62.6539,86.4568 61.1359,86.5538 59.6079,86.5358 C58.3199,86.5198 58.3199,88.5178 59.6079,88.5358 C61.6999,88.5638 64.9829,88.8398 66.4729,90.5348 C67.5489,91.7598 65.7049,91.9828 64.7779,92.1648 C63.3939,92.4348 61.9959,92.5138 60.5879,92.4778 C59.5869,92.4528 59.2399,93.8508 60.0839,94.3408 C61.2959,95.0488 62.5179,96.0798 62.8089,97.5288 C62.8429,97.7008 62.8539,97.8818 62.8489,98.0658 C61.9039,101.2088 57.5889,100.0168 55.5399,98.8928 C54.0469,98.0738 52.6369,97.1338 51.0669,96.4578 C49.5219,95.7928 47.9079,95.3288 46.2539,95.0298 C40.1759,93.9308 33.9409,94.7988 27.8479,93.9818 L27.8649,93.9668 C27.3589,93.8768 26.8539,93.7798 26.3529,93.6508 C23.6439,92.7868 21.0469,91.5938 18.6369,89.9578 M132.0659,54.7208 C132.0049,52.6478 131.2849,50.4818 130.8249,48.4658 C130.3599,46.4288 129.8709,44.3958 129.3269,42.3788 C128.2419,38.3578 126.9359,34.3908 125.1989,30.6008 C124.0039,27.9958 122.5589,25.5198 120.8799,23.2108 C120.9259,22.9048 120.8529,22.5828 120.6199,22.3588 C119.9529,21.7188 119.3059,21.0578 118.6519,20.4048 C118.5939,20.3388 118.5429,20.2648 118.4829,20.1998 C118.4799,20.2088 118.4759,20.2168 118.4729,20.2258 C117.2719,19.0228 116.0949,17.7988 114.9409,16.5488 C114.9469,16.5428 114.9529,16.5348 114.9589,16.5278 C114.9339,16.5118 114.9059,16.4998 114.8809,16.4838 C114.6249,16.2068 114.3599,15.9388 114.1069,15.6598 C113.8339,15.3588 113.3809,15.3018 113.0169,15.4498 C108.2169,12.7808 103.2069,10.4788 98.1759,8.4748 C91.0819,5.6488 83.8109,3.2988 76.5379,0.9818 C75.9249,0.7868 75.2589,1.3158 75.2719,1.9468 C75.3409,5.1738 72.7959,8.3538 69.4669,8.5608 C67.7299,8.6698 66.0939,7.9958 64.8609,6.8688 C64.8219,6.4648 64.5689,6.0978 64.1469,5.9878 C64.1039,5.9758 64.0619,5.9608 64.0199,5.9488 C63.4289,5.1668 63.0009,4.2558 62.8049,3.2788 C62.7099,2.8048 62.3789,2.5888 62.0159,2.5668 C61.8419,2.4248 61.6069,2.3178 61.3899,2.3278 C61.1739,2.3378 60.9629,2.4148 60.7909,2.5488 C60.6259,2.4218 60.4349,2.3318 60.2199,2.3478 C57.0979,2.5828 53.9929,3.0268 50.9319,3.6798 C50.8369,3.7008 50.7599,3.7538 50.6809,3.8018 C46.7869,4.4068 42.9049,5.1648 39.1659,6.4238 C32.1329,8.7888 25.9529,12.9998 20.6549,18.1438 C15.3559,23.2908 10.9119,29.2568 6.7579,35.3408 C5.7269,36.8488 4.7139,38.3698 3.7079,39.8948 C2.6979,41.4258 1.3369,43.0408 1.1219,44.9228 C1.1159,44.9678 1.1239,45.0108 1.1199,45.0568 C0.9459,45.2708 0.8499,45.5518 0.9229,45.8938 C1.1339,46.8708 1.4059,47.8268 1.7049,48.7738 C1.5549,48.8548 1.4009,48.9328 1.2489,49.0108 C1.4009,49.1488 1.5509,49.2888 1.7029,49.4258 C1.7619,49.3938 1.8289,49.3638 1.8889,49.3318 C2.3419,50.6808 2.8909,51.9918 3.5129,53.2658 C3.3669,53.3808 3.2389,53.5258 3.1719,53.7478 C0.5069,62.4708 1.9799,72.0838 6.5249,79.9258 C9.1229,84.4098 12.7269,88.1468 16.9259,91.0578 C16.9979,91.2008 17.1029,91.3338 17.2599,91.4428 C17.9889,91.9568 18.7419,92.4178 19.5049,92.8528 C19.3359,93.5668 19.1629,94.2788 18.9979,94.9938 C17.7839,100.2358 16.3789,105.4778 13.6639,110.1538 C13.1789,110.3268 12.8109,110.8198 13.0289,111.3688 C12.9189,111.8858 13.2939,112.3228 13.7669,112.4608 C15.7059,115.1718 18.1439,117.2968 20.8779,118.9978 C20.7149,119.1578 20.6049,119.3818 20.6139,119.6828 C20.7519,124.5218 19.6329,129.2748 18.7309,133.9998 C17.8459,138.6378 16.9609,143.2778 16.0759,147.9178 C14.2909,157.2778 12.5049,166.6378 10.7199,175.9988 C10.6679,176.2708 10.7299,176.5018 10.8429,176.6958 C10.2599,178.1918 10.1159,179.7668 10.8629,181.4508 C12.0099,184.0398 14.5139,185.5068 17.0879,186.3918 C17.9359,186.6838 18.7969,186.9508 19.6639,187.2028 C19.4799,199.8268 19.2979,212.4518 19.1149,225.0758 C19.1619,225.0638 19.2109,225.0598 19.2579,225.0508 C19.5559,231.2258 19.8519,237.4018 20.1499,243.5768 C20.1589,243.7518 20.2079,243.8978 20.2789,244.0248 C20.2989,244.9928 20.2869,245.9618 20.2059,246.9308 C19.8749,250.8768 17.7769,253.7518 14.9979,256.3938 C10.6369,260.5408 4.8389,265.0468 6.2369,271.6128 C5.1539,275.0458 6.2529,278.8288 8.6429,281.5518 C11.8069,285.1598 17.0199,286.1838 21.6039,285.6948 C30.3989,284.7568 38.1569,279.0148 42.4309,271.3818 C44.8369,267.0858 46.1249,262.2048 45.9789,257.2738 C45.9559,256.4878 45.1999,256.1868 44.6239,256.3618 C44.6559,256.0928 44.7009,255.8268 44.7229,255.5558 C44.9419,252.7568 44.5139,249.9658 44.2729,247.1828 C44.1369,245.6088 44.0559,244.0328 44.0089,242.4548 C43.9689,242.4738 43.9269,242.4848 43.8859,242.5028 C44.3279,236.3708 44.8379,230.2458 45.4309,224.1268 C45.4499,224.1358 45.4699,224.1418 45.4889,224.1508 C46.5709,213.5898 48.2179,203.0918 50.4339,192.7038 C50.4659,192.5538 50.4629,192.4158 50.4379,192.2878 C52.4509,192.2148 54.4679,191.9368 56.2739,191.0498 C61.8179,188.3268 61.0509,180.8288 61.6699,175.6838 C62.4429,169.2588 63.8459,162.9208 65.7779,156.7468 C67.8759,164.9698 66.0889,173.6168 66.2969,182.0108 C66.3429,183.8748 66.1909,186.3268 67.1579,187.9968 C68.1449,189.7028 70.2599,189.5748 71.9759,189.7098 C72.6359,189.7608 73.2969,189.8088 73.9579,189.8588 C73.9119,189.9738 73.8819,190.1028 73.8839,190.2538 C74.1339,206.7998 73.6799,223.3548 72.5009,239.8618 C72.1899,244.2158 71.8219,248.5668 71.4139,252.9138 C71.3609,253.0048 71.3109,253.0968 71.2879,253.2218 C70.9239,255.1968 70.5829,257.2198 70.3989,259.2398 C66.3499,266.8078 70.0299,275.9578 76.2249,281.1298 C79.6329,283.9738 83.6419,285.9328 87.7799,287.4728 C91.9249,289.0158 96.7439,290.8548 101.1569,289.3648 C105.2549,287.9818 108.4789,284.3358 109.1209,280.0318 C109.1739,279.6818 109.0549,279.3958 108.8629,279.1798 C109.9249,275.7188 109.2059,271.6478 107.5469,268.4098 C104.3899,262.2488 98.8549,257.0678 93.1459,253.2018 C93.3699,250.2688 94.2689,243.6758 94.3599,242.9498 C94.9059,238.6728 95.4549,234.3958 96.0089,230.1188 C97.1059,221.6488 98.2199,213.1808 99.3509,204.7148 C100.0079,199.7898 100.6719,194.8648 101.3409,189.9418 C101.3529,189.8488 101.3329,189.7688 101.3249,189.6848 C104.8979,189.2108 109.2919,188.6948 112.0069,186.2148 C115.2539,183.2488 113.8369,178.1278 113.4569,174.3258 C112.9589,169.3418 112.5339,164.3518 112.1849,159.3558 C111.3929,148.0538 110.9869,136.7258 110.9519,125.3958 C110.9509,125.0008 110.7519,124.7408 110.4889,124.5888 C112.2509,123.4248 113.7839,121.9178 114.9529,119.9628 C117.2579,116.1078 117.8669,111.4748 117.9089,107.0308 C118.0259,106.8768 118.1019,106.6818 118.0709,106.4178 C117.9959,105.7768 117.9339,105.1328 117.8769,104.4898 C117.8669,104.1258 117.8619,103.7608 117.8479,103.3958 C117.8319,103.4058 117.8139,103.4098 117.7989,103.4188 C117.6089,100.7168 117.6079,98.0068 117.7599,95.3028 C117.7169,95.2988 117.6759,95.2858 117.6329,95.2788 C117.8609,93.3608 117.9359,91.4288 117.8369,89.4958 C117.8319,89.3858 117.7999,89.2828 117.7649,89.1818 C123.5329,85.5208 127.4099,79.4078 128.4659,72.6638 C129.0549,68.8958 128.8079,65.0568 127.6519,61.4238 C128.2399,60.9488 128.8139,60.4568 129.3579,59.9348 C130.8329,58.5188 132.1309,56.8698 132.0659,54.7208"></path>
        </g>
    </g>
</svg>