<?xml version="1.0" encoding="UTF-8"?>
<svg width="500px" height="600px" viewBox="0 0 500 600" version="1.1" xmlns="http://www.w3.org/2000/svg" xmlns:xlink="http://www.w3.org/1999/xlink">
    <title>pointingright</title>
    <defs>
        <polygon id="path-1" points="0 0.0252849139 192.202978 0.0252849139 192.202978 289 0 289"></polygon>
        <polygon id="path-3" points="0.100415599 0.738313631 147.502 0.738313631 147.502 79.6076882 0.100415599 79.6076882"></polygon>
    </defs>
    <g id="pointingright" stroke="none" stroke-width="1" fill="none" fill-rule="evenodd">
        <g id="body" transform="translate(135.000000, 215.000000)">
            <g transform="translate(0.000000, 32.916000)">
                <mask id="mask-2" fill="white">
                    <use xlink:href="#path-1"></use>
                </mask>
                <g id="Clip-17"></g>
                <path d="M65.6631,49.3214 C66.9521,50.9404 68.3751,52.4674 69.7331,54.0264 C72.8681,57.6274 75.8971,61.3804 79.2381,64.7964 C76.8091,76.6394 67.0471,85.4464 57.9281,92.7054 C53.0561,96.5834 47.4971,100.2194 43.7121,105.2434 C42.0751,107.4164 40.8881,109.9114 40.6581,112.6484 C40.3671,116.1214 42.0561,119.2704 42.2811,122.6754 C42.4431,125.1114 41.3491,129.0164 38.2151,128.6974 C33.9341,128.2604 33.6601,122.6824 33.6061,119.4814 C33.5861,118.2944 32.0391,118.2014 31.6421,119.2164 C29.9211,123.6114 26.6381,131.1974 20.5961,129.2404 C18.6401,128.6054 16.2961,126.6774 17.1241,124.3684 C18.0191,121.8674 20.7041,120.5794 20.1991,117.5924 C20.0721,116.8394 19.0131,116.6464 18.5281,117.1514 C16.5101,119.2544 8.5551,126.1334 6.7081,120.8254 C5.0661,116.1084 10.6891,113.7514 14.1431,112.5074 C15.1251,112.1524 15.0771,110.4204 13.8781,110.5424 C11.6491,110.7684 9.4111,110.8144 7.1781,110.6344 C5.8581,110.5284 2.7721,110.5064 2.0911,108.9814 C1.3281,107.2754 4.8971,105.6764 6.0101,105.1304 C7.8881,104.2084 9.9321,103.6034 12.0061,103.3304 C13.0621,103.1904 13.4361,101.7134 12.2711,101.3654 C11.0291,100.9954 9.7671,101.0644 8.4941,101.2074 C7.3841,101.3314 5.6211,101.8044 4.6261,101.0864 C3.0741,99.9674 4.8331,97.9314 5.8881,97.2504 C7.1221,96.4524 8.5831,96.0954 10.0381,96.0284 C15.9621,95.7554 21.8301,99.0134 27.7301,97.1404 C33.5191,95.3024 36.6641,89.5504 39.4271,84.5844 C43.2431,77.7224 47.2881,70.9894 51.5591,64.4004 C55.2201,58.7524 59.1711,52.0074 65.6631,49.3214 M103.1371,124.6794 C116.6951,127.2154 130.5111,128.3884 144.3031,128.1604 C150.8971,128.0504 157.6161,127.8064 164.1431,126.8024 C166.6891,126.4114 169.1631,125.7134 171.3691,124.5724 C171.3991,133.9014 171.6791,143.2284 172.2221,152.5414 C172.4891,157.1314 172.8191,161.7174 173.2121,166.2984 C173.4151,168.6704 173.6361,171.0404 173.8721,173.4094 C174.0871,175.5514 174.4541,177.7244 174.47655,179.8804 C174.4971,181.9374 173.7841,183.5864 171.9581,184.6144 C170.3111,185.5424 168.3581,185.9014 166.5251,186.2654 C162.1261,187.1404 157.6441,187.5144 153.1641,187.6014 C148.6431,187.6884 144.1231,187.4824 139.6131,187.1784 C137.3231,187.0244 135.0161,186.9084 132.7331,186.6624 C131.5921,186.5394 131.1441,186.0554 130.9701,184.9304 C130.7971,183.8214 130.7621,182.6694 130.7261,181.5494 C130.4201,172.1944 132.6151,162.5664 129.5881,153.4734 C130.4831,149.7934 131.6321,146.1804 133.0561,142.6704 C133.2591,142.1694 132.8351,141.5704 132.3571,141.4394 C131.7861,141.2824 131.3311,141.6354 131.1271,142.1374 C130.0041,144.9084 129.0501,147.7424 128.2551,150.6224 C127.9771,150.7084 127.7291,150.8984 127.6061,151.2434 C125.5611,156.9974 123.9891,162.9114 122.9411,168.9274 C122.4161,171.9454 122.0151,174.9864 121.7431,178.0374 C121.5141,180.6144 121.5751,183.4784 120.3471,185.8314 C119.0461,188.3214 116.3821,189.1174 113.7531,189.3184 C110.7761,189.5464 107.7391,189.3564 104.7751,189.0514 C98.3801,188.3914 92.1091,186.8464 85.9071,185.1964 C82.9501,184.4094 79.3901,183.8874 76.9141,181.9644 C75.7711,181.0754 74.8171,179.7644 74.7301,178.2784 C74.6831,177.4624 74.9331,176.6954 75.2981,175.9714 C75.2501,174.7824 75.4251,173.6104 75.7891,172.4824 C75.7471,172.4784 75.7071,172.4604 75.6651,172.4624 C77.2811,163.9894 78.8971,155.5164 80.5141,147.0454 C81.4141,142.3244 82.3141,137.6024 83.2151,132.8824 C84.0831,128.3294 85.1101,123.7414 85.0291,119.0834 C90.5681,122.0584 97.0821,123.5484 103.1371,124.6794 M154.4311,244.7484 C154.1201,247.1904 153.6681,249.6694 153.4881,252.1294 C153.3181,252.4294 153.2821,252.8114 153.4551,253.1334 C153.5351,254.4034 154.1341,255.6134 155.5731,255.6844 C155.9451,255.7034 156.1971,255.5394 156.3531,255.3074 C159.7591,257.8474 162.8781,260.8314 165.4511,264.2024 C165.4301,264.2354 165.4001,264.2514 165.3821,264.2884 C164.2341,266.5014 163.5831,268.9254 163.5231,271.4204 C163.4931,272.6854 163.6271,273.9564 163.8921,275.1924 C163.9401,275.4194 164.0581,275.6864 164.0511,275.9174 C164.0441,276.2114 164.2111,276.1114 163.9011,276.1064 C163.3911,276.0974 162.7411,275.7484 162.2431,275.6184 C157.3431,274.3404 152.1391,274.8704 147.5511,276.9794 C146.8271,277.3114 146.9431,278.0994 147.4121,278.5244 C144.1591,276.7274 141.1051,274.5124 138.6371,271.8684 C136.3611,269.4324 134.9861,266.4874 134.6941,263.1554 C134.5661,261.6964 134.6071,260.2364 134.7381,258.7824 L134.7381,258.7744 C134.8971,257.0114 135.1911,255.2554 135.5091,253.5164 C135.6261,253.3714 135.7201,253.1994 135.7411,252.9734 C137.3181,236.5014 138.1941,219.9634 138.3451,203.4154 C138.3881,198.7214 138.3701,194.0294 138.3001,189.3374 C138.2981,189.2404 138.2671,189.1654 138.2441,189.0834 C141.7891,189.3364 145.3371,189.5414 148.8911,189.6024 C153.1891,189.6764 157.4901,189.5134 161.7591,189.0064 C159.2371,207.5764 156.7921,226.1574 154.4311,244.7484 M166.7601,266.0334 C169.5361,270.2254 171.6051,276.3494 167.7381,280.5644 C164.1351,284.4924 157.9011,283.0234 153.5651,281.3704 C151.6451,280.6374 149.7181,279.7614 147.8471,278.7554 C148.0641,278.8174 148.3071,278.8234 148.5601,278.7064 C150.9851,277.5924 153.6321,276.9874 156.3001,276.9254 C157.6041,276.8954 158.9141,276.9804 160.1991,277.2134 C161.4191,277.4334 162.6471,278.0274 163.8761,278.1164 C164.9481,278.1934 165.8421,277.5844 166.0231,276.5024 C166.2081,275.4044 165.6771,274.2004 165.5771,273.1074 C165.3551,270.6794 165.7681,268.2474 166.7601,266.0334 M163.5721,286.3214 C159.6831,287.9204 155.4141,286.3024 151.6841,284.9764 C144.6241,282.4674 137.2131,278.4504 134.2971,271.1144 C133.6161,269.4024 133.2211,267.5854 133.1491,265.7694 C133.6011,267.7794 134.4121,269.7134 135.7461,271.5094 C139.5241,276.5964 145.6341,280.2064 151.3791,282.6314 C156.2571,284.6894 162.7371,286.5374 167.5381,283.3204 C166.5041,284.6224 165.1511,285.6724 163.5721,286.3214 M106.1851,220.8094 C106.1031,220.9394 106.0421,221.0874 106.0231,221.2674 C105.2311,229.2284 104.5671,237.2014 104.0301,245.1834 C103.9951,245.7154 104.3201,246.0124 104.7151,246.1034 C105.0671,249.6384 105.5371,253.2114 104.8501,256.6984 C104.0421,260.7924 102.0681,264.5184 99.9071,268.0454 C99.4511,268.7894 98.9911,269.5624 98.5171,270.3374 C98.4521,269.8934 98.1501,269.4754 97.5811,269.4374 C91.6481,269.0474 85.6871,269.9424 80.1291,272.0334 C80.0131,267.3754 79.2871,262.7504 77.9541,258.2804 C77.9071,258.1244 77.8341,257.9974 77.7451,257.8954 C78.2821,257.4054 78.8051,256.9224 79.2911,256.4454 C81.9311,253.8624 83.9511,250.9354 84.4851,247.2054 C84.7671,245.2324 84.7001,243.2544 84.5771,241.2754 C84.5521,241.2824 84.5251,241.2844 84.5001,241.2914 C84.1961,234.9934 83.8931,228.6954 83.5901,222.3974 C83.5881,222.3494 83.5651,222.3154 83.5581,222.2714 C83.7291,210.4594 83.9001,198.6454 84.0711,186.8324 C85.9101,187.3174 87.7621,187.7594 89.5911,188.2164 C93.0261,189.0744 96.4861,189.8474 99.9821,190.4124 C103.3921,190.9624 106.8351,191.3334 110.2891,191.3874 C110.4881,191.3914 110.6911,191.3924 110.8921,191.3944 C108.8241,201.1144 107.2711,210.9354 106.1851,220.8094 M106.3191,259.0464 C105.7691,265.7034 102.4971,271.9714 97.5351,276.4704 C91.8981,281.5814 82.3141,285.3234 75.0911,281.3134 C72.6421,279.9554 70.7271,277.3694 70.2961,274.6044 C70.4481,274.8394 70.6051,275.0684 70.7701,275.2904 C70.8321,275.4774 70.9581,275.6324 71.1211,275.7494 C75.2501,280.7784 83.0041,281.8984 89.2571,280.4484 C93.5991,279.4404 96.5581,276.8154 98.9891,273.1884 C101.4271,269.5524 103.7981,265.7914 105.4261,261.7134 C105.7741,260.8414 106.0631,259.9474 106.3191,259.0464 M76.1721,259.3374 C77.4921,263.9404 78.1621,268.6754 78.1511,273.4694 C78.1501,274.0534 78.8031,274.6874 79.4181,274.4334 C85.1801,272.0524 91.3591,271.0284 97.5811,271.4374 C97.6811,271.4444 97.7591,271.4184 97.8431,271.4014 C96.3341,273.7454 94.5981,275.9744 92.1691,277.2734 C88.6081,279.1774 83.8891,279.4874 79.9831,278.6644 C76.1601,277.8594 72.6131,275.6084 71.0971,271.8774 C70.9461,271.5074 70.8371,271.1474 70.7401,270.7914 C70.8071,270.6334 70.8661,270.4764 70.9451,270.3224 C70.9731,270.2704 70.9881,270.2184 71.0061,270.1674 C70.9181,269.8574 70.8551,269.5414 70.8191,269.2214 C70.7231,269.1074 70.6041,269.0094 70.4731,268.9404 C70.3691,265.1074 73.2321,262.0614 76.1721,259.3374 M191.2471,19.0924 C186.1201,18.5534 181.1601,16.8774 176.7311,14.2454 C176.2191,13.9394 175.7371,14.1544 175.4671,14.5284 C170.6591,11.8554 165.6311,9.5654 160.5921,7.5584 C153.4971,4.7324 146.2261,2.3824 138.9531,0.0664 C138.3401,-0.1286 137.6741,0.3994 137.6871,1.0304 C137.7561,4.2584 135.2121,7.4374 131.8821,7.6444 C130.1461,7.7534 128.5101,7.0794 127.2771,5.9524 C127.2381,5.5494 126.9841,5.1814 126.5631,5.0714 C126.5201,5.0604 126.4781,5.0454 126.4351,5.0324 C125.8441,4.2504 125.4171,3.3404 125.2211,2.3624 C125.1251,1.8884 124.7941,1.6734 124.4321,1.6504 C124.2571,1.5084 124.0231,1.4014 123.8061,1.4114 C123.5901,1.4214 123.3791,1.4994 123.2071,1.6324 C123.0411,1.5054 122.8501,1.4164 122.6361,1.4314 C119.5141,1.6674 116.4081,2.1104 113.3471,2.7644 C113.2531,2.7844 113.1751,2.8374 113.0961,2.8854 C109.2021,3.4914 105.3211,4.2494 101.5811,5.5074 C94.5481,7.8734 88.3681,12.0844 83.0701,17.2284 C77.7721,22.3744 73.3281,28.3404 69.1731,34.4244 C68.1421,35.9324 67.1291,37.4544 66.1231,38.9794 C65.1131,40.5104 63.7521,42.1244 63.5371,44.0064 C63.3861,45.3354 63.8211,46.5594 64.4811,47.6694 C58.9821,50.1544 55.2251,55.2344 51.9401,60.1754 C47.2391,67.2474 42.8051,74.4984 38.6391,81.8964 C35.5551,87.3734 32.1651,94.9884 25.0171,95.6544 C18.8271,96.2304 12.3921,92.3364 6.3381,94.7894 C3.6591,95.8744 0.2661,99.5024 3.0061,102.3154 C3.6261,102.9524 4.3491,103.2504 5.1251,103.3714 C4.8321,103.5134 4.5321,103.6384 4.2441,103.7964 C2.3631,104.8224 -0.2999,106.4194 0.0271,108.9314 C0.3001,111.0264 2.5341,111.9744 4.3711,112.2994 C5.8091,112.5524 7.2701,112.6804 8.7351,112.7254 C7.7021,113.3464 6.7551,114.0904 5.9821,115.0444 C4.4361,116.9514 4.0101,119.5814 4.9751,121.8604 C7.1411,126.9704 12.6611,124.4274 16.6111,121.4744 C16.3701,121.7634 16.1431,122.0424 15.9701,122.3014 C15.1831,123.4844 14.7681,124.8424 15.0521,126.2594 C15.5761,128.8884 18.1711,130.7504 20.6541,131.3324 C26.1561,132.6214 29.6341,128.1434 31.8941,123.5824 C32.2001,125.5314 32.8501,127.3894 34.3101,128.8254 C36.2841,130.7654 39.3481,131.4174 41.6331,129.6204 C43.6591,128.0274 44.4431,125.1624 44.2811,122.6754 C44.0431,119.0054 42.0781,115.5174 42.7781,111.7894 C43.3951,108.5094 45.5901,105.7864 47.9171,103.5114 C50.4711,101.0164 53.3501,98.8484 56.1491,96.6414 C61.9421,92.0734 67.8501,87.5064 72.6071,81.8194 C76.4011,77.2854 79.4391,72.0994 80.8931,66.4054 C82.8461,68.1734 85.0311,69.6994 87.5001,70.5554 C85.2201,78.3274 83.2431,86.1754 81.4131,94.0774 C80.1991,99.3194 78.7951,104.5614 76.0801,109.2374 C75.5951,109.4104 75.2271,109.9034 75.4441,110.4524 C75.3341,110.9694 75.7091,111.4074 76.1821,111.5454 C78.1211,114.2554 80.5591,116.3804 83.2941,118.0814 C83.1311,118.2414 83.0211,118.4654 83.0301,118.7664 C83.1671,123.6054 82.0481,128.3584 81.1461,133.0834 C80.2621,137.7224 79.3771,142.3624 78.4911,147.0014 L73.1361,175.0824 C73.0831,175.3554 73.1451,175.5864 73.2591,175.7804 C72.6761,177.2754 72.5321,178.8504 73.2781,180.5354 C74.4251,183.1244 76.9301,184.5904 79.5031,185.4754 C80.3511,185.7674 81.2121,186.0344 82.0791,186.2864 C81.8961,198.9114 81.7141,211.5354 81.5301,224.1594 C81.5771,224.1484 81.6261,224.1444 81.6741,224.1344 C81.9711,230.3094 82.2681,236.4854 82.5651,242.6604 C82.5741,242.8364 82.6241,242.9814 82.6941,243.1094 C82.7141,244.0774 82.7031,245.0454 82.6221,246.0144 C82.2911,249.9604 80.1921,252.8364 77.4131,255.4774 C73.0531,259.6244 67.2551,264.1314 68.6531,270.6964 C67.5701,274.1304 68.6691,277.9134 71.0581,280.6364 C74.2221,284.2444 79.4351,285.2684 84.0191,284.7794 C92.8141,283.8404 100.5721,278.0984 104.8461,270.4674 C107.2521,266.1694 108.5401,261.2894 108.3941,256.3574 C108.3711,255.5724 107.6161,255.2704 107.0401,255.4454 C107.0711,255.1764 107.1171,254.9104 107.1381,254.6394 C107.3581,251.8414 106.9301,249.0504 106.6881,246.2664 C106.5531,244.6924 106.4711,243.1164 106.4241,241.5394 C106.3851,241.5574 106.3421,241.5694 106.3021,241.5864 C106.7431,235.4554 107.2541,229.3294 107.8461,223.2104 C107.8651,223.2194 107.8861,223.2254 107.9041,223.2354 C108.9861,212.6744 110.6331,202.1764 112.8491,191.7884 C112.8811,191.6374 112.8781,191.4994 112.8531,191.3724 C114.8661,191.2984 116.8831,191.0214 118.6891,190.1334 C124.2341,187.4104 123.4661,179.9124 124.0851,174.7674 C124.8581,168.3434 126.2621,162.0044 128.1931,155.8304 C130.2921,164.0534 128.5041,172.7004 128.7131,181.0944 C128.7591,182.9584 128.6061,185.4104 129.5731,187.0804 C130.5601,188.7864 132.6751,188.6594 134.3911,188.7934 C135.0521,188.8444 135.7131,188.8934 136.3741,188.9434 C136.3271,189.0584 136.2981,189.1874 136.3001,189.3374 C136.5501,205.8834 136.0951,222.4384 134.9171,238.9454 C134.6051,243.3004 134.2381,247.6504 133.8291,251.9974 C133.7771,252.0884 133.7261,252.1814 133.7041,252.3054 C133.3391,254.2804 132.9981,256.3044 132.8151,258.3234 C128.7651,265.8914 132.4461,275.0424 138.6411,280.2134 C142.0481,283.0584 146.0581,285.0164 150.1961,286.5574 C154.3411,288.1004 159.1591,289.9394 163.5731,288.4494 C167.6711,287.0654 170.8941,283.4194 171.5371,279.1154 C171.5891,278.7654 171.4711,278.4794 171.2781,278.2634 C172.3401,274.8024 171.6221,270.7314 169.9631,267.4934 C166.8061,261.3324 161.2711,256.1514 155.5621,252.2864 C155.7861,249.3524 156.6841,242.7594 156.7761,242.0334 C157.3211,237.7564 157.8711,233.4794 158.4251,229.2034 C159.5211,220.7324 160.6361,212.2644 161.7661,203.7994 C162.4231,198.8734 163.0871,193.9494 163.7561,189.0254 C163.7681,188.9324 163.7491,188.8534 163.7401,188.7684 C167.3131,188.2954 171.7081,187.7784 174.4221,185.2994 C177.6701,182.3324 176.2531,177.2124 175.8721,173.4094 C175.3741,168.4264 174.9501,163.4354 174.6001,158.4404 C173.8091,147.1374 173.4031,135.8104 173.3681,124.4804 C173.3661,124.0844 173.1671,123.8254 172.9041,123.6734 C174.6671,122.5094 176.1991,121.0014 177.3691,119.0464 C179.8911,114.8304 180.3911,109.6784 180.3291,104.8654 C180.2471,98.5674 179.3931,92.2544 178.8241,85.9874 C177.9381,76.2174 177.0521,66.4494 176.1661,56.6804 C175.4041,54.5144 175.3501,52.1794 175.5461,49.8424 L175.1671,45.6704 C175.0591,45.6464 174.9531,45.6244 174.8451,45.5924 C174.1711,45.3974 173.6051,45.0464 173.0721,44.6284 C174.1061,56.0244 175.1411,67.4224 176.1751,78.8194 C176.7831,85.5264 177.4101,92.2324 177.9991,98.9414 C178.4261,103.7954 178.6901,108.8524 177.4461,113.6134 C176.1021,118.7534 172.7171,122.4774 167.5821,124.0134 C164.8061,124.8434 161.9061,125.1264 159.0311,125.3834 C155.7391,125.6764 152.4391,125.8904 149.1381,126.0224 C135.8581,126.5564 122.5171,125.8054 109.3891,123.7364 C98.5181,122.0224 84.6081,120.0444 77.7681,110.3234 C80.1551,106.2524 81.6001,101.7344 82.7311,97.1684 C83.9991,92.0574 85.0931,86.9094 86.4211,81.8134 C87.0551,79.3834 87.7331,76.9674 88.4291,74.5554 C88.6701,72.5894 89.1811,70.6814 90.0711,68.9764 C91.9551,62.7854 93.9971,56.6424 96.2401,50.5734 C98.3901,44.7594 100.7041,39.0074 103.1791,33.3224 C103.6861,32.1544 101.9641,31.1344 101.4511,32.3134 C97.1211,42.2624 93.2571,52.4104 89.9111,62.7334 C89.2741,64.6984 88.6671,66.6704 88.0731,68.6454 C86.1341,67.9664 84.3811,66.8424 82.7611,65.4874 C82.1791,65.3484 81.6311,65.0714 81.2091,64.6484 C80.3981,63.8384 79.6961,62.9794 79.1961,61.9874 C77.3861,59.9814 75.7151,57.8574 74.1001,56.0024 L69.9991,51.2944 C69.3631,50.5634 68.6861,49.8304 68.0301,49.0794 C67.5811,48.7904 67.1971,48.3934 66.9101,47.9494 C66.7251,47.6624 66.6141,47.3104 66.5461,46.9474 C66.4941,46.9494 66.4451,46.9434 66.3911,46.9544 C66.3031,46.8134 66.1971,46.6814 66.1161,46.5384 C64.9871,44.5304 65.8511,43.0324 66.9951,41.2884 C67.9241,39.8744 68.8551,38.4634 69.7991,37.0584 C77.1311,26.1534 85.5591,14.9844 97.7271,9.2004 C101.6441,7.3394 105.8561,6.2144 110.1051,5.4134 C112.2161,5.0154 114.3391,4.6944 116.4651,4.3934 C116.7241,4.3574 117.0481,4.2944 117.4081,4.2254 C117.4081,4.1674 117.4061,4.1074 117.4061,4.0484 C119.1401,3.7754 120.8831,3.5634 122.6361,3.4314 C122.7071,3.4264 122.7711,3.3994 122.8391,3.3824 C123.0431,4.7584 123.9571,6.0124 125.1871,6.6594 C126.9181,8.6544 129.5371,9.8824 132.2241,9.6164 C136.0191,9.2414 139.0521,6.0504 139.5951,2.3704 C150.4171,5.8214 161.2701,9.3954 171.3961,14.6004 C173.7721,15.8224 176.1031,17.1414 178.3691,18.5634 C178.3841,18.4044 178.4071,18.2414 178.4541,18.0734 C178.5061,17.8844 178.5631,17.6984 178.6211,17.5114 C182.5871,19.4214 186.8511,20.6304 191.2471,21.0924 C192.5261,21.2254 192.5171,19.2244 191.2471,19.0924" id="Fill-16" fill="#231F20" mask="url(#mask-2)"></path>
            </g>
            <g id="hand" transform="translate(154.000000, 0.916000)">
                <mask id="mask-4" fill="white">
                    <use xlink:href="#path-3"></use>
                </mask>
                <g id="Clip-20"></g>
                <path d="M145.2236,6.6515 C144.2256,9.0875 142.3326,11.0885 140.1566,12.5225 C138.6456,13.5185 137.0396,14.2295 135.3726,14.7315 C135.0516,14.5325 134.6196,14.6795 134.3756,15.0015 C129.7056,16.1665 124.6236,15.8335 119.8606,15.5115 C118.8316,15.4425 118.8366,17.0445 119.8606,17.1135 C122.0296,17.2585 124.2506,17.3995 126.4696,17.4105 C126.4866,22.4855 122.4506,27.3515 117.3506,28.0005 C116.9176,28.0555 116.5546,28.3295 116.5496,28.8005 C116.5446,29.1915 116.9206,29.6565 117.3506,29.6015 C123.2976,28.8445 128.1356,23.4135 128.0716,17.3915 C128.6836,17.3755 129.2936,17.3405 129.9036,17.2975 C131.3676,20.1415 131.3686,23.6725 129.7646,26.4645 C128.3026,29.0115 125.6126,30.8305 122.6946,31.2105 C122.1986,31.2745 121.9466,31.6965 121.9376,32.0915 C121.1266,31.5545 120.1616,31.2195 119.2376,31.0015 C116.8446,30.4345 114.2956,30.2545 111.8466,30.1345 C110.7316,30.0805 109.6156,30.0705 108.4996,30.0835 C108.2546,28.2055 107.3616,26.4305 105.8756,25.1885 C105.5446,24.9115 105.0696,24.8635 104.7446,25.1885 C104.4586,25.4725 104.4106,26.0425 104.7446,26.3205 C105.5456,26.9915 106.1906,27.8535 106.5496,28.7845 C106.7146,29.2135 106.8366,29.6655 106.9126,30.1225 C105.7266,30.1685 104.5406,30.2425 103.3576,30.3585 C102.3416,30.4595 102.3306,32.0615 103.3576,31.9605 C104.5586,31.8415 105.7616,31.7635 106.9656,31.7185 C106.9636,31.7425 106.9626,31.7735 106.9596,31.7955 C106.9026,32.2225 107.0636,32.6545 107.5196,32.7805 C107.8926,32.8815 108.4456,32.6515 108.5036,32.2205 C108.5286,32.0415 108.5326,31.8615 108.5436,31.6805 C111.0606,31.6555 113.5776,31.7895 116.0796,32.1015 C117.7076,32.3045 119.5206,32.4795 120.9486,33.3605 C121.7786,33.8735 122.1646,34.6195 122.1756,35.3965 C121.7876,35.6385 121.6556,36.2005 121.9116,36.5585 C121.7466,36.9125 121.5106,37.2525 121.1986,37.5545 C119.8576,38.8555 117.6936,39.1955 115.9286,39.5115 C113.9136,39.8725 111.8666,40.0225 109.8206,40.0155 C105.7366,40.0025 101.6846,39.3315 97.7446,38.2825 C95.6116,37.7135 93.5066,37.0345 91.4346,36.2725 C89.2306,35.4625 87.0686,34.5315 84.7316,34.1775 C83.7236,34.0245 83.2886,35.5675 84.3056,35.7215 C86.1816,36.0055 87.9456,36.6625 89.7076,37.3295 C78.2956,47.0765 66.5676,56.4505 54.5256,65.4065 C51.4126,67.7205 48.2746,69.9985 45.1226,72.2585 C45.0776,72.1545 45.0186,72.0535 44.9296,71.9645 C44.5696,71.6035 43.8696,71.5535 43.5156,71.9645 C43.3076,72.2055 43.0826,72.4225 42.8446,72.6315 C42.8186,72.6545 42.7906,72.6765 42.7636,72.6995 C42.8156,72.6625 42.8136,72.6635 42.7586,72.7035 C42.7036,72.7455 42.6456,72.7865 42.5876,72.8255 C42.4576,72.9145 42.3256,72.9995 42.1886,73.0775 C42.0516,73.1565 41.9116,73.2295 41.7706,73.2975 C41.6136,73.3745 41.6736,73.3505 41.4766,73.4245 C41.1636,73.5425 40.8426,73.6345 40.5156,73.7035 C39.7216,73.8695 38.7916,73.8295 37.9676,73.5895 C38.1396,72.8205 38.2416,72.0335 38.3006,71.2585 C38.5286,68.2895 38.3956,65.2695 38.4096,62.2935 C38.4186,60.1955 38.4286,58.0975 38.4386,56.0015 C38.6586,56.1535 38.9446,56.2045 39.2446,56.0225 C52.5246,48.0425 65.7616,39.9935 78.9556,31.8745 C82.6776,29.5845 86.3956,27.2885 90.1106,24.9875 C90.4666,24.7665 90.5366,24.4085 90.4426,24.0945 C92.2986,22.5365 94.1546,20.9775 96.0096,19.4205 C98.5006,17.3275 100.8046,14.8805 104.1066,14.2215 C107.2166,13.6025 110.3766,13.2745 113.4856,12.6205 C116.7016,11.9435 119.8846,11.1195 123.0256,10.1515 C126.1056,9.2015 129.1436,8.1125 132.1256,6.8885 C135.1316,5.6555 138.0306,4.1045 141.1056,3.0505 C142.2506,2.6585 144.4906,1.7085 145.4896,2.7865 C146.3716,3.7395 145.6416,5.6315 145.2236,6.6515 M133.8916,30.2555 C131.7856,33.6205 127.7826,35.8825 123.8016,35.4635 C123.8216,34.7285 123.6486,33.9925 123.2106,33.3345 C123.0816,33.1385 122.9336,32.9635 122.7766,32.7965 C126.2386,32.3215 129.3896,30.3295 131.1476,27.2735 C132.9236,24.1865 133.0176,20.3545 131.5976,17.1295 C132.6006,17.0055 133.5926,16.8305 134.5716,16.5975 C136.2726,20.9655 136.4386,26.1865 133.8916,30.2555 M146.6046,1.6235 C145.6266,0.6275 144.1846,0.6265 142.9026,0.8785 C141.1856,1.2155 139.5336,1.8995 137.9346,2.5935 C134.5946,4.0445 131.3096,5.5715 127.8856,6.8255 C121.1326,9.2975 114.1316,11.0925 107.0206,12.1675 C105.1396,12.4515 103.2016,12.5975 101.4326,13.3505 C99.7426,14.0715 98.3716,15.3525 96.9816,16.5205 C93.6756,19.2975 90.3696,22.0725 87.0646,24.8485 C86.9666,24.9295 86.9006,25.0185 86.8576,25.1095 C74.4946,32.7555 62.0996,40.3465 49.6626,47.8715 C45.9266,50.1315 42.1876,52.3855 38.4456,54.6345 C38.4496,53.8215 38.4536,53.0075 38.4556,52.1945 C38.4616,50.9405 36.5146,50.9395 36.5086,52.1945 C36.4826,57.8605 36.4826,63.5285 36.4296,69.1945 C36.4156,70.6065 36.3816,72.1245 36.0016,73.5215 C35.9576,73.5715 35.9056,73.6085 35.8696,73.6695 C35.7676,73.8435 35.7436,74.0535 35.7606,74.2615 C35.6456,74.5605 35.5176,74.8535 35.3576,75.1335 C34.6986,76.2905 33.6946,76.8935 32.5606,77.2265 C32.3706,76.8775 32.0026,76.6375 31.5056,76.7865 C20.4406,80.0825 10.1286,73.0775 1.5136,67.0135 C0.4876,66.2905 -0.4874,67.9785 0.5316,68.6945 C8.7156,74.4555 18.3026,80.7415 28.6226,79.3865 C28.7766,79.5245 28.9786,79.6195 29.2516,79.6065 C31.7036,79.5015 34.3566,79.2575 36.1316,77.3515 C36.6526,76.7925 37.0426,76.1565 37.3476,75.4795 C39.5456,76.1375 42.0206,75.7215 43.8606,74.3505 C44.0786,74.6105 44.4266,74.7325 44.7906,74.4725 C57.3346,65.5115 69.5746,56.1265 81.4746,46.3265 C84.8196,43.5715 88.1366,40.7845 91.4286,37.9655 C93.4816,38.7075 95.5636,39.3715 97.6756,39.9205 C102.1006,41.0705 106.6926,41.7515 111.2716,41.5945 C113.5186,41.5175 115.7726,41.2375 117.9626,40.7255 C119.7846,40.2995 121.6916,39.6285 122.8606,38.0805 C123.1056,37.7555 123.3066,37.3995 123.4616,37.0295 C128.0346,37.5655 132.5896,35.1325 135.1176,31.3055 C138.0756,26.8275 137.9306,21.0625 136.1046,16.1755 C137.3816,15.7775 138.6276,15.2635 139.8286,14.5935 C142.2246,13.2565 144.3716,11.3755 145.8076,9.0205 C146.9766,7.1035 148.5036,3.5585 146.6046,1.6235" id="Fill-19" fill="#231F20" mask="url(#mask-4)"></path>
            </g>
        </g>
    </g>
</svg>