<?xml version="1.0" encoding="UTF-8"?>
<svg width="500px" height="600px" viewBox="0 0 500 600" version="1.1" xmlns="http://www.w3.org/2000/svg" xmlns:xlink="http://www.w3.org/1999/xlink">
    <title>thumbsup</title>
    <g id="thumbsup" stroke="none" stroke-width="1" fill="none" fill-rule="evenodd">
        <path d="M387.5938,281.1155 C384.5238,293.5325 376.6268,304.0335 368.0388,313.3195 C365.7268,315.8205 363.3458,318.2585 360.9428,320.6715 C358.5638,323.0595 356.1978,325.8775 353.1568,327.4395 C349.5008,329.3175 345.4738,328.0605 341.9898,326.4005 C338.8438,324.9005 335.8108,323.1415 332.9138,321.2025 C326.6868,317.0325 321.1428,311.9075 316.4208,306.0945 C317.4848,305.1015 318.0918,303.7045 318.7268,302.4245 C318.8218,302.2315 318.9158,302.0395 319.0118,301.8475 C319.1388,301.9185 319.2698,301.9755 319.3998,302.0365 C319.6048,301.4215 319.8578,300.8135 320.1578,300.1975 C320.0718,300.1515 319.9828,300.1095 319.8968,300.0605 C320.4168,299.0105 320.9368,297.9605 321.4568,296.9105 C322.4978,294.8095 323.5388,292.7075 324.5798,290.6065 C324.7598,290.7715 324.9408,290.9355 325.1198,291.1005 C325.1348,291.0705 325.1478,291.0385 325.1618,291.0095 C325.1668,290.6835 325.1708,290.3585 325.1728,290.0375 C325.1748,289.5295 325.3698,289.1475 325.6608,288.8875 C325.6468,288.8745 325.6308,288.8605 325.6158,288.8475 C325.5758,288.8105 325.5308,288.7995 325.4898,288.7705 C325.8338,288.0745 326.1788,287.3785 326.5238,286.6825 C326.5828,286.7485 326.6508,286.8105 326.7348,286.8655 C333.8598,291.4905 340.9578,296.1595 348.1108,300.7415 C349.5418,301.6585 350.5208,301.7505 351.8218,300.6065 C353.3708,299.2425 354.9008,297.8535 356.4408,296.4775 C359.5668,293.6835 362.6938,290.8895 365.8198,288.0945 C365.7898,288.1765 365.7548,288.2555 365.7258,288.3375 C366.4368,288.2555 367.1508,288.2175 367.8688,288.2475 C367.9078,288.1255 367.9598,288.0085 367.9978,287.8865 C373.4388,287.2625 378.7738,285.5495 381.8898,280.6685 C382.5848,279.5805 380.8548,278.5765 380.1628,279.6595 C377.7808,283.3905 373.7028,285.0025 369.5008,285.6965 C369.1888,285.7965 368.8698,285.8765 368.5498,285.9445 C368.4038,285.9755 368.2558,286.0055 368.1088,286.0295 C367.9178,286.0605 367.7268,286.0855 367.5348,286.1085 C367.4998,286.1125 367.4638,286.1165 367.4278,286.1165 C367.0878,286.1205 366.7758,286.0045 366.5058,285.8175 C366.4808,285.8965 366.4558,285.9765 366.4348,286.0575 C366.0208,286.0895 365.6078,286.1155 365.1998,286.1365 C362.4958,286.2685 359.3608,286.6535 356.7518,285.7565 C354.8628,285.1065 352.7008,282.5365 354.2558,280.6295 C355.7808,280.6715 357.3048,280.6745 358.8278,280.6015 C360.1098,280.5405 360.1168,278.5405 358.8278,278.6015 C357.0878,278.6845 355.3448,278.6965 353.6038,278.6285 C352.7538,278.5945 351.9008,278.5535 351.0548,278.4735 C350.6298,278.4325 349.9738,278.3795 349.6918,278.0075 C349.3578,277.5635 349.5588,276.7125 349.6278,276.2165 C349.7358,275.4495 349.9078,274.6905 350.1278,273.9485 C350.3048,273.3545 350.5268,272.7815 350.7728,272.2185 C351.7188,272.6495 352.7398,272.9465 353.8108,273.0595 C355.6208,273.2515 357.4628,272.8765 359.0618,272.0125 C360.1948,271.4005 359.1858,269.6735 358.0528,270.2855 C356.0938,271.3445 353.6948,271.3325 351.6788,270.4505 C351.7158,270.3885 351.7548,270.3265 351.7928,270.2645 C351.6878,270.2005 351.5838,270.1335 351.4858,270.0575 C351.3808,270.0035 351.2748,269.9525 351.1798,269.8825 C351.0118,269.7575 350.8368,269.6345 350.6858,269.4885 C350.6538,269.4575 350.6288,269.4205 350.6008,269.3865 C350.4938,269.3215 350.3928,269.2475 350.2808,269.1905 C350.2368,269.1685 350.1998,269.1345 350.1598,269.1075 C350.0978,269.2095 350.0348,269.3105 349.9738,269.4135 C349.7208,269.2035 349.4718,268.9865 349.2498,268.7395 C347.3528,266.6205 347.0608,263.2405 348.3418,260.7145 C348.8038,260.9065 349.2638,261.1035 349.7338,261.2715 C353.0118,262.4455 356.4998,262.9955 359.9788,262.9495 C361.2648,262.9315 361.2688,260.9315 359.9788,260.9495 C356.6028,260.9945 353.2708,260.4415 350.0978,259.2825 C349.8318,259.1865 349.5708,259.0795 349.3078,258.9745 C349.3398,258.6985 349.2728,258.4195 349.0448,258.1915 C348.6958,257.8425 347.9698,257.7675 347.6308,258.1915 C347.6208,258.2025 347.6148,258.2155 347.6068,258.2265 C346.8888,257.8785 346.1878,257.4985 345.5148,257.0795 C344.7928,256.6295 344.2098,256.1825 344.5998,255.2785 C344.8988,254.5865 345.5978,254.0165 346.1838,253.5775 C351.4478,249.6355 357.8478,247.0095 364.2258,245.5555 C365.3448,245.3005 365.0388,243.7485 364.0698,243.6175 C361.7968,238.7575 361.1348,233.2175 362.2008,227.9595 C362.2708,227.6175 362.1708,227.3365 361.9948,227.1225 C362.8948,225.2295 364.1328,223.5095 365.6598,222.0725 C366.4898,221.2925 367.3948,220.6035 368.3668,220.0125 C368.8278,219.7315 369.3178,219.4275 369.8248,219.2395 C370.7698,218.8885 371.3238,219.0245 371.6718,220.0185 C372.0738,221.1735 371.9748,222.7055 371.9648,223.9155 C371.9528,225.3475 371.8448,226.7765 371.7428,228.2035 C371.5538,230.8515 371.4508,233.4775 371.7128,236.1245 C372.1948,240.9895 373.5778,245.6885 375.5368,250.1565 C377.6238,254.9155 380.4868,259.1425 383.2738,263.5015 C386.3878,268.3725 389.2168,274.1935 387.1538,280.0345 C386.9708,280.5505 387.2208,280.9285 387.5938,281.1155 M315.1678,304.5915 C314.6618,304.2005 314.0218,304.5695 313.7968,305.1295 C313.7118,305.1235 313.6268,305.1155 313.5488,305.0945 C313.5318,305.0615 313.5318,305.0245 313.5108,304.9915 C313.3068,304.6835 313.1028,304.3755 312.8988,304.0675 C312.8788,304.0245 312.8488,303.9935 312.8238,303.9555 C312.3068,303.1735 311.7888,302.3915 311.2708,301.6095 C311.0428,301.2645 310.6158,301.0625 310.2148,301.1385 L308.8598,286.2025 C308.7438,284.9315 306.7428,284.9195 306.8598,286.2025 C308.0848,299.7145 309.3108,313.2245 310.5358,326.7355 C311.1448,333.4425 311.7728,340.1485 312.3618,346.8565 C312.7878,351.7115 313.0528,356.7685 311.8088,361.5295 C310.4648,366.6695 307.0788,370.3935 301.9448,371.9285 C299.1668,372.7605 296.2688,373.0415 293.3938,373.2985 C290.1018,373.5925 286.8018,373.8055 283.4988,373.9385 C270.2208,374.4715 256.8788,373.7215 243.7498,371.6525 C232.8808,369.9385 218.9708,367.9605 212.1308,358.2395 C214.5178,354.1685 215.9618,349.6505 217.0938,345.0845 C218.3618,339.9735 219.4548,334.8255 220.7828,329.7285 C221.4158,327.3005 222.0958,324.8845 222.7908,322.4715 C223.0318,320.5055 223.5428,318.5965 224.4338,316.8925 C226.3178,310.7015 228.3588,304.5585 230.6028,298.4885 C232.7518,292.6745 235.0668,286.9225 237.5408,281.2385 C238.0488,280.0705 236.3258,279.0505 235.8138,280.2295 C231.4838,290.1785 227.6188,300.3265 224.2738,310.6495 C223.6368,312.6145 223.0298,314.5865 222.4358,316.5615 C220.4948,315.8815 218.7428,314.7595 217.1228,313.4035 C216.5408,313.2645 215.9928,312.9875 215.5708,312.5645 C214.7608,311.7545 214.0588,310.8955 213.5588,309.9035 C211.7468,307.8975 210.0768,305.7735 208.4618,303.9185 L204.3618,299.2095 C203.7258,298.4795 203.0488,297.7465 202.3928,296.9955 C201.9438,296.7055 201.5588,296.3095 201.2728,295.8655 C201.0878,295.5775 200.9768,295.2265 200.9078,294.8635 C200.8568,294.8655 200.8078,294.8595 200.7528,294.8695 C200.6648,294.7295 200.5598,294.5975 200.4788,294.4535 C199.3498,292.4465 200.2128,290.9485 201.3578,289.2045 C202.2848,287.7895 203.2178,286.3785 204.1608,284.9745 C211.4928,274.0695 219.9208,262.9005 232.0898,257.1165 C236.0068,255.2545 240.2178,254.1305 244.4668,253.3295 C246.5778,252.9315 248.7008,252.6105 250.8268,252.3095 C251.0858,252.2735 251.4098,252.2095 251.7698,252.1415 C251.7708,252.0825 251.7678,252.0235 251.7678,251.9645 C253.5018,251.6915 255.2438,251.4795 256.9968,251.3475 C257.0698,251.3425 257.1338,251.3155 257.2008,251.2985 C257.4058,252.6735 258.3198,253.9285 259.5498,254.5755 C261.2798,256.5705 263.8998,257.7985 266.5858,257.5325 C270.3808,257.1575 273.4138,253.9665 273.9568,250.2865 C284.7798,253.7375 295.6328,257.3115 305.7588,262.5165 C310.9238,265.1715 315.9028,268.2485 320.4028,271.9295 C322.6128,273.7375 324.7148,275.6805 326.6638,277.7665 C327.2418,278.3855 327.8888,278.9675 327.6348,279.8855 C327.3728,280.8325 326.7198,281.7895 326.2838,282.6685 C325.4838,284.2865 324.6818,285.9035 323.8808,287.5205 C322.1328,291.0495 320.3858,294.5775 318.6378,298.1065 C317.8038,299.7895 317.0178,301.5085 316.1248,303.1605 C315.8668,303.6365 315.5728,304.1865 315.1678,304.5915 M307.5738,414.2145 C307.7778,416.5865 307.9978,418.9565 308.2348,421.3255 C308.4488,423.4685 308.8168,425.6405 308.838293,427.7965 C308.8598,429.8535 308.1468,431.5015 306.3208,432.5305 C304.6738,433.4585 302.7208,433.8175 300.8878,434.1815 C296.4888,435.0565 292.0068,435.4305 287.5268,435.5175 C283.0058,435.6045 278.4858,435.3985 273.9758,435.0945 C271.6858,434.9405 269.3778,434.8245 267.0958,434.5785 C265.9528,434.4555 265.5058,433.9715 265.3308,432.8465 C265.1588,431.7375 265.1238,430.5855 265.0878,429.4655 C264.7818,420.1105 266.9768,410.4825 263.9498,401.3895 C264.8458,397.7095 265.9938,394.0965 267.4178,390.5855 C267.6208,390.0855 267.1978,389.4865 266.7198,389.3555 C266.1478,389.1985 265.6938,389.5515 265.4898,390.0535 C264.3648,392.8245 263.4118,395.6585 262.6168,398.5375 C262.3398,398.6245 262.0918,398.8145 261.9688,399.1585 C259.9238,404.9135 258.3518,410.8265 257.3038,416.8445 C256.7788,419.8615 256.3758,422.9025 256.1058,425.9525 C255.8748,428.5305 255.9378,431.3945 254.7088,433.7465 C253.4068,436.2375 250.7438,437.0335 248.1148,437.2345 C245.1388,437.4625 242.1018,437.2725 239.1378,436.9675 C232.7418,436.3075 226.4708,434.7615 220.2698,433.1125 C217.3128,432.3255 213.7518,431.8025 211.2768,429.8795 C210.1338,428.9915 209.1798,427.6795 209.0918,426.1945 C209.0448,425.3775 209.2948,424.6115 209.6598,423.8875 C209.6128,422.6975 209.7868,421.5265 210.1508,420.3985 C210.1098,420.3945 210.0698,420.3765 210.0278,420.3785 C211.6438,411.9055 213.2598,403.4325 214.8748,394.9615 C215.7768,390.2395 216.6768,385.5185 217.5768,380.7985 C218.4458,376.2455 219.4728,371.6575 219.3918,366.9985 C224.9308,369.9745 231.4438,371.4645 237.4988,372.5955 C251.0578,375.1315 264.8728,376.3045 278.6638,376.0765 C285.2598,375.9675 291.9778,375.7215 298.5058,374.7195 C301.0508,374.3275 303.5258,373.6285 305.7308,372.4885 C305.7618,381.8165 306.0408,391.1435 306.5838,400.4575 C306.8518,405.0475 307.1818,409.6335 307.5738,414.2145 M288.7928,492.6645 C288.4828,495.1065 288.0298,497.5855 287.8498,500.0445 C287.6798,500.3455 287.6448,500.7275 287.8168,501.0505 C287.8978,502.3195 288.4958,503.5295 289.9348,503.5995 C290.3078,503.6185 290.5598,503.4555 290.7158,503.2235 C294.1208,505.7635 297.2398,508.7475 299.8138,512.1185 C299.7918,512.1505 299.7628,512.1675 299.7438,512.2045 C298.5968,514.4175 297.9458,516.8415 297.8858,519.3365 C297.8558,520.6015 297.9888,521.8715 298.2538,523.1085 C298.3028,523.3355 298.4188,523.6015 298.4128,523.8335 C298.4058,524.1275 298.5728,524.0275 298.2638,524.0225 C297.7528,524.0135 297.1038,523.6645 296.6058,523.5345 C291.7038,522.2565 286.5008,522.7865 281.9128,524.8945 C281.1898,525.2275 281.3058,526.0145 281.7748,526.4395 C278.5218,524.6435 275.4678,522.4275 272.9988,519.7845 C270.7238,517.3485 269.3478,514.4025 269.0568,511.0715 C268.9288,509.6115 268.9688,508.1525 269.0998,506.6985 C269.1008,506.6955 269.1008,506.6935 269.1008,506.6905 C269.2598,504.9275 269.5528,503.1715 269.8708,501.4325 C269.9888,501.2875 270.0818,501.1155 270.1038,500.8895 C271.6808,484.4165 272.5568,467.8795 272.7068,451.3305 C272.7498,446.6375 272.7328,441.9455 272.6618,437.2535 C272.6598,437.1565 272.6288,437.0815 272.6068,436.9985 C276.1508,437.2525 279.6988,437.4575 283.2528,437.5185 C287.5508,437.5935 291.8518,437.4295 296.1208,436.9225 C293.5998,455.4925 291.1548,474.0725 288.7928,492.6645 M301.1218,513.9495 C303.8988,518.1415 305.9668,524.2655 302.1008,528.4805 C298.4968,532.4085 292.2638,530.9395 287.9278,529.2865 C286.0078,528.5535 284.0798,527.6775 282.2078,526.6715 C282.4268,526.7335 282.6688,526.7385 282.9228,526.6225 C285.3478,525.5075 287.9938,524.9035 290.6618,524.8425 C291.9658,524.8115 293.2768,524.8965 294.5608,525.1295 C295.7808,525.3495 297.0098,525.9425 298.2388,526.0315 C299.3108,526.1095 300.2028,525.5005 300.3848,524.4185 C300.5698,523.3205 300.0388,522.1155 299.9398,521.0225 C299.7178,518.5955 300.1308,516.1635 301.1218,513.9495 M297.9338,534.2375 C294.0448,535.8365 289.7768,534.2195 286.0468,532.8925 C278.9868,530.3835 271.5748,526.3665 268.6578,519.0295 C267.9788,517.3175 267.5828,515.5015 267.5108,513.6855 C267.9628,515.6955 268.7748,517.6295 270.1088,519.4265 C273.8868,524.5125 279.9958,528.1225 285.7408,530.5475 C290.6188,532.6055 297.0998,534.4525 301.9008,531.2365 C300.8658,532.5385 299.5138,533.5885 297.9338,534.2375 M240.5478,468.7255 C240.4658,468.8555 240.4048,469.0035 240.3858,469.1835 C239.5938,477.1445 238.9298,485.1175 238.3928,493.0995 C238.3578,493.6315 238.6818,493.9285 239.0768,494.0195 C239.4298,497.5545 239.8998,501.1275 239.2108,504.6145 C238.4048,508.7085 236.4308,512.4345 234.2698,515.9615 C233.8138,516.7055 233.3538,517.4785 232.8778,518.2525 C232.8148,517.8085 232.5128,517.3905 231.9438,517.3535 C226.0098,516.9635 220.0498,517.8585 214.4908,519.9495 C214.3748,515.2915 213.6498,510.6665 212.3168,506.1965 C212.2698,506.0405 212.1968,505.9135 212.1078,505.8105 C212.6438,505.3205 213.1658,504.8385 213.6538,504.3615 C216.2918,501.7785 218.3128,498.8515 218.8478,495.1215 C219.1298,493.1475 219.0628,491.1705 218.9398,489.1915 C218.9138,489.1985 218.8878,489.2005 218.8628,489.2065 C218.5588,482.9085 218.2548,476.6115 217.9518,470.3135 C217.9488,470.2655 217.9278,470.2315 217.9198,470.1875 C218.0908,458.3745 218.2618,446.5615 218.4338,434.7485 C220.2718,435.2335 222.1238,435.6765 223.9528,436.1325 C227.3888,436.9905 230.8488,437.7635 234.3448,438.3285 C237.7538,438.8785 241.1968,439.2495 244.6518,439.3035 C244.8508,439.3065 245.0528,439.3085 245.2538,439.3105 C243.1858,449.0295 241.6338,458.8515 240.5478,468.7255 M240.6818,506.9615 C240.1318,513.6195 236.8598,519.8875 231.8978,524.3865 C226.2608,529.4975 216.6758,533.2395 209.4518,529.2295 C207.0038,527.8705 205.0888,525.2855 204.6578,522.5205 C204.8108,522.7555 204.9678,522.9845 205.1328,523.2065 C205.1948,523.3935 205.3208,523.5475 205.4838,523.6655 C209.6118,528.6945 217.3658,529.8145 223.6188,528.3635 C227.9608,527.3565 230.9198,524.7305 233.3518,521.1045 C235.7888,517.4685 238.1598,513.7075 239.7878,509.6285 C240.1368,508.7565 240.4258,507.8635 240.6818,506.9615 M210.5328,507.2535 C211.8548,511.8565 212.5248,516.5915 212.5138,521.3855 C212.5128,521.9695 213.1648,522.6035 213.7798,522.3495 C219.5418,519.9695 225.7218,518.9435 231.9438,519.3535 C232.0428,519.3605 232.1208,519.3345 232.2048,519.3175 C230.6958,521.6615 228.9588,523.8905 226.5318,525.1895 C222.9708,527.0945 218.2508,527.4035 214.3458,526.5805 C210.5228,525.7755 206.9748,523.5245 205.4588,519.7935 C205.3088,519.4235 205.1988,519.0625 205.1028,518.7065 C205.1688,518.5505 205.2288,518.3925 205.3078,518.2385 C205.3338,518.1855 205.3508,518.1355 205.3678,518.0835 C205.2808,517.7735 205.2168,517.4575 205.1818,517.1375 C205.0848,517.0225 204.9668,516.9255 204.8348,516.8555 C204.7318,513.0235 207.5948,509.9775 210.5328,507.2535 M214.0958,314.1265 C210.7268,318.6555 206.4178,322.4475 201.5348,325.2715 C196.8088,328.0055 191.2068,330.1625 185.7148,330.5555 C183.9428,330.6825 182.8218,330.1405 181.6658,328.8425 C180.5138,327.5475 179.4318,326.1855 178.3188,324.8575 C176.1038,322.2155 173.8898,319.5725 171.6748,316.9285 C167.2388,311.6345 162.7718,306.3615 158.3688,301.0375 C154.2928,296.1075 150.3368,290.9605 147.5788,285.1625 C147.5628,285.0485 147.5378,284.9315 147.4748,284.8125 C144.0508,278.3695 147.0308,270.7355 150.4688,264.9675 C153.9788,259.0805 158.3498,253.4845 159.6948,246.6075 C159.7178,246.4875 159.7058,246.3815 159.6938,246.2755 C160.9548,242.7185 161.7738,239.0515 162.1578,235.2645 C162.6658,230.2655 162.5328,225.2325 162.7768,220.2185 C162.8128,219.4595 162.6218,217.9915 163.3128,217.4765 C163.9478,217.0045 165.0498,217.3845 165.6788,217.6595 C167.2598,218.3535 168.5618,219.8545 169.5828,221.2065 C171.7888,224.1255 173.1258,227.7165 173.4528,231.3555 C173.8248,235.4995 172.9668,239.6495 170.7738,243.2015 C170.7228,243.2855 170.7088,243.3655 170.6838,243.4475 C170.4308,243.9445 170.1778,244.4415 169.9248,244.9385 C169.3348,244.8465 168.7448,244.7545 168.1508,244.6885 C166.8728,244.5485 166.8828,246.5495 168.1508,246.6885 C174.4088,247.3785 180.7738,249.7835 185.6978,253.7645 C186.5998,254.4945 187.8578,255.7215 187.0718,256.9655 C186.4808,257.9005 185.1588,258.2955 184.1208,258.4015 C182.6058,258.5565 181.0798,258.0615 179.5888,257.8595 C178.0118,257.6455 176.5728,257.7085 175.0998,258.3415 C173.9208,258.8475 174.9378,260.5715 176.1098,260.0675 C178.5508,259.0185 181.2668,260.4365 183.8318,260.3985 C185.1188,261.0735 186.6848,261.8175 187.3808,263.1735 C187.8068,264.0005 187.8758,265.4345 186.9338,265.9495 C186.5708,266.1475 186.1268,266.1985 185.6798,266.2025 C185.3848,266.1385 185.0818,266.1035 184.7718,266.1205 C184.6958,266.1255 184.6388,266.1565 184.5728,266.1735 C184.5618,266.1735 184.5498,266.1725 184.5388,266.1725 C183.5358,266.1605 182.5328,266.1385 181.5308,266.1055 C179.5248,266.0385 177.5218,265.9275 175.5198,265.7745 C174.2368,265.6775 174.2418,267.6775 175.5198,267.7745 C177.9378,267.9585 180.3598,268.0825 182.7828,268.1405 C183.5958,268.1605 184.5398,268.2455 185.4678,268.2215 C186.1818,268.4705 186.6858,269.1545 186.8968,269.9155 C187.2278,271.1155 186.6448,272.2395 185.6778,272.9615 C182.8908,275.0415 179.2188,273.4945 176.4058,272.3255 C175.9068,272.1175 175.3058,272.5495 175.1758,273.0235 C175.0178,273.5995 175.3728,274.0465 175.8738,274.2545 C177.9668,275.1235 180.1868,275.9425 182.4108,275.9435 C182.4878,276.1085 182.6048,276.2625 182.8148,276.3725 C185.3748,277.7135 183.9298,281.1285 182.1258,282.3895 C179.6578,284.1155 176.0388,284.8205 173.1108,285.2455 C169.7178,285.7375 166.7868,285.0785 163.9238,283.2285 C161.5218,281.6765 159.2698,279.8625 156.4178,279.2195 C155.1648,278.9365 154.6298,280.8645 155.8868,281.1475 C159.4438,281.9495 161.9868,284.7645 165.2238,286.2595 C165.6008,286.4335 165.9838,286.5705 166.3668,286.7015 C166.2408,286.6985 166.1168,286.7205 165.9988,286.7565 C166.7738,286.7445 167.5188,286.8605 168.2638,287.1455 C168.2478,287.3865 168.3388,287.6365 168.5938,287.8495 C174.3108,292.6195 180.7468,297.0915 184.2278,303.8845 C184.4908,304.3995 184.9808,304.4645 185.3908,304.2925 C185.4228,304.9925 186.1168,305.6455 186.8378,305.1335 C191.0738,302.1195 195.5818,299.5135 200.3038,297.3405 C200.3638,297.4815 200.4278,297.6205 200.4738,297.7675 C201.6438,299.1895 202.8888,300.5575 204.0948,301.9425 C207.2308,305.5425 210.2598,309.2955 213.6008,312.7125 C213.5628,312.8975 213.5118,313.0775 213.4648,313.2595 C213.7908,313.4355 214.0798,313.6515 214.3378,313.8935 C214.2508,313.9565 214.1678,314.0295 214.0958,314.1265 M389.7398,277.7415 C390.3148,273.1745 388.6018,268.5565 386.2948,264.5995 C383.3468,259.5415 379.8438,254.9215 377.4408,249.5455 C375.1028,244.3155 373.5878,238.6395 373.5368,232.8885 C373.5098,229.7325 373.9918,226.5965 373.9648,223.4405 C373.9468,221.3355 374.0728,217.7055 371.4468,217.0975 C369.0148,216.5345 366.1948,218.8985 364.5308,220.3965 C362.4228,222.2935 360.8478,224.6385 359.7498,227.2425 C359.5388,227.7425 359.7648,228.1225 360.1308,228.3075 C359.2278,233.6365 359.9078,239.0835 362.0858,244.0305 C356.7268,245.4285 351.5828,247.6565 346.9298,250.6635 C345.0138,251.9015 341.7198,253.9025 342.5658,256.6835 C342.9868,258.0655 344.4108,258.7865 345.5898,259.4265 C345.9068,259.5985 346.2398,259.7455 346.5648,259.9065 C345.3978,262.2765 345.2278,265.0955 346.2458,267.5845 C346.8508,269.0645 347.8288,270.2725 349.0328,271.1865 C348.6678,271.9925 348.3628,272.8245 348.1248,273.6755 C347.8768,274.5665 347.7128,275.4755 347.6058,276.3935 C347.4988,277.2995 347.4708,278.2735 347.9988,279.0655 C348.8678,280.3685 350.5688,280.4895 352.0438,280.5555 C351.3918,282.3985 352.0488,284.6115 353.4488,286.0525 C355.7868,288.4575 359.5788,288.3085 362.6798,288.2235 L356.1348,294.0725 C354.7188,295.3385 353.3018,296.6045 351.8848,297.8715 C351.2628,298.4275 350.4418,299.5985 349.5388,299.2865 C348.6738,298.9885 347.7968,298.1555 347.0248,297.6545 C340.5978,293.4825 334.1708,289.3105 327.7438,285.1385 C327.6198,285.0575 327.4978,285.0125 327.3788,284.9905 C328.1258,283.5615 328.9328,282.1205 329.4808,280.6245 C329.6438,280.1795 329.6998,279.7645 329.6868,279.3685 C329.9478,279.2805 330.1668,279.0795 330.2328,278.7075 C330.2558,278.5775 330.2828,278.4485 330.3088,278.3195 C329.7438,277.6555 329.1678,277.0035 328.6768,276.2865 C328.6348,276.4845 328.5898,276.6825 328.5528,276.8815 C328.4868,276.8025 328.4228,276.7235 328.3518,276.6455 C319.4138,266.7575 307.1758,260.3435 294.9538,255.4745 C287.8598,252.6485 280.5888,250.2985 273.3158,247.9825 C272.7018,247.7865 272.0358,248.3155 272.0498,248.9465 C272.1178,252.1735 269.5738,255.3535 266.2438,255.5605 C264.5078,255.6695 262.8718,254.9955 261.6398,253.8685 C261.6008,253.4645 261.3468,253.0975 260.9258,252.9875 C260.8828,252.9765 260.8408,252.9605 260.7978,252.9485 C260.2058,252.1665 259.7798,251.2555 259.5818,250.2785 C259.4878,249.8045 259.1568,249.5885 258.7928,249.5665 C258.6188,249.4255 258.3858,249.3175 258.1668,249.3275 C257.9518,249.3375 257.7408,249.4145 257.5688,249.5485 C257.4038,249.4215 257.2118,249.3315 256.9968,249.3475 C253.8758,249.5825 250.7708,250.0265 247.7088,250.6805 C247.6148,250.7005 247.5368,250.7525 247.4578,250.8015 C243.5648,251.4065 239.6828,252.1645 235.9438,253.4225 C228.9098,255.7885 222.7308,259.9995 217.4328,265.1445 C212.1338,270.2905 207.6908,276.2565 203.5348,282.3405 C202.5048,283.8485 201.4908,285.3695 200.4858,286.8955 C199.4758,288.4265 198.1148,290.0405 197.8998,291.9225 C197.7548,293.1885 198.1508,294.3565 198.7598,295.4245 C198.8848,295.5085 198.9918,295.6095 199.1068,295.7045 C194.5378,297.8215 190.1718,300.3445 186.0598,303.2495 C186.0468,303.1275 186.0198,303.0035 185.9538,302.8755 C182.6168,296.3605 176.6838,291.9165 171.1338,287.3665 C173.0128,287.3275 174.9048,286.9955 176.7508,286.5325 C179.8868,285.7485 183.8988,284.7405 185.5018,281.5945 C186.4828,279.6715 186.3848,277.1265 184.9468,275.5445 C185.1928,275.4625 185.4378,275.3715 185.6818,275.2605 C186.9888,274.6695 188.1008,273.6345 188.6588,272.3035 C189.1988,271.0175 189.0508,269.5645 188.4058,268.3425 C188.2758,268.0965 188.1148,267.8685 187.9428,267.6515 C188.2308,267.4895 188.5028,267.2985 188.7348,267.0375 C189.8728,265.7565 189.9108,263.7965 189.1808,262.3065 C188.6418,261.2075 187.7208,260.3985 186.7008,259.7325 C187.9068,259.1745 188.9248,258.2585 189.2308,256.9185 C189.8498,254.1925 187.2288,252.3405 185.2928,251.0015 C182.9248,249.3635 180.3608,248.0315 177.6798,246.9855 C175.8238,246.2605 173.9138,245.7215 171.9738,245.3155 C172.2148,244.8425 172.4548,244.3685 172.6968,243.8955 C172.7088,243.8715 172.7098,243.8445 172.7208,243.8215 C176.7848,236.8825 176.3648,227.7035 171.9048,221.0355 C170.1248,218.3765 166.6978,214.3025 162.9968,215.4365 C160.8648,216.0885 160.8648,218.3765 160.7768,220.2185 C160.6378,223.0875 160.6218,225.9605 160.5378,228.8305 C160.3438,235.4395 159.5248,241.8775 156.9058,248.0035 C156.7498,248.3665 156.8228,248.7065 156.9918,248.9795 C154.9708,255.0595 150.7498,260.1305 147.7158,265.7535 C144.8338,271.0945 142.8458,277.5765 144.7498,283.4575 C144.7398,283.5895 144.7598,283.7345 144.8258,283.8935 C147.4098,290.0365 151.2618,295.4365 155.4338,300.5935 C160.0748,306.3305 164.8888,311.9325 169.6278,317.5885 C172.0538,320.4825 174.4788,323.3775 176.9048,326.2715 C178.8078,328.5445 180.7798,332.0095 183.9668,332.5025 C186.7558,332.9345 190.0478,331.9595 192.7148,331.1905 C195.5238,330.3815 198.2548,329.2795 200.8478,327.9305 C206.7448,324.8625 211.8588,320.4655 215.8228,315.1365 C215.8758,315.0645 215.9138,314.9945 215.9458,314.9245 C217.7188,316.4325 219.6798,317.7145 221.8628,318.4705 C219.5818,326.2435 217.6048,334.0915 215.7758,341.9935 C214.5618,347.2355 213.1568,352.4775 210.4418,357.1535 C209.9568,357.3265 209.5898,357.8195 209.8068,358.3685 C209.6968,358.8865 210.0718,359.3225 210.5438,359.4605 C212.4838,362.1715 214.9208,364.2965 217.6568,365.9975 C217.4918,366.1575 217.3828,366.3815 217.3918,366.6825 C217.5298,371.5215 216.4098,376.2745 215.5088,380.9995 L212.8538,394.9175 C211.0688,404.2775 209.2828,413.6375 207.4968,422.9985 C207.4458,423.2715 207.5078,423.5025 207.6208,423.6955 C207.0378,425.1915 206.8948,426.7665 207.6408,428.4505 C208.7868,431.0395 211.2918,432.5065 213.8648,433.3915 C214.7138,433.6835 215.5738,433.9505 216.4418,434.2025 C216.2588,446.8265 216.0758,459.4515 215.8928,472.0755 C215.9398,472.0645 215.9888,472.0605 216.0348,472.0515 C216.3328,478.2255 216.6308,484.4015 216.9278,490.5765 C216.9368,490.7515 216.9868,490.8975 217.0568,491.0255 C217.0758,491.9925 217.0658,492.9615 216.9838,493.9305 C216.6538,497.8765 214.5548,500.7515 211.7758,503.3935 C207.4138,507.5405 201.6168,512.0475 203.0158,518.6125 C201.9318,522.0455 203.0308,525.8285 205.4198,528.5525 C208.5838,532.1605 213.7978,533.1835 218.3818,532.6945 C227.1768,531.7565 234.9348,526.0145 239.2078,518.3835 C241.6148,514.0855 242.9028,509.2055 242.7568,504.2735 C242.7338,503.4885 241.9788,503.1865 241.4028,503.3615 C241.4338,503.0935 241.4788,502.8265 241.4998,502.5555 C241.7208,499.7565 241.2918,496.9665 241.0508,494.1825 C240.9148,492.6085 240.8328,491.0325 240.7858,489.4555 C240.7458,489.4735 240.7038,489.4845 240.6638,489.5025 C241.1058,483.3715 241.6148,477.2455 242.2078,471.1265 C242.2278,471.1365 242.2478,471.1415 242.2668,471.1505 C243.3488,460.5905 244.9948,450.0925 247.2108,439.7035 C247.2428,439.5535 247.2398,439.4155 247.2158,439.2875 C249.2288,439.2145 251.2448,438.9375 253.0518,438.0505 C258.5958,435.3265 257.8278,427.8285 258.4478,422.6835 C259.2208,416.2605 260.6228,409.9205 262.5558,403.7465 C264.6548,411.9695 262.8658,420.6165 263.0738,429.0115 C263.1208,430.8745 262.9688,433.3265 263.9358,434.9965 C264.9228,436.7025 267.0368,436.5745 268.7528,436.7095 C269.4138,436.7615 270.0748,436.8085 270.7368,436.8595 C270.6898,436.9745 270.6598,437.1025 270.6618,437.2535 C270.9118,453.8005 270.4568,470.3545 269.2788,486.8615 C268.9678,491.2165 268.6008,495.5665 268.1918,499.9135 C268.1398,500.0045 268.0888,500.0975 268.0668,500.2215 C267.7008,502.1965 267.3608,504.2195 267.1778,506.2395 C263.1268,513.8075 266.8088,522.9575 273.0028,528.1295 C276.4098,530.9735 280.4198,532.9325 284.5588,534.4725 C288.7028,536.0155 293.5218,537.8545 297.9358,536.3655 C302.0328,534.9815 305.2568,531.3355 305.8998,527.0315 C305.9508,526.6815 305.8318,526.3955 305.6408,526.1795 C306.7018,522.7195 305.9848,518.6475 304.3238,515.4095 C301.1668,509.2485 295.6328,504.0675 289.9238,500.2015 C290.1488,497.2685 291.0458,490.6765 291.1388,489.9495 C291.6838,485.6725 292.2338,481.3955 292.7868,477.1195 C293.8838,468.6485 294.9968,460.1805 296.1278,451.7155 C296.7848,446.7895 297.4488,441.8655 298.1178,436.9415 C298.1308,436.8485 298.1118,436.7685 298.1028,436.6845 C301.6758,436.2115 306.0708,435.6945 308.7838,433.2155 C312.0318,430.2485 310.6148,425.1275 310.2348,421.3255 C309.7368,416.3425 309.3128,411.3515 308.9618,406.3555 C308.1708,395.0535 307.7648,383.7265 307.7308,372.3965 C307.7288,372.0005 307.5298,371.7405 307.2668,371.5885 C309.0298,370.4255 310.5618,368.9175 311.7308,366.9625 C314.2518,362.7455 314.7528,357.5945 314.6908,352.7815 C314.6098,346.4835 313.7558,340.1705 313.1868,333.9025 C312.2828,323.9445 311.3798,313.9855 310.4768,304.0275 C310.6618,304.3065 310.8478,304.5875 311.0318,304.8675 C311.3118,306.5905 313.0418,307.3295 314.6248,307.0385 C319.0588,312.5835 324.2368,317.4965 330.0178,321.6245 C333.0728,323.8055 336.2898,325.7615 339.6368,327.4635 C342.9338,329.1385 346.6038,330.7705 350.3918,330.3355 C353.9548,329.9255 356.7328,327.6395 359.2108,325.2185 C361.8258,322.6635 364.3968,320.0585 366.9248,317.4185 C371.9078,312.2135 376.6938,306.7695 380.7308,300.7865 C385.2358,294.1145 388.7068,286.7165 390.1488,278.7585 C390.2308,278.3095 390.0318,277.9585 389.7398,277.7415" id="body" fill="#231F20"></path>
    </g>
</svg>