<svg width="500" height="600" xmlns="http://www.w3.org/2000/svg"><g fill="#231F20" fill-rule="evenodd"><path d="M332.444 349.008c.048.33.259.618.702.695 15.35 2.673 29.624 10.188 40.488 21.36.21.216.449.296.68.292a85.675 85.675 0 01-14.101 27.45c-3.206 4.16-6.807 8.053-10.752 11.52-1.893 1.663-3.991 3.294-6.26 4.572a4.162 4.162 0 00-.961.22.994.994 0 00-.6.583c-1.887.887-3.881 1.5-5.966 1.663-1.668.13-3.42-.06-5.073-.56-11.491-7.34-24.82-12.317-38.558-12.33-12.69-.01-25.273 4.692-34.37 13.651a.876.876 0 00-.905.472c-.227.407-.457.816-.688 1.226a42.213 42.213 0 00-2.411 2.904c.159.125.303.263.454.398-2.071 3.253-4.546 6.236-8.09 7.937-2.508 1.204-5.274 1.516-7.936.648-1.776-.579-3.418-1.478-5.112-2.256.047-.06.087-.127.135-.186a116.692 116.692 0 01-7.482-3.055c-7.474-3.366-14.377-7.63-21.25-12.066l-12.36-7.98a.909.909 0 00-.62-.153c-.674-.36-1.425-.768-1.08-1.64.292-.733 1.058-1.43 1.552-2.043a81.828 81.828 0 011.556-1.876c9.099-10.656 20.75-19.07 33.736-24.34.316.698.754 1.342 1.404 1.882 2.016 1.678 4.848 1.717 7.335 1.85 3.568.187 7.136.376 10.704.565 6.934.368 13.878.741 20.825.632 12.634-.196 25.038-2.292 36.47-7.839 11.359-5.51 21.236-13.9 28.534-24.196m46.603 69.423a.896.896 0 00.112.591l4.236 6.72c.149.236.382.394.637.457-1.271 3.572-2.142 7.27-2.35 11.104-.15 2.8.062 5.642.687 8.385-4.445-4.36-8.89-8.72-13.332-13.08a.908.908 0 00-1.011-.21 272.428 272.428 0 00-7.465-6.235 290.828 290.828 0 00-9.08-6.984c-1.503-1.109-3.376-2.849-5.372-3.745.23-.154.463-.308.69-.466 4.656-3.254 8.74-7.432 12.4-11.752a89.003 89.003 0 005.765-7.624c.017.037.016.072.04.11 4.68 7.576 9.36 15.153 14.043 22.73m11.263-1.099l.019.001c.36-.524.719-1.05 1.095-1.562 3.109-4.235 6.826-8.358 11.074-11.48a19.702 19.702 0 012.842-1.763c-.963.888-1.84 1.89-2.64 2.884a68.028 68.028 0 00-7.54 11.624c-4.22 8.253-6.997 17.577-7.403 26.87-.112 2.56.166 5.153 1.384 7.444.982 1.845 2.445 3.36 3.978 4.77a17.693 17.693 0 01-1.001-.402c.044-.532-.263-1.072-.946-1.02-3.694.276-5.581-4.974-6.426-7.787-1.101-3.659-1.324-7.524-.926-11.313.683-6.504 3.314-12.585 6.49-18.266m21.216-15.85c1.536.31 2.952 1.066 4.125 2.144 3.202 2.942 4.742 7.492 5.366 11.69.873 5.866.567 12.026-.585 17.83-2.006 10.113-6.835 22.01-18.278 23.867a17.728 17.728 0 01-6.234-.105c.199-.339.208-.77-.182-1.116-1.566-1.39-3.2-2.808-4.354-4.577-1.267-1.943-1.67-4.137-1.651-6.428.034-4.184.812-8.436 1.822-12.486a67.131 67.131 0 0110.44-22.669c2.12-2.976 5.392-7.94 9.53-8.15m-220.807-106.34c-.13 3.224-.262 6.45-.394 9.675a63.917 63.917 0 01-.105 1.814c-18.076 2.921-36.33-.804-54.3-2.752-6.222-.675-12.495-1.146-18.757-1.066-.196-.374-.583-.658-1.108-.559a50.44 50.44 0 00-3.111.692l-.061.002a.05.05 0 01-.006.017 50.308 50.308 0 00-18.977 9.484c-1.438 1.157-3.173 3.03-5.218 2.65-2.55-.473-1.246-3.4-.552-4.919a20.633 20.633 0 017.762-8.854c.949-.598.349-2.12-.77-1.827l-8.194 2.142c-.883.231-5.141 1.858-5.72.286-.338-.92 1.498-2.17 2.055-2.645a29.99 29.99 0 012.972-2.218 31.626 31.626 0 016.864-3.388c1.234-.434.728-2.125-.532-1.929a21.16 21.16 0 01-7.457-.144c-1.25-.253-5.77-1.044-5.021-3.12.669-1.86 4.192-2.12 5.759-2.297a26.16 26.16 0 015.753.003c.843.176 1.7.3 2.563.372 1.115.091 1.373-1.75.265-1.965a30.844 30.844 0 00-2.536-.38 17.061 17.061 0 01-5.49-2.252c-1.082-.687-2.387-1.553-3.104-2.647-1.071-1.638.719-2.797 2.237-2.788 1.555.011 3.145.72 4.607 1.19l4.459 1.43 9.387 3.011c.593.19 1.307-.33 1.267-.965-.193-3.036-2.473-4.734-4.057-7.084-.771-1.14-1.393-2.628-.476-3.872 1.052-1.425 2.444-.132 3.522.613 4.888 3.381 9.283 7.43 13.133 11.953-.018.373-.026.746-.05 1.12 5.75 3.373 12.69 3.952 19.278 4.096 8.813.192 17.639-.217 26.398-1.214a199.146 199.146 0 0028.272-5.317l-.557 13.651m212.896-78.728c.654-2.315 2.302-5.783 5.31-5.059 3.143.757 3.158 4.851 2.988 7.38-.217 3.218-.96 6.356-1.822 9.458l8.907-6.082c1.729-1.18 3.429-2.529 5.269-3.535 1.374-.75 2.92-1.16 4.44-.604 1.282.471 2.253 1.61 2.263 3.016.014 1.694-1.295 3.072-2.528 4.058a123.776 123.776 0 01-3.707 2.834c.975-.48 1.957-.945 2.975-1.329 2.897-1.09 7.052-1.77 9.648.421 2.598 2.193.402 5.265-1.732 6.747-.826.573-1.731 1.06-2.654 1.513.783-.097 1.572-.116 2.378.01 2.383.37 5.037 1.902 5.303 4.535.295 2.92-2.266 4.666-4.715 5.49-1.644.553-3.392.791-5.091 1.115l-.186.035c2.21.78 4.248 2.054 5.88 3.754 1.103 1.15 2.838 3.033 2.55 4.767-.307 1.861-3 2.674-4.57 2.954-4.881.867-8.79-2.61-13.365-3.59-5.583-1.198-11.064-.19-16.315 1.715a.984.984 0 01-.41.574 99.359 99.359 0 01-20.157 10.697c.004.05.002.098.007.147a221.808 221.808 0 01-51.751 17.966l.074.613c.17 1.403.656 3.091.2 4.481-.44 1.344-1.75 1.853-3.002 2.156-1.728.417-3.484.752-5.231 1.086a175.047 175.047 0 01-21.833 2.753 180.32 180.32 0 001.713 4.658 183.567 183.567 0 0026.406 46.652c.05-.072.108-.14.158-.213.576-.823 1.762-.382 1.89.357.206-.146.468-.222.773-.169 15.664 2.728 30.289 10.477 41.372 21.874a.927.927 0 01.27.643c.617-.025 1.269.465 1.04 1.23a87.696 87.696 0 01-7.42 17.646c-.962 1.73-2.006 3.411-3.085 5.07a.92.92 0 01.876.454l15.838 25.635c-.047.045-.088.096-.135.141l2.352 3.728a67.545 67.545 0 013.192-6.756c-.043.006-.087.006-.13.014.2-.305.412-.603.618-.905a107.504 107.504 0 012.124-3.664.913.913 0 01.918-.457 62.078 62.078 0 012.264-2.687c3.64-4.053 8.236-8.88 13.748-10.136a10.148 10.148 0 014.14-.09c.485-.019.982.003 1.495.082.396.062.6.3.676.581 2.252.97 4.188 2.716 5.622 4.912 2.905 4.452 3.769 9.85 3.979 15.063a57.297 57.297 0 01-2.68 19.752c-1.726 5.374-4.257 10.822-8.595 14.59-4.152 3.605-9.76 5.243-15.211 4.607a18.661 18.661 0 01-7.524-2.585c-2.937-.825-4.751-4.229-5.83-6.885a24.7 24.7 0 01-.725-2.079c-.353.362-.942.5-1.407.044l-10.571-10.37c-.014.087-.037.173-.051.26a284.799 284.799 0 00-10.237-8.738 278.327 278.327 0 00-12.956-9.905c-1.156-.83-2.528-1.98-4-1.949-3.135 1.65-6.582 2.67-10.127 2.46-.055.676-.738 1.295-1.452.806a93.964 93.964 0 00-2.31-1.526 15.57 15.57 0 01-1.741-.689c.064-.09.114-.193.173-.288-5.491-3.374-11.331-6.176-17.48-8.136-12.524-3.993-26.358-4.408-38.5 1.097-5.483 2.487-10.508 6.052-14.55 10.472-2.707 4.75-5.85 9.551-10.986 11.871-2.615 1.18-5.507 1.624-8.313.908-2.972-.758-5.524-2.596-8.448-3.488a.936.936 0 01-.574-.465c-5.642-2.268-11.127-4.927-16.368-8.01-6.596-3.879-12.974-8.159-19.388-12.343l-1.126-.65c-1.24-.714-2.954-1.38-3.796-2.596-.852-1.228-.424-2.493.394-3.604 1.892-2.569 4.036-4.985 6.237-7.29 8.798-9.215 19.54-16.449 31.337-21.234-.16-1.1-.141-2.25-.07-3.354.233-3.642.497-7.282.746-10.924l1.494-21.846 1.503-22.002c-3.995 2.81-8.66 4.278-13.552 4.746-4.986.477-10.03-.034-14.945-.899-2.486-.437-5.091-.849-7.495-1.642-2.348-.778-3.783-2.404-4.128-4.867-.216-1.545-.181-3.15-.09-4.75-10.61 1.623-21.353 1.082-31.988-.08-14.763-1.615-29.906-4.47-44.832-3.646a47.675 47.675 0 00-9.148 3.367c-3.516 1.73-6.76 3.884-9.781 6.37-2.208 1.817-5.69 3.838-8.22 1.296-2.396-2.407.063-6.718 1.474-9.017a22.386 22.386 0 013.374-4.234c-2.111.583-4.227 1.153-6.358 1.602-1.825.385-4.695.38-5.331-1.85-.773-2.713 2.934-4.985 4.742-6.293a31.733 31.733 0 013.614-2.237c-1.54-.1-3.071-.345-4.577-.764-2.203-.612-5.378-1.796-5.031-4.652.33-2.73 3.646-3.67 5.9-4.059a28.328 28.328 0 012.274-.292 17.195 17.195 0 01-1.654-1.043c-2.255-1.62-5.23-4.565-2.54-7.253 2.774-2.77 7.24-.534 10.309.451 3.529 1.131 7.059 2.263 10.587 3.396-1.097-2.723-4.381-4.49-4.637-7.693-.198-2.475 1.974-5.2 4.617-4.315 1.62.542 3.16 1.95 4.51 2.963a72.67 72.67 0 014.133 3.338 70.096 70.096 0 017.815 8.024c.2.242.265.51.239.762 5.24 2.597 11.302 3.112 17.265 3.234 18.379.376 36.758-1.879 54.515-6.624l.09-2.22c-.278-.383-.295-.974.056-1.35l.02-.538c.05-1.189 1.749-1.265 1.96-.249a974.98 974.98 0 0139.106-12.049c.037-.343.252-.64.714-.708 4.288-.62 7.84-3.126 11.296-5.573 3.984-2.82 7.966-5.644 11.948-8.465l-2.03 1.438-.068-.095.238-.026 1.86-1.317c.815-.577 1.598.332 1.426 1.114l.098-.024.128-.014c.218-.01.451.098.625.24.363.022.694.238.79.711a6.578 6.578 0 001.215 2.67c.043.013.085.03.128.04.421.11.675.477.714.88 1.232 1.127 2.87 1.801 4.604 1.693 3.33-.207 5.874-3.387 5.806-6.615-.014-.63.652-1.159 1.266-.964 2.094.667 4.185 1.345 6.272 2.035a7.079 7.079 0 00-.736.429c4.307 1.922 8.983 2.847 13.694 2.771-.057-.039-.11-.083-.166-.12-.097-.127-.178-.264-.283-.383l20.577.64c3.697.113 7.395.222 11.09.342 1.454.048 3.032.077 4.123 1.185.877.892 1.13 2.148 1.294 3.34.999 7.371 1.802 14.774 2.702 22.16l.37 3.038a221.032 221.032 0 0027.63-7.829 217.65 217.65 0 0018.16-7.405c-.016-.414.179-.837.679-1.004 8.329-2.77 16.222-6.669 23.51-11.55-.043-.239-.085-.48-.148-.712a54.902 54.902 0 013.01-1.127c4.049-1.366 8.355-2.174 12.64-1.935 2.033.113 4.07.447 6.01 1.074 2 .645 3.805 1.72 5.759 2.472 2.082.802 4.35.917 6.415-.029.538-.246 1.245-.48 1.06-1.2-.102-.4-.526-.907-.761-1.24a12.446 12.446 0 00-1.78-1.988c-2.731-2.489-6.422-3.68-10.087-3.346-1.127.103-1.361-1.755-.265-1.964 3.224-.616 6.48-1.142 9.685-1.858 1.804-.405 5.065-1.319 4.87-3.73-.174-2.197-3.18-3.027-4.987-2.9-3.031.21-5.772 1.758-8.867 1.633-1.193-.047-1.277-1.557-.266-1.964a91.414 91.414 0 008.708-4.032c1.136-.602 2.41-1.344 3.037-2.52.809-1.514-.78-2.256-2.036-2.54-2.947-.667-5.976.613-8.566 1.901-2.531 1.26-5.02 2.637-7.818 3.197-1.16.233-1.67-1.16-.772-1.827l8.442-6.266c1.077-.799 3.04-1.88 3.359-3.32.399-1.808-1.867-1.872-2.996-1.412-1.47.6-2.782 1.706-4.084 2.596l-4.453 3.041-8.501 5.806c-.734.5-1.702-.33-1.47-1.13 1.309-4.49 2.846-9.286 2.556-14.025-.076-1.237-.74-3.852-2.492-2.777-1.458.895-1.845 3.103-2.25 4.623-1.69 6.345-2.97 13.647-8.855 17.541-.431.285-.847.177-1.125-.098-3.327 2.04-6.68 4.038-10.085 5.943a297.078 297.078 0 01-52.387 22.954c-1.228.403-1.75-1.529-.532-1.928a298.953 298.953 0 0015.094-5.397c17.492-6.8 34.305-15.31 50.185-25.312.032.04.07.073.102.113 1.616-1.829 2.695-4.097 3.489-6.435 1.013-2.983 1.655-6.07 2.51-9.099zM273.99 250.286c-.543 3.68-3.575 6.871-7.37 7.246-2.688.266-5.308-.962-7.037-2.957-1.23-.646-2.145-1.9-2.349-3.277-.067.018-.132.045-.203.05-.44.033-.88.086-1.32.13a23.465 23.465 0 00-.08-.134l-4.222 2.993-6.151 4.356c-2.101 1.485-4.27 2.961-6.606 4.04a.907.907 0 01-.691.807 972.196 972.196 0 00-44.511 13.62l-.752 18.478-.364 8.932c-.111 2.69-.48 5.51-.23 8.195.116 1.242.519 2.42 1.637 3.096.973.586 2.176.783 3.268 1.033 2.276.523 4.566.985 6.872 1.346 8.948 1.402 19.114 1.367 26.458-4.689.044-.036.09-.045.136-.072l1.306-19.109c.087-1.279 2.088-1.284 2 0l-3.191 46.674-1.424 20.855c-.23 3.35-.563 6.712-.673 10.067-.047 1.424.005 3.028 1 4.155.809.916 2.063 1.265 3.225 1.463 3.097.53 6.383.43 9.517.595 3.373.18 6.747.365 10.12.527 6.692.321 13.4.526 20.095.168 12.03-.64 23.693-3.478 34.25-9.38a73.47 73.47 0 0022.926-20.04 188.158 188.158 0 01-8.771-12.157c-10.221-15.47-18.08-32.477-23.284-50.27-.362-1.242 1.568-1.766 1.929-.534a187.643 187.643 0 002.608 8.2.97.97 0 01.52-.194c7.509-.47 14.98-1.42 22.363-2.877 1.625-.32 3.43-.506 4.984-1.082.868-.32 1.039-.8.966-1.719-.061-.774-.185-1.546-.278-2.317l-.12-.97c-.525-.349-.67-1.175-.192-1.582l-.883-7.246-1.223-10.044-.627-5.143c-.174-1.426-.145-3.11-.676-4.46-.695-1.762-3.074-1.36-4.622-1.408l-4.437-.138c-3.451-.108-6.902-.214-10.352-.32l-10.987-.342a1.07 1.07 0 01-.416.138c-7.08.888-14.31-.532-20.561-3.958a.962.962 0 01-.382-.36z"/><path d="M184.05 470.59c-.558 2.196-1.415 4.304-2.313 6.38-.393.911-.817 1.976-1.43 2.851-.466.478-.958.925-1.479 1.34-.055.03-.11.057-.167.086 4.185-8.092 2.346-18.414-2.368-25.969-2.988-4.789-6.983-8.847-11.26-12.493-2.194-1.87-4.47-3.642-6.759-5.394-2.227-1.705-4.437-3.484-6.872-4.886-2.83-1.629-6.364-2.66-9.619-2.27a9.952 9.952 0 011.546-.568c6.351-1.685 12.72 3.055 17.551 6.547l4.078 2.948c.055.216.178.421.397.581 6.853 5.012 14.136 10.381 17.57 18.443 1.681 3.951 2.183 8.22 1.124 12.403m-9.022 12.737c-5.116 1.867-10.65.35-15.277-2.202-5.005-2.76-9.38-6.599-13.51-10.514-3.929-3.722-7.663-7.785-10.29-12.552-2.59-4.7-3.89-10.139-2.775-15.469.533-2.544 1.64-5.31 3.264-7.656a.833.833 0 00.846-.282c3.453-3.865 9.124-2.712 13.107-.419 2.316 1.334 4.421 3.012 6.54 4.631 2.044 1.562 4.075 3.142 6.046 4.795 7.61 6.378 14.701 14.322 15.866 24.59.597 5.251-.44 10.57-3.68 14.824a.975.975 0 00-.137.254m51.126-55.046a29.787 29.787 0 01-2.31-.45 708.245 708.245 0 00-25.826 28.97l.017.017-11.532 11.281a18.08 18.08 0 00.09-3.253c-.379-5.529-2.9-10.52-6.35-14.755.064-.06.13-.114.184-.187l6.747-9.106c.15-.2.166-.454.11-.694a266.956 266.956 0 0014.557-24.358c-.507-.47-.998-.956-1.47-1.455a266.56 266.56 0 01-18.169 29.661l.087.1-3.353 4.524a43.834 43.834 0 00-2.41-2.465c-2.01-1.894-4.17-3.617-6.375-5.283.085-.06.162-.132.25-.188-2.837-2.05-5.674-4.1-8.51-6.152-4.786-3.459-10.463-7.482-16.679-7.123-6.074.352-10.487 5.41-12.706 10.7-2.324 5.538-2.21 11.731-.023 17.294 2.09 5.32 5.673 9.897 9.617 13.974 4.292 4.438 9.03 8.71 14.222 12.07 4.965 3.208 10.831 5.57 16.83 4.496 2.573-.46 4.911-1.592 6.915-3.168a6.293 6.293 0 001.287-1.112c.04-.037.082-.072.121-.11l-.008-.017c1.36-1.573 2.12-3.736 2.896-5.64.758-1.858 1.404-3.762 1.812-5.709.352.23.82.273 1.207-.107 5.134-5.02 10.267-10.042 15.4-15.063a.884.884 0 00.227-.985 710.355 710.355 0 0123.145-25.707"/></g></svg>