<svg width="500" height="600" xmlns="http://www.w3.org/2000/svg"><g fill="none" fill-rule="evenodd"><g fill="#161616"><path d="M275.496 157.32a.289.289 0 01-.021-.019c-.016-.012-.03-.025-.045-.038l.066.058m.17.15l-.17-.15.17.15m-2.734 21.332l.134.012c-.045-.003-.09-.008-.134-.012m2.329-21.696c.07.065.142.13.214.194.72.63 1.446 1.257 1.984 1.964.327.64.527 1.295.685 1.965.307 1.87.285 3.747.303 5.626.005.662-.093 1.33-.14 1.992-.03.422-.124.849-.212 1.272l.041-.203c-.167.647-.283 1.311-.516 1.95-.176.477-.35.956-.526 1.436-.237.645-.578 1.276-.94 1.895-.283.418-.595.82-.959 1.216-.314.342-.662.67-1.02.992a13.7 13.7 0 01-1.66 1.196l-.075.032a7.519 7.519 0 01-.335-.241 11.396 11.396 0 01-1.459-1.743c-.716-1.244-1.287-2.515-1.611-3.834-.554-3.142-.38-6.339.213-9.473a18.43 18.43 0 01.624-2.184c.595-.525 1.185-1.053 1.775-1.581.467-.397.94-.787 1.443-1.165.58-.434 1.244-.815 1.913-1.185.083-.04.168-.08.252-.118.059.05.117.102.175.153l-.174-.153.005-.003m1.44-.47l-.176.016a4.18 4.18 0 01.177-.016m-1.847-4.546c-1.778.324-3.249 1.1-4.535 1.97-1.863 1.257-3.16 2.839-4.466 4.37a37.164 37.164 0 00-1.786 2.24c-.509.699-.451 1.506.395 2.08.094.065.195.122.3.174a25.12 25.12 0 00-.437 1.608c-.555 2.306-1.108 4.63-1.275 6.964-.066.933-.086 1.862.052 2.792.244 1.67.794 3.323 1.566 4.914.352.73.825 1.436 1.328 2.121.428.584 1.064 1.127 1.745 1.58.399.263.973.522 1.462.728.517.218 1.132.352 1.718.46.14.013.28.024.418.038.494.076.992.11 1.495.1.786.004 1.643-.147 2.369-.347.695-.192 1.223-.356 1.822-.641.569-.27 1.107-.575 1.616-.896.904-.569 1.624-1.296 2.33-1.975 1.369-1.311 2.293-2.782 3.024-4.304.615-1.282.964-2.619 1.25-3.95.38-1.762.69-3.547.657-5.332-.022-1.054-.03-2.11-.082-3.164a22.078 22.078 0 00-.561-3.84c-.267-1.157-.813-2.258-1.635-3.29-.457-.573-1.14-1.08-1.724-1.59-.208-.182-.434-.354-.648-.529a45.467 45.467 0 00-1.228-.959 9.31 9.31 0 00-1.721-1.009 6.79 6.79 0 00-1.212-.311 6.176 6.176 0 00-1.114-.093c-.398 0-.795.031-1.123.09"/><path d="M274.128 166.659a6.652 6.652 0 00-1.557-.048c-.752.069-1.074.11-1.764.324-.498.155-.923.4-1.322.655-.335.214-.588.494-.86.748-.195.181-.346.386-.5.584a7.617 7.617 0 00-.937 1.562c-.21.462-.325.947-.424 1.426-.151.719-.236 1.413-.156 2.135.089.797.36 1.555.8 2.278a3.1 3.1 0 00.244.512c.13.252.291.495.49.726l.172.155c.2.207.43.395.688.569.398.282.904.513 1.415.688.623.214 1.212.3 1.89.371.841.09 1.688.133 2.532.181.467-.002.901-.08 1.305-.239.578-.23 1.01-.61 1.188-1.048.14-.347.113-.699-.047-1.018a5.003 5.003 0 001.193-1.23c.678-1.017 1.19-2.14 1.239-3.259.025-.561-.143-1.145-.313-1.692-.192-.611-.597-1.205-.992-1.766-.644-.912-1.697-1.724-2.972-2.25-.04-.3-.412-.483-.8-.483a1.11 1.11 0 00-.512.119m-36.198-9.368a.289.289 0 01-.023-.016l-.05-.032.073.048m.189.124c-.063-.04-.125-.083-.189-.124.063.042.126.084.189.124m.262 21.506l.134-.007-.134.007m-.713-21.809l.239.163c.801.522 1.606 1.043 2.238 1.668.413.588.702 1.21.952 1.85.564 1.809.803 3.67 1.082 5.53.098.655.094 1.33.139 1.992.029.422-.005.857-.033 1.29l.013-.208c-.076.664-.097 1.338-.24 2.002-.108.498-.213.997-.32 1.496-.145.672-.396 1.344-.668 2.007a10.43 10.43 0 01-.78 1.338c-.264.382-.562.756-.871 1.124-.452.498-.932.968-1.479 1.416l-.07.042a7.519 7.519 0 01-.365-.192 11.396 11.396 0 01-1.687-1.523c-.882-1.132-1.625-2.312-2.13-3.573-.985-3.034-1.257-6.224-1.106-9.41.06-.748.158-1.5.314-2.25.516-.603 1.026-1.207 1.537-1.812.408-.458.82-.91 1.267-1.355.514-.51 1.119-.98 1.729-1.44l.234-.152.194.128-.194-.128c.002 0 .003-.001.005-.003m1.361-.666l-.172.04a4.18 4.18 0 01.172-.04m-2.461-4.245c-1.716.569-3.064 1.542-4.217 2.582-1.67 1.504-2.735 3.251-3.814 4.95a37.164 37.164 0 00-1.457 2.467c-.407.762-.237 1.553.68 2.004.102.05.21.094.322.13a25.12 25.12 0 00-.21 1.654c-.228 2.36-.451 4.739-.292 7.073.064.933.174 1.856.44 2.758.474 1.62 1.249 3.18 2.234 4.648.45.673 1.017 1.308 1.61 1.916.506.518 1.21.967 1.948 1.321.432.205 1.036.382 1.55.517.542.145 1.17.192 1.765.218.14-.007.28-.016.419-.022.5.007.997-.029 1.494-.108.78-.106 1.607-.375 2.298-.673.662-.287 1.161-.523 1.715-.89a15.543 15.543 0 001.476-1.111c.816-.69 1.428-1.51 2.033-2.28 1.172-1.49 1.882-3.074 2.394-4.683.432-1.355.591-2.728.689-4.085.13-1.798.19-3.61-.092-5.373-.168-1.04-.323-2.085-.521-3.121a22.078 22.078 0 00-1.09-3.724c-.425-1.11-1.12-2.124-2.077-3.03-.532-.505-1.28-.912-1.929-1.337-.231-.15-.479-.289-.715-.432a45.467 45.467 0 00-1.35-.78 9.31 9.31 0 00-1.844-.759 6.79 6.79 0 00-1.243-.14 6.176 6.176 0 00-1.117.064 6.504 6.504 0 00-1.1.246"/><path d="M237.876 166.728a6.652 6.652 0 00-1.549.17c-.736.173-1.048.258-1.702.566-.47.223-.858.524-1.218.833-.302.259-.514.571-.747.86-.169.207-.29.43-.414.648a7.617 7.617 0 00-.711 1.677c-.143.487-.19.983-.22 1.472-.05.732-.038 1.431.141 2.135.2.777.573 1.49 1.109 2.144.088.164.191.322.314.474.163.232.357.45.585.65l.193.13c.227.177.48.332.76.468.433.223.967.382 1.497.484.648.126 1.242.129 1.924.105.845-.029 1.69-.104 2.532-.174a3.576 3.576 0 001.26-.418c.54-.309.914-.744 1.03-1.203a1.204 1.204 0 00-.188-1.001c.44-.433.783-.91 1.01-1.384.53-1.102.88-2.285.773-3.4-.053-.56-.3-1.115-.545-1.632-.276-.579-.759-1.11-1.229-1.611-.764-.813-1.92-1.47-3.256-1.814-.082-.292-.475-.421-.86-.367a1.11 1.11 0 00-.49.188"/><path d="M245.655 211.931c.54 1.51 1.748 2.038 2.698 1.18l.93-.83c5.455-4.795 6.857-4.56 14.387.303 1.013.654 2.168-.12 2.58-1.727.411-1.608-.076-3.441-1.088-4.095l-.864-.553c-8.297-5.25-10.762-5-17.9 1.438-.95.857-1.283 2.775-.743 4.284z" fill-rule="nonzero"/></g><path d="M198.513 124.978c11.187-16.494 19.175-36.347 33.562-49.481 17.126-15.635 29.4 1.285 43.814 5.789 17.3 5.405 26.003 14.743 37.32 0 1.55-2.02.744 14.087-10.35 24.181-.262.238.726-.277 1.062-.863 1.053-1.836 4.245-2.347 12.601 34.02 1.74 7.577-1.716 17.155-3.313 24.77-1.048 5 3.692-5.851 0-8.974-5.79-4.898-10.076-11.72-14.274-18.302-1.316-2.063.215-6.667-2.014-7.235-7.967-2.028-16.55 2.462-24.525.478-5.373-1.337-8.525-8.287-13.805-10.013-5.859-1.915-12.526-2.61-18.327-.49-9.45 3.45-16.845 11.793-25.794 16.603-4.242 2.28-11.547-.172-13.546 4.543-3.509 8.275 7.147 32.025 0 27.406h-3.259c-1.583-1.023-3.489-2.486-3.698-4.496-1.07-10.3-1.492-20.865 0-31.1 1.201-8.234 7.268-8.768 12.53-10.596" fill="#000"/></g></svg>