<svg width="500" height="600" xmlns="http://www.w3.org/2000/svg"><g fill="none" fill-rule="evenodd"><g fill="#161616"><path d="M264.78 154.838c.147.03.29.066.432.107.121.058.237.12.353.188a13.6 13.6 0 011.535 1.416c.28.367.524.749.745 1.154.354.882.578 1.796.757 2.726.146.983.237 1.966.306 2.959.075 1.068.155 2.134.105 3.206a10.491 10.491 0 01-.455 1.82 20.106 20.106 0 01-1.897 3.374c-.41.532-.842 1.05-1.332 1.51a7.42 7.42 0 01-.46.292c-.31.117-.621.212-.944.289a7.46 7.46 0 01-.87.033 7.452 7.452 0 01-.697-.164 8.319 8.319 0 01-.897-.49 11.08 11.08 0 01-1.148-1.015 6.336 6.336 0 01-.395-.634c-.611-1.48-.96-3.045-1.312-4.6l-.247-1.455c-.219-1.29-.254-2.624-.157-3.931.148-1.077.437-2.105.808-3.123.18-.433.376-.854.594-1.263.437-.094.85-.312 1.177-.652.252-.263.506-.52.774-.768a4.51 4.51 0 01.372-.224c.67-.286 1.344-.55 2.052-.722a7.14 7.14 0 01.8-.033m-.92-5.49a9.433 9.433 0 00-1.51.314c-.587.178-1.15.49-1.695.757-.786.38-1.516.998-2.137 1.593-.318.304-.548.712-.8 1.066-.215.298-.403.613-.603.923-.291.448-.343 1-.221 1.517-.183.304-.355.613-.517.93-.39.766-.702 1.591-.994 2.399a15.665 15.665 0 00-.609 2.134c-.157.762-.21 1.552-.271 2.327-.086 1.072-.038 2.144.023 3.216.063 1.17.157 2.34.23 3.509.036.534.059 1.07.086 1.604.072 1.33.414 2.582 1.188 3.687.865 1.234 2.104 2.234 3.385 3.019 1.479.91 3.348 1.222 5.059 1.04a8.436 8.436 0 002.566-.676c.447-.202.85-.392 1.258-.65.393-.247.733-.574 1.088-.87.52-.432.954-1.006 1.38-1.524.649-.79 1.21-1.657 1.744-2.521a17.947 17.947 0 001.935-4.346c.226-.77.274-1.58.348-2.37.063-.682.037-1.397-.008-2.081-.048-.7-.096-1.4-.142-2.1-.094-1.382-.34-2.761-.629-4.113a11.826 11.826 0 00-.811-2.495 16.524 16.524 0 00-.662-1.314c-.294-.517-.69-.967-1.073-1.42a13.131 13.131 0 00-1.823-1.776 13.58 13.58 0 00-1.108-.802 6.487 6.487 0 00-1.583-.718 7.006 7.006 0 00-2.12-.322 7.79 7.79 0 00-.974.062"/><path d="M259.675 165.98c-.861 1.348-1.311 2.885-1.552 4.457-.133.865-.166 1.76-.186 2.636-.01.346.033.687.087 1.028.112.705.226 1.254.584 1.88.338.59.813 1.096 1.303 1.562.358.34.869.623 1.313.845.587.292 1.215.4 1.862.417 2.04.051 4.031-.982 5.314-2.542 1.174-1.427 1.784-3.193 2.025-5.007.117-.875.193-1.778.137-2.66a7.834 7.834 0 00-.274-1.55c-.2-.738-.752-1.4-1.29-1.906-.43-.405-1.187-.791-1.764-.921-.498-.11-1.003-.145-1.513-.176l-.08.01a4.145 4.145 0 00-.921-.424 3.57 3.57 0 00-1.103-.177c-1.627 0-3.056 1.141-3.942 2.527m-30.149-8.743c.055.016.109.033.164.051l.05.024c.5.467.936 1.018 1.371 1.55.6.76 1.193 1.528 1.666 2.378.325.919.458 1.908.667 2.86.175.797.374 1.59.541 2.39.054.53.06 1.05.03 1.582l-.128 1.042c-.064.523-.2 1.05-.295 1.568-.082.424-.204.843-.308 1.262a24.87 24.87 0 01-.513 1.803c-.28.68-.61 1.32-1.003 1.938a13.221 13.221 0 01-1.238 1.474 6.559 6.559 0 01-.279.187c-.554-.096-1.1-.22-1.64-.39a9.118 9.118 0 01-1.168-.657 11.845 11.845 0 01-1.483-1.446 12.148 12.148 0 01-1.094-1.816c-.606-1.45-1.007-2.974-1.296-4.52a18.813 18.813 0 01-.174-3.983c.153-1.24.428-2.418.835-3.598a15.87 15.87 0 01.956-2.107c.871.667 2.094.535 2.857-.273.31-.325.63-.637.959-.94a7.1 7.1 0 01.523-.38m-.19-.032l-.247.045c.083-.02.164-.035.248-.045m-.519-5.263a4.425 4.425 0 00-1.172.501c-.632.407-1.161.93-1.655 1.5-.417.482-.783 1.03-1.128 1.581a12.04 12.04 0 00-1.39 1.492c-.53.67-.93 1.44-1.309 2.207a21.902 21.902 0 00-1.613 4.418c-.396 1.608-.548 3.29-.55 4.943-.006 1.563.21 3.11.471 4.644.288 1.697.918 3.305 1.761 4.788.409.722.94 1.36 1.463 1.992.436.526.947.973 1.486 1.38.695.523 1.382.945 2.176 1.29.612.264 1.246.482 1.876.701 1.625.566 3.315.04 4.724-.858.684-.435 1.281-1.077 1.825-1.685.639-.714 1.182-1.519 1.708-2.321.852-1.294 1.334-2.843 1.771-4.324.18-.607.312-1.232.47-1.845.359-1.417.521-2.921.642-4.376.174-2.063-.42-4.062-.893-6.046-.099-.415-.2-.828-.3-1.243-.196-.803-.462-1.588-.851-2.314-.394-.734-.895-1.366-1.42-2.002a22.1 22.1 0 00-2.168-2.284 17.581 17.581 0 00-1.096-.929 14.402 14.402 0 00-.846-.61c-.347-.236-.76-.345-1.146-.49-.573-.214-1.276-.247-1.87-.267-.323.038-.646.09-.966.157"/><path d="M229.983 164.358c-1.117.048-2.134.478-3.024 1.157a6.79 6.79 0 00-.21.165 5.109 5.109 0 00-.57.382c-1.064.824-1.854 1.942-2.438 3.163-.283.593-.49 1.238-.695 1.862-.232.701-.273 1.45-.327 2.182-.03.408.022.812.082 1.214.015.358.085.7.212 1.028.168.484.55 1.149.95 1.482a8.125 8.125 0 001.35.938c.066.075.134.147.202.216.307.307.722.66 1.084.856.405.218.835.364 1.264.525l.273.067c.37.043.742.082 1.112.115a6.368 6.368 0 001.549-.23c.52-.065 1.034-.18 1.537-.323.842-.243 1.657-.703 2.272-1.346.287-.302.69-.762.847-1.123.21-.468.384-.95.537-1.44.11-.361.142-.752.18-1.129a13.57 13.57 0 00.087-1.614c-.02-1.006-.272-2.05-.584-3-.263-.793-.645-1.558-1.023-2.296-.192-.38-.597-.847-.857-1.126-.32-.346-.64-.59-1.044-.863-.743-.503-1.707-.865-2.622-.865l-.144.003m24.872 27.098c.435 0 .87.021 1.312.07.566.06 1.18.098 1.726.318.446.18.884.388 1.325.586.393.176.78.374 1.163.576.74.392 1.313 1.174 1.574 2.06.326 1.113.07 2.27-.374 3.278-.37.846-.811 1.64-1.19 2.48a31.033 31.033 0 00-.886 2.134 13.32 13.32 0 00-.276 1.696 30.984 30.984 0 00.116 4.703c.164 1.592.364 3.179.558 4.764.092.757.207 1.528.18 2.292-.028.748-.128 1.499-.491 2.139a3.06 3.06 0 01-.94 1.174 1.48 1.48 0 01-.505.35c-.488.267-.931.493-1.455.635-.198.055-.4.104-.6.15-1.368.324-2.752.537-4.13.789-1.216.28-2.43.681-3.672.434-1.011-.2-1.928-.896-2.73-1.594-.443-.385-.807-.857-1.185-1.32-.575-.702-1.036-1.42-1.393-2.29-.418-1.026-.841-2.028-1.098-3.127-.423-1.81-.777-3.668-.837-5.551-.05-1.591.068-3.162.227-4.741.141-1.395.55-2.795 1.2-3.986a3.43 3.43 0 01-.112-.769c-.024-.826.24-1.535.69-2.153a12.3 12.3 0 011.186-1.417c.478-.48.98-.98 1.539-1.335 1.083-.7 2.246-1.296 3.46-1.609 1.476-.376 2.985-.583 4.495-.692.377-.029.75-.044 1.123-.044zm.253 6.316a.927.927 0 01-.299.365c-.381.262-.794.393-1.206.562-.171.069-.343.137-.512.209-.29.116-.576.231-.863.35-.679.277-1.36.554-2.039.833-1.84.762-3.68 1.52-5.52 2.285l.994-.413a11.04 11.04 0 00-.059.383c-.01.635.04 1.26.073 1.898.02.385.028.773.063 1.158.063.715.116 1.427.204 2.137a31.06 31.06 0 001.159 4.487c.164.346.338.689.497 1.04.169.38.32.774.483 1.16l-.182-.444 6.011-.959a.672.672 0 01.105-.008c.092 0 .187.017.28.046l-.112-.915c-.11-.896-.225-1.794-.33-2.692-.093-.827-.176-1.698-.171-2.533.007-1.09.037-2.161.157-3.245.082-.754.172-1.49.389-2.214.209-.696.47-1.354.754-2.011.203-.47.43-.93.663-1.383a14.416 14.416 0 00-.538-.096z"/></g><path d="M196.513 124.978c11.187-16.494 19.175-36.347 33.562-49.481 17.126-15.635 29.4 1.285 43.814 5.789 17.3 5.405 26.003 14.743 37.32 0 1.55-2.02.744 14.087-10.35 24.181-.262.238.726-.277 1.062-.863 1.053-1.836 4.245-2.347 12.601 34.02 1.74 7.577-1.716 17.155-3.313 24.77-1.048 5 3.692-5.851 0-8.974-5.79-4.898-10.076-11.72-14.274-18.302-1.316-2.063.215-6.667-2.014-7.235-7.967-2.028-16.55 2.462-24.525.478-5.373-1.337-8.525-8.287-13.805-10.013-5.859-1.915-12.526-2.61-18.327-.49-9.45 3.45-16.845 11.793-25.794 16.603-4.242 2.28-11.547-.172-13.546 4.543-3.509 8.275 7.147 32.025 0 27.406h-3.259c-1.583-1.023-3.489-2.486-3.698-4.496-1.07-10.3-1.492-20.865 0-31.1 1.201-8.234 7.268-8.768 12.53-10.596" fill="#000"/></g></svg>