<?xml version="1.0" encoding="UTF-8"?>
<svg width="500px" height="600px" viewBox="0 0 500 600" version="1.1" xmlns="http://www.w3.org/2000/svg" xmlns:xlink="http://www.w3.org/1999/xlink">
    <title>explaining</title>
    <g id="explaining" stroke="none" stroke-width="1" fill="none" fill-rule="evenodd">
        <g id="body" transform="translate(210.000000, 247.000000)" fill="#231F20">
            <path d="M62.2674,0.1831 C61.8424,0.2681 61.4464,0.7901 61.4574,1.3081 C61.5024,4.4011 59.4454,7.8651 56.7524,8.6031 C56.6534,8.6301 56.5544,8.6541 56.4554,8.6731 C55.1624,8.9331 53.9544,8.5511 53.0304,7.7251 C53.0014,7.3411 52.7904,7.0371 52.4564,6.9921 L52.3544,6.9781 C51.8754,6.3221 51.5284,5.5191 51.3704,4.6091 C51.2974,4.1741 51.0294,4.0201 50.7384,4.0531 C50.5984,3.9561 50.4184,3.8911 50.2494,3.9251 L50.2294,3.9301 C50.0544,3.9741 49.8864,4.0761 49.7484,4.2341 C49.6214,4.1481 49.4844,4.0941 49.3284,4.1251 C49.3134,4.1281 49.2974,4.1321 49.2834,4.1371 C46.7574,4.8681 44.2464,5.7941 41.7714,6.9211 C41.6984,6.9541 41.6324,7.0181 41.5674,7.0831 C38.4224,8.2931 35.2784,9.6491 32.2554,11.4651 C26.5614,14.8791 21.5614,19.9261 17.2664,25.7221 C12.9714,31.5261 9.3734,37.9771 6.0004,44.4961 C5.1614,46.1161 4.3434,47.7321 3.5264,49.3651 C2.7074,50.9981 1.6064,52.7661 1.4284,54.6081 C1.4134,54.7751 1.4204,54.9301 1.4204,55.0851 C1.0564,55.3911 0.8004,55.9611 1.0614,56.4711 C1.9534,58.2541 2.9384,59.9411 3.9974,61.5601 C2.7734,70.7601 2.8724,79.8841 4.3474,88.4901 C5.5854,95.7441 7.4964,104.2971 13.0334,107.8631 C13.1794,107.9571 13.3244,107.9811 13.4584,107.9541 C14.1134,107.8231 14.5504,106.4961 13.8584,106.0471 C11.3374,104.4171 9.7204,101.5091 8.5914,98.3821 C7.3264,94.8851 6.4664,91.0731 5.8334,87.2421 C4.5824,79.6531 4.4374,71.6101 5.3474,63.5201 C8.7494,68.2401 12.8304,72.1921 17.4734,75.1941 C17.6174,75.2911 17.7604,75.3161 17.8934,75.2891 C17.9624,75.2751 18.0294,75.2471 18.0914,75.2091 C18.9344,75.6711 19.8134,76.0391 20.7514,76.2311 C18.8964,84.0701 17.2824,91.9301 15.7904,99.8171 C14.7984,105.0461 13.6544,110.3141 11.4484,115.2421 C11.0554,115.4941 10.7634,116.0191 10.9374,116.5111 C10.8484,117.0301 11.1464,117.3851 11.5324,117.4471 C13.0914,119.7351 15.0594,121.3801 17.2684,122.5711 C17.1374,122.7531 17.0494,122.9871 17.0564,123.2701 C17.1574,127.9001 16.2394,132.6471 15.5024,137.3321 C14.7814,141.9281 14.0604,146.5321 13.3304,151.1291 C11.8734,160.4101 10.4154,169.6991 8.9514,178.9811 C8.9074,179.2491 8.9574,179.4631 9.0524,179.6261 C8.5764,181.1561 8.4564,182.6921 9.0584,184.1881 C9.9854,186.4921 12.0054,187.4951 14.0844,187.9261 C14.7684,188.0741 15.4664,188.1841 16.1644,188.2871 C15.9964,200.4461 15.8214,212.6071 15.6534,224.7661 L15.7694,224.7171 C15.9984,230.6001 16.2274,236.4831 16.4564,242.3661 C16.4634,242.5371 16.4994,242.6681 16.5574,242.7781 C16.5714,243.7081 16.5614,244.6351 16.4954,245.5821 C16.2184,249.4231 14.5174,252.5291 12.2644,255.5131 C8.7354,260.2051 4.0404,265.4751 5.1574,271.5521 C4.2784,275.0301 5.1594,278.4831 7.0814,280.7171 C9.2464,283.2181 12.5974,283.6961 15.8274,283.0491 C16.4124,282.9321 16.9924,282.7781 17.5604,282.5921 C24.6714,280.2681 30.9544,273.4951 34.4244,265.4701 C36.3744,260.9481 37.4234,256.0531 37.3164,251.3391 C37.2994,250.7291 36.8914,250.5031 36.4894,250.5831 C36.3974,250.6021 36.3054,250.6361 36.2194,250.6861 C36.2484,250.4201 36.2864,250.1541 36.3004,249.8911 C36.4884,247.1661 36.1434,244.5561 35.9524,241.9241 C35.8454,240.4331 35.7834,238.9331 35.7494,237.4271 L35.6474,237.4911 C36.0144,231.5311 36.4404,225.5601 36.9314,219.5851 L36.9754,219.6021 C37.8744,209.2751 39.2254,198.9271 41.0344,188.5911 C41.0554,188.4401 41.0564,188.3101 41.0344,188.1851 C42.6644,187.7891 44.2944,187.2031 45.7594,186.0541 C50.2464,182.5361 49.6334,175.4591 50.1454,170.4221 C50.7834,164.1231 51.9294,157.8001 53.5044,151.5561 C55.1854,159.1181 53.7214,167.7171 53.8734,175.7501 C53.9144,177.5311 53.7874,179.9081 54.5624,181.3591 C55.3594,182.8331 57.0704,182.3691 58.4524,182.2221 C58.9904,182.1661 59.5214,182.1021 60.0604,182.0471 C60.0234,182.1581 59.9944,182.2931 59.9944,182.4321 C60.1674,198.2901 59.7744,214.2631 58.7914,230.3111 C58.5294,234.5461 58.2234,238.7911 57.8884,243.0321 C57.8444,243.1271 57.8074,243.2221 57.7864,243.3471 C57.4844,245.3001 57.2104,247.2991 57.0544,249.2751 C53.7664,257.1941 56.7264,265.3911 61.7314,269.3571 C64.4764,271.5371 67.7184,272.7631 71.0554,273.5811 C73.5344,274.1771 76.3064,274.8701 79.0294,274.3251 C79.9884,274.1321 80.9414,273.7861 81.8724,273.2281 C85.1864,271.2331 87.7974,267.2091 88.3294,262.9711 C88.3734,262.6251 88.2724,262.3691 88.1204,262.1921 C88.9844,258.7001 88.4104,254.9001 87.0764,252.0561 C84.5334,246.6541 80.0674,242.5711 75.4604,239.7871 C75.6484,236.9321 76.3794,230.4501 76.4614,229.7421 C76.9064,225.5391 77.3574,221.3441 77.8164,217.1461 C78.7184,208.8321 79.6284,200.5171 80.5614,192.1981 C81.1014,187.3621 81.6484,182.5251 82.1954,177.6871 C82.2094,177.5901 82.1884,177.5251 82.1814,177.4401 C85.0714,176.4111 88.6304,175.1971 90.8254,172.3801 C93.4564,169.0001 92.3244,164.3091 92.0174,160.7241 C91.6264,156.0141 91.2934,151.2931 91.0184,146.5431 C90.3984,135.8201 90.0904,125.0011 90.0814,114.1211 C90.0824,113.7411 89.9234,113.5221 89.7124,113.4181 C91.1334,112.0181 92.3804,110.3251 93.3294,108.2501 C95.3744,103.7961 95.7844,98.7621 95.7484,94.1531 C95.6954,88.1141 95.0154,82.1831 94.5604,76.2591 C94.2754,72.4691 93.9894,68.6781 93.7044,64.8851 C93.3784,64.3021 93.0544,63.7181 92.7304,63.1351 C92.3694,62.4751 92.9074,61.6881 93.4544,61.5601 C93.3894,60.7101 93.3254,59.8601 93.2614,59.0101 C96.4284,57.8461 99.3624,55.7801 102.1954,53.4661 C102.1444,53.3331 102.0934,53.2011 102.0444,53.0661 C101.8474,52.5301 102.2464,52.0711 102.6614,51.9871 C102.9304,51.9331 103.2074,52.0381 103.3334,52.3841 C103.3464,52.4191 103.3594,52.4531 103.3724,52.4881 C104.3954,51.6241 105.4074,50.7391 106.4144,49.8651 C107.6974,48.7611 108.9804,47.6491 110.2624,46.5361 C111.2604,45.6701 112.6294,44.8081 113.4024,43.6251 C114.1684,42.4601 113.8214,41.3371 113.4964,40.2611 L112.8094,38.0051 C112.8454,37.8511 112.8534,37.6941 112.8174,37.5281 C111.9454,33.1911 110.7674,29.0201 109.2694,25.0511 C108.5594,23.1791 107.7914,21.3451 106.9524,19.5781 C106.4584,18.5531 105.9224,17.5971 105.2104,16.8501 C105.3124,16.8031 105.4214,16.7471 105.5314,16.7071 C104.2604,15.7091 102.7704,15.0661 101.5364,13.9991 L101.5804,13.8521 C95.1874,8.9201 87.5774,5.9511 79.9654,3.8721 C74.2294,2.3081 68.3534,1.2301 62.4784,0.1781 C62.4084,0.1661 62.3374,0.17062102 62.2674,0.1831 M56.4274,10.5971 C56.6254,10.5571 56.8254,10.5051 57.0254,10.4411 C60.0894,9.4731 62.5474,5.9121 62.9974,2.2871 C71.7384,3.8531 80.5074,5.5271 88.6844,8.8831 C92.6234,10.5051 96.4104,12.5291 99.8824,15.1091 C100.7534,16.0231 101.8144,16.6141 102.8534,17.2451 C102.8964,17.4521 103.0054,17.6381 103.2084,17.7441 C104.5244,18.4481 105.1984,20.0501 105.8714,21.5141 C106.6824,23.2791 107.4364,25.0901 108.1094,26.9601 C109.0934,29.6921 109.9244,32.5161 110.6174,35.4191 C110.4634,35.6581 110.3764,35.9521 110.4774,36.2861 C110.8824,37.6051 111.2804,38.9251 111.6854,40.2441 C111.8584,40.8141 112.1564,41.4201 112.2194,42.0301 C112.2984,42.7831 111.6724,43.1161 111.1994,43.5221 C108.9844,45.4441 106.7694,47.3661 104.5544,49.2791 C100.9624,52.3931 97.2394,55.6281 93.1194,57.1371 C92.8994,54.2251 92.6794,51.3131 92.4584,48.4021 C92.3504,48.0781 92.2864,47.7281 92.2874,47.3561 C92.2874,46.9501 92.2954,46.5421 92.3104,46.1411 C92.1954,45.7151 92.1454,45.2411 92.1824,44.7581 L91.1534,31.1361 C91.1064,30.5341 90.6744,30.3111 90.2684,30.3931 C89.8644,30.4741 89.4844,30.8551 89.5304,31.4611 C90.1984,40.2381 90.8584,49.0161 91.5254,57.7931 C91.0074,58.3121 91.0414,59.3681 91.6534,59.4621 C91.9154,62.9091 92.1714,66.3581 92.4344,69.8061 C92.9164,76.1481 93.4074,82.4891 93.8744,88.8331 C94.2084,93.4331 94.4174,98.2491 93.3984,103.0251 C92.3044,108.1801 89.5624,112.3071 85.4044,114.6101 C83.1624,115.8541 80.8184,116.6001 78.4894,117.3091 C75.8254,118.1291 73.1614,118.8701 70.4914,119.5351 C68.2804,120.0831 66.0664,120.5791 63.8544,121.0231 C55.3174,122.7341 46.7824,123.6621 38.3534,123.7721 C29.5744,123.8901 18.3274,124.2431 12.8144,116.0141 C14.7494,111.7201 15.9294,107.1441 16.8474,102.5701 C17.8824,97.4621 18.7794,92.3391 19.8584,87.2221 C20.3794,84.7841 20.9294,82.3581 21.4944,79.9281 C21.6944,77.9961 22.1124,76.0791 22.8354,74.3011 C24.3674,68.0481 26.0304,61.8201 27.8534,55.6211 C29.6024,49.6871 31.4834,43.7871 33.4944,37.9221 C33.7804,37.1001 33.2124,36.5091 32.6934,36.6131 C32.4554,36.6611 32.2294,36.8531 32.0984,37.2341 C28.5804,47.4981 25.4414,57.8681 22.7154,68.3271 C22.1954,70.3241 21.7044,72.3151 21.2204,74.3051 C19.6504,73.9721 18.2404,73.1741 16.9334,72.1311 L16.8454,72.1141 L16.8304,72.3581 C11.4264,68.5071 6.8744,63.2741 3.4164,56.9931 L3.5784,56.7451 L3.5044,56.6291 C2.5994,54.8841 3.3004,53.3001 4.2274,51.4461 C4.9794,49.9301 5.7394,48.4291 6.5054,46.9271 C12.4484,35.2611 19.2864,23.1651 29.1344,15.6341 C32.3034,13.2091 35.7104,11.4461 39.1474,9.9891 C40.8504,9.2661 42.5684,8.6201 44.2934,7.9801 C44.4964,7.9051 44.7594,7.7921 45.0504,7.6641 L45.0504,7.5001 C46.4554,6.9511 47.8604,6.4701 49.2794,6.0561 L49.4474,5.9791 C49.6044,7.2701 50.3444,8.3231 51.3404,8.7461 C52.6054,10.2261 54.4664,10.9891 56.4274,10.5971 M39.5064,186.6211 C37.8364,186.9561 36.1594,187.1431 34.5114,187.2711 C29.3384,187.6681 24.2694,187.2061 19.2584,186.6201 C16.8734,186.3471 13.9934,186.4231 11.9954,184.9741 C11.0734,184.3031 10.3034,183.2041 10.2344,181.7921 C10.1994,181.0131 10.4044,180.2371 10.6964,179.4781 C10.6624,178.3441 10.8094,177.1911 11.1024,176.0521 L11.0004,176.0461 C12.3264,167.6481 13.6434,159.2511 14.9684,150.8441 C15.7044,146.1681 16.4404,141.4831 17.1764,136.8071 C17.8904,132.2901 18.7284,127.7151 18.6714,123.2491 C23.1414,125.2141 28.4074,125.5851 33.3014,125.6931 C43.3714,125.9141 53.6224,124.9901 63.8774,122.9351 C64.7794,122.7541 65.6784,122.5651 66.5794,122.3671 C71.9064,121.1961 77.3414,119.8731 82.6204,117.8471 C84.6794,117.0631 86.6814,115.9871 88.4664,114.5321 C88.4714,123.4931 88.6804,132.4051 89.1084,141.2651 C89.3114,145.6321 89.5724,149.9781 89.8834,154.3151 C90.0394,156.5651 90.2174,158.8031 90.4024,161.0481 C90.5734,163.0701 90.8684,165.0941 90.878802,167.1661 C90.8964,169.1331 90.3114,170.8321 88.8324,172.1221 C87.5064,173.2781 85.9264,173.9411 84.4414,174.5841 C80.8814,176.1361 77.2574,177.2251 73.6334,178.0381 C73.0924,178.1581 72.5504,178.2721 72.0094,178.3811 C68.8984,179.0041 65.7884,179.4481 62.6824,179.8271 C60.8274,180.0521 58.9644,180.3131 57.1174,180.4411 C56.1934,180.5141 55.8374,180.1191 55.6944,179.0671 C55.5574,178.0311 55.5314,176.9311 55.5034,175.8551 C55.2724,166.9221 57.0654,157.3151 54.6364,149.0731 C55.3644,145.3921 56.3014,141.7301 57.4574,138.1271 C57.6254,137.6191 57.2774,137.1091 56.8924,137.0571 C56.8184,137.0481 56.7464,137.0511 56.6784,137.0651 C56.3204,137.1371 56.0364,137.4961 55.9014,137.9301 C54.9874,140.7751 54.2104,143.6531 53.5654,146.5481 C53.3384,146.6711 53.1344,146.8931 53.0394,147.2491 C51.3714,153.1071 50.0934,159.0411 49.2314,164.9951 C48.8044,167.9761 48.4714,170.9651 48.2474,173.9391 C48.0614,176.4491 48.0994,179.1981 47.1054,181.6531 C46.0464,184.2591 43.8904,185.4521 41.7654,186.0681 C41.0174,186.2881 40.2624,186.4701 39.5064,186.6211 M18.0244,240.7381 C17.7884,234.7351 17.5584,228.7401 17.3224,222.7381 L17.2934,222.6221 C17.4534,211.2431 17.6124,199.8711 17.7714,188.4921 C19.2624,188.6601 20.7534,188.7841 22.2374,188.9281 C25.0074,189.1931 27.8084,189.3751 30.6304,189.3541 C33.3874,189.3291 36.1734,189.1241 38.9604,188.6181 C39.1274,188.5931 39.2884,188.5611 39.4484,188.5291 C37.7644,198.2001 36.4884,207.8851 35.5894,217.5461 C35.5244,217.6891 35.4734,217.8381 35.4654,218.0121 C34.8104,225.7921 34.2574,233.5601 33.8074,241.3161 C33.7774,241.8321 34.0384,242.0651 34.3584,242.0881 C34.6364,245.4291 35.0084,248.7851 34.4494,252.2421 C33.7874,256.3071 32.1864,260.2061 30.4334,263.9451 C30.0614,264.7281 29.6894,265.5461 29.3014,266.3671 C29.2514,265.9541 29.0124,265.6041 28.5464,265.6541 C27.8224,265.7441 27.0954,265.8611 26.3714,266.0061 C22.3014,266.8221 18.2524,268.5141 14.4324,270.9811 C14.3464,266.5211 13.7724,262.1941 12.7034,258.1211 C12.6604,257.9751 12.6024,257.8661 12.5294,257.7851 C12.9664,257.2221 13.3894,256.6791 13.7844,256.1421 C15.9204,253.2331 17.5624,250.0951 17.9984,246.4211 C18.2354,244.4811 18.1804,242.5911 18.0814,240.7091 L18.0244,240.7381 M71.7304,180.3541 C74.6864,179.7621 77.6434,178.9951 80.5794,177.9941 C78.5094,196.2391 76.4964,214.4811 74.5574,232.7251 C74.3054,235.1261 73.9304,237.5791 73.7804,239.9681 C73.6414,240.2891 73.6124,240.6591 73.7564,240.9411 C73.8124,242.1481 74.2974,243.2091 75.4614,243.0451 C75.4774,243.0421 75.4924,243.0401 75.5064,243.0371 C75.7814,242.9821 75.9714,242.7931 76.0954,242.5551 C78.8414,244.4501 81.3614,246.8061 83.4294,249.6321 L83.3784,249.7211 C82.4434,252.0341 81.9144,254.4651 81.8594,256.8781 C81.8344,258.0931 81.9424,259.2901 82.1514,260.4411 C82.1944,260.6491 82.2884,260.8891 82.2814,261.1071 C82.2764,261.2751 82.3214,261.3021 82.3094,261.3051 C82.3004,261.3071 82.2624,261.2951 82.1574,261.3131 C81.7484,261.3861 81.2184,261.1641 80.8184,261.1151 C79.3874,260.9571 77.9224,261.0351 76.4604,261.3281 C73.8794,261.8451 71.3074,263.0351 68.9404,264.8001 C68.3504,265.2391 68.4444,265.9801 68.8214,266.3111 C66.1984,265.1081 63.7274,263.4771 61.7384,261.3441 C59.9024,259.3701 58.8004,256.7641 58.5674,253.6041 C58.4674,252.2251 58.4994,250.8181 58.6114,249.4041 L58.6114,249.3951 C58.7454,247.6751 58.9814,245.9421 59.2464,244.2121 C59.3414,244.0551 59.4134,243.8761 59.4294,243.6571 C60.7394,227.5781 61.4744,211.5461 61.6274,195.6301 C61.6644,191.1111 61.6664,186.6081 61.6174,182.1061 C61.6174,182.0201 61.5874,181.9481 61.5664,181.8741 C64.4324,181.5421 67.3064,181.1641 70.1804,180.6491 C70.6974,180.5561 71.2134,180.4571 71.7304,180.3541 M17.6154,278.9871 C19.0424,278.7011 20.4614,278.2211 21.7954,277.5861 C25.3124,275.9131 27.7104,272.9091 29.6824,269.0311 C31.6614,265.1421 33.5804,261.1451 34.9064,256.9641 C35.1914,256.0691 35.4254,255.1661 35.6304,254.2611 C35.1744,260.7391 32.5224,267.2951 28.4974,272.4231 C25.2774,276.5321 20.4664,280.3061 15.8644,281.2281 C13.9434,281.6141 12.0594,281.5021 10.3404,280.7121 C8.3644,279.8031 6.8264,277.6311 6.4814,275.0461 C6.6054,275.2461 6.7284,275.4381 6.8594,275.6281 C6.9104,275.7991 7.0114,275.9261 7.1414,276.0121 C9.5924,279.0761 13.6364,279.7851 17.6154,278.9871 M17.6854,277.1081 C16.5234,277.3411 15.3754,277.4291 14.3044,277.3761 C11.2124,277.2181 8.3504,275.6311 7.1344,272.2971 C7.0114,271.9591 6.9244,271.6301 6.8454,271.3091 C6.8964,271.1431 6.9474,270.9861 7.0134,270.8261 L7.0644,270.6601 C6.9924,270.3811 6.9424,270.0881 6.9134,269.7831 C6.8334,269.6951 6.7394,269.6191 6.6294,269.5721 C6.5564,265.9051 8.8764,262.5181 11.2604,259.4221 C12.3154,263.6361 12.8524,268.0741 12.8364,272.6751 C12.8294,273.1521 13.2074,273.5881 13.6234,273.5051 C13.7004,273.4901 13.7774,273.4571 13.8534,273.4051 C17.8414,270.6451 22.0794,268.7921 26.3694,267.9321 C27.0924,267.7871 27.8174,267.6701 28.5424,267.5821 C28.6224,267.5661 28.6884,267.5361 28.7534,267.5051 C27.5354,269.9971 26.1264,272.4231 24.1594,274.0611 C22.2534,275.6531 19.9434,276.6561 17.6854,277.1081 M79.0144,272.3931 C76.7194,272.8531 74.3834,272.2871 72.2664,271.8171 C66.5584,270.5501 60.5774,267.8941 58.2324,261.3201 C57.6824,259.7801 57.3654,258.1061 57.3104,256.3711 C57.6784,258.2251 58.3294,259.9531 59.4034,261.4661 C62.4504,265.7381 67.3844,268.2151 72.0234,269.6101 C74.4234,270.3351 77.3064,270.8861 80.0704,270.3321 C81.8424,269.9771 83.5664,269.1671 85.0834,267.6581 C84.2514,269.0781 83.1514,270.3011 81.8764,271.1791 C80.9434,271.8221 79.9824,272.1991 79.0144,272.3931 M82.2774,263.2301 C83.0794,263.0701 83.7334,262.3671 83.8724,261.3501 C84.0284,260.2641 83.6004,259.2001 83.5154,258.1631 C83.3454,255.8641 83.6844,253.4621 84.4884,251.1751 C86.7224,254.7541 88.3844,260.2981 85.2554,264.9791 C83.8774,267.0291 82.0334,268.0261 80.1004,268.4131 C77.9294,268.8481 75.6474,268.5151 73.7934,268.0451 C72.2454,267.6561 70.6824,267.1311 69.1694,266.4661 C69.2464,266.4761 69.3274,266.4751 69.4084,266.4581 C69.5194,266.4361 69.6344,266.3861 69.7524,266.2971 C71.7114,264.8331 73.8524,263.8251 76.0134,263.3311 C76.1344,263.3041 76.2544,263.2781 76.3754,263.2541 C77.3104,263.0671 78.2434,262.9691 79.1634,262.9761 C80.1464,262.9951 81.1414,263.3661 82.1384,263.2531 C82.1854,263.2471 82.2314,263.2401 82.2774,263.2301" id="bodypose"></path>
            <g id="hands" transform="translate(92.612884, 0.163284)">
                <path d="M58.4075163,10.7346165 C54.8765163,11.4426165 51.3705163,12.7036165 48.1125163,15.1596165 C47.4365163,15.6696165 47.8525163,16.6606165 48.4825163,16.5346165 C48.5805163,16.5156165 48.6825163,16.4686165 48.7865163,16.3906165 C51.7875163,14.1296165 55.0875163,12.9426165 58.4015163,12.2786165 C60.6455163,11.8286165 62.8965163,11.6176165 65.0675163,11.4766165 C67.1915163,11.3446165 70.0575163,11.3576165 71.1805163,13.6046165 C71.8905163,15.0346165 71.8205163,17.6846165 70.3275163,18.8226165 C67.5295163,17.3786165 64.3595163,16.6736165 61.1515163,16.6946165 C61.1085163,16.6946165 61.0675163,16.6996165 61.0265163,16.7076165 C60.2735163,16.8586165 59.9845163,18.3026165 60.7925163,18.2966165 C63.9285163,18.2736165 66.9295163,18.9596165 69.6555163,20.3486165 C69.7505163,20.4936165 69.8945163,20.5866165 70.0775163,20.5756165 C70.2085163,20.6526165 70.3455163,20.7116165 70.4765163,20.7896165 C71.7625163,21.5336165 73.3255163,22.4566165 73.8235163,24.1976165 C74.1745163,25.4426165 73.5875163,27.4836165 72.2785163,27.7456165 C72.2375163,27.7546165 72.1945163,27.7606165 72.1515163,27.7656165 C72.1315163,27.7676165 72.1105163,27.7706165 72.0915163,27.7746165 C71.9195163,27.8086165 71.7865163,27.9056165 71.6905163,28.0346165 C71.8005163,28.4416165 71.8565163,28.8676165 71.8465163,29.3056165 C71.9315163,29.3476165 72.0325163,29.3676165 72.1485163,29.3566165 C72.2155163,29.3486165 72.2815163,29.3386165 72.3475163,29.3256165 C73.9275163,29.0086165 75.0845163,27.0176165 75.2555163,25.2076165 C75.4635163,22.9526165 74.1275163,21.3446165 72.7685163,20.3386165 C72.3765163,20.0456165 71.9705163,19.7726165 71.5555163,19.5096165 C72.5915163,18.2996165 73.0525163,16.5136165 72.9315163,14.8956165 C72.5345163,9.42661648 67.1515163,9.67561648 63.4405163,10.0306165 C61.7735163,10.1866165 60.0885163,10.3986165 58.4075163,10.7346165" id="Fill-4"></path>
                <path d="M54.2053163,0.0447164798 C53.7423163,0.13771648 53.2703163,0.36871648 52.8463163,0.68571648 C50.7113163,2.27171648 50.3783163,5.58771648 48.5563163,7.56871648 C46.9083163,9.36871648 44.7543163,10.2417165 42.7803163,11.1117165 C40.7273163,12.0077165 38.6393163,12.9017165 36.7733163,14.4767165 C34.9883163,15.9837165 33.5373163,18.0117165 32.3623163,20.2007165 C29.7703163,25.0157165 28.5243163,30.4507165 26.6313163,35.5587165 C25.4173163,38.8177165 23.9493163,41.9637165 22.2853163,44.9767165 C22.1903163,45.0477165 22.1023163,45.1517165 22.0303163,45.2877165 L15.9353163,56.5947165 C15.7013163,57.0307165 15.4683163,57.6567165 15.1613163,58.0207165 C15.0523163,58.1547165 15.0213163,58.2067165 14.9873163,58.2127165 C14.9543163,58.2197165 14.9173163,58.1817165 14.7983163,58.1367165 C14.6593163,58.0867165 14.5213163,57.9157165 14.4133163,57.8077165 C13.8833163,57.3427165 13.3893163,56.8197165 12.9323163,56.2467165 C12.0313163,55.1177165 11.2993163,53.7747165 10.7603163,52.3247165 C10.7463163,52.2897165 10.7333163,52.2557165 10.7213163,52.2207165 C10.5953163,51.8747165 10.3173163,51.7697165 10.0483163,51.8237165 C9.63331631,51.9077165 9.23431631,52.3667165 9.43231631,52.9027165 C9.48031631,53.0377165 9.53131631,53.1697165 9.58231631,53.3027165 C10.2243163,54.9537165 11.0593163,56.4387165 12.1143163,57.7237165 C12.7503163,58.4897165 13.9043163,60.0487165 15.0403163,59.8207165 C15.3443163,59.7607165 15.6463163,59.5707165 15.9373163,59.2047165 C16.6303163,58.3307165 17.1273163,57.0907165 17.6673163,56.0837165 C18.2733163,54.9677165 18.8793163,53.8437165 19.4843163,52.7197165 L22.1053163,47.8567165 L22.1273163,47.8687165 C24.3163163,44.2157165 26.2073163,40.3277165 27.7213163,36.2907165 C29.4603163,31.6467165 30.6413163,26.7857165 32.7583163,22.2817165 C33.7733163,20.1077165 35.0353163,18.0227165 36.6683163,16.4167165 C38.3143163,14.8077165 40.1933163,13.8687165 42.1013163,13.0207165 C43.9353163,12.2027165 45.8133163,11.4717165 47.5543163,10.2417165 C49.3523163,8.96471648 50.6143163,7.25171648 51.5573163,5.04071648 C52.0903163,3.80971648 52.6313163,2.33571648 53.7893163,1.76671648 C53.9173163,1.70371648 54.0353163,1.66271648 54.1453163,1.64071648 C55.1743163,1.43471648 55.4113163,2.93271648 55.4293163,4.02271648 C55.4683163,6.49471648 54.3573163,9.08571648 52.5643163,10.7147165 C51.9433163,11.2857165 52.3223163,12.2527165 52.9043163,12.1367165 C53.0113163,12.1157165 53.1243163,12.0577165 53.2393163,11.9547165 C55.3303163,10.0487165 56.6673163,7.08471648 56.7603163,4.17871648 C56.8063163,2.84771648 56.6273163,1.23271648 55.7843163,0.44171648 C55.3423163,0.0277164798 54.7803163,-0.0702835202 54.2053163,0.0447164798" id="Fill-7"></path>
                <path d="M58.5862163,21.7976165 C57.8522163,21.9446165 57.5832163,23.3596165 58.3752163,23.3876165 C61.8662163,23.5086165 65.2912163,24.3866165 68.2332163,26.1916165 C69.2732163,26.8296165 70.8632163,28.0926165 70.4962163,29.8946165 C70.3402163,30.6746165 69.5922163,31.6756165 68.9142163,31.8116165 C68.6692163,31.8606165 68.4332163,31.7956165 68.2382163,31.5656165 C68.1042163,31.4086165 67.9482163,31.3626165 67.7972163,31.3926165 C67.5832163,31.4356165 67.3782163,31.6306165 67.2502163,31.8776165 C67.3342163,32.2436165 67.3892163,32.6216165 67.4102163,33.0056165 C67.8192163,33.4046165 68.3192163,33.5096165 68.8332163,33.4066165 C69.7092163,33.2306165 70.6232163,32.4536165 71.1912163,31.5096165 C71.6332163,30.7776165 71.8302163,30.0276165 71.8472163,29.3056165 C71.8572163,28.8676165 71.8002163,28.4416165 71.6902163,28.0346165 C71.4872163,27.2846165 71.1042163,26.6056165 70.6272163,26.0656165 C69.2192163,24.4636165 67.1102163,23.6326165 65.2132163,22.9766165 C63.1422163,22.2596165 60.9752163,21.8556165 58.7342163,21.7856165 C58.6842163,21.7836165 58.6342163,21.7886165 58.5862163,21.7976165" id="Fill-10"></path>
                <path d="M57.5618163,25.9143165 C55.8738163,26.2523165 54.1878163,27.0643165 52.6848163,28.3563165 C52.0408163,28.9043165 52.4308163,29.8813165 53.0238163,29.7633165 C53.1278163,29.7423165 53.2398163,29.6863165 53.3518163,29.5883165 C54.6088163,28.5113165 56.0808163,27.8173165 57.5698163,27.5193165 C61.0558163,26.8203165 64.6428163,28.2843165 65.8078163,32.0533165 C66.2198163,33.4143165 66.2088163,35.1963165 65.0068163,36.3443165 C64.3848163,36.9333165 63.6318163,37.2213165 62.8888163,37.3703165 C62.5088163,37.4463165 62.1318163,37.4863165 61.7748163,37.5113165 C58.9458163,37.6893165 56.0808163,37.2263165 53.3818163,36.7383165 C51.9428163,36.4823165 50.5178163,36.1723165 49.1148163,35.7883165 C47.7908163,35.4313165 46.5118163,34.9353165 45.1658163,34.6253165 C44.3788163,34.4433165 43.5268163,34.3683165 42.6798163,34.5383165 C42.2128163,34.6313165 41.7488163,34.7993165 41.2958163,35.0643165 C40.1378163,35.7373165 39.2118163,36.8993165 38.3668163,38.0713165 C30.8838163,48.4303165 24.7378163,60.1373165 20.2118163,72.3663165 C20.2068163,72.3673165 20.2008163,72.3683165 20.1958163,72.3693165 C19.8578163,72.4363165 19.4988163,72.7593165 19.4758163,73.2743165 C19.3778163,75.1613165 17.9268163,76.7823165 16.4578163,77.3453165 C16.2058163,77.4423165 15.9538163,77.5143165 15.7018163,77.5653165 C14.2738163,77.8513165 12.8518163,77.4383165 11.6348163,76.8593165 C9.36081631,75.7853165 7.53181631,73.8713165 6.28481631,71.4153165 C6.46681631,71.1113165 6.52581631,70.7363165 6.33681631,70.3933165 C4.72781631,67.5013165 3.12481631,64.6073165 1.51581631,61.7233165 C1.35381631,61.4293165 1.10881631,61.3423165 0.862816309,61.3923165 C0.855816309,61.3933165 0.847816309,61.3953165 0.840816309,61.3973165 C0.293816309,61.5243165 -0.244183691,62.3113165 0.117816309,62.9723165 C0.441816309,63.5553165 0.765816309,64.1383165 1.09081631,64.7223165 C2.20481631,66.7233165 3.31981631,68.7273165 4.43081631,70.7323165 C4.43081631,70.8273165 4.44481631,70.9193165 4.48181631,71.0163165 C5.96481631,74.8673165 8.78281631,77.7943165 12.2788163,78.8913165 C13.3598163,79.2273165 14.5508163,79.3713165 15.7338163,79.1343165 C16.4928163,78.9823165 17.2488163,78.6733165 17.9678163,78.1573165 C19.0688163,77.3663165 19.9578163,76.1853165 20.4328163,74.8363165 C20.6008163,74.7683165 20.7468163,74.6183165 20.8408163,74.3573165 C23.6128163,66.6283165 27.0158163,59.1363165 31.0078163,52.0263165 C32.7958163,48.8423165 34.7078163,45.7453165 36.7208163,42.7403165 C37.6838163,41.2943165 38.6618163,39.8533165 39.6968163,38.4703165 C40.6608163,37.2013165 41.6548163,36.3593165 42.8418163,36.1223165 C43.1998163,36.0503165 43.5748163,36.0333165 43.9708163,36.0753165 C45.4248163,36.2423165 46.7848163,36.8423165 48.1808163,37.2283165 C49.6708163,37.6553165 51.1908163,38.0073165 52.7248163,38.2883165 C55.5758163,38.8143165 58.5568163,39.2623165 61.5328163,39.1063165 C61.9248163,39.0873165 62.3328163,39.0393165 62.7418163,38.9573165 C64.6138163,38.5823165 66.5198163,37.4843165 67.1988163,35.0153165 C67.3848163,34.3323165 67.4458163,33.6583165 67.4108163,33.0063165 C67.3888163,32.6213165 67.3338163,32.2443165 67.2498163,31.8773165 C66.8788163,30.2493165 65.9468163,28.8363165 64.9428163,27.8963165 C62.9678163,26.0433165 60.2608163,25.3733165 57.5618163,25.9143165" id="Fill-13"></path>
                <path d="M51.2678163,16.6887165 C51.2118163,16.6997165 51.1578163,16.7187165 51.1068163,16.7467165 C50.7278163,16.9427165 50.5808163,17.3967165 50.6318163,17.8097165 C50.9608163,20.4657165 50.3518163,23.3967165 49.0528163,25.9127165 C48.8478163,26.3167165 48.9998163,26.8047165 49.2898163,26.9547165 C49.3958163,27.0048176 49.5058163,27.0157165 49.6148163,26.9947165 C49.8458163,26.9477165 50.0698163,26.7537165 50.2078163,26.4847165 C51.7268163,23.5447165 52.2998163,20.1977165 51.9278163,17.1347165 C51.8788163,16.7827165 51.5558163,16.6307165 51.2678163,16.6887165" id="Fill-16"></path>
            </g>
        </g>
    </g>
</svg>