<?xml version="1.0" encoding="UTF-8"?>
<svg width="500px" height="600px" viewBox="0 0 500 600" version="1.1" xmlns="http://www.w3.org/2000/svg" xmlns:xlink="http://www.w3.org/1999/xlink">
    <title>handsfolded</title>
    <g id="handsfolded" stroke="none" stroke-width="1" fill="none" fill-rule="evenodd">
        <g id="body" transform="translate(207.000000, 247.400000)" fill="#231F20">
            <path d="M64.5148,0.0853 C64.0758,0.1643 63.6668,0.6843 63.6728,1.2013 C63.7278,4.2853 61.5838,7.7273 58.7888,8.4233 C58.6868,8.4493 58.5848,8.4713 58.4848,8.4893 C57.1408,8.7283 55.8928,8.3193 54.9318,7.4863 C54.8948,7.1043 54.6838,6.7873 54.3288,6.7463 L54.2238,6.7313 C53.7268,6.0673 53.3728,5.2493 53.2088,4.3453 C53.1338,3.9003 52.8548,3.7423 52.5448,3.7803 C52.4078,3.6713 52.2208,3.6043 52.0458,3.6353 C52.0388,3.6363 52.0318,3.6383 52.0248,3.6403 C51.8428,3.6803 51.6618,3.7913 51.5178,3.9463 C51.3938,3.8573 51.2508,3.8013 51.0888,3.8303 C51.0738,3.8333 51.0578,3.8363 51.0418,3.8403 C48.4208,4.5323 45.8148,5.4203 43.2448,6.5093 C43.1618,6.5423 43.1018,6.6043 43.0338,6.6593 C39.7618,7.8213 36.5048,9.1283 33.3688,10.8973 C27.4568,14.2243 22.2598,19.1953 17.8098,24.9323 C13.3518,30.6613 9.6098,37.0593 6.1168,43.5243 C5.2448,45.1313 4.3888,46.7443 3.5478,48.3553 C2.6988,49.9843 1.5478,51.7363 1.3638,53.5763 L1.3638,53.7233 C0.9478,54.0133 0.6598,54.6003 0.9678,55.1153 C1.3138,55.6933 1.6828,56.2413 2.0668,56.7783 L2.0818,56.8103 L2.1048,56.8233 C2.1648,56.9163 2.2328,56.9993 2.2928,57.0833 C2.1878,57.1633 2.0808,57.2423 1.9678,57.3233 C2.0888,57.4053 2.2018,57.4883 2.2698,57.5543 L2.3678,57.6673 C2.6228,57.9663 2.8718,58.2853 3.1138,58.6143 C3.1968,58.5563 3.2798,58.4893 3.3698,58.4213 L3.3778,58.4373 C3.4308,58.5573 3.4838,58.6783 3.5208,58.8003 L3.6638,58.9743 L3.7778,58.8933 C5.3448,60.6023 7.1388,62.0193 9.1008,63.1223 C8.8128,63.3803 8.6008,63.7733 8.6608,64.2373 C9.3298,69.6323 10.1728,74.9703 11.1908,80.2343 C11.6548,82.6493 11.9818,85.2963 12.8298,87.5043 C13.5818,89.4623 15.0688,90.2523 16.9408,90.4373 C17.4388,90.4863 17.9448,90.5253 18.4508,90.5563 L18.3978,90.7043 C17.6188,95.0003 16.3658,99.2343 14.6518,103.3083 C14.3858,103.9433 14.6718,104.4283 15.0718,104.5813 C14.2568,107.9163 13.2468,111.2153 11.7768,114.3643 C11.3688,114.6023 11.0578,115.1323 11.2378,115.6273 C11.1468,116.1363 11.4628,116.5033 11.8558,116.5633 C13.4828,118.8753 15.5258,120.5503 17.8188,121.7843 C17.6748,121.9563 17.5828,122.1893 17.5908,122.4813 C17.6958,127.1043 16.7498,131.8363 15.9868,136.5093 L13.7338,150.2823 C12.2208,159.5403 10.7018,168.8003 9.1888,178.0583 C9.1428,178.3253 9.1958,178.5413 9.2928,178.7133 C8.7998,180.2363 8.6758,181.7713 9.2998,183.2763 C10.2548,185.5863 12.3518,186.6213 14.5108,187.0923 C15.2278,187.2413 15.9448,187.3733 16.6768,187.4843 C16.4958,199.6433 16.3228,211.7913 16.1488,223.9483 L16.2698,223.9003 C16.5078,229.7873 16.7458,235.6833 16.9848,241.5693 C16.9918,241.7323 17.0298,241.8643 17.0888,241.9823 C17.1028,242.9053 17.0938,243.8403 17.0238,244.7773 C16.7378,248.6233 14.9718,251.6943 12.6328,254.6523 C8.9698,259.2903 4.0898,264.4813 5.2568,270.5823 C4.3438,274.0383 5.2588,277.5143 7.2558,279.7683 C9.5028,282.3053 12.9868,282.8393 16.3368,282.2423 C16.9408,282.1353 17.5388,281.9913 18.1248,281.8153 C25.5138,279.5913 32.0288,272.9163 35.6288,264.9443 C37.6608,260.4603 38.7498,255.5723 38.6378,250.8653 C38.6208,250.2463 38.1938,250.0183 37.7738,250.0923 C37.6798,250.1093 37.5868,250.1413 37.4988,250.1863 C37.5298,249.9213 37.5688,249.6643 37.5838,249.4023 C37.7698,246.6813 37.4198,244.0643 37.2208,241.4203 C37.1108,239.9273 37.0448,238.4263 37.0108,236.9193 L36.9048,236.9823 C37.2858,231.0283 37.7278,225.0643 38.2368,219.1043 L38.2828,219.1133 C39.2068,208.8103 40.6088,198.4743 42.4848,188.1663 C42.5158,188.0133 42.5158,187.8833 42.4938,187.7663 C44.1848,187.3963 45.8778,186.8263 47.3898,185.7013 C52.0548,182.2593 51.4188,175.1733 51.9498,170.1353 C52.6108,163.8463 53.7998,157.5493 55.4278,151.3303 C57.1798,158.9173 55.6608,167.4853 55.8208,175.5213 C55.8548,177.3043 55.7218,179.6873 56.5358,181.1413 C57.3558,182.6373 59.1298,182.2003 60.5738,182.0643 C61.1238,182.0173 61.6828,181.9693 62.2348,181.9153 C62.1968,182.0343 62.1738,182.1593 62.1728,182.3063 C62.3558,198.1593 61.9408,214.1363 60.9218,230.1693 C60.6578,234.3993 60.3398,238.6303 59.9928,242.8673 C59.9468,242.9613 59.9018,243.0653 59.8858,243.1803 C59.5728,245.1373 59.2828,247.1343 59.1268,249.0973 C55.7138,256.9743 58.7868,265.2163 63.9748,269.2533 C66.8328,271.4753 70.1908,272.7613 73.6618,273.6203 C76.2318,274.2603 79.1068,274.9973 81.9288,274.4943 C82.9278,274.3153 83.9208,273.9823 84.8908,273.4343 C88.3298,271.4993 91.0408,267.5063 91.5848,263.2783 C91.6308,262.9333 91.5338,262.6823 91.3748,262.5033 C92.2728,259.0163 91.6748,255.2153 90.2838,252.3523 C87.6518,246.9003 83.0148,242.7573 78.2258,239.8943 C78.4188,237.0423 79.1868,230.5793 79.2638,229.8653 C79.7318,225.6763 80.2008,221.4873 80.6678,217.2903 C81.6058,208.9893 82.5568,200.6873 83.5238,192.3903 C84.0838,187.5543 84.6448,182.7263 85.2198,177.8963 C85.2278,177.8083 85.2118,177.7333 85.2048,177.6563 C88.2038,176.6643 91.8918,175.5143 94.1768,172.7213 C96.9098,169.3913 95.7248,164.6843 95.4138,161.0843 C95.0078,156.3683 94.6608,151.6413 94.3758,146.8953 C93.7318,136.1543 93.4108,125.3303 93.4018,114.4593 C93.4028,114.0783 93.2298,113.8583 93.0108,113.7513 C94.4938,112.3713 95.7868,110.6893 96.7648,108.6393 C98.8878,104.2073 99.3198,99.1863 99.2758,94.5703 C99.2438,91.1963 99.0088,87.8503 98.7278,84.5213 C98.9398,84.2503 99.0158,83.8813 98.9708,83.5263 C98.5778,80.2953 98.1748,77.0743 97.7818,73.8513 L97.7438,73.7283 C102.7108,66.2923 105.7698,57.5963 106.4888,48.8423 C106.5038,48.6583 106.4738,48.5253 106.4288,48.4033 C106.9358,48.0363 107.4268,47.6553 107.9108,47.2663 L107.8588,47.1543 C108.4938,46.6093 109.1138,46.0493 109.7108,45.4413 C109.7338,45.5583 109.7858,45.6533 109.8618,45.7343 C110.5658,45.1423 111.2908,44.6063 112.0328,44.0943 L111.9868,44.0853 C112.1558,42.7503 111.4778,41.5053 111.1028,40.3973 C109.9688,37.0893 108.8418,33.7813 107.7078,30.4743 C105.4398,23.8693 103.1638,17.2653 100.8728,10.6643 C100.7298,10.2423 100.3958,10.1093 100.0648,10.1683 C99.8268,10.2103 99.5888,10.3533 99.4238,10.5593 C94.2188,7.6753 88.5598,5.6243 82.8848,4.0433 C76.9378,2.3893 70.8378,1.2203 64.7398,0.0853 C64.6648,0.0713 64.5898,0.0723 64.5148,0.0853 M58.4678,10.4073 C58.6678,10.3713 58.8698,10.3243 59.0728,10.2663 C62.2608,9.3353 64.8118,5.8203 65.2718,2.2033 C74.3518,3.8953 83.4548,5.7043 91.9438,9.1963 C94.5698,10.2753 97.1268,11.5393 99.5778,12.9783 L99.7138,12.7893 C101.5018,17.9683 103.2888,23.1463 105.0778,28.3243 C106.0158,31.0703 106.9538,33.8073 107.8928,36.5523 C108.3738,37.9613 108.8548,39.3623 109.3348,40.7723 C109.5758,41.4813 109.8158,42.1823 110.0558,42.8823 C110.1308,43.0933 110.2218,43.3023 110.2818,43.5253 C110.0468,43.4283 109.8218,43.3133 109.5948,43.1893 C106.6598,46.4433 103.0758,48.8633 99.3278,50.1613 C99.1538,49.9713 98.9018,49.9133 98.6358,49.9603 C98.5798,49.9703 98.5238,49.9843 98.4668,50.0033 C97.7748,50.2543 97.0768,50.4403 96.3788,50.5643 C94.9838,50.8133 93.5928,50.8153 92.2588,50.5913 L92.1308,50.6063 C91.2148,43.5443 89.8998,36.6393 88.1748,29.9113 C88.0588,29.4613 87.7338,29.3143 87.4018,29.3743 C86.8988,29.4633 86.3808,30.0253 86.5578,30.7173 C88.4768,38.1973 89.9118,45.9283 90.8108,53.8323 C90.8778,54.4163 91.3158,54.6403 91.7308,54.5843 C91.8058,54.7693 91.8808,54.9553 91.9868,55.1263 C92.1148,55.3113 92.2728,55.4463 92.4928,55.4773 C92.5568,55.4853 92.6308,55.4823 92.7068,55.4693 C92.8588,55.4423 93.0178,55.3713 93.1338,55.2583 C93.3158,55.0963 93.4748,54.8693 93.5278,54.6183 C93.5738,54.3683 93.5668,54.0843 93.4388,53.8903 C93.3938,53.8203 93.3558,53.7323 93.3108,53.6543 C93.2738,53.5403 93.2508,53.4223 93.2288,53.3063 C93.2208,53.1773 93.2138,53.0493 93.2288,52.9173 L93.2368,52.8633 L93.2438,52.6463 C94.2968,52.7023 95.3658,52.6343 96.4348,52.4443 C97.2598,52.2973 98.0868,52.0773 98.9098,51.7833 L98.9618,51.7483 C98.9768,51.9003 98.9988,52.0523 99.0138,52.2143 C101.0008,51.5833 102.9368,50.6503 104.7808,49.4583 C104.0788,57.2403 101.3838,65.0503 97.1058,71.7503 L97.0368,71.7803 C95.7548,72.6853 94.3688,73.1703 92.9558,73.4223 C91.0128,73.7693 89.0228,73.6714265 87.1958,73.6113 C84.0918,73.5163 81.0198,73.1823 78.0148,72.6203 C72.0668,71.5023 66.3768,69.4743 61.0968,66.6033 C58.4938,65.1833 56.0058,63.5443 53.6308,61.7283 C54.0318,61.6483 54.4018,61.2973 54.4328,60.7383 L54.4558,60.7173 C54.5238,60.6533 54.5918,60.6063 54.6748,60.5653 C54.8568,60.4553 55.0678,60.3663 55.2568,60.2723 C55.7098,60.0443 56.1708,59.8413 56.6318,59.6643 C57.5238,59.3233 58.4228,59.0763 59.3288,58.9153 C59.3498,58.9113 59.3708,58.9073 59.3908,58.9033 C61.2278,58.5763 63.0188,58.6373 64.7508,59.0293 C64.8518,59.0523 64.9488,59.0543 65.0368,59.0383 C65.8438,58.8953 66.1108,57.3113 65.1998,57.0993 C63.3498,56.6693 61.3758,56.6263 59.4048,56.9773 C59.0418,57.0423 58.6818,57.1193 58.3208,57.2113 C57.1718,57.5023 56.0238,57.9053 54.9128,58.4493 C53.9608,58.9123 52.7368,59.5883 52.7638,60.9583 L52.7938,61.0733 C52.6648,60.9753 52.5298,60.8783 52.4098,60.7793 C52.2348,60.6393 52.0458,60.6013 51.8648,60.6333 C51.6608,60.6693 51.4658,60.7933 51.3068,60.9583 C49.6518,61.1223 47.9938,61.3533 46.3368,61.6483 C39.2558,62.9103 32.1948,65.3593 25.4078,68.9013 L25.4148,68.7103 C24.8398,65.0793 24.0838,61.5143 23.1618,58.0403 C23.1848,57.8893 23.1858,57.7423 23.1408,57.5773 C22.7118,56.2183 22.2918,54.8593 21.8648,53.5003 C21.7278,53.0623 21.3888,52.9223 21.0528,52.9823 C20.5408,53.0733 20.0348,53.6273 20.2468,54.2983 C21.2078,57.3593 22.0178,60.5083 22.6988,63.7063 L22.6538,63.7053 C19.6018,64.1373 16.6128,63.8833 13.8428,63.0203 L13.9868,62.9253 C13.3368,62.7903 12.7028,62.5923 12.0768,62.3753 C10.5308,61.7263 9.0668,60.8803 7.7168,59.8503 C6.0738,58.4493 4.7018,56.6453 3.7548,54.4983 C3.6098,54.1803 3.3708,54.0903 3.1298,54.1333 L3.1068,54.1383 C3.0338,52.9323 3.5868,51.7623 4.2768,50.4463 C5.0568,48.9503 5.8368,47.4543 6.6328,45.9643 C12.8088,34.3883 19.8988,22.3983 30.1208,15.0283 C33.4168,12.6513 36.9538,10.9403 40.5208,9.5363 C42.2888,8.8403 44.0728,8.2113 45.8558,7.6083 C46.0748,7.5353 46.3468,7.4173 46.6488,7.3033 L46.6498,7.1303 C48.0998,6.6123 49.5658,6.1433 51.0388,5.7603 L51.2048,5.6783 C51.3758,6.9703 52.1448,8.0353 53.1778,8.4733 C54.4948,9.9843 56.4328,10.7703 58.4678,10.4073 M28.5258,87.8743 C25.6108,88.3933 22.6938,88.6483 19.8208,88.6093 C18.0158,88.5863 15.5458,88.8363 14.5758,86.9513 C13.6278,85.0983 13.4068,82.4583 12.9798,80.3133 C11.9028,74.8693 11.0218,69.3483 10.3228,63.7593 C14.0488,65.5503 18.2848,66.2383 22.6498,65.6253 L22.6958,65.6083 C22.9058,66.2713 23.1078,66.9433 23.3108,67.6073 C23.3558,67.7553 23.4308,67.8623 23.5218,67.9673 C23.6108,68.4793 23.7078,68.9973 23.7898,69.5183 C23.8048,69.6023 23.8428,69.6563 23.8728,69.7203 C22.6558,70.3953 21.4538,71.0933 20.2668,71.8323 C19.3758,72.3843 19.6208,73.8663 20.4068,73.7263 C20.4998,73.7093 20.6018,73.6693 20.7088,73.6023 C28.9128,68.5203 37.6178,65.1223 46.3738,63.5613 C48.1548,63.2443 49.9368,63.0023 51.7178,62.8383 L51.8088,62.8143 C54.6658,65.0613 57.6988,67.0193 60.8738,68.7003 L60.7908,68.7583 C56.7658,73.0023 52.4248,76.7743 47.8278,80.0313 C47.5778,80.2053 47.4498,80.4363 47.4108,80.6763 C42.4218,83.6563 37.1858,85.8603 31.8678,87.1633 C30.7548,87.4373 29.6408,87.6753 28.5258,87.8743 M28.3148,89.8993 C33.1078,89.0453 37.9178,87.4593 42.4638,85.3433 C45.0568,84.1293 47.5968,82.7093 50.0688,81.1103 C50.0008,80.9583 49.9488,80.7943 49.8958,80.6303 C54.0318,77.5863 57.9718,74.1273 61.6338,70.2673 C61.8908,69.9973 62.0428,69.6503 62.0358,69.3053 C69.6398,73.1193 78.0258,75.2803 86.7458,75.5503 C88.7498,75.6093 90.8378,75.6643 92.8938,75.2973 C93.9958,75.1013 95.0898,74.7833 96.1568,74.2793 C96.1418,74.4023 96.1408,74.5233 96.1638,74.6493 C96.3348,76.0713 96.5138,77.4913 96.6848,78.9133 C96.6608,79.2023 96.6378,79.4823 96.5918,79.7673 C96.8428,82.9203 97.0938,86.0743 97.3298,89.2303 C97.6838,93.8253 97.8938,98.6453 96.8428,103.4043 C95.7078,108.5423 92.8538,112.6293 88.5458,114.8753 C86.2098,116.0863 83.7778,116.7883 81.3678,117.4683 C78.6028,118.2373 75.8368,118.9373 73.0658,119.5613 C70.7568,120.0783 68.4478,120.5433 66.1378,120.9543 C57.2888,122.5313 48.4428,123.3303 39.7048,123.311631 C30.5838,123.2863 18.9178,123.4723 13.1948,115.1583 C15.2028,110.8843 16.4198,106.3293 17.3798,101.7753 C17.4638,101.3983 17.5398,101.0123 17.6168,100.6363 L17.4198,100.6023 C18.5428,97.4373 19.4178,94.2043 20.0128,90.9263 C20.0358,90.8103 20.0288,90.7073 20.0128,90.6063 C22.7378,90.6463 25.5228,90.3973 28.3148,89.8993 M40.9528,186.1653 C39.2038,186.4773 37.4488,186.6403 35.7218,186.7433 C30.3528,187.0693 25.0898,186.5213 19.8888,185.8663 C17.4058,185.5483 14.4228,185.5783 12.3488,184.1063 C11.3918,183.4223 10.5928,182.3023 10.5198,180.8893 C10.4838,180.1093 10.6968,179.3363 10.9998,178.5913 C10.9638,177.4563 11.1108,176.2983 11.4218,175.1623 L11.3168,175.1643 C12.6908,166.7773 14.0578,158.4003 15.4328,150.0223 C16.1968,145.3493 16.9598,140.6843 17.7238,136.0103 C18.4568,131.5053 19.3268,126.9433 19.2668,122.4853 C23.9138,124.5093 29.3798,124.9693 34.4538,125.1543 C44.8878,125.5223 55.5038,124.7673 66.1178,122.8763 C67.0778,122.7043 68.0368,122.5243 68.9968,122.3343 C74.5348,121.2443 80.1768,120.0053 85.6558,118.0693 C87.7928,117.3083 89.8718,116.2633 91.7248,114.8443 C91.7308,123.7973 91.9488,132.7213 92.3848,141.5803 C92.6038,145.9493 92.8738,150.3093 93.1918,154.6513 C93.3608,156.8953 93.5448,159.1433 93.7378,161.3823 C93.9148,163.4083 94.2208,165.4453 94.2319762,167.5083 C94.2438,169.4853 93.6438,171.1743 92.1088,172.4333 C90.7248,173.5703 89.0848,174.2083 87.5508,174.8353 C83.8558,176.3333 80.0928,177.3573 76.3308,178.1143 C75.7248,178.2363 75.1178,178.3513 74.5108,178.4593 C71.3238,179.0273 68.1348,179.4163 64.9568,179.7353 C63.0378,179.9303 61.0978,180.1643 59.1868,180.2713 C58.2278,180.3213 57.8518,179.9213 57.7088,178.8663 C57.5688,177.8283 57.5398,176.7273 57.5118,175.6513 C57.2718,166.7143 59.1318,157.1353 56.6028,148.8563 C57.3648,145.1853 58.3298,141.5473 59.5368,137.9613 C59.7038,137.4483 59.3508,136.9323 58.9508,136.8823 C58.8718,136.8703 58.7958,136.8723 58.7228,136.8853 C58.3538,136.9513 58.0608,137.3113 57.9138,137.7413 C56.9728,140.5623 56.1668,143.4283 55.4898,146.3153 C55.2548,146.4433 55.0508,146.6613 54.9448,147.0083 C53.2198,152.8473 51.8878,158.7633 50.9998,164.6943 C50.5568,167.6693 50.2118,170.6523 49.9798,173.6233 C49.7788,176.1403 49.8268,178.8793 48.7948,181.3193 C47.6958,183.9093 45.4578,185.0683 43.2518,185.6613 C42.4898,185.8623 41.7218,186.0283 40.9528,186.1653 M18.6108,239.9573 C18.3658,233.9593 18.1188,227.9533 17.8738,221.9463 L17.8518,221.8303 C18.0158,210.4603 18.1808,199.0833 18.3458,187.7143 C19.8848,187.8973 21.4408,188.0523 22.9728,188.2113 C25.8578,188.5273 28.7558,188.7543 31.6938,188.7663 C34.5548,188.7843 37.4398,188.6323 40.3398,188.1683 C40.5068,188.1383 40.6808,188.1073 40.8468,188.0773 C39.0918,197.7243 37.7748,207.3973 36.8438,217.0443 C36.7758,217.1783 36.7218,217.3343 36.7058,217.5103 C36.0278,225.2713 35.4538,233.0313 34.9938,240.7793 C34.9638,241.2953 35.2348,241.5323 35.5678,241.5593 C35.8558,244.9043 36.2418,248.2673 35.6608,251.7153 C34.9748,255.7703 33.3138,259.6443 31.4938,263.3563 C31.1078,264.1433 30.7208,264.9553 30.3198,265.7703 C30.2678,265.3563 30.0118,264.9953 29.5358,265.0453 C28.7708,265.1233 28.0038,265.2313 27.2398,265.3673 C23.0288,266.1173 18.8378,267.7443 14.8848,270.1463 C14.7948,265.6933 14.1998,261.3573 13.0808,257.2603 C13.0438,257.1203 12.9838,257.0103 12.9088,256.9193 C13.3628,256.3723 13.8018,255.8273 14.2098,255.2963 C16.4278,252.4203 18.1328,249.3073 18.5848,245.6483 C18.8228,243.7053 18.7738,241.8213 18.6708,239.9383 L18.6108,239.9573 M74.4828,180.3813 C77.5118,179.8423 80.5368,179.1273 83.5428,178.1773 C81.3948,196.3913 79.3068,214.6113 77.2948,232.8263 C77.0258,235.2163 76.6438,237.6613 76.4888,240.0573 C76.3438,240.3683 76.3138,240.7453 76.4558,241.0223 C76.5218,242.2293 77.0258,243.3063 78.2348,243.1603 C78.2498,243.1583 78.2658,243.1553 78.2808,243.1533 C78.5658,243.1023 78.7628,242.9163 78.8848,242.6813 C81.7438,244.6083 84.3508,247.0133 86.5048,249.8623 L86.4448,249.9593 C85.4818,252.2573 84.9338,254.6803 84.8758,257.0843 C84.8508,258.3073 84.9538,259.5073 85.1788,260.6513 C85.2158,260.8703 85.3138,261.1033 85.3138,261.3283 C85.3088,261.4933 85.3528,261.5213 85.3408,261.5223 C85.3308,261.5243 85.2928,261.5133 85.1848,261.5323 C84.7538,261.6003 84.2108,261.3603 83.7958,261.3133 C82.3078,261.1343 80.7858,261.1893 79.2688,261.4593 C76.5898,261.9373 73.9198,263.0873 71.4588,264.8163 C70.8538,265.2443 70.9508,265.9793 71.3428,266.3153 C68.6118,265.0823 66.0548,263.4123 63.9908,261.2383 C62.0828,259.2363 60.9328,256.6153 60.6978,253.4593 C60.5938,252.0773 60.6268,250.6713 60.7428,249.2503 L60.7428,249.2423 C60.8738,247.5243 61.1268,245.7933 61.3948,244.0783 C61.4928,243.9223 61.5768,243.7433 61.5918,243.5243 C62.9428,227.4583 63.7118,211.4433 63.8638,195.5223 C63.9098,191.0113 63.9028,186.5013 63.8498,182.0073 C63.8508,181.9123 63.8278,181.8473 63.8058,181.7733 C66.7818,181.4843 69.7568,181.1443 72.7408,180.6733 C73.3218,180.5823 73.9028,180.4853 74.4828,180.3813 M18.1858,278.2023 C19.6678,277.9383 21.1418,277.4793 22.5298,276.8643 C26.1788,275.2463 28.6608,272.2883 30.7148,268.4393 C32.7608,264.5833 34.7618,260.6133 36.1358,256.4533 C36.4248,255.5643 36.6748,254.6543 36.8888,253.7523 C36.4158,260.2323 33.6558,266.7493 29.4858,271.8043 C26.1428,275.8643 21.1498,279.5643 16.3708,280.4163 C14.3778,280.7713 12.4218,280.6303 10.6388,279.8133 C8.5858,278.8743 6.9828,276.6793 6.6238,274.0893 C6.7518,274.2923 6.8878,274.4923 7.0238,274.6753 C7.0768,274.8473 7.1818,274.9763 7.3178,275.0643 C9.8618,278.1663 14.0558,278.9383 18.1858,278.2023 M18.2658,276.3273 C17.0588,276.5423 15.8668,276.6113 14.7518,276.5393 C11.5428,276.3423 8.5718,274.7103 7.3018,271.3503 C7.1818,271.0173 7.0838,270.6893 7.0088,270.3563 C7.0618,270.2003 7.1158,270.0353 7.1838,269.8763 L7.2288,269.7213 C7.1608,269.4393 7.1098,269.1373 7.0788,268.8403 C6.9968,268.7423 6.8988,268.6653 6.7858,268.6253 C6.7088,264.9563 9.1178,261.5973 11.5838,258.5473 C12.6858,262.7673 13.2438,267.2143 13.2208,271.8253 C13.2198,272.2993 13.6118,272.7353 14.0438,272.6583 C14.1228,272.6443 14.2038,272.6123 14.2848,272.5603 C18.4318,269.8583 22.8378,268.0743 27.2988,267.2793 C28.0418,267.1473 28.7868,267.0423 29.5328,266.9643 C29.5428,266.9643 29.5548,266.9623 29.5658,266.9603 C29.6338,266.9483 29.6928,266.9173 29.7508,266.8913 C28.4778,269.3743 27.0168,271.7693 24.9818,273.3853 C23.0048,274.9413 20.6088,275.9093 18.2658,276.3273 M81.9198,272.5643 C79.5388,272.9883 77.1178,272.3833 74.9188,271.8753 C68.9938,270.5283 62.7858,267.7713 60.3508,261.1613 C59.7798,259.6213 59.4508,257.9333 59.3938,256.1983 C59.7678,258.0673 60.4438,259.8053 61.5658,261.3253 C64.7218,265.6463 69.8438,268.1983 74.6658,269.6733 C77.1568,270.4343 80.1458,271.0293 83.0118,270.5193 C84.8548,270.1903 86.6468,269.4053 88.2238,267.9143 C87.3528,269.3223 86.2178,270.5353 84.8868,271.3953 C83.9188,272.0233 82.9228,272.3853 81.9198,272.5643 M87.6048,251.4293 C89.9238,255.0353 91.6508,260.6133 88.3948,265.2383 C86.9688,267.2713 85.0538,268.2393 83.0468,268.5973 C80.7938,268.9983 78.4248,268.6293 76.5038,268.1353 C74.8888,267.7143 73.2748,267.1643 71.7048,266.4753 C71.7858,266.4883 71.8718,266.4893 71.9608,266.4743 C72.0708,266.4543 72.1848,266.4093 72.3018,266.3263 C74.3428,264.8903 76.5648,263.9153 78.8008,263.4563 C78.9348,263.4293 79.0678,263.4043 79.2018,263.3803 C80.1638,263.2093 81.1298,263.1203 82.0778,263.1483 C83.0978,263.1743 84.1318,263.5613 85.1588,263.4643 C85.2118,263.4593 85.2638,263.4523 85.3158,263.4433 C86.1438,263.2953 86.8158,262.5983 86.9668,261.5953 C87.1198,260.5133 86.6758,259.4343 86.5948,258.4023 C86.4178,256.1013 86.7628,253.7063 87.6048,251.4293 Z M77.4946,49.066 C79.1816,47.115 81.8726,46.532 84.3556,47.237 C86.9476,47.973 88.8466,50.093 89.9986,52.45 C91.0186,54.543 91.8126,56.979 91.7096,59.346 C95.1386,58.537 98.7656,58.698 102.0936,59.87 C102.6056,60.05 102.9446,60.548 102.7936,61.1 C102.6566,61.595 102.0726,61.978 101.5626,61.799 C98.4336,60.697 95.0726,60.529 91.8586,61.359 C91.6776,61.405 91.5186,61.395 91.3716,61.359 C90.8676,62.916 89.7976,64.226 87.9966,64.396 C86.4086,64.545 85.1346,63.73 84.1256,62.604 C83.6636,63.764 82.7466,64.731 81.4596,65.134 C79.5426,65.733 77.6056,64.781 76.5736,63.218 C75.5376,63.991 74.0296,64.208 72.7386,63.777 C70.5246,63.037 69.7006,60.777 69.3106,58.599 C69.0896,58.543 68.8816,58.414 68.7306,58.165 C67.4626,56.082 68.1836,53.45 69.7146,51.719 C71.3896,49.825 74.0106,49.109 76.3666,48.502 C76.9186,48.36 77.3146,48.663 77.4946,49.066 Z M84.8176,49.552 C82.9726,48.608 80.2206,48.635 78.8986,50.447 C78.3816,51.156 77.4006,50.904 77.0846,50.34 C77.0216,50.37 76.9726,50.411 76.8986,50.43 C74.9766,50.925 72.8256,51.434 71.3696,52.879 C70.7736,53.47 70.3646,54.185 70.1666,54.995 C70.1006,55.264 70.0806,55.531 70.0836,55.796 C70.5406,55.85 70.9896,56.153 71.0516,56.729 C71.2266,58.34 71.4326,60.682 72.9336,61.672 C73.7346,62.201 75.7566,62.177 75.8136,60.891 C75.8706,59.606 77.7726,59.602 77.8136,60.891 C77.8606,62.36 79.4476,63.725 80.9276,63.205 C82.1696,62.769 82.8776,61.117 82.3346,59.921 C81.8106,58.77 83.4546,57.754 84.0606,58.911 C84.8016,60.326 87.1206,64.026 88.9826,61.784 C90.2876,60.213 89.7066,57.573 89.1756,55.826 C88.4406,53.409 87.1756,50.758 84.8176,49.552 Z"></path>
        </g>
    </g>
</svg>