<?xml version="1.0" encoding="UTF-8"?>
<svg width="500px" height="600px" viewBox="0 0 500 600" version="1.1" xmlns="http://www.w3.org/2000/svg" xmlns:xlink="http://www.w3.org/1999/xlink">
    <title>shrug</title>
    <g id="shrug" stroke="none" stroke-width="1" fill="none" fill-rule="evenodd">
        <g id="body" transform="translate(153.000000, 247.000000)" fill="#231F20">
            <path d="M119.2523,0.7075 C118.8323,0.7945 118.4403,1.3195 118.4453,1.8375 C118.4973,4.9295 116.4603,8.4045 113.8033,9.1565 C113.7053,9.1845 113.6073,9.2075 113.5113,9.2285 C112.2403,9.4925 111.0483,9.1165 110.1363,8.2945 C110.1013,7.9135 109.9003,7.6085 109.5703,7.5655 L109.4623,7.5535 C108.9973,6.8985 108.6543,6.0965 108.4983,5.1865 C108.4273,4.7525 108.1623,4.6005 107.8753,4.6345 C107.7373,4.5385 107.5593,4.4745 107.3933,4.5095 C107.3863,4.5105 107.3793,4.5125 107.3723,4.5145 C107.2003,4.5585 107.0353,4.6625 106.8983,4.8205 C106.7733,4.7355 106.6373,4.6825 106.4823,4.7145 C106.4683,4.7175 106.4543,4.7215 106.4393,4.7255 C103.9473,5.4695 101.4683,6.4085 99.0263,7.5475 C98.9473,7.5815 98.8893,7.6445 98.8253,7.7105 C95.7213,8.9355 92.6183,10.3075 89.6363,12.1385 C84.0163,15.5805 79.0833,20.6525 74.8443,26.4695 C70.6053,32.2945 67.0473,38.7655 63.7263,45.2995 C62.8983,46.9235 62.0903,48.5435 61.2843,50.1805 C60.4773,51.8175 59.3823,53.5925 59.2143,55.4345 C59.0893,56.7135 59.4183,57.7945 59.9253,58.7345 C61.3453,59.4325 62.3193,60.8115 62.8333,62.5025 C63.2703,63.0165 63.6993,63.5235 64.1363,64.0375 C64.2423,64.1615 64.3463,64.2865 64.4513,64.4105 C64.5493,64.3385 64.6543,64.2915 64.7593,64.2695 C65.1693,64.1845 65.5613,64.4785 65.3693,65.0945 C65.3373,65.1935 65.3053,65.2925 65.2733,65.3915 C67.3713,67.9135 69.4473,70.4935 71.7003,72.8085 C71.3803,74.7325 70.8893,76.6155 70.2833,78.4525 C70.3283,78.4305 70.3743,78.4095 70.4203,78.3895 C70.4633,78.2835 70.5063,78.1765 70.5493,78.0695 C70.6973,77.6935 70.9323,77.5025 71.1723,77.4525 C71.5273,77.3785 71.8923,77.6165 71.9953,78.0295 C72.3983,76.7235 72.7443,75.4055 73.0193,74.0725 C74.5733,75.4515 76.3153,76.5485 78.2823,76.9605 C76.4513,84.8095 74.8573,92.6775 73.3853,100.5715 C72.4073,105.8055 71.2773,111.0795 69.1003,116.0175 C68.7123,116.2705 68.4243,116.7975 68.5953,117.2895 C68.5013,117.8105 68.8023,118.1625 69.1823,118.2215 C70.7213,120.5025 72.6643,122.1385 74.8433,123.3175 C74.7143,123.4995 74.6203,123.7355 74.6273,124.0195 C74.7333,128.6465 73.8273,133.3985 73.1013,138.0875 C72.3883,142.6865 71.6763,147.2945 70.9573,151.8945 C69.5193,161.1825 68.0733,170.4805 66.6353,179.7685 C66.5913,180.0365 66.6413,180.2505 66.7343,180.4135 C66.2653,181.9455 66.1473,183.4825 66.7403,184.9755 C67.6473,187.2755 69.6483,188.2675 71.7003,188.6875 C72.3753,188.8315 73.0563,188.9405 73.7523,189.0385 C73.5793,201.1995 73.4133,213.3595 73.2473,225.5195 L73.3623,225.4695 C73.5873,231.3515 73.8143,237.2335 74.0403,243.1155 C74.0463,243.2865 74.0823,243.4175 74.1393,243.5265 C74.1523,244.4565 74.1433,245.3835 74.0773,246.3315 C73.8043,250.1735 72.1263,253.2885 69.9023,256.2835 C66.4193,260.9925 61.7873,266.2865 62.8883,272.3575 C62.0203,275.8395 62.8903,279.2885 64.7883,281.5125 C66.9223,284.0025 70.2303,284.4645 73.4133,283.8015 C73.9893,283.6815 74.5613,283.5255 75.1213,283.3375 C82.1453,280.9765 88.3453,274.1715 91.7623,266.1315 C93.6943,261.5985 94.7303,256.6985 94.6243,251.9845 C94.6073,251.3755 94.2053,251.1505 93.8073,251.2335 C93.7173,251.2525 93.6273,251.2875 93.5413,251.3365 C93.5703,251.0715 93.6073,250.8045 93.6223,250.5425 C93.8063,247.8165 93.4663,245.2075 93.2773,242.5765 C93.1723,241.0855 93.1113,239.5865 93.0783,238.0815 L92.9773,238.1445 C93.3403,232.1845 93.7603,226.2105 94.2453,220.2325 L94.2883,220.2495 C95.1693,209.9205 96.5023,199.5655 98.2943,189.2195 C98.3153,189.0675 98.3153,188.9375 98.2943,188.8125 C99.9033,188.4095 101.5123,187.8145 102.9573,186.6585 C107.3853,183.1185 106.7813,176.0445 107.2863,171.0045 C107.9153,164.7035 109.0463,158.3745 110.6013,152.1225 C112.2603,159.6765 110.8153,168.2825 110.9653,176.3145 C110.9983,178.0965 110.8713,180.4745 111.6443,181.9205 C112.4313,183.3905 114.1183,182.9175 115.4823,182.7635 C116.0143,182.7055 116.5383,182.6395 117.0693,182.5805 C117.0263,182.6925 117.0043,182.8275 117.0043,182.9655 C117.1763,198.8235 116.7793,214.7995 115.8163,230.8505 C115.5583,235.0875 115.2563,239.3325 114.9253,243.5765 C114.8813,243.6715 114.8383,243.7675 114.8233,243.8915 C114.5253,245.8465 114.2563,247.8465 114.1023,249.8235 C110.8573,257.7585 113.7773,265.9395 118.7093,269.8835 C121.4253,272.0485 124.6173,273.2595 127.9183,274.0595 C130.3633,274.6435 133.1003,275.3225 135.7853,274.7635 C136.7323,274.5665 137.6733,274.2155 138.5923,273.6525 C141.8613,271.6415 144.4393,267.6045 144.9643,263.3645 C145.0003,263.0195 144.9073,262.7625 144.7573,262.5855 C145.6103,259.0895 145.0433,255.2925 143.7283,252.4555 C141.2183,247.0655 136.8123,243.0055 132.2663,240.2435 C132.4433,237.3895 133.1733,230.9025 133.2463,230.1955 C133.6913,225.9895 134.1383,221.7905 134.5903,217.5915 C135.4753,209.2745 136.3803,200.9545 137.3003,192.6295 C137.8333,187.7915 138.3733,182.9515 138.9133,178.1115 C138.9203,178.0155 138.9063,177.9485 138.8993,177.8635 C141.7513,176.8205 145.2633,175.5885 147.4293,172.7615 C150.0263,169.3685 148.9013,164.6855 148.6063,161.0995 C148.2203,156.3915 147.8923,151.6715 147.6203,146.9235 C147.0093,136.2045 146.7063,125.3865 146.6973,114.5075 C146.6983,114.1265 146.5403,113.9085 146.3323,113.8055 C147.7343,112.3985 148.9663,110.6995 149.9023,108.6195 C151.9213,104.1555 152.3243,99.1185 152.2833,94.5125 C152.2303,88.4735 151.5593,82.5465 151.1173,76.6235 C150.8363,72.8325 150.5543,69.0425 150.2703,65.2505 C149.9503,64.6695 149.6313,64.0885 149.3123,63.5075 C148.9503,62.8525 149.4813,62.0635 150.0213,61.9305 C149.9573,61.0815 149.8933,60.2315 149.8293,59.3815 C152.9573,58.2015 155.8523,56.1225 158.6483,53.7955 C158.5963,53.6625 158.5463,53.5295 158.4963,53.3945 C158.3073,52.8575 158.7003,52.3965 159.1113,52.3115 C159.3783,52.2555 159.6513,52.3585 159.7753,52.7045 C159.7883,52.7395 159.8013,52.7735 159.8143,52.8075 C160.8233,51.9385 161.8223,51.0495 162.8163,50.1705 C164.0823,49.0605 165.3483,47.9405 166.6123,46.8215 C167.5983,45.9515 168.9493,45.0825 169.7123,43.8955 C170.4683,42.7265 170.1253,41.6055 169.8053,40.5315 C169.5763,39.7745 169.3553,39.0255 169.1273,38.2785 C169.1553,38.1255 169.1703,37.9665 169.1353,37.8015 C168.2743,33.4695 167.1053,29.3045 165.6263,25.3435 C164.9343,23.4735 164.1763,21.6435 163.3393,19.8815 C162.8603,18.8575 162.3313,17.9055 161.6293,17.1615 C161.7303,17.1145 161.8373,17.0575 161.9383,17.0195 C160.6903,16.0255 159.2213,15.3895 157.9953,14.3305 L158.0453,14.1825 C151.7383,9.2805 144.2213,6.3515 136.7093,4.3105 C131.0563,2.7735 125.2583,1.7245 119.4603,0.7015 C119.3913,0.6905 119.3213,0.694519231 119.2523,0.7075 M113.4833,11.1505 C113.6793,11.1105 113.8753,11.0575 114.0713,10.9935 C117.1033,10.0075 119.5283,6.4345 119.9663,2.8095 C128.5983,4.3315 137.2523,5.9605 145.3203,9.2765 C149.2013,10.8805 152.9443,12.8845 156.3633,15.4485 C157.2233,16.3575 158.2773,16.9425 159.3033,17.5675 C159.3453,17.7745 159.4453,17.9605 159.6473,18.0665 C160.9513,18.7625 161.6153,20.3615 162.2803,21.8215 C163.0813,23.5825 163.8173,25.3915 164.4883,27.2565 C165.4603,29.9845 166.2803,32.8035 166.9643,35.7035 C166.8053,35.9445 166.7263,36.2375 166.8253,36.5705 C167.2253,37.8875 167.6173,39.2065 168.0173,40.5225 C168.1813,41.0945 168.4813,41.6965 168.5453,42.3065 C168.6223,43.0595 168.0053,43.3955 167.5373,43.8035 C165.3523,45.7365 163.1663,47.6685 160.9813,49.5935 C157.4293,52.7265 153.7543,55.9805 149.6963,57.5075 C149.4723,54.5985 149.2553,51.6875 149.0373,48.7775 C148.9383,48.4525 148.8733,48.1025 148.8743,47.7305 C148.8753,47.3245 148.8833,46.9165 148.8983,46.5165 C148.7843,46.0905 148.7343,45.6165 148.7723,45.1335 L147.7563,31.5175 C147.7103,30.9155 147.2843,30.6945 146.8833,30.7785 C146.4833,30.8615 146.1093,31.2445 146.1543,31.8505 C146.8133,40.6245 147.4643,49.3985 148.1233,58.1725 C147.6123,58.6935 147.6463,59.7485 148.2493,59.8395 C148.5013,63.2875 148.7603,66.7335 149.0203,70.1805 C149.4883,76.5205 149.9793,82.8575 150.4403,89.2005 C150.7703,93.7985 150.9693,98.6145 149.9703,103.3945 C148.8913,108.5545 146.1843,112.6955 142.0813,115.0185 C139.8673,116.2745 137.5483,117.0335 135.2573,117.7525 C132.6283,118.5845 129.9993,119.3395 127.3643,120.0175 C125.1833,120.5765 122.9983,121.0835 120.8143,121.5385 C112.3903,123.2915 103.9683,124.2625 95.6503,124.4145 C86.9793,124.5775 75.8883,124.9845 70.4483,116.7825 C72.3583,112.4785 73.5233,107.8975 74.4283,103.3185 C75.4503,98.2065 76.3353,93.0785 77.4003,87.9565 C77.9143,85.5155 78.4573,83.0865 79.0143,80.6545 C79.2113,78.7205 79.6243,76.8025 80.3383,75.0205 C81.8503,68.7595 83.4913,62.5235 85.2903,56.3155 C87.0173,50.3735 88.8723,44.4645 90.8573,38.5895 C91.1393,37.7655 90.5793,37.1775 90.0673,37.2845 C89.8333,37.3325 89.6093,37.5255 89.4803,37.9075 C86.0083,48.1885 82.9103,58.5745 80.2203,69.0465 C79.7073,71.0465 79.2223,73.0405 78.7453,75.0325 C77.1953,74.7065 75.8043,73.9155 74.5063,72.8805 C74.0473,72.8465 73.6093,72.6695 73.2733,72.3335 C72.6283,71.6905 72.0693,70.9855 71.6693,70.1095 C70.2303,68.4905 68.9053,66.7265 67.6153,65.2065 L64.3563,61.3645 C63.8483,60.7695 63.3113,60.1815 62.7883,59.5645 C62.4293,59.3625 62.1213,59.0465 61.8923,58.6705 C61.7493,58.4235 61.6563,58.1055 61.6073,57.7625 L61.4853,57.7965 C61.4133,57.6725 61.3273,57.5695 61.2633,57.4445 C60.3693,55.7035 61.0613,54.1165 61.9763,52.2575 C62.7183,50.7375 63.4603,49.2355 64.2173,47.7295 C70.0883,36.0325 76.8303,23.9035 86.5563,16.3225 C89.6833,13.8825 93.0453,12.1025 96.4363,10.6275 C98.1173,9.8975 99.8123,9.2425 101.5073,8.5955 C101.7163,8.5175 101.9743,8.4025 102.2623,8.2735 L102.2623,8.1095 C103.6483,7.5535 105.0353,7.0655 106.4353,6.6445 L106.6013,6.5675 C106.7563,7.8575 107.4863,8.9065 108.4693,9.3245 C109.7173,10.7985 111.5543,11.5525 113.4833,11.1505 M96.7833,187.2575 C95.1363,187.6005 93.4833,187.7955 91.8573,187.9315 C86.7533,188.3545 81.7513,187.9175 76.8063,187.3565 C74.4523,187.0945 71.6093,187.1855 69.6383,185.7465 C68.7283,185.0795 67.9693,183.9845 67.9003,182.5725 C67.8653,181.7935 68.0683,181.0175 68.3563,180.2565 C68.3233,179.1235 68.4613,177.9705 68.7573,176.8285 L68.6573,176.8235 C69.9653,168.4185 71.2653,160.0155 72.5733,151.6025 C73.2993,146.9225 74.0263,142.2335 74.7523,137.5535 C75.4573,133.0335 76.2843,128.4545 76.2283,123.9885 C80.6383,125.9315 85.8353,126.2755 90.6653,126.3595 C100.6023,126.5315 110.7183,125.5565 120.8333,123.4515 C121.7223,123.2665 122.6083,123.0735 123.4973,122.8705 C128.7613,121.6715 134.1253,120.3215 139.3333,118.2695 C141.3653,117.4755 143.3423,116.3895 145.1033,114.9255 C145.1073,123.8865 145.3143,132.7975 145.7353,141.6545 C145.9363,146.0205 146.1923,150.3665 146.5013,154.7015 C146.6543,156.9505 146.8293,159.1875 147.0123,161.4315 C147.1813,163.4525 147.4713,165.4755 147.481707,167.5475 C147.4993,169.5145 146.9223,171.2155 145.4633,172.5135 C144.1473,173.6775 142.5883,174.3475 141.1303,174.9975 C137.6163,176.5665 134.0403,177.6735 130.4643,178.5045 C129.9303,178.6275 129.3963,178.7445 128.8613,178.8545 C125.7913,179.4945 122.7223,179.9535 119.6573,180.3475 C117.8263,180.5815 115.9883,180.8525 114.1653,180.9895 C113.2533,181.0665 112.8963,180.6745 112.7613,179.6225 C112.6263,178.5875 112.6003,177.4865 112.5733,176.4125 C112.3463,167.4795 114.1143,157.8635 111.7183,149.6335 C112.4363,145.9495 113.3613,142.2825 114.5023,138.6745 C114.6613,138.1665 114.3243,137.6575 113.9443,137.6065 C113.8713,137.5985 113.8013,137.6025 113.7333,137.6155 C113.3803,137.6895 113.1003,138.0505 112.9663,138.4845 C112.0643,141.3345 111.2973,144.2165 110.6533,147.1155 C110.4383,147.2385 110.2363,147.4615 110.1353,147.8195 C108.4953,153.6845 107.2283,159.6255 106.3843,165.5835 C105.9623,168.5665 105.6343,171.5565 105.4133,174.5315 C105.2213,177.0435 105.2673,179.7905 104.2863,182.2505 C103.2403,184.8625 101.1133,186.0655 99.0163,186.6925 C98.2753,186.9165 97.5303,187.1025 96.7833,187.2575 M75.5863,241.4795 C75.3533,235.4785 75.1203,229.4855 74.8943,223.4825 L74.8663,223.3675 C75.0233,211.9875 75.1813,200.6155 75.3383,189.2355 C76.8023,189.3965 78.2813,189.5125 79.7383,189.6505 C82.4793,189.9005 85.2423,190.0685 88.0273,190.0335 C90.7483,189.9945 93.4903,189.7785 96.2483,189.2565 C96.4063,189.2315 96.5713,189.1975 96.7293,189.1645 C95.0603,198.8465 93.8073,208.5355 92.9213,218.2015 C92.8563,218.3445 92.8063,218.4935 92.7913,218.6685 C92.1453,226.4525 91.5993,234.2235 91.1613,241.9795 C91.1313,242.4965 91.3893,242.7275 91.7053,242.7485 C91.9793,246.0875 92.3463,249.4425 91.7943,252.9015 C91.1413,256.9705 89.5613,260.8775 87.8323,264.6245 C87.4643,265.4105 87.0963,266.2295 86.7143,267.0525 C86.6653,266.6395 86.4213,266.2925 85.9693,266.3435 C85.2543,266.4365 84.5383,266.5575 83.8223,266.7065 C79.8073,267.5415 75.8113,269.2535 72.0413,271.7405 C71.9563,267.2815 71.3903,262.9565 70.3283,258.8915 C70.2923,258.7435 70.2353,258.6335 70.1643,258.5535 C70.5953,257.9885 71.0123,257.4435 71.4013,256.9045 C73.5103,253.9855 75.1303,250.8395 75.5613,247.1635 C75.7943,245.2215 75.7403,243.3315 75.6433,241.4505 L75.5863,241.4795 M128.5813,180.8315 C131.5023,180.2225 134.4213,179.4415 137.3193,178.4265 C135.2753,196.6815 133.2893,214.9325 131.3743,233.1865 C131.1183,235.5905 130.7553,238.0425 130.6073,240.4335 C130.4703,240.7555 130.4403,241.1245 130.5763,241.4075 C130.6393,242.6135 131.1183,243.6715 132.2673,243.5015 C132.2813,243.4995 132.2963,243.4965 132.3113,243.4935 C132.5813,243.4375 132.7693,243.2475 132.8853,243.0095 C135.6023,244.8905 138.0813,247.2345 140.1293,250.0495 L140.0783,250.1385 C139.1553,252.4565 138.6343,254.8895 138.5793,257.3035 C138.5563,258.5185 138.6613,259.7155 138.8673,260.8645 C138.9023,261.0735 138.9953,261.3135 138.9953,261.5295 C138.9903,261.6975 139.0333,261.7255 139.0203,261.7285 C139.0113,261.7295 138.9743,261.7195 138.8723,261.7365 C138.4633,261.8125 137.9473,261.5925 137.5523,261.5445 C136.1383,261.3955 134.6913,261.4795 133.2483,261.7805 C130.7013,262.3105 128.1633,263.5135 125.8233,265.2905 C125.2483,265.7305 125.3413,266.4715 125.7133,266.8005 C123.1243,265.6105 120.6873,263.9925 118.7243,261.8685 C116.9113,259.9035 115.8173,257.3045 115.5943,254.1445 C115.4963,252.7655 115.5273,251.3585 115.6383,249.9445 L115.6383,249.9355 C115.7633,248.2155 116.0033,246.4805 116.2583,244.7505 C116.3513,244.5935 116.4313,244.4125 116.4453,244.1935 C117.7383,228.1085 118.4643,212.0725 118.6163,196.1555 C118.6533,191.6365 118.6483,187.1345 118.5983,182.6335 C118.5993,182.5475 118.5773,182.4745 118.5563,182.4005 C121.3843,182.0535 124.2133,181.6645 127.0493,181.1335 C127.5603,181.0385 128.0703,180.9365 128.5813,180.8315 M75.1813,279.7305 C76.5903,279.4375 77.9903,278.9505 79.3073,278.3085 C82.7773,276.6185 85.1453,273.6025 87.0903,269.7145 C89.0433,265.8165 90.9383,261.8095 92.2453,257.6225 C92.5263,256.7255 92.7583,255.8215 92.9603,254.9155 C92.5103,261.3955 89.8853,267.9655 85.9213,273.1125 C82.7433,277.2375 77.9963,281.0355 73.4543,281.9805 C71.5583,282.3745 69.6993,282.2735 68.0033,281.4915 C66.0523,280.5925 64.5283,278.4295 64.1883,275.8465 C64.3103,276.0455 64.4393,276.2355 64.5673,276.4245 C64.6173,276.5955 64.7173,276.7215 64.8463,276.8075 C67.2653,279.8585 71.2553,280.5475 75.1813,279.7305 M75.2513,277.8515 C74.1053,278.0895 72.9723,278.1835 71.9143,278.1365 C68.8643,277.9935 66.0393,276.4205 64.8393,273.0925 C64.7183,272.7545 64.6323,272.4265 64.5543,272.1055 C64.6043,271.9395 64.6553,271.7825 64.7203,271.6225 L64.7633,271.4575 C64.6993,271.1765 64.6493,270.8845 64.6213,270.5795 C64.5433,270.4925 64.4493,270.4165 64.3423,270.3695 C64.2703,266.7035 66.5583,263.3055 68.9043,260.1985 C69.9523,264.4055 70.4813,268.8415 70.4593,273.4435 C70.4583,273.9195 70.8323,274.3535 71.2433,274.2685 C71.3183,274.2525 71.3943,274.2195 71.4693,274.1665 C75.4053,271.3875 79.5873,269.5135 83.8203,268.6325 C84.5343,268.4835 85.2503,268.3635 85.9663,268.2715 C86.0443,268.2555 86.1093,268.2245 86.1743,268.1935 C84.9713,270.6915 83.5813,273.1245 81.6403,274.7725 C79.7593,276.3735 77.4793,277.3875 75.2513,277.8515 M135.7693,272.8325 C133.5043,273.3035 131.2023,272.7485 129.1123,272.2895 C123.4803,271.0505 117.5773,268.4245 115.2643,261.8625 C114.7213,260.3245 114.4083,258.6525 114.3553,256.9175 C114.7103,258.7715 115.3593,260.4945 116.4193,262.0025 C119.4263,266.2595 124.2883,268.7135 128.8723,270.0835 C131.2413,270.7965 134.0863,271.3335 136.8143,270.7665 C138.5633,270.4015 140.2633,269.5835 141.7613,268.0665 C140.9333,269.4925 139.8543,270.7195 138.5963,271.6035 C137.6733,272.2515 136.7243,272.6335 135.7693,272.8325 M138.9833,263.6545 C139.7773,263.4895 140.4293,262.7825 140.5663,261.7645 C140.7123,260.6795 140.2903,259.6175 140.2143,258.5795 C140.0463,256.2815 140.3803,253.8775 141.1743,251.5865 C143.3783,255.1555 145.0193,260.6905 141.9243,265.3885 C140.5673,267.4445 138.7473,268.4505 136.8403,268.8475 C134.6973,269.2935 132.4453,268.9715 130.6193,268.5105 C129.0843,268.1295 127.5493,267.6105 126.0583,266.9535 C126.1333,266.9635 126.2103,266.9615 126.2903,266.9455 C126.3983,266.9225 126.5123,266.8725 126.6323,266.7825 C128.5653,265.3085 130.6783,264.2895 132.8043,263.7865 C132.9223,263.7585 133.0423,263.7325 133.1613,263.7075 C134.0843,263.5155 135.0103,263.4125 135.9193,263.4145 C136.8893,263.4285 137.8713,263.7945 138.8483,263.6775 C138.8943,263.6715 138.9393,263.6645 138.9833,263.6545"></path>
            <g id="handsleft" transform="translate(0.440648, 30.323922)">
                <path d="M16.710552,12.4553784 C15.052552,12.8003784 13.388552,13.2723784 11.742552,13.7933784 C8.07955199,14.9543784 2.76455199,16.8813784 2.35155199,22.5243784 C2.23355199,24.1903784 2.68355199,25.7823784 3.69355199,26.5753784 C3.28355199,27.0053784 2.88055199,27.4443784 2.49255199,27.8963784 C1.14755199,29.4553784 -0.177448006,31.6063784 0.0195519943,33.7783784 C0.181551994,35.5193784 1.31655199,37.0433784 2.87555199,36.7193784 C2.94055199,36.7053784 3.00555199,36.6893784 3.07255199,36.6693784 C3.18655199,36.6333784 3.28555199,36.5743784 3.36955199,36.4973784 C3.36155199,36.0623784 3.41955199,35.6103784 3.52955199,35.1573784 C3.43555199,35.0693784 3.30355199,35.0283784 3.13455199,35.0633784 C3.11555199,35.0673784 3.09555199,35.0723784 3.07555199,35.0783784 C3.03255199,35.0913784 2.99055199,35.1013784 2.94955199,35.1103784 C1.65855199,35.3793784 1.08655199,33.5753784 1.43655199,32.1863784 C1.93555199,30.2423784 3.48155199,28.6843784 4.75455199,27.4173784 C4.88355199,27.2863784 5.02055199,27.1713784 5.14955199,27.0403784 C5.32955199,26.9773784 5.47355199,26.8353784 5.57455199,26.6413784 C8.26355199,24.1453784 11.231552,22.2403784 14.327552,20.9913784 C15.125552,20.6693784 14.844552,19.3413784 14.107552,19.4943784 C14.068552,19.5023784 14.027552,19.5153784 13.985552,19.5323784 C10.810552,20.8153784 7.68455199,22.8053784 4.90955199,25.3883784 C3.43855199,24.8563784 3.37855199,22.2323784 4.08555199,20.5123784 C5.20355199,17.8083784 8.04055199,16.6303784 10.130552,15.9103784 C12.279552,15.1653784 14.507552,14.4573784 16.728552,13.9963784 C19.993552,13.3163784 23.240552,13.1663784 26.190552,14.2093784 C26.293552,14.2453784 26.394552,14.2503784 26.490552,14.2303784 C27.112552,14.1013784 27.526552,12.9393784 26.861552,12.7043784 C23.653552,11.5683784 20.195552,11.7303784 16.710552,12.4553784" id="Fill-4"></path>
                <path d="M20.900052,0.051578356 C20.332052,0.169578356 19.777052,0.495578356 19.339052,1.09057836 C18.504052,2.22257836 18.321052,3.92057836 18.362052,5.22557836 C18.443052,8.10357836 19.752052,10.5195784 21.810052,11.5775784 C21.924052,11.6355784 22.037052,11.6485784 22.143052,11.6265784 C22.715052,11.5075784 23.092052,10.3815784 22.481052,10.0635784 C20.724052,9.15857836 19.629052,7.01857836 19.677052,4.52857836 C19.699052,3.42857836 19.939052,1.83657836 20.964052,1.62357836 C21.071052,1.60157836 21.187052,1.59357836 21.312052,1.60357836 C22.446052,1.70457836 22.982052,2.95857836 23.497052,3.97557836 C24.420052,5.80557836 25.659052,7.00857836 27.431052,7.55557836 C29.146052,8.08057836 30.998052,8.04957836 32.814052,8.12057836 C34.687052,8.19757836 36.546052,8.37257836 38.159052,9.32357836 C39.765052,10.2605784 41.004052,11.8435784 41.998052,13.5975784 C44.073052,17.2455784 45.221052,21.6305784 46.921052,25.5715784 C48.401052,28.9975784 50.254052,32.1205784 52.403052,34.8885784 L52.424052,34.8665784 L55.001052,38.6685784 C55.588052,39.5495784 56.182052,40.4275784 56.776052,41.2985784 C57.306052,42.0875784 57.799052,43.1255784 58.481052,43.7175784 C58.766052,43.9675784 59.064052,44.0345784 59.363052,43.9715784 C60.480052,43.7395784 61.625052,41.7165784 62.254052,40.6855784 C63.331052,38.9225784 64.180052,37.0485784 64.832052,35.0675784 C64.864052,34.9685784 64.897052,34.8695784 64.928052,34.7705784 C65.121052,34.1555784 64.729052,33.8605784 64.318052,33.9465784 C64.214052,33.9675784 64.108052,34.0145784 64.011052,34.0865784 C63.859052,34.1985784 63.728052,34.3725784 63.651052,34.6135784 C63.109052,36.3335784 62.367052,38.0085784 61.453052,39.5385784 C60.999052,40.2985784 60.510052,41.0225784 59.984052,41.7115784 C59.877052,41.8545784 59.747052,42.0805784 59.603052,42.1875784 C59.483052,42.2825784 59.447052,42.3355784 59.414052,42.3425784 C59.381052,42.3495784 59.350052,42.3125784 59.244052,42.2285784 C58.943052,41.9795784 58.714052,41.4475784 58.485052,41.1075784 L52.515052,32.2635784 C52.443052,32.1575784 52.351052,32.0905784 52.257052,32.0575784 C50.625052,29.7185784 49.187052,27.1655784 48.008052,24.3955784 C46.150052,20.0545784 44.939052,15.1205784 42.397052,11.3545784 C41.245052,9.64157836 39.819052,8.20057836 38.062052,7.41757836 C36.233052,6.59657836 34.166052,6.55157836 32.142052,6.48857836 C30.196052,6.41857836 28.072052,6.41957836 26.452052,5.28757836 C24.660052,4.04457836 24.342052,0.860578356 22.241052,0.140578356 C21.821052,-0.00342164404 21.357052,-0.043421644 20.900052,0.051578356" id="Fill-7"></path>
                <path d="M16.493252,23.5993784 C16.446252,23.6093784 16.397252,23.6243784 16.347252,23.6473784 C14.134252,24.6353784 11.993252,25.9103784 9.94425199,27.4693784 C8.06825199,28.8963784 5.98325199,30.5833784 4.58725199,32.7583784 C4.11425199,33.4923784 3.73325199,34.3253784 3.53025199,35.1573784 C3.41925199,35.6103784 3.36125199,36.0623784 3.36925199,36.4973784 C3.38325199,37.2133784 3.57625199,37.8833784 4.00925199,38.4353784 C4.56625199,39.1503784 5.46625199,39.5563784 6.33125199,39.3763784 C6.83825199,39.2713784 7.33225199,38.9633784 7.73825199,38.3983784 C7.76125199,38.0033784 7.81725199,37.6013784 7.90125199,37.2003784 C7.77625199,37.0063784 7.57525199,36.8963784 7.36625199,36.9403784 C7.21725199,36.9713784 7.06425199,37.0793784 6.93225199,37.2913784 C6.73725199,37.6013784 6.50225199,37.7623784 6.25925199,37.8123784 C5.58825199,37.9523784 4.85325199,37.2563784 4.70125199,36.5463784 C4.34625199,34.8833784 5.92125199,32.9733784 6.95025199,31.9123784 C9.86225199,28.9113784 13.247252,26.6433784 16.696252,25.1043784 C17.478252,24.7543784 17.218252,23.4483784 16.493252,23.5993784" id="Fill-10"></path>
                <path d="M17.490352,27.3029784 C14.826352,27.8569784 12.153352,29.6259784 10.200352,32.2819784 C9.20235199,33.6349784 8.27635199,35.4239784 7.90135199,37.1999784 C7.81735199,37.6019784 7.76135199,38.0029784 7.73835199,38.3979784 C7.70035199,39.0649784 7.75835199,39.7149784 7.93935199,40.3229784 C8.60035199,42.5189784 10.479352,42.8429784 12.326352,42.4589784 C12.730352,42.3749784 13.132352,42.2569784 13.520352,42.1169784 C16.458352,41.0649784 19.411352,39.4049784 22.221352,37.7219784 C23.737352,36.8189784 25.239352,35.8489784 26.713352,34.8169784 C28.093352,33.8639784 29.437352,32.7109784 30.874352,31.9629784 C31.270352,31.7549784 31.643352,31.6179784 31.999352,31.5439784 C33.169352,31.3009784 34.147352,31.7399784 35.086352,32.6239784 C36.104352,33.5789784 37.063352,34.6239784 38.009352,35.6799784 C39.986352,37.8699784 41.863352,40.1939784 43.616352,42.6549784 C47.532352,48.1489784 50.866352,54.2649784 53.574352,60.8749784 C53.667352,61.0969784 53.818352,61.1869784 53.976352,61.1889784 C54.440352,62.3449784 55.314352,63.1659784 56.405352,63.5089784 C57.112352,63.7339784 57.855352,63.7369784 58.603352,63.5809784 C59.768352,63.3379784 60.946352,62.7109784 62.014352,61.9359784 C62.682352,61.4419784 63.329352,60.9009784 63.941352,60.2989784 C63.982352,60.2979784 64.023352,60.2919784 64.064352,60.2839784 C64.268352,60.2409784 64.471352,60.1119784 64.645352,59.9099784 C67.472352,56.5909784 69.819352,52.6449784 71.485352,48.4269784 C71.593352,48.1549784 71.605352,47.9089784 71.554352,47.7059784 C71.451352,47.2929784 71.087352,47.0539784 70.731352,47.1289784 C70.491352,47.1779784 70.256352,47.3699784 70.108352,47.7449784 C70.066352,47.8519784 70.023352,47.9589784 69.979352,48.0659784 C68.374352,52.0199784 66.181352,55.6579784 63.520352,58.7869784 L63.476352,58.8649784 C63.211352,59.1369784 62.937352,59.4009784 62.657352,59.6499784 C61.453352,60.7159784 60.048352,61.7049784 58.639352,61.9979784 C58.390352,62.0499784 58.141352,62.0799784 57.893352,62.0849784 C56.443352,62.1179784 55.017352,61.0839784 54.927352,59.2359784 C54.907352,58.7309784 54.553352,58.5529784 54.220352,58.6229784 C54.214352,58.6239784 54.209352,58.6249784 54.203352,58.6259784 C49.779352,48.2249784 43.752352,39.0049784 36.402352,31.6769784 C35.570352,30.8469784 34.667352,30.0579784 33.519352,29.8559784 C33.073352,29.7739784 32.616352,29.7949784 32.157352,29.8909784 C31.322352,30.0639784 30.482352,30.4859784 29.698352,30.9889784 C28.369352,31.8449784 27.104352,32.8599784 25.796352,33.7539784 C24.408352,34.7079784 23.000352,35.5979784 21.577352,36.4479784 C18.911352,38.0219784 16.080352,39.6479784 13.286352,40.6189784 C12.934352,40.7389784 12.561352,40.8519784 12.187352,40.9299784 C11.453352,41.0829784 10.711352,41.0999784 10.098352,40.7629784 C8.91535199,40.1109784 8.91135199,38.3229784 9.33135199,36.7919784 C10.490352,32.5519784 14.032352,29.6319784 17.469352,28.9169784 C18.942352,28.6099784 20.394352,28.7079784 21.634352,29.2799784 C21.743352,29.3299784 21.851352,29.3389784 21.953352,29.3179784 C22.540352,29.1959784 22.932352,28.0549784 22.297352,27.7669784 C20.818352,27.0839784 19.156352,26.9559784 17.490352,27.3029784" id="Fill-13"></path>
                <path d="M23.739852,15.5154784 C23.455852,15.5744784 23.135852,15.8574784 23.093852,16.2274784 C22.706852,19.4544784 23.260852,22.5624784 24.749852,24.8894784 C24.885852,25.1014784 25.105852,25.2044784 25.333852,25.1574784 C25.441852,25.1344784 25.550852,25.0784784 25.654852,24.9854784 C25.948852,24.7174784 26.093852,24.1684784 25.892852,23.8554784 C24.618852,21.8564784 24.028852,19.1704784 24.363852,16.3874784 C24.414852,15.9524784 24.279852,15.5494784 23.898852,15.5074784 C23.848852,15.5004784 23.794852,15.5034784 23.739852,15.5154784" id="Fill-16"></path>
            </g>
            <g id="handsright" transform="translate(149.192887, 0.266152)">
                <path d="M57.642413,10.7162481 C54.157413,11.4412481 50.697413,12.7192481 47.482413,15.1922481 C46.816413,15.7052481 47.226413,16.6942481 47.843413,16.5662481 C47.938413,16.5462481 48.038413,16.4992481 48.140413,16.4212481 C51.106413,14.1442481 54.364413,12.9402481 57.635413,12.2592481 C59.850413,11.7992481 62.072413,11.5772481 64.214413,11.4242481 C66.303413,11.2832481 69.138413,11.2812481 70.240413,13.5232481 C70.940413,14.9502481 70.878413,17.5992481 69.405413,18.7442481 C66.636413,17.3162481 63.508413,16.6272481 60.342413,16.6642481 C60.300413,16.6642481 60.259413,16.6692481 60.219413,16.6772481 C59.477413,16.8322481 59.198413,18.2762481 59.995413,18.2662481 C63.088413,18.2272481 66.052413,18.8982481 68.734413,20.2762481 C68.834413,20.4192481 68.978413,20.5102481 69.157413,20.4982481 C69.286413,20.5752481 69.422413,20.6332481 69.551413,20.7102481 C70.821413,21.4482481 72.362413,22.3632481 72.847413,24.1042481 C73.200413,25.3452481 72.621413,27.3892481 71.324413,27.6592481 C71.282413,27.6682481 71.240413,27.6742481 71.197413,27.6792481 C71.176413,27.6822481 71.157413,27.6852481 71.137413,27.6892481 C70.971413,27.7232481 70.841413,27.8182481 70.747413,27.9442481 C70.857413,28.3532481 70.913413,28.7832481 70.904413,29.2242481 C70.986413,29.2642481 71.082413,29.2822481 71.194413,29.2702481 C71.260413,29.2622481 71.326413,29.2522481 71.391413,29.2382481 C72.955413,28.9132481 74.098413,26.9152481 74.266413,25.1052481 C74.471413,22.8492481 73.154413,21.2482481 71.813413,20.2482481 C71.426413,19.9572481 71.025413,19.6862481 70.616413,19.4252481 C71.630413,18.2122481 72.086413,16.4232481 71.974413,14.8042481 C71.582413,9.33724814 66.270413,9.61324814 62.609413,9.98724814 C60.963413,10.1512481 59.299413,10.3712481 57.642413,10.7162481" id="Fill-19"></path>
                <path d="M53.495913,0.0468481437 C53.038913,0.141848144 52.572913,0.375848144 52.152913,0.693848144 C50.047913,2.29084814 49.718913,5.60884814 47.919913,7.59984814 C46.294913,9.40684814 44.167913,10.2908481 42.221913,11.1708481 C40.187913,12.0778481 38.126913,12.9828481 36.292913,14.5658481 C34.531913,16.0818481 33.099913,18.1168481 31.938913,20.3118481 C29.382913,25.1388481 28.151913,30.5808481 26.275913,35.6978481 C25.085913,38.9628481 23.637913,42.1158481 21.994913,45.1368481 C21.901913,45.2078481 21.808913,45.3138481 21.735913,45.4498481 L15.727913,56.7858481 C15.497913,57.2228481 15.266913,57.8498481 14.964913,58.2158481 C14.856913,58.3508481 14.826913,58.4018481 14.793913,58.4088481 C14.760913,58.4158481 14.724913,58.3778481 14.605913,58.3338481 C14.462913,58.2858481 14.333913,58.1138481 14.225913,58.0058481 C13.702913,57.5448481 13.215913,57.0238481 12.764913,56.4528481 C11.876913,55.3288481 11.152913,53.9888481 10.620913,52.5418481 C10.607913,52.5068481 10.595913,52.4728481 10.582913,52.4388481 C10.458913,52.0928481 10.184913,51.9888481 9.91891296,52.0448481 C9.50791296,52.1298481 9.11391296,52.5918481 9.30391296,53.1278481 C9.35291296,53.2628481 9.40291296,53.3968481 9.45491296,53.5288481 C10.092913,55.1758481 10.917913,56.6548481 11.957913,57.9338481 C12.584913,58.6968481 13.724913,60.2508481 14.841913,60.0178481 C15.140913,59.9558481 15.437913,59.7648481 15.723913,59.3978481 C16.406913,58.5208481 16.904913,57.2758481 17.437913,56.2658481 C18.035913,55.1478481 18.633913,54.0208481 19.224913,52.8958481 L21.816913,48.0168481 L21.838913,48.0298481 C23.998913,44.3658481 25.865913,40.4678481 27.358913,36.4238481 C29.075913,31.7708481 30.240913,26.9048481 32.330913,22.3908481 C33.332913,20.2118481 34.577913,18.1198481 36.188913,16.5058481 C37.807913,14.8898481 39.667913,13.9408481 41.542913,13.0838481 C43.359913,12.2558481 45.213913,11.5158481 46.924913,10.2778481 C48.706913,8.99084814 49.951913,7.27184814 50.881913,5.05584814 C51.400913,3.82384814 51.941913,2.34584814 53.077913,1.77284814 C53.204913,1.70884814 53.321913,1.66684814 53.430913,1.64384814 C54.451913,1.43184814 54.684913,2.92784814 54.702913,4.01884814 C54.740913,6.49084814 53.638913,9.08884814 51.876913,10.7258481 C51.262913,11.2988481 51.637913,12.2648481 52.210913,12.1458481 C52.315913,12.1238481 52.428913,12.0658481 52.541913,11.9608481 C54.604913,10.0448481 55.924913,7.07384814 56.016913,4.16884814 C56.060913,2.83684814 55.885913,1.22284814 55.053913,0.436848144 C54.616913,0.0248481437 54.062913,-0.0711518563 53.495913,0.0468481437" id="Fill-22"></path>
                <path d="M57.818213,21.7782481 C57.093213,21.9292481 56.828213,23.3452481 57.610213,23.3682481 C61.055213,23.4722481 64.434213,24.3342481 67.338213,26.1232481 C68.363213,26.7572481 69.933213,28.0112481 69.571213,29.8162481 C69.417213,30.5962481 68.677213,31.6012481 68.006213,31.7402481 C67.763213,31.7912481 67.529213,31.7282481 67.335213,31.4992481 C67.205213,31.3422481 67.052213,31.2972481 66.903213,31.3282481 C66.694213,31.3712481 66.491213,31.5672481 66.365213,31.8142481 C66.448213,32.1792481 66.503213,32.5562481 66.524213,32.9422481 C66.928213,33.3392481 67.422213,33.4412481 67.929213,33.3362481 C68.794213,33.1552481 69.696213,32.3742481 70.256213,31.4272481 C70.691213,30.6952481 70.886213,29.9452481 70.904213,29.2242481 C70.914213,28.7832481 70.857213,28.3532481 70.748213,27.9442481 C70.547213,27.1972481 70.170213,26.5222481 69.700213,25.9862481 C68.310213,24.3912481 66.230213,23.5712481 64.358213,22.9242481 C62.313213,22.2172481 60.175213,21.8232481 57.964213,21.7652481 C57.914213,21.7632481 57.865213,21.7682481 57.818213,21.7782481" id="Fill-25"></path>
                <path d="M56.806413,25.8998481 C55.140413,26.2468481 53.477413,27.0668481 51.994413,28.3658481 C51.359413,28.9168481 51.744413,29.8918481 52.327413,29.7708481 C52.431413,29.7488481 52.540413,29.6928481 52.652413,29.5948481 C53.892413,28.5118481 55.344413,27.8108481 56.814413,27.5038481 C60.254413,26.7888481 63.791413,28.2338481 64.937413,31.9988481 C65.350413,33.3558481 65.340413,35.1388481 64.154413,36.2928481 C63.539413,36.8838481 62.796413,37.1768481 62.063413,37.3288481 C61.688413,37.4068481 61.316413,37.4488481 60.964413,37.4748481 C58.171413,37.6678481 55.344413,37.2188481 52.682413,36.7448481 C51.261413,36.4958481 49.855413,36.1918481 48.470413,35.8148481 C47.164413,35.4638481 45.902413,34.9758481 44.575413,34.6728481 C43.792413,34.4948481 42.953413,34.4228481 42.118413,34.5968481 C41.660413,34.6928481 41.202413,34.8628481 40.755413,35.1298481 C39.606413,35.8108481 38.699413,36.9758481 37.864413,38.1518481 C30.480413,48.5478481 24.414413,60.2848481 19.949413,72.5358481 C19.943413,72.5368481 19.937413,72.5388481 19.931413,72.5398481 C19.599413,72.6088481 19.243413,72.9338481 19.222413,73.4478481 C19.124413,75.3348481 17.694413,76.9638481 16.243413,77.5338481 C15.994413,77.6318481 15.745413,77.7058481 15.496413,77.7568481 C14.088413,78.0508481 12.685413,77.6448481 11.485413,77.0718481 C9.24041296,76.0098481 7.43441296,74.1038481 6.20441296,71.6548481 C6.37741296,71.3508481 6.44341296,70.9738481 6.25641296,70.6328481 C4.66841296,67.7478481 3.07941296,64.8638481 1.49941296,61.9858481 C1.33841296,61.6928481 1.09641296,61.6078481 0.853412964,61.6578481 C0.844412964,61.6598481 0.836412964,61.6628481 0.827412964,61.6648481 C0.287412964,61.7968481 -0.242587036,62.5858481 0.118412964,63.2418481 C0.438412964,63.8218481 0.757412964,64.4028481 1.07741296,64.9848481 C2.17441296,66.9818481 3.27241296,68.9818481 4.37541296,70.9808481 C4.37441296,71.0758481 4.38941296,71.1678481 4.42541296,71.2648481 C5.88941296,75.1078481 8.66841296,78.0208481 12.119413,79.1008481 C13.186413,79.4318481 14.361413,79.5688481 15.527413,79.3268481 C16.275413,79.1708481 17.019413,78.8588481 17.727413,78.3398481 C18.820413,77.5418481 19.698413,76.3568481 20.166413,75.0058481 C20.325413,74.9388481 20.475413,74.7858481 20.569413,74.5238481 C23.304413,66.7818481 26.662413,59.2728481 30.603413,52.1438481 C32.367413,48.9498481 34.253413,45.8438481 36.241413,42.8288481 C37.191413,41.3778481 38.155413,39.9328481 39.177413,38.5448481 C40.122413,37.2718481 41.106413,36.4238481 42.277413,36.1808481 C42.628413,36.1078481 42.997413,36.0888481 43.387413,36.1298481 C44.830413,36.2878481 46.171413,36.8808481 47.549413,37.2598481 C49.020413,37.6798481 50.519413,38.0248481 52.033413,38.2968481 C54.838413,38.8108481 57.788413,39.2428481 60.724413,39.0718481 C61.112413,39.0508481 61.514413,39.0008481 61.917413,38.9168481 C63.765413,38.5318481 65.646413,37.4258481 66.317413,34.9528481 C66.499413,34.2688481 66.560413,33.5938481 66.524413,32.9418481 C66.502413,32.5568481 66.448413,32.1798481 66.365413,31.8138481 C65.995413,30.1888481 65.073413,28.7808481 64.082413,27.8468481 C62.139413,26.0018481 59.469413,25.3458481 56.806413,25.8998481" id="Fill-28"></path>
                <path d="M50.591613,16.7065481 C50.535613,16.7185481 50.481613,16.7375481 50.429613,16.7655481 C50.056613,16.9635481 49.918613,17.4155481 49.968613,17.8295481 C50.293613,20.4835481 49.692613,23.4175481 48.409613,25.9405481 C48.207613,26.3455481 48.351613,26.8345481 48.645613,26.9805481 C48.747613,27.0305481 48.857613,27.0415481 48.964613,27.0195481 C49.193613,26.9715481 49.412613,26.7765481 49.550613,26.5065481 C51.048613,23.5595481 51.614613,20.2085481 51.239613,17.1495481 C51.198613,16.7965481 50.880613,16.6465481 50.591613,16.7065481" id="Fill-31"></path>
            </g>
        </g>
    </g>
</svg>