<svg xmlns="http://www.w3.org/2000/svg" viewBox="0 0 500 600"><g opacity="0.92"><path d="M104.9,525.2l-2.8,8.4c-1.5,4.4-3.1,8.9-2.9,13.5s2.3,9.5,6.4,11.6,5.8,1.4,8.8,1.3l8.7-.2a12.1,12.1,0,0,0,5-1,7.4,7.4,0,0,0,3.2-5.3,19.2,19.2,0,0,0-.5-6.3,137.9,137.9,0,0,0-7-23.5c-.6-1.6-1.4-3.2-3.1-3.8a10.5,10.5,0,0,0-3.1-.3,49.2,49.2,0,0,0-7.6.9,9.8,9.8,0,0,0-3.8,1.5A3.1,3.1,0,0,0,104.9,525.2Z" stroke="#000" stroke-linecap="round" stroke-linejoin="round"/></g><g opacity="0.3"><path d="M128.8,550.9l.3.8a45.1,45.1,0,0,0-14.6-2.3,28.4,28.4,0,0,0-11.4,3" fill="none" stroke="#fff" stroke-linecap="round" stroke-linejoin="round"/><path d="M121.5,535.1a13.5,13.5,0,0,0-6.6-.6,35.5,35.5,0,0,0-6.6,1.7" fill="none" stroke="#fff" stroke-linecap="round" stroke-linejoin="round"/><path d="M121.7,540.2a11.6,11.6,0,0,0-6.9-.8,26.6,26.6,0,0,0-6.7,2.3" fill="none" stroke="#fff" stroke-linecap="round" stroke-linejoin="round"/><path d="M121.8,544.8c0-.1.3,0,.2.1h-.4c-4.5-1.3-9.4-.3-13.8,1.6" fill="none" stroke="#fff" stroke-linecap="round" stroke-linejoin="round"/><path d="M107.1,535a1.5,1.5,0,0,1,1,2.8,1.5,1.5,0,0,1-1.9-2.2,1.4,1.4,0,0,1,1.6-.5" fill="none" stroke="#fff" stroke-linecap="round" stroke-linejoin="round"/><path d="M106.1,540.5a3.7,3.7,0,0,1,1.8.1c.1.1.3.1.3.3a.6.6,0,0,1,.1.4,2.3,2.3,0,0,1-.4,2,2.1,2.1,0,0,1-2.7-.1.8.8,0,0,1-.5-.5,1.7,1.7,0,0,1,.1-.7,3.9,3.9,0,0,1,.6-1.1.9.9,0,0,1,1.1-.3" fill="none" stroke="#fff" stroke-linecap="round" stroke-linejoin="round"/><path d="M106.4,545.4a1.4,1.4,0,0,1,1.6.5,1.2,1.2,0,0,1-.3,1.6,1.1,1.1,0,0,1-.7.3,1.7,1.7,0,0,1-1.5-.5,1.2,1.2,0,0,1-.1-1.4,1.1,1.1,0,0,1,1.4-.3" fill="none" stroke="#fff" stroke-linecap="round" stroke-linejoin="round"/><path d="M122,544.1c.5-.2,1.1-.5,1.6-.2s.6.9.7,1.5l.2,1a.9.9,0,0,1-.1.5.5.5,0,0,1-.4.2,4,4,0,0,1-1.5.3,1.6,1.6,0,0,1-1.3-.9,1.4,1.4,0,0,1,0-.9,6.1,6.1,0,0,1,.7-1.4h.3" fill="none" stroke="#fff" stroke-linecap="round" stroke-linejoin="round"/><path d="M121.9,539a1.3,1.3,0,0,1,1.1-.6,1.5,1.5,0,0,1,1.2,1.8,1.6,1.6,0,0,1-1.8,1.2.9.9,0,0,1-.6-.4.8.8,0,0,1,.1-.9l.5-1.2" fill="none" stroke="#fff" stroke-linecap="round" stroke-linejoin="round"/><path d="M121.4,534.4c.7-.3.9-1.7,1.9-1.1s.5.5.6.8a2.2,2.2,0,0,1-.1,1.8,1.5,1.5,0,0,1-2.8-.4c-.1-.3,0-1.2.6-1.1" fill="none" stroke="#fff" stroke-linecap="round" stroke-linejoin="round"/></g><g opacity="0.92"><path d="M222.9,529.1a8.8,8.8,0,0,1,2.4,1.1,5.3,5.3,0,0,1,1.8,4.8c-.4,3.8-3.7,6.7-7.3,7.7s-7.5.7-11.2.3l-32.4-3.4a15.1,15.1,0,0,1-5.2-1.1c-4.4-2-6.2-7.3-6.5-12.2s.6-9.8,4.4-12.5,5.6-2,8.5-2.2,10.3-2.2,13.6-.6,3.4,5.5,5.9,7.5C204.3,524.2,214.3,526.1,222.9,529.1Z" stroke="#000" stroke-linecap="round" stroke-linejoin="round"/></g><g opacity="0.3"><path d="M218.2,528.5c-.2-.5-.9-.4-1.3-.2a15,15,0,0,0-8.1,8.5" fill="none" stroke="#fff" stroke-linecap="round" stroke-linejoin="round"/><path d="M210.7,525.7a16.4,16.4,0,0,0-4.3,5.5c.1.1.3,0,.3-.2" fill="none" stroke="#fff" stroke-linecap="round" stroke-linejoin="round"/><path d="M206.9,523.8a9.7,9.7,0,0,0-3,4.9" fill="none" stroke="#fff" stroke-linecap="round" stroke-linejoin="round"/><path d="M203.1,522.5a10.1,10.1,0,0,0-2.5,4.1s.2,0,.1-.1" fill="none" stroke="#fff" stroke-linecap="round" stroke-linejoin="round"/><path d="M223.9,539.8a6.4,6.4,0,0,1-3.6,1.1,51.7,51.7,0,0,1-6.8.1c-2.1-.1-4.2-.4-6.3-.6l-17.1-1.8a59.7,59.7,0,0,1-6.1-.8c-2.1-.3-4.1-.8-6.1-1-4.1-.5-8.5-.4-11.6-3q-.3-.1-.3-.3c.1-.2.4-.2.3,0" fill="none" stroke="#fff" stroke-linecap="round" stroke-linejoin="round"/><path d="M206.5,531.4h.3a2.5,2.5,0,0,1,.4,1.7,1.5,1.5,0,0,1-2.9,0,2,2,0,0,1,1.5-2c.3,0,.7.1.7.4a.4.4,0,0,1-.5-.2" fill="none" stroke="#fff" stroke-linecap="round" stroke-linejoin="round"/><path d="M203.7,528.4a.4.4,0,0,1,.5.2.7.7,0,0,1,.2.6,1.7,1.7,0,0,1-.4,1.2,1.1,1.1,0,0,1-1.3-1.7,1.6,1.6,0,0,1,1.5-.2" fill="none" stroke="#fff" stroke-linecap="round" stroke-linejoin="round"/><path d="M199.8,526.6c.1-.2.4-.2.6-.2l.4.4a1.5,1.5,0,0,1,.2,1.3,1,1,0,0,1-.4.5,1.2,1.2,0,1,1-.2-2.1" fill="none" stroke="#fff" stroke-linecap="round" stroke-linejoin="round"/></g><path d="M162,377.3c-7.2,23.6-13.5,47.5-18.7,71.6s-11.4,48.1-11.1,71.8a3.2,3.2,0,0,1-.3,1.7c-.4.8-1.5,1-2.4,1.2a94.8,94.8,0,0,1-29.6-.4c-2.9-.5,12-99.4,13.6-108.5,3.7-22.5,8.9-44.8,11.8-67.4s6.6-47.9,7.4-72.1a2.2,2.2,0,0,1,.3-1.4l.8-.6c5.1-2.6,10.2-1.7,15.7-1.8s13-.2,19.5,0c11.9.2,23.9.6,35.9.6,2.2,0,4.6.2,6.1,1.7s1.6,3.4,1.8,5.3c1.9,18.4,3.5,37.1,2,55.6-1.6,20.8-4.3,41.6-7.1,62.3-1.3,10.1-3,20.1-3.9,30.2-2.1,24.2-4.3,48.2-5,72.4-.1,3.5-.4,7.1-.2,10.6.2,1.9,1.1,3.4-.1,5-2.9,3.9-11,3.2-15.1,3.3-6,.1-14.1,1.8-19.2-1.8-2-1.4-.7-18.2-.7-21.1-.1-7.9,0-15.9.2-23.8,1.5-48,7.1-96.6,11.3-144.7" fill-rule="evenodd"/><path d="M233.8,330.2a1.9,1.9,0,0,1-.1.8c-.3,2-.7,4-1.1,6-.9,3.8-1.7,7.6-2.5,11.4a12.5,12.5,0,0,1-4.3,7.7,22.8,22.8,0,0,1-6.2,3.2,8.2,8.2,0,0,1-2.6.4c-3.4-.6-.6-4.4.7-5.5l3.4-2.6c1.1-.9,2.6-1.9,2.5-3.4l-.7-13.3a7.7,7.7,0,0,0-1.5,4.3,39.6,39.6,0,0,1-1.3,4.6,4.8,4.8,0,0,1-1.6,2.3,1.7,1.7,0,0,1-2.5-.2,3,3,0,0,1-.3-1.6l.2-6.8a25.9,25.9,0,0,1,.5-5.6c.7-3.6,2.8-6.8,5.2-9.6a4.2,4.2,0,0,1,1.6-1.3,4.3,4.3,0,0,1,2.2-.4,25.6,25.6,0,0,1,7.3.9c1.7.6,1.7,1.3,1.6,3.1A34.3,34.3,0,0,1,233.8,330.2Z" fill="#f8c59a" stroke="#1a1a1a" stroke-linecap="round" stroke-linejoin="round"/><path d="M178,138.3c-.3.6,1.5,2.2,2.1,3a27,27,0,0,0,2.8,3.1l5.6,5.3c.1.2-4.6,1.8-5,1.9s-3.5-.4-5.3-.1a8.1,8.1,0,0,0-3.9,2c-2.2,1.7-5.2,6.1-8,6.8s-6.6-3.9-8.3-5.5c-6.1-5.8-10.2-15.6-19.2-12.4s-17,8.7-24.9,13.3c-5.2,3-10.5,5.3-9.5,12s5.3,9.3,8.4,13.4c1.4,2,1.1,4.2,2,6.4,1.3,3.7,3.9,7.2,5.7,10.7,3.3,6.2,6.5,12.5,8.3,19.3,3.9,14.9,2.8,34.3,3,49.7a15.1,15.1,0,0,0,.9,6.3,14.6,14.6,0,0,0,3.3,4.3,8.6,8.6,0,0,0,1.3,1.4,8.2,8.2,0,0,0,4.4,1.5,8.6,8.6,0,0,0,1.6,0c3.7,0,7.8-.8,10.4-.6l22.6.9a120,120,0,0,0,13.4.1c7.3-.5,19.8-1.4,22.3-9.5.6-2,.3-4.3.1-6.4a430.5,430.5,0,0,1-2.9-74.3c-.5,11,.4,22.5,1.6,33.6,1.6,14.7,5,29.5,5.3,44.2s-1.3,31.2,1.7,46.9a7.7,7.7,0,0,0,1.9,4.3,7.2,7.2,0,0,0,4,1.4c3.4.5,6.8,1,10.2,1.3a4.2,4.2,0,0,0,2.7-.3c.9-.6,1.1-1.9,1.2-3.1,1.5-16.8,3-33.5,3.3-50.4.2-15-2.7-28.9-4.7-43.8s-4.1-28.7-6.6-43c-1-6.2-2.2-12.6-5.5-18.1a26.5,26.5,0,0,0-6.8-8.1c-2.9-2.1-6.5-3.7-9.7-5.5a184.1,184.1,0,0,0-21.6-10,32,32,0,0,0-6.6-2.2C178.5,137.9,178,138,178,138.3Z" fill="#b1dbf2" stroke="#000" stroke-miterlimit="10"/><rect x="206.1" y="30.1" width="269.7" height="527.29" fill="#fff" stroke="#000" stroke-linecap="round" stroke-linejoin="round"/><path d="M222.8,182.8a19.7,19.7,0,0,0,2.5-2.5,6.8,6.8,0,0,0,1.1-5.5c-.2-.8-.4-1.6-1.1-1.9a1.8,1.8,0,0,0-2.1.7l-.8,1.6a9.6,9.6,0,0,1-3.5,3.7,31.8,31.8,0,0,0-4.3,2.8c-2.6,2.2-3.8,5.1-5.5,7.9s-4.7,3.9-7,5.5a80.6,80.6,0,0,0-7.2,5.9c-.1.1-.1.2-.1.4s2.1,2.9,2.8,4.1,3.2,6.9,5.2,6.8,3.2-2.1,4.2-2.8a22.6,22.6,0,0,1,4.2-2.6c3.6-1.6,7.5-1.7,11.3-2.2A17.9,17.9,0,0,0,229,203a16.5,16.5,0,0,0,3.6-2.2c.7-.6,1.9-1.9,1.6-2.9a1.4,1.4,0,0,0-1.7-1,3.9,3.9,0,0,0-1.4.5l-1.4.7a7.8,7.8,0,0,0,3-2.4,2,2,0,0,0-.3-3.2c-1.2-1-2.8.1-4,.7a8.1,8.1,0,0,0,3.1-2.4c.7-1.1,1.2-3.5-.5-3.8s-4.5.7-6.1,1.3c0-.3.3-.5.6-.6,4.5-2.1,9-4,13.4-6.5,1.4-.8,3-1.8,3.4-3.5a1.7,1.7,0,0,0,0-1,1.9,1.9,0,0,0-1.9-1.1,8.6,8.6,0,0,0-2.1.7,133.6,133.6,0,0,1-20.1,8" fill="#f8c59a" stroke="#000" stroke-linecap="round" stroke-linejoin="round"/><path d="M137.8,143.2a85.1,85.1,0,0,0-15.3,7.1c-5,2.9-9.8,6-14.6,9.2-19.2,13.2-8.7,37.5-4,55.5a113.2,113.2,0,0,0,4.3,14c3,7.4,6.6,16.1,13.5,20.6,10.4,6.9,24.7-2.4,34.5-6.6,13.7-5.9,27.1-12.4,40.4-19.2,4.4-2.3,11.5-5.3,11.3-11.3-.2-3.3-3.8-7.5-5.7-10.2s-6.1-6.3-10.8-5-10.3,5.4-15.3,7.8a191.9,191.9,0,0,1-19.3,8.1c-6.6,2.3-15.7,3-20.6,8.4a85.5,85.5,0,0,0-7.5-27.1" fill="#b1dbf2" stroke="#000" stroke-miterlimit="10"/><path d="M181.7,143.5a19.6,19.6,0,0,1,4.2,3.9,5.5,5.5,0,0,1,1.2,2.7c.2,1.8-.9,3.4-2.1,4.7a13.9,13.9,0,0,1-6.3,3.7c-2.1.5-4.3.7-6.5,1.2a21.2,21.2,0,0,0-7.4,3.6,3.2,3.2,0,0,1-2.4.9,4.7,4.7,0,0,1-.9-.6c-2.8-2.2-5.9-5.1-9.2-6.6s-5.9-1-8.3-3.3-5.7-5.8-5.1-9.3a8.5,8.5,0,0,1,.9-2.2c1.7-3,4.5-5.2,7.4-7.1a6.9,6.9,0,0,0,3.8-5.7c4.9,2.6,10.5,3,15.9,3.3,1.8,0,3.6.1,5.1-.8C171.8,137.2,178,140.7,181.7,143.5Z" fill="#f8c59a" stroke="#000" stroke-linecap="round" stroke-linejoin="round"/><path d="M167.8,145.7a1.6,1.6,0,0,1-2.6.6c-.2-.1-.3-.4-.5-.6" fill="none" stroke="#1a1a1a" stroke-linecap="round" stroke-linejoin="round"/><path d="M180,145.5c-.1,1.6-1.3,2.7-2.6,3.9l-4.8,4.5L166,160c-1.4,1.3-1.8,1.5-3.4.4a28.5,28.5,0,0,1-3.3-2.5,37.2,37.2,0,0,1-4.1-4.8,23.2,23.2,0,0,1-3.9-5.4,19.5,19.5,0,0,1-2.3-7.9,20.5,20.5,0,0,1,.6-7.8c-.6.2-1.3,1.1-1.8,1.6a24.8,24.8,0,0,1-2.6,1.9c-1.8,1-3.7,1.8-5.4,2.9a26.2,26.2,0,0,1-5.8,2.9,1.5,1.5,0,0,0-.7.5,1.9,1.9,0,0,0-.2.7c-.4,3.5-1.2,6.9-.6,10.3.1.5,1.1,5.6.7,5.8a25.5,25.5,0,0,1,16.1-1.6c5.6,1.3,9.8,4.7,13.7,8.5l3.1-2.8c6.2-4.4,12.9.4,18.7,3a17.8,17.8,0,0,0,1.3-4.5,128.4,128.4,0,0,1,5-13.5c.7-1.7,1.3-3-.3-4.4s-2.7-1.6-4-2.4l-7.8-4.5c-2.5-1.5-4.8-3.3-7.5-4.4-.4,1.8.5,4,1.5,5.4a19.2,19.2,0,0,0,4.6,4.4C178.9,142.8,180,143.7,180,145.5Z" fill="#fff" stroke="#000" stroke-linecap="round" stroke-linejoin="round"/></svg>