<svg width="500" height="600" xmlns="http://www.w3.org/2000/svg" xmlns:xlink="http://www.w3.org/1999/xlink"><defs><path id="a" d="M0 .011h20.775V22.83H0z"/></defs><g fill="none" fill-rule="evenodd"><path d="M217.154 183.027a5.999 5.999 0 01-.126-.716l.021.14c.034.216.075.43.121.643l-.016-.067m-.526-1.381a.648.648 0 01.058-.002l-.058.002m-.009-.03a.75.75 0 01.049.01l-.049-.01m4.289-6.22a2.455 2.455 0 00-.276.316c-.106.141-.169.325-.239.485a1.556 1.556 0 00-.097.326c-.085.083-.16.178-.222.28-.135.225-.186.484-.22.743l-.013.002c-.103.029-.204.06-.304.098-.025.016-.05.03-.073.047a1.01 1.01 0 00-.195.125 1.535 1.535 0 00-.84.082c-.338.131-.576.367-.784.657a2.153 2.153 0 00-.21.415 2.549 2.549 0 00-.11.344 3.488 3.488 0 00-.091.69 1.635 1.635 0 00-.065.14 2.294 2.294 0 00-.38-.084c-.17-.024-.329.019-.486.068-.126.039-.225.117-.327.196-.103.08-.196.226-.262.339a2.098 2.098 0 00-.2.512c-.123.46-.075.948-.005 1.423a.74.74 0 00-.204.209c-.061.11-.111.214-.138.338a1.62 1.62 0 00-.022.52.61.61 0 00-.234.338c-.056.266-.12.527-.16.796-.015.112-.005.239.008.356a1.317 1.317 0 00-.585.46c-.318.43-.357.991-.32 1.524-.143.15-.217.34-.255.544-.061.021-.12.049-.178.08a.587.587 0 00-.24.184l-.138.16a2.562 2.562 0 00-.118.262c-.021.094-.038.19-.054.286a2.356 2.356 0 00.018.44.68.68 0 00-.313.155c-.06.064-.118.132-.171.202-.09.115-.117.298-.141.437a1.5 1.5 0 00-.014.385c.016.182.042.337.097.512.055.168.118.335.18.5.12.33.279.647.449.954a9.2 9.2 0 00.132.217c.059.09.118.178.178.266.11.134.235.247.37.353.206.16.525.259.775.277a.75.75 0 00.388-.078c.08.019.159.037.239.054.101.001.201-.004.301-.017.192-.019.39-.165.511-.3a1.171 1.171 0 00.324-.719l.029-.015a1.03 1.03 0 00.357-.326c.045-.07.085-.154.117-.243.297-.06.535-.222.718-.463.159-.21.256-.464.276-.734.02-.254-.005-.51-.08-.757a2.56 2.56 0 00-.16-.391 1.145 1.145 0 00.452-.371c.074-.103.123-.217.166-.337.04-.112.047-.267.047-.39 0-.168-.029-.347-.06-.514l-.002-.006a2.162 2.162 0 00.26-.435c.045-.092.09-.19.113-.294.158-.048.304-.13.424-.243a.854.854 0 00.131-.164c.175.023.372-.013.513-.077.259-.114.47-.29.646-.508a2.86 2.86 0 00.386-.692c.099-.231.115-.511.103-.765a2.627 2.627 0 00-.006-.084c.134-.108.254-.235.358-.363.091-.113.166-.237.227-.369.102-.048.2-.104.288-.167.092-.065.168-.134.243-.216a1.494 1.494 0 00.42-.96 1.18 1.18 0 00.766-.257c.219-.177.368-.4.45-.671.06-.204.06-.424.037-.64a1.223 1.223 0 00.117-.162c.097-.055.185-.124.258-.203.195-.211.305-.453.373-.722.112-.073.21-.159.288-.272.074-.107.146-.217.218-.327.304-.462.059-1.116-.154-1.586a6.248 6.248 0 00-.605-1.03l-.016-.045c-.035-.101-.078-.2-.118-.3a1.836 1.836 0 00-.148-.282 1.751 1.751 0 00-.15-.213l-.025-.024-.021-.12a.639.639 0 00-.711-.497.544.544 0 00-.277.13 1.226 1.226 0 00-.358-.003.577.577 0 00-.165.043 1.315 1.315 0 00-.058-.017l-.204-.045a8.134 8.134 0 00-.295.01c-.123.006-.343.121-.44.206a.058.058 0 00-.014.013m26.767-15.392l.105-.003-.105.003m-.05.006l.073.016a.727.727 0 01-.073-.016m-2.189-.14l-.004.024.004-.024m-1.92.232l-.01.02.01-.02m-1.746-.473a.376.376 0 01.04-.022l-.044.028.004-.006m-12.155 6.97c-.13.188-.216.417-.288.633a5.075 5.075 0 00-.176.793c-.14.882-.028 1.798.248 2.667.14.446.293.892.467 1.33.075.186.192.394.342.53l.135.12c.073.044.148.08.227.107.16.062.328.047.492.04.117-.006.238-.065.343-.108.112-.045.21-.127.308-.196.104-.073.193-.188.272-.283a3.35 3.35 0 00.204-.27c.205-.294.371-.609.53-.93l.032-.024a2.48 2.48 0 00.451-.495c.07-.096.132-.2.19-.308a2.67 2.67 0 00.293-.244c.178-.17.33-.372.475-.57.04-.054.078-.11.114-.166.077-.024.151-.053.223-.09a2.58 2.58 0 00.382-.254c.112-.085.202-.199.292-.303.096-.115.181-.235.261-.362.14-.222.255-.464.356-.709.1-.033.196-.078.288-.13.113-.063.221-.135.324-.213.058.006.114.01.163.01.187.005.298-.021.472-.075.211-.063.392-.193.562-.33.378-.302.633-.743.842-1.178l.01-.022a.895.895 0 00.034-.003c.52-.059.868-.437 1.168-.824a3.3 3.3 0 00.334-.574l.027-.056a1.51 1.51 0 00.453-.152c.312-.173.574-.426.788-.716.135.007.267.001.397-.034.553-.146.944-.559 1.277-.997l.042-.056.084.017c.135.015.264.012.4.005.21-.013.399-.076.596-.138.065-.02.13-.04.194-.062a.999.999 0 00.274-.158c.015.012.03.022.046.033.142.098.316.153.48.182.44.073.903-.076 1.267-.293.121-.072.225-.142.326-.239.036-.036.072-.076.107-.117l.091.05c.089.056.183.1.28.133.102.024.204.047.307.067.126.026.286.008.408.004.118-.005.229-.021.344-.042.152-.03.296-.086.439-.142.146.078.294.155.444.227.173.084.36.136.542.193.392.125.808-.047.93-.445.116-.37-.099-.84-.492-.965a4.878 4.878 0 01-.535-.196c-.283-.163-.572-.355-.895-.387a1.65 1.65 0 00-.5.056c-.06.016-.119.03-.179.042a.716.716 0 01-.121.018c-.077 0-.154-.005-.231-.012a1.208 1.208 0 01-.03-.021 8.872 8.872 0 01-.141-.141 1.752 1.752 0 00-.417-.32c-.2-.11-.385-.177-.61-.14l-.2.061a.777.777 0 00-.32.28c-.082.1-.143.2-.203.314-.048.09-.104.174-.165.254a.28.28 0 01-.013.01.592.592 0 01-.02.012 3.912 3.912 0 01-.013-.07 3.652 3.652 0 00.01-.053c.02-.108.045-.212.048-.321.005-.18-.053-.328-.126-.49a.847.847 0 00-.673-.472c-.348-.034-.7.18-.793.52a2.08 2.08 0 00-.083.586 4.844 4.844 0 01-.119.22l.008-.059c.039-.284-.062-.555-.176-.817-.116-.27-.413-.456-.69-.484a.806.806 0 00-.613.2 1.33 1.33 0 00-.169-.446c-.121-.196-.256-.347-.477-.428a.771.771 0 00-.602.02c-.118.061-.228.136-.339.209l-.137.159a.725.725 0 00-.12.161 2.025 2.025 0 00-.296.77.747.747 0 00-.314-.106.703.703 0 00-.359.059.868.868 0 00-.289.145c-.143.1-.23.251-.293.413-.103.261-.106.552-.118.834l-.017.346a.803.803 0 00-.048-.095.8.8 0 00-.311-.326.734.734 0 00-.348-.128l-.144-.03a.687.687 0 00-.354.059.663.663 0 00-.355.405c-.052.175-.109.346-.16.52l-.006.022c-.094-.032-.19-.05-.285-.068a.892.892 0 00-.436.068c-.1.054-.196.111-.278.189a1.304 1.304 0 00-.22.287 2.424 2.424 0 00-.189.41c-.104-.063-.217-.108-.328-.158a.78.78 0 00-.389-.037.743.743 0 00-.486.318c-.072.096-.147.19-.219.286a1.58 1.58 0 00-.197.422 1.477 1.477 0 00-.06.245 1.69 1.69 0 00-.055-.017c-.311-.095-.68-.024-.846.269-.136.238-.277.466-.354.736-.085.3-.105.624-.122.938l-.001.025a1.317 1.317 0 00-.68.126 1.379 1.379 0 00-.18-.049c-.445-.092-.812.067-1.097.344a.59.59 0 00-.273.054.97.97 0 00-.33.196 2.13 2.13 0 00-.34.396m-3.285 10.841a.743.743 0 00.027.562c.093.197.243.293.432.38.147.07.293.137.44.205.365.178.73.355 1.094.534.945.46 1.794 1.072 2.587 1.753.28.252.547.516.815.782.202.2.412.392.6.602.442.49.89.973 1.311 1.48l.652.79c.237.285.45.592.675.886.362.479.68.993 1.015 1.49 1.013 1.562 1.998 3.138 2.86 4.79a51.32 51.32 0 011.375 2.833c.373.833.693 1.69 1.012 2.545.144.385.28.775.442 1.152.082.192.192.368.27.563.041.146.077.292.098.443a5.025 5.025 0 00-.033.168c-.046.264.076.545.247.731.229.253.56.33.887.36.287.025.577-.01.86-.07a8.188 8.188 0 001.614-.53c.645-.284 1.255-.637 1.76-1.133.306-.302.581-.643.848-.98.144-.185.295-.365.434-.554.3-.409.6-.817.872-1.244.312-.492.207-1.143-.282-1.463a1.058 1.058 0 00-.78-.15c-.29.058-.517.227-.692.462-.592.799-1.144 1.632-1.778 2.398a4.786 4.786 0 01-.624.556c-.284.172-.573.334-.873.479a7.44 7.44 0 01-.851.34c-.028.01-.056.017-.083.025a7.11 7.11 0 00-.025-.3 3.116 3.116 0 00-.161-.633 29.324 29.324 0 00-.839-2.369 31.252 31.252 0 00-1.123-2.582c-.927-1.85-1.94-3.653-3.089-5.374a132.85 132.85 0 00-1.729-2.514c-.564-.803-1.206-1.542-1.847-2.281a31.185 31.185 0 00-1.973-2.057 18.338 18.338 0 00-2.278-1.885c-.71-.49-1.498-.848-2.271-1.224a60.442 60.442 0 00-.94-.445c-.166-.076-.407-.037-.565.04a.77.77 0 00-.391.439m31.099 35.51l.217-.443c-.143.1-.295.18-.451.243.071.073.15.139.234.2m4.132 1.338c-.059.078-.12.154-.182.227a2.28 2.28 0 00.554-.125l-.006-.003a2.58 2.58 0 01-.292-.197c-.023.034-.049.066-.074.099" fill="#161616"/><path d="M272.89 227.508l-.08-.142-.096-.156-.058-.096-.074-.12c.11.166.23.328.352.487a.44.44 0 00-.044.027zm-7.857-7.41c-.11-.114-.22-.23-.334-.339a3.1 3.1 0 00-.529-.39.577.577 0 00-.272-.063c.021-.042.041-.088.062-.133a2.78 2.78 0 01.171-.238l.04-.035c.055.033.09.085.127.138l.052.076.086.122.216.307.297.423.112.16-.028-.029zm-4.907-82.033a2.057 2.057 0 01-.058-.298l.006-.076a.264.264 0 01.023-.037l.029-.023c-.01.142-.005.29.002.44l-.002-.006zm-63.467 52.121c-.027.005-.053.01-.08.013.099-.115.19-.237.28-.36l-.075.137-.065.13-.02.04-.018.036a.654.654 0 01-.022.004zm63.84-59.704l-.112-.284a53.268 53.268 0 01-.284-.73l-.014-.062-.024-.095a15.39 15.39 0 00-.488-1.696 7.379 7.379 0 00-.5-1.1.89.89 0 00-.505-.448.86.86 0 00-.263-.046c-.011-.02-.027-.04-.042-.06l.14-.103.05.046.063.05c.147.112.297.215.448.319l.054.038.058.04c.063.041.125.084.186.129l.212.148.212.15c.106.074.217.144.327.211l.019.167c.042.314.093.626.146.938l.066.402.047.3a12.483 12.483 0 00.347 1.649l.06.224a7.04 7.04 0 00-.203-.187zm-60.186 47.18l-.078-.567-.064-.452-.227-1.577-.026-.172-.043-.281.272 1.236c.124.54.26 1.078.395 1.616l.017.064.1.403a2.99 2.99 0 00-.346-.27zm28.017 35.488l-.075-.075-.074-.075c-.396-.4-.798-.832-1.122-1.178l-.156-.167c-.217-.229-.431-.458-.65-.686-1.136-1.178-2.24-2.424-3.305-3.63l-.023-.025-.53-.599-.277-.311a82.192 82.192 0 01-1.596-1.833 56.51 56.51 0 01-.534-.656c-.119-.147-.238-.295-.36-.442-.184-.228-.38-.449-.574-.67a33.598 33.598 0 01-.326-.373 63.897 63.897 0 01-1.83-2.242 49.839 49.839 0 01-1.78-2.371 132.127 132.127 0 00-1.676-2.336c-.24-.326-.476-.654-.713-.982l-.121-.17c-.275-.38-.55-.76-.83-1.137a37.783 37.783 0 00-1.857-2.292 95.67 95.67 0 01-1.458-1.724c.07-.285.122-.545.158-.79.053-.364.034-.737.015-1.097l-.003-.067a22.939 22.939 0 00-.071-.97c.012-.361.022-.724.028-1.086a86.391 86.391 0 00-.029-3.674l-.01-.429c.015-.642.027-1.283.039-1.924l.02-.974c.006-.327.007-.654.008-.98l.002-.46.002-.214c.003-.344.006-.7-.007-1.051-.006-.17-.01-.34-.017-.511a20.382 20.382 0 00-.088-1.65 67.1 67.1 0 00-.516-3.85 26.967 26.967 0 00-.312-1.715 1.133 1.133 0 00-.484-.732c-.04-1.155-.088-2.312-.14-3.47.963-1.03 1.9-2.011 2.688-2.833.347-.36.692-.723 1.036-1.087l.329-.345.584-.616a593.95 593.95 0 002.187-2.33c1.45-1.55 2.972-2.928 4.27-4.068l.182-.159c.218-.195.439-.388.66-.58a33.32 33.32 0 011.433-1.188 98.744 98.744 0 012.362-1.78l.3-.219c1.672-1.22 3.4-2.48 5.142-3.662.593-.369 1.234-.677 1.787-.937.23-.107.459-.203.693-.298.228-.091.468-.17.714-.25l.488-.13.18-.048c.165-.045.335-.078.504-.112l.102-.02.163-.035c.147-.032.3-.052.451-.072l.058-.008.09-.011.167-.024c.295-.045.596-.07.825-.085.553-.015 1.117.058 1.644.14.378.057.752.12 1.127.191.439.092.866.186 1.273.311.378.12.76.27 1.172.456.579.325 1.071.634 1.503.946.46.332.916.716 1.3 1.047a15.56 15.56 0 012.04 2.31c.513.803.99 1.636 1.345 2.272.288.508.514.924.713 1.312l.032.06.018.033c.208.4.426.815.671 1.212.534.858 1.12 1.649 1.833 2.573.253.325.557.707.883 1.063.363.394.775.778 1.297 1.209.517.425 1.106.808 1.8 1.169l.383.197c.186.094.363.184.54.279.153.082.306.164.454.253.299.18.593.398.955.707.378.333.847.747 1.246 1.199.495.56.977 1.14 1.384 1.634l.24.293c.347.427.706.87 1.123 1.26.284.264.595.539.946.762.326.208.69.382.984.522l.057.027.072.036.228.121c.224.12.445.24.674.315.496.17 1.067.033 1.53-.369a2.05 2.05 0 00.571-.817c.117-.313.168-.657.213-.962l.02-.134c.036-.239.054-.485.071-.723l.012-.165c.015-.202.03-.403.039-.605.022-.508.038-1.015.052-1.523v-.038l.013-.475.004-.164c.01-.505.066-1.023.182-1.679a.404.404 0 00.18-.094.477.477 0 00.135-.197l.042-.108c.033-.087.065-.17.098-.252.172-.297.386-.556.59-.793l.102-.099.042.016.047.04c.173.192.32.401.44.58.288.451.534.915.717 1.268.251.479.454.858.66 1.224.166.292.355.578.539.855l.156.24c.283.43.57.858.858 1.285a39.28 39.28 0 001.574 2.145c.194.248.385.499.575.75l.242.318c.17.22.329.454.49.694l.186.273c.534.828 1.073 1.653 1.616 2.474l.06.091c.187.288.373.574.553.867.22.36.445.746.713 1.217.176.305.338.624.496.933l.022.044.13.26c.171.33.388.765.557 1.216.13.449.198.918.257 1.33.04.26.07.501.093.745l-.001.057a4.205 4.205 0 01-.296.384c-.343.372-.71.727-1.088 1.056-.332.289-.668.554-.999.785a1.18 1.18 0 00-.49.006l.027.072.03.069c.319.73.675 1.46 1.018 2.166l.04.082c.13.254.263.507.394.76.301.577.603 1.155.892 1.74.53 1.071 1.068 2.185 1.598 3.308.197.419.384.841.571 1.265l.25.565c.075.166.15.333.227.498.165.359.335.729.486 1.099a.307.307 0 00-.082-.018c-.233-.023-.482-.037-.732.072a1.72 1.72 0 00-.464.27 1.044 1.044 0 00-.164.18 3.573 3.573 0 00-.397.77l-.07.167c-.081.2-.166.405-.232.616a11.79 11.79 0 00-.392 1.733c-.157 1.028-.167 2.088-.176 3.114l-.003.345c-.004.258 0 .515.003.772.003.264.007.528.003.792-.01.616-.01 1.16-.002 1.663.01.698.03 1.395.049 2.09.015.53.029 1.059.04 1.587.007.363.017.724.028 1.086l.021.82c.019 1.884-.113 3.389-.416 4.733a11 11 0 01-.344 1.133c-.162.43-.372.842-.59 1.261-.163.284-.331.564-.502.832a5.87 5.87 0 01-.573.726 7.445 7.445 0 01-.717.616c-.292.222-.601.42-.903.612a7.4 7.4 0 01-1.275.6 3.2 3.2 0 01-.259.05 3.364 3.364 0 01-.225-.033c-.331-.095-.661-.213-.98-.326a41.31 41.31 0 00-.393-.137c-.575-.2-1.107-.358-1.628-.483a1.167 1.167 0 00-.247-.064 5.282 5.282 0 00-.218-.048l-.139-.03a1.906 1.906 0 00-.167-.028 12.809 12.809 0 00-1.275-1.02.875.875 0 00-1.143.004.885.885 0 00-.155 1.156l.026.037.025.039-.083.016-.085.02c-.641.155-1.146.339-1.59.579a4.61 4.61 0 00-.835.563c-.068.06-.133.12-.196.184-.46.477-.773.978-.926 1.494l-.15.507c-.095.318-.19.635-.282.954-.185.631-.347 1.204-.45 1.8-.043.244-.072.495-.101.738-.03.249-.06.507-.104.76-.071.39-.157.802-.273 1.293l-.024.096a6.198 6.198 0 01-.305.945c-.068.103-.14.2-.219.296a2.9 2.9 0 01-.248.194c-.142.07-.298.133-.472.193a5.725 5.725 0 01-.846.124 9.778 9.778 0 01-1.837-.186 88.142 88.142 0 01-2.125-.447 22.002 22.002 0 01-1.412-.406 31.5 31.5 0 01-1.454-.52c-.863-.337-1.728-.708-2.567-1.066l-.551-.235a36.933 36.933 0 01-2.003-.956c-.302-.151-.604-.303-.908-.45l-.637-.313c-.696-.344-1.416-.7-2.145-1.006-.36-.15-.718-.31-1.076-.47-.6-.267-1.22-.543-1.845-.773l-.114-.042c-.364-.135-.738-.274-1.12-.311-.353-.034-.713.017-1.059.065l-.185.026c-.62.084-1.241.163-1.862.24a.838.838 0 00-.217.057l-.131-.175a7.92 7.92 0 01-.77-1.284 19.354 19.354 0 01-.522-.505 31.547 31.547 0 01-3.547-3.045 41.73 41.73 0 01-.616-.624c.028.045.06.087.093.127a52.308 52.308 0 01-1.13-1.12zm-37.966-36.227l-.397.08.046-.122.089-.187c.223-.266.434-.539.637-.824.019.174.05.403.097.625l.064.318a42.23 42.23 0 01-.536.11zm57.959-52.474l-.536.284-.323.17-.095.05-.495.263c-.197.104-.406.197-.607.287l-.144.066-.18.082-.395.186c-.693.327-1.467.693-2.238.984.506-.29 1.009-.592 1.51-.893l.04-.025.675-.405.873-.523c.887-.532 1.775-1.059 2.667-1.583l.249-.133.248-.134-.128.125a9.922 9.922 0 00-.49.65 4.436 4.436 0 00-.198.32l-.433.229zm-16.398 4.847l-.167.073-.092.036.37-.185c-.038.024-.074.05-.111.076zm13.355-13.573a32.72 32.72 0 00-.431-.132c.253-.027.506-.059.762-.084l-.038.036a3.248 3.248 0 01-.086.122c-.07.018-.137.038-.207.058zm-3.08 1.065l-.373.158-.063.028c.054-.05.1-.11.146-.17a1.33 1.33 0 00.148-.23c.091.021.188.04.285.058l.096.02.059.013c-.1.04-.2.08-.298.123zm-54.54 44.985l-.14.076-.062.018.172-.08.033-.016-.004.002zm36.239-33.699c-.092.03-.185.06-.277.087a22.1 22.1 0 001.154-.473c.15-.064.301-.13.45-.196l-.015.047h-.003l-.02.075c-.49.183-.9.33-1.29.46zm17.947-17.823c.054-.054.124-.127.193-.2l.128-.031-.32.23zm-53.058 44.953l.01-.034.051-.183.083-.293c0 .087.01.176.024.263l-.092.136-.08.123.004-.012zm37.867-33.18a46.78 46.78 0 00-.37.276c.477-.47.87-.84 1.241-1.164.07-.06.14-.12.21-.178-.243.23-.481.468-.72.703l-.36.362.002.003-.003-.001zm-24.592 17.241c-.116.034-.22.057-.326.072a.606.606 0 01-.078-.007.206.206 0 01-.045-.013.978.978 0 00.255-.047l.251-.075c.103-.029.204-.059.303-.089a3.8 3.8 0 01-.36.16zm1.112-2.422l.017-.024.013-.029a80.7 80.7 0 01.327-.73l-.026.064c-.046.15-.092.3-.14.45-.02.066-.035.132-.042.2l-.149.07zm12.037-11.977l.051-.202.04-.17-.011.143-.005.143-.002.032v.03a.934.934 0 00-.073.024zm-24.612 26.9l-.008-.071.042-.473c.063-.67.143-1.352.218-2.01l.012-.105.045-.362c.349-1.56.843-3.072 1.283-4.346.073-.212.148-.424.224-.634-.103.325-.197.651-.292.978a27.275 27.275 0 00-.69 2.289c-.236.947-.368 1.738-.413 2.49-.043.346-.077.694-.111 1.042l-.027.266c-.016.171-.035.343-.053.514l-.032.29-.101.161-.024.038-.05.078-.008.016-.015-.16zm10.96-21.194l.06-.113.052-.098c-.033.076-.073.174-.115.274l.004-.063zm13.665-21.514l-.025.028c-.094.104-.184.203-.256.324-.201.34-.332.722-.459 1.09l-.032.091c-.239.213-.474.444-.701.667l-.216.21c-.233.227-.46.459-.688.69l-.314.317a7.43 7.43 0 00-.293.319l-.145.16-.356.39-.357.39c-.277.305-.536.635-.787.954l-.213.27c-.07.09-.143.177-.215.267-.192.236-.392.48-.567.736l-.6.869-.552.8-.07.103a13.35 13.35 0 00-.49.75c-.14.238-.284.476-.427.713a36.129 36.129 0 00-1.162 2.02c-.19.364-.38.73-.568 1.096a14.788 14.788 0 00-1.439.753c-.431.256-.853.516-1.253.772a26.367 26.367 0 00-4.5 3.68 23.987 23.987 0 00-1.891 2.223 32.647 32.647 0 00-2.064 3.057c-.49.703-.95 1.467-1.366 2.268-.19.366-.379.758-.612 1.27l-.05.11c-.15.328-.305.666-.44 1.008l-.633 1.61-.2.505-.05.123c-.05.125-.1.251-.142.38l-.272.83-.102.314-.264.811-.028.088a8.435 8.435 0 00-.142.498l-.07.259-.16.56c-.117.407-.238.825-.338 1.241l-.329 1.378-.021.086-.04.168c-.05.2-.098.398-.14.6-.06.29-.12.582-.183.872a104.66 104.66 0 00-.33 1.6c-.162.814-.323 1.629-.478 2.444l-.126.563-.078.346-.05.225a11.57 11.57 0 01-.124.53l-.096.361c-.129.486-.262.988-.415 1.475l-.183.578-.17.54c-.06.19-.137.378-.212.56a6.276 6.276 0 00-.104.257l-.081.207c-.074.191-.147.382-.229.57l-.173.388-.23.52-.19.355-.063.117-.015.028a14.42 14.42 0 01-.197.362c-.13.227-.249.47-.245.718-.251.366-.507.73-.768 1.09l-.572.785-.57.786c-.054.074-.11.147-.168.218-.196.252-.398.511-.48.839-.051.21-.049.361-.026.552.018.156.144.386.25.508a.907.907 0 00.493.296.675.675 0 00.327.044c.074.002.148 0 .222-.004a17.28 17.28 0 001.633-.16c.546-.07 1.09-.15 1.636-.23.436-.067.872-.144 1.308-.222a5.43 5.43 0 00.428 1.09c.072.508.2 1.029.402 1.64.176.54.42 1.07.719 1.571l.028.04h-.003a416.84 416.84 0 00-1.134 3.862l-.094.336c-.106.387-.216.787-.374 1.156-.132.23-.287.45-.436.665a13.141 13.141 0 00-.565.87c-.046.081-.09.162-.135.245l-.032.057a1.983 1.983 0 00-.132.266c-.055.144-.08.289-.075.457a.92.92 0 00.165.592.813.813 0 00-.05.271l.002.067c.007.19.013.37.1.554.078.16.247.386.412.488.154.094.364.223.583.217.173-.005.317-.008.465-.044l.085-.02c.105-.026.21-.051.314-.078.391-.1.819-.201 1.343-.319l.134-.03c.224-.05.45-.102.674-.157a20.461 20.461 0 001.688 4.586c.222.432.47.87.737 1.303-.082.702-.163 1.404-.25 2.106l-.13 1.034-.06.474-.06.455-.032.223a4.04 4.04 0 01-.028.195c-.044.298-.091.606-.011.91.073.272.211.523.45.813.211.255.536.44.772.575a6.658 6.658 0 001.33.573 1.74 1.74 0 00-.123.505c-.014.173.002.348.018.517l.009.097c.023.284.254.558.458.694.204.135.528.236.791.158.204-.06.421-.126.633-.204.136-.05.266-.133.39-.215l.11-.069.272-.17.272-.17a19.28 19.28 0 001.556-1.086 10.475 10.475 0 00.54-.454c.1.063.215.13.341.2l.087.05.068.037.04.022c.292.164.591.333.892.488.027.016.054.03.082.044l-.032-.034c.053.046.112.08.173.113l.145.08c.135.086.29.14.447.155l-.097.568-.1.61c-.326.936-.696 1.998-1.172 3.003l-.081.146c-.08.142-.161.287-.218.437-.143.376.012.835.363 1.068a.91.91 0 00.545.15 1.2 1.2 0 00.478.662c.28.184.644.233 1.027.135a1.59 1.59 0 00.544-.253.663.663 0 00.904.033c.177-.154.299-.304.414-.5l.07-.122.1-.17a7.73 7.73 0 00.319-.635c.176-.38.357-.789.568-1.285.116-.276.224-.556.333-.836l.145-.374c.366-.93.657-1.928.865-2.965.11-.538.206-1.109.288-1.693.046.064.098.125.15.187.168.2.321.378.474.555.393.457.838.975 1.241 1.506a39.28 39.28 0 011.511 2.114c.247.371.499.74.751 1.11l.027.038c.22.324.443.65.661.978l.034.051.726 1.13.243.38.019.027c.19.299.387.607.594.905.617.881 1.178 1.66 1.715 2.383.547.735 1.163 1.467 1.704 2.113l.074.088c.166.196.321.4.476.604.108.143.218.285.329.425.312.39.63.776.947 1.162.797.964 1.619 1.932 2.414 2.87l.075.089c.405.476.81.953 1.212 1.43.377.445.773.886 1.157 1.311l.053.06a68.77 68.77 0 011.023 1.153c.195.228.39.456.595.677l.333.36a32.304 32.304 0 001.39 1.45l.071.072.172.17c.167.164.34.321.514.477.159.143.308.277.45.415a70.088 70.088 0 002.114 1.978c.81.719 1.627 1.425 2.428 2.1a73.58 73.58 0 002.325 1.86l.408.315c.59.458 1.257.975 1.934 1.45.72.5 1.512 1.023 2.496 1.645.47.297.944.589 1.42.88l.155.097c.293.179.585.357.877.538.725.449 1.685 1.023 2.69 1.48.11.05.22.099.33.146l.45.201c.394.195.82.402 1.26.595.408.178.84.309 1.256.434l.147.045c.423.13.85.247 1.271.346l.062.015c.49.118 1.047.25 1.586.334.949.15 1.897.291 2.846.432.846.127 1.847.249 2.86.193a18.337 18.337 0 012.225.03c.252.018.503.036.755.042.537.01 1.083-.005 1.62-.047.298-.024.597-.07.887-.112l.142-.02c.128-.02.255-.039.384-.055l.377-.047.154-.02c.327-.041.655-.082.983-.121a16.576 16.576 0 001.459-.235c.512-.175 1.03-.333 1.56-.436.283-.054.563-.097.844-.128.319-.131.636-.267.963-.378.702-.235 1.413-.428 2.121-.642.472-.175.927-.387 1.374-.619.433-.247.869-.49 1.296-.747l.071-.05c.365-.26.678-.504.959-.747l.064-.058.065-.057a8.109 8.109 0 001.024-1.144l.332-.436.456-.603.3-.384c.19-.243.405-.516.598-.792.488-.69.966-1.49 1.507-2.523.411-.779.78-1.593 1.137-2.382l.209-.46c.224-.493.447-.985.667-1.478.178-.4.345-.811.506-1.21l.033-.08.044-.11c.214-.524.416-1.054.618-1.582l.04-.106c.128-.337.256-.673.386-1.007.185-.473.366-.947.543-1.424a14.998 14.998 0 00.706-2.711l.057-.313c.09-.489.173-.98.251-1.47.063-.387.104-.799.123-1.225l.12.15c-.024-.707-.048-1.413-.065-2.12l-.008-.48-.051-.062c-.021-.277-.05-.548-.082-.806l-.037-.294a23.99 23.99 0 00-.28-1.813 9.266 9.266 0 00-.342-1.372c-.15-.447-.304-.892-.458-1.335l-.076-.24-.013-.038c-.264-.822-.539-1.674-.917-2.465a48.154 48.154 0 01-.593-1.281c-.147-.33-.278-.673-.408-1.004l-.016-.043-.138-.355c-.174-.44-.333-.837-.523-1.241a18.285 18.285 0 00-.236-.486 14.94 14.94 0 01-.375-.795c-.156-.373-.308-.749-.46-1.125-.242-.592-.46-1.126-.688-1.653-.095-.22-.19-.438-.287-.657-.164-.37-.326-.738-.48-1.11-.204-.493-.386-.99-.567-1.496l-.149-.406c-.237-.651-.546-1.297-.819-1.868a7.746 7.746 0 00-.424-.747l-.02-.031-.038-.062a8.235 8.235 0 00-.787-1.07l.05-.041.057-.042c.125-.09.242-.19.362-.295l.177-.15.067-.055c.097-.084.188-.175.279-.263l.029-.029c.054-.056.11-.11.167-.162.34-.323.678-.693 1.028-1.134a2.48 2.48 0 00.48-.891c.089-.32.067-.594.045-.886-.029-.359-.096-.732-.15-1.033l-.051-.287a8.539 8.539 0 00-.389-1.46 4.997 4.997 0 00-.357-.734l-.02-.035c-.2-.359-.4-.715-.61-1.065-.513-.86-.984-1.634-1.53-2.378-.235-.32-.472-.638-.71-.959l-.343-.463-.617-.833-.14-.187a32.396 32.396 0 00-1.34-1.737l-.261-.307-.064-.077c-.187-.221-.373-.442-.566-.657-.34-.378-.678-.755-1.011-1.138-.546-.624-1.055-1.296-1.547-1.947l-.069-.092a39.315 39.315 0 01-.44-.601l-.167-.229c-.16-.249-.316-.501-.472-.753l-.042-.069c-.247-.395-.502-.807-.77-1.2a9.37 9.37 0 00-.696-.905 1.958 1.958 0 00-.46-.395.528.528 0 00.374-.134.646.646 0 00.215-.42l.009-.073c.017-.17.034-.331.03-.498a6.092 6.092 0 00-.025-.426c.053-.027.101-.062.149-.098.043-.03.084-.064.124-.098.166-.145.32-.324.445-.468l.111-.13c.106-.123.207-.254.315-.412a4.73 4.73 0 00.444-.831 1.41 1.41 0 00.081-.342l.008-.05.019-.11c.008-.05.013-.1.016-.15a4.288 4.288 0 00-.021-.624 9.368 9.368 0 00-.176-1.101c-.21-1.024-.465-1.906-.78-2.7l-.094-.238-.012-.031a43.192 43.192 0 00-.942-2.245 19.718 19.718 0 00-.706-1.413c-.44-.789-.985-1.503-1.513-2.196l-.028-.035a28.532 28.532 0 00-.66-.83l-.05-.059a22.634 22.634 0 01-1.04-1.34 4.882 4.882 0 01-.4-.788 4.569 4.569 0 01-.135-.782c-.012-.398-.004-.804.003-1.197l.001-.037.002-.034c.003-.181.013-.363.023-.544l.004-.047.004-.056.002-.05c.013-.205.024-.409.029-.613l.001-.066.001-.067c.024-.067.064-.2.075-.316a1.402 1.402 0 00-.09-.603l-.005-.032c.154-.283.26-.58.333-.93.113-.526.2-1.085.076-1.614-.07-.299-.162-.598-.251-.887l-.012-.039-.077-.251-.088-.29-.036-.123a46.23 46.23 0 00-.316-1.015 30.623 30.623 0 01-.44-1.73.84.84 0 00.183-.125c.303-.263.448-.68.37-1.063a1.344 1.344 0 00-.157-.447 4.174 4.174 0 00-.207-.31l-.027-.04-.061-.085-.057-.08-.063-.086-.102-.139-.05-.068c-.09-.122-.18-.246-.275-.366l-.113-.651a125.67 125.67 0 00-.174-1.014c.041-.183.082-.373.113-.563.2-.245.42-.54.543-.866a.66.66 0 00.058-.195l.06-.302a16.09 16.09 0 00-.024-.417 1.068 1.068 0 00-.026-.16l-.015-.08c-.045-.226-.126-.45-.197-.65l-.036-.099a3.786 3.786 0 00-.258-.593 3.17 3.17 0 00-.488-.692 3.89 3.89 0 00-.57-.476 8.075 8.075 0 00-.968-.608 13.754 13.754 0 00-1.728-.804c-.708-.262-1.528-.431-2.503-.517l-.174-.015a19.183 19.183 0 00-.934-.066l-.282-.014-.059-.002a9.088 9.088 0 00-.751-.017l-.277.007c-.332-.04-.666-.077-1-.113l-.162-.019-.294-.032a18.17 18.17 0 00-3.773-1.714.722.722 0 00-.046-.04 2.506 2.506 0 00-.321-.15c-.159-.064-.357-.068-.532-.07-.757-.183-1.545-.29-2.225-.377l-.917-.117a15.207 15.207 0 00-1.434-.094l-.11-.002-.116-.003c.245-.18.486-.367.726-.556.271-.213.562-.416.842-.613.144-.1.289-.202.432-.304.473-.342.945-.684 1.418-1.023l.184-.132c.235-.168.47-.336.703-.51l.158-.115c.175-.128.356-.26.521-.404.029-.024.058-.05.086-.076a1.47 1.47 0 00.482-1.027 1.066 1.066 0 00-.247-.74 1.464 1.464 0 00-.592-.427c-.335-.141-.713-.162-1.078-.182a7.689 7.689 0 00-.406-.013 1.435 1.435 0 00-.382-.219 1.01 1.01 0 00-.214-.42 1.018 1.018 0 00-.691-.344c-.256-.018-.489.06-.732.246a8.22 8.22 0 00-.623.522l-.46.067c-.173.027-.347.064-.52.1l-.248.052c-.08.014-.16.031-.24.049-.236.025-.473.053-.709.081l-.225.028a12.54 12.54 0 00-2.505.58.931.931 0 00-.55-.503l-.234-.047a.92.92 0 00-.468.091 7.184 7.184 0 00-.425.147c-.116.045-.226.106-.334.165l-.09.048c-.148.08-.295.166-.442.25l-.128.075c-.235.135-.472.273-.707.41l-.068.04c-.414.24-.76.442-1.102.656l-.716.448-.922.578c-.274.172-.545.359-.807.54l-.294.2-1.754 1.192a46.181 46.181 0 00-2.226 1.638 31.37 31.37 0 00-6.22 6.414 31.081 31.081 0 00-2.218 3.568.718.718 0 00-.549.166l-.025.022-.031.03-.034.033c.047-1.313.097-2.63.148-3.944l.013-.345c.042-1.104.095-2.205.155-3.271.053-.95.107-2.072.11-3.186.002-.362-.008-.755-.033-1.2a.879.879 0 00-.06-.882 8.453 8.453 0 00-.019-.224.92.92 0 00-.197-.95 2.032 2.032 0 00-.39-.67 1.11 1.11 0 00-.437-.285c-.175-.06-.337-.04-.516-.011-.129.02-.351.125-.457.217-.01.01-.022.02-.03.03z" fill="#161616"/><path d="M266.99 230.968a1.61 1.61 0 00-.448.159l.448-.16M204.971 188.7l-.015.062.015-.063m.42-27.234c-.032.571.046 1.136.108 1.7l.159 1.435c.102.928.218 1.854.325 2.78.102.884.17 1.773.251 2.66.035.36.036.725.053 1.085l.06 1.359-.031 1.459c-.007.39-.006.78-.027 1.169l-.188 3.51c-.058 1.044-.13 2.086-.193 3.13-.06.97-.161 1.942-.242 2.913-.05.589-.15 1.18-.24 1.763a27.19 27.19 0 01-.44 2.21c-.432 1.691-.948 3.363-1.444 5.037-.216.728-.426 1.458-.65 2.184l-.431 1.4c-.132.429-.266.85-.364 1.287a1.569 1.569 0 01-.043.124l-.042.048.006.002a.687.687 0 00-.14.341.702.702 0 00.628.784c.171.018.402-.03.53-.157.103-.104.202-.2.28-.326.083-.133.137-.269.188-.415l.028-.087.045-.062-.041.199c-.055.257-.085.515-.119.774-.07.539.256 1.065.759 1.254.293.108.624.098.914-.029l.28-.17a1.24 1.24 0 00.38-.515c.077-.15.111-.328.161-.49.076-.245.134-.495.197-.744l-.013.051c.072-.286.14-.572.21-.859.49-1.92 1.02-3.83 1.544-5.741.118-.429.227-.859.337-1.29.138-.546.283-1.09.394-1.644.097-.487.192-.97.267-1.46.072-.466.147-.93.215-1.396l.27-1.858c.056-.395.127-.789.168-1.185l.357-3.36c.028-.261.046-.524.061-.786.02-.174.04-.347.058-.52l.226-2.137c.036-.344.085-.69.106-1.034.06-1.001.142-2.005.179-3.007.038-1.046.077-2.092.109-3.14.061-2.036.1-4.073.144-6.11.003-.138 0-.275-.004-.412-.002-.086.01-.18-.013-.263a14.31 14.31 0 00-.123-.463c-.03-.108-.083-.208-.114-.316-.06-.222-.305-.412-.51-.488-.274-.103-.682-.074-.905.15a3.26 3.26 0 00-.421.483 8.338 8.338 0 00-.541-.938c-.327-.483-.792-.926-1.417-.934-.32-.005-.601.049-.862.258l-.034.03c-.215.186-.389.473-.405.757" fill="#161616"/><path d="M225.696 142.476c.032.171.131.33.272.436.123.093.321.168.47.132l.116-.028a56.82 56.82 0 01-.399.549c-.263.356-.525.713-.79 1.068-.263.352-.517.715-.791 1.06a1.165 1.165 0 00-.375-.111 1.996 1.996 0 00-.39-.014 1.14 1.14 0 00-.595.244c-.187.11-.33.276-.472.44-.606.627-1.175 1.294-1.75 1.948-.47.532-.94 1.062-1.41 1.596-.803.915-1.614 1.825-2.428 2.73l-1.43 1.509c-.458.483-.968.918-1.46 1.37-.243.223-.482.452-.735.664a28.04 28.04 0 01-2.334 1.765c-.802.542-1.639 1.032-2.473 1.524l-1.2.684c-.091.051-.181.104-.272.156-.162.078-.325.156-.485.236-.326.163-.634.354-.938.548-.17.137-.29.309-.364.518-.104.3-.084.644.055.947.281.617 1.062.997 1.66.719.355-.165.693-.364 1.032-.56.229-.11.458-.218.681-.337l.362-.191c-.682.635-1.378 1.256-2.065 1.885-.245.224-.408.487-.433.837-.023.333.087.677.305.947.217.27.531.452.863.5.316.048.686-.025.917-.236 1.124-1.03 2.252-2.054 3.347-3.116l3.075-2.985c.596-.578 1.222-1.137 1.78-1.756l2.48-2.746c.413-.459.828-.91 1.211-1.394.25-.317.505-.631.757-.947.125-.123.248-.247.371-.37 1.018-1.028 1.973-2.116 2.943-3.189.632-.698 1.21-1.446 1.802-2.178.322-.4.618-.824.927-1.235.256-.344.513-.688.767-1.036.284-.39.569-.78.846-1.175.138-.198.282-.395.405-.604.071-.123.141-.24.196-.375.075-.177.105-.362.14-.553.033-.182-.049-.53-.126-.701a1.94 1.94 0 00-.21-.33 1.293 1.293 0 00-.508-.382c-.246-.129-.53-.126-.79-.113-.12.006-.232.038-.348.066-.22.053-.416.12-.619.215-.305.145-.591.333-.878.511-.12.064-.24.128-.36.19a.761.761 0 00-.154.103.584.584 0 00-.198.565" fill="#161616"/><path d="M228.16 138.79c-.118.286-.191.59-.267.89-.081.325-.156.65-.234.976l-.05.195c-.028.01-.056.02-.084.032-.176.075-.333.18-.494.283-.167.106-.291.281-.42.43-.102.114-.176.273-.254.402-.234.388-.424.799-.615 1.209a18.33 18.33 0 00-.185.402 13.256 13.256 0 00-.185-.862c-.052-.205-.126-.374-.304-.503a.76.76 0 00-1.061.175c-.107.146-.184.376-.139.556.271 1.08.393 2.19.42 3.303.005 1.469-.168 2.927-.344 4.383-.095.776-.187 1.552-.283 2.327-.095.765-.187 1.53-.303 2.293-.062.413-.127.825-.194 1.237-.063.389-.147.773-.208 1.162a.88.88 0 00.188.659c.18.222.536.403.832.322.174-.047.344-.093.512-.16.181-.072.342-.225.484-.355.287-.263.52-.583.758-.888.458-.589.853-1.223 1.232-1.864a31.446 31.446 0 001.578-3.013l.91-2.009a29.575 29.575 0 001.65-4.715 75.219 75.219 0 001.655 2.208c.136.177.278.35.418.525.301.376.62.757 1.028 1.017.27.174.564.264.89.214.412-.062.829-.364.96-.77.05-.158.093-.316.115-.48.04-.293-.066-.602-.171-.87a1.844 1.844 0 00-.171-.312l.164.137c.762.63 1.517 1.267 2.292 1.882l.86.681c.167.132.33.277.506.4l1.346.937c.287.199.595.37.89.555.213.133.426.254.646.375.373.203.742.436 1.129.615l.954.444c.56.26 1.127.497 1.696.735.266.112.532.224.802.326.133.05.265.103.4.15a7.717 7.717 0 00.992.285c.26.168.529.318.816.448.487.22 1.108-.007 1.412-.425.124-.173.198-.365.222-.575.04-.34-.072-.61-.254-.885-.292-.441-.755-.734-1.156-1.07l-.586-.492.063.01c.68.106 1.271-.46 1.343-1.102.344.279.683.563 1.01.862.157.113.333.18.527.2a1.123 1.123 0 001.228-.985c.03-.263-.038-.62-.234-.814-.687-.678-1.423-1.3-2.165-1.915-.587-.485-1.169-.977-1.768-1.448a19.336 19.336 0 00-3-1.958c-1.11-.58-2.261-1.082-3.403-1.6a485.02 485.02 0 00-1.82-.818 35.366 35.366 0 00-1.57-.664 20.448 20.448 0 00-1.137-.399l-.324-.21a16.38 16.38 0 00-1.871-1.012 1.212 1.212 0 00-.611-.065 1.232 1.232 0 00-.806.491c-.125.174-.2.367-.226.578-.032.293.044.67.256.889l.042.042-.217-.116c-.222-.32-.455-.634-.708-.932-.326-.382-.791-.717-1.294-.84l.018-.22c.048-.616-.368-1.177-.997-1.244a1.17 1.17 0 00-.923.328 1.243 1.243 0 00-.679-.667 1.182 1.182 0 00-1.196.224c-.141.123-.257.28-.332.463m-25.031 56.114c.021-.327.045-.65.046-.976l.007-1.505c0-.53-.02-1.062-.045-1.591a14.936 14.936 0 00-.044-.7c.162.389.316.78.44 1.182.067.265.116.528.136.8a8.331 8.331 0 01-.113.973c-.057.35-.117.695-.195 1.042-.07.266-.148.53-.234.793l.001-.018m-1.488-8.511c.12.346.243.692.368 1.037.136.38.282.754.432 1.127a1.291 1.291 0 00-.718-.2c-.066-.547-.138-1.093-.206-1.639a.9.9 0 00-.007-.05l.13-.275m-6.442 3.406l.042-.137c.259-.068.49-.18.72-.312-.129.15-.261.296-.396.44-.17.173-.345.345-.524.512l.158-.503m-.728-13.558l.17-.079c.095-.043.188-.09.282-.137l.024.117a1.22 1.22 0 00-.476.1m-.947.43l.15-.15c.153-.042.306-.087.459-.14.098-.033.195-.075.29-.118-.258.126-.534.378-.607.658l-.047.177-.02.011c-.162.055-.325.105-.488.154-.147.04-.296.077-.445.113l.708-.706m-5.352.878c.262-.033.523-.07.783-.113.372-.06.742-.127 1.112-.196-.2.108-.402.203-.617.281-.15.03-.298.048-.451.058a9.445 9.445 0 01-.827-.03m3.39-13.705c-.28.386-.44.836-.614 1.274l-.204.509c-.139.347-.276.695-.416 1.041a213.33 213.33 0 01-1.05 2.526c-.127.302-.262.601-.394.9-.148.334-.287.673-.446 1l-.62 1.275c-.14.287-.297.565-.449.845a13.09 13.09 0 01-.661 1.055c-.172.246-.36.48-.55.712-.22.27-.445.537-.677.798-.3.285-.64.525-.988.748a8.669 8.669 0 01-.445.23c-.372.18-.765.358-.99.727-.223.37-.283.739-.138 1.148.11.31.342.538.608.722.258.18.557.315.847.436.232.1.478.178.718.254.623.195 1.24.396 1.878.54.553.125 1.126.161 1.693.164.659.006 1.319-.04 1.972-.134 1.068-.157 2.114-.503 3.107-.933.01.4.02.798.028 1.197 0 .29 0 .578-.002.867-.027.501-.06 1.002-.092 1.502a58.78 58.78 0 01-.218 2.563 30.85 30.85 0 01-.422 2.073c-.256.93-.5 1.864-.781 2.787-.102.332-.201.664-.302.996l-.032.07a9.76 9.76 0 01-.101.171c-.057.093-.12.183-.177.276-.205.325-.301.688-.236 1.07.005.029.01.056.017.084a.423.423 0 01-.007.022c-.036.12-.069.238-.109.356-.083.245-.104.43-.089.685.02.358.23.744.545.928.248.145.547.277.844.202.186-.047.341-.1.51-.18.563-.266 1.084-.614 1.599-.961.399-.267.794-.543 1.187-.818.457-.32.914-.642 1.37-.965.76-.542 1.389-1.258 1.95-2.002.18-.24.332-.504.484-.766.053.598.091 1.196.103 1.798.006.943-.017 1.885-.06 2.828-.027.608-.044 1.217-.084 1.824-.042.637-.082 1.275-.134 1.912-.042.508-.072 1.027-.167 1.53a1.18 1.18 0 00-.046.528c.025.174.086.325.175.46-.05.401-.091.804-.129 1.208-.036.376-.091.765.067 1.125.104.238.23.443.445.597.175.128.437.225.654.248.58.062 1.052-.308 1.471-.66.193-.16.387-.323.58-.487l.016-.002a.95.95 0 00.45-.093c.203-.065.37-.183.551-.293.083-.063.16-.133.231-.21.153-.152.295-.312.435-.474.43-.501.763-1.085 1.08-1.658.65-1.173 1.154-2.404 1.675-3.634.072-.17.124-.349.185-.521l.286-.805c.14-.394.263-.794.393-1.19.114-.352.225-.703.332-1.057.151-.5.313-1.005.396-1.522.087-.538-.275-1.08-.77-1.267-.61-.23-1.35.084-1.579.71-.117.32-.204.653-.3.982a3.811 3.811 0 00-.07-.41 7.88 7.88 0 00-.373-1.174c-.23-.58-.536-1.128-.814-1.685-.471-.95-.925-1.908-1.41-2.85a23.91 23.91 0 00-.602-1.098c-.211-.36-.413-.725-.665-1.058-.29-.386-.896-.297-1.131.075a1.102 1.102 0 00-.137-.062c-.409-.154-.827-.062-1.176.189-1.011.727-1.846 1.68-2.738 2.544a3.802 3.802 0 01-.285.246l.238-.916c.163-.618.282-1.248.419-1.871.111-.506.168-1.026.247-1.538.187-1.207.174-2.456.01-3.662-.03-.218-.062-.435-.097-.651a.501.501 0 01.018-.012c.386-.264.793-.536 1.089-.905.328-.41.286-1.04-.03-1.435a1.177 1.177 0 00-.793-.432c-.296-.031-.536.053-.776.197l-.01-.038c-.049-.186-.1-.37-.153-.554-.05-.179-.092-.387-.229-.52-.159-.156-.29-.304-.505-.387a1.42 1.42 0 00-.644-.066 3.34 3.34 0 00-.84.26c-.159.07-.318.138-.478.203a.922.922 0 00-.848.295c-1.095.23-2.203.368-3.306.555-.15.025-.301.05-.452.073.411-.596.787-1.219 1.15-1.845.867-1.497 1.65-3.06 2.195-4.704.218-.655.389-1.328.572-1.993.09-.33.17-.663.251-.997.108-.454.23-1.001 0-1.432a1.158 1.158 0 00-.947-.696 1.193 1.193 0 00-1.082.483m-9.392-.117a3.856 3.856 0 01-.04.043l.04-.043m2.597-4.495l-.007.026-.003.013.01-.039m3.028-3.032a40.76 40.76 0 00.195-1.91c.098.53.206 1.058.32 1.585-.13.37-.275.733-.415 1.1l-.34.885-.014.038c.103-.564.18-1.128.254-1.698m29.845-38.738l.002.058c0 .055.002.11.003.164l-.005-.222m-.042-1.946l.004.194-.004-.194m-13.167 9.577l.17-.103-.17.103m10.854-15.198l.044.073-.044-.073m-22.215 17.49c-.504.705-.93 1.456-1.368 2.2-.339.574-.605 1.194-.898 1.791-.226.465-.43.94-.64 1.412a64.166 64.166 0 00-1.242 2.97l-.364.942c-.087.225-.15.464-.224.693-.162.512-.32 1.018-.456 1.537a161.444 161.444 0 00-.904 3.599c-.122.516-.262 1.035-.349 1.56-.092.56-.184 1.122-.271 1.685-.172 1.1-.343 2.202-.44 3.312-.049.555-.101 1.107-.136 1.662-.035.565-.069 1.128-.109 1.692-.08 1.13-.154 2.265-.3 3.39-.076.585-.15 1.167-.258 1.748-.092.49-.193.974-.301 1.46-.158.578-.313 1.175-.572 1.718-.317.535-.658 1.057-.996 1.579a9.92 9.92 0 01-.982 1.294l-.098.1c-.11.112-.218.215-.307.342-.154.22-.192.376-.246.635-.073.35.052.762.274 1.04.294.365.815.592 1.28.516.754-.123 1.43-.534 2.048-.965.68-.474 1.27-1.079 1.834-1.682.491-.527.887-1.144 1.258-1.758a22.56 22.56 0 001.168-2.24c.3-.653.554-1.324.81-1.996a.983.983 0 00.167-.18c.144-.2.237-.497.189-.748.076-.2.127-.413.19-.617.173-.558.359-1.113.518-1.676.166-.584.329-1.17.496-1.755.088-.31.148-.632.222-.945.064-.277.148-.555.195-.837.143-.832.305-1.662.418-2.497.124-.915.246-1.83.374-2.746.12-.863.212-1.735.382-2.59.195-.987.39-1.974.587-2.96.218-.844.442-1.686.661-2.53.198-.755.423-1.499.647-2.247.252-.842.514-1.678.779-2.516.065-.205.132-.409.2-.613l.346-.37a103.316 103.316 0 013.065-3.04c.236-.225.472-.448.707-.674.13-.126.263-.249.399-.369.341-.22.675-.45.995-.698.316-.245.62-.504.916-.771.641-.451 1.303-.873 1.958-1.305.813-.486 1.63-.96 2.455-1.426l1.308-.734c.188-.104.375-.21.565-.31.125-.066.25-.132.376-.194a5.34 5.34 0 01.272-.122c.234-.096.38-.253.535-.443.262-.32.287-.82.126-1.191a1.233 1.233 0 00-.713-.666 18.053 18.053 0 001.54-1.599c.239-.283.492-.559.71-.86l.955-1.314c.213-.294.4-.607.597-.91.205-.315.41-.63.607-.952.434-.71.863-1.421 1.283-2.141l.216-.37c.001.986-.03 1.972-.048 2.957-.007.419-.017.837-.01 1.255.009.598-.008 1.203.028 1.8.032.518.063 1.037.093 1.556a16.2 16.2 0 00.489 3.193c.18.68.393 1.353.664 2.001.073.175.154.343.244.51.098.18.198.323.335.47.175.186.304.27.53.383.263.131.57.165.855.103.38-.082.64-.315.872-.619a.837.837 0 00-.648-1.32c-.042-.105-.082-.211-.123-.317-.056-.146-.12-.29-.168-.44-.132-.395-.268-.788-.388-1.186a16.587 16.587 0 01-.501-3.09l-.108-1.552-.037-1.677.001.06c-.01-.551.016-1.107.024-1.657.008-.552.022-1.103.032-1.653a29.3 29.3 0 00-.042-2.156 3.74 3.74 0 00-.248-1.133c-.074-.198-.213-.38-.332-.551a.979.979 0 00-.154-.168.82.82 0 00-.306-.256l-.253-.138a1.123 1.123 0 00-.56-.063c-.164.005-.317.06-.473.109-.313.098-.592.396-.785.644a6.02 6.02 0 00-.413.628c-.543.917-1.086 1.835-1.644 2.744-.58.946-1.158 1.895-1.808 2.793-.28.386-.562.77-.838 1.159-.127.179-.286.341-.428.509l-.416.497-.42.438c-.179.188-.377.36-.568.538-.424.397-.865.769-1.305 1.147-.268.23-.541.452-.818.671-.52.063-1.033.14-1.55.221a15.58 15.58 0 00-3.8 1.104c-.723.316-1.406.71-2.076 1.123-.697.427-1.337.937-1.97 1.45a18.304 18.304 0 00-3.384 3.593" fill="#161616"/><path d="M219.643 116.908c-.832.79-1.606 1.66-2.17 2.675a14.334 14.334 0 00-.771 1.676c-.098.246-.19.496-.285.743-.118.312-.19.644-.28.966a1.165 1.165 0 00-.038.392c-.245.287-.491.574-.732.865-.169.205-.34.41-.504.62-.235.297-.51.622-.603 1.001a1.208 1.208 0 00-.04.61c.059.323.25.626.517.826.177.133.37.215.581.247.294.045.662-.02.872-.223.348-.337.675-.688.977-1.07.28-.356.543-.729.824-1.086.567-.72 1.139-1.435 1.76-2.108a46.201 46.201 0 012.686-2.544 50.895 50.895 0 011.62-1.389c.253-.206.498-.434.766-.62l1.069-.742c.459-.32.945-.605 1.428-.89.09.074.193.136.307.185a1.088 1.088 0 001.467-.613l.182-.472c.032-.08.061-.15.098-.228.1-.216.1-.48.071-.722a1.187 1.187 0 00-.083-.319 80.67 80.67 0 001.467-1.214c.176-.15.38-.287.516-.479.094-.12.17-.251.228-.397.075-.222.057-.425.03-.661-.033-.3-.252-.606-.49-.785-.328-.245-.771-.32-1.126-.171-1.566.664-3.178 1.232-4.7 1.988-1.04.518-2.031 1.126-2.994 1.769-.61.405-1.185.859-1.738 1.338-.31.27-.614.549-.912.832" fill="#161616"/><g transform="rotate(-41 339.84 -152.255)"><mask id="b" fill="#fff"><use xlink:href="#a"/></mask><path d="M10.108.292c-.709.75-1.41 1.509-2.048 2.323-.652.836-1.191 1.756-1.84 2.596-.923 1.086-2.024 2.003-3.15 2.862a11.6 11.6 0 01-.982.646c-.388.224-.796.396-1.194.6-.555.285-1.031 1.017-.858 1.668.088.333.223.607.474.84.316.295.69.45 1.073.634.616.296 1.31.43 1.982.498a11.45 11.45 0 002.143.015c.997-.087 1.951-.332 2.916-.587.237-.063.474-.13.71-.202-.01.016-.02.03-.028.046-.306.51-.597 1.04-.93 1.533-.163.242-.317.499-.494.732l-.584.772c-.297.365-.594.734-.92 1.07-.412.428-.84.834-1.276 1.237-.43.4-.888.775-1.337 1.152-.375.316-.755.625-1.146.92a6.94 6.94 0 01-.5.323c-.397.23-.848.433-1.07.862-.154.297-.232.59-.155.927.069.306.257.576.515.745.122.08.328.211.451.235.2.038.393.08.596.089a5.32 5.32 0 001.031-.088c.3-.048.6-.096.9-.156a35.629 35.629 0 001.636-.388c2.13-.546 4.169-1.4 6.029-2.6a29.913 29.913 0 002.929-2.174c.712-.592 1.442-1.17 2.1-1.826.57-.563 1.076-1.212 1.554-1.855.297-.4.584-.808.874-1.212.379-.528.758-1.055 1.099-1.608.317-.518.17-1.22-.334-1.551-.516-.337-1.179-.163-1.515.342-.267.4-.55.788-.839 1.17-.467.616-.923 1.241-1.401 1.847a13.53 13.53 0 01-1.453 1.519c-.331.292-.677.57-1.018.85a54.825 54.825 0 01-2.17 1.721c-.648.462-1.313.895-2.003 1.288a18.18 18.18 0 01-2.294 1.086 20.15 20.15 0 01-1.106.366c.14-.124.279-.249.416-.376.411-.382.841-.761 1.207-1.188.82-.953 1.655-1.917 2.314-2.998.68-1.114 1.323-2.266 2.108-3.306.22-.244.449-.479.671-.72.124-.135.24-.276.355-.421.193-.246.233-.665.167-.953-.07-.31-.26-.59-.522-.761-.343-.225-.758-.238-1.132-.104-.147.052-.291.108-.437.163-.338.125-.68.244-1.021.363-.66.23-1.326.436-1.994.637-.975.295-1.97.564-2.98.694-.394.027-.79.025-1.185.02a8.76 8.76 0 01-1.015-.068l.3-.206c.681-.481 1.319-1.02 1.954-1.563 1.108-.95 2.103-2.01 2.908-3.241.21-.319.416-.638.631-.951.22-.323.45-.631.688-.94a50.071 50.071 0 011.607-1.789c.195-.206.321-.444.333-.737a1.082 1.082 0 00-.274-.763 1.071 1.071 0 00-.787-.34.923.923 0 00-.68.281" fill="#161616" mask="url(#b)"/></g><path d="M276.154 168.228l.083.018a.672.672 0 01-.083-.018m-.04-.058l.078.04a1.322 1.322 0 01-.078-.04m2.992-6.62c.074-.193.099-.391.072-.593l-.022-.087c.131.11.26.22.386.334.307.308.584.634.826.995.023.044.044.088.064.133-.067.168-.139.335-.204.504-.082.21-.162.423-.247.633-.193.48-.39.965-.625 1.427-.57.93-1.255 1.793-1.999 2.594a5.774 5.774 0 01-.81.643c-.084.045-.17.084-.258.118a.428.428 0 01-.022-.008 1.03 1.03 0 01-.024-.019 3.63 3.63 0 01-.26-.334c-.325-.562-.626-1.14-.929-1.716.376.118.809.052 1.141-.215.53-.427.602-1.18.21-1.697a74.243 74.243 0 01-.42-.56 12.743 12.743 0 001.067.81 1.227 1.227 0 001.462-.057 1.24 1.24 0 00.455-.812c.037-.29-.037-.666-.245-.88a14.207 14.207 0 00-.477-.465 1.37 1.37 0 00.487-.245l.034-.029c.15-.13.263-.287.338-.473M261.594 150.8c-.11.279-.108.593.006.865.127.3.351.475.638.61.853.396 1.74.726 2.61 1.087.307.127.614.256.92.385.16.087.32.176.477.266a.79.79 0 00-.377.757c-.198.409-.152.903.13 1.258.174.22.346.436.565.616a4.8 4.8 0 00.518.367c.2.124.4.245.598.37l.35.223c.105.134.21.27.313.406.657.858 1.25 1.762 1.825 2.678.24.511.537 1.005.87 1.467a149.86 149.86 0 012.539 4.575c.236.448.47.895.713 1.339.31.564.63 1.193 1.16 1.578.902.657 2.132.095 2.938-.504a6.03 6.03 0 00.636-.574c.244-.243.48-.492.714-.744.342-.37.657-.766.958-1.168.237-.316.456-.64.64-.99.152-.29.285-.586.42-.883.215-.468.403-.946.61-1.416.05-.114.1-.229.153-.342.08-.175.158-.404.18-.591a1.678 1.678 0 00-.04-.565c-.099-.421-.297-.757-.519-1.122-.216-.357-.501-.673-.79-.97-.527-.544-1.125-1.012-1.734-1.46-.652-.48-1.33-.923-2.019-1.348-1.366-.845-2.784-1.604-4.218-2.333a43.26 43.26 0 00-.967-.475 3.583 3.583 0 00-.1-.204c.035-.15.066-.3.1-.45.08-.355.14-.73.178-1.091.028-.262.052-.52.068-.783.017-.259-.031-.494-.195-.698a.93.93 0 00-.636-.342.994.994 0 00-1.067.856 11.69 11.69 0 01-.174 1.054c-.072 0-.14.005-.196.014l-.29.086c-.16.072-.298.172-.413.3a77.814 77.814 0 00-2.894-1.25l-.194-.08a28.433 28.433 0 00-2.103-1.004c-.544-.237-1.097-.437-1.69-.516a1.134 1.134 0 00-.88.287 1.194 1.194 0 00-.331.459" fill="#161616"/><path d="M255.25 128.356c-.314.436-.272 1.01.047 1.438a4.3 4.3 0 00.905.872l.014.01a1.144 1.144 0 00-.388.752c-.028.28.049.656.257.865.296.292.593.578.912.843.302.25.618.485.932.718.237.176.478.346.722.515l1.592 1.106a1.852 1.852 0 00-.342.045 1.119 1.119 0 00-.962 1c-.019.2.011.393.092.578.053.09.106.177.16.265.13.162.292.28.485.357.279.152.557.303.836.453a1.04 1.04 0 00-.796 1.176c.046.296.206.513.429.703.072.061.151.115.234.162l-.005.048c-.04.403.142.777.414 1.062.032.3.193.572.438.763.287.222.572.442.877.639.173.112.351.218.521.336l.984.688c.433.302.849.63 1.271.944.526.395 1.053.787 1.579 1.182.387.29.76.602 1.136.905-.02.1-.028.206-.024.31-.18-.13-.364-.254-.55-.378a1.08 1.08 0 00-.763-.192 1.02 1.02 0 00-.813.65c-.11.225-.21.53-.148.782.08.33.182.603.377.884.152.22.328.41.512.602.209.219.4.45.595.68.614.726 1.28 1.41 1.917 2.115.673.749 1.36 1.487 2.023 2.245 1.368 1.566 2.743 3.13 4.07 4.733.27.325.691.465 1.078.386.167.272.335.543.507.812.173.27.341.544.522.81.016.564.04 1.129.065 1.694.001.3-.012.597-.06.892-.013.04-.027.079-.042.118l-.032.026a22.144 22.144 0 01-1.296-1.818 5.528 5.528 0 01-.055-.101c-.161-.291-.35-.518-.67-.642a1.183 1.183 0 00-.89.01c-.599.257-.852.954-.605 1.554.278.68.61 1.339.927 2 .285.595.495 1.23.687 1.86.079.288.15.58.247.86.059.176.133.38.26.517.089.097.183.19.282.275.17.123.36.197.567.222.469.09.941-.091 1.282-.407.383-.354.674-.784.938-1.23.167.032.34.032.503-.002.267-.054.472-.152.667-.337.132-.109.238-.238.315-.39.084-.144.16-.293.226-.447.056-.121.09-.254.128-.383a3.6 3.6 0 00.147-.796 9.914 9.914 0 00-.005-1.276c.131-.325.259-.65.387-.975.05-.125.074-.255.076-.385l.133-.01c.264-.018.527-.2.677-.407.161-.227.2-.477.177-.75-.036-.403-.175-.797-.303-1.18a11.62 11.62 0 00-.303-.804 27.743 27.743 0 00-.72-1.597c-.282-.57-.583-1.128-.881-1.69a13.506 13.506 0 00-1.113-1.777c-.56-.742-1.263-1.373-1.936-2.01-1.32-1.253-2.7-2.44-4.087-3.615l.003.002 1.117.633c.406.231.773.525 1.194.73.256.126.526.205.81.236.361.041.627-.105.915-.288.07.057.14.114.204.175l.99.938c.222.217.439.44.67.646.213.193.434.347.68.497.168.122.353.194.559.22.276.032.655-.038.856-.244.099-.102.21-.193.284-.313.146-.238.286-.566.202-.857-.05-.174-.084-.346-.176-.502-.11-.188-.22-.373-.337-.555-.169-.261-.37-.503-.564-.746a37.73 37.73 0 00-1.067-1.268c-.75-.863-1.494-1.735-2.265-2.58-.37-.406-.74-.814-1.112-1.218a1.154 1.154 0 00-.041-.068 1.15 1.15 0 00.077-1.053c-.12-.285-.285-.492-.499-.708-.104-.105-.202-.217-.304-.326-.179-.191-.361-.378-.542-.567a39.449 39.449 0 00-1.267-1.255c-.734-.7-1.467-1.399-2.205-2.094l-1.654-1.56a75.77 75.77 0 00-2.338-2.092 51.296 51.296 0 00-3.83-3.012 76.644 76.644 0 00-1.927-1.325 56.05 56.05 0 00-2.162-1.358c-.241-.146-.478-.232-.764-.192a1.03 1.03 0 00-.564.272c-.244-.12-.49-.236-.736-.352l-.167-.081c-.394-.193-.886-.066-1.207.213-.066.057-.124.12-.173.189" fill="#161616"/><path d="M279.002 151.536c.021.113.038.227.051.34l-.092-.002a1.18 1.18 0 00.041-.338m-.265-.744a1.86 1.86 0 00-.546-.492l-.237-.139a50.518 50.518 0 01-.312-.185l.892.236c.113.245.218.493.31.746a1.375 1.375 0 00-.107-.166m-4.732-3.555l.013.046-.001-.002a.317.317 0 01-.012-.044m-16.81-20.659l.2.278.03.095-.36-.179c.041-.066.085-.13.13-.194m-3.299-3.39c.479.285.898.643 1.303 1.022.144.141.284.285.421.432-.122.162-.243.324-.361.489-.064.088-.123.18-.182.27a15.808 15.808 0 01-.421-.637c-.293-.504-.57-1.024-.76-1.576m-.065-.519l-.02.078a.779.779 0 01.02-.078m-6.294 2.483a2.68 2.68 0 01.112-.085 3.7 3.7 0 01.447-.203 2.09 2.09 0 01.11-.017c.068.005.136.011.203.02a1.19 1.19 0 00.103.72 7.853 7.853 0 01-.842-.35 4.037 4.037 0 01-.133-.085m-.243-.205l.02.033a.563.563 0 01-.02-.033m-2.41-1.729l.031-.024c.105-.052.212-.095.322-.135a4.13 4.13 0 01.58-.086c.195.007.388.027.58.057a6.95 6.95 0 00-.267.173c-.226.154-.406.37-.588.572a1.37 1.37 0 00-.17.262 7.12 7.12 0 00-.048.09 9.315 9.315 0 01-.089-.134 5.717 5.717 0 01-.351-.775m-1.91-1.382c-.114.133-.206.32-.28.47a1.563 1.563 0 00-.121.317c-.068.261-.103.438-.076.71.023.23.094.447.162.667.171.57.469 1.08.786 1.578.171.267.366.521.57.769-.173.07-.343.142-.519.203-.263.091-.483.352-.58.604a1.09 1.09 0 00.015.81c.052.127.099.256.145.384-.203.19-.418.428-.523.687-.109.272-.126.55-.167.834a.609.609 0 00.133.457c.149.186.35.234.577.226l.05-.002c.187-.001.372-.004.557-.036.275-.047.542-.165.794-.28l.175-.08c.237.139.475.275.71.417.54.322 1.1.617 1.661.898.557.278 1.118.55 1.687.8.489.215.992.367 1.502.521.285.086.571.16.862.224.268.057.551.055.824.027a1.36 1.36 0 00.6-.214l.046-.018c.41-.172.686-.488.838-.897.143-.39.07-.816-.097-1.181-.127-.278-.332-.494-.536-.715a7.904 7.904 0 00-.574-.554c-.188-.167-.377-.335-.566-.5a5.895 5.895 0 00-.307-.25c.442.067.885.085 1.333.092.539.008 1.08-.008 1.611-.108a3.86 3.86 0 00.293-.068c.212.247.425.492.638.737.4.461.807.916 1.247 1.34.275.265.55.525.86.752.264.193.553.354.827.534.276.181.6.255.908.204.18.583.376 1.158.57 1.737l.37 1.11c.189.565.428 1.124.688 1.66.125.257.233.517.398.753.201.287.477.52.82.62a1.198 1.198 0 001.17-.186c.306-.245.528-.705.435-1.103-.229-.975-.505-1.94-.758-2.907l-.395-1.525.698.436c.307.192.603.403.902.606.422.287.844.575 1.267.86a1305 1305 0 002.436 1.656c.336.228.674.451 1.01.68.372.25.757.489 1.12.752.75.542 1.503 1.084 2.213 1.678.678.567 1.35 1.138 2.018 1.713-.225.028-.44.118-.62.26a1.24 1.24 0 00-.36 1.438c.08.19.154.383.24.57.13.284.322.552.504.806.248.343.535.671.822.983l.842.914c.325.353.656.697.99 1.04l.276.411.05.073c-.851-.239-1.697-.494-2.552-.716l-.322-.08c-.334-.082-.637-.186-.985-.15a1.267 1.267 0 00-.683.266 1.48 1.48 0 00-.43.574l-.03.078c-.075.2-.098.404-.07.615.01.19.073.385.158.557.181.374.47.636.775.906.153.134.307.265.465.392h-.013c-.524-.038-1.107.245-1.275.779a2.057 2.057 0 00-.105.452c-.026.346.067.615.26.897.204.297.498.453.807.612.515.283 1.032.561 1.568.809.435.202.89.362 1.347.5.299.09.593.182.896.25.233.052.466.122.702.159.578.087 1.15.175 1.736.172.295-.001.6 0 .891-.065.43-.097.824-.276 1.105-.63.484-.611.553-1.402.474-2.149a4.736 4.736 0 00-.161-.774l.05-.01h.014c.382.013.773.01 1.142-.09l.301-.085c.143-.047.275-.119.395-.212.16-.1.274-.241.4-.378.117-.129.261-.499.27-.67a2.46 2.46 0 00-.014-.465c-.056-.37-.204-.724-.358-1.062-.405-.888-.908-1.741-1.538-2.487a53.446 53.446 0 00-1.924-2.133 28.362 28.362 0 00-2.121-2.05c-1.47-1.27-2.927-2.55-4.422-3.792a40.63 40.63 0 00-2.186-1.67c-.694-.499-1.42-.955-2.127-1.435l-2.55-1.737-1.046-.713c-.359-.245-.71-.506-1.078-.736l-1.397-.877-.76-.478c-.102-.063-.202-.133-.307-.192l-.529-.29-.261-1.058c-.231-.93-.45-1.864-.717-2.785a25.934 25.934 0 00-.605-1.85 5.628 5.628 0 00-.415-.861 4.092 4.092 0 00-.335-.503c-.123-.155-.273-.291-.412-.434a6.056 6.056 0 01-.101-.11c-.213-.232-.456-.39-.778-.425-.278-.03-.646.042-.853.25-.215.213-.43.41-.542.702-.02.053-.037.106-.05.161a10.834 10.834 0 00-.663-.562 5.245 5.245 0 00-.718-.46c-.28-.153-.557-.305-.857-.413a2.343 2.343 0 00-.942-.129c-.361.023-.663.185-.949.394-.142.105-.252.253-.372.381s-.212.322-.287.471a1.932 1.932 0 00-.208.789 20.3 20.3 0 00-1.045-.613 16.083 16.083 0 00-.979-.497c-.31-.143-.631-.26-.951-.38-1.184-.436-2.465-.74-3.717-.422a3.6 3.6 0 00-1.408.667l-.034.028c-.127.111-.236.246-.345.373" fill="#161616"/><path d="M279.411 151.504l-.027.028.027-.028m-.29-4.187l.027.089c-.01-.03-.018-.06-.026-.09m-.48-.626l.012.041c-.004-.013-.009-.027-.012-.041m-.908-2.136a.577.577 0 00-.133.45c.024.23.078.454.144.676.243.826.51 1.647.762 2.47l.172.567c.044.144.235.198.363.144.149-.065.185-.218.142-.361-.178-.589-.354-1.177-.53-1.766l-.188-.688c-.068-.246-.136-.49-.18-.74.04.057.08.115.118.176.325.572.532 1.202.717 1.831.127.451.23.907.342 1.361.047.194.097.387.145.581.001.132.004.263.007.394a1.462 1.462 0 00-.568-.195 1.951 1.951 0 00-.615.022 1.79 1.79 0 00-.768.367c-.233.186-.374.431-.51.69a1.63 1.63 0 00-.036.073.987.987 0 00-.869.173.958.958 0 00-.35.64c-.018.16.006.348.078.508a1.67 1.67 0 00-.094.414c-.024.216.026.431.055.644.025.186.063.37.097.556l.156.843c.097.51.195 1.022.3 1.53.113.541.225 1.083.344 1.623l.01.042-.035-.026a1.217 1.217 0 00-1.695.27l-.15.277a1.225 1.225 0 00-.066.612c.011.226.034.44.078.663.044.22.103.439.162.657.132.482.282.958.424 1.438l.096.346c-.19.038-.37.12-.52.242-.145.12-.28.226-.398.378a1.695 1.695 0 00-.247.449c-.044.115-.07.232-.084.349a1.205 1.205 0 00-.661.683c-.024.1-.049.2-.072.301-.023.213.008.418.092.614.158.515.408 1.005.625 1.498l.01.024a1.335 1.335 0 00-.208.149c-.202.166-.302.354-.407.587-.1.224-.085.464-.08.7.004.204.076.394.134.588.063.22.198.436.31.633.17.3.363.589.549.88.114.178.23.354.345.531.199.304.396.607.6.91l.781 1.159c.182.269.373.532.57.79.255.749.528 1.49.836 2.219.119.28.24.558.368.834a124.65 124.65 0 01.16.91 1.883 1.883 0 00-.604.017 1.836 1.836 0 00-.903.469c-.16.158-.264.27-.357.443-.214.005-.391.019-.605.112a1.83 1.83 0 00-.447.269c-.202.167-.305.358-.409.592-.128.295-.101.707-.075 1.015.028.319.133.636.238.936.182.523.492 1.013.813 1.459.154.213.335.405.526.588.27.258.53.488.853.677.079.046.158.09.237.132.14.157.296.3.456.44.132.115.301.18.455.261l.108.041c.138.039.278.073.418.104.176.029.37.042.546.02.175-.024.341-.079.51-.132l.097-.045c.125-.072.25-.146.375-.222a2.82 2.82 0 00.35-.292c.066-.066.13-.132.192-.199.1-.058.197-.124.29-.194.137-.104.288-.275.392-.396.081-.092.154-.185.224-.286.18-.253.317-.54.452-.818.268-.552.413-1.154.542-1.751.088-.406.143-.819.189-1.231l.284-.849c.256-.761.451-1.543.656-2.32.103-.394.207-.788.302-1.184.163-.677.344-1.355.428-2.046a4.36 4.36 0 00-.007-1.046c-.022-.175-.086-.342-.136-.51a1.592 1.592 0 00-.106-.215 45.784 45.784 0 00-.23-.383c-.14-.227-.296-.445-.44-.671l-.272-.429c-.04-1.733-.16-3.474-.443-5.187l-.134-.81a59.906 59.906 0 00-.009-1.345c.095-.176.11-.358.101-.567a25.064 25.064 0 00-.223-2.488c-.113-.787-.286-1.562-.459-2.336-.05-.222-.099-.443-.15-.664.013-.476.021-.953.028-1.43.014-1 .012-2.004-.058-3.003l-.05-.707c-.018-.25-.073-.502-.109-.75-.036-.252-.08-.502-.105-.755-.03-.311-.062-.618-.2-.906-.142-.291-.37-.547-.68-.666-.235-.09-.424-.076-.67-.073-.064.01-.125.024-.184.044l-.158-.576a8.68 8.68 0 00-.53-1.466 6.715 6.715 0 00-.35-.622 2.7 2.7 0 00-.565-.671 1.538 1.538 0 00-.273-.183.984.984 0 00-.28-.089.503.503 0 00-.254.047c-.062.037-.119.067-.17.112a.461.461 0 00-.045.045m-45.847 39.848a2.177 2.177 0 00-.091-.08c-.002-.002-.006-.002-.008-.005-.132-.138-.361-.29-.552-.31-.127-.014-.251-.033-.382-.032.393.125.734.238 1.033.427" fill="#161616"/><path d="M256.788 223.334a1.205 1.205 0 01-.04.043l.04-.043zm-.253.201zm5.986-9.438l.055-.033-.054.033zm-.16.096l.154-.092-.025.015h.002l-.102.06-.028.017zm-.149.09l.105-.062c.003-.003.006-.004.01-.006l-.115.069zm13.246-34.273a.493.493 0 01.018-.01l-.019.01zm-.417.14l.062.016-.062-.015zm-1.066-1.86a3.56 3.56 0 00-.404.42c-.128.156-.206.353-.301.53-.09.17-.11.375-.146.561-.049.239-.057.49-.074.732a17.86 17.86 0 00-.062 1.783c.008.3.059.596.098.894l.107.788c.074.537.128 1.076.193 1.614.058.5.148.998.242 1.492.196 1.017.303 2.049.48 3.068.109.622.228 1.248.296 1.875.067.627.108 1.251.135 1.881a68.1 68.1 0 00.114 1.96c.02.301.067.6.09.901.02.26.035.518.044.778.003.413-.002.823-.015 1.236-.013.44-.05.882-.07 1.321-.038.845-.008 1.688-.008 2.533 0 .44-.01.879-.024 1.318-.013.458-.08.91-.143 1.364a26.53 26.53 0 01-.458 2.31c-.227.802-.578 1.576-.96 2.317a5.34 5.34 0 01-.487.707c-.29.226-.603.424-.914.621a5.686 5.686 0 01-.974.438 7.99 7.99 0 01-1.476.2 26.871 26.871 0 01-1.422-.049c-.516-.034-1.03-.099-1.545-.153a49.359 49.359 0 00-1.655-.145c-.243-.019-.486-.04-.73-.056a7.058 7.058 0 00-.975.023c-.277.02-.556.077-.826.141-.44.104-.802.286-1.177.534-.336.223-.687.478-.902.824-.232.374-.37.799-.528 1.208-.203.526-.389 1.06-.579 1.59-.07.195-.14.388-.205.584-.095.288-.212.575-.286.868-.24.965-.486 1.929-.713 2.897l.07-.298c-.136.52-.272 1.04-.412 1.56-.163.6-.312 1.23-.577 1.797a3.248 3.248 0 01-.132.188c-.148.072-.3.133-.456.185a2.497 2.497 0 01-.3.047c-.656-.018-1.311-.13-1.952-.272a12.445 12.445 0 01-1.316-.448c-.464-.189-.92-.4-1.38-.596-.97-.415-1.924-.862-2.881-1.304a88.22 88.22 0 00-1.528-.693c-.46-.202-.912-.424-1.372-.625a39.18 39.18 0 00-1.52-.63c-.245-.096-.502-.165-.75-.246-.552-.18-1.125-.273-1.696-.355-.525-.076-1.052-.174-1.579-.223a21.28 21.28 0 00-1.684-.085c-.566-.009-1.13.016-1.696.034-.274.008-.551.055-.823.082-.387.04-.772.083-1.158.13-.42.055-.715.47-.653.883a.794.794 0 00.886.66 63.9 63.9 0 011.853-.195c.357-.036.72-.032 1.08-.036.678.022 1.35.052 2.024.137.291.036.58.094.87.146.445.08.892.158 1.335.253 1.12.297 2.165.798 3.192 1.33.97.502 1.936 1.007 2.903 1.515.927.488 1.865.957 2.813 1.404.45.21.892.451 1.354.632.474.186.95.333 1.443.457.581.146 1.17.255 1.768.31.243.022.477.032.723.024.314-.01.604-.089.905-.176.124-.037.25-.074.37-.122.106-.043.195-.086.299-.138a2.36 2.36 0 00.743-.584c.566-.643.793-1.5 1.028-2.308.145-.502.284-1.005.42-1.51.269-.99.51-1.987.763-2.981.073-.284.188-.564.281-.842.076-.225.157-.446.238-.67.184-.507.363-1.017.56-1.518.088-.225.17-.455.267-.676a4.25 4.25 0 01.363-.266c.074-.038.15-.07.23-.099.288-.059.578-.096.872-.12.46.012.918.061 1.377.096.502.037 1.003.092 1.503.145a42.69 42.69 0 001.573.142c.252.016.506.018.76.022.523.007 1.044.005 1.564-.06.717-.09 1.433-.268 2.084-.578.432-.206.832-.484 1.234-.74.114-.073.224-.152.336-.229.294-.202.533-.459.756-.736.398-.493.673-1.087.94-1.657.173-.371.352-.74.503-1.12.196-.495.298-1.022.42-1.538.12-.504.22-1.012.308-1.523.094-.54.178-1.076.219-1.623.039-.54.046-1.082.045-1.624 0-.529-.01-1.057-.015-1.585-.006-.528.029-1.056.05-1.582.023-.489.068-.972.064-1.461a29.593 29.593 0 00-.066-1.918c-.02-.265-.055-.53-.082-.796-.03-.282-.042-.565-.061-.849-.036-.495-.049-.992-.073-1.487a24.341 24.341 0 00-.303-2.785c-.156-.94-.315-1.877-.469-2.816a34.92 34.92 0 00-.252-1.334c-.098-.476-.162-.96-.226-1.442-.062-.459-.118-.917-.187-1.376-.066-.442-.154-.894-.186-1.342.008-.358.022-.716.037-1.073.01-.219.018-.438.035-.656.157.19.305.388.453.583.326.434.98.487 1.39.158a.982.982 0 00.362-.662c.03-.282-.066-.496-.214-.728-.222-.347-.437-.705-.707-1.017-.248-.288-.528-.47-.868-.632-.166-.081-.362-.103-.54-.143a1.457 1.457 0 00-.663.023c-.223.06-.444.117-.625.274l-.004.003z" fill="#161616"/><path d="M275.256 181.172c-.085.122-.095.254-.08.406.016.174.03.347.05.522.028.235.09.472.144.704.079.33.163.662.264.988.11.347.217.694.325 1.04.186.598.373 1.194.56 1.79.213.68.425 1.358.64 2.036.109.345.223.69.339 1.035.126.374.25.747.412 1.113.08.178.236.327.414.402a.69.69 0 00.691-.077c.16-.116.274-.3.287-.51.012-.21-.043-.4-.104-.605-.073-.242-.16-.483-.241-.724a72.828 72.828 0 00-.361-1.042.593.593 0 00-.32-.326l-.05-.138a.488.488 0 00.201-.255.6.6 0 00-.027-.415c-.342-.915-.682-1.83-1.023-2.747l-.397-1.067c-.246-.663-.45-1.338-.762-1.98-.115-.235-.357-.386-.604-.36a.503.503 0 00-.358.21" fill="#161616"/><path d="M259.145 226.798l.011.039a.59.59 0 01-.011-.04m17.646-45.685l-.02.083a.65.65 0 01.02-.083m-2.116-.614c-.059.141-.129.327-.138.474a3.805 3.805 0 00-.002.536c.019.257.066.508.108.761l.002.016a1.434 1.434 0 00-.1.082.835.835 0 00-.24.954c.117.3.233.596.368.888.112.246.236.485.355.727.036.235.07.471.093.707l.052.515a.927.927 0 00-.098-.058 1.917 1.917 0 00-.366-.183 1.126 1.126 0 00-1.104.176 1.14 1.14 0 00-.41 1.04c.06.47.165.934.274 1.395.104.433.207.866.315 1.296.242.962.498 1.917.759 2.873.127.466.252.93.376 1.396.032.349.06.698.086 1.048.077 1.011.154 2.023.228 3.035.034.457.046.917.069 1.374l.068 1.374.01.198a21.475 21.475 0 00-.19 2.064 297.734 297.734 0 01-.042 1.015l-.432 1.794a6732.842 6732.842 0 01-.76 3.154c-.11.452-.217.904-.327 1.355-.04.16-.082.318-.123.477a1.711 1.711 0 00-.203.002c-.293.017-.534.191-.714.412-.174.213-.24.481-.263.752a.443.443 0 00-.002.024c-.686.142-1.401.13-2.098.164-.562.026-1.121.093-1.683.118a9.411 9.411 0 01-1.746-.148c-.585-.17-1.155-.412-1.71-.657-.222-.098-.44-.204-.66-.304a5.19 5.19 0 00-.373-.15c-.134-.049-.34-.123-.464-.123-.141 0-.283.004-.425.008-.132.026-.262.06-.39.104a2.987 2.987 0 00-.598.264 2.37 2.37 0 00-.696.554c-.122.145-.203.303-.293.473-.188.353-.308.747-.448 1.122-.098.261-.202.52-.305.78l-.02.053a2.238 2.238 0 00-.444.723 3.033 3.033 0 00-.086.37.714.714 0 00-.01.103c-.118.12-.21.264-.287.427a15.46 15.46 0 00-.648 1.644c-.173.51-.352 1.02-.512 1.536-.168.546-.337 1.092-.498 1.64l-.22.752-.105.37c-.06.214-.132.421-.175.64-.042.216-.025.432-.02.652 0 .027.004.054.008.082l-.206.76-.028.108c-.177.12-.32.29-.4.502-.148.39-.237.794-.024 1.185l.06.105a8.24 8.24 0 00-.057.512c-.015.189-.002.381.01.569l.021.083c.03.128.067.254.112.378.101.291.388.533.667.64.382.145.86.086 1.174-.187a2.06 2.06 0 00.54-.742c.037-.083.076-.164.11-.248.079-.195.153-.393.227-.59.157-.422.3-.85.447-1.273.255-.733.506-1.466.744-2.203l.83-2.569c.18-.55.359-1.1.537-1.652.27-.832.56-1.674.945-2.463.045.037.09.073.137.108.303.235.61.477.94.673.423.252.856.476 1.3.691.633.309 1.266.624 1.921.885a8.69 8.69 0 001.78.488c.636.105 1.293.087 1.934.03a5.382 5.382 0 001.736-.459c.33-.15.64-.355.94-.554.265-.176.496-.397.723-.616.93-.894 1.797-1.848 2.4-2.997a8.453 8.453 0 00.603-1.569c.106-.361.164-.692.142-1.066a1.537 1.537 0 00-.117-.51c-.049-.1-.104-.193-.156-.29a2.072 2.072 0 00-.112-.185c.016-.066.03-.131.043-.197a1.204 1.204 0 00-.087-.6c.102-.07.191-.157.267-.26.117-.129.22-.276.284-.441.056-.145.087-.333.098-.492.022-.291-.03-.583-.066-.87-.031-.25-.032-.506-.045-.756a77.382 77.382 0 01-.06-1.249c-.04-.939-.071-1.877-.102-2.816.178.061.37.08.557.053.626-.095 1.09-.704.991-1.334-.061-.383-.105-.772-.191-1.152l-.136-.591-.242-1.063-.015-.133-.2-1.856c-.088-.821-.15-1.646-.217-2.471a382.078 382.078 0 01-.307-4.16c.084.128.174.252.275.367.23.266.625.325.908.098.243-.195.29-.495.183-.758a.177.177 0 01.008-.003c-.17-.313-.333-.628-.492-.947.217-.114.391-.308.48-.538.1-.258.08-.514-.014-.768l-.119-.413c-.155-.573-.294-1.152-.475-1.716-.189-.592-.358-1.192-.567-1.776-.434-1.208-.851-2.424-1.315-3.62-.143-.366-.517-.623-.902-.665a1.103 1.103 0 00-.846.27 1.2 1.2 0 00-.319.443" fill="#161616"/><path d="M240.82 220.516a1.02 1.02 0 00.001.766c.11.259.31.428.564.537l.539.231c.232.108.46.222.691.331l.48.225c.112.133.26.24.43.303.34.126.678.253 1.016.38.09.041.181.08.272.119l1.44.6c.484.23.966.462 1.445.697 1.589.78 3.168 1.578 4.752 2.368.154.088.31.175.47.256l.352.08c.212.018.383-.05.583-.11a1.018 1.018 0 00.575-.68c.167.041.333.083.5.123.42.099.843.23 1.277.26.042.003.085.003.127.001.209.042.418.081.628.119.334.06.665.123 1.001.17l.56.078c.486.069.98.073 1.47-.012.508-.087.878-.572.812-1.078a.9.9 0 00-.368-.615c-.207-.147-.434-.177-.686-.154a4.116 4.116 0 01-.101.01c-.575-.02-1.156-.15-1.715-.272l-.884-.191a1.35 1.35 0 00-.293-.172c-1.002-.439-2.04-.789-3.078-1.141-.938-.32-1.874-.633-2.82-.93a266.605 266.605 0 00-3.073-.953c-.475-.142-.952-.286-1.427-.427l-.99-.293c-.378-.11-.745-.269-1.133-.314l-.476-.209-.05-.023c-.515-.237-1.02-.512-1.56-.69a1.084 1.084 0 00-1.046.208 1.04 1.04 0 00-.285.402m-13.706-33.749c.141.318.351.6.552.882.142.196.282.393.421.59a22.7 22.7 0 01.884 1.546c.296.564.566 1.136.785 1.73.082.256.144.512.177.777.023.384.018.772-.032 1.149a2.52 2.52 0 01-.106.343c-.105.207-.22.41-.329.615a6.365 6.365 0 01-.67 1.02c-.289.306-.61.574-.958.81a4.368 4.368 0 01-.795.395 4.848 4.848 0 01-.96.14c-.407 0-.808-.057-1.216-.11-.17-.024-.34-.063-.508-.095a17.21 17.21 0 01-.6-.121 11.15 11.15 0 01-.687-.195 5.927 5.927 0 01-.791-.332c-.582-.314-1.144-.677-1.705-1.031-.27-.169-.614-.125-.782.138a.597.597 0 00.182.798c.503.32 1.005.644 1.514.953.466.282.956.52 1.464.7.371.131.749.235 1.128.327.456.11.912.211 1.372.303.508.102 1.022.088 1.528.059.587-.034 1.142-.26 1.643-.532a6.271 6.271 0 001.26-.888c.406-.375.723-.832 1.007-1.306.11-.185.212-.376.319-.564a3.98 3.98 0 00.31-.684c.046-.137.063-.29.087-.432a4.933 4.933 0 00.061-1.01c-.014-.434-.048-.862-.16-1.29-.096-.367-.243-.724-.385-1.079-.078-.194-.162-.386-.246-.578-.108-.244-.234-.484-.354-.723-.129-.25-.251-.507-.391-.752-.286-.497-.583-.98-.898-1.458l.009.014c-.23-.345-.438-.714-.729-1.012a.942.942 0 00-.382-.264.85.85 0 00-.647.02.775.775 0 00-.19.122c-.278.242-.345.657-.182 1.025m10.352-8.941c.332.4.66.805 1.006 1.192l.512.577c.397.446.842.85 1.295 1.237.47.4.98.762 1.509 1.08.37.222.76.405 1.148.588.394.183.795.33 1.212.44.3.082.606.146.911.194.352.056.699.048 1.05.036.436-.015.853-.153 1.262-.28.204-.063.413-.12.614-.192l.641-.228a7.22 7.22 0 001.584-.808c.879-.584 1.566-1.413 2.12-2.308.172-.276.347-.55.49-.844.143-.293.267-.594.394-.895.197-.472.29-.98.385-1.484.076-.4.135-.807.194-1.213.1-.668.17-1.342.13-2.024-.01-.18-.021-.36-.034-.541a6.709 6.709 0 00-.144-1.022c-.072-.32-.145-.639-.208-.96a23.188 23.188 0 01-.165-.926c-.053-.332-.128-.686-.277-.993a.898.898 0 00-.932-.493c-.349.058-.686.382-.67.761.013.288.067.568.112.853.037.247.072.494.117.74.047.261.102.522.158.782.077.36.17.719.217 1.082.019.302.035.603.043.905.01.358-.013.713-.048 1.067a28.879 28.879 0 01-.264 1.947 5.433 5.433 0 01-.269.955c-.077.191-.154.383-.236.572-.13.258-.283.501-.435.747a8.26 8.26 0 01-.662.94c-.322.354-.67.671-1.063.943-.797.476-1.677.772-2.562 1.057a4.863 4.863 0 01-.926.18 6.546 6.546 0 01-1.286-.149 9.161 9.161 0 01-1.774-.666 10.926 10.926 0 01-2.032-1.399c-.77-.711-1.445-1.517-2.116-2.32a.685.685 0 00-.957-.092c-.279.242-.287.668-.044.962m15.636 32.232l.1-.104c.36-.376.734-.766 1.117-1.134.22-.214.443-.427.666-.64.14-.131.284-.257.429-.383.085-.074.17-.148.253-.223l.135-.118c.407-.354.832-.688 1.233-.999.408-.317.853-.643 1.4-1.024l.284-.197c.529-.367 1.058-.735 1.591-1.094.393-.25.787-.499 1.181-.743.368-.229.766-.47 1.186-.683a20.11 20.11 0 011.29-.605c.333-.141.703-.282 1.163-.445l.142-.045c.148-.048.298-.096.448-.132.008.038.021.08.032.121.034.118.064.239.086.36-.04.025-.08.054-.12.083l-.061.045a78.53 78.53 0 00-.844.547l.02-.012c-.095.06-.188.123-.281.185l.043-.026c-.337.217-.676.43-1.015.644-.35.22-.699.44-1.044.667a73.733 73.733 0 00-2.538 1.766 37.823 37.823 0 00-2.465 1.943c-.61.53-1.206 1.107-1.731 1.616-.218.21-.437.42-.657.629-.484.462-.986.94-1.46 1.427l-.245.25c-.24.244-.49.497-.724.755-.192.212-.381.426-.564.644-.044-.142-.093-.285-.14-.427a3.083 3.083 0 01-.133-.582c.001-.081.008-.161.02-.243.037-.14.09-.28.172-.453.17-.322.383-.633.632-.922l.366-.412a.086.086 0 00.011-.017c0-.001.01-.014.008-.013l.028-.028-.004.006c.002 0-.01.016-.01.016m-7.632-1.125a2.884 2.884 0 01-.206.164 2.28 2.28 0 01-.289.15 1.09 1.09 0 01-.127.028l-.033-.005c-.249-.14-.481-.32-.706-.493l-.115-.089a.305.305 0 00-.044-.028c.083-.196.195-.46.32-.719.51-.972 1.134-1.884 1.621-2.57.464-.654.999-1.264 1.516-1.852.473-.525.9-.997 1.342-1.454.33-.34.684-.665 1.026-.978.139-.127.276-.253.413-.381.22-.205.444-.405.67-.602a36.119 36.119 0 013.393-2.592c.73-.459 1.526-.908 2.506-1.415.451-.234.917-.45 1.355-.65.442-.204.905-.392 1.376-.56l.157-.053c.511-.175 1.04-.355 1.577-.415.15-.004.3.012.44.03.082.018.16.038.24.068.192.106.36.243.53.385.148.133.294.279.445.445-.053-.007-.109-.008-.163-.012a1.074 1.074 0 00-.258-.022 4.938 4.938 0 00-1.368.272c-.565.195-1.05.393-1.48.605l-.101.05c-.91.45-1.852.914-2.718 1.476-.891.578-1.797 1.256-2.85 2.133-.1.084-.2.17-.298.255-.313.272-.618.554-.922.835l-.043.04a51.618 51.618 0 00-2.345 2.3c-.4.424-.797.85-1.193 1.277-.414.448-.787.853-1.151 1.278-.344.401-.68.818-1.028 1.273-.122.158-.24.318-.36.477-.254.341-.516.693-.797 1.022a4.061 4.061 0 01-.332.327m4.796-10.033c-.346.301-.689.619-1.02.926l-.354.327a21.66 21.66 0 00-1.367 1.355 88.978 88.978 0 00-1.552 1.745c-.814.941-1.58 2.037-2.339 3.35-.232.403-.41.736-.56 1.049-.124.26-.234.534-.34.799l-.072.177a.56.56 0 00-.01.385c-.175.339-.067.776.236.952.33.191.665.374 1 .557.492.268 1 .545 1.484.846.194.121.386.245.577.37.173.111.347.223.521.333l.32.2c.251.156.502.313.75.476.143.094.283.191.424.29.21.145.428.296.651.431.125.076.257.142.388.208l.164.083c.19.1.379.202.567.307.259.143.488.33.71.513.087.071.173.142.262.211.209.163.405.283.637.388.165.076.357.094.556.107.191.013.361-.016.587-.1a.914.914 0 00.282-.172c.13-.114.235-.257.31-.37.06-.088.117-.177.175-.266.072-.112.144-.225.22-.335.115-.167.253-.325.387-.479l.025-.03c.61-.67 1.198-1.279 1.797-1.863.682-.665 1.386-1.32 2.049-1.936.204-.189.411-.374.62-.557 1.253-1.088 2.613-2.07 3.78-2.886.268-.188.538-.374.808-.558.306-.202.614-.402.922-.602.435-.282.87-.565 1.3-.852.219-.145.43-.3.641-.456.125-.092.25-.183.376-.273l.135-.095c.126-.087.256-.177.373-.278a1.21 1.21 0 00.346-.455.607.607 0 00.045-.207.837.837 0 00.114-.316c.016-.085 0-.175-.015-.262l-.012-.078a2.116 2.116 0 00-.057-.26l-.013-.054a4.809 4.809 0 00-.044-.167.658.658 0 00.097-.29c.013-.15-.028-.36-.151-.472-.051-.046-.1-.094-.15-.142-.04-.04-.081-.08-.123-.118a27.13 27.13 0 00-.581-1.682 23.024 23.024 0 00-.793-1.783 18.154 18.154 0 00-.447-.871 8.496 8.496 0 00-.815-1.247 4.216 4.216 0 00-.276-.308l-.08-.083a6.745 6.745 0 00-.78-.681 2.082 2.082 0 00-.323-.21 2.625 2.625 0 00-.404-.175 1.458 1.458 0 00-.257-.048l-.096-.013a2.976 2.976 0 00-.78-.012c-.192.02-.387.064-.575.105l-.162.036c-.235.05-.47.126-.698.198l-.188.06c-.402.127-.768.251-1.121.38-.273.099-.546.215-.81.328l-.103.043a29.12 29.12 0 00-1.887.89c-.677.35-1.26.68-1.784 1.009-.616.387-1.205.814-1.75 1.219a31.35 31.35 0 00-1.523 1.197l-.224.192" fill="#161616"/><path d="M229.074 194.45l-.065.14a8.17 8.17 0 01.065-.14m-4.354 1.518l.075.015-.075-.015m-.212-.045l.073.015-.073-.015m-1.644 1.389c.022.01.044.022.067.034l-.067-.034m4.786-10.388c-.064.198-.073.497.05.682.187.284.364.575.566.848.153.208.307.413.454.624.18.308.31.645.43.98.073.233.14.466.201.702.06.233.084.468.102.705.02.355.038.71.056 1.065a5.91 5.91 0 01-.044.952c-.079.29-.2.564-.327.835-.014.03-.03.06-.043.09-.179.35-.422.672-.674.975a3.442 3.442 0 01-.468.36c-.26.167-.519.333-.803.452a3.117 3.117 0 01-.268.045c-.286-.003-.57-.04-.856-.065a8.923 8.923 0 01-1.197-.184l-.08-.017c-.305-.074-.59-.197-.882-.31-.28-.108-.566-.202-.853-.294-.645-.207-1.269-.471-1.896-.732-.455-.19-.988.11-1.133.552a.922.922 0 00.048.679c.112.23.298.375.528.472.476.198.954.394 1.426.6.34.149.685.285 1.02.445.367.189.735.382 1.128.505.425.133.857.245 1.293.328.355.066.718.111 1.076.145.651.06 1.317-.069 1.865-.417.417-.265.8-.559 1.154-.902.42-.41.67-.913.919-1.437.162-.34.241-.713.32-1.082a5.11 5.11 0 00.101-.613 3.89 3.89 0 00-.018-.768 9.291 9.291 0 00-.092-.637c-.046-.273-.065-.553-.094-.827-.026-.264-.044-.528-.079-.79-.036-.273-.106-.543-.168-.81-.14-.615-.275-1.243-.526-1.824-.096-.224-.187-.45-.281-.675-.103-.244-.182-.496-.285-.738-.194-.46-.786-.641-1.209-.44a.882.882 0 00-.461.522m24.205-10.2l-.043.092.043-.092m-14.543.623c-.007.19.061.432.207.573.677.658 1.346 1.323 2.02 1.981.31.306.618.617.936.915.161.151.323.29.506.41l.226.15c.147.094.295.184.435.287.146.107.29.217.443.315.217.14.448.255.68.361.322.145.652.26.977.393.288.12.574.248.864.36.182.071.375.11.564.15.155.034.315.062.472.081.391.05.78-.005 1.16-.064a7.897 7.897 0 001.228-.299c.336-.11.65-.258.962-.42a6.145 6.145 0 001.014-.644c.633-.517 1.157-1.17 1.677-1.799.23-.279.429-.588.63-.89.192-.291.38-.586.542-.897.28-.543.523-1.101.698-1.694.085-.292.15-.592.22-.89a8.81 8.81 0 00.165-.97c.062-.552.02-1.124-.007-1.682a44.943 44.943 0 01-.034-.82 12.83 12.83 0 00-.062-.941c-.021-.252-.044-.503-.067-.754a11.454 11.454 0 01-.029-.578c-.005-.25-.004-.509-.056-.758a.777.777 0 00-.662-.6.662.662 0 00-.732.636c-.009.235.045.478.075.714.028.207.054.413.09.62.064.379.127.755.175 1.135.013.231.007.462.001.692-.006.258-.012.515-.033.77-.038.48-.087.96-.158 1.434-.076.374-.177.741-.274 1.11-.1.379-.21.753-.366 1.11a8.948 8.948 0 01-.605 1.11c-.251.38-.524.745-.813 1.096-.48.522-.968 1.053-1.543 1.472-.478.284-.983.546-1.513.725-.23.062-.463.119-.7.156-.237.038-.472.09-.711.115a3.896 3.896 0 01-.644-.1c-.372-.095-.73-.26-1.095-.386-.405-.14-.815-.267-1.205-.452-.232-.132-.453-.28-.686-.412a14.26 14.26 0 01-.333-.195 3.877 3.877 0 01-.493-.352c-.953-.876-1.874-1.787-2.803-2.688-.16-.153-.32-.262-.54-.284a.729.729 0 00-.556.17.73.73 0 00-.247.528" fill="#161616"/><g fill="#161616"><path d="M280.359 122.951a.474.474 0 01-.043.02h-.002l.045-.02m-6.738-1.442l.097.043-.097-.043m-.978-1.594c-.086.322-.041.673.121.96l.188.253c.15.155.326.262.53.32l.045.02c1.04.467 2.076.942 3.105 1.434.161.078.32.163.478.25-.854.07-1.706.148-2.563.2-.624.04-1.253.068-1.87.179-.505.09-1.014.195-1.511.322-.31.079-.622.154-.928.249-.295.09-.636.217-.852.455a1.192 1.192 0 00-.228.312l-.116.286a1.235 1.235 0 000 .638c.056.313.29.583.544.74.217.133.455.166.7.157.071-.003.143.002.214.01.299.055.585.162.87.266.276.099.552.2.826.305.656.253 1.31.513 1.963.778.607.27 1.215.536 1.818.816.247.114.472.179.743.1a.97.97 0 00.577-.46 1.04 1.04 0 00.097-.771c-.06-.228-.226-.498-.443-.599a75.542 75.542 0 00-2.694-1.186c.613-.03 1.227-.047 1.839-.086 1.207-.078 2.411-.158 3.62-.211a9.27 9.27 0 00.763-.065c.173-.023.336-.035.498-.091a1.472 1.472 0 00.847-.692.778.778 0 00.13-.346c.061-.23.061-.46 0-.69-.047-.304-.263-.596-.467-.802-.212-.215-.482-.388-.733-.552a74.316 74.316 0 00-.866-.556c-.98-.623-1.978-1.216-3.02-1.724-.89-.433-1.8-.817-2.749-1.09a1.126 1.126 0 00-.31-.044c-.527 0-1.021.368-1.166.915m18.09-7.368c.011.013.022.025.032.039l-.032-.039m-14.263-9.495c-.385.1-.72.343-.922.668-.44.705-.154 1.562.553 1.989.57.343 1.23.574 1.856.815a75.492 75.492 0 016.12 2.836c.726.378 1.452.75 2.192 1.097-.137-.01-.273-.022-.409-.034-.7-.063-1.399-.14-2.098-.19-1.405-.103-2.81-.19-4.219-.24-.68-.024-1.366-.058-2.046-.04a64.7 64.7 0 00-2.202.089c-.35.02-.697.064-1.045.1-.254.025-.507.065-.76.1-.32.046-.621.1-.904.266-.264.154-.46.38-.543.664-.076.26-.06.63.12.856.145.185.258.333.482.44.14.067.27.11.415.15.158.045.316.084.475.122.404.094.811.189 1.21.298.831.225 1.659.446 2.497.645.933.222 1.86.452 2.785.7.843.23 1.654.53 2.464.844 1.179.486 2.335 1.024 3.49 1.558 1.236.57 2.377 1.32 3.484 2.085.207.143.54.157.777.095.252-.066.471-.224.603-.436a.906.906 0 00.102-.732c-.075-.259-.244-.415-.464-.568-1.206-.837-2.442-1.624-3.778-2.267-1.243-.6-2.492-1.202-3.77-1.737-.659-.278-1.333-.555-2.025-.754l-.154-.044c.351.022.703.046 1.054.071 1.427.106 2.849.252 4.272.391 1.34.133 2.687.208 4.03.3.29.02.58.036.87.046.129.005.256.006.384.007.356 0 .684-.058.999-.216.259-.13.523-.425.574-.703.042-.222.106-.471.013-.694-.14-.337-.288-.626-.583-.871-.404-.334-.884-.594-1.333-.871-.558-.346-1.187-.587-1.785-.866-.63-.295-1.238-.631-1.846-.965-1.175-.645-2.324-1.33-3.504-1.965a64.61 64.61 0 00-1.762-.917c-.592-.295-1.198-.563-1.8-.84a42.791 42.791 0 00-2.814-1.189l-.234-.093a1.657 1.657 0 00-.821 0m24.676-10.53l.01.075-.01-.075m-14.589-17.704l.199.256-.199-.256m-4.798-7.974c-.4.45-.65.95-.65 1.564 0 .463.166 1.05.5 1.42.074.106.165.218.281.352.13.148.261.266.414.387.242.194.48.392.711.597.495.44.97.9 1.441 1.365.887.875 1.68 1.822 2.478 2.775a426.182 426.182 0 003.186 4.068c1.085 1.364 2.241 2.668 3.383 3.985 2.043 2.358 4.136 4.67 6.175 7.031-.42 0-.841-.005-1.262-.01-1.407-.018-2.805-.137-4.204-.276-1.091-.11-2.165-.183-3.265-.114-.882.054-1.764.21-2.636.35-1.1.176-2.5.285-3.123 1.342a2.058 2.058 0 00-.016 2.038c.218.39.54.659.914.89.186.115.365.236.54.364.72.57 1.423 1.153 2.092 1.782.802.754 1.592 1.52 2.377 2.29.91.894 1.822 1.786 2.736 2.677.913.889 1.87 1.738 2.82 2.586.334.298.714.482 1.172.482a1.66 1.66 0 001.17-.482c.613-.61.673-1.731 0-2.33-1.01-.904-2.022-1.812-2.987-2.765-.948-.937-1.888-1.88-2.828-2.824-.741-.746-1.471-1.505-2.222-2.241.63-.018 1.261 0 1.897.056 1.596.229 3.192.476 4.799.612 1.584.132 3.188.26 4.778.171.962-.055 1.978-.183 2.694-.896.366-.364.527-.788.69-1.262.16-.466.084-1.043.004-1.51a3.236 3.236 0 00-.226-.736 8.002 8.002 0 00-.648-1.283c-.782-1.215-1.787-2.298-2.724-3.396-.968-1.132-1.964-2.24-2.948-3.358a625.144 625.144 0 01-3.83-4.392c-.488-.565-.98-1.124-1.444-1.71l-1.804-2.274c-1.092-1.424-2.163-2.88-3.393-4.19a47.862 47.862 0 00-1.948-1.956c-.31-.294-.635-.575-.968-.841-.209-.166-.432-.358-.641-.497a3.122 3.122 0 00-.825-.405 2.753 2.753 0 00-.918-.156c-.651 0-1.305.228-1.742.72"/><path d="M276.559 101.5a1.713 1.713 0 00-.268 2.065c.326.566.838 1.049 1.303 1.506a15.04 15.04 0 002.836 2.224c.52.312 1.069.574 1.61.848.51.259 1.032.495 1.544.748.437.215.869.438 1.299.663-.859-.047-1.717-.086-2.577-.111-.604-.017-1.213-.054-1.817-.046-.601.009-1.2.028-1.801.056-.655.03-1.31.062-1.963.102-.428.026-.854.052-1.28.092-.38.036-.76.093-1.134.167a1.272 1.272 0 00-.63.174 1.364 1.364 0 00-.494 1.868c.166.282.486.569.821.627.874.155 1.739.354 2.605.543.45.099.89.225 1.332.355.801.484 1.543 1.063 2.325 1.581 1.029.682 2.09 1.308 3.148 1.943a247.76 247.76 0 013.243 1.992c.532.33 1.067.656 1.598.987.304.19.605.385.909.578.538.342 1.069.673 1.741.482.5-.143.9-.53 1.038-1.031.149-.538-.03-1.027-.381-1.436-.177-.204-.393-.379-.589-.564-.194-.183-.386-.369-.58-.553-.458-.433-.913-.87-1.377-1.298-.447-.411-.912-.803-1.372-1.2a14.623 14.623 0 00-2.216-1.587c-.811-.467-1.685-.82-2.555-1.162.233.016.466.034.699.053.91.077 1.817.176 2.724.286a56.53 56.53 0 012.402.394c.298.054.602.118.904.139.274.018.53-.02.795-.09.342-.09.574-.296.837-.514.12-.14.23-.286.33-.44.134-.202.28-.716.253-.957-.02-.19-.045-.38-.075-.57-.1-.36-.322-.6-.548-.884a7.216 7.216 0 00-.306-.263c-.22-.182-.46-.354-.693-.523-.167-.122-.342-.233-.516-.347a38.638 38.638 0 00-1.758-1.091 56.217 56.217 0 00-1.865-1.022c-.517-.274-1.05-.516-1.572-.778-1.103-.556-2.202-1.109-3.206-1.827a15.43 15.43 0 01-1.072-.961 15.163 15.163 0 01-.866-.92 3.053 3.053 0 00-.706-.565 1.604 1.604 0 00-.845-.233c-.454 0-.91.178-1.234.5"/></g></g></svg>