<svg version="1.1" id="Layer_1" xmlns="http://www.w3.org/2000/svg" x="0" y="0" viewBox="0 0 500 600" xml:space="preserve"><style>.st0{fill:#bebebe}.st1{fill:#161616}</style><g transform="translate(211 98)" id="lookingdownshocked"><g id="Group-9" transform="translate(17 59)"><path id="Fill-5" class="st0" d="M1.6 4.5c-.4.4-.5 1.1-.5 1.7 0 .4.1.9.2 1.3s.4.9.9.9c.3 0 .5-.2.7-.4.4-.5.5-1.2.5-1.8 0-.4-.1-.9-.2-1.3-.2-.3-.5-.9-1-.9-.2.1-.5.2-.6.5"/><path id="Fill-7" class="st0" d="M.8 6c0 .5-.1 1-.1 1.5-.1.6-.1 1.2-.2 1.8-.1 1.1-.2 2.1-.2 3.2V17c0 1.6.1 3.1.2 4.7.1 1.8.3 3.5.6 5.3.3 1.6.5 3.2.8 4.8.3 1.9.8 3.7 1.3 5.5.4 1.4.8 2.8 1.3 4.2.5 1.5 1.1 2.9 1.6 4.3.7 1.6 1.4 3.3 2.2 4.8l1.2 2.1c.4.6.9 1.3 1.3 1.9.8 1.4 1.6 2.8 2.5 4.2.8 1.2 1.6 2.5 2.6 3.6.2.3.5.5.7.7.6.7 1.2 1.3 2 1.8.6.5 1.3.9 2 1.3 1.3.8 2.6 1.5 4 2.2.3.2.7.2 1 0 .6-.4.9-1.3 1-2 .1-.7.1-1.3 0-2s-.4-1.6-1-2c-1.1-.7-2.1-1.5-3.1-2.3-.4-.3-.8-.6-1.2-1-.7-.6-1.5-1.1-2.1-1.7-.4-.5-.9-.9-1.3-1.4-.4-.5-.8-1-1.1-1.5-.8-1.1-1.5-2.2-2.2-3.3-.3-.6-4.7-9.9-6.6-19.5C5.9 21.4 6.2 10.8 6.2 10c.1-1.5-.1-7.5 0-9 0-.6-2.8 3.9-3 3.4-.1-.5-.5-1.1-1.1-1.1-.4 0-.6.2-.8.5C.9 4.4.8 5.2.8 6z"/></g><g id="Group-49"><g id="Group-12"><g id="Fill-10-Clipped"><path id="Fill-10" class="st1" d="M41.9 43.8c.2 0 .3-.1.5-.1l.2-.1h.1c1.3-.3 2.6-.6 3.9-1.1l.5-.2.5-.2c.1 0 .1-.1.2-.1l-.2.2c-.3.5-.6.9-.9 1.4-.1.1-.2.3-.3.4-.2.2-.3.5-.5.7-.2.3-.4.6-.5.9 0 .1-.1.2-.1.3v.8c0 .4.4.8.8 1 .3.1.6.1 1 .1.1 0 .2-.1.4-.1h.1c.2-.1.5-.1.7-.2.6-.2 1.3-.4 1.9-.6h.1l.2-.1c1-.3 2-.7 3-1.2.9-.5 1.7-1.1 2.5-1.7l.5-.3c.5-.4 1-.8 1.4-1.2l.3 1.5c.2.5.3 1.1.6 1.7.1.2.2.3.3.5.1.2.3.3.5.5.2.1.5.3.8.3h.4c.1.5.3 1.1.4 1.5v.1c.4 1.4 1.1 2.8 1.7 3.9l.3.6.1.2c.2.3.4.7.5 1l.2.3c.2.4.5.8.7 1.3.1.3.3.6.4.9v.1c.4.8.8 1.7 1.2 2.5.6 1.1 1.1 2.1 1.6 2.9.2.3.3.6.5.9.4.6.7 1.2 1.1 1.9.5 1 1 1.9 1.4 2.9l.1.2c.2.4.4.8.5 1.3.2.4.3.9.5 1.3.2.9.5 1.7.8 2.6.1.3.3.6.4.9v.1c.1.2.2.4.4.7.2.2.3.5.5.7.2.2.5.5.9.5h.5c.2 0 .3-.1.4-.2.1-.1.3-.2.4-.3l.3-.3.3-.3c.2-.2.3-.3.4-.5l.1-.1.3-.4.4-.4c.5-.6 1.1-1.3 1.6-1.9.2-.3.5-.5.7-.7-.1.5-.1 1-.2 1.5 0 .3 0 .5-.1.8v.1c0 .3-.1.7-.1 1v.5c-.1 1.1-.2 2.2-.1 3.3.1 1.3.2 2.7.4 4l.1 1.3.3 2.7c.1.5.1 1 .1 1.5 0 1.1 0 2.1-.1 3h-.1-.1c-.3.1-.5.2-.8.3h-.1c-.3.1-.5.2-.8.2-.7.2-1.4.4-2.1.7-.5.2-1.1.5-1.6.9-.3.2-.7.5-1.1 1-.9.9-1.7 1.8-2.4 2.6-.4.4-.7.9-1 1.2-.3.4-.5.7-.7 1.2-.3.5-.6 1.2-.8 1.9l-.3.9-.1.2c-.1.3-.2.6-.4.9-.1.1-.2.3-.2.4l-.3.6c-.3.5-.5 1-.8 1.5-.3.5-.5 1-.7 1.5l-.3.6c-.1.2-.2.3-.3.5-.2.3-.4.6-.6 1-.2.3-.3.5-.5.8l-.3.6c-.2.4-.5.8-.7 1.2-.8 1.3-1.6 2.5-2.5 3.6-.3.3-.7.6-1.2.9-.2.1-.5.3-.7.4l-.2.1c-.3.2-.6.3-1 .4-.1 0-.2 0-.3.1-.1 0-.3 0-.4.1-.3 0-.5 0-.8-.1-.1 0-.1 0-.2-.1-.2-.2-.4-.5-.6-.7l-.3-.3c-.2-.2-.4-.5-.7-.7l-.1-.1c-.1-.1-.2-.2-.3-.2-.1-.1-.2-.1-.3-.2-.1-.1-.3-.2-.5-.2-.2-.1-.3-.1-.5-.1-.7-.2-1.4-.1-2.2 0-.2 0-.4.1-.7.1-.3.1-.6.1-.9.2h-.1c-1.4.3-2.5.6-3.6.9-.7.2-1.3.6-1.7 1.2-.1.2-.2.4-.3.5l-.1.1-.1.1c-.2.4-.5.8-.8 1.1-.3.3-.5.5-.8.7-.1.1-.3.1-.4.2-.1 0-.2 0-.3.1h-.3c-.2 0-.5 0-.7-.1-.1 0-.2-.1-.2-.1l-.9-.6c-.4-.4-.8-.9-1.2-1.3l-.3-.3c-.5-.6-.9-1.1-1.3-1.7-.3-.5-.5-.9-.8-1.4-.3-.6-.5-1-.8-1.5-.5-.8-1-1.7-1.5-2.5l-.3-.5c-.3-.5-.6-1-1.1-1.5l-1.3-1.3c-.4-.4-.9-.7-1.4-1.1-.4-.3-.9-.7-1.5-1-.3-.1-.7-.2-1-.2h-.6c-.2 0-.3.1-.5.1-.4.1-.9.3-1.3.5-.3.1-.5.2-.8.4l-.1-.2c-.2-.7-.4-1.3-.7-2-.6-2.1-1.1-4.1-1.6-6.3-.3-1.2-.6-2.4-.8-3.4-.2-1-.4-2.1-.5-3.1-.2-1.1-.3-2.3-.4-3.4-.1-.9-.1-1.7-.2-2.6v-.8c-.1-1.1-.2-2.3-.3-3.3-.1-1.1-.3-2.2-.5-3.2-.2-1.1-.4-2.4-.6-3.7-.1-1.5-.3-3-.3-4.5v-1.3c.3-.4.6-.7.9-1 .4-.5.9-1 1.3-1.5v-.1c.4-.5.7-1 1-1.5l.1-.1c.2-.3.4-.7.7-1l.3-.5c.5-.7.9-1.4 1.4-2.1l.2-.4c.9-1.4 1.8-2.9 2.8-4.3.5-.8 1.1-1.6 1.6-2.4.3-.4.5-.8.8-1.2.5-.7 1-1.4 1.4-2.1.5-.7 1-1.4 1.7-2.1.6-.6 1.1-1.1 1.7-1.5.3-.2.6-.3.9-.4.1 0 .2-.1.3-.1 1-.3 2-.5 3.1-.7.3 0 .5-.1.8-.1.7-.1 1.4-.2 2-.3.2 0 .4-.1.6-.1h.3c.7-.4.8-.4.8-.4M64 .3c-.1 0-.2 0-.3.1-.3.1-.5.3-.8.5l-.9.6c-.9.5-1.8 1-2.6 1.3-.5.2-1.1.5-1.7.7-.5.2-.9.3-1.4.5h-.1l-.3.1c-.4.1-.9.3-1.3.4l-.3.1h-.2c-.5.1-1 .2-1.4.3h-.1c-.7.1-1.4.2-2 .3-.8.1-1.5.2-2.2.3-1.2.1-2.5.2-3.9.3h-.4c-.5 0-1 .1-1.5.1-.6.1-1.2.2-1.7.3-.1 0-.2 0-.3.1-1.1.2-2.5.5-3.9.8-1 .2-2 .6-2.9 1-.7.3-1.3.6-2 1-.4.2-.8.4-1.3.7l-.6.2-.6.3-.3.2-.1.1c-.2.1-.5.3-.8.5-.6.4-1.1.8-1.7 1.2-.5.4-1.1.8-1.5 1.2l-.1.1c-.9.7-1.8 1.5-2.7 2.4l-.1.1c-.5.5-1 .9-1.4 1.4-.5.5-1 1.1-1.6 1.7-.6.6-1.1 1.3-1.5 2l-.1.1c-.2.3-.5.6-.7.9-.5.6-.9 1.2-1.3 1.7-.3.3-.6.7-.9 1l-.3.3-2.6 2.6c-.3.3-.6.6-.9.8l-.4.4-.4.4-.2.2c-.4.3-.7.6-1.2.9-.2.1-.4.2-.6.4l-.3.1-1.2.6c-.1 0-.2.1-.3.1h-.2-.1c-.1 0-.2.1-.3.1-.4.2-.6.6-.5 1 0 .2.1.4.3.6.1.2.3.4.5.7.3.4.7.8 1.1 1.1.7.6 1.5 1.1 2.4 1.4.2.1.5.2.7.2h.2c.4.1.8.1 1.1.1h.9c-.4.5-.8.9-1.1 1.3-.8.8-1.6 1.6-2.5 2.3-.3.3-.7.5-1 .7-.2.1-.3.2-.5.4s-.5.3-.8.5l-.3.2c-.7.4-1.6 1-2.4 1.4-.1 0-.1.1-.2.1h-.1c-.3.2-.5.3-.7.4-.2.2-.4.3-.5.5 0 .2-.1.3-.1.4v.1c0 .2 0 .3.1.5.3.5.7 1 1 1.4.3.4.6.7.9 1 .4.4.8.8 1.2 1.1.2.2.5.3.7.5l.1.1c.3.2.5.3.8.4.4.2.8.3 1.2.4-.2.3-.5.6-.7.9l-.3.4c-.5.6-.9 1.2-1.4 1.7-.5.5-.9 1-1.5 1.5l-.7.6-.3.3c-.9.8-1.7 1.5-2.6 2.3-.3.3-.4.8-.1 1.1 0 0-.1.1-.1.2-.1.2-.2.4-.3.7v.6c.1.4.4.8.8 1.1.2.1.5.2.7.3.1 0 .3.1.5.2s.3.2.5.3h.1c.2 0 .4.2.7.3.3.2.7.4 1 .6.5.2 1 .4 1.5.5.6.1 1.3.1 2 0H8c.1 0 .2 0 .3-.1-.1.2-.1.4-.2.6-.3.8-.5 1.4-.8 2-.6 1.1-1.4 2-2.2 3-.4.5-.8.9-1.2 1.4l-.1-.1-.4.5-.2.2-.3.3c-.1.1-.2.3-.3.4-.1.2-.1.5 0 .8.1.4.4.7.7.8.4.1.7.1 1 0h.3c.1 0 .2 0 .3-.1.2 0 .4-.1.6-.1.6-.1 1.2-.1 1.8-.1.3 0 .6 0 .9-.1h.1c.3 0 .5-.1.7-.2h.1c.6-.2 1.3-.4 2-.7.6-.2 1.1-.5 1.7-.9.7-.4 1.2-.8 1.7-1.2.5-.4 1.1-.8 1.5-1.3l.6-.6c0 .4 0 .9.1 1.3v.1l.1.9.1.9c0 .5.1 1.1.1 1.6v.1c0 .4.1.8.1 1.2 0 .2 0 .3.1.5.1.5.2 1 .3 1.6.1.5.2 1 .2 1.5 0 .2 0 .3.1.5.1.4.1.8.1 1.1 0 .2 0 .4.1.6 0 .4.1.8.1 1.1 0 .5 0 1 .1 1.5v.3c0 2.1.1 4.2.4 6.2v.1c.1 1.1.3 2.3.5 3.5.2.9.4 1.9.6 2.8l.1.4c.3 1.5.8 3.4 1.2 5.3.2.9.5 1.8.8 2.7.2.6.4 1.1.6 1.7-.1.1-.1.1-.1.2-.1.2-.1.5 0 .7.1.2.3.4.5.5.3.9.6 1.8.8 2.7.2.5.3 1 .5 1.4.1.1.1.3.2.4.1.3.3.7.4 1 .5 1.1.9 2.1 1.4 3 .2.3.3.6.5.9.3.7.7 1.4 1 2.1.5.9 1 1.8 1.6 3 .6 1.1 1.3 2.1 2 2.9.4.5.8.9 1.2 1.4l.9.9.2.2.9.9.3.3c.4.4.8.8 1.3 1.1.6.4 1.1.7 1.5 1 .4.3.9.5 1.3.8.6.4 1.2.7 1.8.9.4.2.8.4 1.4.6l.5.2c.9.3 1.7.6 2.6.9 1.2.4 2.3.7 3.5.9.5.1.9.2 1.4.3h2.8c1.1 0 2.2-.1 3.5-.2h.2c.4 0 .8-.1 1.3-.2h.2c.3-.1.5-.1.7-.2h.1c.5-.1 1-.3 1.5-.5.3-.1.5-.3.8-.4.2-.1.3-.2.5-.3.1 0 .1-.1.2-.1.4-.2.8-.5 1.2-.7.1-.1.3-.2.4-.3.3-.2.7-.5 1-.7l.4-.3.1-.1c.4-.3.8-.5 1.2-.8.5-.4 1-.8 1.4-1.1.3-.3.6-.5.9-.8l.3-.3.9-.9.2-.2.3-.2.9-.9 1.3-1.3.2-.2c.1-.1.2-.3.3-.4l.3-.4.3-.4c.7-.9 1.3-1.8 1.8-2.6.6-1 1.1-2 1.6-3.1.6-1.2 1-2.1 1.3-3 .4-1.1.8-2.1 1.1-3.1.2-.7.5-1.5.7-2.2.3-.9.5-1.8.6-2.5.2-1 .5-2 .8-2.9.3-.9.5-1.9.8-2.9.1-.3.2-.6.2-.9.1-.5.2-.9.3-1.4h.5c.3-.1.7-.2 1-.4.2-.1.3-.2.4-.3l.3-.2c1-.8 1.9-1.7 2.7-2.6.5-.5 1-1.1 1.4-1.7.3-.4.6-.7.9-1l.2-.7c.5-.5.9-1 1.2-1.5.3-.4.6-.9.8-1.4l.1-.3c.3-.6.7-1.3 1.2-2.2.2-.5.4-.9.6-1.4l.2-.4c.3-.7.6-1.4.9-2.3.2-.5.4-.9.5-1.4.5-1 1-2.1 1.5-3.1.5-1.1 1-2.1 1.5-3 .7-1.2 1.4-2.3 2.3-3.3.3-.3.8-.8 1.3-1.2.2-.1.3-.3.5-.4l.1-.1c.6-.5.9-.9 1.1-1.4.4-.9.2-2 0-2.9-.1-.6-.2-1.3-.4-1.9l-.2-.8c-.2-1-.4-2.1-.7-3.1l-.1-.3c-.1-.6-.3-1.1-.5-1.7 0-.1-.1-.2-.1-.3v-.1c-.1-.3-.2-.5-.3-.8l-.2-.6-.2-.6c-.5-1.3-1-2.5-1.5-3.5-.5-1.2-1.2-2.5-1.9-3.9-.5-1-1.1-2.1-1.8-3.3-.4-.7-.8-1.3-1.1-1.9-.3-.6-.6-1.1-.9-1.8-.4-.7-.6-1.4-.9-2-.2-.6-.3-1.1-.4-1.7v-.2-.1c.2-.3.4-.5.7-.8l.4-.4.2-.2c.2-.3.5-.5.8-.7.1-.1.3-.2.4-.3l.1-.1.2-.1c.2-.2.4-.3.6-.5.5-.4 1.1-.8 1.6-1.2l.2-.2c.4-.3.9-.7 1.3-1 .3-.2.5-.5.7-.9.1-.2.1-.5.1-.7 0-.1-.1-.3-.1-.4v-.2c-.1-.1-.1-.2-.3-.3-.1-.1-.3-.2-.4-.3-.1-.1-.3-.2-.4-.3-.6-.4-1.3-.8-1.9-1.1l-1.8-.9-.2-.1c-.5-.2-.9-.5-1.4-.7L91 24.5c-1.7-1-3.2-1.9-4.5-2.9-.7-.5-1.4-1.1-2-1.6-.3-.3-.7-.6-1.1-.8l-.1-.1c.2 0 .4 0 .5-.1l1-.2 1-.2c.6-.1 1.2-.2 1.7-.3.2 0 .5-.1.7-.1l.5-.1h.3c.1 0 .3 0 .4-.1.2 0 .6-.2.7-.3l.3-.3.1-.1c.2-.2.2-.6.2-.8-.1-.3-.2-.5-.4-.7-.3-.2-.6-.4-1-.5-.1-.1-.2-.1-.3-.1-.3-.1-.6-.3-.8-.4-.6-.3-1.2-.5-1.8-.8-.7-.3-1.3-.5-2-.8l-.3-.1-1.5-.6c-.3-.1-.7-.2-1-.3-.3-.1-.7-.2-1-.3-.2-.1-.4-.1-.6-.2-.1 0-.2-.1-.3-.1l-.5-.1-.5-.1c-.4-.1-.7-.2-1.1-.3l-.3-.1c-.4-.1-.9-.2-1.3-.2-.6-.1-1.1-.1-1.7-.2l-.6-.1c-.5 0-.9-.1-1.4-.1-2-.2-4.3-.3-6.5-.3-.7 0-1.4 0-2.1.1H61l.6-.6c.6-.8 1.2-1.6 1.6-2.3.6-.9 1.1-1.9 1.5-3 .2-.6.4-1.2.5-1.7v-.8c0-.4-.2-.7-.3-.9l-.3-.3c-.1-.1-.3-.1-.4-.2.1-.2 0-.2-.2-.1"/></g></g><path id="Fill-15" class="st1" d="M21.4 64c-.1.2-.3.4-.4.6-.1.1-.2.3-.2.4.2-.3.4-.5.6-.8l.1-.1c-.2 0-.2 0-.1-.1.1 0 .1-.1.2-.2-.1 0-.2.1-.2.2"/><path id="Fill-19" class="st1" d="M76.3 55.5c-.3.1-.6.2-.9.4-.2.2-.4.3-.6.5l-1.5 1.5c-.6.6-1 1.4-1.3 2.2-.2.5-.4 1.1-.3 1.6 0 .1.1.2.1.3.1.2.2.3.4.5s.5.3.8.3c.4.1.9 0 1.3-.1.8-.1 1.5-.3 2.2-.6.6-.2 1.3-.4 1.9-.6 1.5-.4 3.1-.8 4.6-1.1.6-.1 1.1-.7 1-1.4-.1-.6-.7-1.1-1.4-1-1.2.2-2.4.5-3.6.8-1.3.3-2.6.8-3.9 1.2-.2.1-.4.1-.7.2.2-.4.5-.8.8-1.2.2-.3.5-.5.8-.7l.6-.6c.2-.1.4-.2.5-.2.3-.1.5-.4.6-.7.1-.3.1-.6 0-.9-.1-.3-.4-.5-.7-.6-.2-.1-.4-.1-.6-.1.1.3 0 .3-.1.3"/><path id="Fill-21" class="st1" d="M50.9 59.1c-.6.1-1.3.3-1.9.5-.4.1-.8.2-1.1.4l-.9.3c-.3.1-.5.2-.8.3-.1.1-.3.1-.4.2-.4.2-.9.4-1.3.6-.2.1-.3.4-.2.6.1.2.4.3.6.2.3-.1.6-.3.9-.4.2-.1.3-.2.5-.2.5-.2 1-.3 1.4-.5.2-.1.5-.1.7-.2.2-.1.4-.1.7-.2.3-.1.6-.2 1-.3.3-.1.5-.1.8-.2.2 0 .4-.1.7-.1.3 0 .5-.1.8-.1.3 0 .6-.1.9-.1.3 0 .6 0 .8-.1h2.3c.2 0 .4 0 .7.1.2 0 .5.1.7.1.4.1.8.1 1.2.2.4.1.8.2 1.1.3.4.1.8.2 1.1.4l1.2.6c.4.2.8.3 1.3.4.2 0 .5-.1.5-.3.1-.3 0-.6-.3-.7-.1 0-.1 0-.2-.1-.5-.3-1-.6-1.5-.8-.3-.2-.6-.3-.9-.4-.3-.1-.5-.2-.8-.3-.3-.1-.6-.2-1-.3-.3-.1-.7-.1-1-.2-.3-.1-.6-.1-.9-.1-.3 0-.7-.1-1-.1h-1.9c-.6 0-1.2.1-1.8.1-.5.1-1 .1-1.5.2-.2.1-.4.2-.5.2"/><path id="Fill-23" class="st1" d="M32.1 64c-.6.2-1.2.3-1.7.6-.6.2-1.1.4-1.7.6-.5.2-1.1.4-1.6.7-.5.2-1 .5-1.5.8-.5.3-1 .6-1.4.9-.2.2-.5.3-.7.5-.2.2-.5.3-.7.5-.2.2-.4.3-.7.5-.2.2-.4.4-.7.6l-.9.9V71.8c.1 0 .1-.1.2-.1.2-.1.3-.2.5-.2l.3-.3c.6-.6 1.2-1.2 1.9-1.7l1.2-.9c.3-.2.7-.4 1-.7.2-.1.5-.3.7-.4.2-.1.5-.3.7-.4.5-.2.9-.4 1.4-.6 1-.4 1.9-.8 2.9-1.1.4-.1.9-.3 1.3-.4 1.2-.3 2.4-.5 3.6-.6.3 0 .4-.3.4-.6 0-.1-.1-.2-.2-.3-.1-.1-.2-.1-.4-.1-.6.1-1.2.1-1.8.2-.5 0-1.3.2-2.1.4"/><path id="Fill-25" class="st1" d="M23.3 69.3c0 .1 0 .1 0 0 0 .1 0 .1 0 0m0 0c0 .1 0 .1 0 0 0 .1 0 .1 0 0M27.6 66.5c0-.1 0-.1-.1-.2 0-.1-.1-.1-.1-.2.1-.1.1-.2.2-.3l.1-.1H28v.1c-.1.3-.2.5-.4.7.1 0 .1.1 0 0 0 .1 0 .1 0 0m8-2.4c0 .1 0 .1 0 0 0 .1 0 .1 0 0m-1.7-1.4c-.1 0-.3.1-.4.2l-.1.1h-.2H32.9c-.1 0-.2 0-.3.1-.2.1-.3.2-.5.2-.1.1-.2.1-.3.2h-.1c-.2-.1-.4-.1-.5 0-.2 0-.3.1-.5.2-.1 0-.1.1-.1.1-.1-.1-.2-.1-.3-.1-.3-.1-.7.1-.9.3-.1.1-.2.2-.3.4-.1.1-.1.2-.2.3h-.1c-.1 0-.2.1-.2.1l-.3.3c0-.1-.3-.2-.6-.1-.1 0-.3 0-.4.1-.1 0-.1.1-.2.1l-.2.2c-.1.1-.2.2-.2.3-.1 0-.2 0-.3.1-.3.1-.5.3-.7.6h-.3c-.2 0-.3.1-.5.2-.3.1-.5.3-.7.6l-.1.1c-.1.1-.2.1-.3.2l-.6.6c-.1.1-.2.3-.3.4h-.1c-.3.1-.6.2-.9.5l-.3.3-.3.3c0 .1-.1.1-.1.2l-.1.1c-.2.2-.4.5-.5.8v1c.1 0 .1-.1.2-.1.3-.2.7-.4 1.1-.5l.1-.1c.1-.1.2-.1.2-.2v-.4c0-.1 0-.2-.1-.2v-.1c0-.1.1-.1.1-.2l.2-.2v.1c0 .1.1.2.1.3l.2.2c.2.1.4 0 .6-.1.1-.1.3-.2.4-.3l.3-.3c.1 0 .2 0 .2-.1.1-.1.3-.1.4-.2l.3-.3s0-.1.1-.1l.1.1c.1.1.3.1.5.1s.3-.1.5-.2l.1-.1h.1c.1 0 .2 0 .2-.1.1 0 .1-.1.2-.1.2-.2.4-.4.6-.7.1-.1.2-.3.2-.4v.1c.1.1.3.2.4.2.3 0 .5-.2.7-.5.1-.1.1-.2.1-.3H29c.2 0 .3 0 .5-.1.1-.1.3-.2.4-.3l.1-.1c.3.2.7 0 .9-.2l.1-.1c.1.1.3.1.5.1.1 0 .1 0 .2-.1.1 0 .1-.1.2-.1l.3-.3c.1-.1.1-.2.2-.3 0 .1.1.1.1.2.1.1.4.2.5.2.2 0 .4-.1.5-.3.1-.1.1-.1.1-.2 0 0 .1 0 .1.1.3.1.5 0 .7-.2.1-.1.1-.2.2-.3.1.1.3.1.4.1.1 0 .2-.1.2-.1l.1-.1.1.1h.2c.1 0 .1 0 .2-.1.1.1.3.1.4 0 .2-.2.2-.5.2-.8V64v-.1c0-.1.1-.1.1-.2.1-.1.1-.3 0-.4-.1-.1-.3-.1-.4 0-.1 0-.1-.1-.2-.1v-.1c-.1-.1-.2-.2-.3-.2h-.3c-.1 0-.2 0-.2.1-.1 0-.2.1-.3.2h-.1c-.2 0-.3 0-.5.1-.1-.1-.2-.2-.4-.2h-.2c.5-.4.4-.4.3-.4.1 0 .1 0 0 0"/><path id="Fill-27" class="st1" d="M64.9 62zm0 0zm0 0zm-19.2-.4zm0-.2c.1-.1.2-.3.3-.4l.1-.1c0 .1-.1.2-.1.3-.1.1-.1.2-.2.3l-.1.1c-.1 0 0-.1 0-.2zm.9-.7s.1 0 0 0c.1 0 0 0 0 0zm0 0v0zm0-.1s0 .1 0 0c0 .1 0 0 0 0zm10.7-1.8zm-8.5 1.3c0-.1.1-.2.1-.2 0 .1-.1.2-.1.2 0 .1 0 .1 0 0zm3-2c-.1 0-.2.1-.3.1-.1 0-.2.1-.3.2l-.1.1H51c-.1 0-.2 0-.2-.1-.2 0-.4 0-.5.1-.2.1-.3.2-.4.3-.1 0-.1.1-.2.1-.2-.1-.5 0-.7.1-.3.1-.6.4-.8.6l-.1.1c-.2 0-.3.1-.4.1-.2.1-.4.4-.6.6-.2-.2-.5-.2-.7-.2h-.1s-.1-.1-.2-.1h-.2c-.3 0-.5.3-.7.5-.2.2-.3.5-.4.7-.1.1-.1.3-.1.4v.5c0 .3.3.5.5.5h.4c.1 0 .2 0 .3-.1.3 0 .7 0 1-.1.3-.1.6-.3.8-.5.2 0 .4 0 .5-.1.3-.1.5-.2.8-.4h.1c.1 0 .3-.1.4-.1h.3c.4 0 .8-.1 1.1-.3.2-.1.4-.2.5-.3h.4c.2 0 .3-.1.4-.1.2-.1.4-.1.5-.2.1-.1.2-.1.3-.2h.4c.1 0 .1.1.2.1.1.1.3.1.5.1h.5c.1 0 .3-.1.4-.1.1.1.3.1.4.1h.5c.2 0 .5-.1.7-.2h.1c.2.1.3.1.5.1s.4 0 .6-.1c.1.2.3.3.4.4.3.1.6.1.9.1.3 0 .6 0 .9-.1.1.1.2.2.3.2.2.2.5.3.8.3.2.1.5 0 .8 0 .1.2.3.3.5.4.1.1.3.1.4.1.2 0 .4.1.6.2.3.1.5.2.8.4.3.2.6.3.8.5l.2.2.1-.1c.1-.1.1-.2.1-.3 0-.2-.1-.4-.2-.5-.1-.1-.3-.1-.4-.1h-.2-.1c.1-.1.2-.1.2-.2.2-.1.3-.3.3-.5 0-.3-.3-.4-.5-.4-.1 0-.2 0-.2.1h-.2c-.2 0-.3 0-.5-.1-.1 0-.2 0-.3-.1.1-.1.1-.2.1-.3 0-.2-.1-.4-.3-.5-.1 0-.2-.1-.4 0-.1 0-.2 0-.2.1-.1 0-.1 0-.2.1-.1 0-.1 0-.2.1H61.8c-.2 0-.4 0-.6-.1h.1l.2-.2c.1-.2.1-.3 0-.5s-.3-.3-.5-.3-.4.1-.5.1c-.1.1-.2.1-.4.2l-.2.2h-.2c-.2 0-.3 0-.5.1h-.1c.1-.1.3-.2.4-.3.1-.1.2-.2.2-.3 0-.1.1-.2.1-.3v-.2c0-.1 0-.1-.1-.2 0-.1-.1-.2-.2-.2s-.1-.1-.2-.1h-.5c-.3.1-.6.2-.8.4v-.3c0-.1 0-.2-.1-.2 0-.1-.1-.2-.2-.2.3.2.1.1-.1.1h-.3c-.1 0-.1 0-.2.1 0-.1-.1-.2-.2-.3-.2-.1-.3-.2-.5-.2s-.4.1-.6.2c-.1 0-.1.1-.1.1s-.1 0-.1-.1c-.1-.1-.2-.1-.3-.1h-.2H54.8c-.1 0-.2.1-.3.1-.1 0-.2.1-.2.2-.2.1-.3.2-.5.4-.1-.1-.2-.1-.3-.1h-.3c-.1 0-.2.1-.3.1-.1 0-.2.1-.3.1 0-.1-.1-.1-.2-.2 0 0-.1 0-.1-.1-.1-.1-.2-.1-.3-.1h-.3c.2-.1.1-.1.1 0z"/><path id="Fill-29" class="st1" d="M41.5 91.1s.1 0 0 0c.1 0 0 0 0 0m-2.9-23.3s.1 0 0 0c.1 0 0 0 0 0m-.5-2.8c-.3.1-.4.5-.3.8.3.6.6 1.3.8 2 .3.9.5 1.9.7 2.9l.3 2.4c.2 1.7.3 3.4.4 5.2V85.6c-.1.8-.1 1.7-.2 2.5-.1 1.1-.2 2.2-.2 3.3v.2c.1.4.3.7.6.9.6.5 1.4.6 2.2.4.6-.1 1.3-.3 1.9-.4.2-.1.4-.1.5-.3.1-.2.2-.4.1-.6 0-.2-.2-.4-.3-.5-.2-.1-.4-.2-.6-.1-.3 0-.6.1-.9.1-.4.1-.8.2-1.3.2h-.3v-.2V90c0-.4.1-.8.1-1.3.1-.8.1-1.6.2-2.4.1-.8 0-1.6 0-2.5v-2.4-2.6c0-.9-.1-1.8-.2-2.6-.1-.7-.2-1.5-.3-2.2-.1-.4-.1-.8-.2-1.2-.1-.4-.1-.8-.2-1.3-.1-.6-.3-1.3-.4-1.9l-.3-1.2c-.1-.5-.3-1-.5-1.4-.2-.5-.4-.9-.6-1.4-.1-.2-.4-.4-.7-.3-.2-.4-.2-.3-.3-.3"/><path id="Fill-31" class="st1" d="M49.1 73c0 .1 0 .1 0 0 0 .1 0 .1 0 0m3.5-7c.2 0 .5.1.7.2.2.1.5.1.7.2l.6.6.4.4c.1.1.2.1.2.2.2.1.3.3.4.4.2.3.3.5.4.8.2.3.3.6.5.9.1.3.2.5.2.8 0 .2.1.4.1.6 0 .3.1.7 0 1v.4c0 .2-.1.4-.1.6 0 .1-.1.2-.1.3-.1.2-.1.4-.2.6-.2.5-.6.9-.9 1.4l-.6.6c-.2.2-.5.4-.8.5-.1.1-.3.1-.4.2-.3.1-.6.2-1 .2h-.2c-.1 0-.3-.1-.4-.1-.1-.1-.2-.1-.4-.2s-.4-.2-.5-.3c-.2-.2-.4-.3-.6-.5l-.9-.9-.6-.9c-.2-.3-.4-.7-.5-1-.2-.6-.4-1.2-.5-1.8v-.6c.1 0 .2-.1.3-.1.1-.1.1-.2.1-.3 0-.2 0-.4.1-.6.1-.6.2-1.1.4-1.6 0-.1.1-.1.1-.2.2-.2.4-.4.5-.6.2-.3.5-.5.7-.7.2-.1.3-.2.5-.3.2-.1.4-.1.6-.2.8-.1 1-.1 1.2 0m-.8-1.7l-.9.3-.9.6c-.3.2-.5.5-.7.8l-.3.3c-.1.1-.2.2-.2.3l-.1.1c-.1.1-.2.2-.2.4-.1.2-.1.4-.2.5-.1.3-.2.7-.3 1.1-.1.3-.2.7-.3 1 0 .1 0 .3-.1.4 0 .2 0 .3-.1.5v.7c0 .3 0 .6.1.9 0 .3.1.6.1.8l.3.9c.1.3.3.6.4.9.1.2.2.3.3.5.2.4.5.8.8 1.1l.7.7c.2.2.5.4.8.6.2.1.4.2.5.3.2.1.5.2.7.3.2.1.4.1.6.1h.4c.1 0 .3 0 .4-.1.3 0 .5-.1.8-.2.3-.1.6-.2.9-.4.1-.1.3-.2.4-.3.3-.2.5-.4.8-.7.3-.3.6-.7.9-1.1.1-.2.3-.4.4-.6.2-.3.3-.7.4-1.1.1-.3.2-.6.2-.9.1-.5.1-.9.1-1.4 0-.6-.1-1.2-.2-1.8-.1-.6-.4-1.2-.7-1.8-.2-.4-.3-.8-.6-1.1-.1-.2-.3-.4-.4-.5-.1-.1-.2-.2-.3-.2-.1-.1-.2-.2-.4-.3-.2-.2-.4-.4-.7-.6-.2-.2-.3-.3-.5-.4-.1-.1-.2-.1-.4-.2-.1 0-.2-.1-.2-.1-.1 0-.2 0-.3-.1-.3-.1-.6-.1-.9-.2-.2 0-.4-.1-.7-.1.2.1-.1.1-.4.1"/><path id="Fill-33" class="st1" d="M49.5 76l-.1-.1c.1 0 .1 0 .1.1m3.8-9.9c.1 0 .3.1.4.1.2.1.4.3.6.4.1.1.3.2.4.3.2.1.3.3.5.4l.1.1c.1.1.2.2.3.4.1.1.2.3.3.5.1.2.2.4.2.6.1.3.2.6.4.9.1.3.2.6.2.9 0 .2 0 .3.1.5 0 .2.1.4.1.6v.4c-.1.4-.2.8-.4 1.2-.1.2-.2.5-.3.7l-.3.6c-.1.2-.3.4-.4.6-.1.1-.2.3-.3.4-.1.2-.3.3-.5.4-.1.1-.3.2-.4.3l-.6.3c-.1 0-.1-.1-.2-.1-.2 0-.3-.1-.5-.1-.1 0-.2 0-.3-.1-.1 0-.2-.1-.3-.1-.2-.1-.3-.2-.4-.3-.1-.1-.2-.1-.3-.2l-.1-.1c-.1-.2-.2-.3-.3-.5-.1-.2-.3-.4-.5-.7-.3-.4-.6-.9-.8-1.3-.1-.3-.2-.7-.3-1v-.5-.6c0-.4 0-.8.1-1.3.1-.4.1-.7.2-1.1l.3-.9.3-.6c.1-.2.2-.3.3-.5.1-.1.2-.3.4-.4.3-.2.6-.3.9-.4.1 0 .2-.1.3-.1.2.2.5.2.8.3M52 64c-.4.1-.7.3-1.1.4-.4.2-.8.5-1.1.8-.3.3-.5.6-.7 1-.2.3-.3.6-.4.9-.1.3-.3.7-.4 1.1-.1.3-.2.6-.2.9-.1.4-.1.8-.2 1.2 0 .3-.1.6-.1.9 0 .4 0 .7.1 1.1.1.3.1.6.2.9.2.6.4 1.1.7 1.7.2.4.5.8.7 1.1.1.2.3.4.4.6.1.2.2.3.4.5.1.1.2.2.3.2.3.3.7.5 1.1.6.2.1.3.1.5.2.2 0 .3.1.5.1.1 0 .2 0 .3.1h.9c.1 0 .2-.1.3-.1.1 0 .2-.1.3-.1.1-.1.3-.1.4-.2.2-.1.4-.2.5-.4.2-.1.4-.3.5-.5.2-.2.3-.4.4-.6.3-.4.6-.8.8-1.2.1-.2.2-.5.3-.7.1-.1.1-.3.2-.4 0 .1-.1.1-.1.2.1-.3.3-.7.4-1 .1-.3.1-.7.2-1.1.1-.6.1-1.2.1-1.9 0-.4 0-.7-.1-1.1-.1-.3-.2-.5-.2-.8-.1-.3-.1-.5-.2-.8l-.3-.6c-.1-.2-.2-.3-.3-.4-.1-.2-.2-.3-.3-.5l-.3-.3-.2-.2c-.2-.2-.4-.4-.6-.5-.3-.3-.6-.5-1-.7-.5-.3-1.1-.4-1.7-.4h-.1c-.2-.1-.5 0-.9 0"/><path id="Fill-35" class="st1" d="M28.2 69.9l.1-.1-.1.1m1.7 1c.1 0 .2-.1.2-.1.2 0 .4.1.6.2.1.1.2.2.4.2l-.2-.2c.2.2.5.4.7.6.1.1.2.2.3.4.1.1.1.2.2.2.1.2.2.4.4.6.1.2.2.4.4.6.1.2.1.4.2.7.1.3.2.5.3.8.1.5.3 1.1.3 1.6v-.3c.1.5.1.9.2 1.4 0 .5 0 .9-.1 1.4-.1.5-.2 1-.4 1.5-.1.2-.3.5-.5.7-.1.2-.3.3-.5.5-.1 0-.1.1-.2.1h-.1c-.1-.1-.2-.2-.4-.2h-.1c-.1 0-.2 0-.4-.1H31c-.2-.1-.3-.2-.5-.3l-.6-.6c-.3-.4-.6-.9-.8-1.4-.2-.6-.5-1.2-.7-1.9-.1-.2-.1-.4-.2-.6v-.8c0-.3 0-.6.1-.9 0-.6.1-1.2.1-1.8.1-.5.2-1 .4-1.4.1-.1.1-.2.2-.4l.4-.4c.1-.1.2-.1.3-.2 0 .2.1.2.2.1m.3-2c-.3 0-.6.1-.8.3-.1.1-.2.1-.3.2-.1.1-.2.1-.3.2-.1.1-.2.2-.4.2-.3.3-.6.5-.9.9-.2.3-.3.5-.4.8-.3.7-.4 1.6-.4 2.4v.2c-.1.4-.1.9-.1 1.4 0 .4 0 .9.1 1.3 0 .5.1.9.2 1.4.1.4.2.9.3 1.3.1.4.2.8.4 1.2.2.4.3.8.6 1.2.3.6.8 1.1 1.3 1.4.2.2.5.4.8.5l.9.3c.3.1.6.1.9.2.3 0 .7 0 1-.2.3-.1.5-.2.8-.4.2-.1.3-.3.5-.4.3-.3.6-.6.9-1 .1-.2.2-.3.4-.5.2-.4.3-.8.4-1.2.2-.9.3-1.8.3-2.7 0-.2 0-.4-.1-.6 0-.3-.1-.6-.1-.9-.1-.4-.1-.7-.2-1.1-.1-.4-.1-.7-.3-1.1-.1-.4-.3-.8-.4-1.1-.1-.3-.2-.6-.4-.9-.1-.2-.2-.3-.3-.5-.2-.2-.3-.5-.5-.7-.1-.2-.3-.3-.4-.5-.1-.1-.2-.3-.4-.4-.2-.2-.4-.3-.7-.5-.3-.2-.7-.4-1.1-.5-.5-.1-.7-.1-1-.2h-.2-.1"/><path id="Fill-37" class="st1" d="M30.7 75.3c-.2 0-.5.2-.7.3-.2.1-.4.3-.6.4l-.3.3c-.1.1-.1.2-.2.3-.1.2-.2.5-.3.7-.2.5-.2 1.1-.1 1.7 0 .3.1.5.1.8.1.2.2.5.3.7.2.5.5.9.9 1.3l.2.2.3.3.6.3c.1 0 .3.1.4.1h.3c.3 0 .7-.1 1-.3l.3-.3c.1-.1.2-.2.2-.3.3-.3.5-.7.7-1.1.2-.5.2-.9.3-1.4v-.7c0-.3-.1-.6-.2-.9-.2-.5-.4-.9-.6-1.4-.1-.2-.3-.4-.6-.6-.2-.2-.5-.3-.8-.4-.1 0-.3-.1-.4-.1h-.4-.1c.1 0-.1 0-.3.1"/><path id="Fill-39" class="st1" d="M53 69c-.2 0-.3.1-.5.1-.3.1-.6.3-.9.6-.2.2-.4.5-.6.7-.2.3-.3.6-.4.9-.2.6-.3 1.3-.3 1.9 0 .3.1.6.2.9 0 .1 0 .1.1.2v.2c.1.6.3 1.1.6 1.6.1.2.3.5.5.7.2.3.4.5.7.6.6.3 1.3.3 1.9.1.7-.2 1.2-.8 1.6-1.3.1-.1.2-.2.3-.4.1-.2.2-.3.2-.5.1-.3.2-.6.2-.9.1-.7.2-1.4.1-2.1-.1-.3-.1-.6-.3-.9-.1-.3-.3-.6-.5-.9-.2-.3-.5-.6-.7-.8-.2-.2-.3-.4-.5-.5-.3-.2-.6-.2-.9-.3h-.1c-.4 0-.6 0-.7.1"/><path id="Fill-41" class="st1" d="M53.6 70.7s.1 0 0 0c.1 0 0 0 0 0M53.1 69.9c-.1 0-.1.1-.2.1s-.1.1-.2.1-.1.1-.1.1l-.2.2c-.2.1-.1.4 0 .5.2.2.4.1.5 0l.3-.3s.1 0 .1-.1c.1 0 .1 0 .2.1.1 0 .1.1.2.1l.1.1c.1.2.2.3.3.5 0 .1.1.2.1.3 0 .1 0 .2.1.3v1.6c0 .2-.1.4-.1.5 0 .1-.1.2 0 .3 0 .1.1.2.2.3.2.1.5.1.6-.2.1-.2.2-.5.3-.7 0-.2.1-.5.1-.7v-.6c0-.2 0-.5-.1-.7 0-.2-.1-.4-.2-.6-.1-.2-.2-.4-.3-.5-.2-.3-.5-.5-.8-.6-.1 0-.2 0-.3-.1h-.1c-.3-.1-.4-.1-.5 0"/><path id="Fill-43" class="st1" d="M43 111l-.3-.6c-.1-.3-.1-.5-.2-.7v-.4s0-.1.1-.1c0-.1.1-.2.2-.2l.4-.4c.2-.1.4-.2.5-.3l.1-.1.6-.3c.3-.2.6-.3 1-.4.3-.1.6-.2 1-.3.4-.1.8-.1 1.1-.2h1.8l.2.1h.4c.2 0 .4.1.5.1 0 0 .1 0 .1.1l.3.3c0 .1.1.1.1.2.1.3.2.7.2 1.1v.4c0 .1 0 .2.1.3-.3-.1-.5-.2-.8-.3-.1 0-.2-.1-.2-.1-.1 0-.1-.1-.2-.1s-.1-.1-.2-.1c-.3-.2-.6-.3-.9-.4-.2-.1-.3-.1-.4-.1-.2 0-.4-.1-.6-.1h-.1c-.3 0-.6 0-1 .1-.3.1-.6.2-1 .4s-.7.4-.9.6c-.5.3-.8.8-1.2 1.2l-.2.2-.1.1c-.3-.2-.4-.1-.4 0zm-2.6-11.9c.1-.3.2-.5.3-.8.1-.2.2-.4.3-.5.2-.2.3-.4.5-.6.2-.2.5-.5.8-.7.2-.1.5-.3.8-.4.2-.1.4-.1.5-.1.2 0 .4-.1.6-.1h.4c.2 0 .5 0 .7.1h.1c.1 0 .2 0 .3.1.4.1.7.2 1.1.4.1.1.3.1.4.2l-.2.1c-.2.1-.5.2-.7.3h-.1c-.2.1-.5.2-.7.3-.3.1-.5.2-.8.3h-.4-.1c-.2.1-.4.2-.7.2-.2.1-.4.2-.6.2-.3.1-.6.2-.8.3l-.3.1c-.2.1-.4.1-.6.2-.2.1-.4.1-.5.2h-.1l-.2.2zm4.4-5H44.5c-.3 0-.5 0-.8.1-.2 0-.4.1-.6.1-.3.1-.5.2-.8.3-.3.1-.6.3-.8.5-.3.2-.5.4-.8.6-.3.3-.6.6-.8.9-.1.2-.3.4-.3.5l-.6 1.2c-.3.7-.5 1.5-.7 2.5-.1.4-.1.7-.1 1.1v1.2c0 .7 0 1.4.1 2.1.1.7.2 1.3.4 1.9.1.3.2.7.3 1 .2.5.4 1 .7 1.5l.1.1c.4.8.9 1.8 1.5 2.5 0 0 .1.1.2.1 0 .1.2.2.3.2h.2c.1 0 .3-.1.4-.1.1-.1.2-.1.4-.2h.1c.3-.2.6-.3.9-.6.2-.1.3-.3.5-.4.1-.1.2-.1.2-.2.2-.2.5-.4.7-.6.2-.1.3-.2.5-.3.2-.1.3-.2.6-.2.3-.1.6-.2.9-.2h.7c.2 0 .3.1.5.1.1.1.3.1.4.2.1.1.2.1.3.2.1.1.2.1.3.2.2.1.5.3.7.4l.1.1c.2.1.5.2.7.3.3.1.6.2 1 .2H52.8c.2 0 .4 0 .6-.1.2-.1.4-.1.5-.2.1-.1.2-.1.4-.2.1 0 .1-.1.1-.1h.1c.2 0 .4-.1.6-.2.2-.2.3-.3.3-.6v-.7-.5-.4c0-.2 0-.5-.1-.7-.1-.9-.3-1.6-.6-2.3l-.1-.4c-.1-.2-.2-.5-.2-.7-.1-.2-.1-.4-.2-.6-.1-.2-.1-.4-.2-.6-.1-.5-.3-.9-.5-1.3l-.1-.3c-.1-.3-.2-.5-.3-.8-.3-.7-.7-1.3-1.1-2-.5-.8-1-1.4-1.5-2-.2-.2-.5-.4-.7-.7-.1-.1-.3-.2-.5-.3l-.1-.1c-.6-.4-1.2-.7-1.7-.9-.5-.2-1.1-.3-1.6-.4h-.3c-.6-.2-.7-.2-.8-.2z"/><path id="Fill-45" class="st1" d="M52.5 103.89999999999999c-.2.2-.3.4-.3.7 0 .3.1.5.3.8 0 0 0 .1.1.1l.6.9c0-.1-.1-.1-.1-.2.1.2.2.4.3.5 0 .1.1.2.2.2.1.2.2.3.3.4 0-.1-.1-.1-.1-.2l.3.6c.1.1.1.3.2.4.1.2.1.4.1.6v.3c0 .1-.1.1-.1.2 0 0 0 .1-.1.1l-.2.2-.2.2c-.1 0-.2.1-.2.1h-.8c-.2 0-.4-.1-.6-.1-.3-.1-.6-.2-1-.2-.3-.1-.7-.2-1-.3-.3-.1-.6-.3-.9-.4-.1-.1-.3-.1-.5-.1-.1 0-.3-.1-.4-.1-.1 0-.3-.1-.4-.1h-.7c-.1 0-.3 0-.4.1-.4.1-.7.4-1.1.6-.5.3-.9.8-1.3 1.2l-.5.5-.6.6c-.2.1-.4.3-.6.4h-.4c-.2-.1-.3-.2-.5-.3l-.6-.6c0-.1-.1-.1-.1-.2 0 0 0 .1.1.1-.1-.1-.2-.2-.3-.4-.1-.2-.2-.4-.3-.5-.1-.1-.1-.3-.2-.4-.1-.2-.1-.4-.2-.6 0-.2-.2-.3-.4-.3s-.3.2-.3.4.1.3.1.5v-.1.4c0 .1.1.2.1.4 0 .1.1.2.1.4s.1.3.2.5c.2.5.5.9.8 1.2.2.2.4.4.7.6l.6.3c.2.1.4.1.5.1.2 0 .4 0 .6-.1l.6-.3c.2-.1.3-.2.5-.4.2-.1.3-.3.5-.5l1.5-1.5.1-.1c.2-.1.4-.3.6-.3h.8c.2.1.4.1.6.2.3.2.6.3.9.5.3.2.7.4 1.1.5.3.1.7.3 1 .4l1.2.3h1.2c.3 0 .6-.2.9-.4.2-.1.3-.3.4-.5l.3-.6c0-.2.1-.3.2-.5.1-.3.1-.5.1-.8 0-.3 0-.6-.1-.9v-.8c0-.2 0-.4-.1-.6v-.2c0-.2-.1-.3-.2-.5 0 0 0-.1-.1-.1-.1-.3-.1-.5-.2-.8-.2-.6-.5-1.1-.9-1.6-.2-.2-.4-.3-.7-.3h-.1c-.5.1-.7.2-.9.4"/><path id="Fill-47" class="st1" d="M39.9 109.2s0 .1 0 0c0 .1 0 0 0 0m4.5-15.3c-.4 0-.8 0-1.2.1-.3.1-.7.2-1 .4-.3.1-.6.3-.9.5-.6.4-1.1 1-1.5 1.6-.4.6-.8 1.2-1 1.8-.2.6-.4 1.2-.5 1.8-.2.7-.3 1.4-.3 2.1 0 .7-.1 1.4-.1 2.1 0 .8.1 1.5.2 2.3.1.7.2 1.4.4 2 .1.4.2.7.4 1.1.1.3.3.6.5.9.1.2.3.4.5.6.1.2.3.3.4.4l.5.5c.1.1.2.1.2.2.2.1.3.3.5.4.1.1.2 0 .3-.1.1-.1 0-.2-.1-.3-.1 0-.1-.1-.2-.1-.2-.2-.4-.4-.5-.7-.1-.2-.2-.3-.3-.5-.1-.2-.2-.3-.3-.5-.2-.4-.3-.7-.5-1.1-.2-.6-.3-1.2-.5-1.8-.1-.6-.2-1.2-.2-1.8 0-.9-.1-1.7-.1-2.6 0-.9.1-1.7.2-2.6v.1l.3-1.5c.1-.2.1-.4.2-.6l.3-.6c.3-.5.6-1 1-1.5.2-.2.4-.4.7-.6.3-.2.7-.4 1.1-.5h-.1c.4-.1.8-.3 1.2-.3.6 0 1.2 0 1.8.1.7.2 1.3.5 1.9.7.5.3 1 .6 1.4 1 .2.2.4.3.5.5.2.2.3.3.4.5.2.2.3.4.5.6.1.2.3.3.4.5.3.4.5.8.7 1.2.2.4.3.8.5 1.2.2.5.3 1 .4 1.5.2.5.3 1.1.4 1.6.1.5.2 1.1.2 1.6.1.5.1 1 .2 1.5v1.5c0 .2-.1.3-.1.5-.1.2-.1.4-.1.6-.1.1-.1.3-.1.4 0 .2.1.5.2.7.2.2.4.3.7.3h.3c.2 0 .3-.1.4-.2.2-.1.4-.3.5-.5.1-.1.1-.3.2-.4.1-.2.1-.3.2-.5s.1-.5.2-.7v-.5c0-.8-.1-1.6-.2-2.3-.1-.3-.1-.7-.2-1-.1-.3-.1-.7-.2-1-.1-.7-.3-1.3-.5-1.9-.1-.4-.2-.7-.3-1.1-.1-.4-.3-.8-.4-1.1-.3-.7-.6-1.3-1.1-2-.2-.3-.4-.5-.6-.8-.2-.3-.5-.5-.7-.7-.2-.2-.5-.5-.8-.7-.2-.1-.3-.3-.5-.4-.2-.1-.3-.2-.5-.3-.3-.2-.6-.4-.8-.5-.3-.2-.7-.3-1.1-.5-.3-.1-.7-.2-1-.3-.2 0-.3-.1-.5-.1-.3-.1-.6-.1-.9-.2h-1c.1 0 .1 0 0 0"/></g></g></svg>