<svg width="180" height="200" xmlns="http://www.w3.org/2000/svg"><g fill="#FFF" fill-rule="evenodd" stroke="#18181A"><ellipse transform="rotate(-20 21.925 87.553)" cx="21.925" cy="87.553" rx="5.898" ry="18.662"/><ellipse transform="scale(-1 1) rotate(-20 0 988.861)" cx="158.925" cy="87.553" rx="5.898" ry="18.662"/><path d="M33.861 54.248c1.852-2.103 3.955-3.527 8.162-6.375 2.678-1.812 6.088-4.12 10.883-6.375 6.87-3.23 12.623-4.487 17.232-5.465 6.095-1.293 10.888-1.691 12.697-1.822 2.707-.194 10.646-.64 20.859.911 1.757.267 9.013 1.417 18.138 4.554 5.082 1.747 9.333 3.236 14.51 6.375 3.84 2.33 8.087 4.961 11.79 10.019 3.23 4.408 4.318 8.299 4.535 9.108.775 2.884.852 5.241.907 7.286.097 3.643-.317 6.136-.907 10.019 0 0-.569 3.74-1.814 12.75-.665 4.81-.494 4.38-1.814 15.484-1.277 10.755-1.605 12.561-1.813 13.661-1.015 5.333-1.754 9.211-3.628 13.662-1.041 2.475-3.817 8.884-9.976 14.572-7.705 7.117-16.511 9.233-23.58 10.93-4.282 1.028-9.26 1.723-9.976 1.821-2.71.374-5.935.817-9.976.911-5.76.133-10.132-.516-12.697-.91-10.438-1.603-18.2-4.483-21.766-6.376a55.316 55.316 0 0 1-4.534-2.732 45.506 45.506 0 0 1-3.628-2.733c-1.614-1.37-4.461-4.173-7.255-9.108-3.622-6.396-4.98-12.621-6.349-19.126-1.386-6.587-1.994-12.295-2.72-19.126-.57-5.345-.41-5.308-.907-9.108-1.121-8.559-2.097-10.008-2.721-16.394-.522-5.33-.83-8.472 0-12.75.47-2.428 1.697-8.378 6.348-13.663z"/></g></svg>