<svg xmlns="http://www.w3.org/2000/svg" viewBox="0 0 500 600"><g opacity="0.92"><path d="M199,535.4c-.6.3-.6,1.4-.7,2s-.4,2.3-.6,3.5-.5,4.2-.6,6.4a8.2,8.2,0,0,0,1.2,5.5,12.1,12.1,0,0,0,4.1,3,25,25,0,0,0,10.5,1.8c3-.1,6.8-.7,8.9-2.9a7.1,7.1,0,0,0,1.9-5.4v-.2a36.1,36.1,0,0,0-1.9-10.8,4.5,4.5,0,0,0-4.1-3.4,47.6,47.6,0,0,0-7.5-.7c-2.2,0-4.4.3-6.5.5S200.1,534.6,199,535.4Z" stroke="#000" stroke-linecap="round" stroke-linejoin="round"/></g><g opacity="0.92"><path d="M273.4,535.4c-.6.3-.5,1.4-.7,2s-.4,2.3-.5,3.5-.6,4.2-.7,6.4.1,3.9,1.3,5.5a11.2,11.2,0,0,0,4.1,3,24.8,24.8,0,0,0,10.5,1.8c2.9-.1,6.8-.7,8.9-2.9a7.4,7.4,0,0,0,1.8-5.4v-.2a36.1,36.1,0,0,0-1.9-10.8,4.5,4.5,0,0,0-4-3.4,47.7,47.7,0,0,0-7.6-.7c-2.2,0-4.3.3-6.5.5S274.6,534.6,273.4,535.4Z" stroke="#000" stroke-linecap="round" stroke-linejoin="round"/></g><path d="M276.3,552.5c6.1,1.3,12,2.3,18,.1" fill="none" stroke="#fff" stroke-linecap="round" stroke-miterlimit="10" opacity="0.3"/><path d="M201.8,552.5c6.1,1.3,12.1,2.3,18,.1" fill="none" stroke="#fff" stroke-linecap="round" stroke-miterlimit="10" opacity="0.3"/><path d="M190.2,354.1c-4.1-8-5.4-10.1-5.4-9.9a66.1,66.1,0,0,0,6.2,10.9,8.8,8.8,0,0,0,2.4,2.7,3.3,3.3,0,0,0,3.4.3c-.2-1.5-1.4-2.8-2.4-4.1a24.9,24.9,0,0,1-5.7-12.2,44.5,44.5,0,0,0,2.8,7.7,16.9,16.9,0,0,0,5.7,6.5,4.3,4.3,0,0,0,1.8.6,1.2,1.2,0,0,0,1.3-.9,2.5,2.5,0,0,0-.6-1.3c-1.6-2.3-3.6-4.5-5.1-6.9s-2.8-5-2.7-7.6c.3,3.6,2.4,7,4.7,10.2a6.5,6.5,0,0,0,2.7,2.5c4.1,1.2.7-4.6,0-5.7a34.7,34.7,0,0,1-4.4-10.8c-.3-1.5-1-4-.6-5.4s1.3-1.6,2.1,0c1.7,3.6,2.7,7.3,4.5,10.9a5.3,5.3,0,0,0,1.1,1.5,2.2,2.2,0,0,0,1.7.6c1.8-.3,1.2-3,1-4.3a87.2,87.2,0,0,0-5.1-17,12.3,12.3,0,0,0-2.1-3.9c-2.6-3-7.1-4.4-10.8-5.1a19.6,19.6,0,0,0-5.9-.2c-1.6.3-4,.7-5,1.8a5.8,5.8,0,0,0-1.3,2.6c-1.6,5.8-.1,12.4,1.4,18.8a40.3,40.3,0,0,0,3.7,9.2,31.9,31.9,0,0,0,6.5,8.7,4.1,4.1,0,0,0,1.9,1.2,1.5,1.5,0,0,0,1-.1c.6-.6.2-2.2-1.2-4.3" fill="#f8c59a" stroke="#1a1a1a" stroke-linecap="round" stroke-linejoin="round"/><path d="M186.7,319.3a10.8,10.8,0,0,1-.3,9.3c-.8,1.3-1.6,2.8-3.1,3.4" fill="none" stroke="#1a1a1a" stroke-linecap="round" stroke-linejoin="round" opacity="0.2"/><path d="M302.9,354.1c4-8,5.4-10.1,5.4-9.9a66.1,66.1,0,0,1-6.2,10.9,9.2,9.2,0,0,1-2.5,2.7,3.1,3.1,0,0,1-3.3.3c.2-1.5,1.4-2.8,2.4-4.1a24.7,24.7,0,0,0,5.6-12.2,37.1,37.1,0,0,1-2.7,7.7,16.9,16.9,0,0,1-5.7,6.5,4.3,4.3,0,0,1-1.8.6,1.2,1.2,0,0,1-1.3-.9,2.5,2.5,0,0,1,.6-1.3c1.6-2.3,3.6-4.5,5.1-6.9s2.8-5,2.7-7.6c-.3,3.6-2.4,7-4.7,10.2a6.5,6.5,0,0,1-2.7,2.5c-4.1,1.2-.7-4.6,0-5.7a34.7,34.7,0,0,0,4.4-10.8c.3-1.5,1-4,.6-5.4s-1.3-1.6-2.1,0c-1.8,3.6-2.7,7.3-4.6,10.9a3.6,3.6,0,0,1-1,1.5,2.2,2.2,0,0,1-1.7.6c-1.8-.3-1.3-3-1-4.3a87.2,87.2,0,0,1,5.1-17,12.3,12.3,0,0,1,2.1-3.9c2.6-3,7.1-4.4,10.7-5.1a20.4,20.4,0,0,1,6-.2c1.6.3,4,.7,5,1.8a5.8,5.8,0,0,1,1.3,2.6c1.6,5.8.1,12.4-1.4,18.8a36.5,36.5,0,0,1-3.8,9.2,29.6,29.6,0,0,1-6.4,8.7,4.7,4.7,0,0,1-1.9,1.2,1.9,1.9,0,0,1-1.1-.1c-.5-.6-.1-2.2,1.3-4.3" fill="#f8c59a" stroke="#1a1a1a" stroke-linecap="round" stroke-linejoin="round"/><path d="M306.4,319.3a22.2,22.2,0,0,0-.9,3.7,10.1,10.1,0,0,0,4.3,9.1" fill="none" stroke="#1a1a1a" stroke-linecap="round" stroke-linejoin="round" opacity="0.2"/><path d="M255.8,384.9l1.3,8.1c5,30.7,5.9,62.1,7.6,93.1.5,9.8.9,19.7,1.6,29.5.5,6-.1,12.8,2.2,18.6,1.4,3.6,1.9,3.3,5.4,3.4,6.4.1,17.3,2.4,23.4.2s2.8-8.6,2.1-12.8c-1.1-7.2-1.5-14.6-1.9-21.8-1-14.9-1.1-29.9-1-44.9.2-30,1.5-60-.3-90-.3-4.5-.6-9-1-13.5-1.9-19.8-4.4-39.6-5.5-59.5-.1-2-.3-4-.3-6s.1-4.5-2.7-5.8a18,18,0,0,0-7.3-1.5c-9.4-.5-18.8.2-28.2.3s-19.5.3-29.3-.1c-6.7-.2-18.7-.8-19.6,7.9-2.7,24.3-2.7,48.8-3.6,73.3s-3.5,47.7-4.2,71.6c-.4,16.5.5,32.9.9,49.4.3,9.9-.2,19.9-.6,29.9-.2,5-1.3,9.9-1.2,14.9.1,7,5.4,10.6,12.3,11.6,4.2.6,17.1,1.4,20-2.1s1.4-14.9,1.6-19.2.3-11.2.5-16.8c1.1-29.9,2.3-59.7,5.4-89.5.4-4.2.9-8.4,1.4-12.6,2.5-20.2,6.4-40.3,9.3-60.4" fill-rule="evenodd"/><path d="M302.5,258.3c1.3-3.2-.1-6.7-1.3-9.9A314.2,314.2,0,0,1,285,196c.7,13.5,1.5,27,1.9,40.6s.7,25,.8,37.5c3.7-3.9,7.5-7.7,11.4-11.5A14.1,14.1,0,0,0,302.5,258.3Z" fill="none"/><path d="M199,199.8a163.1,163.1,0,0,1-.4,40.1c-1.5,11.5-7,22.3,3.1,31.2A425.3,425.3,0,0,0,199,199.8Z" fill="none"/><path d="M321,246a311.7,311.7,0,0,0-2.6-39.8c-1.5-12.2-3.5-23-8.5-34a14.3,14.3,0,0,0-2.9-3.6c-12.6-11.8-31.7-19.9-48.9-23.1-22.6-4.3-45.7,6.5-65.1,16.4a41.6,41.6,0,0,0-7.3,4.4,33.7,33.7,0,0,0-4.6,5.3c-8.3,11.6-10.5,24.2-11.3,38a467.3,467.3,0,0,0-.3,48.8c.4,8.4.9,16.8,1.4,25.2s.7,16.9,1.5,25.3c.3,4,1,7.2,5.6,7.3s11.1.3,16.6.1,3.1-7.3,2.8-11.6c-.9-14.6-.5-29.6.1-44.3.1-3.5,4.2-60.6,2-60.6s.4,30.2.5,31.4c.3,10.4.8,20.7,1.1,31,.2,5.4.4,10.7.5,16s-2,13.3,2.6,15.9a8.2,8.2,0,0,0,3.9.6h60.5c5.5,0,13.6,1.6,18.7-.5s2.8-14.9,2.6-20.1l-1-26.3L287,196.2c.3,9.6,3.5,19.5,4.5,29.1s1.8,20.7,2,31.1-.9,21.9-.6,32.8c0,1.2.1,2.5.1,3.7a167.2,167.2,0,0,0,2,20,3,3,0,0,0,.8,2,3.8,3.8,0,0,0,2.2.7c4.9.5,16.6,3.1,20.4-.9,1.7-1.8,1.5-4.5,1.4-6.9C318.4,287.3,320.8,266.6,321,246Z" fill="#b1dbf2" stroke="#000" stroke-miterlimit="10"/><path d="M226.4,141.9c4-4.1,11.4-4,16.9-3.8s20.5-1.6,23.9,5.6A50.4,50.4,0,0,1,270,150c.1.5-12.1.6-13,.6s-34.6,1.3-34.5.3A17.1,17.1,0,0,1,226.4,141.9Z" fill="#fff" stroke="#000" stroke-linecap="round" stroke-linejoin="round"/></svg>