<?xml version="1.0" encoding="UTF-8"?>
<svg width="500px" height="600px" viewBox="0 0 500 600" version="1.1" xmlns="http://www.w3.org/2000/svg" xmlns:xlink="http://www.w3.org/1999/xlink">
    <!-- Generator: Sketch 63.1 (92452) - https://sketch.com -->
    <title>afraid</title>
    <desc>Created with Sketch.</desc>
    <g id="afraid" stroke="none" stroke-width="1" fill="none" fill-rule="evenodd">
        <g id="Group" transform="translate(195.000000, 41.000000)">
            <path d="M17.4678566,47.2320194 C28.3747338,37.1216624 39.2183396,32.066484 49.998674,32.066484 C66.1691757,32.066484 83.1702357,46.1480206 83.1702357,58.9176065 C83.1702357,71.6871923 66.1691757,109.314179 66.1691757,109.314179 C66.1691757,109.314179 34.3929362,130.889478 17.4678566,109.314179 C13.1234074,103.776079 13.1234074,83.0820256 17.4678566,47.2320194 Z" id="Path-86" fill="#EEDDC5"></path>
            <g id="sad" fill="#161616">
                <g id="Group-11" transform="translate(50.000000, 39.000000)" opacity="0.200000003">
                    <path d="M10.9,0.3 C10.4,0.4 10,0.6 9.5,0.7 C9,0.9 8.4,1 7.9,1.1 C5.9,1.6 3.8,2.1 1.8,2.8 C1.6,2.8 1.4,2.9 1.3,3.1 C1,3.5 0.9,4.1 0.9,4.5 C0.9,4.9 1,5.2 1.1,5.6 C1.2,5.8 1.5,6.4 1.8,6.3 C3.3,5.8 4.8,5.4 6.3,5.1 C7.1,4.9 7.9,4.8 8.7,4.6 C9,4.5 9.4,4.5 9.7,4.4 C10.1,4.3 10.4,4.3 10.8,4.3 C10.8,4.3 10.9,4.3 10.9,4.4 C12,5.6 12.8,7 13.5,8.4 C14.6,10.8 15.4,13.5 16.1,16.1 C16.3,17.1 16.6,18 16.7,19 C16.8,20 17,20.9 17.1,21.9 C17.2,24 17.3,26.1 17.2,28.2 C17.2,30.1 17.1,32.1 16.9,34 C16.7,35.6 16.5,37.1 16.3,38.6 C16,40.1 15.7,41.6 15.3,43.1 C14.6,46 13.9,49 13.1,51.9 C12.7,53.5 12.2,55 11.8,56.5 C11.3,58.1 10.8,59.6 10.3,61.2 C9.2,64.2 7.7,67.1 6.5,70 C6.2,70.7 5.9,71.3 5.7,72 C5.5,72.4 5.4,72.8 5.2,73.2 C5.1,73.5 5,73.9 4.9,74.2 C4.8,74.6 4.7,74.9 4.6,75.3 C4.5,75.8 4.5,76.3 4.5,76.8 C4.5,78.1 4.8,79.8 5.9,80.6 C6.2,80.8 6.5,80.9 6.8,80.9 C7,80.9 7.5,80.7 7.7,80.5 C8,80.3 8.3,79.9 8.5,79.6 C8.7,79.4 8.8,79.2 8.9,79.1 C9.6,78.3 10.3,77.3 10.9,76.3 C11.6,75.1 12.3,73.9 13,72.8 C14.2,70.7 15.3,68.6 16.4,66.5 C16.8,67.3 17.6,68.1 18.5,67.4 C19.4,66.7 19.8,65.6 20.3,64.6 C20.5,64.2 20.7,63.8 20.8,63.5 C21.1,62.8 21.4,62.2 21.6,61.5 C21.9,60.9 22.1,60.2 22.3,59.6 C22.6,59.8 23,59.8 23.3,59.5 L23.9,58.9 C24.1,58.6 24.3,58.2 24.4,57.8 C24.4,57.7 24.5,57.5 24.5,57.4 C24.7,56.8 24.8,56.3 24.9,55.7 C25.1,55 25.2,54.4 25.4,53.7 C25.5,53.1 25.7,52.6 25.8,52 C25.9,51.3 26.1,50.7 26.2,50 C26.3,49.2 26.4,48.4 26.6,47.7 C26.8,46.7 26.9,45.6 26.9,44.5 C27.4,42.4 28,40.3 28.5,38.2 C29.1,35.8 29.7,33.4 30.2,31 C30.3,30.8 30.3,30.6 30.3,30.4 C30.4,29.9 30.4,29.5 30.4,29 C30.4,27.9 30.2,26.5 29.5,25.5 C29.2,25 28.8,24.7 28.2,24.7 C27.3,24.7 26.7,25.8 26.4,26.5 C26.3,26.9 26.1,27.3 26,27.7 L25.8,27.5 C25.6,27.4 25.4,27.4 25.2,27.3 L25,27.1 C24.8,27 24.6,27 24.4,26.9 C23.9,27 23.5,27.2 23.2,27.7 C22.2,29.7 21.3,31.8 20.6,34 C20.6,33.6 20.6,33.2 20.7,32.8 C20.7,32.1 20.8,31.4 20.8,30.6 C20.8,29 20.7,27.4 20.6,25.8 C20.5,23.8 20.4,21.9 20.1,19.9 C19.8,18 19.5,16.1 18.9,14.3 C18.5,12.8 18,11.3 17.4,9.9 C16.8,8.4 16.2,6.8 15.4,5.4 C14.7,4.2 13.8,3.1 12.8,2 C12.4,1.6 12.1,1.2 11.7,0.8 C11.4,0.5 11,0.2 10.6,0.2 C11,0.3 10.9,0.3 10.9,0.3" id="Fill-1"></path>
                </g>
                <g id="Group-53">
                    <g id="Group-14">
                        <g id="Fill-12-Clipped">
                            <path d="M43.8,38.8 L44.6,38.8 C45.9,38.7 47.3,38.7 48.6,38.4 L49.2,38.3 L49.8,38.2 L50,38.2 L49.8,38.4 C49.4,38.8 49.1,39.2 48.7,39.6 C48.6,39.7 48.5,39.9 48.3,40 L47.7,40.6 C47.5,40.9 47.2,41.2 47,41.4 C46.9,41.5 46.9,41.6 46.9,41.6 L46.8,41.7 L46.7,41.8 C46.7,41.9 46.7,42.1 46.6,42.2 C46.6,42.6 46.9,43.1 47.2,43.3 C47.5,43.5 47.8,43.5 48.1,43.5 L48.6,43.5 C48.8,43.5 49.1,43.5 49.3,43.4 C50,43.3 50.6,43.2 51.2,43.1 L51.5,43.1 C52.5,42.9 53.6,42.8 54.6,42.4 C55.5,42 56.4,41.6 57.3,41.1 L57.8,40.8 C58.4,40.5 58.9,40.2 59.3,39.9 C59.3,40.4 59.3,40.9 59.4,41.4 C59.5,41.9 59.5,42.5 59.7,43.1 C59.8,43.3 59.8,43.4 59.9,43.6 C60,43.8 60.1,44 60.3,44.1 C60.4,44.3 60.8,44.4 61,44.5 C61.1,44.5 61.3,44.5 61.4,44.6 C61.4,45.1 61.5,45.7 61.5,46.2 L61.5,46.3 C61.7,47.8 62.1,49.2 62.5,50.3 L62.7,50.9 L62.8,51.1 C62.9,51.4 63,51.8 63.2,52.1 L63.3,52.5 C63.4,52.9 63.6,53.4 63.7,53.8 C63.8,54.1 63.9,54.5 64,54.8 L64,54.9 C64.2,55.8 64.5,56.7 64.8,57.6 C65.2,58.8 65.6,59.8 65.9,60.7 C66,61 66.1,61.3 66.3,61.6 C66.6,62.3 66.8,62.9 67,63.6 L67.9,66.6 L67.9,66.8 C68,67.2 68.1,67.7 68.2,68.1 C68.3,68.6 68.4,69 68.4,69.5 L68.7,72.2 C68.8,72.5 68.9,72.9 69,73.1 L69,73.2 C69.1,73.4 69.2,73.7 69.3,73.9 C69.4,74.2 69.5,74.4 69.7,74.6 C69.9,74.9 70.1,75.1 70.5,75.2 C70.6,75.2 70.8,75.3 71,75.3 C71.2,75.3 71.3,75.3 71.5,75.2 C71.6,75.1 71.8,75.1 71.9,75 C72,74.9 72.1,74.9 72.2,74.8 L72.5,74.5 C72.7,74.4 72.8,74.2 73,74.1 L73.1,74 L73.5,73.7 L73.9,73.3 C74.5,72.8 75.2,72.2 75.8,71.7 C76.1,71.5 76.3,71.3 76.6,71.2 C76.5,71.7 76.3,72.1 76.2,72.7 C76.1,72.9 76.1,73.2 76,73.4 L76,73.5 L75.7,74.4 L75.6,74.8 C75.3,75.8 75,76.9 74.9,78 L74.6,81.9 L75,83.5 C74.9,84.4 74.9,85.3 74.8,86.1 C74.8,86.6 74.7,87.1 74.7,87.5 C74.5,88.6 74.3,89.6 74.1,90.4 L74,90.4 L73.9,90.4 C73.6,90.4 73.3,90.5 73.1,90.5 L73,90.5 C72.7,90.5 72.5,90.6 72.2,90.6 C71.5,90.7 70.8,90.7 70.1,90.9 C69.6,91 69,91.2 68.4,91.5 C68,91.7 67.6,91.9 67.1,92.3 C66.1,93 65.2,93.7 64.3,94.4 C63.9,94.7 63.5,95.1 63.2,95.4 C62.9,95.7 62.6,96 62.3,96.4 C61.9,96.9 61.6,97.4 61.2,98.1 C61,98.4 60.9,98.7 60.7,99 L60.6,99.1 C60.4,99.4 60.3,99.7 60.1,99.9 C60,100 59.9,100.1 59.8,100.3 C59.6,100.5 59.5,100.7 59.4,100.9 C59.1,101.3 58.7,101.8 58.4,102.2 C58.1,102.6 57.7,103.1 57.4,103.5 C57.3,103.7 57.2,103.8 57,104 C56.9,104.2 56.8,104.3 56.7,104.5 C56.5,104.8 56.2,105.1 56,105.3 C55.8,105.5 55.6,105.7 55.4,106 C55.3,106.2 55.1,106.3 55,106.5 C54.7,106.9 54.4,107.2 54.1,107.6 C53.1,108.8 52.1,109.8 51.1,110.7 C50.7,110.9 50.3,111.2 49.8,111.4 C49.5,111.5 49.3,111.6 49,111.7 L48.8,111.8 C48.5,111.9 48.1,112 47.8,112.1 L47.1,112.1 C46.8,112 46.6,112 46.3,111.9 C46.2,111.9 46.2,111.8 46.1,111.8 C45.9,111.5 45.8,111.3 45.6,111 C45.5,110.9 45.5,110.7 45.4,110.6 C45.2,110.3 45,110.1 44.9,109.8 L44.9,109.7 C44.8,109.6 44.7,109.5 44.7,109.4 L44.4,109.1 C44.3,109 44.1,108.9 44,108.8 C43.9,108.7 43.7,108.6 43.5,108.6 C42.8,108.3 42.1,108.3 41.4,108.2 L39.7,108.2 C38.3,108.2 37.1,108.3 36,108.5 C35.3,108.6 34.7,108.9 34.2,109.4 C34.1,109.5 33.9,109.7 33.8,109.9 L33.7,110 L33.6,110.1 C33.3,110.4 33,110.8 32.7,111.1 C32.4,111.3 32.1,111.5 31.8,111.6 C31.7,111.6 31.5,111.7 31.4,111.7 L30.8,111.7 C30.6,111.7 30.3,111.6 30.1,111.5 C30,111.5 30,111.4 29.9,111.4 C29.7,111.2 29.4,110.9 29.2,110.6 C28.9,110.1 28.5,109.6 28.2,109.1 L28,108.8 C27.6,108.2 27.3,107.5 27,106.9 C26.8,106.4 26.6,105.9 26.5,105.4 C26.3,104.8 26.1,104.3 26,103.8 C25.7,102.9 25.3,102 25,101.1 L24.8,100.6 C24.6,100.1 24.3,99.5 24,99 C23.7,98.5 23.3,98 22.9,97.5 C22.6,97.1 22.2,96.7 21.8,96.2 C21.5,95.8 21,95.4 20.5,95 C20.2,94.8 19.9,94.7 19.5,94.6 C19.3,94.6 19.1,94.5 18.9,94.5 L18.4,94.5 C18,94.6 17.5,94.7 17,94.8 C16.7,94.9 16.5,95 16.2,95 L16.2,94.8 C16.1,94.1 16,93.5 15.9,92.8 C15.7,90.7 15.5,88.6 15.4,86.4 C15.3,85.2 15.3,84 15.2,83 C15.1,82 15.2,80.9 15.2,79.9 C15.2,78.8 15.3,77.6 15.4,76.5 C15.5,75.7 15.6,74.8 15.7,74 L15.8,73.3 L16.1,70 C16.2,68.9 16.1,67.8 16.1,66.8 C16.1,65.7 16.1,64.4 16.2,63.1 C16.3,61.7 16.5,60.2 16.6,58.7 C16.7,58.3 16.7,57.9 16.9,57.5 C17.3,57.2 17.6,56.9 18,56.7 C18.5,56.3 19,55.8 19.5,55.4 L19.6,55.4 C20.1,55 20.5,54.5 20.9,54.1 L21,54 C21.3,53.7 21.5,53.4 21.8,53.1 L22.2,52.7 C22.8,52.1 23.3,51.5 23.9,50.9 L24.2,50.6 C25.3,49.4 26.5,48.1 27.7,46.8 C28.4,46.1 29,45.4 29.7,44.8 L30.7,43.8 C31.3,43.2 31.9,42.6 32.4,42 C33,41.4 33.6,40.8 34.4,40.3 C35.1,39.8 35.7,39.4 36.3,39.1 L37.2,38.8 L37.5,38.8 C38.5,38.7 39.6,38.6 40.6,38.6 L41.4,38.6 C42.1,38.6 42.8,38.6 43.4,38.7 L44.3,38.7 C43.7,38.8 43.7,38.8 43.8,38.8 M72.7,0.2 L72.4,0.2 C72.1,0.3 71.8,0.4 71.5,0.6 C71.2,0.8 70.9,0.9 70.6,1.1 C69.7,1.5 68.7,1.7 67.8,2 C67.2,2.1 66.6,2.3 66,2.4 C65.5,2.5 65,2.6 64.6,2.6 L64.2,2.6 C63.8,2.7 63.3,2.7 62.8,2.7 L62.3,2.7 C61.8,2.7 61.3,2.8 60.8,2.8 L58.7,2.8 C57.9,2.8 57.2,2.7 56.5,2.7 C55.3,2.6 54,2.5 52.6,2.4 L52.2,2.4 C51.7,2.3 51.2,2.3 50.7,2.3 L48.7,2.3 C47.6,2.3 46.2,2.3 44.8,2.4 C43.8,2.5 42.8,2.6 41.8,2.9 L39.7,3.5 C39.3,3.6 38.8,3.8 38.4,3.9 L37.9,4.1 C37.7,4.2 37.5,4.2 37.3,4.3 L37,4.4 L36.9,4.4 C36.6,4.5 36.4,4.6 36.1,4.7 C35.5,5 34.8,5.3 34.2,5.6 C33.6,5.9 33,6.2 32.5,6.5 L32.3,6.6 C31.3,7.1 30.3,7.8 29.3,8.5 L29.2,8.6 C28.7,9 28.1,9.4 27.6,9.8 C27.1,10.2 26.5,10.7 25.8,11.2 C25.1,11.7 24.5,12.3 24,12.8 L23.9,12.9 C23.6,13.2 23.3,13.4 23.1,13.7 C22.5,14.2 22,14.7 21.5,15.1 C21.2,15.4 20.8,15.7 20.4,15.9 L19.8,16 C18.8,16.8 17.8,17.5 16.8,18.1 C16.5,18.3 16.1,18.6 15.8,18.8 C15.6,18.9 15.5,19 15.3,19.1 C15.1,19.2 15,19.3 14.8,19.4 L14.6,19.5 C14.2,19.7 13.8,20 13.3,20.2 C13.1,20.3 12.9,20.4 12.6,20.4 L12.4,20.5 C11.9,20.7 11.5,20.8 11.2,20.8 L10.7,20.8 L10.6,20.8 C10.5,20.8 10.4,20.8 10.3,20.9 C9.9,21.1 9.6,21.4 9.6,21.8 C9.6,22 9.7,22.2 9.8,22.5 C9.9,22.7 10,23 10.2,23.2 C10.4,23.7 10.8,24.1 11,24.4 C11.6,25.1 12.3,25.7 13.1,26.2 C13.3,26.3 13.6,26.4 13.8,26.5 L13.9,26.6 C14.3,26.7 14.6,26.8 15,26.9 C15.3,27 15.6,27 15.9,27 C15.4,27.4 15,27.8 14.6,28.1 C13.7,28.7 12.8,29.4 11.7,29.9 C11.3,30.1 10.9,30.3 10.6,30.4 L10,30.7 C9.7,30.8 9.5,31 9.2,31.1 L8.9,31.2 C8.1,31.5 7.2,31.9 6.3,32.2 C6.2,32.2 6.2,32.2 6.1,32.3 L6,32.3 C5.8,32.4 5.5,32.4 5.3,32.6 C5.1,32.7 4.9,32.9 4.8,33.1 C4.7,33.2 4.7,33.3 4.6,33.4 L4.6,33.5 C4.6,33.7 4.5,33.8 4.6,34 C4.8,34.6 5.1,35.1 5.3,35.5 C5.5,35.9 5.8,36.3 6,36.6 C6.3,37.1 6.7,37.5 7,37.9 L7.6,38.5 L7.8,38.6 C8,38.8 8.3,39 8.5,39.1 C8.8,39.3 9.2,39.5 9.6,39.7 C9.3,40 9,40.2 8.7,40.5 L8.3,40.9 C7.7,41.4 7.2,41.9 6.6,42.3 C6.1,42.7 5.5,43.1 4.9,43.5 L4.1,44 L3.8,44.2 C2.8,44.8 1.9,45.4 0.9,46 C0.5,46.2 0.4,46.7 0.6,47.1 L0.5,47.2 C0.3,47.4 0.2,47.6 0.1,47.8 C-1.0269563e-15,47.9 -1.0269563e-15,48.1 -1.0269563e-15,48.3 C-1.0269563e-15,48.7 0.2,49.2 0.6,49.5 C0.8,49.7 1,49.8 1.2,49.9 C1.4,50 1.5,50 1.7,50.1 C1.8,50.2 2,50.3 2.1,50.5 C2.3,50.7 2.5,50.9 2.7,51 C3,51.2 3.3,51.5 3.6,51.7 C4,52 4.5,52.2 5,52.4 C5.6,52.6 6.3,52.7 6.9,52.8 L7.4,52.8 C7.3,53 7.2,53.1 7.1,53.3 C6.7,54 6.4,54.6 6,55.1 C5.2,56 4.3,56.8 3.3,57.7 C3,58.1 2.5,58.5 2,58.8 L2,58.9 L1.5,59.3 L1.2,59.5 C1.1,59.6 1,59.7 0.8,59.8 C0.7,59.9 0.6,60 0.5,60.2 C0.3,60.4 0.3,60.7 0.4,61 C0.5,61.3 0.7,61.6 1,61.8 C1.3,62 1.7,62 2,62 L3.2,62 C3.8,62 4.4,62.1 4.9,62.2 C5.2,62.2 5.5,62.3 5.7,62.3 L5.8,62.3 C6.1,62.3 6.3,62.3 6.6,62.2 L6.7,62.2 C7.4,62.1 8,62 8.8,61.9 C9.4,61.8 9.9,61.6 10.6,61.3 C11.3,61 11.9,60.7 12.5,60.4 C13.1,60.1 13.7,59.8 14.2,59.4 C14.4,59.2 14.7,59.1 14.9,58.9 C14.8,59.3 14.8,59.7 14.7,60.2 L14.7,60.3 L14.6,61 L14.5,61.9 C14.4,62.4 14.4,63 14.3,63.5 L14.3,63.6 C14.3,64 14.2,64.4 14.2,64.8 L14.2,68.9 C14.2,69.3 14.2,69.7 14.1,70 L14.1,70.6 C14.1,71 14,71.4 14,71.7 C13.9,72.2 13.9,72.6 13.8,73.1 L13.8,73.4 C13.5,75.4 13.2,77.5 13.1,79.5 L13.1,79.6 C13,80.7 13,81.9 13,83 C13,83.9 13,84.9 13.1,85.8 L13.1,86.2 C13.2,87.7 13.3,89.6 13.4,91.6 C13.5,92.5 13.5,93.4 13.7,94.3 L14,96.1 L13.8,96.3 C13.7,96.5 13.6,96.8 13.7,97 C13.8,97.2 13.9,97.4 14.1,97.6 C14.2,98.5 14.3,99.4 14.5,100.3 L14.8,101.8 C14.8,101.9 14.9,102.1 14.9,102.2 C15,102.5 15,102.9 15.1,103.2 C15.4,104.4 15.6,105.4 15.9,106.3 C16,106.6 16.1,106.9 16.2,107.3 C16.4,108 16.6,108.8 16.9,109.5 C17.2,110.4 17.5,111.4 18,112.7 C18.4,113.9 18.9,114.9 19.4,115.8 C19.7,116.3 20,116.8 20.4,117.4 C20.6,117.8 20.9,118.1 21.1,118.5 L21.3,118.7 C21.5,119 21.8,119.4 22.1,119.7 L22.4,120 C22.7,120.4 23.1,120.9 23.5,121.3 L24.8,122.6 C25.2,122.9 25.6,123.3 25.9,123.6 C26.5,124.1 27,124.4 27.5,124.8 C27.9,125.1 28.3,125.3 28.8,125.6 L29.3,125.9 C30.1,126.3 30.9,126.8 31.7,127.2 C32.8,127.7 33.9,128.3 35,128.7 C35.4,128.9 35.9,129.1 36.3,129.2 C36.6,129.3 37,129.4 37.3,129.4 L37.5,129.4 C37.9,129.5 38.3,129.6 38.7,129.6 L39,129.7 C40,129.9 41.1,130 42.5,130.1 L45.1,130.1 C45.6,130 46.1,130 46.6,129.8 L47.5,129.5 C47.7,129.4 47.9,129.4 48.1,129.3 C48.2,129.3 48.3,129.2 48.3,129.2 C48.7,129 49.2,128.9 49.6,128.7 C49.7,128.6 49.9,128.6 50,128.5 C50.4,128.3 50.7,128.2 51.1,128 L51.5,127.8 L51.6,127.8 C52,127.6 52.5,127.4 52.9,127.2 C53.4,126.9 54,126.6 54.5,126.3 C54.9,126.1 55.2,125.9 55.5,125.7 L55.8,125.5 C56.2,125.3 56.5,125.1 56.8,124.8 L57,124.7 L57.3,124.5 C57.7,124.3 58,124 58.4,123.8 C58.8,123.5 59.3,123.1 59.8,122.7 C59.9,122.7 59.9,122.6 60,122.6 C60.1,122.5 60.3,122.4 60.4,122.3 L60.8,122 L61.2,121.7 C62.1,120.9 62.8,120.2 63.4,119.5 C64.1,118.6 64.8,117.7 65.5,116.7 C66.2,115.6 66.8,114.8 67.3,114 C67.9,113 68.4,112.1 68.9,111.1 C69.3,110.4 69.6,109.8 69.9,109.1 C70.3,108.3 70.7,107.4 70.9,106.8 L72.1,104.1 L73.3,101.4 C73.4,101.1 73.6,100.8 73.7,100.5 C73.9,100.1 74.1,99.6 74.3,99.2 L74.8,99.2 C75.1,99.2 75.5,99.1 75.8,98.9 C76,98.8 76.1,98.7 76.3,98.6 L76.4,98.6 L76.7,98.4 C77.8,97.8 78.8,97.1 79.8,96.3 C80.4,95.9 80.9,95.4 81.5,94.9 C81.8,94.6 82.2,94.3 82.5,94 L82.9,93.7 C83.5,93.2 83.9,92.8 84.3,92.5 C84.7,92.1 85,91.7 85.3,91.3 L85.5,91.1 C85.9,90.5 86.4,89.9 87,89.2 C87.3,88.8 87.6,88.4 87.9,87.9 L88.1,87.5 C88.5,86.9 88.9,86.2 89.3,85.5 C89.6,85.1 89.8,84.7 90.1,84.2 C90.7,83.2 91.4,82.2 92,81.3 C92.7,80.3 93.3,79.4 94,78.6 C94.8,77.5 95.8,76.6 96.8,75.8 C97.2,75.5 97.7,75.2 98.2,74.8 C98.4,74.7 98.6,74.6 98.7,74.5 L98.9,74.4 C99.5,74 100,73.6 100.2,73.2 C100.7,72.4 100.7,71.3 100.7,70.3 L100.7,67.6 C100.7,66.6 100.6,65.5 100.6,64.5 L100.6,64.2 C100.6,63.6 100.5,63 100.4,62.5 L100.4,62.1 C100.4,61.8 100.3,61.5 100.3,61.3 L100.2,60.7 L100.1,60.1 C99.9,58.8 99.5,57.5 99.3,56.5 C99,55.3 98.6,53.9 98.1,52.4 C97.8,51.3 97.3,50.2 96.9,48.9 C96.6,48.1 96.4,47.5 96.2,46.9 C96,46.3 95.8,45.7 95.6,45 C95.4,44.3 95.2,43.5 95.1,42.9 C95,42.3 95,41.7 95,41.2 C95,41.1 95,41 95.1,41 C95.1,41 95.1,40.9 95.2,40.9 C95.4,40.7 95.7,40.4 96,40.2 L96.1,40.2 C96.2,40.1 96.4,40 96.6,39.9 L96.8,39.8 L97.7,39.2 C97.9,39.1 98,39 98.2,38.9 C98.3,38.9 98.3,38.8 98.4,38.8 L98.6,38.7 C98.8,38.6 99.1,38.4 99.3,38.3 L101.1,37.4 L101.3,37.3 C101.8,37.1 102.3,36.8 102.8,36.5 C103.1,36.3 103.4,36.1 103.6,35.7 C103.7,35.5 103.8,35.3 103.8,35.1 L103.8,34.5 C103.8,34.4 103.7,34.2 103.6,34.1 C103.5,34 103.4,33.8 103.3,33.7 L102.9,33.3 C102.3,32.8 101.7,32.3 101.2,32 C100.7,31.6 100.1,31.2 99.6,30.8 L99.5,30.7 L98.3,29.8 C97.6,29.3 96.9,28.7 96.2,28.2 C94.7,26.9 93.4,25.8 92.3,24.6 C91.7,24 91.1,23.3 90.6,22.7 C90.3,22.4 90,22 89.7,21.7 L89.6,21.6 L95.9,21.6 C96.1,21.6 96.5,21.5 96.7,21.4 C96.8,21.3 96.9,21.2 97.1,21.1 L97.2,21.1 C97.4,20.9 97.5,20.6 97.5,20.3 C97.5,20 97.3,19.7 97.2,19.5 C97,19.2 96.7,19 96.4,18.8 C96.3,18.7 96.2,18.7 96.1,18.6 C95.9,18.4 95.6,18.2 95.4,18.1 C94.9,17.7 94.3,17.4 93.8,17 C93.2,16.6 92.6,16.3 92,15.9 L91.7,15.7 C91.3,15.4 90.8,15.2 90.4,14.9 C90.1,14.7 89.8,14.6 89.5,14.4 C89.2,14.2 88.9,14.1 88.6,13.9 L88,13.6 C87.9,13.6 87.8,13.5 87.7,13.5 L87.2,13.3 L86.7,13.1 C86.4,12.9 86,12.8 85.7,12.7 L85.5,12.6 C85.1,12.4 84.7,12.3 84.2,12.2 C83.7,12 83.1,11.9 82.5,11.7 L82,11.6 C81.5,11.5 81.1,11.4 80.6,11.2 C78.7,10.7 76.5,10.2 74.3,9.8 C73.6,9.7 72.9,9.6 72.3,9.5 C72,9.5 71.6,9.4 71.3,9.4 C70.8,9.3 70.2,9.2 69.7,9.1 C70,8.9 70.2,8.8 70.4,8.6 C71.2,8 71.8,7.3 72.4,6.7 C73.1,5.9 73.8,5 74.3,4 C74.6,3.5 74.8,2.9 75,2.4 C75.1,2.2 75.1,1.9 75.2,1.6 C75.2,1.2 75.2,0.9 75,0.7 C74.9,0.6 74.9,0.5 74.8,0.4 C74.7,0.3 74.6,0.2 74.4,0.2 L72.7,0.2" id="Fill-12"></path>
                        </g>
                    </g>
                    <path d="M20.3,54.9 C20.1,55 20,55.2 19.8,55.4 C19.7,55.5 19.6,55.6 19.5,55.8 C19.7,55.6 20,55.4 20.2,55.1 L20.3,55 C20.2,55 20.3,55 20.3,54.9 C20.4,54.9 20.5,54.8 20.5,54.7 C20.4,54.8 20.4,54.9 20.3,54.9" id="Fill-17"></path>
                    <path d="M75.3,55.9 C75,56 74.6,56 74.3,56.2 C74.1,56.3 73.8,56.5 73.6,56.6 C73,57 72.4,57.4 71.9,57.8 C71.2,58.3 70.7,59 70.3,59.7 C70,60.2 69.7,60.7 69.7,61.2 L69.7,61.5 C69.8,61.7 69.9,61.9 70,62 C70.2,62.2 70.4,62.4 70.7,62.4 C71.1,62.5 71.6,62.6 72,62.6 C72.8,62.6 73.5,62.5 74.3,62.4 C75,62.3 75.6,62.2 76.3,62.1 C77.9,61.9 79.4,61.8 81,61.8 C81.6,61.8 82.2,61.3 82.2,60.6 C82.2,60 81.7,59.4 81,59.4 C79.8,59.4 78.5,59.5 77.3,59.6 C76,59.7 74.6,60 73.3,60.2 C73.1,60.2 72.8,60.2 72.6,60.3 C72.9,59.9 73.3,59.6 73.6,59.3 L74.5,58.7 C74.7,58.5 75,58.4 75.2,58.3 C75.4,58.2 75.6,58.2 75.8,58.2 C76.1,58.2 76.4,57.9 76.5,57.7 C76.7,57.4 76.7,57.1 76.6,56.8 C76.5,56.5 76.3,56.3 76.1,56.1 C75.9,56 75.7,55.9 75.5,55.9 L75.3,55.9" id="Fill-21"></path>
                    <path d="M25.9,58.5 L25.9,58.3 C25.9,58.2 25.9,58.2 25.8,58.1 L26,57.9 L26.4,57.9 L26.3,58 C26.2,58.1 26.1,58.3 26,58.4 C26,58.5 26,58.5 25.9,58.5 C26,58.5 26,58.5 25.9,58.5 M32.8,55.8 C32.7,55.8 32.5,55.8 32.4,55.9 C32.3,55.9 32.3,55.9 32.3,56 C32.3,56 32.2,56 32.2,55.9 L31.6,55.9 C31.4,55.9 31.3,56 31.1,56.1 C31,56.1 30.9,56.2 30.8,56.3 L30.7,56.3 C30.5,56.2 30.4,56.2 30.2,56.2 C30,56.2 29.9,56.3 29.7,56.3 C29.6,56.3 29.6,56.4 29.5,56.4 C29.4,56.3 29.3,56.3 29.2,56.2 C28.9,56.1 28.5,56.2 28.3,56.4 C28.2,56.5 28,56.6 27.9,56.7 L27.7,56.9 L27.6,56.9 C27.5,56.9 27.4,57 27.4,57 C27.3,57.1 27.2,57.1 27.1,57.2 C26.8,57 26.6,57 26.3,57 C26.2,57 26,57 25.9,57.1 C25.8,57.1 25.8,57.2 25.7,57.2 C25.6,57.2 25.6,57.3 25.5,57.3 C25.4,57.4 25.3,57.5 25.2,57.5 L24.9,57.5 C24.6,57.5 24.3,57.7 24.1,57.9 C24,57.9 23.9,57.8 23.8,57.8 C23.6,57.8 23.5,57.8 23.3,57.9 C23,58 22.8,58.2 22.5,58.3 L22.4,58.4 C22.3,58.4 22.2,58.5 22,58.6 C21.8,58.7 21.5,58.9 21.3,59.1 C21.2,59.2 21.1,59.3 21,59.5 L20.9,59.5 C20.6,59.5 20.2,59.6 19.9,59.8 C19.8,59.9 19.6,60 19.5,60.1 L19.2,60.4 L19,60.6 C19,60.6 18.9,60.6 18.9,60.7 C18.6,60.9 18.4,61.2 18.3,61.4 L18.3,61.6 C18.3,61.9 18.2,62.1 18.2,62.4 C18.3,62.4 18.4,62.3 18.4,62.3 C18.8,62.2 19.1,62.1 19.5,62 L19.7,61.9 C19.8,61.8 19.9,61.8 20,61.7 C20,61.6 20.1,61.4 20.1,61.3 L20.1,61.1 L20.1,61 C20.2,60.9 20.2,60.9 20.3,60.9 C20.4,60.8 20.5,60.8 20.6,60.7 L20.6,60.8 C20.6,60.9 20.6,61 20.7,61.1 C20.7,61.2 20.8,61.3 20.9,61.3 C21.1,61.4 21.3,61.4 21.5,61.3 C21.6,61.3 21.8,61.2 21.9,61.1 L22.2,60.8 L22.4,60.8 C22.5,60.8 22.7,60.7 22.8,60.6 C22.9,60.5 23,60.4 23.2,60.3 C23.2,60.3 23.3,60.3 23.3,60.2 L23.4,60.3 C23.5,60.4 23.7,60.5 23.8,60.5 C24,60.5 24.1,60.4 24.3,60.3 L24.4,60.2 L24.7,60.2 C24.8,60.2 24.9,60.2 24.9,60.1 C25.2,60 25.4,59.8 25.6,59.6 C25.7,59.5 25.8,59.4 25.9,59.2 L25.9,59.3 C26,59.4 26.1,59.5 26.3,59.5 C26.6,59.5 26.9,59.3 27,59.1 C27.1,59 27.1,58.9 27.2,58.8 C27.2,58.8 27.3,58.8 27.3,58.9 C27.4,58.9 27.4,59 27.5,59 L28,59 C28.1,59 28.3,58.9 28.4,58.8 L28.5,58.7 C28.8,58.9 29.2,58.8 29.4,58.7 L29.5,58.6 C29.6,58.7 29.8,58.8 29.9,58.8 C30,58.8 30.1,58.8 30.1,58.7 C30.2,58.7 30.3,58.6 30.3,58.6 C30.4,58.5 30.6,58.4 30.7,58.4 C30.8,58.3 30.9,58.3 30.9,58.2 C30.9,58.3 30.9,58.3 31,58.4 C31.1,58.6 31.3,58.7 31.5,58.7 C31.7,58.7 31.9,58.6 32,58.5 C32.1,58.5 32.1,58.4 32.2,58.4 L32.3,58.5 C32.5,58.6 32.8,58.5 33,58.4 C33.1,58.3 33.2,58.2 33.2,58.1 C33.3,58.2 33.5,58.3 33.6,58.3 C33.7,58.3 33.8,58.3 33.9,58.2 C34,58.2 34,58.2 34,58.1 L34.1,58.2 C34.1,58.2 34.2,58.2 34.2,58.3 L34.5,58.3 C34.6,58.4 34.7,58.4 34.9,58.3 C35.1,58.2 35.2,57.8 35.2,57.6 L35.2,57.5 C35.2,57.5 35.2,57.4 35.3,57.4 C35.3,57.3 35.4,57.3 35.4,57.3 C35.5,57.2 35.6,57.1 35.5,56.9 C35.4,56.8 35.3,56.7 35.1,56.8 C35.1,56.7 35,56.7 34.9,56.7 L34.9,56.6 L34.6,56.3 C34.5,56.3 34.4,56.2 34.3,56.2 L34.1,56.2 C34,56.2 33.9,56.3 33.8,56.3 L33.2,56.3 L32.9,56 C32.8,56 32.8,55.9 32.7,55.9 C32.9,55.8 32.9,55.8 32.8,55.8" id="Fill-27" transform="translate(26.870711, 59.100000) scale(1, -1) rotate(19.000000) translate(-26.870711, -59.100000) "></path>
                    <path d="M44.5,56.5 L44.8,56.2 L44.9,56.1 C44.8,56.2 44.8,56.3 44.7,56.4 C44.6,56.5 44.5,56.6 44.5,56.7 L44.4,56.8 C44.4,56.7 44.4,56.6 44.5,56.5 L44.5,56.5 Z M47.7,55.8 C47.7,55.7 47.8,55.7 47.9,55.6 C47.8,55.7 47.8,55.8 47.7,55.8 Z M51,54.3 C50.9,54.3 50.8,54.3 50.7,54.4 C50.6,54.4 50.5,54.5 50.4,54.5 C50.4,54.5 50.3,54.5 50.3,54.6 C50.3,54.6 50.2,54.6 50.2,54.5 C50.1,54.5 50.1,54.4 50,54.4 L49.4,54.4 C49.2,54.4 49.1,54.5 48.9,54.6 C48.8,54.6 48.8,54.7 48.7,54.7 C48.5,54.6 48.2,54.6 48,54.6 C47.7,54.6 47.4,54.8 47.1,55 L47,55 C46.8,55 46.7,55 46.5,55.1 C46.2,55.2 46,55.4 45.8,55.6 C45.7,55.4 45.4,55.3 45.1,55.3 L45,55.3 L44.9,55.2 C44.9,55.2 44.8,55.1 44.7,55.1 C44.4,55.1 44.1,55.3 43.9,55.5 L43.3,56.1 C43.2,56.2 43.2,56.4 43.1,56.5 C43,56.7 43,56.8 43,57 C43,57.3 43.2,57.5 43.4,57.6 C43.5,57.7 43.7,57.7 43.8,57.7 L44.1,57.7 C44.4,57.8 44.7,57.8 45.1,57.8 C45.4,57.8 45.7,57.6 46,57.5 L46.5,57.5 C46.8,57.5 47.1,57.4 47.3,57.2 L47.4,57.2 C47.6,57.2 47.7,57.2 47.9,57.1 C48,57.1 48.1,57.2 48.2,57.2 C48.6,57.3 49,57.2 49.3,57.1 C49.5,57 49.7,57 49.9,56.9 C50,56.9 50.2,56.9 50.3,57 L50.8,57 C51,57 51.2,56.9 51.3,56.9 C51.4,56.9 51.6,56.8 51.7,56.8 L52.1,56.8 C52.2,56.9 52.2,56.9 52.3,56.9 C52.4,57 52.6,57 52.8,57.1 C53,57.1 53.2,57.2 53.3,57.2 L53.7,57.2 C53.8,57.3 54,57.3 54.1,57.4 C54.3,57.5 54.4,57.5 54.6,57.5 L55.3,57.5 C55.3,57.5 55.4,57.5 55.4,57.6 C55.5,57.7 55.7,57.7 55.9,57.8 C56.1,57.8 56.3,57.9 56.5,57.9 C56.6,58.1 56.7,58.2 56.9,58.3 C57.2,58.5 57.5,58.5 57.8,58.6 C58.1,58.6 58.4,58.7 58.7,58.6 C58.8,58.7 58.8,58.8 58.9,58.9 C59.1,59.1 59.4,59.3 59.7,59.4 C59.9,59.5 60.2,59.5 60.4,59.6 C60.5,59.8 60.7,59.9 60.8,60 C60.9,60.1 61,60.1 61.2,60.2 C61.4,60.3 61.6,60.3 61.7,60.4 C61.9,60.5 62.2,60.7 62.4,60.9 C62.7,61.1 62.9,61.3 63.1,61.6 L63.3,61.8 C63.3,61.8 63.4,61.8 63.4,61.7 C63.5,61.6 63.5,61.5 63.6,61.4 C63.6,61.2 63.6,61 63.5,60.9 C63.4,60.8 63.3,60.7 63.1,60.7 L62.9,60.7 L62.8,60.7 C62.9,60.6 63,60.6 63.1,60.6 C63.3,60.6 63.4,60.4 63.4,60.2 C63.4,59.9 63.2,59.8 63,59.8 L62.6,59.8 C62.4,59.8 62.3,59.7 62.1,59.7 C62,59.7 61.9,59.6 61.8,59.6 C61.9,59.5 61.9,59.5 61.9,59.4 C62,59.2 61.9,59 61.7,58.9 C61.6,58.8 61.5,58.8 61.4,58.8 L60.8,58.8 L60.5,58.8 C60.3,58.8 60.1,58.7 59.9,58.6 L60,58.6 C60.1,58.6 60.2,58.5 60.2,58.4 C60.3,58.3 60.3,58.1 60.3,57.9 C60.2,57.7 60.1,57.6 59.9,57.5 L59.4,57.5 C59.3,57.5 59.1,57.6 59,57.6 C58.9,57.6 58.8,57.7 58.8,57.8 L58.1,57.8 L58,57.8 C58.1,57.7 58.3,57.7 58.4,57.6 C58.5,57.5 58.6,57.5 58.7,57.4 C58.8,57.3 58.8,57.3 58.8,57.2 L58.8,57 L58.8,56.8 C58.8,56.7 58.7,56.6 58.7,56.6 C58.7,56.6 58.6,56.5 58.5,56.5 C58.4,56.5 58.3,56.4 58.2,56.4 L58,56.4 C57.7,56.4 57.4,56.5 57.1,56.7 C57.1,56.6 57.1,56.5 57.2,56.4 L57.2,56.2 C57.2,56.1 57.1,56 57.1,56 C57,55.9 56.8,55.8 56.7,55.7 L56.2,55.7 C56.2,55.6 56.1,55.5 56,55.4 C55.9,55.3 55.7,55.2 55.5,55.1 L54.9,55.1 C54.8,55.1 54.8,55.1 54.7,55.2 C54.7,55.2 54.7,55.1 54.6,55.1 C54.5,55 54.4,55 54.3,55 C54.2,55 54.2,54.9 54.1,54.9 L53.8,54.9 C53.7,54.9 53.6,54.9 53.5,55 C53.4,55 53.3,55.1 53.2,55.1 C53,55.2 52.9,55.3 52.7,55.4 C52.6,55.3 52.5,55.3 52.4,55.3 L51.8,55.3 C51.7,55.3 51.6,55.4 51.5,55.4 C51.5,55.3 51.4,55.2 51.4,55.2 C51.4,55.2 51.4,55.1 51.3,55.1 C51.2,55 51.1,55 51,55 C50.9,55 50.8,54.9 50.7,54.9 C51.1,54.3 51,54.3 51,54.3 L51,54.3 Z" id="Fill-29" transform="translate(53.300000, 58.050000) scale(1, -1) rotate(-13.000000) translate(-53.300000, -58.050000) "></path>
                    <path d="M53.1,63.4 C52.2,63.5 51.2,63.6 50.3,63.7 C49.4,63.8 48.5,64 47.7,64.3 C46.9,64.6 46.1,65 45.3,65.4 C44.9,65.6 44.7,66.2 45,66.6 C45.3,67 45.8,67.1 46.2,66.9 C46.6,66.7 47.1,66.5 47.5,66.3 C48.1,66.1 48.7,65.9 49.4,65.7 C50,65.6 50.7,65.4 51.3,65.4 C52.1,65.3 53,65.2 53.8,65.2 C54.6,65.2 55.4,65.2 56.2,65.3 C57,65.4 57.7,65.6 58.5,65.9 C58.7,66 59,66 59.2,66.1 C59.5,66.2 59.8,66.3 60.2,66.3 C60.5,66.3 60.9,66.1 61,65.7 C61.1,65.4 60.9,65 60.6,64.8 C60.5,64.7 60.4,64.7 60.2,64.6 C60,64.5 59.8,64.4 59.6,64.4 C59.3,64.3 59.1,64.2 58.8,64.1 C58.5,64 58.2,63.9 57.8,63.8 C57.1,63.6 56.4,63.5 55.6,63.4 L54.8,63.4 C54.2,63.3 53.6,63.3 53.1,63.4" id="Fill-31"></path>
                    <path d="M53.4,66.9 C53.5,67 53.6,67 53.7,67.1 C53.8,67.2 53.9,67.2 53.9,67.3 L53.9,67.9 C53.9,68 53.9,68.1 53.8,68.2 C53.7,68.3 53.7,68.5 53.6,68.6 L53.4,68.8 L53.2,68.8 C53.1,68.8 53,68.8 52.9,68.7 C52.8,68.7 52.8,68.6 52.7,68.6 L52.6,68.5 C52.6,68.5 52.6,68.4 52.5,68.4 L52.5,68.2 L52.5,68 C52.5,67.9 52.5,67.8 52.6,67.8 C52.7,67.7 52.7,67.6 52.8,67.5 C52.9,67.3 53.1,67.2 53.3,67 C53.3,67 53.3,66.9 53.4,66.9 M52.6,64.6 C52.1,64.6 51.7,64.8 51.3,64.9 C51.1,65 50.8,65 50.6,65.1 C50.2,65.2 50,65.6 50.1,65.9 C50.1,66 50.1,66 50.2,66.1 C50.1,66.3 50,66.5 50,66.6 C49.8,67 49.7,67.4 49.7,67.8 C49.6,68.2 49.6,68.6 49.7,69.1 C49.7,69.3 49.8,69.5 49.9,69.7 L50.2,70.3 C50.7,71 51.5,71.4 52.3,71.6 C52.5,71.7 52.7,71.7 52.9,71.7 C53.1,71.7 53.3,71.7 53.5,71.6 C53.9,71.5 54.3,71.4 54.6,71.2 C54.8,71.1 54.9,71 55,70.9 C55.2,70.8 55.4,70.6 55.5,70.4 C55.7,70.2 55.8,69.9 55.8,69.7 C56,69.4 56.1,69.2 56.2,68.9 C56.4,68.5 56.4,68 56.4,67.6 C56.3,67.2 56.1,66.8 55.9,66.4 C55.8,66.2 55.7,66.1 55.5,65.9 C55.4,65.7 55.2,65.6 55.1,65.4 C55,65.3 54.8,65.1 54.6,65 L54,64.7 C53.8,64.6 53.6,64.6 53.4,64.6 L52.6,64.6 C52.7,64.6 52.7,64.6 52.6,64.6" id="Fill-33"></path>
                    <path d="M52.3,71.1 C51.9,71.2 51.5,71.2 51.1,71.3 C50.9,71.4 50.7,71.4 50.5,71.5 C50.3,71.6 50.1,71.6 50,71.7 C49.9,71.7 49.8,71.8 49.7,71.9 C49.6,72 49.6,72.1 49.7,72.3 C49.8,72.5 50,72.7 50.3,72.6 C50.5,72.5 50.7,72.5 50.8,72.4 C51,72.3 51.2,72.3 51.4,72.2 C51.8,72.1 52.2,72 52.7,72 C53.8,71.9 54.9,71.8 56.1,71.9 L56,71.9 C56.2,71.9 56.4,72 56.6,72 C56.9,72.1 57.2,72.1 57.5,72.2 C57.6,72.2 57.8,72.2 57.9,72.1 C58,72 58.1,71.9 58.1,71.8 C58.2,71.5 58,71.2 57.7,71.2 C57.3,71.1 57,71.1 56.6,71 C56.4,71 56.3,71 56.1,70.9 L55,70.9 C54,70.9 53.2,71 52.3,71.1" id="Fill-35"></path>
                    <path d="M28.5,64.9 C28.1,64.9 27.7,64.9 27.3,65 C27.1,65 26.9,65 26.6,65.1 C26,65.2 25.4,65.2 24.8,65.4 C24.3,65.5 23.8,65.7 23.3,65.8 C22.8,65.9 22.4,66.1 22,66.3 C21.6,66.4 21.3,66.6 20.9,66.7 C20.2,67 19.6,67.4 19,67.7 C18.9,67.8 18.7,67.9 18.6,68 C18.4,68.1 18.3,68.3 18.2,68.5 C18.1,68.7 18.2,69 18.3,69.2 C18.5,69.6 19.1,69.8 19.5,69.5 C19.9,69.2 20.3,69 20.7,68.7 L21.9,68.1 C22.5,67.9 23.1,67.6 23.7,67.5 C24,67.4 24.4,67.3 24.7,67.2 C25,67.1 25.3,67.1 25.6,67 C26,67 26.5,66.9 26.9,66.9 L27.7,66.9 C28.2,66.9 28.7,66.9 29.2,67 C29.4,67 29.5,67.1 29.7,67.1 C30.1,67.2 30.5,67.3 30.8,67.4 C31.2,67.5 31.5,67.6 31.8,67.8 C32.3,68 32.7,68.2 33.2,68.4 C33.6,68.6 34,68.7 34.4,68.8 C34.8,68.9 35.3,68.7 35.5,68.4 C35.8,67.9 35.6,67.4 35.2,67.1 C34.9,66.9 34.5,66.7 34.1,66.6 C33.6,66.4 33.1,66.1 32.6,65.9 C32.4,65.8 32.1,65.7 31.9,65.6 C31.6,65.5 31.3,65.4 31.1,65.3 C30.7,65.2 30.2,65.1 29.8,65.1 C29.4,64.9 29,64.9 28.5,64.9 L28.5,64.9 Z" id="Fill-37"></path>
                    <path d="M28.9,68.8 C29,68.9 29.1,69 29.3,69 C29.3,69 29.4,69 29.4,69.1 L29.5,69.2 C29.5,69.2 29.5,69.3 29.6,69.3 L29.6,69.9 C29.6,69.9 29.5,69.9 29.5,70 C29.3,70.1 29.2,70.1 29,70.1 L28.6,70.1 C28.5,70.1 28.4,70 28.3,70 C28.1,70 28,70 28,69.9 L28,69.8 L28,69.6 C28,69.5 28.1,69.4 28.1,69.3 C28.1,69.2 28.2,69.2 28.2,69.1 L28.3,69 C28.4,69 28.4,68.9 28.5,68.9 L28.7,68.9 C28.7,68.8 28.8,68.8 28.9,68.8 M27.3,66 L27,66 C26.9,66 26.8,66.1 26.7,66.1 C26.5,66.2 26.3,66.4 26.2,66.5 L26,66.7 C25.9,66.8 25.8,66.8 25.7,66.9 C25.3,67.2 25,67.6 24.9,68.1 C24.9,68.2 24.8,68.2 24.8,68.3 C24.6,68.6 24.5,68.8 24.4,69.1 C24.3,69.3 24.3,69.6 24.3,69.9 C24.3,70.2 24.3,70.4 24.4,70.7 C24.5,71.2 24.9,71.7 25.3,72.1 C25.5,72.3 25.8,72.5 26.1,72.7 C26.3,72.8 26.5,73 26.7,73 C26.8,73.1 27,73.1 27.1,73.2 C27.2,73.2 27.4,73.3 27.6,73.3 C28.2,73.4 28.7,73.3 29.2,73.2 C29.7,73.1 30.1,72.9 30.5,72.6 C31,72.3 31.4,71.9 31.7,71.4 C31.8,71.2 31.9,71 32,70.7 C32.1,70.5 32.1,70.3 32.2,70.1 C32.3,69.9 32.3,69.6 32.4,69.4 L32.4,69.3 L32.4,69 C32.4,68.9 32.3,68.8 32.3,68.6 C32.3,68.5 32.2,68.4 32.1,68.3 C32,68.2 32,68.1 31.9,68.1 C31.8,68 31.8,67.9 31.7,67.8 C31.6,67.6 31.4,67.4 31.2,67.3 C30.9,67.1 30.6,66.9 30.3,66.8 C30.1,66.7 29.8,66.6 29.6,66.5 C29.3,66.4 29,66.4 28.7,66.3 L28,66.3 L27.9,66.2 C27.8,66.2 27.7,66.1 27.7,66.1 C27.4,66 27.3,66 27.3,66" id="Fill-39"></path>
                    <path d="M32.3,72 C31.1,72.2 29.8,72.2 28.6,72.4 C27.9,72.5 27.2,72.6 26.6,72.7 L24.8,73 C24.5,73.1 24.1,73.1 23.8,73.2 C23.5,73.3 23.4,73.6 23.5,73.8 C23.6,74.1 23.8,74.2 24.1,74.1 C24.5,74 24.9,73.9 25.4,73.9 C25.7,73.8 26,73.8 26.4,73.7 C27,73.6 27.7,73.5 28.3,73.5 L28.2,73.5 C28.6,73.5 29,73.4 29.4,73.4 C29.7,73.4 30.1,73.4 30.4,73.3 L31.1,73.3 C31.2,73.4 31.3,73.4 31.5,73.4 L32,73.4 C32.1,73.4 32.3,73.4 32.4,73.3 L32.5,73.3 C32.6,73.3 32.7,73.2 32.8,73.2 C32.9,73.1 33,73.1 33,73 C33.1,72.9 33.1,72.7 33.1,72.5 C33.1,72.4 33,72.3 32.9,72.2 C32.7,72.1 32.5,72 32.3,72" id="Fill-41"></path>
                    <path d="M36.5,58.7 C36.2,58.8 36,59.1 36.1,59.4 C36.3,60.1 36.4,60.8 36.5,61.4 C36.6,62.4 36.7,63.3 36.7,64.3 C36.7,65.1 36.7,65.9 36.6,66.7 C36.5,68.4 36.4,70.1 36.2,71.8 C36.1,72.2 36.1,72.5 36,72.9 C35.9,73.3 35.9,73.7 35.8,74.1 C35.7,74.9 35.5,75.8 35.4,76.6 C35.3,77 35.3,77.4 35.2,77.8 C35,78.3 35,78.7 34.9,79 L34.3,81.4 C34,82.4 33.7,83.5 33.6,84.6 L33.6,84.8 C33.6,85.2 33.8,85.5 34,85.8 C34.5,86.4 35.3,86.6 36.1,86.6 C36.7,86.6 37.4,86.5 38,86.5 C38.2,86.5 38.4,86.4 38.6,86.3 C38.8,86.1 38.8,85.9 38.8,85.7 C38.8,85.5 38.7,85.3 38.6,85.1 C38.4,84.9 38.2,84.9 38,84.9 L35.8,84.9 C35.7,84.9 35.6,84.9 35.5,84.8 L35.5,84.6 C35.6,84.2 35.6,83.9 35.7,83.5 L36,82.3 C36.2,81.5 36.4,80.8 36.6,80 C36.8,79.2 36.9,78.4 37.1,77.6 C37.2,76.8 37.4,76 37.5,75.2 C37.6,74.4 37.8,73.5 37.9,72.7 C38,71.8 38.1,71 38.1,70.1 C38.1,69.4 38.2,68.6 38.2,67.9 L38.2,66.7 L38.2,65.4 C38.2,64.8 38.2,64.1 38.1,63.5 C38.1,63.1 38,62.7 38,62.2 C37.9,61.7 37.9,61.2 37.8,60.7 C37.7,60.2 37.6,59.7 37.4,59.3 C37.3,59 37.1,58.9 36.8,58.9 C36.6,58.7 36.5,58.7 36.5,58.7" id="Fill-43"></path>
                    <path d="M53,67.5 L53.2,67.5 L53.3,67.6 C53.4,67.7 53.4,67.8 53.5,67.9 L53.5,68.1 C53.4,68.2 53.4,68.3 53.3,68.3 C53.3,68.3 53.2,68.3 53.2,68.4 C53.2,68.4 53.1,68.4 53.1,68.5 L52.8,68.5 L52.7,68.4 C52.7,68.3 52.6,68.3 52.6,68.2 L52.6,68.1 C52.6,68.1 52.7,68 52.7,67.9 C52.7,67.8 52.8,67.7 52.9,67.6 C52.9,67.5 52.9,67.5 53,67.5 C52.9,67.5 53,67.5 53,67.5 M52.5,65.8 L52.4,65.8 C52.3,65.8 52.2,65.9 52,65.9 C51.8,66 51.7,66.1 51.6,66.2 C51.5,66.3 51.4,66.4 51.3,66.6 C51.3,66.7 51.2,66.8 51.2,66.8 C51.2,66.9 51.1,67 51.1,67.1 L51.1,67.4 C51.1,67.5 51.1,67.7 51.2,67.8 L51.2,68 C51.2,68.5 51.4,69 51.8,69.3 C52,69.5 52.3,69.6 52.6,69.7 C52.7,69.7 52.9,69.7 53,69.8 L53.5,69.8 C53.6,69.8 53.7,69.7 53.8,69.7 C53.9,69.6 54.1,69.6 54.2,69.5 C54.4,69.4 54.5,69.2 54.7,69.1 C54.8,69 54.9,68.9 54.9,68.8 C55,68.7 55.1,68.5 55.1,68.3 C55.1,68.2 55.1,68.1 55.2,67.9 L55.2,67.4 C55.2,67.3 55.2,67.2 55.1,67.2 L54.8,66.6 C54.7,66.4 54.6,66.3 54.4,66.2 L54.1,65.9 C53.8,65.7 53.4,65.6 53,65.6 C52.8,65.8 52.6,65.8 52.5,65.8" id="Fill-49"></path>
                    <path d="M28.4,68.9 L28.6,68.9 C28.8,69 28.9,69 29.1,69.1 L29.1,69.8 L28.9,70 C28.8,70 28.8,70.1 28.7,70.1 L28,70.1 L27.9,70.1 L27.9,70 L27.9,69.7 L27.9,69.5 C27.9,69.4 28,69.3 28.1,69.2 C28.1,69.1 28.2,69.1 28.2,69 L28.3,68.9 L28.4,68.9 Z M28.2,68 C28,68 27.9,68.1 27.8,68.1 C27.7,68.1 27.6,68.2 27.6,68.2 C27.5,68.3 27.4,68.3 27.3,68.4 L27,68.7 C26.9,68.8 26.8,69 26.7,69.1 C26.6,69.3 26.6,69.5 26.5,69.7 C26.5,69.9 26.4,70 26.5,70.2 C26.5,70.3 26.5,70.3 26.6,70.4 C26.6,70.5 26.7,70.6 26.7,70.6 C26.8,70.8 26.9,70.9 27.1,71.1 C27.2,71.2 27.4,71.3 27.6,71.3 C27.8,71.4 28.1,71.4 28.3,71.4 L28.6,71.4 C28.9,71.4 29.1,71.3 29.3,71.2 C29.5,71.1 29.8,70.9 30,70.7 C30.1,70.6 30.2,70.4 30.3,70.3 C30.5,70 30.5,69.6 30.6,69.3 L30.6,68.8 L30.6,68.5 C30.6,68.4 30.5,68.3 30.5,68.2 C30.4,68 30.2,67.9 30.1,67.8 C29.8,67.6 29.5,67.6 29.2,67.6 L28.9,67.6 C28.5,67.6 28.3,67.8 28.2,68 L28.2,68 Z" id="Fill-51"></path>
                </g>
            </g>
        </g>
        <path d="M227.977586,142.883216 C227.990643,142.855486 228.005441,142.829545 228.02198,142.801368 C228.157337,142.643933 228.29313,142.513333 228.440238,142.393468 C228.603015,142.274944 228.775368,142.173864 228.968176,142.084859 C229.779015,141.744496 230.523263,141.498951 231.244009,141.333912 L231.418973,141.29187 C232.088796,141.135329 232.781252,140.972974 233.482412,140.862054 C233.960733,140.809278 234.436442,140.794071 234.922162,140.781995 L235.115841,140.780206 L235.187219,140.780206 L235.235095,140.776628 L235.23466,140.7811 L235.284276,140.781995 L235.331717,140.781995 L235.390473,140.780206 L235.390038,140.784678 L235.437478,140.7811 L235.437043,140.785573 L235.490141,140.788704 L235.538452,140.786467 L235.538017,140.790493 L235.583716,140.787809 L235.583281,140.792282 L235.641167,140.797649 C235.783924,140.806147 235.912752,140.820459 236.038535,140.837902 C236.088151,140.842822 236.135592,140.848189 236.184338,140.855345 L236.148649,140.843717 L236.092939,140.822248 L236.569084,140.897388 L236.633498,140.907675 L236.697913,140.917961 L236.741871,140.926907 C236.77756,140.934063 236.812379,140.940772 236.847198,140.949717 C236.86983,140.954189 236.885498,140.956873 236.899861,140.961793 L236.988648,140.977447 L236.443301,141.052586 C235.061437,141.237304 233.495469,141.447069 231.985211,141.753441 C231.133895,141.923399 230.340901,142.123324 229.560528,142.364843 C229.160984,142.488734 228.764922,142.630515 228.429358,142.750828 L228.385399,142.767376 C228.384964,142.767376 228.342746,142.782136 228.342311,142.782583 L228.293565,142.804051 L228.293565,142.799579 C228.292694,142.799579 228.243078,142.814338 228.242643,142.815233 C228.242207,142.815233 228.183451,142.831334 228.183451,142.831334 C228.135575,142.845199 228.086829,142.857275 228.037648,142.868009 L227.98629,142.88098 L227.977586,142.883216 Z M227.880964,134.589251 L227.880964,134.557943 C227.882705,134.477436 227.876176,134.398272 227.865731,134.311056 C228.232632,134.072667 228.636093,133.85351 229.09744,133.644641 C229.73201,133.387467 230.344382,133.201855 230.917584,133.092723 L231.193087,133.042183 L231.449874,132.99701 L231.748879,132.941103 C232.039179,132.900849 232.331656,132.862385 232.624132,132.835997 C233.067635,132.801111 233.514619,132.785457 233.932878,132.771592 C234.012526,132.769803 234.090867,132.769803 234.170515,132.769803 C234.447758,132.769803 234.725002,132.781879 235.000069,132.793955 L235.215945,132.806478 C235.603737,132.826157 235.976732,132.845389 236.34668,132.874461 C236.841975,132.960782 237.34728,133.100774 237.753353,133.213483 L237.806016,133.229137 L237.937021,133.265813 C238.158119,133.327087 238.378782,133.388361 238.603362,133.467973 L238.590305,133.535062 C238.55244,133.524328 238.509352,133.522539 238.467135,133.522539 L238.419259,133.524328 L238.373559,133.532379 L238.373559,133.527906 L238.329166,133.533273 C238.24386,133.546244 238.180316,133.564134 238.106326,133.592759 C238.081518,133.595442 238.060627,133.596337 238.042347,133.596337 C238.007093,133.596337 237.98185,133.592759 237.957477,133.589181 C237.690244,133.552505 237.425187,133.518961 237.158389,133.489442 C236.743612,133.44248 236.327094,133.398648 235.908835,133.36734 C235.614183,133.34453 235.286452,133.333796 234.906929,133.333796 C234.515655,133.333796 234.123075,133.34453 233.732236,133.356606 L233.280029,133.370471 C232.369956,133.393281 231.529957,133.456792 230.712154,133.564581 C230.519781,133.59097 230.327408,133.616911 230.140693,133.655375 C229.963989,133.691156 229.795118,133.756903 229.631906,133.819966 C229.342476,133.934912 229.068715,134.055671 228.794953,134.175984 C228.5843,134.268567 228.373212,134.362938 228.160819,134.459099 L228.113814,134.48012 L228.00457,134.528871 C227.963223,134.548103 227.924052,134.567783 227.88314,134.588804 L227.880964,134.589251 Z M234.464733,131 C234.145272,131 233.825375,131.00492 233.505479,131.021021 C232.680278,131.062169 231.846806,131.168617 231.028133,131.337233 C230.007947,131.544761 229.243678,131.771074 228.549917,132.070737 C228.07029,132.27916 227.597192,132.529625 227.104508,132.836444 C226.886022,132.972858 226.667099,133.137897 226.394644,133.371366 L226.328488,133.43264 C226.075618,133.528353 225.853214,133.713518 225.703494,133.952355 L225.632115,134.062828 C225.558561,134.174195 225.482831,134.289588 225.429732,134.41974 C225.322665,134.675572 225.212116,134.950189 225.138997,135.246721 C224.992758,135.823685 224.989712,136.428379 225.007556,136.996845 C225.049339,138.225464 225.133339,139.349425 225.264344,140.432239 C225.310478,140.80883 225.371846,141.181844 225.433214,141.555305 C225.471515,141.789221 225.51025,142.023138 225.545069,142.257949 L225.577711,142.485156 C225.683473,143.217766 225.792716,143.974975 226.116965,144.644074 C226.2014,144.814032 226.412053,145.022455 226.474726,145.08194 C226.650561,145.248767 226.887762,145.386523 227.108861,145.450034 C227.228985,145.483578 227.35912,145.500574 227.506228,145.500574 C227.632446,145.500574 227.758664,145.488051 227.884011,145.472844 C228.175617,145.436616 228.558186,145.38205 228.933792,145.278734 C229.253253,145.190624 229.569233,145.090885 229.885647,144.990699 L230.331325,144.850707 C231.468589,144.500951 232.598889,144.260326 233.554225,144.071583 C234.305437,143.923987 235.077976,143.821565 235.825706,143.721826 L236.536006,143.626113 L236.5347,143.626113 L236.528607,143.626113 C236.792793,143.601066 237.05698,143.575125 237.321166,143.54829 C237.532689,143.526821 237.743777,143.5058 237.955736,143.48299 C238.337,143.441395 238.71043,143.386382 239.06645,143.318846 C239.33673,143.2692 239.842906,143.132787 240.198926,142.768718 C240.550595,142.410911 240.730781,141.932791 240.706843,141.421575 L240.693786,141.150983 C240.645475,140.172829 240.596294,139.161577 240.596294,138.161953 L240.598905,137.439183 C240.603258,136.540193 240.60761,135.611237 240.571051,134.695251 C240.560605,134.430027 240.550595,134.166144 240.538408,133.900473 L240.53362,133.76719 C240.520999,133.418775 240.508377,133.058732 240.4296,132.720157 C240.343859,132.360114 240.079237,132.099362 239.872066,131.944163 C239.748896,131.850686 239.600916,131.793437 239.45816,131.737977 L239.371549,131.703985 C239.179611,131.626162 238.972005,131.576964 238.771362,131.529107 L238.641228,131.497799 C238.29957,131.412373 237.957912,131.338575 237.614513,131.265224 L237.509622,131.242861 L237.005622,131.135967 C236.647426,131.063511 236.276172,131.044279 235.927115,131.031308 C235.440525,131.013865 234.952629,131 234.464733,131 Z" id="Fill-82" fill="#161616" fill-rule="nonzero" transform="translate(232.854478, 138.250287) scale(-1, 1) translate(-232.854478, -138.250287) "></path>
    </g>
</svg>