<svg width="500" height="600" xmlns="http://www.w3.org/2000/svg" xmlns:xlink="http://www.w3.org/1999/xlink"><defs><path id="a" d="M0 .37h63.882v91.798H0z"/></defs><g transform="translate(153 113.461)" fill="none" fill-rule="evenodd"><path d="M12 21.532C9.067 33.516 7.316 41.93 6.747 46.774 5.345 58.718 6.475 67.542 8 73.539c2.454 9.644 9.724 15.644 21.81 18 5.178-.38 9.241-2.148 12.19-5.305 2.95-3.158 6.95-10.383 12-21.676 3.694-.981 5.843-2.654 6.447-5.02.604-2.364.171-6.219-1.3-11.563C55.208 30.113 50.493 19.642 45 16.562c-5.492-3.08-16.492-1.423-33 4.97z" fill="#BDA48E"/><path d="M40.158 89.353l-.001.004.003-.004h-.002zm-8.165-63.767l-1.72.068c-.341.014-.686.046-1.027.069l-1.779.123c-.296.02-.59.065-.887.103-.62.075-1.243.153-1.863.231a14.49 14.49 0 00-.815.124c-1.074.2-2.149.406-3.224.607-.266.052-.53.13-.792.195-.633.16-1.266.318-1.902.473-.413.104-.826.208-1.238.31-.57.142-1.136.314-1.701.477a.528.528 0 00-.367.642c.075.273.37.441.643.364.542-.156 1.081-.321 1.63-.458l1.084-.266 2.656-.659c.507-.124 1.023-.202 1.536-.3.743-.135 1.485-.27 2.228-.41.932-.113 1.866-.22 2.801-.329.338-.042.678-.046 1.016-.068l1.776-.107c.332-.02.663-.023.99-.03l1.62-.045c.423-.013.848.016 1.27.022.386.01.776.004 1.163.036.46.043.92.086 1.382.126.275.045.55.093.825.14.27.046.536.12.802.185.503.127.997.302 1.494.465.334.107.704-.124.795-.455.098-.354-.117-.684-.45-.798a14.264 14.264 0 00-2.524-.61c-.23-.034-.46-.07-.695-.102-.243-.032-.49-.041-.737-.061-.408-.03-.82-.075-1.234-.075-.597-.003-1.19-.006-1.785-.013-.325 0-.646.013-.971.026m11.974 8.841c.01.003.02.006.03.013l.016.01a.949.949 0 01.09-.084l-.032-.025a.848.848 0 01-.104.086m-21.789.691c-.042.033-.085.062-.13.094a4.49 4.49 0 00-.337.339l-.027.034a5.185 5.185 0 01-.09.445 1.128 1.128 0 00.766-.532.596.596 0 00.23-.325.555.555 0 00-.014-.354c-.131.107-.272.205-.398.3m-.191 19.265c-.017.094-.03.186-.042.28l-.03.19-.015.111c-.075.5-.15.995-.257 1.48-.146.68-.296 1.355-.455 2.03-.046.182-.09.36-.14.542l-.097.387a4.614 4.614 0 00-.126.691c-.02.195.002.387.068.552.055.189.146.348.285.487.172.137.293.234.432.302.951.475 2.046.54 2.993.54.27 0 .54-.004.806-.01l.107-.004.594-.012.595-.014c.383-.006.772-.058 1.12-.103l.11-.014.085-.012.194-.027c.231-.065.426-.172.594-.334.24-.247.377-.58.377-.915 0-.58-.41-1.098-.935-1.248l-.656.06c-.234.015-.467.035-.702.054-.216.02-.438.026-.659.043-.104.006-.21.003-.317.006-.102.004-.205.01-.306.007h-.076a16.06 16.06 0 01-1.586.094c-.292 0-.585-.01-.876-.043l-.114-.01.032-.172.01-.102a.396.396 0 01-.049-.037l-.058-.048a.724.724 0 01-.065-.092.235.235 0 01-.032-.051c-.027-.055-.056-.11-.072-.17a1.528 1.528 0 01-.058-.326.799.799 0 01-.033-.079l-.01-.062a.804.804 0 01-.013-.126 2.814 2.814 0 010-.237c.01-.189.026-.377.04-.565.012-.182.015-.367.035-.549.02-.189.048-.38.078-.569.026-.177.052-.356.08-.535.072-.415.144-.828.222-1.24.039-.214.078-.429.114-.64l.045-.276a16.15 16.15 0 01-1.237.766M8.824 41.949c.1-.339.219-.669.362-.986-.292.226-.416.622-.362.986" fill="#161616"/><path d="M22.177 35.117l-.126.091c-.12.11-.234.221-.34.342a.195.195 0 00-.024.035 8.348 8.348 0 01-.075.36c.003.04.01.075.017.114.11.757.223 1.513.334 2.273.097.783.192 1.565.247 2.357.049.77.032 1.536-.014 2.305-.094 1.581-.165 3.162-.305 4.744-.1.652-.227 1.295-.376 1.942-.152.668-.35 1.33-.461 2.012-.123.75-.25 1.503-.383 2.253-.13.744-.208 1.497-.292 2.247-.091.623-.212 1.237-.283 1.86a5.276 5.276 0 00-.03.851c.02.364.098.666.258.99.09.182.213.328.34.49.354.455.919.637 1.468.73.961.17 1.925.219 2.893.108a36.79 36.79 0 002.808-.451c.432-.084.733-.545.733-.964 0-.185-.06-.374-.163-.537-.269.029-.539.053-.807.075-.234.017-.467.036-.701.056-.218.02-.439.026-.66.042-.103.006-.21.004-.317.006-.101.004-.205.01-.306.007-.185-.003-.367 0-.545-.007-.059 0-.117.004-.175.007-.26.013-.52.026-.776.013a4.598 4.598 0 01-.413-.036 2.182 2.182 0 01-.357-.068 1.315 1.315 0 01-.227-.081.517.517 0 01-.165-.097l-.06-.05a1.045 1.045 0 01-.097-.142c-.015-.034-.033-.068-.048-.103l-.02-.004a.344.344 0 01.008-.027 1.457 1.457 0 01-.066-.327c-.002-.011-.002-.022-.003-.035a.589.589 0 01-.036-.085l-.01-.062a.813.813 0 01-.013-.126 2.814 2.814 0 010-.237c.01-.189.026-.377.039-.565.013-.182.016-.367.035-.549.02-.189.05-.38.079-.568.025-.18.052-.358.081-.536.072-.415.143-.827.22-1.24.04-.214.078-.429.114-.64.036-.194.062-.39.09-.58l.18-1.203v.014l.003-.043.003-.009-.003.003v.006c0 .01-.004.02-.004.03 0-.013.004-.026.004-.036.029-.24.052-.477.075-.714.025-.27.052-.539.084-.806.069-.513.13-1.029.185-1.542.023-.207.036-.412.062-.616.023-.199.045-.393.065-.588.052-.455.097-.906.133-1.36.032-.423.04-.845.052-1.27.006-.21.016-.422.02-.636v-.689c0-.432 0-.863-.004-1.295a21.996 21.996 0 00-.032-1.234c-.014-.228-.026-.451-.043-.679-.013-.181-.025-.36-.035-.542-.01-.223-.016-.445-.04-.669-.019-.188-.042-.38-.064-.571-.04-.27-.085-.542-.12-.815-.039-.302-.075-.604-.117-.902a35.794 35.794 0 00-.11-.582 9.954 9.954 0 00-.124-.523c-.1-.402-.202-.808-.296-1.214a1.126 1.126 0 00-.44-.113c-.163.149-.355.28-.524.405" fill="#161616"/><path d="M23.765 59.027v-.002l-.022-.002.022.004m.019.003h.017l-.026-.003c.004 0 .006.001.01.003m.752-16.05a.382.382 0 01.02-.013 94.396 94.396 0 00-.02-.485v.497z" fill="#161616"/><mask id="b" fill="#fff"><use xlink:href="#a"/></mask><path d="M40.456.37c-.36 0-.72.032-1.078.065l-.217.016a71.37 71.37 0 00-2.523.253 39.26 39.26 0 00-4.85.91 28.65 28.65 0 00-2.17.652l-.214.071c-.483.16-.97.325-1.44.52l-1.864.78-.468.187c-.348.14-.695.28-1.026.442L24 4.555c-.776.373-1.549.744-2.315 1.14l-1.87.963c-.302.153-.595.332-.883.508l-.306.184c-.32.185-.64.37-.95.559l-.134.074c-.097.056-.195.108-.282.17l-.825.558-.825.562a55.085 55.085 0 00-2.13 1.541l-.666.494c-.645.477-1.282.97-1.918 1.465l-.487.376c-.831.643-1.636 1.344-2.413 2.023l-.392.34c-.776.68-1.49 1.4-2.328 2.27l-.436.458c-.415.441-.833.883-1.272 1.305a26.807 26.807 0 01-1.812 1.578 14.46 14.46 0 01-.386.26c-.13.088-.26.172-.386.263-.157.107-.302.22-.445.34-.257.215-.37.504-.478.786-.094.234-.065.689 0 .91.032.11.072.214.117.318.225.539.442 1.123.702 1.886.223.656.448 1.312.649 1.97.201.666.364 1.326.49 2.02.1.958.098 1.981-.013 3.05-.087.47-.217 1.087-.441 1.671a16.026 16.026 0 01-.88 1.72l-.137.222-.133.224c-.146.243-.253.5-.337.717a1.294 1.294 0 00-.033.718c.048.191.162.438.309.559.155.123.292.223.47.308.114.055.238.1.354.143.815.363 1.562.814 2.286 1.25l.22.133c.277.169.553.33.842.47.308.147.643.247.964.348l.1.029c.189.058.374.1.568.13-.009.101-.005.21-.003.321.007.27.03.54.053.806.022.237.039.448.051.659l.007.107c.023.5.042.96 0 1.415l-.02.222c-.165.957-.393 1.846-.681 2.889-.267.951-.553 2.078-.672 3.26l-.046.399-.023.24c-.035.325-.064.633-.09.948-.027.312-.043.623-.06.935l-.032.588a100.076 100.076 0 00-.158 3.331c-.014.48-.02.968-.027 1.448-.006.422.01.805.03 1.192l.02.438c.038.932.129 1.88.22 2.795l.013.15.013.123.013.114c.263 2.59.624 4.665 1.133 6.526.114.402.24.799.373 1.194.078.228.17.448.26.67l.039.097.166.403c.36.9.73 1.788 1.11 2.678a.345.345 0 00-.02-.156c.257.708.692 1.77 1.225 2.841a33.095 33.095 0 001.555 2.796c.656 1.08 1.33 1.98 2.061 2.76.552.58 1.179 1.12 1.73 1.593l.072.062.555.481c1.072.925 1.906 1.56 2.705 2.058.747.474 1.546.831 2.318 1.175l.5.228.413.191.097.046c.864.399 1.708.785 2.555 1.11.238.098.478.181.718.27l.166.058.093.032.54.196c.431.162.867.324 1.311.457 1.098.328 2.25.386 3.436.419.52.016 1.035.026 1.552.032l.14.003c.7 0 1.379-.074 2.015-.22.481-.114.945-.27 1.464-.49.62-.254 1.156-.591 1.601-.89.705-.464 1.376-.994 2.029-1.507l.143-.11.54-.425.252-.199a16.56 16.56 0 001.007-.827 23.55 23.55 0 001.094-1.1l.149-.163c.413-.448.799-.863 1.127-1.302.237-.315.461-.636.692-.958l.136-.198.09-.133 1.01-1.413.354-.506.562-.792a31.29 31.29 0 001.256-1.974l.407-.67c.405-.658.77-1.256 1.093-1.902.192-.383.358-.78.517-1.178.198-.47.263-.913.311-1.29a1.166 1.166 0 00-.854-1.12 1.195 1.195 0 00-.308-.045c-.39 0-.756.211-1.006.578l-.088.127a6.12 6.12 0 00-.318.493 7.115 7.115 0 00-.136.254l-.066.126-.136.257c-.214.412-.451.814-.698 1.214a82.674 82.674 0 01-1.02 1.598l-.214.334-.393.604c-.11.172-.223.344-.34.516.042-.14.032-.29.02-.439-.069-.772-.166-1.684-.365-2.6l-.13-.597c-.103-.49-.301-.962-.493-1.416a11.434 11.434 0 00-.77-1.468l-.142-.24a39.53 39.53 0 00-.552-.91c-.36-.583-.809-1.064-1.237-1.496-.41-.412-.867-.795-1.309-1.165l-.292-.25c-.214-.182-.435-.36-.656-.54l-.217-.174c-.28-.225-.569-.442-.86-.65-.504-.364-1.085-.633-1.585-.844a14.563 14.563 0 00-2.874-.932c-.782-.162-1.577-.2-2.107-.218-.123 0-.217.014-.321.046a.82.82 0 00-.41-.25.982.982 0 00-.272-.042c-.438 0-.828.299-.986.756-.114.328-.228.653-.345.98-.182.498-.256.907-.234 1.244.02.358.146.656.373.884.267.259.65.38.952.454.204.052.416.084.62.113l.34.053c.598.1 1.17.237 1.602.34.568.14 1.126.276 1.649.48 1.084.485 1.98.992 2.743 1.556.562.461 1.056.96 1.513 1.533.507.685 1.03 1.435 1.416 2.275.282.734.49 1.52.63 2.397.084.808.094 1.561.03 2.305-.03.364-.063.727-.099 1.09l-.025.219-.075.632-.077-.026-.319-.035-.165-.016c-.465-.065-.93-.117-1.397-.169-.282-.03-.568-.062-.85-.098-.938-.145-1.932-.327-2.857-.688a4.6 4.6 0 01-.595-.321c-.081-.081-.165-.17-.25-.257a2.632 2.632 0 01-.208-.36 5.463 5.463 0 01-.318-1.062 75.575 75.575 0 01-.133-1.708l.143-.048c.218-.095.416-.244.568-.364.357-.172.536-.438.536-.811 0-.724-.665-.981-1.237-.981-.175 0-.357.026-.533.078l-.337.104c-.416.13-.763.237-1.143.295-.86.107-1.809.156-2.906.156-.646 0-1.292-.02-1.938-.049a1.04 1.04 0 00-.786.338 1.121 1.121 0 00-.308.756c0 .597.47 1.065 1.094 1.095.36.015.72.025 1.081.032l-.052.071-.03.108c-.132.51-.25.886-.372 1.22-.104.23-.247.533-.448.825a6.786 6.786 0 01-.569.568c-.11.075-.23.146-.357.208a7.03 7.03 0 01-1.169.311 3.97 3.97 0 01-.347.017c-.37 0-.75-.046-1.12-.088l-.383-.052-.13-.013-.101-.01c-.282-.03-.62-.067-.944-.067-.355 0-.715.038-1.172.126l.022-.104c.003-.99.007-2.01.087-3.052.104-.708.247-1.438.49-2.513.186-.812.508-1.578.816-2.318l.1-.243.16-.364.045-.1c.065-.154.133-.306.205-.462.117-.244.25-.484.396-.707.077-.118.165-.231.253-.345l.156-.195-.165.133.197-.184c.211-.257.423-.51.646-.757.293-.325.637-.61.939-.854.246-.191.468-.341.691-.467a6.29 6.29 0 01.88-.27c.104-.023.214-.042.324-.062.247-.045.433-.084.62-.145.131-.043.26-.095.387-.147l.088-.035.295-.124c.218-.094.373-.188.516-.318.166-.143.205-.413.218-.562a2.286 2.286 0 00-.364-1.27c-.006-.19-.139-.421-.373-.47a6.207 6.207 0 00-1.224-.143c-.172 0-.344.01-.52.032-.477.065-.925.215-1.46.403-.182.065-.364.13-.543.198l-.106.043-.082.029c-.117.045-.182.068-.24.1-.143.059-.27.137-.397.215-.886.548-1.63 1.114-2.304 1.642a6.78 6.78 0 00-1.27 1.273c-.276.377-.52.786-.763 1.208-.276.474-.435.958-.571 1.383l-.062.185-.088.28c-.155.447-.318.89-.48 1.33-.306.844-.458 1.76-.591 2.569l-.02.123c-.052.315-.11.63-.168.942l-.033.178-.035.217c-.072.416-.147.829-.202 1.254-.127.919-.21 1.694-.21 2.487 0 .383.002.763.012 1.146l.006.267.01.265c-.107-.146-.246-.279-.386-.415l-.348-.334c-.318-.312-.594-.66-.86-.994-.854-1.152-1.662-2.503-2.477-4.124-.63-1.256-1.192-2.57-1.734-3.84l-.078-.18-.127-.304-.204-.523-.082-.201a88.154 88.154 0 01-.363-.9 11.79 11.79 0 01-.286-.876l-.039-.14c-.1-.344-.201-.688-.285-1.038a42.1 42.1 0 01-.763-4.095c-.228-1.899-.465-4.104-.458-6.214 0-.971.032-2.01.09-3.091l.046-.919c.043-.834.082-1.587.156-2.331l.062-.672.062-.62c.032-.218.071-.435.116-.653-.116-.837.033-1.75.189-2.53l.104-.506c.064-.334.13-.672.207-1.003.059-.266.12-.533.182-.799l.013-.107c.104-.996.21-2.025.454-3.003a90.948 90.948 0 010-2.023l.01-1.019c.007-.272.023-.545.04-.819l.01-.165c.025-.543.094-1.091.163-1.628-.003-.216.024-.43.08-.644a1.09 1.09 0 01.03-.135c.083-.554.174-1.11.268-1.664a74.13 74.13 0 00.354-2.377l-.055.143.16-.828.08-.5c.075-.41.182-.825.29-1.234.207-.779.464-1.691.805-2.572a96.51 96.51 0 01.72-1.775l.338-.831c.163-.4.321-.802.477-1.205.175-.448.35-.893.533-1.338l.039-.094.051-.133a.336.336 0 00.098-.035 48.731 48.731 0 011.929-.87l.217-.094c.79-.276 1.64-.572 2.516-.838l.227-.068c.277-.082.555-.163.838-.24l.458-.128c.315-.09.63-.178.948-.252l.208-.046a55.01 55.01 0 012.334-.487 84.421 84.421 0 012.597-.412 99.457 99.457 0 012.959-.273 63.735 63.735 0 012.912-.153l.094-.003c.337-.013.676-.02 1.016-.02.52 0 1.046.013 1.568.026l.257.01.237.007c.844.022 1.714.084 2.587.191 1.185.189 2.338.461 3.51.744 1.332.327 2.465.675 3.458 1.058.854.402 1.558.77 2.23 1.247.17.153.332.312.481.484.04.054.075.117.11.194.273.841.403 1.757.52 2.568.078.627.143 1.186.185 1.747.026.387.039.773.052 1.162.007.244.013.48.026.715a169.9 169.9 0 00.233 3.854c.04.565.072 1.127.102 1.692.036.668.074 1.34.13 2.01.087 1.035.24 2.087.373 3.015l.136.958.065.497.078.568.019.159c.13 1.01.254 1.987.422 2.926l-.165.013c.016.487.019.983-.007 1.493.172-.023.332-.052.494-.084.185.886.435 1.815.734 2.753.208.636.448 1.237.714 1.786.11.218.23.434.364.639.46.718 1.116 1.13 1.799 1.13.694-.023 1.223-.429 1.733-.818l.117-.088c.078-.058.153-.117.227-.168l.188-.137.072-.049a9.52 9.52 0 01.955-.626 6.15 6.15 0 01.243-.123c.23-.085.454-.16.695-.208l.077.019c.017.029.046.059.072.088l.1.149.033.104.049.156c-.195.734-.185 1.354.032 1.896.065.23.182.432.354.613.266 2.14.286 4.205.055 6.128-.104.645-.247 1.405-.522 2.129a6.873 6.873 0 01-.53.89c-.282.334-.62.662-1.036.993a9.554 9.554 0 01-1.327.832c-.11.015-.153.015-.195.015l-.088-.116a.993.993 0 00-.788-.357c-.218 0-.426.055-.591.155-.264.15-.452.407-.526.708-.072.295-.026.585.126.818.11.179.228.364.367.526.094.11.28.305.445.383.237.108.422.19.637.244a2.5 2.5 0 00.659.071c.675-.016 1.285-.282 1.795-.542a9.96 9.96 0 002.257-1.555c.217-.198.395-.435.56-.659l.096-.12c.389-.523.632-1.143.837-1.734.201-.569.273-1.214.324-1.73l.033-.247c.058-.52.09-1.072.1-1.73a32.273 32.273 0 00-.158-3.709 42.358 42.358 0 00-.231-1.912.959.959 0 00.074-.464c-.012-.04-.012-.075-.015-.114.032-.136.077-.283.123-.426l.035-.116c.026-.078.053-.156.072-.233.068-.254.124-.507.175-.76.123-.653.25-1.348.299-2.059.062-1.023.042-2.042.023-3.03l-.007-.454-.006-.266a58.732 58.732 0 00-.072-2.357c.15-.39.302-.782.435-1.179.065-.194.133-.386.201-.58.124-.358.247-.715.35-1.072l.121-.41.403-1.376c.107-.36.185-.724.266-1.088l.11-.5c.247-1.039.432-2.11.559-3.185l.052-.445c.048-.386.097-.775.123-1.162l.032-.526.036-.533.017-.213c.012-.17.026-.342.029-.51l.009-.948.013-.952c.007-.555-.029-1.11-.068-1.678a20.495 20.495 0 00-.327-2.565c-.147-.76-.38-1.507-.605-2.23l-.107-.335c-.13-.422-.286-.838-.441-1.25l-.092-.237c-.5-1.328-1.096-2.864-1.872-4.276-.601-1.09-1.357-2.078-2.017-2.896l-.266-.325a34.376 34.376 0 00-.743-.9l-.23-.265c-.65-.75-1.322-1.526-2.026-2.247a39.827 39.827 0 00-1.296-1.273c-.383-.36-.812-.685-1.23-.997l-.199-.15a42.243 42.243 0 00-2.72-1.872 15.467 15.467 0 00-3-1.52l-.273-.104c-.198-.074-.396-.149-.597-.217-.627-.218-1.313-.387-2.228-.549-.808-.137-1.422-.202-1.99-.21-.338-.007-.675-.01-1.013-.014h-.085z" fill="#161616" mask="url(#b)"/><path d="M54.119 57.162a.44.44 0 01-.055.043l.055-.043m.198-2.04l-.007.06.007-.06m-.23-.66a2.27 2.27 0 01-.053.022l.052-.021m.16-.033a.38.38 0 01.032.08c-.01-.026-.02-.054-.033-.08m-.107-.056c.027.007.05.018.075.03l-.004-.001-.071-.03m.003-.789a.567.567 0 00-.22.053 2.955 2.955 0 00-.565.279.42.42 0 00-.15.57.424.424 0 00.572.15 4.45 4.45 0 01.34-.186c.035-.014.071-.026.108-.037h.007l.006.005v.002c.039.098.072.195.097.295.003.129-.003.253-.016.38-.047.355-.092.715-.133 1.07-.033.281-.027.562-.052.84a.71.71 0 01-.022.093.873.873 0 01-.061.109l-.011.012a.472.472 0 01-.062.03c-.208.105-.266.394-.153.586.056.094.15.165.257.194.12.036.218.007.328-.042a.962.962 0 00.52-.607c.065-.208.074-.419.077-.633a8.84 8.84 0 01.056-.874c.016-.165.036-.33.058-.5.017-.142.04-.288.052-.435.02-.223-.02-.438-.091-.649a1.472 1.472 0 00-.185-.383.444.444 0 00-.152-.15l-.085-.061a7.346 7.346 0 00-.198-.087 1.603 1.603 0 00-.215-.036c-.035.003-.071.009-.107.012M27.058 71.731c.007.01.017.02.026.03-.012-.02-.029-.037-.042-.056.003.007.01.016.016.026" fill="#161616" mask="url(#b)"/><path d="M27.058 71.731c.007.01.017.02.026.03-.012-.02-.029-.037-.042-.056.003.007.01.016.016.026" fill="#161616" mask="url(#b)"/><path d="M29.486 71.078c-.198.035-.399.074-.597.11-.425.075-.854.137-1.276.22-.438.085-.88.16-1.319.247-.545.11-1.087.235-1.633.354-.52.114-.818.709-.681 1.201.15.537.681.796 1.2.683a43.35 43.35 0 011.985-.376c.495-.061.992-.111 1.49-.157.293-.029.578-.068.867-.107l.366-.045c.17-.023.374-.027.54-.085.46-.165.799-.54.799-1.049 0-.603-.497-1.074-1.088-1.087h-.032c-.204 0-.417.057-.62.09m12.135-40.335c-.071.025-.143.054-.218.078-.214.065-.428.116-.646.168-.434.104-.87.192-1.304.276-.835.162-1.666.319-2.497.49-1.796.37-3.592.744-5.39 1.098-.704.136-1.406.276-2.11.412-.513.103-1.031.164-1.548.245l-.277.031c-.208.026-.38.068-.536.221a.761.761 0 000 1.071c.13.13.347.244.536.224 2.016-.233 4.003-.652 5.993-1.032.867-.162 1.738-.32 2.604-.477.86-.156 1.724-.322 2.588-.458.637-.097 1.272-.191 1.906-.312.311-.058.62-.116.928-.179.126-.022.25-.048.377-.071.39-.074.662-.324.788-.7.118-.351-.068-.842-.409-1.004a1.183 1.183 0 00-.502-.132.83.83 0 00-.283.05m-30.69 2.367a.572.572 0 00-.545.419.573.573 0 00.26.639c.263.166.603.205.902.267l.967.204c.718.15 1.446.24 2.173.315 1.474.155 2.945.324 4.419.445.334.026.616-.299.616-.614a.628.628 0 00-.182-.435.651.651 0 00-.434-.179 91.015 91.015 0 01-2.991-.298c-.843-.093-1.689-.175-2.533-.283-.435-.074-.862-.164-1.295-.25l-.633-.126c-.231-.045-.468-.104-.706-.104h-.018m-1.356 6.728c-.257.094-.402.325-.341.6a.054.054 0 01.007.023c.035.15.178.305.33.33.19.033.37.082.559.121.15.032.303.045.457.058.183.081.388.119.579.164.282.064.565.126.847.18.312.066.624.131.932.193.341.071.685.13 1.023.208.325.078.649.152.97.226.218.053.433.101.65.15.084.02.172.036.253.062.763.23 1.53.444 2.282.708.29.1.614-.11.692-.393.085-.309-.104-.591-.392-.692-.27-.094-.542-.183-.814-.268a.5.5 0 00-.239-.294 2.224 2.224 0 00-.448-.188c-.15-.039-.299-.068-.448-.1l-.945-.189c-.59-.12-1.178-.25-1.766-.373a41.28 41.28 0 00-1.812-.322c-.302-.051-.607-.09-.912-.13-.175-.023-.35-.045-.526-.07-.183-.023-.385-.058-.58-.058-.125 0-.245.014-.358.054" fill="#161616" mask="url(#b)"/><path d="M15.724 44.578l.005.005-.005-.005m.241-.76l-.05.116c.016-.04.034-.078.05-.116m.375-.566a4.55 4.55 0 01-.017.212c-.06.406-.112.821-.235 1.215a2.816 2.816 0 01-.295-.091l-.063-.034a6.08 6.08 0 01.254-.775c.054-.121.114-.24.184-.354.05-.056.1-.11.155-.161l.017-.012m.273-.085l-.07.01h-.002l.072-.01m-.949-1.825c-.288.042-.57.17-.83.296-.253.12-.484.312-.686.506a2.528 2.528 0 00-.487.715c-.153.32-.233.665-.279 1.015-.039.309-.019.611.062.913.074.286.26.565.45.786.32.361.727.624 1.175.78a2.831 2.831 0 00.9.229c.365.03.712-.054 1.04-.197.546-.24.97-.728 1.253-1.24.15-.267.263-.556.354-.845.049-.165.075-.357.09-.526a2.827 2.827 0 00-.044-.682 1.7 1.7 0 00-.182-.487 2.622 2.622 0 00-.27-.386 2.798 2.798 0 00-.623-.535c-.237-.16-.533-.26-.802-.335a1.93 1.93 0 00-.503-.063c-.205 0-.41.026-.618.056" fill="#161616" mask="url(#b)"/><path d="M12.082 40.27a.777.777 0 00-.28 1.065c.095.163.277.325.465.36 1.39.25 2.779.507 4.162.783 1.032.207 2.067.407 3.098.618.406.109.824.22 1.24.245.347.02.672-.256.76-.577.11-.406-.134-.867-.55-.971-.704-.169-1.418-.293-2.125-.432l-1.936-.38a265.549 265.549 0 00-4.233-.792 1.413 1.413 0 00-.217-.02.737.737 0 00-.384.101m.366 6.96l.071.009-.071-.01m-.837-1.162a.646.646 0 000 .921c.133.138.28.167.46.192a50.651 50.651 0 012.786.435c.87.166 1.738.338 2.611.484.178.032.334.03.496-.062a.637.637 0 00.293-.386c.097-.348-.114-.678-.448-.786-.429-.143-.88-.21-1.325-.292-.445-.084-.893-.162-1.34-.24a61.904 61.904 0 00-3.118-.46.643.643 0 00-.415.194m29.651-8.898c-.33.019-.568.103-.818.325l-.01.009c-.717.279-1.444.53-2.172.78-.97.33-1.945.665-2.919.993-.955.318-1.902.652-2.854.984-.392.136-.775.298-1.159.454-.233.09-.468.185-.704.28-.513.204-1.065.415-1.452.824a.775.775 0 00-.197.746c.093.341.395.543.736.562.042.004.085.004.127.004l.052.01c.36.077.73-.092.857-.443a52.156 52.156 0 012.676-.951 2.281 2.281 0 012.025-.644l.793-.246c.847-.266 1.694-.535 2.545-.788.798-.24 1.594-.5 2.41-.689a1.15 1.15 0 00.638-.172c.24-.143.426-.373.5-.649.124-.444-.064-1.02-.5-1.23-.168-.085-.337-.16-.528-.16h-.046z" fill="#161616" mask="url(#b)"/><path d="M32.756 43.351a2.306 2.306 0 012.286-2.286 2.306 2.306 0 012.286 2.286 2.306 2.306 0 01-2.286 2.286 2.306 2.306 0 01-2.286-2.286m2.146-3.062a3.694 3.694 0 00-.37-.029c-.6-.016-1.133.3-1.535.724-.452.48-.679 1.163-.81 1.796-.109.545-.155 1.113-.002 1.653.045.165.117.315.208.448.026.187.084.39.172.555.133.253.334.448.568.59a2 2 0 00.598.574c.152.086.311.154.477.209.168.058.357.058.53.078.226.022.463-.032.684-.071.14-.026.273-.082.402-.133.163-.069.312-.133.462-.225a2.36 2.36 0 00.747-.74c.392-.604.503-1.315.525-2.023.02-.606-.022-1.24-.194-1.82a3.325 3.325 0 00-.202-.498 2.013 2.013 0 00-.165-.305 2.118 2.118 0 00-.77-.666 1.7 1.7 0 00-.792-.185c-.178 0-.357.023-.533.068" fill="#161616" mask="url(#b)"/><path d="M39.237 45.484c-2.452.301-4.87.827-7.287 1.331-.46.094-.72.63-.603 1.061.13.474.6.699 1.061.601 2.344-.483 4.69-.965 7.05-1.36.36-.058.61-.461.61-.802a.833.833 0 00-.244-.588c-.127-.128-.339-.247-.533-.247a.39.39 0 00-.054.004" fill="#161616" mask="url(#b)"/><path d="M35.12 42.685l-.031.014.031-.014zm.041-.017l-.038.016h.002l.036-.016zm.149-.01l.01.004-.01-.005zm-.06-.021l.022.007a.86.86 0 01.048.023c-.013.102-.02.207-.027.308a9.89 9.89 0 01-.055.689c-.054.016-.108.03-.162.042h-.083a1.63 1.63 0 01-.142-.039 2.581 2.581 0 01-.174-.103c.045-.181.097-.359.16-.533.03-.054.06-.107.093-.16.048-.052.097-.101.15-.15a1.28 1.28 0 01.134-.072l.036-.012zm-.06-.006l-.049.038a1.08 1.08 0 01.048-.038zm.027-.005l-.082.01a.93.93 0 01.082-.01zm-2.235-.937c-.305.516-.428 1.107-.503 1.692-.032.269-.017.538.01.805.035.308.08.603.191.896.104.28.25.5.448.72.186.208.422.367.646.523.143.1.263.192.432.244.166.048.331.068.503.087.156.02.325-.032.478-.061a2.01 2.01 0 00.432-.143c.126-.033.247-.098.36-.16.123-.064.244-.168.353-.256a4.74 4.74 0 00.257-.211c.102-.089.191-.194.272-.305a7.32 7.32 0 00.29-.387c.38-.528.574-1.168.594-1.817.006-.275-.057-.559-.129-.827a2.456 2.456 0 00-.398-1.137c-.138-.33-.313-.639-.629-.835a1.967 1.967 0 00-.743-.267 4.171 4.171 0 00-.142-.02l-.111-.038a1.49 1.49 0 00-.47-.075c-.909 0-1.701.836-2.141 1.572zm-17.217-.66l.048.006c-.022-.004-.046-.006-.068-.009l.02.003m-6.17-.608a.67.67 0 00.467.817c.595.17 1.191.319 1.796.452.532.114 1.071.234 1.613.315.58.085 1.16.172 1.744.224a36.47 36.47 0 001.873.11.571.571 0 00.494-.857c-.068-.113-.205-.244-.342-.263-.476-.063-.95-.124-1.427-.184l.058.009-.106-.015-.06-.007.04.004a57.85 57.85 0 01-2.557-.417 32.675 32.675 0 01-2.772-.656.652.652 0 00-.173-.024.679.679 0 00-.649.492m.953-7.197a.766.766 0 000 1.081c.051.043.103.081.155.12a.77.77 0 00.386.107c1.81.218 3.614.448 5.435.523.407.017.813.014 1.218.026.407.01.812.013 1.218.007.18-.004.36-.003.54.001l.087.009c.26.022.519.042.782.061.127.007.256.013.383.017.208.003.425.022.627-.024.386-.087.49-.594.227-.86-.188-.194-.444-.233-.701-.272-.189-.03-.38-.062-.569-.091-.405-.062-.811-.12-1.22-.15a54.841 54.841 0 01-1.273-.114c-.39-.039-.782-.061-1.176-.087-1.866-.133-3.72-.354-5.578-.578a.472.472 0 00-.049-.003c-.18 0-.374.108-.492.227" fill="#161616" mask="url(#b)"/><path d="M17.406 34.375a.51.51 0 00.14.358.49.49 0 00.2.62c.183.103.39.136.592.178.165.033.332.062.5.094.331.062.66.152.997.201a5.282 5.282 0 001.197.082c.202-.004.404-.036.602-.065.321-.046.645-.218.817-.5a.613.613 0 00.05-.455c-.043-.165-.176-.286-.312-.373-.127-.082-.286-.137-.423-.195-.33-.14-.701-.175-1.054-.224-.92-.133-1.845-.198-2.77-.257h-.03c-.279 0-.506.266-.506.536m14.127-10.448l-2.692.292c-1.013.11-2.026.257-3.04.396-.057.01-.119.065-.148.118a.253.253 0 00-.026.194.24.24 0 00.117.149c.065.039.124.036.195.026.314-.042.633-.088.948-.13l-.069.01.15-.02-.068.01 1.51-.205-.066.01c.435-.058.877-.097 1.315-.146.624-.068 1.25-.136 1.874-.208.068-.01.123-.022.175-.074a.243.243 0 00.072-.176.258.258 0 00-.072-.175.247.247 0 00-.16-.072l-.015.001" fill="#161616" mask="url(#b)"/></g></svg>