<?xml version="1.0" encoding="UTF-8"?>
<svg width="500px" height="600px" viewBox="0 0 500 600" version="1.1" xmlns="http://www.w3.org/2000/svg" xmlns:xlink="http://www.w3.org/1999/xlink">
    <!-- Generator: Sketch 63.1 (92452) - https://sketch.com -->
    <title>lookingdown</title>
    <desc>Created with Sketch.</desc>
    <defs>
        <polygon id="path-1" points="9.63559166 6.82870865 73.5341891 6.82870865 73.5341891 98.6465996 9.63559166 98.6465996"></polygon>
    </defs>
    <g id="lookingdown" stroke="none" stroke-width="1" fill="none" fill-rule="evenodd">
        <g id="Group" transform="translate(136.999820, 107.441849)">
            <path d="M22.6049177,27.2797609 C19.6717399,39.2642904 17.9207677,47.6782873 17.352001,52.5217516 C15.9494447,64.4655442 17.079272,73.2900875 18.6049177,79.2868362 C21.0585866,88.9313004 28.3288033,94.9313004 40.415568,97.2868362 C45.5926958,96.9073662 49.6558124,95.1389461 52.6049177,91.981576 C55.5540231,88.8242059 59.5540231,81.5989227 64.6049177,70.3057266 C68.298504,69.3248234 70.4474819,67.6518599 71.0518515,65.2868362 C71.6562211,62.9218126 71.2230584,59.0671752 69.7523633,53.7229241 C65.8124538,35.8610965 61.0966386,25.3901367 55.6049177,22.3100447 C50.1131969,19.2299527 39.1131969,20.8865248 22.6049177,27.2797609 Z" id="Path-36" fill="#BDA48E" transform="translate(44.014686, 59.047361) rotate(-11.000000) translate(-44.014686, -59.047361) "></path>
            <path d="M59.3584154,92.766745 C59.3584154,92.7675761 59.3584154,92.7692385 59.3575842,92.7700696 L59.3609089,92.766745 L59.3584154,92.766745 Z" id="Fill-1" fill="#161616" transform="translate(59.773169, 93.182329) rotate(-13.000000) translate(-59.773169, -93.182329) "></path>
            <path d="M37.5148084,33.5287564 C36.9404708,33.5511979 36.3686266,33.5744706 35.7942889,33.5969122 C35.4535097,33.6102109 35.1085746,33.6426265 34.7677954,33.665068 C34.1735097,33.7074577 33.5833798,33.7465226 32.9890941,33.788081 C32.693198,33.8080291 32.3981331,33.8537434 32.102237,33.8919771 C31.482185,33.9667823 30.8588084,34.0449122 30.2387565,34.1230421 C29.9661331,34.1587823 29.6968344,34.1945226 29.424211,34.2460551 C28.3495097,34.4471979 27.2748084,34.6524966 26.2001071,34.8536395 C25.9333019,34.9051719 25.6706526,34.9833018 25.4080032,35.048133 C24.7746526,35.2077174 24.1413019,35.3664706 23.5054578,35.5218992 C23.0923669,35.6257953 22.6801071,35.7296914 22.2678474,35.831094 C21.6968344,35.9732239 21.1316396,36.1452758 20.5664448,36.3081849 C20.2904967,36.3863148 20.1250941,36.6747304 20.1998993,36.9506784 C20.2747045,37.2233018 20.5697695,37.3920291 20.8423928,37.3147304 C21.3851461,37.1584706 21.9237435,36.993068 22.4723149,36.8567564 C22.8330422,36.7686525 23.196263,36.6780551 23.5569902,36.5907823 C24.4430162,36.3696914 25.3265487,36.1519252 26.2125746,35.9316654 C26.7195876,35.8078213 27.2357435,35.7296914 27.7485746,35.6324447 C28.4916396,35.496133 29.2338733,35.3614836 29.9769383,35.2218473 C30.9086785,35.1088083 31.8429123,35.0024187 32.7779772,34.8927044 C33.1154318,34.8503148 33.456211,34.8469901 33.7936656,34.8245486 C34.3846266,34.7888083 34.9789123,34.753068 35.5698733,34.7173278 C35.9015097,34.6973797 36.2323149,34.6940551 36.5606266,34.6882369 C37.099224,34.6716135 37.6411461,34.6583148 38.1805746,34.6425226 C38.6028084,34.6292239 39.0275357,34.6583148 39.4497695,34.6649641 C39.836263,34.6749382 40.2260811,34.6682888 40.6125746,34.7007044 C41.0730422,34.743094 41.5335097,34.7863148 41.9948084,34.8262109 C42.2699253,34.8719252 42.5450422,34.9193018 42.8201591,34.9666784 C43.0894578,35.0123927 43.3554318,35.0871979 43.622237,35.1520291 C44.1250941,35.2783667 44.6188084,35.4537434 45.1158474,35.6166525 C45.4499772,35.7238732 45.8198474,35.4928083 45.9112759,35.1620031 C46.0085227,34.8079252 45.7940811,34.47712 45.4599513,34.3632499 C44.6379253,34.0906265 43.7976136,33.8728603 42.9365227,33.7531719 C42.7062889,33.7199252 42.4760552,33.6841849 42.2416656,33.6517693 C41.9989643,33.6193538 41.7521071,33.6102109 41.50525,33.5902628 C41.0963149,33.5611719 40.6840552,33.5154577 40.2709643,33.5154577 C39.674185,33.512133 39.0798993,33.5096395 38.4856136,33.5029901 C38.1606266,33.5029901 37.8397954,33.5154577 37.5148084,33.5287564" id="Fill-3" fill="#161616" transform="translate(33.058362, 35.418264) rotate(-13.000000) translate(-33.058362, -35.418264) "></path>
            <path d="M65.3317125,58.388829 C65.3142579,58.4046212 65.2959722,58.4187511 65.2768553,58.4312186 C65.295141,58.4170887 65.3134268,58.4029589 65.3317125,58.388829 M65.5303618,56.3474784 C65.5278683,56.3674264 65.5253748,56.3882056 65.5228813,56.4081537 C65.5245436,56.3882056 65.5278683,56.3682576 65.5303618,56.3474784 M65.2992969,55.6891926 C65.2810112,55.6966732 65.2643878,55.7033225 65.2469333,55.7099719 C65.2643878,55.7033225 65.2818423,55.695842 65.2992969,55.6891926 M65.4580501,55.6559459 C65.4713488,55.6817121 65.4829852,55.7074784 65.4904657,55.7365693 C65.4804917,55.710803 65.4705177,55.6825433 65.4580501,55.6559459 M65.3508294,55.6002576 C65.3774268,55.6077381 65.4015307,55.6185433 65.4256346,55.6301797 C65.4248034,55.6301797 65.423141,55.6293485 65.4223099,55.6293485 C65.3998683,55.6193745 65.3757644,55.6085693 65.3508294,55.6002576 M65.354154,54.8106472 C65.2768553,54.8139719 65.2020501,54.8305952 65.1338943,54.8630108 C64.9327514,54.9311667 64.7474008,55.0350628 64.5686995,55.1422836 C64.374206,55.2553225 64.3027255,55.5154784 64.4190891,55.7132965 C64.5329592,55.9086212 64.7931151,55.9767771 64.9909333,55.8629069 C65.1023099,55.7947511 65.2128553,55.7357381 65.3300501,55.6767251 C65.3657904,55.6625952 65.4023618,55.6501277 65.4389333,55.6393225 L65.4455826,55.6401537 L65.4514008,55.6443095 C65.452232,55.6443095 65.452232,55.6451407 65.452232,55.6459719 C65.4904657,55.7440498 65.5237125,55.8412965 65.5486475,55.9410368 C65.5519722,56.069868 65.546154,56.1945433 65.5328553,56.320881 C65.4854787,56.6766212 65.4405956,57.0365173 65.3998683,57.3922576 C65.3666216,57.6723615 65.3724398,57.9532965 65.3483359,58.2317381 C65.3433488,58.2633225 65.3350372,58.2932446 65.3258943,58.3239978 C65.3076086,58.3622316 65.2876605,58.3979719 65.2643878,58.432881 L65.2535826,58.4453485 C65.2344657,58.4569848 65.2136865,58.4669589 65.1920761,58.4761017 C64.9842839,58.5799978 64.9261021,58.8692446 65.039141,59.0612446 C65.0948294,59.1551667 65.1887514,59.2266472 65.2959722,59.2557381 C65.4164917,59.2914784 65.5137385,59.2623874 65.6242839,59.2133485 C65.8769592,59.102803 66.0656346,58.8692446 66.1437644,58.6065952 C66.2085956,58.398803 66.2177385,58.1876861 66.2210631,57.9732446 C66.2277125,57.6806732 66.2410112,57.3922576 66.2767514,57.0996861 C66.2925436,56.9342836 66.3124917,56.768881 66.3349333,56.6001537 C66.3515566,56.4571926 66.3739982,56.3109069 66.3872969,56.1646212 C66.4064138,55.9410368 66.3673488,55.7265952 66.2958683,55.5154784 C66.2476605,55.3791667 66.1952969,55.2495043 66.1105177,55.1323095 C66.0722839,55.070803 66.0232449,55.0217641 65.9584138,54.9826991 C65.9326475,54.9635823 65.9027255,54.9436342 65.8736346,54.9211926 C65.8088034,54.8921017 65.7439722,54.8630108 65.6758164,54.8339199 C65.6043359,54.8172965 65.5328553,54.804829 65.4613748,54.7981797 C65.4256346,54.8015043 65.3898943,54.8073225 65.354154,54.8106472" id="Fill-5" fill="#161616" transform="translate(65.377528, 57.034901) rotate(-13.000000) translate(-65.377528, -57.034901) "></path>
            <path d="M33.2807253,43.0599019 L33.28405,43.0599019 C33.2291929,43.0341356 33.1735045,43.0108629 33.1186474,42.991746 C33.1735045,43.0141876 33.2258682,43.0374603 33.2807253,43.0599019" id="Fill-7" fill="#161616" transform="translate(33.534232, 43.407330) rotate(-13.000000) translate(-33.534232, -43.407330) "></path>
            <path d="M33.2807253,43.0599019 L33.28405,43.0599019 C33.2291929,43.0341356 33.1735045,43.0108629 33.1186474,42.991746 C33.1735045,43.0141876 33.2258682,43.0374603 33.2807253,43.0599019" id="Fill-9" fill="#161616" transform="translate(33.534232, 43.407330) rotate(-13.000000) translate(-33.534232, -43.407330) "></path>
            <path d="M33.2807253,43.0599019 L33.28405,43.0599019 C33.2291929,43.0341356 33.1735045,43.0108629 33.1186474,42.991746 C33.1735045,43.0141876 33.2258682,43.0374603 33.2807253,43.0599019" id="Fill-11" fill="#161616" transform="translate(33.534232, 43.407330) rotate(-13.000000) translate(-33.534232, -43.407330) "></path>
            <path d="M37.8447194,39.2249882 L37.843057,39.2249882 L37.8455505,39.2249882 L37.8447194,39.2249882 Z M46.3708492,39.2823389 C46.360044,39.2740272 46.3492388,39.2657155 46.3376025,39.2565726 C46.3475765,39.2665467 46.360044,39.2756895 46.3708492,39.2823389 L46.3708492,39.2823389 Z M41.7786414,39.3089363 L41.8542778,39.3180791 C41.8285116,39.3155856 41.8035765,39.3122609 41.7786414,39.3089363 L41.7786414,39.3089363 Z M39.9841479,37.8377674 C39.7148492,37.8410921 39.448044,37.8444168 39.1787453,37.8477415 C38.153083,37.8635337 37.1232648,38.0264428 36.1399921,38.318183 C35.549031,38.4968843 34.968044,38.7146506 34.4094986,38.9806246 C33.8966674,39.2241571 33.4029531,39.5167285 32.9225375,39.8217674 C32.6399401,40.0037934 32.52607,40.3703389 32.7014466,40.6720532 C32.8668492,40.9546506 33.2633168,41.07517 33.5492388,40.8931441 C34.1318882,40.5224428 34.7361479,40.1783389 35.3694986,39.9040532 C36.1665895,39.5890402 36.996096,39.3538194 37.843057,39.2249882 C37.8106414,39.2291441 37.7773947,39.2332999 37.7433168,39.2374558 L37.8447194,39.2249882 C37.8671609,39.2216635 37.8896025,39.2175077 37.9128752,39.214183 C37.8904336,39.2183389 37.8679921,39.2216635 37.8455505,39.2249882 C38.35007,39.1659752 38.8554207,39.1393778 39.364096,39.1393778 C39.6234207,39.1393778 39.8869012,39.1335596 40.1462258,39.1493519 C40.4188492,39.1659752 40.6947973,39.1692999 40.964096,39.2050402 C41.2034726,39.2366246 41.4428492,39.2657155 41.683057,39.2964687 C42.0545895,39.3612999 42.4269531,39.4161571 42.7959921,39.4967804 C43.2173947,39.588209 43.6363038,39.6854558 44.0552129,39.7926765 C44.4092908,39.8799493 44.7533947,39.9938194 45.0941739,40.1168324 C45.2437843,40.1758454 45.3958882,40.2340272 45.5488233,40.2888843 C45.6718362,40.3312739 45.7956804,40.3537155 45.9220181,40.3769882 C46.1888233,40.425196 46.4514726,40.3478973 46.5944336,40.1043648 C46.6758882,39.9647285 46.6950051,39.7984947 46.6526155,39.6430661 C46.6102258,39.4843129 46.5096544,39.3829103 46.3799921,39.2889882 C46.3774986,39.2873259 46.3741739,39.2848324 46.3708492,39.2823389 C46.3816544,39.2914817 46.3924596,39.2997934 46.4024336,39.3081051 C46.291057,39.2216635 46.1830051,39.1476895 46.0583297,39.081196 C45.8638362,38.9739752 45.656044,38.8958454 45.4515765,38.815222 C45.1008233,38.6789103 44.7309531,38.5750142 44.3635765,38.4869103 C43.5257583,38.2824428 42.6787973,38.0912739 41.8185375,37.9907025 C41.3830051,37.9383389 40.9516284,37.8868064 40.5127713,37.8635337 C40.3506934,37.855222 40.186122,37.8377674 40.024044,37.8377674 C40.0099142,37.8377674 39.9966155,37.8377674 39.9841479,37.8377674 L39.9841479,37.8377674 Z" id="Fill-13" fill="#161616" transform="translate(39.646232, 39.408670) rotate(-13.000000) translate(-39.646232, -39.408670) "></path>
            <path d="M35.1900238,39.8925808 C35.1692446,39.9017236 35.1484654,39.9108665 35.1276862,39.9200093 C35.1484654,39.9108665 35.1692446,39.9017236 35.1900238,39.8925808 M40.369868,37.7955418 C39.9085693,37.8179834 39.4539199,37.8479054 38.9934524,37.8836457 C38.6294004,37.9127366 38.2661797,37.9518015 37.9054524,37.99336 C37.5422316,38.0357496 37.174855,38.0748145 36.8174524,38.1529444 C36.6487251,38.1886847 36.4733485,38.2177756 36.3079459,38.2659834 C36.0876862,38.3316457 35.8699199,38.3964769 35.648829,38.461308 C34.7461797,38.7272821 33.8992186,39.1819314 33.0647251,39.6108145 C32.7754784,39.7595937 32.694855,40.1560613 32.8502836,40.42536 C33.0223355,40.7146067 33.3764134,40.7860873 33.6656602,40.6364769 C34.1477381,40.3896197 34.6281537,40.1394379 35.1226991,39.9216717 C35.4343874,39.7936717 35.7494004,39.6748145 36.0710628,39.5783989 C36.2722056,39.519386 36.4733485,39.4445808 36.6786472,39.3996976 C36.8664913,39.357308 37.051842,39.3149184 37.2363615,39.2725288 C37.4233745,39.2326327 37.6145433,39.2126847 37.8015563,39.1844249 C38.6734524,39.0788665 39.5470108,38.9882691 40.4247251,38.9450483 C40.9151147,38.9226067 41.4055043,38.8926847 41.8958939,38.9059834 C42.3181277,38.9151262 42.7345433,38.95336 43.1509589,39.0015678 C44.0760498,39.1769444 44.9870108,39.4429184 45.8638939,39.7861912 C46.3866991,40.0305548 46.9003615,40.3015158 47.3674784,40.642295 C47.4431147,40.7038015 47.5179199,40.7678015 47.5877381,40.834295 C47.8046732,41.0387626 48.1097121,41.1526327 48.4056082,41.0620353 C48.6882056,40.9706067 48.940881,40.701308 48.9184394,40.3896197 C48.9051407,40.2208925 48.8826991,40.0978795 48.7954264,39.9515937 C48.7073225,39.805308 48.5967771,39.7271782 48.4604654,39.6266067 C48.330803,39.5260353 48.177868,39.4512301 48.0290887,39.3764249 C47.6359459,39.1752821 47.2303355,38.9999054 46.8247251,38.8212041 C46.6136082,38.7306067 46.3991667,38.6400093 46.1814004,38.5685288 C45.947842,38.4903989 45.7142836,38.4288925 45.4765693,38.367386 C45.0643095,38.2535158 44.6520498,38.146295 44.2364654,38.052373 C43.382855,37.8636976 42.5159459,37.7922171 41.6423874,37.7631262 C41.5642576,37.7606327 41.4852965,37.7598015 41.4063355,37.7598015 C41.0622316,37.7598015 40.7131407,37.7797496 40.369868,37.7955418" id="Fill-15" fill="#161616" transform="translate(40.846174, 39.426657) rotate(-13.000000) translate(-40.846174, -39.426657) "></path>
            <path d="M47.6185914,40.7309694 C47.6285654,40.7334629 47.6385395,40.7376187 47.6493447,40.7434369 C47.6385395,40.7384499 47.6285654,40.7342941 47.6185914,40.7309694 M40.596046,38.5001122 C40.1513706,38.5100863 39.7058642,38.5134109 39.2645135,38.5358525 C39.0342797,38.5491512 38.8098642,38.5624499 38.5829551,38.5882161 C38.3294486,38.617307 38.0767732,38.656372 37.8232667,38.6954369 C37.0893447,38.8059824 36.3554226,38.93232 35.6248252,39.0752811 C34.8202538,39.2340343 34.0306434,39.4908655 33.2451888,39.7377226 C33.0407213,39.8025538 32.911059,40.010346 32.9692408,40.2247876 C33.0240979,40.4259304 33.2518382,40.5622421 33.4563057,40.5007356 C34.0663836,40.3087356 34.6772927,40.1142421 35.303994,39.9812551 C35.9149031,39.8540863 36.5258122,39.7485278 37.145033,39.6629174 C37.140046,39.6637486 37.1342278,39.6645798 37.1284096,39.6662421 C37.6121499,39.6014109 38.0958901,39.5266057 38.5829551,39.4908655 C39.0733447,39.4551252 39.5662278,39.4551252 40.0599421,39.4584499 C40.5636304,39.4617746 41.0664875,39.4650993 41.5701758,39.4842161 C41.8261758,39.4975148 42.083007,39.513307 42.3365135,39.5332551 C42.5858642,39.552372 42.8327213,39.5881122 43.0795784,39.6238525 L42.9432667,39.6047356 C43.7486693,39.744372 44.5598901,39.8806837 45.351994,40.0818265 C46.1490849,40.2829694 46.9312148,40.53232 47.715007,40.7758525 C47.7831629,40.8049434 47.8546434,40.8182421 47.9302797,40.8182421 C48.0699161,40.8182421 48.2095525,40.763385 48.3101239,40.6628135 C48.4106953,40.5622421 48.4688771,40.4226057 48.4688771,40.2796447 C48.4688771,40.1267096 48.404046,40.0136707 48.3101239,39.8998006 C48.1447213,39.695333 47.8754226,39.6371512 47.6352148,39.5714889 C47.4365654,39.5166317 47.2420719,39.4617746 47.0442538,39.4094109 C46.6253447,39.2955408 46.2097603,39.1758525 45.7875265,39.0786057 C44.9364096,38.8832811 44.0728252,38.7536187 43.2125654,38.6239564 C42.5451369,38.5200603 41.8619161,38.4951252 41.1828512,38.4951252 C40.9866953,38.4951252 40.7905395,38.4967876 40.596046,38.5001122" id="Fill-17" fill="#161616" transform="translate(40.712075, 39.656684) rotate(-13.000000) translate(-40.712075, -39.656684) "></path>
            <path d="M38.1030038,43.2396308 C38.0539649,43.2462801 38.0090818,43.2529295 37.9600428,43.2587477 C38.0090818,43.2529295 38.0539649,43.2462801 38.1030038,43.2396308 L38.1030038,43.2396308 Z M41.810848,41.4409814 C40.9115233,41.4476308 40.0155233,41.4567736 39.122848,41.5482022 C38.3365623,41.6296568 37.5477831,41.7426957 36.7781207,41.9247217 C35.9893415,42.1100723 35.2196792,42.4018126 34.4566662,42.674436 C34.076822,42.8107477 33.8266402,43.1747996 33.9405103,43.5870594 C34.0410818,43.9536048 34.4699649,44.2362022 34.849809,44.1032152 C35.4116792,43.905397 35.9727181,43.713397 36.5445623,43.5513191 C36.9892376,43.4249814 37.443887,43.3368775 37.9051857,43.2687217 C38.0099129,43.2562542 38.113809,43.2437866 38.2185363,43.2321503 C39.181861,43.0675788 40.1576532,42.9104879 41.1351077,42.866436 C41.3919389,42.856462 41.6454454,42.8498126 41.9014454,42.8498126 C42.8365103,42.8498126 43.7649259,42.9279425 44.6875233,43.1257607 C44.9859129,43.1880983 45.2884584,43.2429555 45.576874,43.3468516 C45.8170818,43.4349555 46.1187961,43.5363581 46.3723025,43.6851373 C46.482848,43.7217087 46.5933935,43.7607736 46.7039389,43.8015009 C47.1585883,43.9502801 47.6714194,44.1165139 47.9831077,44.4897087 C48.0279909,44.525449 48.0770298,44.5611892 48.1293935,44.5969295 C48.2357831,44.6650853 48.3596272,44.7041503 48.4826402,44.7432152 C48.7527701,44.8238386 49.0611337,44.7332412 49.2556272,44.5379165 C49.5149519,44.2785918 49.5481987,43.8920983 49.3786402,43.5737607 C49.3761467,43.570436 49.372822,43.5646178 49.372822,43.5612931 C49.3104844,43.4249814 49.2423285,43.3111113 49.1351077,43.1747996 C48.9472636,42.9445659 48.6646662,42.7982801 48.4053415,42.6619684 C47.9540168,42.4217607 47.4636272,42.2555269 46.9832116,42.0901243 C46.1287701,41.8017087 45.2493935,41.6163581 44.3533935,41.5249295 C43.6676792,41.4542801 42.9861207,41.4409814 42.2979129,41.4409814 L41.810848,41.4409814 Z" id="Fill-19" fill="#161616" transform="translate(41.698073, 43.106801) rotate(-13.000000) translate(-41.698073, -43.106801) "></path>
            <path d="M37.9842759,48.2008056 C37.9227694,48.3080263 37.906146,48.434364 37.9385616,48.5515588 C37.9743019,48.6745718 38.0491071,48.749377 38.1463538,48.8241822 C38.3250551,48.9505199 38.5004317,49.0677147 38.6949252,49.1716108 C38.9060421,49.2854809 39.1437564,49.3536367 39.3739902,49.4184679 C39.9034447,49.5680783 40.4553408,49.6387276 41.0005876,49.7010653 C41.2083798,49.7268315 41.4194967,49.7368056 41.6272889,49.7525978 C41.7926915,49.7658965 41.9580941,49.7850134 42.1234967,49.7916627 C42.7244317,49.8141043 43.3286915,49.8598186 43.9287954,49.827403 C44.3219382,49.8082861 44.7117564,49.7368056 45.0982499,49.665325 C45.1755486,49.6520263 45.2536785,49.6329095 45.3318084,49.6162861 C45.4614707,49.5871952 45.5786655,49.5381562 45.689211,49.4666757 C45.7956006,49.3985199 45.8546136,49.3112471 45.9294188,49.2140004 C45.9776265,49.1292212 46.0033928,49.0386237 46.0033928,48.941377 C46.0033928,48.9164419 46.0033928,48.892338 45.9992369,48.8690653 C45.2154447,48.9422082 44.4200162,48.9114549 43.6370551,48.8499484 C43.4625097,48.8358186 43.2879642,48.8200263 43.1134188,48.8025718 C42.7759642,48.80839 42.4385097,48.803403 42.1010551,48.8017406 C41.8866136,48.8017406 41.6754967,48.7817926 41.4643798,48.769325 C41.1302499,48.7527017 40.7994447,48.7302601 40.4678084,48.6911952 C40.0430811,48.6330134 39.624172,48.5482341 39.2210551,48.4119225 C39.1046915,48.3562341 38.9974707,48.2947276 38.8902499,48.2298965 C38.6176265,48.1816887 38.3474967,48.1359744 38.0748733,48.0935848 C38.039133,48.1260004 38.0067175,48.1617406 37.9842759,48.2008056" id="Fill-21" fill="#161616" transform="translate(41.962865, 48.966118) rotate(-13.000000) translate(-41.962865, -48.966118) "></path>
            <path d="M43.5147775,41.614771 C43.4075567,41.6114464 43.3036606,41.614771 43.1997645,41.6214204 C42.9337905,41.6405373 42.6445438,41.6796022 42.4109853,41.8125892 C42.2115048,41.9272905 42.0485957,42.0868749 41.8989853,42.2580957 C42.8024658,42.2639139 43.6984658,42.3453684 44.5928035,42.5365373 C44.8911931,42.5988749 45.1937386,42.6537321 45.4821541,42.7576282 C45.7331671,42.8498879 46.052336,42.9562775 46.3124918,43.1166931 C46.3789853,43.1383035 46.4446476,43.1607451 46.5111412,43.1831866 C46.5377386,43.189836 46.5601801,43.1989788 46.5826217,43.2056282 C46.4596087,43.0202775 46.3099983,42.8482256 46.1670373,42.6794983 C45.9692191,42.4459399 45.7157126,42.2605892 45.4696866,42.0818879 C45.2294788,41.909836 44.9468814,41.796797 44.6767515,41.6929009 C44.4240762,41.5923295 44.1315048,41.5757061 43.8622061,41.5723814 C43.7450113,41.5723814 43.6286476,41.5890048 43.5147775,41.614771" id="Fill-23" fill="#161616" transform="translate(44.240803, 42.389005) rotate(-13.000000) translate(-44.240803, -42.389005) "></path>
            <path d="M46.6450532,47.997603 C46.4838065,48.0059147 46.3217286,48.0117328 46.1604818,48.0158887 C45.3043779,48.1181224 44.433313,48.0882004 43.5772091,48.0200445 C43.5024039,48.0142263 43.4267675,48.007577 43.3527935,48.0009276 C43.3985078,48.0325121 43.4442221,48.0632653 43.4924299,48.091525 C44.0543,48.4489276 44.7100922,48.6076809 45.3658844,48.6700186 C45.6842221,48.6991095 46.0050532,48.6600445 46.3167416,48.6110056 C46.5835467,48.568616 46.8337286,48.5104341 47.0830792,48.4098627 C47.2784039,48.3284082 47.3789753,48.273551 47.5443779,48.140564 C47.6449493,48.0591095 47.7264039,47.9784861 47.8103519,47.87459 C47.8136766,47.87459 47.8136766,47.8712653 47.8136766,47.8712653 C47.4271831,47.9327718 47.0315467,47.9784861 46.6450532,47.997603" id="Fill-25" fill="#161616" transform="translate(45.583235, 48.286850) rotate(-13.000000) translate(-45.583235, -48.286850) "></path>
            <path d="M38.4295658,48.004115 C38.3032281,48.2218813 38.3647346,48.5526865 38.6016177,48.6698813 C39.1759554,48.9524787 39.7702411,49.1694137 40.3778255,49.3647384 C40.5565268,49.4229202 40.7377216,49.481102 40.9164229,49.540115 C41.3220333,49.6697774 41.7409424,49.7479072 42.1598515,49.8027644 C42.8937736,49.9033358 43.6409944,49.9556994 44.3807346,49.9357514 C44.5369944,49.9324267 44.6957476,49.9390761 44.8520074,49.9232839 C45.0431762,49.9033358 45.2318515,49.8875436 45.4230203,49.8675955 C45.7480074,49.83518 46.0788126,49.7894657 46.4037996,49.7312839 C46.7346048,49.6697774 47.0629165,49.6082709 47.390397,49.530141 C47.533358,49.4977254 47.676319,49.4586605 47.8159554,49.4129462 C47.9489424,49.3713878 48.0919035,49.3223488 48.2057736,49.2408942 C48.3221372,49.1569462 48.4002671,49.0688423 48.4750723,48.9458293 C48.5822931,48.767128 48.5789684,48.5335696 48.4750723,48.3548683 C48.4559554,48.3257774 48.4360074,48.2966865 48.4135658,48.2700891 C48.3936177,48.2734137 48.3745009,48.2800631 48.3545528,48.2833878 C47.8292541,48.3839592 47.267384,48.4620891 46.7279554,48.49118 L46.494397,48.501154 C46.1345009,48.5817774 45.7704489,48.6499332 45.4097216,48.7147644 L45.5659814,48.6956475 C45.0465009,48.7638033 44.530345,48.8319592 44.0075398,48.8386085 C43.319332,48.8485826 42.6402671,48.8319592 41.9587087,48.7480111 C41.5597476,48.6790241 41.1765788,48.5784527 40.79341,48.4620891 C40.3520593,48.329102 39.9198515,48.1894657 39.4942931,48.0207384 C39.4610463,48.0049462 39.4277996,47.9899852 39.3945528,47.9741929 C39.1269165,47.9268163 38.8601113,47.881102 38.5908126,47.8362189 C38.5276437,47.8744527 38.4719554,47.930141 38.4295658,48.004115" id="Fill-27" fill="#161616" transform="translate(43.459801, 48.888082) rotate(-13.000000) translate(-43.459801, -48.888082) "></path>
            <mask id="mask-2" fill="white">
                <use xlink:href="#path-1"></use>
            </mask>
            <g id="Clip-30" transform="translate(41.584890, 52.737654) rotate(-13.000000) translate(-41.584890, -52.737654) "></g>
            <path d="M31.1371561,78.3025885 L31.166247,78.231108 C31.2277535,78.0914716 31.2867665,77.9518353 31.3549223,77.8155236 C31.4388704,77.6434716 31.5269743,77.478069 31.6175717,77.3093418 L31.6824028,77.1854976 L31.7829743,76.9976535 L31.8868704,76.8089781 C32.0198574,76.6502249 32.1594938,76.4906405 32.3024548,76.3318872 C32.4387665,76.1789522 32.5883769,76.0334976 32.7413119,75.8963548 L32.7737275,75.8963548 C32.8485327,75.8963548 32.8967405,75.8905366 32.9457795,75.8772379 C33.4910262,75.7509002 34.046247,75.656147 34.5981431,75.5622249 L35.0004288,75.494069 C36.0493639,75.3934976 37.0268184,75.3029002 38.0075976,75.2247703 C38.2245327,75.3444587 38.4747145,75.4159392 38.6700392,75.4649781 C38.8745067,75.5198353 39.0856236,75.5522509 39.2900912,75.5821729 L39.6308704,75.6337054 C40.244273,75.7342768 40.8385587,75.8772379 41.2317015,75.97116 C41.8218314,76.1174457 42.3645847,76.2504327 42.8807405,76.4515755 L42.9813119,76.5006145 L43.1309223,76.5654457 C43.533208,76.8904327 44.0593379,77.3218093 44.5464028,77.7864327 C44.7284288,77.9584846 44.8805327,78.1629522 45.0301431,78.3607703 C45.1049483,78.4555236 45.1764288,78.5527703 45.2537275,78.6466924 L45.5363249,78.9907963 L45.9003769,79.4354716 C46.3350782,80.0364067 46.7049483,80.673082 47.0299353,81.377082 L47.1080652,81.5815496 C47.1504548,82.0295496 47.1695717,82.3869522 47.166247,82.7086145 C47.1629223,82.8997833 47.1595976,83.095108 47.1537795,83.2862768 L47.1471301,83.5755236 C47.1438054,83.858121 47.1338314,84.1398872 47.1014158,84.41916 C47.0557015,84.6917833 46.9975197,84.9585885 46.9260392,85.2278872 C46.8578834,85.5005106 46.7573119,85.7664846 46.6567405,86.0299651 C46.3674938,86.6990561 46.0400132,87.2733937 45.6634938,87.7862249 C45.4714938,88.0139651 45.2736756,88.2375496 45.0625587,88.4553158 C44.8447925,88.6822249 44.591286,88.9099651 44.2638054,89.1692898 C44.1856756,89.2307963 44.1075457,89.2864846 44.0235976,89.3413418 C43.9454678,89.3970301 43.8615197,89.4385885 43.7767405,89.4809781 C43.6337795,89.5399911 43.4908184,89.5848742 43.3387145,89.6106405 C43.2705587,89.6172898 43.2024028,89.6206145 43.134247,89.6206145 C43.0037535,89.6206145 42.8740912,89.6106405 42.7444288,89.5948483 C42.6530002,89.5782249 42.5657275,89.559108 42.4751301,89.5333418 C42.2764808,89.4385885 42.0886366,89.3288742 41.9066106,89.1983807 C41.8160132,89.1177574 41.7345587,89.0363028 41.6597535,88.9457054 C41.5816236,88.83516 41.5167925,88.7179651 41.4586106,88.5949522 C41.3256236,88.2633158 41.2607925,87.9192119 41.2184028,87.6598872 C41.2051041,87.5493418 41.2051041,87.442121 41.2117535,87.3315755 C41.2998574,87.3024846 41.3904548,87.270069 41.4843769,87.2376535 C41.7669743,87.1337574 42.0429223,87.0232119 42.312221,86.8902249 C42.5524288,86.7730301 42.7278054,86.6500171 42.799286,86.4197833 C42.8674418,86.2119911 42.760221,85.9451859 42.5690522,85.8512638 C42.4684808,85.8022249 42.371234,85.7797833 42.2706626,85.7797833 C42.1925327,85.7797833 42.1110782,85.7897574 42.0271301,85.8121989 C41.8874938,85.8446145 41.7536756,85.8803548 41.6173639,85.9194197 C41.3222989,86.0041989 40.9291561,86.1139132 40.5135717,86.1762509 C39.6666106,86.2834716 39.0108184,86.3283548 38.3907665,86.3283548 L38.1597015,86.3316794 L37.6925847,86.3316794 C37.2445847,86.3316794 36.7151301,86.3250301 36.1890002,86.2734976 C35.8091561,86.2086664 35.5041171,86.1272119 35.2281691,86.0266405 C35.1724808,86.0041989 35.1142989,85.9942249 35.0561171,85.9942249 C34.7868184,85.9942249 34.5133639,86.2053418 34.4393899,86.4713158 C34.3936756,86.6333937 34.4194418,86.8154197 34.504221,86.9650301 C34.5848444,87.1013418 34.7020392,87.1919392 34.8873899,87.2567703 C35.2830262,87.4063807 35.6728444,87.5102768 36.0718054,87.5784327 C36.2471821,87.6075236 36.4225587,87.6307963 36.5979353,87.6465885 L36.5721691,87.767108 C36.5364288,87.9782249 36.4873899,88.1436275 36.4258834,88.3123548 C36.3286366,88.4977054 36.2214158,88.6697574 36.1017275,88.8318353 C35.9654158,88.9847703 35.8191301,89.121082 35.6595457,89.2507444 C35.4874938,89.3704327 35.3154418,89.4743288 35.134247,89.5657574 C34.9164808,89.6497054 34.6987145,89.7145366 34.4684808,89.7602509 C34.3413119,89.7735496 34.2182989,89.7801989 34.0919613,89.7801989 C33.9847405,89.7801989 33.8808444,89.7768742 33.7736236,89.7669002 C33.5949223,89.7344846 33.4228704,89.6887703 33.2541431,89.6272638 C32.9033899,89.4618613 32.5559613,89.254069 32.1985587,88.9905885 C32.0531041,88.8709002 31.9101431,88.7503807 31.7796496,88.614069 C31.6308704,88.4619651 31.4945587,88.3023807 31.3615717,88.1403028 C31.1595976,87.8710041 30.9975197,87.6208223 30.861208,87.3739651 C30.6991301,87.0789002 30.5495197,86.7763548 30.413208,86.4713158 C30.3350782,86.2859651 30.2635976,86.1047703 30.1921171,85.9194197 C30.1339353,85.7606664 30.088221,85.5944327 30.0433379,85.4257054 L29.9909743,85.2445106 C29.8546626,84.7408223 29.7640652,84.2279911 29.7017275,83.8348483 C29.6601691,83.4292379 29.6535197,83.0070041 29.6859353,82.5398872 L29.7474418,82.332095 C29.822247,82.0943807 29.8937275,81.8608223 29.9519093,81.6239392 L30.0200652,81.3513158 C30.0691041,81.1435236 30.1173119,80.9390561 30.1796496,80.7379132 L30.221208,80.6016015 C30.2478054,80.5134976 30.2735717,80.4262249 30.3059873,80.338121 C30.3608444,80.1893418 30.4198574,80.0397314 30.4813639,79.890121 C30.6176756,79.5559911 30.7539873,79.2185366 30.8936236,78.8869002 L31.1338314,78.3059132 L31.1371561,78.3059132 L31.1371561,78.3092379 L31.1371561,78.3025885 Z M50.1858834,6.82871839 L50.1011041,6.82871839 C49.741208,6.82871839 49.3771561,6.86113398 49.0205847,6.89354956 L48.8028184,6.90934177 C47.9583509,6.98414697 47.1205327,7.05895216 46.280221,7.16284826 C44.5887925,7.37728982 42.9555457,7.68232878 41.4295197,8.07547164 C40.786195,8.23754956 40.0946626,8.44534177 39.2601691,8.72793917 L39.0465587,8.79941969 C38.5004808,8.97812099 38.0466626,9.13354956 37.6044808,9.31890021 L35.7410002,10.0977054 L35.2738834,10.2863807 C34.9264548,10.4260171 34.5790262,10.5656535 34.2473899,10.7277314 L33.6406366,11.0169781 L33.5101431,11.07516 C32.7803769,11.4292379 32.0497795,11.7799911 31.3225067,12.1565106 L29.4523769,13.1206664 C29.1631301,13.2669522 28.8805327,13.4356794 28.6045847,13.6044067 L28.2638054,13.8121989 C27.9421431,13.9975496 27.6238054,14.182069 27.3121171,14.3707444 L27.1791301,14.4455496 C27.0494678,14.5203548 26.9680132,14.5619132 26.8965327,14.6142768 L26.0720132,15.1728223 L25.2474938,15.7346924 C24.5459873,16.2084587 23.8677535,16.7113158 23.1180392,17.2765106 L22.452273,17.7702249 C21.8056236,18.2473158 21.1697795,18.7410301 20.5331041,19.2347444 L20.0460392,19.6112638 C19.1857795,20.2761989 18.3255197,21.030069 17.6339873,21.6334976 L17.2408444,21.9742768 C16.4878054,22.6333937 15.7896236,23.3315755 14.9127405,24.2441989 L14.4780392,24.7021729 C14.0624548,25.1435236 13.6435457,25.5848742 13.2055197,26.007108 C12.6893639,26.504147 12.0984028,27.0203028 11.3935717,27.5846664 C11.267234,27.6727703 11.1375717,27.7600431 11.0070782,27.8448223 L10.9031821,27.9163028 C10.8059353,27.9778093 10.7153379,28.0426405 10.6205847,28.1074716 C10.4651561,28.2146924 10.3188704,28.3285625 10.1759093,28.449082 C9.91325998,28.6693418 9.79606518,28.9710561 9.69549375,29.2378613 C9.60157167,29.478069 9.63066258,29.9327184 9.69549375,30.1529781 C9.72790933,30.2635236 9.76697427,30.3674197 9.81268856,30.4713158 C10.0395976,31.0132379 10.2540392,31.5950561 10.514195,32.358069 C10.7377795,33.0138613 10.962195,33.6696535 11.1633379,34.3287703 C11.3711301,35.0103288 11.5298834,35.6727703 11.6537275,36.3451859 C11.7542989,37.3060171 11.7509743,38.3316794 11.6404288,39.393082 C11.5531561,39.8610301 11.4226626,40.4777574 11.1990782,41.062069 C10.9031821,41.7278353 10.6239093,42.273082 10.3188704,42.7834197 L10.1825587,43.0036794 L10.0495717,43.228095 C9.90328596,43.4749522 9.79606518,43.7276275 9.71211713,43.9453937 C9.63398726,44.1432119 9.62401323,44.41916 9.67970154,44.6693418 C9.72790933,44.8613418 9.84510414,45.1106924 9.99138985,45.2312119 C10.1335197,45.345082 10.2764808,45.4523028 10.4651561,45.5395755 C10.5790262,45.5944327 10.7020392,45.640147 10.819234,45.6825366 C11.6179873,46.0399392 12.3510782,46.4812898 13.059234,46.9068483 L13.3218834,47.0656015 C13.5978314,47.2343288 13.8737795,47.3964067 14.1663509,47.5360431 C14.452273,47.6723548 14.7639613,47.7704327 15.0623509,47.8643548 L15.2310782,47.9125625 C15.4197535,47.9715755 15.6051041,48.0164587 15.7995976,48.0463807 C15.7829743,48.1369781 15.7862989,48.2475236 15.7896236,48.358069 C15.796273,48.5750041 15.8128963,48.7927703 15.8286886,49.0105366 C15.7247925,49.5167184 15.6308704,50.0262249 15.5361171,50.5365625 L15.358247,51.4973937 C15.0399093,53.1663807 14.728221,54.9650301 14.6077015,56.7994197 L14.5919093,57.0529262 L14.575286,57.3056015 C14.5561691,57.4419132 14.5395457,57.5782249 14.5270782,57.7145366 L14.4813639,58.1143288 L14.4589223,58.3545366 C14.4231821,58.6795236 14.39326,58.9878872 14.3674938,59.3029002 C14.3417275,59.6145885 14.3251041,59.9262768 14.3093119,60.2346405 L14.2768963,60.8256015 C14.1954418,62.1596275 14.1439093,63.2185366 14.1173119,64.156095 C14.1048444,64.6306924 14.098195,65.1144327 14.0915457,65.5881989 C14.0848963,66.0262249 14.1015197,66.4093937 14.1206366,66.7958872 L14.1405847,67.2347444 C14.1796496,68.1465366 14.2669223,69.0782768 14.3608444,70.0299651 L14.3741431,70.1795755 L14.3874418,70.3025885 L14.3999093,70.4164587 C14.6633899,73.0072119 15.023286,75.0818093 15.5336236,76.9452898 C15.6466626,77.3484067 15.7738314,77.7440431 15.9068184,78.1405106 C15.9849483,78.3674197 16.0755457,78.5885106 16.1661431,78.8087703 L16.205208,78.9068483 L16.3706106,79.309134 C16.7313379,80.2084587 17.101208,81.0978093 17.4810522,81.9879911 C17.5043249,81.9356275 17.4976756,81.8865885 17.4810522,81.8350561 C17.7835976,82.7152638 18.2374158,83.7700171 18.686247,84.6726664 C19.2115457,85.7216015 19.7343509,86.6633158 20.2413639,87.4678872 C20.8905067,88.5392638 21.5654158,89.4419132 22.3059873,90.2315236 C22.861208,90.8158353 23.4845847,91.351108 24.0364808,91.8257054 L24.1079613,91.8872119 L24.6631821,92.3676275 C25.741208,93.2993677 26.5757015,93.9327184 27.3678054,94.4256015 C28.1241691,94.9068483 28.9195976,95.260095 29.68926,95.6008742 L30.1887925,95.8286145 L30.6010522,96.0197833 L30.6991301,96.0654976 C31.604273,96.4844067 32.4229743,96.8576015 33.2541431,97.1759392 C33.4453119,97.2573937 33.6406366,97.3288742 33.8351301,97.3970301 L33.9714418,97.4452379 L34.1368444,97.5042509 L34.2315976,97.5366664 L34.770195,97.73116 C35.2024028,97.8932379 35.6371041,98.056147 36.0817795,98.189134 C37.1855717,98.5199392 38.3384028,98.5789522 39.5203249,98.6113677 C40.0398054,98.62716 40.5559613,98.637134 41.0721171,98.6437833 L41.2117535,98.647108 C41.9099353,98.647108 42.5914938,98.5723028 43.2281691,98.4226924 C43.7085847,98.312147 44.173208,98.1567184 44.6951821,97.9323028 C45.3160652,97.6787963 45.8513379,97.3413418 46.2960132,97.0429522 C46.994195,96.5816535 47.663286,96.0588483 48.3057795,95.5526664 L48.4686886,95.4263288 L49.007286,95.0007703 L49.2607925,94.8029522 C49.6015717,94.536147 49.9456756,94.2668483 50.2673379,93.9742768 C50.6596496,93.6110561 51.0237015,93.2312119 51.3644808,92.8738093 L51.5140912,92.7117314 L51.5689483,92.6469002 C51.9587665,92.2246664 52.3253119,91.8257054 52.6403249,91.410121 C52.8123769,91.1790561 52.9777795,90.9454976 53.1465067,90.7119392 L53.3318574,90.4484587 L53.4681691,90.2506405 L53.5595976,90.1176535 L54.5686366,88.7054976 L54.9227145,88.1984846 L55.4845847,87.4063807 C55.9325847,86.7730301 56.3514938,86.0848223 56.7413119,85.4323548 L57.1469223,84.7632638 C57.5724808,84.0750561 57.923234,83.494069 58.2407405,82.8607184 C58.4327405,82.4775496 58.5981431,82.0819132 58.7568963,81.682121 C58.952221,81.2216535 59.0170522,80.7927703 59.0685847,80.3904846 C59.0685847,80.1826924 59.0170522,79.9840431 58.9098314,79.8028483 C58.760221,79.5393677 58.504221,79.3448742 58.2083249,79.2634197 C58.095286,79.2310041 57.9913899,79.2152119 57.8999613,79.2152119 C57.5076496,79.2152119 57.1369483,79.4288223 56.8867665,79.7995236 L56.7994938,79.9258613 C56.6856236,80.0854457 56.5750782,80.2441989 56.4778314,80.4195755 C56.4329483,80.5010301 56.387234,80.5849781 56.3415197,80.673082 L56.2766886,80.7994197 L56.1403769,81.0562509 C55.9259353,81.4685106 55.6890522,81.8707963 55.442195,82.2697574 C55.1113899,82.8058613 54.767286,83.3386405 54.4265067,83.8672638 L54.2087405,84.2022249 L53.8189223,84.8056535 C53.7083769,84.9777054 53.5953379,85.1497574 53.4781431,85.3218093 C53.5330002,85.1888223 53.5238574,85.0458613 53.5105587,84.887108 C53.4424028,84.1174457 53.3484808,83.208147 53.1465067,82.2830561 L53.0168444,81.6854457 C52.9129483,81.1950561 52.7151301,80.7246145 52.5231301,80.2699651 C52.2704548,79.6823288 52.0169483,79.2409781 51.7542989,78.8029522 L51.6113379,78.5619132 C51.4326366,78.2568742 51.247286,77.95516 51.0594418,77.6534457 C50.6987145,77.069134 50.2507145,76.5878872 49.8193379,76.1531859 C49.4128963,75.7442509 48.9615717,75.3644067 48.5235457,74.9970301 L48.2185067,74.7377054 C48.0040652,74.5556794 47.7829743,74.3769781 47.5660392,74.199108 L47.3449483,74.0237314 C47.0656756,73.7993158 46.7764288,73.5815496 46.4846886,73.3737574 C45.9685327,73.0005625 45.364273,72.7246145 44.9004808,72.530121 C43.9030782,72.0979132 42.9646886,71.7928742 42.0238054,71.5950561 C41.2474938,71.4354716 40.4487405,71.393082 39.9167925,71.3772898 C39.7896236,71.3772898 39.6957015,71.393082 39.5918054,71.4263288 C39.5037015,71.3124587 39.3549223,71.2210301 39.186195,71.176147 C39.0914418,71.1470561 38.9975197,71.1304327 38.9127405,71.1304327 C38.4680652,71.1304327 38.0790782,71.432147 37.9161691,71.8934457 C37.8031301,72.2217574 37.68926,72.5459132 37.5720652,72.8742249 C37.4199613,73.2898093 37.3418314,73.6438872 37.3351821,73.9613937 L37.1697795,73.9647184 L36.9944028,73.9780171 L37.0401171,73.9098613 C37.1631301,73.8026405 37.2379353,73.6139651 37.2603769,73.3413418 C37.2670262,73.2116794 37.2537275,73.062069 37.2246366,72.9033158 C37.1697795,72.6016015 37.0559093,72.3123548 36.8971561,72.0688223 C36.8905067,71.8776535 36.754195,71.6432638 36.5173119,71.5917314 C36.0335717,71.4944846 35.6437535,71.4487703 35.2930002,71.4487703 C35.1209483,71.4487703 34.9455717,71.4587444 34.770195,71.4811859 C34.2931041,71.5460171 33.8451041,71.6989522 33.3090002,71.8867963 C33.1244808,71.9516275 32.9457795,72.0172898 32.7670782,72.0854457 L32.6598574,72.1270041 L32.5784028,72.156095 C32.4354418,72.2084587 32.3839093,72.2309002 32.3348704,72.2574976 C32.195234,72.3156794 32.0655717,72.3938093 31.939234,72.471108 C31.023286,73.0396275 30.270247,73.6172898 29.6335717,74.1143288 C29.1207405,74.5132898 28.7051561,74.9321989 28.3643769,75.3868483 C28.0751301,75.7799911 27.8191301,76.2180171 27.5980392,76.5978613 C27.3154418,77.0882509 27.1467145,77.6044067 27.0270262,77.9809262 L26.9646886,78.1662768 L26.8774158,78.4455496 C26.7219873,78.8935496 26.5590782,79.3349002 26.3970002,79.7762509 C26.0886366,80.6306924 25.9323769,81.5815496 25.8060392,82.3478872 L25.7869223,82.4717314 C25.7345587,82.7867444 25.6763769,83.1009262 25.6173639,83.4126145 L25.5849483,83.5913158 L25.549208,83.809082 L25.5167925,83.9944327 C25.455286,84.3476794 25.3971041,84.6984327 25.3480652,85.0624846 C25.2217275,85.9809262 25.1369483,86.7572379 25.1369483,87.5493418 C25.1369483,87.9325106 25.140273,88.3123548 25.150247,88.6955236 L25.1568963,88.9614976 L25.1660392,89.2283028 C25.0820912,89.0853418 24.9524288,88.9614976 24.8219353,88.83516 L24.4454158,88.471108 C24.1304028,88.1627444 23.8577795,87.8186405 23.5951301,87.4878353 C22.7440132,86.3383288 21.9327925,84.9910041 21.1107665,83.3577574 C20.4815717,82.1010301 19.9197015,80.786121 19.3777795,79.5169262 L19.2996496,79.3382249 L19.1724808,79.0331859 L18.9680132,78.5103807 L18.8873899,78.3092379 C18.7635457,78.0100171 18.6438574,77.7116275 18.5233379,77.4099132 C18.4127925,77.1239911 18.3255197,76.8289262 18.2374158,76.5330301 L18.1991821,76.3933937 C18.0977795,76.0492898 17.997208,75.7051859 17.91326,75.3544327 C17.6115457,74.1143288 17.3713379,72.8127184 17.150247,71.2634197 C16.9225067,69.3675236 16.7088963,67.341134 16.692273,65.3612898 C16.5950262,64.6464846 16.5168963,63.9325106 16.4520652,63.2152119 C16.4262989,62.7796794 16.4030262,62.3449781 16.3905587,61.9094457 C16.367286,61.020095 16.3839093,60.1531859 16.4387665,59.3353158 L16.4711821,58.8906405 C16.5069223,58.3445625 16.5426626,57.8026405 16.5950262,57.2607184 C16.653208,56.6273677 16.7180392,55.9906924 16.7895197,55.3606664 C16.9391301,54.3217054 17.1111821,53.2893937 17.2865587,52.2537574 C17.3937795,51.6046145 17.5043249,50.9587963 17.6048963,50.3054976 C17.7445327,49.4294457 17.8899873,48.5592119 18.0495717,47.6856535 C18.1335197,47.2243548 18.2182989,46.7672119 18.3055717,46.3092379 C18.351286,46.0814976 18.4003249,45.8579132 18.4518574,45.6301729 L18.4975717,45.4223807 C19.124273,45.1838353 19.7784028,44.9718872 20.3718574,44.7865366 C20.6228704,44.6493937 20.9021431,44.5529781 21.1731041,44.4549002 C21.8355457,44.2146924 22.5237535,44.0783807 23.2086366,43.9296015 C23.9974158,43.7567184 24.7895197,43.686069 25.5816236,43.686069 C26.3155457,43.686069 27.0527925,43.7475755 27.7900392,43.848147 C28.3253119,43.9229522 28.8705587,43.9944327 29.3900392,44.1465366 C29.6668184,44.22716 29.9037015,44.3418613 30.1264548,44.4823288 C30.0998574,44.4465885 30.0724288,44.4091859 30.0433379,44.3742768 L30.1505587,44.4324587 L30.2444808,44.4681989 C30.3550262,44.5139132 30.4780392,44.5330301 30.6243249,44.5330301 C30.7506626,44.5297054 30.8321171,44.5072638 30.9035976,44.4715236 C31.0041691,44.5172379 31.0980912,44.5496535 31.2086366,44.5529781 C31.3416236,44.5529781 31.4355457,44.5172379 31.5427665,44.4648742 C31.5560652,44.572095 31.5718574,44.6859651 31.5884808,44.8023288 C31.6890522,45.5977574 31.7796496,46.374069 31.8353379,47.1595236 C31.8777275,47.8477314 31.8744028,48.5783288 31.8220392,49.4651859 L31.7538834,50.6496015 C31.6890522,51.8157314 31.6208963,53.020095 31.5170002,54.2086664 C31.4197535,54.8386924 31.2959093,55.4745366 31.1404808,56.1469522 C31.0881171,56.3738613 31.03326,56.5982768 30.9750782,56.8218613 C30.8678574,57.2607184 30.7539873,57.7087184 30.6791821,58.1633677 C30.5561691,58.913082 30.4290002,59.666121 30.2960132,60.4158353 C30.1829743,61.0724587 30.1048444,61.7506924 30.0333639,62.40316 L30.004273,62.6633158 C29.9685327,62.9001989 29.9327925,63.1337574 29.8937275,63.3673158 C29.8288963,63.7538093 29.7673899,64.1369781 29.7216756,64.5234716 C29.68926,64.8027444 29.679286,65.09116 29.6925847,65.3737574 C29.7117015,65.7378093 29.7931561,66.0461729 29.9485847,66.3678353 C30.0300392,66.5265885 30.1306106,66.6562509 30.2411561,66.7925625 L30.2926886,66.8607184 C30.3583509,66.9454976 30.4290002,67.0169781 30.5071301,67.085134 C30.575286,67.3087184 30.6700392,67.4716275 30.8063509,67.6079392 C30.9908704,67.7542249 31.1047405,67.8448223 31.2410522,67.9096535 C32.195234,68.3867444 33.2898834,68.4515755 34.2374158,68.4515755 C34.5075457,68.4515755 34.7768444,68.449082 35.0428184,68.4424327 L35.1500392,68.439108 L35.7443249,68.4258093 L36.3386106,68.4133418 C36.7118054,68.4066924 37.0982989,68.3543288 37.4357535,68.3094457 L37.5687405,68.296147 L37.6535197,68.2828483 L37.8480132,68.257082 C38.0848963,68.1889262 38.280221,68.0783807 38.4456236,67.9196275 C38.6891561,67.6727703 38.8254678,67.3353158 38.8254678,66.9970301 C38.8254678,66.5132898 38.5304028,66.0395236 38.0915457,65.8217574 C37.9228184,65.4876275 37.5978314,65.2665366 37.2736756,65.2665366 L36.4067665,65.3446664 L35.6113379,65.416147 C35.2930002,65.4452379 34.9746626,65.4710041 34.6563249,65.4942768 C34.4751301,65.510069 34.2931041,65.5133937 34.1077535,65.5133937 C33.7179353,65.5133937 33.3056756,65.4876275 32.8094678,65.4294457 C32.7571041,65.4227963 32.7088963,65.4128223 32.6598574,65.4028483 L32.7446366,64.5691859 C32.7604288,64.3805106 32.7803769,64.1918353 32.7994938,64.0073158 C32.9615717,63.4454457 33.0820912,62.8802509 33.1984548,62.3350041 C33.4328444,61.2536535 33.5758054,60.1373937 33.7121171,59.0593677 L33.7960652,58.3803028 L33.8966366,57.7178613 C34.0720132,56.6016015 34.2473899,55.4454457 34.3188704,54.2926145 C34.3579353,53.7216015 34.3354938,53.1306405 34.312221,52.562121 C34.2831301,51.799108 34.2573639,51.1075755 34.2349223,50.4193677 C34.2216236,50.017082 34.2050002,49.6172898 34.189208,49.2183288 L34.1667665,48.6173937 C34.1434938,47.9873677 34.0753379,47.3481989 34.0105067,46.7347963 L33.9847405,46.5037314 C33.8708704,45.4032638 33.6954938,44.2894976 33.5234418,43.2114716 C33.4586106,42.7925625 33.3904548,42.3769781 33.3289483,41.9613937 C33.2898834,41.6954197 33.0463509,41.4419132 32.835234,41.3189002 C32.6822989,41.2283028 32.5135717,41.1759392 32.3348704,41.1692898 L32.205208,41.2798353 L32.0007405,41.4385885 L31.8544548,41.5458093 L31.747234,41.6339132 L31.7439093,41.6272638 C31.5593899,41.7826924 31.4455197,41.8932379 31.3382989,42.0137574 L31.2834418,42.2115755 C31.2701431,42.2764067 31.2576756,42.3445625 31.2410522,42.4127184 L31.2219353,42.4941729 L31.3158574,42.9488223 L31.3773639,43.3677314 C31.348273,43.3353158 31.3025587,43.3153677 31.2601691,43.2962509 C31.0756496,43.2147963 30.9484808,43.1599392 30.8221431,43.1109002 C30.3641691,42.9255496 29.9519093,42.7892379 29.5529483,42.6953158 C28.7575197,42.5008223 27.8640132,42.3969262 26.8258834,42.3736535 C26.6438574,42.37116 26.4585067,42.37116 26.2764808,42.37116 C25.4943509,42.37116 24.8028184,42.4035755 24.1536756,42.4684067 C23.663286,42.5199392 23.176221,42.5847703 22.6891561,42.6529262 C22.2345067,42.7177574 21.7898314,42.8249781 21.3609483,42.9321989 C21.0883249,43.0003548 20.8190262,43.0818093 20.5497275,43.1632638 L20.3610522,43.2214457 C20.0626626,43.3087184 19.7700912,43.4192638 19.4816756,43.533134 C19.2506106,43.6204067 19.0203769,43.7184846 18.7959613,43.8281989 C18.8998574,43.3386405 18.9879613,42.8839911 19.0818834,42.4293418 C19.1176236,42.2539651 19.1533639,42.0785885 19.1924288,41.9032119 L19.247286,41.6405625 L19.7867145,41.4618613 C20.0884288,41.3612898 20.3934678,41.2573937 20.6951821,41.1626405 C21.4457275,40.9390561 22.4389743,40.663108 23.471286,40.5134976 C24.1794418,40.4229002 24.7246886,40.358069 25.2998574,40.3547444 L25.6206886,40.3514197 C25.8093639,40.3514197 25.9947145,40.3547444 26.1825587,40.3613937 C26.484273,40.3705366 26.7801691,40.397134 27.075234,40.4262249 C27.6919613,40.5134976 28.1890002,40.6373418 28.6336756,40.8127184 C28.9328963,40.9490301 29.2445847,41.121082 29.5853639,41.3413418 C29.6368963,41.377082 29.699234,41.3937054 29.7640652,41.3937054 C29.8937275,41.3937054 30.0167405,41.3222249 30.0815717,41.2116794 C30.1796496,41.0462768 30.1239613,40.8318353 29.9519093,40.7212898 L29.8737795,40.6697574 C29.8937275,40.5459132 29.8513379,40.4162509 29.7574158,40.3190041 C29.6925847,40.2309002 29.6335717,40.1502768 29.5720652,40.0754716 C29.4457275,39.9325106 29.2994418,39.8219651 29.1307145,39.7047703 L29.0168444,39.624147 L28.9004808,39.5460171 C28.8090522,39.4878353 28.7051561,39.4454457 28.6045847,39.4030561 C28.4167405,39.3249262 28.2704548,39.2800431 28.1241691,39.2343288 L27.9421431,39.176147 C27.5365327,39.04316 27.1209483,38.945082 26.7344548,38.861134 C26.5333119,38.8154197 26.322195,38.7929781 26.1177275,38.7697054 L26.0329483,38.7605625 C25.8318054,38.7372898 25.6273379,38.7314716 25.4228704,38.7248223 C25.2574678,38.7248223 25.1369483,38.7347963 25.01726,38.7406145 L24.786195,38.7505885 C24.5659353,38.7572379 24.3448444,38.7638872 24.1270782,38.7929781 L24.0464548,38.8054457 C23.8419873,38.8353677 23.6375197,38.8644587 23.4355457,38.9126664 C23.2543509,38.9583807 23.0756496,39.0107444 22.8969483,39.0656015 L22.7440132,39.1113158 L22.5919093,39.1528742 C22.4589223,39.1886145 22.3251041,39.2276794 22.1954418,39.270069 C21.9810002,39.3448742 21.7673899,39.4196794 21.556273,39.5003028 C21.4000132,39.5593158 21.24126,39.6174976 21.0816756,39.6723548 C20.8157015,39.767108 20.5530522,39.8643548 20.296221,39.9782249 L20.1499353,40.0397314 C20.0269223,40.0945885 19.8997535,40.1502768 19.7800652,40.215108 C19.6919613,40.2599911 19.6046886,40.3057054 19.5199093,40.3547444 L19.5855717,40.1236794 L19.6404288,39.8834716 C19.8257795,39.0331859 20.0169483,38.1853937 20.2214158,37.3384327 C20.3544028,36.7898613 20.5297795,36.2437833 20.7018314,35.71516 C20.79326,35.4392119 20.8805327,35.1599392 20.9653119,34.8839911 C21.1531561,34.2473158 21.3094158,33.6630041 21.4357535,33.0944846 C21.5595976,32.5359392 21.6959093,31.9815496 21.8480132,31.4288223 C21.9294678,31.1304327 22.0134158,30.8353677 22.098195,30.5394716 L22.3251041,29.7307444 L22.3517015,29.6301729 C22.4198574,29.3774976 22.4913379,29.1239911 22.5819353,28.877134 C22.6725327,28.6369262 22.767286,28.3967184 22.8645327,28.1565106 C22.9227145,28.1274197 22.984221,28.0950041 23.0465587,28.0592638 L23.4097795,27.858121 C23.6275457,27.7376015 23.8419873,27.6204067 24.0555976,27.4973937 L24.3938834,27.3029002 C24.4811561,27.2538613 24.5335197,27.228095 24.5817275,27.1956794 L24.6565327,27.1499651 L24.7280132,27.1009262 L25.007286,26.9812379 C25.7927405,26.7052898 26.6438574,26.4093937 27.5199093,26.1434197 L27.7476496,26.0752638 C28.0235976,25.9938093 28.3028704,25.9131859 28.5854678,25.8350561 L29.0426106,25.7087184 C29.3576236,25.6172898 29.6726366,25.5300171 29.9909743,25.4552119 L30.1987665,25.4094976 C30.9717535,25.2374457 31.747234,25.0687184 32.5335197,24.9257574 C33.3971041,24.7736535 34.2606886,24.6398353 35.1309223,24.5134976 C36.114195,24.4096015 37.0982989,24.3156794 38.088221,24.2408742 C39.03326,24.1594197 39.9874418,24.1236794 41.0006366,24.0879392 L41.0945587,24.0854457 C41.4328444,24.072147 41.7702989,24.0654976 42.1110782,24.0654976 C42.6305587,24.0654976 43.1566886,24.0787963 43.6794938,24.0912638 L43.9354938,24.1012379 L44.173208,24.1078872 C45.0426106,24.1303288 45.9128444,24.19516 46.7573119,24.2990561 C47.9101431,24.481082 49.0297275,24.7437314 50.2673379,25.0396275 C51.5947145,25.367108 52.7251041,25.7145366 53.7250002,26.0977054 C54.5719613,26.4974976 55.2734678,26.8640431 55.9517015,27.3444587 C56.12126,27.4973937 56.2833379,27.656147 56.4329483,27.8281989 C56.4686886,27.8805625 56.5044288,27.942069 56.5393379,28.0201989 C56.8094678,28.8480431 56.9391301,29.7573418 57.0563249,30.556095 C57.1369483,31.2118872 57.2017795,31.7704327 57.2441691,32.3314716 C57.2699353,32.7179651 57.283234,33.1044587 57.2965327,33.4942768 C57.3023509,33.7378093 57.3090002,33.9746924 57.3222989,34.2082509 C57.3838054,35.494069 57.46526,36.7798872 57.5558574,38.0623807 C57.5949223,38.6275755 57.6273379,39.1886145 57.6564288,39.7538093 C57.6921691,40.4229002 57.731234,41.0944846 57.7869223,41.7635755 C57.8708704,42.770121 58.0204808,43.7957833 58.1501431,44.7017574 L58.2964288,45.7373937 L58.36126,46.2344327 L58.4393899,46.8029522 L58.4585067,46.9617054 L58.4751301,47.0946924 C58.6014678,48.072147 58.7186626,48.9905885 58.8807405,49.8865885 L58.7219873,49.8899132 C58.7344548,50.465082 58.7311301,50.9388483 58.7086886,51.3934976 C58.8907145,51.3801989 59.0494678,51.351108 59.2115457,51.3186924 C59.3835976,52.1756275 59.6304548,53.1015496 59.9354938,54.0657054 C60.143286,54.7015496 60.3843249,55.3024846 60.6502989,55.8510561 C60.7608444,56.0688223 60.8805327,56.2865885 61.0135197,56.4910561 C61.4781431,57.2116794 62.13726,57.6272638 62.8221431,57.6272638 C63.5170002,57.6048223 64.0464548,57.1983807 64.5559613,56.8093937 L64.6764808,56.7179651 C64.7961691,56.6273677 64.8485327,56.5883028 64.9033899,56.5492379 L65.0920652,56.4129262 L65.1635457,56.3638872 C65.4877015,56.1336535 65.7894158,55.9158872 66.1177275,55.7380171 C66.1991821,55.6956275 66.2798054,55.6532379 66.36126,55.6141729 C66.5881691,55.5302249 66.8125847,55.4554197 67.0527925,55.4097054 C67.1375717,55.4487703 67.1566886,55.4712119 67.1791301,55.4944846 L67.2963249,55.6598872 L67.3254158,55.7637833 L67.3744548,55.9192119 C67.1791301,56.6498093 67.1891041,57.2731859 67.4068704,57.8159392 C67.4717015,58.0461729 67.5880652,58.2473158 67.7634418,58.4326664 C68.0269223,60.572095 68.0460392,62.6309002 67.8158054,64.5525625 C67.7119093,65.1983807 67.5689483,65.958069 67.2930002,66.6795236 C67.1566886,66.9612898 66.9879613,67.2438872 66.7668704,67.5688742 C66.4751301,67.9129781 66.1368444,68.2379651 65.731234,68.5587963 C65.416221,68.7898613 64.9324808,69.1273158 64.4063509,69.3899651 C64.2966366,69.4032638 64.2575717,69.4032638 64.2151821,69.4032638 L64.1337275,69.2893937 C63.9425587,69.05916 63.6599613,68.9294976 63.3382989,68.9294976 C63.1205327,68.9294976 62.910247,68.9876794 62.7406886,69.0882509 C62.4813639,69.2378613 62.2868704,69.4971859 62.2120652,69.7997314 C62.1405847,70.098121 62.1854678,70.3898613 62.3417275,70.6242509 C62.452273,70.8029522 62.5686366,70.9907963 62.708273,71.1528742 C62.767286,71.2210301 62.9717535,71.452095 63.156273,71.5360431 C63.4031301,71.6499132 63.5818314,71.7280431 63.7929483,71.7795755 C63.9683249,71.8286145 64.1860912,71.8543807 64.4553899,71.8543807 C65.1336236,71.8385885 65.7445327,71.5684587 66.2540392,71.309134 C66.8350262,71.0165625 67.3611561,70.6857574 67.8615197,70.2992638 C68.0851041,70.1272119 68.2995457,69.9418613 68.5106626,69.7540171 C68.7217795,69.5620171 68.8971561,69.3317833 69.0758574,69.0949002 L69.1697795,68.9743807 C69.5595976,68.449082 69.8031301,67.8281989 70.0075976,67.2372379 C70.2020912,66.6886664 70.2735717,66.0819132 70.3317535,65.5042509 L70.3641691,65.2573937 C70.4231821,64.7345885 70.4555976,64.1826924 70.4647405,63.5269002 C70.4813639,62.241082 70.4290002,60.9910041 70.3059873,59.8190561 C70.2411561,59.1823807 70.1696756,58.5457054 70.0757535,57.9065366 C70.1405847,57.7444587 70.1663509,57.5815496 70.1505587,57.4419132 C70.1405847,57.4094976 70.13726,57.3804067 70.13726,57.3513158 C70.1663509,57.1950561 70.2120652,57.0496015 70.2569483,56.9066405 L70.2926886,56.7894457 C70.319286,56.7113158 70.3450522,56.6340171 70.3641691,56.5558872 C70.4323249,56.3023807 70.4880132,56.0497054 70.5395457,55.7961989 C70.6700392,55.1046664 70.7930522,54.4289262 70.8387665,53.734069 C70.900273,52.705082 70.8803249,51.6885625 70.861208,50.7052898 L70.8545587,50.2506405 L70.8479093,49.9846664 C70.8354418,49.1501729 70.8188184,48.3805106 70.7764288,47.6274716 L70.8154938,47.5269002 C70.9518054,47.1728223 71.0914418,46.812095 71.2119613,46.4521989 L71.3707145,45.9909002 L71.4131041,45.8703807 C71.5361171,45.5138093 71.6599613,45.1564067 71.7638574,44.7990041 L71.8835457,44.390069 L72.2866626,43.0136535 C72.3839093,42.6886664 72.4553899,42.3578613 72.530195,42.0295496 L72.5526366,41.9256535 L72.6631821,41.426121 C72.9033899,40.4096015 73.0920652,39.3382249 73.2217275,38.2377574 L73.27326,37.793082 C73.3222989,37.4065885 73.3713379,37.0167703 73.3971041,36.6302768 L73.4295197,36.104147 L73.46526,35.5721989 L73.4810522,35.3577574 C73.4943509,35.1890301 73.5076496,35.0169781 73.5101431,34.8482509 L73.5201171,33.8998872 L73.5334158,32.9490301 C73.5400652,32.4062768 73.5076496,31.8676794 73.46526,31.270069 C73.406247,30.3707444 73.2965327,29.50716 73.1369483,28.705082 C72.9939873,27.9645106 72.7704028,27.2372379 72.5526366,26.5332379 L72.4262989,26.1367703 C72.2966366,25.7145366 72.1403769,25.2989522 71.9849483,24.8866924 L71.8935197,24.6498093 C71.3939873,23.319108 70.7930522,21.7797833 70.0200652,20.3742768 C69.4166366,19.2763028 68.6627665,18.2930301 68.0036496,17.4743288 L67.7376756,17.1501729 C67.4941431,16.8476275 67.2506106,16.5459132 66.9946106,16.2508483 L66.7635457,15.9840431 C66.1144028,15.2376535 65.4419873,14.4613418 64.7346626,13.7373937 C64.3124288,13.3026924 63.8810522,12.8804587 63.4388704,12.4648742 C63.0590262,12.1074716 62.6401171,11.7899651 62.2087405,11.4683028 L62.0109223,11.3186924 C61.24126,10.7377054 60.4034418,10.1600431 59.2896756,9.44523787 C58.312221,8.81271839 57.3023509,8.29905606 56.2899873,7.92586125 L56.0173639,7.82196515 C55.8187145,7.74715995 55.6175717,7.67235476 55.4164288,7.60419891 C54.7897275,7.38726385 54.1048444,7.2152119 53.1888963,7.05230281 C52.3810002,6.91599112 51.7667665,6.85115995 51.1990782,6.84118593 C50.8607925,6.83536774 50.5266626,6.83204307 50.189208,6.82871839 L50.1858834,6.82871839 Z" id="Fill-29" fill="#161616" mask="url(#mask-2)" transform="translate(41.584877, 52.737913) rotate(-13.000000) translate(-41.584877, -52.737913) "></path>
            <path d="M29.078786,52.5863412 C28.7920327,52.6353802 28.5011237,52.6819257 28.2077211,52.7151724 C27.5336431,52.9221334 26.8213314,53.1000036 26.1173314,53.1058218 C25.3418509,53.1157958 24.5821626,53.0800555 23.8125003,52.9661854 C23.1641886,52.8722633 22.5233574,52.7592244 21.8858509,52.614601 C21.7412276,52.7334581 21.6772276,52.8672763 21.679651,53.0019257 C21.6830457,53.1157958 21.7345782,53.2230166 21.831825,53.3169386 C21.9132795,53.407536 21.9714613,53.4532503 22.0304743,53.4956399 C22.0919808,53.5280555 22.1534873,53.5571464 22.2149938,53.5862373 C22.3321886,53.6477438 22.4552016,53.7034321 22.5823704,53.7424971 C22.7153574,53.7807309 22.8549938,53.8073283 22.9946301,53.8297698 C23.2797211,53.8821334 23.4941626,53.9112244 23.7052795,53.9369906 C24.0950977,53.9827049 24.5206561,54.0051464 25.0010717,54.0051464 C25.2022146,54.0051464 25.4033574,53.9984971 25.607825,53.9951724 L25.7765522,54.0117958 C25.9619029,54.0309127 26.1505782,54.0508607 26.3384224,54.0600036 C26.5819548,54.0666529 26.8321366,54.0733023 27.0789938,54.0799516 L27.2186301,54.0832763 C27.6375392,54.0832763 28.0888639,54.027588 28.630786,53.9078997 C28.8385782,53.8655101 29.0463704,53.8231205 29.2541626,53.771588 C29.5010198,53.7100815 29.7154613,53.6543932 29.8933314,53.5347049 C29.964812,53.4856659 30.023825,53.4308088 30.0653834,53.3651464 C30.1044483,53.3427049 30.1435133,53.313614 30.1825782,53.2778737 C30.2765003,53.1872763 30.3222146,53.0409906 30.289799,52.9237958 C30.2440847,52.7484192 30.0720327,52.673614 29.974786,52.6445231 C29.7445522,52.5672244 29.4976951,52.5539257 29.2574873,52.5439516 C29.1993055,52.560575 29.1402925,52.5730425 29.078786,52.5863412" id="Fill-32" fill="#161616" mask="url(#mask-2)" transform="translate(25.989911, 53.313614) rotate(-13.000000) translate(-25.989911, -53.313614) "></path>
            <path d="M41.0828691,79.1884202 C40.5176743,79.3438488 40.1644275,79.9514332 40.3265054,80.5199526 C40.530973,81.240576 40.9598561,81.9088358 41.4851548,82.441615 C41.6838041,82.6394332 41.9688951,82.8114851 42.2190769,82.9453033 C42.465934,83.0782903 42.7285834,83.1722124 42.9920639,83.2694591 C43.3361678,83.3957968 43.7193366,83.4257189 44.0792327,83.4739267 C44.2903496,83.4996929 44.5014665,83.5096669 44.7125834,83.5063423 C45.2320639,83.4996929 45.7773106,83.4190695 46.2776743,83.2694591 C47.1055184,83.022602 47.8003756,82.4158488 48.3298301,81.7534072 C48.4561678,81.6004721 48.5891548,81.4417189 48.6772587,81.2630176 C48.7287912,81.1591215 48.7936223,81.0228098 48.8168951,80.8997968 C48.8975184,80.467589 48.8168951,80.1658747 48.540947,79.8309137 C48.3132067,79.5549656 47.8261418,79.4452513 47.4920119,79.571589 C47.1495704,79.699589 46.9808431,79.8733033 46.7888431,80.1226539 C46.6051548,80.3412513 46.4023496,80.5448877 46.1854145,80.7294072 C46.0208431,80.8407838 45.8496223,80.9380306 45.6717522,81.0261345 C45.4930509,81.0834851 45.3110249,81.1200565 45.1265054,81.1499786 C44.8006873,81.1832254 44.4823496,81.1832254 44.1573626,81.1541345 C43.8988691,81.1084202 43.6520119,81.0419267 43.4034925,80.9546539 C43.2472327,80.8806799 43.09596,80.7983942 42.9488431,80.708628 C42.834973,80.6047319 42.7294145,80.4933552 42.6288431,80.3753293 C42.5748171,80.2963682 42.5257782,80.2157449 42.4784016,80.1317968 C42.4567912,80.0702903 42.4360119,80.0079526 42.4168951,79.9447838 C42.2814145,79.4701864 41.8425574,79.1493552 41.3662977,79.1493552 C41.2732067,79.1493552 41.1776223,79.1618228 41.0828691,79.1884202" id="Fill-34" fill="#161616" mask="url(#mask-2)" transform="translate(44.566810, 81.328158) rotate(-13.000000) translate(-44.566810, -81.328158) "></path>
            <path d="M45.2570565,80.8683397 C45.2354461,80.8783137 45.2130046,80.8874566 45.190563,80.8974306 C45.2130046,80.8874566 45.2354461,80.8774826 45.2570565,80.8683397 M47.4596539,79.0206514 C47.248537,79.0954566 47.2194461,79.1278722 47.0440695,79.2675086 C46.9434981,79.3456384 46.8753422,79.4595086 46.8038617,79.5634047 C46.7323812,79.6631449 46.6650565,79.7662099 46.593576,79.8659501 C46.4348227,80.0612748 46.2627708,80.2466254 46.0691085,80.4095345 C45.8338877,80.5757683 45.5828747,80.7195605 45.3202253,80.84008 C45.1091085,80.919041 44.8938357,80.973067 44.6710825,81.0129631 C44.5164851,81.0254306 44.3660435,81.027093 44.2106149,81.0154566 C43.8507188,80.9564436 43.4991344,80.8700021 43.1550305,80.7478202 C43.0278617,80.6879761 42.906511,80.6223137 42.7893162,80.5441839 C42.7120175,80.4743657 42.6372123,80.402054 42.566563,80.3255865 C42.4959136,80.1202878 42.4427188,79.9091709 42.3853682,79.6997163 C42.261524,79.2483917 41.7844331,78.9757683 41.3331085,79.102106 C40.8851085,79.2251189 40.6124851,79.703041 40.7363292,80.1543657 C40.7878617,80.3388852 40.8402253,80.5242358 40.8950825,80.7129112 C40.9208487,80.7968592 40.9499396,80.8849631 40.9856799,80.9655865 C41.0704591,81.170054 41.1161734,81.2382099 41.2524851,81.4102618 C41.3397578,81.5241319 41.4403292,81.6247034 41.5409007,81.7252748 C41.8559136,82.0369631 42.2681734,82.2514047 42.6870825,82.3943657 C43.0511344,82.5173787 43.4309786,82.5763917 43.8108227,82.6179501 C43.9571085,82.6378982 44.1058877,82.6445475 44.2521734,82.6511969 C44.550563,82.657015 44.8464591,82.6088073 45.1381994,82.5564436 C45.5313422,82.4882878 45.8978877,82.3295345 46.2586149,82.1732748 C46.5087968,82.0627293 46.7523292,81.9205995 46.972589,81.761015 C47.2136279,81.5823137 47.4629786,81.3944696 47.6707708,81.1767034 C47.8162253,81.0245995 47.9500435,80.8691709 48.0788747,80.707093 C48.0780435,80.7079241 48.0772123,80.7087553 48.0772123,80.7095865 C48.1229266,80.6522358 48.1703033,80.5948852 48.2160175,80.5367034 C48.4204851,80.4012228 48.5983552,80.1344176 48.5700955,79.8817423 C48.5576279,79.7869891 48.5543033,79.6963917 48.5343552,79.6024696 C48.4794981,79.3423137 48.213524,79.063041 47.9467188,79.0173267 C47.8527968,79.0007034 47.7638617,78.9857423 47.6740955,78.9857423 C47.6042773,78.9857423 47.5344591,78.9948852 47.4596539,79.0206514" id="Fill-36" fill="#161616" mask="url(#mask-2)" transform="translate(44.639737, 80.818709) rotate(-13.000000) translate(-44.639737, -80.818709) "></path>
            <path d="M22.6074432,47.2310741 C22.5559107,47.2568404 22.5035471,47.2826066 22.4545081,47.3125287 C22.2791315,47.2859313 22.094612,47.348269 21.9450016,47.4746066 C21.7870795,47.609256 21.6590795,47.7655157 21.5510276,47.934243 C21.5535211,47.9334118 21.5560146,47.9325806 21.5585081,47.9325806 C22.3481185,47.7605287 23.1402224,47.6890482 23.9290016,47.6890482 C24.2257289,47.6890482 24.521625,47.6990222 24.8183523,47.7173079 C24.7934172,47.6890482 24.7684821,47.6616196 24.7435471,47.6333599 C24.6138847,47.4879053 24.4260406,47.3607365 24.250664,47.2734638 C23.9938328,47.1496196 23.7178847,47.0847884 23.4352873,47.0656715 C23.3962224,47.0623469 23.3538328,47.0590222 23.315599,47.0590222 C23.0687419,47.0590222 22.8318588,47.117204 22.6074432,47.2310741" id="Fill-38" fill="#161616" mask="url(#mask-2)" transform="translate(23.184690, 47.496633) rotate(-13.000000) translate(-23.184690, -47.496633) "></path>
            <path d="M39.5254355,42.2105566 C39.3758251,42.2296735 39.2461628,42.2654138 39.1065264,42.3177774 C38.7723965,42.4474398 38.5770718,42.5771021 38.2977991,42.798193 C38.0218511,43.0192839 37.8240329,43.2919073 37.612916,43.57118 C37.5580589,43.6418294 37.5098511,43.7174657 37.4666303,43.7972579 C37.5863186,43.773154 37.7068381,43.7515437 37.8273576,43.7299333 C38.8920848,43.5479073 39.9734355,43.3600631 41.0581108,43.3110242 C41.3141108,43.2985566 41.5676173,43.2919073 41.8211238,43.2919073 C41.8668381,43.2919073 41.9133835,43.2919073 41.959929,43.2927385 C41.8701628,43.1780372 41.7795654,43.0666605 41.6848121,42.9569463 C41.4803446,42.7267125 41.2168641,42.5189203 40.9342667,42.3959073 C40.7331238,42.3044787 40.5901628,42.2396475 40.3856952,42.207232 C40.2202926,42.1781411 40.0964485,42.1648424 39.9767602,42.1648424 C39.8437731,42.1648424 39.7141108,42.1814657 39.5254355,42.2105566" id="Fill-40" fill="#161616" mask="url(#mask-2)" transform="translate(39.713280, 42.981050) rotate(-13.000000) translate(-39.713280, -42.981050) "></path>
            <path d="M38.7277589,48.9004001 C39.1142524,49.436504 39.7118628,49.741543 40.3377329,49.9202443 C40.6145121,50.0008676 40.9162264,50.0432572 41.204642,50.0465819 C41.3575771,50.0499066 41.5587199,50.0041923 41.7149797,49.9618027 C41.9260966,49.9036209 42.1305641,49.7930754 42.3217329,49.6858546 C42.5902005,49.5354131 42.8370576,49.3126598 43.0398628,49.0791014 L42.9243303,49.0666339 C42.5054212,49.0566598 42.0881745,49.0275689 41.6692654,48.9718806 C40.5687979,48.8289196 39.4841225,48.6053352 38.3903044,48.4299585 C38.4975251,48.5920365 38.6205381,48.7507897 38.7277589,48.9004001" id="Fill-42" fill="#161616" mask="url(#mask-2)" transform="translate(40.715084, 49.238356) rotate(-13.000000) translate(-40.715084, -49.238356) "></path>
            <path d="M39.8667836,42.0311757 C39.6199265,42.0602666 39.36642,42.0960069 39.1295369,42.1674874 C38.977433,42.2198511 38.8278226,42.2880069 38.6815369,42.3528381 C38.5161343,42.4243186 38.347407,42.4982926 38.1911473,42.5897212 C38.02242,42.6869679 37.8570174,42.7875394 37.6949395,42.8947602 C37.441433,43.0634874 37.1846018,43.267955 36.9801343,43.4990199 C36.8579525,43.6345004 36.7507317,43.779955 36.6576408,43.9345524 C37.0441343,43.8348121 37.4347836,43.7525264 37.8312512,43.6835394 C38.8959785,43.5023446 39.9773291,43.3136692 41.0611733,43.2646303 C41.3180044,43.2521627 41.5715109,43.2488381 41.8241862,43.2488381 C42.2738486,43.2488381 42.7210174,43.2671238 43.1673551,43.3078511 C43.1499005,43.2721108 43.132446,43.2372017 43.1133291,43.2031238 C42.9412772,42.8947602 42.6786278,42.696942 42.3993551,42.4957991 C42.162472,42.3237472 41.8831992,42.2065524 41.5939525,42.1575134 C41.4418486,42.1317472 41.2889135,42.1126303 41.1359785,42.0926822 C40.8309395,42.0502926 40.5325499,42.0145524 40.2275109,42.0145524 C40.1069914,42.0145524 39.9873031,42.017877 39.8667836,42.0311757" id="Fill-44" fill="#161616" mask="url(#mask-2)" transform="translate(39.912498, 42.974552) rotate(-13.000000) translate(-39.912498, -42.974552) "></path>
            <path d="M38.472183,48.7900282 C38.4755077,48.7900282 38.4788324,48.7933529 38.4821571,48.7966776 L38.511248,48.8357425 C38.4979493,48.8191191 38.4854817,48.8033269 38.472183,48.7900282 M38.4106765,48.7118984 C38.5536376,48.9005737 38.6866246,49.0493529 38.8977415,49.1864958 C38.9525986,49.2247295 39.0107804,49.2546516 39.0731181,49.2804178 C39.3881311,49.5106516 39.7222609,49.6860282 40.0921311,49.8289893 C40.4004947,49.9520023 40.7354558,49.965301 41.0629363,49.9910672 C41.342209,50.0110152 41.6538973,50.0401061 41.9265207,49.9719503 C42.4036116,49.8547555 42.8358194,49.650288 43.2414298,49.3776646 C43.3661051,49.2945477 43.4841311,49.2014568 43.5938454,49.1025477 C43.3569622,49.0825997 43.119248,49.0593269 42.883196,49.0327295 C42.4750921,49.0235867 42.0678194,48.9944958 41.6605467,48.9396386 C40.4719752,48.7833789 39.2967025,48.5365217 38.1089622,48.3520023 C38.2028843,48.4783399 38.3101051,48.59221 38.4106765,48.7118984" id="Fill-46" fill="#161616" mask="url(#mask-2)" transform="translate(40.851404, 49.183327) rotate(-13.000000) translate(-40.851404, -49.183327) "></path>
            <path d="M23.2671998,46.6910688 C23.0078751,46.7135103 22.7477193,46.7525753 22.4975375,46.8273805 C22.2473556,46.9021857 22.0104725,47.0060818 21.7735894,47.1066532 C21.6663686,47.1556922 21.5624725,47.2005753 21.4585764,47.2529389 C21.215044,47.3759519 20.9848102,47.5737701 20.786992,47.7657701 C20.6556673,47.8896142 20.5417972,48.0300818 20.4295894,48.1722116 C20.7986284,48.0799519 21.1718232,48.0026532 21.5433556,47.9211986 C22.3321349,47.7491467 23.1242388,47.6776662 23.913018,47.6776662 C24.6128621,47.6776662 25.3118751,47.7333545 26.0117193,47.8256142 C25.9136414,47.6951207 25.8022647,47.5721077 25.6892258,47.4574064 C25.4166024,47.174809 25.0400829,46.9927831 24.6793556,46.859796 C24.3352517,46.7334584 23.9620569,46.6744454 23.5888621,46.6744454 C23.4816414,46.6744454 23.3744206,46.6810947 23.2671998,46.6910688" id="Fill-48" fill="#161616" mask="url(#mask-2)" transform="translate(23.220654, 47.423329) rotate(-13.000000) translate(-23.220654, -47.423329) "></path>
            <path d="M21.7954121,53.4427231 C22.2400874,53.8125933 22.7953082,54.1442296 23.3995679,53.9331128 C23.4220095,53.9264634 23.444451,53.9164894 23.4643991,53.9073465 C23.6946328,54.0237102 23.9381653,54.1084894 24.1850224,54.1666712 C24.4834121,54.2381517 24.7593601,54.2381517 25.0585809,54.1924374 C25.2173341,54.1699959 25.3669445,54.1342556 25.5190484,54.091866 C25.6528666,54.0561257 25.7792043,53.9979439 25.9055419,53.9455803 C26.0975419,53.8616322 26.2596198,53.7319699 26.4183731,53.5981517 C26.4316718,53.5881777 26.4441393,53.5782037 26.4566069,53.5673985 C26.3468926,53.5765413 26.2363471,53.5815283 26.1266328,53.5823595 C25.3503211,53.5923335 24.5906328,53.5565933 23.8218017,53.4427231 C23.1036718,53.338827 22.3963471,53.2124894 21.691516,53.0437621 C21.5776458,53.01384 21.4621134,52.9855803 21.3465809,52.9573205 C21.4712562,53.1401777 21.6258536,53.3047491 21.7954121,53.4427231" id="Fill-50" fill="#161616" mask="url(#mask-2)" transform="translate(23.901594, 53.590679) rotate(-13.000000) translate(-23.901594, -53.590679) "></path>
            <path d="M20.7363378,52.6339846 C20.5967014,52.6373093 20.4080261,52.7187638 20.3465196,52.8517508 C20.3107794,52.9232313 20.2658962,53.00053 20.2750391,53.0853093 C20.2816884,53.1343482 20.2883378,53.182556 20.2949871,53.2349196 C20.3074547,53.3288417 20.3955586,53.4227638 20.4736884,53.4684781 C20.5252209,53.5008937 20.5834027,53.5166859 20.6457404,53.5200106 C20.6848053,53.5624002 20.7263638,53.6014651 20.7654287,53.64053 C20.9374807,53.8092573 21.1776884,53.8707638 21.3987794,53.945569 C21.6065716,54.0137248 21.8043897,54.0818807 22.0188313,54.1242703 C22.4277664,54.211543 22.8533248,54.2639067 23.2689092,54.3096209 C24.0967534,54.4002183 24.9245975,54.4259846 25.7557664,54.4492573 C26.1746755,54.4617248 26.6002339,54.4359586 27.0124936,54.393569 C27.2327534,54.3711274 27.4538443,54.3453612 27.6749352,54.3129456 C27.8827274,54.2830235 28.0838703,54.2414651 28.2916625,54.2024002 C28.5609612,54.1467119 28.8535326,54.0951794 29.0023118,53.8258807 C29.1485975,53.5557508 29.077117,53.1958547 28.7978443,53.0429196 C28.6872988,52.9814132 28.5609612,52.9423482 28.4346235,52.9523222 C28.43213,52.9523222 28.4304677,52.9523222 28.4279742,52.9531534 C27.6948832,53.1850495 26.9102599,53.4003222 26.1356105,53.4069716 C26.06413,53.4078028 25.9918183,53.4078028 25.9203378,53.4078028 C25.8854287,53.4094651 25.8496884,53.4102963 25.8139482,53.4102963 C25.61613,53.4161144 25.4183118,53.4194391 25.217169,53.4194391 L25.2105196,53.4127898 C25.2030391,53.4061404 25.1955586,53.3994911 25.1872469,53.3936729 C24.735091,53.3737248 24.2845975,53.3338287 23.8307794,53.2673352 C23.1126495,53.1634391 22.4053248,53.0362703 21.7004936,52.867543 C21.5126495,52.8193352 21.3206495,52.7736209 21.1328053,52.724582 C21.0347274,52.6996469 20.929169,52.6697248 20.8219482,52.6339846 C20.8094807,52.6339846 20.7970131,52.6339846 20.7853768,52.6339846 L20.7363378,52.6339846 Z" id="Fill-52" fill="#161616" mask="url(#mask-2)" transform="translate(24.675116, 53.543196) rotate(-13.000000) translate(-24.675116, -53.543196) "></path>
            <path d="M41.1872101,48.4688072 C41.2487166,48.5627292 41.3044049,48.6574825 41.369236,48.7480799 C41.4664828,48.8843916 41.5670542,48.9816383 41.7033659,49.0755604 C41.9759893,49.2542617 42.3109503,49.3390409 42.6284568,49.3847552 C42.7880412,49.4071968 42.9310023,49.4263137 43.0864308,49.4171708 C43.2360412,49.4105215 43.3856516,49.3814305 43.5344308,49.3581578 C43.8137036,49.3165994 44.0771841,49.2151968 44.3298594,49.0988331 C44.4404049,49.0464695 44.5343269,48.9716643 44.6290802,48.901015 C44.7246646,48.8270409 44.810275,48.7580539 44.8917295,48.6790929 C44.4728205,48.674937 44.0539114,48.6508331 43.6383269,48.6184176 C42.7805607,48.5494305 41.9269503,48.4338981 41.0758334,48.2950929 C41.1124049,48.3541059 41.1498075,48.4131189 41.1872101,48.4688072" id="Fill-54" fill="#161616" mask="url(#mask-2)" transform="translate(42.983781, 48.857300) rotate(-13.000000) translate(-42.983781, -48.857300) "></path>
            <path d="M42.1507685,47.7642571 C42.158249,47.7700753 42.1665607,47.7758935 42.1740412,47.7817117 C42.1657296,47.7767247 42.158249,47.7700753 42.1507685,47.7642571 C42.1507685,47.7642571 42.1507685,47.7642571 42.1507685,47.7642571 M42.0601711,47.6653481 C42.0701451,47.6778156 42.079288,47.6894519 42.0884309,47.7019195 C42.079288,47.6902831 42.069314,47.6778156 42.0601711,47.6653481 M42.7608464,47.5431662 C42.7541971,47.5489844 42.7475477,47.5548026 42.7400672,47.5597896 C42.7109763,47.5838935 42.6810542,47.6071662 42.6511322,47.6296078 C42.6877036,47.6005169 42.724275,47.5722571 42.7608464,47.5431662 M42.0360672,46.9305948 C42.0294179,46.936413 42.0219373,46.9422312 42.0144568,46.9480494 C42.0219373,46.9422312 42.0294179,46.936413 42.0360672,46.9305948 M42.1840153,46.8441532 C42.1748724,46.8474779 42.1665607,46.8516338 42.1574179,46.8557896 C42.1665607,46.8516338 42.1748724,46.8474779 42.1840153,46.8441532 M42.8863529,46.7843091 C42.8938335,46.7859714 42.9004828,46.7876338 42.9087945,46.7901273 C42.9420412,46.808413 42.9744568,46.8275299 43.0060412,46.8474779 C43.034301,46.8740753 43.0625607,46.9015039 43.0899893,46.9297636 C43.0999633,46.946387 43.1099373,46.9638416 43.1199114,46.9804649 C43.1323789,47.0245169 43.1440153,47.0685688 43.1548205,47.1126208 C43.1548205,47.1201013 43.1548205,47.1267506 43.1556516,47.1342312 C43.1415218,47.1583351 43.1265607,47.182439 43.1107685,47.2057117 C43.0101971,47.3237377 42.8979893,47.4284649 42.778301,47.5290364 C42.6951841,47.5888805 42.6120672,47.640413 42.5247945,47.6877896 C42.4599633,47.7110623 42.3934698,47.7293481 42.3261451,47.7434779 C42.2787685,47.7451403 42.2322231,47.7451403 42.1848464,47.7426468 C42.1698854,47.7393221 42.1565867,47.7359974 42.1424568,47.7318416 C42.1250023,47.6620234 42.1108724,47.591374 42.0975737,47.5207247 C42.0784568,47.3453481 42.0709763,47.1716338 42.0834438,46.9937636 C42.0925867,46.956361 42.1025607,46.9189584 42.1141971,46.8815558 C42.1150283,46.8815558 42.1150283,46.8807247 42.1158594,46.8798935 C42.2313919,46.8416597 42.3485867,46.8142312 42.4691062,46.7934519 C42.6095737,46.7809844 42.7467166,46.7759974 42.8863529,46.7843091 M42.8007425,43.9117896 C42.5696776,43.918439 42.3394438,43.9641532 42.1125348,44.0032182 C41.8748205,44.0414519 41.631288,44.0838416 41.4077036,44.1719455 C41.0178854,44.327374 40.6513399,44.5226987 40.3687425,44.8377117 C39.839288,45.4186987 39.6481192,46.2074779 39.7453659,46.9771403 C39.8035477,47.4317896 39.9007945,47.8698156 40.1576257,48.2596338 C40.2748205,48.4383351 40.4501971,48.5804649 40.6056257,48.723426 C40.7485867,48.856413 40.8981971,48.9835818 41.0436516,49.1132442 C41.1226127,49.1814 41.2148724,49.2271143 41.3096257,49.2462312 C41.4035477,49.3285169 41.5057815,49.3991662 41.6188205,49.4573481 C41.7484828,49.5221792 41.8847945,49.5745429 42.0177815,49.6260753 C42.2322231,49.7075299 42.4957036,49.7299714 42.7226127,49.7465948 C43.1282231,49.7690364 43.5346646,49.762387 43.9369503,49.7366208 C44.3201192,49.7108545 44.6866646,49.6102831 45.0149763,49.4116338 C45.2551841,49.2661792 45.4496776,49.0450883 45.6125867,48.8181792 C45.781314,48.5779714 45.8910283,48.3111662 45.9467166,48.0227506 C45.9949244,47.7725688 45.998249,47.5157377 45.9824568,47.2597377 C45.9500412,46.8117377 45.8586127,46.3695558 45.683236,45.9506468 C45.5244828,45.5708026 45.3424568,45.1784909 45.0955997,44.8435299 C44.9235477,44.6066468 44.7290542,44.386387 44.4597555,44.2492442 C44.2910283,44.1619714 44.1056776,44.0904909 43.920327,44.0389584 C43.5970023,43.9525169 43.2678594,43.9101273 42.9345607,43.9101273 C42.8896776,43.9101273 42.8447945,43.9101273 42.8007425,43.9117896" id="Fill-56" fill="#161616" mask="url(#mask-2)" transform="translate(42.855966, 46.835172) rotate(-13.000000) translate(-42.855966, -46.835172) "></path>
            <path d="M23.5433664,52.5688855 C23.565808,52.571379 23.5882496,52.5755348 23.6115223,52.5788595 C23.5874184,52.5771972 23.5649768,52.5738725 23.5425353,52.5688855 L23.5433664,52.5688855 Z M23.5383794,52.5680543 C23.5392106,52.5680543 23.5408729,52.5688855 23.5425353,52.5688855 C23.5425353,52.5688855 23.5417041,52.5688855 23.5417041,52.5688855 C23.5408729,52.5688855 23.5392106,52.5688855 23.5383794,52.5680543 L23.5383794,52.5680543 Z M23.506795,52.566392 C23.5259119,52.5747037 23.5441976,52.5830153 23.5624833,52.5921582 C23.5441976,52.5846777 23.5250807,52.576366 23.506795,52.566392 L23.506795,52.566392 Z M23.6697041,52.5497686 C23.6464314,52.5547556 23.6214963,52.5589114 23.5965612,52.5605738 C23.6214963,52.5572491 23.6456002,52.5530933 23.6697041,52.5497686 L23.6697041,52.5497686 Z M23.4037301,52.468314 C23.4095483,52.4749634 23.4145353,52.4824439 23.4203535,52.4890933 C23.4145353,52.4824439 23.4095483,52.4757946 23.4037301,52.468314 L23.4037301,52.468314 Z M23.9847171,52.4134569 C23.9473145,52.4292491 23.9099119,52.4450413 23.8725093,52.4591712 C23.9082496,52.4442101 23.9464833,52.4300803 23.9847171,52.4134569 L23.9847171,52.4134569 Z M24.3454444,51.6604179 C24.348769,51.6687296 24.3520937,51.6770413 24.3554184,51.6861842 L24.3454444,51.6604179 Z M24.2124574,51.5141322 C24.2282496,51.5265998 24.2432106,51.5390673 24.2581716,51.5507037 C24.2432106,51.5390673 24.2274184,51.5265998 24.2124574,51.5141322 L24.2124574,51.5141322 Z M24.2515223,51.5141322 C24.2689768,51.5340803 24.2856002,51.5556907 24.2997301,51.5773011 C24.2839379,51.5556907 24.2673145,51.5340803 24.2515223,51.5141322 L24.2515223,51.5141322 Z M23.8641976,51.4268595 C23.9581197,51.4451452 24.0495483,51.4692491 24.1426392,51.5000024 C24.1950028,51.5249374 24.2457041,51.5515348 24.2955742,51.5831192 L24.3155223,51.601405 C24.3180158,51.6055608 24.3205093,51.6097166 24.3221716,51.6138725 C24.3421197,51.6728855 24.3587431,51.729405 24.3720418,51.7892491 C24.37786,51.8590673 24.3786911,51.926392 24.3737041,51.995379 C24.3712106,52.0045218 24.3687171,52.0144959 24.3662236,52.0253011 C24.3454444,52.0627037 24.323834,52.1001063 24.3005612,52.1358465 C24.2506911,52.1907037 24.1983275,52.2405738 24.1434703,52.2904439 C24.0520418,52.3552751 23.959782,52.4142881 23.8600418,52.4641582 C23.7636262,52.502392 23.6655483,52.5364699 23.5624833,52.5630673 C23.5483535,52.5638985 23.5333924,52.5638985 23.5192625,52.5638985 C23.5076262,52.5605738 23.4959898,52.5572491 23.4851846,52.5530933 C23.48186,52.5514309 23.4785353,52.5505998 23.4760418,52.5489374 C23.4644054,52.5381322 23.4544314,52.5281582 23.4444574,52.517353 C23.4095483,52.4674829 23.3779638,52.4167816 23.3521976,52.3610933 C23.3172885,52.2970933 23.2632625,52.2588595 23.2034184,52.241405 C23.1884574,52.1798985 23.1751587,52.1175608 23.1626911,52.054392 C23.1502236,51.9022881 23.1502236,51.7501842 23.1626911,51.5964179 C23.1685093,51.5656647 23.1751587,51.5357426 23.1826392,51.5066517 C23.299834,51.4709114 23.4170288,51.4459764 23.5367171,51.4276907 C23.6464314,51.4210413 23.7544833,51.4210413 23.8641976,51.4268595 L23.8641976,51.4268595 Z M23.3779638,48.9391712 C23.0563015,49.0239504 22.7446132,49.1311712 22.4495483,49.2899244 C22.1993664,49.4229114 21.9749509,49.6115868 21.7546911,49.7902881 C21.6798859,49.8484699 21.6084054,49.9099764 21.5402496,49.9714829 C21.3449249,50.1410413 21.1994703,50.4070153 21.1146911,50.6505478 C20.9393145,51.1667037 20.9850288,51.7053011 21.0631587,52.2380803 C21.1013924,52.5339764 21.2219119,52.8099244 21.3424314,53.0825478 C21.4554703,53.3260803 21.6665872,53.4948075 21.8777041,53.6502361 C22.0564054,53.7832231 22.2417561,53.9070673 22.4262755,54.033405 C22.6290807,54.1730413 22.8900677,54.1672231 23.107834,54.0666517 C23.2250288,54.1264959 23.3497041,54.1738725 23.4685612,54.2121063 C23.7054444,54.2902361 23.9689249,54.3060283 24.2182755,54.3226517 C24.4784314,54.3417686 24.7577041,54.2869114 25.0112106,54.2287296 C25.2223275,54.1796907 25.4201457,54.0857686 25.6146392,54.0009894 C25.7027431,53.9619244 25.7800418,53.9070673 25.8581716,53.851379 C25.987834,53.7574569 26.1183275,53.6602101 26.2346911,53.5496647 C26.5339119,53.2670673 26.760821,52.9196387 26.8613924,52.5206777 C26.9852366,52.0169894 26.9361976,51.5008335 26.7932366,51.0079504 C26.6793664,50.6048335 26.5139638,50.2416127 26.2446651,49.9199504 C26.1150028,49.77034 25.9720418,49.637353 25.8191067,49.5076907 C25.6146392,49.332314 25.4001976,49.1602621 25.1533405,49.0430673 C24.8391587,48.8951192 24.5083535,48.8319504 24.1742236,48.8319504 C23.9082496,48.8319504 23.6406132,48.8718465 23.3779638,48.9391712 L23.3779638,48.9391712 Z" id="Fill-58" fill="#161616" mask="url(#mask-2)" transform="translate(23.962970, 51.579238) rotate(-13.000000) translate(-23.962970, -51.579238) "></path>
            <path d="M24.506686,52.1974574 L24.506686,52.1974574 C24.506686,52.1974574 24.5058549,52.1974574 24.5058549,52.1982885 C24.5058549,52.1974574 24.506686,52.1974574 24.506686,52.1974574 M24.5324523,52.1791716 C24.5241406,52.185821 24.5149977,52.1916392 24.506686,52.1974574 C24.5149977,52.190808 24.5241406,52.1849898 24.5324523,52.1791716 M24.5324523,52.136782 C24.5258029,52.1542366 24.5191536,52.1691976 24.5108419,52.1841587 C24.5183224,52.1683665 24.5249718,52.1534054 24.5324523,52.136782 M24.5158289,52.1293015 C24.5158289,52.1309639 24.5158289,52.1326262 24.5158289,52.1342885 C24.5158289,52.1326262 24.5158289,52.1309639 24.5158289,52.1293015 M23.7378549,51.9913275 C23.7378549,51.9913275 23.7378549,51.9921587 23.738686,51.9921587 C23.738686,51.9954833 23.738686,51.9979768 23.7395172,52.0013015 C23.738686,51.9979768 23.738686,51.9946522 23.7378549,51.9913275 M24.496712,51.9680548 C24.4975432,51.97886 24.4992055,51.988834 24.5000367,51.998808 C24.4983744,51.988834 24.4975432,51.97886 24.496712,51.9680548 M23.733699,51.9530937 L23.7370237,51.9846781 C23.7370237,51.9846781 23.7370237,51.983847 23.7370237,51.983847 C23.7353614,51.9730418 23.7345302,51.9630677 23.733699,51.9530937 M23.7436731,51.7702366 C23.7411795,51.7818729 23.7395172,51.7926781 23.7378549,51.8034833 C23.7395172,51.7926781 23.7411795,51.7818729 23.7436731,51.7702366 M23.861699,51.6173015 C23.8434133,51.6422366 23.8242964,51.6655093 23.8051795,51.688782 C23.8226341,51.6646781 23.841751,51.6405742 23.861699,51.6173015 M23.6264782,50.4486781 C23.398738,50.5783405 23.1942705,50.7113275 23.0222185,50.9099768 C22.9415951,51.0005742 22.876764,51.107795 22.8111016,51.2150158 C22.7853354,51.2632236 22.7562445,51.3155872 22.7338029,51.3671197 C22.6914133,51.4485742 22.6556731,51.5333535 22.6199328,51.6206262 C22.5974912,51.7502885 22.5775432,51.8741327 22.5775432,52.0071197 C22.5808679,52.136782 22.6008159,52.269769 22.6365562,52.3936132 C22.6623224,52.4775613 22.7013873,52.5623405 22.7462705,52.6371457 C22.817751,52.756834 22.9125042,52.8382885 23.0222185,52.9197431 C23.142738,53.0136652 23.2923484,53.0651976 23.4378029,53.1075872 C23.6813354,53.1790677 23.9414912,53.1990158 24.1916731,53.1566262 C24.6554653,53.0784963 25.0710497,52.7377171 25.2431016,52.3021846 C25.3702705,51.9813535 25.3669458,51.6081587 25.1716211,51.3122626 C25.0353094,51.1111197 24.7759847,51.0230158 24.5548938,51.1535093 C24.3471016,51.2731976 24.2656471,51.5591197 24.3961406,51.7669119 C24.4244003,51.816782 24.4518289,51.8683145 24.4759328,51.9206781 C24.4875692,51.9605742 24.496712,52.0004703 24.5041925,52.0420288 C24.506686,52.0877431 24.5075172,52.1326262 24.506686,52.1791716 C24.5058549,52.1824963 24.5050237,52.1874833 24.5041925,52.1916392 L24.4809198,52.2149119 C24.4701146,52.2215613 24.4584782,52.2290418 24.4468419,52.23486 C24.4318808,52.2390158 24.417751,52.2431716 24.4027899,52.2464963 C24.3454393,52.2489898 24.2880886,52.2473275 24.2299068,52.2440028 C24.1492834,52.2248859 24.0719847,52.1982885 23.994686,52.1691976 C23.9182185,52.1243145 23.841751,52.0786002 23.767777,52.0287301 C23.7627899,52.0245742 23.7586341,52.0212496 23.7544782,52.0162626 C23.7544782,52.0162626 23.7536471,52.0154314 23.7536471,52.0154314 C23.7445042,51.9846781 23.7370237,51.9539249 23.7312055,51.9215093 C23.7312055,51.9123665 23.7303744,51.9032236 23.7303744,51.8932496 C23.7395172,51.8699768 23.7478289,51.8475353 23.7569718,51.8242626 C23.7935432,51.7469639 23.8326081,51.6746522 23.8758289,51.6015093 C23.8949458,51.5807301 23.9148938,51.560782 23.9348419,51.5416652 C24.0138029,51.4893015 24.0952575,51.4410937 24.1783744,51.3937171 C24.437699,51.2474314 24.5258029,50.9000028 24.3761925,50.6464963 C24.2747899,50.4711197 24.0902705,50.3771976 23.9015951,50.3771976 C23.8076731,50.3771976 23.7129198,50.4004703 23.6264782,50.4486781" id="Fill-60" fill="#161616" mask="url(#mask-2)" transform="translate(23.953739, 51.777944) rotate(-13.000000) translate(-23.953739, -51.777944) "></path>
            <path d="M42.1893413,47.1311248 C42.1868478,47.1469171 42.1851855,47.1618781 42.182692,47.1776703 C42.1843543,47.1618781 42.1868478,47.1469171 42.1893413,47.1311248 M42.143627,45.920943 C41.9258608,46.0281638 41.6989517,46.1320599 41.5102764,46.2908132 C41.3548478,46.4238002 41.2733933,46.5991768 41.2185361,46.7945015 C41.1595232,47.0022937 41.1337569,47.2325274 41.1561985,47.446969 C41.1886141,47.7586573 41.3282504,48.0537222 41.5784322,48.2523716 C41.6598868,48.3172028 41.734692,48.3787093 41.8286141,48.4244235 C41.9483024,48.4892547 42.0821206,48.524995 42.2184322,48.5316443 C42.3190037,48.5341378 42.4195751,48.5150209 42.5168219,48.4959041 C42.7379128,48.4468651 42.896666,48.2166313 42.896666,47.9955404 C42.896666,47.7711248 42.7545361,47.5874365 42.5517309,47.5084755 C42.4760946,47.4627612 42.4087699,47.4070729 42.3314712,47.3588651 C42.2899128,47.3347612 42.246692,47.3106573 42.2051335,47.2848911 L42.2043024,47.2848911 C42.2009777,47.2724235 42.1984842,47.2607872 42.1951595,47.2483196 C42.1934972,47.1884755 42.1943283,47.1302937 42.1993154,47.0712807 C42.2043024,47.0446833 42.2101206,47.0189171 42.2167699,46.9923196 C42.2217569,46.9873326 42.2267439,46.9823456 42.2325621,46.9781898 C42.3597309,46.8925794 42.492718,46.8210989 42.630692,46.7521119 C42.8642504,46.6349171 42.9257569,46.3074365 42.8027439,46.092995 C42.7104842,45.9367352 42.556718,45.8627612 42.39464,45.8627612 C42.310692,45.8627612 42.2242504,45.8827093 42.143627,45.920943" id="Fill-62" fill="#161616" mask="url(#mask-2)" transform="translate(42.022415, 47.197313) rotate(-13.000000) translate(-42.022415, -47.197313) "></path>
        </g>
    </g>
</svg>