<svg width="500" height="600" xmlns="http://www.w3.org/2000/svg" xmlns:xlink="http://www.w3.org/1999/xlink"><defs><path id="a" d="M0 .37h63.882v91.798H0z"/></defs><g transform="translate(153 113.461)" fill="none" fill-rule="evenodd"><path d="M12 21.532C9.067 33.516 7.316 41.93 6.747 46.774 5.345 58.718 6.474 67.542 8 73.539c2.454 9.644 9.724 15.644 21.81 18 5.178-.38 9.241-2.148 12.19-5.305 2.95-3.158 6.95-10.383 12-21.676 3.694-.981 5.843-2.654 6.447-5.02.604-2.364.171-6.219-1.3-11.563C55.208 30.113 50.493 19.642 45 16.562c-5.492-3.08-16.492-1.423-33 4.97z" fill="#BDA48E"/><path d="M40.157 89.353l-.001.004.003-.004h-.002zm-8.165-63.767l-1.72.068c-.342.014-.686.046-1.027.069l-1.779.123c-.296.02-.59.065-.887.103-.62.075-1.243.153-1.863.231a14.49 14.49 0 00-.815.124c-1.075.2-2.15.406-3.224.607-.267.052-.53.13-.792.195-.633.16-1.267.318-1.903.473-.413.104-.825.208-1.237.31-.571.142-1.136.314-1.702.477a.528.528 0 00-.366.642c.075.273.37.441.642.364.543-.156 1.082-.321 1.63-.458l1.085-.266 2.656-.659c.507-.124 1.023-.202 1.536-.3.743-.135 1.485-.27 2.228-.41.932-.113 1.866-.22 2.801-.329.337-.042.678-.046 1.016-.068l1.776-.107c.331-.02.662-.023.99-.03l1.62-.045c.423-.013.848.016 1.27.022.386.01.776.004 1.163.036.46.043.92.086 1.382.126.275.045.55.093.825.14.27.046.535.12.802.185.503.127.997.302 1.494.465.334.107.704-.124.795-.455.097-.354-.117-.684-.451-.798a14.264 14.264 0 00-2.524-.61c-.23-.034-.46-.07-.694-.102-.243-.032-.49-.041-.737-.061-.409-.03-.821-.075-1.234-.075-.597-.003-1.191-.006-1.785-.013-.325 0-.646.013-.971.026m-.327 8.824c.076-.023.152-.046.23-.068l-.01-.025a.244.244 0 01-.007-.045.826.826 0 00-.213.138m12.301.017c.01.003.019.006.029.013.007.003.01.006.016.01a.949.949 0 01.09-.084l-.031-.025a.848.848 0 01-.104.086m-2.539.055h.058l.107-.01zm-6.325.714c-.016.004-.032.01-.049.013l.062-.01.13-.02c-.049.007-.097.01-.143.017m-2.864 1.284a.683.683 0 00.24-.055l-.24.056m-10.061-1.363c-.043.033-.085.062-.13.094a4.49 4.49 0 00-.337.339l-.027.034a5.185 5.185 0 01-.09.445 1.128 1.128 0 00.766-.532.596.596 0 00.23-.325.555.555 0 00-.014-.354c-.131.107-.272.205-.398.3m1.286 18.336c-.48.326-.968.65-1.48.928-.013.094-.028.187-.042.28l-.03.192-.016.11c-.075.5-.149.994-.256 1.48-.146.679-.296 1.355-.455 2.03-.045.182-.091.36-.14.541l-.097.387a4.635 4.635 0 00-.127.692 1.2 1.2 0 00.068.551c.056.19.147.348.286.487.172.137.293.235.432.303.951.474 2.046.539 2.994.539.269 0 .539-.004.805-.01l.107-.004.594-.012.595-.013c.382-.007.772-.059 1.12-.104l.11-.013.085-.013.194-.026a1.36 1.36 0 00.594-.335c.24-.247.377-.58.377-.915 0-.688-.581-1.292-1.243-1.292-.614.025-1.176.084-1.796.15-.74.08-1.478.158-2.198.158a7.95 7.95 0 01-.877-.042l-.113-.01.032-.172.016-.185.098-1.036c.03-.337.068-.675.106-1.01.053-.45.102-.863.134-1.282.016-.198.03-.396.039-.594.01-.166.023-.331.035-.496.024-.306.06-.611.092-.916l.025-.215.024-.196c-.031.02-.06.042-.092.063M8.823 41.949c.1-.339.219-.669.362-.986-.292.226-.416.622-.362.986" fill="#161616"/><path d="M22.175 35.12l-.126.09c-.12.111-.235.222-.34.342a.216.216 0 00-.024.035 6.714 6.714 0 01-.074.36l.016.115c.11.756.223 1.512.334 2.272.097.783.192 1.565.247 2.357.049.77.032 1.536-.014 2.306-.094 1.58-.165 3.162-.305 4.743-.1.653-.227 1.295-.376 1.942-.152.668-.351 1.33-.462 2.012a174.6 174.6 0 01-.382 2.254c-.13.743-.209 1.496-.292 2.246-.091.624-.212 1.238-.283 1.861a5.276 5.276 0 00-.03.85c.02.364.098.666.258.991.09.181.213.328.34.49.354.454.919.636 1.467.73.962.17 1.926.218 2.894.108a37.46 37.46 0 002.808-.452c.432-.084.733-.545.733-.964 0-.506-.457-1.049-1-.996l-1.587.146c-.318.029-.636.055-.954.077a9.707 9.707 0 01-1.851-.065 7.045 7.045 0 01-.445-.08c.114-.387.254-.767.37-1.15.189-.62.322-1.247.458-1.877.283-1.301.425-2.626.598-3.951.204-1.357.438-2.711.522-4.088.04-.597.013-1.207-.01-1.805-.025-.688-.051-1.38-.074-2.068-.02-.6-.045-1.201-.069-1.802-.025-.708-.107-1.409-.182-2.114-.155-1.519-.428-3.032-.655-4.542-.039-.256-.276-.51-.49-.636a1.057 1.057 0 00-.498-.145c-.161.152-.354.282-.522.408m14.988 3.366a20.118 20.118 0 00-3.172.785c-.487.16-.965.354-1.426.578a4.384 4.384 0 00-.626.38 3.95 3.95 0 00-.718.614c-.325.38-.37.925 0 1.298.335.332.971.377 1.299 0 .1-.116.207-.213.322-.31.283-.204.58-.37.897-.517a15.853 15.853 0 011.685-.58.353.353 0 00-.01.027c-.434.516-.584 1.24-.667 1.894-.016.124-.01.25.012.376a3.091 3.091 0 00-.405.162c-.538.27-.639.971-.383 1.458.133.254.302.438.565.552.123.078.254.12.396.133.202.032.406.052.607.075.344.036.699.026 1.043.029.512.007 1.019-.01 1.532-.026.6-.022 1.104-.487 1.104-1.104 0-.326-.15-.625-.381-.83.092-.215.147-.445.173-.686.052-.504-.085-1.003-.325-1.448a1.688 1.688 0 00-.412-.618c.293-.032.588-.059.883-.086.335-.03.676-.02 1.01-.03.23-.003.464.004.698.013.468.017.938.032 1.396-.062.305-.061.555-.344.636-.636a.927.927 0 00-.418-1.03c-.175-.106-.364-.145-.559-.175a4.383 4.383 0 01-.64-.142 2.83 2.83 0 00-1.003-.22 8.897 8.897 0 00-.516-.02c-.113-.002-.225-.002-.338-.002-.756 0-1.508.032-2.26.148m-22.59 1.464c-.27.043-.539.095-.806.151a7.99 7.99 0 00-1.2.367c-.413.165-.777.393-1.16.616a1.133 1.133 0 00-.522.68c-.075.269-.06.642.113.875.172.237.332.468.6.601.283.14.566.202.878.118a1.138 1.138 0 00.763-.699.593.593 0 01.068-.035 7.7 7.7 0 01.513-.17c-.15.397-.205.8-.221 1.219 0 .064.003.126.01.184-.153.03-.302.056-.452.078-.146.016-.292.023-.429.078a.883.883 0 00-.399.234.885.885 0 00-.23.399c-.105.374.055.838.415 1.02a5.46 5.46 0 001.065.412c.198.055.406.094.607.136.325.065.646.124.971.176.61.1 1.219.19 1.831.272-.009 0-.017-.002-.026-.003l.263.036-.214-.03c.503.069 1.016.121 1.47-.168.413-.263.634-.746.501-1.228-.15-.538-.776-.954-1.335-.756l-.026.01a6.681 6.681 0 01-.62.019c.046-.084.084-.172.118-.263.152-.402.187-.853.126-1.275-.056-.358-.28-.647-.54-.884.293.007.588.02.884.046.114.061.224.13.334.207.114.098.234.19.354.276.218.157.552.172.799.104.36-.097.61-.373.724-.72.114-.358.022-.763-.13-1.092-.185-.405-.568-.642-.964-.8-.35-.14-.74-.193-1.114-.232a22.084 22.084 0 00-1.295-.082 3.36 3.36 0 01-1.724.123m2.388 6.709" fill="#161616"/><mask id="b" fill="#fff"><use xlink:href="#a"/></mask><path d="M40.456.37c-.36 0-.72.032-1.078.065l-.217.016a71.37 71.37 0 00-2.523.253 39.26 39.26 0 00-4.85.91 28.65 28.65 0 00-2.17.652l-.214.071c-.483.16-.97.325-1.44.52l-1.864.78-.468.187c-.348.14-.695.28-1.026.442L24 4.555c-.776.373-1.549.744-2.315 1.14l-1.87.963c-.302.153-.595.332-.883.508l-.306.184c-.32.185-.64.37-.95.559l-.134.074c-.097.056-.195.108-.282.17l-.825.558-.825.562a55.085 55.085 0 00-2.13 1.541l-.666.494c-.645.477-1.282.97-1.918 1.465l-.487.376c-.831.643-1.636 1.344-2.413 2.023l-.392.34c-.776.68-1.49 1.4-2.328 2.27l-.436.458c-.415.441-.833.883-1.272 1.305a26.807 26.807 0 01-1.812 1.578 14.46 14.46 0 01-.386.26c-.13.088-.26.172-.386.263-.157.107-.302.22-.445.34-.257.215-.37.504-.478.786-.094.234-.065.689 0 .91.032.11.072.214.117.318.225.539.442 1.123.702 1.886.223.656.448 1.312.649 1.97.201.666.364 1.326.49 2.02.1.958.098 1.981-.013 3.05-.087.47-.217 1.087-.441 1.671a16.026 16.026 0 01-.88 1.72l-.137.222-.133.224c-.146.243-.253.5-.337.717a1.294 1.294 0 00-.033.718c.048.191.162.438.309.559.155.123.292.223.47.308.114.055.238.1.354.143.815.363 1.562.814 2.286 1.25l.22.133c.277.169.553.33.842.47.308.147.643.247.964.348l.1.029c.189.058.374.1.568.13-.009.101-.005.21-.003.321.007.27.03.54.053.806.022.237.039.448.051.659l.007.107c.023.5.042.96 0 1.415l-.02.222c-.165.957-.393 1.846-.681 2.889-.267.951-.553 2.078-.672 3.26l-.046.399-.023.24c-.035.325-.064.633-.09.948-.027.312-.043.623-.06.935l-.032.588a100.076 100.076 0 00-.158 3.331c-.014.48-.02.968-.027 1.448-.006.422.01.805.03 1.192l.02.438c.038.932.129 1.88.22 2.795l.013.15.013.123.013.114c.263 2.59.624 4.665 1.133 6.526.114.402.24.799.373 1.194.078.228.17.448.26.67l.039.097.166.403c.36.9.73 1.788 1.11 2.678a.345.345 0 00-.02-.156c.257.708.692 1.77 1.225 2.841a33.095 33.095 0 001.555 2.796c.656 1.08 1.33 1.98 2.061 2.76.552.58 1.179 1.12 1.73 1.593l.072.062.555.481c1.072.925 1.906 1.56 2.705 2.058.747.474 1.546.831 2.318 1.175l.5.228.413.191.097.046c.864.399 1.708.785 2.555 1.11.238.098.478.181.718.27l.166.058.093.032.54.196c.431.162.867.324 1.311.457 1.098.328 2.25.386 3.436.419.52.016 1.035.026 1.552.032l.14.003c.7 0 1.379-.074 2.015-.22.481-.114.945-.27 1.464-.49.62-.254 1.156-.591 1.601-.89.705-.464 1.376-.994 2.029-1.507l.143-.11.54-.425.252-.199a16.56 16.56 0 001.007-.827 23.55 23.55 0 001.094-1.1l.149-.163c.413-.448.799-.863 1.127-1.302.237-.315.461-.636.692-.958l.136-.198.09-.133 1.01-1.413.354-.506.562-.792a31.29 31.29 0 001.256-1.974l.407-.67c.405-.658.77-1.256 1.093-1.902.192-.383.358-.78.517-1.178.198-.47.263-.913.311-1.29a1.166 1.166 0 00-.854-1.12 1.195 1.195 0 00-.308-.045c-.39 0-.756.211-1.006.578l-.088.127a6.12 6.12 0 00-.318.493 7.115 7.115 0 00-.136.254l-.066.126-.136.257c-.214.412-.451.814-.698 1.214a82.674 82.674 0 01-1.02 1.598l-.214.334-.393.604c-.11.172-.223.344-.34.516.042-.14.032-.29.02-.439-.069-.772-.166-1.684-.365-2.6l-.13-.597c-.103-.49-.301-.962-.493-1.416a11.434 11.434 0 00-.77-1.468l-.142-.24a39.53 39.53 0 00-.552-.91c-.36-.583-.809-1.064-1.237-1.496-.41-.412-.867-.795-1.309-1.165l-.292-.25c-.214-.182-.435-.36-.656-.54l-.217-.174c-.28-.225-.569-.442-.86-.65-.504-.364-1.085-.633-1.585-.844a14.563 14.563 0 00-2.874-.932c-.782-.162-1.577-.2-2.107-.218-.123 0-.217.014-.321.046a.82.82 0 00-.41-.25.982.982 0 00-.272-.042c-.438 0-.828.299-.986.756-.114.328-.228.653-.345.98-.182.498-.256.907-.234 1.244.02.358.146.656.373.884.267.259.65.38.952.454.204.052.416.084.62.113l.34.053c.598.1 1.17.237 1.602.34.568.14 1.126.276 1.649.48 1.084.485 1.98.992 2.743 1.556.562.461 1.056.96 1.513 1.533.507.685 1.03 1.435 1.416 2.275.282.734.49 1.52.63 2.397.084.808.094 1.561.03 2.305-.03.364-.063.727-.099 1.09l-.025.219-.075.632-.077-.026-.319-.035-.165-.016c-.465-.065-.93-.117-1.397-.169-.282-.03-.568-.062-.85-.098-.832-.129-1.705-.287-2.537-.57a2.147 2.147 0 01-.395.045v.002h-.016c.002-.002.01-.002.012-.002H33.6a38.294 38.294 0 01-3.237.278c-.867.036-1.743.102-2.61.036-.841-.062-1.73-.142-2.536-.416-.185-.062-.37-.126-.553-.195l-.054.027a7.03 7.03 0 01-1.169.311 3.97 3.97 0 01-.347.017c-.37 0-.75-.046-1.12-.088l-.383-.052-.13-.013-.101-.01c-.282-.03-.62-.067-.944-.067-.355 0-.715.038-1.172.126l.022-.104c.003-.99.007-2.01.087-3.052.104-.708.247-1.438.49-2.513.186-.812.508-1.578.816-2.318l.1-.243.16-.364.045-.1c.065-.154.133-.306.205-.462.117-.244.25-.484.396-.707.077-.118.165-.231.253-.345l.156-.195-.165.133.197-.184c.211-.257.423-.51.646-.757.293-.325.637-.61.939-.854.246-.191.468-.341.691-.467a6.29 6.29 0 01.88-.27c.104-.023.214-.042.324-.062.247-.045.433-.084.62-.145.131-.043.26-.095.387-.147l.088-.035.295-.124c.218-.094.373-.188.516-.318.166-.143.205-.413.218-.562a2.286 2.286 0 00-.364-1.27c-.006-.19-.139-.421-.373-.47a6.207 6.207 0 00-1.224-.143c-.172 0-.344.01-.52.032-.477.065-.925.215-1.46.403-.182.065-.364.13-.543.198l-.106.043-.082.029c-.117.045-.182.068-.24.1-.143.059-.27.137-.397.215-.886.548-1.63 1.114-2.304 1.642a6.78 6.78 0 00-1.27 1.273c-.276.377-.52.786-.763 1.208-.276.474-.435.958-.571 1.383l-.062.185-.088.28c-.155.447-.318.89-.48 1.33-.306.844-.458 1.76-.591 2.569l-.02.123c-.052.315-.11.63-.168.942l-.033.178-.035.217c-.072.416-.147.829-.202 1.254-.127.919-.21 1.694-.21 2.487 0 .383.002.763.012 1.146l.006.267.01.265c-.107-.146-.246-.279-.386-.415l-.348-.334c-.318-.312-.594-.66-.86-.994-.854-1.152-1.662-2.503-2.477-4.124-.63-1.256-1.192-2.57-1.734-3.84l-.078-.18-.127-.304-.204-.523-.082-.201a88.154 88.154 0 01-.363-.9 11.79 11.79 0 01-.286-.876l-.039-.14c-.1-.344-.201-.688-.285-1.038a42.1 42.1 0 01-.763-4.095c-.228-1.899-.465-4.104-.458-6.214 0-.971.032-2.01.09-3.091l.046-.919c.043-.834.082-1.587.156-2.331l.062-.672.062-.62c.032-.218.071-.435.116-.653-.116-.837.033-1.75.189-2.53l.104-.506c.064-.334.13-.672.207-1.003.059-.266.12-.533.182-.799l.013-.107c.104-.996.21-2.025.454-3.003a90.948 90.948 0 010-2.023l.01-1.019c.007-.272.023-.545.04-.819l.01-.165c.025-.542.093-1.09.162-1.63a2.272 2.272 0 01.081-.642.755.755 0 01.03-.133c.083-.556.174-1.11.268-1.666a74.13 74.13 0 00.354-2.377l-.055.143.16-.828.08-.5c.075-.41.182-.825.29-1.234.207-.779.464-1.691.805-2.572a96.51 96.51 0 01.72-1.775l.338-.831c.163-.4.321-.802.477-1.205.175-.448.35-.893.533-1.338l.039-.094.051-.133a.336.336 0 00.098-.035 48.731 48.731 0 011.929-.87l.217-.094c.79-.276 1.64-.572 2.516-.838l.227-.068c.277-.082.555-.163.838-.24l.458-.128c.315-.09.63-.178.948-.252l.208-.046a55.01 55.01 0 012.334-.487 84.421 84.421 0 012.597-.412 99.457 99.457 0 012.959-.273 63.735 63.735 0 012.912-.153l.094-.003c.337-.013.676-.02 1.016-.02.52 0 1.046.013 1.568.026l.257.01.237.007c.844.022 1.714.084 2.587.191 1.185.189 2.338.461 3.51.744 1.332.327 2.465.675 3.458 1.058.854.402 1.558.77 2.23 1.247.17.153.332.312.481.484.04.054.075.117.11.194.273.841.403 1.757.52 2.568.078.627.143 1.186.185 1.747.026.387.039.773.052 1.162.007.244.013.48.026.715a169.9 169.9 0 00.233 3.854c.04.565.072 1.127.102 1.692.036.668.074 1.34.13 2.01.087 1.035.24 2.087.373 3.015l.136.958.065.497.078.568.019.159c.13 1.01.254 1.987.422 2.926l-.165.013c.016.487.019.983-.007 1.493.172-.023.332-.052.494-.084.185.886.435 1.815.734 2.753.208.636.448 1.237.714 1.786.11.218.23.434.364.639.46.718 1.116 1.13 1.799 1.13.694-.023 1.223-.429 1.733-.818l.117-.088c.078-.058.153-.117.227-.168l.188-.137.072-.049a9.52 9.52 0 01.955-.626 6.15 6.15 0 01.243-.123c.23-.085.454-.16.695-.208l.077.019c.017.029.046.059.072.088l.1.149.033.104.049.156c-.195.734-.185 1.354.032 1.896.065.23.182.432.354.613.266 2.14.286 4.205.055 6.128-.104.645-.247 1.405-.522 2.129a6.873 6.873 0 01-.53.89c-.282.334-.62.662-1.036.993a9.554 9.554 0 01-1.327.832c-.11.015-.153.015-.195.015l-.088-.116a.993.993 0 00-.788-.357c-.218 0-.426.055-.591.155-.264.15-.452.407-.526.708-.072.295-.026.585.126.818.11.179.228.364.367.526.094.11.28.305.445.383.237.108.422.19.637.244a2.5 2.5 0 00.659.071c.675-.016 1.285-.282 1.795-.542a9.96 9.96 0 002.257-1.555c.217-.198.395-.435.56-.659l.096-.12c.389-.523.632-1.143.837-1.734.201-.569.273-1.214.324-1.73l.033-.247c.058-.52.09-1.072.1-1.73a32.273 32.273 0 00-.158-3.709 42.358 42.358 0 00-.231-1.912.959.959 0 00.074-.464c-.012-.04-.012-.075-.015-.114.032-.136.077-.283.123-.426l.035-.116c.026-.078.053-.156.072-.233.068-.254.124-.507.175-.76.123-.653.25-1.348.299-2.059.062-1.023.042-2.042.023-3.03l-.007-.454-.006-.266a58.732 58.732 0 00-.072-2.357c.15-.39.302-.782.436-1.179.065-.194.133-.386.2-.58.124-.358.248-.715.352-1.072l.12-.41.402-1.376c.107-.36.185-.724.266-1.088l.11-.5a28.04 28.04 0 00.56-3.185l.051-.445c.049-.386.097-.775.124-1.162l.032-.526.036-.533.016-.213a8.79 8.79 0 00.029-.51l.01-.948.014-.952c.005-.555-.03-1.11-.069-1.678a20.65 20.65 0 00-.328-2.565c-.147-.76-.38-1.507-.605-2.23l-.106-.335c-.13-.422-.286-.838-.442-1.25l-.09-.237c-.501-1.328-1.098-2.864-1.874-4.276-.601-1.09-1.357-2.078-2.017-2.896l-.266-.325a34.376 34.376 0 00-.743-.9l-.23-.265c-.65-.75-1.322-1.526-2.026-2.247a39.827 39.827 0 00-1.296-1.273c-.383-.36-.812-.685-1.23-.997l-.199-.15a42.243 42.243 0 00-2.72-1.872 15.467 15.467 0 00-3-1.52l-.273-.104c-.198-.074-.396-.149-.597-.217-.627-.218-1.313-.387-2.228-.549-.808-.137-1.422-.202-1.99-.21-.338-.007-.675-.01-1.013-.014h-.085z" fill="#161616" mask="url(#b)"/><path d="M33.629 81.11c.003 0 .003.003.003.003l.376-.052-.38.05m6.867-48.031a.739.739 0 00-.377.252c.008-.01.015-.02.023-.028l-.03.035c-.193.12-.406.207-.615.298-.595.235-1.196.428-1.81.608-.605.18-1.228.284-1.847.396-.299.042-.602.088-.902.11-.235.02-.468.036-.705.055-.205.014-.41.014-.614.02a16.35 16.35 0 01-2.559-.136 6.579 6.579 0 01-1.31-.339 4.309 4.309 0 01-.528-.285c-.083-.052-.162-.107-.246-.156a.396.396 0 00-.406 0c-.11.065-.214.212-.198.345.007.045.01.09.017.136.019.068.055.117.094.175.068.102.168.17.277.191l.041.03c.224.166.451.305.7.423.534.242 1.099.385 1.673.483.3.049.601.084.903.123.2.026.402.052.607.065.24.013.48.03.724.046.256.016.52.01.776.016.204.003.412-.013.62-.02.202-.006.403-.02.604-.039.922-.084 1.841-.214 2.737-.448.448-.117.893-.24 1.334-.383a9.659 9.659 0 001.28-.516c.123-.061.23-.146.338-.23.152-.127.272-.374.252-.579-.016-.184-.061-.34-.198-.477a.689.689 0 00-.48-.197.606.606 0 00-.175.025m-21.381.648a11.13 11.13 0 01-.916.862c-.775.552-1.622.949-2.491 1.322-.557.21-1.113.396-1.687.543-.543.143-1.102.23-1.655.326-.354.03-.702.024-1.06-.02-.492-.059-1.012-.084-1.45.201-.263.173-.461.4-.546.708-.11.396-.003.873.305 1.156.205.188.436.337.712.399.236.056.487.075.733.095.474.038.936-.034 1.406-.11.75-.131 1.49-.365 2.21-.618.849-.295 1.657-.685 2.465-1.078 1.25-.607 2.383-1.403 3.344-2.416.364-.383.383-.99 0-1.37a.982.982 0 00-.694-.28.924.924 0 00-.676.28" fill="#161616" mask="url(#b)"/><path d="M27.425 32.849c-.344.344-.39.993 0 1.331.406.354.831.679 1.286.971.406.26.838.435 1.286.61.409.159.847.25 1.276.354.425.1.863.185 1.298.247.552.077 1.101.149 1.656.172a13.144 13.144 0 002.886-.224c.487-.085.971-.182 1.455-.29.656-.145 1.276-.395 1.89-.655a5.61 5.61 0 00.753-.39c.172-.103.393-.263.49-.447.068-.134.098-.255.116-.39a.252.252 0 01.01-.036c.098-.267-.058-.58-.291-.717-.253-.149-.538-.095-.754.08a1.537 1.537 0 01-.1.061c-.29.1-.597.176-.89.255-.403.107-.807.196-1.22.272-.95.126-1.9.25-2.854.318-.962.072-1.916 0-2.869-.11-1.009-.167-2.02-.323-2.977-.688a6.159 6.159 0 01-.86-.508 15.97 15.97 0 01-.255-.216c-.196-.169-.403-.276-.666-.276-.25 0-.49.1-.666.276m-14.969 9.044l-.037.026.037-.026zm.086-.068l-.047.038.047-.038zm6.023-.216l.09.067a2.273 2.273 0 01-.09-.067zm-.153-.118l.116.09h.001l-.117-.09zm-1.367-.393zm1.302-1.208zm-3.97-.153c-.323.085-.638.182-.95.296-.126.045-.255.09-.385.127-.114.032-.224.058-.335.103-.383.163-.717.426-1.039.689-.315.26-.627.526-.932.802-.25.224-.227.64 0 .863.244.247.617.225.867 0 .285-.254.575-.5.873-.74.201-.143.401-.29.622-.403.095-.03.19-.049.288-.071.159-.04.318-.087.48-.126.319-.078.642-.16.966-.21.384-.029.77-.015 1.155-.011.404.003.805.015 1.21.064.343.057.684.144 1.008.269.115.055.224.119.328.195l.06.056c.196.199.51.237.751.097a.621.621 0 00.282-.697 1.298 1.298 0 00-.432-.68 2.504 2.504 0 00-.36-.252 4.09 4.09 0 00-.398-.181 4.072 4.072 0 00-.836-.287 5.907 5.907 0 00-1.097-.107c-.708 0-1.439.026-2.127.204zm39.741 17.425a.44.44 0 01-.055.043l.055-.043m.198-2.04l-.007.06c.001-.02.005-.04.007-.06m-.23-.66a2.27 2.27 0 01-.053.022l.052-.021m.159-.033a.38.38 0 01.032.08c-.01-.026-.02-.054-.032-.08m-.107-.056c.026.007.05.018.075.03l-.004-.001-.071-.03m.003-.789a.567.567 0 00-.22.053 2.955 2.955 0 00-.565.279.42.42 0 00-.15.57.424.424 0 00.572.15c.111-.068.222-.127.339-.186.036-.014.072-.026.109-.037h.006l.006.005.001.002c.038.098.072.195.097.295.003.129-.003.253-.016.38-.048.355-.093.715-.133 1.07-.034.281-.028.562-.052.84a.71.71 0 01-.022.093.873.873 0 01-.062.109l-.01.012a.472.472 0 01-.062.03c-.208.105-.266.394-.153.586.056.094.15.165.257.194.12.036.218.007.328-.042a.962.962 0 00.52-.607c.064-.208.074-.419.077-.633a8.84 8.84 0 01.056-.874c.015-.165.035-.33.058-.5.016-.142.039-.288.052-.435.02-.223-.02-.438-.091-.649a1.472 1.472 0 00-.186-.383.444.444 0 00-.152-.15l-.084-.061a7.346 7.346 0 00-.198-.087 1.603 1.603 0 00-.215-.036c-.035.003-.071.009-.107.012M27.044 77.553l.037.005-.037-.005m-.863-.221l.008.006c-.003-.003-.005-.005-.008-.006m-.058-.047l.053.043a.849.849 0 01-.053-.043m5.266-.422a.983.983 0 00-.133.04c-.107.031-.21.064-.318.094-.23.071-.461.136-.691.204-.51.144-1.039.24-1.561.316a7.862 7.862 0 01-1.666.033 3.855 3.855 0 01-.755-.166.856.856 0 01-.207-.157c-.21-.189-.522-.211-.734 0-.19.191-.21.549 0 .737.143.123.29.247.455.341.082.036.162.068.244.1.12.052.253.075.38.101.467.1.944.143 1.418.159.678.023 1.354-.074 2.027-.165.38-.049.753-.133 1.126-.22a5.73 5.73 0 00.48-.128c.296-.09.608-.223.692-.555.071-.295-.094-.668-.416-.73a.986.986 0 00-.187-.024.645.645 0 00-.154.02" fill="#161616" mask="url(#b)"/><path d="M26.387 78.1c-.047.184-.1.366-.163.545-.094.203-.2.394-.33.579-.198.237-.41.46-.65.656-.21.152-.422.3-.64.44-.191.125-.4.224-.606.325a9.523 9.523 0 01-1.179.386c-.227.059-.451.114-.672.182-.26.085-.506.198-.753.318-.159.078-.256.276-.256.448 0 .211.155.467.383.503.273.042.525.056.801.023.29-.029.579-.078.867-.13a6.053 6.053 0 001.494-.47 8.277 8.277 0 001.48-.9c.274-.208.507-.435.737-.682.474-.51.763-1.16.923-1.827.094-.397-.12-.806-.52-.916a.722.722 0 00-.192-.026c-.325 0-.645.217-.724.545m3.516-.301c-.117.118-.146.24-.165.397a1.872 1.872 0 000 .558c.032.205.087.396.162.587.075.196.162.374.276.546.114.17.25.328.383.48.422.481.997.774 1.562 1.04.429.198.853.402 1.292.574.474.189.984.3 1.484.397.409.08.821.133 1.237.165.419.036.838.017 1.253-.046.29-.041.565-.09.847-.18.494-.164.935-.446 1.37-.726a3.81 3.81 0 00.462-.353c.155-.14.273-.308.399-.471.117-.152.09-.406 0-.559a.56.56 0 00-.627-.256 4.771 4.771 0 00-.746.328c-.21.109-.429.198-.646.293-.32.124-.644.221-.982.28-.423.042-.84.077-1.265.05a14.79 14.79 0 01-.76-.069c-.667-.108-1.322-.243-1.96-.473a44.252 44.252 0 01-1.373-.522 4.238 4.238 0 01-.633-.362 3.016 3.016 0 01-.388-.377 2.442 2.442 0 01-.15-.263 2.597 2.597 0 01-.097-.322c-.003-.107.007-.21.02-.319.032-.303-.282-.559-.562-.559a.558.558 0 00-.393.162" fill="#161616" mask="url(#b)"/><path d="M39.566 80.53a.41.41 0 01.01.085 2.454 2.454 0 01-.01-.086m-10.633-1.896a.719.719 0 01-.032.043l.032-.043m-.559-.529c-.488.131-.97.415-1.315.795-.3.06-.595.14-.879.247-.328.123-.637.283-.877.542-.276.3-.393.728-.282 1.12a1 1 0 00.311.491c.162.143.309.208.506.283.128.045.339.048.48.041.136-.005.274-.029.408-.052l.383-.052c-.082.01-.163.024-.247.033.187-.024.376-.05.565-.078a4.055 4.055 0 001.418.796c.105.526.575.94 1.127.935a8.971 8.971 0 001.253-.127c.133-.02.263-.052.396-.08.157-.038.334-.095.492-.165.54.048 1.081.076 1.622.09.977.022 1.954.022 2.932-.033.613-.036 1.23-.104 1.834-.225.286-.058.565-.145.832-.262.308-.133.567-.312.814-.54.214-.197.393-.441.52-.7.13-.27.152-.555.071-.845a.612.612 0 00-.743-.422.615.615 0 00-.426.732l-.039.063a2.15 2.15 0 01-.202.196 2.689 2.689 0 01-.24.143 4.62 4.62 0 01-.913.21c-.675.082-1.358.11-2.034.14-.644.026-1.283.055-1.925.065-.364.007-.727.011-1.09.01-.035-.55-.443-.962-.947-1.14-.231-.084-.458-.167-.69-.238a2.402 2.402 0 00-.745-.781 2.986 2.986 0 00-.419-.216c.01-.264-.08-.545-.268-.72a1.396 1.396 0 00-.325-.237c-.162-.084-.319-.097-.497-.116a1.46 1.46 0 00-.16-.008 2.85 2.85 0 00-.7.105m-2.938-5.339a.61.61 0 01-.029.036l.029-.036m1.27-.963c-.03.014-.06.026-.092.038l.092-.038m2.976-.304l.06.007a1.28 1.28 0 01-.06-.007m-1.607-.038l-.103.015c.034-.006.07-.011.103-.015m.39-1.481a7.5 7.5 0 00-1.776.25c-.412.11-.802.296-1.166.516a3.673 3.673 0 00-.796.686c-.35.385-.632.811-.866 1.276a7.277 7.277 0 00-.256.58 3.941 3.941 0 00-.182.575c-.049.221-.04.435.006.656.068.347.477.546.802.454.313-.088.48-.37.47-.672v-.001a.747.747 0 00-.011-.104v-.007c.03-.133.07-.26.121-.39.152-.332.337-.645.553-.938a4.98 4.98 0 01.673-.678c.221-.15.455-.278.697-.39a5.933 5.933 0 011.203-.312 8.291 8.291 0 011.65.008c.261.037.51.096.754.184.136.065.26.137.383.222.13.114.247.236.358.369.162.228.307.467.432.716.071.198.122.397.162.604.016.084.03.168.052.253.026.11.081.218.127.322.1.24.415.38.659.38a.77.77 0 00.736-.562c.143-.533-.104-1.136-.32-1.61-.104-.225-.254-.426-.394-.63a4.22 4.22 0 00-.828-.916 3.55 3.55 0 00-1.207-.624c-.319-.1-.663-.136-.994-.168a8.216 8.216 0 00-.856-.053c-.063 0-.124.002-.186.004" fill="#161616" mask="url(#b)"/><path d="M24.584 74.325l.028.038a.63.63 0 01-.028-.038m4.474-.191l.12.052-.12-.052m2.98-.244l-.03.013c.01-.004.02-.01.03-.013m.166-.199c0 .003-.002.005-.003.007l.003-.007m-4.049-.768c-.512.097-.99.363-1.428.64-.393.245-.774.514-1.195.71-.153.058-.31.102-.47.134a2.233 2.233 0 01-.373.006l-.04-.009-.019-.02a7.632 7.632 0 01-.17-.247c-.103-.156-.302-.22-.47-.123-.156.09-.227.315-.123.473.084.13.165.276.269.393.061.072.13.123.208.176.058.026.12.051.185.068.1.032.22.039.328.049.25.026.5-.013.743-.062.208-.04.4-.104.597-.185.541-.222 1.062-.492 1.601-.728.2-.077.397-.14.607-.181a1.49 1.49 0 01.22-.003c.194.041.38.103.567.177.253.11.5.225.742.352.332.172.66.36 1.013.48.133.046.26.088.397.12.14.032.286.042.428.056.134.012.286-.017.415-.033.202-.029.397-.117.562-.234.092-.065.179-.133.267-.201a1.09 1.09 0 00.285-.37c.05-.1.097-.218.114-.328a1.061 1.061 0 000-.377c-.007-.039-.017-.077-.026-.116a.605.605 0 00-.58-.442.61.61 0 00-.605.572 2.024 2.024 0 01-.057.102l-.084.076a2.06 2.06 0 01-.126.08.317.317 0 01-.023.005 1.92 1.92 0 01-.31-.002 3.595 3.595 0 01-.64-.202c-.352-.149-.7-.3-1.049-.45-.201-.087-.402-.178-.61-.25a7.645 7.645 0 00-.286-.09 1.692 1.692 0 00-.448-.058c-.138 0-.277.015-.416.042" fill="#161616" mask="url(#b)"/><path d="M32.581 73.95c0 .002 0 .004-.002.006l.005-.014c0 .003-.002.005-.003.008m-4.246-.136l.052.021-.052-.021m3.397-.53a.274.274 0 01-.037.004c.013 0 .024-.002.037-.004m-6.893-1.114a.28.28 0 01-.024.032l.024-.032m.86-1.246c-.13.052-.253.107-.377.168-.178.085-.334.208-.49.329-.191.146-.37.308-.539.48a2.97 2.97 0 00-.367.465c-.087.133-.175.266-.25.405a6.256 6.256 0 00-.266.513 3.299 3.299 0 00-.208.67 1.409 1.409 0 00-.006.6c.094.409.536.561.902.597.166.017.335.02.5.023.183 0 .358-.026.537-.052.33-.046.639-.211.931-.363.285-.15.571-.303.85-.462.232-.13.458-.254.696-.363.16-.055.321-.094.487-.122.048-.003.096-.008.144-.008.09.024.176.053.264.084.301.132.601.267.913.374.338.12.688.21 1.042.279.357.071.734.114 1.098.087.13-.01.262-.022.386-.068a1.09 1.09 0 00.396-.247 1.114 1.114 0 00.247-.38l-.005.01.007-.016.004-.006a.664.664 0 00.085-.322.63.63 0 00-.185-.451c-.237-.237-.67-.26-.903 0a2.1 2.1 0 00-.087.101A11.66 11.66 0 0130 72.782c-.392-.171-.77-.367-1.165-.53a1.587 1.587 0 00-.712-.11c-.158.013-.318.038-.473.06-.273.04-.517.14-.767.248-.386.162-.714.422-1.061.65-.179.11-.358.216-.536.327a4.419 4.419 0 01-.47.265c-.211.08-.426.151-.647.199-.002-.075 0-.149.008-.225.052-.27.143-.53.247-.785.111-.237.232-.461.386-.673a3.85 3.85 0 01.532-.536c.17-.124.35-.217.541-.3.1-.042.14-.182.114-.276-.027-.097-.13-.185-.233-.185a.18.18 0 00-.066.013" fill="#161616" mask="url(#b)"/></g></svg>