<svg xmlns="http://www.w3.org/2000/svg" viewBox="0 0 500 600"><path d="M230.5,62.6l4.9-.3a201.3,201.3,0,0,1,20.5,1.2c5.5.5,12.1,1.6,14.3,7.3.1.1.1.3.2.4l.3.9c1.3,5.1.2,10.6-.4,15.7a9.9,9.9,0,0,0-.2,1.7c-.4,3-.4,6-.6,9-.4,6.1-1,12.4-3.7,18-6.6,14.2-31.2,22.1-42,8.5-4.8-5.9-7.2-13.7-8-21.2-.4-3-.7-6.1-.9-9.2a53,53,0,0,1-.2-6.9,36.3,36.3,0,0,1,2.6-14.6,19.1,19.1,0,0,1,3.5-5.8C223.1,64.4,226.9,63.1,230.5,62.6Z" fill="#f8c59a" stroke="#000" stroke-linecap="round" stroke-linejoin="round"/><path d="M273.5,96.4a4.1,4.1,0,0,0,1.3-2.6,12,12,0,0,0,.4-4.2,6.1,6.1,0,0,0-1.5-3.9,2.4,2.4,0,0,0-.9-.8,4.4,4.4,0,0,0-2-.3h-.4c-.2.1-.2.3-.2.5,0,2.9-.2,5.8-.5,8.8-.1,1-.5,1.9.4,2.6A3.4,3.4,0,0,0,273.5,96.4Z" fill="#f8c59a" stroke="#000" stroke-linecap="round" stroke-linejoin="round"/><path d="M210.9,93.8a3.6,3.6,0,0,1-.8-1.2,13.5,13.5,0,0,1-.6-3.4,10.2,10.2,0,0,1,.3-3.5,4.8,4.8,0,0,1,2.6-3.3l1.1-.2c.3,0,.9-.1,1.2.1a.6.6,0,0,1,.1.4V88c0,1.4.1,2.8.1,4.1s0,2-1,2.3A3,3,0,0,1,210.9,93.8Z" fill="#f8c59a" stroke="#000" stroke-linecap="round" stroke-linejoin="round"/><path d="M277.3,60.1a71.6,71.6,0,0,1-1.6,23.5,12.1,12.1,0,0,1-1.8,4.4c-.8,1-2.5,1.7-3.5.8s-.7-2.4-.4-3.6a32.4,32.4,0,0,0,.8-10.3c-.3-3-1.1-6.2-3.6-7.9s-4.7-1.5-7.2-1.8-7.5-1.9-11.3-2-9,1.3-13.5,1.7-9.1,0-12.8,2.2a13.9,13.9,0,0,0-5.8,8c-1,3.2-1.2,6.6-1.6,10,0,.4-.3,1.4-.9,1.3s-.5-.7-.6-1l-.6-1.6a12.7,12.7,0,0,1-.6-1.8,21,21,0,0,1-.6-2.4c-.2-1.3-.5-2.6-.6-3.9s-.1-1.1-.2-1.6a26,26,0,0,1,1.2-10.7,20,20,0,0,1,1-2.1,8.6,8.6,0,0,0,1.2-3c.2-1.3-.4-2.6-.3-4,.4-3.1,4.2-4.5,5.8-7.2s1-2.9,2-4,4.9-1.8,7.1-3.4,2.1-2.4,3.4-3.4a10.8,10.8,0,0,1,5.6-1.4l7.2-.4c2.9-.2,5.9-.4,8.6.7s5.1,3.6,5,6.5a12.1,12.1,0,0,1,10,1.1c5.4,3.1,7.6,9.7,8.5,15.8C277.2,59.1,277.3,59.6,277.3,60.1Z"/><path d="M223.4,73.6a7.5,7.5,0,0,1,2.9-.9c2.7-.3,5,.7,7.3,2l2.2,1.1,1.2.3c.3,0,.7-.2,1,0s.3.2.3.4a.7.7,0,0,1,.1.5v.3a1.9,1.9,0,0,1-.2.7,1.2,1.2,0,0,1-.5.5h-.2c-.2.1-.4,0-.6,0l-.6-.2-1.1-.4a27,27,0,0,0-5-2.7l-1.8-.4-2.1-.2a7.6,7.6,0,0,0-3.4.5l-.6.2-.4-.2C221.6,74.7,223.1,73.8,223.4,73.6Z"/><ellipse cx="230.4" cy="85.8" rx="2.1" ry="3.5" transform="translate(-5.9 17.9) rotate(-4.4)"/><ellipse cx="252.3" cy="86.7" rx="2.1" ry="3.5" transform="translate(-5.9 19.5) rotate(-4.4)"/><path d="M235.2,80.3a3,3,0,0,1,2.1.8,3,3,0,0,1,.3,2.3l-.6,4.5a18.7,18.7,0,0,1-.8,3.4,7.1,7.1,0,0,1-8.3,3.8c-2.8-.8-4.7-3.3-5.6-6s-2.1-8.3.8-9.2S231.7,80.1,235.2,80.3Z" fill="none" stroke="#000" stroke-miterlimit="10"/><path d="M259.2,81.3a3.3,3.3,0,0,1,2.2.8,3,3,0,0,1,.3,2.3l-.7,4.5a14,14,0,0,1-.8,3.4,7,7,0,0,1-8.3,3.8,8.7,8.7,0,0,1-5.5-6c-.8-2.5-2.2-8.3.7-9.2S255.8,81,259.2,81.3Z" fill="none" stroke="#000" stroke-miterlimit="10"/><path d="M215.6,82.9a2.5,2.5,0,0,1,.8-1.6c1.8-.1,4.3-.5,5.3-.4h-.5" fill="none" stroke="#000" stroke-miterlimit="10"/><path d="M237.9,82h1.9l5.5.3h.2" fill="none" stroke="#000" stroke-miterlimit="10"/><path d="M261.9,84.5l9.8-.6" fill="none" stroke="#000" stroke-miterlimit="10"/><path d="M241.7,106.2a13,13,0,0,1-3.2-1.4l-1.1-.9c-1.3-1.5-1.1-3.7-.5-5.6a17.3,17.3,0,0,1,1.6-3.7" fill="none" stroke="#000" stroke-miterlimit="10"/><path d="M254.9,111.3c-1.5-2.3-4.6-2.7-7.3-2.8-4.4-.2-8.7-.1-13.1-.1l-5.5.6c-2.9.3-3.7.4-4.6,1.1s-1.3,2.4-1.6,4.4-.9,6.8,1.7,10.6a17.6,17.6,0,0,0,3.1,3.1,15.9,15.9,0,0,0,3.5,2.1l3.5,1.3a18.7,18.7,0,0,0,5.3.5,19,19,0,0,0,5.3-.9,84.1,84.1,0,0,0,9.5-3.6c1.4-.7.9-3.5.9-4.9l.2-6.3C255.8,114.7,255.9,112.8,254.9,111.3Zm-5.7,3.2a3.6,3.6,0,0,1-.2,1.1,5.7,5.7,0,0,1-3.1,2.6,21.5,21.5,0,0,1-13.7.8,5.2,5.2,0,0,1-2.2-1.2c-.8-.9-.9-2.4.1-3a7.1,7.1,0,0,1,4-.9,42.1,42.1,0,0,0,5,.1,37.2,37.2,0,0,0,5.7-.8c1.2-.2,2.7-.5,3.7.3a1.7,1.7,0,0,1,.6.6C249.1,114.2,249.2,114.4,249.2,114.5Z" opacity="0.45"/><path d="M231.3,115.8a1.1,1.1,0,0,0-.2,1.1c.1.3.5.5.9.7a19.5,19.5,0,0,0,9.6.6,9.4,9.4,0,0,0,5.1-1.9c.5-.5.9-1.4.4-1.9s-1.4-.2-2-.1a15.7,15.7,0,0,0-3,.5,51.4,51.4,0,0,1-5.5.6c-1.5,0-3.7-.8-5.1.2S231.4,115.7,231.3,115.8Z" fill="#5e2f2f" opacity="0.5"/><path d="M259.2,73.6a7.5,7.5,0,0,0-2.9-.9c-2.7-.3-5,.7-7.3,2l-2.2,1.1-1.1.3c-.4,0-.8-.2-1.1,0s-.3.2-.3.4a4.3,4.3,0,0,0-.1.5v.3a1.9,1.9,0,0,0,.2.7,1.2,1.2,0,0,0,.5.5h.2c.2.1.4,0,.6,0l.6-.2,1.1-.4a27,27,0,0,1,5-2.7l1.8-.4,2.1-.2a7.6,7.6,0,0,1,3.4.5l.6.2.4-.2C261.1,74.7,259.5,73.8,259.2,73.6Z"/><path d="M224,65a7.7,7.7,0,0,1-6.1-3.9,13.4,13.4,0,0,1-1.6-7.4" fill="none" stroke="#fff" stroke-linecap="round" stroke-linejoin="round" opacity="0.2"/><path d="M231.2,63.8a17.7,17.7,0,0,1-5.4-4.4,16.3,16.3,0,0,1-2.3-15.8" fill="none" stroke="#fff" stroke-linecap="round" stroke-linejoin="round" opacity="0.2"/><path d="M241.9,60.7c-2.9-.2-6.5-.5-8.2-3.3a.5.5,0,0,0-.2-.4,15.6,15.6,0,0,1-.6-10,16.6,16.6,0,0,1,5.3-8.5" fill="none" stroke="#fff" stroke-linecap="round" stroke-linejoin="round" opacity="0.2"/><path d="M246.1,59.8a14.9,14.9,0,0,1,14.5-7.9" fill="none" stroke="#fff" stroke-linecap="round" stroke-linejoin="round" opacity="0.2"/><path d="M252.3,62.6a11.7,11.7,0,0,1,3.4-2,17.3,17.3,0,0,1,3.7-1.6,30.7,30.7,0,0,1,8-1.6,8.3,8.3,0,0,1,2.2.1,6.1,6.1,0,0,1,1.8.5" fill="none" stroke="#fff" stroke-linecap="round" stroke-linejoin="round" opacity="0.2"/></svg>