<svg xmlns="http://www.w3.org/2000/svg" viewBox="0 0 500 600"><path d="M230.3,62.5l4.9-.3a203.2,203.2,0,0,1,20.6,1.2c5.4.5,12,1.5,14.3,7.3V71l.3,1c1.3,5.1.2,10.5-.4,15.7a8.8,8.8,0,0,0-.2,1.7c-.3,3-.4,6-.6,9-.4,6.1-1,12.4-3.6,18-6.7,14.2-31.3,22.1-42.1,8.5-4.8-5.9-7.1-13.7-8-21.2-.4-3-.7-6.1-.9-9.2s-.2-4.6-.2-7A36.2,36.2,0,0,1,217.1,73a21.4,21.4,0,0,1,3.5-5.8C223,64.3,226.7,62.9,230.3,62.5Z" fill="#f8c59a" stroke="#000" stroke-linecap="round" stroke-linejoin="round"/><path d="M273.3,96.3a4.6,4.6,0,0,0,1.3-2.6,15.1,15.1,0,0,0,.5-4.2,6.5,6.5,0,0,0-1.6-4,2.2,2.2,0,0,0-.9-.7,4.4,4.4,0,0,0-2-.3h-.4l-.2.4a64,64,0,0,1-.5,8.8c-.1,1.1-.5,2,.4,2.7A3.4,3.4,0,0,0,273.3,96.3Z" fill="#f8c59a" stroke="#000" stroke-linecap="round" stroke-linejoin="round"/><path d="M210.8,93.7a2,2,0,0,1-.8-1.2,10.3,10.3,0,0,1-.7-3.4,10.2,10.2,0,0,1,.3-3.5,4.6,4.6,0,0,1,2.6-3.3l1.1-.2c.3,0,.9-.1,1.2.1s.1.2.1.4v5.3c0,1.4.1,2.7.1,4.1s0,1.9-.9,2.3A3,3,0,0,1,210.8,93.7Z" fill="#f8c59a" stroke="#000" stroke-linecap="round" stroke-linejoin="round"/><path d="M277.1,60a71.6,71.6,0,0,1-1.6,23.5,9.7,9.7,0,0,1-1.8,4.3c-.8,1.1-2.5,1.8-3.5.9s-.7-2.4-.4-3.6a32.6,32.6,0,0,0,.8-10.3c-.3-3-1.1-6.2-3.6-7.9s-4.7-1.5-7.2-1.8-7.5-1.9-11.3-2.1-9,1.4-13.5,1.8-9.1,0-12.8,2.2a13.9,13.9,0,0,0-5.8,8,47.4,47.4,0,0,0-1.5,9.9c-.1.5-.4,1.5-1,1.4s-.4-.7-.6-1l-.6-1.7a8.5,8.5,0,0,1-.6-1.7l-.6-2.4-.6-4c0-.5-.1-1-.1-1.5a24.2,24.2,0,0,1,1.1-10.7,20,20,0,0,1,1-2.1,8.6,8.6,0,0,0,1.2-3c.2-1.3-.4-2.7-.3-4,.4-3.1,4.2-4.5,5.8-7.2s1.1-2.9,2-4,4.9-1.9,7.1-3.4,2.1-2.5,3.4-3.4a10.8,10.8,0,0,1,5.6-1.4l7.2-.5c2.9-.1,5.9-.3,8.7.7s5.1,3.7,4.9,6.6a12.5,12.5,0,0,1,10,1c5.4,3.1,7.7,9.7,8.5,15.9C277,59,277.1,59.5,277.1,60Z"/><path d="M223.2,73.5a6.3,6.3,0,0,1,2.9-1c2.7-.2,5,.8,7.3,2.1l2.2,1.1,1.2.3c.3,0,.7-.2,1.1,0s.2.2.2.4a.7.7,0,0,1,.1.5.4.4,0,0,1-.1.3,1.4,1.4,0,0,1-.2.6,1,1,0,0,1-.5.6H236l-1.1-.5a26.2,26.2,0,0,0-5-2.6l-1.8-.5H226a7.6,7.6,0,0,0-3.4.4l-.5.2a.4.4,0,0,1-.5-.2C221.4,74.6,222.9,73.6,223.2,73.5Z"/><ellipse cx="233.2" cy="86.6" rx="2.1" ry="3.5" transform="translate(-5.9 18.1) rotate(-4.4)"/><ellipse cx="257.1" cy="87.6" rx="2.1" ry="3.5" transform="translate(-5.9 19.9) rotate(-4.4)"/><path d="M235,80.2a3,3,0,0,1,2.1.8,2.6,2.6,0,0,1,.3,2.3l-.6,4.5a20.9,20.9,0,0,1-.8,3.4,7,7,0,0,1-8.3,3.8c-2.7-.8-4.7-3.3-5.6-6s-2.1-8.3.8-9.2S231.6,79.9,235,80.2Z" fill="none" stroke="#000" stroke-miterlimit="10"/><path d="M259,81.2a2.8,2.8,0,0,1,2.2.7,3.3,3.3,0,0,1,.3,2.4l-.7,4.5a14,14,0,0,1-.8,3.4,7.1,7.1,0,0,1-8.3,3.8,9.3,9.3,0,0,1-5.5-6.1c-.8-2.4-2.1-8.3.7-9.1S255.6,80.9,259,81.2Z" fill="none" stroke="#000" stroke-miterlimit="10"/><path d="M215.4,82.8a3.8,3.8,0,0,1,.8-1.7c1.8,0,4.3-.4,5.3-.3H221" fill="none" stroke="#000" stroke-miterlimit="10"/><path d="M237.8,81.9h1.8l5.6.3h.1" fill="none" stroke="#000" stroke-miterlimit="10"/><path d="M261.7,84.4l9.8-.6" fill="none" stroke="#000" stroke-miterlimit="10"/><path d="M241.5,106.1a18.3,18.3,0,0,1-3.2-1.4,5.2,5.2,0,0,1-1.1-1c-1.3-1.4-1.1-3.7-.5-5.5a17.3,17.3,0,0,1,1.6-3.7" fill="none" stroke="#000" stroke-miterlimit="10"/><path d="M259,73.5a5.6,5.6,0,0,0-2.8-1,12.8,12.8,0,0,0-7.4,2.1,15.1,15.1,0,0,1-2.2,1.1,3.5,3.5,0,0,1-1.1.3c-.4,0-.8-.2-1.1,0s-.3.2-.3.4-.1.3,0,.5v.3c.1.2.1.4.2.6s.3.5.5.6h1.4l1.1-.5a34,34,0,0,1,5-2.6l1.8-.5h2.1a8.2,8.2,0,0,1,3.5.4l.5.2a.4.4,0,0,0,.5-.2C260.9,74.6,259.3,73.6,259,73.5Z"/><path d="M256.8,110.2a3.6,3.6,0,0,0-.7-1c-1.6-1.6-4.1-1.7-6.2-1.6a39.7,39.7,0,0,0-4.8.7,31.2,31.2,0,0,1-6.8.5,49.3,49.3,0,0,0-5.4-.5c-3.5.1-7.5.5-9.4,3.8a12.5,12.5,0,0,0-.8,8.5,12.7,12.7,0,0,0,4.8,7.2,20.5,20.5,0,0,0,7,3.3,16,16,0,0,0,5.3.6,35.2,35.2,0,0,0,11.9-3.3c2.4-1,6-2,6.4-5.1a33.6,33.6,0,0,0-.4-10.5A8,8,0,0,0,256.8,110.2Zm-7.3,6.8a5.7,5.7,0,0,1-.8,1.3c-1.6,2.3-4.4,2.7-7,2.3a12.9,12.9,0,0,1-5-1.7c-.9-.6-2.5-1.4-2.6-2.5s.8-1,1.6-1l3.6-.3,1.7-.2a10.3,10.3,0,0,0,4.1-1.6l1.8-1.4,1.7-1.1,1-.6c1.3-.3,1.2.8,1.1,1.7a13.3,13.3,0,0,1-.6,3A16.6,16.6,0,0,1,249.5,117Z" opacity="0.45"/><path d="M243.4,115a19.4,19.4,0,0,0,3.4-2.1l1.6-1.2c.4-.4.9-1,1.5-1.1h.3a2.7,2.7,0,0,1,0,.9,5,5,0,0,0-.2,1.2,13.5,13.5,0,0,1-.8,2.4c-.5,1.4-.8,2.7-2.1,3.6s-4.5,1.2-6.6.6a9.6,9.6,0,0,1-3.2-1.2c-.8-.5-2-.9-2.3-1.9h0v-.2h.2l1.7.2A11.6,11.6,0,0,0,243.4,115Z" fill="#5e2f2f" opacity="0.5"/><path d="M224,65a7.7,7.7,0,0,1-6.1-3.9,13.4,13.4,0,0,1-1.6-7.4" fill="none" stroke="#fff" stroke-linecap="round" stroke-linejoin="round" opacity="0.2"/><path d="M231.2,63.8a17.7,17.7,0,0,1-5.4-4.4,16.3,16.3,0,0,1-2.3-15.8" fill="none" stroke="#fff" stroke-linecap="round" stroke-linejoin="round" opacity="0.2"/><path d="M241.9,60.7c-2.9-.2-6.5-.5-8.2-3.3a.5.5,0,0,0-.2-.4,15.6,15.6,0,0,1-.6-10,16.6,16.6,0,0,1,5.3-8.5" fill="none" stroke="#fff" stroke-linecap="round" stroke-linejoin="round" opacity="0.2"/><path d="M246.1,59.8a14.9,14.9,0,0,1,14.5-7.9" fill="none" stroke="#fff" stroke-linecap="round" stroke-linejoin="round" opacity="0.2"/><path d="M252.3,62.6a11.7,11.7,0,0,1,3.4-2,17.3,17.3,0,0,1,3.7-1.6,30.7,30.7,0,0,1,8-1.6,8.3,8.3,0,0,1,2.2.1,6.1,6.1,0,0,1,1.8.5" fill="none" stroke="#fff" stroke-linecap="round" stroke-linejoin="round" opacity="0.2"/></svg>