<svg id="Layer_1" data-name="Layer 1" xmlns="http://www.w3.org/2000/svg" viewBox="0 0 500 600"><defs><style>.cls-1{fill:#f8c59a}.cls-1,.cls-4{stroke:#000}.cls-1{stroke-linecap:round;stroke-linejoin:round}.cls-4{fill:none;stroke-miterlimit:10}</style></defs><path class="cls-1" d="M230.4 62.5a39.9 39.9 0 014.8-.3c6.9 0 13.8.6 20.6 1.2s12.1 1.6 14.3 7.3c.1.2.1.3.2.4a2.9 2.9 0 01.2.9c1.4 5.1.3 10.6-.4 15.7a8.8 8.8 0 01-.2 1.7c-.3 3-.4 6-.5 9.1-.4 6-1.1 12.4-3.7 18-6.6 14.1-31.2 22-42.1 8.5-4.7-5.9-7.1-13.8-7.9-21.2q-.6-4.6-.9-9.3a53 53 0 01-.2-6.9 38.1 38.1 0 012.5-14.6 26.3 26.3 0 013.5-5.8c2.4-2.8 6.2-4.2 9.8-4.7z"/><path class="cls-1" d="M273.4 96.3a4.6 4.6 0 001.3-2.6 14.6 14.6 0 00.4-4.2 7 7 0 00-1.5-3.9c-.3-.3-.5-.6-.9-.7a3.4 3.4 0 00-2-.4h-.4c-.2.1-.2.3-.2.5a86.5 86.5 0 01-.5 8.8c-.1 1.1-.5 1.9.4 2.6a3.2 3.2 0 003.4-.1zm-62.6-2.6a3.6 3.6 0 01-.8-1.2 12.8 12.8 0 01-.6-3.4 10.2 10.2 0 01.3-3.5 5.1 5.1 0 012.6-3.3l1.1-.2c.3 0 .9-.1 1.2.1a.6.6 0 01.1.4c0 1.8-.1 3.6-.1 5.3s.1 2.8.2 4.2 0 1.9-1 2.2a3 3 0 01-3-.6z"/><path d="M277.2 60a74.2 74.2 0 01-1.6 23.5 10.8 10.8 0 01-1.8 4.4c-.9 1-2.5 1.7-3.6.8s-.6-2.4-.3-3.6a34.9 34.9 0 00.8-10.2c-.3-3-1.2-6.3-3.6-8s-4.8-1.4-7.2-1.8-7.5-1.8-11.3-2-9 1.3-13.6 1.8-9-.1-12.8 2.1-4.7 4.8-5.7 8a57.8 57.8 0 00-1.6 10c0 .4-.3 1.4-.9 1.3s-.5-.7-.6-.9a17.7 17.7 0 01-.6-1.7c-.3-.6-.5-1.2-.7-1.7s-.3-1.7-.5-2.5a26.3 26.3 0 01-.6-3.9c-.1-.5-.1-1.1-.2-1.6a25.4 25.4 0 011.2-10.6 14.7 14.7 0 011-2.2 8.1 8.1 0 001.2-2.9c.2-1.4-.4-2.7-.3-4 .3-3.2 4.2-4.6 5.8-7.3.8-1.2 1-2.8 2-4s4.9-1.8 7-3.4 2.2-2.4 3.5-3.4a10.6 10.6 0 015.6-1.4l7.2-.4c2.9-.2 5.9-.3 8.6.7s5.1 3.6 4.9 6.5a12.3 12.3 0 0110.1 1.1c5.4 3.1 7.6 9.7 8.4 15.9a5.9 5.9 0 01.2 1.4z" fill="#231009"/><path d="M261.1 76.9a6.9 6.9 0 00-1.8-2.4 9.8 9.8 0 00-4.3-2.2 38.5 38.5 0 00-4.9-.8c-.6-.1-2-.2-2.3.6a1.4 1.4 0 000 .9.9.9 0 00.5.8h.7a13.9 13.9 0 015.7.6 5.8 5.8 0 011.7.6l1.8 1.1a7.2 7.2 0 012.5 2.4l.3.5a.7.7 0 00.6.1c.4-.2-.3-1.8-.5-2.2zm-38-.5A8.1 8.1 0 01230 73a26.7 26.7 0 014.9 0c.7.1 2 .2 2.2 1a1.4 1.4 0 01-.1.9 1.6 1.6 0 01-.7.7.9.9 0 01-.7-.1 15.6 15.6 0 00-5.7-.4l-1.8.4-2 .7a9.1 9.1 0 00-2.9 1.9c-.1.1-.2.3-.4.4h-.5c-.4-.3.6-1.8.8-2.1z" fill="#471c0c"/><path class="cls-4" d="M235.1 80.2a3.2 3.2 0 012.1.8 3 3 0 01.3 2.3l-.7 4.5a9.4 9.4 0 01-.8 3.4 7.1 7.1 0 01-8.3 3.9 9.3 9.3 0 01-5.5-6.1c-.8-2.4-2.1-8.3.8-9.2s8.6.2 12.1.4zm24 1a3 3 0 012.1.8 2.3 2.3 0 01.3 2.3l-.6 4.5a18.7 18.7 0 01-.8 3.4 7 7 0 01-8.3 3.8 8.7 8.7 0 01-5.5-6c-.8-2.5-2.2-8.3.7-9.2s8.7.2 12.1.4z"/><path class="cls-4" d="M215.4 82.8a2.6 2.6 0 01.9-1.6c1.8-.1 4.3-.5 5.3-.3l-.5-.2m16.7 1.2h1.8l5.6.3c.1 0 .1.1.2 0m16.3 2.2l9.9-.5"/><path d="M233.8 114.9h.9l1.3.2h1.3l3.7-.2 3.9-.5 2-.3c.4 0 1.6-.4 1.9-.2s-1.4 2-1.8 2.2a9.2 9.2 0 01-2.7 1.6 22.2 22.2 0 01-6.1 1.3c-2.2.2-4.2 0-5.9-1.5a16.1 16.1 0 01-2.2-2.3c-.1-.1-.3-.4-.2-.6a.7.7 0 01.8-.2z" fill="#b35f31"/><path d="M256.2 111.2c-1.5-2.3-4.6-2.7-7.4-2.8-4.3-.2-8.7-.2-13.1-.2l-5.5.6c-2.8.3-3.7.4-4.5 1.1s-1.4 2.4-1.6 4.4-.9 6.9 1.7 10.6a14.7 14.7 0 003 3.1 13 13 0 003.6 2.1 20.9 20.9 0 003.5 1.3 15.7 15.7 0 005.3.6 31.5 31.5 0 005.2-.9 84.1 84.1 0 009.5-3.6c1.4-.7.9-3.6.9-4.9l.2-6.3a8.8 8.8 0 00-.8-5.1zm-4.2 3.3a19.4 19.4 0 00-.5 2 12.5 12.5 0 01-2.7 4.4 11.6 11.6 0 01-5.8 3 15 15 0 01-9.9-1.8 8.2 8.2 0 01-3.2-3.9c-.8-1.5-1.9-3.3-1.5-5s3.1-.3 4-.1a25.2 25.2 0 004.8.6 18.8 18.8 0 005.3 0 21.1 21.1 0 004.9-1.4l2.1-.8c.8-.3 2-.8 2.4.2a5.2 5.2 0 01.1 2.8z" opacity=".5" fill="#231009"/><path class="cls-4" d="M241.6 106.1a13 13 0 01-3.2-1.4 4.8 4.8 0 01-1.1-.9c-1.3-1.5-1.1-3.7-.5-5.6a28.7 28.7 0 011.5-3.7"/><path d="M231.4 119.5a11.8 11.8 0 004.6 3.3 11.9 11.9 0 0010.7-1.2c2.8-1.9 4.9-5 4.7-8.5a1.3 1.3 0 00-.1-.6l-.5-.2c-1.5-.3-2.7.6-4.1 1a26.5 26.5 0 01-4.9.9 27.2 27.2 0 01-5.7.1h-1.4a5.8 5.8 0 00-1.4-.3l-2.1-.5-1.3-.2c-1.3-.3-1.2.3-.9 1.5a11.5 11.5 0 002.4 4.7z" fill="#af5a58"/><path d="M231 114.7c0 .4.4.8.7 1.1a4.1 4.1 0 001.1.7 9.7 9.7 0 002.4.8 15.9 15.9 0 004.3.6 17.7 17.7 0 004.6-.7 12.6 12.6 0 003.4-1.5 4.9 4.9 0 001.5-1.4 3.2 3.2 0 00.3-.9c0-.8-.5-.5-.9-.4a24.9 24.9 0 01-7 1.8l-3.5.3a19.7 19.7 0 01-6.4-.7h-.3z" fill="#f6f1ed"/><path d="M224 65a7.7 7.7 0 01-6.1-3.9 13.4 13.4 0 01-1.6-7.4m14.9 10.1a17.7 17.7 0 01-5.4-4.4 16.3 16.3 0 01-2.3-15.8m18.4 17.1c-2.9-.2-6.5-.5-8.2-3.3a.5.5 0 00-.2-.4 15.6 15.6 0 01-.6-10 16.6 16.6 0 015.3-8.5m7.9 21.3a14.9 14.9 0 0114.5-7.9m-8.3 10.7a11.7 11.7 0 013.4-2 17.3 17.3 0 013.7-1.6 30.7 30.7 0 018-1.6 8.3 8.3 0 012.2.1 6.1 6.1 0 011.8.5" stroke="#463630" fill="none" stroke-linecap="round" stroke-linejoin="round"/><path class="cls-1" d="M225.2 87.2a4.3 4.3 0 013.5-1.9 4.2 4.2 0 013.5 1.8m18 1.1a4.3 4.3 0 013.5-1.9 4.2 4.2 0 013.5 1.8"/></svg>