<svg id="Layer_1" data-name="Layer 1" xmlns="http://www.w3.org/2000/svg" viewBox="0 0 500 600"><defs><style>.cls-1{fill:#f8c59a}.cls-1,.cls-5{stroke:#000}.cls-1{stroke-linecap:round;stroke-linejoin:round}.cls-5{fill:none;stroke-miterlimit:10}</style></defs><path class="cls-1" d="M230.3 62.6l4.9-.3a203.2 203.2 0 0120.6 1.2c5.4.5 12 1.5 14.3 7.3 0 .1.1.2.1.3l.3 1c1.3 5.1.2 10.5-.4 15.7a8.8 8.8 0 00-.2 1.7c-.3 3-.4 6-.6 9-.4 6.1-1 12.4-3.6 18-6.7 14.2-31.2 22.1-42.1 8.5-4.8-5.9-7.1-13.7-8-21.2-.4-3-.7-6.1-.9-9.2s-.2-4.6-.2-7a40 40 0 012.6-14.5 21.4 21.4 0 013.5-5.8c2.4-2.9 6.1-4.3 9.7-4.7z"/><path class="cls-1" d="M273.3 96.4a4.6 4.6 0 001.3-2.6 15.1 15.1 0 00.5-4.2 6.5 6.5 0 00-1.6-4l-.8-.7a5.1 5.1 0 00-2.1-.3h-.4a.6.6 0 00-.1.4 84.8 84.8 0 01-.6 8.8c-.1 1.1-.5 2 .4 2.7a3.4 3.4 0 003.4-.1zm-62.5-2.6a2 2 0 01-.8-1.2 13.7 13.7 0 01-.7-3.4 10.2 10.2 0 01.4-3.5 4.5 4.5 0 012.5-3.3l1.1-.2c.3 0 1-.1 1.2.1s.2.3.1.4V88c0 1.4.1 2.7.2 4.1s-.1 1.9-1 2.3a3 3 0 01-3-.6z"/><path d="M277.2 60.1a74.5 74.5 0 01-1.7 23.5 9.5 9.5 0 01-1.7 4.3c-.9 1.1-2.6 1.8-3.6.9s-.7-2.4-.4-3.6a32.6 32.6 0 00.8-10.3c-.3-3-1.1-6.2-3.6-7.9s-4.7-1.5-7.2-1.8-7.5-1.9-11.3-2.1-9 1.4-13.5 1.8-9.1 0-12.8 2.2a13.9 13.9 0 00-5.8 8 47.3 47.3 0 00-1.5 10c-.1.4-.4 1.4-1 1.3s-.4-.7-.6-1l-.6-1.7-.6-1.7-.6-2.4-.6-3.9c0-.6-.1-1.1-.1-1.6a24.2 24.2 0 011.1-10.7 20 20 0 011-2.1 8.6 8.6 0 001.2-3c.2-1.3-.4-2.7-.2-4 .3-3.1 4.1-4.5 5.7-7.2s1.1-2.9 2-4 5-1.9 7.1-3.4 2.1-2.5 3.4-3.4a10.8 10.8 0 015.6-1.4l7.2-.5c2.9-.1 6-.3 8.7.7s5.1 3.7 4.9 6.6a12.5 12.5 0 0110 1c5.4 3.1 7.7 9.7 8.5 15.9a7.7 7.7 0 00.2 1.5z" fill="#231009"/><path d="M224 65a7.7 7.7 0 01-6.1-3.9 13.4 13.4 0 01-1.6-7.4m14.9 10.1a17.7 17.7 0 01-5.4-4.4 16.3 16.3 0 01-2.3-15.8m18.4 17.1c-2.9-.2-6.5-.5-8.2-3.3a.5.5 0 00-.2-.4 15.6 15.6 0 01-.6-10 16.6 16.6 0 015.3-8.5m7.9 21.3a14.9 14.9 0 0114.5-7.9m-8.3 10.7a11.7 11.7 0 013.4-2 17.3 17.3 0 013.7-1.6 30.7 30.7 0 018-1.6 8.3 8.3 0 012.2.1 6.1 6.1 0 011.8.5" stroke="#463630" fill="none" stroke-linecap="round" stroke-linejoin="round"/><path d="M261.4 75.9a6.1 6.1 0 00-2.6-1.5 11.1 11.1 0 00-4.8-.4 37.4 37.4 0 00-4.8 1.2c-.7.2-1.9.6-1.9 1.4a1.1 1.1 0 00.3.8c.2.3.4.6.8.6l.7-.2a14.2 14.2 0 015.4-1.7h1.8l2.2.3a7.3 7.3 0 013.2 1.2l.5.3c.1.1.4 0 .5-.1s-1-1.7-1.3-1.9zm-38.4-1a9.4 9.4 0 012.6-1.4 11.6 11.6 0 014.9-.3 42.7 42.7 0 014.8 1.3c.6.2 1.9.6 1.8 1.4a1.1 1.1 0 01-.3.8c-.2.3-.5.6-.8.6l-.7-.2a12.8 12.8 0 00-5.4-1.8h-1.8l-2.1.3a7.2 7.2 0 00-3.3 1.1.9.9 0 01-.5.3c-.2.1-.4.1-.5-.1s1-1.7 1.3-2z" fill="#471c0c"/><ellipse cx="229.6" cy="90.9" rx="2.1" ry="3.1" transform="rotate(-4.4 228.524 90.897)"/><ellipse cx="253.6" cy="91.6" rx="2.1" ry="3.1" transform="rotate(-4.4 253.253 91.847)"/><path class="cls-5" d="M235 80.3a3 3 0 012.1.8 2.3 2.3 0 01.3 2.3l-.6 4.5a20.9 20.9 0 01-.8 3.4 7 7 0 01-8.3 3.8 8.7 8.7 0 01-5.5-6c-.8-2.5-2.2-8.3.7-9.2s8.7.1 12.1.4zm24 1a2.8 2.8 0 012.2.7 3.3 3.3 0 01.3 2.4l-.7 4.5a10.5 10.5 0 01-.8 3.4 7.1 7.1 0 01-8.3 3.8 9.3 9.3 0 01-5.5-6.1c-.8-2.4-2.1-8.3.7-9.1s8.7.1 12.1.4z"/><path class="cls-5" d="M215.4 82.9a3.2 3.2 0 01.9-1.7c1.7 0 4.3-.4 5.3-.3h-.6m16.8 1.1h1.8l5.6.3h.1m16.4 2.2l9.9-.6"/><path d="M256.1 111.2c-1.5-2.3-4.6-2.7-7.3-2.8h-13.1l-5.6.6c-2.8.3-3.7.4-4.5 1.1s-1.3 2.4-1.6 4.4-.9 6.8 1.7 10.6a14.6 14.6 0 003.1 3.1 15.9 15.9 0 003.5 2.1l3.5 1.3a15.7 15.7 0 005.3.5 23.4 23.4 0 005.3-.8 76.4 76.4 0 009.4-3.7c1.5-.7.9-3.5 1-4.9l.2-6.2c0-1.9.1-3.8-.9-5.3zm-5.7 3.3a5.2 5.2 0 01-.2 1.1 5.9 5.9 0 01-3.1 2.5 21.5 21.5 0 01-13.7.8 5.1 5.1 0 01-2.3-1.2c-.7-.8-.8-2.4.2-3a7 7 0 014-.9 41.7 41.7 0 005 .1 37.2 37.2 0 005.7-.8c1.2-.2 2.7-.4 3.7.3l.6.6c0 .2.1.3.1.5z" opacity=".5" fill="#231009"/><path class="cls-5" d="M241.6 106.2a16.4 16.4 0 01-3.3-1.4 5.2 5.2 0 01-1.1-1c-1.3-1.4-1-3.6-.5-5.5a24.3 24.3 0 011.6-3.7"/><path d="M232.5 115.7a1.1 1.1 0 00-.3 1.1 1.4 1.4 0 001 .7 20.8 20.8 0 009.6.7c1.8-.3 3.7-.7 5-2s1-1.4.5-1.9-1.4-.2-2-.1l-3 .5a34.3 34.3 0 01-5.5.6c-1.5.1-3.7-.7-5.1.2s-.1.2-.2.2z" fill="#d8925d"/></svg>