<svg xmlns="http://www.w3.org/2000/svg" viewBox="0 0 500 600"><path d="M230.1,63.1l4.9-.3c6.9,0,13.7.6,20.6,1.2s12.1,1.6,14.3,7.4a.4.4,0,0,1,.1.3l.3.9c1.3,5.1.3,10.6-.4,15.7-.1.6-.1,1.2-.2,1.8-.3,3-.4,6-.6,9-.4,6.1-1,12.4-3.6,18-6.7,14.1-31.2,22-42.1,8.5-4.7-5.9-7.1-13.8-8-21.2l-.9-9.2c-.1-2.4-.2-4.7-.2-7a39.6,39.6,0,0,1,2.6-14.5,27,27,0,0,1,3.5-5.9C222.8,65,226.5,63.6,230.1,63.1Z" fill="#f8c59a" stroke="#000" stroke-linecap="round" stroke-linejoin="round"/><path d="M273.2,96.9a5.5,5.5,0,0,0,1.3-2.5,15.7,15.7,0,0,0,.4-4.3,7,7,0,0,0-1.5-3.9l-.9-.7a4.9,4.9,0,0,0-2.1-.4H270a.7.7,0,0,0-.1.5,84.9,84.9,0,0,1-.5,8.8c-.2,1.1-.5,1.9.4,2.6S272.4,97.5,273.2,96.9Z" fill="#f8c59a" stroke="#000" stroke-linecap="round" stroke-linejoin="round"/><path d="M210.6,94.4a3.2,3.2,0,0,1-.8-1.2,10.3,10.3,0,0,1-.6-3.5,8.5,8.5,0,0,1,.3-3.5A4.8,4.8,0,0,1,212,83a5.3,5.3,0,0,1,1.2-.3c.3,0,.9,0,1.1.2a.5.5,0,0,1,.2.4c0,1.7-.1,3.5-.1,5.3s.1,2.7.2,4.1,0,1.9-1,2.3A3.5,3.5,0,0,1,210.6,94.4Z" fill="#f8c59a" stroke="#000" stroke-linecap="round" stroke-linejoin="round"/><path d="M277,60.7a74.5,74.5,0,0,1-1.7,23.5,9.5,9.5,0,0,1-1.7,4.3c-.9,1.1-2.6,1.7-3.6.8s-.6-2.3-.3-3.6a31.8,31.8,0,0,0,.7-10.2c-.2-3-1.1-6.3-3.5-8s-4.8-1.4-7.3-1.8-7.4-1.8-11.2-2-9,1.3-13.6,1.8-9-.1-12.8,2.2a13.3,13.3,0,0,0-5.7,8,55.2,55.2,0,0,0-1.6,9.9c0,.4-.3,1.5-.9,1.3s-.5-.7-.6-.9a12.2,12.2,0,0,1-.7-1.7l-.6-1.7a18.4,18.4,0,0,1-.5-2.5c-.3-1.3-.5-2.6-.7-3.9s-.1-1-.1-1.6A22.5,22.5,0,0,1,211.8,64a20.4,20.4,0,0,1,.9-2.2,9.5,9.5,0,0,0,1.3-2.9c.1-1.3-.5-2.7-.3-4,.3-3.1,4.1-4.5,5.7-7.2s1.1-2.9,2.1-4,4.9-1.9,7-3.4,2.1-2.5,3.5-3.4,3.6-1.3,5.6-1.5l7.2-.4c2.9-.2,5.9-.3,8.6.7s5.1,3.6,4.9,6.5a13.2,13.2,0,0,1,10.1,1.1c5.3,3.1,7.6,9.7,8.4,15.9C276.9,59.7,276.9,60.2,277,60.7Z"/><path d="M223.1,74.1a6.6,6.6,0,0,1,2.8-.9c2.8-.3,5.1.8,7.4,2.1a11.2,11.2,0,0,0,2.2,1l1.1.4c.4,0,.8-.2,1.1-.1l.3.4v.8c-.1.3-.1.5-.3.7a2.1,2.1,0,0,1-.4.6c-.1,0-.2,0-.2.1h-1.2l-1.1-.5a34,34,0,0,0-5-2.6l-1.8-.5h-2.2a6.7,6.7,0,0,0-3.4.4l-.5.2c-.2,0-.4,0-.5-.2S222.7,74.3,223.1,74.1Z"/><ellipse cx="230" cy="86.3" rx="2.1" ry="3.5" transform="matrix(1, -0.08, 0.08, 1, -5.93, 17.84)"/><ellipse cx="252" cy="87.3" rx="2.1" ry="3.5" transform="translate(-5.9 19.5) rotate(-4.4)"/><path d="M234.8,80.9a2.8,2.8,0,0,1,2.2.7,3.3,3.3,0,0,1,.3,2.4l-.7,4.5a14,14,0,0,1-.8,3.4,7.1,7.1,0,0,1-8.3,3.8,9.3,9.3,0,0,1-5.5-6.1c-.8-2.4-2.2-8.3.7-9.1S231.4,80.6,234.8,80.9Z" fill="none" stroke="#000" stroke-miterlimit="10"/><path d="M258.9,81.8a3,3,0,0,1,2.1.8,3,3,0,0,1,.3,2.3l-.6,4.5a16.9,16.9,0,0,1-.8,3.4,7.2,7.2,0,0,1-8.3,3.9,9.2,9.2,0,0,1-5.6-6.1c-.8-2.4-2.1-8.3.8-9.2S255.4,81.6,258.9,81.8Z" fill="none" stroke="#000" stroke-miterlimit="10"/><path d="M215.2,83.5a2.6,2.6,0,0,1,.9-1.7c1.8,0,4.3-.5,5.3-.3h-.5" fill="none" stroke="#000" stroke-miterlimit="10"/><path d="M237.6,82.5h1.8l5.6.3h.2" fill="none" stroke="#000" stroke-miterlimit="10"/><path d="M261.5,85.1l9.9-.6" fill="none" stroke="#000" stroke-miterlimit="10"/><path d="M241.4,106.7a13,13,0,0,1-3.2-1.4l-1.2-.9c-1.3-1.4-1-3.7-.4-5.5a23.9,23.9,0,0,1,1.5-3.7" fill="none" stroke="#000" stroke-miterlimit="10"/><path d="M258.9,74.1a7.5,7.5,0,0,0-2.9-.9c-2.7-.3-5.1.8-7.4,2.1a11.2,11.2,0,0,1-2.2,1l-1.1.4a3.7,3.7,0,0,0-1.1-.1l-.3.4v.8l.3.7.4.6H246l1.1-.5a30.6,30.6,0,0,1,5.1-2.6l1.7-.5h2.2a6.7,6.7,0,0,1,3.4.4l.5.2c.2,0,.4,0,.5-.2S259.2,74.3,258.9,74.1Z"/><path d="M251.7,113a13.2,13.2,0,0,0-6.6-3.7,12.2,12.2,0,0,0-3.3-.1c-3.5,0-6.9,0-10.3.3s-5,.8-6.8,3.1a10.6,10.6,0,0,0-2.4,4.1,14.1,14.1,0,0,0-.5,4.6c.1,3.5,1.6,5.5,4.3,7.6a18.7,18.7,0,0,0,3.6,2.1,20.9,20.9,0,0,0,3.5,1.3,22.1,22.1,0,0,0,8.5.4,54,54,0,0,0,7.2-1.7c1.3-.3,3.3-.5,4.1-1.6s1.1-6.1.7-8.9-.4-5.3-1.9-7.4Zm-8.5,3.4a18.2,18.2,0,0,1,1.1,4,15.2,15.2,0,0,1,.3,2.1,3.3,3.3,0,0,1-.8,1.9,3.9,3.9,0,0,1-1.8.6,52.4,52.4,0,0,1-5.6.2,12.6,12.6,0,0,1-3.9-.4l-.9-.4a2,2,0,0,1-.5-1.5,13.2,13.2,0,0,1,1.2-7c.6-1.2,1.6-1.4,2.9-1.6a33.8,33.8,0,0,1,4.5-.1,5.3,5.3,0,0,1,2.5.5A3.7,3.7,0,0,1,243.2,116.4Z" opacity="0.45"/><path d="M238.9,115h.7a2.9,2.9,0,0,1,1.6.3,7,7,0,0,1,.6.9,16.6,16.6,0,0,1,1.4,4.3,3,3,0,0,1-1.3,3.2c-1.4.7-8.3.4-9.5-.6s0-3.2.2-4.1l.6-2.2a2.3,2.3,0,0,1,2.1-1.5Z" fill="#5e2f2f" opacity="0.5"/><path d="M238.6,116h.7l.8.2c.7.3.9,1.1,1.1,1.8l.4,2a4.2,4.2,0,0,1,.1,1.6c-.3,1.6-2.7,1.4-4,1.3s-3.1.1-3.9-.7-.1-2.1,0-2.7.4-2.5,1.3-3a3.5,3.5,0,0,1,1.4-.3Z" fill="#5e2f2f"/><path d="M234.8,118.1v.2a.1.1,0,0,1,.1.1h5.3a.8.8,0,0,0,.4-1.1,1.6,1.6,0,0,0-.8-.6h-3.4c-.3,0-1,0-1.2.2S234.9,117.8,234.8,118.1Z" fill="#fff"/><path d="M234.3,121.5a1.2,1.2,0,0,0,1.2.6,26.8,26.8,0,0,0,4,.2,2,2,0,0,0,1.1-.3,1.4,1.4,0,0,0,.4-1.2v-.2h-.2a41.4,41.4,0,0,1-6.1.1C234.1,120.7,234,121.1,234.3,121.5Z" fill="#fff"/><path d="M224,65a7.7,7.7,0,0,1-6.1-3.9,13.4,13.4,0,0,1-1.6-7.4" fill="none" stroke="#fff" stroke-linecap="round" stroke-linejoin="round" opacity="0.2"/><path d="M231.2,63.8a17.7,17.7,0,0,1-5.4-4.4,16.3,16.3,0,0,1-2.3-15.8" fill="none" stroke="#fff" stroke-linecap="round" stroke-linejoin="round" opacity="0.2"/><path d="M241.9,60.7c-2.9-.2-6.5-.5-8.2-3.3a.5.5,0,0,0-.2-.4,15.6,15.6,0,0,1-.6-10,16.6,16.6,0,0,1,5.3-8.5" fill="none" stroke="#fff" stroke-linecap="round" stroke-linejoin="round" opacity="0.2"/><path d="M246.1,59.8a14.9,14.9,0,0,1,14.5-7.9" fill="none" stroke="#fff" stroke-linecap="round" stroke-linejoin="round" opacity="0.2"/><path d="M252.3,62.6a11.7,11.7,0,0,1,3.4-2,17.3,17.3,0,0,1,3.7-1.6,30.7,30.7,0,0,1,8-1.6,8.3,8.3,0,0,1,2.2.1,6.1,6.1,0,0,1,1.8.5" fill="none" stroke="#fff" stroke-linecap="round" stroke-linejoin="round" opacity="0.2"/></svg>