<svg id="Layer_1" data-name="Layer 1" xmlns="http://www.w3.org/2000/svg" viewBox="0 0 500 600"><defs><style>.cls-1{fill:#f8c59a}.cls-1,.cls-2{stroke:#000}.cls-1,.cls-2,.cls-3{stroke-linecap:round;stroke-linejoin:round}.cls-2{fill:#232323}.cls-3{fill:none;stroke:#7a7a7a}</style></defs><path class="cls-1" d="M38.8 153.5c-.2.4-2.4 17.5-2.4 17.5l2.9 1.2s14-5.2 14-5.4l-7.6-13.4-3.6-1.7-2.1.2z"/><path class="cls-1" d="M43.2 164.3a2.1 2.1 0 01-1.8 2.1l-7.3.6a2.7 2.7 0 01-3-2.4 2.6 2.6 0 012.9-2.5l7.2.2a2 2 0 012 2z"/><path class="cls-1" d="M43.8 160.5a2.4 2.4 0 01-2.4 2l-8.2-.5a2.9 2.9 0 01-3.1-2.8c.2-1.5 1.9-2.4 3.6-2.2l8.2 1.2a2.2 2.2 0 011.9 2.3z"/><path class="cls-1" d="M39.1 152.8c-8.4-2.8-19-3.8-22-4.2s-5.9 3 4 5a136 136 0 0114.5 3.5c8.2 2.2 5.7-.9 5.7-.9s-1.2-3-2.2-3.4z"/><path class="cls-1" d="M36.7 171.2a28.8 28.8 0 0016.4 2.4c3.5-.6 4.2-1.6 4.2-1.6l12.2 1.1a120.8 120.8 0 01-.4-14.7.4.4 0 00-.1-.3H58.2c-1.1 0-1.6.2-2.2-.8-1.7-2.7-3.6-6.2-6.8-7.4a17.3 17.3 0 00-9-1.1c-2.8.4-3.2 1-3.6 3.4s-1.4 8.9 1.3 8.6 4.9-5.3 4.2-8.1l2.1.2c.1 2.3.4 4.4.7 6.6a9.6 9.6 0 007.2 6.9c-2-.4-4.7 1-6.1 2.1a12.9 12.9 0 01-9.3 2.7z"/><path class="cls-1" d="M44.3 167.9a1.9 1.9 0 01-1.4 2.2l-6.8 1.4a2.6 2.6 0 01-3.1-1.9 2.4 2.4 0 012.4-2.7l6.8-.7a2 2 0 012.1 1.7z"/><path class="cls-2" d="M287.7 530c3.4 5.6 3.9 12.3 3.7 18.6-.1 3.3-.4 6.5-.7 9.7a28.2 28.2 0 01-1.2 7.7c-2.2 5.7-8.9 7.3-14.3 6.2-14.1-3-14.2-21.6-11.8-32.7.9-4.2 2.4-9.3 5.8-12.2 5.6-4.7 14.6-3.5 18.5 2.7z"/><path class="cls-3" d="M266.7 562a20.9 20.9 0 0111.7-2.3 22.3 22.3 0 019.3 3"/><ellipse class="cls-3" cx="268.9" cy="553.2" rx="2.3" ry="1.5"/><path class="cls-3" d="M281.7 553.3c0-.8 1.1-1.4 2.3-1.4s2.3.6 2.3 1.4-1 1.5-2.3 1.5a2.7 2.7 0 01-1.6-.4c-.5-.3-.4-.8-.8-1.1s-3.5-.6-4.7-.5-3.8.2-5.8.4"/><ellipse class="cls-3" cx="268.9" cy="548.4" rx="2.3" ry="1.5"/><path class="cls-3" d="M281.7 548.4c0-.8 1.1-1.5 2.3-1.5s2.3.7 2.3 1.5-1 1.4-2.3 1.4a2.7 2.7 0 01-1.6-.4c-.5-.3-.4-.8-.8-1.1s-3.5-.6-4.7-.5-3.8.2-5.8.5"/><ellipse class="cls-3" cx="268.9" cy="543.5" rx="2.3" ry="1.5"/><path class="cls-3" d="M281.7 543.6c0-.8 1.1-1.4 2.3-1.4s2.3.6 2.3 1.4-1 1.5-2.3 1.5a2.8 2.8 0 01-1.6-.5c-.5-.3-.4-.7-.8-1s-3.5-.6-4.7-.6l-5.8.5"/><path class="cls-2" d="M217.4 530c3.5 5.6 4 12.3 3.7 18.6-.1 3.3-.4 6.5-.7 9.7a28.2 28.2 0 01-1.2 7.7c-2.1 5.7-8.9 7.3-14.2 6.2-14.2-3-14.3-21.6-11.9-32.7 1-4.2 2.4-9.3 5.8-12.2 5.6-4.7 14.7-3.5 18.5 2.7z"/><path class="cls-3" d="M196.4 562a21.1 21.1 0 0111.8-2.3 22.2 22.2 0 019.2 3"/><ellipse class="cls-3" cx="198.6" cy="553.2" rx="2.3" ry="1.5"/><path class="cls-3" d="M211.5 553.3c0-.8 1-1.4 2.2-1.4s2.3.6 2.3 1.4-1 1.5-2.3 1.5a2.7 2.7 0 01-1.6-.4c-.5-.3-.4-.8-.7-1.1s-3.5-.6-4.7-.5a54.6 54.6 0 00-5.8.4"/><ellipse class="cls-3" cx="198.6" cy="548.4" rx="2.3" ry="1.5"/><path class="cls-3" d="M211.5 548.4c0-.8 1-1.5 2.2-1.5s2.3.7 2.3 1.5-1 1.4-2.3 1.4a2.7 2.7 0 01-1.6-.4c-.5-.3-.4-.8-.7-1.1s-3.5-.6-4.7-.5a54.4 54.4 0 00-5.8.5"/><ellipse class="cls-3" cx="198.6" cy="543.5" rx="2.3" ry="1.5"/><path class="cls-3" d="M211.5 543.6c0-.8 1-1.4 2.2-1.4s2.3.6 2.3 1.4-1 1.5-2.3 1.5a2.8 2.8 0 01-1.6-.5c-.5-.3-.4-.7-.7-1s-3.5-.6-4.7-.6l-5.8.5"/><path d="M250 378.9l1.3 8.1c4.7 31 5.6 62.8 7.2 94.1.5 10 .9 19.9 1.6 29.8.5 6.1-.1 13 2.1 18.8 1.4 3.6 1.8 3.4 5.1 3.4 6.2.2 16.6 2.4 22.5.3s2.7-8.7 2-13c-1-7.3-1.4-14.7-1.8-22-.9-15.1-1.1-30.3-1-45.4.2-30.3 1.5-60.6-.3-90.9-.2-4.6-.5-9.1-.9-13.6-1.8-20.1-4.2-40.1-5.3-60.2-.1-2-.3-4-.3-6s.1-4.5-2.5-5.9-4.7-1.4-7.1-1.5c-9-.5-18 .2-27 .3s-18.7.3-28.1-.1c-6.4-.3-17.9-.8-18.8 7.9-2.6 24.6-2.6 49.4-3.5 74.1s-3.4 48.2-3.9 72.4c-.4 16.6.4 33.2.8 49.9.3 10-.2 20.1-.6 30.2-.2 5-1.2 10-1.1 15 0 7.1 5.2 10.8 11.7 11.8 4.1.6 16.5 1.4 19.2-2.2s1.4-15 1.6-19.3.2-11.4.4-17c1.1-30.2 2.2-60.4 5.2-90.4.4-4.3.9-8.5 1.4-12.8 2.3-20.4 6.1-40.7 8.9-61.1" fill="#000405" fill-rule="evenodd"/><path d="M303.5 338.5c-.1.3-.1.5-.2.8a61.8 61.8 0 01-1.2 6.2c-.8 4-1.7 7.9-2.5 11.9s-1.9 6-4.5 8a22.1 22.1 0 01-6.5 3.3 6.5 6.5 0 01-2.7.5c-3.6-.7-.6-4.5.8-5.7s2.4-1.8 3.5-2.8 2.7-1.9 2.6-3.5l-.7-13.9c-1.1 1.2-1.3 2.9-1.6 4.5a29 29 0 01-1.4 4.8 5.1 5.1 0 01-1.6 2.5 2.1 2.1 0 01-2.7-.3 3.2 3.2 0 01-.3-1.7l.2-7a38.1 38.1 0 01.5-5.9 22.6 22.6 0 015.5-9.9 4.6 4.6 0 011.6-1.5 6.6 6.6 0 012.4-.3c2.5.1 5.2 0 7.5.9s1.8 1.3 1.8 3.2-.3 3.9-.5 5.9z" stroke="#1a1a1a" stroke-linecap="round" stroke-linejoin="round" fill="#f8c59a"/><path d="M191.6 271.5c.1 4.5.7 9.2 4 12.1 4.9 4.1 12.3 3.5 18.1 3.6 8 .3 15.9 1.7 24 1.4l23.4-1c2.7-.1 7.1.7 10.9.7h1.7a7.8 7.8 0 004.5-1.5 6.1 6.1 0 001.2-1.5 11.8 11.8 0 003.1-4.4c.8-2.1.6-4.4.5-6.6-1.5-26.9 3.5-54.7-1.3-81.3 3.2 12.8 2.5 25.8 3 38.8.5 15.4 3 30.8 2.3 46.1-.6 13.4-2.7 26.8-2.3 40.1a6 6 0 00.1 3c.1 1.9.2 3.8.5 5.8s.5 3.4 1.7 4.5a7.3 7.3 0 004 1.5c3.5.5 7 1 10.6 1.3a4.5 4.5 0 002.8-.3 4.7 4.7 0 001.5-3.3c2.8-17.4 5.5-34.9 7.1-52.5 1.3-15.8 0-32.2 0-48a287.5 287.5 0 00-4.8-50.8c-.5-3.1-1.2-6.2-3-8.7-7.3-10.3-14.5-15.1-26-20.6-5.7-2.7-11.6-5.3-17.9-6.4a2.9 2.9 0 00-1.3-.1 4 4 0 00-2 1.6 109.7 109.7 0 01-10.5 12 27.7 27.7 0 01-8.2 6.3 3.1 3.1 0 01-1.9.4 4.1 4.1 0 01-2.7-1.8c-2.8-3.2-5.3-6.9-9.2-8.5-2.3-.9-7-1.6-7-4.8s3.8-4.9 5.9-6.7 4.8-4.5 5.8-7.7c.1-.2.3-2.8.1-2.7a19.9 19.9 0 00-3.6 1.7c-7.2 3.5-11.9 9.5-20.3 10s-12.7-.7-19.7 2a91.1 91.1 0 01-20.6 5c-13.6 1.6-27.3.7-40.9.3a463.2 463.2 0 00-52.7 1.5c-1.6.2-3.5.5-4.4 1.8a5.1 5.1 0 00-.6 3c-.2 6.9-3.6 17.8 3.9 21.3 5.1 2.4 12 .9 17.3.7a651.8 651.8 0 0175.3 2c8.5.7 18.3 2.4 22.3 9.9 5.8 10.6 5.1 24.9 5.3 36.5.3 14.1.2 28.2 0 42.3z" fill="#b1dbf2" stroke-miterlimit="10" stroke="#000"/><path class="cls-1" d="M221.5 144.6v.2l-1.6 2.3c-.8 1.6-1.4 3.6-.2 5.2a16.3 16.3 0 007.2 5.2c1.8.5 3.6.8 5.4 1.4a16.4 16.4 0 017.5 4.9 34.7 34.7 0 0116.9-8.4c4.2-.7 9.4-6.3 8.6-10.9a10.9 10.9 0 00-.9-2.3c-1.7-3.1-4.7-5.3-7.7-7.3a8.2 8.2 0 01-2.9-2.3c-.6-1.1-.5-2.5-1.1-3.5-4.7 3.3-11.9 3.9-17.4 3a18.3 18.3 0 01-2.5-.6c-.4-.1-1.9-1-2.2-.8s-.1.8-.1 1.1a5.9 5.9 0 01-.6 1.4 22.6 22.6 0 01-1.6 2.6 35.7 35.7 0 01-4.4 5.2 9.4 9.4 0 00-1 1l-.8 1.3a13.9 13.9 0 00-.6 1.3z"/><path d="M239.4 146c.8 1.3 2.9 1.5 4.2.7a3 3 0 00.8-.8" stroke="#1a1a1a" fill="none" stroke-linecap="round" stroke-linejoin="round"/><path d="M221.7 145.2a6 6 0 00.2 1.2 9.5 9.5 0 002.5 2.8l4.9 4.7c3.1 2.9 6.4 5.7 9.4 8.8 2.3-2.1 4.4-4.9 6.6-7.2a37.3 37.3 0 006.2-8 22.4 22.4 0 002.1-14.6 9.1 9.1 0 01-.3-2.3c0 1.1 2.5 2.2 3.2 2.5s3 1.1 4.4 1.7a14.5 14.5 0 019.1 7.7 18.6 18.6 0 011.4 8.4c-.1.7-1.2 7.9-1 7.9a26.9 26.9 0 00-16.8-1.6c-5.8 1.3-10.2 4.8-14.3 8.9a31.9 31.9 0 00-3.2-3c-6.5-4.6-13.4.4-19.4 3.1-.9-1.4-1-3.1-1.4-4.7a138.8 138.8 0 00-5.3-14c-.7-1.8-1.2-3.2.4-4.7s2.8-1.6 4.2-2.4l7.7-4.7c2.6-1.5 5.3-3.4 8.1-4.5.7 1.3-1.3 3.9-2 5a26.8 26.8 0 01-4 4.9c-1.1 1.2-2.8 2.3-2.7 4.1z" fill="#fff" stroke-linecap="round" stroke-linejoin="round" stroke="#000"/></svg>