<svg width="300" height="239" xmlns="http://www.w3.org/2000/svg"><g fill="none" fill-rule="evenodd"><path fill="#997659" d="M128 0l36.63 126.227L181.86 221h17.293L181.891 0z"/><path d="M111.538 0c2.556 65.574 1.548 101.34.976 107.298-.572 5.958-3.82 45.858-25.95 115.702h17.986c29.308-67.003 39.539-106.904 42.9-115.702C150.812 98.5 160.74 62.734 175.233 0h-63.695z" fill="#B28B67"/><path d="M127.214 0c9.528 43.435 26.008 112.768 49.439 208h25.293c1.868-97.746-6.079-162.08-19.841-208h-54.891z" fill="#69A1AC"/><path d="M111.41 0c2.503 65.574-3.984 130.177-24.08 209.021h26.987C143.679 143.018 164.723 78.734 179.106 0H111.41z" fill="#89C5CC"/><path d="M84 236l.992-16c5.81 1.7 13.089 1.033 21.834-2 9.403 6.66 21.24 11.209 35.511 13.644a2 2 0 0 1 1.588 2.517L142.553 239H85.985L84 236zm94 0l.992-16c5.81 1.7 13.089 1.033 21.834-2 9.403 6.66 21.24 11.209 35.511 13.644a2 2 0 0 1 1.588 2.517L236.553 239h-56.568L178 236z" fill="#191847"/></g></svg>