<?xml version="1.0" encoding="UTF-8"?>
<svg width="500px" height="600px" viewBox="0 0 500 600" version="1.1" xmlns="http://www.w3.org/2000/svg" xmlns:xlink="http://www.w3.org/1999/xlink">
    <title>explaining</title>
    <g id="explaining" stroke="none" stroke-width="1" fill="none" fill-rule="evenodd">
        <g id="body" transform="translate(197.000000, 247.000000)">
            <g id="fill" transform="translate(3.276877, 2.024578)">
                <path d="M45.0171232,190.814622 C45.0311232,190.027622 44.1391232,189.526622 43.5191232,189.914622 C43.3411232,189.698622 43.0861232,189.553622 42.7831232,189.581622 C42.2721232,189.626622 41.7601232,189.648622 41.2471232,189.668622 C41.1211232,189.623622 41.0021232,189.573622 40.8661232,189.533622 C39.6691232,189.184622 38.3641232,189.353622 37.0741232,189.558622 C33.7961232,189.244622 30.5781232,188.406622 27.5571232,187.033622 C26.9651232,186.764622 26.4151232,187.079622 26.1671232,187.522622 C25.1421232,187.439622 24.1301232,187.233622 23.1501232,186.865622 C22.4131232,186.588622 21.7471232,186.126622 20.9571232,186.015622 C20.4501232,185.944622 19.9251232,186.035622 19.5351232,186.309622 C19.0561232,185.806622 18.0491232,186.137622 17.9181232,186.800622 C17.4931232,188.965622 17.4551232,191.137622 17.7621232,193.315622 C17.7611232,193.325622 17.7601232,193.334622 17.7591232,193.343622 C17.7611232,193.342622 17.7631232,193.342622 17.7651232,193.342622 C17.7781232,193.431622 17.7821232,193.520622 17.7951232,193.609622 C17.8461232,193.937622 18.1321232,194.168622 18.4461232,194.269622 C18.4161232,194.459622 18.3781232,194.640622 18.3731232,194.845622 C17.9641232,210.859622 17.5561232,226.873622 17.1471232,242.886622 C17.1071232,244.453622 17.8291232,245.519622 18.8431232,246.127622 C18.6991232,246.526622 18.5871232,246.949622 18.5341232,247.405622 L18.5191232,247.537622 C14.5791232,254.822622 5.69912325,259.543622 3.86212325,267.726622 C3.37912325,269.877622 4.53112325,271.477622 6.08212325,272.231622 C6.35112325,272.626622 6.66112325,273.001622 7.02012325,273.351622 C7.29612325,273.623622 7.59212325,273.854622 7.89412325,274.073622 C9.50912325,276.308622 12.1901232,277.631622 14.9541232,277.680622 C15.2571232,277.686622 15.5571232,277.640622 15.8511232,277.569622 C16.0701232,277.600622 16.2871232,277.605622 16.5021232,277.608622 C18.5011232,277.862622 20.3541232,277.718622 22.0741232,277.269622 C22.7071232,277.191622 23.3281232,277.043622 23.9091232,276.806622 C24.5121232,276.561622 25.0381232,276.283622 25.4941232,275.901622 C30.7881232,273.007622 34.6001232,267.163622 37.4301232,261.833622 C37.9201232,260.910622 38.0121232,260.012622 37.8501232,259.198622 C40.1611232,253.987622 40.5871232,248.028622 38.8121232,242.385622 C38.7271232,242.118622 38.6161232,241.872622 38.4861232,241.643622 C38.9121232,241.060622 39.1961232,240.327622 39.2421232,239.433622 C39.5071232,234.314622 39.7731232,229.196622 40.0381232,224.077622 C40.0631232,223.990622 40.1031232,223.917622 40.1211232,223.825622 C41.4521232,217.354622 42.3071232,210.835622 42.6841232,204.240622 C42.7061232,203.847622 42.6581232,203.484622 42.5661232,203.143622 C43.8281232,200.491622 44.5451232,197.790622 44.6831232,194.846622 C44.7051232,194.396622 44.6181232,193.954622 44.4591232,193.534622 C44.7061232,192.931622 44.9541232,192.329622 45.2001232,191.725622 C45.3611232,191.333622 45.2451232,191.023622 45.0171232,190.814622" id="Fill-1" fill="#E4C3A2"></path>
                <path d="M104.377523,272.981522 C103.838523,265.108522 97.0495232,258.398522 90.6205232,254.245522 C90.6485232,254.231522 90.6755232,254.219522 90.7015232,254.206522 C89.8825232,252.854522 89.1295232,251.474522 88.5045232,250.044522 C89.5205232,248.649522 89.7505232,246.707522 89.1895232,245.066522 C89.4005232,244.652522 89.5525232,244.166522 89.6215232,243.598522 C91.5675232,227.699522 93.5135232,211.799522 95.4585232,195.900522 C95.4835232,195.697522 95.4765232,195.511522 95.4775232,195.321522 C95.7725232,195.260522 96.0615232,195.070522 96.1535232,194.752522 C96.1795232,194.666522 96.1945232,194.579522 96.2195232,194.492522 C96.2215232,194.493522 96.2225232,194.493522 96.2245232,194.494522 C96.2245232,194.484522 96.2255232,194.475522 96.2265232,194.465522 C96.8155232,192.351522 97.0945232,190.197522 97.0255232,187.999522 C97.0045232,187.326522 96.1515232,186.867522 95.6515232,187.302522 C95.3425232,186.979522 94.8865232,186.821522 94.4225232,186.825448 C93.6995232,186.832522 93.0385232,187.203522 92.3405232,187.380522 C91.4105232,187.617522 90.4765232,187.689522 89.5475232,187.637522 C89.3905232,187.167522 88.9435232,186.784522 88.3755232,186.972522 C85.4775232,187.937522 82.4795232,188.346522 79.5045232,188.230522 C78.3795232,187.859522 77.2365232,187.522522 76.1175232,187.710522 C75.9895232,187.732522 75.8765232,187.767522 75.7565232,187.795522 C75.3015232,187.709522 74.8475232,187.620522 74.3975232,187.507522 C74.1285232,187.442522 73.8805232,187.551522 73.6905232,187.742522 C73.1915232,187.277522 72.3225232,187.656522 72.2215232,188.437522 C71.9875232,188.615522 71.8395232,188.906522 71.9265232,189.315522 C72.0605232,189.944522 72.1935232,190.573522 72.3265232,191.202522 C72.1255232,191.596522 71.9835232,192.022522 71.9385232,192.471522 C71.6365232,195.402522 71.8885232,198.168522 72.6335232,200.958522 C72.5025232,201.283522 72.4065232,201.635522 72.3695232,202.027522 C71.7545232,208.602522 71.5785232,215.165522 71.8345232,221.741522 C71.8375232,221.835522 71.8625232,221.912522 71.8715232,222.002522 C71.3705232,227.101522 70.8695232,232.201522 70.3685232,237.300522 C70.2805232,238.191522 70.4285232,238.953522 70.7265232,239.585522 C70.5765232,239.795522 70.4405232,240.024522 70.3265232,240.278522 C70.2415232,240.467522 70.1775232,240.664522 70.0975232,240.855522 C70.4715232,241.870522 70.5305232,242.967522 70.1015232,243.999522 C69.8465232,244.610522 69.6265232,245.231522 69.4275232,245.858522 C69.7895232,246.581522 69.9695232,247.378522 69.8615232,248.211522 C69.4845232,251.155522 69.0655232,254.088522 68.7595232,257.033522 C68.7605232,257.035522 68.7605232,257.038522 68.7615232,257.040522 C68.7595232,257.044522 68.7585232,257.049522 68.7575232,257.054522 C68.6935232,257.666522 68.6365232,258.278522 68.5845232,258.890522 C68.6165232,259.155522 68.6685232,259.424522 68.7555232,259.702522 C68.7875232,259.804522 68.8265232,259.911522 68.8585232,260.014522 C68.8055232,265.878522 72.2195232,270.949522 76.8635232,274.460522 C81.4565232,277.932522 88.1855232,281.754522 94.0385232,282.050522 C99.2535232,282.314522 104.474523,279.165522 104.377523,273.698522 C104.391523,273.467522 104.394523,273.231522 104.377523,272.981522" id="Fill-3" fill="#E4C3A2"></path>
                <path d="M43.3071232,189.221822 C43.2791232,189.326822 43.2561232,189.433822 43.2291232,189.538822 C43.2041232,189.536822 43.1811232,189.530822 43.1571232,189.529822 C42.4491232,188.993822 41.4741232,188.811822 40.5451232,188.816822 C38.9961232,188.824822 37.4481232,188.857822 35.9001232,188.878822 C35.7121232,188.880822 35.5431232,188.922822 35.3861232,188.981822 C35.3251232,188.957822 35.2581232,188.950822 35.1951232,188.936822 C35.1191232,188.707822 35.0551232,188.477822 34.9771232,188.249822 C34.3551232,186.434822 31.4561232,187.213822 32.0841232,189.047822 C37.6601232,205.320822 36.5531232,222.753822 35.4231232,239.633822 C35.3971232,240.029822 35.5121232,240.332822 35.6981232,240.565822 C35.3961232,243.816822 36.0551232,246.970822 36.4161232,250.224822 C36.7241232,252.996822 36.7121232,255.900822 35.2881232,258.341822 C35.2681232,258.361822 35.2451232,258.376822 35.2261232,258.399822 C32.0221232,262.018822 30.2301232,266.667822 26.7191232,270.034822 C23.5991232,273.025822 19.6151232,274.908822 15.3661232,275.594822 C13.8061232,275.230822 12.6071232,277.514822 14.2151232,278.312822 C19.2661232,280.822822 25.0551232,278.814822 28.8611232,275.021822 C32.8081232,271.086822 35.2771232,265.645822 37.4381232,260.551822 C37.4531232,260.532822 37.4711232,260.517822 37.4871232,260.495822 C39.4081232,257.812822 39.7591232,254.395822 39.5091232,251.188822 C39.2391232,247.719822 38.2451232,244.211822 38.6781232,240.720822 C39.0821232,240.492822 39.3901232,240.088822 39.4191232,239.496822 C39.5761232,236.377822 39.6901232,233.257822 39.7771232,230.136822 C39.8021232,230.019822 39.8191232,229.895822 39.8171232,229.759822 C39.8041232,228.910822 39.8111232,228.062822 39.8311232,227.213822 C39.8321232,227.139822 39.8341232,227.065822 39.8351232,226.992822 C39.8951232,224.809822 40.0781232,222.631822 40.3681232,220.467822 C40.4221232,220.316822 40.4631232,220.157822 40.4801232,219.991822 L40.6201232,218.608822 C40.6241232,218.566822 40.6191232,218.528822 40.6191232,218.488822 C40.8921232,217.224822 41.1651232,215.961822 41.4391232,214.699822 C41.8671232,214.488822 42.1411232,214.127822 42.2581232,213.672822 C42.2661232,213.656822 42.2751232,213.640822 42.2821232,213.623822 C43.1701232,211.416822 43.3601232,208.939822 42.8991232,206.606822 C43.6571232,201.016822 44.7681232,195.475822 46.2001232,190.019822 C46.6901232,188.150822 43.7971232,187.352822 43.3071232,189.221822" id="Fill-5" fill="#C3996B"></path>
                <path d="M101.259323,277.877122 C95.5213232,278.743122 89.6543232,278.093122 84.2443232,276.123122 C84.7223232,275.468122 84.7453232,274.501122 83.8233232,274.018122 C81.7103232,272.911122 79.3303232,271.634122 77.1983232,270.082122 C77.1763232,269.776122 77.0553232,269.466122 76.7903232,269.183122 C74.0033232,266.209122 72.5893232,262.196122 72.7743232,258.171122 C72.7923232,257.754122 72.6003232,257.371122 72.3043232,257.096122 C73.1793232,247.922122 74.0533232,238.748122 74.9283232,229.574122 C75.0033232,229.402122 75.0593232,229.212122 75.0623232,228.986122 C75.1503232,222.821122 75.7033232,216.678122 76.7213232,210.598122 C77.9333232,203.526122 78.6053232,196.373122 78.6903232,189.197122 C78.7073232,187.701122 76.9153232,187.368122 76.0943232,188.191122 C75.6963232,188.049122 75.2573232,188.087122 74.8803232,188.294122 C74.4153232,186.781122 71.8583232,186.901122 71.9533232,188.689122 C72.1033232,191.460122 72.3703232,194.221122 72.7403232,196.969122 C72.4043232,197.209122 72.1443232,197.590122 72.0743232,198.114122 C71.5093232,202.363122 71.5593232,206.615122 72.1263232,210.851122 C71.7833232,217.600122 71.4413232,224.349122 71.0973232,231.097122 C71.0693232,231.666122 71.3133232,232.063122 71.6693232,232.296122 C70.8633232,240.743122 70.0583232,249.190122 69.2523232,257.639122 C69.2513232,257.650122 69.2543232,257.659122 69.2533232,257.671122 C68.5653232,257.815122 68.1363232,258.431122 68.0713232,259.138122 C67.7053232,263.095122 69.5593232,266.916122 72.2053232,269.758122 C73.2293232,270.856122 74.3833232,271.804122 75.6003232,272.670122 C74.8693232,273.250122 74.6293232,274.543122 75.6623232,275.208122 C76.2433232,275.583122 76.8363232,275.935122 77.4353232,276.274122 C77.5473232,276.555122 77.7433232,276.792122 78.0403232,276.918122 C80.6713232,278.030122 83.3033232,279.143122 85.9343232,280.255122 C86.3223232,280.419122 86.6643232,280.523122 87.0903232,280.405122 C87.2353232,280.366122 87.3813232,280.291122 87.5183232,280.200122 C89.0313232,280.552122 90.5663232,280.801122 92.1123232,280.968122 C91.7903232,281.249122 91.5763232,281.650122 91.5963232,282.083122 C91.6333232,282.907122 92.2553232,283.569122 93.0963232,283.583122 C95.8013232,283.628122 98.5463232,282.800122 100.743323,281.212122 C100.868323,281.122122 100.979323,281.012122 101.079323,280.894122 C101.405323,280.853122 101.732323,280.818122 102.057323,280.770122 C103.959323,280.482122 103.151323,277.591122 101.259323,277.877122" id="Fill-7" fill="#C3996B"></path>
                <path d="M108.964423,158.581222 C108.935423,158.180222 108.845423,157.805222 108.731423,157.444222 C108.799423,156.955222 108.806423,156.437222 108.729423,155.891222 C107.897423,149.971222 107.065423,144.050222 106.233423,138.130222 C106.854423,137.641222 107.248423,136.823222 106.956423,136.034222 C106.627423,135.146222 106.365423,134.237222 106.186423,133.307222 C106.141423,133.071222 106.101423,132.834222 106.067423,132.596222 C106.060423,132.524222 106.030423,132.271222 106.026423,132.233222 C106.023423,132.191222 106.024423,132.148222 106.020423,132.106222 C107.731423,130.629222 107.642423,128.342222 106.519423,126.541222 C106.610423,126.217222 106.698423,125.893222 106.808423,125.573222 C107.147423,124.583222 106.420423,123.343222 105.411423,123.113222 C104.497423,122.905222 103.672423,123.273222 103.205423,124.000222 C102.131423,123.700222 100.925423,123.736222 99.6844232,124.277222 C94.8104232,126.402222 87.7934232,125.753222 82.5584232,125.946222 C76.4994232,126.171222 70.4344232,126.200222 64.3744232,126.030222 C59.5204232,125.895222 54.6744232,125.623222 49.8394232,125.228222 C47.8544232,124.553222 45.8314232,124.017222 43.7764232,123.608222 C43.4814232,123.391222 43.1074232,123.251222 42.6414232,123.246222 C42.2144232,123.241222 41.7904232,123.217222 41.3644232,123.197222 C40.9924232,123.141222 40.6234232,123.068222 40.2494232,123.019222 C40.0544232,122.994222 39.8624232,123.026222 39.6764232,123.082222 C37.9604232,122.927222 36.2594232,122.669222 34.5834232,122.293222 C34.3544232,121.907222 33.9804232,121.619222 33.4404232,121.544222 C33.2634232,121.519222 33.0854232,121.497222 32.9074232,121.474222 L32.9074232,121.473222 C31.3224232,121.263222 29.7724232,120.855222 28.2784232,120.296222 C27.0894232,119.802222 25.9164232,119.263222 24.7764232,118.648222 C23.9224232,118.187222 23.1064232,118.385222 22.5414232,118.877222 C22.5294232,118.843222 22.5064232,118.815222 22.4964232,118.779222 C21.8424232,116.292222 17.9834232,117.347222 18.6404232,119.843222 C18.7404232,120.225222 18.8904232,120.568222 19.0624232,120.895222 C19.0624232,120.899222 19.0614232,120.903222 19.0614232,120.907222 C19.0604232,121.074222 19.0604232,121.241222 19.0594232,121.408222 C18.8514232,122.896222 18.6424232,124.385222 18.4344232,125.872222 C18.4184232,125.980222 18.4074232,126.087222 18.3994232,126.194222 C15.4354232,131.378222 14.4844232,137.106222 15.2874232,142.974222 L15.1914232,143.372222 C15.1224232,143.655222 15.0814232,143.929222 15.0574232,144.197222 C13.9144232,147.859222 12.9674232,151.575222 12.2644232,155.371222 C12.1524232,155.968222 12.1434232,156.530222 12.2104232,157.058222 C10.6904232,161.991222 9.20942325,167.046222 8.88542325,171.919222 C8.78542325,173.419222 8.93242325,174.758222 9.27942325,175.958222 C9.02642325,177.326222 9.39942325,178.810222 10.7374232,180.081222 C11.7934232,181.082222 13.0414232,181.767222 14.3604232,182.145222 C15.0254232,182.546222 15.7294232,182.913222 16.4754232,183.243222 C17.0964232,183.546222 17.7464232,183.778222 18.5784232,184.056222 C19.7244232,184.437222 20.7414232,184.404222 21.6054232,184.094222 C21.9214232,184.231222 22.2684232,184.345222 22.6494232,184.426222 C25.0464232,184.937222 27.8434232,185.804222 30.5424232,186.008222 L31.7464232,186.398222 C32.2574232,186.563222 32.7794232,186.614222 33.2954232,186.584222 C33.6844232,186.765222 34.1204232,186.905222 34.6194232,186.989222 C39.1334232,187.742222 44.4844232,189.361222 48.7104232,187.583222 C48.7584232,187.581222 48.8024232,187.585222 48.8504232,187.582222 C54.6094232,187.268222 55.2944232,182.358222 56.1634232,177.607222 C57.2574232,171.637222 58.3504232,165.666222 59.4434232,159.695222 C60.6364232,156.721222 61.8644232,153.762222 63.1054232,150.807222 C63.5954232,153.199222 64.0404232,155.602222 64.4424232,158.014222 C64.5074232,158.407222 64.6524232,158.765222 64.8314232,159.103222 C64.7474232,162.299222 64.4494232,165.500222 64.1434232,168.695222 C63.7634232,172.662222 63.2214232,176.869222 64.7084232,180.498222 C64.3864232,183.204222 65.9764232,186.181222 69.4924232,186.181222 C69.7844232,186.181222 70.0584232,186.153222 70.3224232,186.114222 C72.2854232,186.880222 74.4634232,186.977222 76.4484232,186.221222 C76.9494232,186.418222 77.5094232,186.544222 78.1304232,186.578222 C84.4524232,186.925222 94.7674232,187.649222 101.555423,184.245222 C105.943423,184.796222 109.521423,181.102222 110.049423,176.689222 C110.738423,170.930222 109.383423,164.363222 108.964423,158.581222" id="Fill-9" fill="#594A41"></path>
                <path d="M104.352123,122.690522 C102.655123,124.199522 100.262123,124.520522 98.0871232,124.773522 C95.2661232,125.100522 92.4431232,125.412522 89.6131232,125.654522 C83.9211232,126.140522 78.1521232,126.329522 72.4811232,125.504522 C72.0351232,125.439522 71.6521232,125.554522 71.3471232,125.767522 C65.2631232,124.938522 59.1641232,125.005522 53.0901232,125.589522 C52.9121232,125.191522 52.5911232,124.862522 52.1561232,124.801522 C48.6711232,124.316522 45.1811232,123.867522 41.6861232,123.460522 C41.5831232,123.448522 41.4841232,123.451522 41.3871232,123.467522 C37.9811232,122.836522 34.6031232,122.068522 31.2611232,121.153522 C30.9601232,121.071522 30.6761232,121.092522 30.4231232,121.184522 C30.0531232,121.104522 29.6841232,121.024522 29.3151232,120.943522 C29.1001232,120.474522 28.6551232,120.111522 28.0021232,120.098522 C26.2241232,120.062522 24.4821232,119.621522 22.9131232,118.826522 C22.3361232,118.282522 21.7061232,117.793522 21.0091232,117.416522 C20.8801232,117.346522 20.7441232,117.301522 20.6041232,117.272522 C20.5311232,117.210522 20.4531232,117.154522 20.3811232,117.088522 C18.9531232,115.795522 16.8251232,117.911522 18.2601232,119.211522 C18.4221232,119.357522 18.5961232,119.488522 18.7641232,119.627522 C18.7641232,120.291522 18.7401232,120.952522 18.6651232,121.606522 C18.4881232,121.775522 18.3421232,121.998522 18.2611232,122.294522 C17.7681232,124.085522 17.2761232,125.874522 16.7831232,127.664522 C16.5691232,128.441522 17.0161232,129.091522 17.6231232,129.387522 C17.5891232,129.446522 17.5591232,129.507522 17.5231232,129.565522 C17.3211232,129.892522 17.1251232,130.182522 16.9281232,130.461522 C16.7891232,130.571522 16.6741232,130.710522 16.6011232,130.880522 C16.5881232,130.911522 16.5671232,130.938522 16.5531232,130.968522 C16.3501232,131.232522 16.1401232,131.493522 15.9051232,131.762522 C15.5201232,132.204522 15.3811232,132.790522 15.5701232,133.317522 C15.3491232,133.964522 15.6111232,134.780522 16.2301232,135.108522 C16.2411232,135.113522 16.2501232,135.116522 16.2611232,135.121522 C16.2081232,135.567522 16.3691232,136.022522 16.6501232,136.363522 C14.8191232,142.168522 13.3461232,148.216522 13.2221232,154.314522 C12.7891232,154.452522 12.4251232,154.769522 12.3141232,155.293522 C11.6141232,158.570522 10.9141232,161.847522 10.2131232,165.126522 C10.0781232,165.760522 10.2791232,166.254522 10.6291232,166.572522 L9.62812325,170.753522 C9.52312325,171.191522 9.58312325,171.557522 9.74112325,171.848522 C9.68012325,172.037522 9.62012325,172.226522 9.55912325,172.415522 C9.43412325,172.569522 9.33012325,172.742522 9.26612325,172.944522 C9.24512325,173.011522 9.23612325,173.083522 9.21612325,173.151522 C8.74812325,174.134522 8.45212325,175.181522 8.31312325,176.289522 C8.31012325,176.300522 8.30612325,176.311522 8.30312325,176.322522 L8.30812325,176.322522 C8.29112325,176.457522 8.26112325,176.585522 8.24912325,176.720522 C8.19012325,177.378522 8.52412325,177.810522 8.98712325,178.017522 C9.43212325,179.136522 10.2721232,180.109522 11.3371232,180.644522 C11.5771232,180.765522 11.8301232,180.807522 12.0791232,180.811522 C12.7101232,181.566522 13.4581232,182.175522 14.3161232,182.662522 C14.5671232,182.804522 14.8231232,182.858522 15.0711232,182.849522 C15.8731232,183.183522 16.7381232,183.354522 17.6641232,183.334522 C17.8361232,183.330522 17.9941232,183.293522 18.1431232,183.240522 C19.7861232,183.967522 21.4281232,184.695522 23.0701232,185.422522 C23.7421232,185.720522 24.5181232,185.649522 24.9861232,185.072522 C25.7941232,185.720522 26.6501232,186.315522 27.5651232,186.832522 C27.8871232,187.013522 28.2031232,187.063522 28.4911232,187.022522 C28.5491232,187.051522 28.6061232,187.082522 28.6681232,187.105522 C32.0461232,188.372522 35.5891232,189.116522 39.1861232,189.382522 C39.2451232,189.386522 39.3011232,189.378522 39.3581232,189.374522 C39.6271232,189.453522 39.9151232,189.490522 40.2131232,189.445522 C43.6681232,188.922522 47.1361232,190.431522 50.5601232,189.268522 C53.4851232,188.275522 55.7661232,185.903522 56.6461232,182.943522 C56.7251232,182.676522 56.7271232,182.435522 56.6811232,182.217522 C58.3471232,181.961522 58.2681232,179.243522 56.4251232,179.243522 C55.3041232,179.243522 54.8381232,180.253522 55.0191232,181.101522 C54.4721232,181.147522 53.9551232,181.467522 53.7531232,182.145522 C53.0811232,184.405522 51.1951232,186.132522 48.8881232,186.613522 C47.4121232,186.920522 45.8371232,186.703522 44.3541232,186.553522 C42.7991232,186.396522 41.2951232,186.324522 39.7491232,186.517522 C39.5741232,186.444522 39.3841232,186.397522 39.1861232,186.382522 C35.8971232,186.139522 32.6111232,185.391522 29.4651232,184.212522 C29.2921232,184.147522 29.1131232,184.133522 28.9361232,184.152522 C22.0911232,180.200522 19.2401232,172.032522 17.4621232,164.762522 C16.3131232,160.062522 15.9451232,155.344522 16.4671232,150.529522 C16.9961232,145.665522 18.3291232,140.909522 19.8271232,136.265522 C19.8761232,136.111522 19.8941232,135.966522 19.8981232,135.827522 C23.1311232,134.119522 26.7051232,133.253522 30.2841232,132.498522 C34.7381232,131.556522 39.2011232,130.642522 43.6871232,129.869522 C52.8081232,128.295522 62.1901232,127.387522 71.3971232,128.771522 C71.8501232,128.838522 72.2391232,128.721522 72.5451232,128.504522 C78.5451232,129.283522 84.5691232,129.118522 90.5891232,128.567522 C93.5451232,128.297522 96.5091232,128.003522 99.4511232,127.602522 C102.036123,127.250522 104.485123,126.579522 106.473123,124.811522 C107.919123,123.526522 105.791123,121.411522 104.352123,122.690522" id="Fill-11" fill="#3B2314"></path>
                <path d="M107.649923,182.987422 C107.588923,182.801422 107.485923,182.640422 107.338923,182.505422 C107.238923,182.426422 107.136923,182.348422 107.036923,182.270422 C106.801923,182.134422 106.549923,182.066422 106.278923,182.065422 C106.145923,182.083422 106.012923,182.100422 105.879923,182.119422 C105.626923,182.190422 105.405923,182.318422 105.217923,182.505422 L105.030923,182.692422 L104.711923,182.692422 C104.503923,182.684422 104.311923,182.727422 104.132923,182.821422 C103.947923,182.882422 103.786923,182.985422 103.650923,183.132422 C103.508923,183.262422 103.410923,183.418422 103.348923,183.595422 C103.113923,183.269422 102.728923,183.053422 102.184923,183.091422 C96.2569232,183.499422 90.3349232,183.859422 84.4099232,183.861422 C84.2179232,183.749422 84.0259232,183.636422 83.8339232,183.524422 C83.2219232,183.166422 82.6319232,183.290422 82.2119232,183.635422 C78.4649232,183.112422 74.6269232,182.135422 71.7239232,179.637422 C70.1979232,178.324422 69.0809232,176.706422 68.4299232,174.796422 C68.3449232,174.548422 68.2839232,174.292422 68.2109232,174.041422 C68.2399232,173.601422 68.1349232,173.191422 67.8909232,172.870422 C67.7869232,172.426422 67.6859232,171.982422 67.5979232,171.535422 C67.3839232,170.440422 67.1079232,169.307422 67.1389232,168.187422 C67.1929232,166.256422 64.1929232,166.258422 64.1389232,168.187422 C64.1029232,169.466422 64.4089232,170.764422 64.6449232,172.016422 C64.7949232,172.807422 64.9769232,173.593422 65.1849232,174.372422 C65.1209232,174.852422 65.0549232,175.333422 64.9909232,175.814422 C64.5619232,176.030422 64.2279232,176.453422 64.1839232,177.092422 C64.0789232,178.613422 64.1459232,180.118422 64.3789232,181.625422 C64.5669232,182.836422 64.7849232,184.337422 66.0909232,184.839422 C66.4439232,184.973422 66.8119232,185.002422 67.1709232,184.958422 C67.2029232,185.005422 67.2239232,185.055422 67.2569232,185.101422 C67.8779232,185.981422 69.1979232,185.996422 69.7719232,185.241422 C70.6169232,185.606422 71.4849232,185.879422 72.3749232,186.069422 C72.5829232,186.214422 72.8329232,186.318422 73.1339232,186.347422 C76.8279232,186.714422 80.5179232,186.858422 84.2079232,186.863422 C84.2339232,186.862422 84.2609232,186.864422 84.2859232,186.862422 C90.2519232,186.866422 96.2149232,186.502422 102.184923,186.091422 C102.886923,186.043422 103.331923,185.608422 103.520923,185.085422 C103.562923,185.141422 103.598923,185.201422 103.650923,185.253422 L103.954923,185.487422 C104.187923,185.623422 104.440923,185.691422 104.711923,185.692422 L105.337923,185.692422 C105.545923,185.700422 105.737923,185.657422 105.916923,185.563422 C106.061923,185.515422 106.187923,185.433422 106.302923,185.333422 C106.323923,185.331422 106.343923,185.328422 106.364923,185.325422 C106.618923,185.254422 106.838923,185.125422 107.025923,184.939422 L107.338923,184.626422 C107.485923,184.490422 107.588923,184.329422 107.649923,184.143422 C107.743923,183.965422 107.786923,183.771422 107.778923,183.565422 C107.786923,183.358422 107.743923,183.166422 107.649923,182.987422" id="Fill-13" fill="#3B2314"></path>
                <path d="M31.0659232,129.809722 C29.4029232,130.019722 27.7779232,130.443722 26.2279232,131.048722 C25.9589232,130.955722 25.6679232,130.939722 25.3919232,131.041722 C20.4499232,132.880722 16.5839232,136.891722 15.0039232,141.936722 C14.7839232,142.642722 15.2079232,143.438722 15.8739232,143.705722 C16.4949232,143.955722 17.4489232,143.788722 17.7469232,143.092722 C20.0519232,137.697722 25.1829232,133.553722 31.0659232,132.809722 C31.8699232,132.707722 32.5659232,132.193722 32.5659232,131.309722 C32.5659232,130.578722 31.8759232,129.706722 31.0659232,129.809722" id="Fill-15" fill="#3B2314"></path>
                <path d="M126.311123,34.134922 C126.304123,34.122922 126.295123,34.114922 126.290123,34.102922 C124.957123,31.687922 123.587123,29.297922 122.129123,26.954922 C121.243123,25.529922 120.443123,22.990922 119.021123,22.026922 C118.379123,21.590922 118.003123,21.029922 117.820123,20.430922 C117.099123,19.815922 116.221123,19.374922 115.304123,19.165922 C113.167123,17.211922 111.121123,15.157922 109.161123,13.022922 C107.244123,10.933922 104.805123,11.133922 103.044123,12.414922 C100.100123,9.82492198 96.6101232,7.84192198 92.6181232,6.61592198 C92.1611232,6.47592198 91.7251232,6.40592198 91.3091232,6.38492198 C90.5401232,5.95592198 89.7721232,5.52592198 89.0031232,5.09592198 C87.4021232,4.19992198 85.8471232,4.26292198 84.5731232,4.87892198 C82.2981232,3.47992198 79.8541232,2.30492198 77.2181232,1.36592198 C75.5321232,0.765921983 74.1131232,1.07892198 73.0711232,1.88792198 C71.1961232,2.73492198 70.2891232,4.70892198 70.3511232,6.64892198 C70.3421232,6.69192198 70.3281232,6.73192198 70.3191232,6.77592198 L70.3041232,6.77892198 L70.3441232,6.48292198 C70.3281232,6.58592198 70.3001232,6.68392198 70.2781232,6.78392198 C70.1651232,6.80992198 70.0551232,6.83792198 69.9391232,6.85592198 L70.1851232,6.82292198 C69.3851232,6.97492198 68.6561232,7.24492198 67.9981232,7.74292198 C67.7061232,7.69692198 67.4151232,7.65092198 67.1231232,7.60392198 C66.4391232,7.49392198 65.8001232,7.51792198 65.2081232,7.63492198 C64.2881232,7.31392198 63.2801232,7.31492198 62.3381232,7.57492198 C61.7111232,6.89992198 61.0821232,6.22892198 60.4681232,5.53392198 C60.1061232,5.12392198 59.7271232,4.78192198 59.3391232,4.49892198 C58.2971232,3.40892198 56.7991232,2.69692198 54.8391232,2.69692198 C54.5661232,2.69692198 54.3121232,2.72492198 54.0561232,2.75192198 C53.2321232,2.29992198 52.2551232,2.01392198 51.1241232,1.95892198 C38.6341232,1.35592198 27.4161232,7.35692198 20.3961232,17.013922 C19.9171232,17.278922 19.4581232,17.591922 19.0351232,17.963922 C16.4751232,20.207922 14.2921232,22.830922 12.5161232,25.704922 C11.1581232,26.421922 10.0721232,27.638922 9.33612325,29.206922 C9.30912325,29.259922 9.26412325,29.345922 9.18612325,29.493922 C9.03712325,29.779922 8.89612325,30.068922 8.73912325,30.349922 C8.58212325,30.629922 8.41612325,30.906922 8.24512325,31.178922 C8.21112325,31.230922 8.11212325,31.384922 8.00812325,31.544922 C7.90112325,31.687922 7.73012325,31.919922 7.67212325,31.986922 C7.46012325,32.228922 7.24212325,32.464922 7.01712325,32.695922 C6.70612325,33.014922 5.06712325,34.407922 6.34012325,33.428922 C5.23712325,34.277922 4.33212325,35.094922 3.75412325,36.267922 C3.65412325,36.354922 3.55012325,36.437922 3.45712325,36.531922 C2.78812325,37.199922 2.31212325,37.951922 2.00812325,38.745922 C1.97212325,38.780922 1.93412325,38.810922 1.89812325,38.846922 C-0.368876753,41.112922 -0.862876753,45.839922 1.89812325,48.038922 L4.12712325,49.814922 C4.39512325,50.715922 4.88212325,51.607922 5.65112325,52.441922 C7.46312325,54.408922 9.43012325,56.235922 11.5101232,57.921922 C11.8301232,59.931922 12.9721232,61.783922 14.9411232,62.678922 C16.0411232,64.646922 18.1901232,66.035922 20.4401232,66.122922 C21.4201232,67.046922 22.4001232,67.969922 23.3801232,68.892922 C23.4521232,68.959922 23.5311232,69.018922 23.6061232,69.081922 C23.5491232,69.871922 23.4831232,70.660922 23.4191232,71.449922 C22.4401232,72.659922 22.1001232,74.345922 22.4011232,75.886922 C22.0551232,77.144922 21.7481232,78.410922 21.4701232,79.682922 C19.1561232,80.848922 18.4131232,83.784922 19.2461232,86.087922 C18.3201232,87.756922 17.6761232,89.592922 17.3141232,91.569922 C17.1391232,91.904922 16.9621232,92.241922 16.7901232,92.569922 C15.7291232,94.582922 15.7101232,97.125922 16.7711232,99.095922 C15.9901232,99.795922 15.5111232,100.754922 15.2981232,101.778922 C14.1871232,102.559922 13.5601232,103.804922 13.3721232,105.124922 C11.0061232,107.863922 12.0981232,113.275922 16.6381232,113.544922 C17.2521232,115.188922 18.6791232,116.483922 20.9141232,116.559922 C21.7171232,117.470922 22.9101232,118.075922 24.4931232,118.075922 C24.6761232,118.075922 24.8441232,118.053922 25.0171232,118.037922 C25.6741232,118.631922 26.5501232,119.021922 27.6161232,119.139922 C28.3801232,119.842922 29.4291232,120.290922 30.7531232,120.318922 C31.5481232,121.432922 32.8381232,122.204922 34.6281232,122.204922 C35.3311232,122.204922 35.9461232,122.074922 36.4941232,121.863922 C37.2031232,122.310922 38.0811232,122.580922 39.1341232,122.580922 C39.5951232,122.580922 40.0151232,122.517922 40.4111232,122.421922 C41.0091232,122.747922 41.7071232,122.965922 42.5051232,123.035922 C46.5701232,123.389922 50.6371232,123.674922 54.7081232,123.926922 C70.5111232,126.164922 86.3071232,125.878922 102.079123,123.030922 C102.902123,122.882922 103.563123,122.582922 104.092123,122.187922 C104.212123,122.195922 104.331123,122.204922 104.456123,122.204922 C106.849123,122.204922 108.339123,120.816922 108.954123,119.077922 C111.032123,118.048922 111.855123,115.598922 111.421123,113.441922 C114.613123,105.748922 112.801123,95.387922 111.431123,86.830922 C111.835123,85.934922 111.982123,84.913922 111.876123,83.925922 C111.999123,82.542922 111.635123,81.109922 110.761123,80.049922 C110.730123,79.538922 110.643123,79.032922 110.476123,78.553922 C110.483123,75.664922 110.645123,72.776922 110.935123,69.901922 C111.100123,68.257922 110.560123,67.041922 109.660123,66.246922 C109.643123,63.562922 109.727123,60.883922 110.005123,58.218922 C110.192123,56.431922 109.543123,55.148922 108.499123,54.364922 C108.478123,53.805922 108.456123,53.245922 108.434123,52.687922 C109.129123,53.361922 110.039123,53.890922 111.192123,54.246922 C111.358123,54.609922 111.582123,54.937922 111.869123,55.218922 C111.919123,55.269922 111.971123,55.319922 112.027123,55.366922 C112.101123,55.430922 112.176123,55.492922 112.258123,55.549922 C112.391123,55.643922 112.532123,55.729922 112.684123,55.802922 C112.734123,55.825922 112.789123,55.845922 112.840123,55.866922 C112.994123,55.931922 113.157123,55.983922 113.328123,56.024922 C113.389123,56.039922 113.451123,56.053922 113.514123,56.064922 C113.736123,56.105922 113.966123,56.134922 114.216123,56.134922 C114.472123,56.134922 114.708123,56.105922 114.935123,56.063922 C114.974123,56.055922 115.014123,56.049922 115.052123,56.041922 C115.263123,55.994922 115.461123,55.929922 115.646123,55.849922 C115.683123,55.832922 115.719123,55.815922 115.755123,55.797922 C115.936123,55.710922 116.108123,55.612922 116.261123,55.496922 C116.281123,55.482922 116.297123,55.464922 116.317123,55.449922 C116.450123,55.344922 116.571123,55.228922 116.683123,55.105922 C116.716123,55.068922 116.751123,55.032922 116.783123,54.994922 C116.887123,54.867922 116.980123,54.733922 117.064123,54.591922 C117.103123,54.527922 117.138123,54.461922 117.173123,54.394922 C117.225123,54.291922 117.271123,54.187922 117.314123,54.079922 C117.364123,53.954922 117.405123,53.827922 117.441123,53.696922 C117.457123,53.637922 117.473123,53.576922 117.487123,53.516922 C117.623123,52.911922 117.617123,52.277922 117.468123,51.675922 C119.601123,48.741922 121.221123,45.228922 122.985123,42.129922 C124.421123,39.605922 125.916123,36.989922 126.311123,34.134922" id="Fill-17" fill="#27A9E0"></path>
                <path d="M49.8677232,119.975722 C47.1127232,118.288722 44.4477232,116.458722 41.8877232,114.489722 C41.7627232,114.099722 41.5137232,113.733722 41.1047232,113.444722 C30.0097232,105.605722 27.7417232,90.829722 29.7417232,78.267722 C29.8407232,77.649722 29.7247232,77.030722 29.3987232,76.553722 C32.3447232,61.994722 35.8117232,47.541722 39.8017232,33.231722 C40.4937232,30.747722 36.6357232,29.688722 35.9437232,32.167722 C34.7197232,36.560722 33.5697232,40.972722 32.4517232,45.392722 C32.1877232,45.420722 31.9307232,45.499722 31.7047232,45.646722 C31.5697232,45.749722 31.4347232,45.854722 31.3007232,45.958722 C31.0527232,46.207722 30.8817232,46.502722 30.7857232,46.841722 C30.6527232,47.715722 30.5197232,48.590722 30.3877232,49.465722 C30.3347232,49.632722 30.3207232,49.799722 30.3247232,49.966722 C30.1907232,50.149722 30.0787232,50.350722 30.0237232,50.590722 C29.6197232,52.376722 29.1187232,54.138722 28.5127232,55.867722 C28.2157232,56.715722 27.8927232,57.555722 27.5467232,58.384722 C27.5047232,58.482722 27.4237232,58.669722 27.4217232,58.674722 C27.3167232,58.913722 27.2107232,59.153722 27.1007232,59.390722 C26.9107232,59.807722 26.7137232,60.219722 26.5127232,60.630722 C26.3717232,60.916722 26.2987232,61.233722 26.2817232,61.550722 C25.9257232,61.805722 25.6477232,62.164722 25.5467232,62.609722 C24.9987232,65.002722 24.4507232,67.395722 23.9027232,69.788722 C23.7677232,69.980722 23.6517232,70.197722 23.5857232,70.472722 L20.2897232,84.136722 C20.2607232,84.233722 20.2307232,84.329722 20.2027232,84.426722 C19.6497232,85.923722 19.1807232,87.448722 18.8257232,89.014722 C18.7987232,89.134722 18.7807232,89.250722 18.7727232,89.364722 C18.3537232,90.645722 17.9347232,91.926722 17.5147232,93.207722 C17.3507232,93.711722 17.4417232,94.190722 17.6697232,94.606722 L13.6047232,105.258722 C13.4617232,105.635722 13.4847232,106.037722 13.6207232,106.406722 C12.1987232,106.563722 11.1717232,108.256722 12.3907232,109.726722 C14.7257232,112.540722 17.4937232,114.936722 20.5767232,116.900722 C21.1267232,117.249722 21.6627232,117.287722 22.1247232,117.128722 C22.9917232,117.651722 23.9307232,118.116722 24.8677232,118.160722 C26.0537232,118.770722 27.2627232,119.340722 28.5087232,119.844722 C34.9297232,122.444722 42.0527232,122.828722 48.8577232,123.703722 C50.9417232,123.970722 51.4117232,120.921722 49.8677232,119.975722" id="Fill-19" fill="#1C75BB"></path>
                <path d="M113.427323,94.669022 C113.364323,93.986022 113.037323,93.367022 112.515323,93.004022 C112.546323,90.009022 112.420323,87.032022 112.219323,84.159022 C112.157323,83.272022 111.630323,82.697022 110.980323,82.425022 C111.336323,79.497022 111.693323,76.570022 112.049323,73.643022 C112.180323,72.568022 111.036323,71.643022 110.049323,71.643022 C108.860323,71.643022 108.180323,72.565022 108.049323,73.643022 C107.432323,78.710022 106.816323,83.777022 106.198323,88.845022 C105.621323,93.594022 105.167323,98.383022 104.191323,103.071022 C102.602323,110.696022 98.9273232,119.176022 91.0443232,122.059022 C88.6463232,122.936022 89.6823232,126.803022 92.1083232,125.916022 C93.2473232,125.499022 94.3003232,125.003022 95.2893232,124.451022 C95.7123232,124.793022 96.2953232,124.944022 96.9923232,124.738022 C102.717323,123.050022 108.546323,120.834022 111.215323,115.042022 C112.538323,112.171022 113.062323,109.073022 113.385323,105.951022 C113.775323,102.198022 113.774323,98.424022 113.427323,94.669022" id="Fill-21" fill="#1C75BB"></path>
                <path d="M30.3237232,8.68762198 C29.4867232,7.85062198 28.3447232,8.01362198 27.4947232,8.68762198 C20.6647232,14.101622 14.7237232,20.583622 9.89072325,27.835622 C9.34972325,28.648622 8.80372325,29.483622 8.26472325,30.331622 C7.98472325,30.418622 7.72572325,30.571622 7.52672325,30.817622 C5.57972325,33.217622 3.83972325,35.763622 2.34772325,38.458622 C2.13272325,38.674622 1.95872325,38.955622 1.85572325,39.319622 C1.84072325,39.376622 1.82972325,39.436622 1.81472325,39.494622 C1.53472325,40.031622 1.24372325,40.561622 0.982723247,41.109622 C0.921723247,41.240622 0.873723247,41.377622 0.835723247,41.517622 C0.588723247,41.752622 0.388723247,42.049622 0.265723247,42.407622 C-0.505276753,44.637622 0.470723247,47.083622 2.29972325,48.416622 C3.11672325,49.692622 3.93372325,50.969622 4.75172325,52.246622 C5.04572325,52.705622 5.45172325,52.981622 5.88672325,53.109622 C6.15472325,53.466622 6.42972325,53.813622 6.73172325,54.115622 C6.79372325,54.176622 6.86872325,54.215622 6.93572325,54.267622 C7.45172325,55.165622 7.96772325,56.061622 8.48172325,56.958622 C9.01972325,57.893622 10.2917232,58.217622 11.2187232,57.675622 C12.2287232,57.083622 12.3857232,55.925622 11.9357232,54.939622 C10.8797232,52.614622 9.90672325,50.253622 9.01972325,47.858622 C8.26572325,45.821622 7.04672325,43.349622 7.58972325,41.135622 C7.63472325,40.951622 7.64872325,40.778622 7.64772325,40.610622 C7.76272325,40.156622 7.90472325,39.702622 8.07472325,39.249622 C9.46272325,35.549622 11.8257232,32.041622 14.0567232,28.803622 C18.5677232,22.258622 24.0977232,16.450622 30.3237232,11.515622 C31.1707232,10.843622 31.0247232,9.38862198 30.3237232,8.68762198" id="Fill-23" fill="#1C75BB"></path>
                <path d="M122.129423,26.955222 C121.242423,25.529222 120.442423,22.991222 119.021423,22.026222 C118.307423,21.542222 117.921423,20.901222 117.768423,20.227222 C109.447423,13.563222 99.7914232,8.57222198 89.5304232,5.66222198 C89.5254232,5.65322198 89.5244232,5.64322198 89.5184232,5.63622198 C89.2164232,5.16722198 88.8314232,4.93022198 88.3224232,4.71622198 C85.6544232,3.60022198 82.9864232,2.48222198 80.3184232,1.36622198 C80.1034232,1.27622198 79.8274232,1.26922198 79.5554232,1.30922198 C77.7744232,0.463221983 75.8274232,-0.0117780167 73.8504232,-2.55795385e-13 C72.8044232,0.00622198332 71.8014232,0.915221983 71.8504232,2.00022198 C71.8684232,2.40122198 71.9954232,2.78222198 72.2044232,3.10122198 C70.8434232,3.96622198 71.2204232,6.69522198 73.3234232,6.84322198 C87.5664232,7.84022198 101.376423,13.037222 112.879423,21.470222 C116.121423,23.846222 119.142423,26.517222 121.952423,29.388222 C122.553423,30.000222 123.263423,30.090222 123.881423,29.877222 C123.308423,28.897222 122.730423,27.920222 122.129423,26.955222" id="Fill-25" fill="#1C75BB"></path>
                <path d="M135.631423,51.893722 C135.569423,51.787722 135.498423,51.684722 135.436423,51.578722 C135.592423,50.581722 135.235423,49.564722 134.279423,49.005722 C134.079423,48.888722 133.855423,48.814722 133.622423,48.761722 C133.484423,48.561722 133.329423,48.372722 133.189423,48.174722 C133.287423,47.910722 133.331423,47.626722 133.292423,47.330722 C133.263423,47.107722 133.214423,46.889722 133.178423,46.668722 C133.187423,46.667722 133.194423,46.665722 133.203423,46.664722 C133.186423,46.621722 133.172423,46.576722 133.154423,46.531722 C132.834423,44.623722 132.276423,42.789722 131.474423,41.071722 C129.683423,34.129722 128.370423,26.745722 121.545423,23.006722 C118.721423,21.459722 116.195423,25.776722 119.022423,27.324722 C121.144423,28.486722 122.615423,30.360722 123.678423,32.470722 C123.573423,32.486722 123.470423,32.495722 123.361423,32.524722 C122.260423,32.827722 121.237423,34.170722 121.556423,35.371722 C121.207423,35.322722 120.844423,35.317722 120.451423,35.417722 C119.411423,35.685722 118.627423,36.515722 118.319423,37.527722 C118.058423,38.390722 118.223423,39.143722 118.341423,40.009722 C118.729423,42.851722 118.504423,45.747722 117.744423,48.523722 C117.033423,48.646722 116.354423,49.038722 115.930423,49.680722 C115.421423,50.455722 115.011423,51.296722 114.709423,52.175722 C114.182423,51.431722 113.339423,50.997722 112.352423,51.129722 C111.214423,51.283722 110.077423,52.343722 110.185423,53.584722 L110.830423,61.033722 C110.335423,61.616722 110.103423,62.380722 110.335423,63.227722 C110.664423,64.424722 112.147423,65.468722 113.410423,64.973722 C117.494423,63.372722 121.502423,61.576722 125.388423,59.539722 C127.235423,58.572722 129.057423,57.554722 130.846423,56.485722 C131.398423,56.156722 131.948423,55.805722 132.476423,55.424722 C133.196423,55.742722 134.054423,55.751722 134.734423,55.314722 C135.874423,54.578722 136.333423,53.103722 135.631423,51.893722" id="Fill-27" fill="#27A9E0"></path>
                <path d="M136.668523,52.558722 C134.827523,46.502722 133.034523,40.430722 131.141523,34.391722 C130.292523,31.682722 129.219523,29.128722 127.355523,26.954722 C125.548523,24.847722 123.152523,23.290722 120.845523,21.789722 C118.141523,20.029722 115.632523,24.356722 118.321523,26.107722 C120.284523,27.384722 122.302523,28.672722 123.819523,30.490722 C125.362523,32.337722 126.015523,34.708722 126.702523,36.966722 C128.418523,42.606722 130.132523,48.246722 131.847523,53.887722 C132.780523,56.956722 137.608523,55.648722 136.668523,52.558722" id="Fill-29" fill="#1C75BB"></path>
                <path d="M125.424323,57.397622 C122.524323,58.631622 119.299323,59.089622 116.168323,58.731622 C114.792323,58.574622 113.538323,58.283622 112.668323,57.134622 C111.888323,56.104622 111.498323,54.818622 111.128323,53.599622 C110.755323,52.372622 108.823323,52.895622 109.199323,54.131622 C109.216323,54.186622 109.235323,54.242622 109.252323,54.296622 C109.196323,54.287622 109.145323,54.277622 109.088323,54.277622 C108.959323,51.763622 108.967323,49.248622 109.295323,46.727622 C109.461323,45.455622 107.459323,45.466622 107.295323,46.727622 C106.126323,55.709622 108.957323,64.634622 107.960323,73.621622 C107.818323,74.898622 109.820323,74.888622 109.960323,73.621622 C110.410323,69.561622 110.079323,65.514622 109.690323,61.469622 L109.766323,61.668622 C109.837323,61.856622 109.950323,61.989622 110.077323,62.097622 C110.108323,62.194622 110.135323,62.291622 110.165323,62.386622 C110.175323,62.420622 110.197323,62.439622 110.210323,62.470622 C109.945323,62.905622 109.940323,63.462622 110.188323,63.915622 C110.217323,63.967622 110.261323,64.005622 110.296323,64.052622 C110.808323,65.335622 112.382323,65.375622 113.527323,64.909622 C113.767323,64.811622 114.000323,64.696622 114.232323,64.576622 C114.269323,64.558622 114.305323,64.542622 114.342323,64.524622 C115.308323,64.297622 116.262323,63.895622 117.180323,63.548622 C118.236323,63.150622 119.280323,62.720622 120.314323,62.265622 C122.414323,61.339622 124.454323,60.287622 126.434323,59.125622 C127.576323,58.454622 126.574323,56.908622 125.424323,57.397622" id="Fill-31" fill="#1C75BB"></path>
                <path d="M21.5855232,64.946422 C17.7595232,62.308422 14.3295232,59.133422 11.4055232,55.519422 C11.0645232,55.099422 10.3455232,55.166422 9.99052325,55.519422 C9.95052325,55.559422 9.93552325,55.607422 9.90352325,55.651422 C7.59252325,52.538422 4.89952325,49.734422 2.49952325,46.691422 C2.16452325,46.267422 1.43552325,46.342422 1.08552325,46.691422 C0.666523247,47.110422 0.749523247,47.680422 1.08552325,48.105422 C1.69752325,48.882422 2.33252325,49.638422 2.97552325,50.390422 C2.45252325,50.674422 2.12952325,51.422422 2.65052325,52.005422 C5.31452325,54.987422 8.32752325,57.634422 11.5845232,59.951422 C11.5635232,60.199422 11.6465232,60.460422 11.8885232,60.685422 C13.3845232,62.084422 14.8985232,63.474422 16.5845232,64.642422 C17.3935232,65.203422 18.2435232,65.705422 19.1425232,66.106422 C19.6015232,66.311422 20.0665232,66.489422 20.5385232,66.660422 C20.5435232,66.661422 20.5465232,66.663422 20.5505232,66.664422 C20.7125232,66.775422 20.8675232,66.895422 21.0295232,67.005422 C21.0735232,67.034422 21.1175232,67.053422 21.1615232,67.075422 C21.2935232,67.494422 21.6025232,67.824422 22.0945232,67.824422 C22.5825232,67.824422 23.1625232,67.363422 23.0945232,66.824422 C22.9725232,65.851422 22.3775232,65.316422 21.5855232,64.946422" id="Fill-33" fill="#1C75BB"></path>
                <path d="M21.2056232,68.887822 C17.7676232,67.083822 14.8096232,64.587822 11.8776232,62.075822 C10.3596232,60.775822 8.84262325,59.474822 7.32462325,58.173822 C5.99962325,57.037822 4.47962325,55.874822 3.96662325,54.131822 C3.60262325,52.899822 1.67262325,53.423822 2.03762325,54.662822 C2.10162325,54.881822 2.17862325,55.092822 2.26362325,55.297822 C2.04062325,55.480822 1.88262325,55.740822 1.90162325,56.039822 L2.20062325,60.788822 C2.19462325,61.950822 2.25462325,63.109822 2.34662325,64.269822 C2.26562325,64.408822 2.20762325,64.568822 2.21162325,64.771822 C2.26862325,67.384822 2.68662325,69.954822 3.44162325,72.431822 C3.64862325,74.382822 4.05662325,76.301822 4.74962325,78.163822 C5.02562325,79.216822 5.36562325,80.252822 5.76162325,81.267822 C6.15362325,82.437822 6.60962325,83.583822 7.11262325,84.708822 C6.91762325,84.952822 6.82762325,85.276822 6.89862325,85.601822 C7.55462325,88.577822 8.75462325,91.436822 10.4196232,93.989822 C10.5366232,94.169822 10.7076232,94.292822 10.8936232,94.375822 L12.5346232,97.645822 C12.5436232,98.079822 12.5596232,98.513822 12.5846232,98.947822 C12.6606232,100.226822 14.6606232,100.235822 14.5846232,98.947822 C14.5806232,98.875822 14.5846232,98.804822 14.5806232,98.732822 C14.8406232,98.449822 14.8976232,98.052822 14.7686232,97.687822 C14.9616232,97.652822 15.1456232,97.570822 15.2676232,97.420822 C15.2866232,97.397822 15.3056232,97.374822 15.3236232,97.351822 C15.6496232,96.949822 15.7166232,96.397822 15.3586232,95.991822 C15.3626232,95.898822 15.3346232,95.745822 15.3406232,95.644822 C15.3576232,95.367822 15.3776232,95.091822 15.3966232,94.815822 C15.4326232,94.341822 15.4706232,93.868822 15.5136232,93.395822 C15.5336232,93.165822 15.5646232,92.938822 15.5876232,92.708822 C15.6616232,92.613822 15.7216232,92.502822 15.7496232,92.374822 C15.8446232,91.954822 15.9376232,91.534822 16.0326232,91.114822 C16.0336232,91.108822 16.0316232,91.102822 16.0336232,91.096822 C16.2826232,89.971822 16.5326232,88.845822 16.7816232,87.720822 C17.0406232,87.619822 17.2586232,87.424822 17.3336232,87.095822 C17.5176232,86.283822 17.6576232,85.463822 17.7686232,84.641822 C17.8586232,84.504822 17.9286232,84.347822 17.9436232,84.151822 C18.0156232,83.238822 18.1236232,82.329822 18.2536232,81.425822 C18.5486232,81.278822 18.7916232,81.015822 18.8376232,80.609822 C18.8716232,80.309822 18.9236232,80.013822 18.9656232,79.714822 C19.0926232,79.592822 19.2026232,79.449822 19.2666232,79.271822 C20.2266232,76.582822 20.9576232,73.820822 21.4526232,71.008822 C21.4896232,70.797822 21.4606232,70.591822 21.3946232,70.402822 C21.7986232,69.972822 21.8746232,69.239822 21.2056232,68.887822" id="Fill-35" fill="#E4C3A2"></path>
                <path d="M20.1724232,67.676922 C18.8064232,66.758922 17.3364232,65.834922 15.7834232,65.225922 C15.7374232,65.086922 15.6654232,64.953922 15.5294232,64.846922 C11.9144232,61.997922 8.50842325,58.894922 5.33442325,55.560922 C5.06742325,55.279922 4.64942325,55.215922 4.29442325,55.337922 C4.14842325,54.939922 4.03542325,54.530922 3.99842325,54.097922 C3.89042325,52.823922 1.88942325,52.812922 1.99842325,54.097922 C2.08442325,55.108922 2.40142325,56.024922 2.84442325,56.878922 C2.83042325,56.927922 2.81942325,56.978922 2.80842325,57.027922 C2.63042325,57.188922 2.50342325,57.413922 2.49142325,57.718922 C2.45642325,58.584922 2.43442325,59.451922 2.41342325,60.319922 C2.14842325,62.244922 2.02742325,64.187922 2.08342325,66.133922 C2.09342325,66.457922 2.21642325,66.698922 2.39742325,66.859922 C2.41742325,67.921922 2.44842325,68.984922 2.49042325,70.046922 C2.48142325,70.065922 2.46842325,70.079922 2.45842325,70.099922 C2.16042325,70.716922 2.32042325,71.523922 2.34142325,72.182922 C2.36742325,73.078922 2.39542325,73.974922 2.42242325,74.870922 C2.45242325,75.872922 3.50842325,76.070922 4.07542325,75.556922 C3.73042325,81.266922 6.07642325,86.918922 8.31642325,92.117922 C8.82342325,93.296922 10.5474232,92.279922 10.0424232,91.108922 C7.70842325,85.687922 5.17342325,79.745922 6.31842325,73.715922 C6.79142325,71.220922 7.99142325,67.970922 10.5154232,66.894922 C11.0224232,66.678922 11.5314232,66.564922 12.0414232,66.523922 C12.7194232,66.816922 13.3964232,67.108922 14.0734232,67.400922 C14.2604232,67.480922 14.4654232,67.506922 14.6654232,67.497922 C16.2344232,68.210922 17.8184232,68.887922 19.4014232,69.503922 C20.5114232,69.935922 21.0614232,68.272922 20.1724232,67.676922" id="Fill-37" fill="#C3996B"></path>
                <path d="M13.9429232,98.484522 C13.2599232,97.974522 12.6979232,97.453522 12.2179232,96.839522 C11.3339232,94.984522 10.7829232,92.978522 10.2449232,90.988522 C10.0169232,90.144522 9.06592325,90.129522 8.57792325,90.588522 C7.68792325,89.079522 6.90392325,87.494522 6.72992325,85.742522 C6.69792325,85.417522 6.54192325,85.138522 6.30592325,84.955522 C6.28792325,84.873522 6.28192325,84.793522 6.24092325,84.709522 C4.72192325,81.646522 4.73092325,77.999522 4.45392325,74.663522 C4.43092325,74.393522 4.32392325,74.142522 4.15092325,73.960522 C4.15392325,73.859522 4.16092325,73.759522 4.12992325,73.646522 C2.54292325,67.818522 2.30492325,61.697522 3.47392325,55.767522 C3.72192325,54.510522 1.79592325,53.972522 1.54692325,55.236522 C0.305923247,61.521522 0.516923247,67.994522 2.20192325,74.178522 C2.25392325,74.368522 2.34892325,74.504522 2.46292325,74.614522 C2.46292325,74.630522 2.45292325,74.645522 2.45392325,74.663522 C2.76292325,78.384522 2.82292325,82.305522 4.51292325,85.718522 C4.58592325,85.864522 4.67492325,85.974522 4.77692325,86.054522 C5.12792325,88.737522 6.49092325,91.023522 7.88592325,93.301522 C8.61692325,94.496522 9.25192325,95.713522 9.88192325,96.962522 C10.0789232,97.351522 10.3129232,97.699522 10.5659232,98.025522 C10.8819232,98.656522 11.2329232,99.271522 11.6369232,99.857522 C11.9369232,100.293522 12.4909232,100.488522 12.9739232,100.226522 C13.4109232,100.511522 14.0529232,100.266522 14.3019232,99.852522 C14.6049232,99.345522 14.3739232,98.805522 13.9429232,98.484522" id="Fill-39" fill="#C3996B"></path>
                <path d="M173.179223,31.093922 C172.734223,30.864922 172.154223,30.719922 171.669223,30.905922 C171.466223,30.982922 171.270223,31.072922 171.069223,31.154922 C171.437223,30.885922 171.812223,30.626922 172.174223,30.351922 C172.553223,30.694922 173.046223,30.947922 173.572223,30.923922 C173.603223,30.919922 173.635223,30.914922 173.666223,30.910922 C173.502223,30.966922 173.342223,31.032922 173.179223,31.093922 M201.106223,43.254922 C199.911223,41.877922 198.200223,41.069922 196.519223,40.459922 C195.911223,40.239922 195.292223,40.042922 194.677223,39.840922 C192.679223,38.435922 190.516223,37.327922 188.001223,37.036922 C187.586223,36.989922 187.169223,36.974922 186.753223,36.974922 C186.778223,36.878922 186.808223,36.788922 186.830223,36.690922 C186.857223,36.575922 186.888223,36.464922 186.915223,36.352922 C186.992223,36.362922 187.068223,36.371922 187.143223,36.375922 L187.143223,36.377922 C187.214223,36.374922 187.286223,36.379922 187.359223,36.378922 C187.404223,36.377922 187.451223,36.382922 187.496223,36.378922 C190.142223,36.349922 192.825223,37.066922 195.310223,38.003922 C195.380223,38.174922 195.450223,38.345922 195.534223,38.509922 C196.251223,39.953922 198.201223,39.654922 198.989223,38.509922 C199.663223,37.530922 199.771223,36.455922 199.509223,35.452922 C199.538223,34.917922 199.366223,34.378922 198.945223,33.975922 C198.846223,33.881922 198.736223,33.800922 198.635223,33.709922 C198.077223,32.989922 197.337223,32.392922 196.519223,32.029922 C196.342223,31.949922 196.158223,31.887922 195.976223,31.819922 C193.896223,30.667922 191.540223,30.021922 189.162223,30.033922 C188.783223,29.924922 188.404223,29.821922 188.017223,29.745922 C185.797223,29.313922 183.599223,29.433922 181.359223,29.591922 C179.105223,29.750922 176.800223,30.009922 174.616223,30.622922 C174.747223,30.541922 174.872223,30.449922 174.986223,30.337922 C175.714223,29.398922 176.505223,28.509922 177.355223,27.677922 C177.719223,27.321922 177.941223,26.771922 177.941223,26.263922 C177.943223,26.195922 177.929223,26.129922 177.923223,26.063922 C178.118223,25.923922 178.300223,25.743922 178.457223,25.508922 C178.556223,25.361922 178.645223,25.207922 178.724223,25.050922 C178.927223,24.702922 179.130223,24.354922 179.333223,24.006922 C179.776223,23.247922 179.648223,22.478922 179.236223,21.908922 C179.521223,21.263922 179.757223,20.592922 179.883223,19.874922 C180.195223,18.102922 178.579223,16.843922 176.945223,17.615922 C174.553223,18.745922 172.970223,21.041922 172.571223,23.599922 C171.461223,24.322922 170.206223,24.863922 168.972223,25.250922 C164.946223,26.516922 160.632223,26.900922 156.917223,29.051922 C150.386223,32.833922 147.773223,40.454922 145.717223,47.277922 C144.737223,49.182922 143.731223,51.072922 142.615223,52.889922 C142.499223,52.962922 142.392223,53.046922 142.308223,53.152922 C141.669223,53.948922 141.081223,54.773922 140.615223,55.682922 C140.544223,55.819922 140.487223,55.962922 140.421223,56.102922 C140.180223,56.424922 139.954223,56.757922 139.700223,57.072922 C139.353223,57.500922 139.150223,58.015922 139.140223,58.525922 C137.135223,60.884922 135.130223,63.241922 133.126223,65.600922 C132.673223,66.133922 132.474223,66.824922 132.607223,67.465922 C132.548223,67.569922 132.483223,67.668922 132.427223,67.773922 C132.119223,68.083922 131.806223,68.389922 131.469223,68.668922 C131.452223,68.682922 131.393223,68.728922 131.347223,68.763922 C131.287223,68.806922 131.221223,68.853922 131.202223,68.865922 C130.991223,69.010922 130.772223,69.142922 130.547223,69.266922 C130.164223,69.478922 129.883223,69.839922 129.718223,70.248922 C129.622223,70.238922 129.527223,70.227922 129.428223,70.233922 C129.125223,69.935922 128.824223,69.638922 128.521223,69.339922 C127.934223,68.762922 127.247223,68.660922 126.642223,68.845922 C126.484223,68.456922 126.322223,68.068922 126.153223,67.681922 C125.927223,67.163922 125.404223,66.859922 124.845223,66.755922 C124.826223,66.716922 124.804223,66.681922 124.786223,66.642922 C124.481223,65.851922 124.255223,65.036922 124.141223,64.196922 C124.081223,63.755922 123.600223,63.200922 123.222223,63.000922 C122.886223,62.823922 122.565223,62.762922 122.224223,62.761922 C122.183223,62.748922 122.146223,62.727922 122.104223,62.717922 C121.552223,62.592922 121.074223,62.680922 120.563223,62.919922 C120.146223,63.114922 119.728223,63.310922 119.312223,63.505922 C118.900223,63.698922 118.491223,64.266922 118.392223,64.700922 C118.392223,64.702922 118.392223,64.705922 118.391223,64.707922 C116.991223,65.009922 115.591223,65.311922 114.191223,65.612922 C113.950223,65.547922 113.698223,65.519922 113.432223,65.540922 C112.420223,65.623922 111.336223,66.274922 111.156223,67.362922 C111.035223,68.087922 111.126223,68.763922 111.670223,69.308922 C111.857223,69.493922 112.074223,69.609922 112.299223,69.697922 C112.313223,69.744922 112.317223,69.793922 112.336223,69.840922 C113.843223,73.468922 115.328223,77.261922 117.467223,80.573922 C118.547223,82.244922 119.864223,83.774922 121.419223,84.979922 C121.547223,85.491922 121.880223,85.958922 122.346223,86.295922 C123.257223,86.954922 124.213223,87.591922 125.216223,88.124922 C125.601223,88.604922 126.161223,88.820922 126.729223,88.822922 C127.616223,89.161922 128.542223,89.394922 129.513223,89.452922 C132.275223,89.621922 134.594223,88.083922 136.144223,85.909922 C137.690223,83.741922 138.159223,81.022922 138.941223,78.531922 C138.999223,78.345922 139.070223,78.164922 139.130223,77.980922 C139.458223,77.822922 139.732223,77.573922 139.881223,77.224922 C140.242223,76.380922 140.616223,75.542922 141.011223,74.713922 C141.620223,74.721922 142.222223,74.432922 142.605223,73.719922 C144.075223,70.978922 145.577223,68.253922 147.091223,65.536922 C147.465223,65.490922 147.842223,65.334922 148.190223,65.027922 C149.971223,63.448922 151.562223,61.707922 153.001223,59.814922 C154.433223,57.932922 155.577223,55.818922 157.175223,54.066922 C158.523223,52.587922 160.165223,51.463922 161.810223,50.340922 C162.114223,50.405922 162.435223,50.413922 162.753223,50.341922 C163.603223,50.150922 164.472223,50.144922 165.343223,50.245922 C165.585223,50.694922 165.987223,51.048922 166.525223,51.167922 C167.785223,51.445922 169.031223,51.784922 170.267223,52.157922 C170.462223,52.654922 170.855223,53.080922 171.494223,53.296922 C175.015223,54.482922 178.612223,55.405922 182.218223,56.287922 C184.013223,56.726922 185.857223,57.267922 187.719223,57.272922 C189.492223,57.277922 191.819223,56.790922 192.480223,54.898922 C193.130223,53.038922 191.908223,51.209922 190.831223,49.764922 C189.827223,48.417922 188.561223,47.355922 187.019223,46.674922 C186.658223,46.515922 186.294223,46.388922 185.928223,46.269922 C186.149223,46.314922 186.370223,46.354922 186.590223,46.407922 C188.114223,46.778922 189.577223,47.313922 190.958223,48.056922 C191.035223,48.097922 191.131223,48.146922 191.235223,48.198922 C191.713223,49.853922 192.700223,51.365922 194.042223,52.444922 C194.908223,53.140922 195.923223,53.143922 196.651223,52.572922 C196.783223,52.550922 196.913223,52.533922 197.050223,52.487922 C198.228223,52.077922 198.966223,50.708922 198.245223,49.548922 C198.004223,49.160922 197.748223,48.783922 197.484223,48.413922 C197.477223,48.396922 197.471223,48.376922 197.465223,48.360922 C197.241223,47.716922 196.917223,47.159922 196.479223,46.641922 C196.026223,46.104922 195.444223,45.673922 194.806223,45.362922 C194.019223,44.616922 193.165223,43.947922 192.278223,43.326922 C192.285223,43.329922 192.293223,43.331922 192.301223,43.333922 C192.771223,43.558922 193.228223,43.797922 193.675223,44.050922 C194.158223,44.440922 194.632223,44.838922 195.096223,45.232922 C195.385223,45.477922 195.722223,45.645922 196.071223,45.730922 C197.047223,46.588922 197.887223,47.590922 198.466223,48.841922 C198.755223,49.462922 199.541223,49.831922 200.194223,49.831922 C200.968223,49.831922 201.475223,49.420922 201.920223,48.841922 C203.257223,47.103922 202.384223,44.728922 201.106223,43.254922" id="Fill-41" fill="#E4C3A2"></path>
                <path d="M136.613823,84.576322 C136.115823,83.723322 134.748823,83.209322 133.877823,83.858322 C132.091823,85.190322 129.905823,85.684322 127.747823,85.027322 C125.669823,84.394322 124.209823,82.637322 123.098823,80.859322 C121.810823,78.797322 120.822823,76.561322 119.629823,74.443322 C118.190823,71.890322 116.567823,69.449322 114.791823,67.118322 C114.137823,66.261322 113.068823,65.808322 112.054823,66.400322 C111.210823,66.894322 110.678823,68.273322 111.337823,69.137322 C113.315823,71.732322 115.102823,74.467322 116.657823,77.337322 C117.968823,79.755322 119.083823,82.287322 120.759823,84.487322 C122.442823,86.697322 124.695823,88.533322 127.483823,89.087322 C130.387823,89.664322 133.502823,89.097322 135.895823,87.312322 C136.760823,86.667322 137.202823,85.582322 136.613823,84.576322" id="Fill-43" fill="#C3996B"></path>
                <path d="M176.185123,18.853622 C176.009123,18.677622 175.648123,18.642622 175.478123,18.853622 L173.790123,20.939622 C173.770123,20.962622 173.746123,20.977622 173.727123,21.006622 C173.713123,21.029622 173.698123,21.049622 173.683123,21.072622 C173.079123,21.820622 172.473123,22.569622 171.868123,23.318622 C171.747123,23.467622 171.699123,23.658622 171.752123,23.829622 C171.693123,23.906622 171.638123,23.987622 171.578123,24.064622 C171.576123,24.063622 171.575123,24.063622 171.573123,24.062622 C171.404123,24.016622 171.215123,24.038622 171.095123,24.179622 C171.091123,24.184622 171.086123,24.187622 171.082123,24.192622 C170.410123,24.601622 169.736123,25.011622 169.063123,25.420622 C168.562123,24.857622 167.763123,24.517622 167.041123,24.792622 C164.666123,25.702622 162.287123,26.598622 159.917123,27.522622 C157.890123,28.312622 155.835123,29.147622 154.050123,30.411622 C150.123123,33.191622 148.275123,37.620622 146.180123,41.783622 C145.869123,42.404622 145.856123,43.121622 146.143123,43.706622 C142.626123,52.929622 136.068123,60.625622 129.949123,68.230622 C129.272123,69.072622 129.126123,70.237622 129.949123,71.059622 C130.649123,71.759622 132.096123,71.905622 132.777123,71.059622 C139.622123,62.551622 146.820123,54.030622 150.450123,43.564622 C150.632123,43.038622 150.586123,42.582622 150.408123,42.206622 C151.895123,39.063622 153.449123,35.627622 156.335123,33.681622 C157.914123,32.617622 159.670123,31.883622 161.439123,31.202622 C163.659123,30.346622 165.882123,29.500622 168.105123,28.650622 C168.406123,28.535622 168.654123,28.350622 168.873123,28.139622 C169.039123,28.218622 169.242123,28.209622 169.411123,28.041622 C169.766123,27.683622 170.105123,27.311622 170.445123,26.940622 C170.956123,26.546622 171.425123,26.101622 171.829123,25.601622 C171.924123,25.484622 171.972123,25.332622 171.961123,25.185622 C172.878123,24.051622 173.731123,22.866622 174.509123,21.632622 C175.068123,20.941622 175.626123,20.250622 176.185123,19.560622 C176.354123,19.350622 176.390123,19.058622 176.185123,18.853622" id="Fill-45" fill="#C3996B"></path>
                <path d="M194.926323,50.127122 C193.218323,47.205122 190.570323,45.014122 187.415323,43.814122 C183.851323,42.456122 179.905323,42.799122 176.461323,44.310122 C175.472323,44.743122 175.243323,46.190122 175.743323,47.046122 C176.341323,48.066122 177.487323,48.199122 178.480323,47.764122 C180.953323,46.679122 183.853323,46.706122 186.352323,47.670122 C188.448323,48.480122 190.310323,50.156122 191.472323,52.146122 C192.771323,54.366122 196.229323,52.356122 194.926323,50.127122" id="Fill-47" fill="#C3996B"></path>
                <path d="M201.463423,46.170022 C199.914423,43.554022 196.936423,42.125022 194.258423,40.932022 C191.345423,39.635022 188.323423,38.654022 185.187423,38.065022 C184.127423,37.865022 183.029423,38.359022 182.727423,39.461022 C182.459423,40.437022 183.057423,41.721022 184.124423,41.922022 C186.814423,42.427022 189.474423,43.190022 191.988423,44.275022 C193.220423,44.807022 194.429423,45.409022 195.589423,46.082022 C196.585423,46.660022 197.462423,47.266022 198.009423,48.190022 C199.319423,50.402022 202.778423,48.393022 201.463423,46.170022" id="Fill-49" fill="#C3996B"></path>
                <path d="M198.896023,37.214922 C197.732023,35.310922 195.861023,34.050922 193.766023,33.360922 C191.503023,32.613922 189.049023,32.664922 186.698023,32.735922 C185.653023,32.767922 184.648023,33.633922 184.698023,34.735922 C184.745023,35.792922 185.578023,36.770922 186.698023,36.735922 C187.767023,36.703922 188.837023,36.670922 189.907023,36.725922 C190.173023,36.738922 190.439023,36.757922 190.705023,36.782922 C190.753023,36.788922 190.997023,36.820922 191.071023,36.829922 C191.519023,36.902922 191.964023,36.995922 192.401023,37.122922 C192.603023,37.182922 192.804023,37.248922 193.001023,37.320922 C193.054023,37.340922 193.106023,37.360922 193.158023,37.381922 C193.181023,37.392922 193.210023,37.405922 193.253023,37.425922 C193.583023,37.591922 193.906023,37.760922 194.215023,37.963922 C194.294023,38.015922 194.373023,38.069922 194.451023,38.125922 C194.603023,38.259922 194.755023,38.390922 194.898023,38.533922 C195.002023,38.640922 195.098023,38.754922 195.195023,38.867922 C195.216023,38.910922 195.407023,39.175922 195.442023,39.233922 C195.988023,40.125922 197.258023,40.544922 198.178023,39.950922 C199.074023,39.373922 199.480023,38.169922 198.896023,37.214922" id="Fill-51" fill="#C3996B"></path>
            </g>
            <g id="outline" transform="translate(0.540662, 0.941285)" fill="#231F20">
                <path d="M136.372438,55.3461151 L128.166438,59.9541151 C123.726438,62.4471151 119.127438,65.0341151 114.034438,65.7501151 L113.196438,56.5161151 C113.066438,56.1541151 112.981438,55.7761151 112.981438,55.3901151 C112.981438,54.9681151 112.993438,54.5461151 113.013438,54.1261151 C112.867438,53.6571151 112.805438,53.1591151 112.847438,52.6621151 L111.540438,38.2621151 C111.425438,36.9911151 109.424438,36.9781151 109.540438,38.2621151 L112.065438,66.0941151 C111.428438,66.5341151 111.476438,67.6381151 112.226438,67.8601151 C112.557438,71.5051151 112.887438,75.1501151 113.218438,78.7941151 C113.826438,85.5011151 114.453438,92.2071151 115.043438,98.9151151 C115.469438,103.770115 115.733438,108.827115 114.489438,113.588115 C113.145438,118.728115 109.760438,122.452115 104.625438,123.988115 C101.849438,124.819115 98.9494379,125.101115 96.0744379,125.357115 C92.7824379,125.651115 89.4834379,125.865115 86.1814379,125.997115 C72.9014379,126.531115 59.5604379,125.781115 46.4324379,123.711115 C35.5614379,121.997115 21.6514379,120.019115 14.8114379,110.298115 C17.1984379,106.227115 18.6434379,101.709115 19.7744379,97.1431151 C21.0424379,92.0331151 22.1364379,86.8841151 23.4644379,81.7871151 C24.0984379,79.3591151 24.7774379,76.9431151 25.4724379,74.5311151 C25.7134379,72.5641151 26.2244379,70.6561151 27.1154379,68.9511151 C28.9984379,62.7601151 31.0404379,56.6171151 33.2844379,50.5471151 C35.4334379,44.7331151 37.7484379,38.9811151 40.2224379,33.2971151 C40.7304379,32.1291151 39.0084379,31.1101151 38.4954379,32.2871151 C34.1644379,42.2381151 30.3004379,52.3851151 26.9544379,62.7071151 C26.3174379,64.6731151 25.7104379,66.6451151 25.1164379,68.6201151 C23.1774379,67.9411151 21.4244379,66.8181151 19.8044379,65.4621151 C19.7674379,65.4531151 19.7334379,65.4321151 19.6964379,65.4221151 C19.7014379,65.5011151 19.6844379,65.5891151 19.6834379,65.6711151 C12.9884379,60.5361151 7.34143789,54.1381151 3.04743789,46.8781151 C3.11343789,46.8001151 3.17743789,46.7181151 3.24943789,46.6481151 C3.21943789,46.6031151 3.18643789,46.5601151 3.16043789,46.5131151 C2.03043789,44.5051151 2.89443789,43.0071151 4.03943789,41.2631151 C4.96743789,39.8491151 5.89843789,38.4371151 6.84343789,37.0341151 C14.1744379,26.1281151 22.6024379,14.9591151 34.7704379,9.17511509 C38.6874379,7.31411509 42.8994379,6.18911509 47.1484379,5.38811509 C49.2594379,4.99111509 51.3834379,4.66911509 53.5094379,4.36811509 C53.7684379,4.33211509 54.0914379,4.26811509 54.4514379,4.20011509 C54.4514379,4.14211509 54.4494379,4.08111509 54.4494379,4.02311509 C56.1834379,3.75011509 57.9264379,3.53811509 59.6794379,3.40711509 C59.7504379,3.40211509 59.8144379,3.37411509 59.8834379,3.35711509 C60.0864379,4.73211509 61.0014379,5.98811509 62.2314379,6.63411509 C63.9614379,8.62811509 66.5804379,9.85711509 69.2674379,9.59111509 C73.0624379,9.21611509 76.0954379,6.02511509 76.6394379,2.34511509 C87.4604379,5.79611509 98.3134379,9.37011509 108.439438,14.5751151 C113.313438,17.0801151 118.007438,19.9811151 122.304438,23.3911151 C123.384438,24.5261151 124.701438,25.3631151 125.991438,26.2341151 C126.044438,26.4591151 126.175438,26.6741151 126.427438,26.8301151 C128.058438,27.8431151 128.896438,29.6511151 129.730438,31.3091151 C130.741438,33.3181151 131.673438,35.3671151 132.511438,37.4521151 C133.737438,40.5011151 134.776438,43.6191151 135.638438,46.7871151 C135.443438,47.0001151 135.344438,47.2921151 135.470438,47.6601151 C135.969438,49.1181151 136.468438,50.5771151 136.968438,52.0351151 C137.181438,52.6581151 137.553438,53.3501151 137.634438,54.0031151 C137.731438,54.7991151 136.960438,55.0171151 136.372438,55.3461151 M110.255438,166.273115 C110.458438,168.645115 110.679438,171.015115 110.916438,173.384115 C111.130438,175.527115 111.497438,177.700115 111.519931,179.855115 C111.541438,181.912115 110.828438,183.560115 109.001438,184.589115 C107.354438,185.517115 105.402438,185.876115 103.569438,186.241115 C99.1694379,187.116115 94.6884379,187.490115 90.2074379,187.576115 C85.6864379,187.663115 81.1664379,187.457115 76.6574379,187.154115 C74.3664379,186.999115 72.0594379,186.883115 69.7764379,186.637115 C68.6354379,186.514115 68.1874379,186.031115 68.0134379,184.906115 C67.8404379,183.796115 67.8064379,182.644115 67.7684379,181.524115 C67.4634379,172.169115 69.6584379,162.541115 66.6324379,153.449115 C67.5264379,149.768115 68.6754379,146.156115 70.0994379,142.644115 C70.3024379,142.144115 69.8784379,141.545115 69.4004379,141.414115 C68.8294379,141.257115 68.3744379,141.610115 68.1714379,142.113115 C67.0474379,144.883115 66.0944379,147.717115 65.2984379,150.597115 C65.0204379,150.683115 64.7724379,150.873115 64.6494379,151.217115 C62.6054379,156.972115 61.0324379,162.886115 59.9844379,168.903115 C59.4594379,171.920115 59.0584379,174.961115 58.7864379,178.011115 C58.5574379,180.589115 58.6194379,183.453115 57.3904379,185.805115 C56.0894379,188.296115 53.4264379,189.092115 50.7964379,189.293115 C47.8194379,189.521115 44.7824379,189.331115 41.8194379,189.026115 C35.4234379,188.367115 29.1524379,186.821115 22.9514379,185.171115 C19.9944379,184.384115 16.4334379,183.862115 13.9584379,181.938115 C12.8154379,181.050115 11.8604379,179.740115 11.7734379,178.253115 C11.7264379,177.436115 11.9764379,176.670115 12.3414379,175.947115 C12.2944379,174.757115 12.4684379,173.585115 12.8324379,172.457115 C12.7904379,172.453115 12.7514379,172.435115 12.7084379,172.437115 C14.3244379,163.964115 15.9404379,155.492115 17.5574379,147.019115 L20.2584379,132.857115 C21.1274379,128.304115 22.1534379,123.716115 22.0724379,119.057115 C27.6114379,122.033115 34.1254379,123.523115 40.1804379,124.655115 C53.7384379,127.189115 67.5544379,128.364115 81.3464379,128.135115 C87.9404379,128.026115 94.6594379,127.781115 101.186438,126.778115 C103.732438,126.386115 106.206438,125.687115 108.412438,124.547115 C108.442438,133.875115 108.722438,143.202115 109.265438,152.516115 C109.532438,157.106115 109.862438,161.692115 110.255438,166.273115 M91.4744379,244.723115 C91.1644379,247.165115 90.7114379,249.644115 90.5314379,252.103115 C90.3614379,252.405115 90.3254379,252.786115 90.4984379,253.109115 C90.5784379,254.378115 91.1774379,255.588115 92.6164379,255.659115 C92.9894379,255.677115 93.2404379,255.514115 93.3964379,255.283115 C96.8024379,257.823115 99.9214379,260.806115 102.494438,264.177115 C102.473438,264.210115 102.444438,264.226115 102.425438,264.263115 C101.277438,266.476115 100.627438,268.900115 100.566438,271.395115 C100.536438,272.659115 100.670438,273.930115 100.934438,275.167115 C100.983438,275.394115 101.101438,275.661115 101.095438,275.892115 C101.087438,276.186115 101.254438,276.086115 100.944438,276.081115 C100.434438,276.072115 99.7844379,275.723115 99.2864379,275.593115 C94.3864379,274.314115 89.1834379,274.845115 84.5954379,276.954115 C83.8704379,277.286115 83.9874379,278.074115 84.4554379,278.498115 C81.2024379,276.702115 78.1484379,274.488115 75.6804379,271.843115 C73.4054379,269.408115 72.0294379,266.461115 71.7374379,263.130115 C71.6094379,261.671115 71.6504379,260.211115 71.7814379,258.757115 C71.7814379,258.754115 71.7814379,258.751115 71.7824379,258.749115 C71.9404379,256.986115 72.2344379,255.230115 72.5524379,253.492115 C72.6694379,253.345115 72.7634379,253.174115 72.7844379,252.949115 C74.3624379,236.475115 75.2374379,219.937115 75.3884379,203.389115 C75.4314379,198.697115 75.4144379,194.004115 75.3434379,189.312115 C75.3424379,189.215115 75.3094379,189.140115 75.2874379,189.057115 C78.8324379,189.311115 82.3814379,189.516115 85.9344379,189.577115 C90.2324379,189.652115 94.5334379,189.489115 98.8024379,188.981115 C96.2804379,207.551115 93.8364379,226.132115 91.4744379,244.723115 M103.804438,266.007115 C106.579438,270.200115 108.648438,276.325115 104.781438,280.539115 C101.179438,284.466115 94.9444379,282.997115 90.6094379,281.345115 C88.6894379,280.613115 86.7614379,279.737115 84.8904379,278.730115 C85.1084379,278.792115 85.3504379,278.797115 85.6034379,278.681115 C88.0284379,277.566115 90.6764379,276.962115 93.3434379,276.901115 C94.6474379,276.870115 95.9584379,276.955115 97.2424379,277.188115 C98.4624379,277.408115 99.6904379,278.001115 100.920438,278.091115 C101.991438,278.167115 102.885438,277.558115 103.066438,276.476115 C103.251438,275.378115 102.720438,274.175115 102.620438,273.081115 C102.398438,270.655115 102.811438,268.222115 103.804438,266.007115 M43.2284379,220.784115 C43.1474379,220.913115 43.0854379,221.062115 43.0674379,221.242115 C42.2754379,229.203115 41.6104379,237.176115 41.0744379,245.158115 C41.0384379,245.690115 41.3634379,245.988115 41.7594379,246.078115 C42.1104379,249.614115 42.5804379,253.186115 41.8934379,256.673115 C41.0854379,260.767115 39.1124379,264.493115 36.9504379,268.020115 C36.4954379,268.764115 36.0344379,269.537115 35.5594379,270.312115 C35.4954379,269.868115 35.1934379,269.450115 34.6244379,269.412115 C28.6914379,269.022115 22.7304379,269.917115 17.1724379,272.007115 C17.0564379,267.349115 16.3314379,262.724115 14.9974379,258.255115 C14.9504379,258.099115 14.8784379,257.972115 14.7884379,257.870115 C15.3254379,257.380115 15.8484379,256.897115 16.3354379,256.420115 C18.9744379,253.837115 20.9944379,250.910115 21.5284379,247.179115 C21.8104379,245.206115 21.7444379,243.229115 21.6204379,241.250115 C21.5954379,241.257115 21.5684379,241.259115 21.5434379,241.265115 C21.2394379,234.968115 20.9364379,228.670115 20.6334379,222.372115 C20.6314379,222.325115 20.6084379,222.290115 20.6014379,222.246115 C20.7724379,210.433115 20.9434379,198.620115 21.1144379,186.807115 C22.9534379,187.292115 24.8064379,187.735115 26.6344379,188.191115 C30.0694379,189.049115 33.5294379,189.823115 37.0264379,190.387115 C40.4344379,190.937115 43.8784379,191.308115 47.3324379,191.363115 C47.5324379,191.366115 47.7344379,191.367115 47.9354379,191.369115 C45.8674379,201.088115 44.3144379,210.909115 43.2284379,220.784115 M29.2124379,277.248115 C25.6514379,279.153115 20.9324379,279.462115 17.0264379,278.639115 C13.2044379,277.833115 9.65643789,275.583115 8.14143789,271.852115 C7.99043789,271.482115 7.88043789,271.122115 7.78443789,270.765115 C7.85043789,270.609115 7.90943789,270.451115 7.98843789,270.297115 C8.01643789,270.244115 8.03243789,270.193115 8.04943789,270.142115 C7.96243789,269.832115 7.89843789,269.516115 7.86343789,269.197115 C7.76643789,269.081115 7.64843789,268.984115 7.51743789,268.915115 C7.41343789,265.081115 10.2764379,262.036115 13.2154379,259.312115 C14.5364379,263.915115 15.2064379,268.650115 15.1954379,273.445115 C15.1934379,274.029115 15.8474379,274.662115 16.4614379,274.408115 C22.2234379,272.027115 28.4034379,271.003115 34.6244379,271.412115 C34.7244379,271.419115 34.8024379,271.393115 34.8864379,271.376115 C33.3774379,273.720115 31.6414379,275.950115 29.2124379,277.248115 M139.211438,52.4251151 L138.357438,49.9301151 C138.396438,49.7831151 138.411438,49.6201151 138.368438,49.4391151 C137.277438,44.7451151 135.805438,40.1511151 133.940438,35.7061151 C133.059438,33.6091151 132.107438,31.5391151 131.060438,29.5201151 C130.456438,28.3561151 129.787438,27.2421151 128.903438,26.3151151 C129.035438,26.2931151 129.165438,26.2571151 129.297438,26.2421151 C127.726438,24.9321151 125.878438,23.9501151 124.348438,22.5791151 C124.370438,22.5351151 124.384438,22.4881151 124.407438,22.4441151 C116.485438,15.9681151 107.059438,11.2871151 97.6354379,7.53311509 C90.5414379,4.70711509 83.2694379,2.35711509 75.9974379,0.0411150861 C75.3834379,-0.153884914 74.7184379,0.374115086 74.7304379,1.00511509 C74.8004379,4.23311509 72.2554379,7.41211509 68.9264379,7.61911509 C67.1894379,7.72811509 65.5534379,7.05411509 64.3204379,5.92711509 C64.2814379,5.52411509 64.0274379,5.15711509 63.6064379,5.04611509 C63.5634379,5.03411509 63.5214379,5.02011509 63.4794379,5.00711509 C62.8884379,4.22511509 62.4604379,3.31511509 62.2644379,2.33711509 C62.1684379,1.86411509 61.8374379,1.64711509 61.4754379,1.62511509 C61.3004379,1.48411509 61.0664379,1.37611509 60.8494379,1.38611509 C60.6334379,1.39611509 60.4224379,1.47311509 60.2504379,1.60711509 C60.0854379,1.48011509 59.8934379,1.39111509 59.6794379,1.40711509 C56.5574379,1.64111509 53.4514379,2.08511509 50.3904379,2.74011509 C50.2964379,2.75911509 50.2184379,2.81211509 50.1404379,2.86111509 C46.2464379,3.46511509 42.3644379,4.22311509 38.6244379,5.48211509 C31.5924379,7.84711509 25.4114379,12.0581151 20.1144379,17.2031151 C14.8154379,22.3491151 10.3714379,28.3151151 6.21643789,34.3991151 C5.18543789,35.9081151 4.17343789,37.4281151 3.16743789,38.9531151 C2.15643789,40.4861151 0.795437892,42.0991151 0.580437892,43.9811151 C0.561437892,44.1481151 0.576437892,44.3081151 0.575437892,44.4711151 C0.120437892,44.7121151 -0.187562108,45.2571151 0.130437892,45.8401151 C1.23943789,47.8781151 2.46743789,49.8431151 3.77443789,51.7491151 C2.28643789,61.0781151 2.42943789,70.5941151 4.26843789,79.8651151 C5.81943789,87.6801151 8.20743789,96.9851151 15.0674379,101.859115 C16.1184379,102.606115 17.1184379,100.872115 16.0774379,100.132115 C12.9584379,97.9161151 10.9534379,94.5441151 9.54443789,91.0531151 C7.96943789,87.1491151 6.90143789,83.0011151 6.10743789,78.8741151 C4.53943789,70.7171151 4.34143789,62.3061151 5.45543789,54.0751151 C9.67343789,59.6981151 14.7314379,64.6671151 20.4784379,68.7661151 C20.7514379,68.9601151 21.0184379,68.9851151 21.2494379,68.9061151 C22.2904379,69.5621151 23.3824379,70.1271151 24.5434379,70.5301151 C22.2634379,78.3021151 20.2864379,86.1501151 18.4564379,94.0521151 C17.2434379,99.2941151 15.8384379,104.536115 13.1234379,109.212115 C12.6384379,109.385115 12.2704379,109.878115 12.4874379,110.427115 C12.3784379,110.945115 12.7534379,111.381115 13.2264379,111.519115 C15.1654379,114.230115 17.6024379,116.355115 20.3374379,118.056115 C20.1744379,118.216115 20.0644379,118.440115 20.0734379,118.742115 C20.2104379,123.580115 19.0914379,128.333115 18.1904379,133.058115 C17.3054379,137.698115 16.4204379,142.336115 15.5354379,146.976115 C13.7494379,156.336115 11.9644379,165.697115 10.1794379,175.057115 C10.1264379,175.330115 10.1894379,175.561115 10.3024379,175.755115 C9.71943789,177.250115 9.57543789,178.825115 10.3214379,180.509115 C11.4694379,183.098115 13.9734379,184.565115 16.5474379,185.450115 C17.3954379,185.742115 18.2564379,186.009115 19.1224379,186.261115 C18.9394379,198.885115 18.7574379,211.510115 18.5744379,224.134115 C18.6204379,224.122115 18.6694379,224.119115 18.7174379,224.110115 C19.0154379,230.284115 19.3114379,236.460115 19.6094379,242.635115 C19.6174379,242.810115 19.6674379,242.956115 19.7374379,243.083115 C19.7574379,244.052115 19.7464379,245.020115 19.6654379,245.990115 C19.3344379,249.935115 17.2354379,252.810115 14.4564379,255.452115 C10.0964379,259.599115 4.29843789,264.105115 5.69643789,270.671115 C4.61343789,274.105115 5.71243789,277.888115 8.10143789,280.611115 C11.2654379,284.218115 16.4794379,285.243115 21.0634379,284.753115 C29.8584379,283.815115 37.6164379,278.074115 41.8894379,270.441115 C44.2954379,266.144115 45.5844379,261.263115 45.4384379,256.332115 C45.4154379,255.546115 44.6594379,255.245115 44.0834379,255.420115 C44.1144379,255.152115 44.1604379,254.885115 44.1824379,254.615115 C44.4014379,251.816115 43.9734379,249.025115 43.7314379,246.242115 C43.5964379,244.667115 43.5154379,243.091115 43.4684379,241.513115 C43.4284379,241.533115 43.3854379,241.544115 43.3454379,241.561115 C43.7864379,235.430115 44.2974379,229.304115 44.8904379,223.185115 C44.9084379,223.195115 44.9294379,223.200115 44.9484379,223.209115 C46.0304379,212.649115 47.6774379,202.151115 49.8934379,191.762115 C49.9254379,191.613115 49.9214379,191.474115 49.8974379,191.346115 C51.9094379,191.273115 53.9274379,190.996115 55.7334379,190.109115 C61.2774379,187.385115 60.5094379,179.887115 61.1284379,174.742115 C61.9014379,168.319115 63.3054379,161.979115 65.2364379,155.805115 C67.3354379,164.029115 65.5484379,172.675115 65.7564379,181.070115 C65.8024379,182.933115 65.6494379,185.385115 66.6164379,187.055115 C67.6044379,188.761115 69.7184379,188.633115 71.4344379,188.768115 C72.0954379,188.820115 72.7564379,188.867115 73.4174379,188.918115 C73.3714379,189.033115 73.3414379,189.161115 73.3434379,189.312115 C73.5934379,205.859115 73.1384379,222.413115 71.9604379,238.920115 C71.6494379,243.275115 71.2814379,247.625115 70.8724379,251.972115 C70.8204379,252.063115 70.7704379,252.156115 70.7474379,252.281115 C70.3824379,254.255115 70.0424379,256.279115 69.8584379,258.298115 C65.8084379,265.867115 69.4894379,275.016115 75.6844379,280.188115 C79.0914379,283.033115 83.1014379,284.992115 87.2394379,286.533115 C91.3844379,288.075115 96.2024379,289.913115 100.616438,288.423115 C104.714438,287.040115 107.937438,283.394115 108.580438,279.090115 C108.633438,278.741115 108.514438,278.454115 108.322438,278.239115 C109.384438,274.778115 108.665438,270.706115 107.006438,267.468115 C103.849438,261.307115 98.3144379,256.126115 92.6054379,252.261115 C92.8294379,249.327115 93.7264379,242.735115 93.8194379,242.008115 C94.3644379,237.731115 94.9144379,233.454115 95.4684379,229.178115 C96.5644379,220.707115 97.6794379,212.240115 98.8094379,203.773115 C99.4674379,198.848115 100.130438,193.924115 100.800438,189.000115 C100.811438,188.908115 100.792438,188.827115 100.784438,188.743115 C104.356438,188.270115 108.751438,187.753115 111.466438,185.274115 C114.713438,182.307115 113.296438,177.186115 112.916438,173.384115 C112.417438,168.401115 111.993438,163.410115 111.643438,158.414115 C110.851438,147.113115 110.446438,135.784115 110.411438,124.455115 C110.410438,124.059115 110.211438,123.799115 109.948438,123.647115 C111.710438,122.484115 113.243438,120.976115 114.412438,119.021115 C116.934438,114.804115 117.434438,109.654115 117.372438,104.840115 C117.291438,98.5421151 116.436438,92.2291151 115.868438,85.9621151 C115.316438,79.8841151 114.765438,73.8081151 114.214438,67.7311151 C120.102438,66.9011151 125.335438,63.8371151 130.472438,60.9531151 C132.055438,60.0651151 133.639438,59.1751151 135.223438,58.2861151 C136.457438,57.5921151 138.145438,56.9801151 139.103438,55.9081151 C140.044438,54.8561151 139.618438,53.6151151 139.211438,52.4251151" id="Fill-68"></path>
                <path d="M172.843238,32.1391151 C178.782238,29.3671151 185.399238,29.4221151 191.796238,29.9951151 C196.386238,30.4081151 203.048238,31.2681151 203.552238,37.0501151 C203.700238,38.7601151 203.133238,40.5201151 201.859238,41.5661151 C202.372238,41.9211151 202.875238,42.2891151 203.363238,42.6771151 C205.042238,44.0141151 206.704238,45.9661151 206.448238,48.2651151 C206.234238,50.1951151 204.698238,52.1031151 202.612238,51.9371151 C201.558238,51.8541151 201.549238,50.2001151 202.612238,50.2841151 C204.343238,50.4211151 205.128238,48.3341151 204.673238,46.9171151 C204.057238,45.0031151 202.123238,43.7161151 200.526238,42.6701151 C200.364238,42.5651151 200.197238,42.4701151 200.034238,42.3681151 C199.808238,42.3401151 199.625238,42.2161151 199.506238,42.0421151 C196.139238,40.0271151 192.416238,38.6861151 188.536238,38.0561151 C187.489238,37.8851151 187.933238,36.2921151 188.976238,36.4611151 C192.946238,37.1071151 196.869238,38.5011151 200.341238,40.5921151 C202.185238,39.7201151 202.261238,36.9711151 201.379238,35.3341151 C199.991238,32.7591151 196.438238,32.1501151 193.813238,31.8481151 C187.159238,31.0841151 179.903238,30.6611151 173.677238,33.5671151 C172.719238,34.0141151 171.878238,32.5891151 172.843238,32.1391151" id="Fill-70"></path>
                <path d="M126.661538,62.9281151 C127.337538,64.5991151 128.267538,66.1881151 129.410538,67.5831151 C129.974538,68.2731151 130.588538,68.9201151 131.244538,69.5231151 C131.383538,69.6491151 131.547538,69.8641151 131.720538,69.9451151 C132.020538,70.0861151 131.905538,70.1271151 132.170538,69.9011151 C132.548538,69.5761151 132.837538,68.9771151 133.127538,68.5721151 L140.637538,58.0711151 C140.727538,57.9441151 140.837538,57.8581151 140.954538,57.7991151 C143.009538,55.0101151 144.814538,52.0391151 146.307538,48.8981151 C148.644538,43.9741151 150.171538,38.5781151 153.367538,34.0991151 C154.817538,32.0671151 156.606538,30.2631151 158.813538,29.0621151 C161.111538,27.8121151 163.695538,27.3161151 166.234538,26.8091151 C168.675538,26.3221151 171.337538,25.8551151 173.377538,24.3261151 C175.627538,22.6421151 176.026538,19.2601151 178.670538,18.0541151 C179.843538,17.5191151 181.313538,17.4701151 182.303538,18.4131151 C183.348538,19.4101151 183.571538,21.1381151 183.520538,22.5111151 C183.409538,25.5211151 181.761538,28.3241151 179.180538,29.8681151 C178.265538,30.4171151 177.432538,28.9881151 178.345538,28.4421151 C180.552538,27.1201151 181.926538,24.6531151 181.872538,22.0741151 C181.847538,20.8071151 181.485538,18.9781151 179.832538,19.3811151 C178.408538,19.7291151 177.735538,21.1491151 177.086538,22.3221151 C175.919538,24.4301151 174.366538,25.9491151 172.138538,26.9031151 C169.990538,27.8221151 167.670538,28.1921151 165.395538,28.6591151 C163.046538,29.1421151 160.716538,29.7301151 158.689538,31.0661151 C156.672538,32.3961151 155.113538,34.3051151 153.860538,36.3491151 C151.256538,40.5981151 149.801538,45.4141151 147.658538,49.8901151 C145.798538,53.7781151 143.469538,57.4281151 140.766538,60.7811151 C140.758538,60.7731151 140.747538,60.7671151 140.738538,60.7591151 L137.505538,65.2811151 C136.760538,66.3221151 136.015538,67.3641151 135.270538,68.4061151 C134.605538,69.3351151 133.985538,70.5281151 133.131538,71.2931151 C131.437538,72.8121151 129.403538,70.1341151 128.403538,68.9481151 C126.989538,67.2701151 125.890538,65.4001151 125.066538,63.3671151 C124.668538,62.3821151 126.266538,61.9531151 126.661538,62.9281151" id="Fill-72"></path>
                <path d="M186.002338,41.2572151 C188.771338,41.8022151 191.455338,42.6742151 194.021338,43.8512151 C196.368338,44.9282151 198.981338,46.2362151 200.726338,48.1952151 C202.162338,49.8092151 202.924338,52.1532151 201.437338,53.9862151 C200.285338,55.4062151 197.972338,56.1652151 196.609338,54.5932151 C195.915338,53.7922151 197.080338,52.6182151 197.778338,53.4242151 C198.693338,54.4802151 200.310338,53.2222151 200.573338,52.1612151 C201.022338,50.3582151 199.054338,48.7062151 197.765338,47.8242151 C194.122338,45.3322151 189.879338,43.7012151 185.563338,42.8522151 C184.520338,42.6462151 184.961338,41.0522151 186.002338,41.2572151" id="Fill-74"></path>
                <path d="M193.691838,48.9135151 C189.721838,45.1095151 183.354838,44.1565151 178.528838,46.8375151 C177.596838,47.3535151 178.431838,48.7815151 179.362838,48.2645151 C184.543838,45.3885151 192.709838,47.4795151 194.771838,53.4275151 C195.293838,54.9315151 195.282838,56.7875151 193.792838,57.7295151 C192.635838,58.4605151 191.104838,58.4135151 189.796838,58.2645151 C186.296838,57.8635151 182.755838,56.7825151 179.410838,55.7165151 C177.629838,55.1475151 175.869838,54.5205151 174.132838,53.8335151 C172.494838,53.1845151 170.905838,52.3965151 169.247838,51.7985151 C167.726838,51.2485151 166.030838,50.9325151 164.453838,51.4425151 C163.019838,51.9075151 161.882838,52.9225151 160.836838,53.9685151 C151.600838,63.1865151 144.025838,74.0985151 138.453838,85.8925151 C138.029838,85.8775151 137.576838,86.1385151 137.544838,86.6825151 C137.425838,88.6225151 135.639838,90.0075151 133.820838,90.2905151 C131.745838,90.6145151 129.622838,89.7885151 127.849838,88.7825151 C125.033838,87.1845151 122.768838,84.8095151 121.221838,81.9955151 C121.439838,81.7185151 121.516838,81.3375151 121.279838,80.9395151 C119.285838,77.5935151 117.291838,74.2465151 115.295838,70.9005151 C114.637838,69.7965151 112.908838,70.8005151 113.569838,71.9095151 C115.353838,74.9035151 117.137838,77.8975151 118.922838,80.8925151 C118.927838,80.9925151 118.942838,81.0945151 118.987838,81.1995151 C120.830838,85.5165151 124.328838,89.1555151 128.652838,91.0235151 C130.849838,91.9735151 133.417838,92.4365151 135.686838,91.4515151 C137.051838,90.8585151 138.146838,89.8115151 138.734838,88.5045151 C138.936838,88.4705151 139.123838,88.3475151 139.239838,88.0915151 C142.649838,80.6255151 146.845838,73.5305151 151.768838,66.9615151 C153.971838,64.0205151 156.326838,61.1925151 158.809838,58.4835151 C160.002838,57.1825151 161.209838,55.8795151 162.488838,54.6635151 C164.027838,53.2005151 165.644838,52.5065151 167.763838,53.0605151 C169.567838,53.5335151 171.254838,54.4385151 172.975838,55.1395151 C174.825838,55.8915151 176.703838,56.5765151 178.602838,57.1915151 C182.127838,58.3345151 185.818838,59.4165151 189.504838,59.8815151 C192.214838,60.2235151 195.490838,59.7625151 196.503838,56.8015151 C197.470838,53.9695151 195.690838,50.8285151 193.691838,48.9135151" id="Fill-76"></path>
                <path d="M174.033638,43.5395151 C175.637638,41.1855151 176.381638,38.2645151 175.970638,35.4305151 C175.906638,34.9885151 176.079638,34.5425151 176.547638,34.4135151 C176.935638,34.3075151 177.500638,34.5465151 177.564638,34.9905151 C178.039638,38.2655151 177.331638,41.6275151 175.460638,44.3735151 C175.209638,44.7425151 174.733638,44.9065151 174.329638,44.6705151 C173.964638,44.4565151 173.780638,43.9095151 174.033638,43.5395151" id="Fill-78"></path>
            </g>
        </g>
    </g>
</svg>