<svg width="500" height="600" xmlns="http://www.w3.org/2000/svg" xmlns:xlink="http://www.w3.org/1999/xlink"><defs><path id="a" d="M.205.025H145.46V289H.205z"/></defs><g fill="none" fill-rule="evenodd"><path d="M325.803 283.183c-.006-.012-.016-.021-.02-.032-1.334-2.416-2.704-4.805-4.162-7.148-.886-1.425-1.686-3.964-3.108-4.928-.642-.436-1.018-.997-1.2-1.596a5.937 5.937 0 00-2.517-1.265 99.986 99.986 0 01-6.143-6.143c-1.917-2.09-4.356-1.89-6.117-.608-2.944-2.59-6.434-4.574-10.426-5.8a5.365 5.365 0 00-1.309-.23l-2.306-1.29c-1.6-.895-3.156-.833-4.43-.216a38.908 38.908 0 00-7.355-3.513c-1.686-.6-3.104-.287-4.147.522-1.875.846-2.78 2.82-2.72 4.76-.009.044-.023.084-.032.128-.005 0-.01.002-.014.003l.04-.296c-.017.103-.045.2-.067.3-.113.026-.223.055-.338.073l.245-.033c-.8.152-1.529.422-2.187.92a264.93 264.93 0 01-.875-.14 5.39 5.39 0 00-1.915.032c-.92-.322-1.928-.32-2.87-.06-.627-.675-1.256-1.346-1.87-2.041a7 7 0 00-1.129-1.035c-1.042-1.09-2.54-1.802-4.5-1.802-.273 0-.527.028-.783.055-.823-.453-1.8-.738-2.932-.793-12.49-.603-23.708 5.398-30.728 15.055a7.735 7.735 0 00-1.36.949 34.147 34.147 0 00-6.52 7.742c-1.358.717-2.444 1.933-3.18 3.502l-.15.287c-.149.286-.29.575-.447.856-.157.28-.323.556-.494.829l-.237.366c-.107.143-.278.375-.336.442-.212.242-.429.478-.655.709-.31.318-1.95 1.712-.677.732-1.103.85-2.008 1.666-2.586 2.84-.1.087-.204.17-.297.263a6.312 6.312 0 00-1.449 2.215c-.036.035-.074.065-.11.1-2.267 2.267-2.76 6.994 0 9.193l2.23 1.776c.267.9.754 1.793 1.523 2.627a55.322 55.322 0 005.86 5.48c.32 2.01 1.461 3.862 3.43 4.757 1.1 1.968 3.25 3.357 5.5 3.444l2.94 2.77c.071.067.15.126.225.189-.057.79-.123 1.579-.187 2.368-.979 1.21-1.319 2.896-1.018 4.437a73.374 73.374 0 00-.93 3.795c-2.315 1.166-3.058 4.103-2.225 6.406-.926 1.669-1.57 3.505-1.93 5.48l-.526 1c-1.06 2.015-1.08 4.558-.019 6.527-.78.7-1.26 1.66-1.473 2.684-1.11.78-1.738 2.026-1.926 3.346-2.366 2.739-1.274 8.15 3.266 8.42.614 1.643 2.041 2.939 4.276 3.015.803.91 1.996 1.516 3.58 1.516.182 0 .35-.022.523-.038.657.594 1.534.984 2.6 1.102.763.702 1.812 1.15 3.136 1.179.795 1.114 2.085 1.886 3.876 1.886.702 0 1.317-.13 1.865-.341.71.447 1.587.717 2.64.717a5.3 5.3 0 001.277-.16 5.288 5.288 0 002.094.614c4.065.355 8.132.639 12.203.89 15.804 2.24 31.6 1.954 47.371-.894.824-.15 1.484-.45 2.013-.843.12.008.24.017.364.017 2.393 0 3.884-1.388 4.498-3.127 2.078-1.03 2.901-3.48 2.467-5.636 3.192-7.694 1.38-18.054.01-26.611a5.644 5.644 0 00.445-2.905c.123-1.383-.24-2.816-1.115-3.876a5.565 5.565 0 00-.285-1.496c.007-2.89.17-5.777.46-8.653.164-1.644-.375-2.86-1.276-3.654-.017-2.684.067-5.363.345-8.028.187-1.787-.462-3.07-1.506-3.854-.02-.56-.043-1.12-.065-1.677.695.674 1.605 1.203 2.758 1.559a3.24 3.24 0 00.835 1.12 2.995 2.995 0 00.657.436c.051.023.105.043.156.064a3.13 3.13 0 00.674.198c.222.04.452.07.702.07.256 0 .492-.03.72-.072.038-.007.078-.013.116-.021.211-.048.41-.112.594-.192l.11-.052c.18-.088.352-.185.505-.301.02-.014.036-.032.056-.048a2.91 2.91 0 00.366-.344c.033-.036.068-.072.1-.11a3.308 3.308 0 00.531-.915c.05-.125.091-.252.127-.383a4.014 4.014 0 00.027-2.021c2.133-2.934 3.753-6.447 5.517-9.547 1.436-2.523 2.931-5.14 3.326-7.994" fill="#27A9E0"/><path d="M249.36 369.024a91.237 91.237 0 01-7.98-5.486 2.024 2.024 0 00-.783-1.045c-11.095-7.84-13.363-22.615-11.363-35.178.099-.617-.017-1.236-.343-1.713a616.562 616.562 0 0110.403-43.322c.692-2.484-3.166-3.544-3.858-1.064a570.185 570.185 0 00-3.492 13.224 1.696 1.696 0 00-.747.253l-.404.313a2.002 2.002 0 00-.515.882l-.398 2.625a1.513 1.513 0 00-.063.501 1.688 1.688 0 00-.301.623 47.907 47.907 0 01-1.511 5.278 46.11 46.11 0 01-.966 2.517l-.125.29a51.965 51.965 0 01-.909 1.956 2.37 2.37 0 00-.231.92c-.356.255-.634.614-.735 1.06l-1.644 7.179a1.957 1.957 0 00-.317.684l-3.296 13.664c-.03.097-.06.193-.087.29a36.502 36.502 0 00-1.377 4.588c-.027.12-.045.236-.053.35l-1.258 3.843c-.164.504-.073.982.155 1.399l-4.065 10.652c-.143.377-.12.779.016 1.148-1.422.157-2.45 1.849-1.23 3.32 2.335 2.814 5.103 5.21 8.186 7.174.55.349 1.086.387 1.548.228.867.522 1.806.987 2.743 1.03a44.22 44.22 0 003.64 1.686c6.422 2.599 13.545 2.984 20.35 3.859 2.084.267 2.554-2.782 1.01-3.728m63.56-25.308c-.064-.682-.39-1.301-.913-1.664.031-2.996-.095-5.972-.296-8.845-.062-.887-.589-1.462-1.239-1.734l1.07-8.782c.13-1.075-1.014-2-2-2-1.19 0-1.87.922-2 2l-1.852 15.202c-.577 4.748-1.03 9.538-2.007 14.225-1.589 7.626-5.264 16.106-13.147 18.989-2.398.877-1.362 4.744 1.064 3.856a22.08 22.08 0 003.181-1.464c.423.34 1.006.493 1.703.287 5.725-1.688 11.554-3.904 14.223-9.696 1.323-2.871 1.847-5.97 2.17-9.092.39-3.752.39-7.526.042-11.282m-83.103-85.981c-.837-.837-1.98-.674-2.83 0a83.6 83.6 0 00-17.603 19.148c-.541.813-1.087 1.648-1.626 2.495a1.51 1.51 0 00-.738.487 52.436 52.436 0 00-5.18 7.641 1.941 1.941 0 00-.491.861c-.015.057-.026.117-.041.175-.28.536-.571 1.066-.832 1.615a2.51 2.51 0 00-.147.408 2.214 2.214 0 00-.57.89c-.771 2.23.205 4.676 2.034 6.01l2.452 3.83c.294.457.7.734 1.135.862.268.357.543.704.845 1.006.062.061.137.1.204.152.516.897 1.032 1.794 1.546 2.691.538.935 1.81 1.26 2.737.716 1.01-.59 1.167-1.749.717-2.736a106.65 106.65 0 01-2.916-7.08c-.754-2.037-1.973-4.509-1.43-6.724.045-.183.059-.356.058-.524.115-.454.257-.908.427-1.36 1.388-3.7 3.75-7.209 5.982-10.447 4.51-6.545 10.04-12.353 16.267-17.288.847-.672.7-2.127 0-2.828m91.806 18.268c-.887-1.426-1.687-3.964-3.108-4.929-.714-.484-1.1-1.126-1.253-1.8a80.441 80.441 0 00-28.238-14.564c-.005-.009-.006-.019-.012-.027-.302-.468-.686-.706-1.196-.919l-8.004-3.35c-.214-.091-.491-.098-.763-.057-1.781-.846-3.727-1.321-5.705-1.31-1.046.007-2.05.916-2 2.001.018.401.145.781.355 1.101-1.362.865-.985 3.594 1.119 3.742 14.242.997 28.052 6.194 39.555 14.627 3.242 2.376 6.263 5.046 9.073 7.918.6.612 1.31.702 1.929.489-.573-.98-1.151-1.957-1.752-2.922" fill="#1C75BB"/><path d="M309.457 407.629a4.923 4.923 0 00-.233-1.137 5.57 5.57 0 00-.002-1.553l-2.496-17.761c.62-.489 1.015-1.307.723-2.096a17.212 17.212 0 01-.77-2.727 15.498 15.498 0 01-.12-.711c-.006-.072-.036-.325-.04-.363-.003-.042-.002-.085-.006-.127 1.71-1.478 1.622-3.764.499-5.565.09-.324.179-.648.289-.968.339-.991-.388-2.23-1.397-2.46-.914-.208-1.74.16-2.206.887-1.074-.301-2.28-.264-3.521.277-4.874 2.125-11.891 1.476-17.126 1.669a279.12 279.12 0 01-18.184.084 272.09 272.09 0 01-14.535-.802 47.614 47.614 0 00-6.063-1.62 1.904 1.904 0 00-1.135-.362c-.427-.005-.851-.03-1.277-.049-.372-.056-.741-.129-1.115-.178a1.374 1.374 0 00-.573.063 39.476 39.476 0 01-5.093-.789 1.523 1.523 0 00-1.143-.749c-.177-.025-.355-.047-.533-.07v-.001a21.152 21.152 0 01-4.63-1.177 38.332 38.332 0 01-3.501-1.648c-.854-.461-1.67-.263-2.235.229-.012-.034-.035-.062-.045-.098-.654-2.487-4.513-1.432-3.856 1.064.1.382.25.725.422 1.052l-.001.012-.002.501-.625 4.464a4.398 4.398 0 00-.035.322c-2.964 5.184-3.915 10.912-3.112 16.78l-.096.398c-.07.283-.11.557-.134.824a96.416 96.416 0 00-2.793 11.175 5.401 5.401 0 00-.054 1.687c-1.52 4.933-3.001 9.988-3.325 14.861-.1 1.5.047 2.839.394 4.038-.253 1.369.12 2.853 1.458 4.123a8.746 8.746 0 003.623 2.065c.665.401 1.369.768 2.115 1.097.62.304 1.27.536 2.103.814 1.146.381 2.163.348 3.027.038.316.137.663.251 1.044.332 2.397.51 5.194 1.378 7.893 1.582l1.204.39a4.235 4.235 0 001.549.186c.389.18.825.321 1.324.404 4.514.754 9.865 2.373 14.09.594.049-.001.093.002.14 0 5.76-.314 6.445-5.225 7.314-9.975l3.28-17.913a601.059 601.059 0 013.662-8.887c.49 2.392.935 4.795 1.337 7.207.065.393.21.751.389 1.089-.084 3.196-.382 6.397-.688 9.591-.38 3.968-.922 8.175.565 11.804-.322 2.706 1.268 5.683 4.784 5.683.292 0 .566-.028.83-.067 1.963.766 4.14.863 6.126.107a5.373 5.373 0 001.682.357c6.322.347 16.637 1.071 23.425-2.333 4.388.551 7.966-3.143 8.494-7.556.689-5.759-.666-12.326-1.085-18.108" fill="#594A41"/><path d="M304.844 371.737c-1.697 1.51-4.09 1.831-6.265 2.083-2.82.327-5.644.64-8.474.882-5.692.486-11.46.674-17.132-.15a1.55 1.55 0 00-1.134.263c-6.084-.829-12.183-.762-18.257-.178-.178-.398-.499-.727-.934-.788a472.3 472.3 0 00-10.47-1.34 1.029 1.029 0 00-.299.006 124.004 124.004 0 01-10.126-2.314 1.366 1.366 0 00-.838.031l-1.108-.24c-.215-.47-.66-.833-1.313-.846a11.802 11.802 0 01-5.089-1.273c-.577-.543-1.207-1.032-1.904-1.409a1.463 1.463 0 00-.405-.144c-.073-.062-.15-.119-.223-.184-1.428-1.293-3.556.823-2.12 2.122.161.147.335.278.503.417a17.4 17.4 0 01-.099 1.98 1.466 1.466 0 00-.404.687l-1.478 5.37c-.214.777.233 1.427.84 1.723-.034.06-.064.12-.1.178-.202.327-.398.617-.595.895-.139.11-.254.25-.327.42-.013.031-.034.058-.048.088-.203.264-.413.524-.648.793-.385.443-.524 1.03-.335 1.556-.22.647.041 1.463.66 1.79l.031.014c-.053.445.108.901.39 1.242-1.832 5.804-3.305 11.853-3.429 17.951-.433.138-.797.455-.908.978l-2.1 9.834c-.136.634.065 1.128.415 1.446l-1 4.18c-.106.44-.046.805.112 1.095-.06.19-.12.38-.182.568a1.6 1.6 0 00-.293.528c-.02.068-.03.14-.05.208-.468.983-.764 2.03-.903 3.138l-.01.033h.005c-.017.134-.047.263-.059.398-.059.657.275 1.09.738 1.297.445 1.12 1.285 2.092 2.35 2.627.24.121.493.163.742.167a8.067 8.067 0 002.237 1.851c.251.142.507.195.755.187a6.34 6.34 0 002.593.485c.172-.004.33-.04.48-.094l4.926 2.182c.672.297 1.448.227 1.916-.35a19.315 19.315 0 002.58 1.76c.321.181.637.231.925.19.058.03.115.06.177.083 3.378 1.267 6.921 2.011 10.518 2.277.06.004.115-.005.172-.009.27.08.557.117.855.071 3.455-.522 6.923.986 10.347-.176a9.583 9.583 0 006.086-6.325c.08-.267.081-.508.035-.726 1.666-.257 1.587-2.974-.256-2.974-1.12 0-1.587 1.01-1.406 1.858-.547.046-1.064.366-1.266 1.044a6.472 6.472 0 01-4.865 4.468c-1.476.307-3.05.09-4.534-.06-1.555-.157-3.059-.23-4.605-.037a1.848 1.848 0 00-.563-.134c-3.289-.243-6.575-.99-9.72-2.17a1.169 1.169 0 00-.53-.06c-6.845-3.952-9.696-12.12-11.474-19.39-1.149-4.7-1.517-9.418-.995-14.233.53-4.864 1.862-9.62 3.36-14.264.05-.154.067-.299.071-.438 3.233-1.708 6.807-2.575 10.386-3.33 4.454-.94 8.917-1.855 13.403-2.628 9.121-1.574 18.503-2.482 27.71-1.099a1.54 1.54 0 001.148-.267c6 .78 12.024.615 18.044.064 2.956-.27 5.92-.565 8.862-.965 2.585-.353 5.034-1.023 7.022-2.79 1.446-1.286-.682-3.4-2.12-2.123" fill="#3B2314"/><path d="M308.142 432.035a1.11 1.11 0 00-.31-.482l-.303-.236a1.496 1.496 0 00-.758-.204l-.399.054a1.497 1.497 0 00-.662.386l-.187.187h-.319c-.208-.008-.4.035-.579.13a1.128 1.128 0 00-.482.31c-.142.13-.24.286-.302.463-.235-.326-.62-.542-1.164-.504-5.928.408-11.85.768-17.775.77l-.576-.337c-.612-.358-1.202-.234-1.622.111-3.747-.523-7.585-1.5-10.488-3.998-1.526-1.313-2.643-2.93-3.294-4.84-.085-.249-.146-.505-.219-.757.03-.439-.076-.849-.32-1.17a38.273 38.273 0 01-.293-1.335c-.214-1.096-.49-2.228-.459-3.348.054-1.93-2.946-1.929-3 0-.036 1.28.27 2.577.506 3.83.15.79.332 1.575.54 2.355l-.194 1.442c-.429.216-.763.64-.807 1.278a20.348 20.348 0 00.195 4.533c.188 1.211.406 2.712 1.712 3.213.353.135.721.164 1.08.12.032.047.053.097.086.143.621.88 1.941.894 2.515.14a13.82 13.82 0 002.603.828c.208.145.458.25.76.278 3.693.367 7.383.511 11.073.515.026 0 .053.002.078 0 5.966.004 11.93-.36 17.9-.77.701-.049 1.146-.484 1.335-1.007.042.055.078.116.13.168l.304.234c.233.136.486.204.757.205h.626c.208.008.4-.035.58-.129.144-.048.27-.13.385-.23l.062-.008c.254-.07.474-.2.661-.386l.313-.313c.147-.136.25-.297.311-.484.094-.178.137-.37.13-.577a1.126 1.126 0 00-.13-.578m-76.584-53.178a20.32 20.32 0 00-4.838 1.24 1.231 1.231 0 00-.836-.007c-4.942 1.839-8.808 5.85-10.388 10.895-.22.706.204 1.502.87 1.769.621.25 1.575.082 1.873-.614 2.305-5.394 7.436-9.538 13.32-10.282.803-.103 1.5-.618 1.5-1.5 0-.732-.69-1.604-1.5-1.5" fill="#3B2314"/><path d="M245.484 440.388c.014-.787-.878-1.288-1.498-.9-.178-.216-.433-.361-.736-.333-.511.046-1.024.068-1.536.087-.126-.044-.245-.095-.381-.135-1.197-.348-2.502-.18-3.793.025a29.885 29.885 0 01-9.516-2.524c-.592-.27-1.142.046-1.39.489a11.126 11.126 0 01-3.017-.658c-.737-.277-1.403-.738-2.194-.85-.506-.071-1.031.02-1.421.295-.48-.503-1.486-.173-1.617.49a19.447 19.447 0 00-.156 6.516l-.003.027.006-.001c.013.089.016.178.03.267.05.328.337.559.65.66-.03.19-.067.372-.073.577l-1.225 48.04c-.04 1.567.682 2.633 1.695 3.24-.143.4-.255.824-.308 1.279l-.016.133c-3.94 7.285-12.82 12.005-14.656 20.188-.483 2.15.669 3.75 2.219 4.505.27.395.58.77.939 1.12.276.272.572.504.874.723 1.614 2.235 4.296 3.557 7.06 3.607.303.005.603-.041.897-.112.219.03.435.036.65.04 2 .253 3.853.11 5.572-.34a7.225 7.225 0 001.836-.463c.603-.245 1.129-.523 1.584-.905 5.295-2.894 9.106-8.737 11.937-14.067.49-.924.582-1.822.419-2.636a23.791 23.791 0 00.962-16.813 3.765 3.765 0 00-.326-.742c.427-.583.71-1.315.757-2.21l.796-15.355c.025-.087.065-.16.083-.252a135.252 135.252 0 002.562-19.586 3.423 3.423 0 00-.117-1.096c1.262-2.652 1.979-5.354 2.117-8.298a3.265 3.265 0 00-.224-1.311l.74-1.81c.162-.392.046-.701-.182-.911m59.36 82.167c-.54-7.872-7.328-14.583-13.757-18.736.028-.014.054-.025.081-.04-.819-1.351-1.573-2.73-2.197-4.161 1.015-1.394 1.246-3.337.685-4.978.211-.414.363-.9.432-1.468l5.837-47.697c.024-.204.017-.39.018-.58.296-.06.584-.251.677-.57.026-.085.041-.172.066-.258h.005l.002-.027a21.5 21.5 0 00.8-6.466c-.022-.674-.875-1.132-1.375-.698-.309-.323-.765-.481-1.229-.476-.723.007-1.384.377-2.083.554a9.197 9.197 0 01-2.792.258c-.157-.471-.605-.854-1.172-.666a24.98 24.98 0 01-8.872 1.259c-1.124-.371-2.267-.71-3.386-.52-.129.022-.24.056-.36.084a24.523 24.523 0 01-1.36-.287c-.269-.066-.517.043-.707.234-.499-.464-1.368-.085-1.469.695-.234.179-.382.469-.295.879l.4 1.886a3.575 3.575 0 00-.388 1.269c-.302 2.93-.05 5.697.695 8.487a3.791 3.791 0 00-.264 1.069 149.243 149.243 0 00-.536 19.715c.004.093.03.17.038.26l-1.503 15.298c-.088.89.06 1.654.357 2.286-.15.209-.285.438-.399.692-.085.19-.149.386-.229.577.374 1.015.432 2.112.004 3.144a22.444 22.444 0 00-.674 1.859c.362.723.541 1.52.434 2.354-.377 2.943-.796 5.876-1.102 8.82a.022.022 0 01.001.009l-.003.013a94.888 94.888 0 00-.173 1.836c.032.265.084.534.171.813.032.102.07.209.103.31-.053 5.866 3.36 10.936 8.005 14.447 4.592 3.473 11.322 7.294 17.175 7.59 5.214.265 10.435-2.884 10.34-8.352a5.715 5.715 0 000-.717" fill="#E4C3A2"/><path d="M243.774 438.795c-.028.105-.051.212-.078.318-.025-.003-.048-.008-.072-.01-.708-.535-1.683-.717-2.612-.713-1.55.008-3.097.042-4.645.062a1.507 1.507 0 00-.514.103c-.061-.024-.128-.03-.192-.045-.075-.229-.14-.458-.217-.687-.622-1.815-3.521-1.035-2.893.798 5.576 16.273 4.469 33.706 3.339 50.586-.026.397.089.7.274.932-.301 3.251.358 6.406.719 9.659.308 2.772.296 5.677-1.128 8.117-.02.021-.043.036-.062.058-3.204 3.62-4.996 8.268-8.507 11.635-3.121 2.992-7.104 4.875-11.353 5.56-1.56-.364-2.76 1.92-1.152 2.719 5.052 2.51 10.84.501 14.647-3.292 3.947-3.935 6.416-9.376 8.577-14.47.015-.019.033-.034.048-.056 1.92-2.682 2.272-6.1 2.022-9.307-.27-3.469-1.263-6.976-.831-10.468.404-.228.712-.631.742-1.223.156-3.12.27-6.24.357-9.361.026-.117.043-.241.04-.377a65.485 65.485 0 01.015-2.546c0-.073.002-.147.004-.221.06-2.183.243-4.361.533-6.525.054-.151.095-.309.112-.476.047-.461.094-.922.139-1.383.005-.042 0-.079 0-.12l.819-3.789c.429-.21.703-.571.82-1.027.007-.016.017-.031.024-.049.887-2.207 1.077-4.683.617-7.016a138.847 138.847 0 013.3-16.588c.49-1.869-2.402-2.666-2.892-.798m57.952 88.655c-5.738.866-11.605.216-17.015-1.753.478-.656.501-1.623-.422-2.105-2.112-1.107-4.493-2.385-6.624-3.936a1.446 1.446 0 00-.408-.9c-2.787-2.974-4.2-6.987-4.017-11.01.02-.419-.173-.802-.469-1.077l2.624-27.52c.075-.174.131-.363.134-.59.088-6.164.641-12.307 1.66-18.387a136.257 136.257 0 001.968-21.402c.017-1.496-1.775-1.828-2.596-1.006a1.481 1.481 0 00-1.214.104c-.465-1.513-3.022-1.394-2.927.394.15 2.772.417 5.532.787 8.28a1.635 1.635 0 00-.666 1.145c-.565 4.25-.516 8.501.052 12.738l-1.029 20.246c-.029.57.215.966.571 1.198l-2.416 25.343c0 .011.002.02.001.032-.688.145-1.117.76-1.182 1.467-.366 3.957 1.487 7.78 4.134 10.62 1.024 1.098 2.178 2.046 3.395 2.912-.73.58-.97 1.874.062 2.54.581.373 1.174.725 1.773 1.064.112.281.308.52.604.644l7.895 3.337c.388.164.73.268 1.156.151.144-.04.29-.114.428-.205 1.512.351 3.048.601 4.594.768-.322.28-.536.682-.516 1.115.037.823.66 1.486 1.5 1.5 2.705.044 5.45-.784 7.646-2.37.126-.092.237-.202.337-.32.326-.04.653-.075.978-.124 1.902-.288 1.094-3.178-.798-2.893" fill="#C3996B"/><path d="M330.878 293.81c-.223-.507-.86-.747-1.409-.715a2.699 2.699 0 00-.645-.276 1.931 1.931 0 00-.175-.862l-1.869-4.2c-.03-.071-.07-.13-.11-.19-.205-.485-.419-.965-.615-1.453-.3-.752-1-1.281-1.845-1.048-.718.197-1.346 1.087-1.048 1.846.121.308.237.624.356.936a1.233 1.233 0 00-.255.465c-.802.25-1.393 1.064-.902 1.96-.546.334-.934.956-.755 1.664a.19.19 0 00.007.028c-.806.255-1.426 1.16-.92 2.164l.16.318c-.635.15-1.173.648-1.117 1.405l.04.537a1.327 1.327 0 00-.682-.296c-.727-.087-1.449.34-1.646 1.074l-1.2 4.49a1.495 1.495 0 00-.004.722c-.11.056-.22.122-.327.208-.39.313-.727.679-1.017 1.078-.355-1.457-2.686-1.421-2.925.112a1.416 1.416 0 00-.893.814 1.535 1.535 0 00-.27.84 41.183 41.183 0 00.35 6.239c.123.924.863 1.758 1.9 1.447 1.808-.545 3.241-1.67 4.706-2.817l1.872-1.464c.362.113.76.089 1.124-.153a13.61 13.61 0 003.691-3.634c1.894-1.54 3.693-3.195 5.022-5.268.36-.561.71-1.182.981-1.831.937-1.234 1.057-2.687.42-4.14m-22.356 7.538c-.994-1.652-3.59-.146-2.59 1.514 1.463 2.43 1.444 5.317 1.436 8.067-.011 3.284-.027 6.568-.04 9.852-.007 1.93 2.993 1.933 3 0 .014-3.495.046-6.99.041-10.482-.004-3.083-.218-6.247-1.847-8.951m-93.648 7.282c-1.195-.568-2.078-1.527-3.003-2.451a249.671 249.671 0 01-6.457-6.703c-.831-.896-1.724-1.784-1.994-3.015-.174-.792-1.094-1.254-1.846-1.048-.816.225-1.221 1.052-1.048 1.846.337 1.533 1.325 2.767 2.362 3.9a200.907 200.907 0 003.38 3.59 247.975 247.975 0 003.482 3.551c1.093 1.092 2.196 2.248 3.61 2.921.732.347 1.619.202 2.053-.538.382-.655.196-1.703-.54-2.053m48.799-52.606c-1.867-.604-4.049-1.306-5.063-2.91-.286-.454-.443-.94-.848-1.315-.562-.517-1.292-.574-2.016-.51a31.67 31.67 0 00-3.924.59c-.792.17-1.253 1.095-1.047 1.844.225.82 1.05 1.22 1.845 1.048a24.763 24.763 0 013.193-.487c.051.093.108.183.16.27.29.477.652.932 1.046 1.328 1.592 1.603 3.756 2.356 5.857 3.035.771.25 1.637-.29 1.845-1.048.223-.812-.275-1.595-1.048-1.845" fill="#27A9E0"/><path d="M311.602 327.943c-.078-.778-.634-1.538-1.5-1.5-.745.034-1.584.664-1.5 1.5l.845 8.372c.08.778.634 1.54 1.5 1.5.745-.033 1.585-.664 1.5-1.5l-.845-8.372m-.854 25.704c-.001.265-.024.524-.035.787-.543.205-1.005.672-1.057 1.35-.248 3.234-.466 6.692-1.99 9.626-1.161 2.234-3.22 4.384-5.845 4.697-.803.097-1.5.62-1.5 1.5 0 .736.69 1.597 1.5 1.5 3.543-.422 6.418-2.66 8.18-5.716.9-1.563 1.455-3.26 1.832-5.003.259-.173.478-.44.61-.83a24.982 24.982 0 001.305-7.911c.007-1.931-2.993-1.934-3 0m2.562-8.321l-.988-6.284c-.055-.348-.4-.727-.689-.897-.322-.187-.796-.267-1.156-.15-.845.272-1.179 1.012-1.048 1.845.33 2.094.66 4.19.988 6.284.055.347.4.726.69.896.321.188.795.268 1.155.151.846-.274 1.18-1.012 1.048-1.845m16.942-48.236c-3.235 1.893-5.553 5.49-9.389 6.247-1.96.386-4.583.49-6.504-.134-1.359-.442-2.319-1.507-3.128-2.658a.863.863 0 00-.126-.467 57.59 57.59 0 01-3.206-5.637c-.233-.471-.935-.638-1.368-.36-.48.31-.607.866-.358 1.368.087.176.186.345.275.52-.133.225-.185.49-.085.736.414 1.015.83 2.03 1.243 3.045-.793.132-1.535.824-1.31 1.842.528 2.412 1.051 4.848 1.394 7.295.302 2.165-.038 4.41-.252 6.585-.062.162-.1.337-.094.525.065 2.442.047 4.884-.058 7.323-.034.786.714 1.536 1.5 1.5.841-.038 1.464-.66 1.5-1.5.101-2.355.118-4.712.06-7.07.018-.081.034-.164.041-.25.127-1.448.297-2.897.357-4.346.207.474.487.894.897 1.189 1.035.746 2.312.41 3.35-.143 1.29-.688 2.494-1.638 3.698-2.468 4.828-3.334 9.47-6.978 12.931-11.773.608-.841-.556-1.843-1.368-1.368m-111.424 15.322a207.85 207.85 0 01-8.963-11.223c-.466-.626-1.295-.493-1.693-.059a112.673 112.673 0 01-3.5-3.878 6.378 6.378 0 01.004-.829c.06-.85-.788-1.122-1.401-.847-.422-.509-.858-1.005-1.27-1.522-.547-.689-1.736-.107-1.707.707.164 4.654 3.24 8.251 6.552 11.208 1.799 1.605 3.645 3.162 5.497 4.706 1.68 1.402 3.418 2.69 5.507 3.41 1.02.35 1.57-.977.974-1.673m20.997-58.292c-.132-.477-.727-.899-1.23-.698-3.416 1.361-7.305 2.334-9.757 5.282-.346.415-.408 1.008 0 1.414.354.356 1.067.417 1.414 0 2.225-2.676 5.772-3.53 8.874-4.768.502-.2.853-.668.699-1.23" fill="#1C75BB"/><path d="M218.407 328.915c-.197-.81-.49-1.604-.821-2.389a14.994 14.994 0 00-.64-2.273.819.819 0 01-.01-.048c-.312-1.442-.72-2.863-1.743-3.975-.074-.08-.156-.122-.236-.169-.99-2.297-2.152-4.533-3.304-6.714-.285-.539-.818-.587-1.241-.377a11.24 11.24 0 01-.79-2.936c-.004-.036-.02-.066-.027-.1.355-.35.47-.907-.011-1.333a54.124 54.124 0 01-8.621-9.703c-.308-.443-.877-.645-1.368-.358-.297.173-.481.531-.485.884a43.257 43.257 0 01-2.218 5.038c-.805 1.552-1.86 3.021-2.407 4.693-.595 1.82-.322 3.722.559 5.321.117.823.462 1.462.895 2.18.442.73.825 1.491 1.185 2.265.72 1.546 1.342 3.14 2.176 4.631.79 1.411 1.8 2.621 2.95 3.754 1.155 1.138 2.33 2.234 2.996 3.745.007.016.019.023.027.04-.026.081-.061.16-.085.242-.138.504.172 1.11.699 1.23.529.121 1.082-.159 1.23-.698.04-.147.095-.29.15-.432a4.7 4.7 0 01.425-.729c.213-.263.452-.5.715-.714a4.74 4.74 0 01.732-.427c.127-.048.254-.098.386-.135a.994.994 0 00.37-.21c-.04.27-.076.542-.113.813l-.062.08-.001.002c-2.173 2.712-3.666 5.908-4.24 9.345-.082.49.119.977.585 1.172a7.091 7.091 0 001.496 2.357 1.699 1.699 0 01-.75.03c-.206-.047-.3-.086-.372-.133-.01-.006-.238-.18-.122-.076-.024-.022-.205-.223-.111-.098a1.183 1.183 0 00-.73-.462 9.176 9.176 0 00-2.053-3.316c-.765-.79-1.841-1.637-2.971-2.069-.661-.654-1.386-1.23-2.233-1.555a.83.83 0 00-.657.008 1.18 1.18 0 00-.463.11c-.634.307-.821.997-.845 1.647-.026.663.007 1.336.105 1.992.205 1.371 1.01 2.51 1.777 3.627.784 1.147 1.748 2.254 2.9 3.021.695.903 1.915 1.25 3.042 1.44 1.346.227 2.7.196 4.035-.092a10.37 10.37 0 002.188-.748c2.943-.382 4.585-3.079 5.609-5.659.53-1.34.897-2.739 1.135-4.162.015.001.03.005.047.005.595 0 .933-.46 1-1 .267-2.145.838-4.44.316-6.582m116.908-10.979c-.002-.008-.007-.012-.009-.02a5.365 5.365 0 00-.028-1.052c-.212-1.598-1.086-2.944-2.041-4.2l-.006-.01c-.001 0-.002 0-.002.002-.052-.07-.102-.137-.154-.204a.768.768 0 00-.742-.311 9.402 9.402 0 00-.504-1.048.953.953 0 00-.338-.344 25.246 25.246 0 00-2.263-5.128c-.178-.305-.434-.446-.701-.471a1.182 1.182 0 00-.406-.517l-.326-.23c-.321-.226-.824-.15-1.111.079a.963.963 0 00-.326.462c-.693.22-1.029 1.054-1.437 1.608-2.235 3.039-6.089 4.67-9.308 6.416a1.08 1.08 0 00-.272.21c-.78-.122-1.637.639-1.053 1.423a9362.1 9362.1 0 003.746 5.027c.421.566 1.338.723 1.726 0 .096-.176.162-.357.208-.54.279-.066.538-.238.696-.466.013-.021.03-.04.044-.06.262-.03.525-.162.73-.454.019-.026.035-.054.053-.081.27.144.589.159.877-.014.009.529.019 1.06.038 1.59-1.848 1.34-2.615 3.759-3.745 5.709-1.156 1.995-2.759 3.859-3.47 6.059-2.857 2.813-1.514 6.988-1.08 10.476.174 1.395.153 2.819.385 4.199-.952 1.152.581 2.83 1.289 3.792.999 1.359 2.026 2.852 3.593 3.605 3.2 1.538 6.753-.174 8.565-2.974.285-.44.518-.907.726-1.384.067-.112.136-.223.195-.336.694-1.334.988-2.816 1.318-4.27.19-.832.463-1.726.252-2.581-.194-.791-.826-1.522-1.656-1.647-.533-.081-1.075.134-1.231.699a.97.97 0 00-.013.403c-.356.259-.654.625-.938.952-.59.68-1.161 1.385-1.654 2.139-.54.828-.978 1.757-1.21 2.727a1.766 1.766 0 00-.198-.366c-.059-.078-.125-.14-.19-.207 0-.045.008-.09.007-.135a4.408 4.408 0 00-.132-.933c-.004-.05.006-.097-.006-.15a2.823 2.823 0 00-.374-.865c-.394-.764-1-1.413-1.787-1.745-.891-.376-2.287-.172-2.489.968a1.21 1.21 0 00.126.787c-.029.083-.059.166-.08.252l-.019-.057a.921.921 0 00-.316-.44c.124-.661.265-1.331.463-1.977a.81.81 0 00.441-.284c.055-.067.099-.14.15-.207l.007.005c.017-.03.037-.06.054-.091.244-.335.463-.68.635-1.045a70.282 70.282 0 012.44-3.793 24.703 24.703 0 003.187-2.62c.063-.062.102-.144.145-.222a25.739 25.739 0 001.613-1.757c.271.044.569-.006.842-.224 1.257-1.003 2.785-2.67 3.015-4.333.006-.041 0-.084.004-.125.462-.608.901-1.23 1.305-1.875 1.803-2.223 3.504-4.8 2.74-7.796" fill="#E4C3A2"/><path d="M216.98 324.12a.787.787 0 00-.277-.319c-.632-1.82-1.708-3.506-2.728-5.158-1.805-2.923-2.981-6.154-4.274-9.324-.283-.69-1.064-.796-1.564-.525-.435-.766-.898-1.516-1.441-2.219-1.324-1.71-3.067-3.21-3.487-5.426-.167-.88-1.143-.875-1.645-.37a8.996 8.996 0 01-.232-1.164c-.162-1.259-2.164-1.275-2 0 .407 3.178 2.11 5.775 3.796 8.423 1.817 2.852 3.63 5.708 5.289 8.656 3.274 5.824 5.939 12.1 6.272 18.852a.961.961 0 00.14.463c-.024 2.16-.456 4.322-1.367 6.287-.406.877-.869 1.79-1.604 2.44-.775.685-1.825.955-2.797 1.234-1.235.353-.71 2.284.532 1.928 1.192-.34 2.389-.72 3.375-1.497.626-.493 1.113-1.123 1.526-1.8.15-.086.29-.194.395-.344a12.287 12.287 0 001.637-3.268c.051.008.1.031.15.03.575-.027.959-.44 1-1a21.783 21.783 0 00-.119-4.296c.105-.562.183-1.126.227-1.693.012-.05.037-.09.044-.144.37-3.299.619-6.684-.848-9.767" fill="#C3996B"/><path d="M210.45 328.731c-1.853 1.53-2.936 3.712-3.88 5.873-.524 1.201-1.106 2.44-1.141 3.774-.017.65.126 1.273.388 1.863.218.491.634 1.007.696 1.551.145 1.246 1.979 1.32 2 0a22.277 22.277 0 013.103-10.977.96.96 0 00.135-.566c.039-.034.074-.07.113-.104.993-.82-.43-2.227-1.414-1.413m111.345-11.41c.045-.298-.02-.608-.26-.83l-4.129-3.828c-.367-.34-.91-.389-1.312-.078-.062.048-.106.11-.153.17-.319-.048-.663.031-.874.26-.387.422-.368.993 0 1.414 1.185 1.361 2.37 2.72 3.553 4.08.034.04.082.057.122.088-.028.225-.005.454.11.631.323.501.851.58 1.368.36-.09.037.05-.018.068-.024.07-.024.14-.049.21-.07.158-.05.32-.09.482-.123.19-.038.087-.026.281-.04.165-.016.331-.019.497-.018.523.005 1.023-.463 1-1-.024-.532-.422-.966-.963-.992" fill="#C3996B"/><path d="M326.584 317.92c-4.559-.316-7.02 3.993-8.879 7.447-1.287 2.395-2.406 4.82-3.268 7.337-.08.176-.154.354-.226.531-.407-.009-.818.187-.977.685a10.509 10.509 0 00.113 6.639c.095.268.282.483.515.61a23.6 23.6 0 00.023 2.438c-.416.22-.642.66-.53 1.14.556 2.39 1.307 4.895 3.16 6.617.145.135.318.221.5.26.149.157.294.32.445.474.672.681 1.424 1.311 2.292 1.725.376.18.812.157 1.125-.09.83.432 1.684.812 2.576 1.107 1.225.405 1.75-1.525.531-1.929-1.305-.431-2.512-1.07-3.672-1.803a39.19 39.19 0 01-1.718-1.163c-.32-.227-.693-.456-1.036-.706a24.36 24.36 0 01-1.29-2.641 19.126 19.126 0 01-.31-1.872 22.718 22.718 0 01-.034-4.561c.03-.326-.08-.566-.259-.725.022-4.139 2.071-7.838 4.158-11.304 1.908-3.171 3.88-6.571 7.265-8.353.936-.493.422-1.8-.504-1.863" fill="#C3996B"/><path d="M320.029 345.42l-.004.004-.032.032a.345.345 0 00.07-.062l-.006.004a.193.193 0 00-.028.022" fill="#C3996B"/><path d="M323.42 344.475c-1.018-.751-2.162-1.42-3.476-1.171a2.702 2.702 0 00-1.462.84 2.23 2.23 0 00-.539 1.948c.094.516.747.855 1.23.698.527-.17.766-.633.7-1.155l.008-.014-.002-.016.002.014c.003-.006.003-.003.006-.011.003-.01.006-.022.011-.033l.004-.008c.01-.013.02-.032.035-.053l.055-.058a.196.196 0 01.036-.036c.025-.022.054-.043.078-.067-.02.02-.029.027-.043.04.061-.038.125-.07.188-.103.04-.01.078-.024.118-.034a.915.915 0 01.065-.014c.074-.002.165.016.238.006.051.01.101.022.15.035a3.6 3.6 0 01.3.097c.048.026.098.047.146.072.405.21.776.479 1.142.75.196.145.546.163.771.1.231-.063.483-.242.597-.46.276-.521.092-1.034-.359-1.367" fill="#C3996B"/><path d="M319.881 345.618v.002c.007.095.032.181 0-.002" fill="#C3996B"/><g transform="translate(192 247.916)"><mask id="b" fill="#fff"><use xlink:href="#a"/></mask><path d="M135.294 54.415c-.354.116-.643.394-.7.738a48.872 48.872 0 01-1.788 1.748 39.277 39.277 0 01-13.303 8.085l-.73-8.05c.348-.314.388-.8.203-1.229-.298-.687-.577-1.38-.86-2.072-.02-.233-.043-.465-.054-.699-.05.001-.097.012-.148.011-.028 0-.057-.004-.084-.005a110.64 110.64 0 01-3.538-10.26c-.358-1.236-2.289-.71-1.929.53a113.323 113.323 0 004.252 11.98c.714 7.876 1.43 15.752 2.143 23.627.61 6.707 1.236 13.413 1.825 20.122.427 4.854.691 9.912-.553 14.672-1.344 5.14-4.729 8.865-9.864 10.401-2.777.83-5.676 1.112-8.55 1.37-3.293.293-6.593.507-9.895.638-13.28.535-26.62-.216-39.748-2.286-10.87-1.714-24.78-3.692-31.62-13.413 2.385-4.07 3.831-8.589 4.962-13.155 1.267-5.11 2.362-10.259 3.69-15.355a289.639 289.639 0 012.008-7.257c.241-1.967.752-3.874 1.642-5.579a330.472 330.472 0 016.17-18.404 330.53 330.53 0 016.937-17.25c.51-1.169-1.214-2.188-1.727-1.01a335.502 335.502 0 00-11.54 30.42 284.028 284.028 0 00-1.838 5.912c-.119-.04-.23-.099-.348-.144a.945.945 0 00-.595-.496 12.547 12.547 0 01-2.283-.985 21.031 21.031 0 01-2.087-1.533c-.16-.038-.309-.113-.463-.173l-.015.061c-.93-.677-1.832-1.394-2.723-2.067a83.999 83.999 0 01-3.255-2.577c-.017-.06-.038-.119-.055-.18-.137-.517-.548-.714-.96-.695a51.762 51.762 0 01-2.035-1.855c-3.443-3.329-6.44-7.336-7.453-12.064a.494.494 0 00.036-.01 3.907 3.907 0 01-.145-.503c-.026-.144-.044-.29-.066-.437-.12-1.295.54-2.434 1.37-3.699a476.064 476.064 0 012.803-4.229c7.332-10.906 15.76-22.075 27.93-27.859 3.916-1.86 8.127-2.986 12.377-3.787 2.11-.397 4.233-.719 6.36-1.019.258-.037.582-.1.942-.168 0-.059-.003-.119-.002-.178a64.588 64.588 0 015.23-.616c.071-.005.136-.033.203-.05.204 1.376 1.118 2.631 2.35 3.277 1.728 1.995 4.348 3.223 7.034 2.957 3.797-.375 6.828-3.566 7.372-7.246C93 5.821 103.855 9.395 113.981 14.601a96.558 96.558 0 014.475 2.472l-.027-.057c7.801 7.633 13.927 16.88 17.87 27.067-.084.363.015.733.35.923.064.175.134.346.198.521.278.766 1.161.827 1.652.46.268.336.46.744.558 1.203.277 1.297-.312 2.596-.985 3.672-.789 1.262-1.75 2.44-2.778 3.553M123.832 70.13a31.401 31.401 0 012.505 2.84c.115.145-.022-.03.102.131.06.078.134.142.21.207-.433.74-.825 1.496-1.213 2.175l-4.298 7.518-1.452-16.012c.08-.008.157-.003.246-.035.185-.066.365-.144.55-.214-.005.253.073.502.283.667a32.602 32.602 0 013.067 2.723m-8.036 96.168c.203 2.372.423 4.742.66 7.111.214 2.143.581 4.316.605 6.471.02 2.057-.693 3.706-2.519 4.734-1.646.928-3.6 1.287-5.433 1.652-4.399.875-8.88 1.25-13.36 1.336-4.52.086-9.042-.12-13.552-.423-2.29-.155-4.597-.27-6.88-.517-1.142-.123-1.589-.606-1.764-1.73-.172-1.11-.207-2.263-.244-3.383-.305-9.355 1.89-18.983-1.137-28.075a77.212 77.212 0 013.468-10.804c.203-.5-.22-1.1-.699-1.23-.572-.158-1.026.196-1.23.698a77.365 77.365 0 00-2.872 8.484.967.967 0 00-.649.621 108.438 108.438 0 00-4.665 17.685 110.271 110.271 0 00-1.199 9.11c-.228 2.576-.167 5.44-1.395 7.793-1.302 2.49-3.965 3.286-6.595 3.487-2.976.228-6.014.038-8.977-.266-6.395-.66-12.666-2.205-18.868-3.856-2.957-.787-6.518-1.308-8.993-3.232-1.142-.889-2.097-2.199-2.183-3.686-.049-.816.202-1.583.567-2.306-.048-1.19.127-2.362.491-3.49-.042-.004-.082-.022-.124-.02a190803.04 190803.04 0 017.55-39.58c.868-4.553 1.895-9.14 1.814-13.799 5.54 2.976 12.053 4.465 18.108 5.597a205.617 205.617 0 0041.166 3.48c6.594-.109 13.312-.353 19.841-1.357 2.545-.392 5.02-1.09 7.225-2.23.03 9.328.31 18.655.853 27.968.266 4.59.597 9.176.99 13.757m-18.78 78.45c-.312 2.442-.764 4.921-.945 7.381-.169.301-.205.682-.032 1.005.08 1.27.68 2.48 2.117 2.551a.846.846 0 00.782-.377c3.405 2.54 6.524 5.523 9.097 8.894-.02.033-.05.05-.07.086-1.147 2.213-1.798 4.637-1.858 7.132a16.096 16.096 0 00.37 3.772c.047.227.164.494.158.725-.008.294.16.194-.15.19-.51-.009-1.16-.359-1.658-.489-4.9-1.278-10.104-.748-14.692 1.361-.724.332-.608 1.121-.139 1.545-3.253-1.797-6.306-4.01-8.775-6.656-2.276-2.435-3.65-5.38-3.943-8.713-.128-1.459-.087-2.919.044-4.373v-.008c.16-1.762.453-3.519.77-5.257a.988.988 0 00.233-.543 575.18 575.18 0 002.604-49.559c.043-4.693.025-9.386-.045-14.078-.002-.097-.034-.172-.056-.254 3.545.253 7.093.458 10.647.52 4.298.074 8.6-.089 12.868-.597a6489.31 6489.31 0 00-7.328 55.742m12.33 21.285c2.774 4.193 4.845 10.317.977 14.531-3.603 3.928-9.838 2.46-14.173.806a48.858 48.858 0 01-5.719-2.615c.218.062.461.068.715-.049a19.649 19.649 0 017.738-1.78 19.303 19.303 0 013.9.287c1.22.221 2.45.814 3.677.903 1.072.077 1.965-.532 2.147-1.614.184-1.098-.346-2.302-.446-3.395a14.165 14.165 0 011.183-7.074M48.77 220.81a1.026 1.026 0 00-.163.458 749.894 749.894 0 00-1.993 23.916c-.035.531.29.83.685.92.352 3.535.822 7.107.134 10.594-.808 4.094-2.78 7.821-4.942 11.347-.456.744-.916 1.517-1.39 2.292-.065-.443-.367-.86-.936-.9a41.83 41.83 0 00-17.452 2.596 52.67 52.67 0 00-2.176-13.753 1.015 1.015 0 00-.208-.385c.536-.49 1.06-.973 1.546-1.45 2.64-2.583 4.66-5.509 5.193-9.24.284-1.973.216-3.95.093-5.93-.026.007-.052.01-.077.016l-.91-18.894c-.003-.047-.025-.082-.032-.126l.513-35.439c1.838.485 3.691.928 5.52 1.384 3.435.858 6.895 1.632 10.391 2.196 3.41.55 6.852.921 10.307.976.2.004.401.005.604.006-2.069 9.72-3.62 19.542-4.707 29.416m-14.017 56.463c-3.56 1.905-8.28 2.214-12.186 1.391-3.823-.805-7.37-3.056-8.886-6.787a9.48 9.48 0 01-.357-1.086c.067-.157.126-.314.205-.469.027-.052.043-.103.061-.155a5.984 5.984 0 01-.187-.945 1.163 1.163 0 00-.346-.282c-.104-3.833 2.76-6.879 5.7-9.603a50.734 50.734 0 011.978 14.133c0 .584.652 1.217 1.266.964a40.484 40.484 0 0118.164-2.997c.1.007.178-.019.262-.036-1.509 2.344-3.246 4.574-5.674 5.872M20.321 64.41c.221.17.44.343.662.512 1.827 1.385 3.671 2.87 5.71 3.954 1.07.681 2.194 1.265 3.391 1.68a342.822 342.822 0 00-2.408 8.677 15.457 15.457 0 00-.223-1.072c-1.286-5.094-4.85-9.123-7.132-13.75m122.107-.648a178.543 178.543 0 00-5.44-8.236c1.717-1.836 3.445-3.966 3.974-6.329.511-2.28-.476-5.12-2.815-5.854-4.433-11.392-11.468-21.666-20.552-29.867-.478-.43-1.072-.292-1.425.063-4.234-2.247-8.605-4.232-12.994-5.98C96.081 4.731 88.811 2.381 81.537.065c-.613-.195-1.279.333-1.265.964.068 3.228-2.477 6.407-5.806 6.614-1.735.11-3.372-.565-4.605-1.692-.039-.403-.293-.77-.713-.88-.044-.01-.085-.027-.128-.04a6.578 6.578 0 01-1.215-2.67c-.096-.473-.427-.689-.79-.712-.174-.14-.408-.249-.626-.239a1.07 1.07 0 00-.599.221c-.165-.127-.356-.216-.57-.2a69.253 69.253 0 00-9.289 1.333c-.095.02-.172.072-.25.121-3.895.605-7.777 1.363-11.516 2.621-7.033 2.366-13.213 6.577-18.51 11.721-5.299 5.146-9.743 11.112-13.898 17.196a347.278 347.278 0 00-3.05 4.555c-1.01 1.532-2.37 3.145-2.586 5.027-.097.843.062 1.638.347 2.395.151.672.341 1.327.555 1.972-.028.042-.065.066-.089.116-1.807 3.645-3.618 7.288-5.42 10.936-.72 1.457-1.452 2.958-1.285 4.63.157 1.564 1.002 3.052 1.675 4.446 3.083 6.388 6.99 12.341 11.545 17.771a14.426 14.426 0 00-.616 3.242c-.039.54.487 1 1 1 .573 0 .961-.459 1-1a12.115 12.115 0 013.011-7.11c.358-.403.396-1.017 0-1.415-.366-.365-1.054-.404-1.415 0a14.245 14.245 0 00-2.135 3.175 83.572 83.572 0 01-10.076-15.48c-.708-1.409-1.643-2.935-1.953-4.494-.342-1.712.801-3.406 1.53-4.872l4.22-8.518c1.474 3.108 3.633 5.886 6.14 8.353a53.455 53.455 0 002.997 2.715c1.334 4.261 4.077 7.835 6.231 11.707 1.204 2.165 2.202 4.477 2.48 6.962.335 2.985-.206 6-.968 8.878-.673 2.544-1.603 5.156-3.51 7.05-1.596 1.583-3.768 2.582-5.997 2.84-4.87.561-9.37-2.716-10.622-7.415-.289-1.087-.519-2.412-.116-3.502.632-1.704 2.256-.33 3.256.352 2.428 1.657 4.411 3.867 5.892 6.398.65 1.111 2.38.105 1.727-1.009A22.157 22.157 0 009.4 87.353c-1.919-1.393-4.775-3.107-6.335-.306-1.217 2.184-.498 5.166.475 7.302 1.106 2.425 3.046 4.531 5.425 5.754 4.652 2.394 10.698 1.228 14.203-2.63-1.058 4.087-2.377 8.1-4.504 11.764-.486.173-.852.666-.636 1.215-.11.518.265.955.738 1.093 1.94 2.71 4.377 4.835 7.111 6.536a.898.898 0 00-.264.686c.138 4.838-.98 9.591-1.882 14.316l-2.656 13.918-5.356 28.081a.981.981 0 00.124.698c-.583 1.495-.727 3.071.02 4.755 1.146 2.59 3.651 4.055 6.224 4.941a55.81 55.81 0 002.576.81c-.182 12.625-.366 25.25-.549 37.873.047-.01.096-.015.144-.024l.891 18.525c.01.176.06.321.13.45.02.967.008 1.935-.074 2.905-.33 3.945-2.429 6.821-5.208 9.462-4.36 4.147-10.159 8.654-8.76 15.22-1.083 3.433.015 7.216 2.405 9.94 3.164 3.607 8.378 4.632 12.962 4.142 8.794-.939 16.552-6.68 20.826-14.312 2.406-4.298 3.694-9.178 3.55-14.11-.025-.785-.78-1.087-1.356-.912.031-.268.077-.535.098-.805.22-2.799-.208-5.59-.449-8.373a84.028 84.028 0 01-.265-4.728c-.039.02-.082.03-.123.047.442-6.13.953-12.257 1.545-18.376.02.01.04.016.058.025a294.725 294.725 0 014.945-31.447c.032-.15.03-.289.005-.416 2.012-.074 4.03-.35 5.835-1.238 5.545-2.724 4.777-10.222 5.396-15.366.773-6.424 2.177-12.764 4.108-18.938 2.098 8.224.311 16.87.52 25.265.046 1.863-.107 4.315.86 5.985.988 1.706 3.102 1.58 4.818 1.713.661.052 1.322.101 1.983.15a.975.975 0 00-.074.394 574.942 574.942 0 01-1.384 49.608c-.31 4.355-.678 8.705-1.087 13.052a.972.972 0 00-.126.31c-.364 1.973-.705 3.998-.888 6.016-4.05 7.57-.37 16.72 5.826 21.89 3.407 2.846 7.417 4.804 11.555 6.345 4.145 1.543 8.963 3.381 13.377 1.891 4.097-1.384 7.322-5.03 7.964-9.334a1.014 1.014 0 00-.259-.85c1.062-3.462.344-7.534-1.315-10.772-3.158-6.16-8.692-11.342-14.4-15.207.223-2.934 1.121-9.526 1.213-10.253a6368.781 6368.781 0 016.98-53.008c.013-.092-.007-.172-.016-.256 3.574-.474 7.967-.99 10.682-3.47 3.248-2.967 1.83-8.087 1.45-11.89a502.73 502.73 0 01-1.272-14.969 508.94 508.94 0 01-1.233-33.96.89.89 0 00-.463-.807c1.762-1.164 3.295-2.672 4.465-4.627 2.521-4.216 3.022-9.367 2.96-14.18-.008-.536-.026-1.072-.044-1.608 1.268 1.577 2.696 3.12 4.523 4.007 2.263 1.098 4.807.927 6.914-.458 1.376-.907 2.4-2.145 3.208-3.53-.53-.329-.96-.817-1.152-1.44a3.163 3.163 0 01-.17-.278c-.356.704-.76 1.385-1.253 1.996-1.489 1.846-3.833 3.037-6.18 2.137-2.158-.827-3.722-2.863-5.09-4.628-.212-.272-.577-.32-.909-.245-.279-4.83-.873-9.663-1.317-14.467a1.02 1.02 0 00.237-.27l4.898-8.566c.748-1.31 1.457-2.654 2.264-3.927.552-.869 1.324-1.96 2.444-2.055 1.274-.107 1.284-2.108 0-2-1.513.128-2.614.977-3.504 2.085-1.633-2.063-3.467-3.944-5.54-5.573 4.98-2.12 9.531-5.184 13.333-9.054a176.94 176.94 0 014.507 6.788c1.612 2.567 4.141 5.55 3.09 8.75-.219.667-.528 1.31-.864 1.94.668-.026 1.347.222 1.884.655.488-.929.925-1.887 1.138-2.91.658-3.172-1.319-5.897-2.902-8.452" fill="#231F20" mask="url(#b)"/></g><path d="M335.1 320.033c-1.846 5.364-5.103 10.176-9.323 13.942a22.381 22.381 0 00-5.694 5.478c-.307.426-.087 1.133.36 1.368.517.274 1.04.096 1.367-.358a19.232 19.232 0 01.352-.473 16.447 16.447 0 01.194-.244 19.986 19.986 0 012.028-2.168c.011.02.021.042.03.063a35.446 35.446 0 002.482-2.017c.263-.173.516-.362.785-.525a1.04 1.04 0 00.46-.625c3.99-3.863 7.064-8.61 8.887-13.91.42-1.219-1.512-1.743-1.929-.53m-4.007 20.1c-.648-.893-1.682-1.32-2.757-.973-1.048.339-2.006 1.325-2.745 2.107a14.07 14.07 0 00-1.393 1.767c-.802-.867-1.767-1.564-2.997-1.645-1.613-.108-3.308 1.043-3.336 2.75-.008.523.466 1.023 1 1 .55-.025.992-.44 1-1l.001-.047.032-.133c.023-.037.045-.077.065-.115.003-.006 0-.002.002-.007.045-.046.087-.093.134-.136.036-.034.18-.102.052-.048-.136.058.03-.015.064-.037.06-.036.12-.065.178-.1.01-.004.011-.006.016-.01.11-.036.218-.072.331-.098a4.68 4.68 0 01.126-.025h.092c.058-.002.116.002.174.002.02 0 .017-.002.03-.002.125.032.25.062.374.1l.033.008c.002 0 0 0 .003.002.074.038.15.073.224.114.135.074.262.159.39.247.021.016.02.014.03.019.008.01.008.01.033.033.052.048.107.093.16.14.233.215.447.448.65.692l.091.114a14.54 14.54 0 00-.883 2.222c-.365 1.237 1.564 1.765 1.928.532.187-.636.44-1.25.722-1.847l.006-.001c.3-.193.506-.572.492-.94a11.51 11.51 0 011.241-1.751c.554-.636 1.176-1.267 1.87-1.751.25-.175.478-.364.76-.223.225.113.37.498.448.72.572 1.64.058 3.71-.472 5.293-.646 1.929-1.643 3.72-2.633 5.49-.629 1.124 1.098 2.134 1.727 1.009 1.221-2.183 2.446-4.425 3.104-6.855.545-2.014.95-4.804-.367-6.617" fill="#231F20"/></g></svg>