<svg width="500" height="600" xmlns="http://www.w3.org/2000/svg"><g fill="none" fill-rule="evenodd"><path d="M310.576 335.917c-3.03 2.62-6.854 4.46-9.198 7.708-.06.082-.128.143-.19.216-.46.731-1.245 1.255-2.374 1.255-.036 0-.064-.01-.099-.012a3.497 3.497 0 00-1.567-1.685c-2.032-1.073-4.207-.412-5.472 1.436-.135.196-.27.393-.409.587-.129.183-.178.271-.18.292-.228.284-.519.554-.762.79-.046.044-.224.17-.33.27-.024.013-.046.03-.068.041a2.831 2.831 0 00-.129.08 6.577 6.577 0 01-.136.026c-1.289-.347-2.57-.646-3.922-.689-.523.935-1.54 1.633-2.6 1.57-.914-.055-1.138-.004-1.867.132a36.65 36.65 0 01-2.78.43 2.212 2.212 0 01-1.237-.23c-2.102.44-4.232.78-6.243 1.174-3.943.773-7.799 1.172-11.722.504-.348.153-.75.242-1.21.242-2.229 0-3.148-2.008-2.782-3.69a12.612 12.612 0 01-1.395-.19c-1.682-.336-3.628-1.214-5.423-1.887a24.25 24.25 0 01-4-.956 2.93 2.93 0 01-.977-.545c-.53.17-1.058.341-1.58.523-1.04.362-2.15.156-3.07-.389-2.58.244-5.196.256-7.698.258-1.133 0-2.004-.39-2.647-.985a75.093 75.093 0 01-5.354-1.098 4.09 4.09 0 01-1.41-.636 28.947 28.947 0 01-4.843-1.859 19.124 19.124 0 00-.465 1.916 219 219 0 01-.525 1.001c-1.06 2.013-1.078 4.556-.018 6.525-.78.701-1.26 1.66-1.472 2.684-1.113.781-1.739 2.026-1.928 3.346-2.365 2.74-1.273 8.151 3.267 8.42.614 1.644 2.042 2.94 4.275 3.015.804.91 1.996 1.515 3.58 1.515.183 0 .351-.02.523-.037.658.594 1.535.984 2.6 1.102.765.703 1.814 1.15 3.138 1.178.794 1.115 2.084 1.887 3.875 1.887.701 0 1.316-.13 1.864-.342.71.447 1.587.718 2.641.718a5.33 5.33 0 001.276-.159c.6.326 1.297.544 2.096.613 4.063.355 8.131.64 12.202.891a148.05 148.05 0 0047.37-.894c.824-.15 1.484-.45 2.014-.844.121.007.238.017.363.017 2.394 0 3.885-1.388 4.498-3.127 2.078-1.029 2.901-3.479 2.468-5.637 3.175-7.652 1.4-17.942.032-26.47m5.915-66.212a3.31 3.31 0 01-.22-.815 5.955 5.955 0 00-1.843-.777 100.019 100.019 0 01-6.145-6.143c-1.917-2.09-4.355-1.89-6.116-.608-2.945-2.59-6.435-4.574-10.427-5.8a5.318 5.318 0 00-1.309-.23l-2.305-1.29c-1.602-.895-3.156-.833-4.43-.216a38.838 38.838 0 00-7.355-3.513c-1.687-.6-3.105-.287-4.148.522-1.875.846-2.78 2.82-2.72 4.76-.008.044-.023.084-.032.127-.004.002-.01.002-.013.004l.04-.296c-.018.103-.045.2-.068.3-.11.026-.222.054-.338.073l.245-.034c-.799.152-1.529.423-2.187.92l-.874-.138a5.36 5.36 0 00-1.914.03c-.922-.32-1.93-.32-2.87-.06-.628-.674-1.258-1.345-1.87-2.04a7.085 7.085 0 00-1.13-1.035c-1.042-1.09-2.54-1.803-4.5-1.803-.273 0-.528.029-.783.056-.824-.453-1.8-.74-2.932-.794-12.49-.603-23.708 5.399-30.728 15.056a7.81 7.81 0 00-1.36.949 34.173 34.173 0 00-6.52 7.742c-1.358.717-2.445 1.933-3.18 3.502l-.15.287c-.149.285-.29.575-.448.856-.156.28-.322.557-.494.829l-.236.365c-.108.144-.279.376-.336.443-.212.242-.43.478-.656.709-.31.319-1.95 1.712-.676.732-1.104.849-2.008 1.666-2.586 2.839-.1.088-.204.17-.298.264a6.3 6.3 0 00-1.448 2.214c-.036.035-.075.065-.11.102-2.267 2.265-2.76 6.993 0 9.19.742.594 1.486 1.186 2.23 1.778.266.9.754 1.792 1.522 2.627a55.43 55.43 0 005.86 5.48c.32 2.009 1.462 3.862 3.43 4.757 1.101 1.968 3.25 3.357 5.5 3.444l2.94 2.769c.071.068.151.127.225.19-.039.54-.084 1.078-.127 1.617.411.1.805.25 1.188.423.021.005.044.006.064.012.856.235 1.515.767 2.198 1.299.111.088.214.188.325.278 2.555.76 5.028 1.773 7.48 2.867.274-.081.558-.127.854-.09.892.112 1.784.218 2.678.3l.044-.023c1.478-1.43 3.074-2.734 4.692-4.054.107-.087.222-.16.337-.235 1.323-3.74 3.39-7.193 6.218-9.795-.85-2.223-1.16-4.576-1.513-6.99-.594-4.067-1.773-8.01-2.367-12.076-.333-2.281 1.654-3.752 3.384-3.71 7.914-2.633 16.967-1.047 25.157-2.195.086-.012.165-.005.25-.011.546-.386 1.097-.627 1.806-.658.791-.036 1.533.35 2.1.869.447.41.733 1.066.826 1.69.1.45.1.912-.062 1.34-.008.02-.059.214-.096.335.385.363.681.812.8 1.325.102.446.173.895.23 1.345 1.095.22 2.181.472 3.22.737.182-.003.365 0 .55-.001a4.348 4.348 0 00-.297 1.609c-.036.366-.042.747.025 1.155l1.587 9.588c.264 1.593 1.195 2.472 2.327 2.775.331 1.033.747 2.04 1.322 2.999 1.493 2.492 4.167 2.394 5.854.96 2.355.046 4.788-2.22 4.234-5.072l-2.81-14.481c2.795-2.577 6.755-4.137 10.163-5.357 1.303-.467 2.615-.756 3.885-.836.151-.091.311-.172.51-.255.471-.2.904-.321 1.44-.305.401.013.83.072 1.21.218a2.23 2.23 0 011.01.53c.223.133.401.31.533.534.12.13.217.276.301.427 1.13.726 2.084 1.819 2.786 3.337.396.008.747.084 1.06.207a2.91 2.91 0 011.123-.214c1.2 0 2.021.582 2.468 1.382.137-.251.274-.51.412-.753.74-1.3 1.493-2.624 2.107-3.991-1.929-6.055-5.249-11.545-7.723-17.38" fill="#27A9E0"/><path d="M235.066 281.116a570.105 570.105 0 00-3.492 13.224 1.702 1.702 0 00-.746.254l-.406.313a2 2 0 00-.514.882l-.399 2.625a1.566 1.566 0 00-.062.5 1.68 1.68 0 00-.3.624 47.615 47.615 0 01-1.513 5.277 46.13 46.13 0 01-.965 2.518 44.983 44.983 0 01-.446 1.006c-.19.416-.387.829-.589 1.24-.14.286-.214.602-.23.92-.357.255-.634.614-.735 1.058l-1.644 7.179a1.962 1.962 0 00-.317.685l-.058.238c.397.099.776.246 1.146.412.02.005.04.006.057.01.855.236 1.515.767 2.196 1.3.108.084.207.18.313.267.936.278 1.865.577 2.781.915a617.608 617.608 0 019.78-40.384c.693-2.483-3.166-3.543-3.857-1.063m13.924 87.807a91.03 91.03 0 01-7.98-5.487 2.025 2.025 0 00-.783-1.044c-6.749-4.769-10.208-12.109-11.447-19.95-.102-.077-.186-.169-.278-.254a75.916 75.916 0 01-5.347-1.093 4.091 4.091 0 01-1.399-.628 29.179 29.179 0 01-4.077-1.496l-1.04 3.184c-.166.503-.075.982.153 1.4l-4.065 10.651c-.143.377-.12.78.016 1.148-1.422.156-2.449 1.85-1.23 3.32 2.335 2.814 5.103 5.21 8.186 7.174.55.35 1.086.386 1.55.228.865.522 1.804.987 2.741 1.031a44.22 44.22 0 003.641 1.685c6.421 2.6 13.544 2.984 20.35 3.86 2.083.266 2.553-2.783 1.01-3.729m62.647-26.971c.023-2.236-.041-4.461-.16-6.641l-.174-.064c-1.878 1.802-4.16 3.208-6.247 4.797-.467 4.007-.921 8.026-1.743 11.974-1.59 7.625-5.264 16.105-13.147 18.989-2.398.877-1.362 4.744 1.064 3.856a22.08 22.08 0 003.18-1.464c.425.34 1.007.492 1.705.287 5.724-1.688 11.553-3.905 14.222-9.696 1.323-2.871 1.847-5.97 2.17-9.092.39-3.752.389-7.526.042-11.282-.063-.682-.39-1.301-.912-1.664m-82.192-84.318c-.837-.836-1.979-.673-2.829 0a83.604 83.604 0 00-17.604 19.15c-.54.811-1.087 1.647-1.626 2.494a1.51 1.51 0 00-.738.487 52.56 52.56 0 00-5.179 7.64 1.95 1.95 0 00-.492.862c-.015.057-.026.117-.04.175-.28.536-.572 1.066-.833 1.615a2.51 2.51 0 00-.147.408 2.214 2.214 0 00-.57.89c-.77 2.23.205 4.676 2.035 6.008l2.451 3.831c.294.458.7.735 1.135.863.268.357.543.704.845 1.006.062.06.137.1.204.152.516.897 1.032 1.793 1.546 2.69.538.936 1.81 1.26 2.738.717 1.01-.59 1.166-1.749.716-2.736a106.872 106.872 0 01-2.916-7.08c-.754-2.037-1.972-4.509-1.43-6.724.045-.183.06-.356.058-.524.115-.454.257-.909.427-1.362 1.388-3.699 3.751-7.208 5.982-10.445 4.511-6.545 10.041-12.353 16.267-17.288.847-.672.702-2.127 0-2.829m80.096 28.181c-.658-1.785-3.813-1.545-3.865.745 0 .048.006.094.006.142a14.011 14.011 0 013.558-.727c.093-.056.195-.11.301-.16m6.949-16.109a3.197 3.197 0 01-.243-1.05 80.447 80.447 0 00-27.595-14.047c-.005-.007-.007-.017-.013-.026-.3-.468-.685-.706-1.195-.92a13602.46 13602.46 0 01-8.004-3.35c-.215-.09-.49-.096-.763-.055-1.782-.848-3.727-1.322-5.706-1.312-1.045.007-2.048.917-2 2 .02.404.146.783.356 1.103-1.362.865-.985 3.594 1.12 3.742 14.241.997 28.051 6.194 39.554 14.627 2.88 2.109 5.573 4.46 8.111 6.97-1.245-2.545-2.518-5.08-3.622-7.682" fill="#1C75BB"/><path d="M323.352 305.856l.902 1.21c1.236-1.351 2.39-2.772 3.6-4.148-.928-5.04-1.924-10.086-3.361-14.986a45.757 45.757 0 00-1.575-4.42 1.026 1.026 0 00-.035.589l.45 2.042c-.6-.002-1.212.469-.994 1.217l.15.51c-.12.164-.205.35-.192.559.069.653.115 1.307.165 1.96a.88.88 0 00-.325.404.967.967 0 00-.283.428.864.864 0 00-.152.389c-.014.089-.02.178-.032.267l-.005-.001a.271.271 0 010 .029c-.342 2.546-.428 5.096-.19 7.658.035.366.226.618.469.775a3.865 3.865 0 01-.251 1.235c-.235.598-.654 1.074-.514 1.76.189.933 1.152 1.654 2.048 2.22.02.107.056.21.125.303" fill="#27A9E0"/><path d="M244.294 439.84c.014-.789-.878-1.289-1.498-.9-.178-.217-.433-.362-.736-.334a31.47 31.47 0 01-1.536.087c-.126-.045-.245-.095-.381-.135-1.197-.349-2.502-.18-3.792.025a29.866 29.866 0 01-9.517-2.525c-.592-.269-1.142.046-1.39.49a11.087 11.087 0 01-3.017-.658c-.737-.277-1.403-.739-2.193-.85-.507-.07-1.032.02-1.422.294-.479-.503-1.486-.172-1.617.491a19.474 19.474 0 00-.156 6.515 1.11 1.11 0 01-.003.027h.006c.013.09.017.178.03.267.051.327.337.56.651.66-.03.19-.068.371-.073.576l-1.226 48.041c-.04 1.566.682 2.633 1.696 3.241a5.675 5.675 0 00-.309 1.278l-.015.132c-3.94 7.285-12.82 12.006-14.657 20.19-.483 2.15.669 3.75 2.22 4.504.269.395.579.77.938 1.12.276.272.572.503.874.722 1.615 2.235 4.296 3.557 7.06 3.607.303.006.603-.04.897-.11.219.03.436.035.651.038 1.999.254 3.852.11 5.572-.339a7.185 7.185 0 001.835-.463c.603-.245 1.129-.523 1.585-.905 5.294-2.894 9.106-8.738 11.936-14.068.49-.923.582-1.822.42-2.635a23.802 23.802 0 00.962-16.813 3.886 3.886 0 00-.326-.742c.426-.584.71-1.316.756-2.21l.796-15.356c.025-.087.065-.16.083-.252a135.361 135.361 0 002.563-19.585 3.432 3.432 0 00-.118-1.097c1.262-2.652 1.979-5.353 2.117-8.297a3.253 3.253 0 00-.224-1.312c.247-.603.495-1.205.741-1.809.161-.392.045-.702-.183-.91m59.36 82.165c-.539-7.872-7.328-14.582-13.757-18.735l.081-.039c-.819-1.352-1.572-2.732-2.197-4.163 1.016-1.394 1.246-3.337.685-4.977.211-.415.363-.9.432-1.468l5.837-47.698c.025-.203.018-.389.02-.579.294-.06.583-.25.675-.57.026-.085.041-.173.066-.259l.005.002.002-.029a21.46 21.46 0 00.8-6.466c-.022-.674-.875-1.132-1.375-.697-.309-.323-.765-.48-1.229-.477-.723.007-1.384.378-2.082.555a9.168 9.168 0 01-2.793.257c-.157-.47-.604-.854-1.172-.665a24.953 24.953 0 01-8.87 1.258c-1.126-.37-2.269-.708-3.388-.52-.128.022-.24.057-.36.085a23.44 23.44 0 01-1.36-.288c-.269-.066-.517.044-.707.235-.499-.465-1.368-.086-1.469.695-.234.178-.382.47-.295.878l.4 1.887c-.2.394-.343.82-.388 1.268-.302 2.931-.05 5.697.695 8.487a3.79 3.79 0 00-.264 1.07 149.057 149.057 0 00-.535 19.714c.003.093.028.171.037.26l-1.503 15.3c-.088.89.06 1.652.358 2.284-.15.21-.286.44-.4.693-.085.19-.149.386-.229.576.374 1.016.433 2.113.004 3.144a22.465 22.465 0 00-.674 1.86c.362.723.542 1.52.434 2.353-.377 2.944-.796 5.877-1.102 8.822l.002.007-.004.014a94.888 94.888 0 00-.173 1.836c.032.265.084.534.171.812.032.102.071.21.103.312-.053 5.864 3.361 10.934 8.005 14.446 4.593 3.472 11.322 7.294 17.175 7.59 5.215.264 10.436-2.885 10.34-8.352a5.547 5.547 0 000-.718" fill="#E4C3A2"/><path d="M242.584 438.246c-.028.106-.05.213-.078.317-.025-.003-.048-.008-.072-.01-.708-.535-1.683-.717-2.612-.712-1.549.008-3.097.041-4.645.063a1.488 1.488 0 00-.514.103c-.06-.024-.128-.031-.19-.046-.077-.228-.14-.459-.219-.686-.622-1.816-3.52-1.036-2.893.797 5.576 16.273 4.47 33.707 3.34 50.587-.027.395.088.699.274.931-.302 3.252.357 6.406.718 9.66.308 2.772.296 5.675-1.128 8.117-.02.02-.043.034-.062.056-3.204 3.62-4.996 8.27-8.507 11.636-3.12 2.992-7.104 4.875-11.353 5.56-1.56-.363-2.759 1.92-1.15 2.719 5.05 2.51 10.84.502 14.645-3.291 3.947-3.935 6.416-9.376 8.577-14.47.015-.02.033-.035.05-.056 1.92-2.683 2.271-6.1 2.021-9.307-.27-3.47-1.264-6.977-.83-10.468.403-.228.711-.632.74-1.224.157-3.12.271-6.24.358-9.36.025-.117.042-.241.04-.377a65.474 65.474 0 01.014-2.546l.004-.221c.06-2.183.243-4.361.533-6.525.054-.151.095-.31.112-.476l.14-1.383c.004-.042 0-.08 0-.12.272-1.264.545-2.527.82-3.79a1.53 1.53 0 00.818-1.026c.008-.017.017-.032.024-.05.888-2.206 1.078-4.683.617-7.016a138.83 138.83 0 013.301-16.587c.49-1.87-2.403-2.667-2.893-.798m57.952 88.655c-5.738.866-11.605.216-17.015-1.754.478-.655.501-1.622-.42-2.105-2.114-1.107-4.494-2.384-6.626-3.936a1.444 1.444 0 00-.408-.9c-2.787-2.973-4.2-6.986-4.016-11.011.018-.417-.174-.8-.47-1.076l2.624-27.521c.075-.173.131-.362.134-.588.088-6.165.641-12.308 1.66-18.388a136.245 136.245 0 001.968-21.401c.017-1.497-1.775-1.83-2.596-1.006a1.477 1.477 0 00-1.214.103c-.465-1.513-3.022-1.393-2.927.395.15 2.77.417 5.532.787 8.28-.336.24-.596.62-.666 1.145-.565 4.249-.515 8.5.052 12.737-.343 6.749-.685 13.498-1.029 20.246-.028.569.216.966.572 1.199-.805 8.447-1.61 16.894-2.417 25.343 0 .01.002.02.001.03-.688.146-1.117.762-1.182 1.469-.366 3.957 1.488 7.778 4.134 10.62 1.024 1.098 2.178 2.046 3.395 2.912-.73.58-.97 1.873.062 2.538a35.56 35.56 0 001.773 1.066c.112.28.308.518.605.644l7.894 3.337c.388.164.73.268 1.156.15a1.5 1.5 0 00.428-.205 38.52 38.52 0 004.594.768c-.322.28-.536.682-.516 1.115.037.824.66 1.486 1.5 1.5 2.705.045 5.45-.784 7.647-2.371.125-.091.236-.2.336-.318.326-.041.653-.076.978-.124 1.902-.288 1.094-3.18-.798-2.893" fill="#C3996B"/><path d="M308.267 408.08a4.842 4.842 0 00-.233-1.137 5.6 5.6 0 00-.001-1.552l-2.497-17.763c.62-.489 1.015-1.306.723-2.095a17.253 17.253 0 01-.77-2.728 15.687 15.687 0 01-.12-.71c-.006-.072-.036-.325-.04-.363-.003-.043-.002-.086-.006-.128 1.71-1.476 1.622-3.763.499-5.564.09-.323.18-.648.289-.967.339-.991-.387-2.23-1.397-2.461-.914-.208-1.74.16-2.206.887-1.074-.3-2.28-.263-3.52.278-4.875 2.125-11.892 1.475-17.127 1.669-6.06.224-12.124.253-18.184.084a273.256 273.256 0 01-14.535-.802 47.77 47.77 0 00-6.062-1.621 1.913 1.913 0 00-1.135-.362c-.427-.005-.852-.03-1.278-.05-.372-.054-.741-.128-1.115-.176a1.374 1.374 0 00-.573.062 39.503 39.503 0 01-5.093-.79 1.52 1.52 0 00-1.143-.747c-.177-.026-.355-.047-.533-.071v-.001a21.146 21.146 0 01-4.63-1.177 37.928 37.928 0 01-3.5-1.648c-.855-.461-1.67-.263-2.236.229-.012-.034-.035-.062-.044-.097-.655-2.487-4.514-1.432-3.857 1.063.1.382.25.725.422 1.052l-.001.012-.002.5-.625 4.466a4.432 4.432 0 00-.035.32c-2.964 5.185-3.915 10.914-3.112 16.782l-.096.398c-.07.282-.11.557-.134.824a96.553 96.553 0 00-2.793 11.174 5.433 5.433 0 00-.054 1.687c-1.52 4.934-3 9.988-3.324 14.86-.101 1.502.046 2.84.394 4.04-.254 1.369.119 2.852 1.457 4.123a8.768 8.768 0 003.623 2.065c.665.4 1.369.768 2.115 1.097.62.303 1.27.536 2.104.814 1.145.38 2.162.347 3.026.038.316.136.663.25 1.044.33 2.397.512 5.194 1.38 7.893 1.583l1.205.39c.51.166 1.032.216 1.548.187.39.18.825.32 1.324.404 4.514.754 9.865 2.373 14.092.594.047-.002.09.002.139-.001 5.759-.314 6.444-5.224 7.313-9.974l3.28-17.913a586.19 586.19 0 013.662-8.888c.49 2.393.936 4.795 1.337 7.207.065.394.21.75.389 1.09-.084 3.196-.382 6.396-.688 9.59-.38 3.968-.922 8.175.565 11.805-.322 2.705 1.268 5.682 4.785 5.682.29 0 .565-.027.829-.066 1.964.766 4.14.863 6.126.106a5.38 5.38 0 001.682.358c6.322.346 16.637 1.07 23.425-2.334 4.388.552 7.966-3.143 8.494-7.555.689-5.76-.665-12.326-1.085-18.11" fill="#594A41"/><path d="M303.654 372.189c-1.697 1.509-4.09 1.83-6.265 2.083-2.82.327-5.644.64-8.474.88-5.692.487-11.46.676-17.132-.15a1.55 1.55 0 00-1.134.264c-6.084-.83-12.183-.762-18.257-.178-.177-.398-.499-.727-.933-.788a473.153 473.153 0 00-10.47-1.341 1.104 1.104 0 00-.3.007 123.684 123.684 0 01-10.126-2.314 1.358 1.358 0 00-.838.032l-1.108-.242c-.215-.47-.659-.831-1.312-.845a11.78 11.78 0 01-5.089-1.272c-.578-.544-1.207-1.032-1.904-1.41a1.435 1.435 0 00-.406-.143c-.073-.063-.15-.12-.223-.184-1.428-1.293-3.556.823-2.12 2.122.161.147.335.277.503.416a17.4 17.4 0 01-.099 1.98 1.465 1.465 0 00-.404.687l-1.478 5.37c-.214.777.233 1.427.841 1.723-.034.059-.065.12-.1.178a17.42 17.42 0 01-.596.896c-.139.11-.254.25-.327.419-.013.03-.033.058-.047.088-.204.264-.414.525-.649.794-.385.442-.524 1.028-.335 1.555-.22.648.041 1.464.66 1.79.011.007.02.009.031.014-.053.446.108.9.39 1.243-1.832 5.804-3.305 11.853-3.428 17.95-.434.138-.798.455-.909.979l-2.1 9.833c-.136.634.065 1.129.415 1.446l-1 4.18c-.106.439-.045.806.113 1.096-.062.189-.122.378-.183.568a1.6 1.6 0 00-.293.528c-.02.068-.03.139-.05.207a10.232 10.232 0 00-.903 3.139l-.01.032h.005c-.016.135-.047.264-.059.398-.058.658.275 1.09.738 1.297.445 1.119 1.286 2.092 2.35 2.628.241.12.493.162.742.166a8.071 8.071 0 002.237 1.852c.251.142.508.195.755.186a6.346 6.346 0 002.594.486 1.54 1.54 0 00.48-.095l4.925 2.182c.672.298 1.448.228 1.916-.35a19.128 19.128 0 002.58 1.76c.321.18.637.232.925.19.058.029.115.06.177.083 3.378 1.267 6.921 2.012 10.518 2.277.06.005.115-.004.172-.008.27.079.557.116.855.07 3.456-.522 6.923.987 10.347-.176a9.583 9.583 0 006.086-6.325 1.44 1.44 0 00.035-.725c1.667-.257 1.587-2.974-.256-2.974-1.12 0-1.587 1.009-1.406 1.858-.547.045-1.064.365-1.266 1.044a6.471 6.471 0 01-4.865 4.467c-1.476.307-3.05.09-4.534-.06-1.555-.156-3.059-.23-4.605-.036a1.814 1.814 0 00-.563-.135c-3.289-.243-6.575-.99-9.72-2.17a1.142 1.142 0 00-.53-.06c-6.845-3.952-9.696-12.12-11.474-19.39-1.149-4.7-1.517-9.418-.995-14.233.53-4.864 1.862-9.62 3.36-14.263.05-.155.067-.3.071-.438 3.233-1.708 6.808-2.575 10.386-3.33 4.454-.941 8.917-1.855 13.403-2.63 9.121-1.572 18.503-2.481 27.71-1.097.453.068.842-.05 1.148-.267 6 .78 12.024.614 18.044.064 2.956-.271 5.92-.565 8.862-.966 2.585-.352 5.034-1.023 7.023-2.791 1.445-1.285-.683-3.4-2.122-2.121" fill="#3B2314"/><path d="M306.952 432.486a1.123 1.123 0 00-.31-.482c-.1-.08-.203-.157-.303-.235a1.496 1.496 0 00-.757-.205l-.4.054c-.253.07-.474.2-.662.386l-.187.187h-.319a1.12 1.12 0 00-.579.13 1.126 1.126 0 00-.482.31 1.13 1.13 0 00-.302.464c-.235-.326-.619-.542-1.163-.505-5.929.408-11.85.769-17.776.77l-.575-.337c-.613-.357-1.203-.233-1.623.11-3.747-.522-7.585-1.498-10.488-3.996-1.526-1.314-2.642-2.931-3.294-4.841-.084-.25-.146-.504-.219-.756.03-.44-.076-.85-.32-1.171a36.494 36.494 0 01-.292-1.334c-.214-1.096-.49-2.228-.46-3.35.054-1.93-2.946-1.928-3 0-.036 1.28.27 2.579.506 3.83.151.792.332 1.577.541 2.356l-.195 1.442c-.429.216-.763.639-.807 1.278a20.348 20.348 0 00.196 4.533c.187 1.212.405 2.713 1.711 3.214.354.134.722.163 1.08.119.032.047.053.097.086.144.622.88 1.942.894 2.515.14a13.99 13.99 0 002.603.828c.21.145.46.248.76.278 3.693.367 7.383.51 11.073.515.026-.001.053.002.078-.001 5.966.004 11.93-.36 17.9-.771.702-.047 1.146-.483 1.335-1.006.043.056.08.117.13.168l.304.235c.233.136.486.203.757.204h.626c.208.008.4-.035.58-.13.145-.047.271-.128.386-.228l.061-.01a1.48 1.48 0 00.662-.385l.313-.313c.146-.136.25-.297.31-.483.094-.178.137-.371.13-.578a1.14 1.14 0 00-.13-.578m-76.584-53.178a20.368 20.368 0 00-4.838 1.24 1.225 1.225 0 00-.836-.007c-4.942 1.84-8.808 5.85-10.387 10.894-.22.706.203 1.502.87 1.77.62.25 1.575.082 1.872-.614 2.305-5.395 7.436-9.539 13.32-10.283.803-.102 1.5-.616 1.5-1.5 0-.73-.69-1.602-1.5-1.5" fill="#3B2314"/><path d="M324.174 299.792c-.034-4.716-1.94-10.202-2.81-14.048-.57-2.521-3.737-3.666-5.875-2.39-.35.209-.665.43-.951.667-.222-2.543-1.075-5.022-3.938-5.746-2.008-.507-3.893.375-5.561 1.59-.904.276-1.698.84-2.14 1.722-.015.028-.027.058-.04.087l-.697.627a34.676 34.676 0 00-3.39 3.523c-.864-.211-1.841-.102-2.838.454-4.714 2.633-4.673 11.16-4.661 16.466a125.685 125.685 0 00-2.891-12.452c-1.34-4.683-8.331-3.035-7.851 1.377-.062.48-.048 1 .093 1.56a326.065 326.065 0 013.786 16.984c-.603 2.226-.178 4.134.795 5.81-.251 1.395.535 3.008 2.366 3.008.035 0 .062-.01.096-.01.68.645 1.407 1.255 2.144 1.833.448.35.91.61 1.384.8.39.606 1.047 1.037 1.99 1.037.808 0 1.413-.316 1.816-.79 2.674-.528 5.423-2.182 7.807-3.155.173-.07.33-.162.49-.247.852-.032 1.722-.34 2.513-1.053l1.943-1.751c.816-.736 1.219-1.95 1.155-3.1 2.978-.45 6.75-1.458 9.788-3.273 2.228-.411 4.307-1.683 5.32-3.796.01-.022.018-.045.028-.066.024-.023.056-.041.077-.065 1.318-1.435 1.727-4.191.052-5.603m-19.03 38.608c-1.306 0-2.278.518-2.922 1.286a5.035 5.035 0 00-1.071.072c-.18.035-.357.08-.535.115-.037-.002-.073-.008-.11-.008l-1.062.142c-.23.065-.445.153-.653.252a95.824 95.824 0 00-3.873.947c-.31-.074-.64-.12-1.002-.12-2.718 0-3.99 2.23-3.835 4.337-.002.128-.01.256 0 .383l-1.9 1.362c-.866.622-1.545 1.327-1.837 2.39-.263.957-.145 2.233.403 3.082 1.085 1.683 3.654 2.74 5.472 1.436l3.967-2.844c.867-.623 1.545-1.328 1.838-2.391.016-.06.017-.13.03-.192.466-.118.933-.226 1.399-.338.184.027.374.042.565.042l1.064-.142a4.028 4.028 0 001.117-.513c.36-.074.717-.157 1.079-.225.729-.137 1.34-.541 1.82-1.077.017 0 .029.005.046.005 5.147 0 5.156-8 0-8m-57.697-26.22l-.085-.109a2.493 2.493 0 00-1.032-.614c-.054-.028-.105-.06-.156-.09l-.046-.046c-.036-.064-.083-.12-.116-.188a1.898 1.898 0 00-.643-.702 1.886 1.886 0 00-.85-.447 1.89 1.89 0 00-.998-.045 1.858 1.858 0 00-.929.297l-.506.391c-.31.312-.524.68-.643 1.103l-.09.665c.002.451.115.871.342 1.262.176.366.442.68.693.996.125.157.264.302.42.43.232.19.468.38.717.547.086.06.177.113.27.16.136.071.28.134.421.197.394.363.928.601 1.621.601 2.532 0 3.065-3.09 1.61-4.408m-26.114-1.369c-4.126-.562-7.748-2.346-10.549-5.405-1.463-1.599-2.589-3.471-3.636-5.359-1.134-2.047-2.227-4.126-2.982-6.346-.436-1.279-1.719-2.119-3.076-1.746-1.244.341-2.183 1.792-1.746 3.075.877 2.576 2.095 5.017 3.407 7.395 1.274 2.314 2.711 4.56 4.497 6.516 2.941 3.222 6.977 5.501 11.251 6.417.395.577 1.04.986 1.956.986 1.296 0 2.062-.814 2.314-1.783.127-.199.24-.417.31-.675.32-1.166-.399-2.892-1.746-3.075m34.267-60.237c-3.218 0-3.223 5 0 5 3.217 0 3.223-5 0-5" fill="#27A9E0"/><path d="M222.18 314.41a41.484 41.484 0 01-5.22-2.712 1.51 1.51 0 00-.424-1.076 89.701 89.701 0 01-5.321-6.091 71.421 71.421 0 01-1.537-2.001c-.306-.411-.777-.712-1.272-.741-.2-.336-.412-.66-.604-1.002.218-.438.237-.973-.036-1.406l-5.037-7.992c-.418-.664-1.356-.988-2.053-.54a1.623 1.623 0 00-.388.357 1.497 1.497 0 00-.221.036c-.567.155-.937.61-1.05 1.14-.481.417-.707 1.092-.265 1.796.864 1.373 1.258 2.927 1.847 4.424a17.738 17.738 0 002.382 4.269 26.835 26.835 0 002 2.305c.066.252.189.495.37.702A43.276 43.276 0 00220.667 317c.744.32 1.609.222 2.053-.538.369-.632.21-1.731-.538-2.052m90.144 23.077c-.183-.311-.539-.607-.896-.688-.739-.17-1.69.222-1.846 1.046-.062.329-.112.66-.162.99a1.392 1.392 0 00-.732-.466 2.751 2.751 0 00-2.788.915c-.69.843-.835 1.814-.97 2.86-.235 1.8-.429 3.606-.586 5.414-.069.783.738 1.534 1.5 1.5a1.52 1.52 0 00.992-.41c.03.012.054.03.086.04.178.095.371.138.578.13.387-.018.79-.144 1.06-.44.27-.293.44-.654.44-1.06v-.213l.002-.008c.105-.992.174-1.987.213-2.983.228.547.755.97 1.378.942.797-.035 1.518-.66 1.5-1.5a25.655 25.655 0 01.206-3.828c.052-.362.108-.724.175-1.085.077-.402.063-.792-.15-1.156m-4.026-23.275c-.05-.119-.101-.238-.15-.358a1.515 1.515 0 00-.538-.538l-.36-.152a1.521 1.521 0 00-.797 0c-.265.111-.532.213-.773.371-.126.082-.243.18-.361.272-.276-.937-.38-1.925-.458-2.93a140.224 140.224 0 01-.332-6.515c-.116-3.98-.058-7.962.143-11.938.097-.202.156-.416.157-.646l-.274-2.205a1.126 1.126 0 00-.13-.578 1.128 1.128 0 00-.31-.482c-.26-.26-.686-.457-1.06-.44-.388.018-.79.145-1.061.44l-.234.303a1.49 1.49 0 00-.205.757l.207 1.663a1.758 1.758 0 00-.051.328 150.084 150.084 0 00-.15 13.764c.076 2.171.168 4.353.383 6.515.056.567.13 1.13.234 1.682-.021.188-.01.38.027.585l.43 2.404c.03.177.049.365.102.537.114.372.28.65.53.94.223.262.554.464.887.548.604.153 1.177-.034 1.626-.447.123-.113.206-.259.277-.409.218-.162.434-.325.65-.489.176-.093.317-.222.422-.385.133-.146.223-.316.269-.51.032-.102.048-.202.053-.304.02-.01.039-.024.06-.035.014-.007.026-.016.039-.022.015-.007.026-.018.04-.024l-.017.007c.066-.039.13-.08.188-.133.163-.105.292-.245.387-.42.109-.173.169-.358.177-.558.045-.2.036-.399-.026-.598" fill="#1C75BB"/><path d="M248.309 321.619c-.99 0-1.47.79-1.444 1.56-.411.888.015 2.195 1.294 2.195.99 0 1.469-.79 1.443-1.56.41-.887-.016-2.195-1.293-2.195" fill="#27A9E0"/><path d="M262.048 336.425a36.76 36.76 0 00-5.27-1.898c.357-.114.755-.264 1.162-.443a14.359 14.359 0 001.813-.633c.5.163 1.085.106 1.538-.29a1.88 1.88 0 00.56-.805l.032-.019c.659-.424.99-1.35.537-2.052a1.63 1.63 0 00-1.33-.74 2.844 2.844 0 00-.351-.36c-.695-.596-1.602-.45-2.131.057-.944-.163-1.911-.258-2.834-.339-.19-.017-.377-.015-.566-.029a45.917 45.917 0 013.799-1.795c1.01-.416 1.976-1.19 1.812-2.41-.178-1.319-1.472-1.834-2.657-1.607-1.883.36-3.753 1.128-5.51 1.875-.82.347-1.622.73-2.414 1.134-.25.07-.5.132-.748.205-.503.146-1.01.291-1.507.46-1.01-.063-2.01.267-3.014.44a3.06 3.06 0 01-.428.011 2.267 2.267 0 01-.2-.054l-.01-.005c-.008-.005-.017-.008-.026-.012.092-.29.186-.575.27-.837.175-.536.37-1.07.576-1.596l.713-1.414c.089-.179.134-.365.157-.552.288-.588.588-1.169.913-1.736.294-.51.588-1.024.609-1.63a1.913 1.913 0 00-.904-1.71c-1.11-.676-2.392-.152-3.233.695-.745.75-1.414 1.592-2.113 2.385l-2.162 2.45c-.465.527-.98 1.173-1.143 1.86a12.435 12.435 0 01-.264-.028l-.308-.035-.142-.019c-.086-.012-.262-.036-.302-.043a29.197 29.197 0 01-2.355-.453 29.82 29.82 0 01-3.695-1.129 1.245 1.245 0 00-.863.015 95.05 95.05 0 01-14.207-8.195c-.671-.47-1.325-.272-1.74.193a138.602 138.602 0 01-3.173-2.357c-3.085-2.375-5.984-5.064-7.968-8.448a1.444 1.444 0 00-.611-.58c.013-.216.02-.432.039-.648.164-1.923-2.837-1.912-3 0a35.195 35.195 0 00.414 9.05c-.005.066-.015.13-.012.202.115 2.973.667 5.93 1.72 8.714 1.053 2.778 2.498 5.371 3.989 7.931.21.362.5.56.809.653.876 1.51 2.17 2.544 3.624 3.397.038.055.058.116.104.168.885 1.011 1.936 1.795 3.072 2.443-.025.541.196 1.085.707 1.362a24.924 24.924 0 005.709 2.22c4.865 3.117 10.683 2.352 16.22 1.882.13.042.266.076.406.09l1.549.165c.497.054.887-.174 1.142-.52.008-.002.016-.002.024-.005a31.363 31.363 0 004.089 1.78c.285.1.537.112.76.07a18.09 18.09 0 004.023 1.234c.15.027.295.036.439.035a70.354 70.354 0 004.133 1.486c1.202.385 2.415.737 3.635 1.056 1.298.34 2.857.387 3.306-1.214.622-2.216-1.75-4.188-3.345-5.264a3.302 3.302 0 01-.076-.05c.05-.02.098-.046.146-.065.59-.222 1.243-.209 1.863-.215 1.455-.013 2.954-.038 4.199-.894.83-.57 1.112-2.09 0-2.59m60.53-22.906a1.581 1.581 0 00-.078-.472 8.874 8.874 0 01.55-1.941c.5-1.189-1.189-2.417-2.204-1.694a27.775 27.775 0 01-4.237 2.5c-1.505.711-3.137 1.101-4.633 1.827-.04.019-.072.049-.112.069-.015-.001-.027-.005-.042-.005-.732 0-1.186.433-1.363.97-.776.651-1.479 1.398-2.232 2.071-1.218 1.089-2.554 2.014-3.974 2.821a1.41 1.41 0 00-.62.661l-3.046 1.024c-3.008 1.012-5.946 2.194-9.175 2.018-.176-.01-.33.013-.475.051a16.78 16.78 0 01-2.265-2.318l-.049-.06c-.07-.092-.14-.187-.21-.282-.462-.632-1.323-1.008-2.053-.538a1.708 1.708 0 00-.75 1.341c-1.116-.252-2.237-.478-3.357-.709l-1.229-.752c-.523-.321-1.25-.238-1.72.147-.733-.138-1.464-.277-2.197-.403-1.063-.181-2.07-.306-3.133-.056-.063.014-.12.041-.177.064a1.475 1.475 0 00-.793.173c-.045.025-.076.062-.117.091-.052.009-.105.017-.154.028a2.291 2.291 0 00-.764.289c-.734.472-1.05 1.312-.879 2.156.294 1.441 1.79 1.793 3.004 2.115.918.243 1.845.443 2.78.62-1.712.51-3.423 1.022-5.134 1.533-.75.224-1.3 1.062-1.047 1.845.223.692.903 1.185 1.63 1.087.153.126.334.218.538.254 1.476.264 2.961.43 4.45.53.07.301.224.57.437.778-.787.326-1.559.688-2.286 1.119-.635.376-1.255.885-1.584 1.561-.445.91-.335 2.047.42 2.772.555.537 1.286.805 2.038.93a9.788 9.788 0 002.441.119c.043-.004.084-.012.126-.016.096.035.192.071.295.085-.574.295-1.13.643-1.545 1.141-.36.434-.65.913-.779 1.47-.04.177-.046.344-.06.513-.056.134-.119.266-.164.403a3.33 3.33 0 00-.082 1.76c.057.257.17.511.297.74.127.224.293.445.482.621.303.282.573.429.95.579.072.028.142.05.22.063.191.036.396.073.592.059.222-.016.425-.077.618-.164.588.058 1.197-.063 1.763-.299.36.091.757.045 1.135-.141 1.608-.791 3.11-1.75 4.537-2.824.461.071.947-.099 1.342-.411a13.256 13.256 0 011.994-1.278c.311.241.731.335 1.236.142 5.147-1.957 10.795-1.683 15.981-3.477.98-.339 1.95-.768 2.873-1.279.46.266 1.052.319 1.506.014 1.807-1.214 3.606-2.474 4.953-4.192 2.008-2.037 3.927-4.218 4.906-6.95.44-1.227.578-2.516.62-3.81.321-.268.538-.646.494-1.089l-.487-4.853-.002-1.141" fill="#E4C3A2"/><path d="M246.78 317.67c-.647-.595-1.474-.536-2.122 0-2.215 1.824-4.187 3.896-5.97 6.135a1.47 1.47 0 00-.523-.107l-1.03-.11a1.148 1.148 0 00-.339.041 1.473 1.473 0 00-.318.018c-6.342-1.18-12.159-3.996-17.9-6.847-4.926-2.446-10.197-5.092-13.194-9.916-.349-.563-.884-.748-1.396-.69a31.702 31.702 0 01-1.564-2.984c-.796-1.756-3.382-.232-2.59 1.515 6.341 14.006 21.115 21.616 36.04 21.992.025.027.05.057.08.082.138.111.283.241.444.327.137.074.285.13.43.186a.91.91 0 00.092.033.77.77 0 00.095.022c.157.027.32.053.477.062a.646.646 0 00.088 0c.162-.012.328-.036.488-.066.194-.047.363-.135.508-.267.693.237 1.347-.048 1.795-.648l.185-.247a3.96 3.96 0 00.091-.118l.282-.359a40.259 40.259 0 015.85-5.934c.607-.5.558-1.609 0-2.12m14.091 6.3c-.984-.795-2.085-.857-3.294-.625-1.307.251-2.598.666-3.879 1.023a203.022 203.022 0 00-8.36 2.528c-1.22.395-.698 2.328.53 1.927a205.36 205.36 0 0110.81-3.192c.693-.184 2.113-.785 2.78-.248.992.8 2.416-.606 1.413-1.414m-.832 5.546c-1.33-.494-2.816-.697-4.223-.816-.522-.045-1.022.491-1 1 .027.58.441.952 1 1 .665.055 1.011.101 1.67.226.58.111 1.162.242 1.728.42a5.627 5.627 0 01.398.14l.02.01c.2.097.382.208.57.325l.007.007c.035.033.072.065.107.1.028.026.054.06.082.087.021.034.041.071.064.104l.004.004a.58.58 0 00.033.117c.002.003.001 0 .002.001.041.515.437 1.011.997.986.512-.023 1.037-.44 1-1-.096-1.424-1.216-2.249-2.459-2.71m2.204 7.087c-.42-.702-1.13-1.119-1.888-1.372-.673-.225-1.39-.345-2.09-.449a22.04 22.04 0 00-2.46-.236c-.524-.018-1.025.474-1 1 .024.558.438.981 1 1a19.11 19.11 0 011.805.147l.123.017.212.034a18.04 18.04 0 011.348.267c.243.059.487.126.721.219.011.006.016.007.035.018.053.028.106.054.16.085.051.031.1.065.15.097-.143-.091.006.009.04.04a.432.432 0 00.04.037c.017.023.047.059.055.072.027.044.051.088.074.134.003.01.002.003.007.027l.022.093v.031c-.024.05-.095.195 0 .013v.003c-.237.464-.132 1.102.36 1.362.458.242 1.111.137 1.368-.359a2.323 2.323 0 00-.082-2.28m-3.414 9.779a1.244 1.244 0 00-.267-.488c.007-.05.01-.1.017-.15.068-.165.133-.33.17-.505.051-.235.084-.479.09-.72a3.132 3.132 0 00-.209-1.207.74.74 0 00-.179-.34.764.764 0 00-.28-.258c-.028-.016-.065-.018-.095-.03a5.787 5.787 0 00-2.033-2.408c-.436-.29-1.126-.099-1.368.358-.266.504-.107 1.058.36 1.37.026.018.168.124.18.13.06.05.12.098.176.15.135.125.263.26.381.4.021.023.04.047.06.071.007.01.007.012.026.037.043.067.09.131.133.197.1.156.191.317.272.483.021.045.148.362.06.123.035.1.074.197.107.3.056.174.104.353.141.534.008.037.035.224.038.226.005.045.011.09.014.135a4.679 4.679 0 01-.009.78c.004-.07-.023.166-.033.211-.037.182-.1.355-.146.535-.188.738.327 1.451 1.072 1.551a1.196 1.196 0 001.322-1.485m62.981-36.79c-7.39 1.108-13.354 5.94-18.885 10.636a1.055 1.055 0 00-.672.106l-1.832 1.013c-.175.096-.307.276-.393.465a88.864 88.864 0 01-4.074 1.054c-2.646.615-7.095 1.218-7.99-2.3-.316-1.246-2.246-.719-1.928.531.743 2.92 3.697 4.322 6.52 4.286 1.858-.023 3.692-.518 5.483-.962 1.769-.44 3.53-.922 5.26-1.493 3.418-1.127 6.68-2.609 9.677-4.609 3.275-2.186 6.416-4.59 9.604-6.9.944-.683.36-1.997-.77-1.827m-35.079 13.95c-1.53-2.365-4.151-3.51-6.87-3.838-1.586-.19-3.192-.114-4.781.005-1.251.094-2.565.29-3.442 1.28-.851.961.559 2.38 1.414 1.414.622-.702 1.676-.673 2.545-.73 1.332-.086 2.677-.142 4.008.002 2.067.222 4.229 1.068 5.398 2.877.698 1.077 2.429.076 1.728-1.01m-8.707 1.791c-1.664.12-3.377.386-4.956.94-1.374.481-2.67 1.372-2.775 2.945-.037.54.485 1 1 1 .571 0 .963-.459 1-1l.001-.01c.015-.047.027-.099.041-.146-.05.181.041-.062.084-.135l.002-.004c.048-.05.095-.102.146-.15.042-.04.084-.077.128-.113.007-.003.004 0 .018-.01.211-.134.422-.254.65-.36.007-.004.003-.002.01-.004l.01-.004c.057-.022.115-.045.173-.065a7.8 7.8 0 01.425-.138 18.835 18.835 0 014.043-.746c.54-.039 1-.432 1-1 0-.51-.458-1.039-1-1m1.527 6.767c-.02-.483-.444-1.073-1-1-1.513.2-3.216.545-4.235 1.8-1.003 1.234-1.252 3.114-.078 4.334.364.378 1.054.392 1.414 0 .373-.405.388-1.01 0-1.414-.024-.025-.204-.199-.074-.076.119.111-.022-.047-.047-.092l-.015-.03a1.273 1.273 0 01-.066-.239 5.77 5.77 0 01.004-.348 3.463 3.463 0 01.1-.37c.064-.065.13-.26.176-.333.023-.038.062-.083.09-.127l.027-.03c.088-.096.185-.179.282-.265.005-.004 0-.002.005-.005l.014-.007c.067-.043.133-.09.2-.132.13-.078.262-.148.397-.212.032-.016.063-.029.095-.043a1.96 1.96 0 00-.08.033c.044-.038.14-.053.197-.074.288-.1.585-.18.884-.244a9.92 9.92 0 01.418-.079l.21-.034c.06-.009.386-.053.083-.013.275-.036.502-.088.707-.293.174-.174.304-.458.293-.707m-1.251 10.487c-.002-.007-.005-.01-.008-.018a.013.013 0 010 .006.125.125 0 01.009.012m1.207-2.101l.043-.033-.01.006-.033.027m-.912.846c-.042.055-.068.122 0 0" fill="#C3996B"/><path d="M280.044 338.982c-.266-.411-.923-.696-1.368-.358-.955.72-1.938 1.498-2.308 2.689a3.137 3.137 0 00-.042 1.665c.155.616.53 1.112 1.048 1.469.432.298 1.128.095 1.368-.36.256-.483.109-.992-.303-1.314.001-.002.008.002-.001-.01-.02-.026-.055-.056-.082-.08a.292.292 0 01-.025-.04.375.375 0 01-.03-.056c.01.028.015.049.018.063l-.003-.004c-.003-.01-.007-.017-.016-.048l-.007-.022c-.008-.018-.014-.036-.023-.046a.179.179 0 01.022.04l-.053-.193-.005-.066c-.002-.081.002-.161.006-.242l.014-.066c.019-.08.046-.156.07-.234a2.133 2.133 0 01.214-.364c.025-.035.057-.07.077-.108l-.019.035a4.729 4.729 0 01.234-.256 6.84 6.84 0 01.474-.427c.067-.055.136-.108.204-.163a.308.308 0 01.016-.014.203.203 0 01.018-.013l.025-.02-.016.014.134-.103c.216-.163.384-.325.46-.597.066-.24.036-.558-.101-.771" fill="#C3996B"/><path d="M266.1 296.41c.27 3.172-1.79 5.01-4.905 5.046-.064 0-.116.017-.18.02-.128-.078-.257-.154-.382-.246-1.563-1.145-1.111-3.244-1.567-4.99a5.149 5.149 0 00-.254-.707l1.06-1.35c.113-.141.18-.302.227-.466l.318-.441c.51-.037 1.977-.14 3.326-.02.002.005.002.009.005.014.626 1.027 1.41 1.856 2.364 2.582a3.143 3.143 0 00-.012.558m18.469 22.693a48.142 48.142 0 01-1.873-13.012c-.005-.742-.668-1.05-1.231-.936a33.25 33.25 0 00-.847-3.567 21.873 21.873 0 00-.395-1.99.97.97 0 00-.146-.301c-.01-.326-.016-.655-.036-.978-.097-1.691-.47-3.153-1.123-4.368a24.843 24.843 0 00-.14-1.185 7.938 7.938 0 00-.528-2.668 1.166 1.166 0 00-.682-.676c-.034-.034-.062-.074-.098-.108-.384-.355-1.04-.408-1.414 0-.051.056-.081.125-.12.19-.443-.34-.981-.397-1.537-.39-.814.01-1.627.033-2.442.05a.892.892 0 00-.468.156.952.952 0 00-.525-.195 32.815 32.815 0 00-6.728.437.762.762 0 00-.361.177c-.098.013-.197.02-.295.032-.095-.401-.393-.756-.918-.784-4.917-.264-9.662 1.164-14.403 2.269a.942.942 0 00-.421.218.997.997 0 00-.322-.062.918.918 0 00-.54.174.94.94 0 00-.717-.327c-.508 0-1.042.459-1 1a67.165 67.165 0 001.01 7.446c.065.337.352.565.674.665.803 5.469 1.608 10.937 2.412 16.405.05.345.235.543.465.642-.011.159.006.317.06.466.067.777.155 1.552.29 2.322-.02.072-.052.136-.057.22-.054.838-.028 1.669.077 2.503.094.746.778 1.253 1.505.863a11.815 11.815 0 014.942-1.408c.796-.043 1.62-.036 2.409.102.56.099 1.179.243 1.5.744.256.398.492.729.988.822.199.038.392.009.574-.051a3.298 3.298 0 00-1.343 1.862c-.36 1.315.168 2.896 1.259 3.747.1.093.213.178.329.257.225.575.374 1.237.48 1.92-1.303 1.628-.966 4.465 1.017 5.456.088.112.176.227.276.325a4.74 4.74 0 00-.424 2.488c-.33.1-.662.18-1 .239a7.958 7.958 0 01-1.725-.01l-.532.07a1.515 1.515 0 00-.681.36c-.33.255-.621.62-.717 1.039-.08.35-.08.712 0 1.063.092.4.344.718.645.978a.544.544 0 01-.038-.03c.139.109.252.243.369.372.048.075.093.152.135.23.039.119.07.239.097.36.005.103.003.205-.001.305-.037.152-.064.306-.124.45-.1.243-.094.558-.038.859-.346.37-.564.863-.564 1.373 0 .202.039.39.093.572-.041.004-.083.009-.125.012a7.132 7.132 0 01-.654.02 7.141 7.141 0 01-.653-.034c-.02-.002-.318-.047-.105-.011-.123-.021-.246-.04-.368-.065a7.537 7.537 0 01-1.251-.375c-.488-.193-1.12.21-1.23.698-.131.576.177 1.023.699 1.23a8.262 8.262 0 005.828.058c.056-.02.104-.058.156-.088 2.543.115 5.178.399 7.703.11 2.77-.32 5.509-1.018 8.238-1.578.32-.067.595-.236.82-.456h1.245c.257 0 .527-.112.707-.292.174-.174.305-.46.293-.708-.012-.26-.095-.527-.293-.708a1.042 1.042 0 00-.707-.292h-.668l-.001-.005c-.301-1.1-1.398-1.616-2.46-1.397-.23.047-.462.102-.691.152a5.662 5.662 0 00-.287-1.022c-.23-.58-.477-1.14-.834-1.65-.047-.087-.107-.161-.166-.235 1.23-.813 1.116-3.002-.356-3.55a15.086 15.086 0 00-1.351-2.782 2.248 2.248 0 00-.391-.458c.043-.153.087-.306.11-.465 1.994-.54 1.814-3.92-.56-3.92-.401 0-.732.106-1.01.27a3.376 3.376 0 00-1.591-.45 18.252 18.252 0 00-.453-2.077c.406-.05.806-.165 1.208-.401.726-.425 1.418-1.258 1.609-2.092.353-1.552-.377-3.556-1.971-4.156 0-.011.006-.017.006-.027-.067-2.842 3.319-2.803 5.358-2.783 2.72.025 5.385.582 7.914 1.576.728.285 1.424-.555 1.23-1.231m4.32 24.892c-.158-.491-.7-.88-1.23-.698l-4.096 1.39c-.494.169-.872.696-.7 1.23.16.492.7.88 1.23.7l4.098-1.393c.494-.167.872-.695.698-1.23" fill="#404042"/><path d="M271.125 285.425c-.602-.02-.909.406-.949.87-2.82.017-5.639.136-8.45.384a107.8 107.8 0 00-7.43.917c-.05.007-.099.017-.148.025-.219-.43-.652-.62-1.144-.538l-6.279 1.044c-.219.036-.393.188-.524.374-.91.262-1.177 1.732-.074 1.898.185.028.371.032.557.05a1.017 1.017 0 00-.587.27c-.173.172-.304.457-.293.706.01.193.077.38.184.543-.129.186-.18.426-.092.711-.975 3.791.644 7.901 1.4 11.601.936 4.602 1.602 9.252 2.19 13.91.142 1.126.28 2.254.417 3.381.1.816-.025 1.914.788 2.373 1.335.752 2.702-.463 2.896-1.77.153-1.035-.147-2.173-.282-3.2l-.453-3.418-.939-7.08c-.7-5.289-1.4-10.578-2.102-15.868a1.032 1.032 0 00-.39-.685c.007-.01.017-.019.023-.03.174-.298.193-.714 0-1.01a1.464 1.464 0 00-.393-.399c2.574-.174 5.17-.895 7.68-1.244 3.804-.528 7.642-.832 11.482-.929 1.844-.047 3.69-.046 5.534.006.962.026 1.924.088 2.886.12.628.02 1.147-.012 1.461-.644 1.437-2.9-5.837-2.329-6.969-2.368m7.499 60.695c-1.126-.09-2.236-.026-3.34.103-1.8.056-3.6.11-5.399.138-2.924.047-5.832-.075-8.646-.934-.513-.158-.892.09-1.086.456-.316-.02-.63.109-.818.493-.337.687-.904 1.159-1.579 1.326-.473-.016-.945-.028-1.418-.045-1.129-.04-1.356 1.682-.266 1.964a4.415 4.415 0 001.747.083c3.27.106 6.545.162 9.8-.198 2.394-.265 4.764-.893 7.154-1.22 1.298-.063 2.586-.13 3.851-.166 1.3-.037 1.272-1.9 0-2" fill="#58585B"/><path d="M256.635 321.672c-3.4-9.686-3.035-20.12-5.344-30.046-.291-1.253-2.22-.723-1.927.531 1.862 8.011 1.986 16.351 3.75 24.364-.211-.024-.426-.002-.602.111-.475.307-.617.871-.36 1.37.087.165.184.337.247.514-.084-.235.037.098.052.14a7.989 7.989 0 01.378 1.376c.017.092.04.188.046.282-.015-.257.004.045.01.098a8.034 8.034 0 01-.02 1.752c-.07.6.705 1.197 1.266.964l.994-.413c.698.44 1.852-.069 1.51-1.043m12.279 24.27c-2.967-.248-5.815-2.018-7.394-4.595-.67-1.095-2.4-.092-1.726 1.01.076.123.168.234.248.355a.853.853 0 00-.243.629 9.902 9.902 0 00.704 3.2c.103.252.216.455.46.597.214.125.53.179.77.1.242-.077.476-.227.598-.458.116-.222.2-.528.101-.771a8.905 8.905 0 01-.325-.957 11.937 11.937 0 006.807 2.89c.538.045 1-.491 1-1 0-.578-.46-.954-1-1" fill="#58585B"/><path d="M263.922 293.316c-.08-.05-.157-.06-.236-.083-.465-.992-1.72-1.153-2.613-.553-.745.5-1.364 1.25-1.807 2.023-.852 1.479-1.291 3.552-.639 5.188 1.404 3.528 7.614 2.152 8.234-1.276.415-2.294-1.067-4.18-2.939-5.3" fill="#939597"/><path d="M320.873 308.028a26.298 26.298 0 01-9.07 3.984 1.052 1.052 0 00-.764-.11l-4.185.926a80.504 80.504 0 01-2.187-18.895c.005-1.287-1.995-1.288-2 0a82.807 82.807 0 002.518 20.53c.212.836 1.141.862 1.64.418l1.781-.395.005.002c-4.615 3.995-10.23 6.713-16.19 7.928a1.454 1.454 0 00-.243-.24l-3.927-2.903c-.01-.012-.013-.025-.024-.036l-1.534-1.488a1.033 1.033 0 00-.707-.293c-.085 0-.175.028-.263.052a1279.458 1279.458 0 00-6.786-33.41c-.23-1.062-1.635-.838-1.9.016a.988.988 0 00-.433-.083 230.6 230.6 0 00-30.97 2.85c-.549.087-.744.499-.705.919-.599-.068-1.346.436-1.237 1.243a2058.585 2058.585 0 003.872 27.083c-1.69-.786-3.478.022-4.73 1.225-1.818 1.745-3.37 3.852-5.014 5.763-.047.055-.062.114-.095.17-.008 0-.012-.006-.02-.007a63.886 63.886 0 01-11.124-3.283l-3.395-2.068c.146-.35.294-.698.47-1.034a330.705 330.705 0 016.168-18.403 330.682 330.682 0 016.94-17.25c.507-1.17-1.215-2.19-1.729-1.01a335.913 335.913 0 00-11.54 30.42 285.97 285.97 0 00-1.837 5.913c-.349-.122-.683-.275-1.02-.426a.977.977 0 00-.437-.286c-.179-.056-.35-.128-.529-.187-.283-.152-.569-.294-.843-.462-.007.03-.017.062-.025.093a.935.935 0 00-.367-.085c-8.806-3.392-15.782-10.808-18.725-19.748.174-.076.333-.152.515-.227-.036-.122-.073-.243-.096-.371-.053.002-.102-.003-.156.008-.088-.141-.194-.273-.274-.416-1.13-2.008-.265-3.506.88-5.25a455.075 455.075 0 012.802-4.23c7.332-10.905 15.76-22.074 27.93-27.858 3.915-1.861 8.127-2.986 12.376-3.787 2.111-.4 4.235-.72 6.36-1.02.26-.037.584-.1.943-.168l-.002-.177a64.562 64.562 0 015.23-.617c.071-.005.135-.032.204-.05.203 1.376 1.117 2.63 2.347 3.278 1.731 1.994 4.35 3.223 7.037 2.957 3.795-.375 6.828-3.567 7.372-7.246 10.821 3.45 21.675 7.025 31.8 12.23a88.24 88.24 0 014.737 2.649 132.219 132.219 0 003.406 3.539c4.598 5.222 7.446 11.66 9.444 18.29 1.09 3.612 1.956 7.286 2.771 10.968.465 2.103 1.306 4.293-.125 6.189-1.149 1.522-2.78 2.802-4.34 3.876m-1.02 18.932c-3.19 5.672-8.824 9.463-15.179 10.676a22.14 22.14 0 01-2.767.348l.03.088c-3.978.414-8.022.997-11.76 2.365-1.333.684-2.697 1.308-3.995 2.053a2.119 2.119 0 01-.729.258s-.002 0-.002.002c-.305.196-.608.396-.905.61a1.036 1.036 0 00-.339.41c-1.33.939-2.845 1.497-4.539 1.206-1.38-.236-2.776-1.232-3.094-2.662-.309-1.401.731-2.967 2.201-3.016 1.266-.1 1.301-2.044 0-2-1.435.113-5.08.36-4.966-2.001.085-1.81 3.156-2.808 4.331-3.821.824-.71-.083-1.836-.974-1.672a13.503 13.503 0 01-3.556.195c-.544-.044-2.62-.202-2.82-1.02-.203-.832 1.724-1.702 2.27-1.957.96-.448 1.997-.692 3.05-.774 1.28-.1 1.294-1.922 0-2-1.407-.085-3.495-.133-4.28-1.545-1.107-1.99 1.232-2.266 2.652-2.403 3.364-.322 6.754.292 9.814 1.707.05.138.121.264.226.37l.378.377c.09.097.198.167.322.207a.761.761 0 00.385.086.76.76 0 00.385-.086.749.749 0 00.322-.207l.157-.203c.02-.036.031-.074.047-.111.032.025.068.04.1.066l-.096-.078.002-.004.158.125-.083-.44c.001-.02.008-.04.008-.062l-.036-.266c-.014-.054-.04-.102-.063-.151-.098-.522-.2-1.042-.298-1.564l.603.585c.033.032.078.048.115.075.054.057.101.116.168.166l4.072 3.012c.173.127.462.152.683.115.038.175.082.35.118.525a37.858 37.858 0 0018.517-9.037c.434-.388.37-.881.095-1.235 3.512-.587 6.887-1.792 9.95-3.643.484-.293.957-.604 1.423-.926 1.6 5.753.837 12.033-2.1 17.257m-36.139 19.319c.742-.367 1.448-.85 2.124-1.383a20.871 20.871 0 012.56-1.517c.053.296.107.593.157.89a.95.95 0 00.14.358 77.61 77.61 0 01-4.98 1.652m27.314 15.25c-1.344 5.14-4.729 8.865-9.864 10.4-2.776.83-5.676 1.113-8.55 1.37a204.59 204.59 0 01-9.894.64c-13.28.533-26.62-.217-39.749-2.287-10.87-1.713-24.78-3.691-31.62-13.412 2.386-4.071 3.831-8.59 4.963-13.155.352-1.42.69-2.841 1.023-4.264.858.415 1.738.775 2.628 1.109.087.07.177.137.3.18.522.186 1.048.34 1.577.476a42.34 42.34 0 004.806 1.183c.026-.166.076-.326.114-.488 4.1.207 8.274-.27 12.355.114l10.043 3.097 4.461 1.376c-.279 1.497.598 3.032 2.02 3.584.8.31 1.688.159 2.52.089l.681-.057c-.02.013-.035.03-.055.043a79.326 79.326 0 0031.403-5.33c.894-.348.822-1.53.218-1.893a.996.996 0 00.074-.566 96.263 96.263 0 00-.21-1.195c4.28-1.696 9.013-2.225 13.587-2.664.193-.02.346-.09.481-.181a24.948 24.948 0 007.513-2.445 31.969 31.969 0 01-.42 6.354c-.059.348.035.69.252.937a62.62 62.62 0 00.206 7.075c.123 3.336-.02 6.69-.863 9.91m-4.234 52.686c.204 2.37.424 4.742.661 7.11.214 2.143.581 4.316.604 6.472.021 2.057-.692 3.705-2.518 4.734-1.648.928-3.6 1.287-5.434 1.65-4.398.875-8.88 1.25-13.36 1.336-4.52.088-9.042-.118-13.552-.422-2.289-.154-4.597-.27-6.879-.516-1.142-.123-1.59-.607-1.764-1.732-.173-1.11-.208-2.261-.244-3.381-.306-9.355 1.89-18.983-1.138-28.076a77.39 77.39 0 013.47-10.804c.202-.5-.222-1.1-.7-1.23-.572-.157-1.026.195-1.23.698a77.721 77.721 0 00-2.873 8.484.965.965 0 00-.648.62 108.468 108.468 0 00-4.666 17.686 110.325 110.325 0 00-1.198 9.109c-.229 2.578-.167 5.442-1.395 7.794-1.302 2.49-3.965 3.287-6.595 3.488-2.976.228-6.014.038-8.978-.268-6.395-.66-12.666-2.205-18.867-3.854-2.957-.787-6.518-1.31-8.994-3.233-1.143-.888-2.097-2.2-2.184-3.685-.047-.817.203-1.583.568-2.307-.048-1.19.128-2.361.491-3.49-.042-.003-.082-.021-.123-.02 1.615-8.472 3.231-16.945 4.848-25.417l2.701-14.162c.87-4.553 1.896-9.141 1.814-13.8 5.54 2.975 12.053 4.466 18.108 5.597a205.765 205.765 0 0041.166 3.48c6.594-.11 13.313-.354 19.84-1.358 2.546-.39 5.02-1.09 7.226-2.23.03 9.329.311 18.656.853 27.97.267 4.59.597 9.175.99 13.757m-18.78 78.45c-.31 2.442-.764 4.92-.944 7.38-.17.3-.206.683-.033 1.005.08 1.27.68 2.48 2.118 2.55.372.019.624-.144.78-.376 3.406 2.54 6.526 5.524 9.098 8.895-.02.032-.05.049-.069.086-1.148 2.213-1.798 4.636-1.859 7.132-.03 1.264.104 2.535.37 3.772.047.227.165.493.158.725-.007.294.16.194-.149.189-.51-.01-1.16-.358-1.658-.488-4.9-1.28-10.105-.748-14.693 1.36-.724.333-.608 1.12-.139 1.545-3.253-1.796-6.307-4.012-8.775-6.655-2.276-2.436-3.65-5.382-3.943-8.713-.128-1.46-.087-2.92.044-4.373v-.008c.16-1.764.453-3.52.771-5.258a.985.985 0 00.233-.543 575.985 575.985 0 002.604-49.56c.042-4.692.025-9.384-.046-14.076 0-.097-.033-.172-.056-.255 3.545.254 7.094.459 10.647.52 4.298.074 8.6-.09 12.87-.596a6444.781 6444.781 0 00-7.329 55.742m12.328 21.284c2.776 4.193 4.845 10.317.978 14.532-3.603 3.927-9.837 2.458-14.172.806a49.113 49.113 0 01-5.719-2.615c.217.062.46.067.713-.05a19.646 19.646 0 017.74-1.78c1.304-.03 2.614.055 3.9.288 1.22.22 2.448.813 3.677.902 1.071.077 1.965-.532 2.146-1.614.185-1.098-.345-2.302-.446-3.395a14.156 14.156 0 011.183-7.074m-60.575-45.223a1.043 1.043 0 00-.162.457 753.554 753.554 0 00-1.992 23.916c-.036.533.29.83.684.92.353 3.536.822 7.109.135 10.596-.808 4.094-2.782 7.82-4.942 11.347-.457.744-.916 1.517-1.39 2.29-.065-.443-.368-.861-.936-.898a41.845 41.845 0 00-17.453 2.595 52.697 52.697 0 00-2.175-13.752 1.043 1.043 0 00-.209-.386 58.93 58.93 0 001.546-1.45c2.64-2.582 4.66-5.51 5.194-9.24.283-1.973.216-3.95.092-5.93-.025.008-.052.01-.077.016l-.91-18.893c-.002-.05-.024-.082-.03-.126l.511-35.44c1.84.486 3.691.927 5.521 1.384 3.434.858 6.894 1.632 10.39 2.196 3.41.55 6.853.922 10.307.976.2.003.402.004.604.006-2.069 9.72-3.622 19.54-4.708 29.416m-14.016 56.464c-3.56 1.904-8.28 2.214-12.186 1.39-3.823-.805-7.37-3.055-8.885-6.786a9.312 9.312 0 01-.358-1.087c.067-.157.127-.314.205-.468.028-.053.043-.105.061-.155a5.755 5.755 0 01-.186-.946 1.164 1.164 0 00-.347-.282c-.104-3.833 2.76-6.878 5.7-9.602a50.763 50.763 0 011.98 14.13c-.003.586.65 1.22 1.265.966a40.452 40.452 0 0118.164-2.996c.1.007.177-.02.262-.036-1.51 2.344-3.246 4.573-5.675 5.872m23.074-200.79l-1.669.595c.498-.956.935-1.943 1.305-2.956.12.787.243 1.574.364 2.36m-2.832-34.331c-.059.01-.097.042-.148.06-.063-.456-.13-.912-.192-1.37.154.053.32.082.51.052a226.63 226.63 0 0130.44-2.78.934.934 0 00.643-.267c.145.666.283 1.334.427 2.002a149.306 149.306 0 00-31.68 2.303m.532 1.929a146.872 146.872 0 0131.576-2.222 1348.886 1348.886 0 016.036 30 21.425 21.425 0 00-5.928-1.463 19.794 19.794 0 00-3.947.01c-1.132.118-2.44.205-3.418.847-1.56 1.024-1.566 3.218-.664 4.682.433.705 1.038 1.186 1.725 1.53a9.76 9.76 0 00-.934.512c-1.133.729-2.523 1.79-2.213 3.322.431 2.145 2.79 2.773 5.107 2.834-1.384 1.007-2.479 2.22-1.943 4.183.484 1.77 1.883 2.584 3.47 2.917a4.64 4.64 0 00-.802 1.87c-.383 2.1.873 4.107 2.64 5.158 1.21.719 2.41.979 3.573.917a78.003 78.003 0 01-19.24 2.467c-.172-.163-.39-.273-.644-.252l-2.269.19c-.387.034-.775.066-1.164.098-.174.015-.348.032-.523.039a4.529 4.529 0 01-.285.005c-.02-.001-.16-.016-.203-.018a3.514 3.514 0 01-.218-.068l-.029-.018c-.048-.031-.119-.084-.173-.107-.006-.002-.002 0-.006 0-.007-.006-.004-.006-.016-.018-.038-.04-.08-.074-.118-.113 0 0-.04-.044-.07-.08l-.078-.103a2.894 2.894 0 01-.082-.142 4.266 4.266 0 00-.055-.121 1.36 1.36 0 01-.03-.094c-.016-.052-.027-.105-.04-.158l-.005-.014v-.001c.004-.03 0-.063-.002-.097 1.257.452 2.65.964 3.756.09a.869.869 0 00.318-.457c.332-.364.62-.77.822-1.224.897-2.016.188-3.966-1.137-5.47 2.816-.193 6.244-.97 5.481-3.791-.375-1.383-1.473-2.305-2.832-2.922 1.404-.623 2.351-1.701 2.056-3.581-.322-2.044-1.572-3.061-3.14-3.496.546-.272 1.044-.611 1.367-1.172.92-1.591-.068-3.675-1.559-4.52-2.227-1.264-4.958-.01-7.12.762l-2.836 1.012c-.264-1.726-.54-3.451-.8-5.177a2046.382 2046.382 0 01-3.825-26.554c.13.028.27.035.421.008m-31.89 44.96c-.04-.06-.087-.125-.127-.186-.033-.022-.069-.041-.102-.063a33.049 33.049 0 01-13.978-20.898 29.81 29.81 0 01.322-13.246c3.941 6.699 10.167 12.016 17.517 14.71.897.547 1.793 1.093 2.69 1.638l-.052.18c.56.235 1.1.475 1.614.777l.002-.004.04.023c.024.326.17.645.467.779.786.353 1.586.67 2.384.994l.006.009c.291.236.598.447.896.67l.11-.257a64.835 64.835 0 0010.748 3.122.99.99 0 001.05-.431c.321.145.704.112 1.01-.245l3.421-3.983c.868-1.011 2.016-2.803 3.53-2.73 2.871.14-1.376 7.393-2.127 8.53-.464.706.313 1.762 1.13 1.47 1.31-.467 2.623-.968 3.94-1.47.02.138.044.273.064.41.172-.074.355-.127.546-.164a.908.908 0 01.03-.022c-.374.035-.118.008.062-.04h.003c.04-.023.086-.044.131-.067.227-.307.39-.342.4-.281a2.11 2.11 0 01.706-.277l-.043-.276c1.955-.73 3.923-1.42 5.912-1.96.881-.24 2.045-.47 2.868.077.426.284.964 1.022.771 1.579-.257.734-1.6.975-2.24 1.23l-3.029 1.214c-1.173.47-.754 2.214.532 1.929 1.968-.437 5.727-1.167 6.201 1.702.208 1.26-.853 1.565-1.886 1.765-1.502.292-3.02.389-4.549.37-1.287-.015-1.287 1.983 0 2 2.093.029 5.376.305 6.866 2 1.076 1.225-.768 1.448-1.696 1.63-1.383.27-2.78.349-4.189.313-1-.025-1.348 1.373-.504 1.863 1.212.708 2.434 1.739 2.725 3.188.182.915-.214 2.087-1.02 2.609-.41-.126-1.898-.664-2.078-.72l-2.33-.717-5.046-1.557-6.91-2.131c.088-.08.171-.17.264-.242 0-.007 0-.014.002-.02l.001-.004a25.124 25.124 0 00-1.987-.264l-1.463-.451c-.438-.136-.78.028-.994.304-4.985-.131-10.056.562-14.895-.685-2.709-.864-5.306-2.057-7.717-3.693m113.43-35.237c-.062-2.073-.78-4.24-1.24-6.255-.466-2.037-.955-4.07-1.5-6.087-1.084-4.021-2.39-7.988-4.127-11.778a43.162 43.162 0 00-4.319-7.39c.046-.306-.028-.628-.26-.852-.668-.64-1.314-1.301-1.969-1.954-.058-.066-.109-.14-.168-.205-.003.009-.008.017-.01.026a130.369 130.369 0 01-3.532-3.677l.018-.021c-.026-.016-.053-.028-.078-.044-.256-.277-.522-.545-.774-.824-.273-.301-.726-.358-1.09-.21-4.8-2.67-9.81-4.971-14.84-6.975-7.095-2.826-14.366-5.176-21.64-7.493-.613-.195-1.279.334-1.266.965.07 3.227-2.475 6.407-5.804 6.614-1.737.109-3.373-.565-4.606-1.692-.039-.404-.293-.771-.714-.881-.043-.012-.085-.027-.128-.04a6.595 6.595 0 01-1.214-2.67c-.096-.473-.426-.69-.789-.711-.174-.142-.409-.25-.626-.24-.216.01-.427.088-.599.222-.166-.127-.357-.217-.57-.201a69.529 69.529 0 00-9.289 1.332c-.095.02-.172.074-.252.122-3.893.605-7.775 1.363-11.514 2.622-7.033 2.365-13.214 6.576-18.512 11.72-5.298 5.147-9.742 11.113-13.896 17.197a331.308 331.308 0 00-3.05 4.554c-1.01 1.53-2.372 3.146-2.587 5.028-.005.045.003.088 0 .134a.958.958 0 00-.198.837c.211.977.483 1.933.782 2.88-.15.08-.304.159-.456.237.151.138.302.278.454.415.058-.032.125-.062.186-.094a32.702 32.702 0 001.624 3.934.941.941 0 00-.34.482c-2.667 8.723-1.193 18.336 3.352 26.178 2.598 4.484 6.202 8.22 10.401 11.132.072.143.177.276.334.385.728.514 1.482.975 2.244 1.41-.168.714-.34 1.426-.506 2.14-1.215 5.243-2.619 10.485-5.334 15.16-.485.174-.853.667-.635 1.216-.11.517.264.954.737 1.092 1.94 2.71 4.378 4.836 7.112 6.537a.886.886 0 00-.264.685c.138 4.839-.982 9.592-1.884 14.317l-2.654 13.918-5.356 28.08a.98.98 0 00.123.698c-.583 1.496-.727 3.07.02 4.755 1.147 2.589 3.651 4.056 6.225 4.94a55.78 55.78 0 002.575.812l-.548 37.873c.047-.012.096-.016.143-.025l.892 18.526a.993.993 0 00.13.448c.02.968.007 1.937-.074 2.906-.33 3.946-2.43 6.82-5.208 9.463-4.36 4.147-10.159 8.653-8.76 15.219-1.084 3.433.015 7.216 2.405 9.939 3.164 3.608 8.376 4.632 12.96 4.143 8.795-.938 16.553-6.68 20.827-14.313 2.406-4.296 3.695-9.177 3.548-14.108-.023-.786-.778-1.087-1.354-.912.032-.27.077-.535.1-.806.218-2.8-.21-5.59-.45-8.373a83.923 83.923 0 01-.266-4.728c-.039.019-.082.03-.122.048a752.9 752.9 0 011.544-18.376c.02.009.04.015.058.024a294.435 294.435 0 014.946-31.447c.031-.15.03-.288.003-.416 2.014-.073 4.03-.351 5.836-1.238 5.545-2.723 4.778-10.221 5.397-15.366.773-6.425 2.176-12.763 4.107-18.937 2.1 8.223.311 16.87.52 25.264.046 1.864-.107 4.316.861 5.986.986 1.706 3.102 1.578 4.817 1.713l1.983.149a1.008 1.008 0 00-.074.395 574.55 574.55 0 01-1.383 49.608 594.085 594.085 0 01-1.087 13.052.914.914 0 00-.126.308c-.364 1.975-.706 3.998-.889 6.018-4.049 7.568-.369 16.718 5.826 21.89 3.408 2.844 7.417 4.803 11.555 6.343 4.145 1.543 8.964 3.382 13.377 1.892 4.098-1.383 7.321-5.03 7.964-9.333a1.016 1.016 0 00-.258-.852c1.061-3.461.343-7.532-1.316-10.77-3.157-6.161-8.692-11.342-14.4-15.208.223-2.933 1.121-9.526 1.213-10.252a6393.04 6393.04 0 016.98-53.008c.013-.093-.007-.173-.016-.257 3.574-.474 7.968-.99 10.682-3.47 3.248-2.966 1.831-8.087 1.451-11.89a503.373 503.373 0 01-1.273-14.97 508.964 508.964 0 01-1.232-33.96.89.89 0 00-.464-.806c1.763-1.164 3.295-2.671 4.465-4.626 2.305-3.855 2.914-8.488 2.955-12.932a.806.806 0 00.162-.613 73.126 73.126 0 01-.193-1.928c-.01-.364-.015-.73-.029-1.094-.016.01-.034.014-.049.023a64.078 64.078 0 01-.039-8.116c-.043-.004-.084-.017-.127-.024a34.16 34.16 0 00.204-5.783 1.114 1.114 0 00-.073-.314c5.77-3.661 9.646-9.774 10.701-16.518.59-3.768.343-7.607-.813-11.24a26.576 26.576 0 001.706-1.49c1.475-1.415 2.773-3.064 2.708-5.213" fill="#231F20"/></g></svg>