<svg width="500" height="600" xmlns="http://www.w3.org/2000/svg"><g fill="none" fill-rule="evenodd"><path d="M310.576 335.917c-3.03 2.62-6.853 4.46-9.198 7.708-.059.082-.128.143-.191.216-.46.731-1.244 1.255-2.373 1.255-.036 0-.064-.01-.099-.012a3.497 3.497 0 00-1.567-1.685c-2.032-1.073-4.207-.412-5.472 1.436-.135.196-.27.393-.409.587-.129.183-.178.271-.181.292-.227.284-.517.554-.761.79-.046.044-.223.17-.331.27-.023.013-.044.03-.067.041a4.16 4.16 0 00-.128.08 6.718 6.718 0 01-.137.026c-1.289-.347-2.571-.646-3.921-.689-.523.935-1.54 1.633-2.602 1.57-.913-.055-1.137-.004-1.866.132-.924.172-1.842.33-2.78.43a2.207 2.207 0 01-1.236-.23c-2.102.44-4.233.78-6.243 1.174-3.944.773-7.8 1.172-11.723.504-.348.153-.75.242-1.211.242-1.731 0-2.66-1.213-2.823-2.54-.484.104-.976.087-1.508.005-1.285-.198-2.503-.69-3.636-1.324a2.783 2.783 0 01-1.349-1.799c-.093-.035-.19-.075-.283-.109a24.25 24.25 0 01-4.001-.956 2.94 2.94 0 01-.976-.545c-.529.17-1.058.341-1.58.523-1.04.362-2.15.156-3.07-.389-2.581.244-5.195.256-7.698.258-1.132 0-2.004-.39-2.647-.985a75.093 75.093 0 01-5.354-1.098 4.09 4.09 0 01-1.411-.636 28.97 28.97 0 01-4.841-1.859 19.126 19.126 0 00-.466 1.916l-.524 1.001c-1.062 2.013-1.079 4.556-.019 6.525-.781.701-1.26 1.66-1.472 2.684-1.113.781-1.739 2.026-1.928 3.346-2.364 2.74-1.273 8.151 3.268 8.42.614 1.644 2.041 2.94 4.274 3.015.805.91 1.996 1.515 3.58 1.515.183 0 .351-.02.523-.037.659.594 1.535.984 2.6 1.102.765.703 1.814 1.15 3.138 1.178.794 1.115 2.085 1.887 3.875 1.887.701 0 1.316-.13 1.864-.342.709.447 1.587.718 2.641.718a5.33 5.33 0 001.276-.159c.6.326 1.298.544 2.096.613 4.063.355 8.132.64 12.202.891a148.05 148.05 0 0047.37-.894c.824-.15 1.485-.45 2.015-.844.12.007.238.017.363.017 2.393 0 3.884-1.388 4.497-3.127 2.079-1.029 2.902-3.479 2.468-5.637 3.175-7.652 1.4-17.942.032-26.47m5.915-66.212a3.264 3.264 0 01-.219-.815 5.96 5.96 0 00-1.844-.777 99.723 99.723 0 01-6.144-6.143c-1.918-2.09-4.356-1.89-6.117-.608-2.944-2.59-6.435-4.574-10.427-5.8a5.31 5.31 0 00-1.308-.23l-2.306-1.29c-1.602-.895-3.156-.833-4.43-.216a38.809 38.809 0 00-7.355-3.513c-1.687-.6-3.105-.287-4.147.522-1.875.846-2.782 2.82-2.72 4.76-.009.044-.024.084-.032.127l-.014.004.04-.296c-.018.103-.045.2-.068.3-.11.026-.22.054-.338.073l.245-.034c-.798.152-1.529.423-2.187.92l-.874-.138a5.36 5.36 0 00-1.914.03c-.922-.32-1.929-.32-2.87-.06-.628-.674-1.258-1.345-1.87-2.04a7.042 7.042 0 00-1.13-1.035c-1.04-1.09-2.54-1.803-4.5-1.803-.273 0-.528.029-.783.056-.824-.453-1.8-.74-2.932-.794-12.49-.603-23.707 5.399-30.728 15.056a7.81 7.81 0 00-1.36.949 34.199 34.199 0 00-6.52 7.742c-1.358.717-2.445 1.933-3.18 3.502l-.15.287c-.149.285-.29.575-.447.856-.157.28-.322.557-.495.829l-.235.365c-.109.144-.28.376-.337.443-.212.242-.43.478-.656.709-.31.319-1.95 1.712-.676.732-1.103.849-2.008 1.666-2.585 2.839-.1.088-.205.17-.299.264a6.297 6.297 0 00-1.447 2.214c-.037.035-.076.065-.112.102-2.266 2.265-2.76 6.993 0 9.19.743.594 1.487 1.186 2.23 1.778.267.9.755 1.792 1.523 2.627a55.44 55.44 0 005.861 5.48c.318 2.009 1.461 3.862 3.43 4.757 1.1 1.968 3.248 3.357 5.5 3.444l2.94 2.769c.071.068.15.127.224.19-.038.54-.083 1.078-.127 1.617.411.1.805.25 1.19.423.02.005.042.006.063.012.855.235 1.514.767 2.197 1.299.111.088.214.188.325.278 2.556.76 5.028 1.773 7.48 2.867.274-.081.558-.127.854-.09.892.112 1.784.218 2.678.3l.044-.023c1.478-1.43 3.074-2.734 4.692-4.054.107-.087.222-.16.337-.235 1.323-3.74 3.39-7.193 6.218-9.795-.85-2.223-1.16-4.576-1.512-6.99-.595-4.067-1.774-8.01-2.367-12.076-.334-2.281 1.653-3.752 3.383-3.71 7.915-2.633 16.968-1.047 25.157-2.195.086-.012.165-.005.25-.011.546-.386 1.097-.627 1.806-.658.791-.036 1.533.35 2.1.869.447.41.733 1.066.826 1.69.1.45.1.912-.062 1.34-.008.02-.058.214-.095.335.385.363.68.812.798 1.325.103.446.174.895.23 1.345 1.097.22 2.182.472 3.221.737.182-.003.365 0 .55-.001a4.348 4.348 0 00-.297 1.609c-.036.366-.042.747.025 1.155l1.587 9.588c.264 1.593 1.195 2.472 2.327 2.775.331 1.033.747 2.04 1.322 2.999 1.493 2.492 4.167 2.394 5.854.96 2.355.046 4.788-2.22 4.234-5.072l-2.81-14.481c2.795-2.577 6.755-4.137 10.164-5.357 1.302-.467 2.615-.756 3.884-.836.151-.091.311-.172.51-.255.471-.2.904-.321 1.44-.305.401.013.83.072 1.211.218a2.24 2.24 0 011.01.53c.222.133.4.31.532.534.12.13.217.276.302.427 1.128.726 2.083 1.819 2.785 3.337.396.008.748.084 1.06.207a2.913 2.913 0 011.123-.214c1.2 0 2.021.582 2.468 1.382.138-.251.274-.51.413-.753.74-1.3 1.492-2.624 2.106-3.991-1.929-6.055-5.248-11.545-7.723-17.38" fill="#27A9E0"/><path d="M235.066 281.116a570.105 570.105 0 00-3.492 13.224c-.264.029-.52.108-.746.254l-.406.313a1.998 1.998 0 00-.513.882l-.4 2.625a1.538 1.538 0 00-.06.5 1.667 1.667 0 00-.303.624 47.828 47.828 0 01-1.51 5.277 46.143 46.143 0 01-1.09 2.808c-.107.239-.213.477-.322.716-.19.416-.387.829-.59 1.24-.14.286-.214.602-.23.92-.357.255-.634.614-.735 1.058l-1.644 7.179a1.98 1.98 0 00-.317.685l-.057.238c.396.099.775.246 1.146.412.02.005.04.006.057.01.855.236 1.514.767 2.196 1.3.107.084.206.18.313.267.935.278 1.864.577 2.78.915a617.608 617.608 0 019.78-40.384c.693-2.483-3.166-3.543-3.857-1.063m13.924 87.807a91.03 91.03 0 01-7.98-5.487 2.029 2.029 0 00-.782-1.044c-6.75-4.769-10.208-12.109-11.448-19.95-.102-.077-.186-.169-.278-.254a75.916 75.916 0 01-5.347-1.093 4.086 4.086 0 01-1.398-.628 29.191 29.191 0 01-4.078-1.496l-1.04 3.184c-.166.503-.075.982.153 1.4l-4.065 10.651c-.143.377-.12.78.017 1.148-1.423.156-2.45 1.85-1.23 3.32 2.334 2.814 5.102 5.21 8.186 7.174.55.35 1.085.386 1.548.228.866.522 1.805.987 2.743 1.031a44.047 44.047 0 003.64 1.685c6.421 2.6 13.544 2.984 20.35 3.86 2.084.266 2.554-2.783 1.01-3.729m62.646-26.971c.023-2.236-.04-4.461-.159-6.641l-.174-.064c-1.878 1.802-4.16 3.208-6.247 4.797-.467 4.007-.92 8.026-1.743 11.974-1.59 7.625-5.264 16.105-13.148 18.989-2.397.877-1.362 4.744 1.064 3.856a22.08 22.08 0 003.181-1.464c.424.34 1.006.492 1.704.287 5.726-1.688 11.555-3.905 14.223-9.696 1.323-2.871 1.847-5.97 2.17-9.092.39-3.752.389-7.526.042-11.282-.063-.682-.39-1.301-.912-1.664m-82.192-84.318c-.837-.836-1.979-.673-2.828 0a83.609 83.609 0 00-17.605 19.15c-.54.811-1.087 1.647-1.626 2.494-.28.088-.538.241-.738.487a52.64 52.64 0 00-5.179 7.64 1.95 1.95 0 00-.49.862c-.017.057-.027.117-.043.175-.28.536-.57 1.066-.83 1.615-.063.131-.11.267-.149.408a2.236 2.236 0 00-.57.89c-.77 2.23.206 4.676 2.035 6.008l2.451 3.831c.294.458.7.735 1.135.863.268.357.543.704.846 1.006.061.06.136.1.203.152l1.547 2.69c.538.936 1.81 1.26 2.736.717 1.011-.59 1.167-1.749.718-2.736a106.346 106.346 0 01-2.917-7.08c-.754-2.037-1.972-4.509-1.43-6.724a2.16 2.16 0 00.06-.524c.114-.454.255-.909.425-1.362 1.39-3.699 3.752-7.208 5.982-10.445 4.511-6.545 10.041-12.353 16.267-17.288.847-.672.702-2.127 0-2.829m80.096 28.181c-.658-1.785-3.813-1.545-3.864.745-.002.048.005.094.005.142a14.011 14.011 0 013.558-.727c.094-.056.195-.11.3-.16m6.95-16.109a3.195 3.195 0 01-.242-1.05 80.452 80.452 0 00-27.596-14.047c-.005-.007-.007-.017-.012-.026-.3-.468-.686-.706-1.195-.92-2.669-1.116-5.337-2.232-8.005-3.35-.215-.09-.49-.096-.763-.055-1.782-.848-3.727-1.322-5.706-1.312-1.045.007-2.047.917-2 2 .02.404.146.783.356 1.103-1.362.865-.985 3.594 1.12 3.742 14.241.997 28.051 6.194 39.554 14.627 2.88 2.109 5.573 4.46 8.111 6.97-1.245-2.545-2.518-5.08-3.622-7.682" fill="#1C75BB"/><path d="M323.351 305.856l.902 1.21c1.236-1.351 2.391-2.772 3.601-4.148-.929-5.04-1.925-10.086-3.362-14.986a45.757 45.757 0 00-1.575-4.42 1.026 1.026 0 00-.035.589l.452 2.042c-.6-.002-1.214.469-.996 1.217l.151.51c-.12.164-.206.35-.192.559.068.653.114 1.307.164 1.96a.88.88 0 00-.325.404.976.976 0 00-.283.428.876.876 0 00-.152.389c-.013.089-.02.178-.032.267l-.005-.001.002.029c-.344 2.546-.43 5.096-.19 7.658a1 1 0 00.467.775 3.865 3.865 0 01-.25 1.235c-.236.598-.654 1.074-.515 1.76.19.933 1.152 1.654 2.048 2.22a.73.73 0 00.125.303" fill="#27A9E0"/><path d="M244.294 439.84c.014-.789-.878-1.289-1.498-.9-.178-.217-.432-.362-.735-.334-.512.045-1.024.067-1.536.087-.127-.045-.246-.095-.382-.135-1.197-.349-2.501-.18-3.792.025a29.866 29.866 0 01-9.517-2.525c-.592-.269-1.142.046-1.39.49a11.094 11.094 0 01-3.017-.658c-.737-.277-1.403-.739-2.193-.85-.507-.07-1.032.02-1.422.294-.478-.503-1.486-.172-1.617.491a19.5 19.5 0 00-.156 6.515 1.11 1.11 0 01-.003.027h.006c.013.09.017.178.03.267.05.327.337.56.65.66-.03.19-.067.371-.072.576-.41 16.014-.817 32.028-1.226 48.041-.04 1.566.682 2.633 1.696 3.241a5.674 5.674 0 00-.308 1.278l-.016.132c-3.94 7.285-12.82 12.006-14.656 20.19-.483 2.15.668 3.75 2.219 4.504.269.395.58.77.938 1.12.276.272.572.503.874.722 1.615 2.235 4.296 3.557 7.06 3.607.304.006.603-.04.898-.11.218.03.435.035.65.038 2 .254 3.852.11 5.572-.339a7.185 7.185 0 001.835-.463c.603-.245 1.129-.523 1.585-.905 5.294-2.894 9.106-8.738 11.936-14.068.49-.923.583-1.822.42-2.635a23.797 23.797 0 00.962-16.813 3.886 3.886 0 00-.326-.742c.426-.584.71-1.316.756-2.21l.796-15.356c.025-.087.065-.16.083-.252a135.083 135.083 0 002.563-19.585 3.432 3.432 0 00-.118-1.097c1.262-2.652 1.979-5.353 2.117-8.297a3.252 3.252 0 00-.223-1.312l.74-1.809c.16-.392.045-.702-.183-.91m59.36 82.165c-.539-7.872-7.327-14.582-13.756-18.735l.08-.039c-.818-1.352-1.572-2.732-2.197-4.163 1.016-1.394 1.246-3.337.685-4.977.211-.415.364-.9.433-1.468l5.836-47.698c.025-.203.018-.389.02-.579.294-.06.583-.25.675-.57.026-.085.041-.173.066-.259l.005.002.002-.029a21.46 21.46 0 00.8-6.466c-.02-.674-.875-1.132-1.375-.697-.309-.323-.765-.48-1.228-.477-.723.007-1.385.378-2.083.555a9.168 9.168 0 01-2.793.257c-.157-.47-.604-.854-1.172-.665a24.95 24.95 0 01-8.87 1.258c-1.126-.37-2.269-.708-3.388-.52-.128.022-.24.057-.36.085a23.44 23.44 0 01-1.36-.288c-.268-.066-.517.044-.707.235-.498-.465-1.368-.086-1.469.695-.234.178-.382.47-.295.878l.401 1.887c-.202.394-.343.82-.389 1.268-.302 2.931-.05 5.697.695 8.487a3.756 3.756 0 00-.263 1.07 148.887 148.887 0 00-.536 19.714c.003.093.028.171.038.26l-1.504 15.3c-.088.89.061 1.652.358 2.284-.15.21-.286.44-.399.693-.086.19-.15.386-.23.576.374 1.016.433 2.113.004 3.144a22.465 22.465 0 00-.674 1.86c.363.723.542 1.52.435 2.353-.378 2.944-.797 5.877-1.103 8.822l.002.007-.004.014a94.888 94.888 0 00-.173 1.836c.033.265.084.534.171.812.032.102.071.21.103.312-.053 5.864 3.361 10.934 8.005 14.446 4.593 3.472 11.322 7.294 17.175 7.59 5.215.264 10.436-2.885 10.34-8.352a5.374 5.374 0 000-.718" fill="#E4C3A2"/><path d="M242.584 438.246c-.027.106-.051.213-.078.317-.024-.003-.048-.008-.071-.01-.71-.535-1.684-.717-2.613-.712-1.548.008-3.096.041-4.645.063a1.493 1.493 0 00-.514.103c-.06-.024-.128-.031-.191-.046-.076-.228-.14-.459-.217-.686-.623-1.816-3.522-1.036-2.894.797 5.576 16.273 4.469 33.707 3.339 50.587a1.3 1.3 0 00.275.931c-.302 3.252.358 6.406.718 9.66.309 2.772.296 5.675-1.128 8.117-.02.02-.043.034-.062.056-3.204 3.62-4.995 8.27-8.507 11.636-3.12 2.992-7.103 4.875-11.353 5.56-1.56-.363-2.758 1.92-1.151 2.719 5.05 2.51 10.84.502 14.646-3.291 3.947-3.935 6.417-9.376 8.577-14.47.015-.02.033-.035.049-.056 1.92-2.683 2.272-6.1 2.022-9.307-.27-3.47-1.264-6.977-.831-10.468.404-.228.712-.632.74-1.224.158-3.12.273-6.24.359-9.36.025-.117.042-.241.04-.377a65.474 65.474 0 01.014-2.546l.004-.221c.06-2.183.243-4.361.534-6.525.053-.151.094-.31.11-.476l.14-1.383c.005-.042 0-.08 0-.12l.82-3.79a1.53 1.53 0 00.819-1.026c.008-.017.017-.032.024-.05.888-2.206 1.078-4.683.618-7.016a138.63 138.63 0 013.3-16.587c.49-1.87-2.403-2.667-2.893-.798m57.952 88.655c-5.737.866-11.605.216-17.015-1.754.478-.655.501-1.622-.421-2.105-2.113-1.107-4.493-2.384-6.625-3.936a1.439 1.439 0 00-.408-.9c-2.786-2.973-4.201-6.986-4.016-11.011.018-.417-.173-.8-.47-1.076l2.624-27.521c.075-.173.131-.362.134-.588.088-6.165.641-12.308 1.659-18.388a136.006 136.006 0 001.969-21.401c.017-1.497-1.775-1.83-2.596-1.006a1.477 1.477 0 00-1.214.103c-.465-1.513-3.022-1.393-2.927.395.15 2.77.418 5.532.787 8.28-.336.24-.596.62-.666 1.145-.564 4.249-.515 8.5.052 12.737-.343 6.749-.685 13.498-1.029 20.246-.028.569.216.966.572 1.199l-2.417 25.343c-.001.01.002.02.001.03-.688.146-1.117.762-1.182 1.469-.366 3.957 1.488 7.778 4.134 10.62 1.024 1.098 2.178 2.046 3.395 2.912-.73.58-.971 1.873.062 2.538.581.375 1.175.727 1.773 1.066.113.28.309.518.605.644l7.894 3.337c.388.164.73.268 1.156.15.145-.04.291-.114.429-.205 1.512.352 3.048.6 4.593.768-.321.28-.535.682-.515 1.115.036.824.658 1.486 1.5 1.5 2.705.045 5.45-.784 7.646-2.371.125-.091.237-.2.336-.318.326-.041.653-.076.978-.124 1.902-.288 1.095-3.18-.798-2.893" fill="#C3996B"/><path d="M308.267 408.08a4.894 4.894 0 00-.234-1.137 5.562 5.562 0 000-1.552l-2.498-17.763c.621-.489 1.015-1.306.723-2.095a17.253 17.253 0 01-.77-2.728 15.687 15.687 0 01-.119-.71c-.006-.072-.037-.325-.04-.363-.004-.043-.003-.086-.007-.128 1.711-1.476 1.622-3.763.5-5.564.091-.323.18-.648.288-.967.34-.991-.387-2.23-1.397-2.461-.914-.208-1.738.16-2.206.887-1.074-.3-2.28-.263-3.52.278-4.875 2.125-11.892 1.475-17.127 1.669-6.059.224-12.123.253-18.184.084a273.16 273.16 0 01-14.534-.802 47.86 47.86 0 00-6.062-1.621 1.918 1.918 0 00-1.136-.362c-.427-.005-.852-.03-1.277-.05-.373-.054-.74-.128-1.116-.176a1.367 1.367 0 00-.572.062 39.45 39.45 0 01-5.093-.79 1.523 1.523 0 00-1.144-.747c-.177-.026-.355-.047-.532-.071v-.001a21.16 21.16 0 01-4.63-1.177 38.05 38.05 0 01-3.5-1.648c-.856-.461-1.67-.263-2.236.229-.013-.034-.036-.062-.045-.097-.654-2.487-4.513-1.432-3.857 1.063.1.382.251.725.423 1.052l-.002.012c0 .167 0 .334-.002.5l-.625 4.466a5.936 5.936 0 00-.035.32c-2.964 5.185-3.915 10.914-3.112 16.782l-.096.398c-.069.282-.11.557-.134.824a96.757 96.757 0 00-2.793 11.174 5.433 5.433 0 00-.054 1.687c-1.519 4.934-3 9.988-3.324 14.86-.1 1.502.047 2.84.394 4.04-.254 1.369.12 2.852 1.457 4.123a8.771 8.771 0 003.624 2.065c.664.4 1.368.768 2.114 1.097.622.303 1.271.536 2.104.814 1.145.38 2.162.347 3.026.038.316.136.663.25 1.044.33 2.398.512 5.194 1.38 7.893 1.583l1.205.39a4.21 4.21 0 001.548.187c.39.18.826.32 1.324.404 4.515.754 9.865 2.373 14.092.594.047-.002.091.002.14-.001 5.758-.314 6.443-5.224 7.313-9.974l3.28-17.913a586.237 586.237 0 013.662-8.888c.49 2.393.935 4.795 1.336 7.207.065.394.211.75.39 1.09-.085 3.196-.382 6.396-.688 9.59-.38 3.968-.922 8.175.564 11.805-.322 2.705 1.27 5.682 4.785 5.682.291 0 .565-.027.83-.066 1.963.766 4.14.863 6.126.106a5.373 5.373 0 001.682.358c6.321.346 16.637 1.07 23.424-2.334 4.39.552 7.966-3.143 8.494-7.555.69-5.76-.665-12.326-1.084-18.11" fill="#594A41"/><path d="M303.655 372.189c-1.698 1.509-4.09 1.83-6.266 2.083-2.82.327-5.644.64-8.473.88-5.693.487-11.462.676-17.132-.15a1.553 1.553 0 00-1.135.264c-6.084-.83-12.182-.762-18.257-.178-.177-.398-.499-.727-.933-.788a473.153 473.153 0 00-10.47-1.341 1.105 1.105 0 00-.3.007 123.684 123.684 0 01-10.126-2.314 1.358 1.358 0 00-.838.032l-1.108-.242c-.215-.47-.659-.831-1.312-.845a11.784 11.784 0 01-5.089-1.272c-.578-.544-1.207-1.032-1.904-1.41a1.435 1.435 0 00-.406-.143c-.073-.063-.15-.12-.223-.184-1.427-1.293-3.555.823-2.12 2.122.161.147.335.277.503.416 0 .664-.024 1.325-.098 1.98a1.458 1.458 0 00-.405.687l-1.478 5.37c-.213.777.233 1.427.841 1.723-.034.059-.064.12-.1.178-.203.328-.399.617-.595.896-.139.11-.255.25-.328.419-.013.03-.033.058-.047.088-.204.264-.414.525-.649.794-.385.442-.524 1.028-.335 1.555-.22.648.041 1.464.66 1.79.011.007.02.009.031.014-.053.446.108.9.39 1.243-1.83 5.804-3.305 11.853-3.428 17.95-.434.138-.797.455-.909.979l-2.1 9.833c-.136.634.065 1.129.415 1.446l-1 4.18c-.106.439-.045.806.113 1.096-.062.189-.122.378-.183.568a1.6 1.6 0 00-.293.528c-.02.068-.03.139-.049.207a10.205 10.205 0 00-.903 3.139l-.01.032h.005c-.017.135-.047.264-.06.398-.058.658.275 1.09.738 1.297.445 1.119 1.286 2.092 2.35 2.628.241.12.493.162.742.166a8.071 8.071 0 002.237 1.852c.251.142.508.195.755.186a6.35 6.35 0 002.594.486 1.54 1.54 0 00.48-.095l4.926 2.182c.671.298 1.447.228 1.915-.35a19.075 19.075 0 002.58 1.76c.321.18.637.232.925.19.058.029.116.06.177.083 3.378 1.267 6.921 2.012 10.518 2.277.06.005.115-.004.173-.008.268.079.557.116.854.07 3.456-.522 6.923.987 10.347-.176a9.583 9.583 0 006.086-6.325 1.44 1.44 0 00.035-.725c1.667-.257 1.587-2.974-.255-2.974-1.12 0-1.588 1.009-1.407 1.858-.547.045-1.064.365-1.266 1.044a6.471 6.471 0 01-4.865 4.467c-1.476.307-3.05.09-4.533-.06-1.556-.156-3.06-.23-4.606-.036a1.814 1.814 0 00-.563-.135c-3.289-.243-6.575-.99-9.72-2.17a1.147 1.147 0 00-.53-.06c-6.845-3.952-9.696-12.12-11.474-19.39-1.149-4.7-1.517-9.418-.995-14.233.53-4.864 1.862-9.62 3.36-14.263.05-.155.067-.3.072-.438 3.232-1.708 6.807-2.575 10.385-3.33 4.454-.941 8.918-1.855 13.404-2.63 9.12-1.572 18.502-2.481 27.71-1.097.452.068.841-.05 1.147-.267 6.001.78 12.024.614 18.044.064 2.956-.271 5.921-.565 8.862-.966 2.585-.352 5.034-1.023 7.023-2.791 1.446-1.285-.682-3.4-2.12-2.121" fill="#3B2314"/><path d="M306.952 432.486a1.114 1.114 0 00-.31-.482 62.024 62.024 0 00-.303-.235 1.496 1.496 0 00-.757-.205l-.4.054c-.253.07-.474.2-.661.386l-.188.187h-.319a1.117 1.117 0 00-.578.13 1.123 1.123 0 00-.483.31c-.141.13-.24.287-.301.464-.236-.326-.62-.542-1.164-.505-5.929.408-11.851.769-17.776.77l-.575-.337c-.613-.357-1.202-.233-1.622.11-3.748-.522-7.586-1.498-10.489-3.996-1.526-1.314-2.642-2.931-3.293-4.841-.085-.25-.146-.504-.22-.756.029-.44-.075-.85-.319-1.171a34.529 34.529 0 01-.293-1.334c-.214-1.096-.491-2.228-.46-3.35.054-1.93-2.946-1.928-3 0-.035 1.28.27 2.579.507 3.83.15.792.332 1.577.54 2.356l-.195 1.442c-.429.216-.763.639-.807 1.278a20.408 20.408 0 00.196 4.533c.187 1.212.405 2.713 1.711 3.214.354.134.722.163 1.08.119.033.047.054.097.086.144.622.88 1.942.894 2.515.14a14 14 0 002.604.828c.208.145.458.248.759.278 3.693.367 7.383.51 11.074.515.025-.001.052.002.078-.001 5.965.004 11.929-.36 17.899-.771.702-.047 1.146-.483 1.335-1.006.043.056.079.117.13.168l.304.235c.234.136.486.203.757.204h.626c.208.008.4-.035.579-.13.146-.047.272-.128.387-.228l.061-.01a1.48 1.48 0 00.662-.385l.313-.313c.147-.136.249-.297.31-.483.095-.178.138-.371.13-.578a1.12 1.12 0 00-.13-.578m-76.583-53.178a20.388 20.388 0 00-4.839 1.24 1.225 1.225 0 00-.836-.007c-4.942 1.84-8.807 5.85-10.387 10.894-.221.706.203 1.502.869 1.77.621.25 1.576.082 1.873-.614 2.306-5.395 7.436-9.539 13.32-10.283.803-.102 1.5-.616 1.5-1.5 0-.73-.691-1.602-1.5-1.5" fill="#3B2314"/><path d="M243.156 308.194c-6.435 0-6.445 10 0 10 6.435 0 6.445-10 0-10" fill="#27A9E0"/><path d="M322.385 296.207c-.003-.037-.005-.075-.01-.112 1.547-2.527.77-6.492-2.341-7.558a19.875 19.875 0 00-.661-1.094c-1.25-1.906-3.3-2.583-5.16-2.273a5.053 5.053 0 00-1.884-.174c.173-2.62-1.428-5.38-4.814-5.38-.043 0-.083.006-.125.007-.762-.596-1.76-.967-2.997-.967-4.48 0-5.842 4.846-4.083 7.79-1.253-.04-2.53.404-3.556 1.449-.191.195-.366.4-.554.597-1.52.078-3.026.819-3.993 2.357-1.645 2.62-2.871 5.355-3.827 8.297-.294.906-.32 1.743-.15 2.493-.047-.02-.092-.043-.14-.062-.034-.183-.061-.367-.1-.55a.105.105 0 00-.003-.017c.269-1.072.169-2.273-.502-3.51-.38-.7-.816-1.318-1.288-1.88.84-1.663.76-3.713-1.041-5.382-.126-.117-.255-.224-.382-.338-.003-2.016-1.002-4.088-3.317-5.037-12.388-5.075-26.103-4.144-37.974 1.86-.911.46-1.55 1.066-1.957 1.746-2.957 1.813-2.98 6.72-.065 8.58-1.488 1.229-2.332 3.233-1.705 5.172.274.844.76 1.605 1.383 2.216.609 1.646 1.98 2.772 3.752 3.169a4.88 4.88 0 001.428.664 4.823 4.823 0 001.864.53 5.258 5.258 0 001.697.268c1.435 0 2.548-.5 3.345-1.271 1.289-.268 2.578-.512 3.904-.516.8 1.06 2.063 1.787 3.798 1.787 1.403 0 2.5-.475 3.294-1.22.47-.064.934-.146 1.398-.212.484.3 1.016.525 1.58.656.795.765 1.906 1.257 3.334 1.257 1.413 0 2.516-.483 3.309-1.236.775-.104 1.602-.346 2.535-.803a9.653 9.653 0 001.77-1.143c-.063 1.315-.125 2.629-.19 3.943-.02.42.036.839.143 1.245-.563 1.239-.343 2.719 1.273 3.447 2.78 1.25 5.558 2.503 8.337 3.754.018.016.028.034.046.05 1.215 1.093 2.497 2.692 4.06 3.283 1.614.608 3.313-.127 4.835-.702a63.215 63.215 0 0010.869-5.363c1.162-.716 1.564-2.124 1.314-3.347 7.048-1.408 14.033-2.957 16.783-10.6 1.099-3.05-.798-5.224-3.232-5.87m-66.742-45.569c-.757 0-1.36.235-1.82.606-2.966.828-2.69 5.874.86 5.874.757 0 1.36-.236 1.82-.607 2.966-.827 2.691-5.873-.86-5.873m-33.328 60.727a111.274 111.274 0 01-7.036-4.13l-.045-.03a3.045 3.045 0 00-.616-.783 43.92 43.92 0 01-2.216-2.182 112.833 112.833 0 00-2.436-2.774 44.234 44.234 0 01-4.988-7.705c-1.754-3.442-6.932-.41-5.182 3.028a48.401 48.401 0 002.66 4.559c.053.599.307 1.205.84 1.753.118.12.227.246.341.367-.086.585.02 1.226.411 1.882 3.1 5.188 10.1 8.412 15.24 11.196 3.395 1.839 6.427-3.34 3.027-5.181m86.318 26.25c-1.754 2.044-5.424 1.55-7.896 1.968-2.222.376-4.332 1.01-6.41 1.796a63.591 63.591 0 00-11.35 3.11 3.062 3.062 0 00-1.435 1.085 51.213 51.213 0 00-9.925.784c-1.334.236-1.988 1.106-2.128 2.102-.02 0-.04.003-.06.005-2.23.166-4.767.617-6.957-.078a3.034 3.034 0 00-.626-.251c-.13-.057-.264-.1-.391-.167-1.351-.717-3.198-.408-4.027.966l-.414.063c-1.557.236-2.554 2.275-2.096 3.69.549 1.698 2.023 2.349 3.69 2.096.048-.008.103-.013.152-.021.689.174 1.414.105 2.042-.278a8.04 8.04 0 00.75-.175c5.35 1.306 11.683-.133 16.913-.527 1.064-.08 1.826-.608 2.298-1.316a34.87 34.87 0 003.725-.764c.704.058 1.407.12 2.11.21 1.643.21 2.568-.783 2.793-2.021 1.482-.584 2.98-1.03 4.659-.905 1.36.102 2.228-.586 2.622-1.525.127-.027.254-.045.379-.096a15.238 15.238 0 011.996-.66c.502-.06 1.005-.116 1.51-.161a3.29 3.29 0 00.87-.21 3.405 3.405 0 001.875-1.012c.83-.12 1.67-.227 2.522-.325 2.708-.315 5.216-1.001 7.05-3.14 2.503-2.916-1.721-7.18-4.241-4.243M248.68 321.54c-.881 0-1.355.625-1.434 1.304-.888.785-.576 2.657.954 2.657.88 0 1.355-.625 1.432-1.304.89-.784.577-2.657-.952-2.657" fill="#27A9E0"/><path d="M221.805 313.628a63.834 63.834 0 01-1.647-.76c-5.475-3.826-9.72-9.337-11.944-15.644-.229-.653-.754-.964-1.3-1.015-.304-.497-.6-.999-.932-1.477a1.648 1.648 0 00-.574-.527c-.348-.719-.709-1.43-1.046-2.153-.277-.594-1.098-.854-1.695-.69-.26.073-.466.221-.638.401-.76-.266-1.69.177-1.958 1.006-.482.254-.86.724-.8 1.296.273 2.6 1.295 5.042 3.004 7.005 3.333 6.572 9.697 11.18 16.35 14.374.305.213.597.444.91.647.351.227.695.277 1.003.217.68.203 1.413.043 1.805-.628.374-.639.206-1.722-.538-2.052m90.158 23.572c-.207-.318-.515-.601-.896-.687-.396-.091-.8-.056-1.157.15l-2.722 1.574a1.502 1.502 0 00-.46.43c-.994.504-1.7 1.487-1.998 2.615-.201.757-.197 1.53-.125 2.304.038.426.09.85.11 1.28.009.199.012.398.002.597l-.012.16a7.81 7.81 0 00-.05.25c-.176.764.236 1.66 1.048 1.846.766.174 1.656-.23 1.846-1.047.097-.42.132-.836.139-1.25.18.128.384.229.638.263.594.08 1.329-.245 1.574-.832.82.067 1.709-.455 1.667-1.453a25.686 25.686 0 01.01-2.513c.02-.378.053-.755.09-1.132l.015-.025a2.56 2.56 0 00.23-.954 1.48 1.48 0 00.2-.42c.1-.358.056-.836-.15-1.155m14.868-37.121c-.643-.376-1.716-.203-2.052.539-2.016 4.448-6.696 6.688-11.053 8.484-.02 0-.036-.008-.055-.008-1.62.007-3.164-.002-4.024-1.576-.903-1.651-1.533-3.502-2.146-5.277a61.755 61.755 0 01-2.75-11.456c-.113-.803-1.135-1.242-1.845-1.048-.862.238-1.162 1.04-1.048 1.846.08.569.193 1.133.289 1.699-.262.24-.435.593-.43 1.06.088 7.092.509 14.175 1.255 21.228l-.453 1.206c-.125.33-.038.865.15 1.157.18.278.41.484.718.613.298.126.66.179.976.076.354-.114.732-.341.897-.69a6.57 6.57 0 01.616-1.025c.135-.164.27-.326.42-.475.224-.096.44-.204.636-.348.19-.143.388-.286.556-.456.174-.177.322-.38.467-.578l.15-.36c.064-.2.073-.398.028-.597-.011-.083-.046-.163-.07-.246.059-.004.118-.001.175-.01.985-.131 1.956-.458 2.915-.707l3.026-.783c.308-.08.576-.277.773-.53 4.908-2.042 10.127-4.632 12.418-9.685.334-.738.21-1.614-.54-2.052" fill="#1C75BB"/><path d="M276.844 309.183c-.617-1.19-2.053-.822-2.576.088a28.43 28.43 0 01-9.048-.017c-.478-.194-1.048-.2-1.577-.268-.956-.122-1.485.748-1.455 1.58-.274-.173-.537-.365-.801-.524a7.534 7.534 0 00-4.222-1.082 1.53 1.53 0 00-.895.31c-2.263-.577-4.714-.248-6.721 1.02-.507.32-.786.9-.727 1.468-.078.256-.09.53 0 .792a32.993 32.993 0 011.527 6.431l.01.094c.012.103.027.202.047.297.088.735.155 1.473.192 2.217.01.203.059.383.128.547-.352.886.087 2.12 1.328 2.12.057 0 .106-.01.16-.016.05.004.093.015.146.015.642 0 1.066-.336 1.282-.779.347-.177.587-.472.697-.824.276-.059.552-.125.828-.186.482.627 1.24.774 1.956.435.038-.019.063-.03.08-.04l.017-.005c.116-.042.232-.083.352-.119.218-.066.44-.11.665-.154.045-.005.099-.013.15-.017.103-.008.207-.012.31-.014.229-.006.454.011.682.024l.043.002.049.01c.122.025.243.047.364.077.22.054.433.128.648.203.044.016.108.042.156.065a5.364 5.364 0 01.592.337c.024.017.16.117.213.153l.106.091a5.48 5.48 0 01.5.51c.047.054.238.354.06.07.128.202.267.393.383.603.048.087.094.174.138.264.018.035.033.071.05.106.026.073.048.148.073.221-.556.086-1.108.296-1.565.503-.9.41-.926 1.73-.304 2.357.896.902 1.617 1.94 2.057 3.141.183.504.389 1.083.425 1.62.012.177-.021.348-.021.523 0 .117-.01.19-.022.243-1.435-.03-1.982 2.12-.703 2.788.815.425.814 1.673.983 2.553-.678.154-1.033.733-1.075 1.34a2.258 2.258 0 00-1.29-.49c-1.54-.099-2.677 1.221-2.323 2.738.25 1.074.935 2.298 1.666 3.121.9 1.012 2.192 1.502 3.532 1.486 1.3-.014 2.545-.445 3.823-.623 1.24-.173 2.512-.214 3.72-.574a6.632 6.632 0 001.585-.718c.33.07.674.09 1.007.012.956-.224 1.556-1.047 1.603-1.999.017-.343-.1-.64-.292-.88a4.557 4.557 0 00.142-2.012c-.06-.397-.338-.706-.692-.892.285-.9-.18-2.024-1.362-1.954a4.49 4.49 0 00-.478.06c-.41.04-.674-.643-.856-1.499a1.673 1.673 0 00-.025-.333c-.134-.512.018-.929.47-1.208 1.336-.825.685-2.66-.757-2.795-1.448-.134-2.511-.919-3.1-1.987a6.058 6.058 0 012.63-3.382c1.125-.698.872-2.34-.357-2.74-1.212-.397-1.756-1.557-1.68-2.699l1.939-1.016c.385-.2.605-.55.683-.937.225.128.47.217.72.207.949-.042 1.72-.428 2.3-1.059.66.336 1.492.27 1.869-.555 1.269-2.763 1.239-5.733-.162-8.445" fill="#FEFEFE"/><path d="M276.172 299.01c-.137-.87-.646-1.663-1.674-2.149-3.574-1.69-7.051-1.778-10.956-1.825-4.298-.05-8.587-.18-12.87.268-2.32.243-3.427 2.275-3.324 4.092-1.368 1.103-1.988 3.251-.813 4.92.096.323.244.63.428.92l.04.176c-.06 1.754 1.659 3.688 3.5 3.5a76.96 76.96 0 0110.715-.34c1.212.046 2.123-.493 2.698-1.288.336.29.738.522 1.216.663 2.628.781 6.163 1.818 8.86.84 3.173-1.15 2.716-3.509 3.403-6.215.398-1.57-.22-2.816-1.223-3.563" fill="#CCEBF4"/><path d="M281.388 332.096a359.218 359.218 0 00-2.843-14.9c-.043-.2-.118-.372-.19-.547a3.18 3.18 0 00-.545-1.837 2.938 2.938 0 00-.032-1.06c-.71-3.135-.93-6.287-.808-9.45 1.916-2.062.724-5.739-3.626-5.739a6.22 6.22 0 00-1.584.208c-2.01.268-3.86 1.384-4.036 3.346a39.457 39.457 0 00-.154 3.392 2.65 2.65 0 00-.278 1.55c1.218 11.32-.117 27.616 1.74 38.888.08.483.276.906.534 1.287.051 1.34.104-.41 2.39-.042.16.025 4.146-1.95 4.305-1.923 2.253.363 3.965-.294 5.29-1.633 2.774-2.808.368-8.383-.163-11.54" fill="#B1D6DE"/><path d="M261.853 336.673c-.023-.029-.037-.066-.063-.096-1.276-1.398-3.127-1.704-4.929-1.799-.75-.039-1.625-.007-2.43-.12.094-.012.19-.026.285-.04 1.024-.14 2.047-.283 3.071-.425.773-.108 1.504-.21 2.181-.608a8.28 8.28 0 00.843-.316c.333-.148.537-.438.641-.769 1.704-.223 1.637-2.978-.219-2.978-.098 0-.188.012-.276.027-.618-1.206-2.307-1.13-3.5-1.218l-1.122-.082c1.668-.536 3.37-1.08 4.26-2.742.51-.95-.11-2.317-1.296-2.257-2.555.13-4.949.91-7.312 1.84-1.965.772-3.925 1.562-5.886 2.347a22.49 22.49 0 00-1.76.045l.215-1.043a1.643 1.643 0 00-.179-1.149 46.511 46.511 0 001.908-2.703c.33-.51.398-1.149.27-1.752a1.12 1.12 0 00.448-.117 1.12 1.12 0 00.484-.31c.146-.136.25-.297.31-.483a1.12 1.12 0 00.13-.578 54.478 54.478 0 01-.054-.399 1.52 1.52 0 00-.386-.662l-.304-.234a1.49 1.49 0 00-.757-.205h-.285a1.123 1.123 0 00-.42.071 1.204 1.204 0 00-.43-.068l-.4.053a1.5 1.5 0 00-.662.386 5.19 5.19 0 00-.664.628 2.608 2.608 0 00-1.599 1.147 45.276 45.276 0 01-1.923 2.73 44.537 44.537 0 01-2.07 2.436 50.38 50.38 0 01-2.656-.729c-2.185-.675-4.25-1.624-6.536-1.907a1.769 1.769 0 00-.866.124 72.19 72.19 0 00-11.258-6.115 3.443 3.443 0 00-1.206-.273c-2.244-1.83-4.176-4.18-7.129-5.044-.088-.025-.177-.03-.266-.047-.14-.357-.287-.71-.417-1.075-.495-1.389-1.563-2.112-2.719-2.319-.186-.654-.385-1.305-.547-1.966-.18-.726-.75-1.315-1.439-1.62-.208-1.035-.987-1.935-2.352-1.935-2.82 0-3.172 3.841-1.045 4.79.006.032.005.063.013.094.04.156.087.311.127.467a2.45 2.45 0 00-.482 1.42c-.172 4.878 1.095 9.715 3.465 13.932-.232.671-.203 1.43.186 2.06l3.085 5.003c1.078 1.748 2.16 3.43 4.061 4.378 1.017.508 2.101.986 3.21 1.422.583.961 1.633 1.322 2.661 1.776.311.138.621.277.93.416.136.08.28.145.415.223.004.007.006.014.012.021 1.29 1.726 3.354 2.12 5.388 2.35.224.071.44.161.67.222.288.077.597.057.882-.039.573.088 1.154.138 1.738.168.043.036.084.074.132.107 1.098.757 2.434.847 3.727.764 1.49-.096 2.977-.233 4.464-.35l1.294-.102c2.945.37 5.893.738 8.838 1.107.45.056.9.114 1.35.173.068.068.143.134.224.197 1.332 1.021 2.792 1.812 4.338 2.46.136.056.275.104.411.16.052.032.101.07.153.103.186.116.4.174.618.191.212.076.426.144.638.213a7.097 7.097 0 002.364 1.101c.984.251 2.221.422 3.133-.146a2.203 2.203 0 001.021-1.98 6.41 6.41 0 00-.235-1.415 6.852 6.852 0 00-1.12-2.264 8.01 8.01 0 00-1.209-1.272c1.541-.07 3.082-.142 4.622-.213.296-.014.54-.102.744-.232.038.003.073.011.113.011 1.812 0 1.925-2.64.335-2.967m51.404-20.075c.048-.03.038-.025 0 0" fill="#E4C3A2"/><path d="M279.228 342.343c-.1.018-.293.005-.478-.004.083-.228.204-.444.33-.652.176.23.411.416.682.525a5.261 5.261 0 01-.534.131m43.61-29.264a1.968 1.968 0 00-.29-.833c.895-.782.584-2.657-.947-2.657-.59 0-.998.281-1.228.67-.413-.03-.833.111-1.195.412-.13.11-.263.217-.396.322l-.324.235a16.195 16.195 0 01-1.963 1.19 14.52 14.52 0 01-.779.372c-.086.038-.119.052-.123.055l-.047.02-.267.104c-.096.037-.194.07-.289.105a5.02 5.02 0 00-2.56.524c-.075-.01-.146-.023-.226-.023-.453 0-.789.171-1.029.423-.59.212-1.069.695-1.038 1.39 0 .01.004.021.005.032-.503.561-.955 1.165-1.455 1.73-.035.04-.077.073-.113.113a47.263 47.263 0 01-11.899 5.641 1.461 1.461 0 00-.693.448c-1.029.333-2.06.66-3.097.97-.86-.37-1.723-.739-2.585-1.108a53.98 53.98 0 00-10.076-7.457c-1.628-.93-3.09 1.472-1.65 2.494.066.1.137.196.23.274.07.205.18.398.351.56.522.495 1.057.978 1.603 1.447a21.669 21.669 0 00-3.829-.648c-1.473-.332-3.055-.496-4.226.396a1.476 1.476 0 00-1.16.711c-.402.69-.172 1.661.54 2.053a17.503 17.503 0 003.655 1.51l.004.023c.071.254.2.475.385.662.093.085.194.161.294.238.075.057.15.112.225.166-1.652.243-3.26.788-4.706 1.626-.62.198-1.142.685-1.108 1.411.033.734.665 1.597 1.5 1.5a37.89 37.89 0 001.78-.257c.265.272.635.441 1.064.471l1.322.088v.01c.017.384.142.796.44 1.061.138.123.29.233.442.34a46.97 46.97 0 00-2.685 1.795c-.409.298-.688.733-.733 1.201-.366.257-.619.645-.596 1.157.037.824.66 1.485 1.5 1.5l1.348.024c.785.34 1.717.264 2.37-.416.1-.105.173-.219.236-.336.002 0 .004 0 .005-.002 0 .035-.009.07-.008.105.011.238.093.46.2.667-.025.015-.05.024-.076.041-1.612 1.103-3.274 2.995-3.289 5.068-.022 2.961 3.28 2.966 5.35 2.273 2.191-.733 4.328-1.785 6.381-2.84a56.244 56.244 0 002.952-1.64c.256.097.551.124.882.044l9.694-2.35c.241.254.585.423 1.042.422 4.973-.017 9.826-2.22 13.211-5.82 2.966-1.722 5.22-4.623 6.173-7.914.1-.34.05-.713-.103-1.037 1.426-3.358 2.032-7.06 1.603-10.756" fill="#E4C3A2"/><path d="M245.172 316.78c-1.457.999-2.344 2.394-3.172 3.92-.804 1.484-1.556 3.095-3.402 3.363-2.17.316-4.62-.18-6.723-.687-1.703-.41-3.368-.96-5.004-1.583-.12-.231-.28-.438-.53-.567l-9.26-4.755a1.686 1.686 0 00-.926-.153c-2.701-1.52-5.315-3.205-7.77-5.088-2.39-1.832-4.702-4.017-5.95-6.785.139-.551-.12-1.111-.558-1.468-.633-1.7-3.392-.915-2.85.904.017.056.04.109.056.164-.774 1.333-.864 3.02-.352 4.49.185.529.438 1.015.74 1.465-.743.47-1.13 1.51-.3 2.28 2.665 2.48 6.017 3.759 9.395 4.954 3.629 1.284 7.107 2.848 10.598 4.466 3.412 1.58 6.864 3.15 10.488 4.19a32.18 32.18 0 005.553 1.084c1.83.19 3.878.33 5.594-.457 1.477-.676 2.466-1.952 3.259-3.33.748-1.301 1.344-2.936 2.628-3.815 1.584-1.085.085-3.686-1.514-2.591m15.422 6.269c-2.402-1.059-4.937.287-7.236 1.072-2.416.826-4.832 1.653-7.25 2.478-.766.262-1.271 1.03-1.047 1.845.205.747 1.075 1.311 1.845 1.048l6.5-2.22 3.25-1.112c.604-.207 1.769-.81 2.423-.52.742.324 1.61.216 2.052-.54.373-.637.207-1.724-.537-2.052m2.106 8.074c-.128-.394-.358-.652-.689-.896-1.789-1.32-4.148-1.718-6.297-1.25-.768.169-1.288 1.105-1.048 1.847.262.807 1.023 1.227 1.846 1.047.084-.018.17-.031.255-.046.456-.05.912-.048 1.37-.002.433.078.85.196 1.267.344.032.015.065.029.097.045a6.17 6.17 0 01.995.605c.295.217.82.243 1.156.152.348-.096.725-.366.897-.69.183-.348.276-.77.151-1.156m.123 5.989c-1.915-1.72-4.52-2.675-7.103-2.424-.407.04-.76.142-1.06.44-.26.26-.456.687-.44 1.06.034.748.665 1.582 1.5 1.5a7.83 7.83 0 011.561 0l.052.007.033.005c.128.025.257.046.384.073a8.262 8.262 0 011.125.332l.107.042c.231.11.46.22.682.347a7.816 7.816 0 01.736.48c.004.003.002 0 .006.004.1.085.2.168.296.256.583.524 1.554.618 2.121 0 .525-.572.624-1.561 0-2.122m58.061-27.929l-10.208 5.008c-2.994 1.47-5.981 2.936-8.492 5.175-.672.598-.567 1.373-.121 1.905-2.848 1.371-5.881 2.252-9.146 2.258a2.205 2.205 0 00-.55-.143c-.74-.093-1.55-.827-2.162-1.358-.975-.845-1.984-1.645-3.062-2.357-2.098-1.385-4.371-2.472-6.635-3.554-.731-.349-1.62-.202-2.053.538-.383.655-.196 1.702.538 2.052a95.122 95.122 0 013.824 1.904 23.508 23.508 0 00-5.853-1.01 21.45 21.45 0 00-3.574.141c-1.247.155-2.42.63-2.82 1.934-.534 1.736 1.986 2.54 2.764 1.105.104-.028.207-.056.31-.073.262-.039.87-.078 1.259-.098a21.662 21.662 0 012.927.046c1.922.16 3.81.636 5.61 1.321.757.288 1.646-.319 1.845-1.048a1.406 1.406 0 00-.036-.893c.25.16.506.308.75.476 1.877 1.285 3.369 3.094 5.568 3.702.229.19.529.312.906.321 8.204.187 15.012-4.559 21.2-9.422.083-.032.165-.069.244-.119a112.72 112.72 0 017.937-4.59c.269-.142.472-.383.597-.663 1.639-.88.14-3.396-1.567-2.558m-42.082 17.574c-.018-.388-.145-.79-.44-1.06-.27-.25-.676-.49-1.06-.44-2.425.315-4.737 1.073-6.824 2.368-.666.413-.986 1.36-.538 2.052.43.668 1.34.981 2.052.538a15.43 15.43 0 011.852-.985c.229-.106.47-.19.706-.274.485-.172.978-.32 1.478-.443a15.186 15.186 0 011.146-.234c.089-.014.578-.08.128-.022.414-.054.753-.132 1.06-.439.26-.26.457-.687.44-1.06m2.032 4.608c-.206-.32-.514-.603-.896-.69-.416-.094-.768-.022-1.156.152-1.282.576-2.54 1.212-3.577 2.182-1.107 1.037-1.808 2.395-1.94 3.908-.031.363.19.81.44 1.06.26.26.688.456 1.06.44.388-.018.79-.145 1.06-.44.254-.275.373-.577.422-.935.039-.236.105-.463.184-.687.119-.247.258-.48.417-.704.243-.29.51-.552.803-.792.817-.592 1.728-1.03 2.646-1.442.32-.145.599-.571.688-.897.099-.358.055-.837-.151-1.155m.034 5.987c-1.719-.016-3.272.852-4.268 2.227-.928 1.283-1.141 3.197-.532 4.656.157.378.321.681.69.896.32.189.795.268 1.155.152.363-.118.713-.343.896-.69.175-.331.303-.793.152-1.155a3.714 3.714 0 01-.211-.718 3.89 3.89 0 010-.561c.036-.19.086-.376.15-.558.069-.142.137-.284.226-.415a.314.314 0 01.015-.021c.07-.078.138-.154.212-.226.055-.052.112-.101.168-.149.02-.014.04-.029.061-.042.137-.089.283-.161.43-.232.171-.06.348-.109.528-.144.108-.009.218-.021.328-.02.784.008 1.536-.695 1.5-1.5-.037-.819-.659-1.492-1.5-1.5" fill="#C3996B"/><path d="M320.873 308.028a26.302 26.302 0 01-9.07 3.984 1.055 1.055 0 00-.764-.11l-4.185.926a80.45 80.45 0 01-2.186-18.895c.004-1.287-1.996-1.288-2 0a82.713 82.713 0 002.518 20.53c.21.836 1.14.862 1.638.418l1.783-.395.004.002c-4.615 3.995-10.23 6.713-16.19 7.928a1.454 1.454 0 00-.243-.24l-3.165-2.34a23.936 23.936 0 00-1.475-1.268l-.37-.36.012.073a24.553 24.553 0 00-7.778-3.97.893.893 0 00-.75.082c-.138-5.261-.278-10.524-.418-15.786a.91.91 0 00-.515-.824c.375-.488.32-1.381-.45-1.666a45.735 45.735 0 00-16.997-2.858 46.12 46.12 0 00-8.403.979c-1.997.42-5.42.724-6.191 2.98-.035.103-.033.193-.036.285-.354.124-.528.477-.524.852-.042-.002-.085-.011-.128-.014.836 5.932 1.689 11.86 2.574 17.785-1.691-.786-3.477.022-4.73 1.225-1.818 1.745-3.371 3.852-5.013 5.763-.047.055-.063.114-.096.17-.008 0-.012-.006-.02-.007a63.886 63.886 0 01-11.124-3.283l-3.395-2.068c.146-.35.295-.698.47-1.034a329.892 329.892 0 016.169-18.403 329.791 329.791 0 016.938-17.25c.508-1.17-1.214-2.19-1.727-1.01a335.615 335.615 0 00-11.54 30.42 280.019 280.019 0 00-1.838 5.913c-.348-.122-.683-.275-1.02-.426a.968.968 0 00-.436-.286c-.18-.056-.352-.128-.53-.187-.282-.152-.57-.294-.843-.462l-.024.093a.94.94 0 00-.368-.085c-8.806-3.392-15.782-10.808-18.725-19.748.174-.076.334-.152.515-.227-.036-.122-.073-.243-.096-.371-.052.002-.101-.003-.155.008-.09-.141-.194-.273-.275-.416-1.13-2.008-.266-3.506.879-5.25a435.913 435.913 0 012.804-4.23c7.332-10.905 15.76-22.074 27.928-27.858 3.917-1.861 8.128-2.986 12.377-3.787 2.11-.4 4.235-.72 6.36-1.02.26-.037.584-.1.943-.168l-.002-.177a64.615 64.615 0 015.23-.617c.07-.005.135-.032.204-.05.203 1.376 1.118 2.63 2.348 3.278 1.73 1.994 4.349 3.223 7.036 2.957 3.795-.375 6.828-3.567 7.372-7.246 10.82 3.45 21.675 7.025 31.8 12.23a87.856 87.856 0 014.737 2.649 132.219 132.219 0 003.406 3.539c4.598 5.222 7.446 11.66 9.445 18.29 1.089 3.612 1.955 7.286 2.77 10.968.465 2.103 1.306 4.293-.125 6.189-1.15 1.522-2.78 2.802-4.34 3.876m-1.02 18.932c-3.19 5.672-8.824 9.463-15.18 10.676-.916.176-1.84.289-2.765.348l.029.088c-3.392.352-6.832.834-10.09 1.814-.08.017-.16.02-.242.06-.03.014-.061.025-.091.04-.45.14-.897.289-1.338.45-.322.166-.647.324-.97.486.02.013.038.035.058.05-1.972.856-3.961 1.668-5.99 2.383-1.204.425-2.522 1.035-3.801 1.183-.636.074-.871-.11-1.288-.542-.355-.368-.708-.573-1.166-.676a2.937 2.937 0 01-.444-1.006c-.31-1.401.73-2.967 2.2-3.016 1.266-.1 1.3-2.044 0-2-1.435.113-5.08.36-4.966-2.001.085-1.81 3.156-2.808 4.33-3.821.825-.71-.082-1.836-.972-1.672a13.503 13.503 0 01-3.556.195c-.545-.044-2.621-.202-2.82-1.02-.204-.832 1.723-1.702 2.268-1.957.96-.448 1.998-.692 3.05-.774 1.28-.1 1.295-1.922 0-2-1.406-.085-3.494-.133-4.28-1.545-1.105-1.99 1.233-2.266 2.653-2.403 2.848-.272 5.712.132 8.38 1.12a2.222 2.222 0 01.056-.534 12.592 12.592 0 01-.182-1.323c-.01-.1-.012-.198-.02-.298a21.502 21.502 0 00-3.97-.881c0-.022.012-.038.012-.062-.02-.724-.04-1.448-.058-2.173.058.03.102.07.17.092a22.369 22.369 0 018.583 4.875c.003.016.01.033.013.05l.208.153c.12.114.249.222.368.339a.982.982 0 00.417.242l2.709 2.004c.173.127.463.152.683.115.038.175.082.35.119.525a37.859 37.859 0 0018.516-9.037c.434-.388.369-.881.095-1.235 3.512-.587 6.887-1.792 9.95-3.643.484-.293.957-.604 1.424-.926 1.599 5.753.837 12.033-2.102 17.257m-8.823 34.569c-1.344 5.14-4.728 8.865-9.864 10.4-2.776.83-5.676 1.113-8.551 1.37-3.292.293-6.591.507-9.893.64-13.28.533-26.62-.217-39.75-2.287-10.87-1.713-24.78-3.691-31.62-13.412 2.387-4.071 3.833-8.59 4.964-13.155.352-1.42.689-2.841 1.023-4.264.858.415 1.738.775 2.628 1.109.087.07.177.137.299.18.119.042.239.068.358.107a.862.862 0 00.523.33c7.569 1.587 15.539-.201 22.996 1.976 1.904.556 3.582 1.457 5.28 2.458 1.526.899 3.126 1.81 4.9 2.08 1.686.259 3.557-.147 4.886-1.184a.993.993 0 00.357.175c5.793 1.519 11.96.854 17.31-1.824.087-.044.139-.103.202-.158.033.02.065.049.1.069.057-.053.123-.098.183-.15.113.087.23.167.354.232.568.305 1.238.37 1.87.303 1.443-.153 2.862-.761 4.22-1.24a96.37 96.37 0 008.23-3.35c3.797-1.212 7.869-1.675 11.826-2.055.193-.02.347-.09.482-.181a24.957 24.957 0 007.513-2.445c.062 2.126-.061 4.255-.421 6.354-.058.348.035.69.252.937a62.856 62.856 0 00.206 7.075c.123 3.336-.021 6.69-.863 9.91m-4.233 52.686c.203 2.37.423 4.742.66 7.11.214 2.143.58 4.316.603 6.472.022 2.057-.691 3.705-2.517 4.734-1.648.928-3.6 1.287-5.433 1.65-4.4.875-8.881 1.25-13.361 1.336-4.521.088-9.042-.118-13.551-.422-2.29-.154-4.597-.27-6.88-.516-1.142-.123-1.59-.607-1.764-1.732-.172-1.11-.207-2.261-.244-3.381-.306-9.355 1.889-18.983-1.137-28.076a77.254 77.254 0 013.468-10.804c.203-.5-.221-1.1-.7-1.23-.571-.157-1.025.195-1.23.698a77.297 77.297 0 00-2.871 8.484.965.965 0 00-.65.62 108.468 108.468 0 00-4.665 17.686 110.325 110.325 0 00-1.198 9.109c-.23 2.578-.167 5.442-1.395 7.794-1.302 2.49-3.965 3.287-6.595 3.488-2.976.228-6.014.038-8.977-.268-6.396-.66-12.667-2.205-18.868-3.854-2.957-.787-6.518-1.31-8.993-3.233-1.143-.888-2.098-2.2-2.185-3.685-.047-.817.203-1.583.568-2.307a10.09 10.09 0 01.49-3.49c-.041-.003-.08-.021-.122-.02 1.615-8.472 3.23-16.945 4.848-25.417.9-4.721 1.8-9.442 2.702-14.162.868-4.553 1.895-9.141 1.813-13.8 5.539 2.975 12.053 4.466 18.109 5.597a205.755 205.755 0 0041.165 3.48c6.595-.11 13.313-.354 19.84-1.358 2.546-.39 5.02-1.09 7.226-2.23.03 9.329.31 18.656.853 27.97.267 4.59.597 9.175.99 13.757m-18.78 78.45c-.311 2.442-.764 4.92-.944 7.38-.17.3-.206.683-.033 1.005.08 1.27.68 2.48 2.118 2.55.373.019.624-.144.78-.376 3.406 2.54 6.526 5.524 9.098 8.895-.021.032-.05.049-.07.086-1.146 2.213-1.797 4.636-1.858 7.132-.03 1.264.104 2.535.37 3.772.048.227.165.493.159.725-.008.294.159.194-.15.189-.51-.01-1.161-.358-1.658-.488-4.901-1.28-10.104-.748-14.692 1.36-.725.333-.608 1.12-.14 1.545-3.253-1.796-6.306-4.012-8.775-6.655-2.275-2.436-3.651-5.382-3.943-8.713-.128-1.46-.087-2.92.044-4.373v-.008c.16-1.764.453-3.52.77-5.258a.985.985 0 00.234-.543 575.18 575.18 0 002.604-49.56c.042-4.692.025-9.384-.046-14.076-.001-.097-.033-.172-.056-.255 3.545.254 7.094.459 10.648.52 4.297.074 8.598-.09 12.868-.596a6444.781 6444.781 0 00-7.328 55.742m12.329 21.284c2.775 4.193 4.844 10.317.977 14.532-3.602 3.927-9.837 2.458-14.172.806a49.113 49.113 0 01-5.72-2.615 1 1 0 00.714-.05 19.65 19.65 0 017.74-1.78c1.304-.03 2.615.055 3.899.288 1.22.22 2.449.813 3.678.902 1.07.077 1.965-.532 2.146-1.614.185-1.098-.345-2.302-.446-3.395a14.157 14.157 0 011.184-7.074m-60.575-45.223a1.03 1.03 0 00-.162.457 750.624 750.624 0 00-1.993 23.916c-.036.533.289.83.685.92.352 3.536.822 7.109.134 10.596-.808 4.094-2.781 7.82-4.942 11.347-.456.744-.916 1.517-1.391 2.29-.064-.443-.367-.861-.935-.898a41.847 41.847 0 00-17.453 2.595 52.655 52.655 0 00-2.175-13.752 1.029 1.029 0 00-.21-.386c.538-.49 1.06-.972 1.548-1.45 2.639-2.582 4.659-5.51 5.193-9.24.284-1.973.216-3.95.092-5.93-.025.008-.051.01-.077.016l-.91-18.893c-.002-.05-.024-.082-.031-.126.17-11.813.34-23.626.512-35.44 1.839.486 3.692.927 5.52 1.384 3.435.858 6.895 1.632 10.392 2.196 3.41.55 6.852.922 10.306.976.2.003.402.004.604.006-2.07 9.72-3.622 19.54-4.707 29.416m-14.017 56.464c-1.718.919-3.707 1.458-5.743 1.687a1.227 1.227 0 00-.66.034c-.032.01-.064.018-.095.029-1.941.143-3.9.018-5.688-.36-3.822-.805-7.37-3.055-8.885-6.786a9.117 9.117 0 01-.357-1.087c.066-.157.126-.314.205-.468.027-.053.043-.105.06-.155a5.757 5.757 0 01-.186-.946 1.173 1.173 0 00-.346-.282c-.104-3.833 2.759-6.878 5.698-9.602a50.689 50.689 0 011.98 14.13c-.002.586.652 1.22 1.266.966a40.454 40.454 0 0118.164-2.996c.1.007.177-.02.262-.036-1.51 2.344-3.246 4.573-5.675 5.872m23.074-200.79l-1.67.595a24.71 24.71 0 001.306-2.956c.12.787.243 1.574.364 2.36m21.355-.548c.433.705 1.038 1.186 1.726 1.53a9.775 9.775 0 00-.935.512c-1.133.729-2.523 1.79-2.213 3.322.432 2.145 2.789 2.773 5.107 2.834-1.383 1.007-2.478 2.22-1.942 4.183.483 1.77 1.882 2.584 3.47 2.917a4.64 4.64 0 00-.803 1.87c-.24 1.32.17 2.598.943 3.629-4.61 2.213-9.885 2.764-14.857 1.6.078-.277.134-.553.157-.824.005-.022.013-.041.018-.062a.997.997 0 00-.017-.501c-.06-1.264-.652-2.445-1.522-3.432 2.816-.194 6.245-.97 5.48-3.792-.373-1.383-1.471-2.305-2.831-2.922 1.405-.623 2.35-1.701 2.056-3.581-.322-2.044-1.572-3.061-3.14-3.496.547-.272 1.044-.611 1.367-1.172.92-1.591-.068-3.675-1.558-4.52-2.228-1.264-4.96-.01-7.121.762l-2.835 1.012c-.265-1.726-.541-3.451-.802-5.177-.395-2.614-.778-5.23-1.16-7.844 2.482.068 4.71-1.035 7.139-1.332 1.456-.18 2.519.286 3.843.799 1.058.41 2.158.583 3.19.009.556-.306.984-.85 1.65-.934.604-.077 1.246.165 1.806.359 1.154.399 2.235.855 3.459.99a9.401 9.401 0 006.62-1.791c.01-.006.018-.015.027-.023l.252 9.468a19.718 19.718 0 00-2.491.079c-1.132.117-2.442.204-3.42.846-1.56 1.024-1.565 3.218-.663 4.682m-22.511-26.193c.42-.715 2.594-.988 3.218-1.144a44.17 44.17 0 013.473-.715 43.263 43.263 0 017.685-.547c4.556.072 9.049.876 13.357 2.328-9.104 2.14-18.526 1.199-27.733.078m28.585 1.773l.203 7.612c-.27-.198-.626-.24-.99.029-1.923 1.424-4.33 1.97-6.652 1.278-2.148-.64-4.18-1.836-6.258-.337-.576.415-.988.62-1.704.429-.594-.16-1.143-.475-1.718-.693-1.085-.413-2.211-.505-3.36-.373-2.433.28-4.697 1.449-7.177 1.325-.046-.002-.078.015-.12.017-.44-3.04-.872-6.08-1.3-9.12 9.659 1.179 19.525 2.165 29.076-.167m-61.62 37.527l-.126-.187c-.033-.022-.07-.041-.102-.063a33.049 33.049 0 01-13.978-20.898 29.796 29.796 0 01.323-13.246c3.94 6.699 10.166 12.016 17.516 14.71.897.547 1.793 1.093 2.69 1.638l-.052.18c.56.235 1.1.475 1.615.777v-.004l.04.023c.025.326.17.645.468.779.786.353 1.586.67 2.384.994l.006.009c.29.236.598.447.896.67l.11-.257a64.835 64.835 0 0010.748 3.122.99.99 0 001.05-.431c.322.145.704.112 1.01-.245l3.42-3.983c.869-1.011 2.017-2.803 3.532-2.73 2.87.14-1.377 7.393-2.127 8.53-.465.706.312 1.762 1.128 1.47 1.31-.467 2.624-.968 3.94-1.47.02.138.045.273.065.41.172-.074.355-.127.547-.164l.029-.022c-.374.035-.118.008.062-.04h.003c.04-.023.086-.044.13-.067.229-.307.39-.342.4-.281a2.11 2.11 0 01.707-.277 11.387 11.387 0 00-.043-.276c1.956-.73 3.924-1.42 5.912-1.96.88-.24 2.045-.47 2.868.077.426.284.965 1.022.77 1.579-.256.734-1.6.975-2.24 1.23l-3.027 1.214c-1.173.47-.754 2.214.53 1.929 1.97-.437 5.728-1.167 6.202 1.702.208 1.26-.853 1.565-1.886 1.765-1.502.292-3.02.389-4.548.37-1.288-.015-1.288 1.983 0 2 2.092.029 5.375.305 6.865 2 1.076 1.225-.768 1.448-1.695 1.63-1.384.27-2.782.349-4.19.313-1.001-.025-1.348 1.373-.504 1.863 1.212.708 2.434 1.739 2.725 3.188.034.172.045.353.04.537-.945 3.143-5.26 1.95-7.31.827-1.492-.82-2.902-1.76-4.472-2.435a22.071 22.071 0 00-4.813-1.428c-6.078-1.1-12.313-.231-18.406-1.048l.017-.015a20.297 20.297 0 01-1.512-.316c-2.71-.864-5.306-2.057-7.716-3.693m113.429-35.237c-.061-2.073-.781-4.24-1.241-6.255-.465-2.037-.954-4.07-1.498-6.087-1.085-4.021-2.391-7.988-4.128-11.778a43.162 43.162 0 00-4.32-7.39c.047-.306-.026-.628-.26-.852-.666-.64-1.313-1.301-1.967-1.954-.058-.066-.11-.14-.17-.205-.002.009-.006.017-.01.026a130.404 130.404 0 01-3.531-3.677l.018-.021c-.025-.016-.053-.028-.078-.044-.256-.277-.521-.545-.774-.824-.273-.301-.726-.358-1.09-.21-4.8-2.67-9.81-4.971-14.841-6.975-7.094-2.826-14.365-5.176-21.638-7.493-.613-.195-1.28.334-1.266.965.069 3.227-2.476 6.407-5.805 6.614-1.737.109-3.373-.565-4.606-1.692-.04-.404-.292-.771-.714-.881-.043-.012-.085-.027-.127-.04a6.597 6.597 0 01-1.215-2.67c-.095-.473-.426-.69-.79-.711-.173-.142-.408-.25-.625-.24-.216.01-.427.088-.6.222-.164-.127-.355-.217-.57-.201a69.552 69.552 0 00-9.288 1.332c-.095.02-.172.074-.251.122-3.894.605-7.776 1.363-11.515 2.622-7.033 2.365-13.213 6.576-18.511 11.72-5.3 5.147-9.743 11.113-13.897 17.197a331.241 331.241 0 00-3.05 4.554c-1.01 1.53-2.371 3.146-2.586 5.028-.006.045.002.088-.002.134a.961.961 0 00-.197.837c.21.977.483 1.933.782 2.88-.15.08-.304.159-.456.237.152.138.302.278.454.415.059-.032.126-.062.186-.094a32.702 32.702 0 001.624 3.934.941.941 0 00-.341.482c-2.665 8.723-1.192 18.336 3.353 26.178 2.598 4.484 6.202 8.22 10.4 11.132.073.143.178.276.335.385.729.514 1.482.975 2.245 1.41-.17.714-.342 1.426-.507 2.14-1.214 5.243-2.62 10.485-5.334 15.16-.485.174-.853.667-.635 1.216-.11.517.265.954.738 1.092 1.939 2.71 4.377 4.836 7.11 6.537a.886.886 0 00-.263.685c.138 4.839-.981 9.592-1.883 14.317l-2.655 13.918-5.356 28.08a.98.98 0 00.123.698c-.583 1.496-.727 3.07.02 4.755 1.147 2.589 3.65 4.056 6.225 4.94.848.293 1.709.56 2.576.812l-.55 37.873c.048-.012.097-.016.144-.025l.892 18.526c.009.175.058.32.129.448.02.968.008 1.937-.073 2.906-.331 3.946-2.43 6.82-5.208 9.463-4.361 4.147-10.16 8.653-8.761 15.219-1.083 3.433.016 7.216 2.406 9.939 3.164 3.608 8.377 4.632 12.96 4.143 8.796-.938 16.554-6.68 20.828-14.313 2.406-4.296 3.694-9.177 3.548-14.108-.023-.786-.78-1.087-1.355-.912.032-.27.077-.535.099-.806.219-2.8-.21-5.59-.45-8.373a83.92 83.92 0 01-.264-4.728c-.04.019-.082.03-.123.048.442-6.132.952-12.257 1.545-18.376.019.009.039.015.058.024a294.685 294.685 0 014.945-31.447c.032-.15.029-.288.004-.416 2.013-.073 4.03-.351 5.836-1.238 5.544-2.723 4.777-10.221 5.396-15.366.773-6.425 2.176-12.763 4.108-18.937 2.098 8.223.31 16.87.519 25.264.046 1.864-.106 4.316.86 5.986.988 1.706 3.103 1.578 4.819 1.713l1.982.149a1.008 1.008 0 00-.074.395 574.55 574.55 0 01-1.383 49.608 587.997 587.997 0 01-1.087 13.052.914.914 0 00-.126.308c-.364 1.975-.705 3.998-.89 6.018-4.048 7.568-.368 16.718 5.827 21.89 3.408 2.844 7.417 4.803 11.555 6.343 4.145 1.543 8.964 3.382 13.377 1.892 4.098-1.383 7.322-5.03 7.964-9.333a1.016 1.016 0 00-.258-.852c1.062-3.461.343-7.532-1.316-10.77-3.157-6.161-8.692-11.342-14.401-15.208.224-2.933 1.123-9.526 1.214-10.252a6393.11 6393.11 0 016.981-53.008c.012-.093-.008-.173-.016-.257 3.573-.474 7.967-.99 10.682-3.47 3.247-2.966 1.83-8.087 1.45-11.89a503.367 503.367 0 01-1.272-14.97 508.294 508.294 0 01-1.233-33.96.891.891 0 00-.463-.806c1.762-1.164 3.295-2.671 4.464-4.626 2.305-3.855 2.914-8.488 2.956-12.932a.81.81 0 00.162-.613 69.116 69.116 0 01-.194-1.928c-.01-.364-.015-.73-.03-1.094-.015.01-.033.014-.048.023a64.265 64.265 0 01-.04-8.116c-.042-.004-.083-.017-.126-.024a34.16 34.16 0 00.204-5.783 1.113 1.113 0 00-.072-.314c5.768-3.661 9.645-9.774 10.7-16.518.59-3.768.343-7.607-.813-11.24a26.576 26.576 0 001.706-1.49c1.475-1.415 2.773-3.064 2.708-5.213" fill="#231F20"/></g></svg>