<svg width="500" height="600" xmlns="http://www.w3.org/2000/svg" xmlns:xlink="http://www.w3.org/1999/xlink"><defs><path id="a" d="M0 .025h192.203V289H0z"/><path id="c" d="M.1.738h147.402v78.87H.1z"/></defs><g fill="none" fill-rule="evenodd"><path d="M326.68 276.356c-.031-.271.007-.53.073-.782a4.443 4.443 0 00-2.25-1.041l-5.898-5.108a5.948 5.948 0 00-2.547-1.288 99.986 99.986 0 01-6.143-6.143c-1.918-2.09-4.355-1.89-6.117-.608-2.943-2.59-6.434-4.574-10.427-5.8a5.35 5.35 0 00-1.307-.23l-2.307-1.29c-1.601-.895-3.155-.833-4.43-.216a38.818 38.818 0 00-7.355-3.513c-1.687-.6-3.104-.287-4.146.522-1.875.846-2.783 2.82-2.721 4.76-.01.044-.024.084-.031.127l-.015.004.039-.296c-.017.103-.044.2-.066.3-.112.026-.222.054-.338.073.082-.011.163-.023.245-.033-.8.15-1.53.421-2.188.92l-.874-.14a5.36 5.36 0 00-1.914.031c-.922-.32-1.928-.32-2.871-.06-.627-.675-1.257-1.346-1.87-2.04a6.958 6.958 0 00-1.13-1.035c-1.04-1.09-2.54-1.802-4.5-1.802-.272 0-.526.028-.781.055-.824-.453-1.802-.74-2.933-.794-12.49-.603-23.707 5.399-30.727 15.056-.48.265-.94.578-1.362.949a34.194 34.194 0 00-6.52 7.742c-1.357.717-2.443 1.933-3.18 3.502-.026.053-.07.139-.148.287-.15.286-.29.575-.448.856-.157.28-.322.557-.495.829a48.43 48.43 0 01-.235.365c-.108.144-.28.376-.337.443-.212.242-.43.478-.655.709-.312.319-1.95 1.712-.677.732-1.102.849-2.008 1.666-2.585 2.839-.1.088-.205.17-.3.264a6.31 6.31 0 00-1.446 2.214c-.037.036-.075.065-.111.102-2.267 2.266-2.761 6.993 0 9.19l2.229 1.777c.268.901.755 1.792 1.524 2.627a55.43 55.43 0 005.86 5.48c.318 2.01 1.46 3.862 3.43 4.757 1.1 1.968 3.249 3.357 5.5 3.444l2.939 2.77c.072.067.15.126.226.19-.057.79-.122 1.578-.187 2.367-.98 1.21-1.318 2.895-1.018 4.437a71.165 71.165 0 00-.93 3.796c-2.315 1.165-3.06 4.102-2.226 6.405-.925 1.67-1.57 3.505-1.93 5.481l-.525 1.001c-1.061 2.013-1.08 4.556-.018 6.525-.782.701-1.261 1.66-1.473 2.684-1.112.781-1.738 2.026-1.928 3.346-2.364 2.74-1.273 8.151 3.267 8.42.615 1.644 2.042 2.94 4.275 3.015.805.91 1.996 1.515 3.58 1.515.183 0 .35-.02.524-.037.658.594 1.534.984 2.599 1.102.765.703 1.813 1.15 3.138 1.178.794 1.115 2.085 1.887 3.875 1.887a5.1 5.1 0 001.864-.342c.709.447 1.587.718 2.64.718a5.33 5.33 0 001.277-.159c.6.326 1.298.544 2.096.613 4.064.355 8.132.64 12.202.891a148.022 148.022 0 0047.37-.895c.825-.149 1.486-.449 2.015-.843.12.007.238.017.363.017 2.393 0 3.884-1.388 4.497-3.127 2.079-1.029 2.902-3.479 2.468-5.637 3.192-7.693 1.38-18.053.01-26.61a5.634 5.634 0 00.445-2.905c.123-1.384-.241-2.817-1.115-3.876a5.556 5.556 0 00-.284-1.496 88.4 88.4 0 01.458-8.653c.166-1.644-.374-2.859-1.276-3.654-.016-2.685.068-5.363.346-8.028.187-1.787-.461-3.07-1.506-3.855l-.065-1.677c.36.35.784.656 1.264.924a44.034 44.034 0 00-1.213-4.009c-.403-1.154-.093-2.089.553-2.72a3.3 3.3 0 01.3-.86c.734-1.39 2.744-1.892 4.063-1.067l.003.002c.217.061.435.116.654.174 2.262-.495 4.608-.659 6.895-.95a2.24 2.24 0 01.878.058c.382-.714.764-1.424 1.155-2.11 1.445-2.54 2.953-5.172 3.336-8.049.019-.02.036-.045.054-.066-.103-2.213-.193-4.426-.45-6.629" fill="#27A9E0"/><path d="M250.621 368.946a91.03 91.03 0 01-7.98-5.487 2.029 2.029 0 00-.782-1.044c-11.096-7.84-13.363-22.615-11.363-35.178.098-.617-.017-1.237-.344-1.713a617.68 617.68 0 0110.403-43.322c.692-2.484-3.166-3.544-3.858-1.064a575.189 575.189 0 00-3.492 13.224c-.264.03-.52.108-.746.254-.135.104-.27.21-.405.313a2 2 0 00-.514.882l-.399 2.625a1.512 1.512 0 00-.062.501 1.675 1.675 0 00-.302.623 48.122 48.122 0 01-1.51 5.278 46.44 46.44 0 01-1.09 2.807c-.107.24-.213.478-.322.716-.19.416-.387.83-.589 1.24a2.37 2.37 0 00-.23.92c-.357.255-.635.614-.736 1.06l-1.644 7.177a1.99 1.99 0 00-.317.685l-3.296 13.664-.087.29a36.67 36.67 0 00-1.377 4.588c-.027.12-.044.236-.053.35l-1.257 3.843c-.165.503-.074.982.154 1.4l-4.065 10.651c-.143.377-.12.78.017 1.148-1.423.156-2.45 1.85-1.23 3.32 2.334 2.814 5.102 5.21 8.186 7.174.55.35 1.085.386 1.548.228.866.522 1.805.987 2.743 1.031a44.047 44.047 0 003.64 1.685c6.421 2.6 13.544 2.984 20.35 3.86 2.084.266 2.554-2.783 1.01-3.729m63.558-25.307c-.062-.682-.388-1.301-.911-1.664.03-2.996-.095-5.972-.295-8.845-.063-.887-.59-1.462-1.24-1.734l1.069-8.782c.13-1.075-1.013-2-2-2-1.19 0-1.87.922-2 2l-1.85 15.202c-.578 4.748-1.032 9.538-2.008 14.225-1.59 7.625-5.263 16.105-13.147 18.989-2.397.877-1.362 4.744 1.064 3.856a22.08 22.08 0 003.18-1.464c.425.34 1.007.492 1.704.287 5.726-1.688 11.555-3.905 14.223-9.696 1.323-2.871 1.847-5.97 2.17-9.092.39-3.752.389-7.526.042-11.282m-83.104-85.982c-.837-.836-1.979-.673-2.828 0a83.609 83.609 0 00-17.605 19.15c-.54.811-1.087 1.647-1.626 2.494-.28.088-.538.241-.738.487a52.64 52.64 0 00-5.179 7.64 1.95 1.95 0 00-.49.862c-.017.057-.027.117-.043.175-.28.536-.57 1.066-.83 1.615-.063.131-.11.267-.149.408a2.236 2.236 0 00-.57.89c-.77 2.23.206 4.676 2.035 6.008l2.451 3.831c.294.458.7.735 1.135.863.268.357.543.704.846 1.006.061.06.136.1.203.152l1.547 2.69c.538.936 1.81 1.26 2.737.717 1.01-.59 1.166-1.749.717-2.736a106.346 106.346 0 01-2.917-7.08c-.754-2.037-1.972-4.509-1.43-6.724a2.16 2.16 0 00.06-.524c.114-.454.255-.909.425-1.362 1.39-3.699 3.752-7.208 5.982-10.445 4.511-6.545 10.041-12.353 16.267-17.288.847-.672.702-2.127 0-2.829m96.157 27.38c-.145-2.483-.213-4.97-.437-7.448a1.511 1.511 0 00-.4.49l-4.602 9.412c-.198.09-.394.21-.582.374-1.699 1.502-4.088 2.824-6.422 2.428-1.935-.329-3.524-1.917-3.484-3.71.06-2.575-3.94-2.574-4 0-.027 1.246.313 2.424.893 3.475.013.13.044.26.094.39.251.65.448 1.317.62 1.99l.45 3.978c.113-.203.261-.382.424-.545.061-.298.152-.595.303-.88.734-1.389 2.745-1.89 4.063-1.065l.003.002c.218.06.435.116.654.173 2.262-.495 4.61-.659 6.896-.95a2.18 2.18 0 011.032.125c.044-.015.09-.03.133-.047.298-.585.601-1.167.891-1.755.39-.15.73-.416.926-.82l2.552-5.219.004-.327c-.002-.025-.01-.046-.01-.07" fill="#1C75BB"/><path d="M325.535 275.53c-9.668-9.877-21.958-17.128-35.25-20.898-.006-.008-.008-.018-.013-.027-.3-.468-.686-.706-1.195-.919l-8.005-3.349c-.215-.09-.49-.098-.764-.058-1.78-.846-3.726-1.32-5.704-1.309-1.047.006-2.048.915-2 2 .018.402.145.782.355 1.101-1.362.865-.986 3.595 1.12 3.742 14.241.997 28.051 6.195 39.554 14.627 3.242 2.376 6.262 5.046 9.074 7.918 1.804 1.842 4.631-.987 2.828-2.829" fill="#1C75BB"/><path d="M214.428 311.485c-.425-.727-1.257-1.42-2.092-1.608a4.407 4.407 0 00-.891-.101 3.106 3.106 0 00-.51-1.156c-1.774-2.53-3.694-4.811-5.966-6.913a3.263 3.263 0 00-1.132-.686c.05-1.193-.424-2.402-1.424-3.09-.087-.074-.164-.157-.261-.22a2.633 2.633 0 00-1.191-.627c-.895-.204-1.901-.161-2.697.352a3.804 3.804 0 00-1.608 2.092l-.156.479c-.114.094-.23.177-.341.29-.431.445-.844.906-1.255 1.369-.432.16-.823.407-1.116.784a113.14 113.14 0 00-5.67 8.002 27.035 27.035 0 00-2.707 4.382c-.76.287-1.5.776-1.87 1.515l-.754 1.5c-.214.43-.357.879-.42 1.339a76.117 76.117 0 00-2.7 4.07 3.528 3.528 0 00-.501 1.357 490.655 490.655 0 00-2.594 3.48c-.461.624-.654 1.242-.654 1.82a20.122 20.122 0 00-3.936 5.695c-.223.486-.361.963-.325 1.474-.136.198-.274.395-.415.589-.064.013-.13.019-.194.04-.652.21-1.095.594-1.494 1.149-.545.759-1.096 1.513-1.661 2.257l-.192.243a30.795 30.795 0 01-1.39 1.626c-.177.192-.365.375-.55.56-.502-.088-1.055-.016-1.622.309-1.584.907-3.333 1.495-5.166 1.585-2.077.103-4.024-.42-6.036-.856-.198-.043-.4-.08-.6-.122a2.378 2.378 0 00-1.421-.268c-3.497-.602-7.137-.745-10.46.635-1.407.585-2.458 2.17-1.494 3.673 1.226 1.91 3.204 1.977 5.186 1.319.394-.132.79-.24 1.167-.26.316.471.699.86 1.142 1.167a3.156 3.156 0 00-1.467.684h-1.208c-1.2 0-2.353.695-2.992 1.702l-2 .343c-1.028.175-1.881 1.398-1.835 2.41.05 1.123.744 2.081 1.835 2.411 3.38 1.023 6.972 1.194 10.439.57.22.166.46.314.729.424.05.07.09.152.147.218a30.039 30.039 0 01-4.683 1.995c-1.298.426-2.025 1.352-2.296 2.392-.1.048-.2.095-.3.145-3.692 1.85-1.022 7.062 2.545 6.37a3.254 3.254 0 001.505-.559c.245-.086.463-.206.666-.34a320.637 320.637 0 017.986-3.815c-.237.618-.46 1.238-.646 1.868-1.684 1.834-2.881 4.11-2.378 6.624.69 3.446 4.546 4.716 7.508 3.398 3.468-1.544 5.652-6.043 7.245-9.243.359-.723.707-1.451 1.055-2.18a54.374 54.374 0 002.083 8.524c.995 2.989 4.65 3.307 6.397.835 1.669-2.363 1.243-4.75.787-7.433-.665-3.914-.752-7.543.095-11.444.105-.483.103-.93.04-1.346a72.592 72.592 0 017.402-7.944 151.462 151.462 0 008.168-5.937c2.583-2.012 4.979-3.93 6.46-6.734a55.066 55.066 0 003.402-2.701c3.553-3.082 6.055-6.942 8.113-11.067a2.67 2.67 0 00.314-.307 7.831 7.831 0 001.042-1.63c.046-.026.098-.04.143-.068.717-.462 1.469-1.212 1.608-2.092l.416-2.622c.15-.96.157-1.825-.354-2.696" fill="#E4C3A2"/><path d="M213.975 312.31l-.182-.331a4.593 4.593 0 00-.524-.956 1.07 1.07 0 01-.025-.047l-.006.005c-.075-.104-.144-.21-.23-.31a1.32 1.32 0 00-.681-.44 4.259 4.259 0 00-.17-.57c-.492-1.314-2.488-1.532-2.892 0a84.367 84.367 0 01-2.955 9.06 74.25 74.25 0 01-2.43 4.259c-.3.095-.58.297-.79.642-4.08 6.718-11.101 10.77-16.988 15.705-6.155 5.158-11.337 12.06-12.488 20.199-.745 5.268.844 10.438.464 15.703-.14 1.927 2.86 1.918 3 0 .336-4.66-.995-9.248-.663-13.905.245-3.416 1.402-6.708 3.06-9.692.525.3 1.21.342 1.79-.152a433.84 433.84 0 0015.559-13.89c.61.514 1.423.405 2.018-.085a51.319 51.319 0 0011.839-14.014c1.22-1.548 2.29-3.216 2.79-5.135a9.28 9.28 0 00.288-2.537c.035-.096.076-.19.106-.286.22-.735.305-1.47.248-2.181.076-.335.05-.697-.138-1.042" fill="#C3996B"/><path d="M309.898 408.103a4.894 4.894 0 00-.234-1.137 5.562 5.562 0 000-1.552l-2.498-17.762c.621-.49 1.015-1.306.723-2.095a17.253 17.253 0 01-.77-2.728 15.687 15.687 0 01-.119-.71c-.006-.072-.037-.325-.04-.363-.004-.043-.003-.086-.007-.128 1.711-1.477 1.622-3.764.5-5.565.091-.323.18-.648.288-.967.34-.991-.387-2.23-1.397-2.461-.914-.208-1.738.16-2.206.887-1.074-.3-2.28-.263-3.52.278-4.875 2.125-11.892 1.475-17.127 1.669-6.059.224-12.123.253-18.184.084a273.16 273.16 0 01-14.534-.802 47.83 47.83 0 00-6.063-1.621 1.913 1.913 0 00-1.135-.362c-.427-.005-.852-.03-1.277-.05-.373-.054-.74-.128-1.116-.176a1.367 1.367 0 00-.572.062 39.45 39.45 0 01-5.093-.79 1.523 1.523 0 00-1.144-.747c-.177-.026-.355-.047-.532-.071v-.001a21.16 21.16 0 01-4.63-1.177 38.05 38.05 0 01-3.5-1.648c-.856-.461-1.67-.263-2.236.229-.013-.034-.036-.062-.045-.097-.654-2.487-4.513-1.432-3.857 1.063.1.382.251.725.423 1.052l-.002.012c0 .167 0 .334-.002.5l-.625 4.466a5.936 5.936 0 00-.035.32c-2.964 5.185-3.915 10.914-3.112 16.782l-.096.398c-.069.282-.11.557-.134.824a96.757 96.757 0 00-2.793 11.174 5.433 5.433 0 00-.054 1.687c-1.519 4.934-3 9.988-3.324 14.86-.1 1.502.047 2.84.394 4.04-.254 1.369.12 2.852 1.457 4.123a8.771 8.771 0 003.624 2.065c.664.4 1.368.768 2.114 1.097.622.303 1.271.536 2.104.814 1.145.38 2.162.347 3.026.038.316.136.663.25 1.044.33 2.398.512 5.194 1.38 7.893 1.583l1.205.39a4.21 4.21 0 001.548.187c.39.18.826.32 1.324.404 4.515.754 9.865 2.373 14.092.594.047-.002.091.002.14-.001 5.758-.314 6.443-5.224 7.313-9.974l3.28-17.913a586.237 586.237 0 013.662-8.888c.49 2.393.935 4.795 1.336 7.207.065.394.211.75.39 1.09-.085 3.196-.382 6.396-.688 9.59-.38 3.968-.922 8.175.564 11.805-.322 2.705 1.27 5.682 4.785 5.682.291 0 .565-.027.83-.066 1.963.766 4.14.863 6.126.106a5.373 5.373 0 001.682.358c6.321.346 16.637 1.07 23.424-2.334 4.39.552 7.966-3.143 8.494-7.555.69-5.76-.665-12.326-1.084-18.11" fill="#594A41"/><path d="M305.286 372.212c-1.698 1.509-4.09 1.831-6.266 2.083-2.82.327-5.644.64-8.473.881-5.693.486-11.462.675-17.132-.15a1.553 1.553 0 00-1.135.263c-6.084-.829-12.182-.762-18.257-.178-.177-.398-.499-.727-.933-.788a473.153 473.153 0 00-10.47-1.341 1.105 1.105 0 00-.3.007 123.684 123.684 0 01-10.126-2.314 1.358 1.358 0 00-.838.032l-1.108-.242c-.215-.469-.659-.831-1.312-.845a11.784 11.784 0 01-5.089-1.272c-.578-.544-1.207-1.032-1.904-1.41a1.435 1.435 0 00-.406-.143c-.073-.063-.15-.119-.223-.184-1.427-1.293-3.555.823-2.12 2.122.161.147.335.277.503.416a17.4 17.4 0 01-.099 1.98 1.465 1.465 0 00-.404.687l-1.478 5.371c-.213.776.233 1.426.841 1.722-.034.059-.064.12-.1.178-.203.328-.399.617-.595.896-.139.11-.255.25-.328.419-.013.031-.033.058-.047.088-.204.264-.414.525-.649.794-.385.442-.524 1.028-.335 1.555-.22.648.041 1.464.66 1.791.011.006.02.008.031.013-.053.446.108.901.39 1.243-1.83 5.804-3.305 11.853-3.428 17.95-.434.138-.797.455-.909.979l-2.1 9.833c-.136.634.065 1.129.415 1.446l-1 4.181c-.106.438-.045.805.113 1.095-.062.189-.122.378-.183.568a1.6 1.6 0 00-.293.528c-.02.068-.03.139-.049.207a10.205 10.205 0 00-.903 3.139l-.01.032.005.001c-.017.134-.047.263-.06.397-.058.658.275 1.09.738 1.297.445 1.119 1.286 2.092 2.35 2.628.241.12.493.162.742.166a8.071 8.071 0 002.237 1.852c.251.142.508.195.755.186a6.35 6.35 0 002.594.486 1.54 1.54 0 00.48-.095l4.926 2.182c.671.298 1.447.228 1.915-.35a19.075 19.075 0 002.58 1.76c.321.181.637.232.925.191.058.028.116.059.177.082 3.378 1.267 6.921 2.012 10.518 2.277.06.005.115-.004.173-.008.268.079.556.116.854.071 3.456-.523 6.923.986 10.347-.177a9.583 9.583 0 006.086-6.325 1.44 1.44 0 00.035-.725c1.667-.257 1.587-2.974-.255-2.974-1.12 0-1.588 1.009-1.407 1.858-.547.045-1.064.365-1.266 1.044a6.471 6.471 0 01-4.865 4.467c-1.476.307-3.05.091-4.533-.06-1.556-.156-3.06-.229-4.606-.036a1.814 1.814 0 00-.563-.135c-3.289-.243-6.575-.99-9.72-2.17a1.147 1.147 0 00-.53-.06c-6.845-3.952-9.696-12.12-11.474-19.389-1.149-4.701-1.517-9.419-.995-14.234.53-4.864 1.862-9.62 3.36-14.263.05-.155.067-.3.072-.438 3.232-1.708 6.807-2.575 10.385-3.33 4.454-.941 8.918-1.855 13.404-2.629 9.12-1.573 18.502-2.482 27.71-1.098.452.068.841-.05 1.147-.267 6.001.78 12.024.614 18.044.064 2.956-.271 5.921-.565 8.862-.966 2.585-.352 5.034-1.023 7.023-2.791 1.446-1.285-.682-3.4-2.12-2.121" fill="#3B2314"/><path d="M308.583 432.509a1.114 1.114 0 00-.31-.482 62.024 62.024 0 00-.303-.235 1.496 1.496 0 00-.757-.205l-.4.054c-.253.07-.474.2-.661.386l-.188.187h-.319a1.117 1.117 0 00-.578.13 1.123 1.123 0 00-.483.31c-.141.13-.24.287-.301.464-.236-.326-.62-.542-1.164-.505-5.929.408-11.851.769-17.776.77l-.575-.337c-.613-.357-1.202-.233-1.622.11-3.748-.522-7.586-1.498-10.489-3.996-1.526-1.314-2.642-2.931-3.293-4.841-.085-.25-.146-.504-.22-.756.029-.44-.075-.85-.319-1.171a34.529 34.529 0 01-.293-1.334c-.214-1.096-.491-2.228-.46-3.35.054-1.93-2.946-1.928-3 0-.035 1.28.27 2.579.507 3.83.15.792.332 1.577.54 2.356l-.195 1.442c-.429.216-.763.639-.807 1.278a20.468 20.468 0 00.195 4.533c.188 1.212.406 2.713 1.712 3.214.354.134.722.163 1.08.119.033.047.054.097.086.144.622.88 1.942.894 2.515.14a14 14 0 002.604.828c.208.145.458.248.759.278 3.693.367 7.383.51 11.074.515.025-.001.052.002.078-.001 5.965.004 11.929-.36 17.899-.771.702-.047 1.146-.483 1.335-1.006.043.056.079.117.13.168l.304.235c.234.136.486.203.757.204h.626c.208.008.4-.035.579-.13.146-.047.272-.128.387-.228l.061-.01a1.48 1.48 0 00.662-.385l.313-.313c.147-.136.249-.297.31-.483.095-.178.138-.371.13-.578a1.12 1.12 0 00-.13-.578M232 379.331a20.388 20.388 0 00-4.839 1.24 1.225 1.225 0 00-.836-.007c-4.942 1.84-8.807 5.85-10.387 10.894-.221.706.203 1.502.869 1.77.621.25 1.576.082 1.873-.614 2.306-5.395 7.436-9.539 13.32-10.283.803-.102 1.5-.616 1.5-1.5 0-.73-.691-1.602-1.5-1.5" fill="#3B2314"/><path d="M245.925 439.862c.014-.788-.878-1.288-1.498-.9-.178-.216-.432-.36-.735-.333-.512.045-1.024.067-1.536.087-.127-.045-.246-.095-.382-.135-1.197-.349-2.501-.18-3.792.025a29.866 29.866 0 01-9.517-2.525c-.592-.269-1.142.046-1.39.49a11.094 11.094 0 01-3.017-.658c-.737-.277-1.403-.739-2.193-.85-.507-.07-1.032.02-1.422.294-.478-.503-1.486-.172-1.617.491a19.5 19.5 0 00-.156 6.515 1.11 1.11 0 01-.003.027h.006c.013.09.017.178.03.267.05.327.337.56.65.66-.03.19-.067.371-.072.576-.41 16.014-.817 32.028-1.226 48.041-.04 1.566.682 2.633 1.696 3.241a5.674 5.674 0 00-.308 1.278l-.016.132c-3.94 7.285-12.82 12.006-14.656 20.19-.483 2.15.668 3.75 2.219 4.504.269.395.58.77.938 1.12.276.272.572.503.874.722 1.615 2.235 4.296 3.557 7.06 3.607.304.006.603-.04.898-.11.218.03.435.035.65.038 2 .254 3.852.11 5.572-.339a7.185 7.185 0 001.835-.463c.603-.245 1.129-.523 1.585-.905 5.294-2.894 9.106-8.738 11.936-14.068.49-.923.583-1.822.42-2.635a23.797 23.797 0 00.962-16.813 3.886 3.886 0 00-.326-.742c.426-.584.71-1.316.756-2.21l.796-15.356c.025-.087.065-.16.083-.252a135.083 135.083 0 002.563-19.585 3.432 3.432 0 00-.118-1.097c1.262-2.652 1.979-5.353 2.117-8.297a3.252 3.252 0 00-.223-1.312l.74-1.809c.16-.392.045-.702-.183-.91m59.36 82.165c-.539-7.872-7.327-14.582-13.756-18.735l.08-.039c-.818-1.352-1.572-2.732-2.197-4.163 1.016-1.394 1.246-3.337.685-4.977.211-.415.364-.9.433-1.468l5.836-47.698c.025-.203.018-.389.02-.579.294-.06.583-.25.675-.57.026-.085.041-.173.066-.259l.005.002.002-.029a21.46 21.46 0 00.8-6.466c-.02-.674-.875-1.132-1.375-.697-.309-.323-.765-.48-1.228-.477-.723.007-1.385.378-2.083.555a9.168 9.168 0 01-2.793.257c-.157-.47-.604-.854-1.172-.665a24.95 24.95 0 01-8.87 1.258c-1.126-.37-2.269-.708-3.388-.52-.128.022-.24.057-.36.085a23.44 23.44 0 01-1.36-.288c-.268-.066-.517.044-.707.235-.498-.465-1.368-.086-1.469.695-.234.178-.382.47-.295.878l.401 1.887c-.202.394-.343.82-.389 1.268-.302 2.931-.05 5.697.695 8.487a3.756 3.756 0 00-.263 1.07 148.887 148.887 0 00-.536 19.714c.003.093.028.171.038.26l-1.504 15.3c-.088.89.061 1.652.358 2.284-.15.21-.286.44-.399.693-.086.19-.15.386-.23.576.374 1.016.433 2.113.004 3.144a22.465 22.465 0 00-.674 1.86c.363.723.542 1.52.435 2.353-.378 2.944-.797 5.877-1.103 8.822l.002.007-.004.014a94.888 94.888 0 00-.173 1.836c.033.265.084.534.171.812.032.102.071.21.103.312-.053 5.864 3.361 10.934 8.005 14.446 4.593 3.472 11.322 7.294 17.175 7.59 5.215.264 10.436-2.885 10.34-8.352a5.374 5.374 0 000-.718" fill="#E4C3A2"/><path d="M244.215 438.27c-.027.105-.051.212-.078.317-.024-.003-.048-.008-.071-.01-.71-.535-1.684-.717-2.613-.712-1.548.008-3.096.04-4.645.062a1.493 1.493 0 00-.514.103c-.06-.024-.128-.031-.191-.045-.076-.23-.14-.46-.217-.687-.623-1.816-3.522-1.036-2.894.798 5.576 16.272 4.469 33.706 3.339 50.586-.026.396.089.699.275.932-.302 3.25.358 6.405.718 9.659.309 2.772.296 5.676-1.128 8.117-.02.02-.043.035-.062.057-3.204 3.62-4.995 8.269-8.507 11.636-3.12 2.99-7.103 4.874-11.353 5.559-1.56-.363-2.758 1.92-1.151 2.719 5.05 2.51 10.84.502 14.646-3.291 3.947-3.935 6.417-9.376 8.577-14.47.015-.02.033-.035.049-.056 1.92-2.683 2.272-6.1 2.022-9.307-.27-3.47-1.264-6.977-.831-10.468.404-.228.712-.632.74-1.224.158-3.12.273-6.24.359-9.36.025-.117.042-.241.04-.377a65.474 65.474 0 01.014-2.546l.004-.221c.06-2.183.243-4.361.534-6.525.053-.151.094-.31.11-.476l.14-1.383c.005-.042 0-.08 0-.12l.82-3.79a1.53 1.53 0 00.819-1.026c.008-.017.017-.032.024-.05.888-2.206 1.078-4.683.618-7.016a138.63 138.63 0 013.3-16.587c.49-1.87-2.403-2.667-2.893-.798m57.952 88.655c-5.737.866-11.605.216-17.015-1.754.478-.655.501-1.622-.421-2.105-2.113-1.107-4.493-2.384-6.625-3.936a1.439 1.439 0 00-.408-.9c-2.786-2.973-4.201-6.986-4.016-11.011.018-.417-.173-.8-.47-1.076l2.624-27.521c.075-.173.131-.362.134-.588.088-6.165.641-12.308 1.659-18.388a136.006 136.006 0 001.969-21.401c.017-1.497-1.775-1.83-2.596-1.006a1.477 1.477 0 00-1.214.103c-.465-1.513-3.022-1.393-2.927.395.15 2.77.418 5.532.787 8.28-.336.24-.596.62-.666 1.145-.564 4.249-.515 8.5.052 12.737-.343 6.749-.685 13.498-1.029 20.246-.028.569.216.966.572 1.199l-2.417 25.343c-.001.01.002.02.001.03-.688.146-1.117.762-1.182 1.469-.366 3.957 1.488 7.778 4.134 10.62 1.024 1.098 2.178 2.046 3.395 2.912-.73.58-.971 1.873.062 2.538.581.375 1.175.727 1.773 1.066.113.28.309.518.605.644l7.894 3.337c.388.164.73.268 1.156.15.145-.04.291-.114.429-.205 1.512.352 3.048.6 4.593.768-.321.28-.535.682-.515 1.115.036.824.658 1.486 1.5 1.5 2.705.045 5.45-.784 7.646-2.371.125-.091.237-.2.336-.318.326-.041.653-.076.978-.124 1.902-.288 1.095-3.18-.798-2.893" fill="#C3996B"/><path d="M319.954 285.809c-.404 1.089-.882 1.99-2.03 2.38-1.11.377-2.297.56-3.472.666-.026-.008-.049-.022-.076-.027-.115-.028-.232-.044-.347-.07a1.168 1.168 0 00-.659-.221 1.402 1.402 0 00-.419-.2l-.526-.148a1.639 1.639 0 00-.467-.06c-.005-.098-.002-.201-.027-.292a1.4 1.4 0 00-.438-.676 1.521 1.521 0 00-.259-1.444c1.252-.491 1.197-2.09.371-2.703.484-.324.971-.612 1.363-.866 1.388-.9 2.855-1.66 4.368-2.327a1.4 1.4 0 00.823.256c.288 0 .588-.105.845-.277.217.566.797.983 1.41.983.102 0 .197-.011.29-.03.053.176.14.324.25.445a16.773 16.773 0 01-1 4.61m5.727-10.756l.306-5.83c.04-.81-.719-1.5-1.5-1.5-.437 0-.808.185-1.074.473-.575-.364-1.257-.58-1.922-.76a47.441 47.441 0 00-4.745-1.014 23.267 23.267 0 00-3.954-1.9c-.48-.176-.947-.027-1.303.276-.743-.13-1.442-.018-1.952.54-.768.842-.472 2.238-.123 3.209a6.537 6.537 0 001.874 2.77c.125.109.264.192.408.26.132.21.26.423.374.65.208.41.658.655 1.118.714.05.075.094.155.145.229.394.573.981.764 1.517.676.161.322.31.65.482.967.198.36.552.573.937.66.082.489.15.98.21 1.47-.06.02-.123.039-.183.064a31.23 31.23 0 00-5.544 3.02c-1.65 1.133-3.53 2.39-4.072 4.434-.355.18-.719.342-1.067.538-.927.523-.898 1.707-.244 2.36.041.743.647 1.44 1.51 1.454l.027.047c-.008.015-.02.025-.028.042-.27.64-.06 1.545.614 1.873a9.19 9.19 0 004.132.94l.632.133c.273.058.563.043.832-.035.175.069.368.116.6.109.43-.012.861-.025 1.291-.04a2.08 2.08 0 00.5-.124c1.15-.136 2.297-.344 3.37-.72 1.67-.581 2.833-1.7 3.543-3.314a19.215 19.215 0 001.611-7.978c.66.01 1.361-.357 1.598-1.043a5.004 5.004 0 00-.004-3.267c.038-.122.076-.245.084-.383" fill="#27A9E0"/><path d="M322.448 287.815a.299.299 0 00-.04.063l.003-.002c.007-.02.025-.041.037-.061" fill="#1C75BB"/><path d="M326.098 285.38c-.133-.775-1.128-1.28-1.846-1.048-.836.271-1.19 1.014-1.048 1.845a.521.521 0 01.01.057c-.002-.038 0-.042.01.062v.004c.005.029.006.059.015.084-.005-.013-.008-.032-.011-.05.01.124.022.248.028.373-.105.097-.214.193-.291.325a9.691 9.691 0 01-.27.438c-.064.098-.18.226-.246.345.043-.055.086-.09-.001.016a1.44 1.44 0 00-.037.044c-.001.005-.008.011-.01.016a.148.148 0 00.008-.013c-.042.051-.083.102-.125.151a8.986 8.986 0 01-1.055 1.05c-.058.05-.118.097-.177.146l-.004.003c-.14.097-.278.199-.422.293a9.683 9.683 0 01-.843.49c-.15.076-.301.143-.452.216-.06.023-.118.047-.177.068a8.693 8.693 0 01-1.434.4c-.084.016-.168.029-.252.044l-.01.001a2.116 2.116 0 00-.418.099c-4.395.207-8.414-1.939-12.31-3.699-4.181-1.89-8.361-3.78-12.542-5.668-1.746-.789-3.274 1.796-1.515 2.591l4.7 2.124c-.042.498.148 1.015.692 1.357a52.303 52.303 0 0015.1 6.449c.7.175 1.248-.119 1.565-.58.164.037.33.066.496.099.144.693.716 1.222 1.464 1.232a42.982 42.982 0 005.924-.335c.413-.052.754-.133 1.06-.439.073-.073.139-.162.199-.257.579.341 1.36.328 1.848-.198 2.045-2.199 2.88-5.191 2.377-8.135" fill="#1C75BB"/><path d="M323.214 286.235c.002.025.007.063.014.1l-.003-.035c-.003-.022-.01-.043-.011-.065m2.446-18.527a297.02 297.02 0 01-11.753-2.988c-1.193-.33-2.405-.598-3.44-1.308-.539-.37-1.065-.312-1.467-.04-.336-.199-.67-.4-.986-.63-.294-.218-.818-.245-1.156-.152-.347.096-.724.364-.896.688-.412.782-.14 1.556.54 2.053.166.123.34.234.511.348.135.134.292.241.464.327l.005.005c1.178 1.214 2.921 1.921 4.615 1.816.2-.012.39-.05.568-.119.118.016.234.042.353.055.133.013.28-.018.423-.065 1.06.291 2.118.582 3.181.863 2.736.72 5.483 1.398 8.24 2.04 1.878.436 2.68-2.456.797-2.893" fill="#1C75BB"/><path d="M432.665 217.452c-.924 0-1.648.305-2.193.772a3.172 3.172 0 00-1.061.528 3.92 3.92 0 00-.816.32 45.6 45.6 0 00-3.505 2.105 3.97 3.97 0 00-.757.291l-1.905.976-2.21.826c-.142.053-.277.125-.412.193-7.014 1.773-14.03 3.544-21.04 5.327-.642.162-1.283.331-1.922.504l-2.362.277c-1.885.222-4.165.47-5.12 2.391l-.003.01c-.547.27-1.087.552-1.615.865-2.925 1.731-5.424 4.013-7.514 6.673-.725.53-1.442 1.072-2.166 1.604l-26.827 16.91a1.63 1.63 0 00-.337.288c-2.149 1.02-4.32 1.995-6.434 3.088-4.574 2.366-8.875 5.236-12.858 8.497a7.975 7.975 0 00-2.869 1.683c-.794-.065-1.642.408-1.643 1.436l-.015 9.41-.007 4.551c0 .79-.026 1.587.533 2.215.559.628 1.324.74 2.12.61.793-.13 1.555-.345 2.295-.615.051-.016.102-.036.152-.055 2.24-.845 4.25-2.267 6.099-3.869.635.047 1.302-.112 1.95-.575a106.776 106.776 0 0014.178-12.083c.957.17 1.996-.028 2.923-.817l22.876-19.485c.38.321.861.573 1.474.706 1.047.226 2.095.422 3.143.601.49 1.104 1.482 1.995 2.998 2.114 7.047.557 18.092 1.72 23.822-3.37.179-.16.33-.349.461-.553.012-.005.025-.006.038-.012.286-.114.557-.24.826-.368.312.117.643.207 1.002.246 4.552.498 8.159-3.445 9.639-7.366.081-.213.15-.427.219-.64.355-.383.618-.84.701-1.376.49-3.164.397-6.247-.594-9.316a3.78 3.78 0 00-1.191-1.748l.787-.168c.48.085.972.061 1.443-.127 2.28-.913 4.479-1.953 6.57-3.245a3.632 3.632 0 001.685-2.664l.602-.762c3.29-1.1 2.918-6.803-1.16-6.803" fill="#E4C3A2"/><path d="M378.755 254.09a3.376 3.376 0 011.807-.811c-.372-.661-1.173-1.08-2.016-.58a131.614 131.614 0 00-21.236 15.662c-.821-.355-1.811-.313-2.655.459-1.888 1.727-4.013 3.134-6.225 4.403a2.663 2.663 0 00-1.988.697c-.373.342-.76.667-1.142 1-.641.33-1.283.66-1.925.985-3.886 1.969-7.708 3.957-11.196 6.565l-.09.043-.022.009a12.731 12.731 0 01-1.212.401c-.462.128-.931.223-1.404.3-.55.059-1.098.094-1.652.086-1.308-.02-2.56 1.163-2.5 2.5.035.78.393 1.468.949 1.926-.012.247.003.5.075.765.33 1.198 1.812 2.24 3.077 1.746a65.855 65.855 0 0018.726-11.17c3.586-1.885 7.055-3.968 10.065-6.72.488-.446.716-.95.767-1.447a128.003 128.003 0 0115.26-11.941c1.27-1.823 2.865-3.417 4.537-4.877m43.045-19.215c.105-.209.168-.43.168-.667v-.414a1.129 1.129 0 00-.13-.578 1.13 1.13 0 00-.308-.483 1.127 1.127 0 00-.484-.31 1.126 1.126 0 00-.578-.129l-.398.054a1.503 1.503 0 00-.663.385l-.234.304a1.502 1.502 0 00-.175.532c-.045.035-.092.067-.131.106-.614.614-.523 1.5 0 2.121 1.124 1.336 1.272 3.52.368 5.06-1.12 1.906-3.51 2.84-4.985 4.577a1.758 1.758 0 00-.404.895c-.057-.042-.108-.092-.166-.132-.775-.518-1.692-.826-2.558-1.16a44.796 44.796 0 00-2.612-.933c-2.897-.92-6-1.375-8.896-.542-.851-2.058-2.481-3.834-4.5-4.743-.38-.17-.74-.265-1.157-.15-.347.096-.724.364-.896.688-.346.656-.226 1.71.538 2.053a7.305 7.305 0 011.122.624c.063.042.214.166.256.198.37.325.729.65 1.046 1.034.04.05.079.102.12.152a13.984 13.984 0 00-.07-.084l.024.03a7.47 7.47 0 01.641 1.068c.024.048.046.098.069.148a30.74 30.74 0 00-7.4 1.26c-1.842.556-1.056 3.452.799 2.891 3.892-1.173 8.027-1.546 12.059-.966.8.115 1.61-.198 1.846-1.047.045-.169.053-.356.032-.543.863.105 1.72.29 2.552.518.73.203 6.446 1.821 5.826 2.847-1 1.657 1.593 3.167 2.59 1.515.61-1.01.552-2.116.1-3.077.432.037.874-.086 1.16-.423 1.77-2.083 4.572-3.125 5.756-5.779a7.65 7.65 0 00-.326-6.9m-25.728 8.458c-.063-.08-.144-.169 0 0" fill="#C3996B"/><path d="M417.15 232.35c-.637-.145-1.299.104-1.648.628a1.464 1.464 0 00-1.24-.683h-6.205c-.784 0-1.536.69-1.5 1.5.037.813.66 1.5 1.5 1.5h6.205c.151 0 .298-.032.441-.08a18.058 18.058 0 01-4.62 6.826c-.577.536-.582 1.587 0 2.122.616.566 1.506.57 2.121 0a21.221 21.221 0 005.994-9.967c.203-.757-.255-1.665-1.048-1.845m-53.527 30.755c-.529 0-.908.229-1.147.557a1.57 1.57 0 00-.397.148c-1.273.71-2.413 1.617-3.58 2.483-.572.426-1.153.84-1.761 1.214-.302.186-.609.36-.926.519-.134.068-.281.154-.426.205l-.021.008a12.06 12.06 0 01-.334.124c-.736.264-1.309 1.034-1.048 1.846.236.725 1.055 1.33 1.846 1.047 1.498-.537 2.815-1.36 4.088-2.3 1.201-.888 2.368-1.827 3.677-2.555a1.35 1.35 0 00.386-.336c1.564-.346 1.449-2.96-.357-2.96" fill="#C3996B"/><g transform="translate(135 247.916)"><mask id="b" fill="#fff"><use xlink:href="#a"/></mask><path d="M65.663 49.321c1.29 1.62 2.712 3.146 4.07 4.705 3.135 3.601 6.164 7.354 9.505 10.77-2.429 11.843-12.19 20.65-21.31 27.91-4.872 3.877-10.43 7.513-14.216 12.537-1.637 2.173-2.824 4.668-3.054 7.405-.29 3.473 1.398 6.622 1.623 10.027.162 2.436-.932 6.341-4.066 6.022-4.28-.437-4.555-6.015-4.609-9.216-.02-1.187-1.567-1.28-1.964-.265-1.72 4.395-5.004 11.981-11.046 10.024-1.956-.635-4.3-2.563-3.472-4.872.895-2.5 3.58-3.789 3.075-6.776-.127-.753-1.186-.946-1.67-.44-2.019 2.102-9.974 8.981-11.82 3.673-1.643-4.717 3.98-7.074 7.434-8.318.982-.355.934-2.087-.265-1.965a36.937 36.937 0 01-6.7.092c-1.32-.106-4.406-.128-5.087-1.653-.763-1.706 2.806-3.305 3.92-3.85a19.397 19.397 0 015.995-1.8c1.056-.14 1.43-1.618.265-1.966-1.242-.37-2.504-.3-3.777-.158-1.11.124-2.873.597-3.868-.12-1.552-1.12.207-3.156 1.262-3.837 1.234-.798 2.695-1.155 4.15-1.222 5.924-.273 11.792 2.985 17.692 1.112 5.79-1.838 8.934-7.59 11.697-12.556A348.486 348.486 0 0151.56 64.4c3.661-5.648 7.612-12.393 14.104-15.079m37.474 75.358a205.618 205.618 0 0041.166 3.481c6.594-.11 13.313-.354 19.84-1.358 2.546-.39 5.02-1.089 7.226-2.23.03 9.33.31 18.656.853 27.97a502.012 502.012 0 001.65 20.867c.215 2.142.582 4.315.605 6.471.02 2.057-.693 3.706-2.519 4.734-1.647.928-3.6 1.287-5.433 1.651-4.399.875-8.88 1.25-13.36 1.336-4.522.087-9.042-.119-13.552-.423-2.29-.154-4.597-.27-6.88-.516-1.14-.123-1.589-.607-1.763-1.732-.173-1.109-.208-2.26-.244-3.38-.306-9.356 1.89-18.984-1.138-28.077a77.33 77.33 0 013.468-10.803c.203-.5-.22-1.1-.699-1.23-.57-.158-1.026.195-1.23.697a77.453 77.453 0 00-2.872 8.485.967.967 0 00-.649.621 108.352 108.352 0 00-4.665 17.684 110.348 110.348 0 00-1.198 9.11c-.229 2.577-.168 5.441-1.396 7.794-1.3 2.49-3.965 3.286-6.594 3.487-2.977.228-6.014.038-8.978-.267-6.395-.66-12.666-2.205-18.868-3.855-2.957-.787-6.517-1.309-8.993-3.232-1.143-.889-2.097-2.2-2.184-3.686-.047-.816.203-1.583.568-2.307a10.014 10.014 0 01.491-3.489c-.042-.004-.082-.022-.124-.02 1.616-8.473 3.232-16.946 4.85-25.417l2.7-14.163c.868-4.553 1.895-9.14 1.814-13.799 5.54 2.975 12.053 4.465 18.108 5.596m51.294 120.07c-.31 2.441-.763 4.92-.943 7.38-.17.3-.206.682-.033 1.004.08 1.27.68 2.48 2.118 2.551a.838.838 0 00.78-.377c3.406 2.54 6.525 5.524 9.098 8.895-.02.033-.05.05-.069.086-1.148 2.213-1.799 4.637-1.859 7.132-.03 1.265.104 2.536.37 3.772.047.227.165.494.158.725-.007.294.16.194-.15.19-.51-.01-1.16-.359-1.658-.489-4.9-1.278-10.104-.748-14.692 1.361-.724.332-.608 1.12-.139 1.545-3.253-1.797-6.307-4.012-8.775-6.656-2.276-2.436-3.65-5.38-3.943-8.713-.128-1.459-.087-2.919.044-4.373v-.008c.16-1.763.453-3.519.771-5.258a.988.988 0 00.232-.543 575.136 575.136 0 002.604-49.558c.043-4.694.025-9.386-.045-14.078-.002-.097-.033-.172-.056-.254 3.545.253 7.093.458 10.647.52 4.298.073 8.6-.09 12.868-.597a6489.31 6489.31 0 00-7.328 55.742m12.33 21.285c2.775 4.192 4.844 10.316.977 14.531-3.603 3.928-9.837 2.46-14.173.806a49.1 49.1 0 01-5.718-2.615c.217.062.46.068.713-.049a19.677 19.677 0 017.74-1.78c1.304-.03 2.614.054 3.9.287 1.22.22 2.447.814 3.676.903 1.072.077 1.966-.532 2.147-1.614.185-1.098-.346-2.302-.446-3.395a14.142 14.142 0 011.183-7.074m-60.575-45.224c-.082.13-.143.278-.162.458a750.38 750.38 0 00-1.993 23.916c-.035.532.29.83.685.92.352 3.535.822 7.108.135 10.595-.808 4.094-2.782 7.82-4.943 11.347-.456.744-.916 1.517-1.39 2.292-.065-.444-.367-.862-.936-.9a41.827 41.827 0 00-17.452 2.596 52.71 52.71 0 00-2.175-13.753 1.03 1.03 0 00-.209-.385c.537-.49 1.06-.973 1.546-1.45 2.64-2.583 4.66-5.51 5.194-9.24.282-1.973.215-3.95.092-5.93-.025.007-.052.01-.077.016l-.91-18.894c-.002-.048-.025-.082-.032-.126l.513-35.439c1.84.485 3.691.927 5.52 1.384 3.435.858 6.895 1.631 10.391 2.196 3.41.55 6.853.921 10.307.975.2.004.402.005.603.007-2.068 9.72-3.62 19.541-4.707 29.415M92.17 277.273c-3.56 1.904-8.28 2.214-12.186 1.391-3.823-.805-7.37-3.056-8.886-6.787a9.48 9.48 0 01-.357-1.086c.067-.158.126-.315.205-.469.028-.052.043-.104.061-.155a5.864 5.864 0 01-.187-.946 1.173 1.173 0 00-.346-.28c-.104-3.834 2.76-6.88 5.7-9.604a50.732 50.732 0 011.978 14.132c0 .584.652 1.218 1.267.964a40.477 40.477 0 0118.163-2.996c.1.007.178-.019.262-.036-1.509 2.344-3.245 4.573-5.674 5.872m99.078-258.18c-5.127-.54-10.087-2.216-14.516-4.848-.512-.306-.994-.09-1.264.283-4.808-2.673-9.836-4.963-14.875-6.97-7.095-2.826-14.366-5.176-21.639-7.492-.613-.195-1.279.333-1.266.964.07 3.228-2.475 6.407-5.805 6.614-1.736.11-3.372-.565-4.605-1.692-.039-.403-.293-.77-.714-.88-.043-.012-.085-.027-.128-.04a6.59 6.59 0 01-1.214-2.67c-.096-.474-.427-.689-.789-.712-.175-.142-.409-.249-.626-.239-.216.01-.427.088-.599.221-.166-.127-.357-.216-.57-.2a69.569 69.569 0 00-9.29 1.332c-.094.02-.172.073-.25.121-3.895.606-7.776 1.364-11.516 2.622-7.033 2.366-13.213 6.577-18.51 11.721-5.299 5.146-9.743 11.112-13.898 17.196a331.342 331.342 0 00-3.05 4.555c-1.01 1.531-2.37 3.145-2.586 5.027-.15 1.33.284 2.553.944 3.663-5.499 2.485-9.256 7.565-12.54 12.506A345.274 345.274 0 0038.64 81.896c-3.084 5.477-6.474 13.092-13.622 13.758-6.19.576-12.625-3.318-18.679-.865-2.679 1.085-6.072 4.713-3.332 7.526.62.637 1.343.935 2.12 1.056-.294.142-.594.267-.882.425-1.88 1.026-4.544 2.623-4.217 5.135.273 2.095 2.507 3.043 4.344 3.368a30.61 30.61 0 004.364.426c-1.033.621-1.98 1.365-2.753 2.32-1.546 1.906-1.972 4.536-1.007 6.815 2.166 5.11 7.686 2.567 11.636-.386-.24.29-.468.568-.64.827-.788 1.183-1.203 2.541-.919 3.958.524 2.63 3.12 4.491 5.602 5.073 5.502 1.29 8.98-3.189 11.24-7.75.306 1.95.956 3.807 2.416 5.243 1.974 1.94 5.038 2.592 7.323.795 2.026-1.593 2.81-4.458 2.648-6.945-.238-3.67-2.203-7.158-1.503-10.886.617-3.28 2.812-6.003 5.14-8.278 2.553-2.495 5.432-4.663 8.231-6.87 5.793-4.568 11.701-9.135 16.458-14.822 3.794-4.534 6.832-9.72 8.286-15.414 1.953 1.768 4.138 3.294 6.607 4.15-2.28 7.772-4.257 15.62-6.087 23.522-1.214 5.242-2.618 10.484-5.333 15.16-.485.173-.853.666-.636 1.215-.11.517.265.955.738 1.093 1.94 2.71 4.377 4.835 7.112 6.536a.886.886 0 00-.264.685c.137 4.84-.982 9.592-1.884 14.317-.884 4.64-1.769 9.28-2.655 13.918l-5.355 28.081a.97.97 0 00.123.698c-.583 1.495-.727 3.07.02 4.755 1.146 2.59 3.651 4.055 6.224 4.94.848.292 1.71.56 2.576.811-.183 12.625-.365 25.25-.549 37.873.047-.01.096-.015.144-.025l.891 18.526c.01.176.06.321.13.45.02.967.008 1.935-.073 2.904-.33 3.946-2.43 6.822-5.209 9.463-4.36 4.147-10.158 8.654-8.76 15.22-1.083 3.433.016 7.216 2.405 9.94 3.164 3.607 8.377 4.631 12.961 4.142 8.795-.939 16.553-6.68 20.827-14.312 2.406-4.298 3.694-9.178 3.548-14.11-.023-.785-.778-1.087-1.354-.912.031-.269.077-.535.098-.806.22-2.798-.208-5.589-.45-8.373a84.89 84.89 0 01-.264-4.727c-.039.018-.082.03-.122.047.441-6.13.952-12.257 1.544-18.376.02.01.04.015.058.025a294.685 294.685 0 014.945-31.447c.032-.15.03-.289.004-.416 2.013-.074 4.03-.35 5.836-1.239 5.545-2.723 4.777-10.22 5.396-15.366.773-6.424 2.177-12.763 4.108-18.937 2.1 8.223.311 16.87.52 25.264.046 1.864-.107 4.316.86 5.986.987 1.706 3.102 1.58 4.818 1.713l1.983.15a.989.989 0 00-.074.394 574.952 574.952 0 01-1.383 49.608 587.503 587.503 0 01-1.088 13.052.922.922 0 00-.125.308c-.365 1.975-.706 4-.889 6.018-4.05 7.568-.369 16.72 5.826 21.89 3.407 2.845 7.417 4.803 11.555 6.344 4.145 1.543 8.963 3.382 13.377 1.892 4.098-1.384 7.321-5.03 7.964-9.334a1.016 1.016 0 00-.259-.852c1.062-3.46.344-7.532-1.315-10.77-3.157-6.16-8.692-11.342-14.4-15.207.223-2.934 1.121-9.527 1.213-10.253a6344.705 6344.705 0 016.98-53.008c.012-.093-.007-.172-.016-.257 3.573-.473 7.968-.99 10.682-3.469 3.248-2.967 1.831-8.087 1.45-11.89a506.677 506.677 0 01-1.272-14.969 508.988 508.988 0 01-1.232-33.96.892.892 0 00-.464-.807c1.763-1.164 3.295-2.672 4.465-4.627 2.522-4.216 3.022-9.368 2.96-14.18-.082-6.299-.936-12.612-1.505-18.879l-2.658-29.307c-.762-2.166-.816-4.5-.62-6.838l-.379-4.172c-.108-.024-.214-.046-.322-.078-.674-.195-1.24-.546-1.773-.964 1.034 11.396 2.07 22.794 3.103 34.191.608 6.707 1.235 13.413 1.824 20.122.427 4.854.691 9.911-.553 14.672-1.344 5.14-4.729 8.864-9.864 10.4-2.776.83-5.676 1.113-8.55 1.37a204.59 204.59 0 01-9.894.64 203.141 203.141 0 01-39.749-2.287c-10.87-1.714-24.78-3.692-31.62-13.413 2.386-4.07 3.831-8.589 4.962-13.155 1.268-5.11 2.362-10.259 3.69-15.355.634-2.43 1.312-4.846 2.008-7.258.241-1.966.752-3.874 1.642-5.579a331.265 331.265 0 016.17-18.403 329.667 329.667 0 016.938-17.25c.507-1.169-1.215-2.189-1.728-1.01a335.39 335.39 0 00-11.54 30.42 290.188 290.188 0 00-1.838 5.912c-1.939-.679-3.692-1.803-5.312-3.158-.582-.139-1.13-.416-1.552-.839-.81-.81-1.513-1.669-2.013-2.66-1.81-2.007-3.48-4.13-5.096-5.986L70 51.294c-.637-.73-1.314-1.464-1.97-2.215a3.806 3.806 0 01-1.12-1.13c-.185-.287-.296-.639-.364-1.002-.052.002-.1-.004-.155.007-.088-.14-.194-.273-.275-.416-1.129-2.008-.265-3.506.88-5.25.928-1.414 1.86-2.825 2.803-4.23C77.131 26.153 85.56 14.984 97.727 9.2c3.917-1.86 8.13-2.986 12.378-3.787 2.111-.398 4.234-.719 6.36-1.02.26-.036.583-.099.943-.168l-.002-.177a65.012 65.012 0 015.23-.617c.071-.005.135-.032.203-.049.204 1.376 1.118 2.63 2.348 3.277 1.731 1.995 4.35 3.223 7.037 2.957 3.795-.375 6.828-3.566 7.371-7.246 10.822 3.451 21.675 7.025 31.801 12.23a93.994 93.994 0 016.973 3.963c.015-.159.038-.322.085-.49.052-.189.11-.375.167-.562a38.295 38.295 0 0012.626 3.581c1.28.133 1.27-1.868 0-2" fill="#231F20" mask="url(#b)"/></g><g transform="translate(289 215.916)"><mask id="d" fill="#fff"><use xlink:href="#c"/></mask><path d="M145.224 6.652c-.998 2.436-2.891 4.436-5.067 5.87-1.511.996-3.117 1.707-4.784 2.21-.321-.2-.753-.052-.997.27-4.67 1.164-9.752.832-14.515.51-1.03-.07-1.024 1.532 0 1.601 2.169.146 4.39.287 6.609.297.017 5.075-4.02 9.942-9.12 10.59-.432.055-.795.33-.8.8-.005.392.37.857.8.802 5.948-.758 10.786-6.189 10.722-12.21a41.446 41.446 0 001.832-.095c1.464 2.845 1.465 6.375-.14 9.168-1.461 2.547-4.151 4.366-7.07 4.745-.495.064-.747.486-.756.882-.811-.537-1.776-.872-2.7-1.09-2.393-.567-4.942-.747-7.391-.867a55.753 55.753 0 00-3.347-.052c-.245-1.877-1.138-3.652-2.624-4.894-.331-.277-.806-.326-1.131 0-.286.284-.334.854 0 1.131.8.671 1.446 1.534 1.805 2.465.165.428.287.88.363 1.337a60.42 60.42 0 00-3.555.236c-1.016.101-1.027 1.704 0 1.602a58.888 58.888 0 013.608-.242c-.002.024-.003.055-.006.078-.057.426.104.858.56.985.373.1.926-.13.984-.56.025-.18.029-.36.04-.54a56.36 56.36 0 017.536.42c1.628.203 3.44.379 4.869 1.26.83.513 1.216 1.259 1.227 2.036-.388.242-.52.803-.264 1.162a3.364 3.364 0 01-.713.995c-1.341 1.301-3.505 1.642-5.27 1.957-2.015.361-4.062.511-6.108.505-4.084-.014-8.136-.684-12.076-1.733a72.261 72.261 0 01-6.31-2.01c-2.204-.81-4.366-1.742-6.703-2.096-1.008-.152-1.443 1.39-.426 1.544 1.876.285 3.64.942 5.402 1.609a668.055 668.055 0 01-35.182 28.076 677.418 677.418 0 01-9.403 6.852.924.924 0 00-.193-.293c-.36-.362-1.06-.412-1.414 0a6.814 6.814 0 01-.671.666l-.081.069c.052-.038.05-.037-.005.004a5.696 5.696 0 01-.988.594c-.157.077-.097.053-.294.127a6.56 6.56 0 01-.961.279 5.439 5.439 0 01-2.548-.114c.172-.77.274-1.556.333-2.332.228-2.968.095-5.989.109-8.964l.029-6.292c.22.151.506.203.806.02A4405.27 4405.27 0 0090.11 24.989c.356-.221.426-.58.332-.893l5.567-4.674c2.49-2.093 4.795-4.54 8.097-5.2 3.11-.619 6.27-.947 9.379-1.6a107.108 107.108 0 0018.64-5.732c3.006-1.233 5.905-2.784 8.98-3.838 1.145-.393 3.385-1.343 4.384-.264.882.953.152 2.845-.266 3.865m-11.332 23.604c-2.106 3.364-6.11 5.627-10.09 5.208a3.609 3.609 0 00-1.025-2.667c3.462-.475 6.613-2.467 8.37-5.523 1.777-3.088 1.87-6.92.45-10.145a27.303 27.303 0 002.975-.532c1.7 4.368 1.867 9.59-.68 13.659m12.713-28.633c-.978-.996-2.42-.997-3.702-.745-1.717.338-3.37 1.021-4.968 1.716-3.34 1.45-6.625 2.978-10.05 4.231a107.492 107.492 0 01-20.864 5.343c-1.881.284-3.82.43-5.588 1.183-1.69.72-3.061 2.001-4.451 3.17l-9.917 8.328a.757.757 0 00-.207.26 4469.033 4469.033 0 01-37.195 22.762c-3.736 2.26-7.475 4.514-11.217 6.764.004-.813.008-1.627.01-2.44.006-1.255-1.941-1.255-1.947 0-.026 5.666-.026 11.334-.08 17-.013 1.412-.047 2.93-.427 4.327-.044.05-.096.087-.132.147-.102.175-.126.385-.11.593a6.31 6.31 0 01-.402.871c-.66 1.157-1.663 1.76-2.797 2.094-.19-.35-.558-.59-1.055-.44-11.065 3.295-21.377-3.71-29.992-9.774-1.026-.723-2.001.965-.982 1.681 8.184 5.761 17.77 12.047 28.09 10.692a.844.844 0 00.63.22c2.452-.105 5.105-.349 6.88-2.254a6.814 6.814 0 001.216-1.873c2.198.659 4.673.243 6.513-1.129.218.26.566.383.93.123a673.982 673.982 0 0036.684-28.146 677.914 677.914 0 009.954-8.361 70.808 70.808 0 006.247 1.954c4.425 1.15 9.017 1.831 13.596 1.674a34.671 34.671 0 006.69-.869c1.823-.425 3.73-1.096 4.899-2.645a4.83 4.83 0 00.6-1.05c4.574.535 9.129-1.898 11.657-5.725 2.958-4.477 2.813-10.242.987-15.13a19.536 19.536 0 003.724-1.582c2.396-1.336 4.543-3.217 5.979-5.572 1.169-1.918 2.696-5.463.797-7.398" fill="#231F20" mask="url(#d)"/></g></g></svg>