<svg width="500" height="600" xmlns="http://www.w3.org/2000/svg" xmlns:xlink="http://www.w3.org/1999/xlink"><defs><path id="a" d="M0 .705h34.059v22.268H0z"/></defs><g fill="none" fill-rule="evenodd"><path d="M244.84 439.84c.014-.788-.878-1.289-1.498-.9-.177-.217-.432-.362-.736-.334a31.43 31.43 0 01-1.535.087c-.127-.045-.245-.095-.382-.135-1.196-.349-2.502-.18-3.792.025a29.866 29.866 0 01-9.517-2.525c-.59-.269-1.142.046-1.389.49a11.094 11.094 0 01-3.018-.658c-.737-.277-1.402-.739-2.193-.85-.507-.07-1.032.02-1.422.294-.478-.503-1.486-.172-1.616.491a19.422 19.422 0 00-.157 6.515l-.002.028h.005c.013.088.016.177.03.266.051.328.337.56.651.66-.03.19-.068.371-.073.576l-1.226 48.041c-.04 1.567.682 2.633 1.696 3.241a5.73 5.73 0 00-.325 1.41c-3.939 7.285-12.819 12.006-14.656 20.19-.482 2.15.67 3.75 2.22 4.504.27.395.58.77.938 1.12.276.272.572.503.874.722 1.615 2.235 4.296 3.558 7.06 3.607.304.006.603-.04.897-.11.22.03.435.035.651.038 2 .254 3.852.11 5.571-.339a7.182 7.182 0 001.836-.463c.603-.245 1.13-.523 1.584-.905 5.295-2.894 9.107-8.738 11.938-14.068.49-.923.582-1.82.42-2.635a23.792 23.792 0 00.96-16.813 3.822 3.822 0 00-.325-.742c.426-.583.71-1.316.756-2.21l.796-15.356c.025-.087.065-.16.083-.252a135.222 135.222 0 002.563-19.585 3.432 3.432 0 00-.118-1.097c1.262-2.652 1.98-5.353 2.117-8.297a3.287 3.287 0 00-.223-1.312l.74-1.809c.161-.392.045-.702-.183-.91m59.36 82.166c-.538-7.873-7.327-14.583-13.756-18.736l.08-.039c-.817-1.352-1.572-2.732-2.197-4.162 1.017-1.395 1.246-3.337.685-4.978.212-.414.364-.9.433-1.468l5.837-47.698c.025-.203.018-.389.019-.579.294-.06.584-.25.675-.569.026-.086.041-.173.066-.26l.006.002c0-.01 0-.019.002-.029.589-2.114.868-4.268.799-6.466-.02-.673-.874-1.132-1.374-.697-.31-.323-.766-.48-1.228-.477-.725.007-1.385.378-2.083.555a9.168 9.168 0 01-2.793.257c-.157-.47-.604-.853-1.172-.665a24.953 24.953 0 01-8.872 1.258c-1.125-.37-2.268-.708-3.387-.52-.127.022-.24.057-.36.085a23.44 23.44 0 01-1.36-.288c-.268-.065-.517.044-.707.235-.497-.465-1.367-.086-1.468.695-.234.178-.382.47-.296.878.135.63.268 1.258.4 1.887-.2.394-.341.82-.388 1.27-.302 2.93-.05 5.696.695 8.486a3.783 3.783 0 00-.264 1.07 149.057 149.057 0 00-.535 19.713c.004.094.029.171.038.261l-1.503 15.298c-.088.891.06 1.653.358 2.285-.15.21-.286.44-.4.693-.085.19-.15.386-.23.577.374 1.015.433 2.112.004 3.144a22.444 22.444 0 00-.674 1.86c.362.722.542 1.52.434 2.352-.377 2.944-.796 5.877-1.102 8.822l.002.007-.004.014a94.888 94.888 0 00-.172 1.836c.032.265.084.534.17.812.033.102.072.21.104.312-.053 5.864 3.36 10.935 8.005 14.446 4.593 3.472 11.322 7.294 17.175 7.59 5.214.264 10.435-2.885 10.339-8.352a5.359 5.359 0 000-.717" fill="#E4C3A2"/><path d="M243.13 438.246c-.028.105-.05.212-.078.317-.024-.002-.047-.008-.072-.009-.708-.536-1.683-.718-2.612-.713-1.548.008-3.097.041-4.645.062a1.493 1.493 0 00-.514.103c-.06-.024-.127-.03-.19-.045-.077-.229-.14-.459-.219-.687-.622-1.815-3.52-1.036-2.893.798 5.576 16.273 4.47 33.706 3.34 50.586-.027.396.088.7.274.932-.302 3.251.358 6.405.72 9.66.306 2.771.294 5.675-1.13 8.116-.02.02-.043.035-.062.058-3.204 3.62-4.996 8.268-8.507 11.635-3.12 2.991-7.104 4.874-11.353 5.56-1.56-.364-2.759 1.92-1.15 2.718 5.05 2.51 10.84.502 14.645-3.29 3.947-3.936 6.416-9.377 8.577-14.47.015-.02.033-.035.048-.057 1.921-2.683 2.273-6.1 2.023-9.307-.27-3.469-1.264-6.977-.83-10.468.403-.228.711-.632.74-1.224.157-3.119.271-6.239.357-9.36.026-.117.043-.24.041-.377a67.531 67.531 0 01.014-2.546l.004-.22c.06-2.184.243-4.362.533-6.526.054-.15.095-.31.112-.476l.14-1.383c.004-.042 0-.08 0-.12l.818-3.789c.43-.21.703-.572.821-1.027.006-.016.016-.032.023-.049.888-2.207 1.078-4.684.617-7.017a138.87 138.87 0 013.301-16.587c.49-1.869-2.403-2.667-2.893-.798m57.952 88.656c-5.737.866-11.605.216-17.015-1.754.478-.655.501-1.622-.42-2.105-2.114-1.107-4.494-2.384-6.626-3.936a1.44 1.44 0 00-.408-.9c-2.786-2.973-4.2-6.986-4.016-11.011.018-.417-.174-.8-.47-1.075l2.624-27.522c.075-.172.131-.362.134-.588.088-6.165.641-12.308 1.66-18.388a136.125 136.125 0 001.968-21.401c.017-1.496-1.775-1.83-2.596-1.006a1.481 1.481 0 00-1.214.103c-.465-1.513-3.022-1.393-2.927.395.15 2.77.417 5.532.787 8.28-.336.24-.596.62-.666 1.145-.564 4.249-.515 8.5.052 12.737-.343 6.749-.685 13.498-1.029 20.246-.028.569.216.966.572 1.199-.806 8.447-1.61 16.894-2.417 25.343 0 .01.002.02.001.032-.688.144-1.117.76-1.182 1.467-.366 3.957 1.488 7.778 4.134 10.62 1.024 1.098 2.178 2.046 3.395 2.912-.73.58-.97 1.873.062 2.538a35.56 35.56 0 001.773 1.066c.112.28.308.518.605.644l7.894 3.337c.388.164.73.268 1.156.15.145-.04.291-.114.43-.205 1.511.352 3.047.6 4.592.768-.32.28-.535.682-.516 1.115.037.824.66 1.486 1.5 1.5 2.705.045 5.451-.783 7.647-2.371.125-.09.236-.2.336-.318.326-.041.653-.076.978-.124 1.902-.288 1.094-3.18-.798-2.893" fill="#C3996B"/><path d="M308.787 407.606a4.831 4.831 0 00-.233-1.137 5.607 5.607 0 000-1.553c-.834-5.92-1.666-11.841-2.498-17.761.621-.49 1.015-1.307.723-2.096a17.212 17.212 0 01-.77-2.727 15.498 15.498 0 01-.119-.711c-.007-.072-.037-.325-.04-.363-.004-.042-.003-.085-.007-.127 1.711-1.477 1.622-3.764.5-5.565.09-.324.18-.648.288-.968.34-.99-.388-2.23-1.397-2.46-.914-.208-1.739.16-2.206.887-1.074-.3-2.28-.264-3.52.277-4.875 2.125-11.892 1.476-17.127 1.669-6.059.225-12.124.254-18.184.084-4.854-.135-9.7-.407-14.535-.802a47.766 47.766 0 00-6.062-1.62 1.91 1.91 0 00-1.136-.362c-.427-.005-.85-.03-1.276-.05-.373-.055-.74-.128-1.116-.177a1.373 1.373 0 00-.573.063 39.461 39.461 0 01-5.092-.79 1.529 1.529 0 00-1.144-.748c-.178-.025-.355-.047-.532-.07v-.001a21.146 21.146 0 01-4.63-1.177 38.458 38.458 0 01-3.502-1.648c-.854-.461-1.67-.263-2.234.229-.013-.034-.036-.062-.045-.098-.655-2.487-4.514-1.432-3.857 1.064.1.382.25.725.422 1.052v.012l-.003.5-.625 4.465a5.972 5.972 0 00-.035.322c-2.964 5.184-3.916 10.912-3.112 16.78l-.096.398c-.069.283-.11.557-.134.825a96.553 96.553 0 00-2.793 11.174 5.432 5.432 0 00-.054 1.687c-1.52 4.933-3 9.988-3.325 14.86-.099 1.5.047 2.84.395 4.04-.255 1.368.12 2.852 1.457 4.123a8.76 8.76 0 003.623 2.064c.665.4 1.37.768 2.115 1.098.621.303 1.271.535 2.104.813 1.145.38 2.162.348 3.026.038.316.137.663.25 1.044.332 2.398.51 5.194 1.378 7.893 1.582l1.205.39c.51.165 1.032.216 1.548.186.39.18.826.32 1.324.405 4.514.753 9.865 2.372 14.092.594.047-.002.091.002.14-.001 5.758-.314 6.443-5.224 7.313-9.975 1.092-5.97 2.186-11.941 3.28-17.912a607.62 607.62 0 013.661-8.888c.49 2.392.936 4.795 1.337 7.207.065.393.21.75.39 1.089-.085 3.196-.383 6.397-.689 9.592-.38 3.967-.922 8.174.565 11.803-.322 2.706 1.268 5.683 4.785 5.683.291 0 .565-.028.83-.067 1.963.766 4.14.863 6.125.107a5.373 5.373 0 001.682.357c6.322.347 16.637 1.07 23.425-2.333 4.388.55 7.966-3.143 8.494-7.556.69-5.76-.665-12.326-1.085-18.108" fill="#594A41"/><path d="M304.175 371.715c-1.697 1.51-4.09 1.83-6.265 2.083-2.82.327-5.644.64-8.474.881-5.692.486-11.46.675-17.132-.15a1.546 1.546 0 00-1.134.263c-6.084-.829-12.183-.762-18.257-.178-.178-.398-.499-.727-.934-.788a471.627 471.627 0 00-10.47-1.34 1.06 1.06 0 00-.299.006 123.59 123.59 0 01-10.126-2.314 1.366 1.366 0 00-.838.031l-1.108-.24c-.215-.47-.66-.833-1.312-.846a11.802 11.802 0 01-5.09-1.272c-.577-.544-1.207-1.033-1.903-1.41a1.465 1.465 0 00-.407-.144c-.072-.062-.15-.118-.222-.184-1.428-1.293-3.556.823-2.12 2.123.161.146.335.277.503.416 0 .664-.025 1.325-.099 1.98a1.474 1.474 0 00-.404.687l-1.478 5.37c-.214.777.233 1.427.841 1.723-.034.06-.064.12-.1.178-.203.327-.399.617-.595.896-.14.11-.255.25-.328.42-.013.03-.034.057-.047.087-.204.264-.414.525-.649.794-.385.442-.524 1.028-.335 1.555-.22.647.04 1.463.66 1.791l.031.013c-.053.446.108.901.39 1.242-1.832 5.805-3.305 11.853-3.428 17.951-.435.138-.797.455-.909.98l-2.1 9.832c-.136.634.065 1.128.415 1.446l-1 4.181c-.106.438-.045.804.112 1.095-.06.19-.12.378-.182.567a1.605 1.605 0 00-.293.53c-.02.066-.03.138-.049.206-.469.983-.765 2.03-.904 3.138l-.01.033h.006c-.017.135-.047.263-.06.398-.059.658.274 1.09.738 1.297.445 1.12 1.285 2.092 2.35 2.627.24.121.493.163.742.167a8.067 8.067 0 002.237 1.851c.25.142.507.196.754.187a6.332 6.332 0 002.594.485c.172-.004.33-.04.48-.094l4.926 2.182c.672.298 1.448.227 1.916-.35a19.315 19.315 0 002.58 1.76c.321.181.637.231.925.19.058.03.115.06.177.083 3.378 1.267 6.921 2.011 10.517 2.277.06.004.116-.004.173-.008.27.08.557.116.855.071 3.456-.523 6.923.986 10.347-.177a9.583 9.583 0 006.086-6.325c.08-.267.081-.508.035-.726 1.667-.256 1.587-2.974-.255-2.974-1.12 0-1.588 1.01-1.407 1.858-.547.046-1.064.366-1.266 1.044a6.474 6.474 0 01-4.865 4.468c-1.477.307-3.05.09-4.534-.06-1.555-.157-3.059-.229-4.605-.036a1.82 1.82 0 00-.564-.135c-3.288-.243-6.574-.99-9.719-2.17a1.147 1.147 0 00-.53-.06c-6.845-3.952-9.696-12.12-11.474-19.39-1.149-4.7-1.517-9.418-.995-14.233.53-4.864 1.861-9.62 3.36-14.264.05-.154.067-.299.071-.438 3.233-1.708 6.807-2.574 10.386-3.329 4.454-.942 8.917-1.856 13.403-2.629 9.121-1.574 18.503-2.482 27.71-1.098.453.067.842-.05 1.148-.267 6 .78 12.024.614 18.044.063 2.956-.27 5.92-.564 8.862-.965 2.585-.352 5.034-1.023 7.023-2.79 1.445-1.286-.683-3.4-2.122-2.122" fill="#3B2314"/><path d="M307.473 432.012a1.123 1.123 0 00-.31-.482l-.303-.235a1.497 1.497 0 00-.758-.205l-.399.054a1.497 1.497 0 00-.662.386l-.187.187h-.319a1.13 1.13 0 00-.579.129 1.128 1.128 0 00-.482.311c-.141.13-.24.286-.302.463-.235-.326-.619-.542-1.163-.504-5.929.408-11.851.768-17.776.77l-.575-.337c-.613-.358-1.203-.234-1.623.111-3.747-.523-7.585-1.5-10.488-3.998-1.526-1.313-2.642-2.931-3.294-4.841-.084-.248-.146-.504-.219-.755.029-.44-.076-.85-.32-1.171a36.093 36.093 0 01-.292-1.335c-.215-1.095-.491-2.228-.46-3.348.054-1.931-2.946-1.929-3 0-.036 1.279.27 2.577.506 3.829.151.791.332 1.577.541 2.356l-.195 1.442c-.429.216-.763.639-.807 1.278a20.408 20.408 0 00.195 4.533c.188 1.211.406 2.712 1.712 3.214.354.134.722.163 1.08.119.032.047.053.097.086.143.621.88 1.941.895 2.515.14.846.365 1.713.638 2.603.828.209.145.459.249.76.278 3.693.367 7.383.511 11.073.516.026-.001.053.001.078-.001 5.966.004 11.93-.36 17.9-.771.702-.048 1.146-.483 1.335-1.006.042.056.079.116.13.168l.304.234c.233.136.486.204.757.205h.626c.208.008.4-.035.579-.129.146-.048.272-.13.386-.23l.062-.008c.254-.071.474-.2.661-.386l.314-.313c.146-.136.249-.297.31-.483.094-.178.137-.372.129-.578a1.126 1.126 0 00-.129-.578m-76.583-53.178a20.32 20.32 0 00-4.838 1.24 1.234 1.234 0 00-.838-.008c-4.942 1.84-8.807 5.85-10.387 10.895-.22.706.203 1.502.87 1.77.62.25 1.575.082 1.872-.614 2.306-5.395 7.437-9.539 13.32-10.283.803-.102 1.5-.616 1.5-1.5 0-.73-.69-1.603-1.5-1.5" fill="#3B2314"/><path d="M326.134 283.16c-.006-.013-.015-.02-.02-.033-1.334-2.415-2.704-4.805-4.16-7.148-.888-1.425-1.688-3.964-3.11-4.928-.642-.436-1.018-.997-1.2-1.596a5.943 5.943 0 00-2.517-1.265 99.706 99.706 0 01-6.143-6.143c-1.917-2.089-4.355-1.889-6.117-.608-2.944-2.59-6.434-4.573-10.426-5.799a5.358 5.358 0 00-1.308-.23l-2.307-1.29c-1.6-.896-3.156-.833-4.43-.217a38.908 38.908 0 00-7.355-3.513c-1.686-.6-3.104-.287-4.147.522-1.874.847-2.78 2.821-2.72 4.761-.009.043-.023.083-.032.127l-.014.003.04-.296c-.017.103-.045.201-.067.301-.113.026-.223.054-.338.072l.245-.033c-.8.152-1.529.422-2.187.92a264.93 264.93 0 01-.875-.139 5.39 5.39 0 00-1.915.031c-.92-.32-1.928-.32-2.87-.06-.627-.675-1.257-1.346-1.87-2.04a7.004 7.004 0 00-1.129-1.036c-1.04-1.09-2.54-1.802-4.5-1.802-.273 0-.527.028-.782.055-.825-.452-1.802-.738-2.933-.793-12.49-.603-23.707 5.398-30.728 15.056a7.761 7.761 0 00-1.36.95 34.168 34.168 0 00-6.52 7.74c-1.358.718-2.444 1.935-3.18 3.503a15.74 15.74 0 01-.15.287c-.149.286-.29.575-.447.856-.157.28-.322.557-.494.829l-.236.366c-.108.143-.279.375-.337.442-.212.242-.43.478-.655.709-.31.319-1.95 1.712-.677.733-1.103.849-2.008 1.666-2.585 2.839-.1.087-.205.17-.298.264a6.282 6.282 0 00-1.448 2.214c-.037.035-.075.065-.112.1-2.266 2.267-2.76 6.994 0 9.193l2.23 1.776c.268.9.755 1.793 1.524 2.627a55.43 55.43 0 005.86 5.48c.32 2.01 1.461 3.862 3.43 4.757 1.1 1.968 3.25 3.357 5.5 3.444l2.94 2.77c.071.067.15.126.225.189-.057.79-.123 1.579-.187 2.368-.979 1.21-1.318 2.896-1.018 4.437a71.402 71.402 0 00-.93 3.796c-2.315 1.166-3.058 4.102-2.225 6.405-.926 1.669-1.57 3.505-1.932 5.482l-.524 1c-1.06 2.013-1.079 4.556-.019 6.526-.78.7-1.26 1.659-1.472 2.683-1.113.78-1.738 2.026-1.927 3.346-2.365 2.739-1.274 8.15 3.266 8.42.615 1.644 2.042 2.939 4.275 3.015.805.91 1.997 1.516 3.58 1.516.183 0 .351-.022.524-.038.658.594 1.534.984 2.6 1.102.764.703 1.813 1.15 3.137 1.179.794 1.114 2.085 1.886 3.875 1.886.702 0 1.317-.13 1.865-.341.71.447 1.587.717 2.64.717.462 0 .882-.063 1.277-.16a5.315 5.315 0 002.095.614c4.063.355 8.132.64 12.202.892 15.804 2.238 31.6 1.952 47.371-.896.824-.148 1.484-.448 2.013-.843.12.008.24.017.364.017 2.393 0 3.884-1.388 4.498-3.127 2.078-1.03 2.901-3.48 2.467-5.636 3.192-7.694 1.38-18.054.01-26.611a5.644 5.644 0 00.445-2.905c.123-1.383-.24-2.816-1.115-3.876a5.565 5.565 0 00-.285-1.496c.008-2.89.17-5.777.46-8.652.164-1.644-.375-2.86-1.276-3.655-.017-2.684.067-5.363.345-8.028.187-1.787-.462-3.07-1.506-3.854-.02-.56-.043-1.12-.065-1.677.696.674 1.605 1.203 2.76 1.559a3.224 3.224 0 00.833 1.12 2.946 2.946 0 00.657.436c.051.023.105.043.157.064a3.083 3.083 0 00.674.198c.221.04.451.07.701.07.256 0 .492-.03.72-.071l.116-.022a3.304 3.304 0 00.703-.244c.181-.087.353-.185.506-.301.02-.014.036-.032.056-.047.133-.105.254-.221.366-.344.033-.037.068-.073.1-.111a3.232 3.232 0 00.39-.6 3.556 3.556 0 00.268-.698c.016-.06.032-.12.046-.18a4.018 4.018 0 00-.019-1.841c2.133-2.934 3.754-6.447 5.517-9.546 1.436-2.524 2.931-5.14 3.326-7.995" fill="#27A9E0"/><path d="M249.69 369a91.237 91.237 0 01-7.98-5.486 2.027 2.027 0 00-.781-1.045c-11.096-7.839-13.363-22.615-11.363-35.177.098-.618-.017-1.237-.344-1.714a617.255 617.255 0 0110.403-43.322c.692-2.484-3.166-3.543-3.858-1.064a570.185 570.185 0 00-3.492 13.225 1.69 1.69 0 00-.747.254l-.404.312c-.248.25-.42.544-.515.883l-.398 2.624a1.486 1.486 0 00-.062.501 1.657 1.657 0 00-.302.624 47.89 47.89 0 01-1.511 5.277 46.11 46.11 0 01-.966 2.517l-.125.29a46.905 46.905 0 01-.91 1.956 2.37 2.37 0 00-.23.92c-.356.255-.634.614-.736 1.06l-1.643 7.178c-.135.192-.25.41-.317.684-1.1 4.555-2.197 9.11-3.297 13.664-.028.097-.057.193-.087.29a36.885 36.885 0 00-1.376 4.588c-.027.12-.044.236-.053.35l-1.257 3.843c-.165.504-.074.983.154 1.4l-4.065 10.651c-.144.377-.12.78.016 1.148-1.422.157-2.45 1.85-1.23 3.32 2.335 2.814 5.103 5.21 8.186 7.174.55.35 1.086.387 1.548.228.867.523 1.806.988 2.743 1.032 1.185.61 2.394 1.18 3.64 1.684 6.422 2.6 13.545 2.984 20.35 3.86 2.085.266 2.554-2.783 1.01-3.729m63.559-25.306c-.063-.683-.39-1.302-.912-1.665.031-2.995-.095-5.972-.296-8.845-.062-.887-.589-1.462-1.238-1.734.355-2.928.712-5.855 1.068-8.782.131-1.075-1.013-2-2-2-1.189 0-1.869.922-2 2l-1.85 15.202c-.578 4.749-1.032 9.538-2.008 14.226-1.589 7.625-5.264 16.105-13.147 18.988-2.398.877-1.362 4.744 1.064 3.857a22.084 22.084 0 003.181-1.465c.424.342 1.006.493 1.703.287 5.725-1.688 11.554-3.904 14.223-9.696 1.323-2.871 1.847-5.97 2.17-9.091.39-3.753.39-7.527.042-11.282m-83.104-85.982c-.836-.837-1.979-.674-2.828 0a83.6 83.6 0 00-17.604 19.148c-.542.813-1.087 1.648-1.626 2.496-.28.087-.539.24-.739.486a52.65 52.65 0 00-5.179 7.641 1.946 1.946 0 00-.49.861c-.017.057-.027.117-.043.175-.28.537-.57 1.067-.83 1.615-.063.131-.11.268-.149.408a2.22 2.22 0 00-.569.89c-.77 2.23.205 4.676 2.034 6.01l2.451 3.83c.294.458.7.734 1.136.862.268.357.543.704.845 1.006.061.061.136.1.204.152l1.546 2.691c.538.935 1.81 1.26 2.737.717 1.01-.592 1.166-1.75.717-2.736a105.829 105.829 0 01-2.916-7.08c-.754-2.038-1.973-4.51-1.43-6.724.044-.184.058-.357.058-.525.115-.454.256-.908.426-1.36 1.39-3.7 3.752-7.209 5.983-10.447 4.511-6.545 10.041-12.353 16.266-17.288.847-.672.702-2.127 0-2.828m91.807 18.268c-.888-1.426-1.687-3.964-3.109-4.93-.714-.483-1.1-1.124-1.253-1.798a80.427 80.427 0 00-28.238-14.565c-.004-.01-.006-.02-.012-.026-.302-.47-.686-.706-1.196-.92l-8.004-3.35c-.214-.09-.49-.097-.763-.057-1.78-.846-3.727-1.321-5.705-1.31-1.046.007-2.048.916-2 2 .018.402.145.783.355 1.102-1.362.865-.985 3.594 1.12 3.742 14.242.997 28.051 6.194 39.554 14.627 3.242 2.376 6.263 5.047 9.073 7.918.601.612 1.311.702 1.93.489-.574-.98-1.152-1.957-1.752-2.922" fill="#1C75BB"/><path d="M335.454 300.918c-.062-.106-.133-.209-.195-.315.156-.997-.2-2.014-1.157-2.573a2.304 2.304 0 00-.657-.244c-.137-.2-.293-.389-.433-.587.098-.264.142-.548.103-.844-.029-.223-.078-.44-.114-.662.01 0 .016-.003.025-.004-.017-.043-.03-.088-.049-.133a21.155 21.155 0 00-1.68-5.46c-1.79-6.942-3.104-14.326-9.929-18.065-2.824-1.547-5.35 2.77-2.523 4.318 2.122 1.162 3.593 3.036 4.656 5.146-.105.016-.208.025-.317.054-1.1.303-2.124 1.646-1.805 2.847a2.797 2.797 0 00-1.105.046c-1.04.268-1.824 1.098-2.132 2.11-.26.863-.096 1.616.022 2.482.388 2.842.163 5.738-.597 8.514-.71.123-1.39.515-1.813 1.157-.51.775-.92 1.616-1.222 2.495-.527-.744-1.37-1.178-2.356-1.046-1.139.154-2.276 1.214-2.168 2.455l.645 7.45c-.495.582-.727 1.346-.495 2.193.33 1.197 1.812 2.241 3.075 1.746 4.084-1.6 8.092-3.397 11.978-5.434a111.148 111.148 0 005.458-3.054c.552-.329 1.102-.68 1.63-1.06.72.317 1.578.326 2.258-.11 1.14-.737 1.6-2.212.897-3.422m-79.332-50.132c-3.217 0-3.223 5 0 5 3.217 0 3.223-5 0-5" fill="#27A9E0"/><path d="M336.491 301.583c-1.84-6.056-3.634-12.128-5.526-18.167-.85-2.709-1.923-5.263-3.787-7.437-1.805-2.107-4.203-3.664-6.51-5.165-2.704-1.76-5.213 2.567-2.524 4.318 1.963 1.277 3.982 2.565 5.498 4.383 1.543 1.847 2.196 4.218 2.883 6.476 1.716 5.64 3.43 11.28 5.145 16.921.933 3.07 5.761 1.761 4.821-1.329m-11.244 4.839a18.423 18.423 0 01-9.256 1.334c-1.376-.157-2.63-.448-3.5-1.597-.78-1.03-1.17-2.316-1.54-3.535-.373-1.227-2.305-.704-1.929.532.017.055.037.111.053.165-.056-.009-.107-.019-.164-.019-.129-2.514-.12-5.029.207-7.55.166-1.272-1.836-1.26-2 0-1.169 8.982 1.662 17.907.665 26.894-.14 1.277 1.86 1.267 2 0 .45-4.06.12-8.107-.27-12.152l.076.2c.071.187.184.32.311.428.031.097.058.194.088.29.011.033.032.052.045.083-.265.435-.27.992-.022 1.445.03.052.073.09.108.137.513 1.283 2.086 1.323 3.231.857a8.88 8.88 0 00.706-.333l.11-.052c.965-.227 1.92-.629 2.837-.976a59.62 59.62 0 009.254-4.423c1.142-.67.14-2.217-1.01-1.728" fill="#1C75BB"/><path d="M212.741 312.527a4.387 4.387 0 00-.625-1.851c-.673-1.094-1.662-1.856-2.622-2.673-.233-.2-.464-.4-.682-.616-.075-.075-.147-.153-.221-.23.028.039.048.073.039.088a.925.925 0 00-.073-.122l-.001-.001a3.306 3.306 0 01-.112-.116l-.001-.002v-.007c.024.02.06.057.097.098l-.094-.14a4.76 4.76 0 01.014-.193c.047-.43-.084-.85-.311-1.223-.012-1.238-.808-2.462-2.405-2.462-1.557 0-2.354 1.17-2.405 2.379-.09.108-.174.22-.235.347a32.846 32.846 0 01-2.401 4.176 38.34 38.34 0 00-2.465 2.267l-9.426-14.903c-.551-.871-1.56-1.337-2.538-1.2a143.92 143.92 0 01-3.654-6.821c-.014-.028-.033-.05-.047-.076a42.067 42.067 0 01-.599-1.998c-.885-3.291-1.693-6.651-3.456-9.61-3.14-5.27-8.676-9.112-14.748-10.07a3.145 3.145 0 00-1.691.186c-1.239-.66-2.455-1.36-3.576-2.2-1.788-1.337-3.249-3.048-4.384-4.962-.668-1.126-1.779-1.368-2.753-1.082-.51-.2-1.071-.256-1.567-.096-1.375.445-2.008 1.696-1.746 3.076.87 4.59 4.395 8.603 8.759 10.26.041.197.102.394.207.587-3.959-1.575-8.204-2.123-12.483-2.15-2.348-.014-4.704.09-7.046.254-2.257.158-4.269.558-6.121 1.734a2.57 2.57 0 00-.688.086l-.597.252a2.514 2.514 0 00-.897.898c-.294.556-.455 1.096-.458 1.732-.001.176.019.353.047.528a5.583 5.583 0 00-.288 3.483c.098.409.33.77.63 1.068.038.043.078.082.119.122.015.014.029.028.044.04.308.28.7.487 1.187.562.181.035.362.053.545.045a36.584 36.584 0 00-4.745 3.582c-1.005.902-.918 2.617 0 3.535.18.18.38.312.587.422.361.728 1.065 1.275 2.128 1.275.208 0 .402-.022.584-.062-.011.149-.004.298.018.446-.39 2.126 2.348 4.25 4.177 2.284.714-.768 1.499-1.462 2.312-2.122-.426.586-.761 1.234-.93 1.973-.344 1.504.048 3.212 1.15 4.32 1.475 1.483 3.44 1.266 5.275.71 1.717-.516 3.427-1.056 5.138-1.596a669.068 669.068 0 0017.83-5.915 53.484 53.484 0 0112.341 11.079c4.053 4.972 7.467 10.545 11.102 15.827.073.105.169.186.254.279a34.125 34.125 0 001.707 3.315c.063.107.137.205.201.309a98.434 98.434 0 002.132 3.926c.064.117.123.236.196.346.102.175.197.355.3.529.083.14.192.259.303.377.064.148.129.298.197.44.187.396.467.73.737 1.072.147.188.308.362.492.515.322.268.674.56 1.055.753.781.396 1.645.66 2.532.61.663-.036 1.288-.252 1.767-.731.024-.024.043-.056.067-.081.104-.033.199-.086.301-.125.642.21 1.348.183 1.94-.228a26.964 26.964 0 002.238-1.754c.341-.25.651-.534.945-.835a26.82 26.82 0 002.564-2.81c.694-.115 1.328-.522 1.776-1.176a24.235 24.235 0 003.487-7.788c.184-.738.007-1.55-.43-2.165" fill="#E4C3A2"/><path d="M208.591 307.157a.696.696 0 00-.05-.062l.016.027.034.035m193.312-12.917a2.897 2.897 0 00-.087-.323c-.695-2.48-2.607-4.005-4.89-5.085.116-.04.23-.078.344-.131 2.17-1.024 2.519-3.804 1.605-5.78-.974-2.105-3.294-2.801-5.43-2.975a60.46 60.46 0 00-1.89-.122 22.16 22.16 0 00-1.387-.33c-2.44-.475-4.936-.629-7.406-.336-.295.035-.592.072-.89.115a16.531 16.531 0 00-8.302.697c3.398-2.82 6.278-6.354 6.264-11.029-.007-2.526-3.358-3.338-4.66-1.261-2.336 3.734-5.38 6.962-9.86 7.823-2.501.48-4.985.628-7.311 1.77-1.38.678-2.627 1.726-3.476 3.021-2.024 1.066-3.68 2.745-4.868 4.725-1.496 2.492-2.19 5.347-2.776 8.167a43.308 43.308 0 00-1.507 3.66 72.811 72.811 0 00-4.728 8.089c-.791 1.252-1.584 2.489-2.298 3.77a17.053 17.053 0 00-2.935 3.21c-.866 1.218-1.6 2.52-2.393 3.784a21.276 21.276 0 01-.852 1.281l-.183.252-.188.238a13.058 13.058 0 01-1.456 1.516l-.115.11c-.23.212-.548.38-.815.534-.134.076-.273.143-.407.216l-.051.031-.031.008c-.016.006-.034.01-.05.015-.066-.046-.134-.087-.2-.134a17.049 17.049 0 01-2.666-2.67 16.767 16.767 0 01-.97-1.474 2.374 2.374 0 00-.56-.638c.847-1.474.167-3.849-2.056-3.849-1.024 0-1.72.508-2.092 1.198-.096-.056-.191-.116-.288-.157-.778-.329-1.478-.225-2.226.125-1.57.737-3.184 1.418-4.725 2.217-.854.443-1.423 1.203-1.61 2.057-.245.504-.328 1.075-.116 1.64 1.153 3.076 2.792 5.933 4.895 8.434a20.188 20.188 0 007.827 9.71c.432.283.959.374 1.475.317.977 1.044 2.59 1.549 3.98 1.433a6.482 6.482 0 001.764-.42c.849.104 1.726-.22 2.265-1.21l.162-.296c.312-.263.569-.661.72-1.031.676-.99 1.163-2.06 1.588-3.201l1.968-3.61c.816.074 1.637-.27 2.126-1.25 2.32-4.662 4.83-9.228 7.516-13.687.039-.038.085-.066.12-.107 3.266-3.675 6.416-7.521 9.98-10.913 1.314-1.251 2.77-2.456 4.344-3.454a2.75 2.75 0 001.013.242 32.11 32.11 0 011.91.138l.453.055c.86.33 1.734.615 2.615.877.152.149.322.29.533.412 4.364 2.533 9.216 4.008 14.049 5.352 1.925.535 4.112 1.076 5.996.387 1.085.398 2.519.03 3.055-1.06 1.05-2.14.64-4.479-.977-6.227-.63-.68-1.415-1.195-2.262-1.618a12.305 12.305 0 00-4.708-3.248c.1-.015.205-.023.298-.054.026-.007.05-.022.077-.032.313.162.65.258 1.028.313l.082.016c.12.023.24.04.36.065.264.05.524.11.784.18.442.118.907.373 1.354.454a12.104 12.104 0 011.014.525c.426.246.826.524 1.227.809.078.066.158.13.235.199.204.175.4.357.594.545.349.342.668.71.979 1.086.075.105.15.208.22.315.138.202.269.408.392.618.273.463.51.944.719 1.44.226.534.965 1.002 1.495 1.149.598.164 1.395.09 1.926-.253.534-.344 1.003-.856 1.149-1.493.16-.702.024-1.272-.252-1.927-.025-.057-.054-.11-.08-.167-.035-.152-.094-.305-.152-.456.245-.016.48-.077.7-.16a2.394 2.394 0 001.68.684c1.3 0 2.569-1.145 2.5-2.5a7.695 7.695 0 00-.198-1.356" fill="#E4C3A2"/><path d="M213.643 312.39c-.803-.221-1.605.27-1.845 1.048a23.77 23.77 0 01-6.069 9.929 1.403 1.403 0 00-.577.406c-1.977 2.252-5.346 2.477-7.96 1.228-3.19-1.525-5.2-4.722-6.672-7.804-1.698-3.556-2.883-7.355-5.013-10.697-1.906-2.992-4.36-5.603-7.05-7.903-3.143-2.688-6.578-5.006-10.017-7.295-1.61-1.073-3.115 1.525-1.514 2.59 2.52 1.678 5.093 3.397 7.52 5.285-.61.513-.89 1.467-.194 2.224a65.042 65.042 0 017.286 9.499c2.032 3.236 3.605 6.69 5.41 10.05 1.65 3.073 3.64 6 6.484 8.086 2.692 1.974 6.34 2.68 9.098.5.422-.334.553-.74.5-1.124 1.586-.41 3.055-1.208 4.177-2.455a1.5 1.5 0 00.498-.32 26.91 26.91 0 006.986-11.401c.24-.775-.284-1.636-1.048-1.846" fill="#C3996B"/><path d="M205.389 303.683c-.638-.21-1.357.143-1.694.689a24.826 24.826 0 01-1.125 1.674c-.092.125-.183.25-.28.373l-.033.04a23.882 23.882 0 01-3.622 3.672 1.218 1.218 0 00-.281.275c-.238.282-.328.676-.286 1.06.003.037.006.073.011.11.007.04.018.08.028.12.014.056.028.11.049.164.073.202.183.385.333.522.371.34.796.458 1.215.404a.813.813 0 00.067-.008 1.67 1.67 0 00.368-.111c.058-.021.116-.025.173-.052a21.719 21.719 0 004.905-3.3c.782-.695 1.637-1.487 1.861-2.555.279-1.323-.384-2.648-1.689-3.077m-53.321-18.013c-3.787-1.704-7.827-2.439-11.875-1.216-3.609 1.09-6.742 3.445-8.744 6.643-1.028 1.64 1.567 3.148 2.59 1.513 1.586-2.53 4.096-4.4 6.952-5.263 3.244-.979 6.51-.46 9.563.913.738.332 1.613.213 2.052-.538.376-.642.205-1.719-.538-2.053" fill="#C3996B"/><path d="M144.032 279.738c-6.6.006-13.106 3.06-17.234 8.229-.505.633-.618 1.504 0 2.123.524.523 1.613.635 2.12 0 3.66-4.584 9.234-7.347 15.114-7.352 1.93-.001 1.934-3.001 0-3m-1.835-6.145a32.305 32.305 0 00-13.08 3.771c-1.7.916-.186 3.506 1.516 2.591a28.692 28.692 0 0111.564-3.362c.809-.057 1.5-.648 1.5-1.5 0-.768-.688-1.557-1.5-1.5m23.162.347c-1.056-2.381-3.614-3.605-6-4.247-1.816-.49-3.89-.7-5.516-1.633a1.476 1.476 0 00-.42-.964 11.147 11.147 0 01-.676-.766l-.028-.038a10.467 10.467 0 01-.975-1.648c-.037-.078-.072-.158-.11-.237 0-.005-.001-.005-.003-.011-.065-.187-.141-.371-.203-.56a10.607 10.607 0 01-.385-1.538l-.03-.192-.007-.063c-.067-.75-.068-1.495.02-2.243.09-.782-.756-1.533-1.5-1.5-.892.039-1.402.662-1.5 1.5-.34 2.893.538 5.859 2.257 8.194-.147.457-.072.978.382 1.418 1.922 1.862 4.512 2.388 7.029 2.96 1.067.244 2.108.529 3.014 1.006.985.519 1.608 1.055 2.06 2.077.329.74 1.409.915 2.052.538.764-.447.868-1.31.539-2.052m196.161 25.202c-6.565 2.29-11.035 7.752-15.017 13.207-.337-.001-.68.149-.967.52-2.952 3.787-5.935 7.588-8.264 11.802-.772 1.395-1.415 2.834-2.028 4.292a6.466 6.466 0 01-3.9 1.914c-2.388.286-4.201-.955-5.928-2.457-4.198-3.654-7.654-8.12-11.24-12.35-.281-.331-.606-.472-.927-.488a1.265 1.265 0 00-.225-.2c-1.11-1.335-3.476.108-2.463 1.675.24.37.479.746.718 1.118 2.564 5.062 4.207 10.644 8.085 14.93 2.492 2.755 6.005 4.634 9.615 4.772.106.094.228.18.384.25 4.422 1.968 6.759-3.442 8.317-7.28.154-.227.319-.448.469-.68.192-.255.372-.524.538-.805.249-.42.27-.828.15-1.178 2.312-4.781 5.57-9.022 8.82-13.193.175-.225.269-.461.31-.7.314-.6.666-1.18 1.075-1.722.242-.305.492-.602.76-.882a1.06 1.06 0 00.273-.798c3.222-4.164 6.95-8.064 11.976-9.818 1.208-.421.689-2.355-.531-1.93m33.127-.162c-.661-3.268-3.677-5.48-6.82-6.065-3.636-.678-7.603.003-10.991 1.404-.75.309-1.281.995-1.047 1.845.194.708 1.09 1.359 1.844 1.047 2.77-1.144 5.94-1.84 8.948-1.474 2.338.285 4.675 1.579 5.172 4.04.162.795 1.104 1.252 1.846 1.048.827-.228 1.209-1.05 1.048-1.845" fill="#C3996B"/><path d="M400.32 296.413c-.727-3.039-3.746-4.385-6.364-5.463l-5.16-2.125c-1.388-.57-3.602-1.883-4.85-.34-.51.628-.615 1.505 0 2.12.453.453 1.314.591 1.873.221l.004.001c.354.12.696.281 1.042.424l2.014.83 4.279 1.762c1.668.687 3.837 1.555 4.27 3.367.45 1.877 3.343 1.083 2.893-.797m-2.205-9.819c-3.037-2.576-6.946-3.995-10.94-3.815-.784.035-1.538.664-1.5 1.5.034.782.66 1.537 1.5 1.5.431-.02.863-.024 1.294-.005.216.009.432.024.647.044.045.004.39.046.44.049a14.275 14.275 0 013.236.889l.093.04c.393.179.78.369 1.158.581.737.413 1.423.891 1.952 1.338.616.525 1.514.607 2.12 0 .537-.537.62-1.595 0-2.121m-21.66-18.813c-.08 2.96-1.33 5.805-3.37 7.953-.4-.02-.805.11-1.11.423a17.9 17.9 0 01-1.653 1.486 17.603 17.603 0 01-2.404 1.54c-.695.367-.965 1.391-.539 2.052.456.706 1.31.931 2.053.538.456-.24.901-.506 1.337-.786.132-.03.265-.057.391-.118 4.906-2.422 8.148-7.642 8.295-13.088.052-1.93-2.948-1.93-3 0m-216.222 17.744a17.734 17.734 0 01-6.06-10.92c-.165-1.106-2.059-.856-1.964.266.377 4.46 2.497 8.689 5.95 11.565.103.086.217.154.337.202.11.098.211.205.323.3.411.35 1.01.404 1.414 0 .358-.357.414-1.062 0-1.413m212.232-3.463c-.096-.531-.743-.832-1.23-.698-.56.154-.794.697-.699 1.23.65 3.603-.1 7.364-2.002 10.482-.672 1.1 1.057 2.107 1.727 1.008 2.192-3.594 2.948-7.887 2.204-12.022" fill="#C3996B"/><path d="M333.46 303.287l-8.207 4.608c-4.439 2.493-9.039 5.08-14.132 5.796l-.838-9.234a3.338 3.338 0 01-.215-1.126c0-.422.012-.844.032-1.264a3.845 3.845 0 01-.166-1.464l-1.306-14.4c-.116-1.27-2.117-1.284-2 0l2.524 27.832c-.637.44-.589 1.544.161 1.766l.992 10.934c.608 6.707 1.235 13.413 1.825 20.121.426 4.855.691 9.912-.554 14.673-1.344 5.14-4.729 8.864-9.864 10.4-2.776.831-5.676 1.113-8.55 1.37-3.293.293-6.592.507-9.894.64-13.28.533-26.62-.217-39.749-2.287-10.87-1.714-24.78-3.692-31.62-13.413 2.386-4.07 3.831-8.589 4.963-13.155 1.267-5.11 2.361-10.259 3.69-15.356a299.64 299.64 0 012.007-7.256c.241-1.967.752-3.875 1.643-5.58a329.925 329.925 0 016.17-18.404 329.27 329.27 0 016.937-17.25c.508-1.168-1.214-2.187-1.727-1.01a335.43 335.43 0 00-11.54 30.42 280.019 280.019 0 00-1.838 5.913c-1.94-.679-3.693-1.802-5.313-3.158a3.24 3.24 0 01-1.552-.839c-.81-.81-1.512-1.669-2.013-2.66-1.81-2.007-3.48-4.132-5.096-5.986l-4.1-4.708c-.636-.73-1.313-1.464-1.969-2.215a3.782 3.782 0 01-1.12-1.13c-.185-.288-.296-.639-.365-1.002-.05.001-.1-.004-.155.007-.088-.14-.193-.272-.274-.416-1.13-2.008-.266-3.506.88-5.25a441.981 441.981 0 012.802-4.229c7.332-10.906 15.76-22.075 27.93-27.859 3.916-1.86 8.127-2.986 12.376-3.787 2.111-.397 4.235-.719 6.361-1.02.26-.036.582-.1.942-.168.001-.058-.002-.119-.002-.177a64.56 64.56 0 015.23-.616c.071-.005.135-.033.204-.05.203 1.375 1.117 2.631 2.348 3.277 1.73 1.994 4.35 3.223 7.036 2.957 3.795-.375 6.828-3.566 7.372-7.246 10.821 3.451 21.675 7.025 31.8 12.23 4.874 2.505 9.568 5.406 13.865 8.816 1.08 1.135 2.397 1.972 3.687 2.843a.94.94 0 00.436.596c1.632 1.013 2.47 2.821 3.303 4.48a80.652 80.652 0 012.782 6.142 84.639 84.639 0 013.126 9.335c-.195.213-.294.505-.168.873l1.498 4.375c.213.623.585 1.315.666 1.968.097.796-.674 1.014-1.26 1.343m-26.119 110.927c.204 2.372.424 4.742.661 7.111.214 2.143.581 4.316.604 6.471.021 2.057-.692 3.705-2.518 4.734-1.648.928-3.6 1.287-5.433 1.652-4.399.875-8.88 1.25-13.362 1.335-4.52.087-9.04-.119-13.55-.422-2.29-.155-4.597-.27-6.88-.517-1.142-.123-1.59-.606-1.764-1.73-.173-1.11-.207-2.263-.244-3.383-.306-9.355 1.89-18.983-1.137-28.075a77.267 77.267 0 013.468-10.805c.203-.5-.22-1.099-.7-1.23-.57-.157-1.025.196-1.229.7a77.37 77.37 0 00-2.873 8.483.964.964 0 00-.648.62 108.375 108.375 0 00-5.864 26.794c-.229 2.578-.167 5.442-1.396 7.794-1.3 2.491-3.964 3.287-6.594 3.488-2.976.228-6.014.038-8.977-.267-6.396-.659-12.667-2.205-18.868-3.855-2.957-.787-6.518-1.309-8.993-3.233-1.143-.888-2.098-2.198-2.185-3.685-.047-.817.203-1.583.568-2.306-.048-1.19.127-2.362.491-3.49-.042-.004-.08-.022-.124-.02 1.617-8.473 3.232-16.945 4.85-25.418l2.7-14.162c.87-4.553 1.896-9.14 1.815-13.8 5.54 2.976 12.052 4.466 18.107 5.598a205.697 205.697 0 0041.166 3.48c6.594-.109 13.313-.354 19.84-1.357 2.546-.392 5.02-1.09 7.226-2.23.03 9.327.31 18.654.853 27.968.267 4.59.597 9.176.99 13.757m-18.78 78.45c-.31 2.442-.764 4.921-.944 7.38-.17.302-.206.683-.033 1.006.08 1.27.68 2.48 2.118 2.55.373.018.624-.145.78-.376 3.406 2.54 6.526 5.523 9.098 8.894-.02.033-.05.05-.069.086-1.148 2.213-1.798 4.637-1.859 7.132-.03 1.264.104 2.535.37 3.772.047.227.165.494.16.725-.009.294.158.194-.15.19-.51-.01-1.162-.359-1.659-.489-4.9-1.279-10.104-.748-14.692 1.361-.725.332-.608 1.12-.14 1.544-3.253-1.796-6.307-4.01-8.775-6.655-2.275-2.435-3.65-5.382-3.943-8.713-.128-1.459-.087-2.919.044-4.373l.001-.008c.158-1.763.452-3.519.77-5.257a.999.999 0 00.233-.543 575.627 575.627 0 002.604-49.56c.042-4.692.025-9.385-.046-14.077 0-.097-.033-.172-.056-.255 3.545.254 7.094.46 10.648.52 4.297.075 8.598-.088 12.868-.596a6449.924 6449.924 0 00-7.328 55.742m12.33 21.284c2.774 4.193 4.843 10.318.976 14.532-3.602 3.927-9.837 2.458-14.172.806a48.783 48.783 0 01-5.719-2.615c.218.062.46.067.713-.049a19.645 19.645 0 017.74-1.78 19.293 19.293 0 013.9.287c1.22.22 2.448.813 3.677.903 1.071.076 1.965-.533 2.146-1.615.185-1.098-.346-2.3-.446-3.395a14.148 14.148 0 011.184-7.074m-60.575-45.223a1.03 1.03 0 00-.162.458 750.38 750.38 0 00-1.993 23.916c-.036.532.29.83.684.92.353 3.536.823 7.108.135 10.595-.808 4.094-2.78 7.82-4.942 11.347-.456.744-.916 1.517-1.39 2.292-.065-.444-.368-.862-.937-.9a41.845 41.845 0 00-17.452 2.595 52.655 52.655 0 00-2.175-13.752 1.003 1.003 0 00-.209-.385c.537-.49 1.06-.973 1.546-1.45 2.64-2.583 4.66-5.51 5.194-9.24.283-1.974.216-3.95.092-5.93-.025.007-.05.01-.077.015l-.91-18.893c-.002-.047-.024-.082-.03-.126l.511-35.439c1.84.485 3.692.928 5.52 1.384 3.436.858 6.895 1.632 10.392 2.196 3.41.55 6.852.921 10.306.976.2.003.402.004.603.006-2.068 9.72-3.62 19.54-4.706 29.415m-3.126 48.713l1.676-3.673.151-.308a26.748 26.748 0 01-1.827 3.981m-10.89 7.751c-3.56 1.905-8.28 2.214-12.187 1.391-3.822-.806-7.37-3.056-8.885-6.787a9.059 9.059 0 01-.357-1.087c.066-.156.126-.314.205-.468.027-.053.043-.104.06-.155a5.87 5.87 0 01-.186-.945 1.158 1.158 0 00-.346-.282c-.104-3.834 2.76-6.879 5.698-9.603a50.698 50.698 0 011.98 14.133c0 .584.652 1.217 1.266.963a40.48 40.48 0 0118.163-2.996c.1.007.178-.019.262-.036-1.509 2.344-3.245 4.574-5.674 5.872m-11.614 5.65c1.273.085 2.546 0 3.796-.229.16.036.324.051.494.02a29.255 29.255 0 004.601-1.256c-2.869 1.122-5.938 1.72-8.89 1.465m121.612-230.473l-.854-2.495a.996.996 0 00.012-.49 85.613 85.613 0 00-4.429-13.734 84.644 84.644 0 00-2.879-6.186c-.604-1.164-1.274-2.278-2.157-3.205.131-.022.261-.058.393-.073-1.57-1.31-3.419-2.292-4.949-3.663.022-.044.037-.09.06-.135-7.923-6.476-17.349-11.157-26.773-14.91-7.094-2.827-14.366-5.177-21.638-7.493-.614-.195-1.279.333-1.267.964.07 3.228-2.475 6.407-5.804 6.614-1.737.11-3.373-.565-4.606-1.692-.039-.403-.292-.77-.713-.88l-.128-.04a6.578 6.578 0 01-1.215-2.67c-.096-.473-.427-.69-.789-.712-.175-.14-.409-.249-.626-.239-.216.01-.427.087-.599.221-.165-.127-.356-.216-.57-.2a69.107 69.107 0 00-9.29 1.333c-.094.02-.172.072-.25.121-3.894.604-7.776 1.362-11.516 2.621-7.032 2.365-13.212 6.576-18.51 11.721-5.299 5.146-9.743 11.112-13.898 17.196a347.172 347.172 0 00-3.05 4.554c-1.009 1.533-2.37 3.146-2.585 5.028-.148 1.298.267 2.493.902 3.582 1.787 1.037 3.006 2.685 3.652 4.56.548.624 1.096 1.252 1.641 1.878 3.136 3.6 6.165 7.353 9.506 10.77a29.227 29.227 0 01-1.763 5.575 3.37 3.37 0 012.055.14 32.448 32.448 0 001.363-4.107c1.952 1.77 4.137 3.295 6.606 4.151-2.28 7.772-4.257 15.62-6.087 23.522-1.213 5.242-2.618 10.484-5.333 15.16-.485.173-.852.666-.635 1.215-.11.518.265.954.737 1.092 1.94 2.711 4.377 4.836 7.112 6.537a.887.887 0 00-.264.686c.137 4.838-.982 9.591-1.883 14.316l-2.655 13.918-5.356 28.081a.976.976 0 00.123.698c-.583 1.495-.727 3.07.02 4.754 1.147 2.59 3.651 4.056 6.225 4.941.848.292 1.71.56 2.576.811-.184 12.624-.366 25.25-.549 37.873.047-.012.095-.015.143-.024l.892 18.525c.01.175.058.321.13.448a28.5 28.5 0 01-.074 2.907c-.33 3.945-2.429 6.82-5.209 9.462-4.36 4.147-10.158 8.653-8.76 15.22-1.083 3.433.016 7.216 2.405 9.94 3.164 3.606 8.378 4.631 12.962 4.141 8.795-.938 16.553-6.679 20.826-14.312 2.406-4.297 3.695-9.178 3.55-14.109-.024-.786-.78-1.087-1.356-.912.032-.268.077-.535.1-.805.218-2.799-.21-5.59-.45-8.373a84.009 84.009 0 01-.265-4.729c-.04.02-.083.031-.123.048a748.37 748.37 0 011.545-18.376c.02.01.04.015.058.024a294.511 294.511 0 014.945-31.447c.031-.149.028-.288.004-.416 2.013-.073 4.03-.35 5.836-1.237 5.544-2.724 4.776-10.222 5.395-15.367.774-6.423 2.177-12.763 4.11-18.937 2.097 8.224.31 16.87.518 25.265.046 1.863-.106 4.315.86 5.985.988 1.706 3.103 1.578 4.82 1.713.66.052 1.32.1 1.981.15a1.003 1.003 0 00-.074.394 574.941 574.941 0 01-1.383 49.608 581.549 581.549 0 01-1.088 13.052.94.94 0 00-.125.31c-.364 1.973-.705 3.997-.889 6.016-4.05 7.57-.369 16.718 5.826 21.89 3.407 2.845 7.417 4.804 11.555 6.345 4.145 1.542 8.964 3.38 13.377 1.89 4.098-1.383 7.321-5.029 7.964-9.333a1.014 1.014 0 00-.258-.85c1.062-3.462.343-7.534-1.316-10.772-3.157-6.16-8.692-11.342-14.4-15.207.223-2.934 1.121-9.526 1.213-10.253a6393.535 6393.535 0 016.981-53.008c.012-.092-.008-.173-.016-.257 3.573-.473 7.967-.99 10.682-3.469 3.247-2.967 1.83-8.088 1.45-11.89a499.753 499.753 0 01-1.272-14.97 508.264 508.264 0 01-1.233-33.959.891.891 0 00-.463-.808c1.762-1.163 3.295-2.67 4.464-4.626 2.522-4.217 3.022-9.367 2.96-14.18-.08-6.299-.936-12.612-1.504-18.879l-1.654-18.23c5.89-.83 11.121-3.895 16.258-6.779l4.751-2.667c1.234-.694 2.922-1.306 3.88-2.378.941-1.052.515-2.293.108-3.483" fill="#231F20"/><g transform="translate(124 268.916)"><mask id="b" fill="#fff"><use xlink:href="#a"/></mask><path d="M33.632 3.164C27.692.392 21.076.447 14.68 1.02c-4.59.413-11.252 1.273-11.756 7.055-.149 1.71.418 3.47 1.693 4.516-.514.355-1.017.723-1.504 1.111C1.432 15.04-.23 16.992.026 19.29c.215 1.93 1.751 3.838 3.837 3.672 1.053-.083 1.062-1.737 0-1.653-1.732.137-2.517-1.95-2.06-3.367.615-1.914 2.548-3.2 4.145-4.247.162-.105.33-.2.492-.302a.743.743 0 00.528-.326A31.035 31.035 0 0117.94 9.081c1.047-.17.603-1.764-.44-1.595-3.97.646-7.893 2.04-11.366 4.131-1.844-.872-1.919-3.62-1.038-5.258 1.388-2.575 4.942-3.184 7.567-3.486 6.653-.764 13.91-1.187 20.136 1.72.958.446 1.798-.979.834-1.429" fill="#231F20" mask="url(#b)"/></g><path d="M203.813 302.87a18.089 18.089 0 01-4.583 6.594c-.138.126-.303.341-.476.422-.3.141-.185.182-.45-.044-.378-.325-.667-.924-.957-1.329l-7.51-10.5a.852.852 0 00-.317-.273 54.287 54.287 0 01-5.352-8.9c-2.338-4.925-3.865-10.32-7.062-14.8-1.449-2.032-3.238-3.836-5.446-5.037-2.298-1.25-4.88-1.746-7.42-2.253-2.44-.487-5.102-.954-7.143-2.483-2.25-1.684-2.649-5.066-5.292-6.272-1.174-.535-2.644-.584-3.633.36-1.046.996-1.269 2.724-1.218 4.097.111 3.01 1.76 5.813 4.341 7.357.915.55 1.747-.88.834-1.426a7.315 7.315 0 01-3.527-6.368c.026-1.267.387-3.096 2.04-2.693 1.424.348 2.097 1.768 2.746 2.941 1.168 2.108 2.72 3.627 4.948 4.581 2.148.92 4.468 1.29 6.743 1.756 2.35.483 4.68 1.071 6.706 2.407 2.017 1.33 3.576 3.24 4.83 5.283 2.604 4.25 4.058 9.065 6.201 13.541a55.734 55.734 0 006.891 10.891l.03-.022 3.232 4.522 2.235 3.125c.665.93 1.284 2.122 2.14 2.887 1.693 1.52 3.727-1.159 4.726-2.345a20.523 20.523 0 003.337-5.58c.4-.986-1.199-1.415-1.594-.44m-59.34-21.67a35.778 35.778 0 00-8.019 2.594c-2.348 1.077-4.96 2.385-6.705 4.344-1.436 1.614-2.198 3.958-.711 5.79 1.152 1.42 3.465 2.18 4.828.608.693-.801-.471-1.975-1.169-1.17-.916 1.057-2.532-.201-2.796-1.262-.448-1.803 1.52-3.455 2.808-4.337 3.644-2.492 7.887-4.123 12.203-4.972 1.043-.206.602-1.8-.439-1.595" fill="#231F20"/><path d="M211.94 317.942a31.422 31.422 0 01-8.24 10.074c-.024.02-.031.052-.053.074-.332.223-.672.435-1.021.634-1.774 1.006-3.897 1.832-5.972 1.508-1.82-.283-3.605-1.668-3.723-3.608-.033-.544-.485-.805-.91-.79-5.572-11.794-13.146-22.705-22.382-31.924-1.047-1.046-2.184-2.061-3.618-2.526-1.577-.51-3.273-.194-4.793.356-1.658.598-3.247 1.386-4.886 2.035a82.506 82.506 0 01-5.277 1.883c-3.346 1.066-6.887 2.147-10.387 2.548-1.307.149-2.84.196-3.995-.535-1.49-.942-1.502-2.798-.98-4.302 2.063-5.948 10.229-8.04 15.409-5.163.932.517 1.766-.91.835-1.427-4.826-2.681-11.194-1.728-15.163 2.076-2 1.915-3.78 5.056-2.812 7.888 1.012 2.96 4.288 3.422 6.999 3.08 3.685-.465 7.377-1.547 10.902-2.69a82.189 82.189 0 005.626-2.052c1.722-.701 3.409-1.606 5.212-2.078 2.12-.555 3.737.139 5.275 1.602 1.28 1.216 2.487 2.519 3.68 3.82a112.073 112.073 0 017.04 8.478 114.686 114.686 0 0112.529 21.13c.117.256.304.379.505.413.588 1.308 1.683 2.354 3.048 2.947 2.269.986 4.837.522 7.034-.428a17.224 17.224 0 002.412-1.28c.304.045.62-.045.88-.255a32.799 32.799 0 008.554-10.48c.59-1.141-1.135-2.154-1.727-1.008m-55.499-34.462c-1.604-2.353-2.348-5.274-1.937-8.108.064-.442-.11-.888-.578-1.017-.388-.106-.952.133-1.016.577-.475 3.275.233 6.637 2.103 9.383.252.369.727.533 1.132.297.365-.214.548-.761.296-1.131m213.488-3.401c5.939-2.772 12.556-2.717 18.953-2.144 4.591.413 11.252 1.273 11.756 7.055.148 1.71-.419 3.47-1.693 4.516a28.16 28.16 0 011.504 1.111c1.679 1.337 3.342 3.29 3.085 5.588-.214 1.93-1.75 3.838-3.836 3.672-1.054-.083-1.063-1.737 0-1.653 1.732.137 2.516-1.95 2.061-3.367-.616-1.914-2.55-3.2-4.146-4.247-.163-.105-.33-.2-.493-.302a.745.745 0 01-.528-.326 31.023 31.023 0 00-10.97-3.986c-1.048-.17-.603-1.764.44-1.595 3.97.646 7.893 2.04 11.365 4.131 1.845-.872 1.92-3.62 1.038-5.258-1.388-2.575-4.941-3.184-7.566-3.486-6.654-.764-13.91-1.187-20.136 1.72-.958.446-1.799-.979-.834-1.429" fill="#231F20"/><path d="M323.748 310.87a18.117 18.117 0 004.583 6.594c.14.126.303.341.476.422.3.141.185.182.45-.044.378-.325.667-.924.958-1.329l7.51-10.5c.09-.128.2-.214.316-.273a54.292 54.292 0 005.353-8.9c2.337-4.925 3.864-10.32 7.061-14.8 1.45-2.032 3.238-3.836 5.446-5.037 2.298-1.25 4.881-1.746 7.42-2.253 2.442-.487 5.103-.954 7.143-2.483 2.25-1.684 2.65-5.066 5.293-6.272 1.173-.535 2.643-.584 3.633.36 1.045.996 1.268 2.724 1.217 4.097-.11 3.01-1.759 5.813-4.34 7.357-.915.55-1.748-.88-.835-1.426 2.207-1.322 3.581-3.789 3.528-6.368-.026-1.267-.388-3.096-2.04-2.693-1.425.348-2.098 1.768-2.747 2.941-1.167 2.108-2.72 3.627-4.948 4.581-2.148.92-4.468 1.29-6.743 1.756-2.349.483-4.679 1.071-6.706 2.407-2.017 1.33-3.576 3.24-4.829 5.283-2.604 4.25-4.059 9.065-6.202 13.541a55.687 55.687 0 01-6.89 10.891l-.03-.022-3.233 4.522-2.235 3.125c-.665.93-1.284 2.122-2.139 2.887-1.694 1.52-3.728-1.159-4.727-2.345-1.415-1.678-2.514-3.548-3.337-5.58-.399-.986 1.2-1.415 1.594-.44m59.342-21.67a35.778 35.778 0 018.018 2.594c2.347 1.077 4.96 2.385 6.705 4.344 1.436 1.614 2.198 3.958.711 5.79-1.152 1.42-3.465 2.18-4.828.608-.694-.801.471-1.975 1.17-1.17.914 1.057 2.531-.201 2.794-1.262.45-1.803-1.519-3.455-2.808-4.337-3.643-2.492-7.886-4.123-12.202-4.972-1.043-.206-.602-1.8.44-1.595" fill="#231F20"/><path d="M390.779 296.855c-3.97-3.804-10.337-4.757-15.163-2.076-.932.516-.097 1.944.834 1.427 5.18-2.876 13.347-.785 15.409 5.163.522 1.504.51 3.36-.98 4.302-1.156.73-2.687.684-3.995.535-3.5-.401-7.041-1.482-10.386-2.548a83.15 83.15 0 01-5.278-1.883c-1.638-.65-3.227-1.437-4.885-2.035-1.521-.55-3.217-.866-4.794-.356-1.434.465-2.571 1.48-3.617 2.526-9.236 9.218-16.811 20.13-22.383 31.924-.424-.015-.877.246-.91.79-.118 1.94-1.904 3.325-3.723 3.608-2.074.324-4.197-.502-5.971-1.508-2.816-1.598-5.08-3.973-6.628-6.787.218-.277.295-.658.058-1.056l-5.983-10.04c-.66-1.103-2.388-.1-1.727 1.01l5.353 8.983c.005.1.02.202.065.307 1.843 4.317 5.34 7.956 9.665 9.824 2.197.95 4.766 1.413 7.034.428 1.365-.593 2.46-1.64 3.048-2.947.202-.034.389-.157.505-.413a114.69 114.69 0 0112.529-21.13 111.638 111.638 0 017.04-8.478c1.194-1.301 2.4-2.604 3.68-3.82 1.539-1.463 3.156-2.157 5.275-1.603 1.804.473 3.49 1.378 5.212 2.079a82.408 82.408 0 005.627 2.052c3.525 1.143 7.216 2.225 10.902 2.69 2.71.342 5.986-.12 6.999-3.08.967-2.832-.813-5.973-2.812-7.888m-19.659-5.375c1.604-2.353 2.348-5.274 1.937-8.108-.064-.442.11-.888.578-1.017.387-.106.952.133 1.016.577.475 3.275-.233 6.637-2.104 9.383-.25.369-.727.533-1.13.297-.366-.214-.55-.761-.297-1.131" fill="#231F20"/></g></svg>