<svg width="500" height="600" xmlns="http://www.w3.org/2000/svg" xmlns:xlink="http://www.w3.org/1999/xlink"><defs><path id="a" d="M0 .173h102.972V130H0z"/></defs><g fill="none" fill-rule="evenodd"><path d="M265.865 97.305c-.463.108-.916.289-1.375.418-.545.152-1.092.3-1.64.446-2.023.54-4.054 1.036-6.053 1.665a.671.671 0 0 0-.53.343c-.287.392-.366.969-.366 1.438a3.1 3.1 0 0 0 .173 1.052c.077.198.377.836.723.73a50.498 50.498 0 0 1 4.522-1.192c.809-.171 1.619-.34 2.43-.498.345-.068.69-.13 1.036-.188.357-.06.726-.136 1.089-.112.025.016.05.034.075.053 1.055 1.172 1.904 2.555 2.632 3.953 1.15 2.44 1.916 5.05 2.608 7.654.23.962.46 1.925.605 2.905.144.972.262 1.941.368 2.916.104 2.088.153 4.174.132 6.265-.02 1.939-.127 3.866-.268 5.796a76.736 76.736 0 0 1-.635 4.65c-.253 1.497-.622 2.98-.962 4.46-.675 2.94-1.424 5.867-2.174 8.79-.44 1.552-.889 3.1-1.35 4.645a108.447 108.447 0 0 1-1.547 4.707c-1.053 3.02-2.552 5.87-3.822 8.802a60.336 60.336 0 0 0-1.287 3.236c-.12.339-.22.68-.32 1.026l-.287 1.106c-.065.485-.1.973-.106 1.462-.028 1.288.278 2.959 1.374 3.798.254.195.573.26.885.312.19.03.725-.212.938-.364.325-.229.582-.575.84-.877.152-.176.294-.356.45-.53.748-.847 1.356-1.847 1.966-2.794.747-1.158 1.434-2.351 2.115-3.55 1.185-2.085 2.282-4.212 3.37-6.347.439.786 1.237 1.59 2.122.946.945-.686 1.343-1.764 1.844-2.77.188-.377.356-.761.532-1.143.304-.664.58-1.343.846-2.023.252-.645.5-1.293.74-1.944.321.165.684.198 1.01-.082.216-.182.415-.382.596-.6.235-.318.37-.686.489-1.055.045-.139.087-.28.127-.42.163-.563.302-1.133.446-1.701.167-.657.325-1.317.483-1.978.135-.566.283-1.13.401-1.7.14-.668.316-1.336.418-2.01l.352-2.332c.158-1.049.265-2.11.346-3.173.531-2.107 1.06-4.215 1.58-6.324.593-2.398 1.212-4.791 1.747-7.202.055-.209.101-.42.138-.631v-.002c.079-.45.116-.908.111-1.372 0-1.144-.19-2.55-.893-3.507-.294-.496-.722-.776-1.289-.838-.917 0-1.513 1.054-1.76 1.779-.133.391-.251.788-.362 1.187a3.419 3.419 0 0 0-.178-.15l-.603-.194a3.16 3.16 0 0 0-.203-.176l-.62-.199a1.472 1.472 0 0 0-1.16.754c-1.03 2.018-1.863 4.131-2.643 6.263.02-.412.04-.824.062-1.235.04-.718.066-1.448.055-2.166a115.805 115.805 0 0 0-.167-4.775c-.11-1.956-.192-3.93-.477-5.87-.276-1.883-.612-3.76-1.155-5.59-.436-1.47-.865-2.954-1.47-4.366-.647-1.511-1.249-3.053-2.02-4.508-.66-1.241-1.627-2.324-2.56-3.367-.359-.403-.72-.842-1.143-1.177-.34-.27-.677-.553-1.11-.553-.077 0-.157.009-.24.028" fill="#BEBEBE"/><path d="M274.422 113.672c-.775.498-.946 1.631-1.105 2.432a286.469 286.469 0 0 0-1.238 6.658c-.29 1.657-.62 3.313-.871 4.976-.488 3.22-.96 6.444-1.487 9.66-.517 3.157-1.019 6.315-1.652 9.451-.63 3.12-1.344 6.233-1.823 9.38-.144.949-.287 1.898-.428 2.847-.058.384-.109.768-.163 1.151-.033.236-.058.473-.087.71a7.11 7.11 0 0 0-.045.565 5.302 5.302 0 0 0-.042 1.516c.049.502.11 1.001.185 1.5.167 1.135 1.256 3.63 2.82 2.599.803-.53 1.19-1.392 1.6-2.213l.7-1.39c.364-.725.697-1.466 1.04-2.2.772-1.652 1.423-3.353 2.09-5.048a94.536 94.536 0 0 0-.428 5.036c-.073 1.293-.172 2.59-.198 3.884l-.031 1.516c-.008.404.019.808.047 1.21.04.538.122 1.074.198 1.608.074.525.272 1.03.449 1.53.29.823 1.13 1.816 2.074 1.207.412-.353.69-.792.834-1.32.212-.695.3-1.406.265-2.132a5.79 5.79 0 0 1-.033-.45c.118-1.55.335-3.102.504-4.646.16-1.441.272-2.888.454-4.327.21-1.666.383-3.343.633-5.005l.854-5.666c.2-1.329.387-2.66.579-3.99.22-1.542.48-3.084.661-4.63l.687-5.856c.175-1.49.28-2.99.414-4.484.224-2.475.43-4.95.634-7.427a8.153 8.153 0 0 0-.103-2.633 5.175 5.175 0 0 0-.83-2.015 1.569 1.569 0 0 0-1.267-.756c-.882.034-1.408 1.066-1.62 1.77-.485 1.605-.672 3.301-.994 4.945-.151.775-.294 1.552-.456 2.324l-1.015 4.824c-.667 2.873-1.312 5.75-2.083 8.598l-.907 3.341c-.117.435-.221.877-.36 1.305.41-2.8.835-5.598 1.235-8.4l.805-5.618c.232-1.624.557-3.238.835-4.853.392-2.276.801-4.543 1.25-6.81a7.434 7.434 0 0 0-.093-2.383c-.166-.773-.515-1.92-1.292-2.339a1.114 1.114 0 0 0-.568-.169c-.213 0-.422.073-.628.217" fill="#BEBEBE"/><path d="M236.919 116.38l.022.016a1.404 1.404 0 0 1-.022-.016m5.366-2.164c-.26.25-.518.5-.772.752a5.388 5.388 0 0 0-.339.364 2.46 2.46 0 0 0-.123.157.48.48 0 0 0-.323.057.49.49 0 0 0-.118-.154 1.3 1.3 0 0 0-.142-.106.505.505 0 0 0-.255-.058.54.54 0 0 0-.34.073c-.093.058-.17.128-.242.207a.553.553 0 0 0-.475-.215c-.133.009-.263.02-.377.098a1.35 1.35 0 0 0-.197.164c-.063.063-.117.14-.167.22a1.691 1.691 0 0 0-.047-.065c-.19-.243-.417-.415-.676-.582-.24-.154-.528-.195-.808-.202-.314-.01-.599.255-.667.547-.09.382.155.76.533.855l.056.014c.08.037.156.08.23.125.06.046.116.093.17.145.09.12.17.25.26.37.123.171.251.301.426.415.09.061.198.088.3.124.093.013.185.02.279.02a.669.669 0 0 0 .227-.05.546.546 0 0 0 .746.169c.152-.094.225-.225.28-.378.07-.154.147-.306.229-.455.05-.093.106-.183.165-.272.096.151.225.27.422.308a.475.475 0 0 0 .351-.059.634.634 0 0 0 .179-.18c.11-.02.207-.045.288-.134.061-.068.11-.144.156-.225.052-.095.107-.186.167-.276.183-.237.397-.445.61-.656.194-.192.391-.38.589-.57.158-.153.133-.426-.023-.57a.388.388 0 0 0-.267-.104c-.11 0-.22.045-.305.127M250.743 115.222zm0 .006v-.006.006zm-.004.035zm-.002.019zm0 .008zm2.18-.658l-.04.032.04-.032zm-1.241-.77c-.146.243-.279.49-.402.747l-.01.018a.635.635 0 0 0-.331.17c-.16.145-.18.326-.199.527l.002-.034a3.22 3.22 0 0 0-.012.246c-.003.134.053.253.11.371a.42.42 0 0 0 .243.198c.092.16.226.294.403.364a.56.56 0 0 0 .286.066.73.73 0 0 0 .19-.02c.058.036.118.06.18.067.19.022.378.046.567.054.186.008.376-.016.56-.035.193-.018.384-.042.575-.068l1.089-.15c.485-.067.97-.143 1.454-.215a79.448 79.448 0 0 1 3.385-.407c.29-.03.529-.25.516-.557-.01-.284-.265-.536-.559-.514-.282.021-.563.044-.844.068a.547.547 0 0 0-.25-.25.882.882 0 0 0-.244-.075.435.435 0 0 0-.115-.135c-.147-.11-.282-.191-.475-.183-.092.003-.182.025-.273.045-.085.018-.17.04-.255.062-.194.05-.384.124-.573.193-.136.049-.272.098-.41.145a.755.755 0 0 0-.24-.21.668.668 0 0 0-.525-.047c-.204.08-.395.188-.59.287-.119.06-.239.12-.359.178l-.103.047a2.02 2.02 0 0 0-.036-.177c-.042-.18-.22-.343-.381-.416a.607.607 0 0 0-.311-.07 5.48 5.48 0 0 0-.226.04c-.07.03-.14.063-.207.1-.091.048-.168.136-.243.206-.075.07-.152.135-.23.202a6.024 6.024 0 0 1-.87.605l-.002-.007c.15-.347.322-.682.518-1.008.127-.213.023-.502-.187-.614a.445.445 0 0 0-.21-.053.481.481 0 0 0-.406.24z" fill="#161616"/><path d="M258.625 114.15a.467.467 0 0 0-.2.283c-.054.229.095.515.344.553.786.119 1.572.236 2.355.369.353.06.704.123 1.055.186.154.029.308.062.461.092.204.04.406.11.603.169.222.065.46-.101.511-.316a.425.425 0 0 0-.055-.323.455.455 0 0 0-.261-.185 8.32 8.32 0 0 0-1.036-.305c-.342-.07-.683-.139-1.025-.2-.796-.145-1.597-.262-2.397-.383a.76.76 0 0 0-.108-.008.445.445 0 0 0-.247.068" fill="#161616"/><g><g transform="translate(207 58)"><mask id="b" fill="#fff"><use xlink:href="#a"/></mask><path d="M43.777 38.817c.175 0 .352-.011.527-.023l.225-.014.088-.006c1.305-.073 2.654-.148 3.962-.407l.557-.112.556-.11c.071-.014.144-.03.215-.046l-.2.203c-.367.398-.737.792-1.107 1.186-.12.13-.242.256-.364.382-.19.2-.376.396-.56.595-.25.272-.47.558-.654.8-.055.083-.098.161-.13.24l-.061.15-.064.146a5.197 5.197 0 0 0-.053.423c-.042.44.288.883.62 1.076.27.157.55.227.937.234.137 0 .253-.011.366-.023l.138-.013c.25-.018.5-.04.748-.067.651-.068 1.31-.165 1.948-.259l.072-.01.222-.034c1.038-.153 2.111-.312 3.11-.692.929-.356 1.83-.82 2.7-1.268l.51-.262c.55-.28 1.077-.608 1.528-.893.001.466.014.967.074 1.469.064.546.143 1.128.342 1.714.062.165.128.328.2.489.108.198.242.364.37.514.144.167.478.348.688.407.11.03.273.05.438.051.007.528.067 1.078.119 1.564l.006.057c.154 1.453.595 2.862 1.005 4.048l.208.595.068.195c.121.349.243.698.36 1.048l.123.358.015.045c.15.436.303.888.429 1.338.09.328.18.658.268.988l.018.071c.236.877.479 1.785.776 2.66.4 1.17.763 2.194 1.112 3.129.114.308.233.616.351.922l.014.034c.25.651.509 1.324.723 2 .322 1.018.633 2.017.883 3.037l.042.167c.105.425.215.864.29 1.309.078.462.152.924.222 1.387l.005.046c.09.873.185 1.776.323 2.672.052.327.16.653.254.941l.03.096c.075.222.17.458.29.72.118.258.233.51.396.73.193.26.441.54.822.642.15.046.306.073.463.08.155-.01.308-.036.457-.073.145-.057.287-.118.428-.182.117-.067.227-.14.326-.22.115-.082.225-.171.336-.26l.027-.022.05-.04c.176-.143.349-.289.521-.434l.071-.06.384-.322.444-.37a75.514 75.514 0 0 1 1.906-1.563c.287-.211.544-.39.785-.544a39.61 39.61 0 0 0-.417 1.47c-.068.25-.134.5-.2.748l-.018.069c-.083.314-.166.627-.251.941l-.121.44c-.282 1.02-.574 2.076-.688 3.155a94.156 94.156 0 0 0-.327 3.928l-.08 1.3c-.052.878-.107 1.755-.162 2.633-.03.477-.073.957-.119 1.449a29.808 29.808 0 0 1-.567 2.896.425.425 0 0 0-.119 0c-.279.033-.558.07-.837.108l-.143.02a34.49 34.49 0 0 1-.817.083c-.704.066-1.432.134-2.131.315-.536.14-1.11.304-1.679.563-.381.174-.78.414-1.252.755a53.294 53.294 0 0 0-2.768 2.123c-.424.349-.814.72-1.14 1.036-.31.302-.583.647-.883 1.033a14.748 14.748 0 0 0-1.132 1.733c-.161.284-.32.57-.476.859l-.075.137c-.151.278-.307.565-.498.828l-.296.362c-.151.182-.302.364-.447.55-.338.434-.675.87-1.007 1.308-.327.432-.654.863-.979 1.296-.122.163-.242.327-.363.492-.112.154-.225.307-.339.46-.235.281-.48.555-.723.83-.198.222-.396.444-.59.671l-.425.502c-.303.359-.606.717-.918 1.069-1.022 1.151-1.955 2.178-3.027 3.08-.36.248-.77.477-1.287.72-.258.1-.527.193-.797.273l-.172.05c-.328.098-.667.199-1.007.267a4.411 4.411 0 0 1-.682-.008 5.27 5.27 0 0 1-.766-.21 2.52 2.52 0 0 1-.167-.091c-.176-.257-.324-.516-.467-.765a26.948 26.948 0 0 0-.22-.38c-.158-.268-.355-.519-.546-.761l-.048-.061a2.983 2.983 0 0 0-.533-.537 4.765 4.765 0 0 0-.415-.308 2.152 2.152 0 0 0-.473-.223c-.66-.276-1.4-.319-2.113-.361a12.834 12.834 0 0 0-.705-.018c-.294 0-.589.008-.883.015l-.078.002a31.91 31.91 0 0 0-3.716.287 3.228 3.228 0 0 0-1.825.901c-.148.149-.289.308-.425.463l-.113.128-.078.088c-.296.334-.602.68-.95.976-.32.228-.614.408-.897.548a3.551 3.551 0 0 1-.447.118 4.668 4.668 0 0 1-.635-.004 4.832 4.832 0 0 1-.695-.194 2.638 2.638 0 0 1-.22-.123 7.82 7.82 0 0 1-.728-.77 21.519 21.519 0 0 1-.96-1.506l-.201-.336a17.527 17.527 0 0 1-.996-1.898 20.28 20.28 0 0 1-.53-1.485 33.796 33.796 0 0 0-.523-1.564 84.418 84.418 0 0 0-1.04-2.66l-.219-.54c-.2-.497-.452-1.077-.806-1.608a19.049 19.049 0 0 0-1.095-1.468c-.341-.415-.715-.844-1.144-1.31-.339-.37-.797-.839-1.34-1.185a3.014 3.014 0 0 0-.963-.403c-.176-.04-.36-.06-.564-.06-.158 0-.33.013-.526.037a9.71 9.71 0 0 0-1.385.285 38.75 38.75 0 0 0-.802.236l-.033-.225c-.106-.669-.21-1.337-.307-2.008-.245-2.113-.388-4.21-.524-6.353a215.316 215.316 0 0 1-.188-3.432c-.05-1.044-.028-2.106-.005-3.133v-.047c.026-1.128.085-2.263.175-3.375.068-.85.17-1.71.27-2.544l.087-.737c.128-1.1.202-2.219.264-3.264.066-1.105.042-2.236.021-3.233-.022-1.08-.032-2.363.063-3.685.106-1.447.257-2.924.45-4.39.064-.42.147-.818.256-1.215.398-.298.747-.567 1.081-.83a37.813 37.813 0 0 0 1.506-1.28l.054-.047c.453-.4.888-.859 1.272-1.265l.092-.097c.274-.288.54-.58.809-.873l.402-.437c.565-.611 1.126-1.223 1.688-1.836l.289-.315c1.128-1.23 2.293-2.501 3.468-3.752a93.92 93.92 0 0 1 1.995-2.041c.333-.335.657-.66.979-.988.58-.59 1.163-1.177 1.749-1.761a23.228 23.228 0 0 1 1.973-1.739c.696-.515 1.31-.892 1.928-1.186a4.905 4.905 0 0 1 1.168-.295 28.118 28.118 0 0 1 3.9-.163c.684.018 1.37.05 1.952.078.206.01.412.017.617.025l.302.013c.048.002.096.002.145.002M72.651.173c-.103 0-.2.013-.289.039-.309.09-.59.23-.875.376a16.71 16.71 0 0 1-.935.453c-.93.366-1.932.636-2.798.862-.56.144-1.167.296-1.807.433a24.75 24.75 0 0 1-1.432.246l-.057.008-.32.038c-.421.052-.9.11-1.37.141l-.324.022-.17.012a19.83 19.83 0 0 1-1.46.073h-.048l-.09-.002a54.783 54.783 0 0 1-2.043-.03c-.776-.03-1.54-.072-2.195-.11a82.64 82.64 0 0 1-3.911-.336l-.418-.047c-.46-.053-.982-.113-1.495-.136a38.008 38.008 0 0 0-2.066-.039c-1.091.013-2.525.037-3.942.105-1.034.05-2.046.212-3.009.481-.702.195-1.4.397-2.098.602-.45.132-.9.282-1.336.428l-.46.152c-.21.069-.416.148-.621.228l-.32.122-.133.049c-.267.098-.549.204-.816.322-.604.268-1.253.559-1.901.878-.587.29-1.172.607-1.688.885l-.163.089a31.7 31.7 0 0 0-3.03 1.867l-.145.101c-.538.373-1.086.753-1.608 1.15-.539.411-1.13.88-1.81 1.432-.656.533-1.285 1.125-1.839 1.647l-.084.079c-.276.259-.553.518-.832.771a37.913 37.913 0 0 1-2.657 2.233l-.3.234c-1.01.75-2.022 1.463-2.966 2.122-.34.237-.709.476-1.005.668-.158.102-.315.204-.472.308-.163.107-.332.207-.5.305l-.23.137c-.4.242-.837.497-1.306.718-.221.089-.449.17-.675.25l-.205.074c-.457.162-.852.27-1.243.338-.108.009-.21.017-.313.017-.055 0-.11-.003-.165-.008a.901.901 0 0 0-.39.047c-.43.158-.693.5-.684.892.006.235.067.423.168.667.094.226.21.468.353.741.243.455.551.856.849 1.221a8.05 8.05 0 0 0 2.069 1.781c.219.134.467.234.686.321l.147.061c.35.145.725.224 1.077.288.312.055.624.085.888.107-.453.41-.924.787-1.325 1.102-.903.637-1.838 1.296-2.863 1.815-.374.19-.766.368-1.112.525-.186.085-.372.17-.558.257-.27.127-.546.251-.822.374l-.313.14c-.794.309-1.717.663-2.62.974-.067.023-.135.044-.204.065l-.055.017c-.23.073-.465.148-.669.257a1.505 1.505 0 0 0-.537.452.728.728 0 0 0-.157.294l-.013.084-.008.046c-.029.165-.059.334-.005.494.188.564.48 1.11.712 1.523.22.39.485.762.719 1.091.347.49.667.906.984 1.283.174.208.388.387.595.56l.15.125c.227.195.48.38.704.541.343.25.736.424 1.075.561-.285.275-.59.538-.886.793l-.41.357c-.556.482-1.122.975-1.704 1.431-.524.4-1.086.821-1.678 1.182l-.77.47-.3.182a505.43 505.43 0 0 1-2.907 1.757.787.787 0 0 0-.263 1.1c-.046.039-.092.09-.133.141a1.972 1.972 0 0 0-.37.621 1.74 1.74 0 0 0-.096.557c-.012.415.218.857.633 1.213.194.167.42.29.64.41.13.07.277.15.412.239.139.115.274.235.41.354l.049.044c.205.18.408.36.619.528.286.232.59.466.93.714.42.31.875.55 1.389.736a6.482 6.482 0 0 0 2.137.377c.102 0 .203-.002.305-.007-.098.161-.192.332-.285.502a15.16 15.16 0 0 1-1.113 1.775c-.763.921-1.673 1.703-2.696 2.558-.459.382-.935.753-1.396 1.111l-.069.054-.515.385-.253.188c-.118.072-.238.16-.357.26a1.586 1.586 0 0 0-.33.371c-.158.221-.207.508-.137.809.076.331.282.617.55.764.323.177.662.202.98.202.083 0 .168-.002.253-.004h.041a14.06 14.06 0 0 1 .906.01c.6.024 1.203.093 1.736.153.327.036.595.057.843.064l.112.001c.262 0 .527-.029.76-.054l.1-.01a29.51 29.51 0 0 0 2.088-.313c.58-.107 1.132-.31 1.784-.582a24.052 24.052 0 0 0 1.882-.874c.59-.306 1.165-.61 1.705-.977.243-.163.485-.332.73-.505-.065.42-.114.845-.163 1.272l-.012.1-.1.874-.102.889c-.06.531-.11 1.064-.159 1.597l-.014.145c-.035.383-.05.774-.065 1.153l-.021.477a26.838 26.838 0 0 0-.018 1.555c.004.49.007.995-.015 1.492-.008.158-.013.317-.02.475-.013.371-.027.755-.059 1.13-.015.183-.03.366-.043.55-.028.37-.057.753-.103 1.127l-.179 1.421-.046.306c-.3 2.002-.612 4.072-.708 6.128l-.004.084a78.675 78.675 0 0 0-.108 3.442c-.003.93.042 1.878.085 2.794l.017.367c.067 1.481.163 3.43.3 5.379.063.874.14 1.812.277 2.748.088.588.173 1.177.256 1.766a.796.796 0 0 0-.154.192.926.926 0 0 0-.095.717.975.975 0 0 0 .446.564c.115.901.24 1.82.372 2.73.076.526.16 1.026.25 1.488.03.148.058.298.085.447.064.345.13.701.212 1.046.281 1.172.53 2.153.828 3.136l.289.96c.214.716.435 1.456.666 2.18.298.936.631 1.917 1.081 3.18.423 1.193.888 2.21 1.42 3.11.311.523.63 1.037.978 1.571.234.36.488.712.734 1.053l.175.244c.247.345.51.688.766 1.019l.255.333c.311.405.677.872 1.09 1.29.497.501.91.905 1.303 1.27.37.345.768.668 1.143.965.571.454 1.084.84 1.566 1.18.363.255.76.5 1.284.795l.451.254c.782.439 1.59.892 2.403 1.309a44.073 44.073 0 0 0 3.257 1.504c.443.183.878.359 1.337.485.324.089.66.155.984.218l.218.043c.414.082.83.152 1.244.222l.307.052c1.034.173 2.137.288 3.473.36l.209.012c.413.023.84.047 1.26.047a11.642 11.642 0 0 0 .93-.04l.107-.011c.501-.056 1.02-.113 1.512-.26l.87-.256c.187-.055.373-.125.554-.194l.241-.089c.428-.153.852-.34 1.262-.52.146-.064.291-.128.437-.19.375-.162.746-.336 1.116-.51l.421-.196.102-.046c.42-.195.852-.395 1.266-.617.534-.287 1.064-.58 1.593-.875.352-.197.702-.41 1.041-.615l.34-.206c.355-.214.707-.45 1.047-.678l.223-.148.295-.197c.355-.237.71-.474 1.062-.716.446-.306.906-.653 1.45-1.093l.184-.147c.134-.104.268-.21.393-.323l.382-.345.382-.346c.865-.782 1.572-1.503 2.162-2.206.72-.853 1.439-1.79 2.139-2.782a39.9 39.9 0 0 0 1.786-2.728 93.688 93.688 0 0 0 1.62-2.858c.357-.656.708-1.34 1.043-2.031.4-.827.753-1.66 1.016-2.292.395-.91.823-1.823 1.237-2.706.408-.87.83-1.771 1.22-2.668.128-.294.26-.587.39-.88.194-.43.387-.862.57-1.298a.35.35 0 0 0 .069.02c.124.024.251.037.379.037.335 0 .674-.088 1.036-.269.166-.082.33-.168.496-.254l.05-.026.323-.17c1.122-.573 2.112-1.328 3.069-2.057.576-.44 1.116-.898 1.665-1.368.345-.295.696-.58 1.049-.868l.363-.295a18.686 18.686 0 0 0 1.396-1.25c.374-.373.716-.803 1.017-1.183l.179-.222c.446-.559.936-1.186 1.496-1.92.31-.405.59-.848.862-1.276l.24-.375c.415-.647.81-1.307 1.248-2.04.252-.424.505-.847.763-1.266.613-.998 1.269-1.955 1.942-2.93a72.472 72.472 0 0 1 1.96-2.708 18.048 18.048 0 0 1 2.79-2.805c.38-.279.888-.639 1.431-.958.184-.108.366-.22.547-.33l.168-.105c.64-.391 1.054-.76 1.301-1.16.52-.838.547-1.867.531-2.85-.012-.635-.025-1.271-.045-1.906l-.02-.78c-.027-1.015-.055-2.065-.14-3.098l-.023-.281a38.634 38.634 0 0 0-.202-1.987l-.016-.135c-.031-.28-.063-.552-.112-.816l-.105-.573-.106-.574c-.239-1.296-.557-2.554-.837-3.614a75.008 75.008 0 0 0-1.175-4.065 88.646 88.646 0 0 0-1.244-3.528 101.2 101.2 0 0 1-.739-2.03 64.43 64.43 0 0 1-.609-1.856l-.011-.037c-.226-.723-.377-1.462-.51-2.113-.082-.61-.147-1.17-.116-1.742.019-.079.04-.157.065-.234a2.04 2.04 0 0 1 .066-.11c.237-.242.514-.451.782-.654l.053-.04.48-.35.176-.129c.281-.203.577-.393.863-.577l.032-.02a6.32 6.32 0 0 1 .47-.264l.045-.023.157-.083.18-.097c.236-.129.471-.256.708-.38.586-.303 1.174-.6 1.765-.892l.241-.118c.487-.238.99-.483 1.455-.794.295-.196.597-.425.814-.776.13-.212.164-.437.186-.65a1.455 1.455 0 0 0-.027-.391l-.015-.098-.026-.063-.018-.044a1.07 1.07 0 0 0-.189-.376 2.962 2.962 0 0 0-.318-.386 6.967 6.967 0 0 0-.388-.365 32.456 32.456 0 0 0-1.665-1.342c-.526-.4-1.058-.796-1.59-1.19l-.142-.107c-.403-.3-.805-.599-1.205-.902a910.307 910.307 0 0 1-2.095-1.587 60.971 60.971 0 0 1-3.909-3.588 31.787 31.787 0 0 1-1.713-1.913c-.29-.346-.615-.67-.929-.983l-.07-.07c.18.014.357.018.534.02l1.05.016 1.051.017 1.746.03c.232.004.465.01.698.016l.47.01c.088.002.177.006.267.01.146.005.29.01.432.01.237 0 .569-.057.776-.182.128-.077.245-.168.364-.263l.063-.049c.22-.174.319-.519.319-.765 0-.334-.153-.564-.317-.763-.23-.278-.54-.49-.838-.693-.1-.067-.19-.13-.277-.192-.247-.178-.498-.35-.75-.523a37.427 37.427 0 0 0-1.649-1.083c-.591-.362-1.185-.722-1.778-1.081l-.28-.17c-.434-.264-.88-.536-1.33-.783l-.91-.496-.91-.496a7.649 7.649 0 0 0-.558-.269 17.258 17.258 0 0 1-.288-.132l-.48-.226-.473-.224a16.14 16.14 0 0 0-1.017-.427l-.238-.093a20.047 20.047 0 0 0-1.26-.449 34.426 34.426 0 0 0-1.657-.477l-.538-.145c-.455-.123-.91-.244-1.366-.361-1.901-.491-4.116-1.044-6.333-1.39a97.787 97.787 0 0 0-2.045-.295c-.34-.047-.681-.094-1.022-.143a22.484 22.484 0 0 1-1.637-.276c.259-.152.495-.34.672-.486.76-.624 1.429-1.333 1.982-1.944a14.965 14.965 0 0 0 1.922-2.672 9.473 9.473 0 0 0 .731-1.602c.085-.245.141-.537.154-.8.02-.394-.033-.7-.16-.934a1.19 1.19 0 0 0-.211-.308.923.923 0 0 0-.403-.233 1.398 1.398 0 0 0-.523-.105" fill="#161616" mask="url(#b)"/></g><path d="M224.307 116.805l.008-.005.004-.016a.497.497 0 0 0-.012.02M227.277 112.92a5.07 5.07 0 0 0-.805.842 26.044 26.044 0 0 1 .798-.756l.24-.281-.233.195M226.468 115.43zM282.285 113.949c-.337.058-.66.133-.97.283-.241.117-.469.253-.695.396-.589.37-1.157.758-1.699 1.198-.658.532-1.17 1.185-1.61 1.902-.28.459-.601.983-.564 1.542l.043.312c.056.198.156.371.303.518.183.225.42.35.69.448.408.147.88.154 1.313.166.774.022 1.533-.083 2.295-.2.65-.101 1.302-.21 1.953-.311 1.562-.179 3.14-.306 4.712-.28.645.01 1.18-.542 1.18-1.173 0-.65-.536-1.164-1.18-1.174-1.233-.022-2.464.069-3.692.172-1.336.113-2.656.352-3.979.56-.226.024-.451.041-.677.051l.015-.022a7.15 7.15 0 0 1 1.024-.975c.285-.208.578-.401.878-.59.239-.15.476-.301.726-.433.185-.055.37-.094.561-.126.289-.05.564-.298.706-.54a1.17 1.17 0 0 0-.423-1.606c-.19-.11-.378-.15-.574-.15-.11 0-.22.012-.336.032M256.919 113.158c-.648.031-1.294.111-1.938.185-.39.044-.778.108-1.167.165-.318.046-.634.094-.95.15l-.781.139c-.146.026-.297.044-.44.079-.466.112-.933.219-1.395.34a.485.485 0 0 0-.338.59.49.49 0 0 0 .595.337c.302-.08.606-.152.91-.222.182-.042.365-.093.548-.124l1.482-.251c.24-.03.48-.064.72-.095.23-.03.462-.07.695-.089.33-.029.658-.059.988-.087.258-.023.519-.029.777-.042.221-.01.446-.009.666.003.271.014.542.022.813.042.284.023.57.036.852.067l.814.089c.371.053.741.108 1.11.175.392.071.789.14 1.174.24.214.055.433.103.644.167l.651.199c.379.116.749.255 1.118.394.357.164.708.333 1.058.509.352.178.71.363 1.036.585.357.241.7.5 1.05.754a5.17 5.17 0 0 0 1.186.622c.212.083.476-.054.584-.237.148-.251.05-.549-.185-.703a5.009 5.009 0 0 1-.151-.102c-.442-.352-.876-.711-1.318-1.061a7.434 7.434 0 0 0-.831-.574 11.819 11.819 0 0 0-.74-.402 21.415 21.415 0 0 0-.898-.425c-.317-.14-.64-.257-.967-.374-.28-.1-.571-.177-.857-.257-.324-.091-.647-.171-.975-.248-.28-.067-.564-.113-.847-.164-.32-.06-.645-.11-.968-.148-.596-.073-1.192-.149-1.792-.18-.488-.025-.978-.056-1.468-.056-.155 0-.31.003-.465.01M237.783 114.76c-.6.073-1.203.141-1.799.25-.574.105-1.148.21-1.72.327a36.93 36.93 0 0 0-1.683.397c-.53.137-1.049.307-1.565.486a16.65 16.65 0 0 0-1.551.628c-.262.121-.526.238-.785.366-.254.125-.514.242-.763.376-.246.133-.497.257-.736.402-.249.15-.5.297-.743.455-.346.225-.692.453-1.009.717l-.024.02a21.755 21.755 0 0 1-.117 1.144c.078-.031.157-.06.237-.09.164-.058.332-.11.501-.158.117-.097.235-.193.355-.287.69-.486 1.407-.943 2.162-1.324.442-.224.886-.441 1.334-.655.357-.17.721-.325 1.087-.48.263-.094.526-.192.787-.287.25-.091.508-.164.763-.244.483-.152.977-.275 1.469-.392a43.285 43.285 0 0 1 3.032-.598c.458-.057.914-.116 1.372-.158a21.814 21.814 0 0 1 3.61-.003c.264.02.483-.232.483-.479a.48.48 0 0 0-.141-.34.513.513 0 0 0-.341-.14 24.878 24.878 0 0 0-1.847-.072c-.791 0-1.58.042-2.368.138" fill="#161616"/><path d="M228.262 118.487l.018.023-.018-.023m-.017-.004c.006.009.01.02.012.03l-.012-.03m4.9-2.606h.003-.004v.001l-.044.019c.014-.008.03-.014.044-.02m-.194.609a1.496 1.496 0 0 0-.042-.174 1.113 1.113 0 0 0-.065-.166c.077-.077.159-.152.244-.222.024-.017.05-.033.076-.05.054 0 .107.003.161.008a.928.928 0 0 1 .095.023l-.054.072c-.106.14-.203.29-.303.436a2.364 2.364 0 0 0-.098.155 3.405 3.405 0 0 0-.014-.082m.267-.625l-.017.002.017-.002m7.89-.37l.005.035c-.003-.012-.004-.024-.005-.035m-1.322-1.685a.99.99 0 0 0-.406.098c-.05.02-.1.047-.147.077-.049-.024-.1-.042-.15-.063a1.168 1.168 0 0 0-.26-.032 1.282 1.282 0 0 0-.266.029 2.292 2.292 0 0 0-.489.163 1.547 1.547 0 0 0-.3.172 1.094 1.094 0 0 0-.573-.143c-.183.003-.349.074-.51.148-.057.025-.111.057-.163.093a.986.986 0 0 0-.288-.16c-.317-.12-.673-.013-.948.162a2.955 2.955 0 0 0-.37.297 2.15 2.15 0 0 0-.21.225.534.534 0 0 0-.058.017c-.083.023-.164.065-.241.103-.123.059-.24.14-.346.225-.212-.168-.493-.228-.763-.244a1 1 0 0 0-.65.16c-.066.043-.126.095-.188.144a3.04 3.04 0 0 0-.27.245 1.052 1.052 0 0 0-.35.005c-.312.045-.585.23-.814.438a1.133 1.133 0 0 0-.316-.064 1.292 1.292 0 0 0-.479.077 2.48 2.48 0 0 0-.858.523c-.128.036-.249.09-.368.151-.247.127-.462.322-.653.52-.115.12-.223.25-.323.384a2.195 2.195 0 0 0-1.05.298c-.13.075-.251.17-.37.264a2.895 2.895 0 0 0-.466.464.995.995 0 0 0-.135.078c-.27.183-.452.462-.62.736l-.014.162c-.026.257-.053.514-.086.77l.238-.09c.362-.129.737-.225 1.114-.311l.156-.1.259-.16a1.21 1.21 0 0 0 .054-.44 1.703 1.703 0 0 0-.035-.236.39.39 0 0 0-.022-.07c.051-.05.107-.1.164-.147a2.58 2.58 0 0 1 .255-.165l-.004.054a.584.584 0 0 0 .075.27.593.593 0 0 0 .187.194c.18.103.393.073.58.014.142-.046.29-.123.416-.202a.917.917 0 0 0 .301-.282l.019-.03.011-.023c.08.007.16.001.239-.02a2 2 0 0 0 .41-.163 1.98 1.98 0 0 0 .356-.263c.025-.023.05-.045.073-.07.03.045.065.09.103.133.11.123.288.165.445.165a.93.93 0 0 0 .552-.212.543.543 0 0 0 .14.016c.08-.002.155-.014.232-.026.082-.012.158-.048.233-.08.27-.114.497-.33.704-.533.107-.107.197-.233.28-.357l.018-.027a.487.487 0 0 0 .437.295c.28.015.562-.153.746-.352.084-.091.15-.194.203-.305a.389.389 0 0 0 .085.06c.067.03.134.062.206.078a.995.995 0 0 0 .882-.243c.033-.03.063-.06.091-.091.269.226.657.125.94-.018.04-.02.083-.05.124-.082a.56.56 0 0 0 .445.153.997.997 0 0 0 .232-.05 1.987 1.987 0 0 0 .618-.342c.083-.066.155-.14.22-.219a.63.63 0 0 0 .08.188c.1.165.303.284.5.277a.98.98 0 0 0 .705-.31c.035.026.073.052.106.074.227.144.531.043.716-.12.095-.085.176-.188.24-.299.104.122.258.157.411.166.089.006.178-.032.256-.065a.596.596 0 0 0 .137-.08l.008-.007a.358.358 0 0 0 .126.12.814.814 0 0 0 .128.056c.047.009.096.014.143.018a.347.347 0 0 0 .177-.038.305.305 0 0 0 .36.054c.246-.138.286-.47.32-.72l.006-.064c.02-.034.04-.067.063-.099.044-.05.088-.095.14-.138a.325.325 0 0 1 .032-.021c.124-.08.175-.237.097-.367-.071-.122-.245-.177-.369-.096l-.05.032a.678.678 0 0 0-.037-.049c-.045-.056-.124-.083-.192-.096a.771.771 0 0 0-.034-.068.618.618 0 0 0-.548-.354.75.75 0 0 0-.22.02c-.11.03-.22.07-.323.123a1.004 1.004 0 0 0-.602-.008.67.67 0 0 0-.314-.3.373.373 0 0 0-.165-.056.728.728 0 0 0-.166-.02l-.015.002M270.136 118.366a.259.259 0 0 0-.027.011c.008-.005.017-.008.027-.011zm-.04-.008c-.004 0-.01 0-.015.002l.015-.002zm.004-.001l.02-.003-.02.004v-.001zm-18.64-3.613l-.012.01.012-.01zm.044-.205c.102-.119.21-.23.33-.329l.09-.062a2.078 2.078 0 0 1-.19.327c-.075.092-.158.173-.25.25-.049.034-.097.065-.149.094a2.03 2.03 0 0 1 .17-.28zm.998-.57zm-.06-.011l.03.001.004.001c-.02.089-.048.175-.08.26.025-.087.042-.174.047-.262zm.02-.018a.162.162 0 0 1 .017.012l-.018-.012zm10.746-.012l.002.013v.001c0-.005 0-.009-.002-.014zm-8.494-.11a.348.348 0 0 0-.002-.078c.052-.035.105-.07.159-.104a3.32 3.32 0 0 0-.162.23l.005-.048zm3.256-1.517a1.548 1.548 0 0 0-.29.058 1.974 1.974 0 0 0-.407.194.792.792 0 0 0-.307-.153c-.18-.05-.376-.016-.554.026a1.848 1.848 0 0 0-.453.184c-.059.03-.115.066-.17.104-.196-.11-.451-.088-.672-.055-.326.05-.624.245-.893.422a3.525 3.525 0 0 0-.073.05.902.902 0 0 0-.454.07c-.26.103-.492.275-.696.466-.135-.236-.43-.31-.687-.285a.997.997 0 0 0-.066.008c-.04-.043-.099-.08-.145-.113a.342.342 0 0 0-.172-.055c-.306-.003-.575.18-.807.359a2.595 2.595 0 0 0-.56.626c-.079.121-.14.257-.2.388-.07.152-.1.308-.107.473-.01.264.2.497.422.613.12.063.26.074.392.077.09 0 .184-.008.277-.022a2.478 2.478 0 0 0 .98.081c.309-.042.596-.166.871-.305a1.7 1.7 0 0 0 .545.005c.284-.04.551-.125.807-.25l.093-.004c.152-.012.303-.034.45-.063.096.042.198.073.303.095.386.075.765.003 1.138-.097.196-.052.389-.116.576-.193.127.03.26.043.386.053.15.012.302-.004.45-.019.186-.02.37-.053.55-.102.129-.036.254-.084.376-.139l.193.022c.054.006.11.008.166.008.056.054.12.101.192.148.13.085.304.127.456.16.174.037.353.059.53.07.147.009.295-.004.44-.023.12.085.254.147.392.198.172.063.349.082.53.103.24.026.488.013.73-.028.03.02.06.04.093.06.145.086.317.128.48.16.198.037.4.054.601.052.067.18.206.345.367.445.264.161.564.234.867.278.289.044.579.063.869.047.061.094.134.18.21.263.21.23.484.357.769.472.234.094.485.133.735.162.098.183.282.317.45.432.117.081.243.145.371.204.187.068.371.148.54.249.24.142.46.305.677.474.254.197.492.404.693.653l.184.22a.545.545 0 0 0 .073-.06.557.557 0 0 0 .164-.275c.044-.179.01-.416-.143-.54a.958.958 0 0 0-.355-.196c-.062-.015-.126-.025-.187-.041a1.016 1.016 0 0 1-.056-.016c.085-.054.174-.103.266-.146l.027-.008a.866.866 0 0 0 .022-.003c.194-.034.33-.248.33-.43 0-.254-.205-.433-.45-.446-.075-.005-.16.016-.233.033-.007.001-.014.004-.02.004-.073 0-.144-.01-.215-.019l.03.004a2.198 2.198 0 0 1-.479-.133l-.263-.12a.4.4 0 0 0 .049-.04.544.544 0 0 0 .128-.23.457.457 0 0 0-.214-.522.768.768 0 0 0-.343-.097 1.794 1.794 0 0 0-.235.01 8.153 8.153 0 0 0-.222.029.776.776 0 0 0-.168.046l-.115-.014-.22-.031a2.951 2.951 0 0 1-.588-.16l.06-.03a.665.665 0 0 0 .221-.199.502.502 0 0 0 .08-.46c-.056-.188-.215-.298-.396-.351-.164-.05-.356 0-.516.048-.134.04-.263.09-.39.149a.677.677 0 0 0-.213.16 3.682 3.682 0 0 1-.78-.05c.01-.001.018-.005.027-.008.142-.054.286-.11.42-.182.111-.06.208-.15.29-.243a.625.625 0 0 0 .166-.397 2.684 2.684 0 0 0-.023-.166.596.596 0 0 0-.142-.243.775.775 0 0 0-.461-.195.91.91 0 0 0-.21.006c-.309.04-.62.136-.895.287l.009-.021c.037-.1.047-.201.06-.305.009-.08-.017-.163-.03-.24a1.717 1.717 0 0 0-.018-.043.533.533 0 0 0-.138-.237.775.775 0 0 0-.414-.253 1.197 1.197 0 0 0-.483 0 .634.634 0 0 0-.173-.34c-.13-.13-.267-.239-.456-.272a1.31 1.31 0 0 0-.61.046 2.022 2.022 0 0 0-.157.054l-.067-.086a.577.577 0 0 0-.254-.147 2.045 2.045 0 0 0-.187-.075l-.063-.009a.508.508 0 0 0-.219-.013c-.1.007-.19.025-.286.054-.092.028-.18.073-.27.112-.177.079-.348.172-.515.27 0-.002-.003-.003-.004-.004a.588.588 0 0 0-.256-.148c-.084-.029-.172-.033-.26-.045a.979.979 0 0 0-.266.029 1.519 1.519 0 0 0-.279.1l-.002.002a.897.897 0 0 0-.147-.223.221.221 0 0 0-.071-.068.561.561 0 0 0-.25-.146.795.795 0 0 0-.302-.054c-.051 0-.102.004-.151.01zM260.072 121.352c-.94.07-1.876.174-2.805.328-.894.15-1.783.335-2.642.629-.826.282-1.623.66-2.392 1.067-.431.227-.56.811-.322 1.216.255.432.793.547 1.224.32.436-.23.877-.44 1.327-.637.606-.247 1.224-.44 1.864-.59a21.275 21.275 0 0 1 1.916-.348 34.408 34.408 0 0 1 2.481-.21 14.523 14.523 0 0 1 2.415.063c.783.12 1.544.334 2.304.551.234.068.47.133.705.192.314.077.647.165.971.167a.788.788 0 0 0 .755-.572.788.788 0 0 0-.36-.88c-.11-.068-.231-.116-.35-.168a15.002 15.002 0 0 0-.551-.223c-.27-.104-.544-.203-.82-.296a24.1 24.1 0 0 0-.969-.295c-.71-.202-1.448-.307-2.184-.362a11.1 11.1 0 0 0-.844-.03c-.575 0-1.15.037-1.723.078" fill="#161616"/><path d="M259.703 125.509l-.03.037.03-.037m.675-.615c.112.058.219.123.322.196.087.072.17.146.246.228l.042.072c.02.06.036.121.05.183.005.087.005.174-.001.261-.021.102-.048.2-.082.3-.068.143-.15.278-.241.408-.068.077-.14.148-.216.216-.014.01-.028.019-.044.027a2.015 2.015 0 0 1-.249-.003 2.77 2.77 0 0 1-.331-.085 1.761 1.761 0 0 1-.194-.111 1.638 1.638 0 0 1-.078-.08 1.661 1.661 0 0 1-.067-.112 1.625 1.625 0 0 1-.049-.176 1.513 1.513 0 0 1 .002-.223c.018-.08.04-.156.068-.233.05-.1.108-.194.173-.286.149-.18.315-.34.496-.487.05-.034.101-.066.153-.095m-.74-2.27c-.453.01-.9.153-1.332.277-.236.067-.468.14-.701.215-.355.115-.583.47-.48.84.02.069.05.133.089.191-.1.166-.17.35-.241.53-.153.39-.27.8-.345 1.213a3.724 3.724 0 0 0-.007 1.259 2.3 2.3 0 0 0 .19.56c.09.206.199.395.332.575.508.69 1.31 1.137 2.137 1.336.21.052.432.078.649.089.213.01.425-.025.636-.052.403-.054.792-.234 1.144-.425.15-.083.293-.183.433-.282.196-.14.364-.29.502-.487.157-.227.259-.48.33-.743.178-.254.315-.531.436-.819.176-.414.246-.878.16-1.321-.08-.41-.273-.802-.495-1.155-.11-.176-.24-.34-.368-.504a5.614 5.614 0 0 0-.43-.501 3.05 3.05 0 0 0-.494-.398 2.495 2.495 0 0 0-.563-.25c-.191-.065-.402-.081-.603-.097a2.447 2.447 0 0 0-.25-.006 4.033 4.033 0 0 0-.73-.046" fill="#161616"/><path d="M259.303 129.086c-.405.06-.805.144-1.202.244-.214.054-.427.114-.639.177-.184.055-.362.126-.543.193a.515.515 0 0 0-.287.22.477.477 0 0 0-.048.37c.064.234.346.425.591.334.181-.066.359-.137.545-.191.21-.064.424-.12.638-.175.413-.105.832-.184 1.254-.243 1.115-.141 2.247-.19 3.367-.077a4.904 4.904 0 0 1-.136-.018c.206.029.414.052.619.087.291.052.582.103.873.158a.534.534 0 0 0 .39-.05.507.507 0 0 0 .234-.302c.07-.254-.084-.563-.355-.622a14.308 14.308 0 0 0-1.072-.197l-.514-.068a8.567 8.567 0 0 0-1.098-.048c-.875 0-1.752.08-2.617.208M241.071 124.331l.056.024-.056-.024zm-5.582-1.465c-.388 0-.778.036-1.165.061-.223.014-.447.028-.668.052-.593.066-1.174.15-1.754.284a18.7 18.7 0 0 0-1.468.418 19.42 19.42 0 0 0-1.348.495c-.354.142-.707.284-1.055.442-.65.294-1.26.658-1.858 1.044-.134.086-.263.18-.393.272-.193.135-.338.288-.403.52a.873.873 0 0 0 .088.67c.226.384.807.586 1.198.313.4-.28.81-.54 1.232-.786.377-.219.77-.404 1.17-.58.588-.226 1.175-.46 1.781-.634.332-.096.659-.19.993-.267.309-.07.616-.13.927-.187.43-.042.858-.069 1.29-.08l.766-.018c.502-.01.997.009 1.494.06l.51.079c.384.058.75.167 1.122.277.357.106.703.232 1.046.37.455.21.91.418 1.374.607.394.16.796.287 1.205.407a.982.982 0 0 0 1.098-.445c.274-.464.102-1.046-.35-1.324-.332-.205-.693-.354-1.054-.503-.514-.223-1.011-.481-1.529-.697a10.43 10.43 0 0 0-.685-.268c-.28-.096-.562-.177-.847-.257-.425-.12-.86-.17-1.297-.223a11.677 11.677 0 0 0-1.402-.102h-.018z" fill="#161616"/><path d="M236.36200000000002 127.062l.064.027-.064-.026m-.459-.279a.768.768 0 0 0 .4.257c.03.016.058.033.087.051.04.034.077.07.113.108.024.037.046.074.068.113l.007.023c-.001.17-.015.34-.034.509l-.016.08c-.034.021-.07.04-.106.058a3.232 3.232 0 0 1-.512.127 3.02 3.02 0 0 1-.405.004 2.554 2.554 0 0 1-.344-.09 1.889 1.889 0 0 1-.191-.112l-.005-.004a2.154 2.154 0 0 1-.03-.124 2.25 2.25 0 0 1 .002-.223c.022-.114.052-.224.09-.335.028-.054.057-.106.09-.158.04-.043.08-.084.124-.124.058-.039.118-.074.181-.106.056-.019.112-.035.17-.049.104-.007.208-.009.311-.005m-1.641-2.758c-.11.016-.22.032-.331.05-.112.017-.219.077-.322.122-.2.088-.382.253-.538.401a2.51 2.51 0 0 0-.195.21 3.38 3.38 0 0 0-.285.21c-.375.313-.667.7-.843 1.155a3.597 3.597 0 0 0-.5 1.015 2.98 2.98 0 0 0-.114.755c-.014.257.043.53.109.779.141.537.488.978.888 1.354.246.23.522.42.82.571.184.138.37.252.587.344.149.063.29.118.445.163.145.042.308.056.457.076.55.072 1.1-.006 1.639-.13a4.337 4.337 0 0 0 1.323-.555c.506-.316.908-.74 1.238-1.23.141-.21.246-.444.34-.677.08-.206.14-.41.177-.628a3.02 3.02 0 0 0 .151-.73l-.004-.118-.039-.294c-.037-.13-.09-.25-.145-.373-.046-.104-.13-.197-.2-.286a6.57 6.57 0 0 0-.187-.232 4.256 4.256 0 0 0-.203-.307 2.628 2.628 0 0 0-.473-.523 3.133 3.133 0 0 0-.882-.5l-.034-.019a3.715 3.715 0 0 0-.715-.28 4.727 4.727 0 0 0-.942-.165 4.35 4.35 0 0 0-.694-.003.525.525 0 0 0-.126-.103.477.477 0 0 0-.25-.066c-.049 0-.099.006-.152.014" fill="#161616"/><path d="M239.315 129.99c-1.245.15-2.498.23-3.743.374-.682.08-1.358.179-2.036.279-.615.09-1.224.2-1.837.31-.33.057-.658.12-.986.19-.26.057-.409.354-.34.598.072.266.34.393.599.338.416-.088.833-.16 1.253-.233.323-.055.646-.121.97-.166.63-.081 1.26-.162 1.889-.248l-.135.019 1.2-.102c.343-.03.69-.04 1.035-.056.223-.012.445-.02.668-.027.097.08.236.144.36.13.174-.019.349-.024.524-.044.139-.016.276-.033.414-.056l.135-.024c.127-.02.232-.06.35-.112a.627.627 0 0 0 .127-.987.636.636 0 0 0-.405-.186c-.015 0-.028 0-.042.002M242.34 142.696l.083.063a.63.63 0 0 1-.083-.063m1.162-23.16l.013.088-.013-.088m-.029-2.801a.6.6 0 0 0-.418.733c.181.676.344 1.354.444 2.047.12.962.18 1.94.155 2.91-.02.794-.048 1.586-.103 2.378a107.694 107.694 0 0 1-.438 5.102l-.005.04-.172 1.113c-.06.394-.14.784-.204 1.177-.136.827-.271 1.655-.416 2.482-.072.409-.15.818-.224 1.226-.067.36-.133.724-.221 1.079a81.153 81.153 0 0 1-.645 2.43c-.3 1.05-.585 2.105-.73 3.189a1.44 1.44 0 0 0-.012.155c-.008.374.18.684.403.965.5.632 1.314.78 2.081.801.637.017 1.278-.051 1.91-.113.226-.022.418-.075.584-.24a.824.824 0 0 0 .243-.583.823.823 0 0 0-.243-.581.853.853 0 0 0-.585-.241c-.316-.017-.63-.03-.946-.03-.426 0-.852.023-1.276-.014a2.353 2.353 0 0 1-.312-.078c-.01-.005-.02-.01-.03-.017.004-.059.01-.118.018-.177.054-.368.115-.734.193-1.096.087-.408.194-.809.302-1.21.209-.774.41-1.547.595-2.326.19-.79.323-1.594.462-2.395.139-.794.258-1.59.381-2.387.13-.84.27-1.68.39-2.522.124-.864.183-1.73.231-2.602.042-.742.07-1.483.09-2.226.01-.41.025-.819.028-1.228.005-.423.02-.846.008-1.269-.02-.636-.036-1.272-.095-1.907-.037-.423-.073-.847-.123-1.27a20.532 20.532 0 0 0-.226-1.473c-.094-.48-.227-.955-.356-1.426a.606.606 0 0 0-.738-.416M248.75 156.547l.08.102-.08-.102m-5.701-4.358c-.33.02-.66.065-.985.12-.13.022-.257.053-.385.086-.15.04-.292.106-.435.165-.137.056-.245.115-.323.248a.545.545 0 0 0-.056.417.543.543 0 0 0 .25.322c.113.067.292.107.419.055.144-.06.286-.12.434-.164.162-.047.328-.074.495-.098a6.769 6.769 0 0 1 1.564-.02c.232.027.463.054.694.083.252.041.486.126.722.22.454.202.877.465 1.276.76.776.618 1.41 1.376 2.02 2.151.07.09.14.181.212.269.144.174.367.252.57.33a.616.616 0 0 0 .759-.754.614.614 0 0 0-.238-.333.925.925 0 0 1-.065-.067c-.774-1.045-1.668-2.027-2.747-2.764a6.544 6.544 0 0 0-1.708-.83c-.395-.125-.813-.135-1.223-.167-.288-.023-.575-.04-.863-.04a7.11 7.11 0 0 0-.387.01" fill="#161616"/><path d="M243.19 152.26000000000002a66.72 66.72 0 0 0-1.37.048c-.419.018-.77.333-.77.766 0 .404.35.786.77.767.929-.042 1.868-.083 2.793.015.172.024.344.05.51.093.244.065.483.139.719.224.43.192.856.39 1.252.65.382.25.792.462 1.168.723.155.134.292.283.435.43.143.146.291.287.425.44.07.09.14.18.212.27.075.091.164.163.256.238a.709.709 0 0 0 .85.109.704.704 0 0 0 .321-.417c.053-.191.014-.358-.068-.532-.066-.179-.128-.36-.222-.525-.111-.194-.26-.365-.403-.535-.127-.151-.251-.304-.377-.455a3.094 3.094 0 0 0-.545-.503c-.345-.26-.725-.47-1.09-.702-.178-.113-.351-.229-.543-.32-.234-.113-.476-.209-.718-.306a5.306 5.306 0 0 0-.567-.216 7.115 7.115 0 0 0-.55-.14c-.441-.094-.895-.118-1.345-.141a5.425 5.425 0 0 0-.286-.007c-.286 0-.573.018-.857.025M260.001 125.461c.056.01.111.023.166.038.046.025.091.053.136.082l.043.04c.058.087.11.177.157.27a1.5 1.5 0 0 1 .034.114 1.207 1.207 0 0 1-.003.079 2.9 2.9 0 0 1-.22.234 1.42 1.42 0 0 1-.25.103 2.197 2.197 0 0 1-.274-.012 1.536 1.536 0 0 1-.084-.086 2.023 2.023 0 0 1-.133-.228 1.67 1.67 0 0 1-.038-.118c.028-.05.052-.104.074-.16.05-.1.108-.194.172-.285l.034-.033.042-.026a.905.905 0 0 1 .055-.014c.03 0 .06 0 .09.002m-.468-1.646a1.14 1.14 0 0 0-.128.027 1.859 1.859 0 0 0-.356.146c-.159.085-.305.206-.43.336a1.573 1.573 0 0 0-.268.385 2.668 2.668 0 0 0-.104.237c-.043.116-.05.221-.068.349a1.957 1.957 0 0 0-.01.32.782.782 0 0 0 .123.396 1.491 1.491 0 0 0-.006.249c.031.481.224.95.574 1.29.224.217.502.304.802.36.124.022.253.042.378.053.156.015.305-.004.46-.038.099-.02.198-.069.291-.104.135-.052.272-.1.393-.178.19-.12.337-.28.481-.448.08-.095.157-.194.232-.293.107-.144.161-.324.195-.498.021-.116.046-.246.052-.361a1.99 1.99 0 0 0-.044-.481 1.383 1.383 0 0 0-.074-.245 2.77 2.77 0 0 0-.323-.61 1.946 1.946 0 0 0-.378-.405 3.206 3.206 0 0 0-.345-.25c-.309-.186-.728-.273-1.087-.281h-.011c-.104 0-.274.03-.349.044M234.69 127.941l.002.002.028.068a.447.447 0 0 1-.03-.07zm0-.004l.001.005-.002-.004v-.001zm.59-1.045l-.032.014.031-.014zm.08-.018a5 5 0 0 1 .18.044c.161.095.348.12.529.166.006.169.001.339-.01.507l-.02.075a1.223 1.223 0 0 1-.049.08 2.697 2.697 0 0 1-.242.24 1.932 1.932 0 0 1-.196.12c-.032.01-.063.018-.095.026a3.76 3.76 0 0 1-.415-.015 1.709 1.709 0 0 1-.183-.046 1.478 1.478 0 0 1-.084-.046 1.562 1.562 0 0 1-.045-.043 2.4 2.4 0 0 1-.04-.065c-.001-.1.007-.198.019-.297a1.72 1.72 0 0 1 .049-.197c.049-.095.105-.186.167-.273.046-.054.093-.105.144-.153.044-.028.09-.05.137-.072.05-.02.102-.037.154-.051zm-.152-.874a3.727 3.727 0 0 0-.377.112c-.066.022-.167.055-.226.092-.097.06-.185.13-.272.202-.097.082-.179.182-.262.278-.11.13-.216.26-.288.414-.093.198-.145.415-.199.626a1.078 1.078 0 0 0-.023.51c.018.071.04.139.066.209.03.075.059.173.1.237.11.181.239.328.41.455.143.107.287.179.457.242.218.08.477.096.704.12.112.012.217.018.33.007.259-.025.481-.109.713-.227.245-.125.46-.322.656-.515.128-.124.244-.27.332-.426.183-.324.23-.677.262-1.043.014-.16.039-.326.02-.486-.011-.094-.021-.188-.041-.28-.02-.092-.07-.177-.108-.262-.078-.164-.26-.31-.407-.404-.259-.161-.622-.191-.914-.227-.109-.014-.215-.01-.323-.015h-.026a.677.677 0 0 0-.584.38z" fill="#161616"/></g></g></svg>