<svg width="500" height="600" viewBox="0 0 500 600" fill="none" xmlns="http://www.w3.org/2000/svg">
<path fill-rule="evenodd" clip-rule="evenodd" d="M188.006 130.066L186.286 130.134C185.945 130.147 185.6 130.18 185.259 130.202C184.665 130.245 184.075 130.284 183.481 130.325C183.185 130.345 182.89 130.391 182.594 130.429C181.974 130.504 181.35 130.582 180.73 130.66C180.458 130.693 180.186 130.734 179.916 130.783C178.841 130.984 177.766 131.19 176.692 131.391C176.425 131.442 176.162 131.521 175.899 131.585C175.266 131.745 174.633 131.904 173.997 132.059C173.584 132.163 173.172 132.267 172.759 132.369C172.189 132.51 171.623 132.682 171.058 132.845C170.925 132.883 170.812 132.971 170.743 133.091C170.674 133.212 170.656 133.354 170.691 133.488C170.766 133.76 171.061 133.929 171.334 133.852C171.877 133.696 172.415 133.53 172.964 133.394C173.324 133.306 173.688 133.215 174.048 133.128L176.704 132.468C177.211 132.345 177.727 132.267 178.24 132.17C178.983 132.033 179.725 131.899 180.468 131.759C181.4 131.646 182.334 131.539 183.269 131.429C183.607 131.387 183.948 131.384 184.285 131.362L186.061 131.254C186.393 131.234 186.724 131.231 187.052 131.225C187.591 131.209 188.132 131.195 188.672 131.18C189.094 131.166 189.519 131.195 189.942 131.202C190.328 131.212 190.718 131.205 191.104 131.238C191.564 131.28 192.024 131.323 192.486 131.363L193.312 131.503C193.581 131.55 193.847 131.624 194.114 131.689C194.617 131.815 195.11 131.991 195.607 132.154C195.941 132.261 196.311 132.03 196.403 131.699C196.5 131.345 196.286 131.014 195.951 130.9C195.13 130.62 194.286 130.416 193.428 130.29C193.198 130.257 192.968 130.221 192.733 130.189C192.49 130.156 192.243 130.147 191.997 130.127C191.587 130.098 191.175 130.053 190.762 130.053C190.166 130.049 189.572 130.047 188.977 130.04C188.652 130.04 188.331 130.053 188.007 130.066H188.006ZM193.473 137.436C193.229 137.443 192.989 137.469 192.749 137.488C192.334 137.522 191.921 137.568 191.509 137.625C190.785 137.725 190.076 137.901 189.427 138.245C189.137 138.395 188.85 138.6 188.627 138.84C188.538 138.772 188.434 138.726 188.324 138.704C188.214 138.683 188.1 138.687 187.992 138.716C187.989 138.719 187.989 138.719 187.985 138.719C187.765 138.78 187.521 138.979 187.485 139.219C187.365 139.602 187.43 140.027 187.485 140.414C187.511 140.592 187.68 140.771 187.83 140.858C188.002 140.962 188.213 140.988 188.404 140.936C188.575 140.886 188.724 140.779 188.824 140.631C188.9 140.611 188.975 140.586 189.051 140.557C189.238 140.484 189.416 140.395 189.588 140.293C189.718 140.324 189.852 140.326 189.983 140.3C190.096 140.284 190.203 140.238 190.313 140.2C190.511 140.131 190.713 140.063 190.914 140.005C191.475 139.844 192.046 139.725 192.624 139.648C193.234 139.577 193.847 139.536 194.463 139.524C195.173 139.514 195.883 139.553 196.588 139.641C197.338 139.751 198.093 139.866 198.827 140.057C198.971 140.12 199.117 140.177 199.268 140.223C199.473 140.284 199.69 140.329 199.901 140.271C200.029 140.234 200.146 140.164 200.239 140.07C200.333 139.975 200.401 139.858 200.437 139.729C200.515 139.439 200.415 139.167 200.226 138.952C200.067 138.77 199.833 138.664 199.609 138.582C199.497 138.541 199.384 138.504 199.27 138.47C199.182 138.397 199.083 138.34 198.976 138.3C198.846 138.245 198.714 138.191 198.583 138.138L198.615 138.15C198.499 138.1 198.384 138.046 198.271 137.988C198.086 137.894 197.885 137.761 197.683 137.719C197.584 137.698 197.483 137.694 197.383 137.707C197.353 137.683 197.323 137.659 197.291 137.637C197.128 137.527 196.944 137.527 196.755 137.501L196.8 137.508C196.166 137.435 195.528 137.401 194.89 137.406C194.418 137.406 193.944 137.419 193.473 137.436V137.436ZM173.415 137.563C173.139 137.585 172.863 137.631 172.591 137.667C172.435 137.689 172.276 137.703 172.123 137.732C171.792 137.8 171.46 137.858 171.136 137.952C170.045 138.262 168.99 138.632 168.023 139.232C167.597 139.495 167.211 139.83 166.837 140.157C166.565 140.391 166.311 140.647 166.107 140.946C165.877 141.29 165.974 141.794 166.253 142.076C166.367 142.19 166.509 142.273 166.665 142.316C166.883 142.375 167.195 142.365 167.383 142.222C167.6 142.06 167.824 141.904 168.042 141.745C168.563 141.378 169.121 141.066 169.707 140.814C170.425 140.534 171.165 140.382 171.927 140.268C173.092 140.128 174.265 140.058 175.438 140.057C175.676 140.057 175.914 140.063 176.152 140.069C176.176 140.077 176.202 140.086 176.225 140.096C176.433 140.188 176.641 140.281 176.847 140.375C177.133 140.505 177.396 140.573 177.707 140.489C177.986 140.41 178.224 140.227 178.372 139.978C178.485 139.901 178.567 139.786 178.603 139.654C178.629 139.565 178.633 139.471 178.614 139.381C178.595 139.291 178.553 139.206 178.493 139.136L178.487 139.115C178.416 138.861 178.224 138.563 177.973 138.449C177.441 138.206 176.905 137.946 176.343 137.777C175.88 137.637 175.373 137.589 174.893 137.544C174.698 137.526 174.501 137.517 174.305 137.517C174.008 137.519 173.711 137.534 173.415 137.563ZM179.478 157.935C178.998 158.261 178.509 158.585 177.998 158.862L177.955 159.142L177.926 159.334L177.909 159.444C177.835 159.944 177.761 160.438 177.653 160.925C177.507 161.604 177.357 162.279 177.199 162.955C177.153 163.136 177.107 163.315 177.059 163.496L176.962 163.883C176.902 164.11 176.86 164.341 176.835 164.574C176.814 164.761 176.837 164.95 176.903 165.126C176.959 165.315 177.049 165.473 177.189 165.613C177.361 165.749 177.481 165.848 177.621 165.916C178.571 166.389 179.666 166.454 180.614 166.454C180.884 166.454 181.154 166.451 181.419 166.444L181.527 166.441L182.121 166.429L182.715 166.415C183.098 166.409 183.487 166.357 183.835 166.311L183.945 166.299L184.03 166.286L184.225 166.26C184.455 166.195 184.65 166.088 184.819 165.925C185.059 165.678 185.195 165.344 185.195 165.01C185.195 164.321 184.615 163.717 183.952 163.717C183.339 163.743 182.777 163.802 182.157 163.867C181.417 163.947 180.679 164.026 179.958 164.026C179.665 164.028 179.372 164.013 179.081 163.983L178.968 163.974L179.001 163.802L179.016 163.617L179.115 162.581C179.144 162.244 179.183 161.905 179.221 161.571C179.273 161.12 179.322 160.708 179.355 160.289C179.371 160.091 179.384 159.892 179.393 159.694C179.403 159.529 179.416 159.364 179.429 159.198C179.452 158.892 179.488 158.588 179.52 158.282L179.546 158.068L179.569 157.872L179.478 157.935V157.935ZM164.837 146.428C164.937 146.09 165.056 145.76 165.199 145.442C164.907 145.669 164.783 146.065 164.837 146.428Z" fill="#161616"/>
<path fill-rule="evenodd" clip-rule="evenodd" d="M178.383 139.23C178.115 139.304 177.887 139.48 177.747 139.72C177.587 139.99 177.594 140.243 177.639 140.542L177.977 142.812C178.072 143.597 178.169 144.38 178.221 145.172C178.269 145.942 178.254 146.707 178.208 147.477C178.116 149.058 178.045 150.641 177.904 152.218C177.803 152.871 177.677 153.519 177.526 154.162C177.373 154.832 177.176 155.492 177.065 156.175C176.942 156.925 176.815 157.678 176.682 158.429C176.553 159.172 176.474 159.926 176.391 160.676C176.299 161.296 176.18 161.91 176.107 162.536C176.074 162.818 176.065 163.102 176.078 163.386C176.098 163.75 176.176 164.051 176.334 164.376C176.426 164.558 176.549 164.704 176.675 164.866C177.029 165.321 177.595 165.503 178.143 165.597C179.103 165.767 180.068 165.814 181.035 165.705C181.977 165.597 182.915 165.431 183.844 165.253C184.276 165.169 184.578 164.707 184.578 164.288C184.578 163.782 184.12 163.24 183.578 163.292L181.99 163.438C181.672 163.468 181.354 163.493 181.035 163.516C180.418 163.553 179.8 163.531 179.187 163.451C179.038 163.427 178.89 163.4 178.743 163.369C178.854 162.983 178.996 162.602 179.11 162.22C179.3 161.6 179.432 160.974 179.568 160.344C179.854 159.04 179.994 157.715 180.165 156.394C180.372 155.034 180.605 153.68 180.688 152.304C180.728 151.708 180.701 151.097 180.678 150.5C180.652 149.811 180.627 149.12 180.604 148.431C180.584 147.831 180.558 147.231 180.536 146.629C180.51 145.922 180.429 145.22 180.354 144.516C180.198 142.996 179.925 141.484 179.698 139.974C179.659 139.717 179.422 139.464 179.208 139.337C179.085 139.264 178.948 139.217 178.806 139.199C178.665 139.18 178.521 139.191 178.383 139.23V139.23ZM193.177 142.965C192.1 143.141 191.039 143.403 190.005 143.751C189.518 143.911 189.04 144.105 188.58 144.329C188.361 144.438 188.151 144.565 187.953 144.709C187.696 144.888 187.44 145.089 187.236 145.322C186.911 145.702 186.866 146.247 187.236 146.621C187.57 146.952 188.206 146.998 188.534 146.621C188.633 146.509 188.741 146.405 188.857 146.311C189.139 146.107 189.437 145.941 189.754 145.794C190.304 145.569 190.866 145.376 191.438 145.214C191.435 145.223 191.432 145.232 191.429 145.241C190.994 145.757 190.845 146.481 190.762 147.134C190.746 147.259 190.751 147.385 190.773 147.511C190.635 147.555 190.5 147.61 190.369 147.673C189.83 147.943 189.729 148.643 189.985 149.131C190.118 149.384 190.287 149.569 190.551 149.683C190.674 149.761 190.804 149.803 190.946 149.816C191.148 149.848 191.353 149.868 191.554 149.89C191.898 149.926 192.252 149.916 192.596 149.92C193.109 149.926 193.616 149.91 194.129 149.894C194.729 149.871 195.233 149.407 195.233 148.79C195.233 148.463 195.083 148.165 194.851 147.96C194.943 147.744 194.998 147.515 195.025 147.274C195.076 146.769 194.939 146.271 194.699 145.825C194.609 145.591 194.468 145.38 194.287 145.207C194.581 145.177 194.875 145.149 195.17 145.121C195.505 145.092 195.846 145.101 196.18 145.092C196.411 145.089 196.645 145.095 196.878 145.105C197.346 145.121 197.817 145.137 198.275 145.043C198.58 144.982 198.83 144.699 198.911 144.406C198.962 144.212 198.948 144.007 198.873 143.822C198.797 143.636 198.664 143.48 198.492 143.377C198.317 143.27 198.128 143.231 197.934 143.202C197.717 143.171 197.503 143.123 197.293 143.06C196.975 142.926 196.636 142.851 196.291 142.839C196.119 142.827 195.947 142.821 195.775 142.819L195.436 142.817C194.681 142.817 193.928 142.85 193.177 142.965V142.965ZM173.24 151.175L173.024 151.145L172.954 151.135L173.24 151.175ZM169.102 148.425L169.022 148.438L169.102 148.425ZM169.782 144.58C169.373 144.672 168.972 144.795 168.582 144.948C168.168 145.113 167.805 145.34 167.422 145.565C167.166 145.714 166.978 145.957 166.899 146.243C166.824 146.513 166.841 146.886 167.013 147.12C167.185 147.357 167.343 147.588 167.613 147.72C167.896 147.86 168.178 147.922 168.49 147.837C168.663 147.789 168.823 147.701 168.955 147.579C169.087 147.458 169.189 147.307 169.251 147.138L169.321 147.102C169.489 147.04 169.659 146.984 169.831 146.934C169.683 147.33 169.629 147.731 169.614 148.152C169.611 148.215 169.614 148.277 169.621 148.337C169.471 148.366 169.321 148.391 169.17 148.415C169.025 148.43 168.88 148.439 168.743 148.493C168.592 148.534 168.454 148.614 168.343 148.725C168.233 148.836 168.153 148.975 168.113 149.126C168.009 149.499 168.168 149.964 168.529 150.146C168.873 150.321 169.22 150.458 169.594 150.558C169.792 150.613 170 150.652 170.201 150.695C170.525 150.759 170.847 150.818 171.172 150.87C171.789 150.971 172.406 151.06 173.024 151.145C173.528 151.212 174.04 151.265 174.497 150.977C174.909 150.714 175.129 150.23 174.997 149.75C174.847 149.21 174.221 148.795 173.662 148.993L173.636 149.001C173.43 149.017 173.223 149.024 173.016 149.024C173.06 148.938 173.099 148.85 173.133 148.76C173.286 148.356 173.321 147.905 173.259 147.484C173.204 147.126 172.979 146.837 172.718 146.6C173.013 146.608 173.308 146.621 173.602 146.645C173.716 146.708 173.828 146.776 173.937 146.853C174.051 146.95 174.17 147.043 174.292 147.13C174.509 147.285 174.844 147.302 175.091 147.234C175.451 147.136 175.701 146.86 175.815 146.513C175.928 146.156 175.837 145.75 175.685 145.422C175.5 145.016 175.117 144.779 174.72 144.62C174.37 144.48 173.98 144.428 173.607 144.39C173.194 144.347 172.779 144.328 172.363 144.308C172.264 144.304 172.166 144.302 172.067 144.302C171.301 144.302 170.53 144.42 169.782 144.58V144.58ZM193.237 171.818C193.243 171.854 193.247 171.888 193.25 171.923L193.237 171.818ZM193.186 170.792C193.002 170.88 192.828 170.986 192.666 171.11C192.339 171.347 192.029 171.603 191.713 171.853C191.255 172.186 190.786 172.502 190.306 172.802C189.822 173.105 189.333 173.41 188.814 173.648C188.195 173.883 187.554 174.05 186.913 174.208C186.213 174.38 185.509 174.513 184.796 174.613C184.593 174.639 184.39 174.663 184.185 174.685C183.805 174.72 183.416 174.705 183.033 174.701C182.764 174.698 182.495 174.682 182.227 174.653C181.92 174.603 181.618 174.525 181.325 174.421C181.169 174.341 181.02 174.248 180.88 174.143C180.637 173.967 180.257 173.951 179.98 174.025C179.832 174.066 179.694 174.135 179.573 174.229C179.452 174.323 179.351 174.44 179.275 174.574C179.199 174.707 179.151 174.854 179.132 175.006C179.113 175.158 179.124 175.312 179.165 175.46C179.25 175.78 179.445 175.974 179.702 176.16C180.87 177.013 182.412 177.052 183.805 177.074C184.237 177.081 184.665 177.023 185.095 176.97C185.403 176.935 185.715 176.892 186.023 176.844C186.964 176.691 187.893 176.435 188.783 176.097C189.303 175.899 189.815 175.681 190.299 175.405C190.726 175.156 191.145 174.894 191.556 174.62C191.852 174.424 192.146 174.222 192.434 174.011C192.368 174.152 192.301 174.293 192.234 174.434C192.128 174.551 192.019 174.666 191.912 174.782C191.582 175.136 191.263 175.506 190.935 175.863C190.325 176.535 189.623 177.122 188.915 177.683C188.243 178.191 187.545 178.681 186.821 179.107C186.13 179.512 185.431 179.917 184.701 180.249C184.079 180.503 183.437 180.704 182.781 180.85C182.523 180.853 182.263 180.851 182.003 180.847C181.617 180.844 181.228 180.831 180.838 180.827C180.63 180.824 180.418 180.814 180.211 180.834C179.923 180.847 179.648 180.953 179.426 181.136C179.211 181.312 179.146 181.574 179.126 181.834C179.101 182.149 179.318 182.477 179.581 182.63C179.916 182.82 180.321 182.838 180.695 182.89C180.945 182.921 181.202 182.948 181.451 182.941C182.031 182.932 182.6 182.882 183.171 182.801C183.668 182.813 184.17 182.781 184.663 182.731C185.243 182.672 185.806 182.523 186.361 182.347C186.899 182.175 187.445 181.981 187.931 181.698C188.341 181.458 188.715 181.149 189.068 180.834C189.238 180.684 189.39 180.519 189.552 180.36C189.724 180.184 189.909 180.022 190.088 179.857C190.487 179.49 190.899 179.143 191.28 178.76C191.914 178.112 192.484 177.404 192.982 176.647C193.188 176.409 193.396 176.174 193.604 175.938C194.039 175.444 194.429 174.928 194.792 174.38C195.185 173.789 195.685 173.208 195.842 172.496C195.925 172.107 195.789 171.704 195.432 171.493C195.312 171.424 195.177 171.385 195.039 171.378C194.987 171.236 194.91 171.105 194.812 170.99C194.651 170.807 194.432 170.683 194.192 170.64C194.101 170.623 194.008 170.614 193.915 170.613C193.665 170.613 193.432 170.679 193.185 170.793" fill="#161616"/>
<path fill-rule="evenodd" clip-rule="evenodd" d="M178.048 174.967C178.058 175.561 178.065 176.155 178.068 176.747C178.071 177.214 178.081 177.687 178.045 178.152C178.009 178.613 177.938 179.07 177.909 179.535C177.876 180.089 177.923 180.644 178.049 181.184C178.152 181.61 178.571 181.911 179.003 181.911C179.263 181.911 179.516 181.805 179.701 181.623C179.899 181.422 179.964 181.194 179.99 180.921L179.992 180.896C180.086 180.288 180.19 179.68 180.269 179.07L180.23 179.382C180.285 178.973 180.347 178.564 180.38 178.152C180.402 177.854 180.399 177.548 180.399 177.249C180.396 176.489 180.377 175.727 180.363 174.967C180.351 174.334 179.847 173.807 179.205 173.807C178.581 173.807 178.035 174.334 178.048 174.967" fill="#161616"/>
<path fill-rule="evenodd" clip-rule="evenodd" d="M196.56 104.831H196.473C196.111 104.831 195.75 104.864 195.393 104.896L195.176 104.913C194.333 104.982 193.492 105.066 192.652 105.165C191.017 105.369 189.396 105.673 187.798 106.078C187.163 106.238 186.474 106.446 185.628 106.731L185.414 106.803C184.871 106.981 184.417 107.137 183.972 107.323L182.108 108.102L181.641 108.29C181.293 108.43 180.945 108.569 180.615 108.731L180.007 109.021L179.881 109.079L179.761 109.137C179.067 109.472 178.377 109.804 177.692 110.161L175.822 111.125C175.53 111.271 175.25 111.44 174.971 111.609L174.634 111.816C174.312 112.001 173.994 112.186 173.682 112.375L173.549 112.45C173.399 112.534 173.329 112.572 173.265 112.618L172.441 113.177L171.616 113.739C170.893 114.236 170.181 114.75 169.483 115.281L168.818 115.774C168.175 116.252 167.538 116.744 166.903 117.238L166.412 117.615C165.589 118.267 164.785 118.942 163.999 119.639L163.606 119.979C162.863 120.629 162.164 121.33 161.278 122.25L160.843 122.707C160.429 123.152 160.005 123.587 159.57 124.012C158.991 124.565 158.387 125.091 157.76 125.59C157.636 125.677 157.506 125.765 157.376 125.849L157.27 125.92C157.175 125.982 157.082 126.046 156.99 126.112C156.835 126.217 156.685 126.331 156.542 126.453C156.277 126.675 156.163 126.977 156.062 127.243C155.965 127.486 155.996 127.944 156.062 128.167C156.094 128.277 156.132 128.382 156.178 128.485C156.411 129.047 156.628 129.629 156.88 130.371C157.103 131.027 157.328 131.683 157.529 132.342C157.739 133.044 157.899 133.704 158.015 134.357C158.118 135.307 158.115 136.333 158.003 137.404C157.908 137.911 157.781 138.507 157.565 139.07C157.305 139.66 157.011 140.234 156.685 140.79L156.549 141.01L156.416 141.235C156.271 141.475 156.167 141.722 156.078 141.954C156 142.154 155.988 142.432 156.045 142.683C156.095 142.878 156.211 143.129 156.356 143.249C156.491 143.356 156.64 143.469 156.832 143.558C156.945 143.614 157.069 143.659 157.186 143.702C157.968 144.051 158.688 144.482 159.384 144.898L159.692 145.084C159.968 145.253 160.244 145.416 160.534 145.555C160.814 145.689 161.12 145.785 161.414 145.879L161.599 145.932C161.788 145.991 161.973 146.036 162.171 146.066C162.149 146.165 162.143 146.268 162.151 146.369C162.159 146.639 162.181 146.909 162.204 147.175C162.227 147.411 162.242 147.622 162.256 147.833L162.262 147.941C162.284 148.384 162.308 148.886 162.262 149.355L162.242 149.575C162.082 150.515 161.855 151.409 161.564 152.461C161.301 153.401 161.014 154.525 160.889 155.725L160.844 156.125L160.82 156.365C160.75 156.991 160.7 157.62 160.671 158.249L160.639 158.836C160.568 159.945 160.514 161.055 160.479 162.166C160.467 162.642 160.46 163.122 160.457 163.596C160.447 164.038 160.464 164.421 160.483 164.808L160.503 165.246C160.542 166.164 160.629 167.092 160.723 168.042L160.736 168.192L160.75 168.314L160.762 168.428C161.026 171.024 161.387 173.098 161.899 174.958C162.013 175.362 162.139 175.758 162.272 176.154C162.351 176.381 162.442 176.603 162.532 176.823L162.572 176.92L162.737 177.323C163.097 178.223 163.467 179.113 163.847 180.003L163.864 179.923C164.208 180.866 164.604 181.789 165.052 182.687C165.524 183.645 166.043 184.578 166.608 185.484C167.259 186.559 167.934 187.464 168.671 188.248C169.215 188.818 169.823 189.342 170.359 189.806L170.473 189.905L171.028 190.385C172.114 191.321 172.95 191.956 173.737 192.444C174.498 192.93 175.29 193.281 176.057 193.62L176.557 193.847L176.968 194.039L177.066 194.084C177.976 194.504 178.796 194.878 179.621 195.195C179.813 195.275 180.011 195.347 180.207 195.415L180.34 195.465L180.505 195.523L180.599 195.555L181.139 195.75C181.569 195.912 182.005 196.074 182.449 196.208C183.564 196.542 184.714 196.598 185.891 196.631C186.411 196.646 186.927 196.656 187.443 196.663L187.583 196.666C188.263 196.669 188.94 196.593 189.603 196.442C190.079 196.332 190.545 196.176 191.07 195.952C191.71 195.69 192.262 195.338 192.672 195.062C193.377 194.597 194.07 194.052 194.682 193.57L194.847 193.444L195.387 193.018L195.64 192.82C195.98 192.554 196.325 192.284 196.646 191.992C197.039 191.628 197.403 191.248 197.741 190.892L197.891 190.728L197.949 190.664C198.317 190.264 198.698 189.852 199.018 189.426C199.19 189.195 199.358 188.961 199.524 188.728L199.709 188.465L199.845 188.266L199.936 188.133L200.946 186.721L201.3 186.215L201.862 185.422C202.322 184.772 202.752 184.062 203.119 183.447L203.524 182.779C203.929 182.125 204.29 181.529 204.619 180.876C204.811 180.493 204.976 180.096 205.136 179.696C205.333 179.23 205.399 178.801 205.451 178.402C205.451 178.192 205.396 177.993 205.287 177.81C205.133 177.544 204.881 177.349 204.585 177.267C204.483 177.236 204.377 177.22 204.271 177.217C203.875 177.217 203.503 177.432 203.251 177.805L203.163 177.933C203.053 178.093 202.943 178.251 202.845 178.426C202.798 178.51 202.752 178.595 202.708 178.68L202.643 178.806L202.507 179.063C202.292 179.475 202.055 179.877 201.809 180.277C201.476 180.813 201.136 181.346 200.789 181.874L200.575 182.209L200.182 182.812C200.076 182.979 199.967 183.145 199.854 183.31C199.894 183.248 199.902 183.186 199.902 183.097L199.809 183.195L199.741 183.287L199.565 183.518C199.658 183.329 199.732 183.131 199.804 182.931C200.16 181.962 200.438 180.909 200.656 179.711C200.969 177.982 200.802 176.212 200.596 174.708L200.561 174.452C200.465 173.766 200.374 173.125 200.214 172.503C200.012 171.69 199.612 170.909 199.252 170.242C198.694 169.192 197.905 167.855 196.734 166.823C196.546 166.658 196.344 166.506 196.146 166.355C195.9 166.172 195.632 166.022 195.348 165.906C195.121 165.811 194.877 165.762 194.631 165.763C194.241 165.763 193.814 165.877 193.361 166.102C193.186 166.195 193.023 166.307 192.873 166.437L192.707 166.563L192.544 166.683L192.352 166.826C192.16 166.969 191.968 167.113 191.776 167.262L191.86 167.222L191.579 167.408C190.969 167.838 190.303 168.286 189.556 168.634C189.214 168.771 188.698 168.968 188.175 169.074C188.034 169.084 187.885 169.088 187.739 169.088C187.133 169.088 186.519 169.022 185.947 168.952L185.431 168.848C185.181 168.798 184.931 168.748 184.681 168.692C184.556 168.666 184.429 168.652 184.301 168.652C183.562 168.652 182.965 169.092 182.779 169.772C182.669 170.174 182.739 170.639 182.968 171.019C183.178 171.366 183.493 171.601 183.856 171.679C184.821 171.887 185.766 172.079 186.721 172.13L186.903 172.137C187.232 172.153 187.559 172.169 187.887 172.169C187.987 172.169 188.086 172.169 188.183 172.166C188.788 172.148 189.398 171.955 189.968 171.75C190.818 171.45 191.566 171.09 192.259 170.649C192.804 170.307 193.334 169.894 193.801 169.529L194.419 169.069C194.508 169.285 194.639 169.399 194.769 169.495L195.058 169.706C195.301 169.901 195.476 170.046 195.638 170.222C195.793 170.446 195.941 170.708 196.088 171.022C196.378 171.764 196.581 172.58 196.743 173.665C196.865 175.018 196.847 176.379 196.688 177.728C196.476 179.08 196.083 180.46 195.487 181.948C195.246 182.476 194.988 182.995 194.711 183.505C194.446 183.995 194.151 184.453 193.806 184.909C193.516 185.267 193.198 185.622 192.836 185.992L192.511 186.324C192.289 186.347 192.065 186.358 191.842 186.357C191.579 186.357 191.313 186.344 191.048 186.332C190.527 186.317 190.007 186.28 189.489 186.221C189.336 186.196 189.184 186.167 189.032 186.134C188.887 186.101 188.745 186.054 188.609 185.994C188.298 185.84 188.003 185.656 187.727 185.446C187.535 185.283 187.348 185.115 187.165 184.943L187.088 184.873L186.78 184.587H186.784C186.811 184.586 186.838 184.582 186.864 184.577C187.052 184.525 187.238 184.468 187.423 184.406C187.761 184.299 188.084 184.147 188.383 183.956C188.546 183.85 188.732 183.714 188.863 183.506C188.922 183.408 188.96 183.299 188.973 183.185C188.987 183.071 188.975 182.956 188.94 182.847C188.913 182.742 188.864 182.644 188.796 182.559C188.728 182.474 188.643 182.406 188.546 182.357C188.406 182.291 188.253 182.256 188.098 182.257C187.823 182.257 187.558 182.359 187.3 182.459L187.183 182.504L186.816 182.644C186.559 182.744 186.303 182.844 186.041 182.932C185.613 183.072 185.171 183.197 184.723 183.302H184.696C184.451 183.302 184.258 183.347 184.05 183.442H184.046C184.02 183.442 183.992 183.449 183.964 183.455C183.698 183.481 183.434 183.494 183.167 183.494L182.979 183.484L182.781 183.467L182.658 183.461C182.599 183.457 182.54 183.455 182.481 183.455C182.347 183.455 182.167 183.468 181.968 183.573C181.846 183.636 181.743 183.731 181.672 183.849C181.6 183.966 181.563 184.101 181.564 184.239C181.557 184.39 181.59 184.541 181.661 184.675C181.732 184.808 181.838 184.921 181.968 184.999C182.13 185.096 182.325 185.152 182.601 185.178L182.505 185.215C182.418 185.259 182.334 185.303 182.248 185.342C181.698 185.551 181.051 185.711 180.211 185.844C179.713 185.894 179.211 185.892 178.713 185.838C177.593 185.668 176.703 185.446 175.91 185.14C175.756 185.063 175.607 184.973 175.467 184.872C174.987 184.483 174.517 184.08 174.052 183.678C174.172 183.143 174.302 182.595 174.451 182.056C174.647 181.347 174.916 180.666 175.129 180.152L175.659 178.96L175.836 178.563C176.035 178.119 176.219 177.669 176.402 177.219L176.482 177.022L176.542 176.879C176.73 176.436 176.896 176.069 177.093 175.714C177.373 175.2 177.716 174.72 178.013 174.312C178.395 173.842 178.825 173.414 179.296 173.034C179.852 172.64 180.438 172.292 181.05 171.993L181.263 172.02L181.526 172.05C182.01 172.05 182.329 171.767 182.416 171.68C182.651 171.442 182.786 171.118 182.786 170.791C182.786 170.601 182.738 170.405 182.649 170.226C182.611 169.987 182.504 169.763 182.342 169.583C182.18 169.402 181.969 169.273 181.735 169.209C181.633 169.179 181.527 169.163 181.42 169.162C181.22 169.162 181.023 169.214 180.76 169.335L180.55 169.43C180.028 169.368 179.502 169.334 178.976 169.328H178.872C178.341 169.334 177.824 169.531 177.324 169.721L177.193 169.774C176.798 169.918 176.417 170.1 176.056 170.317C175.156 170.863 174.634 171.751 174.24 172.547C173.96 173.113 173.69 173.684 173.432 174.261C173.302 174.545 173.164 174.822 173.026 175.101L172.975 175.206L172.901 175.354C172.398 176.366 171.945 177.402 171.541 178.457C170.992 179.922 170.617 181.337 170.428 182.664C170.313 183.45 170.244 184.243 170.223 185.037C170.217 185.314 170.22 185.587 170.233 185.854L170.158 185.737L169.969 185.487C169.119 184.341 168.308 182.993 167.489 181.365C166.859 180.108 166.298 178.795 165.755 177.525L165.678 177.347L165.551 177.041L165.347 176.519L165.265 176.317C165.142 176.018 165.021 175.718 164.902 175.417C164.795 175.129 164.699 174.837 164.616 174.542L164.577 174.402C164.477 174.058 164.377 173.714 164.291 173.364C163.971 172.014 163.718 170.649 163.532 169.274C163.291 167.27 163.068 165.13 163.074 163.06C163.074 162.102 163.104 161.062 163.165 159.97L163.211 159.05C163.243 158.272 163.295 157.495 163.366 156.72L163.429 156.049L163.49 155.429C163.522 155.211 163.562 154.994 163.607 154.779C163.491 153.959 163.629 153.079 163.795 152.25L163.899 151.744C163.967 151.38 164.029 151.056 164.103 150.741L164.194 150.341L164.284 149.942L164.301 149.832C164.405 148.833 164.512 147.804 164.753 146.832C164.747 146.152 164.75 145.476 164.756 144.804L164.766 143.784C164.773 143.512 164.788 143.24 164.805 142.967L164.815 142.802C164.84 142.247 164.912 141.684 164.981 141.141L165.006 140.965L165.026 140.808C165.126 140.117 165.24 139.422 165.356 138.73C165.49 137.938 165.604 137.15 165.711 136.353L165.654 136.427L165.714 136.146L165.814 135.669L165.895 135.169C165.97 134.763 166.075 134.348 166.181 133.939C166.394 133.152 166.649 132.239 166.986 131.369C167.22 130.771 167.464 130.18 167.707 129.593L168.045 128.761C168.207 128.362 168.367 127.959 168.522 127.557C168.697 127.109 168.872 126.664 169.055 126.22L169.093 126.126L169.145 125.992H169.155C169.183 125.989 169.211 125.979 169.235 125.964C169.871 125.66 170.514 125.37 171.163 125.094L171.381 125C172.169 124.724 173.021 124.429 173.896 124.163L174.123 124.094C174.399 124.013 174.678 123.932 174.961 123.854L175.419 123.728C175.734 123.636 176.049 123.549 176.367 123.474L176.574 123.429C177.348 123.253 178.124 123.091 178.904 122.945C179.768 122.795 180.634 122.658 181.502 122.533C182.487 122.427 183.473 122.336 184.46 122.26C185.429 122.185 186.4 122.134 187.371 122.108L187.466 122.105C187.803 122.091 188.141 122.085 188.482 122.085C189.002 122.085 189.527 122.098 190.049 122.111L190.306 122.121L190.543 122.127C191.411 122.149 192.281 122.214 193.13 122.319C194.242 122.494 195.285 122.736 196.635 123.059C197.96 123.386 199.091 123.732 200.092 124.117C200.934 124.514 201.636 124.878 202.322 125.363C202.485 125.514 202.648 125.673 202.797 125.845C202.835 125.896 202.871 125.958 202.906 126.035C203.178 126.882 203.311 127.817 203.418 128.569C203.499 129.224 203.564 129.782 203.606 130.343C203.632 130.73 203.646 131.116 203.659 131.505C203.665 131.749 203.671 131.986 203.685 132.22C203.746 133.506 203.828 134.792 203.918 136.074C203.958 136.639 203.99 137.2 204.018 137.765C204.054 138.435 204.094 139.106 204.148 139.775C204.238 140.8 204.39 141.861 204.512 142.715L204.659 143.75L204.724 144.246L204.802 144.815L204.821 144.973L204.84 145.107C204.961 146.064 205.083 146.997 205.243 147.899L205.095 147.893C205.102 148.397 205.094 148.901 205.071 149.404C205.276 149.397 205.428 149.369 205.586 149.338L205.597 149.428C205.762 150.245 205.999 151.134 206.302 152.079C206.51 152.716 206.75 153.317 207.017 153.866C207.127 154.084 207.247 154.302 207.381 154.506C207.844 155.231 208.505 155.646 209.193 155.646C209.888 155.624 210.417 155.221 210.927 154.83L211.055 154.736L211.235 154.6L211.47 154.43L211.538 154.382C211.872 154.145 212.173 153.932 212.492 153.756L212.735 153.632C212.96 153.546 213.192 153.478 213.428 153.429C213.472 153.447 213.512 153.475 213.544 153.51L213.66 153.676L213.691 153.777L213.741 153.933C213.542 154.659 213.552 155.281 213.772 155.829C213.838 156.064 213.954 156.266 214.128 156.449C214.392 158.578 214.409 160.637 214.178 162.563C214.074 163.21 213.93 163.969 213.658 164.687C213.504 164.995 213.328 165.293 213.131 165.576C212.82 165.939 212.473 166.269 212.097 166.564C211.68 166.877 211.237 167.154 210.774 167.394C210.67 167.406 210.627 167.406 210.586 167.406L210.511 167.296C210.414 167.179 210.291 167.085 210.152 167.022C210.013 166.959 209.862 166.928 209.709 166.932C209.494 166.932 209.281 166.989 209.11 167.092C208.848 167.242 208.653 167.503 208.578 167.809C208.503 168.109 208.548 168.403 208.706 168.64C208.816 168.818 208.933 169.007 209.073 169.17C209.149 169.258 209.345 169.473 209.523 169.555C209.761 169.665 209.946 169.746 210.162 169.8C210.346 169.85 210.563 169.874 210.826 169.874C211.501 169.858 212.116 169.588 212.629 169.327C213.198 169.045 213.737 168.706 214.239 168.317C214.464 168.145 214.679 167.959 214.889 167.772C215.099 167.582 215.275 167.351 215.452 167.111L215.547 166.991C215.937 166.463 216.18 165.843 216.386 165.251C216.583 164.696 216.656 164.089 216.714 163.516L216.746 163.269C216.806 162.741 216.837 162.191 216.847 161.538C216.865 160.3 216.812 159.061 216.688 157.829C216.626 157.19 216.549 156.553 216.458 155.917C216.521 155.771 216.547 155.611 216.532 155.452L216.508 155.362L216.516 155.364C216.544 155.208 216.59 155.063 216.636 154.92L216.672 154.804C216.697 154.725 216.723 154.647 216.743 154.569C216.811 154.317 216.866 154.063 216.922 153.81C217.052 153.118 217.172 152.44 217.22 151.746C217.282 150.708 217.263 149.696 217.243 148.716L217.237 148.261L217.23 147.996C217.223 147.21 217.199 146.423 217.159 145.638L217.198 145.541C217.334 145.187 217.47 144.826 217.59 144.466L217.75 144.004L217.791 143.884C217.915 143.527 218.038 143.17 218.141 142.812L218.262 142.404L218.665 141.027C218.762 140.702 218.837 140.375 218.908 140.047L218.934 139.939L219.044 139.439C219.286 138.418 219.474 137.345 219.604 136.249L219.655 135.805C219.704 135.418 219.753 135.029 219.778 134.642L219.811 134.116L219.847 133.584L219.863 133.369C219.876 133.201 219.889 133.028 219.893 132.859L219.902 131.912L219.915 130.96C219.914 130.407 219.892 129.855 219.848 129.304C219.792 128.435 219.682 127.57 219.519 126.715C219.379 125.988 219.158 125.275 218.943 124.584L218.804 124.146C218.67 123.725 218.523 123.307 218.363 122.895L218.273 122.658C217.773 121.332 217.177 119.798 216.398 118.381C215.791 117.278 215.038 116.296 214.381 115.481L214.115 115.156C213.873 114.851 213.625 114.551 213.371 114.256L213.141 113.99L213.011 113.842C212.404 113.142 211.776 112.419 211.114 111.742C210.692 111.308 210.26 110.884 209.819 110.47C209.443 110.12 209.039 109.812 208.588 109.472L208.389 109.322C207.505 108.663 206.597 108.038 205.665 107.449C204.724 106.833 203.717 106.323 202.663 105.929L202.39 105.825C202.192 105.749 201.993 105.677 201.793 105.608C201.155 105.386 200.467 105.216 199.561 105.056C198.757 104.919 198.142 104.855 197.57 104.845C197.232 104.838 196.897 104.835 196.56 104.831" fill="#161616"/>
<path fill-rule="evenodd" clip-rule="evenodd" d="M188.836 185.86H188.83H188.836ZM197.177 179.857C196.888 180.367 196.622 180.887 196.327 181.39C196.187 181.63 196.037 181.864 195.902 182.104C195.815 182.254 195.727 182.4 195.629 182.54C195.382 182.818 195.102 183.055 194.82 183.296C194.548 183.527 194.275 183.758 193.995 183.982C193.664 184.202 193.313 184.384 192.963 184.568C192.793 184.657 192.624 184.748 192.456 184.841C192.258 184.952 192.062 185.07 191.857 185.167C191.408 185.325 190.937 185.441 190.47 185.536C189.911 185.649 189.353 185.759 188.794 185.866L187.674 186.016C187.736 186.007 187.801 186.001 187.862 185.991C187.722 186.007 187.58 186.02 187.44 186.033C187.249 186.053 187.087 186.098 186.947 186.237C186.881 186.302 186.829 186.379 186.794 186.465C186.758 186.55 186.74 186.642 186.74 186.734C186.74 187.089 187.06 187.471 187.44 187.436C188.457 187.341 189.46 187.176 190.46 186.994C190.887 186.919 191.314 186.839 191.739 186.754C191.94 186.712 192.14 186.662 192.337 186.604C192.635 186.517 192.898 186.354 193.164 186.202C193.525 186.001 193.888 185.809 194.249 185.604C194.641 185.38 194.992 185.104 195.333 184.809C195.933 184.296 196.567 183.779 196.992 183.105C197.096 182.939 197.184 182.761 197.285 182.588C197.418 182.364 197.551 182.14 197.681 181.913C197.931 181.472 198.145 181.01 198.373 180.556C198.545 180.221 198.466 179.809 198.126 179.611C198.021 179.549 197.9 179.517 197.778 179.517C197.657 179.516 197.538 179.547 197.433 179.607C197.327 179.666 197.239 179.753 197.178 179.857H197.177ZM176.311 183.257L176.391 183.358L176.311 183.257ZM174.354 173.711C174.194 173.802 174.025 173.987 173.996 174.175C173.821 175.299 173.623 176.419 173.47 177.545C173.397 178.083 173.349 178.623 173.324 179.165C173.304 179.666 173.379 180.165 173.46 180.655C173.535 181.104 173.633 181.547 173.754 181.982C173.371 181.87 172.924 181.941 172.649 182.253C172.561 182.351 172.474 182.445 172.421 182.562C172.301 182.822 172.269 182.942 172.237 183.228C172.197 183.565 172.276 183.899 172.395 184.214C172.519 184.542 172.678 184.864 172.847 185.169C172.968 185.374 173.159 185.53 173.384 185.608C173.609 185.687 173.854 185.683 174.077 185.598L174.337 185.808C174.701 186.098 175.077 186.37 175.451 186.643C175.769 186.876 176.081 187.114 176.405 187.334C176.856 187.639 177.328 187.89 177.837 188.082C178.207 188.222 178.639 188.272 179.029 188.234C179.346 188.201 179.681 188.124 179.915 187.89C180.207 187.598 180.346 187.01 180.084 186.656C179.982 186.513 179.864 186.381 179.733 186.263C179.599 186.15 179.462 186.042 179.321 185.939C179.155 185.815 178.98 185.704 178.808 185.585C178.563 185.412 178.31 185.248 178.068 185.07C177.464 184.567 176.911 184.005 176.418 183.393C176.134 183.002 175.887 182.586 175.681 182.149C175.364 181.361 175.133 180.541 174.991 179.703C174.915 178.956 174.984 178.205 175.063 177.46C175.196 176.5 175.345 175.545 175.493 174.588C175.526 174.373 175.529 174.185 175.415 173.991C175.348 173.873 175.25 173.775 175.132 173.708C175.015 173.64 174.881 173.605 174.745 173.606C174.608 173.606 174.473 173.642 174.354 173.711V173.711ZM194.077 171.753L194.135 171.725L194.077 171.753ZM194.662 172.051C194.661 172.064 194.659 172.078 194.657 172.091L194.662 172.051ZM193.061 171.373L192.997 171.427C193.017 171.408 193.039 171.39 193.061 171.373V171.373ZM194.324 170.528C194.139 170.532 193.99 170.623 193.837 170.707C193.72 170.772 193.61 170.847 193.5 170.921C193.422 170.969 193.351 171.027 193.288 171.093C193.246 171.139 193.214 171.184 193.171 171.23C193.109 171.299 193.049 171.374 192.981 171.44C192.787 171.6 192.585 171.755 192.386 171.911C192.204 172.051 192.132 172.294 192.266 172.499C192.386 172.681 192.668 172.759 192.853 172.619C193.052 172.463 193.259 172.318 193.473 172.185C193.589 172.11 193.698 172.024 193.799 171.93L193.851 171.886L193.831 171.906C193.938 171.811 194.074 171.756 194.198 171.694L194.135 171.725C194.229 171.681 194.322 171.636 194.413 171.588L194.431 171.598C194.479 171.634 194.524 171.673 194.567 171.715C194.593 171.78 194.617 171.847 194.634 171.915C194.644 171.992 194.648 172.068 194.649 172.144C194.647 172.159 194.644 172.173 194.641 172.188L194.531 172.428C194.493 172.512 194.471 172.6 194.425 172.681C194.384 172.762 194.371 172.855 194.388 172.944C194.405 173.033 194.451 173.115 194.519 173.175C194.642 173.285 194.879 173.33 195.019 173.21C195.162 173.087 195.305 172.974 195.425 172.827C195.558 172.662 195.691 172.483 195.726 172.265C195.75 172.125 195.75 171.983 195.726 171.843C195.707 171.746 195.691 171.649 195.658 171.551C195.632 171.463 195.581 171.379 195.542 171.295L195.585 171.389C195.519 171.241 195.428 171.106 195.317 170.989C195.259 170.925 195.184 170.869 195.117 170.814C194.897 170.632 194.622 170.531 194.337 170.528H194.324V170.528Z" fill="#161616"/>
<path fill-rule="evenodd" clip-rule="evenodd" d="M194.828 171.354C194.826 171.353 194.825 171.352 194.823 171.35L194.811 171.343L194.828 171.354ZM191.846 171.954L191.851 171.95L191.854 171.947L191.846 171.954V171.954ZM188.633 175.148L188.697 175.118L188.633 175.148ZM188.603 175.163L188.633 175.148L188.603 175.163ZM180.333 175.337C180.411 175.338 180.489 175.341 180.566 175.344C180.587 175.347 180.609 175.347 180.63 175.348C180.671 175.385 180.715 175.421 180.76 175.455C180.618 175.424 180.478 175.385 180.34 175.338C180.369 175.352 180.401 175.361 180.43 175.374L180.333 175.337ZM195.241 172.585L195.224 172.599C195.229 172.595 195.234 172.589 195.241 172.585ZM195.248 172.579L195.242 172.584L195.243 172.583L195.248 172.579ZM195.336 171.984C195.34 171.991 195.344 171.999 195.347 172.007L195.337 171.984H195.336ZM195.391 171.092C195.402 171.111 195.411 171.13 195.421 171.15L195.451 171.208L195.391 171.092V171.092ZM193.645 170.474C193.381 170.588 193.145 170.724 192.927 170.904C192.79 171.014 192.674 171.137 192.554 171.264C192.33 171.501 192.096 171.728 191.854 171.947L191.884 171.923L191.851 171.95L191.811 171.988C191.822 171.976 191.834 171.965 191.846 171.954C191.614 172.142 191.367 172.315 191.122 172.491C190.855 172.683 190.59 172.877 190.324 173.071C190.034 173.286 189.738 173.494 189.434 173.689C189.093 173.895 188.743 174.085 188.384 174.258L187.992 174.448C187.646 174.612 187.302 174.771 186.946 174.906C186.635 175.015 186.315 175.099 185.991 175.16C185.973 175.138 185.954 175.117 185.933 175.098C185.81 174.988 185.677 174.962 185.514 174.952C185.051 174.926 184.586 174.897 184.119 174.884C183.701 174.87 183.282 174.846 182.865 174.812C182.924 174.815 182.985 174.822 183.045 174.825C182.9 174.815 182.757 174.794 182.615 174.761C182.489 174.728 182.362 174.682 182.239 174.64L182.404 174.698L181.929 174.534C181.847 174.503 181.767 174.467 181.691 174.424C181.565 174.321 181.447 174.204 181.323 174.098C181.123 173.922 180.911 173.76 180.69 173.611L180.833 173.705C180.683 173.605 180.547 173.478 180.379 173.403C180.278 173.359 180.174 173.325 180.067 173.299C179.96 173.274 179.836 173.277 179.729 173.267C179.553 173.246 179.374 173.271 179.209 173.338C179.04 173.419 178.969 173.465 178.833 173.588C178.677 173.738 178.564 173.929 178.508 174.138C178.487 174.219 178.478 174.303 178.482 174.387C178.49 174.485 178.517 174.58 178.561 174.668C178.577 174.833 178.628 174.992 178.709 175.136C178.791 175.28 178.902 175.405 179.035 175.503C179.225 175.643 179.444 175.75 179.651 175.868C179.914 176.016 180.219 176.111 180.515 176.185C180.67 176.225 180.837 176.238 180.995 176.257C181.19 176.28 181.382 176.299 181.576 176.319C181.781 176.341 181.986 176.364 182.193 176.374C182.404 176.387 182.615 176.381 182.826 176.374C183.06 176.367 183.291 176.348 183.521 176.328C183.781 176.306 184.044 176.296 184.303 176.273C184.787 176.228 185.268 176.173 185.749 176.088C186.262 175.998 186.771 175.903 187.269 175.741C187.729 175.589 188.167 175.375 188.604 175.163L188.59 175.169C188.661 175.134 188.733 175.098 188.803 175.066L188.834 175.049C188.861 175.037 188.887 175.022 188.914 175.009C189.31 174.819 189.684 174.594 190.048 174.351C190.203 174.247 190.349 174.137 190.492 174.02C190.642 173.89 190.786 173.756 190.935 173.623C191.199 173.399 191.474 173.183 191.748 172.974C192.005 172.784 192.268 172.604 192.521 172.41C192.716 172.264 192.898 172.107 193.07 171.932C193.167 171.83 193.262 171.725 193.366 171.628C193.502 171.515 193.65 171.415 193.806 171.332C193.92 171.28 194.031 171.236 194.15 171.204C194.247 171.192 194.345 171.189 194.443 171.194C194.499 171.202 194.556 171.214 194.612 171.226C194.688 171.262 194.76 171.305 194.828 171.354C194.853 171.374 194.878 171.394 194.901 171.417C194.971 171.502 195.041 171.585 195.111 171.667L195.109 171.663C195.201 171.773 195.281 171.896 195.353 172.022L195.36 172.041C195.366 172.095 195.366 172.148 195.361 172.202C195.347 172.299 195.316 172.39 195.286 172.482C195.275 172.513 195.262 172.543 195.247 172.572C195.236 172.585 195.225 172.599 195.209 172.612L195.216 172.605C195.089 172.712 194.951 172.811 194.823 172.92C194.735 172.994 194.696 173.107 194.764 173.208C194.824 173.296 194.966 173.342 195.054 173.267C195.148 173.185 195.244 173.107 195.346 173.03C195.436 172.959 195.534 172.894 195.599 172.792C195.645 172.724 195.67 172.64 195.706 172.562C195.756 172.468 195.798 172.38 195.823 172.276C195.862 172.125 195.865 171.968 195.83 171.816C195.807 171.731 195.755 171.647 195.713 171.569C195.669 171.489 195.618 171.412 195.56 171.341C195.508 171.276 195.456 171.215 195.417 171.14V171.142C195.365 171.035 195.299 170.936 195.222 170.845C195.171 170.783 195.122 170.721 195.067 170.66C194.987 170.575 194.89 170.51 194.781 170.468C194.601 170.392 194.408 170.354 194.212 170.355C194.017 170.356 193.824 170.396 193.645 170.474V170.474ZM183.347 181.514H183.352H183.347ZM179.214 181.452L179.273 181.473L179.213 181.453L179.214 181.452ZM178.671 180.778L178.678 180.82L178.671 180.778ZM177.996 179.362C177.941 179.781 177.919 180.202 177.866 180.625C177.847 180.755 177.827 180.891 177.837 181.021C177.844 181.134 177.867 181.248 177.892 181.358C177.909 181.427 177.932 181.491 177.958 181.556C178.026 181.716 178.098 181.888 178.214 182.024C178.299 182.124 178.383 182.225 178.477 182.313C178.619 182.446 178.808 182.53 178.987 182.602C179.172 182.677 179.357 182.742 179.552 182.791C179.724 182.832 179.896 182.852 180.072 182.868C180.259 182.891 180.445 182.91 180.632 182.914C180.822 182.917 181.012 182.898 181.201 182.881C181.614 182.844 182.024 182.782 182.429 182.696C182.821 182.622 183.204 182.479 183.581 182.348C184.351 182.086 185.094 181.778 185.827 181.427C185.905 181.387 185.964 181.352 186.006 181.274C186.042 181.199 186.048 181.113 186.023 181.034C185.996 180.956 185.94 180.893 185.866 180.856C185.793 180.82 185.708 180.814 185.63 180.839C184.876 181.081 184.126 181.346 183.352 181.513L183.419 181.501L183.349 181.514L183.301 181.524L183.347 181.514C182.498 181.666 181.641 181.826 180.777 181.774C180.541 181.747 180.307 181.694 180.074 181.657C179.815 181.621 179.56 181.563 179.31 181.485C179.229 181.451 179.149 181.412 179.073 181.368C179.023 181.331 178.975 181.291 178.93 181.248C178.865 181.167 178.807 181.08 178.755 180.99C178.716 180.906 178.685 180.818 178.663 180.728C178.631 180.447 178.625 180.164 178.646 179.882C178.66 179.758 178.673 179.635 178.691 179.511C178.714 179.32 178.619 179.134 178.418 179.091C178.395 179.086 178.372 179.084 178.348 179.084C178.188 179.084 178.018 179.194 177.996 179.362V179.362ZM175.756 171.64L175.75 171.65L175.756 171.64ZM175.756 171.635C175.747 171.642 175.738 171.648 175.731 171.655C175.739 171.648 175.747 171.641 175.756 171.635V171.635ZM181.116 170.651L181.059 170.704L181.117 170.651H181.116ZM180.63 168.704C180.253 168.724 179.88 168.788 179.507 168.844C179.272 168.88 179.046 168.938 178.815 168.993C178.613 169.042 178.409 169.084 178.211 169.139C178.042 169.189 177.874 169.233 177.708 169.282C177.548 169.339 177.395 169.415 177.254 169.509C177.104 169.604 176.942 169.675 176.796 169.779C176.643 169.889 176.484 169.987 176.338 170.103C176.208 170.21 176.094 170.328 175.971 170.442C175.838 170.562 175.708 170.691 175.631 170.857C175.582 170.955 175.529 171.051 175.474 171.146C175.38 171.298 175.289 171.549 175.448 171.691C175.608 171.842 175.82 171.696 175.98 171.608C176.107 171.558 176.241 171.535 176.37 171.484C176.426 171.461 176.49 171.451 176.545 171.431C176.653 171.396 176.762 171.371 176.872 171.344C177.053 171.311 177.234 171.285 177.409 171.234C177.821 171.11 178.224 170.961 178.627 170.811C179.09 170.639 179.557 170.476 180.031 170.337C180.228 170.338 180.425 170.345 180.622 170.359C180.794 170.379 180.962 170.409 181.13 170.464L181.05 170.434C181.101 170.454 181.153 170.471 181.204 170.487L181.237 170.501L181.24 170.531C181.208 170.565 181.174 170.599 181.14 170.631C180.896 170.821 180.61 170.951 180.334 171.087C180.07 171.205 179.802 171.304 179.536 171.422C179.055 171.633 178.593 171.892 178.123 172.132C177.873 172.252 177.623 172.367 177.38 172.496C177.244 172.571 177.114 172.646 176.984 172.73C176.834 172.828 176.698 172.954 176.559 173.071C176.449 173.165 176.363 173.253 176.331 173.402C176.309 173.506 176.319 173.614 176.358 173.713C176.398 173.811 176.466 173.896 176.553 173.956C176.641 174.016 176.744 174.049 176.85 174.05C176.957 174.052 177.061 174.022 177.15 173.964C177.438 173.779 177.717 173.578 178.013 173.402C178.271 173.251 178.526 173.104 178.789 172.965C179.349 172.715 179.947 172.588 180.523 172.385C180.689 172.327 180.848 172.253 181.01 172.185C181.28 172.068 181.558 171.961 181.805 171.795C181.994 171.672 182.165 171.532 182.325 171.373C182.416 171.279 182.491 171.156 182.542 171.035C182.63 170.831 182.652 170.658 182.669 170.442C182.68 170.232 182.659 170.022 182.607 169.818C182.549 169.551 182.367 169.35 182.192 169.156C181.997 168.941 181.669 168.802 181.392 168.743C181.23 168.71 181.065 168.694 180.9 168.696C180.81 168.696 180.72 168.699 180.63 168.704" fill="#161616"/>
</svg>
