<?xml version="1.0" encoding="UTF-8"?>
<svg width="500px" height="600px" viewBox="0 0 500 600" version="1.1" xmlns="http://www.w3.org/2000/svg" xmlns:xlink="http://www.w3.org/1999/xlink">
    <!-- Generator: Sketch 63.1 (92452) - https://sketch.com -->
    <title>laugh</title>
    <desc>Created with Sketch.</desc>
    <g id="laugh" stroke="none" stroke-width="1" fill="none" fill-rule="evenodd">
        <g id="Group-2" transform="translate(153.000000, 113.000000)">
            <g id="Group-3" transform="translate(0.000325, 0.424810)">
                <path d="M23.2133894,70.5917506 C26.313199,71.0275006 28.7165522,71.0712755 30.423449,70.7230753 C32.1303457,70.3748751 34.6815068,69.320399 38.0769322,67.5596468 C36.7174749,70.5201387 35.2454195,72.6912741 33.660766,74.0730531 C32.0761125,75.4548321 29.7467664,76.5984257 26.6727276,77.5038338 C24.7422125,78.1064288 23.5467101,77.9476755 23.0862206,77.027574 C22.625731,76.1074725 22.6681206,73.9621981 23.2133894,70.5917506 Z" id="Path-44" fill="#FFFFFE"></path>
                <path d="M32.0059089,25.6410597 C31.4315712,25.6635013 30.859727,25.686774 30.2853894,25.7092156 C29.9446102,25.7225143 29.5996751,25.7549299 29.2588959,25.7773714 C28.6646102,25.819761 28.0744803,25.858826 27.4801946,25.9003844 C27.1842985,25.9203325 26.8892335,25.9660468 26.5933374,26.0042805 C25.9732855,26.0790857 25.3499089,26.1572156 24.7298569,26.2353455 C24.4572335,26.2710857 24.1879348,26.306826 23.9153115,26.3583584 C22.8406102,26.5595013 21.7659089,26.7648 20.6912076,26.9659429 C20.4244024,27.0174753 20.161753,27.0956052 19.8991037,27.1604364 C19.265753,27.3200208 18.6324024,27.478774 17.9965582,27.6342026 C17.5834673,27.7380987 17.1712076,27.8419948 16.7589478,27.9433974 C16.1879348,28.0855273 15.62274,28.2575792 15.0575452,28.4204883 C14.7815972,28.4986182 14.6161946,28.7870338 14.6909998,29.0629818 C14.765805,29.3356052 15.0608699,29.5043325 15.3334933,29.4270338 C15.8762465,29.270774 16.4148439,29.1053714 16.9634154,28.9690597 C17.3241426,28.8809558 17.6873634,28.7903584 18.0480907,28.7030857 C18.9341167,28.4819948 19.8176491,28.2642286 20.7036751,28.0439688 C21.2106881,27.9201247 21.7268439,27.8419948 22.2396751,27.7447481 C22.98274,27.6084364 23.7249738,27.473787 24.4680387,27.3341506 C25.399779,27.2211117 26.3340128,27.1147221 27.2690777,27.0050078 C27.6065322,26.9626182 27.9473115,26.9592935 28.284766,26.9368519 C28.875727,26.9011117 29.4700128,26.8653714 30.0609738,26.8296312 C30.3926102,26.8096831 30.7234154,26.8063584 31.051727,26.8005403 C31.5903244,26.7839169 32.1322465,26.7706182 32.6716751,26.754826 C33.0939089,26.7415273 33.5186361,26.7706182 33.9408699,26.7772675 C34.3273634,26.7872416 34.7171816,26.7805922 35.1036751,26.8130078 C35.5641426,26.8553974 36.0246102,26.8986182 36.4859089,26.9385143 C36.7610257,26.9842286 37.0361426,27.0316052 37.3112595,27.0789818 C37.5805582,27.1246961 37.8465322,27.1995013 38.1133374,27.2643325 C38.6161946,27.3906701 39.1099089,27.5660468 39.6069478,27.7289558 C39.9410777,27.8361766 40.3109478,27.6051117 40.4023764,27.2743065 C40.4996231,26.9202286 40.2851816,26.5894234 39.9510517,26.4755532 C39.1290257,26.2029299 38.2887141,25.9851636 37.4276231,25.8654753 C37.1973894,25.8322286 36.9671556,25.7964883 36.732766,25.7640727 C36.4900647,25.7316571 36.2432076,25.7225143 35.9963504,25.7025662 C35.5874154,25.6734753 35.1751556,25.627761 34.7620647,25.627761 C34.1652855,25.6244364 33.5709998,25.6219429 32.9767141,25.6152935 C32.651727,25.6152935 32.3308959,25.627761 32.0059089,25.6410597" id="Fill-1" fill="#161616"></path>
                <path d="M37.4722569,33.0116156 C37.2287244,33.0182649 36.9885167,33.0440312 36.7483089,33.0631481 C36.3327244,33.0988883 35.9204647,33.1412779 35.508205,33.2002909 C34.7842569,33.3008623 34.0761011,33.476239 33.4269582,33.8203429 C33.1360491,33.9699532 32.850127,34.1752519 32.6265426,34.4154597 C32.4503348,34.2833039 32.2151141,34.2284468 31.9915296,34.2907844 C31.988205,34.2941091 31.988205,34.2941091 31.9848803,34.2941091 C31.7646206,34.3556156 31.5210881,34.5534338 31.4853478,34.7944727 C31.3648283,35.1768104 31.4296595,35.6023688 31.4853478,35.9888623 C31.5111141,36.1675636 31.6798413,36.3462649 31.8294517,36.4335377 C32.0015037,36.5374031 32.2126206,36.5632 32.4037894,36.5116675 C32.574179,36.4634597 32.7254517,36.3529143 32.8243608,36.2066286 C32.8999972,36.1858494 32.9748024,36.1609143 33.0504387,36.1318234 C33.2374517,36.0595117 33.4153219,35.9697455 33.5873738,35.8683429 C33.7137115,35.9032519 33.8400491,35.8966026 33.982179,35.8749922 C34.0960491,35.8592 34.2024387,35.8134857 34.3129842,35.7744208 C34.5108024,35.7062649 34.7127764,35.6381091 34.9139193,35.5799273 C35.4774517,35.4153558 36.0459712,35.3039792 36.6244647,35.2233558 C37.2337115,35.1518753 37.8471141,35.1111481 38.462179,35.0995117 C39.1736595,35.0837195 39.8818154,35.1344208 40.5874777,35.2158753 C41.3380231,35.3255896 42.0927244,35.4411221 42.8266465,35.6322909 C42.9704387,35.6954597 43.1167244,35.7519792 43.2679972,35.7976935 C43.4724647,35.8592 43.6893998,35.9040831 43.9005167,35.8459013 C44.1606725,35.7744208 44.36514,35.5599792 44.4366206,35.3039792 C44.5147504,35.0147325 44.414179,34.7421091 44.2255037,34.5276675 C44.0667504,34.3456416 43.8323608,34.2392519 43.6087764,34.1577974 C43.4965686,34.116239 43.3835296,34.0796675 43.2696595,34.0455896 C43.1873738,33.9716156 43.090127,33.924239 42.9754257,33.8752 C42.8449322,33.8203429 42.7136076,33.7663169 42.5822829,33.7131221 C42.5930881,33.7172779 42.6038933,33.7214338 42.6146985,33.7255896 C42.4983348,33.6740571 42.38114,33.6216935 42.2705946,33.5635117 C42.0860751,33.4695896 41.8849322,33.3366026 41.6829582,33.294213 C41.5815556,33.2726026 41.4793219,33.2692779 41.3820751,33.2825766 C41.3529842,33.2584727 41.3222309,33.2352 41.2906465,33.2127584 C41.1277374,33.102213 40.943218,33.102213 40.7545426,33.0764468 C40.7695037,33.0789403 40.7844647,33.0806026 40.7994257,33.0830961 C40.1669063,33.0057974 39.5285686,32.9808623 38.8902309,32.9808623 C38.4172959,32.9808623 37.9435296,32.994161 37.4722569,33.0116156" id="Fill-3" fill="#161616"></path>
                <path d="M17.4149894,33.1382026 C17.1390413,33.1606442 16.8630933,33.2063584 16.5904699,33.2420987 C16.4342102,33.2645403 16.2754569,33.277839 16.1225219,33.3069299 C15.7917167,33.3750857 15.4600803,33.4332675 15.1359244,33.5280208 C14.0445998,33.8363844 12.9898465,34.2062545 12.022366,34.8071896 C11.5968076,35.069839 11.2103141,35.4048 10.8371193,35.7322805 C10.5644959,35.965839 10.3109894,36.2226701 10.1065219,36.5210597 C9.87628808,36.8651636 9.97353484,37.3688519 10.2528076,37.6514494 C10.3691712,37.767813 10.5054829,37.8459429 10.6650673,37.8916571 C10.8828335,37.949839 11.1945219,37.9398649 11.382366,37.7969039 C11.6001322,37.634826 11.8237167,37.4793974 12.0414829,37.319813 C12.5584699,36.9466182 13.1228335,36.6473974 13.7063141,36.3889039 C14.4244439,36.1096312 15.1641842,35.9566961 15.9271972,35.8436571 C17.08834,35.6990338 18.2685998,35.6375273 19.4380543,35.6317091 C19.6757686,35.6317091 19.9134829,35.6383584 20.1511972,35.6441766 C20.1761322,35.6524883 20.2010673,35.6616312 20.2251712,35.6716052 C20.4329634,35.7630338 20.6407556,35.8561247 20.8468855,35.9500468 C21.1328076,36.0797091 21.3954569,36.1478649 21.7071452,36.0639169 C21.9855868,35.985787 22.2249634,35.8012675 22.3712491,35.5527481 C22.4826257,35.4762805 22.5682361,35.3607481 22.6031452,35.2294234 C22.6580024,35.0291117 22.6064699,34.8487481 22.4917686,34.7116052 C22.4892751,34.7041247 22.4884439,34.6966442 22.4867816,34.6899948 C22.4153011,34.4364883 22.2233011,34.1380987 21.9731193,34.0242286 C21.4411712,33.7806961 20.9050673,33.5213714 20.3431972,33.3526442 C19.879405,33.2130078 19.372392,33.1639688 18.8919764,33.1190857 C18.6966517,33.1008 18.5004959,33.0924883 18.3051712,33.0924883 C18.0084439,33.0924883 17.7125478,33.110774 17.4149894,33.1382026" id="Fill-5" fill="#161616"></path>
                <path d="M23.4774517,53.5099844 C22.9970361,53.8358026 22.50914,54.1599584 21.9979712,54.4375688 C21.9838413,54.5314909 21.9688803,54.6245818 21.9547504,54.7176727 L21.9256595,54.9096727 L21.9090361,55.019387 C21.8342309,55.5197506 21.7602569,56.0134649 21.6530361,56.5005299 C21.5067504,57.1787636 21.35714,57.8545039 21.1983868,58.529413 C21.1526725,58.711439 21.1069582,58.8901403 21.0587504,59.0713351 L20.9615037,59.4578286 C20.9058154,59.6855688 20.8542829,59.9191273 20.8343348,60.149361 C20.815218,60.3446857 20.8376595,60.5358545 20.9024907,60.7012571 C20.958179,60.8899325 21.0487764,61.0486857 21.1884128,61.1883221 C21.3604647,61.3246338 21.4809842,61.4227117 21.6206206,61.4908675 C22.5714777,61.9646338 23.666127,62.0294649 24.6136595,62.0294649 C24.8829582,62.0294649 25.1530881,62.0261403 25.4190621,62.0194909 L25.5262829,62.0161662 L26.1205686,62.0036987 L26.7148543,61.9904 C27.097192,61.9837506 27.4870102,61.9322182 27.8344387,61.8865039 L27.9449842,61.8740364 L28.0297634,61.8607377 L28.2242569,61.8349714 C28.4544907,61.7701403 28.6498154,61.6629195 28.8185426,61.5000104 C29.0587504,61.2531532 29.1950621,60.9190234 29.1950621,60.5848935 C29.1950621,59.8966857 28.6140751,59.292426 27.9516335,59.292426 C27.3382309,59.3181922 26.7763608,59.3772052 26.1563089,59.4420364 C25.4157374,59.5226597 24.6784907,59.6007896 23.9578673,59.6007896 C23.666127,59.6007896 23.3735556,59.5908156 23.0809842,59.5584 L22.9679452,59.5492571 L23.0003608,59.3772052 L23.016153,59.1918545 L23.1142309,58.1562182 C23.1433219,57.8187636 23.1823868,57.4804779 23.2206206,57.1463481 C23.2729842,56.6950234 23.3220231,56.2827636 23.3544387,55.8638545 C23.3702309,55.6660364 23.3835296,55.467387 23.3926725,55.2695688 C23.4026465,55.1041662 23.4159452,54.9387636 23.4284128,54.773361 C23.4516855,54.4674909 23.4874257,54.1624519 23.5198413,53.857413 L23.5456076,53.6429714 C23.5530881,53.5773091 23.5613998,53.5116468 23.5688803,53.4468156 C23.538127,53.4675948 23.508205,53.4892052 23.4774517,53.5099844" id="Fill-7" fill="#161616"></path>
                <path d="M8.83707769,42.0034494 C8.93681795,41.6651636 9.0556751,41.3351896 9.19863614,41.0176831 C8.90689588,41.243761 8.78305172,41.6402286 8.83707769,42.0034494" id="Fill-9" fill="#161616"></path>
                <path d="M22.3828855,34.8054442 C22.1169115,34.8769247 21.8858465,35.055626 21.7462102,35.2958338 C21.5874569,35.5651325 21.5941063,35.818639 21.6389894,36.1170286 C21.7511972,36.872561 21.863405,37.6289247 21.9764439,38.3877818 C22.0720283,39.1724052 22.1684439,39.9553662 22.2208076,40.746639 C22.2690154,41.5163013 22.2532231,42.282639 22.2075089,43.0523013 C22.1152491,44.6331844 22.0445998,46.2157299 21.9033011,47.7932883 C21.804392,48.4482494 21.6755608,49.0899117 21.5259504,49.7373922 C21.3730154,50.4064831 21.1751972,51.0680935 21.0646517,51.7504831 C20.9416387,52.5001974 20.8144699,53.2532364 20.6814829,54.0037818 C20.5526517,54.7468468 20.4736907,55.5007169 20.3905738,56.2512623 C20.2991452,56.8713143 20.1794569,57.4855481 20.1071452,58.110587 C20.0747296,58.3931844 20.0647556,58.6757818 20.0780543,58.9608727 C20.0971712,59.3249247 20.1753011,59.626639 20.3340543,59.951626 C20.4254829,60.1336519 20.5484959,60.2791065 20.6748335,60.4420156 C21.0289115,60.8966649 21.5941063,61.0778597 22.1426777,61.172613 C23.1035089,61.3413403 24.0676647,61.3895481 25.0351452,61.2798338 C25.9768595,61.172613 26.9152491,61.0063792 27.8436647,60.8285091 C28.2758725,60.7437299 28.5775868,60.2824312 28.5775868,59.8635221 C28.5775868,59.3573403 28.1196128,58.8154182 27.5776907,58.8669506 C27.0482361,58.9159896 26.5196128,58.9641974 25.9901582,59.0132364 C25.6718206,59.0423273 25.3534829,59.0680935 25.0351452,59.0913662 C24.4159244,59.134587 23.8025219,59.0988468 23.1866257,59.0257039 C23.0386777,59.0016 22.8898985,58.9758338 22.7427816,58.9442494 C22.8541582,58.558587 22.9954569,58.1770805 23.1101582,57.795574 C23.2988335,57.1755221 23.4318206,56.5488208 23.5681322,55.9187948 C23.8532231,54.6155221 23.9936907,53.290639 24.1649115,51.9682494 C24.3718725,50.6092883 24.6045998,49.2553143 24.6877167,47.8797299 C24.7267816,47.2829506 24.7010154,46.6720416 24.6785738,46.0752623 C24.6519764,45.3862234 24.6262102,44.6946909 24.6037686,44.0064831 C24.5838206,43.4063792 24.5580543,42.8054442 24.5356128,42.2045091 C24.5098465,41.4971844 24.428392,40.7956779 24.3535868,40.0908468 C24.1981582,38.5714701 23.9247037,37.0587429 23.6977946,35.5493403 C23.6587296,35.2925091 23.4218465,35.0390026 23.207405,34.9126649 C23.0436647,34.8154182 22.8566517,34.7663792 22.6688076,34.7663792 C22.572392,34.7663792 22.4759764,34.7788468 22.3828855,34.8054442" id="Fill-11" fill="#161616"></path>
                <path d="M37.1767764,38.5403844 C36.0954257,38.7091117 35.0439972,38.9850597 34.0050361,39.325839 C33.5179712,39.4854234 33.0400491,39.6799169 32.5795816,39.9043325 C32.3584907,40.0115532 32.1540231,40.1412156 31.9528803,40.2841766 C31.6960491,40.4628779 31.4400491,40.6640208 31.2355816,40.8975792 C30.9105946,41.2774234 30.8648803,41.8226701 31.2355816,42.1958649 C31.5697115,42.5275013 32.2063868,42.5732156 32.5338673,42.1958649 C32.6336076,42.0803325 32.7408283,41.9830857 32.8563608,41.885839 C33.1389582,41.6822026 33.4365167,41.5168 33.753192,41.3688519 C34.3001011,41.1444364 34.8644647,40.9516052 35.4379712,40.7886961 C35.4346465,40.797839 35.4313219,40.8069818 35.4288283,40.8161247 C34.994127,41.3322805 34.8445167,42.0553974 34.7613998,42.7095273 C34.7456076,42.8342026 34.7505946,42.9605403 34.7730361,43.0860468 C34.6350621,43.131761 34.4987504,43.1832935 34.3682569,43.2481247 C33.8296595,43.5174234 33.7290881,44.2189299 33.9850881,44.7059948 C34.1180751,44.9595013 34.2868024,45.1440208 34.5502829,45.2578909 C34.6732959,45.3360208 34.8037894,45.3784104 34.9459193,45.3908779 C35.1478933,45.4232935 35.3523608,45.4432416 35.5535037,45.4656831 C35.8976076,45.5014234 36.2516855,45.4914494 36.5957894,45.494774 C37.1086206,45.5014234 37.6148024,45.4848 38.1284647,45.4690078 C38.7285686,45.4465662 39.2322569,44.9819429 39.2322569,44.3652156 C39.2322569,44.0385662 39.0826465,43.7401766 38.8507504,43.5357091 C38.9430102,43.3196052 38.9978673,43.0902026 39.0244647,42.8491636 C39.0759972,42.3446442 38.9388543,41.8459429 38.6986465,41.4004364 C38.6845167,41.3663584 38.6695556,41.3314494 38.6537634,41.2965403 C38.5648283,41.1028779 38.4393219,40.9283325 38.2863868,40.7820468 C38.5806206,40.7512935 38.8748543,40.7238649 39.1699193,40.6964364 C39.5048803,40.6673455 39.8456595,40.6764883 40.1797894,40.6673455 C40.4108543,40.6640208 40.6444128,40.6706701 40.8779712,40.679813 C41.3459193,40.6964364 41.8163608,40.7122286 42.2743348,40.6183065 C42.5793738,40.5568 42.8295556,40.2742026 42.910179,39.9816312 C43.0207244,39.5793455 42.8386985,39.1704104 42.4921011,38.9526442 C42.3167244,38.8454234 42.1280491,38.8063584 41.9335556,38.7772675 C41.714127,38.7423584 41.5030102,38.7016312 41.2927244,38.6351377 C40.975218,38.4955013 40.6460751,38.4339948 40.2903348,38.4140468 C40.1182829,38.4040727 39.9462309,38.3940987 39.774179,38.3940987 C39.66114,38.3932675 39.5489322,38.3924364 39.4358933,38.3924364 C38.6803608,38.3924364 37.928153,38.4248519 37.1767764,38.5403844" id="Fill-13" fill="#161616"></path>
                <path d="M17.2396959,46.7501714 C17.1682154,46.7401974 17.0959037,46.7302234 17.023592,46.7202494 C17.0003193,46.7169247 16.9770465,46.7144312 16.9537738,46.7111065 C17.048527,46.7244052 17.1424491,46.7368727 17.2396959,46.7501714 M13.1013063,44.0006649 L13.0223452,44.0131325 C13.0489426,44.0089766 13.07554,44.0048208 13.1013063,44.0006649 M13.7820335,40.1556779 C13.3730985,40.2471065 12.9699816,40.3701195 12.5809946,40.5230545 C12.1679037,40.6884571 11.8046829,40.9153662 11.4215141,41.1397818 C11.1680076,41.2860675 10.9768387,41.5329247 10.8987089,41.8180156 C10.8239037,42.0881455 10.840527,42.4613403 11.012579,42.6948987 C11.1846309,42.9317818 11.3433842,43.1628468 11.6126829,43.2958338 C11.8952803,43.4354701 12.1778777,43.4969766 12.489566,43.4121974 C12.7754881,43.3348987 13.0223452,43.1428987 13.1686309,42.8893922 C13.2010465,42.8337039 13.2284751,42.7746909 13.2509167,42.7131844 C13.2741894,42.7007169 13.2966309,42.6890805 13.3199037,42.6774442 C13.4886309,42.6151065 13.6590206,42.5594182 13.8310725,42.5095481 C13.6822933,42.9051844 13.6290985,43.306639 13.6133063,43.7272104 C13.6108128,43.7903792 13.6141374,43.8518857 13.6207868,43.912561 C13.4703452,43.9408208 13.3199037,43.9657558 13.1694621,43.9898597 C13.0248387,44.0048208 12.8793842,44.0139636 12.7430725,44.0679896 C12.5901374,44.1103792 12.4571504,44.1885091 12.3432803,44.3023792 C12.233566,44.4120935 12.1554361,44.5459117 12.1130465,44.7013403 C12.0091504,45.0745351 12.1679037,45.5391584 12.5286309,45.7211844 C12.8727348,45.896561 13.2201634,46.0328727 13.5933582,46.1334442 C13.7920076,46.1883013 13.9997998,46.2273662 14.2009426,46.2697558 C14.5250985,46.334587 14.8467608,46.3927688 15.1717478,46.4451325 C15.7884751,46.5465351 16.4052024,46.6354701 17.023592,46.7202494 C17.5272803,46.787574 18.0401115,46.8407688 18.4964231,46.5523532 C18.9086829,46.2888727 19.1289426,45.8051325 18.9959556,45.3247169 C18.8471764,44.7861195 18.2204751,44.3705351 17.6619296,44.5683532 C17.6527868,44.5708468 17.6436439,44.5733403 17.6353322,44.5766649 C17.4292024,44.5924571 17.2222413,44.5991065 17.0152803,44.5991065 C17.0601634,44.5126649 17.0992283,44.4237299 17.1324751,44.3347948 C17.2854102,43.9316779 17.3211504,43.4803532 17.2588128,43.0589506 C17.2039556,42.7007169 16.9787089,42.4123013 16.7177219,42.1754182 C17.0127868,42.1828987 17.3078517,42.1961974 17.6012543,42.2203013 C17.7159556,42.2834701 17.8273322,42.351626 17.9370465,42.4280935 C18.0509167,42.5253403 18.1697738,42.6176 18.2919556,42.7048727 C18.5088907,42.8603013 18.8438517,42.8769247 19.0907089,42.8087688 C19.450605,42.7115221 19.7007868,42.435574 19.8146569,42.0881455 C19.9276959,41.7307429 19.8370985,41.3251325 19.6841634,40.9968208 C19.4996439,40.5912104 19.1164751,40.3543273 18.7200076,40.1947429 C18.3692543,40.0551065 17.9802673,40.003574 17.6062413,39.9645091 C17.1939816,39.9221195 16.7783972,39.9030026 16.3628128,39.8830545 C16.2647348,39.8788987 16.1658257,39.8772364 16.0669167,39.8772364 C15.300579,39.8772364 14.5300855,39.9952623 13.7820335,40.1556779" id="Fill-15" fill="#161616"></path>
                <path d="M37.2367868,67.3930805 C37.242605,67.4288208 37.247592,67.4628987 37.2500855,67.4978078 C37.2459296,67.4628987 37.2409426,67.4279896 37.2367868,67.3930805 M37.1852543,66.3674182 C36.9932543,66.4546909 36.8345011,66.5619117 36.6657738,66.6849247 C36.3391244,66.922639 36.0282673,67.1778078 35.7124231,67.4279896 C35.2544491,67.7629506 34.7856699,68.0754701 34.3052543,68.3771844 C33.8215141,68.6797299 33.3327868,68.9856 32.8133063,69.2233143 C32.1949167,69.4577039 31.5532543,69.6247688 30.9124231,69.7826909 C30.2117478,69.9547429 29.508579,70.0877299 28.7954361,70.1883013 C28.5926309,70.2140675 28.3898257,70.2390026 28.184527,70.2597818 C27.8046829,70.2955221 27.4156959,70.2797299 27.032527,70.2764052 C26.7623972,70.2739117 26.4947608,70.255626 26.2271244,70.2281974 C25.9179296,70.1766649 25.6178777,70.1018597 25.3244751,69.9963013 C25.1673842,69.9156779 25.0227608,69.8250805 24.8797998,69.7178597 C24.6362673,69.5424831 24.2564231,69.5258597 23.9804751,69.6006649 C23.6879037,69.6821195 23.4352283,69.876613 23.2822933,70.1367688 C23.12354,70.4060675 23.0811504,70.7343792 23.1650985,71.0360935 C23.2498777,71.3544312 23.4443712,71.5489247 23.7012024,71.7342753 C24.8698257,72.5878857 26.4124751,72.6269506 27.8046829,72.6493922 C28.2368907,72.6560416 28.6649426,72.5978597 29.0938257,72.5454961 C29.4021894,72.5097558 29.7138777,72.4673662 30.0222413,72.4191584 C30.9639556,72.2662234 31.8923712,72.0102234 32.782553,71.6719377 C33.3020335,71.4741195 33.8148647,71.2563532 34.298605,70.9804052 C34.7241634,70.7343792 35.1422413,70.467574 35.5553322,70.1949506 C35.8520595,69.999626 36.1462933,69.7976519 36.4338777,69.5865351 C36.3673842,69.7278338 36.3008907,69.8691325 36.2327348,70.0096 C36.1271764,70.1259636 36.0191244,70.2414961 35.9119037,70.3570286 C35.5810985,70.7111065 35.2627608,71.0809766 34.9344491,71.4383792 C34.3243712,72.1099636 33.6228647,72.6967688 32.9138777,73.2578078 C32.2422933,73.7664831 31.5449426,74.2560416 30.8209946,74.6824312 C30.1294621,75.0872104 29.4312803,75.4928208 28.7015141,75.8244571 C28.0748128,76.0721455 27.4389686,76.2857558 26.7815141,76.4253922 C26.5221894,76.4278857 26.2628647,76.4262234 26.0027089,76.4220675 C25.6170465,76.4187429 25.2272283,76.4062753 24.8374102,76.4029506 C24.629618,76.399626 24.4185011,76.3896519 24.2107089,76.4096 C23.8990206,76.4353662 23.6754361,76.5134961 23.4252543,76.7113143 C23.2108128,76.8866909 23.1459816,77.1493403 23.1260335,77.4094961 C23.1002673,77.7245091 23.3180335,78.0519896 23.5806829,78.2049247 C23.9156439,78.3960935 24.3212543,78.4127169 24.6944491,78.4642494 C24.9446309,78.4966649 25.2014621,78.5232623 25.4508128,78.516613 C26.0301374,78.5074701 26.5994881,78.4576 27.1713322,78.3769766 C27.66754,78.388613 28.169566,78.3561974 28.6624491,78.3054961 C29.2434361,78.2473143 29.8053063,78.0977039 30.360527,77.9223273 C30.8991244,77.7502753 31.4443712,77.5557818 31.9314361,77.2731844 C32.3403712,77.0329766 32.7143972,76.724613 33.0676439,76.4096 C33.2372024,76.2599896 33.3893063,76.094587 33.5513842,75.9350026 C33.7234361,75.759626 33.9087868,75.5975481 34.0874881,75.4321455 C34.4864491,75.0647688 34.8987089,74.7181714 35.2793842,74.3350026 C35.9110725,73.6900156 36.4862413,72.9752104 36.981618,72.2221714 C37.1877478,71.9844571 37.39554,71.7492364 37.6033322,71.5131844 C38.0388647,71.0194701 38.4286829,70.5033143 38.7919037,69.9547429 C39.1850465,69.3637818 39.684579,68.7827948 39.8408387,68.0713143 C39.9247868,67.6823273 39.7884751,67.2792104 39.4319037,67.0680935 C39.3113842,66.9982753 39.1759037,66.9608727 39.0387608,66.9533922 C38.9897219,66.8187429 38.9157478,66.6882494 38.8118517,66.5652364 C38.6589167,66.3832104 38.4253582,66.2568727 38.1909686,66.2144831 C38.0953842,66.1970286 38.0039556,66.1878857 37.9141894,66.1878857 C37.6640076,66.1878857 37.4312803,66.2543792 37.1852543,66.3674182" id="Fill-17" fill="#161616"></path>
                <path d="M22.0480907,70.5420468 C22.0580647,71.1363325 22.0647141,71.7306182 22.0672076,72.3215792 C22.0705322,72.7886961 22.0805063,73.2624623 22.044766,73.7270857 C22.0090257,74.1883844 21.9375452,74.6455273 21.9084543,75.1101506 C21.8760387,75.6462545 21.921753,76.2397091 22.0480907,76.7591896 C22.1519868,77.1847481 22.5708959,77.4864623 23.0022725,77.4864623 C23.2624283,77.4864623 23.5159348,77.3800727 23.7004543,77.1980468 C23.8991037,76.9969039 23.9639348,76.7691636 23.9897011,76.4965403 C23.9905322,76.4882286 23.9913634,76.4799169 23.9913634,76.470774 C24.0852855,75.8631896 24.1891816,75.2556052 24.2689738,74.6455273 L24.2299089,74.9572156 C24.284766,74.5482805 24.3471037,74.1393455 24.3795193,73.7270857 C24.4019608,73.4286961 24.3986361,73.122826 24.3986361,72.8244364 C24.3953115,72.0647481 24.3761946,71.3017351 24.3628959,70.5420468 C24.3504283,69.9086961 23.84674,69.3825662 23.2042465,69.3825662 C22.5808699,69.3825662 22.034792,69.9086961 22.0480907,70.5420468" id="Fill-19" fill="#161616"></path>
                <path d="M40.5594673,0.406441558 L40.5594673,0.406441558 L40.5561426,0.406441558 L40.4721946,0.406441558 C40.1106361,0.406441558 39.7499089,0.438857143 39.3933374,0.471272727 L39.1755712,0.487896104 C38.3311037,0.56187013 37.4932855,0.636675325 36.6521426,0.740571429 C34.9499089,0.956675325 33.3166621,1.26337662 31.7972855,1.65319481 C31.1631037,1.81361039 30.4732335,2.0214026 29.6279348,2.30649351 L29.4134933,2.37797403 C28.87074,2.55584416 28.4169219,2.7121039 27.9714154,2.89745455 L26.1079348,3.67709091 L25.640818,3.86493506 C25.2925582,4.00457143 24.9451296,4.14420779 24.6143244,4.30628571 L24.00674,4.59553247 L23.8804024,4.65371429 L23.7598829,4.7118961 C23.0666881,5.04685714 22.376818,5.37932468 21.6919348,5.7358961 L19.821805,6.70005195 C19.5292335,6.84633766 19.2499608,7.01506494 18.9706881,7.18379221 L18.6332335,7.39158442 C18.3115712,7.5761039 17.9932335,7.76145455 17.6815452,7.95012987 L17.5485582,8.02493506 C17.3989478,8.10888312 17.3291296,8.14711688 17.2651296,8.19366234 L16.4406102,8.75220779 L15.6160907,9.31407792 C14.8971296,9.79948052 14.1972855,10.3206234 13.4824803,10.8558961 L12.8175452,11.3496104 C12.1750517,11.8267013 11.5383764,12.3195844 10.9025322,12.8132987 L10.4113115,13.1906494 C9.54523354,13.8638961 8.65089588,14.6435325 7.99842834,15.2137143 L7.60611666,15.5544935 C6.86305172,16.2044675 6.16403873,16.9051429 5.27718159,17.8252468 L4.84248029,18.2823896 C4.42689588,18.7245714 4.00798679,19.1650909 3.56996081,19.5873247 C3.04466211,20.0926753 2.45203873,20.6088312 1.75884393,21.1648831 C1.63583094,21.2521558 1.5061686,21.3402597 1.3756751,21.4242078 L1.26928549,21.4956883 C1.17453224,21.5571948 1.08061016,21.622026 0.99001276,21.6876883 C0.830428344,21.7940779 0.68414263,21.9087792 0.541181591,22.0284675 C0.276869902,22.2503896 0.162999773,22.5521039 0.062428344,22.8189091 C-0.0356495781,23.0607792 -0.00406516247,23.5195844 0.0607660064,23.7423377 C0.0931815908,23.8520519 0.132246526,23.9567792 0.177960812,24.0606753 C0.410688084,24.6225455 0.62679198,25.2043636 0.879467305,25.9465974 C1.10305172,26.6023896 1.32746731,27.2581818 1.52861016,27.9172987 C1.73889588,28.6196364 1.89848029,29.2787532 2.01484393,29.9320519 C2.11790886,30.8829091 2.11375302,31.9077403 2.0023764,32.9791169 C1.90762315,33.4861299 1.78045432,34.0820779 1.56435042,34.6456104 C1.26762315,35.3072208 0.988350422,35.8541299 0.684973799,36.3652987 L0.54866211,36.5855584 L0.415675097,36.809974 C0.270220552,37.0501818 0.167155617,37.297039 0.077389383,37.5289351 C-0.000740487146,37.7284156 -0.0132080196,38.0076883 0.0449737986,38.2578701 C0.0940127596,38.4531948 0.210376396,38.7042078 0.355830941,38.8238961 C0.490480292,38.9311169 0.639259513,39.0433247 0.832090682,39.1330909 C0.945129643,39.1887792 1.0689738,39.2344935 1.1861686,39.2768831 C1.96746731,39.625974 2.68725951,40.0565195 3.38377899,40.4729351 L3.69131146,40.6591169 C3.96725951,40.8278442 4.24403873,40.9907532 4.53328549,41.1303896 C4.81422055,41.2642078 5.11925951,41.3606234 5.41432445,41.4537143 L5.59884393,41.5069091 C5.78751925,41.5659221 5.9728699,41.6116364 6.17068808,41.6407273 C6.14492185,41.7296623 6.14824653,41.8385455 6.1515712,41.9441039 C6.15822055,42.2142338 6.18066211,42.4835325 6.20393484,42.7503377 C6.2263764,42.9863896 6.2421686,43.1975065 6.25546731,43.4086234 L6.26211666,43.5158442 C6.28372705,43.9588571 6.30783094,44.4608831 6.26211666,44.9304935 L6.2421686,45.1507532 C6.08175302,46.0908052 5.85484393,46.9843117 5.56393484,48.0357403 C5.30045432,48.9766234 5.0128699,50.1003636 4.88819458,51.3005714 L4.84331146,51.6995325 L4.82003873,51.9397403 C4.78429847,52.2647273 4.75520756,52.5730909 4.72944133,52.8881039 C4.7036751,53.1997922 4.68705172,53.5114805 4.67125951,53.824 L4.63884393,54.4116364 C4.55738938,55.7456623 4.50585692,56.8045714 4.47925951,57.7421299 C4.46679198,58.2167273 4.46014263,58.6971429 4.45681795,59.1717403 C4.44684393,59.6130909 4.46346731,59.9962597 4.48258419,60.3827532 L4.50253224,60.8216104 C4.54159718,61.7392208 4.6288699,62.6676364 4.72279198,63.6168312 L4.73609068,63.7664416 L4.74938938,63.8894545 L4.76185692,64.0033247 C5.02533743,66.5990649 5.38689588,68.6736623 5.89889588,70.5338182 C6.01276601,70.9369351 6.13910367,71.3325714 6.27209068,71.729039 C6.35022055,71.9559481 6.44081795,72.1778701 6.53224653,72.3981299 L6.57131146,72.4953766 L6.73671406,72.8984935 C7.09744133,73.7978182 7.46731146,74.688 7.84715562,75.5773506 L7.86377899,75.4983896 C7.90783094,75.6205714 7.95770107,75.7518961 8.01255821,75.8915325 C8.29183094,76.6329351 8.6608699,77.4757403 9.05151925,78.2628571 C9.57931146,79.3201039 10.1021167,80.260987 10.6074673,81.0589091 C11.2591037,82.1344416 11.9340128,83.0387532 12.6704283,83.8233766 C13.2148439,84.3927273 13.8224283,84.9171948 14.3585322,85.380987 L14.4724024,85.4798961 L15.0276231,85.9603117 C16.1139608,86.8962078 16.9492855,87.5312208 17.7364024,88.0191169 C18.497753,88.5053506 19.2898569,88.8561039 20.0561946,89.1952208 L20.555727,89.4221299 L20.9679868,89.6141299 L21.0652335,89.659013 C21.9753634,90.0795844 22.7948959,90.4536104 23.6210777,90.7702857 C23.8130777,90.8509091 24.0108959,90.9223896 24.2062206,90.9905455 L24.3392076,91.0395844 L24.5046102,91.0977662 L24.5985322,91.1301818 L25.1379608,91.3255065 C25.5693374,91.4875844 26.0048699,91.6496623 26.4495452,91.7834805 C27.5641426,92.1167792 28.7136491,92.1732987 29.8905842,92.2057143 C30.4100647,92.2215065 30.9262206,92.2314805 31.4423764,92.2381299 L31.5820128,92.2414545 C32.2860128,92.2414545 32.9659089,92.1658182 33.6034154,92.017039 C34.0788439,91.9073247 34.5442985,91.7510649 35.0695972,91.5266494 C35.708766,91.2648312 36.2614933,90.9132468 36.6712595,90.6364675 C37.3769219,90.1726753 38.0692855,89.6274286 38.6810257,89.1453506 L38.8464283,89.019013 L39.3858569,88.5934545 L39.6393634,88.3956364 C39.9801426,88.1296623 40.3242465,87.8595325 40.6459089,87.566961 C41.0390517,87.2029091 41.4031037,86.8230649 41.7405582,86.4664935 L41.8901686,86.3035844 L41.9483504,86.2387532 C42.3165582,85.8397922 42.6972335,85.4275325 43.0172335,85.0011429 C43.1892855,84.7700779 43.3580128,84.5365195 43.5234154,84.302961 L43.708766,84.0403117 L43.8450777,83.8416623 L43.9356751,83.7086753 L44.9455452,82.2965195 L45.2996231,81.7903377 L45.8614933,80.9974026 C46.3219608,80.3474286 46.7516751,79.6376104 47.1182206,79.0225455 L47.5238309,78.3542857 C47.9286102,77.7001558 48.2901686,77.105039 48.6184803,76.4509091 C48.8104803,76.0677403 48.9758829,75.6712727 49.1354673,75.2714805 C49.3324543,74.8051948 49.3989478,74.3763117 49.4504803,73.9773506 C49.4504803,73.7678961 49.3956231,73.5684156 49.28674,73.3847273 C49.1379608,73.1220779 48.8819608,72.9250909 48.5844024,72.841974 C48.4672076,72.8095584 48.3616491,72.7929351 48.2702206,72.7929351 C47.8745842,72.7929351 47.5030517,73.0073766 47.2503764,73.3805714 L47.1631037,73.5077403 C47.0525582,73.6673247 46.9420128,73.8260779 46.844766,74.0014545 C46.7990517,74.0829091 46.7533374,74.1676883 46.7076231,74.254961 L46.642792,74.3812987 L46.5064803,74.6381299 C46.2920387,75.0503896 46.0551556,75.4526753 45.8082985,75.8524675 C45.4774933,76.3877403 45.1333894,76.9205195 44.7892855,77.4491429 L44.5748439,77.7841039 L44.1817011,78.3875325 C44.0753115,78.5537662 43.9664283,78.72 43.8533894,78.8854026 C43.8932855,78.8230649 43.9015972,78.7615584 43.9015972,78.6717922 L43.8085063,78.7698701 L43.7403504,78.8621299 L43.5649738,79.0931948 C43.6580647,78.9045195 43.7320387,78.7058701 43.8035193,78.5063896 C44.1592595,77.5372468 44.4377011,76.4841558 44.6554673,75.2864416 C44.968818,73.5576104 44.801753,71.7872208 44.5964543,70.2836364 L44.5607141,70.0276364 C44.4642985,69.3410909 44.3737011,68.7002597 44.2132855,68.0785455 C44.0121426,67.2648312 43.6115193,66.4843636 43.2516231,65.8169351 C42.6939089,64.7671688 41.9042985,63.4298182 40.7331816,62.3983377 C40.5453374,62.2329351 40.3433634,62.0808312 40.1455452,61.9303896 C39.8895452,61.7425455 39.6509998,61.6078961 39.3476231,61.4815584 C39.1215452,61.3868052 38.8796751,61.3385974 38.6311556,61.3385974 C38.2405063,61.3385974 37.8132855,61.4524675 37.3602985,61.6768831 C37.1782725,61.764987 37.0087141,61.9021299 36.8724024,62.0126753 L36.7069998,62.1381818 L36.5440907,62.2587013 L36.3520907,62.4016623 C36.1600907,62.5446234 35.9672595,62.6884156 35.7752595,62.8371948 L35.8592076,62.7981299 L35.8592076,62.7981299 L35.5782725,62.9834805 C34.9690257,63.414026 34.3024283,63.8611948 33.5560387,64.2094545 C33.2135972,64.3465974 32.6974413,64.5427532 32.1746361,64.649974 C32.0333374,64.6599481 31.883727,64.6632727 31.7382725,64.6632727 C31.1323504,64.6632727 30.5189478,64.5976104 29.9462725,64.526961 L29.4309478,64.4230649 C29.1815972,64.374026 28.9314154,64.3224935 28.6812335,64.2676364 C28.5548959,64.241039 28.4260647,64.2277403 28.299727,64.2277403 C27.5616491,64.2277403 26.9648699,64.6674286 26.7786881,65.3473247 C26.6681426,65.7487792 26.738792,66.2142338 26.9673634,66.5940779 C27.176818,66.9415065 27.4926621,67.1758961 27.8558829,67.254026 C28.8208699,67.4626494 29.7659089,67.6538182 30.7209219,67.7053506 L30.9029478,67.712 C31.2312595,67.7286234 31.55874,67.7444156 31.8870517,67.7444156 C31.9876231,67.7444156 32.0857011,67.7444156 32.1829478,67.7410909 C32.7872076,67.7228052 33.3981167,67.529974 33.9674673,67.3255065 C34.8169219,67.0254545 35.565805,66.6647273 36.2589998,66.2242078 C36.8034154,65.8817662 37.3337011,65.4695065 37.800818,65.1046234 L38.4183764,64.6441558 C38.5073115,64.8602597 38.637805,64.9732987 38.7682985,65.0705455 L39.0575452,65.2816623 C39.3002465,65.4761558 39.4756231,65.6216104 39.6377011,65.796987 C39.7931296,66.0214026 39.9402465,66.2832208 40.0873634,66.5965714 C40.3782725,67.3396364 40.5802465,68.155013 40.7423244,69.2405195 C40.8653374,70.518026 40.8470517,71.8844675 40.6874673,73.3032727 C40.4755193,74.6555844 40.0823764,76.0353247 39.4864283,77.5222857 C39.2528699,78.0251429 38.9977011,78.5620779 38.7109478,79.0798961 C38.445805,79.5694545 38.1499089,80.0282597 37.805805,80.4845714 C37.5148959,80.841974 37.1973894,81.1968831 36.8358309,81.5675844 L36.5108439,81.8992208 C36.2498569,81.9258182 36.0462206,81.9324675 35.841753,81.9324675 C35.5791037,81.9324675 35.3131296,81.9191688 35.0479868,81.9067013 C34.4545322,81.8867532 33.9450257,81.851013 33.4887141,81.7961558 C33.3332855,81.7703896 33.1811816,81.7412987 33.0315712,81.7088831 C32.882792,81.6764675 32.7439868,81.6274286 32.6085063,81.5692468 C32.3192595,81.4279481 32.0308439,81.2492468 31.7266361,81.0215065 C31.5329738,80.8594286 31.3492855,80.6898701 31.164766,80.5186494 L31.0874673,80.448 L30.7799348,80.1620779 C30.7799348,80.1629091 30.7815972,80.1629091 30.7840907,80.1629091 C30.8015452,80.1629091 30.8605582,80.1545974 30.8630517,80.1529351 C31.051727,80.1014026 31.2370777,80.0432208 31.4224283,79.9808831 C31.8155712,79.8478961 32.1214413,79.7049351 32.3824283,79.5320519 C32.5461686,79.4256623 32.7315193,79.2893506 32.8620128,79.0815584 C32.9800387,78.9011948 33.0099608,78.6551688 32.9401426,78.4224416 C32.8744803,78.1955325 32.7315193,78.0176623 32.5461686,77.9328831 C32.4007141,77.8647273 32.2535972,77.8314805 32.0981686,77.8314805 C31.8230517,77.8314805 31.5570777,77.9345455 31.2994154,78.0342857 L31.1830517,78.0791688 L30.8156751,78.2188052 C30.5588439,78.3193766 30.3028439,78.4199481 30.0401946,78.5072208 C29.6129738,78.6476883 29.1699608,78.7723636 28.722792,78.8779221 C28.7136491,78.8779221 28.7045063,78.8770909 28.6953634,78.8770909 C28.4509998,78.8770909 28.2573374,78.921974 28.0495452,79.0175584 L28.0453894,79.0175584 C28.0196231,79.0175584 27.9913634,79.0242078 27.9639348,79.030026 C27.6979608,79.0557922 27.432818,79.0690909 27.1668439,79.0690909 L26.9789998,79.0591169 L26.7803504,79.0424935 L26.6581686,79.0366753 C26.5866881,79.0325195 26.5334933,79.030026 26.4811296,79.030026 C26.3464803,79.030026 26.1669478,79.0433247 25.9674673,79.1480519 C25.7181167,79.2760519 25.5701686,79.5187532 25.5635193,79.8138182 C25.5543764,80.1321558 25.7089738,80.4238961 25.9674673,80.5743377 C26.1295452,80.6715844 26.3248699,80.7272727 26.600818,80.753039 L26.5044024,80.7904416 C26.4179608,80.8344935 26.3331816,80.8777143 26.2475712,80.9167792 C25.6981686,81.1262338 25.0506881,81.2858182 24.2103764,81.4196364 C23.9776491,81.4420779 23.7440907,81.4553766 23.5138569,81.4553766 C23.2478829,81.4553766 22.9819089,81.4387532 22.7126102,81.412987 C21.5930257,81.2425974 20.7020128,81.0215065 19.9099089,80.7156364 C19.7519868,80.6383377 19.6090257,80.5469091 19.4668959,80.4471688 C18.9864803,80.0581818 18.5160387,79.6550649 18.0514154,79.2527792 C18.1711037,78.7183377 18.300766,78.1705974 18.4503764,77.6311688 C18.6465322,76.9221818 18.9158309,76.2406234 19.1286102,75.726961 L19.6580647,74.5350649 L19.8359348,74.1385974 C20.0345842,73.6939221 20.2182725,73.2442597 20.4019608,72.7937662 L20.4825842,72.5967792 L20.5415972,72.4538182 C20.7294413,72.0116364 20.8956751,71.6442597 21.0926621,71.2893506 C21.372766,70.7748571 21.7152076,70.2952727 22.0135972,69.8871688 C22.3992595,69.4142338 22.829805,68.9836883 23.2952595,68.6096623 C23.8055972,68.2431169 24.3633115,67.9114805 25.0498569,67.5682078 L25.2626361,67.5948052 L25.5261167,67.6247273 C26.0098569,67.6247273 26.3290257,67.3421299 26.4154673,67.2548571 C26.6506881,67.0171429 26.7853374,66.692987 26.7853374,66.3663377 C26.7853374,66.176 26.7379608,65.9806753 26.6481946,65.8011429 C26.6224283,65.6457143 26.5692335,65.4977662 26.4919348,65.3647792 C26.3215452,65.0763636 26.044766,64.8644156 25.7339089,64.7837922 C25.6192076,64.7522078 25.5194673,64.7372468 25.419727,64.7372468 C25.2194154,64.7372468 25.0224283,64.7896104 24.7606102,64.9101299 L24.5494933,65.0048831 C24.0532855,64.9516883 23.5155193,64.9034805 22.9752595,64.9034805 L22.8713634,64.9034805 C22.3402465,64.9092987 21.8232595,65.1062857 21.323727,65.2966234 L21.1924024,65.348987 C20.7610257,65.5110649 20.3886621,65.6881039 20.0553634,65.8917403 C19.1560387,66.4386494 18.6332335,67.3263377 18.2400907,68.1225974 C17.9574933,68.6902857 17.6915193,69.2588052 17.4313634,69.8364675 C17.3017011,70.1198961 17.163727,70.3975065 17.025753,70.6767792 L16.9742206,70.7815065 L16.9010777,70.9294545 C16.7780647,71.1754805 16.6558829,71.4223377 16.5420128,71.6741818 C16.2469478,72.315013 15.8671037,73.1611429 15.5412855,74.0322078 C14.9918829,75.4975584 14.6170257,76.9122078 14.4275193,78.2387532 C14.3111556,79.0416623 14.2421686,79.8404156 14.2230517,80.6125714 C14.2164024,80.8893506 14.219727,81.1628052 14.2321946,81.4296104 L14.1573894,81.3124156 L13.9687141,81.0622338 C13.1184283,79.9160519 12.3072076,78.5678961 11.4885063,76.9404675 C10.8584803,75.6829091 10.2974413,74.3696623 9.75468808,73.0996364 L9.67738938,72.9217662 L9.55105172,72.6158961 L9.34658419,72.0939221 L9.26512964,71.8919481 C9.14211666,71.5935584 9.02159718,71.2951688 8.90190886,70.9926234 C8.79136341,70.7075325 8.70325951,70.4124675 8.61598679,70.1174026 L8.57692185,69.9777662 C8.47635042,69.6336623 8.37577899,69.2895584 8.29099977,68.9388052 C7.98845432,67.6804156 7.74658419,66.3812987 7.53214263,64.8486234 C7.2902725,62.8455065 7.06751925,60.7052468 7.0741686,58.6356364 C7.0741686,57.6772987 7.10409068,56.6375065 7.16476601,55.5453506 L7.21048029,54.6260779 C7.25120756,53.8131948 7.2902725,53.0377143 7.36590886,52.2954805 L7.42824653,51.6238961 L7.48975302,51.0038442 C7.5221686,50.7860779 7.56123354,50.5691429 7.60694782,50.3547013 C7.49058419,49.5335065 7.62855821,48.6541299 7.79479198,47.8254545 L7.89868808,47.3192727 C7.96684393,46.9552208 8.02835042,46.6310649 8.10315562,46.3160519 L8.19375302,45.9170909 L8.28435042,45.5172987 L8.3009738,45.4067532 C8.4048699,44.4085195 8.51209068,43.3795325 8.75229847,42.4070649 C8.74648029,41.7263377 8.74980497,41.0514286 8.75562315,40.379013 L8.76559718,39.36 C8.77224653,39.0873766 8.78803873,38.8147532 8.80466211,38.5421299 L8.81463614,38.3767273 C8.8395712,37.8223377 8.91188289,37.2596364 8.9808699,36.7160519 L9.00580497,36.5398442 L9.02575302,36.3835844 C9.12632445,35.6920519 9.23936341,34.9971948 9.35655821,34.3056623 C9.48954523,33.5135584 9.60341536,32.7247792 9.71063614,31.9285195 L9.65411666,32.0024935 L9.71312964,31.7207273 L9.81453224,31.2444675 L9.89515562,30.7441039 C9.96996081,30.3384935 10.0738569,29.9229091 10.1810777,29.5148052 C10.3938569,28.7268571 10.6481946,27.8142338 10.9856491,26.944 C11.2200387,26.3463896 11.4635712,25.7554286 11.7071037,25.1686234 L12.0445582,24.3366234 C12.2066361,23.9376623 12.3662206,23.5345455 12.5216491,23.1322597 C12.6970257,22.6842597 12.8724024,22.2395844 13.0544283,21.7949091 L13.0926621,21.700987 L13.1450257,21.5671688 C13.1475193,21.568 13.1508439,21.568 13.1541686,21.568 C13.1791037,21.568 13.2115193,21.5522078 13.234792,21.5389091 C13.8714673,21.2305455 14.5172855,20.9479481 15.1631037,20.6695065 L15.3808699,20.5755844 C16.168818,20.2996364 17.0199348,20.0037403 17.8959868,19.7377662 L18.1228959,19.6696104 C18.3988439,19.5881558 18.6781167,19.5067013 18.9607141,19.4294026 L19.4186881,19.3030649 C19.7337011,19.2116364 20.0487141,19.1243636 20.3662206,19.0495584 L20.5740128,19.0038442 C21.3469998,18.8317922 22.1191556,18.6630649 22.9046102,18.5201039 C23.7681946,18.368 24.631779,18.235013 25.5020128,18.1078442 C26.4852855,18.0039481 27.4685582,17.910026 28.4593115,17.8352208 C29.3735972,17.7570909 30.2804024,17.7213506 31.3708959,17.6831169 L31.4656491,17.6797922 C31.8031037,17.6664935 32.1405582,17.6598442 32.4813374,17.6598442 C33.000818,17.6598442 33.5269478,17.6731429 34.0489219,17.6864416 L34.305753,17.6955844 L34.5426361,17.7022338 C35.4103764,17.7246753 36.2806102,17.7895065 37.1300647,17.8942338 C38.2421686,18.0687792 39.2844543,18.3114805 40.6351037,18.633974 C41.9599868,18.9614545 43.0903764,19.3072208 44.0919348,19.6920519 C44.9339089,20.0893506 45.6354154,20.4534026 46.3211296,20.937974 C46.4848699,21.0892468 46.647779,21.2488312 46.7965582,21.4200519 C46.834792,21.4715844 46.8705322,21.5330909 46.9054413,21.6095584 C47.1780647,22.4573506 47.3110517,23.3924156 47.4174413,24.1437922 C47.4988959,24.7987532 47.563727,25.3572987 47.6061167,25.9183377 C47.6318829,26.3048312 47.6451816,26.6913247 47.6584803,27.0803117 C47.6642985,27.3238442 47.6709478,27.5615584 47.6842465,27.7951169 C47.745753,29.0809351 47.8272076,30.3667532 47.917805,31.6492468 C47.9568699,32.2144416 47.9892855,32.7754805 48.0183764,33.3406753 C48.0541167,34.0097662 48.0931816,34.6813506 48.1480387,35.3504416 C48.237805,36.3752727 48.3899089,37.4366753 48.5120907,38.2894545 L48.6583764,39.3250909 L48.7232076,39.8212987 L48.8013374,40.3898182 L48.8204543,40.5485714 L48.8395712,40.6823896 C48.9609219,41.6390649 49.0822725,42.5724675 49.2426881,43.4742857 L49.09474,43.4684675 C49.0964024,44.0627532 49.0964024,44.5307013 49.0706361,44.9795325 C49.2759348,44.9720519 49.4280387,44.9446234 49.5859608,44.913039 L49.596766,45.0028052 C49.7621686,45.8198442 49.9990517,46.7091948 50.3015972,47.6542338 C50.5093894,48.2909091 50.7495972,48.8918442 51.0164024,49.4412468 C51.1269478,49.659013 51.2466361,49.8767792 51.3804543,50.0820779 C51.8434154,50.806026 52.5041946,51.2216104 53.1924024,51.2216104 C53.8880907,51.1991688 54.4167141,50.7960519 54.9270517,50.4054026 L55.0542206,50.3114805 L55.2345842,50.1751688 L55.469805,50.0056104 L55.5379608,49.9574026 C55.8720907,49.7205195 56.1729738,49.5069091 56.4913115,49.3315325 C56.5735972,49.2891429 56.6542206,49.2467532 56.7348439,49.2076883 C56.9484543,49.1303896 57.1803504,49.0505974 57.4272076,49.0040519 C57.5011816,49.0414545 57.5236231,49.0630649 57.5435712,49.0855065 L57.6599348,49.2509091 L57.6906881,49.3523117 L57.739727,49.5085714 C57.5419089,50.2341818 57.5518829,50.8558961 57.7721426,51.4044675 C57.837805,51.6388571 57.9541686,51.8416623 58.1278829,52.0245195 C58.3913634,54.1531429 58.408818,56.2119481 58.177753,58.1377662 C58.0738569,58.7852468 57.9300647,59.5441039 57.6582725,60.2622338 C57.5219608,60.5398442 57.3540647,60.8224416 57.1304803,61.1507532 C56.8345842,61.4981818 56.4962985,61.8223377 56.0965063,62.139013 C55.7806621,62.3692468 55.3002465,62.7075325 54.7732855,62.9693506 C54.6693894,62.980987 54.6269998,62.980987 54.5854413,62.980987 L54.5106361,62.8712727 C54.3194673,62.6360519 54.0343764,62.5072208 53.7085582,62.5072208 C53.4932855,62.5072208 53.2805063,62.5645714 53.1101167,62.6676364 C52.8474673,62.8164156 52.6529738,63.0782338 52.5773374,63.3841039 C52.5025322,63.6833247 52.5474154,63.9783896 52.7053374,64.2152727 C52.8158829,64.3931429 52.9322465,64.5818182 53.0727141,64.7447273 C53.1483504,64.8336623 53.3445063,65.0481039 53.5232076,65.1303896 C53.7609219,65.2392727 53.9454413,65.3215584 54.1615452,65.3747532 C54.3460647,65.4246234 54.5629998,65.4487273 54.8256491,65.4487273 C55.5005582,65.4329351 56.1156231,65.1636364 56.6284543,64.9026494 C57.207779,64.6134026 57.73474,64.2825974 58.2392595,63.8919481 C58.4636751,63.7198961 58.6781167,63.5345455 58.8892335,63.3467013 C59.0986881,63.1563636 59.2748959,62.9261299 59.4519348,62.6859221 L59.5466881,62.5662338 C59.9373374,62.0384416 60.1800387,61.4183896 60.3853374,60.8265974 C60.5823244,60.2713766 60.6554673,59.6646234 60.7136491,59.0911169 L60.7460647,58.8442597 C60.8050777,58.3164675 60.8366621,57.7662338 60.8466361,57.1129351 C60.8632595,55.8387532 60.8092335,54.5911688 60.6878829,53.4042597 C60.6230517,52.7675844 60.5515712,52.1309091 60.456818,51.4917403 C60.5224803,51.3313247 60.5482465,51.1692468 60.5316231,51.0271169 L60.5075193,50.9373506 L60.5158309,50.939013 C60.5440907,50.7835844 60.589805,50.6381299 60.6355193,50.4951688 L60.6712595,50.3788052 C60.6970257,50.3006753 60.722792,50.2225455 60.74274,50.1444156 C60.8108959,49.8917403 60.865753,49.6382338 60.9214413,49.3855584 C61.0511037,48.6931948 61.1716231,48.0157922 61.2198309,47.3209351 C61.2821686,46.2836364 61.2622206,45.2712727 61.2431037,44.2913247 L61.2364543,43.8366753 L61.229805,43.5707013 C61.2173374,42.7362078 61.2007141,41.9665455 61.1583244,41.2135065 L61.1973894,41.1162597 C61.3337011,40.7621818 61.4700128,40.4014545 61.5897011,40.0407273 L61.7492855,39.5794286 L61.7908439,39.4597403 C61.9146881,39.1023377 62.0377011,38.7449351 62.1415972,38.3875325 L62.2621167,37.9794286 L62.6644024,36.6021818 C62.7616491,36.2771948 62.8364543,35.9497143 62.9079348,35.6214026 L62.9337011,35.5141818 L63.0442465,35.0138182 C63.2861167,33.9931429 63.4739608,32.9201039 63.602792,31.8246234 L63.6551556,31.3799481 C63.7033634,30.9934545 63.7524024,30.6044675 63.7781686,30.2171429 L63.8105842,29.691013 L63.8463244,29.1590649 L63.8629478,28.9446234 C63.8754154,28.7758961 63.8887141,28.603013 63.8920387,28.4342857 L63.9011816,27.4867532 L63.9144803,26.5350649 C63.9211296,25.9997922 63.8862206,25.4553766 63.8479868,24.8793766 C63.784818,23.9559481 63.6742725,23.0923636 63.5188439,22.2902857 C63.3792076,21.563013 63.1572855,20.8498701 62.9428439,20.1591688 L62.8040387,19.7211429 C62.6743764,19.2980779 62.5181167,18.8824935 62.3626881,18.4702338 L62.2720907,18.2333506 C61.7733894,16.9076364 61.1766102,15.3732987 60.397805,13.9561558 C59.7910517,12.8531948 59.0371816,11.8707532 58.3805582,11.0562078 L58.1145842,10.7312208 C57.8710517,10.4286753 57.6275193,10.126961 57.3706881,9.83106494 L57.1404543,9.56509091 L57.0116231,9.41714286 C56.4040387,8.71812987 55.7756751,7.99418182 55.1140647,7.31761039 C54.6918309,6.88290909 54.2596231,6.46067532 53.8182725,6.04509091 C53.4425842,5.69516883 53.0386361,5.38680519 52.5873115,5.04768831 L52.3886621,4.89807792 C51.6223244,4.31958442 50.7820128,3.74192208 49.6649219,3.02462338 C48.680818,2.38711688 47.6709478,1.87594805 46.66274,1.50441558 L46.3901167,1.40051948 C46.1922985,1.32571429 45.9936491,1.25090909 45.7925063,1.18275325 C45.1549998,0.961662338 44.466792,0.791272727 43.560818,0.630857143 C42.7562465,0.494545455 42.1420128,0.429714286 41.5693374,0.41974026 C41.2318829,0.413090909 40.8969219,0.409766234 40.5594673,0.406441558" id="Fill-21" fill="#161616"></path>
                <path d="M32.8354154,81.4352623 C32.833753,81.4352623 32.8312595,81.4352623 32.8295972,81.4352623 C32.8312595,81.4352623 32.833753,81.4352623 32.8354154,81.4352623 M41.1770257,75.432561 C40.887779,75.9428987 40.621805,76.4623792 40.32674,76.9652364 C40.1871037,77.2054442 40.0374933,77.4390026 39.9011816,77.6792104 C39.81474,77.8296519 39.7266361,77.9751065 39.6285582,78.1147429 C39.3817011,78.3931844 39.1015972,78.6300675 38.8198309,78.8711065 C38.5480387,79.1021714 38.2745842,79.3332364 37.9944803,79.5568208 C37.6636751,79.7770805 37.3129219,79.9591065 36.9629998,80.143626 C36.7942725,80.2317299 36.6255452,80.3223273 36.4559868,80.4162494 C36.2573374,80.527626 36.0620128,80.6448208 35.8567141,80.7420675 C35.4078829,80.8999896 34.9374413,81.0163532 34.4694933,81.1111065 C33.9109478,81.2241455 33.3524024,81.3338597 32.7938569,81.4410805 C32.4206621,81.4909506 32.045805,81.5416519 31.6742725,81.5915221 C31.735779,81.5823792 31.8006102,81.5757299 31.8621167,81.5657558 C31.7224803,81.5823792 31.5795193,81.5948468 31.4398829,81.6081455 C31.2487141,81.6272623 31.0866361,81.6729766 30.9469998,81.812613 C30.8131816,81.9456 30.7392076,82.1243013 30.7392076,82.3096519 C30.7392076,82.6637299 31.0600387,83.0460675 31.4398829,83.0111584 C32.4564024,82.9164052 33.4596231,82.7510026 34.4595193,82.5689766 C34.8884024,82.4941714 35.3131296,82.4135481 35.7386881,82.3287688 C35.9398309,82.2863792 36.1384803,82.2381714 36.3362985,82.1799896 C36.6346881,82.0918857 36.8981686,81.9298078 37.1641426,81.7768727 C37.5248699,81.5757299 37.8880907,81.3837299 38.248818,81.1792623 C38.6411296,80.9556779 38.9918829,80.6797299 39.3326621,80.3838338 C39.9335972,79.8710026 40.5669478,79.3548468 40.9916751,78.6799377 C41.0955712,78.5137039 41.1836751,78.3358338 41.2842465,78.1629506 C41.4172335,77.9393662 41.5502206,77.7149506 41.6807141,77.4880416 C41.9300647,77.0466909 42.1445063,76.5853922 42.3722465,76.1307429 C42.5442985,75.796613 42.4661686,75.3843532 42.1253894,75.1857039 C42.0181686,75.1225351 41.8976491,75.0917818 41.7779608,75.0917818 C41.5385842,75.0917818 41.3008699,75.2139636 41.1770257,75.432561" id="Fill-24" fill="#161616"></path>
                <path d="M20.3106985,78.8317922 C20.3372959,78.8658701 20.3647244,78.8991169 20.3913219,78.9331948 C20.3638933,78.8999481 20.3372959,78.8658701 20.3106985,78.8317922 M18.3532959,69.2866494 C18.1937115,69.3772468 18.0249842,69.5625974 17.9958933,69.7504416 C17.8205167,70.8741818 17.6226985,71.9937662 17.4697634,73.1208312 C17.3982829,73.6594286 17.3467504,74.1988571 17.3234777,74.7407792 C17.3043608,75.2411429 17.379166,75.7406753 17.4597894,76.2310649 C17.5345946,76.6790649 17.6326725,77.1220779 17.7540231,77.5576104 C17.3708543,77.4454026 16.9228543,77.5160519 16.6485686,77.8285714 C16.5604647,77.9258182 16.473192,78.0197403 16.4208283,78.1369351 C16.30114,78.3970909 16.2687244,78.5167792 16.2363089,78.8027013 C16.1972439,79.1401558 16.2753738,79.4742857 16.3950621,79.7892987 C16.5189063,80.1176104 16.6776595,80.4392727 16.8463868,80.7443117 C17.0674777,81.1366234 17.5545426,81.3252987 17.9825946,81.2047792 C18.0150102,81.1964675 18.0465946,81.1856623 18.0773478,81.1731948 C18.1637894,81.2446753 18.2502309,81.3144935 18.3366725,81.3834805 C18.7007244,81.6727273 19.0772439,81.9453506 19.4504387,82.217974 C19.7687764,82.4515325 20.0804647,82.6892468 20.4046206,82.9095065 C20.8559452,83.2145455 21.327218,83.4647273 21.8367244,83.6567273 C22.2065946,83.7963636 22.6388024,83.8478961 23.0286206,83.8088312 C23.346127,83.7764156 23.6810881,83.6982857 23.9146465,83.4647273 C24.2063868,83.172987 24.3460231,82.5853506 24.0833738,82.2312727 C23.9728283,82.084987 23.8689322,81.9553247 23.7326206,81.8381299 C23.5996335,81.7242597 23.4599972,81.6178701 23.3203608,81.513974 C23.1549582,81.3901299 22.9795816,81.2795844 22.8075296,81.1598961 C22.5623348,80.987013 22.3096595,80.8232727 22.0669582,80.6454026 C21.4643608,80.1442078 20.9108024,79.5798442 20.4179193,78.9681039 C20.1344907,78.5724675 19.8859712,78.1643636 19.6806725,77.7238442 C19.3723089,76.9408831 19.1246206,76.1105455 18.9908024,75.2785455 C18.9143348,74.5313247 18.984153,73.7799481 19.0631141,73.0352208 C19.1952699,72.0752208 19.3448803,71.1202078 19.4928283,70.1627013 C19.5252439,69.9482597 19.5285686,69.7604156 19.4146985,69.5659221 C19.314127,69.3905455 19.1453998,69.2600519 18.9500751,69.2085195 C18.8827504,69.1894026 18.8145946,69.1810909 18.7456076,69.1810909 C18.6084647,69.1810909 18.472153,69.2168312 18.3532959,69.2866494" id="Fill-26" fill="#161616"></path>
                <path d="M38.0769322,67.3277506 C38.0968803,67.3186078 38.1159972,67.3094649 38.1351141,67.3003221 C38.115166,67.3094649 38.0960491,67.3186078 38.0769322,67.3277506 L38.0769322,67.3277506 Z M38.6612439,67.6261403 C38.6604128,67.639439 38.6587504,67.6535688 38.6570881,67.6660364 C38.6579193,67.6527377 38.6595816,67.639439 38.6612439,67.6261403 L38.6612439,67.6261403 Z M37.0604128,66.9479065 C37.0396335,66.9661922 37.0180231,66.9836468 36.9964128,67.0019325 C37.0180231,66.9828156 37.0388024,66.9645299 37.0604128,66.9479065 L37.0604128,66.9479065 Z M38.3237894,66.103439 C38.1384387,66.1067636 37.9896595,66.1981922 37.8367244,66.2821403 C37.7195296,66.3469714 37.6098154,66.4217766 37.4992699,66.4965818 C37.4244647,66.5456208 37.3496595,66.6004779 37.288153,66.6686338 C37.2457634,66.7143481 37.2133478,66.7592312 37.1709582,66.8049455 C37.1086206,66.8739325 37.0487764,66.9487377 36.9806206,67.0152312 C36.7869582,67.1756468 36.5849842,67.3302442 36.3855037,67.4865039 C36.2034777,67.6261403 36.1319972,67.8696727 36.2649842,68.0741403 C36.3855037,68.2561662 36.6681011,68.3342961 36.8526206,68.1946597 C37.0545946,68.0384 37.2557374,67.8929455 37.4726725,67.7599584 C37.5890361,67.6884779 37.6945946,67.5978805 37.7984907,67.5056208 C37.8159452,67.4906597 37.8333998,67.4756987 37.8508543,67.4615688 C37.8433738,67.467387 37.8367244,67.4740364 37.8300751,67.4806857 C37.9372959,67.3859325 38.0736076,67.3310753 38.1974517,67.2695688 C38.1766725,67.2795429 38.1558933,67.2903481 38.1351141,67.3003221 C38.228205,67.2562701 38.3212959,67.211387 38.4127244,67.1631792 C38.4193738,67.1665039 38.4243608,67.1689974 38.4310102,67.1723221 C38.4775556,67.2088935 38.5241011,67.2479584 38.5664907,67.2903481 C38.5930881,67.3551792 38.6163608,67.4225039 38.6338154,67.4906597 C38.6429582,67.5671273 38.6479452,67.6427636 38.6487764,67.7192312 C38.6462829,67.7341922 38.6437894,67.7483221 38.6404647,67.7632831 C38.6047244,67.8430753 38.568153,67.9220364 38.5315816,68.0026597 C38.4925167,68.087439 38.4700751,68.1755429 38.4243608,68.2561662 C38.3362569,68.4182442 38.3819712,68.629361 38.5182829,68.7498805 C38.642127,68.860426 38.8790102,68.9053091 39.0186465,68.7856208 C39.1616076,68.6617766 39.3045686,68.5487377 39.4242569,68.4024519 C39.5572439,68.2370494 39.6902309,68.0583481 39.7259712,67.8405818 C39.7492439,67.6976208 39.7492439,67.5613091 39.7259712,67.4183481 C39.7068543,67.3211013 39.6902309,67.2238545 39.6578154,67.1266078 C39.6320491,67.0385039 39.5805167,66.9545558 39.5414517,66.8697766 C39.5555816,66.901361 39.5697115,66.9321143 39.5846725,66.9636987 C39.5123608,66.8091013 39.4383868,66.6952312 39.3170361,66.5647377 C39.2588543,66.4999065 39.1840491,66.4450494 39.1158933,66.389361 C38.898127,66.2106597 38.6180231,66.103439 38.3362569,66.103439 L38.3237894,66.103439 Z" id="Fill-28" fill="#161616"></path>
                <path d="M38.8281426,66.9296208 C38.8264803,66.9287896 38.8239868,66.9271273 38.8223244,66.9254649 L38.8106881,66.9179844 C38.8165063,66.9221403 38.8223244,66.9262961 38.8281426,66.9296208 L38.8281426,66.9296208 Z M35.8459089,67.5288935 C35.8475712,67.5272312 35.8500647,67.5264 35.8508959,67.5247377 C35.851727,67.5239065 35.8525582,67.5230753 35.8533894,67.5222442 C35.8508959,67.5247377 35.8484024,67.5264 35.8459089,67.5288935 L35.8459089,67.5288935 Z M32.6326102,70.7230753 C32.6542206,70.7131013 32.6749998,70.7031273 32.6966102,70.6923221 C32.6749998,70.7022961 32.6542206,70.7131013 32.6326102,70.7230753 L32.6326102,70.7230753 Z M32.6035193,70.7380364 C32.6134933,70.7330494 32.6234673,70.7280623 32.6326102,70.7230753 C32.6234673,70.7280623 32.6134933,70.7330494 32.6035193,70.7380364 L32.6035193,70.7380364 Z M24.3325582,70.9117506 C24.4106881,70.913413 24.488818,70.9159065 24.5652855,70.9192312 C24.5868959,70.9217247 24.6085063,70.9225558 24.6292855,70.923387 C24.6708439,70.9599584 24.7148959,70.9956987 24.759779,71.0297766 C24.616818,70.9990234 24.4763504,70.9607896 24.3392076,70.913413 C24.3682985,70.9267117 24.4007141,70.9358545 24.429805,70.9491532 C24.3973894,70.9366857 24.3649738,70.9242182 24.3325582,70.9117506 L24.3325582,70.9117506 Z M32.5337011,69.7605818 C32.5212335,69.7664 32.508766,69.7722182 32.4962985,69.7788675 C32.508766,69.7722182 32.5212335,69.7664 32.5337011,69.7605818 L32.5337011,69.7605818 Z M39.2404024,68.1597506 L39.2404024,68.1605818 C39.2345842,68.1647377 39.228766,68.1697247 39.223779,68.1738805 C39.228766,68.1697247 39.2345842,68.1647377 39.2404024,68.1597506 L39.2404024,68.1597506 Z M39.2478829,68.1539325 C39.2462206,68.1555948 39.243727,68.1572571 39.2420647,68.1589195 C39.2420647,68.1589195 39.2420647,68.1589195 39.2428959,68.1580883 C39.243727,68.156426 39.2462206,68.1547636 39.2478829,68.1539325 L39.2478829,68.1539325 Z M39.3359868,67.5596468 C39.3401426,67.5671273 39.3434673,67.5737766 39.346792,67.5820883 C39.3434673,67.5737766 39.3393115,67.5671273 39.3359868,67.5596468 L39.3359868,67.5596468 Z M39.3908439,66.6669714 C39.4016491,66.6860883 39.410792,66.7052052 39.4215972,66.7251532 C39.43074,66.7442701 39.4407141,66.7642182 39.4498569,66.7833351 L39.3908439,66.6669714 Z M37.6445582,66.049413 C37.3810777,66.1632831 37.1441946,66.2995948 36.9264283,66.4782961 C36.7901167,66.5888416 36.673753,66.7118545 36.5532335,66.8390234 C36.3296491,67.0775688 36.0944283,67.3019844 35.8533894,67.5222442 C35.8641946,67.5139325 35.8741686,67.5056208 35.8841426,67.4981403 C35.8733374,67.5064519 35.8625322,67.5155948 35.8508959,67.5247377 C35.8375972,67.5372052 35.8234673,67.5505039 35.8101686,67.5629714 C35.8209738,67.5513351 35.8334413,67.5396987 35.8459089,67.5288935 C35.6131816,67.7175688 35.3671556,67.8904519 35.1219608,68.0658286 C34.8551556,68.2578286 34.5891816,68.4523221 34.3232076,68.6468156 C34.0339608,68.8612571 33.7380647,69.0690494 33.4330257,69.264374 C33.1171816,69.4596987 32.7888699,69.6309195 32.45474,69.7988156 C32.429805,69.8079584 32.4065322,69.8195948 32.3840907,69.8328935 C32.2535972,69.8960623 32.1222725,69.9600623 31.991779,70.0240623 C31.6460128,70.1869714 31.3010777,70.3465558 30.9461686,70.4812052 C30.637805,70.5950753 30.3144803,70.6682182 29.9911556,70.7347117 C29.9737011,70.7122701 29.953753,70.6923221 29.9329738,70.6732052 C29.8099608,70.5626597 29.6769738,70.5368935 29.5140647,70.5269195 C29.0502725,70.5011532 28.5856491,70.4720623 28.1185322,70.4587636 C27.6996231,70.4454649 27.2840387,70.4196987 26.8651296,70.3872831 C26.9233115,70.3906078 26.984818,70.3972571 27.0438309,70.4005818 C26.9008699,70.3872831 26.7545842,70.3714909 26.6149478,70.3357506 C26.4886102,70.3033351 26.3614413,70.2576208 26.2384283,70.2152312 L26.4038309,70.273413 C26.2450777,70.2177247 26.0871556,70.1636987 25.9284024,70.1096727 C25.8469478,70.0780883 25.7671556,70.0423481 25.6906881,69.9982961 C25.5643504,69.8960623 25.4463244,69.7796987 25.3224803,69.6733091 C25.1246621,69.4979325 24.9102206,69.3358545 24.6899608,69.1862442 C24.7381686,69.2186597 24.7838829,69.2477506 24.8329219,69.2801662 C24.6833115,69.1795948 24.5469998,69.0532571 24.3782725,68.9784519 C24.2810257,68.9360623 24.173805,68.9003221 24.0665842,68.8745558 C23.9593634,68.8487896 23.8355193,68.8521143 23.7282985,68.8421403 C23.5562465,68.8288416 23.3684024,68.8388156 23.208818,68.9136208 C23.0400907,68.9942442 22.9686102,69.0399584 22.8322985,69.1638026 C22.7450257,69.2411013 22.6801946,69.3416727 22.6186881,69.4422442 C22.5663244,69.5270234 22.5339089,69.6209455 22.5081426,69.712374 C22.4848699,69.7929974 22.4790517,69.8811013 22.4815452,69.9617247 C22.4890257,70.0731013 22.5189478,70.1528935 22.5605063,70.2434909 C22.5704803,70.3606857 22.5979089,70.4762182 22.647779,70.588426 C22.7350517,70.7837506 22.8588959,70.9524779 23.0342725,71.0788156 C23.2254413,71.2184519 23.4432076,71.3256727 23.6509998,71.4428675 C23.9136491,71.5916468 24.2186881,71.6864 24.5145842,71.760374 C24.6700128,71.799439 24.8362465,71.8127377 24.9949998,71.8318545 C25.1894933,71.8551273 25.3814933,71.8742442 25.5759868,71.8941922 C25.7804543,71.9166338 25.9849219,71.9390753 26.1927141,71.9490494 C26.4038309,71.9623481 26.6149478,71.9556987 26.8260647,71.9490494 C27.0596231,71.9424 27.2906881,71.9232831 27.5209219,71.9033351 C27.7802465,71.8808935 28.043727,71.8709195 28.3030517,71.8484779 C28.786792,71.8027636 29.2680387,71.7479065 29.7484543,71.6631273 C30.2612855,71.5725299 30.770792,71.4786078 31.2678309,71.3156987 C31.7282985,71.164426 32.1671556,70.9499844 32.6035193,70.7380364 C32.5985322,70.7396987 32.5943764,70.7421922 32.5893894,70.7446857 C32.6608699,70.7089455 32.7323504,70.6732052 32.8029998,70.6407896 C32.813805,70.6349714 32.823779,70.6299844 32.833753,70.6241662 C32.8603504,70.6116987 32.8869478,70.5975688 32.9135452,70.5851013 C33.3100128,70.3939325 33.6832076,70.1695169 34.0472595,69.9259844 C34.2026881,69.8220883 34.3489738,69.712374 34.4919348,69.5951792 C34.6415452,69.4655169 34.7861686,69.3308675 34.9349478,69.1978805 C35.1984283,68.9742961 35.4735452,68.7590234 35.7478309,68.5495688 C36.0046621,68.3584 36.2673115,68.1796987 36.520818,67.9852052 C36.7153115,67.8389195 36.8973374,67.6826597 37.0693894,67.5072831 C37.1666361,67.4050494 37.2613894,67.3003221 37.3652855,67.2030753 C37.5032595,67.088374 37.6487141,66.9911273 37.805805,66.9071792 C37.9196751,66.8556468 38.0302206,66.8107636 38.1499089,66.7791792 C38.2454933,66.7667117 38.3435712,66.7650494 38.4424803,66.7700364 C38.4989998,66.7775169 38.5555193,66.7883221 38.6112076,66.8016208 C38.6818569,66.8340364 38.7475193,66.8755948 38.8106881,66.9179844 C38.8065322,66.9138286 38.8015452,66.9105039 38.7965582,66.9071792 C38.8057011,66.9129974 38.8140128,66.9188156 38.8223244,66.9254649 C38.8289738,66.9296208 38.8364543,66.9346078 38.8431037,66.9395948 C38.8381167,66.9362701 38.8331296,66.9329455 38.8281426,66.9296208 C38.8530777,66.9487377 38.8771816,66.9695169 38.9004543,66.9919584 C38.9711037,67.0767377 39.0409219,67.1598545 39.1115712,67.2413091 C39.11074,67.2404779 39.1090777,67.2388156 39.1082465,67.2379844 C39.2005063,67.3485299 39.2811296,67.4707117 39.3526102,67.5970494 C39.3551037,67.6036987 39.3575972,67.6095169 39.3592595,67.6161662 C39.3659089,67.6710234 39.3650777,67.7242182 39.3609219,67.777413 C39.346792,67.8746597 39.3152076,67.9652571 39.2861167,68.0575169 C39.2744803,68.0882701 39.2620128,68.1181922 39.2470517,68.1472831 C39.2354154,68.1605818 39.2246102,68.1738805 39.208818,68.1863481 C39.2113115,68.1846857 39.2129738,68.1821922 39.2154673,68.1805299 C39.0882985,68.2869195 38.9511556,68.3866597 38.8231556,68.4947117 C38.7350517,68.5695169 38.6959868,68.6825558 38.7641426,68.7831273 C38.8231556,68.8712312 38.9661167,68.9169455 39.0533894,68.8421403 C39.1473115,68.7606857 39.2445582,68.6825558 39.3459608,68.6052571 C39.4365582,68.5337766 39.533805,68.4689455 39.5986361,68.3675429 C39.6443504,68.299387 39.6701167,68.215439 39.7058569,68.1373091 C39.7548959,68.043387 39.7972855,67.9552831 39.8230517,67.851387 C39.858792,67.6992831 39.8679348,67.5430234 39.8297011,67.3909195 C39.8064283,67.3061403 39.7548959,67.2221922 39.7125063,67.1440623 C39.666792,67.0626078 39.6185842,66.9878026 39.5595712,66.9163221 C39.5080387,66.8514909 39.4556751,66.7899844 39.4166102,66.7151792 C39.4166102,66.7160104 39.4174413,66.7160104 39.4174413,66.7168416 C39.361753,66.6054649 39.3019089,66.5148675 39.2221167,66.4201143 C39.1705842,66.3586078 39.1215452,66.2962701 39.0666881,66.2347636 C38.9885582,66.1474909 38.8879868,66.0884779 38.780766,66.0435948 C38.6028959,65.9679584 38.411727,65.9305558 38.2205582,65.9305558 C38.02274,65.9305558 37.825753,65.9704519 37.6445582,66.049413 L37.6445582,66.049413 Z" id="Fill-30" fill="#161616"></path>
                <path d="M27.346792,77.0890805 C27.3476231,77.0890805 27.3484543,77.0890805 27.3484543,77.0890805 C27.3501167,77.0890805 27.3509478,77.0882494 27.351779,77.0882494 C27.3501167,77.0882494 27.3484543,77.0890805 27.346792,77.0890805 M23.2133894,77.027574 C23.2333374,77.0342234 23.2532855,77.0408727 23.2724024,77.0483532 C23.2532855,77.0417039 23.2333374,77.0350545 23.2133894,77.027574 M22.6706361,76.3534961 C22.6731296,76.3667948 22.6756231,76.3800935 22.6781167,76.3950545 C22.674792,76.3809247 22.6731296,76.3667948 22.6706361,76.3534961 M21.995727,74.9371844 C21.9408699,75.3560935 21.9184283,75.7774961 21.8660647,76.1997299 C21.8469478,76.3293922 21.8269998,76.4657039 21.8369738,76.5961974 C21.8436231,76.7092364 21.8660647,76.8231065 21.8918309,76.9336519 C21.9084543,77.0018078 21.9308959,77.066639 21.9574933,77.1314701 C22.0256491,77.2910545 22.0971296,77.4631065 22.2134933,77.5994182 C22.2982725,77.6999896 22.3822206,77.800561 22.4769738,77.8878338 C22.6191037,78.0216519 22.807779,78.1056 22.9864803,78.1770805 C23.1718309,78.2518857 23.3563504,78.3167169 23.5516751,78.3657558 C23.723727,78.4073143 23.895779,78.4272623 24.0711556,78.4430545 C24.2589998,78.4663273 24.4443504,78.4854442 24.6321946,78.4887688 C24.8208699,78.4920935 25.0120387,78.4729766 25.2007141,78.4563532 C25.6129738,78.4239377 26.0219089,78.3524571 26.4283504,78.2710026 C26.8206621,78.1970286 27.2038309,78.0540675 27.5803504,77.923574 C28.3500128,77.6609247 29.0939089,77.352561 29.8269998,77.0018078 C29.9051296,76.9627429 29.9633115,76.9270026 30.0057011,76.8488727 C30.0414413,76.7748987 30.0480907,76.6867948 30.0223244,76.6086649 C29.9666361,76.446587 29.7912595,76.3618078 29.6291816,76.4141714 C28.8761426,76.6560416 28.1255972,76.9211844 27.351779,77.0882494 C27.3742206,77.0840935 27.3958309,77.0799377 27.4182725,77.076613 L27.3484543,77.0890805 C27.3326621,77.0924052 27.3168699,77.0957299 27.3010777,77.0990545 C27.3160387,77.0948987 27.3309998,77.0924052 27.346792,77.0890805 C26.4981686,77.2411844 25.6404024,77.4007688 24.776818,77.3492364 C24.540766,77.322639 24.3072076,77.2694442 24.0736491,77.2320416 C23.8118309,77.1921455 23.5599868,77.1414442 23.309805,77.0599896 C23.2275193,77.0259117 23.1502206,76.9876779 23.0729219,76.9427948 C23.0230517,76.9053922 22.9756751,76.8654961 22.9299608,76.8222753 C22.8651296,76.7408208 22.8061167,76.6560416 22.7545842,76.5654442 C22.7163504,76.4798338 22.684766,76.3942234 22.6631556,76.303626 C22.6224283,76.0235221 22.6324024,75.7392623 22.6457011,75.4574961 C22.6598309,75.3336519 22.6722985,75.2098078 22.6905842,75.0859636 C22.7138569,74.8947948 22.6191037,74.7094442 22.4179608,74.6670545 C22.3955193,74.6620675 22.3722465,74.659574 22.3481426,74.659574 C22.1885582,74.659574 22.0181686,74.7701195 21.995727,74.9371844" id="Fill-32" fill="#161616"></path>
                <path d="M19.7554777,67.2144623 C19.7538154,67.217787 19.7513219,67.2211117 19.7496595,67.2244364 C19.7513219,67.2211117 19.7538154,67.217787 19.7554777,67.2144623 M19.7554777,67.2103065 C19.747166,67.2169558 19.7380231,67.2236052 19.7305426,67.2310857 C19.7380231,67.2236052 19.7463348,67.2169558 19.7554777,67.2103065 M25.1165167,66.2262026 C25.0973998,66.2444883 25.0774517,66.2619429 25.0583348,66.2793974 C25.0774517,66.2619429 25.0965686,66.2436571 25.1165167,66.2262026 M24.6294517,64.2796052 C24.2529322,64.2987221 23.8797374,64.3635532 23.5065426,64.4192416 C23.272153,64.4549818 23.0452439,64.5131636 22.8150102,64.5680208 C22.6130361,64.6170597 22.4085686,64.6594494 22.2107504,64.7143065 C22.0420231,64.7633455 21.8732959,64.8082286 21.7078933,64.8572675 C21.5449842,64.9063065 21.396205,64.9969039 21.2532439,65.0841766 C21.1036335,65.1789299 20.9415556,65.2504104 20.7952699,65.3543065 C20.6423348,65.4648519 20.4835816,65.5620987 20.3372959,65.6784623 C20.2076335,65.7856831 20.0937634,65.9028779 19.9707504,66.0167481 C19.8377634,66.1364364 19.7072699,66.2660987 19.6299712,66.4323325 C19.5809322,66.5295792 19.5293998,66.626826 19.4737115,66.7207481 C19.3797894,66.8736831 19.2883608,67.1238649 19.4479452,67.2659948 C19.6075296,67.4172675 19.8194777,67.2709818 19.9798933,67.1828779 C20.1062309,67.133839 20.2408803,67.1105662 20.3697115,67.0590338 C20.4253998,67.035761 20.4902309,67.025787 20.5450881,67.0066701 C20.65314,66.9709299 20.761192,66.9459948 20.8717374,66.9193974 C21.0529322,66.8861506 21.2332959,66.8603844 21.4086725,66.8088519 C21.8209322,66.6850078 22.2240491,66.5362286 22.6263348,66.3866182 C23.0892959,66.2137351 23.5564128,66.050826 24.0310102,65.9120208 C24.2288283,65.9128519 24.4266465,65.9211636 24.6219712,65.9344623 C24.793192,65.9544104 24.9619193,65.9843325 25.1298154,66.0391896 C25.1023868,66.0292156 25.0757894,66.0200727 25.049192,66.0100987 C25.1007244,66.0283844 25.1522569,66.045839 25.2037894,66.0624623 C25.2145946,66.0674494 25.2262309,66.0716052 25.2370361,66.0765922 C25.2378673,66.0865662 25.2386985,66.0965403 25.2395296,66.1065143 C25.2071141,66.1405922 25.1730361,66.173839 25.1389582,66.2054234 C24.8954257,66.395761 24.6095037,66.5270857 24.3335556,66.6625662 C24.0700751,66.7805922 23.8016076,66.8795013 23.5356335,66.9966961 C23.0543868,67.2086442 22.5930881,67.4663065 22.1226465,67.7073455 C21.8724647,67.8270338 21.6231141,67.9417351 21.3795816,68.0713974 C21.2432699,68.1462026 21.1136076,68.2210078 20.9839452,68.3049558 C20.8343348,68.4030338 20.6980231,68.5293714 20.5583868,68.6465662 C20.4478413,68.7404883 20.3630621,68.827761 20.3306465,68.9773714 C20.3015556,69.1203325 20.3273219,69.2699429 20.4087764,69.3863065 C20.5708543,69.6331636 20.9058154,69.6979948 21.1493478,69.5392416 C21.4377634,69.3538909 21.7170361,69.1527481 22.0129322,68.9773714 C22.2705946,68.8260987 22.5257634,68.6789818 22.7884128,68.5401766 C23.3486206,68.290826 23.9462309,68.1636571 24.5222309,67.9608519 C24.6884647,67.9026701 24.847218,67.8278649 25.0092959,67.7597091 C25.2794257,67.6433455 25.5578673,67.5361247 25.8047244,67.3698909 C25.9933998,67.2468779 26.1654517,67.1072416 26.324205,66.9484883 C26.4156335,66.8537351 26.4904387,66.7307221 26.5419712,66.6102026 C26.6300751,66.4057351 26.6525167,66.2336831 26.6683089,66.0167481 C26.6849322,65.8023065 26.6525167,65.597839 26.6068024,65.3933714 C26.5486206,65.1265662 26.3665946,64.9254234 26.191218,64.7309299 C25.9967244,64.5164883 25.6684128,64.3768519 25.3924647,64.3186701 C25.231218,64.2829299 25.0649842,64.2712935 24.8995816,64.2712935 C24.8098154,64.2712935 24.719218,64.2746182 24.6294517,64.2796052" id="Fill-34" fill="#161616"></path>
                <path d="M54.1188231,57.2090182 C54.1013686,57.2248104 54.0830829,57.2389403 54.063966,57.2514078 C54.0822517,57.2372779 54.1005374,57.2231481 54.1188231,57.2090182 M54.3174725,55.1676675 C54.314979,55.1876156 54.3124855,55.2083948 54.309992,55.2283429 C54.3116543,55.2083948 54.314979,55.1884468 54.3174725,55.1676675 M54.0864076,54.5093818 C54.0681219,54.5168623 54.0514985,54.5235117 54.0340439,54.530161 C54.0514985,54.5235117 54.068953,54.5160312 54.0864076,54.5093818 M54.2451608,54.4761351 C54.2584595,54.5019013 54.2700959,54.5276675 54.2775764,54.5567584 C54.2676024,54.5309922 54.2576283,54.5027325 54.2451608,54.4761351 M54.13794,54.4204468 C54.1645374,54.4279273 54.1886413,54.4387325 54.2127452,54.4503688 C54.2119141,54.4503688 54.2102517,54.4495377 54.2094206,54.4495377 C54.186979,54.4395636 54.1628751,54.4287584 54.13794,54.4204468 M54.1412647,53.6308364 C54.063966,53.634161 53.9891608,53.6507844 53.921005,53.6832 C53.7198621,53.7513558 53.5345115,53.8552519 53.3558102,53.9624727 C53.1613167,54.0755117 53.0898361,54.3356675 53.2061998,54.5334857 C53.3200699,54.7288104 53.5802257,54.7969662 53.7780439,54.6830961 C53.8894206,54.6149403 53.999966,54.5559273 54.1171608,54.4969143 C54.1529011,54.4827844 54.1894725,54.4703169 54.2260439,54.4595117 L54.2326933,54.4603429 L54.2385115,54.4644987 C54.2393426,54.4644987 54.2393426,54.4653299 54.2393426,54.466161 C54.2775764,54.564239 54.3108231,54.6614857 54.3357582,54.761226 C54.3390829,54.8900571 54.3332647,55.0147325 54.319966,55.1410701 C54.2725894,55.4968104 54.2277063,55.8567065 54.186979,56.2124468 C54.1537322,56.4925506 54.1595504,56.7734857 54.1354465,57.0519273 C54.1304595,57.0835117 54.1221478,57.1134338 54.113005,57.144187 C54.0947193,57.1824208 54.0747712,57.218161 54.0514985,57.2530701 L54.0406933,57.2655377 C54.0215764,57.277174 54.0007972,57.2871481 53.9791868,57.2962909 C53.7713946,57.400187 53.7132128,57.6894338 53.8262517,57.8814338 C53.88194,57.9753558 53.9758621,58.0468364 54.0830829,58.0759273 C54.2036024,58.1116675 54.3008491,58.0825766 54.4113946,58.0335377 C54.6640699,57.9229922 54.8527452,57.6894338 54.9308751,57.4267844 C54.9957063,57.2189922 55.0048491,57.0078753 55.0081738,56.7934338 C55.0148231,56.5008623 55.0281219,56.2124468 55.0638621,55.9198753 C55.0796543,55.7544727 55.0996024,55.5890701 55.1220439,55.4203429 C55.1386673,55.2773818 55.1611089,55.1310961 55.1744076,54.9848104 C55.1935244,54.761226 55.1544595,54.5467844 55.082979,54.3356675 C55.0347712,54.1993558 54.9824076,54.0696935 54.8976283,53.9524987 C54.8593946,53.8909922 54.8103556,53.8419532 54.7455244,53.8028883 C54.7197582,53.7837714 54.6898361,53.7638234 54.6607452,53.7413818 C54.5959141,53.7122909 54.5310829,53.6832 54.462927,53.6541091 C54.3914465,53.6374857 54.319966,53.6250182 54.2484855,53.6183688 C54.2127452,53.6216935 54.177005,53.6275117 54.1412647,53.6308364" id="Fill-5" fill="#161616"></path>
            </g>
            <g id="Group-36">
                <g id="Group">
                    <g id="Group-23" transform="translate(0.000000, 0.406442)"></g>
                </g>
            </g>
        </g>
    </g>
</svg>