<svg width="500" height="600" viewBox="0 0 500 600" fill="none" xmlns="http://www.w3.org/2000/svg">
<path fill-rule="evenodd" clip-rule="evenodd" d="M196.158 193.825V193.828L196.161 193.825H196.158ZM187.993 130.058L186.273 130.126C185.933 130.139 185.587 130.171 185.246 130.194L183.468 130.317C183.172 130.337 182.877 130.383 182.581 130.421C181.961 130.496 181.337 130.574 180.717 130.651C180.444 130.685 180.173 130.726 179.903 130.775C178.828 130.976 177.753 131.181 176.679 131.382C176.412 131.434 176.149 131.512 175.887 131.577C175.253 131.737 174.62 131.895 173.984 132.051C173.571 132.155 173.159 132.258 172.746 132.36C172.176 132.502 171.61 132.674 171.045 132.837C170.912 132.875 170.799 132.963 170.73 133.083C170.662 133.203 170.643 133.345 170.678 133.479C170.753 133.752 171.048 133.921 171.321 133.844C171.864 133.687 172.402 133.522 172.951 133.386C173.311 133.297 173.675 133.206 174.036 133.12C174.922 132.898 175.806 132.68 176.691 132.46C177.198 132.337 177.714 132.258 178.227 132.161C178.97 132.025 179.712 131.891 180.455 131.751C181.387 131.638 182.321 131.531 183.257 131.421C183.594 131.379 183.935 131.376 184.272 131.353L186.048 131.246C186.38 131.226 186.711 131.223 187.039 131.217C187.578 131.2 188.119 131.187 188.659 131.171C189.081 131.158 189.506 131.187 189.929 131.194C190.315 131.204 190.705 131.197 191.091 131.23C191.551 131.272 192.012 131.315 192.473 131.355L193.299 131.495C193.568 131.541 193.834 131.616 194.101 131.681C194.604 131.807 195.097 131.983 195.594 132.145C195.929 132.253 196.298 132.022 196.39 131.691C196.487 131.337 196.273 131.006 195.938 130.892C195.117 130.612 194.273 130.408 193.415 130.282C193.185 130.249 192.955 130.213 192.72 130.181C192.478 130.148 192.23 130.139 191.984 130.119C191.574 130.09 191.163 130.044 190.75 130.044C190.155 130.042 189.559 130.038 188.964 130.032C188.639 130.032 188.318 130.044 187.994 130.058H187.993ZM210.12 161.634C210.102 161.649 210.084 161.664 210.064 161.676L210.119 161.634H210.12ZM210.318 159.592L210.31 159.653L210.318 159.593V159.592ZM210.087 158.934C210.069 158.941 210.052 158.948 210.034 158.955L210.087 158.935V158.934ZM210.245 158.901C210.259 158.926 210.27 158.953 210.278 158.981C210.268 158.956 210.258 158.928 210.245 158.901ZM210.138 158.845C210.165 158.853 210.189 158.864 210.213 158.875H210.21C210.187 158.865 210.163 158.854 210.138 158.845ZM210.142 158.055C210.066 158.058 209.991 158.076 209.922 158.108C209.724 158.181 209.534 158.275 209.356 158.388C209.261 158.444 209.192 158.536 209.164 158.642C209.136 158.749 209.151 158.862 209.206 158.958C209.263 159.053 209.355 159.121 209.461 159.149C209.568 159.177 209.682 159.162 209.778 159.108C209.89 159.04 210 158.981 210.118 158.922C210.153 158.908 210.19 158.895 210.226 158.884L210.233 158.885L210.239 158.889V158.891C210.278 158.989 210.311 159.086 210.336 159.186C210.339 159.315 210.334 159.44 210.32 159.566C210.273 159.922 210.228 160.282 210.187 160.637C210.154 160.917 210.16 161.198 210.136 161.477C210.13 161.508 210.123 161.539 210.113 161.569C210.095 161.607 210.075 161.643 210.052 161.678L210.041 161.69C210.021 161.702 210.001 161.712 209.98 161.721C209.772 161.825 209.714 162.114 209.827 162.306C209.882 162.4 209.977 162.472 210.083 162.501C210.203 162.536 210.301 162.507 210.412 162.458C210.537 162.4 210.648 162.316 210.738 162.212C210.827 162.107 210.894 161.984 210.932 161.852C210.988 161.645 211.013 161.432 211.008 161.218C211.015 160.926 211.028 160.638 211.064 160.345C211.08 160.179 211.1 160.014 211.122 159.845C211.139 159.702 211.162 159.555 211.175 159.41C211.19 159.189 211.159 158.968 211.083 158.76C211.04 158.624 210.978 158.495 210.898 158.377C210.86 158.315 210.808 158.264 210.746 158.227C210.72 158.209 210.69 158.189 210.661 158.167C210.595 158.137 210.529 158.108 210.463 158.079C210.392 158.062 210.321 158.05 210.249 158.043C210.213 158.047 210.177 158.053 210.142 158.056V158.055ZM181.95 139.491H181.953C181.899 139.466 181.844 139.443 181.788 139.423C181.843 139.445 181.895 139.469 181.95 139.491Z" fill="#161616"/>
<path fill-rule="evenodd" clip-rule="evenodd" d="M181.95 139.491H181.953C181.899 139.466 181.844 139.443 181.788 139.423C181.843 139.445 181.895 139.469 181.95 139.491Z" fill="#161616"/>
<path fill-rule="evenodd" clip-rule="evenodd" d="M181.95 139.491H181.953C181.899 139.466 181.844 139.443 181.788 139.423C181.843 139.445 181.895 139.469 181.95 139.491ZM187.257 137.133H187.255H187.258H187.257V137.133ZM195.783 137.191L195.75 137.165C195.76 137.175 195.772 137.185 195.783 137.191ZM191.191 137.217L191.266 137.227C191.241 137.224 191.216 137.221 191.191 137.217V137.217ZM189.396 135.747L188.591 135.757C187.561 135.775 186.539 135.933 185.552 136.227C184.962 136.405 184.38 136.623 183.822 136.889C183.309 137.133 182.815 137.425 182.335 137.73C182.195 137.815 182.093 137.952 182.052 138.11C182.011 138.269 182.032 138.437 182.113 138.58C182.279 138.863 182.675 138.984 182.961 138.802C183.541 138.425 184.149 138.094 184.781 137.812C185.578 137.494 186.407 137.266 187.255 137.133C187.222 137.137 187.188 137.142 187.155 137.146L187.257 137.133L187.325 137.123C187.303 137.127 187.28 137.13 187.258 137.133C187.762 137.074 188.268 137.048 188.776 137.048C189.036 137.048 189.299 137.042 189.558 137.058C189.831 137.074 190.107 137.078 190.376 137.114L191.096 137.204C191.466 137.27 191.839 137.324 192.208 137.405C192.629 137.497 193.048 137.594 193.468 137.701C193.821 137.788 194.165 137.902 194.506 138.025C194.656 138.085 194.808 138.143 194.961 138.197C195.084 138.24 195.208 138.262 195.334 138.285C195.601 138.334 195.864 138.256 196.006 138.013C196.046 137.944 196.072 137.868 196.082 137.788C196.092 137.709 196.086 137.629 196.065 137.552C196.022 137.392 195.922 137.292 195.792 137.197L195.782 137.191C195.794 137.2 195.805 137.208 195.814 137.217C195.706 137.131 195.591 137.056 195.47 136.99C195.276 136.882 195.068 136.804 194.864 136.724C194.509 136.59 194.145 136.48 193.776 136.395C192.938 136.191 192.091 136 191.231 135.899C190.797 135.842 190.361 135.8 189.925 135.772C189.763 135.764 189.598 135.746 189.436 135.746H189.396V135.747Z" fill="#161616"/>
<path fill-rule="evenodd" clip-rule="evenodd" d="M184.567 138.07L184.505 138.098C184.525 138.088 184.546 138.08 184.567 138.071V138.07ZM189.747 135.973C189.286 135.996 188.831 136.026 188.371 136.062C188.007 136.091 187.643 136.13 187.283 136.172C186.919 136.214 186.552 136.252 186.195 136.331C186.025 136.367 185.851 136.396 185.685 136.444L185.026 136.639C184.123 136.905 183.276 137.359 182.442 137.789C182.152 137.938 182.072 138.334 182.227 138.603C182.4 138.893 182.754 138.964 183.043 138.814C183.525 138.568 184.005 138.317 184.5 138.1C184.812 137.972 185.127 137.853 185.448 137.756C185.649 137.697 185.851 137.623 186.056 137.578L186.614 137.45C186.801 137.41 186.992 137.39 187.179 137.362C188.05 137.251 188.925 137.171 189.802 137.123C190.292 137.101 190.782 137.071 191.273 137.083C191.695 137.093 192.112 137.131 192.528 137.18C193.453 137.355 194.364 137.62 195.241 137.964C195.764 138.208 196.278 138.479 196.745 138.82C196.82 138.882 196.895 138.946 196.965 139.012C197.182 139.217 197.487 139.331 197.783 139.24C198.065 139.149 198.318 138.88 198.296 138.568C198.293 138.414 198.251 138.263 198.173 138.13C198.084 137.983 197.973 137.905 197.838 137.805C197.708 137.704 197.555 137.629 197.406 137.555C197.013 137.353 196.608 137.178 196.202 136.999C195.991 136.905 195.777 136.821 195.559 136.746C195.326 136.671 195.091 136.604 194.854 136.546C194.443 136.431 194.03 136.326 193.614 136.23C192.76 136.042 191.894 135.97 191.02 135.941C190.941 135.939 190.863 135.938 190.784 135.938C190.439 135.938 190.09 135.958 189.747 135.973" fill="#161616"/>
<path fill-rule="evenodd" clip-rule="evenodd" d="M189.925 136.642C189.48 136.652 189.035 136.655 188.593 136.678C188.363 136.691 188.139 136.704 187.912 136.73C186.921 136.863 185.935 137.026 184.954 137.217C184.149 137.376 183.36 137.633 182.574 137.88C182.474 137.909 182.389 137.977 182.337 138.068C182.286 138.158 182.272 138.266 182.298 138.367C182.327 138.467 182.395 138.552 182.485 138.604C182.576 138.655 182.684 138.669 182.785 138.643C183.395 138.451 184.006 138.256 184.633 138.123C185.243 137.996 185.855 137.89 186.473 137.805L186.457 137.808C186.941 137.743 187.425 137.668 187.912 137.633C188.404 137.602 188.896 137.591 189.389 137.6C189.892 137.604 190.395 137.607 190.899 137.626C191.155 137.639 191.412 137.656 191.665 137.676C191.915 137.694 192.162 137.73 192.408 137.766L192.272 137.746C193.078 137.886 193.889 138.023 194.681 138.224C195.478 138.424 196.261 138.674 197.044 138.918C197.143 138.961 197.253 138.973 197.359 138.953C197.465 138.933 197.562 138.881 197.639 138.805C197.739 138.705 197.798 138.565 197.798 138.422C197.798 138.269 197.733 138.156 197.639 138.042C197.474 137.837 197.204 137.779 196.964 137.713C196.765 137.659 196.571 137.603 196.374 137.551C195.954 137.437 195.539 137.318 195.116 137.221C194.266 137.025 193.402 136.896 192.541 136.766C191.874 136.662 191.191 136.637 190.511 136.637C190.316 136.637 190.119 136.639 189.925 136.642V136.642ZM186.63 141.514L186.486 141.534L186.629 141.514H186.63ZM190.337 139.715C189.437 139.722 188.542 139.731 187.649 139.823C186.86 139.898 186.077 140.023 185.304 140.199C184.516 140.385 183.746 140.676 182.983 140.949C182.603 141.085 182.353 141.449 182.467 141.862C182.567 142.228 182.997 142.511 183.377 142.378C183.936 142.176 184.501 141.992 185.071 141.826C185.516 141.699 185.971 141.611 186.431 141.543C186.953 141.479 187.477 141.426 188.002 141.384C188.514 141.343 189.029 141.35 189.541 141.354C189.776 141.335 190.014 141.329 190.249 141.329C190.943 141.332 191.637 141.366 192.329 141.433C192.479 141.445 192.631 141.459 192.782 141.475C193.025 141.515 193.265 141.553 193.509 141.595C194.094 141.713 194.669 141.874 195.23 142.077C195.684 142.226 196.197 142.394 196.51 142.764C196.556 142.802 196.604 142.838 196.656 142.871C196.762 142.94 196.886 142.979 197.009 143.018C197.144 143.055 197.287 143.055 197.423 143.019C197.559 142.982 197.682 142.911 197.782 142.812C198.042 142.553 198.075 142.167 197.905 141.848C197.841 141.705 197.759 141.571 197.661 141.449C197.474 141.219 197.191 141.073 196.931 140.936C196.481 140.696 195.99 140.53 195.51 140.365C194.657 140.079 193.775 139.889 192.88 139.799C192.196 139.736 191.51 139.708 190.824 139.715H190.337V139.715ZM185.189 146.387C185.159 146.439 185.139 146.497 185.131 146.557C185.123 146.617 185.127 146.679 185.143 146.737C185.179 146.86 185.253 146.935 185.351 147.01C185.529 147.136 185.705 147.254 185.899 147.358C186.11 147.471 186.349 147.54 186.579 147.604C187.108 147.754 187.659 147.824 188.205 147.887C188.413 147.913 188.624 147.923 188.832 147.938C188.997 147.952 189.162 147.971 189.328 147.978C189.928 148 190.533 148.046 191.133 148.013C191.526 147.994 191.916 147.923 192.303 147.851C192.38 147.838 192.458 147.819 192.536 147.802C192.666 147.773 192.783 147.724 192.894 147.652C193 147.584 193.059 147.497 193.134 147.4C193.197 147.291 193.221 147.164 193.201 147.04C192.471 147.052 191.737 147.025 191.009 146.954C190.442 147.004 189.872 146.991 189.305 146.988C189.091 146.988 188.88 146.968 188.669 146.955C188.336 146.941 188.003 146.914 187.672 146.877C187.248 146.823 186.831 146.73 186.425 146.597C186.21 146.491 186.005 146.367 185.812 146.225C185.749 146.18 185.675 146.156 185.598 146.156C185.516 146.158 185.435 146.179 185.364 146.219C185.292 146.26 185.232 146.317 185.188 146.386" fill="#161616"/>
<path fill-rule="evenodd" clip-rule="evenodd" d="M192.14 140.48C192.035 140.477 191.93 140.48 191.825 140.487C191.559 140.507 191.27 140.545 191.036 140.678C190.815 140.805 190.64 140.987 190.478 141.178C190.435 141.227 190.393 141.277 190.352 141.328C190.636 141.331 190.923 141.342 191.205 141.354C192.115 141.39 193.02 141.494 193.909 141.691C194.329 141.782 194.731 141.913 195.136 142.049L195.208 142.072C195.084 141.886 194.934 141.714 194.792 141.545C194.594 141.312 194.341 141.126 194.095 140.948C193.855 140.775 193.572 140.662 193.302 140.558C193.049 140.458 192.757 140.441 192.487 140.438C192.37 140.438 192.254 140.455 192.14 140.48V140.48ZM190.757 147.11C191.319 147.468 191.974 147.626 192.63 147.688C192.949 147.718 193.27 147.678 193.581 147.63C193.848 147.587 194.098 147.53 194.347 147.429C194.543 147.347 194.643 147.292 194.809 147.159C194.909 147.078 194.991 146.996 195.075 146.893L195.078 146.888C194.691 146.949 194.294 146.995 193.909 147.016C192.75 147.078 191.587 147.035 190.436 146.888C190.54 146.966 190.646 147.04 190.756 147.11" fill="#161616"/>
<path fill-rule="evenodd" clip-rule="evenodd" d="M185.61 146.528C185.484 146.745 185.546 147.076 185.783 147.193C186.357 147.476 186.951 147.693 187.559 147.888C187.738 147.946 187.919 148.004 188.097 148.064C188.503 148.194 188.922 148.271 189.341 148.326C190.075 148.426 190.822 148.479 191.561 148.459C191.718 148.456 191.877 148.462 192.033 148.447C192.224 148.427 192.413 148.411 192.604 148.391C192.929 148.359 193.26 148.313 193.584 148.255C193.916 148.193 194.244 148.132 194.571 148.054C194.715 148.021 194.857 147.982 194.997 147.936C195.13 147.895 195.273 147.846 195.387 147.764C195.497 147.686 195.589 147.585 195.657 147.469C195.717 147.364 195.744 147.242 195.733 147.121C195.722 147 195.674 146.886 195.595 146.793L195.535 146.807C195.01 146.907 194.448 146.985 193.909 147.015L193.676 147.025C193.316 147.105 192.952 147.172 192.591 147.238L192.747 147.219C192.227 147.287 191.711 147.355 191.189 147.362C190.5 147.372 189.821 147.355 189.139 147.272C188.745 147.201 188.356 147.105 187.974 146.985C187.535 146.857 187.102 146.71 186.675 146.545C186.539 146.482 186.406 146.417 186.276 146.355C186.197 146.315 186.109 146.294 186.02 146.294C185.937 146.292 185.855 146.312 185.782 146.354C185.71 146.395 185.65 146.455 185.61 146.528" fill="#161616"/>
<path fill-rule="evenodd" clip-rule="evenodd" d="M177.502 176.306L177.531 176.234C177.592 176.094 177.651 175.955 177.72 175.819C177.804 175.647 177.892 175.481 177.982 175.312L178.047 175.189L178.147 175.001L178.252 174.812C178.385 174.653 178.524 174.494 178.667 174.335C178.803 174.182 178.953 174.037 179.106 173.899H179.138C179.196 173.901 179.254 173.894 179.31 173.88C179.856 173.754 180.41 173.66 180.963 173.565L181.365 173.497C182.414 173.397 183.392 173.306 184.372 173.227C184.589 173.347 184.839 173.419 185.035 173.468C185.239 173.523 185.45 173.555 185.655 173.585L185.995 173.637C186.609 173.737 187.203 173.88 187.596 173.974C188.186 174.121 188.729 174.254 189.246 174.454L189.346 174.504L189.496 174.569C189.898 174.894 190.424 175.325 190.911 175.789C191.093 175.962 191.245 176.166 191.395 176.364C191.47 176.459 191.541 176.556 191.618 176.65L191.901 176.994L192.265 177.439C192.7 178.039 193.07 178.676 193.395 179.38L193.473 179.585C193.532 180.151 193.547 180.721 193.518 181.289L193.512 181.579C193.511 181.861 193.496 182.142 193.466 182.422C193.42 182.695 193.362 182.962 193.291 183.231C193.217 183.503 193.127 183.771 193.021 184.033C192.758 184.654 192.424 185.243 192.028 185.789C191.836 186.017 191.638 186.241 191.428 186.459C191.178 186.715 190.911 186.953 190.628 187.172C190.55 187.233 190.47 187.29 190.388 187.344C190.31 187.397 190.227 187.444 190.141 187.484C190 187.544 189.853 187.587 189.703 187.614C189.635 187.62 189.567 187.624 189.499 187.624C189.369 187.624 189.239 187.614 189.109 187.598C189.018 187.582 188.928 187.561 188.839 187.536C188.64 187.442 188.45 187.33 188.271 187.202C188.182 187.124 188.1 187.04 188.024 186.949C187.947 186.838 187.88 186.721 187.824 186.599C187.71 186.297 187.63 185.983 187.584 185.663C187.571 185.554 187.569 185.444 187.576 185.335L187.849 185.241C188.131 185.14 188.407 185.024 188.677 184.893C188.917 184.776 189.092 184.653 189.164 184.423C189.195 184.316 189.189 184.202 189.147 184.099C189.105 183.996 189.03 183.91 188.934 183.854C188.841 183.807 188.739 183.783 188.635 183.783C188.553 183.783 188.471 183.794 188.392 183.815C188.252 183.848 188.118 183.883 187.982 183.923C187.62 184.032 187.251 184.118 186.878 184.179C186.031 184.287 185.376 184.331 184.755 184.331L184.525 184.335H184.057C183.609 184.335 183.08 184.328 182.554 184.277C182.227 184.224 181.905 184.142 181.593 184.03C181.538 184.008 181.48 183.997 181.421 183.997C181.281 184.003 181.147 184.052 181.037 184.138C180.926 184.223 180.845 184.34 180.804 184.474C180.76 184.641 180.783 184.818 180.869 184.968C180.949 185.104 181.067 185.195 181.252 185.26C181.801 185.469 182.377 185.6 182.962 185.65L182.937 185.77C182.906 185.956 182.857 186.138 182.791 186.315C182.696 186.496 182.587 186.67 182.466 186.835C182.33 186.987 182.183 187.127 182.024 187.254C181.852 187.374 181.68 187.477 181.499 187.569C181.283 187.653 181.06 187.718 180.833 187.763C180.602 187.788 180.369 187.79 180.138 187.77C179.961 187.738 179.787 187.691 179.618 187.63C179.246 187.453 178.893 187.24 178.563 186.994C178.416 186.877 178.276 186.751 178.144 186.617C177.998 186.465 177.858 186.307 177.726 186.143C177.542 185.9 177.374 185.644 177.226 185.377C177.064 185.082 176.915 184.781 176.778 184.474C176.701 184.291 176.628 184.108 176.557 183.923C176.5 183.761 176.45 183.596 176.408 183.429L176.356 183.248C176.235 182.783 176.138 182.313 176.066 181.838C176.023 181.408 176.018 180.974 176.051 180.543L176.112 180.335C176.187 180.098 176.258 179.864 176.317 179.627L176.385 179.354C176.434 179.147 176.482 178.942 176.545 178.741L176.585 178.605C176.612 178.517 176.638 178.429 176.671 178.341C176.726 178.192 176.785 178.043 176.846 177.893C176.982 177.559 177.119 177.222 177.258 176.89L177.498 176.309H177.502V176.312V176.306V176.306ZM196.55 104.832H196.465C196.105 104.832 195.741 104.864 195.385 104.897L195.167 104.912C194.324 104.982 193.483 105.067 192.644 105.166C190.952 105.38 189.319 105.686 187.794 106.079C187.15 106.241 186.458 106.449 185.624 106.731L185.41 106.803C184.864 106.981 184.41 107.137 183.968 107.322L182.105 108.101L181.638 108.29C181.29 108.43 180.943 108.569 180.611 108.73L180.004 109.02L179.874 109.078C179.144 109.432 178.414 109.783 177.686 110.16L175.816 111.124C175.526 111.27 175.244 111.439 174.968 111.608L174.628 111.815C174.306 112.001 173.988 112.185 173.676 112.374L173.543 112.449C173.413 112.523 173.332 112.565 173.26 112.617L172.436 113.176L171.611 113.738C170.91 114.212 170.231 114.714 169.481 115.28L168.816 115.773C168.169 116.25 167.533 116.744 166.896 117.238L166.41 117.614C165.55 118.279 164.69 119.034 163.998 119.637L163.605 119.977C162.851 120.637 162.153 121.335 161.276 122.247L160.842 122.705C160.428 123.15 160.004 123.585 159.569 124.01C158.989 124.563 158.385 125.09 157.757 125.588C157.631 125.676 157.501 125.763 157.371 125.848L157.267 125.919C157.17 125.981 157.079 126.046 156.984 126.111C156.83 126.217 156.682 126.331 156.54 126.452C156.277 126.672 156.16 126.974 156.06 127.241C155.965 127.481 155.994 127.936 156.06 128.156C156.092 128.266 156.13 128.371 156.176 128.474C156.403 129.016 156.618 129.598 156.878 130.361C157.101 131.017 157.326 131.673 157.527 132.331C157.735 133.013 157.894 133.676 158.017 134.348C158.118 135.309 158.115 136.335 158.004 137.396C157.917 137.864 157.786 138.481 157.563 139.066C157.305 139.657 157.011 140.231 156.683 140.786L156.546 141.006L156.413 141.231C156.267 141.478 156.16 141.731 156.076 141.949C155.998 142.146 155.988 142.422 156.043 142.672C156.092 142.864 156.209 143.114 156.355 143.234C156.497 143.348 156.64 143.455 156.829 143.543C156.943 143.598 157.066 143.643 157.183 143.686C157.982 144.043 158.715 144.484 159.423 144.91L159.686 145.069C159.962 145.237 160.237 145.399 160.53 145.539C160.816 145.675 161.128 145.774 161.426 145.867L161.595 145.916C161.783 145.975 161.969 146.02 162.163 146.05C162.147 146.14 162.15 146.25 162.153 146.361C162.16 146.578 162.177 146.796 162.193 147.014C162.088 147.52 161.995 148.029 161.9 148.54L161.722 149.5C161.404 151.17 161.092 152.968 160.972 154.803L160.956 155.056L160.939 155.309C160.92 155.445 160.904 155.581 160.891 155.718L160.845 156.118L160.823 156.358C160.787 156.683 160.757 156.991 160.731 157.306C160.705 157.618 160.689 157.929 160.673 158.238L160.641 158.828C160.57 159.937 160.516 161.048 160.481 162.159C160.469 162.634 160.461 163.118 160.455 163.591C160.449 164.029 160.465 164.413 160.485 164.799L160.505 165.238C160.543 166.15 160.631 167.081 160.725 168.033L160.738 168.183L160.751 168.306L160.764 168.42C161.027 171.01 161.387 173.085 161.897 174.948C162.01 175.352 162.137 175.748 162.271 176.144C162.349 176.371 162.439 176.592 162.53 176.812L162.569 176.91L162.734 177.312C163.095 178.212 163.464 179.101 163.844 179.992C163.868 179.939 163.861 179.89 163.844 179.838C164.147 180.718 164.601 181.773 165.05 182.676C165.523 183.632 166.042 184.565 166.605 185.471C167.255 186.542 167.929 187.445 168.67 188.235C169.225 188.819 169.848 189.355 170.4 189.829L170.472 189.89L171.027 190.37C172.105 191.302 172.939 191.936 173.731 192.429C174.488 192.91 175.283 193.263 176.053 193.604L176.553 193.832L176.965 194.022L177.063 194.069C177.968 194.488 178.787 194.861 179.618 195.179C179.809 195.261 180.004 195.332 180.198 195.4L180.335 195.448L180.501 195.508L180.595 195.54L181.134 195.734C181.566 195.896 182.001 196.059 182.445 196.192C183.549 196.523 184.702 196.582 185.884 196.614C186.404 196.63 186.92 196.64 187.436 196.647L187.576 196.65C188.775 196.662 189.962 196.419 191.059 195.935C191.679 195.682 192.215 195.345 192.659 195.046C193.358 194.585 194.027 194.062 194.669 193.556L194.832 193.429L195.371 193.004L195.624 192.806C195.965 192.539 196.309 192.27 196.631 191.977C197.008 191.622 197.374 191.255 197.728 190.877L197.878 190.715L197.933 190.65C198.323 190.228 198.689 189.829 199.004 189.413C199.176 189.183 199.341 188.949 199.51 188.715L199.696 188.452L199.832 188.254L199.923 188.121L200.933 186.709L201.286 186.202L201.848 185.41C202.296 184.776 202.715 184.088 203.105 183.435L203.511 182.766C203.936 182.078 204.287 181.497 204.604 180.864C204.796 180.481 204.962 180.085 205.121 179.685C205.316 179.225 205.381 178.795 205.432 178.394C205.433 178.138 205.349 177.888 205.194 177.684C205.038 177.48 204.819 177.334 204.572 177.267C204.472 177.237 204.368 177.22 204.264 177.218C203.871 177.218 203.501 177.432 203.25 177.803L203.163 177.929C202.989 178.165 202.836 178.414 202.705 178.676L202.64 178.803L202.504 179.059C202.286 179.472 202.054 179.877 201.806 180.273C201.476 180.809 201.131 181.342 200.79 181.87L200.572 182.205L200.182 182.809C200.072 182.981 199.959 183.153 199.842 183.325C199.897 183.192 199.888 183.049 199.874 182.89C199.806 182.12 199.712 181.211 199.51 180.286L199.38 179.689C199.277 179.199 199.079 178.728 198.887 178.273C198.666 177.766 198.409 177.276 198.118 176.806L197.975 176.565C197.795 176.26 197.611 175.957 197.423 175.657C197.063 175.072 196.614 174.591 196.183 174.157C195.768 173.752 195.336 173.366 194.887 173L194.582 172.74C194.368 172.559 194.147 172.38 193.93 172.202L193.709 172.027C193.429 171.802 193.14 171.585 192.849 171.377C192.332 171.004 191.728 170.727 191.264 170.533C190.339 170.124 189.375 169.811 188.387 169.598C187.611 169.438 186.812 169.396 186.28 169.38C186.17 169.379 186.06 169.395 185.955 169.43C185.85 169.306 185.708 169.218 185.55 169.18C185.461 169.151 185.369 169.136 185.276 169.134C184.832 169.134 184.443 169.435 184.28 169.897C184.167 170.225 184.053 170.549 183.936 170.877C183.784 171.293 183.706 171.647 183.699 171.965L183.533 171.968L183.358 171.981L183.404 171.913C183.527 171.806 183.602 171.617 183.624 171.344C183.631 170.893 183.504 170.45 183.261 170.071C183.254 169.881 183.118 169.646 182.881 169.595C182.479 169.507 182.069 169.459 181.657 169.452C181.485 169.452 181.309 169.462 181.134 169.484C180.657 169.549 180.209 169.702 179.673 169.89C179.488 169.955 179.309 170.02 179.131 170.089L179.024 170.13L178.942 170.16C178.858 170.187 178.777 170.221 178.699 170.26C178.559 170.319 178.429 170.397 178.303 170.474C177.505 170.979 176.735 171.527 175.997 172.117C175.519 172.483 175.093 172.911 174.73 173.39C174.44 173.783 174.185 174.221 173.964 174.601C173.681 175.091 173.512 175.608 173.393 175.984L173.33 176.169L173.243 176.449C173.088 176.897 172.925 177.338 172.763 177.779C172.454 178.634 172.298 179.585 172.172 180.351L172.152 180.475C172.1 180.79 172.042 181.105 171.983 181.415L171.951 181.595L171.915 181.812L171.882 181.998C171.821 182.351 171.762 182.702 171.714 183.066C171.587 183.984 171.503 184.76 171.503 185.552C171.503 185.936 171.506 186.315 171.516 186.699L171.523 186.965L171.532 187.231C171.448 187.088 171.318 186.965 171.188 186.838L170.811 186.474C170.507 186.165 170.223 185.836 169.961 185.491C169.11 184.341 168.298 182.994 167.476 181.361C166.847 180.104 166.286 178.789 165.743 177.521L165.665 177.341L165.538 177.036L165.334 176.514L165.254 176.312C165.129 176.013 165.01 175.715 164.889 175.413C164.779 175.127 164.691 174.833 164.603 174.536L164.565 174.396C164.461 174.053 164.365 173.706 164.279 173.358C163.977 172.118 163.737 170.816 163.516 169.267C163.288 167.371 163.075 165.344 163.058 163.364C162.962 162.651 162.882 161.935 162.818 161.218C162.792 160.783 162.768 160.348 162.756 159.913C162.733 159.054 162.749 158.195 162.804 157.338L162.837 156.894C162.873 156.348 162.908 155.806 162.961 155.264C163.019 154.63 163.084 153.994 163.155 153.364C163.305 152.324 163.477 151.293 163.652 150.257C163.759 149.607 163.87 148.962 163.971 148.309C164.181 146.973 164.414 145.64 164.671 144.312C164.717 144.085 164.766 143.861 164.818 143.633L164.863 143.426C165.613 143.14 166.403 142.894 167.081 142.682C167.512 142.552 167.951 142.446 168.389 142.345C168.805 142.247 169.22 142.182 169.607 142.127C170.12 142.088 170.634 142.06 171.149 142.042C171.234 142.021 171.319 142.002 171.405 141.991C171.87 141.925 172.338 141.893 172.808 141.894C173.23 141.894 173.648 141.919 174.071 141.968L173.921 141.948C174.006 141.958 174.088 141.968 174.168 141.981L174.308 142.001L174.28 141.996L174.243 141.991L174.28 141.996C174.702 142.056 175.116 142.126 175.532 142.224C175.868 142.3 176.222 142.384 176.534 142.544C176.494 142.487 176.452 142.431 176.409 142.377L176.516 142.436L176.61 142.471C176.731 142.518 176.86 142.54 176.99 142.536C177.087 142.538 177.183 142.517 177.27 142.475C177.37 142.52 177.464 142.553 177.574 142.556C177.691 142.555 177.806 142.525 177.908 142.468L177.954 142.805C178.054 143.601 178.145 144.377 178.201 145.163C178.243 145.851 178.241 146.581 178.188 147.468L178.12 148.653C178.06 149.841 177.981 151.027 177.883 152.212C177.746 153.092 177.565 153.964 177.341 154.825C177.234 155.264 177.12 155.712 177.045 156.166C176.922 156.916 176.795 157.669 176.662 158.419C176.554 159.079 176.466 159.741 176.399 160.406L176.37 160.666C176.334 160.903 176.298 161.136 176.26 161.37C176.195 161.757 176.133 162.14 176.087 162.527C176.055 162.809 176.045 163.093 176.058 163.377C176.078 163.741 176.158 164.049 176.314 164.371C176.396 164.53 176.496 164.659 176.607 164.796L176.658 164.864C176.724 164.949 176.795 165.02 176.873 165.088C176.941 165.312 177.036 165.475 177.172 165.611C177.357 165.757 177.47 165.848 177.607 165.913C178.561 166.39 179.656 166.455 180.603 166.455C180.873 166.455 181.143 166.452 181.409 166.445L181.516 166.442L182.11 166.429L182.704 166.416C183.077 166.41 183.464 166.357 183.801 166.313L183.934 166.299L184.019 166.286L184.214 166.26C184.451 166.192 184.646 166.082 184.811 165.923C185.055 165.676 185.191 165.338 185.191 165C185.191 164.516 184.896 164.043 184.457 163.825C184.289 163.491 183.964 163.27 183.639 163.27L182.772 163.348L181.977 163.419C181.659 163.449 181.34 163.474 181.022 163.497C180.841 163.513 180.659 163.517 180.473 163.517C180.083 163.517 179.671 163.491 179.175 163.433C179.123 163.426 179.075 163.416 179.025 163.406L179.11 162.572C179.126 162.384 179.146 162.195 179.165 162.01C179.327 161.449 179.448 160.883 179.565 160.338C179.799 159.257 179.941 158.141 180.078 157.062L180.162 156.383L180.262 155.721C180.438 154.605 180.613 153.449 180.685 152.296C180.724 151.725 180.701 151.134 180.678 150.566C180.648 149.802 180.623 149.111 180.601 148.422C180.587 148.022 180.571 147.622 180.555 147.222L180.532 146.621C180.509 145.991 180.441 145.351 180.376 144.738L180.35 144.507C180.237 143.407 180.061 142.293 179.89 141.215C179.824 140.795 179.756 140.38 179.695 139.965C179.655 139.699 179.412 139.445 179.201 139.322C179.049 139.231 178.878 139.179 178.701 139.172L178.571 139.283L178.366 139.442L178.22 139.549L178.113 139.637L178.11 139.63C177.965 139.749 177.829 139.878 177.704 140.017L177.649 140.215C177.636 140.28 177.623 140.348 177.607 140.415L177.587 140.497L177.682 140.952L177.743 141.371C177.714 141.338 177.668 141.318 177.626 141.299C177.481 141.234 177.335 141.172 177.188 141.114C176.776 140.943 176.351 140.804 175.918 140.698C175.123 140.504 174.23 140.4 173.192 140.377C173.01 140.374 172.824 140.374 172.642 140.374C171.86 140.374 171.169 140.407 170.519 140.472C170.029 140.523 169.542 140.588 169.055 140.656C168.6 140.721 168.155 140.828 167.727 140.936C167.454 141.003 167.185 141.085 166.915 141.166L166.727 141.225C166.428 141.312 166.136 141.422 165.847 141.536C165.614 141.624 165.386 141.722 165.162 141.831C165.266 141.341 165.354 140.887 165.448 140.432C165.483 140.257 165.519 140.082 165.558 139.906L165.613 139.644L166.153 139.465C166.454 139.365 166.759 139.261 167.061 139.165C167.811 138.942 168.805 138.666 169.837 138.517C170.545 138.426 171.09 138.361 171.666 138.357L171.986 138.355C172.472 138.353 172.958 138.378 173.441 138.43C174.058 138.517 174.555 138.64 174.999 138.816C175.299 138.952 175.61 139.124 175.951 139.344C176.004 139.38 176.066 139.398 176.13 139.397C176.26 139.397 176.382 139.325 176.447 139.215C176.493 139.133 176.506 139.035 176.482 138.944C176.457 138.852 176.398 138.774 176.317 138.725L176.239 138.673C176.248 138.61 176.242 138.545 176.222 138.484C176.202 138.424 176.168 138.368 176.123 138.323C176.058 138.234 175.999 138.153 175.938 138.079C175.806 137.938 175.658 137.813 175.496 137.708L175.383 137.628L175.266 137.549C175.175 137.491 175.071 137.449 174.97 137.406C174.782 137.328 174.636 137.283 174.49 137.237L174.308 137.179C173.911 137.053 173.508 136.948 173.1 136.864C172.899 136.819 172.688 136.796 172.483 136.773L172.399 136.763C172.197 136.74 171.993 136.735 171.789 136.728C171.623 136.728 171.503 136.738 171.383 136.744L171.152 136.754C170.932 136.76 170.711 136.767 170.492 136.796L170.412 136.809C170.208 136.839 170.003 136.868 169.802 136.916C169.62 136.962 169.442 137.014 169.262 137.069L169.11 137.114L168.958 137.156C168.825 137.191 168.692 137.23 168.561 137.273C168.347 137.348 168.133 137.423 167.922 137.503C167.766 137.563 167.607 137.621 167.447 137.675C167.181 137.77 166.919 137.867 166.662 137.981L166.516 138.043C166.393 138.098 166.266 138.153 166.146 138.218C166.058 138.263 165.97 138.308 165.886 138.358L165.951 138.127L166.006 137.887C166.191 137.037 166.383 136.189 166.587 135.342C166.72 134.793 166.895 134.247 167.067 133.718C167.355 132.858 167.6 131.983 167.801 131.098C167.925 130.539 168.061 129.985 168.214 129.432C168.295 129.134 168.379 128.838 168.464 128.542L168.691 127.734L168.717 127.634C168.783 127.38 168.86 127.128 168.947 126.88C169.038 126.64 169.133 126.4 169.23 126.16C169.288 126.13 169.35 126.098 169.412 126.062L169.775 125.862C169.993 125.741 170.208 125.624 170.421 125.501L170.76 125.306C170.847 125.257 170.9 125.231 170.947 125.199L171.022 125.153L171.094 125.104L171.373 124.984C172.204 124.687 173.042 124.408 173.886 124.147L174.113 124.078C174.389 123.997 174.669 123.916 174.951 123.838L175.408 123.712C175.723 123.62 176.038 123.533 176.357 123.458L176.564 123.413C177.339 123.236 178.117 123.075 178.899 122.929C179.763 122.779 180.629 122.641 181.497 122.517C182.481 122.411 183.467 122.32 184.454 122.244C185.423 122.169 186.394 122.118 187.366 122.091L187.46 122.089C187.799 122.075 188.136 122.069 188.477 122.069C188.997 122.069 189.522 122.082 190.045 122.094L190.301 122.104L190.539 122.111C191.409 122.133 192.279 122.198 193.123 122.302C194.276 122.484 195.395 122.747 196.633 123.042C197.96 123.37 199.091 123.718 200.091 124.101C200.938 124.501 201.639 124.867 202.317 125.348C202.487 125.501 202.649 125.659 202.799 125.831C202.834 125.884 202.87 125.945 202.905 126.023C203.175 126.851 203.305 127.76 203.422 128.559C203.502 129.215 203.567 129.774 203.61 130.335C203.636 130.721 203.649 131.108 203.662 131.497C203.668 131.741 203.675 131.977 203.688 132.211C203.749 133.497 203.831 134.783 203.922 136.066C203.961 136.631 203.993 137.192 204.022 137.756C204.058 138.426 204.097 139.098 204.152 139.766C204.237 140.773 204.386 141.799 204.516 142.705L204.662 143.741L204.727 144.238L204.805 144.806L204.825 144.965L204.841 145.098C204.967 146.075 205.084 146.994 205.246 147.89L205.088 147.893C205.1 148.468 205.097 148.942 205.074 149.397C205.256 149.383 205.415 149.354 205.577 149.322C205.749 150.179 205.997 151.105 206.301 152.069C206.509 152.705 206.75 153.306 207.016 153.854C207.126 154.072 207.246 154.29 207.379 154.494C207.844 155.214 208.503 155.63 209.188 155.63C209.883 155.608 210.412 155.202 210.922 154.813L211.042 154.721C211.162 154.631 211.214 154.591 211.269 154.552L211.458 154.416L211.529 154.367C211.853 154.137 212.155 153.919 212.483 153.741C212.565 153.699 212.645 153.656 212.727 153.617C212.951 153.53 213.182 153.462 213.418 153.413C213.503 153.452 213.522 153.474 213.545 153.498L213.662 153.663L213.692 153.767L213.74 153.922C213.545 154.652 213.555 155.276 213.773 155.819C213.837 156.049 213.953 156.25 214.129 156.436C214.393 158.576 214.412 160.634 214.181 162.556C214.078 163.202 213.935 163.961 213.659 164.683C213.506 164.992 213.33 165.289 213.133 165.572C212.841 165.916 212.503 166.242 212.097 166.562C211.679 166.875 211.236 167.153 210.772 167.393C210.662 167.406 210.623 167.406 210.581 167.406L210.499 167.293C210.402 167.178 210.28 167.085 210.142 167.023C210.005 166.961 209.855 166.93 209.704 166.933C209.445 166.929 209.193 167.012 208.988 167.171C208.784 167.329 208.639 167.552 208.578 167.803C208.506 168.101 208.551 168.393 208.708 168.627C208.818 168.807 208.934 168.994 209.074 169.156C209.133 169.224 209.337 169.456 209.522 169.539C209.769 169.653 209.948 169.731 210.159 169.783C210.334 169.832 210.552 169.858 210.821 169.858C211.499 169.842 212.111 169.572 212.62 169.312C213.441 168.901 214.2 168.378 214.876 167.757C215.087 167.565 215.263 167.335 215.442 167.098L215.535 166.978C215.925 166.452 216.169 165.831 216.373 165.24C216.568 164.692 216.639 164.085 216.697 163.507L216.73 163.261C216.789 162.738 216.821 162.186 216.83 161.53C216.849 160.292 216.797 159.054 216.672 157.822C216.609 157.183 216.533 156.546 216.442 155.91C216.504 155.763 216.529 155.604 216.516 155.445C216.507 155.416 216.503 155.385 216.503 155.355C216.532 155.198 216.578 155.053 216.623 154.91L216.658 154.793C216.685 154.714 216.711 154.637 216.73 154.559C216.798 154.306 216.854 154.053 216.905 153.799C217.035 153.108 217.159 152.432 217.205 151.737C217.266 150.708 217.246 149.692 217.227 148.708L217.22 148.254L217.214 147.988C217.206 147.202 217.182 146.416 217.142 145.631L217.182 145.53C217.317 145.176 217.457 144.815 217.578 144.455L217.736 143.994L217.779 143.874C217.902 143.517 218.026 143.16 218.129 142.802L218.249 142.393L218.652 141.017C218.75 140.692 218.822 140.361 218.896 140.033L218.918 139.929L219.028 139.429C219.269 138.413 219.458 137.341 219.588 136.241L219.638 135.796C219.688 135.41 219.737 135.02 219.763 134.633L219.795 134.107L219.831 133.575L219.847 133.361C219.862 133.191 219.872 133.021 219.876 132.851L219.886 131.903L219.899 130.953C219.9 130.392 219.877 129.832 219.831 129.273C219.771 128.373 219.662 127.51 219.503 126.708C219.36 125.968 219.136 125.24 218.918 124.536L218.792 124.14C218.662 123.718 218.506 123.302 218.351 122.89L218.259 122.653C217.759 121.323 217.159 119.783 216.386 118.377C215.782 117.279 215.028 116.297 214.369 115.477L214.103 115.153C213.861 114.849 213.613 114.549 213.36 114.254L213.13 113.987C212.48 113.241 211.808 112.464 211.1 111.741C210.678 111.307 210.246 110.882 209.805 110.468C209.425 110.111 209.005 109.793 208.575 109.471L208.377 109.321C207.494 108.662 206.586 108.037 205.655 107.448C204.714 106.833 203.708 106.324 202.655 105.929L202.383 105.825C202.184 105.75 201.983 105.675 201.783 105.607C201.153 105.39 200.47 105.218 199.553 105.055C198.745 104.919 198.13 104.855 197.563 104.845C197.226 104.839 196.89 104.834 196.553 104.832H196.55V104.832Z" fill="#161616"/>
<path fill-rule="evenodd" clip-rule="evenodd" d="M169.859 146.757L169.832 146.75C169.69 146.795 169.542 146.817 169.394 146.818C169.282 146.818 169.178 146.806 169.079 146.783C169.051 146.818 169.03 146.857 169.018 146.9C168.928 146.905 168.839 146.927 168.758 146.965C168.702 146.985 168.648 147.009 168.596 147.036C168.398 147.169 168.311 147.326 168.314 147.481C168.317 147.541 168.332 147.6 168.358 147.654C168.384 147.708 168.421 147.756 168.466 147.796C168.547 147.886 168.606 147.932 168.665 147.974C168.726 148.007 168.788 148.036 168.849 148.065C168.966 148.127 169.089 148.182 169.216 148.221C169.349 148.261 169.489 148.286 169.629 148.309C169.914 148.361 170.129 148.39 170.339 148.416C170.729 148.462 171.155 148.484 171.635 148.484C171.836 148.484 172.037 148.477 172.242 148.474L172.411 148.491C172.596 148.51 172.785 148.53 172.973 148.54C173.216 148.545 173.466 148.552 173.713 148.559L173.853 148.562C174.328 148.556 174.802 148.497 175.265 148.387C175.473 148.344 175.68 148.302 175.888 148.25C176.135 148.189 176.35 148.133 176.528 148.014C176.596 147.969 176.654 147.912 176.7 147.844C176.742 147.819 176.781 147.79 176.817 147.757C176.863 147.712 176.898 147.656 176.916 147.594C176.935 147.532 176.938 147.466 176.924 147.403C176.878 147.227 176.706 147.153 176.609 147.123C176.379 147.046 176.132 147.033 175.892 147.024C175.832 147.04 175.772 147.054 175.712 147.065C175.144 147.162 174.557 147.251 173.976 147.244C173.518 147.237 173.063 147.186 172.609 147.154C172.219 147.125 171.83 147.081 171.443 147.023H171.427C170.96 146.963 170.389 146.93 169.93 146.726C169.906 146.735 169.882 146.745 169.859 146.756V146.757ZM180.939 177.13C180.664 177.208 180.43 177.392 180.289 177.64C180.147 177.889 180.109 178.183 180.183 178.46C180.387 179.182 180.816 179.85 181.341 180.383C181.54 180.58 181.825 180.753 182.075 180.886C182.322 181.019 182.585 181.113 182.848 181.21C183.192 181.337 183.575 181.367 183.935 181.415C184.146 181.441 184.358 181.451 184.569 181.447C185.099 181.44 185.625 181.36 186.134 181.21C186.962 180.964 187.656 180.357 188.186 179.694C188.312 179.541 188.446 179.383 188.533 179.204C188.585 179.1 188.65 178.964 188.673 178.841C188.753 178.409 188.673 178.107 188.397 177.771C188.169 177.496 187.682 177.386 187.348 177.513C187.006 177.641 186.837 177.814 186.645 178.063C186.461 178.282 186.259 178.485 186.042 178.67C185.877 178.781 185.706 178.88 185.528 178.967C185.349 179.022 185.167 179.063 184.983 179.091C184.66 179.124 184.336 179.125 184.013 179.095C183.757 179.049 183.505 178.982 183.26 178.895C183.104 178.821 182.952 178.74 182.805 178.65C182.691 178.545 182.584 178.434 182.485 178.316C182.431 178.237 182.381 178.156 182.335 178.073C182.313 178.011 182.292 177.949 182.273 177.886C182.207 177.658 182.069 177.457 181.88 177.313C181.691 177.17 181.46 177.092 181.223 177.09C181.127 177.09 181.031 177.104 180.939 177.13" fill="#161616"/>
<path fill-rule="evenodd" clip-rule="evenodd" d="M185.226 178.839L185.159 178.868L185.226 178.838V178.839ZM187.428 176.991C187.218 177.066 187.188 177.098 187.013 177.238C186.913 177.316 186.844 177.43 186.773 177.534C186.701 177.634 186.633 177.737 186.563 177.836C186.405 178.033 186.229 178.216 186.038 178.38C185.803 178.546 185.552 178.69 185.289 178.81C185.078 178.887 184.86 178.945 184.639 178.983C184.486 178.996 184.332 178.997 184.179 178.986C183.82 178.928 183.467 178.839 183.124 178.718C182.997 178.66 182.875 178.592 182.758 178.515C182.68 178.445 182.606 178.372 182.535 178.296C182.465 178.091 182.412 177.88 182.355 177.67C182.293 177.452 182.148 177.267 181.951 177.155C181.754 177.043 181.521 177.014 181.302 177.073C181.084 177.135 180.9 177.28 180.788 177.477C180.676 177.674 180.647 177.906 180.705 178.125C180.757 178.309 180.809 178.495 180.864 178.683C180.89 178.767 180.919 178.855 180.954 178.936C181.039 179.14 181.085 179.209 181.221 179.381C181.309 179.495 181.409 179.595 181.51 179.696C181.825 180.007 182.237 180.222 182.656 180.365C183.021 180.48 183.398 180.555 183.78 180.588C183.926 180.608 184.075 180.615 184.221 180.622C184.519 180.62 184.815 180.588 185.107 180.527C185.5 180.459 185.867 180.3 186.227 180.144C186.479 180.032 186.718 179.894 186.941 179.731C187.19 179.556 187.424 179.361 187.64 179.147C187.782 178.998 187.918 178.842 188.046 178.68L188.185 178.507C188.389 178.372 188.567 178.105 188.539 177.852C188.526 177.757 188.523 177.667 188.503 177.572C188.448 177.312 188.183 177.033 187.916 176.988C187.826 176.969 187.735 176.959 187.643 176.956C187.573 176.956 187.503 176.966 187.428 176.991V176.991ZM171.328 143.284C171.45 143.534 171.566 143.784 171.678 144.037C171.715 144.13 171.748 144.22 171.773 144.316V144.373C171.767 144.397 171.761 144.42 171.753 144.443C171.732 144.48 171.709 144.517 171.686 144.553C171.662 144.581 171.637 144.608 171.611 144.634C171.598 144.638 171.586 144.641 171.573 144.644H171.534L171.473 144.625C171.373 144.566 171.275 144.503 171.18 144.436C171.131 144.393 171.084 144.349 171.039 144.303L171.034 144.294C171.031 144.192 171.034 144.09 171.044 143.988C171.07 143.848 171.107 143.71 171.154 143.575C171.199 143.485 171.248 143.398 171.302 143.313L171.328 143.283V143.284ZM170.623 141.227C170.571 141.253 170.52 141.281 170.47 141.312C170.378 141.301 170.286 141.309 170.198 141.336C170.11 141.364 170.029 141.41 169.96 141.471C169.545 141.825 169.34 142.322 169.155 142.821C169.015 143.208 168.945 143.601 168.876 144.001C168.84 144.221 168.789 144.445 168.796 144.669C168.805 144.932 168.89 145.189 168.98 145.436C169.126 145.844 169.34 146.231 169.62 146.568C169.782 146.76 169.993 146.912 170.201 147.052C170.396 147.188 170.639 147.273 170.867 147.322C171.49 147.462 172.071 147.234 172.558 146.851C172.978 146.523 173.296 146.039 173.487 145.543C173.587 145.286 173.633 145.017 173.662 144.744C173.672 144.652 173.679 144.559 173.682 144.467C173.709 144.284 173.722 144.097 173.72 143.907C173.717 143.609 173.67 143.313 173.579 143.029C173.563 142.942 173.543 142.855 173.519 142.77C173.393 142.329 173.059 141.968 172.759 141.63C172.618 141.481 172.451 141.359 172.266 141.27C171.973 141.132 171.653 141.06 171.329 141.058C171.084 141.058 170.846 141.117 170.623 141.228V141.227ZM188.266 144.765L188.315 144.785L188.266 144.765ZM187.976 144.697L188.032 144.704C188.013 144.702 187.994 144.7 187.976 144.697V144.697ZM188.078 144.579L188.079 144.585L188.078 144.58V144.579ZM188.035 144.477L188.076 144.577H188.077C188.061 144.545 188.047 144.511 188.035 144.477ZM188.389 142.994C188.394 142.994 188.399 142.996 188.405 142.998C188.42 143.006 188.435 143.014 188.448 143.023C188.478 143.117 188.503 143.211 188.52 143.31C188.545 143.539 188.56 143.767 188.55 143.997C188.53 144.082 188.506 144.167 188.478 144.25C188.438 144.325 188.396 144.4 188.351 144.472C188.291 144.538 188.227 144.602 188.161 144.662C188.154 144.666 188.147 144.67 188.141 144.674L188.121 144.654C188.099 144.578 188.079 144.501 188.063 144.424C188.053 144.271 188.054 144.118 188.066 143.966C188.116 143.699 188.189 143.436 188.286 143.182C188.317 143.118 188.352 143.055 188.389 142.994V142.994ZM188.4 142.975L188.419 142.98L188.404 142.978L188.4 142.975V142.975ZM188.4 142.975L188.403 142.978H188.399V142.975H188.4ZM190.522 142.84C190.532 142.902 190.54 142.965 190.548 143.027C190.538 142.965 190.531 142.902 190.522 142.84ZM188.132 140.041C187.989 140.06 187.848 140.096 187.714 140.149C187.38 140.279 187.184 140.408 186.905 140.629C186.629 140.85 186.431 141.123 186.22 141.402C186.022 141.658 185.905 141.986 185.795 142.285C185.683 142.586 185.641 142.909 185.6 143.229C185.437 143.649 185.326 144.088 185.27 144.535C185.246 144.742 185.26 144.954 185.26 145.161C185.256 145.379 185.253 145.591 185.31 145.804C185.411 146.164 185.685 146.496 185.902 146.798C186.288 147.333 186.886 147.639 187.512 147.817C187.789 147.898 188.09 147.941 188.38 147.944C188.532 147.947 188.734 147.902 188.889 147.859C189.101 147.791 189.305 147.699 189.496 147.583C189.788 147.418 190.051 147.171 190.266 146.914C190.48 146.655 190.666 146.379 190.821 146.081C190.957 145.814 191.064 145.531 191.168 145.249C191.288 144.911 191.357 144.58 191.392 144.223C191.428 143.886 191.35 143.531 191.304 143.201C191.289 143.083 191.269 142.966 191.25 142.847C191.235 142.742 191.218 142.638 191.197 142.535C191.187 142.461 191.175 142.387 191.161 142.314C191.12 142.074 191.006 141.854 190.909 141.632C190.844 141.499 190.765 141.374 190.672 141.259C190.55 141.098 190.424 140.941 190.292 140.788C190.084 140.55 189.829 140.359 189.542 140.227C189.34 140.135 189.197 140.07 188.992 140.038C188.857 140.013 188.721 140 188.585 139.998C188.433 140.001 188.282 140.016 188.133 140.041H188.132Z" fill="#161616"/>
<path fill-rule="evenodd" clip-rule="evenodd" d="M185.656 146.719L185.663 146.727L185.693 146.766L185.656 146.719ZM189.126 142.099C189.336 142.139 189.551 142.191 189.754 142.255C189.808 142.285 189.861 142.315 189.914 142.348L189.956 142.393C190.079 142.558 190.199 142.724 190.326 142.886L190.16 142.672C190.288 142.837 190.396 143.009 190.49 143.195C190.555 143.367 190.602 143.542 190.636 143.723C190.653 143.973 190.649 144.224 190.623 144.473C190.591 144.63 190.548 144.784 190.493 144.934C190.391 145.14 190.278 145.341 190.153 145.534C190.041 145.667 189.921 145.793 189.793 145.91C189.557 146.077 189.307 146.223 189.047 146.348C188.931 146.396 188.811 146.434 188.689 146.464C188.407 146.484 188.124 146.481 187.842 146.454L187.757 146.429C187.75 146.213 187.668 146.006 187.526 145.843C187.398 145.654 187.256 145.475 187.101 145.308C187.024 145.229 186.931 145.166 186.851 145.091C186.843 145.079 186.837 145.067 186.831 145.055C186.776 144.903 186.732 144.747 186.7 144.588C186.682 144.329 186.687 144.069 186.715 143.811C186.753 143.595 186.809 143.382 186.882 143.175C186.947 143.043 187.02 142.915 187.102 142.792C187.157 142.734 187.215 142.68 187.277 142.63C187.508 142.466 187.757 142.322 188.013 142.202C188.113 142.165 188.214 142.133 188.319 142.111C188.587 142.084 188.857 142.08 189.126 142.099V142.099ZM188.468 139.909C188.222 139.938 187.968 139.974 187.731 140.045C187.579 140.095 187.431 140.163 187.286 140.231C187.117 140.299 186.952 140.378 186.793 140.467C186.624 140.564 186.459 140.665 186.297 140.772C186.043 140.942 185.787 141.146 185.582 141.377C185.033 141.987 184.78 142.811 184.712 143.617C184.686 143.961 184.705 144.312 184.741 144.656C184.773 144.967 184.822 145.279 184.939 145.572C185.019 145.779 185.105 146.01 185.231 146.198C185.341 146.358 185.47 146.497 185.593 146.643C185.735 146.831 185.87 146.98 186.079 147.117C186.134 147.153 186.193 147.185 186.254 147.211C186.569 147.439 186.904 147.615 187.274 147.759C187.582 147.883 187.916 147.896 188.244 147.922C188.524 147.942 188.834 147.97 189.108 147.902C189.585 147.786 190.017 147.582 190.422 147.308C190.865 147.01 191.215 146.604 191.52 146.168C191.708 145.899 191.868 145.636 191.988 145.325C192.062 145.124 192.121 144.922 192.173 144.711C192.241 144.429 192.257 144.133 192.293 143.847L192.263 144.065L192.323 143.613C192.335 143.487 192.319 143.351 192.323 143.223C192.323 143.053 192.296 142.883 192.269 142.715C192.243 142.484 192.223 142.251 192.159 142.029C192.089 141.782 191.962 141.555 191.841 141.331C191.8 141.25 191.761 141.162 191.715 141.081C191.543 140.772 191.28 140.575 191.001 140.374C190.762 140.201 190.487 140.085 190.196 140.035C190.044 140.01 189.891 139.988 189.738 139.969C189.438 139.922 189.135 139.896 188.831 139.891C188.711 139.891 188.591 139.896 188.468 139.909V139.909ZM172.844 145.336L172.764 145.438L172.844 145.336ZM171.917 142.755C172.046 142.781 172.172 142.815 172.297 142.859C172.339 142.879 172.379 142.903 172.419 142.928C172.598 143.081 172.753 143.25 172.903 143.433C172.956 143.513 173.001 143.594 173.042 143.681C173.074 143.765 173.103 143.851 173.123 143.937C173.141 144.193 173.128 144.457 173.103 144.712C173.083 144.799 173.058 144.884 173.028 144.968C172.942 145.149 172.841 145.322 172.726 145.486C172.611 145.634 172.491 145.777 172.366 145.916C172.211 146.08 172.043 146.233 171.865 146.371C171.82 146.401 171.773 146.429 171.725 146.453C171.599 146.497 171.47 146.534 171.34 146.563C171.28 146.564 171.222 146.563 171.164 146.56C171.044 146.535 170.926 146.505 170.81 146.468C170.785 146.395 170.751 146.325 170.708 146.261C170.539 146.008 170.35 145.806 170.071 145.673C169.981 145.63 169.895 145.581 169.811 145.527C169.76 145.479 169.711 145.429 169.665 145.377C169.646 145.351 169.63 145.324 169.613 145.297C169.567 145.134 169.532 144.969 169.506 144.802L169.504 144.785C169.487 144.555 169.487 144.323 169.506 144.093C169.513 144.062 169.522 144.031 169.533 144C169.573 143.922 169.618 143.846 169.668 143.773C169.854 143.551 170.056 143.346 170.278 143.163C170.368 143.101 170.46 143.043 170.559 142.993C170.815 142.898 171.074 142.819 171.339 142.763C171.533 142.746 171.724 142.743 171.917 142.755V142.755ZM171.299 140.699C171.038 140.718 170.78 140.764 170.529 140.836C170.279 140.91 170.042 141.014 169.805 141.115C169.698 141.163 169.595 141.209 169.49 141.261C169.247 141.384 169.016 141.582 168.818 141.774C168.646 141.936 168.503 142.128 168.358 142.313C168.178 142.534 168.015 142.769 167.87 143.014C167.789 143.16 167.72 143.329 167.662 143.484C167.574 143.709 167.564 143.959 167.539 144.196C167.506 144.536 167.487 144.884 167.494 145.225C167.503 145.741 167.617 146.29 167.85 146.755C167.987 147.02 168.191 147.258 168.422 147.445C168.867 147.815 169.422 148.147 170.025 147.936L170.09 147.912C170.32 148.026 170.562 148.112 170.812 148.17C171.11 148.241 171.386 148.241 171.684 148.196C171.844 148.173 171.994 148.137 172.146 148.095C172.279 148.059 172.406 148.001 172.532 147.95C172.723 147.865 172.886 147.735 173.045 147.602C173.315 147.381 173.555 147.16 173.772 146.891C174.052 146.553 174.334 146.196 174.51 145.791C174.594 145.589 174.685 145.385 174.727 145.171C174.771 144.93 174.797 144.685 174.805 144.44C174.821 144.017 174.825 143.62 174.701 143.209C174.624 142.932 174.517 142.663 174.383 142.409C174.316 142.279 174.246 142.151 174.173 142.024C174.044 141.821 173.892 141.634 173.721 141.466C173.448 141.183 173.071 141.001 172.711 140.868C172.361 140.744 171.992 140.682 171.621 140.684C171.512 140.684 171.405 140.689 171.299 140.699" fill="#161616"/>
<path fill-rule="evenodd" clip-rule="evenodd" d="M169.758 147.109L169.854 147.122C169.822 147.117 169.79 147.112 169.758 147.109ZM167.353 146.814C167.213 146.817 167.025 146.898 166.963 147.031C166.928 147.103 166.883 147.181 166.893 147.265L166.912 147.415C166.924 147.508 167.012 147.602 167.091 147.648C167.143 147.678 167.201 147.695 167.261 147.698C167.301 147.74 167.341 147.781 167.382 147.82C167.554 147.989 167.795 148.05 168.016 148.125C168.224 148.193 168.421 148.261 168.636 148.304C169.045 148.391 169.47 148.444 169.886 148.489C170.714 148.579 171.542 148.606 172.373 148.629C172.792 148.641 173.217 148.616 173.63 148.573C173.85 148.551 174.07 148.525 174.292 148.493C174.5 148.463 174.701 148.421 174.909 148.382C175.178 148.326 175.471 148.275 175.619 148.005C175.766 147.735 175.694 147.375 175.415 147.223C175.305 147.158 175.179 147.126 175.052 147.132C174.942 147.144 174.834 147.164 174.727 147.187C174.516 147.236 174.307 147.297 174.097 147.343C173.695 147.431 173.287 147.503 172.877 147.561C172.729 147.577 172.58 147.587 172.431 147.59L171.834 147.599L171.828 147.593C171.72 147.495 171.593 147.45 171.46 147.398C171.301 147.343 171.126 147.314 170.964 147.284C170.557 147.217 170.148 147.157 169.739 147.106C169.185 147.028 168.63 146.972 168.076 146.901C167.856 146.867 167.623 146.813 167.403 146.813H167.353" fill="#161616"/>
</svg>
