<svg width="500" height="600" viewBox="0 0 500 600" fill="none" xmlns="http://www.w3.org/2000/svg">
<path fill-rule="evenodd" clip-rule="evenodd" d="M196.156 193.814V193.818L196.159 193.814H196.156ZM187.992 130.047L186.272 130.115C185.93 130.129 185.585 130.161 185.245 130.184L183.466 130.307C183.17 130.327 182.875 130.372 182.579 130.411C181.959 130.485 181.336 130.563 180.716 130.641C180.443 130.675 180.172 130.716 179.901 130.765C178.826 130.965 177.751 131.171 176.677 131.372C176.41 131.424 176.147 131.502 175.885 131.567C175.252 131.727 174.618 131.885 173.982 132.04C173.569 132.144 173.157 132.248 172.745 132.35C172.174 132.492 171.609 132.664 171.043 132.827C170.91 132.865 170.798 132.953 170.729 133.073C170.661 133.193 170.642 133.335 170.677 133.469C170.752 133.742 171.047 133.911 171.319 133.833C171.862 133.677 172.401 133.512 172.949 133.375L174.034 133.109C174.92 132.889 175.804 132.671 176.689 132.45C177.196 132.326 177.713 132.248 178.225 132.151C178.969 132.015 179.711 131.881 180.454 131.741C181.386 131.627 182.32 131.521 183.254 131.411C183.592 131.369 183.934 131.366 184.271 131.343L186.047 131.236C186.378 131.216 186.709 131.213 187.037 131.206L188.657 131.161C189.08 131.148 189.504 131.177 189.927 131.184C190.313 131.194 190.703 131.187 191.089 131.219C191.549 131.262 192.01 131.305 192.472 131.345L193.297 131.485C193.567 131.531 193.832 131.605 194.099 131.671C194.602 131.797 195.096 131.972 195.593 132.135C195.927 132.242 196.297 132.011 196.388 131.681C196.485 131.327 196.271 130.996 195.937 130.881C195.116 130.601 194.271 130.397 193.413 130.271C193.183 130.239 192.953 130.203 192.719 130.171C192.476 130.138 192.229 130.129 191.982 130.109C191.573 130.079 191.161 130.034 190.748 130.034C190.151 130.031 189.557 130.028 188.962 130.022C188.639 130.024 188.315 130.032 187.992 130.047V130.047ZM199.966 138.888C199.976 138.891 199.985 138.894 199.995 138.901L200.011 138.911C200.039 138.881 200.069 138.853 200.101 138.827L200.07 138.802C200.038 138.833 200.003 138.862 199.966 138.888V138.888ZM178.283 140.036C178.287 140.036 178.292 140.036 178.296 140.036H178.283ZM178.302 140.039C178.079 140.075 177.869 140.161 177.654 140.213C177.636 140.308 177.614 140.401 177.592 140.49C177.627 140.487 177.66 140.477 177.692 140.471C177.94 140.401 178.157 140.249 178.306 140.039H178.302ZM177.986 158.846C177.97 158.939 177.955 159.032 177.943 159.125L177.914 159.316L177.898 159.426C177.824 159.926 177.748 160.421 177.641 160.906C177.495 161.586 177.346 162.261 177.187 162.936C177.141 163.119 177.097 163.296 177.047 163.479L176.95 163.865C176.891 164.092 176.848 164.323 176.824 164.557C176.804 164.751 176.826 164.943 176.892 165.108C176.947 165.298 177.037 165.456 177.177 165.596C177.349 165.732 177.469 165.829 177.609 165.897C178.559 166.372 179.655 166.437 180.602 166.437C180.872 166.437 181.142 166.433 181.408 166.427L181.515 166.423L182.109 166.411L182.703 166.398C183.086 166.391 183.475 166.339 183.823 166.294L183.933 166.28L184.018 166.268L184.213 166.241C184.443 166.176 184.638 166.069 184.807 165.907C185.047 165.66 185.184 165.327 185.184 164.992C185.184 164.412 184.773 163.894 184.248 163.744L183.593 163.804C183.359 163.819 183.126 163.839 182.891 163.858C182.674 163.878 182.453 163.884 182.232 163.901C182.128 163.907 182.021 163.904 181.915 163.907C181.813 163.911 181.709 163.917 181.609 163.914H181.532C181.005 163.971 180.476 164.003 179.946 164.008C179.654 164.01 179.361 163.996 179.07 163.966L178.956 163.956L178.989 163.784L178.998 163.681C178.981 163.67 178.965 163.658 178.95 163.644L178.892 163.596C178.868 163.567 178.846 163.536 178.827 163.504C178.814 163.488 178.803 163.471 178.794 163.453C178.768 163.398 178.739 163.343 178.723 163.284C178.692 163.177 178.673 163.068 178.665 162.957C178.652 162.931 178.641 162.905 178.631 162.878C178.628 162.858 178.626 162.836 178.622 162.816C178.614 162.774 178.61 162.732 178.609 162.69C178.606 162.611 178.606 162.532 178.609 162.453C178.619 162.264 178.635 162.076 178.648 161.888C178.66 161.706 178.664 161.521 178.684 161.339C178.703 161.15 178.732 160.959 178.762 160.771C178.788 160.593 178.813 160.414 178.842 160.235C178.914 159.82 178.985 159.407 179.064 158.995C179.103 158.781 179.142 158.566 179.177 158.355L179.222 158.079C178.822 158.353 178.409 158.609 177.986 158.846V158.846ZM164.823 146.41C164.923 146.071 165.041 145.741 165.184 145.424C164.893 145.65 164.769 146.047 164.823 146.41Z" fill="#161616"/>
<path fill-rule="evenodd" clip-rule="evenodd" d="M178.8 139.97C178.637 140.015 178.469 140.036 178.3 140.035C178.077 140.075 177.867 140.161 177.654 140.215C177.641 140.278 177.627 140.342 177.612 140.405C177.615 140.445 177.622 140.48 177.629 140.519C177.739 141.276 177.852 142.032 177.963 142.792C178.06 143.575 178.155 144.357 178.21 145.149C178.259 145.919 178.242 146.685 178.196 147.455C178.102 149.035 178.031 150.617 177.891 152.198C177.79 152.85 177.665 153.498 177.515 154.14C177.363 154.809 177.164 155.47 177.053 156.153C176.93 156.903 176.804 157.655 176.67 158.406C176.54 159.149 176.462 159.902 176.379 160.653C176.288 161.276 176.167 161.889 176.096 162.513C176.063 162.795 176.053 163.079 176.066 163.363C176.086 163.727 176.164 164.029 176.324 164.353C176.414 164.536 176.537 164.681 176.664 164.844C177.018 165.299 177.583 165.48 178.131 165.574C179.093 165.744 180.057 165.792 181.025 165.682C181.967 165.567 182.903 165.417 183.833 165.231C184.265 165.146 184.566 164.685 184.566 164.266C184.563 164.075 184.506 163.89 184.401 163.73C184.131 163.76 183.862 163.782 183.596 163.805C183.362 163.821 183.128 163.841 182.895 163.86C182.677 163.88 182.456 163.886 182.235 163.903C182.132 163.909 182.025 163.906 181.917 163.909C181.817 163.912 181.713 163.919 181.612 163.916C181.427 163.912 181.245 163.916 181.067 163.909C181.008 163.909 180.95 163.912 180.892 163.916C180.632 163.928 180.372 163.942 180.115 163.928C179.977 163.923 179.84 163.911 179.703 163.893C179.583 163.88 179.463 163.857 179.346 163.824C179.268 163.804 179.192 163.778 179.119 163.744C179.058 163.722 179.002 163.688 178.953 163.646L178.894 163.597C178.858 163.552 178.826 163.505 178.797 163.455C178.781 163.422 178.761 163.386 178.749 163.351C178.742 163.351 178.736 163.351 178.729 163.347C178.729 163.337 178.732 163.331 178.736 163.322L178.726 163.286C178.698 163.19 178.68 163.092 178.671 162.993C178.668 162.983 178.668 162.971 178.668 162.961C178.655 162.933 178.643 162.904 178.632 162.874L178.622 162.811C178.615 162.769 178.61 162.727 178.609 162.685C178.606 162.606 178.606 162.527 178.609 162.448C178.619 162.259 178.635 162.071 178.648 161.883C178.661 161.702 178.664 161.516 178.683 161.334C178.703 161.146 178.733 160.954 178.761 160.767C178.787 160.587 178.814 160.409 178.843 160.23C178.914 159.815 178.986 159.403 179.063 158.99C179.103 158.776 179.141 158.561 179.177 158.35C179.213 158.156 179.239 157.961 179.267 157.77L179.447 156.568V156.581L179.45 156.539L179.453 156.529L179.45 156.533V156.539C179.45 156.549 179.446 156.559 179.446 156.569C179.446 156.555 179.45 156.542 179.45 156.533C179.479 156.293 179.502 156.055 179.524 155.818C179.55 155.548 179.577 155.279 179.609 155.013C179.677 154.499 179.739 153.983 179.794 153.471C179.817 153.263 179.83 153.058 179.856 152.854C179.879 152.656 179.901 152.461 179.921 152.266C179.972 151.811 180.018 151.36 180.054 150.906C180.086 150.483 180.093 150.062 180.105 149.636C180.112 149.426 180.122 149.214 180.125 149V148.311C180.125 147.881 180.125 147.448 180.122 147.016C180.123 146.604 180.112 146.193 180.09 145.782C180.076 145.555 180.064 145.331 180.047 145.104C180.034 144.922 180.022 144.744 180.012 144.561C180.002 144.338 179.995 144.117 179.972 143.893C179.953 143.704 179.93 143.513 179.908 143.321C179.868 143.051 179.823 142.779 179.788 142.507C179.748 142.205 179.713 141.902 179.671 141.604C179.636 141.41 179.6 141.216 179.561 141.023C179.525 140.848 179.483 140.673 179.437 140.5C179.377 140.26 179.317 140.018 179.259 139.776C179.116 139.862 178.962 139.927 178.801 139.971" fill="#161616"/>
<path fill-rule="evenodd" clip-rule="evenodd" d="M178.281 140.036C178.285 140.036 178.29 140.036 178.294 140.036H178.281ZM179.764 163.488V163.486C179.756 163.485 179.749 163.484 179.741 163.484L179.764 163.488V163.488ZM179.783 163.49H179.8C179.791 163.49 179.782 163.49 179.774 163.488L179.784 163.491L179.783 163.49ZM180.536 147.44L180.556 147.428C180.55 147.266 180.543 147.105 180.536 146.943V147.44Z" fill="#161616"/>
<path fill-rule="evenodd" clip-rule="evenodd" d="M196.456 104.831C196.096 104.831 195.736 104.864 195.378 104.896L195.161 104.913C194.319 104.982 193.478 105.066 192.638 105.165C191.004 105.366 189.384 105.67 187.788 106.075C187.135 106.24 186.447 106.448 185.618 106.727L185.404 106.799C184.921 106.959 184.434 107.123 183.964 107.318L182.1 108.098L181.632 108.285C181.284 108.425 180.937 108.565 180.606 108.727L179.998 109.017C179.223 109.389 178.45 109.76 177.684 110.156L175.814 111.12C175.512 111.273 175.219 111.451 174.931 111.627L174.625 111.811C174.305 111.997 173.985 112.182 173.675 112.37L173.541 112.445C173.444 112.5 173.346 112.552 173.258 112.613L172.434 113.172L171.609 113.734C170.887 114.231 170.177 114.745 169.479 115.276L168.813 115.769C168.168 116.246 167.531 116.74 166.895 117.234L166.408 117.61C165.577 118.253 164.771 118.954 163.995 119.633L163.603 119.974C162.826 120.652 162.113 121.374 161.275 122.244L160.839 122.701C160.424 123.143 160.005 123.584 159.567 124.006C158.987 124.559 158.382 125.086 157.755 125.585C157.628 125.672 157.499 125.76 157.369 125.844C157.239 125.932 157.109 126.016 156.983 126.107C156.826 126.215 156.681 126.327 156.538 126.448C156.281 126.663 156.168 126.951 156.06 127.234C155.966 127.467 155.995 127.922 156.06 128.143C156.092 128.253 156.131 128.357 156.177 128.461C156.402 129 156.618 129.584 156.879 130.347C157.102 131.003 157.327 131.659 157.528 132.317C157.728 132.984 157.892 133.643 158.018 134.337C158.118 135.295 158.115 136.318 158.005 137.387C157.918 137.857 157.788 138.474 157.564 139.059C157.306 139.65 157.012 140.224 156.684 140.779L156.547 141L156.414 141.224C156.268 141.467 156.161 141.724 156.077 141.941C155.999 142.172 155.987 142.421 156.044 142.659C156.092 142.85 156.206 143.097 156.352 143.218C156.508 143.341 156.645 143.441 156.822 143.526C156.937 143.581 157.061 143.626 157.177 143.669C157.992 144.032 158.739 144.484 159.463 144.919L159.683 145.052C159.96 145.221 160.236 145.383 160.525 145.522C160.833 145.669 161.167 145.77 161.489 145.87L161.589 145.9C161.778 145.957 161.963 146 162.157 146.029C162.148 146.13 162.152 146.24 162.154 146.351C162.161 146.62 162.184 146.89 162.206 147.156C162.229 147.393 162.246 147.604 162.258 147.815L162.265 147.922C162.288 148.422 162.307 148.883 162.265 149.338L162.245 149.558C162.08 150.516 161.852 151.406 161.564 152.448C161.297 153.4 161.011 154.526 160.892 155.708L160.846 156.107L160.823 156.347C160.788 156.672 160.759 156.98 160.733 157.295C160.706 157.607 160.69 157.919 160.673 158.23L160.641 158.818C160.57 159.927 160.517 161.038 160.483 162.149C160.469 162.629 160.463 163.117 160.456 163.597C160.45 164.019 160.466 164.403 160.486 164.789L160.505 165.227C160.545 166.159 160.635 167.107 160.726 168.022L160.739 168.172L160.752 168.295L160.765 168.409C161.028 170.999 161.389 173.074 161.898 174.935C162.012 175.338 162.138 175.734 162.271 176.13C162.349 176.357 162.44 176.578 162.531 176.799L162.57 176.896L162.736 177.299C163.096 178.199 163.466 179.088 163.846 179.977C163.851 179.924 163.845 179.871 163.826 179.822C164.083 180.529 164.518 181.592 165.051 182.662C165.524 183.619 166.043 184.552 166.606 185.458C167.262 186.539 167.936 187.438 168.667 188.218C169.219 188.798 169.846 189.338 170.397 189.811L170.469 189.873L171.024 190.354C172.096 191.279 172.93 191.915 173.729 192.412C174.476 192.886 175.275 193.243 176.047 193.587L176.547 193.815L176.96 194.006L177.057 194.052C177.92 194.452 178.765 194.838 179.612 195.162C179.85 195.26 180.09 195.344 180.33 195.432L180.495 195.49L180.589 195.522L181.129 195.718C181.56 195.88 181.996 196.042 182.44 196.175C183.538 196.503 184.69 196.561 185.876 196.594C186.396 196.61 186.911 196.62 187.427 196.626L187.567 196.63C188.267 196.63 188.947 196.555 189.583 196.41C190.063 196.295 190.528 196.14 191.047 195.919C191.667 195.665 192.203 195.328 192.648 195.029C193.353 194.565 194.024 194.035 194.677 193.523L194.82 193.413L195.36 192.987L195.612 192.789C195.954 192.523 196.298 192.253 196.618 191.961C197.012 191.598 197.375 191.218 197.713 190.861L197.862 190.698C198.275 190.25 198.661 189.835 198.989 189.396C199.226 189.081 199.45 188.76 199.68 188.438L199.817 188.241L199.907 188.107L200.917 186.695L201.271 186.188L201.833 185.396C202.276 184.754 202.695 184.095 203.089 183.422L203.496 182.753C203.901 182.094 204.266 181.496 204.589 180.851C204.781 180.467 204.947 180.071 205.106 179.672C205.304 179.202 205.369 178.759 205.417 178.382C205.416 178.128 205.332 177.881 205.178 177.678C205.024 177.476 204.808 177.33 204.563 177.262C204.463 177.234 204.359 177.219 204.255 177.218C203.865 177.218 203.499 177.428 203.249 177.795L203.161 177.922C203.051 178.082 202.941 178.24 202.843 178.415C202.796 178.499 202.751 178.583 202.707 178.669L202.641 178.795L202.505 179.052C202.291 179.464 202.053 179.867 201.807 180.266C201.473 180.803 201.133 181.335 200.787 181.864L200.573 182.198L200.18 182.802C200.07 182.974 199.956 183.146 199.84 183.318C199.882 183.178 199.872 183.029 199.86 182.88C199.791 182.107 199.694 181.195 199.495 180.279L199.365 179.682C199.262 179.192 199.064 178.72 198.872 178.267C198.651 177.76 198.394 177.269 198.102 176.799L197.96 176.559C197.78 176.253 197.596 175.95 197.408 175.649C197.048 175.065 196.599 174.584 196.17 174.152C195.762 173.74 195.304 173.357 194.862 172.987L194.57 172.737C194.356 172.555 194.135 172.377 193.914 172.198L193.697 172.023C193.417 171.798 193.128 171.581 192.837 171.373C192.333 171.01 191.752 170.74 191.252 170.529C190.329 170.12 189.366 169.807 188.378 169.597C187.596 169.435 186.801 169.397 186.271 169.38C186.148 169.38 186.053 169.393 185.95 169.425C185.841 169.303 185.699 169.216 185.54 169.175C185.452 169.148 185.36 169.134 185.268 169.133C184.83 169.133 184.44 169.433 184.281 169.889C184.168 170.218 184.054 170.543 183.936 170.87C183.756 171.367 183.68 171.776 183.703 172.113C183.723 172.471 183.849 172.769 184.076 172.997C184.343 173.257 184.726 173.377 185.028 173.452C185.232 173.503 185.443 173.536 185.648 173.565L185.988 173.617C186.586 173.717 187.158 173.854 187.589 173.957C188.158 174.097 188.716 174.234 189.239 174.438C190.323 174.922 191.219 175.429 191.982 175.993C192.544 176.455 193.038 176.954 193.495 177.526C194.002 178.211 194.525 178.961 194.911 179.802C195.193 180.536 195.401 181.322 195.541 182.198C195.625 183.007 195.635 183.76 195.571 184.503C195.541 184.867 195.508 185.23 195.472 185.594L195.447 185.812L195.372 186.444L195.294 186.419L194.976 186.383L194.811 186.367C194.346 186.302 193.881 186.25 193.414 186.198C193.132 186.168 192.846 186.136 192.564 186.1C191.626 185.955 190.632 185.773 189.706 185.412C189.501 185.32 189.302 185.213 189.112 185.092C189.031 185.01 188.947 184.922 188.862 184.834C188.783 184.72 188.714 184.599 188.654 184.474C188.512 184.132 188.406 183.776 188.336 183.412C188.285 182.843 188.241 182.274 188.203 181.704L188.346 181.656C188.564 181.561 188.761 181.413 188.914 181.292C189.271 181.12 189.45 180.854 189.45 180.481C189.45 179.757 188.785 179.5 188.213 179.5C188.037 179.5 187.855 179.526 187.68 179.578L187.343 179.682C186.927 179.812 186.58 179.919 186.2 179.977C185.34 180.084 184.391 180.133 183.294 180.133C182.648 180.133 182.002 180.113 181.356 180.084C181.209 180.081 181.062 180.11 180.927 180.168C180.791 180.227 180.67 180.313 180.57 180.422C180.376 180.626 180.266 180.896 180.262 181.178C180.262 181.776 180.732 182.244 181.356 182.273C181.716 182.289 182.076 182.299 182.437 182.305L182.385 182.377L182.355 182.484C182.223 182.994 182.105 183.37 181.982 183.704C181.859 183.992 181.709 184.268 181.534 184.529C181.356 184.729 181.166 184.919 180.966 185.097C180.856 185.172 180.736 185.243 180.609 185.305C180.229 185.442 179.837 185.547 179.439 185.617C179.324 185.627 179.208 185.633 179.092 185.633C178.722 185.633 178.342 185.587 177.972 185.545L177.59 185.494L177.46 185.48L177.359 185.471C177.077 185.441 176.739 185.403 176.414 185.403C176.06 185.403 175.7 185.441 175.242 185.529L175.265 185.425C175.268 184.435 175.272 183.415 175.352 182.373C175.456 181.665 175.599 180.935 175.842 179.861C176.028 179.049 176.35 178.282 176.658 177.541L176.758 177.299L176.918 176.935L176.963 176.835C177.028 176.682 177.096 176.529 177.167 176.373C177.285 176.13 177.417 175.889 177.564 175.666C177.641 175.549 177.729 175.435 177.817 175.322L177.973 175.126L177.807 175.259L178.005 175.075C178.216 174.818 178.428 174.565 178.651 174.319C178.944 173.994 179.288 173.708 179.589 173.464C179.836 173.273 180.057 173.124 180.281 172.997C180.567 172.886 180.862 172.795 181.161 172.727C181.265 172.704 181.375 172.685 181.485 172.665C181.732 172.62 181.918 172.581 182.105 172.52C182.235 172.477 182.365 172.425 182.492 172.374L182.58 172.338L182.875 172.214C183.093 172.12 183.248 172.026 183.391 171.896C183.557 171.754 183.596 171.483 183.609 171.335C183.615 170.885 183.489 170.443 183.245 170.065C183.239 169.873 183.106 169.643 182.872 169.595C182.47 169.507 182.06 169.458 181.648 169.451C181.476 169.451 181.304 169.461 181.128 169.484C180.651 169.548 180.203 169.698 179.668 169.887C179.486 169.952 179.304 170.017 179.125 170.085L179.018 170.127L178.937 170.156C178.82 170.201 178.755 170.224 178.697 170.256C178.554 170.315 178.427 170.393 178.3 170.471C177.414 171.02 176.67 171.585 175.996 172.113C175.518 172.479 175.091 172.907 174.726 173.386C174.45 173.763 174.206 174.172 173.963 174.594C173.687 175.068 173.528 175.552 173.391 175.978L173.33 176.162L173.242 176.442C173.086 176.889 172.924 177.332 172.762 177.772C172.456 178.616 172.303 179.532 172.17 180.342L172.151 180.464C172.099 180.779 172.041 181.094 171.983 181.406L171.95 181.585L171.914 181.802C171.843 182.217 171.768 182.63 171.712 183.055C171.586 183.975 171.502 184.75 171.502 185.542C171.502 185.925 171.505 186.305 171.515 186.688L171.521 186.955L171.531 187.221C171.424 187.074 171.284 186.941 171.145 186.805L170.797 186.471C170.479 186.159 170.203 185.811 169.937 185.477C169.083 184.325 168.275 182.974 167.459 181.354C166.829 180.098 166.269 178.783 165.726 177.513L165.648 177.334L165.521 177.029L165.317 176.506L165.235 176.305C165.112 176.006 164.991 175.706 164.872 175.405C164.765 175.117 164.67 174.825 164.586 174.529L164.547 174.39C164.447 174.045 164.346 173.701 164.262 173.351C163.94 172 163.686 170.633 163.499 169.257C163.271 167.357 163.034 165.152 163.041 163.042C163.041 162.072 163.073 161.032 163.131 159.951L163.177 159.032C163.22 158.198 163.259 157.445 163.333 156.702L163.395 156.029L163.456 155.409C163.489 155.192 163.528 154.974 163.573 154.756C163.456 153.919 163.606 153.006 163.762 152.226L163.865 151.721C163.93 151.387 163.995 151.048 164.073 150.717C164.131 150.451 164.193 150.185 164.255 149.919L164.268 149.811C164.372 148.815 164.478 147.786 164.722 146.808C164.715 146.134 164.715 145.459 164.722 144.785L164.732 143.766C164.739 143.494 164.755 143.221 164.772 142.948L164.782 142.782C164.805 142.272 164.867 141.757 164.931 141.248C164.885 141.155 164.85 141.056 164.826 140.955C164.699 140.334 164.771 139.577 165.256 139.109L165.323 138.711C165.454 137.921 165.572 137.128 165.677 136.334L165.622 136.477L165.782 135.649L165.862 135.149C165.937 134.739 166.044 134.324 166.152 133.915C166.359 133.137 166.616 132.224 166.957 131.344C167.19 130.747 167.434 130.156 167.677 129.568L168.015 128.738C168.178 128.338 168.336 127.935 168.492 127.532C168.667 127.084 168.842 126.639 169.024 126.195L169.064 126.101L169.115 125.968C169.149 125.961 169.183 125.949 169.213 125.932C169.849 125.628 170.492 125.338 171.141 125.062L171.359 124.968C172.148 124.692 172.999 124.396 173.875 124.13L174.102 124.062C174.379 123.98 174.657 123.899 174.94 123.822L175.398 123.695C175.713 123.604 176.028 123.515 176.346 123.442L176.554 123.396C177.329 123.217 178.107 123.054 178.888 122.909C179.752 122.758 180.617 122.621 181.485 122.497C182.47 122.391 183.456 122.3 184.444 122.224C185.413 122.151 186.384 122.1 187.356 122.071L187.45 122.068C187.787 122.055 188.126 122.048 188.466 122.048C188.986 122.048 189.512 122.061 190.034 122.075L190.291 122.085L190.528 122.091C191.372 122.114 192.242 122.175 193.115 122.282C194.3 122.471 195.453 122.744 196.625 123.026C197.957 123.354 199.09 123.701 200.083 124.084C200.937 124.487 201.641 124.854 202.313 125.331C202.483 125.484 202.644 125.643 202.794 125.815C202.834 125.87 202.869 125.932 202.904 126.009C203.177 126.85 203.307 127.766 203.424 128.578C203.502 129.204 203.567 129.763 203.609 130.325C203.635 130.711 203.648 131.098 203.661 131.487C203.668 131.73 203.674 131.967 203.687 132.202C203.75 133.487 203.828 134.772 203.92 136.055C203.96 136.62 203.992 137.182 204.022 137.747C204.057 138.415 204.096 139.087 204.152 139.757C204.239 140.792 204.392 141.844 204.525 142.772L204.661 143.731L204.726 144.227L204.804 144.795L204.823 144.955C204.953 145.964 205.076 146.941 205.245 147.88L205.08 147.893C205.096 148.38 205.099 148.876 205.073 149.386C205.245 149.363 205.405 149.334 205.567 149.302C205.752 150.188 206.002 151.117 206.301 152.055C206.509 152.691 206.749 153.292 207.015 153.841C207.125 154.059 207.245 154.276 207.379 154.481C207.839 155.198 208.495 155.611 209.177 155.611C209.872 155.587 210.401 155.181 210.911 154.791L211.028 154.705C211.106 154.646 211.181 154.587 211.255 154.535L211.443 154.4L211.515 154.35C211.82 154.133 212.131 153.91 212.47 153.724C212.55 153.681 212.631 153.64 212.713 153.601C212.943 153.516 213.167 153.441 213.408 153.393L213.485 153.413C213.502 153.441 213.531 153.471 213.557 153.5L213.657 153.649L213.69 153.753L213.739 153.909C213.544 154.643 213.554 155.263 213.771 155.805C213.836 156.035 213.953 156.237 214.125 156.418C214.391 158.558 214.411 160.623 214.18 162.546C214.076 163.192 213.933 163.951 213.657 164.676C213.512 164.974 213.337 165.263 213.129 165.565C212.817 165.93 212.47 166.263 212.092 166.559C211.673 166.871 211.229 167.149 210.765 167.389C210.655 167.406 210.612 167.406 210.57 167.406L210.482 167.289C210.386 167.174 210.266 167.082 210.129 167.02C209.993 166.958 209.844 166.928 209.694 166.932C209.476 166.932 209.268 166.987 209.103 167.087C208.972 167.163 208.858 167.265 208.767 167.387C208.676 167.509 208.611 167.647 208.576 167.795C208.505 168.091 208.551 168.38 208.703 168.613C208.813 168.793 208.931 168.977 209.07 169.139C209.164 169.25 209.35 169.445 209.515 169.523C209.752 169.63 209.937 169.711 210.152 169.766C210.368 169.819 210.589 169.843 210.811 169.838C211.486 169.821 212.096 169.555 212.606 169.296C213.427 168.884 214.186 168.361 214.863 167.741C215.08 167.542 215.258 167.305 215.423 167.081L215.518 166.961C215.908 166.438 216.151 165.818 216.355 165.227C216.557 164.659 216.629 164.013 216.68 163.497L216.713 163.25C216.771 162.73 216.803 162.178 216.813 161.52C216.832 160.282 216.779 159.043 216.655 157.811C216.593 157.172 216.516 156.535 216.424 155.899C216.487 155.753 216.512 155.593 216.498 155.435C216.486 155.396 216.486 155.36 216.483 155.321C216.515 155.185 216.56 155.039 216.606 154.896L216.641 154.779C216.667 154.701 216.694 154.623 216.713 154.546C216.781 154.292 216.837 154.039 216.888 153.786C217.011 153.133 217.138 152.438 217.187 151.727C217.249 150.704 217.229 149.685 217.21 148.697L217.203 148.243L217.197 147.977C217.189 147.191 217.165 146.405 217.125 145.62C217.275 145.23 217.427 144.838 217.561 144.441C217.625 144.247 217.694 144.055 217.761 143.861C217.885 143.503 218.009 143.146 218.112 142.789L218.232 142.38L218.635 141.004C218.742 140.643 218.82 140.279 218.901 139.916L219.011 139.416C219.259 138.376 219.443 137.305 219.571 136.23L219.621 135.786C219.671 135.399 219.719 135.01 219.746 134.624L219.778 134.097L219.814 133.565L219.83 133.351C219.845 133.181 219.854 133.011 219.859 132.841L219.869 131.893L219.882 130.941C219.881 130.381 219.858 129.821 219.814 129.263C219.758 128.402 219.649 127.545 219.486 126.698C219.339 125.938 219.106 125.191 218.881 124.468L218.775 124.133C218.645 123.711 218.489 123.296 218.333 122.883L218.243 122.646C217.742 121.318 217.145 119.782 216.369 118.37C215.768 117.28 215.011 116.292 214.352 115.474L214.086 115.149C213.843 114.845 213.595 114.545 213.342 114.249L213.112 113.984C212.463 113.234 211.791 112.458 211.087 111.737C210.665 111.303 210.233 110.878 209.791 110.464C209.408 110.104 208.979 109.779 208.561 109.467L208.362 109.317C207.48 108.658 206.573 108.033 205.642 107.445C204.7 106.831 203.694 106.321 202.642 105.925L202.368 105.821C202.171 105.747 201.973 105.672 201.772 105.604C201.145 105.386 200.459 105.218 199.544 105.056C198.735 104.918 198.122 104.854 197.554 104.844C197.216 104.838 196.879 104.834 196.541 104.831H196.456V104.831Z" fill="#161616"/>
<path fill-rule="evenodd" clip-rule="evenodd" d="M210.117 161.624C210.1 161.639 210.082 161.653 210.063 161.666L210.117 161.624ZM210.317 159.582L210.309 159.642C210.31 159.623 210.314 159.603 210.316 159.582H210.317ZM210.086 158.924C210.069 158.931 210.051 158.938 210.033 158.944L210.085 158.924H210.086ZM210.244 158.891C210.258 158.916 210.269 158.943 210.276 158.971C210.266 158.946 210.256 158.917 210.244 158.891ZM210.137 158.835C210.163 158.843 210.187 158.853 210.211 158.865H210.208C210.186 158.855 210.162 158.843 210.137 158.835V158.835ZM210.14 158.045C210.064 158.048 209.989 158.066 209.92 158.098C209.722 158.171 209.532 158.265 209.354 158.378C209.259 158.434 209.19 158.526 209.162 158.632C209.134 158.739 209.149 158.852 209.204 158.948C209.261 159.043 209.353 159.112 209.46 159.14C209.567 159.168 209.681 159.153 209.777 159.098C209.888 159.03 209.999 158.971 210.116 158.912C210.152 158.897 210.188 158.885 210.225 158.874H210.231L210.237 158.879L210.238 158.881C210.276 158.979 210.309 159.076 210.334 159.176C210.338 159.305 210.332 159.429 210.319 159.556C210.271 159.911 210.226 160.271 210.186 160.627C210.152 160.907 210.158 161.188 210.134 161.467C210.129 161.498 210.121 161.529 210.112 161.559C210.094 161.597 210.073 161.633 210.05 161.668L210.04 161.68C210.02 161.691 209.999 161.702 209.978 161.71C209.77 161.815 209.712 162.104 209.825 162.296C209.883 162.391 209.975 162.461 210.082 162.491C210.202 162.526 210.3 162.497 210.41 162.448C210.535 162.39 210.646 162.306 210.736 162.201C210.826 162.096 210.892 161.974 210.93 161.841C210.994 161.634 211.004 161.422 211.007 161.208C211.013 160.915 211.027 160.627 211.063 160.334C211.078 160.169 211.098 160.004 211.121 159.834C211.137 159.692 211.16 159.546 211.173 159.399C211.193 159.176 211.153 158.961 211.082 158.75C211.039 158.614 210.976 158.485 210.896 158.367C210.858 158.305 210.806 158.254 210.744 158.217L210.659 158.156C210.595 158.126 210.529 158.098 210.462 158.069C210.391 158.052 210.32 158.04 210.247 158.033C210.211 158.036 210.176 158.043 210.14 158.045V158.045ZM165.233 144.897C165.257 145.005 165.317 145.102 165.404 145.17C165.387 144.897 165.429 144.623 165.526 144.367L165.551 144.305C165.309 144.405 165.173 144.629 165.233 144.897ZM177.44 147.42C177.478 147.359 177.506 147.294 177.525 147.225C177.556 147.106 177.559 146.981 177.535 146.861C177.511 146.74 177.459 146.627 177.385 146.529C177.42 146.829 177.429 147.135 177.44 147.421V147.42ZM195.92 151.13C195.887 151.176 195.852 151.217 195.82 151.263C195.826 151.293 195.833 151.323 195.838 151.355C195.936 151.244 196.006 151.11 196.041 150.966L195.92 151.13ZM177.857 140.097C177.985 140.08 178.114 140.062 178.242 140.043L178.245 140.042C178.115 140.062 177.988 140.08 177.857 140.097V140.097ZM177.511 140.245L177.482 140.249C177.477 140.276 177.472 140.304 177.465 140.331L177.635 140.306C177.845 140.274 178.06 140.19 178.232 140.053C177.985 140.105 177.752 140.205 177.512 140.245H177.511ZM187.531 128.388L184.841 128.68C183.827 128.79 182.814 128.937 181.801 129.076C181.742 129.086 181.681 129.141 181.651 129.194C181.634 129.223 181.623 129.255 181.619 129.288C181.615 129.322 181.617 129.356 181.626 129.388C181.634 129.419 181.649 129.449 181.669 129.474C181.689 129.5 181.714 129.521 181.742 129.537C181.807 129.576 181.866 129.573 181.938 129.564C182.252 129.521 182.57 129.475 182.885 129.433L182.817 129.443L182.967 129.423L182.899 129.433L184.408 129.229L184.343 129.239C184.778 129.18 185.22 129.141 185.658 129.092C186.281 129.024 186.908 128.956 187.531 128.884C187.6 128.874 187.654 128.862 187.707 128.81C187.73 128.787 187.748 128.759 187.76 128.729C187.773 128.699 187.779 128.667 187.778 128.634C187.777 128.569 187.752 128.506 187.707 128.459C187.684 128.436 187.656 128.418 187.626 128.406C187.596 128.394 187.564 128.389 187.531 128.389V128.388ZM183.406 174.146C182.79 174.224 182.212 174.412 181.636 174.649C181.386 174.752 181.14 174.866 180.9 174.991C180.582 175.156 180.309 175.361 180.03 175.578C179.787 175.77 179.598 176.048 179.423 176.296C179.251 176.539 179.153 176.858 179.046 177.13C178.952 177.37 179.024 177.698 179.15 177.912C179.283 178.14 179.5 178.312 179.757 178.38C180.02 178.452 180.307 178.416 180.54 178.28C180.787 178.133 180.906 177.929 181.007 177.669L181.02 177.636C181.075 177.515 181.139 177.398 181.21 177.286C181.275 177.213 181.34 177.144 181.41 177.076C181.646 176.915 181.896 176.781 182.156 176.661C182.502 176.526 182.859 176.424 183.223 176.356C183.368 176.345 183.513 176.342 183.658 176.348C183.698 176.358 183.738 176.368 183.778 176.381C183.89 176.441 183.996 176.506 184.102 176.577C184.368 176.799 184.611 177.04 184.837 177.303C184.992 177.523 185.134 177.753 185.257 177.99C185.361 178.188 185.471 178.346 185.623 178.485L185.602 178.468C185.606 178.475 185.611 178.482 185.617 178.488C185.857 178.769 186.309 178.854 186.653 178.76C186.953 178.678 187.169 178.483 187.308 178.227L187.3 178.247C187.666 177.721 187.452 177.094 187.182 176.588C186.724 175.718 185.997 174.991 185.159 174.49C184.741 174.246 184.264 174.118 183.779 174.122C183.654 174.122 183.529 174.131 183.406 174.146V174.146ZM193.503 140.342C193.041 140.388 192.577 140.446 192.116 140.502C191.171 140.608 190.227 140.722 189.286 140.839L188.83 140.901C188.132 141.218 187.461 141.592 186.824 142.018C185.84 142.683 185.181 143.674 184.535 144.648C184.292 145.014 184.46 145.54 184.825 145.752C185.22 145.985 185.685 145.83 185.928 145.462C186.133 145.154 186.338 144.842 186.555 144.544C186.821 144.216 187.103 143.917 187.422 143.644C187.928 143.284 188.493 143.024 189.054 142.764C189.484 142.606 189.919 142.475 190.369 142.398C190.815 142.348 191.266 142.32 191.711 142.303C192.246 142.277 192.789 142.245 193.327 142.291C193.675 142.349 194.022 142.431 194.367 142.518C194.744 142.601 195.114 142.708 195.477 142.839C195.671 142.926 195.867 143.018 196.057 143.125C196.307 143.268 196.545 143.43 196.798 143.57C197.301 143.846 197.948 143.693 198.243 143.19C198.383 142.946 198.421 142.65 198.347 142.378C198.269 142.086 198.093 141.923 197.863 141.748C197.565 141.518 197.226 141.342 196.895 141.17C196.369 140.903 195.812 140.702 195.236 140.573C194.806 140.475 194.376 140.375 193.941 140.304C193.794 140.316 193.648 140.327 193.503 140.342" fill="#161616"/>
<path fill-rule="evenodd" clip-rule="evenodd" d="M190.733 145.488L190.821 145.526C190.791 145.516 190.761 145.503 190.733 145.488V145.488ZM191.635 145.403C191.618 145.418 191.599 145.431 191.581 145.445L191.635 145.403ZM190.605 145.373L190.665 145.417L190.606 145.374V145.372L190.605 145.373ZM190.59 145.361L190.605 145.371V145.373L190.59 145.361ZM190.865 143.871C190.839 143.892 190.813 143.911 190.787 143.933C190.812 143.911 190.838 143.89 190.865 143.871ZM191.203 143.791C191.299 143.808 191.391 143.831 191.485 143.861C191.561 143.9 191.634 143.944 191.705 143.991C191.775 144.051 191.836 144.113 191.898 144.181C191.938 144.241 191.973 144.301 192.007 144.363C192.025 144.423 192.039 144.483 192.052 144.543C192.055 144.593 192.056 144.64 192.056 144.688C191.985 144.703 191.917 144.732 191.857 144.773C191.797 144.815 191.746 144.868 191.706 144.929C191.667 144.991 191.641 145.059 191.629 145.131C191.617 145.203 191.619 145.277 191.636 145.348L191.594 145.41L191.54 145.47C191.477 145.486 191.414 145.5 191.35 145.511C191.185 145.533 191.018 145.542 190.851 145.535H190.847C190.789 145.501 190.733 145.465 190.679 145.426C190.642 145.395 190.607 145.362 190.575 145.326C190.537 145.269 190.502 145.209 190.47 145.148C190.468 144.981 190.476 144.814 190.494 144.648C190.514 144.535 190.537 144.424 190.564 144.315C190.623 144.2 190.687 144.092 190.761 143.985C190.798 143.941 190.839 143.9 190.881 143.861C190.914 143.839 190.948 143.818 190.984 143.8C191.001 143.795 191.017 143.791 191.034 143.787C191.089 143.785 191.146 143.786 191.203 143.791V143.791ZM191.161 143.767L191.058 143.781C191.092 143.774 191.126 143.769 191.161 143.767V143.767ZM191.187 141.712L191.121 141.728C191.017 141.717 190.912 141.715 190.807 141.721C190.505 141.741 190.261 141.926 190.037 142.111C189.833 142.276 189.674 142.504 189.515 142.711C189.358 142.934 189.225 143.173 189.118 143.423C188.965 143.74 188.847 144.072 188.768 144.415C188.735 144.499 188.705 144.583 188.678 144.669C188.635 144.793 188.628 144.936 188.612 145.066C188.596 145.196 188.609 145.325 188.626 145.456C188.7 146.02 189.083 146.5 189.512 146.851C189.726 147.03 189.956 147.189 190.2 147.326C190.44 147.466 190.693 147.588 190.97 147.631C191.255 147.673 191.544 147.656 191.826 147.607C192.131 147.559 192.434 147.487 192.722 147.381C192.832 147.341 192.937 147.293 193.037 147.238C193.141 147.183 193.235 147.091 193.32 147.014C193.509 146.844 193.625 146.598 193.719 146.371C193.947 145.822 194.019 145.205 194.073 144.618C194.1 144.345 194.103 144.082 194.063 143.812C194.028 143.558 193.939 143.315 193.803 143.098C193.511 142.618 192.963 142.377 192.466 142.172C192.213 142.071 191.952 141.984 191.695 141.892C191.638 141.815 191.559 141.756 191.469 141.724C191.378 141.692 191.28 141.688 191.187 141.712" fill="#161616"/>
<path fill-rule="evenodd" clip-rule="evenodd" d="M189.88 148.451L189.798 148.518C189.825 148.495 189.852 148.472 189.881 148.451H189.88ZM192.196 146.113C191.949 146.155 191.706 146.211 191.458 146.266C190.452 146.49 189.342 146.799 188.605 147.566C188.465 147.71 188.387 147.902 188.387 148.103C188.387 148.304 188.465 148.496 188.605 148.64C188.895 148.925 189.39 148.935 189.676 148.64C189.71 148.6 189.745 148.566 189.781 148.533C189.975 148.391 190.175 148.272 190.391 148.169C190.721 148.039 191.061 147.933 191.407 147.844C191.799 147.744 192.2 147.657 192.599 147.588C192.672 147.581 192.745 147.576 192.819 147.573C192.906 147.656 193.013 147.716 193.13 147.745C193.246 147.775 193.369 147.774 193.485 147.743C193.835 147.646 194.102 147.24 193.975 146.879C193.942 146.777 193.903 146.678 193.858 146.581C193.773 146.437 193.655 146.314 193.514 146.224C193.313 146.107 193.095 146.087 192.871 146.058C192.824 146.052 192.776 146.05 192.728 146.05C192.548 146.05 192.361 146.082 192.196 146.113ZM170.999 144.783L170.856 144.8L170.999 144.783ZM171.006 142.999C170.466 143.061 169.931 143.158 169.402 143.281C168.409 143.511 167.438 143.833 166.47 144.168C166.012 144.326 165.714 144.771 165.85 145.261C165.973 145.706 166.486 146.041 166.944 145.881C168.294 145.415 169.664 144.975 171.082 144.773C171.716 144.7 172.362 144.661 172.994 144.726C173.226 144.773 173.448 144.836 173.669 144.922C173.942 145.04 174.208 145.162 174.457 145.32C174.563 145.405 174.67 145.492 174.779 145.573C175.051 145.774 175.486 145.677 175.711 145.453C175.967 145.197 175.986 144.833 175.831 144.522C175.629 144.119 175.281 143.842 174.908 143.609C174.658 143.459 174.395 143.331 174.123 143.226C173.613 143.011 173.077 142.936 172.529 142.918C172.447 142.915 172.366 142.913 172.284 142.913C171.857 142.913 171.428 142.953 171.006 142.999" fill="#161616"/>
<path fill-rule="evenodd" clip-rule="evenodd" d="M171.968 146.913C172.022 146.938 172.076 146.963 172.128 146.99L172.126 147.021L172.101 147.096C172.044 147.092 171.989 147.086 171.932 147.08C171.896 147.074 171.859 147.066 171.823 147.058C171.87 147.008 171.917 146.96 171.968 146.913V146.913ZM171.976 146.911L172.033 146.934L171.976 146.911ZM172.117 146.861L172.118 146.863C172.103 146.864 172.089 146.867 172.074 146.869L172.117 146.862V146.861ZM172.11 146.83L172.07 146.847L172.11 146.83ZM171.397 144.308C171.157 144.386 170.937 144.528 170.738 144.681L170.648 144.753C170.353 144.933 170.128 145.215 169.955 145.506C169.809 145.759 169.705 146.051 169.611 146.327C169.572 146.45 169.543 146.577 169.511 146.704C169.471 146.866 169.426 147.029 169.417 147.198C169.387 147.818 169.729 148.444 170.235 148.795C170.389 148.901 170.557 148.984 170.735 149.048L170.741 149.055C170.936 149.233 171.186 149.344 171.442 149.399C171.722 149.46 172.011 149.428 172.287 149.386C172.401 149.37 172.513 149.348 172.624 149.32C172.724 149.298 172.878 149.247 172.955 149.194C173.069 149.119 173.173 149.042 173.267 148.947C173.407 148.811 173.497 148.607 173.563 148.424C173.603 148.31 173.637 148.194 173.663 148.078L173.716 147.98C173.777 147.85 173.832 147.714 173.884 147.578C173.956 147.398 173.962 147.208 173.985 147.019C173.997 146.902 173.959 146.701 173.943 146.607C173.912 146.425 173.857 146.249 173.781 146.081C173.758 145.965 173.73 145.85 173.696 145.736C173.587 145.394 173.395 145.084 173.137 144.834C173.027 144.732 172.903 144.645 172.768 144.578C172.74 144.546 172.707 144.52 172.67 144.5C172.491 144.393 172.3 144.307 172.102 144.243C172.035 144.223 171.966 144.214 171.896 144.215C171.725 144.215 171.546 144.262 171.396 144.308" fill="#161616"/>
<path fill-rule="evenodd" clip-rule="evenodd" d="M172.222 148.31C171.349 148.41 170.475 148.511 169.602 148.622C169.252 148.664 168.969 148.732 168.712 148.988C168.476 149.225 168.343 149.545 168.343 149.88C168.343 150.214 168.476 150.534 168.712 150.771C168.92 150.982 169.291 151.18 169.602 151.138L172.193 150.817C172.907 150.725 173.634 150.606 174.355 150.573C174.869 150.553 175.32 150.242 175.46 149.733C175.615 149.17 175.274 148.44 174.66 148.323C174.286 148.255 173.906 148.222 173.525 148.225C173.087 148.225 172.648 148.261 172.222 148.31ZM191.588 145.885L191.615 145.89L191.588 145.885ZM191.875 145.801C191.838 145.82 191.8 145.835 191.761 145.848L191.875 145.801ZM191.068 145.525L191.089 145.55L191.069 145.525H191.068ZM191.057 145.51C191.06 145.514 191.063 145.519 191.067 145.522V145.523L191.057 145.51ZM191.437 145.142C191.485 145.127 191.532 145.112 191.58 145.099C191.61 145.353 191.633 145.61 191.63 145.867H191.5C191.486 145.864 191.473 145.86 191.46 145.855C191.401 145.826 191.344 145.794 191.289 145.758C191.228 145.704 191.171 145.645 191.117 145.584C191.091 145.542 191.066 145.5 191.043 145.456C191.018 145.385 190.996 145.313 190.979 145.24C190.978 145.195 190.977 145.152 190.978 145.107C191.12 145.178 191.285 145.191 191.437 145.142V145.142ZM191.234 144.538H191.233H191.234ZM190.846 143.282C190.466 143.471 190.176 143.798 189.962 144.159C189.67 144.656 189.635 145.237 189.79 145.782C189.856 146.007 189.975 146.215 190.115 146.399C190.389 146.793 190.79 147.08 191.251 147.211C191.462 147.269 191.703 147.269 191.917 147.247C192.212 147.217 192.472 147.117 192.696 146.922C192.729 146.896 192.761 146.867 192.794 146.84C192.883 146.751 192.948 146.641 192.982 146.52C193.043 146.367 193.073 146.227 193.086 146.062C193.115 145.692 193.076 145.322 193.037 144.955C193.024 144.779 192.995 144.605 192.949 144.435C192.905 144.286 192.829 144.149 192.726 144.033C192.653 143.938 192.563 143.858 192.459 143.798C192.375 143.759 192.287 143.724 192.199 143.688C192.074 143.66 191.947 143.642 191.819 143.633C191.802 143.631 191.784 143.631 191.767 143.631C191.728 143.505 191.649 143.395 191.542 143.318C191.435 143.241 191.306 143.2 191.174 143.202C191.06 143.203 190.948 143.23 190.846 143.282V143.282Z" fill="#161616"/>
<path fill-rule="evenodd" clip-rule="evenodd" d="M191.232 141.512C190.978 141.544 190.722 141.576 190.469 141.619C190.077 141.686 189.691 141.783 189.313 141.909C188.953 142.021 188.599 142.139 188.248 142.271C187.534 142.541 186.846 142.859 186.216 143.291C185.836 143.551 185.499 143.856 185.196 144.2C185.008 144.407 184.846 144.639 184.67 144.859C184.586 144.966 184.528 145.063 184.528 145.203C184.528 145.333 184.579 145.46 184.67 145.55C184.762 145.642 184.887 145.693 185.017 145.693C185.134 145.693 185.287 145.645 185.362 145.55C185.489 145.392 185.612 145.233 185.735 145.077C185.967 144.789 186.23 144.527 186.518 144.295C186.966 143.969 187.448 143.705 187.953 143.478C188.3 143.334 188.654 143.194 189.014 143.087L189.619 142.901C190.045 142.772 190.481 142.676 190.921 142.614C191.499 142.544 192.08 142.469 192.664 142.44C193.207 142.415 193.752 142.433 194.292 142.493C194.591 142.541 194.888 142.601 195.187 142.651C195.319 142.685 195.459 142.666 195.577 142.6C195.691 142.533 195.775 142.424 195.81 142.297C195.828 142.232 195.832 142.164 195.823 142.097C195.814 142.031 195.792 141.966 195.758 141.908C195.688 141.797 195.581 141.714 195.456 141.674C194.81 141.434 194.119 141.385 193.436 141.356C193.337 141.352 193.238 141.35 193.139 141.35C192.501 141.35 191.864 141.434 191.232 141.512V141.512ZM169.762 143.04L169.877 143.023C169.838 143.027 169.801 143.033 169.762 143.039V143.04ZM170.264 142.981C170.135 142.992 170.006 143.006 169.877 143.023H169.885C169.515 143.072 169.152 143.166 168.795 143.257C168.395 143.357 167.989 143.458 167.599 143.587C167.407 143.653 167.216 143.72 167.025 143.789C166.923 143.829 166.823 143.874 166.726 143.925C166.664 143.958 166.606 144.003 166.551 144.042C166.21 144.267 165.863 144.484 165.515 144.698C165.431 144.748 165.371 144.829 165.346 144.924C165.321 145.018 165.333 145.119 165.381 145.204C165.483 145.374 165.716 145.442 165.888 145.334C166.135 145.185 166.378 145.036 166.626 144.887C166.792 144.787 166.957 144.676 167.131 144.596C167.562 144.429 168.011 144.318 168.457 144.208C168.909 144.096 169.363 144.016 169.821 143.95C169.993 143.938 170.163 143.925 170.336 143.922C170.506 143.919 170.671 143.929 170.84 143.935C171.152 143.95 171.465 143.978 171.775 144.018C172.32 144.118 172.865 144.234 173.401 144.38C173.873 144.513 174.336 144.675 174.788 144.86C174.873 144.901 174.958 144.943 175.047 144.97C175.142 145.003 175.242 145.007 175.34 145.017C175.473 145.027 175.616 144.932 175.68 144.819C175.778 144.656 175.735 144.477 175.619 144.337C175.617 144.337 175.616 144.334 175.614 144.332C175.523 144.203 175.403 144.097 175.264 144.022C175.044 143.889 174.791 143.802 174.551 143.708C174.085 143.528 173.607 143.384 173.119 143.276C172.57 143.153 172.019 143.033 171.453 143C171.203 142.988 170.956 142.971 170.707 142.971L170.557 142.969C170.46 142.969 170.363 142.972 170.264 142.981V142.981ZM192.157 138.2H192.149L192.139 138.198L192.157 138.2ZM184.482 140.33L184.479 140.348C184.479 140.341 184.48 140.336 184.482 140.331V140.33ZM184.503 140.282C184.497 140.3 184.488 140.316 184.482 140.331C184.488 140.314 184.495 140.298 184.503 140.282V140.282ZM194.486 138.869L194.521 138.883L194.486 138.869ZM191.258 137.295C190.528 137.311 189.802 137.414 189.095 137.6C188.362 137.785 187.65 138.048 186.949 138.324C186.644 138.447 186.342 138.581 186.044 138.72C185.705 138.88 185.368 139.038 185.043 139.227C184.79 139.374 184.557 139.553 184.348 139.759C184.175 139.917 184.066 140.133 184.04 140.366C184.034 140.484 184.147 140.584 184.26 140.584C184.384 140.584 184.469 140.484 184.479 140.366L184.503 140.281C184.531 140.225 184.567 140.174 184.611 140.129C184.598 140.142 184.589 140.159 184.576 140.172C184.667 140.077 184.758 139.992 184.861 139.911C185.306 139.591 185.804 139.38 186.303 139.165C186.283 139.171 186.261 139.181 186.241 139.188C187.349 138.725 188.509 138.363 189.695 138.188C190.507 138.092 191.328 138.095 192.139 138.198L192.075 138.188C192.1 138.191 192.125 138.195 192.149 138.2C192.164 138.201 192.179 138.202 192.193 138.204L192.157 138.2C192.943 138.324 193.704 138.568 194.447 138.854C194.57 138.909 194.691 138.963 194.816 139.016C194.926 139.067 195.034 139.126 195.144 139.184C195.397 139.317 195.65 139.457 195.894 139.607C195.981 139.656 196.08 139.682 196.181 139.682C196.281 139.681 196.379 139.655 196.466 139.605C196.553 139.554 196.626 139.482 196.676 139.396C196.727 139.309 196.753 139.21 196.754 139.11C196.755 139.034 196.741 138.959 196.712 138.889C196.683 138.82 196.64 138.757 196.585 138.704C196.461 138.594 196.325 138.498 196.18 138.418C196.073 138.36 195.963 138.307 195.851 138.259C195.608 138.147 195.359 138.05 195.105 137.967C194.604 137.795 194.095 137.646 193.579 137.522C193.224 137.438 192.864 137.375 192.501 137.334C192.214 137.303 191.926 137.288 191.637 137.291C191.511 137.291 191.384 137.293 191.257 137.295H191.258ZM170.827 138.454C170.408 138.489 169.993 138.554 169.577 138.612C168.824 138.716 168.126 138.97 167.437 139.278C166.597 139.655 165.775 140.148 165.071 140.743C164.648 141.097 164.707 141.807 165.071 142.171C165.263 142.363 165.519 142.47 165.789 142.47C166.074 142.47 166.292 142.35 166.503 142.171C166.514 142.162 166.524 142.153 166.535 142.145C167.073 141.772 167.642 141.447 168.235 141.172C168.713 140.989 169.209 140.857 169.714 140.778C170.568 140.678 171.427 140.645 172.284 140.731C173.011 140.854 173.717 141.064 174.414 141.311C174.671 141.398 174.925 141.499 175.181 141.593C175.285 141.629 175.392 141.645 175.496 141.681C175.872 141.801 176.315 141.664 176.587 141.391C176.727 141.252 176.821 141.087 176.876 140.898C176.947 140.638 176.935 140.262 176.763 140.034C176.675 139.921 176.596 139.804 176.506 139.69C176.419 139.574 176.285 139.496 176.162 139.418C175.899 139.249 175.567 139.148 175.269 139.051C174.509 138.801 173.739 138.59 172.944 138.483C172.568 138.432 172.189 138.407 171.81 138.408C171.483 138.408 171.156 138.425 170.827 138.454ZM182.77 140.036C182.747 140.04 182.723 140.046 182.699 140.049L182.716 140.046C182.498 140.076 182.277 140.091 182.056 140.107C181.946 140.117 181.849 140.195 181.849 140.315C181.849 140.422 181.946 140.533 182.057 140.523C182.333 140.503 182.609 140.484 182.881 140.438C182.995 140.419 183.057 140.283 183.028 140.182C183.021 140.156 183.009 140.132 182.993 140.111C182.977 140.089 182.956 140.071 182.933 140.058C182.903 140.039 182.867 140.029 182.831 140.03C182.811 140.03 182.791 140.033 182.771 140.036" fill="#161616"/>
<path fill-rule="evenodd" clip-rule="evenodd" d="M183.027 140.137C183.027 140.513 183.338 140.825 183.715 140.825C183.897 140.824 184.071 140.751 184.2 140.622C184.329 140.493 184.402 140.319 184.403 140.137C184.402 139.955 184.329 139.781 184.2 139.652C184.071 139.523 183.897 139.45 183.715 139.449C183.533 139.45 183.359 139.523 183.23 139.652C183.101 139.781 183.028 139.955 183.027 140.137Z" fill="#161616"/>
<path fill-rule="evenodd" clip-rule="evenodd" d="M195.222 139.56C195.236 139.565 195.251 139.57 195.265 139.577L195.222 139.559V139.56ZM195.1 139.506L195.192 139.546L195.1 139.506ZM192.044 138.649L192.122 138.659C192.096 138.656 192.07 138.653 192.044 138.649V138.649ZM190.123 137.081C189.648 137.125 189.164 137.178 188.697 137.285C188.213 137.392 187.73 137.505 187.246 137.622C186.866 137.712 186.49 137.817 186.119 137.937L185.424 138.161C185.21 138.229 184.999 138.33 184.788 138.415C183.859 138.79 182.992 139.303 182.216 139.937C182.064 140.061 181.986 140.304 181.986 140.496C181.986 140.6 182.007 140.702 182.047 140.798C182.087 140.894 182.145 140.981 182.219 141.054C182.292 141.127 182.38 141.185 182.476 141.225C182.572 141.264 182.674 141.284 182.778 141.284C183.005 141.284 183.165 141.191 183.337 141.054L183.406 140.998C183.832 140.691 184.278 140.391 184.752 140.171L185.302 139.919L185.81 139.719C186.002 139.642 186.207 139.589 186.405 139.525C186.795 139.402 187.194 139.298 187.59 139.191C187.953 139.093 188.32 139.012 188.687 138.927C188.876 138.885 189.064 138.833 189.252 138.801C189.451 138.769 189.647 138.736 189.845 138.705L190.531 138.635C191.019 138.585 191.512 138.595 191.999 138.644C192.366 138.699 192.729 138.774 193.089 138.849C193.343 138.905 193.596 138.983 193.846 139.051C194.306 139.178 194.756 139.366 195.199 139.549C195.537 139.699 195.878 139.839 196.226 139.959C196.476 140.048 196.776 139.905 196.905 139.684C197.077 139.389 196.956 139.048 196.687 138.866C196.323 138.612 195.943 138.384 195.547 138.184C195.129 137.97 194.687 137.801 194.249 137.629C194.039 137.544 193.814 137.489 193.596 137.418C193.372 137.346 193.136 137.304 192.908 137.246C192.315 137.105 191.708 137.03 191.099 137.024C190.773 137.024 190.449 137.051 190.123 137.081" fill="#161616"/>
</svg>
