<svg width="500" height="600" viewBox="0 0 500 600" fill="none" xmlns="http://www.w3.org/2000/svg">
<path fill-rule="evenodd" clip-rule="evenodd" d="M174 195.087C174.323 195.272 174.657 195.437 175 195.581L174.999 195.576C174.959 195.376 174.934 195.186 174.92 195L174 195.087ZM187.5 131.027L185.762 131.098C185.418 131.112 185.07 131.146 184.726 131.169C184.126 131.214 183.53 131.254 182.93 131.298C182.631 131.318 182.333 131.366 182.035 131.406C181.409 131.484 180.779 131.566 180.153 131.647C179.878 131.685 179.606 131.722 179.331 131.776C178.246 131.986 177.161 132.2 176.076 132.41C175.806 132.464 175.541 132.546 175.276 132.613C174.636 132.78 173.997 132.946 173.356 133.108C172.938 133.217 172.522 133.325 172.106 133.431C171.529 133.58 170.959 133.759 170.388 133.929C170.252 133.972 170.137 134.065 170.068 134.19C169.999 134.315 169.981 134.462 170.018 134.6C170.036 134.668 170.066 134.731 170.108 134.787C170.151 134.843 170.203 134.89 170.264 134.925C170.324 134.96 170.391 134.983 170.46 134.993C170.529 135.002 170.6 134.998 170.667 134.98C171.215 134.817 171.759 134.644 172.312 134.502L173.407 134.224L176.089 133.536C176.6 133.406 177.122 133.326 177.639 133.224C178.389 133.081 179.139 132.941 179.889 132.794C180.829 132.677 181.773 132.566 182.717 132.451C183.057 132.407 183.402 132.403 183.742 132.38L185.536 132.268C185.87 132.248 186.204 132.244 186.536 132.238C187.08 132.22 187.626 132.206 188.171 132.19C188.598 132.176 189.026 132.206 189.453 132.213C189.843 132.223 190.236 132.217 190.627 132.251C191.092 132.295 191.557 132.341 192.022 132.381C192.3 132.429 192.578 132.479 192.855 132.528C193.127 132.576 193.395 132.654 193.665 132.722C194.173 132.854 194.671 133.037 195.173 133.207C195.511 133.319 195.883 133.077 195.976 132.732C196.021 132.561 195.999 132.38 195.914 132.225C195.829 132.07 195.689 131.953 195.521 131.898C194.694 131.606 193.841 131.393 192.973 131.261C192.74 131.227 192.508 131.189 192.271 131.155C192.026 131.122 191.777 131.112 191.528 131.091C191.115 131.061 190.698 131.013 190.282 131.013C189.679 131.01 189.079 131.007 188.479 131C188.151 131 187.827 131.013 187.499 131.027H187.5ZM193.034 138.035C192.791 138.042 192.552 138.071 192.312 138.093C191.898 138.133 191.487 138.18 191.077 138.247C190.355 138.36 189.65 138.557 189.003 138.944C188.713 139.112 188.428 139.344 188.205 139.614C188.12 139.539 188.018 139.487 187.907 139.462C187.796 139.438 187.681 139.442 187.572 139.474C187.569 139.477 187.569 139.477 187.566 139.477C187.346 139.547 187.104 139.769 187.068 140.04C186.948 140.47 187.012 140.948 187.068 141.383C187.094 141.584 187.262 141.785 187.411 141.883C187.494 141.94 187.588 141.977 187.687 141.992C187.786 142.007 187.887 142 187.983 141.971C188.16 141.911 188.309 141.789 188.403 141.628C188.478 141.605 188.553 141.577 188.628 141.544C188.814 141.463 188.991 141.362 189.163 141.248C189.292 141.282 189.427 141.285 189.556 141.255C189.669 141.237 189.776 141.185 189.886 141.142C190.083 141.065 190.284 140.989 190.484 140.923C191.041 140.743 191.611 140.61 192.189 140.523C192.796 140.442 193.408 140.396 194.02 140.383C194.73 140.365 195.435 140.423 196.138 140.513C196.886 140.637 197.638 140.767 198.369 140.982C198.512 141.054 198.659 141.116 198.809 141.168C199.013 141.238 199.229 141.288 199.439 141.222C199.699 141.142 199.902 140.901 199.973 140.612C200.051 140.287 199.951 139.981 199.763 139.74C199.605 139.535 199.371 139.415 199.149 139.324C199.038 139.278 198.925 139.235 198.811 139.197C198.725 139.117 198.626 139.052 198.517 139.006C198.387 138.944 198.257 138.884 198.126 138.824L198.158 138.838C198.042 138.781 197.927 138.72 197.815 138.655C197.631 138.55 197.431 138.4 197.23 138.352C197.132 138.328 197.03 138.324 196.93 138.339C196.901 138.312 196.87 138.286 196.839 138.261C196.676 138.136 196.492 138.136 196.304 138.108L196.349 138.115C195.719 138.033 195.083 137.995 194.447 138C193.975 138 193.503 138.015 193.034 138.035V138.035ZM172.645 138.047C172.361 138.071 172.077 138.117 171.797 138.155C171.637 138.178 171.473 138.192 171.316 138.222C170.976 138.292 170.636 138.352 170.302 138.451C169.18 138.77 168.096 139.152 167.102 139.774C166.664 140.046 166.267 140.392 165.883 140.731C165.603 140.973 165.343 141.239 165.133 141.547C164.896 141.903 164.995 142.425 165.283 142.717C165.403 142.837 165.543 142.918 165.706 142.966C165.93 143.026 166.251 143.016 166.444 142.867C166.667 142.7 166.897 142.539 167.121 142.374C167.656 141.994 168.23 141.671 168.832 141.411C169.571 141.121 170.331 140.963 171.115 140.847C172.313 140.702 173.518 140.628 174.724 140.627C174.968 140.627 175.213 140.634 175.457 140.64C175.483 140.649 175.508 140.658 175.533 140.669C175.747 140.763 175.96 140.859 176.173 140.957C176.466 141.091 176.736 141.161 177.056 141.074C177.343 140.994 177.589 140.803 177.739 140.546C177.807 140.499 177.865 140.439 177.908 140.368C177.952 140.298 177.98 140.22 177.992 140.138C178.003 140.056 177.998 139.973 177.976 139.894C177.954 139.814 177.915 139.74 177.863 139.676C177.86 139.668 177.859 139.66 177.858 139.653C177.784 139.391 177.587 139.082 177.33 138.964C176.783 138.712 176.232 138.444 175.654 138.269C175.178 138.125 174.657 138.074 174.163 138.028C173.963 138.009 173.761 138 173.56 138C173.255 138 172.95 138.019 172.645 138.047V138.047ZM184.868 177.322L184.776 177.355L184.868 177.322ZM179.91 176.636C180.22 176.701 180.53 176.757 180.844 176.799C181.343 176.866 181.845 176.914 182.347 176.95L183.268 177.013C183.845 177.048 184.425 177.024 184.997 176.943C185.303 176.903 185.609 176.862 185.913 176.81C185.543 177.026 185.148 177.196 184.746 177.365C184.202 177.557 183.636 177.695 183.058 177.774C182.772 177.803 182.484 177.807 182.197 177.784C181.998 177.752 181.802 177.704 181.61 177.641C181.31 177.513 181.03 177.364 180.748 177.208C180.548 177.098 180.348 176.983 180.158 176.858C180.071 176.789 179.989 176.715 179.91 176.636V176.636ZM180.965 175.357L181.087 175.37L180.965 175.357ZM186.666 175.031C186.503 175.058 186.337 175.108 186.174 175.141C185.971 175.187 185.769 175.223 185.565 175.261C185.175 175.339 184.785 175.41 184.389 175.464C183.841 175.519 183.298 175.514 182.746 175.489C182.197 175.466 181.648 175.427 181.101 175.372C180.54 175.294 179.985 175.181 179.438 175.034C179.268 174.989 179.088 174.999 178.924 175.063C178.76 175.126 178.62 175.24 178.524 175.387C178.166 175.482 177.907 175.852 178.032 176.185C178.112 176.401 178.208 176.611 178.325 176.815C178.465 177.061 178.657 177.276 178.85 177.493C179.105 177.781 179.481 177.973 179.834 178.155C180.442 178.473 181.048 178.788 181.742 178.926C182.56 179.091 183.382 178.953 184.176 178.776C184.914 178.611 185.626 178.284 186.274 177.933C186.722 177.692 187.125 177.376 187.464 176.998C187.77 176.662 187.993 176.281 188 175.834C188.007 175.525 187.83 175.256 187.527 175.117C187.361 175.034 187.177 174.994 186.991 175C186.89 175 186.792 175.012 186.666 175.03V175.031ZM178.533 159.066C178.079 159.414 177.607 159.739 177.119 160.039L177.078 160.333L177.05 160.534L177.034 160.649C176.969 161.169 176.887 161.687 176.789 162.202C176.649 162.913 176.506 163.622 176.354 164.33C176.311 164.52 176.267 164.708 176.221 164.898L176.128 165.303C176.071 165.542 176.03 165.784 176.006 166.028C175.988 166.233 176.009 166.434 176.071 166.608C176.125 166.805 176.211 166.972 176.345 167.118C176.509 167.261 176.625 167.364 176.758 167.435C177.668 167.932 178.714 168 179.62 168C179.877 168 180.135 167.997 180.39 167.99L180.492 167.986L181.06 167.973L181.629 167.959C181.994 167.952 182.367 167.898 182.699 167.85L182.805 167.837L182.885 167.823L183.072 167.796C183.292 167.728 183.479 167.616 183.64 167.445C183.87 167.185 184 166.835 184 166.485C184 165.764 183.445 165.13 182.811 165.13C182.225 165.157 181.687 165.219 181.095 165.287C180.387 165.371 179.682 165.453 178.993 165.453C178.713 165.453 178.434 165.443 178.154 165.409L178.046 165.399L178.077 165.219L178.092 165.024L178.186 163.938C178.214 163.585 178.251 163.23 178.288 162.879C178.338 162.406 178.385 161.974 178.416 161.535C178.431 161.327 178.444 161.119 178.452 160.911C178.462 160.738 178.475 160.564 178.486 160.391C178.509 160.071 178.543 159.751 178.574 159.431L178.599 159.206L178.621 159L178.533 159.066V159.066ZM164.012 146.964C164.11 146.633 164.226 146.31 164.366 146C164.08 146.221 163.959 146.609 164.012 146.964Z" fill="#161616"/>
<path fill-rule="evenodd" clip-rule="evenodd" d="M177.173 140.04C176.923 140.112 176.706 140.294 176.574 140.538C176.425 140.812 176.431 141.069 176.474 141.372C176.579 142.14 176.684 142.909 176.791 143.68C176.881 144.477 176.971 145.273 177.021 146.077C177.066 146.859 177.051 147.637 177.008 148.419C176.922 150.026 176.855 151.634 176.722 153.237C176.628 153.899 176.509 154.558 176.367 155.212C176.223 155.892 176.037 156.564 175.933 157.257C175.818 158.021 175.698 158.784 175.573 159.547C175.452 160.302 175.378 161.068 175.299 161.831C175.213 162.461 175.101 163.085 175.033 163.72C175.003 164.007 174.993 164.294 175.005 164.584C175.023 164.954 175.097 165.26 175.246 165.591C175.332 165.776 175.448 165.923 175.566 166.089C175.9 166.551 176.431 166.735 176.947 166.831C177.851 167.003 178.758 167.051 179.668 166.941C180.555 166.824 181.436 166.67 182.31 166.481C182.716 166.395 183 165.927 183 165.501C183 164.987 182.57 164.436 182.06 164.488L180.566 164.638C180.266 164.667 179.967 164.693 179.668 164.717C179.088 164.754 178.505 164.731 177.929 164.65C177.79 164.625 177.65 164.6 177.512 164.567C177.617 164.175 177.749 163.787 177.857 163.4C178.035 162.77 178.16 162.133 178.288 161.493C178.556 160.169 178.688 158.823 178.849 157.479C179.044 156.098 179.263 154.722 179.341 153.324C179.378 152.718 179.354 152.097 179.333 151.491C179.308 150.791 179.283 150.088 179.263 149.389C179.243 148.779 179.219 148.169 179.198 147.558C179.174 146.839 179.098 146.126 179.027 145.41C178.881 143.866 178.624 142.33 178.41 140.796C178.373 140.535 178.15 140.277 177.949 140.149C177.836 140.076 177.707 140.028 177.573 140.009C177.439 139.99 177.303 140 177.173 140.039V140.04ZM192.219 144.146C191.14 144.319 190.077 144.578 189.039 144.92C188.55 145.077 188.071 145.269 187.609 145.49C187.39 145.597 187.18 145.722 186.981 145.864C186.718 146.036 186.476 146.239 186.261 146.469C185.936 146.843 185.891 147.38 186.261 147.748C186.597 148.075 187.235 148.12 187.564 147.748C187.664 147.634 187.771 147.538 187.887 147.442C188.17 147.242 188.469 147.079 188.787 146.932C189.339 146.711 189.903 146.521 190.475 146.362L190.466 146.388C190.03 146.897 189.88 147.609 189.797 148.254C189.781 148.377 189.787 148.501 189.809 148.625C189.67 148.669 189.535 148.722 189.403 148.785C188.863 149.05 188.762 149.741 189.019 150.221C189.152 150.471 189.321 150.653 189.585 150.765C189.705 150.84 189.841 150.885 189.982 150.896C190.185 150.928 190.39 150.948 190.592 150.97C190.936 151.005 191.292 150.995 191.636 150.999C192.151 151.005 192.658 150.989 193.173 150.973C193.775 150.951 194.28 150.493 194.28 149.885C194.28 149.564 194.13 149.27 193.897 149.068C193.989 148.853 194.048 148.625 194.072 148.392C194.123 147.894 193.986 147.403 193.745 146.964C193.655 146.732 193.514 146.524 193.332 146.354C193.627 146.324 193.922 146.297 194.217 146.27C194.553 146.242 194.895 146.25 195.23 146.242C195.462 146.238 195.696 146.245 195.93 146.254C196.4 146.27 196.87 146.286 197.33 146.194C197.636 146.133 197.887 145.854 197.968 145.566C198.078 145.17 197.896 144.766 197.548 144.552C197.373 144.446 197.183 144.408 196.988 144.379C196.771 144.348 196.557 144.301 196.346 144.239C196.027 144.107 195.687 144.033 195.341 144.021C195.168 144.011 194.996 144.001 194.823 144.001L194.484 144C193.727 144 192.972 144.032 192.219 144.146V144.146ZM172.377 151.976L172.161 151.946L172.091 151.936L172.377 151.976ZM168.243 149.186L168.163 149.198L168.243 149.186ZM168.923 145.283C168.514 145.376 168.113 145.501 167.723 145.656C167.31 145.823 166.947 146.054 166.565 146.282C166.308 146.435 166.121 146.681 166.042 146.97C165.967 147.244 165.984 147.623 166.156 147.86C166.328 148.1 166.486 148.335 166.756 148.47C167.038 148.612 167.32 148.674 167.632 148.588C167.806 148.539 167.966 148.449 168.099 148.325C168.231 148.202 168.332 148.048 168.392 147.878L168.461 147.842C168.63 147.779 168.8 147.722 168.971 147.672C168.823 148.074 168.77 148.482 168.754 148.908C168.752 148.972 168.755 149.035 168.762 149.096C168.612 149.125 168.461 149.15 168.311 149.175C168.166 149.19 168.021 149.199 167.885 149.254C167.733 149.297 167.595 149.379 167.484 149.491C167.374 149.604 167.295 149.744 167.255 149.897C167.152 150.276 167.31 150.747 167.671 150.932C168.014 151.11 168.361 151.248 168.734 151.35C168.933 151.406 169.14 151.446 169.341 151.489C169.665 151.555 169.986 151.614 170.311 151.667C170.927 151.768 171.543 151.862 172.161 151.947C172.664 152.014 173.177 152.068 173.632 151.776C174.044 151.508 174.264 151.017 174.132 150.53C173.982 149.983 173.357 149.561 172.799 149.762C172.79 149.764 172.781 149.767 172.772 149.77C172.566 149.786 172.359 149.793 172.152 149.793C172.197 149.706 172.236 149.617 172.27 149.525C172.423 149.115 172.458 148.657 172.396 148.23C172.341 147.866 172.116 147.573 171.856 147.333C172.15 147.34 172.446 147.353 172.738 147.378C172.853 147.442 172.964 147.512 173.074 147.589C173.187 147.688 173.306 147.782 173.428 147.87C173.645 148.028 173.98 148.045 174.226 147.976C174.586 147.877 174.836 147.596 174.949 147.244C175.062 146.881 174.972 146.47 174.819 146.136C174.635 145.725 174.252 145.484 173.856 145.322C173.506 145.181 173.116 145.128 172.743 145.089C172.331 145.046 171.916 145.026 171.501 145.006C171.403 145.002 171.304 145 171.205 145C170.44 145 169.67 145.12 168.923 145.283" fill="#161616"/>
<path fill-rule="evenodd" clip-rule="evenodd" d="M195.733 105.617H195.649C195.292 105.617 194.933 105.649 194.579 105.68L194.362 105.699C193.526 105.773 192.691 105.849 191.856 105.952C190.234 106.153 188.626 106.455 187.042 106.857C186.394 107.025 185.709 107.232 184.887 107.509L184.674 107.581C184.194 107.741 183.709 107.904 183.242 108.099L181.392 108.879L180.926 109.069C180.583 109.208 180.239 109.347 179.908 109.508L179.308 109.798C178.537 110.169 177.766 110.541 177.006 110.935L175.149 111.898C174.85 112.052 174.559 112.228 174.272 112.406L173.968 112.589C173.65 112.776 173.335 112.959 173.024 113.147L172.892 113.222C172.795 113.277 172.699 113.331 172.61 113.39L171.792 113.95L170.972 114.51C170.256 115.008 169.551 115.521 168.857 116.05L168.199 116.543C167.557 117.021 166.926 117.513 166.294 118.006L165.811 118.383C164.985 119.023 164.186 119.725 163.412 120.404L163.024 120.744C162.254 121.422 161.543 122.141 160.712 123.013L160.28 123.47C159.866 123.911 159.452 124.352 159.016 124.773C158.496 125.277 157.906 125.793 157.218 126.349C157.091 126.438 156.962 126.524 156.833 126.609C156.704 126.696 156.575 126.782 156.447 126.871C156.296 126.978 156.15 127.091 156.008 127.211C155.753 127.426 155.641 127.716 155.532 127.997C155.439 128.231 155.469 128.683 155.532 128.904C155.564 129.014 155.603 129.119 155.648 129.223C155.873 129.763 156.088 130.343 156.344 131.107C156.567 131.762 156.789 132.417 156.99 133.076C157.191 133.74 157.352 134.401 157.48 135.095C157.579 136.049 157.575 137.073 157.466 138.139C157.378 138.609 157.248 139.224 157.026 139.809C156.77 140.399 156.478 140.973 156.152 141.528L156.019 141.748L155.884 141.972C155.738 142.216 155.633 142.472 155.549 142.69C155.472 142.921 155.462 143.169 155.519 143.405C155.567 143.597 155.679 143.845 155.825 143.965C155.977 144.089 156.115 144.189 156.291 144.274C156.405 144.328 156.526 144.373 156.644 144.417C157.451 144.78 158.194 145.231 158.913 145.667L159.131 145.798C159.405 145.967 159.679 146.13 159.966 146.269C160.274 146.413 160.604 146.515 160.926 146.615L161.026 146.645C161.212 146.705 161.396 146.747 161.587 146.772C161.582 146.88 161.582 146.987 161.587 147.095C161.593 147.365 161.617 147.635 161.638 147.9C161.661 148.137 161.678 148.348 161.69 148.558L161.696 148.666C161.718 149.165 161.736 149.626 161.696 150.078L161.677 150.298C161.51 151.256 161.284 152.146 160.997 153.188C160.735 154.135 160.45 155.264 160.333 156.442L160.287 156.842L160.262 157.082C160.229 157.397 160.2 157.713 160.174 158.029C160.148 158.34 160.133 158.651 160.116 158.963L160.084 159.55C160.011 160.658 159.959 161.768 159.926 162.878C159.913 163.358 159.906 163.845 159.901 164.325C159.894 164.746 159.91 165.129 159.93 165.516L159.949 165.954C159.985 166.885 160.078 167.831 160.167 168.745L160.181 168.896L160.194 169.019L160.206 169.133C160.467 171.721 160.826 173.793 161.332 175.651C161.442 176.053 161.567 176.448 161.7 176.845C161.777 177.072 161.868 177.292 161.959 177.513L161.997 177.61L162.162 178.013C162.519 178.911 162.887 179.8 163.264 180.689C163.271 180.636 163.265 180.581 163.246 180.531C163.5 181.241 163.931 182.3 164.46 183.372C164.932 184.326 165.447 185.258 166.005 186.165C166.658 187.242 167.327 188.145 168.053 188.92C168.601 189.502 169.223 190.039 169.772 190.513L169.844 190.575L170.395 191.055C171.457 191.979 172.285 192.615 173.078 193.112C173.821 193.585 174.614 193.942 175.381 194.287L175.878 194.514L176.288 194.706L176.384 194.75C177.241 195.15 178.079 195.535 178.922 195.86C179.158 195.955 179.397 196.042 179.635 196.128L179.8 196.188L179.893 196.22L180.428 196.415C180.857 196.577 181.288 196.739 181.731 196.872C182.82 197.199 183.965 197.256 185.141 197.288C185.657 197.304 186.17 197.314 186.683 197.32L186.821 197.324C187.518 197.324 188.191 197.25 188.822 197.103C189.321 196.984 189.807 196.82 190.277 196.615C190.892 196.362 191.427 196.023 191.868 195.727C192.567 195.264 193.235 194.734 193.882 194.221L194.022 194.111L194.558 193.686L194.809 193.488C195.149 193.222 195.49 192.953 195.809 192.66C196.202 192.3 196.562 191.919 196.897 191.56L197.045 191.398C197.455 190.951 197.837 190.536 198.164 190.098C198.399 189.783 198.623 189.464 198.849 189.141L198.986 188.945L199.076 188.812L200.08 187.398L200.43 186.895L200.988 186.104C201.428 185.462 201.844 184.804 202.236 184.131L202.64 183.463C203.042 182.806 203.403 182.208 203.727 181.562C203.917 181.179 204.081 180.783 204.24 180.384C204.435 179.914 204.5 179.474 204.547 179.097C204.547 178.887 204.494 178.69 204.391 178.512C204.289 178.338 204.143 178.193 203.969 178.092C203.794 177.99 203.596 177.936 203.394 177.933C203.007 177.933 202.644 178.143 202.394 178.508L202.306 178.634C202.137 178.871 201.986 179.12 201.855 179.38L201.79 179.508L201.654 179.763C201.439 180.176 201.208 180.581 200.962 180.976C200.631 181.512 200.293 182.044 199.949 182.572L199.737 182.906L199.347 183.509C199.237 183.681 199.125 183.853 199.008 184.025C199.049 183.887 199.04 183.74 199.026 183.588C198.959 182.817 198.865 181.906 198.669 180.992L198.539 180.395C198.434 179.905 198.239 179.435 198.049 178.979C197.789 178.374 197.529 177.925 197.284 177.512L197.143 177.272C196.964 176.967 196.781 176.664 196.593 176.364C196.235 175.783 195.791 175.303 195.365 174.87C194.959 174.459 194.505 174.076 194.067 173.706L193.774 173.456C193.562 173.274 193.343 173.096 193.124 172.918L192.908 172.742C192.63 172.518 192.346 172.301 192.055 172.093C191.555 171.729 190.979 171.461 190.481 171.249C189.565 170.841 188.61 170.53 187.629 170.32C186.85 170.157 186.061 170.118 185.535 170.103C185.412 170.103 185.32 170.115 185.217 170.145C185.108 170.023 184.966 169.937 184.808 169.896C184.721 169.869 184.63 169.856 184.538 169.856C184.102 169.856 183.716 170.153 183.557 170.611C183.444 170.939 183.331 171.264 183.215 171.591C183.035 172.087 182.96 172.494 182.985 172.833C183.005 173.19 183.129 173.487 183.355 173.714C183.619 173.977 183.999 174.095 184.301 174.171C184.504 174.221 184.713 174.252 184.917 174.283L185.253 174.333C185.788 174.428 186.319 174.543 186.845 174.677C187.409 174.814 187.963 174.95 188.482 175.157C189.558 175.637 190.45 176.145 191.207 176.709C191.764 177.168 192.255 177.669 192.709 178.239C193.212 178.924 193.731 179.674 194.114 180.514C194.395 181.247 194.601 182.03 194.741 182.909C194.825 183.716 194.835 184.469 194.77 185.209C194.74 185.573 194.709 185.936 194.673 186.299L194.648 186.517L194.573 187.148L194.493 187.123L194.179 187.09L194.015 187.074C193.554 187.011 193.092 186.955 192.629 186.905C192.349 186.876 192.065 186.843 191.784 186.808C190.852 186.662 189.864 186.477 188.946 186.118C188.742 186.026 188.545 185.918 188.357 185.797C188.272 185.714 188.189 185.629 188.107 185.542C188.03 185.427 187.961 185.306 187.902 185.181C187.761 184.839 187.655 184.483 187.587 184.119C187.534 183.551 187.489 182.983 187.452 182.414L187.595 182.367C187.811 182.273 188.01 182.122 188.158 182.003C188.515 181.831 188.69 181.565 188.69 181.191C188.69 180.47 188.029 180.213 187.463 180.213C187.29 180.213 187.107 180.239 186.935 180.288L186.599 180.392C186.186 180.524 185.839 180.629 185.463 180.691C184.611 180.795 183.667 180.846 182.578 180.846C181.936 180.846 181.295 180.826 180.654 180.797C180.344 180.797 180.083 180.91 179.874 181.134C179.681 181.338 179.572 181.608 179.568 181.889C179.568 182.485 180.034 182.954 180.653 182.98C181.011 182.997 181.369 183.007 181.727 183.013L181.674 183.085L181.648 183.195C181.514 183.703 181.399 184.079 181.274 184.412C181.153 184.7 181.005 184.976 180.83 185.235C180.654 185.435 180.47 185.625 180.268 185.805C180.154 185.881 180.035 185.949 179.912 186.01C179.535 186.149 179.146 186.254 178.75 186.325C178.636 186.335 178.521 186.34 178.406 186.341C178.039 186.341 177.661 186.295 177.296 186.25L176.914 186.201L176.785 186.188L176.686 186.178C176.374 186.139 176.06 186.116 175.746 186.111C175.356 186.115 174.966 186.157 174.584 186.237L174.603 186.132C174.606 185.142 174.609 184.122 174.69 183.083C174.796 182.373 174.938 181.646 175.18 180.57C175.362 179.76 175.68 178.996 175.99 178.256L176.09 178.013L176.247 177.65L176.29 177.55C176.356 177.398 176.424 177.243 176.495 177.089C176.611 176.846 176.743 176.61 176.888 176.383C176.963 176.265 177.051 176.151 177.138 176.039L177.294 175.842L177.129 175.976L177.326 175.79C177.536 175.533 177.746 175.281 177.967 175.034C178.257 174.71 178.599 174.424 178.898 174.182C179.116 174.009 179.346 173.854 179.587 173.716C179.871 173.605 180.162 173.514 180.458 173.444C180.565 173.422 180.674 173.402 180.783 173.383C181.026 173.337 181.21 173.301 181.398 173.24C181.527 173.196 181.655 173.147 181.781 173.094L181.869 173.058L182.162 172.934C182.379 172.841 182.532 172.745 182.674 172.616C182.839 172.473 182.88 172.203 182.889 172.056C182.896 171.908 182.885 171.76 182.857 171.615C182.804 171.32 182.693 171.038 182.53 170.785C182.525 170.595 182.392 170.364 182.16 170.317C181.761 170.229 181.353 170.181 180.944 170.174C180.773 170.174 180.601 170.184 180.427 170.208C179.954 170.271 179.509 170.419 178.977 170.606C178.795 170.672 178.615 170.736 178.438 170.804L178.332 170.847L178.252 170.875C178.134 170.922 178.072 170.947 178.012 170.976C177.875 171.037 177.743 171.108 177.618 171.191C176.826 171.695 176.062 172.243 175.332 172.833C174.856 173.199 174.431 173.627 174.069 174.106C173.794 174.481 173.554 174.889 173.311 175.31C173.037 175.786 172.881 176.267 172.742 176.693L172.684 176.878L172.594 177.158C172.439 177.604 172.279 178.046 172.118 178.487C171.814 179.33 171.665 180.244 171.533 181.05L171.514 181.174C171.462 181.489 171.404 181.803 171.347 182.114L171.314 182.293L171.276 182.511C171.205 182.927 171.134 183.341 171.078 183.762C170.953 184.682 170.868 185.455 170.868 186.248C170.868 186.631 170.872 187.011 170.882 187.393L170.889 187.659L170.899 187.926C170.791 187.778 170.653 187.646 170.511 187.51L170.167 187.177C169.851 186.864 169.577 186.519 169.314 186.184C168.467 185.03 167.662 183.683 166.854 182.064C166.228 180.808 165.672 179.496 165.134 178.227L165.055 178.049L164.93 177.744L164.727 177.222L164.647 177.021C164.525 176.722 164.404 176.422 164.285 176.122C164.175 175.837 164.089 175.542 164.001 175.247L163.963 175.107C163.863 174.763 163.763 174.42 163.68 174.07C163.361 172.719 163.107 171.353 162.919 169.978C162.696 168.079 162.458 165.878 162.464 163.771C162.467 162.801 162.498 161.762 162.554 160.683L162.599 159.765C162.642 158.931 162.681 158.177 162.754 157.437L162.815 156.765L162.876 156.145C162.912 155.929 162.951 155.712 162.996 155.491C162.879 154.657 163.025 153.746 163.183 152.964L163.283 152.461C163.349 152.125 163.415 151.789 163.493 151.456C163.55 151.191 163.611 150.925 163.673 150.659L163.683 150.551C163.788 149.557 163.894 148.528 164.137 147.551C164.127 146.878 164.126 146.204 164.134 145.531L164.144 144.513C164.15 144.241 164.167 143.969 164.182 143.696L164.192 143.531C164.223 142.918 164.305 142.297 164.384 141.696L164.402 141.539C164.505 140.849 164.618 140.155 164.734 139.464C164.866 138.674 164.975 137.884 165.082 137.09L165.031 137.232L165.187 136.402L165.269 135.906C165.344 135.494 165.449 135.079 165.556 134.671C165.76 133.895 166.015 132.983 166.356 132.102C166.586 131.507 166.828 130.918 167.07 130.327L167.406 129.498C167.567 129.1 167.726 128.698 167.88 128.295C168.054 127.847 168.228 127.403 168.41 126.958L168.448 126.865L168.499 126.732C168.533 126.726 168.566 126.714 168.596 126.697C169.228 126.393 169.866 126.103 170.51 125.827L170.726 125.734C171.508 125.459 172.354 125.164 173.224 124.897L173.449 124.829C173.723 124.749 174 124.667 174.281 124.589L174.736 124.463C175.049 124.372 175.361 124.285 175.676 124.21L175.883 124.164C176.653 123.984 177.427 123.821 178.204 123.675C179.062 123.524 179.922 123.387 180.784 123.262C181.761 123.157 182.74 123.066 183.72 122.99C184.683 122.919 185.647 122.868 186.612 122.838L186.705 122.835C187.041 122.822 187.375 122.815 187.715 122.815C188.23 122.815 188.752 122.828 189.271 122.841L189.526 122.851L189.761 122.857C190.601 122.88 191.466 122.944 192.33 123.049C193.51 123.239 194.653 123.509 195.818 123.795C197.14 124.122 198.263 124.467 199.251 124.852C200.098 125.254 200.799 125.619 201.467 126.096C201.634 126.248 201.795 126.407 201.942 126.578C201.982 126.633 202.018 126.697 202.052 126.774C202.324 127.614 202.453 128.53 202.568 129.339C202.647 129.967 202.712 130.525 202.753 131.085C202.779 131.471 202.792 131.857 202.805 132.246C202.812 132.489 202.817 132.726 202.831 132.96C202.891 134.245 202.973 135.528 203.063 136.81C203.101 137.374 203.133 137.936 203.163 138.5C203.198 139.168 203.237 139.84 203.292 140.508C203.378 141.54 203.529 142.593 203.662 143.522L203.798 144.478L203.862 144.975L203.94 145.543L203.959 145.701C204.086 146.708 204.209 147.685 204.379 148.624L204.211 148.637C204.229 149.121 204.231 149.62 204.207 150.127C204.378 150.107 204.537 150.077 204.697 150.045C204.88 150.929 205.127 151.855 205.423 152.793C205.63 153.429 205.869 154.03 206.133 154.579C206.243 154.796 206.363 155.014 206.495 155.218C206.955 155.934 207.605 156.344 208.282 156.344C208.972 156.321 209.497 155.919 210.004 155.528L210.121 155.44C210.196 155.382 210.269 155.324 210.347 155.273L210.534 155.136L210.604 155.086C210.904 154.869 211.217 154.645 211.552 154.462C211.632 154.42 211.712 154.378 211.794 154.339C212.021 154.255 212.243 154.181 212.481 154.129L212.561 154.152C212.581 154.183 212.605 154.211 212.631 154.237L212.731 154.387L212.761 154.49L212.81 154.645C212.617 155.377 212.628 155.998 212.843 156.54C212.907 156.772 213.023 156.972 213.196 157.153C213.459 159.292 213.479 161.353 213.251 163.273C213.147 163.92 213.004 164.679 212.73 165.403C212.578 165.711 212.403 166.008 212.205 166.289C211.925 166.626 211.589 166.952 211.178 167.283C210.762 167.596 210.32 167.874 209.858 168.113C209.748 168.131 209.706 168.131 209.665 168.131L209.577 168.015C209.483 167.899 209.363 167.807 209.227 167.745C209.091 167.683 208.943 167.654 208.794 167.658C208.538 167.652 208.288 167.734 208.086 167.892C207.884 168.049 207.743 168.271 207.686 168.521C207.615 168.813 207.658 169.104 207.81 169.337C207.92 169.517 208.036 169.697 208.175 169.86C208.269 169.97 208.452 170.168 208.617 170.246C208.854 170.352 209.037 170.433 209.25 170.489C209.426 170.536 209.64 170.558 209.903 170.558C210.573 170.541 211.181 170.276 211.687 170.018C212.25 169.734 212.784 169.396 213.281 169.008C213.503 168.837 213.717 168.651 213.926 168.464C214.143 168.264 214.322 168.029 214.486 167.804L214.578 167.684C214.966 167.164 215.208 166.544 215.411 165.953C215.611 165.385 215.68 164.741 215.734 164.224L215.764 163.979C215.822 163.459 215.854 162.909 215.864 162.249C215.883 161.012 215.83 159.775 215.705 158.544C215.643 157.905 215.567 157.268 215.476 156.633C215.539 156.487 215.565 156.328 215.551 156.17C215.542 156.133 215.537 156.095 215.534 156.057C215.572 155.914 215.614 155.772 215.66 155.631L215.695 155.514C215.721 155.437 215.747 155.358 215.766 155.281C215.834 155.027 215.888 154.775 215.94 154.521C216.063 153.871 216.186 153.178 216.234 152.467C216.296 151.443 216.276 150.424 216.256 149.439L216.25 148.986L216.244 148.72C216.236 147.935 216.213 147.149 216.174 146.365C216.324 145.975 216.475 145.582 216.608 145.187C216.672 144.994 216.738 144.8 216.805 144.607C216.928 144.251 217.052 143.895 217.156 143.537L217.275 143.129L217.675 141.752C217.779 141.394 217.859 141.029 217.938 140.665L218.049 140.165C218.292 139.13 218.477 138.059 218.601 136.985L218.654 136.54C218.702 136.153 218.749 135.767 218.776 135.38L218.809 134.853L218.843 134.322L218.858 134.109C218.874 133.939 218.884 133.769 218.888 133.599L218.899 132.649L218.911 131.701C218.91 131.141 218.888 130.581 218.843 130.023C218.788 129.163 218.68 128.307 218.52 127.46C218.374 126.702 218.142 125.955 217.917 125.234L217.813 124.9C217.683 124.477 217.528 124.064 217.373 123.65L217.285 123.414C216.788 122.088 216.195 120.554 215.424 119.141C214.826 118.051 214.076 117.068 213.42 116.251L213.158 115.925C212.914 115.622 212.671 115.32 212.418 115.027L212.188 114.759C211.544 114.009 210.878 113.236 210.177 112.516C209.757 112.081 209.329 111.659 208.89 111.244C208.511 110.883 208.083 110.56 207.67 110.249L207.471 110.099C206.596 109.439 205.696 108.814 204.771 108.226C203.836 107.614 202.836 107.105 201.791 106.708L201.521 106.605C201.324 106.529 201.125 106.456 200.926 106.386C200.305 106.171 199.623 106.003 198.716 105.842C197.912 105.704 197.302 105.639 196.739 105.631C196.403 105.624 196.069 105.621 195.733 105.617" fill="#161616"/>
</svg>
