<?xml version="1.0" encoding="UTF-8"?>
<svg width="500px" height="600px" viewBox="0 0 500 600" version="1.1" xmlns="http://www.w3.org/2000/svg" xmlns:xlink="http://www.w3.org/1999/xlink">
    <!-- Generator: Sketch 63.1 (92452) - https://sketch.com -->
    <title>surprised</title>
    <desc>Created with Sketch.</desc>
    <g id="surprised" stroke="none" stroke-width="1" fill="none" fill-rule="evenodd">
        <g id="Group-2" transform="translate(153.000000, 113.000000)">
            <path d="M22.352112,78.0462471 C28.3938966,78.9261757 32.0250281,78.7349223 33.2455065,77.4724869 C35.0762241,75.5788337 34.1202177,71.790176 32.9084505,71.6628142 C32.7948374,71.650873 31.4177736,69.4669065 27.9945219,69.9553226 C24.854998,70.4032576 23.074162,72.149107 22.6520139,75.192871 L22.352112,78.0462471 Z" id="Path-2" fill="#FEFEFF" transform="translate(28.309425, 74.236243) scale(1, -1) translate(-28.309425, -74.236243) "></path>
            <g id="Group-36" fill="#161616">
                <path d="M32.0062338,26.0658701 C31.4318961,26.0883117 30.8600519,26.1115844 30.2857143,26.134026 C29.9449351,26.1473247 29.6,26.1797403 29.2592208,26.2021818 C28.6649351,26.2445714 28.0748052,26.2836364 27.4805195,26.3251948 C27.1846234,26.3451429 26.8895584,26.3908571 26.5936623,26.4290909 C25.9736104,26.5038961 25.3502338,26.582026 24.7301818,26.6601558 C24.4575584,26.6958961 24.1882597,26.7316364 23.9156364,26.7831688 C22.8409351,26.9843117 21.7662338,27.1896104 20.6915325,27.3907532 C20.4247273,27.4422857 20.1620779,27.5204156 19.8994286,27.5852468 C19.2660779,27.7448312 18.6327273,27.9035844 17.9968831,28.059013 C17.5837922,28.1629091 17.1715325,28.2668052 16.7592727,28.3682078 C16.1882597,28.5103377 15.6230649,28.6823896 15.0578701,28.8452987 C14.7819221,28.9234286 14.6165195,29.2118442 14.6913247,29.4877922 C14.7661299,29.7604156 15.0611948,29.9291429 15.3338182,29.8518442 C15.8765714,29.6955844 16.4151688,29.5301818 16.9637403,29.3938701 C17.3244675,29.3057662 17.6876883,29.2151688 18.0484156,29.1278961 C18.9344416,28.9068052 19.817974,28.689039 20.704,28.4687792 C21.211013,28.3449351 21.7271688,28.2668052 22.24,28.1695584 C22.9830649,28.0332468 23.7252987,27.8985974 24.4683636,27.758961 C25.4001039,27.6459221 26.3343377,27.5395325 27.2694026,27.4298182 C27.6068571,27.3874286 27.9476364,27.3841039 28.2850909,27.3616623 C28.8760519,27.3259221 29.4703377,27.2901818 30.0612987,27.2544416 C30.3929351,27.2344935 30.7237403,27.2311688 31.0520519,27.2253506 C31.5906494,27.2087273 32.1325714,27.1954286 32.672,27.1796364 C33.0942338,27.1663377 33.518961,27.1954286 33.9411948,27.2020779 C34.3276883,27.2120519 34.7175065,27.2054026 35.104,27.2378182 C35.5644675,27.2802078 36.0249351,27.3234286 36.4862338,27.3633247 C36.7613506,27.409039 37.0364675,27.4564156 37.3115844,27.5037922 C37.5808831,27.5495065 37.8468571,27.6243117 38.1136623,27.6891429 C38.6165195,27.8154805 39.1102338,27.9908571 39.6072727,28.1537662 C39.9414026,28.260987 40.3112727,28.0299221 40.4027013,27.6991169 C40.4999481,27.345039 40.2855065,27.0142338 39.9513766,26.9003636 C39.1293506,26.6277403 38.289039,26.409974 37.4279481,26.2902857 C37.1977143,26.257039 36.9674805,26.2212987 36.7330909,26.1888831 C36.4903896,26.1564675 36.2435325,26.1473247 35.9966753,26.1273766 C35.5877403,26.0982857 35.1754805,26.0525714 34.7623896,26.0525714 C34.1656104,26.0492468 33.5713247,26.0467532 32.977039,26.0401039 C32.6520519,26.0401039 32.3312208,26.0525714 32.0062338,26.0658701" id="Fill-1"></path>
                <path d="M37.4725818,33.436426 C37.2290494,33.4430753 36.9888416,33.4688416 36.7486338,33.4879584 C36.3330494,33.5236987 35.9207896,33.5660883 35.5085299,33.6251013 C34.7845818,33.7256727 34.076426,33.9010494 33.4272831,34.2451532 C33.136374,34.3947636 32.8504519,34.6000623 32.6268675,34.8402701 C32.4506597,34.7081143 32.215439,34.6532571 31.9918545,34.7155948 C31.9885299,34.7189195 31.9885299,34.7189195 31.9852052,34.7189195 C31.7649455,34.780426 31.521413,34.9782442 31.4856727,35.2192831 C31.3651532,35.6016208 31.4299844,36.0271792 31.4856727,36.4136727 C31.511439,36.592374 31.6801662,36.7710753 31.8297766,36.8583481 C32.0018286,36.9622135 32.2129455,36.9880104 32.4041143,36.9364779 C32.5745039,36.8882701 32.7257766,36.7777247 32.8246857,36.631439 C32.9003221,36.6106597 32.9751273,36.5857247 33.0507636,36.5566338 C33.2377766,36.4843221 33.4156468,36.3945558 33.5876987,36.2931532 C33.7140364,36.3280623 33.840374,36.321413 33.9825039,36.2998026 C34.096374,36.2840104 34.2027636,36.2382961 34.3133091,36.1992312 C34.5111273,36.1310753 34.7131013,36.0629195 34.9142442,36.0047377 C35.4777766,35.8401662 36.0462961,35.7287896 36.6247896,35.6481662 C37.2340364,35.5766857 37.847439,35.5359584 38.4625039,35.5243221 C39.1739844,35.5085299 39.8821403,35.5592312 40.5878026,35.6406857 C41.3383481,35.7504 42.0930494,35.8659325 42.8269714,36.0571013 C42.9707636,36.1202701 43.1170494,36.1767896 43.2683221,36.2225039 C43.4727896,36.2840104 43.6897247,36.3288935 43.9008416,36.2707117 C44.1609974,36.1992312 44.3654649,35.9847896 44.4369455,35.7287896 C44.5150753,35.4395429 44.4145039,35.1669195 44.2258286,34.9524779 C44.0670753,34.7704519 43.8326857,34.6640623 43.6091013,34.5826078 C43.4968935,34.5410494 43.3838545,34.5044779 43.2699844,34.4704 C43.1876987,34.396426 43.0904519,34.3490494 42.9757506,34.3000104 C42.8452571,34.2451532 42.7139325,34.1911273 42.5826078,34.1379325 C42.593413,34.1420883 42.6042182,34.1462442 42.6150234,34.1504 C42.4986597,34.0988675 42.3814649,34.0465039 42.2709195,33.9883221 C42.0864,33.8944 41.8852571,33.761413 41.6832831,33.7190234 C41.5818805,33.697413 41.4796468,33.6940883 41.3824,33.707387 C41.3533091,33.6832831 41.3225558,33.6600104 41.2909714,33.6375688 C41.1280623,33.5270234 40.9435429,33.5270234 40.7548675,33.5012571 C40.7698286,33.5037506 40.7847896,33.505413 40.7997506,33.5079065 C40.1672312,33.4306078 39.5288935,33.4056727 38.8905558,33.4056727 C38.4176208,33.4056727 37.9438545,33.4189714 37.4725818,33.436426" id="Fill-3"></path>
                <path d="M17.4153143,33.563013 C17.1393662,33.5854545 16.8634182,33.6311688 16.5907948,33.6669091 C16.4345351,33.6893506 16.2757818,33.7026494 16.1228468,33.7317403 C15.7920416,33.7998961 15.4604052,33.8580779 15.1362494,33.9528312 C14.0449247,34.2611948 12.9901714,34.6310649 12.0226909,35.232 C11.5971325,35.4946494 11.210639,35.8296104 10.8374442,36.1570909 C10.5648208,36.3906494 10.3113143,36.6474805 10.1068468,36.9458701 C9.87661299,37.289974 9.97385974,37.7936623 10.2531325,38.0762597 C10.3694961,38.1926234 10.5058078,38.2707532 10.6653922,38.3164675 C10.8831584,38.3746494 11.1948468,38.3646753 11.3826909,38.2217143 C11.6004571,38.0596364 11.8240416,37.9042078 12.0418078,37.7446234 C12.5587948,37.3714286 13.1231584,37.0722078 13.706639,36.8137143 C14.4247688,36.5344416 15.1645091,36.3815065 15.9275221,36.2684675 C17.0886649,36.1238442 18.2689247,36.0623377 19.4383792,36.0565195 C19.6760935,36.0565195 19.9138078,36.0631688 20.1515221,36.068987 C20.1764571,36.0772987 20.2013922,36.0864416 20.2254961,36.0964156 C20.4332883,36.1878442 20.6410805,36.2809351 20.8472104,36.3748571 C21.1331325,36.5045195 21.3957818,36.5726753 21.7074701,36.4887273 C21.9859117,36.4105974 22.2252883,36.2260779 22.371574,35.9775584 C22.4829506,35.9010909 22.568561,35.7855584 22.6034701,35.6542338 C22.6583273,35.4539221 22.6067948,35.2735584 22.4920935,35.1364156 C22.4896,35.1289351 22.4887688,35.1214545 22.4871065,35.1148052 C22.415626,34.8612987 22.223626,34.5629091 21.9734442,34.449039 C21.4414961,34.2055065 20.9053922,33.9461818 20.3435221,33.7774545 C19.8797299,33.6378182 19.3727169,33.5887792 18.8923013,33.5438961 C18.6969766,33.5256104 18.5008208,33.5172987 18.3054961,33.5172987 C18.0087688,33.5172987 17.7128727,33.5355844 17.4153143,33.563013" id="Fill-5"></path>
                <path d="M23.4777766,53.9347948 C22.997361,54.260613 22.5094649,54.5847688 21.9982961,54.8623792 C21.9841662,54.9563013 21.9692052,55.0493922 21.9550753,55.1424831 L21.9259844,55.3344831 L21.909361,55.4441974 C21.8345558,55.944561 21.7605818,56.4382753 21.653361,56.9253403 C21.5070753,57.603574 21.3574649,58.2793143 21.1987117,58.9542234 C21.1529974,59.1362494 21.1072831,59.3149506 21.0590753,59.4961455 L20.9618286,59.882639 C20.9061403,60.1103792 20.8546078,60.3439377 20.8346597,60.5741714 C20.8155429,60.7694961 20.8379844,60.9606649 20.9028156,61.1260675 C20.9585039,61.3147429 21.0491013,61.4734961 21.1887377,61.6131325 C21.3607896,61.7494442 21.4813091,61.8475221 21.6209455,61.9156779 C22.5718026,62.3894442 23.6664519,62.4542753 24.6139844,62.4542753 C24.8832831,62.4542753 25.153413,62.4509506 25.419387,62.4443013 L25.5266078,62.4409766 L26.1208935,62.4285091 L26.7151792,62.4152104 C27.0975169,62.408561 27.4873351,62.3570286 27.8347636,62.3113143 L27.9453091,62.2988468 L28.0300883,62.2855481 L28.2245818,62.2597818 C28.4548156,62.1949506 28.6501403,62.0877299 28.8188675,61.9248208 C29.0590753,61.6779636 29.195387,61.3438338 29.195387,61.0097039 C29.195387,60.3214961 28.6144,59.7172364 27.9519584,59.7172364 C27.3385558,59.7430026 26.7766857,59.8020156 26.1566338,59.8668468 C25.4160623,59.9474701 24.6788156,60.0256 23.9581922,60.0256 C23.6664519,60.0256 23.3738805,60.015626 23.0813091,59.9832104 L22.9682701,59.9740675 L23.0006857,59.8020156 L23.0164779,59.6166649 L23.1145558,58.5810286 C23.1436468,58.243574 23.1827117,57.9052883 23.2209455,57.5711584 C23.2733091,57.1198338 23.3223481,56.707574 23.3547636,56.2886649 C23.3705558,56.0908468 23.3838545,55.8921974 23.3929974,55.6943792 C23.4029714,55.5289766 23.4162701,55.363574 23.4287377,55.1981714 C23.4520104,54.8923013 23.4877506,54.5872623 23.5201662,54.2822234 L23.5459325,54.0677818 C23.553413,54.0021195 23.5617247,53.9364571 23.5692052,53.871626 C23.5384519,53.8924052 23.5085299,53.9140156 23.4777766,53.9347948" id="Fill-7"></path>
                <path d="M8.8374026,42.4282597 C8.93714286,42.089974 9.056,41.76 9.19896104,41.4424935 C8.90722078,41.6685714 8.78337662,42.065039 8.8374026,42.4282597" id="Fill-9"></path>
                <path d="M22.3832104,35.2302545 C22.1172364,35.3017351 21.8861714,35.4804364 21.7465351,35.7206442 C21.5877818,35.9899429 21.5944312,36.2434494 21.6393143,36.541839 C21.7515221,37.2973714 21.8637299,38.0537351 21.9767688,38.8125922 C22.0723532,39.5972156 22.1687688,40.3801766 22.2211325,41.1714494 C22.2693403,41.9411117 22.2535481,42.7074494 22.2078338,43.4771117 C22.115574,45.0579948 22.0449247,46.6405403 21.903626,48.2180987 C21.8047169,48.8730597 21.6758857,49.5147221 21.5262753,50.1622026 C21.3733403,50.8312935 21.1755221,51.4929039 21.0649766,52.1752935 C20.9419636,52.9250078 20.8147948,53.6780468 20.6818078,54.4285922 C20.5529766,55.1716571 20.4740156,55.9255273 20.3908987,56.6760727 C20.2994701,57.2961247 20.1797818,57.9103584 20.1074701,58.5353974 C20.0750545,58.8179948 20.0650805,59.1005922 20.0783792,59.3856831 C20.0974961,59.7497351 20.175626,60.0514494 20.3343792,60.3764364 C20.4258078,60.5584623 20.5488208,60.7039169 20.6751584,60.866826 C21.0292364,61.3214753 21.5944312,61.5026701 22.1430026,61.5974234 C23.1038338,61.7661506 24.0679896,61.8143584 25.0354701,61.7046442 C25.9771844,61.5974234 26.915574,61.4311896 27.8439896,61.2533195 C28.2761974,61.1685403 28.5779117,60.7072416 28.5779117,60.2883325 C28.5779117,59.7821506 28.1199377,59.2402286 27.5780156,59.291761 C27.048561,59.3408 26.5199377,59.3890078 25.9904831,59.4380468 C25.6721455,59.4671377 25.3538078,59.4929039 25.0354701,59.5161766 C24.4162494,59.5593974 23.8028468,59.5236571 23.1869506,59.4505143 C23.0390026,59.4264104 22.8902234,59.4006442 22.7431065,59.3690597 C22.8544831,58.9833974 22.9957818,58.6018909 23.1104831,58.2203844 C23.2991584,57.6003325 23.4321455,56.9736312 23.5684571,56.3436052 C23.8535481,55.0403325 23.9940156,53.7154494 24.1652364,52.3930597 C24.3721974,51.0340987 24.6049247,49.6801247 24.6880416,48.3045403 C24.7271065,47.707761 24.7013403,47.0968519 24.6788987,46.5000727 C24.6523013,45.8110338 24.6265351,45.1195013 24.6040935,44.4312935 C24.5841455,43.8311896 24.5583792,43.2302545 24.5359377,42.6293195 C24.5101714,41.9219948 24.4287169,41.2204883 24.3539117,40.5156571 C24.1984831,38.9962805 23.9250286,37.4835532 23.6981195,35.9741506 C23.6590545,35.7173195 23.4221714,35.463813 23.2077299,35.3374753 C23.0439896,35.2402286 22.8569766,35.1911896 22.6691325,35.1911896 C22.5727169,35.1911896 22.4763013,35.2036571 22.3832104,35.2302545" id="Fill-11"></path>
                <g id="Group">
                    <g id="Group-23" transform="translate(0.000000, 0.406442)">
                        <path d="M40.4725195,0.42481039 C40.110961,0.42481039 39.7502338,0.457225974 39.3936623,0.489641558 L39.1758961,0.506264935 C38.3314286,0.580238961 37.4936104,0.655044156 36.6524675,0.75894026 C34.9502338,0.975044156 33.316987,1.28174545 31.7976104,1.67156364 C31.1634286,1.83197922 30.4735584,2.03977143 29.6282597,2.32486234 L29.4138182,2.39634286 C28.8710649,2.57421299 28.4172468,2.73047273 27.9717403,2.91582338 L26.1082597,3.69545974 L25.6411429,3.8833039 C25.2928831,4.02294026 24.9454545,4.16257662 24.6146494,4.32465455 L24.0070649,4.6139013 L23.8807273,4.67208312 L23.7602078,4.73026494 C23.067013,5.06522597 22.3771429,5.39769351 21.6922597,5.75426494 L19.8221299,6.71842078 C19.5295584,6.86470649 19.2502857,7.03343377 18.971013,7.20216104 L18.6335584,7.40995325 C18.3118961,7.59447273 17.9935584,7.77982338 17.6818701,7.9684987 L17.5488831,8.0433039 C17.3992727,8.12725195 17.3294545,8.16548571 17.2654545,8.21203117 L16.4409351,8.77057662 L15.6164156,9.33244675 C14.8974545,9.81784935 14.1976104,10.3389922 13.4828052,10.8742649 L12.8178701,11.3679792 C12.1753766,11.8450701 11.5387013,12.3379532 10.9028571,12.8316675 L10.4116364,13.2090182 C9.54555844,13.8822649 8.65122078,14.6619013 7.99875325,15.2320831 L7.60644156,15.5728623 C6.86337662,16.2228364 6.16436364,16.9235117 5.27750649,17.8436156 L4.84280519,18.3007584 C4.42722078,18.7429403 4.00831169,19.1834597 3.57028571,19.6056935 C3.04498701,20.1110442 2.45236364,20.6272 1.75916883,21.1832519 C1.63615584,21.2705247 1.50649351,21.3586286 1.376,21.4425766 L1.26961039,21.5140571 C1.17485714,21.5755636 1.08093506,21.6403948 0.990337662,21.7060571 C0.830753247,21.8124468 0.684467532,21.9271481 0.541506494,22.0468364 C0.277194805,22.2687584 0.163324675,22.5704727 0.0627532468,22.8372779 C-0.0353246753,23.0791481 -0.00374025974,23.5379532 0.0610909091,23.7607065 C0.0935064935,23.8704208 0.132571429,23.9751481 0.178285714,24.0790442 C0.411012987,24.6409143 0.627116883,25.2227325 0.879792208,25.9649662 C1.10337662,26.6207584 1.32779221,27.2765506 1.52893506,27.9356675 C1.73922078,28.6380052 1.89880519,29.2971221 2.01516883,29.9504208 C2.11823377,30.9012779 2.11407792,31.9261091 2.0027013,32.9974857 C1.90794805,33.5044987 1.78077922,34.1004468 1.56467532,34.6639792 C1.26794805,35.3255896 0.988675325,35.8724987 0.685298701,36.3836675 L0.548987013,36.6039273 L0.416,36.8283429 C0.270545455,37.0685506 0.167480519,37.3154078 0.0777142857,37.5473039 C-0.000415584416,37.7467844 -0.0128831169,38.0260571 0.0452987013,38.276239 C0.0943376623,38.4715636 0.210701299,38.7225766 0.356155844,38.8422649 C0.490805195,38.9494857 0.639584416,39.0616935 0.832415584,39.1514597 C0.945454545,39.2071481 1.0692987,39.2528623 1.18649351,39.2952519 C1.96779221,39.6443429 2.68758442,40.0748883 3.3841039,40.4913039 L3.69163636,40.6774857 C3.96758442,40.846213 4.24436364,41.0091221 4.53361039,41.1487584 C4.81454545,41.2825766 5.11958442,41.3789922 5.41464935,41.4720831 L5.59916883,41.5252779 C5.78784416,41.5842909 5.97319481,41.6300052 6.17101299,41.6590961 C6.14524675,41.7480312 6.14857143,41.8569143 6.1518961,41.9624727 C6.15854545,42.2326026 6.18098701,42.5019013 6.20425974,42.7687065 C6.2267013,43.0047584 6.24249351,43.2158753 6.25579221,43.4269922 L6.26244156,43.534213 C6.28405195,43.977226 6.30815584,44.4792519 6.26244156,44.9488623 L6.24249351,45.1691221 C6.08207792,46.109174 5.85516883,47.0026805 5.56425974,48.0541091 C5.30077922,48.9949922 5.01319481,50.1187325 4.88851948,51.3189403 L4.84363636,51.7179013 L4.82036364,51.9581091 C4.78462338,52.2830961 4.75553247,52.5914597 4.72976623,52.9064727 C4.704,53.218161 4.68737662,53.5298494 4.67158442,53.8423688 L4.63916883,54.4300052 C4.55771429,55.7640312 4.50618182,56.8229403 4.47958442,57.7604987 C4.46711688,58.2350961 4.46046753,58.7155117 4.45714286,59.1901091 C4.44716883,59.6314597 4.46379221,60.0146286 4.48290909,60.4011221 L4.50285714,60.8399792 C4.54192208,61.7575896 4.62919481,62.6860052 4.72311688,63.6352 L4.73641558,63.7848104 L4.74971429,63.9078234 L4.76218182,64.0216935 C5.02566234,66.6174338 5.38722078,68.6920312 5.89922078,70.552187 C6.01309091,70.9553039 6.13942857,71.3509403 6.27241558,71.7474078 C6.35054545,71.9743169 6.44114286,72.196239 6.53257143,72.4164987 L6.57163636,72.5137455 L6.73703896,72.9168623 C7.09776623,73.816187 7.46763636,74.7063688 7.84748052,75.5957195 L7.8641039,75.5167584 C7.90815584,75.6389403 7.95802597,75.7702649 8.01288312,75.9099013 C8.29215584,76.6513039 8.66119481,77.4941091 9.05184416,78.281226 C9.57963636,79.3384727 10.1024416,80.2793558 10.6077922,81.0772779 C11.2594286,82.1528104 11.9343377,83.0571221 12.6707532,83.8417455 C13.2151688,84.4110961 13.8227532,84.9355636 14.3588571,85.3993558 L14.4727273,85.4982649 L15.0279481,85.9786805 C16.1142857,86.9145766 16.9496104,87.5495896 17.7367273,88.0374857 C18.4980779,88.5237195 19.2901818,88.8744727 20.0565195,89.2135896 L20.5560519,89.4404987 L20.9683117,89.6324987 L21.0655584,89.6773818 C21.9756883,90.0979532 22.7952208,90.4719792 23.6214026,90.7886545 C23.8134026,90.8692779 24.0112208,90.9407584 24.2065455,91.0089143 L24.3395325,91.0579532 L24.5049351,91.1161351 L24.5988571,91.1485506 L25.1382857,91.3438753 C25.5696623,91.5059532 26.0051948,91.6680312 26.4498701,91.8018494 C27.5644675,92.1351481 28.713974,92.1916675 29.8909091,92.2240831 C30.4103896,92.2398753 30.9265455,92.2498494 31.4427013,92.2564987 L31.5823377,92.2598234 C32.2863377,92.2598234 32.9662338,92.184187 33.6037403,92.0354078 C34.0791688,91.9256935 34.5446234,91.7694338 35.0699221,91.5450182 C35.7090909,91.2832 36.2618182,90.9316156 36.6715844,90.6548364 C37.3772468,90.1910442 38.0696104,89.6457974 38.6813506,89.1637195 L38.8467532,89.0373818 L39.3861818,88.6118234 L39.6396883,88.4140052 C39.9804675,88.1480312 40.3245714,87.8779013 40.6462338,87.5853299 C41.0393766,87.2212779 41.4034286,86.8414338 41.7408831,86.4848623 L41.8904935,86.3219532 L41.9486753,86.2571221 C42.3168831,85.858161 42.6975584,85.4459013 43.0175584,85.0195117 C43.1896104,84.7884468 43.3583377,84.5548883 43.5237403,84.3213299 L43.7090909,84.0586805 L43.8454026,83.8600312 L43.936,83.7270442 L44.9458701,82.3148883 L45.2999481,81.8087065 L45.8618182,81.0157714 C46.3222857,80.3657974 46.752,79.6559792 47.1185455,79.0409143 L47.5241558,78.3726545 C47.9289351,77.7185247 48.2904935,77.1234078 48.6188052,76.4692779 C48.8108052,76.0861091 48.9762078,75.6896416 49.1357922,75.2898494 C49.3327792,74.8235636 49.3992727,74.3946805 49.4508052,73.9957195 C49.4508052,73.7862649 49.3959481,73.5867844 49.2870649,73.4030961 C49.1382857,73.1404468 48.8822857,72.9434597 48.5847273,72.8603429 C48.4675325,72.8279273 48.361974,72.8113039 48.2705455,72.8113039 C47.8749091,72.8113039 47.5033766,73.0257455 47.2507013,73.3989403 L47.1634286,73.5261091 C47.0528831,73.6856935 46.9423377,73.8444468 46.8450909,74.0198234 C46.7993766,74.1012779 46.7536623,74.1860571 46.7079481,74.2733299 L46.6431169,74.3996675 L46.5068052,74.6564987 C46.2923636,75.0687584 46.0554805,75.4710442 45.8086234,75.8708364 C45.4778182,76.4061091 45.1337143,76.9388883 44.7896104,77.4675117 L44.5751688,77.8024727 L44.182026,78.4059013 C44.0756364,78.5721351 43.9667532,78.7383688 43.8537143,78.9037714 C43.8936104,78.8414338 43.9019221,78.7799273 43.9019221,78.690161 L43.8088312,78.788239 L43.7406753,78.8804987 L43.5652987,79.1115636 C43.6583896,78.9228883 43.7323636,78.724239 43.8038442,78.5247584 C44.1595844,77.5556156 44.438026,76.5025247 44.6557922,75.3048104 C44.9691429,73.5759792 44.8020779,71.8055896 44.5967792,70.3020052 L44.561039,70.0460052 C44.4646234,69.3594597 44.374026,68.7186286 44.2136104,68.0969143 C44.0124675,67.2832 43.6118442,66.5027325 43.2519481,65.8353039 C42.6942338,64.7855377 41.9046234,63.448187 40.7335065,62.4167065 C40.5456623,62.2513039 40.3436883,62.0992 40.1458701,61.9487584 C39.8898701,61.7609143 39.6513247,61.6262649 39.3479481,61.4999273 C39.1218701,61.405174 38.88,61.3569662 38.6314805,61.3569662 C38.2408312,61.3569662 37.8136104,61.4708364 37.3606234,61.6952519 C37.1785974,61.7833558 37.009039,61.9204987 36.8727273,62.0310442 L36.7073247,62.1565506 L36.5444156,62.2770701 L36.3524156,62.4200312 C36.1604156,62.5629922 35.9675844,62.7067844 35.7755844,62.8555636 L35.8595325,62.8164987 L35.5785974,63.0018494 C34.9693506,63.4323948 34.3027532,63.8795636 33.5563636,64.2278234 C33.2139221,64.3649662 32.6977662,64.5611221 32.174961,64.6683429 C32.0336623,64.6783169 31.8840519,64.6816416 31.7385974,64.6816416 C31.1326753,64.6816416 30.5192727,64.6159792 29.9465974,64.5453299 L29.4312727,64.4414338 C29.1819221,64.3923948 28.9317403,64.3408623 28.6815584,64.2860052 C28.5552208,64.2594078 28.4263896,64.2461091 28.3000519,64.2461091 C27.561974,64.2461091 26.9651948,64.6857974 26.779013,65.3656935 C26.6684675,65.7671481 26.7391169,66.2326026 26.9676883,66.6124468 C27.1771429,66.9598753 27.492987,67.1942649 27.8562078,67.2723948 C28.8211948,67.4810182 29.7662338,67.672187 30.7212468,67.7237195 L30.9032727,67.7303688 C31.2315844,67.7469922 31.5590649,67.7627844 31.8873766,67.7627844 C31.9879481,67.7627844 32.086026,67.7627844 32.1832727,67.7594597 C32.7875325,67.741174 33.3984416,67.5483429 33.9677922,67.3438753 C34.8172468,67.0438234 35.5661299,66.6830961 36.2593247,66.2425766 C36.8037403,65.9001351 37.334026,65.4878753 37.8011429,65.1229922 L38.4187013,64.6625247 C38.5076364,64.8786286 38.6381299,64.9916675 38.7686234,65.0889143 L39.0578701,65.3000312 C39.3005714,65.4945247 39.4759481,65.6399792 39.638026,65.8153558 C39.7934545,66.0397714 39.9405714,66.3015896 40.0876883,66.6149403 C40.3785974,67.3580052 40.5805714,68.1733818 40.7426494,69.2588883 C40.8656623,70.5363948 40.8473766,71.9028364 40.6877922,73.3216416 C40.4758442,74.6739532 40.0827013,76.0536935 39.4867532,77.5406545 C39.2531948,78.0435117 38.998026,78.5804468 38.7112727,79.0982649 C38.4461299,79.5878234 38.1502338,80.0466286 37.8061299,80.5029403 C37.5152208,80.8603429 37.1977143,81.2152519 36.8361558,81.5859532 L36.5111688,81.9175896 C36.2501818,81.944187 36.0465455,81.9508364 35.8420779,81.9508364 C35.5794286,81.9508364 35.3134545,81.9375377 35.0483117,81.9250701 C34.4548571,81.9051221 33.9453506,81.8693818 33.489039,81.8145247 C33.3336104,81.7887584 33.1815065,81.7596675 33.0318961,81.7272519 C32.8831169,81.6948364 32.7443117,81.6457974 32.6088312,81.5876156 C32.3195844,81.4463169 32.0311688,81.2676156 31.726961,81.0398753 C31.5332987,80.8777974 31.3496104,80.708239 31.1650909,80.5370182 L31.0877922,80.4663688 L30.7802597,80.1804468 C30.8018701,80.1812779 30.8608831,80.1729662 30.8633766,80.1713039 C31.0520519,80.1197714 31.2374026,80.0615896 31.4227532,79.9992519 C31.8158961,79.8662649 32.1217662,79.7233039 32.3827532,79.5504208 C32.5464935,79.4440312 32.7318442,79.3077195 32.8623377,79.0999273 C32.9803636,78.9195636 33.0102857,78.6735377 32.9404675,78.4408104 C32.8748052,78.2139013 32.7318442,78.0360312 32.5464935,77.9512519 C32.401039,77.8830961 32.2539221,77.8498494 32.0984935,77.8498494 C31.8233766,77.8498494 31.5574026,77.9529143 31.2997403,78.0526545 L31.1833766,78.0975377 L30.816,78.237174 C30.5591688,78.3377455 30.3031688,78.4383169 30.0405195,78.5255896 C29.6132987,78.6660571 29.1702857,78.7907325 28.7231169,78.8962909 C28.713974,78.8962909 28.7048312,78.8954597 28.6956883,78.8954597 C28.4513247,78.8954597 28.2576623,78.9403429 28.0498701,79.0359273 C28.0199481,79.0359273 27.9916883,79.0425766 27.9642597,79.0483948 C27.6982857,79.074161 27.4331429,79.0874597 27.1671688,79.0874597 L26.9793247,79.0774857 L26.7806753,79.0608623 L26.6584935,79.0550442 C26.587013,79.0508883 26.5338182,79.0483948 26.4814545,79.0483948 C26.3468052,79.0483948 26.1672727,79.0616935 25.9677922,79.1664208 C25.7184416,79.2944208 25.5704935,79.5371221 25.5638442,79.832187 C25.5547013,80.1505247 25.7092987,80.4422649 25.9677922,80.5927065 C26.1298701,80.6899532 26.3251948,80.7456416 26.6011429,80.7714078 L26.5047273,80.8088104 C26.4182857,80.8528623 26.3335065,80.8960831 26.2478961,80.9351481 C25.6984935,81.1446026 25.051013,81.304187 24.2107013,81.4380052 C23.977974,81.4604468 23.7444156,81.4737455 23.5141818,81.4737455 C23.2482078,81.4737455 22.9822338,81.4571221 22.7129351,81.4313558 C21.5933506,81.2609662 20.7023377,81.0398753 19.9102338,80.7340052 C19.7523117,80.6567065 19.6093506,80.5652779 19.4672208,80.4655377 C18.9868052,80.0765506 18.5163636,79.6734338 18.0517403,79.2711481 C18.1101762,79.0102154 15.1704385,70.5408688 17.2654545,67.3438753 C17.611708,66.8154927 19.0834174,67.9966163 20.8280745,68.0969143 C22.8655546,68.2140463 25.1923728,67.3028832 25.2689073,67.2723948 C26.9573875,66.5997691 26.6764094,65.8752915 26.6485195,65.8195117 C26.6227532,65.6640831 26.5695584,65.5161351 26.4922597,65.3831481 C26.3218701,65.0947325 26.0450909,64.8827844 25.7342338,64.802161 C25.6195325,64.7705766 25.5197922,64.7556156 25.4200519,64.7556156 C25.3424991,64.7556156 24.7831461,64.6442655 24.2226947,64.6816416 C24.1502092,64.6864756 22.3138321,65.1712233 20.0726602,64.8669922 C17.873022,64.5683991 15.2748689,63.4679313 14.4727273,64.802161 C11.5300943,69.6967436 14.2244776,81.2758839 14.2325195,81.4479792 L14.1577143,81.3307844 L13.969039,81.0806026 C13.1187532,79.9344208 12.3075325,78.5862649 11.4888312,76.9588364 C10.8588052,75.7012779 10.2977662,74.3880312 9.75501299,73.1180052 L9.67771429,72.9401351 L9.55137662,72.6342649 L9.34690909,72.1122909 L9.26545455,71.9103169 C9.14244156,71.6119273 9.02192208,71.3135377 8.90223377,71.0109922 C8.79168831,70.7259013 8.70358442,70.4308364 8.61631169,70.1357714 L8.57724675,69.9961351 C8.47667532,69.6520312 8.3761039,69.3079273 8.29132468,68.957174 C7.98877922,67.6987844 7.74690909,66.3996675 7.53246753,64.8669922 C7.2905974,62.8638753 7.06784416,60.7236156 7.07449351,58.6540052 C7.07449351,57.6956675 7.10441558,56.6558753 7.16509091,55.5637195 L7.21080519,54.6444468 C7.25153247,53.8315636 7.2905974,53.0560831 7.36623377,52.3138494 L7.42857143,51.6422649 L7.49007792,51.022213 C7.52249351,50.8044468 7.56155844,50.5875117 7.60727273,50.3730701 C7.49090909,49.5518753 7.62888312,48.6724987 7.79511688,47.8438234 L7.89901299,47.3376416 C7.96716883,46.9735896 8.02867532,46.6494338 8.10348052,46.3344208 L8.19407792,45.9354597 L8.28467532,45.5356675 L8.3012987,45.4251221 C8.40519481,44.4268883 8.51241558,43.3979013 8.75262338,42.4254338 C8.74680519,41.7447065 8.75012987,41.0697974 8.75594805,40.3973818 L8.76592208,39.3783688 C8.77257143,39.1057455 8.78836364,38.8331221 8.80498701,38.5604987 L8.81496104,38.3950961 C8.8398961,37.8407065 8.91220779,37.2780052 8.98119481,36.7344208 L9.00612987,36.558213 L9.02607792,36.4019532 C9.12664935,35.7104208 9.23968831,35.0155636 9.35688312,34.3240312 C9.48987013,33.5319273 9.60374026,32.7431481 9.71096104,31.9468883 L9.65444156,32.0208623 L9.71345455,31.7390961 L9.81485714,31.2628364 L9.89548052,30.7624727 C9.97028571,30.3568623 10.0741818,29.9412779 10.1814026,29.533174 C10.3941818,28.745226 10.6485195,27.8326026 10.985974,26.9623688 C11.2203636,26.3647584 11.4638961,25.7737974 11.7074286,25.1869922 L12.0448831,24.3549922 C12.206961,23.9560312 12.3665455,23.5529143 12.521974,23.1506286 C12.6973506,22.7026286 12.8727273,22.2579532 13.0547532,21.8132779 L13.092987,21.7193558 L13.1453506,21.5855377 C13.1794286,21.5863688 13.2118442,21.5705766 13.2351169,21.5572779 C13.8717922,21.2489143 14.5176104,20.9663169 15.1634286,20.6878753 L15.3811948,20.5939532 C16.1691429,20.3180052 17.0202597,20.0221091 17.8963117,19.7561351 L18.1232208,19.6879792 C18.3991688,19.6065247 18.6784416,19.5250701 18.961039,19.4477714 L19.419013,19.3214338 C19.734026,19.2300052 20.049039,19.1427325 20.3665455,19.0679273 L20.5743377,19.022213 C21.3473247,18.850161 22.1194805,18.6814338 22.9049351,18.5384727 C23.7685195,18.3863688 24.6321039,18.2533818 25.5023377,18.126213 C26.4856104,18.0223169 27.4688831,17.9283948 28.4596364,17.8535896 C29.3739221,17.7754597 30.2807273,17.7397195 31.3712208,17.7014857 L31.465974,17.698161 C31.8034286,17.6848623 32.1408831,17.678213 32.4816623,17.678213 C33.0011429,17.678213 33.5272727,17.6915117 34.0492468,17.7048104 L34.3060779,17.7139532 L34.542961,17.7206026 C35.4107013,17.7430442 36.2809351,17.8078753 37.1303896,17.9126026 C38.2424935,18.0871481 39.2847792,18.3298494 40.6354286,18.6523429 C41.9603117,18.9798234 43.0907013,19.3255896 44.0922597,19.7104208 C44.9342338,20.1077195 45.6357403,20.4717714 46.3214545,20.9563429 C46.4851948,21.1076156 46.6481039,21.2672 46.7968831,21.4384208 C46.8351169,21.4899532 46.8708571,21.5514597 46.9057662,21.6279273 C47.1783896,22.4757195 47.3113766,23.4107844 47.4177662,24.162161 C47.4992208,24.8171221 47.5640519,25.3756675 47.6064416,25.9367065 C47.6322078,26.3232 47.6455065,26.7096935 47.6588052,27.0986805 C47.6646234,27.342213 47.6712727,27.5799273 47.6845714,27.8134857 C47.7460779,29.0993039 47.8275325,30.3851221 47.9181299,31.6676156 C47.9571948,32.2328104 47.9896104,32.7938494 48.0187013,33.3590442 C48.0544416,34.0281351 48.0935065,34.6997195 48.1483636,35.3688104 C48.2381299,36.3936416 48.3902338,37.4550442 48.5124156,38.3078234 L48.6587013,39.3434597 L48.7235325,39.8396675 L48.8016623,40.408187 L48.8207792,40.5669403 L48.8398961,40.7007584 C48.9612468,41.6574338 49.0825974,42.5908364 49.243013,43.4926545 L49.0950649,43.4868364 C49.0967273,44.0811221 49.0967273,44.5490701 49.070961,44.9979013 C49.2762597,44.9904208 49.4283636,44.9629922 49.5862857,44.9314078 L49.5970909,45.021174 C49.7624935,45.838213 49.9993766,46.7275636 50.3019221,47.6726026 C50.5097143,48.3092779 50.7499221,48.910213 51.0167273,49.4596156 C51.1272727,49.6773818 51.246961,49.8951481 51.3807792,50.1004468 C51.8437403,50.8243948 52.5045195,51.2399792 53.1927273,51.2399792 C53.8884156,51.2175377 54.417039,50.8144208 54.9273766,50.4237714 L55.0545455,50.3298494 L55.2349091,50.1935377 L55.4701299,50.0239792 L55.5382857,49.9757714 C55.8724156,49.7388883 56.1732987,49.5252779 56.4916364,49.3499013 C56.5739221,49.3075117 56.6545455,49.2651221 56.7351688,49.2260571 C56.9487792,49.1487584 57.1806753,49.0689662 57.4275325,49.0224208 C57.5015065,49.0598234 57.5239481,49.0814338 57.5438961,49.1038753 L57.6602597,49.2692779 L57.691013,49.3706805 L57.7400519,49.5269403 C57.5422338,50.2525506 57.5522078,50.8742649 57.7724675,51.4228364 C57.8381299,51.657226 57.9544935,51.8600312 58.1282078,52.0428883 C58.3916883,54.1715117 58.4091429,56.2303169 58.1780779,58.1561351 C58.0741818,58.8036156 57.9303896,59.5624727 57.6585974,60.2806026 C57.5222857,60.558213 57.3543896,60.8408104 57.1308052,61.1691221 C56.8349091,61.5165506 56.4966234,61.8407065 56.0968312,62.1573818 C55.780987,62.3876156 55.3005714,62.7259013 54.7736104,62.9877195 C54.6697143,62.9993558 54.6273247,62.9993558 54.5857662,62.9993558 L54.510961,62.8896416 C54.3197922,62.6544208 54.0347013,62.5255896 53.7088831,62.5255896 C53.4936104,62.5255896 53.2808312,62.5829403 53.1104416,62.6860052 C52.8477922,62.8347844 52.6532987,63.0966026 52.5776623,63.4024727 C52.5028571,63.7016935 52.5477403,63.9967584 52.7056623,64.2336416 C52.8162078,64.4115117 52.9325714,64.600187 53.073039,64.7630961 C53.1486753,64.8520312 53.3448312,65.0664727 53.5235325,65.1487584 C53.7612468,65.2576416 53.9457662,65.3399273 54.1618701,65.3931221 C54.3463896,65.4429922 54.5633247,65.4670961 54.825974,65.4670961 C55.5008831,65.4513039 56.1159481,65.1820052 56.6287792,64.9210182 C57.2081039,64.6317714 57.7350649,64.3009662 58.2395844,63.9103169 C58.464,63.7382649 58.6784416,63.5529143 58.8895584,63.3650701 C59.099013,63.1747325 59.2752208,62.9444987 59.4522597,62.7042909 L59.547013,62.5846026 C59.9376623,62.0568104 60.1803636,61.4367584 60.3856623,60.8449662 C60.5826494,60.2897455 60.6557922,59.6829922 60.713974,59.1094857 L60.7463896,58.8626286 C60.8054026,58.3348364 60.836987,57.7846026 60.846961,57.1313039 C60.8635844,55.8571221 60.8095584,54.6095377 60.6882078,53.4226286 C60.6233766,52.7859532 60.5518961,52.1492779 60.4571429,51.5101091 C60.5228052,51.3496935 60.5485714,51.1876156 60.5319481,51.0454857 L60.5078442,50.9557195 L60.5161558,50.9573818 C60.5444156,50.8019532 60.5901299,50.6564987 60.6358442,50.5135377 L60.6715844,50.397174 C60.6973506,50.3190442 60.7231169,50.2409143 60.7430649,50.1627844 C60.8112208,49.9101091 60.8660779,49.6566026 60.9217662,49.4039273 C61.0514286,48.7115636 61.1719481,48.034161 61.2201558,47.3393039 C61.2824935,46.3020052 61.2625455,45.2896416 61.2434286,44.3096935 L61.2367792,43.8550442 L61.2301299,43.5890701 C61.2176623,42.7545766 61.201039,41.9849143 61.1586494,41.2318753 L61.1977143,41.1346286 C61.334026,40.7805506 61.4703377,40.4198234 61.590026,40.0590961 L61.7496104,39.5977974 L61.7911688,39.4781091 C61.915013,39.1207065 62.038026,38.7633039 62.1419221,38.4059013 L62.2624416,37.9977974 L62.6647273,36.6205506 C62.761974,36.2955636 62.8367792,35.9680831 62.9082597,35.6397714 L62.934026,35.5325506 L63.0445714,35.032187 C63.2864416,34.0115117 63.4742857,32.9384727 63.6031169,31.8429922 L63.6554805,31.3983169 C63.7036883,31.0118234 63.7527273,30.6228364 63.7784935,30.2355117 L63.8109091,29.7093818 L63.8466494,29.1774338 L63.8632727,28.9629922 C63.8757403,28.7942649 63.889039,28.6213818 63.8923636,28.4526545 L63.9015065,27.5051221 L63.9148052,26.5534338 C63.9214545,26.018161 63.8865455,25.4737455 63.8483117,24.8977455 C63.7851429,23.9743169 63.6745974,23.1107325 63.5191688,22.3086545 C63.3795325,21.5813818 63.1576104,20.868239 62.9431688,20.1775377 L62.8043636,19.7395117 C62.6747013,19.3164468 62.5184416,18.9008623 62.363013,18.4886026 L62.2724156,18.2517195 C61.7737143,16.9260052 61.1769351,15.3916675 60.3981299,13.9745247 C59.7913766,12.8715636 59.0375065,11.8891221 58.3808831,11.0745766 L58.1149091,10.7495896 C57.8713766,10.4470442 57.6278442,10.1453299 57.371013,9.84943377 L57.1407792,9.58345974 L57.0119481,9.43551169 C56.4043636,8.7364987 55.776,8.01255065 55.1143896,7.33597922 C54.6921558,6.90127792 54.2599481,6.47904416 53.8185974,6.06345974 C53.4429091,5.71353766 53.038961,5.40517403 52.5876364,5.06605714 L52.388987,4.91644675 C51.6226494,4.33795325 50.7823377,3.76029091 49.6652468,3.04299221 C48.6811429,2.40548571 47.6712727,1.89431688 46.6630649,1.52278442 L46.3904416,1.41888831 C46.1926234,1.34408312 45.993974,1.26927792 45.7928312,1.20112208 C45.1553247,0.980031169 44.4671169,0.809641558 43.5611429,0.649225974 C42.7565714,0.512914286 42.1423377,0.448083117 41.5696623,0.438109091 C41.2322078,0.43145974 40.8972468,0.428135065 40.5597922,0.42481039 L40.4725195,0.42481039 Z" id="Fill-21"></path>
                    </g>
                </g>
                <path d="M32.8357403,81.8600727 C32.8340779,81.8600727 32.8315844,81.8600727 32.8299221,81.8600727 C32.8315844,81.8600727 32.8340779,81.8600727 32.8357403,81.8600727 M41.1773506,75.8573714 C40.8881039,76.3677091 40.6221299,76.8871896 40.3270649,77.3900468 C40.1874286,77.6302545 40.0378182,77.863813 39.9015065,78.1040208 C39.8150649,78.2544623 39.726961,78.3999169 39.6288831,78.5395532 C39.382026,78.8179948 39.1019221,79.0548779 38.8201558,79.2959169 C38.5483636,79.5269818 38.2749091,79.7580468 37.9948052,79.9816312 C37.664,80.2018909 37.3132468,80.3839169 36.9633247,80.5684364 C36.7945974,80.6565403 36.6258701,80.7471377 36.4563117,80.8410597 C36.2576623,80.9524364 36.0623377,81.0696312 35.857039,81.1668779 C35.4082078,81.3248 34.9377662,81.4411636 34.4698182,81.5359169 C33.9112727,81.6489558 33.3527273,81.7586701 32.7941818,81.8658909 C32.420987,81.915761 32.0461299,81.9664623 31.6745974,82.0163325 C31.7361039,82.0071896 31.8009351,82.0005403 31.8624416,81.9905662 C31.7228052,82.0071896 31.5798442,82.0196571 31.4402078,82.0329558 C31.249039,82.0520727 31.086961,82.097787 30.9473247,82.2374234 C30.8135065,82.3704104 30.7395325,82.5491117 30.7395325,82.7344623 C30.7395325,83.0885403 31.0603636,83.4708779 31.4402078,83.4359688 C32.4567273,83.3412156 33.4599481,83.175813 34.4598442,82.993787 C34.8887273,82.9189818 35.3134545,82.8383584 35.739013,82.7535792 C35.9401558,82.7111896 36.1388052,82.6629818 36.3366234,82.6048 C36.635013,82.5166961 36.8984935,82.3546182 37.1644675,82.2016831 C37.5251948,82.0005403 37.8884156,81.8085403 38.2491429,81.6040727 C38.6414545,81.3804883 38.9922078,81.1045403 39.332987,80.8086442 C39.9339221,80.295813 40.5672727,79.7796571 40.992,79.1047481 C41.0958961,78.9385143 41.184,78.7606442 41.2845714,78.587761 C41.4175584,78.3641766 41.5505455,78.139761 41.681039,77.9128519 C41.9303896,77.4715013 42.1448312,77.0102026 42.3725714,76.5555532 C42.5446234,76.2214234 42.4664935,75.8091636 42.1257143,75.6105143 C42.0184935,75.5473455 41.897974,75.5165922 41.7782857,75.5165922 C41.5389091,75.5165922 41.3011948,75.638774 41.1773506,75.8573714" id="Fill-24"></path>
            </g>
            <path d="M54.1191481,57.6338286 C54.1016935,57.6496208 54.0834078,57.6637506 54.0642909,57.6762182 C54.0825766,57.6620883 54.1008623,57.6479584 54.1191481,57.6338286 M54.3177974,55.5924779 C54.3153039,55.612426 54.3128104,55.6332052 54.3103169,55.6531532 C54.3119792,55.6332052 54.3153039,55.6132571 54.3177974,55.5924779 M54.0867325,54.9341922 C54.0684468,54.9416727 54.0518234,54.9483221 54.0343688,54.9549714 C54.0518234,54.9483221 54.0692779,54.9408416 54.0867325,54.9341922 M54.2454857,54.9009455 C54.2587844,54.9267117 54.2704208,54.9524779 54.2779013,54.9815688 C54.2679273,54.9558026 54.2579532,54.9275429 54.2454857,54.9009455 M54.1382649,54.8452571 C54.1648623,54.8527377 54.1889662,54.8635429 54.2130701,54.8751792 C54.212239,54.8751792 54.2105766,54.8743481 54.2097455,54.8743481 C54.1873039,54.864374 54.1632,54.8535688 54.1382649,54.8452571 M54.1415896,54.0556468 C54.0642909,54.0589714 53.9894857,54.0755948 53.9213299,54.1080104 C53.720187,54.1761662 53.5348364,54.2800623 53.3561351,54.3872831 C53.1616416,54.5003221 53.090161,54.7604779 53.2065247,54.9582961 C53.3203948,55.1536208 53.5805506,55.2217766 53.7783688,55.1079065 C53.8897455,55.0397506 54.0002909,54.9807377 54.1174857,54.9217247 C54.153226,54.9075948 54.1897974,54.8951273 54.2263688,54.8843221 L54.2330182,54.8851532 L54.2388364,54.8893091 C54.2396675,54.8893091 54.2396675,54.8901403 54.2396675,54.8909714 C54.2779013,54.9890494 54.3111481,55.0862961 54.3360831,55.1860364 C54.3394078,55.3148675 54.3335896,55.4395429 54.3202909,55.5658805 C54.2729143,55.9216208 54.2280312,56.2815169 54.1873039,56.6372571 C54.1540571,56.917361 54.1598753,57.1982961 54.1357714,57.4767377 C54.1307844,57.5083221 54.1224727,57.5382442 54.1133299,57.5689974 C54.0950442,57.6072312 54.0750961,57.6429714 54.0518234,57.6778805 L54.0410182,57.6903481 C54.0219013,57.7019844 54.0011221,57.7119584 53.9795117,57.7211013 C53.7717195,57.8249974 53.7135377,58.1142442 53.8265766,58.3062442 C53.8822649,58.4001662 53.976187,58.4716468 54.0834078,58.5007377 C54.2039273,58.5364779 54.301174,58.507387 54.4117195,58.4583481 C54.6643948,58.3478026 54.8530701,58.1142442 54.9312,57.8515948 C54.9960312,57.6438026 55.005174,57.4326857 55.0084987,57.2182442 C55.0151481,56.9256727 55.0284468,56.6372571 55.064187,56.3446857 C55.0799792,56.1792831 55.0999273,56.0138805 55.1223688,55.8451532 C55.1389922,55.7021922 55.1614338,55.5559065 55.1747325,55.4096208 C55.1938494,55.1860364 55.1547844,54.9715948 55.0833039,54.7604779 C55.0350961,54.6241662 54.9827325,54.4945039 54.8979532,54.3773091 C54.8597195,54.3158026 54.8106805,54.2667636 54.7458494,54.2276987 C54.7200831,54.2085818 54.690161,54.1886338 54.6610701,54.1661922 C54.596239,54.1371013 54.5314078,54.1080104 54.4632519,54.0789195 C54.3917714,54.0622961 54.3202909,54.0498286 54.2488104,54.0431792 C54.2130701,54.0465039 54.1773299,54.0523221 54.1415896,54.0556468" id="Fill-5" fill="#161616"></path>
            <g id="Group-3" transform="translate(35.000000, 38.000000)">
                <ellipse id="Oval" fill="#FFFFFF" cx="3.5" cy="6.5" rx="3.5" ry="6.5"></ellipse>
                <ellipse id="Oval" fill="#161616" cx="3.5" cy="6.5" rx="1.5" ry="2.5"></ellipse>
                <path d="M3.5,0 C5.43299662,0 7,2.91014913 7,6.5 C7,10.0898509 5.43299662,13 3.5,13 C1.56700338,13 0,10.0898509 0,6.5 C0,2.91014913 1.56700338,0 3.5,0 Z M3.5,1.95 C2.5333145,1.95 1.5,3.86901264 1.5,6.5 C1.5,9.13098736 2.5333145,11.05 3.5,11.05 C4.4666855,11.05 5.5,9.13098736 5.5,6.5 C5.5,3.86901264 4.4666855,1.95 3.5,1.95 Z" id="Oval" fill="#161616" fill-rule="nonzero"></path>
            </g>
            <g id="Group-3" transform="translate(13.000000, 39.000000)">
                <ellipse id="Oval" fill="#FFFFFF" cx="3.5" cy="6.5" rx="3.5" ry="6.5"></ellipse>
                <ellipse id="Oval" fill="#161616" cx="3.5" cy="6.5" rx="1.5" ry="2.5"></ellipse>
                <path d="M3.5,0 C5.43299662,0 7,2.91014913 7,6.5 C7,10.0898509 5.43299662,13 3.5,13 C1.56700338,13 0,10.0898509 0,6.5 C0,2.91014913 1.56700338,0 3.5,0 Z M3.5,1.95 C2.5333145,1.95 1.5,3.86901264 1.5,6.5 C1.5,9.13098736 2.5333145,11.05 3.5,11.05 C4.4666855,11.05 5.5,9.13098736 5.5,6.5 C5.5,3.86901264 4.4666855,1.95 3.5,1.95 Z" id="Oval" fill="#161616" fill-rule="nonzero"></path>
            </g>
            <path d="M29.047645,77.9313015 C28.5401686,77.9313015 27.9826964,77.9088512 27.2917767,77.8605712 C26.8128693,77.8045664 26.3662901,77.7425266 25.9264772,77.6710721 L25.808066,77.6522429 C25.6359,77.6249647 25.4626062,77.5979279 25.2941992,77.5617179 C25.0960954,77.5192314 24.9040062,77.4733654 24.7100375,77.4233956 C24.0668581,77.2314825 23.4420983,77.0373968 22.8752283,76.7737879 C22.8124516,76.7409575 22.7508026,76.7059544 22.6891537,76.6711928 C23.0759635,76.4964191 23.4086424,76.3682357 23.734931,76.2716756 C24.3514208,76.1133171 24.8607768,76.0150673 25.3378046,75.9624421 C25.6415386,75.9416817 25.9403858,75.9313015 26.2260762,75.9313015 C26.4647781,75.9313015 26.7000968,75.9385435 26.9252659,75.9530275 C27.3169625,75.9993763 27.6413715,76.0563467 27.9447296,76.1321464 C28.1247898,76.1772882 28.3033463,76.2243612 28.4815269,76.2714342 L28.7950345,76.3537517 C29.1438776,76.4573123 29.4983592,76.57415 29.8490818,76.7006436 C30.1738667,76.8196539 30.4802321,76.9579762 30.8399765,77.1293703 C31.1640096,77.2983503 31.4102296,77.450191 31.6143479,77.6071011 L31.6519387,77.6404143 L31.6891537,77.6739689 C31.0869483,77.7700462 30.5783442,77.84657 30.0629737,77.897264 C29.7408202,77.920197 29.4081412,77.9313015 29.047645,77.9313015 M29.6117592,71.9119059 C29.3926899,71.9119059 29.1731535,71.9096061 28.95315,71.9057732 C28.5537806,71.8998961 28.1539441,71.8878864 27.7550418,71.8748546 C27.5084136,71.8674444 27.2608513,71.8503241 27.0142232,71.8334594 L26.8610148,71.8229829 C26.2696678,71.7716222 25.5713552,71.700075 24.8753781,71.5574916 C24.685736,71.5076641 24.4998307,71.4529816 24.3190635,71.3942107 C24.5119753,71.2812683 24.7090909,71.1675594 24.9062066,71.0538504 C25.3307994,70.8082902 25.6970048,70.6184345 26.0585392,70.4559202 C26.5527296,70.2701529 26.9460268,70.1431566 27.3327845,70.0440127 C27.6037018,69.9900967 27.9017108,69.9497237 28.2697846,69.9175274 C28.3599346,69.9136945 28.4496176,69.9119059 28.5393005,69.9119059 C28.6565423,69.9119059 28.773317,69.9149722 28.8905588,69.9205937 C29.0703918,69.9361808 29.2193963,69.9548342 29.3604601,69.9793646 C29.7406785,70.0879631 30.1307059,70.2236473 30.5524961,70.3943385 C30.8612483,70.5404992 31.1345011,70.6910038 31.3872015,70.8540293 C31.6436387,71.0484844 31.8622409,71.2598042 32.0635605,71.4593698 C32.151375,71.5472706 32.2368541,71.635938 32.3190635,71.7258831 L32.1471712,71.7463252 C31.7688212,71.7981969 31.3867344,71.8286045 30.9962399,71.8579899 L30.9429906,71.8615673 C30.6407777,71.8820093 30.3287558,71.903218 30.0186022,71.9088395 C29.8826765,71.9111393 29.7472179,71.9119059 29.6117592,71.9119059 M28.7320598,69 L28.7320598,69 L28.6829309,69 C28.4037718,69 28.1280403,69.0281711 27.8610683,69.0553969 C27.4269054,69.0996389 26.9885533,69.1922822 26.6259893,69.3165 C26.4995489,69.3599856 26.3746318,69.4049838 26.2497148,69.4507383 L26.1099449,69.5017867 C25.9739833,69.5507553 25.8334517,69.6014256 25.707773,69.6577679 C25.4400392,69.7793386 25.1928711,69.91093 24.9620793,70.0353368 C24.4742174,70.2979524 23.9204693,70.5955456 23.5247718,70.9269819 C23.3393005,71.0822068 23.1549717,71.2359192 23.0056807,71.3939801 C22.8152584,71.5960939 22.6484484,71.8012327 22.5246739,71.957592 L22.4793534,72.0148797 C22.3586257,72.1667013 22.2340895,72.3236278 22.1335466,72.4813106 C22.0341461,72.6361574 21.9534071,72.7957308 21.8749531,72.9500104 L21.8597193,72.9800722 C21.6837691,73.3277684 21.5158166,73.6898338 21.3448174,74.0870659 C21.2800738,74.2400219 21.2381809,74.3978938 21.1974306,74.5506608 L21.1722948,74.6425479 C21.1136448,74.8541151 21.0820347,75.0679511 21.0549947,75.2689304 C21.0218612,75.5048874 20.9902511,75.7847082 21.002819,76.0713354 C21.0169102,76.4152502 21.049282,76.7650262 21.1010769,77.1399482 C21.1113597,77.214252 21.1772458,77.2828837 21.2819781,77.32826 C21.2823589,77.4035091 21.3425324,77.475544 21.4503114,77.5296175 C21.7812653,77.6980772 22.110315,77.8383657 22.4561219,77.9589911 C22.8483918,78.0960655 23.2734144,78.211208 23.6409294,78.308578 L23.7864121,78.3469588 C24.0804241,78.4246658 24.3839572,78.5050198 24.6973923,78.5693029 C25.3021735,78.6927644 25.9793152,78.7924032 26.7676635,78.8737025 C27.4962192,78.9497079 28.2495297,78.972207 28.9780854,78.9941389 C29.116332,78.9981093 29.2526744,79 29.388255,79 C29.7504382,79 30.1221426,78.986009 30.4942277,78.9585941 C30.939435,78.9262634 31.3865466,78.8759713 31.8184243,78.8271918 L31.9444839,78.8132007 C32.1729906,78.7878656 32.4125419,78.7553459 32.6993179,78.7103477 C32.9617198,78.6689418 33.2888653,78.6175153 33.4941405,78.5089902 C33.5764029,78.5018056 33.6510485,78.4864911 33.713507,78.4641811 C33.943918,78.3821255 34.0692158,78.2981793 34.1465273,78.1745287 C34.1720439,78.1323666 34.1884202,78.08907 34.2047965,78.0457734 C34.2131751,78.0238415 34.2215537,78.0019096 34.2310748,77.9799777 L34.2851547,77.8633227 C34.340758,77.7430754 34.3967422,77.6232062 34.4439669,77.5022026 C34.6008749,77.0985423 34.6991328,76.6808909 34.7787293,76.3210943 L34.7958673,76.245278 C34.8708937,75.9081696 34.9489668,75.559339 34.9748643,75.2144788 C35.0083786,74.7964493 35.0083786,74.4307916 34.9748643,74.0970865 C34.9356373,73.6964512 34.8328092,73.2992191 34.728077,72.9299692 C34.6111577,72.5204477 34.4611049,72.1563026 34.2683976,71.8167363 C34.0505545,71.4317937 33.740547,71.0553591 33.3471345,70.6982095 C33.2298344,70.5915751 33.0995855,70.488344 32.9693367,70.3853018 L32.8352794,70.2784784 C32.6258149,70.1117203 32.365698,69.9536594 32.0610223,69.8084551 C31.8062373,69.6882078 31.4653814,69.5350627 31.0849177,69.4167061 C30.942101,69.3717079 30.79738,69.3287894 30.6530399,69.28606 C30.3129457,69.1850977 29.9835151,69.0871604 29.6118108,69.0525609 C29.2759059,69.0200412 28.996366,69.0032142 28.7320598,69" id="Fill-20" fill="#161616" transform="translate(28.000000, 74.000000) scale(1, -1) rotate(-6.000000) translate(-28.000000, -74.000000) "></path>
        </g>
    </g>
</svg>