<svg width="500" height="600" xmlns="http://www.w3.org/2000/svg"><g fill="#161616" fill-rule="evenodd"><path d="M174 195.087a9.05 9.05 0 001 .494l-.001-.005c-.04-.2-.065-.39-.079-.576l-.92.087m13.5-64.06l-1.738.071c-.344.014-.692.048-1.036.071-.6.045-1.196.085-1.796.129-.299.02-.597.068-.895.108-.626.078-1.256.16-1.882.241-.275.038-.547.075-.822.129-1.085.21-2.17.424-3.255.634-.27.054-.535.136-.8.203-.64.167-1.279.333-1.92.495-.418.109-.834.217-1.25.323-.577.149-1.147.328-1.718.498a.554.554 0 00-.37.671.53.53 0 00.649.38c.548-.163 1.092-.336 1.645-.478l1.095-.278 2.682-.688c.511-.13 1.033-.21 1.55-.312.75-.143 1.5-.283 2.25-.43.94-.117 1.884-.228 2.828-.343.34-.044.685-.048 1.025-.071l1.794-.112c.334-.02.668-.024 1-.03.544-.018 1.09-.032 1.635-.048.427-.014.855.016 1.282.023.39.01.783.004 1.174.038.465.044.93.09 1.395.13.278.048.556.098.833.147.272.048.54.126.81.194.508.132 1.006.315 1.508.485.338.112.71-.13.803-.475a.693.693 0 00-.455-.834 14.005 14.005 0 00-2.548-.637c-.233-.034-.465-.072-.702-.106-.245-.033-.494-.043-.743-.064-.413-.03-.83-.078-1.246-.078-.603-.003-1.203-.006-1.803-.013-.328 0-.652.013-.98.027m5.535 7.008c-.243.007-.482.036-.722.058-.414.04-.825.087-1.235.154-.722.113-1.427.31-2.074.697-.29.168-.575.4-.798.67a.668.668 0 00-.633-.14c-.003.003-.003.003-.006.003-.22.07-.462.292-.498.563-.12.43-.056.908 0 1.343.026.201.194.402.343.5a.669.669 0 00.572.088.774.774 0 00.42-.343c.075-.023.15-.051.225-.084.186-.081.363-.182.535-.296a.82.82 0 00.393.007c.113-.018.22-.07.33-.113.197-.077.398-.153.598-.219a10.74 10.74 0 011.705-.4 16.48 16.48 0 011.831-.14c.71-.018 1.415.04 2.118.13.748.124 1.5.254 2.231.469a3.6 3.6 0 00.44.186c.204.07.42.12.63.054.26-.08.463-.321.534-.61.078-.325-.022-.631-.21-.872-.158-.205-.392-.325-.614-.416a5.128 5.128 0 00-.338-.127 1.001 1.001 0 00-.294-.191 30.44 30.44 0 00-.391-.182l.032.014a5.392 5.392 0 01-.343-.183c-.184-.105-.384-.255-.585-.303a.776.776 0 00-.3-.013 1.588 1.588 0 00-.091-.078c-.163-.125-.347-.125-.535-.153l.045.007a13.914 13.914 0 00-1.902-.115c-.472 0-.944.015-1.413.035m-20.389.012c-.284.024-.568.07-.848.108-.16.023-.324.037-.481.067-.34.07-.68.13-1.014.229-1.122.319-2.206.701-3.2 1.323-.438.272-.835.618-1.219.957-.28.242-.54.508-.75.816-.237.356-.138.878.15 1.17.12.12.26.201.423.249.224.06.545.05.738-.099.223-.167.453-.328.677-.493a9.412 9.412 0 011.711-.963c.739-.29 1.499-.448 2.283-.564a30.312 30.312 0 013.609-.22c.244 0 .489.007.733.013a.992.992 0 01.076.029c.214.094.427.19.64.288.293.134.563.204.883.117.287-.08.533-.271.683-.528a.598.598 0 00.124-.87c-.003-.008-.004-.016-.005-.023-.074-.262-.271-.571-.528-.689-.547-.252-1.098-.52-1.676-.695-.476-.144-.997-.195-1.491-.241a6.433 6.433 0 00-.603-.028c-.305 0-.61.019-.915.047m12.223 38.631l-.092-.033.092.033m-4.958.686c.31-.065.62-.121.934-.163a25.252 25.252 0 011.503-.151l.921-.063a8.615 8.615 0 011.729.07c.306.04.612.081.916.133a9.917 9.917 0 00-1.167-.555 8.524 8.524 0 00-1.688-.409 4.75 4.75 0 00-.861-.01 3.81 3.81 0 00-.587.143c-.3.128-.58.277-.862.433-.2.11-.4.225-.59.35a2.95 2.95 0 00-.248.222m1.055 1.279l.122-.013-.122.013m5.701.326c-.163-.027-.329-.077-.492-.11-.203-.046-.405-.082-.609-.12a19.65 19.65 0 00-1.176-.203 11.171 11.171 0 00-1.643-.025c-.548.026-1.097.06-1.645.117-.562.076-1.116.195-1.663.338a.837.837 0 01-.914-.353c-.358-.095-.617-.465-.492-.798a4.23 4.23 0 01.293-.63c.14-.246.332-.461.525-.678.255-.288.631-.48.984-.662.608-.318 1.214-.633 1.908-.771.818-.165 1.64-.027 2.434.15.738.165 1.45.492 2.098.843.456.243.858.566 1.19.935.306.336.529.717.536 1.164.007.309-.17.578-.473.717a1.11 1.11 0 01-.536.117c-.101 0-.199-.012-.325-.03m-8.133-19.904a16.65 16.65 0 01-1.414.973l-.041.294-.028.201-.016.115a25.141 25.141 0 01-.245 1.553c-.14.711-.283 1.42-.435 2.128-.043.19-.087.378-.133.568l-.093.405a5.286 5.286 0 00-.122.725c-.018.205.003.406.065.58.054.197.14.364.274.51.164.143.28.246.413.317.91.497 1.956.565 2.862.565.257 0 .515-.003.77-.01l.102-.004.568-.013.569-.014c.365-.007.738-.061 1.07-.109l.106-.013.08-.014.187-.027c.22-.068.407-.18.568-.351.23-.26.36-.61.36-.96 0-.721-.555-1.355-1.189-1.355-.586.027-1.124.089-1.716.157-.708.084-1.413.166-2.102.166-.28 0-.559-.01-.839-.044l-.108-.01.031-.18.015-.195.094-1.086c.028-.353.065-.708.102-1.059.05-.473.097-.905.128-1.344.015-.208.028-.416.036-.624.01-.173.023-.347.034-.52.023-.32.057-.64.088-.96l.025-.225.022-.206-.088.066m-14.521-12.102c.098-.331.214-.654.354-.964-.286.221-.407.609-.354.964"/><path d="M177.173 140.04c-.25.072-.467.254-.599.498-.149.274-.143.531-.1.834.105.768.21 1.537.317 2.308.09.797.18 1.593.23 2.397.045.782.03 1.56-.013 2.342-.086 1.607-.153 3.215-.286 4.818a27.82 27.82 0 01-.355 1.975c-.144.68-.33 1.352-.434 2.045a184.22 184.22 0 01-.36 2.29c-.121.755-.195 1.521-.274 2.284-.086.63-.198 1.254-.266 1.889-.03.287-.04.574-.028.864.018.37.092.676.241 1.007.086.185.202.332.32.498.334.462.865.646 1.381.742.904.172 1.811.22 2.721.11a32.899 32.899 0 002.642-.46c.406-.086.69-.554.69-.98 0-.514-.43-1.065-.94-1.013l-1.494.15c-.3.029-.599.055-.898.079a8.555 8.555 0 01-1.739-.067c-.139-.025-.279-.05-.417-.083.105-.392.237-.78.345-1.167.178-.63.303-1.267.431-1.907.268-1.324.4-2.67.561-4.014.195-1.381.414-2.757.492-4.155.037-.606.013-1.227-.008-1.833-.025-.7-.05-1.403-.07-2.102-.02-.61-.044-1.22-.065-1.831-.024-.719-.1-1.432-.171-2.148-.146-1.544-.403-3.08-.617-4.614-.037-.261-.26-.519-.461-.647a.937.937 0 00-.776-.11"/><path d="M195.733 105.617h-.084c-.357 0-.716.032-1.07.063l-.217.019c-.836.074-1.671.15-2.506.253a39.08 39.08 0 00-4.814.905c-.648.168-1.333.375-2.155.652l-.213.072c-.48.16-.965.323-1.432.518l-1.85.78-.466.19c-.343.139-.687.278-1.018.439l-.6.29c-.771.371-1.542.743-2.302 1.137l-1.857.963c-.299.154-.59.33-.877.508l-.304.183c-.318.187-.633.37-.944.558l-.132.075c-.097.055-.193.109-.282.168l-.818.56-.82.56a59.335 59.335 0 00-2.115 1.54l-.658.493c-.642.478-1.273.97-1.905 1.463l-.483.377c-.826.64-1.625 1.342-2.399 2.021l-.388.34c-.77.678-1.481 1.397-2.312 2.269l-.432.457c-.414.441-.828.882-1.264 1.303-.52.504-1.11 1.02-1.798 1.576-.127.089-.256.175-.385.26-.129.087-.258.173-.386.262a6.47 6.47 0 00-.439.34c-.255.215-.367.505-.476.786-.093.234-.063.686 0 .907.032.11.071.215.116.319.225.54.44 1.12.696 1.884.223.655.445 1.31.646 1.969.201.664.362 1.325.49 2.019.099.954.095 1.978-.014 3.044-.088.47-.218 1.085-.44 1.67a15.734 15.734 0 01-.874 1.719l-.133.22-.135.224c-.146.244-.251.5-.335.718a1.293 1.293 0 00-.03.715c.048.192.16.44.306.56.152.124.29.224.466.309.114.054.235.099.353.143.807.363 1.55.814 2.269 1.25l.218.131c.274.169.548.332.835.471.308.144.638.246.96.346l.1.03c.186.06.37.102.561.127a3.504 3.504 0 000 .323c.006.27.03.54.051.805.023.237.04.448.052.658l.006.108c.022.499.04.96 0 1.412l-.019.22c-.167.958-.393 1.848-.68 2.89-.262.947-.547 2.076-.664 3.254l-.046.4-.025.24a38.86 38.86 0 00-.088.947c-.026.311-.041.622-.058.934l-.032.587a92.153 92.153 0 00-.158 3.328c-.013.48-.02.967-.025 1.447-.007.421.009.804.029 1.191l.019.438c.036.931.129 1.877.218 2.791l.014.151.013.123.012.114c.261 2.588.62 4.66 1.126 6.518.11.402.235.797.368 1.194.077.227.168.447.259.668l.038.097.165.403c.357.898.725 1.787 1.102 2.676a.332.332 0 00-.018-.158c.254.71.685 1.769 1.214 2.841a34.47 34.47 0 001.545 2.793c.653 1.077 1.322 1.98 2.048 2.755.548.582 1.17 1.119 1.719 1.593l.072.062.551.48c1.062.924 1.89 1.56 2.683 2.057.743.473 1.536.83 2.303 1.175l.497.227.41.192.096.044c.857.4 1.695.785 2.538 1.11.236.095.475.182.713.268l.165.06.093.032.535.195c.429.162.86.324 1.303.457 1.089.327 2.234.384 3.41.416.516.016 1.029.026 1.542.032l.138.004c.697 0 1.37-.074 2.001-.221a8.7 8.7 0 001.455-.488c.615-.253 1.15-.592 1.591-.888.699-.463 1.367-.993 2.014-1.506l.14-.11.536-.425.251-.198c.34-.266.681-.535 1-.828.393-.36.753-.741 1.088-1.1l.148-.162c.41-.447.792-.862 1.119-1.3.235-.315.459-.634.685-.957l.137-.196.09-.133 1.004-1.414.35-.503.558-.791a32.21 32.21 0 001.248-1.973l.404-.668c.402-.657.763-1.255 1.087-1.901.19-.383.354-.779.513-1.178.195-.47.26-.91.307-1.287 0-.21-.053-.407-.156-.585a1.174 1.174 0 00-.997-.579c-.387 0-.75.21-1 .575l-.088.126a5.591 5.591 0 00-.451.746l-.065.128-.136.255a18.24 18.24 0 01-.692 1.213 80.905 80.905 0 01-1.013 1.596l-.212.334-.39.603c-.11.172-.222.344-.339.516.041-.138.032-.285.018-.437-.067-.771-.161-1.682-.357-2.596l-.13-.597c-.105-.49-.3-.96-.49-1.416-.26-.605-.52-1.054-.765-1.467l-.141-.24a36.833 36.833 0 00-.55-.908c-.358-.581-.802-1.061-1.228-1.494-.406-.411-.86-.794-1.298-1.164l-.293-.25c-.212-.182-.431-.36-.65-.538l-.216-.176a19.08 19.08 0 00-.853-.649c-.5-.364-1.076-.632-1.574-.844a14.425 14.425 0 00-2.852-.929c-.779-.163-1.568-.202-2.094-.217-.123 0-.215.012-.318.042a.824.824 0 00-.409-.249.924.924 0 00-.27-.04c-.436 0-.822.297-.981.755-.113.328-.226.653-.342.98-.18.496-.255.903-.23 1.242.02.357.144.654.37.881.264.263.644.381.946.457.203.05.412.081.616.112l.336.05a22.38 22.38 0 011.592.344c.564.137 1.118.273 1.637.48 1.076.48 1.968.988 2.725 1.552.557.459 1.048.96 1.502 1.53.503.685 1.022 1.435 1.405 2.275.281.733.487 1.516.627 2.395.084.807.094 1.56.029 2.3-.03.364-.061.727-.097 1.09l-.025.218-.075.631-.08-.025-.314-.033-.164-.016a48.983 48.983 0 00-1.386-.169c-.28-.029-.564-.062-.845-.097-.932-.146-1.92-.331-2.838-.69a4.54 4.54 0 01-.589-.321 9.152 9.152 0 01-.25-.255 2.699 2.699 0 01-.205-.361 5.338 5.338 0 01-.315-1.062 57.461 57.461 0 01-.135-1.705l.143-.047c.216-.094.415-.245.563-.364.357-.172.532-.438.532-.812 0-.721-.661-.978-1.227-.978-.173 0-.356.026-.528.075l-.336.104c-.413.132-.76.237-1.136.299-.852.104-1.796.155-2.885.155-.642 0-1.283-.02-1.924-.049-.31 0-.571.113-.78.337a1.119 1.119 0 00-.306.755c0 .596.466 1.065 1.085 1.091.358.017.716.027 1.074.033l-.053.072-.026.11c-.134.508-.249.884-.374 1.217a4.802 4.802 0 01-.444.823c-.176.2-.36.39-.562.57a3.185 3.185 0 01-.356.205 6.922 6.922 0 01-1.162.315 4.331 4.331 0 01-.344.016c-.367 0-.745-.046-1.11-.091l-.382-.049-.129-.013-.099-.01a8.647 8.647 0 00-.94-.067 6 6 0 00-1.162.126l.019-.105c.003-.99.006-2.01.087-3.049.106-.71.248-1.437.49-2.513.182-.81.5-1.574.81-2.314l.1-.243.157-.363.043-.1c.066-.152.134-.307.205-.461a6.44 6.44 0 01.393-.706c.075-.118.163-.232.25-.344l.156-.197-.165.134.197-.186c.21-.257.42-.509.641-.756.29-.324.632-.61.931-.852a5.44 5.44 0 01.689-.466 6.44 6.44 0 01.871-.272c.107-.022.216-.042.325-.061.243-.046.427-.082.615-.143a5.91 5.91 0 00.383-.146l.088-.036.293-.124c.217-.093.37-.189.512-.318.165-.143.206-.413.215-.56a1.88 1.88 0 00-.032-.441 2.29 2.29 0 00-.327-.83c-.005-.19-.138-.421-.37-.468a6.137 6.137 0 00-1.216-.143c-.171 0-.343.01-.517.034-.473.063-.918.211-1.45.398-.182.066-.362.13-.539.198l-.106.043-.08.028c-.118.047-.18.072-.24.101a2.692 2.692 0 00-.394.215 24.74 24.74 0 00-2.286 1.642 6.675 6.675 0 00-1.263 1.273c-.275.375-.515.783-.758 1.204-.274.476-.43.957-.569 1.383l-.058.185-.09.28c-.155.446-.315.888-.476 1.329-.304.843-.453 1.757-.585 2.563l-.019.124c-.052.315-.11.629-.167.94l-.033.179-.038.218c-.071.416-.142.83-.198 1.251-.125.92-.21 1.693-.21 2.486 0 .383.004.763.014 1.145l.007.266.01.267c-.108-.148-.246-.28-.388-.416l-.344-.333c-.316-.313-.59-.658-.853-.993-.847-1.154-1.652-2.501-2.46-4.12-.626-1.256-1.182-2.568-1.72-3.837l-.079-.178-.125-.305-.203-.522-.08-.201a78.267 78.267 0 01-.362-.899c-.11-.285-.196-.58-.284-.875l-.038-.14c-.1-.344-.2-.687-.283-1.037a43.428 43.428 0 01-.761-4.092c-.223-1.899-.461-4.1-.455-6.207.003-.97.034-2.009.09-3.088l.045-.918c.043-.834.082-1.588.155-2.328l.061-.672.061-.62c.036-.216.075-.433.12-.654-.117-.834.029-1.745.187-2.527l.1-.503c.066-.336.132-.672.21-1.005.057-.265.118-.531.18-.797l.01-.108c.105-.994.211-2.023.454-3a71.62 71.62 0 01-.003-2.02l.01-1.018c.006-.272.023-.544.038-.817l.01-.165c.031-.613.113-1.234.192-1.835l.018-.157c.103-.69.216-1.384.332-2.075.132-.79.241-1.58.348-2.374l-.051.142.156-.83.082-.496c.075-.412.18-.827.287-1.235.204-.776.459-1.688.8-2.569.23-.595.472-1.184.714-1.775l.336-.829c.161-.398.32-.8.474-1.203.174-.448.348-.892.53-1.337l.038-.093.051-.133a.297.297 0 00.097-.035 49.44 49.44 0 011.914-.87l.216-.093c.782-.275 1.628-.57 2.498-.837l.225-.068c.274-.08.551-.162.832-.24l.455-.126c.313-.091.625-.178.94-.253l.207-.046a54.928 54.928 0 012.321-.489 85.961 85.961 0 012.58-.413 97.884 97.884 0 012.936-.272 67.926 67.926 0 012.892-.152l.093-.003c.336-.013.67-.02 1.01-.02.515 0 1.037.013 1.556.026l.255.01.235.006c.84.023 1.705.087 2.569.192 1.18.19 2.323.46 3.488.746 1.322.327 2.445.672 3.433 1.057.847.402 1.548.767 2.216 1.244.167.152.328.311.475.482.04.055.076.119.11.196.272.84.401 1.756.516 2.565.079.628.144 1.186.185 1.746.026.386.039.772.052 1.161.007.243.012.48.026.714.06 1.285.142 2.568.232 3.85.038.564.07 1.126.1 1.69.035.668.074 1.34.129 2.008.086 1.032.237 2.085.37 3.014l.136.956.064.497.078.568.019.158c.127 1.007.25 1.984.42 2.923l-.168.013c.018.484.02.983-.004 1.49.171-.02.33-.05.49-.082.183.884.43 1.81.726 2.748.207.636.446 1.237.71 1.786.11.217.23.435.362.639.46.716 1.11 1.126 1.787 1.126.69-.023 1.215-.425 1.722-.816l.117-.088c.075-.058.148-.116.226-.167l.187-.137.07-.05c.3-.217.613-.441.948-.624.08-.042.16-.084.242-.123.227-.084.449-.158.687-.21l.08.023a.517.517 0 00.07.085l.1.15.03.103.049.155c-.193.732-.182 1.353.033 1.895.064.232.18.432.353.613.263 2.139.283 4.2.055 6.12-.104.647-.247 1.406-.521 2.13a6.66 6.66 0 01-.525.886c-.28.337-.616.663-1.027.994a9.36 9.36 0 01-1.32.83c-.11.018-.152.018-.193.018l-.088-.116a.974.974 0 00-.783-.357 1.108 1.108 0 00-1.108.863c-.071.292-.028.583.124.816.11.18.226.36.365.523.094.11.277.308.442.386.237.106.42.187.633.243.176.047.39.069.653.069.67-.017 1.278-.282 1.784-.54a9.708 9.708 0 001.594-1.01c.222-.171.436-.357.645-.544.217-.2.396-.435.56-.66l.092-.12c.388-.52.63-1.14.833-1.731.2-.568.269-1.212.323-1.729l.03-.245c.058-.52.09-1.07.1-1.73a31.87 31.87 0 00-.159-3.705 43.672 43.672 0 00-.229-1.911.954.954 0 00.075-.463.678.678 0 01-.017-.113 8.34 8.34 0 01.126-.426l.035-.117c.026-.077.052-.156.071-.233.068-.254.122-.506.174-.76.123-.65.246-1.343.294-2.054.062-1.024.042-2.043.022-3.028l-.006-.453-.006-.266a60.673 60.673 0 00-.07-2.355c.15-.39.301-.783.434-1.178.064-.193.13-.387.197-.58.123-.356.247-.712.351-1.07l.119-.408.4-1.377c.104-.358.184-.723.263-1.087l.111-.5c.243-1.035.428-2.106.552-3.18l.053-.445c.048-.387.095-.773.122-1.16l.033-.527.034-.531.015-.213a8.01 8.01 0 00.03-.51l.011-.95.012-.948a21.65 21.65 0 00-.068-1.678 20.984 20.984 0 00-.323-2.563c-.146-.758-.378-1.505-.603-2.226l-.104-.334c-.13-.423-.285-.836-.44-1.25l-.088-.236c-.497-1.326-1.09-2.86-1.861-4.273-.598-1.09-1.348-2.073-2.004-2.89l-.262-.326c-.244-.303-.487-.605-.74-.898l-.23-.268c-.644-.75-1.31-1.523-2.011-2.243-.42-.435-.848-.857-1.287-1.272-.379-.361-.807-.684-1.22-.995l-.199-.15a41.33 41.33 0 00-2.7-1.873 15.477 15.477 0 00-2.98-1.518l-.27-.103a24.18 24.18 0 00-.595-.219c-.621-.215-1.303-.383-2.21-.544-.804-.138-1.414-.203-1.977-.211-.336-.007-.67-.01-1.006-.014"/><path d="M175.934 151.125l-.006.015.006-.015zm-9.46-3.189l.053-.128-.01.023-.044.108v-.003zm4.25-3.172zm-.501-.108l.1.01c.152.024.3.06.444.117l.068.032c.11.054.24.032.304-.08a.218.218 0 00.018-.042c.185.013.37.03.554.052.296.047.592.11.879.194.164.049.325.105.485.166.168.097.336.193.503.291.169.1.34.196.502.308.156.13.309.263.46.398.213.192.435.384.621.604.152.218.285.45.426.675a8 8 0 01.438.76c.053.139.1.279.138.424.051.195.098.394.136.593.01.166-.002.33-.019.496a8.206 8.206 0 01-.357 1.496c-.087.193-.19.37-.312.542a6.748 6.748 0 01-.879.886 2.804 2.804 0 01-.178.122 5.44 5.44 0 01-.528.287c-.615.247-1.269.391-1.924.488-.576.057-1.151.014-1.725-.053a5.37 5.37 0 01-.873-.222 5.29 5.29 0 01-.891-.5 7.465 7.465 0 01-.678-.618 29.51 29.51 0 00-.395-.41c-.134-.135-.281-.257-.403-.402a3.448 3.448 0 01-.123-.178c-.057-.091-.107-.186-.158-.281a5.574 5.574 0 01-.199-.42c-.07-.18-.136-.36-.197-.541a2.68 2.68 0 01-.098-.44 5.72 5.72 0 01.027-1.047 4.96 4.96 0 01.04-.234c.02-.102.054-.2.09-.297.121-.25.266-.488.407-.726.124-.208.243-.42.382-.619.223-.268.487-.502.756-.722.118-.09.236-.18.358-.265.144-.103.295-.194.445-.286.295-.181.587-.367.9-.513l.087-.033a6.45 6.45 0 01.369-.012zm.117-1.445a3.51 3.51 0 00-.563.149c-.24.079-.473.18-.702.288-.198.094-.384.216-.57.33-.191.117-.382.237-.568.36-.188.124-.367.264-.544.402-.213.165-.415.339-.615.52a4.16 4.16 0 00-.524.581c-.131.173-.24.366-.352.55-.108.179-.22.355-.324.536a5.372 5.372 0 00-.155.284 2.59 2.59 0 00-.173.431c-.078.267-.109.542-.142.819-.023.183-.036.37-.038.555a9.14 9.14 0 00-.064.657c-.02.28.009.575.088.846.074.253.176.497.28.74.097.224.2.445.304.666.095.2.186.403.286.601.075.148.19.277.292.405.038.049.078.096.117.144.068.084.143.162.217.24.168.179.365.342.571.474.231.147.481.251.734.353.213.085.433.155.655.214.458.121.922.181 1.39.242a12.034 12.034 0 00.747.074 9.839 9.839 0 001.019.045c.259-.006.518-.042.773-.085.42-.07.834-.168 1.243-.288.46-.135.905-.33 1.325-.563l.267-.15a2.82 2.82 0 00.373-.263c.163-.131.307-.28.452-.43.153-.16.302-.322.447-.488a4.67 4.67 0 00.448-.573c.242-.385.408-.817.53-1.255a4.57 4.57 0 00.124-.781c.021-.221.027-.446.03-.668a5.062 5.062 0 00-.07-.8 4.003 4.003 0 00-.127-.607 5.158 5.158 0 00-.291-.719 3.738 3.738 0 00-.328-.542c-.132-.183-.271-.36-.408-.539a3.205 3.205 0 00-.44-.46c-.185-.161-.39-.297-.587-.441-.154-.113-.303-.231-.466-.33-.106-.066-.215-.127-.323-.189a14.813 14.813 0 00-.677-.409c-.18-.102-.358-.212-.544-.305a21.943 21.943 0 00-.594-.286 10.181 10.181 0 00-.415-.182c-.154-.062-.326-.088-.488-.115a7.54 7.54 0 00-.984-.093c-.213 0-.423.023-.636.055z"/><path d="M173.168 148.305a5.519 5.519 0 01-.077.012l.077-.012zm.154-.022l-.046.006h.002l.03-.004.014-.002zm3.016-1.273c-.102.003-.204.018-.306.03-.086.01-.173.015-.26.025a9.22 9.22 0 00-.613.09c-.374.065-.75.12-1.124.186-.296.052-.592.1-.889.149a.344.344 0 00-.087.014l-.174.029a.327.327 0 00-.08.013c-.358.06-.716.125-1.075.186-.77.133-1.537.276-2.306.405-.75.125-1.49.307-2.231.48l-.982.23c-.17.04-.266.253-.222.429a.327.327 0 00.173.22.33.33 0 00.042.203.409.409 0 00.126.143.42.42 0 00.203.059c.045 0 .09-.002.135-.006.081-.007.162-.018.243-.03.185-.026.362-.071.544-.115.358-.086.724-.145 1.086-.207a28.64 28.64 0 002.127-.457c.372-.094.749-.164 1.123-.244.364-.078.724-.174 1.087-.26.737-.178 1.493-.24 2.232-.404l.612-.136c.24-.054.484-.1.723-.166.173-.048.295-.232.295-.425 0-.234-.178-.44-.394-.44h-.008z"/><path d="M170.035 149.261a7.486 7.486 0 00.266.012 2.72 2.72 0 00-.177.073c-.002 0-.004-.002-.005-.003a1.208 1.208 0 01-.084-.082m2.765-1.26c-.089.013-.178.026-.267.041-.363.062-.724.138-1.084.216-.226.048-.45.103-.674.157l-.365.089c-.19.046-.38.087-.567.14a.317.317 0 00-.23.265l-.01-.002a.444.444 0 00-.355.06.202.202 0 00-.178-.034c-.104.028-.185.148-.147.255.06.165.116.334.184.497.04.093.078.188.132.275.054.091.13.176.205.25.122.122.267.224.415.312a1.93 1.93 0 00.627.246c.18.04.359.07.541.089.21.022.427-.006.63-.056.164-.041.32-.099.477-.16.16-.064.317-.133.472-.208.158-.076.306-.165.441-.277.06-.049.107-.11.155-.17.064-.08.123-.164.178-.252.063-.1.12-.205.151-.32a3.27 3.27 0 00.061-.256 1.9 1.9 0 00.04-.426 1.87 1.87 0 01.014-.021c.031-.035.064-.07.087-.108a.597.597 0 00.058-.124.848.848 0 00.014-.112.37.37 0 00-.187-.321.38.38 0 00-.302-.033.666.666 0 00-.236-.039 1.87 1.87 0 00-.28.027m-4.498 2.489v.002a.193.193 0 01-.013.015l.013-.017m.468-.183l-.014.016a.153.153 0 01.014-.016m-.183-.377a.766.766 0 00-.18.139.412.412 0 00-.1.247c-.005.056-.002.113-.005.168a.84.84 0 01-.026.023c-.088.064-.179.124-.255.2a.699.699 0 00-.151.208 8.685 8.685 0 00-.063.144c-.025.05-.05.1-.084.147a.5.5 0 01-.037.037c-.095.064-.204.107-.31.15l-.296.117c-.043.017-.076.034-.1.074a.156.156 0 00-.017.124c.012.04.04.076.076.097.035.02.09.032.13.016.19-.075.384-.144.57-.229a.772.772 0 00.246-.163.856.856 0 00.119-.17c.04-.07.074-.143.12-.21a.832.832 0 01.1-.09c.09-.063.188-.11.275-.176a.391.391 0 00.1-.115c.035-.057.039-.127.043-.191.004-.043.004-.086.008-.129l.004-.016a.489.489 0 01.052-.04.221.221 0 00.1-.125.205.205 0 00-.022-.161.229.229 0 00-.192-.105.196.196 0 00-.105.03m1.903 2.206l-.002.002.002-.002zm-.005-.007l-.005.006.005-.006zm.039-1.26c-.112.029-.174.133-.147.233.015.053.033.106.045.16a.527.527 0 010 .084c-.02.093-.05.185-.066.279a.624.624 0 00.046.352c.023.052.052.1.082.149-.048.044-.102.081-.155.12l-.344.23c-.041.026-.072.054-.087.1a.158.158 0 00.02.13.19.19 0 00.112.079c.044.01.106.008.145-.018.136-.09.274-.178.406-.273.035-.025.07-.049.104-.075a.755.755 0 00.09-.079.39.39 0 00.082-.129c.036-.086-.006-.18-.057-.254a.507.507 0 01-.038-.062.658.658 0 01-.032-.105.52.52 0 010-.079c.02-.087.059-.17.084-.257a.637.637 0 00.02-.317.533.533 0 00-.073-.18c-.035-.06-.11-.093-.183-.093a.228.228 0 00-.054.006zm2.623.625h.001a.112.112 0 01-.003.013l.002-.013m0-.041l.002.008-.001-.008m-.129-.562c-.05.03-.111.058-.141.103a.249.249 0 00-.051.138c0 .083.066.154.134.214.058.05.126.094.183.144a.645.645 0 00-.028.223.595.595 0 00.023.11c.01.037.034.071.053.106.025.044.07.08.1.122l.002.003a.384.384 0 010 .048.659.659 0 01-.049.124 1.94 1.94 0 01-.212.269c-.08.088-.022.218.093.269a.33.33 0 00.197.02.278.278 0 00.155-.09c.127-.143.243-.288.302-.457a.473.473 0 00.005-.291c-.022-.074-.088-.131-.134-.195a.341.341 0 01-.011-.033v-.05c.014-.047.036-.092.05-.14.028-.102-.014-.205-.096-.287a1.407 1.407 0 00-.172-.141l-.014-.011a.158.158 0 00-.033-.126.262.262 0 00-.155-.092.354.354 0 00-.075-.007.264.264 0 00-.126.027m2.571-.942a.284.284 0 01.033.028l-.032-.028m-.06-.034l.011.005a.276.276 0 01-.011-.005m.692-.078l.012.032a.44.44 0 01-.012-.032m-1.34-.79c-.123.137-.142.405 0 .539.13.123.276.214.436.281.074.031.15.047.226.067.014.068.022.137.04.205.038.138.117.26.211.355.126.128.278.222.424.318.163.106.379.043.474-.14.095-.182.039-.425-.124-.532a3.555 3.555 0 01-.271-.189.939.939 0 01-.049-.052c-.013-.057-.02-.115-.03-.174-.012-.082-.05-.16-.083-.233-.043-.098-.131-.165-.207-.225a2.482 2.482 0 00-.131-.065.441.441 0 00-.063-.021 2.23 2.23 0 01-.236-.084c-.07-.035-.14-.07-.205-.11a.316.316 0 00-.412.06m11.557.92l.007.016-.006-.016zm9.461-3.188l-.053-.128.01.023.044.108v-.003zm-4.25-3.172zm.501-.108a2.027 2.027 0 00-.545.127c-.022.01-.045.02-.067.032-.11.054-.24.031-.304-.08a.218.218 0 01-.018-.042 11.4 11.4 0 00-.554.052c-.296.047-.592.11-.879.194a6.621 6.621 0 00-.485.166c-.168.097-.336.192-.503.291-.169.1-.34.196-.502.308-.156.129-.309.263-.46.398-.213.191-.435.384-.621.604-.152.217-.285.45-.426.675a8 8 0 00-.438.759c-.053.14-.1.28-.138.425a8.965 8.965 0 00-.136.592c-.01.166.002.331.019.497.076.508.188 1.01.357 1.495.087.193.19.371.312.543.264.326.561.614.879.886.058.042.117.084.178.121a5.44 5.44 0 00.528.288c.615.247 1.269.39 1.924.488.576.056 1.151.014 1.725-.054a5.37 5.37 0 00.873-.221c.31-.14.613-.302.891-.5.236-.193.467-.398.678-.618.13-.138.262-.275.395-.41.134-.135.281-.257.403-.402a3.55 3.55 0 00.123-.179c.057-.09.107-.185.158-.28.073-.138.138-.278.199-.421.07-.179.136-.358.197-.54a2.68 2.68 0 00.098-.441c.027-.35.01-.697-.027-1.046a4.96 4.96 0 00-.04-.235 1.99 1.99 0 00-.09-.296c-.121-.25-.266-.488-.407-.726-.124-.208-.243-.42-.382-.619a5.512 5.512 0 00-.756-.722 11.6 11.6 0 00-.358-.265c-.144-.103-.295-.194-.445-.286-.295-.181-.587-.368-.9-.513a5.019 5.019 0 00-.087-.033 6.45 6.45 0 00-.369-.012zm-.117-1.445c.191.029.379.089.563.149.24.079.473.18.702.288.198.094.384.216.57.33.191.117.382.236.568.359.188.124.367.265.544.403.213.165.415.339.615.519.196.177.365.371.524.582.131.173.24.365.352.55.108.178.22.355.324.535.054.094.106.188.155.285.068.135.13.284.173.431.078.267.109.542.142.819.023.183.036.369.038.555.03.217.05.438.064.657.02.28-.009.575-.088.846a6.465 6.465 0 01-.28.739c-.097.225-.2.446-.304.666-.095.201-.186.404-.286.602-.075.147-.19.276-.292.405-.038.049-.078.096-.117.144-.068.084-.143.161-.217.24a3.07 3.07 0 01-.571.474 4.424 4.424 0 01-.734.353 5.61 5.61 0 01-.655.214c-.458.12-.922.18-1.39.241a12.034 12.034 0 01-.747.074 9.839 9.839 0 01-1.019.046 5.513 5.513 0 01-.773-.085c-.42-.07-.834-.169-1.243-.289a6.556 6.556 0 01-1.325-.562l-.267-.15a2.947 2.947 0 01-.373-.263 4.907 4.907 0 01-.452-.431 14.804 14.804 0 01-.447-.488 4.67 4.67 0 01-.448-.572 4.747 4.747 0 01-.53-1.255 4.591 4.591 0 01-.124-.781 8.403 8.403 0 01-.03-.669 5.062 5.062 0 01.07-.799c.03-.204.066-.41.127-.608.076-.245.179-.488.291-.718.093-.192.204-.37.328-.543.132-.182.271-.36.408-.538.131-.17.279-.32.44-.46.185-.162.39-.297.587-.441.154-.113.303-.231.466-.33.106-.066.215-.127.323-.19a14.813 14.813 0 01.677-.409c.18-.1.358-.211.544-.304.196-.098.394-.195.594-.287.137-.063.276-.124.415-.181.154-.062.326-.088.488-.115a7.54 7.54 0 01.984-.093c.213 0 .423.023.636.055z"/><path d="M189.207 147.15l.077.01-.077-.01zm-.154-.024l.046.007h-.002l-.03-.005-.014-.002zm-3.016-1.272c.102.002.204.018.306.03.086.009.173.015.26.025.205.022.41.054.613.09.374.065.75.12 1.124.186.296.052.592.1.889.148.03.001.06.006.087.015l.174.028a.327.327 0 01.08.014c.358.06.716.124 1.075.186.77.133 1.537.276 2.306.405.75.125 1.49.307 2.231.48.328.076.655.152.982.23.17.04.266.253.222.428a.327.327 0 01-.173.221.33.33 0 01-.042.203.409.409 0 01-.126.142.42.42 0 01-.203.06 1.49 1.49 0 01-.135-.006 4.314 4.314 0 01-.243-.03c-.185-.027-.362-.071-.544-.116-.358-.085-.724-.144-1.086-.207a28.437 28.437 0 01-2.127-.457c-.372-.093-.749-.163-1.123-.243-.364-.078-.724-.174-1.087-.261-.737-.177-1.493-.239-2.232-.404l-.612-.136c-.24-.053-.484-.099-.723-.165-.173-.048-.295-.232-.295-.425 0-.234.178-.44.394-.44h.008z"/><path d="M192.34 148.105a7.486 7.486 0 01-.266.012c.06.022.119.047.177.073l.005-.003c.03-.026.057-.054.084-.082m-2.765-1.26l.267.04c.363.063.724.139 1.084.216.226.049.45.104.674.158l.365.089c.19.046.38.087.567.14.123.035.215.14.23.265l.01-.003a.444.444 0 01.355.06.202.202 0 01.178-.033c.104.028.185.148.147.255-.06.165-.116.334-.184.497-.04.093-.078.188-.132.275-.054.091-.13.176-.205.25a2.126 2.126 0 01-.415.312 1.93 1.93 0 01-.627.246c-.18.04-.359.07-.541.089a1.837 1.837 0 01-.63-.057 3.773 3.773 0 01-.477-.16 6.722 6.722 0 01-.472-.207 2.139 2.139 0 01-.441-.278c-.06-.048-.107-.109-.155-.169a2.708 2.708 0 01-.178-.252c-.063-.1-.12-.205-.151-.32a3.27 3.27 0 01-.061-.256 1.9 1.9 0 01-.04-.426 1.87 1.87 0 00-.014-.021c-.031-.035-.064-.071-.087-.108a.597.597 0 01-.058-.124.848.848 0 01-.014-.112.37.37 0 01.187-.322.38.38 0 01.302-.032.666.666 0 01.236-.04c.093 0 .187.014.28.028m4.498 2.489v.002l.013.014-.013-.016m-.468-.184l.014.017a.153.153 0 00-.014-.017m.183-.376c.065.04.13.082.18.139.063.07.094.156.1.247.005.056.002.112.005.168a.84.84 0 00.026.023c.088.063.179.124.255.2.062.061.116.13.151.208l.063.143c.025.051.05.101.084.148a.5.5 0 00.037.037c.095.063.204.107.31.15.099.04.198.078.296.116.043.017.076.035.1.074a.156.156 0 01.017.125.167.167 0 01-.076.097.168.168 0 01-.13.016c-.19-.075-.384-.144-.57-.23a.772.772 0 01-.246-.162.856.856 0 01-.119-.17c-.04-.07-.074-.143-.12-.21a.832.832 0 00-.1-.09c-.09-.063-.188-.111-.275-.176a.391.391 0 01-.1-.115c-.035-.057-.039-.128-.043-.192-.004-.043-.004-.085-.008-.128l-.004-.017a.489.489 0 00-.052-.04.221.221 0 01-.1-.125.205.205 0 01.022-.16.229.229 0 01.192-.105c.037 0 .073.009.105.03m-1.903 2.205l.002.003-.002-.003zm.005-.007l.005.007-.005-.007zm-.039-1.258c.112.028.174.132.147.232-.015.053-.033.106-.045.16a.527.527 0 000 .084c.02.093.05.185.066.279.02.12.002.238-.046.352-.023.052-.052.1-.082.148.048.044.102.082.155.12l.344.23c.041.027.072.055.087.101a.158.158 0 01-.02.13.19.19 0 01-.112.078c-.044.011-.106.009-.145-.017-.136-.09-.274-.179-.406-.273l-.104-.075a.755.755 0 01-.09-.08.39.39 0 01-.082-.128c-.036-.087.006-.181.057-.254a.507.507 0 00.038-.062.658.658 0 00.032-.105.52.52 0 000-.08c-.02-.086-.059-.17-.084-.256a.637.637 0 01-.02-.317.533.533 0 01.073-.18c.035-.06.11-.094.183-.094.018 0 .037.002.054.007zm-2.623.623l-.001.002.003.012-.002-.014m0-.04l-.002.008.001-.008m.129-.562c.05.029.111.058.141.103.03.044.051.087.051.137 0 .084-.066.155-.134.214-.058.051-.126.095-.183.145a.645.645 0 01.028.223.595.595 0 01-.023.11c-.01.037-.034.07-.053.106-.025.044-.07.08-.1.122l-.002.003a.384.384 0 000 .048.659.659 0 00.049.124c.059.095.134.182.212.269.08.088.022.218-.093.269a.33.33 0 01-.197.02.278.278 0 01-.155-.091c-.127-.142-.243-.288-.302-.456a.473.473 0 01-.005-.292c.022-.073.088-.13.134-.194a.341.341 0 00.011-.033v-.05c-.014-.047-.036-.093-.05-.14-.028-.103.014-.206.096-.287.052-.052.11-.096.172-.141l.014-.011a.158.158 0 01.033-.127.262.262 0 01.155-.091.354.354 0 01.075-.008c.045 0 .093.008.126.028m-2.572-.942a.284.284 0 00-.032.028l.032-.028m.06-.034l-.011.005a.276.276 0 00.011-.005m-.692-.079l-.012.033a.44.44 0 00.012-.033m1.34-.79c.123.138.142.405 0 .54a1.43 1.43 0 01-.436.28c-.074.032-.15.048-.226.068-.014.068-.022.137-.04.204a.829.829 0 01-.211.356c-.126.128-.278.222-.424.318-.163.106-.379.043-.474-.14-.095-.183-.039-.425.124-.532.092-.06.184-.12.271-.189a.939.939 0 00.049-.052c.013-.058.02-.115.03-.174.012-.083.05-.16.083-.234.043-.097.131-.164.207-.225a3.17 3.17 0 01.131-.064.441.441 0 01.063-.022c.08-.024.159-.05.236-.083.07-.035.14-.07.205-.11a.316.316 0 01.412.06m12.687 7.055c.036 0 .073 0 .11-.002l.022-.01-.002-.001c.014-.011.026-.023.039-.035a1.99 1.99 0 00.145-.223 1.352 1.352 0 01-.237.104 2.218 2.218 0 01-.442.106c.023.007.046.017.069.027.034.01.069.02.105.028.063.004.128.006.19.006m.146-8.322c.276 0 .485.205.562.294l.016.017c.083.096.169.194.236.302.198.312.31.657.418.99.142.44.207.886.266 1.343.045.346.07.698.095 1.039l.007.085c.034.455.056.878.07 1.292.01.302.008.617-.004.962a6.878 6.878 0 01-.096.954l-.023.149c-.041.267-.1.486-.182.67a3.11 3.11 0 01-.38.652 1.346 1.346 0 01-.442.375c-.154.084-.34.126-.553.126-.065 0-.13-.004-.193-.01a2.205 2.205 0 01-.435-.075 1.42 1.42 0 01-.415-.218 1.627 1.627 0 01-.393-.431.345.345 0 01.062-.446.69.69 0 01-.117-.121c-.158-.202-.25-.451-.286-.785a1.714 1.714 0 01.016-.398c.017-.126.038-.274.073-.419.058-.248.178-.486.287-.686.103-.189.208-.377.314-.565a5.34 5.34 0 01.213-.335c.057-.086.115-.172.168-.26a7.81 7.81 0 00.338-.61l.077-.17a1.89 1.89 0 00.126-.414c.016-.133.028-.274.035-.433.009-.26.014-.54-.017-.815a5.075 5.075 0 00-.287-.987l-.031-.057c-.104-.19-.221-.405-.14-.618a.527.527 0 01.156-.238.67.67 0 01.429-.158l.03-.001m71.286 18.505c.037 0 .072 0 .108-.002l.022-.01-.002-.002a.35.35 0 00.038-.039c.048-.07.095-.151.142-.244-.071.049-.153.082-.232.114a1.976 1.976 0 01-.432.117.399.399 0 01.067.029c.034.012.068.021.103.03.062.005.125.008.187.008m.142-9.131c.27 0 .474.225.55.322l.015.02c.081.104.165.212.231.33.193.343.303.721.408 1.087.139.482.203.972.26 1.474.044.379.07.765.094 1.139l.006.093c.033.5.055.964.068 1.418.01.331.009.676-.003 1.055-.006.182-.02.361-.034.543-.013.169-.037.34-.06.504l-.023.163c-.04.293-.098.534-.178.736a3.53 3.53 0 01-.371.715c-.123.177-.26.308-.432.412-.15.091-.332.138-.541.138-.063 0-.126-.005-.189-.012a1.945 1.945 0 01-.425-.082 1.343 1.343 0 01-.406-.239c-.18-.146-.3-.33-.384-.473a.412.412 0 01.06-.489.727.727 0 01-.113-.133c-.155-.221-.244-.495-.28-.86a2.108 2.108 0 01.015-.438 5.2 5.2 0 01.071-.46 3.38 3.38 0 01.282-.752c.1-.207.203-.414.307-.62a6 6 0 01.207-.368c.056-.094.113-.188.164-.284.13-.24.238-.459.332-.67l.075-.186c.055-.14.095-.29.123-.455.016-.146.027-.3.034-.475a6.882 6.882 0 00-.017-.893 6.098 6.098 0 00-.28-1.083l-.03-.063c-.102-.208-.217-.444-.137-.678a.59.59 0 01.152-.262.616.616 0 01.42-.173l.03-.001"/></g></svg>