<svg width="500" height="600" xmlns="http://www.w3.org/2000/svg" xmlns:xlink="http://www.w3.org/1999/xlink"><defs><path id="a" d="M0 0.461298701L63.881974 0.461298701 63.881974 92.259574 0 92.259574z"/></defs><g fill="none" fill-rule="evenodd"><path d="M40.156426 89.8143584C40.156426 89.8151896 40.156426 89.8168519 40.1555948 89.8176831L40.1589195 89.8143584 40.156426 89.8143584zM31.9916883 26.0473351C31.4173506 26.0697766 30.8455065 26.0930494 30.2711688 26.1154909 29.9303896 26.1287896 29.5854545 26.1612052 29.2446753 26.1836468 28.6503896 26.2260364 28.0602597 26.2651013 27.465974 26.3066597 27.1700779 26.3266078 26.875013 26.3723221 26.5791169 26.4105558 25.9590649 26.485361 25.3356883 26.5634909 24.7156364 26.6416208 24.443013 26.677361 24.1737143 26.7131013 23.9010909 26.7646338 22.8263896 26.9657766 21.7516883 27.1710753 20.676987 27.3722182 20.4101818 27.4237506 20.1475325 27.5018805 19.8848831 27.5667117 19.2515325 27.7262961 18.6181818 27.8850494 17.9823377 28.0404779 17.5692468 28.144374 17.156987 28.2482701 16.7447273 28.3496727 16.1737143 28.4918026 15.6085195 28.6638545 15.0433247 28.8267636 14.7673766 28.9048935 14.601974 29.1933091 14.6767792 29.4692571 14.7515844 29.7418805 15.0466494 29.9106078 15.3192727 29.8333091 15.862026 29.6770494 16.4006234 29.5116468 16.9491948 29.3753351 17.3099221 29.2872312 17.6731429 29.1966338 18.0338701 29.109361 18.9198961 28.8882701 19.8034286 28.6705039 20.6894545 28.4502442 21.1964675 28.3264 21.7126234 28.2482701 22.2254545 28.1510234 22.9685195 28.0147117 23.7107532 27.8800623 24.4538182 27.740426 25.3855584 27.627387 26.3197922 27.5209974 27.2548571 27.4112831 27.5923117 27.3688935 27.9330909 27.3655688 28.2705455 27.3431273 28.8615065 27.307387 29.4557922 27.2716468 30.0467532 27.2359065 30.3783896 27.2159584 30.7091948 27.2126338 31.0375065 27.2068156 31.5761039 27.1901922 32.118026 27.1768935 32.6574545 27.1611013 33.0796883 27.1478026 33.5044156 27.1768935 33.9266494 27.1835429 34.3131429 27.1935169 34.702961 27.1868675 35.0894545 27.2192831 35.5499221 27.2616727 36.0103896 27.3048935 36.4716883 27.3447896 36.7468052 27.3905039 37.0219221 27.4378805 37.297039 27.4852571 37.5663377 27.5309714 37.8323117 27.6057766 38.0991169 27.6706078 38.601974 27.7969455 39.0956883 27.9723221 39.5927273 28.1352312 39.9268571 28.2424519 40.2967273 28.011387 40.3881558 27.6805818 40.4854026 27.3265039 40.270961 26.9956987 39.9368312 26.8818286 39.1148052 26.6092052 38.2744935 26.391439 37.4134026 26.2717506 37.1831688 26.2385039 36.9529351 26.2027636 36.7185455 26.1703481 36.4758442 26.1379325 36.228987 26.1287896 35.9821299 26.1088416 35.5731948 26.0797506 35.1609351 26.0340364 34.7478442 26.0340364 34.1510649 26.0307117 33.5567792 26.0282182 32.9624935 26.0215688 32.6375065 26.0215688 32.3166753 26.0340364 31.9916883 26.0473351M43.9656727 34.887813C43.9756468 34.8911377 43.9847896 34.8944623 43.9947636 34.9011117 44.001413 34.9044364 44.0047377 34.9069299 44.011387 34.9102545 44.0388156 34.8811636 44.0695688 34.8529039 44.1011532 34.8271377 44.0903481 34.818826 44.080374 34.8105143 44.0695688 34.8022026 44.0379844 34.8329558 44.001413 34.8628779 43.9656727 34.887813M22.1767481 35.5794286C22.1343584 35.6118442 22.0919688 35.6409351 22.0470857 35.6733506 21.9265662 35.7805714 21.8160208 35.8944416 21.7096312 36.0116364 21.6996571 36.0241039 21.6930078 36.0340779 21.6830338 36.0465455 21.6589299 36.2011429 21.6273455 36.3499221 21.5924364 36.4912208 21.6248519 36.4854026 21.6589299 36.4779221 21.6930078 36.4687792 21.9722805 36.3914805 22.2124883 36.2061299 22.358774 35.9592727 22.4693195 35.8811429 22.5532675 35.7647792 22.5890078 35.6342857 22.6247481 35.5054545 22.6156052 35.3857662 22.5748779 35.2802078 22.4435532 35.3874286 22.3030857 35.4846753 22.1767481 35.5794286M23.4632312 53.9162597C22.9828156 54.2420779 22.4949195 54.5662338 21.9837506 54.8438442 21.9696208 54.9377662 21.9546597 55.0308571 21.9405299 55.1239481L21.911439 55.3159481 21.8948156 55.4256623C21.8200104 55.926026 21.7460364 56.4197403 21.6388156 56.9068052 21.4925299 57.585039 21.3429195 58.2607792 21.1841662 58.9356883 21.1384519 59.1177143 21.0927377 59.2964156 21.0445299 59.4776104L20.9472831 59.8641039C20.8915948 60.0918442 20.8400623 60.3254026 20.8201143 60.5556364 20.8009974 60.750961 20.823439 60.9421299 20.8882701 61.1075325 20.9439584 61.2962078 21.0345558 61.454961 21.1741922 61.5945974 21.3462442 61.7309091 21.4667636 61.828987 21.6064 61.8971429 22.5572571 62.3709091 23.6519065 62.4357403 24.599439 62.4357403 24.8687377 62.4357403 25.1388675 62.4324156 25.4048416 62.4257662L25.5120623 62.4224416 26.1063481 62.409974 26.7006338 62.3966753C27.0829714 62.390026 27.4727896 62.3384935 27.8202182 62.2927792L27.9307636 62.2803117 28.0155429 62.267013 28.2100364 62.2412468C28.4402701 62.1764156 28.6355948 62.0691948 28.8043221 61.9062857 29.0445299 61.6594286 29.1808416 61.3252987 29.1808416 60.9911688 29.1808416 60.302961 28.5998545 59.6987013 27.937413 59.6987013 27.3240104 59.7244675 26.7621403 59.7834805 26.1420883 59.8483117 25.4015169 59.9289351 24.6642701 60.0070649 23.9436468 60.0070649 23.6519065 60.0070649 23.3593351 59.9970909 23.0667636 59.9646753L22.9537247 59.9555325 22.9861403 59.7834805 23.0019325 59.5981299 23.1000104 58.5624935C23.1291013 58.225039 23.1681662 57.8867532 23.2064 57.5526234 23.2587636 57.1012987 23.3078026 56.689039 23.3402182 56.2701299 23.3560104 56.0723117 23.3693091 55.8736623 23.3784519 55.6758442 23.388426 55.5104416 23.4017247 55.345039 23.4141922 55.1796364 23.4374649 54.8737662 23.4732052 54.5687273 23.5056208 54.2636883L23.531387 54.0492468C23.5388675 53.9835844 23.5471792 53.9179221 23.5546597 53.8530909 23.5239065 53.8738701 23.4939844 53.8954805 23.4632312 53.9162597M8.82285714 42.4097247C8.9225974 42.071439 9.04145455 41.7414649 9.18441558 41.4239584 8.89267532 41.6500364 8.76883117 42.0465039 8.82285714 42.4097247" fill="#161616" transform="translate(156 104)"/><path d="M22.1750857,35.5810078 C22.1326961,35.6100987 22.0903065,35.6425143 22.0487481,35.6716052 C21.9282286,35.7821506 21.8143584,35.8926961 21.7079688,36.0132156 C21.7013195,36.0223584 21.6913455,36.0356571 21.6846961,36.0481247 C21.6630857,36.1703065 21.6381506,36.290826 21.6107221,36.4080208 C21.6157091,36.4454234 21.6206961,36.4836571 21.6265143,36.5227221 C21.7370597,37.2790857 21.8500987,38.0354494 21.9606442,38.7951377 C22.0578909,39.5780987 22.1526442,40.3602286 22.2075013,41.1523325 C22.2565403,41.9219948 22.2399169,42.6883325 22.1942026,43.4579948 C22.1002805,45.0388779 22.0288,46.619761 21.8891636,48.2014753 C21.7885922,48.8539429 21.6622545,49.4964364 21.5126442,50.1430857 C21.3605403,50.8113455 21.1618909,51.473787 21.0513455,52.1553455 C20.9283325,52.9058909 20.8019948,53.6589299 20.6690078,54.4086442 C20.5385143,55.1525403 20.4603844,55.9055792 20.3764364,56.6552935 C20.285839,57.2786701 20.1653195,57.8929039 20.093839,58.5162805 C20.0614234,58.7988779 20.0514494,59.0806442 20.0647481,59.3665662 C20.0838649,59.7306182 20.1619948,60.0323325 20.3215792,60.3573195 C20.4121766,60.5385143 20.5351896,60.6848 20.6623584,60.8468779 C21.0156052,61.3015273 21.5808,61.4835532 22.1293714,61.5774753 C23.0910338,61.7462026 24.0551896,61.7952416 25.0226701,61.6846961 C25.9643844,61.5774753 26.9019429,61.4120727 27.8311896,61.2333714 C28.2625662,61.1494234 28.5642805,60.6881247 28.5642805,60.2692156 C28.5642805,59.7630338 28.1071377,59.2202805 27.5643844,59.2726442 L25.9768519,59.4189299 C25.6585143,59.4480208 25.3410078,59.473787 25.0226701,59.4962286 C24.4026182,59.5419429 23.7883844,59.5028779 23.1716571,59.4313974 C23.0228779,59.4089558 22.8765922,59.3831896 22.7269818,59.350774 C22.8408519,58.9642805 22.9804883,58.5844364 23.0968519,58.2012675 C23.2855273,57.5812156 23.4185143,56.9545143 23.554826,56.3244883 C23.8374234,55.0228779 23.9803844,53.6979948 24.1524364,52.3731117 C24.3569039,51.015813 24.5904623,49.661839 24.6752416,48.2854234 C24.7143065,47.687813 24.6877091,47.0777351 24.6652675,46.4801247 C24.6395013,45.7919169 24.6137351,45.1003844 24.5904623,44.4121766 C24.5713455,43.8112416 24.5455792,43.2111377 24.5223065,42.6102026 C24.4965403,41.9020468 24.4150857,41.2013714 24.3402805,40.4965403 C24.1848519,38.9771636 23.9122286,37.4644364 23.6844883,35.9542026 C23.6462545,35.6982026 23.4085403,35.4446961 23.1949299,35.3183584 C23.0411636,35.227761 22.870774,35.1795532 22.6970597,35.1729039 C22.535813,35.3250078 22.3429818,35.4546701 22.1750857,35.5810078" fill="#161616" transform="translate(156 104)"/><g transform="translate(156 104.37)"><mask id="b" fill="#fff"><use xlink:href="#a"/></mask><path d="M40.4563948,0.461132468 C40.0956675,0.461132468 39.7357714,0.493548052 39.3783688,0.525963636 L39.1606026,0.542587013 C38.3169662,0.616561039 37.4791481,0.691366234 36.6380052,0.795262338 C34.953226,1.00637922 33.3199792,1.31141818 31.7873039,1.70456104 C31.1348364,1.86996364 30.4466286,2.07775584 29.6187844,2.35702857 L29.4043429,2.42850909 C28.9206026,2.58809351 28.4335377,2.7534961 27.9630961,2.94798961 L26.0996156,3.72762597 L25.6316675,3.91547013 C25.284239,4.05510649 24.9368104,4.19474286 24.6060052,4.35682078 L23.9984208,4.64606753 C23.2229403,5.01926234 22.4499532,5.38996364 21.6836156,5.7856 L19.8134857,6.74975584 C19.5117714,6.90269091 19.2192,7.08139221 18.9307844,7.25676883 L18.6249143,7.44128831 C18.3040831,7.62663896 17.9857455,7.81198961 17.6740571,7.99983377 L17.5410701,8.07463896 C17.4438234,8.13032727 17.3457455,8.18185974 17.2584727,8.24336623 L16.4339532,8.80191169 L15.6086026,9.36378182 C14.8846545,9.85417143 14.1673558,10.3894442 13.4791481,10.9056 L12.8133818,11.3993143 C12.1675636,11.8764052 11.5308883,12.3701195 10.8950442,12.8638338 L10.4079792,13.2403532 C9.57681039,13.8828468 8.77140779,14.5843532 7.9950961,15.2634182 L7.60278442,15.6041974 C6.82647273,16.2824312 6.1124987,17.0030545 5.27468052,17.8732883 L4.83914805,18.3312623 C4.42356364,18.772613 4.00548571,19.2139636 3.56662857,19.6361974 C3.04382338,20.1398857 2.44953766,20.6560416 1.75468052,21.214587 C1.62834286,21.3018597 1.49868052,21.3899636 1.36901818,21.4739117 C1.23852468,21.5620156 1.10886234,21.6459636 0.982524675,21.7373922 C0.826264935,21.844613 0.68081039,21.9576519 0.537849351,22.0781714 C0.281018182,22.292613 0.167148052,22.5810286 0.0599272727,22.863626 C-0.0339948052,23.0971844 -0.0049038961,23.5518338 0.0599272727,23.7729247 C0.0923428571,23.8834701 0.131407792,23.9873662 0.177122078,24.0912623 C0.401537662,24.6298597 0.618472727,25.2141714 0.878628571,25.9771844 C1.10221299,26.6329766 1.32662857,27.2887688 1.52777143,27.9478857 C1.72891429,28.6136519 1.89182338,29.2727688 2.01816104,29.967626 C2.11873247,30.9251325 2.11540779,31.9483013 2.00486234,33.0163532 C1.91758961,33.4867948 1.78792727,34.1043532 1.56351169,34.6886649 C1.26512208,35.3569247 0.985849351,35.9030026 0.683303896,36.4091844 L0.546992208,36.6302753 L0.414005195,36.8538597 C0.267719481,37.0973922 0.16132987,37.3542234 0.0765506494,37.5711584 C-0.00157922078,37.7698078 -0.0115532468,38.0490805 0.0441350649,38.2892883 C0.0923428571,38.4804571 0.206212987,38.7273143 0.352498701,38.8478338 C0.507927273,38.9708468 0.64507013,39.0714182 0.82294026,39.1561974 C0.93681039,39.2110545 1.06065455,39.2567688 1.17701818,39.2991584 C1.99239481,39.6623792 2.73878442,40.1137039 3.46273247,40.5484052 L3.68382338,40.6822234 C3.95977143,40.8509506 4.23571948,41.0130286 4.52496623,41.1526649 C4.83332987,41.2989506 5.16745974,41.3995221 5.48912208,41.5000935 L5.58969351,41.5291844 C5.77753766,41.5873662 5.96288831,41.6297558 6.15738182,41.6588468 C6.14823896,41.7602494 6.15156364,41.8699636 6.15405714,41.9805091 C6.16070649,42.2498078 6.18397922,42.5199377 6.20642078,42.7859117 C6.22886234,43.0227948 6.24548571,43.2339117 6.25795325,43.4450286 L6.2646026,43.5522494 C6.28787532,44.0517818 6.30699221,44.5130805 6.2646026,44.9677299 L6.24548571,45.1888208 C6.08008312,46.1463273 5.85234286,47.0356779 5.56392727,48.0779636 C5.29712208,49.0296519 5.0112,50.1558857 4.89151169,51.3378078 L4.8457974,51.7367688 L4.82335584,51.9769766 C4.78761558,52.3019636 4.75852468,52.6103273 4.73275844,52.9253403 C4.70616104,53.2370286 4.69036883,53.5487169 4.67374545,53.8604052 L4.64132987,54.4480416 C4.55987532,55.7828987 4.50834286,56.8409766 4.48257662,57.7793662 C4.46927792,58.2597818 4.46262857,58.7468468 4.45597922,59.2272623 C4.45016104,59.6494961 4.46595325,60.0326649 4.4859013,60.4191584 L4.50501818,60.8571844 C4.54408312,61.7889247 4.63468052,62.7372883 4.72610909,63.6524052 L4.73857662,63.8020156 L4.75187532,63.9250286 L4.76517403,64.0388987 C5.02782338,66.6296519 5.38855065,68.7042494 5.89805714,70.5652364 C6.01192727,70.9675221 6.13826494,71.3639896 6.27125195,71.759626 C6.34938182,71.9873662 6.43997922,72.207626 6.53140779,72.4287169 L6.56964156,72.5259636 L6.73587532,72.9290805 C7.09577143,73.8284052 7.46647273,74.7177558 7.84631688,75.6071065 C7.85213506,75.5489247 7.84299221,75.496561 7.82636883,75.4516779 C8.0832,76.1590026 8.5179013,77.2212364 9.05068052,78.292613 C9.57016104,79.331574 10.0929662,80.2724571 10.6057974,81.0878338 C11.2615896,82.1691844 11.9364987,83.0685091 12.6670961,83.8473143 C13.2189922,84.4283013 13.8456935,84.9677299 14.3975896,85.4414961 L14.4690701,85.5030026 L15.0242909,85.9842494 C16.0956675,86.9093403 16.930161,87.5451844 17.7289143,88.0422234 C18.4761351,88.5159896 19.2748883,88.8733922 20.0470442,89.2174961 L20.5474078,89.4452364 L20.9596675,89.6364052 L21.0569143,89.6821195 C21.9204987,90.0810805 22.7649662,90.467574 23.6119273,90.792561 C23.8496416,90.8898078 24.0898494,90.9737558 24.3300571,91.0618597 L24.4954597,91.1200416 L24.5893818,91.1524571 L25.1288104,91.3477818 C25.560187,91.5098597 25.9957195,91.6719377 26.4403948,91.8049247 C27.5375377,92.1332364 28.6903688,92.1914182 29.8756156,92.2238338 C30.3950961,92.2404571 30.9112519,92.2504312 31.4274078,92.2562494 L31.5670442,92.259574 C32.2677195,92.259574 32.9467844,92.1847688 33.5826286,92.0393143 C34.0638753,91.9254442 34.5276675,91.7691844 35.0471481,91.5489247 C35.6672,91.2954182 36.2033039,90.9579636 36.6479792,90.659574 C37.3528104,90.1949506 38.0243948,89.6654961 38.6768623,89.1526649 L38.8198234,89.0421195 L39.3592519,88.6173922 L39.6119273,88.4187429 C39.9535377,88.1527688 40.2976416,87.8834701 40.6184727,87.5908987 C41.0116156,87.2276779 41.3748364,86.8478338 41.7131221,86.4904312 L41.8619013,86.3283532 C42.2749922,85.8803532 42.6606545,85.4647688 42.9889662,85.0259117 C43.2258494,84.7108987 43.4502649,84.3900675 43.6804987,84.0684052 L43.8168104,83.870587 L43.9074078,83.7367688 L44.9172779,82.324613 L45.2713558,81.8184312 L45.833226,81.0263273 C46.2712519,80.4062753 46.6768623,79.7405091 47.0891221,79.0523013 L47.4955636,78.3832104 C47.901174,77.7240935 48.265226,77.1264831 48.5893818,76.4806649 C48.7813818,76.0974961 48.9467844,75.7010286 49.1055377,75.3020675 C49.304187,74.831626 49.3690182,74.3894442 49.417226,74.0129247 C49.417226,73.8051325 49.3623688,73.6073143 49.2584727,73.428613 C49.1088623,73.1692883 48.8553558,72.9739636 48.5636156,72.8933403 C48.4530701,72.8634182 48.349174,72.847626 48.2552519,72.847626 C47.8654338,72.847626 47.4988883,73.0587429 47.2487065,73.4252883 L47.1606026,73.5524571 C47.0508883,73.7112104 46.9403429,73.8699636 46.8430961,74.0453403 C46.7973818,74.1267948 46.7516675,74.2107429 46.7067844,74.2988468 L46.6411221,74.4251844 L46.5048104,74.6820156 C46.2912,75.0942753 46.0534857,75.496561 45.8066286,75.8963532 C45.4758234,76.431626 45.1317195,76.9644052 44.7876156,77.4938597 L44.573174,77.8279896 L44.1800312,78.4322494 C44.0703169,78.6043013 43.9564468,78.7763532 43.8392519,78.9484052 C43.8816416,78.8087688 43.8716675,78.6591584 43.8592,78.5095481 C43.7910442,77.7373922 43.6937974,76.8247688 43.4951481,75.9088208 L43.3654857,75.3120416 C43.2615896,74.8216519 43.0637714,74.3503792 42.8717714,73.896561 C42.6124468,73.2889766 42.3489662,72.8409766 42.1021091,72.4287169 L41.9599792,72.1885091 C41.7812779,71.8834701 41.5959273,71.5809247 41.4080831,71.2792104 C41.0473558,70.6948987 40.5993558,70.2144831 40.1704727,69.7822753 C39.7615377,69.3700156 39.3035636,68.9868468 38.862213,68.6169766 L38.5696416,68.3667948 C38.3560312,68.1847688 38.1349403,68.0068987 37.9138494,67.8281974 L37.6969143,67.6528208 C37.4176416,67.4284052 37.1283948,67.2114701 36.8366545,67.0036779 C36.3329662,66.639626 35.7519792,66.3703273 35.2516156,66.1592104 C34.2583688,65.7270026 33.3166545,65.4219636 32.3782649,65.2274701 C31.5961351,65.0653922 30.8007065,65.0263273 30.2712519,65.0097039 C30.148239,65.0097039 30.0534857,65.0230026 29.9495896,65.0554182 C29.8556675,64.9415481 29.7060571,64.8509506 29.5406545,64.8052364 C29.4533818,64.7794701 29.3586286,64.7628468 29.2680312,64.7628468 C28.8300052,64.7628468 28.440187,65.0620675 28.2814338,65.5192104 C28.1675636,65.8475221 28.0536935,66.1725091 27.9364987,66.4999896 C27.7553039,66.9970286 27.6804987,67.4059636 27.7029403,67.7434182 C27.7228883,68.1008208 27.849226,68.3992104 28.0761351,68.6269506 C28.3429403,68.8862753 28.7261091,69.0067948 29.0278234,69.0816 C29.2322909,69.1331325 29.4434078,69.1655481 29.6478753,69.194639 L29.9886545,69.2470026 C30.5862649,69.347574 31.1572779,69.4838857 31.5894857,69.5877818 C32.1580052,69.7274182 32.7157195,69.8637299 33.2385247,70.0681974 C34.3232,70.5519377 35.2192,71.0589506 35.982213,71.6233143 C36.5440831,72.084613 37.0377974,72.5841455 37.4949403,73.1559896 C38.0019532,73.8408727 38.5247584,74.5914182 38.9112519,75.4317299 C39.1930182,76.1656519 39.4008104,76.9511065 39.5404468,77.8279896 C39.625226,78.6367169 39.6352,79.3897558 39.5703688,80.1328208 C39.5404468,80.4968727 39.5080312,80.8600935 39.4722909,81.2241455 L39.4465247,81.4419117 L39.3717195,82.0744312 L39.2944208,82.0486649 L38.9760831,82.0129247 L38.8106805,81.9971325 C38.3460571,81.9323013 37.8814338,81.8799377 37.4143169,81.8284052 C37.1317195,81.7984831 36.8457974,81.7660675 36.5632,81.7303273 C35.7320312,81.6014961 34.8584727,81.443574 34.0273039,81.1593143 C33.8951481,81.187574 33.7629922,81.2017039 33.6316675,81.2050286 L33.6316675,81.2075221 L33.6158753,81.2075221 C33.6183688,81.2050286 33.6250182,81.2050286 33.6283429,81.2050286 L33.5992519,81.2050286 C32.5245506,81.3413403 31.4465247,81.438587 30.3618494,81.4834701 C29.4949403,81.5192104 28.6188883,81.5848727 27.7519792,81.5192104 C26.9108364,81.4577039 26.0214857,81.3770805 25.2160831,81.103626 C25.0307325,81.0412883 24.8453818,80.9772883 24.6625247,80.9083013 C24.6450701,80.9174442 24.6267844,80.926587 24.6093299,80.9348987 C24.2028883,81.0778597 23.8105766,81.1850805 23.4398753,81.246587 C23.3268364,81.256561 23.2096416,81.2632104 23.0924468,81.2632104 C22.7225766,81.2632104 22.3427325,81.2174961 21.9728623,81.1751065 L21.5896935,81.123574 L21.4600312,81.1102753 L21.3586286,81.1011325 C21.0768623,81.0712104 20.7385766,81.0329766 20.4144208,81.0329766 C20.0603429,81.0329766 19.6996156,81.0712104 19.2424727,81.1593143 L19.2649143,81.0554182 C19.268239,80.0646649 19.2715636,79.0456519 19.352187,78.0033662 C19.4560831,77.2952104 19.5990442,76.5654442 19.8425766,75.4907429 C20.0279273,74.6786909 20.3495896,73.9123532 20.6579532,73.1717818 L20.7585247,72.9290805 L20.9172779,72.5650286 L20.9629922,72.4644571 C21.0278234,72.3115221 21.0959792,72.1594182 21.1674597,72.0031584 C21.2846545,71.759626 21.4176416,71.5194182 21.5639273,71.2958338 C21.641226,71.178639 21.7293299,71.0647688 21.8166026,70.9517299 L21.9728623,70.7564052 L21.8074597,70.8893922 L22.0052779,70.7048727 C22.2163948,70.4480416 22.4275117,70.1945351 22.6510961,69.9485091 C22.9436675,69.6235221 23.2877714,69.3376 23.5894857,69.0940675 C23.8363429,68.9028987 24.0574338,68.7532883 24.2810182,68.6269506 C24.5769143,68.5130805 24.8719792,68.4224831 25.161226,68.3576519 C25.2651221,68.3343792 25.3748364,68.3152623 25.4853818,68.2953143 C25.732239,68.2504312 25.9175896,68.2113662 26.1054338,68.1498597 C26.2359273,68.1074701 26.3655896,68.0551065 26.4919273,68.003574 L26.5800312,67.9678338 L26.8750961,67.8439896 C27.0928623,67.7500675 27.2482909,67.6561455 27.3912519,67.5264831 C27.5566545,67.3835221 27.5957195,67.1133922 27.6090182,66.964613 C27.6156675,66.831626 27.6023688,66.6820156 27.5732779,66.5257558 C27.5184208,66.2273662 27.4045506,65.9381195 27.2449662,65.694587 C27.2391481,65.5034182 27.106161,65.2731844 26.8717714,65.2241455 C26.3880312,65.1268987 25.998213,65.0811844 25.6482909,65.0811844 C25.476239,65.0811844 25.304187,65.0911584 25.1288104,65.1136 C24.6508883,65.1784312 24.2028883,65.3280416 23.6676156,65.5167169 C23.4855896,65.5815481 23.3035636,65.6463792 23.1248623,65.7145351 L23.0184727,65.7569247 L22.9370182,65.7860156 C22.8198234,65.8308987 22.7549922,65.8541714 22.6968104,65.886587 C22.5538494,65.9447688 22.4275117,66.0228987 22.3003429,66.1010286 C21.4143169,66.6496 20.6704208,67.2147948 19.9955117,67.7434182 C19.4793558,68.1465351 19.0637714,68.5654442 18.7254857,69.0159377 C18.4495377,69.3932883 18.2060052,69.8022234 17.9633039,70.2244571 C17.6865247,70.6982234 17.5277714,71.1819636 17.3914597,71.6075221 L17.3299532,71.7920416 L17.2418494,72.0713143 C17.0864208,72.5193143 16.9243429,72.9614961 16.7614338,73.4028468 C16.4563948,74.2464831 16.3034597,75.1624312 16.1704727,75.9711584 L16.1513558,76.0941714 C16.0989922,76.4091844 16.0408104,76.7241974 15.9826286,77.0358857 L15.950213,77.214587 L15.9144727,77.4315221 C15.8429922,77.8471065 15.768187,78.2601974 15.7124987,78.6849247 C15.586161,79.6041974 15.502213,80.3796779 15.502213,81.1717818 C15.502213,81.5549506 15.5047065,81.9347948 15.5146805,82.3179636 L15.5213299,82.5847688 L15.5313039,82.8507429 C15.4240831,82.7044571 15.2844468,82.5714701 15.1448104,82.4351584 L14.7973818,82.1010286 C14.4790442,81.7893403 14.2030961,81.4419117 13.9371221,81.1069506 C13.0826805,79.9549506 12.2747844,78.6043013 11.4594078,76.9835221 C10.8293818,75.727626 10.2683429,74.4127169 9.72558961,73.1426909 L9.64829091,72.9639896 L9.52112208,72.6589506 L9.31665455,72.1361455 L9.2352,71.9350026 C9.11218701,71.636613 8.9924987,71.3373922 8.87197922,71.0356779 C8.76143377,70.7497558 8.67416104,70.4546909 8.58605714,70.1587948 L8.54699221,70.0199896 C8.44642078,69.6750545 8.34584935,69.3309506 8.2619013,68.9810286 C7.96268052,67.7467429 7.71914805,66.4451325 7.49888831,64.8866909 C7.27114805,62.9874701 7.03426494,60.7823792 7.04091429,58.6720416 C7.04091429,57.7012364 7.07332987,56.6622753 7.13151169,55.5809247 L7.17722597,54.6624831 C7.21961558,53.8279896 7.25868052,53.0749506 7.33265455,52.3310545 L7.39499221,51.6594701 L7.4564987,51.0394182 C7.48891429,50.8216519 7.52797922,50.6038857 7.57286234,50.3861195 C7.4564987,49.5491325 7.60610909,48.6365091 7.76153766,47.8568727 L7.86543377,47.3506909 C7.93026494,47.016561 7.9950961,46.6782753 8.07322597,46.3474701 C8.13140779,46.0814961 8.19374545,45.8146909 8.25525195,45.5487169 L8.26771948,45.4414961 C8.37161558,44.4449247 8.47883636,43.4159377 8.72236883,42.4384831 C8.71322597,41.7627429 8.71571948,41.0878338 8.72236883,40.4154182 L8.73234286,39.3964052 C8.73899221,39.1237818 8.75478442,38.8511584 8.77140779,38.5777039 L8.78138182,38.4123013 C8.80714805,37.8703792 8.8753039,37.3218078 8.94345974,36.7823792 C8.94013506,36.5679377 8.9659013,36.3543273 9.02491429,36.1398857 C9.03073247,36.0941714 9.04070649,36.0484571 9.05400519,36.0068987 C9.13795325,35.4516779 9.22938182,34.8964571 9.3233039,34.3412364 C9.45629091,33.5491325 9.57016104,32.7595221 9.67738182,31.9640935 L9.62169351,32.1070545 L9.78127792,31.2792104 L9.8619013,30.7796779 C9.93670649,30.3699117 10.0439273,29.9543273 10.1511481,29.5453922 C10.3589403,28.766587 10.6157714,27.8539636 10.9565506,26.9737558 C11.1901091,26.3769766 11.4336416,25.7860156 11.677174,25.1983792 L12.0146286,24.3672104 C12.1775377,23.9674182 12.3362909,23.5651325 12.4917195,23.1620156 C12.6670961,22.7140156 12.8424727,22.2693403 13.0244987,21.8246649 L13.0635636,21.7307429 L13.1150961,21.5977558 C13.1450182,21.5944312 13.1807584,21.5778078 13.213174,21.5620156 C13.8490182,21.2536519 14.4956675,20.9710545 15.1414857,20.6917818 L15.3592519,20.5978597 C16.1480312,20.3219117 16.9983169,20.0260156 17.8752,19.7600416 L18.1021091,19.6918857 C18.3788883,19.6104312 18.6573299,19.5289766 18.9399273,19.4516779 L19.3979013,19.3245091 C19.7129143,19.2339117 20.0279273,19.1458078 20.3462649,19.0718338 L20.5540571,19.0261195 C21.326213,18.8507429 22.1025247,18.6820156 22.8879792,18.5390545 C23.7515636,18.3861195 24.6151481,18.2531325 25.4853818,18.1267948 C26.4694857,18.0228987 27.4527584,17.9289766 28.4435117,17.8541714 C29.3785766,17.7760416 30.3169662,17.7403013 31.3559273,17.7012364 L31.4498494,17.6979117 C31.7873039,17.6854442 32.1255896,17.6787948 32.4663688,17.6787948 C32.9858494,17.6787948 33.5119792,17.6912623 34.0339532,17.704561 L34.2907844,17.7145351 L34.5276675,17.7211844 C35.3721351,17.743626 36.2423688,17.8051325 37.1150961,17.9123532 C38.3003429,18.1010286 39.453174,18.3736519 40.6251221,18.6562494 C41.9566545,18.9837299 43.0895377,19.3311584 44.0827844,19.7143273 C44.937226,20.116613 45.641226,20.4839896 46.3136416,20.9610805 C46.4823688,21.1140156 46.6444468,21.2727688 46.7940571,21.4448208 C46.8331221,21.4996779 46.8688623,21.5620156 46.9046026,21.6393143 C47.177226,22.4804571 47.3068883,23.3964052 47.4240831,24.207626 C47.502213,24.8343273 47.5670442,25.3928727 47.6086026,25.9547429 C47.6352,26.3412364 47.6476675,26.7277299 47.6609662,27.1167169 C47.6676156,27.3602494 47.6742649,27.5971325 47.6867325,27.8315221 C47.748239,29.1173403 47.8296935,30.4023273 47.9202909,31.6848208 C47.9593558,32.2500156 47.9917714,32.8118857 48.0216935,33.3770805 C48.0574338,34.0453403 48.0956675,34.7177558 48.1513558,35.3868468 C48.2386286,36.4224831 48.3915636,37.4739117 48.5245506,38.4023273 L48.6608623,39.3606649 L48.7256935,39.8568727 L48.8038234,40.4253922 L48.8229403,40.5841455 C48.9534338,41.5940156 49.0764468,42.5714701 49.245174,43.5098597 L49.0797714,43.5231584 C49.0963948,44.0102234 49.0988883,44.5064312 49.0731221,45.0159377 C49.245174,44.9934961 49.4047584,44.9644052 49.5668364,44.9319896 C49.752187,45.8180156 50.0015377,46.7472623 50.3007584,47.6848208 C50.5085506,48.3214961 50.7487584,48.9224312 51.0147325,49.4710026 C51.1252779,49.6887688 51.2449662,49.9057039 51.3787844,50.1101714 C51.8392519,50.8283013 52.4950442,51.240561 53.1774338,51.240561 C53.8722909,51.2172883 54.4009143,50.8116779 54.9112519,50.4218597 L55.0276156,50.334587 C55.1057455,50.2764052 55.1805506,50.2173922 55.2553558,50.1658597 L55.4432,50.0295481 L55.5146805,49.9805091 C55.8197195,49.7627429 56.1314078,49.5391584 56.4696935,49.3538078 C56.5503169,49.3114182 56.6317714,49.2698597 56.713226,49.2307948 C56.9434597,49.1460156 57.1670442,49.0712104 57.4080831,49.0230026 L57.4853818,49.0421195 C57.5020052,49.0712104 57.5310961,49.1011325 57.5568623,49.1302234 L57.6574338,49.2790026 L57.6898494,49.3828987 L57.7388883,49.5391584 C57.5443948,50.2730805 57.5535377,50.8931325 57.7713039,51.4350545 C57.8361351,51.6652883 57.9533299,51.8672623 58.1253818,52.0484571 C58.3913558,54.1887169 58.4113039,56.2533403 58.180239,58.1758338 C58.0763429,58.8216519 57.9333818,59.5813403 57.6574338,60.3052883 C57.5119792,60.6036779 57.3366026,60.8929247 57.1288104,61.194639 C56.846213,61.5296 56.5079273,61.8570805 56.0923429,62.1887169 C55.7806545,62.415626 55.300239,62.7530805 54.7649662,63.0198857 C54.6544208,63.0356779 54.6120312,63.0356779 54.5696416,63.0356779 L54.4823688,62.9193143 C54.2970182,62.691574 54.0177455,62.5619117 53.6935896,62.5619117 C53.4758234,62.5619117 53.2680312,62.6167688 53.1026286,62.7173403 C52.8391481,62.8669506 52.6513039,63.1237818 52.5764987,63.4254961 C52.5050182,63.720561 52.5507325,64.0098078 52.7028364,64.2433662 C52.8133818,64.4220675 52.9305766,64.6074182 53.070213,64.7694961 C53.1641351,64.8800416 53.3494857,65.0745351 53.5148883,65.1526649 C53.7517714,65.2598857 53.9371221,65.3413403 54.1515636,65.3961974 C54.3294338,65.4452364 54.5438753,65.4676779 54.8106805,65.4676779 C55.4855896,65.4510545 56.0956675,65.1850805 56.6060052,64.9257558 C57.1903169,64.6298597 57.7164468,64.2990545 58.2126545,63.9158857 C58.4370701,63.7438338 58.6515117,63.5584831 58.8626286,63.370639 C59.0795636,63.1719896 59.2582649,62.9351065 59.4236675,62.7115221 L59.5184208,62.5910026 C59.9074078,62.0681974 60.1509403,61.4481455 60.3554078,60.8571844 C60.5573818,60.2886649 60.6288623,59.6428468 60.6803948,59.1266909 L60.7128104,58.8798338 C60.7709922,58.3603532 60.8034078,57.8084571 60.8133818,57.1493403 C60.8300052,55.8477299 60.7743169,54.6009766 60.6546286,53.4414961 C60.5897974,52.8056519 60.5183169,52.1689766 60.4235636,51.5289766 C60.489226,51.3668987 60.5149922,51.2048208 60.4983688,51.0651844 C60.4859013,51.0261195 60.4859013,50.9903792 60.4825766,50.9513143 C60.5149922,50.8150026 60.5598753,50.6687169 60.6055896,50.5257558 L60.6413299,50.4093922 C60.6670961,50.3312623 60.6936935,50.2531325 60.7128104,50.1758338 C60.7809662,49.9223273 60.8366545,49.6688208 60.888187,49.4153143 C61.0112,48.7628468 61.1383688,48.0679896 61.1865766,47.3573403 C61.2489143,46.3341714 61.2289662,45.3151584 61.2098494,44.3277299 L61.2032,43.8730805 L61.1965506,43.6071065 C61.1832519,42.772613 61.1674597,42.0029506 61.1250701,41.2499117 C61.2746805,40.8600935 61.4267844,40.4677818 61.5606026,40.0713143 C61.6254338,39.8768208 61.6935896,39.6848208 61.7617455,39.4903273 C61.8847584,39.1329247 62.0086026,38.7763532 62.1124987,38.4189506 L62.232187,38.0100156 L62.6353039,36.6336 C62.7416935,36.2728727 62.8198234,35.9088208 62.9012779,35.5456 L63.0118234,35.0452364 C63.2586805,34.0062753 63.4432,32.9348987 63.5703688,31.8601974 L63.6219013,31.4155221 C63.6709403,31.0290286 63.7191481,30.6400416 63.7457455,30.2535481 L63.778161,29.7274182 L63.8139013,29.194639 L63.8296935,28.9810286 C63.8429922,28.8114701 63.8554597,28.6394182 63.8587844,28.4706909 L63.8687584,27.5231584 L63.8820571,26.5714701 C63.8878753,26.0162494 63.8521351,25.4610286 63.8139013,24.8933403 C63.7548883,24.0197818 63.6476675,23.1561974 63.4855896,22.3283532 C63.3393039,21.5686649 63.1057455,20.8214442 62.8813299,20.0974961 L62.7749403,19.7633662 C62.6444468,19.3411325 62.4890182,18.9255481 62.3327584,18.5132883 L62.242161,18.2764052 C61.7417974,16.9481974 61.1450182,15.4121974 60.3687065,14.0000416 C59.7677714,12.9095481 59.0114078,11.9221195 58.3522909,11.1042494 L58.0863169,10.7792623 C57.8427844,10.4775481 57.5992519,10.1758338 57.3424208,9.87993766 L57.112187,9.61396364 C56.4630442,8.86341818 55.7906286,8.08793766 55.0866286,7.36731429 C54.6643948,6.93178182 54.232187,6.50954805 53.7908364,6.09396364 C53.4076675,5.73406753 52.9787844,5.40908052 52.5607065,5.09739221 L52.3620571,4.94778182 C51.6023688,4.37344416 50.7645506,3.79578182 49.6416416,3.07515844 C48.6575377,2.43848312 47.6476675,1.92897662 46.6411221,1.55495065 L46.3684987,1.45105455 C46.1706805,1.37708052 45.9728623,1.30227532 45.7717195,1.23411948 C45.1450182,1.01635325 44.4593039,0.847625974 43.544187,0.685548052 C42.7354597,0.548405195 42.1220571,0.483574026 41.5535377,0.474431169 C41.2160831,0.467781818 40.8786286,0.464457143 40.541174,0.461132468 L40.4563948,0.461132468 Z" fill="#161616" mask="url(#b)"/></g><path d="M33.628426 81.5712416C33.6317506 81.5712416 33.6317506 81.5745662 33.6317506 81.5745662 33.756426 81.5562805 33.8819325 81.538826 34.007439 81.5222026 33.8819325 81.5379948 33.756426 81.5554494 33.628426 81.5712416M54.1174857 57.6236052C54.1000312 57.6393974 54.0817455 57.6535273 54.0626286 57.6659948 54.0809143 57.6518649 54.0992 57.6377351 54.1174857 57.6236052M54.3161351 55.5822545C54.3136416 55.6022026 54.3111481 55.6229818 54.3086545 55.6429299 54.3103169 55.6229818 54.3136416 55.6030338 54.3161351 55.5822545M54.0850701 54.9239688C54.0667844 54.9314494 54.050161 54.9380987 54.0327065 54.9447481 54.050161 54.9380987 54.0676156 54.9306182 54.0850701 54.9239688M54.2438234 54.8907221C54.2571221 54.9164883 54.2687584 54.9422545 54.276239 54.9713455 54.2662649 54.9455792 54.2562909 54.9173195 54.2438234 54.8907221M54.1366026 54.8350338C54.1632 54.8425143 54.1873039 54.8533195 54.2114078 54.8649558 54.2105766 54.8649558 54.2089143 54.8641247 54.2080831 54.8641247 54.1856416 54.8541506 54.1615377 54.8433455 54.1366026 54.8350338M54.1399273 54.0454234C54.0626286 54.0487481 53.9878234 54.0653714 53.9196675 54.097787 53.7185247 54.1659429 53.533174 54.269839 53.3544727 54.3770597 53.1599792 54.4900987 53.0884987 54.7502545 53.2048623 54.9480727 53.3187325 55.1433974 53.5788883 55.2115532 53.7767065 55.0976831 53.8880831 55.0295273 53.9986286 54.9705143 54.1158234 54.9115013 54.1515636 54.8973714 54.1881351 54.8849039 54.2247065 54.8740987L54.2313558 54.8749299 54.237174 54.8790857C54.2380052 54.8790857 54.2380052 54.8799169 54.2380052 54.8807481 54.276239 54.978826 54.3094857 55.0760727 54.3344208 55.175813 54.3377455 55.3046442 54.3319273 55.4293195 54.3186286 55.5556571 54.2712519 55.9113974 54.2263688 56.2712935 54.1856416 56.6270338 54.1523948 56.9071377 54.158213 57.1880727 54.1341091 57.4665143 54.1291221 57.4980987 54.1208104 57.5280208 54.1116675 57.558774 54.0933818 57.5970078 54.0734338 57.6327481 54.050161 57.6676571L54.0393558 57.6801247C54.020239 57.691761 53.9994597 57.7017351 53.9778494 57.7108779 53.7700571 57.814774 53.7118753 58.1040208 53.8249143 58.2960208 53.8806026 58.3899429 53.9745247 58.4614234 54.0817455 58.4905143 54.2022649 58.5262545 54.2995117 58.4971636 54.4100571 58.4481247 54.6627325 58.3375792 54.8514078 58.1040208 54.9295377 57.8413714 54.9943688 57.6335792 55.0035117 57.4224623 55.0068364 57.2080208 55.0134857 56.9154494 55.0267844 56.6270338 55.0625247 56.3344623 55.0783169 56.1690597 55.0982649 56.0036571 55.1207065 55.8349299 55.1373299 55.6919688 55.1597714 55.5456831 55.1730701 55.3993974 55.192187 55.175813 55.1531221 54.9613714 55.0816416 54.7502545 55.0334338 54.6139429 54.9810701 54.4842805 54.8962909 54.3670857 54.8580571 54.3055792 54.8090182 54.2565403 54.744187 54.2174753 54.7184208 54.1983584 54.6884987 54.1784104 54.6594078 54.1559688 54.5945766 54.1268779 54.5297455 54.097787 54.4615896 54.0686961 54.3901091 54.0520727 54.3186286 54.0396052 54.2471481 54.0329558 54.2114078 54.0362805 54.1756675 54.0420987 54.1399273 54.0454234M27.0439896 78.0140052C27.0564571 78.0156675 27.0689247 78.0173299 27.080561 78.0189922 27.0689247 78.0173299 27.0564571 78.0156675 27.0439896 78.0140052M26.9409247 78.0032C26.9641974 78.0048623 26.9874701 78.0073558 27.0107429 78.0098494 26.9883013 78.008187 26.9641974 78.0056935 26.9409247 78.0032M26.1812364 77.7929143C26.1837299 77.7945766 26.1862234 77.796239 26.1887169 77.7987325 26.1862234 77.796239 26.1837299 77.7945766 26.1812364 77.7929143M26.1230545 77.7463688C26.1405091 77.7596675 26.1579636 77.7746286 26.1762494 77.7887584 26.1579636 77.7754597 26.1405091 77.7613299 26.1230545 77.7463688M31.3893403 77.3241351C31.343626 77.3341091 31.2987429 77.3474078 31.2563532 77.3632 31.1491325 77.3956156 31.0452364 77.4280312 30.9380156 77.4579532 30.7077818 77.5294338 30.4767169 77.5942649 30.2464831 77.6624208 29.7361455 77.806213 29.2083532 77.9017974 28.6855481 77.9782649 28.1286649 78.0439273 27.5767688 78.0630442 27.0198857 78.0106805 26.7622234 77.9749403 26.5087169 77.9308883 26.2651844 77.8452779 26.2344312 77.8286545 26.2061714 77.8103688 26.1779117 77.7904208 26.1371844 77.7580052 26.0972883 77.7230961 26.0582234 77.688187 25.8471065 77.4995117 25.5354182 77.4770701 25.3243013 77.688187 25.1331325 77.8793558 25.1131844 78.2367584 25.3243013 78.4254338 25.4672623 78.5484468 25.6135481 78.6722909 25.7789506 78.766213 25.8604052 78.8019532 25.9410286 78.8343688 26.0224831 78.8667844 26.1430026 78.9183169 26.2759896 78.9415896 26.4023273 78.9673558 26.8702753 79.0679273 27.3473662 79.1103169 27.8211325 79.1261091 28.4993662 79.1493818 29.1751065 79.0521351 29.8475221 78.9607065 30.2273662 78.9124987 30.600561 78.8277195 30.9737558 78.7404468 31.1358338 78.7047065 31.2987429 78.6623169 31.4541714 78.6132779 31.7500675 78.5226805 32.0617558 78.3896935 32.1457039 78.0580571 32.2171844 77.7629922 32.0517818 77.3897974 31.7301195 77.3274597 31.6561455 77.3133299 31.6004571 77.304187 31.5431065 77.304187 31.496561 77.304187 31.4483532 77.3100052 31.3893403 77.3241351" fill="#161616" transform="translate(156 104)"/><path d="M26.3873662 78.5603325C26.3399896 78.7448519 26.287626 78.9268779 26.223626 79.1064104 26.1297039 79.3092156 26.0233143 79.5003844 25.8944831 79.6849039 25.6958338 79.9226182 25.4838857 80.1453714 25.2436779 80.3406961 25.0342234 80.4936312 24.8222753 80.6407481 24.6045091 80.7812156 24.4125091 80.9058909 24.2030545 81.0056312 23.9977558 81.1062026 23.6120935 81.2608 23.220613 81.3888 22.8191584 81.4918649 22.5922494 81.5508779 22.3678338 81.6057351 22.1467429 81.6738909 21.8874182 81.7586701 21.640561 81.8717091 21.3937039 81.9922286 21.2349506 82.0703584 21.1377039 82.2681766 21.1377039 82.4402286 21.1377039 82.6513455 21.2931325 82.9073455 21.5208727 82.9430857 21.7934961 82.9854753 22.0461714 82.998774 22.3221195 82.9663584 22.6113662 82.9372675 22.900613 82.8882286 23.1890286 82.8366961 23.6993662 82.7452675 24.2121974 82.5865143 24.682639 82.3654234 25.2087688 82.1152416 25.6991584 81.8201766 26.1629506 81.4660987 26.4364052 81.2583065 26.6699636 81.0313974 26.9001974 80.7845403 27.3739636 80.2750338 27.6632104 79.6250597 27.8227948 78.9568 27.9167169 78.5603325 27.7022753 78.1513974 27.3033143 78.0408519 27.2401455 78.0233974 27.1753143 78.0150857 27.1113143 78.0150857 26.7854961 78.0150857 26.4663273 78.2320208 26.3873662 78.5603325M29.9032104 78.2596156C29.7860156 78.3768104 29.7569247 78.4998234 29.7378078 78.6560831 29.7145351 78.8505766 29.7053922 79.0193039 29.7378078 79.2137974 29.7702234 79.4190961 29.8250805 79.6102649 29.8998857 79.8014338 29.9746909 79.9967584 30.0619636 80.1754597 30.1758338 80.3475117 30.2897039 80.516239 30.4260156 80.6749922 30.5590026 80.8279273 30.9812364 81.3083429 31.555574 81.6009143 32.1207688 81.8668883 32.5496519 82.0647065 32.9743792 82.269174 33.4132364 82.441226 33.8870026 82.6299013 34.3965091 82.7404468 34.8968727 82.8376935 35.3058078 82.9183169 35.7180675 82.9706805 36.1336519 83.0030961 36.552561 83.0388364 36.9714701 83.0197195 37.3870545 82.9573818 37.6763013 82.9158234 37.9522494 82.8667844 38.2340156 82.776187 38.7277299 82.6132779 39.1690805 82.3306805 39.604613 82.0514078 39.7666909 81.9475117 39.9229506 81.8244987 40.0659117 81.698161 40.2213403 81.5585247 40.3385351 81.3897974 40.4648727 81.2268883 40.5820675 81.0747844 40.5554701 80.8212779 40.4648727 80.6683429 40.3418597 80.4580571 40.0750545 80.3408623 39.8381714 80.4123429 39.5755221 80.4962909 39.3353143 80.6134857 39.0917818 80.7398234 38.8823273 80.8487065 38.6628987 80.9376416 38.4459636 81.033226 38.1251325 81.1570701 37.8018078 81.2543169 37.4635221 81.3124987 37.0412883 81.3548883 36.6240416 81.3906286 36.1984831 81.3632 35.9441455 81.3465766 35.6923013 81.3241351 35.4387948 81.294213 34.7721974 81.186161 34.1164052 81.0506805 33.4780675 80.8212779 33.0200935 80.6533818 32.559626 80.4829922 32.1058078 80.2993039 31.8847169 80.1970701 31.6744312 80.0765506 31.4724571 79.9369143 31.3319896 79.8213818 31.2023273 79.6983688 31.0851325 79.5603948 31.028613 79.4747844 30.979574 79.3875117 30.9346909 79.2969143 30.895626 79.1905247 30.8632104 79.0849662 30.8382753 78.9752519 30.8349506 78.8680312 30.8449247 78.7649662 30.8573922 78.6560831 30.8898078 78.3535377 30.575626 78.0975377 30.2963532 78.0975377 30.1500675 78.0975377 30.0071065 78.1557195 29.9032104 78.2596156" fill="#161616" transform="translate(156 104)"/><path d="M39.5659636 80.9905039C39.5717818 81.0195948 39.5751065 81.0478545 39.5767688 81.0761143 39.5767688 81.0769455 39.5767688 81.0769455 39.5767688 81.0769455 39.572613 81.0486857 39.5692883 81.020426 39.5659636 80.9905039M28.9328208 79.0946078C28.9228468 79.1087377 28.9120416 79.1228675 28.9004052 79.1369974 28.9120416 79.1220364 28.9220156 79.1087377 28.9328208 79.0946078M28.3742753 78.5651532C27.8855481 78.6964779 27.4034701 78.9799065 27.0585351 79.3605818 26.7584831 79.420426 26.4634182 79.5002182 26.1799896 79.607439 25.8516779 79.7304519 25.5433143 79.8900364 25.3031065 80.149361 25.0271584 80.4485818 24.9099636 80.8766338 25.0205091 81.2697766 25.0728727 81.4609455 25.182587 81.6305039 25.3321974 81.7601662 25.4942753 81.9031273 25.640561 81.9679584 25.8383792 82.0427636 25.9655481 82.0876468 26.1766649 82.0909714 26.3187948 82.0843221 26.4542753 82.0793351 26.5914182 82.0552312 26.7260675 82.0319584 26.8540675 82.0153351 26.9812364 81.9978805 27.1084052 81.980426 27.0269506 81.9904 26.9454961 82.0036987 26.8615481 82.0128416 27.0493922 81.9887377 27.2380675 81.9629714 27.4267429 81.9355429 27.6345351 82.1217247 27.8689247 82.2804779 28.111626 82.4159584 28.3410286 82.5456208 28.5887169 82.6478545 28.8447169 82.7318026 28.9494442 83.2571013 29.4198857 83.6718545 29.9717818 83.6660364 30.3940156 83.659387 30.8062753 83.6045299 31.2251844 83.5388675 31.3581714 83.5197506 31.4878338 83.4873351 31.6208208 83.4582442 31.7779117 83.4208416 31.9549506 83.3643221 32.1128727 83.2945039 32.6531325 83.3418805 33.1942234 83.3701403 33.7344831 83.383439 34.7119377 83.4058805 35.6893922 83.4058805 36.6668468 83.3510234 37.2802494 83.3152831 37.8969766 83.2471273 38.5012364 83.1266078 38.7871584 83.068426 39.0656 82.9811532 39.3324052 82.8639584 39.6407688 82.7309714 39.9000935 82.5522701 40.1469506 82.3245299 40.3613922 82.1267117 40.5400935 81.8831792 40.6664312 81.6238545 40.7960935 81.3537247 40.8193662 81.0686338 40.7379117 80.779387 40.650639 80.464374 40.3123532 80.2698805 39.9948468 80.3571532 39.6839896 80.4435948 39.4903273 80.7777247 39.5692883 81.089413 39.5568208 81.1101922 39.5435221 81.1309714 39.5302234 81.1517506 39.4662234 81.2224 39.3997299 81.2864 39.3274182 81.3479065 39.2501195 81.4002701 39.1694961 81.4468156 39.0872104 81.4908675 38.7904831 81.5997506 38.4871065 81.6546078 38.174587 81.7019844 37.4996779 81.783439 36.8172883 81.8108675 36.1407169 81.8407896 35.4973922 81.867387 34.8582234 81.8964779 34.2157299 81.9064519 33.8516779 81.9131013 33.4884571 81.9172571 33.1252364 81.916426 33.0911584 81.3661922 32.6830545 80.9539325 32.1793662 80.7760623 31.9474701 80.6921143 31.7213922 80.6089974 31.4894961 80.5383481 31.4662234 80.4992831 31.4421195 80.4618805 31.4163532 80.4253091 31.2376519 80.1693091 31.0107429 79.9224519 30.7447688 79.7570494 30.6117818 79.6739325 30.4704831 79.6024519 30.3250286 79.5409455 30.3350026 79.2766338 30.2452364 78.9965299 30.056561 78.8219844 29.9551584 78.7272312 29.854587 78.6466078 29.731574 78.5842701 29.5694961 78.5003221 29.4132364 78.4870234 29.2345351 78.4679065 29.1821714 78.4620883 29.1281455 78.460426 29.0741195 78.460426 28.840561 78.460426 28.5986909 78.5069714 28.3742753 78.5651532M35.7598961 40.1971117L35.7000519 40.2045922 35.7598961 40.1971117zM36.6941299 38.3211636C36.2103896 38.337787 35.7258182 38.4026182 35.2520519 38.4898909 34.3527273 38.6561247 33.5024416 38.9802805 32.6745974 39.3568 32.2423896 39.5521247 31.8301299 39.7690597 31.4245195 40.0125922 31.038026 40.2494753 30.7005714 40.5611636 30.3498182 40.8470857 30.1511688 41.0066701 29.96 41.1687481 29.777974 41.3441247 29.5252987 41.5909818 29.5311169 42.0132156 29.777974 42.2567481 30.0314805 42.5127481 30.4337662 42.4969558 30.6905974 42.2567481 30.7944935 42.1595013 30.9042078 42.0672416 31.0139221 41.9766442 31.3613506 41.7306182 31.7079481 41.4945662 32.0927792 41.3050597 32.6878961 41.0631896 33.2963117 40.8620468 33.9014026 40.6492675 34.5397403 40.4273455 35.1963636 40.2926961 35.8621299 40.183813 36.1164675 40.1522286 36.3716364 40.1239688 36.6284675 40.1106701 36.8686753 40.0973714 37.1063896 40.0840727 37.3465974 40.0873974 37.5884675 40.0873974 37.8303377 40.1173195 38.0697143 40.1422545 38.3307013 40.178826 38.5958442 40.2228779 38.8493506 40.2985143 39.1377662 40.3824623 39.417039 40.4838649 39.6946494 40.5952416 40.1758961 40.818826 40.6305455 41.0681766 41.0660779 41.3740468 41.2273247 41.5037091 41.3894026 41.6325403 41.5473247 41.7630338 41.7326753 41.9184623 41.9113766 42.103813 42.1291429 42.2176831 42.3527273 42.3340468 42.6095584 42.3473455 42.8331429 42.2176831 43.1090909 42.054774 43.2329351 41.7306182 43.1581299 41.4255792 43.0442597 40.9742545 42.6710649 40.6525922 42.3427532 40.3508779 41.9861818 40.0225662 41.5863896 39.7466182 41.1741299 39.4931117 40.7784935 39.2495792 40.3462857 39.0484364 39.9149091 38.8830338 39.5051429 38.7242805 39.1028571 38.593787 38.6772987 38.4932156 38.4661818 38.4416831 38.2492468 38.4184104 38.0348052 38.3893195 37.6848831 38.3394494 37.3399481 38.3161766 36.9908571 38.3161766 36.8919481 38.3161766 36.793039 38.317839 36.6941299 38.3211636zM35.7598961 35.1971117L35.7000519 35.2045922 35.7598961 35.1971117zM36.6941299 33.3211636C36.2103896 33.337787 35.7258182 33.4026182 35.2520519 33.4898909 34.3527273 33.6561247 33.5024416 33.9802805 32.6745974 34.3568 32.2423896 34.5521247 31.8301299 34.7690597 31.4245195 35.0125922 31.038026 35.2494753 30.7005714 35.5611636 30.3498182 35.8470857 30.1511688 36.0066701 29.96 36.1687481 29.777974 36.3441247 29.5252987 36.5909818 29.5311169 37.0132156 29.777974 37.2567481 30.0314805 37.5127481 30.4337662 37.4969558 30.6905974 37.2567481 30.7944935 37.1595013 30.9042078 37.0672416 31.0139221 36.9766442 31.3613506 36.7306182 31.7079481 36.4945662 32.0927792 36.3050597 32.6878961 36.0631896 33.2963117 35.8620468 33.9014026 35.6492675 34.5397403 35.4273455 35.1963636 35.2926961 35.8621299 35.183813 36.1164675 35.1522286 36.3716364 35.1239688 36.6284675 35.1106701 36.8686753 35.0973714 37.1063896 35.0840727 37.3465974 35.0873974 37.5884675 35.0873974 37.8303377 35.1173195 38.0697143 35.1422545 38.3307013 35.178826 38.5958442 35.2228779 38.8493506 35.2985143 39.1377662 35.3824623 39.417039 35.4838649 39.6946494 35.5952416 40.1758961 35.818826 40.6305455 36.0681766 41.0660779 36.3740468 41.2273247 36.5037091 41.3894026 36.6325403 41.5473247 36.7630338 41.7326753 36.9184623 41.9113766 37.103813 42.1291429 37.2176831 42.3527273 37.3340468 42.6095584 37.3473455 42.8331429 37.2176831 43.1090909 37.054774 43.2329351 36.7306182 43.1581299 36.4255792 43.0442597 35.9742545 42.6710649 35.6525922 42.3427532 35.3508779 41.9861818 35.0225662 41.5863896 34.7466182 41.1741299 34.4931117 40.7784935 34.2495792 40.3462857 34.0484364 39.9149091 33.8830338 39.5051429 33.7242805 39.1028571 33.593787 38.6772987 33.4932156 38.4661818 33.4416831 38.2492468 33.4184104 38.0348052 33.3893195 37.6848831 33.3394494 37.3399481 33.3161766 36.9908571 33.3161766 36.8919481 33.3161766 36.793039 33.317839 36.6941299 33.3211636z" fill="#161616" transform="translate(156 104)"/><path d="M31.6979137,38.7271737 C29.0107829,43.8550493 28.194695,42.3514939 33.6282307,43.48259" stroke="#161616" transform="translate(156 104)"/><path d="M14.7598961 35.1971117L14.7000519 35.2045922 14.7598961 35.1971117zM15.6941299 33.3211636C15.2103896 33.337787 14.7258182 33.4026182 14.2520519 33.4898909 13.3527273 33.6561247 12.5024416 33.9802805 11.6745974 34.3568 11.2423896 34.5521247 10.8301299 34.7690597 10.4245195 35.0125922 10.038026 35.2494753 9.70057143 35.5611636 9.34981818 35.8470857 9.15116883 36.0066701 8.96 36.1687481 8.77797403 36.3441247 8.5252987 36.5909818 8.53111688 37.0132156 8.77797403 37.2567481 9.03148052 37.5127481 9.43376623 37.4969558 9.6905974 37.2567481 9.79449351 37.1595013 9.90420779 37.0672416 10.0139221 36.9766442 10.3613506 36.7306182 10.7079481 36.4945662 11.0927792 36.3050597 11.6878961 36.0631896 12.2963117 35.8620468 12.9014026 35.6492675 13.5397403 35.4273455 14.1963636 35.2926961 14.8621299 35.183813 15.1164675 35.1522286 15.3716364 35.1239688 15.6284675 35.1106701 15.8686753 35.0973714 16.1063896 35.0840727 16.3465974 35.0873974 16.5884675 35.0873974 16.8303377 35.1173195 17.0697143 35.1422545 17.3307013 35.178826 17.5958442 35.2228779 17.8493506 35.2985143 18.1377662 35.3824623 18.417039 35.4838649 18.6946494 35.5952416 19.1758961 35.818826 19.6305455 36.0681766 20.0660779 36.3740468 20.2273247 36.5037091 20.3894026 36.6325403 20.5473247 36.7630338 20.7326753 36.9184623 20.9113766 37.103813 21.1291429 37.2176831 21.3527273 37.3340468 21.6095584 37.3473455 21.8331429 37.2176831 22.1090909 37.054774 22.2329351 36.7306182 22.1581299 36.4255792 22.0442597 35.9742545 21.6710649 35.6525922 21.3427532 35.3508779 20.9861818 35.0225662 20.5863896 34.7466182 20.1741299 34.4931117 19.7784935 34.2495792 19.3462857 34.0484364 18.9149091 33.8830338 18.5051429 33.7242805 18.1028571 33.593787 17.6772987 33.4932156 17.4661818 33.4416831 17.2492468 33.4184104 17.0348052 33.3893195 16.6848831 33.3394494 16.3399481 33.3161766 15.9908571 33.3161766 15.8919481 33.3161766 15.793039 33.317839 15.6941299 33.3211636zM11.9478026 39.5055377C11.9212052 39.517174 11.8962701 39.5271481 11.8713351 39.5371221L11.9478026 39.5055377zM15.1669195 37.5664208C14.2900364 37.6478753 13.4164779 37.7933299 12.5819844 38.0726026 12.1472831 38.2188883 11.7217247 38.3942649 11.3061403 38.5887584 10.9005299 38.7774338 10.5140364 39.0043429 10.1308675 39.2387325 9.97460779 39.3359792 9.8225039 39.4365506 9.66956883 39.5337974 9.41938701 39.6933818 9.31881558 40.014213 9.47507532 40.2776935 9.62136104 40.5270442 9.96878961 40.6342649 10.2181403 40.4755117 10.507387 40.290161 10.7933091 40.0989922 11.0950234 39.9369143 11.3851013 39.7789922 11.6743481 39.6277195 11.9760623 39.4939013 12.4423481 39.3060571 12.9177766 39.1348364 13.4065039 39.0109922 13.9392831 38.8746805 14.4778805 38.7807584 15.0206338 38.7026286 14.9715948 38.7092779 14.923387 38.7159273 14.8710234 38.7225766 15.1602701 38.6835117 15.445361 38.6477714 15.7346078 38.6244987 15.8775688 38.6153558 16.0205299 38.6087065 16.1634909 38.6053818 16.2873351 38.6020571 16.4120104 38.6178494 16.5358545 38.6303169 16.7768935 38.6685506 17.0096208 38.7209143 17.2473351 38.7807584 17.4908675 38.8422649 17.7410494 38.9004468 17.9812571 38.9819013 18.2447377 39.0724987 18.497413 39.1797195 18.7575688 39.2711481 18.8839065 39.3160312 19.0110753 39.3650701 19.1407377 39.4008104 19.2446338 39.4265766 19.3485299 39.4365506 19.452426 39.4498494 19.6045299 39.4689662 19.7740883 39.3492779 19.8447377 39.2254338 19.9486338 39.0500571 19.9195429 38.8164987 19.7740883 38.6735377 19.6668675 38.5663169 19.5463481 38.498161 19.4067117 38.4399792 19.1989195 38.3485506 18.9878026 38.2745766 18.7766857 38.1931221 18.5954909 38.1249662 18.4134649 38.0534857 18.2281143 37.9886545 18.0269714 37.917174 17.8191792 37.8648104 17.6180364 37.8066286 17.4426597 37.7575896 17.2672831 37.6994078 17.0919065 37.6603429 16.8516987 37.6088104 16.6114909 37.5763948 16.3712831 37.5439792 16.2333091 37.5256935 16.0928416 37.518213 15.952374 37.518213 15.6888935 37.518213 15.4245818 37.5431481 15.1669195 37.5664208z" fill="#161616" transform="translate(156 104)"/><path d="M15.6194909,41.0696312 C15.5978805,41.0729558 15.5762701,41.0754494 15.5554909,41.0771117 C15.5762701,41.0746182 15.5978805,41.0721247 15.6194909,41.0696312 M15.7159065,41.0663065 C15.6959584,41.083761 15.6751792,41.0995532 15.6527377,41.1128519 C15.6735169,41.0978909 15.6951273,41.0820987 15.7159065,41.0663065 M15.7051013,41.0596571 C15.6751792,41.0746182 15.6452571,41.0879169 15.6136727,41.0995532 C15.6427636,41.0862545 15.6735169,41.0729558 15.7051013,41.0596571 M15.7990234,40.9698909 C15.7915429,40.9823584 15.7824,40.9931636 15.7740883,41.0039688 C15.7824,40.9923325 15.7907117,40.9815273 15.7990234,40.9698909 M15.8023481,40.9117091 C15.7948675,40.930826 15.7865558,40.9491117 15.777413,40.9682286 C15.7857247,40.9491117 15.7940364,40.9299948 15.8023481,40.9117091 M15.2795429,40.7521247 C15.2728935,40.7961766 15.2662442,40.8410597 15.2595948,40.8851117 C15.265413,40.8402286 15.2712312,40.7961766 15.2795429,40.7521247 M15.8065039,40.5002805 C15.8098286,40.5102545 15.8148156,40.5193974 15.8181403,40.5285403 C15.8139844,40.5193974 15.8098286,40.5102545 15.8065039,40.5002805 M15.5820883,40.3764364 C15.5995429,40.3822545 15.6169974,40.3880727 15.6344519,40.3947221 C15.6843221,40.4204883 15.7316987,40.4470857 15.7790753,40.4761766 C15.7848935,40.5002805 15.7907117,40.5243844 15.7956987,40.5493195 C15.8006857,40.6449039 15.8006857,40.7379948 15.7956987,40.8327481 C15.7840623,40.8959169 15.7699325,40.9565922 15.7516468,41.0189299 C15.7474909,41.0264104 15.7425039,41.0338909 15.7391792,41.0405403 C15.7358545,41.0430338 15.7325299,41.0446961 15.7292052,41.0463584 C15.7150753,41.0505143 15.7017766,41.0530078 15.6876468,41.0563325 C15.5912312,41.0621506 15.4981403,41.0604883 15.403387,41.0555013 C15.3510234,41.0446961 15.2994909,41.0330597 15.2487896,41.019761 C15.2529455,40.9915013 15.255439,40.9624104 15.2562701,40.9324883 C15.2762182,40.8726442 15.2978286,40.8136312 15.3202701,40.7554494 C15.3693091,40.6590338 15.4233351,40.5684364 15.4840104,40.4803325 C15.516426,40.4445922 15.5488416,40.4096831 15.5820883,40.3764364 M15.7075948,40.349839 C15.7275429,40.3739429 15.7458286,40.3980468 15.7624519,40.4229818 C15.7441662,40.3988779 15.7258805,40.374774 15.7075948,40.349839 M14.4350753,38.0350338 C14.3611013,38.0566442 14.2879584,38.0873974 14.2181403,38.1223065 C14.1109195,38.1588779 14.0078545,38.2095792 13.9056208,38.2519688 C13.7011532,38.3400727 13.5166338,38.5088 13.3570494,38.6617351 C13.1783481,38.833787 13.0553351,39.0673455 12.9481143,39.2876052 C12.8184519,39.5735273 12.7469714,39.8727481 12.7012571,40.177787 C12.6173091,40.7363325 12.6206338,41.3173195 12.8151273,41.8525922 C12.9024,42.0961247 13.0328935,42.3205403 13.1982961,42.5250078 C13.3836468,42.7552416 13.6138805,42.9214753 13.8732052,43.0636052 C14.1042701,43.190774 14.3569455,43.2780468 14.6137766,43.3270857 C14.9096727,43.3819429 15.2047377,43.3304104 15.4973091,43.2846961 C15.7824,43.2423065 16.0616727,43.1450597 16.3251532,43.0278649 C16.5844779,42.9081766 16.8346597,42.7618909 17.0324779,42.550774 C17.2012052,42.3720727 17.2992831,42.1285403 17.3732571,41.8983065 C17.4156468,41.7619948 17.4289455,41.6090597 17.4480623,41.4694234 C17.4646857,41.3331117 17.4771532,41.1968 17.4838026,41.0604883 C17.5029195,40.7670857 17.4937766,40.4603844 17.4389195,40.1686442 C17.4247896,39.9184623 17.3782442,39.6732675 17.2926338,39.4438649 C17.1621403,39.099761 16.9352312,38.8105143 16.6368416,38.5993974 C16.5088416,38.5104623 16.373361,38.4423065 16.2320623,38.3940987 C16.0866078,38.2985143 15.9328416,38.2153974 15.7757506,38.1480727 C15.6369455,38.0898909 15.5131013,38.0441766 15.3701403,38.0084364 C15.221361,37.9726961 15.0651013,37.9668779 14.9121662,37.9569039 C14.8980364,37.9560727 14.8830753,37.9552416 14.8681143,37.9552416 C14.7226597,37.9552416 14.5738805,37.9968 14.4350753,38.0350338" fill="#161616" transform="translate(156 104)"/><path d="M11.8264519,42.8313766 C11.8264519,43.3018182 12.2029714,43.6334545 12.6542961,43.6592208 C13.5245299,43.7082597 14.3947636,43.7373506 15.2649974,43.7531429 C16.0471273,43.7697662 16.8300883,43.7855584 17.6088935,43.7697662 C18.0826597,43.7564675 18.4758026,43.3832727 18.4758026,42.9028571 C18.4758026,42.4290909 18.0826597,42.0359481 17.6088935,42.0359481 C16.8558545,42.0359481 16.0994909,42.075013 15.3456208,42.0716883 C14.4462961,42.0716883 13.5502961,42.0525714 12.6542961,42.0035325 C12.6426597,42.0027013 12.6310234,42.0027013 12.619387,42.0027013 C12.1838545,42.0027013 11.8264519,42.4108052 11.8264519,42.8313766" fill="#161616" transform="translate(156 104)"/><path d="M190,176 C188.428571,179.055556 186.595238,180.583333 184.5,180.583333 C182.404762,180.583333 180.571429,179.055556 179,176 L190,176 Z" fill="#161616"/></g></svg>