<svg version="1.1" id="Layer_1" xmlns="http://www.w3.org/2000/svg" x="0" y="0" viewBox="0 0 500 600" xml:space="preserve" enable-background="new 0 0 500 600"><style>.st0{fill:#bebebe}.st0,.st2,.st4{fill-rule:evenodd;clip-rule:evenodd}.st2{fill:#fff}.st4{fill:#161616}</style><g id="leftturnhandsfolded"><g id="Group" transform="translate(193 180)"><g id="Group-59"><g id="Group-32" transform="translate(1 7)"><path id="Fill-5" class="st0" d="M84.3 22.5c-.6.1-1 .3-1.4.7-.6.5-1.2 1.1-1.6 1.7-.3.4-.6.9-.8 1.3-.4.6-1 1.2-1.5 1.8-.5.6-1 1.3-1.5 1.9-1.1 1.3-2.2 2.5-3.3 3.7-1.6 1.7-3.2 3.3-4.7 5.1-1.5 1.8-2.9 3.7-4.5 5.4-.2.2-.3.4-.5.5-1.4 1.4-2.8 2.9-4.2 4.2-.9.8-1.7 1.6-2.6 2.4-.8.8-1.7 1.6-2.5 2.4-1.8 1.7-3.5 3.4-5.3 5.1-1.6 1.6-3.2 3.2-4.9 4.7-1.8 1.6-3.5 3.1-5.3 4.7-1.7 1.4-3.4 2.7-5.2 4-3.8 2.7-7.7 5.3-11.7 7.7-1.4.8-2.8 1.7-4.2 2.5-1.2.7-2.4 1.4-3.6 1.9-.9.4-1.8.7-2.8 1-1.1.3-2.2.6-3.2.8-.6.1-1.2.2-1.9.3h-.9c-1 0-2.1-.1-3.1-.4-.3-.1-.6-.2-.9-.4-.3-.2-.7-.2-1 0-.6.4-.9 1.4-1 2-.1.7-.1 1.4 0 2 .1.3.2.6.2.9.1.5.4.9.8 1.2 1.5.7 3.1 1.1 4.7 1.2H6c0 1 .2 1.5.4 2.5.2.7.6 1.2 1.2 1.7.3.2.7.2 1 .3.3.1.7 0 1 0 .5-.1 1.1-.3 1.6-.5.4-.2.9-.3 1.3-.5.1 0 .2-.1.3-.1.8-.2 1.6-.5 2.4-.8 1-.4 1.9-.8 2.8-1.3 1-.5 2-1.1 2.9-1.6 1-.5 2-1.1 2.9-1.7 1-.6 2-1.3 2.9-2 1.9-1.3 3.7-2.6 5.5-3.9 1.9-1.3 3.8-2.5 5.6-3.8l.1-.1c.8-.5 1.6-1 2.3-1.6.2-.2.5-.4.7-.5.9-.6 1.8-1.2 2.7-1.9l5.4-3.6 5.7-3.9c2-1.3 3.9-2.7 5.9-4.2 1.8-1.4 3.6-2.8 5.3-4.3.9-.8 1.7-1.6 2.6-2.3 1.8-1.2 3.6-2.5 5.4-3.8.9-.6 1.7-1.2 2.6-1.8 1-.7 1.9-1.5 2.8-2.2.8-.7 1.7-1.3 2.4-2 1-1 2.1-2 3-3.1.7-.8 1.2-1.8 1.7-2.7.1-.2.2-.4.4-.7.1-.1.1-.2.2-.3.6-.9.9-1.7 1.1-2.8.1-.7.2-1.1.1-1.6-.1-.9-.1-1.9-.4-2.8 0-.2.1-.3.1-.5.1-.3.1-.6.2-.9 0-.3.1-.5.1-.8 0-.2 0-.3.1-.5 0-.6.1-1.2.1-1.8 0-.6-.1-1.4-.1-1.9 0-.4-.1-.7-.2-1.1-.1-.7-.3-1.4-.6-2.1-.2-.4-.4-.8-.6-1.3-.2-.4-.7-.8-.9-1-.1-.1-.3-.3-.5-.4-.2-.2-.8-.3-1-.4h-.1c.1.3 0 .3-.1.3"/><path id="Fill-7" class="st0" d="M83.3 23.4c-1.2 1.1-2.2 2.3-3.3 3.6l-2.4 2.7c-.8 1-1.7 1.9-2.5 2.9-.7.8-1.3 1.7-2 2.5-.7.9-1.4 1.7-2.1 2.6-.6.7-1.2 1.4-1.9 2.1-1.4 1.5-2.9 2.9-4.3 4.3-1.6 1.5-3.3 3-4.9 4.4-1.8 1.6-3.6 3.2-5.5 4.8-1.7 1.5-3.4 3-5.2 4.5-1.7 1.4-3.4 2.8-5 4.2-1.8 1.6-3.7 3.1-5.5 4.6-1.8 1.5-3.5 2.9-5.3 4.4-1.7 1.4-3.4 2.8-5.1 4.1-1.9 1.4-3.7 2.8-5.7 4-.9.6-1.9 1.2-2.9 1.7-.5.3-1 .5-1.5.7-.5.2-.9.5-1.4.7-.5.2-1.1.4-1.6.6-1 .3-2 .5-3 .8-.6.1-1.1.2-1.7.3-.5.1-1.1.1-1.6.1-1 0-2 0-3-.1-.5-.1-1-.2-1.5-.1-.2 0-.4.1-.6.1-.4.1-.7.2-1 .3-.6.2-1 .8-1.4 1.2-.6.7-.9 2.1-1.1 3-.2 1.1-.2 2.5 0 3.6.3 1.6 1 3.4 2.6 4.1.7.3 1.5.6 2.2.8 1.1.3 2.2.4 3.3.4h1c.5 0 .9-.2 1.4-.3.5-.1 1-.3 1.5-.5.9-.3 1.4-1.3 1.7-2.1v-.1s.1 0 .1.1c.5.3 1.1.3 1.7.3.5-.1 1-.3 1.5-.4.4-.1.7-.2 1.1-.4.5-.2 1-.4 1.4-.6 1-.5 2-.9 3-1.5 1-.5 2-1.1 3-1.6 4.2-2.4 8.4-4.9 12.5-7.4 1.9-1.2 3.7-2.4 5.5-3.6 1.8-1.2 3.6-2.6 5.4-3.9 3.8-2.7 7.5-5.5 11.3-8.3 1.8-1.3 3.7-2.6 5.5-3.9 1-.7 1.9-1.4 2.9-2.1.8-.6 1.6-1.2 2.4-1.9 1.9-1.4 3.7-2.8 5.6-4.3.9-.7 1.8-1.4 2.6-2.1.9-.7 1.7-1.5 2.5-2.2 1.9-1.9 3.7-3.9 5.5-5.9.4-.4.7-.8 1-1.3.1-.2.2-.4.3-.5.3-.5.5-1 .8-1.5.3-.6.4-1.5.5-1.9.2-.6.2-1.8.2-2.2 0-1.1-.2-2.6-.6-3.6-.3-.9-.9-2-1.9-2.4-.3-.1-.8-.3-1.1-.3-.4 0-.8.2-1.2.4-.4.1-.7.4-1 .6 0-.1.1-.2.1-.3.3-.5.5-1.1.7-1.7.3-.8.4-1.6.4-2.4 0-.8-.1-1.6-.4-2.4-.2-.6-.5-1.1-1-1.5-.2-.1-.4-.2-.6-.2 0-.2-.2-.1-.4 0"/><path id="Fill-9" class="st0" d="M88.3 41.3c0 .1-.1.1-.1.2-.2-.1-.4-.2-.9-.3-.7-.2-1.4.7-1.7 1.1-.1.2-.2.4-.3.5-.3.5-.5 1-.7 1.5-.1.2-.2.3-.3.5-.3.7-.6 1.4-.8 2-.2.6-.4 1.3-.6 1.9-.3 1.1-.6 2.3-.8 3.4-.3 1.3-.4 2.7-.7 4-.2 1.4-.6 2.9-.9 4.3-.3 1.4-.5 2.7-.6 4.1-.2 1.4-.3 2.8-.6 4.2-.5 2.8-1 5.7-1.6 8.5-.1.5-.2.9-.3 1.4-.7 2.5-1.5 5.1-2.3 7.6-.4 1.4-.9 2.9-1.4 4.3-.4 1.3-.9 2.6-1.3 4-1 3.3-1.6 6.6-2.3 10-.2 1.3-.4 2.5-.5 3.8l-.3 1.8c-.1 1-.2 2.1-.3 3.1-.1.7-.1 1.5-.1 2.2 0 .7-.1 1.4-.1 2.1-.2 2.3-.4 4.7-.5 7-.1 2.9-.3 5.8-.3 8.7-.1 2.9 0 5.9.1 8.8.1 2.8.3 5.6.4 8.4.1 1.5.2 3.1.2 4.6.1 1.4.1 2.8.2 4.2.2 2.1.3 4.2.4 6.3v.7c0 1.4.1 2.7.1 4.1 0 .6 0 1.3.1 1.9v1.5c0 .5-.1 1.1-.1 1.6v-.2c0 .3-.1.6-.1.9-.1.5-.1.9 0 1.4.1.4.2 1 .6 1.3 0 .4.1.8.1 1.1.1.9.5 1.8 1 2.6.4.6.9 1 1.6 1 .5 0 .9-.3 1.2-.5.1 0 .1.1.2.1.5.4 1.1.4 1.6 0 .3-.3.7-.6 1-1 .3-.4.5-1 .7-1.4.2-.4.3-.8.5-1.2.2-.5.3-.9.4-1.4.2-.8.5-1.6.6-2.5.1-.8.2-1.6.3-2.3.2-1.9.3-3.9.4-5.8.1-2.9-.1-5.8-.2-8.6-.1-2.9-.1-5.8-.1-8.7 0-2.9-.1-5.9-.2-8.8-.1-4.6-.5-9.2-.9-13.8-.1-2.1-.2-4.2-.1-6.3.1-1.8.2-3.5.3-5.3.2-2.6.5-5.2.8-7.8.2-1.4.5-2.9.8-4.3.3-1.4.5-2.8.8-4.1.4-2.4 1-4.9 1.6-7.3.7-2.4 1.5-4.8 2.2-7.3.6-2.1 1.3-4.1 1.8-6.2.2-.5.3-1.1.5-1.6.5-1.8 1-3.6 1.4-5.5.4-1.4.7-2.8.9-4.3.3-1.4.4-2.9.7-4.3.2-1.4.5-2.9.7-4.3.5-2.8.9-5.7 1.2-8.5.1-1.1.2-2.3.2-3.4v-1.1c0-.6-.1-1.2-.1-1.8 0-.2-.1-.4-.1-.6-.1-.9-.4-1.6-.8-2.3-.3-.5-.7-.8-1.3-.8-.6.2-1.1.4-1.3.9"/><path id="Fill-11" class="st0" d="M87.9 40.6c-.7.4-.9 1.2-1.1 2-.3 1-.6 2.1-.8 3.1-.1-.3-.3-.6-.6-.8-.3-.2-.6-.2-.9 0-.3.3-.6.6-.7 1-.2.5-.3 1-.4 1.5-.1.2-.1.4-.2.6-.1.4-.2.7-.3 1.1-.2.7-.4 1.4-.5 2.1-.3 1.5-.6 2.9-.9 4.4-.2 1.5-.5 3.1-.7 4.6-.1.7-.2 1.5-.2 2.2-.1.6-.1 1.2-.2 1.8-.1.5-.1 1-.2 1.5-.2.7-.3 1.4-.5 2.1-.2.9-.4 1.9-.5 2.8-.3 2.1-.7 4.1-1 6.2l-.3 1.5c-.1.5-.1 1.1-.2 1.6-.1.6-.1 1.2-.2 1.8 0 .1-.1.2-.1.3-.1.4-.2.9-.3 1.3l-.2-.2c-.3-.2-.6-.2-1 0-.6.4-.8 1.3-1 2-.6 3.1-1.3 6.1-1.9 9.2-.5 2.6-.9 5.3-1.3 7.9-.2.4-.3.9-.4 1.3l-.6 5.1c-.1.7-.1 1.4-.2 2.2-.1 1-.2 2.1-.3 3.1-.1 1.7-.1 3.4-.2 5.1-.1 1.3 0 2.7 0 4 0 1.1 0 2.3.1 3.4.1.9.1 1.8.2 2.7 0 .5 0 .9.1 1.4-.2.1-.3.3-.4.5-.4.7-.7 1.4-.8 2.1-.3 1.5-.2 2.9-.1 4.4 0 .7 0 1.3.1 2 0 1.6.1 3.2.1 4.8l.3 9.6c.1 2.9.3 5.7.5 8.6.2 3.3.5 6.5.8 9.8.1.9.2 1.7.3 2.6 0 .4.1.8.1 1.2.1.9.2 1.7.5 2.5.1.2.2.6.4.8v.6c0 .6.1 1.1.3 1.6.2.5.5 1.1 1.1 1.1.4 0 .6-.2.8-.5.4-.6.6-1.5.6-2.2v-2.7c.3-.1.5-.3.7-.5.1-.2.3-.4.3-.7.1.2.2.3.3.5.3.4.6.7 1.1.7.4 0 .7-.2.9-.6.4-.6.6-1.6.6-2.3-.1-1.4-.1-2.7-.3-4-.1-1-.2-1.9-.3-2.9 0-.3-.1-.5-.1-.8 0 0 .1 0 .1-.1.3-.2.5-.6.6-.9.2-.6.3-1.4.2-2.1v-1.5c0-.6-.1-1.2-.1-1.8-.1-.9-.2-1.9-.2-2.8-.1-1.4-.2-2.8-.4-4.3-.3-3.1-.6-6.2-.8-9.4 0-.5-.1-.9-.1-1.4-.1-1.7-.3-3.5-.4-5.2-.1-1.3-.3-2.6-.4-3.9-.1-1.8-.2-3.5-.4-5.3-.1-.9-.2-1.8-.3-2.8-.1-1.1-.2-2.3-.6-3.4-.2-.4-.4-.9-.9-1.1v-.2c.1.2.2.3.4.4.5.3.9.1 1.2-.4 1.1-1.7.8-3.7.7-5.5v-1.5c.1.3.3.5.6.6 1.2.7 1.8-1.2 2-2 .6-3 .9-6 1.3-9 .2-1.5.5-2.9.7-4.3.3-1.4.5-2.7.8-4.1.6-3 1.4-6 2-9 .3-1.3.5-2.7.7-4.1.1-.8.3-1.7.4-2.5.3-1.2.6-2.3.9-3.5.4-1.5.7-3 1-4.4l.6-3c.2-1 .3-2 .4-3.1.1-.7.1-1.3.1-2 0-.1 0-.1.1-.2.1-.4.3-.9.4-1.3l.3-1.2c.1-.3.2-.5.3-.8.4-1.1.4-2.5 0-3.6-.1-.2-.2-.5-.3-.7 0-.3 0-.5.1-.8.3-2.7.4-5.5.6-8.3 0-.6.1-1.1.1-1.7 0-.6 0-1.2-.1-1.8-.1-.7-.1-1.5-.6-2.1-.2-.3-.5-.5-.8-.5-.2.3-.3.4-.5.5"/><path id="Fill-13" class="st0" d="M68.1 1.3c-.4.6-.6 1.2-.8 1.8-.6.1-1 .4-1.3.9-.1.2-.3.5-.4.7-.9.2-1.4 1.2-1.7 1.9-.3.9-.5 1.8-.5 2.8 0 1.2.2 2.8 1 3.8 1.7 2.4 3.4 4.9 5 7.3.2.2.3.5.4.8l1.2 2.1c.5.9 1 1.7 1.5 2.6.3.7.7 1.3 1 2 .4 1 .8 1.9 1.2 2.9.5 1.2.9 2.4 1.3 3.6.7 2.1 1.5 4.1 2.2 6.2.3.9.6 1.8 1 2.8.3 1 .6 2 1 2.9.3.8.9 2 2 2 .6-.1 1.1-.4 1.4-.9.5-.7.8-1.5.9-2.4.1-.6.1-1.2.1-1.8v-.5c.3-.2.6-.5.9-.8.5-.8.8-1.6.9-2.5.1-.6.2-1.2.1-1.9.2-.5.3-.9.4-1.4.2-1 .2-1.9 0-2.9-.2-1.1-.5-2.1-.8-3.2-.2-.6-.3-1.1-.5-1.7-.2-.6-.4-1.1-.7-1.7-.3-.6-.6-1.3-.9-1.9l-2.1-4.2-1.2-2.4c-1.1-2.1-2.1-4.2-3.2-6.2-1.2-2.1-2.3-4.3-3.6-6.4-.9-1.5-1.8-3-2.7-4.4-.4-.6-.9-1-1.7-1.1-.5.2-1.1.6-1.4 1.2"/><path id="Fill-15" class="st0" d="M66 7.2c-.2.5-.2 1-.2 1.5s.1 1 .2 1.5c0 0 0 .1.1.1.1.1.1.2.2.4.2.4.4.9.6 1.3-.1-.1-.1-.3-.2-.4.2.3.3.6.5.9v.6c0 .3 0 .6.1.9.1.5.2 1 .5 1.4.6 1.1 1.3 2.2 1.8 3.3l1.3 2.5c.7 1.4 1.4 2.7 2.1 4.1.7 1.6 1.4 3.1 2.2 4.7.4.8.7 1.7 1.1 2.5.2.4.3.7.5 1.1.1.2.2.4.2.5.1.2.2.4.3.7.2.4.3.8.6 1.1.2.3.5.5.8.5.4 0 .6-.2.8-.5.2-.3.3-.6.4-.9.2.4.5.9 1.1.8.4-.1.6-.4.8-.8 0-.2.1-.3.1-.5.1-.4.1-.8 0-1.2-.1-.6-.3-1.2-.5-1.8.1 0 .2 0 .4-.1.5-.3.7-1 .7-1.5.1-.4.1-.7.1-1.1 0-.4 0-.7-.1-1.1-.1-.5-.2-1-.4-1.5-.1-.4-.3-.7-.4-1.1-.2-.4-.3-.8-.5-1.3-.4-1.2-.9-2.3-1.5-3.4-.3-.7-.6-1.3-.9-2 .8 1.3 1.6 2.7 2.3 4.1.6 1.2 1.1 2.5 1.7 3.8.3.8.7 1.6 1 2.3.2.5.4 1.1.5 1.6.2.5.3 1 .5 1.6.2.7.4 1.5.6 2.2.1.4.2.8.4 1.1.3.4.6.6 1 .3.3-.2.5-.5.6-.8.2-.6.3-1.4.2-2.1-.2-1.1-.5-2.3-.8-3.4-.2-.7-.4-1.5-.6-2.2-.2-.6-.3-1.1-.5-1.7-.2-.6-.5-1.2-.7-1.8-.2-.6-.5-1.1-.7-1.7-1-2.5-2.3-4.9-3.7-7.2-.9-1.5-1.9-2.9-3.1-4.2-.7-.8-1.4-1.5-2.1-2.2-.3-.3-.6-.6-1-.8-.3-.2-.7-.4-1.1-.7-1-.6-1.6 1-1.7 1.7 0 .1 0 .3-.1.4l-.1-.1c-.2-.1-.3-.1-.5-.1-.3 0-.5.2-.7.4-.2.3-.3.7-.4 1.1 0 .3-.1.5-.1.8-.2-.4-.4-.7-.6-1.1 0-.1-.1-.2-.1-.3-.5-.9-.9-1.8-1.5-2.7-.2-.3-.4-.5-.7-.5-.3 0-.6.6-.8 1"/><path id="Fill-17" class="st0" d="M33 365.6c-1.9.5-3.8 1.2-5.6 1.8-1.1.3-2.1.7-3.1 1.2-.2.1-.4.1-.6.2-1.7.5-3.4 1.1-5 1.8-2 .9-4 1.9-5.9 3-1.9 1.1-3.8 2.2-5.6 3.4-.4.3-.9.6-1.3.9-.2.1-.4.3-.6.4-.1.1-.3.2-.4.3-.8.5-1.5 1.4-1.8 2.3-.2.5-.3 1.1-.4 1.6-.2 1.2-.1 2.2 0 3.4.1 1 .5 2.3 1.2 3 .4.5.8.9 1.4 1.2.4.2.7.4 1.1.5.9.3 1.9.7 2.9.8.8.1 1.7 0 2.6-.1 1.9-.2 3.8-.6 5.7-1 .5-.1 1.1-.3 1.6-.4.4-.1.9-.2 1.3-.3 1.3-.4 2.5-.8 3.8-1.1 1.5-.5 2.9-1 4.4-1.5 2.1-.8 4.2-1.7 6.3-2.6.9-.4 1.8-.9 2.7-1.3.8-.4 1.5-.8 2.2-1.3.1 0 .1-.1.2-.1.5-.3 1-.6 1.5-1 .8-.6 1.3-1.4 1.7-2.4.2-.5.3-.9.4-1.4.4-1.2.6-2.7.5-3.9-.1-.7-.1-1.4-.2-2-.2-.6-.3-1.3-.5-1.9-.1-.3-.5-1.2-.9-1.6-.4-.5-.9-1.1-1.5-1.3-1-.4-2.1-.6-3.2-.8-.5-.1-1.1-.1-1.6-.1-1.2-.1-2.3 0-3.3.3"/><path id="Fill-19" class="st0" d="M33.6 366.9c-2 .3-4 .7-6 1.2-1.1.3-2.3.5-3.4.8-1.2.3-2.4.7-3.6 1-.9.3-1.8.6-2.8.9-.9.3-1.7.5-2.6.8-.8.3-1.6.5-2.4.9-.8.6-1.3 1.4-1.6 2.3 0 .1-.1.3-.1.4-.8.3-1.5.6-2.3.9-1 .4-2.1.8-3.1 1.3-.7.6-1.7 1.1-2.2 1.8-1.5 2-1.4 4.9-.7 7.2.2.6.5 1.2.9 1.7s.8.9 1.4 1.3c.3.2.6.3.9.4.5.2 1.1.3 1.6.5.8.2 1.6.4 2.4.5.8.1 1.5.2 2.3.2.9.1 1.7 0 2.5-.1 3-.4 5.9-1.2 8.8-1.8.4-.1.7-.2 1.1-.3.8-.2 1.6-.5 2.3-.7 1.2-.3 2.4-.7 3.5-1.1 2.4-.9 4.8-1.7 7.2-2.6.9-.3 1.8-.7 2.7-1.1.7-.3 1.5-.6 2.2-1 .3-.1.5-.3.8-.5.4-.3.7-.7 1-1.1.7-.9 1-2.2 1.2-3.2.3-1.4.2-3.1 0-4.5-.2-1.1-.7-2.8-1.4-3.7-.5-.5-.9-1-1.5-1.3l-.9-.3c-1.1-.4-2.1-.7-3.2-.8h-1.1c-1.3-.3-2.6-.1-3.9 0"/><path id="Fill-21" class="st0" d="M60.7 367.90000000000003c-.5.1-1.3.3-1.8.7-1 .6-1.7 1.6-2.4 2.5l-.9 1.2c-.4-.1-.8 0-1.2.2l-.6.6c-.3-.1-.7-.1-1-.1-.2 0-.4.1-.5.1l-1.8.6c-1.3.5-2.5 1.1-3.6 1.8-.3.1-.6.1-.9.2-1.1.2-2.1.5-3.2.7-2.6.6-5.2 1.5-7.6 2.6-.9.4-1.8.8-2.7 1.3-.8.5-1.5 1-2.2 1.6-.9.7-1.8 1.4-2.6 2.1-.7.6-1.3 1.2-1.9 1.9-.1.1-.2.2-.2.3-.4.1-.9.3-1.3.5-.6.3-1 .9-1.4 1.5-.6 1-1 2.1-1.2 3.2-.2 1.4-.2 2.7 0 4.1.2 1.2.6 2.2 1.2 3.2.4.7 1.1 1.2 1.9 1.3.2 0 .3.1.5.1.4.4.7.8 1.1 1.1.5.4 1.3.6 1.9.8.7.2 1.5.2 2.3.2.8 0 1.7-.1 2.5-.2 1.9-.2 3.8-.6 5.8-1 2.3-.4 4.5-.9 6.8-1.4 1.1-.2 2.2-.5 3.3-.8.2-.1.4-.1.6-.2.4 1.2 1.1 2.1 2 2.9.9.6 1.8.6 2.6 0 1.1.8 2.3 1.3 3.6 1.4.5.1 1-.1 1.5-.2.9-.2 1.7-.5 2.5-.8.5-.2.9-.4 1.2-.7.7-.7 1.4-1.4 2.1-2.2.3-.4.7-.8 1-1.2.7-.9 1.2-2 1.6-3.1.1-.2.1-.5.2-.7.2-.9.5-1.9.7-2.8.3-1.3.3-2.7.4-3.9.1-1.3-.1-2.6-.2-3.9-.1-1.2-.5-2.4-.9-3.5-.3-.8-.7-1.6-1.1-2.3 0-.3-.1-.7-.1-1-.2-1.1-.5-2.3-.8-3.3l-.3-.9c-.3-.6-.6-1.4-1.1-2.1-.3-.4-1.4-1.4-1.3-1.4-.6-.5-1.2-.6-2-.8h-.3c-.1-.2-.2-.2-.2-.2"/><g id="Group-25" transform="translate(19.79 371.866)"><defs><filter id="Adobe_OpacityMaskFilter" filterUnits="userSpaceOnUse" x=".2" y=".1" width="49.2" height="32"><feColorMatrix values="1 0 0 0 0 0 1 0 0 0 0 0 1 0 0 0 0 0 1 0"/></filter></defs><mask maskUnits="userSpaceOnUse" x=".2" y=".1" width="49.2" height="32" id="mask-2_1_"><g filter="url(#Adobe_OpacityMaskFilter)"><path id="path-1_1_" class="st2" d="M.2.1h49.1v32H.2z"/></g></mask><path id="Fill-23" d="M37.1.6c-.1 0-.1.1 0 0-.5.4-.9.8-1.2 1.3-.2.3-.4.6-.6 1-.3.5-.7 1.1-1 1.6-.3.4-.5.8-.8 1.2-.8.1-1.5.3-2.2.5-.5.1-1 .3-1.5.4-.1-.1-.3-.2-.4-.3-.5-.3-1.2-.4-1.7-.6-.4-.1-.7-.2-1.1-.3-.8-.3-1.6-.3-2.4-.4-.9-.1-1.8-.1-2.6 0-1.9.2-3.8.8-5.6 1.4-1.6.6-3 1.3-4.5 2.1S8.5 10.1 7 11c-.9.5-1.8 1-2.7 1.6-1.1.8-2.2 1.7-2.9 2.9C.5 17 .1 18.8.1 20.6c0 1.3.2 2.5.6 3.7.3.9.8 1.7 1.5 2.3.3.2.6.5.8.7.3.2.6.3 1 .5 1.1.4 2.1.6 3.2.8 1.6.2 3.3.3 4.9.3 3.3 0 6.6-.6 9.8-1.4 1.9-.5 3.8-1.1 5.6-1.7 1.5-.5 3-1.2 4.3-2.1l.9-.6c0 1.3.1 2.5.4 3.8.2 1.4.7 2.8 1.5 4 .5.9 1.3 1.5 2.4 1.6 2.2-.1 3.2-2.2 3.8-4.2.1.3.3.5.4.8.5.9 1.2 1.3 2.2 1.4h.4c.2 0 .6-.1 1-.2.3-.1.6-.2.5-.2 1-.4 2-2.5 2.3-3.3.4-1.1.6-2.2.8-3.3.1-.5.2-1.1.2-1.7.2-1.4.2-2.9.4-4.3.1-.6.1-1.3.1-1.9 0-1.7-.1-3.3-.4-5-.2-1.4-.6-2.9-1.1-4.3-.3-.7-.7-1.4-1-2.1-.1-.1-.2-.3-.3-.4-.2-.2-.9-1-1.3-1.4-.5-.4-1.1-.4-1.7-.6-.6-.2-1.4.3-1.8.7l-.2.2c-.1-.2-.2-.3-.3-.5-.3-.5-.8-.9-1.3-1.3-.4-.3-1-.4-1.5-.5H38c-.1-.3-.6 0-.9.2" mask="url(#mask-2_1_)" fill-rule="evenodd" clip-rule="evenodd" fill="#bebebe"/></g><path id="Fill-26" class="st0" d="M25.1 45.5c-.3.1-.5.3-.8.5-.3.2-.6.4-.9.7-.2.2-.5.4-.7.6-.4.3-.8.7-1.3 1-1 .8-1.9 1.6-2.9 2.4-1.7 1.4-3.5 2.8-5.2 4.1-1.8 1.3-3.6 2.6-5.5 3.8-.9.6-1.9 1.2-2.8 1.8-.4.3-.8.5-1.2.8-.3.2-.5.4-.7.7-.5.6-.7 1.5-.7 2.2 0 .5.1 1.1.2 1.5.1.4.3.7.6.9.4.3.9.1 1.3-.1l.6-.3c.1.4.3.8.7 1.1 0 0 .1.1.2.1.1.1.2.1.3.1-.1.1-.1.3-.2.4 0 .4-.1.6-.1.8 0 .2 0 .4-.1.6-.1.1-.1.2-.2.3 0 .1-.1.1-.1.2-.1.1-.1.2-.2.3-.1.2-.3.5-.4.7-.2.4-.3.8-.3 1.2-.2 1 0 2.1.5 3 .2.3.4.5.8.5.3 0 .6-.2.8-.5 0-.1.1-.1.1-.2.3 0 .6-.2.8-.5.8-1.3 1.7-2.6 2.5-3.8.4-.6.8-1.2 1.2-1.9.6-.9 1.3-1.9 1.8-2.9.3-.4.7-.7 1-1.1.4-.4.8-.9 1.2-1.3l.2-.2c.1-.1.1-.1.2-.1.3-.2.5-.6.6-.9v-.1c.4.2.7 0 .9-.3.3-.5.7-.9 1.1-1.4.3-.4.7-.8 1-1.2.2-.3.4-.5.7-.8.4-.5.9-1 1.3-1.4.4-.5.9-1 1.3-1.4l1-1 1.3-1.3c.7-.7 1.5-1.5 2.1-2.3.2-.3.3-.7.4-1 .1-.4.1-.9 0-1.3 0-.3-.1-.5-.2-.8 0-.1 0-.1-.1-.2-.1-.4-.5-1-1-1-.1-.2-.1-.4-.3-.6l-.3-.3c-.1-.1-.2-.1-.3-.1 0-.1-.1 0-.2 0"/><path id="Fill-28" class="st0" d="M27.6 44.9c-.1.1-.3.1-.4.2-.2.1-.5.3-.7.4-.3.2-.5.3-.8.5-.1 0-.2-.1-.3-.1-.1 0-.2.1-.3.1H25c-.1.1-.2.1-.2.2-.1 0-.3 0-.4.1-.1.1-.3.2-.4.3-.1.1-.3.2-.4.3-.2.3-.5.5-.7.8-.4.2-.7.4-1.1.6-.4.2-.8.5-1.2.7-.5.3-1 .7-1.5 1-.9.6-1.8 1.2-2.7 1.9l-4.7 3.5c-.7.5-1.3 1-1.9 1.6-.4.3-.7.6-1.1.9-.2.2-.4.3-.6.5-.3.2-.5.5-.8.8-.4.4-.5 1-.6 1.5 0 .2 0 .5-.1.7 0 .4.1.8.2 1.2-.2.4-.2 1-.1 1.4 0 .3.1.5.3.8.1.1.3.2.5.2l2.4-.9c0 .1.1.3.1.4-.4.5-.8 1-1.3 1.6-1 1.3-1.9 2.7-2.8 4.2-.3.5-.6 1.1-.8 1.7-.1.1-.1.4-.1.6 0 .4 0 .8.3 1.1.1.1.2.2.4.3.3 0 .4-.3.5-.5l.3-.6c.3-.5.6-1 .9-1.6.1.3.5.7.8.5l1.2-1.2.6-.6c.4-.4.8-.9 1.1-1.3.7-.8 1.3-1.6 1.9-2.5.5-.7.9-1.4 1.2-2.2.1-.3.2-.5.2-.8l.4-.4.9-.9c.5-.4.9-.8 1.4-1.2.4-.4.5-.9.5-1.5.7-.6 1.4-1.2 2.1-1.9.4-.3.7-.6 1.1-1 0 .5.2 1 .4 1.4.2.3.4.4.7.4.5 0 .8-.6.9-.9.4-1.2.9-2.4 1.4-3.6 0 0 0-.1.1-.1.2-.2.4-.3.7-.5.5-.4.9-.7 1.4-1.1.7-.5 1.3-1 2-1.5.3-.3.6-.5.9-.8.5-.7.7-1.7.7-2.5 0-.5-.1-1-.2-1.5l-.3-.6c-.2-.3-.4-.5-.7-.5-.5.1-.9.2-1.2.4"/><path id="Fill-30" class="st4" d="M42.3 229.6s0-.1 0 0c0-.1 0 0 0 0m3 59.3s0 .1 0 0c0 .1 0 0 0 0M42 229.9v.2c.3 2.4.5 4.7.7 7.1.1 1.2.2 2.3.2 3.5.1.8.1 1.6.2 2.3l.3 4.5c.2 3.3.4 6.7.6 10 .4 7 .8 14 1.3 21l.1 2.2c0 .6.1 1.1.1 1.7.1 1.2.1 2.5.2 3.7.1 1.2.1 2.4.1 3.6l-.1-.1c-.1-.2-.3-.4-.4-.6-.4-1-.7-2-.9-3-.2-1.1-.4-2.3-.6-3.4-.1-.7-.3-1.4-.4-2.1-.4-2.1-.7-4.2-1.1-6.3v-.3c-.2-1.9-.4-3.8-.6-5.8-.2-1.6-.3-3.2-.5-4.8 0-.3 0-.5-.1-.8-.1-.8-.1-1.7-.2-2.5-.1-1.9-.3-3.8-.4-5.7 0-.6 0-1.2.1-1.8.2 1.1.3 2.2.5 3.2.4 2.2.8 4.4 1.2 6.5.2 1 .4 2 .7 3.1.3 1.1.5 2.2.8 3.3.1.2.4.1.3-.1-.4-1.6-.8-3.1-1.1-4.7-.2-.7-.3-1.5-.5-2.2-.2-.8-.3-1.7-.5-2.5-.5-2.8-1-5.5-1.4-8.3 0-.8.1-1.6.1-2.4 0-1.1.1-2.3.2-3.4.1-2 .2-3.9.4-5.9.1-1.2.1-2.3.2-3.5.2-1.9.4-3.8.5-5.7m-4.6 43.7c-.4-4.3-.7-8.5-1.1-12.8 0-.5-.1-1-.1-1.4v-.6c-.1-1.8-.2-3.6-.2-5.4-.2-3.6-.3-7.2-.5-10.9v-.9c0-.9 0-1.7-.1-2.6-.1-2.4-.1-4.7-.2-7.1 0-.8 0-1.7-.1-2.5 0 .3.1.6.1.9.3 2.1.5 4.1.8 6.2.1 1 .3 2 .4 3 0 .4.1.7.1 1.1.3 2.2.7 4.3 1 6.5v.3c0 2.7-.1 5.5-.1 8.2v15.2c0 1.7.1 3.4.1 5.2.1-.8 0-1.6-.1-2.4m2-46.4c0-.7 0-1.4.1-2v.8c0 .5 0 1-.1 1.4V227.2m.7.4c0-.6 0-1.1.1-1.7v-1.8c0-.9 0-1.8-.1-2.7l.2.2c.2.2.3.5.4.8.2.5.4 1 .5 1.6.2.6.3 1.3.3 1.9.1.5.1 1.1.2 1.6-.2-.1-.3-.2-.5-.2s-.5.1-.7.3c0 .1-.1.1-.1.2-.1.1-.1.3-.1.5-.1.6-.1 1.1-.2 1.7 0 .5-.1 1.1-.1 1.6v.4c0-.1 0-.2-.1-.3.1-1.3.2-2.7.2-4.1m-6.1-8.8c.2 1.6.3 3.1.5 4.7v5.4c0 2 .1 4 .1 6 0 2.1.1 4.3.1 6.4 0 .7 0 1.4.1 2.1.2 4.2.4 8.5.6 12.7 0 .8.1 1.6.1 2.4v.8c.1 1.3.2 2.5.3 3.8.3 4 .7 8 1 11.9 0 .2 0 .4.1.7.1.9.2 1.7.3 2.6 0 .3.1.7.1 1v11l.1 6.9v2.7c.1 1.2.1 2.4.2 3.5v.2c-.1.2-.2.4-.2.6-.1 1.4-.2 2.8-.1 4.2v1.9c-.1-.8-.1-1.5-.2-2.3v-.3c-.1-.2-.2-.4-.3-.5-.2-.2-.5-.3-.8-.3-.2 0-.4 0-.5.1-.3.1-.4.2-.6.4-.1.2-.2.3-.3.5-.1.2-.2.4-.2.6-.1.4-.2.8-.2 1.2-.1.5-.1 1 0 1.5 0 .9.1 1.7.1 2.6v.5c0 2-.1 4-.1 6 0 1.5-.1 3.1-.1 4.6v1.5c0 1.1.1 2.2.1 3.2.1 2 .2 3.9.2 5.9 0 .3 0 .7.1 1 .1 1.1.2 2.2.3 3.2l.3 3c0 .5.1.9.2 1.4.2 1.8.4 3.5.7 5.3.1.5.1 1 .2 1.5v.7c0 .3.1.6.1.9.1.2.1.3.2.5.1.1.2.3.3.4.1.1.2.2.4.3l.4 2c.1.4.2.7.2 1.1l.1.4v.6c0 .3.1.6.3.8 0 .2.1.4.1.5 0 .1 0 .2.1.3-.1.3 0 .6.1.9.1.4.2.8.2 1.2.1.5.2.9.3 1.4.1.4.2.9.3 1.3v.2c0 .4.1.8.1 1.2 0 .1 0 .1.1.2v.2c0 .2.1.3.1.5 0 .1.1.2.1.3.1.2.2.3.4.4.2.1.5.2.8.1.3-.1.5-.2.6-.5 0-.1.1-.2.1-.3v-.1.2c0 .1.1.2.1.3.2.4.7.6 1.2.5.2 0 .3-.1.5-.3.2-.2.3-.5.3-.7 0-.2 0-.4-.1-.6v-.4-.8c0-.6 0-1.2.1-1.8.1-.7.2-1.4.4-2.1.2-.7.3-1.4.5-2.1.2-.6.3-1.3.5-1.9.1-.4.2-.9.4-1.3.1-.5.3-1 .5-1.5v-.5c-.1-.2-.2-.4-.4-.5-.2-.1-.4-.1-.7-.1-.2.1-.4.2-.5.4-.6 1.3-.9 2.6-1.3 4l-.3 1.2c-.1.4-.3.8-.4 1.3-.1.5-.3 1.1-.4 1.6-.1.3-.1.6-.2.9v-.2c-.1-.4-.1-.9-.2-1.3 0-.2.1-.4.1-.5 0-.3.1-.5.1-.8v-1.1c0-.7-.1-1.3-.2-2s-.2-1.4-.3-2.2c-.1-.4-.1-.8-.2-1.2 0-.7 0-1.3-.1-2 .2-.1.3-.2.4-.4 0 0 0-.1.1-.1.1-.1.1-.3.1-.5 0-.3.1-.5.1-.8 0-.6-.1-1.2-.2-1.8-.1-.5-.2-1.1-.3-1.6-.1-.3-.1-.6-.2-.9-.1-.6-.1-1.2-.2-1.8v-.2c.2.1.4.2.6.2.5 0 .9-.4.9-.9V339h.2c.5 0 1-.4 1-1 0-1.3 0-2.7-.2-4-.1-.8-.2-1.7-.3-2.5-.2-2.2-.4-4.4-.7-6.6-.1-1.2-.2-2.4-.4-3.6 0-.9-.1-1.8-.1-2.7l-.3-6c-.1-1.8-.2-3.5-.3-5.3-.1-1.1-.1-2.2-.2-3.3-.1-2.3-.2-4.6-.3-7 0-1-.1-2-.1-3-.1-3.4-.2-6.7-.4-10.1v-.2c0 .4.1.8.1 1.1 0 .2.1.4.2.6.1.1.3.2.6.2.2 0 .4-.1.6-.2.2-.2.2-.3.2-.6 0-.4.1-.9.1-1.3.3 0 .7-.3.7-.6 0-1.2-.1-2.3-.1-3.5v-1.1c.1.8.3 1.7.4 2.5.2 1 .4 2.1.6 3.1.2 1.2.4 2.4.8 3.6.2.6.4 1.2.6 1.7.2.5.5.9.8 1.3.1.1.3.1.3-.1 0-1.3 0-2.6-.1-3.9l-.2-3.3c-.1-1.2-.1-2.4-.2-3.6-.2-3.2-.4-6.3-.6-9.5-.4-7.1-.9-14.2-1.3-21.3l-.3-5.4c0-.6-.1-1.2-.1-1.8-.1-1.3-.2-2.7-.3-4-.1-1.3-.2-2.7-.3-4-.1-1.2-.3-2.5-.4-3.7-.1-.4-.1-.8-.1-1.2v-.3c-.1-1.1-.2-2.3-.4-3.4-.1-.8-.3-1.6-.7-2.3-.1-.1-.1-.3-.2-.4-.1-.1-.1-.3-.2-.4-.1-.2-.3-.3-.5-.5v-.6-.9c0-.2-.1-.3-.3-.4-.2-.1-.4.1-.5.3-.1.2-.2.4-.2.6-.1.2-.1.5-.2.7-.1.5-.1.9-.1 1.4 0 .6 0 1.1-.1 1.7l-.2-.2c-.1-.1-.3-.1-.4-.1-.2 0-.5.1-.6.2-.1.1-.2.3-.3.4-.1.2-.1.4-.2.7-.1.5 0 1 0 1.4v10.8c0 .8.1 1.6.1 2.3.1 1.1.1 2.2.2 3.4-.1-.8-.2-1.6-.4-2.5-.4-3.4-.9-6.9-1.3-10.3-.2-1.3-.3-2.6-.4-3.9L35 224c0-.8 0-1.5-.1-2.3 0-.5-.1-.9-.1-1.4 0-.2-.1-.4-.1-.6 0-.2-.1-.5-.2-.7 0-.1-.1-.2-.3-.2-.1-.3-.2-.2-.2 0"/></g><g id="Group-56"><path id="Fill-33" class="st4" d="M24.9 110.2s-.1 0 0 0c-.1 0 0 0 0 0"/><g id="Group-37"><defs><filter id="Adobe_OpacityMaskFilter_1_" filterUnits="userSpaceOnUse" x="0" y=".2" width="95.8" height="385.1"><feColorMatrix values="1 0 0 0 0 0 1 0 0 0 0 0 1 0 0 0 0 0 1 0"/></filter></defs><mask maskUnits="userSpaceOnUse" x="0" y=".2" width="95.8" height="385.1" id="mask-4_1_"><g filter="url(#Adobe_OpacityMaskFilter_1_)"><path id="path-3_1_" class="st2" d="M0 .2h95.8v385.1H0z"/></g></mask><path id="Fill-35" d="M41.2 375.4c-.2-.2-.2-.3-.2-.5l-.3-3.9c-.1-1.2-.2-2.3-.2-3.5-.1-2.5-.2-4.9-.3-7.4 0-1-.1-2-.1-2.9 0-1-.1-1.9-.1-2.9-.1-1.7-.1-3.5-.2-5.2 0-.8-.1-1.7-.1-2.5-.1-.9-.1-1.8-.2-2.7-.1-1.9-.2-3.8-.2-5.7 0-.9-.1-1.9-.1-2.8v-3c0-1.8 0-3.6-.1-5.4 0-1.8-.1-3.6 0-5.3 0-1.8.1-3.6.1-5.4v-2.8-2.8c0-.7.1-1.3.1-2v-.8c.1-1.1.1-2.1.2-3.2.1-1 .2-1.9.2-2.9.1-.7.1-1.5.2-2.2.1-1 .2-2 .3-3.1.1-1 .2-2.1.3-3.1.1-.8.1-1.6.2-2.4 0-.8.1-1.6.1-2.4 0-.7.1-1.4.1-2v-1c0-1 0-2.1.1-3.1v-2.8-2.3-2.8c0-1.1-.1-2.2-.1-3.3 0-.9-.1-1.8-.1-2.7 0-.8-.1-1.7-.1-2.5-.1-1.7-.2-3.4-.2-5.1-.2-3.8-.4-7.6-.5-11.4-.1-1.7-.1-3.5-.1-5.2 0-1.8-.1-3.7-.1-5.5v-22-2.7c0-.8.1-1.7.1-2.5V209v-1.4-1.3c0-.4.3-.7.7-.7.4 0 .7.3.7.7 0 .6.1 1.2.1 1.8v1.8c0 1.1 0 2.3-.1 3.4 0 .7 0 1.4-.1 2V241.6c0 1 0 2.1.1 3.1 0 .9.1 1.9.1 2.8.1 1.8.1 3.6.2 5.5.1 3.7.3 7.5.5 11.2.1 1.7.2 3.5.2 5.2 0 .8.1 1.6.1 2.5 0 .9.1 1.9.1 2.8v8.4c0 .9 0 1.8-.1 2.7l-.1 3.3c0 1-.1 1.9-.2 2.8 0 .8-.1 1.6-.2 2.3-.1.8-.1 1.7-.2 2.5-.2 2-.4 4-.5 6-.1.8-.1 1.6-.2 2.4 0 .7-.1 1.3-.1 2 0 .3 0 .6-.1.9 0 .6 0 1.2-.1 1.7V325.1c0 .9 0 1.8.1 2.7v8.2c0 1.7.1 3.4.2 5.1 0 1 .1 2.1.1 3.1 0 .4 0 .8.1 1.2 0 .6.1 1.2.1 1.8.1 1.7.2 3.5.3 5.3.1 1.7.1 3.5.2 5.2.1 1.9.1 3.7.2 5.6 0 1 .1 1.9.1 2.9s.1 2 .2 3c.1 1.9.2 3.7.4 5.6 0 .2-.1.4-.2.5-.1.1-.3.2-.5.2-.5.1-.7 0-.8-.1zm-3.5-.2c-.2-.1-.3-.3-.3-.4-.2-1.3-.5-2.6-.7-3.9-.2-1-.4-2.1-.6-3.1-.1-.5-.2-1.1-.2-1.6-.1-.5-.1-1.1-.2-1.6s-.1-1-.2-1.5c-.1-.7-.1-1.3-.2-2-.1-.9-.1-1.9-.2-2.8-.1-.9-.1-1.8-.1-2.6-.1-1.8-.1-3.6-.1-5.4 0-1.7-.1-3.5-.1-5.2-.1-1.9-.1-3.9-.2-5.8 0-1.9-.1-3.8-.1-5.7v-1.9-.6c0-1.1-.1-2.2-.1-3.2 0-.7 0-1.4-.1-2.2l-.3-3.6c-.1-1.9-.3-3.7-.5-5.6-.1-1.7-.3-3.3-.5-5-.2-1.8-.3-3.6-.5-5.4-.2-2.1-.4-4.1-.5-6.2-.2-1.9-.3-3.8-.4-5.8-.1-1.8-.2-3.5-.3-5.3-.1-.9-.1-1.8-.1-2.7 0-.8-.1-1.5-.1-2.3l-.6-11.4-.3-5.7c-.1-1.1-.1-2.2-.2-3.2 0-.8-.1-1.7-.1-2.6-.1-2-.2-4-.2-5.9-.1-1.9-.1-3.8-.2-5.7-.1-3.7-.3-7.4-.5-11.1-.1-1.7-.1-3.5-.2-5.2v-2.9-2.2c0-2 0-4.1-.1-6.1 0-1.7-.1-3.5-.1-5.2 0-1.8-.1-3.7-.1-5.5 0-1 0-1.9-.1-2.9 0-1-.1-1.9-.2-2.9 0-.4.4-.7.7-.7.2 0 .4.1.5.2.1.1.2.3.2.5.1.9.1 1.9.2 2.8 0 .9.1 1.8.1 2.7 0 1.9.1 3.7.1 5.6 0 1.7.1 3.3.1 5 0 2.1 0 4.1.1 6.2 0 1.8 0 3.5.1 5.3 0 .9.1 1.9.1 2.8 0 .7 0 1.4.1 2.2.1 1.8.2 3.7.2 5.5.1 1.8.2 3.7.2 5.5.1 1.9.1 3.8.2 5.7.1 2 .2 3.9.2 5.9 0 .9.1 1.9.1 2.8.1 1 .1 2 .2 3 .2 3.8.4 7.7.7 11.5l.3 5.7c0 .7.1 1.4.1 2.1 0 1 .1 2 .1 3 .1 1 .1 1.9.2 2.9 0 .8.1 1.5.1 2.3.1 1.9.3 3.8.4 5.6.2 2.1.3 4.1.5 6.2.2 1.9.3 3.7.5 5.6.2 1.6.3 3.3.5 4.9.2 1.8.3 3.7.5 5.5.1 1.2.2 2.5.3 3.7 0 .7.1 1.3.1 2l.1 3.5v2.3c0 1.9.1 3.8.1 5.7 0 .9 0 1.7.1 2.6 0 1.1.1 2.2.1 3.2.1 1.8.1 3.6.1 5.4 0 1.7.1 3.4.1 5.1 0 .9.1 1.8.1 2.8.1 1 .1 1.9.2 2.9.1.9.1 1.8.2 2.7.1.5.1 1 .2 1.6.1.4.1.8.1 1.2.1.6.2 1.3.3 1.9.1.5.2 1.1.3 1.6l.9 4.5c0 .2 0 .4-.1.6-.1.2-.3.3-.4.3h-.2c-.1.1-.2 0-.4 0zm-20-191v.2-.2zm6.2-70.3c-.2 0-.4-.1-.6-.1-.2 0-.4-.1-.6-.2-.3-.1-.5-.3-.7-.4-.2-.1-.3-.2-.5-.4-.3-.2-.5-.4-.7-.6-.3-.3-.7-.5-1-.8-.3-.2-.6-.4-.9-.7-.2-.2-.5-.3-.7-.5-.4-.3-.7-.7-1.1-1l-.4-.4-.6-.6-.1-.1c-.2-.2-.4-.4-.6-.7-.1-.2-.3-.4-.4-.7l-.3-.9c-.1-.6-.1-1.3 0-1.9 0-.2.1-.4.1-.6.3-.1.5-.2.8-.3.1 0 .2-.1.4-.1.2-.1.3-.1.5-.2.1 0 .1-.1.2-.1l.6-.3.2-.1c.1-.1.2-.1.3-.2.1 0 .1-.1.2-.1.3-.1.5-.3.8-.4.3-.1.5-.3.8-.4.4-.2.8-.3 1.1-.5l.2-.1c.5-.2.9-.4 1.4-.6.1-.1.2-.1.4-.2.3-.1.6-.3.9-.4.8-.4 1.6-.9 2.4-1.4l.2-.1c.3-.2.7-.4 1-.6l.3-.2c.4-.2.7-.5 1.1-.7l.1-.1c.6-.4 1.2-.8 1.7-1.1.2-.1.4-.3.6-.4 0 .2.1.4.2.6.2.4.4.7.6 1 .3.4.6.7.8 1.1l.2.2c.1.2.3.3.4.5.2.2.4.5.6.7.4.5.8 1 1.1 1.7l.3.9v.6c0 .1-.1.3-.1.4 0 .1-.1.2-.2.3-.3-.3-.6-.7-.9-1l-.1-.2c-.2-.2-.4-.4-.5-.6l-.3-.3c-.3-.3-.5-.6-.8-.8-.2-.2-.3-.3-.5-.4l-.1-.1-.5-.4c-.2-.2-.4-.3-.6-.5-.2-.2-.4-.3-.6-.5-.3-.2-.6-.4-.8-.6l-.1-.1-.1.2v-.1c-.2-.3-.5-.5-.8-.5H28c-.3.1-.4.2-.6.3-.1.1-.2.3-.3.4v.5c0 .1.1.2.1.3.1.1.1.2.3.3.1.1.2.2.4.3.1.1.3.2.4.2l.9.6c.3.2.5.4.8.5.3.2.7.5 1 .7.2.1.3.3.5.4l.1.1.7.7.2.2c.4.4.9.9 1.3 1.4l.1.1c0 .2.1.3.1.5h-.1c-.3.2-.7.5-1.1.7-.4.2-.9.4-1.2.6h-.1c-.1 0-.2.1-.2.1l-.3-.3c-.3-.3-.6-.5-.8-.8-.6-.6-1.3-1.1-2.1-1.8-.9-.7-1.8-1.5-2.6-2.2l-.6-.6c-.2-.2-.4-.2-.6-.2-.2 0-.4.1-.6.2-.2.2-.2.4-.2.6 0 .2.1.4.2.5 1.2 1.1 2.5 2.2 3.7 3.3.6.5 1.1 1.1 1.6 1.6l.1.2c.4.4.8.8 1.1 1.3.1.2.3.4.4.6 0 .1 0 .1-.1.2s-.1.2-.2.4l-.3.3-.3.3-.6.3c-.1.1-.2.1-.3.2-.2.1-.3.2-.5.3-.1 0-.1.1-.2.1l-.4-.4-.7-.7-.3-.3c-.1-.1-.3-.2-.4-.3-.3-.2-.5-.4-.8-.7-.3-.3-.7-.6-1.2-.9l-.2-.1c-.2-.2-.4-.3-.6-.5h-.1c-.2-.2-.4-.3-.7-.5h-.1c-.2-.1-.4-.3-.7-.4-.3-.2-.7-.3-1.1-.5h-.6c-.3.1-.5.2-.6.5-.1.2-.1.3-.1.5v.2c0 .2.1.3.3.5.3.3.7.5 1 .7.1 0 .2.1.3.1.4.2.8.5 1.2.7.1.1.3.2.4.3.3.2.6.4.8.5.4.2.8.5 1.3.8h.1l.1.1-.1-.1c.2.1.3.2.5.4.1.1.2.2.4.3l.2.1.3.3c.1.1.2.2.4.3.2.2.4.3.6.5.1.1.2.1.3.2 0 0 .1 0 .1.1v.1c-.2.2-.4.4-.6.5l-.9.6-.2.1c-.2.1-.4.3-.7.4-.1 0-.2.1-.4.1h-.3c-.4.3-.5.3-.7.2zm41.8-43.2l.2-.2.1-.1c.7-.5 1.3-1 2-1.4.8-.5 1.5-1.1 2.3-1.7.3-.2.5-.4.8-.6.4-.3.8-.6 1.3-.9.6-.4 1.3-.9 2.1-1.6.3-.2.5-.4.8-.6.6-.4 1.1-.8 1.7-1.3l.4-.3c.3-.2.5-.4.8-.6.3-.2.6-.5.8-.7l.3-.2c.8-.7 1.6-1.4 2.4-2 .7-.6 1.4-1.1 2-1.7.3-.2.5-.5.8-.7l.3-.3c.4-.3.7-.7 1.1-.9.1-.1.2-.2.4-.3.2-.2.4-.4.7-.6.2-.2.4-.4.6-.5l.4-.4.2-.2c.3-.3.6-.5.9-.8l.2-.1c.3-.2.6-.5.8-.7.3-.3.6-.6.9-1 .3-.4.6-.7.9-1.1l.3 2.4c0 .3.1.7.1 1v.3c.1 1.2.3 2.5.3 3.8 0 1.2.1 2.8.1 4.4 0 1.3-.2 2.6-.3 3.8v.1c-.2 1.3-.5 2.6-.8 3.9-.1.4-.2.9-.3 1.3-.2.7-.3 1.5-.4 2.2l-.1.4-.1.5c-.1.7-.3 1.5-.4 2.2-.3 1.6-.6 3.3-1.1 5.1-.2.8-.4 1.6-.7 2.3v.1c-.2.7-.4 1.5-.7 2.2-.6 1.8-1.1 3.2-1.5 4.6l-.3.5c-.2.6-.3 1.2-.5 1.8-.3.9-.6 1.9-.9 2.7-.5 1.5-1 3-1.6 4.6-.2.7-.5 1.5-.7 2.2-.3.8-.6 1.7-.8 2.5-.3.8-.5 1.7-.7 2.6-.1.4-.2.7-.3 1.2-.1.6-.2 1.3-.3 1.8-.1.8-.2 1.6-.2 2.3v.4c-.1.8-.2 1.6-.2 2.3l-.1.6-.3 3.9c0 .6-.1 1.2-.1 1.7-.1.9-.1 1.8-.2 2.8v3.8c0 .7-.1 1.4-.1 2.1v.3c0 .8-.1 1.7 0 2.6.1 2 .1 4 .2 5.7V148.5c0 .3 0 .6.1.9.1 1.1.1 2.1.2 3 0 .4 0 .8.1 1.2 0 .5 0 1.1.1 1.6.1 1 .1 2 .2 3 0 .5.1 1.1.1 1.6 0 .4.1.7.1 1.1v.1c.1.9.1 1.9.2 2.9v1c0 .6 0 1.3.1 1.9.1 1.4.2 2.8.2 4.1 0 .6.1 1.2.1 1.8.1.9.1 2 .3 3.1v.1c.1.5.1.9.2 1.4 0 .5.1.9.1 1.4v.8c-.1 0-.3.1-.4.1h-.4c-.3 0-.7 0-.9.1-.3 0-.5.1-.8.2-1.1.4-2.2.9-3.1 1.3-.6.3-1.2.6-1.7.9l-.3.2c-.4.2-.9.5-1.4.7-.4.2-.8.3-1.2.5l-.9.3c-.2.1-.4.1-.6.2l-2.4.9c-.3.1-.6.2-.9.4-.8.3-1.5.6-2.3.9l-1.5.3c-.6.1-1.2.1-1.8.2l-2.4.3h.1c-1 .1-2 .3-3.1.5-.5.1-1.1.2-1.6.2-.5.1-1 .1-1.5.1s-1 0-1.7.1h-.4c-.7 0-1.4 0-2.1-.1h-.8c-2.3-.1-4.6-.3-6.9-.6h-.2c-.6-.1-1.1-.1-1.7-.2h-.2c-1-.1-2-.3-2.9-.5-.4-.1-.9-.2-1.3-.3l-.2-.1-.9-.2-.7-.2c-.3-.1-.5-.1-.8-.2-.7-.2-1.5-.4-2.2-.7h-.1c-.5-.2-.9-.3-1.4-.5-.2-.1-.3-.1-.5-.2l-.9-.3c-.6-.2-1.1-.4-1.5-.6-.6-.3-1.2-.6-1.7-.9l-.4-.2-.3-.1c-.7-.4-1.5-.8-2.2-1.3-.2-.2-.4-.3-.6-.5l-.7-.7c-.2-.2-.3-.5-.4-.7 0-.1-.1-.3-.1-.5V177v-1.6-3.5c0-1 .1-2 .2-3v-.4c.1-1.1.2-2.2.2-3.3 0-.9.1-1.8.2-2.7.1-1.3.2-2.7.2-4.1V157c0-.7 0-1.3.1-2l.1-1.7.1-1.7c.1-1.1.1-2.3.1-3.4 0-.7.1-1.5.1-2.2 0-.4 0-.8.1-1.2 0-.6 0-1.2.1-1.8 0-.5 0-1 .1-1.5 0-1.2.1-2.3.2-3.5 0-.8.1-1.5.2-2.3 0-.4.1-.8.1-1.2 0-.4.1-.8.1-1.2.1-.7.1-1.4.2-2.2l.1-.8.3-2.7c.1-.6.1-1.3.2-1.9 0-.5.1-.9.1-1.4.1-1 .2-2 .2-2.9.1-.9.1-1.8.2-2.7l.1-.7.1-.7c.1-.4.1-.8.2-1.2 0-.2.1-.3.1-.5v-.2l.1.1c.2.1.4.1.6.2.5.1.9.2 1.4.2h.1c.4 0 .8-.1 1.2-.2.4-.1.8-.3 1.1-.5.8-.5 1.3-.9 1.7-1.3.3-.3.7-.8.8-1.3.1-.2 0-.5 0-.8.1-.1.3-.1.4-.2l.2-.1h.1c.4-.1.7-.3 1-.5.4-.3.8-.6 1-.9.2-.2.3-.4.4-.6.1-.1.1-.3.2-.5s.1-.4.1-.7c0-.3-.1-.6-.2-.9 0-.1-.1-.2-.1-.3.7-.3 1.4-.6 2.1-1 .1-.1.3-.2.5-.3.3-.2.5-.4.7-.6.1-.1.2-.3.2-.5.1-.1.2-.1.3-.2.4-.3.8-.7 1-1.1 0-.1.1-.1.1-.2v-.2c.1-.1.1-.2.1-.4.1-.2.1-.4.1-.7 0-.5-.1-1-.1-1.4-.1-.4-.3-.8-.5-1.2l-.6-.9c-.2-.3-.5-.6-.8-1-.2-.3-.4-.5-.7-.7-.4-.4-.7-.8-1.1-1.3l-.6-.9c0-.1 0-.1-.1-.2v-.1c0-.2-.1-.4-.2-.6.2-.2.5-.3.7-.5.2-.2.5-.3.7-.5.2-.1.4-.3.6-.4l.9-.6.3-.2c.6-.4 1.2-.8 1.7-1.1.2-.1.4-.3.6-.4.9-.5 1.7-1.1 2.5-1.7.1-.1.3-.2.4-.3.2-.1.4-.3.6-.4.4-.3.8-.6 1.3-.9.4-.3.8-.6 1.2-.8.4-.3.9-.6 1.3-.9.5-.3.9-.6 1.4-.9l.9-.6.8-.6c.6-.4 1.1-.8 1.7-1.1.4-.3.7-.5 1.1-.8.4-.3.8-.5 1.2-.8.9-.6 1.8-1.2 2.5-1.8.7-.5 1.5-1 2.4-1.7.2-.1.3-.2.5-.3.2-.1.4-.3.6-.4.2-.1.4-.3.6-.4.2-.1.3-.2.5-.3 1.8-1.2 3.3-2.3 4.7-3.4.4-.3.7-.5 1.1-.8l.1-.1-.1-.2zm-23.3-41c-.3 0-.6-.1-.9-.2.5-.9 1-1.8 1.6-2.9l.4-.7c.1 0 .1 0 .2.1.2.1.4.1.7.1.1.6.1 1.2.2 1.7v.1c0 .3 0 .5.1.8 0 .2 0 .4.1.6 0 .1.1.3.2.4-.3 0-.6.1-1 .1h-.4c-.4 0-.8 0-1.2-.1zm3.6-.2v-.4-.4c0-.3 0-.6-.1-.9 0-.5-.1-1.1-.2-1.8.4-.1.8-.2 1.1-.3.1 0 .2-.1.4-.1v.5c0 .4 0 .7.1 1.1v1.5c0 .1 0 .3.1.5-.4.2-.9.3-1.4.3zm3.2-1.2v-.2-1c0-.8-.1-1.6-.1-2.4h.2c.1-.1.2-.1.3-.2l.1.3c.2.8.5 1.6.7 2.5v.1c.1.3.2.7.3 1-.5.2-1 .3-1.4.4-.1-.1-.1-.3-.1-.5zm3.3 11.5l.1-.1.1-.1.1-.1.1-.1c.3-.2.6-.5.9-.7.2-.2.4-.3.6-.5 1-.8 2-1.5 2.9-2.3.3-.3.7-.5 1-.8.5-.3.9-.6 1.2-.9.9-.6 1.9-1.2 2.8-1.8 1-.6 1.9-1.3 2.9-1.9.2-.1.4-.3.6-.4.3-.2.5-.4.8-.5.3-.2.5-.4.8-.5.2-.1.4-.3.6-.4.2-.1.4-.2.6-.4.7-.4 1.3-.9 2-1.3.4-.2.9-.5 1.4-.7.4-.2.7-.3 1-.4.2-.1.3-.1.5-.2s.5-.3.9-.4c.3-.1.6-.3 1-.4.2-.1.4-.1.6-.2h.1c.3-.1.5-.1.8-.2.6-.1 1.1-.2 1.5-.2h.7c.3 0 .7.1 1 .2.3.1.6.2.9.4.4.2.7.4 1 .7.4.3.8.6 1.2 1 .3.4.7.8 1.1 1.3.4.5.6.8.8 1.2.2.4.4.9.6 1.3l.1.2c.1.2.2.5.3.7.1.2.2.5.3.7.2.5.4 1.1.6 1.6l.1.2c.1.4.3.8.4 1.2.1.4.2.8.2 1.3 0 .1 0 .3.1.4.1.6.2 1.1.3 1.6v.3c.2.3.3.7.5 1v.5c.1.7.3 1.5.4 2.3 0 .5.1 1 .1 1.5V45.5c-.1.4-.2.8-.3 1.1-.4.8-.8 1.5-1.2 2.3v.1c-.1.2-.2.4-.4.6l-.3.6-.3.6c0 .1-.1.1-.1.2l-.2.1c-.2.2-.5.4-.7.6-.3.2-.5.5-.8.7-.2.2-.4.3-.6.5-.1.1-.3.2-.4.4-.4.4-.8.7-1.2 1.1-.7.6-1.4 1.2-2.2 1.9-.3.3-.6.6-.9.8-.4.3-.7.6-1.1 1-.2.2-.5.4-.7.6-.5.4-.9.8-1.4 1.2-.1.1-.2.2-.3.2l-.1.1c-.2.1-.4.3-.5.4l-.2.2c-.3.2-.7.5-1 .7-.4.3-.8.6-1.3.9-.4.3-.9.7-1.3 1-.2.2-.5.4-.7.5-.1.1-.3.2-.4.3l-1.2.9c-.3.3-.7.5-1.1.8-.5.4-1 .7-1.5 1.1-.3.2-.6.4-.8.6-.5.4-1.2.9-1.8 1.4-.5.4-.9.7-1.4 1.1-.5.4-1 .7-1.4 1.1l-.7.5c-.5.4-1 .7-1.4 1-.3.2-.6.4-.8.6-.8.6-1.6 1.1-2.4 1.7-.8.6-1.6 1.2-2.4 1.7-1.4 1-3 2.2-4.7 3.4-.4.3-.9.6-1.3.9l-.9.6c-.4.3-.7.5-1.1.8-.5.3-1 .7-1.4 1-.4.3-.7.5-1.1.8-.4.3-.9.6-1.3.9-.5.4-1.1.8-1.6 1.1-.2.2-.5.3-.7.5-.9.7-1.9 1.2-2.8 1.8-.7.4-1.4.9-2.1 1.3-.4.3-.8.5-1.2.8-.4.3-.7.5-1.1.8-.4.3-.9.6-1.3.9-.4.2-.7.5-1.1.7-.7.5-1.6 1.1-2.5 1.6l-.9.6-1.5.9c-.7.4-1.4.8-2.2 1.2-.3.2-.6.3-.9.4l-.5.3c-.3.1-.7.3-1 .4-1.4.6-2.6 1.1-3.8 1.5-.2.1-.4.2-.6.2l.2-.5.1-.3c0-.1.1-.1.1-.2-.1 0-.1-.1-.2-.1-.1-.1-.3-.2-.4-.3l-.3.3-.1.2c0 .1-.1.1-.1.2v.1c-.1.1-.1.3-.2.4-.1.2-.2.5-.3.7h-.2c-.6.2-1.2.3-1.8.4h-.1c-.2 0-.5.1-.8.1h-1.1c-.6 0-1.3 0-2-.1-.5-.1-.9-.2-1.3-.3-.5-.2-.9-.5-1.3-.7-.3-.2-.7-.5-1-.7l-.2-.1c-.4-.3-.8-.7-1.2-1.3-.2-.2-.3-.4-.4-.7-.2-.3-.3-.5-.4-.8-.3-.6-.4-1.2-.5-1.7-.1-.9 0-1.8 0-2.6.1-.4.1-.7.3-1.1l.3-.3c.4-.7.8-1.3 1.1-2l.1-.2c.2-.5.5-1 .7-1.4l.1-.2.2-.3c.2-.4.5-.7.7-1.1.4-.6.8-1.1 1.2-1.7.5-.7 1.3-1.6 2-2.5.5-.7 1.1-1.3 1.6-1.9l.4-.5c.2-.3.5-.6.8-.9.1-.1.2-.3.4-.4l.3-.3c.2-.2.4-.5.6-.7l.5-.6c.6-.6 1.1-1.2 1.7-1.8 2.1-2.2 4.2-4.4 6.2-6.5 1-1.1 2-2.1 3.1-3.2.6-.6 1.1-1.2 1.7-1.8l.5-.6c.5-.6 1.1-1.1 1.6-1.7l.7-.7 1.6-1.6.7-.7 1.6-1.6.6-.6.6-.6.3-.3.1-.1.6-.6 1-1c.4-.4.8-.8 1.2-1.1.4-.4.8-.8 1.2-1.1l.2-.2.5-.5c.4-.4.8-.7 1.2-1.1.3-.2.6-.5.9-.7l.4-.3 1.2-.9c.3-.2.5-.4.8-.6.7-.5 1.4-1.1 2.1-1.6.2-.2.5-.4.7-.5.5-.4 1-.8 1.5-1.1l1.2-.9c.2-.2.5-.3.7-.5.7-.5 1.5-1.1 2.3-1.7zm-.3-12.7c-.1-.3-.1-.6-.2-.8-.2-.6-.3-1.2-.5-1.7l-.2-.6c0-.1-.1-.2-.1-.3l.6-.3c.3-.2.7-.3 1.1-.5.1.6.2 1.2.4 2 .1.3.1.6.2.9.1.4.3.8.5 1 .1 0 .1.1.2.1-.1.1-.2.1-.3.2l-.2.1-.1.1c-.2.1-.4.2-.5.3l-.3.1-.4.2c-.1-.4-.2-.6-.2-.8zm3.4-1.1c0-.2-.2-.3-.3-.4 0-.2-.1-.3-.1-.5v-.4l-.2-.6c-.1-.7-.3-1.4-.4-1.9v-.1c.2-.1.5-.2.7-.3l.4-.2.1.2c.2.6.4 1.3.5 1.9.1.3.2.7.3 1 .1.2.1.3.2.5 0 .1.1.1.1.2-.4.1-.8.4-1.3.6zm3-1.9c0-.1-.1-.2-.1-.3l-.2-.6-.1-.4-.4-1.4-.2-.7c0-.1 0-.1-.1-.2.2-.1.4-.2.5-.3.1-.1.3-.2.4-.2.3-.2.6-.4.8-.5l.3-.2c.1.5.2 1 .3 1.6v.2c.1.3.1.5.2.8 0 .1.1.3.1.4 0 .1.1.2.1.3 0 0 0 .1.1.1 0 .1.1.1.1.2h-.1l-.2.1c-.4.4-.9.8-1.5 1.1zm3.5-2.4c0-.1 0-.2-.1-.3v-.2c-.1-.3-.1-.6-.2-.9-.1-.7-.3-1.5-.4-2.2.2-.1.4-.2.5-.4.2.5.4 1 .7 1.5v.1c0 .1.1.1.1.2l.2.3.1.1c.2.3.4.5.6.7l-1 .7c-.1.1-.3.3-.5.4zm3.2-2.4l-.3-.6c0-.1-.1-.1-.1-.2-.1-.2-.2-.5-.3-.7-.2-.4-.3-.8-.5-1.2l-.2-.4c.3-.2.5-.4.8-.6l.1.1c.3.4.6.8 1 1.2l.1.2c.3.3.6.7.9 1l-.2.2c-.4.3-.8.7-1.3 1zM44.7 31.4c.6 0 1-.1 1.5-.1.5-.1 1-.1 1.6-.2.5-.1 1-.2 1.5-.4h.1c2.3-.6 4.2-1.3 5.8-2.2.5-.3 1-.5 1.4-.8.4-.2.8-.5 1.3-.8l.5-.3c.7-.4 1.3-.8 2-1.3.9-.6 1.8-1.2 2.7-1.9.5-.4 1-.7 1.5-1.1l.9-.6 1.2-.9c.5-.4.9-.7 1.4-1.1.5-.4.9-.8 1.4-1.2.3-.2.5-.5.8-.7l.2-.1c.3-.3.6-.5.8-.8.4-.4.7-.8 1-1.2.3-.4.7-.8 1-1.2l.6-.9.1-.1c.2.3.4.6.5.8.3.5.7 1 1 1.5.2.3.4.5.6.8.5.8 1.1 1.5 1.6 2.2.7 1 1.4 1.8 2 2.7-.8.2-1.6.4-2.3.6h-.2c-.3.1-.5.2-.9.3-.2 0-.3.1-.5.1-.1 0-.3.1-.4.1h-.1c-.6.2-1.2.5-1.7.7-.4.2-.9.4-1.3.7h-.1l-.1.1-.6.3c-.2.1-.5.2-.7.3l-.8.4c-.3.1-.6.3-.9.5-.4.2-.8.4-1.1.7h-.1l-.1.1c-.4.2-.7.5-1.1.7-.2.1-.3.2-.5.4s-.4.3-.7.5c-.7.5-1.5 1-2.3 1.5-.2.2-.5.3-.7.5-.2.1-.3.2-.5.4s-.5.3-.7.5c-.1 0-.3.1-.4.1-.9.6-1.8 1.2-2.4 1.7l-.3.2-2.1 1.5-.1.1-.1.1h.1l-.2.2-.4.2-.1.1c-.5.4-1 .8-1.6 1.2-.5.4-.9.7-1.4 1.1l-.5.4c-.1 0-.1.1-.2.1-.7.5-1.5 1.2-2.4 1.8-.4.3-.8.6-1.2.8l-.1.1c-.4.3-.9.6-1.2.9-.2.1-.3.2-.5.4-.2.1-.4.3-.6.4-.5.3-.9.7-1.4 1.1l.1-.1-.5.4c-.5.4-1.1.8-1.6 1.2h-.1l-.1.1-.4.3-.1.1c-.9.6-1.7 1.3-2.5 1.9-.5.4-.9.8-1.4 1.2-.3.2-.5.5-.8.7-.3.2-.6.5-.9.7-.4.4-.8.7-1.2 1.1-.7.6-1.4 1.3-2.2 1.9.1-.5.3-.9.4-1.4.1-.5.3-1 .4-1.5.3-1 .6-2.1.9-3.1.3-1 .5-2 .8-3l.1-.2c.3-.9.5-1.8.8-2.6.3-.8.6-1.6.9-2.3l.1-.4c.8-1.9 1.8-3.8 2.9-6 .2-.5.5-.9.8-1.5.6.2 1.2.3 1.9.3.3 0 .6.1 1 .1.4.2.9.1 1.2.1zm21.7-17.1c.2-.1.3-.3.5-.4.3-.2.6-.5.9-.7.1.1.2.1.3.2.3.3.6.6.9.8l.2.2.3.3c.2.1.3.3.5.4l-.3.3c-.2.2-.5.5-.8.7l-.2.2c-.2.1-.3.3-.5.4-.5-.8-1.2-1.7-1.8-2.4zm4.8-1.3c-.2-.3-.5-.6-.8-.9-.1-.1-.2-.2-.4-.3l-.1-.1-.3-.3c.4-.4.7-.8 1-1.1l.2-.2c.1-.1.2-.3.3-.4v.1c.1.1.2.3.4.4.3.5.7 1 1.1 1.5l-.3.3-.3.2c-.2.4-.4.7-.6 1.1-.1-.1-.2-.2-.2-.3zM40.6.2c-.2.1-.4.2-.5.4-.1.1-.1.3-.1.6.1.3.1.6.2.9v.2c0 .2.1.4.1.5 0 .1 0 .2.1.3.1.5.3 1 .5 1.5s.4 1 .7 1.5c.2.4.4.8.6 1.3.2.4.3.9.4 1.3.1.2.1.3.2.5.1.4.3.9.4 1.3.1.2.2.4.2.7.1.3.2.5.3.8.1.4.3.8.4 1.2.2.7.4 1.4.5 2 0 .2.1.5.1.9v.9c-.2 1.2-.5 2.4-1.1 3.7-.4.9-.9 1.8-1.4 2.9l-.3.4c-.4.8-.8 1.5-1.2 2.3-.4.8-.9 1.6-1.4 2.4-.6 1.1-1.3 2.2-1.9 3.4-.6 1.1-1.1 2.1-1.6 3.1-.5.9-.9 1.8-1.5 3.1-.2.6-.5 1.1-.7 1.7-.2.4-.3.8-.4 1.2l-.2.3c-.3.9-.6 2-1 3.2-.3 1.1-.6 2.1-.8 3-.1.5-.3 1-.4 1.5-.1.3-.2.5-.2.8-.1 0-.2.1-.2.1l-.1.1c-.3-.1-.4-.2-.6-.2h-.2c-.1 0-.2 0-.4.1-.1 0-.1.1-.2.1v.1s0 .1.1.1.2-.1.3-.1c.1 0 .3 0 .4.1.2.1.3.3.3.4v.4c0 .1 0 .2-.1.3-.1.1-.1.2-.2.4 0 .1 0 .1-.1.2l.2-.1c-.2.6-.3 1.1-.5 1.7l-.1.2c-.1.4-.2.7-.3 1.1-.1.3-.1.6-.1.9V56.2c-.4.3-.7.7-1.1 1L25.9 59l.1.1-1.1 1.1c-.3.3-.6.5-.8.8l-.8.8-1.3 1.3c-.7.7-1.3 1.4-2 2.1v.1c-.2.4-.5.8-.8 1.2-.2.3-.4.5-.6.8-.2.3-.5.6-.7.9-.1.1-.2.2-.3.4l-.2.2c-.1.1-.2.2-.2.3-.2.2-.5.3-.7.2h-.1c-.2.2-.4.5-.6.7-.1.2-.3.3-.4.5-.1.1-.2.3-.4.4-.1.1-.3.2-.4.3l-.1.1c-.7.8-1.5 1.6-2.2 2.5-1.1 1.5-2.3 3-3.6 4.6-.4.5-.9 1.1-1.3 1.6 0 .2 0 .3-.1.4-.1.2-.3.4-.6.4-.2.3-.4.5-.7.9 0-.3 0-.7.1-1l-.2-.2c-.1-.1-.1-.2-.1-.3-.1-.3-.1-.7-.1-1.1 0-.3-.1-.7-.1-1 0-.4-.1-.8-.1-1.2v-.5c0 .1-.1.2-.1.3-.3.5-.4.9-.5 1.3-.1.4-.2 1-.2 1.5v.3c0 .3-.1.6-.1 1v.2c0 .4-.1.8 0 1.2 0 .6.1 1.1.1 1.6-.4.5-.9 1.2-1.3 1.8-.3.4-.6.9-.9 1.3-.2.3-.3.5-.5.8-.1.1-.2.3-.2.4-.2.3-.4.7-.6 1l-.2.1v.1l-.6 1.2c-.3 1-.3 2-.4 3 0 .5 0 1 .1 1.6.1.4.2.9.3 1.2.1.4.3.8.5 1.2.2.5.4.9.7 1.3.4.6.8 1.1 1.2 1.5.3.4.7.6 1.1.9.1.1.3.2.4.3.4.3.7.6 1.1.8.1.1.2.1.3.2.1 0 .1.1.2.1.3.2.6.3.9.4.3.1.6.2.9.2.2.1.3.1.5.2h.1c.9.4 2 .5 3 .5h.9c.5-.1 1-.1 1.5-.3-.1.3-.1.6-.1.9 0 .4-.1.8 0 1.2 0 .8.2 1.5.6 2.2.2.3.4.6.6.8v.1l.1.1c.2.2.4.4.5.6l.4.4.3.3.2.2c.2.2.4.4.5.6.4.4.8.7 1.3 1 .1.1.2.2.3.2.3.2.5.4.8.6.2.1.3.3.4.4l.3.3c.2.2.5.4.7.6.1 0 .1.1.2.1l.1.1c-.2.1-.4.3-.4.5-.2 1.1-.5 2.4-.6 3.6v.2c-.1.6-.1 1.1-.2 1.7 0 .2 0 .4-.1.6 0 .3-.1.6-.1 1-.1.6-.1 1.2-.2 1.8-.1.6-.1 1.1-.2 1.7-.1 1.2-.2 2.4-.4 3.6v.3c-.1 1-.2 2.1-.3 3.1l-.1 1c-.1.8-.1 1.6-.2 2.3-.2 2.2-.4 4.4-.5 6.9 0 1.2-.1 2.3-.2 3.4 0 .7-.1 1.5-.1 2.2 0 .4 0 .8-.1 1.2 0 .8-.1 1.7-.1 2.5-.1 1.4-.2 2.9-.2 4.3v.6c0 .9-.1 1.9-.1 2.8 0 .7-.1 1.5-.2 2.2 0 .4-.1.7-.1 1.1-.1.7-.1 1.4-.1 2.2 0 .4-.1.9-.1 1.3 0 .5-.1 1.1-.1 1.6s-.1 1.1-.1 1.6c-.1 1.2-.1 2.4-.1 3.5V177.9c0 .3.1.7.1.9 0 .2.1.4.2.6-.2.2-.4.5-.4.8v.7c0 .2.1.3.1.4-.1.1-.2.2-.2.3l-.1.1-.1.1c-.1.2-.1.4 0 .6.2 1.4.5 3.2.8 5.1.3 1.7.7 3.5 1 5.2.3 1.6.6 3 .8 4.3.3 1.8.6 3.5.9 5 .2 1.7.5 3.7.7 5.8.2 2.4.4 4.5.6 6.5.1 1 .2 2 .2 3.1.1 1 .2 2 .2 3.1v.3c.1.9.2 1.9.2 2.8.1 1.1.2 2.1.3 3.1.1 1.5.3 3.1.4 4.6l.1 1.6c0 .5.1 1 .1 1.5.1 1.6.3 3.2.5 4.8.1 1 .2 2 .4 3 .1 1.1.3 2.3.4 3.4.2 2 .4 4 .6 6.4.3 3.3.5 6.7.8 9.9.1.8.1 1.6.2 2.4l.3 4.8.6 8.4c.1 1.8.2 3.6.4 5.4.1 2.2.3 4.5.5 6.7.3 3.7.5 7.5.8 11.2l.1 1.8c0 .6.1 1.2.1 1.8l.3 3.9.1 1.1c.1 1.7.3 3.6.4 5.3 0 .6.1 1.2.1 1.8v1.1c.1 1.1.1 2.2.2 3.4l.1 1.4c.1 1.7.1 3.4.2 5.1.1 4.2.1 8.4.1 12.4v23c0 1.3-.1 2.2-.2 3.1l-.3 1.8c-.2.9-.4 1.7-.5 2.3-.1.5-.1.9-.1 1.4 0 .6.1 1.2.3 1.6.2.6.4 1 .7 1.4.4.5.9 1 1.5 1.4l.6.3c.2.1.5.1.7.2h.1c.4.1.8.1 1.3.2h.1c.4 0 .9.1 1.3.1.8 0 1.7.1 2.6.1.8 0 1.6 0 2.5-.1.2 0 .5 0 .7-.1.2 0 .3 0 .5-.1h1.3c0 .5.1.9.2 1.2l.1.2c.1.5.3 1.1.5 1.6.3.5.6 1 1 1.5.2.2.4.3.6.5.1.1.3.1.4.1 0 .2.1.3.2.5.1.3.2.6.3.8l.1.1c.1.2.3.4.6.6l.2.2c.2.1.5.2.7.3.2.1.4.1.5.1.3.1.7.1 1 .1.9.1 1.8.2 2.9.2H53c.7 0 1.3-.1 1.8-.2s1-.3 1.5-.5c.1-.1.3-.1.4-.2.1 0 .1-.1.2-.1.1-.1.2-.1.4-.2.3-.1.6-.2 1-.3.2-.1.5-.1.9-.2.8-.1 1.7-.1 2.5-.2h.3c.9 0 1.9-.1 3.1-.3.6-.1 1.1-.2 1.8-.3.5-.1.9-.2 1.3-.4h.1c.5-.2.9-.3 1.4-.5.6-.2 1.1-.5 1.6-.8.4-.3.8-.6 1.2-1 .4-.4.8-.8 1.2-1.3.4-.6.7-1.2.8-1.8.1-.5.2-1.1.2-1.7.1-.9 0-1.8 0-2.7v-.3c0-1.1-.1-2.2-.2-3.1l-.1-.6c-.1-.7-.1-1.3-.2-2-.1-.8-.1-1.6-.1-2.3v-.2c0-1 0-2-.1-2.9v-.9c0-.5-.1-1.1-.1-1.7v-3c0-.8 0-1.6.1-2.4 0-1.2.1-2.1.1-3 0-.7.1-1.5.2-2.2v-.5c.2-1.1.3-2 .4-2.8.1-.4.1-.7.2-1.1.1-.6.2-1.3.3-1.9.3-1.9.5-3.7.7-5.6l.2-1.5c.1-.7.2-1.5.3-2.2 0-.3.1-.7.1-1 .1-.7.2-1.3.3-2 .1-.4.1-.8.2-1.2.1-.4.1-.8.2-1.2.1-.6.2-1.2.2-1.8.1-1.2.3-2.4.4-3.5.3-2.5.6-5 .9-7.9l.2-1.4.2-1.5c.1-.9.2-1.7.3-2.6 0-.3.1-.6.1-.9.1-.8.2-1.6.2-2.4l.1-.6c.1-1.2.2-2.3.3-3.5.4-4.3.8-8.7 1.3-13l.3-3c.3-3.1.7-6.4 1-9.6.1-1.6.3-3.2.4-4.8.2-2.8.5-5.7.7-8.5.2-1.9.3-3.8.4-5.7l.1-1c.1-1.9.2-3.8.3-5.6v-.8c.1-1.1.1-2.1.2-3.2v-.4c0-.3 0-.6.1-.9v-1.9-.4-2.9-3.4V231.8c0-.8 0-1.8-.1-2.8v-.6c0-.9-.1-1.8-.2-2.7-.1-1.2-.2-2.4-.2-3.5 0-.3 0-.7-.1-1 0-.6-.1-1.3-.1-1.9v-.5-2.8c0-2-.1-4.1-.1-6.1v-.8c0-1.6-.1-3.2-.1-4.8v-.3c0-.7-.1-1.4-.1-2.1-.1-1-.2-1.9-.3-3-.2-1.9-.3-3.8-.4-5.6v-.2-1.1c0-1 .1-2.1.2-3.1v-.2c.1-1 .3-2 .3-3.1v-.7c.1-.6.3-1.2.5-1.7.1-.2 0-.4-.1-.6-.1-.2-.3-.3-.5-.4V181.3v-2.6c0-1-.1-1.9-.1-2.8 0-.3-.1-.6-.1-.8v-.4c0-.4-.1-.8-.1-1.4 0-.6-.1-1.2-.1-1.8v-1.2c0-.9-.1-1.9-.1-2.9v-.9c0-.7-.1-1.3-.1-2 0-.9-.1-1.9-.1-2.9 0-.7-.1-1.5-.1-2.2v-.7c-.1-1-.1-1.9-.1-2.9v-1.1c0-.6-.1-1.3-.1-1.9 0-.9 0-1.8-.1-2.7v-.7c0-.7-.1-1.5-.1-2.2 0-.5 0-1-.1-1.4v-.9-.4-5.6-5.9-1-1.8c0-.9.1-1.8.1-2.8 0-1 .1-2.1.1-3.1v-.4c0-.8 0-1.5.1-2.3l.3-4.5.1-1.3.3-3.3.1-.6c.1-.5.1-1 .1-1.5.1-.6.1-1.3.2-1.9.3-1.6.7-3.2 1.3-5.1.4-1.1.8-2.3 1.1-3.4.1-.4.3-.9.4-1.3l.2-.7c.2-.5.4-1.1.5-1.6.2-.5.4-1.1.6-1.6.1-.3.2-.5.3-.8l.9-2.7c.1-.4.3-.9.4-1.3.1-.4.2-.8.3-1.1.3-1 .6-1.9.9-2.9.2-.5.3-1 .5-1.5.5-1.6 1-3.2 1.4-4.7.2-.9.4-1.8.6-2.6.1-.7.3-1.4.4-2.1l.1-.5v-.2c.3-1.7.6-3.5 1-5.2.1-.3.2-.7.2-1 .1-.6.3-1.1.4-1.7.2-1 .4-2.1.5-3 .1-.9.2-1.8.3-2.6.1-1 0-1.9 0-2.8 0-1.8-.1-3.7-.3-5.6-.1-.5-.1-1-.2-1.4-.2-1.4-.3-2.8-.5-4.2-.1-.9-.3-1.8-.6-2.7-.2-.8-.5-1.7-.8-2.6l-.9-2.4c-.4-1-.8-1.9-1.2-2.7l-.6-1.2c-.5-1.1-1.1-2.3-1.7-3.4-.2-.4-.4-.7-.6-1.1-.2-.4-.4-.7-.7-1.2l-.3-.6-.3-.6-.6-1.2c-.3-.6-.7-1.2-1-1.8-.4-.7-.8-1.5-1.3-2.2l-.2-.3c-.3-.5-.5-1-.9-1.5l-1.2-1.8-.2-.3c-.4-.5-.7-1-1.1-1.5l-.3-.4c-.4-.5-.7-.9-1.1-1.4-.3-.5-.7-.9-1-1.4-.5-.7-1.1-1.4-1.6-2.1-.5-.7-1-1.5-1.6-2.3-.6.3-1.2-.5-1.8-1.2-.6-.7-1.2-1.4-1.8-2l-.5-.5c-.5-.5-.9-.9-1.3-1.4-.1-.2-.2-.4-.4-.6-.1-.4-.3-.8-.4-1.2-.1-.3-.2-.7-.3-1l-.1-.6c-.1-.5-.6-.8-1.1-.8h-.3c-.6.2-.9.8-.8 1.4.1.3.2.6.2.9.1.5.3 1.1.4 1.7.1.4.3.8.5 1.2.2.3.4.6.7.9h.3c.4.5.8.9 1.2 1.3-.8 1-1.5 1.8-2.2 2.5-.9.9-1.8 1.6-2.7 2.3l-.4.3c-1.4 1.1-2.8 2.2-4.3 3.2-.8.6-1.6 1.1-2.5 1.7-.3.2-.6.4-.9.5-.1.1-.3.2-.4.2-.3.2-.6.3-.9.5-.1.1-.3.1-.4.2-.2.1-.4.2-.7.3-.1 0-.2.1-.3.1-.3.1-.6.3-.9.4-.6.3-1.4.6-2.2 1l-.3.2-1.8.9-.3.4c-.7.3-1.3.7-2 1-.5.2-.9.3-1.3.4h-.9l.3-.5.1-.2c.6-1.2 1.1-2.3 1.4-3.2.2-.5.3-1 .4-1.5v-.1c.2-.6.2-1.1.3-1.7.1-.6.1-1.1.1-1.6 0-.3-.1-.6-.1-.9 0-.3-.1-.5-.2-.8-.2-.8-.5-1.7-.9-2.6-.3-.8-.6-1.6-1-2.4-.1-.2-.1-.4-.2-.6-.1-.2-.2-.5-.3-.7-.2-.4-.3-.8-.5-1.3v-.1L43.1 5c-.2-.4-.4-.7-.6-1.1-.2-.5-.4-1-.5-1.4-.2-.6-.3-1.2-.4-1.8-.1-.4-.5-.6-.8-.6-.1.1-.1.1-.2.1z" mask="url(#mask-4_1_)" fill-rule="evenodd" clip-rule="evenodd" fill="#161616"/></g><path id="Fill-38" class="st4" d="M27.6 374.8c-.8.2-1.6.4-2.3.6-.6.1-1.1.3-1.6.5-1.1.3-2.1.7-3.2 1.1-1.1.4-2.1.7-3.2 1.1-1.2.4-2.3.8-3.5 1.3-1.1.4-2.1.9-3.2 1.4-1 .4-1.9.9-2.8 1.5-1.1.6-2 1.4-3 2.2-.4.3-.8.7-1.2 1l-.5.5c-.2.2-.4.5-.5.8-.1.2-.2.5-.3.8-.2.5-.3 1-.4 1.6-.1.5-.2 1.1-.1 1.6 0 .4.1.8.1 1.3 0 .2.1.4.2.7.1.4.3.8.6 1.2l1.2 1.5c.4.5.9.9 1.5 1.3.7.4 1.4.6 2.1.9.2.1.5.1.8.2.3.1.5.1.8.1.7.1 1.4.2 2.1.2 1.1.1 2.2-.2 3.3-.5.6-.1 1.2-.3 1.8-.4 1.3-.3 2.7-.6 4-.9.6-.2 1-.7 1-1.3 0-.4-.1-.7-.4-1-.2-.2-.6-.4-1-.4-1.3.2-2.6.3-3.8.5l-2.1.3c-.6.1-1.3.2-1.9.3-.6.1-1.3 0-1.9-.1-.9-.1-1.8-.3-2.6-.6-.2-.1-.5-.2-.7-.4-.6-.5-1.1-1-1.5-1.6-.1-.1-.2-.3-.2-.4-.1-.4-.2-.7-.3-1.1 0-.5 0-1.1.1-1.6.1-.3.1-.7.3-1 .1-.1.1-.2.2-.3.8-1 1.8-1.8 2.8-2.6 1.1-.8 2.3-1.7 3.5-2.3.6-.3 1.3-.7 2-1 .7-.3 1.3-.6 2-.9.9-.4 1.8-.7 2.7-1.1 1-.4 2.1-.7 3.1-1.1 1-.4 2-.8 3.1-1.1.5-.1 1-.3 1.5-.4.7-.2 1.5-.4 2.2-.6.4-.1.7-.6.6-1-.1-.4-.4-.6-.8-.6-.4-.2-.5-.2-.6-.2"/><path id="Fill-40" class="st4" d="M66.9 404.2l-.1.1.1-.1m.4-21.9c-.2.7-.1 1.4-.1 2 0 .6.1 1.2.1 1.7.1 1.1.1 2.2.1 3.3 0 .6 0 1.1.1 1.7v1.6c0 1.2 0 2.3-.1 3.5-.1 1.7-.3 3.5-.5 5.2-.1.9-.3 1.9-.4 2.8v.1c-1 .1-1.9.2-2.9.3-1.2.1-2.3.2-3.5.3-1.1.1-2.1.1-3.2.2-.6 0-1.1.1-1.7.1-.6 0-1.2.1-1.7.1-.3 0-.5 0-.8.1 0-.1-.1-.1-.1-.2-.1-.1-.1-.3-.2-.4-.1-.2-.3-.4-.4-.5-.3-.3-.5-.4-.9-.5-.5-.2-1.1-.1-1.6 0l-1.2.3c-.3.1-.7.2-1 .2-.4 0-.9 0-1.3.1-.5 0-1.1.1-1.6.1-1.1.1-2.2.1-3.2.1-2.3.1-4.6 0-6.9 0-1.8 0-3.5 0-5.3-.2-.9-.1-1.8-.2-2.7-.2-.8-.1-1.6-.1-2.4-.2-.4-.1-.7-.1-1.1-.2-.4-.2-.7-.4-1.1-.7-.1-.1-.3-.2-.4-.4-.2-.2-.3-.4-.4-.7 0-.1-.1-.2-.1-.4v-1.1c.1-.5.2-1 .4-1.5.1-.2.2-.4.4-.6.4-.5.8-1 1.3-1.5.3-.3.6-.6 1-.9.2-.2.4-.3.6-.5.5-.4 1.1-.8 1.7-1.2.6-.3 1.1-.6 1.7-.9.8-.3 1.5-.6 2.2-.9 1.1-.4 2.2-.9 3.2-1.4 1-.4 1.9-.9 2.9-1.4 1-.5 2.1-1 3.1-1.5s1.9-1 2.8-1.5c1.5-.8 3.1-1.6 4.6-2.5.5-.3.7-1 .4-1.5-.3-.5-1-.7-1.5-.4-1.2.7-2.4 1.3-3.6 1.9-1.1.5-2.2 1.1-3.4 1.5-2 .8-4 1.6-6.1 2.3-1.1.4-2.1.8-3.2 1.2-1 .4-2 .7-2.9 1.1-.6.2-1.2.5-1.8.8-.5.3-.9.6-1.4.9-.5.4-1.1.8-1.6 1.2-.5.4-.9.8-1.3 1.2-.4.4-.7.8-1.1 1.2-.4.5-.8 1-1.1 1.5-.6 1.2-.9 2.5-.9 3.9v.7c.1.4.1.8.2 1.1.2.4.3.8.6 1.2.3.4.6.8.9 1.1.3.3.7.6 1.1.9.2.2.5.3.7.4.5.3 1.1.5 1.7.6.5.1.9.1 1.4.2.6.1 1.1.1 1.7.1.6 0 1.1.1 1.7.1l3.3.3c2.3.1 4.7.1 7 .1 2.2 0 4.4 0 6.6-.1.5 0 1-.1 1.5-.1s1 0 1.5-.1l1.8-.3c.2-.1.4-.1.6-.2.1.4.3.7.6 1 .3.2.5.4.8.5.2.1.5.1.7.1h1.2c.5 0 1.1-.1 1.6-.1.6-.1 1.2-.1 1.7-.1 1.1-.1 2.3-.1 3.4-.2s2.1-.1 3.2-.2l3-.3c.2 0 .4 0 .6-.1.1 0 .3 0 .4-.1.3 0 .5-.1.7-.1.2-.1.5-.2.7-.3.2-.1.3-.2.5-.4.2-.1.3-.3.4-.5.2-.3.3-.7.4-1.1.1-.3.1-.7.1-1v-.4c.2-1.1.3-2.2.4-3.3.1-1.1.3-2.2.3-3.4.1-1.1.1-2.2.1-3.4v-1.7c0-.6 0-1.2-.1-1.8-.1-1.2-.1-2.5-.1-3.7 0-.3-.1-.7-.1-1 0-.3-.1-.7-.1-1 0-.8 0-1.5-.2-2.3-.2-.7-.8-1.2-1.5-1.2-.1.3-.8.8-.9 1.5"/><path id="Fill-42" class="st4" d="M40.9 392.7c0 .1-.1.1-.1.2 0 0-.1 0-.1-.1-.2-.1-.3-.1-.5-.2-.2 0-.3 0-.5-.1-.3 0-.6.1-.9.2-.1.1-.3.2-.4.3-.2.2-.3.4-.4.7-.3-.2-.7-.2-1-.1-.3.1-.6.3-.8.6l-.1.1c-.1.2-.2.4-.2.7V395.6c-.4-.2-.9-.4-1.4-.3-.2 0-.5.2-.6.3-.1.1-.2.2-.2.3 0 .1-.1.2-.1.3 0-.1-.1-.1-.1-.2-.2-.3-.4-.5-.6-.7-.2-.2-.5-.2-.7 0l-.2.2c-.1.1-.1.2-.2.4V398.8c0 .2.2.4.4.4s.4-.2.4-.4V397c.1.2.2.5.3.7.1.2.1.3.2.5.1.3.2.7.4 1 .2.4.8.5 1.2.3.1-.1.2-.2.3-.2.1-.1.2-.4.3-.5.1-.2.1-.4.1-.6.2.1.3.2.5.3.2.1.4.2.7.2.3 0 .5-.1.7-.2.2-.1.4-.4.5-.5.1-.1.1-.2.2-.3.2.1.3.3.6.3.3.1.6.1.9 0 .2-.1.4-.2.6-.4.1-.1.2-.3.3-.4.1-.2.2-.4.2-.7 0 0 .1 0 .1.1.2.1.5.2.7.2h.5c.2-.1.6-.2.7-.4.1-.1.2-.2.3-.4v-.1c.1.1.2.3.4.4l.5.5c-.1.2-.2.3-.3.5-.1.2-.1.3-.1.5 0 .3.1.5.3.7.4.4 1.1.4 1.5 0 .1-.1.2-.2.4-.3.2-.2.4-.4.5-.6.2-.3.3-.7.3-1 0-.3-.1-.5-.2-.7-.1-.2-.2-.4-.4-.5-.4-.5-.8-.9-1.2-1.4-.2-.2-.4-.4-.5-.6l-.6-.6-.3-.3c-.1-.1-.2-.2-.4-.3-.2-.1-.4-.2-.7-.2-.4 0-.9.2-1.2.7"/><path id="Fill-44" class="st4" d="M28.5 399.1s-.1 0-.1.1l.1-.1m25.3-10.8c-.1.1-.3.1-.4.2-.1 0-.1.1-.2.1-.1.1-.3.1-.4.2-2.1.9-4.2 1.6-6.2 2.4-.9.4-1.9.7-2.8 1.1-1 .4-1.9.8-2.9 1.2-2.1.9-4.1 1.8-6.2 2.8-.4.2-.7.3-1.1.5-.2-.3-.3-.7-.5-1-.1-.3-.5-.5-.8-.6-.3-.1-.7-.1-1 .1-.2.1-.4.3-.5.5-.1.2-.2.4-.2.7 0 .2 0 .4.1.6v.2c0 .1 0 .1.1.2h-.1c-.1 0-.3 0-.5.1-.1 0-.3.1-.4.2-.2 0-.3 0-.5.1-.3.1-.7.5-.6.8v.4c-.2.1-.3.1-.5.2-.1 0-.1.1-.2.1-.4.1-.6.5-.5.8.1.4.5.6.8.5.2-.1.4-.1.7-.2 0 .1.1.2.1.4l.3.6c.2.4.4.9.8 1.1.3.2.6.2.9.1.3-.1.6-.3.7-.5 0 0 0-.1.1-.1s.2.1.3.1c.2.1.5.1.7 0 .2 0 .3-.1.5-.2.1-.1.2-.1.3-.2.2-.2.3-.4.3-.6.1-.2.1-.5.1-.7 0-.3 0-.6-.1-.8.3-.2.5-.5.5-.8 0-.2-.1-.4-.1-.5.9-.4 1.7-.7 2.6-1.1 1.1-.5 2.2-.9 3.3-1.3.8-.3 1.6-.7 2.5-1 .7-.3 1.5-.5 2.2-.8.4-.1.8-.3 1.1-.4 1.1-.4 2.2-.7 3.4-1.1.4-.1.8-.3 1.3-.4.4-.1.8-.2 1.2-.4.2 0 .3-.1.5-.1.2.2.4.2.7.2.3 0 .6-.1.8-.3h.1l.6-.3c.4-.2.8-.4.9-.8.1-.2.2-.4.2-.7 0-.4-.1-.7-.4-1-.2-.2-.4-.3-.6-.4h-.4c-.2-.3-.4-.3-.6-.2"/><path id="Fill-46" class="st4" d="M47.5 389c-.3.3-.5.6-.5.9v.5c-.1 0-.1-.1-.2-.1 0 0-.1 0-.1-.1-.2-.1-.4-.2-.6-.2-.4 0-.8.1-1.1.4-.2.2-.3.4-.3.6-.1-.1-.3-.1-.5-.1s-.4.2-.4.4v.5c0 .1.1.3.1.4.1.2.1.4.2.5.1.4.2.7.3 1.1.1.2.3.4.6.4.1.2.1.3.2.5.1.3.2.7.4 1 .2.4.7.5 1.1.4.4-.1.7-.5.7-.9v-.4-.2l.6.3h.3c.2 0 .4-.1.6-.2.3-.2.5-.4.6-.7 0-.2.1-.3.1-.5.2.3.5.6.7.8.3.3.7.6 1.1.9.2.1.4.2.7.2.4 0 .7-.1.9-.4.2-.2.4-.6.4-.9 0-.3-.1-.7-.4-.9-.5-.5-1-1-1.4-1.6l.1.1-.6-.9c-.1-.2-.3-.4-.4-.6-.1-.2-.3-.4-.5-.7l-.5-.5c-.1-.1-.2-.1-.3-.2-.2-.1-.4-.2-.7-.2-.5 0-.9.2-1.2.4"/><path id="Fill-48" class="st4" d="M6.6 389.9s.1 0 0 0c.1 0 0 0 0 0m26.6-11.4c-.3 0-.5.1-.7.3-.2.1-.3.2-.5.4-.1.1-.2.2-.2.3-.3.1-.7.2-1 .4-.8.3-1.7.6-2.5.9-.7.3-1.5.5-2.2.8 0-.1-.1-.2-.1-.3l-.3-.6c-.2-.2-.3-.3-.6-.3-.5-.1-1.2.1-1.4.6-.1.2-.2.3-.2.5 0 .1 0 .3-.1.4v.2c-.1-.1-.1-.2-.2-.3-.2-.2-.5-.4-.8-.5-.4-.1-.7-.1-1 .1-.2.1-.4.3-.5.5-.2-.4-.6-.6-1.1-.6-.3 0-.6.1-.9.4-.2.2-.4.6-.4.9V384.3c-.1-.2-.3-.5-.5-.7-.4-.4-1-.6-1.5-.5-.2.1-.5.2-.7.4-.1.1-.2.2-.3.4-.1-.1-.3-.2-.4-.2-.2-.1-.4-.1-.6 0-.2.1-.4.2-.5.3-.1.1-.1.2-.2.2-.1.2-.2.4-.2.6v1.7c-.1-.1-.1-.2-.2-.3-.2-.3-.3-.6-.5-.8l-.3-.3c-.2-.1-.5-.2-.7-.1-.2.1-.4.2-.6.4-.1.2-.1.4-.1.6v.4c0 .2.1.4.1.6 0 .1.1.3.1.4-.6.3-1.2.5-1.8.8-1.2.5-2.4 1.1-3.5 1.7-.5.3-.4 1.1.2 1.2.2 0 .3.1.5 0 .2 0 .4-.1.6-.1.4-.1.7-.3 1.1-.5-.1 0-.1 0-.2.1.7-.3 1.4-.6 2.1-1 .4-.2.9-.4 1.3-.6 0 .1 0 .3.1.4 0 .1.1.2.2.3.2.2.4.2.6.2.2 0 .3-.2.4-.3v.1c.1.1.1.2.2.3.1.1.1.2.2.3.1.1.2.2.4.3.3.1.5.2.8.1.3-.1.5-.3.7-.5.1-.1.1-.2.2-.3 0-.1.1-.1.1-.2 0 .1.1.1.2.1.2.2.3.3.6.3.2.1.5.1.7 0 .4-.1.8-.5.9-.9.1-.3.1-.7.1-1 .1.1.2.1.3.1.1 0 .3 0 .4.1.2 0 .5-.1.7-.2.3-.2.6-.4.8-.7 0-.1.1-.1.1-.2v.1c.1.1.2.2.3.2.2.1.4.2.6.2.1 0 .3 0 .4-.1.2 0 .5-.2.6-.4.2-.2.3-.5.4-.7 0-.1.1-.3.1-.5v-.1c.1 0 .1.1.2.1.5.1 1.1 0 1.4-.4.2-.2.3-.4.4-.6h.4c.2 0 .5-.1.7-.1.2 0 .4-.2.6-.2.2-.1.4-.4.5-.6.1-.3 0-.6-.1-.8-.1-.2-.2-.3-.3-.5h.1c.7-.2 1.5-.4 2.2-.7.6-.2 1.1-.3 1.7-.5l1.2-.3c.1 0 .2.1.2.1.3.1.7.1.9-.1.1-.1.3-.2.4-.3.1 0 .2-.1.3-.1.1 0 .3-.1.4-.1.1 0 .2-.1.3-.1.3-.2.5-.4.5-.7.1-.5-.1-1.1-.5-1.3-.3-.2-.5-.2-.8-.2.1-.1-.1-.1-.3-.1"/><path id="Fill-50" class="st4" d="M42.5 237.7c.1 1.2.1 2.5.2 3.7V241.7l-.3-3.6c0-.2.1-.3.1-.4m-2.9-8.3v0m0-25.8v1.6c0 .5.1 1 .1 1.5v.3c-.1.1-.1.1-.1.2-.2-.1-.4-.1-.6-.1-.1 0-.2.1-.3.1-.2-.3-.7-.4-1-.3-.3.1-.5.2-.6.5 0 .1-.1.2-.1.2v.5c.2 1.1.4 2.2.5 3.4.1.7.2 1.5.3 2.2l.3 2.1c.1.5.1 1 .2 1.6.1 1.4.3 2.8.4 4.2.1 1.2.2 2.4.3 3.5 0 .2 0 .4.1.6 0 .4.1.8.1 1.2.1 1.6.2 3.3.3 4.9.1.8.1 1.7.2 2.5.1.7.1 1.3.2 1.9.1.6.3 1.2.4 1.8 0 .1.1.2.1.3.1 1.5.3 3.1.4 4.6.2 2.5.4 4.9.7 7.4.1.9.2 1.7.3 2.6 0 .2 0 .4.1.6 0 .2.1.5.1.7v1c.1.2.2.4.4.5.1.1.3.1.5.1s.5 0 .7-.2c.1 0 .1-.1.2-.2 0 .3.1.6.1.8.1.5.1 1 .2 1.4 0 .1.1.2.2.3.1.1.3.2.5.2.3 0 .6-.2.7-.5.1-.4.3-.8.4-1.3 0-.3.1-.5.1-.8v-.1c.1.1.3.1.5 0 .3-.1.5-.3.5-.6v-3.1-1.5-.7-.6c0-.4-.1-.8-.1-1.2-.2-1.9-.3-3.8-.5-5.7-.1-.8-.1-1.6-.2-2.3 0-.3 0-.7-.1-1-.1-.8-.2-1.5-.3-2.3 0-.5-.1-.9-.1-1.4l-.6-7.8c-.1-1.4-.2-2.9-.4-4.3 0-.3-.1-.6-.1-1-.1-1-.2-1.9-.3-2.9-.1-.8-.2-1.5-.2-2.3-.1-.6-.1-1.3-.2-1.9 0-.5-.1-1-.1-1.5 0-.2 0-.3-.1-.4v-.2c.1 0 .1 0 .2-.1s.2-.1.2-.2c.1-.1.1-.2.1-.3 0-.3.1-.6.1-1v-1c0-.4-.1-.7-.1-1.1 0-.4-.1-.9-.1-1.3 0-.5-.1-1-.1-1.4v-.1-.3c0-.3-.1-.7-.1-1v-.7c0-.1-.1-.2-.2-.2s-.2.1-.2.2c0-.2-.2-.3-.3-.4-.2-.1-.4-.1-.5-.1-.2.1-.3.2-.4.3 0 .1-.1.1-.1.2-.1.1-.1.2-.2.4s-.1.5-.1.7v.1c0 .1-.1.1-.1.2s-.1.2-.1.3c0 .1 0 .3-.1.4v4.4c-.1-1.1-.2-2.3-.3-3.4v-.3c0-.5-.1-1-.1-1.4 0-.5-.1-1.1-.2-1.6-.1-.2-.2-.5-.3-.7-.1-.1-.1-.2-.2-.3-.1-.1-.2-.1-.3-.2h-.1c-.3.5-.5.7-.5.8"/><path id="Fill-52" class="st4" d="M15.9 52.5l-.1.1s.1 0 .1-.1m28.7-35c-.2 0-.4 0-.6.1-.3.1-.4.2-.7.4-.2.2-.3.3-.4.5-.3.3-.6.7-.8 1-.6.7-1.2 1.3-1.7 2-.7.8-1.3 1.6-1.9 2.4-.6.8-1.2 1.5-1.7 2.3-1 1.3-2 2.5-2.9 3.8-1.3 1.6-2.6 3.2-3.9 4.9-1.4 1.7-2.8 3.4-4.2 5.2-1.1 1.3-2.1 2.6-3.1 3.9l-3.3 4.2-3.3 4.2c-1.3 1.7-2.6 3.3-3.9 5-.7.8-1.3 1.7-1.9 2.6-.7.9-1.4 1.8-2 2.8-.6.8-1.1 1.6-1.6 2.4-.3.4-.5.8-.8 1.2-.1.2-.2.3-.3.5-.5.1-.6.3-.7.5-.1.2-.2.4-.4.6-.1.2-.2.5-.4.7-.1.3-.2.6-.4.8l-.3.9c-.1.3-.1.6 0 1 .1.3.3.6.5.9.3.4.7.7 1 1l.2.2v-.1-.1c0-.3-.1-.7-.1-1 0-.1 0-.2.1-.3 0-.2 0-.4-.1-.6v-.1-.3c0-.2.1-.4.2-.6.4-.8.8-1.6 1.3-2.4.4-.6.9-1.2 1.3-1.8l1.5-2.1c.4-.6.9-1.1 1.3-1.7 1.3-1.6 2.6-3.3 3.9-4.9.6-.8 1.3-1.5 1.9-2.3.7-.9 1.5-1.8 2.2-2.7 1.3-1.6 2.6-3.2 4-4.8 1.3-1.6 2.6-3.3 4-4.9 2.8-3.4 5.5-6.7 8.3-10 .8-1 1.6-2 2.4-3.1.9-1.1 1.7-2.2 2.5-3.2.4-.6.9-1.1 1.3-1.7.5-.6 1-1.2 1.4-1.8.4-.5.9-1.1 1.4-1.6.2-.3.5-.5.7-.8l.3-.3c.1-.1.1-.2.2-.2.3-.1.6-.3.8-.6.3-.4.2-1.1-.2-1.4-.1-.1-.2-.2-.4-.3-.1 0-.2-.1-.3-.1 0-.1-.2-.2-.4-.2.1 0 .1 0 0 0"/><path id="Fill-54" class="st4" d="M31.9 54.2c-.1.1-.3.2-.4.2-.1.1-.3.2-.4.3l-.9.6c-.6.4-1.1.9-1.7 1.4-.3.2-.5.4-.8.7-.3.2-.5.4-.7.7-.5.5-1 .9-1.5 1.4-1 .9-2 1.9-3 2.9L21 63.9c-.5.5-.9 1-1.4 1.5-.2.3-.5.6-.7.8-.2.2-.4.4-.6.7-.5.5-.9 1.1-1.4 1.6-.9 1.1-1.9 2.1-2.9 3.1-1.9 2.1-3.6 4.3-5.4 6.5-.4.6-.9 1.1-1.3 1.7-.4.6-.8 1.1-1.3 1.7-.2.3-.4.6-.7.9-.1.1-.2.3-.3.4.1 0 0 .1 0 .2s-.1.2-.1.3c-.1.2-.2.4-.2.5 0 .1 0 .3.1.4v.1c-.1.2 0 .4.1.5.2.1.4 0 .5-.1 0 0 0-.1.1-.1s.2 0 .3-.1l.3-.3c0-.1.1-.1.2-.2.2-.2.4-.5.7-.7l.6-.6c.2-.3.4-.5.6-.8.4-.5.9-1 1.3-1.6.5-.5.9-1.1 1.4-1.6.4-.5.8-1.1 1.3-1.6.4-.5.7-1 1.1-1.5.4-.5.7-1 1.1-1.5l.3-.3c.7-.7 1.3-1.5 1.9-2.3.2-.2.3-.4.5-.6.3-.3.7-.7 1-1.1.2-.3.5-.5.7-.8l.7-.7c.4-.4.8-.9 1.2-1.3 0-.1.1-.1.1-.2 1-1 1.9-2.1 2.9-3.1s2-2 3-2.9c.5-.5 1-.9 1.5-1.4l.7-.7c.2-.2.5-.4.7-.6l1.8-1.5c.3-.2.5-.4.8-.7.3-.2.5-.5.8-.7.2-.2.3-.6.1-.9-.1-.2-.4-.3-.6-.3-.3.1-.5.2-.6.2"/></g><path id="Fill-57" class="st4" d="M68.3 5.3c-.2.1-.3.3-.3.6 0 .2.1.4.2.6v.1c.8 1 1.5 1.9 2.3 2.9.4.5.8.9 1.2 1.4l1.2 1.2c.8.8 1.6 1.6 2.4 2.3.4.4.8.7 1.2 1.1.4.4.8.8 1.2 1.3.1.2.2.3.4.5.5.6 1 1.2 1.5 1.9 1.4 1.8 2.8 3.6 4 5.4 1.2 1.8 2.5 3.7 3.6 5.6.3.5.5 1 .8 1.5.4.9.8 1.8 1.1 2.8.2.5.4 1.1.6 1.6.2.6.3 1.1.5 1.7l.9 3.3c.3 1.1.6 2.1.8 3.2.1.5.2 1.1.3 1.6.1.5.2 1 .2 1.4.1 1 .2 2.1.3 3.1.1.6.1 1.2.1 1.7 0 .6.1 1.1.2 1.7.1 1.1.1 2.2.1 3.2v1.6c0 .6-.1 1.2-.1 1.7s-.1.9-.2 1.4c-.2 1.1-.3 2.3-.5 3.4-.1.6-.2 1.3-.2 1.9 0 .7-.1 1.3-.1 2 0 .5.3.9.8 1 .5.1 1.2-.2 1.3-.7.3-1.1.5-2.3.7-3.4.2-1.2.5-2.3.7-3.5.1-.5.2-1.1.3-1.6.1-.6.2-1.2.2-1.8.1-1.1.1-2.2.1-3.4 0-2.2-.2-4.4-.4-6.6 0-.5-.1-1.1-.2-1.6-.1-.6-.2-1.3-.3-1.9-.1-.6-.2-1.1-.3-1.7-.1-.6-.3-1.1-.4-1.6l-.9-3.3c-.3-1.1-.7-2.1-1-3.2-.4-1.1-.8-2.2-1.3-3.3-.5-1.1-.9-2.1-1.5-3.1-.7-1.3-1.6-2.5-2.5-3.8-.9-1.3-1.8-2.6-2.8-3.8l.1.1-.1-.1-.1-.1s0 .1.1.1c-.7-.9-1.5-1.8-2.2-2.7-.7-.9-1.5-1.7-2.2-2.6-.4-.5-.8-.9-1.2-1.3-.4-.4-.8-.8-1.3-1.2-.8-.7-1.6-1.5-2.4-2.2-.9-.9-1.9-1.8-2.7-2.8-1-1.1-1.9-2.2-2.8-3.4-.3-.4-.6-.5-.8-.5-.3 0-.5.1-.6.3"/></g><path id="Path-2" d="M5 69c-.8 2.2-1.1 4.2-1 6.2.1 2 .8 4.9 2 8.8" fill="none" stroke="#161616" stroke-width="2"/></g></g></svg>