<svg width="500" height="600" xmlns="http://www.w3.org/2000/svg"><g fill="none" fill-rule="evenodd"><path d="M40.1582545 89.8226701C40.1582545 89.8235013 40.1582545 89.8251636 40.1574234 89.8259948L40.1607481 89.8226701 40.1582545 89.8226701zM31.9935169 26.0556468C31.4191792 26.0780883 30.8473351 26.101361 30.2729974 26.1238026 29.9322182 26.1371013 29.5872831 26.1695169 29.2465039 26.1919584 28.6522182 26.2343481 28.0620883 26.273413 27.4678026 26.3149714 27.1719065 26.3349195 26.8768416 26.3806338 26.5809455 26.4188675 25.9608935 26.4936727 25.3375169 26.5718026 24.7174649 26.6499325 24.4448416 26.6856727 24.1755429 26.721413 23.9029195 26.7729455 22.8282182 26.9740883 21.7535169 27.179387 20.6788156 27.3805299 20.4120104 27.4320623 20.149361 27.5101922 19.8867117 27.5750234 19.253361 27.7346078 18.6200104 27.893361 17.9841662 28.0487896 17.5710753 28.1526857 17.1588156 28.2565818 16.7465558 28.3579844 16.1755429 28.5001143 15.6103481 28.6721662 15.0451532 28.8350753 14.7692052 28.9132052 14.6038026 29.2016208 14.6786078 29.4775688 14.753413 29.7501922 15.0484779 29.9189195 15.3211013 29.8416208 15.8638545 29.685361 16.4024519 29.5199584 16.9510234 29.3836468 17.3117506 29.2955429 17.6749714 29.2049455 18.0356987 29.1176727 18.9217247 28.8965818 19.8052571 28.6788156 20.6912831 28.4585558 21.1982961 28.3347117 21.7144519 28.2565818 22.2272831 28.1593351 22.9703481 28.0230234 23.7125818 27.888374 24.4556468 27.7487377 25.387387 27.6356987 26.3216208 27.5293091 27.2566857 27.4195948 27.5941403 27.3772052 27.9349195 27.3738805 28.272374 27.351439 28.8633351 27.3156987 29.4576208 27.2799584 30.0485818 27.2442182 30.3802182 27.2242701 30.7110234 27.2209455 31.0393351 27.2151273 31.5779325 27.1985039 32.1198545 27.1852052 32.6592831 27.169413 33.0815169 27.1561143 33.5062442 27.1852052 33.9284779 27.1918545 34.3149714 27.2018286 34.7047896 27.1951792 35.0912831 27.2275948 35.5517506 27.2699844 36.0122182 27.3132052 36.4735169 27.3531013 36.7486338 27.3988156 37.0237506 27.4461922 37.2988675 27.4935688 37.5681662 27.5392831 37.8341403 27.6140883 38.1009455 27.6789195 38.6038026 27.8052571 39.0975169 27.9806338 39.5945558 28.1435429 39.9286857 28.2507636 40.2985558 28.0196987 40.3899844 27.6888935 40.4872312 27.3348156 40.2727896 27.0040104 39.9386597 26.8901403 39.1166338 26.6175169 38.2763221 26.3997506 37.4152312 26.2800623 37.1849974 26.2468156 36.9547636 26.2110753 36.720374 26.1786597 36.4776727 26.1462442 36.2308156 26.1371013 35.9839584 26.1171532 35.5750234 26.0880623 35.1627636 26.0423481 34.7496727 26.0423481 34.1528935 26.0390234 33.5586078 26.0365299 32.9643221 26.0298805 32.6393351 26.0298805 32.3185039 26.0423481 31.9935169 26.0556468M54.1193143 57.6319169C54.1018597 57.6477091 54.083574 57.661839 54.0644571 57.6743065 54.0827429 57.6601766 54.1010286 57.6460468 54.1193143 57.6319169M54.3179636 55.5905662C54.3154701 55.6105143 54.3129766 55.6312935 54.3104831 55.6512416 54.3121455 55.6312935 54.3154701 55.6113455 54.3179636 55.5905662M54.0868987 54.9322805C54.068613 54.939761 54.0519896 54.9464104 54.0345351 54.9530597 54.0519896 54.9464104 54.0694442 54.9389299 54.0868987 54.9322805M54.2456519 54.8990338C54.2589506 54.9248 54.270587 54.9505662 54.2780675 54.9796571 54.2680935 54.9538909 54.2581195 54.9256312 54.2456519 54.8990338M54.1384312 54.8433455C54.1650286 54.850826 54.1891325 54.8616312 54.2132364 54.8732675 54.2124052 54.8732675 54.2107429 54.8724364 54.2099117 54.8724364 54.1874701 54.8624623 54.1633662 54.8516571 54.1384312 54.8433455M54.1417558 54.0537351C54.0644571 54.0570597 53.9896519 54.0736831 53.9214961 54.1060987 53.7203532 54.1742545 53.5350026 54.2781506 53.3563013 54.3853714 53.1618078 54.4984104 53.0903273 54.7585662 53.2066909 54.9563844 53.320561 55.1517091 53.5807169 55.2198649 53.7785351 55.1059948 53.8899117 55.037839 54.0004571 54.978826 54.1176519 54.919813 54.1533922 54.9056831 54.1899636 54.8932156 54.2265351 54.8824104L54.2331844 54.8832416 54.2390026 54.8873974C54.2398338 54.8873974 54.2398338 54.8882286 54.2398338 54.8890597 54.2780675 54.9871377 54.3113143 55.0843844 54.3362494 55.1841247 54.339574 55.3129558 54.3337558 55.4376312 54.3204571 55.5639688 54.2730805 55.9197091 54.2281974 56.2796052 54.1874701 56.6353455 54.1542234 56.9154494 54.1600416 57.1963844 54.1359377 57.474826 54.1309506 57.5064104 54.122639 57.5363325 54.1134961 57.5670857 54.0952104 57.6053195 54.0752623 57.6410597 54.0519896 57.6759688L54.0411844 57.6884364C54.0220675 57.7000727 54.0012883 57.7100468 53.9796779 57.7191896 53.7718857 57.8230857 53.7137039 58.1123325 53.8267429 58.3043325 53.8824312 58.3982545 53.9763532 58.4697351 54.083574 58.498826 54.2040935 58.5345662 54.3013403 58.5054753 54.4118857 58.4564364 54.664561 58.3458909 54.8532364 58.1123325 54.9313662 57.8496831 54.9961974 57.6418909 55.0053403 57.430774 55.0086649 57.2163325 55.0153143 56.923761 55.028613 56.6353455 55.0643532 56.342774 55.0801455 56.1773714 55.1000935 56.0119688 55.1225351 55.8432416 55.1391584 55.7002805 55.1616 55.5539948 55.1748987 55.4077091 55.1940156 55.1841247 55.1549506 54.9696831 55.0834701 54.7585662 55.0352623 54.6222545 54.9828987 54.4925922 54.8981195 54.3753974 54.8598857 54.3138909 54.8108468 54.2648519 54.7460156 54.225787 54.7202494 54.2066701 54.6903273 54.1867221 54.6612364 54.1642805 54.5964052 54.1351896 54.531574 54.1060987 54.4634182 54.0770078 54.3919377 54.0603844 54.3204571 54.0479169 54.2489766 54.0412675 54.2132364 54.0445922 54.1774961 54.0504104 54.1417558 54.0537351M25.9500883 35.4890805L25.953413 35.4890805C25.8985558 35.4633143 25.8428675 35.4400416 25.7880104 35.4209247 25.8428675 35.4433662 25.8952312 35.466639 25.9500883 35.4890805" fill="#161616" transform="translate(226 114)"/><path d="M25.9500883,35.4890805 L25.953413,35.4890805 C25.8985558,35.4633143 25.8428675,35.4400416 25.7880104,35.4209247 C25.8428675,35.4433662 25.8952312,35.466639 25.9500883,35.4890805" fill="#161616" transform="translate(226 114)"/><path d="M25.9500883 35.4890805L25.953413 35.4890805C25.8985558 35.4633143 25.8428675 35.4400416 25.7880104 35.4209247 25.8428675 35.4433662 25.8952312 35.466639 25.9500883 35.4890805M31.2569351 33.1315532L31.2552727 33.1315532 31.2577662 33.1315532 31.2569351 33.1315532zM39.7830649 33.1889039C39.7722597 33.1805922 39.7614545 33.1722805 39.7498182 33.1631377 39.7597922 33.1731117 39.7722597 33.1822545 39.7830649 33.1889039zM35.1908571 33.2155013L35.2664935 33.2246442C35.2407273 33.2221506 35.2157922 33.218826 35.1908571 33.2155013zM33.3963636 31.7443325C33.1270649 31.7476571 32.8602597 31.7509818 32.590961 31.7543065 31.5652987 31.7700987 30.5354805 31.9330078 29.5522078 32.2247481 28.9612468 32.4034494 28.3802597 32.6212156 27.8217143 32.8871896 27.3088831 33.1307221 26.8151688 33.4232935 26.3347532 33.7283325 26.0521558 33.9103584 25.9382857 34.2769039 26.1136623 34.5786182 26.2790649 34.8612156 26.6755325 34.9817351 26.9614545 34.7997091 27.5441039 34.4290078 28.1483636 34.0849039 28.7817143 33.8106182 29.5788052 33.4956052 30.4083117 33.2603844 31.2552727 33.1315532 31.2228571 33.1357091 31.1896104 33.1398649 31.1555325 33.1440208L31.2569351 33.1315532C31.2793766 33.1282286 31.3018182 33.1240727 31.3250909 33.1207481 31.3026494 33.1249039 31.2802078 33.1282286 31.2577662 33.1315532 31.7622857 33.0725403 32.2676364 33.0459429 32.7763117 33.0459429 33.0356364 33.0459429 33.2991169 33.0401247 33.5584416 33.0559169 33.8310649 33.0725403 34.107013 33.0758649 34.3763117 33.1116052 34.6156883 33.1431896 34.8550649 33.1722805 35.0952727 33.2030338 35.4668052 33.2678649 35.8391688 33.3227221 36.2082078 33.4033455 36.6296104 33.494774 37.0485195 33.5920208 37.4674286 33.6992416 37.8215065 33.7865143 38.1656104 33.9003844 38.5063896 34.0233974 38.656 34.0824104 38.8081039 34.1405922 38.961039 34.1954494 39.0840519 34.237839 39.2078961 34.2602805 39.3342338 34.2835532 39.601039 34.331761 39.8636883 34.2544623 40.0066494 34.0109299 40.0881039 33.8712935 40.1072208 33.7050597 40.0648312 33.5496312 40.0224416 33.3908779 39.9218701 33.2894753 39.7922078 33.1955532 39.7897143 33.1938909 39.7863896 33.1913974 39.7830649 33.1889039 39.7938701 33.1980468 39.8046753 33.2063584 39.8146494 33.2146701 39.7032727 33.1282286 39.5952208 33.0542545 39.4705455 32.987761 39.2760519 32.8805403 39.0682597 32.8024104 38.8637922 32.721787 38.513039 32.5854753 38.1431688 32.4815792 37.7757922 32.3934753 36.937974 32.1890078 36.091013 31.997839 35.2307532 31.8972675 34.7952208 31.8449039 34.3638442 31.7933714 33.924987 31.7700987 33.7629091 31.761787 33.5983377 31.7443325 33.4362597 31.7443325 33.4221299 31.7443325 33.4088312 31.7443325 33.3963636 31.7443325z" fill="#161616" transform="translate(226 114)"/><path d="M28.5673558,34.068613 C28.5465766,34.0777558 28.5257974,34.0868987 28.5050182,34.0960416 C28.5257974,34.0868987 28.5465766,34.0777558 28.5673558,34.068613 M33.7472,31.971574 C33.2859013,31.9940156 32.8312519,32.0239377 32.3707844,32.0596779 C32.0067325,32.0887688 31.6435117,32.1278338 31.2827844,32.1693922 C30.9195636,32.2117818 30.552187,32.2508468 30.1947844,32.3289766 C30.0260571,32.3647169 29.8506805,32.3938078 29.6852779,32.4420156 C29.4650182,32.5076779 29.2472519,32.5725091 29.026161,32.6373403 C28.1235117,32.9033143 27.2765506,33.3579636 26.4420571,33.7868468 C26.1528104,33.935626 26.072187,34.3320935 26.2276156,34.6013922 C26.3996675,34.890639 26.7537455,34.9621195 27.0429922,34.8125091 C27.5250701,34.5656519 28.0054857,34.3154701 28.5000312,34.0977039 C28.8117195,33.9697039 29.1267325,33.8508468 29.4483948,33.7544312 C29.6495377,33.6954182 29.8506805,33.620613 30.0559792,33.5757299 C30.2438234,33.5333403 30.429174,33.4909506 30.6136935,33.448561 C30.8007065,33.4086649 30.9918753,33.3887169 31.1788883,33.3604571 C32.0507844,33.2548987 32.9243429,33.1643013 33.8020571,33.1210805 C34.2924468,33.098639 34.7828364,33.0687169 35.273226,33.0820156 C35.6954597,33.0911584 36.1118753,33.1293922 36.5282909,33.1776 C37.4533818,33.3529766 38.3643429,33.6189506 39.241226,33.9622234 C39.7640312,34.206587 40.2776935,34.4775481 40.7448104,34.8183273 C40.8204468,34.8798338 40.8952519,34.9438338 40.9650701,35.0103273 C41.1820052,35.2147948 41.4870442,35.3286649 41.7829403,35.2380675 C42.0655377,35.146639 42.318213,34.8773403 42.2957714,34.5656519 C42.2824727,34.3969247 42.2600312,34.2739117 42.1727584,34.127626 C42.0846545,33.9813403 41.9741091,33.9032104 41.8377974,33.802639 C41.7081351,33.7020675 41.5552,33.6272623 41.4064208,33.5524571 C41.0132779,33.3513143 40.6076675,33.1759377 40.2020571,32.9972364 C39.9909403,32.906639 39.7764987,32.8160416 39.5587325,32.744561 C39.325174,32.6664312 39.0916156,32.6049247 38.8539013,32.5434182 C38.4416416,32.4295481 38.0293818,32.3223273 37.6137974,32.2284052 C36.760187,32.0397299 35.8932779,31.9682494 35.0197195,31.9391584 C34.9415896,31.9366649 34.8626286,31.9358338 34.7836675,31.9358338 C34.4395636,31.9358338 34.0904727,31.9557818 33.7472,31.971574" fill="#161616" transform="translate(226 114)"/><path d="M40.9476156 34.8709403C40.9575896 34.8734338 40.9675636 34.8775896 40.9783688 34.8834078 40.9675636 34.8784208 40.9575896 34.8742649 40.9476156 34.8709403M33.9250701 32.6400831C33.4803948 32.6500571 33.0348883 32.6533818 32.5935377 32.6758234 32.3633039 32.6891221 32.1388883 32.7024208 31.9119792 32.728187 31.6584727 32.7572779 31.4057974 32.7963429 31.1522909 32.8354078 30.4183688 32.9459532 29.6844468 33.0722909 28.9538494 33.2152519 28.1492779 33.3740052 27.3596675 33.6308364 26.574213 33.8776935 26.3697455 33.9425247 26.2400831 34.1503169 26.2982649 34.3647584 26.3531221 34.5659013 26.5808623 34.702213 26.7853299 34.6407065 27.3954078 34.4487065 28.0063169 34.254213 28.6330182 34.121226 29.2439273 33.9940571 29.8548364 33.8884987 30.4740571 33.8028883 30.4690701 33.8037195 30.4632519 33.8045506 30.4574338 33.806213 30.941174 33.7413818 31.4249143 33.6665766 31.9119792 33.6308364 32.4023688 33.5950961 32.8952519 33.5950961 33.3889662 33.5984208 33.8926545 33.6017455 34.3955117 33.6050701 34.8992 33.624187 35.1552 33.6374857 35.4120312 33.6532779 35.6655377 33.673226 35.9148883 33.6923429 36.1617455 33.7280831 36.4086026 33.7638234L36.2722909 33.7447065C37.0776935 33.8843429 37.8889143 34.0206545 38.6810182 34.2217974 39.4781091 34.4229403 40.260239 34.6722909 41.0440312 34.9158234 41.112187 34.9449143 41.1836675 34.958213 41.2593039 34.958213 41.3989403 34.958213 41.5385766 34.9033558 41.6391481 34.8027844 41.7397195 34.702213 41.7979013 34.5625766 41.7979013 34.4196156 41.7979013 34.2666805 41.7330701 34.1536416 41.6391481 34.0397714 41.4737455 33.8353039 41.2044468 33.7771221 40.964239 33.7114597 40.7655896 33.6566026 40.5710961 33.6017455 40.3732779 33.5493818 39.9543688 33.4355117 39.5387844 33.3158234 39.1165506 33.2185766 38.2654338 33.0232519 37.4018494 32.8935896 36.5415896 32.7639273 35.874161 32.6600312 35.1909403 32.6350961 34.5118753 32.6350961 34.3157195 32.6350961 34.1195636 32.6367584 33.9250701 32.6400831M30.6286545 37.5126442C30.5821091 37.5192935 30.5339013 37.5259429 30.4873558 37.5325922 30.5339013 37.5259429 30.5812779 37.5192935 30.6286545 37.5126442M34.3364987 35.7139948C33.437174 35.7206442 32.541174 35.729787 31.6484987 35.8212156 30.862213 35.9026701 30.0734338 36.0157091 29.3037714 36.1977351 28.5149922 36.3830857 27.7453299 36.674826 26.9823169 36.9474494 26.6024727 37.083761 26.3522909 37.447813 26.466161 37.8600727 26.5667325 38.2266182 26.9956156 38.5092156 27.3754597 38.3762286 27.9373299 38.1784104 28.4983688 37.9864104 29.070213 37.8243325 29.5157195 37.6963325 29.9712 37.6090597 30.4308364 37.5409039 30.9536416 37.4769039 31.4764468 37.4245403 32.0017455 37.3829818 32.5669403 37.3372675 33.1354597 37.3505662 33.6998234 37.3538909 34.7313039 37.3572156 35.7553039 37.3630338 36.7834597 37.4735792 37.0244987 37.511813 37.2663688 37.5508779 37.508239 37.5940987 37.7974857 37.6489558 38.0734338 37.7204364 38.3560312 37.7952416 38.8248104 37.9190857 39.2844468 38.0886442 39.7357714 38.2706701 39.940239 38.3720727 40.1355636 38.4776312 40.324239 38.6014753 40.4306286 38.6962286 40.5345247 38.7934753 40.6550442 38.8699429 40.7614338 38.9380987 40.8852779 38.9771636 41.0082909 39.0162286 41.2784208 39.0968519 41.5867844 39.0062545 41.7812779 38.8109299 42.0406026 38.5516052 42.0738494 38.1651117 41.9042909 37.846774 41.9026286 37.841787 41.9009662 37.8376312 41.8976416 37.8326442 41.8369662 37.6963325 41.7696416 37.5841247 41.6607584 37.447813 41.4729143 37.2175792 41.1903169 37.0712935 40.9309922 36.9349818 40.4796675 36.694774 39.9892779 36.5285403 39.5088623 36.3631377 38.6544208 36.0747221 37.7750442 35.8893714 36.8790442 35.7979429 36.194161 35.7281247 35.5117714 35.7115013 34.8260571 35.7115013 34.6631481 35.7115013 34.4994078 35.7123325 34.3364987 35.7139948M29.1874909 42.3856208C29.1259844 42.4928416 29.109361 42.6191792 29.1417766 42.736374 29.1775169 42.859387 29.2523221 42.9341922 29.3495688 43.0089974 29.5282701 43.1353351 29.7036468 43.2525299 29.8981403 43.356426 30.1092571 43.4702961 30.3469714 43.5384519 30.5772052 43.6032831 31.1066597 43.7528935 31.6585558 43.8235429 32.2038026 43.8858805 32.4115948 43.9116468 32.6227117 43.9216208 32.8305039 43.937413 32.9959065 43.9507117 33.1613091 43.9698286 33.3267117 43.9764779 33.9276468 43.9989195 34.5319065 44.0446338 35.1320104 44.0122182 35.5251532 43.9931013 35.9149714 43.9216208 36.3014649 43.8501403 36.3787636 43.8368416 36.4568935 43.8177247 36.5350234 43.8011013 36.6646857 43.7720104 36.7818805 43.7229714 36.892426 43.6514909 36.9988156 43.5833351 37.0578286 43.4960623 37.1326338 43.3988156 37.1808416 43.3140364 37.2066078 43.223439 37.2066078 43.1261922 37.2066078 42.9832312 37.148426 42.8435948 37.0478545 42.7430234 36.9830234 42.6781922 36.9015688 42.6324779 36.8109714 42.6067117 36.6846338 42.5709714 36.5059325 42.5767896 36.395387 42.6582442 36.3829195 42.6682182 36.3704519 42.677361 36.3579844 42.6865039 36.2241662 42.7272312 36.0836987 42.7538286 35.947387 42.7820883 35.6947117 42.8386078 35.4420364 42.8926338 35.1876987 42.9341922 34.5618286 43.0040104 33.9326338 42.9890494 33.3042701 42.9865558 33.0898286 42.9865558 32.8787117 42.9666078 32.6675948 42.9541403 32.3342961 42.9383481 32.0026597 42.9150753 31.6718545 42.8751792 31.2479584 42.8161662 30.8282182 42.7322182 30.4251013 42.5942442 30.2056727 42.4903481 30.0095169 42.3665039 29.8108675 42.2235429 29.7468675 42.1769974 29.6720623 42.1562182 29.5972571 42.1562182 29.4343481 42.1562182 29.2672831 42.2501403 29.1874909 42.3856208" fill="#161616" transform="translate(226 114)"/><path d="M36.6481247 40.0462961C36.6556052 40.0629195 36.6639169 40.0795429 36.6705662 40.0969974 36.6630857 40.080374 36.6556052 40.0637506 36.6481247 40.0462961M36.1992935 39.9756468C36.1901506 39.9798026 36.1801766 39.9839584 36.1710338 39.9881143 36.1801766 39.9831273 36.1901506 39.9789714 36.1992935 39.9756468M36.2957091 39.9648416C36.3730078 39.9839584 36.4486442 40.0047377 36.5242805 40.0288416 36.5600208 40.0487896 36.5940987 40.0695688 36.6281766 40.0920104 36.6439688 40.1069714 36.659761 40.1235948 36.6747221 40.139387 36.6838649 40.1543481 36.693839 40.1701403 36.7021506 40.1851013 36.7013195 40.203387 36.7013195 40.2208416 36.6996571 40.2391273 36.6805403 40.3197506 36.6572675 40.3970494 36.6306701 40.4768416 36.6215273 40.4959584 36.6115532 40.5159065 36.6007481 40.5350234 36.5010078 40.3579844 36.3389299 40.2166857 36.1361247 40.1518545 36.147761 40.1335688 36.1593974 40.1161143 36.1718649 40.0978286 36.211761 40.0521143 36.2524883 40.0080623 36.2957091 39.9648416M36.3821506 39.9291013C36.3696831 39.9307636 36.3580468 39.932426 36.3464104 39.9340883 36.3580468 39.932426 36.3696831 39.9307636 36.3821506 39.9291013M35.1387221 36.4789195C35.0323325 36.4755948 34.9276052 36.4780883 34.8270338 36.4847377 34.5602286 36.5038545 34.271813 36.5429195 34.0374234 36.6759065 33.8171636 36.8030753 33.641787 36.9842701 33.4788779 37.1762701 33.0898909 37.6275948 32.7549299 38.1271273 32.4956052 38.6632312 32.2454234 39.1660883 32.0933195 39.6888935 32.0442805 40.2507636 32.021839 40.5466597 32.095813 40.8674909 32.1614753 41.153413 32.2329558 41.4459844 32.371761 41.7019844 32.5379948 41.9455169 32.8563325 42.4226078 33.2744104 42.7999584 33.7581506 43.1083221 34.3200208 43.4648935 34.975813 43.6244779 35.6316052 43.6859844 35.9499429 43.7150753 36.2716052 43.6760104 36.5832935 43.6278026 36.8492675 43.585413 37.0994494 43.5264 37.3496312 43.4258286 37.5441247 43.3452052 37.6446961 43.2895169 37.8100987 43.1565299 37.9115013 43.0759065 37.9921247 42.9944519 38.0769039 42.8905558 38.3171117 42.5855169 38.4667221 42.2447377 38.5897351 41.877361 38.6869818 41.5756468 38.7293714 41.2406857 38.761787 40.9289974 38.7942026 40.6472312 38.8041766 40.3646338 38.8041766 40.0787117 38.8075013 39.7803221 38.7750857 39.4811013 38.7094234 39.1860364 38.6354494 38.864374 38.485839 38.5460364 38.323761 38.2576208 38.1841247 37.9974649 37.9821506 37.7672312 37.7943065 37.5428156 37.5964883 37.3092571 37.3429818 37.1239065 37.0961247 36.9460364 36.8559169 36.7731532 36.5733195 36.6601143 36.3040208 36.5562182 36.0505143 36.4556468 35.758774 36.4390234 35.4886442 36.4356987 35.3714494 36.4356987 35.2542545 36.4523221 35.1387221 36.4789195M18.6481247 40.0462961C18.6556052 40.0629195 18.6639169 40.0795429 18.6705662 40.0969974 18.6630857 40.080374 18.6556052 40.0637506 18.6481247 40.0462961M18.1992935 39.9756468C18.1901506 39.9798026 18.1801766 39.9839584 18.1710338 39.9881143 18.1801766 39.9831273 18.1901506 39.9789714 18.1992935 39.9756468M18.2957091 39.9648416C18.3730078 39.9839584 18.4486442 40.0047377 18.5242805 40.0288416 18.5600208 40.0487896 18.5940987 40.0695688 18.6281766 40.0920104 18.6439688 40.1069714 18.659761 40.1235948 18.6747221 40.139387 18.6838649 40.1543481 18.693839 40.1701403 18.7021506 40.1851013 18.7013195 40.203387 18.7013195 40.2208416 18.6996571 40.2391273 18.6805403 40.3197506 18.6572675 40.3970494 18.6306701 40.4768416 18.6215273 40.4959584 18.6115532 40.5159065 18.6007481 40.5350234 18.5010078 40.3579844 18.3389299 40.2166857 18.1361247 40.1518545 18.147761 40.1335688 18.1593974 40.1161143 18.1718649 40.0978286 18.211761 40.0521143 18.2524883 40.0080623 18.2957091 39.9648416M18.3821506 39.9291013C18.3696831 39.9307636 18.3580468 39.932426 18.3464104 39.9340883 18.3580468 39.932426 18.3696831 39.9307636 18.3821506 39.9291013M17.1387221 36.4789195C17.0323325 36.4755948 16.9276052 36.4780883 16.8270338 36.4847377 16.5602286 36.5038545 16.271813 36.5429195 16.0374234 36.6759065 15.8171636 36.8030753 15.641787 36.9842701 15.4788779 37.1762701 15.0898909 37.6275948 14.7549299 38.1271273 14.4956052 38.6632312 14.2454234 39.1660883 14.0933195 39.6888935 14.0442805 40.2507636 14.021839 40.5466597 14.095813 40.8674909 14.1614753 41.153413 14.2329558 41.4459844 14.371761 41.7019844 14.5379948 41.9455169 14.8563325 42.4226078 15.2744104 42.7999584 15.7581506 43.1083221 16.3200208 43.4648935 16.975813 43.6244779 17.6316052 43.6859844 17.9499429 43.7150753 18.2716052 43.6760104 18.5832935 43.6278026 18.8492675 43.585413 19.0994494 43.5264 19.3496312 43.4258286 19.5441247 43.3452052 19.6446961 43.2895169 19.8100987 43.1565299 19.9115013 43.0759065 19.9921247 42.9944519 20.0769039 42.8905558 20.3171117 42.5855169 20.4667221 42.2447377 20.5897351 41.877361 20.6869818 41.5756468 20.7293714 41.2406857 20.761787 40.9289974 20.7942026 40.6472312 20.8041766 40.3646338 20.8041766 40.0787117 20.8075013 39.7803221 20.7750857 39.4811013 20.7094234 39.1860364 20.6354494 38.864374 20.485839 38.5460364 20.323761 38.2576208 20.1841247 37.9974649 19.9821506 37.7672312 19.7943065 37.5428156 19.5964883 37.3092571 19.3429818 37.1239065 19.0961247 36.9460364 18.8559169 36.7731532 18.5733195 36.6601143 18.3040208 36.5562182 18.0505143 36.4556468 17.758774 36.4390234 17.4886442 36.4356987 17.3714494 36.4356987 17.2542545 36.4523221 17.1387221 36.4789195" fill="#161616" transform="translate(226 114)"/><path d="M17.839719,39.3277636 C17.972041,39.4845465 18.104363,39.6413294 18.236685,39.7981123" stroke="#979797" transform="translate(226 114)"/><path d="M29.6091429,42.5243429 C29.4828052,42.7421091 29.5443117,43.0729143 29.7811948,43.1901091 C30.3555325,43.4727065 30.9498182,43.6896416 31.5574026,43.8849662 C31.7361039,43.9431481 31.9172987,44.0013299 32.096,44.0603429 C32.5016104,44.1900052 32.9205195,44.2681351 33.3394286,44.3229922 C34.0733506,44.4235636 34.8205714,44.4759273 35.5603117,44.4559792 C35.7165714,44.4526545 35.8753247,44.4593039 36.0315844,44.4435117 C36.2227532,44.4235636 36.4114286,44.4077714 36.6025974,44.3878234 C36.9275844,44.3554078 37.2583896,44.3096935 37.5833766,44.2515117 C37.9141818,44.1900052 38.2424935,44.1284987 38.569974,44.0503688 C38.7129351,44.0179532 38.8558961,43.9788883 38.9955325,43.933174 C39.1285195,43.8916156 39.2714805,43.8425766 39.3853506,43.7611221 C39.5017143,43.677174 39.5798442,43.5890701 39.6546494,43.4660571 C39.7618701,43.2873558 39.7585455,43.0537974 39.6546494,42.8750961 C39.515013,42.638213 39.2523636,42.5501091 38.9922078,42.6057974 C38.875013,42.6299013 38.7661299,42.697226 38.6589091,42.7545766 C37.9881558,42.9814857 37.2841558,43.1086545 36.5892987,43.2349922 L36.7455584,43.2158753 C36.2260779,43.2840312 35.7099221,43.352187 35.1871169,43.3588364 C34.5014026,43.3679792 33.8206753,43.3530182 33.1416104,43.2674078 C32.7418182,43.2017455 32.3586494,43.0995117 31.972987,42.9823169 C31.5332987,42.850161 31.0994286,42.7088623 30.6755325,42.5417974 C30.5392208,42.4811221 30.4070649,42.4154597 30.2749091,42.3522909 C30.1926234,42.3123948 30.1045195,42.2916156 30.0189091,42.2916156 C29.8551688,42.2916156 29.7005714,42.3664208 29.6091429,42.5243429" fill="#161616" transform="translate(226 114)"/><path d="M23.1384104,69.5112312 C23.2115532,69.5112312 23.2630857,69.5045818 23.3112935,69.4937766 C23.8573714,69.3649455 24.4092675,69.2710234 24.962826,69.1762701 L25.3659429,69.1072831 C26.4132156,69.0092052 27.3906701,68.9169455 28.3714494,68.8371532 C28.5892156,68.9593351 28.8402286,69.0316468 29.0347221,69.0806857 C29.2391896,69.1330494 29.4503065,69.1654649 29.6556052,69.1945558 L29.9963844,69.2469195 C30.6089558,69.3499844 31.2032416,69.4929455 31.5963844,69.5876987 C32.1873455,69.7331532 32.7284364,69.8653091 33.2445922,70.0672831 L33.3476571,70.1146597 L33.4939429,70.1811532 C33.8978909,70.5044779 34.4256831,70.9358545 34.9110857,71.3996468 C35.0922805,71.5725299 35.2460468,71.7769974 35.3956571,71.9739844 C35.4688,72.0704 35.5411117,72.1668156 35.6175792,72.2599065 L35.9001766,72.6048416 L36.2642286,73.0486857 C36.699761,73.6512831 37.0696312,74.2871273 37.3954494,74.9919584 L37.4735792,75.1955948 C37.5151377,75.6435948 37.5342545,76.0026597 37.5309299,76.3226597 C37.5292675,76.5154909 37.5242805,76.7074909 37.5192935,76.9003221 L37.511813,77.1895688 C37.5084883,77.4721662 37.4985143,77.7539325 37.4660987,78.0332052 C37.4212156,78.3049974 37.3630338,78.5742961 37.2915532,78.8435948 C37.2233974,79.1162182 37.122826,79.381361 37.0222545,79.6440104 C36.7313455,80.3131013 36.4055273,80.8882701 36.0265143,81.4027636 C35.8353455,81.6288416 35.6375273,81.8532571 35.4264104,82.0701922 C35.2111377,82.2971013 34.9576312,82.5231792 34.6284883,82.7841662 C34.5503584,82.8448416 34.4730597,82.9005299 34.3891117,82.955387 C34.3109818,83.0102442 34.2270338,83.0526338 34.139761,83.0941922 C33.9976312,83.152374 33.8563325,83.1980883 33.7033974,83.2271792 C33.6360727,83.2321662 33.5679169,83.2346597 33.499761,83.2346597 C33.3692675,83.2346597 33.238774,83.2255169 33.1091117,83.2105558 C33.0185143,83.1947636 32.9312416,83.1723221 32.8406442,83.1457247 C32.6411636,83.0526338 32.4541506,82.9437506 32.2721247,82.812426 C32.1815273,82.7326338 32.0975792,82.6520104 32.0236052,82.561413 C31.9463065,82.448374 31.8814753,82.3320104 31.8232935,82.2089974 C31.6919688,81.877361 31.6254753,81.5349195 31.5839169,81.2722701 C31.5706182,81.163387 31.5706182,81.0569974 31.5772675,80.9464519 C31.6653714,80.9181922 31.7568,80.8857766 31.8482286,80.853361 C32.1299948,80.7494649 32.406774,80.6389195 32.6769039,80.5059325 C32.9179429,80.3887377 33.0933195,80.2640623 33.1648,80.0329974 C33.2329558,79.824374 33.1249039,79.5592312 32.9329039,79.4653091 C32.8339948,79.4179325 32.7359169,79.3954909 32.6336831,79.3954909 C32.5572156,79.3954909 32.4774234,79.4054649 32.391813,79.425413 C32.2521766,79.4578286 32.1191896,79.4935688 31.9820468,79.5326338 C31.6869818,79.6190753 31.2946701,79.7271273 30.8790857,79.7919584 C30.0312935,79.8975169 29.3763325,79.9440623 28.753787,79.9440623 L28.5243844,79.9457247 L28.0564364,79.947387 C27.6092675,79.947387 27.079813,79.9407377 26.5536831,79.8892052 C26.1730078,79.8210494 25.8671377,79.7420883 25.5911896,79.6398545 C25.5363325,79.6199065 25.4781506,79.6091013 25.4191377,79.6091013 C25.149839,79.6091013 24.8797091,79.819387 24.8040727,80.0870234 C24.7591896,80.2491013 24.7832935,80.4294649 24.8697351,80.5799065 C24.9495273,80.7145558 25.0667221,80.8051532 25.2512416,80.8724779 C25.6493714,81.0195948 26.0366961,81.1243221 26.4373195,81.1916468 C26.6135273,81.2207377 26.7889039,81.2431792 26.9642805,81.2598026 L26.9368519,81.3803221 C26.9019429,81.5939325 26.8529039,81.7585039 26.7922286,81.9272312 C26.6949818,82.1109195 26.5844364,82.2821403 26.4647481,82.4475429 C26.3292675,82.5996468 26.183813,82.7351273 26.0250597,82.8647896 C25.853839,82.9844779 25.681787,83.088374 25.4972675,83.1789714 C25.2795013,83.2629195 25.0617351,83.3277506 24.8331636,83.3767896 C24.7076571,83.388426 24.5821506,83.3942442 24.4566442,83.3942442 C24.3502545,83.3942442 24.2446961,83.3900883 24.1374753,83.3826078 C23.9604364,83.3468675 23.7892156,83.3019844 23.6171636,83.2404779 C23.2672416,83.0775688 22.9223065,82.8689455 22.5640727,82.6046338 C22.4186182,82.4849455 22.2756571,82.3652571 22.146826,82.2297766 C21.9938909,82.0768416 21.8575792,81.9180883 21.7245922,81.7560104 C21.5259429,81.4858805 21.3622026,81.2340364 21.2258909,80.9880104 C21.0629818,80.6921143 20.9142026,80.3904 20.7778909,80.0861922 C20.699761,79.9008416 20.6282805,79.7188156 20.5576312,79.5342961 C20.497787,79.3747117 20.4520727,79.2076468 20.4063584,79.0405818 L20.3556571,78.859387 C20.2176831,78.357361 20.1295792,77.8412052 20.0672416,77.4480623 C20.0248519,77.0449455 20.0198649,76.6218805 20.0514494,76.1547636 L20.113787,75.9461403 C20.1852675,75.7100883 20.2567481,75.4748675 20.3174234,75.2371532 L20.3839169,74.9661922 C20.433787,74.7592312 20.4836571,74.5522701 20.5443325,74.3511273 L20.5850597,74.2173091 C20.6116571,74.128374 20.6382545,74.0386078 20.6706701,73.9521662 C20.7263584,73.803387 20.7845403,73.6537766 20.8460468,73.5049974 C20.9815273,73.168374 21.1203325,72.8342442 21.2591377,72.5001143 L21.4993455,71.9199584 C21.4985143,71.9207896 21.4993455,71.9216208 21.5001766,71.9216208 L21.501839,71.9216208 C21.5035013,71.9216208 21.5001766,71.9199584 21.501839,71.9174649 L21.5325922,71.8459844 C21.5932675,71.7055169 21.6522805,71.5667117 21.718774,71.4304 C21.8027221,71.2583481 21.8916571,71.0904519 21.9814234,70.9242182 L22.0470857,70.800374 L22.1493195,70.6125299 L22.2515532,70.4246857 C22.3837091,70.263439 22.5233455,70.1038545 22.6663065,69.9451013 C22.8051117,69.7929974 22.9547221,69.6467117 23.106826,69.5112312 C23.1176312,69.5112312 23.1284364,69.5112312 23.1384104,69.5112312 Z M18.5528519,40.5956987 L18.5545143,40.5632831 C18.5511896,40.4918026 18.5511896,40.4178286 18.557839,40.3463481 L18.5786182,40.2532571 C18.6185143,40.1742961 18.6600727,40.1094649 18.7024623,40.0479584 L18.7780987,40.1028156 C18.8096831,40.1302442 18.838774,40.1601662 18.8678649,40.1925818 C18.8861506,40.2200104 18.902774,40.2491013 18.9185662,40.2815169 L18.8819948,40.5275429 C18.843761,40.6048416 18.8263065,40.6272831 18.8113455,40.6530494 L18.705787,40.6472312 L18.705787,40.6397506 C18.6733714,40.6355948 18.6409558,40.6289455 18.6135273,40.6198026 L18.5528519,40.5956987 Z M40.5497351,0.444425974 L40.4649558,0.444425974 C40.1042286,0.444425974 39.7443325,0.476841558 39.3860987,0.509257143 L39.1691636,0.525049351 C38.3246961,0.600685714 37.4868779,0.675490909 36.6457351,0.779387013 C34.9534753,0.991335065 33.3210597,1.29720519 31.7942026,1.68785455 C31.1500468,1.85159481 30.4610078,2.05938701 29.6248519,2.34115325 L29.4104104,2.4118026 C28.8659948,2.59133506 28.4121766,2.74842597 27.9683325,2.93211429 L26.1048519,3.71091948 L25.6369039,3.89959481 C25.2894753,4.03923117 24.9420468,4.17886753 24.6104104,4.34094545 L24.0036571,4.63019221 L23.8773195,4.6916987 C23.1433974,5.04411429 22.4128,5.39486753 21.6880208,5.77055584 L19.8178909,6.73471169 C19.527813,6.8809974 19.2468779,7.05221818 18.9684364,7.22094545 L18.6293195,7.42624416 C18.3076571,7.61076364 17.9901506,7.79611429 17.6784623,7.98478961 L17.5454753,8.05876364 C17.4133195,8.13273766 17.3351896,8.17762078 17.2620468,8.22832208 L16.4375273,8.78686753 L15.6130078,9.34873766 C14.9123325,9.8225039 14.2340987,10.3278545 13.4827221,10.891387 L12.817787,11.3842701 C12.1711377,11.861361 11.5352935,12.3542442 10.8986182,12.8479584 L10.4107221,13.2253091 C9.55212468,13.8902442 8.69103377,14.6432831 7.99867013,15.248374 L7.60552727,15.5891532 C6.85165714,16.2482701 6.15596883,16.9464519 5.27742338,17.8590753 L4.84189091,18.3170494 C4.42630649,18.7584 4.0073974,19.1997506 3.56937143,19.6219844 C3.05404675,20.1181922 2.46225455,20.6343481 1.75825455,21.1995429 C1.63191688,21.2868156 1.50225455,21.3740883 1.37259221,21.4588675 L1.26703377,21.5295169 C1.17228052,21.5935169 1.07835844,21.6558545 0.986098701,21.7215169 C0.83067013,21.8287377 0.683553247,21.943439 0.541423377,22.0631273 C0.277111688,22.283387 0.16241039,22.5859325 0.0610077922,22.8519065 C-0.0354077922,23.0912831 -0.00382337662,23.5459325 0.0610077922,23.7661922 C0.0934233766,23.8775688 0.132488312,23.9814649 0.178202597,24.0861922 C0.403449351,24.6289455 0.620384416,25.2107636 0.878877922,25.9712831 C1.10329351,26.6270753 1.32687792,27.2828675 1.52802078,27.9419844 C1.73581299,28.6260364 1.8953974,29.2859844 2.01841039,29.9608935 C2.11898182,30.9208935 2.11482597,31.9465558 2.00511169,33.0071273 C1.91783896,33.4767377 1.78817662,34.0926338 1.56459221,34.6769455 C1.26786494,35.3427117 0.987761039,35.8887896 0.685215584,36.3966338 L0.548903896,36.6168935 L0.415916883,36.8413091 C0.267137662,37.0881662 0.161579221,37.3433351 0.0776311688,37.5602701 C0.000332467532,37.756426 -0.0129662338,38.0332052 0.0443844156,38.2825558 C0.0934233766,38.4762182 0.208955844,38.7247377 0.356072727,38.8452571 C0.498202597,38.9582961 0.641994805,39.0671792 0.828176623,39.1552831 C0.942046753,39.2101403 1.06589091,39.2558545 1.18308571,39.2982442 C1.98100779,39.6539844 2.71492987,40.0953351 3.42474805,40.5217247 L3.68822857,40.6804779 C3.96417662,40.8500364 4.24012468,41.0121143 4.52937143,41.1517506 C4.81695584,41.2880623 5.12698182,41.3844779 5.42703377,41.4784 L5.59576104,41.5291013 C5.78443636,41.5872831 5.96978701,41.6296727 6.16511169,41.6587636 C6.14848831,41.7510234 6.15181299,41.8615688 6.15430649,41.9721143 C6.16095584,42.1898805 6.17757922,42.4076468 6.19337143,42.625413 C6.09030649,43.1299325 5.99638442,43.6402701 5.90246234,44.1506078 L5.72292987,45.1106078 C5.40459221,46.7795948 5.09373506,48.577413 4.97321558,50.4126338 L4.95659221,50.6669714 L4.93996883,50.9196468 C4.92085195,51.0551273 4.90505974,51.1922701 4.89176104,51.3285818 L4.84604675,51.7275429 L4.82360519,51.9685818 C4.78786494,52.2927377 4.75877403,52.6011013 4.73217662,52.9161143 C4.70641039,53.2278026 4.69061818,53.5386597 4.67399481,53.8503481 L4.64157922,54.4388156 C4.56012468,55.7736727 4.50859221,56.8325818 4.48282597,57.7709714 C4.47035844,58.2455688 4.46370909,58.7276468 4.45705974,59.2030753 C4.45041039,59.6411013 4.4662026,60.0242701 4.48615065,60.4107636 L4.50526753,60.8496208 C4.5435013,61.7622442 4.63160519,62.6923221 4.72635844,63.6448416 L4.73882597,63.7944519 L4.75212468,63.9182961 L4.76542338,64.0313351 C5.02807273,66.6220883 5.3888,68.6966857 5.89830649,70.5585039 C6.01217662,70.9616208 6.13851429,71.3580883 6.27233247,71.7537247 C6.34963117,71.9814649 6.44105974,72.2017247 6.53165714,72.4228156 L6.57072208,72.5208935 L6.73695584,72.9231792 C7.09685195,73.8225039 7.46755325,74.7126857 7.8473974,75.6020364 C7.86734545,75.5496727 7.86318961,75.5006338 7.84656623,75.4507636 C8.14744935,76.3276468 8.60376104,77.3857247 9.05176104,78.2875429 C9.57622857,79.3356468 10.0990338,80.2765299 10.6068779,81.0835948 C11.2560208,82.1524779 11.9309299,83.0559584 12.669839,83.8447377 C13.2267221,84.4307117 13.8509299,84.9668156 14.4011636,85.4397506 L14.4726442,85.5012571 L15.0278649,85.9816727 C16.1050597,86.9125818 16.9395532,87.5467636 17.7333195,88.0404779 C18.4880208,88.5200623 19.2834494,88.8741403 20.0522805,89.2165818 L20.5526442,89.4434909 L20.9649039,89.6354909 L21.0621506,89.6812052 C21.9689558,90.1001143 22.7876571,90.4733091 23.6179948,90.7916468 C23.810826,90.8706078 24.0053195,90.9412571 24.2014753,91.0127377 L24.3352935,91.0609455 L24.5015273,91.1199584 L24.5954494,91.152374 L25.1340468,91.3468675 C25.5662545,91.5089455 26.0009558,91.6718545 26.4464623,91.8048416 C27.5527481,92.1356468 28.7030857,92.1913351 29.8833455,92.2237506 C30.402826,92.240374 30.9189818,92.2495169 31.4351377,92.2561662 L31.574774,92.2594909 C32.2762805,92.2594909 32.9553455,92.1855169 33.5936831,92.0392312 C34.0716052,91.925361 34.5378909,91.7699325 35.0590338,91.5480104 C35.6799169,91.2945039 36.2176831,90.955387 36.6615273,90.6578286 C37.3588779,90.1981922 38.0263065,89.6728935 38.6712935,89.1658805 L38.8333714,89.040374 L39.3728,88.6148156 L39.6254753,88.4169974 C39.9670857,88.1510234 40.3111896,87.8808935 40.6328519,87.5891532 C41.0259948,87.2251013 41.3892156,86.844426 41.7275013,86.4878545 L41.8771117,86.3249455 L41.9344623,86.2626078 C42.3242805,85.840374 42.690826,85.4405818 43.0041766,85.0225039 C43.1770597,84.7922701 43.3432935,84.5587117 43.5103584,84.3243221 L43.6957091,84.0649974 L43.8320208,83.8663481 L43.9234494,83.733361 L44.9324883,82.3212052 L45.2865662,81.8150234 L45.8484364,81.0229195 C46.2964364,80.3887377 46.7145143,79.6996987 47.1051636,79.0480623 L47.510774,78.3789714 C47.9363325,77.6882701 48.2870857,77.1097766 48.6054234,76.4755948 C48.7974234,76.092426 48.962826,75.6959584 49.1224104,75.2961662 C49.3160727,74.8365299 49.3825662,74.4068156 49.4340987,74.005361 C49.4340987,73.7967377 49.3800727,73.5989195 49.2736831,73.4160623 C49.1240727,73.1550753 48.8689039,72.9580883 48.5746701,72.8766338 C48.4599688,72.8458805 48.3552416,72.8309195 48.263813,72.8309195 C47.8715013,72.8309195 47.5016312,73.0428675 47.2506182,73.4119065 L47.1625143,73.5390753 C47.0519688,73.6978286 46.9414234,73.857413 46.8441766,74.0327896 C46.7984623,74.1142442 46.7535792,74.1990234 46.7070338,74.2862961 L46.6422026,74.4126338 L46.5067221,74.6694649 C46.2922805,75.0817247 46.0553974,75.4848416 45.8085403,75.8838026 C45.4769039,76.4190753 45.1336312,76.9518545 44.7895273,77.4804779 L44.5750857,77.815439 L44.1819429,78.4188675 C44.0722286,78.5909195 43.9583584,78.7629714 43.8411636,78.9350234 C43.8976831,78.8036987 43.8893714,78.6607377 43.8760727,78.5003221 C43.8079169,77.7323221 43.7115013,76.8221922 43.5120208,75.8995948 L43.3823584,75.3019844 C43.2776312,74.8091013 43.079813,74.3394909 42.8886442,73.8848416 C42.6359688,73.2955429 42.3799688,72.853361 42.1181506,72.4161662 L41.9751896,72.1759584 C41.7964883,71.8700883 41.6119688,71.568374 41.4232935,71.2666597 C41.0642286,70.6848416 40.6162286,70.2027636 40.1848519,69.7680623 C39.7792416,69.3591273 39.3262545,68.9792831 38.8873974,68.6110753 L38.5840208,68.3517506 C38.3704104,68.1705558 38.1493195,67.9918545 37.9290597,67.8139844 L37.7104623,67.6377766 C37.4311896,67.4141922 37.1419429,67.1955948 36.8502026,66.9878026 C36.3315532,66.6137766 35.729787,66.3403221 35.2635013,66.1433351 C34.2694234,65.7111273 33.3293714,65.4060883 32.3884883,65.2107636 C31.6130078,65.0495169 30.8134234,65.0096208 30.279813,64.9929974 C30.1534753,64.9929974 30.0603844,65.0062961 29.9564883,65.0387117 C29.8700468,64.9265039 29.7196052,64.8350753 29.5517091,64.7885299 C29.457787,64.7611013 29.3630338,64.7461403 29.2765922,64.7461403 C28.8335792,64.7461403 28.4429299,65.045361 28.2816831,65.5083221 C28.167813,65.8366338 28.054774,66.1607896 27.9375792,66.4891013 C27.7846442,66.9030234 27.7073455,67.2587636 27.6998649,67.575439 L27.5344623,67.580426 L27.3607481,67.5937247 L27.4056312,67.5239065 C27.527813,67.4175169 27.6026182,67.2271792 27.6258909,66.9570494 C27.6325403,66.8257247 27.6200727,66.6769455 27.5901506,66.5156987 C27.5344623,66.2148156 27.4205922,65.9264 27.2610078,65.6820364 C27.2560208,65.4908675 27.1205403,65.2573091 26.8819948,65.207439 C26.3974234,65.1101922 26.0084364,65.0644779 25.6568519,65.0644779 C25.4839688,65.0644779 25.3119169,65.0744519 25.1357091,65.0968935 C24.657787,65.1625558 24.209787,65.3113351 23.6736831,65.5000104 C23.4899948,65.5656727 23.3088,65.6305039 23.1309299,65.6978286 L23.0237091,65.7402182 L22.9430857,65.7693091 C22.801787,65.8233351 22.7494234,65.8441143 22.7012156,65.8707117 C22.5590857,65.9288935 22.4319169,66.0070234 22.3047481,66.0851532 C21.3871377,66.6536727 20.6332675,67.2313351 19.9990857,67.728374 C19.4854234,68.1289974 19.069839,68.545413 18.7273974,69.003387 C18.4406442,69.3948675 18.1829818,69.8328935 17.9643844,70.2119065 C17.6792935,70.7014649 17.5130597,71.2184519 17.3917091,71.5966338 L17.3302026,71.7811532 L17.2429299,72.060426 C17.0866701,72.508426 16.9245922,72.9497766 16.7625143,73.3911273 C16.4533195,74.2455688 16.2970597,75.196426 16.1707221,75.9611013 L16.1516052,76.0841143 C16.1000727,76.3991273 16.0410597,76.7141403 15.9828779,77.0258286 L15.9504623,77.2045299 L15.9147221,77.4222961 L15.8823065,77.6084779 C15.8216312,77.9617247 15.7601247,78.3141403 15.7127481,78.6756987 C15.5864104,79.5949714 15.5016312,80.3696208 15.5016312,81.1642182 C15.5016312,81.5465558 15.5049558,81.9272312 15.5149299,82.3095688 L15.5215792,82.576374 L15.5315532,82.8423481 C15.4459429,82.7010494 15.3179429,82.5755429 15.1874494,82.448374 L14.811761,82.0859844 C14.4967481,81.7776208 14.2224623,81.4343481 13.9589818,81.1018805 C13.1078649,79.9532052 12.2974753,78.6050494 11.4754494,76.9718026 C10.8454234,75.7142442 10.2843844,74.4009974 9.74246234,73.1309714 L9.66433247,72.9531013 L9.53799481,72.6472312 L9.33352727,72.1252571 L9.25207273,71.9232831 C9.12905974,71.6248935 9.00854026,71.3265039 8.88802078,71.0239584 C8.77830649,70.7388675 8.6902026,70.4438026 8.60292987,70.1487377 L8.56386494,70.0091013 C8.46329351,69.6649974 8.36272208,69.3208935 8.27877403,68.9701403 C7.97705974,67.7275429 7.73518961,66.4267636 7.51576104,64.8766338 C7.28718961,62.9824 7.07357922,60.9560104 7.05778701,58.9753351 C6.96054026,58.2596987 6.88241039,57.5457247 6.81757922,56.828426 C6.79181299,56.3937247 6.76854026,55.9590234 6.75607273,55.5234909 C6.73196883,54.6341403 6.74859221,53.7680623 6.80428052,52.9501922 L6.83503377,52.5038545 C6.87243636,51.9586078 6.90983896,51.4158545 6.96054026,50.8755948 C7.01872208,50.2422442 7.08355325,49.6064 7.15503377,48.976374 C7.30298182,47.9365818 7.47586494,46.9026078 7.64957922,45.8678026 C7.75846234,45.2194909 7.86734545,44.5720104 7.96957922,43.9212052 C8.10921558,43.0451532 8.2555013,42.1749195 8.41508571,41.3021922 C8.49903377,40.8408935 8.58381299,40.3829195 8.67108571,39.9249455 C8.71596883,39.6972052 8.76583896,39.4711273 8.81654026,39.2450494 L8.86308571,39.0355948 C9.6128,38.7529974 10.4015792,38.5044779 11.0814753,38.2950234 C11.5128519,38.165361 11.9508779,38.0581403 12.3889039,37.9575688 C12.8036571,37.8569974 13.2192416,37.7921662 13.6057351,37.7364779 C14.4551896,37.6724779 15.318774,37.6359065 16.1732156,37.6300883 C16.0626701,37.7489455 15.9321766,37.8919065 15.8282805,38.0456727 C15.5032935,38.5219325 15.367813,39.1328416 15.2946701,39.5517506 C15.2082286,40.0462961 15.2431377,40.5699325 15.3985662,41.1076987 C15.5731117,41.7094649 16.0335792,42.1782442 16.3652156,42.4782961 C16.4915532,42.5946597 16.5572156,42.6569974 16.6278649,42.7185039 C16.3876571,42.6977247 16.1441247,42.684426 15.8972675,42.6686338 C15.6080208,42.6511792 15.3220987,42.6162701 15.0386701,42.5805299 L14.9331117,42.5680623 C14.8134234,42.5456208 14.7095273,42.5256727 14.6089558,42.5098805 L14.4044883,42.3901922 C14.3180468,42.3361662 14.2199688,42.3079065 14.1144104,42.3079065 C14.023813,42.3079065 13.9348779,42.3286857 13.8575792,42.3677506 L13.4411636,42.2729974 C13.4403325,42.2729974 13.3580468,42.2621922 13.3580468,42.2621922 C13.1959688,42.2621922 13.0629818,42.3602701 13.0189299,42.512374 C12.8959169,42.5223481 12.8236052,42.5431273 12.7571117,42.5747117 C12.7022545,42.5946597 12.6465662,42.620426 12.5942026,42.6470234 C12.3963844,42.7791792 12.310774,42.9346078 12.3140987,43.0925299 C12.3165922,43.2072312 12.3681247,43.3119584 12.4653714,43.4067117 C12.546826,43.4981403 12.605839,43.5438545 12.6648519,43.5862442 C12.7280208,43.6194909 12.7862026,43.6485818 12.8477091,43.6776727 C12.9649039,43.7391792 13.0887481,43.7948675 13.2159169,43.8339325 C13.3505662,43.8721662 13.4893714,43.8971013 13.6273455,43.9212052 C13.9149299,43.9702442 14.1293714,44.0001662 14.3404883,44.0259325 C14.7303065,44.0724779 15.1533714,44.0940883 15.633787,44.0940883 C15.8365922,44.0940883 16.0385662,44.0907636 16.2413714,44.0841143 L16.4109299,44.1024 C16.5979429,44.1215169 16.7841247,44.1414649 16.9711377,44.1489455 C17.2171636,44.1589195 17.4665143,44.1647377 17.7125403,44.171387 L17.8521766,44.1738805 C18.2727481,44.1738805 18.7215792,44.1181922 19.2651636,44.0001662 C19.473787,43.9577766 19.6815792,43.915387 19.8893714,43.8638545 C20.1337351,43.8006857 20.349839,43.7449974 20.5277091,43.6253091 C20.6008519,43.5771013 20.6582026,43.5197506 20.6989299,43.457413 C20.7396571,43.4333091 20.7787221,43.4042182 20.817787,43.3676468 C20.9117091,43.2778805 20.9565922,43.1299325 20.9241766,43.0152312 C20.8776312,42.8406857 20.7072416,42.763387 20.6099948,42.7334649 C20.369787,42.6528416 20.1104623,42.6428675 19.8594494,42.6337247 C19.9226182,42.5522701 20.0007481,42.4475429 20.0730597,42.3436468 C20.221839,42.1275429 20.3423584,41.8748675 20.4429299,41.6537766 L20.4803325,41.5739844 C20.8044883,41.0412052 20.9133714,40.4552312 20.9798649,39.947387 C21.0106182,39.6972052 21.009787,39.4594909 20.9765403,39.2408935 C20.9383065,38.9832312 20.8518649,38.7638026 20.7654234,38.5668156 C20.6806442,38.3706597 20.5634494,38.1828156 20.4063584,37.9899844 L20.5160727,38.0481662 L20.6083325,38.0839065 C20.7205403,38.1262961 20.8410597,38.1470753 20.9890078,38.1470753 C21.1153455,38.1429195 21.1951377,38.1229714 21.2674494,38.0864 C21.3671896,38.1321143 21.4611117,38.1620364 21.5716571,38.165361 L21.5733195,38.165361 C21.7071377,38.165361 21.8018909,38.1312831 21.9074494,38.0805818 C21.9207481,38.1878026 21.9373714,38.3016727 21.9531636,38.4180364 C22.0520727,39.2109714 22.1451636,39.9881143 22.2000208,40.7744 C22.2432416,41.4609455 22.2390857,42.1932052 22.1867221,43.0784 L22.1193974,44.2644779 C22.0545662,45.4297766 21.9864104,46.6366338 21.8816831,47.8218805 C21.7852675,48.4527377 21.6614234,49.0877506 21.5059948,49.7626597 C21.4544623,49.9879065 21.3979429,50.2123221 21.3405922,50.4375688 C21.2308779,50.8731013 21.117839,51.3235948 21.0438649,51.7757506 C20.9208519,52.5254649 20.7945143,53.2793351 20.6615273,54.0290494 C20.5459948,54.6881662 20.4711896,55.3639065 20.3980468,56.0188675 L20.3689558,56.2765299 C20.3340468,56.5125818 20.295813,56.7486338 20.2567481,56.9838545 C20.1944104,57.3670234 20.1312416,57.7501922 20.0863584,58.1366857 C20.054774,58.4176208 20.0439688,58.7052052 20.0572675,58.9886338 C20.0763844,59.3526857 20.1561766,59.6585558 20.3149299,59.9827117 C20.3938909,60.1406338 20.4961247,60.2702961 20.6050078,60.4082701 L20.6565403,60.4739325 C20.7213714,60.5587117 20.7936831,60.6301922 20.871813,60.6991792 C20.9391377,60.9235948 21.0330597,61.0840104 21.1702026,61.2211532 C21.3547221,61.3682701 21.4702545,61.4596987 21.6040727,61.525361 C22.5590857,62.0007896 23.6553974,62.0647896 24.6012675,62.0647896 C24.8705662,62.0647896 25.1406961,62.0614649 25.4066701,62.0548156 L25.5138909,62.0514909 L26.1081766,62.0390234 L26.7024623,62.0257247 C27.0773195,62.0190753 27.4621506,61.9692052 27.8012675,61.9251532 L27.9334234,61.909361 L28.0182026,61.8960623 L28.2126961,61.8702961 C28.4495792,61.8038026 28.6449039,61.6932571 28.8119688,61.5328416 C29.0530078,61.2859844 29.1909818,60.9501922 29.1909818,60.6119065 C29.1909818,60.1281662 28.8950857,59.6552312 28.4553974,59.4358026 C28.2866701,59.1008416 27.9641766,58.8822442 27.6375273,58.8822442 L26.7714494,58.9595429 L25.9776831,59.0318545 C25.6593455,59.0609455 25.3410078,59.0867117 25.0226701,59.1099844 C24.8389818,59.1232831 24.6561247,59.1299325 24.4732675,59.1299325 C24.0842805,59.1299325 23.6711896,59.1025039 23.1733195,59.0451532 C23.121787,59.0385039 23.0735792,59.029361 23.0253714,59.019387 L23.1093195,58.1840623 C23.1259429,57.9962182 23.1450597,57.8075429 23.1650078,57.6221922 C23.3262545,57.0586597 23.4476052,56.4942961 23.5639688,55.9482182 C23.7983584,54.8668675 23.938826,53.751439 24.0751377,52.6717506 L24.1615792,51.9960104 L24.2629818,51.3335688 C24.4358649,50.2156468 24.6137351,49.0611532 24.6843844,47.9074909 C24.721787,47.3339844 24.6993455,46.7446857 24.6777351,46.1753351 C24.6486442,45.4131532 24.6228779,44.7216208 24.5996052,44.033413 C24.5871377,43.6327896 24.5713455,43.2321662 24.5555532,42.8315429 L24.5314494,42.231439 C24.5081766,41.6005818 24.4400208,40.9630753 24.3743584,40.3471792 L24.3502545,40.1177766 C24.2372156,39.0173091 24.0601766,37.9027117 23.8889558,36.8255169 C23.8232935,36.4082701 23.7568,35.9910234 23.6936312,35.5746078 C23.6537351,35.3102961 23.4093714,35.0567896 23.1999169,34.9321143 C23.0469818,34.8415169 22.8790857,34.7924779 22.6995532,34.7849974 L22.5698909,34.8947117 L22.3654234,35.0534649 L22.2199688,35.1598545 L22.1127481,35.2479584 L22.107761,35.2421403 C21.9232416,35.3984 21.8093714,35.5089455 21.7021506,35.6286338 L21.6489558,35.8247896 C21.6356571,35.8929455 21.6223584,35.9602701 21.6065662,36.028426 L21.5866182,36.1098805 L21.6805403,36.5645299 L21.7420468,36.983439 C21.7129558,36.9501922 21.6680727,36.9310753 21.6248519,36.9111273 C21.4395013,36.8280104 21.3123325,36.7731532 21.1851636,36.7241143 C20.7305143,36.5395948 20.315761,36.4032831 19.9184623,36.3085299 C19.1205403,36.1156987 18.2278649,36.0118026 17.1889039,35.989361 C17.0077091,35.9868675 16.8223584,35.9868675 16.6403325,35.9868675 C15.8598649,35.9868675 15.165839,36.0184519 14.5191896,36.0841143 C14.0288,36.1364779 13.5417351,36.2013091 13.0546701,36.2694649 C12.5991896,36.3318026 12.1553455,36.4398545 11.7264623,36.545413 C11.4513455,36.6135688 11.1845403,36.6950234 10.9144104,36.7773091 L10.7257351,36.8346597 C10.4265143,36.9219325 10.1339429,37.0324779 9.8446961,37.1463481 C9.61446234,37.2344519 9.3833974,37.3316987 9.15981299,37.4422442 C9.26537143,36.9543481 9.35347532,36.496374 9.4473974,36.0417247 C9.48147532,35.8663481 9.51887792,35.6918026 9.55711169,35.516426 L9.6128,35.2529455 L10.1522286,35.0775688 C10.454774,34.9745039 10.7573195,34.8722701 11.0615273,34.7783481 C11.8104104,34.5539325 12.802826,34.2771532 13.8376312,34.1275429 C14.5449558,34.0369455 15.0902026,33.9737766 15.6628779,33.9671273 L15.9870338,33.9654649 C16.1732156,33.9654649 16.3585662,33.9679584 16.5455792,33.9737766 C16.8481247,33.9837506 17.1465143,34.0095169 17.4415792,34.0386078 C18.0583065,34.1292052 18.5520208,34.2530494 18.9975273,34.428426 C19.2967481,34.561413 19.6084364,34.7342961 19.9508779,34.9562182 C20.0024104,34.9902961 20.0639169,35.0085818 20.1279169,35.0085818 C20.2575792,35.0085818 20.3822545,34.9371013 20.4462545,34.827387 C20.5443325,34.6586597 20.4886442,34.4475429 20.3165922,34.3353351 L20.2392935,34.2838026 C20.2600727,34.1607896 20.2160208,34.0302961 20.123761,33.9338805 C20.0564364,33.8441143 19.9974234,33.7659844 19.9350857,33.6911792 C19.8112416,33.5465558 19.6624623,33.4376727 19.4962286,33.3196468 L19.3806961,33.2398545 L19.2651636,33.1600623 C19.1729039,33.1010494 19.069839,33.0594909 18.9684364,33.0171013 C18.779761,32.9398026 18.6351377,32.8932571 18.4896831,32.8475429 L18.3084883,32.7885299 C17.9003844,32.6588675 17.4864623,32.5599584 17.0999688,32.4735169 C16.8963325,32.4311273 16.6877091,32.4078545 16.4815792,32.385413 L16.3976312,32.3762701 C16.1956571,32.3529974 15.9911896,32.3471792 15.7867221,32.3405299 C15.6213195,32.3405299 15.5016312,32.3480104 15.382774,32.3546597 L15.1500468,32.3662961 C14.9306182,32.3729455 14.7103584,32.3795948 14.4934234,32.4086857 L14.4094753,32.4203221 C14.205839,32.4485818 14.0005403,32.4768416 13.8010597,32.5258805 C13.6182026,32.5715948 13.4403325,32.6247896 13.2608,32.6788156 L13.1086961,32.7236987 L12.9549299,32.7669195 C12.8236052,32.8043221 12.6906182,32.8408935 12.5592935,32.8832831 C12.3448519,32.9580883 12.1304104,33.0328935 11.9192935,33.1135169 C11.7630338,33.1741922 11.6051117,33.2307117 11.4471896,33.2872312 C11.1812156,33.3819844 10.9160727,33.4767377 10.6592416,33.591439 L10.5154494,33.655439 C10.390774,33.7102961 10.2660987,33.7651532 10.1464104,33.8283221 C10.0583065,33.8740364 9.9702026,33.9197506 9.88625455,33.9679584 L9.95191688,33.739387 L10.0059429,33.4966857 C10.1904623,32.6455688 10.3824623,31.7986078 10.5869299,30.9508156 C10.7199169,30.4030753 10.8961247,29.8578286 11.0673455,29.3300364 C11.1562805,29.052426 11.2460468,28.7756468 11.3299948,28.4972052 C11.5186701,27.8630234 11.6724364,27.2770494 11.8012675,26.7076987 C11.9242805,26.1491532 12.0605922,25.5947636 12.2126961,25.0428675 C12.2949818,24.7461403 12.3789299,24.449413 12.4628779,24.1543481 L12.6906182,23.3447896 L12.7172156,23.2458805 C12.7862026,22.992374 12.8551896,22.7380364 12.9466182,22.4911792 C13.0380468,22.2509714 13.1319688,22.0107636 13.2292156,21.7705558 C13.2865662,21.7422961 13.3489039,21.7098805 13.4104104,21.6741403 L13.7752935,21.4721662 C13.9913974,21.3533091 14.2066701,21.2352831 14.4202805,21.1131013 L14.7577351,20.9177766 C14.845839,20.8695688 14.8965403,20.8421403 14.9472416,20.8105558 L15.0195532,20.7631792 L15.0926961,20.7158026 L15.3711377,20.5961143 C16.1590857,20.3209974 17.0093714,20.0251013 17.8862545,19.7599584 L18.1139948,19.6909714 C18.3891117,19.6103481 18.6683844,19.5288935 18.9509818,19.4507636 L19.4089558,19.324426 C19.7239688,19.2338286 20.0389818,19.1457247 20.3564883,19.0709195 L20.5642805,19.0260364 C21.3372675,18.8506597 22.1127481,18.6819325 22.8982026,18.5389714 C23.761787,18.3860364 24.6253714,18.2530494 25.4956052,18.1267117 C26.4788779,18.0228156 27.4621506,17.9280623 28.4529039,17.8540883 C29.3996052,17.7751273 30.353787,17.739387 31.3644883,17.7011532 L31.4592416,17.6978286 C31.7966961,17.6845299 32.1341506,17.6787117 32.4749299,17.6787117 C32.9944104,17.6787117 33.5197091,17.6911792 34.0425143,17.7044779 L34.2993455,17.7144519 L34.5362286,17.7202701 C35.4081247,17.744374 36.2791896,17.808374 37.122826,17.9122701 C38.2756571,18.0951273 39.3944104,18.3569455 40.6320208,18.6553351 C41.9602286,18.9828156 43.0906182,19.3285818 44.0888519,19.713413 C44.935813,20.1132052 45.6389818,20.4780883 46.3172156,20.9593351 C46.4851117,21.111439 46.6471896,21.2701922 46.7959688,21.4422442 C46.8342026,21.495439 46.8699429,21.5577766 46.9056831,21.6342442 C47.1741506,22.4637506 47.3046442,23.3697247 47.4201766,24.1701403 C47.5016312,24.8267636 47.5672935,25.3853091 47.6088519,25.9463481 C47.6354494,26.3328416 47.6479169,26.7193351 47.6612156,27.1083221 C47.6678649,27.3518545 47.6745143,27.5895688 47.6869818,27.8231273 C47.7484883,29.1089455 47.8299429,30.3947636 47.9205403,31.6772571 C47.9596052,32.2424519 47.9920208,32.8034909 48.0211117,33.3686857 C48.0568519,34.0377766 48.0959169,34.709361 48.1516052,35.3792831 C48.2363844,36.3858286 48.3843325,37.4123221 48.5139948,38.3174649 L48.6611117,39.3531013 L48.7259429,39.8493091 L48.8040727,40.4178286 L48.8231896,40.5765818 L48.8406442,40.7104 C48.9661506,41.6845299 49.0841766,42.6054649 49.2462545,43.5031273 L49.0875013,43.5056208 C49.0983065,44.0774649 49.0966442,44.5520623 49.0733714,45.0075429 C49.2553974,44.993413 49.4141506,44.9643221 49.5770597,44.9319065 C49.7482805,45.7896727 49.9951377,46.716426 50.3010078,47.6789195 C50.5096312,48.316426 50.749839,48.917361 51.015813,49.4659325 C51.1263584,49.6845299 51.2468779,49.9014649 51.3806961,50.1067636 C51.842826,50.827387 52.5011117,51.2404779 53.1859948,51.2404779 C53.8816831,51.2172052 54.4103065,50.8140883 54.9206442,50.423439 L55.0411636,50.3328416 C55.1600208,50.2422442 55.2140468,50.2015169 55.2680727,50.1641143 L55.4567481,50.0278026 L55.5282286,49.9787636 C55.8507221,49.7485299 56.155761,49.5315948 56.4824104,49.3528935 C56.5630338,49.3105039 56.6444883,49.2689455 56.7251117,49.2298805 C56.9545143,49.1459325 57.1780987,49.0711273 57.4183065,49.0229195 C57.5005922,49.0619844 57.5222026,49.0860883 57.543813,49.109361 L57.6593455,49.2755948 L57.6909299,49.3769974 L57.7391377,49.5332571 C57.543813,50.2655169 57.5546182,50.8872312 57.7723844,51.4299844 C57.8372156,51.659387 57.9535792,51.8621922 58.1281247,52.0458805 C58.3924364,54.1861403 58.4115532,56.2466078 58.1804883,58.1657766 C58.0765922,58.8140883 57.9328,59.5737766 57.6585143,60.2935688 C57.5197091,60.5769974 57.351813,60.8595948 57.1298909,61.1820883 C56.8389818,61.5270234 56.5006961,61.8511792 56.0959169,62.1736727 C55.7800727,62.4039065 55.2979948,62.7405299 54.7702026,63.0040104 C54.6629818,63.0189714 54.6205922,63.0189714 54.5790338,63.0189714 L54.4975792,62.9059325 C54.3080727,62.672374 54.0254753,62.5452052 53.7021506,62.5452052 C53.4852156,62.5452052 53.2732675,62.6008935 53.1070338,62.7022961 C52.8452156,62.8502442 52.6523844,63.1104 52.5767481,63.415439 C52.5052675,63.7105039 52.5509818,64.0039065 52.7047481,64.2399584 C52.8152935,64.4186597 52.9324883,64.6040104 53.0721247,64.7669195 C53.1303065,64.8350753 53.3356052,65.0644779 53.5201247,65.1517506 C53.767813,65.2639584 53.9456831,65.3412571 54.1576312,65.3961143 C54.3346701,65.4434909 54.550774,65.4675948 54.8192416,65.4675948 C55.4974753,65.4509714 56.1092156,65.1833351 56.6178909,64.9240104 C57.2005403,64.6297766 57.7266701,64.2989714 58.2262026,63.9141403 C58.4506182,63.7420883 58.6650597,63.5559065 58.8761766,63.3680623 C59.0872935,63.1760623 59.2626701,62.9458286 59.4388779,62.7072831 L59.5336312,62.5875948 C59.9234494,62.0639584 60.1669818,61.4430753 60.3722805,60.8512831 C60.566774,60.3027117 60.6390857,59.6951273 60.6972675,59.1191273 L60.7296831,58.8722701 C60.7886961,58.3478026 60.8202805,57.7975688 60.8302545,57.1409455 C60.8468779,55.8534649 60.7928519,54.6058805 60.6715013,53.4322701 C60.6066701,52.7955948 60.5351896,52.1597506 60.4404364,51.5197506 C60.5060987,51.3593351 60.5318649,51.1980883 60.5152416,51.0559584 C60.5052675,51.0235429 60.502774,50.9952831 60.5011117,50.9645299 C60.5310338,50.8091013 60.5767481,50.6628156 60.6224623,50.5198545 L60.6582026,50.4034909 C60.6839688,50.325361 60.7097351,50.2472312 60.7296831,50.1691013 C60.797839,49.9155948 60.8526961,49.6620883 60.9050597,49.4085818 C61.0355532,48.7187117 61.1560727,48.0429714 61.2034494,47.3489455 C61.265787,46.3182961 61.245839,45.3026078 61.2267221,44.3193351 L61.2200727,43.8655169 L61.2134234,43.5987117 C61.2001247,42.7642182 61.1843325,41.9945558 61.1419429,41.2406857 L61.1810078,41.1417766 C61.3181506,40.7852052 61.4561247,40.4269714 61.5766442,40.065413 L61.7353974,39.6066078 L61.777787,39.484426 C61.9016312,39.1270234 62.0246442,38.7704519 62.1285403,38.4130494 L62.2490597,38.0041143 L62.6513455,36.6276987 C62.747761,36.3018805 62.8209039,35.9735688 62.8940468,35.6452571 L62.9173195,35.5388675 L63.0278649,35.0385039 C63.2697351,34.0228156 63.4575792,32.951439 63.5872416,31.8526338 L63.6396052,31.4079584 C63.687813,31.0214649 63.7368519,30.6324779 63.7626182,30.2451532 L63.7950338,29.7190234 L63.830774,29.1870753 L63.8473974,28.9726338 C63.8598649,28.8039065 63.8731636,28.6310234 63.8764883,28.4622961 L63.8856312,27.5147636 L63.8989299,26.5630753 C63.9047481,26.0219844 63.8715013,25.4825558 63.830774,24.8841143 C63.7700987,23.9847896 63.6603844,23.1212052 63.5024623,22.3182961 C63.3603325,21.579387 63.1350857,20.8521143 62.9173195,20.1489455 L62.7909818,19.7524779 C62.6613195,19.329413 62.5050597,18.9138286 62.3496312,18.5015688 L62.2582026,18.2646857 C61.7570078,16.9323221 61.1569039,15.3938286 60.3847481,13.9874909 C59.7813195,12.8920104 59.0266182,11.9079065 58.3675013,11.0900364 L58.1015273,10.7658805 C57.8579948,10.4633351 57.6144623,10.1616208 57.3576312,9.86572468 L57.1273974,9.59975065 C56.4782545,8.85086753 55.8075013,8.07538701 55.1010078,7.3531013 C54.678774,6.91756883 54.2465662,6.49533506 53.8052156,6.07975065 C53.4245403,5.72151688 53.0056312,5.40317922 52.5742545,5.08234805 L52.3756052,4.93356883 C51.606774,4.35091948 50.7672935,3.77325714 49.6543584,3.05928312 C48.6760727,2.42676364 47.6662026,1.91476364 46.6530078,1.53907532 L46.3803844,1.43517922 C46.1825662,1.36037403 45.9839169,1.28556883 45.782774,1.21741299 C45.1560727,0.999646753 44.4686961,0.830919481 43.5535792,0.668841558 C42.7456831,0.53252987 42.1322805,0.466867532 41.5629299,0.456893506 C41.2263065,0.451075325 40.8896831,0.447750649 40.5538909,0.444425974 L40.5497351,0.444425974 Z" transform="translate(226 114.386)" fill="#161616"/><path d="M24.9391377,73.1274805 C24.3739429,73.2829091 24.0206961,73.8904935 24.182774,74.459013 C24.3872416,75.1796364 24.8161247,75.8478961 25.3414234,76.3806753 C25.5400727,76.5784935 25.8251636,76.7505455 26.0753455,76.8843636 C26.3222026,77.0173506 26.5848519,77.1112727 26.8483325,77.2085195 C27.1924364,77.3348571 27.5756052,77.3647792 27.9355013,77.412987 C28.1466182,77.4387532 28.3577351,77.4487273 28.5688519,77.4454026 C29.0883325,77.4387532 29.6335792,77.3581299 30.1339429,77.2085195 C30.961787,76.9616623 31.6566442,76.3549091 32.1860987,75.6924675 C32.3124364,75.5395325 32.4454234,75.3807792 32.5335273,75.2020779 C32.5850597,75.0981818 32.6498909,74.9618701 32.6731636,74.8388571 C32.753787,74.4066494 32.6731636,74.1049351 32.3972156,73.769974 C32.1694753,73.494026 31.6824104,73.3843117 31.3482805,73.5106494 C31.005839,73.6386494 30.8371117,73.8123636 30.6451117,74.0617143 C30.4614234,74.2803117 30.2586182,74.4839481 30.0416831,74.6684675 C29.8771117,74.7798442 29.7058909,74.8770909 29.5280208,74.9651948 C29.3493195,75.0225455 29.1672935,75.0591169 28.982774,75.089039 C28.6569558,75.1222857 28.3386182,75.1222857 28.0136312,75.0931948 C27.7551377,75.0474805 27.5082805,74.980987 27.259761,74.8937143 C27.1035013,74.8197403 26.9522286,74.7374545 26.8051117,74.6476883 C26.6912416,74.5437922 26.5856831,74.4324156 26.4851117,74.3143896 C26.4310857,74.2354286 26.3820468,74.1548052 26.3346701,74.0708571 C26.3130597,74.0093506 26.2922805,73.947013 26.2731636,73.8838442 C26.1376831,73.4092468 25.698826,73.0884156 25.2225662,73.0884156 C25.1294753,73.0884156 25.0338909,73.1008831 24.9391377,73.1274805" fill="#161616" transform="translate(226 114)"/><path d="M29.2260571,74.8368623 C29.2044468,74.8468364 29.1820052,74.8559792 29.1595636,74.8659532 C29.1820052,74.8559792 29.2044468,74.8460052 29.2260571,74.8368623 M31.4286545,72.989174 C31.2175377,73.0639792 31.1884468,73.0963948 31.0130701,73.2360312 C30.9124987,73.314161 30.8443429,73.4280312 30.7728623,73.5319273 C30.7013818,73.6316675 30.6340571,73.7347325 30.5625766,73.8344727 C30.4038234,74.0297974 30.2317714,74.2151481 30.0381091,74.3780571 C29.8028883,74.5442909 29.5518753,74.6880831 29.289226,74.8086026 C29.0781091,74.8875636 28.8628364,74.9415896 28.6400831,74.9814857 C28.4854857,74.9939532 28.3350442,74.9956156 28.1796156,74.9839792 C27.8197195,74.9249662 27.4681351,74.8385247 27.1240312,74.7163429 C26.9968623,74.6564987 26.8755117,74.5908364 26.7583169,74.5127065 C26.6810182,74.4428883 26.606213,74.3705766 26.5355636,74.2941091 C26.4649143,74.0888104 26.4117195,73.8776935 26.3543688,73.668239 C26.2305247,73.2169143 25.7534338,72.9442909 25.3021091,73.0706286 C24.8541091,73.1936416 24.5814857,73.6715636 24.7053299,74.1228883 C24.7568623,74.3074078 24.809226,74.4927584 24.8640831,74.6814338 C24.8898494,74.7653818 24.9189403,74.8534857 24.9546805,74.9341091 C25.0394597,75.1385766 25.085174,75.2067325 25.2214857,75.3787844 C25.3087584,75.4926545 25.4093299,75.593226 25.5099013,75.6937974 C25.8249143,76.0054857 26.237174,76.2199273 26.6560831,76.3628883 C27.0201351,76.4859013 27.3999792,76.5449143 27.7798234,76.5864727 C27.9261091,76.6064208 28.0748883,76.6130701 28.221174,76.6197195 C28.5195636,76.6255377 28.8154597,76.5773299 29.1072,76.5249662 C29.5003429,76.4568104 29.8668883,76.2980571 30.2276156,76.1417974 C30.4777974,76.0312519 30.7213299,75.8891221 30.9415896,75.7295377 C31.1826286,75.5508364 31.4319792,75.3629922 31.6397714,75.145226 C31.785226,74.9931221 31.9190442,74.8376935 32.0478753,74.6756156 C32.0470442,74.6764468 32.046213,74.6772779 32.046213,74.6781091 C32.0919273,74.6207584 32.1393039,74.5634078 32.1850182,74.505226 C32.3894857,74.3697455 32.5673558,74.1029403 32.5390961,73.8502649 C32.5266286,73.7555117 32.5233039,73.6649143 32.5033558,73.5709922 C32.4484987,73.3108364 32.1825247,73.0315636 31.9157195,72.9858494 C31.8217974,72.969226 31.7328623,72.9542649 31.6430961,72.9542649 C31.5732779,72.9542649 31.5034597,72.9634078 31.4286545,72.989174" fill="#161616" transform="translate(226 114)"/><path d="M243.713966 153.531963C243.786128 153.729133 244.119461 153.729133 244.213966 154 244.30847 154.270867 244.119461 154.639902 244.213966 154.898117M262 154C262.072162 154.19717 262.405496 154.19717 262.5 154.468037 262.594504 154.738904 262.405496 155.107939 262.5 155.366154" stroke="#FFF" stroke-width=".3"/></g></svg>