<svg width="500" height="600" viewBox="0 0 500 600" fill="none" xmlns="http://www.w3.org/2000/svg">
<path fill-rule="evenodd" clip-rule="evenodd" d="M266.158 203.825V203.828L266.161 203.825H266.158ZM257.993 140.058L256.273 140.126C255.933 140.139 255.587 140.171 255.246 140.194L253.468 140.317C253.172 140.337 252.877 140.383 252.581 140.421C251.961 140.496 251.337 140.574 250.717 140.651C250.445 140.685 250.173 140.726 249.903 140.775C248.828 140.976 247.753 141.181 246.679 141.382C246.412 141.434 246.149 141.512 245.887 141.577C245.253 141.737 244.62 141.895 243.984 142.051C243.571 142.155 243.159 142.258 242.746 142.36C242.176 142.502 241.61 142.674 241.045 142.837C240.912 142.875 240.799 142.963 240.73 143.083C240.662 143.203 240.643 143.345 240.678 143.479C240.753 143.752 241.048 143.921 241.321 143.844C241.864 143.687 242.402 143.522 242.951 143.386C243.311 143.297 243.675 143.206 244.036 143.12C244.922 142.898 245.806 142.68 246.691 142.46C247.198 142.337 247.714 142.258 248.227 142.161C248.97 142.025 249.712 141.891 250.455 141.751C251.387 141.638 252.321 141.531 253.257 141.421C253.594 141.379 253.935 141.376 254.272 141.353L256.048 141.246C256.38 141.226 256.711 141.223 257.039 141.217C257.578 141.2 258.119 141.187 258.659 141.171C259.081 141.158 259.506 141.187 259.929 141.194C260.315 141.204 260.705 141.197 261.091 141.23C261.551 141.272 262.012 141.315 262.473 141.355L263.299 141.495C263.568 141.541 263.834 141.616 264.101 141.681C264.604 141.807 265.097 141.983 265.594 142.145C265.929 142.253 266.298 142.022 266.39 141.691C266.487 141.337 266.273 141.006 265.938 140.892C265.117 140.612 264.273 140.408 263.415 140.282C263.185 140.249 262.955 140.213 262.72 140.181C262.478 140.148 262.23 140.139 261.984 140.119C261.574 140.09 261.163 140.044 260.75 140.044C260.155 140.042 259.559 140.038 258.964 140.032C258.639 140.032 258.318 140.044 257.994 140.058H257.993ZM280.12 171.634C280.102 171.65 280.084 171.664 280.064 171.676L280.119 171.634H280.12ZM280.318 169.592L280.31 169.653L280.318 169.593V169.592ZM280.087 168.934C280.069 168.941 280.052 168.948 280.034 168.955L280.087 168.935V168.934ZM280.245 168.901C280.259 168.926 280.27 168.953 280.278 168.981C280.268 168.956 280.258 168.928 280.245 168.901ZM280.138 168.845C280.165 168.853 280.189 168.864 280.213 168.875H280.21C280.187 168.865 280.163 168.854 280.138 168.845ZM280.142 168.055C280.066 168.058 279.991 168.076 279.922 168.108C279.724 168.181 279.534 168.275 279.356 168.388C279.261 168.444 279.192 168.536 279.164 168.642C279.136 168.749 279.151 168.862 279.206 168.958C279.263 169.053 279.355 169.121 279.462 169.149C279.568 169.177 279.682 169.162 279.778 169.108C279.89 169.04 280 168.981 280.118 168.922C280.153 168.908 280.19 168.895 280.226 168.884L280.233 168.885L280.239 168.889V168.891C280.278 168.989 280.311 169.086 280.336 169.186C280.339 169.315 280.334 169.44 280.32 169.566C280.273 169.922 280.228 170.282 280.187 170.637C280.154 170.917 280.16 171.198 280.136 171.477C280.13 171.508 280.123 171.539 280.113 171.569C280.095 171.607 280.075 171.643 280.052 171.678L280.041 171.69C280.021 171.702 280.001 171.712 279.98 171.721C279.772 171.825 279.714 172.114 279.827 172.306C279.882 172.4 279.977 172.472 280.083 172.501C280.203 172.536 280.301 172.507 280.412 172.458C280.537 172.4 280.648 172.316 280.738 172.212C280.828 172.107 280.894 171.984 280.932 171.852C280.988 171.645 281.013 171.432 281.008 171.218C281.015 170.926 281.028 170.638 281.064 170.345C281.08 170.179 281.1 170.014 281.122 169.845C281.139 169.702 281.162 169.555 281.175 169.41C281.19 169.189 281.159 168.968 281.083 168.76C281.04 168.624 280.978 168.495 280.898 168.377C280.86 168.315 280.808 168.264 280.746 168.227C280.72 168.209 280.69 168.189 280.661 168.167C280.595 168.137 280.529 168.108 280.463 168.079C280.393 168.062 280.321 168.05 280.249 168.043C280.213 168.047 280.177 168.053 280.142 168.056V168.055ZM251.95 149.491H251.953C251.899 149.466 251.844 149.443 251.788 149.423C251.843 149.445 251.895 149.469 251.95 149.491Z" fill="#161616"/>
<path fill-rule="evenodd" clip-rule="evenodd" d="M251.95 149.491H251.953C251.899 149.466 251.844 149.443 251.788 149.423C251.843 149.445 251.895 149.469 251.95 149.491Z" fill="#161616"/>
<path fill-rule="evenodd" clip-rule="evenodd" d="M251.95 149.491H251.953C251.899 149.466 251.844 149.443 251.788 149.423C251.843 149.445 251.895 149.469 251.95 149.491ZM257.257 147.133H257.255H257.258H257.257ZM265.783 147.191L265.75 147.165C265.76 147.175 265.772 147.185 265.783 147.191ZM261.191 147.217L261.266 147.227C261.241 147.224 261.216 147.221 261.191 147.217V147.217ZM259.396 145.747L258.591 145.757C257.561 145.775 256.539 145.933 255.552 146.227C254.962 146.405 254.38 146.623 253.822 146.889C253.309 147.133 252.815 147.425 252.335 147.73C252.195 147.815 252.094 147.952 252.052 148.11C252.011 148.269 252.033 148.437 252.113 148.58C252.279 148.863 252.675 148.984 252.961 148.802C253.541 148.425 254.149 148.094 254.781 147.812C255.578 147.494 256.408 147.266 257.255 147.133C257.222 147.137 257.188 147.142 257.155 147.146L257.257 147.133L257.325 147.123C257.303 147.127 257.28 147.13 257.258 147.133C257.762 147.074 258.268 147.048 258.776 147.048C259.036 147.048 259.299 147.042 259.558 147.058C259.831 147.074 260.107 147.078 260.376 147.114L261.096 147.204C261.466 147.27 261.839 147.324 262.208 147.405C262.629 147.497 263.048 147.594 263.468 147.701C263.821 147.788 264.165 147.902 264.506 148.025C264.656 148.085 264.808 148.143 264.961 148.197C265.084 148.24 265.208 148.262 265.334 148.285C265.601 148.334 265.864 148.256 266.006 148.013C266.046 147.944 266.072 147.868 266.082 147.788C266.092 147.709 266.086 147.629 266.065 147.552C266.022 147.392 265.922 147.292 265.792 147.197L265.782 147.191C265.794 147.2 265.805 147.208 265.814 147.217C265.706 147.132 265.591 147.056 265.47 146.99C265.276 146.882 265.068 146.804 264.864 146.724C264.509 146.59 264.146 146.48 263.776 146.395C262.938 146.191 262.091 146 261.231 145.899C260.797 145.842 260.362 145.8 259.925 145.772C259.763 145.764 259.598 145.746 259.436 145.746H259.396V145.747Z" fill="#161616"/>
<path fill-rule="evenodd" clip-rule="evenodd" d="M254.567 148.07L254.505 148.098C254.525 148.088 254.546 148.08 254.567 148.071V148.07ZM259.747 145.973C259.286 145.996 258.831 146.026 258.371 146.062C258.007 146.091 257.643 146.13 257.283 146.172C256.919 146.214 256.552 146.252 256.195 146.331C256.025 146.367 255.851 146.396 255.685 146.444L255.026 146.639C254.123 146.905 253.276 147.359 252.442 147.789C252.152 147.938 252.072 148.334 252.227 148.603C252.4 148.893 252.754 148.964 253.043 148.814C253.525 148.568 254.005 148.317 254.5 148.1C254.812 147.972 255.127 147.853 255.448 147.756C255.649 147.697 255.851 147.623 256.056 147.578L256.614 147.45C256.801 147.41 256.992 147.39 257.179 147.362C258.05 147.251 258.925 147.171 259.802 147.123C260.292 147.101 260.782 147.071 261.273 147.083C261.695 147.093 262.112 147.131 262.528 147.18C263.453 147.355 264.364 147.62 265.241 147.964C265.764 148.208 266.278 148.479 266.745 148.82C266.82 148.882 266.895 148.946 266.965 149.012C267.182 149.217 267.487 149.331 267.783 149.24C268.065 149.149 268.318 148.88 268.296 148.568C268.293 148.414 268.251 148.263 268.173 148.13C268.084 147.983 267.973 147.905 267.838 147.805C267.708 147.704 267.555 147.629 267.406 147.555C267.013 147.353 266.608 147.178 266.202 146.999C265.991 146.905 265.777 146.821 265.559 146.746C265.326 146.671 265.091 146.604 264.854 146.546C264.443 146.431 264.03 146.326 263.614 146.23C262.76 146.042 261.894 145.97 261.02 145.941C260.941 145.939 260.863 145.938 260.784 145.938C260.439 145.938 260.09 145.958 259.747 145.973" fill="#161616"/>
<path fill-rule="evenodd" clip-rule="evenodd" d="M259.925 146.642C259.48 146.652 259.035 146.655 258.593 146.678C258.363 146.691 258.139 146.704 257.912 146.73C256.921 146.863 255.935 147.026 254.954 147.217C254.149 147.376 253.36 147.633 252.574 147.88C252.474 147.909 252.389 147.977 252.337 148.068C252.286 148.159 252.272 148.266 252.298 148.367C252.327 148.467 252.395 148.552 252.486 148.604C252.576 148.655 252.684 148.669 252.785 148.643C253.395 148.451 254.006 148.256 254.633 148.123C255.243 147.996 255.855 147.89 256.473 147.805L256.457 147.808C256.941 147.743 257.425 147.668 257.912 147.633C258.404 147.602 258.896 147.591 259.389 147.6C259.892 147.604 260.395 147.607 260.899 147.626C261.155 147.639 261.412 147.656 261.665 147.676C261.915 147.694 262.162 147.73 262.408 147.766L262.272 147.746C263.078 147.886 263.889 148.023 264.681 148.224C265.478 148.424 266.261 148.674 267.044 148.918C267.143 148.961 267.253 148.973 267.359 148.953C267.465 148.933 267.562 148.881 267.639 148.805C267.739 148.705 267.798 148.565 267.798 148.422C267.798 148.269 267.733 148.156 267.639 148.042C267.474 147.837 267.204 147.779 266.964 147.713C266.765 147.659 266.571 147.603 266.374 147.551C265.954 147.437 265.539 147.318 265.116 147.221C264.266 147.025 263.402 146.896 262.541 146.766C261.874 146.662 261.191 146.637 260.511 146.637C260.316 146.637 260.119 146.639 259.925 146.642V146.642ZM256.63 151.514L256.486 151.534L256.629 151.514H256.63ZM260.337 149.715C259.437 149.722 258.542 149.731 257.649 149.823C256.86 149.898 256.077 150.023 255.304 150.199C254.516 150.385 253.746 150.676 252.983 150.949C252.603 151.085 252.353 151.449 252.467 151.862C252.567 152.228 252.997 152.511 253.377 152.378C253.936 152.176 254.501 151.992 255.071 151.826C255.516 151.699 255.971 151.611 256.431 151.543C256.953 151.479 257.477 151.426 258.002 151.384C258.514 151.343 259.029 151.35 259.541 151.354C259.776 151.335 260.014 151.329 260.249 151.329C260.944 151.332 261.638 151.366 262.329 151.433C262.479 151.445 262.631 151.459 262.782 151.475C263.025 151.515 263.265 151.553 263.509 151.595C264.094 151.713 264.669 151.874 265.23 152.077C265.684 152.226 266.197 152.394 266.51 152.764C266.556 152.802 266.604 152.838 266.656 152.871C266.762 152.94 266.886 152.979 267.009 153.018C267.145 153.055 267.287 153.055 267.423 153.019C267.559 152.982 267.683 152.911 267.782 152.812C268.042 152.553 268.075 152.167 267.905 151.848C267.841 151.705 267.759 151.571 267.661 151.449C267.474 151.219 267.191 151.073 266.931 150.936C266.481 150.696 265.99 150.53 265.51 150.365C264.657 150.079 263.775 149.889 262.88 149.799C262.197 149.736 261.51 149.708 260.824 149.715H260.337V149.715ZM255.189 156.387C255.159 156.439 255.139 156.497 255.131 156.557C255.123 156.618 255.127 156.679 255.143 156.737C255.179 156.86 255.253 156.935 255.351 157.01C255.529 157.136 255.705 157.254 255.899 157.358C256.11 157.471 256.349 157.54 256.579 157.604C257.108 157.754 257.659 157.824 258.205 157.887C258.413 157.913 258.624 157.923 258.832 157.938C258.997 157.952 259.162 157.971 259.328 157.978C259.928 158 260.533 158.046 261.133 158.013C261.526 157.994 261.916 157.923 262.303 157.851C262.38 157.838 262.458 157.819 262.536 157.802C262.666 157.773 262.783 157.724 262.894 157.652C263 157.584 263.059 157.497 263.134 157.4C263.197 157.291 263.221 157.164 263.201 157.04C262.471 157.052 261.737 157.025 261.009 156.954C260.442 157.004 259.872 156.991 259.305 156.988C259.091 156.988 258.88 156.968 258.669 156.955C258.336 156.941 258.003 156.915 257.672 156.877C257.248 156.823 256.831 156.73 256.425 156.597C256.21 156.491 256.005 156.367 255.812 156.225C255.75 156.18 255.675 156.156 255.598 156.156C255.516 156.158 255.436 156.179 255.364 156.219C255.293 156.26 255.232 156.317 255.188 156.386" fill="#161616"/>
<path fill-rule="evenodd" clip-rule="evenodd" d="M262.14 150.48C262.035 150.477 261.93 150.48 261.825 150.487C261.559 150.507 261.27 150.545 261.036 150.678C260.815 150.805 260.64 150.987 260.478 151.178C260.435 151.227 260.393 151.277 260.352 151.328C260.636 151.331 260.923 151.342 261.205 151.354C262.115 151.39 263.02 151.494 263.909 151.691C264.329 151.782 264.731 151.913 265.136 152.049L265.208 152.072C265.084 151.886 264.934 151.714 264.792 151.545C264.594 151.312 264.341 151.126 264.095 150.948C263.855 150.775 263.572 150.662 263.302 150.558C263.049 150.458 262.757 150.441 262.487 150.438C262.37 150.438 262.254 150.455 262.14 150.48V150.48ZM260.757 157.11C261.319 157.468 261.974 157.626 262.63 157.688C262.949 157.718 263.27 157.678 263.581 157.63C263.848 157.587 264.098 157.53 264.347 157.429C264.543 157.347 264.643 157.292 264.809 157.159C264.909 157.078 264.991 156.996 265.075 156.893L265.078 156.888C264.691 156.949 264.294 156.995 263.909 157.016C262.75 157.078 261.587 157.035 260.436 156.888C260.54 156.966 260.646 157.04 260.756 157.11" fill="#161616"/>
<path fill-rule="evenodd" clip-rule="evenodd" d="M255.61 156.528C255.484 156.745 255.546 157.076 255.783 157.193C256.357 157.476 256.951 157.693 257.559 157.888C257.738 157.946 257.919 158.004 258.097 158.064C258.503 158.194 258.922 158.271 259.341 158.326C260.075 158.426 260.822 158.479 261.561 158.459C261.718 158.456 261.877 158.462 262.033 158.447C262.224 158.427 262.413 158.411 262.604 158.391C262.929 158.359 263.26 158.313 263.584 158.255C263.916 158.193 264.244 158.132 264.571 158.054C264.715 158.021 264.857 157.982 264.997 157.936C265.13 157.895 265.273 157.846 265.387 157.764C265.497 157.686 265.589 157.586 265.657 157.469C265.717 157.364 265.744 157.242 265.733 157.121C265.722 157 265.674 156.886 265.595 156.793L265.535 156.807C265.01 156.907 264.448 156.985 263.909 157.015L263.676 157.025C263.316 157.105 262.952 157.172 262.591 157.238L262.747 157.219C262.227 157.287 261.711 157.355 261.189 157.362C260.5 157.372 259.821 157.355 259.139 157.272C258.745 157.201 258.356 157.105 257.974 156.985C257.535 156.857 257.102 156.71 256.675 156.545C256.539 156.482 256.406 156.417 256.276 156.355C256.197 156.315 256.109 156.294 256.02 156.294C255.937 156.292 255.855 156.312 255.782 156.354C255.71 156.395 255.65 156.455 255.61 156.528" fill="#161616"/>
<path fill-rule="evenodd" clip-rule="evenodd" d="M247.502 186.306L247.531 186.234C247.592 186.094 247.651 185.955 247.72 185.819C247.804 185.647 247.892 185.481 247.982 185.312L248.047 185.189L248.147 185.001L248.252 184.812C248.385 184.653 248.524 184.494 248.667 184.335C248.803 184.182 248.953 184.037 249.106 183.899H249.138C249.196 183.901 249.254 183.894 249.31 183.88C249.856 183.754 250.41 183.66 250.963 183.565L251.365 183.497C252.414 183.397 253.392 183.306 254.372 183.227C254.589 183.347 254.839 183.419 255.035 183.468C255.239 183.523 255.45 183.555 255.655 183.585L255.995 183.637C256.609 183.737 257.203 183.88 257.596 183.974C258.186 184.121 258.729 184.254 259.246 184.454L259.346 184.504L259.496 184.569C259.898 184.894 260.424 185.325 260.911 185.789C261.093 185.962 261.245 186.166 261.395 186.364C261.47 186.459 261.541 186.556 261.618 186.65L261.901 186.994L262.265 187.439C262.7 188.039 263.07 188.676 263.395 189.38L263.473 189.585C263.532 190.151 263.547 190.721 263.518 191.289L263.512 191.579C263.511 191.861 263.496 192.142 263.466 192.422C263.42 192.695 263.362 192.962 263.291 193.231C263.217 193.503 263.127 193.771 263.021 194.033C262.758 194.654 262.425 195.243 262.028 195.789C261.836 196.017 261.638 196.241 261.428 196.459C261.178 196.715 260.911 196.953 260.628 197.172C260.551 197.233 260.471 197.29 260.388 197.344C260.31 197.397 260.227 197.444 260.141 197.484C260 197.544 259.853 197.587 259.703 197.614C259.635 197.62 259.567 197.624 259.499 197.624C259.369 197.624 259.239 197.614 259.109 197.598C259.018 197.582 258.928 197.561 258.839 197.536C258.64 197.442 258.45 197.33 258.271 197.202C258.182 197.124 258.1 197.04 258.024 196.949C257.947 196.838 257.88 196.721 257.824 196.599C257.71 196.297 257.63 195.983 257.584 195.663C257.571 195.554 257.569 195.444 257.576 195.335L257.849 195.241C258.131 195.14 258.407 195.024 258.677 194.893C258.917 194.776 259.092 194.653 259.164 194.423C259.195 194.316 259.189 194.202 259.147 194.099C259.105 193.996 259.03 193.91 258.934 193.854C258.841 193.807 258.739 193.783 258.635 193.783C258.553 193.783 258.471 193.794 258.392 193.815C258.252 193.848 258.118 193.883 257.982 193.923C257.62 194.032 257.251 194.118 256.878 194.179C256.031 194.287 255.376 194.331 254.755 194.331L254.525 194.335H254.057C253.609 194.335 253.08 194.328 252.554 194.277C252.227 194.224 251.905 194.142 251.593 194.03C251.538 194.008 251.48 193.997 251.421 193.997C251.281 194.003 251.147 194.052 251.037 194.138C250.926 194.223 250.845 194.341 250.804 194.474C250.76 194.641 250.783 194.818 250.869 194.968C250.949 195.104 251.067 195.195 251.252 195.26C251.801 195.469 252.377 195.6 252.962 195.65L252.937 195.77C252.906 195.956 252.857 196.138 252.791 196.315C252.696 196.496 252.588 196.67 252.466 196.835C252.331 196.987 252.183 197.127 252.024 197.254C251.852 197.374 251.68 197.477 251.499 197.569C251.283 197.653 251.06 197.718 250.833 197.763C250.602 197.788 250.369 197.79 250.138 197.77C249.961 197.738 249.787 197.691 249.618 197.63C249.246 197.453 248.893 197.24 248.563 196.994C248.416 196.877 248.276 196.751 248.144 196.617C247.998 196.465 247.858 196.307 247.726 196.143C247.542 195.9 247.375 195.644 247.226 195.377C247.064 195.082 246.915 194.781 246.778 194.474C246.701 194.292 246.628 194.108 246.557 193.923C246.5 193.761 246.45 193.596 246.408 193.429L246.356 193.248C246.235 192.783 246.138 192.313 246.066 191.838C246.024 191.408 246.019 190.974 246.051 190.543L246.112 190.335C246.187 190.098 246.258 189.864 246.317 189.627L246.385 189.354C246.434 189.147 246.482 188.942 246.545 188.741L246.585 188.605C246.612 188.517 246.638 188.429 246.671 188.341C246.726 188.192 246.785 188.043 246.846 187.893C246.982 187.559 247.119 187.222 247.258 186.89L247.498 186.309H247.502V186.312V186.306V186.306ZM266.55 114.832H266.465C266.105 114.832 265.741 114.864 265.385 114.897L265.167 114.912C264.325 114.982 263.483 115.067 262.644 115.166C260.952 115.38 259.319 115.686 257.794 116.079C257.15 116.241 256.458 116.449 255.624 116.731L255.41 116.803C254.864 116.981 254.41 117.137 253.968 117.322L252.105 118.101L251.638 118.29C251.29 118.43 250.943 118.569 250.611 118.73L250.004 119.02L249.874 119.078C249.144 119.432 248.414 119.783 247.686 120.16L245.816 121.124C245.526 121.27 245.244 121.439 244.968 121.608L244.628 121.815C244.306 122.001 243.988 122.185 243.676 122.374L243.543 122.449C243.413 122.523 243.332 122.565 243.26 122.617L242.436 123.176L241.611 123.738C240.91 124.212 240.231 124.714 239.481 125.28L238.816 125.773C238.169 126.25 237.533 126.744 236.896 127.238L236.41 127.614C235.55 128.279 234.69 129.034 233.998 129.637L233.605 129.977C232.851 130.637 232.153 131.335 231.276 132.247L230.842 132.705C230.428 133.15 230.004 133.585 229.569 134.01C228.989 134.563 228.385 135.09 227.757 135.588C227.631 135.676 227.501 135.763 227.371 135.848L227.267 135.919C227.17 135.981 227.079 136.046 226.984 136.111C226.831 136.217 226.682 136.331 226.54 136.452C226.277 136.672 226.16 136.974 226.06 137.241C225.965 137.481 225.994 137.936 226.06 138.156C226.092 138.266 226.13 138.371 226.176 138.474C226.403 139.016 226.618 139.598 226.878 140.361C227.101 141.017 227.326 141.673 227.527 142.331C227.735 143.013 227.894 143.676 228.017 144.348C228.118 145.309 228.115 146.335 228.004 147.396C227.917 147.864 227.786 148.481 227.563 149.066C227.305 149.657 227.011 150.231 226.683 150.786L226.546 151.006L226.413 151.231C226.267 151.478 226.16 151.731 226.076 151.949C225.998 152.146 225.988 152.422 226.043 152.672C226.092 152.864 226.209 153.114 226.355 153.234C226.497 153.348 226.64 153.455 226.829 153.543C226.943 153.598 227.066 153.643 227.183 153.686C227.982 154.043 228.715 154.484 229.423 154.91L229.686 155.069C229.962 155.237 230.237 155.399 230.53 155.539C230.816 155.675 231.128 155.774 231.426 155.867L231.595 155.916C231.783 155.975 231.969 156.02 232.163 156.05C232.147 156.14 232.15 156.25 232.153 156.361C232.16 156.578 232.177 156.796 232.193 157.014C232.088 157.52 231.995 158.029 231.9 158.54L231.722 159.5C231.404 161.17 231.092 162.968 230.972 164.803L230.956 165.056L230.939 165.309C230.92 165.445 230.904 165.581 230.891 165.718L230.845 166.118L230.823 166.358C230.787 166.683 230.757 166.991 230.731 167.306C230.705 167.618 230.689 167.929 230.673 168.238L230.641 168.828C230.57 169.937 230.516 171.048 230.481 172.159C230.469 172.634 230.461 173.118 230.455 173.591C230.449 174.029 230.465 174.413 230.485 174.799L230.505 175.238C230.543 176.15 230.631 177.081 230.725 178.033L230.738 178.183L230.751 178.306L230.764 178.42C231.027 181.01 231.387 183.085 231.897 184.948C232.01 185.352 232.137 185.748 232.271 186.144C232.349 186.371 232.439 186.592 232.53 186.812L232.569 186.91L232.734 187.312C233.095 188.212 233.464 189.101 233.844 189.992C233.868 189.939 233.861 189.89 233.844 189.838C234.147 190.718 234.601 191.773 235.05 192.676C235.523 193.632 236.042 194.565 236.605 195.471C237.255 196.542 237.929 197.445 238.67 198.235C239.225 198.819 239.848 199.355 240.4 199.829L240.472 199.89L241.027 200.37C242.105 201.302 242.939 201.936 243.731 202.429C244.488 202.91 245.283 203.263 246.053 203.604L246.553 203.832L246.965 204.022L247.063 204.069C247.968 204.488 248.787 204.861 249.618 205.179C249.809 205.261 250.004 205.332 250.198 205.4L250.335 205.448L250.501 205.508L250.595 205.54L251.134 205.734C251.566 205.896 252.001 206.059 252.445 206.192C253.549 206.523 254.702 206.582 255.884 206.614C256.404 206.63 256.92 206.64 257.436 206.647L257.576 206.65C258.775 206.662 259.962 206.419 261.059 205.935C261.679 205.682 262.215 205.345 262.659 205.046C263.358 204.585 264.027 204.062 264.669 203.556L264.832 203.429L265.371 203.004L265.624 202.806C265.965 202.539 266.309 202.27 266.631 201.977C267.008 201.622 267.374 201.255 267.728 200.877L267.878 200.715L267.933 200.65C268.323 200.228 268.689 199.829 269.004 199.413C269.176 199.183 269.341 198.949 269.51 198.715L269.696 198.452L269.832 198.254L269.923 198.121L270.933 196.709L271.286 196.202L271.848 195.41C272.296 194.776 272.715 194.088 273.105 193.435L273.511 192.766C273.936 192.078 274.287 191.497 274.604 190.864C274.796 190.481 274.962 190.085 275.121 189.685C275.316 189.225 275.381 188.795 275.432 188.394C275.433 188.138 275.349 187.888 275.194 187.684C275.038 187.48 274.82 187.334 274.572 187.267C274.472 187.237 274.368 187.22 274.264 187.218C273.871 187.218 273.501 187.432 273.25 187.803L273.163 187.929C272.989 188.165 272.836 188.414 272.705 188.676L272.64 188.803L272.504 189.059C272.286 189.472 272.054 189.877 271.806 190.273C271.476 190.809 271.131 191.342 270.79 191.87L270.572 192.205L270.182 192.809C270.072 192.981 269.959 193.153 269.842 193.325C269.897 193.192 269.888 193.049 269.874 192.89C269.806 192.12 269.712 191.211 269.51 190.286L269.38 189.689C269.277 189.199 269.079 188.728 268.887 188.273C268.666 187.766 268.409 187.276 268.118 186.806L267.975 186.565C267.795 186.26 267.611 185.957 267.423 185.657C267.063 185.072 266.614 184.591 266.183 184.157C265.769 183.752 265.336 183.366 264.887 183L264.582 182.74C264.368 182.559 264.147 182.38 263.93 182.202L263.709 182.027C263.429 181.802 263.14 181.585 262.849 181.377C262.332 181.004 261.728 180.727 261.264 180.533C260.339 180.124 259.375 179.811 258.387 179.598C257.611 179.438 256.812 179.396 256.28 179.38C256.17 179.379 256.06 179.395 255.955 179.43C255.85 179.306 255.708 179.218 255.55 179.18C255.461 179.151 255.369 179.136 255.276 179.134C254.832 179.134 254.443 179.435 254.28 179.897C254.167 180.225 254.053 180.549 253.936 180.877C253.784 181.293 253.706 181.647 253.699 181.965L253.533 181.968L253.358 181.981L253.404 181.913C253.527 181.806 253.602 181.617 253.624 181.344C253.631 180.893 253.505 180.45 253.261 180.071C253.254 179.881 253.118 179.646 252.881 179.595C252.479 179.507 252.069 179.459 251.657 179.452C251.485 179.452 251.309 179.462 251.134 179.484C250.657 179.549 250.209 179.702 249.673 179.89C249.488 179.955 249.309 180.02 249.131 180.089L249.024 180.13L248.942 180.16C248.859 180.187 248.777 180.221 248.699 180.26C248.559 180.319 248.429 180.397 248.303 180.474C247.505 180.979 246.735 181.527 245.997 182.117C245.519 182.483 245.093 182.911 244.73 183.39C244.44 183.783 244.185 184.221 243.964 184.601C243.681 185.091 243.512 185.608 243.393 185.984L243.33 186.169L243.243 186.449C243.088 186.897 242.925 187.338 242.763 187.779C242.454 188.634 242.298 189.585 242.172 190.351L242.152 190.475C242.1 190.79 242.042 191.105 241.983 191.415L241.951 191.595L241.915 191.812L241.882 191.998C241.821 192.351 241.762 192.702 241.714 193.066C241.587 193.984 241.503 194.76 241.503 195.552C241.503 195.936 241.506 196.315 241.516 196.699L241.523 196.965L241.532 197.231C241.448 197.088 241.318 196.965 241.188 196.838L240.811 196.474C240.507 196.165 240.223 195.836 239.961 195.491C239.11 194.341 238.298 192.994 237.476 191.361C236.847 190.104 236.286 188.789 235.743 187.521L235.665 187.341L235.538 187.036L235.334 186.514L235.254 186.312C235.129 186.013 235.01 185.715 234.889 185.413C234.779 185.127 234.691 184.833 234.603 184.536L234.565 184.396C234.461 184.053 234.365 183.706 234.279 183.358C233.977 182.118 233.737 180.816 233.516 179.267C233.288 177.371 233.075 175.344 233.058 173.364C232.962 172.651 232.882 171.935 232.818 171.218C232.792 170.783 232.768 170.348 232.756 169.913C232.733 169.054 232.749 168.195 232.804 167.338L232.837 166.894C232.873 166.348 232.908 165.806 232.961 165.264C233.019 164.63 233.084 163.994 233.155 163.364C233.305 162.324 233.477 161.293 233.652 160.257C233.759 159.607 233.87 158.962 233.971 158.309C234.181 156.973 234.415 155.64 234.671 154.312C234.717 154.085 234.766 153.861 234.818 153.633L234.863 153.426C235.613 153.14 236.403 152.894 237.081 152.682C237.512 152.552 237.951 152.446 238.389 152.345C238.805 152.247 239.22 152.182 239.607 152.127C240.12 152.088 240.634 152.06 241.149 152.042C241.234 152.021 241.319 152.002 241.405 151.991C241.87 151.925 242.339 151.893 242.808 151.894C243.23 151.894 243.648 151.919 244.071 151.968L243.921 151.948C244.006 151.958 244.088 151.968 244.168 151.981L244.308 152.001L244.28 151.996L244.243 151.991L244.28 151.996C244.702 152.056 245.116 152.126 245.532 152.224C245.868 152.3 246.222 152.384 246.534 152.544C246.494 152.487 246.453 152.431 246.409 152.377L246.516 152.436L246.61 152.471C246.731 152.518 246.86 152.54 246.99 152.536C247.087 152.538 247.183 152.517 247.27 152.475C247.37 152.52 247.464 152.553 247.574 152.556C247.691 152.555 247.806 152.525 247.908 152.468L247.954 152.805C248.054 153.601 248.145 154.377 248.201 155.163C248.243 155.851 248.241 156.581 248.188 157.468L248.12 158.653C248.06 159.841 247.981 161.027 247.883 162.212C247.746 163.092 247.565 163.964 247.341 164.825C247.234 165.264 247.12 165.712 247.045 166.166C246.922 166.916 246.795 167.669 246.662 168.419C246.554 169.079 246.467 169.741 246.399 170.406L246.37 170.666C246.334 170.903 246.298 171.136 246.26 171.37C246.195 171.757 246.133 172.14 246.087 172.527C246.055 172.809 246.045 173.093 246.058 173.377C246.078 173.741 246.158 174.049 246.314 174.371C246.396 174.53 246.496 174.659 246.607 174.796L246.658 174.864C246.724 174.949 246.795 175.02 246.873 175.088C246.941 175.312 247.036 175.475 247.172 175.611C247.357 175.757 247.47 175.848 247.607 175.913C248.561 176.39 249.656 176.455 250.603 176.455C250.873 176.455 251.143 176.452 251.409 176.445L251.516 176.442L252.11 176.429L252.704 176.416C253.077 176.41 253.464 176.357 253.801 176.313L253.934 176.299L254.019 176.286L254.214 176.26C254.451 176.192 254.646 176.082 254.811 175.923C255.055 175.676 255.191 175.338 255.191 175C255.191 174.516 254.896 174.043 254.457 173.825C254.289 173.491 253.964 173.27 253.639 173.27L252.772 173.348L251.977 173.419C251.659 173.449 251.34 173.474 251.022 173.497C250.841 173.513 250.659 173.517 250.473 173.517C250.083 173.517 249.671 173.491 249.175 173.433C249.123 173.426 249.075 173.416 249.025 173.406L249.11 172.572C249.126 172.384 249.146 172.195 249.165 172.01C249.327 171.449 249.448 170.883 249.565 170.338C249.799 169.257 249.941 168.141 250.078 167.062L250.162 166.383L250.262 165.721C250.438 164.605 250.613 163.449 250.685 162.296C250.724 161.725 250.701 161.134 250.678 160.566C250.648 159.802 250.623 159.111 250.601 158.422C250.587 158.022 250.571 157.622 250.555 157.222L250.532 156.621C250.509 155.991 250.441 155.351 250.376 154.738L250.35 154.507C250.237 153.407 250.061 152.293 249.89 151.215C249.824 150.795 249.756 150.38 249.695 149.965C249.655 149.699 249.412 149.445 249.201 149.322C249.05 149.231 248.878 149.179 248.701 149.172L248.571 149.283L248.366 149.442L248.22 149.549L248.113 149.637L248.11 149.63C247.965 149.749 247.829 149.878 247.704 150.017L247.649 150.215C247.636 150.28 247.623 150.348 247.607 150.415L247.587 150.497L247.682 150.952L247.743 151.371C247.714 151.338 247.668 151.318 247.626 151.299C247.481 151.234 247.335 151.172 247.188 151.114C246.776 150.943 246.351 150.804 245.918 150.698C245.123 150.504 244.23 150.4 243.192 150.377C243.01 150.374 242.824 150.374 242.642 150.374C241.86 150.374 241.169 150.407 240.519 150.472C240.029 150.523 239.542 150.588 239.055 150.656C238.6 150.721 238.155 150.828 237.727 150.936C237.454 151.003 237.185 151.085 236.915 151.166L236.727 151.225C236.428 151.312 236.136 151.422 235.847 151.536C235.614 151.624 235.386 151.722 235.162 151.831C235.266 151.341 235.354 150.887 235.448 150.432C235.483 150.257 235.519 150.082 235.558 149.906L235.613 149.644L236.153 149.465C236.454 149.365 236.759 149.261 237.061 149.165C237.811 148.942 238.805 148.666 239.837 148.517C240.545 148.426 241.09 148.361 241.666 148.357L241.986 148.355C242.472 148.353 242.958 148.378 243.441 148.43C244.058 148.517 244.555 148.64 244.999 148.816C245.299 148.952 245.61 149.124 245.951 149.344C246.004 149.38 246.066 149.398 246.13 149.397C246.26 149.397 246.382 149.325 246.447 149.215C246.494 149.133 246.506 149.035 246.482 148.944C246.457 148.852 246.398 148.774 246.317 148.725L246.239 148.673C246.248 148.61 246.242 148.545 246.222 148.484C246.202 148.424 246.168 148.368 246.123 148.323C246.058 148.234 245.999 148.153 245.938 148.079C245.806 147.938 245.658 147.813 245.496 147.708L245.383 147.628L245.266 147.549C245.175 147.491 245.071 147.449 244.97 147.406C244.782 147.328 244.636 147.283 244.49 147.237L244.308 147.179C243.911 147.053 243.508 146.948 243.1 146.864C242.899 146.819 242.688 146.796 242.483 146.773L242.399 146.763C242.197 146.74 241.993 146.735 241.789 146.728C241.623 146.728 241.503 146.738 241.383 146.744L241.152 146.754C240.932 146.76 240.711 146.767 240.492 146.796L240.412 146.809C240.208 146.839 240.003 146.868 239.802 146.916C239.62 146.962 239.442 147.014 239.262 147.069L239.11 147.114L238.958 147.156C238.825 147.192 238.692 147.231 238.561 147.273C238.347 147.348 238.133 147.423 237.922 147.503C237.766 147.563 237.607 147.621 237.447 147.675C237.181 147.77 236.919 147.867 236.662 147.981L236.516 148.043C236.393 148.098 236.266 148.153 236.146 148.218C236.058 148.263 235.97 148.308 235.886 148.358L235.951 148.127L236.006 147.887C236.191 147.037 236.383 146.189 236.587 145.342C236.72 144.793 236.895 144.247 237.067 143.718C237.355 142.858 237.6 141.983 237.801 141.098C237.925 140.539 238.061 139.985 238.214 139.432C238.295 139.134 238.379 138.838 238.464 138.542L238.691 137.734L238.717 137.634C238.783 137.38 238.86 137.128 238.947 136.88C239.038 136.64 239.133 136.4 239.23 136.16C239.288 136.13 239.35 136.098 239.412 136.062L239.775 135.862C239.993 135.741 240.208 135.624 240.421 135.501L240.76 135.306C240.847 135.257 240.9 135.231 240.947 135.199L241.022 135.153L241.094 135.104L241.373 134.984C242.205 134.687 243.042 134.408 243.886 134.147L244.113 134.078C244.389 133.997 244.669 133.916 244.951 133.838L245.408 133.712C245.723 133.62 246.038 133.533 246.357 133.458L246.564 133.413C247.339 133.237 248.118 133.075 248.899 132.929C249.763 132.779 250.629 132.641 251.497 132.517C252.481 132.411 253.467 132.32 254.454 132.244C255.423 132.169 256.394 132.118 257.366 132.091L257.46 132.089C257.799 132.075 258.136 132.069 258.477 132.069C258.997 132.069 259.522 132.082 260.045 132.094L260.301 132.104L260.539 132.111C261.409 132.133 262.279 132.198 263.123 132.302C264.276 132.484 265.395 132.747 266.633 133.042C267.96 133.37 269.091 133.718 270.091 134.101C270.938 134.501 271.639 134.867 272.317 135.348C272.487 135.501 272.649 135.659 272.799 135.831C272.834 135.884 272.87 135.945 272.905 136.023C273.175 136.851 273.305 137.76 273.422 138.559C273.502 139.215 273.567 139.774 273.61 140.335C273.636 140.721 273.649 141.108 273.662 141.497C273.668 141.741 273.675 141.977 273.688 142.211C273.749 143.497 273.831 144.783 273.922 146.066C273.961 146.631 273.993 147.192 274.022 147.756C274.058 148.426 274.097 149.098 274.152 149.766C274.237 150.773 274.386 151.799 274.516 152.705L274.662 153.741L274.727 154.238L274.805 154.806L274.825 154.965L274.841 155.098C274.967 156.075 275.084 156.994 275.246 157.89L275.088 157.893C275.1 158.468 275.097 158.942 275.074 159.397C275.256 159.383 275.415 159.354 275.577 159.322C275.749 160.179 275.997 161.105 276.301 162.069C276.509 162.705 276.75 163.306 277.016 163.854C277.126 164.072 277.246 164.29 277.379 164.494C277.844 165.214 278.503 165.63 279.188 165.63C279.883 165.608 280.412 165.202 280.922 164.813L281.042 164.721C281.162 164.631 281.214 164.591 281.269 164.552L281.458 164.416L281.529 164.367C281.853 164.137 282.155 163.919 282.483 163.741C282.565 163.699 282.645 163.656 282.727 163.617C282.951 163.53 283.182 163.462 283.418 163.413C283.503 163.452 283.522 163.474 283.545 163.498L283.662 163.663L283.692 163.767L283.74 163.922C283.545 164.652 283.555 165.276 283.773 165.819C283.837 166.049 283.953 166.25 284.129 166.436C284.393 168.576 284.412 170.634 284.181 172.556C284.078 173.202 283.935 173.961 283.659 174.683C283.506 174.992 283.33 175.289 283.133 175.572C282.841 175.916 282.503 176.242 282.097 176.562C281.679 176.875 281.236 177.153 280.772 177.393C280.662 177.406 280.623 177.406 280.581 177.406L280.499 177.293C280.402 177.178 280.28 177.085 280.142 177.023C280.005 176.961 279.855 176.93 279.704 176.933C279.445 176.929 279.193 177.012 278.988 177.171C278.784 177.329 278.639 177.552 278.578 177.803C278.506 178.101 278.551 178.393 278.708 178.627C278.818 178.807 278.934 178.994 279.074 179.156C279.133 179.224 279.337 179.456 279.522 179.539C279.769 179.653 279.948 179.731 280.159 179.783C280.334 179.832 280.552 179.858 280.821 179.858C281.499 179.842 282.111 179.572 282.62 179.312C283.441 178.901 284.2 178.378 284.876 177.757C285.087 177.565 285.263 177.335 285.442 177.098L285.535 176.978C285.925 176.452 286.169 175.831 286.373 175.24C286.568 174.692 286.639 174.085 286.697 173.507L286.73 173.261C286.789 172.738 286.821 172.186 286.83 171.53C286.85 170.292 286.797 169.054 286.672 167.822C286.61 167.183 286.533 166.546 286.442 165.91C286.504 165.763 286.529 165.604 286.516 165.445C286.507 165.416 286.503 165.386 286.503 165.355C286.532 165.198 286.578 165.053 286.623 164.91L286.658 164.793C286.685 164.714 286.711 164.637 286.73 164.559C286.798 164.306 286.854 164.053 286.905 163.799C287.035 163.108 287.159 162.432 287.205 161.737C287.266 160.708 287.246 159.692 287.227 158.708L287.22 158.254L287.214 157.988C287.206 157.202 287.182 156.416 287.142 155.631L287.182 155.53C287.317 155.176 287.457 154.815 287.578 154.455L287.736 153.994L287.779 153.874C287.902 153.517 288.026 153.16 288.129 152.802L288.249 152.393L288.652 151.017C288.75 150.692 288.822 150.361 288.896 150.033L288.918 149.929L289.028 149.429C289.269 148.413 289.458 147.341 289.588 146.241L289.638 145.796C289.688 145.41 289.737 145.02 289.763 144.633L289.795 144.107L289.831 143.575L289.847 143.361C289.862 143.191 289.872 143.021 289.876 142.851L289.886 141.903L289.899 140.953C289.9 140.392 289.877 139.832 289.831 139.273C289.771 138.373 289.662 137.51 289.503 136.708C289.36 135.968 289.136 135.24 288.918 134.536L288.792 134.14C288.662 133.718 288.506 133.302 288.351 132.89L288.259 132.653C287.759 131.323 287.159 129.783 286.386 128.377C285.782 127.279 285.028 126.297 284.369 125.477L284.103 125.153C283.861 124.849 283.613 124.549 283.36 124.254L283.13 123.987C282.48 123.241 281.808 122.464 281.1 121.741C280.678 121.307 280.246 120.882 279.805 120.468C279.425 120.111 279.005 119.793 278.575 119.471L278.377 119.321C277.494 118.662 276.586 118.037 275.655 117.448C274.714 116.833 273.708 116.324 272.655 115.929L272.383 115.825C272.184 115.75 271.983 115.675 271.783 115.607C271.153 115.39 270.47 115.218 269.553 115.055C268.745 114.919 268.13 114.855 267.563 114.845C267.226 114.839 266.89 114.834 266.553 114.832H266.55V114.832Z" fill="#161616"/>
<path fill-rule="evenodd" clip-rule="evenodd" d="M239.859 156.757L239.832 156.75C239.69 156.795 239.543 156.817 239.394 156.818C239.282 156.818 239.178 156.806 239.079 156.783C239.051 156.818 239.031 156.857 239.018 156.9C238.928 156.905 238.84 156.927 238.758 156.965C238.703 156.985 238.648 157.009 238.596 157.036C238.398 157.169 238.311 157.326 238.314 157.481C238.317 157.541 238.332 157.6 238.358 157.654C238.385 157.708 238.421 157.756 238.466 157.796C238.547 157.886 238.606 157.932 238.665 157.974C238.726 158.007 238.788 158.036 238.849 158.065C238.966 158.127 239.089 158.182 239.216 158.221C239.349 158.261 239.489 158.286 239.629 158.309C239.914 158.361 240.129 158.39 240.339 158.416C240.729 158.462 241.155 158.484 241.635 158.484C241.836 158.484 242.037 158.477 242.242 158.474L242.411 158.491C242.596 158.51 242.785 158.53 242.973 158.54C243.216 158.545 243.466 158.552 243.713 158.559L243.853 158.562C244.329 158.556 244.802 158.497 245.265 158.387C245.473 158.344 245.68 158.302 245.888 158.25C246.135 158.189 246.35 158.133 246.528 158.014C246.596 157.969 246.655 157.912 246.7 157.844C246.742 157.819 246.781 157.79 246.817 157.757C246.864 157.712 246.898 157.656 246.917 157.594C246.935 157.532 246.938 157.466 246.924 157.403C246.878 157.227 246.706 157.153 246.609 157.123C246.379 157.046 246.132 157.033 245.892 157.024C245.833 157.04 245.773 157.054 245.712 157.065C245.144 157.162 244.557 157.251 243.976 157.244C243.518 157.237 243.063 157.186 242.609 157.154C242.219 157.125 241.83 157.081 241.443 157.023H241.427C240.96 156.963 240.389 156.93 239.93 156.726C239.906 156.735 239.882 156.745 239.859 156.756V156.757ZM250.939 187.13C250.664 187.208 250.43 187.392 250.289 187.64C250.147 187.889 250.109 188.183 250.183 188.46C250.387 189.182 250.816 189.85 251.341 190.383C251.54 190.58 251.825 190.753 252.075 190.886C252.322 191.019 252.585 191.113 252.848 191.21C253.192 191.337 253.575 191.367 253.935 191.415C254.146 191.441 254.358 191.451 254.569 191.447C255.099 191.44 255.626 191.36 256.134 191.21C256.962 190.964 257.656 190.357 258.186 189.694C258.312 189.541 258.446 189.383 258.533 189.204C258.585 189.1 258.65 188.964 258.673 188.841C258.753 188.409 258.673 188.107 258.397 187.771C258.169 187.496 257.682 187.386 257.348 187.513C257.006 187.641 256.837 187.814 256.645 188.063C256.461 188.282 256.26 188.485 256.042 188.67C255.878 188.781 255.706 188.88 255.528 188.967C255.35 189.022 255.167 189.063 254.983 189.091C254.661 189.124 254.336 189.125 254.013 189.095C253.757 189.049 253.505 188.982 253.26 188.895C253.104 188.821 252.952 188.74 252.805 188.65C252.691 188.546 252.585 188.434 252.485 188.316C252.432 188.237 252.381 188.156 252.335 188.073C252.313 188.011 252.292 187.949 252.273 187.886C252.207 187.658 252.07 187.457 251.88 187.313C251.691 187.17 251.46 187.092 251.223 187.09C251.127 187.09 251.031 187.104 250.939 187.13" fill="#161616"/>
<path fill-rule="evenodd" clip-rule="evenodd" d="M255.226 188.839L255.159 188.868L255.226 188.838V188.839ZM257.428 186.991C257.218 187.066 257.188 187.098 257.013 187.238C256.913 187.316 256.844 187.43 256.773 187.534C256.701 187.634 256.633 187.737 256.563 187.836C256.405 188.033 256.23 188.216 256.038 188.38C255.803 188.546 255.552 188.69 255.289 188.81C255.078 188.887 254.86 188.945 254.639 188.983C254.486 188.996 254.332 188.997 254.179 188.986C253.82 188.928 253.467 188.839 253.124 188.718C252.997 188.66 252.875 188.592 252.758 188.515C252.68 188.445 252.606 188.372 252.535 188.296C252.465 188.091 252.412 187.88 252.355 187.67C252.294 187.452 252.149 187.267 251.951 187.155C251.754 187.043 251.521 187.014 251.302 187.073C251.084 187.135 250.9 187.28 250.788 187.477C250.677 187.674 250.647 187.906 250.705 188.125C250.757 188.309 250.809 188.495 250.864 188.683C250.89 188.767 250.919 188.855 250.954 188.936C251.039 189.14 251.085 189.209 251.221 189.381C251.309 189.495 251.409 189.595 251.51 189.696C251.825 190.007 252.237 190.222 252.656 190.365C253.021 190.48 253.398 190.555 253.78 190.588C253.926 190.608 254.075 190.615 254.221 190.622C254.519 190.62 254.815 190.588 255.107 190.527C255.5 190.459 255.867 190.3 256.227 190.144C256.479 190.032 256.718 189.894 256.941 189.731C257.19 189.556 257.424 189.361 257.64 189.147C257.782 188.998 257.918 188.842 258.046 188.68L258.185 188.507C258.389 188.372 258.567 188.105 258.539 187.852C258.526 187.757 258.523 187.667 258.503 187.572C258.448 187.312 258.183 187.033 257.916 186.988C257.826 186.969 257.735 186.959 257.643 186.956C257.573 186.956 257.503 186.966 257.428 186.991V186.991ZM241.328 153.284C241.45 153.534 241.566 153.784 241.678 154.037C241.715 154.13 241.748 154.22 241.773 154.316V154.373C241.767 154.397 241.761 154.42 241.753 154.443C241.732 154.48 241.71 154.517 241.686 154.553C241.662 154.581 241.637 154.608 241.611 154.634C241.598 154.638 241.586 154.641 241.573 154.644H241.534L241.473 154.625C241.373 154.566 241.275 154.503 241.18 154.436C241.132 154.393 241.085 154.349 241.039 154.303L241.034 154.294C241.031 154.192 241.034 154.09 241.044 153.988C241.071 153.848 241.107 153.71 241.154 153.575C241.199 153.485 241.248 153.398 241.302 153.313L241.328 153.283V153.284ZM240.623 151.227C240.571 151.253 240.52 151.281 240.47 151.312C240.379 151.301 240.286 151.309 240.198 151.336C240.11 151.364 240.029 151.41 239.96 151.471C239.545 151.825 239.34 152.322 239.155 152.821C239.015 153.208 238.945 153.601 238.876 154.001C238.84 154.221 238.789 154.445 238.796 154.669C238.805 154.932 238.89 155.189 238.98 155.436C239.126 155.844 239.34 156.231 239.62 156.568C239.782 156.76 239.993 156.912 240.201 157.052C240.396 157.188 240.639 157.273 240.867 157.322C241.49 157.462 242.071 157.234 242.558 156.851C242.978 156.523 243.296 156.039 243.487 155.543C243.587 155.286 243.633 155.017 243.662 154.744C243.672 154.652 243.679 154.559 243.682 154.467C243.709 154.284 243.722 154.097 243.72 153.907C243.717 153.609 243.67 153.313 243.579 153.029C243.563 152.942 243.543 152.855 243.519 152.77C243.393 152.329 243.059 151.968 242.759 151.63C242.618 151.481 242.451 151.359 242.266 151.27C241.973 151.132 241.653 151.06 241.329 151.058C241.084 151.058 240.846 151.117 240.623 151.228V151.227ZM258.266 154.765L258.315 154.785L258.266 154.765ZM257.976 154.697L258.032 154.704C258.013 154.702 257.995 154.7 257.976 154.697V154.697ZM258.078 154.579L258.079 154.585L258.078 154.58V154.579ZM258.035 154.477L258.076 154.577H258.077C258.061 154.545 258.047 154.511 258.035 154.477ZM258.389 152.994C258.394 152.994 258.399 152.996 258.405 152.998C258.42 153.006 258.435 153.014 258.448 153.023C258.478 153.117 258.503 153.211 258.52 153.31C258.545 153.539 258.56 153.767 258.55 153.997C258.53 154.082 258.506 154.167 258.478 154.25C258.438 154.325 258.396 154.4 258.351 154.472C258.291 154.538 258.227 154.602 258.161 154.662C258.154 154.666 258.148 154.67 258.141 154.674L258.121 154.654C258.099 154.578 258.079 154.501 258.063 154.424C258.054 154.271 258.055 154.118 258.066 153.966C258.116 153.699 258.19 153.436 258.286 153.182C258.317 153.118 258.352 153.055 258.389 152.994V152.994ZM258.4 152.975L258.419 152.98L258.404 152.978L258.4 152.975ZM258.4 152.975L258.403 152.978H258.399V152.975H258.4ZM260.522 152.84C260.532 152.902 260.54 152.965 260.548 153.027C260.538 152.965 260.531 152.902 260.522 152.84ZM258.132 150.041C257.989 150.06 257.849 150.097 257.714 150.149C257.38 150.279 257.184 150.408 256.905 150.629C256.629 150.85 256.431 151.123 256.22 151.402C256.022 151.658 255.905 151.986 255.795 152.285C255.683 152.586 255.641 152.909 255.6 153.229C255.437 153.649 255.326 154.088 255.27 154.535C255.246 154.742 255.26 154.954 255.26 155.161C255.256 155.379 255.253 155.591 255.31 155.804C255.411 156.164 255.685 156.496 255.902 156.798C256.288 157.333 256.886 157.639 257.512 157.817C257.789 157.898 258.09 157.941 258.38 157.944C258.532 157.947 258.734 157.902 258.889 157.859C259.102 157.791 259.305 157.699 259.496 157.583C259.788 157.418 260.051 157.171 260.266 156.914C260.48 156.655 260.666 156.379 260.821 156.081C260.957 155.814 261.064 155.531 261.168 155.249C261.288 154.911 261.357 154.58 261.392 154.223C261.428 153.886 261.35 153.531 261.304 153.201C261.289 153.083 261.269 152.966 261.25 152.847C261.236 152.743 261.218 152.638 261.197 152.535C261.187 152.461 261.175 152.387 261.161 152.314C261.12 152.074 261.006 151.854 260.909 151.632C260.844 151.499 260.765 151.374 260.672 151.259C260.551 151.098 260.424 150.941 260.292 150.788C260.084 150.55 259.829 150.359 259.542 150.227C259.34 150.135 259.197 150.07 258.992 150.038C258.858 150.013 258.722 150 258.585 149.998C258.433 150.001 258.282 150.016 258.133 150.041H258.132Z" fill="#161616"/>
<path fill-rule="evenodd" clip-rule="evenodd" d="M255.656 156.719L255.663 156.727L255.693 156.766L255.656 156.719ZM259.126 152.099C259.336 152.139 259.551 152.191 259.754 152.255C259.808 152.285 259.861 152.315 259.914 152.348L259.956 152.393C260.079 152.558 260.199 152.724 260.326 152.886L260.16 152.672C260.288 152.837 260.396 153.009 260.49 153.195C260.555 153.367 260.602 153.542 260.636 153.723C260.653 153.973 260.649 154.224 260.623 154.473C260.591 154.63 260.548 154.784 260.493 154.934C260.391 155.141 260.278 155.341 260.153 155.534C260.041 155.667 259.921 155.793 259.793 155.91C259.557 156.077 259.307 156.223 259.047 156.348C258.931 156.396 258.811 156.434 258.689 156.464C258.407 156.484 258.124 156.481 257.842 156.454L257.757 156.429C257.75 156.213 257.668 156.006 257.526 155.843C257.398 155.654 257.256 155.475 257.101 155.308C257.024 155.229 256.931 155.166 256.851 155.091C256.843 155.079 256.837 155.067 256.831 155.055C256.776 154.903 256.732 154.747 256.7 154.588C256.682 154.329 256.687 154.069 256.715 153.811C256.753 153.595 256.809 153.382 256.882 153.175C256.947 153.043 257.02 152.915 257.102 152.792C257.157 152.734 257.215 152.68 257.277 152.63C257.508 152.466 257.757 152.322 258.013 152.202C258.113 152.165 258.214 152.133 258.319 152.111C258.587 152.085 258.857 152.081 259.126 152.099V152.099ZM258.468 149.909C258.222 149.938 257.968 149.974 257.731 150.045C257.579 150.095 257.431 150.163 257.286 150.231C257.117 150.299 256.952 150.378 256.793 150.467C256.625 150.564 256.459 150.665 256.297 150.772C256.043 150.942 255.787 151.146 255.582 151.377C255.033 151.987 254.78 152.811 254.712 153.617C254.686 153.961 254.705 154.312 254.741 154.656C254.773 154.967 254.822 155.279 254.939 155.572C255.019 155.779 255.105 156.01 255.231 156.198C255.341 156.358 255.47 156.497 255.593 156.643C255.735 156.831 255.87 156.98 256.079 157.117C256.134 157.153 256.193 157.185 256.254 157.211C256.569 157.439 256.904 157.615 257.274 157.759C257.582 157.883 257.916 157.896 258.244 157.922C258.524 157.942 258.834 157.97 259.108 157.902C259.585 157.786 260.017 157.582 260.422 157.308C260.865 157.01 261.215 156.604 261.52 156.168C261.708 155.899 261.868 155.636 261.988 155.325C262.062 155.124 262.121 154.922 262.173 154.711C262.241 154.429 262.257 154.133 262.293 153.847L262.263 154.065L262.323 153.613C262.335 153.487 262.319 153.351 262.323 153.223C262.323 153.053 262.296 152.883 262.269 152.715C262.243 152.484 262.223 152.251 262.159 152.029C262.089 151.782 261.962 151.555 261.841 151.331C261.8 151.25 261.761 151.162 261.715 151.081C261.543 150.772 261.28 150.575 261.001 150.374C260.762 150.201 260.487 150.085 260.196 150.035C260.044 150.01 259.891 149.988 259.738 149.969C259.438 149.922 259.135 149.896 258.831 149.891C258.711 149.891 258.591 149.896 258.468 149.909V149.909ZM242.844 155.336L242.764 155.438L242.844 155.336ZM241.917 152.755C242.046 152.781 242.172 152.815 242.297 152.859C242.339 152.879 242.379 152.903 242.419 152.928C242.598 153.081 242.753 153.25 242.903 153.433C242.956 153.513 243.001 153.594 243.042 153.681C243.074 153.765 243.103 153.851 243.123 153.937C243.141 154.193 243.128 154.457 243.103 154.712C243.083 154.799 243.058 154.884 243.028 154.968C242.942 155.149 242.841 155.322 242.726 155.486C242.611 155.634 242.491 155.777 242.366 155.916C242.211 156.081 242.044 156.233 241.865 156.371C241.82 156.401 241.773 156.429 241.725 156.453C241.599 156.497 241.47 156.534 241.34 156.563C241.28 156.564 241.222 156.563 241.164 156.56C241.045 156.535 240.926 156.505 240.81 156.468C240.785 156.395 240.751 156.325 240.708 156.261C240.539 156.008 240.35 155.806 240.071 155.673C239.981 155.63 239.895 155.581 239.811 155.527C239.76 155.479 239.711 155.429 239.665 155.377C239.646 155.351 239.63 155.324 239.613 155.297C239.567 155.134 239.532 154.969 239.506 154.802L239.504 154.785C239.487 154.555 239.487 154.323 239.506 154.093C239.513 154.062 239.522 154.031 239.533 154C239.573 153.922 239.619 153.846 239.668 153.773C239.854 153.551 240.056 153.346 240.278 153.163C240.368 153.101 240.46 153.043 240.559 152.993C240.815 152.898 241.074 152.819 241.339 152.763C241.533 152.746 241.724 152.743 241.917 152.755V152.755ZM241.299 150.699C241.038 150.718 240.78 150.764 240.529 150.836C240.279 150.91 240.042 151.014 239.805 151.115C239.698 151.163 239.595 151.209 239.49 151.261C239.247 151.384 239.016 151.582 238.818 151.774C238.646 151.936 238.503 152.128 238.358 152.313C238.178 152.534 238.015 152.769 237.87 153.014C237.789 153.16 237.72 153.329 237.662 153.484C237.574 153.709 237.564 153.959 237.539 154.196C237.506 154.536 237.487 154.884 237.494 155.225C237.503 155.741 237.617 156.29 237.85 156.755C237.987 157.02 238.191 157.258 238.422 157.445C238.867 157.815 239.422 158.147 240.025 157.936L240.09 157.912C240.32 158.026 240.562 158.112 240.812 158.17C241.11 158.241 241.386 158.241 241.684 158.196C241.844 158.173 241.994 158.137 242.146 158.095C242.279 158.059 242.406 158.001 242.532 157.95C242.723 157.865 242.886 157.735 243.045 157.602C243.315 157.381 243.555 157.16 243.772 156.891C244.052 156.553 244.334 156.196 244.51 155.791C244.594 155.589 244.685 155.385 244.727 155.171C244.771 154.93 244.797 154.685 244.805 154.44C244.821 154.017 244.825 153.62 244.701 153.209C244.624 152.932 244.518 152.663 244.383 152.409C244.316 152.279 244.246 152.151 244.173 152.024C244.044 151.821 243.892 151.634 243.721 151.466C243.448 151.183 243.071 151.001 242.711 150.868C242.361 150.744 241.992 150.682 241.621 150.684C241.512 150.684 241.405 150.689 241.299 150.699" fill="#161616"/>
<path fill-rule="evenodd" clip-rule="evenodd" d="M239.758 157.109L239.854 157.122C239.822 157.117 239.79 157.112 239.758 157.109ZM237.353 156.814C237.213 156.817 237.025 156.898 236.963 157.031C236.928 157.103 236.883 157.181 236.893 157.265L236.912 157.415C236.924 157.508 237.012 157.602 237.091 157.648C237.143 157.678 237.201 157.695 237.261 157.698C237.301 157.74 237.341 157.781 237.382 157.82C237.554 157.989 237.795 158.05 238.016 158.125C238.224 158.193 238.421 158.261 238.636 158.304C239.045 158.391 239.47 158.444 239.886 158.489C240.714 158.579 241.542 158.606 242.373 158.629C242.792 158.641 243.217 158.616 243.63 158.573C243.85 158.551 244.07 158.525 244.292 158.493C244.5 158.463 244.701 158.421 244.909 158.382C245.178 158.326 245.471 158.275 245.619 158.005C245.766 157.735 245.694 157.375 245.415 157.223C245.305 157.158 245.179 157.126 245.052 157.132C244.942 157.144 244.834 157.164 244.727 157.187C244.516 157.236 244.307 157.297 244.097 157.343C243.695 157.431 243.287 157.503 242.877 157.561C242.729 157.577 242.58 157.587 242.431 157.59L241.834 157.599L241.828 157.593C241.72 157.495 241.593 157.45 241.46 157.398C241.301 157.343 241.126 157.314 240.964 157.284C240.557 157.217 240.148 157.157 239.739 157.106C239.185 157.028 238.63 156.972 238.076 156.901C237.856 156.867 237.623 156.813 237.403 156.813H237.353" fill="#161616"/>
</svg>
