<?xml version="1.0" encoding="UTF-8"?>
<svg width="500px" height="600px" viewBox="0 0 500 600" version="1.1" xmlns="http://www.w3.org/2000/svg" xmlns:xlink="http://www.w3.org/1999/xlink">
    <!-- Generator: Sketch 63.1 (92452) - https://sketch.com -->
    <title>lookingdown</title>
    <desc>Created with Sketch.</desc>
    <g id="lookingdown" stroke="none" stroke-width="1" fill="none" fill-rule="evenodd">
        <g id="Group-64" transform="translate(252.692462, 164.420837) rotate(-13.000000) translate(-252.692462, -164.420837) translate(220.692462, 117.420837)" fill="#161616">
            <path d="M40.158587,89.8245818 C40.158587,89.825413 40.158587,89.8270753 40.1577558,89.8279065 L40.1610805,89.8245818 L40.158587,89.8245818 Z" id="Fill-1"></path>
            <path d="M31.9937662,26.0575584 C31.4194286,26.08 30.8475844,26.1032727 30.2732468,26.1257143 C29.9324675,26.139013 29.5875325,26.1714286 29.2467532,26.1938701 C28.6524675,26.2362597 28.0623377,26.2753247 27.4680519,26.3168831 C27.1721558,26.3368312 26.8770909,26.3825455 26.5811948,26.4207792 C25.9611429,26.4955844 25.3377662,26.5737143 24.7177143,26.6518442 C24.4450909,26.6875844 24.1757922,26.7233247 23.9031688,26.7748571 C22.8284675,26.976 21.7537662,27.1812987 20.6790649,27.3824416 C20.4122597,27.433974 20.1496104,27.5121039 19.886961,27.5769351 C19.2536104,27.7365195 18.6202597,27.8952727 17.9844156,28.0507013 C17.5713247,28.1545974 17.1590649,28.2584935 16.7468052,28.3598961 C16.1757922,28.502026 15.6105974,28.6740779 15.0454026,28.836987 C14.7694545,28.9151169 14.6040519,29.2035325 14.6788571,29.4794805 C14.7536623,29.7521039 15.0487273,29.9208312 15.3213506,29.8435325 C15.8641039,29.6872727 16.4027013,29.5218701 16.9512727,29.3855584 C17.312,29.2974545 17.6752208,29.2068571 18.0359481,29.1195844 C18.921974,28.8984935 19.8055065,28.6807273 20.6915325,28.4604675 C21.1985455,28.3366234 21.7147013,28.2584935 22.2275325,28.1612468 C22.9705974,28.0249351 23.7128312,27.8902857 24.4558961,27.7506494 C25.3876364,27.6376104 26.3218701,27.5312208 27.2569351,27.4215065 C27.5943896,27.3791169 27.9351688,27.3757922 28.2726234,27.3533506 C28.8635844,27.3176104 29.4578701,27.2818701 30.0488312,27.2461299 C30.3804675,27.2261818 30.7112727,27.2228571 31.0395844,27.217039 C31.5781818,27.2004156 32.1201039,27.1871169 32.6595325,27.1713247 C33.0817662,27.158026 33.5064935,27.1871169 33.9287273,27.1937662 C34.3152208,27.2037403 34.705039,27.1970909 35.0915325,27.2295065 C35.552,27.2718961 36.0124675,27.3151169 36.4737662,27.355013 C36.7488831,27.4007273 37.024,27.4481039 37.2991169,27.4954805 C37.5684156,27.5411948 37.8343896,27.616 38.1011948,27.6808312 C38.6040519,27.8071688 39.0977662,27.9825455 39.5948052,28.1454545 C39.9289351,28.2526753 40.2988052,28.0216104 40.3902338,27.6908052 C40.4874805,27.3367273 40.273039,27.0059221 39.9389091,26.8920519 C39.1168831,26.6194286 38.2765714,26.4016623 37.4154805,26.281974 C37.1852468,26.2487273 36.955013,26.212987 36.7206234,26.1805714 C36.4779221,26.1481558 36.2310649,26.139013 35.9842078,26.1190649 C35.5752727,26.089974 35.163013,26.0442597 34.7499221,26.0442597 C34.1531429,26.0409351 33.5588571,26.0384416 32.9645714,26.0317922 C32.6395844,26.0317922 32.3187532,26.0442597 31.9937662,26.0575584" id="Fill-3"></path>
            <path d="M54.1196468,57.6338286 C54.1021922,57.6496208 54.0839065,57.6637506 54.0647896,57.6762182 C54.0830753,57.6620883 54.101361,57.6479584 54.1196468,57.6338286 M54.3182961,55.5924779 C54.3158026,55.612426 54.3133091,55.6332052 54.3108156,55.6531532 C54.3124779,55.6332052 54.3158026,55.6132571 54.3182961,55.5924779 M54.0872312,54.9341922 C54.0689455,54.9416727 54.0523221,54.9483221 54.0348675,54.9549714 C54.0523221,54.9483221 54.0697766,54.9408416 54.0872312,54.9341922 M54.2459844,54.9009455 C54.2592831,54.9267117 54.2709195,54.9524779 54.2784,54.9815688 C54.268426,54.9558026 54.2584519,54.9275429 54.2459844,54.9009455 M54.1387636,54.8452571 C54.165361,54.8527377 54.1894649,54.8635429 54.2135688,54.8751792 C54.2127377,54.8751792 54.2110753,54.8743481 54.2102442,54.8743481 C54.1878026,54.864374 54.1636987,54.8535688 54.1387636,54.8452571 M54.1420883,54.0556468 C54.0647896,54.0589714 53.9899844,54.0755948 53.9218286,54.1080104 C53.7206857,54.1761662 53.5353351,54.2800623 53.3566338,54.3872831 C53.1621403,54.5003221 53.0906597,54.7604779 53.2070234,54.9582961 C53.3208935,55.1536208 53.5810494,55.2217766 53.7788675,55.1079065 C53.8902442,55.0397506 54.0007896,54.9807377 54.1179844,54.9217247 C54.1537247,54.9075948 54.1902961,54.8951273 54.2268675,54.8843221 L54.2335169,54.8851532 L54.2393351,54.8893091 C54.2401662,54.8893091 54.2401662,54.8901403 54.2401662,54.8909714 C54.2784,54.9890494 54.3116468,55.0862961 54.3365818,55.1860364 C54.3399065,55.3148675 54.3340883,55.4395429 54.3207896,55.5658805 C54.273413,55.9216208 54.2285299,56.2815169 54.1878026,56.6372571 C54.1545558,56.917361 54.160374,57.1982961 54.1362701,57.4767377 C54.1312831,57.5083221 54.1229714,57.5382442 54.1138286,57.5689974 C54.0955429,57.6072312 54.0755948,57.6429714 54.0523221,57.6778805 L54.0415169,57.6903481 C54.0224,57.7019844 54.0016208,57.7119584 53.9800104,57.7211013 C53.7722182,57.8249974 53.7140364,58.1142442 53.8270753,58.3062442 C53.8827636,58.4001662 53.9766857,58.4716468 54.0839065,58.5007377 C54.204426,58.5364779 54.3016727,58.507387 54.4122182,58.4583481 C54.6648935,58.3478026 54.8535688,58.1142442 54.9316987,57.8515948 C54.9965299,57.6438026 55.0056727,57.4326857 55.0089974,57.2182442 C55.0156468,56.9256727 55.0289455,56.6372571 55.0646857,56.3446857 C55.0804779,56.1792831 55.100426,56.0138805 55.1228675,55.8451532 C55.1394909,55.7021922 55.1619325,55.5559065 55.1752312,55.4096208 C55.1943481,55.1860364 55.1552831,54.9715948 55.0838026,54.7604779 C55.0355948,54.6241662 54.9832312,54.4945039 54.8984519,54.3773091 C54.8602182,54.3158026 54.8111792,54.2667636 54.7463481,54.2276987 C54.7205818,54.2085818 54.6906597,54.1886338 54.6615688,54.1661922 C54.5967377,54.1371013 54.5319065,54.1080104 54.4637506,54.0789195 C54.3922701,54.0622961 54.3207896,54.0498286 54.2493091,54.0431792 C54.2135688,54.0465039 54.1778286,54.0523221 54.1420883,54.0556468" id="Fill-5"></path>
            <path d="M25.9503377,35.4909922 L25.9536623,35.4909922 C25.8988052,35.465226 25.8431169,35.4419532 25.7882597,35.4228364 C25.8431169,35.4452779 25.8954805,35.4685506 25.9503377,35.4909922" id="Fill-7"></path>
            <path d="M25.9503377,35.4909922 L25.9536623,35.4909922 C25.8988052,35.465226 25.8431169,35.4419532 25.7882597,35.4228364 C25.8431169,35.4452779 25.8954805,35.4685506 25.9503377,35.4909922" id="Fill-9"></path>
            <path d="M25.9503377,35.4909922 L25.9536623,35.4909922 C25.8988052,35.465226 25.8431169,35.4419532 25.7882597,35.4228364 C25.8431169,35.4452779 25.8954805,35.4685506 25.9503377,35.4909922" id="Fill-11"></path>
            <path d="M31.2571844,33.1334649 L31.2555221,33.1334649 L31.2580156,33.1334649 L31.2571844,33.1334649 Z M39.7833143,33.1908156 C39.7725091,33.1825039 39.7617039,33.1741922 39.7500675,33.1650494 C39.7600416,33.1750234 39.7725091,33.1841662 39.7833143,33.1908156 L39.7833143,33.1908156 Z M35.1911065,33.217413 L35.2667429,33.2265558 C35.2409766,33.2240623 35.2160416,33.2207377 35.1911065,33.217413 L35.1911065,33.217413 Z M33.396613,31.7462442 C33.1273143,31.7495688 32.8605091,31.7528935 32.5912104,31.7562182 C31.5655481,31.7720104 30.5357299,31.9349195 29.5524571,32.2266597 C28.9614961,32.405361 28.3805091,32.6231273 27.8219636,32.8891013 C27.3091325,33.1326338 26.8154182,33.4252052 26.3350026,33.7302442 C26.0524052,33.9122701 25.9385351,34.2788156 26.1139117,34.5805299 C26.2793143,34.8631273 26.6757818,34.9836468 26.9617039,34.8016208 C27.5443532,34.4309195 28.148613,34.0868156 28.7819636,33.8125299 C29.5790545,33.4975169 30.408561,33.2622961 31.2555221,33.1334649 C31.2231065,33.1376208 31.1898597,33.1417766 31.1557818,33.1459325 L31.2571844,33.1334649 C31.279626,33.1301403 31.3020675,33.1259844 31.3253403,33.1226597 C31.3028987,33.1268156 31.2804571,33.1301403 31.2580156,33.1334649 C31.7625351,33.0744519 32.2678857,33.0478545 32.776561,33.0478545 C33.0358857,33.0478545 33.2993662,33.0420364 33.5586909,33.0578286 C33.8313143,33.0744519 34.1072623,33.0777766 34.376561,33.1135169 C34.6159377,33.1451013 34.8553143,33.1741922 35.0955221,33.2049455 C35.4670545,33.2697766 35.8394182,33.3246338 36.2084571,33.4052571 C36.6298597,33.4966857 37.0487688,33.5939325 37.4676779,33.7011532 C37.8217558,33.788426 38.1658597,33.9022961 38.506639,34.0253091 C38.6562494,34.0843221 38.8083532,34.1425039 38.9612883,34.197361 C39.0843013,34.2397506 39.2081455,34.2621922 39.3344831,34.2854649 C39.6012883,34.3336727 39.8639377,34.256374 40.0068987,34.0128416 C40.0883532,33.8732052 40.1074701,33.7069714 40.0650805,33.5515429 C40.0226909,33.3927896 39.9221195,33.291387 39.7924571,33.1974649 C39.7899636,33.1958026 39.786639,33.1933091 39.7833143,33.1908156 C39.7941195,33.1999584 39.8049247,33.2082701 39.8148987,33.2165818 C39.7035221,33.1301403 39.5954701,33.0561662 39.4707948,32.9896727 C39.2763013,32.8824519 39.0685091,32.8043221 38.8640416,32.7236987 C38.5132883,32.587387 38.1434182,32.4834909 37.7760416,32.395387 C36.9382234,32.1909195 36.0912623,31.9997506 35.2310026,31.8991792 C34.7954701,31.8468156 34.3640935,31.7952831 33.9252364,31.7720104 C33.7631584,31.7636987 33.598587,31.7462442 33.4365091,31.7462442 C33.4223792,31.7462442 33.4090805,31.7462442 33.396613,31.7462442 L33.396613,31.7462442 Z" id="Fill-13"></path>
            <path d="M28.5676883,34.0705247 C28.5469091,34.0796675 28.5261299,34.0888104 28.5053506,34.0979532 C28.5261299,34.0888104 28.5469091,34.0796675 28.5676883,34.0705247 M33.7475325,31.9734857 C33.2862338,31.9959273 32.8315844,32.0258494 32.3711169,32.0615896 C32.0070649,32.0906805 31.6438442,32.1297455 31.2831169,32.1713039 C30.9198961,32.2136935 30.5525195,32.2527584 30.1951169,32.3308883 C30.0263896,32.3666286 29.851013,32.3957195 29.6856104,32.4439273 C29.4653506,32.5095896 29.2475844,32.5744208 29.0264935,32.6392519 C28.1238442,32.905226 27.2768831,33.3598753 26.4423896,33.7887584 C26.1531429,33.9375377 26.0725195,34.3340052 26.2279481,34.6033039 C26.4,34.8925506 26.7540779,34.9640312 27.0433247,34.8144208 C27.5254026,34.5675636 28.0058182,34.3173818 28.5003636,34.0996156 C28.8120519,33.9716156 29.1270649,33.8527584 29.4487273,33.7563429 C29.6498701,33.6973299 29.851013,33.6225247 30.0563117,33.5776416 C30.2441558,33.5352519 30.4295065,33.4928623 30.614026,33.4504727 C30.801039,33.4105766 30.9922078,33.3906286 31.1792208,33.3623688 C32.0511169,33.2568104 32.9246753,33.166213 33.8023896,33.1229922 C34.2927792,33.1005506 34.7831688,33.0706286 35.2735584,33.0839273 C35.6957922,33.0930701 36.1122078,33.1313039 36.5286234,33.1795117 C37.4537143,33.3548883 38.3646753,33.6208623 39.2415584,33.9641351 C39.7643636,34.2084987 40.278026,34.4794597 40.7451429,34.820239 C40.8207792,34.8817455 40.8955844,34.9457455 40.9654026,35.012239 C41.1823377,35.2167065 41.4873766,35.3305766 41.7832727,35.2399792 C42.0658701,35.1485506 42.3185455,34.8792519 42.2961039,34.5675636 C42.2828052,34.3988364 42.2603636,34.2758234 42.1730909,34.1295377 C42.084987,33.9832519 41.9744416,33.9051221 41.8381299,33.8045506 C41.7084675,33.7039792 41.5555325,33.629174 41.4067532,33.5543688 C41.0136104,33.353226 40.608,33.1778494 40.2023896,32.9991481 C39.9912727,32.9085506 39.7768312,32.8179532 39.5590649,32.7464727 C39.3255065,32.6683429 39.0919481,32.6068364 38.8542338,32.5453299 C38.441974,32.4314597 38.0297143,32.324239 37.6141299,32.2303169 C36.7605195,32.0416416 35.8936104,31.970161 35.0200519,31.9410701 C34.9419221,31.9385766 34.862961,31.9377455 34.784,31.9377455 C34.4398961,31.9377455 34.0908052,31.9576935 33.7475325,31.9734857" id="Fill-15"></path>
            <path d="M40.9479481,34.8728519 C40.9579221,34.8753455 40.9678961,34.8795013 40.9787013,34.8853195 C40.9678961,34.8803325 40.9579221,34.8761766 40.9479481,34.8728519 M33.9254026,32.6419948 C33.4807273,32.6519688 33.0352208,32.6552935 32.5938701,32.6777351 C32.3636364,32.6910338 32.1392208,32.7043325 31.9123117,32.7300987 C31.6588052,32.7591896 31.4061299,32.7982545 31.1526234,32.8373195 C30.4187013,32.9478649 29.6847792,33.0742026 28.9541818,33.2171636 C28.1496104,33.3759169 27.36,33.6327481 26.5745455,33.8796052 C26.3700779,33.9444364 26.2404156,34.1522286 26.2985974,34.3666701 C26.3534545,34.567813 26.5811948,34.7041247 26.7856623,34.6426182 C27.3957403,34.4506182 28.0066494,34.2561247 28.6333506,34.1231377 C29.2442597,33.9959688 29.8551688,33.8904104 30.4743896,33.8048 C30.4694026,33.8056312 30.4635844,33.8064623 30.4577662,33.8081247 C30.9415065,33.7432935 31.4252468,33.6684883 31.9123117,33.6327481 C32.4027013,33.5970078 32.8955844,33.5970078 33.3892987,33.6003325 C33.892987,33.6036571 34.3958442,33.6069818 34.8995325,33.6260987 C35.1555325,33.6393974 35.4123636,33.6551896 35.6658701,33.6751377 C35.9152208,33.6942545 36.1620779,33.7299948 36.4089351,33.7657351 L36.2726234,33.7466182 C37.078026,33.8862545 37.8892468,34.0225662 38.6813506,34.2237091 C39.4784416,34.4248519 40.2605714,34.6742026 41.0443636,34.9177351 C41.1125195,34.946826 41.184,34.9601247 41.2596364,34.9601247 C41.3992727,34.9601247 41.5389091,34.9052675 41.6394805,34.8046961 C41.7400519,34.7041247 41.7982338,34.5644883 41.7982338,34.4215273 C41.7982338,34.2685922 41.7334026,34.1555532 41.6394805,34.0416831 C41.4740779,33.8372156 41.2047792,33.7790338 40.9645714,33.7133714 C40.7659221,33.6585143 40.5714286,33.6036571 40.3736104,33.5512935 C39.9547013,33.4374234 39.5391169,33.3177351 39.1168831,33.2204883 C38.2657662,33.0251636 37.4021818,32.8955013 36.5419221,32.765839 C35.8744935,32.6619429 35.1912727,32.6370078 34.5122078,32.6370078 C34.3160519,32.6370078 34.1198961,32.6386701 33.9254026,32.6419948" id="Fill-17"></path>
            <path d="M30.6309818,37.5148883 C30.5819429,37.5215377 30.5370597,37.528187 30.4880208,37.5340052 C30.5370597,37.528187 30.5819429,37.5215377 30.6309818,37.5148883 L30.6309818,37.5148883 Z M34.338826,35.716239 C33.4395013,35.7228883 32.5435013,35.7320312 31.650826,35.8234597 C30.8645403,35.9049143 30.075761,36.0179532 29.3060987,36.1999792 C28.5173195,36.3853299 27.7476571,36.6770701 26.9846442,36.9496935 C26.6048,37.0860052 26.3546182,37.4500571 26.4684883,37.8623169 C26.5690597,38.2288623 26.9979429,38.5114597 27.377787,38.3784727 C27.9396571,38.1806545 28.5006961,37.9886545 29.0725403,37.8265766 C29.5172156,37.700239 29.9718649,37.6121351 30.4331636,37.5439792 C30.5378909,37.5315117 30.641787,37.5190442 30.7465143,37.5074078 C31.709839,37.3428364 32.6856312,37.1857455 33.6630857,37.1416935 C33.9199169,37.1317195 34.1734234,37.1250701 34.4294234,37.1250701 C35.3644883,37.1250701 36.2929039,37.2032 37.2155013,37.4010182 C37.5138909,37.4633558 37.8164364,37.518213 38.1048519,37.6221091 C38.3450597,37.710213 38.646774,37.8116156 38.9002805,37.9603948 C39.010826,37.9969662 39.1213714,38.0360312 39.2319169,38.0767584 C39.6865662,38.2255377 40.1993974,38.3917714 40.5110857,38.7649662 C40.5559688,38.8007065 40.6050078,38.8364468 40.6573714,38.872187 C40.763761,38.9403429 40.8876052,38.9794078 41.0106182,39.0184727 C41.2807481,39.0990961 41.5891117,39.0084987 41.7836052,38.813174 C42.0429299,38.5538494 42.0761766,38.1673558 41.9066182,37.8490182 C41.9041247,37.8456935 41.9008,37.8398753 41.9008,37.8365506 C41.8384623,37.700239 41.7703065,37.5863688 41.6630857,37.4500571 C41.4752416,37.2198234 41.1926442,37.0735377 40.9333195,36.937226 C40.4819948,36.6970182 39.9916052,36.5307844 39.5111896,36.3653818 C38.6567481,36.0769662 37.7773714,35.8916156 36.8813714,35.800187 C36.1956571,35.7295377 35.5140987,35.716239 34.8258909,35.716239 L34.338826,35.716239 Z" id="Fill-19"></path>
            <path d="M29.1874078,42.3854545 C29.1259013,42.4926753 29.1092779,42.619013 29.1416935,42.7362078 C29.1774338,42.8592208 29.252239,42.934026 29.3494857,43.0088312 C29.528187,43.1351688 29.7035636,43.2523636 29.8980571,43.3562597 C30.109174,43.4701299 30.3468883,43.5382857 30.5771221,43.6031169 C31.1065766,43.7527273 31.6584727,43.8233766 32.2037195,43.8857143 C32.4115117,43.9114805 32.6226286,43.9214545 32.8304208,43.9372468 C32.9958234,43.9505455 33.161226,43.9696623 33.3266286,43.9763117 C33.9275636,43.9987532 34.5318234,44.0444675 35.1319273,44.0120519 C35.5250701,43.9929351 35.9148883,43.9214545 36.3013818,43.849974 C36.3786805,43.8366753 36.4568104,43.8175584 36.5349403,43.8009351 C36.6646026,43.7718442 36.7817974,43.7228052 36.8923429,43.6513247 C36.9987325,43.5831688 37.0577455,43.4958961 37.1325506,43.3986494 C37.1807584,43.3138701 37.2065247,43.2232727 37.2065247,43.126026 C37.2065247,43.1010909 37.2065247,43.076987 37.2023688,43.0537143 C36.4185766,43.1268571 35.6231481,43.0961039 34.840187,43.0345974 C34.6656416,43.0204675 34.4910961,43.0046753 34.3165506,42.9872208 C33.9790961,42.993039 33.6416416,42.9880519 33.304187,42.9863896 C33.0897455,42.9863896 32.8786286,42.9664416 32.6675117,42.953974 C32.3333818,42.9373506 32.0025766,42.9149091 31.6709403,42.8758442 C31.246213,42.8176623 30.8273039,42.7328831 30.424187,42.5965714 C30.3078234,42.5408831 30.2006026,42.4793766 30.0933818,42.4145455 C29.8207584,42.3663377 29.5506286,42.3206234 29.2780052,42.2782338 C29.2422649,42.3106494 29.2098494,42.3463896 29.1874078,42.3854545" id="Fill-21"></path>
            <path d="M36.1390545,36.4804156 C36.0318338,36.4770909 35.9279377,36.4804156 35.8240416,36.4870649 C35.5580675,36.5061818 35.2688208,36.5452468 35.0352623,36.6782338 C34.8357818,36.7929351 34.6728727,36.9525195 34.5232623,37.1237403 C35.4267429,37.1295584 36.3227429,37.211013 37.2170805,37.4021818 C37.5154701,37.4645195 37.8180156,37.5193766 38.1064312,37.6232727 C38.3574442,37.7155325 38.676613,37.8219221 38.9367688,37.9823377 C39.0032623,38.0039481 39.0689247,38.0263896 39.1354182,38.0488312 C39.1620156,38.0554805 39.1844571,38.0646234 39.2068987,38.0712727 C39.0838857,37.8859221 38.9342753,37.7138701 38.7913143,37.5451429 C38.5934961,37.3115844 38.3399896,37.1262338 38.0939636,36.9475325 C37.8537558,36.7754805 37.5711584,36.6624416 37.3010286,36.5585455 C37.0483532,36.457974 36.7557818,36.4413506 36.4864831,36.438026 C36.3692883,36.438026 36.2529247,36.4546494 36.1390545,36.4804156" id="Fill-23"></path>
            <path d="M37.9081974,43.0140675 C37.7469506,43.0223792 37.5848727,43.0281974 37.423626,43.0323532 C36.5675221,43.134587 35.6964571,43.1046649 34.8403532,43.0365091 C34.7655481,43.0306909 34.6899117,43.0240416 34.6159377,43.0173922 C34.6616519,43.0489766 34.7073662,43.0797299 34.755574,43.1079896 C35.3174442,43.4653922 35.9732364,43.6241455 36.6290286,43.6864831 C36.9473662,43.715574 37.2681974,43.6765091 37.5798857,43.6274701 C37.8466909,43.5850805 38.0968727,43.5268987 38.3462234,43.4263273 C38.5415481,43.3448727 38.6421195,43.2900156 38.8075221,43.1570286 C38.9080935,43.075574 38.9895481,42.9949506 39.0734961,42.8910545 C39.0768208,42.8910545 39.0768208,42.8877299 39.0768208,42.8877299 C38.6903273,42.9492364 38.2946909,42.9949506 37.9081974,43.0140675" id="Fill-25"></path>
            <path d="M29.6118857,42.5275013 C29.4855481,42.7452675 29.5470545,43.0760727 29.7839377,43.1932675 C30.3582753,43.4758649 30.952561,43.6928 31.5601455,43.8881247 C31.7388468,43.9463065 31.9200416,44.0044883 32.0987429,44.0635013 C32.5043532,44.1931636 32.9232623,44.2712935 33.3421714,44.3261506 C34.0760935,44.4267221 34.8233143,44.4790857 35.5630545,44.4591377 C35.7193143,44.455813 35.8780675,44.4624623 36.0343273,44.4466701 C36.2254961,44.4267221 36.4141714,44.4109299 36.6053403,44.3909818 C36.9303273,44.3585662 37.2611325,44.3128519 37.5861195,44.2546701 C37.9169247,44.1931636 38.2452364,44.1316571 38.5727169,44.0535273 C38.7156779,44.0211117 38.858639,43.9820468 38.9982753,43.9363325 C39.1312623,43.894774 39.2742234,43.8457351 39.3880935,43.7642805 C39.5044571,43.6803325 39.582587,43.5922286 39.6573922,43.4692156 C39.764613,43.2905143 39.7612883,43.0569558 39.6573922,42.8782545 C39.6382753,42.8491636 39.6183273,42.8200727 39.5958857,42.7934753 C39.5759377,42.7968 39.5568208,42.8034494 39.5368727,42.806774 C39.011574,42.9073455 38.4497039,42.9854753 37.9102753,43.0145662 L37.6767169,43.0245403 C37.3168208,43.1051636 36.9527688,43.1733195 36.5920416,43.2381506 L36.7483013,43.2190338 C36.2288208,43.2871896 35.7126649,43.3553455 35.1898597,43.3619948 C34.5016519,43.3719688 33.822587,43.3553455 33.1410286,43.2713974 C32.7420675,43.2024104 32.3588987,43.101839 31.9757299,42.9854753 C31.5343792,42.8524883 31.1021714,42.7128519 30.676613,42.5441247 C30.6433662,42.5283325 30.6101195,42.5133714 30.5768727,42.4975792 C30.3092364,42.4502026 30.0424312,42.4044883 29.7731325,42.3596052 C29.7099636,42.397839 29.6542753,42.4535273 29.6118857,42.5275013" id="Fill-27"></path>
            <g id="Group-31" transform="translate(0.000000, 0.389818)">
                <path d="M21.5015065,71.9157195 L21.5305974,71.844239 C21.5921039,71.7046026 21.6511169,71.5649662 21.7192727,71.4286545 C21.8032208,71.2566026 21.8913247,71.0912 21.9819221,70.9224727 L22.0467532,70.7986286 L22.1473247,70.6107844 L22.2512208,70.4221091 C22.3842078,70.2633558 22.5238442,70.1037714 22.6668052,69.9450182 C22.8031169,69.7920831 22.9527273,69.6466286 23.1056623,69.5094857 L23.1380779,69.5094857 C23.2128831,69.5094857 23.2610909,69.5036675 23.3101299,69.4903688 C23.8553766,69.3640312 24.4105974,69.2692779 24.9624935,69.1753558 L25.3647792,69.1072 C26.4137143,69.0066286 27.3911688,68.9160312 28.3719481,68.8379013 C28.5888831,68.9575896 28.8390649,69.0290701 29.0343896,69.0781091 C29.2388571,69.1329662 29.449974,69.1653818 29.6544416,69.1953039 L29.9952208,69.2468364 C30.6086234,69.3474078 31.2029091,69.4903688 31.5960519,69.5842909 C32.1861818,69.7305766 32.7289351,69.8635636 33.2450909,70.0647065 L33.3456623,70.1137455 L33.4952727,70.1785766 C33.8975584,70.5035636 34.4236883,70.9349403 34.9107532,71.3995636 C35.0927792,71.5716156 35.2448831,71.7760831 35.3944935,71.9739013 C35.4692987,72.0686545 35.5407792,72.1659013 35.6180779,72.2598234 L35.9006753,72.6039273 L36.2647273,73.0486026 C36.6994286,73.6495377 37.0692987,74.286213 37.3942857,74.990213 L37.4724156,75.1946805 C37.5148052,75.6426805 37.5339221,76.0000831 37.5305974,76.3217455 C37.5272727,76.5129143 37.5239481,76.708239 37.5181299,76.8994078 L37.5114805,77.1886545 C37.5081558,77.4712519 37.4981818,77.7530182 37.4657662,78.0322909 C37.4200519,78.3049143 37.3618701,78.5717195 37.2903896,78.8410182 C37.2222338,79.1136416 37.1216623,79.3796156 37.0210909,79.6430961 C36.7318442,80.312187 36.4043636,80.8865247 36.0278442,81.3993558 C35.8358442,81.6270961 35.638026,81.8506805 35.4269091,82.0684468 C35.2091429,82.2953558 34.9556364,82.5230961 34.6281558,82.7824208 C34.550026,82.8439273 34.4718961,82.8996156 34.3879481,82.9544727 C34.3098182,83.010161 34.2258701,83.0517195 34.1410909,83.0941091 C33.9981299,83.1531221 33.8551688,83.1980052 33.7030649,83.2237714 C33.6349091,83.2304208 33.5667532,83.2337455 33.4985974,83.2337455 C33.3681039,83.2337455 33.2384416,83.2237714 33.1087792,83.2079792 C33.0173506,83.1913558 32.9300779,83.172239 32.8394805,83.1464727 C32.6408312,83.0517195 32.452987,82.9420052 32.270961,82.8115117 C32.1803636,82.7308883 32.0989091,82.6494338 32.0241039,82.5588364 C31.945974,82.4482909 31.8811429,82.3310961 31.822961,82.2080831 C31.689974,81.8764468 31.6251429,81.5323429 31.5827532,81.2730182 C31.5694545,81.1624727 31.5694545,81.0552519 31.5761039,80.9447065 C31.6642078,80.9156156 31.7548052,80.8832 31.8487273,80.8507844 C32.1313247,80.7468883 32.4072727,80.6363429 32.6765714,80.5033558 C32.9167792,80.386161 33.0921558,80.2631481 33.1636364,80.0329143 C33.2317922,79.8251221 33.1245714,79.5583169 32.9334026,79.4643948 C32.8328312,79.4153558 32.7355844,79.3929143 32.635013,79.3929143 C32.5568831,79.3929143 32.4754286,79.4028883 32.3914805,79.4253299 C32.2518442,79.4577455 32.118026,79.4934857 31.9817143,79.5325506 C31.6866494,79.6173299 31.2935065,79.7270442 30.8779221,79.7893818 C30.030961,79.8966026 29.3751688,79.9414857 28.7551169,79.9414857 L28.5240519,79.9448104 L28.0569351,79.9448104 C27.6089351,79.9448104 27.0794805,79.938161 26.5533506,79.8866286 C26.1735065,79.8217974 25.8684675,79.7403429 25.5925195,79.6397714 C25.5368312,79.6173299 25.4786494,79.6073558 25.4204675,79.6073558 C25.1511688,79.6073558 24.8777143,79.8184727 24.8037403,80.0844468 C24.758026,80.2465247 24.7837922,80.4285506 24.8685714,80.578161 C24.9491948,80.7144727 25.0663896,80.8050701 25.2517403,80.8699013 C25.6473766,81.0195117 26.0371948,81.1234078 26.4361558,81.1915636 C26.6115325,81.2206545 26.7869091,81.2439273 26.9622857,81.2597195 L26.9365195,81.380239 C26.9007792,81.5913558 26.8517403,81.7567584 26.7902338,81.9254857 C26.692987,82.1108364 26.5857662,82.2828883 26.4660779,82.4449662 C26.3297662,82.5979013 26.1834805,82.734213 26.0238961,82.8638753 C25.8518442,82.9835636 25.6797922,83.0874597 25.4985974,83.1788883 C25.2808312,83.2628364 25.0630649,83.3276675 24.8328312,83.3733818 C24.7056623,83.3866805 24.5826494,83.3933299 24.4563117,83.3933299 C24.3490909,83.3933299 24.2451948,83.3900052 24.137974,83.3800312 C23.9592727,83.3476156 23.7872208,83.3019013 23.6184935,83.2403948 C23.2677403,83.0749922 22.9203117,82.8672 22.5629091,82.6037195 C22.4174545,82.4840312 22.2744935,82.3635117 22.144,82.2272 C21.9952208,82.0750961 21.8589091,81.9155117 21.7259221,81.7534338 C21.5239481,81.4841351 21.3618701,81.2339532 21.2255584,80.9870961 C21.0634805,80.6920312 20.9138701,80.3894857 20.7775584,80.0844468 C20.6994286,79.8990961 20.6279481,79.7179013 20.5564675,79.5325506 C20.4982857,79.3737974 20.4525714,79.2075636 20.4076883,79.0388364 L20.3553247,78.8576416 C20.219013,78.3539532 20.1284156,77.8411221 20.0660779,77.4479792 C20.0245195,77.0423688 20.0178701,76.6201351 20.0502857,76.1530182 L20.1117922,75.945226 C20.1865974,75.7075117 20.2580779,75.4739532 20.3162597,75.2370701 L20.3844156,74.9644468 C20.4334545,74.7566545 20.4816623,74.552187 20.544,74.3510442 L20.5855584,74.2147325 C20.6121558,74.1266286 20.6379221,74.0393558 20.6703377,73.9512519 C20.7251948,73.8024727 20.7842078,73.6528623 20.8457143,73.5032519 C20.982026,73.1691221 21.1183377,72.8316675 21.257974,72.5000312 L21.4981818,71.9190442 L21.5015065,71.9190442 L21.5015065,71.9223688 L21.5015065,71.9157195 Z M40.5502338,0.441849351 L40.4654545,0.441849351 C40.1055584,0.441849351 39.7415065,0.474264935 39.3849351,0.506680519 L39.1671688,0.522472727 C38.3227013,0.597277922 37.4848831,0.672083117 36.6445714,0.775979221 C34.9531429,0.990420779 33.3198961,1.29545974 31.7938701,1.6886026 C31.1505455,1.85068052 30.459013,2.05847273 29.6245195,2.34107013 L29.4109091,2.41255065 C28.8648312,2.59125195 28.411013,2.74668052 27.9688312,2.93203117 L26.1053506,3.71083636 L25.6382338,3.89951169 C25.2908052,4.03914805 24.9433766,4.17878442 24.6117403,4.34086234 L24.004987,4.63010909 L23.8744935,4.68829091 C23.1447273,5.04236883 22.4141299,5.39312208 21.6868571,5.76964156 L19.8167273,6.7337974 C19.5274805,6.88008312 19.2448831,7.04881039 18.9689351,7.21753766 L18.6281558,7.42532987 C18.3064935,7.61068052 17.9881558,7.7952 17.6764675,7.98387532 L17.5434805,8.05868052 C17.4138182,8.13348571 17.3323636,8.17504416 17.2608831,8.22740779 L16.4363636,8.78595325 L15.6118442,9.34782338 C14.9103377,9.82158961 14.2321039,10.3244468 13.4823896,10.8896416 L12.8166234,11.3833558 C12.169974,11.8604468 11.5341299,12.354161 10.8974545,12.8478753 L10.4103896,13.2243948 C9.55012987,13.8893299 8.68987013,14.6432 7.99833766,15.2466286 L7.60519481,15.5874078 C6.85215584,16.2465247 6.15397403,16.9447065 5.27709091,17.8573299 L4.84238961,18.3153039 C4.42680519,18.7566545 4.0078961,19.1980052 3.56987013,19.620239 C3.05371429,20.1172779 2.46275325,20.6334338 1.75792208,21.1977974 C1.63158442,21.2859013 1.50192208,21.373174 1.37142857,21.4579532 L1.26753247,21.5294338 C1.17028571,21.5909403 1.07968831,21.6557714 0.984935065,21.7206026 C0.829506494,21.8278234 0.683220779,21.9416935 0.54025974,22.062213 C0.27761039,22.2824727 0.160415584,22.584187 0.0598441558,22.8509922 C-0.0340779221,23.0912 -0.00498701299,23.5458494 0.0598441558,23.7661091 C0.0922597403,23.8766545 0.131324675,23.9805506 0.177038961,24.0844468 C0.403948052,24.6263688 0.61838961,25.208187 0.878545455,25.9712 C1.10212987,26.6269922 1.32654545,27.2827844 1.52768831,27.9419013 C1.73548052,28.6234597 1.89423377,29.2859013 2.01807792,29.9583169 C2.11864935,30.9191481 2.11532468,31.9448104 2.00477922,33.006213 C1.91750649,33.474161 1.78701299,34.0908883 1.56342857,34.6752 C1.26753247,35.3409662 0.98825974,35.886213 0.683220779,36.3965506 L0.546909091,36.6168104 L0.413922078,36.841226 C0.267636364,37.0880831 0.160415584,37.3407584 0.0764675325,37.5585247 C-0.00166233766,37.7563429 -0.0116363636,38.0322909 0.0440519481,38.2824727 C0.0922597403,38.4744727 0.209454545,38.7238234 0.35574026,38.8443429 C0.49787013,38.958213 0.640831169,39.0654338 0.829506494,39.1527065 C0.943376623,39.2075636 1.06638961,39.2532779 1.18358442,39.2956675 C1.98233766,39.6530701 2.71542857,40.0944208 3.42358442,40.5199792 L3.68623377,40.6787325 C3.96218182,40.8474597 4.23812987,41.0095377 4.5307013,41.149174 C4.81662338,41.2854857 5.12831169,41.3835636 5.4267013,41.4774857 L5.59542857,41.5256935 C5.7841039,41.5847065 5.96945455,41.6295896 6.16394805,41.6595117 C6.14732468,41.7501091 6.15064935,41.8606545 6.15397403,41.9712 C6.16062338,42.1881351 6.17724675,42.4059013 6.19303896,42.6236675 C6.08914286,43.1298494 5.99522078,43.6393558 5.90046753,44.1496935 L5.7225974,45.1105247 C5.40425974,46.7795117 5.09257143,48.578161 4.97205195,50.4125506 L4.95625974,50.6660571 L4.93963636,50.9187325 C4.92051948,51.0550442 4.9038961,51.1913558 4.89142857,51.3276675 L4.84571429,51.7274597 L4.82327273,51.9676675 C4.78753247,52.2926545 4.75761039,52.6010182 4.73184416,52.9160312 C4.70607792,53.2277195 4.68945455,53.5394078 4.67366234,53.8477714 L4.64124675,54.4387325 C4.55979221,55.7727584 4.50825974,56.8316675 4.48166234,57.769226 C4.46919481,58.2438234 4.46254545,58.7275636 4.4558961,59.2013299 C4.44924675,59.6393558 4.46587013,60.0225247 4.48498701,60.4090182 L4.50493506,60.8478753 C4.544,61.7596675 4.63127273,62.6914078 4.72519481,63.6430961 L4.73849351,63.7927065 L4.75179221,63.9157195 L4.76425974,64.0295896 C5.02774026,66.6203429 5.38763636,68.6949403 5.89797403,70.5584208 C6.01101299,70.9615377 6.13818182,71.357174 6.27116883,71.7536416 C6.3492987,71.9805506 6.4398961,72.2016416 6.53049351,72.4219013 L6.56955844,72.5199792 L6.73496104,72.9222649 C7.09568831,73.8215896 7.46555844,74.7109403 7.8454026,75.6011221 C7.86867532,75.5487584 7.86202597,75.4997195 7.8454026,75.448187 C8.14794805,76.3283948 8.60176623,77.3831481 9.0505974,78.2857974 C9.5758961,79.3347325 10.0987013,80.2764468 10.6057143,81.0810182 C11.2548571,82.1523948 11.9297662,83.0550442 12.6703377,83.8446545 C13.2255584,84.4289662 13.8489351,84.964239 14.4008312,85.4388364 L14.4723117,85.5003429 L15.0275325,85.9807584 C16.1055584,86.9124987 16.9400519,87.5458494 17.7321558,88.0387325 C18.4885195,88.5199792 19.2839481,88.873226 20.0536104,89.2140052 L20.5531429,89.4417455 L20.9654026,89.6329143 L21.0634805,89.6786286 C21.9686234,90.0975377 22.7873247,90.4707325 23.6184935,90.7890701 C23.8096623,90.8705247 24.004987,90.9420052 24.1994805,91.010161 L24.3357922,91.0583688 L24.5011948,91.1173818 L24.5959481,91.1497974 L25.1345455,91.3442909 C25.5667532,91.5063688 26.0014545,91.6692779 26.4461299,91.8022649 C27.5499221,92.1330701 28.7027532,92.1920831 29.8846753,92.2244987 C30.4041558,92.2402909 30.9203117,92.2502649 31.4364675,92.2569143 L31.5761039,92.260239 C32.2742857,92.260239 32.9558442,92.1854338 33.5925195,92.0358234 C34.0729351,91.9252779 34.5375584,91.7698494 35.0595325,91.5454338 C35.6804156,91.2919273 36.2156883,90.9544727 36.6603636,90.6560831 C37.3585455,90.1947844 38.0276364,89.6719792 38.6701299,89.1657974 L38.833039,89.0394597 L39.3716364,88.6139013 L39.6251429,88.4160831 C39.9659221,88.1492779 40.310026,87.8799792 40.6316883,87.5874078 C41.024,87.224187 41.3880519,86.8443429 41.7288312,86.4869403 L41.8784416,86.3248623 L41.9332987,86.2600312 C42.3231169,85.8377974 42.6896623,85.4388364 43.0046753,85.0232519 C43.1767273,84.792187 43.3421299,84.5586286 43.5108571,84.3250701 L43.6962078,84.0615896 L43.8325195,83.8637714 L43.9239481,83.7307844 L44.932987,82.3186286 L45.2870649,81.8116156 L45.8489351,81.0195117 C46.2969351,80.386161 46.7158442,79.6979532 47.1056623,79.0454857 L47.5112727,78.3763948 C47.9368312,77.688187 48.2875844,77.1072 48.6050909,76.4738494 C48.7970909,76.0906805 48.9624935,75.6950442 49.1212468,75.2952519 C49.3165714,74.8347844 49.3814026,74.4059013 49.4329351,74.0036156 C49.4329351,73.7958234 49.3814026,73.597174 49.2741818,73.4159792 C49.1245714,73.1524987 48.8685714,72.9580052 48.5726753,72.8765506 C48.4596364,72.8441351 48.3557403,72.8283429 48.2643117,72.8283429 C47.872,72.8283429 47.5012987,73.0419532 47.2511169,73.4126545 L47.1638442,73.5389922 C47.049974,73.6985766 46.9394286,73.8573299 46.8421818,74.0327065 C46.7972987,74.114161 46.7515844,74.1981091 46.7058701,74.286213 L46.641039,74.4125506 L46.5047273,74.6693818 C46.2902857,75.0816416 46.0534026,75.4839273 45.8065455,75.8828883 C45.4757403,76.4189922 45.1316364,76.9517714 44.7908571,77.4803948 L44.5730909,77.8153558 L44.1832727,78.4187844 C44.0727273,78.5908364 43.9596883,78.7628883 43.8424935,78.9349403 C43.8973506,78.8019532 43.8882078,78.6589922 43.8749091,78.500239 C43.8067532,77.7305766 43.7128312,76.8212779 43.5108571,75.896187 L43.3811948,75.2985766 C43.2772987,74.808187 43.0794805,74.3377455 42.8874805,73.8830961 C42.6348052,73.2954597 42.3812987,72.8541091 42.1186494,72.4160831 L41.9756883,72.1750442 C41.796987,71.8700052 41.6116364,71.5682909 41.4237922,71.2665766 C41.0630649,70.6822649 40.6150649,70.2010182 40.1836883,69.7663169 C39.7772468,69.3573818 39.3259221,68.9775377 38.8878961,68.610161 L38.5828571,68.3508364 C38.3684156,68.1688104 38.1473247,67.9901091 37.9303896,67.812239 L37.7092987,67.6368623 C37.430026,67.4124468 37.1407792,67.1946805 36.849039,66.9868883 C36.3328831,66.6136935 35.7286234,66.3377455 35.2648312,66.1432519 C34.2674286,65.7110442 33.329039,65.4060052 32.3881558,65.208187 C31.6118442,65.0486026 30.8130909,65.006213 30.2811429,64.9904208 C30.153974,64.9904208 30.0600519,65.006213 29.9561558,65.0394597 C29.8680519,64.9255896 29.7192727,64.834161 29.5505455,64.7892779 C29.4557922,64.760187 29.3618701,64.7435636 29.2770909,64.7435636 C28.8324156,64.7435636 28.4434286,65.0452779 28.2805195,65.5065766 C28.1674805,65.8348883 28.0536104,66.1590442 27.9364156,66.4873558 C27.7843117,66.9029403 27.7061818,67.2570182 27.6995325,67.5745247 L27.5341299,67.5778494 L27.3587532,67.5911481 L27.4044675,67.5229922 C27.5274805,67.4157714 27.6022857,67.2270961 27.6247273,66.9544727 C27.6313766,66.8248104 27.6180779,66.6752 27.588987,66.5164468 C27.5341299,66.2147325 27.4202597,65.9254857 27.2615065,65.6819532 C27.2548571,65.4907844 27.1185455,65.2563948 26.8816623,65.2048623 C26.3979221,65.1076156 26.0081039,65.0619013 25.6573506,65.0619013 C25.4852987,65.0619013 25.3099221,65.0718753 25.1345455,65.0943169 C24.6574545,65.1591481 24.2094545,65.3120831 23.6733506,65.4999273 C23.4888312,65.5647584 23.3101299,65.6304208 23.1314286,65.6985766 L23.0242078,65.7401351 L22.9427532,65.769226 C22.7997922,65.8215896 22.7482597,65.8440312 22.6992208,65.8706286 C22.5595844,65.9288104 22.4299221,66.0069403 22.3035844,66.084239 C21.3876364,66.6527584 20.6345974,67.2304208 19.9979221,67.7274597 C19.4850909,68.1264208 19.0695065,68.5453299 18.7287273,68.9999792 C18.4394805,69.3931221 18.1834805,69.8311481 17.9623896,70.2109922 C17.6797922,70.7013818 17.5110649,71.2175377 17.3913766,71.5940571 L17.329039,71.7794078 L17.2417662,72.0586805 C17.0863377,72.5066805 16.9234286,72.9480312 16.7613506,73.3893818 C16.452987,74.2438234 16.2967273,75.1946805 16.1703896,75.9610182 L16.1512727,76.0848623 C16.0989091,76.3998753 16.0407273,76.7140571 15.9817143,77.0257455 L15.9492987,77.2044468 L15.9135584,77.422213 L15.8811429,77.6075636 C15.8196364,77.9608104 15.7614545,78.3115636 15.7124156,78.6756156 C15.5860779,79.5940571 15.5012987,80.3703688 15.5012987,81.1624727 C15.5012987,81.5456416 15.5046234,81.9254857 15.5145974,82.3086545 L15.5212468,82.5746286 L15.5303896,82.8414338 C15.4464416,82.6984727 15.3167792,82.5746286 15.1862857,82.4482909 L14.8097662,82.084239 C14.4947532,81.7758753 14.2221299,81.4317714 13.9594805,81.1009662 C13.1083636,79.9514597 12.2971429,78.6041351 11.4751169,76.9708883 C10.8459221,75.714161 10.2840519,74.3992519 9.74212987,73.1300571 L9.664,72.9513558 L9.53683117,72.6463169 L9.33236364,72.1235117 L9.25174026,71.9223688 C9.1278961,71.6231481 9.00820779,71.3247584 8.88768831,71.0230442 C8.77714286,70.7371221 8.68987013,70.4420571 8.60176623,70.146161 L8.56353247,70.0065247 C8.46212987,69.6624208 8.36155844,69.3183169 8.27761039,68.9675636 C7.9758961,67.7274597 7.73568831,66.4258494 7.5145974,64.8765506 C7.28685714,62.9806545 7.07324675,60.9542649 7.05662338,58.9744208 C6.95937662,58.2596156 6.88124675,57.5456416 6.81641558,56.8283429 C6.79064935,56.3928104 6.76737662,55.9581091 6.75490909,55.5225766 C6.73163636,54.633226 6.74825974,53.7663169 6.80311688,52.9484468 L6.83553247,52.5037714 C6.87127273,51.9576935 6.90701299,51.4157714 6.95937662,50.8738494 C7.01755844,50.2404987 7.08238961,49.6038234 7.15387013,48.9737974 C7.30348052,47.9348364 7.47553247,46.9025247 7.65090909,45.8668883 C7.75812987,45.2177455 7.86867532,44.5719273 7.96924675,43.9186286 C8.10888312,43.0425766 8.25433766,42.1723429 8.41392208,41.2987844 C8.49787013,40.8374857 8.58264935,40.3803429 8.66992208,39.9223688 C8.71563636,39.6946286 8.76467532,39.4710442 8.81620779,39.2433039 L8.86192208,39.0355117 C9.48862338,38.7969662 10.1427532,38.5850182 10.7362078,38.3996675 C10.9872208,38.2625247 11.2664935,38.1661091 11.5374545,38.0680312 C12.1998961,37.8278234 12.8881039,37.6915117 13.572987,37.5427325 C14.3617662,37.3698494 15.1538701,37.2992 15.945974,37.2992 C16.6798961,37.2992 17.4171429,37.3607065 18.1543896,37.4612779 C18.6896623,37.5360831 19.2349091,37.6075636 19.7543896,37.7596675 C20.0311688,37.8402909 20.2680519,37.9549922 20.4908052,38.0954597 C20.4642078,38.0597195 20.4367792,38.0223169 20.4076883,37.9874078 L20.5149091,38.0455896 L20.6088312,38.0813299 C20.7193766,38.1270442 20.8423896,38.146161 20.9886753,38.146161 C21.115013,38.1428364 21.1964675,38.1203948 21.2679481,38.0846545 C21.3685195,38.1303688 21.4624416,38.1627844 21.572987,38.1661091 C21.705974,38.1661091 21.7998961,38.1303688 21.9071169,38.0780052 C21.9204156,38.185226 21.9362078,38.2990961 21.9528312,38.4154597 C22.0534026,39.2108883 22.144,39.9872 22.1996883,40.7726545 C22.2420779,41.4608623 22.2387532,42.1914597 22.1863896,43.0783169 L22.1182338,44.2627325 C22.0534026,45.4288623 21.9852468,46.633226 21.8813506,47.8217974 C21.7841039,48.4518234 21.6602597,49.0876675 21.5048312,49.7600831 C21.4524675,49.9869922 21.3976104,50.2114078 21.3394286,50.4349922 C21.2322078,50.8738494 21.1183377,51.3218494 21.0435325,51.7764987 C20.9205195,52.526213 20.7933506,53.2792519 20.6603636,54.0289662 C20.5473247,54.6855896 20.4691948,55.3638234 20.3977143,56.0162909 L20.3686234,56.2764468 C20.3328831,56.5133299 20.2971429,56.7468883 20.2580779,56.9804468 C20.1932468,57.3669403 20.1317403,57.7501091 20.086026,58.1366026 C20.0536104,58.4158753 20.0436364,58.7042909 20.0569351,58.9868883 C20.0760519,59.3509403 20.1575065,59.6593039 20.3129351,59.9809662 C20.3943896,60.1397195 20.494961,60.2693818 20.6055065,60.4056935 L20.657039,60.4738494 C20.7227013,60.5586286 20.7933506,60.6301091 20.8714805,60.6982649 C20.9396364,60.9218494 21.0343896,61.0847584 21.1707013,61.2210701 C21.3552208,61.3673558 21.4690909,61.4579532 21.6054026,61.5227844 C22.5595844,61.9998753 23.6542338,62.0647065 24.6017662,62.0647065 C24.8718961,62.0647065 25.1411948,62.062213 25.4071688,62.0555636 L25.5143896,62.052239 L26.1086753,62.0389403 L26.702961,62.0264727 C27.0761558,62.0198234 27.4626494,61.9674597 27.8001039,61.9225766 L27.9330909,61.9092779 L28.0178701,61.8959792 L28.2123636,61.870213 C28.4492468,61.8020571 28.6445714,61.6915117 28.809974,61.5327584 C29.0535065,61.2859013 29.1898182,60.9484468 29.1898182,60.610161 C29.1898182,60.1264208 28.8947532,59.6526545 28.4558961,59.4348883 C28.2871688,59.1007584 27.9621818,58.8796675 27.638026,58.8796675 L26.7711169,58.9577974 L25.9756883,59.0292779 C25.6573506,59.0583688 25.339013,59.0841351 25.0206753,59.1074078 C24.8394805,59.1232 24.6574545,59.1265247 24.4721039,59.1265247 C24.0822857,59.1265247 23.670026,59.1007584 23.1738182,59.0425766 C23.1214545,59.0359273 23.0732468,59.0259532 23.0242078,59.0159792 L23.108987,58.1823169 C23.1247792,57.9936416 23.1447273,57.8049662 23.1638442,57.6204468 C23.3259221,57.0585766 23.4464416,56.4933818 23.5628052,55.9481351 C23.7971948,54.8667844 23.9401558,53.7505247 24.0764675,52.6724987 L24.1604156,51.9934338 L24.260987,51.3309922 C24.4363636,50.2147325 24.6117403,49.0585766 24.6832208,47.9057455 C24.7222857,47.3347325 24.6998442,46.7437714 24.6765714,46.1752519 C24.6474805,45.412239 24.6217143,44.7207065 24.5992727,44.0324987 C24.585974,43.630213 24.5693506,43.2304208 24.5535584,42.8314597 L24.5311169,42.2305247 C24.5078442,41.6004987 24.4396883,40.9613299 24.3748571,40.3479273 L24.3490909,40.1168623 C24.2352208,39.0163948 24.0598442,37.9026286 23.8877922,36.8246026 C23.822961,36.4056935 23.7548052,35.9901091 23.6932987,35.5745247 C23.6542338,35.3085506 23.4107013,35.0550442 23.1995844,34.9320312 C23.0466494,34.8414338 22.8779221,34.7890701 22.6992208,34.7824208 L22.5695584,34.8929662 L22.3650909,35.0517195 L22.2188052,35.1589403 L22.1115844,35.2470442 L22.1082597,35.2403948 C21.9237403,35.3958234 21.8098701,35.5063688 21.7026494,35.6268883 L21.6477922,35.8247065 C21.6344935,35.8895377 21.622026,35.9576935 21.6054026,36.0258494 L21.5862857,36.1073039 L21.6802078,36.5619532 L21.7417143,36.9808623 C21.7126234,36.9484468 21.6669091,36.9284987 21.6245195,36.9093818 C21.44,36.8279273 21.3128312,36.7730701 21.1864935,36.7240312 C20.7285195,36.5386805 20.3162597,36.4023688 19.9172987,36.3084468 C19.1218701,36.1139532 18.2283636,36.0100571 17.1902338,35.9867844 C17.0082078,35.9842909 16.8228571,35.9842909 16.6408312,35.9842909 C15.8587013,35.9842909 15.1671688,36.0167065 14.518026,36.0815377 C14.0276364,36.1330701 13.5405714,36.1979013 13.0535065,36.2660571 C12.5988571,36.3308883 12.1541818,36.4381091 11.7252987,36.5453299 C11.4526753,36.6134857 11.1833766,36.6949403 10.9140779,36.7763948 L10.7254026,36.8345766 C10.427013,36.9218494 10.1344416,37.0323948 9.84602597,37.1462649 C9.61496104,37.2335377 9.38472727,37.3316156 9.16031169,37.4413299 C9.26420779,36.9517714 9.35231169,36.4971221 9.44623377,36.0424727 C9.48197403,35.8670961 9.51771429,35.6917195 9.55677922,35.5163429 L9.61163636,35.2536935 L10.1510649,35.0749922 C10.4527792,34.9744208 10.7578182,34.8705247 11.0595325,34.7757714 C11.8100779,34.552187 12.8033247,34.276239 13.8356364,34.1266286 C14.5437922,34.0360312 15.089039,33.9712 15.6642078,33.9678753 L15.985039,33.9645506 C16.1737143,33.9645506 16.3590649,33.9678753 16.5469091,33.9745247 C16.8486234,33.9836675 17.1445195,34.0102649 17.4395844,34.0393558 C18.0563117,34.1266286 18.5533506,34.2504727 18.998026,34.4258494 C19.2972468,34.562161 19.6089351,34.734213 19.9497143,34.9544727 C20.0012468,34.990213 20.0635844,35.0068364 20.1284156,35.0068364 C20.2580779,35.0068364 20.3810909,34.9353558 20.4459221,34.8248104 C20.544,34.6594078 20.4883117,34.4449662 20.3162597,34.3344208 L20.2381299,34.2828883 C20.2580779,34.1590442 20.2156883,34.0293818 20.1217662,33.9321351 C20.0569351,33.8440312 19.9979221,33.7634078 19.9364156,33.6886026 C19.8100779,33.5456416 19.6637922,33.4350961 19.4950649,33.3179013 L19.3811948,33.2372779 L19.2648312,33.1591481 C19.1734026,33.1009662 19.0695065,33.0585766 18.9689351,33.016187 C18.7810909,32.9380571 18.6348052,32.893174 18.4885195,32.8474597 L18.3064935,32.7892779 C17.9008831,32.6562909 17.4852987,32.558213 17.0988052,32.4742649 C16.8976623,32.4285506 16.6865455,32.4061091 16.4820779,32.3828364 L16.3972987,32.3736935 C16.1961558,32.3504208 15.9916883,32.3446026 15.7872208,32.3379532 C15.6218182,32.3379532 15.5012987,32.3479273 15.3816104,32.3537455 L15.1505455,32.3637195 C14.9302857,32.3703688 14.7091948,32.3770182 14.4914286,32.4061091 L14.4108052,32.4185766 C14.2063377,32.4484987 14.0018701,32.4775896 13.7998961,32.5257974 C13.6187013,32.5715117 13.44,32.6238753 13.2612987,32.6787325 L13.1083636,32.7244468 L12.9562597,32.7660052 C12.8232727,32.8017455 12.6894545,32.8408104 12.5597922,32.8832 C12.3453506,32.9580052 12.1317403,33.0328104 11.9206234,33.1134338 C11.7643636,33.1724468 11.6056104,33.2306286 11.446026,33.2854857 C11.1800519,33.380239 10.9174026,33.4774857 10.6605714,33.5913558 L10.5142857,33.6528623 C10.3912727,33.7077195 10.2641039,33.7634078 10.1444156,33.828239 C10.0563117,33.8731221 9.96903896,33.9188364 9.88425974,33.9678753 L9.94992208,33.7368104 L10.0047792,33.4966026 C10.1901299,32.6463169 10.3812987,31.7985247 10.5857662,30.9515636 C10.7187532,30.4029922 10.8941299,29.8569143 11.0661818,29.3282909 C11.1576104,29.0523429 11.2448831,28.7730701 11.3296623,28.4971221 C11.5175065,27.8604468 11.6737662,27.2761351 11.8001039,26.7076156 C11.9239481,26.1490701 12.0602597,25.5946805 12.2123636,25.0419532 C12.2938182,24.7435636 12.3777662,24.4484987 12.4625455,24.1526026 L12.6894545,23.3438753 L12.7160519,23.2433039 C12.7842078,22.9906286 12.8556883,22.7371221 12.9462857,22.4902649 C13.0368831,22.2500571 13.1316364,22.0098494 13.2288831,21.7696416 C13.2870649,21.7405506 13.3485714,21.7081351 13.4109091,21.6723948 L13.7741299,21.4712519 C13.9918961,21.3507325 14.2063377,21.2335377 14.4199481,21.1105247 L14.7582338,20.9160312 C14.8455065,20.8669922 14.8978701,20.841226 14.9460779,20.8088104 L15.0208831,20.7630961 L15.0923636,20.7140571 L15.3716364,20.5943688 C16.1570909,20.3184208 17.0082078,20.0225247 17.8842597,19.7565506 L18.112,19.6883948 C18.3879481,19.6069403 18.6672208,19.5263169 18.9498182,19.448187 L19.406961,19.3218494 C19.721974,19.2304208 20.036987,19.1431481 20.3553247,19.0683429 L20.5631169,19.0226286 C21.3361039,18.8505766 22.1115844,18.6818494 22.8978701,18.5388883 C23.7614545,18.3867844 24.625039,18.2529662 25.4952727,18.1266286 C26.4785455,18.0227325 27.4626494,17.9288104 28.4525714,17.8540052 C29.3976104,17.7725506 30.3517922,17.7368104 31.364987,17.7010701 L31.4589091,17.6985766 C31.7971948,17.6852779 32.1346494,17.6786286 32.4754286,17.6786286 C32.9949091,17.6786286 33.521039,17.6919273 34.0438442,17.7043948 L34.2998442,17.7143688 L34.5375584,17.7210182 C35.406961,17.7434597 36.2771948,17.8082909 37.1216623,17.912187 C38.2744935,18.094213 39.3940779,18.3568623 40.6316883,18.6527584 C41.9590649,18.980239 43.0894545,19.3276675 44.0893506,19.7108364 C44.9363117,20.1106286 45.6378182,20.477174 46.3160519,20.9575896 C46.4856104,21.1105247 46.6476883,21.2692779 46.7972987,21.4413299 C46.833039,21.4936935 46.8687792,21.5552 46.9036883,21.6333299 C47.1738182,22.461174 47.3034805,23.3704727 47.4206753,24.169226 C47.5012987,24.8250182 47.5661299,25.3835636 47.6085195,25.9446026 C47.6342857,26.3310961 47.6475844,26.7175896 47.6608831,27.1074078 C47.6667013,27.3509403 47.6733506,27.5878234 47.6866494,27.8213818 C47.7481558,29.1072 47.8296104,30.3930182 47.9202078,31.6755117 C47.9592727,32.2407065 47.9916883,32.8017455 48.0207792,33.3669403 C48.0565195,34.0360312 48.0955844,34.7076156 48.1512727,35.3767065 C48.2352208,36.3832519 48.3848312,37.4089143 48.5144935,38.3148883 L48.6607792,39.3505247 L48.7256104,39.8475636 L48.8037403,40.4160831 L48.8228571,40.5748364 L48.8394805,40.7078234 C48.9658182,41.6852779 49.083013,42.6037195 49.2450909,43.4997195 L49.0863377,43.5030442 C49.0988052,44.078213 49.0954805,44.5519792 49.073039,45.0066286 C49.2550649,44.9933299 49.4138182,44.964239 49.5758961,44.9318234 C49.7479481,45.7887584 49.9948052,46.7146805 50.2998442,47.6788364 C50.5076364,48.3146805 50.7486753,48.9156156 51.0146494,49.464187 C51.1251948,49.6819532 51.2448831,49.8997195 51.3778701,50.104187 C51.8424935,50.8248104 52.5016104,51.2403948 53.1864935,51.2403948 C53.8813506,51.2179532 54.4108052,50.8115117 54.9203117,50.4225247 L55.0408312,50.3310961 C55.1605195,50.2404987 55.2128831,50.2014338 55.2677403,50.1623688 L55.4564156,50.0260571 L55.5278961,49.9770182 C55.8520519,49.7467844 56.1537662,49.5290182 56.4820779,49.3511481 C56.5635325,49.3087584 56.6441558,49.2663688 56.7256104,49.2273039 C56.9525195,49.1433558 57.1769351,49.0685506 57.4171429,49.0228364 C57.5019221,49.0619013 57.521039,49.0843429 57.5434805,49.1076156 L57.6606753,49.2730182 L57.6897662,49.3769143 L57.7388052,49.5323429 C57.5434805,50.2629403 57.5534545,50.8863169 57.7712208,51.4290701 C57.8360519,51.6593039 57.9524156,51.8604468 58.1277922,52.0457974 C58.3912727,54.185226 58.4103896,56.2440312 58.1801558,58.1656935 C58.0762597,58.8115117 57.9332987,59.5712 57.6573506,60.2926545 C57.521039,60.5744208 57.3523117,60.8570182 57.1312208,61.1820052 C56.8394805,61.5261091 56.5011948,61.8510961 56.0955844,62.1719273 C55.7805714,62.4029922 55.2968312,62.7404468 54.7707013,63.0030961 C54.660987,63.0163948 54.6219221,63.0163948 54.5795325,63.0163948 L54.4980779,62.9025247 C54.3069091,62.6722909 54.0243117,62.5426286 53.7026494,62.5426286 C53.4848831,62.5426286 53.2745974,62.6008104 53.105039,62.7013818 C52.8457143,62.8509922 52.6512208,63.1103169 52.5764156,63.4128623 C52.5049351,63.7112519 52.5498182,64.0029922 52.7060779,64.2373818 C52.8166234,64.4160831 52.932987,64.6039273 53.0726234,64.7660052 C53.1316364,64.834161 53.3361039,65.065226 53.5206234,65.149174 C53.7674805,65.2630442 53.9461818,65.341174 54.1572987,65.3927065 C54.3326753,65.4417455 54.5504416,65.4675117 54.8197403,65.4675117 C55.497974,65.4517195 56.1088831,65.1815896 56.6183896,64.9222649 C57.1993766,64.6296935 57.7255065,64.2988883 58.2258701,63.9123948 C58.4494545,63.7403429 58.6638961,63.5549922 58.875013,63.3671481 C59.0861299,63.1751481 59.2615065,62.9449143 59.4402078,62.7080312 L59.5341299,62.5875117 C59.9239481,62.062213 60.1674805,61.4413299 60.3719481,60.8503688 C60.5664416,60.3017974 60.6379221,59.6950442 60.6961039,59.1173818 L60.7285195,58.8705247 C60.7875325,58.3477195 60.8199481,57.7958234 60.8290909,57.1400312 C60.8457143,55.854213 60.7933506,54.6041351 60.6703377,53.432187 C60.6055065,52.7955117 60.534026,52.1588364 60.4401039,51.5196675 C60.5049351,51.3575896 60.5307013,51.1946805 60.5149091,51.0550442 C60.5049351,51.0226286 60.5016104,50.9935377 60.5016104,50.9644468 C60.5307013,50.808187 60.5764156,50.6627325 60.6212987,50.5197714 L60.657039,50.4025766 C60.6836364,50.3244468 60.7094026,50.2471481 60.7285195,50.1690182 C60.7966753,49.9155117 60.8523636,49.6628364 60.9038961,49.4093299 C61.0343896,48.7177974 61.1574026,48.0420571 61.2031169,47.3472 C61.2646234,46.318213 61.2446753,45.3016935 61.2255584,44.3184208 L61.2189091,43.8637714 L61.2122597,43.5977974 C61.1997922,42.7633039 61.1831688,41.9936416 61.1407792,41.2406026 L61.1798442,41.1400312 C61.3161558,40.7859532 61.4557922,40.425226 61.5763117,40.0653299 L61.7350649,39.6040312 L61.7774545,39.4835117 C61.9004675,39.1269403 62.0243117,38.7695377 62.1282078,38.4121351 L62.2478961,38.0032 L62.651013,36.6267844 C62.7482597,36.3017974 62.8197403,35.9709922 62.8945455,35.6426805 L62.916987,35.5387844 L63.0275325,35.0392519 C63.2677403,34.0227325 63.4564156,32.9513558 63.5860779,31.8508883 L63.6376104,31.406213 C63.6866494,31.0197195 63.7356883,30.6299013 63.7614545,30.2434078 L63.7938701,29.7172779 L63.8296104,29.1853299 L63.8454026,28.9708883 C63.8587013,28.802161 63.872,28.6301091 63.8744935,28.4613818 L63.8844675,27.5130182 L63.8977662,26.562161 C63.9044156,26.0194078 63.872,25.4808104 63.8296104,24.8832 C63.7705974,23.9838753 63.6608831,23.1202909 63.5012987,22.318213 C63.3583377,21.5776416 63.1347532,20.8503688 62.916987,20.1463688 L62.7906494,19.7499013 C62.660987,19.3276675 62.5047273,18.9120831 62.3492987,18.4998234 L62.2578701,18.2629403 C61.7583377,16.932239 61.1574026,15.3929143 60.3844156,13.9874078 C59.780987,12.8894338 59.0271169,11.906161 58.368,11.0874597 L58.102026,10.7633039 C57.8584935,10.4607584 57.614961,10.1590442 57.358961,9.86397922 L57.1278961,9.59717403 C56.4787532,8.85078442 55.8063377,8.07447273 55.099013,7.35052468 C54.6767792,6.91582338 54.2454026,6.49358961 53.8032208,6.07800519 C53.4233766,5.7206026 53.0044675,5.4030961 52.5730909,5.08143377 L52.3752727,4.93182338 C51.6056104,4.35083636 50.7677922,3.77317403 49.654026,3.05836883 C48.6765714,2.42584935 47.6667013,1.91218701 46.6543377,1.53899221 L46.3817143,1.4350961 C46.1830649,1.36029091 45.9819221,1.28548571 45.7807792,1.21732987 C45.1540779,1.00039481 44.4691948,0.828342857 43.5532468,0.665433766 C42.7453506,0.529122078 42.1311169,0.464290909 41.5634286,0.454316883 C41.2251429,0.448498701 40.891013,0.445174026 40.5535584,0.441849351 L40.5502338,0.441849351 Z" id="Fill-29"></path>
            </g>
            <path d="M19.7133299,43.0664312 C19.4265766,43.1154701 19.1356675,43.1620156 18.8422649,43.1952623 C18.168187,43.4022234 17.4558753,43.5800935 16.7518753,43.5859117 C15.9763948,43.5958857 15.2167065,43.5601455 14.4470442,43.4462753 C13.7987325,43.3523532 13.1579013,43.2393143 12.5203948,43.0946909 C12.3757714,43.2135481 12.3117714,43.3473662 12.3141949,43.4820156 C12.3175896,43.5958857 12.3691221,43.7031065 12.4663688,43.7970286 C12.5478234,43.887626 12.6060052,43.9333403 12.6650182,43.9757299 C12.7265247,44.0081455 12.7880312,44.0372364 12.8495377,44.0663273 C12.9667325,44.1278338 13.0897455,44.1835221 13.2169143,44.222587 C13.3499013,44.2608208 13.4895377,44.2874182 13.629174,44.3098597 C13.9142649,44.3622234 14.1287065,44.3913143 14.3398234,44.4170805 C14.7296416,44.4627948 15.1552,44.4852364 15.6356156,44.4852364 C15.8367584,44.4852364 16.0379013,44.478587 16.2423688,44.4752623 L16.4110961,44.4918857 C16.5964468,44.5110026 16.7851221,44.5309506 16.9729662,44.5400935 C17.2164987,44.5467429 17.4666805,44.5533922 17.7135377,44.5600416 L17.853174,44.5633662 C18.2720831,44.5633662 18.7234078,44.5076779 19.2653299,44.3879896 C19.4731221,44.3456 19.6809143,44.3032104 19.8887065,44.2516779 C20.1355636,44.1901714 20.3500052,44.1344831 20.5278753,44.0147948 C20.5993558,43.9657558 20.6583688,43.9108987 20.6999273,43.8452364 C20.7389922,43.8227948 20.7780571,43.7937039 20.8171221,43.7579636 C20.9110442,43.6673662 20.9567584,43.5210805 20.9243429,43.4038857 C20.8786286,43.2285091 20.7065766,43.1537039 20.6093299,43.124613 C20.3790961,43.0473143 20.132239,43.0340156 19.8920312,43.0240416 C19.8338494,43.0406649 19.7748364,43.0531325 19.7133299,43.0664312" id="Fill-32"></path>
            <path d="M24.939387,73.1293922 C24.3741922,73.2848208 24.0209455,73.8924052 24.1830234,74.4609247 C24.3874909,75.1815481 24.816374,75.8498078 25.3416727,76.382587 C25.5403221,76.5804052 25.825413,76.7524571 26.0755948,76.8862753 C26.3224519,77.0192623 26.5851013,77.1131844 26.8485818,77.2104312 C27.1926857,77.3367688 27.5758545,77.3666909 27.9357506,77.4148987 C28.1468675,77.4406649 28.3579844,77.450639 28.5691013,77.4473143 C29.0885818,77.4406649 29.6338286,77.3600416 30.1341922,77.2104312 C30.9620364,76.963574 31.6568935,76.3568208 32.1863481,75.6943792 C32.3126857,75.5414442 32.4456727,75.3826909 32.5337766,75.2039896 C32.5853091,75.1000935 32.6501403,74.9637818 32.673413,74.8407688 C32.7540364,74.408561 32.673413,74.1068468 32.3974649,73.7718857 C32.1697247,73.4959377 31.6826597,73.3862234 31.3485299,73.512561 C31.0060883,73.640561 30.837361,73.8142753 30.645361,74.063626 C30.4616727,74.2822234 30.2588675,74.4858597 30.0419325,74.6703792 C29.877361,74.7817558 29.7061403,74.8790026 29.5282701,74.9671065 C29.3495688,75.0244571 29.1675429,75.0610286 28.9830234,75.0909506 C28.6572052,75.1241974 28.3388675,75.1241974 28.0138805,75.0951065 C27.755387,75.0493922 27.5085299,74.9828987 27.2600104,74.895626 C27.1037506,74.8216519 26.9524779,74.7393662 26.805361,74.6496 C26.6914909,74.5457039 26.5859325,74.4343273 26.485361,74.3163013 C26.4313351,74.2373403 26.3822961,74.1567169 26.3349195,74.0727688 C26.3133091,74.0112623 26.2925299,73.9489247 26.273413,73.8857558 C26.1379325,73.4111584 25.6990753,73.0903273 25.2228156,73.0903273 C25.1297247,73.0903273 25.0341403,73.1027948 24.939387,73.1293922" id="Fill-34"></path>
            <path d="M29.2263065,74.838774 C29.2046961,74.8487481 29.1822545,74.8578909 29.159813,74.8678649 C29.1822545,74.8578909 29.2046961,74.8479169 29.2263065,74.838774 M31.4289039,72.9910857 C31.217787,73.0658909 31.1886961,73.0983065 31.0133195,73.2379429 C30.9127481,73.3160727 30.8445922,73.4299429 30.7731117,73.533839 C30.7016312,73.6335792 30.6343065,73.7366442 30.562826,73.8363844 C30.4040727,74.0317091 30.2320208,74.2170597 30.0383584,74.3799688 C29.8031377,74.5462026 29.5521247,74.6899948 29.2894753,74.8105143 C29.0783584,74.8894753 28.8630857,74.9435013 28.6403325,74.9833974 C28.4857351,74.9958649 28.3352935,74.9975273 28.1798649,74.9858909 C27.8199688,74.9268779 27.4683844,74.8404364 27.1242805,74.7182545 C26.9971117,74.6584104 26.875761,74.5927481 26.7585662,74.5146182 C26.6812675,74.4448 26.6064623,74.3724883 26.535813,74.2960208 C26.4651636,74.0907221 26.4119688,73.8796052 26.3546182,73.6701506 C26.230774,73.218826 25.7536831,72.9462026 25.3023584,73.0725403 C24.8543584,73.1955532 24.5817351,73.6734753 24.7055792,74.1248 C24.7571117,74.3093195 24.8094753,74.4946701 24.8643325,74.6833455 C24.8900987,74.7672935 24.9191896,74.8553974 24.9549299,74.9360208 C25.0397091,75.1404883 25.0854234,75.2086442 25.2217351,75.3806961 C25.3090078,75.4945662 25.4095792,75.5951377 25.5101506,75.6957091 C25.8251636,76.0073974 26.2374234,76.221839 26.6563325,76.3648 C27.0203844,76.487813 27.4002286,76.546826 27.7800727,76.5883844 C27.9263584,76.6083325 28.0751377,76.6149818 28.2214234,76.6216312 C28.519813,76.6274494 28.8157091,76.5792416 29.1074494,76.5268779 C29.5005922,76.4587221 29.8671377,76.2999688 30.2278649,76.1437091 C30.4780468,76.0331636 30.7215792,75.8910338 30.941839,75.7314494 C31.1828779,75.5527481 31.4322286,75.3649039 31.6400208,75.1471377 C31.7854753,74.9950338 31.9192935,74.8396052 32.0481247,74.6775273 C32.0472935,74.6783584 32.0464623,74.6791896 32.0464623,74.6800208 C32.0921766,74.6226701 32.1395532,74.5653195 32.1852675,74.5071377 C32.3897351,74.3716571 32.5676052,74.1048519 32.5393455,73.8521766 C32.5268779,73.7574234 32.5235532,73.666826 32.5036052,73.5729039 C32.4487481,73.3127481 32.182774,73.0334753 31.9159688,72.987761 C31.8220468,72.9711377 31.7331117,72.9561766 31.6433455,72.9561766 C31.5735273,72.9561766 31.5037091,72.9653195 31.4289039,72.9910857" id="Fill-36"></path>
            <path d="M14.6224208,37.2292156 C14.5708883,37.2549818 14.5185247,37.2807481 14.4694857,37.3106701 C14.2941091,37.2840727 14.1095896,37.3464104 13.9599792,37.4727481 C13.8020571,37.6073974 13.6740571,37.7636571 13.5660052,37.9323844 C13.5684987,37.9315532 13.5709922,37.9307221 13.5734857,37.9307221 C14.3630961,37.7586701 15.1552,37.6871896 15.9439792,37.6871896 C16.2407065,37.6871896 16.5366026,37.6971636 16.8333299,37.7154494 C16.8083948,37.6871896 16.7834597,37.659761 16.7585247,37.6315013 C16.6288623,37.4860468 16.4410182,37.3588779 16.2656416,37.2716052 C16.0088104,37.147761 15.7328623,37.0829299 15.4502649,37.063813 C15.4112,37.0604883 15.3688104,37.0571636 15.3305766,37.0571636 C15.0837195,37.0571636 14.8468364,37.1153455 14.6224208,37.2292156" id="Fill-38"></path>
            <path d="M32.1325714,36.0425558 C31.982961,36.0616727 31.8532987,36.097413 31.7136623,36.1497766 C31.3795325,36.279439 31.1842078,36.4091013 30.9049351,36.6301922 C30.628987,36.8512831 30.4311688,37.1239065 30.2200519,37.4031792 C30.1651948,37.4738286 30.116987,37.5494649 30.0737662,37.6292571 C30.1934545,37.6051532 30.313974,37.5835429 30.4344935,37.5619325 C31.4992208,37.3799065 32.5805714,37.1920623 33.6652468,37.1430234 C33.9212468,37.1305558 34.1747532,37.1239065 34.4282597,37.1239065 C34.473974,37.1239065 34.5205195,37.1239065 34.5670649,37.1247377 C34.4772987,37.0100364 34.3867013,36.8986597 34.2919481,36.7889455 C34.0874805,36.5587117 33.824,36.3509195 33.5414026,36.2279065 C33.3402597,36.1364779 33.1972987,36.0716468 32.9928312,36.0392312 C32.8274286,36.0101403 32.7035844,35.9968416 32.5838961,35.9968416 C32.4509091,35.9968416 32.3212468,36.0134649 32.1325714,36.0425558" id="Fill-40"></path>
            <path d="M29.9016312,42.7973818 C30.2881247,43.3334857 30.8857351,43.6385247 31.5116052,43.817226 C31.7883844,43.8978494 32.0900987,43.940239 32.3785143,43.9435636 C32.5314494,43.9468883 32.7325922,43.901174 32.8888519,43.8587844 C33.0999688,43.8006026 33.3044364,43.6900571 33.4956052,43.5828364 C33.7640727,43.4323948 34.0109299,43.2096416 34.2137351,42.9760831 L34.0982026,42.9636156 C33.6792935,42.9536416 33.2620468,42.9245506 32.8431377,42.8688623 C31.7426701,42.7259013 30.6579948,42.5023169 29.5641766,42.3269403 C29.6713974,42.4890182 29.7944104,42.6477714 29.9016312,42.7973818" id="Fill-42"></path>
            <path d="M32.4702753,35.9081558 C32.2234182,35.9372468 31.9699117,35.972987 31.7330286,36.0444675 C31.5809247,36.0968312 31.4313143,36.164987 31.2850286,36.2298182 C31.119626,36.3012987 30.9508987,36.3752727 30.794639,36.4667013 C30.6259117,36.5639481 30.4605091,36.6645195 30.2984312,36.7717403 C30.0449247,36.9404675 29.7880935,37.1449351 29.583626,37.376 C29.4614442,37.5114805 29.3542234,37.6569351 29.2611325,37.8115325 C29.647626,37.7117922 30.0382753,37.6295065 30.4347429,37.5605195 C31.4994701,37.3793247 32.5808208,37.1906494 33.6646649,37.1416104 C33.9214961,37.1291429 34.1750026,37.1258182 34.4276779,37.1258182 C34.8773403,37.1258182 35.3245091,37.1441039 35.7708468,37.1848312 C35.7533922,37.1490909 35.7359377,37.1141818 35.7168208,37.0801039 C35.5447688,36.7717403 35.2821195,36.5739221 35.0028468,36.3727792 C34.7659636,36.2007273 34.4866909,36.0835325 34.1974442,36.0344935 C34.0453403,36.0087273 33.8924052,35.9896104 33.7394701,35.9696623 C33.4344312,35.9272727 33.1360416,35.8915325 32.8310026,35.8915325 C32.7104831,35.8915325 32.5907948,35.8948571 32.4702753,35.9081558" id="Fill-44"></path>
            <path d="M29.6549403,42.7190857 C29.6582649,42.7190857 29.6615896,42.7224104 29.6649143,42.7257351 L29.6940052,42.7648 C29.6807065,42.7481766 29.668239,42.7323844 29.6549403,42.7190857 M29.5934338,42.6409558 C29.7363948,42.8296312 29.8693818,42.9784104 30.0804987,43.1155532 C30.1353558,43.153787 30.1935377,43.1837091 30.2558753,43.2094753 C30.5708883,43.4397091 30.9050182,43.6150857 31.2748883,43.7580468 C31.5832519,43.8810597 31.918213,43.8943584 32.2456935,43.9201247 C32.5249662,43.9400727 32.8366545,43.9691636 33.1092779,43.9010078 C33.5863688,43.783813 34.0185766,43.5793455 34.424187,43.3067221 C34.5488623,43.2236052 34.6668883,43.1305143 34.7766026,43.0316052 C34.5397195,43.0116571 34.3020052,42.9883844 34.0659532,42.961787 C33.6578494,42.9526442 33.2505766,42.9235532 32.8433039,42.8686961 C31.6547325,42.7124364 30.4794597,42.4655792 29.2917195,42.2810597 C29.3856416,42.4073974 29.4928623,42.5212675 29.5934338,42.6409558" id="Fill-46"></path>
            <path d="M15.2977455,36.6991792 C15.0384208,36.7216208 14.7782649,36.7606857 14.5280831,36.8354909 C14.2779013,36.9102961 14.0410182,37.0141922 13.8041351,37.1147636 C13.6969143,37.1638026 13.5930182,37.2086857 13.4891221,37.2610494 C13.2455896,37.3840623 13.0153558,37.5818805 12.8175377,37.7738805 C12.686213,37.8977247 12.5723429,38.0381922 12.4601351,38.1803221 C12.829174,38.0880623 13.2023688,38.0107636 13.5739013,37.9293091 C14.3626805,37.7572571 15.1547844,37.6857766 15.9435636,37.6857766 C16.6434078,37.6857766 17.3424208,37.7414649 18.0422649,37.8337247 C17.944187,37.7032312 17.8328104,37.5802182 17.7197714,37.4655169 C17.4471481,37.1829195 17.0706286,37.0008935 16.7099013,36.8679065 C16.3657974,36.7415688 15.9926026,36.6825558 15.6194078,36.6825558 C15.512187,36.6825558 15.4049662,36.6892052 15.2977455,36.6991792" id="Fill-48"></path>
            <path d="M12.4211532,43.4459429 C12.8658286,43.815813 13.4210494,44.1474494 14.0253091,43.9363325 C14.0477506,43.9296831 14.0701922,43.9197091 14.0901403,43.9105662 C14.320374,44.0269299 14.5639065,44.1117091 14.8107636,44.1698909 C15.1091532,44.2413714 15.3851013,44.2413714 15.6843221,44.1956571 C15.8430753,44.1732156 15.9926857,44.1374753 16.1447896,44.0950857 C16.2786078,44.0593455 16.4049455,44.0011636 16.5312831,43.9488 C16.7232831,43.8648519 16.885361,43.7351896 17.0441143,43.6013714 C17.057413,43.5913974 17.0698805,43.5814234 17.0823481,43.5706182 C16.9726338,43.579761 16.8620883,43.5847481 16.752374,43.5855792 C15.9760623,43.5955532 15.216374,43.559813 14.4475429,43.4459429 C13.729413,43.3420468 13.0220883,43.2157091 12.3172571,43.0469818 C12.203387,43.0170597 12.0878545,42.9888 11.9723221,42.9605403 C12.0969974,43.1433974 12.2515948,43.3079688 12.4211532,43.4459429" id="Fill-50"></path>
            <path d="M11.3529351,42.812426 C11.2132987,42.8157506 11.0246234,42.8972052 10.9631169,43.0301922 C10.9273766,43.1016727 10.8824935,43.1789714 10.8916364,43.2637506 C10.8982857,43.3127896 10.9049351,43.3609974 10.9115844,43.413361 C10.9240519,43.5072831 11.0121558,43.6012052 11.0902857,43.6469195 C11.1418182,43.6793351 11.2,43.6951273 11.2623377,43.6984519 C11.3014026,43.7408416 11.342961,43.7799065 11.382026,43.8189714 C11.5540779,43.9876987 11.7942857,44.0492052 12.0153766,44.1240104 C12.2231688,44.1921662 12.420987,44.2603221 12.6354286,44.3027117 C13.0443636,44.3899844 13.4699221,44.4423481 13.8855065,44.4880623 C14.7133506,44.5786597 15.5411948,44.604426 16.3723636,44.6276987 C16.7912727,44.6401662 17.2168312,44.6144 17.6290909,44.5720104 C17.8493506,44.5495688 18.0704416,44.5238026 18.2915325,44.491387 C18.4993247,44.4614649 18.7004675,44.4199065 18.9082597,44.3808416 C19.1775584,44.3251532 19.4701299,44.2736208 19.6189091,44.0043221 C19.7651948,43.7341922 19.6937143,43.3742961 19.4144416,43.221361 C19.3038961,43.1598545 19.1775584,43.1207896 19.0512208,43.1307636 C19.0487273,43.1307636 19.0470649,43.1307636 19.0445714,43.1315948 C18.3114805,43.3634909 17.5268571,43.5787636 16.7522078,43.585413 C16.6807273,43.5862442 16.6084156,43.5862442 16.5369351,43.5862442 C16.502026,43.5879065 16.4662857,43.5887377 16.4305455,43.5887377 C16.2327273,43.5945558 16.0349091,43.5978805 15.8337662,43.5978805 L15.8271169,43.5912312 C15.8196364,43.5845818 15.8121558,43.5779325 15.8038442,43.5721143 C15.3516883,43.5521662 14.9011948,43.5122701 14.4473766,43.4457766 C13.7292468,43.3418805 13.0219221,43.2147117 12.3170909,43.0459844 C12.1292468,42.9977766 11.9372468,42.9520623 11.7494026,42.9030234 C11.6513247,42.8780883 11.5457662,42.8481662 11.4385455,42.812426 C11.4260779,42.812426 11.4136104,42.812426 11.401974,42.812426 L11.3529351,42.812426 Z" id="Fill-52"></path>
            <path d="M32.3886545,42.8859013 C32.450161,42.9798234 32.5058494,43.0745766 32.5706805,43.165174 C32.6679273,43.3014857 32.7684987,43.3987325 32.9048104,43.4926545 C33.1774338,43.6713558 33.5123948,43.7561351 33.8299013,43.8018494 C33.9894857,43.8242909 34.1324468,43.8434078 34.2878753,43.8342649 C34.4374857,43.8276156 34.5870961,43.7985247 34.7358753,43.7752519 C35.0151481,43.7336935 35.2786286,43.6322909 35.5313039,43.5159273 C35.6418494,43.4635636 35.7357714,43.3887584 35.8305247,43.3181091 C35.9261091,43.2441351 36.0117195,43.1751481 36.093174,43.096187 C35.6742649,43.0920312 35.2553558,43.0679273 34.8397714,43.0355117 C33.9820052,42.9665247 33.1283948,42.8509922 32.2772779,42.712187 C32.3138494,42.7712 32.3512519,42.830213 32.3886545,42.8859013" id="Fill-54"></path>
            <path d="M33.8103688,42.204426 C33.8178494,42.2102442 33.826161,42.2160623 33.8336416,42.2218805 C33.8253299,42.2168935 33.8178494,42.2102442 33.8103688,42.204426 C33.8103688,42.204426 33.8103688,42.204426 33.8103688,42.204426 M33.7197714,42.1055169 C33.7297455,42.1179844 33.7388883,42.1296208 33.7480312,42.1420883 C33.7388883,42.1304519 33.7289143,42.1179844 33.7197714,42.1055169 M34.4204468,41.9833351 C34.4137974,41.9891532 34.4071481,41.9949714 34.3996675,41.9999584 C34.3705766,42.0240623 34.3406545,42.0473351 34.3107325,42.0697766 C34.3473039,42.0406857 34.3838753,42.012426 34.4204468,41.9833351 M33.6956675,41.3707636 C33.6890182,41.3765818 33.6815377,41.3824 33.6740571,41.3882182 C33.6815377,41.3824 33.6890182,41.3765818 33.6956675,41.3707636 M33.8436156,41.2843221 C33.8344727,41.2876468 33.826161,41.2918026 33.8170182,41.2959584 C33.826161,41.2918026 33.8344727,41.2876468 33.8436156,41.2843221 M34.5459532,41.2244779 C34.5534338,41.2261403 34.5600831,41.2278026 34.5683948,41.2302961 C34.6016416,41.2485818 34.6340571,41.2676987 34.6656416,41.2876468 C34.6939013,41.3142442 34.722161,41.3416727 34.7495896,41.3699325 C34.7595636,41.3865558 34.7695377,41.4040104 34.7795117,41.4206338 C34.7919792,41.4646857 34.8036156,41.5087377 34.8144208,41.5527896 C34.8144208,41.5602701 34.8144208,41.5669195 34.8152519,41.5744 C34.8011221,41.5985039 34.786161,41.6226078 34.7703688,41.6458805 C34.6697974,41.7639065 34.5575896,41.8686338 34.4379013,41.9692052 C34.3547844,42.0290494 34.2716675,42.0805818 34.1843948,42.1279584 C34.1195636,42.1512312 34.0530701,42.1695169 33.9857455,42.1836468 C33.9383688,42.1853091 33.8918234,42.1853091 33.8444468,42.1828156 C33.8294857,42.1794909 33.816187,42.1761662 33.8020571,42.1720104 C33.7846026,42.1021922 33.7704727,42.0315429 33.757174,41.9608935 C33.7380571,41.7855169 33.7305766,41.6118026 33.7430442,41.4339325 C33.752187,41.3965299 33.762161,41.3591273 33.7737974,41.3217247 C33.7746286,41.3217247 33.7746286,41.3208935 33.7754597,41.3200623 C33.8909922,41.2818286 34.008187,41.2544 34.1287065,41.2336208 C34.269174,41.2211532 34.4063169,41.2161662 34.5459532,41.2244779 M34.4603429,38.3519584 C34.2292779,38.3586078 33.9990442,38.4043221 33.7721351,38.443387 C33.5344208,38.4816208 33.2908883,38.5240104 33.0673039,38.6121143 C32.6774857,38.7675429 32.3109403,38.9628675 32.0283429,39.2778805 C31.4988883,39.8588675 31.3077195,40.6476468 31.4049662,41.4173091 C31.4631481,41.8719584 31.5603948,42.3099844 31.817226,42.6998026 C31.9344208,42.8785039 32.1097974,43.0206338 32.265226,43.1635948 C32.408187,43.2965818 32.5577974,43.4237506 32.7032519,43.553413 C32.782213,43.6215688 32.8744727,43.6672831 32.969226,43.6864 C33.0631481,43.7686857 33.1653818,43.8393351 33.2784208,43.8975169 C33.4080831,43.9623481 33.5443948,44.0147117 33.6773818,44.0662442 C33.8918234,44.1476987 34.1553039,44.1701403 34.382213,44.1867636 C34.7878234,44.2092052 35.1942649,44.2025558 35.5965506,44.1767896 C35.9797195,44.1510234 36.3462649,44.0504519 36.6745766,43.8518026 C36.9147844,43.7063481 37.1092779,43.4852571 37.272187,43.2583481 C37.4409143,43.0181403 37.5506286,42.7513351 37.6063169,42.4629195 C37.6545247,42.2127377 37.6578494,41.9559065 37.6420571,41.6999065 C37.6096416,41.2519065 37.518213,40.8097247 37.3428364,40.3908156 C37.1840831,40.0109714 37.0020571,39.6186597 36.7552,39.2836987 C36.5831481,39.0468156 36.3886545,38.8265558 36.1193558,38.689413 C35.9506286,38.6021403 35.7652779,38.5306597 35.5799273,38.4791273 C35.2566026,38.3926857 34.9274597,38.3502961 34.594161,38.3502961 C34.5492779,38.3502961 34.5043948,38.3502961 34.4603429,38.3519584" id="Fill-56"></path>
            <path d="M14.6200104,42.6374649 C14.6424519,42.6399584 14.6648935,42.6441143 14.6881662,42.647439 C14.6640623,42.6457766 14.6416208,42.6424519 14.6191792,42.6374649 L14.6200104,42.6374649 Z M14.6150234,42.6366338 C14.6158545,42.6366338 14.6175169,42.6374649 14.6191792,42.6374649 C14.6191792,42.6374649 14.6183481,42.6374649 14.6183481,42.6374649 C14.6175169,42.6374649 14.6158545,42.6374649 14.6150234,42.6366338 L14.6150234,42.6366338 Z M14.583439,42.6349714 C14.6025558,42.6432831 14.6208416,42.6515948 14.6391273,42.6607377 C14.6208416,42.6532571 14.6017247,42.6449455 14.583439,42.6349714 L14.583439,42.6349714 Z M14.7463481,42.6183481 C14.7230753,42.6233351 14.6981403,42.6274909 14.6732052,42.6291532 C14.6981403,42.6258286 14.7222442,42.6216727 14.7463481,42.6183481 L14.7463481,42.6183481 Z M14.480374,42.5368935 C14.4861922,42.5435429 14.4911792,42.5510234 14.4969974,42.5576727 C14.4911792,42.5510234 14.4861922,42.544374 14.480374,42.5368935 L14.480374,42.5368935 Z M15.061361,42.4820364 C15.0239584,42.4978286 14.9865558,42.5136208 14.9491532,42.5277506 C14.9848935,42.5127896 15.0231273,42.4986597 15.061361,42.4820364 L15.061361,42.4820364 Z M15.4220883,41.7289974 C15.425413,41.7373091 15.4287377,41.7456208 15.4320623,41.7547636 L15.4220883,41.7289974 Z M15.2891013,41.5827117 C15.3048935,41.5951792 15.3198545,41.6076468 15.3348156,41.6192831 C15.3198545,41.6076468 15.3040623,41.5951792 15.2891013,41.5827117 L15.2891013,41.5827117 Z M15.3281662,41.5827117 C15.3456208,41.6026597 15.3622442,41.6242701 15.376374,41.6458805 C15.3605818,41.6242701 15.3439584,41.6026597 15.3281662,41.5827117 L15.3281662,41.5827117 Z M14.9408416,41.495439 C15.0347636,41.5137247 15.1261922,41.5378286 15.2192831,41.5685818 C15.2716468,41.5935169 15.3223481,41.6201143 15.3722182,41.6516987 L15.3921662,41.6699844 C15.3946597,41.6741403 15.3971532,41.6782961 15.3988156,41.6824519 C15.4187636,41.7414649 15.435387,41.7979844 15.4486857,41.8578286 C15.4545039,41.9276468 15.4553351,41.9949714 15.4503481,42.0639584 C15.4478545,42.0731013 15.445361,42.0830753 15.4428675,42.0938805 C15.4220883,42.1312831 15.4004779,42.1686857 15.3772052,42.204426 C15.3273351,42.2592831 15.2749714,42.3091532 15.2201143,42.3590234 C15.1286857,42.4238545 15.036426,42.4828675 14.9366857,42.5327377 C14.8402701,42.5709714 14.7421922,42.6050494 14.6391273,42.6316468 C14.6249974,42.6324779 14.6100364,42.6324779 14.5959065,42.6324779 C14.5842701,42.6291532 14.5726338,42.6258286 14.5618286,42.6216727 C14.5585039,42.6200104 14.5551792,42.6191792 14.5526857,42.6175169 C14.5410494,42.6067117 14.5310753,42.5967377 14.5211013,42.5859325 C14.4861922,42.5360623 14.4546078,42.485361 14.4288416,42.4296727 C14.3939325,42.3656727 14.3399065,42.327439 14.2800623,42.3099844 C14.2651013,42.2484779 14.2518026,42.1861403 14.2393351,42.1229714 C14.2268675,41.9708675 14.2268675,41.8187636 14.2393351,41.6649974 C14.2451532,41.6342442 14.2518026,41.6043221 14.2592831,41.5752312 C14.3764779,41.5394909 14.4936727,41.5145558 14.613361,41.4962701 C14.7230753,41.4896208 14.8311273,41.4896208 14.9408416,41.495439 L14.9408416,41.495439 Z M14.4546078,39.0077506 C14.1329455,39.0925299 13.8212571,39.1997506 13.5261922,39.3585039 C13.2760104,39.4914909 13.0515948,39.6801662 12.8313351,39.8588675 C12.7565299,39.9170494 12.6850494,39.9785558 12.6168935,40.0400623 C12.4215688,40.2096208 12.2761143,40.4755948 12.1913351,40.7191273 C12.0159584,41.2352831 12.0616727,41.7738805 12.1398026,42.3066597 C12.1780364,42.6025558 12.2985558,42.8785039 12.4190753,43.1511273 C12.5321143,43.3946597 12.7432312,43.563387 12.9543481,43.7188156 C13.1330494,43.8518026 13.3184,43.9756468 13.5029195,44.1019844 C13.7057247,44.2416208 13.9667117,44.2358026 14.1844779,44.1352312 C14.3016727,44.1950753 14.4263481,44.2424519 14.5452052,44.2806857 C14.7820883,44.3588156 15.0455688,44.3746078 15.2949195,44.3912312 C15.5550753,44.4103481 15.8343481,44.3554909 16.0878545,44.2973091 C16.2989714,44.2482701 16.4967896,44.1543481 16.6912831,44.0695688 C16.779387,44.0305039 16.8566857,43.9756468 16.9348156,43.9199584 C17.0644779,43.8260364 17.1949714,43.7287896 17.3113351,43.6182442 C17.6105558,43.3356468 17.8374649,42.9882182 17.9380364,42.5892571 C18.0618805,42.0855688 18.0128416,41.569413 17.8698805,41.0765299 C17.7560104,40.673413 17.5906078,40.3101922 17.3213091,39.9885299 C17.1916468,39.8389195 17.0486857,39.7059325 16.8957506,39.5762701 C16.6912831,39.4008935 16.4768416,39.2288416 16.2299844,39.1116468 C15.9158026,38.9636987 15.5849974,38.9005299 15.2508675,38.9005299 C14.9848935,38.9005299 14.7172571,38.940426 14.4546078,39.0077506 L14.4546078,39.0077506 Z" id="Fill-58"></path>
            <path d="M15.5388675,42.2588675 L15.5388675,42.2588675 C15.5388675,42.2588675 15.5380364,42.2588675 15.5380364,42.2596987 C15.5380364,42.2588675 15.5388675,42.2588675 15.5388675,42.2588675 M15.5646338,42.2405818 C15.5563221,42.2472312 15.5471792,42.2530494 15.5388675,42.2588675 C15.5471792,42.2522182 15.5563221,42.2464 15.5646338,42.2405818 M15.5646338,42.1981922 C15.5579844,42.2156468 15.5513351,42.2306078 15.5430234,42.2455688 C15.5505039,42.2297766 15.5571532,42.2148156 15.5646338,42.1981922 M15.5480104,42.1907117 C15.5480104,42.192374 15.5480104,42.1940364 15.5480104,42.1956987 C15.5480104,42.1940364 15.5480104,42.192374 15.5480104,42.1907117 M14.7700364,42.0527377 C14.7700364,42.0527377 14.7700364,42.0535688 14.7708675,42.0535688 C14.7708675,42.0568935 14.7708675,42.059387 14.7716987,42.0627117 C14.7708675,42.059387 14.7708675,42.0560623 14.7700364,42.0527377 M15.5288935,42.0294649 C15.5297247,42.0402701 15.531387,42.0502442 15.5322182,42.0602182 C15.5305558,42.0502442 15.5297247,42.0402701 15.5288935,42.0294649 M14.7658805,42.0145039 L14.7692052,42.0460883 C14.7692052,42.0460883 14.7692052,42.0452571 14.7692052,42.0452571 C14.7675429,42.0344519 14.7667117,42.0244779 14.7658805,42.0145039 M14.7758545,41.8316468 C14.773361,41.8432831 14.7716987,41.8540883 14.7700364,41.8648935 C14.7716987,41.8540883 14.773361,41.8432831 14.7758545,41.8316468 M14.8938805,41.6787117 C14.8755948,41.7036468 14.8564779,41.7269195 14.837361,41.7501922 C14.8548156,41.7260883 14.8739325,41.7019844 14.8938805,41.6787117 M14.6586597,40.5100883 C14.4309195,40.6397506 14.2264519,40.7727377 14.0544,40.971387 C13.9737766,41.0619844 13.9089455,41.1692052 13.8432831,41.276426 C13.8175169,41.3246338 13.788426,41.3769974 13.7659844,41.4285299 C13.7235948,41.5099844 13.6878545,41.5947636 13.6521143,41.6820364 C13.6296727,41.8116987 13.6097247,41.9355429 13.6097247,42.0685299 C13.6130494,42.1981922 13.6329974,42.3311792 13.6687377,42.4550234 C13.6945039,42.5389714 13.7335688,42.6237506 13.7784519,42.6985558 C13.8499325,42.8182442 13.9446857,42.8996987 14.0544,42.9811532 C14.1749195,43.0750753 14.3245299,43.1266078 14.4699844,43.1689974 C14.7135169,43.2404779 14.9736727,43.260426 15.2238545,43.2180364 C15.6876468,43.1399065 16.1032312,42.7991273 16.2752831,42.3635948 C16.4024519,42.0427636 16.3991273,41.6695688 16.2038026,41.3736727 C16.0674909,41.1725299 15.8081662,41.084426 15.5870753,41.2149195 C15.3792831,41.3346078 15.2978286,41.6205299 15.4283221,41.8283221 C15.4565818,41.8781922 15.4840104,41.9297247 15.5081143,41.9820883 C15.5197506,42.0219844 15.5288935,42.0618805 15.536374,42.103439 C15.5388675,42.1491532 15.5396987,42.1940364 15.5388675,42.2405818 C15.5380364,42.2439065 15.5372052,42.2488935 15.536374,42.2530494 L15.5131013,42.2763221 C15.5022961,42.2829714 15.4906597,42.2904519 15.4790234,42.2962701 C15.4640623,42.300426 15.4499325,42.3045818 15.4349714,42.3079065 C15.3776208,42.3104 15.3202701,42.3087377 15.2620883,42.305413 C15.1814649,42.2862961 15.1041662,42.2596987 15.0268675,42.2306078 C14.9504,42.1857247 14.8739325,42.1400104 14.7999584,42.0901403 C14.7949714,42.0859844 14.7908156,42.0826597 14.7866597,42.0776727 C14.7866597,42.0776727 14.7858286,42.0768416 14.7858286,42.0768416 C14.7766857,42.0460883 14.7692052,42.0153351 14.763387,41.9829195 C14.763387,41.9737766 14.7625558,41.9646338 14.7625558,41.9546597 C14.7716987,41.931387 14.7800104,41.9089455 14.7891532,41.8856727 C14.8257247,41.808374 14.8647896,41.7360623 14.9080104,41.6629195 C14.9271273,41.6421403 14.9470753,41.6221922 14.9670234,41.6030753 C15.0459844,41.5507117 15.127439,41.5025039 15.2105558,41.4551273 C15.4698805,41.3088416 15.5579844,40.961413 15.408374,40.7079065 C15.3069714,40.5325299 15.1224519,40.4386078 14.9337766,40.4386078 C14.8398545,40.4386078 14.7451013,40.4618805 14.6586597,40.5100883" id="Fill-60"></path>
            <path d="M33.7888416,41.3745039 C33.7863481,41.3902961 33.7846857,41.4052571 33.7821922,41.4210494 C33.7838545,41.4052571 33.7863481,41.3902961 33.7888416,41.3745039 M33.7431273,40.1643221 C33.525361,40.2715429 33.2984519,40.375439 33.1097766,40.5341922 C32.9543481,40.6671792 32.8728935,40.8425558 32.8180364,41.0378805 C32.7590234,41.2456727 32.7332571,41.4759065 32.7556987,41.6903481 C32.7881143,42.0020364 32.9277506,42.2971013 33.1779325,42.4957506 C33.259387,42.5605818 33.3341922,42.6220883 33.4281143,42.6678026 C33.5478026,42.7326338 33.6816208,42.768374 33.8179325,42.7750234 C33.9185039,42.7775169 34.0190753,42.7584 34.1163221,42.7392831 C34.337413,42.6902442 34.4961662,42.4600104 34.4961662,42.2389195 C34.4961662,42.0145039 34.3540364,41.8308156 34.1512312,41.7518545 C34.0755948,41.7061403 34.0082701,41.6504519 33.9309714,41.6022442 C33.889413,41.5781403 33.8461922,41.5540364 33.8046338,41.5282701 L33.8038026,41.5282701 C33.8004779,41.5158026 33.7979844,41.5041662 33.7946597,41.4916987 C33.7929974,41.4318545 33.7938286,41.3736727 33.7988156,41.3146597 C33.8038026,41.2880623 33.8096208,41.2622961 33.8162701,41.2356987 C33.8212571,41.2307117 33.8262442,41.2257247 33.8320623,41.2215688 C33.9592312,41.1359584 34.0922182,41.0644779 34.2301922,40.9954909 C34.4637506,40.8782961 34.5252571,40.5508156 34.4022442,40.336374 C34.3099844,40.1801143 34.1562182,40.1061403 33.9941403,40.1061403 C33.9101922,40.1061403 33.8237506,40.1260883 33.7431273,40.1643221" id="Fill-62"></path>
        </g>
    </g>
</svg>