<svg width="500" height="600" xmlns="http://www.w3.org/2000/svg"><g fill="none" fill-rule="evenodd"><g fill="#161616"><path d="M266.156 203.814v.004l.003-.004h-.003zm-8.164-63.767l-1.72.068c-.342.014-.687.046-1.027.069l-1.779.123c-.296.02-.591.065-.887.104-.62.074-1.243.152-1.863.23a14.49 14.49 0 00-.815.124c-1.075.2-2.15.406-3.224.607-.267.052-.53.13-.792.195-.633.16-1.267.318-1.903.473-.413.104-.825.208-1.237.31-.571.142-1.136.314-1.702.477a.528.528 0 00-.366.642c.075.273.37.442.642.364.543-.156 1.082-.321 1.63-.458l1.085-.266c.886-.22 1.77-.438 2.655-.659.507-.124 1.024-.202 1.536-.299.744-.136 1.486-.27 2.229-.41.932-.114 1.866-.22 2.8-.33.338-.042.68-.045 1.017-.068l1.776-.107c.331-.02.662-.023.99-.03l1.62-.045c.423-.013.847.016 1.27.023.386.01.776.003 1.162.035.46.043.921.086 1.383.126l.825.14c.27.046.535.12.802.186.503.126.997.301 1.494.464.334.107.704-.124.795-.454.097-.354-.117-.685-.451-.8a14.264 14.264 0 00-2.524-.61c-.23-.032-.46-.068-.694-.1-.243-.033-.49-.042-.737-.062-.409-.03-.821-.075-1.234-.075-.597-.003-1.191-.006-1.786-.012a24.2 24.2 0 00-.97.025m-.327 8.825c.076-.024.152-.047.23-.069l-.01-.025a.244.244 0 01-.007-.044.826.826 0 00-.213.138m12.301.016c.01.003.019.006.029.013l.016.01a.949.949 0 01.09-.084l-.031-.025a.848.848 0 01-.104.086m-2.539.055h.058l.107-.01zm-6.325.714l-.049.014.062-.01c.042-.007.084-.014.13-.02l-.143.016m-2.864 1.285a.683.683 0 00.24-.056l-.24.056m-10.061-1.362c-.043.032-.085.06-.13.093-.12.108-.231.221-.337.339l-.027.035a5.185 5.185 0 01-.09.444 1.128 1.128 0 00.766-.532.596.596 0 00.23-.325.555.555 0 00-.014-.354c-.131.107-.272.205-.398.3m1.286 18.336c-.48.326-.968.65-1.48.928-.013.094-.028.187-.042.28l-.03.192-.016.11c-.075.5-.149.994-.256 1.48-.146.679-.296 1.355-.455 2.03-.046.182-.091.36-.14.542l-.097.386a4.635 4.635 0 00-.127.692 1.2 1.2 0 00.068.552c.056.188.147.347.286.487.172.136.293.234.432.302.951.474 2.046.539 2.993.539.27 0 .54-.004.806-.01l.107-.004.594-.012.595-.013c.382-.007.772-.059 1.12-.104l.11-.013.085-.013.194-.026a1.36 1.36 0 00.594-.335c.24-.247.377-.58.377-.915 0-.688-.581-1.292-1.244-1.292a26.86 26.86 0 00-1.795.15c-.74.08-1.478.158-2.198.158a7.95 7.95 0 01-.877-.042l-.113-.01.032-.172.016-.185.098-1.036c.03-.337.068-.675.106-1.01.053-.45.102-.863.134-1.282.016-.198.03-.396.038-.594.01-.166.024-.331.036-.496.023-.306.06-.611.092-.916l.025-.215.024-.196c-.031.02-.061.042-.092.063m-14.64-11.506c.1-.339.218-.669.361-.986-.291.226-.415.623-.361.986"/><path d="M248.175 149.581c-.042.03-.085.062-.126.09-.12.111-.235.222-.341.342-.007.01-.017.023-.023.035a6.714 6.714 0 01-.074.36l.016.115c.11.756.223 1.512.334 2.272.097.783.192 1.565.247 2.357.049.77.032 1.536-.014 2.306-.094 1.58-.165 3.162-.305 4.743-.1.653-.227 1.295-.376 1.942-.152.668-.351 1.33-.462 2.012a174.6 174.6 0 01-.382 2.254c-.13.744-.209 1.497-.293 2.246-.09.624-.21 1.238-.282 1.861a5.276 5.276 0 00-.03.85c.02.365.098.666.258.991.09.182.213.328.34.49.354.455.919.637 1.467.73.962.17 1.926.218 2.894.108a37.46 37.46 0 002.808-.452c.432-.084.733-.545.733-.964 0-.506-.457-1.049-1-.996l-1.587.146c-.318.029-.636.055-.954.077a9.707 9.707 0 01-1.851-.065 7.045 7.045 0 01-.445-.08c.114-.387.253-.767.37-1.15.189-.62.322-1.246.458-1.877.282-1.301.425-2.626.597-3.95.205-1.358.438-2.712.523-4.089.04-.597.013-1.207-.01-1.805a572.82 572.82 0 01-.075-2.068c-.019-.6-.044-1.2-.068-1.802-.025-.708-.107-1.409-.182-2.113-.155-1.52-.428-3.033-.656-4.543-.038-.256-.275-.51-.49-.636a1.057 1.057 0 00-.497-.145c-.161.152-.354.282-.522.408m-5.215 11.539"/><path d="M266.456 114.831c-.36 0-.72.032-1.078.065l-.217.016a71.37 71.37 0 00-2.523.253 39.26 39.26 0 00-4.85.91c-.653.165-1.341.373-2.17.652l-.214.071c-.483.16-.97.325-1.44.52l-1.864.78-.468.187c-.348.14-.695.28-1.026.442l-.608.289c-.775.373-1.548.744-2.314 1.14l-1.87.964c-.302.153-.595.331-.883.507l-.306.184c-.32.186-.64.37-.95.559l-.134.075c-.097.055-.195.107-.283.168l-.824.559-.825.562a55.085 55.085 0 00-2.13 1.541l-.666.494c-.645.477-1.282.971-1.918 1.465l-.487.376c-.831.643-1.637 1.344-2.413 2.023l-.392.341c-.777.678-1.49 1.399-2.328 2.27l-.436.457c-.415.441-.834.883-1.272 1.305a26.807 26.807 0 01-1.812 1.578 14.46 14.46 0 01-.386.26c-.13.088-.26.172-.386.263-.157.107-.302.22-.445.341-.257.214-.37.503-.478.785-.094.234-.065.689 0 .91.032.11.071.214.117.318.225.539.441 1.123.702 1.886.223.656.448 1.312.649 1.97.2.667.364 1.326.49 2.02.1.958.097 1.981-.013 3.05-.087.47-.217 1.087-.441 1.672a16.026 16.026 0 01-.88 1.72l-.137.221-.133.224c-.146.243-.253.5-.337.717a1.294 1.294 0 00-.033.718c.048.191.162.438.308.559.156.123.293.223.47.308.115.055.239.1.355.143.815.363 1.562.815 2.286 1.25l.22.133c.277.169.553.33.842.47.308.147.642.247.964.348l.1.03c.189.057.374.1.568.129-.009.101-.005.21-.003.321.007.27.03.54.052.806.023.237.04.448.052.659l.007.107c.023.5.042.961 0 1.416l-.02.22c-.165.958-.393 1.848-.681 2.89-.267.952-.553 2.078-.672 3.26l-.046.399-.023.24c-.035.325-.064.633-.09.948-.027.312-.043.624-.06.935l-.032.588a100.076 100.076 0 00-.158 3.331c-.014.48-.02.968-.027 1.448-.006.422.01.806.03 1.192l.019.438c.04.932.13 1.88.221 2.795l.013.15.013.123.013.114c.263 2.59.624 4.665 1.133 6.526.114.402.24.799.373 1.194.078.228.169.448.26.67l.039.097.166.403c.36.9.73 1.789 1.11 2.678a.345.345 0 00-.02-.155c.257.707.692 1.77 1.225 2.84a33.095 33.095 0 001.555 2.796c.656 1.081 1.33 1.98 2.061 2.76.552.58 1.179 1.12 1.73 1.593l.072.062.555.481c1.072.925 1.906 1.561 2.705 2.058.747.474 1.546.831 2.318 1.175l.5.228.413.191.097.046c.863.399 1.708.785 2.555 1.11.238.098.478.182.718.27l.165.058.094.032.54.196c.431.162.867.324 1.311.457 1.098.328 2.25.386 3.436.419.52.016 1.035.026 1.551.032l.14.003c.7 0 1.38-.074 2.016-.22a9.02 9.02 0 001.464-.49c.62-.254 1.156-.591 1.601-.89.705-.464 1.376-.994 2.029-1.506l.143-.111.54-.425.252-.198c.342-.266.686-.536 1.006-.828.394-.363.757-.743 1.095-1.1l.149-.163c.413-.448.799-.863 1.127-1.302.237-.315.461-.636.691-.958l.137-.198.09-.133 1.01-1.413.354-.506.562-.792a31.29 31.29 0 001.256-1.974l.407-.669c.405-.659.77-1.257 1.093-1.902.192-.384.358-.78.517-1.18.198-.47.263-.912.311-1.288a1.166 1.166 0 00-.854-1.12 1.195 1.195 0 00-.308-.046c-.39 0-.756.212-1.006.578l-.088.127c-.11.16-.22.318-.318.493a7.115 7.115 0 00-.136.254l-.066.126-.136.257a19.39 19.39 0 01-.698 1.214 82.674 82.674 0 01-1.02 1.598l-.214.334-.393.604c-.11.172-.224.344-.34.516.042-.14.032-.289.02-.439-.069-.772-.166-1.684-.365-2.6l-.13-.597c-.103-.49-.301-.962-.493-1.416a11.434 11.434 0 00-.77-1.467l-.142-.24a39.53 39.53 0 00-.552-.91c-.36-.584-.809-1.065-1.238-1.497-.408-.412-.866-.795-1.308-1.165l-.292-.25c-.214-.182-.435-.36-.656-.539l-.217-.175c-.28-.225-.569-.442-.86-.65-.504-.364-1.085-.633-1.585-.844a14.563 14.563 0 00-2.874-.932c-.782-.162-1.577-.2-2.107-.217-.123 0-.218.013-.321.045a.82.82 0 00-.41-.25.982.982 0 00-.272-.042c-.438 0-.828.299-.987.756-.113.328-.227.653-.345.98-.18.498-.256.907-.233 1.244.02.358.146.656.373.884.267.26.65.38.952.454.204.052.415.084.62.114l.34.052c.598.1 1.17.237 1.601.34.569.14 1.127.277 1.65.481 1.084.484 1.98.99 2.743 1.555.562.461 1.056.961 1.513 1.533.507.685 1.03 1.435 1.416 2.276a11.8 11.8 0 01.63 2.396c.084.809.094 1.562.03 2.305-.03.364-.063.727-.099 1.091l-.025.218-.075.632-.078-.025-.318-.036-.165-.016c-.465-.065-.93-.117-1.397-.169-.282-.03-.568-.062-.85-.098-.832-.129-1.706-.287-2.537-.57a2.147 2.147 0 01-.395.045v.002h-.016c.002-.002.009-.002.012-.002h-.029a38.294 38.294 0 01-3.237.278c-.867.036-1.743.102-2.61.036-.841-.061-1.73-.142-2.536-.416-.185-.062-.37-.126-.553-.195l-.054.027a7.03 7.03 0 01-1.17.311 3.97 3.97 0 01-.347.017c-.37 0-.75-.046-1.12-.088l-.382-.052-.13-.013-.101-.009c-.282-.03-.62-.068-.945-.068-.354 0-.714.038-1.172.126l.023-.104c.003-.99.007-2.01.087-3.052.104-.708.247-1.438.49-2.512.186-.812.508-1.579.816-2.32l.1-.242.16-.364.045-.1c.065-.154.133-.306.204-.462.118-.244.25-.484.397-.707.077-.117.165-.231.253-.344l.156-.196-.166.133.198-.184c.211-.257.423-.51.646-.757.293-.325.637-.61.938-.854.247-.191.468-.34.692-.467a6.29 6.29 0 01.88-.27c.104-.023.214-.042.324-.062.247-.045.433-.084.62-.145.13-.043.26-.095.387-.147l.088-.035.295-.124c.218-.094.373-.188.516-.318.166-.143.205-.413.218-.562a2.286 2.286 0 00-.364-1.27c-.006-.19-.139-.42-.373-.47a6.207 6.207 0 00-1.224-.143c-.172 0-.344.01-.52.032-.477.065-.925.215-1.46.404-.182.064-.364.13-.543.197l-.107.043-.081.029c-.117.045-.182.068-.24.1-.143.059-.27.137-.397.215-.886.548-1.63 1.114-2.304 1.642a6.78 6.78 0 00-1.27 1.273c-.276.377-.52.786-.763 1.208-.276.474-.435.958-.572 1.383l-.061.185-.088.28c-.156.447-.318.89-.48 1.33-.306.844-.459 1.76-.592 2.569l-.019.123c-.052.315-.11.63-.168.942l-.033.178-.036.217c-.071.416-.146.83-.202 1.254-.126.92-.21 1.695-.21 2.487 0 .383.003.763.013 1.146l.006.267.01.266c-.107-.147-.247-.28-.386-.416l-.348-.334c-.318-.312-.594-.66-.86-.994-.854-1.152-1.662-2.503-2.478-4.124-.63-1.256-1.19-2.57-1.733-3.84l-.078-.18-.127-.304-.204-.523-.082-.201a88.153 88.153 0 01-.363-.9 11.64 11.64 0 01-.286-.876l-.039-.14c-.1-.344-.201-.688-.285-1.038a42.1 42.1 0 01-.763-4.094c-.228-1.9-.465-4.105-.458-6.215 0-.97.032-2.01.09-3.091l.046-.919c.043-.834.082-1.587.156-2.331l.062-.672.061-.62c.033-.217.072-.435.117-.653-.117-.837.033-1.75.189-2.53l.103-.505c.065-.335.13-.673.208-1.004.058-.266.12-.532.182-.798l.013-.108c.104-.996.21-2.025.454-3.003a90.948 90.948 0 010-2.023l.01-1.019c.007-.272.023-.545.04-.818l.01-.166c.025-.542.093-1.09.161-1.63a2.272 2.272 0 01.082-.642.755.755 0 01.029-.133c.084-.555.175-1.11.27-1.666a74.13 74.13 0 00.353-2.377l-.055.143.16-.828.08-.5c.075-.41.182-.825.29-1.234.207-.779.464-1.691.805-2.571.233-.597.477-1.188.72-1.776l.338-.83c.163-.4.321-.803.477-1.206.175-.448.35-.893.532-1.337l.04-.094.051-.133a.336.336 0 00.098-.036 48.73 48.73 0 011.928-.87l.218-.094c.789-.276 1.64-.572 2.516-.838l.227-.068c.277-.082.555-.163.838-.24l.458-.128c.315-.09.63-.178.948-.252l.208-.046a55.01 55.01 0 012.334-.487 84.422 84.422 0 012.597-.412 99.457 99.457 0 012.959-.273 63.735 63.735 0 012.912-.153l.094-.003c.337-.013.676-.02 1.016-.02.52 0 1.046.013 1.568.026l.257.01.237.007c.844.022 1.714.084 2.587.191 1.185.189 2.338.462 3.51.744 1.332.328 2.465.675 3.458 1.058.854.402 1.558.77 2.23 1.247.17.153.331.312.481.484.04.055.075.117.11.194.273.841.403 1.757.52 2.568.078.627.143 1.186.185 1.748.026.386.039.773.052 1.162.007.243.013.48.026.714a169.9 169.9 0 00.233 3.854c.04.565.072 1.127.102 1.692.035.668.074 1.34.13 2.01.087 1.035.24 2.087.373 3.015l.136.959.065.496.078.568.019.159c.13 1.01.253 1.987.422 2.926l-.165.013c.016.487.019.983-.007 1.493.172-.023.332-.052.494-.084.185.886.435 1.815.734 2.753.208.636.448 1.237.714 1.786.11.218.23.435.364.639.46.718 1.116 1.13 1.798 1.13.695-.023 1.224-.428 1.734-.818l.117-.088c.078-.058.153-.117.227-.168l.188-.137.072-.049c.305-.217.616-.441.955-.626a6.15 6.15 0 01.243-.123c.23-.085.454-.16.695-.208l.077.019c.017.03.046.059.072.088l.1.149.033.104.049.156c-.195.734-.185 1.354.032 1.896.065.23.182.432.354.613.266 2.14.286 4.205.055 6.128-.104.646-.247 1.405-.523 2.13-.145.298-.32.587-.528.889a7.358 7.358 0 01-1.037.994 9.554 9.554 0 01-1.327.83c-.11.017-.153.017-.195.017l-.088-.117a.993.993 0 00-.788-.357c-.218 0-.426.055-.591.155a1.12 1.12 0 00-.527.708c-.071.295-.025.585.127.818.11.179.228.364.367.526.094.11.28.305.445.384.237.107.422.188.637.243a2.5 2.5 0 00.659.072c.675-.017 1.285-.283 1.795-.542a9.96 9.96 0 002.257-1.555c.217-.2.395-.436.56-.66l.095-.12c.39-.523.633-1.143.837-1.734.202-.568.274-1.214.325-1.73l.033-.247c.058-.52.09-1.072.1-1.73a32.273 32.273 0 00-.158-3.709 42.358 42.358 0 00-.231-1.912.959.959 0 00.074-.464c-.012-.039-.012-.075-.015-.114.032-.136.077-.282.123-.425l.035-.117c.026-.078.053-.156.072-.233.068-.254.124-.507.175-.76.123-.653.25-1.348.299-2.059.062-1.023.042-2.042.023-3.03l-.007-.454-.006-.266a58.732 58.732 0 00-.072-2.357c.15-.39.302-.782.436-1.179.064-.194.133-.386.2-.58.124-.358.248-.715.351-1.072l.12-.41.403-1.376c.107-.36.185-.724.266-1.088l.11-.5a28.04 28.04 0 00.56-3.185l.05-.445c.05-.386.098-.775.125-1.162l.032-.526.036-.532.016-.214a8.79 8.79 0 00.029-.51l.01-.948.013-.952a21.65 21.65 0 00-.068-1.678 20.65 20.65 0 00-.328-2.565c-.147-.76-.38-1.507-.605-2.23l-.106-.335c-.13-.422-.286-.838-.442-1.25l-.09-.237c-.501-1.328-1.098-2.864-1.874-4.276-.601-1.09-1.358-2.078-2.017-2.896l-.266-.325a32.523 32.523 0 00-.744-.9l-.23-.265c-.649-.75-1.321-1.526-2.025-2.247a39.827 39.827 0 00-1.296-1.273c-.383-.36-.812-.685-1.23-.997l-.199-.15a42.243 42.243 0 00-2.72-1.872 15.467 15.467 0 00-3-1.52l-.274-.104c-.197-.074-.395-.149-.596-.217-.627-.218-1.313-.387-2.228-.549-.809-.137-1.422-.202-1.99-.21-.338-.007-.675-.01-1.013-.014h-.085z"/><path d="M259.628 195.571c.004 0 .004.004.004.004.124-.019.25-.036.375-.053l-.379.05m6.867-48.032a.739.739 0 00-.377.253l.022-.028-.03.035c-.192.12-.405.208-.614.298-.595.235-1.197.428-1.81.608-.605.18-1.228.284-1.847.396-.3.042-.602.088-.902.11-.235.02-.468.036-.705.056-.205.013-.41.013-.614.02a16.35 16.35 0 01-2.559-.137 6.579 6.579 0 01-1.31-.339 4.309 4.309 0 01-.528-.285c-.084-.052-.162-.106-.246-.155a.396.396 0 00-.406 0c-.11.064-.214.21-.198.344.007.045.01.09.017.136.019.068.055.117.094.175.068.102.168.17.277.192l.041.03a4.2 4.2 0 00.7.422c.533.242 1.099.385 1.673.483.3.049.6.084.903.123.2.026.402.052.607.065.24.014.48.03.724.046.256.016.52.01.776.016.204.003.412-.013.62-.02.202-.006.403-.02.604-.038.922-.085 1.841-.215 2.737-.448.448-.118.893-.24 1.334-.384a9.659 9.659 0 001.28-.516c.123-.061.23-.146.337-.23.153-.127.273-.374.253-.578-.016-.185-.061-.341-.198-.478a.689.689 0 00-.48-.197.606.606 0 00-.175.025m-21.381.649c-.292.303-.593.592-.917.86-.774.553-1.621.95-2.49 1.323-.557.21-1.113.396-1.687.544-.543.142-1.102.23-1.655.325-.354.03-.702.025-1.06-.02-.492-.059-1.012-.084-1.45.202-.263.172-.461.399-.546.707-.11.396-.003.874.305 1.156.204.188.435.338.711.4.237.055.488.074.734.094.474.038.935-.033 1.406-.11.75-.131 1.49-.365 2.21-.617.849-.296 1.656-.686 2.465-1.078 1.25-.608 2.383-1.403 3.344-2.417.364-.383.383-.99 0-1.37a.982.982 0 00-.694-.28.924.924 0 00-.676.28"/><path d="M253.425 147.31c-.344.344-.39.993 0 1.331.406.354.831.679 1.286.971.406.26.838.435 1.286.61.409.16.847.25 1.276.354.425.101.863.185 1.298.247.552.078 1.101.15 1.656.172a13.144 13.144 0 002.886-.224c.487-.085.971-.182 1.455-.29.656-.145 1.276-.395 1.89-.655a5.61 5.61 0 00.753-.39c.172-.103.393-.263.49-.447.068-.134.097-.255.116-.39a.252.252 0 01.01-.036c.098-.266-.058-.58-.291-.717-.253-.149-.538-.095-.754.08a1.537 1.537 0 01-.1.061c-.29.1-.597.177-.89.255-.403.107-.807.196-1.22.272-.95.127-1.901.25-2.854.319-.962.071-1.916 0-2.869-.112-1.009-.166-2.02-.321-2.977-.687a6.159 6.159 0 01-.86-.508 15.971 15.971 0 01-.255-.216c-.196-.169-.404-.276-.666-.276-.25 0-.49.1-.666.276m26.692 24.314a.44.44 0 01-.054.042l.054-.042m.2-2.042l-.008.06c.001-.019.005-.039.007-.06m-.23-.658a2.27 2.27 0 01-.053.02l.052-.02m.159-.033a.38.38 0 01.032.08c-.01-.025-.02-.054-.032-.08m-.107-.056c.026.008.05.018.074.03h-.003c-.022-.01-.046-.022-.071-.03m.003-.79a.567.567 0 00-.22.053 2.955 2.955 0 00-.566.28.42.42 0 00-.15.57.424.424 0 00.573.15c.111-.068.222-.127.339-.186.036-.015.072-.027.109-.038h.006l.006.005.001.002c.038.098.071.195.096.295.004.129-.002.253-.015.38-.048.355-.093.715-.133 1.071-.034.28-.028.561-.052.84a.71.71 0 01-.022.092.873.873 0 01-.062.109l-.01.012a.472.472 0 01-.062.03c-.208.105-.266.394-.153.586a.44.44 0 00.257.195c.12.035.218.006.328-.043a.962.962 0 00.52-.607c.064-.207.074-.419.077-.633.006-.293.02-.581.056-.874.015-.165.035-.33.058-.5.016-.142.039-.288.052-.435.02-.223-.02-.438-.091-.649a1.472 1.472 0 00-.186-.383.444.444 0 00-.152-.15l-.085-.061c-.064-.03-.13-.058-.197-.087a1.603 1.603 0 00-.215-.036c-.036.003-.071.01-.107.012m-28.017 23.701l.053.043a.849.849 0 01-.053-.043m5.266-.422a.983.983 0 00-.133.04c-.107.032-.21.064-.318.094-.23.071-.461.136-.692.204-.51.144-1.038.24-1.56.316a7.862 7.862 0 01-1.666.033 3.855 3.855 0 01-.755-.166.856.856 0 01-.207-.157c-.21-.188-.523-.21-.734 0-.19.191-.21.549 0 .737.143.123.29.247.455.341.081.036.162.068.243.1.121.052.254.076.38.101.468.1.945.143 1.42.16.677.022 1.353-.075 2.026-.166.38-.049.753-.133 1.126-.22a5.73 5.73 0 00.48-.128c.296-.09.608-.223.692-.555.071-.295-.094-.668-.416-.73a.986.986 0 00-.187-.024.645.645 0 00-.154.02"/><path d="M252.387 192.56c-.047.185-.1.367-.163.546-.094.203-.2.394-.33.579-.198.238-.41.46-.65.656-.21.153-.422.3-.64.44-.191.125-.4.225-.606.325a9.523 9.523 0 01-1.179.386c-.227.059-.451.114-.672.182-.26.085-.506.198-.753.318-.159.078-.256.276-.256.448 0 .211.155.467.383.503.272.042.525.056.801.023.29-.029.579-.078.867-.13a6.053 6.053 0 001.494-.47 8.277 8.277 0 001.48-.9 5.89 5.89 0 00.737-.681c.474-.51.763-1.16.923-1.828.094-.397-.12-.806-.52-.916a.722.722 0 00-.192-.026c-.326 0-.645.217-.724.545m3.516-.3c-.117.117-.146.24-.165.396a1.872 1.872 0 000 .558c.032.205.087.396.162.587.075.196.162.374.276.547.114.168.25.327.383.48.422.48.997.773 1.562 1.039.429.198.853.402 1.292.574.474.189.984.3 1.484.397.409.08.821.133 1.237.165a5.31 5.31 0 001.253-.046c.29-.041.565-.09.847-.18.494-.164.935-.446 1.37-.726a3.71 3.71 0 00.462-.353c.155-.14.273-.308.399-.471.117-.152.09-.406 0-.559a.56.56 0 00-.627-.256 4.771 4.771 0 00-.746.328c-.21.109-.43.198-.646.293-.32.124-.644.221-.982.28-.423.042-.84.078-1.266.05a13.925 13.925 0 01-.76-.069c-.666-.108-1.322-.243-1.96-.473a44.252 44.252 0 01-1.372-.522 4.238 4.238 0 01-.634-.362 3.016 3.016 0 01-.387-.377 2.442 2.442 0 01-.15-.263 2.597 2.597 0 01-.097-.322c-.003-.107.007-.21.02-.319.032-.302-.282-.558-.562-.558a.558.558 0 00-.393.162"/><path d="M265.566 194.99c.006.03.01.058.01.086a2.454 2.454 0 01-.01-.085m-10.633-1.896a.719.719 0 01-.033.042l.033-.042m-.559-.53a2.79 2.79 0 00-1.315.796c-.3.06-.596.14-.879.246-.328.123-.637.283-.877.542-.276.3-.393.728-.282 1.12a1 1 0 00.311.491c.162.143.309.208.506.283.128.045.339.048.48.041.136-.005.273-.029.408-.052l.382-.052c-.081.01-.163.024-.246.033.187-.024.376-.05.565-.077a4.055 4.055 0 001.418.796c.104.525.575.94 1.127.934a8.971 8.971 0 001.253-.127c.133-.02.263-.052.396-.08.157-.038.334-.095.492-.164.54.047 1.081.075 1.621.088.978.023 1.955.023 2.933-.032.613-.036 1.23-.104 1.834-.224a4.14 4.14 0 00.831-.263 2.83 2.83 0 00.815-.54 2.38 2.38 0 00.52-.7c.13-.27.152-.555.07-.845a.612.612 0 00-.742-.422.615.615 0 00-.426.732l-.039.063a2.15 2.15 0 01-.203.196 2.689 2.689 0 01-.24.143 4.62 4.62 0 01-.912.211c-.675.081-1.358.109-2.034.139-.644.026-1.283.055-1.925.065-.364.007-.728.011-1.09.01-.035-.55-.443-.962-.947-1.14-.232-.084-.458-.167-.69-.238a2.402 2.402 0 00-.745-.781 2.986 2.986 0 00-.419-.216c.01-.264-.08-.544-.268-.719a1.396 1.396 0 00-.325-.238c-.163-.084-.319-.097-.497-.116a1.46 1.46 0 00-.16-.008 2.85 2.85 0 00-.7.105"/></g><g fill="#000"><path d="M245.727 155.113a.899.899 0 00-.131.088c-.385.117-.798.177-1.196.241-.468.075-.935.149-1.406.218-.945.14-1.896.257-2.844.38.08-.012.162-.02.24-.031-1.494.13-2.985.257-4.483.348-.493.032-.907.352-.907.82 0 .427.414.853.907.821 1.22-.074 2.433-.174 3.65-.276.37-.032.742-.055 1.112-.104.512-.068 1.024-.134 1.532-.2.758-.097 1.51-.215 2.263-.343.398-.069.8-.137 1.19-.235.272-.065.547-.148.788-.28.284-.154.59-.515.555-.832a.683.683 0 00-.107-.366.803.803 0 00-.48-.334.971.971 0 00-.683.086m23.918-.07c-.384.122-.765.247-1.158.34-.333.077-.668.131-1.004.183-.602.053-1.2.094-1.803.13-.28.015-.56.01-.84.013-.246.002-.5.019-.746.009a165.506 165.506 0 01-4.046-.196c-.569-.036-1.048.543-1.048 1.132 0 .646.48 1.097 1.048 1.132.843.055 1.682.106 2.521.142l1.557.064c.432.019.864-.007 1.295-.01a18.152 18.152 0 003.721-.373c.366-.083.717-.216 1.072-.337.554-.193.907-.795.747-1.422-.126-.501-.567-.851-1.035-.851a.923.923 0 00-.28.044"/><path d="M239.707 183.128l.031.075-.031-.075m-1.521-26.45c-.173.284-.34.548-.443.892-.078.263-.157.519-.23.787-.06.212-.117.429-.172.65-.109.417-.166.85-.227 1.289-.115.863-.19 1.743-.28 2.611a86.77 86.77 0 00-.416 5.961c-.072 1.923-.102 3.844-.194 5.762-.1 2.092-.175 4.18-.208 6.272-.03 1.841-.016 3.679.027 5.515.054 2.19.112 4.372.378 6.532.033.28.07.561.112.842.091.599.239 1.136.412 1.696.117.397.275.728.466 1.068.127.221.281.387.454.531.369.315.79.337 1.2.23.173-.042.334-.153.485-.28.193-.175.487-.54.587-.842.063-.185.116-.364.16-.543.053.18.108.356.167.53.257.774.635 1.505 1.252 1.744.297.114.563.089.86-.013.296-.107.487-.328.714-.6.381-.46.484-1.238.526-1.892.03-.51.043-1.021.052-1.532.03-1.879.009-3.763.039-5.642.033-1.974.076-3.942.088-5.915.015-1.94-.006-3.878-.042-5.817-.051-2.955-.121-5.902-.3-8.849a65.08 65.08 0 00-.442-4.363 93.044 93.044 0 00-.336-2.317c-.1-.634-.199-1.267-.324-1.888-.081-.426-.163-.843-.299-1.242a2.526 2.526 0 00-.193-.48c-.146-.303-.324-.481-.527-.698-.3-.322-.715-.234-1.04-.048a1.643 1.643 0 00-.694-.547 1.223 1.223 0 00-.444-.082c-.436 0-.893.221-1.168.677m25.454.547a1.521 1.521 0 00-.705-.186c-.34 0-.658.115-.949.347-.447.35-.694.874-.866 1.513-.162.612-.12 1.33-.101 1.974.016.548.04 1.097.07 1.645.065 1.082.16 2.167.187 3.252.028 1.052.016 2.108.028 3.161.012 1.114.058 2.228.103 3.338.047 1.213.11 2.427.181 3.635.062 1.082.058 2.171.062 3.256.009 2.418-.004 4.832-.065 7.247-.04 1.489-.058 2.974-.049 4.464.006.647.016 1.3.034 1.948.028 1.188-.006 2.442.208 3.602.172.924.841 1.58 1.54 1.58.287-.004.556-.1.804-.297.327-.255.67-.764.735-1.283.11-.898.121-1.82.166-2.728.145-.043.288-.113.427-.214.134-.095.256-.224.36-.374.13.58.322 1.12.631 1.562.35.499.872.767 1.375.767.7 0 1.31-.507 1.677-1.295.36-.776.351-1.754.395-2.64.027-.57.039-1.148.054-1.722.034-1.097.08-2.22.047-3.322-.037-1.282-.096-2.55-.178-3.83-.083-1.22-.24-2.446-.398-3.655-.3-2.293-.533-4.596-.787-6.895-.143-1.292-.284-2.583-.425-3.875-.113-1.04-.236-2.095-.432-3.115-.131-.689-.265-1.378-.397-2.067-.107-.554-.257-1.093-.392-1.634-.257-1.028-.502-2.08-.897-3.025-.348-.837-1.006-1.345-1.71-1.357l-.023-.001c-.245 0-.488.081-.71.224" opacity=".2"/></g><g fill="#000"><path d="M255.094 188.657l.095.038c-.033-.012-.064-.025-.095-.038m-.93-4.64a6.214 6.214 0 00-2.023.465c-.324.13-.636.289-.927.475-.328.214-.602.49-.861.771a5.499 5.499 0 00-.554.68c-.13.196-.251.396-.384.592-.246.371-.438.763-.413 1.215.006.106.014.214.028.32.028.206.077.372.178.557.175.323.516.53.877.633.417.12.87.156 1.292.025.205-.063.411-.13.6-.23.139-.072.27-.16.405-.243.204-.128.41-.25.62-.368a8.86 8.86 0 01.746-.386c.08-.026.158-.047.24-.066-.063.005-.126.01-.188.017a6.496 6.496 0 00-.811.169c-.235.07-.467.146-.702.22-.206.064-.412.13-.617.2-.247.084-.51.102-.77.12a9.41 9.41 0 01-.606.025c-.473.006-.87-.373-.87-.812 0-.446.397-.807.87-.813.1 0 .2-.002.299-.006.051-.07.103-.142.152-.215a7.11 7.11 0 01.33-.455c.25-.283.515-.557.816-.79.17-.111.355-.206.543-.291.231-.05.473-.076.704-.112.19-.031.38-.06.57-.087.358-.031.713-.053 1.072-.058.33-.006.657-.011.987.005.074.02.148.04.222.063.174.082.337.18.502.283.173.106.343.214.508.329.088.069.171.141.247.22.062.09.12.182.17.279.033.08.06.163.082.248l.002.036a.62.62 0 00.012.096.77.77 0 01.224.376c.047.037.1.069.158.092l-.012.042c-.008.009-.013.02-.021.029-.035.04-.071.077-.108.115a.853.853 0 01-.862.721c-.534-.02-1.063-.1-1.597-.096-.42.001-.838.012-1.257.045.051 0 .1 0 .153.004.343.053.685.125 1.011.245.227.096.452.204.685.286.277.1.564.15.861.169.188.01.377.009.565-.004.192-.013.38-.061.549-.145.099-.05.2-.105.281-.176l.068-.047c.103-.076.196-.163.285-.254.109-.11.208-.229.305-.35.145-.185.176-.435.195-.656.02-.191-.028-.39-.07-.577a2.583 2.583 0 00-.09-.316 1.735 1.735 0 00-.097-.446 2.54 2.54 0 00-.24-.495c-.193-.319-.497-.56-.81-.774-.485-.332-.99-.642-1.585-.766a8.198 8.198 0 00-1.433-.15 9.19 9.19 0 00-.506.016"/><path d="M256.183 185.667c-.284 0-.568.046-.848.086-.43.061-.86.13-1.29.193a25.66 25.66 0 01-1.315.118c-.264.014-.53.031-.795.048-.1.007-.198.019-.296.03-.104.013-.21.022-.312.04a2.892 2.892 0 00-.219.044c-.083.035-.165.07-.246.108-.165.076-.27.242-.313.42l-.007.008c-.172.069-.337.14-.472.276a.826.826 0 00-.237.578.74.74 0 00.035.227.822.822 0 01.34-.078c.23-.004.462-.013.69-.036.188-.043.37-.12.549-.184.142-.052.286-.097.43-.143.17-.058.338-.124.51-.174.206-.063.421-.102.634-.141.603-.11 1.223-.142 1.835-.146h.037c.539 0 1.07.077 1.606.099.451.019.829.365.829.835 0 .1-.02.2-.055.292a.835.835 0 00.41-.15c.213-.159.376-.321.45-.59a1.005 1.005 0 00-.252-.96.947.947 0 00-.288-.198c-.071-.157-.193-.31-.341-.38a2.02 2.02 0 00-.522-.17 3.188 3.188 0 00-.53-.052h-.017z"/><path d="M255.59 189.95zm-3.04.033a1.81 1.81 0 01-.082.038l.081-.038zm.907-.3l-.07.01c.023-.004.046-.008.07-.01zm1.738-1.084l.088.013c-.03-.004-.058-.01-.088-.013zm-.072-.01zm-.17-.025l.084.01-.083-.01zm2.09-.007l-.067.03.067-.03zm-7.247-.413l-.01.023.01-.023zm7.586-.017l.005.043-.005-.043zm-.042-.215l.012.03-.012-.03zm-7.186-1.306c-.15.271-.3.542-.465.802-.138.218-.296.424-.4.665a3.312 3.312 0 00-.215.681 3.579 3.579 0 00-.072.79c.01.28.114.526.29.73.202.238.494.31.778.356.148.023.295.042.447.035.105-.004.212-.033.315-.052.06-.01.123-.023.183-.034a2.9 2.9 0 00.64-.189c.266-.114.529-.236.793-.36a5.58 5.58 0 011.076-.357c.197-.025.397-.04.594-.024.22.046.44.108.658.163.229.055.46.089.69.12l-.037-.005c.356.053.716.086 1.076.04.228-.028.423-.082.627-.197.152-.086.287-.208.42-.32.176-.146.336-.34.46-.542.125-.204.166-.462.152-.7-.008-.123-.035-.246-.058-.368a1.755 1.755 0 00-.204-.503.361.361 0 00-.507-.143c-.18.115-.222.352-.132.545l.056.123c.034.107.051.22.07.332.001.03.002.058 0 .088l-.002.014-.02.032a2.296 2.296 0 01-.403.264 1.982 1.982 0 01-.312.11c-.244.016-.495-.022-.739-.04a13.056 13.056 0 01-.736-.066l-.11-.016c-.138-.023-.276-.046-.415-.071-.195-.036-.392-.082-.59-.077a4.905 4.905 0 00-.494.044c-.2.027-.39.058-.583.12a7.49 7.49 0 00-.93.368c-.294.137-.578.297-.869.443-.272.118-.56.22-.847.271a2.18 2.18 0 01-.423-.002.807.807 0 01-.1-.029 1.123 1.123 0 01-.04-.027.22.22 0 01-.026-.027.964.964 0 01-.04-.075 1.45 1.45 0 01-.044-.197 2.761 2.761 0 01-.006-.501c.014-.1.03-.201.05-.3.028-.133.05-.266.094-.393.086-.196.19-.38.292-.564l.407-.738a.227.227 0 00-.072-.296.185.185 0 00-.1-.029.206.206 0 00-.177.106z"/><path d="M252.252 188.219l-.103.043.113-.048-.01.005zm-.989.63l-.007.018.007-.018zm-1.503-.213v.001zm7.953-.01l-.026.02.026-.02zm-1.405-2.125c-.517.012-1.03.057-1.546.103-.225.02-.45.037-.676.055a5.371 5.371 0 00-.834-.009c-.26.02-.522.049-.777.101-.233.048-.458.12-.68.203-.042.01-.083.018-.126.029-.38.089-.753.207-1.127.32-.185.058-.369.13-.553.194-.22.078-.441.153-.663.223a.336.336 0 00-.23.41c.01.037.029.073.052.104a.728.728 0 00-.148.43c-.008.24.156.44.362.535.122.056.245.087.372.094a.585.585 0 00.017.108c.012.05.034.096.062.139.058.09.118.135.202.197a.516.516 0 00.222.077c.078.012.151.024.23.018.112-.01.22-.026.325-.065a.794.794 0 00.312-.179.624.624 0 00.192-.524c-.004-.04-.01-.08-.016-.12a.876.876 0 010-.104.993.993 0 01.01-.037 2.03 2.03 0 01.183-.176 4.334 4.334 0 01.779-.408c.096-.042.193-.082.29-.122a5.52 5.52 0 01.25-.074c.437-.119.876-.222 1.32-.3a13.28 13.28 0 01.418-.038l.24.04c.19.03.376.08.566.114.368.065.75.106 1.105.236.058.03.114.066.167.102l.007.007v.003l-.003.01c-.042.074-.093.142-.114.226-.046.196.035.363.192.476.172.119.394.04.573-.02.08-.026.16-.055.234-.095.058-.03.11-.074.162-.116.066-.049.133-.098.196-.152a.95.95 0 00.268-.427.96.96 0 00.015-.52.63.63 0 00-.105-.231c-.036-.047-.07-.095-.11-.14-.044-.05-.1-.086-.152-.126l-.015-.012c.07-.112.053-.28-.079-.351-.088-.047-.194-.063-.29-.089a2.59 2.59 0 00-.305-.068 3.678 3.678 0 00-.774-.051z"/></g></g></svg>