<svg width="500" height="600" viewBox="0 0 500 600" fill="none" xmlns="http://www.w3.org/2000/svg">
<path fill-rule="evenodd" clip-rule="evenodd" d="M266.153 203.814V203.818L266.156 203.814H266.153ZM257.988 140.047L256.268 140.115C255.927 140.129 255.582 140.161 255.241 140.184L253.462 140.307C253.167 140.327 252.872 140.372 252.576 140.411C251.956 140.485 251.332 140.563 250.712 140.641C250.44 140.675 250.168 140.716 249.898 140.765C248.823 140.965 247.748 141.171 246.673 141.372C246.407 141.424 246.144 141.502 245.881 141.567C245.248 141.727 244.615 141.885 243.979 142.04C243.566 142.144 243.153 142.248 242.741 142.35C242.171 142.492 241.605 142.664 241.04 142.827C240.907 142.865 240.794 142.953 240.725 143.073C240.657 143.193 240.638 143.335 240.673 143.469C240.748 143.742 241.043 143.911 241.316 143.833C241.859 143.677 242.397 143.512 242.946 143.375L244.03 143.109C244.916 142.889 245.8 142.671 246.686 142.45C247.193 142.326 247.709 142.248 248.222 142.151C248.965 142.015 249.707 141.881 250.45 141.741C251.382 141.627 252.316 141.521 253.251 141.411C253.589 141.369 253.93 141.366 254.267 141.343L256.043 141.236C256.375 141.216 256.706 141.213 257.034 141.206C257.573 141.19 258.114 141.176 258.654 141.161C259.076 141.148 259.501 141.177 259.924 141.184C260.31 141.194 260.699 141.187 261.086 141.219C261.546 141.262 262.006 141.305 262.468 141.345L263.294 141.485C263.563 141.531 263.829 141.605 264.096 141.671C264.598 141.797 265.092 141.972 265.589 142.135C265.923 142.242 266.293 142.011 266.385 141.681C266.482 141.327 266.267 140.996 265.933 140.881C265.112 140.601 264.268 140.397 263.41 140.271C263.18 140.239 262.95 140.203 262.715 140.171C262.472 140.138 262.225 140.129 261.979 140.109C261.569 140.079 261.157 140.034 260.744 140.034C260.148 140.031 259.554 140.028 258.959 140.022C258.634 140.022 258.313 140.034 257.989 140.047H257.988ZM269.962 148.888C269.972 148.891 269.982 148.894 269.992 148.901L270.008 148.911C270.036 148.881 270.066 148.853 270.098 148.827L270.066 148.802C270.034 148.833 269.999 148.862 269.962 148.888V148.888ZM248.173 149.58C248.131 149.612 248.088 149.64 248.043 149.673C247.923 149.781 247.813 149.894 247.706 150.012L247.68 150.047C247.656 150.196 247.626 150.344 247.589 150.491C247.747 150.462 247.898 150.4 248.03 150.308C248.162 150.216 248.273 150.097 248.355 149.959C248.467 149.88 248.548 149.765 248.585 149.634C248.619 149.518 248.614 149.393 248.571 149.28C248.441 149.387 248.3 149.485 248.173 149.58V149.58ZM249.46 167.916C248.98 168.242 248.492 168.566 247.98 168.844L247.937 169.124L247.908 169.316L247.891 169.426C247.817 169.926 247.743 170.42 247.635 170.906C247.489 171.585 247.34 172.261 247.181 172.936L247.041 173.478L246.944 173.864C246.884 174.091 246.842 174.322 246.817 174.556C246.796 174.743 246.82 174.932 246.885 175.108C246.941 175.296 247.031 175.455 247.171 175.595C247.343 175.731 247.463 175.829 247.603 175.897C248.553 176.371 249.648 176.436 250.596 176.436C250.866 176.436 251.136 176.432 251.401 176.426L251.509 176.422L252.103 176.41L252.697 176.397C253.08 176.39 253.469 176.338 253.817 176.293L253.927 176.28L254.012 176.267L254.207 176.241C254.437 176.176 254.632 176.069 254.801 175.906C255.041 175.659 255.177 175.326 255.177 174.991C255.177 174.303 254.597 173.699 253.934 173.699C253.334 173.729 252.736 173.779 252.139 173.849C251.399 173.929 250.661 174.007 249.94 174.007C249.647 174.009 249.354 173.995 249.063 173.965L248.95 173.955L248.983 173.783L248.999 173.598L249.097 172.562C249.126 172.225 249.165 171.887 249.203 171.552C249.255 171.102 249.304 170.689 249.337 170.27C249.353 170.072 249.366 169.874 249.375 169.676C249.385 169.51 249.398 169.345 249.411 169.18C249.434 168.874 249.47 168.569 249.502 168.264L249.528 168.049L249.551 167.853L249.46 167.916V167.916ZM234.819 156.409C234.875 156.22 234.937 156.035 235.005 155.852C234.979 155.811 234.955 155.769 234.933 155.725C234.825 155.936 234.785 156.175 234.819 156.409" fill="#161616"/>
<path fill-rule="evenodd" clip-rule="evenodd" d="M248.172 149.581C248.129 149.611 248.087 149.643 248.045 149.671C247.925 149.782 247.811 149.893 247.705 150.013C247.698 150.023 247.688 150.036 247.681 150.048C247.66 150.169 247.635 150.289 247.607 150.408L247.623 150.523C247.733 151.279 247.847 152.035 247.957 152.795C248.054 153.578 248.149 154.36 248.204 155.152C248.254 155.922 248.237 156.688 248.191 157.458C248.097 159.038 248.025 160.62 247.886 162.201C247.786 162.854 247.659 163.496 247.509 164.143C247.357 164.811 247.159 165.473 247.048 166.155C246.926 166.907 246.798 167.658 246.666 168.409C246.536 169.153 246.457 169.906 246.373 170.655C246.283 171.279 246.162 171.893 246.09 172.516C246.058 172.798 246.048 173.082 246.061 173.366C246.081 173.731 246.159 174.032 246.318 174.357C246.408 174.539 246.532 174.685 246.659 174.847C247.012 175.302 247.577 175.484 248.126 175.577C249.088 175.747 250.052 175.795 251.019 175.685C251.961 175.577 252.899 175.412 253.828 175.233C254.259 175.149 254.561 174.688 254.561 174.269C254.561 173.763 254.104 173.22 253.561 173.273L251.973 173.419C251.655 173.448 251.338 173.474 251.019 173.496C250.402 173.533 249.782 173.512 249.169 173.431C249.02 173.409 248.872 173.382 248.724 173.351C248.837 172.964 248.977 172.584 249.094 172.201C249.282 171.581 249.415 170.955 249.551 170.324C249.834 169.023 249.977 167.698 250.149 166.374C250.353 165.016 250.587 163.662 250.672 162.285C250.711 161.688 250.684 161.078 250.662 160.48C250.636 159.791 250.611 159.101 250.587 158.412C250.567 157.812 250.542 157.212 250.519 156.61C250.493 155.902 250.412 155.201 250.337 154.497C250.181 152.977 249.909 151.464 249.681 149.954C249.643 149.698 249.405 149.444 249.191 149.318C249.04 149.229 248.869 149.179 248.694 149.173C248.532 149.325 248.34 149.455 248.172 149.581" fill="#161616"/>
<path fill-rule="evenodd" clip-rule="evenodd" d="M266.456 114.831C266.096 114.831 265.736 114.864 265.378 114.896L265.16 114.913C264.318 114.982 263.477 115.066 262.638 115.165C261.004 115.366 259.384 115.67 257.788 116.075C257.135 116.24 256.446 116.448 255.618 116.727L255.404 116.799C254.92 116.959 254.434 117.123 253.963 117.318L252.099 118.098L251.631 118.285C251.284 118.425 250.937 118.565 250.606 118.727L249.998 119.017C249.223 119.389 248.45 119.76 247.683 120.156L245.813 121.12C245.512 121.273 245.219 121.451 244.931 121.627L244.625 121.811C244.304 121.997 243.985 122.182 243.674 122.37L243.541 122.445C243.444 122.5 243.345 122.552 243.258 122.613L242.434 123.172L241.608 123.734C240.886 124.231 240.176 124.745 239.478 125.276L238.813 125.769C238.167 126.246 237.531 126.74 236.895 127.234L236.408 127.61C235.577 128.253 234.771 128.954 233.995 129.633L233.603 129.974C232.826 130.652 232.113 131.374 231.274 132.244L230.839 132.701C230.423 133.143 230.005 133.584 229.566 134.006C228.986 134.559 228.381 135.086 227.754 135.585C227.628 135.672 227.498 135.76 227.369 135.844C227.239 135.932 227.109 136.016 226.982 136.107C226.826 136.215 226.681 136.327 226.538 136.448C226.281 136.663 226.167 136.951 226.06 137.234C225.966 137.467 225.995 137.922 226.06 138.143C226.092 138.253 226.131 138.357 226.177 138.461C226.401 139 226.618 139.584 226.878 140.347C227.102 141.003 227.326 141.659 227.528 142.317C227.728 142.984 227.892 143.643 228.018 144.337C228.118 145.295 228.115 146.318 228.005 147.387C227.917 147.857 227.788 148.474 227.563 149.059C227.305 149.65 227.011 150.224 226.683 150.779L226.547 151L226.414 151.224C226.267 151.467 226.161 151.724 226.076 151.941C225.998 152.173 225.987 152.421 226.044 152.659C226.092 152.85 226.206 153.097 226.352 153.218C226.508 153.341 226.645 153.441 226.822 153.526C226.937 153.581 227.06 153.626 227.177 153.669C227.992 154.032 228.739 154.484 229.462 154.919L229.684 155.052C229.956 155.223 230.236 155.38 230.524 155.522C230.834 155.669 231.167 155.77 231.489 155.87L231.589 155.9C231.777 155.957 231.963 156 232.157 156.029C232.148 156.13 232.151 156.24 232.154 156.351C232.16 156.62 232.184 156.89 232.206 157.156C232.229 157.393 232.246 157.604 232.258 157.815L232.264 157.922C232.288 158.422 232.307 158.883 232.264 159.338L232.245 159.558C232.08 160.516 231.852 161.406 231.564 162.448C231.297 163.4 231.011 164.526 230.891 165.708L230.846 166.107L230.823 166.347C230.788 166.663 230.758 166.979 230.733 167.295C230.706 167.607 230.69 167.919 230.673 168.23L230.641 168.818C230.57 169.927 230.517 171.038 230.482 172.149C230.469 172.629 230.462 173.117 230.456 173.597C230.45 174.019 230.466 174.403 230.486 174.789L230.505 175.227C230.544 176.159 230.635 177.107 230.725 178.022L230.738 178.172L230.752 178.295L230.765 178.409C231.028 180.999 231.388 183.074 231.898 184.935C232.012 185.338 232.138 185.734 232.271 186.13C232.349 186.357 232.44 186.578 232.531 186.799L232.569 186.896L232.736 187.299C233.096 188.199 233.466 189.088 233.846 189.977C233.851 189.924 233.845 189.871 233.826 189.822C234.083 190.529 234.518 191.592 235.05 192.662C235.523 193.619 236.043 194.552 236.606 195.458C237.261 196.539 237.936 197.438 238.666 198.218C239.219 198.798 239.846 199.338 240.397 199.811L240.469 199.873L241.024 200.354C242.095 201.279 242.93 201.915 243.729 202.412C244.476 202.886 245.275 203.243 246.047 203.587L246.547 203.815L246.959 204.006L247.057 204.052C247.92 204.452 248.765 204.838 249.612 205.162C249.849 205.26 250.09 205.344 250.33 205.432L250.495 205.49L250.589 205.522L251.129 205.718C251.559 205.88 251.995 206.042 252.44 206.175C253.537 206.503 254.69 206.561 255.875 206.594C256.395 206.61 256.911 206.62 257.427 206.626L257.567 206.63C258.267 206.63 258.947 206.555 259.582 206.41C260.064 206.295 260.527 206.14 261.047 205.919C261.667 205.665 262.203 205.328 262.647 205.029C263.353 204.565 264.024 204.035 264.677 203.523L264.82 203.413L265.359 202.987L265.612 202.789C265.953 202.523 266.297 202.253 266.618 201.961C267.011 201.598 267.375 201.218 267.713 200.861L267.862 200.698C268.275 200.25 268.66 199.835 268.989 199.396C269.226 199.081 269.45 198.76 269.68 198.438L269.817 198.241L269.907 198.107L270.917 196.695L271.271 196.188L271.833 195.396C272.276 194.754 272.695 194.095 273.089 193.422L273.495 192.753C273.901 192.094 274.265 191.496 274.589 190.851C274.781 190.467 274.947 190.071 275.105 189.672C275.304 189.202 275.369 188.759 275.417 188.382C275.416 188.128 275.332 187.881 275.178 187.678C275.024 187.476 274.808 187.33 274.563 187.262C274.463 187.234 274.359 187.219 274.255 187.218C273.865 187.218 273.499 187.428 273.248 187.795L273.16 187.922C273.05 188.082 272.94 188.24 272.843 188.415C272.796 188.499 272.751 188.583 272.707 188.669L272.641 188.795L272.505 189.052C272.287 189.465 272.054 189.87 271.806 190.266C271.476 190.802 271.131 191.334 270.787 191.864L270.573 192.198L270.18 192.802C270.07 192.974 269.956 193.146 269.839 193.318C269.881 193.178 269.871 193.029 269.859 192.88C269.791 192.107 269.694 191.195 269.495 190.279L269.365 189.682C269.261 189.192 269.064 188.72 268.872 188.267C268.651 187.76 268.394 187.269 268.102 186.799L267.96 186.559C267.78 186.253 267.596 185.95 267.408 185.649C267.048 185.065 266.599 184.584 266.17 184.152C265.761 183.74 265.303 183.357 264.862 182.987L264.569 182.737C264.356 182.555 264.135 182.377 263.914 182.198L263.697 182.023C263.417 181.798 263.128 181.581 262.837 181.373C262.333 181.01 261.752 180.74 261.251 180.529C260.328 180.12 259.365 179.807 258.378 179.597C257.596 179.435 256.8 179.397 256.271 179.38C256.148 179.38 256.053 179.393 255.949 179.425C255.841 179.303 255.698 179.216 255.54 179.175C255.452 179.148 255.36 179.134 255.268 179.133C254.83 179.133 254.44 179.433 254.281 179.889C254.167 180.218 254.053 180.543 253.936 180.87C253.756 181.367 253.68 181.776 253.703 182.113C253.723 182.471 253.849 182.769 254.076 182.997C254.343 183.257 254.726 183.377 255.028 183.452C255.232 183.503 255.443 183.536 255.648 183.565L255.988 183.617C256.586 183.717 257.157 183.854 257.589 183.957C258.158 184.097 258.715 184.234 259.239 184.438C260.323 184.922 261.219 185.429 261.982 185.993C262.544 186.455 263.038 186.954 263.495 187.526C264.002 188.211 264.525 188.961 264.911 189.802C265.193 190.536 265.401 191.322 265.541 192.198C265.625 193.007 265.635 193.76 265.571 194.503C265.541 194.867 265.508 195.23 265.472 195.594L265.446 195.812L265.371 196.444L265.294 196.419L264.976 196.383L264.81 196.367C264.519 196.325 264.227 196.289 263.934 196.257C263.605 196.575 263.268 196.887 262.94 197.202C262.29 197.843 261.533 198.365 260.703 198.747C260.05 199.039 259.391 199.26 258.71 199.464C257.995 199.685 257.242 199.831 256.501 199.944C255.583 200.087 254.661 200.224 253.728 200.309C253.245 200.353 252.762 200.389 252.278 200.416C251.388 200.464 250.518 200.416 249.635 200.292C248.618 200.152 247.54 199.932 246.697 199.315C245.781 198.646 245.128 197.62 245.144 196.451C245.147 196.143 245.18 195.828 245.251 195.526C245.248 195.529 245.245 195.529 245.242 195.529L245.265 195.425C245.268 194.435 245.271 193.415 245.352 192.373C245.456 191.665 245.599 190.935 245.842 189.861C245.932 189.468 246.053 189.086 246.19 188.713C246.15 188.533 246.112 188.353 246.073 188.172C245.853 187.179 246.358 186.152 247.378 185.87L247.446 185.853C247.485 185.79 247.524 185.728 247.564 185.666C247.641 185.549 247.729 185.435 247.816 185.322L247.973 185.126L247.807 185.259L248.005 185.075C248.216 184.818 248.427 184.565 248.651 184.319C248.943 183.994 249.288 183.708 249.589 183.464C249.836 183.273 250.057 183.124 250.281 182.997C250.567 182.886 250.862 182.795 251.161 182.727C251.265 182.704 251.375 182.685 251.485 182.665C251.732 182.62 251.917 182.581 252.105 182.52C252.235 182.477 252.365 182.425 252.492 182.374L252.58 182.338L252.875 182.214C253.093 182.12 253.248 182.026 253.391 181.896C253.556 181.754 253.595 181.483 253.609 181.335C253.615 180.885 253.489 180.443 253.245 180.065C253.239 179.873 253.105 179.643 252.872 179.595C252.47 179.507 252.06 179.458 251.648 179.451C251.476 179.451 251.304 179.461 251.128 179.484C250.651 179.548 250.203 179.698 249.668 179.887C249.485 179.952 249.303 180.017 249.125 180.085L249.018 180.127L248.937 180.156C248.82 180.201 248.755 180.224 248.697 180.256C248.554 180.315 248.427 180.393 248.3 180.471C247.414 181.02 246.67 181.585 245.995 182.113C245.517 182.479 245.09 182.907 244.725 183.386C244.449 183.763 244.205 184.172 243.963 184.594C243.686 185.068 243.528 185.552 243.391 185.978L243.33 186.162L243.242 186.442C243.086 186.889 242.924 187.332 242.762 187.772C242.456 188.616 242.303 189.532 242.17 190.342L242.151 190.464C242.099 190.779 242.041 191.094 241.982 191.406L241.95 191.585L241.914 191.802C241.843 192.217 241.768 192.63 241.712 193.055C241.586 193.975 241.502 194.75 241.502 195.542C241.502 195.925 241.504 196.305 241.514 196.688L241.521 196.955L241.531 197.221C241.424 197.074 241.284 196.941 241.145 196.805L240.797 196.471C240.479 196.159 240.203 195.811 239.937 195.477C239.082 194.325 238.275 192.974 237.459 191.354C236.829 190.098 236.269 188.783 235.725 187.513L235.648 187.334L235.521 187.029L235.316 186.506L235.235 186.305C235.112 186.006 234.991 185.706 234.872 185.405C234.765 185.117 234.67 184.825 234.586 184.529L234.546 184.39C234.446 184.045 234.346 183.701 234.262 183.351C233.94 182 233.686 180.633 233.499 179.257C233.271 177.357 233.034 175.152 233.041 173.042C233.041 172.072 233.073 171.032 233.131 169.951L233.177 169.032C233.21 168.254 233.261 167.477 233.332 166.702L233.395 166.029L233.456 165.409C233.489 165.192 233.528 164.974 233.573 164.756C233.456 163.919 233.606 163.006 233.761 162.226L233.865 161.721C233.93 161.387 233.995 161.048 234.073 160.717C234.131 160.451 234.193 160.185 234.255 159.919L234.267 159.811C234.371 158.815 234.479 157.786 234.722 156.808C234.714 156.138 234.714 155.468 234.722 154.798C234.664 154.432 234.632 154.042 234.732 153.714C234.739 153.461 234.755 153.204 234.772 152.948L234.782 152.782C234.807 152.24 234.875 151.692 234.943 151.152C234.94 150.935 234.967 150.719 235.025 150.51C235.031 150.465 235.04 150.42 235.054 150.377C235.138 149.822 235.229 149.267 235.324 148.711C235.455 147.921 235.572 147.128 235.677 146.334L235.621 146.477L235.781 145.649L235.861 145.149C235.936 144.739 236.044 144.324 236.151 143.915C236.359 143.137 236.616 142.224 236.956 141.344C237.19 140.75 237.43 140.158 237.676 139.568L238.014 138.738C238.177 138.338 238.336 137.935 238.491 137.532C238.667 137.084 238.842 136.639 239.024 136.195L239.064 136.101L239.114 135.968C239.149 135.961 239.182 135.949 239.213 135.932C239.849 135.628 240.492 135.338 241.141 135.062L241.359 134.968C242.148 134.692 242.999 134.396 243.875 134.13L244.102 134.062C244.379 133.98 244.657 133.899 244.94 133.822L245.398 133.695C245.713 133.604 246.028 133.515 246.346 133.442L246.554 133.396C247.329 133.217 248.107 133.054 248.888 132.909C249.752 132.758 250.617 132.621 251.485 132.497C252.47 132.391 253.456 132.3 254.443 132.224C255.413 132.151 256.384 132.1 257.356 132.071L257.45 132.068C257.787 132.055 258.125 132.048 258.466 132.048C258.986 132.048 259.512 132.061 260.034 132.075L260.291 132.085L260.527 132.091C261.372 132.114 262.242 132.175 263.115 132.282C264.3 132.471 265.453 132.744 266.625 133.026C267.956 133.354 269.089 133.701 270.083 134.084C270.937 134.487 271.641 134.854 272.313 135.331C272.483 135.484 272.644 135.643 272.793 135.815C272.833 135.87 272.869 135.932 272.904 136.009C273.177 136.85 273.307 137.766 273.424 138.578C273.502 139.204 273.567 139.763 273.608 140.325C273.635 140.711 273.648 141.098 273.661 141.487C273.667 141.73 273.674 141.967 273.686 142.202C273.75 143.487 273.828 144.772 273.92 146.055C273.96 146.62 273.992 147.182 274.021 147.747C274.057 148.415 274.095 149.087 274.151 149.757C274.238 150.792 274.391 151.844 274.524 152.772L274.661 153.731L274.725 154.227L274.804 154.795L274.823 154.955C274.953 155.964 275.076 156.941 275.245 157.88L275.08 157.893C275.096 158.38 275.099 158.876 275.073 159.386C275.245 159.363 275.405 159.334 275.567 159.302C275.752 160.188 276.001 161.117 276.301 162.055C276.508 162.691 276.749 163.292 277.014 163.841C277.125 164.059 277.244 164.276 277.379 164.481C277.839 165.198 278.495 165.611 279.177 165.611C279.872 165.587 280.401 165.181 280.911 164.791L281.027 164.705C281.105 164.646 281.18 164.587 281.255 164.535L281.443 164.4L281.514 164.35C281.819 164.133 282.131 163.91 282.469 163.724C282.55 163.681 282.632 163.64 282.713 163.601C282.943 163.516 283.167 163.441 283.408 163.393L283.485 163.413C283.502 163.441 283.531 163.471 283.557 163.5L283.657 163.649L283.69 163.753L283.739 163.909C283.544 164.643 283.553 165.263 283.771 165.805C283.836 166.035 283.953 166.237 284.125 166.418C284.391 168.558 284.411 170.623 284.18 172.546C284.076 173.192 283.933 173.951 283.657 174.676C283.512 174.974 283.337 175.263 283.129 175.565C282.817 175.93 282.47 176.263 282.092 176.559C281.673 176.871 281.229 177.149 280.765 177.389C280.655 177.406 280.612 177.406 280.569 177.406L280.482 177.289C280.386 177.174 280.265 177.082 280.129 177.02C279.992 176.958 279.843 176.928 279.693 176.932C279.476 176.932 279.268 176.987 279.103 177.087C278.972 177.163 278.858 177.265 278.767 177.387C278.676 177.509 278.611 177.647 278.576 177.795C278.505 178.091 278.55 178.38 278.703 178.613C278.813 178.793 278.93 178.977 279.07 179.139C279.164 179.25 279.35 179.445 279.515 179.523C279.752 179.63 279.937 179.711 280.151 179.766C280.367 179.819 280.589 179.843 280.811 179.838C281.485 179.821 282.095 179.555 282.606 179.296C283.426 178.884 284.185 178.361 284.862 177.741C285.079 177.542 285.258 177.305 285.423 177.081L285.518 176.961C285.908 176.438 286.151 175.818 286.355 175.227C286.557 174.659 286.629 174.013 286.68 173.497L286.713 173.25C286.771 172.73 286.803 172.178 286.813 171.52C286.831 170.282 286.778 169.043 286.654 167.811C286.592 167.172 286.515 166.535 286.424 165.899C286.487 165.753 286.512 165.593 286.498 165.435C286.486 165.396 286.486 165.36 286.482 165.321C286.518 165.178 286.56 165.036 286.605 164.896L286.641 164.779C286.667 164.701 286.693 164.623 286.713 164.546C286.781 164.292 286.836 164.039 286.888 163.786C287.011 163.133 287.138 162.438 287.186 161.727C287.249 160.704 287.229 159.685 287.21 158.697L287.203 158.243L287.196 157.977C287.188 157.191 287.165 156.405 287.125 155.62C287.275 155.23 287.427 154.838 287.56 154.441C287.625 154.247 287.693 154.055 287.761 153.861C287.885 153.503 288.008 153.146 288.112 152.789L288.232 152.38L288.635 151.004C288.741 150.643 288.82 150.279 288.901 149.916L289.011 149.416C289.258 148.366 289.445 147.302 289.571 146.23L289.621 145.786C289.671 145.399 289.719 145.01 289.745 144.624L289.778 144.097L289.814 143.565L289.829 143.351C289.844 143.181 289.854 143.011 289.859 142.841L289.869 141.893L289.882 140.941C289.881 140.381 289.858 139.821 289.814 139.263C289.758 138.402 289.648 137.545 289.485 136.698C289.339 135.938 289.105 135.191 288.881 134.468L288.775 134.133C288.645 133.711 288.489 133.296 288.333 132.883L288.242 132.646C287.742 131.318 287.145 129.782 286.368 128.37C285.768 127.28 285.011 126.292 284.352 125.474L284.086 125.149C283.844 124.845 283.595 124.545 283.342 124.249L283.112 123.984C282.462 123.234 281.79 122.458 281.086 121.737C280.664 121.303 280.232 120.878 279.791 120.464C279.407 120.104 278.979 119.779 278.561 119.467L278.361 119.317C277.479 118.658 276.572 118.033 275.641 117.445C274.699 116.831 273.693 116.321 272.641 115.925L272.368 115.821C272.17 115.747 271.973 115.672 271.771 115.604C271.145 115.386 270.459 115.218 269.544 115.056C268.735 114.918 268.122 114.854 267.554 114.844C267.216 114.838 266.878 114.834 266.541 114.831H266.456V114.831Z" fill="#161616"/>
<path fill-rule="evenodd" clip-rule="evenodd" d="M280.114 171.624C280.097 171.639 280.078 171.653 280.059 171.666L280.114 171.624ZM280.313 169.582L280.305 169.642L280.313 169.582ZM280.082 168.924C280.064 168.931 280.047 168.938 280.029 168.944L280.082 168.924ZM280.24 168.891C280.254 168.916 280.265 168.943 280.273 168.971C280.263 168.946 280.253 168.917 280.24 168.891ZM280.133 168.835C280.16 168.843 280.183 168.853 280.208 168.865H280.205C280.182 168.855 280.158 168.843 280.133 168.835ZM280.136 168.045C280.06 168.048 279.985 168.066 279.916 168.098C279.718 168.171 279.529 168.265 279.351 168.378C279.256 168.434 279.187 168.526 279.159 168.632C279.131 168.739 279.146 168.852 279.201 168.948C279.258 169.043 279.35 169.111 279.457 169.139C279.563 169.167 279.677 169.152 279.773 169.098C279.885 169.03 279.995 168.971 280.113 168.912C280.148 168.897 280.185 168.885 280.221 168.874H280.228L280.234 168.879V168.881C280.273 168.979 280.306 169.076 280.331 169.176C280.334 169.305 280.328 169.429 280.315 169.556C280.268 169.911 280.223 170.271 280.182 170.627C280.149 170.907 280.155 171.188 280.131 171.467C280.125 171.498 280.118 171.529 280.108 171.559C280.09 171.597 280.07 171.633 280.047 171.668L280.036 171.68C280.016 171.692 279.995 171.702 279.974 171.71C279.767 171.815 279.708 172.104 279.821 172.296C279.879 172.391 279.971 172.461 280.078 172.491C280.198 172.526 280.296 172.497 280.407 172.448C280.532 172.39 280.643 172.306 280.732 172.201C280.822 172.096 280.888 171.973 280.926 171.841C280.991 171.634 281 171.422 281.003 171.208C281.007 170.916 281.026 170.624 281.059 170.334C281.075 170.169 281.095 170.004 281.117 169.834C281.134 169.692 281.157 169.546 281.17 169.399C281.185 169.179 281.154 168.958 281.078 168.75C281.035 168.614 280.973 168.485 280.893 168.367C280.855 168.305 280.803 168.254 280.741 168.217L280.656 168.156C280.59 168.126 280.524 168.097 280.458 168.069C280.388 168.052 280.316 168.04 280.244 168.033C280.208 168.036 280.172 168.043 280.136 168.045V168.045ZM265.835 194.412C265.577 194.5 265.328 194.61 265.089 194.74C264.987 194.792 264.883 194.84 264.779 194.886C264.724 195.282 264.542 195.65 264.26 195.934C263.905 196.293 263.532 196.638 263.165 196.986C263.238 196.978 263.311 196.968 263.385 196.958C263.672 196.915 263.948 196.866 264.231 196.776C264.725 196.613 265.166 196.331 265.601 196.052C265.764 195.946 265.918 195.828 266.062 195.698C266.218 195.558 266.336 195.389 266.462 195.226C266.579 195.074 266.552 194.821 266.462 194.669C266.412 194.585 266.341 194.516 266.257 194.467C266.172 194.418 266.077 194.392 265.979 194.391C265.93 194.391 265.882 194.397 265.835 194.411" fill="#161616"/>
<path fill-rule="evenodd" clip-rule="evenodd" d="M265.563 194.99C265.567 195.019 265.573 195.048 265.573 195.077L265.563 194.99ZM265.993 194.356C265.841 194.4 265.713 194.501 265.633 194.638C265.554 194.774 265.53 194.936 265.567 195.09C265.553 195.11 265.541 195.133 265.527 195.152C265.463 195.223 265.397 195.285 265.323 195.347C265.246 195.399 265.166 195.447 265.083 195.49C264.892 195.559 264.695 195.612 264.494 195.648C264.426 195.751 264.349 195.847 264.262 195.935C263.832 196.366 263.378 196.778 262.94 197.201L262.79 197.343C263.364 197.308 263.935 197.236 264.499 197.126C264.784 197.068 265.063 196.98 265.329 196.863C265.639 196.73 265.897 196.551 266.144 196.323C266.359 196.126 266.537 195.883 266.664 195.623C266.794 195.353 266.817 195.068 266.735 194.779C266.691 194.626 266.588 194.496 266.449 194.417C266.311 194.338 266.147 194.316 265.992 194.356H265.993ZM256.31 150.613L256.245 150.642C256.267 150.632 256.291 150.622 256.31 150.612V150.613ZM263.94 146.794C263.761 146.814 263.582 146.84 263.404 146.872C263.154 146.922 262.927 147.042 262.693 147.145C262.758 147.115 262.823 147.09 262.884 147.064C262.284 147.314 261.706 147.603 261.131 147.911C260.595 148.204 260.082 148.528 259.56 148.833C259.033 149.139 258.508 149.441 257.982 149.739C257.456 150.043 256.917 150.326 256.368 150.587C256.253 150.631 256.135 150.667 256.015 150.694C255.875 150.7 255.739 150.694 255.601 150.684C255.453 150.652 255.307 150.612 255.163 150.564C255.018 150.497 254.876 150.424 254.738 150.344C254.521 150.139 254.332 149.914 254.046 149.778C253.806 149.664 253.576 149.613 253.313 149.684C253.075 149.75 252.873 149.906 252.748 150.119C252.501 150.538 252.622 151.194 253.088 151.419C253.118 151.431 253.144 151.447 253.17 151.463C253.219 151.509 253.268 151.558 253.31 151.609C253.511 151.856 253.803 152.002 254.102 152.099C254.217 152.138 254.338 152.16 254.459 152.182C254.483 152.176 254.506 152.171 254.53 152.168C255.284 152.061 256.005 151.83 256.732 151.609C257.332 151.425 257.95 151.288 258.546 151.096C258.701 151.047 258.854 150.995 259.006 150.938C259.567 150.618 260.124 150.291 260.676 149.957C261.407 149.516 262.141 149.103 262.92 148.756C263.099 148.69 263.28 148.629 263.469 148.586C263.625 148.584 263.784 148.61 263.939 148.626L264.466 148.684C265.368 148.827 266.235 149.107 267.102 149.398C267.56 149.551 268.021 149.697 268.485 149.834C269.135 150.025 270.011 150.35 270.553 149.768C270.78 149.525 270.943 149.122 270.813 148.792C270.735 148.59 270.686 148.453 270.53 148.302C270.375 148.142 270.193 148.08 269.992 147.999C269.862 147.944 269.696 147.93 269.559 147.895C269.284 147.827 269.01 147.752 268.739 147.668C268.125 147.489 267.517 147.291 266.897 147.138C266.229 146.97 265.543 146.814 264.852 146.788C264.686 146.782 264.524 146.775 264.359 146.775C264.219 146.775 264.079 146.782 263.939 146.795L263.94 146.794ZM237.731 148.755C237.51 148.801 237.29 148.937 237.088 149.041C236.568 149.304 236.059 149.587 235.562 149.891C235.338 150.028 235.112 150.164 234.89 150.304C234.835 150.339 234.783 150.375 234.728 150.408C234.631 150.449 234.539 150.499 234.452 150.558C234.381 150.603 234.312 150.654 234.253 150.713C234.174 150.786 234.117 150.879 234.087 150.982C234.058 151.085 234.057 151.194 234.085 151.298C234.149 151.535 234.387 151.736 234.64 151.719C234.822 151.71 234.984 151.625 235.16 151.577C235.355 151.518 235.552 151.467 235.75 151.417C236.085 151.336 236.413 151.239 236.738 151.126C236.971 151.044 237.198 150.937 237.445 150.888C237.663 150.875 237.886 150.898 238.101 150.915C238.361 150.936 238.621 150.96 238.878 150.989L238.821 150.979C238.846 150.982 238.871 150.985 238.895 150.99L238.916 150.992C239.205 151.034 239.491 151.08 239.78 151.128C239.932 151.155 240.081 151.184 240.231 151.213C240.416 151.252 240.594 151.313 240.776 151.375C241.452 151.596 242.098 151.891 242.76 152.151L242.785 152.161L242.958 152.215C243.041 152.237 243.126 152.255 243.208 152.275C243.438 152.327 243.67 152.362 243.903 152.369C244.047 152.37 244.192 152.364 244.335 152.349C244.523 152.333 244.738 152.337 244.916 152.278C245.102 152.222 245.259 152.096 245.354 151.927C245.406 151.827 245.462 151.726 245.51 151.625C245.682 151.285 245.854 150.947 246.024 150.603C246.154 150.343 246.097 150.028 245.834 149.876C245.594 149.736 245.234 149.807 245.104 150.066C244.931 150.423 244.732 150.767 244.51 151.096C244.275 151.109 244.038 151.109 243.803 151.093C243.79 151.089 243.777 151.087 243.763 151.087C243.741 151.071 243.719 151.057 243.695 151.044C243.555 150.973 243.409 150.914 243.267 150.856C242.696 150.593 242.182 150.226 241.621 149.947C241.302 149.787 240.961 149.671 240.627 149.547C240.328 149.437 240.027 149.329 239.731 149.21C239.78 149.229 239.828 149.249 239.877 149.271C239.397 149.067 238.9 148.876 238.387 148.771C238.258 148.744 238.126 148.73 237.994 148.729C237.906 148.729 237.818 148.736 237.731 148.755" fill="#161616"/>
<path fill-rule="evenodd" clip-rule="evenodd" d="M238.906 150.992C238.903 150.991 238.9 150.991 238.896 150.991L238.878 150.988L238.906 150.992ZM257.724 151.334C257.999 151.26 258.274 151.184 258.545 151.097C259.009 150.952 259.467 150.76 259.922 150.577L260.016 150.537C259.222 150.709 258.464 151 257.724 151.334V151.334ZM241.163 151.565L241.063 151.575C241.525 151.695 241.973 151.896 242.426 152.045C243.173 152.292 243.929 152.519 244.702 152.662C244.702 152.659 244.705 152.659 244.705 152.659C244.919 152.554 245.14 152.471 245.365 152.422C245.169 152.339 244.971 152.268 244.773 152.192C244.591 152.123 244.409 152.052 244.225 151.987C244.023 151.916 243.815 151.863 243.614 151.805C243.439 151.755 243.264 151.698 243.088 151.659C242.85 151.611 242.61 151.572 242.368 151.542C242.229 151.526 242.089 151.518 241.948 151.519C241.686 151.519 241.422 151.542 241.163 151.565" fill="#161616"/>
<path fill-rule="evenodd" clip-rule="evenodd" d="M246.935 148.43C246.884 148.43 246.834 148.433 246.783 148.437C246.643 148.456 246.501 148.472 246.358 148.495C246.094 148.531 245.832 148.573 245.566 148.612C245.403 148.638 245.244 148.784 245.166 148.92C245.118 149.003 245.088 149.095 245.078 149.19C245.068 149.285 245.078 149.381 245.108 149.472C245.092 149.503 245.077 149.534 245.062 149.566C244.987 149.719 244.916 149.878 244.844 150.034C244.757 150.222 244.669 150.411 244.582 150.602C244.539 150.693 244.497 150.787 244.455 150.878L244.38 151.041C244.338 151.13 244.308 151.225 244.292 151.322C244.277 151.433 244.286 151.537 244.37 151.622C244.411 151.662 244.462 151.691 244.518 151.704C244.573 151.717 244.632 151.714 244.686 151.696C244.65 151.775 244.632 151.86 244.634 151.947C244.636 152.033 244.658 152.118 244.697 152.194C244.737 152.271 244.793 152.338 244.862 152.39C244.931 152.442 245.011 152.477 245.096 152.494C245.255 152.44 245.419 152.402 245.585 152.383C245.727 152.275 245.833 152.13 245.942 151.988C246.079 151.813 246.215 151.638 246.354 151.465C246.766 150.953 247.125 150.4 247.426 149.816C247.487 149.696 247.552 149.583 247.608 149.459L247.676 149.304C247.705 149.189 247.705 149.068 247.676 148.953C247.63 148.793 247.513 148.605 247.361 148.537C247.247 148.476 247.123 148.44 246.994 148.43H246.935V148.43ZM255.563 150.579L255.562 150.578L255.563 150.579ZM253.02 150.03L253.202 150.224C253.285 150.311 253.374 150.394 253.463 150.474C253.38 150.426 253.299 150.375 253.22 150.32C253.124 150.241 253.035 150.152 252.955 150.056C252.978 150.049 252.999 150.041 253.02 150.03V150.03ZM252.153 148.848C252.051 148.88 251.958 148.937 251.883 149.013C251.845 149.059 251.806 149.105 251.771 149.153C251.741 149.209 251.715 149.263 251.696 149.322C251.653 149.438 251.635 149.562 251.644 149.686C251.647 149.773 251.664 149.861 251.679 149.949C251.692 150.014 251.715 150.076 251.747 150.134C251.881 150.425 252.061 150.692 252.28 150.926C252.491 151.153 252.754 151.325 253.027 151.465C253.313 151.611 253.611 151.741 253.917 151.845C254.199 151.943 254.592 152.095 254.861 151.897C254.948 151.842 255.012 151.758 255.043 151.66C255.055 151.617 255.058 151.572 255.053 151.527C255.13 151.547 255.208 151.565 255.287 151.578C255.43 151.601 255.556 151.601 255.686 151.524C255.745 151.491 255.796 151.447 255.837 151.394C255.878 151.341 255.909 151.28 255.926 151.215C255.961 151.08 255.943 150.937 255.874 150.815C255.845 150.78 255.819 150.744 255.793 150.712C255.731 150.649 255.653 150.604 255.568 150.58C255.455 150.525 255.342 150.472 255.228 150.42C255.061 150.341 254.901 150.248 254.75 150.14C254.577 149.991 254.403 149.843 254.228 149.696C254.138 149.618 254.046 149.543 253.962 149.461C253.884 149.387 253.81 149.306 253.722 149.235C253.606 149.136 253.478 149.051 253.342 148.981C253.138 148.879 252.905 148.851 252.683 148.904C252.662 148.895 252.64 148.886 252.618 148.877C252.524 148.841 252.432 148.835 252.332 148.822C252.271 148.822 252.211 148.831 252.153 148.848V148.848ZM256.6 181.73C256.257 181.756 255.916 181.785 255.575 181.812C254.838 181.873 254.097 181.925 253.357 181.981C252.672 182.032 251.987 182.107 251.302 182.171C250.962 182.201 250.624 182.279 250.285 182.337C249.837 182.415 249.396 182.493 248.955 182.597C248.607 182.682 248.403 183.071 248.497 183.406C248.545 183.573 248.657 183.714 248.808 183.799C248.959 183.885 249.137 183.908 249.305 183.863C249.984 183.704 250.67 183.596 251.358 183.478C252.437 183.375 253.517 183.278 254.598 183.188C255.104 183.146 255.608 183.103 256.114 183.055C256.364 183.032 256.614 183.006 256.864 182.977C257.137 182.948 257.425 182.935 257.665 182.788C258.098 182.526 258.019 181.853 257.525 181.718C257.421 181.69 257.313 181.677 257.205 181.678C257.002 181.678 256.795 181.713 256.601 181.73" fill="#161616"/>
<path fill-rule="evenodd" clip-rule="evenodd" d="M263.203 147.584C262.793 147.727 262.43 147.957 262.066 148.189C261.722 148.409 261.391 148.646 261.046 148.867C260.702 149.087 260.372 149.331 260.021 149.545C259.656 149.766 259.287 149.98 258.914 150.188C258.648 150.331 258.376 150.464 258.099 150.588C257.531 150.809 256.958 151.054 256.356 151.175C255.921 151.216 255.483 151.248 255.048 151.212C254.912 151.187 254.778 151.153 254.646 151.11C254.481 151.014 254.323 150.907 254.172 150.79C253.99 150.637 253.814 150.476 253.644 150.308C253.48 150.139 253.328 149.958 253.189 149.768L253.209 149.795C253.135 149.69 253.063 149.588 253.003 149.477L252.995 149.451C252.859 149.02 252.42 148.746 251.972 148.871C251.547 148.986 251.254 149.461 251.391 149.892C251.585 150.51 252.043 151.016 252.436 151.519C252.692 151.851 253.004 152.137 253.306 152.425C253.371 152.487 253.436 152.545 253.504 152.604C253.712 152.782 253.946 152.896 254.206 152.99C254.619 153.118 255.05 153.18 255.482 153.172C256.034 153.156 256.586 153.104 257.112 152.932C257.556 152.789 257.989 152.582 258.41 152.38C258.803 152.188 259.183 151.974 259.56 151.757C260.283 151.341 260.975 150.873 261.673 150.415C261.884 150.275 262.103 150.149 262.313 150.013C262.54 149.867 262.761 149.715 262.991 149.568C263.196 149.441 263.401 149.311 263.608 149.192C263.772 149.098 263.948 149.023 264.121 148.944C264.298 148.886 264.479 148.842 264.663 148.813C264.95 148.789 265.236 148.785 265.524 148.812C265.985 148.885 266.438 149.009 266.888 149.129C267.41 149.272 267.929 149.429 268.448 149.591C268.56 149.622 268.679 149.619 268.789 149.582C268.899 149.545 268.996 149.476 269.066 149.384C269.137 149.292 269.179 149.181 269.186 149.066C269.194 148.95 269.167 148.834 269.108 148.734C269.024 148.591 268.907 148.529 268.758 148.464C267.927 148.117 267.076 147.782 266.202 147.555C265.701 147.419 265.184 147.347 264.664 147.343C264.17 147.343 263.677 147.416 263.203 147.584" fill="#161616"/>
<path fill-rule="evenodd" clip-rule="evenodd" d="M260.161 153.645C260.185 153.648 260.211 153.65 260.237 153.655C260.211 153.652 260.185 153.649 260.159 153.645H260.161V153.645ZM260.141 153.643C260.147 153.643 260.153 153.643 260.16 153.645H260.158L260.141 153.643ZM260.289 153.619L260.227 153.629C260.247 153.625 260.268 153.621 260.289 153.619V153.619ZM260.341 153.569C260.328 153.576 260.317 153.579 260.304 153.585L260.341 153.57V153.569ZM260.494 153.1C260.53 153.101 260.564 153.106 260.597 153.114L260.494 153.099V153.1ZM260.53 153.035C260.562 153.056 260.593 153.08 260.623 153.105H260.622L260.53 153.035V153.035ZM260.004 153.022L260.048 153.05C260.23 153.157 260.414 153.166 260.612 153.136C260.564 153.232 260.511 153.324 260.451 153.413C260.403 153.467 260.352 153.518 260.299 153.567C260.274 153.583 260.247 153.599 260.221 153.614C260.199 153.62 260.178 153.626 260.156 153.632H260.087C260.075 153.629 260.064 153.626 260.052 153.622C260.048 153.618 260.044 153.614 260.039 153.611C259.994 153.54 259.952 153.466 259.913 153.391C259.938 153.267 259.968 153.144 260.004 153.022V153.022ZM259.529 150.528C258.992 150.748 258.649 151.223 258.46 151.754C258.312 151.995 258.191 152.251 258.098 152.518C258.055 152.638 258.036 152.768 258.016 152.892C257.987 153.083 257.97 153.276 257.965 153.469C257.958 153.755 258.009 154.047 258.071 154.323C258.13 154.606 258.26 154.881 258.409 155.125C258.556 155.369 258.753 155.586 258.977 155.758L259.13 155.878C259.224 155.947 259.328 155.998 259.438 156.034C259.513 156.076 259.596 156.102 259.682 156.109C259.784 156.129 259.885 156.142 259.988 156.142C260.224 156.237 260.485 156.27 260.738 156.203C261 156.135 261.254 156.024 261.478 155.869C261.773 155.661 261.987 155.379 262.158 155.067C262.301 154.788 262.407 154.491 262.474 154.184C262.548 153.874 262.591 153.557 262.624 153.239C262.691 152.606 262.61 151.911 262.257 151.369C262.041 151.055 261.731 150.817 261.372 150.689C261.308 150.643 261.241 150.601 261.172 150.564C260.915 150.417 260.61 150.388 260.322 150.384H260.297C260.037 150.384 259.768 150.433 259.529 150.528Z" fill="#161616"/>
<path fill-rule="evenodd" clip-rule="evenodd" d="M265.009 155.051C264.823 155.054 264.635 155.088 264.449 155.12C264.005 155.174 263.564 155.241 263.119 155.291C262.532 155.353 261.944 155.418 261.353 155.45C259.87 155.532 258.387 155.595 256.902 155.639C256.399 155.655 255.98 156.048 255.98 156.56C255.98 157.05 256.399 157.495 256.902 157.48C258.395 157.434 259.886 157.38 261.379 157.301C262.006 157.269 262.626 157.204 263.249 157.139C263.603 157.099 263.957 157.051 264.307 156.999C264.694 156.944 265.117 156.924 265.467 156.739C265.821 156.551 265.987 156.097 265.882 155.717C265.828 155.528 265.715 155.361 265.559 155.241C265.403 155.121 265.213 155.055 265.016 155.051H265.009V155.051ZM261.878 150.234C261.553 150.234 261.229 150.244 260.904 150.257C260.508 150.278 260.114 150.32 259.722 150.381C259.388 150.424 259.055 150.483 258.726 150.556C258.193 150.682 257.709 150.919 257.22 151.153C256.944 151.287 256.664 151.416 256.388 151.546C255.7 151.872 255.025 152.223 254.362 152.598C254.145 152.728 253.988 152.938 253.924 153.182C253.861 153.427 253.896 153.687 254.022 153.906C254.152 154.123 254.361 154.281 254.605 154.345C254.85 154.41 255.109 154.376 255.329 154.251C256.434 153.63 257.59 153.095 258.745 152.571C259.347 152.358 259.968 152.256 260.595 152.151C260.943 152.109 261.291 152.081 261.641 152.055C262.093 152.023 262.57 152.02 263.004 151.89C263.173 151.842 263.322 151.741 263.429 151.601C263.535 151.461 263.594 151.291 263.595 151.115C263.595 150.735 263.346 150.461 263.005 150.338C262.755 150.247 262.479 150.231 262.207 150.231C262.097 150.231 261.987 150.234 261.878 150.234V150.234ZM241.184 151.826C240.321 151.894 239.464 152.041 238.645 152.336C238.291 152.459 237.95 152.619 237.629 152.813C237.451 152.923 237.282 153.063 237.139 153.219C236.918 153.456 236.766 153.839 236.869 154.161C236.947 154.394 237.064 154.586 237.279 154.713C237.409 154.788 237.6 154.846 237.749 154.833C237.916 154.829 238.079 154.781 238.223 154.696C238.258 154.677 238.292 154.654 238.327 154.631C238.771 154.355 239.256 154.137 239.737 153.931C239.952 153.853 240.167 153.774 240.387 153.705C240.523 153.682 240.658 153.661 240.794 153.643C241.129 153.604 241.465 153.576 241.804 153.56C242.182 153.54 242.559 153.565 242.933 153.607C243.324 153.666 243.708 153.751 244.079 153.892C244.317 154.007 244.544 154.134 244.772 154.265C244.996 154.395 245.232 154.545 245.502 154.517C245.652 154.515 245.796 154.456 245.905 154.352C246.022 154.235 246.054 154.105 246.074 153.946C246.116 153.57 245.807 153.238 245.57 152.982C245.425 152.833 245.265 152.699 245.093 152.582C244.733 152.323 244.327 152.16 243.905 152.034C243.487 151.908 243.041 151.862 242.61 151.816C242.416 151.797 242.221 151.788 242.026 151.789C241.746 151.789 241.463 151.805 241.184 151.826" fill="#161616"/>
<path fill-rule="evenodd" clip-rule="evenodd" d="M242.194 155.719L242.19 155.722L242.194 155.719ZM242.078 155.472L242.123 155.528L242.078 155.472ZM242.149 155.225L242.159 155.232C242.22 155.267 242.286 155.294 242.355 155.311C242.335 155.397 242.311 155.484 242.284 155.569C242.239 155.559 242.194 155.548 242.15 155.535L242.132 155.475C242.132 155.402 242.137 155.331 242.142 155.259L242.149 155.225V155.225ZM242.186 152.241C241.878 152.315 241.583 152.434 241.31 152.595C241.17 152.677 241.01 152.803 240.894 152.907C240.781 153.005 240.677 153.114 240.584 153.232C240.474 153.37 240.374 153.515 240.284 153.667C240.193 153.827 240.121 153.999 240.05 154.164C239.918 154.463 239.809 154.773 239.725 155.089C239.647 155.404 239.624 155.794 239.709 156.112C239.818 156.544 240.056 156.933 240.392 157.227L240.472 157.381C240.612 157.647 240.867 157.839 241.114 158.001C241.238 158.083 241.387 158.125 241.524 158.183C241.705 158.258 241.936 158.294 242.131 158.303C242.457 158.325 242.783 158.281 243.091 158.173C243.41 158.053 243.676 157.855 243.913 157.612C244.137 157.385 244.303 157.092 244.433 156.8C244.586 156.454 244.693 156.09 244.751 155.716C244.858 155.089 244.865 154.466 244.692 153.849C244.654 153.717 244.604 153.588 244.542 153.465C244.557 153.45 244.57 153.433 244.582 153.415C244.622 153.345 244.632 153.262 244.612 153.185C244.591 153.107 244.541 153.04 244.472 152.999C244.333 152.919 244.188 152.849 244.04 152.787C243.82 152.595 243.567 152.445 243.293 152.343C243.065 152.249 242.821 152.2 242.575 152.199C242.445 152.199 242.315 152.212 242.185 152.241" fill="#161616"/>
<path fill-rule="evenodd" clip-rule="evenodd" d="M241.948 156.958C241.059 156.954 240.171 156.931 239.283 156.889C238.741 156.867 238.286 157.361 238.286 157.89C238.286 158.451 238.741 158.864 239.283 158.887C240.186 158.929 241.088 158.962 241.991 158.981L242.34 158.988C242.496 159.057 242.664 159.094 242.834 159.098C243.507 159.114 244.179 159.117 244.848 159.134C244.846 159.132 244.844 159.13 244.842 159.129C245.053 159.127 245.261 159.071 245.445 158.967C245.629 158.863 245.783 158.713 245.893 158.533C246.273 157.88 245.936 156.935 245.169 156.76C244.413 156.584 243.611 156.598 242.834 156.588H242.813C242.478 156.588 242.173 156.732 241.948 156.958V156.958ZM251.832 195.395C251.815 195.338 251.802 195.279 251.792 195.22L251.773 195.038C252.007 195.051 252.247 195.054 252.491 195.067L253.007 195.097C253.357 195.119 253.708 195.138 254.059 195.145L254.579 195.148C254.909 195.148 255.244 195.142 255.575 195.109C255.071 195.187 254.601 195.275 254.124 195.34L254.286 195.337C253.741 195.395 253.326 195.477 252.936 195.584C252.629 195.672 252.318 195.745 252.004 195.801C251.986 195.664 251.931 195.535 251.844 195.428C251.848 195.431 251.864 195.453 251.867 195.453V195.45L251.871 195.453L251.831 195.395H251.832ZM250.5 187.6C250.499 187.42 250.428 187.248 250.302 187.12C250.384 187.09 250.464 187.051 250.546 187.012C250.76 186.927 250.99 186.866 251.27 186.817C251.679 186.775 252.085 186.768 252.39 186.768L252.92 186.775C253.513 186.782 254.027 186.843 254.507 186.905L254.64 186.925C254.884 186.966 255.137 187.005 255.374 187.087C255.432 187.116 255.49 187.148 255.549 187.187L255.719 187.32L255.598 187.356C255.4 187.382 255.202 187.414 255.003 187.444L254.754 187.482C254.448 187.525 254.15 187.577 253.848 187.625L253.178 187.733C252.789 187.778 252.397 187.824 252.004 187.846L251.78 187.86C251.63 187.869 251.48 187.879 251.331 187.886L251.121 187.896C250.942 187.905 250.767 187.915 250.591 187.915H250.488C250.498 187.814 250.498 187.707 250.5 187.6V187.6ZM254.858 184.775C254.15 184.775 253.432 184.837 252.741 184.895L252.176 184.944C251.667 184.981 251.162 185.06 250.666 185.178C250.408 185.24 250.158 185.333 249.922 185.454C249.787 185.331 249.612 185.262 249.429 185.259C249.234 185.259 249.046 185.336 248.906 185.473C248.755 185.625 248.709 185.789 248.686 185.995C249.169 186.22 249.559 186.635 249.679 187.177C249.832 187.872 249.942 188.599 250.179 189.275C250.273 189.476 250.367 189.678 250.416 189.889C250.481 190.178 250.51 190.473 250.549 190.766C250.599 191.161 250.646 191.551 250.649 191.95C250.656 192.98 250.394 193.954 250.133 194.937C250.07 195.17 249.961 195.388 249.813 195.579C249.664 195.769 249.48 195.929 249.27 196.048C249.4 196.36 249.622 196.625 249.907 196.807C249.955 196.85 250 196.899 250.043 196.944C250.098 196.999 250.153 197.054 250.215 197.104C250.53 197.359 250.9 197.486 251.409 197.522C251.964 197.555 252.521 197.533 253.071 197.454C253.341 197.424 253.614 197.392 253.887 197.382C254.075 197.376 254.264 197.372 254.451 197.369C254.691 197.366 254.935 197.362 255.179 197.35L255.455 197.333C255.734 197.318 256.016 197.301 256.299 197.301L256.49 197.304H256.607C257.013 197.304 257.423 197.255 257.793 197.164C258.231 197.057 258.559 196.882 258.793 196.623C259.01 196.382 259.153 196.116 259.305 195.836L259.374 195.71L259.685 195.126L260 194.538C260.166 194.233 260.354 193.938 260.542 193.642L260.744 193.33C261.004 192.908 261.237 192.425 261.461 191.844C261.637 191.386 261.659 190.846 261.526 190.372C261.484 190.23 261.429 190.093 261.364 189.96L261.299 189.817C261.186 189.554 260.994 189.32 260.809 189.09L260.653 188.899C260.312 188.453 259.943 188.009 259.559 187.577C259.427 187.425 259.296 187.273 259.166 187.119C258.961 186.876 258.754 186.629 258.533 186.395C258.244 186.087 257.877 185.801 257.387 185.495L257.221 185.392C257.062 185.292 256.903 185.191 256.737 185.099C256.199 184.798 255.588 184.775 254.903 184.775H254.858V184.775Z" fill="#161616"/>
<path fill-rule="evenodd" clip-rule="evenodd" d="M254.124 195.34L254.052 195.35L254.124 195.347V195.34ZM252.286 198.883L252.232 198.89L252.286 198.883ZM243.985 191.816C243.925 192.121 243.881 192.426 243.845 192.735C243.809 193.072 243.855 193.406 243.9 193.741C243.952 194.127 244.101 194.501 244.234 194.864C244.327 195.122 244.439 195.37 244.565 195.611C244.455 195.61 244.346 195.626 244.241 195.66C243.745 195.813 243.377 196.254 243.384 196.787C243.387 197.218 243.588 197.62 243.777 198C244.014 198.485 244.368 198.92 244.709 199.332C245.063 199.754 245.543 200.102 245.995 200.413C246.589 200.823 247.245 201.101 247.904 201.381C248.65 201.699 249.42 201.968 250.205 202.159C250.758 202.294 251.321 202.381 251.888 202.419C252.193 202.442 252.508 202.413 252.816 202.387C253.23 202.354 253.643 202.314 254.056 202.267C254.368 202.231 254.621 202.169 254.852 201.939C255.032 201.756 255.145 201.518 255.172 201.263C255.567 201.254 255.962 201.269 256.355 201.308C256.457 201.328 256.557 201.354 256.655 201.386C256.993 201.549 257.325 201.736 257.715 201.728C257.975 201.721 258.287 201.689 258.51 201.533C258.745 201.374 258.917 201.231 259.066 200.987C259.296 200.607 259.365 200.177 259.41 199.741C259.449 199.331 259.481 198.903 259.258 198.536C259.111 198.299 258.968 198.186 258.751 198.024C258.563 197.881 258.251 197.854 258.03 197.841C257.887 197.831 257.74 197.858 257.599 197.867C257.423 197.884 257.244 197.894 257.066 197.907C256.286 197.962 255.504 198.107 254.734 198.241C254.364 198.303 253.994 198.361 253.621 198.413C253.264 198.465 252.887 198.501 252.611 198.763C252.587 198.785 252.564 198.808 252.541 198.831C252.483 198.847 252.424 198.86 252.365 198.87C252.181 198.892 251.996 198.896 251.811 198.883C251.604 198.844 251.4 198.786 251.203 198.71C250.586 198.428 249.988 198.105 249.413 197.744C248.851 197.394 248.286 197.054 247.749 196.661C247.182 196.199 246.611 195.739 246.146 195.173C245.8 194.709 245.476 194.231 245.232 193.705C245.17 193.534 245.122 193.358 245.089 193.179C245.072 192.966 245.075 192.752 245.098 192.54C245.115 192.406 245.136 192.273 245.16 192.14C245.222 191.812 245.075 191.485 244.735 191.39C244.685 191.377 244.633 191.37 244.581 191.37C244.316 191.37 244.036 191.542 243.985 191.816" fill="#161616"/>
<path fill-rule="evenodd" clip-rule="evenodd" d="M258.082 199.811L258.081 199.818V199.811H258.082ZM264.263 186.841C264.179 186.889 264.105 186.954 264.046 187.031C263.987 187.107 263.944 187.195 263.919 187.289C263.861 187.5 263.907 187.672 263.994 187.867L264.078 188.055C264.33 188.673 264.536 189.3 264.641 189.96C264.672 190.314 264.665 190.66 264.632 191.013C264.559 191.457 264.474 191.899 264.37 192.337C264.255 192.82 264.108 193.285 263.94 193.755C263.777 194.119 263.608 194.476 263.406 194.821C263.196 195.181 262.966 195.519 262.718 195.853C262.253 196.381 261.755 196.863 261.214 197.313C260.711 197.672 260.188 198.003 259.663 198.331C258.997 198.75 258.065 199.156 258.049 200.065L258.053 200.032C258.041 200.464 258.28 200.848 258.724 200.983C258.735 200.986 258.745 200.988 258.754 200.992L258.728 200.98C258.841 201.024 258.928 201.043 259.118 201.051C259.26 201.058 259.426 201.022 259.568 200.983C259.863 200.898 260.146 200.776 260.41 200.62C260.854 200.363 261.28 200.078 261.701 199.789C262.646 199.146 263.493 198.357 264.153 197.415C264.442 197.003 264.728 196.578 264.945 196.123C265.208 195.565 265.448 195.003 265.653 194.423C265.804 193.967 265.917 193.498 265.99 193.023C266.082 192.451 266.16 191.883 266.215 191.309C266.358 189.831 265.886 188.435 265.29 187.107C265.178 186.864 264.91 186.743 264.647 186.743C264.513 186.741 264.38 186.775 264.263 186.841V186.841ZM250.77 185.592C250.751 185.596 250.732 185.599 250.713 185.602L250.769 185.592H250.77ZM252.382 184.919C252.136 184.922 251.889 184.919 251.642 184.922C251.389 184.919 251.137 184.935 250.886 184.968C250.766 184.988 250.646 185.004 250.529 185.03C250.386 185.062 250.244 185.098 250.103 185.137C249.88 185.196 249.66 185.262 249.441 185.335C249.383 185.355 249.328 185.377 249.272 185.403C249.205 185.426 249.143 185.462 249.088 185.507C249.035 185.545 248.985 185.588 248.938 185.634C248.852 185.702 248.775 185.781 248.708 185.868C248.676 185.902 248.651 185.943 248.636 185.988C248.624 186.019 248.613 186.05 248.604 186.082C248.561 186.205 248.649 186.338 248.769 186.37C248.896 186.406 249.016 186.329 249.058 186.208C249.063 186.192 249.068 186.177 249.074 186.162L249.117 186.108C249.103 186.124 249.093 186.14 249.081 186.157C249.125 186.104 249.176 186.056 249.233 186.017C249.283 185.977 249.336 185.941 249.393 185.912C249.623 185.832 249.867 185.78 250.103 185.722C250.303 185.672 250.503 185.638 250.703 185.603C250.851 185.587 250.998 185.573 251.146 185.569C251.318 185.562 251.49 185.566 251.662 185.566C251.999 185.569 252.334 185.572 252.668 185.562C253.003 185.556 253.334 185.54 253.665 185.54C254.039 185.537 254.412 185.52 254.785 185.504C254.912 185.498 255.015 185.403 255.015 185.274C255.015 185.144 254.912 185.055 254.785 185.046C254.608 185.032 254.43 185.017 254.253 185.001C254.133 184.987 254.013 184.968 253.893 184.955C253.627 184.929 253.36 184.914 253.093 184.91H252.996C252.793 184.91 252.586 184.917 252.382 184.92V184.919ZM255.262 185.249C255.233 185.353 255.298 185.482 255.408 185.505C255.489 185.521 255.57 185.535 255.655 185.538C255.768 185.547 255.863 185.438 255.863 185.33C255.863 185.213 255.768 185.131 255.655 185.122L255.573 185.115C255.555 185.111 255.537 185.107 255.519 185.102C255.503 185.099 255.486 185.097 255.469 185.097C255.423 185.096 255.377 185.11 255.34 185.138C255.302 185.165 255.275 185.204 255.262 185.249Z" fill="#161616"/>
<path fill-rule="evenodd" clip-rule="evenodd" d="M250.136 195.233L250.15 195.265L250.136 195.233ZM248.326 187.117L248.334 187.168L248.325 187.117H248.326ZM249.691 186.285L249.656 186.301C249.668 186.296 249.68 186.291 249.691 186.285V186.285ZM251.11 184.782C250.69 184.815 250.285 184.931 249.873 185.009C249.616 185.055 249.363 185.145 249.123 185.249C248.947 185.331 248.787 185.445 248.652 185.584C248.49 185.746 248.405 185.964 248.359 186.184C248.336 186.297 248.321 186.412 248.314 186.528C248.301 186.652 248.284 186.778 248.298 186.902C248.302 186.962 248.311 187.022 248.32 187.082C248.335 187.215 248.354 187.345 248.38 187.473C248.402 187.596 248.444 187.717 248.48 187.837C248.528 187.993 248.574 188.152 248.63 188.307C248.71 188.538 248.81 188.763 248.905 188.989C248.875 188.921 248.85 188.856 248.821 188.792C248.902 188.996 248.986 189.197 249.087 189.396C249.168 189.561 249.25 189.726 249.327 189.896C249.459 190.181 249.585 190.466 249.711 190.754C249.807 190.996 249.906 191.235 250.008 191.474C249.885 191.729 249.75 191.976 249.626 192.227C249.466 192.551 249.324 192.883 249.171 193.21C249.011 193.552 248.84 193.89 248.717 194.247C248.667 194.38 248.632 194.516 248.584 194.649C248.541 194.772 248.499 194.892 248.474 195.022C248.437 195.188 248.42 195.358 248.424 195.528C248.444 195.873 248.558 196.172 248.788 196.434C248.989 196.669 249.24 196.854 249.512 196.996C249.681 197.086 249.84 197.191 250.006 197.282L250.382 197.496C250.447 197.536 250.512 197.568 250.577 197.6C250.733 197.669 250.853 197.71 251.016 197.737C251.2 197.769 251.366 197.772 251.551 197.766C252.006 197.743 252.386 197.402 252.386 196.928C252.386 196.706 252.299 196.494 252.142 196.337C251.977 196.172 251.782 196.113 251.551 196.093H251.537C251.478 196.079 251.418 196.062 251.36 196.043C251.226 195.971 251.098 195.887 250.97 195.808C250.856 195.739 250.742 195.671 250.633 195.596C250.551 195.545 250.476 195.483 250.389 195.438C250.35 195.415 250.31 195.392 250.271 195.368C250.296 195.278 250.326 195.191 250.36 195.1C250.421 194.925 250.471 194.75 250.536 194.577C250.675 194.277 250.823 193.979 250.963 193.681C251.129 193.327 251.308 192.983 251.49 192.642C251.704 192.242 251.912 191.837 251.912 191.372C251.912 191.146 251.852 190.915 251.782 190.701C251.677 190.377 251.537 190.066 251.366 189.772C251.171 189.444 250.98 189.11 250.776 188.788C250.574 188.467 250.34 188.165 250.152 187.838C250.057 187.675 249.973 187.506 249.866 187.354C249.781 187.23 249.723 187.09 249.648 186.964C249.624 186.921 249.602 186.877 249.581 186.832C249.56 186.776 249.542 186.718 249.528 186.659C249.521 186.571 249.519 186.483 249.522 186.395L249.526 186.378C249.557 186.356 249.588 186.336 249.621 186.318C249.8 186.255 249.981 186.2 250.165 186.155C250.534 186.062 250.909 185.963 251.285 185.898C251.708 185.846 252.135 185.81 252.561 185.765C253.061 185.713 253.553 185.613 254.047 185.536C254.608 185.474 255.16 185.445 255.721 185.506C255.892 185.528 256.058 185.561 256.233 185.552C256.288 185.551 256.34 185.529 256.379 185.49C256.418 185.451 256.44 185.399 256.441 185.344C256.441 185.237 256.344 185.133 256.233 185.136C256.157 185.141 256.081 185.139 256.005 185.13H256.009C255.814 185.084 255.619 185.032 255.424 184.987C255.207 184.937 254.98 184.922 254.759 184.893C254.354 184.848 253.947 184.83 253.539 184.84C253.109 184.844 252.684 184.83 252.259 184.808C251.979 184.794 251.699 184.771 251.421 184.771C251.317 184.771 251.214 184.775 251.11 184.782" fill="#161616"/>
<path fill-rule="evenodd" clip-rule="evenodd" d="M257.396 196.49C256.983 196.61 256.568 196.685 256.142 196.75C255.714 196.815 255.285 196.877 254.857 196.942C254.577 196.98 254.3 197.01 254.019 197.035C253.739 197.06 253.457 197.072 253.175 197.071C252.548 197.074 251.925 197.074 251.298 197.078C251.21 197.078 251.125 197.113 251.063 197.176C251 197.238 250.965 197.323 250.965 197.411C250.965 197.499 251 197.584 251.063 197.646C251.125 197.709 251.21 197.744 251.298 197.744C251.847 197.74 252.398 197.74 252.948 197.737C253.48 197.737 254.012 197.708 254.541 197.652C255.081 197.591 255.616 197.522 256.152 197.471C256.604 197.425 257.055 197.361 257.51 197.328C257.623 197.324 257.73 197.279 257.811 197.201C257.876 197.134 257.917 197.048 257.928 196.955C257.939 196.863 257.92 196.769 257.873 196.689C257.826 196.608 257.754 196.545 257.668 196.51C257.582 196.474 257.486 196.467 257.396 196.491V196.49ZM248.806 183.85L248.782 183.88L248.806 183.85ZM248.412 183.237C248.048 183.634 247.808 184.13 247.545 184.597L247.442 184.779C247.435 184.769 247.427 184.761 247.419 184.753C247.247 184.581 246.994 184.604 246.819 184.753C246.694 184.863 246.604 185.029 246.516 185.173C246.452 185.286 246.383 185.396 246.318 185.513C246.253 185.637 246.178 185.756 246.117 185.883L245.89 186.354C245.64 186.877 245.419 187.419 245.214 187.964C245.124 188.214 245.016 188.464 244.941 188.721L244.659 189.695C244.629 189.799 244.611 189.91 244.587 190.014C244.542 190.211 244.5 190.406 244.454 190.601C244.357 191.044 244.297 191.495 244.276 191.949C244.284 192.072 244.298 192.194 244.318 192.315C244.338 192.365 244.358 192.415 244.382 192.462C244.372 192.668 244.366 192.872 244.37 193.078C244.374 193.426 244.374 193.773 244.396 194.12C244.406 194.257 244.483 194.377 244.62 194.416C244.663 194.428 244.707 194.43 244.75 194.422C244.774 194.864 244.815 195.304 244.86 195.744C244.864 195.866 244.913 195.981 244.997 196.069C245.039 196.112 245.09 196.146 245.146 196.17C245.201 196.193 245.261 196.205 245.321 196.205C245.565 196.205 245.795 195.994 245.783 195.744C245.759 195.244 245.685 194.747 245.636 194.25C245.591 193.805 245.568 193.35 245.575 192.903C245.581 192.673 245.581 192.441 245.594 192.215L245.62 191.826C245.69 191.643 245.756 191.456 245.815 191.27C245.899 191 245.98 190.728 246.062 190.455C246.146 190.175 246.234 189.896 246.305 189.614C246.38 189.319 246.445 189.016 246.532 188.728C246.575 188.594 246.61 188.458 246.659 188.328C246.714 188.178 246.772 188.03 246.834 187.88C247.048 187.347 247.273 186.819 247.491 186.29L247.486 186.298C247.557 186.134 247.629 185.967 247.708 185.805C247.811 185.591 247.925 185.383 248.036 185.175C248.126 185.003 248.22 184.835 248.312 184.663C248.469 184.381 248.622 184.095 248.817 183.836C248.847 183.801 248.877 183.766 248.909 183.734C249.039 183.591 249.049 183.377 248.909 183.237C248.841 183.171 248.749 183.134 248.654 183.135C248.609 183.134 248.564 183.143 248.522 183.16C248.481 183.178 248.443 183.204 248.412 183.237V183.237ZM259.302 184.403L259.291 184.394L259.285 184.389L259.302 184.403V184.403ZM266.251 194.968C266.266 194.867 266.28 194.766 266.292 194.664L266.251 194.968ZM257.114 182.423C257.004 182.613 257.052 182.93 257.269 183.024C257.558 183.15 257.838 183.287 258.096 183.467C258.276 183.617 258.455 183.769 258.64 183.914C258.853 184.076 259.07 184.23 259.285 184.389L259.225 184.343L259.291 184.394L259.347 184.436C259.89 184.856 260.413 185.302 260.912 185.773C261.182 186.031 261.386 186.349 261.62 186.635C261.836 186.898 262.051 187.159 262.264 187.421C262.708 188.031 263.081 188.68 263.398 189.365C263.548 189.749 263.68 190.137 263.779 190.541C263.885 190.96 263.962 191.381 264.024 191.806C264.098 192.608 264.12 193.401 264.04 194.203C263.992 194.499 263.936 194.793 263.867 195.089C263.787 195.437 263.654 195.778 263.527 196.109C263.355 196.487 263.167 196.852 262.98 197.226C262.776 197.635 262.802 198.112 263.14 198.449C263.532 198.846 264.169 198.829 264.565 198.449C264.831 198.196 265.087 197.917 265.285 197.609C265.453 197.346 265.598 197.069 265.717 196.781C265.867 196.434 265.99 196.089 266.097 195.729C266.172 195.483 266.214 195.225 266.251 194.969V194.972C266.325 194.427 266.4 193.888 266.386 193.336C266.37 192.806 266.323 192.277 266.246 191.752C266.112 190.811 265.85 189.892 265.467 189.022C265.085 188.158 264.552 187.392 263.957 186.661C263.698 186.339 263.393 186.056 263.094 185.774C262.799 185.501 262.526 185.196 262.217 184.937C261.591 184.407 260.899 183.963 260.202 183.537C259.89 183.348 259.565 183.193 259.25 183.011C259.095 182.921 258.942 182.823 258.785 182.735C258.619 182.648 258.448 182.571 258.273 182.504C258.051 182.41 257.832 182.313 257.61 182.222C257.574 182.206 257.534 182.198 257.494 182.198C257.417 182.202 257.343 182.225 257.277 182.264C257.211 182.303 257.155 182.358 257.114 182.423V182.423ZM250.981 198.583L251.083 198.594L250.981 198.584V198.583ZM249.95 198.32L249.981 198.333L249.95 198.32ZM261.28 197.837C261.188 197.858 261.098 197.883 261.008 197.912C260.806 197.958 260.604 198.005 260.4 198.047C259.978 198.142 259.556 198.233 259.134 198.327C258.77 198.408 258.407 198.499 258.04 198.58C257.646 198.666 257.25 198.736 256.851 198.8C256.664 198.821 256.476 198.836 256.287 198.843C256.007 198.856 255.731 198.859 255.452 198.863C254.942 198.866 254.429 198.827 253.919 198.798C253.426 198.768 252.933 198.752 252.439 198.72C251.99 198.693 251.545 198.644 251.098 198.596C250.701 198.533 250.311 198.458 249.936 198.313C249.899 198.295 249.863 198.274 249.828 198.252L249.754 198.182C249.677 198.092 249.571 198.032 249.454 198.012C249.337 197.992 249.217 198.014 249.114 198.074C248.884 198.207 248.774 198.544 248.929 198.774C249.222 199.207 249.757 199.36 250.232 199.493C250.608 199.597 251.004 199.642 251.39 199.701C251.858 199.769 252.329 199.827 252.802 199.879C253.218 199.927 253.637 199.951 254.056 199.977C254.517 200.002 254.975 200.012 255.436 200.009C255.893 200.009 256.351 199.957 256.806 199.899C257.117 199.859 257.427 199.801 257.736 199.734C257.832 199.782 257.942 199.795 258.046 199.772C258.502 199.674 258.959 199.587 259.419 199.512C259.546 199.492 259.645 199.389 259.695 199.271C260.022 199.197 260.35 199.125 260.679 199.057C260.859 199.022 261.037 198.982 261.215 198.947C261.445 198.902 261.702 198.867 261.904 198.746C262.001 198.688 262.077 198.6 262.12 198.495C262.162 198.39 262.17 198.274 262.141 198.165C262.076 197.931 261.877 197.807 261.647 197.788C261.633 197.787 261.619 197.786 261.605 197.786C261.499 197.786 261.381 197.817 261.28 197.837V197.837ZM245.887 147.779C245.705 147.987 245.557 148.22 245.42 148.457C245.349 148.577 245.28 148.701 245.206 148.818C245.121 148.952 245.033 149.084 244.942 149.214C244.79 149.444 244.622 149.662 244.455 149.879C244.286 150.104 244.121 150.331 243.952 150.555C243.819 150.734 243.686 150.915 243.559 151.1C243.51 151.161 243.473 151.231 243.449 151.305C243.425 151.376 243.42 151.453 243.436 151.527C243.452 151.601 243.487 151.669 243.539 151.724C243.649 151.841 243.821 151.848 243.952 151.775V151.776L243.955 151.774L243.961 151.77C243.979 151.826 244.018 151.872 244.069 151.9C244.176 151.964 244.351 151.935 244.41 151.812C244.536 151.532 244.666 151.257 244.802 150.981C244.916 150.75 245.049 150.529 245.173 150.305C245.203 150.251 245.233 150.196 245.26 150.141C245.355 150.19 245.464 150.202 245.568 150.176C245.671 150.149 245.761 150.086 245.82 149.997C245.884 150.038 245.957 150.061 246.033 150.063C246.108 150.065 246.183 150.045 246.248 150.007C246.317 149.966 246.379 149.914 246.432 149.854C246.479 149.797 246.525 149.74 246.569 149.682L246.771 149.398C246.744 149.46 246.715 149.521 246.683 149.581C246.503 149.907 246.31 150.224 246.102 150.533C245.982 150.707 245.863 150.882 245.747 151.058C245.66 151.188 245.562 151.354 245.663 151.509C245.732 151.607 245.841 151.662 245.962 151.629C246.076 151.601 246.156 151.533 246.248 151.461C246.384 151.354 246.498 151.218 246.618 151.091C246.747 150.95 246.869 150.802 246.984 150.649C247.221 150.327 247.414 149.983 247.589 149.627C247.667 149.47 247.735 149.315 247.809 149.159C247.878 149.012 247.933 148.873 247.962 148.717C247.991 148.576 248.005 148.433 248.004 148.289C248 148.168 247.971 148.05 247.919 147.941C247.896 147.886 247.867 147.834 247.832 147.786C247.732 147.636 247.618 147.513 247.446 147.448C247.304 147.392 247.151 147.364 246.998 147.367C246.927 147.37 246.857 147.38 246.788 147.397C246.724 147.364 246.653 147.346 246.581 147.347C246.307 147.347 246.054 147.587 245.887 147.779V147.779ZM253.003 150.03C253.013 150.043 253.023 150.056 253.031 150.07L253.003 150.03ZM252.087 148.867C252.087 148.88 252.086 148.894 252.084 148.907L252.087 148.867ZM251.915 147.412C251.685 147.478 251.49 147.633 251.373 147.842C251.295 147.968 251.25 148.111 251.195 148.247C251.135 148.413 251.112 148.591 251.126 148.767C251.133 148.962 251.169 149.16 251.195 149.351C251.221 149.526 251.259 149.698 251.305 149.871C251.341 150.003 251.393 150.137 251.471 150.253C251.506 150.309 251.549 150.357 251.588 150.41C251.631 150.466 251.696 150.504 251.754 150.546C251.897 150.664 252.029 150.794 252.146 150.938C252.226 151.04 252.399 151.023 252.484 150.938C252.581 150.841 252.562 150.705 252.484 150.604L252.422 150.527C252.426 150.532 252.432 150.537 252.435 150.543C252.364 150.448 252.296 150.352 252.23 150.253C252.188 150.193 252.145 150.133 252.112 150.068C252.096 150.021 252.083 149.974 252.073 149.926C252.046 149.598 252.049 149.268 252.081 148.941C252.096 148.851 252.116 148.762 252.145 148.675L252.152 148.661C252.186 148.823 252.248 148.984 252.315 149.134C252.412 149.351 252.555 149.539 252.714 149.718C252.822 149.841 252.938 149.956 253.041 150.084C253.133 150.212 253.224 150.34 253.318 150.468C253.383 150.553 253.451 150.633 253.526 150.715C253.669 150.865 253.86 151.04 254.081 151.042C254.145 151.044 254.208 151.034 254.267 151.011C254.326 150.988 254.38 150.953 254.425 150.909C254.474 150.859 254.513 150.8 254.538 150.734C254.563 150.669 254.575 150.599 254.572 150.529C254.572 150.445 254.552 150.357 254.539 150.277C254.523 150.182 254.5 150.089 254.471 149.997C254.325 149.549 254.095 149.137 253.844 148.737C253.637 148.4 253.357 148.111 253.081 147.835C253.036 147.789 252.997 147.744 252.948 147.705C252.886 147.649 252.82 147.598 252.75 147.552C252.682 147.507 252.6 147.484 252.53 147.452C252.487 147.436 252.445 147.426 252.406 147.416C252.321 147.395 252.234 147.384 252.146 147.384C252.069 147.384 251.991 147.393 251.916 147.412" fill="#161616"/>
</svg>
