<svg width="500" height="600" xmlns="http://www.w3.org/2000/svg"><g fill="#161616" fill-rule="evenodd"><path d="M244 205.087a9.05 9.05 0 001 .494l-.001-.005c-.04-.2-.065-.39-.079-.576l-.92.087m13.5-64.06l-1.738.071c-.344.014-.692.048-1.036.071-.6.045-1.196.085-1.796.129-.299.02-.597.068-.895.108-.626.078-1.256.16-1.882.241-.275.038-.547.075-.822.129-1.085.21-2.17.424-3.255.634-.27.054-.535.136-.8.203-.64.167-1.279.333-1.92.495-.418.109-.834.217-1.25.323-.577.149-1.147.328-1.718.498a.554.554 0 00-.37.671.53.53 0 00.649.38c.548-.163 1.092-.336 1.645-.478l1.095-.278 2.682-.688c.511-.13 1.033-.21 1.55-.312.75-.143 1.5-.283 2.25-.43.94-.117 1.884-.228 2.828-.343.34-.044.685-.048 1.025-.071l1.794-.112c.334-.02.668-.024 1-.03.544-.018 1.09-.032 1.635-.048.427-.014.855.016 1.282.023.39.01.783.004 1.174.038.465.044.93.09 1.395.13.278.048.556.098.833.147.272.048.54.126.81.194.508.132 1.006.315 1.508.485.338.112.71-.13.803-.475a.693.693 0 00-.455-.834 14.005 14.005 0 00-2.548-.637c-.233-.034-.465-.072-.702-.106-.245-.033-.494-.043-.743-.064-.413-.03-.83-.078-1.246-.078-.603-.003-1.203-.006-1.803-.013-.328 0-.652.013-.98.027m5.535 7.008c-.243.007-.482.036-.722.058-.414.04-.825.087-1.235.154-.722.113-1.427.31-2.074.697-.29.168-.575.4-.798.67a.668.668 0 00-.633-.14c-.003.003-.003.003-.006.003-.22.07-.462.292-.498.563-.12.43-.056.908 0 1.343.026.201.194.402.343.5a.67.67 0 00.572.088.774.774 0 00.42-.343c.075-.023.15-.051.225-.084.186-.081.363-.182.535-.296a.82.82 0 00.393.007c.113-.018.22-.07.33-.113.197-.077.398-.153.598-.219a10.74 10.74 0 011.705-.4 16.48 16.48 0 011.831-.14c.71-.018 1.415.04 2.118.13.748.124 1.5.254 2.231.469a3.6 3.6 0 00.44.186c.204.07.42.12.63.054.26-.08.463-.321.534-.61.078-.325-.022-.631-.21-.872-.158-.205-.392-.325-.614-.416a5.128 5.128 0 00-.338-.127 1.001 1.001 0 00-.294-.191 30.44 30.44 0 00-.391-.182l.032.014a5.392 5.392 0 01-.343-.183c-.184-.105-.384-.255-.585-.303a.776.776 0 00-.3-.013 1.588 1.588 0 00-.091-.078c-.163-.125-.347-.125-.535-.153l.045.007a13.914 13.914 0 00-1.902-.115c-.472 0-.944.015-1.413.035m-20.389.012c-.284.024-.568.07-.848.108-.16.023-.324.037-.481.067-.34.07-.68.13-1.014.229-1.122.319-2.206.701-3.2 1.323-.438.272-.835.618-1.219.957-.28.242-.54.508-.75.816-.237.356-.138.878.15 1.17.12.12.26.201.423.249.224.06.545.05.738-.099.223-.167.453-.328.677-.493a9.412 9.412 0 011.711-.963c.739-.29 1.499-.448 2.283-.564a30.312 30.312 0 013.609-.22c.244 0 .489.007.733.013a.992.992 0 01.076.029c.214.094.427.19.64.288.293.134.563.204.883.117.287-.08.533-.271.683-.528a.598.598 0 00.124-.87c-.003-.008-.004-.016-.005-.023-.074-.262-.271-.571-.528-.689-.547-.252-1.098-.52-1.676-.695-.476-.144-.997-.195-1.491-.241a6.433 6.433 0 00-.603-.028c-.305 0-.61.019-.915.047m12.223 39.275l-.092.033.092-.033m-4.958-.686c.31.065.62.121.934.163.499.067 1.001.115 1.503.151l.921.063a8.615 8.615 0 001.729-.07c.306-.04.612-.081.916-.133-.37.216-.765.386-1.167.555-.544.192-1.11.33-1.688.409a4.75 4.75 0 01-.861.01 3.904 3.904 0 01-.587-.143c-.3-.128-.58-.277-.862-.433-.2-.11-.4-.225-.59-.35a2.95 2.95 0 01-.248-.222m1.055-1.279l.122.013-.122-.013m5.701-.326c-.163.027-.329.077-.492.11-.203.046-.405.082-.609.12-.39.078-.78.149-1.176.203-.548.055-1.091.05-1.643.025a28.893 28.893 0 01-1.645-.117 13.727 13.727 0 01-1.663-.338.837.837 0 00-.914.353c-.358.095-.617.465-.492.798.08.216.176.426.293.63.14.246.332.461.525.678.255.288.631.48.984.662.608.318 1.214.633 1.908.771.818.165 1.64.027 2.434-.15.738-.165 1.45-.492 2.098-.843a4.395 4.395 0 001.19-.935c.306-.336.529-.717.536-1.164.007-.309-.17-.578-.473-.717a1.11 1.11 0 00-.536-.117c-.101 0-.199.012-.325.03m-8.133-15.964a16.65 16.65 0 01-1.414.973l-.041.294-.028.201-.016.115a25.141 25.141 0 01-.245 1.553c-.14.711-.283 1.42-.435 2.128-.043.19-.087.378-.133.568l-.093.405a5.286 5.286 0 00-.122.725c-.018.205.003.406.065.58.054.197.14.364.274.51.164.143.28.246.413.317.91.497 1.956.565 2.862.565.257 0 .515-.003.77-.01l.102-.004.568-.013.569-.014c.365-.007.738-.061 1.07-.109l.106-.013.08-.014.187-.027c.22-.068.407-.18.568-.351.23-.26.36-.61.36-.96 0-.721-.555-1.355-1.189-1.355-.586.027-1.124.089-1.716.157-.708.084-1.413.166-2.102.166-.28 0-.559-.01-.839-.044l-.108-.01.031-.18.015-.195.094-1.086c.028-.353.065-.708.102-1.059.05-.473.097-.905.128-1.344.015-.208.028-.416.036-.624.01-.173.023-.347.034-.52.023-.32.057-.64.088-.96l.025-.225.022-.206-.088.066m-14.521-12.102c.098-.331.214-.654.354-.964-.286.221-.407.609-.354.964"/><path d="M247.173 150.04c-.25.072-.467.254-.599.498-.149.274-.143.531-.1.834.105.768.21 1.537.317 2.308.09.797.18 1.593.23 2.397.045.782.03 1.56-.013 2.342-.086 1.607-.153 3.215-.286 4.818a27.82 27.82 0 01-.355 1.975c-.144.68-.33 1.352-.434 2.045a184.22 184.22 0 01-.36 2.29c-.121.755-.195 1.521-.274 2.284-.086.63-.198 1.254-.266 1.889-.03.287-.04.574-.028.864.018.37.092.676.241 1.007.086.185.202.332.32.498.334.462.865.646 1.381.742.904.172 1.811.22 2.721.11a32.899 32.899 0 002.642-.46c.406-.086.69-.554.69-.98 0-.514-.43-1.065-.94-1.013l-1.494.15c-.3.029-.599.055-.898.079a8.555 8.555 0 01-1.739-.067c-.139-.025-.279-.05-.417-.083.105-.392.237-.78.345-1.167.178-.63.303-1.267.431-1.907.268-1.324.4-2.67.561-4.014.195-1.381.414-2.757.492-4.155.037-.606.013-1.227-.008-1.833-.025-.7-.05-1.403-.07-2.102-.02-.61-.044-1.22-.065-1.831-.024-.719-.1-1.432-.171-2.148-.146-1.544-.403-3.08-.617-4.614-.037-.261-.26-.519-.461-.647a.937.937 0 00-.776-.11m15.046 4.107a20.464 20.464 0 00-3.18.774c-.489.157-.968.349-1.43.57a4.411 4.411 0 00-.628.374 3.928 3.928 0 00-.72.605c-.325.374-.37.911 0 1.279.336.327.974.372 1.303 0 .1-.114.207-.21.323-.306.283-.2.582-.363.9-.51a16.086 16.086 0 011.688-.57l-.009.026c-.436.509-.586 1.221-.669 1.866-.016.123-.01.247.012.371a3.131 3.131 0 00-.406.16c-.54.265-.641.956-.384 1.436.133.25.302.432.566.544a.875.875 0 00.397.131c.203.032.408.052.61.074.344.035.7.025 1.044.029.515.006 1.022-.01 1.537-.026.602-.022 1.107-.48 1.107-1.088 0-.321-.15-.615-.383-.817a2.34 2.34 0 00.175-.676c.051-.498-.086-.989-.327-1.428a1.664 1.664 0 00-.413-.61c.295-.03.59-.057.885-.084.336-.028.678-.02 1.013-.028.232-.004.466.003.7.012.47.016.94.032 1.4-.06.306-.061.557-.34.638-.628.11-.396-.072-.8-.42-1.014-.175-.106-.365-.144-.56-.173a4.46 4.46 0 01-.642-.14 2.88 2.88 0 00-1.005-.218c-.173-.01-.345-.02-.518-.02l-.339-.001c-.757 0-1.512.032-2.265.146m-19.842 7.83l-.216-.03-.07-.01.286.04m-4.134-2.79l-.08.012.08-.012m.68-3.903a8.042 8.042 0 00-1.2.373c-.413.167-.776.398-1.158.626a1.15 1.15 0 00-.523.688c-.075.274-.058.653.114.89.172.24.33.475.6.61.282.142.564.204.876.118a1.133 1.133 0 00.76-.71l.069-.036c.169-.063.339-.12.51-.17-.148.402-.201.81-.217 1.236-.002.064.001.127.008.188-.15.029-.301.054-.451.079-.145.015-.29.024-.426.079a.903.903 0 00-.63.643c-.103.379.055.85.416 1.035.343.178.69.316 1.063.418.199.056.406.096.607.139.324.066.645.125.97.178a72.4 72.4 0 001.85.28c.503.067 1.016.121 1.471-.171.412-.268.632-.759.5-1.246-.15-.547-.775-.969-1.333-.768a.246.246 0 00-.027.008 7.983 7.983 0 01-.62.023 2.45 2.45 0 00.118-.268c.153-.41.188-.868.126-1.295-.055-.364-.28-.657-.54-.897.294.007.59.02.882.045.115.064.226.134.336.211.113.099.232.193.354.281.217.158.552.175.798.106.36-.099.61-.38.723-.732.113-.363.023-.774-.13-1.108-.184-.411-.567-.652-.963-.814-.35-.141-.74-.194-1.113-.233-.412-.043-.827-.063-1.242-.083a6.883 6.883 0 00-.296-.006c-.765 0-1.535.12-2.282.283"/><path d="M265.733 115.617h-.084c-.357 0-.716.032-1.07.063l-.217.019c-.836.074-1.671.15-2.506.253a39.08 39.08 0 00-4.814.905c-.648.168-1.333.375-2.155.652l-.213.072c-.48.16-.965.323-1.432.518l-1.85.78-.466.19c-.343.139-.687.278-1.018.439l-.6.29c-.771.371-1.542.743-2.302 1.137l-1.857.963c-.299.154-.59.33-.877.508l-.304.183c-.318.187-.633.37-.944.558l-.132.075c-.097.055-.193.109-.282.168l-.818.56-.82.56a59.335 59.335 0 00-2.115 1.54l-.658.493c-.642.478-1.273.97-1.905 1.463l-.483.377c-.826.64-1.625 1.342-2.399 2.021l-.388.34c-.77.678-1.481 1.397-2.312 2.269l-.432.457c-.414.441-.828.882-1.264 1.303-.52.504-1.11 1.02-1.798 1.576-.127.089-.256.175-.385.26-.129.087-.258.173-.386.262a6.47 6.47 0 00-.439.34c-.255.215-.367.505-.476.786-.093.234-.063.686 0 .907.032.11.071.215.116.319.225.54.44 1.12.696 1.884.223.655.445 1.31.646 1.969.201.664.362 1.325.49 2.019.099.954.095 1.978-.014 3.044-.088.47-.218 1.085-.44 1.67a15.734 15.734 0 01-.874 1.719l-.133.22-.135.224c-.146.244-.251.5-.335.718a1.289 1.289 0 00-.03.715c.048.192.16.44.306.56.152.124.29.224.466.309.114.054.235.099.353.143.807.363 1.55.814 2.269 1.25l.218.131c.274.169.548.332.835.471.308.144.638.246.96.346l.1.03c.186.06.37.102.561.127a3.504 3.504 0 000 .323c.006.27.03.54.051.805.023.237.04.448.052.658l.006.108c.022.499.04.96 0 1.412l-.019.22c-.167.958-.393 1.848-.68 2.89-.262.947-.547 2.076-.664 3.254l-.046.4-.025.24a38.86 38.86 0 00-.088.947c-.026.311-.041.622-.058.934l-.032.587a92.153 92.153 0 00-.158 3.328c-.013.48-.02.967-.025 1.447-.007.421.009.804.029 1.191l.019.438c.036.931.129 1.877.218 2.791l.014.151.013.123.012.114c.261 2.588.62 4.66 1.126 6.518.11.402.235.797.368 1.194.077.227.168.447.259.668l.038.097.165.403c.357.898.725 1.787 1.102 2.676a.332.332 0 00-.018-.158c.254.71.685 1.769 1.214 2.841a34.47 34.47 0 001.545 2.793c.653 1.077 1.322 1.98 2.048 2.755.548.582 1.17 1.119 1.719 1.593l.072.062.551.48c1.062.924 1.89 1.56 2.683 2.057.743.473 1.536.83 2.303 1.175l.497.227.41.192.096.044c.857.4 1.695.785 2.538 1.11.236.095.475.182.713.268l.165.06.093.032.535.195c.429.162.86.324 1.303.457 1.089.327 2.234.384 3.41.416.516.016 1.029.026 1.542.032l.138.004c.697 0 1.37-.074 2.001-.221a8.7 8.7 0 001.455-.488c.615-.253 1.15-.592 1.591-.888.699-.463 1.367-.993 2.014-1.506l.14-.11.536-.425.251-.198c.34-.266.681-.535 1-.828.393-.36.753-.741 1.088-1.1l.148-.162c.41-.447.792-.862 1.119-1.3.235-.315.459-.634.685-.957l.137-.196.09-.133 1.004-1.414.35-.503.558-.791a32.21 32.21 0 001.248-1.973l.404-.668c.402-.657.763-1.255 1.087-1.901.19-.383.354-.779.513-1.178.195-.47.26-.91.307-1.287 0-.21-.053-.407-.156-.585a1.174 1.174 0 00-.997-.579c-.387 0-.75.21-1 .575l-.088.126a5.591 5.591 0 00-.451.746l-.065.128-.136.255a18.24 18.24 0 01-.692 1.213 80.905 80.905 0 01-1.013 1.596l-.212.334-.39.603c-.11.172-.222.344-.339.516.041-.138.032-.285.018-.437-.067-.771-.161-1.682-.357-2.596l-.13-.597c-.105-.49-.3-.96-.49-1.416-.26-.605-.52-1.054-.765-1.467l-.141-.24a36.833 36.833 0 00-.55-.908c-.358-.581-.802-1.061-1.228-1.494-.406-.411-.86-.794-1.298-1.164l-.293-.25c-.212-.182-.431-.36-.65-.538l-.216-.176a19.08 19.08 0 00-.853-.649c-.5-.364-1.076-.632-1.574-.844a14.425 14.425 0 00-2.852-.929c-.779-.163-1.568-.202-2.094-.217-.123 0-.215.012-.318.042a.824.824 0 00-.409-.249.924.924 0 00-.27-.04c-.436 0-.822.297-.981.755-.113.328-.226.653-.342.98-.18.496-.255.903-.23 1.242.02.357.144.654.37.881.264.263.644.381.946.457.203.05.412.081.616.112l.336.05a22.38 22.38 0 011.592.344c.564.137 1.118.273 1.637.48 1.076.48 1.968.988 2.725 1.552.557.459 1.048.96 1.502 1.53.503.685 1.022 1.435 1.405 2.275.281.733.487 1.516.627 2.395.084.807.094 1.56.029 2.3-.03.364-.061.727-.097 1.09l-.025.218-.075.631-.08-.025-.314-.033-.164-.016a48.983 48.983 0 00-1.386-.169c-.28-.029-.564-.062-.845-.097-.932-.146-1.92-.331-2.838-.69a4.54 4.54 0 01-.589-.321 9.152 9.152 0 01-.25-.255 2.699 2.699 0 01-.205-.361 5.338 5.338 0 01-.315-1.062 57.461 57.461 0 01-.135-1.705l.143-.047c.216-.094.415-.245.563-.364.357-.172.532-.438.532-.812 0-.721-.661-.978-1.227-.978-.173 0-.356.026-.528.075l-.336.104c-.413.132-.76.237-1.136.299-.852.104-1.796.155-2.885.155-.642 0-1.283-.02-1.924-.049-.31 0-.571.113-.78.337a1.119 1.119 0 00-.306.755c0 .596.466 1.065 1.085 1.091.358.017.716.027 1.074.033l-.053.072-.026.11c-.134.508-.249.884-.374 1.217a4.802 4.802 0 01-.444.823c-.176.2-.36.39-.562.57a3.185 3.185 0 01-.356.205 6.922 6.922 0 01-1.162.315 4.331 4.331 0 01-.344.016c-.367 0-.745-.046-1.11-.091l-.382-.049-.129-.013-.099-.01a8.647 8.647 0 00-.94-.067 6 6 0 00-1.162.126l.019-.105c.003-.99.006-2.01.087-3.049.106-.71.248-1.437.49-2.513.182-.81.5-1.574.81-2.314l.1-.243.157-.363.043-.1c.066-.152.134-.307.205-.461a6.44 6.44 0 01.393-.706c.075-.118.163-.232.25-.344l.156-.197-.165.134.197-.186c.21-.257.42-.509.641-.756.29-.324.632-.61.931-.852a5.44 5.44 0 01.689-.466 6.44 6.44 0 01.871-.272c.107-.022.216-.042.325-.061.243-.046.427-.082.615-.143a5.91 5.91 0 00.383-.146l.088-.036.293-.124c.217-.093.37-.189.512-.318.165-.143.206-.413.215-.56a1.88 1.88 0 00-.032-.441 2.29 2.29 0 00-.327-.83c-.005-.19-.138-.421-.37-.468a6.137 6.137 0 00-1.216-.143c-.171 0-.343.01-.517.034-.473.063-.918.211-1.45.398-.182.066-.362.13-.539.198l-.106.043-.08.028c-.118.047-.18.072-.24.101a2.692 2.692 0 00-.394.215 24.74 24.74 0 00-2.286 1.642 6.675 6.675 0 00-1.263 1.273c-.275.375-.515.783-.758 1.204-.274.476-.43.957-.569 1.383l-.058.185-.09.28c-.155.446-.315.888-.476 1.329-.304.843-.453 1.757-.585 2.563l-.019.124c-.052.315-.11.629-.167.94l-.033.179-.038.218c-.071.416-.142.83-.198 1.251-.125.92-.21 1.693-.21 2.486 0 .383.004.763.014 1.145l.007.266.01.267c-.108-.148-.246-.28-.388-.416l-.344-.333c-.316-.313-.59-.658-.853-.993-.847-1.154-1.652-2.501-2.46-4.12-.626-1.256-1.182-2.568-1.72-3.837l-.079-.178-.125-.305-.203-.522-.08-.201a78.267 78.267 0 01-.362-.899c-.11-.285-.196-.58-.284-.875l-.038-.14c-.1-.344-.2-.687-.283-1.037a43.428 43.428 0 01-.761-4.092c-.223-1.899-.461-4.1-.455-6.207.003-.97.034-2.009.09-3.088l.045-.918c.043-.834.082-1.588.155-2.328l.061-.672.061-.62c.036-.216.075-.433.12-.654-.117-.834.029-1.745.187-2.527l.1-.503c.066-.336.132-.672.21-1.005.057-.265.118-.531.18-.797l.01-.108c.105-.994.211-2.023.454-3a71.62 71.62 0 01-.003-2.02l.01-1.018c.006-.272.023-.544.038-.817l.01-.165c.031-.613.113-1.234.192-1.835l.018-.157c.103-.69.216-1.384.332-2.075.132-.79.241-1.58.348-2.374l-.051.142.156-.83.082-.496c.075-.412.18-.827.287-1.235.204-.776.459-1.688.8-2.569.23-.595.472-1.184.714-1.775l.336-.829c.161-.398.32-.8.474-1.203.174-.448.348-.892.53-1.337l.038-.093.051-.133a.297.297 0 00.097-.035 49.44 49.44 0 011.914-.87l.216-.093c.782-.275 1.628-.57 2.498-.837l.225-.068c.274-.08.551-.162.832-.24l.455-.126c.313-.091.625-.178.94-.253l.207-.046a54.928 54.928 0 012.321-.489 85.961 85.961 0 012.58-.413 97.884 97.884 0 012.936-.272 67.926 67.926 0 012.892-.152l.093-.003c.336-.013.67-.02 1.01-.02.515 0 1.037.013 1.556.026l.255.01.235.006c.84.023 1.705.087 2.569.192 1.18.19 2.323.46 3.488.746 1.322.327 2.445.672 3.433 1.057.847.402 1.548.767 2.216 1.244.167.152.328.311.475.482.04.055.076.119.11.196.272.84.401 1.756.516 2.565.079.628.144 1.186.185 1.746.026.386.039.772.052 1.161.007.243.012.48.026.714.06 1.285.142 2.568.232 3.85.038.564.07 1.126.1 1.69.035.668.074 1.34.129 2.008.086 1.032.237 2.085.37 3.014l.136.956.064.497.078.568.019.158c.127 1.007.25 1.984.42 2.923l-.168.013c.018.484.02.983-.004 1.49.171-.02.33-.05.49-.082.183.884.43 1.81.726 2.748.207.636.446 1.237.71 1.786.11.217.23.435.362.639.46.716 1.11 1.126 1.787 1.126.69-.023 1.215-.425 1.722-.816l.117-.088c.075-.058.148-.116.226-.167l.187-.137.07-.05c.3-.217.613-.441.948-.624.08-.042.16-.084.242-.123.227-.084.449-.158.687-.21l.08.023a.517.517 0 00.07.085l.1.15.03.103.049.155c-.193.732-.182 1.353.033 1.895.064.232.18.432.353.613.263 2.139.283 4.2.055 6.12-.104.647-.247 1.406-.521 2.13a6.66 6.66 0 01-.525.886c-.28.337-.616.663-1.027.994a9.36 9.36 0 01-1.32.83c-.11.018-.152.018-.193.018l-.088-.116a.974.974 0 00-.783-.357 1.108 1.108 0 00-1.108.863c-.071.292-.028.583.124.816.11.18.226.36.365.523.094.11.277.308.442.386.237.106.42.187.633.243.176.047.39.069.653.069.67-.017 1.278-.282 1.784-.54a9.708 9.708 0 001.594-1.01c.222-.171.436-.357.645-.544.217-.2.396-.435.56-.66l.092-.12c.388-.52.63-1.14.833-1.731.2-.568.269-1.212.323-1.729l.03-.245c.058-.52.09-1.07.1-1.73a31.87 31.87 0 00-.159-3.705 43.672 43.672 0 00-.229-1.911.954.954 0 00.075-.463.678.678 0 01-.017-.113 8.34 8.34 0 01.126-.426l.035-.117c.026-.077.052-.156.071-.233.068-.254.122-.506.174-.76.123-.65.246-1.343.294-2.054.062-1.024.042-2.043.022-3.028l-.006-.453-.006-.266a60.673 60.673 0 00-.07-2.355c.15-.39.301-.783.434-1.178.064-.193.13-.387.197-.58.123-.356.247-.712.351-1.07l.119-.408.4-1.377c.104-.358.184-.723.263-1.087l.111-.5c.243-1.035.428-2.106.552-3.18l.053-.445c.048-.387.095-.773.122-1.16l.033-.527.034-.531.015-.213a8.01 8.01 0 00.03-.51l.011-.95.013-.948c.005-.555-.03-1.11-.069-1.678a20.984 20.984 0 00-.323-2.563c-.146-.758-.378-1.505-.603-2.226l-.104-.334c-.13-.423-.285-.836-.44-1.25l-.088-.236c-.497-1.326-1.09-2.86-1.861-4.273-.598-1.09-1.348-2.073-2.004-2.89l-.262-.326c-.244-.303-.487-.605-.74-.898l-.23-.268c-.644-.75-1.31-1.523-2.011-2.243-.42-.435-.848-.857-1.287-1.272-.379-.361-.807-.684-1.22-.995l-.199-.15a41.33 41.33 0 00-2.7-1.873 15.477 15.477 0 00-2.98-1.518l-.27-.103a24.18 24.18 0 00-.595-.219c-.621-.215-1.303-.383-2.21-.544-.804-.138-1.414-.203-1.977-.211-.336-.007-.67-.01-1.006-.014"/><path d="M280.12 171.634a.44.44 0 01-.056.042l.055-.042m.199-2.042l-.008.061.008-.06m-.231-.659a2.266 2.266 0 01-.053.021l.053-.02m.158-.034a.38.38 0 01.033.08c-.01-.025-.02-.053-.033-.08m-.107-.056c.027.008.051.019.075.03h-.003c-.023-.01-.047-.021-.072-.03m.004-.79a.567.567 0 00-.22.053 2.955 2.955 0 00-.566.28.42.42 0 00-.15.57.424.424 0 00.572.15c.112-.068.222-.127.34-.186.035-.014.072-.027.108-.038l.007.001.006.004v.002c.039.098.072.195.097.295.003.129-.002.254-.016.38-.047.356-.092.716-.133 1.071-.033.28-.027.561-.051.84a.71.71 0 01-.023.092.873.873 0 01-.061.109l-.011.012a.472.472 0 01-.061.031c-.208.104-.266.393-.153.585.055.094.15.166.256.195.12.035.218.006.329-.043a.962.962 0 00.52-.606 2.23 2.23 0 00.076-.634c.007-.292.02-.58.056-.873.016-.166.036-.331.058-.5.017-.143.04-.29.053-.435a1.582 1.582 0 00-.092-.65 1.472 1.472 0 00-.185-.383.444.444 0 00-.152-.15c-.026-.018-.056-.038-.085-.06a11.61 11.61 0 00-.198-.088 1.603 1.603 0 00-.214-.036c-.036.004-.072.01-.107.013"/></g></svg>