<svg width="500" height="600" viewBox="0 0 500 600" fill="none" xmlns="http://www.w3.org/2000/svg">
<path fill-rule="evenodd" clip-rule="evenodd" d="M244 205.087C244.323 205.272 244.657 205.437 245 205.581L244.999 205.576C244.959 205.376 244.934 205.186 244.92 205L244 205.087ZM257.5 141.027L255.762 141.098C255.418 141.112 255.07 141.146 254.726 141.169C254.126 141.214 253.53 141.254 252.93 141.298C252.631 141.318 252.333 141.366 252.035 141.406C251.409 141.484 250.779 141.566 250.153 141.647C249.878 141.685 249.606 141.722 249.331 141.776C248.246 141.986 247.161 142.2 246.076 142.41C245.806 142.464 245.541 142.546 245.276 142.613C244.636 142.78 243.997 142.946 243.356 143.108C242.938 143.217 242.522 143.325 242.106 143.431C241.529 143.58 240.959 143.759 240.388 143.929C240.252 143.972 240.137 144.065 240.068 144.19C239.999 144.315 239.981 144.462 240.018 144.6C240.036 144.668 240.066 144.731 240.108 144.787C240.151 144.843 240.203 144.89 240.264 144.925C240.324 144.96 240.391 144.983 240.46 144.993C240.529 145.002 240.6 144.998 240.667 144.98C241.215 144.817 241.759 144.644 242.312 144.502L243.407 144.224L246.089 143.536C246.6 143.406 247.122 143.326 247.639 143.224C248.389 143.081 249.139 142.941 249.889 142.794C250.829 142.677 251.773 142.566 252.717 142.451C253.057 142.407 253.402 142.403 253.742 142.38L255.536 142.268C255.87 142.248 256.204 142.244 256.536 142.238C257.08 142.22 257.626 142.206 258.171 142.19C258.598 142.176 259.026 142.206 259.453 142.213C259.843 142.223 260.236 142.217 260.627 142.251C261.092 142.295 261.557 142.341 262.022 142.381C262.3 142.429 262.578 142.479 262.855 142.528C263.127 142.576 263.395 142.654 263.665 142.722C264.173 142.854 264.671 143.037 265.173 143.207C265.511 143.319 265.883 143.077 265.976 142.732C266.021 142.561 265.999 142.38 265.914 142.225C265.829 142.07 265.689 141.953 265.521 141.898C264.694 141.606 263.841 141.393 262.973 141.261C262.74 141.227 262.508 141.189 262.271 141.155C262.026 141.122 261.777 141.112 261.528 141.091C261.115 141.061 260.698 141.013 260.282 141.013C259.679 141.01 259.079 141.007 258.479 141C258.151 141 257.827 141.013 257.499 141.027H257.5ZM263.034 148.035C262.791 148.042 262.552 148.071 262.312 148.093C261.898 148.133 261.487 148.18 261.077 148.247C260.355 148.36 259.65 148.557 259.003 148.944C258.713 149.112 258.428 149.344 258.205 149.614C258.12 149.539 258.018 149.487 257.907 149.462C257.796 149.438 257.681 149.442 257.572 149.474C257.569 149.477 257.569 149.477 257.566 149.477C257.346 149.547 257.104 149.769 257.068 150.04C256.948 150.47 257.012 150.948 257.068 151.383C257.094 151.584 257.262 151.785 257.411 151.883C257.494 151.94 257.588 151.977 257.687 151.992C257.786 152.007 257.887 152 257.983 151.971C258.16 151.911 258.309 151.789 258.403 151.628C258.478 151.605 258.553 151.577 258.628 151.544C258.814 151.463 258.991 151.362 259.163 151.248C259.292 151.282 259.427 151.285 259.556 151.255C259.669 151.237 259.776 151.185 259.886 151.142C260.083 151.065 260.284 150.989 260.484 150.923C261.041 150.743 261.611 150.61 262.189 150.523C262.796 150.442 263.408 150.396 264.02 150.383C264.73 150.365 265.435 150.423 266.138 150.513C266.886 150.637 267.638 150.767 268.369 150.982C268.512 151.054 268.659 151.116 268.809 151.168C269.013 151.238 269.229 151.288 269.439 151.222C269.699 151.142 269.902 150.901 269.973 150.612C270.051 150.287 269.951 149.981 269.763 149.74C269.605 149.535 269.371 149.415 269.149 149.324C269.038 149.278 268.925 149.235 268.811 149.197C268.725 149.117 268.626 149.052 268.517 149.006C268.387 148.944 268.257 148.884 268.126 148.824L268.158 148.838C268.042 148.781 267.927 148.72 267.815 148.655C267.631 148.55 267.431 148.4 267.23 148.352C267.132 148.328 267.03 148.324 266.93 148.339C266.901 148.312 266.87 148.286 266.839 148.261C266.676 148.136 266.492 148.136 266.304 148.108L266.349 148.115C265.719 148.033 265.083 147.995 264.447 148C263.975 148 263.503 148.015 263.034 148.035V148.035ZM242.645 148.047C242.361 148.071 242.077 148.117 241.797 148.155C241.637 148.178 241.473 148.192 241.316 148.222C240.976 148.292 240.636 148.352 240.302 148.451C239.18 148.77 238.096 149.152 237.102 149.774C236.664 150.046 236.267 150.392 235.883 150.731C235.603 150.973 235.343 151.239 235.133 151.547C234.896 151.903 234.995 152.425 235.283 152.717C235.403 152.837 235.543 152.918 235.706 152.966C235.93 153.026 236.251 153.016 236.444 152.867C236.667 152.7 236.897 152.539 237.121 152.374C237.656 151.994 238.23 151.671 238.832 151.411C239.571 151.121 240.331 150.963 241.115 150.847C242.313 150.702 243.518 150.628 244.724 150.627C244.968 150.627 245.213 150.634 245.457 150.64C245.483 150.649 245.508 150.658 245.533 150.669C245.747 150.763 245.96 150.859 246.173 150.957C246.466 151.091 246.736 151.161 247.056 151.074C247.343 150.994 247.589 150.803 247.739 150.546C247.807 150.499 247.865 150.439 247.908 150.368C247.952 150.298 247.98 150.22 247.992 150.138C248.003 150.056 247.998 149.973 247.976 149.894C247.954 149.814 247.915 149.74 247.863 149.676C247.86 149.668 247.859 149.66 247.858 149.653C247.784 149.391 247.587 149.082 247.33 148.964C246.783 148.712 246.232 148.444 245.654 148.269C245.178 148.125 244.657 148.074 244.163 148.028C243.963 148.009 243.761 148 243.56 148C243.255 148 242.95 148.019 242.645 148.047V148.047ZM254.868 186.678L254.776 186.645L254.868 186.678ZM249.91 187.364C250.22 187.299 250.53 187.243 250.844 187.201C251.344 187.136 251.845 187.085 252.347 187.05L253.268 186.987C253.845 186.952 254.425 186.976 254.997 187.057C255.303 187.097 255.609 187.138 255.913 187.19C255.537 186.98 255.147 186.794 254.746 186.635C254.199 186.442 253.633 186.305 253.058 186.226C252.772 186.197 252.484 186.193 252.197 186.216C251.998 186.248 251.802 186.296 251.61 186.359C251.31 186.487 251.03 186.636 250.748 186.792C250.548 186.902 250.348 187.017 250.158 187.142C250.071 187.211 249.989 187.285 249.91 187.364V187.364ZM250.965 188.643L251.087 188.63L250.965 188.643ZM256.666 188.969C256.503 188.942 256.337 188.892 256.174 188.859C255.971 188.813 255.769 188.777 255.565 188.739C255.175 188.659 254.783 188.592 254.389 188.536C253.843 188.487 253.294 188.479 252.746 188.511C252.198 188.537 251.649 188.571 251.101 188.628C250.539 188.704 249.985 188.823 249.438 188.966C249.268 189.011 249.088 189.001 248.924 188.937C248.76 188.874 248.62 188.76 248.524 188.613C248.166 188.518 247.907 188.148 248.032 187.815C248.112 187.597 248.21 187.387 248.325 187.185C248.465 186.939 248.657 186.724 248.85 186.507C249.105 186.219 249.481 186.027 249.834 185.845C250.442 185.527 251.048 185.212 251.742 185.074C252.56 184.909 253.382 185.047 254.176 185.224C254.914 185.389 255.626 185.716 256.274 186.067C256.73 186.31 257.132 186.633 257.464 187.002C257.77 187.338 257.993 187.719 258 188.166C258.007 188.475 257.83 188.744 257.527 188.883C257.361 188.966 257.177 189.006 256.991 189C256.89 189 256.792 188.988 256.666 188.97V188.969ZM248.533 169.066C248.079 169.414 247.607 169.739 247.119 170.039L247.078 170.333L247.05 170.534L247.034 170.649C246.969 171.169 246.887 171.687 246.789 172.202C246.649 172.913 246.506 173.622 246.354 174.33C246.311 174.52 246.267 174.708 246.221 174.898L246.128 175.303C246.071 175.542 246.03 175.784 246.006 176.028C245.988 176.233 246.009 176.434 246.071 176.608C246.125 176.805 246.211 176.972 246.345 177.118C246.509 177.261 246.625 177.364 246.758 177.435C247.668 177.932 248.714 178 249.62 178C249.877 178 250.135 177.997 250.39 177.99L250.492 177.986L251.06 177.973L251.629 177.959C251.994 177.952 252.367 177.898 252.699 177.85L252.805 177.837L252.885 177.823L253.072 177.796C253.292 177.728 253.479 177.616 253.64 177.445C253.87 177.185 254 176.835 254 176.485C254 175.764 253.445 175.13 252.811 175.13C252.225 175.157 251.687 175.219 251.095 175.287C250.387 175.371 249.682 175.453 248.993 175.453C248.713 175.453 248.434 175.443 248.154 175.409L248.046 175.399L248.077 175.219L248.092 175.024L248.186 173.938C248.214 173.585 248.251 173.23 248.288 172.879C248.338 172.406 248.385 171.974 248.416 171.535C248.431 171.327 248.444 171.119 248.452 170.911C248.462 170.738 248.475 170.564 248.486 170.391C248.509 170.071 248.543 169.751 248.574 169.431L248.599 169.206L248.621 169L248.533 169.066V169.066ZM234.012 156.964C234.11 156.633 234.226 156.31 234.366 156C234.08 156.221 233.959 156.609 234.012 156.964Z" fill="#161616"/>
<path fill-rule="evenodd" clip-rule="evenodd" d="M247.173 150.04C246.923 150.112 246.706 150.294 246.574 150.538C246.425 150.812 246.431 151.069 246.474 151.372C246.579 152.14 246.684 152.909 246.791 153.68C246.881 154.477 246.971 155.273 247.021 156.077C247.066 156.859 247.051 157.637 247.008 158.419C246.922 160.026 246.855 161.634 246.722 163.237C246.627 163.899 246.509 164.558 246.367 165.212C246.223 165.892 246.037 166.564 245.933 167.257C245.818 168.021 245.698 168.784 245.573 169.547C245.452 170.302 245.378 171.068 245.299 171.831C245.213 172.461 245.101 173.085 245.033 173.72C245.003 174.007 244.993 174.294 245.005 174.584C245.023 174.954 245.097 175.26 245.246 175.591C245.332 175.776 245.448 175.923 245.566 176.089C245.9 176.551 246.431 176.735 246.947 176.831C247.851 177.003 248.758 177.051 249.668 176.941C250.554 176.824 251.436 176.67 252.31 176.481C252.716 176.395 253 175.927 253 175.501C253 174.987 252.57 174.436 252.06 174.488L250.566 174.638C250.266 174.667 249.967 174.693 249.668 174.717C249.088 174.754 248.505 174.731 247.929 174.65C247.79 174.625 247.65 174.6 247.512 174.567C247.617 174.175 247.749 173.787 247.857 173.4C248.035 172.77 248.16 172.133 248.288 171.493C248.556 170.169 248.688 168.823 248.849 167.479C249.044 166.098 249.263 164.722 249.341 163.324C249.378 162.718 249.354 162.097 249.333 161.491C249.308 160.791 249.283 160.088 249.263 159.389C249.243 158.779 249.219 158.169 249.198 157.558C249.174 156.839 249.098 156.126 249.027 155.41C248.881 153.866 248.624 152.33 248.41 150.796C248.373 150.535 248.15 150.277 247.949 150.149C247.835 150.076 247.707 150.028 247.573 150.009C247.439 149.99 247.303 150 247.173 150.039" fill="#161616"/>
<path fill-rule="evenodd" clip-rule="evenodd" d="M265.733 115.617H265.649C265.292 115.617 264.933 115.649 264.579 115.68L264.362 115.699C263.526 115.773 262.691 115.849 261.856 115.952C260.234 116.153 258.626 116.455 257.042 116.857C256.394 117.025 255.709 117.232 254.887 117.509L254.674 117.581C254.194 117.741 253.709 117.904 253.242 118.099L251.392 118.879L250.926 119.069C250.583 119.208 250.239 119.347 249.908 119.508L249.308 119.798C248.537 120.169 247.766 120.541 247.006 120.935L245.149 121.898C244.85 122.052 244.559 122.228 244.272 122.406L243.968 122.589C243.65 122.776 243.335 122.959 243.024 123.147L242.892 123.222C242.795 123.277 242.699 123.331 242.61 123.39L241.792 123.95L240.972 124.51C240.256 125.008 239.551 125.521 238.857 126.05L238.199 126.543C237.557 127.021 236.926 127.513 236.294 128.006L235.811 128.383C234.985 129.023 234.186 129.725 233.412 130.404L233.024 130.744C232.254 131.422 231.543 132.141 230.712 133.013L230.28 133.47C229.866 133.911 229.452 134.352 229.016 134.773C228.496 135.277 227.906 135.793 227.218 136.349C227.091 136.438 226.962 136.524 226.833 136.609C226.704 136.696 226.575 136.782 226.447 136.871C226.296 136.978 226.15 137.091 226.008 137.211C225.753 137.426 225.641 137.716 225.532 137.997C225.439 138.231 225.469 138.683 225.532 138.904C225.564 139.014 225.603 139.119 225.648 139.223C225.873 139.763 226.088 140.343 226.344 141.107C226.567 141.762 226.789 142.417 226.99 143.076C227.191 143.74 227.352 144.401 227.48 145.095C227.579 146.049 227.575 147.073 227.466 148.139C227.378 148.609 227.248 149.224 227.026 149.809C226.77 150.399 226.478 150.973 226.152 151.528L226.019 151.748L225.884 151.972C225.738 152.216 225.633 152.472 225.549 152.69C225.472 152.921 225.462 153.169 225.519 153.405C225.567 153.597 225.679 153.845 225.825 153.965C225.977 154.089 226.115 154.189 226.291 154.274C226.405 154.328 226.526 154.373 226.644 154.417C227.451 154.78 228.194 155.231 228.913 155.667L229.131 155.798C229.405 155.967 229.679 156.13 229.966 156.269C230.274 156.413 230.604 156.515 230.926 156.615L231.026 156.645C231.212 156.705 231.396 156.747 231.587 156.772C231.582 156.88 231.582 156.987 231.587 157.095C231.593 157.365 231.617 157.635 231.638 157.9C231.661 158.137 231.678 158.348 231.69 158.558L231.696 158.666C231.718 159.165 231.736 159.626 231.696 160.078L231.677 160.298C231.51 161.256 231.284 162.146 230.997 163.188C230.735 164.135 230.45 165.264 230.333 166.442L230.287 166.842L230.262 167.082C230.229 167.397 230.2 167.713 230.174 168.029C230.148 168.34 230.133 168.651 230.116 168.963L230.084 169.55C230.011 170.658 229.959 171.768 229.926 172.878C229.913 173.358 229.906 173.845 229.901 174.325C229.894 174.746 229.91 175.129 229.93 175.516L229.949 175.954C229.985 176.885 230.078 177.831 230.167 178.745L230.181 178.896L230.194 179.019L230.206 179.133C230.467 181.721 230.826 183.793 231.332 185.651C231.442 186.053 231.567 186.448 231.7 186.845C231.777 187.072 231.868 187.292 231.959 187.513L231.997 187.61L232.162 188.013C232.519 188.911 232.887 189.8 233.264 190.689C233.271 190.636 233.265 190.581 233.246 190.531C233.5 191.241 233.931 192.3 234.46 193.372C234.932 194.326 235.447 195.258 236.005 196.165C236.658 197.242 237.327 198.145 238.053 198.92C238.601 199.502 239.223 200.039 239.772 200.513L239.844 200.575L240.395 201.055C241.457 201.979 242.285 202.615 243.078 203.112C243.821 203.585 244.614 203.942 245.381 204.287L245.878 204.514L246.288 204.706L246.384 204.75C247.241 205.15 248.079 205.535 248.922 205.86C249.158 205.955 249.397 206.042 249.635 206.128L249.8 206.188L249.893 206.22L250.428 206.415C250.857 206.577 251.288 206.739 251.731 206.872C252.82 207.199 253.965 207.256 255.141 207.288C255.657 207.304 256.17 207.314 256.683 207.32L256.821 207.324C257.518 207.324 258.191 207.25 258.822 207.103C259.321 206.984 259.808 206.82 260.277 206.615C260.892 206.362 261.427 206.023 261.868 205.727C262.567 205.264 263.235 204.734 263.882 204.221L264.022 204.111L264.558 203.686L264.809 203.488C265.149 203.222 265.49 202.953 265.809 202.66C266.202 202.3 266.562 201.919 266.897 201.56L267.045 201.398C267.455 200.951 267.837 200.536 268.164 200.098C268.399 199.783 268.623 199.464 268.849 199.141L268.986 198.945L269.076 198.812L270.08 197.398L270.43 196.895L270.988 196.104C271.428 195.462 271.844 194.804 272.236 194.131L272.64 193.463C273.042 192.806 273.403 192.208 273.727 191.562C273.917 191.179 274.081 190.783 274.24 190.384C274.435 189.914 274.5 189.474 274.547 189.097C274.547 188.887 274.494 188.69 274.391 188.512C274.289 188.338 274.143 188.193 273.969 188.092C273.794 187.99 273.596 187.936 273.394 187.933C273.007 187.933 272.644 188.143 272.394 188.508L272.306 188.634C272.137 188.871 271.986 189.12 271.855 189.38L271.79 189.508L271.654 189.763C271.439 190.176 271.208 190.581 270.962 190.976C270.631 191.512 270.293 192.044 269.949 192.572L269.737 192.906L269.347 193.509C269.237 193.681 269.125 193.853 269.008 194.025C269.049 193.887 269.04 193.74 269.026 193.588C268.959 192.817 268.865 191.906 268.669 190.992L268.539 190.395C268.434 189.905 268.239 189.435 268.049 188.979C267.789 188.374 267.529 187.925 267.284 187.512L267.143 187.272C266.964 186.967 266.781 186.664 266.593 186.364C266.235 185.783 265.791 185.303 265.365 184.87C264.959 184.459 264.505 184.076 264.067 183.706L263.774 183.456C263.562 183.274 263.343 183.096 263.124 182.918L262.908 182.742C262.63 182.518 262.346 182.301 262.055 182.093C261.555 181.729 260.979 181.461 260.481 181.249C259.565 180.841 258.61 180.53 257.629 180.32C256.85 180.157 256.061 180.118 255.535 180.103C255.412 180.103 255.32 180.115 255.217 180.145C255.108 180.023 254.966 179.937 254.808 179.896C254.721 179.869 254.63 179.856 254.538 179.856C254.102 179.856 253.716 180.153 253.557 180.611C253.444 180.939 253.331 181.264 253.215 181.591C253.035 182.087 252.96 182.494 252.985 182.833C253.005 183.19 253.129 183.487 253.355 183.714C253.619 183.977 253.999 184.095 254.301 184.171C254.504 184.221 254.713 184.252 254.917 184.283L255.253 184.333C255.788 184.428 256.319 184.543 256.845 184.677C257.409 184.814 257.963 184.95 258.482 185.157C259.558 185.637 260.45 186.145 261.207 186.709C261.764 187.168 262.255 187.669 262.709 188.239C263.212 188.924 263.731 189.674 264.114 190.514C264.395 191.247 264.601 192.03 264.741 192.909C264.825 193.716 264.835 194.469 264.77 195.209C264.74 195.573 264.709 195.936 264.673 196.299L264.648 196.517L264.573 197.148L264.493 197.123L264.179 197.09L264.015 197.074C263.554 197.011 263.092 196.955 262.629 196.905C262.349 196.876 262.065 196.843 261.784 196.808C260.852 196.662 259.864 196.477 258.946 196.118C258.742 196.026 258.545 195.918 258.357 195.797C258.272 195.714 258.189 195.629 258.107 195.542C258.03 195.427 257.961 195.306 257.902 195.181C257.761 194.839 257.655 194.483 257.587 194.119C257.534 193.551 257.489 192.983 257.452 192.414L257.595 192.367C257.811 192.273 258.01 192.122 258.158 192.003C258.515 191.831 258.69 191.565 258.69 191.191C258.69 190.47 258.029 190.213 257.463 190.213C257.29 190.213 257.107 190.239 256.935 190.288L256.599 190.392C256.186 190.524 255.839 190.629 255.463 190.691C254.611 190.795 253.667 190.846 252.578 190.846C251.936 190.846 251.295 190.826 250.654 190.797C250.344 190.797 250.083 190.91 249.874 191.134C249.681 191.338 249.572 191.608 249.568 191.889C249.568 192.485 250.034 192.954 250.653 192.98C251.011 192.997 251.369 193.007 251.727 193.013L251.674 193.085L251.648 193.195C251.514 193.703 251.399 194.079 251.274 194.412C251.153 194.7 251.005 194.976 250.83 195.235C250.654 195.435 250.47 195.625 250.268 195.805C250.154 195.881 250.035 195.949 249.912 196.01C249.535 196.149 249.146 196.254 248.75 196.325C248.636 196.335 248.521 196.34 248.406 196.341C248.039 196.341 247.661 196.295 247.296 196.25L246.914 196.201L246.785 196.188L246.686 196.178C246.374 196.139 246.06 196.116 245.746 196.111C245.356 196.115 244.966 196.157 244.584 196.237L244.603 196.132C244.606 195.142 244.609 194.122 244.69 193.083C244.796 192.373 244.938 191.646 245.18 190.57C245.362 189.76 245.68 188.996 245.99 188.256L246.09 188.013L246.247 187.65L246.29 187.55C246.356 187.398 246.424 187.243 246.495 187.089C246.611 186.846 246.743 186.61 246.888 186.383C246.963 186.265 247.051 186.151 247.138 186.039L247.294 185.842L247.129 185.976L247.326 185.79C247.536 185.533 247.746 185.281 247.967 185.034C248.257 184.71 248.599 184.424 248.898 184.182C249.116 184.009 249.346 183.854 249.587 183.716C249.871 183.605 250.162 183.514 250.458 183.444C250.565 183.422 250.674 183.402 250.783 183.383C251.026 183.337 251.21 183.301 251.398 183.24C251.527 183.196 251.655 183.147 251.781 183.094L251.869 183.058L252.162 182.934C252.379 182.841 252.532 182.745 252.674 182.616C252.839 182.473 252.88 182.203 252.889 182.056C252.896 181.908 252.885 181.76 252.857 181.615C252.804 181.32 252.693 181.038 252.53 180.785C252.525 180.595 252.392 180.364 252.16 180.317C251.761 180.229 251.353 180.181 250.944 180.174C250.773 180.174 250.601 180.184 250.427 180.208C249.954 180.271 249.509 180.419 248.977 180.606C248.795 180.672 248.615 180.736 248.438 180.804L248.332 180.847L248.252 180.875C248.134 180.922 248.072 180.947 248.012 180.976C247.875 181.037 247.743 181.108 247.618 181.191C246.826 181.695 246.062 182.243 245.332 182.833C244.856 183.199 244.431 183.627 244.069 184.106C243.794 184.481 243.554 184.889 243.311 185.31C243.037 185.786 242.881 186.267 242.742 186.693L242.684 186.878L242.594 187.158C242.439 187.604 242.279 188.046 242.118 188.487C241.814 189.33 241.665 190.244 241.533 191.05L241.514 191.174C241.462 191.489 241.404 191.803 241.347 192.114L241.314 192.293L241.276 192.511C241.205 192.927 241.134 193.341 241.078 193.762C240.953 194.682 240.868 195.455 240.868 196.248C240.868 196.631 240.872 197.011 240.882 197.393L240.889 197.659L240.899 197.926C240.791 197.778 240.653 197.646 240.511 197.51L240.167 197.177C239.851 196.864 239.577 196.519 239.314 196.184C238.467 195.03 237.662 193.683 236.854 192.064C236.228 190.808 235.672 189.496 235.134 188.227L235.055 188.049L234.93 187.744L234.727 187.222L234.647 187.021C234.525 186.722 234.404 186.422 234.285 186.122C234.175 185.837 234.089 185.542 234.001 185.247L233.963 185.107C233.863 184.763 233.763 184.42 233.68 184.07C233.361 182.719 233.107 181.353 232.919 179.978C232.696 178.079 232.458 175.878 232.464 173.771C232.467 172.801 232.498 171.762 232.554 170.683L232.599 169.765C232.642 168.931 232.681 168.177 232.754 167.437L232.815 166.765L232.876 166.145C232.912 165.929 232.951 165.712 232.996 165.491C232.879 164.657 233.025 163.746 233.183 162.964L233.283 162.461C233.349 162.125 233.415 161.789 233.493 161.456C233.55 161.191 233.611 160.925 233.673 160.659L233.683 160.551C233.788 159.557 233.894 158.528 234.137 157.551C234.127 156.878 234.126 156.204 234.134 155.531L234.144 154.513C234.15 154.241 234.167 153.969 234.182 153.696L234.192 153.531C234.223 152.918 234.305 152.297 234.384 151.696L234.402 151.539C234.505 150.849 234.618 150.155 234.734 149.464C234.866 148.674 234.975 147.884 235.082 147.09L235.031 147.232L235.187 146.402L235.269 145.906C235.344 145.494 235.449 145.079 235.556 144.671C235.76 143.895 236.015 142.983 236.356 142.102C236.586 141.507 236.828 140.918 237.07 140.327L237.406 139.498C237.567 139.1 237.726 138.698 237.88 138.295C238.054 137.847 238.228 137.403 238.41 136.958L238.448 136.865L238.499 136.732C238.533 136.726 238.566 136.714 238.596 136.697C239.228 136.393 239.866 136.103 240.51 135.827L240.726 135.734C241.508 135.459 242.354 135.164 243.224 134.897L243.449 134.829C243.723 134.749 244 134.667 244.281 134.589L244.736 134.463C245.049 134.372 245.361 134.285 245.676 134.21L245.883 134.164C246.653 133.984 247.427 133.821 248.204 133.675C249.062 133.524 249.922 133.387 250.784 133.262C251.761 133.157 252.74 133.066 253.72 132.99C254.683 132.919 255.647 132.868 256.612 132.838L256.705 132.835C257.041 132.822 257.375 132.815 257.715 132.815C258.23 132.815 258.752 132.828 259.271 132.841L259.526 132.851L259.761 132.857C260.601 132.88 261.466 132.944 262.33 133.049C263.51 133.239 264.653 133.509 265.818 133.795C267.14 134.122 268.263 134.467 269.251 134.852C270.098 135.254 270.799 135.619 271.467 136.096C271.634 136.248 271.795 136.407 271.942 136.578C271.982 136.633 272.018 136.697 272.052 136.774C272.324 137.614 272.453 138.53 272.568 139.339C272.647 139.967 272.712 140.525 272.753 141.085C272.779 141.471 272.792 141.857 272.805 142.246C272.812 142.489 272.817 142.726 272.831 142.96C272.891 144.245 272.973 145.528 273.063 146.81C273.101 147.374 273.133 147.936 273.163 148.5C273.198 149.168 273.237 149.84 273.292 150.508C273.378 151.54 273.529 152.593 273.662 153.522L273.798 154.478L273.862 154.975L273.94 155.543L273.959 155.701C274.086 156.708 274.209 157.685 274.379 158.624L274.211 158.637C274.229 159.121 274.231 159.62 274.207 160.127C274.378 160.107 274.537 160.077 274.697 160.045C274.88 160.929 275.127 161.855 275.423 162.793C275.63 163.429 275.869 164.03 276.133 164.579C276.243 164.796 276.363 165.014 276.495 165.218C276.955 165.934 277.605 166.344 278.282 166.344C278.972 166.321 279.497 165.919 280.004 165.528L280.121 165.44C280.196 165.382 280.269 165.324 280.347 165.273L280.534 165.136L280.604 165.086C280.904 164.869 281.217 164.645 281.552 164.462C281.632 164.42 281.712 164.378 281.794 164.339C282.021 164.255 282.243 164.181 282.481 164.129L282.561 164.152C282.581 164.183 282.605 164.211 282.631 164.237L282.731 164.387L282.761 164.49L282.81 164.645C282.617 165.377 282.628 165.998 282.843 166.54C282.907 166.772 283.023 166.972 283.196 167.153C283.459 169.292 283.479 171.353 283.251 173.273C283.147 173.92 283.004 174.679 282.73 175.403C282.578 175.711 282.403 176.008 282.205 176.289C281.925 176.626 281.589 176.952 281.178 177.283C280.762 177.596 280.32 177.874 279.858 178.113C279.748 178.131 279.706 178.131 279.665 178.131L279.577 178.015C279.483 177.9 279.363 177.807 279.227 177.745C279.091 177.683 278.943 177.654 278.794 177.658C278.538 177.652 278.288 177.734 278.086 177.892C277.884 178.049 277.743 178.271 277.686 178.521C277.615 178.813 277.658 179.104 277.81 179.337C277.92 179.517 278.036 179.697 278.175 179.86C278.269 179.97 278.452 180.168 278.617 180.246C278.854 180.352 279.037 180.433 279.25 180.489C279.426 180.536 279.64 180.558 279.903 180.558C280.573 180.541 281.181 180.276 281.687 180.018C282.25 179.734 282.784 179.396 283.281 179.008C283.503 178.837 283.717 178.651 283.926 178.464C284.143 178.264 284.322 178.029 284.486 177.804L284.578 177.684C284.966 177.164 285.208 176.544 285.411 175.953C285.611 175.385 285.68 174.741 285.734 174.224L285.764 173.979C285.822 173.459 285.854 172.909 285.864 172.249C285.883 171.012 285.83 169.775 285.705 168.544C285.643 167.905 285.567 167.268 285.476 166.633C285.539 166.487 285.565 166.328 285.551 166.17C285.542 166.133 285.537 166.095 285.534 166.057C285.572 165.914 285.614 165.772 285.66 165.631L285.695 165.514C285.721 165.437 285.747 165.358 285.766 165.281C285.834 165.027 285.888 164.775 285.94 164.521C286.063 163.871 286.186 163.178 286.234 162.467C286.296 161.443 286.276 160.424 286.256 159.439L286.25 158.986L286.244 158.72C286.236 157.935 286.213 157.149 286.174 156.365C286.324 155.975 286.475 155.582 286.608 155.187C286.672 154.994 286.738 154.8 286.805 154.607C286.928 154.251 287.052 153.895 287.156 153.537L287.275 153.129L287.675 151.752C287.779 151.394 287.859 151.029 287.938 150.665L288.049 150.165C288.292 149.13 288.477 148.059 288.601 146.985L288.654 146.54C288.702 146.153 288.749 145.767 288.776 145.38L288.809 144.853L288.843 144.322L288.858 144.109C288.874 143.939 288.884 143.769 288.888 143.599L288.899 142.649L288.911 141.701C288.91 141.141 288.888 140.581 288.843 140.023C288.788 139.163 288.68 138.307 288.52 137.46C288.374 136.702 288.142 135.955 287.917 135.234L287.813 134.9C287.683 134.477 287.528 134.064 287.373 133.65L287.285 133.414C286.788 132.088 286.195 130.554 285.424 129.141C284.826 128.051 284.076 127.068 283.42 126.251L283.158 125.925C282.914 125.622 282.671 125.32 282.418 125.027L282.188 124.759C281.544 124.009 280.878 123.236 280.177 122.516C279.757 122.081 279.329 121.659 278.89 121.244C278.511 120.883 278.083 120.56 277.67 120.249L277.471 120.099C276.596 119.439 275.696 118.814 274.771 118.226C273.836 117.614 272.836 117.105 271.791 116.708L271.521 116.605C271.324 116.529 271.125 116.456 270.926 116.386C270.305 116.171 269.623 116.003 268.716 115.842C267.912 115.704 267.302 115.639 266.739 115.631C266.403 115.624 266.069 115.621 265.733 115.617" fill="#161616"/>
<path fill-rule="evenodd" clip-rule="evenodd" d="M246.176 160.27L246.17 160.286L246.176 160.27ZM236.506 156.96C236.525 156.917 236.543 156.872 236.561 156.828C236.558 156.836 236.554 156.844 236.551 156.852L236.505 156.964L236.506 156.961V156.96ZM240.338 153.556L240.44 153.567C240.596 153.592 240.747 153.628 240.895 153.688C240.918 153.698 240.941 153.71 240.965 153.722C241.075 153.778 241.209 153.754 241.275 153.638C241.283 153.624 241.289 153.61 241.294 153.595C241.483 153.608 241.671 153.625 241.859 153.649C242.337 153.72 242.804 153.845 243.253 154.023C243.425 154.123 243.597 154.223 243.768 154.325C243.94 154.428 244.116 154.528 244.281 154.645C244.441 154.778 244.596 154.917 244.751 155.058C244.969 155.256 245.196 155.456 245.386 155.684C245.541 155.91 245.676 156.152 245.821 156.384C245.981 156.643 246.137 156.898 246.269 157.173C246.323 157.317 246.37 157.463 246.409 157.613C246.462 157.816 246.51 158.023 246.549 158.228C246.559 158.401 246.547 158.572 246.529 158.744C246.456 159.271 246.333 159.791 246.164 160.296C246.076 160.496 245.97 160.68 245.846 160.859C245.576 161.197 245.272 161.496 244.947 161.778C244.887 161.822 244.827 161.865 244.765 161.905C244.591 162.014 244.411 162.114 244.226 162.203C243.597 162.459 242.929 162.609 242.259 162.71C241.67 162.768 241.082 162.724 240.496 162.654C240.192 162.603 239.894 162.526 239.603 162.424C239.284 162.281 238.979 162.107 238.693 161.905C238.449 161.706 238.218 161.492 238 161.264C237.867 161.121 237.732 160.979 237.596 160.838C237.459 160.698 237.309 160.571 237.184 160.421C237.14 160.361 237.098 160.299 237.058 160.236C237.001 160.141 236.947 160.044 236.898 159.944C236.824 159.802 236.756 159.656 236.694 159.508C236.622 159.323 236.555 159.136 236.492 158.947C236.446 158.798 236.413 158.645 236.392 158.49C236.368 158.128 236.377 157.764 236.419 157.404C236.431 157.323 236.445 157.242 236.461 157.161C236.483 157.056 236.514 156.953 236.552 156.853C236.677 156.593 236.824 156.347 236.969 156.099C237.096 155.884 237.217 155.663 237.359 155.457C237.587 155.179 237.857 154.937 238.132 154.707C238.252 154.614 238.373 154.521 238.497 154.432C238.645 154.326 238.799 154.232 238.953 154.135C239.253 153.948 239.553 153.755 239.873 153.603L239.961 153.569C240.087 153.561 240.212 153.557 240.338 153.556V153.556ZM240.458 152.057C240.263 152.087 240.071 152.149 239.883 152.211C239.638 152.296 239.398 152.396 239.165 152.511C238.963 152.608 238.772 152.735 238.582 152.853C238.387 152.974 238.193 153.099 238.002 153.226C237.81 153.355 237.627 153.501 237.446 153.644C237.228 153.815 237.022 153.996 236.817 154.182C236.62 154.367 236.441 154.569 236.281 154.787C236.148 154.967 236.037 155.166 235.922 155.357C235.812 155.543 235.698 155.726 235.591 155.913C235.535 156.01 235.482 156.109 235.432 156.209C235.362 156.349 235.299 156.503 235.255 156.656C235.175 156.933 235.145 157.218 235.11 157.506C235.087 157.696 235.074 157.889 235.072 158.081C235.042 158.307 235.02 158.535 235.006 158.763C234.986 159.055 235.015 159.36 235.096 159.641C235.172 159.904 235.276 160.157 235.383 160.409C235.481 160.642 235.587 160.871 235.693 161.1C235.791 161.308 235.883 161.519 235.985 161.724C236.062 161.877 236.179 162.011 236.283 162.145L236.403 162.295C236.473 162.381 236.549 162.462 236.625 162.543C236.797 162.729 236.999 162.898 237.209 163.035C237.445 163.188 237.701 163.295 237.959 163.401C238.177 163.491 238.402 163.562 238.628 163.623C239.096 163.749 239.571 163.811 240.05 163.874C240.304 163.908 240.558 163.933 240.813 163.951C241.159 163.985 241.506 164.001 241.853 163.998C242.119 163.992 242.383 163.955 242.644 163.91C243.074 163.837 243.497 163.735 243.914 163.61C244.386 163.467 244.841 163.271 245.269 163.027C245.36 162.976 245.452 162.924 245.542 162.871C245.678 162.791 245.801 162.698 245.923 162.598C246.087 162.459 246.241 162.31 246.386 162.151C246.542 161.986 246.694 161.817 246.843 161.645C247.004 161.457 247.169 161.263 247.3 161.051C247.547 160.651 247.718 160.203 247.843 159.749C247.915 159.484 247.942 159.209 247.968 158.938C247.99 158.708 247.996 158.475 248 158.244C247.997 157.966 247.973 157.688 247.927 157.414C247.9 157.201 247.857 156.99 247.798 156.784C247.717 156.528 247.618 156.279 247.5 156.038C247.404 155.841 247.292 155.653 247.165 155.475C247.031 155.285 246.888 155.101 246.748 154.917C246.614 154.743 246.464 154.583 246.298 154.439C246.109 154.271 245.899 154.131 245.698 153.981C245.541 153.864 245.388 153.741 245.222 153.638C245.113 153.57 245.002 153.507 244.892 153.442C244.854 153.416 244.815 153.39 244.776 153.365C244.588 153.245 244.394 153.13 244.2 153.018C244.015 152.912 243.834 152.798 243.644 152.702C243.443 152.6 243.241 152.5 243.037 152.404C242.897 152.338 242.755 152.275 242.612 152.216C242.456 152.152 242.28 152.124 242.114 152.096C241.781 152.042 241.445 152.01 241.108 152C240.89 152 240.676 152.024 240.458 152.057V152.057Z" fill="#161616"/>
<path fill-rule="evenodd" clip-rule="evenodd" d="M243.349 157.344C243.323 157.348 243.296 157.352 243.269 157.356L243.349 157.344ZM243.506 157.32L243.459 157.327H243.461L243.492 157.322L243.506 157.32V157.32ZM246.589 156C246.484 156.002 246.38 156.019 246.276 156.03C246.188 156.04 246.099 156.047 246.011 156.057C245.801 156.081 245.592 156.113 245.384 156.151C245.001 156.218 244.618 156.274 244.235 156.343C243.933 156.397 243.63 156.447 243.326 156.497C243.296 156.498 243.266 156.503 243.236 156.512L243.06 156.542C243.033 156.543 243.006 156.548 242.979 156.556C242.612 156.619 242.245 156.686 241.879 156.749C241.093 156.887 240.309 157.036 239.522 157.169C238.756 157.299 237.998 157.488 237.242 157.667C236.907 157.747 236.572 157.826 236.238 157.907C236.064 157.947 235.966 158.169 236.011 158.351C236.022 158.4 236.044 158.446 236.074 158.486C236.105 158.526 236.144 158.558 236.188 158.581C236.18 158.654 236.195 158.727 236.231 158.791C236.268 158.851 236.301 158.901 236.359 158.938C236.422 158.976 236.494 158.997 236.567 159C236.613 159 236.66 158.998 236.705 158.994C236.788 158.987 236.871 158.974 236.953 158.963C237.143 158.935 237.323 158.889 237.51 158.843C237.875 158.754 238.249 158.693 238.62 158.628C239.35 158.501 240.074 158.338 240.794 158.154C241.174 158.056 241.559 157.984 241.941 157.901C242.313 157.821 242.681 157.721 243.051 157.631C243.805 157.446 244.578 157.382 245.334 157.211L245.959 157.071C246.205 157.014 246.454 156.967 246.698 156.898C246.875 156.848 247 156.658 247 156.458C247 156.214 246.817 156 246.597 156H246.589V156Z" fill="#161616"/>
<path fill-rule="evenodd" clip-rule="evenodd" d="M240.146 158.336C240.237 158.342 240.327 158.346 240.418 158.349C240.357 158.372 240.297 158.397 240.237 158.424C240.235 158.424 240.233 158.422 240.232 158.421C240.202 158.394 240.173 158.366 240.146 158.336ZM242.973 157.029C242.882 157.042 242.79 157.055 242.7 157.071C242.328 157.135 241.96 157.214 241.591 157.295C241.361 157.345 241.131 157.402 240.902 157.458C240.778 157.488 240.654 157.518 240.53 157.55C240.336 157.598 240.142 157.64 239.95 157.696C239.888 157.714 239.833 157.749 239.792 157.798C239.75 157.847 239.724 157.907 239.716 157.971L239.705 157.968C239.644 157.952 239.58 157.949 239.517 157.96C239.454 157.971 239.395 157.995 239.342 158.03C239.317 158.01 239.287 157.997 239.255 157.991C239.224 157.985 239.191 157.986 239.16 157.995C239.053 158.025 238.97 158.149 239.01 158.26C239.071 158.432 239.128 158.607 239.198 158.776C239.238 158.873 239.278 158.971 239.332 159.062C239.388 159.156 239.465 159.244 239.542 159.322C239.667 159.447 239.815 159.553 239.966 159.644C240.163 159.766 240.38 159.853 240.607 159.899C240.79 159.942 240.974 159.972 241.161 159.992C241.378 160.011 241.596 159.991 241.805 159.934C241.972 159.891 242.131 159.831 242.291 159.767C242.455 159.702 242.616 159.63 242.774 159.552C242.936 159.472 243.087 159.38 243.225 159.264C243.285 159.214 243.335 159.151 243.383 159.089C243.449 159.005 243.509 158.919 243.565 158.827C243.632 158.724 243.685 158.612 243.72 158.495C243.744 158.407 243.765 158.319 243.782 158.229C243.812 158.084 243.825 157.935 243.822 157.787C243.827 157.78 243.832 157.772 243.837 157.765C243.869 157.729 243.903 157.691 243.926 157.653C243.951 157.613 243.971 157.57 243.986 157.525C243.993 157.486 243.998 157.447 244 157.408C244 157.348 243.986 157.288 243.958 157.234C243.931 157.18 243.892 157.134 243.843 157.098C243.794 157.062 243.738 157.039 243.678 157.029C243.619 157.019 243.558 157.023 243.5 157.041C243.423 157.013 243.341 156.999 243.258 157C243.164 157 243.068 157.014 242.973 157.029V157.029ZM238.375 159.612V159.613C238.371 159.619 238.367 159.624 238.362 159.629L238.375 159.612ZM238.853 159.421L238.839 159.438C238.843 159.432 238.848 159.426 238.853 159.421ZM238.666 159.031C238.6 159.073 238.533 159.115 238.482 159.174C238.421 159.246 238.384 159.336 238.379 159.431C238.375 159.489 238.378 159.548 238.375 159.606C238.367 159.614 238.358 159.622 238.349 159.629C238.259 159.695 238.166 159.758 238.088 159.837C238.024 159.899 237.971 159.972 237.933 160.053L237.869 160.201C237.845 160.254 237.816 160.306 237.784 160.355C237.772 160.368 237.759 160.381 237.746 160.393C237.648 160.459 237.536 160.503 237.429 160.549L237.126 160.669C237.082 160.687 237.048 160.705 237.024 160.746C237.012 160.765 237.005 160.787 237.002 160.809C236.998 160.831 237 160.854 237.006 160.876C237.018 160.918 237.047 160.954 237.085 160.976C237.12 160.996 237.176 161.009 237.216 160.993C237.411 160.915 237.609 160.843 237.799 160.755C237.893 160.715 237.979 160.657 238.051 160.585C238.098 160.532 238.139 160.473 238.172 160.41C238.212 160.337 238.248 160.261 238.296 160.192C238.327 160.158 238.362 160.126 238.398 160.097C238.489 160.033 238.589 159.983 238.678 159.915C238.72 159.883 238.756 159.842 238.782 159.796C238.817 159.737 238.821 159.664 238.825 159.597C238.829 159.553 238.829 159.508 238.833 159.464C238.834 159.458 238.836 159.453 238.837 159.447C238.854 159.432 238.872 159.418 238.89 159.405C238.939 159.376 238.975 159.33 238.992 159.275C239 159.247 239.002 159.218 238.998 159.189C238.994 159.161 238.985 159.133 238.97 159.108C238.949 159.075 238.92 159.048 238.886 159.029C238.852 159.01 238.813 159 238.774 159C238.736 158.999 238.698 159.01 238.666 159.03V159.031ZM240.611 161.32L240.61 161.323L240.611 161.32ZM240.607 161.313L240.601 161.319L240.607 161.313ZM240.646 160.007C240.62 160.013 240.596 160.023 240.574 160.038C240.553 160.054 240.534 160.073 240.52 160.095C240.506 160.118 240.497 160.143 240.493 160.169C240.489 160.195 240.49 160.221 240.496 160.247C240.511 160.303 240.53 160.357 240.542 160.414C240.544 160.443 240.544 160.472 240.542 160.501C240.521 160.598 240.491 160.693 240.474 160.791C240.455 160.914 240.472 161.041 240.522 161.155C240.545 161.21 240.575 161.259 240.605 161.31C240.555 161.355 240.501 161.395 240.447 161.434L240.095 161.673C240.053 161.701 240.021 161.73 240.007 161.777C240.001 161.8 239.999 161.824 240.002 161.847C240.006 161.871 240.014 161.893 240.027 161.913C240.051 161.953 240.093 161.981 240.141 161.993C240.186 162.005 240.25 162.003 240.289 161.976C240.429 161.882 240.569 161.79 240.705 161.692L240.811 161.615C240.844 161.59 240.875 161.562 240.903 161.532C240.939 161.493 240.967 161.448 240.986 161.399C241.023 161.309 240.981 161.211 240.928 161.135C240.914 161.115 240.901 161.093 240.889 161.071C240.875 161.035 240.865 160.998 240.857 160.961C240.855 160.934 240.855 160.907 240.857 160.88C240.877 160.79 240.917 160.702 240.943 160.613C240.977 160.507 240.984 160.394 240.963 160.284C240.95 160.218 240.924 160.154 240.888 160.097C240.853 160.035 240.776 160 240.701 160C240.683 160 240.664 160.002 240.646 160.007V160.007ZM243.327 160.654L243.329 160.655C243.329 160.655 243.328 160.654 243.328 160.654H243.327ZM243.328 160.612L243.33 160.62C243.329 160.617 243.329 160.615 243.328 160.612V160.612ZM243.196 160.028C243.146 160.058 243.082 160.089 243.052 160.136C243.021 160.177 243.003 160.227 243 160.278C243 160.365 243.068 160.438 243.137 160.5C243.197 160.553 243.265 160.598 243.324 160.65C243.301 160.725 243.291 160.804 243.295 160.882C243.3 160.921 243.308 160.959 243.319 160.996C243.329 161.034 243.354 161.07 243.373 161.106C243.399 161.152 243.443 161.189 243.476 161.233L243.477 161.236C243.478 161.253 243.478 161.269 243.477 161.286C243.465 161.33 243.448 161.373 243.427 161.414C243.367 161.514 243.29 161.603 243.211 161.693C243.129 161.785 243.188 161.919 243.305 161.973C243.369 162 243.44 162.007 243.508 161.993C243.569 161.98 243.625 161.947 243.665 161.899C243.795 161.752 243.914 161.6 243.975 161.425C244.008 161.327 244.009 161.222 243.979 161.123C243.957 161.047 243.889 160.987 243.842 160.921C243.838 160.91 243.834 160.899 243.831 160.887V160.836C243.846 160.786 243.868 160.739 243.881 160.689C243.911 160.583 243.868 160.476 243.784 160.392C243.729 160.338 243.671 160.289 243.608 160.245L243.593 160.234C243.597 160.211 243.596 160.188 243.591 160.165C243.585 160.142 243.574 160.121 243.56 160.103C243.52 160.054 243.464 160.02 243.402 160.008C243.377 160.003 243.351 160 243.325 160C243.28 159.998 243.236 160.008 243.196 160.028V160.028ZM245.825 159.05C245.837 159.059 245.848 159.069 245.858 159.08L245.825 159.05ZM245.764 159.016L245.775 159.021C245.771 159.019 245.768 159.018 245.764 159.016V159.016ZM246.471 158.934L246.484 158.968C246.479 158.957 246.475 158.946 246.471 158.934V158.934ZM245.101 158.114C244.976 158.257 244.957 158.534 245.101 158.674C245.235 158.801 245.383 158.896 245.547 158.966C245.622 158.998 245.7 159.014 245.778 159.036C245.792 159.106 245.8 159.178 245.818 159.247C245.858 159.391 245.938 159.517 246.035 159.617C246.164 159.75 246.319 159.847 246.468 159.947C246.635 160.057 246.855 159.992 246.953 159.801C247.05 159.611 246.993 159.361 246.826 159.249C246.73 159.188 246.638 159.123 246.548 159.053C246.531 159.036 246.515 159.018 246.499 158.999C246.486 158.939 246.477 158.879 246.468 158.819C246.456 158.733 246.416 158.652 246.383 158.576C246.339 158.476 246.249 158.406 246.172 158.343C246.128 158.319 246.083 158.297 246.038 158.276C246.017 158.267 245.995 158.259 245.973 158.253C245.892 158.229 245.811 158.2 245.733 158.167C245.661 158.13 245.59 158.095 245.523 158.053C245.458 158.01 245.379 157.993 245.301 158.005C245.224 158.016 245.154 158.055 245.103 158.115L245.101 158.114ZM257.824 159.27L257.83 159.286L257.824 159.27ZM267.494 155.96C267.475 155.917 267.457 155.872 267.439 155.828L267.449 155.852L267.495 155.964L267.494 155.961V155.96ZM263.662 152.556C263.471 152.574 263.284 152.618 263.105 152.688C263.082 152.698 263.059 152.71 263.035 152.722C262.925 152.778 262.791 152.754 262.725 152.638C262.717 152.624 262.711 152.61 262.706 152.595C262.517 152.608 262.329 152.625 262.141 152.649C261.837 152.696 261.537 152.764 261.242 152.851C261.075 152.901 260.91 152.959 260.747 153.023C260.575 153.123 260.403 153.223 260.232 153.325C260.06 153.428 259.884 153.528 259.719 153.645C259.559 153.778 259.404 153.917 259.249 154.058C259.031 154.256 258.804 154.456 258.614 154.684C258.459 154.91 258.324 155.152 258.179 155.384C258.019 155.643 257.863 155.898 257.731 156.173C257.677 156.317 257.63 156.463 257.591 156.613C257.538 156.816 257.49 157.023 257.451 157.228C257.441 157.401 257.453 157.572 257.471 157.744C257.548 158.271 257.663 158.793 257.836 159.296C257.924 159.496 258.03 159.68 258.154 159.859C258.424 160.197 258.728 160.496 259.053 160.778C259.113 160.822 259.173 160.865 259.235 160.905C259.409 161.014 259.589 161.114 259.774 161.203C260.403 161.459 261.071 161.609 261.741 161.71C262.33 161.768 262.918 161.724 263.504 161.654C263.808 161.603 264.107 161.526 264.397 161.424C264.714 161.279 265.023 161.11 265.307 160.905C265.549 160.705 265.785 160.493 266 160.264C266.134 160.121 266.268 159.978 266.404 159.838C266.541 159.698 266.691 159.571 266.816 159.421C266.86 159.361 266.902 159.299 266.942 159.236C267 159.142 267.052 159.043 267.102 158.944C267.178 158.802 267.244 158.656 267.306 158.508C267.378 158.322 267.446 158.136 267.508 157.947C267.556 157.799 267.584 157.644 267.608 157.49C267.632 157.128 267.623 156.764 267.581 156.404C267.569 156.323 267.555 156.242 267.539 156.161C267.517 156.056 267.486 155.953 267.448 155.853C267.323 155.593 267.176 155.347 267.031 155.099C266.904 154.884 266.783 154.663 266.641 154.457C266.408 154.183 266.149 153.932 265.868 153.707C265.748 153.613 265.627 153.521 265.503 153.432C265.355 153.326 265.201 153.232 265.047 153.135C264.747 152.948 264.447 152.755 264.127 152.603C264.098 152.591 264.069 152.58 264.039 152.569C263.914 152.561 263.788 152.557 263.662 152.556ZM263.542 151.057C263.737 151.087 263.929 151.149 264.117 151.211C264.363 151.293 264.601 151.398 264.835 151.511C265.037 151.608 265.228 151.735 265.418 151.853C265.613 151.975 265.808 152.098 265.998 152.226C266.19 152.355 266.373 152.501 266.554 152.644C266.772 152.815 266.978 152.996 267.183 153.182C267.383 153.367 267.555 153.568 267.719 153.787C267.852 153.967 267.963 154.166 268.078 154.357C268.188 154.543 268.302 154.726 268.409 154.913C268.465 155.01 268.518 155.108 268.568 155.209C268.638 155.349 268.701 155.503 268.745 155.656C268.825 155.933 268.855 156.218 268.89 156.506C268.913 156.696 268.926 156.889 268.928 157.081C268.959 157.307 268.981 157.535 268.994 157.763C269.014 158.055 268.985 158.36 268.904 158.641C268.828 158.904 268.724 159.157 268.617 159.409C268.519 159.642 268.413 159.871 268.307 160.1C268.209 160.308 268.117 160.519 268.015 160.724C267.938 160.877 267.821 161.011 267.717 161.145L267.597 161.295C267.527 161.381 267.451 161.462 267.375 161.543C267.201 161.73 267.005 161.895 266.791 162.035C266.553 162.18 266.302 162.303 266.041 162.401C265.823 162.489 265.6 162.563 265.372 162.623C264.904 162.749 264.429 162.811 263.95 162.874C263.697 162.908 263.442 162.933 263.187 162.951C262.842 162.985 262.494 163.001 262.147 162.998C261.882 162.988 261.617 162.958 261.356 162.91C260.926 162.837 260.503 162.735 260.086 162.61C259.614 162.467 259.16 162.271 258.731 162.027C258.64 161.976 258.549 161.924 258.458 161.871C258.324 161.79 258.197 161.699 258.077 161.598C257.913 161.459 257.759 161.31 257.614 161.151C257.458 160.986 257.306 160.817 257.157 160.645C256.99 160.459 256.837 160.261 256.7 160.051C256.458 159.645 256.275 159.207 256.157 158.749C256.093 158.483 256.051 158.211 256.032 157.938C256.012 157.707 256.002 157.476 256 157.244C256.003 156.966 256.027 156.688 256.073 156.414C256.1 156.201 256.143 155.99 256.202 155.784C256.283 155.528 256.382 155.279 256.5 155.038C256.595 154.839 256.708 154.655 256.835 154.475C256.969 154.285 257.112 154.101 257.252 153.917C257.386 153.74 257.537 153.585 257.702 153.439C257.891 153.271 258.101 153.131 258.302 152.981C258.459 152.864 258.612 152.741 258.778 152.638C258.887 152.57 258.998 152.507 259.108 152.442L259.224 152.365C259.412 152.245 259.606 152.13 259.8 152.018C259.985 151.912 260.166 151.798 260.356 151.702C260.556 151.6 260.758 151.5 260.963 151.404C261.103 151.339 261.245 151.274 261.388 151.216C261.544 151.152 261.72 151.124 261.886 151.096C262.219 151.042 262.555 151.01 262.892 151C263.11 151 263.324 151.024 263.542 151.057V151.057Z" fill="#161616"/>
<path fill-rule="evenodd" clip-rule="evenodd" d="M260.651 156.344L260.731 156.356L260.651 156.344ZM260.494 156.32L260.541 156.327H260.539L260.508 156.322L260.494 156.32ZM257.41 155C257.515 155.002 257.619 155.019 257.723 155.03C257.811 155.04 257.9 155.047 257.988 155.057C258.198 155.08 258.407 155.113 258.615 155.151C258.998 155.218 259.381 155.274 259.764 155.343C260.066 155.397 260.369 155.447 260.673 155.497C260.704 155.498 260.734 155.503 260.763 155.512L260.939 155.542C260.967 155.543 260.994 155.548 261.02 155.556C261.387 155.619 261.754 155.686 262.12 155.749C262.906 155.887 263.69 156.036 264.477 156.169C265.243 156.299 266.001 156.488 266.757 156.667C267.092 156.747 267.427 156.826 267.761 156.907C267.935 156.947 268.033 157.169 267.988 157.351C267.977 157.4 267.956 157.446 267.925 157.486C267.895 157.526 267.856 157.558 267.811 157.581C267.819 157.654 267.804 157.727 267.768 157.791C267.737 157.849 267.694 157.9 267.64 157.938C267.577 157.976 267.506 157.998 267.432 158C267.386 158 267.34 157.998 267.294 157.994C267.211 157.986 267.128 157.976 267.046 157.963C266.856 157.935 266.676 157.889 266.489 157.843C266.124 157.754 265.75 157.693 265.379 157.628C264.649 157.501 263.925 157.338 263.205 157.154C262.825 157.056 262.44 156.984 262.058 156.901C261.686 156.821 261.318 156.721 260.948 156.631C260.194 156.446 259.421 156.382 258.665 156.211L258.04 156.071C257.794 156.014 257.545 155.967 257.301 155.898C257.124 155.848 256.999 155.658 256.999 155.458C256.999 155.214 257.182 155 257.402 155H257.41V155Z" fill="#161616"/>
<path fill-rule="evenodd" clip-rule="evenodd" d="M263.854 157.336C263.764 157.342 263.673 157.346 263.582 157.349C263.643 157.371 263.703 157.398 263.763 157.424C263.765 157.424 263.767 157.422 263.768 157.421C263.798 157.394 263.826 157.366 263.854 157.336ZM261.027 156.029C261.118 156.042 261.21 156.055 261.3 156.071C261.672 156.135 262.04 156.214 262.409 156.295C262.639 156.345 262.869 156.402 263.098 156.458C263.222 156.488 263.346 156.518 263.47 156.55C263.664 156.598 263.858 156.64 264.05 156.696C264.176 156.732 264.27 156.841 264.284 156.971L264.295 156.968C264.357 156.952 264.421 156.949 264.483 156.96C264.546 156.971 264.606 156.995 264.658 157.03C264.684 157.01 264.713 156.997 264.745 156.991C264.777 156.985 264.809 156.986 264.84 156.995C264.947 157.025 265.03 157.149 264.99 157.26C264.929 157.432 264.872 157.607 264.802 157.776C264.762 157.873 264.722 157.971 264.668 158.062C264.609 158.157 264.538 158.244 264.458 158.322C264.331 158.446 264.188 158.554 264.034 158.644C263.837 158.766 263.62 158.853 263.393 158.899C263.211 158.941 263.026 158.972 262.839 158.992C262.623 159.011 262.405 158.991 262.195 158.934C262.03 158.889 261.867 158.834 261.709 158.767C261.546 158.702 261.384 158.63 261.226 158.552C261.065 158.475 260.913 158.378 260.775 158.264C260.715 158.214 260.665 158.151 260.617 158.089C260.552 158.005 260.491 157.918 260.435 157.827C260.368 157.724 260.316 157.612 260.28 157.495C260.256 157.407 260.235 157.318 260.218 157.229C260.189 157.084 260.175 156.935 260.178 156.787C260.173 156.78 260.168 156.772 260.163 156.765C260.131 156.729 260.097 156.691 260.074 156.653C260.05 156.613 260.029 156.57 260.014 156.525C260.007 156.486 260.002 156.447 260 156.408C260 156.348 260.015 156.288 260.042 156.234C260.069 156.18 260.109 156.134 260.157 156.098C260.206 156.062 260.263 156.039 260.322 156.029C260.382 156.019 260.443 156.023 260.5 156.041C260.578 156.013 260.66 155.999 260.742 156C260.836 156 260.932 156.014 261.027 156.029V156.029ZM265.625 158.612V158.613C265.629 158.619 265.634 158.624 265.638 158.629L265.625 158.612ZM265.147 158.421L265.161 158.438C265.157 158.432 265.152 158.426 265.147 158.421V158.421ZM265.334 158.031C265.4 158.073 265.467 158.115 265.518 158.174C265.58 158.246 265.616 158.336 265.621 158.431C265.625 158.489 265.622 158.548 265.625 158.606C265.634 158.614 265.642 158.622 265.651 158.629C265.741 158.695 265.834 158.758 265.912 158.837C265.977 158.899 266.029 158.972 266.067 159.053L266.131 159.201C266.156 159.254 266.183 159.306 266.216 159.355C266.228 159.368 266.241 159.381 266.254 159.393C266.352 159.459 266.464 159.503 266.571 159.549L266.874 159.669C266.918 159.687 266.952 159.705 266.976 159.746C267 159.785 267.006 159.832 266.994 159.876C266.982 159.918 266.953 159.954 266.915 159.976C266.88 159.996 266.824 160.009 266.784 159.993C266.589 159.915 266.391 159.843 266.201 159.755C266.107 159.715 266.021 159.658 265.949 159.585C265.902 159.532 265.861 159.473 265.828 159.41C265.788 159.337 265.752 159.261 265.704 159.192C265.673 159.158 265.639 159.126 265.602 159.097C265.511 159.033 265.411 158.983 265.322 158.915C265.28 158.883 265.245 158.842 265.218 158.796C265.183 158.737 265.179 158.664 265.175 158.597C265.171 158.553 265.171 158.508 265.167 158.464C265.166 158.458 265.165 158.453 265.163 158.447C265.147 158.432 265.129 158.418 265.11 158.405C265.061 158.376 265.025 158.33 265.008 158.275C265.001 158.247 264.998 158.218 265.002 158.189C265.006 158.161 265.016 158.133 265.03 158.108C265.051 158.075 265.08 158.048 265.114 158.029C265.149 158.01 265.187 158 265.226 158C265.264 158 265.301 158.01 265.334 158.03V158.031ZM263.389 160.32L263.39 160.323L263.389 160.32ZM263.393 160.313L263.399 160.319L263.393 160.313ZM263.354 159.007C263.38 159.013 263.405 159.023 263.426 159.038C263.448 159.054 263.466 159.073 263.48 159.095C263.494 159.118 263.503 159.143 263.508 159.169C263.512 159.195 263.511 159.221 263.504 159.247C263.489 159.303 263.47 159.357 263.458 159.414C263.456 159.443 263.456 159.472 263.458 159.501C263.479 159.598 263.509 159.693 263.526 159.791C263.545 159.914 263.529 160.041 263.478 160.155C263.455 160.21 263.425 160.259 263.395 160.31C263.445 160.355 263.499 160.395 263.553 160.434L263.905 160.673C263.947 160.701 263.979 160.73 263.993 160.777C264 160.8 264.001 160.824 263.998 160.847C263.995 160.871 263.986 160.893 263.973 160.913C263.947 160.953 263.906 160.981 263.859 160.993C263.814 161.005 263.75 161.003 263.711 160.976C263.571 160.882 263.431 160.79 263.295 160.692L263.189 160.615C263.156 160.59 263.126 160.562 263.097 160.532C263.061 160.493 263.033 160.448 263.014 160.399C262.977 160.309 263.019 160.211 263.072 160.135C263.087 160.115 263.1 160.093 263.111 160.071C263.125 160.035 263.136 159.999 263.143 159.961C263.145 159.934 263.145 159.907 263.143 159.88C263.123 159.79 263.083 159.702 263.057 159.613C263.023 159.507 263.016 159.394 263.037 159.284C263.051 159.218 263.076 159.154 263.112 159.097C263.147 159.035 263.224 159 263.299 159C263.318 159 263.336 159.002 263.354 159.007V159.007ZM260.673 159.654L260.671 159.655L260.675 159.668L260.673 159.654ZM260.672 159.612L260.67 159.62L260.672 159.612ZM260.804 159.028C260.854 159.058 260.918 159.089 260.948 159.136C260.979 159.177 260.997 159.227 261 159.278C261 159.365 260.932 159.438 260.863 159.5C260.803 159.553 260.735 159.598 260.676 159.65C260.694 159.727 260.712 159.803 260.705 159.882C260.701 159.921 260.693 159.959 260.681 159.996C260.671 160.034 260.646 160.07 260.627 160.106C260.601 160.152 260.557 160.189 260.524 160.233L260.523 160.236C260.522 160.253 260.522 160.269 260.523 160.286C260.536 160.33 260.552 160.373 260.573 160.414C260.633 160.514 260.71 160.603 260.789 160.693C260.871 160.785 260.812 160.919 260.695 160.973C260.631 161.001 260.56 161.008 260.492 160.993C260.431 160.98 260.376 160.947 260.335 160.899C260.205 160.752 260.086 160.6 260.025 160.425C259.993 160.327 259.991 160.222 260.021 160.123C260.043 160.047 260.111 159.987 260.158 159.921C260.163 159.91 260.166 159.899 260.169 159.887V159.836C260.154 159.786 260.132 159.739 260.119 159.689C260.089 159.583 260.132 159.476 260.216 159.392C260.27 159.338 260.328 159.292 260.392 159.245L260.407 159.234C260.403 159.211 260.404 159.188 260.41 159.165C260.416 159.142 260.426 159.121 260.44 159.103C260.48 159.054 260.536 159.02 260.598 159.008C260.624 159.003 260.649 159 260.675 159C260.72 158.999 260.764 159.008 260.804 159.028V159.028ZM258.175 158.05C258.164 158.059 258.153 158.069 258.142 158.08L258.175 158.05ZM258.236 158.016L258.225 158.021C258.229 158.019 258.233 158.018 258.236 158.016V158.016ZM257.529 157.934L257.516 157.968C257.521 157.957 257.525 157.946 257.529 157.934ZM258.899 157.114C259.024 157.257 259.043 157.534 258.899 157.674C258.77 157.798 258.619 157.897 258.453 157.966C258.378 157.998 258.3 158.014 258.222 158.036C258.208 158.106 258.2 158.178 258.182 158.247C258.142 158.387 258.068 158.514 257.965 158.617C257.836 158.75 257.681 158.847 257.532 158.947C257.365 159.057 257.145 158.992 257.047 158.801C256.95 158.611 257.007 158.361 257.174 158.249C257.27 158.188 257.363 158.123 257.452 158.053C257.469 158.036 257.486 158.018 257.501 157.999C257.514 157.939 257.523 157.879 257.532 157.819C257.544 157.733 257.584 157.652 257.617 157.576C257.661 157.476 257.751 157.406 257.828 157.343C257.872 157.319 257.917 157.297 257.962 157.276C257.983 157.267 258.005 157.259 258.027 157.253C258.109 157.228 258.189 157.201 258.267 157.167C258.339 157.13 258.41 157.095 258.477 157.053C258.543 157.01 258.622 156.993 258.699 157.005C258.776 157.016 258.847 157.055 258.897 157.115L258.899 157.114ZM271.61 165.13C271.647 165.13 271.682 165.13 271.718 165.128L271.74 165.118L271.738 165.116C271.752 165.104 271.765 165.091 271.776 165.077C271.824 165.007 271.871 164.926 271.918 164.833C271.847 164.882 271.765 164.915 271.686 164.947C271.547 165.002 271.402 165.042 271.254 165.064C271.277 165.072 271.3 165.081 271.321 165.093C271.355 165.105 271.389 165.114 271.424 165.123C271.486 165.128 271.549 165.131 271.611 165.131L271.61 165.13ZM271.753 156C272.023 156 272.227 156.225 272.303 156.322L272.318 156.342C272.399 156.446 272.483 156.554 272.549 156.672C272.742 157.015 272.852 157.393 272.957 157.759C273.096 158.241 273.16 158.731 273.217 159.233C273.261 159.612 273.287 159.998 273.311 160.372L273.317 160.465C273.35 160.965 273.372 161.429 273.385 161.883C273.395 162.214 273.394 162.559 273.382 162.938C273.376 163.12 273.362 163.299 273.348 163.481C273.335 163.65 273.311 163.821 273.288 163.985L273.265 164.148C273.225 164.441 273.167 164.682 273.087 164.884C272.991 165.136 272.867 165.376 272.716 165.599C272.593 165.776 272.456 165.907 272.284 166.011C272.134 166.102 271.952 166.149 271.743 166.149C271.68 166.149 271.617 166.144 271.554 166.137C271.41 166.126 271.267 166.098 271.129 166.055C270.981 166 270.843 165.919 270.723 165.816C270.543 165.67 270.423 165.486 270.339 165.343C270.295 165.266 270.277 165.177 270.288 165.089C270.299 165 270.338 164.918 270.399 164.854C270.356 164.814 270.318 164.77 270.286 164.721C270.131 164.5 270.042 164.226 270.006 163.861C269.996 163.715 270.001 163.568 270.021 163.423C270.038 163.269 270.062 163.115 270.092 162.963C270.156 162.702 270.251 162.45 270.374 162.211C270.474 162.004 270.577 161.797 270.681 161.591C270.746 161.466 270.815 161.343 270.888 161.223C270.944 161.129 271.001 161.035 271.052 160.939C271.182 160.699 271.29 160.48 271.384 160.269L271.459 160.083C271.514 159.943 271.554 159.793 271.582 159.628C271.598 159.482 271.609 159.328 271.616 159.153C271.63 158.855 271.624 158.557 271.599 158.26C271.539 157.891 271.446 157.529 271.319 157.177L271.289 157.114C271.187 156.906 271.072 156.67 271.152 156.436C271.179 156.337 271.232 156.247 271.304 156.174C271.417 156.065 271.567 156.003 271.724 156.001L271.754 156" fill="#161616"/>
</svg>
