<?xml version="1.0" encoding="UTF-8"?>
<svg width="500px" height="600px" viewBox="0 0 500 600" version="1.1" xmlns="http://www.w3.org/2000/svg" xmlns:xlink="http://www.w3.org/1999/xlink">
    <!-- Generator: Sketch 63.1 (92452) - https://sketch.com -->
    <title>curious</title>
    <desc>Created with Sketch.</desc>
    <g id="curious" stroke="none" stroke-width="1" fill="none" fill-rule="evenodd">
        <g id="Group" transform="translate(195.000000, 41.200000)" fill="#161616">
            <path d="M43.8,38.6 L44.6,38.6 C45.9,38.5 47.3,38.5 48.6,38.2 L49.2,38.1 L49.8,38 L50,38 L49.8,38.2 C49.4,38.6 49.1,39 48.7,39.4 C48.6,39.5 48.5,39.7 48.3,39.8 L47.7,40.4 C47.5,40.7 47.2,41 47,41.2 C46.9,41.3 46.9,41.4 46.9,41.4 L46.8,41.5 L46.7,41.6 C46.7,41.7 46.7,41.9 46.6,42 C46.6,42.4 46.9,42.9 47.2,43.1 C47.5,43.3 47.8,43.3 48.1,43.3 L48.6,43.3 C48.8,43.3 49.1,43.3 49.3,43.2 C50,43.1 50.6,43 51.2,42.9 L51.5,42.9 C52.5,42.7 53.6,42.6 54.6,42.2 C55.5,41.8 56.4,41.4 57.3,40.9 L57.8,40.6 C58.4,40.3 58.9,40 59.3,39.7 C59.3,40.2 59.3,40.7 59.4,41.2 C59.5,41.7 59.5,42.3 59.7,42.9 C59.8,43.1 59.8,43.2 59.9,43.4 C60,43.6 60.1,43.8 60.3,43.9 C60.4,44.1 60.8,44.2 61,44.3 C61.1,44.3 61.3,44.3 61.4,44.4 C61.4,44.9 61.5,45.5 61.5,46 L61.5,46.1 C61.7,47.6 62.1,49 62.5,50.1 L62.7,50.7 L62.8,50.9 C62.9,51.2 63,51.6 63.2,51.9 L63.3,52.3 C63.4,52.7 63.6,53.2 63.7,53.6 C63.8,53.9 63.9,54.3 64,54.6 L64,54.7 C64.2,55.6 64.5,56.5 64.8,57.4 C65.2,58.6 65.6,59.6 65.9,60.5 C66,60.8 66.1,61.1 66.3,61.4 C66.6,62.1 66.8,62.7 67,63.4 L67.9,66.4 L67.9,66.6 C68,67 68.1,67.5 68.2,67.9 C68.3,68.4 68.4,68.8 68.4,69.3 L68.7,72 C68.8,72.3 68.9,72.7 69,72.9 L69,73 C69.1,73.2 69.2,73.5 69.3,73.7 C69.4,74 69.5,74.2 69.7,74.4 C69.9,74.7 70.1,74.9 70.5,75 C70.6,75 70.8,75.1 71,75.1 C71.2,75.1 71.3,75.1 71.5,75 C71.6,74.9 71.8,74.9 71.9,74.8 C72,74.7 72.1,74.7 72.2,74.6 L72.5,74.3 C72.7,74.2 72.8,74 73,73.9 L73.1,73.8 L73.5,73.5 L73.9,73.1 C74.5,72.6 75.2,72 75.8,71.5 C76.1,71.3 76.3,71.1 76.6,71 C76.5,71.5 76.3,71.9 76.2,72.5 C76.1,72.7 76.1,73 76,73.2 L76,73.3 L75.7,74.2 L75.6,74.6 C75.3,75.6 75,76.7 74.9,77.8 L74.6,81.7 L75,83.3 C74.9,84.2 74.9,85.1 74.8,85.9 C74.8,86.4 74.7,86.9 74.7,87.3 C74.5,88.4 74.3,89.4 74.1,90.2 L74,90.2 L73.9,90.2 C73.6,90.2 73.3,90.3 73.1,90.3 L73,90.3 C72.7,90.3 72.5,90.4 72.2,90.4 C71.5,90.5 70.8,90.5 70.1,90.7 C69.6,90.8 69,91 68.4,91.3 C68,91.5 67.6,91.7 67.1,92.1 C66.1,92.8 65.2,93.5 64.3,94.2 C63.9,94.5 63.5,94.9 63.2,95.2 C62.9,95.5 62.6,95.8 62.3,96.2 C61.9,96.7 61.6,97.2 61.2,97.9 C61,98.2 60.9,98.5 60.7,98.8 L60.6,98.9 C60.4,99.2 60.3,99.5 60.1,99.7 C60,99.8 59.9,99.9 59.8,100.1 C59.6,100.3 59.5,100.5 59.4,100.7 C59.1,101.1 58.7,101.6 58.4,102 C58.1,102.4 57.7,102.9 57.4,103.3 C57.3,103.5 57.2,103.6 57,103.8 C56.9,104 56.8,104.1 56.7,104.3 C56.5,104.6 56.2,104.9 56,105.1 C55.8,105.3 55.6,105.5 55.4,105.8 C55.3,106 55.1,106.1 55,106.3 C54.7,106.7 54.4,107 54.1,107.4 C53.1,108.6 52.1,109.6 51.1,110.5 C50.7,110.7 50.3,111 49.8,111.2 C49.5,111.3 49.3,111.4 49,111.5 L48.8,111.6 C48.5,111.7 48.1,111.8 47.8,111.9 L47.1,111.9 C46.8,111.8 46.6,111.8 46.3,111.7 C46.2,111.7 46.2,111.6 46.1,111.6 C45.9,111.3 45.8,111.1 45.6,110.8 C45.5,110.7 45.5,110.5 45.4,110.4 C45.2,110.1 45,109.9 44.9,109.6 L44.9,109.5 C44.8,109.4 44.7,109.3 44.7,109.2 L44.4,108.9 C44.3,108.8 44.1,108.7 44,108.6 C43.9,108.5 43.7,108.4 43.5,108.4 C42.8,108.1 42.1,108.1 41.4,108 L39.7,108 C38.3,108 37.1,108.1 36,108.3 C35.3,108.4 34.7,108.7 34.2,109.2 C34.1,109.3 33.9,109.5 33.8,109.7 L33.7,109.8 L33.6,109.9 C33.3,110.2 33,110.6 32.7,110.9 C32.4,111.1 32.1,111.3 31.8,111.4 C31.7,111.4 31.5,111.5 31.4,111.5 L30.8,111.5 C30.6,111.5 30.3,111.4 30.1,111.3 C30,111.3 30,111.2 29.9,111.2 C29.7,111 29.4,110.7 29.2,110.4 C28.9,109.9 28.5,109.4 28.2,108.9 L28,108.6 C27.6,108 27.3,107.3 27,106.7 C26.8,106.2 26.6,105.7 26.5,105.2 C26.3,104.6 26.1,104.1 26,103.6 C25.7,102.7 25.3,101.8 25,100.9 L24.8,100.4 C24.6,99.9 24.3,99.3 24,98.8 C23.7,98.3 23.3,97.8 22.9,97.3 C22.6,96.9 22.2,96.5 21.8,96 C21.5,95.6 21,95.2 20.5,94.8 C20.2,94.6 19.9,94.5 19.5,94.4 C19.3,94.4 19.1,94.3 18.9,94.3 L18.4,94.3 C18,94.4 17.5,94.5 17,94.6 C16.7,94.7 16.5,94.8 16.2,94.8 L16.2,94.6 C16.1,93.9 16,93.3 15.9,92.6 C15.7,90.5 15.5,88.4 15.4,86.2 C15.3,85 15.3,83.8 15.2,82.8 C15.1,81.8 15.2,80.7 15.2,79.7 C15.2,78.6 15.3,77.4 15.4,76.3 C15.5,75.5 15.6,74.6 15.7,73.8 L15.8,73.1 L16.1,69.8 C16.2,68.7 16.1,67.6 16.1,66.6 C16.1,65.5 16.1,64.2 16.2,62.9 C16.3,61.5 16.5,60 16.6,58.5 C16.7,58.1 16.7,57.7 16.9,57.3 C17.3,57 17.6,56.7 18,56.5 C18.5,56.1 19,55.6 19.5,55.2 L19.6,55.2 C20.1,54.8 20.5,54.3 20.9,53.9 L21,53.8 C21.3,53.5 21.5,53.2 21.8,52.9 L22.2,52.5 C22.8,51.9 23.3,51.3 23.9,50.7 L24.2,50.4 C25.3,49.2 26.5,47.9 27.7,46.6 C28.4,45.9 29,45.2 29.7,44.6 L30.7,43.6 C31.3,43 31.9,42.4 32.4,41.8 C33,41.2 33.6,40.6 34.4,40.1 C35.1,39.6 35.7,39.2 36.3,38.9 L37.2,38.6 L37.5,38.6 C38.5,38.5 39.6,38.4 40.6,38.4 L41.4,38.4 C42.1,38.4 42.8,38.4 43.4,38.5 L44.3,38.5 C43.7,38.6 43.7,38.6 43.8,38.6 M72.7,4.54747351e-13 L72.4,4.54747351e-13 C72.1,0.1 71.8,0.2 71.5,0.4 C71.2,0.6 70.9,0.7 70.6,0.9 C69.7,1.3 68.7,1.5 67.8,1.8 C67.2,1.9 66.6,2.1 66,2.2 C65.5,2.3 65,2.4 64.6,2.4 L64.2,2.4 C63.8,2.5 63.3,2.5 62.8,2.5 L62.3,2.5 C61.8,2.5 61.3,2.6 60.8,2.6 L58.7,2.6 C57.9,2.6 57.2,2.5 56.5,2.5 C55.3,2.4 54,2.3 52.6,2.2 L52.2,2.2 C51.7,2.1 51.2,2.1 50.7,2.1 L48.7,2.1 C47.6,2.1 46.2,2.1 44.8,2.2 C43.8,2.3 42.8,2.4 41.8,2.7 L39.7,3.3 C39.3,3.4 38.8,3.6 38.4,3.7 L37.9,3.9 C37.7,4 37.5,4 37.3,4.1 L37,4.2 L36.9,4.2 C36.6,4.3 36.4,4.4 36.1,4.5 C35.5,4.8 34.8,5.1 34.2,5.4 C33.6,5.7 33,6 32.5,6.3 L32.3,6.4 C31.3,6.9 30.3,7.6 29.3,8.3 L29.2,8.4 C28.7,8.8 28.1,9.2 27.6,9.6 C27.1,10 26.5,10.5 25.8,11 C25.1,11.5 24.5,12.1 24,12.6 L23.9,12.7 C23.6,13 23.3,13.2 23.1,13.5 C22.5,14 22,14.5 21.5,14.9 C21.2,15.2 20.8,15.5 20.4,15.7 L19.8,15.8 C18.8,16.6 17.8,17.3 16.8,17.9 C16.5,18.1 16.1,18.4 15.8,18.6 C15.6,18.7 15.5,18.8 15.3,18.9 C15.1,19 15,19.1 14.8,19.2 L14.6,19.3 C14.2,19.5 13.8,19.8 13.3,20 C13.1,20.1 12.9,20.2 12.6,20.2 L12.4,20.3 C11.9,20.5 11.5,20.6 11.2,20.6 L10.7,20.6 L10.6,20.6 C10.5,20.6 10.4,20.6 10.3,20.7 C9.9,20.9 9.6,21.2 9.6,21.6 C9.6,21.8 9.7,22 9.8,22.3 C9.9,22.5 10,22.8 10.2,23 C10.4,23.5 10.8,23.9 11,24.2 C11.6,24.9 12.3,25.5 13.1,26 C13.3,26.1 13.6,26.2 13.8,26.3 L13.9,26.4 C14.3,26.5 14.6,26.6 15,26.7 C15.3,26.8 15.6,26.8 15.9,26.8 C15.4,27.2 15,27.6 14.6,27.9 C13.7,28.5 12.8,29.2 11.7,29.7 C11.3,29.9 10.9,30.1 10.6,30.2 L10,30.5 C9.7,30.6 9.5,30.8 9.2,30.9 L8.9,31 C8.1,31.3 7.2,31.7 6.3,32 C6.2,32 6.2,32 6.1,32.1 L6,32.1 C5.8,32.2 5.5,32.2 5.3,32.4 C5.1,32.5 4.9,32.7 4.8,32.9 C4.7,33 4.7,33.1 4.6,33.2 L4.6,33.3 C4.6,33.5 4.5,33.6 4.6,33.8 C4.8,34.4 5.1,34.9 5.3,35.3 C5.5,35.7 5.8,36.1 6,36.4 C6.3,36.9 6.7,37.3 7,37.7 L7.6,38.3 L7.8,38.4 C8,38.6 8.3,38.8 8.5,38.9 C8.8,39.1 9.2,39.3 9.6,39.5 C9.3,39.8 9,40 8.7,40.3 L8.3,40.7 C7.7,41.2 7.2,41.7 6.6,42.1 C6.1,42.5 5.5,42.9 4.9,43.3 L4.1,43.8 L3.8,44 C2.8,44.6 1.9,45.2 0.9,45.8 C0.5,46 0.4,46.5 0.6,46.9 L0.5,47 C0.3,47.2 0.2,47.4 0.1,47.6 C0,47.7 0,47.9 0,48.1 C0,48.5 0.2,49 0.6,49.3 C0.8,49.5 1,49.6 1.2,49.7 C1.4,49.8 1.5,49.8 1.7,49.9 C1.8,50 2,50.1 2.1,50.3 C2.3,50.5 2.5,50.7 2.7,50.8 C3,51 3.3,51.3 3.6,51.5 C4,51.8 4.5,52 5,52.2 C5.6,52.4 6.3,52.5 6.9,52.6 L7.4,52.6 C7.3,52.8 7.2,52.9 7.1,53.1 C6.7,53.8 6.4,54.4 6,54.9 C5.2,55.8 4.3,56.6 3.3,57.5 C3,57.9 2.5,58.3 2,58.6 L2,58.7 L1.5,59.1 L1.2,59.3 C1.1,59.4 1,59.5 0.8,59.6 C0.7,59.7 0.6,59.8 0.5,60 C0.3,60.2 0.3,60.5 0.4,60.8 C0.5,61.1 0.7,61.4 1,61.6 C1.3,61.8 1.7,61.8 2,61.8 L3.2,61.8 C3.8,61.8 4.4,61.9 4.9,62 C5.2,62 5.5,62.1 5.7,62.1 L5.8,62.1 C6.1,62.1 6.3,62.1 6.6,62 L6.7,62 C7.4,61.9 8,61.8 8.8,61.7 C9.4,61.6 9.9,61.4 10.6,61.1 C11.3,60.8 11.9,60.5 12.5,60.2 C13.1,59.9 13.7,59.6 14.2,59.2 C14.4,59 14.7,58.9 14.9,58.7 C14.8,59.1 14.8,59.5 14.7,60 L14.7,60.1 L14.6,60.8 L14.5,61.7 C14.4,62.2 14.4,62.8 14.3,63.3 L14.3,63.4 C14.3,63.8 14.2,64.2 14.2,64.6 L14.2,68.7 C14.2,69.1 14.2,69.5 14.1,69.8 L14.1,70.4 C14.1,70.8 14,71.2 14,71.5 C13.9,72 13.9,72.4 13.8,72.9 L13.8,73.2 C13.5,75.2 13.2,77.3 13.1,79.3 L13.1,79.4 C13,80.5 13,81.7 13,82.8 C13,83.7 13,84.7 13.1,85.6 L13.1,86 C13.2,87.5 13.3,89.4 13.4,91.4 C13.5,92.3 13.5,93.2 13.7,94.1 L14,95.9 L13.8,96.1 C13.7,96.3 13.6,96.6 13.7,96.8 C13.8,97 13.9,97.2 14.1,97.4 C14.2,98.3 14.3,99.2 14.5,100.1 L14.8,101.6 C14.8,101.7 14.9,101.9 14.9,102 C15,102.3 15,102.7 15.1,103 C15.4,104.2 15.6,105.2 15.9,106.1 C16,106.4 16.1,106.7 16.2,107.1 C16.4,107.8 16.6,108.6 16.9,109.3 C17.2,110.2 17.5,111.2 18,112.5 C18.4,113.7 18.9,114.7 19.4,115.6 C19.7,116.1 20,116.6 20.4,117.2 C20.6,117.6 20.9,117.9 21.1,118.3 L21.3,118.5 C21.5,118.8 21.8,119.2 22.1,119.5 L22.4,119.8 C22.7,120.2 23.1,120.7 23.5,121.1 L24.8,122.4 C25.2,122.7 25.6,123.1 25.9,123.4 C26.5,123.9 27,124.2 27.5,124.6 C27.9,124.9 28.3,125.1 28.8,125.4 L29.3,125.7 C30.1,126.1 30.9,126.6 31.7,127 C32.8,127.5 33.9,128.1 35,128.5 C35.4,128.7 35.9,128.9 36.3,129 C36.6,129.1 37,129.2 37.3,129.2 L37.5,129.2 C37.9,129.3 38.3,129.4 38.7,129.4 L39,129.5 C40,129.7 41.1,129.8 42.5,129.9 L45.1,129.9 C45.6,129.8 46.1,129.8 46.6,129.6 L47.5,129.3 C47.7,129.2 47.9,129.2 48.1,129.1 C48.2,129.1 48.3,129 48.3,129 C48.7,128.8 49.2,128.7 49.6,128.5 C49.7,128.4 49.9,128.4 50,128.3 C50.4,128.1 50.7,128 51.1,127.8 L51.5,127.6 L51.6,127.6 C52,127.4 52.5,127.2 52.9,127 C53.4,126.7 54,126.4 54.5,126.1 C54.9,125.9 55.2,125.7 55.5,125.5 L55.8,125.3 C56.2,125.1 56.5,124.9 56.8,124.6 L57,124.5 L57.3,124.3 C57.7,124.1 58,123.8 58.4,123.6 C58.8,123.3 59.3,122.9 59.8,122.5 C59.9,122.5 59.9,122.4 60,122.4 C60.1,122.3 60.3,122.2 60.4,122.1 L60.8,121.8 L61.2,121.5 C62.1,120.7 62.8,120 63.4,119.3 C64.1,118.4 64.8,117.5 65.5,116.5 C66.2,115.4 66.8,114.6 67.3,113.8 C67.9,112.8 68.4,111.9 68.9,110.9 C69.3,110.2 69.6,109.6 69.9,108.9 C70.3,108.1 70.7,107.2 70.9,106.6 L72.1,103.9 L73.3,101.2 C73.4,100.9 73.6,100.6 73.7,100.3 C73.9,99.9 74.1,99.4 74.3,99 L74.8,99 C75.1,99 75.5,98.9 75.8,98.7 C76,98.6 76.1,98.5 76.3,98.4 L76.4,98.4 L76.7,98.2 C77.8,97.6 78.8,96.9 79.8,96.1 C80.4,95.7 80.9,95.2 81.5,94.7 C81.8,94.4 82.2,94.1 82.5,93.8 L82.9,93.5 C83.5,93 83.9,92.6 84.3,92.3 C84.7,91.9 85,91.5 85.3,91.1 L85.5,90.9 C85.9,90.3 86.4,89.7 87,89 C87.3,88.6 87.6,88.2 87.9,87.7 L88.1,87.3 C88.5,86.7 88.9,86 89.3,85.3 C89.6,84.9 89.8,84.5 90.1,84 C90.7,83 91.4,82 92,81.1 C92.7,80.1 93.3,79.2 94,78.4 C94.8,77.3 95.8,76.4 96.8,75.6 C97.2,75.3 97.7,75 98.2,74.6 C98.4,74.5 98.6,74.4 98.7,74.3 L98.9,74.2 C99.5,73.8 100,73.4 100.2,73 C100.7,72.2 100.7,71.1 100.7,70.1 L100.7,67.4 C100.7,66.4 100.6,65.3 100.6,64.3 L100.6,64 C100.6,63.4 100.5,62.8 100.4,62.3 L100.4,61.9 C100.4,61.6 100.3,61.3 100.3,61.1 L100.2,60.5 L100.1,59.9 C99.9,58.6 99.5,57.3 99.3,56.3 C99,55.1 98.6,53.7 98.1,52.2 C97.8,51.1 97.3,50 96.9,48.7 C96.6,47.9 96.4,47.3 96.2,46.7 C96,46.1 95.8,45.5 95.6,44.8 C95.4,44.1 95.2,43.3 95.1,42.7 C95,42.1 95,41.5 95,41 C95,40.9 95,40.8 95.1,40.8 C95.1,40.8 95.1,40.7 95.2,40.7 C95.4,40.5 95.7,40.2 96,40 L96.1,40 C96.2,39.9 96.4,39.8 96.6,39.7 L96.8,39.6 L97.7,39 C97.9,38.9 98,38.8 98.2,38.7 C98.3,38.7 98.3,38.6 98.4,38.6 L98.6,38.5 C98.8,38.4 99.1,38.2 99.3,38.1 L101.1,37.2 L101.3,37.1 C101.8,36.9 102.3,36.6 102.8,36.3 C103.1,36.1 103.4,35.9 103.6,35.5 C103.7,35.3 103.8,35.1 103.8,34.9 L103.8,34.3 C103.8,34.2 103.7,34 103.6,33.9 C103.5,33.8 103.4,33.6 103.3,33.5 L102.9,33.1 C102.3,32.6 101.7,32.1 101.2,31.8 C100.7,31.4 100.1,31 99.6,30.6 L99.5,30.5 L98.3,29.6 C97.6,29.1 96.9,28.5 96.2,28 C94.7,26.7 93.4,25.6 92.3,24.4 C91.7,23.8 91.1,23.1 90.6,22.5 C90.3,22.2 90,21.8 89.7,21.5 L89.6,21.4 L95.9,21.4 C96.1,21.4 96.5,21.3 96.7,21.2 C96.8,21.1 96.9,21 97.1,20.9 L97.2,20.9 C97.4,20.7 97.5,20.4 97.5,20.1 C97.5,19.8 97.3,19.5 97.2,19.3 C97,19 96.7,18.8 96.4,18.6 C96.3,18.5 96.2,18.5 96.1,18.4 C95.9,18.2 95.6,18 95.4,17.9 C94.9,17.5 94.3,17.2 93.8,16.8 C93.2,16.4 92.6,16.1 92,15.7 L91.7,15.5 C91.3,15.2 90.8,15 90.4,14.7 C90.1,14.5 89.8,14.4 89.5,14.2 C89.2,14 88.9,13.9 88.6,13.7 L88,13.4 C87.9,13.4 87.8,13.3 87.7,13.3 L87.2,13.1 L86.7,12.9 C86.4,12.7 86,12.6 85.7,12.5 L85.5,12.4 C85.1,12.2 84.7,12.1 84.2,12 C83.7,11.8 83.1,11.7 82.5,11.5 L82,11.4 C81.5,11.3 81.1,11.2 80.6,11 C78.7,10.5 76.5,10 74.3,9.6 C73.6,9.5 72.9,9.4 72.3,9.3 C72,9.3 71.6,9.2 71.3,9.2 C70.8,9.1 70.2,9 69.7,8.9 C70,8.7 70.2,8.6 70.4,8.4 C71.2,7.8 71.8,7.1 72.4,6.5 C73.1,5.7 73.8,4.8 74.3,3.8 C74.6,3.3 74.8,2.7 75,2.2 C75.1,2 75.1,1.7 75.2,1.4 C75.2,1 75.2,0.7 75,0.5 C74.9,0.4 74.9,0.3 74.8,0.2 C74.7,0.1 74.6,4.54747351e-13 74.4,4.54747351e-13 L72.7,4.54747351e-13" id="Fill-12"></path>
            <path d="M20.3,54.7 C20.1,54.8 20,55 19.8,55.2 C19.7,55.3 19.6,55.4 19.5,55.6 C19.7,55.4 20,55.2 20.2,54.9 L20.3,54.8 C20.2,54.8 20.3,54.8 20.3,54.7 C20.4,54.7 20.5,54.6 20.5,54.5 C20.4,54.6 20.4,54.7 20.3,54.7" id="Fill-17"></path>
            <path d="M75.3,55.7 C75,55.8 74.6,55.8 74.3,56 C74.1,56.1 73.8,56.3 73.6,56.4 C73,56.8 72.4,57.2 71.9,57.6 C71.2,58.1 70.7,58.8 70.3,59.5 C70,60 69.7,60.5 69.7,61 L69.7,61.3 C69.8,61.5 69.9,61.7 70,61.8 C70.2,62 70.4,62.2 70.7,62.2 C71.1,62.3 71.6,62.4 72,62.4 C72.8,62.4 73.5,62.3 74.3,62.2 C75,62.1 75.6,62 76.3,61.9 C77.9,61.7 79.4,61.6 81,61.6 C81.6,61.6 82.2,61.1 82.2,60.4 C82.2,59.8 81.7,59.2 81,59.2 C79.8,59.2 78.5,59.3 77.3,59.4 C76,59.5 74.6,59.8 73.3,60 C73.1,60 72.8,60 72.6,60.1 C72.9,59.7 73.3,59.4 73.6,59.1 L74.5,58.5 C74.7,58.3 75,58.2 75.2,58.1 C75.4,58 75.6,58 75.8,58 C76.1,58 76.4,57.7 76.5,57.5 C76.7,57.2 76.7,56.9 76.6,56.6 C76.5,56.3 76.3,56.1 76.1,55.9 C75.9,55.8 75.7,55.7 75.5,55.7 L75.3,55.7" id="Fill-21"></path>
            <path d="M53.1,63.2 C52.2,63.3 51.2,63.4 50.3,63.5 C49.4,63.6 48.5,63.8 47.7,64.1 C46.9,64.4 46.1,64.8 45.3,65.2 C44.9,65.4 44.7,66 45,66.4 C45.3,66.8 45.8,66.9 46.2,66.7 C46.6,66.5 47.1,66.3 47.5,66.1 C48.1,65.9 48.7,65.7 49.4,65.5 C50,65.4 50.7,65.2 51.3,65.2 C52.1,65.1 53,65 53.8,65 C54.6,65 55.4,65 56.2,65.1 C57,65.2 57.7,65.4 58.5,65.7 C58.7,65.8 59,65.8 59.2,65.9 C59.5,66 59.8,66.1 60.2,66.1 C60.5,66.1 60.9,65.9 61,65.5 C61.1,65.2 60.9,64.8 60.6,64.6 C60.5,64.5 60.4,64.5 60.2,64.4 C60,64.3 59.8,64.2 59.6,64.2 C59.3,64.1 59.1,64 58.8,63.9 C58.5,63.8 58.2,63.7 57.8,63.6 C57.1,63.4 56.4,63.3 55.6,63.2 L54.8,63.2 C54.2,63.1 53.6,63.1 53.1,63.2" id="Fill-31"></path>
            <path d="M53.4,66.7 C53.5,66.8 53.6,66.8 53.7,66.9 C53.8,67 53.9,67 53.9,67.1 L53.9,67.7 C53.9,67.8 53.9,67.9 53.8,68 C53.7,68.1 53.7,68.3 53.6,68.4 L53.4,68.6 L53.2,68.6 C53.1,68.6 53,68.6 52.9,68.5 C52.8,68.5 52.8,68.4 52.7,68.4 L52.6,68.3 C52.6,68.3 52.6,68.2 52.5,68.2 L52.5,68 L52.5,67.8 C52.5,67.7 52.5,67.6 52.6,67.6 C52.7,67.5 52.7,67.4 52.8,67.3 C52.9,67.1 53.1,67 53.3,66.8 C53.3,66.8 53.3,66.7 53.4,66.7 M52.6,64.4 C52.1,64.4 51.7,64.6 51.3,64.7 C51.1,64.8 50.8,64.8 50.6,64.9 C50.2,65 50,65.4 50.1,65.7 C50.1,65.8 50.1,65.8 50.2,65.9 C50.1,66.1 50,66.3 50,66.4 C49.8,66.8 49.7,67.2 49.7,67.6 C49.6,68 49.6,68.4 49.7,68.9 C49.7,69.1 49.8,69.3 49.9,69.5 L50.2,70.1 C50.7,70.8 51.5,71.2 52.3,71.4 C52.5,71.5 52.7,71.5 52.9,71.5 C53.1,71.5 53.3,71.5 53.5,71.4 C53.9,71.3 54.3,71.2 54.6,71 C54.8,70.9 54.9,70.8 55,70.7 C55.2,70.6 55.4,70.4 55.5,70.2 C55.7,70 55.8,69.7 55.8,69.5 C56,69.2 56.1,69 56.2,68.7 C56.4,68.3 56.4,67.8 56.4,67.4 C56.3,67 56.1,66.6 55.9,66.2 C55.8,66 55.7,65.9 55.5,65.7 C55.4,65.5 55.2,65.4 55.1,65.2 C55,65.1 54.8,64.9 54.6,64.8 L54,64.5 C53.8,64.4 53.6,64.4 53.4,64.4 L52.6,64.4 C52.7,64.4 52.7,64.4 52.6,64.4" id="Fill-33"></path>
            <path d="M52.3,70.9 C51.9,71 51.5,71 51.1,71.1 C50.9,71.2 50.7,71.2 50.5,71.3 C50.3,71.4 50.1,71.4 50,71.5 C49.9,71.5 49.8,71.6 49.7,71.7 C49.6,71.8 49.6,71.9 49.7,72.1 C49.8,72.3 50,72.5 50.3,72.4 C50.5,72.3 50.7,72.3 50.8,72.2 C51,72.1 51.2,72.1 51.4,72 C51.8,71.9 52.2,71.8 52.7,71.8 C53.8,71.7 54.9,71.6 56.1,71.7 L56,71.7 C56.2,71.7 56.4,71.8 56.6,71.8 C56.9,71.9 57.2,71.9 57.5,72 C57.6,72 57.8,72 57.9,71.9 C58,71.8 58.1,71.7 58.1,71.6 C58.2,71.3 58,71 57.7,71 C57.3,70.9 57,70.9 56.6,70.8 C56.4,70.8 56.3,70.8 56.1,70.7 L55,70.7 C54,70.7 53.2,70.8 52.3,70.9" id="Fill-35"></path>
            <path d="M28.5,64.7 C28.1,64.7 27.7,64.7 27.3,64.8 C27.1,64.8 26.9,64.8 26.6,64.9 C26,65 25.4,65 24.8,65.2 C24.3,65.3 23.8,65.5 23.3,65.6 C22.8,65.7 22.4,65.9 22,66.1 C21.6,66.2 21.3,66.4 20.9,66.5 C20.2,66.8 19.6,67.2 19,67.5 C18.9,67.6 18.7,67.7 18.6,67.8 C18.4,67.9 18.3,68.1 18.2,68.3 C18.1,68.5 18.2,68.8 18.3,69 C18.5,69.4 19.1,69.6 19.5,69.3 C19.9,69 20.3,68.8 20.7,68.5 L21.9,67.9 C22.5,67.7 23.1,67.4 23.7,67.3 C24,67.2 24.4,67.1 24.7,67 C25,66.9 25.3,66.9 25.6,66.8 C26,66.8 26.5,66.7 26.9,66.7 L27.7,66.7 C28.2,66.7 28.7,66.7 29.2,66.8 C29.4,66.8 29.5,66.9 29.7,66.9 C30.1,67 30.5,67.1 30.8,67.2 C31.2,67.3 31.5,67.4 31.8,67.6 C32.3,67.8 32.7,68 33.2,68.2 C33.6,68.4 34,68.5 34.4,68.6 C34.8,68.7 35.3,68.5 35.5,68.2 C35.8,67.7 35.6,67.2 35.2,66.9 C34.9,66.7 34.5,66.5 34.1,66.4 C33.6,66.2 33.1,65.9 32.6,65.7 C32.4,65.6 32.1,65.5 31.9,65.4 C31.6,65.3 31.3,65.2 31.1,65.1 C30.7,65 30.2,64.9 29.8,64.9 C29.4,64.7 29,64.7 28.5,64.7 L28.5,64.7 Z" id="Fill-37"></path>
            <path d="M28.9,68.6 C29,68.7 29.1,68.8 29.3,68.8 C29.3,68.8 29.4,68.8 29.4,68.9 L29.5,69 C29.5,69 29.5,69.1 29.6,69.1 L29.6,69.7 C29.6,69.7 29.5,69.7 29.5,69.8 C29.3,69.9 29.2,69.9 29,69.9 L28.6,69.9 C28.5,69.9 28.4,69.8 28.3,69.8 C28.1,69.8 28,69.8 28,69.7 L28,69.6 L28,69.4 C28,69.3 28.1,69.2 28.1,69.1 C28.1,69 28.2,69 28.2,68.9 L28.3,68.8 C28.4,68.8 28.4,68.7 28.5,68.7 L28.7,68.7 C28.7,68.6 28.8,68.6 28.9,68.6 M27.3,65.8 L27,65.8 C26.9,65.8 26.8,65.9 26.7,65.9 C26.5,66 26.3,66.2 26.2,66.3 L26,66.5 C25.9,66.6 25.8,66.6 25.7,66.7 C25.3,67 25,67.4 24.9,67.9 C24.9,68 24.8,68 24.8,68.1 C24.6,68.4 24.5,68.6 24.4,68.9 C24.3,69.1 24.3,69.4 24.3,69.7 C24.3,70 24.3,70.2 24.4,70.5 C24.5,71 24.9,71.5 25.3,71.9 C25.5,72.1 25.8,72.3 26.1,72.5 C26.3,72.6 26.5,72.8 26.7,72.8 C26.8,72.9 27,72.9 27.1,73 C27.2,73 27.4,73.1 27.6,73.1 C28.2,73.2 28.7,73.1 29.2,73 C29.7,72.9 30.1,72.7 30.5,72.4 C31,72.1 31.4,71.7 31.7,71.2 C31.8,71 31.9,70.8 32,70.5 C32.1,70.3 32.1,70.1 32.2,69.9 C32.3,69.7 32.3,69.4 32.4,69.2 L32.4,69.1 L32.4,68.8 C32.4,68.7 32.3,68.6 32.3,68.4 C32.3,68.3 32.2,68.2 32.1,68.1 C32,68 32,67.9 31.9,67.9 C31.8,67.8 31.8,67.7 31.7,67.6 C31.6,67.4 31.4,67.2 31.2,67.1 C30.9,66.9 30.6,66.7 30.3,66.6 C30.1,66.5 29.8,66.4 29.6,66.3 C29.3,66.2 29,66.2 28.7,66.1 L28,66.1 L27.9,66 C27.8,66 27.7,65.9 27.7,65.9 C27.4,65.8 27.3,65.8 27.3,65.8" id="Fill-39"></path>
            <path d="M32.3,71.8 C31.1,72 29.8,72 28.6,72.2 C27.9,72.3 27.2,72.4 26.6,72.5 L24.8,72.8 C24.5,72.9 24.1,72.9 23.8,73 C23.5,73.1 23.4,73.4 23.5,73.6 C23.6,73.9 23.8,74 24.1,73.9 C24.5,73.8 24.9,73.7 25.4,73.7 C25.7,73.6 26,73.6 26.4,73.5 C27,73.4 27.7,73.3 28.3,73.3 L28.2,73.3 C28.6,73.3 29,73.2 29.4,73.2 C29.7,73.2 30.1,73.2 30.4,73.1 L31.1,73.1 C31.2,73.2 31.3,73.2 31.5,73.2 L32,73.2 C32.1,73.2 32.3,73.2 32.4,73.1 L32.5,73.1 C32.6,73.1 32.7,73 32.8,73 C32.9,72.9 33,72.9 33,72.8 C33.1,72.7 33.1,72.5 33.1,72.3 C33.1,72.2 33,72.1 32.9,72 C32.7,71.9 32.5,71.8 32.3,71.8" id="Fill-41"></path>
            <path d="M36.5,58.5 C36.2,58.6 36,58.9 36.1,59.2 C36.3,59.9 36.4,60.6 36.5,61.2 C36.6,62.2 36.7,63.1 36.7,64.1 C36.7,64.9 36.7,65.7 36.6,66.5 C36.5,68.2 36.4,69.9 36.2,71.6 C36.1,72 36.1,72.3 36,72.7 C35.9,73.1 35.9,73.5 35.8,73.9 C35.7,74.7 35.5,75.6 35.4,76.4 C35.3,76.8 35.3,77.2 35.2,77.6 C35,78.1 35,78.5 34.9,78.8 L34.3,81.2 C34,82.2 33.7,83.3 33.6,84.4 L33.6,84.6 C33.6,85 33.8,85.3 34,85.6 C34.5,86.2 35.3,86.4 36.1,86.4 C36.7,86.4 37.4,86.3 38,86.3 C38.2,86.3 38.4,86.2 38.6,86.1 C38.8,85.9 38.8,85.7 38.8,85.5 C38.8,85.3 38.7,85.1 38.6,84.9 C38.4,84.7 38.2,84.7 38,84.7 L35.8,84.7 C35.7,84.7 35.6,84.7 35.5,84.6 L35.5,84.4 C35.6,84 35.6,83.7 35.7,83.3 L36,82.1 C36.2,81.3 36.4,80.6 36.6,79.8 C36.8,79 36.9,78.2 37.1,77.4 C37.2,76.6 37.4,75.8 37.5,75 C37.6,74.2 37.8,73.3 37.9,72.5 C38,71.6 38.1,70.8 38.1,69.9 C38.1,69.2 38.2,68.4 38.2,67.7 L38.2,66.5 L38.2,65.2 C38.2,64.6 38.2,63.9 38.1,63.3 C38.1,62.9 38,62.5 38,62 C37.9,61.5 37.9,61 37.8,60.5 C37.7,60 37.6,59.5 37.4,59.1 C37.3,58.8 37.1,58.7 36.8,58.7 C36.6,58.5 36.5,58.5 36.5,58.5" id="Fill-43"></path>
            <path d="M53,67.3 L53.2,67.3 L53.3,67.4 C53.4,67.5 53.4,67.6 53.5,67.7 L53.5,67.9 C53.4,68 53.4,68.1 53.3,68.1 C53.3,68.1 53.2,68.1 53.2,68.2 C53.2,68.2 53.1,68.2 53.1,68.3 L52.8,68.3 L52.7,68.2 C52.7,68.1 52.6,68.1 52.6,68 L52.6,67.9 C52.6,67.9 52.7,67.8 52.7,67.7 C52.7,67.6 52.8,67.5 52.9,67.4 C52.9,67.3 52.9,67.3 53,67.3 C52.9,67.3 53,67.3 53,67.3 M52.5,65.6 L52.4,65.6 C52.3,65.6 52.2,65.7 52,65.7 C51.8,65.8 51.7,65.9 51.6,66 C51.5,66.1 51.4,66.2 51.3,66.4 C51.3,66.5 51.2,66.6 51.2,66.6 C51.2,66.7 51.1,66.8 51.1,66.9 L51.1,67.2 C51.1,67.3 51.1,67.5 51.2,67.6 L51.2,67.8 C51.2,68.3 51.4,68.8 51.8,69.1 C52,69.3 52.3,69.4 52.6,69.5 C52.7,69.5 52.9,69.5 53,69.6 L53.5,69.6 C53.6,69.6 53.7,69.5 53.8,69.5 C53.9,69.4 54.1,69.4 54.2,69.3 C54.4,69.2 54.5,69 54.7,68.9 C54.8,68.8 54.9,68.7 54.9,68.6 C55,68.5 55.1,68.3 55.1,68.1 C55.1,68 55.1,67.9 55.2,67.7 L55.2,67.2 C55.2,67.1 55.2,67 55.1,67 L54.8,66.4 C54.7,66.2 54.6,66.1 54.4,66 L54.1,65.7 C53.8,65.5 53.4,65.4 53,65.4 C52.8,65.6 52.6,65.6 52.5,65.6" id="Fill-49"></path>
            <path d="M28.4,68.7 L28.6,68.7 C28.8,68.8 28.9,68.8 29.1,68.9 L29.1,69.6 L28.9,69.8 C28.8,69.8 28.8,69.9 28.7,69.9 L28,69.9 L27.9,69.9 L27.9,69.8 L27.9,69.5 L27.9,69.3 C27.9,69.2 28,69.1 28.1,69 C28.1,68.9 28.2,68.9 28.2,68.8 L28.3,68.7 L28.4,68.7 Z M28.2,67.8 C28,67.8 27.9,67.9 27.8,67.9 C27.7,67.9 27.6,68 27.6,68 C27.5,68.1 27.4,68.1 27.3,68.2 L27,68.5 C26.9,68.6 26.8,68.8 26.7,68.9 C26.6,69.1 26.6,69.3 26.5,69.5 C26.5,69.7 26.4,69.8 26.5,70 C26.5,70.1 26.5,70.1 26.6,70.2 C26.6,70.3 26.7,70.4 26.7,70.4 C26.8,70.6 26.9,70.7 27.1,70.9 C27.2,71 27.4,71.1 27.6,71.1 C27.8,71.2 28.1,71.2 28.3,71.2 L28.6,71.2 C28.9,71.2 29.1,71.1 29.3,71 C29.5,70.9 29.8,70.7 30,70.5 C30.1,70.4 30.2,70.2 30.3,70.1 C30.5,69.8 30.5,69.4 30.6,69.1 L30.6,68.6 L30.6,68.3 C30.6,68.2 30.5,68.1 30.5,68 C30.4,67.8 30.2,67.7 30.1,67.6 C29.8,67.4 29.5,67.4 29.2,67.4 L28.9,67.4 C28.5,67.4 28.3,67.6 28.2,67.8 L28.2,67.8 Z" id="Fill-51"></path>
        </g>
        <g id="sad" transform="translate(195.000000, 36.000000)">
            <g id="Group-11" transform="translate(29.000000, 39.000000)"></g>
            <g id="Group-53">
                <g id="Group-14">
                    <g id="Fill-12-Clipped"></g>
                </g>
            </g>
        </g>
        <path d="M225.812378,97.3548781 C225.837154,97.3653686 225.862152,97.375859 225.886704,97.3863495 C225.861929,97.375859 225.837154,97.3653686 225.812378,97.3548781 M219.160983,93.1080294 C218.85676,93.1752129 218.556778,93.312928 218.272643,93.4385903 C218.081582,93.5231836 217.890745,93.610232 217.707497,93.7104493 C217.31444,93.9267313 216.929864,94.1490396 216.557565,94.400141 C216.21138,94.6329398 215.865418,94.8648458 215.533964,95.1186256 C214.919268,95.5869016 214.310822,96.0645521 213.709071,96.5502379 C213.181647,96.9765521 212.652437,97.4028664 212.171215,97.8825257 C211.661201,98.3916476 211.175515,98.9244288 210.666393,99.4353363 C210.436049,99.6663495 210.201688,99.8931219 209.966211,100.118778 C209.832737,100.247342 209.701718,100.379254 209.567797,100.507595 C209.447715,100.607366 209.328079,100.707806 209.218041,100.816282 C208.926093,101.105774 208.928549,101.594138 209.218041,101.88363 C209.358434,102.024693 209.55195,102.105046 209.751715,102.105046 C209.897911,102.105046 210.017324,102.063977 210.129148,101.996123 C210.130487,101.998132 210.131603,102.000141 210.132719,102.00215 C210.342751,101.854837 210.540731,101.679401 210.736925,101.513786 C210.949635,101.334332 211.165917,101.159789 211.378628,100.981228 C211.774364,100.648881 212.174563,100.325909 212.579004,100.004722 C212.969829,99.7089809 213.360208,99.4148018 213.742328,99.1074537 C213.921113,98.9643818 214.105923,98.8275595 214.276672,98.6751131 C214.48782,98.4858385 214.698745,98.2956711 214.909671,98.1066197 C215.096267,97.9392188 215.273265,97.7577562 215.454728,97.5834361 C215.624584,97.4196065 215.801582,97.2624728 215.976126,97.1022144 C216.293741,96.8098209 216.631891,96.5357298 216.968478,96.2647636 C217.085212,96.1786079 217.203509,96.0973627 217.329171,96.0219207 C217.498358,95.9208106 217.684061,95.8380029 217.860167,95.7480529 C218.174657,95.5869016 218.481113,95.4105727 218.800067,95.2585727 C218.995368,95.1867019 219.201606,95.1320176 219.406728,95.0927342 C219.495339,95.0893862 219.582387,95.0918414 219.670328,95.0987606 C219.802017,95.1248752 219.931474,95.1565698 220.06093,95.19563 C220.354217,95.3337915 220.635897,95.502978 220.901729,95.6880117 C221.135421,95.883536 221.345453,96.1027195 221.569101,96.3105198 C221.847209,96.5694332 222.130675,96.8214273 222.412355,97.0767695 C222.746264,97.3794302 223.074816,97.6896799 223.438411,97.9575213 C223.553359,98.0421145 223.669201,98.1244758 223.786158,98.2050514 C224.087033,98.4514655 224.388355,98.7032364 224.71222,98.9181791 C224.894575,99.0402702 225.075814,99.1650396 225.263303,99.2793186 C225.733365,99.5643465 226.251192,99.7902261 226.790892,99.9000411 C227.018334,99.9462438 227.254704,99.9663319 227.48661,99.9681175 C227.732578,99.9696799 227.982787,99.9078532 228.217148,99.8397768 C228.660202,99.7116593 229.057723,99.493815 229.439621,99.2400352 C229.572872,99.1516476 229.675321,99.0306725 229.736478,98.8942966 C229.834687,98.8268899 229.926869,98.7514479 230.010792,98.6679706 C230.288901,98.3916476 230.344701,97.9488164 230.147615,97.6104435 C230.033336,97.4151424 229.844061,97.2696153 229.626217,97.209351 C229.389847,97.1448458 229.166646,97.18837 228.953042,97.2975154 C228.840102,97.3555477 228.734305,97.4227313 228.622704,97.4816564 C228.437671,97.5399119 228.249512,97.5771865 228.058229,97.6068722 C227.946405,97.6189251 227.835027,97.6305316 227.72298,97.6383436 C227.464513,97.6570925 227.208725,97.6437004 226.952713,97.6151307 C226.534881,97.552188 226.11995,97.476746 225.726223,97.3182731 C225.255715,97.0794479 224.815116,96.7970984 224.387239,96.4899736 C224.113148,96.2667724 223.85111,96.0308488 223.585723,95.7969339 C223.543538,95.7598825 223.501353,95.7226079 223.458945,95.6855565 C223.270787,95.4628018 223.091779,95.2320117 222.909201,95.0052394 C222.666804,94.7043642 222.413248,94.4202291 222.148977,94.1376564 C222.034698,94.0148957 221.917071,93.8945903 221.802792,93.7716065 C221.740073,93.7044229 221.678916,93.6363465 221.612848,93.573627 C221.533389,93.4968458 221.438305,93.4106902 221.3459,93.3548899 C221.195016,93.264047 221.036543,93.1977562 220.871597,93.1350367 C220.615362,93.0374978 220.326763,93.0165169 220.054681,93.0024552 C220.020754,93.0008928 219.986604,93 219.952455,93 C219.687515,93 219.417442,93.0508899 219.160983,93.1080294" id="Fill-266" stroke="#000000" fill="#161616"></path>
        <path d="M232.141382,137.013615 C231.856354,137.031918 231.573782,137.052006 231.290316,137.087718 C231.023591,137.121645 230.761106,137.166285 230.499738,137.227219 C230.227655,137.290831 229.972983,137.393727 229.716748,137.503542 C229.531044,137.583894 229.354046,137.700628 229.211867,137.845486 C229.02103,138.039001 228.962551,138.321351 229.022592,138.581157 C229.059197,138.738291 229.148254,138.890737 229.258962,139.008587 C229.388865,139.14541 229.525688,139.2117 229.695767,139.283125 C229.833482,139.340711 229.98258,139.338925 230.128108,139.322408 C230.310463,139.30232 230.491702,139.27442 230.672272,139.242949 C230.984307,139.188041 231.289647,139.106126 231.601682,139.052112 C231.762387,139.025104 231.922868,138.999659 232.083573,138.975107 C232.427973,138.944082 232.766569,138.951671 233.109629,138.988276 C233.573441,139.063941 234.028995,139.15032 234.472049,139.311695 C234.973582,139.541145 235.446099,139.853404 235.887591,140.183965 C236.180877,140.420781 236.448049,140.678579 236.689999,140.96807 C236.816331,141.141944 236.933735,141.321621 237.050022,141.501968 C237.22278,141.768916 237.367415,142.147242 237.72409,142.209069 C237.907785,142.240764 238.0734,142.241433 238.240131,142.156394 C238.297717,142.17291 238.357981,142.181615 238.419808,142.182062 C238.59145,142.182062 238.758181,142.113316 238.880049,141.991225 C239.140748,141.730526 239.115526,141.33546 238.880049,141.072305 C238.849917,141.038379 238.820231,141.004229 238.790768,140.969633 C238.60752,140.71496 238.440343,140.448458 238.256648,140.193339 C238.191027,140.101604 238.126075,140.009868 238.060901,139.917909 C237.916489,139.672834 237.742839,139.440928 237.557582,139.224423 C237.506022,139.156793 237.453793,139.089609 237.400448,139.023319 C237.259385,138.845427 237.108501,138.678026 236.945341,138.518438 C236.771914,138.348358 236.571479,138.201938 236.3735,138.060652 C236.19293,137.931642 235.994281,137.829639 235.794516,137.734555 C235.509488,137.597733 235.212184,137.486132 234.912202,137.388593 C234.415356,137.227219 233.893065,137.122537 233.375908,137.054684 C233.100478,137.018749 232.823708,137 232.546269,137 C232.411456,137 232.276419,137.004464 232.141382,137.013615" id="Fill-270" fill="#161616"></path>
        <path d="M255.9792,98.6889739 C255.8955,98.6950003 255.812692,98.7063836 255.728992,98.7150884 C255.492622,98.7403101 255.25893,98.7813791 255.024569,98.8215554 C254.352287,98.9373968 253.685362,99.103012 253.019106,99.250548 C252.749702,99.3105891 252.485655,99.3750943 252.2196,99.4491971 C251.997291,99.511247 251.774983,99.5730737 251.551782,99.6357932 C251.440181,99.6663718 251.32434,99.6915935 251.215194,99.7308769 C250.905837,99.8442631 250.594472,99.9513997 250.289356,100.075276 C250.07419,100.162102 249.859247,100.248927 249.644304,100.335529 C249.615511,100.333297 249.587834,100.332851 249.562166,100.335083 C249.418202,100.346466 249.278701,100.361197 249.140986,100.404721 C249.105274,100.416105 249.071347,100.433514 249.037197,100.447576 C248.837655,100.530384 248.656193,100.617655 248.479194,100.740416 C248.396833,100.797109 248.315141,100.854695 248.233673,100.912058 C247.328369,101.289491 246.430207,101.68411 245.550572,102.117121 C245.229832,102.274478 244.907975,102.426031 244.582548,102.57379 C244.249755,102.704363 243.916962,102.83315 243.578366,102.948099 C242.80051,103.211253 242.024886,103.472175 241.211764,103.600962 C240.834108,103.64404 240.456005,103.659887 240.078125,103.650736 C240.057814,103.634442 240.036387,103.618818 240.01429,103.604533 C239.803141,103.469497 239.572128,103.374413 239.343793,103.273303 C239.150948,103.187817 238.959218,103.099875 238.769274,103.008363 C238.400322,102.831811 238.010836,102.669767 237.674249,102.435406 C237.534078,102.325591 237.395693,102.23073 237.212892,102.184304 C236.854431,102.093238 236.457356,102.249925 236.267858,102.569326 C236.128804,102.565532 235.989972,102.598119 235.860516,102.674231 C235.550266,102.855693 235.408087,103.223529 235.496028,103.567928 C235.533526,103.714572 235.601602,103.825279 235.704498,103.933309 C235.784627,104.019688 235.881497,104.085978 235.975688,104.157403 C236.060504,104.222801 236.149785,104.280386 236.241743,104.333508 C236.344862,104.421896 236.448204,104.509837 236.554671,104.594207 C236.693279,104.704022 236.831887,104.813837 236.976522,104.915171 C237.123834,105.018736 237.302619,105.08592 237.472698,105.138372 C237.62693,105.186137 237.781385,105.226313 237.940081,105.255106 C238.3193,105.324075 238.70209,105.366707 239.08555,105.404204 C239.086219,105.404204 239.087112,105.404204 239.088005,105.404428 C239.196704,105.434337 239.306519,105.461121 239.417896,105.484334 C240.217403,105.650842 241.043917,105.713784 241.859047,105.682313 C242.537356,105.656199 243.208745,105.60821 243.86451,105.418936 C244.072757,105.358895 244.276762,105.284792 244.481661,105.21493 C244.69705,105.140827 244.907975,105.034583 245.118231,104.945526 C245.282061,104.875887 245.439864,104.779911 245.59856,104.697996 C245.737168,104.626572 245.869749,104.542871 246.004786,104.464304 C246.378202,104.245344 246.743359,104.011652 247.106507,103.774613 C247.686607,103.562125 248.257332,103.325085 248.805291,103.039611 C249.233391,102.817303 249.631135,102.547006 249.998971,102.235864 C250.071288,102.174707 250.140257,102.106853 250.207441,102.03967 C250.224181,102.022707 250.247171,101.997262 250.272392,101.968022 C250.848251,101.737902 251.423441,101.503987 252.021843,101.338595 C252.366912,101.242619 252.713097,101.148651 253.057497,101.051781 C253.181373,101.016962 253.309491,100.995981 253.435153,100.968081 C253.662595,100.918307 253.891153,100.867864 254.118595,100.81809 C254.66834,100.696668 255.218977,100.581497 255.773855,100.485297 C255.876974,100.474137 255.980316,100.46387 256.083658,100.460075 C256.288334,100.565203 256.488768,100.68216 256.685409,100.799787 C256.900575,100.929244 257.112616,101.061826 257.321755,101.201326 C257.591382,101.422742 257.841367,101.661344 258.092692,101.905303 C258.233086,102.041456 258.362096,102.189661 258.498025,102.329162 C258.654266,102.490536 258.808945,102.6595 258.953356,102.83248 C259.186824,103.166836 259.367394,103.533109 259.535464,103.903623 C259.605103,104.021473 259.699294,104.115441 259.817814,104.185303 C259.999276,104.29177 260.220692,104.32034 260.423805,104.264539 C260.619999,104.210525 260.790971,104.078836 260.893867,103.903623 C260.991406,103.736222 261.044528,103.485121 260.973103,103.297632 C260.746331,102.708381 260.510184,102.107523 260.12226,101.603758 C259.991464,101.432786 259.864909,101.254002 259.726301,101.089279 C259.607782,100.949779 259.486583,100.812063 259.367171,100.674348 C259.256463,100.546008 259.12656,100.431952 259.006924,100.312316 C258.90068,100.204287 258.78216,100.107417 258.66989,100.006307 C258.608733,99.9513997 258.539094,99.9043043 258.473696,99.8538608 C258.369908,99.7735084 258.267905,99.6933791 258.158983,99.621062 C258.026401,99.5320047 257.891141,99.4483043 257.756105,99.3654966 C257.462372,99.1842573 257.158818,99.0063659 256.848569,98.8581604 C256.714202,98.794548 256.586977,98.7447742 256.443905,98.7133028 C256.340786,98.6903131 256.244363,98.681385 256.146155,98.681385 C256.09147,98.681385 256.03634,98.6842866 255.9792,98.6889739" id="Fill-284" stroke="#000000" fill="#161616"></path>
    </g>
</svg>