<svg version="1.1" id="Layer_1" xmlns="http://www.w3.org/2000/svg" x="0" y="0" viewBox="0 0 500 600" xml:space="preserve" enable-background="new 0 0 500 600"><style>.st2,.st4{fill-rule:evenodd;clip-rule:evenodd;fill:#fff}.st4{fill:#161616}</style><g id="rofl"><g id="Group-53" transform="translate(206 58)"><path id="Fill-1" d="M74.4 70.4s0 .1 0 0c0 .1 0 .1 0 0 0 .1 0 0 0 0M55.5 35.2c-.3 1-.5 2.1-.5 3.1 0 1.4.2 3.1 1.1 4.3 1.5 2.1 2.9 4.3 4.2 6.6.7 1.5 1.2 3 1.7 4.6.2 1 .4 2 .5 3.1.2 1.2.3 2.4.5 3.6.4 2.3.7 4.6.9 7 0 .9.1 1.8.1 2.8-.4 3.6-1.2 7.2-2 10.8-.5 1.9-1 3.7-1.6 5.6-.7 2.1-1.6 4.2-2.5 6.3-.5 1-1 2-1.6 2.9-.8 1.5-1.7 2.9-2.5 4.3s-1.6 2.8-2.3 4.2c-1 1.9-1.9 3.9-2.7 5.9-.2.6-.5 1.2-.6 1.8-.1.3-.2.7-.3 1-.2.7-.4 1.4-.5 2.1-.3 1.5-.3 3.1 0 4.6.2 1.1.5 2.2 1.1 3.1.4.7 1 1.1 1.8 1.2.4-.1.9-.1 1.2-.5.6-.6.7-.7 1.1-1.2.3-.4.5-.8.7-1.2.2-.4.5-.8.7-1.1.4-.7.9-1.4 1.3-2.1.9-1.3 1.7-2.7 2.6-4 1.9-2.9 3.8-5.7 5.6-8.6.8-1.2 1.5-2.5 2.3-3.7.8-1.4 1.7-2.9 2.5-4.3l.3-.6c.4.3.8.5 1.3.6.2 0 .7-.2 1-.4.3-.2.7-.7.9-.9.2-.3.5-.5.7-.8.3-.4.6-.8.8-1.2.4-.6.7-1.3 1.1-1.9.6-1 1-2.1 1.5-3.1.4-.8.6-1.6.9-2.4.3-.7.5-1.5.7-2.2.1-.4.2-.9.3-1.3.2-.7.4-1.3.5-2 .2-.8.4-1.6.5-2.4.2-1.3.5-2.5.6-3.8.1-.9.2-1.8.3-2.6.2-1.6.4-3.3.3-4.9-.1-1.1-.1-2.3-.8-3.2-.3-.5-1.2-1.2-1.8-.6-.5.5-.8.8-1.1 1.5-.1.4-.2.8-.3 1.3-.1.3-.2.7-.3 1-.1-.1-.3-.1-.4-.2-.3.1-.6.1-.9.3-.2.1-.3.3-.5.5-.1.2-.2.3-.3.5-.2.3-.3.5-.5.8l-.9 1.5c-.3.5-.5 1-.7 1.5-.3.6-.6 1.2-.9 1.9l.3-3.3v-1.1c0-1.5-.1-3-.3-4.5-.3-3.1-1-6.2-1.6-9.2-.3-1.5-.6-3.1-1-4.6-.3-1.3-.7-2.7-1.1-4-.2-.8-.6-1.5-.9-2.2-.5-1.1-1-2.1-1.5-3.1-.4-.7-.7-1.4-1.2-2-.9-1.3-1.7-2.6-2.6-3.8-.5-.7-1-1.5-1.5-2.2-.4-.6-.9-.9-1.5-1-1.2-.3-1.8 1-2.2 1.9" fill-rule="evenodd" clip-rule="evenodd" fill="#bebebe"/><g id="Group-18" transform="translate(23 63)"><g id="Group-5" transform="translate(15.683 32.333)"><defs><filter id="Adobe_OpacityMaskFilter" filterUnits="userSpaceOnUse" x=".2" y=".2" width="37.9" height="33.6"><feColorMatrix values="1 0 0 0 0 0 1 0 0 0 0 0 1 0 0 0 0 0 1 0"/></filter></defs><mask maskUnits="userSpaceOnUse" x=".2" y=".2" width="37.9" height="33.6" id="mask-2_1_"><g filter="url(#Adobe_OpacityMaskFilter)"><path id="path-1_1_" class="st2" d="M.2.2H38v33.6H.2z"/></g></mask><path id="Fill-3" d="M25.1 18.4l.1-.1c0-.1.1-.1.1-.2-.1.1-.2.2-.2.3m.6-.8l-.2.2v.1c0-.1.1-.2.2-.3M34.6.8c-.6.6-.9 1.3-1.2 2.1-.2.4-.3.9-.5 1.4L32 6.7c-.4.9-.9 1.8-1.3 2.7-.2.5-.5 1-.8 1.5-.3.5-.6 1.1-.9 1.6-.5.9-1.1 1.9-1.7 2.7-.7.9-1.3 1.9-2 2.8l-.3.3-.1.1c-1.1 1.4-2.2 2.8-3.4 4.1-.7.7-1.3 1.4-2 2.1-.6.6-1.3 1.2-2 1.8-.7.6-1.5 1.1-2.3 1.6-.9.5-1.8 1-2.7 1.4-.8.3-1.6.6-2.5.8l-1.5.3c-.3.1-.7.1-1 .2-.2 0-.5 0-.7.1H5.2c-.5-.1-1-.2-1.6-.3-.7-.2-1.3-.4-2-.6-.7-.2-1.5.3-1.7 1-.2.7.2 1.5 1 1.7.9.3 1.7.5 2.6.7 1.2.3 2.4.5 3.7.5h1.1c.4 0 .8-.1 1.1-.1.9-.1 1.8-.2 2.7-.4.3-.1.7-.2 1-.3.4-.1.9-.3 1.3-.4.8-.3 1.6-.7 2.4-1.1.4-.2.7-.4 1.1-.6.4-.2.7-.4 1.1-.7l.9-.6c.5-.3.9-.7 1.4-1 .6-.5 1.3-1 1.9-1.6.6-.5 1.1-1.1 1.7-1.6 1-1.1 2-2.2 3-3.4 1.1-1.3 2.1-2.7 3.1-4 .9-1.3 1.8-2.7 2.6-4.1.5-.8 1-1.7 1.4-2.6.4-.9.9-1.8 1.3-2.7.2-.5.5-1.1.7-1.7.2-.5.3-.9.5-1.4.2-.5.3-1 .4-1.5 0-.2.1-.6.1-1.1v-.8c0-.7-.4-1.4-1-1.7-.3-.2-.6-.3-1-.3-.5.1-1 .3-1.4.7" mask="url(#mask-2_1_)" fill-rule="evenodd" clip-rule="evenodd" fill="#161616"/></g><path id="Fill-6" class="st4" d="M21.8 4.9c-.1 0-.2.1-.3.2-.1.1-.1.2 0 .4s.3.4.6.3c.1 0 .2-.1.3-.1h1.5c.2 0 .4-.2.4-.5 0-.1 0-.2-.1-.3-.1-.1-.2-.1-.3-.1-.2 0-.4 0-.6-.1h-.6c-.4.1-.6.1-.9.2"/><path id="Fill-8" class="st4" d="M30.400000000000002.20000000000000007h-.7c-.2 0-.5.1-.7.1-.2.1-.4.1-.7.2-.2.1-.4.1-.6.2-.2.1-.4.1-.7.2-.2.1-.5.1-.8.2-.1 0-.3.1-.4.2-.1 0-.2.1-.2.1-.1.1-.3.1-.4.2-.3.2-.6.3-1 .5-.3.2-.7.4-1 .6l-.9.6-.2.2v.3c.1.2.3.2.5.1.5-.4 1.1-.7 1.6-1 .5-.3 1-.5 1.6-.8.2-.1.4-.1.5-.2.2-.1.5-.1.7-.2.3-.1.6-.1.9-.2.3-.1.6-.2.9-.2.3-.1.6-.1.9-.2.5-.1 1 0 1.5 0 .3 0 .5.1.8.1l.9.3c.6.2 1.2.4 1.7.7.3.1.6.3 1 .4.4.2.7.4 1.2.5.2.1.5 0 .6-.2.1-.2.1-.6-.2-.7l-.6-.3-.6-.3c-.4-.2-.9-.4-1.4-.6-.5-.2-.9-.3-1.4-.5-.2-.1-.4-.1-.6-.2-.2 0-.4-.1-.7-.1-.3 0-.5-.1-.8-.1h-.4c-.2.1-.2.1-.3.1"/><path id="Fill-10" class="st4" d="M27.9.8c-.1 0-.1 0-.2.1s-.3.1-.4.2c-.3.1-.6.3-1 .4-.1.1-.3.1-.4.2l-.6.3s-.1.1-.3.2c-.1.1-.3.2-.4.2-.3.2-.7.4-1 .6-.3.2-.6.4-1 .6-.1.1-.2.1-.2.2v.3c.1.2.4.3.5.1.6-.4 1.1-.8 1.7-1.1.3-.2.6-.4.9-.5.1-.1.2-.1.3-.2.1-.1.3-.1.4-.2.3-.2.7-.3 1-.5.2-.1.3-.2.5-.2.2-.1.4-.2.5-.4 0-.1 0-.2-.1-.3h-.2c.1 0 .1 0 0 0"/><path id="Fill-12" class="st4" d="M.8.4C.4.4.1.7.1 1.1c0 .4.3.7.7.7 1.4-.1 2.8-.1 4.2 0 .3 0 .5.1.8.1.1.1.2.1.3.2.3.1.5.1.8.3.6.3 1.2.6 1.7.9.2.1.5.3.7.4.4 0 .7.1 1 .3h-.1.5c.2 0 .3-.2.4-.3.2-.3.1-.7-.2-.9-.5-.3-1-.6-1.5-.8-.3-.2-.5-.3-.8-.4-.5-.3-1.1-.6-1.7-.8C6.5.7 6 .6 5.6.5 4.8.4 4.1.4 3.3.3h-.4C2.2.3 1.5.4.8.4"/><path id="Fill-14" class="st4" d="M26.3 29.4h-.1c0 .1 0 0 .1 0-.1 0-.2.1-.3.1.1 0 .2 0 .3-.1.1 0 .1 0 .2-.1-.1.1-.2.1-.2.1m2.9-4.5c-.2.1-.3.2-.5.3 0 0-.1 0-.1.1-1.3.1-2.5.3-3.7.6-1.4.3-2.7.5-4.1.7-1.8.2-3.7.4-5.5.5H8.2h-.1c-.5 0-.9.3-1 .8-.2.6.2 1.2.8 1.3.3.1.6.1.9.2.4.1.9.1 1.3.2.5.1 1 .2 1.6.2h2.7c.3 0 .5.1.8.1.4.1.9.1 1.3.2.5.1 1.1.2 1.6.2s.9.1 1.4.1h1.4c.4 0 .8 0 1.2-.1.5 0 1-.1 1.5-.2.4-.1.8-.1 1.3-.3.2-.1.4-.1.6-.2l.9-.3c.5-.2.9-.4 1.4-.6.4-.2.7-.5 1.1-.7.4-.3.9-.6 1.3-1 .2-.1.3-.3.5-.4.2-.2.4-.4.5-.6.1-.2.1-.3.1-.5 0-.3-.1-.5-.3-.7-.2-.2-.4-.3-.7-.3h-.1c-.5.1-.8.3-1 .4"/><path id="Fill-16" class="st4" d="M8.8 27.1c0 .1 0 .1 0 0zm-2.4-.9c-.1 0-.3 0-.4.1-.3.1-.3.1-.6.3-.2.2-.4.5-.5.8.1.2.1.4.1.6 0 .2 0 .3.1.5 0 .1.1.3.1.4.1.4.2.9.3 1.3.1.5.2.9.4 1.4 0 .4.1.9.2 1.4.2.9.3 1.8.4 2.7.1.8.2 1.6.4 2.4.2 1 .6 2 1.1 2.9.3.5.6.9 1 1.3l.9.9c.5.4 1.2.6 1.8.8.5.2 1.1.2 1.6.3.5.1 1.1.2 1.6.2.7.1 1.4-.5 1.6-1.2.1-.4.1-.9-.2-1.3l-.3-.3c-.2-.2-.4-.3-.7-.4l-2.4-.9c-.2-.1-.3-.2-.5-.3l-.2-.2c-.3-.5-.6-1-.8-1.5-.2-.5-.4-1.1-.6-1.6-.2-.6-.3-1.3-.5-1.9-.2-.7-.4-1.4-.6-2-.1-.3-.2-.7-.3-1-.1-.3-.2-.6-.4-.9-.1-.3-.2-.7-.4-1-.2-.5-.4-.9-.6-1.4l-.1-.1c.2.1.4.1.6.2.4.1.8-.2.9-.5.1-.2 0-.4-.1-.5-.1-.2-.2-.3-.4-.3-.1 0-.1 0-.2-.1-.3-.1-.6-.3-.8-.4-.3-.1-.5-.3-.8-.4 0-.2-.3-.3-.7-.3.1 0 .1 0 0 0z"/></g><g id="Group-52"><path id="Fill-19" class="st4" d="M44.8 58.7s.1 0 .1.1c-.1 0-.1 0-.1-.1m.1 0h.1c0 .1-.1 0-.1 0m-.1 0c.1 0 .1 0 0 0M58 54.1c-.1 0-.1 0 0 0-.1 0-.1 0 0 0m-.2-3c-.3 0-.6 0-.8.1-.2.1-.5.2-.7.3-1.1.7-2.2 1.5-3.2 2.3-1.1.8-2.2 1.7-3.4 2.5-.5.4-1.1.7-1.7 1-.6.4-1.2.7-1.9 1-.4.1-.7.2-1.1.3h-.2c-.2-.2-.3-.3-.4-.5-.1-.2-.3-.3-.4-.5-.4-.5-.7-1.1-.9-1.7-.3-.6-1.2-.8-1.8-.5-.3.2-.5.5-.6.8-.1.4 0 .7.1 1 .3.6.6 1.3 1.1 1.9.3.4.5.7.8 1.1.1.2.3.3.4.5.4.3.8.5 1.3.6 1.1.2 2.2-.2 3.1-.6.7-.3 1.3-.6 1.9-1 .6-.4 1.3-.7 1.9-1.1 1.2-.8 2.3-1.6 3.5-2.5.5-.4 1.1-.8 1.6-1.1l.9-.6c.1-.1.2-.1.3-.2.5.5 1 1 1.7 1.4.4.2.7.5 1.1.7l.9.6c.5.3 1.2.2 1.6-.2.2-.2.4-.6.4-.9 0-.4-.1-.7-.4-.9-.3-.3-.5-.6-.8-.8-.3-.3-.7-.6-1.1-.8-.2-.2-.5-.4-.7-.6-.2-.2-.5-.4-.7-.7-.2-.2-.4-.4-.7-.5-.2-.1-.4-.2-.5-.2-.2-.1-.5-.2-.6-.2"/><path id="Fill-21" class="st4" d="M44.9 62.2c-.1.1-.3.2-.3.4-.1.6-.2 1.1-.3 1.7-.1.4-.2.8-.3 1.1-.1.3-.2.7-.2 1-.1.2-.1.4-.2.6 0 .1 0 .2-.1.3v.5c.1.2.2.3.4.4.2.1.4 0 .5-.1.1-.1.2-.3.3-.5 0-.1.1-.2.1-.2.1-.2.1-.4.2-.6.1-.4.2-.7.3-1.1.1-.4.2-.8.3-1.1.1-.6.2-1.1.3-1.7 0-.2 0-.3-.1-.5-.1-.1-.2-.2-.4-.3h-.2c-.1.1-.2.1-.3.1"/><path id="Fill-23" class="st4" d="M53.2 61.9h-.7c-.4 0-.9.1-1.3.2-.2.1-.4.1-.7.2-.3.1-.6.2-.9.4-1 .5-1.9 1-2.8 1.6-.4.3-.8.7-1.3 1-.5.4-1 .8-1.5 1.3-.1.1-.2.3-.2.4 0 .2.1.3.2.4.1.1.3.2.4.2.2 0 .3-.1.4-.2.6-.5 1.2-.9 1.7-1.4.2-.2.5-.4.7-.5.3-.2.6-.4 1-.6.6-.4 1.2-.7 1.9-.9.1 0 .2-.1.3-.1.2-.1.5-.2.8-.2.2 0 .5-.1.7-.1.3 0 .5-.1.8 0h1c.4.1.8.2 1.2.4.3.1.6.3.9.5.3.2.7.4 1 .6.2.1.5.2.7.3.2.1.4.2.6.2.4.2.9.3 1.3.4.3.1.7-.1.8-.3.1-.2.1-.4.1-.6 0-.2-.2-.4-.3-.4-.8-.4-1.5-.7-2.3-1-.3-.2-.6-.4-1-.5l-1.2-.6c-.6-.3-1.3-.4-1.9-.5h-.3c.2-.2 0-.2-.1-.2"/><path id="Fill-25" class="st4" d="M44.6 62.2c-.2.2-.2.3-.2.6-.1.7-.2 1.4-.2 2.1-.1.4-.1.8-.2 1.2-.1.4-.2.8-.4 1.3-.1.2-.1.3-.2.5s-.1.3-.2.5c-.1.3 0 .7.2.9.3.3.7.3 1 .1.3-.2.4-.5.5-.8.1-.4.2-.8.3-1.1l.3-1.2c.1-.5.2-1 .2-1.5.1-.6.1-1.3.2-1.9 0-.2-.1-.4-.2-.6-.2-.2-.4-.2-.6-.2s-.4 0-.5.1"/><path id="Fill-27" class="st4" d="M44.6 67.3c-.2.1-.3.1-.5.2-.3.1-.5.5-.5.8h-.1c-.1.1-.3.2-.3.4s0 .4.1.5c.1.1.2.3.4.3.2.1.3 0 .5-.1.3-.1.5-.2.8-.4.2-.1.4-.1.6-.2h.1c.2 0 .5.1.7.1.2.1.4.2.7.2.4 0 .8-.4.8-.8 0-.2-.1-.4-.2-.6-.2-.3-.6-.4-1-.5-.3-.1-.6-.1-.8-.2h-.5c-.4.2-.6.2-.8.3"/><path id="Fill-29" class="st4" d="M33.6 62.9c-.2.1-.5.4-.5.7-.1.3-.1.6-.1.9 0 .4.1.8.3 1.3l.3.9c.1.2.2.4.2.7l-.3.3c-.3.2-.6.5-.8.7-.2.3-.4.6-.4.9 0 .3.1.7.4.9.5.5 1.3.5 1.8 0l.7-.7c.2-.2.4-.4.7-.6.4-.3.7-.8.6-1.3 0-.3-.1-.6-.3-.9l-.3-.6c-.2-.6-.5-1.1-.6-1.7v-.3-.1c0-.2 0-.5-.1-.7-.2-.3-.4-.5-.7-.5h-.3c-.2-.1-.4 0-.6.1"/><path id="Fill-31" class="st4" d="M27.8 64c-.5 0-.9.1-1.4.2-.5.1-.9.2-1.4.3-.5.1-1.1.4-1.6.6-.4.2-.8.4-1.2.7-.2.1-.4.2-.5.3-.3.2-.6.4-.8.7-.2.3-.2.7 0 1.1.1.2.2.3.4.4.3.2.5.2.8.1.3-.1.6-.3.9-.5.2-.1.4-.3.7-.4.5-.3.9-.6 1.4-.8.4-.1.8-.2 1.1-.4.5-.1 1-.3 1.5-.4.5-.1 1-.1 1.5-.1h.9c.2 0 .4 0 .6.1.6.1 1.2.3 1.8.5.6.3 1.1.6 1.6 1 .2.1.5.2.7.1.2-.1.4-.2.6-.4.1-.2.2-.5.1-.7-.1-.3-.2-.4-.4-.6-.5-.4-1-.7-1.5-.9l-1.5-.6c-.2-.1-.4-.1-.6-.2-.2 0-.4-.1-.6-.1-.3-.1-.7-.1-1-.1-.5 0-1 0-1.5-.1h-.2c0 .2-.2.2-.4.2"/><path id="Fill-33" class="st4" d="M35.4 83.7h-.1.1m2.3-24.4c-.4.1-.7.5-.5.9.2.5.4 1 .5 1.6.2.6.3 1.2.4 1.9.2 1.4.3 2.7.3 4.1 0 .7 0 1.4-.1 2-.1.7-.1 1.4-.2 2.1-.1.9-.3 1.8-.4 2.7-.1 1-.3 1.9-.5 2.9-.2.9-.4 1.8-.7 2.7-.3.9-.6 1.7-.9 2.6-.2.4-.3.7-.5 1.1l-.3.3c-.1.1-.2.3-.3.4-.1.1-.2.2-.3.4-.1.2-.3.7-.3 1 0 .2 0 .3.1.5s.1.3.2.5c.1.3.5.5.7.7.2.1.3.2.5.2.1.1.3.1.4.1h.7c.6.1 1.2.1 1.7.2.5 0 1.1 0 1.6-.2.3-.1.5-.2.8-.4.3-.3.5-.8.5-1.2 0-.8-.5-1.5-1.3-1.7-.5-.1-1.1-.2-1.6-.2h-.5c.1-.2.1-.4.2-.7.2-.7.4-1.3.6-2 .2-.7.3-1.4.5-2.1.1-.6.3-1.3.4-1.9.2-1.5.4-3 .6-4.4.1-1.3.3-2.6.3-4 0-1.2-.1-2.3-.2-3.5l-.3-2.1c-.1-.5-.2-1.1-.3-1.6-.2-.8-.4-1.7-.8-2.5-.1-.2-.2-.3-.3-.5-.1-.1-.2-.1-.4-.1-.2.2-.2.2-.3.2"/><g id="Group-37"><defs><filter id="Adobe_OpacityMaskFilter_1_" filterUnits="userSpaceOnUse" x="0" y="0" width="101.9" height="128.9"><feColorMatrix values="1 0 0 0 0 0 1 0 0 0 0 0 1 0 0 0 0 0 1 0"/></filter></defs><mask maskUnits="userSpaceOnUse" x="0" y="0" width="101.9" height="128.9" id="mask-4_1_"><g filter="url(#Adobe_OpacityMaskFilter_1_)"><path id="path-3_1_" class="st2" d="M0 0h101.9v128.9H0z"/></g></mask><path id="Fill-35" d="M38.6 40.4c.5 0 1 0 1.5-.1h.3c.6 0 1.2-.1 1.8-.2.2 0 .4 0 .5-.1.9-.1 1.6-.2 2.3-.4.4-.1.8-.2 1.2-.2.3-.1.6-.1.8-.2.1 0 .3-.1.4-.1.6-.2 1.2-.4 1.8-.5h.1c-.5.5-1 .9-1.5 1.3l-.2.2c-.5.4-1 .8-1.4 1.3-.5.5-.6 1-.5 1.6.2.9 1.1 1.2 1.8 1.4.4.1.7.1 1.1.1.5 0 1.1-.1 1.7-.2.4-.1.9-.2 1.3-.4.1-.1.3-.1.4-.2.8-.3 1.5-.6 2.2-.9l.6-.3.6-.3c.2-.1.5-.2.7-.4.1-.1.2-.1.4-.2 1-.5 2-1.1 2.9-1.7.2-.1.4-.2.6-.4 0 .4 0 .8.1 1.1 0 .3.1.5.1.8.1.2.1.4.2.6.1.2.3.5.5.7v.1c.1.2.3.3.6.5.2.1.5.2.7.2h.2v.5c0 .3.1.7.1 1 0 .3.1.6.2.9.1.3.2.5.3.8l.1.4c.1.4.3.8.4 1.3.1.3.1.5.2.8.1.3.1.6.2.9.2.7.5 1.4.7 1.9.2.5.5 1.1.8 1.6l.6.9c.2.3.4.5.5.8.3.5.6 1 .8 1.5.1.4.3.8.4 1.2.1.9 0 1.8 0 2.7v.8c0 .8.1 1.7.5 2.7.1.3.2.6.4 1 .3.9.5 1.6.7 2.3.1.7.1 1.5 0 2.2v1.1c0 .7.1 1.4.2 2 .1.3.2.7.4 1 0 .1.1.2.1.2 0 .1.1.2.1.3l.1.1c.1.2.2.3.3.5.1.2.3.4.5.6l.1.1c.2.2.4.4.7.5l.6.3c.3.1.5.2.8.2h.1c.9 0 1.7-.5 2.4-.9.6-.4 1.2-1 1.7-1.6l.1-.1c.3-.3.5-.6.8-.8 0 .3-.1.5-.1.8-.1.9-.1 1.7-.1 2.7v.2c0 1.7 0 3.5-.2 5.2-.1.9-.3 1.9-.6 2.9-.2.4-.4.7-.7 1.1-.3.3-.6.7-1 1.2-.4.4-.8.9-1.2 1.5-.2.2-.3.4-.4.6-.1.3-.2.5-.3.7-.1.2-.1.5-.1.7v.3c0 .1 0 .3-.1.4v.1c-.3-.1-.5-.3-.8-.3-.4-.1-.8-.2-1.2-.2-.4 0-.7 0-1.1.1-.7.2-1.2.6-1.7.9l-1.2.9c-.2.2-.5.4-.7.6l-.1.1c-.5.5-1 1.1-1.5 1.6l-.1.1c-1.1 1.1-2.2 2.3-3.2 3.4-.8.9-1.6 1.8-2.3 2.7l-.4.5c-.3.4-.6.7-.9 1.1-.5.7-1.1 1.4-1.7 2-1.1 1.2-2 2.2-2.9 3.1l-.9.9-.5.5c-.4.4-.9.8-1.4 1.3-.6.5-1.4 1-2.3 1.4-.2.1-.5.1-.8.2H46.9c-.2 0-.5-.1-.7-.2-.1-.1-.3-.2-.4-.3-.3-.2-.5-.5-.8-.8-.2-.2-.3-.4-.5-.5-.3-.3-.6-.5-.9-.7-.4-.3-.8-.5-1.2-.6-.4-.2-.9-.2-1.5-.2h-.3c-.7 0-1.5.1-2.3.2-.2 0-.4 0-.6.1-1.1.1-2.2.2-3.1.9-.4.3-.8.6-1.1 1-.1.2-.3.3-.4.5-.3.3-.5.7-.9.9-.1.1-.2.1-.2.1-.1 0-.1 0-.2.1-.1 0-.2-.1-.3-.2-.4-.3-.7-.6-.9-.9-.4-.5-.6-1.1-1-1.6l-.2-.3c-.3-.5-.6-1.1-.9-1.6-.1-.2-.2-.4-.4-.6-.1-.1-.1-.2-.2-.3-.2-.4-.4-.7-.6-1-.3-.6-.7-1.3-1-2-.3-.5-.5-1.1-.7-1.7-.4-.8-.7-1.7-1.1-2.5-.2-.3-.3-.6-.6-1-.1-.3-.3-.5-.5-.7-.1-.1-.1-.2-.2-.3-.4-.5-.7-.9-1.1-1.3-.2-.2-.5-.4-.8-.6l-.1-.1c-.1-.1-.3-.2-.5-.3-.3-.1-.6-.2-.9-.2h-.3c-.5 0-.9.1-1.5.3-.1 0-.2.1-.3.1-.1-.7-.2-1.3-.3-2-.1-.7-.2-1.5-.3-2.3-.1-.5-.1-1.1-.1-1.6v-.7c-.1-1.4-.2-3-.2-4.7v-1.4V82v-1.7c0-1 .1-2 .1-2.9 0-.5.1-1.1.1-1.6.1-1.2.1-2.5.1-3.7v-1c0-1.3.1-2.6.2-3.8v-.7c0-.9.1-1.7.2-2.6 0-.7.1-1.4.1-2.1 0-.8.1-1.7.1-2.5 0-.7 0-1.4.1-2.1.3-.2.6-.4.9-.7l.5-.4.5-.4h-.1l.2-.1.1-.1.1-.1c.2.1.4.1.6.1h.3l.3-.1c.3-.1.6-.2.9-.2.1 0 .1 0 .2.1.3.2.7.4 1 .6l.1.1.3.3c.4.3.8.6 1.1.9.3.2.6.5.9.7.4.3.8.5 1.2.7.5.2 1 .5 1.5.7l1.2.6.3.1.2.1c.2.1.5.2.7.3.2.1.4.1.6.1h.2c.2 0 .4.1.6.1H32.8c.2 0 .3 0 .5-.1.4 0 .8-.1 1-.4.3-.3.5-.7.7-1.1.1-.1.2-.3.3-.4.4-.5.7-1.1 1.1-1.6.1-.2.2-.4.1-.6-.1-.2-.2-.5-.4-.6-.1-.1-.3-.1-.4-.1-.3 0-.6.2-.8.4l-.1.1c-.4.6-.8 1.2-1.2 1.7-.1.1-.2.3-.4.4h-.8c-.2 0-.3-.1-.4-.1-.2-.1-.3-.2-.5-.3-.1-.1-.2-.1-.3-.2-.4-.2-.7-.4-1-.6-.2-.1-.4-.3-.7-.4-.1-.1-.3-.2-.4-.3-.1-.1-.2-.1-.4-.2l-.9-.6-1.2-1.2-.1-.1c-.5-.5-1-.9-1.6-1.4-.2-.2-.5-.3-.7-.5-.1 0-.2-.1-.2-.1.8-.6 1.6-1.3 2.5-1.9 1.2-1 2.4-2 3.6-3.1 1.2-1.1 2.1-2.2 3-3.1l.4-.4c.4-.4.8-.9 1.2-1.3.7-.7 1.2-1.3 1.6-1.9.1-.1.2-.3.3-.5.6.1 1.1.1 1.6.1.2.1.3.1.4.1zm-7.8-29.1l.5-.4-.5.4zM73.8 0c-.2 0-.4.1-.7.2l-.9.3c-1.2.4-2.1.7-3 .9-.9.2-1.9.3-2.8.4h-.2c-1.4.2-2.8.3-4.3.3h-.2c-.7 0-1.6 0-2.5-.1-.6 0-1.2-.1-2-.2-.4-.1-1-.2-1.5-.3-.3-.1-.6-.1-.9-.2-.3-.1-.5-.1-.8-.2-1-.2-2.1-.4-3.1-.6-.7-.1-1.4-.2-1.9-.2s-.9-.1-1.2-.1h-.3c-1.4.1-2.5.2-3.6.5-1.2.3-2.3.7-3.4 1.2l-.3.2c-.3.2-.7.3-1 .5-.6.3-1.1.6-1.6.8-.5.3-1 .5-1.5.8-.5.3-1 .6-1.4.9-.9.6-1.8 1.3-2.7 1.9-1 .7-1.8 1.4-2.6 2l-.6.5c-.7.5-1.4 1.1-2.1 1.7-.4.4-.9.8-1.3 1.1-.4.3-.7.6-1.1.9-.4.4-.8.7-1.3 1.1-.1.1-.2.2-.4.3-.3.3-.6.5-.9.8l-1 .8-.5.4-.5.4c-.1.1-.2.1-.4.2-.1 0-.1.1-.2.1l-.6.4c-.1.1-.3.2-.4.2H18l-.2.1c-.1.1-.2.1-.4.2l-.4.2-1.2.6c-.5.2-1 .4-1.5.5-.2.1-.4.1-.6.2h-.2c-.2 0-.4.1-.6.1-.1 0-.2 0-.3.1h-.1c-.1 0-.2 0-.2.1-.3.1-.5.2-.7.4-.3.2-.4.6-.5.9-.1.3 0 .6.1.9 0 .2.1.3.2.4v.1c.1.4.4.8.7 1.3.2.3.5.6.7.9l.4.4.2.2c.2.2.5.4.7.6l.3.2.3.2c.5.4 1 .7 1.4.9.3.1.7.3 1 .3l-.6.6c-.8.6-1.7 1.1-2.7 1.6-1 .4-2 .7-3 .8-1 0-1.8.1-2.8.1H6.1c-.2 0-.3 0-.5.1s-.4.1-.5.2l-.2.2c-.1.1-.2.2-.2.3-.2.3-.2.7-.1.9 0 .1.1.2.1.3v.1c.1.2.2.4.3.7 0 .1.1.3.2.4.4.8.8 1.7 1.4 2.5.1.2.3.4.4.6.1.2.3.4.4.6l.4.4.2.1c.4.3.8.7 1.3 1.1.3.2.6.3.9.4-.1.2-.2.3-.3.5-.1.1-.1.2-.2.3-.4.6-.8 1.1-1.1 1.6l-.1.2c-.3.3-.5.7-.8 1-.4.5-.9 1-1.4 1.5-.6.6-1.1 1-1.6 1.4-.9.7-1.9 1.3-2.9 1.9h-.1c-.1.1-.3.2-.5.3l-.2.1c-.4.3-1 .6-.9 1.2 0 .4.3.8.7 1 .2.1.5.2.8.3.6.2 1.1.4 1.7.6.3.1.6.2 1 .3.7.3 1.4.5 2 .6.5.1 1 .2 1.8.2h.1l-.1.1-.4.2c-.5.6-1.1 1.1-1.7 1.6-.2.2-.5.4-.7.6-.5.4-1.1 1-1.8 1.6-.3.2-.5.4-.8.6l-1.5 1.2-.1.1-.1.2c-.1.1-.2.1-.3.2H.6c-.1.1-.2.1-.3.2-.2.2-.3.4-.3.7 0 .6.5.9 1 1.2l.1.1c.6.4 1.2.7 1.9.8.6.1 1.2.2 1.8.2.4 0 .8 0 1.2-.1.4-.1 1-.1 1.5-.2.1 0 .3-.1.4-.1.6-.1 1.2-.2 1.7-.4.8-.3 1.5-.6 2.4-1 .6-.3 1.2-.6 1.9-.9l.5-.3c.5-.3 1-.5 1.5-.8-.1 1.2-.1 2.2-.2 3.3-.1.8-.2 1.7-.3 2.5-.1.7-.2 1.5-.3 2.2l-.1.7c-.1 1.3-.3 2.6-.4 3.9l-.1 1c-.1 1.2-.2 2.5-.3 3.7 0 .6-.1 1.3-.2 1.9-.1.9-.2 1.8-.2 2.7V85.1c0 1.7.1 3.3.1 4.7v.7c0 .5.1 1.1.1 1.6.1.8.2 1.5.3 2.4.2 1.5.4 3.3.7 5 .1.4.1.7.2 1.1.2 1.1.3 2.2.6 3.3v.2c.2.7.3 1.4.5 2.1.2.8.5 1.6.8 2.4.6 1.5 1.2 3 1.9 4.4l.2.5c.4.8.8 1.6 1.2 2.3.6 1 1.1 1.8 1.6 2.4.3.4.7.9 1 1.3l.1.1c.1.1.1.2.2.3.2.3.5.6.8.9.7.7 1.5 1.3 2.3 2l.1.1.3.3-.1-.1c1.3 1 2.6 1.8 3.9 2.4.7.4 1.5.6 2.3.9.2.1.4.1.6.2.3.2.6.3.9.5l.1.1c.6.3 1.2.5 1.8.8l.2.1.2.1c.2.1.4.2.7.2l1.2.3c.7.1 1.4.3 2.2.4.8.1 1.7.2 2.4.2h2.3c.4 0 .7-.1 1.1-.1h.4c.3 0 .7-.1 1-.1 1.5-.3 3-.7 4.4-1.3 1.4-.5 3-1.2 4.4-2 1.4-.8 2.8-1.8 4.1-2.8.7-.6 1.4-1.1 2-1.7.5-.4.9-.9 1.4-1.4l.1-.1c.7-.8 1.4-1.6 2-2.3l.3-.3c.3-.3.5-.7.8-1.1.9-1.2 1.9-2.6 2.8-4 .2-.4.5-.8.7-1.2.1-.2.2-.4.4-.6.1-.3.3-.5.5-.8.2-.4.5-.8.7-1.3.6-1.1 1.1-2.2 1.6-3.3.1-.3.2-.5.3-.8.3-.6.6-1.3.8-2 .2 0 .4-.1.6-.1.8-.3 1.5-.8 2.2-1.2.1-.1.3-.2.4-.3.6-.4 1.2-.8 1.8-1.3.3-.3.7-.5 1-.8.9-.6 1.8-1.3 2.6-2.1.2-.2.5-.4.7-.7.2-.3.4-.5.7-.8l.1-.1c.5-.6 1-1.1 1.5-1.7.6-.7 1.2-1.4 1.7-2.1l.5-.6c.8-1 1.6-2 2.3-3 .4-.6.8-1.2 1.3-1.7.5-.6.9-1.3 1.4-1.9.2-.3.5-.7.7-1.1.2-.3.3-.5.5-.8l1.2-1.8.2-.2c.4-.6.8-1.2 1.1-1.8.4-.7.7-1.3 1.1-1.9.3-.5.6-.9.9-1.5.5-.7.8-1.5 1.1-2.5.3-1.4.5-2.9.5-4.8v-.7-.5V65v-1c0-.4 0-.8.1-1.2 0-1.6-.3-3.3-.6-4.7-.3-1.4-.6-2.8-1-4l-.6-2.1c-.1-.6-.2-1.2-.3-1.7l-.1-.8c0-.3-.1-.7-.1-1-.1-.7-.1-1.3-.1-1.8.1-.3.2-.6.3-1 .2-.6.5-1.1.7-1.6.1-.2.2-.3.2-.5.2-.4.4-.8.6-1.3.2-.5.5-1.1.7-1.8.3-.8.4-1.5.5-2.3.1-.7.1-1.4.1-2.1 0-.7-.2-1.4-.5-2.3-.3-.9-.7-1.7-1-2.3-.4-.7-.9-1.4-1.4-2l-.1-.1-1.5-1.8c-.4-.5-1-1.1-1.5-1.7l-.1-.1-.1-.1.1.1c-.4-.6-1-1.3-1.5-2 .6 0 1.1-.1 1.6-.1.5-.1.8-.2 1.2-.4.6-.4.9-1.1 1-1.6.1-.3.1-.4.1-.6 0-.2 0-.4-.1-.6v-.2c0-.2-.1-.3-.1-.5v-.2l-.3-.9c-.1-.2-.2-.5-.3-.7-.1-.3-.4-.6-.6-.8l-.1-.1c-.8-1-1.9-1.9-3.3-2.8-.5-.3-1.1-.7-1.8-1-.6-.3-1.3-.5-2.1-.8-1.3-.4-2.6-.8-3.9-1.1l-.6-.2c-3.2-.8-6.6-1.5-10.2-2h.1c-.6-.1-1.3-.2-2-.2h-2.6s.1 0 .1-.1l.1-.1.1-.1.3-.3c.3-.2.5-.5.8-.7.4-.4.9-.9 1.3-1.5.4-.5.7-1 1.1-1.5.3-.5.6-.9.8-1.4.1-.3.3-.7.4-1.1 0-.2.1-.4.1-.5v-.1-.5c0-.2-.1-.3-.1-.4-.4-.4-.9-.7-1.4-.7z" mask="url(#mask-4_1_)" fill-rule="evenodd" clip-rule="evenodd" fill="#161616"/></g><path id="Fill-38" class="st4" d="M41.5 103.3c1 0 1.9-.1 2.8-.3l.2-.1c.2-.1.5-.1.7-.2h.1v.8c-.2.2-.3.5-.5.7l-.4.4h-3.5c-1.2 0-2.4-.1-3.9-.3-.4 0-.8-.1-1.2-.2-.1 0-.1 0-.2-.1l.1-.1c0-.1.1-.2.1-.3l.1-.2c.1-.1.2-.3.2-.4 0-.1.1-.1.2-.2h.7c.2 0 .4.1.7.1.5.1 1.1.2 1.6.2.7.2 1.4.2 2.2.2m-7.6-8c-.1-.6-.1-1.2-.2-1.8.2-.1.4-.2.7-.2l.2-.1c.3-.1.7-.2 1-.3.3-.1.7-.2 1.1-.2.5 0 .9-.1 1.3-.1h1c.2 0 .4.1.6.2l.2.1h.1c.2.1.5.1.7.2l.6.3c.2.1.3.2.5.2l.1.1c.5.2 1 .5 1.5.6.5.2 1 .2 1.5.3h.4c.5 0 1-.1 1.6-.2.8-.2 1.5-.5 2.2-.9-.1.1-.1.2-.2.3-.3.4-.7.7-1.1 1-.3.2-.5.3-.8.5-.4.2-.9.3-1.3.4h-.5c-.4 0-.8 0-1-.1-.4 0-.8-.1-1.2-.1h-.2c-.7-.1-1.3-.1-2-.2h-.6c-.5 0-1-.1-1.4-.1-.5 0-.9-.1-1.4-.1-.4 0-.9-.1-1.4-.1h-.1c-.5 0-1 .1-1.4.1-.1.1-.2.2-.5.2m19-9.5c-.2 0-.4.1-.6.2-.3.2-.5.4-.5.7-.1.2-.1.5 0 .7-.1.1-.1.2-.2.4s-.1.5-.1.8c-.2.2-.4.3-.5.5l-.2.2c-.2.2-.5.4-.8.6l-.1.1c-.4.3-.8.6-1.2.8-.4.3-.9.5-1.4.8-.1 0-.1.1-.2.1-.4.2-.8.3-1.3.4H44.6c-.3-.1-.6-.1-.9-.3-.3-.1-.6-.3-.9-.4-.6-.3-1.2-.6-1.9-.8-.1 0-.3-.1-.4-.1l-.9-.3c-.3 0-.6-.1-.9-.1h-.9c-.6 0-1.2.1-1.9.2-.4.1-.9.2-1.4.4-.4.2-.9.4-1.3.6l-.3.1-.6.3v-.2c0-.2-.1-.5-.3-.6-.2-.2-.4-.3-.6-.3-.2 0-.4.1-.6.3l-.1.1c-.1.1-.2.2-.3.2-.2.2-.3.4-.5.6l-.3.6c-.1.3-.1.7.1 1 .1.1.1.3.2.4.1.1.1.1.2.1 0 .1.1.1.1.2 0 .2 0 .3.1.6.1.1.1.3.2.4V95v.1l.1.1V95.5c0 .1 0 .1.1.2 0 .1.1.2.1.3l.3.9.1.3.1.4c0 .2.1.3.1.5v.2c.1.6.1 1.1.2 1.7v.2c.1.6.1 1.3.2 1.9.1.6.2 1.2.4 1.7.1.3.2.6.4.9.1.3.3.5.5.8.2.2.5.4.7.5.1.1.2.1.3.2.2.1.4.2.6.2.2.1.4.1.6.1h.1c.8.1 1.6.2 2.3.3 1.4.1 2.8.2 4 .2h1.8c.3 0 .7 0 1.1-.1.5-.1.9-.5 1.1-.7.3-.3.6-.7.9-1.1l.9-1.2c.1-.2.3-.4.4-.6.3-.4.5-.8.6-1.1.2-.5.5-.9.7-1.4.1-.2.2-.3.3-.5.1-.2.3-.5.4-.7.2-.5.5-1 .7-1.5.1-.2.2-.5.3-.7.2-.6.5-1.2.7-1.7.2-.4.3-.8.5-1.3.1-.4.3-.8.4-1.2.2-.6.4-1.1.6-1.7l.2.2c.2.1.4.2.6.2h.3c.3-.1.6-.3.7-.5.1-.2.2-.6.1-.9-.5-1.2-1.1-2.6-1.8-4.1-.1-.3-.5-.5-.7-.5.6-.1.5-.1.4-.1"/><path id="Fill-40" class="st4" d="M45.5 62.8c-.3.8-.5 1.7-.9 2.5-.3.7-.5 1.3-.8 2 0 .1-.1.2-.1.3-.1.5.1 1 .6 1.1.2.1.5 0 .7-.1.2-.1.4-.3.4-.5l.3-.6c.1-.2.1-.3.2-.5.2-.4.3-.8.4-1.1.3-.9.6-1.7.9-2.6.2-.5-.2-1-.7-1.2h-.2c-.3 0-.6.3-.8.7"/><path id="Fill-42" class="st4" d="M52 65.10000000000001c-.6 0-1.1.1-1.7.1-.5.1-.9.1-1.4.2-.5.1-1 .2-1.4.4l-2.7.9c-.2.1-.3.2-.4.3-.1.2-.1.4-.1.6.1.2.2.3.3.4.2.1.4.1.6.1l2.4-.9c.4-.1.9-.3 1.3-.4.4-.1.8-.2 1.3-.2.6-.1 1.1-.1 1.7-.2H52.5c.2 0 .3 0 .5-.1.2 0 .3-.1.4-.3.1-.1.1-.2.1-.3 0-.2-.1-.3-.2-.5-.2-.3-.6-.3-.9-.3h-.1c-.1.1-.2.1-.3.2"/><path id="Fill-44" class="st4" d="M33.2 68c.1 0 .1 0 0 0 .1 0 .1 0 0 0m-1.4-1.4c-.7.2-1.4.4-2.2.6l-.9.3c-.1 0-.2.1-.3.1-.1 0-.2.1-.3.1-.3.1-.6.2-.8.3l-.3.3c-.1.1-.1.4-.1.5.1.2.1.3.3.4.1 0 .1.1.2.1h.4c.1 0 .3-.1.4-.1.1 0 .2-.1.2-.1.1 0 .2-.1.3-.1.5-.2 1.1-.4 1.6-.6.3-.1.6-.2.8-.3.3-.1.5-.1.8-.2.3 0 .6-.1 1-.1h.1l.1.1c.1.1.3.2.4.2.2 0 .3-.1.4-.2.1-.1.2-.3.2-.4 0-.2-.1-.3-.2-.4-.2-.2-.5-.4-.8-.5-.3-.1-.7-.1-1 0-.1-.1-.3-.1-.4-.1.2.1.2.1.1.1"/><path id="Fill-46" class="st4" d="M31.9 58.1h-.1.1m3.4-3c-.5.9-1.1 1.8-1.7 2.6 0 .1-.1.1-.1.2-.1 0-.1.1-.2.1s-.1 0-.2.1c-.5.1-.9.1-1.4.2h.1-.3c-.2.1-.3.1-.5.3-.2.2-.3.5-.3.8 0 .6.5 1.1 1.1 1.1.7 0 1.3 0 2-.1.6-.1 1.2-.5 1.6-.9.4-.4.7-.9 1-1.4.4-.5.7-1.1 1-1.6.3-.5.1-1.3-.4-1.6-.2-.1-.4-.2-.6-.2-.5-.2-.9 0-1.1.4"/><path id="Fill-48" class="st4" d="M57.8 35.6c0 .2.2.4.4.4s.4-.2.4-.4-.2-.4-.4-.4c-.2-.1-.4.1-.4.4"/><path id="Fill-50" class="st4" d="M57.7 35.8c-.5.3-.7.9-.4 1.4.3.4.5.8.7 1.2.2.3.3.5.5.8.4.7.7 1.4 1 2 .6 1.2 1.1 2.3 1.6 3.5.5 1.3 1 2.6 1.4 3.9.4 1.4.9 2.9 1.3 4.3.4 1.3.9 2.6 1.3 4s.9 2.9 1.3 4.3c.2.7.3 1.4.5 2.1.1.6.3 1.2.4 1.8l.9 3.9c.3 1.3.7 2.5 1.1 3.8.2.6.4 1.2.5 1.8.1.4.2.7.4 1.1.2.4.6.7 1 .8.2.1.5.1.8 0 .3-.1.4-.2.6-.4.3-.2.4-.6.4-.9V75v-.1c0-.3-.1-.5-.1-.8-.1-.3-.1-.7-.2-1-.1-.6-.3-1.2-.5-1.8-.4-1.4-.8-2.8-1.1-4.3-.3-1.4-.6-2.8-1-4.2-.3-1.4-.7-2.7-1.2-4-.5-1.4-.9-2.9-1.4-4.3-.4-1.3-1-2.6-1.4-3.9-.5-1.5-1.1-2.9-1.7-4.3-.6-1.3-1.2-2.6-2-3.9-1.2-2-2.2-4.1-3.5-6-.2-.3-.5-.5-.9-.5.1-.2-.1-.2-.3-.1"/></g></g></g></svg>