<?xml version="1.0" encoding="UTF-8"?>
<svg width="500px" height="600px" viewBox="0 0 500 600" version="1.1" xmlns="http://www.w3.org/2000/svg" xmlns:xlink="http://www.w3.org/1999/xlink">
    <!-- Generator: Sketch 63.1 (92452) - https://sketch.com -->
    <title>rollingeyes</title>
    <desc>Created with Sketch.</desc>
    <g id="rollingeyes" stroke="none" stroke-width="1" fill="none" fill-rule="evenodd">
        <g id="Group" transform="translate(195.000000, 41.200000)" fill="#161616">
            <path d="M43.8,38.6 L44.6,38.6 C45.9,38.5 47.3,38.5 48.6,38.2 L49.2,38.1 L49.8,38 L50,38 L49.8,38.2 C49.4,38.6 49.1,39 48.7,39.4 C48.6,39.5 48.5,39.7 48.3,39.8 L47.7,40.4 C47.5,40.7 47.2,41 47,41.2 C46.9,41.3 46.9,41.4 46.9,41.4 L46.8,41.5 L46.7,41.6 C46.7,41.7 46.7,41.9 46.6,42 C46.6,42.4 46.9,42.9 47.2,43.1 C47.5,43.3 47.8,43.3 48.1,43.3 L48.6,43.3 C48.8,43.3 49.1,43.3 49.3,43.2 C50,43.1 50.6,43 51.2,42.9 L51.5,42.9 C52.5,42.7 53.6,42.6 54.6,42.2 C55.5,41.8 56.4,41.4 57.3,40.9 L57.8,40.6 C58.4,40.3 58.9,40 59.3,39.7 C59.3,40.2 59.3,40.7 59.4,41.2 C59.5,41.7 59.5,42.3 59.7,42.9 C59.8,43.1 59.8,43.2 59.9,43.4 C60,43.6 60.1,43.8 60.3,43.9 C60.4,44.1 60.8,44.2 61,44.3 C61.1,44.3 61.3,44.3 61.4,44.4 C61.4,44.9 61.5,45.5 61.5,46 L61.5,46.1 C61.7,47.6 62.1,49 62.5,50.1 L62.7,50.7 L62.8,50.9 C62.9,51.2 63,51.6 63.2,51.9 L63.3,52.3 C63.4,52.7 63.6,53.2 63.7,53.6 C63.8,53.9 63.9,54.3 64,54.6 L64,54.7 C64.2,55.6 64.5,56.5 64.8,57.4 C65.2,58.6 65.6,59.6 65.9,60.5 C66,60.8 66.1,61.1 66.3,61.4 C66.6,62.1 66.8,62.7 67,63.4 L67.9,66.4 L67.9,66.6 C68,67 68.1,67.5 68.2,67.9 C68.3,68.4 68.4,68.8 68.4,69.3 L68.7,72 C68.8,72.3 68.9,72.7 69,72.9 L69,73 C69.1,73.2 69.2,73.5 69.3,73.7 C69.4,74 69.5,74.2 69.7,74.4 C69.9,74.7 70.1,74.9 70.5,75 C70.6,75 70.8,75.1 71,75.1 C71.2,75.1 71.3,75.1 71.5,75 C71.6,74.9 71.8,74.9 71.9,74.8 C72,74.7 72.1,74.7 72.2,74.6 L72.5,74.3 C72.7,74.2 72.8,74 73,73.9 L73.1,73.8 L73.5,73.5 L73.9,73.1 C74.5,72.6 75.2,72 75.8,71.5 C76.1,71.3 76.3,71.1 76.6,71 C76.5,71.5 76.3,71.9 76.2,72.5 C76.1,72.7 76.1,73 76,73.2 L76,73.3 L75.7,74.2 L75.6,74.6 C75.3,75.6 75,76.7 74.9,77.8 L74.6,81.7 L75,83.3 C74.9,84.2 74.9,85.1 74.8,85.9 C74.8,86.4 74.7,86.9 74.7,87.3 C74.5,88.4 74.3,89.4 74.1,90.2 L74,90.2 L73.9,90.2 C73.6,90.2 73.3,90.3 73.1,90.3 L73,90.3 C72.7,90.3 72.5,90.4 72.2,90.4 C71.5,90.5 70.8,90.5 70.1,90.7 C69.6,90.8 69,91 68.4,91.3 C68,91.5 67.6,91.7 67.1,92.1 C66.1,92.8 65.2,93.5 64.3,94.2 C63.9,94.5 63.5,94.9 63.2,95.2 C62.9,95.5 62.6,95.8 62.3,96.2 C61.9,96.7 61.6,97.2 61.2,97.9 C61,98.2 60.9,98.5 60.7,98.8 L60.6,98.9 C60.4,99.2 60.3,99.5 60.1,99.7 C60,99.8 59.9,99.9 59.8,100.1 C59.6,100.3 59.5,100.5 59.4,100.7 C59.1,101.1 58.7,101.6 58.4,102 C58.1,102.4 57.7,102.9 57.4,103.3 C57.3,103.5 57.2,103.6 57,103.8 C56.9,104 56.8,104.1 56.7,104.3 C56.5,104.6 56.2,104.9 56,105.1 C55.8,105.3 55.6,105.5 55.4,105.8 C55.3,106 55.1,106.1 55,106.3 C54.7,106.7 54.4,107 54.1,107.4 C53.1,108.6 52.1,109.6 51.1,110.5 C50.7,110.7 50.3,111 49.8,111.2 C49.5,111.3 49.3,111.4 49,111.5 L48.8,111.6 C48.5,111.7 48.1,111.8 47.8,111.9 L47.1,111.9 C46.8,111.8 46.6,111.8 46.3,111.7 C46.2,111.7 46.2,111.6 46.1,111.6 C45.9,111.3 45.8,111.1 45.6,110.8 C45.5,110.7 45.5,110.5 45.4,110.4 C45.2,110.1 45,109.9 44.9,109.6 L44.9,109.5 C44.8,109.4 44.7,109.3 44.7,109.2 L44.4,108.9 C44.3,108.8 44.1,108.7 44,108.6 C43.9,108.5 43.7,108.4 43.5,108.4 C42.8,108.1 42.1,108.1 41.4,108 L39.7,108 C38.3,108 37.1,108.1 36,108.3 C35.3,108.4 34.7,108.7 34.2,109.2 C34.1,109.3 33.9,109.5 33.8,109.7 L33.7,109.8 L33.6,109.9 C33.3,110.2 33,110.6 32.7,110.9 C32.4,111.1 32.1,111.3 31.8,111.4 C31.7,111.4 31.5,111.5 31.4,111.5 L30.8,111.5 C30.6,111.5 30.3,111.4 30.1,111.3 C30,111.3 30,111.2 29.9,111.2 C29.7,111 29.4,110.7 29.2,110.4 C28.9,109.9 28.5,109.4 28.2,108.9 L28,108.6 C27.6,108 27.3,107.3 27,106.7 C26.8,106.2 26.6,105.7 26.5,105.2 C26.3,104.6 26.1,104.1 26,103.6 C25.7,102.7 25.3,101.8 25,100.9 L24.8,100.4 C24.6,99.9 24.3,99.3 24,98.8 C23.7,98.3 23.3,97.8 22.9,97.3 C22.6,96.9 22.2,96.5 21.8,96 C21.5,95.6 21,95.2 20.5,94.8 C20.2,94.6 19.9,94.5 19.5,94.4 C19.3,94.4 19.1,94.3 18.9,94.3 L18.4,94.3 C18,94.4 17.5,94.5 17,94.6 C16.7,94.7 16.5,94.8 16.2,94.8 L16.2,94.6 C16.1,93.9 16,93.3 15.9,92.6 C15.7,90.5 15.5,88.4 15.4,86.2 C15.3,85 15.3,83.8 15.2,82.8 C15.1,81.8 15.2,80.7 15.2,79.7 C15.2,78.6 15.3,77.4 15.4,76.3 C15.5,75.5 15.6,74.6 15.7,73.8 L15.8,73.1 L16.1,69.8 C16.2,68.7 16.1,67.6 16.1,66.6 C16.1,65.5 16.1,64.2 16.2,62.9 C16.3,61.5 16.5,60 16.6,58.5 C16.7,58.1 16.7,57.7 16.9,57.3 C17.3,57 17.6,56.7 18,56.5 C18.5,56.1 19,55.6 19.5,55.2 L19.6,55.2 C20.1,54.8 20.5,54.3 20.9,53.9 L21,53.8 C21.3,53.5 21.5,53.2 21.8,52.9 L22.2,52.5 C22.8,51.9 23.3,51.3 23.9,50.7 L24.2,50.4 C25.3,49.2 26.5,47.9 27.7,46.6 C28.4,45.9 29,45.2 29.7,44.6 L30.7,43.6 C31.3,43 31.9,42.4 32.4,41.8 C33,41.2 33.6,40.6 34.4,40.1 C35.1,39.6 35.7,39.2 36.3,38.9 L37.2,38.6 L37.5,38.6 C38.5,38.5 39.6,38.4 40.6,38.4 L41.4,38.4 C42.1,38.4 42.8,38.4 43.4,38.5 L44.3,38.5 C43.7,38.6 43.7,38.6 43.8,38.6 M72.7,4.54747351e-13 L72.4,4.54747351e-13 C72.1,0.1 71.8,0.2 71.5,0.4 C71.2,0.6 70.9,0.7 70.6,0.9 C69.7,1.3 68.7,1.5 67.8,1.8 C67.2,1.9 66.6,2.1 66,2.2 C65.5,2.3 65,2.4 64.6,2.4 L64.2,2.4 C63.8,2.5 63.3,2.5 62.8,2.5 L62.3,2.5 C61.8,2.5 61.3,2.6 60.8,2.6 L58.7,2.6 C57.9,2.6 57.2,2.5 56.5,2.5 C55.3,2.4 54,2.3 52.6,2.2 L52.2,2.2 C51.7,2.1 51.2,2.1 50.7,2.1 L48.7,2.1 C47.6,2.1 46.2,2.1 44.8,2.2 C43.8,2.3 42.8,2.4 41.8,2.7 L39.7,3.3 C39.3,3.4 38.8,3.6 38.4,3.7 L37.9,3.9 C37.7,4 37.5,4 37.3,4.1 L37,4.2 L36.9,4.2 C36.6,4.3 36.4,4.4 36.1,4.5 C35.5,4.8 34.8,5.1 34.2,5.4 C33.6,5.7 33,6 32.5,6.3 L32.3,6.4 C31.3,6.9 30.3,7.6 29.3,8.3 L29.2,8.4 C28.7,8.8 28.1,9.2 27.6,9.6 C27.1,10 26.5,10.5 25.8,11 C25.1,11.5 24.5,12.1 24,12.6 L23.9,12.7 C23.6,13 23.3,13.2 23.1,13.5 C22.5,14 22,14.5 21.5,14.9 C21.2,15.2 20.8,15.5 20.4,15.7 L19.8,15.8 C18.8,16.6 17.8,17.3 16.8,17.9 C16.5,18.1 16.1,18.4 15.8,18.6 C15.6,18.7 15.5,18.8 15.3,18.9 C15.1,19 15,19.1 14.8,19.2 L14.6,19.3 C14.2,19.5 13.8,19.8 13.3,20 C13.1,20.1 12.9,20.2 12.6,20.2 L12.4,20.3 C11.9,20.5 11.5,20.6 11.2,20.6 L10.7,20.6 L10.6,20.6 C10.5,20.6 10.4,20.6 10.3,20.7 C9.9,20.9 9.6,21.2 9.6,21.6 C9.6,21.8 9.7,22 9.8,22.3 C9.9,22.5 10,22.8 10.2,23 C10.4,23.5 10.8,23.9 11,24.2 C11.6,24.9 12.3,25.5 13.1,26 C13.3,26.1 13.6,26.2 13.8,26.3 L13.9,26.4 C14.3,26.5 14.6,26.6 15,26.7 C15.3,26.8 15.6,26.8 15.9,26.8 C15.4,27.2 15,27.6 14.6,27.9 C13.7,28.5 12.8,29.2 11.7,29.7 C11.3,29.9 10.9,30.1 10.6,30.2 L10,30.5 C9.7,30.6 9.5,30.8 9.2,30.9 L8.9,31 C8.1,31.3 7.2,31.7 6.3,32 C6.2,32 6.2,32 6.1,32.1 L6,32.1 C5.8,32.2 5.5,32.2 5.3,32.4 C5.1,32.5 4.9,32.7 4.8,32.9 C4.7,33 4.7,33.1 4.6,33.2 L4.6,33.3 C4.6,33.5 4.5,33.6 4.6,33.8 C4.8,34.4 5.1,34.9 5.3,35.3 C5.5,35.7 5.8,36.1 6,36.4 C6.3,36.9 6.7,37.3 7,37.7 L7.6,38.3 L7.8,38.4 C8,38.6 8.3,38.8 8.5,38.9 C8.8,39.1 9.2,39.3 9.6,39.5 C9.3,39.8 9,40 8.7,40.3 L8.3,40.7 C7.7,41.2 7.2,41.7 6.6,42.1 C6.1,42.5 5.5,42.9 4.9,43.3 L4.1,43.8 L3.8,44 C2.8,44.6 1.9,45.2 0.9,45.8 C0.5,46 0.4,46.5 0.6,46.9 L0.5,47 C0.3,47.2 0.2,47.4 0.1,47.6 C0,47.7 0,47.9 0,48.1 C0,48.5 0.2,49 0.6,49.3 C0.8,49.5 1,49.6 1.2,49.7 C1.4,49.8 1.5,49.8 1.7,49.9 C1.8,50 2,50.1 2.1,50.3 C2.3,50.5 2.5,50.7 2.7,50.8 C3,51 3.3,51.3 3.6,51.5 C4,51.8 4.5,52 5,52.2 C5.6,52.4 6.3,52.5 6.9,52.6 L7.4,52.6 C7.3,52.8 7.2,52.9 7.1,53.1 C6.7,53.8 6.4,54.4 6,54.9 C5.2,55.8 4.3,56.6 3.3,57.5 C3,57.9 2.5,58.3 2,58.6 L2,58.7 L1.5,59.1 L1.2,59.3 C1.1,59.4 1,59.5 0.8,59.6 C0.7,59.7 0.6,59.8 0.5,60 C0.3,60.2 0.3,60.5 0.4,60.8 C0.5,61.1 0.7,61.4 1,61.6 C1.3,61.8 1.7,61.8 2,61.8 L3.2,61.8 C3.8,61.8 4.4,61.9 4.9,62 C5.2,62 5.5,62.1 5.7,62.1 L5.8,62.1 C6.1,62.1 6.3,62.1 6.6,62 L6.7,62 C7.4,61.9 8,61.8 8.8,61.7 C9.4,61.6 9.9,61.4 10.6,61.1 C11.3,60.8 11.9,60.5 12.5,60.2 C13.1,59.9 13.7,59.6 14.2,59.2 C14.4,59 14.7,58.9 14.9,58.7 C14.8,59.1 14.8,59.5 14.7,60 L14.7,60.1 L14.6,60.8 L14.5,61.7 C14.4,62.2 14.4,62.8 14.3,63.3 L14.3,63.4 C14.3,63.8 14.2,64.2 14.2,64.6 L14.2,68.7 C14.2,69.1 14.2,69.5 14.1,69.8 L14.1,70.4 C14.1,70.8 14,71.2 14,71.5 C13.9,72 13.9,72.4 13.8,72.9 L13.8,73.2 C13.5,75.2 13.2,77.3 13.1,79.3 L13.1,79.4 C13,80.5 13,81.7 13,82.8 C13,83.7 13,84.7 13.1,85.6 L13.1,86 C13.2,87.5 13.3,89.4 13.4,91.4 C13.5,92.3 13.5,93.2 13.7,94.1 L14,95.9 L13.8,96.1 C13.7,96.3 13.6,96.6 13.7,96.8 C13.8,97 13.9,97.2 14.1,97.4 C14.2,98.3 14.3,99.2 14.5,100.1 L14.8,101.6 C14.8,101.7 14.9,101.9 14.9,102 C15,102.3 15,102.7 15.1,103 C15.4,104.2 15.6,105.2 15.9,106.1 C16,106.4 16.1,106.7 16.2,107.1 C16.4,107.8 16.6,108.6 16.9,109.3 C17.2,110.2 17.5,111.2 18,112.5 C18.4,113.7 18.9,114.7 19.4,115.6 C19.7,116.1 20,116.6 20.4,117.2 C20.6,117.6 20.9,117.9 21.1,118.3 L21.3,118.5 C21.5,118.8 21.8,119.2 22.1,119.5 L22.4,119.8 C22.7,120.2 23.1,120.7 23.5,121.1 L24.8,122.4 C25.2,122.7 25.6,123.1 25.9,123.4 C26.5,123.9 27,124.2 27.5,124.6 C27.9,124.9 28.3,125.1 28.8,125.4 L29.3,125.7 C30.1,126.1 30.9,126.6 31.7,127 C32.8,127.5 33.9,128.1 35,128.5 C35.4,128.7 35.9,128.9 36.3,129 C36.6,129.1 37,129.2 37.3,129.2 L37.5,129.2 C37.9,129.3 38.3,129.4 38.7,129.4 L39,129.5 C40,129.7 41.1,129.8 42.5,129.9 L45.1,129.9 C45.6,129.8 46.1,129.8 46.6,129.6 L47.5,129.3 C47.7,129.2 47.9,129.2 48.1,129.1 C48.2,129.1 48.3,129 48.3,129 C48.7,128.8 49.2,128.7 49.6,128.5 C49.7,128.4 49.9,128.4 50,128.3 C50.4,128.1 50.7,128 51.1,127.8 L51.5,127.6 L51.6,127.6 C52,127.4 52.5,127.2 52.9,127 C53.4,126.7 54,126.4 54.5,126.1 C54.9,125.9 55.2,125.7 55.5,125.5 L55.8,125.3 C56.2,125.1 56.5,124.9 56.8,124.6 L57,124.5 L57.3,124.3 C57.7,124.1 58,123.8 58.4,123.6 C58.8,123.3 59.3,122.9 59.8,122.5 C59.9,122.5 59.9,122.4 60,122.4 C60.1,122.3 60.3,122.2 60.4,122.1 L60.8,121.8 L61.2,121.5 C62.1,120.7 62.8,120 63.4,119.3 C64.1,118.4 64.8,117.5 65.5,116.5 C66.2,115.4 66.8,114.6 67.3,113.8 C67.9,112.8 68.4,111.9 68.9,110.9 C69.3,110.2 69.6,109.6 69.9,108.9 C70.3,108.1 70.7,107.2 70.9,106.6 L72.1,103.9 L73.3,101.2 C73.4,100.9 73.6,100.6 73.7,100.3 C73.9,99.9 74.1,99.4 74.3,99 L74.8,99 C75.1,99 75.5,98.9 75.8,98.7 C76,98.6 76.1,98.5 76.3,98.4 L76.4,98.4 L76.7,98.2 C77.8,97.6 78.8,96.9 79.8,96.1 C80.4,95.7 80.9,95.2 81.5,94.7 C81.8,94.4 82.2,94.1 82.5,93.8 L82.9,93.5 C83.5,93 83.9,92.6 84.3,92.3 C84.7,91.9 85,91.5 85.3,91.1 L85.5,90.9 C85.9,90.3 86.4,89.7 87,89 C87.3,88.6 87.6,88.2 87.9,87.7 L88.1,87.3 C88.5,86.7 88.9,86 89.3,85.3 C89.6,84.9 89.8,84.5 90.1,84 C90.7,83 91.4,82 92,81.1 C92.7,80.1 93.3,79.2 94,78.4 C94.8,77.3 95.8,76.4 96.8,75.6 C97.2,75.3 97.7,75 98.2,74.6 C98.4,74.5 98.6,74.4 98.7,74.3 L98.9,74.2 C99.5,73.8 100,73.4 100.2,73 C100.7,72.2 100.7,71.1 100.7,70.1 L100.7,67.4 C100.7,66.4 100.6,65.3 100.6,64.3 L100.6,64 C100.6,63.4 100.5,62.8 100.4,62.3 L100.4,61.9 C100.4,61.6 100.3,61.3 100.3,61.1 L100.2,60.5 L100.1,59.9 C99.9,58.6 99.5,57.3 99.3,56.3 C99,55.1 98.6,53.7 98.1,52.2 C97.8,51.1 97.3,50 96.9,48.7 C96.6,47.9 96.4,47.3 96.2,46.7 C96,46.1 95.8,45.5 95.6,44.8 C95.4,44.1 95.2,43.3 95.1,42.7 C95,42.1 95,41.5 95,41 C95,40.9 95,40.8 95.1,40.8 C95.1,40.8 95.1,40.7 95.2,40.7 C95.4,40.5 95.7,40.2 96,40 L96.1,40 C96.2,39.9 96.4,39.8 96.6,39.7 L96.8,39.6 L97.7,39 C97.9,38.9 98,38.8 98.2,38.7 C98.3,38.7 98.3,38.6 98.4,38.6 L98.6,38.5 C98.8,38.4 99.1,38.2 99.3,38.1 L101.1,37.2 L101.3,37.1 C101.8,36.9 102.3,36.6 102.8,36.3 C103.1,36.1 103.4,35.9 103.6,35.5 C103.7,35.3 103.8,35.1 103.8,34.9 L103.8,34.3 C103.8,34.2 103.7,34 103.6,33.9 C103.5,33.8 103.4,33.6 103.3,33.5 L102.9,33.1 C102.3,32.6 101.7,32.1 101.2,31.8 C100.7,31.4 100.1,31 99.6,30.6 L99.5,30.5 L98.3,29.6 C97.6,29.1 96.9,28.5 96.2,28 C94.7,26.7 93.4,25.6 92.3,24.4 C91.7,23.8 91.1,23.1 90.6,22.5 C90.3,22.2 90,21.8 89.7,21.5 L89.6,21.4 L95.9,21.4 C96.1,21.4 96.5,21.3 96.7,21.2 C96.8,21.1 96.9,21 97.1,20.9 L97.2,20.9 C97.4,20.7 97.5,20.4 97.5,20.1 C97.5,19.8 97.3,19.5 97.2,19.3 C97,19 96.7,18.8 96.4,18.6 C96.3,18.5 96.2,18.5 96.1,18.4 C95.9,18.2 95.6,18 95.4,17.9 C94.9,17.5 94.3,17.2 93.8,16.8 C93.2,16.4 92.6,16.1 92,15.7 L91.7,15.5 C91.3,15.2 90.8,15 90.4,14.7 C90.1,14.5 89.8,14.4 89.5,14.2 C89.2,14 88.9,13.9 88.6,13.7 L88,13.4 C87.9,13.4 87.8,13.3 87.7,13.3 L87.2,13.1 L86.7,12.9 C86.4,12.7 86,12.6 85.7,12.5 L85.5,12.4 C85.1,12.2 84.7,12.1 84.2,12 C83.7,11.8 83.1,11.7 82.5,11.5 L82,11.4 C81.5,11.3 81.1,11.2 80.6,11 C78.7,10.5 76.5,10 74.3,9.6 C73.6,9.5 72.9,9.4 72.3,9.3 C72,9.3 71.6,9.2 71.3,9.2 C70.8,9.1 70.2,9 69.7,8.9 C70,8.7 70.2,8.6 70.4,8.4 C71.2,7.8 71.8,7.1 72.4,6.5 C73.1,5.7 73.8,4.8 74.3,3.8 C74.6,3.3 74.8,2.7 75,2.2 C75.1,2 75.1,1.7 75.2,1.4 C75.2,1 75.2,0.7 75,0.5 C74.9,0.4 74.9,0.3 74.8,0.2 C74.7,0.1 74.6,4.54747351e-13 74.4,4.54747351e-13 L72.7,4.54747351e-13" id="Fill-12"></path>
            <path d="M20.3,54.7 C20.1,54.8 20,55 19.8,55.2 C19.7,55.3 19.6,55.4 19.5,55.6 C19.7,55.4 20,55.2 20.2,54.9 L20.3,54.8 C20.2,54.8 20.3,54.8 20.3,54.7 C20.4,54.7 20.5,54.6 20.5,54.5 C20.4,54.6 20.4,54.7 20.3,54.7" id="Fill-17"></path>
            <path d="M75.3,55.7 C75,55.8 74.6,55.8 74.3,56 C74.1,56.1 73.8,56.3 73.6,56.4 C73,56.8 72.4,57.2 71.9,57.6 C71.2,58.1 70.7,58.8 70.3,59.5 C70,60 69.7,60.5 69.7,61 L69.7,61.3 C69.8,61.5 69.9,61.7 70,61.8 C70.2,62 70.4,62.2 70.7,62.2 C71.1,62.3 71.6,62.4 72,62.4 C72.8,62.4 73.5,62.3 74.3,62.2 C75,62.1 75.6,62 76.3,61.9 C77.9,61.7 79.4,61.6 81,61.6 C81.6,61.6 82.2,61.1 82.2,60.4 C82.2,59.8 81.7,59.2 81,59.2 C79.8,59.2 78.5,59.3 77.3,59.4 C76,59.5 74.6,59.8 73.3,60 C73.1,60 72.8,60 72.6,60.1 C72.9,59.7 73.3,59.4 73.6,59.1 L74.5,58.5 C74.7,58.3 75,58.2 75.2,58.1 C75.4,58 75.6,58 75.8,58 C76.1,58 76.4,57.7 76.5,57.5 C76.7,57.2 76.7,56.9 76.6,56.6 C76.5,56.3 76.3,56.1 76.1,55.9 C75.9,55.8 75.7,55.7 75.5,55.7 L75.3,55.7" id="Fill-21"></path>
            <path d="M36.5,58.5 C36.2,58.6 36,58.9 36.1,59.2 C36.3,59.9 36.4,60.6 36.5,61.2 C36.6,62.2 36.7,63.1 36.7,64.1 C36.7,64.9 36.7,65.7 36.6,66.5 C36.5,68.2 36.4,69.9 36.2,71.6 C36.1,72 36.1,72.3 36,72.7 C35.9,73.1 35.9,73.5 35.8,73.9 C35.7,74.7 35.5,75.6 35.4,76.4 C35.3,76.8 35.3,77.2 35.2,77.6 C35,78.1 35,78.5 34.9,78.8 L34.3,81.2 C34,82.2 33.7,83.3 33.6,84.4 L33.6,84.6 C33.6,85 33.8,85.3 34,85.6 C34.5,86.2 35.3,86.4 36.1,86.4 C36.7,86.4 37.4,86.3 38,86.3 C38.2,86.3 38.4,86.2 38.6,86.1 C38.8,85.9 38.8,85.7 38.8,85.5 C38.8,85.3 38.7,85.1 38.6,84.9 C38.4,84.7 38.2,84.7 38,84.7 L35.8,84.7 C35.7,84.7 35.6,84.7 35.5,84.6 L35.5,84.4 C35.6,84 35.6,83.7 35.7,83.3 L36,82.1 C36.2,81.3 36.4,80.6 36.6,79.8 C36.8,79 36.9,78.2 37.1,77.4 C37.2,76.6 37.4,75.8 37.5,75 C37.6,74.2 37.8,73.3 37.9,72.5 C38,71.6 38.1,70.8 38.1,69.9 C38.1,69.2 38.2,68.4 38.2,67.7 L38.2,66.5 L38.2,65.2 C38.2,64.6 38.2,63.9 38.1,63.3 C38.1,62.9 38,62.5 38,62 C37.9,61.5 37.9,61 37.8,60.5 C37.7,60 37.6,59.5 37.4,59.1 C37.3,58.8 37.1,58.7 36.8,58.7 C36.6,58.5 36.5,58.5 36.5,58.5" id="Fill-43"></path>
        </g>
        <g id="sad" transform="translate(195.000000, 36.000000)">
            <g id="Group-11" transform="translate(29.000000, 39.000000)"></g>
            <g id="Group-53">
                <g id="Group-14">
                    <g id="Fill-12-Clipped"></g>
                </g>
            </g>
        </g>
        <ellipse id="Oval" fill="#FFFFFF" cx="251.5" cy="108" rx="6.5" ry="8"></ellipse>
        <ellipse id="Oval" fill="#FFFFFF" cx="219.5" cy="110" rx="6.5" ry="8"></ellipse>
        <path d="M256.219635,98.2362527 C256.234702,98.2374625 256.249392,98.2398822 256.264082,98.2431084 C256.248639,98.241092 256.233195,98.2386724 256.217752,98.236656 C256.218505,98.236656 256.218882,98.2362527 256.219635,98.2362527 L256.219635,98.2362527 Z M258.688717,98.08825 L258.718474,98.1019615 C258.708304,98.0975254 258.698511,98.0930894 258.688717,98.0886533 L258.688717,98.08825 Z M255.722428,96.6126595 L255.722428,96.6126595 C255.718662,96.6130628 255.714895,96.6138693 255.710752,96.6142726 C255.714518,96.6138693 255.718662,96.6130628 255.722428,96.6126595 L255.722428,96.6126595 Z M243.797382,96.026698 L243.776288,96.0444422 C243.782692,96.038393 243.790225,96.0323439 243.797382,96.026698 L243.797382,96.026698 Z M247.553551,94.1567026 C247.42812,94.2365514 247.320768,94.3397903 247.213417,94.4430292 C247.133939,94.3781016 247.044291,94.3284986 246.947487,94.3002692 C246.806235,94.2591349 246.610365,94.2482464 246.469114,94.2905905 C246.360632,94.3228527 246.18322,94.4236719 246.087922,94.5220715 C245.870959,94.3365641 245.570752,94.2482464 245.302562,94.3268855 C245.184287,94.3619706 245.049815,94.4385932 244.94962,94.5269108 C244.881066,94.4579505 244.803095,94.3982655 244.734541,94.3599542 C244.525488,94.2434071 244.296095,94.203886 244.070846,94.2889774 C244.006058,94.3176101 243.94127,94.3474526 243.876483,94.375682 C243.807552,94.4309309 243.739751,94.487793 243.673457,94.5458649 C243.66743,94.5515107 243.66065,94.5579632 243.654247,94.5648189 C243.529192,94.4986815 243.38342,94.4631931 243.245558,94.4781143 C243.17173,94.4890028 243.096773,94.4986815 243.023322,94.5095699 C242.942337,94.5458649 242.86286,94.5821598 242.781875,94.6200678 C242.740065,94.6539431 242.697877,94.6886249 242.65569,94.72371 C242.642507,94.7059658 242.629323,94.6878184 242.615763,94.6704775 C242.540805,94.60434 242.462834,94.5410255 242.383357,94.4813405 C242.188994,94.3317248 241.869577,94.3236592 241.644704,94.3897967 C241.443938,94.4494817 241.297036,94.5765139 241.170097,94.7325821 C241.052576,94.6793496 240.934301,94.6628152 240.801336,94.6575726 C240.586633,94.6482972 240.364774,94.7547624 240.211845,94.9221223 C240.11052,94.9043781 240.005052,94.9080076 239.901091,94.9366403 C239.687518,94.9971318 239.499559,95.1540066 239.400118,95.3629041 C239.194832,95.1665082 238.84528,95.212885 238.657698,95.410894 C238.59743,95.4657397 238.545826,95.5306673 238.503262,95.6012408 C238.499119,95.6113227 238.495352,95.6210013 238.491586,95.63068 C238.283663,95.6810896 238.132618,95.8512725 238.05879,96.0722683 C237.973662,96.3275427 237.997016,96.6033841 238.02941,96.8679338 C238.06331,97.1357098 238.114914,97.3861448 238.201548,97.639806 C238.267843,97.8366052 238.345814,98.0273552 238.445632,98.2084266 C238.593287,98.4717665 238.899898,98.6250117 239.175245,98.5504055 C239.288999,98.6359002 239.408404,98.6891328 239.559826,98.6891328 C239.680361,98.6891328 239.792233,98.656064 239.896571,98.5911365 C239.996765,98.5282252 240.076243,98.4431338 240.135004,98.3362654 C240.160241,98.3036 240.184725,98.2697247 240.206948,98.2354461 C240.216365,98.236656 240.225405,98.2386724 240.234822,98.2398822 C240.36741,98.2777902 240.5,98.2777902 240.63221,98.2398822 C240.683061,98.2249609 240.729015,98.2047971 240.771579,98.1810037 C240.82695,98.2136692 240.884957,98.2394789 240.945601,98.2572231 C241.08836,98.2983574 241.232625,98.2983574 241.375383,98.2572231 C241.591593,98.1943119 241.735858,98.0511485 241.859406,97.8587854 C241.956588,97.7099762 242.019869,97.542213 242.074109,97.3708203 C242.096333,97.3792891 242.118557,97.3873546 242.14191,97.3942103 C242.368667,97.4619609 242.574329,97.4127611 242.778862,97.3042795 C242.948741,97.2159619 243.085096,97.0840903 243.204124,96.933668 C243.206007,96.9344745 243.208268,96.9360876 243.210151,96.9372975 C243.37777,97.0413429 243.624866,97.0961886 243.813202,97.0207758 C243.916033,96.9796416 244.016981,96.9425401 244.107759,96.8832584 C244.340166,97.1502277 244.736424,97.2328995 245.037385,97.0348905 C245.157543,96.9562515 245.259998,96.862288 245.351152,96.7578392 C245.488261,96.8513995 245.646086,96.9010025 245.812952,96.9010025 C246.060048,96.9010025 246.280778,96.7638884 246.463464,96.5969317 C246.47514,96.5864465 246.486064,96.575558 246.496987,96.5646695 C246.619029,96.6239512 246.747474,96.6400823 246.882699,96.6332266 C246.94711,96.6300004 247.008884,96.6195152 247.069152,96.6037874 C247.075932,96.6433085 247.084218,96.6828297 247.094389,96.7231574 C247.226977,97.2381421 247.840575,97.5498752 248.279021,97.2381421 C248.371305,97.1732145 248.459446,97.1038509 248.545704,97.0320676 C248.581488,97.0639265 248.618402,97.0921558 248.655692,97.1151426 C248.852692,97.2397552 249.053081,97.2445946 249.272304,97.2018472 C249.381915,97.1804735 249.481356,97.1381294 249.574771,97.0832838 C249.721296,97.3143615 249.956339,97.4559117 250.219633,97.4631707 C250.440739,97.4712362 250.644518,97.3772727 250.841141,97.2780665 C250.959793,97.4426036 251.136828,97.5563277 251.324787,97.6067373 C251.486756,97.6510978 251.640061,97.6361765 251.788847,97.5926226 C251.934995,97.8362019 252.181339,97.9858177 252.467986,98.0035619 C252.734293,98.0192897 252.978752,97.9124213 253.215302,97.7958742 C253.34224,97.7333663 253.465789,97.6664223 253.589714,97.5978652 C253.717029,97.8099889 253.927965,97.9680735 254.161501,98.0257421 C254.400311,98.0854271 254.639874,98.0592141 254.871151,97.9926734 C254.876801,97.9995291 254.882451,98.0063848 254.888477,98.0132405 C254.975112,98.1076073 255.163448,98.2306068 255.288503,98.25561 C255.383047,98.2757738 255.473072,98.2882754 255.563473,98.2951311 C255.602647,98.389498 255.657264,98.475396 255.726948,98.5504055 C255.802283,98.6528378 255.899087,98.7234113 255.999282,98.7943881 C256.206828,98.9411809 256.474642,98.9222269 256.710061,98.904886 C256.8709,98.8931909 257.034376,98.8677845 257.197851,98.8484272 C257.208398,98.8742369 257.220828,98.9000466 257.235142,98.9250498 C257.366223,99.1585472 257.542882,99.3444579 257.776795,99.4545525 C257.948558,99.5348046 258.125217,99.5864241 258.299992,99.6513517 C258.322592,99.6642565 258.344439,99.6771614 258.365533,99.6908728 C258.370053,99.6957122 258.374573,99.7001482 258.37834,99.7049875 C258.602083,99.9461472 258.961051,99.9933306 259.234891,99.8231477 C259.559959,99.618283 259.69104,99.1379801 259.488014,98.7883389 C259.370116,98.5850873 259.240918,98.3959504 259.045049,98.2685149 C258.933554,98.1939086 258.810759,98.1410793 258.688717,98.0878468 C258.666494,97.9273425 258.607733,97.7599826 258.525618,97.6381929 C258.385873,97.430102 258.229931,97.2885517 257.999032,97.2002341 C257.835556,97.1373229 257.660404,97.1232082 257.488265,97.119982 C257.339856,97.1187721 257.190694,97.1344999 257.042286,97.1534539 C257.004242,97.0401331 256.944728,96.9348778 256.859977,96.8441405 C256.692358,96.6646822 256.434714,96.5622499 256.199295,96.5590237 C256.158614,96.5586204 256.117557,96.5606368 256.076876,96.563863 C255.85577,96.205753 255.440678,96.041216 255.050446,96.1351795 C254.980762,95.9464459 254.860227,95.7734401 254.692608,95.6738306 C254.55889,95.5951916 254.420651,95.5318771 254.264709,95.5383296 C254.146811,95.5415558 254.03042,95.5572836 253.917418,95.5903523 C253.749799,95.6391488 253.588584,95.7149649 253.430758,95.79804 C253.427745,95.790781 253.424732,95.783522 253.421342,95.776263 C253.341864,95.5871261 253.112471,95.4250087 252.935812,95.372986 C252.594924,95.2721667 252.31016,95.458884 252.035567,95.6419718 C251.977936,95.5689786 251.910512,95.5056641 251.833671,95.4580774 C251.710122,95.3794384 251.52028,95.3290288 251.377898,95.3290288 C251.278457,95.3290288 251.189562,95.3504025 251.103681,95.3814548 C251.060364,95.2616815 251.009513,95.1519902 250.918735,95.0548004 C250.824567,94.9539812 250.656572,94.8390472 250.525867,94.8043654 C250.313801,94.7507296 250.103618,94.7491165 249.899085,94.8309817 C249.871212,94.8422735 249.842961,94.8539685 249.815464,94.8660668 C249.698696,94.7079822 249.534844,94.5857893 249.363458,94.5349764 C249.170979,94.4793242 248.970966,94.4962618 248.785644,94.5652222 C248.773214,94.5357829 248.76003,94.5063437 248.74534,94.4765012 C248.605218,94.1921909 248.288061,94.0377358 247.981827,94.0377358 C247.828521,94.0377358 247.677853,94.0764504 247.553551,94.1567026 L247.553551,94.1567026 Z" id="Fill-3" fill="#161616"></path>
        <path d="M219.250639,94.0837187 L219.250639,94.0837187 C219.255838,94.0828375 219.261037,94.0819563 219.266236,94.0810751 C219.261037,94.0819563 219.255838,94.0828375 219.250639,94.0837187 M228.192286,96.0223322 C228.195628,96.0276194 228.198971,96.0324659 228.202313,96.0373124 C228.198971,96.0324659 228.195628,96.0276194 228.192286,96.0223322 M226.837187,93.1271891 C226.677873,93.1179366 226.518559,93.1104465 226.360359,93.107803 C226.160566,93.1047188 225.961516,93.1051594 225.762838,93.1069218 C225.761724,93.1060406 225.76061,93.1051594 225.759496,93.1042782 C225.664056,93.0373079 225.560817,93.004704 225.450523,93.004704 C225.340228,93.004704 225.235876,93.0373079 225.14155,93.1042782 C225.135237,93.1091247 225.128924,93.1135307 225.122982,93.1179366 C224.544029,93.1346792 223.96619,93.1813822 223.392065,93.2712633 C223.302195,93.2853623 223.22978,93.3056297 223.161449,93.3849366 C223.130998,93.4210653 223.107602,93.4633623 223.091262,93.5096247 C222.995451,93.532095 222.900382,93.5594118 222.805313,93.5871692 C222.736611,93.5254861 222.657511,93.4792237 222.581382,93.4536692 C222.516765,93.4329613 222.440636,93.4232683 222.364507,93.4276742 C222.185882,93.0998723 221.788154,92.9725406 221.496263,93.1818227 C221.427933,93.2267633 221.364059,93.2800752 221.306126,93.3417584 C221.245594,93.414897 221.193975,93.5096247 221.156467,93.606996 C221.068455,93.6074365 220.979328,93.6299068 220.897628,93.6717633 C220.689666,93.5171148 220.400375,93.4928821 220.200954,93.6532583 C220.079518,93.752392 219.965882,93.8497632 219.884925,93.9969216 C219.846303,93.9991246 219.809167,94.0035306 219.769803,94.0079365 C219.713356,94.014986 219.655423,94.0215949 219.598605,94.0304068 C219.487197,94.045387 219.376902,94.0634513 219.266236,94.0810751 L219.282576,94.0784315 L219.251011,94.0837187 L219.250639,94.0837187 C219.249154,94.0837187 219.247668,94.0841593 219.246554,94.0841593 C219.247668,94.0841593 219.249154,94.0837187 219.250639,94.0837187 C219.138859,94.0392187 219.014453,94.0608078 218.899702,94.0718226 C218.796464,94.0801939 218.692111,94.085481 218.587759,94.0907682 C218.373111,94.1026642 218.158464,94.1145602 217.943446,94.1387929 C217.810127,94.1542137 217.676808,94.1802087 217.544603,94.2040008 C217.301362,94.2454167 217.016156,94.3330949 216.85647,94.572778 C216.835303,94.5758622 216.814135,94.5793869 216.793339,94.5829117 C216.519274,94.6256493 216.244838,94.6688275 215.973743,94.7327136 C215.698193,94.7961592 215.36731,94.8855997 215.204653,95.186966 C215.164918,95.2614264 215.135951,95.3446987 215.11924,95.4310551 C214.992977,95.4579313 214.867457,95.4905353 214.743422,95.5363571 C214.645754,95.5720452 214.543258,95.6165452 214.455617,95.6839561 C214.38283,95.6932085 214.309672,95.7055452 214.237256,95.7170006 C214.054546,95.744758 213.871836,95.777362 213.691726,95.8253867 C213.533526,95.8668026 213.379782,95.9236392 213.224553,95.9769511 C213.036272,96.0439214 212.850592,96.1144164 212.668996,96.2056193 C212.558701,96.2606936 212.455834,96.3157678 212.357423,96.39155 C212.311003,96.4259163 212.268668,96.4646886 212.224476,96.5003767 C212.191053,96.5012579 212.157631,96.5021391 212.125322,96.5034609 C211.879852,96.5157975 211.659635,96.5929015 211.449073,96.7409411 C211.27936,96.860342 211.140842,97.0304113 211.04206,97.2286786 C210.837811,97.3833271 210.645446,97.5688172 210.462736,97.7529855 C210.361354,97.8547627 210.259601,97.9560993 210.159705,98.0578765 C210.050896,98.1662626 209.952113,98.2935943 209.850732,98.4085893 C209.775345,98.4931834 209.709986,98.5927576 209.643141,98.6866041 C209.581495,98.7015843 209.522077,98.7253764 209.45746,98.770317 C209.357192,98.840812 209.241327,98.9663813 209.183395,99.0884259 C209.109122,99.2399902 209.060103,99.4034506 209.010712,99.5686733 C208.971347,99.7012921 208.927898,99.8321485 208.888905,99.9647673 C208.861053,100.060817 208.84657,100.159069 208.835058,100.259084 C208.820574,100.393025 208.801635,100.527406 208.794579,100.661787 C208.787152,100.833619 208.787152,100.993995 208.816118,101.165827 C208.864024,101.460143 209.060103,101.711282 209.305201,101.792351 C209.558841,101.875183 209.790943,101.759747 209.976623,101.561921 C210.070949,101.461906 210.149307,101.319153 210.220608,101.198431 C210.316048,101.038495 210.376951,100.833619 210.43934,100.654738 C210.443054,100.643723 210.447139,100.632708 210.450852,100.621693 C210.55112,100.528728 210.645074,100.387738 210.664385,100.244985 C210.677383,100.133515 210.688895,100.05597 210.682211,99.9652079 L210.699665,99.9083713 C210.716376,99.8704802 210.734573,99.8347921 210.754255,99.7995446 C210.765767,99.7832426 210.777651,99.7673812 210.789534,99.7515198 C210.88126,99.8383169 210.974472,99.9233515 211.07214,100.000896 C211.16201,100.073153 211.261906,100.117653 211.365145,100.155545 C211.424563,100.164356 211.482495,100.172728 211.541913,100.183302 C211.66112,100.183302 211.772529,100.147173 211.875767,100.076678 C211.946697,100.038787 212.00463,99.9766634 212.059963,99.9114555 C212.161344,99.7924951 212.199223,99.651505 212.252699,99.4999407 C212.260869,99.4770298 212.268296,99.4541189 212.275352,99.4316486 C212.384161,99.5113961 212.526393,99.5514902 212.640029,99.5514902 C212.817169,99.5514902 212.988367,99.4673367 213.113144,99.3192971 C213.16105,99.2624605 213.198929,99.2038615 213.230495,99.1412971 C213.299568,99.1998962 213.379782,99.2439556 213.477079,99.2677476 C213.600371,99.3069605 213.723663,99.3069605 213.846955,99.2677476 C214.012582,99.2144358 214.180809,99.0747675 214.261766,98.8888368 C214.285533,98.8342031 214.304844,98.7813319 214.320441,98.7284606 C214.367233,98.742119 214.416624,98.7496091 214.470843,98.7496091 C214.631642,98.7496091 214.840719,98.6703022 214.945072,98.5156537 C215.027885,98.3914062 215.125182,98.2764111 215.152663,98.1129508 C215.160833,98.0614013 215.167889,98.0094112 215.17383,97.9574211 C215.177544,97.9367132 215.181629,97.9160052 215.185714,97.8957379 C215.212823,97.9142429 215.240675,97.9309854 215.270013,97.9459656 C215.319404,97.9715201 215.368795,97.9957528 215.418186,98.0199854 C215.528481,98.0561141 215.638404,98.0561141 215.748698,98.0199854 C215.851194,97.9865003 215.94552,97.9212924 216.020906,97.832733 C216.051729,97.8463914 216.084038,97.8582874 216.117089,97.8684211 C216.404523,97.9578617 216.693814,97.790436 216.817849,97.4846637 C216.956367,97.567936 217.111224,97.5877627 217.27908,97.5344508 C217.358923,97.5097776 217.438394,97.4599905 217.507096,97.3939014 C217.517865,97.3983073 217.528264,97.4018321 217.539033,97.4053568 C217.698347,97.4569063 217.886999,97.434436 218.029231,97.3278123 C218.136183,97.2489459 218.216025,97.1506935 218.269502,97.0365796 C218.286584,97.0330549 218.303667,97.0286489 218.320749,97.0233618 C218.380539,97.0030945 218.444784,96.9691687 218.503831,96.9242282 C218.713279,97.0312925 218.959863,96.9590351 219.132175,96.7889658 C219.155571,96.806149 219.180823,96.8220104 219.20719,96.8356688 C219.255095,96.8599014 219.304487,96.8836935 219.352021,96.9079262 C219.459344,96.9422925 219.567039,96.9422925 219.675848,96.9079262 C219.77723,96.8735598 219.8671,96.8114361 219.942486,96.7219955 C219.981479,96.6757331 220.014159,96.6250648 220.040897,96.5699906 C220.165674,96.5805648 220.301593,96.5360648 220.402603,96.4673322 C220.515868,96.3875847 220.593854,96.2778768 220.643246,96.1487827 C220.763938,96.1998916 220.912483,96.1963669 221.024634,96.159357 C221.073654,96.1434956 221.123416,96.1192629 221.169836,96.0879808 C221.372229,96.1932827 221.6125,96.1531887 221.793353,96.0069115 C221.853885,96.0302629 221.917388,96.042159 221.98349,96.042159 C222.068532,96.042159 222.14986,96.0218917 222.226732,95.9826788 C222.22896,95.9866441 222.230817,95.9906095 222.233045,95.9941342 C222.286892,96.100758 222.357823,96.185352 222.447692,96.2487976 C222.559472,96.3263421 222.661225,96.332951 222.786003,96.3505748 C222.891841,96.3505748 222.991737,96.3175302 223.083092,96.2540847 C223.171847,96.1919609 223.242777,96.1095699 223.295139,96.0042679 C223.295511,96.0038273 223.295882,96.0029461 223.296254,96.0020649 C223.305166,96.0051491 223.31445,96.0077926 223.324106,96.0104362 C223.34156,96.0368718 223.359014,96.0628669 223.377582,96.0888619 C223.468937,96.1972481 223.57626,96.2589312 223.699552,96.3003471 C223.936852,96.379654 224.176752,96.2858075 224.340523,96.0875402 C224.389542,96.0972332 224.439676,96.0998768 224.487953,96.0941491 C224.503179,96.11706 224.519519,96.1386491 224.536602,96.159357 C224.716341,96.3726045 225.012687,96.4347282 225.243674,96.3091589 C225.346913,96.4303223 225.485802,96.5016985 225.636204,96.5016985 C225.802945,96.5016985 225.993082,96.4016837 226.090379,96.229852 C226.225183,96.1954857 226.332507,96.0937085 226.413835,95.9544808 C226.438716,95.9113026 226.457656,95.8645996 226.472139,95.8161343 C226.484765,95.8099659 226.497391,95.8029164 226.509275,95.7954263 C226.509646,95.7998323 226.509646,95.8037976 226.509646,95.8082036 C226.512617,96.0373124 226.530071,96.3140055 226.645936,96.5069856 C226.762172,96.6964411 226.909974,96.8272975 227.11608,96.8272975 C227.301389,96.8272975 227.46776,96.7136242 227.567284,96.5382678 C227.650098,96.6528223 227.757793,96.729045 227.897796,96.729045 C227.974668,96.729045 228.040028,96.6995252 228.105388,96.6550252 C228.206769,96.5862926 228.251704,96.4779064 228.288098,96.3536589 C228.320035,96.2369015 228.32152,96.100758 228.333032,95.9787134 C228.349001,95.8082036 228.364969,95.6376937 228.373511,95.4676244 C228.382423,95.2746442 228.390965,95.0821047 228.399877,94.8908869 C228.406933,94.7155305 228.41436,94.5414958 228.413066,94.3661394 C228.409904,94.1044266 228.379452,93.853288 228.310008,93.6052336 C228.276585,93.4849514 228.218282,93.3831742 228.124327,93.3179663 C228.021088,93.2474713 227.922678,93.2474713 227.810898,93.269501 C227.74071,93.2831594 227.682035,93.3122386 227.63153,93.351892 C227.624103,93.3439613 227.616304,93.3369118 227.608506,93.3298623 C227.526435,93.1298327 227.357094,92.9892832 227.156558,92.9892832 C227.038465,92.9892832 226.925571,93.0412733 226.837187,93.1271891" id="Fill-12" fill="#161616" transform="translate(218.601746, 97.404378) rotate(9.000000) translate(-218.601746, -97.404378) "></path>
        <path d="M251.762847,101.321566 C252.004136,101.366554 252.240064,101.424842 252.470247,101.508949 C253.151987,101.850854 253.81496,102.266696 254.425079,102.727524 C254.647219,102.913342 254.854038,103.110505 255.041708,103.331531 C255.238953,103.646443 255.400196,103.990305 255.57561,104.318518 C255.704681,104.561059 255.815751,104.815728 255.932949,105.06492 C256.014911,105.271471 256.096107,105.478022 256.178452,105.684574 C256.40289,106.253764 256.567197,106.838993 256.664096,107.443782 C256.747207,108.312628 256.660649,109.172085 256.551111,110.034281 C256.479873,110.528361 256.376846,111.007576 256.205645,111.477402 C255.919927,112.143217 255.5871,112.78517 255.166183,113.371572 C254.74067,113.90712 254.278773,114.413327 253.762489,114.857334 C253.626907,114.950439 253.488261,115.031025 253.341189,115.103396 C252.802308,115.318163 252.248873,115.507111 251.679736,115.612733 C251.519642,115.62799 251.362612,115.632293 251.201752,115.621731 C251.044722,115.589653 250.893437,115.547795 250.742152,115.493419 C250.558695,115.400314 250.387494,115.2943 250.220506,115.173812 C249.958917,114.959828 249.701541,114.741149 249.452208,114.513864 C248.992991,114.097632 248.533392,113.688832 248.140434,113.204532 C247.783095,112.6905 247.513846,112.122875 247.26413,111.546644 C246.939729,110.719264 246.738654,109.863719 246.611881,108.983137 C246.546771,108.45424 246.510386,107.927691 246.507705,107.392926 C246.504641,106.839384 246.549452,106.290145 246.616094,105.742471 C246.711844,105.096606 246.856235,104.474996 247.086801,103.864339 C247.109015,103.813875 247.131229,103.764193 247.154592,103.714511 C247.187913,103.709035 247.221617,103.701211 247.254555,103.691822 C247.500441,103.623754 247.65096,103.480968 247.798415,103.292802 L247.76586,103.335834 C248.015959,103.016618 248.31355,102.750605 248.62761,102.496719 C248.617652,102.504543 248.608077,102.512367 248.597736,102.519799 C248.719913,102.422783 248.840941,102.325375 248.962351,102.227967 C249.336925,101.943959 249.721457,101.683814 250.141225,101.477262 C250.33464,101.407629 250.528821,101.351688 250.729896,101.310222 C251.075362,101.280882 251.417764,101.286359 251.762847,101.321566 M250.092584,99.0721902 C249.711116,99.1379111 249.341521,99.3123844 248.99414,99.4790339 C248.739829,99.5995222 248.501986,99.7630421 248.273335,99.9265619 C248.019023,100.106903 247.760115,100.30876 247.532613,100.522744 C247.314303,100.728905 247.094461,100.9335 246.887641,101.152179 C246.593114,101.462397 246.34493,101.826209 246.127769,102.194324 C246.056149,102.315986 246.014019,102.448602 245.999082,102.583173 C245.962697,102.644591 245.927844,102.7064 245.894523,102.768991 C245.544461,103.416811 245.325768,104.157736 245.179462,104.879102 C244.889148,106.324961 244.838209,107.811506 244.98643,109.275752 C245.054987,109.963083 245.158397,110.641808 245.328832,111.311144 C245.524928,112.079452 245.842052,112.817639 246.168367,113.537439 C246.59771,114.48961 247.342645,115.212149 248.080303,115.915128 C248.681613,116.486665 249.318924,117.071894 250.096797,117.369985 C250.41124,117.4893 250.729896,117.557759 251.065021,117.591402 C251.416615,117.62661 251.750208,117.58084 252.098737,117.527246 C252.590892,117.454092 253.059301,117.275316 253.523114,117.102407 C253.974671,116.934584 254.420483,116.755808 254.80961,116.463976 C255.393302,116.025054 255.900394,115.478162 256.366888,114.914449 C256.824956,114.364036 257.212552,113.771375 257.535421,113.129422 C257.876673,112.452653 258.166987,111.752804 258.322485,111.005229 C258.448109,110.403178 258.507857,109.776874 258.579861,109.165435 C258.64995,108.554387 258.662206,107.93395 258.606671,107.320946 C258.546923,106.642612 258.394106,105.986968 258.186137,105.340713 C258.099579,105.073135 258.002297,104.807513 257.908079,104.541499 C257.752581,104.102969 257.569891,103.666003 257.371114,103.245468 C257.254299,102.999797 257.135952,102.755299 257.01952,102.507672 C256.749888,101.936135 256.328205,101.471394 255.854051,101.066507 C255.307893,100.602157 254.715393,100.196878 254.106423,99.8240686 C253.736828,99.5963926 253.371829,99.3992299 252.965083,99.243534 C252.731453,99.1547325 252.483269,99.105833 252.239298,99.0631927 C251.85783,98.995907 251.473299,98.9622642 251.087235,98.9622642 C250.755174,98.9622642 250.420049,99.015858 250.092584,99.0721902" id="Fill-22" fill="#161616"></path>
        <path d="M222.346001,115.847331 C222.33122,115.866799 222.31644,115.886656 222.30127,115.906123 C222.316051,115.886266 222.330831,115.866799 222.346001,115.847331 M215.562917,112.96922 C215.574975,112.996475 215.586255,113.02373 215.597535,113.050984 C215.586255,113.02373 215.574586,112.996475 215.562917,112.96922 M215.700998,105.776668 C215.69283,105.797693 215.683884,105.818329 215.675327,105.839354 C215.683884,105.818329 215.69283,105.797304 215.700998,105.776668 M216.624391,103.763314 C216.622057,103.764482 216.619723,103.765261 216.617,103.766429 C216.617778,103.766429 216.617778,103.76604 216.618556,103.76604 C216.620501,103.764872 216.622446,103.764093 216.624391,103.763314 M220.023517,103.157089 C220.380972,103.22912 220.731036,103.355271 221.069821,103.493491 C221.516737,103.693231 221.958596,103.907765 222.362726,104.184207 C222.432739,104.246893 222.498473,104.311915 222.561874,104.381999 C222.816643,104.760841 222.993231,105.188742 223.177209,105.606909 C223.613623,106.784318 224.022421,107.976134 224.214956,109.219733 C224.27719,109.852435 224.260464,110.490198 224.188896,111.12251 C224.086988,111.773511 223.902621,112.39609 223.714364,113.026844 C223.596509,113.424376 223.452593,113.819571 223.297787,114.204254 C223.058187,114.745457 222.762577,115.276147 222.41368,115.755833 C222.310994,115.874975 222.204808,115.987109 222.088898,116.092624 C221.923978,116.205537 221.750113,116.301708 221.568857,116.387755 C221.236296,116.510402 220.898678,116.592945 220.55017,116.648623 C220.156931,116.686001 219.763302,116.693399 219.370063,116.659136 C219.071342,116.603458 218.784678,116.520136 218.500736,116.411117 C218.161174,116.254596 217.841837,116.070042 217.538837,115.850446 C217.219889,115.582959 216.938671,115.284324 216.676511,114.962717 C216.24671,114.379853 215.901313,113.746762 215.612315,113.08369 C215.272364,112.244241 215.02304,111.370529 214.891182,110.473456 C214.84334,110.079428 214.812223,109.685012 214.809112,109.287091 C214.806389,108.930832 214.842562,108.573404 214.888071,108.220259 C214.956528,107.760431 215.050267,107.306054 215.163066,106.85596 C215.305425,106.727083 215.394108,106.564333 215.465677,106.374328 C215.51313,106.24623 215.562917,106.118522 215.613482,105.991592 C215.716168,105.774721 215.837524,105.574593 215.976382,105.379137 C216.426021,104.811458 216.881494,104.233266 217.431484,103.761368 C217.649691,103.604458 217.876844,103.467015 218.120722,103.351377 C218.284085,103.288691 218.448227,103.234571 218.619758,103.197582 C219.085344,103.152027 219.557931,103.121268 220.023517,103.157089 M218.662155,100.970862 C218.340096,100.990329 218.025816,101.035884 217.718926,101.130497 C217.416314,101.223163 217.119926,101.361384 216.839097,101.501552 C216.554767,101.641331 216.301164,101.84068 216.053397,102.035358 C215.831689,102.208621 215.632541,102.398626 215.442729,102.605762 C215.011371,103.071041 214.646526,103.595892 214.28207,104.114512 C213.915669,104.636248 213.722745,105.239748 213.546546,105.845195 C213.424412,106.263751 213.614225,106.709173 213.961956,106.941228 C213.953399,106.977049 213.944064,107.01248 213.935506,107.048301 C213.779144,107.685675 213.667902,108.335119 213.604112,108.988846 C213.543434,109.621547 213.583108,110.258921 213.64223,110.890065 C213.709131,111.581949 213.845656,112.267992 214.028079,112.937293 C214.365308,114.172326 214.919966,115.375433 215.714612,116.380747 C215.893923,116.608909 216.083736,116.823054 216.290663,117.027076 C216.506147,117.238496 216.753915,117.419546 216.997015,117.595923 C217.50772,117.965421 218.107886,118.232908 218.709219,118.410843 C219.031668,118.507014 219.374731,118.538941 219.709237,118.567753 C220.019238,118.593451 220.331963,118.58761 220.641964,118.567753 C220.97647,118.544781 221.312143,118.491829 221.640426,118.423302 C222.011105,118.345821 222.358836,118.196698 222.700733,118.039788 C223.243333,117.790601 223.665744,117.381389 224.023976,116.914552 C224.391933,116.433699 224.700379,115.892496 224.957093,115.344674 C225.13018,114.975176 225.274485,114.593608 225.409843,114.208926 C225.484134,113.992834 225.567761,113.776742 225.634662,113.556367 C225.707787,113.314578 225.780522,113.071231 225.853647,112.827884 C226.020511,112.271107 226.113473,111.708489 226.18932,111.133412 C226.27139,110.51901 226.285004,109.887866 226.234828,109.270349 C226.181541,108.590536 226.026734,107.922792 225.865705,107.262836 C225.684838,106.520336 225.425012,105.801198 225.174133,105.08167 C225.111899,104.902177 225.034496,104.728914 224.960204,104.552537 C224.799175,104.169022 224.650203,103.776942 224.447943,103.413284 C224.136775,102.85495 223.642795,102.45664 223.112642,102.119069 C222.869541,101.963716 222.605048,101.839123 222.348334,101.709857 C222.046112,101.556062 221.732999,101.426796 221.41833,101.300645 C221.156948,101.197466 220.889732,101.101295 220.617849,101.033158 C220.284899,100.949447 219.920442,100.931147 219.57699,100.924918 C219.557153,100.924528 219.537316,100.924528 219.517479,100.924528 C219.23276,100.924528 218.944929,100.95373 218.662155,100.970862" id="Fill-24" fill="#161616"></path>
        <path d="M219.818898,105.857807 C219.816251,105.870604 219.813605,105.883686 219.810958,105.896768 C219.813605,105.883686 219.816251,105.870889 219.818898,105.857807 M218.561738,105.000673 C218.597619,105.009761 218.632475,105.0209 218.667074,105.034386 C218.691935,105.049923 218.71577,105.066047 218.738837,105.083343 C218.768823,105.117349 218.796759,105.151941 218.824439,105.187707 C218.829565,105.196208 218.834947,105.20471 218.839816,105.213211 C218.902865,105.463274 218.954123,105.717147 218.990261,105.975711 C218.993849,106.013528 218.996924,106.051052 219,106.08887 C218.995643,106.183266 218.987698,106.277662 218.978471,106.371472 C218.967707,106.451211 218.955661,106.530656 218.941821,106.610102 C218.93157,106.628571 218.920805,106.64704 218.910041,106.665215 C218.855707,106.736745 218.798297,106.803292 218.735761,106.866027 C218.699624,106.893877 218.662717,106.919089 218.623761,106.942541 C218.563532,106.964528 218.503046,106.982411 218.440767,106.997068 C218.428721,106.997948 218.416419,106.999121 218.404117,107 L218.398735,106.999414 C218.393609,106.998241 218.388483,106.997362 218.383613,106.995896 C218.273663,106.820881 218.17294,106.643229 218.091182,106.448279 C218.055301,106.340105 218.026853,106.231344 218.007118,106.117013 C217.99661,105.969262 217.997891,105.82327 218.009937,105.675519 C218.031978,105.542133 218.062221,105.413144 218.102459,105.285621 C218.135265,105.206175 218.171658,105.130248 218.214203,105.056372 C218.223942,105.04406 218.233938,105.03204 218.243933,105.020021 C218.247009,105.019435 218.249828,105.018848 218.25316,105.017969 C218.355677,105.006243 218.458451,104.997448 218.561738,105.000673 M218.538384,102.009954 C218.433655,102.015641 218.333084,102.028723 218.232514,102.050052 C218.096782,102.074509 217.968234,102.126552 217.839685,102.167788 C217.576917,102.251113 217.349689,102.389894 217.125108,102.519858 C216.940225,102.628209 216.773112,102.757036 216.621879,102.895533 C216.354574,102.849462 216.063827,102.937337 215.918265,103.121904 C215.807487,103.261822 215.723552,103.407428 215.63924,103.5573 C215.55228,103.712859 215.475151,103.868418 215.419195,104.031656 C215.369666,104.176693 215.351518,104.329977 215.34131,104.480418 C215.273633,104.613226 215.21503,104.747456 215.166635,104.884815 C215.088372,105.103793 215.054344,105.331586 215.021829,105.555967 C214.967385,105.931357 215.020317,106.311297 215.119375,106.680146 C215.16966,106.868979 215.253973,107.05127 215.360214,107.225599 C215.412768,107.312052 215.475151,107.392249 215.542828,107.469318 C215.563245,107.525342 215.584039,107.581366 215.6037,107.637675 C215.665705,107.815416 215.738297,107.988608 215.874029,108.144167 C216.042277,108.338687 216.271395,108.482018 216.519418,108.616533 C216.683506,108.706399 216.888805,108.766404 217.07331,108.827547 C217.197322,108.869636 217.319821,108.906322 217.449881,108.93732 C217.570868,108.96519 217.720211,108.975144 217.844222,108.985097 C218.073341,109.004151 218.287336,109.007564 218.517589,108.979694 C218.804176,108.945283 219.079043,108.845179 219.324041,108.729718 C219.744848,108.533207 220.10554,108.261903 220.347513,107.936565 C220.464341,107.77873 220.548275,107.603264 220.625404,107.433201 C220.660944,107.351867 220.690057,107.268826 220.71501,107.184647 C220.853011,107.105588 220.982315,107.016859 221.106705,106.926709 C221.18648,106.868979 221.263231,106.807835 221.341495,106.74783 C221.458322,106.657964 221.585358,106.55786 221.672318,106.450077 C221.932439,106.135831 222.020911,105.768119 221.995957,105.402683 C221.967601,104.993735 221.818636,104.589338 221.614849,104.21281 C221.429966,103.870693 221.201226,103.5573 220.914638,103.257556 C220.629563,102.957529 220.313486,102.685371 219.956197,102.434258 C219.789462,102.31766 219.606091,102.214427 219.402304,102.141056 C219.157306,102.054318 218.917979,102.007678 218.646137,102 C218.610598,102.003413 218.573924,102.006541 218.538384,102.009954" id="Fill-26" fill="#161616"></path>
        <path d="M249.888478,104.88988 C249.890486,104.902214 249.892047,104.914547 249.893162,104.926881 C249.891824,104.914547 249.890263,104.902214 249.888478,104.88988 L249.888478,104.88988 Z M249.691964,104.004561 C249.796546,104.018504 249.89863,104.03582 250,104.05561 C249.726943,104.178174 249.583455,104.402162 249.678757,104.614007 C249.68768,104.630648 249.69589,104.647065 249.702315,104.663932 C249.702672,104.693392 249.701244,104.722178 249.699102,104.751188 C249.6784,104.809884 249.652701,104.867005 249.62129,104.924127 C249.610939,104.93717 249.599874,104.949989 249.588809,104.962583 C249.576316,104.96708 249.564537,104.971578 249.551687,104.976076 C249.507427,104.984622 249.46281,104.992268 249.417479,104.99879 C249.362868,105.000364 249.308614,105.000364 249.253288,104.999014 C249.190111,104.990469 249.12836,104.980574 249.06554,104.968655 C249.06197,104.96753 249.059115,104.966406 249.055545,104.965281 C249.050548,104.959884 249.045908,104.954262 249.041625,104.94864 C249.027347,104.91828 249.015212,104.88792 249.004146,104.856885 C248.997008,104.772777 248.999506,104.689794 249.00843,104.605686 C249.065897,104.418354 249.148349,104.235521 249.248291,104.055161 C249.251861,104.050888 249.255073,104.04639 249.258999,104.042117 C249.281129,104.033796 249.303259,104.0257 249.326103,104.017829 C249.358942,104.011532 249.392137,104.00591 249.425689,104.000738 C249.51528,103.998939 249.603086,104.000513 249.691964,104.004561 L249.691964,104.004561 Z M249.902976,103.88988 C249.898292,103.893625 249.893385,103.897148 249.888478,103.900892 C249.893162,103.897148 249.898292,103.893404 249.902976,103.88988 L249.902976,103.88988 Z M249,102 C248.840625,102.108626 248.690972,102.239617 248.555903,102.367812 C248.394444,102.51877 248.250694,102.688898 248.106944,102.860623 C248.069792,102.90615 248.033681,102.952476 248,103 C248.004514,102.980831 248.009722,102.961262 248.014931,102.942093 C248.153125,102.746406 248.297222,102.554313 248.447222,102.369409 C248.623958,102.232827 248.809028,102.108626 249,102 L249,102 Z M249.861727,102.023891 C250.055337,102.056735 250.245411,102.099075 250.432767,102.157323 C250.486608,102.184009 250.538545,102.212749 250.589667,102.244567 C250.645139,102.290242 250.697893,102.33797 250.747655,102.38929 C250.781917,102.44061 250.812644,102.492957 250.840925,102.547613 C250.90102,102.695671 250.953501,102.846809 251,103 C250.797145,102.81653 250.563562,102.658721 250.337865,102.516821 C250.166825,102.410588 249.965058,102.334378 249.769545,102.280235 C249.516383,102.210183 249.255065,102.22096 249,102.264069 C249.133515,102.215058 249.237661,102.118576 249.290959,102.001053 C249.481305,101.996691 249.671108,102.006185 249.861727,102.023891 L249.861727,102.023891 Z M250.16454,101 C249.931905,101.000881 249.708862,101.019822 249.477119,101.054399 C249.407307,101.065411 249.342847,101.09206 249.278387,101.118929 C249.167758,101.162757 249.06315,101.209227 248.957874,101.261644 C248.887169,101.297763 248.817579,101.335644 248.748659,101.375287 C248.41164,101.566235 248.137966,101.863778 247.89574,102.16066 C247.682288,102.423846 247.491585,102.688793 247.338132,102.989199 C247.238877,103.184331 247.157689,103.396862 247.102821,103.608512 C247.059327,103.773691 247.04193,103.950102 247.025424,104.119686 C247.016726,104.20558 247.008919,104.289931 247.004458,104.376045 C246.987061,104.677111 247.019179,104.98853 247.125571,105.271537 C247.184901,105.429889 247.257167,105.581193 247.352852,105.719723 C247.429579,105.831605 247.519466,105.935778 247.613367,106.033784 C247.721543,106.146547 247.854031,106.235964 247.977597,106.330666 C248.077744,106.406208 248.179006,106.48109 248.285174,106.547382 C248.520485,106.692739 248.772302,106.801097 249.038839,106.875978 C249.166866,106.912098 249.293331,106.949098 249.426488,106.957687 C249.541802,106.965395 249.654662,106.959669 249.767522,106.947336 C249.767745,106.947336 249.767968,106.947336 249.768191,106.947336 C249.950195,106.980151 250.129745,107.000854 250.314425,107 C250.489514,106.998211 250.66728,106.963854 250.8388,106.9328 C251.108906,106.883687 251.358269,106.746037 251.589119,106.604203 C251.748595,106.505977 251.900934,106.395857 252.048142,106.280672 C252.210295,106.152493 252.357504,106.015725 252.471702,105.841075 C252.556236,105.712015 252.631847,105.57877 252.702552,105.441782 C252.777495,105.296424 252.841954,105.142477 252.900392,104.990291 C252.963959,104.82335 252.984033,104.634826 252.99697,104.458634 C253.007453,104.331116 252.988271,104.201395 252.976896,104.073877 C252.960391,103.886453 252.936079,103.699691 252.909091,103.514029 C252.872511,103.259212 252.801807,103.014086 252.72954,102.768079 C252.645007,102.481548 252.538615,102.187309 252.354827,101.948129 C252.063979,101.570419 251.67789,101.287412 251.208383,101.160114 C251.060282,101.11959 250.913743,101.085233 250.762296,101.061226 C250.571371,101.031494 250.367063,101 250.172346,101 L250.16454,101 Z" id="Fill-34" fill="#161616"></path>
        <path d="M236.456678,136.832127 C237.123952,136.828307 237.717645,136.891468 238.268754,137.045238 C238.839921,137.204604 239.304916,137.478038 239.880681,137.934571 L240.716681,138.617059 C240.920986,138.778824 240.993761,138.824422 241.037905,138.83537 L241.051701,138.837848 C241.600737,138.897663 241.997329,139.391234 241.937514,139.940271 C241.877699,140.489307 241.384127,140.885899 240.835091,140.826083 C240.41708,140.780543 240.049929,140.606074 239.650915,140.320951 C239.551094,140.249622 239.451316,140.172915 239.337996,140.081269 L238.825316,139.653821 L238.527685,139.416347 C238.205598,139.171714 237.964556,139.036754 237.731246,138.971656 C237.379338,138.873467 236.96378,138.829257 236.468129,138.832095 L236.172157,138.838529 C235.921163,138.848003 235.649784,138.868153 235.286737,138.901957 L234.312124,138.993153 C233.756579,139.039495 233.504295,139.03975 233.162977,139.002564 C232.613941,138.942749 232.217349,138.449178 232.277164,137.900142 C232.332707,137.390323 232.762253,137.011948 233.262923,137.008387 L233.557208,137.026264 C233.706217,137.030174 233.892575,137.021013 234.200353,136.995054 L235.550895,136.871909 C235.886904,136.846144 236.161825,136.833815 236.456678,136.832127 Z" id="Path-2" fill="#161616" fill-rule="nonzero"></path>
    </g>
</svg>