<svg width="500" height="600" xmlns="http://www.w3.org/2000/svg"><g fill="#161616" fill-rule="evenodd"><path d="M230.3 97.2l-.8.8c-.1.1-.2.2-.3.4 0 .1-.1.1-.1.2h-.1c-.1 0-.2 0-.2.1 0-.1-.1-.1-.1-.2l-.1-.1c-.1 0-.2-.1-.3-.1-.1 0-.2 0-.3.1-.1.1-.2.1-.2.2-.1-.1-.3-.2-.5-.2-.1 0-.3 0-.4.1-.1 0-.1.1-.2.2l-.2.2v-.1c-.2-.2-.4-.4-.7-.6-.2-.2-.5-.2-.8-.2-.3 0-.6.3-.7.5-.1.4.2.8.5.9h.1c.1 0 .2.1.2.1.1 0 .1.1.2.1.1.1.2.2.3.4.1.2.3.3.4.4.1.1.2.1.3.1h.5c.2.2.5.3.7.2.2-.1.2-.2.3-.4 0-.2.1-.3.2-.5 0-.1.1-.2.2-.3.1.2.2.3.4.3.1 0 .2 0 .4-.1.1 0 .1-.1.2-.2.1 0 .2 0 .3-.1l.2-.2c.1-.1.1-.2.2-.3.2-.2.4-.4.6-.7l.6-.6c.2-.2.1-.4 0-.6-.1-.1-.2-.1-.3-.1-.3.2-.4.2-.5.3m9.4-.3c-.1.2-.3.5-.4.7-.1 0-.2.1-.3.2-.2.1-.2.3-.2.5v.2c0 .1.1.3.1.4 0 .1.1.2.2.2.1.2.2.3.4.4.1 0 .2.1.3.1h.2c.1 0 .1.1.2.1.2 0 .4 0 .6.1h.6c.2 0 .4 0 .6-.1.4-.1.7-.1 1.1-.2.5-.1 1-.1 1.5-.2 1.1-.2 2.3-.3 3.4-.4.3 0 .5-.3.5-.6s-.3-.5-.6-.5-.6 0-.8.1c-.1-.1-.1-.2-.3-.2-.1 0-.2-.1-.2-.1 0-.1-.1-.1-.1-.1-.1-.1-.3-.2-.5-.2h-.3c-.1 0-.2 0-.3.1-.2.1-.4.1-.6.2-.1 0-.3.1-.4.1l-.2-.2c-.2-.1-.4-.1-.5 0l-.6.3c-.1.1-.2.1-.4.2h-.1v-.2c0-.2-.2-.3-.4-.4-.1-.1-.2-.1-.3-.1h-.2c-.1 0-.1.1-.2.1s-.2.1-.2.2c-.1.1-.2.1-.2.2l-.9.6c.1-.3.3-.7.5-1 .1-.2 0-.5-.2-.6-.1 0-.1-.1-.2-.1-.4-.1-.5 0-.6.2z"/><path d="M246.6 97.1c-.1.1-.2.2-.2.3-.1.2.1.5.3.6.8.1 1.6.2 2.4.4.4.1.7.1 1.1.2.2 0 .3.1.5.1s.4.1.6.2c.2.1.5-.1.5-.3 0-.1 0-.2-.1-.3-.1-.1-.2-.1-.3-.2-.3-.1-.7-.2-1-.3-.3-.1-.7-.1-1-.2-.8-.1-1.6-.3-2.4-.4h-.1c-.1-.1-.2-.1-.3-.1"/><path d="M238.8 79.8h.8c1.3-.1 2.7-.1 4-.4l.6-.1.6-.1h.2l-.2.2c-.4.4-.7.8-1.1 1.2-.1.1-.2.3-.4.4l-.6.6c-.2.3-.5.6-.7.8-.1.1-.1.2-.1.2l-.1.1-.1.1c0 .1 0 .3-.1.4 0 .4.3.9.6 1.1.3.2.6.2.9.2h.5c.2 0 .5 0 .7-.1.7-.1 1.3-.2 1.9-.3h.3c1-.2 2.1-.3 3.1-.7.9-.4 1.8-.8 2.7-1.3l.5-.3c.6-.3 1.1-.6 1.5-.9 0 .5 0 1 .1 1.5s.1 1.1.3 1.7c.1.2.1.3.2.5s.2.4.4.5c.1.2.5.3.7.4.1 0 .3 0 .4.1 0 .5.1 1.1.1 1.6v.1c.2 1.5.6 2.9 1 4l.2.6.1.2c.1.3.2.7.4 1l.1.4c.1.4.3.9.4 1.3.1.3.2.7.3 1v.1c.2.9.5 1.8.8 2.7.4 1.2.8 2.2 1.1 3.1.1.3.2.6.4.9.3.7.5 1.3.7 2l.9 3v.2c.1.4.2.9.3 1.3.1.5.2.9.2 1.4l.3 2.7c.1.3.2.7.3.9v.1c.1.2.2.5.3.7.1.3.2.5.4.7.2.3.4.5.8.6.1 0 .3.1.5.1s.3 0 .5-.1c.1-.1.3-.1.4-.2.1-.1.2-.1.3-.2l.3-.3c.2-.1.3-.3.5-.4l.1-.1.4-.3.4-.4c.6-.5 1.3-1.1 1.9-1.6.3-.2.5-.4.8-.5-.1.5-.3.9-.4 1.5-.1.2-.1.5-.2.7v.1l-.3.9-.1.4c-.3 1-.6 2.1-.7 3.2l-.3 3.9.4 1.6c-.1.9-.1 1.8-.2 2.6 0 .5-.1 1-.1 1.4-.2 1.1-.4 2.1-.6 2.9h-.2c-.3 0-.6.1-.8.1h-.1c-.3 0-.5.1-.8.1-.7.1-1.4.1-2.1.3-.5.1-1.1.3-1.7.6-.4.2-.8.4-1.3.8-1 .7-1.9 1.4-2.8 2.1-.4.3-.8.7-1.1 1-.3.3-.6.6-.9 1-.4.5-.7 1-1.1 1.7-.2.3-.3.6-.5.9l-.1.1c-.2.3-.3.6-.5.8-.1.1-.2.2-.3.4-.2.2-.3.4-.4.6-.3.4-.7.9-1 1.3-.3.4-.7.9-1 1.3-.1.2-.2.3-.4.5-.1.2-.2.3-.3.5-.2.3-.5.6-.7.8-.2.2-.4.4-.6.7-.1.2-.3.3-.4.5-.3.4-.6.7-.9 1.1-1 1.2-2 2.2-3 3.1-.4.2-.8.5-1.3.7-.3.1-.5.2-.8.3l-.2.1c-.3.1-.7.2-1 .3h-.7c-.3-.1-.5-.1-.8-.2-.1 0-.1-.1-.2-.1-.2-.3-.3-.5-.5-.8-.1-.1-.1-.3-.2-.4-.2-.3-.4-.5-.5-.8v-.1c-.1-.1-.2-.2-.2-.3l-.3-.3c-.1-.1-.3-.2-.4-.3-.1-.1-.3-.2-.5-.2-.7-.3-1.4-.3-2.1-.4h-1.7c-1.4 0-2.6.1-3.7.3-.7.1-1.3.4-1.8.9-.1.1-.3.3-.4.5l-.1.1-.1.1c-.3.3-.6.7-.9 1-.3.2-.6.4-.9.5-.1 0-.3.1-.4.1h-.6c-.2 0-.5-.1-.7-.2-.1 0-.1-.1-.2-.1-.2-.2-.5-.5-.7-.8-.3-.5-.7-1-1-1.5l-.2-.3c-.4-.6-.7-1.3-1-1.9-.2-.5-.4-1-.5-1.5-.2-.6-.4-1.1-.5-1.6-.3-.9-.7-1.8-1-2.7l-.2-.5c-.2-.5-.5-1.1-.8-1.6-.3-.5-.7-1-1.1-1.5-.3-.4-.7-.8-1.1-1.3-.3-.4-.8-.8-1.3-1.2-.3-.2-.6-.3-1-.4-.2 0-.4-.1-.6-.1h-.5c-.4.1-.9.2-1.4.3-.3.1-.5.2-.8.2v-.2c-.1-.7-.2-1.3-.3-2-.2-2.1-.4-4.2-.5-6.4-.1-1.2-.1-2.4-.2-3.4s0-2.1 0-3.1c0-1.1.1-2.3.2-3.4.1-.8.2-1.7.3-2.5l.1-.7.3-3.3c.1-1.1 0-2.2 0-3.2 0-1.1 0-2.4.1-3.7.1-1.4.3-2.9.4-4.4.1-.4.1-.8.3-1.2.4-.3.7-.6 1.1-.8.5-.4 1-.9 1.5-1.3h.1c.5-.4.9-.9 1.3-1.3l.1-.1c.3-.3.5-.6.8-.9l.4-.4c.6-.6 1.1-1.2 1.7-1.8l.3-.3c1.1-1.2 2.3-2.5 3.5-3.8.7-.7 1.3-1.4 2-2l1-1c.6-.6 1.2-1.2 1.7-1.8.6-.6 1.2-1.2 2-1.7.7-.5 1.3-.9 1.9-1.2l.9-.3h.3c1-.1 2.1-.2 3.1-.2h.8c.7 0 1.4 0 2 .1h.9c-.6.1-.6.1-.5.1m28.9-38.6h-.3c-.3.1-.6.2-.9.4-.3.2-.6.3-.9.5-.9.4-1.9.6-2.8.9-.6.1-1.2.3-1.8.4-.5.1-1 .2-1.4.2h-.4c-.4.1-.9.1-1.4.1h-.5c-.5 0-1 .1-1.5.1h-2.1c-.8 0-1.5-.1-2.2-.1-1.2-.1-2.5-.2-3.9-.3h-.4c-.5-.1-1-.1-1.5-.1h-2c-1.1 0-2.5 0-3.9.1-1 .1-2 .2-3 .5l-2.1.6c-.4.1-.9.3-1.3.4l-.5.2c-.2.1-.4.1-.6.2l-.3.1h-.1c-.3.1-.5.2-.8.3-.6.3-1.3.6-1.9.9-.6.3-1.2.6-1.7.9l-.2.1c-1 .5-2 1.2-3 1.9l-.1.1c-.5.4-1.1.8-1.6 1.2-.5.4-1.1.9-1.8 1.4-.7.5-1.3 1.1-1.8 1.6l-.1.1c-.3.3-.6.5-.8.8-.6.5-1.1 1-1.6 1.4-.3.3-.7.6-1.1.8l-.6.1c-1 .8-2 1.5-3 2.1-.3.2-.7.5-1 .7-.2.1-.3.2-.5.3-.2.1-.3.2-.5.3l-.2.1c-.4.2-.8.5-1.3.7-.2.1-.4.2-.7.2l-.2.1c-.5.2-.9.3-1.2.3h-.6c-.1 0-.2 0-.3.1-.4.2-.7.5-.7.9 0 .2.1.4.2.7.1.2.2.5.4.7.2.5.6.9.8 1.2.6.7 1.3 1.3 2.1 1.8.2.1.5.2.7.3l.1.1c.4.1.7.2 1.1.3.3.1.6.1.9.1-.5.4-.9.8-1.3 1.1-.9.6-1.8 1.3-2.9 1.8-.4.2-.8.4-1.1.5l-.6.3c-.3.1-.5.3-.8.4l-.3.1c-.8.3-1.7.7-2.6 1-.1 0-.1 0-.2.1h-.1c-.2.1-.5.1-.7.3-.2.1-.4.3-.5.5-.1.1-.1.2-.2.3v.1c0 .2-.1.3 0 .5.2.6.5 1.1.7 1.5.2.4.5.8.7 1.1.3.5.7.9 1 1.3l.6.6.2.1c.2.2.5.4.7.5.3.2.7.4 1.1.6-.3.3-.6.5-.9.8l-.4.4c-.6.5-1.1 1-1.7 1.4-.5.4-1.1.8-1.7 1.2l-.8.5-.3.2c-1 .6-1.9 1.2-2.9 1.8-.4.2-.5.7-.3 1.1l-.1.1c-.2.2-.3.4-.4.6-.1.1-.1.3-.1.5 0 .4.2.9.6 1.2.2.2.4.3.6.4.2.1.3.1.5.2.1.1.3.2.4.4.2.2.4.4.6.5.3.2.6.5.9.7.4.3.9.5 1.4.7.6.2 1.3.3 1.9.4h.5c-.1.2-.2.3-.3.5-.4.7-.7 1.3-1.1 1.8-.8.9-1.7 1.7-2.7 2.6-.3.4-.8.8-1.3 1.1v.1l-.5.4-.3.2c-.1.1-.2.2-.4.3-.1.1-.2.2-.3.4-.2.2-.2.5-.1.8.1.3.3.6.6.8.3.2.7.2 1 .2h1.2c.6 0 1.2.1 1.7.2.3 0 .6.1.8.1h.1c.3 0 .5 0 .8-.1h.1c.7-.1 1.3-.2 2.1-.3.6-.1 1.1-.3 1.8-.6s1.3-.6 1.9-.9c.6-.3 1.2-.6 1.7-1 .2-.2.5-.3.7-.5-.1.4-.1.8-.2 1.3v.1l-.1.7-.1.9c-.1.5-.1 1.1-.2 1.6v.1c0 .4-.1.8-.1 1.2v4.1c0 .4 0 .8-.1 1.1v.6c0 .4-.1.8-.1 1.1-.1.5-.1.9-.2 1.4v.3c-.3 2-.6 4.1-.7 6.1v.1c-.1 1.1-.1 2.3-.1 3.4 0 .9 0 1.9.1 2.8v.4c.1 1.5.2 3.4.3 5.4.1.9.1 1.8.3 2.7l.3 1.8-.2.2c-.1.2-.2.5-.1.7.1.2.2.4.4.6.1.9.2 1.8.4 2.7l.3 1.5c0 .1.1.3.1.4.1.3.1.7.2 1 .3 1.2.5 2.2.8 3.1.1.3.2.6.3 1 .2.7.4 1.5.7 2.2.3.9.6 1.9 1.1 3.2.4 1.2.9 2.2 1.4 3.1.3.5.6 1 1 1.6.2.4.5.7.7 1.1l.2.2c.2.3.5.7.8 1l.3.3c.3.4.7.9 1.1 1.3l1.3 1.3c.4.3.8.7 1.1 1 .6.5 1.1.8 1.6 1.2.4.3.8.5 1.3.8l.5.3c.8.4 1.6.9 2.4 1.3 1.1.5 2.2 1.1 3.3 1.5.4.2.9.4 1.3.5.3.1.7.2 1 .2h.2c.4.1.8.2 1.2.2l.3.1c1 .2 2.1.3 3.5.4h2.6c.5-.1 1-.1 1.5-.3l.9-.3c.2-.1.4-.1.6-.2.1 0 .2-.1.2-.1.4-.2.9-.3 1.3-.5.1-.1.3-.1.4-.2.4-.2.7-.3 1.1-.5l.4-.2h.1c.4-.2.9-.4 1.3-.6.5-.3 1.1-.6 1.6-.9.4-.2.7-.4 1-.6l.3-.2c.4-.2.7-.4 1-.7l.2-.1.3-.2c.4-.2.7-.5 1.1-.7.4-.3.9-.7 1.4-1.1.1 0 .1-.1.2-.1.1-.1.3-.2.4-.3l.4-.3.4-.3c.9-.8 1.6-1.5 2.2-2.2.7-.9 1.4-1.8 2.1-2.8.7-1.1 1.3-1.9 1.8-2.7.6-1 1.1-1.9 1.6-2.9.4-.7.7-1.3 1-2 .4-.8.8-1.7 1-2.3l1.2-2.7 1.2-2.7c.1-.3.3-.6.4-.9.2-.4.4-.9.6-1.3h.5c.3 0 .7-.1 1-.3.2-.1.3-.2.5-.3h.1l.3-.2c1.1-.6 2.1-1.3 3.1-2.1.6-.4 1.1-.9 1.7-1.4.3-.3.7-.6 1-.9l.4-.3c.6-.5 1-.9 1.4-1.2.4-.4.7-.8 1-1.2l.2-.2c.4-.6.9-1.2 1.5-1.9.3-.4.6-.8.9-1.3l.2-.4c.4-.6.8-1.3 1.2-2 .3-.4.5-.8.8-1.3.6-1 1.3-2 1.9-2.9.7-1 1.3-1.9 2-2.7.8-1.1 1.8-2 2.8-2.8.4-.3.9-.6 1.4-1 .2-.1.4-.2.5-.3l.2-.1c.6-.4 1.1-.8 1.3-1.2.5-.8.5-1.9.5-2.9v-2.7c0-1-.1-2.1-.1-3.1v-.3c0-.6-.1-1.2-.2-1.7v-.4c0-.3-.1-.6-.1-.8l-.1-.6-.1-.6c-.2-1.3-.6-2.6-.8-3.6-.3-1.2-.7-2.6-1.2-4.1-.3-1.1-.8-2.2-1.2-3.5-.3-.8-.5-1.4-.7-2-.2-.6-.4-1.2-.6-1.9-.2-.7-.4-1.5-.5-2.1-.1-.6-.1-1.2-.1-1.7 0-.1 0-.2.1-.2 0 0 0-.1.1-.1.2-.2.5-.5.8-.7h.1c.1-.1.3-.2.5-.3l.2-.1.9-.6c.2-.1.3-.2.5-.3.1 0 .1-.1.2-.1l.2-.1c.2-.1.5-.3.7-.4l1.8-.9.2-.1c.5-.2 1-.5 1.5-.8.3-.2.6-.4.8-.8.1-.2.2-.4.2-.6v-.6c0-.1-.1-.3-.2-.4-.1-.1-.2-.3-.3-.4l-.4-.4c-.6-.5-1.2-1-1.7-1.3-.5-.4-1.1-.8-1.6-1.2l-.1-.1-1.2-.9c-.7-.5-1.4-1.1-2.1-1.6-1.5-1.3-2.8-2.4-3.9-3.6-.6-.6-1.2-1.3-1.7-1.9-.3-.3-.6-.7-.9-1l-.1-.1h6.3c.2 0 .6-.1.8-.2.1-.1.2-.2.4-.3h.1c.2-.2.3-.5.3-.8 0-.3-.2-.6-.3-.8-.2-.3-.5-.5-.8-.7-.1-.1-.2-.1-.3-.2-.2-.2-.5-.4-.7-.5-.5-.4-1.1-.7-1.6-1.1-.6-.4-1.2-.7-1.8-1.1l-.3-.2c-.4-.3-.9-.5-1.3-.8-.3-.2-.6-.3-.9-.5-.3-.2-.6-.3-.9-.5l-.6-.3c-.1 0-.2-.1-.3-.1l-.5-.2-.5-.2c-.3-.2-.7-.3-1-.4l-.2-.1c-.4-.2-.8-.3-1.3-.4-.5-.2-1.1-.3-1.7-.5l-.5-.1c-.5-.1-.9-.2-1.4-.4-1.9-.5-4.1-1-6.3-1.4-.7-.1-1.4-.2-2-.3-.3 0-.7-.1-1-.1-.5-.1-1.1-.2-1.6-.3.3-.2.5-.3.7-.5.8-.6 1.4-1.3 2-1.9.7-.8 1.4-1.7 1.9-2.7.3-.5.5-1.1.7-1.6.1-.2.1-.5.2-.8 0-.4 0-.7-.2-.9-.1-.1-.1-.2-.2-.3-.1-.1-.2-.2-.4-.2h-1.7"/><path d="M215.3 95.9c-.2.1-.3.3-.5.5-.1.1-.2.2-.3.4.2-.2.5-.4.7-.7l.1-.1c-.1 0 0 0 0-.1.1 0 .2-.1.2-.2-.1.1-.1.2-.2.2m55 1c-.3.1-.7.1-1 .3-.2.1-.5.3-.7.4-.6.4-1.2.8-1.7 1.2-.7.5-1.2 1.2-1.6 1.9-.3.5-.6 1-.6 1.5v.3c.1.2.2.4.3.5.2.2.4.4.7.4.4.1.9.2 1.3.2.8 0 1.5-.1 2.3-.2.7-.1 1.3-.2 2-.3 1.6-.2 3.1-.3 4.7-.3.6 0 1.2-.5 1.2-1.2 0-.6-.5-1.2-1.2-1.2-1.2 0-2.5.1-3.7.2-1.3.1-2.7.4-4 .6-.2 0-.5 0-.7.1.3-.4.7-.7 1-1l.9-.6c.2-.2.5-.3.7-.4.2-.1.4-.1.6-.1.3 0 .6-.3.7-.5.2-.3.2-.6.1-.9-.1-.3-.3-.5-.5-.7-.2-.1-.4-.2-.6-.2h-.2m-25.4-.7c-.6 0-1.3.1-1.9.2-.4 0-.8.1-1.2.2-.3 0-.6.1-.9.2-.3 0-.5.1-.8.1-.1 0-.3 0-.4.1-.5.1-.9.2-1.4.3-.3.1-.4.3-.3.6.1.3.3.4.6.3.3-.1.6-.2.9-.2.2 0 .4-.1.5-.1l1.5-.3c.2 0 .5-.1.7-.1.2 0 .5-.1.7-.1.3 0 .7-.1 1-.1h2.3c.3 0 .6 0 .9.1.3 0 .5.1.8.1.4.1.7.1 1.1.2.4.1.8.1 1.2.2.2.1.4.1.6.2.2.1.4.1.7.2.4.1.7.3 1.1.4.4.2.7.3 1.1.5.4.2.7.4 1 .6.4.2.7.5 1 .8.4.3.8.5 1.2.6.2.1.5-.1.6-.2.1-.3 0-.5-.2-.7-.1 0-.1-.1-.2-.1-.4-.4-.9-.7-1.3-1.1-.3-.2-.5-.4-.8-.6-.2-.1-.5-.3-.7-.4-.3-.1-.6-.3-.9-.4-.3-.1-.6-.3-1-.4l-.9-.3c-.3-.1-.6-.2-1-.2-.3-.1-.6-.1-.8-.2-.3-.1-.6-.1-1-.1-.6-.1-1.2-.1-1.8-.2-.5 0-1-.1-1.5-.1-.2-.1-.3 0-.5 0m-19.1 1.6c-.6.1-1.2.1-1.8.3-.6.1-1.1.2-1.7.3-.6.1-1.1.3-1.7.4-.5.1-1 .3-1.6.5-.5.2-1 .4-1.6.6-.3.1-.5.2-.8.4-.3.1-.5.2-.8.4-.2.1-.5.3-.7.4-.2.1-.5.3-.7.5-.3.2-.7.5-1 .7v.4c0 .3-.1.5-.1.8.1 0 .2-.1.2-.1.2-.1.3-.1.5-.2.1-.1.2-.2.4-.3.7-.5 1.4-.9 2.2-1.3.4-.2.9-.4 1.3-.7.4-.2.7-.3 1.1-.5.3-.1.5-.2.8-.3.2-.1.5-.2.8-.2.5-.2 1-.3 1.5-.4l3-.6c.5-.1.9-.1 1.4-.2 1.2-.1 2.4-.1 3.6 0 .3 0 .5-.2.5-.5 0-.1-.1-.2-.1-.3-.1-.1-.2-.1-.3-.1-.6 0-1.2-.1-1.8-.1-1-.1-1.8 0-2.6.1"/><path d="M220.9 99.5v-.2c0-.1 0-.1-.1-.2l.2-.2h.4l-.1.1c-.1.1-.2.3-.3.4 0 .1 0 .1-.1.1.1 0 .1 0 0 0m6.9-2.7c-.1 0-.3 0-.4.1-.1 0-.1 0-.1.1 0 0-.1 0-.1-.1h-.6c-.2 0-.3.1-.5.2-.1 0-.2.1-.3.2h-.1c-.2-.1-.3-.1-.5-.1s-.3.1-.5.1c-.1 0-.1.1-.2.1-.1-.1-.2-.1-.3-.2-.3-.1-.7 0-.9.2-.1.1-.3.2-.4.3l-.2.2h-.1c-.1 0-.2.1-.2.1-.1.1-.2.1-.3.2-.3-.2-.5-.2-.8-.2-.1 0-.3 0-.4.1-.1 0-.1.1-.2.1s-.1.1-.2.1c-.1.1-.2.2-.3.2h-.3c-.3 0-.6.2-.8.4-.1 0-.2-.1-.3-.1-.2 0-.3 0-.5.1-.3.1-.5.3-.8.4l-.1.1c-.1 0-.2.1-.4.2s-.5.3-.7.5c-.1.1-.2.2-.3.4h-.1c-.3 0-.7.1-1 .3-.1.1-.3.2-.4.3l-.3.3-.2.2s-.1 0-.1.1c-.3.2-.5.5-.6.7v.2c0 .3-.1.5-.1.8.1 0 .2-.1.2-.1.4-.1.7-.2 1.1-.3l.2-.1c.1-.1.2-.1.3-.2 0-.1.1-.3.1-.4v-.3c.1-.1.1-.1.2-.1.1-.1.2-.1.3-.2v.1c0 .1 0 .2.1.3 0 .1.1.2.2.2.2.1.4.1.6 0 .1 0 .3-.1.4-.2l.3-.3h.2c.1 0 .3-.1.4-.2.1-.1.2-.2.4-.3 0 0 .1 0 .1-.1l.1.1c.1.1.3.2.4.2.2 0 .3-.1.5-.2l.1-.1h.3c.1 0 .2 0 .2-.1.3-.1.5-.3.7-.5.1-.1.2-.2.3-.4v.1c.1.1.2.2.4.2.3 0 .6-.2.7-.4.1-.1.1-.2.2-.3 0 0 .1 0 .1.1.1 0 .1.1.2.1h.5c.1 0 .3-.1.4-.2l.1-.1c.3.2.7.1.9 0l.1-.1c.1.1.3.2.4.2.1 0 .2 0 .2-.1.1 0 .2-.1.2-.1.1-.1.3-.2.4-.2.1-.1.2-.1.2-.2 0 .1 0 .1.1.2.1.2.3.3.5.3s.4-.1.5-.2c.1 0 .1-.1.2-.1l.1.1c.2.1.5 0 .7-.1.1-.1.2-.2.2-.3.1.1.3.2.4.2.1 0 .2 0 .3-.1.1 0 .1 0 .1-.1l.1.1s.1 0 .1.1h.3c.1.1.2.1.4 0s.3-.5.3-.7v-.1s0-.1.1-.1c0-.1.1-.1.1-.1.1-.1.2-.2.1-.4-.1-.1-.2-.2-.4-.1 0-.1-.1-.1-.2-.1v-.1l-.3-.3c-.1 0-.2-.1-.3-.1h-.2c-.1 0-.2.1-.3.1h-.6l-.3-.3c-.1 0-.1-.1-.2-.1.2-.1.2-.1.1-.1m11.7.7l.3-.3.1-.1c-.1.1-.1.2-.2.3-.1.1-.2.2-.2.3l-.1.1c0-.1 0-.2.1-.3zm3.2-.7c0-.1.1-.1.2-.2-.1.1-.1.2-.2.2zm3.3-1.5c-.1 0-.2 0-.3.1-.1 0-.2.1-.3.1 0 0-.1 0-.1.1 0 0-.1 0-.1-.1-.1 0-.1-.1-.2-.1h-.6c-.2 0-.3.1-.5.2-.1 0-.1.1-.2.1-.2-.1-.5-.1-.7-.1-.3 0-.6.2-.9.4h-.1c-.2 0-.3 0-.5.1-.3.1-.5.3-.7.5-.1-.2-.4-.3-.7-.3h-.1l-.1-.1s-.1-.1-.2-.1c-.3 0-.6.2-.8.4l-.6.6c-.1.1-.1.3-.2.4-.1.2-.1.3-.1.5 0 .3.2.5.4.6.1.1.3.1.4.1h.3c.3.1.6.1 1 .1.3 0 .6-.2.9-.3h.5c.3 0 .6-.1.8-.3h.1c.2 0 .3 0 .5-.1.1 0 .2.1.3.1.4.1.8 0 1.1-.1.2-.1.4-.1.6-.2.1 0 .3 0 .4.1h.5c.2 0 .4-.1.5-.1.1 0 .3-.1.4-.1h.4c.1.1.1.1.2.1.1.1.3.1.5.2.2 0 .4.1.5.1h.4c.1.1.3.1.4.2.2.1.3.1.5.1h.7s.1 0 .1.1c.1.1.3.1.5.2.2 0 .4.1.6.1.1.2.2.3.4.4.3.2.6.2.9.3.3 0 .6.1.9 0 .1.1.1.2.2.3.2.2.5.4.8.5.2.1.5.1.7.2.1.2.3.3.4.4.1.1.2.1.4.2s.4.1.5.2c.2.1.5.3.7.5.3.2.5.4.7.7l.2.2s.1 0 .1-.1c.1-.1.1-.2.2-.3 0-.2 0-.4-.1-.5-.1-.1-.2-.2-.4-.2h-.3c.1-.1.2-.1.3-.1.2 0 .3-.2.3-.4 0-.3-.2-.4-.4-.4h-.4c-.2 0-.3-.1-.5-.1-.1 0-.2-.1-.3-.1.1-.1.1-.1.1-.2.1-.2 0-.4-.2-.5-.1-.1-.2-.1-.3-.1h-.9c-.2 0-.4-.1-.6-.2h.1c.1 0 .2-.1.2-.2.1-.1.1-.3.1-.5-.1-.2-.2-.3-.4-.4h-.5c-.1 0-.3.1-.4.1-.1 0-.2.1-.2.2h-.8c.1-.1.3-.1.4-.2.1-.1.2-.1.3-.2.1-.1.1-.1.1-.2v-.4c0-.1-.1-.2-.1-.2s-.1-.1-.2-.1-.2-.1-.3-.1h-.2c-.3 0-.6.1-.9.3 0-.1 0-.2.1-.3v-.2c0-.1-.1-.2-.1-.2-.1-.1-.3-.2-.4-.3h-.5c0-.1-.1-.2-.2-.3-.1-.1-.3-.2-.5-.3h-.6c-.1 0-.1 0-.2.1 0 0 0-.1-.1-.1-.1-.1-.2-.1-.3-.1-.1 0-.1-.1-.2-.1h-.3c-.1 0-.2 0-.3.1-.1 0-.2.1-.3.1-.2.1-.3.2-.5.3-.1-.1-.2-.1-.3-.1h-.6c-.1 0-.2.1-.3.1 0-.1-.1-.2-.1-.2s0-.1-.1-.1c-.1-.1-.2-.1-.3-.1-.1 0-.2-.1-.3-.1.4-.6.3-.6.3-.6zm2.1 9.1c-.9.1-1.9.2-2.8.3-.9.1-1.8.3-2.6.6s-1.6.7-2.4 1.1c-.4.2-.6.8-.3 1.2.3.4.8.5 1.2.3.4-.2.9-.4 1.3-.6.6-.2 1.2-.4 1.9-.6.6-.1 1.3-.3 1.9-.3.8-.1 1.7-.2 2.5-.2s1.6 0 2.4.1c.8.1 1.5.3 2.3.6.2.1.5.1.7.2.3.1.6.2 1 .2.3 0 .7-.2.8-.6.1-.3-.1-.7-.4-.9-.1-.1-.2-.1-.4-.2s-.4-.2-.6-.2c-.3-.1-.5-.2-.8-.3-.3-.1-.6-.2-1-.3-.7-.2-1.4-.3-2.2-.4h-.8c-.6-.1-1.2-.1-1.7 0"/><path d="M248.4 107.9c.1.1.2.1.3.2.1.1.2.1.2.2v.6c0 .1 0 .2-.1.3-.1.1-.1.3-.2.4l-.2.2h-.2c-.1 0-.2 0-.3-.1-.1 0-.1-.1-.2-.1l-.1-.1s0-.1-.1-.1v-.4c0-.1 0-.2.1-.2.1-.1.1-.2.2-.3.1-.2.3-.3.5-.5 0 0 0-.1.1-.1m-.8-2.3c-.5 0-.9.2-1.3.3-.2.1-.5.1-.7.2-.4.1-.6.5-.5.8 0 .1 0 .1.1.2-.1.2-.2.4-.2.5-.2.4-.3.8-.3 1.2-.1.4-.1.8 0 1.3 0 .2.1.4.2.6l.3.6c.5.7 1.3 1.1 2.1 1.3.2.1.4.1.6.1.2 0 .4 0 .6-.1.4-.1.8-.2 1.1-.4.2-.1.3-.2.4-.3.2-.1.4-.3.5-.5.2-.2.3-.5.3-.7.2-.3.3-.5.4-.8.2-.4.2-.9.2-1.3-.1-.4-.3-.8-.5-1.2-.1-.2-.2-.3-.4-.5-.1-.2-.3-.3-.4-.5-.1-.1-.3-.3-.5-.4l-.6-.3c-.2-.1-.4-.1-.6-.1h-.8c.1 0 .1 0 0 0"/><path d="M247.3 112.1c-.4.1-.8.1-1.2.2-.2.1-.4.1-.6.2-.2.1-.4.1-.5.2-.1 0-.2.1-.3.2-.1.1-.1.2 0 .4s.3.4.6.3c.2-.1.4-.1.5-.2.2-.1.4-.1.6-.2.4-.1.8-.2 1.3-.2 1.1-.1 2.2-.2 3.4-.1h-.1c.2 0 .4.1.6.1.3.1.6.1.9.2.1 0 .3 0 .4-.1.1-.1.2-.2.2-.3.1-.3-.1-.6-.4-.6-.4-.1-.7-.1-1.1-.2-.2 0-.3 0-.5-.1H250c-1 0-1.8.1-2.7.2m-23.8-6.2c-.4 0-.8 0-1.2.1-.2 0-.4 0-.7.1-.6.1-1.2.1-1.8.3-.5.1-1 .3-1.5.4-.5.1-.9.3-1.3.5-.4.1-.7.3-1.1.4-.7.3-1.3.7-1.9 1-.1.1-.3.2-.4.3-.2.1-.3.3-.4.5-.1.2 0 .5.1.7.2.4.8.6 1.2.3.4-.3.8-.5 1.2-.8l1.2-.6c.6-.2 1.2-.5 1.8-.6.3-.1.7-.2 1-.3.3-.1.6-.1.9-.2.4 0 .9-.1 1.3-.1h.8c.5 0 1 0 1.5.1.2 0 .3.1.5.1.4.1.8.2 1.1.3.4.1.7.2 1 .4.5.2.9.4 1.4.6.4.2.8.3 1.2.4.4.1.9-.1 1.1-.4.3-.5.1-1-.3-1.3-.3-.2-.7-.4-1.1-.5-.5-.2-1-.5-1.5-.7-.2-.1-.5-.2-.7-.3-.3-.1-.6-.2-.8-.3-.4-.1-.9-.2-1.3-.2-.4-.2-.8-.2-1.3-.2z"/><path d="M223.9 109.8c.1.1.2.2.4.2 0 0 .1 0 .1.1l.1.1s0 .1.1.1v.6s-.1 0-.1.1c-.2.1-.3.1-.5.1h-.4c-.1 0-.2-.1-.3-.1-.2 0-.3 0-.3-.1v-.3c0-.1.1-.2.1-.3 0-.1.1-.1.1-.2l.1-.1c.1 0 .1-.1.2-.1h.2c0-.1.1-.1.2-.1m-1.6-2.8h-.3c-.1 0-.2.1-.3.1-.2.1-.4.3-.5.4l-.2.2c-.1.1-.2.1-.3.2-.4.3-.7.7-.8 1.2 0 .1-.1.1-.1.2-.2.3-.3.5-.4.8-.1.2-.1.5-.1.8 0 .3 0 .5.1.8.1.5.5 1 .9 1.4.2.2.5.4.8.6.2.1.4.3.6.3.1.1.3.1.4.2.1 0 .3.1.5.1.6.1 1.1 0 1.6-.1s.9-.3 1.3-.6c.5-.3.9-.7 1.2-1.2.1-.2.2-.4.3-.7.1-.2.1-.4.2-.6.1-.2.1-.5.2-.7v-.4c0-.1-.1-.2-.1-.4 0-.1-.1-.2-.2-.3-.1-.1-.1-.2-.2-.2-.1-.1-.1-.2-.2-.3-.1-.2-.3-.4-.5-.5-.3-.2-.6-.4-.9-.5-.2-.1-.5-.2-.7-.3-.3-.1-.6-.1-.9-.2h-.7l-.1-.1c-.1 0-.2-.1-.2-.1-.3-.1-.4-.1-.4-.1"/><path d="M227.3 113c-1.2.2-2.5.2-3.7.4-.7.1-1.4.2-2 .3l-1.8.3c-.3.1-.7.1-1 .2-.3.1-.4.4-.3.6.1.3.3.4.6.3.4-.1.8-.2 1.3-.2.3-.1.6-.1 1-.2.6-.1 1.3-.2 1.9-.2h-.1c.4 0 .8-.1 1.2-.1.3 0 .7 0 1-.1h.7c.1.1.2.1.4.1h.5c.1 0 .3 0 .4-.1h.1c.1 0 .2-.1.3-.1.1-.1.2-.1.2-.2.1-.1.1-.3.1-.5 0-.1-.1-.2-.2-.3-.2-.1-.4-.2-.6-.2m4.2-13.3c-.3.1-.5.4-.4.7.2.7.3 1.4.4 2 .1 1 .2 1.9.2 2.9 0 .8 0 1.6-.1 2.4-.1 1.7-.2 3.4-.4 5.1-.1.4-.1.7-.2 1.1-.1.4-.1.8-.2 1.2-.1.8-.3 1.7-.4 2.5-.1.4-.1.8-.2 1.2-.2.5-.2.9-.3 1.2l-.6 2.4c-.3 1-.6 2.1-.7 3.2v.2c0 .4.2.7.4 1 .5.6 1.3.8 2.1.8.6 0 1.3-.1 1.9-.1.2 0 .4-.1.6-.2.2-.2.2-.4.2-.6 0-.2-.1-.4-.2-.6-.2-.2-.4-.2-.6-.2h-2.2c-.1 0-.2 0-.3-.1v-.2c.1-.4.1-.7.2-1.1l.3-1.2c.2-.8.4-1.5.6-2.3.2-.8.3-1.6.5-2.4.1-.8.3-1.6.4-2.4.1-.8.3-1.7.4-2.5.1-.9.2-1.7.2-2.6 0-.7.1-1.5.1-2.2v-2.5c0-.6 0-1.3-.1-1.9 0-.4-.1-.8-.1-1.3-.1-.5-.1-1-.2-1.5s-.2-1-.4-1.4c-.1-.3-.3-.4-.6-.4-.2-.2-.3-.2-.3-.2m5.2 39.8l.1.1-.1-.1m-5.7-4.3c-.3 0-.7.1-1 .1-.1 0-.3.1-.4.1-.1 0-.3.1-.4.2-.1.1-.2.1-.3.2-.1.1-.1.3-.1.4 0 .1.1.3.3.3.1.1.3.1.4.1.1-.1.3-.1.4-.2.2 0 .3-.1.5-.1.5-.1 1-.1 1.6 0 .2 0 .5.1.7.1.3 0 .5.1.7.2.5.2.9.5 1.3.8.8.6 1.4 1.4 2 2.2.1.1.1.2.2.3.1.2.4.3.6.3h.3c.2 0 .3-.1.4-.3.1-.1.1-.3.1-.5 0-.1-.1-.2-.2-.3l-.1-.1c-.8-1-1.7-2-2.7-2.8-.5-.4-1.1-.6-1.7-.8-.4-.1-.8-.1-1.2-.2H231"/><path d="M231.2 135.3h-1.4c-.4 0-.8.3-.8.8 0 .4.4.8.8.8.9 0 1.9-.1 2.8 0 .2 0 .3 0 .5.1s.5.1.7.2c.4.2.9.4 1.3.6.4.3.8.5 1.2.7.2.1.3.3.4.4l.4.4c.1.1.1.2.2.3.1.1.2.2.3.2.1.1.2.1.3.2.2.1.4 0 .5-.1.2-.1.3-.2.3-.4.1-.2 0-.4-.1-.5-.1-.2-.1-.4-.2-.5-.1-.2-.3-.4-.4-.5-.1-.2-.3-.3-.4-.5-.2-.2-.3-.4-.5-.5-.3-.3-.7-.5-1.1-.7-.2-.1-.4-.2-.5-.3-.2-.1-.5-.2-.7-.3-.2-.1-.4-.2-.6-.2-.2-.1-.4-.1-.5-.1-.4-.1-.9-.1-1.3-.1h-.3c-.3-.1-.6 0-.9 0m16.8-26.8h.2l.1.1c.1.1.1.2.2.3v.2c-.1.1-.1.2-.2.2 0 0-.1 0-.1.1 0 0-.1 0-.1.1h-.3l-.1-.1c0-.1-.1-.1-.1-.2v-.1s.1-.1.1-.2.1-.2.2-.3c0-.1 0-.1.1-.1-.1 0 0 0 0 0m-.5-1.7h-.1c-.1 0-.2.1-.4.1-.2.1-.3.2-.4.3-.1.1-.2.2-.3.4 0 .1-.1.2-.1.2 0 .1-.1.2-.1.3v.3c0 .1 0 .3.1.4v.2c0 .5.2 1 .6 1.3.2.2.5.3.8.4.1 0 .3 0 .4.1h.5c.1 0 .2-.1.3-.1.1-.1.3-.1.4-.2.2-.1.3-.3.5-.4.1-.1.2-.2.2-.3.1-.1.2-.3.2-.5 0-.1 0-.2.1-.4v-.5c0-.1 0-.2-.1-.2l-.3-.6c-.1-.2-.2-.3-.4-.4l-.3-.3c-.3-.2-.7-.3-1.1-.3-.2.2-.4.2-.5.2m-24.1 3.1h.2c.2.1.3.1.5.2v.7l-.2.2c-.1 0-.1.1-.2.1h-.8v-.6c0-.1.1-.2.2-.3 0-.1.1-.1.1-.2l.1-.1h.1zm-.2-.9c-.2 0-.3.1-.4.1-.1 0-.2.1-.2.1-.1.1-.2.1-.3.2l-.3.3c-.1.1-.2.3-.3.4-.1.2-.1.4-.2.6 0 .2-.1.3 0 .5 0 .1 0 .1.1.2 0 .1.1.2.1.2.1.2.2.3.4.5.1.1.3.2.5.2.2.1.5.1.7.1h.3c.3 0 .5-.1.7-.2.2-.1.5-.3.7-.5.1-.1.2-.3.3-.4.2-.3.2-.7.3-1v-.8c0-.1-.1-.2-.1-.3-.1-.2-.3-.3-.4-.4-.3-.2-.6-.2-.9-.2h-.3c-.4 0-.6.2-.7.4z"/></g></svg>