<svg width="500" height="600" viewBox="0 0 500 600" fill="none" xmlns="http://www.w3.org/2000/svg">
<path fill-rule="evenodd" clip-rule="evenodd" d="M265.2 97.1C264.7 97.2 264.3 97.4 263.8 97.5C263.3 97.7 262.7 97.8 262.2 97.9C260.2 98.4 258.2 98.9 256.2 99.6C256 99.6 255.8 99.7 255.7 99.9C255.4 100.3 255.3 100.9 255.3 101.3C255.3 101.7 255.4 102 255.5 102.3C255.6 102.5 255.9 103.1 256.2 103C257.7 102.5 259.2 102.1 260.7 101.8C261.5 101.6 262.3 101.5 263.1 101.3C263.4 101.2 263.8 101.2 264.1 101.1C264.5 101 264.8 101 265.2 101L265.3 101.1C266.3 102.3 267.2 103.6 267.9 105C269 107.4 269.8 110 270.5 112.6C270.7 113.6 271 114.5 271.1 115.5C271.2 116.5 271.4 117.4 271.5 118.4C271.6 120.5 271.7 122.5 271.6 124.6C271.6 126.5 271.5 128.4 271.3 130.4C271.1 131.9 270.9 133.5 270.7 135C270.4 136.5 270.1 138 269.7 139.4C269 142.3 268.3 145.2 267.5 148.1C267.1 149.6 266.6 151.2 266.2 152.7C265.7 154.3 265.2 155.8 264.7 157.4C263.7 160.4 262.2 163.2 260.9 166.1C260.6 166.8 260.3 167.4 260.1 168.1C259.9 168.5 259.8 168.9 259.6 169.3C259.5 169.6 259.4 170 259.3 170.3C259.2 170.7 259.1 171 259 171.4C258.9 171.9 258.9 172.4 258.9 172.9C258.9 174.2 259.2 175.8 260.3 176.7C260.6 176.9 260.9 177 261.2 177C261.4 177 261.9 176.8 262.1 176.6C262.4 176.4 262.7 176 262.9 175.7C263 175.5 263.2 175.3 263.3 175.2C264 174.4 264.6 173.4 265.2 172.4C265.9 171.2 266.6 170.1 267.3 168.9C268.5 166.8 269.6 164.7 270.6 162.6C271 163.4 271.8 164.2 272.7 163.5C273.6 162.8 274 161.7 274.5 160.7C274.7 160.3 274.9 159.9 275 159.6C275.3 158.9 275.6 158.3 275.8 157.6C276 157 276.3 156.3 276.5 155.7C276.8 155.9 277.2 155.9 277.5 155.6L278.1 155C278.3 154.7 278.5 154.3 278.6 154C278.6 153.9 278.7 153.7 278.7 153.6C278.9 153 279 152.5 279.1 151.9C279.3 151.2 279.4 150.6 279.6 149.9C279.7 149.3 279.9 148.8 280 148.2C280.1 147.5 280.3 146.9 280.4 146.2C280.5 145.4 280.6 144.7 280.7 143.9C280.9 142.9 281 141.8 281 140.7C281.5 138.6 282 136.5 282.6 134.4C283.2 132 283.8 129.6 284.3 127.2C284.4 127 284.4 126.8 284.4 126.6C284.5 126.2 284.5 125.7 284.5 125.2C284.5 124.1 284.3 122.7 283.6 121.7C283.3 121.2 282.9 120.9 282.3 120.9C281.4 120.9 280.8 121.9 280.6 122.7C280.5 123.1 280.4 123.5 280.2 123.9L280 123.7C279.8 123.6 279.6 123.6 279.4 123.5L279.2 123.3C279 123.2 278.8 123.2 278.6 123.1C278.1 123.2 277.7 123.4 277.5 123.8C276.5 125.8 275.7 127.9 274.9 130C274.9 129.6 274.9 129.2 275 128.8C275 128.1 275.1 127.4 275.1 126.6C275.1 125 275 123.4 274.9 121.9C274.8 120 274.7 118 274.4 116.1C274.1 114.2 273.8 112.4 273.3 110.5C272.9 109 272.4 107.6 271.8 106.2C271.2 104.7 270.6 103.2 269.8 101.7C269.1 100.5 268.2 99.4 267.3 98.4C266.9 98 266.6 97.6 266.2 97.2C265.9 96.9 265.5 96.7 265.1 96.7C265.4 97 265.3 97.1 265.2 97.1" fill="#BEBEBE"/>
<path fill-rule="evenodd" clip-rule="evenodd" d="M250.4 96.82H251.2C252.5 96.72 253.8 96.72 255.1 96.42L255.7 96.32L256.3 96.22H256.5L256.3 96.42C255.9 96.82 255.6 97.22 255.2 97.62C255.1 97.72 255 97.92 254.8 98.02L254.2 98.62C254 98.92 253.7 99.22 253.6 99.42C253.5 99.52 253.5 99.62 253.5 99.62L253.4 99.72L253.3 99.82C253.3 99.92 253.3 100.12 253.2 100.22C253.2 100.62 253.5 101.12 253.8 101.32C254.1 101.52 254.3 101.52 254.7 101.52H255.2C255.4 101.52 255.7 101.52 255.9 101.42C256.5 101.32 257.2 101.22 257.8 101.12H258.1C259.1 100.92 260.2 100.82 261.2 100.42C262.1 100.02 263 99.62 263.9 99.12L264.4 98.82C264.9 98.52 265.5 98.22 265.9 97.92C265.9 98.42 265.9 98.92 266 99.42C266.1 99.92 266.1 100.52 266.3 101.12C266.4 101.32 266.4 101.42 266.5 101.62C266.6 101.82 266.7 102.02 266.9 102.12C267 102.32 267.4 102.42 267.6 102.52C267.7 102.52 267.9 102.52 268 102.62C268 103.12 268.1 103.72 268.1 104.22V104.32C268.3 105.72 268.7 107.22 269.1 108.32L269.3 108.92L269.4 109.12C269.5 109.42 269.6 109.82 269.8 110.12L269.9 110.52C270 110.92 270.2 111.42 270.3 111.82C270.4 112.12 270.5 112.52 270.6 112.82V112.92C270.8 113.82 271.1 114.72 271.4 115.62C271.8 116.82 272.2 117.82 272.5 118.72L272.8 119.62C273 120.22 273.3 120.92 273.5 121.62L274.4 124.62V124.82C274.5 125.22 274.6 125.72 274.7 126.12C274.8 126.62 274.9 127.02 274.9 127.52L275.2 130.22C275.3 130.52 275.4 130.92 275.5 131.12V131.22C275.6 131.42 275.7 131.72 275.8 131.92C275.9 132.22 276 132.42 276.2 132.62C276.4 132.92 276.6 133.12 277 133.22C277.1 133.22 277.3 133.32 277.5 133.32C277.7 133.32 277.8 133.32 278 133.22C278.1 133.12 278.3 133.12 278.4 133.02C278.5 132.92 278.6 132.92 278.7 132.82L279 132.52C279.2 132.42 279.3 132.22 279.5 132.12L279.6 132.02L280 131.72L280.4 131.32C281 130.82 281.7 130.22 282.3 129.72C282.6 129.52 282.8 129.32 283.1 129.22C283 129.72 282.8 130.12 282.7 130.72C282.6 130.92 282.6 131.22 282.5 131.42V131.52C282.4 131.82 282.3 132.12 282.3 132.42L282.2 132.82C281.9 133.82 281.6 134.92 281.5 135.92L281.2 139.82L281.1 141.12C281 142.02 281 142.92 280.9 143.72C280.9 144.22 280.8 144.72 280.8 145.12C280.6 146.22 280.5 147.22 280.2 148.02H280C279.7 148.02 279.4 148.12 279.2 148.12H279.1C278.8 148.12 278.6 148.22 278.3 148.22C277.6 148.32 276.9 148.32 276.2 148.52C275.7 148.62 275.1 148.82 274.5 149.12C274.1 149.32 273.7 149.52 273.3 149.92C272.3 150.62 271.4 151.32 270.6 152.02C270.2 152.32 269.8 152.72 269.5 153.02C269.2 153.32 268.9 153.62 268.6 154.02C268.2 154.52 267.9 155.02 267.5 155.72C267.3 156.02 267.2 156.32 267 156.62L267.2 157.12C267.1 157.42 266.9 157.72 266.7 157.92C266.6 158.02 266.5 158.12 266.4 158.32C266.3 158.52 266.1 158.72 266 158.82C265.7 159.22 265.3 159.72 265 160.12C264.7 160.52 264.4 161.02 264 161.42C263.9 161.62 263.8 161.72 263.6 161.92C263.5 162.12 263.4 162.22 263.3 162.42C263.1 162.72 262.8 163.02 262.6 163.22C262.4 163.42 262.2 163.62 262 163.92C261.9 164.12 261.7 164.22 261.6 164.42C261.3 164.82 261 165.12 260.7 165.52C259.7 166.62 258.8 167.72 257.7 168.62C257.3 168.82 256.9 169.12 256.4 169.32C256.1 169.42 255.9 169.52 255.6 169.62L255.4 169.72C255.1 169.82 254.7 169.92 254.4 170.02H253.7C253.4 169.92 253.2 169.92 252.9 169.82C252.8 169.82 252.8 169.72 252.7 169.72C252.5 169.42 252.4 169.22 252.2 168.92C252.1 168.82 252.1 168.62 252 168.52C251.8 168.22 251.6 168.02 251.5 167.72V167.62C251.4 167.52 251.3 167.42 251.3 167.32L251 167.02C250.9 166.92 250.7 166.82 250.6 166.72C250.5 166.62 250.3 166.52 250.1 166.52C249.4 166.22 248.7 166.22 248 166.12H246.3C244.9 166.12 243.7 166.22 242.6 166.42C241.9 166.52 241.3 166.82 240.8 167.32C240.7 167.42 240.5 167.62 240.4 167.82L240.3 167.92L240.2 168.02C239.9 168.32 239.6 168.72 239.3 169.02C239 169.22 238.7 169.42 238.4 169.52C238.3 169.52 238.1 169.62 238 169.62H237.4C237.2 169.62 236.9 169.52 236.7 169.42C236.6 169.42 236.6 169.32 236.5 169.32C236.3 169.12 236 168.82 235.8 168.52C235.5 168.02 235.1 167.52 234.8 167.02L234.6 166.72C234.2 166.12 233.9 165.42 233.6 164.82C233.4 164.32 233.2 163.82 233.1 163.32C232.9 162.72 232.7 162.22 232.6 161.72C232.3 160.82 231.9 159.92 231.6 159.02L231.4 158.52C231.2 158.02 231 157.42 230.6 156.92C230.3 156.42 229.9 155.92 229.5 155.42C229.2 155.02 228.8 154.62 228.4 154.12C228.1 153.72 227.6 153.32 227.1 152.92C226.8 152.72 226.5 152.62 226.1 152.52C225.9 152.52 225.7 152.42 225.5 152.42H225C224.6 152.52 224.1 152.62 223.6 152.72C223.3 152.82 223.1 152.92 222.8 152.92V152.72C222.7 152.02 222.6 151.42 222.5 150.72C222.3 148.62 222.1 146.52 222 144.42C221.9 143.22 221.9 142.02 221.8 141.02C221.7 140.02 221.8 138.92 221.8 137.92C221.8 136.82 221.9 135.62 222 134.52C222.1 133.72 222.2 132.82 222.3 132.02L222.4 131.32L222.7 128.02C222.8 126.92 222.7 125.82 222.7 124.82C222.7 123.72 222.7 122.42 222.8 121.12C222.9 119.72 223.1 118.22 223.2 116.72C223.3 116.32 223.3 115.92 223.5 115.52C223.9 115.22 224.2 114.92 224.6 114.72C225.1 114.32 225.6 113.82 226.1 113.42H226.2L227.5 112.12L227.6 112.02C227.9 111.72 228.1 111.42 228.4 111.12L228.8 110.72C229.4 110.12 229.9 109.52 230.5 108.92L230.8 108.62C231.9 107.42 233.1 106.12 234.2 104.92C234.8 104.22 235.5 103.52 236.2 102.92L237.2 101.92C237.8 101.32 238.4 100.72 238.9 100.12C239.5 99.52 240.1 98.92 240.9 98.42C241.6 97.92 242.2 97.52 242.8 97.22L243.7 96.92H244C245 96.82 246.1 96.72 247.1 96.72H247.9C248.6 96.72 249.3 96.72 249.8 96.82H250.7H250.4V96.82ZM279.1 58.32H278.8C278.5 58.42 278.2 58.52 277.9 58.72C277.6 58.92 277.3 59.02 277 59.12C276.1 59.52 275.1 59.72 274.2 60.02C273.6 60.12 273 60.32 272.4 60.42C271.9 60.52 271.4 60.62 271 60.62H270.6C270.2 60.72 269.7 60.72 269.2 60.72H268.7C268.2 60.72 267.7 60.82 267.3 60.82H265.2C264.4 60.82 263.7 60.72 263 60.72C261.8 60.62 260.5 60.52 259.1 60.42H258.7C258.2 60.32 257.7 60.32 257.2 60.32H255.2C254.1 60.32 252.7 60.32 251.3 60.42C250.3 60.52 249.3 60.62 248.3 60.92L246.2 61.52C245.8 61.62 245.3 61.82 244.9 61.92L244.4 62.12C244.2 62.12 244 62.22 243.8 62.32L243.5 62.42H243.4C243.1 62.52 242.9 62.62 242.6 62.72C242 63.02 241.4 63.32 240.7 63.62C240.1 63.92 239.5 64.22 239 64.52L238.8 64.62C237.8 65.12 236.8 65.82 235.8 66.52L235.7 66.62C235.2 67.02 234.6 67.42 234.1 67.72C233.6 68.12 233 68.62 232.3 69.12C231.6 69.62 231 70.22 230.5 70.72L230.4 70.82L229.6 71.62C229 72.12 228.5 72.62 228 73.02C227.7 73.32 227.3 73.62 226.9 73.82L226.6 74.12C225.6 74.82 224.6 75.62 223.7 76.22C223.4 76.42 223 76.72 222.7 76.92C222.5 77.02 222.4 77.12 222.2 77.22C222 77.32 221.9 77.42 221.7 77.52L221.5 77.62C221.1 77.82 220.7 78.12 220.2 78.32C220 78.42 219.8 78.52 219.5 78.52L219.3 78.62C218.8 78.82 218.5 78.92 218.1 78.92H217.5C217.4 78.92 217.3 78.92 217.2 79.02C216.8 79.22 216.5 79.52 216.5 79.92C216.5 80.12 216.6 80.32 216.7 80.62C216.8 80.82 216.9 81.12 217.1 81.32C217.3 81.82 217.6 82.22 217.9 82.52C218.5 83.22 219.2 83.82 220 84.32C220.2 84.42 220.5 84.52 220.7 84.62L220.8 84.72C221.1 84.82 221.5 84.92 221.9 85.02C222.2 85.12 222.5 85.12 222.8 85.12C222.4 85.52 221.9 85.92 221.5 86.22C220.6 86.82 219.7 87.52 218.7 88.02C218.3 88.22 217.9 88.42 217.6 88.52L217 88.82C216.7 88.92 216.5 89.12 216.2 89.22L215.9 89.32C215.1 89.62 214.2 90.02 213.3 90.32C213.2 90.32 213.2 90.32 213.1 90.42H213C212.8 90.52 212.5 90.52 212.3 90.72C212 90.82 211.9 90.92 211.7 91.12C211.6 91.22 211.6 91.32 211.5 91.42V91.52C211.5 91.72 211.4 91.82 211.5 92.02C211.7 92.62 212 93.12 212.2 93.52C212.4 93.92 212.7 94.32 212.9 94.62C213.2 95.12 213.6 95.52 213.9 95.92L214.5 96.52L214.6 96.62C214.8 96.82 215.1 97.02 215.3 97.12C215.6 97.32 216 97.52 216.4 97.72C216.1 98.02 215.8 98.22 215.5 98.52L215.1 98.92C214.5 99.42 214 99.92 213.4 100.32C212.9 100.72 212.3 101.12 211.7 101.52L211 101.92L210.7 102.12C209.7 102.72 208.8 103.32 207.8 103.92C207.4 104.12 207.3 104.62 207.5 105.02L207.4 105.12C207.2 105.32 207.1 105.52 207 105.72V106.22C207 106.62 207.2 107.12 207.6 107.42C207.8 107.62 208 107.72 208.2 107.82C208.3 107.92 208.5 108.02 208.6 108.02C208.7 108.12 208.9 108.22 209 108.42C209.2 108.62 209.4 108.82 209.6 108.92C209.9 109.12 210.2 109.42 210.5 109.62C211.1 110.12 211.5 110.32 212 110.52C212.6 110.72 213.2 110.82 213.9 110.92H214.4C214.3 111.12 214.2 111.22 214.1 111.42C213.8 112.12 213.4 112.62 213.1 113.12C212.3 114.02 211.4 114.82 210.4 115.72C209.9 116.12 209.5 116.42 209 116.82L208.9 116.92L208.4 117.32L208.1 117.52C208 117.62 207.9 117.72 207.7 117.82C207.6 117.92 207.5 118.02 207.4 118.22C207.2 118.42 207.2 118.72 207.3 119.02C207.4 119.32 207.6 119.62 207.8 119.82C208.1 120.02 208.5 120.02 208.8 120.02H210C210.6 120.02 211.2 120.12 211.7 120.22C212 120.22 212.3 120.32 212.5 120.32H212.6C212.9 120.32 213.1 120.32 213.4 120.22H213.5C214.1 120.12 214.8 120.02 215.6 119.92C216.2 119.82 216.7 119.62 217.4 119.32C218.1 119.02 218.7 118.72 219.3 118.42C219.9 118.12 220.5 117.82 221 117.42C221.2 117.22 221.5 117.12 221.7 116.92C221.6 117.32 221.6 117.72 221.5 118.22V118.32L221.4 119.22L221.3 120.12C221.2 120.62 221.2 121.22 221.1 121.72V121.82C221.1 122.22 221 122.62 221 123.02V127.12C221 127.52 221 127.92 220.9 128.22V128.72C220.9 129.12 220.8 129.52 220.8 129.82C220.7 130.32 220.7 130.72 220.6 131.22V131.52C220.3 133.52 220 135.62 219.9 137.62V137.72C219.8 138.82 219.8 140.02 219.8 141.12C219.8 142.02 219.8 143.02 219.9 143.92V144.32C220 145.82 220.1 147.72 220.2 149.72C220.3 150.62 220.3 151.52 220.5 152.42L220.8 154.22L220.6 154.42C220.5 154.62 220.4 154.92 220.5 155.12C220.6 155.32 220.7 155.52 220.9 155.72C221 156.62 221.1 157.52 221.3 158.42C221.4 158.92 221.5 159.42 221.5 159.92C221.5 160.02 221.6 160.22 221.6 160.32C221.7 160.62 221.7 161.02 221.8 161.32C222.1 162.52 222.3 163.42 222.6 164.42C222.7 164.72 222.8 165.02 222.9 165.42C223.1 166.12 223.3 166.92 223.6 167.62C223.9 168.52 224.2 169.52 224.7 170.82C225.1 172.02 225.6 173.02 226.1 173.92C226.4 174.42 226.7 174.92 227.1 175.52C227.3 175.92 227.6 176.22 227.8 176.62L228 176.82C228.2 177.12 228.5 177.52 228.8 177.82L229.1 178.12C229.4 178.52 229.8 179.02 230.2 179.42L231.5 180.72C231.9 181.02 232.3 181.42 232.6 181.72C233.2 182.22 233.7 182.52 234.2 182.92C234.6 183.22 235 183.42 235.5 183.72L235.9 184.02C236.7 184.42 237.5 184.92 238.3 185.32C239.4 185.82 240.4 186.42 241.5 186.82C241.9 187.02 242.4 187.22 242.8 187.32C243.1 187.42 243.5 187.52 243.8 187.52H244C244.4 187.62 244.8 187.72 245.2 187.72L245.5 187.82C246.5 188.02 247.6 188.12 248.9 188.22H251.3C251.8 188.12 252.3 188.12 252.8 187.92L253.7 187.62C253.9 187.52 254.1 187.52 254.2 187.42C254.3 187.42 254.4 187.32 254.4 187.32C254.8 187.12 255.2 187.02 255.7 186.82C255.8 186.72 256 186.72 256.1 186.62C256.5 186.42 256.8 186.32 257.2 186.12L257.6 185.92H257.7C258.1 185.72 258.5 185.52 259 185.32C259.5 185.02 260.1 184.72 260.6 184.42C260.9 184.22 261.3 184.02 261.6 183.82L261.9 183.62C262.3 183.42 262.6 183.22 262.9 182.92L263.1 182.82L263.4 182.62C263.8 182.42 264.1 182.12 264.5 181.92C264.9 181.62 265.4 181.22 265.9 180.82C266 180.82 266 180.72 266.1 180.72C266.2 180.62 266.4 180.52 266.5 180.42L266.9 180.12L267.3 179.82C268.2 179.02 268.9 178.32 269.4 177.62C270.1 176.72 270.8 175.82 271.5 174.82C272.2 173.82 272.8 172.92 273.3 172.12C273.9 171.12 274.4 170.22 274.9 169.22C275.3 168.52 275.6 167.92 275.9 167.22C276.3 166.42 276.6 165.52 276.9 164.92L278.1 162.22L279.3 159.52C279.4 159.22 279.6 158.92 279.7 158.62C279.9 158.22 280.1 157.72 280.3 157.32H280.8C281.1 157.32 281.5 157.22 281.8 157.02C282 156.92 282.1 156.82 282.3 156.72H282.4L282.7 156.52C283.8 155.92 284.8 155.22 285.7 154.42C286.3 154.02 286.8 153.52 287.4 153.02C287.7 152.72 288.1 152.42 288.4 152.12L288.8 151.82C289.3 151.32 289.8 150.92 290.2 150.62C290.6 150.22 290.9 149.82 291.2 149.42L291.4 149.22C291.8 148.62 292.3 148.02 292.9 147.32C293.2 146.92 293.5 146.52 293.8 146.02L294 145.62C294.4 145.02 294.8 144.32 295.2 143.62C295.5 143.22 295.7 142.82 296 142.32C296.6 141.32 297.3 140.32 297.9 139.42C298.6 138.42 299.2 137.52 299.8 136.72C300.6 135.62 301.6 134.72 302.6 133.92C303 133.62 303.5 133.32 304 132.92C304.2 132.82 304.4 132.72 304.5 132.62L304.7 132.52C305.3 132.12 305.7 131.72 306 131.32C306.5 130.52 306.5 129.42 306.5 128.52V125.82C306.5 124.82 306.4 123.72 306.4 122.72V122.42C306.4 121.82 306.3 121.22 306.2 120.72V120.32C306.2 120.02 306.1 119.72 306.1 119.52L306 118.72L305.9 118.12C305.7 116.82 305.3 115.62 305.1 114.52C304.8 113.32 304.4 111.92 303.9 110.42C303.6 109.32 303.2 108.22 302.7 106.92C302.4 106.12 302.2 105.52 302 104.92C301.8 104.32 301.6 103.72 301.4 103.02C301.2 102.32 301 101.52 300.9 100.92C300.8 100.32 300.8 99.72 300.8 99.22C300.8 99.12 300.8 99.02 300.9 99.02C300.9 99.02 300.9 98.92 301 98.92C301.2 98.72 301.5 98.42 301.8 98.22H301.9C302 98.12 302.2 98.02 302.4 97.92L302.6 97.82L303.5 97.22C303.7 97.12 303.8 97.02 304 96.92C304.1 96.92 304.1 96.82 304.2 96.82L304.4 96.72C304.6 96.62 304.9 96.42 305.1 96.32L306.9 95.42L307.1 95.32C307.6 95.12 308.1 94.82 308.5 94.52C308.8 94.32 309.1 94.12 309.3 93.72C309.4 93.52 309.5 93.32 309.5 93.12V92.52C309.5 92.42 309.4 92.22 309.3 92.12C309.2 92.02 309.1 91.82 309 91.72L308.6 91.32C308 90.82 307.5 90.32 306.9 90.02C306.4 89.62 305.9 89.22 305.3 88.82L305.2 88.72L304 87.82C303.3 87.32 302.6 86.72 301.9 86.22C300.4 85.02 299.2 83.82 298 82.62C297.4 82.02 296.8 81.32 296.3 80.72C296 80.42 295.7 80.02 295.4 79.72L295 79.62H301.1C301.3 79.62 301.7 79.52 301.9 79.42C302 79.32 302.1 79.22 302.3 79.12H302.4C302.6 78.92 302.7 78.62 302.7 78.32C302.7 78.02 302.5 77.72 302.4 77.52C302.2 77.22 301.9 77.02 301.6 76.82C301.5 76.72 301.4 76.72 301.3 76.62C301.1 76.42 300.8 76.32 300.6 76.12C300.1 75.72 299.5 75.42 299 75.02C298.4 74.62 297.8 74.32 297.2 73.92L296.9 73.72C296.5 73.42 296 73.22 295.6 72.92C295.3 72.72 295 72.62 294.7 72.42C294.4 72.22 294.1 72.12 293.8 71.92L293.2 71.62C293.1 71.62 293 71.52 292.9 71.52L292.4 71.32L291.9 71.12C291.6 70.92 291.2 70.82 290.9 70.72L290.7 70.62C290.3 70.42 289.9 70.32 289.5 70.22C289 70.02 288.4 69.92 287.9 69.72L287.4 69.62C286.9 69.52 286.5 69.42 286 69.22C284.1 68.72 281.9 68.22 279.7 67.82C279 67.72 278.3 67.62 277.7 67.52C277.4 67.52 277 67.42 276.7 67.42C276.2 67.32 275.6 67.22 275.1 67.12C275.4 66.92 275.6 66.82 275.8 66.62C276.6 66.02 277.2 65.32 277.8 64.72C278.5 63.92 279.2 63.02 279.7 62.02C280 61.52 280.2 60.92 280.4 60.42C280.5 60.22 280.5 59.92 280.6 59.62C280.6 59.22 280.6 58.92 280.4 58.72C280.3 58.62 280.3 58.52 280.2 58.42C280.1 58.32 280 58.22 279.8 58.22C279.4 58.32 279.2 58.32 279.1 58.32" fill="#161616"/>
<path fill-rule="evenodd" clip-rule="evenodd" d="M259.3 107.92C258.5 107.92 257.6 108.02 256.8 108.12C256.4 108.22 256.1 108.32 255.7 108.42C255.3 108.52 254.9 108.72 254.5 108.92C254.2 109.02 253.9 109.22 253.6 109.42L253 109.72C252.8 109.82 252.6 110.02 252.4 110.12C251.8 110.62 251.2 111.22 250.7 111.82C250.6 112.02 250.5 112.12 250.5 112.32V112.42C250.8 112.22 251.1 112.12 251.4 111.92C251.7 111.72 252 111.62 252.3 111.42C252.6 111.22 253 111.12 253.4 111.02C253.7 110.92 253.9 110.82 254.2 110.82C254.5 110.62 254.9 110.52 255.2 110.32C255.9 110.02 256.6 109.82 257.3 109.72C257.7 109.72 258.2 109.62 258.6 109.62H259.9C260.2 109.72 260.5 109.72 260.8 109.82C261.1 109.92 261.4 110.02 261.6 110.12C261.9 110.32 262.3 110.42 262.6 110.62C263.2 110.92 263.8 111.12 264.3 111.52C264.6 111.72 265 111.82 265.3 112.02C265.7 112.22 266 112.32 266.4 112.52L267 112.82C267.3 112.92 267.5 113.12 267.8 113.32C268 113.42 268.1 113.52 268.3 113.62C268.5 113.72 268.7 113.92 268.8 114.02C268.7 113.82 268.6 113.52 268.5 113.32C268.2 112.72 267.8 112.22 267.5 111.82C267.3 111.62 267.1 111.32 266.9 111.12C266.4 110.52 265.8 110.02 265.1 109.52C264.8 109.32 264.5 109.22 264.2 109.12C264 109.02 263.8 108.92 263.5 108.82C263.1 108.62 262.6 108.42 262.2 108.22C261.7 108.02 261.2 107.92 260.7 107.82C260.4 107.72 260.1 107.72 259.8 107.72C259.8 107.92 259.6 107.92 259.3 107.92C259.4 107.92 259.4 107.92 259.3 107.92" fill="#161616"/>
<path fill-rule="evenodd" clip-rule="evenodd" d="M259.3 107.32C259 107.42 258.9 107.62 258.7 107.82C258.6 107.92 258.5 108.02 258.5 108.12C258.4 108.32 258.2 108.52 258.1 108.62V108.32C258.1 108.22 258.1 108.02 258 107.92L257.7 107.62C257.6 107.52 257.3 107.52 257.2 107.72C257.1 107.82 257 107.92 257 108.02C257 108.12 256.9 108.12 256.9 108.22C256.8 108.32 256.8 108.42 256.7 108.52C256.7 108.62 256.6 108.62 256.6 108.72V108.42C256.6 108.32 256.5 108.22 256.4 108.12C256.3 108.02 256.3 107.92 256.1 107.92H255.7L255.6 108.02C255.5 108.02 255.5 108.12 255.4 108.22C255.3 108.32 255.3 108.42 255.3 108.42C255.2 108.52 255.2 108.62 255.1 108.72C255 108.82 255 108.92 254.9 109.02C254.9 108.92 254.8 108.72 254.8 108.62C254.7 108.52 254.7 108.42 254.5 108.32C254.5 108.32 254.4 108.22 254.3 108.22H254C253.9 108.22 253.7 108.32 253.7 108.42C253.6 108.52 253.6 108.62 253.5 108.72C253.4 108.92 253.4 109.02 253.3 109.22C253.3 109.32 253.2 109.42 253.2 109.52C253.2 109.42 253.1 109.32 253.1 109.12C253.1 109.02 253.1 108.82 253 108.72C252.9 108.62 252.9 108.52 252.8 108.42C252.7 108.32 252.6 108.32 252.5 108.32C252.3 108.32 252.1 108.42 252 108.62C251.9 108.82 251.9 109.02 251.8 109.12C251.8 109.22 251.8 109.32 251.7 109.42C251.7 109.52 251.6 109.72 251.6 109.82C251.5 109.72 251.4 109.72 251.2 109.72C250.9 109.72 250.8 109.92 250.7 110.12C250.6 110.22 250.4 110.32 250.4 110.42C250.3 111.02 250.3 111.52 250.4 112.12V112.52L251.6 111.92C251.9 111.82 252.2 111.62 252.5 111.52V111.12L252.6 111.22C252.7 111.32 252.8 111.32 252.9 111.32C253.1 111.22 253.2 111.12 253.4 111.12C253.6 111.02 253.6 110.82 253.7 110.62C253.8 110.42 253.9 110.32 253.9 110.12V109.92C253.9 110.02 254 110.22 254.1 110.32C254.3 110.52 254.7 110.52 254.9 110.32C255.1 110.12 255.2 109.92 255.4 109.72C255.4 109.82 255.5 110.02 255.6 110.12C255.7 110.32 255.9 110.42 256.1 110.42C256.2 110.42 256.3 110.32 256.4 110.32C256.5 110.22 256.6 110.12 256.6 110.02C256.7 109.82 256.8 109.72 256.9 109.52V109.62C256.9 109.82 256.9 109.92 257.1 110.12C257.2 110.22 257.3 110.32 257.5 110.32H257.7C257.8 110.32 257.9 110.22 258 110.22L258.3 109.92C258.4 109.82 258.5 109.72 258.6 109.52L258.7 109.42V109.62C258.7 109.82 258.7 109.92 258.8 110.12C258.9 110.22 258.9 110.32 259.1 110.32C259.2 110.42 259.4 110.42 259.6 110.42C259.7 110.42 259.8 110.32 259.9 110.32C260 110.22 260.1 110.22 260.2 110.12C260.2 110.12 260.3 110.12 260.3 110.02C260.4 110.12 260.4 110.22 260.5 110.22C260.6 110.32 260.7 110.32 260.9 110.32C261 110.32 261.2 110.32 261.3 110.22C261.4 110.32 261.5 110.42 261.7 110.52C261.9 110.62 262.2 110.52 262.4 110.42C262.6 110.62 262.9 110.72 263.1 110.72C263.1 110.82 263.2 110.92 263.3 111.02L263.5 111.22C263.6 111.22 263.7 111.32 263.8 111.32H264.2C264.2 111.42 264.4 111.62 264.5 111.72L264.7 111.92C264.8 112.02 264.8 112.02 264.9 112.02C265.1 112.12 265.2 112.22 265.4 112.22C265.5 112.22 265.6 112.32 265.7 112.32V112.42C266 112.62 266.4 112.72 266.7 112.92C266.8 112.82 266.9 112.72 266.9 112.62C267 112.32 267 112.02 266.9 111.72C266.9 111.52 266.8 111.42 266.6 111.22C266.5 111.12 266.3 111.02 266.2 110.92C266 110.82 265.8 110.72 265.5 110.62V110.42C265.5 110.22 265.3 110.02 265.1 109.92C265 109.82 264.9 109.82 264.8 109.82C264.8 109.62 264.6 109.32 264.4 109.22C264.2 109.12 264 109.12 263.8 109.12V109.02C263.8 108.72 263.7 108.52 263.4 108.32C263.3 108.12 263.2 108.12 263.1 108.12C263 108.12 262.8 108.12 262.7 108.22C262.6 108.22 262.5 108.32 262.4 108.42C262.3 108.22 262 108.12 261.7 108.02H261.5C261.5 107.92 261.4 107.92 261.4 107.82C261.3 107.72 261.2 107.62 261.1 107.62C260.9 107.52 260.6 107.62 260.4 107.82C260.3 107.92 260.2 108.12 260 108.22C260 108.12 260 107.92 259.9 107.82C259.9 107.72 259.8 107.52 259.6 107.52C259.5 107.42 259.4 107.42 259.3 107.42C259.4 107.32 259.3 107.32 259.3 107.32V107.32Z" fill="#161616"/>
<path fill-rule="evenodd" clip-rule="evenodd" d="M258.5 114.12C257.8 114.12 257 114.22 256.3 114.32C255.5 114.42 254.8 114.82 254.1 115.12C253.4 115.42 252.8 115.92 252.2 116.42C252.1 116.52 251.9 116.62 251.8 116.72C251.7 116.32 251.6 115.92 251.5 115.42C251.4 115.12 251.1 114.92 250.8 114.82C250.7 114.92 250.5 115.02 250.4 115.02C250.3 115.12 250.2 115.12 250.1 115.12C250 115.42 250 115.62 250 115.82L250.3 117.62V118.22C250.3 118.42 250.3 118.52 250.4 118.72C250.5 118.92 250.6 118.92 250.7 119.02C250.9 119.22 251.3 119.22 251.6 119.02L251.9 118.72L252 118.62C252.1 118.52 252.1 118.42 252.2 118.32C252.4 118.12 252.6 117.82 252.8 117.62C253 117.42 253.2 117.22 253.4 117.12C253.7 116.92 253.9 116.72 254.2 116.62C254.5 116.42 254.8 116.32 255.1 116.12C255.4 116.02 255.6 115.92 255.9 115.82C256.2 115.72 256.4 115.72 256.7 115.62C257.6 115.52 258.4 115.52 259.3 115.62C259.7 115.72 260.1 115.72 260.4 115.92C260.8 116.02 261.1 116.22 261.5 116.32C262 116.52 262.5 116.82 262.9 117.02C263.1 116.92 263.3 116.82 263.4 116.82C263.7 116.82 263.9 116.92 264.1 117.12C264.5 117.42 264.8 117.72 265.2 118.12C265.4 118.42 265.6 118.62 265.8 118.92C265.9 119.12 266 119.22 266.1 119.42C266.2 119.72 266.3 119.92 266.3 120.22V120.32C266.4 120.32 266.6 120.32 266.7 120.22C267.1 120.02 267.2 119.52 267 119.12L266.7 118.52L266.4 117.92C266.3 117.72 266.2 117.62 266.1 117.42C265.9 117.12 265.7 116.92 265.5 116.72C265.1 116.42 264.8 116.12 264.4 115.92C264.1 115.72 263.7 115.52 263.4 115.32C262.6 114.92 261.8 114.52 260.9 114.32C260.1 114.12 259.3 114.02 258.5 114.02C258.6 114.12 258.6 114.12 258.5 114.12" fill="#161616"/>
<path fill-rule="evenodd" clip-rule="evenodd" d="M242.4 126.52L242.6 126.32L242.8 126.12C242.9 126.02 242.9 125.92 242.9 125.82C242.9 125.72 242.9 125.62 242.8 125.52C242.7 125.82 242.5 126.22 242.4 126.52" fill="#161616"/>
<path fill-rule="evenodd" clip-rule="evenodd" d="M242.3 126.82C242.5 126.62 242.6 126.42 242.7 126.22C242.8 126.12 242.7 126.02 242.7 125.92C242.6 126.32 242.5 126.62 242.3 126.82" fill="#161616"/>
<path fill-rule="evenodd" clip-rule="evenodd" d="M243.7 116.82C243.8 117.52 244 118.22 243.9 118.82C243.9 119.22 243.8 119.72 243.8 120.12V120.32C243.9 120.82 243.9 121.22 243.9 121.72C243.9 122.22 244 122.72 244 123.12C244 124.12 244 125.22 243.9 126.22C243.9 127.12 243.8 128.12 243.7 129.02C243.7 129.82 243.6 130.62 243.5 131.42C243.4 132.12 243.4 132.82 243.3 133.52C243.2 134.42 243 135.42 242.8 136.32C242.6 137.32 242.4 138.22 242.2 139.22C242.1 139.72 241.9 140.22 241.8 140.62C241.7 141.02 241.6 141.32 241.5 141.72C241.4 142.02 241.3 142.42 241.4 142.72C241.4 142.92 241.6 143.12 241.7 143.22C241.8 143.32 242 143.42 242.1 143.52L242.7 143.82C243 143.92 243.3 144.12 243.7 144.22C244.4 144.32 245.2 144.32 245.9 144.22C246.3 144.12 246.6 144.02 246.9 143.92C247 143.82 247.1 143.82 247.2 143.72C247.5 143.62 247.7 143.42 248 143.22C248.3 143.02 248.5 142.62 248.4 142.22C248.3 142.02 248.2 141.82 248 141.72C247.8 141.62 247.5 141.52 247.3 141.62C246.6 141.92 245.9 142.22 245.1 142.32H244C243.8 142.32 243.6 142.22 243.4 142.12C243.6 141.72 243.7 141.32 243.8 140.92C244 140.42 244.1 140.02 244.2 139.52C244.3 139.02 244.4 138.62 244.5 138.12C244.6 137.62 244.7 137.12 244.8 136.52C245 135.52 245.2 134.52 245.3 133.52C245.4 132.52 245.5 131.62 245.5 130.62C245.5 129.62 245.6 128.62 245.6 127.62V124.72C245.6 124.12 245.6 123.62 245.5 123.02C245.5 122.52 245.4 122.02 245.4 121.62C245.3 121.12 245.2 120.62 245.1 120.02L244.8 118.52C244.8 118.32 244.7 118.12 244.7 117.92V117.22C244.7 116.82 244.4 116.52 244 116.52C244 116.52 243.8 116.62 243.7 116.82" fill="#161616"/>
<path fill-rule="evenodd" clip-rule="evenodd" d="M250.1 159.62H250.2C250.4 159.62 250.7 159.52 250.9 159.52H251.4C251.2 159.72 250.9 159.92 250.7 160.22L250.1 160.52L250 160.62L249.4 160.92C249.2 161.02 249.1 161.02 248.9 161.12C248.2 161.42 247.4 161.72 246.7 161.82C246.5 161.82 246.3 161.82 246.2 161.92H245.5C245.1 161.82 244.8 161.72 244.4 161.62C244.2 161.52 243.9 161.42 243.7 161.22C243.6 161.12 243.5 161.12 243.5 161.02C243.5 161.02 243.5 160.92 243.6 160.82C243.7 160.62 243.7 160.42 243.8 160.22C243.9 160.22 243.9 160.22 244 160.12H247.1C247.7 160.12 248.2 160.02 248.8 159.92L249.3 159.82C249.5 159.72 249.8 159.62 250.1 159.62V159.62ZM246.4 149.62H245.9C245.8 149.62 245.6 149.52 245.5 149.52C245.4 149.52 245.4 149.42 245.3 149.42C245.2 149.12 245.1 148.82 245 148.42C245.3 148.32 245.6 148.22 245.8 148.22C245.9 148.22 246.1 148.12 246.2 148.12C246.5 148.02 246.9 147.92 247.2 147.82L247.7 147.72C248.1 147.62 248.4 147.52 248.8 147.42C248.9 147.42 249 147.42 249.1 147.32L249.3 147.22C249.4 147.32 249.4 147.42 249.5 147.52L249.6 147.72L249.8 147.92L250 148.22C250 148.42 249.9 148.62 249.9 148.82C249.8 148.82 249.8 148.92 249.7 148.92C249.5 149.02 249.4 149.02 249.2 149.02H249.1C249 149.02 248.8 149.12 248.7 149.12L248.4 149.22C248.1 149.32 247.9 149.32 247.6 149.42C247.4 149.42 247.2 149.52 247 149.52C246.9 149.62 246.6 149.62 246.4 149.62V149.62ZM250.1 145.02H249.6C249.5 145.02 249.3 145.02 249.2 145.12C249 145.12 248.7 145.22 248.5 145.32H248.4L247.2 145.62L246.7 145.72C246.3 145.82 246 145.92 245.6 146.02L245.4 146.12C244.6 146.32 243.9 146.52 243.1 146.72C242.5 146.92 242.2 147.42 242.4 148.02C242.5 148.32 242.7 148.52 243 148.72C243 148.92 243.1 149.02 243.1 149.22C243.2 149.42 243.2 149.62 243.3 149.82L243.4 149.92C243.6 150.32 243.7 150.82 243.8 151.22V151.82C243.8 152.12 243.7 152.32 243.6 152.52C243.5 152.82 243.3 153.12 243.1 153.42L242.5 154.32L242.4 154.42L241.5 155.62C241.4 155.82 241.3 156.02 241.2 156.32C241.1 156.52 241 156.82 241 157.02C240.9 157.62 240.9 158.12 241.1 158.52C241.2 158.92 241.4 159.22 241.5 159.62C241.6 159.92 241.7 160.22 241.9 160.42C242 160.62 242.1 160.72 242.2 160.92C242.4 161.12 242.6 161.32 242.9 161.52C243.3 161.82 243.7 162.02 244.1 162.22C244.3 162.32 244.5 162.32 244.7 162.42H244.8C245.2 162.52 245.5 162.52 245.7 162.52H246.3C246.7 162.52 247.1 162.42 247.5 162.42C247.9 162.32 248.2 162.22 248.6 162.12C249.4 161.82 250.1 161.62 250.8 161.32H250.9C251.1 161.22 251.4 161.12 251.6 161.02C251.7 160.92 251.9 160.82 252 160.72L252.1 160.62C252.4 160.42 252.6 160.22 252.8 160.02C252.9 159.92 253.1 159.82 253.1 159.72C253.1 159.62 253.2 159.62 253.2 159.52C253.3 159.42 253.4 159.32 253.5 159.12C253.6 158.92 253.7 158.72 253.8 158.62C253.9 158.42 254 158.12 254.1 157.82C254.2 157.52 254.3 157.12 254.4 156.72C254.5 156.32 254.5 155.82 254.5 155.32V154.22C254.5 153.32 254.3 152.52 254.1 151.62C254 151.32 253.9 150.92 253.8 150.62V150.52C253.7 150.12 253.5 149.82 253.4 149.42L253.3 149.22C253.2 148.92 253 148.52 252.8 148.22C252.7 148.02 252.6 147.92 252.5 147.72C252.4 147.52 252.2 147.32 252.1 147.12C251.8 146.72 251.5 146.42 251.3 146.12V145.62C251.2 145.32 251 145.02 250.6 144.92C250.3 145.12 250.2 145.02 250.1 145.02V145.02Z" fill="#161616"/>
<path fill-rule="evenodd" clip-rule="evenodd" d="M235 109.22C234.3 109.32 233.6 109.52 232.9 109.62C232.6 109.72 232.2 109.82 231.9 109.92C231.7 110.02 231.5 110.02 231.4 110.12C231.2 110.22 231.1 110.22 230.9 110.32C230.5 110.42 230.1 110.62 229.8 110.72C229.5 110.82 229.2 111.02 228.9 111.22C228.8 111.32 228.6 111.42 228.5 111.42C228.3 111.52 228.1 111.72 227.8 111.82C227.6 112.02 227.3 112.12 227.1 112.32C226.8 112.52 226.4 112.82 226.2 113.12C225.8 113.62 225.4 114.12 225.1 114.62C224.9 114.82 224.8 115.12 224.6 115.32C224.5 115.42 224.4 115.52 224.4 115.62V115.72C224.5 115.62 224.7 115.52 224.8 115.52C224.9 115.42 225 115.42 225 115.32C225.4 115.02 225.7 114.82 226.1 114.62C226.1 114.22 226.3 113.92 226.6 113.72C226.8 113.62 226.9 113.52 227.1 113.42C228.1 112.92 229.1 112.52 230.2 112.22C230.3 112.22 230.4 112.12 230.4 112.12C230.7 112.02 231.1 111.82 231.4 111.72C231.7 111.62 232.1 111.52 232.4 111.32C232.7 111.22 233.1 111.12 233.4 111.02C234 110.82 234.6 110.62 235.3 110.52C235.8 110.42 236.4 110.42 236.9 110.42C237.3 110.42 237.7 110.42 238.1 110.52C238.6 110.62 239.1 110.72 239.5 110.82C239.8 110.92 240.1 111.12 240.4 111.32C240.6 111.42 240.7 111.62 240.8 111.72C241.1 111.72 241.4 111.82 241.6 111.92C241.8 112.02 242.1 112.02 242.3 112.12C242.3 112.02 242.3 111.82 242.2 111.62C241.9 111.22 241.6 110.82 241.2 110.52C240.8 110.12 240.4 109.92 239.9 109.62C239.2 109.22 238.4 109.12 237.7 109.02C237.3 108.92 236.9 108.92 236.5 108.92H235.8C235.5 109.22 235.3 109.22 235 109.22" fill="#161616"/>
<path fill-rule="evenodd" clip-rule="evenodd" d="M267 119.32C266.8 119.42 266.8 119.52 266.7 119.72C266.7 119.82 266.6 119.92 266.6 120.02C266.6 120.12 266.7 120.22 266.7 120.42C266.7 120.62 266.7 120.82 266.6 120.92C266.6 121.12 266.6 121.32 266.5 121.52C266.4 121.82 266.3 122.02 266 122.22L265.7 122.52C265.7 122.62 265.6 122.72 265.6 122.82C265.4 122.92 265.1 122.92 264.9 123.02C264.2 123.12 263.6 123.22 262.9 123.22C262.1 123.32 261.3 123.32 260.5 123.32H258.4C257.7 123.32 256.9 123.32 256.2 123.22C256 123.22 255.8 123.22 255.6 123.12H255C254.7 123.12 254.4 123.32 254.4 123.62C254.3 123.92 254.5 124.22 254.7 124.32C254.9 124.42 255.2 124.52 255.5 124.52C255.7 124.52 255.9 124.52 256.1 124.62C256.4 124.62 256.8 124.62 257.1 124.72H259.4C260.2 124.72 260.9 124.72 261.7 124.62C262.4 124.62 263.1 124.52 263.8 124.42C264.2 124.42 264.7 124.32 265.1 124.32C265.3 124.32 265.6 124.22 265.8 124.22C266 124.12 266.3 124.12 266.5 123.92C266.9 123.62 267 123.22 267.1 122.72C267.4 121.82 267.7 120.92 268.1 120.02C268.2 119.82 268.1 119.62 268 119.52C267.9 119.32 267.8 119.22 267.6 119.22H267.4C267.2 119.22 267.1 119.22 267 119.32" fill="#161616"/>
<path fill-rule="evenodd" clip-rule="evenodd" d="M259.7 121.62H259.6H259.7ZM260.1 119.92C260.1 119.92 260.1 120.02 260.1 119.92C260.1 120.02 260.1 119.92 260.1 119.92ZM259.9 119.82H260.1C260.1 119.92 260.1 119.92 260.2 120.02V120.82C260.1 120.92 260 121.12 260 121.22L259.7 121.52C259.7 121.52 259.6 121.52 259.6 121.62H259.4C259.4 121.62 259.3 121.62 259.3 121.52L259.2 121.42C259.2 121.32 259.1 121.32 259.1 121.22C259.1 121.12 259 121.02 259 120.92V120.52C259 120.42 259.1 120.22 259.1 120.12C259.1 120.02 259.2 120.02 259.2 119.92C259.3 119.92 259.4 119.92 259.4 119.82H259.9V119.82ZM260 119.82C260.1 119.82 260.1 119.82 260 119.82C260.1 119.82 260.1 119.82 260 119.82ZM258.8 116.02C258.6 116.02 258.5 116.02 258.3 116.12C258.1 116.12 258 116.22 257.8 116.32C257.5 116.42 257.2 116.72 257 116.92C256.6 117.32 256.3 117.92 256.1 118.42C255.8 119.02 255.6 119.62 255.5 120.22C255.4 120.52 255.4 120.82 255.4 121.12C255.4 121.42 255.4 121.72 255.5 122.02C255.5 122.12 255.6 122.22 255.6 122.32C255.7 122.72 255.8 123.02 256 123.32C256.1 123.62 256.3 123.82 256.5 124.02C256.7 124.22 257 124.42 257.2 124.52L258.1 124.82C258.5 124.92 258.8 124.92 259.2 124.92C259.8 124.92 260.4 124.72 260.9 124.42C261.1 124.32 261.2 124.22 261.3 124.02L261.9 123.72C262.4 123.52 262.7 123.12 262.9 122.62C263 122.42 263 122.22 263.1 121.92C263.1 121.62 263.2 121.22 263.2 120.92V120.12C263.2 119.82 263.1 119.52 263 119.22C262.9 118.82 262.6 118.52 262.4 118.22C262.3 117.92 262.2 117.62 262.1 117.42C262 117.32 261.9 117.12 261.8 117.02L261.5 116.72C261.2 116.52 260.9 116.32 260.6 116.22C260.2 116.02 259.8 116.02 259.3 116.02H258.8" fill="#161616"/>
<path fill-rule="evenodd" clip-rule="evenodd" d="M266.5 119.62H266.4C266.5 119.82 266.6 120.12 266.6 120.42C266.6 120.62 266.6 120.82 266.5 120.92C266.5 121.12 266.5 121.32 266.4 121.52C266.3 121.82 266.2 122.02 265.9 122.22C265.5 122.62 264.9 122.72 264.4 122.72C264.1 122.72 263.9 122.62 263.7 122.42C263.6 122.32 263.5 122.12 263.4 121.92H263.2C262.9 122.02 262.5 122.02 262.2 122.12C261.1 122.22 259.9 122.12 258.8 122.12H254.3C253.9 121.72 253.4 121.62 252.9 121.92C252.6 122.02 252.5 122.32 252.3 122.52C252.1 122.72 252.1 123.12 252.2 123.42C252.3 123.62 252.4 123.82 252.5 123.92C252.6 124.02 252.8 124.12 253 124.22C253.1 124.32 253.3 124.32 253.4 124.42C253.6 124.52 253.9 124.52 254.1 124.52C254.4 124.52 254.7 124.52 255 124.62C255.4 124.62 255.7 124.62 256.1 124.72C256.6 124.72 257.2 124.82 257.7 124.82C258.8 124.92 259.8 124.92 260.9 124.92C261.9 124.82 263 124.62 263.9 124.32C264.4 124.12 264.9 123.92 265.4 123.52C265.5 123.42 265.7 123.32 265.8 123.22C265.9 123.12 266 122.92 266.1 122.82C266.2 122.62 266.3 122.42 266.5 122.22C266.7 122.02 266.8 121.82 267 121.62C267.3 121.32 267.7 120.82 267.5 120.32C267.4 120.12 267.3 119.92 267.1 119.82C267 119.72 266.8 119.72 266.6 119.72C266.7 119.62 266.6 119.62 266.5 119.62" fill="#161616"/>
<path fill-rule="evenodd" clip-rule="evenodd" d="M258.2 118.02C258.2 118.02 258.1 118.02 258.2 118.02C258.1 118.02 258.2 118.02 258.2 118.02ZM258.3 116.42C258 116.42 257.7 116.52 257.5 116.62C257.2 116.72 257 116.82 256.8 117.02C256.5 117.22 256.3 117.42 256 117.72C255.8 118.02 255.6 118.32 255.4 118.52C255.1 118.92 255 119.32 254.9 119.72C254.8 119.92 254.8 120.22 254.8 120.42C254.8 120.52 254.8 120.72 254.9 120.82C254.9 120.92 255 121.12 255 121.22C255.1 121.52 255.2 121.72 255.3 122.02C255.5 122.32 255.8 122.62 256.1 122.72C256.2 122.82 256.4 122.92 256.6 122.92C256.7 122.92 256.9 123.02 257 123.02C257.1 123.02 257.3 123.12 257.4 123.12C257.7 123.22 257.9 123.22 258.2 123.22C258.4 123.22 258.7 123.22 258.9 123.12C259.1 123.02 259.2 122.82 259.3 122.62C259.4 122.22 259.2 121.62 258.7 121.52C258.5 121.52 258.3 121.42 258 121.42C257.7 121.32 257.5 121.32 257.2 121.22C257.1 121.22 257.1 121.12 257 121.12L256.9 121.02C256.8 120.92 256.8 120.82 256.7 120.62C256.7 120.52 256.6 120.42 256.6 120.22V120.02C256.6 119.82 256.7 119.72 256.7 119.52C256.8 119.32 256.9 119.22 257 119.02C257.1 118.82 257.2 118.62 257.4 118.52C257.5 118.42 257.6 118.32 257.7 118.12C257.9 118.02 258.1 117.92 258.2 117.82C258.4 117.72 258.6 117.72 258.7 117.62H259.2C259.6 117.62 260 117.32 260 116.82C260 116.42 259.7 116.12 259.2 116.02H259.1C258.8 116.32 258.6 116.42 258.3 116.42" fill="#161616"/>
<path fill-rule="evenodd" clip-rule="evenodd" d="M252.5 151.62C252.5 151.62 252.5 151.72 252.6 151.72L252.5 151.62ZM243.2 147.02H243C242.8 147.02 242.7 147.02 242.5 147.12C242.2 147.22 242 147.42 241.9 147.62C241.8 147.82 241.8 148.02 241.8 148.22C241.8 148.32 241.8 148.42 241.9 148.52C241.9 148.62 242 148.72 242 148.82C242.1 149.02 242.3 149.32 242.4 149.52L242.7 150.12C242.8 150.42 242.9 150.72 242.9 150.92V151.72C242.8 152.22 242.7 152.62 242.6 153.12C242.4 153.62 242.1 154.12 241.8 154.52C241.6 154.82 241.5 155.02 241.4 155.32C241.2 155.62 241.1 156.02 241 156.42C240.9 156.82 240.8 157.22 240.8 157.62C240.8 158.02 240.7 158.42 240.7 158.82C240.7 159.22 240.7 159.72 240.8 160.12C240.8 160.32 240.9 160.52 241 160.72C241.1 160.82 241.1 161.02 241.2 161.12C241.4 161.52 241.8 161.92 242.2 162.12C242.3 162.22 242.5 162.32 242.6 162.32C242.7 162.32 242.7 162.42 242.8 162.42C243 162.52 243.1 162.62 243.3 162.62C243.7 162.72 244 162.82 244.4 162.92C244.8 163.02 245.2 163.02 245.6 163.12C245.8 163.12 246 163.12 246.2 163.22H246.8C247 163.22 247.1 163.22 247.3 163.12C247.5 163.12 247.8 163.02 248 163.02C248.8 162.82 249.5 162.62 250.2 162.22C250.8 161.82 251.5 161.42 252 160.92L252.8 160.12C253.1 159.82 253.3 159.42 253.5 159.12C253.7 158.72 253.9 158.32 254 158.02C254.1 157.72 254.2 157.42 254.4 157.12C254.6 156.52 254.8 155.82 254.9 155.22C255 154.62 255 154.02 255 153.42C255 153.12 255 152.92 254.9 152.62C254.9 152.32 254.7 152.02 254.6 151.72C254.5 151.42 254.3 151.12 254.1 150.82C253.9 150.42 253.3 150.32 253 150.52C252.8 150.62 252.7 150.82 252.6 151.02V151.22C252.6 151.32 252.6 151.52 252.7 151.62C252.7 151.62 252.7 151.72 252.8 151.72C253 152.22 253.2 152.62 253.2 153.12C253.3 153.62 253.3 154.22 253.2 154.72C253.1 155.12 253.1 155.42 253 155.82C252.9 156.12 252.8 156.52 252.7 156.82C252.6 157.12 252.4 157.52 252.3 157.82C252.1 158.22 251.9 158.52 251.6 158.92C251.2 159.42 250.7 159.92 250.2 160.32C249.8 160.62 249.5 160.82 249.1 161.02C248.8 161.12 248.5 161.22 248.3 161.32C248 161.42 247.7 161.52 247.4 161.52C247 161.52 246.7 161.62 246.3 161.52C245.9 161.52 245.6 161.42 245.2 161.42L244 161.12C243.9 161.02 243.8 160.92 243.6 160.82C243.5 160.72 243.3 160.62 243.2 160.52L243 160.32C242.8 160.12 242.7 159.82 242.6 159.52C242.5 159.22 242.5 159.02 242.4 158.72C242.3 158.12 242.3 157.42 242.4 156.82C242.4 156.52 242.5 156.32 242.6 156.02C242.7 155.72 242.9 155.42 243.1 155.12C243.2 154.92 243.4 154.82 243.5 154.62C243.7 154.42 243.9 154.12 244.1 153.82C244.3 153.52 244.5 153.22 244.6 152.82L244.9 151.92C245 151.52 245 151.22 245 150.82C245 150.42 244.9 150.02 244.7 149.62C244.6 149.32 244.4 148.92 244.2 148.62C244 148.42 243.9 148.22 243.7 148.02H244C244.3 148.02 244.6 147.72 244.6 147.42C244.6 147.12 244.3 146.82 244 146.82H243.8C243.3 147.02 243.3 147.02 243.2 147.02" fill="#161616"/>
<path fill-rule="evenodd" clip-rule="evenodd" d="M249.9 145.72C249.9 146.02 250.2 146.22 250.5 146.32H250.6C250.7 146.32 250.9 146.42 251 146.42C251.1 146.52 251.2 146.52 251.3 146.62L251.9 147.22C252.1 147.52 252.3 147.82 252.4 148.12C252.6 148.42 252.8 148.82 253 149.12C253.2 149.52 253.3 150.02 253.5 150.42C253.6 150.72 253.7 150.92 253.7 151.22C253.8 151.42 253.8 151.72 253.8 151.92C253.8 152.32 253.9 152.82 253.9 153.22V154.52L253.6 155.72C253.5 156.12 253.3 156.62 253.1 157.02C252.9 157.42 252.7 157.72 252.6 158.12L252.3 158.72C252.2 158.92 252.1 159.02 252 159.22C251.8 159.52 251.5 159.82 251.3 160.12C251.1 160.42 250.8 160.62 250.5 160.82C250.3 161.02 250 161.12 249.8 161.22C249.6 161.32 249.5 161.62 249.5 161.92C249.5 162.02 249.6 162.22 249.8 162.32C249.9 162.42 250.1 162.42 250.3 162.42C250.7 162.22 251.1 162.12 251.5 161.82C251.8 161.62 252.2 161.42 252.5 161.12C252.8 160.92 253 160.72 253.2 160.42C253.5 160.12 253.7 159.82 253.9 159.42C254.3 158.82 254.7 158.12 255 157.42C255.3 156.72 255.6 156.02 255.7 155.32C255.8 154.92 255.8 154.52 255.8 154.12C255.8 153.72 255.8 153.32 255.7 152.92C255.7 152.52 255.6 152.12 255.5 151.72C255.4 151.42 255.3 151.02 255.2 150.72C255 150.02 254.6 149.32 254.3 148.72C254.1 148.42 254 148.12 253.8 147.82C253.6 147.52 253.5 147.32 253.3 147.02C253 146.52 252.7 146.12 252.2 145.82C252 145.72 251.8 145.52 251.5 145.42C251.2 145.32 250.8 145.22 250.4 145.22C250.1 145.12 249.9 145.42 249.9 145.72" fill="#161616"/>
<path fill-rule="evenodd" clip-rule="evenodd" d="M233 108.42C232.7 108.52 232.3 108.62 232 108.82C231.8 108.92 231.6 109.02 231.5 109.02C231.2 109.12 231 109.22 230.7 109.32C230.5 109.42 230.3 109.52 230 109.62C229.9 109.72 229.8 109.72 229.6 109.82C229.5 109.92 229.4 109.92 229.3 110.02C229.1 110.22 228.9 110.32 228.6 110.52C228.2 110.82 227.9 111.12 227.5 111.42C227.3 111.52 227.1 111.72 227 111.92C226.8 112.02 226.7 112.22 226.5 112.42C226.3 112.62 226.2 112.82 226 113.02L225.7 113.62C225.6 113.82 225.5 114.02 225.3 114.22C225.2 114.42 225 114.62 224.8 114.82C224.8 114.82 224.8 114.92 224.7 114.92C224.6 115.02 224.6 115.22 224.7 115.42C225 115.22 225.3 115.02 225.7 114.82C225.7 114.42 225.9 114.12 226.2 113.92C226.4 113.82 226.5 113.72 226.7 113.72C226.8 113.62 226.8 113.52 226.9 113.42C227 113.22 227.2 113.12 227.4 112.92C227.6 112.72 227.8 112.52 228 112.42C228.4 112.12 228.8 111.72 229.3 111.42L229.5 111.22C229.6 111.12 229.8 111.02 229.9 110.92V111.02C229.9 111.12 230 111.22 230 111.22C230.3 111.52 230.7 111.52 231.1 111.42C231.3 111.42 231.5 111.32 231.7 111.22C231.8 111.22 231.9 111.12 232 111.02C232.2 110.92 232.4 110.82 232.6 110.62C232.7 110.52 232.9 110.42 233 110.32C233.2 110.32 233.5 110.32 233.7 110.42C233.9 110.42 234 110.32 234.1 110.22C234.2 110.12 234.3 109.92 234.3 109.82V109.72C234.4 109.62 234.5 109.62 234.6 109.52C234.6 109.52 234.7 109.42 234.7 109.32V109.12C234.7 109.02 234.6 108.92 234.6 108.92C234.5 108.82 234.5 108.82 234.4 108.82L233.5 108.52H233.2C233.3 108.32 233.2 108.32 233 108.42" fill="#161616"/>
<path fill-rule="evenodd" clip-rule="evenodd" d="M234.7 108.52C234.6 108.82 234.8 109.12 235.1 109.22C235.8 109.42 236.6 109.62 237.3 109.82C237.7 109.92 238.1 109.92 238.5 110.02C238.9 110.02 239.4 110.12 239.8 109.92C239.9 109.82 240.1 109.82 240.2 109.82H240.3C240.3 109.92 240.4 110.02 240.4 110.02C240.5 110.12 240.5 110.22 240.6 110.22V110.42C240.6 110.62 240.6 110.82 240.7 111.02C240.7 111.12 240.7 111.22 240.8 111.32C240.8 111.42 240.8 111.52 240.9 111.62C241 111.72 241.1 111.82 241.3 111.82C241.4 111.82 241.5 111.82 241.6 111.72C241.7 111.72 241.8 111.62 241.8 111.52C241.8 111.42 241.9 111.32 241.9 111.22C242 111.12 242 111.02 242.1 110.82L242.3 110.32L242.8 109.02V108.72C242.7 108.62 242.7 108.52 242.6 108.52H242.3L242.1 108.72C242 108.92 241.9 109.12 241.9 109.32V109.22C241.9 109.02 241.7 108.92 241.6 108.92H241.3C241.2 108.82 241.1 108.72 241 108.72H240.9C240.8 108.72 240.7 108.62 240.7 108.62H240.3C240.1 108.62 240 108.72 239.9 108.72C239.8 108.72 239.7 108.82 239.6 108.82H238.9C238.4 108.72 237.9 108.62 237.5 108.52C236.9 108.42 236.3 108.22 235.8 108.12H235.6C235 108.12 234.8 108.32 234.7 108.52" fill="#161616"/>
<path fill-rule="evenodd" clip-rule="evenodd" d="M254.8 108.02C254.3 108.12 253.9 108.22 253.4 108.22C253 108.32 252.6 108.32 252.3 108.52C251.9 108.72 251.4 108.82 251.1 109.12C250.8 109.32 250.6 109.52 250.5 109.82C250.4 110.02 250.4 110.22 250.4 110.42C250.4 110.62 250.5 110.82 250.7 111.02C250.8 111.12 251 111.22 251.2 111.22C251.4 111.22 251.5 111.22 251.7 111.12C252 110.92 252.1 110.62 252.2 110.22V110.02L252.8 109.72C253.2 109.52 253.7 109.42 254.1 109.32C254.3 109.22 254.6 109.22 254.8 109.22C255.1 109.12 255.3 109.12 255.6 109.02C255.9 108.92 256.2 108.92 256.5 108.82C256.7 108.82 256.9 108.52 256.9 108.32C256.9 108.02 256.7 107.82 256.4 107.82H256.1C255.7 107.82 255.2 107.92 254.8 108.02" fill="#161616"/>
<path fill-rule="evenodd" clip-rule="evenodd" d="M267.3 119.82C267.3 119.82 267.3 119.92 267.3 119.82C267.3 119.92 267.3 119.92 267.3 119.82C267.3 119.92 267.3 119.92 267.3 119.82ZM262.6 116.02C262.5 116.02 262.4 116.12 262.3 116.22C262.2 116.32 262.2 116.52 262.2 116.62C262.2 116.72 262.3 116.92 262.4 116.92C263.1 117.22 263.7 117.52 264.3 118.02C264.9 118.52 265.4 119.02 265.8 119.62C265.9 119.82 266 120.02 266.2 120.22C266.2 120.32 266.1 120.52 266.1 120.62C266 120.82 266 121.02 265.9 121.22C265.8 121.42 265.8 121.62 265.7 121.72C265.5 121.72 265.4 121.82 265.2 121.82C264.9 121.92 264.6 121.92 264.3 122.02C264 122.12 263.7 122.12 263.4 122.22C263.1 122.32 262.8 122.32 262.5 122.42C262.2 122.42 262 122.52 261.7 122.52C261.4 122.52 261.1 122.62 260.8 122.62L259 122.92C258.8 122.92 258.7 123.12 258.7 123.22C258.7 123.42 258.9 123.62 259.1 123.62H260.3C260.7 123.62 261.1 123.62 261.5 123.52H262.6C263 123.52 263.4 123.42 263.8 123.42C264 123.42 264.2 123.42 264.5 123.32C264.7 123.32 264.9 123.22 265.1 123.22C265.3 123.22 265.5 123.12 265.7 123.12C265.8 123.12 266 123.02 266.1 123.02H266.2C266.4 123.02 266.5 123.02 266.6 122.92C266.8 122.82 267 122.52 267 122.32C267 122.02 267 121.72 267.1 121.52C267.1 121.22 267.2 121.02 267.2 120.72V120.32C267.2 120.22 267.2 120.12 267.1 119.92C267.1 119.82 267.1 119.72 267 119.72C267 119.62 266.9 119.52 266.9 119.42C267.1 119.42 267 119.22 267 119.12C266.9 119.02 266.9 118.92 266.8 118.82C266.7 118.72 266.6 118.52 266.5 118.42C266.3 118.22 266.1 118.02 266 117.82C265.9 117.72 265.8 117.62 265.7 117.62L265.4 117.32C265.2 117.12 264.9 117.02 264.7 116.82C264.2 116.52 263.7 116.22 263.1 116.02C263 116.02 262.9 115.92 262.8 115.92C262.7 116.02 262.6 116.02 262.6 116.02" fill="#161616"/>
<path fill-rule="evenodd" clip-rule="evenodd" d="M233.5 115.12C232.8 115.12 232 115.22 231.3 115.32C230.5 115.42 229.8 115.82 229.1 116.12C228.4 116.42 227.8 116.92 227.2 117.42C227.1 117.52 226.9 117.62 226.8 117.72C226.7 117.32 226.6 116.92 226.5 116.42C226.4 116.12 226.1 115.92 225.8 115.82C225.7 115.92 225.5 116.02 225.4 116.02C225.3 116.12 225.2 116.12 225.1 116.12C225 116.42 225 116.62 225 116.82L225.3 118.62V119.22C225.3 119.42 225.3 119.52 225.4 119.72C225.5 119.92 225.6 119.92 225.7 120.02C225.9 120.22 226.3 120.22 226.6 120.02L226.9 119.72L227 119.62C227.1 119.52 227.1 119.42 227.2 119.32C227.4 119.12 227.6 118.82 227.8 118.62C228 118.42 228.2 118.22 228.4 118.12C228.7 117.92 228.9 117.72 229.2 117.62C229.5 117.42 229.8 117.32 230.1 117.12C230.4 117.02 230.6 116.92 230.9 116.82C231.2 116.72 231.4 116.72 231.7 116.62C232.6 116.52 233.4 116.52 234.3 116.62C234.7 116.72 235.1 116.72 235.4 116.92C235.8 117.02 236.1 117.22 236.5 117.32C237 117.52 237.5 117.82 237.9 118.02C238.1 117.92 238.3 117.82 238.4 117.82C238.7 117.82 238.9 117.92 239.1 118.12C239.5 118.42 239.8 118.72 240.2 119.12C240.4 119.42 240.6 119.62 240.8 119.92C240.9 120.12 241 120.22 241.1 120.42C241.2 120.72 241.3 120.92 241.3 121.22V121.32C241.4 121.32 241.6 121.32 241.7 121.22C242.1 121.02 242.2 120.52 242 120.12L241.7 119.52L241.4 118.92C241.3 118.72 241.2 118.62 241.1 118.42C240.9 118.12 240.7 117.92 240.5 117.72C240.1 117.42 239.8 117.12 239.4 116.92C239.1 116.72 238.7 116.52 238.4 116.32C237.6 115.92 236.8 115.52 235.9 115.32C235.1 115.12 234.3 115.02 233.5 115.02C233.6 115.12 233.6 115.12 233.5 115.12" fill="#161616"/>
<path fill-rule="evenodd" clip-rule="evenodd" d="M242 120.32C241.8 120.42 241.8 120.52 241.7 120.72C241.7 120.82 241.6 120.92 241.6 121.02C241.6 121.12 241.7 121.22 241.7 121.42C241.7 121.62 241.7 121.82 241.6 121.92C241.6 122.12 241.6 122.32 241.5 122.52C241.4 122.82 241.3 123.02 241 123.22L240.7 123.52C240.7 123.62 240.6 123.72 240.6 123.82C240.4 123.92 240.1 123.92 239.9 124.02C239.2 124.12 238.6 124.22 237.9 124.22C237.1 124.32 236.3 124.32 235.5 124.32H233.4C232.7 124.32 231.9 124.32 231.2 124.22C231 124.22 230.8 124.22 230.6 124.12H230C229.7 124.12 229.4 124.32 229.4 124.62C229.3 124.92 229.5 125.22 229.7 125.32C229.9 125.42 230.2 125.52 230.5 125.52C230.7 125.52 230.9 125.52 231.1 125.62C231.4 125.62 231.8 125.62 232.1 125.72H234.4C235.2 125.72 235.9 125.72 236.7 125.62C237.4 125.62 238.1 125.52 238.8 125.42C239.2 125.42 239.7 125.32 240.1 125.32C240.3 125.32 240.6 125.22 240.8 125.22C241 125.12 241.3 125.12 241.5 124.92C241.9 124.62 242 124.22 242.1 123.72C242.4 122.82 242.7 121.92 243.1 121.02C243.2 120.82 243.1 120.62 243 120.52C242.9 120.32 242.8 120.22 242.6 120.22H242.4C242.2 120.22 242.1 120.22 242 120.32" fill="#161616"/>
<path fill-rule="evenodd" clip-rule="evenodd" d="M234.7 122.62H234.6H234.7ZM235.1 120.92C235.1 120.92 235.1 121.02 235.1 120.92C235.1 121.02 235.1 120.92 235.1 120.92ZM234.9 120.82H235.1C235.1 120.92 235.1 120.92 235.2 121.02V121.82C235.1 121.92 235 122.12 235 122.22L234.7 122.52C234.7 122.52 234.6 122.52 234.6 122.62H234.4C234.4 122.62 234.3 122.62 234.3 122.52L234.2 122.42C234.2 122.32 234.1 122.32 234.1 122.22C234.1 122.12 234 122.02 234 121.92V121.52C234 121.42 234.1 121.22 234.1 121.12C234.1 121.02 234.2 121.02 234.2 120.92C234.3 120.92 234.4 120.92 234.4 120.82H234.9V120.82ZM235 120.82C235.1 120.82 235.1 120.82 235 120.82C235.1 120.82 235.1 120.82 235 120.82ZM233.8 117.02C233.6 117.02 233.5 117.02 233.3 117.12C233.1 117.12 233 117.22 232.8 117.32C232.5 117.42 232.2 117.72 232 117.92C231.6 118.32 231.3 118.92 231.1 119.42C230.8 120.02 230.6 120.62 230.5 121.22C230.4 121.52 230.4 121.82 230.4 122.12C230.4 122.42 230.4 122.72 230.5 123.02C230.5 123.12 230.6 123.22 230.6 123.32C230.7 123.72 230.8 124.02 231 124.32C231.1 124.62 231.3 124.82 231.5 125.02C231.7 125.22 232 125.42 232.2 125.52L233.1 125.82C233.5 125.92 233.8 125.92 234.2 125.92C234.8 125.92 235.4 125.72 235.9 125.42C236.1 125.32 236.2 125.22 236.3 125.02L236.9 124.72C237.4 124.52 237.7 124.12 237.9 123.62C238 123.42 238 123.22 238.1 122.92C238.1 122.62 238.2 122.22 238.2 121.92V121.12C238.2 120.82 238.1 120.52 238 120.22C237.9 119.82 237.6 119.52 237.4 119.22C237.3 118.92 237.2 118.62 237.1 118.42C237 118.32 236.9 118.12 236.8 118.02L236.5 117.72C236.2 117.52 235.9 117.32 235.6 117.22C235.2 117.02 234.8 117.02 234.3 117.02H233.8" fill="#161616"/>
<path fill-rule="evenodd" clip-rule="evenodd" d="M241.5 120.62H241.4C241.5 120.82 241.6 121.12 241.6 121.42C241.6 121.62 241.6 121.82 241.5 121.92C241.5 122.12 241.5 122.32 241.4 122.52C241.3 122.82 241.2 123.02 240.9 123.22C240.5 123.62 239.9 123.72 239.4 123.72C239.1 123.72 238.9 123.62 238.7 123.42C238.6 123.32 238.5 123.12 238.4 122.92H238.2C237.9 123.02 237.5 123.02 237.2 123.12C236.1 123.22 234.9 123.12 233.8 123.12H229.3C228.9 122.72 228.4 122.62 227.9 122.92C227.6 123.02 227.5 123.32 227.3 123.52C227.1 123.72 227.1 124.12 227.2 124.42C227.3 124.62 227.4 124.82 227.5 124.92C227.6 125.02 227.8 125.12 228 125.22C228.1 125.32 228.3 125.32 228.4 125.42C228.6 125.52 228.9 125.52 229.1 125.52C229.4 125.52 229.7 125.52 230 125.62C230.4 125.62 230.7 125.62 231.1 125.72C231.6 125.72 232.2 125.82 232.7 125.82C233.8 125.92 234.8 125.92 235.9 125.92C236.9 125.82 238 125.62 238.9 125.32C239.4 125.12 239.9 124.92 240.4 124.52C240.5 124.42 240.7 124.32 240.8 124.22C240.9 124.12 241 123.92 241.1 123.82C241.2 123.62 241.3 123.42 241.5 123.22C241.7 123.02 241.8 122.82 242 122.62C242.3 122.32 242.7 121.82 242.5 121.32C242.4 121.12 242.3 120.92 242.1 120.82C242 120.72 241.8 120.72 241.6 120.72C241.7 120.62 241.6 120.62 241.5 120.62" fill="#161616"/>
<path fill-rule="evenodd" clip-rule="evenodd" d="M233.2 119.02C233.2 119.02 233.1 119.02 233.2 119.02C233.1 119.02 233.2 119.02 233.2 119.02ZM233.3 117.42C233 117.42 232.7 117.52 232.5 117.62C232.2 117.72 232 117.82 231.8 118.02C231.5 118.22 231.3 118.42 231 118.72C230.8 119.02 230.6 119.32 230.4 119.52C230.1 119.92 230 120.32 229.9 120.72C229.8 120.92 229.8 121.22 229.8 121.42C229.8 121.52 229.8 121.72 229.9 121.82C229.9 121.92 230 122.12 230 122.22C230.1 122.52 230.2 122.72 230.3 123.02C230.5 123.32 230.8 123.62 231.1 123.72C231.2 123.82 231.4 123.92 231.6 123.92C231.7 123.92 231.9 124.02 232 124.02C232.1 124.02 232.3 124.12 232.4 124.12C232.7 124.22 232.9 124.22 233.2 124.22C233.4 124.22 233.7 124.22 233.9 124.12C234.1 124.02 234.2 123.82 234.3 123.62C234.4 123.22 234.2 122.62 233.7 122.52C233.5 122.52 233.3 122.42 233 122.42C232.7 122.32 232.5 122.32 232.2 122.22C232.1 122.22 232.1 122.12 232 122.12L231.9 122.02C231.8 121.92 231.8 121.82 231.7 121.62C231.7 121.52 231.6 121.42 231.6 121.22V121.02C231.6 120.82 231.7 120.72 231.7 120.52C231.8 120.32 231.9 120.22 232 120.02C232.1 119.82 232.2 119.62 232.4 119.52C232.5 119.42 232.6 119.32 232.7 119.12C232.9 119.02 233.1 118.92 233.2 118.82C233.4 118.72 233.6 118.72 233.7 118.62H234.2C234.6 118.62 235 118.32 235 117.82C235 117.42 234.7 117.12 234.2 117.02H234.1C233.8 117.32 233.6 117.42 233.3 117.42" fill="#161616"/>
<path fill-rule="evenodd" clip-rule="evenodd" d="M242.3 120.82C242.3 120.82 242.3 120.92 242.3 120.82C242.3 120.92 242.3 120.92 242.3 120.82C242.3 120.92 242.3 120.92 242.3 120.82ZM237.6 117.02C237.5 117.02 237.4 117.12 237.3 117.22C237.2 117.32 237.2 117.52 237.2 117.62C237.2 117.72 237.3 117.92 237.4 117.92C238.1 118.22 238.7 118.52 239.3 119.02C239.9 119.52 240.4 120.02 240.8 120.62C240.9 120.82 241 121.02 241.2 121.22C241.2 121.32 241.1 121.52 241.1 121.62C241 121.82 241 122.02 240.9 122.22C240.8 122.42 240.8 122.62 240.7 122.72C240.5 122.72 240.4 122.82 240.2 122.82C239.9 122.92 239.6 122.92 239.3 123.02C239 123.12 238.7 123.12 238.4 123.22C238.1 123.32 237.8 123.32 237.5 123.42C237.2 123.42 237 123.52 236.7 123.52C236.4 123.52 236.1 123.62 235.8 123.62L234 123.92C233.8 123.92 233.7 124.12 233.7 124.22C233.7 124.42 233.9 124.62 234.1 124.62H235.3C235.7 124.62 236.1 124.62 236.5 124.52H237.6C238 124.52 238.4 124.42 238.8 124.42C239 124.42 239.2 124.42 239.5 124.32C239.7 124.32 239.9 124.22 240.1 124.22C240.3 124.22 240.5 124.12 240.7 124.12C240.8 124.12 241 124.02 241.1 124.02H241.2C241.4 124.02 241.5 124.02 241.6 123.92C241.8 123.82 242 123.52 242 123.32C242 123.02 242 122.72 242.1 122.52C242.1 122.22 242.2 122.02 242.2 121.72V121.32C242.2 121.22 242.2 121.12 242.1 120.92C242.1 120.82 242.1 120.72 242 120.72C242 120.62 241.9 120.52 241.9 120.42C242.1 120.42 242 120.22 242 120.12C241.9 120.02 241.9 119.92 241.8 119.82C241.7 119.72 241.6 119.52 241.5 119.42C241.3 119.22 241.1 119.02 241 118.82C240.9 118.72 240.8 118.62 240.7 118.62L240.4 118.32C240.2 118.12 239.9 118.02 239.7 117.82C239.2 117.52 238.7 117.22 238.1 117.02C238 117.02 237.9 116.92 237.8 116.92C237.7 117.02 237.6 117.02 237.6 117.02" fill="#161616"/>
<path fill-rule="evenodd" clip-rule="evenodd" d="M281.7 113.92C281.4 114.02 281 114.02 280.7 114.22C280.5 114.32 280.2 114.52 280 114.62C279.4 115.02 278.9 115.42 278.3 115.82C277.6 116.32 277.1 117.02 276.7 117.72C276.4 118.22 276.1 118.72 276.1 119.22V119.52C276.2 119.72 276.3 119.92 276.4 120.02C276.6 120.22 276.8 120.32 277.1 120.42C277.5 120.52 278 120.62 278.4 120.62C279.2 120.62 279.9 120.52 280.7 120.42C281.3 120.32 282 120.22 282.6 120.12C284.1 119.92 285.7 119.82 287.3 119.82C287.9 119.82 288.5 119.32 288.5 118.62C288.5 118.02 288 117.42 287.3 117.42C286.1 117.42 284.9 117.52 283.6 117.62C282.3 117.72 281 118.02 279.7 118.22C279.5 118.22 279.3 118.22 279 118.32C279.3 117.92 279.6 117.62 280 117.32L280.9 116.72C281.1 116.52 281.4 116.42 281.6 116.32C281.8 116.22 282 116.22 282.2 116.22C282.5 116.22 282.8 115.92 282.9 115.72C283.1 115.42 283.1 115.12 283 114.82C282.9 114.52 282.7 114.32 282.5 114.12C282.3 114.02 282.1 114.02 281.9 114.02C281.9 113.92 281.8 113.92 281.7 113.92" fill="#161616"/>
</svg>
