<svg width="500" height="600" viewBox="0 0 500 600" fill="none" xmlns="http://www.w3.org/2000/svg">
<path fill-rule="evenodd" clip-rule="evenodd" d="M279.966 130.019C279.966 130.019 279.959 130.119 279.966 130.019C279.959 130.119 279.959 130.119 279.966 130.019C279.966 130.019 279.959 130.119 279.966 130.019ZM263.568 93.5865C263.199 94.5631 262.922 95.6465 262.853 96.6441C262.755 98.0406 262.836 99.7505 263.65 101.01C265 103.21 266.243 105.502 267.379 107.887C267.973 109.432 268.367 110.964 268.754 112.595C268.884 113.606 269.014 114.618 269.037 115.722C269.153 116.933 269.169 118.137 269.284 119.348C269.523 121.67 269.662 123.986 269.694 126.394C269.631 127.292 269.668 128.196 269.598 129.194C268.948 132.757 267.899 136.293 266.85 139.828C266.219 141.689 265.594 143.449 264.863 145.303C264.018 147.349 262.974 149.381 261.93 151.413C261.361 152.376 260.793 153.338 260.131 154.194C259.229 155.635 258.233 156.969 257.338 158.31C256.442 159.65 255.546 160.991 254.75 162.339C253.62 164.165 252.583 166.097 251.645 168.036C251.404 168.621 251.063 169.198 250.921 169.79C250.8 170.082 250.673 170.474 250.552 170.767C250.304 171.451 250.055 172.135 249.907 172.827C249.503 174.302 249.391 175.898 249.586 177.415C249.709 178.527 249.931 179.645 250.467 180.585C250.817 181.311 251.388 181.752 252.179 181.907C252.585 181.835 253.084 181.87 253.411 181.492C254.051 180.935 254.158 180.843 254.592 180.372C254.919 179.994 255.146 179.609 255.374 179.224C255.601 178.838 255.928 178.46 256.149 178.175C256.597 177.505 257.144 176.841 257.592 176.171C258.581 174.937 259.476 173.596 260.465 172.362C262.563 169.602 264.653 166.941 266.651 164.174C267.533 163.032 268.322 161.784 269.204 160.643C270.099 159.302 271.102 157.869 271.998 156.528L272.339 155.95C272.717 156.277 273.102 156.505 273.594 156.639C273.793 156.653 274.306 156.489 274.619 156.31C274.932 156.132 275.366 155.661 275.58 155.475C275.8 155.19 276.113 155.011 276.334 154.726C276.661 154.348 276.988 153.97 277.216 153.585C277.656 153.014 278.005 152.337 278.445 151.766C279.114 150.81 279.589 149.741 280.158 148.778C280.613 148.008 280.868 147.224 281.223 146.447C281.571 145.769 281.827 144.985 282.075 144.301C282.203 143.909 282.337 143.417 282.465 143.025C282.713 142.341 282.955 141.756 283.103 141.065C283.359 140.281 283.614 139.497 283.769 138.706C284.06 137.423 284.443 136.247 284.633 134.957C284.796 134.066 284.958 133.175 285.114 132.384C285.425 130.802 285.743 129.12 285.755 127.517C285.732 126.413 285.815 125.215 285.18 124.269C284.916 123.749 284.067 122.988 283.426 123.545C282.892 124.009 282.572 124.287 282.224 124.964C282.097 125.356 281.969 125.748 281.834 126.24C281.714 126.533 281.586 126.925 281.465 127.217C281.372 127.11 281.173 127.096 281.08 126.989C280.774 127.068 280.475 127.047 280.161 127.226C279.955 127.312 279.841 127.504 279.628 127.69C279.514 127.882 279.407 127.975 279.294 128.168C279.073 128.453 278.959 128.646 278.739 128.931L277.737 130.364C277.402 130.842 277.168 131.327 276.934 131.812C276.593 132.39 276.251 132.967 275.903 133.645L276.433 130.374L276.509 129.276C276.614 127.78 276.619 126.277 276.524 124.766C276.441 121.653 275.959 118.512 275.57 115.477C275.375 113.96 275.187 112.343 274.893 110.818C274.685 109.501 274.383 108.076 274.075 106.752C273.931 105.939 273.581 105.213 273.33 104.494C272.908 103.362 272.479 102.329 272.05 101.297C271.7 100.571 271.45 99.8516 270.993 99.2182C270.186 97.8585 269.478 96.5059 268.664 95.2461C268.214 94.5129 267.771 93.6799 267.321 92.9468C266.964 92.3203 266.486 91.9862 265.895 91.8446C264.719 91.4616 264.029 92.7166 263.568 93.5865" fill="#BEBEBE"/>
<path fill-rule="evenodd" clip-rule="evenodd" d="M266.352 172.506L266.459 172.413C266.466 172.313 266.566 172.32 266.573 172.221C266.466 172.313 266.359 172.406 266.352 172.506V172.506ZM267.007 171.75L266.793 171.935L266.786 172.035C266.793 171.935 266.9 171.843 267.007 171.75ZM277.057 155.612C276.417 156.168 276.068 156.846 275.713 157.623C275.486 158.008 275.351 158.5 275.117 158.984L274.052 161.316C273.59 162.186 273.028 163.049 272.567 163.919C272.332 164.403 271.998 164.881 271.664 165.359C271.33 165.837 270.989 166.415 270.654 166.892C270.093 167.755 269.425 168.711 268.77 169.467C268.009 170.316 267.341 171.272 266.58 172.121L266.26 172.399L266.153 172.492C264.958 173.812 263.763 175.132 262.475 176.345C261.728 176.994 261.081 177.651 260.334 178.3C259.693 178.857 258.953 179.407 258.213 179.956C257.473 180.506 256.64 180.949 255.807 181.392C254.874 181.828 253.941 182.264 253.016 182.6C252.197 182.844 251.378 183.087 250.466 183.224L248.949 183.419C248.643 183.497 248.243 183.469 247.937 183.548C247.738 183.534 247.438 183.513 247.232 183.599L245.636 183.488C245.144 183.353 244.652 183.218 244.061 183.077C243.376 182.828 242.792 182.587 242.107 182.339C241.423 182.09 240.59 182.533 240.342 183.218C240.093 183.902 240.437 184.728 241.221 184.983C242.098 185.345 242.882 185.601 243.766 185.863C244.942 186.246 246.125 186.529 247.422 186.62L248.519 186.697C248.918 186.724 249.324 186.653 249.623 186.674C250.528 186.637 251.433 186.6 252.345 186.463C252.651 186.384 253.057 186.312 253.363 186.233C253.769 186.161 254.282 185.997 254.688 185.925C255.507 185.682 256.333 185.338 257.159 184.995C257.572 184.823 257.885 184.645 258.298 184.473C258.711 184.302 259.024 184.123 259.444 183.852L260.384 183.316C260.903 183.052 261.33 182.68 261.85 182.416C262.484 181.959 263.217 181.509 263.857 180.952C264.491 180.496 265.031 179.932 265.665 179.475C266.739 178.447 267.813 177.42 268.894 176.293C270.082 175.072 271.178 173.746 272.266 172.519C273.254 171.284 274.25 169.951 275.146 168.61C275.7 167.847 276.262 166.984 276.724 166.114C277.185 165.244 277.747 164.381 278.209 163.511C278.443 163.026 278.784 162.449 279.026 161.864C279.26 161.379 279.388 160.987 279.622 160.502C279.856 160.018 279.991 159.526 280.126 159.034C280.14 158.834 280.267 158.442 280.302 157.944L280.358 157.146C280.407 156.447 280.057 155.721 279.479 155.38C279.194 155.159 278.901 155.039 278.502 155.011C277.997 155.076 277.484 155.24 277.057 155.612" fill="#161616"/>
<path fill-rule="evenodd" clip-rule="evenodd" d="M253.393 150.215L253.293 150.208C253.286 150.307 253.293 150.208 253.393 150.215C253.293 150.208 253.186 150.3 253.086 150.293C253.186 150.3 253.286 150.307 253.393 150.215C253.492 150.222 253.492 150.222 253.599 150.129C253.492 150.222 253.393 150.215 253.393 150.215ZM256.599 145.928C256.393 146.014 256.286 146.106 256.08 146.192C256.08 146.192 255.98 146.185 255.973 146.285C254.669 146.294 253.458 146.41 252.24 146.626C250.823 146.827 249.512 146.936 248.101 147.038C246.192 147.105 244.382 147.179 242.587 147.053L235.404 146.551C234.906 146.516 234.486 146.787 234.351 147.279C234.103 147.964 234.36 148.583 234.945 148.824C235.237 148.945 235.536 148.966 235.829 149.087C236.327 149.122 236.719 149.249 237.118 149.277C237.61 149.412 238.102 149.546 238.701 149.588L241.394 149.777C241.693 149.798 241.886 149.911 242.185 149.932C242.577 150.06 243.076 150.095 243.468 150.222C243.96 150.357 244.551 150.499 245.05 150.533C245.549 150.568 245.941 150.696 246.44 150.731L247.836 150.829C248.235 150.856 248.634 150.884 249.04 150.813C249.539 150.847 250.045 150.783 250.551 150.718C250.957 150.646 251.356 150.674 251.868 150.509C252.075 150.423 252.274 150.437 252.481 150.351L253.4 150.115C253.912 149.95 254.325 149.779 254.838 149.614C255.251 149.442 255.571 149.164 255.984 148.992C256.404 148.721 256.924 148.457 257.351 148.086C257.557 148 257.671 147.807 257.877 147.721C258.091 147.536 258.304 147.35 258.418 147.158C258.318 147.151 258.432 146.958 258.446 146.759C258.467 146.459 258.381 146.253 258.196 146.04C258.01 145.826 257.817 145.712 257.518 145.691L257.418 145.684C257.119 145.664 256.806 145.842 256.599 145.928" fill="#161616"/>
<path fill-rule="evenodd" clip-rule="evenodd" d="M236.096 146.7C236.089 146.799 236.089 146.799 236.096 146.7V146.7ZM233.764 145.634C233.665 145.627 233.465 145.613 233.358 145.706C233.152 145.792 233.152 145.792 232.839 145.971C232.625 146.156 232.405 146.441 232.284 146.734L232.242 147.332C232.228 147.532 232.221 147.632 232.307 147.838C232.3 147.938 232.386 148.144 232.379 148.244C232.451 148.65 232.516 149.156 232.587 149.562C232.652 150.068 232.724 150.474 232.889 150.986C232.861 151.385 232.926 151.891 232.991 152.397C233.127 153.309 233.164 154.213 233.201 155.118C233.245 155.923 233.289 156.728 233.433 157.54C233.563 158.552 233.892 159.577 234.328 160.51C234.592 161.03 234.864 161.45 235.235 161.876L236.07 162.837C236.541 163.271 237.125 163.512 237.81 163.761C238.295 163.995 238.893 164.037 239.385 164.172C239.877 164.306 240.468 164.448 240.967 164.483C241.658 164.631 242.398 164.082 242.647 163.397C242.774 163.005 242.809 162.506 242.538 162.086L242.26 161.766C242.074 161.553 241.882 161.439 241.589 161.318C240.912 160.97 240.135 160.615 239.358 160.26C239.165 160.146 239.072 160.04 238.88 159.926C238.88 159.926 238.787 159.819 238.687 159.812C238.423 159.293 238.158 158.773 237.994 158.26C237.829 157.747 237.672 157.135 237.507 156.622C237.349 156.01 237.298 155.304 237.141 154.692C236.99 153.98 236.839 153.267 236.682 152.655C236.603 152.349 236.531 151.943 236.452 151.636C236.38 151.23 236.301 150.924 236.223 150.618C236.151 150.212 235.972 149.899 235.893 149.592C235.729 149.08 235.664 148.574 235.392 148.154L235.3 148.047C235.492 148.161 235.692 148.175 235.884 148.289C236.276 148.416 236.696 148.145 236.817 147.853C236.931 147.66 236.845 147.454 236.752 147.347C236.673 147.041 236.573 147.034 236.381 146.92C236.281 146.913 236.288 146.813 236.188 146.806C235.996 146.693 235.704 146.572 235.418 146.351C235.126 146.231 234.933 146.117 234.641 145.996C234.456 145.783 234.163 145.662 233.764 145.634C233.864 145.641 233.864 145.641 233.764 145.634V145.634Z" fill="#161616"/>
<path fill-rule="evenodd" clip-rule="evenodd" d="M240.133 140.566L240.034 140.559L240.133 140.566ZM244.13 116.386C243.724 116.458 243.397 116.836 243.568 117.249C243.733 117.762 243.898 118.275 243.955 118.88C244.113 119.493 244.171 120.098 244.222 120.803C244.324 122.214 244.333 123.518 244.235 124.914C244.186 125.613 244.138 126.311 243.996 126.902C243.847 127.594 243.798 128.292 243.65 128.983C243.487 129.874 243.225 130.758 243.063 131.649C242.893 132.639 242.631 133.523 242.361 134.507C242.099 135.391 241.837 136.275 241.475 137.151C241.113 138.028 240.758 138.805 240.396 139.682C240.168 140.067 240.048 140.36 239.82 140.745L239.5 141.023C239.393 141.116 239.28 141.308 239.173 141.401C239.066 141.494 238.959 141.587 238.846 141.779C238.732 141.972 238.498 142.457 238.477 142.756C238.463 142.956 238.456 143.055 238.541 143.262C238.627 143.468 238.62 143.568 238.706 143.774C238.785 144.081 239.17 144.308 239.356 144.522C239.548 144.635 239.641 144.742 239.84 144.756C239.933 144.863 240.133 144.877 240.232 144.884L240.931 144.932C241.522 145.074 242.121 145.116 242.613 145.251C243.111 145.285 243.71 145.327 244.223 145.163C244.529 145.084 244.735 144.998 245.049 144.819C245.369 144.541 245.603 144.056 245.631 143.657C245.687 142.859 245.237 142.126 244.453 141.871C243.961 141.736 243.37 141.594 242.871 141.56L242.372 141.525C242.486 141.332 242.5 141.133 242.62 140.84C242.869 140.156 243.11 139.571 243.358 138.887C243.607 138.203 243.755 137.511 244.004 136.827C244.145 136.236 244.394 135.551 244.535 134.96C244.839 133.477 245.143 131.995 245.441 130.612C245.631 129.322 245.921 128.039 246.019 126.643C246.103 125.446 246.08 124.341 246.064 123.137L245.911 121.022C245.846 120.516 245.788 119.91 245.723 119.405C245.579 118.593 245.443 117.681 245.099 116.855C245.014 116.648 244.921 116.542 244.835 116.335C244.742 116.228 244.643 116.221 244.443 116.208C244.23 116.393 244.23 116.393 244.13 116.386" fill="#161616"/>
<path fill-rule="evenodd" clip-rule="evenodd" d="M247.949 97.6068L248.248 97.6277C248.847 97.6696 249.452 97.6117 250.058 97.5538C250.257 97.5677 250.457 97.5817 250.564 97.4889C251.468 97.4519 252.174 97.401 252.886 97.2503C253.292 97.1784 253.698 97.1066 254.097 97.1345C254.403 97.0557 254.703 97.0766 254.909 96.9908C255.009 96.9978 255.215 96.9119 255.315 96.9189C255.928 96.7613 256.54 96.6036 257.146 96.5457C256.818 96.9238 256.285 97.3877 255.758 97.7519L255.545 97.9374C255.018 98.3016 254.491 98.6657 254.057 99.1366C253.524 99.6005 253.389 100.092 253.447 100.698C253.584 101.61 254.46 101.972 255.145 102.22C255.537 102.348 255.836 102.369 256.235 102.396C256.734 102.431 257.339 102.373 257.945 102.316C258.351 102.244 258.857 102.179 259.27 102.007C259.376 101.914 259.576 101.928 259.683 101.836C260.502 101.592 261.221 101.342 261.94 101.091L262.56 100.834L263.179 100.576C263.386 100.491 263.692 100.412 263.905 100.226C264.012 100.133 264.112 100.14 264.318 100.055C265.351 99.6256 266.39 99.0968 267.33 98.561C267.536 98.4752 267.743 98.3894 267.956 98.2039C267.928 98.6029 267.9 99.0019 267.979 99.3082C267.958 99.6074 268.037 99.9137 268.023 100.113C268.109 100.32 268.095 100.519 268.181 100.726C268.267 100.932 268.445 101.245 268.631 101.459C268.816 101.672 269.002 101.886 269.294 102.006C269.487 102.12 269.779 102.241 269.979 102.255C270.164 102.468 270.15 102.668 270.143 102.768C270.122 103.067 270.194 103.473 270.173 103.772C270.152 104.071 270.231 104.378 270.31 104.684C270.389 104.99 270.475 105.197 270.553 105.503L270.625 105.909C270.697 106.315 270.869 106.728 270.934 107.234C271.012 107.54 270.998 107.739 271.077 108.046C271.156 108.352 271.135 108.651 271.214 108.957C271.365 109.67 271.615 110.389 271.78 110.902C271.944 111.414 272.202 112.034 272.466 112.553L273.002 113.493C273.181 113.806 273.366 114.02 273.445 114.326C273.709 114.846 273.974 115.365 274.138 115.878C274.21 116.284 274.382 116.697 274.454 117.103C274.491 118.008 274.328 118.899 274.265 119.797L274.21 120.595C274.154 121.393 274.191 122.297 274.52 123.323C274.599 123.629 274.678 123.935 274.849 124.348C275.086 125.267 275.236 125.979 275.387 126.692C275.438 127.397 275.382 128.195 275.234 128.886L275.157 129.984C275.108 130.682 275.159 131.387 275.217 131.993C275.296 132.299 275.368 132.705 275.546 133.018C275.539 133.118 275.632 133.225 275.632 133.225C275.625 133.324 275.718 133.431 275.711 133.531C275.79 133.837 275.882 133.944 275.968 134.15C276.054 134.357 276.24 134.57 276.425 134.784C276.703 135.104 276.889 135.317 277.174 135.538L277.752 135.879C278.044 136 278.237 136.113 278.536 136.134C279.534 136.204 280.466 135.768 281.093 135.411C281.719 135.054 282.36 134.497 282.9 133.933C283.327 133.562 283.647 133.284 283.868 132.999C283.847 133.298 283.733 133.49 283.712 133.79C283.55 134.68 283.494 135.479 283.424 136.476C283.292 138.371 283.166 140.167 282.848 141.849C282.685 142.74 282.416 143.723 282.047 144.7C281.82 145.085 281.599 145.37 281.272 145.749C280.952 146.027 280.625 146.405 280.191 146.876C279.764 147.247 279.33 147.718 278.889 148.289C278.676 148.474 278.562 148.667 278.448 148.859C278.328 149.151 278.214 149.344 278.1 149.537C277.986 149.729 277.965 150.028 277.952 150.228L277.931 150.527C277.924 150.627 277.91 150.826 277.803 150.919C277.511 150.798 277.218 150.678 277.026 150.564C276.634 150.436 276.242 150.309 275.843 150.281C275.444 150.253 275.144 150.232 274.738 150.304C274.026 150.455 273.499 150.819 272.98 151.083L271.72 151.897C271.506 152.083 271.193 152.261 270.98 152.447C270.24 152.997 269.699 153.56 269.165 154.024C267.885 155.138 266.803 156.265 265.629 157.285C264.768 158.127 263.908 158.969 263.146 159.818L262.713 160.289C262.385 160.667 262.065 160.946 261.738 161.324C261.19 161.987 260.543 162.644 259.903 163.2C258.722 164.321 257.754 165.256 256.793 166.091L255.833 166.926L255.299 167.389C254.872 167.761 254.346 168.125 253.812 168.589C253.179 169.046 252.346 169.489 251.42 169.825C251.213 169.911 250.914 169.89 250.608 169.969L249.71 169.906C249.511 169.892 249.218 169.771 249.026 169.657C248.933 169.551 248.74 169.437 248.648 169.33C248.362 169.11 248.184 168.797 247.905 168.476C247.72 168.263 247.634 168.056 247.441 167.943C247.163 167.623 246.878 167.402 246.592 167.182C246.214 166.854 245.829 166.627 245.437 166.499C245.052 166.272 244.553 166.237 243.955 166.195L243.656 166.174C242.957 166.125 242.152 166.169 241.347 166.213C241.148 166.199 240.948 166.185 240.742 166.271C239.637 166.294 238.533 166.317 237.587 166.953C237.167 167.224 236.747 167.496 236.419 167.874C236.306 168.066 236.099 168.152 235.986 168.345C235.665 168.623 235.438 169.008 235.025 169.18C234.918 169.272 234.818 169.265 234.818 169.265C234.719 169.258 234.719 169.258 234.612 169.351C234.512 169.344 234.419 169.237 234.327 169.131C233.949 168.804 233.67 168.483 233.492 168.17C233.127 167.643 232.97 167.031 232.606 166.504L232.427 166.191C232.163 165.671 231.905 165.052 231.641 164.532C231.555 164.326 231.469 164.119 231.284 163.906C231.191 163.799 231.198 163.699 231.105 163.593C230.934 163.18 230.755 162.866 230.576 162.553C230.319 161.934 229.969 161.207 229.718 160.488C229.454 159.969 229.296 159.356 229.139 158.744C228.795 157.918 228.559 156.999 228.216 156.173C228.037 155.86 227.958 155.553 227.687 155.133C227.608 154.827 227.422 154.614 227.237 154.4C227.144 154.294 227.151 154.194 227.058 154.087C226.694 153.56 226.423 153.14 226.052 152.714C225.866 152.5 225.581 152.28 225.296 152.059C225.01 151.839 224.917 151.732 224.718 151.718C224.426 151.597 224.133 151.477 223.834 151.456L223.535 151.435C223.036 151.4 222.63 151.472 222.017 151.629C221.918 151.623 221.811 151.715 221.711 151.708C221.66 151.003 221.602 150.398 221.551 149.692C221.501 148.987 221.457 148.182 221.413 147.377C221.348 146.871 221.39 146.273 221.425 145.774L221.473 145.076C221.471 143.672 221.483 142.069 221.602 140.373L221.923 135.784C221.992 134.787 222.162 133.796 222.225 132.898C222.259 132.4 222.401 131.808 222.436 131.309C222.619 130.119 222.71 128.822 222.794 127.625L222.864 126.628C222.954 125.331 223.145 124.041 223.328 122.851L223.377 122.153C223.44 121.255 223.595 120.464 223.758 119.573C223.807 118.875 223.955 118.183 224.004 117.485C224.06 116.687 224.222 115.796 224.278 114.998C224.327 114.3 224.376 113.601 224.525 112.91C224.838 112.731 225.151 112.553 225.471 112.275L225.998 111.91L226.525 111.546L226.838 111.368C227.137 111.389 227.33 111.502 227.529 111.516C227.629 111.523 231.037 108.654 230.938 108.647C231.777 108.104 232.624 107.462 233.564 106.926C234.831 106.012 236.098 105.098 237.371 104.085C238.645 103.071 239.62 102.037 240.58 101.202L241.007 100.83C241.434 100.459 241.868 99.9884 242.295 99.6173C243.042 98.9678 243.583 98.4041 244.024 97.8335C244.13 97.7407 244.244 97.5482 244.358 97.3557C244.949 97.4973 245.448 97.5321 245.947 97.567L246.346 97.5949C246.945 97.6368 247.443 97.6717 247.949 97.6068V97.6068ZM240.595 68.0217L241.122 67.6576L240.595 68.0217ZM283.566 59.8994L282.647 60.1359C281.422 60.4513 280.504 60.6877 279.592 60.8245C278.68 60.9612 277.676 60.9912 276.771 61.0282C275.161 61.1161 273.757 61.1182 272.261 61.0135C271.263 60.9438 270.465 60.888 269.574 60.7254C268.976 60.6836 268.384 60.542 267.593 60.3864C267.201 60.2588 266.61 60.1172 266.118 59.9825C265.826 59.8618 265.526 59.8409 265.234 59.7202C264.942 59.5995 264.742 59.5856 264.45 59.4649C263.466 59.1956 262.383 58.9194 261.399 58.6501C260.708 58.5015 260.017 58.353 259.518 58.3181C259.019 58.2832 258.627 58.1555 258.328 58.1346L258.029 58.1137C256.625 58.1158 255.521 58.1388 254.402 58.3613C253.184 58.5769 252.059 58.8992 250.927 59.3212L250.614 59.4998C250.301 59.6784 249.895 59.7503 249.581 59.9289C248.962 60.1863 248.442 60.4507 247.929 60.6153C247.41 60.8797 246.897 61.0443 246.377 61.3087C245.858 61.5731 245.338 61.8375 244.918 62.1089C243.978 62.6446 243.032 63.2801 242.092 63.8159C241.046 64.4444 240.099 65.0799 239.359 65.6297L238.725 66.0866C237.992 66.5365 237.252 67.0862 236.512 67.636C236.085 68.0071 235.558 68.3712 235.138 68.6426C234.718 68.914 234.398 69.1923 233.978 69.4637C233.551 69.8348 233.131 70.1062 232.605 70.4703C232.498 70.5631 232.391 70.6559 232.185 70.7417C231.865 71.02 231.551 71.1986 231.231 71.4769L230.178 72.2052L229.651 72.5694L229.124 72.9335C229.018 73.0263 228.918 73.0193 228.711 73.1051C228.711 73.1051 228.398 73.2837 227.878 73.5481C227.772 73.6409 227.565 73.7267 227.465 73.7197L227.159 73.7986C227.052 73.8913 226.953 73.8844 226.746 73.9702L226.333 74.1418L225.094 74.6566C224.582 74.8212 224.069 74.9859 223.563 75.0508C223.357 75.1366 223.157 75.1226 222.951 75.2084C222.545 75.2803 222.345 75.2663 222.139 75.3521C222.039 75.3451 221.939 75.3382 221.832 75.431C221.633 75.417 221.526 75.5098 221.426 75.5028C221.12 75.5816 220.914 75.6674 220.7 75.853C220.387 76.0316 220.259 76.4236 220.139 76.7159C220.018 77.0082 220.097 77.3145 220.176 77.6207C220.162 77.8202 220.254 77.927 220.347 78.0337C220.512 78.5464 220.683 78.9594 220.948 79.4791C221.126 79.7923 221.405 80.1125 221.583 80.4257L221.954 80.8527C222.326 81.2796 222.611 81.5 222.796 81.7135L223.082 81.9339L223.367 82.1544C223.838 82.5883 224.316 82.9224 224.701 83.1499C224.993 83.2705 225.378 83.498 225.678 83.5189L225.037 84.0756C224.197 84.6183 223.265 85.0543 222.232 85.4833C221.207 85.8126 220.188 86.0421 219.184 86.0721C218.293 85.9096 217.488 85.9535 216.49 85.8838L214.595 85.7512C214.296 85.7303 214.196 85.7233 213.989 85.8091C213.783 85.8949 213.583 85.881 213.477 85.9738L212.943 86.4377C212.722 86.723 212.695 87.122 212.78 87.3285C212.773 87.4283 212.866 87.535 212.952 87.7415C213.038 87.948 213.124 88.1545 213.202 88.4607C213.295 88.5674 213.381 88.7739 213.474 88.8807C213.817 89.7066 214.153 90.6323 214.696 91.4722C214.782 91.6787 214.967 91.8922 215.053 92.0987C215.139 92.3051 215.325 92.5186 215.41 92.7251L215.781 93.152C216.252 93.5859 216.623 94.0129 217.101 94.347C217.387 94.5675 217.679 94.6881 217.971 94.8088C217.858 95.0014 217.751 95.0941 217.637 95.2867C217.53 95.3795 217.523 95.4792 217.417 95.572C216.976 96.1426 216.542 96.6135 216.208 97.0914C215.774 97.5622 215.447 97.9403 215.126 98.2187C214.693 98.6896 214.159 99.1535 213.625 99.6174C212.985 100.174 212.458 100.538 211.931 100.902C210.985 101.538 209.945 102.067 208.906 102.595C208.7 102.681 208.493 102.767 208.386 102.86C207.746 103.416 207.226 103.681 207.184 104.279C207.156 104.678 207.428 105.098 207.813 105.326C208.005 105.44 208.298 105.56 208.59 105.681C209.175 105.922 209.659 106.157 210.244 106.398C210.536 106.519 210.829 106.639 211.221 106.767C211.898 107.115 212.582 107.363 213.174 107.505C213.666 107.64 214.158 107.774 214.956 107.83C214.301 108.586 213.668 109.043 213.034 109.5C212.821 109.686 212.508 109.864 212.294 110.05C211.768 110.414 211.127 110.971 210.387 111.52C210.074 111.699 209.86 111.885 209.547 112.063L207.967 113.156C207.647 113.434 207.547 113.427 207.44 113.52C207.234 113.606 207.127 113.698 207.02 113.791C206.807 113.977 206.693 114.169 206.672 114.469C206.63 115.067 207.108 115.401 207.586 115.735C208.257 116.183 208.834 116.524 209.519 116.773C210.11 116.914 210.702 117.056 211.3 117.098C211.699 117.126 212.098 117.154 212.504 117.082C212.91 117.01 213.509 117.052 214.015 116.987C214.114 116.994 214.321 116.908 214.421 116.915C215.026 116.857 215.632 116.799 216.144 116.635C216.963 116.391 217.683 116.141 218.608 115.804C219.228 115.547 219.847 115.29 220.566 115.039L221.086 114.775C221.606 114.51 222.119 114.346 222.638 114.081C222.455 115.271 222.385 116.269 222.209 117.359C222.053 118.15 221.89 119.041 221.735 119.832C221.586 120.524 221.431 121.315 221.282 122.006L221.134 122.697C220.943 123.987 220.653 125.27 220.462 126.56L220.293 127.551C220.109 128.741 219.919 130.03 219.736 131.221C219.694 131.819 219.545 132.51 219.404 133.102C219.241 133.993 219.078 134.884 219.016 135.781L218.688 140.47C218.569 142.166 218.557 143.769 218.46 145.166L218.411 145.864C218.376 146.363 218.434 146.968 218.399 147.467C218.443 148.272 218.494 148.977 218.531 149.882C218.626 151.392 218.7 153.202 218.88 154.919C218.952 155.325 218.931 155.624 219.003 156.03C219.126 157.141 219.149 158.246 219.372 159.364C219.508 160.276 219.659 160.988 219.81 161.7C219.953 162.512 220.197 163.331 220.44 164.15C220.934 165.688 221.428 167.226 222.029 168.672L222.193 169.185C222.537 170.01 222.88 170.836 223.23 171.563C223.759 172.602 224.202 173.435 224.659 174.068C224.93 174.488 225.294 175.015 225.566 175.435C225.751 175.648 225.744 175.748 225.837 175.855C226.016 176.168 226.294 176.488 226.572 176.809C227.222 177.556 227.978 178.21 228.727 178.964C228.82 179.071 228.913 179.178 229.198 179.398C230.332 180.38 231.573 181.268 232.821 182.057C233.492 182.505 234.276 182.76 235.053 183.115C235.245 183.229 235.445 183.243 235.637 183.357C235.923 183.577 236.215 183.698 236.5 183.918C237.171 184.366 237.755 184.608 238.34 184.849L238.725 185.076C238.918 185.19 239.11 185.304 239.409 185.325L240.586 185.708C241.277 185.856 241.961 186.105 242.752 186.26C243.543 186.416 244.434 186.578 245.132 186.627L247.427 186.788C247.826 186.816 248.132 186.737 248.531 186.765L248.937 186.693C249.236 186.714 249.642 186.642 249.942 186.663C251.459 186.468 252.983 186.174 254.422 185.673C255.853 185.272 257.498 184.685 258.95 183.985C260.403 183.284 261.869 182.384 263.236 181.477C263.976 180.928 264.709 180.478 265.35 179.921C265.876 179.557 266.31 179.086 266.844 178.622C267.804 177.787 268.459 177.031 269.206 176.381L269.526 176.103C269.846 175.825 270.074 175.44 270.401 175.062C271.382 173.927 272.478 172.6 273.473 171.267C273.7 170.882 274.028 170.504 274.255 170.118C274.369 169.926 274.482 169.733 274.696 169.548C274.817 169.255 275.03 169.07 275.25 168.785C275.478 168.4 275.805 168.021 276.039 167.537C276.715 166.481 277.29 165.419 277.866 164.356C277.986 164.064 278.1 163.871 278.221 163.579C278.562 163.002 278.91 162.324 279.158 161.64C279.358 161.654 279.564 161.568 279.764 161.582C280.583 161.338 281.316 160.888 282.042 160.538C282.149 160.446 282.355 160.36 282.462 160.267C283.089 159.91 283.715 159.553 284.349 159.096C284.669 158.817 285.082 158.646 285.402 158.367C286.342 157.832 287.288 157.196 288.142 156.454C288.356 156.268 288.669 156.09 288.889 155.804C289.11 155.519 289.323 155.334 289.643 155.055C290.291 154.399 290.831 153.835 291.365 153.371C292.012 152.715 292.66 152.058 293.207 151.395L293.748 150.831C294.616 149.889 295.484 148.948 296.252 147.999C296.692 147.428 297.133 146.858 297.667 146.394C298.208 145.83 298.655 145.16 299.196 144.596C299.417 144.311 299.744 143.933 299.971 143.548C300.192 143.262 300.305 143.07 300.526 142.784L301.848 141.072C302.503 140.316 302.944 139.746 303.285 139.168C303.733 138.498 304.074 137.92 304.515 137.349C304.849 136.872 305.176 136.493 305.517 135.916C306.065 135.252 306.42 134.475 306.789 133.499C307.186 132.123 307.49 130.641 307.622 128.745L307.762 126.75C307.804 126.152 307.825 125.852 307.945 125.56C307.973 125.161 308.001 124.762 308.129 124.37C308.24 122.774 308.06 121.057 307.858 119.639C307.656 118.222 307.455 116.804 307.14 115.579L306.688 113.443C306.63 112.837 306.572 112.232 306.507 111.726L306.463 110.921C306.484 110.622 306.412 110.216 306.433 109.916C306.382 109.211 306.424 108.613 306.459 108.114C306.579 107.822 306.7 107.529 306.828 107.137C307.069 106.553 307.403 106.075 307.638 105.59C307.751 105.397 307.858 105.305 307.872 105.105C308.099 104.72 308.327 104.335 308.561 103.85C308.796 103.365 309.137 102.788 309.385 102.103C309.74 101.326 309.889 100.635 310.044 99.8438C310.193 99.1525 310.242 98.4542 310.291 97.7559C310.339 97.0576 310.189 96.3453 309.952 95.4266C309.716 94.5079 309.373 93.6819 309.115 93.0624C308.765 92.3362 308.315 91.6031 307.858 90.9696C307.408 90.2365 306.944 89.7028 306.487 89.0694C306.123 88.5427 305.566 87.9023 305.109 87.2689C304.56 86.5288 304.11 85.7956 303.667 84.9627C304.265 85.0045 304.771 84.9396 305.27 84.9745C305.776 84.9096 306.082 84.8308 306.495 84.6592C307.121 84.302 307.469 83.6246 307.604 83.1328C307.725 82.8405 307.732 82.7408 307.746 82.5413C307.76 82.3418 307.774 82.1423 307.688 81.9358C307.709 81.6365 307.623 81.43 307.63 81.3303C307.565 80.8245 307.486 80.5182 307.308 80.205C307.222 79.9985 307.143 79.6923 307.057 79.4858C306.978 79.1796 306.7 78.8594 306.514 78.6459C305.693 77.4858 304.759 76.5182 303.425 75.5228C302.947 75.1886 302.376 74.7477 301.699 74.3996C301.121 74.0585 300.437 73.8102 299.66 73.4551C298.391 72.9654 297.122 72.4757 295.846 72.0857L295.261 71.8444C292.125 70.8231 288.782 69.8876 285.226 69.1377C284.734 69.0031 284.036 68.9543 283.444 68.8126C282.154 68.6222 281.556 68.5804 280.857 68.5315L280.059 68.4757L280.38 68.1974L280.7 67.919C281.013 67.7404 281.233 67.4551 281.547 67.2765C281.974 66.9054 282.507 66.4415 282.948 65.8709C283.382 65.4 283.716 64.9221 284.15 64.4513C284.484 63.9734 284.811 63.5953 285.046 63.1105C285.166 62.8182 285.394 62.4331 285.522 62.0411C285.536 61.8416 285.649 61.649 285.656 61.5493L285.698 60.9507C285.712 60.7512 285.619 60.6445 285.626 60.5447C285.255 60.1178 284.777 59.7836 284.278 59.7488C284.079 59.7348 283.872 59.8206 283.566 59.8994V59.8994Z" fill="#161616"/>
<path fill-rule="evenodd" clip-rule="evenodd" d="M244.851 160.544C245.849 160.614 246.753 160.577 247.665 160.44L247.872 160.354C248.078 160.268 248.377 160.289 248.584 160.204L248.684 160.211L248.628 161.009C248.414 161.194 248.294 161.486 248.08 161.672L247.653 162.043L244.162 161.799C242.965 161.715 241.775 161.532 240.292 161.228C239.893 161.2 239.501 161.072 239.109 160.944C239.009 160.937 239.009 160.937 238.917 160.831L239.023 160.738C239.03 160.638 239.137 160.545 239.144 160.446L239.258 160.253C239.364 160.16 239.478 159.968 239.485 159.868C239.492 159.768 239.592 159.775 239.699 159.682L240.397 159.731C240.596 159.745 240.789 159.859 241.088 159.88C241.58 160.015 242.172 160.156 242.67 160.191C243.355 160.439 244.053 160.488 244.851 160.544V160.544ZM237.828 152.033C237.77 151.428 237.812 150.829 237.754 150.224C237.96 150.138 238.167 150.052 238.466 150.073L238.672 149.987C238.979 149.908 239.385 149.837 239.691 149.758C239.997 149.679 240.403 149.607 240.802 149.635C241.301 149.67 241.707 149.598 242.106 149.626L243.104 149.696C243.303 149.71 243.496 149.823 243.688 149.937L243.881 150.051L243.98 150.058C244.173 150.171 244.472 150.192 244.665 150.306L245.242 150.647C245.435 150.761 245.528 150.868 245.727 150.882L245.82 150.988C246.305 151.223 246.783 151.557 247.274 151.691C247.759 151.926 248.258 151.961 248.75 152.095L249.149 152.123C249.648 152.158 250.153 152.093 250.759 152.035C251.571 151.892 252.29 151.641 253.016 151.291C252.91 151.384 252.903 151.484 252.796 151.576C252.469 151.954 252.049 152.226 251.629 152.497C251.316 152.676 251.109 152.762 250.796 152.94C250.383 153.112 249.877 153.177 249.471 153.249L248.972 153.214C248.573 153.186 248.174 153.158 247.982 153.044C247.583 153.016 247.191 152.889 246.792 152.861L246.592 152.847C245.901 152.698 245.302 152.656 244.611 152.508L244.013 152.466C243.514 152.431 243.022 152.296 242.623 152.268C242.124 152.234 241.732 152.106 241.233 152.071C240.834 152.043 240.342 151.908 239.844 151.874L239.744 151.867C239.245 151.832 238.739 151.897 238.34 151.869C238.234 151.961 238.127 152.054 237.828 152.033V152.033ZM257.444 143.882C257.245 143.868 257.038 143.954 256.832 144.04C256.518 144.218 256.305 144.404 256.284 144.703C256.17 144.895 256.149 145.195 256.235 145.401C256.128 145.494 256.121 145.594 256.008 145.786C255.894 145.979 255.873 146.278 255.852 146.577C255.639 146.763 255.432 146.849 255.318 147.041L255.105 147.227C254.892 147.412 254.578 147.591 254.265 147.77L254.158 147.862C253.738 148.134 253.318 148.405 252.905 148.577C252.486 148.848 251.973 149.013 251.453 149.277C251.353 149.27 251.346 149.37 251.247 149.363C250.834 149.534 250.428 149.606 249.922 149.671L248.725 149.588C248.432 149.467 248.133 149.446 247.848 149.225C247.556 149.105 247.27 148.884 246.978 148.764C246.4 148.423 245.823 148.081 245.138 147.833C245.039 147.826 244.846 147.712 244.746 147.705L243.869 147.343C243.57 147.322 243.278 147.202 242.979 147.181L242.081 147.118C241.482 147.076 240.877 147.134 240.172 147.185C239.766 147.257 239.26 147.322 238.747 147.486C238.334 147.658 237.821 147.823 237.408 147.994L237.102 148.073L236.483 148.33L236.497 148.131C236.511 147.931 236.432 147.625 236.239 147.512C236.054 147.298 235.861 147.184 235.662 147.17C235.462 147.156 235.256 147.242 235.042 147.428L234.935 147.521C234.829 147.613 234.722 147.706 234.622 147.699C234.409 147.885 234.295 148.077 234.082 148.263L233.74 148.84C233.62 149.133 233.592 149.532 233.77 149.845C233.863 149.952 233.849 150.151 233.942 150.258C234.035 150.365 234.035 150.365 234.135 150.372C234.128 150.471 234.227 150.478 234.22 150.578C234.206 150.778 234.199 150.877 234.278 151.184C234.371 151.29 234.357 151.49 234.45 151.597L234.457 151.497L234.45 151.597L234.543 151.703L234.522 152.003C234.515 152.102 234.515 152.102 234.608 152.209C234.601 152.309 234.693 152.416 234.686 152.515L234.923 153.434L235.002 153.74L235.074 154.146C235.06 154.346 235.152 154.453 235.138 154.652L235.124 154.852C235.182 155.457 235.147 155.956 235.205 156.561L235.191 156.761C235.249 157.366 235.2 158.065 235.258 158.67C235.316 159.276 235.374 159.881 235.539 160.394C235.618 160.7 235.696 161.007 235.875 161.32C235.954 161.626 236.139 161.839 236.318 162.153C236.504 162.366 236.789 162.587 236.981 162.7C237.074 162.807 237.174 162.814 237.267 162.921C237.459 163.034 237.652 163.148 237.851 163.162C238.044 163.276 238.243 163.29 238.443 163.304L238.543 163.311C239.334 163.466 240.125 163.622 240.816 163.77C242.206 163.968 243.595 164.165 244.792 164.249L246.588 164.374C246.887 164.395 247.286 164.423 247.692 164.351C248.198 164.287 248.625 163.915 248.839 163.73C249.159 163.452 249.486 163.073 249.813 162.695L250.795 161.561C250.908 161.369 251.122 161.183 251.235 160.99C251.563 160.612 251.79 160.227 251.911 159.935C252.145 159.45 252.472 159.072 252.707 158.587C252.82 158.395 252.927 158.302 253.041 158.109C253.155 157.917 253.375 157.632 253.489 157.439C253.723 156.954 254.057 156.476 254.292 155.991C254.405 155.799 254.526 155.507 254.64 155.314C254.881 154.729 255.222 154.152 255.457 153.667C255.684 153.282 255.812 152.89 256.046 152.405C256.174 152.013 256.401 151.628 256.529 151.236C256.77 150.651 257.005 150.167 257.246 149.582L257.431 149.795C257.624 149.909 257.817 150.023 258.016 150.037L258.315 150.058C258.622 149.979 258.935 149.8 259.049 149.608C259.162 149.415 259.29 149.023 259.211 148.717C258.796 147.485 258.295 146.046 257.701 144.501C257.623 144.195 257.238 143.968 257.038 143.954C257.644 143.896 257.544 143.889 257.444 143.882" fill="#161616"/>
<path fill-rule="evenodd" clip-rule="evenodd" d="M265.834 94.1459C265.82 94.3454 266.006 94.5589 266.205 94.5729C266.405 94.5868 266.618 94.4013 266.632 94.2017C266.646 94.0022 266.46 93.7888 266.261 93.7748C266.068 93.6611 265.855 93.8467 265.834 94.1459Z" fill="#161616"/>
<path fill-rule="evenodd" clip-rule="evenodd" d="M265.721 94.3385C265.201 94.6029 264.96 95.1875 265.224 95.7072C265.495 96.1271 265.667 96.5401 265.839 96.9531C266.017 97.2663 266.103 97.4728 266.281 97.786C266.632 98.5122 266.882 99.2314 267.14 99.8509C267.654 101.09 268.076 102.222 268.491 103.454C268.9 104.786 269.308 106.117 269.616 107.442C269.917 108.867 270.312 110.398 270.613 111.822C270.921 113.147 271.329 114.479 271.631 115.903C271.932 117.328 272.326 118.859 272.628 120.283C272.778 120.996 272.829 121.701 272.98 122.413C273.038 123.019 273.195 123.631 273.253 124.237L273.879 128.19C274.088 129.508 274.403 130.733 274.711 132.058C274.869 132.67 275.027 133.283 275.085 133.888C275.156 134.294 275.235 134.6 275.407 135.013C275.578 135.426 275.957 135.753 276.349 135.881C276.541 135.995 276.84 136.016 277.147 135.937C277.453 135.858 277.56 135.765 277.773 135.58C278.086 135.401 278.214 135.009 278.235 134.71L278.256 134.411C278.277 134.111 278.191 133.905 278.212 133.605C278.133 133.299 278.161 132.9 278.082 132.594C278.024 131.988 277.867 131.376 277.709 130.763C277.408 129.339 277.106 127.914 276.912 126.397C276.71 124.98 276.508 123.562 276.207 122.138C276.005 120.72 275.697 119.395 275.289 118.064C274.888 116.632 274.593 115.108 274.192 113.677C273.884 112.352 273.376 111.013 273.068 109.688C272.674 108.157 272.173 106.719 271.672 105.28C271.164 103.942 270.656 102.603 269.949 101.25C268.891 99.1714 268.04 97.0068 266.876 95.0207C266.697 94.7075 266.412 94.4871 266.013 94.4592C266.127 94.2666 265.927 94.2527 265.721 94.3385" fill="#161616"/>
<path fill-rule="evenodd" clip-rule="evenodd" d="M234.101 113.58C234.208 113.487 234.414 113.401 234.528 113.209C234.528 113.209 234.428 113.202 234.421 113.301L234.101 113.58V113.58ZM242.613 112.27L242.214 112.242C242.015 112.228 241.808 112.314 241.708 112.307C241.609 112.3 241.502 112.393 241.402 112.386L241.003 112.358C240.704 112.337 240.497 112.423 240.291 112.509C240.191 112.502 240.098 112.395 239.998 112.388L239.699 112.367C239.507 112.254 239.314 112.14 239.022 112.019C238.63 111.892 238.331 111.871 237.925 111.942C237.825 111.935 237.618 112.021 237.419 112.007C237.319 112 237.212 112.093 237.113 112.086L236.493 112.344L236.294 112.33C236.201 112.223 236.101 112.216 236.108 112.116C236.015 112.009 235.816 111.995 235.723 111.889L234.925 111.833C234.725 111.819 234.519 111.905 234.419 111.898C234.006 112.069 233.693 112.248 233.38 112.427L233.08 112.406C232.981 112.399 232.874 112.491 232.774 112.484C232.568 112.57 232.468 112.563 232.361 112.656C232.261 112.649 232.062 112.635 231.955 112.728C231.749 112.814 231.442 112.893 231.236 112.978C231.136 112.971 231.029 113.064 231.023 113.164C230.83 113.05 230.531 113.029 230.224 113.108C229.619 113.166 229.206 113.338 228.893 113.516C228.693 113.502 228.487 113.588 228.287 113.574L227.589 113.525C227.489 113.518 227.389 113.511 227.283 113.604C227.183 113.597 227.076 113.69 227.076 113.69C226.969 113.783 226.87 113.776 226.763 113.869C226.663 113.862 226.57 113.755 226.371 113.741L226.072 113.72C225.872 113.706 225.765 113.799 225.666 113.792C225.566 113.785 225.459 113.878 225.352 113.97L225.032 114.249C224.926 114.342 224.919 114.441 224.812 114.534L224.471 115.112L224.45 115.411C224.443 115.511 224.436 115.61 224.529 115.717C224.621 115.824 224.707 116.03 224.9 116.144C224.993 116.251 225.092 116.258 225.292 116.272C225.392 116.279 225.385 116.378 225.484 116.385C225.584 116.392 225.677 116.499 225.777 116.506C225.969 116.62 226.169 116.634 226.368 116.648C226.568 116.662 226.767 116.676 226.974 116.59C227.073 116.597 227.08 116.497 227.18 116.504L227.679 116.539C227.779 116.546 227.878 116.553 227.985 116.46C228.277 116.581 228.577 116.602 228.876 116.623C229.175 116.644 229.382 116.558 229.588 116.472C229.795 116.386 230.001 116.3 230.115 116.108C230.222 116.015 230.229 115.915 230.229 115.915L230.827 115.957C230.927 115.964 231.027 115.971 231.233 115.885C231.333 115.892 231.44 115.799 231.546 115.707C231.653 115.614 231.76 115.521 231.86 115.528L232.159 115.549C232.259 115.556 232.358 115.563 232.465 115.47C232.565 115.477 232.665 115.484 232.771 115.391C232.971 115.405 233.064 115.512 233.263 115.526L233.463 115.54C233.556 115.647 233.755 115.661 233.948 115.774C234.247 115.795 234.539 115.916 234.845 115.837C235.145 115.858 235.351 115.772 235.657 115.693L236.277 115.436L236.875 115.478C237.075 115.492 237.175 115.499 237.281 115.406L237.88 115.448C238.079 115.462 238.279 115.476 238.485 115.39C238.685 115.404 238.792 115.311 238.898 115.218C239.091 115.332 239.383 115.453 239.682 115.474C239.982 115.495 240.281 115.516 240.488 115.43C240.694 115.344 240.801 115.251 241.007 115.165L241.506 115.2C241.805 115.221 242.112 115.142 242.318 115.056L242.717 115.084C242.817 115.091 243.016 115.105 243.123 115.013C243.729 114.955 243.956 114.57 244.169 114.384C244.283 114.191 244.397 113.999 244.418 113.7C244.425 113.6 244.525 113.607 244.531 113.507C244.538 113.407 244.638 113.414 244.645 113.315L244.652 113.215L244.759 113.122C244.972 112.936 244.887 112.73 244.594 112.609L244.295 112.588C244.202 112.482 244.102 112.475 244.003 112.468L243.803 112.454L243.71 112.347C243.611 112.34 243.518 112.233 243.518 112.233C243.012 112.298 242.713 112.277 242.613 112.27" fill="#161616"/>
<path fill-rule="evenodd" clip-rule="evenodd" d="M273.901 119.27C273.901 119.27 274.001 119.277 273.901 119.27C274.001 119.277 273.901 119.27 273.901 119.27ZM273.908 119.17C273.901 119.27 273.901 119.27 273.908 119.17C273.901 119.27 273.901 119.27 273.908 119.17ZM270.684 116.539C270.584 116.532 270.584 116.532 270.684 116.539V116.539ZM255.101 111.439C254.895 111.525 254.589 111.604 254.382 111.69C254.176 111.776 253.863 111.954 253.649 112.14C252.916 112.59 252.262 113.346 251.807 114.116L251.125 115.271C251.011 115.464 250.997 115.663 250.983 115.863L250.969 116.062C250.962 116.162 251.062 116.169 251.055 116.269C251.148 116.376 251.24 116.482 251.433 116.596C251.526 116.703 251.625 116.71 251.825 116.724C251.925 116.731 252.124 116.745 252.217 116.851L252.616 116.879C252.716 116.886 252.815 116.893 253.022 116.807C253.428 116.736 253.734 116.657 254.14 116.585C254.34 116.599 254.639 116.62 254.845 116.534C254.945 116.541 255.052 116.448 255.251 116.462L255.651 116.49C255.95 116.511 256.156 116.425 256.456 116.446L256.655 116.46C256.755 116.467 256.848 116.574 256.848 116.574C257.047 116.588 257.147 116.595 257.339 116.708L257.838 116.743C258.038 116.757 258.144 116.664 258.344 116.678C258.65 116.6 258.857 116.514 259.163 116.435C259.263 116.442 259.355 116.549 259.455 116.556L259.854 116.583L259.947 116.69C260.04 116.797 260.232 116.911 260.332 116.918C260.525 117.031 260.824 117.052 261.023 117.066C261.522 117.101 262.028 117.036 262.541 116.872C263.019 117.206 263.524 117.141 264.03 117.076C264.23 117.09 264.536 117.011 264.742 116.925L264.842 116.932C264.935 117.039 265.134 117.053 265.227 117.16C265.619 117.287 266.018 117.315 266.324 117.236C266.417 117.343 266.51 117.45 266.61 117.457C267.194 117.698 267.793 117.74 268.299 117.675L268.398 117.682L268.491 117.789L268.77 118.109L269.347 118.45C269.447 118.457 269.44 118.557 269.54 118.564C269.639 118.571 269.732 118.678 269.832 118.685L269.825 118.784C269.811 118.984 269.904 119.091 270.096 119.204C270.375 119.525 270.86 119.759 271.252 119.887L271.85 119.928L271.843 120.028C271.836 120.128 271.929 120.235 271.922 120.334C272.015 120.441 272.008 120.541 272.108 120.548L272.386 120.868C272.479 120.975 272.578 120.982 272.671 121.089C272.764 121.195 272.964 121.209 273.156 121.323C273.249 121.43 273.235 121.629 273.328 121.736C273.413 121.942 273.506 122.049 273.592 122.256C273.771 122.569 274.255 122.803 274.668 122.632C275.081 122.46 275.216 121.968 275.037 121.655C274.952 121.448 274.859 121.342 274.773 121.135C274.694 120.829 274.615 120.523 274.33 120.302C274.237 120.196 274.045 120.082 273.952 119.975C273.852 119.968 273.859 119.868 273.759 119.861C273.759 119.861 273.66 119.854 273.667 119.755C273.567 119.748 273.574 119.648 273.481 119.541L273.495 119.342C273.509 119.142 273.516 119.042 273.43 118.836C273.344 118.629 273.259 118.423 273.066 118.309C272.966 118.302 272.973 118.203 272.874 118.196L272.375 118.161C272.275 118.154 272.068 118.24 271.969 118.233C271.869 118.226 271.762 118.318 271.662 118.311L271.669 118.212C271.669 118.212 271.769 118.219 271.776 118.119C271.883 118.026 271.983 118.033 272.089 117.94C272.196 117.847 272.31 117.655 272.317 117.555C272.438 117.263 272.359 116.957 272.173 116.743C271.888 116.523 271.496 116.395 271.183 116.574C270.976 116.659 270.869 116.752 270.656 116.938C270.556 116.931 270.449 117.024 270.35 117.017C270.563 116.831 270.677 116.639 270.797 116.346C270.918 116.054 270.839 115.748 270.654 115.534C270.461 115.421 270.269 115.307 270.069 115.293C270.176 115.2 270.19 115.001 270.297 114.908C270.311 114.708 270.324 114.509 270.239 114.302C270.153 114.096 269.96 113.982 269.768 113.868C269.668 113.861 269.469 113.847 269.376 113.741L268.977 113.713C268.67 113.792 268.464 113.877 268.257 113.963C268.264 113.864 268.172 113.757 268.079 113.65C267.986 113.543 267.886 113.536 267.794 113.43C267.694 113.423 267.601 113.316 267.501 113.309C267.302 113.295 267.102 113.281 266.996 113.374C266.689 113.453 266.476 113.638 266.262 113.824C266.156 113.917 266.049 114.009 265.949 114.002L265.984 113.504C265.991 113.404 265.898 113.297 265.805 113.19L265.713 113.084C265.62 112.977 265.52 112.97 265.427 112.863C265.228 112.849 265.028 112.835 264.822 112.921C264.615 113.007 264.509 113.1 264.302 113.185C264.209 113.079 264.216 112.979 264.117 112.972C264.024 112.865 263.831 112.752 263.731 112.745L263.332 112.717C263.233 112.71 263.033 112.696 262.926 112.789C262.827 112.782 262.62 112.867 262.513 112.96C262.52 112.86 262.428 112.754 262.335 112.647L262.057 112.327C261.864 112.213 261.664 112.199 261.465 112.185C261.365 112.178 261.166 112.164 261.059 112.257C260.859 112.243 260.753 112.336 260.546 112.422L260.653 112.329C260.474 112.016 260.182 111.895 259.776 111.967C259.47 112.046 259.164 112.124 258.957 112.21C258.644 112.389 258.43 112.574 258.117 112.753C257.932 112.54 257.739 112.426 257.54 112.412L257.447 112.305C257.168 111.985 256.783 111.758 256.377 111.829C256.285 111.723 256.185 111.716 256.085 111.709C255.985 111.702 255.893 111.595 255.793 111.588L255.693 111.581C255.408 111.361 255.301 111.453 255.101 111.439" fill="#161616"/>
<path d="M225.692 126.324C229.667 121.089 235.796 118.009 238.359 125.806" stroke="#161616" stroke-width="2" stroke-linecap="round"/>
<path d="M252.081 125.964C258.413 119.991 261.751 122.43 267.687 127.857" stroke="#161616" stroke-width="2" stroke-linecap="round"/>
</svg>
