<svg width="500" height="600" xmlns="http://www.w3.org/2000/svg" xmlns:xlink="http://www.w3.org/1999/xlink"><defs><path id="a" d="M.416.35h66.073V16H.416z"/><path id="c" d="M.337.195h13.227v20.682H.337z"/></defs><g fill="none" fill-rule="evenodd"><path d="M310.5 265.73c0-6.186-.416-12.381-1.355-18.5-.223-1.433-.517-2.855-.805-4.278-.29-1.41-.61-2.82-1.024-4.197-.452-1.507-1.253-2.836-1.944-4.234-.71-1.431-1.713-2.673-2.868-3.77-1.028-.975-2.06-1.979-3.154-2.882-1.287-1.063-2.592-2.116-4.064-2.915-1.308-.71-2.695-1.275-4.055-1.874-1.605-.705-3.231-1.379-4.896-1.93a85.711 85.711 0 00-8.326-2.291c-3.256-.725-6.545-1.414-9.865-1.758-1.756-.181-3.5-.32-5.263-.432-1.45-.09-2.908-.114-4.364-.161-.82-.028-1.655.026-2.479.043a38.98 38.98 0 00-1.962.077c-1.776.123-3.546.262-5.315.428-3.24.305-6.438.917-9.588 1.727-1.546.398-3.088.79-4.605 1.297-1.419.474-2.809 1.05-4.196 1.61-.873.355-1.737.728-2.597 1.115a14.54 14.54 0 00-2.613 1.53c-.595.434-1.16.88-1.662 1.408.894-.157 1.79-.307 2.686-.45 2.512-.396 5.016-.815 7.548-1.095 2.31-.258 4.613-.547 6.936-.688 1.696-.104 3.39-.206 5.087-.311.816-.048 1.642-.137 2.46-.144l8.285-.068c.944-.01 1.892.06 2.836.093 1.315.048 2.627.096 3.94.141 1.302.046 2.61.194 3.909.29.259.018.515.04.775.063a138.78 138.78 0 013.998-.237c.696-.032 1.323.328 1.726.863.204.028.41.06.614.098 1.214.227 2.429.458 3.638.703 2.193.446 4.383.94 6.552 1.489 1.656.418 3.36.792 4.83 1.7.385.237.783.512 1.072.871 1.2.39 2.381.845 3.518 1.412.94.466 1.842 1.001 2.715 1.581.637.426 1.301.922 1.715 1.582.235.371.393.744.516 1.166.055.188.085.466.085.744 0 .275-.03.549-.098.735-.148.403-.3.78-.537 1.14-.182.28-.391.515-.632.738-.389.36-.869.673-1.342.91-1.107.553-2.274.965-3.431 1.4-1.043.391-2.104.755-3.191.999-1.117.25-2.24.426-3.364.637-1.08.205-2.163.396-3.245.59-1.135.2-2.267.414-3.41.578-1.407.203-2.817.382-4.227.55a319.998 319.998 0 01-14.14 1.35c-1.044.076-2.081.15-3.13.182-1.198.037-2.404.105-3.604.105-2.575.002-5.147-.005-7.723-.048-2.167-.039-4.34-.077-6.505-.177-1.346-.062-2.699-.091-4.045-.187-1.317-.093-2.633-.186-3.953-.282-.514-.037-1.028-.077-1.541-.121 1.323.551 2.683 1.029 4.023 1.516 2.913 1.06 5.976 1.755 9.005 2.39 3.28.69 6.623 1.156 9.961 1.459 3.24.293 6.47.516 9.72.648 3.072.126 6.145.217 9.217.126 1.533-.046 3.045-.223 4.564-.403a69.567 69.567 0 005.395-.833c2.947-.579 5.778-1.707 8.582-2.75 1.877-.696 3.75-1.386 5.592-2.169.8-.339 1.595-.687 2.373-1.078.108-.055.216-.112.322-.169a115.846 115.846 0 011.31 6.805c.107.856.204 1.713.294 2.57.16.3.24.621.24.963.082.67.082 1.36.08 2.045v.375c.062.715.122 1.431.18 2.148.124 1.542.185 3.086.215 4.632.087 1.466.158 2.933.197 4.403.058 2.29.088 4.577.102 6.869.004.767.014 1.534.014 2.301 0 1.33-.028 2.654-.16 3.976-.038.39-.079.78-.122 1.17a358.625 358.625 0 01-.069 4.684 275.757 275.757 0 01-.405 10.43c-.188 3.144-.57 6.264-.953 9.389-.825 5.993-1.796 11.96-3.022 17.887a974.92 974.92 0 01-2.1 9.916c-.631 2.911-1.182 5.85-1.916 8.735a305.64 305.64 0 01-3.768 13.524c-.328 1.082-.621 2.183-.996 3.246l-1.413 3.99c-.411 1.163-.907 2.3-1.362 3.448-.36.906-.723 1.807-1.087 2.71-.607 1.4-1.212 2.807-2.072 4.075-.557.689-1.146 1.356-1.803 1.95-.973.876-1.97 1.71-2.993 2.521a17.569 17.569 0 01-2.436 1.537 14.08 14.08 0 01-.775.239 98.234 98.234 0 01-3.925 2.137c-1.385.715-2.77 1.459-4.228 2.012-.682.257-1.357.499-2.074.647a46.14 46.14 0 01-1.199.223 52.98 52.98 0 01-2.608.37 37.5 37.5 0 01-3.536.256c2.69.982 5.478 1.545 8.287 2.073.664.125 1.332.23 2.001.337 1.665.266 3.336.6 5.026.51 1.173-.067 2.358-.285 3.493-.579 1.053-.272 2.109-.616 3.086-1.099 1.797-.885 3.393-2.167 4.913-3.462 1.194-1.015 2.333-2.052 3.418-3.186.688-.722 1.264-1.554 1.867-2.349.702-.926 1.169-2 1.66-3.045.82-1.746 1.505-3.56 2.22-5.35.52-1.305 1.08-2.605 1.546-3.927.509-1.443 1.078-2.875 1.523-4.336.963-3.16 1.897-6.322 2.793-9.504.425-1.514.857-3.025 1.282-4.538.378-1.354.797-2.715 1.094-4.09 1.327-6.111 2.802-12.192 4.04-18.322.564-2.802 1.169-5.601 1.673-8.414.014-.15.03-.3.043-.451l.81-8.19c.075-.77.198-1.54.298-2.306l.594-4.528c.15-1.138.313-2.27.482-3.402.12-1.7.268-3.4.42-5.096.166-1.855.307-3.717.526-5.565.007-.25.011-.498.015-.749.123-6.511.169-13.023.203-19.534v-.733zm-74.123 101.618l.17.304.076-.295a4.967 4.967 0 01-.245-.009" fill="#161616"/><path d="M226.05 244.21c-.723-.064-1.444-.135-2.164-.21-.234.808-.463 1.62-.696 2.43-.163.557-.246 1.146-.369 1.711A1378.091 1378.091 0 01222 252l.155-.01c.451-.031.902-.056 1.353-.071.616-.022 1.233-.047 1.847-.06.97-.025 1.927.008 2.888.072l.123-.63c.243-1.22.42-2.473.763-3.674.29-1.016.569-2.037.871-3.053-1.318-.116-2.635-.244-3.95-.364m-2.575 82.238l.027.124.023-.144-.05.02" fill="#161616"/><path d="M282.059 248.513l-.044.007-.043.005.087-.012m9.324-20.55c2.155.505 4.349.97 6.424 1.755.987.487 1.932 1.037 2.87 1.606.27.165.545.33.821.49a3.719 3.719 0 00-2.74 2c.147.277.259.562.35.873.054.189.086.466.086.744 0 .275-.03.55-.1.734-.149.403-.302.78-.54 1.14-.182.28-.393.513-.635.736-.39.36-.873.673-1.348.91-1.113.552-2.286.964-3.449 1.398-1.047.392-2.114.755-3.206.999-1.122.25-2.251.425-3.38.637-1.086.204-2.174.395-3.262.588-1.14.2-2.278.414-3.425.578-1.415.202-2.832.382-4.25.55a322.588 322.588 0 01-14.21 1.349c-1.049.075-2.09.15-3.144.182-1.205.036-2.416.104-3.623.104-2.587.002-5.172-.004-7.761-.048-2.178-.038-4.36-.077-6.536-.177-1.354-.061-2.713-.09-4.066-.187a2403.92 2403.92 0 01-3.972-.281c-2.27-.16-4.539-.403-6.804-.62-2.468-.24-4.925-.545-7.386-.847-2.503-.312-4.998-.727-7.492-1.119-1.172-.184-2.351-.345-3.524-.53-1.536-.241-3.108-.45-4.61-.857a25.323 25.323 0 01-2.587-.855c-.786-.31-1.565-.643-2.217-1.196-1.22-1.04-1.842-2.767-1.494-4.337.05-.228.12-.451.205-.668l-.183-.06c-.64-.206-1.268-.482-1.896-.732a19.4 19.4 0 011.108-.53c.88-.319 1.767-.612 2.659-.887.32-.246.666-.456 1.027-.623 1.114-.51 2.336-.609 3.536-.766.24-.032.481-.06.722-.086l.364-.096a250.36 250.36 0 018.924-2.187c.893-.2 1.79-.38 2.691-.55.147-.029.295-.058.442-.085 1.157-.211 2.313-.42 3.47-.632 2.276-.416 4.55-.835 6.835-1.194l.272-.043c1.357-.231 2.715-.454 4.077-.662l.84-.088a86.58 86.58 0 012.396-.301c2.323-.257 4.638-.545 6.97-.686l5.114-.312c.82-.048 1.65-.137 2.472-.144l8.326-.068c.949-.008 1.902.06 2.85.093 1.321.048 2.64.096 3.958.142.245.008.49.02.734.035a62.538 62.538 0 014.528.28c1.153-.079 2.309-.148 3.464-.2.7-.029 1.333.33 1.737.862.206.03.411.062.615.098 1.22.228 2.44.457 3.656.703 2.204.446 4.404.939 6.585 1.487.672.17 1.352.33 2.022.524 1.566.338 3.129.691 4.69 1.057m18.484 3.83c-.267-1.034-.742-1.96-1.597-2.625-.613-.478-1.213-.923-1.893-1.303-.704-.396-1.405-.794-2.104-1.196-1.2-.69-2.384-1.39-3.646-1.965-1.501-.682-3.085-1.117-4.683-1.513-1.574-.39-3.155-.756-4.735-1.127-2.948-.694-5.912-1.299-8.871-1.933-3.177-.68-6.345-1.424-9.545-1.979-.957-.166-1.917-.366-2.884-.468l-2.745-.293c-1.364-.146-2.744-.205-4.115-.25-3.28-.11-6.557-.126-9.837-.137-3.295-.011-6.589 0-9.884.041-1.523.018-3.042.084-4.564.13-.677.02-1.355.074-2.032.113-.768.043-1.54.064-2.308.132-1.78.157-3.566.285-5.337.523-1.76.239-3.515.48-5.27.748-3.083.471-6.159.98-9.24 1.456-2.998.464-5.956 1.091-8.92 1.726-2.984.638-5.979 1.287-8.94 2.03-1.452.364-2.898.737-4.315 1.22-.86.29-1.74.638-2.557 1.02a28.37 28.37 0 00-1.009.487c-.809.42-1.508.987-2.223 1.544-.533.419-.974.94-1.388 1.469-.676.867-1.323 1.73-1.89 2.67-.834 1.382-1.457 2.892-1.99 4.412-.967 2.753-1.394 5.707-1.796 8.587-.467 3.342-.86 6.717-1.088 10.085-.22 3.238-.407 6.487-.446 9.732-.032 2.961-.005 5.922.007 8.883.023 6.536.03 13.076.228 19.61.099 3.178.382 6.348.66 9.516.278 3.113.598 6.22.908 9.326.165 1.628.35 3.256.53 4.885.204 1.828.506 3.647.777 5.469.11.734.284 1.467.426 2.197a26.8 26.8 0 00.459 2c.187.692.347 1.397.572 2.075l.902 2.733a94.586 94.586 0 001.444 4.111c.59 1.545 1.127 3.123 1.774 4.644l1.022 2.42c.383.91.74 1.846 1.163 2.74.699 1.475 1.39 2.952 2.123 4.411 1.47 2.923 2.89 5.868 4.305 8.817.636 1.328 1.241 2.677 1.932 3.977.363.687.715 1.38 1.115 2.047.464.775.937 1.544 1.412 2.31a99.223 99.223 0 002.498 3.843c.947 1.385 2.062 2.67 3.175 3.92a55.699 55.699 0 006.49 6.234c1.28 1.039 2.675 1.935 4.096 2.763 1.435.84 2.877 1.626 4.388 2.324 1.559.723 3.172 1.303 4.801 1.845a124.11 124.11 0 004.65 1.475c.808.234 1.62.453 2.442.644 1.054.245 2.14.368 3.216.484 1.294.14 2.61.095 3.91.112 1.481.015 2.96.008 4.44.015 1.466.005 2.933.018 4.398.018 1.522 0 3.053.055 4.573-.006 1.455-.06 2.916-.089 4.37-.2a123.7 123.7 0 005.018-.469c3.115-.366 6.203-.93 9.106-2.156 1.784-.752 3.491-1.648 5.171-2.612 1.714-.985 3.285-2.09 4.63-3.546.75-.812.807-2.058 0-2.86-.758-.755-2.125-.812-2.875 0-.49.53-1.01 1.025-1.565 1.489-1.92 1.353-4.057 2.451-6.212 3.389-1.986.798-4.045 1.262-6.159 1.573-2.431.294-4.88.366-7.324.457-2.028.073-4.064.032-6.091-.04a918.59 918.59 0 01-7.04-.285c-2.502-.11-5.03-.207-7.518-.48-3.62-.566-7.062-1.947-10.456-3.293-1.255-.568-2.523-1.128-3.691-1.856a86.609 86.609 0 01-3.984-2.642 39.797 39.797 0 01-3.538-3.167 45.43 45.43 0 01-3.281-3.727c-1.49-1.954-2.9-3.937-4.139-6.061-1.397-2.388-2.722-4.794-3.883-7.304-2.386-5.16-4.859-10.28-7.217-15.45a168.86 168.86 0 01-2.167-5.479 250.57 250.57 0 01-2.333-6.615c-.332-.966-.622-1.949-.93-2.921-.176-.556-.295-1.133-.444-1.697-.11-.423-.244-.846-.325-1.276-.203-1.087-.447-2.176-.603-3.27-.134-.935-.267-1.871-.402-2.806-.311-2.975-.629-5.947-.887-8.924-.276-3.178-.61-6.356-.83-9.541-.438-6.338-.46-12.687-.486-19.038-.02-5.538-.062-11.078.013-16.612.02-1.477.14-2.961.216-4.437.07-1.317.146-2.634.235-3.948.185-2.65.514-5.292.825-7.93.325-2.255.695-4.518 1.3-6.712a194.19 194.19 0 002.94 2.035c1.533 1.041 3.06 2.098 4.643 3.065 1.925 1.176 4.048 2.11 6.283 2.476 1.19.196 2.39.362 3.586.514 3.137.4 6.28.762 9.43 1.067 1.441.141 2.879.273 4.326.366 1.668.107 3.341.266 5.011.316 1.881.057 3.762.114 5.641.168 1.556.048 3.12-.025 4.676-.047 2.928-.041 5.853-.194 8.774-.36h.013c1.509.055 3.015.112 4.52.162 1.68.06 3.37.02 5.052.03 1.355.009 2.72.061 4.075.017l5.935-.181c1.063-.035 2.132-.025 3.192-.11l5.21-.404a493.59 493.59 0 012.152-.168c.368-.03.695-.078 1.067-.13l.03-.004c.026-.004.053-.009.08-.012l.557-.075c-.154.02-.307.042-.46.063l1.317-.177-.098.014c.366-.048.734-.098 1.102-.148h.004c.215-.03.428-.059.642-.086l.28-.039c.255-.032.514-.066.77-.102h.002l.144-.019.881-.12a2.08 2.08 0 01-.084.011l.126-.015.034-.005-.007.001c.191-.024.382-.051.572-.076l.025-.003-.258.035a6.225 6.225 0 00-.01.001l-.294.04.531-.071.197-.027-.164.023.143-.02.135-.018-.022.002.046-.006h.002c.003 0 .006 0 .009-.002l-.004.001.02-.003-.05.007-.11.014c2.297-.307 4.576-.728 6.861-1.115a92.004 92.004 0 005.391-1.073c1.973-.453 3.934-.912 5.842-1.587.788-.28 1.552-.58 2.322-.917 1.303-.568 2.438-1.241 3.513-2.185.708-.621 1.071-1.608 1.376-2.458.137-.387.175-.798.164-1.215.782-.614 1.438-1.325 1.863-2.249.4-.87.699-1.869.699-2.854 0-.364-.041-.725-.133-1.08" fill="#161616"/><path d="M282.791 248.425l.011-.004-.03.009-.043.011.013-.003-.019.006a.01.01 0 01.006-.003l-.24.063a.06.06 0 00-.014.002h-.003l-.004.001c.007 0 .013-.002.02-.003l-.12.031-.01.003a269.304 269.304 0 01-.358.092l.358-.092.135-.034.002-.001-.002.001.226-.059-.224.058c.167-.043.336-.086.505-.133l-.209.055m.068.595l-.141.021c.047-.009.095-.015.141-.021m-.203.027l.057-.006-.219.029.162-.023-.165.024-.187.023a.858.858 0 01.032-.004l.11-.013-.188.024a.009.009 0 01-.005.001l.196-.026.146-.018.102-.014a.918.918 0 00.02-.003c.049-.006.098-.014.145-.021h-.003l.021-.003.006-.001-.001.001.004-.001h-.003l.012-.001h.005a46.973 46.973 0 01-.247.032" fill="#161616"/><path d="M282.507 248.498l-.019.003c.01 0 .017 0 .024-.003h-.005" fill="#161616"/><path d="M282.486 248.502l.01-.001.019-.003-.03.004z" fill="#161616"/><path d="M282.49 248.501h.01l.01-.003a.918.918 0 00-.02.003" fill="#161616"/><path d="M282.512 248.498h-.003l-.04.006.063-.008a.123.123 0 01-.02.002m-1.046.006l-.01.001.088-.01-.078.009m.048-.006a120687956860.437 120687956860.437 0 00.026-.003c.007 0 .013-.002.019-.003l-.045.006m-.637-.092l-.732.183-.145.036c.291-.07.584-.145.877-.219.041-.01.082-.02.123-.032l-.123.032m-4.502 1.111l-.05.007c.117-.015.234-.031.35-.048l-.3.041m-70.755-12.965c-.373.06-.747.116-1.12.172.547.266 1.1.49 1.657.668.058.02.112.035.168.055a4.09 4.09 0 01.175-.387c-.293-.168-.587-.337-.88-.508m99.064 26.526l-.007-.007-.233-.278a1.39 1.39 0 00-.256-.331 1.497 1.497 0 00-.93-.394 2.4 2.4 0 00-1.258.034l.001.013c.112 1.627.206 3.254.26 4.885a2.2 2.2 0 001.391-.826l.158-.077c.414-.218.596-.484.874-.832.208-.337.314-.703.316-1.092a2.077 2.077 0 00-.316-1.095m-15.344 4.255l.004.141c.004.097.004.191.008.289.07.011.14.023.211.039l.097-.604-.32.135" fill="#161616"/><path d="M300.292 234.153c-.09-1.03-1.298-3.56-2.075-4.24-1.494-1.304-2.874-2.604-4.901-2.986a101.76 101.76 0 00-4.045-.663c-1.451-.213-2.888-.296-4.353-.367-3.207-.153-6.405-.325-9.619-.383-3.168-.057-6.343.074-9.512.152-6.464.158-12.925.316-19.385.548-6.828.245-13.657.893-20.456 1.544-3.405.328-6.79.879-10.179 1.345-3.59.495-7.177 1.237-10.698 2.08-.41.1-.82.202-1.229.309a9.12 9.12 0 00-4.136 1.198c-3.287 1.045-6.52 2.279-9.704 3.57-1.52.617-2.727 2.264-3.205 3.785a6.484 6.484 0 00.38 4.815 6.416 6.416 0 003.758 3.228c1.65.527 3.221.289 4.777-.384.592-.256 1.186-.509 1.78-.76a9.226 9.226 0 003.978 2.557c2.43.477 4.735.8 7.19.94 1.506.086 3.012.06 4.517.024 3.196-.076 6.403.018 9.6.034 3.13.014 6.264-.16 9.396-.23 3.262-.068 6.523-.1 9.785-.132 6.289-.06 12.566.121 18.852.238 6.954.129 13.931-.16 20.833-1.037a103.94 103.94 0 004.758-.716c2.257-.39 4.363-1.1 6.511-1.909 1.413-.532 2.69-1.296 3.882-2.24 2.209-1.752 3.457-4.354 3.685-7.15.017-.198.023-.398.023-.598 0-.858-.13-1.716-.208-2.572" fill="#BD8D46"/><path d="M188.964 235.89l-.164.21c.053-.073.107-.144.164-.21m3.477-2.183a48.533 48.533 0 013.353-1.674c1.64-.648 3.322-1.15 5.007-1.677.628-.197 1.282-.332 1.921-.498.567-.145 1.134-.313 1.708-.436 1.387-.293 2.77-.645 4.167-.882l3.897-.66c1.26-.142 2.516-.293 3.78-.385 1.67-.122 3.33-.227 5.004-.284 3.235-.11 6.473-.118 9.708-.138 3.244-.023 6.487-.084 9.73-.118 2.924-.032 5.845.056 8.766.17 4.221.161 8.444.337 12.661.56 3.985.213 7.98.263 11.942.724 3.314.514 6.58 1.363 9.844 2.115 1.544.357 3.042.816 4.549 1.302 1.4.454 2.787.923 4.155 1.459l.191.088-.056.048a23.047 23.047 0 01-3.716 2.156c-2.86 1.106-5.883 1.758-8.893 2.331-1.446.277-2.892.58-4.344.825-2.81.475-5.622.925-8.44 1.359l-4.203.529c-1.566.198-3.146.311-4.715.466-2.966.29-5.95.502-8.92.71-6.605.469-13.226.605-19.842.825-2.816.096-5.633.2-8.449.27-.934-.067-1.867-.145-2.798-.21-2.96-.205-5.91-.541-8.859-.882-1.015-.116-2.03-.232-3.046-.35l-1.596-.232c-.624-.09-1.259-.152-1.876-.281-1.553-.323-3.108-.639-4.654-.998-1.569-.363-3.128-.727-4.683-1.152-.663-.18-1.325-.361-1.988-.54-.432-.118-.87-.25-1.313-.373a23.252 23.252 0 01-.802-2.524c.906-.595 1.853-1.122 2.81-1.643m102.034-2.297a2.12 2.12 0 01-.039.32l-.004.01c.014-.11.03-.221.043-.33m.63 3.115c.055.066.108.134.155.205-.054-.068-.107-.139-.161-.21.002.003.004.003.006.005m8.99-.209a3.69 3.69 0 00-1.217-.45c.214-.897.253-1.831-.013-2.724-.467-1.552-1.53-3.065-2.953-3.899-1.489-.872-3.083-1.576-4.679-2.224-1.386-.563-2.8-1.025-4.223-1.479-1.314-.42-2.62-.854-3.966-1.159-2.915-.66-5.831-1.374-8.77-1.917-3.306-.611-6.63-.857-9.986-.943-3.263-.082-6.525-.2-9.79-.266-6.063-.12-12.124-.386-18.189-.177-3.299.113-6.598.254-9.897.35-3.237.093-6.473.195-9.706.4-3.271.206-6.506.69-9.749 1.163-.753.111-1.505.311-2.251.466-.665.136-1.341.247-2.002.413-1.463.368-2.957.675-4.4 1.118-1.515.466-3.024.918-4.513 1.46-.951.346-1.9.682-2.832 1.078a33.818 33.818 0 00-4.713 2.422c-.9.559-1.799 1.113-2.684 1.695-1.78 1.163-3.944 2.746-3.778 5.13.083 1.177.57 2.301.96 3.406.006.015.01.033.017.05-.469.34-.872.778-1.179 1.301-.822 1.402-.728 2.997 0 4.403.519 1.007 1.628 1.786 2.527 2.413.512.357 1.077.648 1.628.941a21.614 21.614 0 004.845 1.87c2.98.756 6.026 1.267 9.052 1.801 1.856.328 3.745.482 5.624.616a60.86 60.86 0 004.141.136c3.333.012 6.664-.03 9.998-.081l.222-.002c1.025.068 2.049.118 3.075.161l.117-.003c1.16-.031 2.3.028 3.453.128 12.02.327 24.048-.316 36.038-1.161 2.832-.2 5.66-.43 8.494-.627 2.78-.191 5.567-.312 8.349-.473a88.443 88.443 0 004.187-.318c1.974-.211 3.966-.498 5.883-1.03.88-.242 1.767-.477 2.643-.743 1.865-.567 3.704-1.301 5.366-2.321.66-.405 1.294-.864 1.917-1.325a69.144 69.144 0 002.291-1.763c.277-.225.528-.48.772-.738.796-.845 1.254-1.74 1.632-2.829a2.98 2.98 0 00.164-.995c0-1.311-.795-2.627-1.906-3.274" fill="#161616"/><g fill="#161616"><path d="M258.996 225.625a8.749 8.749 0 00-.088-.758 8.66 8.66 0 00-.392-.991c-.23-.509-.596-.943-.939-1.375-.677-.86-1.468-1.622-2.217-2.412-1.237-1.302-2.47-2.625-3.588-4.035-.573-.798-1.028-1.657-1.419-2.559-.283-.723-.557-1.44-.703-2.204a6.709 6.709 0 01.008-.843c.145-.759.378-1.488.648-2.21.921-2.108 2.165-4.064 3.387-5.997.29-.457.571-.915.85-1.378.148-.24.292-.483.44-.723.446-.742.819-1.5 1.048-2.344.182-.682.241-1.423.267-2.13.028-.826-.126-1.68-.342-2.469-.323-1.161-.904-2.236-1.475-3.285-.292-.534-.609-1.043-.929-1.557l-.621-.998a16.141 16.141 0 01-.987-1.881 16.21 16.21 0 01-.834-3.268 23.185 23.185 0 01-.006-5.24c.317-2.068.83-4.093 1.34-6.12.279-1.114.566-2.235.941-3.323a1.821 1.821 0 00.91-1.135c.196-.722-.102-1.705-.812-2.04-.21-.1-.42-.195-.633-.279a2.956 2.956 0 00-.726-.07c-.43-.006-.869.17-1.213.422-.87.64-1.36 1.58-1.758 2.572-.28.697-.527 1.42-.728 2.146-.235.857-.47 1.717-.69 2.58-.505 1.987-.891 4.008-1.051 6.055-.157 2.011.022 4.032.364 6.015a15.74 15.74 0 002.061 5.452c.467.772.964 1.526 1.447 2.287.437.694.826 1.457 1.17 2.204.16.435.292.873.387 1.33.033.427.03.847-.006 1.274a6.722 6.722 0 01-.232.905c-.716 1.386-1.558 2.712-2.373 4.039-1.07 1.743-2.097 3.562-2.862 5.465-.374.937-.672 1.897-.822 2.897-.075.506-.12.99-.097 1.497.025.598.14 1.215.301 1.791.113.413.313.812.473 1.21.183.463.377.924.581 1.377.383.854.854 1.67 1.412 2.418.716.956 1.519 1.826 2.319 2.709.476.53.978 1.04 1.468 1.554.94.985 1.923 1.923 2.795 2.968.075.113.146.228.213.344a9.243 9.243 0 01-.222.335c-.41.477-.86.893-1.345 1.29-1.06.805-2.184 1.504-3.31 2.211-1.35.847-2.674 1.727-4.03 2.562-2.633 1.626-5.413 3.045-8.245 4.288-1.575.664-3.187 1.222-4.807 1.762-1.7.57-3.401 1.139-5.102 1.702-.863.28-1.412 1.164-1.161 2.085.232.86 1.18 1.464 2.043 1.183a763.785 763.785 0 006.463-2.142 60.19 60.19 0 006.737-2.767 70.856 70.856 0 006.423-3.492c1.041-.64 2.07-1.302 3.109-1.954 1.029-.646 2.08-1.257 3.081-1.951.816-.563 1.61-1.18 2.322-1.874.424-.416.778-.908 1.114-1.398.12-.17.229-.346.323-.53.154-.273.324-.77.324-1.115a.886.886 0 00-.004-.082"/><path d="M234.498 187.249c-.064.046-.127.092-.192.137a2.8 2.8 0 01.192-.137zm.231-.102a2.23 2.23 0 00-.047.103c.013-.035.027-.068.042-.101l.005-.002zm.152-.59a5.418 5.418 0 01-.027.202c.01-.067.02-.135.027-.203zm.055.472a7.88 7.88 0 00-.094.037c.032-.013.063-.026.094-.037zm6.823 32.762c-.156-.8-.433-1.583-.758-2.336-.927-2.15-2.189-4.154-3.362-6.19-.867-1.498-1.73-2.986-2.47-4.544a21.41 21.41 0 01-1.43-4.818c-.45-3.574-.082-7.168.397-10.725.227-1.344.467-2.683.663-4.03l.004-.018c.075-.018.15-.034.227-.048.153-.01.305-.017.458-.019 1.166-.04 2.14-.883 2.14-2.004 0-.532-.226-1.045-.628-1.418-.433-.409-.924-.53-1.512-.59-1.354-.133-2.72-.043-3.87.703-1.033.672-1.57 1.73-1.743 2.872a83.25 83.25 0 00-.43 3.29c-.196 1.808-.287 3.616-.388 5.43-.156 2.743 0 5.504.585 8.2.565 2.583 1.775 4.983 3.088 7.297.528.928 1.124 1.83 1.685 2.746 1.063 1.737 2.187 3.455 3.057 5.29a12.5 12.5 0 01.688 2.292 8.238 8.238 0 01-.013 1.62 11.335 11.335 0 01-.687 2.296c-1.233 2.587-2.91 4.952-4.554 7.317-.552.788-.176 1.906.66 2.362.9.494 1.979.167 2.527-.618 1.786-2.568 3.636-5.136 4.895-7.976.595-1.34.924-2.735 1.004-4.186a4.57 4.57 0 00.008-.266c0-.648-.122-1.299-.24-1.929zm29.95-24.687a2.243 2.243 0 00-1.328-1.027c-.61-.169-1.16-.044-1.713.226-.935.457-1.804 1.001-2.686 1.558-.962.61-1.875 1.265-2.668 2.089-.932.964-1.441 2.172-1.726 3.47-.146.657-.212 1.344-.25 2.018-.037.674.07 1.349.18 2.013.127.744.355 1.482.547 2.217.457 1.745.892 3.49 1.152 5.277.145 1.186.206 2.347.087 3.535a15.366 15.366 0 01-.82 3.015c-.397.876-.85 1.72-1.357 2.536-.462.74-.985 1.44-1.514 2.13-1.294 1.633-2.717 3.165-4.094 4.73-.654.743-.73 1.844 0 2.578.667.67 1.907.744 2.564 0 .891-1.008 1.779-2.016 2.674-3.024a52.075 52.075 0 002.683-3.323c1.73-2.309 3.034-4.945 3.55-7.8.255-1.428.262-2.836.132-4.274a46.235 46.235 0 00-.676-4.554c-.25-1.292-.546-2.574-.765-3.873-.035-.45-.03-.893.008-1.346.092-.54.219-1.068.397-1.585.07-.138.146-.27.228-.402a9.04 9.04 0 01.877-.859c.645-.46 1.324-.873 1.99-1.3a17.677 17.677 0 011.732-.97c.717-.357 1.087-1.144 1.087-1.925a2.26 2.26 0 00-.291-1.13"/></g><path d="M209.853 292.453l-.023-.275c.01.092.016.185.023.275m27.585 77.033c-2.127-4.925-3.812-10.065-5.363-15.198-2.713-11.29-4.977-22.685-7.45-34.027-.644-2.944-1.342-5.876-2.027-8.809-.714-3.062-1.558-6.107-2.192-9.187-1.151-5.612-1.979-11.306-2.801-16.979a14.502 14.502 0 00-.238-1.645c-.878-6.086-1.45-12.216-2.014-18.338a745.645 745.645 0 01-.577-10.733 12.235 12.235 0 00-.686-4.18c-.453-1.176-1.337-2.9-2.87-2.9-.923.103-1.623.559-2.102 1.367-.23.313-.43.663-.603 1.037-.387-1.216-.897-2.396-1.618-3.416-1.227-1.74-2.547-2.812-4.724-2.976-.362-.027-.898.219-1.245.318-2.054.593-4.082 1.283-6.099 1.99-.595.213-1.188.429-1.762.693-.93.425-2.214 1.68-2.545 2.316l-.21.402a15.97 15.97 0 00-2.31 6.296c-.132.75-.232 1.498-.335 2.25-.4 2.876-.838 5.735-1.099 8.63-.398 4.403-.815 8.813-1.03 13.23-.091 1.867 0 3.782.082 5.65.147 3.4.32 6.817.868 10.177.72 4.424 2.061 8.724 3.253 13.042.594 2.4 1.175 4.802 1.783 7.198 1.023 4.025 2.115 7.979 3.393 11.924a447.808 447.808 0 012.815 9.012c.426 1.423.815 2.855 1.323 4.249a126.33 126.33 0 001.63 4.174c1.186 2.919 2.32 5.858 3.591 8.743a161.774 161.774 0 005.314 10.92 83.636 83.636 0 004.786 7.883c1.655 2.407 3.44 4.738 5.176 7.085 2.08 2.815 4.541 5.32 7.201 7.59.842.719 1.767 1.254 2.736 1.776 1.217.65 2.591 1.081 3.92 1.41 1.354.336 3.19-1.502 3.716-2.371 1.661-2.746 2.375-5.867 2.375-9.019 0-3.287-.775-6.609-2.062-9.584" fill="#BEBEBE"/><path d="M225.666 244.44c-2.555-.508-5.223-.493-7.823-.621-2.408-.118-4.827-.216-7.227-.435-2.6-.235-5.198-.47-7.796-.719-1.47-.14-2.937-.293-4.41-.417-1.919-.161-3.836-.328-5.765-.359a23.97 23.97 0 00-1.72.046c-.704-.12-1.409-.24-2.112-.363-.717-.127-1.368-.111-2.017.252a2.556 2.556 0 00-1.203 1.505c-.186.65-.09 1.36.265 1.94.316.522.924 1.046 1.562 1.157l.21.037c.37.623.982 1.12 1.773 1.349.88.254 1.795.396 2.695.567.977.19 1.965.398 2.953.527 2.239.293 4.486.593 6.738.77 2.143.17 4.285.347 6.426.517 1.051.085 2.105.148 3.157.222.572.04 1.148.04 1.722.059.815.026 1.624.054 2.438-.033a2.61 2.61 0 001.295-.337c.315-.176.587-.417.797-.7l.445.009c1.02.021 2.042.026 3.064.008 1.528-.026 3.025-.072 4.533-.348 1.08-.195 1.834-1.314 1.834-2.316 0-1.016-.755-2.101-1.834-2.317m65.83 125.284c0-.398-.102-.77-.304-1.116-.265-.45-.795-.93-1.338-1.016-.225-.038-.45-.067-.675-.092a2.72 2.72 0 00-1.263.355c-.563.325-.931.847-1.306 1.356-.267.365-.538.725-.812 1.084-1.418 1.81-2.82 3.688-4.594 5.17-1.54 1.101-3.217 2.026-4.854 2.97-1.716.99-3.525 1.823-5.33 2.638-2.818 1.052-5.68 1.932-8.567 2.774a77.409 77.409 0 01-4.37 1.161c-1.606.37-3.216.676-4.838.98-.37.05-.742.098-1.113.146-.506.067-1.018.157-1.529.188-1.222.077-2.442.171-3.666.196-3.064.06-6.145.08-9.196-.252-.626-.093-1.25-.21-1.857-.38a9.456 9.456 0 00-1.145-.456 2.412 2.412 0 00-1.241-.032 55.72 55.72 0 01-3.328-1.102 459.67 459.67 0 00-3.02-1.275 64.798 64.798 0 01-3.027-1.568 89.88 89.88 0 01-2.256-1.281c-.693-.407-1.354-.863-2.031-1.294-.756-.482-1.726-.399-2.453.06a2.474 2.474 0 00-.994.061c-.231.092-.463.189-.692.292-.541.239-.959.886-1.111 1.429-.239.856.036 1.683.622 2.325.58.638 1.243 1.143 1.933 1.656.696.514 1.418.99 2.161 1.435 1.007.605 2.07 1.096 3.144 1.566.711.312 1.42.653 2.15.928.74.276 1.483.555 2.224.83.447.17.895.304 1.354.441.67.2 1.342.45 2.024.605 1.263.285 2.517.588 3.791.804 1.01.17 2.02.323 3.03.467 1.06.297 2.137.531 3.213.766.27.06.553.09.825.132.495.08.995.171 1.493.218.611.057 1.222.122 1.835.171 1.368.112 2.733.216 4.103.303 1.35.084 2.693.11 4.044.13 1.254.019 2.52-.073 3.774-.134a41.842 41.842 0 004.168-.409c1.361-.204 2.69-.528 4.029-.842 1.479-.346 2.898-.858 4.32-1.382a28.946 28.946 0 004.276-1.995c1.897-1.071 3.717-2.365 5.257-3.9.721-.717 1.406-1.693 1.691-2.722.512-.31 1.02-.626 1.524-.948a39.569 39.569 0 002.949-2.058c.892-.69 1.626-1.57 2.364-2.41.437-.494.823-1.047 1.22-1.569.35-.456.7-.91 1.041-1.37.152-.204.303-.409.45-.614.192-.218.38-.44.563-.668.613-.761 1.342-1.605 1.342-2.63l-.003-.122m-66.478-47.3a637.39 637.39 0 01-.371-2.264c-2.556-.626-5.102-1.353-7.552-2.32a5.375 5.375 0 01-.194-.096c.636-1.287 1.4-2.511 2.14-3.734a83.131 83.131 0 013.554-5.37c.453-.63.493-1.65.3-2.377a3.096 3.096 0 00-1.372-1.844 2.932 2.932 0 00-2.304-.31c-.812.23-1.301.743-1.786 1.418-1.91 2.656-3.648 5.422-5.328 8.242-.487.814-.883 1.655-1.3 2.507-.4.82-.806 1.71-.806 2.649 0 2.34 1.867 3.93 3.712 4.919.813.435 1.693.758 2.545 1.112.979.408 1.987.736 2.99 1.069.8.268 1.612.5 2.417.75 1.342.414 2.697.775 4.05 1.148.095.025.19.05.286.077a297.523 297.523 0 01-.98-5.576m79.607-8.082a3.958 3.958 0 01-.49.286 10.5 10.5 0 00-.33.148c-1.04.478-1.774 1.576-2.112 2.616-.38 1.17-.19 2.559.432 3.621.554.947 1.41 1.58 2.287 2.192.625.436 1.251.867 1.88 1.295a38.456 38.456 0 01.152-2.63c.122-1.317.29-2.628.421-3.943l.208-2.13.425-4.297c-.903.997-1.846 1.973-2.873 2.842m2.279-23.263c-.825 1.492-.359 3.57 1.095 4.422.633.369 1.28.702 1.941.999.098-1.311.207-2.622.318-3.93.082-.971.159-1.943.24-2.915a2.998 2.998 0 00-3.594 1.424" fill="#161616"/><path d="M223.493 339.057c.352 2.55.697 5.1 1.11 7.642.114.704.23 1.407.346 2.11-.714-2.42-1.35-4.87-2.037-7.295-.288-1.019-.577-2.036-.867-3.054.071-.296.12-.602.147-.91.31.441.73.813 1.218.898l.083.609m9.812 26.985c-.04-.382-.073-.761-.11-1.14a38.668 38.668 0 00-.28-2.107 317.25 317.25 0 00-1.673-9.65c-1.11-5.933-2.245-11.875-3.05-17.86-.87-6.442-1.691-12.888-2.457-19.346-.774-6.539-1.7-13.065-2.562-19.596-.365-2.776-.667-5.564-1.073-8.336a585.7 585.7 0 00-3.028-18.535c-.268-1.504-.542-3.006-.799-4.51l-.497-2.929c-.073-.43-.127-.854-.163-1.29-.053-.607-.214-1.505-.443-2.01-.193-.433-.4-.86-.622-1.278a4.847 4.847 0 00-.726-.723c-.697-.582-1.51.048-1.913.6-.69.943-.847 2.288-.865 3.41-.047 2.843.222 5.683.4 8.514.122 1.93.147 3.852.33 5.779.142 1.486.403 2.922.681 4.387.539 2.83.859 5.706 1.305 8.55.293 1.865.602 3.725.91 5.585a1.5 1.5 0 00-.117.065 3.6 3.6 0 00-1.224 1.788 7.518 7.518 0 00-.451 2.023c-.136-.092-.274-.18-.413-.27-.792-.501-1.498-.038-1.98.621a3.883 3.883 0 00-.456.82c-.459-1.733-.916-3.466-1.373-5.2a2.543 2.543 0 00-.86-1.257c-.645-.382-1.189-.046-1.586.498a4.412 4.412 0 00-.627 1.72c-.19 1.106-.031 2.108.25 3.176l1.507 5.74a3.35 3.35 0 00-.583 1.108c-.11.421-.218.842-.325 1.262a9.08 9.08 0 000 2.908l.313 1.304c-.163.328-.29.668-.393.93-.399 1.013-.462 2.122-.478 3.194-.036 2.51.52 4.986 1 7.433a85.272 85.272 0 001.165 5.04 57.112 57.112 0 001.718 5.551c.345.927.781 1.804 1.24 2.681.147.283.324.539.524.773l.071.81c.03.406.058.812.08 1.218-.008.932.14 1.84.443 2.718.295.764.865 1.884 1.857 1.884a1.7 1.7 0 001.146-.592c.423 1.539.847 3.077 1.269 4.616.941 3.445 1.89 6.89 2.83 10.336.447 1.637 1 3.25 1.5 4.87a255.52 255.52 0 001.89 5.914c.718 2.143 1.587 4.343 2.919 6.18.393.546.917 1.005 1.41 1.46.415.379.987.456 1.511.604.547.155 1.512-.795 1.693-1.136.234-.432.457-.872.665-1.318.18-.645.343-1.293.49-1.942.152-.647.205-1.352.205-2.067 0-1.016-.107-2.054-.195-2.978" fill="#BEBEBE"/><path d="M260.375 414.235a992.365 992.365 0 00-.304-4.866c-.29-4.51-.604-9.016-.919-13.524-.084-1.182-.408-2.214-1.254-3.072a4.268 4.268 0 00-3.029-1.273c-1.13 0-2.23.46-3.028 1.273-.753.763-1.332 1.964-1.255 3.072.27 3.846.543 7.69.787 11.537.111 1.767.224 3.535.329 5.303.043.72.1 1.45.135 2.18-1.028.698-1.843 1.72-2.175 2.938-.526 1.941.254 4.089 1.985 5.116.942.56 2.2.747 3.261.42.393-.12.798-.168 1.2-.24a3.52 3.52 0 001.56-.92c.136-.06.276-.125.42-.193.743-.356 1.286-1.122 1.692-1.81.547-.927.634-2.042.702-3.092.013-.19.018-.382.018-.575 0-.756-.081-1.527-.125-2.274m18.061-1.416c-.005.033-.01.065-.013.098l.012-.103v.005m7.186-2.704c-.207-.452-.546-.816-.856-1.205-.234-.294-.865-.769-1.125-.918-.435-.253-.902-.49-1.385-.637-1.2-.362-2.442-.41-3.667-.255-.001-1.119.001-2.236.005-3.355.015-4.192.04-8.382.066-12.575.016-2.272-1.94-4.17-4.242-4.17-2.326 0-4.227 1.898-4.243 4.17-.039 5.15-.073 10.298-.13 15.447-.026 2.309-.15 4.604.188 6.897.228 1.531 1.443 2.951 2.997 3.324.72.172 1.627.265 2.338-.022.642-.26.92-.378 1.406-.701a15.43 15.43 0 012.105-1.144 12.21 12.21 0 011.72-.489 29.35 29.35 0 011.553-.063c.122-.002.247-.014.368-.02.357-.04.711-.084 1.066-.136.28-.102.554-.22.822-.348.634-.304 1.115-1.012 1.297-1.66a2.53 2.53 0 00.096-.681c0-.5-.155-.964-.38-1.459m-79.203-92.952c-1.399.072-2.796.168-4.19.267-1.494.11-2.98.316-4.47.486-.48.055-.892.226-1.243.707-.327.448-.514 1.067-.514 1.701 0 1.232.8 2.521 1.758 2.411 1.114-.126 2.228-.278 3.344-.39 1.134-.116 2.272-.17 3.408-.242a125.05 125.05 0 017.245-.259c4.718-.027 9.431.413 14.13.976 1.744.21 3.479.545 5.215.836 1.474.244 2.947.487 4.421.735 2.294.602 4.586 1.215 6.877 1.824 2.028.54 4.023 1.309 6.028 1.993.663.229 1.331.432 1.985.698l3.965 1.612c.754.307 1.493.617 2.232.992l3.192 1.618c.73.44 1.46.877 2.19 1.318.661.398 1.302.86 1.948 1.297.679.46 1.355.96 2.007 1.479.38.304.759.607 1.13.926.135.115.265.23.41.316.202.118.403.236.606.352.283.099.572.132.861.184.37 0 .715-.129 1.034-.382.458-.365.799-.975.941-1.674.251-1.256-.166-2.48-.941-3.17l-.104-.09a7.542 7.542 0 00-1.076-.937 45.66 45.66 0 00-1.496-.998c-.99-.644-1.989-1.251-2.989-1.864-1.092-.665-2.21-1.253-3.316-1.872-.323-.184-.664-.322-.995-.481-.741-.355-1.481-.712-2.222-1.066-2.057-.99-4.183-1.713-6.28-2.524-.687-.267-1.388-.476-2.082-.704-1.437-.47-2.876-.94-4.313-1.413-2.004-.654-4.047-1.085-6.073-1.6-1.027-.261-2.06-.59-3.1-.753-.862-.131-1.723-.272-2.584-.407-2.615-.415-5.229-.893-7.85-1.195-3.18-.366-6.365-.652-9.554-.795a83.6 83.6 0 00-3.613-.075c-1.975 0-3.95.063-5.922.163" fill="#161616"/><path d="M344.578 318.75c.031.005.061.012.092.019l-.092-.02m-16.05-5.699l-3.51.132c-1.37.05-2.73.189-4.096.321l-3.526.344c-.48.045-.964.062-1.442.142-1.974.338-3.948.673-5.92 1.01-.66.11-1.317.222-1.973.335-.718.123-1.428.344-2.14.523l-3.504.898c-.517.132-1.041.235-1.555.4l-5.848 1.88a130.226 130.226 0 00-8.99 3.248 72.656 72.656 0 00-6.796 3.161 38.66 38.66 0 00-3.207 1.927c-1.125.75-2.204 1.648-3.259 2.59-1.533 1.365-2.96 2.99-4.363 4.625-.267.312-.399.936-.399 1.416 0 .527.145 1.038.4 1.412.252.374.6.586.962.586.393 0 .666-.242.963-.586.217-.255.434-.509.653-.76 1.026-1.14 2.065-2.25 3.162-3.235a30.002 30.002 0 013.939-3.014c2.11-1.276 4.284-2.298 6.469-3.266 2.298-1.018 4.629-1.877 6.964-2.704 2.206-.783 4.42-1.474 6.639-2.166 1.384-.432 2.762-.912 4.158-1.253 1.988-.488 3.979-.971 5.968-1.458 1.74-.262 3.48-.558 5.218-.835l2.429-.388c.45-.071.905-.082 1.356-.12 2.086-.177 4.172-.357 6.258-.533.453-.039.906-.033 1.36-.045 1.167-.023 2.335-.046 3.504-.073.501-.012 1.007-.053 1.508-.032.662.026 1.322.059 1.982.088 1.346.062 2.692.103 4.037.224 1.531.137 3.061.28 4.592.45 1.433.16 2.868.359 4.3.52.431.336 1.017.256 1.426-.094.582-.5.885-1.556.698-2.516-.086-.441-.204-.827-.43-1.156a2.413 2.413 0 00-.881-.78c-.488-.25-1-.314-1.511-.409-.377-.067-.764-.097-1.143-.13-.82-.07-1.64-.143-2.46-.208-1.782-.144-3.566-.262-5.349-.382-.652-.045-1.305-.039-1.955-.056l-3.121-.08a7.715 7.715 0 00-.23-.003c-.445 0-.892.032-1.337.05" fill="#161616"/><path d="M341.657 314.863c-.345.509-.637 1.346-.588 2.088.264 4.084.49 8.176.623 12.275.115 3.49.215 6.988.143 10.482-.153 7.331-.517 14.636-1.03 21.93l-.085 1.211c-.23 2.308-.473 4.604-.786 6.89-.399 2.922-.914 5.88-.934 8.873-.01 1.504.713 2.87 1.697 3.267.595.242 1.245.118 1.778-.34.54-.462.87-1.173 1.062-2.027.394-1.754.539-3.598.74-5.416.189-1.699.375-3.402.537-5.107.349-3.613.582-7.239.73-10.88.14-3.543.273-7.08.348-10.627.074-3.546.15-7.098.08-10.646-.131-6.644-.45-13.27-.883-19.885-.053-.811-.184-1.492-.59-2.088-.374-.55-.89-.863-1.42-.863-.531 0-1.046.314-1.422.863" fill="#161616"/><path d="M277.962 386.688c-.061.035-.121.07-.182.103l.182-.103m24.433-9.794l-.14.025.14-.025m-.907-4.116c-1.894.372-3.795.698-5.67 1.225-.667.188-1.334.372-2 .56-.33.092-.665.168-.99.28l-3.424 1.186c-1.825.632-3.628 1.404-5.425 2.174-1.813.78-3.62 1.58-5.437 2.34-.848.354-1.775.641-2.529 1.29-.943.81-1.317 2.452-.736 3.794.268.621.714 1.082 1.226 1.276l.547.097c.37 0 .716-.127 1.035-.377l.148-.09.827-.478c1.65-.91 3.303-1.817 4.978-2.639.91-.445 1.815-.934 2.735-1.341l3.176-1.4c.983-.432 1.99-.775 2.983-1.157.799-.31 1.6-.563 2.412-.818.879-.277 1.757-.61 2.648-.814 1.244-.28 2.487-.563 3.73-.842.274-.063.547-.124.82-.176a54.192 54.192 0 013.79-.56c1.458-.152 2.921-.16 4.38-.133 2.9.05 5.813.264 8.693.75 3.82.713 7.598 1.818 11.38 2.818.36.092.714.23 1.068.347l2.814.926c.9.296 1.803.595 2.704.89.92.305 1.817.68 2.721 1.057.785.325 1.641-.377 1.854-1.423.223-1.096-.268-2.18-1.051-2.506-.704-.293-1.404-.619-2.119-.855l-1.37-.451-4.071-1.34c-.61-.202-1.217-.432-1.832-.596-1.1-.29-2.2-.584-3.298-.876-3.267-.867-6.525-1.749-9.836-2.249-2.874-.434-5.775-.613-8.666-.662a31.698 31.698 0 00-.575-.005c-2.555 0-5.114.284-7.64.778m-32.978-39.663c-.513.22-.96.757-1.229 1.474-.07.255-.139.512-.207.766a4.975 4.975 0 000 1.706c.088 1.031.18 2.06.27 3.091.296 3.502.499 7.02.732 10.535.176 2.67.416 5.343.493 8.026l.173 5.938c.033 1.163.093 2.328.089 3.49-.008 1.799 0 3.597-.026 5.392-.026 2.016-.058 4.005.148 6.003.097.933.217 1.844.395 2.75.207 1.06.606 1.94 1.068 2.763.613 1.095 1.766 1.215 2.537.511.94-.858 1.385-2.986.75-4.466a7.33 7.33 0 01-.147-.353c-.156-.763-.24-1.567-.311-2.361-.287-3.676-.111-7.405-.238-11.094-.111-3.193-.223-6.384-.33-9.576-.035-1.015-.137-2.036-.206-3.045l-.422-6.27c-.115-1.732-.232-3.464-.349-5.196-.176-2.622-.432-5.23-.658-7.844-.067-.772-.536-1.544-.945-1.917-.317-.29-.678-.438-1.041-.438-.183 0-.368.038-.546.115m-69.378-8.91c-.706.486-.829 1.744-.887 2.733-.027.463-.031.926-.065 1.388-.05.655-.098 1.307-.126 1.965a62.817 62.817 0 00-.035 4.189c.049 2.293.138 4.593.23 6.883.08 2.079.177 4.152.286 6.227.088 1.638.156 3.277.254 4.913.065 1.083.102 2.175.213 3.249.051.503.104 1.007.157 1.51.039.361.059.737.118 1.092.154.928.306 1.851.5 2.765.215 1.033.503 2.037.86 2.986.265.713.895 1.042 1.427.833.64-.25 1.097-1.29.882-2.227-.292-1.287-.465-2.626-.656-3.95a141.58 141.58 0 01-.498-3.936c-.285-3.477-.627-6.944-.908-10.423-.16-2.014-.32-4.028-.467-6.045a165.47 165.47 0 01-.297-4.826 61.176 61.176 0 01-.04-3.895c.012-.585.054-1.167.068-1.75.008-.325.007-.65.014-.975a.69.69 0 00.102-.031c.47-.183.788-.931.64-1.613-.12-.552-.319-.966-.715-1.164a.97.97 0 00-.433-.103c-.214 0-.429.072-.624.205" fill="#161616"/><path d="M212.539 361.003c-1.748.018-3.495.104-5.24.21-.849.055-1.699.111-2.548.197-.805.084-1.61.206-2.412.304-.367.044-.682.187-.946.585-.252.372-.393.883-.393 1.413 0 1.022.61 2.084 1.339 1.998.802-.098 1.607-.212 2.412-.304.945-.106 1.893-.151 2.84-.21 1.94-.122 3.88-.194 5.82-.197 3.805-.003 7.598.413 11.39.874 2.981.36 5.954.838 8.931 1.255.762.163 1.525.32 2.288.482.64.133 1.286.243 1.923.416 1.608.437 3.22.856 4.821 1.346 1.695.518 3.389 1.047 5.078 1.609.662.22 1.329.41 1.982.669l2.98 1.177c1.457.574 2.89 1.276 4.327 1.933a84.058 84.058 0 014.348 2.155c3.088 1.639 6.131 3.425 9.167 5.263a67.972 67.972 0 013.022 2.013c.483.341.957.708 1.435 1.067.467.351.926.7 1.363 1.129.315.362.609.613 1.027.613.4 0 .787-.24 1.068-.66.57-.85.6-2.346 0-3.19-.663-.93-1.404-1.645-2.203-2.28a24.078 24.078 0 00-2.353-1.66 102.894 102.894 0 00-4.508-2.616c-2.89-1.585-5.776-3.226-8.716-4.6a269.763 269.763 0 00-4.988-2.277c-.618-.273-1.233-.565-1.857-.805-1.016-.393-2.034-.783-3.052-1.175-1.454-.559-2.936-.978-4.404-1.451-.811-.261-1.628-.484-2.443-.728-.626-.188-1.249-.384-1.877-.55-1.62-.428-3.235-.88-4.865-1.213-1.006-.206-2.013-.407-3.022-.613-.63-.128-1.26-.208-1.892-.297-6.394-.908-12.8-1.885-19.227-1.885-.206 0-.41.002-.615.003" fill="#161616"/><path d="M198.278 319.635c-.717 2.011-1.444 4.02-2.076 6.088-.64 2.093-1.136 4.306-1.197 6.598-.03 1.113.07 2.245.207 3.337.15 1.192.393 2.355.658 3.502.197.856.424 1.7.639 2.548.367 1.448.737 2.896 1.098 4.347.088.358.161.73.241 1.095.066.306.145.614.199.93.132.745.283 1.49.39 2.244.088.615.196 1.231.258 1.852l.18 1.788c.24 2.903.478 5.803.646 8.714.08 1.368.12 2.741.208 4.112.022.342.046.683.073 1.025.034.44.07.918.158 1.348.088.43.2.847.347 1.243.103.277.216.544.325.816.012.06.023.12.032.183.005.112.01.223.01.335.009.424.029.825.087 1.243.06.438.251.825.462 1.14.27.404.709.532 1.082.492.426-.045.825-.267 1.219-.483.257-.142.514-.281.769-.424a23.241 23.241 0 013.192-1.46c1.313-.478 2.65-.823 3.99-1.126 1.128-.2 2.255-.405 3.384-.608.327-.06.66-.077.991-.108.79-.077 1.578-.154 2.37-.227a82.77 82.77 0 012.909-.217c1.008-.062 2.016-.156 3.025-.165l4.196-.031c.237-.003.472.022.71.046l2.109.198c.785.075 1.57.148 2.355.225.351.032.709.043 1.06.1 1.242.202 2.483.432 3.724.645.49.085.98.177 1.47.26 1.19.316 2.378.627 3.567.941.785.208 1.566.41 2.343.668 2.192.73 4.389 1.442 6.575 2.199 2.24.774 4.481 1.559 6.726 2.307a1000.9 1000.9 0 017.33 2.463 73.88 73.88 0 007.677 2.153c.22.048.414.051.612-.113.177-.148.31-.39.365-.672.111-.571-.134-1.246-.554-1.382a237.403 237.403 0 01-7.008-2.435c-1.126-.407-2.25-.833-3.377-1.249-.93-.344-1.863-.66-2.797-.984-2.314-.805-4.627-1.624-6.94-2.446-2.193-.777-4.389-1.525-6.585-2.276-.821-.278-1.638-.594-2.467-.822-1.428-.386-2.853-.774-4.281-1.163a12.918 12.918 0 00-1.066-.259l-1.684-.301c-1.211-.217-2.421-.452-3.632-.652-.378-.06-.761-.074-1.136-.11l-2.377-.231c-.689-.065-1.378-.134-2.066-.2a7.25 7.25 0 00-.699-.042c-1.403.011-2.804.02-4.208.028-1.022.006-2.046.112-3.068.174-.967.06-1.93.125-2.897.222l-2.36.23c-.322.032-.641.051-.958.111l-2.142.393c-.58.105-1.167.187-1.745.321-1.596.367-3.184.808-4.742 1.431-1.08.435-2.119 1.018-3.158 1.615-.123.072-.246.142-.37.21-.003-.122-.005-.244-.01-.366-.014-.484-.122-.924-.183-1.394-.052-.401-.094-.807-.139-1.21-.106-1.305-.175-2.618-.254-3.926a134.84 134.84 0 00-.317-4.215l.01.104c-.03-.318-.04-.687-.097-1.025a27.917 27.917 0 00-.02-.206l-.102-1.076.042.441c-.158-1.687-.343-3.367-.524-5.052-.076-.734-.185-1.459-.277-2.19-.05-.378-.13-.757-.196-1.132-.055-.319-.103-.64-.169-.956-.153-.737-.287-1.485-.472-2.21-.188-.745-.373-1.49-.578-2.227-.416-1.482-.833-2.964-1.235-4.455-.519-1.934-1.006-3.878-1.228-5.932a19.082 19.082 0 01-.021-2.964c.169-1.487.488-2.928.89-4.318.63-2.08 1.362-4.095 2.082-6.114.224-.63.122-1.402-.328-1.774a.723.723 0 00-.464-.172c-.319 0-.64.217-.788.635" fill="#161616"/><path d="M202.96 324.967a.968.968 0 01-.128.141l.128-.141m11.478-5.912c-2.135.757-4.272 1.513-6.407 2.282a89.04 89.04 0 00-2.449.93c-.4.16-.8.339-1.186.556-.538.301-1.027.717-1.35 1.432-.12.267-.212.55-.297.84l-.026.075c-.47.212-.976.3-1.462.4-.38.07-.759.144-1.138.224-.397.081-.778.245-1.154.437-.56.283-.969.942-.969 1.836 0 .503.14.99.387 1.345.266.385.57.504.932.559.533.08 1.049-.018 1.576-.137.44-.101.88-.196 1.32-.317a7.25 7.25 0 001.269-.484 2.993 2.993 0 001.44-1.53c.155-.354.25-.745.35-1.133l.007-.021c.044-.037.09-.072.136-.106 1.345-.74 2.755-1.235 4.145-1.756 1.839-.692 3.688-1.337 5.534-1.996.652-.232 1.036-1.273.862-2.193-.153-.802-.661-1.298-1.207-1.298a.93.93 0 00-.313.055" fill="#161616"/><path d="M213.408 322.192c-.74.152-1 1.376-1.11 2.263a9.798 9.798 0 00-.047.577 6.66 6.66 0 00-.867.265c-.29.046-.511.25-.663.615-.29.56-.41 1.332-.448 2.047-.507.018-1.013.047-1.521.075-.607.037-1.207.095-1.81.18-.618.09-1.21.329-1.809.547-.291.046-.513.25-.665.615a5.146 5.146 0 00-.4 1.564c-.157 1.27-.086 3.169.71 4.033l.279.302c.243.126.492.224.746.298.314.11.673.053 1 .104l1.68.276.009.001a9.11 9.11 0 00-.055 1.076 8.992 8.992 0 00.252 2.197c.185.678.483 1.45 1.06 1.522l.254.03c.23.776.601 1.396 1.19 1.507.704.134 1.417.087 2.129.02.219.408.504.72.859.692 5.057-.422 10.12-.792 15.174-1.321.248-.04.462-.16.64-.361l.143-.016c.628-.068.955-.924 1.153-1.657.394-1.453.394-3.337 0-4.787-.167-.617-.48-1.499-1.006-1.64a8.532 8.532 0 00.18-2.054l.04.006c1.466.22 2.924.497 4.396.608.68.052.962-1.458 1.043-2.13a8.6 8.6 0 000-1.968c-.073-.603-.254-1.649-.696-1.97-1.476-1.083-3.117-1.354-4.743-1.626-.91-.153-1.819-.298-2.728-.443a4.95 4.95 0 00-.102-.25 3.684 3.684 0 00-.359-.537 2.343 2.343 0 00-.711-.26 2.331 2.331 0 01-.43-.004l-.57-.051c-.469-.044-.935-.084-1.404-.124a165.29 165.29 0 00-3.403-.238c-.927-.058-1.858-.078-2.784-.1-.803-.021-1.615-.075-2.425-.075-.731 0-1.46.043-2.18.192" fill="#FEFEFE"/><path d="M263.504 367.052c.278-.821.482-1.762.643-2.684.147.835.298 1.67.468 2.497.157.756.329 1.505.486 2.261.005.032.01.064.013.096a25.299 25.299 0 00-.854-.703 11.29 11.29 0 00-1.005-.698c.08-.251.16-.508.25-.77zm.644-2.694l.013.075-.013-.075zm-.258-1.444l.092.521-.092-.521zm-56.928-28.952c1.258-.11 2.538-.233 3.798-.187 1.03.036 2.049.11 3.069.298l-.093.089c-.487.084-.974.28-1.439.44-.73.25-1.444.615-2.109 1.117-.69.517-1.246 1.47-1.686 2.375-.405.832-.68 1.823-.967 2.744-.396 1.282-.577 2.76-.797 4.112a22.824 22.824 0 00-.227 5.13c-.127.899-.226 2.116-.188 2.839.047.901.1 1.8.15 2.702.151 1.013.298 2.024.576 2.983.345 1.19.845 2.25 1.476 3.112-.9.228-1.795.461-2.69.719l.04-.951c.067-1.8.176-3.598.232-5.398.055-1.706.063-3.414.133-5.117.073-1.783.172-3.56.206-5.344.028-1.39-.041-2.75-.143-4.138-.089-1.226-.335-2.414-.57-3.597-.247-1.252-.516-2.501-.781-3.749.672-.078 1.346-.122 2.01-.18zm-3.877-7.179l.067.371a341.31 341.31 0 00.158.89l-.225-1.26zm.248-4.648c-.45.034-.9.123-1.338.263-.394.127-.918.334-1.236.744-1.379 1.78-1.724 4.46-1.758 7.03a18.618 18.618 0 00.85 5.742c.222.693.399 1.413.61 2.113.235.77.457 1.546.645 2.347.22.938.425 1.883.624 2.834.134.65.297 1.287.448 1.93.023 1.788-.05 3.583-.115 5.369-.077 2.17-.048 4.344-.127 6.512-.085 2.36-.153 4.717-.232 7.075-.072 2.093-.016 4.341.432 6.328.298 1.32.91 3.122 2.028 3.17.329.014.706-.299 1.02-.48 1.05-.425 2.123-.696 3.193-.981 1.18-.316 2.365-.609 3.548-.884 2.454-.578 4.944-.917 7.418-1.267 1.334-.19 2.681-.27 4.02-.376 1.328-.106 2.66-.19 3.99-.163 2.725.054 5.453.272 8.17.548 2.256.226 4.508.508 6.758.864 2.004.319 3.999.758 5.994 1.183 2.15.454 4.29.954 6.43 1.505a44.994 44.994 0 015.884 1.959c1.136.559 2.25 1.152 3.312 1.974.51.396 1.009.827 1.498 1.264.219.195.43.402.643.606.155.149.31.281.482.379.51.284.729.416 1.24.069.733-.497 1.022-2.223 1.124-3.202.077-.747.093-1.542.107-2.303.016-.873-.008-1.749-.022-2.618-.034-2.189-.071-4.42-.373-6.567-.294-2.093-.786-4.098-1.163-6.157-.317-1.745-.629-3.488-.972-5.222-.34-1.703-.804-3.326-1.175-5.011-.36-1.64-.629-3.316-.99-4.953a43.635 43.635 0 00-1.514-5.33c-.57-1.587-1.716-2.372-2.752-3.155-1.036-.78-2.115-1.375-3.192-2.024-1.147-.686-2.262-1.47-3.405-2.16-2.625-1.576-5.406-2.618-8.142-3.684-2.617-1.022-5.29-1.737-7.964-2.363-1.48-.345-2.97-.577-4.461-.812-.353-.057-.707-.1-1.061-.135l-.28-.072c-2.07-.531-4.205-.767-6.302-.913a27.6 27.6 0 00-4.191.034 16.3 16.3 0 00-1.895.279 6.237 6.237 0 00-.932.292 5.696 5.696 0 00-.69.289c-1.157-.501-2.321-.966-3.5-1.32-1.795-.539-3.65-.623-5.48-.668a61.828 61.828 0 00-1.43-.017c-1.26 0-2.52.041-3.776.135z" fill="#FEFEFE"/><path d="M213.208 347.064l-.02.119.02-.119m10.037-20.132a19.735 19.735 0 00-4.078 1.562 8.71 8.71 0 00-1.912 1.325 8.96 8.96 0 00-.83 1.203c-.238.417-.458.853-.689 1.28l-.44 1.304a15.036 15.036 0 00-.318 1.929 9.583 9.583 0 00-.404.423c-.98 1.085-1.844 2.527-2.45 4.099-.74 1.913-1.05 4.172-1.115 6.359a21.65 21.65 0 00.641 5.893c.471 1.884 1.451 3.185 2.403 4.531.226.213.453.213.677 0 .43-.38.602-1.352.68-2.006a9.268 9.268 0 000-2.003c-.096-.818-.277-1.434-.68-2.006-.22-.311-.439-.624-.658-.937-.23-.402-.431-.819-.617-1.266a14.414 14.414 0 01-.166-.707 12.895 12.895 0 01-.041-.342 21.253 21.253 0 010-.505c.018-.17.037-.34.06-.51.058-.277.122-.548.194-.821.223-.554.479-1.052.77-1.538.524-.71 1.08-1.303 1.673-1.804.106.17.223.33.35.48 1.6 1.185 3.4 1.635 5.132 2.218 1.054.356 2.13.588 3.195.872 2.156.572 4.334.951 6.502 1.399 2.18.447 4.387.705 6.575 1.051a59.22 59.22 0 006.654.682c-.02.75.017 1.5.1 2.208a9.18 9.18 0 00.665 2.693l.509.78c.39.373.781.373 1.172 0 .948-.605 1.848-1.364 2.748-2.11.759-.628 1.523-1.254 2.268-1.92.455-.407.898-.848 1.34-1.284.654-.637 1.205-1.534 1.692-2.426.577-1.055.894-2.73 1.048-4.034a17.9 17.9 0 000-3.872l-.078-.59a10.274 10.274 0 00-.747-3.023c-.732-1.967-2.032-2.818-3.376-3.606-.983-.58-2.001-1.054-3-1.582-2.69-1.42-5.512-2.353-8.32-3.108-2.871-.774-5.793-1.13-8.71-1.21-.32-.008-.641-.013-.962-.013-2.494 0-5.007.281-7.457.932m107.7-12.931c-1.368.006-2.738 0-4.104.088l-.224.015c-1.432-.123-2.896.013-4.329.31a57.61 57.61 0 00-3.494.402c-2.946.436-5.883.923-8.823 1.445-2.591.458-5.186 1.057-7.767 1.63a82.916 82.916 0 00-8.23 2.276c-1.31.436-2.631.838-3.919 1.39-1.672.721-3.32 1.51-4.968 2.328-2.477 1.225-4.925 2.613-7.33 4.086-1.01.622-1.794 1.42-2.472 2.716-.04.076-.08.155-.117.235-.693-.338-1.19.297-1.679 1.084-.479.772-.697 2.189-.838 3.132-.074.504-.114.994-.145 1.507-.062 1.037-.116 2.074-.173 3.112-.05.9-.063 1.806-.085 2.709-.05 1.992-.105 3.98-.169 5.973-.056 1.726-.119 3.448-.046 5.177.108 2.542.32 5.072.465 7.61l-.006-.117c.18 3.032.38 6.059.58 9.09.1 2.089.176 4.18.312 6.266.107 1.62.434 3.52 1.123 4.87.23.45.498.884.822 1.2.576.566 1.37.506 2.017.382 1.088-.209 2.178-.887 3.179-1.474a61.082 61.082 0 012.134-1.18 85.123 85.123 0 013.61-1.784c2.526-1.125 5.049-2.274 7.606-3.242 2.581-.977 5.227-1.632 7.874-2.126 2.72-.504 5.434-.647 8.174-.632 2.617.012 5.277.037 7.884.393 2.563.351 5.083.924 7.616 1.573 2.161.556 4.324 1.174 6.5 1.613.98.2 1.936.294 2.929.213.466-.039 1.1-.15 1.475-.504.965-.906 1.555-2.527 1.844-4.066.298-1.587.53-3.026.63-4.636.253-4.056.238-8.125.388-12.19.2-3.07.451-6.143.8-9.183.208-1.81.436-3.61.638-5.42.205-1.857.272-3.744.396-5.613.057-.857.127-1.712.196-2.57.042-.534.091-1.072.135-1.61a19.61 19.61 0 00.477-2.6c.304-2.475.218-5.307-.425-7.672l-.647-1.833c-.403-.965-.991-1.51-1.766-1.632l-.03-.011a5.953 5.953 0 00-1.05-1.183c-.464-.396-1.042-.519-1.556-.752-.395-.18-.81-.28-1.217-.385-1.294-.342-2.622-.411-3.939-.411h-.256" fill="#FEFEFE"/><path d="M339.444 318.768l.25.05a13.677 13.677 0 01-.25-.05m-13.758-6.643c-2.075.112-4.151.27-6.225.412-1.985.136-3.977.256-5.958.478a67.817 67.817 0 00-3.353.451c-1.057.17-2.11.378-3.165.58-2.148.412-4.278.99-6.405 1.6-.939.27-1.874.567-2.808.855-.896.272-1.797.56-2.681.896a170.644 170.644 0 00-10.661 4.435c-1.641.752-3.243 1.663-4.84 2.595-1.305.763-2.6 1.54-3.888 2.371-2.415 1.56-4.695 3.46-6.883 5.63a2.635 2.635 0 00-.76 1.463 3.53 3.53 0 00.166 1.885c.435 1.098 1.513 1.618 2.262.879a52.939 52.939 0 013.4-3.079c1.145-.952 2.344-1.751 3.552-2.516 1.282-.79 2.578-1.501 3.876-2.222.937-.52 1.885-.967 2.84-1.425 1.943-.935 3.927-1.683 5.902-2.455a191.86 191.86 0 015.87-2.184c1.8-.636 3.636-1.138 5.457-1.618a144.41 144.41 0 015.29-1.283c1.882-.323 3.763-.668 5.656-.835 2.02-.178 4.043-.296 6.067-.406 4.115-.223 8.228-.496 12.347-.466 1.544.009 3.086.089 4.63.172a35.15 35.15 0 014.467.51c.448.088.894.17 1.34.238.166.18.353.317.551.398.752.309 1.514-.196 1.921-1.158.323-.76.436-1.68.273-2.556-.186-1-.746-1.725-1.333-2.214-.556-.467-1.175-.592-1.795-.72a32.944 32.944 0 00-3.255-.521 55.998 55.998 0 00-2.982-.209c-.933-.044-1.87-.106-2.804-.106-2.024 0-4.049.011-6.07.125" fill="#161616"/><path d="M275.888 382.058l.008.089a1.707 1.707 0 01-.008-.089m.019-.498l-.013.13a.11.11 0 01-.003-.011c.004-.04.009-.08.016-.119m-7.392-48.837c-.288.412-.564 1.138-.508 1.745.338 3.675.685 7.35 1.004 11.032.276 3.19.574 6.383.767 9.587.378 6.23.646 12.474 1.101 18.695.105 1.46.184 2.927.3 4.386.075.942.153 1.887.289 2.818.083.566.256 1.126.434 1.641.3.872.78 1.474 1.332 2.014.522.514 1.304.442 1.834 0 .66-.55 1.098-1.823.838-2.904.053-.44.098-.885.094-1.33a17.204 17.204 0 00-.128-1.716c-.085-.777-.193-1.551-.288-2.329a998.72 998.72 0 01-.607-5.09c-.397-3.373-.726-6.754-1.051-10.142a2973.734 2973.734 0 00-1.461-16.04c-.331-3.54-.66-7.083-.99-10.622-.062-.685-.147-1.237-.507-1.745-.322-.46-.767-.723-1.226-.723-.46 0-.902.263-1.227.723" fill="#161616"/><g transform="translate(272 371)"><mask id="b" fill="#fff"><use xlink:href="#a"/></mask><path d="M25.447 1.66l.33-.06.156-.03c-.162.028-.324.06-.486.09zM19.115 8a11.64 11.64 0 01-.257.05l.257-.05zM41.285.35c-2.65.006-5.293.123-7.938.316-1.259.091-2.518.256-3.774.392a53.29 53.29 0 00-3.797.541c-.849.161-1.697.324-2.548.488l.481-.094c-1.662.318-3.318.687-4.976 1.046-1.525.33-3.03.789-4.538 1.246-.691.21-1.374.48-2.061.733A28.94 28.94 0 008.072 6.88c-2.37 1.307-4.637 2.975-6.844 4.759-.782.63-1.042 2.116-.592 3.21.46 1.116 1.474 1.471 2.257.844 1.625-1.308 3.287-2.56 4.998-3.616 1.435-.842 2.908-1.621 4.419-2.134l2.457-.836c.775-.267 1.572-.434 2.353-.647.717-.198 1.443-.328 2.163-.49 1.845-.351 3.69-.702 5.539-1.016 2.028-.346 4.06-.574 6.1-.756 3.94-.358 7.883-.426 11.83-.406 2.172.008 4.35.248 6.518.424 2.06.17 4.103.497 6.147.855 1.474.33 2.943.667 4.405 1.082.728.207 1.447.466 2.168.713.869.296 1.732.582 2.633.605.827.023 1.582-.824 1.8-1.948a3.694 3.694 0 00-.187-2.046 2.269 2.269 0 00-1.117-1.222c-.88-.457-1.8-.73-2.71-1.031a32.308 32.308 0 00-2.73-.764c-2.16-.517-4.326-.92-6.5-1.29-1.831-.31-3.685-.432-5.528-.56-2.097-.146-4.189-.258-6.288-.258h-.079z" fill="#161616" mask="url(#b)"/></g><path d="M342.494 319.194c-.458.385-.645 1.297-.357 1.959.131.305.262.607.392.912.198.456.372.913.527 1.398.23.853.36 1.722.496 2.615.042.268.055.552.081.826l.061.617c.084 1.525.166 3.045.205 4.574.022.869.028 1.736.03 2.605.002.655-.028 1.311-.046 1.966-.081 3.104-.168 6.208-.226 9.315-.091 4.875-.198 9.745-.287 14.62-.014.76.452 1.399.971 1.399.553 0 .943-.638.973-1.4.262-6.63.384-13.27.555-19.906.041-1.56.077-3.119.115-4.677a75.43 75.43 0 00-.044-4.444 74.493 74.493 0 00-.097-2.072c-.055-.875-.095-1.756-.184-2.626-.052-.478-.101-.957-.15-1.433-.038-.37-.112-.738-.17-1.103a15.758 15.758 0 00-.503-2.144 12.77 12.77 0 00-.467-1.305l-.303-.698-.21-.485c-.193-.445-.527-.707-.87-.707a.757.757 0 00-.492.194m-147.438 27.86l.016.177a20.477 20.477 0 01-.016-.176zm6.267-28.97c-.546.119-1.07.32-1.6.55-.678.296-1.336.71-1.995 1.09-.362.21-.728.424-1.076.671-.228.164-.455.322-.677.497-.482.38-.861.958-1.187 1.583-.53 1.012-.926 2.149-1.206 3.352-.31 1.346-.553 2.819-.58 4.234-.045 2.554.502 4.997.852 7.471.33 2.342.654 4.683.926 7.04.12 1.021.226 2.044.33 3.069.082.878.167 1.756.254 2.634.213 2.262.44 4.516.682 6.774.25 2.336.545 4.663.825 6.993.258 2.146.487 4.307.823 6.433.193 1.234.437 2.394.801 3.55a4.15 4.15 0 001.02 1.668c.417.406.878.573 1.377.593.236.009.477-.08.709-.124.19-.037.38-.095.57-.146.267-.072.53-.167.794-.25a62.555 62.555 0 013.319-.956 82.166 82.166 0 013.652-.815l2.557-.385c.837-.126 1.682-.187 2.523-.279.813-.089 1.634-.097 2.452-.143.774-.04 1.551-.058 2.328-.078 1.527-.043 3.057-.13 4.587-.132.897-.003 1.803-.052 2.7-.006.884.043 1.766.086 2.65.132.848.043 1.697.165 2.545.245.841.083 1.684.17 2.525.253 1.476.147 2.953.21 4.428.337l3.107.267c.784.066 1.564.19 2.345.29 1.526.196 3.047.415 4.566.685l1.748.31c1.312.268 2.625.537 3.934.827 1.32.294 2.645.607 3.939 1.079.664.241 1.332.46 1.986.748.745.328 1.491.652 2.234.995.632.294 1.262.593 1.896.889.73.342 1.455.713 2.216.898.251.097.503.097.754 0 .356-.141.664-.478.85-.933a2.804 2.804 0 00.143-1.565c-.089-.468-.335-1-.653-1.214-1.618-1.078-3.298-1.892-4.987-2.707-.684-.328-1.376-.664-2.075-.926-.786-.296-1.572-.642-2.37-.866-1.609-.452-3.215-.872-4.836-1.196a175.666 175.666 0 00-5.58-1.025c-1.68-.282-3.376-.429-5.063-.607a74.357 74.357 0 00-4.464-.305 263.191 263.191 0 01-5.39-.276c-1.537-.1-3.076-.207-4.616-.21-1.642-.003-3.284.02-4.927.144-1.821.135-3.645.267-5.468.394-3.188.222-6.38.667-9.533 1.363a94.23 94.23 0 00-3.625.875c-1.142.303-2.28.633-3.428.907l-.068.006c-.16-2.31-.33-4.615-.601-6.906a235.87 235.87 0 00-.892-6.584c-.338-2.29-.698-4.575-1.016-6.87a410.01 410.01 0 00-.938-6.488c-.413-2.66-.898-5.305-1.385-7.943a126.461 126.461 0 00-.779-3.955c-.137-.633-.28-1.263-.408-1.902a18.885 18.885 0 01-.249-1.756 14.45 14.45 0 01.02-2.123c.047-.457.099-.914.178-1.362.102-.575.227-1.133.373-1.685.152-.458.32-.893.519-1.314.091-.15.184-.288.288-.423.7-.687 1.49-1.169 2.267-1.66.79-.452 1.584-.858 2.422-1.076a8.413 8.413 0 011.064-.022c.516.017.946-.628.946-1.352 0-.75-.43-1.338-.946-1.355-.164-.006-.328-.01-.492-.01-.306 0-.61.017-.914.085zm65.128 18.55c-.265.376-.482.989-.447 1.535.115 1.818.22 3.634.406 5.437.152 1.445.301 2.89.453 4.338.145 1.415.293 2.834.44 4.249.058.551.13 1.077.218 1.623.371 2.312.716 4.635 1.116 6.94l.674 3.888c.174 1.007.304 2.032.453 3.047.121.814.183 1.655.271 2.478.088.816.171 1.63.253 2.445l.043.489c.046.525.116.951.391 1.342.248.353.59.555.943.555.695 0 1.374-.864 1.333-1.897a93.659 93.659 0 00-.207-3.483c-.088-1.155-.162-2.314-.3-3.458-.123-1.033-.233-2.072-.395-3.097-.19-1.208-.384-2.416-.572-3.625l-1.134-7.226c-.086-.555-.138-1.116-.195-1.676l-.474-4.547c-.143-1.371-.287-2.743-.428-4.116-.096-1.233-.162-2.47-.24-3.706-.039-.595-.142-1.098-.447-1.535-.285-.403-.675-.634-1.079-.634-.402 0-.793.23-1.076.634" fill="#161616"/><path d="M215.782 319.01c-.513.027-1.023.167-1.524.31-.496.142-.982.323-1.466.524-.416.17-.82.374-1.23.57-.65.305-1.285.65-1.918 1.005-.644.364-1.272.752-1.867 1.243-.144.117-.278.265-.41.405a4.91 4.91 0 00-.567.707 22.22 22.22 0 00-1.188 2.067c-.149.288-.304.572-.462.855a5.875 5.875 0 01-.596.82 5.16 5.16 0 01-.778.624c-.18.078-.363.122-.549.16a30.83 30.83 0 00-2.031.386c-.505.117-1.003.26-1.503.413-.508.16-.994.406-1.474.682a2.482 2.482 0 00-.856.849c-.214.352-.386.74-.556 1.13-.255.584-.449 1.2-.643 1.822.019-.059.04-.12.058-.182a26.63 26.63 0 00-.195.66c-.089.309.055.686.253.842.236.19.63.104.751-.268.121-.365.25-.728.387-1.086a9.42 9.42 0 01.381-.846c.124-.247.244-.499.376-.74.061-.1.122-.197.189-.29a2.73 2.73 0 01.324-.232c.536-.275 1.098-.44 1.66-.59a37 37 0 011.674-.388c.422-.074.847-.143 1.272-.212.24-.04.484-.086.72-.162.272-.084.531-.282.772-.466.416-.321.805-.73 1.132-1.201.213-.308.391-.654.575-.992.1-.184.197-.371.294-.561.183-.368.37-.726.567-1.08.117-.197.234-.39.357-.585.104-.161.21-.318.324-.469.091-.119.198-.224.3-.33a2.12 2.12 0 01-.08.085c.54-.508 1.126-.878 1.726-1.237.572-.321 1.145-.647 1.728-.925l1.199-.57c.338-.162.687-.288 1.031-.416.483-.176.976-.32 1.47-.425a4.21 4.21 0 011.257-.01c.44.102.867.308 1.294.485.393.166.784.333 1.177.506.352.156.743-.179.838-.648.103-.502-.123-.98-.475-1.137a88.06 88.06 0 00-1.392-.594c-.241-.101-.482-.204-.723-.296a3.626 3.626 0 00-1.305-.222c-.1 0-.2.004-.298.01" fill="#161616"/><path d="M210.745 323.36l-.068.119a1.73 1.73 0 01.068-.118m.84-4.24c-.651.114-1.258.281-1.856.663a3.582 3.582 0 00-.768.678c-.198.226-.35.501-.504.784-.276.484-.558.965-.844 1.436-.568.936-1.152 1.874-1.828 2.669a10.14 10.14 0 01-1.788 1.344c-.617.367-1.195.788-1.771 1.264-.758.627-1.466 1.39-2.164 2.132a17.138 17.138 0 00-1.97 2.586c-.704 1.117-1.313 2.354-1.905 3.583-.399.83-.122 2.012.478 2.494.652.521 1.422.173 1.82-.655.403-.83.816-1.647 1.256-2.44a17.045 17.045 0 011.992-2.704c.977-1.012 2.01-1.926 3.13-2.605.493-.27.988-.538 1.463-.864.803-.554 1.51-1.351 2.128-2.229.489-.69.929-1.454 1.367-2.204.338-.577.666-1.172.98-1.776l.007-.01c.11-.098.22-.185.337-.265a6.21 6.21 0 011.466-.482 11.16 11.16 0 011.153-.111c.672-.036 1.236-.747 1.236-1.694 0-.953-.564-1.655-1.236-1.694-.23-.014-.459-.021-.687-.021-.498 0-.993.035-1.492.121" fill="#161616"/><path d="M198.588 369.814l.04.433-.04-.433m-1.305-9.125l.055.187a26.353 26.353 0 01-.055-.187m2.652-30.655c-1.182.37-2.356.774-3.519 1.268-1.18.502-2.305 1.21-3.428 1.937-.8.517-1.583 1.092-2.36 1.672a10.584 10.584 0 00-2.135 2.128c-.264.349-.496.742-.743 1.117-.196.3-.407.576-.624.844-.15.151-.303.29-.461.43-.542.479-.788 1.437-.605 2.321.217 1.042.906 1.432 1.57 1.631.493.146.97.352 1.437.614.381.261.735.567 1.079.923a13.76 13.76 0 011.402 2.115c.97 1.89 1.843 3.877 2.732 5.847.418.927.838 1.85 1.243 2.79.663 1.526 1.207 3.151 1.698 4.808a29.54 29.54 0 01.74 3.483c.175 1.182.284 2.374.404 3.57.075.749.149 1.497.22 2.245l.062.769.06.653c.08.415.223.776.43 1.085.313.456.743.716 1.184.716.444 0 .873-.26 1.185-.716.291-.427.528-1.117.49-1.738a85.202 85.202 0 00-.177-2.466c-.146-1.712-.274-3.427-.495-5.122a25.456 25.456 0 00-.567-3.017 44.574 44.574 0 00-.95-3.18 38.406 38.406 0 00-1.003-2.673c-.422-1.004-.902-1.954-1.363-2.922-.327-.681-.668-1.35-1.001-2.026-.574-1.164-1.143-2.331-1.748-3.457a41.683 41.683 0 00-1.32-2.31c-.528-.848-1.165-1.567-1.819-2.194a5.703 5.703 0 00-2.021-1.25l.167-.333c.271-.487.56-.918.882-1.33.577-.593 1.182-1.097 1.8-1.6.877-.708 1.803-1.323 2.723-1.9 1.707-1.024 3.506-1.646 5.306-2.214.475-.15.745-.95.62-1.605-.112-.606-.478-.947-.876-.947a.732.732 0 00-.219.034" fill="#161616"/><path d="M215.967 321.038l-1.565.084c-.587.03-1.173.131-1.758.229a24.382 24.382 0 00-3.483.861c-1.262.414-2.482 1.034-3.703 1.63a59.82 59.82 0 00-4.16 2.255c-.561.33-1.135.63-1.677 1.012-.667.473-1.356.906-2.006 1.418l-2.015 1.577c-.603.472-1.18 1.012-1.768 1.517-.209.182-.404.395-.603.596-.362.363-.732.713-1.081 1.098-.51.565-1.023 1.127-1.52 1.714l-.925 1.087c-.248.294-.476.63-.712.943a15.59 15.59 0 00-1.26 1.929c-.347.64-.498 1.484-.685 2.233-.183.724.202 1.535.714 1.728.563.212 1.075-.257 1.256-.982.095-.377.185-.759.289-1.132.067-.156.136-.303.211-.448.822-1.305 1.817-2.374 2.8-3.436.349-.342.694-.689 1.041-1.033.337-.335.695-.632 1.045-.94.745-.656 1.524-1.226 2.298-1.814.728-.553 1.488-1.03 2.23-1.545.36-.249.738-.456 1.105-.682l.996-.614c.73-.373 1.46-.74 2.191-1.111.67-.341 1.36-.618 2.04-.92.688-.305 1.383-.573 2.078-.847a27.707 27.707 0 014.684-1.398c1.1-.19 2.197-.284 3.303-.346.63-.036 1.256-.076 1.884-.076.703-.003 1.402-.013 2.104.037.675.05 1.344.13 2.017.23.597.119 1.19.242 1.785.39.406.104.778.092 1.146-.207.334-.265.583-.71.685-1.224.214-1.06-.254-2.242-1.04-2.518-.76-.269-1.529-.526-2.305-.714-.9-.215-1.8-.371-2.71-.51-.261-.04-.526-.037-.788-.049-.465-.02-.933-.036-1.398-.059l-.086-.001c-.218 0-.438.026-.654.038m5.562 14.33c-1.656.108-3.313.213-4.969.345-1.685.132-3.368.322-5.055.477-.275.024-.505.319-.505.744 0 .383.23.766.505.743 1.687-.155 3.37-.342 5.055-.477 1.69-.134 3.38-.24 5.07-.351 3.378-.225 6.76-.402 10.145-.348 3.255.05 6.505.33 9.748.737l-.022-.005c.263.054.528.09.793.137.61.105 1.22.213 1.828.319l1.868.324c.284.049.568.104.853.148 1.038.224 2.078.446 3.116.684l1.945.447c.478.109.952.223 1.425.352.384.108.766.21 1.147.339.22.073.447-.094.509-.427.062-.32-.072-.662-.289-.75-.63-.257-1.265-.447-1.907-.632a67.239 67.239 0 00-1.64-.439c-1.198-.31-2.398-.588-3.6-.872-.887-.21-1.781-.354-2.675-.512-.742-.131-1.483-.266-2.224-.398-.376-.067-.75-.146-1.127-.202l.028.006c-.341-.062-.688-.086-1.03-.125-.435-.054-.87-.1-1.305-.147-.837-.088-1.676-.167-2.512-.234a77.855 77.855 0 00-6.16-.251c-3.008 0-6.013.168-9.015.368m19.481 6.634c-.616.004-1.232.013-1.85.019-1.799.019-3.6.04-5.398.056-.684.006-1.368.011-2.052.021-.075.003-.148 0-.223-.003a2.99 2.99 0 00-.446.012c-.872.114-1.746.21-2.62.315-1.743.207-3.486.417-5.228.626-2.547.31-5.092.618-7.637.92-.376.044-.75.121-1.124.186a95.56 95.56 0 00-1.567.287c-1.08.207-2.158.429-3.24.63-.173.03-.315.082-.443.28-.116.18-.182.426-.182.683 0 .252.066.499.182.681.106.16.288.312.442.281 2.16-.401 4.317-.907 6.486-1.166l3.955-.473c3.32-.401 6.639-.805 9.958-1.198.324-.036.65-.076.974-.117.12-.012.24-.009.36-.009.054 0 .108 0 .163-.003l4.579-.052c1.576-.016 3.153-.034 4.73-.052.223-.004.45-.016.676 0 .684.045 1.37.086 2.055.132l2.442.158c.406.027.81.074 1.216.12 1.337.148 2.673.302 4.01.46.606.073 1.21.176 1.814.29.105.029.21.06.316.093.27.08.547-.112.625-.547.072-.413-.088-.852-.354-.963-.757-.321-1.539-.441-2.315-.598-.638-.13-1.28-.21-1.92-.312-.601-.096-1.201-.164-1.801-.245-.467-.064-.933-.144-1.4-.178-1.515-.108-3.03-.214-4.544-.324a5.035 5.035 0 00-.378-.012l-.26.002m-13.452 5.015c-.602.051-1.207.107-1.81.158-2.11.187-4.217.376-6.325.56-.64.057-1.278.116-1.918.17-.452.039-.907.107-1.359.167-1.134.155-2.268.338-3.402.503a.68.68 0 00-.526.353c-.14.226-.219.538-.219.856 0 .322.08.631.22.856.128.212.337.383.525.357 1.134-.16 2.268-.344 3.402-.501.458-.062.918-.13 1.377-.167a278.37 278.37 0 012.013-.18c2.143-.191 4.284-.384 6.426-.577.547-.048 1.093-.1 1.64-.145a8.12 8.12 0 01.885-.013c.146.004.294.007.442.004 1.962-.01 3.924-.02 5.883-.033 1.435-.01 2.867 0 4.299 0 .573 0 1.146.01 1.716.023 1.178.023 2.363-.013 3.533.212.278.055.55-.356.618-.766.087-.508-.103-1.184-.448-1.283-.24-.068-.479-.148-.721-.19a13.415 13.415 0 00-1.533-.158c-.483-.022-.965-.045-1.449-.07-.588-.026-1.175-.055-1.766-.065-1.458-.025-2.916-.07-4.373-.07-1.99 0-3.98-.004-5.968-.007-.24 0-.48-.011-.721-.011-.147 0-.295.003-.44.017m-4.455 3.986c-.7.006-1.402-.005-2.1.019-.868.032-1.734.067-2.6.1-.467.018-.933.037-1.4.058-.7.029-1.403.082-2.104.068a.424.424 0 00-.156-.015l-.066.009c-.187.026-.342.08-.48.256a1.02 1.02 0 00-.199.617c0 .49.31.861.679.877.87.032 1.743-.04 2.613-.077.565-.024 1.127-.048 1.69-.07 1.469-.061 2.933-.115 4.4-.142.555-.01 1.112-.03 1.667-.037.787-.013 1.59-.075 2.373.05a.471.471 0 00.293-.101.749.749 0 00.266-.446c.079-.37-.096-.837-.405-.917-.864-.222-1.757-.216-2.635-.24a51.27 51.27 0 00-1.836-.009m-8.346 3.017c-.127.033-.246.085-.37.136a.653.653 0 00-.37.485c-.048.222-.004.516.137.67.093.106.184.21.292.292.13.098.295.142.44.175.27.065.546.072.818.075.23.002.46.018.69.03l1.493.078c.884.05 1.773.05 2.659.013.246-.01.452-.26.452-.588 0-.327-.206-.583-.452-.59-.872-.026-1.742-.096-2.614-.155-.383-.026-.766-.059-1.15-.09l-.607-.047c-.257-.02-.514-.016-.77-.032a.711.711 0 00-.239-.383.424.424 0 00-.262-.089.601.601 0 00-.147.02m13.722 3.982c-2.527.226-5.06.393-7.591.583-.417.031-.835.045-1.252.065l-2.227.109a3.37 3.37 0 01-.318.002c-.36-.011-.72-.025-1.08-.038-.391-.016-.784-.03-1.174-.043-.43-.016-.859-.052-1.287-.084-.3-.023-.552.298-.552.62 0 .354.252.598.552.618.428.032.857.068 1.287.082.39.013.78.029 1.173.043.473.015.95.058 1.423.033l2.3-.122c.412-.02.824-.038 1.237-.07 1.217-.097 2.434-.194 3.654-.293 1.286-.109 2.571-.208 3.855-.344a.52.52 0 00.366-.17.625.625 0 00.153-.41c0-.287-.218-.583-.485-.583-.011 0-.023 0-.034.002M239 356.355c0 .742.385 1.346.847 1.352 1.366.018 2.731.025 4.097.081l3.476.142c.637.028 1.278.025 1.913.082l2.988.27c1.164.107 2.327.207 3.49.308 1.176.104 2.359.182 3.528.405.287.054.566-.364.639-.779.092-.535-.11-1.175-.464-1.302-.979-.348-1.98-.486-2.977-.66-.853-.148-1.71-.245-2.565-.364-.691-.094-1.385-.17-2.077-.249-.593-.069-1.187-.138-1.78-.204-.273-.035-.55-.085-.826-.097-1.31-.05-2.621-.123-3.932-.182l-2.004-.094c-1.168-.058-2.337-.045-3.506-.064h-.007c-.459 0-.84.627-.84 1.355m1 4.781c0 .642.332 1.105.728 1.133 3.47.261 6.944.51 10.416.746l1.82.122.118.007c-.006.093-.002.188.014.279.036.199.122.37.236.476.126.115.254.118.394.077.431-.12.863-.245 1.292-.376.1-.03.2-.056.302-.084.204-.05.494-.217.582-.54.05-.182.102-.328.098-.533a1.59 1.59 0 00-.086-.548c-.142-.379-.402-.516-.66-.597-.547-.171-1.123-.193-1.678-.258a39.83 39.83 0 00-.814-.084c-1.403-.131-2.807-.24-4.21-.358-2.609-.22-5.216-.398-7.824-.597l-.029-.001c-.383 0-.699.553-.699 1.136m.224 2.202a1.476 1.476 0 00-.224.806c0 .304.082.595.224.809a.709.709 0 00.542.335c1.772.238 3.548.401 5.324.586.53.054 1.061.11 1.592.163.182.022.365.034.545.063l2.945.47c1.3.207 2.6.439 3.898.674 1.42.254 2.838.492 4.256.756a.508.508 0 00.34-.135c.15-.131.264-.351.31-.602.048-.26.023-.546-.067-.777-.082-.204-.24-.423-.403-.464-1.652-.398-3.314-.719-4.973-1.048-.803-.16-1.606-.338-2.411-.473-.982-.166-1.96-.339-2.942-.505-.441-.075-.881-.163-1.324-.207-.908-.097-1.818-.198-2.726-.295-1.456-.156-2.913-.297-4.364-.492a.341.341 0 00-.041-.002c-.182 0-.378.152-.5.338m40.072-22.852l-.057.036.057-.036m20.901-12.459c-.818.227-1.616.557-2.414.89-.664.274-1.325.553-1.984.845-1.44.637-2.877 1.273-4.312 1.933-1.015.467-2.032.935-3.048 1.4-.357.165-.714.32-1.063.515-1.813 1.019-3.627 2.028-5.44 3.042-.58.325-1.163.651-1.745.975-.492.275-.977.585-1.463.886-.587.36-1.17.726-1.756 1.09l-.185.114h-.003a.699.699 0 01-.037.024l-.14.086c-.002 0-.004.002-.005.003l-.061.037c-.187.117-.334.233-.442.499-.1.25-.125.553-.075.832.052.27.175.504.34.645.153.131.398.215.57.109l.24-.149h.004a.64.64 0 00.173-.108l1.83-1.137c1.704-1.046 3.435-1.987 5.16-2.954l2.837-1.591c.34-.19.677-.396 1.024-.559 2.966-1.4 5.93-2.821 8.91-4.166 1.135-.513 2.267-1.059 3.422-1.471.336-.12.532-.665.444-1.142-.045-.232-.151-.433-.292-.553a.462.462 0 00-.312-.122.663.663 0 00-.177.027m.16 6.11l.117-.023.099-.02a6.11 6.11 0 00-.215.042m.852-.132c-.246.03-.491.065-.736.11-.462.092-.925.178-1.386.293-.444.108-.899.19-1.341.33-.547.179-1.094.356-1.642.53-.4.13-.804.238-1.2.39-1.982.742-3.964 1.485-5.946 2.231-.444.169-.883.4-1.321.602-1.11.511-2.22 1.026-3.329 1.537l-2.96 1.364c-1.237.571-2.45 1.245-3.673 1.886-.233.123-.424.31-.551.635-.125.319-.16.707-.093 1.062.127.686.66 1.213 1.135.963 1.317-.692 2.629-1.405 3.962-2.022 1.215-.566 2.43-1.126 3.645-1.688 1.08-.5 2.16-1.002 3.24-1.501.51-.235 1.028-.425 1.545-.623 1.737-.674 3.469-1.387 5.215-2.007.869-.307 1.734-.65 2.606-.918 1.01-.31 2.02-.625 3.04-.86.342-.081.579-.659.579-1.138 0-.573-.33-1.18-.735-1.18a.425.425 0 00-.054.004m5.118 3.017c-.23.06-.463.109-.69.192a40.06 40.06 0 00-.605.217c-.252.089-.503.175-.752.272l-2.289.9c-1.281.504-2.559 1.033-3.839 1.553-2.578 1.044-5.153 2.12-7.73 3.18-.23.091-.46.18-.683.29-.479.227-.957.459-1.436.688-1.723.83-3.443 1.659-5.166 2.487l-2.439 1.176c-1.426.686-2.828 1.478-4.238 2.228a.756.756 0 00-.376.417 1.27 1.27 0 00-.063.7c.084.45.45.807.773.635.884-.468 1.766-.946 2.652-1.415.447-.237.894-.478 1.345-.695l1.347-.652c1.71-.826 3.424-1.653 5.136-2.476.712-.347 1.426-.69 2.139-1.033.258-.125.514-.262.777-.374 1.331-.563 2.666-1.115 3.999-1.673a4141.84 4141.84 0 007.647-3.206c.747-.314 1.495-.625 2.243-.94.84-.35 1.679-.707 2.531-.992.28-.095.445-.552.37-.944a.79.79 0 00-.243-.458.386.386 0 00-.259-.098.618.618 0 00-.15.021m-6.926 6c-.23.062-.461.118-.691.205-.193.068-.384.142-.577.214-.204.074-.409.149-.611.232-.565.233-1.128.462-1.69.7-1.031.441-2.061.882-3.091 1.328-1.36.595-2.72 1.19-4.079 1.782-.789.345-1.571.722-2.355 1.088-1.481.695-2.962 1.386-4.444 2.074-1.82.853-3.636 1.727-5.455 2.595-.292.14-.473.623-.391 1.1.08.463.397.766.69.627 3.368-1.615 6.742-3.206 10.115-4.793 2.092-.983 4.191-1.922 6.293-2.865 1.002-.449 2.005-.904 3.009-1.357 1.168-.533 2.338-1.082 3.529-1.482.25-.083.393-.548.329-.924a.823.823 0 00-.217-.449.325.325 0 00-.229-.096.49.49 0 00-.135.021m.835 4.007c-1.355.5-2.702 1.06-4.046 1.612-1.299.537-2.597 1.069-3.893 1.609-.953.395-1.907.793-2.858 1.188-.535.221-1.078.424-1.609.67-.472.217-.95.416-1.424.626-.953.418-1.906.836-2.859 1.256a699.715 699.715 0 00-7.057 3.148c-.347.159-.57.65-.469 1.162.093.48.477.819.826.662a751.2 751.2 0 016.062-2.73c1.686-.749 3.372-1.494 5.056-2.244 1.254-.56 2.52-1.075 3.778-1.609 1.305-.554 2.609-1.109 3.914-1.66 1.631-.691 3.26-1.394 4.898-2.059.315-.128.51-.59.42-1.04-.073-.377-.32-.619-.585-.619a.442.442 0 00-.154.028m15.242-19.124a.157.157 0 01-.019.004l.061-.012-.042.008zm6.619.91l.058-.011-.058.011zm-.196.04l.13-.026c-.043.009-.087.017-.13.027zm-.393.08l-.013.004c.05-.01.102-.02.154-.032l-.14.029zm-2.291.475a3.337 3.337 0 01-.087.019l.12-.025-.033.006zm-2.276.471l-.129.027c.057-.011.115-.022.172-.035l-.043.008zm-.349.074l.142-.03-.142.03zm-.761.158a1.282 1.282 0 01.008-.002c-.003 0-.006 0-.008.002zm-.149.03h.001-.005l-.006.002-.006.002-.052.01.01-.001.006-.002.033-.007h-.003a1.558 1.558 0 00.022-.004zm-.04.008h.004-.006c-.001 0-.002 0-.003.002h-.005.005l-.027.005-.015.003.056-.012-.009.002zm-.021.005l-.032.006-.096.019.128-.025zm.129-.027l-.048.01a.259.259 0 00-.023.004l.07-.014zm6.662-1.38a.407.407 0 01-.03.007c.006 0 .01-.002.017-.003l-.062.013.062-.014.013-.002zm.145-.03l-.021.004-.043.01a1.282 1.282 0 00-.054.01l-.025.006.143-.03zm-7.154-.797l-.024.004-.096.02.084-.018a6.226 6.226 0 00.014-.003l.008-.001h-.003l.017-.002zm6.948-1.416a9.791 9.791 0 00-.018.003l.018-.003zm8.576-1.315c-.685.081-1.367.178-2.052.278-1.542.225-3.08.471-4.62.725-.633.104-1.272.181-1.904.312h-.006.004l-.008.001-.068.014c-.089.018-.177.037-.266.053l.146-.028.05-.008c-2.015.402-4.028.81-6.04 1.226a.497.497 0 00-.169.035l-.405.083.024-.004-.03.006-.076.015.047-.01-.114.025h-.002l.04-.01c.008 0 .015-.002.023-.004l-.067.014-.018.004c-.604.108-1.208.258-1.81.394l-2.063.46c-.18.04-.357.297-.444.525-.1.262-.129.584-.076.877.051.288.175.535.343.685.189.169.364.16.574.113 1.193-.264 2.387-.536 3.583-.795.046-.008.09-.019.137-.03-.01.003-.02.006-.03.007l-.005.002-.06.012.009-.002.04-.009a.192.192 0 01-.021.004h.002l-.005.001.02-.004a.75.75 0 00.011-.002l.012-.003h.004l.006-.002h.003s.002 0 .003-.002h.006-.004l.021-.004.006-.001.004-.001.013-.002-.012.002.047-.009-.007.001a1.15 1.15 0 00.054-.011l-.052.01.05-.01-.058.012-.01.002.075-.016.049-.01.034-.007.011-.002c-.003 0-.006 0-.009.002l.005-.001-.006.001-.027.006.137-.028-.03.007c.124-.026.265-.037.396-.084l.038-.007-.031.007.066-.014.131-.027a4.584 4.584 0 01.046-.01l-.055.01.275-.057-.02.004.149-.03a.371.371 0 01.048-.01h-.005c.603-.123 1.204-.247 1.807-.372l-.048.009c.022-.004.044-.01.066-.013h-.006a15.174 15.174 0 00.327-.068l-.057.012.144-.03.052-.01a.141.141 0 00-.018.004l2.244-.465h-.008a.17.17 0 00.021-.003l.175-.036-.034.007.393-.08c-.004 0-.007 0-.01.002l.065-.014.065-.013-.007.002.219-.045-.196.038.09-.018.134-.026h-.002c2.91-.515 5.815-1.063 8.723-1.587.763-.138 1.525-.282 2.291-.379a.537.537 0 00.412-.262 1.18 1.18 0 00.171-.631c0-.49-.264-.885-.583-.89a7.888 7.888 0 00-.194-.003c-.766 0-1.529.098-2.293.19zm-14.9 9.15l-.084.017.116-.022-.031.005zm18.437-5.312l-.68.046c-.487.036-.975.054-1.46.103-1.114.112-2.228.218-3.342.324-1.941.188-3.88.44-5.82.667-.384.046-.767.13-1.152.197l-3.017.53c-.85.149-1.7.297-2.55.45-1.247.217-2.487.511-3.729.78-.235.052-.47.38-.584.674a2.14 2.14 0 00-.1 1.127c.068.364.232.683.451.873l.233.149a.67.67 0 00.52 0c.903-.197 1.806-.405 2.71-.59a4.487 4.487 0 01-.093.017l.177-.035c.027-.005.054-.012.082-.016a1.21 1.21 0 00-.051.01c2.137-.418 4.284-.76 6.425-1.147a34.114 34.114 0 011.76-.258c1.322-.173 2.64-.343 3.96-.515l3.523-.458 1.46-.187c1.002-.125 2.005-.291 3.01-.298.437-.003.8-.542.8-1.197a1.57 1.57 0 00-.233-.846.742.742 0 00-.567-.348 6.178 6.178 0 00-.886-.08h-.106c-.246 0-.494.01-.74.028zm-3.764 5.976c-.907.02-1.814.035-2.72.078-1.117.053-2.233.104-3.348.16-.246.01-.493.049-.74.072-.622.06-1.248.118-1.871.179l-3.033.295c-1.345.129-2.69.297-4.035.453a.881.881 0 00-.675.404c-.179.257-.281.61-.281.974 0 .704.437 1.438.956 1.377 2.874-.335 5.751-.632 8.627-.924 1.676-.17 3.355-.268 5.035-.375.834-.052 1.668-.101 2.501-.153 1.03-.067 2.075-.142 3.1-.012.344.044.668-.375.755-.829.108-.56-.127-1.271-.547-1.39a6.948 6.948 0 00-1.69-.28l-.866-.02a24.894 24.894 0 00-1.168-.009m-3.81 6.175c-1.424.101-2.845.21-4.266.345-2.635.248-5.272.495-7.907.758-.392.039-.72.588-.72 1.358 0 .708.328 1.398.72 1.358 3.734-.374 7.466-.754 11.198-1.114 1.823-.174 3.646-.325 5.465-.557.336-.043.617-.495.617-1.161 0-.638-.28-1.161-.617-1.165l-.276-.001c-1.405 0-2.81.081-4.215.18m-8.914 16.542a3.43 3.43 0 01-.175.031l.175-.031m9.886-3.69c-.201.017-.401.04-.603.057-.405.04-.814.066-1.218.12-.955.129-1.91.251-2.865.377-.672.088-1.34.22-2.01.33-1.048.178-2.099.352-3.147.528-.402.066-.797.158-1.196.243-.955.206-1.912.414-2.869.623-2.24.485-4.478.973-6.718 1.458l-.835.18c-.068.017-.138.025-.205.048l-1.169.377-5.9 1.9c-3.705 1.191-7.411 2.384-11.117 3.58-.894.291-1.78.645-2.666.987-1.578.608-3.152 1.245-4.73 1.853-.442.17-.709.827-.586 1.446.122.617.59.99 1.03.82 2.727-1.05 5.435-2.21 8.19-3.097l5.581-1.804c3.88-1.252 7.754-2.508 11.634-3.758.212-.07.425-.114.641-.163.855-.192 1.712-.38 2.57-.571 2.297-.508 4.594-1.02 6.892-1.53.47-.105.94-.222 1.413-.315.843-.153 1.685-.31 2.526-.467.588-.106 1.175-.217 1.763-.323.287-.053.575-.1.86-.158.941-.138 1.88-.307 2.822-.46.387-.066.776-.115 1.163-.17.737-.105 1.468-.216 2.209-.21.368.005.676-.432.676-.945 0-.25-.074-.491-.2-.668a.62.62 0 00-.476-.277 6.504 6.504 0 00-.762-.043c-.232 0-.464.012-.698.032" fill="#161616"/><path d="M324.457 361l-2.017.084c-.929.038-1.86.048-2.785.143-1.468.143-2.934.29-4.401.433-1.604.159-3.207.318-4.81.48-.475.046-.947.091-1.42.159-2.904.41-5.81.813-8.714 1.222-2.216.313-4.431.623-6.649.932-2.826.399-5.641.892-8.46 1.355l-.321.057a1.185 1.185 0 00-.53.408c-.222.3-.35.706-.35 1.126 0 .424.128.83.35 1.129.203.267.552.514.85.466 2.465-.404 4.926-.86 7.397-1.204l3.13-.444 10.281-1.454c1.595-.227 3.189-.464 4.788-.633 3.027-.321 6.051-.65 9.078-.968.535-.056 1.07-.083 1.605-.118l3.018-.194c.39-.027.785 0 1.174.003.426 0 .851 0 1.28.003 1.013.01 2.026.008 3.04.04.55.016 1.009-.625 1.009-1.343 0-.353-.107-.698-.296-.95-.203-.265-.438-.36-.713-.392-1.257-.146-2.52-.208-3.78-.264-.419-.019-.838-.037-1.256-.057-.143-.007-.288-.019-.43-.019h-.068m-.437-7.96c-.35.009-.7.016-1.051.039-1.235.07-2.47.142-3.703.209-.965.054-1.928.167-2.892.25-1.286.111-2.573.224-3.86.334-.536.046-1.072.13-1.61.2-2.881.373-5.766.745-8.648 1.113-.63.081-1.27.13-1.895.264-.831.178-1.663.361-2.495.541-2.882.624-5.767 1.247-8.65 1.874l-1.264.274c-.448.097-.893.228-1.336.352-.96.27-1.915.563-2.874.838-.541.153-.848.995-.708 1.681.153.751.708 1.11 1.249.956 1.587-.452 3.169-.963 4.774-1.308 1.201-.258 2.404-.52 3.605-.78 2.643-.568 5.284-1.138 7.925-1.71l.196-.042c2.199-.263 4.394-.562 6.593-.843l4.016-.514c.49-.062.977-.124 1.468-.167l4.255-.371c.801-.07 1.605-.154 2.407-.207 2.224-.151 4.452-.353 6.678-.385.961-.014 1.923-.032 2.884.005.5.02.916-.576.916-1.235 0-.326-.098-.643-.27-.872a.853.853 0 00-.646-.364c-1.142-.12-2.29-.14-3.435-.17l-.24-.002c-.463 0-.926.029-1.389.04m-125.034-3.809a3.693 3.693 0 00.487 2.647l.15.247c.07.097.141.186.217.267l-.032.066a4.524 4.524 0 00-.546-.5c-.47-.362-.936-.716-1.373-1.149a7.009 7.009 0 01-.375-.51 6.29 6.29 0 01-.101-.243c.06.012.122.019.184.019.367 0 .635-.212.907-.528a6.59 6.59 0 01.514-.462l-.032.146zm6.23-4.503l-.01.009.1-.188a1.54 1.54 0 01-.09.179zm-7.054-2.288zm-1.68-7.296c.512 0 1.054.24 1.45.572.416.354.745.827.99 1.424.374.919.476 2.035.28 3.06a4.634 4.634 0 01-.71 1.754 2.168 2.168 0 00-.063.07 26.63 26.63 0 00-.785 2.061c-.204.75-.404 1.51-.568 2.281.443-.46.907-.842 1.431-1.128.705-.381 1.434-.7 2.17-.93.831-.261 1.667-.49 2.502-.723a37.825 37.825 0 011.559-.394c.483-.111.966-.198 1.456-.238.297-.025.754.127 1.01.345.301.252.473.631.656 1.04.266.593.246 1.425.148 2.088-.064.423-.186.798-.303 1.197-.104.342-.374.658-.577.885a7.724 7.724 0 01-.816.81c.254.286.474.63.644 1.047.621 1.524.347 3.442-.59 4.559l-.017.021c.113.312.2.644.251.992.096.64.103 1.335-.02 1.975-.097.353-.2.7-.313 1.045-.122.379-.447.844-.677 1.134-.211.25-.429.485-.653.703-.426.293-.858.574-1.313.77-.19.083-.383.171-.581.218l-.303.066a6.017 6.017 0 01-.89.152c-.392-.052-.8-.072-1.177-.236a4.559 4.559 0 01-.583-.29 6.84 6.84 0 01-.954-.602 6.375 6.375 0 01-1.647-1.9c-.143-.252-.277-.51-.41-.77-.917-.476-1.855-.944-2.635-1.792-.738-.8-1.345-1.632-1.85-2.772-.311-.7-.565-1.438-.803-2.196-.461-1.468-.81-2.986-.79-4.62.046-.522.094-1.042.148-1.564.041-.287.087-.574.138-.858.087-.454.177-.907.279-1.355.085-.373.164-.755.26-1.125.105-.417.217-.827.336-1.238.189-.651.376-1.4.678-1.986.271-.531.516-1.13.864-1.567.315-.4.63-.847 1.004-1.126.353-.264.725-.476 1.096-.689.208-.118.44-.17.678-.17zm.577-60.266L206.5 321l-8.5-2-9.41-40 8.469-4.122zM310 263l20 51.008-7.686 2.992-15.814-45.234L310 263z" fill="#161616"/><g transform="translate(336 335)"><mask id="d" fill="#fff"><use xlink:href="#c"/></mask><path d="M4.628 16.566l-.064.123c.02-.042.04-.083.063-.122h.001zm2.657-7.799l.046.075c.189.395.363.802.519 1.227l.035.18c.001.152 0 .303-.005.455a4.558 4.558 0 00-.137-.394 2.712 2.712 0 00-.532-.985c.035-.183.06-.37.074-.558zM6.712.741a2.87 2.87 0 00-.2.187C5.91.75 5.305.569 4.701.409 3.974.217 3.302.192 2.58.458c-.392.144-.673.506-.945.91-.353.524-.469 1.095-.516 1.802-.056.832.12 1.655.368 2.397.093.278.19.554.294.823a2.877 2.877 0 00-.197.254c-.767 1.112-.922 3.007-.41 4.365.054.143.113.281.177.416-.072.103-.14.21-.202.32-.446.78-.86 1.781-.809 2.847.034.688.103 1.235.276 1.808-.018.39.008.781.078 1.146.341 1.805 1.463 2.642 2.634 3.012a7.17 7.17 0 003.041.26c.903-.11 1.84-.265 2.702-.704.47-.24.947-.515 1.384-.868.338-.269.627-.643.928-.987.48-.555.744-1.392.988-2.179.422-1.371.844-2.86 1.03-4.35.084-.682.152-1.369.162-2.065.008-.676-.092-1.37-.194-2.03-.119-.793-.402-1.531-.628-2.267-.336-1.083-.862-2.087-1.409-2.95-.34-.537-.761-.956-1.172-1.372C9.53.404 8.834.314 8.1.195c-.496.003-.96.184-1.389.546z" fill="#161616" mask="url(#d)"/></g></g></svg>