<svg width="500" height="600" xmlns="http://www.w3.org/2000/svg" xmlns:xlink="http://www.w3.org/1999/xlink"><defs><path id="a" d="M0 .454h182.162v197.653H0z"/></defs><g fill="none" fill-rule="evenodd"><g transform="translate(169 58.546)"><mask id="b" fill="#fff"><use xlink:href="#a"/></mask><path d="M172.495 104.535a170.017 170.017 0 01-.879 4.533c-.069.234-.12.472-.15.715-.654 3.113-1.363 6.22-2.057 9.314-.383 1.707-.862 4-2.49 4.992-.93.565-3.587.36-3.36-1.235a1.027 1.027 0 00-.252-.841c.132-8.737-1.169-17.39-2.82-26.02.567-.086 1.086-.41 1.442-.944a9.54 9.54 0 01.212-.313 10.6 10.6 0 01.077-.102c.048-.058.106-.13.123-.148.065-.076.132-.151.2-.226.324-.356.683-.663 1.04-.984l.01-.01.003-.002c.082-.058.163-.118.246-.174a10.696 10.696 0 011.508-.865c.044-.021.09-.043.137-.062.135-.061.091-.043-.13.052.09-.113.51-.195.638-.238a10.606 10.606 0 011.315-.347c.1-.02.2-.036.298-.054-.003-.001-.007 0-.008-.002 0 0 .006 0 .01.002.024-.004.047-.01.072-.013.287-.05.033.019-.056.017.065.008.25-.01.421-.03a5.21 5.21 0 011.663.884c3.562 2.9 3.515 7.99 2.787 12.1m-11.212 19.763a73.035 73.035 0 01-.426 4.813 4.55 4.55 0 00-.236 1.915c-.243 1.663-.58 3.31-.957 4.947a47.123 47.123 0 01-5.693 11.789l-.025-.027c-2.854 3.262-6.217 6.097-9.69 8.699-6.52 4.885-13.28 9.474-20.046 14.006a664.006 664.006 0 01-12.112 7.92.987.987 0 00-.409.5c-1.325.828-2.692 1.579-4.148 2.168-5.437 2.197-11.212 1.196-16.55-.778-5.017-1.856-9.824-4.38-14.588-6.801-8.522-4.33-17.003-9.164-23.92-15.85-7.167-6.93-11.758-15.658-13.307-25.516-1.608-10.22-.255-20.7 1.146-30.86.667-4.842 1.37-9.704 1.898-14.58 4.798 2.555 9.913 3.123 13.707-2.78 1.774-2.76 2.925-5.86 3.617-9.093 2.744 1.8 5.757 2.758 9.073 1.854 3.22-.877 5.774-3.393 7.232-6.317 1.261-2.527 1.004-5.807 2.31-8.193 3.06 1.719 6.442 2.798 9.908 2.926 7.94.293 12.317-5.733 14.79-12.523 3.908 2.043 8.844 2.068 12.69-.2.25.629.537 1.242.86 1.84 1.491 4.483 5.443 8.04 10.013 9.386 2.99.88 6.142.729 8.986-.557.065-.03.132-.066.197-.097-.043 5.918 1.218 11.675 5.622 16.26 3.934 4.096 9.601 5.728 14.802 4.666l.047.244c.004.126.012.25.016.377.03.883.24 1.72.564 2.505.36 1.766.72 3.532 1.074 5.295 2.121 10.532 4.112 21.27 3.555 32.062m-58.766 66.836c-1.556 2.528-3.878 5.22-7.123 4.957-3.12-.254-4.815-3.378-6.049-5.964a.95.95 0 00.128-.48v-7.84c3.342 1.313 6.801 2.298 10.398 2.48.85.043 1.676.008 2.492-.062v6.416c0 .18.065.344.154.493m-66-67.791a.395.395 0 00-.132.089c-.086.093-.158.222-.147.353.003.038-.002.075-.003.113a.995.995 0 01-.029.107.926.926 0 01-.05.086 6.182 6.182 0 01-.114.116.51.51 0 00-.138.31l-.013-.002a.939.939 0 00-.91.018c-1.874 1.012-3.694-.704-4.836-2.065-1.343-1.603-2.269-3.577-3.218-5.425-1.98-3.86-3.703-8.162-3.096-12.583.475-3.46 2.471-7.194 6.102-8.083 2.962-.725 6.71.515 7.661 3.644a.922.922 0 00.762.67c-1.064 7.533-1.97 15.074-1.839 22.652M99.187 3.83a24.936 24.936 0 00-4.566-1.323c1.598.136 3.145.598 4.565 1.323m82.837 96.855c-.152-1.146-.474-2.216-.779-3.327-.395-1.438-.103-2.614.217-4.03 1.047-4.628-.444-9.534-3.867-12.812 3.086-7.248 1.283-16.171-4.568-21.53.052-1.364-.359-2.57-1.01-3.674a5.73 5.73 0 00-1.974-2.53 35.424 35.424 0 00-.88-.896 19.251 19.251 0 00-.478-.448c-.345-2.881-.708-5.818-1.38-8.6a24.782 24.782 0 00-.136-1.3c-.442-3.26-1.495-7.136-3.893-9.54-1.634-1.641-4.282-2.351-6.294-1.255-1.058-2.558-2.55-4.985-4.432-7.032-.976-1.535-2.233-2.88-3.873-3.892-2.35-1.45-5.077-1.596-7.519-.836-.484-3.513-2.808-6.705-6.26-7.962-3.984-1.452-8.647.266-11.083 3.63-2.258-2.875-4.825-5.711-8.376-6.871-2.74-.894-6.003-.628-8.306 1.126-.103-.098-.203-.202-.306-.296-.075-.07-.157-.127-.233-.194-2.467-4.545-7.215-7.731-12.47-7.95C88.486.229 83.22 3.529 80.55 8.374c-3.76-3.515-9.81-4.216-14.34-1.751-.594.323-1.15.709-1.672 1.136-.583.475-1.103 1.22-1.772 1.566-.938.483-1.832-.3-2.673-.683a10.755 10.755 0 00-2.454-.792c-3.222-.603-6.622.16-9.173 2.247-2.174 1.778-3.54 4.399-3.909 7.159a18.837 18.837 0 00-2.174 3.418c-4.202-4.243-12.313-3.768-15.45 1.63-.909 1.564-1.334 3.357-2.235 4.923-.397.69-.894 1.346-1.617 1.722-1.198.624-2.636.383-3.93.346-3.972-.116-7.005 2.28-8.276 6.003-1.25 3.664-.19 7.387 1.492 10.75.324.812.712 1.598 1.168 2.352-5.719 2.089-8.208 10.013-5.279 15.21.042.473.107.942.197 1.405-4.895 1.737-8.645 6.51-8.445 11.87C.21 82.31 4.315 86.96 9.443 88.29c-4.89 5.755-2.98 14.634.671 20.69 1.198 1.987 2.712 3.676 4.205 5.439 1.807 2.133 2.71 4.359 3.41 7.038 1.162 4.446 3.235 8.324 6.836 11.276 3.828 3.137 8.672 4.915 13.64 4.694.04-.002.067-.021.104-.026 1.664 6.25 4.508 12.105 8.716 17.238 6.205 7.568 14.554 13.092 23.064 17.748 4.391 2.402 8.887 4.618 13.405 6.775 1.338.639 2.697 1.269 4.074 1.86a1 1 0 00-.095.437v7.819c-.268.288-.398.709-.187 1.156 1.621 3.447 3.855 7.358 8.108 7.657 4.175.293 7.216-3.145 9.13-6.414.266-.453.13-.88-.16-1.162v-6.568c3.464-.671 6.651-2.246 9.678-4.26-.049-.035-.089-.083-.137-.121a659.916 659.916 0 0020.876-13.926c6.285-4.371 12.823-8.671 18.317-14.043.388-.38.743-.793 1.117-1.187.241-.044.473-.173.65-.42.23-.322.446-.652.668-.98.025-.028.051-.052.075-.08l-.015-.007a48.833 48.833 0 005.45-10.787c.054.022.11.033.163.056.154-.593.285-1.19.42-1.787.053-.166.112-.33.163-.496a.982.982 0 00.031-.33c.007-.031.016-.063.022-.094.097.042.195.084.315.096 4.15.398 7.98-1.532 10.934-4.324 3.095-2.926 6.015-7.15 6.587-11.448.134-1.01.115-2.038-.125-3.033-.283-1.172-1.218-2.265-.908-3.506.256-1.018 1.083-1.918 1.58-2.828a16.017 16.017 0 001.332-3.27c.596-2.098.751-4.324.466-6.486" fill="#231F20" mask="url(#b)"/></g><path d="M260.594 156.288c-6.06-2.61-12.81-3.045-19.132-1.115-1.227.375-.704 2.306.532 1.929a25.746 25.746 0 0114.549-.143c-3.795.878-7.608 1.749-11.291 2.979-4.011 1.34-7.875 3.29-10.633 6.58-.822.98.586 2.403 1.414 1.415 2.716-3.24 6.516-5.051 10.479-6.303 4.533-1.432 9.228-2.394 13.844-3.514.772-.187 1.047-1.48.238-1.828m46.621 6.297c-6.715-3.935-14.555-5.711-22.301-5.031a29.188 29.188 0 0111.256-3.24c1.275-.096 1.286-2.096 0-2a31.508 31.508 0 00-13.803 4.37c-.988.592-.281 2.03.672 1.846-.11.575.185 1.196.918 1.113 7.727-.882 15.534.735 22.248 4.669 1.114.652 2.12-1.077 1.01-1.727m-63.311-19.858c-5.254 1.32-10.039 4.292-13.533 8.433-.68.805.48 1.976 1.164 1.165a24.627 24.627 0 0112.806-8.01c1.028-.258.592-1.847-.437-1.588m63.05 3.665c-4.07-3.508-9.533-4.212-14.704-4.562-1.058-.072-1.053 1.575 0 1.646 4.688.318 9.835.89 13.54 4.08.8.69 1.97-.472 1.164-1.164m-11.624 60.059a.9.9 0 00-.453-.069 425.416 425.416 0 01-51.61 1.566c-.062-.002-.107.022-.162.027-1.463-3.094-2.34-6.423-2.23-9.898.948-.061 1.855.109 2.767.476.023.008.042.003.065.011.16.191.4.322.72.331a351.654 351.654 0 0052.651-2.359c-.4 3.303-.857 6.683-1.748 9.915m-16.7 18.484c-2.706 1.423-5.642 2.499-8.719 2.649-2.804.136-5.573-.435-8.173-1.468a26.46 26.46 0 01-3.566-1.759 129.445 129.445 0 0124.117-1.52 56.385 56.385 0 01-3.66 2.098m20.014-29.84c-.09-.39-.383-.698-.91-.633a351.841 351.841 0 01-53.17 2.437 1.04 1.04 0 00-.389-.275c-1.473-.593-2.97-.688-4.524-.402-.454.083-.7.55-.734.964-.524 6.458 2.246 12.592 6.055 17.659 3.752 4.99 8.52 9.535 14.175 12.293 5.756 2.807 11.985 3.229 17.931.735 3.077-1.291 5.951-3.085 8.66-5.024 2.526-1.807 4.913-3.835 6.851-6.276 4.664-5.875 5.69-13.379 6.558-20.599.057-.465-.178-.756-.503-.879m-19.721-10.985c-.085-.533-.751-.83-1.23-.698-.57.156-.784.695-.7 1.23.4 2.506-1.634 5.202-4.134 5.558-2.624.374-5.323-1.877-5.506-4.499-.09-1.278-2.09-1.287-2 0 .207 2.96 2.394 5.537 5.258 6.306 2.89.777 5.819-.647 7.365-3.132a6.895 6.895 0 00.947-4.765" fill="#231F20"/></g></svg>