<?xml version="1.0" encoding="UTF-8"?>
<svg width="200px" height="200px" viewBox="0 0 200 200" version="1.1" xmlns="http://www.w3.org/2000/svg" xmlns:xlink="http://www.w3.org/1999/xlink">
    <!-- Generator: Sketch 51.3 (57544) - http://www.bohemiancoding.com/sketch -->
    <title>speechbubble14</title>
    <desc>Created with Sketch.</desc>
    <defs></defs>
    <g id="speechbubble14" stroke="none" stroke-width="1" fill="none" fill-rule="evenodd">
        <g id="Group-24" transform="translate(7.000000, 17.000000)">
            <path d="M181.07839,37.8196374 C167.534956,11.4168216 134.553098,6.088592 107.693277,6.00092961 C77.8435594,5.90778832 43.340766,12.8057226 18.5599204,30.3409398 C6.78088063,38.6743457 -0.405263693,53.8125445 7.02160416,67.6796387 C10.5148308,74.1995288 15.5754958,79.7660905 21.0738399,84.6587476 C27.5104587,90.3924158 34.751313,95.5042288 42.5337951,99.1942675 C48.1825915,101.873449 56.1893842,102.36929 61.3813529,105.415558 C64.7952502,107.420835 67.8453267,115.296753 70.2334135,118.6471 C74.5363465,124.693065 79.2824296,130.423994 84.3458301,135.845364 C89.4229081,141.283172 94.8501294,146.301844 100.548165,151 C93.5726534,139.858658 89.748432,127.251711 90.1833756,113.1682 C90.218937,111.92449 90.8098039,109.442549 92.4538361,109.530211 C131.333421,111.683419 202.445339,91.7046122 181.07839,37.8196374" id="Fill-26" fill="#FFFFFF"></path>
            <path d="M92.1378497,109.286857 C90.4920536,109.198866 89.9005528,111.690106 89.8649532,112.938475 C89.4295429,127.074745 93.2578674,139.72892 100.240863,150.911999 C94.536714,146.196243 89.1036698,141.15877 84.0211446,135.700592 C78.9523115,130.258911 74.2011363,124.506514 69.8935866,118.437899 C67.5029376,115.075001 64.4495887,107.169579 61.0320286,105.15679 C55.8344894,102.09911 47.8191061,101.601412 42.1642491,98.9121933 C34.3734171,95.2083311 27.1247941,90.0773683 20.6812694,84.3222208 C15.177026,79.411235 10.1109314,73.82382 6.61395686,67.2795051 C-0.820879329,53.3604624 6.37297506,38.1655532 18.1646526,29.8009289 C42.9720858,12.2000216 77.5118976,5.27624653 107.393641,5.36973674 C134.28228,5.45772753 167.299525,10.8059176 180.85749,37.307643 C202.247363,91.3944804 131.059149,111.448131 92.1378497,109.286857 Z M183.604135,33.4525466 L183.489121,33.1253309 L183.278262,32.7623689 C168.463358,4.37984037 132.472178,-0.635634531 103.565316,0.0600426351 C72.9797967,0.796965483 28.3625642,8.85362199 7.67372909,34.3187059 C-12.3660983,58.9836236 10.746247,86.1865256 32.3606714,99.640867 C38.7384738,103.605952 45.2942741,105.882714 52.1704706,108.59118 C62.182169,112.539767 65.3149324,120.450688 71.7310728,128.710824 C83.6761025,144.087214 98.0692881,157.027359 114.209592,167.80623 C116.041601,169.029852 117.62989,164.105118 116.364736,162.908993 C102.434345,149.724124 93.4030042,133.863784 92.8936563,114.668044 C119.127811,115.798175 148.472822,111.285898 168.403112,92.9205706 C184.724152,77.882395 191.731794,54.4328501 183.604135,33.4525466 Z" id="Fill-27" fill="#212121"></path>
        </g>
    </g>
</svg>