<svg width="200" height="200" xmlns="http://www.w3.org/2000/svg"><g fill="none" fill-rule="evenodd"><path d="M155.83 181.817c10.227-3.95 15.365-15.87 18.574-25.55 4.197-12.678 6.476-26.405 7.143-39.753.565-19.514 3.49-51.044-17.744-61.298-11.941-5.766-28.627-5.117-41.615-6.044-16.903-1.204-33.76-1.128-50.574 1.083-.856.112-.878-1.125-.794-1.682C72.74 35.601 77.335 23.763 84.35 13c-6.262 4.615-12.027 9.819-17.145 15.751-3.644 4.227-6.98 8.762-9.88 13.54-1.703 2.802-3.231 8.899-5.717 10.793-3.485 2.659-9.639 2.639-13.698 5.023-7.602 4.47-12.455 12.132-15.228 20.35-7.173 21.254-6.045 51.307 2.979 72.02 12.917 29.648 52.151 32.972 80.527 34.273 10.2.467 20.42.26 30.605-.462 6.093-.433 13.257-.242 19.036-2.47" fill="#FFF"/><path d="M106.723 185.253c-28.494-1.301-67.89-4.624-80.862-34.266-9.061-20.707-10.194-50.753-2.992-72.002 2.785-8.217 7.658-15.878 15.292-20.345 4.076-2.384 10.256-2.364 13.755-5.023 2.496-1.893 4.03-7.989 5.74-10.791 2.912-4.776 6.263-9.31 9.922-13.536 5.14-5.93 10.928-11.133 17.216-15.747-7.044 10.76-11.658 22.595-13.587 35.564-.084.557-.062 1.794.798 1.682 16.884-2.21 33.811-2.286 50.785-1.083 13.041.927 29.796.278 41.787 6.043C185.9 66 182.962 97.523 182.395 117.032c-.67 13.346-2.958 27.07-7.172 39.744-3.223 9.679-8.382 21.595-18.652 25.545-5.803 2.227-12.998 2.037-19.115 2.47-10.229.722-20.491.928-30.733.462zM162.54 50.617c-8.384-2.863-18.127-2.913-26.879-3.76-10.483-1.01-21.004-1.737-31.539-1.837-5.286-.052-10.58.048-15.855.358-2.79.164-12.476 2.638-14.447.128-1.845-2.352 4.88-16.658 5.86-18.752 2.909-6.225 6.502-11.824 10.77-17.209.452-.568 1.362-4.438-.298-3.355-14.878 9.705-27.3 22.648-35.916 38.215-3.928 7.098-8.388 6.488-15.053 10.077-5.334 2.87-9.629 7.208-12.86 12.295-12.878 20.257-11.88 50.615-6.838 73.273 2.614 11.75 7.605 23.59 17.04 31.501 14.104 11.824 36.896 14.457 54.525 16.416 19.53 2.172 42.724 3.552 61.99-.93 8.694-2.02 14.497-8.988 18.581-16.523 8.853-16.322 12.073-36.571 12.996-54.95.615-21.165 3.272-56.296-22.077-64.947z" fill="#212121"/></g></svg>