<svg width="200" height="200" xmlns="http://www.w3.org/2000/svg"><g fill="none" fill-rule="evenodd"><path d="M173.999249,66.3653262 C167.500821,51.5508358 154.26549,41.87602 138.138657,40.381796 C135.698881,40.2905456 133.256811,40.2221079 130.817034,40.178764 C130.592318,40.0966387 130.436392,39.9415131 130.346964,39.7202311 C126.130094,27.5542814 119.05841,17.352495 108.966815,10 C113.298336,18.4155613 114.371471,27.9352515 112.929159,37.8450369 C112.835145,38.4860704 112.312336,40.2882644 111.381368,40.320202 C90.638679,41.0912672 70.0427435,43.324619 49.6004405,46.8970692 C24.982542,51.2018033 -1.24964488,57.0304179 3.57946226,88.3726235 C5.09056463,98.159221 6.56727166,107.952662 8.02104845,117.748385 C9.59176943,128.367641 10.4975136,137.857675 18.3809279,146.074767 C30.9306445,159.148657 55.6379709,161.596447 72.7393389,164.587177 C93.3375675,168.191565 114.304973,169.777039 135.208174,168.634129 C160.612579,167.242561 170.73857,148.711901 173.586505,125.098598 C175.877235,106.095718 182.024831,84.665579 173.999249,66.3653262" fill="#FFF" transform="translate(10 11)"/><path d="M134.992489,169.144749 C114.168918,170.294955 93.281388,168.69936 72.761628,165.071964 C55.7254074,162.062144 31.1122032,159.598729 18.6102944,146.441383 C10.7569119,138.171838 9.85461815,128.621226 8.2898808,117.934182 C6.84164215,108.07593 5.37056061,98.2199737 3.86521476,88.3709047 C-0.94549597,56.8286299 25.1867598,50.9628091 49.7108768,46.6305962 C70.0753052,43.0353417 90.5927809,40.7877336 111.256451,40.0117464 C112.183872,39.9796049 112.70469,38.1659069 112.798345,37.5207814 C114.235163,27.5477381 113.166116,17.9672801 108.851096,9.49799908 C118.904248,16.8974278 125.948992,27.1643361 130.149798,39.4079456 C130.238885,39.6306402 130.394217,39.786756 130.618077,39.8694055 C133.048559,39.9130261 135.481326,39.9819007 137.911809,40.0737335 C153.977207,41.5774958 167.162118,51.3140696 173.63579,66.2231265 C181.630799,84.6401967 175.506622,106.207132 173.224618,125.331315 C170.387533,149.095351 160.300116,167.744299 134.992489,169.144749 Z M175.830991,62.7311838 C169.179144,47.4593874 155.697276,37.2085498 139.172736,35.661167 C129.523903,35.3420479 127.203066,22.8045734 121.791588,15.924 C116.425795,9.10082217 109.799075,3.98803041 102.119299,0.0851359401 C100.696187,-0.640343267 99.8030305,3.48524577 100.59111,4.33469927 C105.19395,9.30515017 108.433071,14.8541478 109.988671,21.5280973 C112.017119,30.2085938 111.50087,34.2836748 103.0787,35.9711027 C91.7417778,38.2393731 79.3906321,37.8215338 67.8686829,39.428608 C49.5144281,41.9861518 25.0634083,42.8034638 10.686099,56.1513629 C3.11368398,63.1811646 -0.808438684,72.3874039 0.139540876,82.6749746 C1.04411896,92.505677 3.14566401,102.350154 4.59390266,112.11887 C5.9873184,121.51107 6.02386701,132.17286 10.1447227,140.869427 C18.5189229,158.535764 36.9120106,161.926691 54.2063558,165.94208 C74.8426145,170.735753 95.9425836,173.653741 117.136209,173.920056 C134.704668,174.138159 151.373119,174.886596 163.198878,160.133655 C173.521576,147.256399 174.773366,132.262397 176.676178,116.439603 C178.830261,98.5046554 183.346299,79.9957523 175.830991,62.7311838 Z" fill="#212121" transform="translate(10 11)"/></g></svg>