<svg width="200" height="200" xmlns="http://www.w3.org/2000/svg"><g fill="none" fill-rule="evenodd"><path d="M188.078 54.82C174.535 28.417 141.553 23.089 114.693 23c-29.85-.092-64.352 6.806-89.133 24.34-11.78 8.334-18.965 23.473-11.538 37.34 3.493 6.52 8.553 12.086 14.052 16.979 6.436 5.733 13.677 10.845 21.46 14.535 5.649 2.68 13.655 3.175 18.847 6.222 3.414 2.005 6.464 9.88 8.852 13.231 4.303 6.046 9.05 11.777 14.113 17.198 5.077 5.438 10.504 10.457 16.202 15.155-6.975-11.141-10.8-23.748-10.365-37.832.036-1.244.627-3.725 2.27-3.638 38.88 2.153 109.992-17.825 88.625-71.71" fill="#FFF"/><path d="M99.138 126.287c-1.646-.088-2.237 2.403-2.273 3.651-.435 14.137 3.393 26.79 10.376 37.974-5.704-4.716-11.137-9.753-16.22-15.211-5.069-5.442-9.82-11.194-14.127-17.263-2.391-3.363-5.444-11.268-8.862-13.281-5.198-3.058-13.213-3.556-18.868-6.245-7.79-3.704-15.04-8.835-21.483-14.59-5.504-4.91-10.57-10.498-14.067-17.042-7.435-13.92-.241-29.114 11.55-37.48 24.808-17.6 59.348-24.524 89.23-24.43 26.888.088 59.906 5.436 73.463 31.938 21.39 54.086-49.798 74.14-88.72 71.979zm91.466-75.834l-.115-.328-.21-.363c-14.816-28.382-50.807-33.398-79.714-32.702-30.585.737-75.202 8.794-95.891 34.259-20.04 24.665 3.072 51.868 24.687 65.322 6.377 3.965 12.933 6.242 19.81 8.95 10.011 3.949 13.144 11.86 19.56 20.12 11.945 15.376 26.338 28.316 42.479 39.095 1.832 1.224 3.42-3.7 2.155-4.897-13.93-13.185-22.962-29.045-23.471-48.241 26.234 1.13 55.579-3.382 75.51-21.747 16.32-15.039 23.328-38.488 15.2-59.468z" fill="#212121"/></g></svg>