<svg width="200" height="200" xmlns="http://www.w3.org/2000/svg"><g fill="none" fill-rule="evenodd"><path d="M184 77.365c-6.5-14.814-19.735-24.489-35.861-25.983a373.43 373.43 0 00-7.322-.203.777.777 0 01-.47-.459c-4.217-12.166-11.289-22.368-21.38-29.72 4.331 8.416 5.404 17.935 3.962 27.845-.094.641-.617 2.443-1.548 2.475-20.742.771-41.338 3.005-61.78 6.577C34.982 62.202 8.75 68.03 13.578 99.373a5012.6 5012.6 0 014.442 29.375c1.57 10.62 2.477 20.11 10.36 28.327 12.55 13.074 37.257 15.521 54.358 18.512 20.599 3.605 41.566 5.19 62.47 4.047 25.404-1.391 35.53-19.922 38.378-43.535 2.29-19.003 8.438-40.433.412-58.734" fill="#FFF"/><path d="M144.992 180.145c-20.823 1.15-41.71-.446-62.23-4.073-17.037-3.01-41.65-5.473-54.152-18.63-7.853-8.27-8.755-17.82-10.32-28.508a5149.88 5149.88 0 00-4.425-29.563c-4.81-31.542 21.322-37.408 45.846-41.74 20.364-3.596 40.882-5.843 61.545-6.62.928-.031 1.449-1.845 1.542-2.49 1.437-9.973.368-19.554-3.947-28.023 10.053 7.4 17.098 17.666 21.299 29.91a.774.774 0 00.468.461c2.43.044 4.863.113 7.294.205 16.065 1.503 29.25 11.24 35.724 26.15 7.995 18.416 1.87 39.983-.411 59.107-2.837 23.764-12.925 42.413-38.233 43.814zM185.831 73.73c-6.652-15.272-20.134-25.522-36.658-27.07-9.65-.319-11.97-12.856-17.381-19.737-5.366-6.823-11.993-11.936-19.673-15.839-1.423-.725-2.316 3.4-1.528 4.25 4.603 4.97 7.842 10.52 9.398 17.193 2.028 8.68 1.512 12.756-6.91 14.443-11.337 2.268-23.688 1.85-35.21 3.458-18.355 2.557-42.806 3.374-57.183 16.722-7.572 7.03-11.494 16.236-10.546 26.524.904 9.83 3.006 19.675 4.454 29.444 1.393 9.392 1.43 20.054 5.55 28.75 8.375 17.667 26.768 21.058 44.062 25.073 20.637 4.794 41.737 7.712 62.93 7.978 17.569.218 34.237.967 46.063-13.786 10.323-12.878 11.574-27.872 13.477-43.694 2.154-17.935 6.67-36.444-.845-53.709z" fill="#212121"/></g></svg>