<svg width="200" height="200" xmlns="http://www.w3.org/2000/svg"><g fill="none" fill-rule="evenodd"><path d="M87.7868037,146.139509 C97.0508529,154.75793 106.312284,163.378965 115.576333,172 C118.55612,160.857201 121.535908,149.719629 124.518314,138.57683 C124.607341,137.933977 124.835145,137.28067 125.154595,136.731892 L125.413821,136.332069 L125.536888,136.188341 L126.039629,135.762385 L126.076287,135.749319 L126.70995,135.634337 C138.173491,137.416558 149.63965,139.196165 161.103191,140.978386 C158.377393,135.511516 147.751753,114.195425 145.162114,109.005557 L145.057376,108.689357 L145.015481,108.313052 C145.005007,107.944587 145.073087,107.518631 145.18568,107.092675 C145.368971,106.047384 145.808869,104.989028 146.408492,104.664987 C156.939868,98.9524739 167.468625,93.2399603 178,87.53006 C165.764019,81.4908931 153.525419,75.4569526 141.289437,69.4177857 C140.31014,68.936952 140.490812,67.4082143 140.752657,66.5458495 C143.711497,56.8742975 146.672955,47.2001322 149.631795,37.5285802 C137.162772,41.6339594 124.691131,45.744565 112.222108,49.8499441 L112.041436,49.8577838 C111.758644,49.9361806 111.502037,49.802906 111.323982,49.3194591 C107.467017,38.8665523 96.8125746,9.98778395 95.34101,6 C95.4745506,11.2943973 81.0835911,40.9701998 78.6667688,46.1966532 C78.3028053,47.4536152 77.5041803,48.5537837 76.6741341,48.2428097 C66.2265489,44.3334225 55.9779653,39.9824001 45.8995804,35.2237142 C46.5803755,46.0058876 46.9233914,56.7959007 46.8710226,67.6068196 L46.80818,68.1817295 C46.6694025,69.3472286 46.1430956,70.6068038 45.056442,71.0797979 C32.3727069,76.6067724 19.683735,82.1337468 7,87.6633345 C17.5392307,94.0134754 28.0784614,100.36623 38.6203105,106.718984 L38.9659449,107.147553 L39.0471167,107.401036 L39.0863933,107.61532 C39.2330261,108.519497 38.9057208,109.802591 38.3191897,110.65973 L37.8819098,111.260772 C31.3410406,121.094344 24.5173797,130.724084 17.4449668,140.181352 C29.4924203,137.526313 41.5372554,134.871275 53.5847089,132.213623 C53.8229872,132.14568 54.0062781,132.190104 54.1581478,132.297247 L54.2471748,132.417455 C54.5430588,132.545503 54.7342051,132.9401 54.673981,133.776333 C53.9774753,143.615132 53.4171286,153.459157 52.6211221,163.290115 C52.7651364,164.787494 53.0426913,165.767454 53.5166294,165.947767 C56.1455456,166.943406 67.9311549,157.684744 70.677901,155.993986 C76.0326157,152.701321 81.3873304,149.408655 86.7420451,146.115989 C87.0798242,145.909545 87.475209,145.84944 87.7868037,146.139509" fill="#FFF" transform="translate(5 10)"/><path d="M70.6747807,155.749837 C67.9171749,157.443734 56.0849694,166.719587 53.4456594,165.722099 C52.9698475,165.541452 52.6911952,164.559672 52.5466115,163.059513 C53.3457652,153.2103 53.9083273,143.347997 54.6075867,133.49093 C54.668049,132.653145 54.4761469,132.257815 54.1790931,132.129529 L54.0897141,132.009097 C53.937244,131.901756 53.7532284,131.857249 53.514008,131.925319 C41.418923,134.587905 29.3264668,137.247873 17.2313818,139.907841 C24.3317566,130.433014 31.1823959,120.785393 37.7491254,110.933563 L38.1881342,110.331404 C38.7769842,109.472675 39.1055836,108.187198 38.9583711,107.281342 L38.9189391,107.06666 L38.8374465,106.812706 L38.4904456,106.383341 C27.9069176,100.018792 17.3260184,93.6542419 6.74511921,87.2923103 C19.4790014,81.7524554 32.2181411,76.2152186 44.9520233,70.6779817 C46.0429731,70.2041095 46.5713609,68.9421954 46.710687,67.7745323 L46.7737781,67.1985549 C46.826354,56.3675626 46.4819819,45.5575149 45.7984952,34.7553215 C55.9167265,39.5228431 66.2058295,43.8819445 76.6947208,47.7985905 C77.5280488,48.1101418 78.3298312,47.0079306 78.6952337,45.7486347 C81.1216113,40.5124769 95.5694677,10.7815732 95.4353992,5.47734545 C96.9127819,9.47253381 107.609348,38.4049235 111.481563,48.877239 C111.660321,49.3615835 111.917943,49.4951056 112.201853,49.4165632 L112.383239,49.408709 C124.90156,45.2957071 137.42251,41.177469 149.940831,37.0644671 C146.970293,46.753977 143.997126,56.446105 141.026588,66.1356149 C140.763708,66.9995809 140.582322,68.5311571 141.565491,69.0128836 C153.849849,75.0632639 166.136836,81.108408 178.421194,87.1587883 C167.848182,92.8792906 157.277798,98.602411 146.704785,104.325531 C146.102791,104.650173 145.661153,105.710495 145.477138,106.757727 C145.364099,107.184474 145.295751,107.61122 145.306266,107.98037 L145.348327,108.357373 L145.453478,108.67416 C148.053356,113.873665 158.721006,135.229334 161.457581,140.706355 C149.948718,138.920826 138.437225,137.137914 126.928361,135.352384 L126.292193,135.46758 L126.25539,135.48067 L125.750661,135.907417 L125.627108,136.051411 L125.366857,136.451977 C125.046144,137.001774 124.817439,137.656294 124.72806,138.300341 C121.733863,149.463829 118.742294,160.622081 115.750726,171.78557 C106.45005,163.148528 97.1520022,154.511485 87.8513261,145.877061 C87.5384995,145.586455 87.1415515,145.64667 86.802437,145.853499 C81.4265515,149.152278 76.0506661,152.451057 70.6747807,155.749837 Z M166.794035,142.316474 C166.73883,142.002305 166.610019,141.77715 166.428632,141.622683 C160.758322,130.275929 155.093269,118.926557 149.425587,107.579803 C160.781981,101.429936 172.141004,95.2800689 183.497397,89.1328197 C184.73556,88.4625915 185.773934,85.0276721 184.212429,84.2605749 C170.929129,77.7206139 157.645829,71.183271 144.365157,64.6433099 C148.050728,54.6972283 151.144819,44.5940619 153.552795,34.2526504 L153.62903,33.8468481 C153.73944,33.3258504 153.763099,32.8703047 153.684235,32.5273364 C153.623773,31.7785658 153.371408,31.1292823 152.651119,31.3675274 C145.237917,33.8049589 137.822087,36.2423903 130.408886,38.6772037 C127.953591,39.483572 115.406354,45.2485816 113.884281,44.4919568 C109.504709,29.4510937 104.11568,14.821269 97.6146701,0.552739085 L97.3991089,0.186208042 L97.3018435,0.0998114392 L97.1966917,0.0474498617 C96.526349,-0.264101524 95.540551,1.04231983 95.3249898,1.52666443 C92.5200657,7.85979722 89.7151416,14.1903119 86.9102175,20.5208267 C85.2093873,24.3615484 81.9049922,37.328893 78.4954453,39.517607 C77.0443505,40.447025 75.1910502,40.7507221 73.0959007,40.6172001 C63.6558985,36.6010671 54.2132675,32.5875522 44.7732652,28.5714192 C44.3684308,28.3802994 44.0135435,28.563565 43.7059745,28.9065333 L43.6533986,28.9536587 L43.5377316,29.1081254 L43.4220647,29.2783005 C42.8332146,30.12394 42.4494106,31.4748687 42.6045095,32.4775929 C42.9935711,43.8060202 43.380004,55.1344475 43.7690656,66.4628748 C29.836453,72.5211093 15.9064692,78.5767257 1.97385659,84.6349602 L1.74515144,84.794663 C0.98280094,85.1088325 0.349261386,86.2503149 0.1389578,87.3787069 C-0.102891324,88.2583814 -0.0713457865,89.1014028 0.575337742,89.4888785 C11.6478216,96.8142631 23.0094728,103.657921 34.6392611,110.061742 C27.0972488,120.625691 19.5552364,131.192257 12.013224,141.758823 C11.8397236,142.002305 11.7109126,142.311238 11.6189048,142.64897 L11.5584425,142.871507 C11.3639117,143.489373 11.2719039,144.136039 11.3165934,144.677981 C11.2929343,145.366536 11.5111242,145.845644 12.1131183,145.848262 L12.6783091,145.811609 C25.8249121,143.782598 38.766469,140.949837 51.5555559,137.305471 C50.7432583,148.471577 49.9283319,159.635066 49.1134055,170.801172 C49.0950039,171.021091 49.0923751,171.337878 49.1265495,171.665138 L49.1659814,171.97669 C49.3053075,172.720224 49.67071,173.366889 50.5355835,172.835419 C55.9114689,169.53664 61.2899831,166.235243 66.6658686,162.936463 C70.8771979,160.352419 77.9828303,153.85173 82.7961536,153.037507 C93.1010294,151.291248 108.103561,171.269808 115.096156,177.762644 C116.145045,178.736569 117.222851,176.440514 117.396351,175.79123 C119.073522,169.534022 120.750693,163.271577 122.430493,157.009133 C122.903676,155.25502 125.385259,140.7273 125.68757,140.428839 C138.526604,143.368942 151.476047,145.37439 164.604249,146.453039 L164.664711,146.445184 L164.869757,146.429476 L164.901303,146.42424 C165.718858,146.340461 166.286677,145.455551 166.567958,144.437118 C166.812436,143.696202 166.914959,142.910778 166.794035,142.316474 Z" fill="#212121" transform="translate(5 10)"/><path d="M131.185577 157.035487C130.031454 156.72348 129.276287 158.552486 129.031214 159.249122 127.763104 162.837202 126.497843 166.422593 125.232583 170.007983 124.967562 170.750344 124.702541 172.662732 125.813919 172.96398 126.965192 173.278676 127.723208 171.44698 127.971131 170.750344 129.236391 167.162264 130.501652 163.576874 131.769762 159.991484 132.031933 159.249122 132.296954 157.336735 131.185577 157.035487M187.705257 97.1713055C181.56151 100.772354 175.415249 104.370702 169.268989 107.969051 167.88388 108.784281 167.285594 114.004991 169.294127 112.828036 175.440387 109.226988 181.584134 105.62864 187.727881 102.030291 189.118017 101.215061 189.71379 95.9970507 187.705257 97.1713055M77.4513658 21.4382451C79.1453645 17.8424948 80.8393632 14.24944 82.5333618 10.6536897 82.9123495 9.85044109 83.3549258 7.8935335 82.543536 7.20888539 81.6609271 6.46763251 80.8673421 7.8854471 80.5493994 8.56200882 78.8554008 12.1550637 77.1614021 15.750814 75.4674034 19.3438688 75.0858722 20.1471174 74.6458395 22.1067205 75.4572293 22.7913686 76.3372946 23.5326214 77.1334231 22.1121114 77.4513658 21.4382451" fill="#212121" transform="translate(5 10)"/></g></svg>