<svg width="200" height="200" xmlns="http://www.w3.org/2000/svg"><g fill="none" fill-rule="evenodd"><path d="M59.009 191.868c-.349 5.752 9.834 7.408 9.99 1.105.15-6.15-8.616-6.686-9.99-1.105" fill="#FFF"/><path d="M58.347 191.973c1.412-5.066 10.414-4.579 10.26 1.003-.16 5.72-10.618 4.218-10.26-1.003zm6.545-5.908c-3.584-.555-6.987 2.514-7.767 5.694l-.013.047-.016.054-.002.02-.066.286c-.325 3.46 2.248 6.583 6.03 6.822 3.375.212 6.255-2.387 6.838-5.46.606-3.185-1.478-6.917-5.004-7.463z" fill="#212121"/><path d="M25.555 45.46c.597-.31 1.317-.801 1.426-1.538.144-.956-.566-2.001-1.178-2.63-1.24-1.274-3.28-1.836-4.73-.61-1.374 1.16-1.416 3.142-.197 4.429 1.302 1.124 3.212 1.115 4.679.35" fill="#FFF"/><path d="M20.635 38.968c1.45-1.072 3.488-.58 4.728.533.611.55 1.322 1.463 1.178 2.3-.11.644-.83 1.073-1.426 1.345-1.466.67-3.375.676-4.676-.306-1.219-1.125-1.177-2.857.196-3.872zm5.844 5.472c2.045-1.95 2.037-5.237-.077-7.136-5.02-4.515-11.223 3.838-7.002 7.735 2.06 1.555 5.269 1.128 7.079-.6z" fill="#212121"/><path d="M128.785 11.068c-2.264 1.869-2.33 5.15-.451 7.284.133.15.176.392.166.66.176-.115.366-.153.555-.024 2.026 1.387 4.699 1.295 6.78.05 3.017-1.801 2.689-5.227.202-7.384-1.985-1.723-5.077-2.384-7.252-.586" fill="#FFF"/><path d="M134.596 18.723c-1.938 1.156-4.427 1.242-6.314-.047-.175-.12-.352-.085-.516.023.009-.25-.031-.474-.155-.614-1.749-1.983-1.688-5.033.42-6.77 2.026-1.671 4.905-1.057 6.753.544 2.316 2.005 2.621 5.19-.188 6.864zm-7.496 1.522c.006.25.074.462.229.568 6.86 4.682 14.595-5.628 8.408-11.09-6.68-5.9-14.118 4.785-9.08 10.497.134.151.29.136.443.025z" fill="#212121"/><path d="M121.949 163.248c-.895-4.428-9.5-4.43-8.921.619.504 1.922 2.674 3.069 4.702 3.131 2.112.066 4.664-1.549 4.219-3.75" fill="#FFF"/><path d="M112.35 163.405c-.534-5.063 7.393-5.062 8.217-.621.41 2.208-1.94 3.828-3.886 3.761-1.869-.062-3.867-1.213-4.331-3.14zm2.657-6.112c-2.816 1.054-4.17 4.377-3.991 7.237a.968.968 0 00.01.332c.733 3.046 4.19 5.01 7.144 3.752 2.638-1.124 4.283-4.466 3.72-7.288-.606-3.027-3.963-5.125-6.883-4.033z" fill="#212121"/><path d="M191.916 95.697c-1.014-5.148-10.534-4.97-9.884.85 1.224 4.807 10.968 4.66 9.884-.85" fill="#FFF"/><path d="M182.35 96.025c-.605-5.744 8.265-5.92 9.21-.84 1.01 5.438-8.069 5.583-9.21.84zm10.53-2.295c-.667-3.314-4.353-5.607-7.545-4.407-3.041 1.145-4.518 4.727-4.317 7.826a1 1 0 00.011.331c.019.18.06.296.111.367.986 3.122 4.62 5.056 7.723 3.728 2.836-1.215 4.63-4.798 4.017-7.845z" fill="#212121"/><path d="M130.144 122.969c-3.55 1.824-7.958 1.975-12.258-.696-.675-.418.14-2.723.98-2.2 5.75 3.57 12.676 1.45 15.71-3.195.19-.506.352-1.032.485-1.58l.312.087c1.067-2.5 1.09-5.521-.53-8.703-.358-.704.698-2.863 1.198-1.88 1.88 3.694 1.848 7.573.563 10.896 1.917.491 3.842.946 5.773 1.371 2.574-3.811 4.438-8.185 5.368-13.182-.12-.386-.017-.995.21-1.45.705-7.566-1.072-14.8-6.195-20.628-.562-.64.41-2.85.98-2.202 5.513 6.27 7.291 14.055 6.59 22.153 13.753-1.806 24.3-14.08 21.09-28.15-3.021-13.24-15.753-20.323-28.824-18.284l-.172.024c-3.607.774-6.895 2.181-9.863 4.369-.864.636-.635-1.764-.011-2.224 2.976-2.193 6.32-3.646 9.926-4.458 5.53-10.132-2.026-18.07-10.925-20.8-6.424-1.97-13.064-1.206-19.133 1.34a28.139 28.139 0 012.142 4.025l.033.14c2.722 1.473 4.753 4.349 4.932 8.138.045.916-1.305 2.514-1.381.905-.353-7.43-9.477-10.337-14.436-5.043-.943 1.009-.896-1.35-.361-1.92 2.559-2.733 5.797-3.572 8.705-2.993-.5-.89-1.05-1.753-1.652-2.589-7.664-9.744-19.998-14.33-32.199-11.33C62.65 26.485 52.951 38.7 50.34 52.973l-.037.28-.034.181-.006.029c-.5 3.596-.594 7.185-.228 10.802.077.761-1.197 2.776-1.332 1.438a49.672 49.672 0 01.147-11.27c-9.901-2.343-20.445.257-26.178 9.15-5.831 9.048-4.459 20.022 2.299 28 1.976-1.957 4.407-3.32 7.196-3.774.928-.15.472 2.25-.346 2.382-2.617.426-4.887 1.665-6.718 3.543a1.06 1.06 0 01-.31.344c-3.607 4.52-2.914 10.545 1.215 14.459 2.736 2.593 6.235 3.36 9.806 2.851a36.586 36.586 0 01-1.338-5.86c-.07-.488.046-1.361.485-1.681.355-.258.768-.328.848.24a35.158 35.158 0 001.84 7.286l.013.031c3.65 8.921 9.764 15.552 17.234 20.17a261.245 261.245 0 006.736-3.706c-4.26-4.949-6.393-11.925-4.522-19.542.36-1.458 1.55-1.084 1.2.34-1.852 7.529.543 13.93 4.998 18.23l.194-.114c.223.32.458.63.7.93 7.09 6.045 18.53 7.181 26.984.016.79-.67.595 1.728.01 2.224-7.026 5.956-15.16 6.506-21.797 3.638a276.48 276.48 0 00-2.858 3.29c8.272 2.659 17.315 3.555 26.123 2.927 2.187-.156 4.427-.388 6.691-.698 1.426-3.37 4.521-6.03 8.364-6.95 3.529-6.568 12.343-5.715 14.5.728 4.285-1.887 8.305-4.198 11.852-6.992a173.41 173.41 0 00-3.926-2.927" fill="#FFF"/><path d="M50.155 26.25a60.68 60.68 0 00-1.577-1.187c-.782-.57-1.64 1.733-.981 2.213.148.107.29.22.436.328-4.408 2.965-10.806 1.074-11.976-4.579l-.048-.28a5.352 5.352 0 01.062-1.417c.063-.355.029-1.107-.497-1.045-.52.062-.772.957-.84 1.35-.025.143-.023.285-.04.426-1.46-.599-2.611-1.76-2.675-3.492-.092-2.502 2.252-3.662 4.391-3.858.981-.026 1.927.2 2.803.635.702.348 1.514-1.98.687-2.39-.864-.43-1.761-.607-2.705-.632-.438-3.262.885-6.3 4.127-7.552 2.349-.909 4.605-.255 6.305 1.38a7.422 7.422 0 00-.787 2.164c-.07.355-.023 1.106.498 1.044.527-.062.764-.956.841-1.35.099-.502.439-.921.782-1.283 2.964-2.758 8.037-.84 7.476 3.471l-.004.035c-.082.395-.295.725-.533 1.044-.3.4-.513 1.235-.256 1.697.283.508.702.126.942-.195.247-.328.439-.681.606-1.046 2.363 2.599 1.709 6.841-.915 9.067a78.61 78.61 0 01-1.26-3.228c-.197-.547-.755-.085-.942.196-.316.472-.451 1.153-.256 1.695a79.64 79.64 0 001.456 3.73c1.185 2.748 2.495 5.431 3.878 8.074a39.068 39.068 0 00-1.338 1.571 128.127 128.127 0 00-7.66-6.586zm5.003 122.786l-.076.1-.021.028a121.064 121.064 0 00-2.245 3.204c-.283.42-.52 1.22-.256 1.697.276.496.716.144.944-.194.573-.85 1.169-1.686 1.766-2.52 9.12 8.322 6.457 23.156-6.156 25.96a13.565 13.565 0 01-4 .045c-.897-.126-1.492 2.275-.688 2.39 1.187.169 2.37.176 3.552.054-1.515 4.686-6.537 6.727-11.241 5.377-4.243-1.217-6.629-4.767-7.212-8.982-.09-1.692.14-3.283.849-4.84.16-.35.426-1.308.003-1.588-.443-.298-.815.267-.975.624a14.205 14.205 0 00-1.262 5.39c-5.159.964-10.305.275-14.495-3.161-5.81-4.764-7.106-12.587-1.312-18.037 1.37 1.133 2.948 1.927 4.724 2.195.893.136 1.496-2.267.687-2.39-1.798-.271-3.365-1.048-4.722-2.245-2.905-2.883-4.78-7.662-1.767-11.223 2.188-2.586 5.6-3.576 8.893-3.256l.077.016.1.02c1.307.225 2.535.67 3.628 1.436.798.56 1.646-1.748.981-2.213a9.598 9.598 0 00-2.532-1.258c5.794-4.903 15.34-3.147 20.6 2.02-1.77.79-3.55 1.558-5.35 2.279-.786.315-1.108 2.702-.343 2.396 2.44-.978 4.85-2.028 7.24-3.122l.232-.105c6.209-2.915 12.244-6.165 18.156-9.602.252.246.503.49.766.722-6.315 4.424-12.867 8.496-19.904 11.874-.705.338-1.026 2.733.01 2.236 7.588-3.641 14.613-8.089 21.384-12.915a21.421 21.421 0 002.71 1.702c-4.455 5.14-8.73 10.425-12.745 15.886zm52.499-16.637c-3.843.925-6.938 3.601-8.364 6.99-2.264.312-4.503.546-6.69.703-8.808.631-17.851-.27-26.122-2.944a277.628 277.628 0 012.858-3.31c6.636 2.885 14.77 2.332 21.796-3.66.585-.498.78-2.91-.011-2.236-8.454 7.207-19.893 6.064-26.982-.016a16.346 16.346 0 01-.7-.936l-.195.116c-4.455-4.326-6.849-10.765-4.998-18.337.35-1.433-.84-1.809-1.199-.343-1.87 7.662.262 14.68 4.522 19.657a260.776 260.776 0 01-6.736 3.727c-7.47-4.645-13.583-11.314-17.233-20.287l-.012-.031a35.534 35.534 0 01-1.841-7.329c-.08-.571-.493-.5-.848-.242-.439.322-.555 1.2-.485 1.69.283 2.01.736 3.971 1.338 5.896-3.571.51-7.07-.26-9.806-2.868-4.128-3.937-4.821-9.998-1.214-14.544.115-.076.218-.194.309-.346 1.831-1.89 4.1-3.135 6.718-3.564.818-.133 1.274-2.547.346-2.395-2.789.456-5.22 1.827-7.196 3.795-6.757-8.024-8.13-19.062-2.299-28.162 5.733-8.946 16.276-11.561 26.177-9.204a50.255 50.255 0 00-.147 11.336c.136 1.345 1.41-.681 1.332-1.447-.366-3.638-.272-7.248.228-10.865l.007-.029.033-.183.038-.28c2.61-14.358 12.308-26.644 26.86-30.242 12.2-3.017 24.534 1.597 32.197 11.398.603.84 1.153 1.709 1.653 2.604-2.908-.583-6.146.261-8.705 3.01-.535.574-.582 2.946.361 1.932 4.958-5.326 14.082-2.402 14.435 5.072.076 1.618 1.426.01 1.381-.91-.18-3.812-2.21-6.705-4.932-8.186l-.032-.14a28.36 28.36 0 00-2.143-4.05c6.069-2.56 12.709-3.329 19.133-1.347 8.898 2.746 16.454 10.73 10.924 20.922-3.606.817-6.95 2.277-9.926 4.484-.623.462-.852 2.876.011 2.236 2.968-2.2 6.256-3.616 9.863-4.394l.172-.024c13.07-2.051 25.802 5.073 28.823 18.391 3.21 14.152-7.336 26.498-21.09 28.314.702-8.145-1.077-15.975-6.588-22.282-.571-.651-1.543 1.571-.981 2.214 5.123 5.863 6.9 13.139 6.195 20.748-.227.459-.33 1.072-.21 1.46-.93 5.026-2.794 9.425-5.368 13.26a174.136 174.136 0 01-5.773-1.38c1.286-3.342 1.317-7.245-.563-10.96-.5-.989-1.555 1.183-1.198 1.89 1.62 3.202 1.597 6.241.53 8.755l-.312-.087a13.95 13.95 0 01-.484 1.588c-3.034 4.672-9.96 6.804-15.71 3.214-.84-.526-1.655 1.793-.98 2.213 4.3 2.686 8.709 2.535 12.257.7 1.323.963 2.631 1.944 3.926 2.945-3.547 2.81-7.567 5.134-11.85 7.032-2.158-6.48-10.972-7.338-14.5-.732zm17.13 12.197c-1.172 2.52-3.708 3.428-6.258 3.047.429-.93.75-1.905.938-2.93.064-.36.026-1.106-.498-1.047-.522.06-.77.96-.841 1.351-.176.965-.586 1.826-1.116 2.638l-.16.22c-3.497 4.213-9.37 5.484-13.731 1.68-1.653-1.441-2.992-3.706-3.236-5.905-.516-4.647 2.994-7.62 6.899-8.729-.227 1.208-.242 2.446.026 3.659.111.502.489.587.848.242.389-.375.602-1.166.486-1.69-.236-1.064-.168-2.04.136-3.051l.1-.26c2.782-5.808 10.695-4.4 12.502.94a6.434 6.434 0 00-.985-.15c-.922-.053-1.456 2.347-.687 2.39a6.812 6.812 0 012.407.596c2.502 1.312 4.503 4.132 3.17 6.999zm43.562-17.94a8.103 8.103 0 01-3.856.96c-.788 0-1.343 2.397-.344 2.395 1.365-.003 2.636-.356 3.848-.947 2.636 3.585 3.787 8.382.855 12.229-2.44 3.197-6.206 3.809-9.786 2.439.198-1.143.183-2.31-.132-3.441-.136-.483-.475-.608-.85-.243-.368.362-.626 1.18-.484 1.69.256.918.27 1.77.025 2.677l-.025.06c-2.36 5.735-9.47 4.69-11.55-.62l-.1-.278c-.167-.702-.221-1.376-.088-2.102.066-.356.026-1.107-.497-1.045-.522.062-.768.957-.84 1.35a7.78 7.78 0 00-.115 1.15c-4.572-1.923-6.703-7.902-5.038-12.48 1.21 1.052 2.41 2.114 3.571 3.22.662.629 1.592-1.633.982-2.214a111.695 111.695 0 00-4.077-3.675 155.947 155.947 0 00-7.645-6.01 13.907 13.907 0 003.218-3.648c2.67.695 5.356 1.336 8.052 1.9a85.73 85.73 0 002.66.489c.887.147 1.5-2.255.687-2.39-.651-.109-1.297-.234-1.945-.359 3.187-7.5 13.295-8.498 18.264-2.018.455.707.85 1.46 1.09 2.27.14.472.474.619.847.242.362-.364.637-1.18.485-1.69-.087-.3-.208-.578-.318-.863 5.781.026 8.938 7.335 3.106 10.952zm4.53-7.188c-.732-4.401-4.518-6.937-8.821-6.017-5.238-6.744-13.822-5.254-18.375.462 1.448-2.96 2.544-6.194 3.234-9.709 13.277-1.749 23.814-13.186 23.462-26.768-.411-15.956-14.025-26.697-29.41-24.867 2.97-6.607 2.356-13.514-3.675-18.682-8.183-7.013-19.795-6.697-29.118-2.362-9.238-11.657-24.722-15.438-38.397-9.457-4.346 1.9-8.074 4.543-11.22 7.71a123.733 123.733 0 01-3.588-7.368c3.33-3.368 4.581-9.822.862-13.217.102-2.16-.627-4.436-2.575-5.603-2.068-1.237-4.443-.58-6.201.824-2.709-3.07-6.912-3.191-10.012-.48-2.51 2.192-3.497 5.376-3.323 8.574-5.589 1.505-7.385 10.532-.94 12.193 1.577 6.918 9.69 8.78 14.67 3.99a127.308 127.308 0 016.98 5.984c-3.546 5.017-5.945 10.886-7.23 17.097-11.85-2.705-23.667 1.933-28.98 13.243-4.498 9.57-3.24 20.174 3.319 28.3-6.25 9.537.56 23.059 12.989 20.383 3.502 8.448 9.078 14.816 15.88 19.392a209.152 209.152 0 01-7.287 3.635c-5.718-7.142-18.424-9.062-24.591-1.47-10.283-.765-15.612 10.599-9.345 18.158-4.11 4.354-5.523 10.525-2.75 16.133 3.735 7.553 11.988 10.129 19.825 8.529.955 5.654 5.117 10.067 11.2 9.922 5.232-.125 8.612-3.767 9.87-8.437 13.61-3.468 17.168-20.582 7.303-30.065a242.898 242.898 0 018.175-10.362c10.602 3.58 22.546 4.24 33.782 2.678-.292 1.77-.16 3.645.541 5.515 3.067 8.178 12.729 8.812 17.999 2.565 8.633 2.136 12.94-10.218 5.46-14.516-.01-.112-.023-.221-.036-.332 4.635-2.14 8.951-4.775 12.724-7.967 1.03.814 2.05 1.646 3.06 2.489-2.312 5.89-.25 14.433 6.488 16.127 1.114 2.944 3.801 5.397 7.126 5.209 2.911-.165 5.128-2.297 6.335-4.801 5.18 2.029 10.207-.372 12.487-5.41 1.974-4.361 1.362-8.901-1.086-12.791 2.409-2.084 3.732-5.16 3.189-8.431z" fill="#212121"/><path d="M65.61 18.897c5.274-3.589 11.138-5.381 17.485-5.407.809-.002 1.377-2.494.353-2.49-6.46.027-12.5 1.932-17.85 5.572-.666.453-.923 2.962.011 2.325m106.494 38.267c2.755 4.301 4.3 9.026 4.49 14.134.061 1.643 1.44.01 1.406-.924-.201-5.44-1.73-10.529-4.676-15.129-.626-.978-1.652 1.241-1.22 1.919M12.933 85.976c-1.796-3.59-2.237-7.584-.864-11.41.364-1.016-.372-2.404-.908-.912-1.685 4.698-1.594 9.61.654 14.106.466.934 1.451-1.116 1.117-1.784M94.364 14.4c2.518 1.188 5.036 2.378 7.554 3.565.732.345 1.582-1.957.718-2.365l-7.554-3.565c-.732-.345-1.582 1.957-.718 2.365" fill="#212121"/></g></svg>