<svg width="256" height="187" xmlns="http://www.w3.org/2000/svg"><g fill="none" fill-rule="evenodd"><path d="M192 65.31l39.483-5.385c7.898-4.393 15.164-7.367 21.798-8.922 1.866-.055 4.836.624.412 4.312s-8.913 7.768-8.124 9.736c.788 1.969 4.902 1.236 5.584 4.264.454 2.018-6.223 2.346-20.032.984L199.084 83 192 65.31zM67.97 74.45l21.897.082c-24.01 54.034-36.53 82.325-37.56 84.874-2.313 5.734 2.584 14.468 4.678 19.161-6.82 3.052-6.094-8.25-14.697-4.248-7.853 3.654-13.826 10.273-22.899 4.675-1.115-.688-2.338-3.28.616-5.304 7.357-5.045 17.96-13.875 19.393-16.782 1.954-3.963 11.478-31.45 28.572-82.458z" fill="#997659"/><path d="M127.95 5l17.144 1.142c4.223 38.201 27.222 62.33 78.717 54.162l6.841 49.195c-48.13 6.22-90.339-13.05-98.99-65.22-2.239-13.506-4.007-27.561-3.713-39.279z" fill="#AFB9C5"/><path d="M119.49.016l25.978 5.95C145.468 50.643 159.7 79.15 167 112H96.844c-.989 11.35-1.596 23.018-1.912 35h-52.53C54.305 83.664 79.43 34.664 117.776 0h1.701l.014.016z" fill="#C5CFD6"/><path d="M107.912 48.26c-1.808 27.84-.744 49.087 3.19 63.74H96.844c1.957-22.486 5.412-43.733 11.068-63.74z" fill-opacity=".1" fill="#000"/></g></svg>