<svg width="500" height="600" xmlns="http://www.w3.org/2000/svg" xmlns:xlink="http://www.w3.org/1999/xlink"><defs><path id="a" d="M.453.407H161.47V140H.453z"/></defs><g fill="none" fill-rule="evenodd"><path d="M326.305 282.633c-1.333-2.415-2.701-4.805-4.16-7.146-.887-1.426-1.687-3.965-3.11-4.93-.64-.436-1.016-.997-1.2-1.596a5.943 5.943 0 00-2.514-1.264 98.557 98.557 0 01-5.174-5.13c-1.723-.678-3.39-1.492-4.901-2.539a4.97 4.97 0 00-2.186.918c-2.944-2.59-6.435-4.574-10.427-5.799a5.354 5.354 0 00-1.307-.232c-.77-.428-1.54-.859-2.307-1.289-1.602-.895-3.155-.833-4.431-.216a38.777 38.777 0 00-7.354-3.513c-1.687-.6-3.105-.287-4.147.521-1.875.847-2.782 2.821-2.72 4.761-.01.043-.023.083-.033.127l-.013.003.039-.295c-.017.102-.043.201-.067.301-.111.025-.222.053-.338.072l.246-.033c-.8.151-1.53.422-2.188.92l-.874-.139a5.407 5.407 0 00-1.914.03c-.922-.32-1.93-.32-2.871-.059-.627-.676-1.257-1.347-1.87-2.04a7.146 7.146 0 00-1.13-1.037c-1.04-1.089-2.54-1.802-4.5-1.802-.272 0-.527.03-.781.055-.825-.452-1.802-.738-2.933-.793-12.49-.603-23.707 5.398-30.728 15.056a7.702 7.702 0 00-1.361.95 34.13 34.13 0 00-6.52 7.742c-1.357.715-2.444 1.932-3.18 3.501-.026.053-.071.138-.15.288-.148.285-.29.574-.447.855-.156.28-.322.557-.494.828-.032.052-.133.207-.235.366-.11.144-.28.375-.337.442-.212.243-.43.48-.654.71-.313.318-1.952 1.713-.678.732-1.104.85-2.008 1.666-2.586 2.84-.1.086-.203.17-.298.264a6.28 6.28 0 00-1.447 2.214c-.037.035-.075.064-.112.1-2.266 2.266-2.76 6.994 0 9.193.744.591 1.487 1.183 2.23 1.776.267.9.755 1.792 1.523 2.626a55.536 55.536 0 005.86 5.481c.319 2.01 1.462 3.862 3.43 4.756 1.1 1.968 3.249 3.358 5.5 3.445l2.135 2.011c.154.021.309.031.462.071 1.258.322 2.426.967 3.53 1.751 5.017 1.808 10.216 5.605 14.597 6.446.045-.125.093-.25.15-.376.233-.496.448-.998.657-1.5.269-.945.597-1.865.945-2.783 1.747-5.336 4.146-10.61 8.55-14.148 1.839-1.477 4.014-2.487 6.32-3.063-.396-.35-.71-.793-.843-1.319l-.841-2.516a2.93 2.93 0 01-.265-1.206c-.208-.219-.407-.448-.642-.64a2.325 2.325 0 00-.061-.044c-.515-.348-.862-.779-1.052-1.367-.19-.589-.05-1.233.23-1.763.262-.495.837-.905 1.368-1.052.536-.146 1.289-.087 1.762.231.3.203.585.42.856.645.192-.018.398-.016.618.008.028.003.058.005.086.01.516-2.44 2.572-3.992 4.822-4.775 4.82-1.678 10.646-.723 15.538.072.267.044.533.097.8.142 2.419.001 4.809.408 7.195 1.053l.108.03c.043-.01.082-.034.125-.043 1.269-.279 2.434-.15 3.686.147.199.047.399.086.597.134a12.605 12.605 0 001.35.005c.193-.307.452-.583.765-.806 2.416-1.712 5.122-2.916 7.889-3.943a84.152 84.152 0 012.13-.755c.358-.12.716-.24 1.074-.362.067-.022.719-.245.689-.223 1.06-.425 2.062-.999 3.124-1.425 2.253-.9 4.24-.74 5.996.987 1.143 1.126 2.26 2.676 3.1 3.751.182.023.35.062.505.12a2.235 2.235 0 011.574-.685c.076-.01.148-.027.227-.03 1.173-.052 2.374 1.091 2.287 2.288a86.511 86.511 0 01-.17 1.962c.19-.346.38-.696.57-1.034 1.438-2.524 2.933-5.139 3.327-7.995-.005-.01-.014-.019-.021-.032m-14.859 52.729a5.643 5.643 0 00.446-2.905c.003-.041-.004-.082 0-.122-3.355 3.35-6.927 6.48-10.232 9.886-1.07 1.104-2.395 1.022-3.384.37-.794.5-1.599.99-2.413 1.46-1.438.835-2.822.639-3.879-.07-3.084.229-5.969-.348-8.808-1.13-2.168-.046-4.333-.425-6.413-1.03-.015-.004-.026-.012-.04-.016-.585.14-1.242.136-1.966-.08-2.637-.788-6.564-.492-9.793-1.258-.78-.002-1.556-.055-2.318-.26-2.357-.628-3.636-2.745-3.082-5.105-.224-1.232-.4-2.49-.597-3.748-1.35-.187-2.713-.633-4.016-1.155-.34 1.492-.733 2.97-1.403 4.356-2.163 4.468-6.595 5.986-11.289 6.1a3.786 3.786 0 01-1.319-.198c-.896.06-1.81 0-2.768-.15-3.15.17-6.387-.007-9.49-.605-3.58-.543-7.1-1.642-10.37-3.051a18.49 18.49 0 00-.982 3.449l-.525 1c-1.06 2.014-1.079 4.557-.018 6.527-.78.7-1.26 1.659-1.473 2.682-1.112.782-1.738 2.028-1.928 3.348-2.364 2.738-1.273 8.15 3.268 8.42.613 1.642 2.041 2.937 4.274 3.014.805.91 1.997 1.516 3.58 1.516.183 0 .351-.022.524-.038.658.594 1.534.984 2.6 1.102.764.703 1.813 1.15 3.137 1.178.794 1.115 2.084 1.888 3.875 1.888a5.1 5.1 0 001.864-.343c.71.447 1.587.718 2.641.718.462 0 .882-.062 1.276-.158.6.326 1.298.543 2.096.613 4.064.354 8.132.639 12.202.89 15.804 2.239 31.6 1.954 47.37-.895.825-.148 1.486-.448 2.014-.843.121.007.238.018.363.018 2.395 0 3.885-1.39 4.498-3.127 2.08-1.03 2.903-3.48 2.468-5.638 3.192-7.692 1.38-18.053.01-26.61" fill="#27A9E0"/><path d="M249.883 368.506a91.019 91.019 0 01-7.98-5.486 2.027 2.027 0 00-.782-1.045c-7.375-5.21-10.834-13.488-11.748-22.14-.18-.03-.351-.079-.53-.112-3.385-.497-6.718-1.496-9.841-2.787-.055.203-.114.404-.161.61-.027.12-.044.235-.053.35l-1.257 3.842c-.165.504-.074.983.154 1.4l-4.065 10.651c-.143.377-.12.78.017 1.148-1.423.157-2.45 1.85-1.231 3.321 2.336 2.813 5.103 5.21 8.186 7.173.55.35 1.086.387 1.549.228.866.523 1.805.988 2.742 1.032a44.21 44.21 0 003.64 1.684c6.422 2.6 13.545 2.984 20.35 3.86 2.084.266 2.555-2.782 1.01-3.729M235.959 280.7a568.777 568.777 0 00-3.492 13.224 1.68 1.68 0 00-.746.254l-.406.312a2.013 2.013 0 00-.514.883l-.4 2.624a1.566 1.566 0 00-.061.5 1.678 1.678 0 00-.301.625 47.615 47.615 0 01-1.512 5.277 46.099 46.099 0 01-1.09 2.807c-.105.24-.211.478-.32.717-.191.416-.388.828-.59 1.239-.14.286-.214.602-.23.92-.357.255-.634.614-.735 1.058l-1.371 5.984c.843.35 1.645.832 2.416 1.383a36.765 36.765 0 013.852 1.672c2.717-12.9 5.817-25.716 9.357-38.417.693-2.483-3.166-3.542-3.857-1.062m76.571 60.834c.031-2.995-.095-5.972-.296-8.845a2.108 2.108 0 00-.123-.579c-1.939 1.948-3.95 3.823-5.949 5.712-.553 4.602-1.01 9.238-1.956 13.78-1.589 7.624-5.263 16.104-13.147 18.987-2.397.877-1.362 4.744 1.064 3.857a22.19 22.19 0 003.181-1.464c.424.341 1.006.492 1.704.286 5.724-1.688 11.554-3.904 14.222-9.696 1.323-2.87 1.847-5.969 2.17-9.09.39-3.754.39-7.528.042-11.283-.063-.683-.39-1.302-.912-1.665m-82.191-84.316c-.837-.837-1.98-.674-2.828 0a83.604 83.604 0 00-17.605 19.148c-.541.813-1.087 1.65-1.626 2.496-.28.087-.538.24-.738.486a52.65 52.65 0 00-5.18 7.641 1.946 1.946 0 00-.49.861c-.016.057-.026.117-.042.175-.28.537-.571 1.067-.831 1.615-.062.131-.11.268-.148.408a2.24 2.24 0 00-.57.89c-.771 2.23.206 4.677 2.035 6.01.817 1.275 1.633 2.552 2.45 3.83.295.458.7.734 1.136.862.268.358.543.704.846 1.006.06.061.136.1.203.153l1.547 2.69c.538.935 1.809 1.26 2.737.717 1.01-.592 1.166-1.75.716-2.736a106.898 106.898 0 01-2.916-7.08c-.754-2.038-1.972-4.509-1.43-6.724.045-.183.059-.357.059-.524.114-.455.256-.909.426-1.362 1.389-3.699 3.75-7.208 5.982-10.446 4.51-6.545 10.04-12.353 16.267-17.288.847-.67.702-2.126 0-2.828m91.806 18.268c-.888-1.426-1.687-3.963-3.109-4.928-.714-.485-1.1-1.126-1.253-1.8a80.431 80.431 0 00-28.237-14.565c-.005-.01-.007-.02-.012-.026-.302-.468-.687-.706-1.196-.92l-8.005-3.35c-.214-.09-.49-.097-.763-.057-1.78-.846-3.727-1.321-5.704-1.31-1.047.007-2.049.917-2 2 .017.402.144.783.354 1.102-1.362.865-.985 3.594 1.12 3.742 14.242.997 28.051 6.194 39.554 14.627 3.242 2.377 6.263 5.047 9.074 7.918.6.613 1.311.702 1.93.489-.575-.98-1.152-1.956-1.753-2.922" fill="#1C75BB"/><path d="M335.646 300.424c-.062-.106-.133-.209-.195-.315.156-.997-.2-2.014-1.157-2.573a2.322 2.322 0 00-.657-.244c-.137-.2-.293-.389-.433-.587a1.75 1.75 0 00.104-.844c-.029-.223-.079-.44-.115-.662a.187.187 0 00.025-.004c-.017-.042-.03-.088-.049-.132a21.15 21.15 0 00-1.68-5.46c-1.79-6.943-3.104-14.327-9.929-18.066-2.823-1.547-5.35 2.77-2.523 4.318 2.122 1.162 3.593 3.036 4.656 5.147-.105.015-.208.024-.317.053-1.1.303-2.123 1.646-1.804 2.847a2.802 2.802 0 00-1.106.046c-1.04.268-1.824 1.098-2.13 2.11-.216.708-.142 1.346-.044 2.03.073.02.141.043.21.067a2.267 2.267 0 011.607-.684c.068-.008.132-.024.202-.027 1.173-.052 2.374 1.091 2.287 2.288-.164 2.251-.454 4.493-.53 6.75.082 1.424.028 2.851-.01 4.278.04.453.025.89-.022 1.345v.014h-.002c0 .01-.003.02-.004.03 1.807 1.518 3.423 3.17 4.698 5.205a110.39 110.39 0 004.133-2.338c.552-.329 1.102-.68 1.63-1.06.72.317 1.578.327 2.26-.11 1.14-.736 1.598-2.21.895-3.422" fill="#27A9E0"/><path d="M336.685 301.09c-1.843-6.057-3.636-12.129-5.528-18.168-.85-2.709-1.921-5.263-3.785-7.437-1.807-2.107-4.204-3.663-6.51-5.165-2.705-1.76-5.214 2.567-2.525 4.318 1.964 1.277 3.982 2.565 5.499 4.383 1.542 1.847 2.196 4.218 2.882 6.476l5.146 16.921c.933 3.07 5.76 1.762 4.82-1.329M221.6 313.477a48.557 48.557 0 01-10.18-9.427c-.34-.42-1.06-.353-1.414 0-.04.04-.056.089-.088.132-2.31-3.113-5.003-5.917-7.404-8.96-.335-.424-1.063-.35-1.414 0-.419.42-.336.989 0 1.415a74.805 74.805 0 001.891 2.284c-.524.284-.846 1.032-.326 1.615 2.664 2.982 5.677 5.629 8.934 7.946-.02.248.062.509.304.734 1.496 1.399 3.01 2.789 4.696 3.958.81.56 1.66 1.062 2.56 1.463.457.205.923.383 1.395.554.004 0 .007.003.012.005.161.11.316.23.48.34.043.029.087.048.13.07.132.419.442.749.934.749.487 0 1.067-.461 1-1-.123-.973-.718-1.507-1.51-1.878" fill="#1C75BB"/><path d="M290.735 372.175c-2.47-.346-4.846-.082-7.297.273l-.483.07a1.484 1.484 0 00-.84-.04 13.54 13.54 0 01-6.013.028c-.55-.12-1.003.038-1.327.33a205.654 205.654 0 00-13.783.09 1.349 1.349 0 00-.692-.397l-2.306-.539a1.415 1.415 0 00-.846-.666c-1.18-.337-2.315-.356-3.52-.17-.47.074-.762.366-.923.73a17.129 17.129 0 01-5.209-.544 20.899 20.899 0 01-2.296-2.33c-.945-1.134-2.397-.158-2.484 1.022-.954.495-1.368 1.975-.148 2.604a20.469 20.469 0 003.364 1.367c1.682 1.415 3.577 2.568 5.613 3.292.075.201.18.385.334.54l.303.234c.19.11.394.164.608.185.221.162.503.266.85.271.102.001.204-.002.307 0 .024.007.046.021.07.028.133.043.271.055.41.074.138.018.273.042.412.033.205-.013.414-.036.611-.089.046-.012.085-.033.128-.048 2.38.008 4.756-.05 7.132-.143.235.37.624.65 1.177.685a64.23 64.23 0 0026.848-3.997c1.204-.455 1.63-2.665 0-2.893m-33.218-121.921c-1.93 0-1.934 3 0 3 1.931 0 1.934-3 0-3" fill="#27A9E0"/><path d="M216.868 361.566a.767.767 0 01-.069-.007l-.04-.008c-.074-.018-.148-.031-.22-.051a3.389 3.389 0 01-.2-.068c-.033-.012-.097-.035-.123-.05-.16-.077-.305-.173-.454-.27l-.009-.006a3.354 3.354 0 01-.278-.256c-.062-.063-.119-.131-.178-.196l-.017-.017c-.007-.011-.009-.017-.033-.052a3.415 3.415 0 01-.265-.457c-.015-.032-.017-.033-.024-.045-.002-.01.001-.006-.006-.03-.025-.084-.056-.166-.078-.252-.022-.08-.036-.16-.053-.24a2.808 2.808 0 01-.009-.127 1.123 1.123 0 00-.224-.588c.035-.068.067-.138.104-.205.185-.332.39-.65.598-.967.288-.438.101-1.125-.359-1.37-.5-.262-1.06-.107-1.368.36-.955 1.452-1.865 3.256-1.185 5.014.343.888.938 1.588 1.841 1.932.94.356 1.972.15 2.915-.08.483-.117.78-.621.715-1.097-.068-.514-.479-.826-.98-.867m50.328 15.684a71.366 71.366 0 01-13.933-5.938c-.03-.025-.064-.046-.094-.07a1.373 1.373 0 00-.404-.213 71.991 71.991 0 01-4.09-2.502c-.873-.576-1.696.452-1.409 1.238l-1.42-1.005c-.01-.024-.009-.05-.024-.073a2.881 2.881 0 00-1.093-.99 2.967 2.967 0 00-.696-.256 2.889 2.889 0 00-.759-.066c-.267.02-.514.1-.707.293-.174.173-.305.457-.293.707.008.17.064.334.146.485a1.068 1.068 0 00-.283.493c-.868-.142-1.515.97-.933 1.612-.08.375.028.803.425 1.083a20.823 20.823 0 004.31 2.325 53.747 53.747 0 004.651 2.56.926.926 0 00.461.664 10.31 10.31 0 002.75 1.15c.253.13.542.202.881.182.09-.006.166-.037.245-.064.327.1.673-.037.913-.278 3.773.587 7.601 1.12 11.356.593 1.04-.147.858-1.667 0-1.93m44.353-18.328c-.582 0-.948.46-1 1-.186 2-.846 4.054-1.76 5.84-.706 1.38-2.051 3.076-3.824 2.77-.531-.092-1.077.141-1.23.698-.132.481.164 1.137.699 1.23 2.522.437 4.642-1.15 5.849-3.257 1.252-2.185 2.033-4.78 2.267-7.28.05-.54-.496-1-1-1m-13.727 10.76a78.414 78.414 0 00-4.1 1.647.85.85 0 00-.026-.176c-.152-.579-.697-.771-1.229-.699-3.496.471-5.417 3.883-8.535 5.054-.242.075-.483.155-.726.229-1.234.368-.722 2.231.532 1.928a7.12 7.12 0 00.817-.257 92.088 92.088 0 008.936-3.289.778.778 0 00.496-.724 71.318 71.318 0 014.366-1.784c1.2-.44.681-2.373-.53-1.929m-75.273-55.12a41.757 41.757 0 01-11.115-8.304c-.891-.932-2.304.483-1.414 1.414a43.464 43.464 0 0011.519 8.618c1.143.587 2.156-1.138 1.01-1.728" fill="#1C75BB"/><path d="M350.68 375.889c.059-.345-.068-.707-.49-.928-.163-.078-.326-.163-.49-.245a.907.907 0 00-.451-.581c-.528-.301-1.062-.592-1.593-.886-.298-.303-.665-.548-1.043-.764a39.036 39.036 0 00-2.557-1.337 40.188 40.188 0 00-2.075-.907 19.82 19.82 0 00-.924-.433c-.988-.489-1.977-.976-2.976-1.442-.038-.022-.07-.045-.114-.064l-.123-.048c-.365-.17-.727-.346-1.095-.513a1.209 1.209 0 00-.694-.095 18.244 18.244 0 00-1.582-.361c-3.272-1.352-6.668-2.446-10.234-2.421-2.415.017-4.784.587-7.092 1.25-2.303.661-4.607 1.335-6.78 2.358-.665.313-.606 1.004-.227 1.442-.863.248-1.73.496-2.591.747a493.393 493.393 0 00-15.916 4.927.952.952 0 00-.674.825 38.6 38.6 0 01-3.006.462c-.434.049-.807.301-.938.701-5.634.651-11.232 1.846-16.878 2.417-.163-.445-.605-.79-1.178-.639a23.03 23.03 0 01-12.323-.169.903.903 0 00-.648.049c-.094-.028-.19-.048-.283-.076-.993-.296-1.627.961-.973 1.67 1.216 1.319 3.039 1.438 4.479 2.38 1.45.95 2.534 2.336 4.285 2.779a.95.95 0 00.989-.303 40.509 40.509 0 0110.967-3.965c.343-.07.543-.269.64-.511 7.209-1.112 14.389-2.573 21.706-1.909.69.063.993-.487.94-1.027 2.559.412 5.154.455 7.734.17l.84.132c.298.211.612.254 1.012.167a.801.801 0 00.18-.071c.179.282.493.457.85.502l6.059.752a641.445 641.445 0 0010.324 3.295c.548.17.943-.121 1.115-.524 6.975-3.863 15.017-8.025 23.086-5.009 1.12.419 1.63-1.203.743-1.797" fill="#594A41"/><path d="M351.047 376.414c-7.442-2.09-15.414-1.375-22.391 1.936a.86.86 0 00-.386.357 94.941 94.941 0 00-14.02-1.838 12.256 12.256 0 012.914-2.134c.195.117.435.16.726.055a20.563 20.563 0 015.1-1.147c1.262-.112 1.304-2.054 0-2a41.333 41.333 0 00-8.77 1.327 47.166 47.166 0 00-5.583 1.475 34.07 34.07 0 00-5.54 1.625c-.41.16-.608.5-.653.852-.965.06-1.931.133-2.896.226 5.549-3.866 12.06-6.173 18.835-6.53a.962.962 0 00.555-.218c.27-.009.54-.035.81-.04 1.286-.026 1.29-2.026 0-2-7.663.153-15.205 1.851-22.193 4.923-2.715.416-5.256 1.704-7.235 3.604a.898.898 0 00-.293.734 85.755 85.755 0 00-26.588 7.28c-1.17.534-.154 2.258 1.009 1.726 9.745-4.457 20.302-6.954 31.002-7.41.156.2.4.326.752.28a94.929 94.929 0 0111.267-.806c.044.053.076.108.139.157.72.566 1.48.757 2.29.83a1 1 0 00.653.297 42.013 42.013 0 0111.876 2.61c1.214.458 2.359.944 3.67 1.034.485.033.817-.305.933-.71a.981.981 0 00.538-.126c.27-.153.506-.205.815-.2.538.007.838-.34.926-.747.306-.177.61-.358.92-.527.16-.056.323-.104.483-.16.21-.075.353-.2.466-.342a49.49 49.49 0 013.803-1.806c.979-.112 1.948-.284 2.893-.573.49-.15.693-.548.69-.95a30.079 30.079 0 0111.952.864c1.24.348 1.77-1.58.53-1.928" fill="#3B2314"/><path d="M321.376 401.407c-.014.037-.028.072-.038.104.015-.032.025-.065.04-.097l-.002-.007" fill="#E4C3A2"/><path d="M351.771 380.886c-.46-1.724-1.84-3.159-4.16-3.152-3.307.01-6.764.06-9.95 1.053-.522.162-1.03.352-1.534.554a5.877 5.877 0 00-1.929.513c-1.309.591-2.47 1.412-3.51 2.371-.43.271-.858.546-1.283.823a4.703 4.703 0 00-.406.295 24.476 24.476 0 00-2.29 1.706 179.96 179.96 0 00-8.852-2.383c-3.056-.735-6.026-1.683-8.982-1.633-6.333-1.423-12.868-1.329-19.383-.578-6.273.724-13.539 1.115-19.182 4.336-1.149.378-2.226.893-3.192 1.584-.819.381-1.6.807-2.31 1.313a90.288 90.288 0 00-6.009-2.458c-1.767-1.48-3.515-2.99-5.424-4.27-4.51-3.02-9.13-5.89-13.695-8.829-.935-.6-1.857-.8-2.702-.71-5.65-3.165-11.934-4.76-18.765-5.578-6.539-.783-13.856.536-17.643 5.721-.52.18-1.033.46-1.522.868-4.725 3.955-4.796 10.385-2.617 15.693.328.801.694 1.653 1.095 2.503.001.671.153 1.376.513 2.095 2.165 4.34 7.365 6.05 11.841 6.926 1.152.226 2.367.48 3.61.73 2.151.682 4.343 1.191 6.555 1.61a4.96 4.96 0 001.05.42c11.081 3.035 22.683 4.232 34.03 5.894 6.633 2.463 14.49 3.562 22.017 3.556.488.368 1.104.645 1.884.768 5.583.881 10.653 1.16 16.268.51.155-.018.31-.032.463-.048a51.934 51.934 0 004.403-.163c.355-.028.685-.095.997-.186 2.933-.176 5.843-.498 8.54-1.749a14.527 14.527 0 003.606-2.399c.63-.38 1.246-.8 1.835-1.307 3.224-2.77 4.646-7.36 2.511-11.208-.617-1.112-1.479-1.743-2.41-2.024.527.052 1.053.116 1.58.187.598 1.401 1.815 2.534 3.303 2.82.231.777.463 1.555.693 2.333.177.601.286 1.264.512 1.844.024.064.035.115.048.17.026-.065.05-.129.092-.209-.037.07-.056.144-.089.215.123.497-.174.55-.04.098-.65 1.487-.526 3.185.327 4.481a2.39 2.39 0 00-.356 1.327c.012.731.683 1.607 1.5 1.5a35.248 35.248 0 0012.11-3.9 20.432 20.432 0 005.503-3.026c3.158-1.175 5.983-3.689 7.867-6.542a6.28 6.28 0 002.018-2.859c.043-.122.054-.253.051-.384 1.328-2.622 1.87-5.45 2.272-8.545.13-.989-.236-1.919-.859-2.677" fill="#E4C3A2"/><path d="M253.539 407.785c-.104-.012-.209-.02-.313-.032.049-.036.105-.064.155-.1.325-.233.579-.497.689-.896.099-.359.054-.837-.151-1.156-.206-.32-.514-.602-.897-.689-.372-.085-.833-.082-1.156.15a18.177 18.177 0 01-3.419 1.941c.153-.857-.303-1.767-1.39-1.628-.286.036-.572.05-.857.077-.238-.478-.69-.85-1.297-.85-1.248 0-2.366.287-3.489.816-.435.205-.643.525-.714.875a1.434 1.434 0 00-.396.211c-4.274-.36-8.552-.662-12.833-.916.022-.663-.453-1.356-1.102-1.503-.825-.189-1.584.25-1.846 1.048-.675 2.061-.499 4.38.36 6.387a1.188 1.188 0 00-.003.835c.05.133.109.26.169.387-.058.318-.026.662.153.992 1.436 2.656 4.339 2.584 6.84 1.795 2.883.34 5.767.338 8.75-.26 2.404-.482 4.746-1.224 7.075-1.98 2.219-.72 4.45-1.446 6.429-2.709 1.331-.85.684-2.637-.757-2.795" fill="#E4C3A2"/><path d="M315.86 397.152c-.064 4.108-2.272 8.084-5.702 10.352-1.949 1.288-4.106 1.786-6.368 2.237l-5.75 1.145a1.442 1.442 0 00-.817-.23 159.62 159.62 0 01-35.73-3.73l-.015-.006c-5.59-2.165-11.654-1.857-17.508-2.62-6.192-.806-12.216-2.58-18.198-4.317a1.521 1.521 0 00-.548-.057c-7.13-2.898-14.44-6.753-17.843-13.995-1.596-3.4-1.892-7.432-.52-10.958 1.526-3.928 5.125-6.105 9.04-7.154 1.862-.5 1.071-3.395-.799-2.893-1.808.485-3.57 1.182-5.165 2.139-.243-.184-.535-.29-.843-.248-2.492.33-4.984.87-7.182 2.149-2.164 1.259-3.633 3.142-4.508 5.44a1.17 1.17 0 00-.514.35c-2.106 2.549-2.31 5.958-1.288 9.019.15.444.32.879.503 1.309.07.447.162.889.274 1.323.117 2.776.937 5.474 2.443 7.814.181.282.405.473.645.588a1.7 1.7 0 00.676.849c.003.458.225.91.735 1.199a19.778 19.778 0 003.383 1.513c.025.01.045.025.07.037.15.066.292.092.434.119.738.228 1.488.412 2.248.552.052.046.095.098.153.138 2.16 1.509 4.777 1.92 7.348 2.17a30.099 30.099 0 009.458 1.909c.33.012.635-.107.886-.3.533.213 1.066.427 1.601.634.411.159.765.126 1.051-.021 5.143 1.475 10.32 2.855 15.627 3.582 5.493.753 11.196.495 16.497 2.248.161.13.361.233.612.288.167.037.334.068.501.105a1.5 1.5 0 00.37.077 163.458 163.458 0 0033.015 3.73c.304.527.881.903 1.636.75 3.203-.635 6.41-1.26 9.61-1.913 2.558-.522 4.956-1.344 7.062-2.927 3.892-2.925 6.344-7.508 6.42-12.396.028-1.931-2.972-1.932-3 0" fill="#C3996B"/><path d="M314.622 390.827c-2.739-.957-5.52-1.874-8.437-2.062-2.829-.181-5.459.666-8.152 1.38-3.96.421-7.95.512-11.934.523a1.383 1.383 0 00-.821-.206c-2.698.11-5.372-.142-7.99-.808a27.978 27.978 0 01-3.797-1.252 25.65 25.65 0 01-1.74-.808 16.287 16.287 0 01-.817-.431 4.425 4.425 0 01-.438-.273c-.013-.014-.019-.02-.028-.032-.099-.796-.678-1.272-1.47-1.367a3.067 3.067 0 00-1.557.232c-1.216-.029-2.044 1.927-.753 2.865 2.268 1.647 4.581 3.272 7.272 4.156 1.376.451 2.804.677 4.245.793.106.28.324.53.696.697 2.622 1.186 5.387 1.065 8.196.828a68.505 68.505 0 009.134-1.388 36.236 36.236 0 002.26-.594 70.252 70.252 0 003.673-.477c.506-.08.815-.347.968-.685.56-.09 1.121-.16 1.684-.178 3.112-.102 6.113.967 9.008 1.98 1.826.637 2.611-2.26.798-2.894m37.774-10.436c-.07-.347-.226-.602-.429-.777.05-.148.084-.298.086-.447.01-.838-.633-1.358-1.386-1.479a1.241 1.241 0 00-.628-.134c-.136.008-.27.025-.405.037-7.026-.534-14.148 1.235-20.126 4.973-.479.038-.943.273-1.174.71-.039.074-.046.156-.074.233-.249.461-.26 1.063.001 1.51.181.309.45.496.747.601.03.079.063.157.11.229.216.336.511.57.896.69l1.924.599 2.462 1.453c.353.209.794.244 1.188.131.704.173 1.7-.258 1.813-1.053.328-2.272 2.764-3.38 4.612-4.343 2.35-1.223 4.82-2.418 7.481-2.709-.029.177-.033.368.01.574 1.336 6.639-2.443 13.233-7.468 17.325-5.77 4.697-13.249 6.691-20.322 8.478-1.87.471-1.078 3.365.797 2.892 7.84-1.979 16.015-4.313 22.234-9.746 5.564-4.861 9.15-12.306 7.651-19.747m-99.504 28.813c-4.804-.017-9.378-.262-14.033-1.52-4.508-1.22-9.2-1.319-13.705-2.509-1.869-.493-2.666 2.4-.798 2.893 4.651 1.23 9.487 1.37 14.145 2.628 4.742 1.282 9.501 1.492 14.391 1.509 1.931.006 1.934-2.994 0-3" fill="#C3996B"/><path d="M271.442 310.31c1.05.75 2.32 1.147 3.594 1.22.245.014.552-.084.761-.208a1.51 1.51 0 00.618-.731c.24-.577.104-1.208-.313-1.667-.983-1.085-2.164-1.925-3.456-2.566a1.884 1.884 0 00-.742-.62c-2.808-1.29-5.837-2.127-8.872-2.668-3.153-.563-6.064.119-8.854 1.667-2.68 1.487-4.944 3.698-6.599 6.302a2.393 2.393 0 00-.963.923 26.56 26.56 0 00-1.993 4.333c-.519.95-.952 1.945-1.278 2.983a24.439 24.439 0 00-2.302 6.556c-1.356-1.013-2.75-1.6-4.474-1.703a2 2 0 00-.546.05 70.439 70.439 0 01-3.585-1.712 66.478 66.478 0 01-7.14-4.278 1.908 1.908 0 00-.425-.217c-1.723-1.902-3.947-3.342-6.172-4.557-2.463-1.344-5.037-2.48-7.576-3.67a3.162 3.162 0 00-1.27-.288c-.034-.028-.068-.055-.1-.083a24.39 24.39 0 01-2.34-2.217 20.951 20.951 0 01-.762-.87c-.099-.118-.195-.24-.29-.36-.022-.024-.028-.032-.044-.053-.022-.03-.055-.08-.124-.173-.074-.101-.158-.194-.242-.287-.137-.797-.628-1.544-1.349-1.896-.138-.737-.3-1.47-.565-2.18-.48-1.284-1.697-2.166-3.093-1.777-1.217.339-2.239 1.839-1.756 3.13.638 1.708.741 3.523 1.126 5.289a14.773 14.773 0 00.39 5.338c-.045.33-.035.674.041 1.013 1.325 6.03 4.647 11.352 9.185 15.3 3.628 3.784 7.668 7.028 12.677 8.784 2.775.973 5.677 1.458 8.582 1.836 2.73.355 5.886 1.023 8.621.337.368.24.795.379 1.266.332.344-.033.688-.074 1.032-.12.163.016.328.02.494.009a2.9 2.9 0 00.955-.241 13.075 13.075 0 002.933-.927 5.64 5.64 0 00.828-.101c.05.004.096.017.145.018 1.77.047 3.348-.92 4.422-2.277.115-.044.228-.092.332-.15.743-.411 1.333-1.234 1.503-2.071.138-.677.22-1.373.263-2.071.311-.871.308-1.83-.144-2.668.497.144.99.108 1.438-.056.698.395 1.411.767 2.152 1.102.024.017.046.036.07.052l.006-.017c.2.089.39.188.593.274.536.226 1.465.05 1.938-.257a2.626 2.626 0 001.028-1.216c.516-1.238.001-2.425-1.028-3.178-.337-.246-.67-.497-1-.75-.028-.02-.039-.03-.057-.041l-.012-.01c-.162-.131-.326-.26-.487-.391a52.024 52.024 0 01-1.825-1.557 2.78 2.78 0 00-.634-.414c.065-.071.134-.137.196-.21.028-.031.05-.07.077-.101 1.06.61 2.225.878 3.4 1.033 1.133 1.03 2.544 1.786 3.941 2.28 1.105.39 2.306.57 3.472.602.52.014 1.038.007 1.558.02.18.005.223-.008.23-.02a.93.93 0 00.19.087l.061.023c.1.068.201.123.301.194.635.446 1.446.44 2.151.158a1.5 1.5 0 00.761.21c.48 0 1.1-.278 1.303-.755.257-.603.38-1.18.184-1.827-.16-.537-.454-.962-.792-1.396a46.19 46.19 0 00-1.59-1.913 62.298 62.298 0 00-3.387-3.602 1.571 1.571 0 00-1.668-.325c-.024-.02-.045-.04-.07-.06.176-.005.356-.027.545-.08.112-.031.224-.082.336-.133.172.182.388.317.644.358.133.02.267.032.4.052v.002l.07.007c.237.035.476.06.713.093.297.053.592.11.884.184.456.113.902.26 1.341.423.176.182.38.334.638.397.016.003.031.01.048.014h.001c.095.074.202.136.3.208.256.186.503.323.8.442.622.249 1.402.199 1.982-.145.035-.02.055-.054.088-.077.246-.056.48-.16.67-.37.485-.533.53-1.205.235-1.848l-.412-.904c-.122-.3-.25-.596-.379-.888-.8-1.836-1.984-3.596-3.758-4.584-.433-.241-.969-.23-1.413-.026-.394-.29-.808-.536-1.249-.682-.099-.056-.194-.118-.294-.17-.504-.267-1.083-.258-1.54.024a8.288 8.288 0 00-2.224-1.92c1.58.375 3.15.827 4.6 1.494.676.31 1.418.378 2.075.177m57.336 2.91c-.333-.982-.8-1.947-1.27-2.87-.894-1.756-1.99-3.38-3.22-4.917a1.075 1.075 0 00-.367-.285l-1.166-2.109c-.267-.479-.799-.734-1.329-.728a30.71 30.71 0 00-2.238-2.469c-.634-.624-1.423-.508-1.958-.072a2.107 2.107 0 00-.34-.066c-1.809-.177-2.817 1.891-2.28 3.411.261.742.768 1.353 1.221 1.985l1.345 1.873 5.472 7.62c.136.19.303.344.486.467.044.094.091.185.134.28.081.173.186.31.303.42-.054.034-.114.06-.163.102l-.328.292a1556.863 1556.863 0 00-1.401-1.163l-2.657-2.209a1.795 1.795 0 00-.92-.406c-1.457-1.239-3.147-2.209-4.876-3.007a59.434 59.434 0 00-2.005-.87c-.656-.273-1.335-.62-2.06-.633-.974-.014-1.867.533-2.169 1.48-.244.763-.029 1.741.654 2.211.045.056.087.112.145.165 2.13 2 4.771 3.156 7.302 4.538 1.99 1.087 4.23 2.51 5.135 4.698.066.16.153.307.25.442-.034.031-.075.055-.104.092l-.04.056c-.023-.009-.037-.023-.059-.03l-10.732-3.997c-.31-.115-.639-.079-.937.05a1.166 1.166 0 00-.08-.05c-.307-.224-.616-.442-.922-.665-.249-.183-.564-.239-.877-.202a1.479 1.479 0 00-.358-.05c-1.854 0-1.925 2.76-.215 2.977.006.004.01.01.016.013l.841.517a391.343 391.343 0 007.848 5.562c-.007.01-.016.014-.022.023a1.51 1.51 0 00-.296.77l.012-.098c-.008.063-.03.122-.048.181a42.145 42.145 0 01-2.109-.685 43.29 43.29 0 01-1.746-.669l-.279-.116c.011.003-.307-.13-.347-.149a50.271 50.271 0 01-.852-.384c-.506-.234-1.124-.243-1.585.043l-.059-.025a1.501 1.501 0 00-.798 0c-.073.03-.152.06-.23.091l-.087-.02c-.766-.166-1.658.227-1.846 1.047-.138.607.098 1.31.62 1.656.01.046.025.091.042.135.055.14.122.333.213.475.095.147.204.288.323.417.116.125.286.24.41.332a.87.87 0 00.13.083c.152.08.318.15.48.204l.006.001c1.76 1.494 3.867 2.571 6.134 3.027.927.731 2.268.905 3.374.511.138-.033.273-.078.394-.15.041-.023.078-.06.118-.09.044-.023.082-.052.125-.076.577.071 1.155-.218 1.491-.728a203.123 203.123 0 004.775-7.662 1.38 1.38 0 00.694-.387c2.087-2.167 3.55-4.95 4.061-7.922v-.004c.742-.406 1.113-1.423.821-2.284" fill="#E4C3A2"/><path d="M294.5 342.344a22.281 22.281 0 00-.618-2.779c-.037-.122-.11-.23-.174-.34.352-.243.596-.634.573-1.185l-.526-13.213c-.022-.549-.284-.939-.643-1.178.518-5.227.814-10.455.9-15.7.147-1.17.28-2.34.189-3.515-.114-1.493-.507-2.76-1.176-3.966.029-.199.058-.398.085-.599.077-.537.153-1.023-.126-1.527a1.79 1.79 0 00-1.093-.876c-.608-.167-1.327-.09-1.954-.137a23.167 23.167 0 01-1.564-.167 24.98 24.98 0 01-1.795-.338c-.562-.126-1.13-.269-1.711-.289a2.977 2.977 0 00-.767.086 35.03 35.03 0 00-3.578-.424c-2.648-.498-5.308-1.122-8.001-.74-.002-.002-.004-.002-.006-.002v.002c-.135.02-.27.03-.404.052a1.143 1.143 0 00-.287.097c-2.295-.3-4.595-.548-6.906-.704-.737-.229-1.475-.459-2.215-.678-.932-.275-1.872-.414-2.827-.196-.074-.029-.142-.074-.22-.095a3.189 3.189 0 00-2.04.165c-.241-.322-.621-.547-1.15-.547a1.36 1.36 0 00-1.126.542c-.41.377-.663.944-.447 1.49a31.724 31.724 0 011.467 4.85c-.181.863.287 1.857 1.42 1.806 1.313-.06 2.625-.122 3.938-.18 1.244-.059 3.11-.003 3.11-1.74 0-.546-.294-1.076-.5-1.563-.022-.056-.047-.109-.07-.165.74.164 1.484.32 2.23.468.14.61.608 1.138 1.413 1.157 3.639.09 7.278.183 10.915.301l5.172 1.186c.68.156 1.465-.148 1.77-.786a2.55 2.55 0 001.19.486c.09.657.378 1.306.822 1.875.192.247.298.565.357.908a3.682 3.682 0 00-.14.645 66.285 66.285 0 00-.485 8.472c.002.347.065.65.155.935-.067.083-.127.17-.184.263-.702.094-1.361.423-1.818 1.027a3.366 3.366 0 00-.696.016c-.688-2.035-3.346-2.158-4.854-.929-1.296-.613-3.124-.025-4.005 1.31.816 1.774-.043 4.38-2.593 4.38-.685 0-1.241-.195-1.684-.504-.06.58.05 1.196.395 1.795.656 1.14 1.387 2.662 2.332 3.817-.413.691-1.043 1.275-1.574 1.904-.162.19-.373.494-.608.828l-.456-.493a2.844 2.844 0 01-.6.205l-.006.002h-.001a3.313 3.313 0 01-.701.074c-.21 0-.403-.022-.587-.058a2.994 2.994 0 01-.495-.139h-.003a2.644 2.644 0 01-.635-.327l-.001-.002-.006-.002a2.61 2.61 0 01-.407-.37h-.002a2.56 2.56 0 01-.388-.238 3.48 3.48 0 00-.876.812 31.182 31.182 0 01-.89-1.105c-.032.001-.06.01-.095.01-.72 0-1.305-.209-1.757-.547a2.73 2.73 0 01-1.647-.656c-.621-.037-1.143-.222-1.548-.525-.61.373-1.083.92-1.293 1.56.055.058.09.131.14.193 1.023.712 1.394 2.061 1.124 3.25.092.122.176.24.272.366-.024.006-.05.004-.073.011-.134.043-.25.102-.371.157-.278.663-.783 1.215-1.516 1.498-.264.608-.342 1.315-.232 2.07.083.56.219 1.101.379 1.636-.85 1.793.009 4.455 2.604 4.455.478 0 .892-.099 1.252-.26 5.477.788 11.184 1.986 16.803 2.413.12.073.248.132.394.156l6.145 1.028 3.072.513c.546.091 1.223.127 1.805.291.066.206.165.397.34.572.264.262.696.46 1.074.443.39-.018.798-.147 1.072-.443.253-.276.49-.682.444-1.07l-.01-.058c.134-.432.042-.86-.192-1.223m27.262-52.492c.028-.022.06-.042.088-.065.25-.205.386-.494.429-.801.193-.528.143-1.12-.33-1.543-.558-.5-1.637-.654-2.176 0-.084.102-.147.21-.225.315-1.805 1.422-4.05 2.217-6.198 2.995-2.4.869-4.844 1.745-6.918 3.24a2.06 2.06 0 00-.393.375c-1.256.447-2.467.982-3.571 1.814a1.145 1.145 0 00-.432.774c-.751.08-1.45.747-1.435 1.507l.016.853c-.02.057-.045.113-.056.176-.328 1.86-.681 3.768-.497 5.663.049.508.114 1.014.184 1.52-.014.334-.038.666-.047.999-.002.11.032.216.058.322a1.378 1.378 0 00-.056.388l.018 1.024a1.52 1.52 0 00-.162.348c-.461 1.49-.504 3.042-.225 4.567.04.219.193.44.37.624-.492.256-.881.729-.828 1.284.106 1.067.24 2.133.369 3.198v.003l.015 5.229c-.116 1.019-.325 2.163-.074 3.128-.153 1.288-.238 2.626.31 3.83-.004.629-.005 1.258 0 1.888-.016.08-.051.153-.057.239a31.07 31.07 0 00.077 5.003c-.24.374-.445.77-.584 1.206-.245.773.292 1.634 1.075 1.844a1.568 1.568 0 001.894-1.048c.043-.134.265-.53.353-.634.214-.257.463-.491.71-.717a19.536 19.536 0 011.494-1.212c1.23-.904 2.519-1.765 3.6-2.842.584-.58 1.35-1.315 1.456-2.15.003-.022-.003-.044-.001-.066l.463-.24c.334-.172.333-.688 0-.862-.92-.48-1.841-.957-2.761-1.435a.446.446 0 00-.235-.406c-.838-.457-1.535-1.11-2.088-1.874-.333-.46-1.234-1.603-.733-2.188.266-.31.075-.707-.21-.833.06-.17.136-.34.24-.508.167-.266.317-.446.52-.68l.225-.248a7.087 7.087 0 011.925-.17c.057.145.167.27.326.292 1.215.17 2.478.346 3.546.938.492.274 1.067-.396.622-.785a8.148 8.148 0 00-.785-.596.458.458 0 00-.24-.338 41.099 41.099 0 01-2.895-1.844 34.326 34.326 0 01-1.326-.968c-.063-.05-.12-.103-.182-.153-.33-.332-.662-.663-.968-1.018-.157-.182-.374-.184-.554-.096-.03-.05-.063-.095-.092-.144l-.246-1.331c.004-.007.01-.01.014-.016a11.4 11.4 0 01.956-1.581l.504-.047a.515.515 0 00.175.052l2.132.216c.137.077.27.157.412.229a.51.51 0 00.64-.123l.715.073a.4.4 0 00.297-.101c.184.114.363.237.554.34.697.376 1.444.673 2.21.886.13.036.239.016.335-.027.374.17.749.34 1.112.536a.494.494 0 00.26.05c.224.096.446.195.67.29.59.256 1.11-.547.518-.862l-1.644-.872c-.023-.04-.044-.081-.082-.111a14.75 14.75 0 00-4.65-2.483.491.491 0 00-.091-.128 29.164 29.164 0 00-2.915-2.458c.16-.316.22-.676.117-1.038a34.76 34.76 0 00-.236-.783l.494-.99a.625.625 0 00.67-.186c.806-1.024 2.085-1.218 3.362-1.128.038.006.077.007.116.009.323.026.64.072.954.125.287.095.588.148.896.17l.19.04c.229.163.515.269.873.27.107.236.274.444.5.592.169.24.418.425.74.519.248.254.6.424 1.067.424.28 0 .518-.066.719-.17.44.834 1.056 1.563 2.06 1.763.466.092.762-.334.58-.735a11.387 11.387 0 00-1.427-2.31l-.017-.035c-.002 0-.004.002-.005.004-.027-.034-.048-.071-.075-.105-.087-.11-.23-.146-.371-.14-.076-.551-.423-1.061-1.05-1.22-.064-.06-.12-.128-.196-.177a1.326 1.326 0 00-.383-.366 1.46 1.46 0 00-.301-.582c-.022-.376-.163-.748-.438-1.012l.044-.323a1.474 1.474 0 00-.21-.757l-.247-.351a1.154 1.154 0 00-.397-.421c-.008-.007-.016-.01-.024-.016.22-.331.31-.736.194-1.158-.012-.041-.035-.213-.043-.208l-.001-.045.01-.115c-.016.067-.04.106.003-.071 0-.018-.001-.031-.004-.033.004.003.006.01.008.017l.06-.212c-.033.069-.095.16-.002.003l.004-.006a.326.326 0 01.017-.048c.005.002-.002.02-.013.042.043-.071.09-.141.13-.213.006-.006.004-.002.01-.01l.124-.115c.015-.01.03-.021.047-.031.016-.01.116-.063.184-.1l.01-.002c.084-.023.175-.041.259-.066l.224-.001h.012c.01 0 .013.002.026.005.706.145 1.39-.13 1.733-.743.06.002.122-.01.184-.006a1.14 1.14 0 00.299-.04 1.381 1.381 0 00.768.301c.128.117.283.208.462.274.233.397.656.685 1.27.685 1.639 0 1.92-2.048.848-2.758a1.11 1.11 0 00.03-.273c-.09-1.972.016-4.133.303-5.928.08-.496-.028-1.033-.345-1.407.04-.083.08-.166.127-.247.04-.073.087-.145.132-.216" fill="#F6931D"/><path d="M299.498 338.957c-.011-.02-.014-.045-.024-.065-.011-.03-.031-.056-.042-.085a2.803 2.803 0 00-.101-.576c.122-.289.197-.606.203-.946.051-2.569.008-5.14-.14-7.707-.008-.127-.022-.254-.03-.38.32-.41.512-.91.492-1.47a220.222 220.222 0 00-.236-4.943c.026-.024.059-.042.084-.068.453-.479.817-1.13.77-1.803l-.398-5.563c-.037-.52-.172-1.008-.46-1.43.051-.139.111-.274.137-.42.07-.233.112-.476.085-.735a16.853 16.853 0 01-.074-1.904c.05-.184.084-.376.098-.574.04-.526.029-1.063.005-1.6.205-2.479.6-4.954.339-7.443a3.25 3.25 0 00-.249-.946l.004-.072c.045-.217.083-.436.155-.646.111-.339.126-.678.048-1.017a1.869 1.869 0 00-.312-.947 1.963 1.963 0 00-.677-.716c-.057-.049-.124-.083-.185-.126-.405-.615-1.09-1.056-2.08-1.056-1.138 0-1.884.581-2.257 1.345-.502.554-.713 1.313-.641 2.05a2.553 2.553 0 00-.206.956c-.012.46-.009.918-.012 1.377-.153.318-.246.67-.253 1.052-.048 2.565.137 5.132.5 7.674-.396.43-.643.97-.577 1.581.313 2.936.564 5.878.763 8.823a2.256 2.256 0 00-.317.682c-.345 1.33-.263 2.604-.125 3.95a97.346 97.346 0 01.492 12.076c-.006.335.069.666.205.974a2.73 2.73 0 00-.088.65c-1.992 1.117-1.567 4.768 1.304 4.768.24 0 .45-.042.65-.098.222.057.459.098.723.098.356 0 .664-.068.946-.168 2.582-.112 3.078-3.27 1.481-4.552" fill="#F6931D"/><path d="M319.53 287.83c-.682 0-1.179.284-1.499.697a2.654 2.654 0 00-.755.218 102.896 102.896 0 00-16.599 9.506c-.88.621-1.294 1.75-.716 2.736.51.873 1.848 1.343 2.736.718a102.844 102.844 0 0116.598-9.506 1.47 1.47 0 00.507-.397c2.291-.279 2.21-3.973-.272-3.973" fill="#603813"/><path d="M238.863 324.11a52.31 52.31 0 01-.887-.104l-.236-.034-.413-.062c-.62-.098-1.237-.21-1.852-.338a37.594 37.594 0 01-2.12-.514 1.536 1.536 0 00-.312-.188 184.203 184.203 0 01-3.457-1.624c.021-.4-.103-.796-.433-1.058a91.844 91.844 0 00-9.408-6.556c-.673-.407-1.679-.17-2.053.539a1.618 1.618 0 00-.159.503c-.505-.315-1.02-.612-1.52-.938-4.159-2.72-8.167-5.81-11.49-9.525.124-.218.204-.46.194-.715a27.266 27.266 0 01-.054-.4 1.501 1.501 0 00-.386-.661c-.105-.092-.194-.2-.287-.304a3.175 3.175 0 01-.255-.437c-.027-.082-.06-.162-.082-.247a1.134 1.134 0 00-.269-.51 1.142 1.142 0 00-.42-.387 1.113 1.113 0 00-.558-.177 1.142 1.142 0 00-.599.026c-.32.105-.624.298-.818.579-1.042.079-1.98 1.099-1.2 2.149 7.508 10.114 19.177 16.543 30.448 21.739.187.308.482.552.866.67 2.531.785 5.127 1.293 7.76 1.574.783.083 1.533-.75 1.5-1.5-.04-.885-.66-1.411-1.5-1.5m90.501-10.026c.017-.007.034-.007.05-.017.25-.145.297-.439.18-.683l-.55-1.152a.415.415 0 00-.058-.309 6.323 6.323 0 01-.559-1.017l-.054-.135a6.621 6.621 0 01-.247-.812c-.05-.214-.272-.36-.49-.358-.064-.083-.123-.169-.192-.248-.103-.118-.27-.154-.429-.13h-.004a.491.491 0 00-.163.055c-.006.003-.015.003-.02.007-.012.007-.019.02-.028.026-.02.015-.045.023-.063.042-.012.013-.017.03-.026.043-.027.03-.044.063-.064.1-.006.012-.014.024-.019.036-.064.142-.077.305.02.438a3.396 3.396 0 01.302.503c.013.026.025.063.042.091l.018.045.036.103c.02.055.03.112.045.168a.943.943 0 00-.023.315c.003.037.016.074.022.111a.565.565 0 00-.08.415l.386 2.22c.027.15.117.246.233.3a2.027 2.027 0 00-.483.714c-.648 1.595-1.377 3.178-2.4 4.57-1.077 1.465-2.397 2.73-3.372 4.275-1.615 2.557-2.45 5.673-4.743 7.756-.23.21-.36.44-.424.674a3.63 3.63 0 01-1.527.068c-.64-.112-.859.722-.265.964.344.14.711.2 1.082.222a.736.736 0 00.281.208c.042.017.087.017.13.027a.522.522 0 00.213.256.646.646 0 00.802-.149c.528.334 1.238.39 1.83-.149 2.511-2.283 3.447-5.569 5.212-8.364 1-1.582 2.38-2.875 3.462-4.398 1.124-1.58 1.885-3.374 2.613-5.162.25-.615-.136-1.322-.676-1.669m-57.766-8.286a46.061 46.061 0 00-4.426-1.439c.025-.239-.1-.494-.35-.55l-1.54-.349h-.02a11.064 11.064 0 00-1.14-.31 1.505 1.505 0 00-1.403-1.075c-3.493-.134-7.298-.038-9.947 2.586a1.46 1.46 0 00-.355.61c-2.762 3.014-5.988 5.96-7.548 9.8-1.691 4.166-3.031 8.505-4.526 12.747-.643 1.824 2.254 2.608 2.893.796 1.408-3.995 2.757-8.018 4.233-11.989 1.392-3.742 4.654-6.564 7.282-9.463.16-.176.267-.362.33-.552.078-.07.152-.144.232-.212.136-.11.146-.12.032-.027a7.77 7.77 0 011.105-.645c.04-.02.064-.032.085-.044l.083-.03a9.366 9.366 0 011.515-.434c.682-.136 1.254-.172 2.059-.19.843-.018 1.685.015 2.527.047.305.012.598-.099.847-.278l1.807.312.04.01c.007.001.014-.002.022 0l1.5.258c.06.01.122.01.18.003 1.425.4 2.837.846 4.217 1.382.252.098.549-.108.616-.349.077-.283-.097-.517-.35-.615" fill="#C3996B"/><path d="M299.269 341.91c-.697-.629-1.475-1.089-2.414-1.196a2.64 2.64 0 00-.755.037 27.816 27.816 0 00-.178-2.035c-.147-1.23-.304-2.5-.156-3.74.064-.128.105-.274.107-.447l.269-19.222a.885.885 0 00.148-.554c-.187-3.14-.34-6.28-.453-9.424-.054-1.493-.115-2.989-.136-4.483-.012-.866.06-3.169 1.488-2.768 1.242.348 1.772-1.606.532-1.953-1.397-.393-2.819.374-3.484 1.646-.799 1.53-.53 3.455-.482 5.114.111 3.673.28 7.346.49 11.016-.054.12-.087.258-.09.416l-.277 19.73c-.263 1.46-.167 2.898.006 4.363.161 1.364.39 2.788.194 4.162-.078.54.131 1.088.698 1.245.47.13 1.153-.162 1.23-.707.007-.04.006-.08.012-.12.038-.046.084-.083.126-.123.034-.021.068-.042.104-.06a2 2 0 01.24-.067c.084-.004.166-.004.249.002.13.026.259.063.384.109.196.098.382.212.558.343.059.049.118.098.176.149.39.35 1.034.419 1.414 0 .349-.385.417-1.056 0-1.432" fill="#603813"/><path d="M300.335 298.517a4.987 4.987 0 00-.78-.935 4.947 4.947 0 00-.987-.711 1.048 1.048 0 00-.77-.101c-.232.063-.484.243-.598.459-.122.232-.183.514-.1.77.079.244.228.474.46.598.142.077.275.17.408.265.212.175.409.367.58.58.02.029.042.055.06.085.143.217.342.388.598.459a.743.743 0 00.399.017.752.752 0 00.372-.118c.212-.138.4-.343.459-.597.058-.255.047-.546-.101-.771m-6.318-.572c-1.474-1.473-3.806-1.19-5.717-1.241l-5.03-.138a546.24 546.24 0 01-26.385-2.615c-1.074-.133-2 1.014-2 2 0 1.19.923 1.866 2 2a546.719 546.719 0 0025.195 2.519c.158.042.32.073.492.077l.698.019.064.005c.024.002.043-.003.066-.001l4.308.117 2.568.07c.067.002.747.066.945.057a.197.197 0 01.026.007c.751.69 2.056.729 2.77-.048.732-.798.79-2.038 0-2.828" fill="#603813"/><path d="M312.32 334.71a7.758 7.758 0 01-.867-.318c.381 4.155.765 8.31 1.131 12.464.425 4.854.691 9.912-.554 14.672-.699 2.677-1.979 4.943-3.75 6.734a10.574 10.574 0 01-.676 3.241c1.712-1.152 3.206-2.63 4.35-4.542 2.52-4.216 3.02-9.367 2.96-14.18-.078-5.942-.84-11.898-1.403-17.816a11.25 11.25 0 01-1.19-.256m-76.285-54.48a335.205 335.205 0 00-11.54 30.42 258.358 258.358 0 00-1.426 4.587 3.48 3.48 0 011.328.784c.148.14.265.313.378.485a329.967 329.967 0 016.05-18.016 328.569 328.569 0 016.937-17.25c.508-1.17-1.214-2.19-1.727-1.01" fill="#231F20"/><path d="M336.752 300.366l-.854-2.494a.985.985 0 00.012-.491 85.624 85.624 0 00-4.43-13.734 84.206 84.206 0 00-2.878-6.185c-.604-1.164-1.274-2.28-2.157-3.205.13-.022.262-.06.393-.075-1.57-1.308-3.42-2.29-4.95-3.662.023-.044.038-.091.06-.135-7.922-6.476-17.348-11.156-26.772-14.91-7.094-2.826-14.365-5.177-21.638-7.493-.614-.195-1.28.333-1.266.965.069 3.227-2.476 6.407-5.805 6.614-1.736.108-3.373-.565-4.606-1.693-.04-.403-.293-.77-.713-.881-.043-.011-.085-.026-.127-.04a6.576 6.576 0 01-1.216-2.668c-.096-.474-.426-.69-.79-.712-.173-.141-.408-.25-.625-.24-.216.01-.427.088-.6.22-.164-.125-.355-.215-.57-.2a69.366 69.366 0 00-9.288 1.333c-.095.02-.172.073-.251.122-3.894.605-7.776 1.363-11.515 2.62-7.033 2.367-13.213 6.578-18.511 11.722-5.3 5.146-9.743 11.113-13.897 17.197a331.241 331.241 0 00-3.05 4.554c-1.011 1.532-2.372 3.145-2.587 5.028-.018.166-.004.326-.005.49-.454.24-.762.785-.444 1.369a67.587 67.587 0 003.643 5.909c-.015.1-.025.2-.041.3.145.12.26.257.386.387-.035.014-.066.037-.1.054.036.046.077.079.112.127.026.036.048.076.074.112a2.42 2.42 0 011.413-1.872 67.67 67.67 0 01-2.571-3.98c.066-.078.13-.16.203-.23-.031-.044-.063-.088-.09-.135-1.13-2.007-.265-3.506.879-5.25.928-1.414 1.86-2.825 2.804-4.23 7.33-10.905 15.76-22.073 27.929-27.858 3.916-1.861 8.127-2.986 12.376-3.787 2.11-.398 4.235-.72 6.36-1.02.26-.036.584-.1.943-.168l-.002-.177a64.612 64.612 0 015.23-.616c.07-.005.136-.033.204-.05.203 1.376 1.118 2.63 2.349 3.277 1.729 1.995 4.348 3.223 7.035 2.958 3.796-.376 6.828-3.566 7.372-7.247 10.82 3.45 21.676 7.026 31.8 12.23 4.875 2.506 9.568 5.407 13.865 8.817 1.08 1.135 2.397 1.97 3.687 2.842a.94.94 0 00.436.597c1.632 1.013 2.47 2.82 3.304 4.479a80.856 80.856 0 012.78 6.143 84.855 84.855 0 013.128 9.335c-.196.213-.295.505-.17.873l1.499 4.375c.213.62.585 1.315.666 1.967.098.797-.674 1.014-1.261 1.344l-8.207 4.607c-.197.112-.398.223-.598.334l.653.653c.293.293.48.617.582.95l1.669-.937 4.75-2.668c1.235-.693 2.924-1.305 3.882-2.377.94-1.052.515-2.294.107-3.484" fill="#231F20"/><g transform="translate(193 281.06)"><mask id="b" fill="#fff"><use xlink:href="#a"/></mask><path d="M158.27 104.596a12.668 12.668 0 01-.923 3.602c-.212.497-.147 1.072.36 1.368a.936.936 0 00.314.103 10.61 10.61 0 01-1.446 3.504c-1.223 1.887-2.95 3.425-4.686 4.828-3.628 2.934-7.786 5.26-12.163 6.867-3.778 1.388-7.717 2.22-11.713 2.537 1.247-3.181 1.256-6.82-.045-9.987.061-.276.121-.553.18-.83.177-.833-.61-1.335-1.24-1.22-3.236-4.967-9.426-7.49-15.233-6.68-4.188.584-8.037 2.5-12.134 3.469-4.467 1.055-9.077 1.26-13.63.722-.056-.007-.096.01-.147.013-4.829-1.58-9.222-4.007-13.437-6.762 13.423-6.132 28.532-8.34 43.161-6.462a76.83 76.83 0 0110.114 2.02c.064.03.114.07.192.09a58.113 58.113 0 0110.866 3.725c.49.225 1.076.139 1.367-.36.252-.43.135-1.141-.359-1.367a60.437 60.437 0 00-2.499-1.076c2.228-1.816 4.768-3.19 7.46-4.113a.932.932 0 00.427-.063 25.75 25.75 0 011.666-.55 25.086 25.086 0 012.285-.471c-.025-.03-.045-.064-.07-.095a25.412 25.412 0 0110.146-.041c.02.105.044.212.092.314.776 1.674 1.167 3.525 1.18 5.379-.092.012-.177.032-.27.04.077.497.138.995.185 1.496m-44.388 25.47c-1.297.287-2.604.556-3.918.8a35.599 35.599 0 019.674-12.466c.74-.608.061-1.635-.707-1.707-4.3-.407-8.39-2.12-11.724-4.836 2.776-.907 5.64-1.63 8.58-1.217 2.774.389 5.472 1.62 7.526 3.535a11.439 11.439 0 012.55 3.515c-.586 2.596-1.322 5.2-2.797 7.427-2.122 3.204-5.63 4.165-9.184 4.95m-6.112 1.179c-6 .955-12.108 1.212-18.044-.346-.778-.204-1.277.47-1.239 1.088a57.113 57.113 0 01-3.325-1.16c-.344-.132-.623-.057-.83.113l-45.055-7.084c-.03.026-.073.038-.107.06a89.95 89.95 0 01-7.276-1.893.922.922 0 00-.52-.007.794.794 0 01-.25-.1l-.019-.007a1.106 1.106 0 01-.236-.125c-.023.05-.04.102-.063.152a147.82 147.82 0 00-3.94-.965c-5.543-1.265-12.736-2.03-18.09-4.99a1.081 1.081 0 00-.259-.277c-2.596-1.931-3.644-5.637-4.625-8.567-1.047-3.127-1.785-6.424-1.287-9.705h.004c1.08-3.884 4.253-6.946 7.75-8.858 2.281-1.248 4.745-2.101 7.232-2.835 1.59-.47 3.465-1.204 5.278-1.44-.014.049-.024.1-.037.149 5.022.452 9.981 2.099 14.705 3.665 6.121 2.028 11.841 4.64 17.25 8.16 4.914 3.2 9.54 6.815 14.371 10.135 5.272 3.624 10.84 6.864 16.996 8.717a.873.873 0 00.84-.154c3.138.288 6.286.236 9.414-.203 2.966-.416 5.778-1.258 8.597-2.186a24.077 24.077 0 0011.643 5.776 36.923 36.923 0 00-8.808 12.338 1.02 1.02 0 00-.07.549m-57.939 2.257c-.003-.021.002-.04-.002-.06-.644-2.96-2.814-5.34-5.275-6.73-.014-.008-.029-.013-.043-.02l17.153 2.696c-3.692 1.982-7.69 3.335-11.833 4.114m-15.488.562c-.256-.027-.44.06-.562.206-1.784-2.3-2.805-5.298-2.516-8.204a10.83 10.83 0 01.378-1.945c.171.045.344.084.515.13 0-.02.008-.044.008-.065 1.117.33 2.238.64 3.366.928-.132.048-.26.105-.396.142.024.143.068.285.146.41.15.393.612.718.993.554.062-.027.121-.063.183-.091 4.557.7 10.502 2.044 11.808 7.647-4.589.705-9.309.765-13.923.288m65.404-39.316c-.059-.004-.115-.018-.173-.023a168.04 168.04 0 0011.708-3.097c2.548-.775 5.801-1.804 7.342-4.07 3.393-1.528 7.241-2.062 10.877-2.674l.34-.052c4.926-.021 9.828.967 14.384 2.82l.121.158a1 1 0 00.442.257c.441.147.883.295 1.325.44a.76.76 0 00.398.02.757.757 0 00.372-.12c.077-.041.13-.108.187-.17a31.176 31.176 0 0111.002 7.299 27.214 27.214 0 00-13.803.484c-4.047 1.007-7.863 2.937-11.066 5.715-.057.048-.08.105-.12.158a61.737 61.737 0 00-4.574-1.467c-.006-.002-.009-.007-.015-.01a80.374 80.374 0 00-10.036-2.3 96.932 96.932 0 0113.14-3.173c1.267-.212.73-2.14-.532-1.93a96.954 96.954 0 00-15.899 4.072.977.977 0 00-.559.484c-10.445-1.204-21.117-.393-31.266 2.423a81.288 81.288 0 00-12.064 4.428c-.337.154-.478.408-.5.678-3.075-2.083-6.075-4.303-9.094-6.473a81.367 81.367 0 0038.063-3.877M22.373 53.284l-.126-.186c-.034-.023-.069-.042-.102-.064A33.048 33.048 0 018.166 32.137 29.796 29.796 0 018.49 18.89c3.94 6.699 10.166 12.016 17.515 14.71l2.691 1.639-.052.18c.561.234 1.1.474 1.615.777l.001-.005 1.872 1.139c.31.156.607.327.905.497.04.057.064.122.12.167a26.94 26.94 0 0013.388 5.804c-.047.11-.088.232-.139.339.184-.032.361-.094.506-.208-.27.954-.532 1.91-.792 2.866-.247.912 1.165 1.3 1.413.39 1.836-6.75 3.758-14.001 8.655-19.254 2.151-2.308 4.83-4.21 7.853-5.178 3.248-1.04 6.556-.755 9.708.489 1.944.768 3.766 1.818 5.558 2.884 1.365.814 3.04 1.654 3.903 3.058-1.538.595-3.188.488-4.81.16a14.523 14.523 0 00-1.054-.594.714.714 0 00-.849.13c-.372-.1-.738-.203-1.098-.302-2.735-.748-5.64-1.498-8.429-.573-.89.295-.51 1.71.39 1.413 3.446-1.142 6.91.432 10.352 1.23 1.816 1.142 3.338 2.693 4.4 4.58.301.537.696 1.163.804 1.77.144.819-.543 1.056-1.206 1.203-1.13.25-2.336.148-3.453-.125a15.134 15.134 0 01-1.506-.458c-.919-.77-1.94-1.412-3.118-1.838a.59.59 0 00-.663.14c-2.455-1.24-4.885-2.527-7.707-2.781-.939-.085-.933 1.38 0 1.465 3.918.353 7.215 2.97 10.83 4.35.966.863 1.8 1.89 2.547 2.944.358.504.701 1.017 1.04 1.534.344.523 1.038 1.342.834 2.023-.26.87-1.587.89-2.309.86-1.27-.054-2.56-.435-3.79-.731a64.34 64.34 0 01-4.109-1.133 63.564 63.564 0 01-8.23-3.22c-.869-.41-1.479.697-.74 1.266 1.538 1.185 3.438 1.792 4.954 3.002 1.084.865 2.024 2.57 1.387 3.97-.892 1.965-3.624.308-4.925-.202-1.512-.594-3.192-.784-4.5.335-.717.614.324 1.646 1.037 1.036.455-.39 1.031-.451 1.61-.375-.007.053-.025.099-.019.159a7.085 7.085 0 01-1.552 5.17c-.635.78-1.389 1.316-2.215 1.72a.94.94 0 00-.537.119c-1.229.69-2.737.779-4.104.983-1.59.238-3.18.475-4.769.71-.005.002-.008.006-.012.007-8.742.037-17.909-.816-25.318-5.848M62.377 13.25c12.413 1.324 24.824 2.646 37.236 3.968a.691.691 0 00-.094.357l.652 46.042c-.035.075-.074.146-.104.22-.856-.638-1.864-.988-2.926-1.198-1.663-.328-3.36-.524-5.037-.777-3.48-.524-6.958-1.05-10.438-1.573L71.23 58.717c-.96-.144-1.923-.27-2.88-.434-.248-.042-.606-.05-.814-.193-.4-.277-.385-.828-.45-1.254-.255-1.671-.502-3.344-.75-5.017 1.426-.111 2.642-1.021 2.916-2.544.25-1.395-.223-2.902-1.112-4.007 1.073.37 2.154.724 3.247 1.036 1.748.5 3.518.932 5.303 1.273 1.137.219 2.334.342 3.455-.027.963-.316 1.758-1.045 1.85-2.1.13-1.494-1.12-2.907-1.924-4.057a27.048 27.048 0 00-1.283-1.702 9.649 9.649 0 001.984.098c1.14-.065 2.502-.286 3.242-1.253.903-1.18.104-2.671-.503-3.802-.013-.026-.03-.05-.044-.074l8.765.882c.587.059 1.333.225 1.95.098a.532.532 0 00.18.098c.25.075.501.073.757.033.085-.014.168-.036.247-.07a1.52 1.52 0 00.344-.172.547.547 0 00.205-.24c.04-.093.065-.225.025-.325l-.047-.118c.055-.174.09-.36.104-.551.122-1.81.127-3.635.06-5.447a57.147 57.147 0 00-.447-5.308c-.033-.253-.076-.993-.219-1.69v-.765a.5.5 0 00-.238-.412c-.029-.224-.18-.44-.467-.465L80.351 18.99a566.23 566.23 0 01-9.435-1.337c-.034-.005-.063.004-.094.005a.489.489 0 00-.297-.11c-.248.012-.53.222-.5.5l.192 1.825c.015.137.046.254.147.355.005.005.013.008.02.012.02.213.11.414.288.56a.895.895 0 00.241.13c-1.622-.31-3.283-.39-4.978-.127a15.71 15.71 0 00-2.059.473c-.004-.012-.004-.024-.009-.035l-.03-.065c.166-.12.276-.33.202-.535l-.45-1.242c-.404-2.05-.807-4.1-1.212-6.148m3.891-1.111c.455-2.86 3.55-3.648 6.021-3.757 3.02-.132 6.068-.066 9.09-.012 6.107.112 12.226.593 18.127 2.259a.654.654 0 00.728-.232.687.687 0 00.797-.133c3.088-2.93 6.945-4.794 10.913-6.226 1.926-.694 3.884-1.302 5.843-1.891.705-.212 1.421-.455 2.06.052.431.34.8.788 1.185 1.177.928.942 1.858 1.883 2.787 2.824.13.13.273.183.416.199l.39.389c.017.019.043.029.065.044A117.185 117.185 0 00107.126 16c-.734-1.297-2.156-2.196-3.685-2.095-1.31.085-2.508.84-3.184 1.939-.037-.01-.066-.03-.106-.033l-33.905-3.613c.005-.022.018-.036.022-.06m39.675 48.957a.702.702 0 00.111.363c-.482-.134-.994-.376-1.435-.413a4.456 4.456 0 00-2.082.354c-.33.137-.637.315-.924.52l-.627-44.218a.662.662 0 00.213-.35c.25-1.041 1.196-1.913 2.242-1.982 1.054-.07 2.161.59 2.54 1.585.117.31.387.524.71.525a563.448 563.448 0 00-.748 43.616m11.074-11.211c-1.133-.595-2.21-1.311-3.057-2.282-.31-.356-1.844-2.61-1.063-3.041a.702.702 0 00.315-.096c1.536-.863 3.305-.121 4.766.545 1.405.64 2.801 1.258 4.376 1.228.78-.015.927-.95.37-1.366l-6.055-4.524c-1.018-.761-2.169-1.466-3.08-2.353-.305-.296-.819-.838-.507-1.298.214-.316.724-.345 1.06-.36.98-.038 1.967.337 2.894.605a63.76 63.76 0 013.411 1.09 62.949 62.949 0 016.894 2.905c.71.348 1.533-.554.89-1.151a43.57 43.57 0 00-7.628-5.674c-1.237-.721-2.557-1.296-3.784-2.03-1.06-.631-2.743-2.32-1.453-3.574.94-.915 2.66-.597 3.78-.322 1.38.339 2.69.89 3.93 1.58 2.677 1.49 4.988 3.533 7.261 5.564.584.522 1.661-.173 1.151-.887-1.726-2.426-3.45-4.851-5.178-7.277-.858-1.206-1.722-2.408-2.574-3.618-.684-.971-1.574-2.19-1.18-3.445.82-2.62 5.304.639 6.434 1.609 1.775 1.526 3.193 3.406 4.42 5.389a51.352 51.352 0 011.922 3.429c.455.882 2 3.412.317 3.904-.599.175-.624.848-.314 1.209-.918 2.972-2.546 5.356-4.679 7.614-1.127 1.193-1.676 2.65-2.485 4.05-.789 1.37-1.666 3.093-2.872 4.142-1.337 1.167-3.15.494-4.619-.028-1.249-.443-2.488-.92-3.663-1.537m43.763 46.398c-.059-.02-.119-.033-.178-.052a.973.973 0 00-.16-1.097 33.012 33.012 0 00-17.355-10.208 1.05 1.05 0 00-.42-.01c-7.476-2.508-15.683-2.82-23.332-.586-.46-.66-1.782-.478-1.833.568a3.124 3.124 0 01-.33 1.266c-.042.02-.085.036-.126.056-.355.177-.475.472-.46.768-1.834 2.023-5.969 2.767-8.042 3.367a170.256 170.256 0 01-14.077 3.423c-.468.093-.686.419-.716.776-10.48 2.892-21.544 3.624-32.314 2.043-.693-.102-1.155.437-1.23.972a134.758 134.758 0 00-4.58-3.13c-5.565-3.608-11.49-6.253-17.784-8.328-3.599-1.188-7.332-2.393-11.122-3.114a.948.948 0 00-.589-.484c-1.528-.466-3.139-.307-4.726.055-.11-.367-.408-.657-.912-.63-.742.042-1.134-.677-1.19-1.338-.038-.45.04-.911.15-1.368a.892.892 0 00.264-.37.99.99 0 00.496-.535c.038-.095.073-.192.112-.29-.01 0-.018.002-.028 0h-.029c-.096-.006-.193-.025-.289-.038a481.81 481.81 0 016.005-20.738c.303.12.581.28.817.515l.153.197c6.601 2.679 14.02 3.209 21.111 3.159a.988.988 0 00.465-.121l4.65-.693c1.513-.226 3.047-.395 4.403-1.16a.896.896 0 00.474-.65c2.752-1.553 4.503-4.615 4.301-7.826.843.335 1.647.745 2.52.979-.006.065-.02.125-.009.197.285 1.906.52 3.828.856 5.726.266 1.505 1.175 1.949 2.594 2.166 3.597.552 7.198 1.085 10.797 1.627l10.8 1.627 5.397.814c1.48.224 3.111.395 4.23 1.49a.677.677 0 00.805.137c.365.127.8.01.897-.475.031-.158.08-.31.136-.457a.645.645 0 00.254-.525 3.15 3.15 0 012.66-1.493c.821.002 1.461.574 2.26.616.87.046 1.471-.571 2.065-1.113l9.783-8.93c.322-.293.265-.668.052-.928.126.052.254.105.381.155.398.156.813.319 1.235.474-.009.062-.016.126-.024.189.196-.004.392.014.588.075.562.096 1.106.273 1.667.37 1.516.276 3.014.13 4.234-1.11 1.021-1.04 1.791-2.413 2.546-3.65.881-1.443 1.434-3.11 2.61-4.35 2.38-2.51 4.2-5.228 5.162-8.588a.743.743 0 00.02-.25c1.437-.96.976-2.895.246-4.576.072-.054.141-.113.212-.171a20.592 20.592 0 01-.886-1.74c-.063.056-.125.113-.194.165l-.177-.332c-1.409-2.618-3.029-5.194-5.154-7.296-1.034-1.022-2.196-1.937-3.47-2.64-1.228-.676-2.744-1.411-4.179-1.144-1.31.245-2.127 1.373-2.254 2.656-.15 1.527.698 2.846 1.541 4.037 1.432 2.027 2.875 4.045 4.316 6.066-2.768-2.11-5.85-3.844-9.259-4.013-2.119-.104-4.444 1.069-4.104 3.518.38 2.727 3.278 3.692 5.37 4.839a40.98 40.98 0 014.185 2.64 63.98 63.98 0 00-3.36-1.228c-1.418-.468-2.884-.982-4.355-1.251-.909-.166-1.963-.207-2.793.268a2.054 2.054 0 00-.945 2.377c.346 1.172 1.523 1.898 2.44 2.583 1.68 1.254 3.357 2.509 5.034 3.763-2.093-.876-4.129-2.003-6.383-.884-.02.003-.039-.004-.059 0-2.569.565-.938 4.049.043 5.267 1.311 1.628 3.174 2.674 5.08 3.496a.693.693 0 00-.403.178l-5.082 4.638-2.54 2.32-1.27 1.159c-.347.316-.702.724-1.084 1.037.003-.032.018-.057.017-.091a563.982 563.982 0 01.77-44.022 115.498 115.498 0 0119.95-10.06V18.81c0 .942 1.464.944 1.464 0V6.085c0-.526-.456-.748-.859-.686a.608.608 0 00-.472-.004c-.937.357-1.869.727-2.797 1.108.003-.022.015-.044.014-.067a.527.527 0 00-.146-.354l-.29-.29a.66.66 0 00-.187-.627l-3.04-3.081c-.8-.81-1.58-1.688-2.813-1.677-1.157.012-2.367.556-3.46.897a99.745 99.745 0 00-3.42 1.122c-4.413 1.545-8.703 3.556-12.126 6.804-.01.009-.012.019-.02.028-.029-.012-.049-.032-.08-.041-6.473-1.827-13.214-2.262-19.908-2.33a325.55 325.55 0 00-5.039-.005c-1.543.008-3.096-.023-4.623.23-2.487.413-5.045 1.96-5.47 4.639a.752.752 0 00.011.3l-2.933-.311c-.186-.165-.456-.248-.69-.183-.406.11-.588.512-.512.9l1.447 7.347a.631.631 0 00.303.405c.116.468.264.926.457 1.37-5.719 2.06-10.018 7.167-12.564 12.58-1.184 2.519-2.084 5.147-2.883 7.808-.084-.025-.166-.056-.256-.065-4.273-.48-8.408-2.14-11.856-4.71.037-.051.067-.111.106-.16l-4.564-2.78.006-.013a18.977 18.977 0 01-4.373-2.672l-.014.053a.922.922 0 00-.367-.085c-7.067-2.721-12.927-8.047-16.494-14.662-.763.099-1.53.156-2.302.156-.147 0-.289-.02-.435-.022-.01.024-.027.04-.034.068-2.665 8.723-1.192 18.336 3.352 26.178 2.6 4.484 6.202 8.22 10.403 11.132.071.143.176.275.332.386.447.314.905.604 1.366.886.236.039.463.11.673.245.237.107.46.238.676.378.138.07.282.133.422.2a480.495 480.495 0 00-5.908 20.345c-.019-.037-.045-.07-.062-.106-.169.473-.33.948-.47 1.429-.383 1.29-.617 2.703-.025 3.969.224.478.57.897.986 1.216-.399.123-.79.244-1.175.356-2.93.848-5.849 1.856-8.508 3.37-3.338 1.9-6.196 4.75-7.677 8.243a.876.876 0 00-.44.604 15.235 15.235 0 00-.27 1.505c-.017.067-.043.128-.058.195l.04-.003c-.414 3.529.365 7.059 1.518 10.422 1.103 3.214 2.285 6.703 4.92 8.972-.024.028-.047.057-.072.082.156.098.321.177.48.27.034.026.061.058.095.083a.94.94 0 00.346.165c4.227 2.357 9.148 3.253 13.84 4.19 2.84.568 5.653 1.24 8.456 1.958-1.135 4.163.11 8.696 2.882 11.999 1.375 1.64 3.133 2.912 5.051 3.626 2.363.882 4.856.702 7.224.284 2.803-.495 5.574-1.181 8.352-1.786 2.666-.581 5.41-1.025 7.988-1.933 2.982-1.052 5.3-3.001 7.195-5.418l15.904 2.5c.18.029.34.005.49-.043a57.803 57.803 0 0021.623 3.669 56.403 56.403 0 0011.005-1.34c3.078-.694 6.037-1.891 8.092-4.38.427-.518.81-1.07 1.147-1.644-.019.07-.034.143-.054.214 9.184-.51 18.151-3.791 25.44-9.433 4.008-3.104 7.37-6.721 7.804-11.992a21.75 21.75 0 00-.023-3.654 15.266 15.266 0 00-.85-6.454c.276.084.555.158.83.25 1.221.415 1.746-1.515.531-1.927" fill="#231F20" mask="url(#b)"/></g><path d="M294.203 293.5a102.486 102.486 0 00-12.819-1.91c-4.29-.363-8.559-.309-12.858-.328-2.435-.012-4.87-.152-7.237-.76-.624-.16-.89.804-.267.964 4.13 1.061 8.406.74 12.622.77 4.354.03 8.71.34 13.021.94 2.44.34 4.864.772 7.271 1.287.628.135.897-.829.267-.964m18.48-9.811a63.023 63.023 0 00-17.14 9.5c-.506.395.206 1.098.708.707a61.495 61.495 0 0116.698-9.243c.599-.22.34-1.186-.266-.964m1.752 1.884a80.088 80.088 0 00-15.665 8.22c-.53.358-.03 1.225.505.864a78.878 78.878 0 0115.427-8.12c.592-.232.334-1.2-.267-.964" fill="#231F20"/></g></svg>