<svg width="500" height="600" xmlns="http://www.w3.org/2000/svg"><g fill="none" fill-rule="evenodd"><path d="M221.221 316.418c-3.438-1.804-6.396-4.3-9.328-6.812l-4.553-3.902c-1.325-1.136-2.845-2.299-3.358-4.042-.364-1.23-2.294-.708-1.929.531.064.22.141.43.226.635-.223.183-.38.443-.363.742.101 1.583.201 3.166.3 4.75a41.29 41.29 0 00.146 3.48.928.928 0 00-.135.502 28.355 28.355 0 001.23 7.66c.207 1.951.615 3.87 1.308 5.732a28.268 28.268 0 001.012 3.105 38.584 38.584 0 001.35 3.441 1.06 1.06 0 00-.213.893 25.422 25.422 0 003.521 8.387c.117.18.288.303.473.386l1.642 3.27c.01.434.025.868.05 1.302.076 1.28 2.076 1.288 2 0-.004-.072 0-.143-.004-.214.26-.283.317-.68.187-1.046a.816.816 0 00.5-.267l.056-.069c.325-.402.392-.954.035-1.36.004-.093-.024-.246-.018-.347.017-.277.037-.553.056-.829.036-.474.074-.947.117-1.42.02-.229.051-.457.074-.687a.833.833 0 00.162-.334l.283-1.259v-.019l.75-3.376a.855.855 0 00.551-.625c.184-.812.324-1.63.435-2.454.09-.137.16-.293.175-.49.072-.913.18-1.822.31-2.725.295-.147.538-.41.584-.817.034-.299.086-.596.127-.895.128-.122.238-.265.302-.442.96-2.69 1.69-5.452 2.186-8.264.037-.21.008-.416-.058-.606.404-.43.48-1.163-.189-1.515" fill="#E4C3A2"/><path d="M220.188 315.207c-1.366-.918-2.836-1.842-4.39-2.45a.759.759 0 00-.253-.379 96.942 96.942 0 01-10.195-9.287c-.267-.28-.686-.345-1.04-.223a4.718 4.718 0 01-.296-1.24c-.108-1.274-2.11-1.285-2 0 .086 1.011.403 1.927.846 2.781-.014.05-.025.1-.036.15a.948.948 0 00-.317.69c-.035.867-.057 1.733-.078 2.601a35.2 35.2 0 00-.33 5.814c.01.324.133.565.314.726.02 1.062.05 2.125.093 3.187-.01.02-.022.033-.032.053-.298.617-.138 1.424-.117 2.083l.08 2.688c.03 1.003 1.087 1.2 1.654.686-.345 5.71 2 11.362 4.24 16.561.508 1.18 2.232.162 1.727-1.009-2.334-5.42-4.87-11.363-3.724-17.393.473-2.495 1.673-5.745 4.197-6.82a4.791 4.791 0 011.526-.37l2.032.875c.187.081.392.107.592.097a92.159 92.159 0 004.736 2.006c1.109.432 1.66-1.23.77-1.827" fill="#C3996B"/><path d="M214.09 345.696c.084-.738-.637-1.383-1.3-1.473a1.41 1.41 0 00-.64.064c-.117-.48-.249-.955-.403-1.426.612-.28 1.031-.893.725-1.672l-4.306-10.978a1.714 1.714 0 00-.129-.253 34.877 34.877 0 01-.739-5.596 1.612 1.612 0 00-.294-.893c-.019-.11-.033-.221-.053-.333-.267-1.478-2.558-1.38-2.892 0-.14.576-.233 1.157-.309 1.74-.585.138-1.054.596-.986 1.387.507 5.973 1.743 11.839 3.752 17.489.197.555.608.866 1.063.978.602 1.666 1.338 3.284 2.307 4.82.182.288.433.474.705.585-.087 1.598 2.632 1.942 2.947.317.165-.852.266-1.702.301-2.56l.251-2.196" fill="#E4C3A2"/><path d="M212.202 349.57a37.248 37.248 0 01-4.949-10.266c.182-.33.252-.712.106-1.061a45.291 45.291 0 01-1.033-2.733c-.88-4.761-.61-9.521-.163-14.335.088-.944-.975-1.182-1.587-.735.122-4.871.14-9.744.042-14.616-.038-1.928-3.038-1.935-3 0 .05 2.52.062 5.043.053 7.564a1.4 1.4 0 00-.207.568c-1.14 7.597-.466 15.34 2.058 22.573-.303.205-.479.564-.317 1.025a44.09 44.09 0 007.426 13.228c.713.875 2.213-.276 1.571-1.211" fill="#C3996B"/><path d="M316.254 278.489c-1.155-2.74-2.178-5.413-3.502-8.042-4.37-3.315-8.624-6.81-12.277-10.888-.555-.62-.71-1.351-.582-2.013a28.542 28.542 0 00-7.26-3.4 5.365 5.365 0 00-1.309-.23l-2.305-1.29c-1.602-.895-3.157-.832-4.43-.215a38.76 38.76 0 00-7.356-3.514c-1.686-.6-3.105-.287-4.147.522-1.875.846-2.782 2.82-2.72 4.76-.008.043-.023.083-.032.127l-.015.003.04-.295c-.017.103-.043.202-.066.3-.112.027-.223.055-.339.073l.246-.033c-.8.152-1.529.422-2.187.92a264.93 264.93 0 00-.875-.14 5.406 5.406 0 00-1.914.032c-.92-.322-1.929-.321-2.87-.06-.627-.676-1.258-1.346-1.87-2.041a7.084 7.084 0 00-1.129-1.035c-1.042-1.09-2.54-1.803-4.5-1.803-.274 0-.528.03-.784.056-.824-.452-1.8-.738-2.93-.793-.49-.023-.973-.02-1.457-.022-2.164.609-4.396.969-6.615 1.38-.16.189-.337.355-.532.438-3.129 1.338-6.306 2.562-9.474 3.802-.7.274-1.423.04-1.975-.411a37.25 37.25 0 00-10.677 9.869 7.65 7.65 0 00-1.36.949 34.151 34.151 0 00-6.52 7.742c-1.358.716-2.444 1.933-3.179 3.502l-.15.287c-.15.285-.29.574-.448.856-.156.279-.322.556-.494.828l-.236.366c-.108.143-.279.375-.336.44-.212.244-.43.48-.656.71-.31.32-1.95 1.714-.676.734-1.104.848-2.008 1.666-2.586 2.839-.1.086-.204.17-.298.264a6.282 6.282 0 00-1.448 2.214c-.037.035-.075.065-.112.1-2.265 2.266-2.76 6.995 0 9.193l2.231 1.776c.267.9.755 1.792 1.523 2.626a55.542 55.542 0 005.86 5.482c.32 2.009 1.461 3.86 3.43 4.756 1.101 1.967 3.25 3.357 5.5 3.445l2.94 2.769c.071.067.15.126.225.19-.056.789-.123 1.578-.186 2.367-.98 1.21-1.32 2.896-1.019 4.438a72.361 72.361 0 00-.93 3.795c-2.315 1.166-3.058 4.103-2.225 6.406-.926 1.668-1.57 3.504-1.932 5.48l-.524 1c-1.06 2.014-1.079 4.557-.019 6.527-.78.7-1.26 1.659-1.472 2.682-1.113.782-1.739 2.028-1.927 3.348-2.365 2.738-1.274 8.15 3.266 8.42.615 1.642 2.041 2.937 4.275 3.014.805.91 1.997 1.516 3.58 1.516.183 0 .351-.022.524-.038.658.594 1.534.984 2.6 1.102.764.703 1.812 1.15 3.137 1.178.795 1.115 2.085 1.888 3.875 1.888.702 0 1.317-.131 1.865-.343.71.448 1.587.718 2.641.718.46 0 .88-.062 1.276-.158a5.314 5.314 0 002.095.613c4.063.354 8.131.639 12.203.89 15.802 2.239 31.598 1.954 47.37-.895.823-.148 1.484-.448 2.014-.843.12.007.238.018.363.018 2.393 0 3.884-1.39 4.498-3.127 2.078-1.03 2.901-3.48 2.468-5.638 3.191-7.692 1.38-18.053.01-26.61a5.653 5.653 0 00.445-2.905c.123-1.383-.242-2.817-1.116-3.876a5.572 5.572 0 00-.285-1.496c.007-2.89.17-5.778.458-8.653.166-1.643-.374-2.86-1.274-3.654a81.103 81.103 0 01.133-5.314c-.07-.354-.14-.707-.205-1.063-.117-.635-.07-1.191.231-1.762.057-.108.13-.203.206-.296.054-1.573-.563-2.725-1.525-3.447l-.066-1.678c.457.444 1.018.817 1.67 1.127-.093-4.007.02-8.058-.71-11.845-.278-1.45.628-2.884 2.206-2.896 1.265-.01 2.564-.084 3.817.029.286-.246.631-.411.998-.487.066-2.21.262-4.415.533-6.61a3.167 3.167 0 01-.709-1.047" fill="#27A9E0"/><path d="M249.883 367.507a90.948 90.948 0 01-7.98-5.487 2.024 2.024 0 00-.783-1.045c-11.095-7.839-13.363-22.614-11.363-35.177.1-.617-.017-1.237-.343-1.714a616.696 616.696 0 0110.403-43.322c.692-2.484-3.166-3.543-3.858-1.064a565.19 565.19 0 00-3.492 13.225 1.685 1.685 0 00-.747.254l-.404.312c-.248.25-.42.544-.515.883l-.398 2.624a1.513 1.513 0 00-.063.501 1.67 1.67 0 00-.3.624 47.828 47.828 0 01-1.512 5.277c-.298.848-.62 1.688-.966 2.517l-.125.29a48.523 48.523 0 01-.909 1.956 2.37 2.37 0 00-.23.92c-.357.255-.635.614-.737 1.06l-1.643 7.178a1.957 1.957 0 00-.317.684l-3.297 13.665-.087.29a36.766 36.766 0 00-1.376 4.587c-.027.12-.045.237-.053.35l-1.258 3.844c-.164.503-.073.982.155 1.398l-4.065 10.652c-.144.377-.12.78.016 1.148-1.423.157-2.45 1.85-1.23 3.32 2.335 2.814 5.103 5.21 8.186 7.174.55.35 1.086.387 1.548.228.866.523 1.806.988 2.743 1.032 1.185.61 2.394 1.18 3.641 1.684 6.421 2.6 13.544 2.984 20.35 3.86 2.083.266 2.553-2.782 1.01-3.728m63.558-25.307c-.062-.683-.39-1.302-.911-1.665.03-2.995-.096-5.972-.296-8.844-.062-.888-.59-1.463-1.24-1.735l1.07-8.782c.13-1.075-1.013-2-2-2-1.19 0-1.87.922-2 2l-1.851 15.203c-.577 4.748-1.031 9.538-2.007 14.225-1.59 7.625-5.264 16.105-13.147 18.988-2.398.877-1.362 4.744 1.064 3.857a22.19 22.19 0 003.18-1.464c.424.34 1.007.492 1.704.286 5.725-1.688 11.554-3.904 14.223-9.696 1.322-2.871 1.846-5.97 2.17-9.091a57.63 57.63 0 00.04-11.282m-83.103-85.982c-.836-.837-1.979-.674-2.828 0a83.6 83.6 0 00-17.604 19.148 140.37 140.37 0 00-1.626 2.496c-.28.087-.539.24-.739.486a52.65 52.65 0 00-5.179 7.641 1.955 1.955 0 00-.49.861c-.016.057-.027.117-.043.175-.28.537-.57 1.067-.83 1.615a2.544 2.544 0 00-.148.408 2.218 2.218 0 00-.57.89c-.77 2.23.205 4.677 2.034 6.01l2.452 3.83c.294.458.7.734 1.135.862.268.358.543.704.845 1.006.062.061.137.1.204.153l1.546 2.69c.538.935 1.81 1.26 2.737.717 1.01-.592 1.167-1.75.717-2.736a105.829 105.829 0 01-2.916-7.08c-.754-2.038-1.973-4.509-1.43-6.724.045-.183.058-.357.058-.524.115-.455.256-.909.426-1.362 1.39-3.699 3.752-7.208 5.983-10.446 4.511-6.545 10.041-12.353 16.266-17.288.848-.67.702-2.126 0-2.828m70.137 3.341c-.709-.793-.769-1.77-.41-2.547a79.496 79.496 0 00-10.519-3.82c-.005-.008-.007-.018-.012-.026-.302-.468-.687-.706-1.196-.92a13602.46 13602.46 0 01-8.004-3.35c-.215-.09-.491-.096-.763-.056-1.782-.846-3.728-1.32-5.705-1.31-1.046.007-2.049.916-2 2 .017.402.145.783.354 1.102-1.361.864-.984 3.594 1.119 3.74 10.988.77 21.711 4.048 31.323 9.373-1.453-1.338-2.869-2.714-4.187-4.186" fill="#1C75BB"/><path d="M309.782 309.2a.964.964 0 00.22.335c-.123-.713-.268-1.422-.4-2.134-.115-.635-.07-1.191.233-1.762a1.87 1.87 0 01.464-.552c-.124-1.531-.171-3.081-.198-4.635-.566.05-1.1.509-.885 1.21.016.056.035.11.052.166-.055-.01-.107-.02-.164-.02-.13-2.513-.121-5.03.207-7.55.166-1.271-1.836-1.26-2 0-1.17 8.983 1.662 17.908.664 26.894-.141 1.277 1.86 1.268 2 0 .452-4.06.12-8.106-.27-12.151l.077.199m-88.181 3.277a48.562 48.562 0 01-10.181-9.427c-.34-.42-1.059-.353-1.414 0-.04.04-.055.089-.087.132-2.311-3.113-5.004-5.917-7.404-8.96-.335-.424-1.064-.35-1.414 0-.42.42-.336.989 0 1.415a73.33 73.33 0 001.89 2.284c-.524.284-.846 1.032-.326 1.615 2.665 2.982 5.678 5.629 8.934 7.946-.02.248.063.509.305.734 1.496 1.399 3.01 2.789 4.696 3.958.809.56 1.659 1.062 2.558 1.463.459.205.924.383 1.396.554.004 0 .008.003.012.005.161.11.317.23.479.34.044.029.088.048.132.07.132.419.441.749.933.749.488 0 1.068-.461 1-1-.122-.973-.717-1.507-1.509-1.878" fill="#1C75BB"/><path d="M290.735 371.175c-2.47-.346-4.845-.082-7.297.273l-.482.07a1.493 1.493 0 00-.841-.04c-2 .46-4.01.47-6.012.03-.551-.123-1.004.036-1.328.328-4.595-.125-9.19-.093-13.783.09a1.341 1.341 0 00-.691-.397l-2.306-.539a1.415 1.415 0 00-.846-.666c-1.182-.336-2.315-.356-3.521-.169-.47.073-.762.366-.922.728a17.094 17.094 0 01-5.21-.543 20.812 20.812 0 01-2.295-2.33c-.946-1.134-2.397-.157-2.485 1.022-.954.495-1.367 1.975-.147 2.604a20.433 20.433 0 003.364 1.367c1.68 1.415 3.577 2.568 5.612 3.292.075.201.18.385.335.54l.302.235c.19.11.395.163.608.184.222.162.504.266.849.271.104.002.206-.002.309 0 .023.007.046.021.069.03.134.041.272.054.409.072.139.02.274.042.414.033a3.15 3.15 0 00.61-.089c.046-.01.086-.033.128-.048 2.379.008 4.757-.05 7.133-.143.234.371.624.65 1.177.686a64.242 64.242 0 0026.847-3.998c1.204-.455 1.63-2.665 0-2.893m-33.217-121.921c-1.931 0-1.934 3 0 3 1.93 0 1.934-3 0-3" fill="#27A9E0"/><path d="M216.868 360.566l-.07-.006c-.011-.003-.008-.003-.04-.008-.072-.02-.146-.032-.22-.052a3.35 3.35 0 01-.2-.067c-.032-.013-.095-.036-.122-.05-.16-.078-.305-.174-.453-.27l-.01-.007c-.03-.023-.057-.048-.085-.072a4.17 4.17 0 01-.193-.183c-.061-.064-.118-.132-.177-.197-.013-.014-.01-.01-.017-.016l-.033-.053a3.317 3.317 0 01-.266-.457c-.014-.032-.016-.033-.023-.045-.002-.01 0-.006-.007-.03-.024-.084-.055-.166-.078-.252-.021-.08-.036-.16-.053-.24a2.709 2.709 0 01-.01-.127 1.128 1.128 0 00-.222-.588c.034-.068.067-.137.104-.205.185-.332.389-.65.597-.967.289-.438.1-1.125-.36-1.368-.5-.264-1.06-.11-1.367.359-.954 1.45-1.865 3.255-1.185 5.013.343.888.938 1.588 1.842 1.932.938.356 1.972.15 2.914-.08.484-.117.78-.621.716-1.097-.07-.514-.48-.826-.982-.867m50.33 15.685a71.343 71.343 0 01-13.933-5.939c-.031-.025-.064-.046-.095-.07a1.373 1.373 0 00-.404-.213 71.966 71.966 0 01-4.09-2.502c-.873-.575-1.695.452-1.408 1.238l-1.42-1.005c-.011-.023-.01-.05-.025-.072a2.792 2.792 0 00-.477-.563 2.96 2.96 0 00-1.311-.684 2.896 2.896 0 00-.76-.066c-.266.02-.513.1-.707.293-.173.173-.304.458-.293.707.008.17.064.335.146.485a1.077 1.077 0 00-.283.493c-.868-.14-1.514.97-.932 1.612-.082.376.028.803.424 1.083a20.805 20.805 0 004.31 2.325 53.747 53.747 0 004.652 2.56.923.923 0 00.46.664c.857.517 1.785.902 2.75 1.15.254.13.543.202.88.182.09-.006.168-.037.247-.064.326.1.673-.037.913-.278 3.772.588 7.6 1.12 11.356.593 1.039-.147.858-1.667 0-1.929m44.352-18.329c-.583 0-.949.46-1 1-.187 2-.847 4.054-1.76 5.84-.706 1.38-2.05 3.076-3.824 2.77-.532-.092-1.077.141-1.23.698-.132.481.163 1.137.698 1.23 2.523.437 4.643-1.15 5.85-3.257 1.252-2.184 2.033-4.78 2.266-7.28.051-.539-.495-1-1-1m-13.726 10.76a78.03 78.03 0 00-4.1 1.647.922.922 0 00-.025-.176c-.153-.579-.697-.77-1.23-.699-3.496.471-5.416 3.884-8.534 5.054-.243.075-.483.155-.726.229-1.234.368-.722 2.231.53 1.928a7.12 7.12 0 00.818-.257 91.844 91.844 0 008.937-3.289.78.78 0 00.496-.724 71.318 71.318 0 014.366-1.784c1.198-.44.68-2.373-.532-1.929m-75.273-55.119a41.778 41.778 0 01-11.114-8.305c-.89-.932-2.304.483-1.415 1.414a43.432 43.432 0 0011.52 8.618c1.142.587 2.155-1.137 1.01-1.727" fill="#1C75BB"/><path d="M350.68 374.889c.06-.345-.068-.707-.49-.928-.164-.078-.326-.163-.489-.245a.905.905 0 00-.453-.581c-.527-.301-1.06-.592-1.593-.886-.297-.302-.665-.548-1.043-.763a38.545 38.545 0 00-2.556-1.338 40.555 40.555 0 00-2.075-.906 19.873 19.873 0 00-.925-.434c-.987-.488-1.977-.976-2.976-1.442-.037-.022-.07-.045-.113-.064-.04-.017-.082-.031-.123-.048-.365-.17-.727-.346-1.095-.513a1.21 1.21 0 00-.694-.095 18.039 18.039 0 00-1.582-.36c-3.272-1.353-6.668-2.447-10.235-2.422-2.415.017-4.784.587-7.09 1.25-2.304.661-4.609 1.335-6.78 2.358-.667.313-.608 1.004-.228 1.442-.864.249-1.729.496-2.592.747a493.337 493.337 0 00-15.915 4.927.956.956 0 00-.675.825c-.995.192-1.997.35-3.005.462-.435.049-.808.301-.939.702-5.634.65-11.232 1.845-16.877 2.416-.163-.445-.605-.79-1.178-.639a23.034 23.034 0 01-12.324-.169.9.9 0 00-.647.049c-.094-.028-.19-.048-.284-.076-.992-.296-1.627.961-.972 1.67 1.216 1.319 3.038 1.438 4.48 2.38 1.45.95 2.532 2.336 4.284 2.779a.948.948 0 00.988-.303 40.485 40.485 0 0110.967-3.964c.344-.071.543-.27.642-.512 7.207-1.111 14.387-2.573 21.705-1.909.69.063.993-.487.94-1.027a28.69 28.69 0 007.733.17l.841.132c.298.212.612.255 1.011.167a.766.766 0 00.181-.071c.178.282.493.457.85.502l6.058.752a644.657 644.657 0 0010.324 3.295c.548.17.944-.121 1.116-.524 6.974-3.863 15.017-8.025 23.086-5.009 1.12.419 1.631-1.203.742-1.797" fill="#594A41"/><path d="M351.047 375.414c-7.442-2.09-15.414-1.375-22.39 1.936a.855.855 0 00-.387.357 95.093 95.093 0 00-14.02-1.838 12.258 12.258 0 012.913-2.134c.195.117.436.16.727.055a20.565 20.565 0 015.1-1.147c1.262-.112 1.304-2.054 0-2a41.333 41.333 0 00-8.769 1.327 47.166 47.166 0 00-5.584 1.475 34.1 34.1 0 00-5.539 1.625 1.02 1.02 0 00-.654.853c-.966.06-1.932.132-2.897.225 5.55-3.866 12.062-6.172 18.836-6.53a.962.962 0 00.555-.218c.27-.009.54-.035.811-.04 1.285-.026 1.29-2.026 0-2-7.664.153-15.206 1.851-22.194 4.924-2.715.415-5.256 1.703-7.235 3.604a.892.892 0 00-.293.733 85.788 85.788 0 00-26.589 7.28c-1.168.534-.154 2.258 1.01 1.726 9.745-4.457 20.302-6.954 31.001-7.41.157.2.4.327.752.28a94.752 94.752 0 0111.268-.806c.043.053.076.108.138.157.722.566 1.481.757 2.291.83.16.158.37.276.653.297a42.026 42.026 0 0111.876 2.61c1.214.458 2.36.944 3.67 1.034.485.033.817-.305.933-.71a.983.983 0 00.538-.126c.271-.153.506-.205.814-.2.538.007.838-.34.927-.747.305-.177.61-.357.92-.527.16-.056.323-.104.482-.16.211-.075.354-.2.466-.342a49.689 49.689 0 013.804-1.806c.978-.112 1.947-.283 2.893-.572.491-.15.693-.549.69-.95a30.06 30.06 0 0111.952.863c1.24.348 1.77-1.58.531-1.928" fill="#3B2314"/><path d="M321.376 400.407a1.37 1.37 0 00-.038.104c.014-.032.025-.065.04-.097a.019.019 0 00-.002-.007" fill="#E4C3A2"/><path d="M351.772 379.886c-.462-1.724-1.842-3.159-4.16-3.152-3.307.01-6.764.06-9.951 1.053a20.54 20.54 0 00-1.533.554 5.907 5.907 0 00-1.93.513c-1.308.591-2.47 1.412-3.51 2.371-.43.271-.857.546-1.283.823a5.101 5.101 0 00-.406.295 24.608 24.608 0 00-2.291 1.706 179.922 179.922 0 00-8.85-2.383c-3.056-.735-6.026-1.683-8.983-1.632-6.332-1.424-12.868-1.33-19.382-.579-6.274.724-13.54 1.115-19.183 4.337-1.148.377-2.226.892-3.191 1.583-.82.381-1.6.808-2.311 1.314a89.574 89.574 0 00-6.01-2.459c-1.765-1.48-3.513-2.99-5.423-4.27-4.511-3.02-9.13-5.89-13.695-8.829-.935-.6-1.856-.8-2.701-.71-5.65-3.165-11.934-4.76-18.765-5.578-6.54-.783-13.856.536-17.644 5.721-.52.18-1.032.46-1.521.868-4.725 3.956-4.797 10.385-2.617 15.693.328.801.693 1.653 1.095 2.503 0 .671.153 1.376.512 2.095 2.165 4.34 7.366 6.05 11.84 6.927 1.154.225 2.368.478 3.61.728 2.153.683 4.344 1.192 6.557 1.611.314.17.66.313 1.048.42 11.083 3.035 22.685 4.232 34.032 5.894 6.633 2.463 14.488 3.562 22.017 3.556.488.37 1.104.645 1.884.768 5.583.881 10.652 1.16 16.268.51.154-.018.309-.032.463-.048a51.893 51.893 0 004.402-.162 5.06 5.06 0 00.998-.186c2.932-.177 5.843-.499 8.539-1.75a14.54 14.54 0 003.606-2.399c.63-.38 1.247-.8 1.835-1.306 3.224-2.772 4.647-7.362 2.512-11.209-.618-1.112-1.48-1.742-2.411-2.024.527.052 1.054.116 1.58.187.599 1.401 1.816 2.534 3.304 2.82.23.777.463 1.555.692 2.334.178.6.287 1.263.512 1.843.025.064.036.115.049.17.025-.065.05-.129.09-.209-.035.07-.054.144-.088.215.124.497-.173.55-.04.098-.65 1.487-.525 3.185.328 4.482a2.387 2.387 0 00-.357 1.326c.012.731.683 1.607 1.5 1.5a35.26 35.26 0 0012.11-3.9 20.452 20.452 0 005.503-3.026c3.159-1.175 5.984-3.689 7.867-6.542a6.282 6.282 0 002.019-2.859c.042-.122.053-.252.05-.384 1.328-2.622 1.87-5.45 2.273-8.545.129-.989-.237-1.919-.86-2.677" fill="#E4C3A2"/><path d="M253.538 406.786a15.779 15.779 0 00-.313-.032c.05-.035.105-.064.156-.1.325-.233.58-.498.69-.897.098-.358.053-.837-.153-1.156-.206-.32-.514-.601-.896-.689-.372-.084-.833-.08-1.156.152a18.32 18.32 0 01-3.412 1.936c-.003 0-.005.002-.007.004.152-.856-.303-1.767-1.39-1.629-.286.036-.572.05-.857.077-.239-.477-.69-.85-1.297-.85-1.248 0-2.366.287-3.489.817-.435.204-.644.525-.715.874a1.476 1.476 0 00-.396.212c-4.274-.36-8.55-.662-12.832-.916.022-.663-.453-1.356-1.103-1.504-.824-.187-1.583.25-1.845 1.049-.675 2.06-.5 4.379.36 6.387a1.193 1.193 0 00-.004.835c.05.132.11.26.17.387a1.48 1.48 0 00.153.992c1.436 2.656 4.34 2.584 6.84 1.795 2.882.34 5.766.338 8.75-.261 2.404-.481 4.745-1.223 7.075-1.98 2.218-.72 4.45-1.445 6.428-2.708 1.332-.85.684-2.637-.757-2.795" fill="#E4C3A2"/><path d="M315.859 396.152c-.063 4.108-2.271 8.084-5.701 10.352-1.948 1.288-4.105 1.786-6.367 2.237l-5.752 1.145a1.44 1.44 0 00-.815-.23 159.619 159.619 0 01-35.73-3.73l-.015-.006c-5.591-2.165-11.655-1.857-17.51-2.62-6.191-.806-12.215-2.58-18.196-4.317a1.524 1.524 0 00-.55-.057c-7.128-2.898-14.438-6.753-17.841-13.995-1.596-3.4-1.893-7.431-.522-10.958 1.527-3.928 5.126-6.105 9.04-7.154 1.863-.5 1.073-3.395-.797-2.893-1.81.485-3.571 1.182-5.165 2.139-.244-.184-.536-.288-.843-.248-2.493.33-4.985.87-7.182 2.149-2.164 1.259-3.634 3.143-4.508 5.44-.196.07-.376.183-.514.35-2.106 2.549-2.312 5.959-1.288 9.019.149.444.319.879.503 1.309.07.447.16.889.274 1.324.117 2.775.936 5.473 2.443 7.814.18.282.404.472.645.587.13.359.373.656.676.849.003.458.225.91.734 1.199a19.753 19.753 0 003.384 1.513c.024.01.045.026.069.037.149.066.293.093.435.119.738.228 1.488.412 2.248.552.052.046.095.098.153.138 2.159 1.509 4.777 1.922 7.347 2.172a30.138 30.138 0 009.459 1.907 1.37 1.37 0 00.885-.3c.534.213 1.067.427 1.602.634.41.159.764.126 1.05-.021 5.143 1.475 10.32 2.855 15.628 3.582 5.492.753 11.196.495 16.497 2.248.16.13.36.233.612.288.166.037.334.068.5.105.13.044.253.068.37.077a163.513 163.513 0 0033.015 3.732c.305.526.882.9 1.637.75 3.203-.637 6.409-1.261 9.609-1.915 2.559-.522 4.957-1.344 7.063-2.927 3.89-2.925 6.343-7.508 6.418-12.396.03-1.931-2.97-1.932-3 0" fill="#C3996B"/><path d="M314.621 389.827c-2.739-.958-5.519-1.875-8.436-2.063-2.829-.18-5.46.666-8.152 1.381-3.96.421-7.95.512-11.935.523a1.389 1.389 0 00-.82-.206c-2.698.11-5.373-.142-7.99-.808a27.885 27.885 0 01-3.798-1.252c-.59-.245-1.17-.518-1.74-.808-.274-.139-.55-.278-.817-.432a4.596 4.596 0 01-.437-.27l-.028-.035c-.1-.795-.678-1.27-1.47-1.366a3.07 3.07 0 00-1.558.232c-1.215-.029-2.043 1.927-.753 2.865 2.27 1.647 4.582 3.272 7.273 4.156 1.376.451 2.803.677 4.244.793.107.28.325.53.696.697 2.622 1.186 5.388 1.065 8.196.828a68.493 68.493 0 009.135-1.387 37.885 37.885 0 002.26-.594 71.633 71.633 0 003.673-.478c.506-.08.814-.346.968-.685a13.45 13.45 0 011.684-.178c3.111-.1 6.112.968 9.008 1.98 1.827.637 2.611-2.26.797-2.894m37.776-10.436a1.348 1.348 0 00-.43-.777 1.41 1.41 0 00.086-.447c.009-.838-.633-1.358-1.386-1.479a1.25 1.25 0 00-.628-.134c-.136.008-.27.025-.404.037-7.026-.534-14.15 1.235-20.126 4.973-.48.038-.943.273-1.174.71-.04.074-.046.156-.074.234-.25.46-.26 1.062 0 1.509.182.309.449.497.747.601.03.08.064.158.11.23.217.335.51.569.896.689l1.925.599 2.46 1.454c.354.208.795.243 1.19.13.704.173 1.699-.258 1.813-1.053.328-2.272 2.763-3.38 4.612-4.342 2.349-1.224 4.82-2.419 7.48-2.709-.03.177-.032.367.009.573 1.338 6.639-2.441 13.233-7.467 17.325-5.77 4.697-13.248 6.691-20.322 8.478-1.87.471-1.077 3.366.798 2.892 7.838-1.979 16.015-4.313 22.233-9.746 5.564-4.861 9.15-12.306 7.652-19.747m-99.504 28.813c-4.804-.017-9.38-.26-14.034-1.52-4.507-1.219-9.2-1.319-13.705-2.507-1.868-.494-2.665 2.399-.798 2.892 4.65 1.229 9.488 1.369 14.145 2.628 4.743 1.281 9.5 1.49 14.392 1.508 1.93.007 1.933-2.993 0-3" fill="#C3996B"/><path d="M416.475 216.462c-.773 0-1.38.281-1.837.713a2.559 2.559 0 00-.889.487 3.067 3.067 0 00-.684.295 37.963 37.963 0 00-2.938 1.943 3.295 3.295 0 00-.633.27l-1.597.901c-.617.254-1.235.51-1.852.763-.119.05-.231.115-.345.178-5.878 1.637-11.756 3.271-17.632 4.918-.537.15-1.074.305-1.611.466l-1.977.255c-1.581.205-3.491.434-4.291 2.208-.002.003-.002.006-.003.01a20 20 0 00-1.354.798c-2.451 1.6-4.545 3.705-6.295 6.161-.609.49-1.209.99-1.816 1.482l-22.481 15.612c-.114.078-.203.17-.282.267-1.801.94-3.621 1.841-5.392 2.85-3.833 2.186-7.438 4.834-10.775 7.846-.887.318-1.711.86-2.404 1.554-.665-.06-1.376.377-1.377 1.326l-.013 8.687c-.001 1.401-.002 2.802-.005 4.203-.001.73-.022 1.465.447 2.045.469.58 1.108.684 1.776.563a9.897 9.897 0 001.924-.568c.042-.014.084-.032.127-.05 1.877-.78 3.561-2.094 5.11-3.574.533.045 1.092-.102 1.634-.529a92.416 92.416 0 0011.882-11.156c.803.156 1.672-.027 2.449-.756l19.169-17.99c.319.296.722.53 1.236.652a56.58 56.58 0 002.634.555c.41 1.02 1.241 1.842 2.512 1.953 5.905.514 15.161 1.587 19.962-3.113a2.49 2.49 0 00.387-.51c.01-.005.02-.007.031-.01.24-.106.468-.224.693-.342.262.11.539.192.84.228 3.814.46 6.836-3.182 8.077-6.802.068-.196.125-.393.183-.59.298-.354.518-.775.588-1.27.41-2.922.333-5.769-.498-8.602a3.524 3.524 0 00-.997-1.614l.659-.155c.402.078.814.056 1.209-.118 1.911-.842 3.754-1.803 5.506-2.996.805-.548 1.305-1.475 1.411-2.46.168-.234.337-.468.505-.704 2.757-1.014 2.445-6.28-.973-6.28" fill="#E4C3A2"/><path d="M371.3 250.29c.44-.424.972-.676 1.514-.749-.313-.61-.984-.996-1.69-.535-6.356 4.144-12.317 9.001-17.795 14.46-.688-.327-1.517-.288-2.224.425-1.583 1.593-3.365 2.892-5.218 4.064-.59-.047-1.199.173-1.665.644-.312.316-.638.616-.957.923-.537.306-1.075.61-1.613.91-3.256 1.818-6.459 3.654-9.383 6.061l-.074.04-.019.008a10.648 10.648 0 01-1.017.37c-.386.118-.78.206-1.175.278-.46.055-.92.086-1.384.08-1.097-.018-2.146 1.073-2.096 2.307.03.721.33 1.356.795 1.778-.01.228.003.462.064.707.276 1.106 1.517 2.068 2.577 1.612 5.732-2.47 11.016-5.93 15.693-10.312 3.005-1.743 5.911-3.666 8.434-6.207.41-.41.6-.875.643-1.336a109.625 109.625 0 0112.788-11.025c1.066-1.684 2.401-3.154 3.801-4.503m36.072-17.74c.088-.193.14-.397.141-.616v-.383a1.159 1.159 0 00-.109-.533 1.05 1.05 0 00-.26-.446.953.953 0 00-.404-.287.882.882 0 00-.484-.119l-.335.05a1.235 1.235 0 00-.555.356l-.196.281c-.08.154-.123.32-.147.491-.037.032-.077.06-.109.097-.515.567-.438 1.384 0 1.96.941 1.232 1.065 3.25.308 4.67-.938 1.76-2.942 2.624-4.178 4.226a1.7 1.7 0 00-.338.827c-.048-.039-.09-.085-.14-.12-.649-.48-1.418-.765-2.142-1.074a35.232 35.232 0 00-2.19-.86c-2.427-.85-5.027-1.27-7.455-.5-.713-1.9-2.078-3.54-3.77-4.379-.319-.158-.62-.246-.969-.14a1.31 1.31 0 00-.752.637c-.29.604-.189 1.577.451 1.894.22.11.432.23.638.363.102.068.203.14.303.213.052.04.178.154.213.184.311.3.612.6.876.954.036.046.068.095.103.141l-.06-.078.02.028a7.31 7.31 0 01.596 1.123 23.589 23.589 0 00-6.2 1.162c-1.545.514-.887 3.188.668 2.671 3.261-1.084 6.726-1.429 10.105-.893.671.106 1.35-.182 1.547-.967.038-.156.045-.328.026-.5.724.095 1.444.265 2.14.477.612.187 5.401 1.681 4.882 2.63-.838 1.53 1.335 2.923 2.171 1.397.51-.932.461-1.954.084-2.84.361.034.731-.08.971-.39 1.484-1.925 3.831-2.887 4.823-5.337a7.708 7.708 0 00-.273-6.37m-21.559 7.809c-.053-.073-.12-.155 0 0" fill="#C3996B"/><path d="M403.474 230.217a1.253 1.253 0 00-1.381.58c-.221-.376-.593-.63-1.038-.63h-5.2c-.657 0-1.287.636-1.257 1.384.031.751.553 1.386 1.257 1.386h5.2c.126 0 .249-.03.368-.074-.83 2.39-2.121 4.51-3.871 6.302-.482.494-.488 1.465 0 1.958.517.523 1.263.528 1.777 0 2.414-2.472 4.166-5.697 5.023-9.202.171-.699-.213-1.537-.878-1.704" fill="#C3996B"/><path d="M327.936 268.513c.128-.952.085-1.907-.17-2.807.045-.817-.135-1.672-.717-2.279-.802-.838-2.036-.878-2.905-.346a5.685 5.685 0 00-.793-.236c-.704-.15-1.41-.188-2.118-.186-.485-.342-1.071-.527-1.678-.637-.523-.096-1.048-.186-1.572-.278a54.751 54.751 0 00-5.681-1.097c-2.39-.615-4.777-1.237-7.167-1.846a1.496 1.496 0 00-1.426.378c-.08-.042-.157-.088-.236-.131-1.038-.848-2.161-1.594-3.468-2.118-1.168-.469-2.462 1.187-1.694 2.203 1.012 1.34 2.238 2.709 3.712 3.441.022.309.169.622.498.891l.926.757a109.411 109.411 0 00-4.027-1.851c-1.737-.752-3.281 1.764-1.513 2.591l5.645 2.643c1.935.97 3.837 2 5.71 3.082.065.212.177.421.362.61.769.791 1.52 1.598 2.265 2.413-.715.56-.96 1.878.006 2.61a31.253 31.253 0 014.138 3.796 1.618 1.618 0 00-.6.99c-.03-.016-.061-.029-.092-.044-1.577-.839-2.99 1.315-1.837 2.36-.116.68.17 1.426 1.027 1.678l.09.025c.048.27.182.524.434.725.235.187.475.344.719.48.172.195.41.346.72.422 2.227.553 4.637 1.073 6.858.227l.012.013c.285.262.66.457 1.06.439l.399-.054c.254-.071.474-.2.662-.385.536-.415.978-.939 1.355-1.5a6.382 6.382 0 00.835-1.848c.105-.374.045-.82-.151-1.155a1.489 1.489 0 00-.226-.285 77.762 77.762 0 00.105-12.89c.275-.187.485-.451.533-.801" fill="#27A9E0"/><path d="M326.885 262.725c-4.696-2.44-9.98-2.265-15.104-2.827a56.626 56.626 0 01-5.099-.811c-.269-.313-.652-.521-1.1-.505-.388.015-.776.005-1.164-.003a63.092 63.092 0 01-9.076-2.972c-1.782-.737-2.559 2.164-.797 2.892 1.01.417 2.03.8 3.057 1.163.155.439.51.79 1.002.95 1.766.574 3.625.89 5.485.96 2.077.49 4.181.879 6.306 1.157 4.963.65 10.414.215 14.975 2.586 1.711.889 3.23-1.698 1.515-2.59m1.077 13.779a.413.413 0 00.144.027.507.507 0 00.5-.5v-1.502c0-.01-.006-.02-.006-.03.033-.727.013-1.454-.074-2.177-.03-.247-.167-.459-.433-.49-.232-.028-.498.11-.549.358-.048.238-.105.474-.155.712a.453.453 0 00-.135.23 14.392 14.392 0 00-.307 1.712 70.787 70.787 0 01-.392 1.556 1.35 1.35 0 00-.553.613c-2.164 4.516-7.807 4.23-11.967 3.376-4.945-1.015-9.787-2.515-14.473-4.385-1.793-.717-2.572 2.184-.798 2.893 1.035.412 2.084.808 3.14 1.194 0 .004-.004.008-.004.013-.238.861.294 1.535 1.047 1.844 1.972.812 3.97 1.56 5.98 2.274.12.264.315.49.587.618 3.836 1.82 8.436 3.08 12.72 2.646a6.63 6.63 0 00.856-.146 3.622 3.622 0 002.61-.47c.864-.539 1.471-1.353 1.862-2.28.73-1.73 1-3.69 1.025-5.557a1.363 1.363 0 00-.059-.386c.021-.04.044-.079.064-.12.406-.846-.008-1.633-.63-2.023" fill="#1C75BB"/><g fill="#231F20"><path d="M351.27 384.656a12.702 12.702 0 01-.922 3.602c-.212.497-.148 1.072.359 1.368a.942.942 0 00.315.103 10.59 10.59 0 01-1.447 3.504c-1.222 1.887-2.95 3.425-4.686 4.828-3.627 2.934-7.785 5.26-12.162 6.867-3.78 1.388-7.717 2.22-11.713 2.537 1.246-3.181 1.256-6.82-.045-9.987l.179-.83c.177-.833-.61-1.335-1.24-1.22-3.236-4.967-9.426-7.49-15.232-6.68-4.19.584-8.037 2.5-12.134 3.469-4.468 1.055-9.077 1.26-13.631.722-.056-.007-.096.01-.147.013-4.828-1.58-9.221-4.007-13.437-6.762 13.423-6.132 28.532-8.34 43.162-6.462 3.414.438 6.79 1.13 10.113 2.02.065.03.115.07.192.09a58.088 58.088 0 0110.866 3.725c.49.225 1.077.139 1.368-.36.252-.43.135-1.141-.36-1.367a60.437 60.437 0 00-2.498-1.076c2.228-1.816 4.767-3.19 7.458-4.113a.936.936 0 00.429-.063 25.723 25.723 0 011.665-.55 25.107 25.107 0 012.286-.471c-.025-.03-.046-.064-.07-.095a25.412 25.412 0 0110.146-.041c.019.105.044.212.09.314.777 1.674 1.168 3.525 1.18 5.379-.09.012-.175.032-.268.04.076.497.137.995.185 1.496m-44.388 25.47c-1.297.287-2.604.556-3.918.8a35.599 35.599 0 019.674-12.466c.74-.608.06-1.635-.707-1.707-4.301-.407-8.39-2.12-11.724-4.836 2.776-.907 5.638-1.63 8.578-1.217 2.775.389 5.474 1.62 7.528 3.535a11.419 11.419 0 012.549 3.515c-.585 2.596-1.321 5.2-2.797 7.427-2.122 3.204-5.63 4.165-9.183 4.95m-6.112 1.179c-6.001.955-12.11 1.212-18.044-.346-.778-.204-1.278.47-1.24 1.088a57.082 57.082 0 01-3.324-1.16c-.345-.132-.623-.057-.831.113l-45.055-7.084c-.03.026-.072.038-.107.06a90.036 90.036 0 01-7.275-1.893.922.922 0 00-.52-.007.8.8 0 01-.251-.1l-.018-.007a1.082 1.082 0 01-.236-.125c-.023.05-.041.102-.064.152a147.748 147.748 0 00-3.94-.965c-5.543-1.265-12.735-2.03-18.09-4.99a1.086 1.086 0 00-.26-.277c-2.595-1.931-3.642-5.637-4.623-8.567-1.047-3.127-1.786-6.424-1.288-9.705h.005c1.078-3.884 4.252-6.946 7.75-8.858 2.28-1.248 4.745-2.101 7.23-2.835 1.59-.47 3.466-1.204 5.28-1.44-.014.049-.024.1-.037.149 5.02.452 9.98 2.099 14.705 3.665 6.12 2.028 11.84 4.64 17.248 8.16 4.916 3.2 9.54 6.815 14.373 10.135 5.27 3.624 10.838 6.864 16.996 8.717a.873.873 0 00.839-.154c3.138.288 6.286.236 9.414-.203 2.967-.416 5.778-1.258 8.597-2.186a24.08 24.08 0 0011.644 5.776 36.912 36.912 0 00-8.81 12.338c-.083.192-.09.375-.068.549m-57.94 2.257c-.003-.021.002-.04-.002-.06-.644-2.96-2.814-5.34-5.275-6.73-.013-.008-.028-.013-.043-.02l17.154 2.696c-3.693 1.982-7.691 3.335-11.834 4.114m-15.488.562c-.255-.027-.44.06-.561.206-1.785-2.3-2.805-5.298-2.516-8.204.067-.67.195-1.32.378-1.945.17.045.344.084.515.13-.001-.02.007-.044.008-.065 1.116.33 2.238.64 3.365.928-.131.048-.26.105-.395.142.023.143.068.285.145.41.15.393.613.718.993.554.063-.027.122-.063.184-.091 4.557.7 10.502 2.044 11.808 7.647-4.59.705-9.31.765-13.924.288m65.405-39.316c-.06-.004-.116-.018-.174-.023a167.892 167.892 0 0011.708-3.097c2.549-.775 5.8-1.804 7.342-4.07 3.394-1.528 7.242-2.062 10.878-2.674l.34-.052c4.926-.021 9.827.967 14.383 2.82l.122.158a.99.99 0 00.44.257c.443.147.884.295 1.326.44a.763.763 0 00.399.02.75.75 0 00.37-.12c.079-.041.13-.108.188-.17a31.18 31.18 0 0111.003 7.299 27.219 27.219 0 00-13.804.484c-4.046 1.007-7.863 2.937-11.065 5.715-.057.048-.08.105-.121.158a61.888 61.888 0 00-4.573-1.467c-.007-.002-.01-.007-.015-.01a80.374 80.374 0 00-10.036-2.3 96.954 96.954 0 0113.139-3.173c1.268-.212.73-2.14-.531-1.93a96.928 96.928 0 00-15.9 4.072.97.97 0 00-.558.484c-10.445-1.204-21.118-.393-31.266 2.423a81.3 81.3 0 00-12.065 4.428c-.337.154-.477.408-.5.678-3.075-2.083-6.074-4.303-9.094-6.473a81.371 81.371 0 0038.064-3.877m61.033 1.534c-.06-.02-.12-.033-.178-.052a.973.973 0 00-.161-1.097 33.015 33.015 0 00-17.355-10.208 1.05 1.05 0 00-.42-.01c-7.475-2.508-15.683-2.82-23.332-.586-.46-.66-1.781-.478-1.832.568a3.124 3.124 0 01-.331 1.266c-.041.02-.084.036-.125.056-.355.177-.476.472-.46.768-1.835 2.023-5.97 2.767-8.042 3.367a170.377 170.377 0 01-14.078 3.423c-.467.093-.686.419-.715.776-10.48 2.892-21.544 3.624-32.315 2.043-.693-.102-1.154.437-1.23.972a133.73 133.73 0 00-4.58-3.13c-5.565-3.608-11.49-6.253-17.783-8.328-3.6-1.188-7.332-2.393-11.123-3.114a.943.943 0 00-.588-.484c-1.53-.466-3.14-.307-4.727.055-.11-.367-.407-.657-.911-.63-.743.042-1.135-.677-1.191-1.338-.09-1.058.378-2.18.714-3.16a31.924 31.924 0 012.78-5.958c.66-1.11-1.067-2.115-1.725-1.01a33.83 33.83 0 00-3.381 7.676c-.382 1.29-.615 2.703-.023 3.969.224.478.57.897.986 1.216-.4.123-.792.244-1.176.356-2.93.848-5.848 1.856-8.508 3.37-3.338 1.9-6.196 4.75-7.677 8.243a.881.881 0 00-.441.604 15.528 15.528 0 00-.27 1.505c-.015.067-.041.128-.057.195l.039-.003c-.413 3.529.366 7.059 1.519 10.422 1.104 3.214 2.285 6.703 4.92 8.972-.023.028-.046.057-.071.082.155.098.32.177.48.27.033.026.06.058.095.083a.945.945 0 00.345.165c4.228 2.357 9.149 3.253 13.84 4.19 2.839.568 5.653 1.24 8.457 1.958-1.136 4.163.109 8.696 2.88 11.999 1.377 1.64 3.134 2.912 5.052 3.626 2.364.882 4.856.702 7.225.284 2.803-.495 5.573-1.181 8.352-1.786 2.666-.581 5.41-1.025 7.987-1.933 2.982-1.052 5.3-3.001 7.195-5.418l15.905 2.5c.18.029.34.005.489-.043a57.798 57.798 0 0021.623 3.669 56.31 56.31 0 0011.005-1.34c3.078-.694 6.037-1.891 8.093-4.38.427-.518.808-1.07 1.146-1.644-.018.07-.033.143-.053.214 9.183-.51 18.15-3.791 25.44-9.433 4.008-3.104 7.37-6.721 7.803-11.992.1-1.215.083-2.438-.023-3.654a15.265 15.265 0 00-.85-6.454c.277.084.555.158.83.25 1.22.415 1.746-1.515.532-1.927"/><path d="M311.755 314.671l.044-.008a19.057 19.057 0 01-.193-1.977l-.03.006-.839-9.235a3.338 3.338 0 01-.215-1.126c0-.423.012-.844.032-1.264a3.842 3.842 0 01-.166-1.463l-1.307-14.402c-.115-1.27-2.116-1.283-2 0l2.526 27.832c-.638.441-.59 1.544.16 1.767l.991 10.934c.61 6.707 1.236 13.413 1.825 20.122.427 4.853.692 9.911-.553 14.671-.7 2.677-1.979 4.943-3.752 6.734a10.544 10.544 0 01-.674 3.241c1.713-1.152 3.207-2.63 4.35-4.542 2.521-4.216 3.021-9.367 2.958-14.18-.08-6.298-.935-12.612-1.504-18.879-.55-6.077-1.102-12.154-1.653-18.23m-108.76-13.646l.001-.01c.048.065.1.125.146.189.243.288.474.585.694.888 4.047 5.179 8.808 9.782 14.183 13.615.273.193.54.218.771.139 1.041.656 2.132 1.222 3.294 1.624-2.28 7.773-4.258 15.62-6.087 23.522-.837 3.613-1.783 7.218-3.168 10.644-.05-.09-.1-.182-.192-.266-13.889-12.857-11.904-33.424-9.736-50.453.032.036.063.07.094.108m93.772-45.893c-.531-.22-1.06-.447-1.59-.658-7.096-2.826-14.367-5.178-21.64-7.493-.613-.195-1.279.333-1.266.965.07 3.226-2.476 6.407-5.804 6.614-1.737.108-3.373-.565-4.606-1.693-.039-.404-.293-.77-.714-.881-.043-.011-.085-.026-.128-.04a6.591 6.591 0 01-1.214-2.668c-.096-.474-.427-.691-.789-.712-.175-.142-.409-.25-.627-.24a1.07 1.07 0 00-.598.22c-.166-.125-.358-.215-.572-.2a69.413 69.413 0 00-9.288 1.333c-.094.02-.172.073-.25.12-3.894.607-7.777 1.365-11.516 2.622-7.032 2.367-13.213 6.578-18.51 11.722-5.3 5.146-9.743 11.112-13.898 17.196a337.554 337.554 0 00-3.05 4.555c-1.01 1.53-2.37 3.145-2.586 5.027-.02.166-.004.327-.006.49-.454.242-.762.786-.444 1.37a67.356 67.356 0 003.644 5.909c-.016.1-.026.2-.04.3.143.12.258.257.384.387-.332.135-.614.412-.67.85-2.272 17.73-4.269 39.132 10.234 52.557.695.643 1.64.046 1.715-.663.592.09 1.178.195 1.747.337 1.1-2.71 1.926-5.533 2.63-8.374 1.268-5.112 2.362-10.26 3.69-15.356a298.53 298.53 0 012.008-7.258c.241-1.966.752-3.874 1.643-5.58a329.882 329.882 0 016.168-18.402 329.453 329.453 0 016.94-17.25c.507-1.17-1.215-2.19-1.729-1.01a335.502 335.502 0 00-11.54 30.42 290.277 290.277 0 00-1.838 5.913c-1.94-.681-3.692-1.804-5.312-3.158-.038-.01-.07-.03-.108-.04.005.079-.012.166-.013.248a66.077 66.077 0 01-16.636-18.793c.066-.078.13-.16.202-.23-.03-.044-.064-.088-.09-.135-1.129-2.007-.265-3.506.88-5.25a454.927 454.927 0 012.803-4.23c7.332-10.905 15.76-22.073 27.928-27.858 3.917-1.861 8.128-2.986 12.378-3.787 2.11-.398 4.234-.72 6.36-1.02.26-.036.583-.1.943-.168l-.002-.178a65.036 65.036 0 015.23-.615c.071-.006.135-.033.204-.05.203 1.375 1.117 2.63 2.347 3.277 1.731 1.995 4.35 3.222 7.037 2.958 3.795-.376 6.828-3.567 7.372-7.247 7.345 2.344 14.7 4.76 21.837 7.692.19-.64.439-1.26.75-1.845"/><path d="M418.15 221.121c-.831 2.256-2.41 4.11-4.225 5.44a14.432 14.432 0 01-3.988 2.046c-.267-.184-.628-.048-.831.25-3.893 1.078-8.131.771-12.102.473-.86-.064-.855 1.42 0 1.483 1.807.136 3.66.266 5.51.276.014 4.702-3.352 9.211-7.604 9.811-.361.051-.663.305-.668.742-.003.362.31.792.668.742 4.959-.7 8.993-5.734 8.939-11.313.51-.015 1.02-.047 1.528-.088 1.22 2.636 1.22 5.908-.116 8.495-1.22 2.36-3.463 4.044-5.895 4.396-.413.06-.624.45-.631.817-.676-.498-1.48-.807-2.252-1.01-1.994-.526-4.12-.693-6.162-.803-.93-.05-1.86-.06-2.79-.048-.205-1.74-.95-3.384-2.19-4.535-.274-.257-.671-.3-.942 0-.238.263-.278.791 0 1.05a5.748 5.748 0 011.505 2.281c.139.398.239.817.304 1.24a44.53 44.53 0 00-2.965.22c-.848.092-.857 1.576 0 1.483a43.925 43.925 0 013.009-.223l-.005.07c-.05.396.086.797.466.912.31.096.772-.118.82-.518.02-.166.024-.333.034-.5 2.099-.023 4.197.1 6.283.39 1.358.188 2.869.35 4.06 1.166.692.476 1.014 1.167 1.023 1.887-.323.224-.433.745-.22 1.077a3.159 3.159 0 01-.594.922c-1.12 1.205-2.923 1.52-4.394 1.813a25.72 25.72 0 01-5.094.467c-3.405-.013-6.784-.634-10.068-1.606a56.06 56.06 0 01-5.263-1.862c-1.837-.75-3.64-1.613-5.588-1.94-.84-.142-1.204 1.287-.355 1.431 1.565.262 3.034.871 4.504 1.488a572.543 572.543 0 01-29.335 26.014 574.905 574.905 0 01-7.84 6.347.93.93 0 00-.161-.27c-.301-.336-.884-.382-1.18 0a6.2 6.2 0 01-.558.617l-.068.061-.005.004c-.046.04-.094.076-.142.114-.11.083-.22.16-.333.234a5.294 5.294 0 01-.35.204c-.13.07-.08.05-.244.117a4.982 4.982 0 01-.801.258 4.111 4.111 0 01-2.125-.105c.144-.712.229-1.443.278-2.16.19-2.752.08-5.548.09-8.306l.025-5.83a.543.543 0 00.673.021 3630.148 3630.148 0 0042.412-28.755c.298-.204.354-.536.277-.827l4.642-4.33c2.077-1.939 3.998-4.207 6.75-4.816 2.595-.574 5.229-.878 7.82-1.485a81.941 81.941 0 007.955-2.287 83.45 83.45 0 007.589-3.022c2.507-1.143 4.923-2.579 7.487-3.556.955-.363 2.823-1.244 3.656-.245.735.883.127 2.636-.222 3.581m-9.45 21.868c-1.755 3.117-5.093 5.214-8.412 4.825.016-.68-.127-1.362-.492-1.972a3.676 3.676 0 00-.363-.498c2.887-.44 5.514-2.286 6.98-5.118 1.48-2.859 1.559-6.41.376-9.398a20.465 20.465 0 002.479-.492c1.419 4.047 1.557 8.884-.567 12.653m10.6-26.527c-.815-.923-2.017-.923-3.087-.69-1.431.313-2.808.947-4.141 1.59-2.785 1.343-5.525 2.76-8.38 3.92a82.368 82.368 0 01-17.397 4.948c-1.568.264-3.185.4-4.66 1.098-1.41.667-2.551 1.855-3.711 2.937a58306.81 58306.81 0 00-8.27 7.715.698.698 0 00-.171.243 3646.586 3646.586 0 01-40.367 27.353l.01-2.26a.868.868 0 00-.195-.569c-.03-.358-.247-.685-.712-.785-11.36-2.45-22.718-4.902-34.08-7.352-1.254-.27-1.79 1.657-.53 1.93l33.89 7.31c-.02 5.072-.021 10.144-.064 15.215-.011 1.308-.04 2.715-.356 4.01-.037.046-.081.08-.111.137a1.012 1.012 0 00-.09.55 6.564 6.564 0 01-.336.806c-.55 1.072-1.387 1.631-2.332 1.94-.16-.324-.465-.546-.88-.408-9.227 3.052-17.825-3.438-25.008-9.055-.857-.67-1.668.894-.82 1.558 6.825 5.336 14.819 11.161 23.423 9.906a.666.666 0 00.526.204c2.044-.098 4.256-.323 5.736-2.09a6.458 6.458 0 001.014-1.734c1.833.61 3.896.224 5.429-1.046.183.241.473.354.777.113a573.689 573.689 0 0038.888-33.823 54.566 54.566 0 005.208 1.81c3.69 1.067 7.518 1.698 11.336 1.552a26.137 26.137 0 005.58-.806c1.519-.393 3.109-1.016 4.084-2.45a4.73 4.73 0 00.5-.973c3.813.497 7.612-1.757 9.719-5.303 2.467-4.15 2.346-9.49.823-14.018a15.454 15.454 0 003.106-1.466c1.998-1.239 3.788-2.98 4.984-5.163.975-1.776 2.249-5.06.665-6.854"/></g></g></svg>