<svg width="500" height="600" xmlns="http://www.w3.org/2000/svg" xmlns:xlink="http://www.w3.org/1999/xlink"><defs><path id="a" d="M.913.447H115.85v136.566H.913z"/><path id="c" d="M0 .483h210.039V206H0z"/></defs><g fill="none" fill-rule="evenodd"><path d="M325.896 281.665c-.007-.012-.016-.02-.022-.03-1.333-2.417-2.702-4.806-4.16-7.15-.886-1.425-1.687-3.963-3.11-4.927-.64-.436-1.017-.998-1.2-1.596a5.945 5.945 0 00-2.515-1.266 99.151 99.151 0 01-6.143-6.143c-1.918-2.089-4.356-1.889-6.118-.608-2.943-2.59-6.434-4.573-10.426-5.799a5.406 5.406 0 00-1.308-.23l-2.307-1.29c-1.601-.896-3.155-.833-4.43-.217a38.94 38.94 0 00-7.355-3.513c-1.685-.6-3.104-.287-4.146.522-1.875.847-2.782 2.821-2.72 4.761-.01.043-.023.083-.032.127l-.015.003.04-.296c-.017.103-.044.201-.066.301-.113.026-.223.054-.34.072l.246-.033c-.8.152-1.53.423-2.187.921l-.874-.14a5.388 5.388 0 00-1.915.031c-.921-.32-1.928-.32-2.87-.06-.627-.674-1.257-1.346-1.87-2.04a7.042 7.042 0 00-1.13-1.035c-1.041-1.09-2.54-1.802-4.5-1.802a7.29 7.29 0 00-.782.054 6.418 6.418 0 00-1.885-.66c-8.152 2.912-16.278 5.946-24.745 7.814-.015.003-.03.002-.044.005-.215.111-.427.226-.64.341a37.73 37.73 0 00-6.346 6.762 7.688 7.688 0 00-1.361.95 34.168 34.168 0 00-6.52 7.741c-1.357.717-2.444 1.934-3.18 3.502-.027.053-.071.14-.15.287-.148.286-.29.575-.446.856-.157.281-.323.557-.495.83l-.236.365c-.108.143-.28.375-.337.442-.212.242-.43.478-.654.71-.312.318-1.951 1.711-.678.732-1.102.85-2.007 1.666-2.585 2.84-.1.086-.204.17-.298.263a6.314 6.314 0 00-1.448 2.214c-.036.035-.075.065-.111.101-2.266 2.267-2.761 6.993 0 9.192l2.23 1.776c.267.901.755 1.793 1.523 2.627a55.222 55.222 0 005.86 5.48c.319 2.01 1.46 3.863 3.43 4.758 1.1 1.967 3.249 3.356 5.5 3.443l2.939 2.77c.073.068.152.126.226.19-.056.79-.122 1.578-.186 2.367-.98 1.21-1.32 2.896-1.02 4.437a73.4 73.4 0 00-.93 3.796c-2.313 1.166-3.057 4.102-2.224 6.405-.926 1.67-1.57 3.505-1.931 5.482l-.524 1c-1.062 2.014-1.08 4.557-.02 6.526-.78.701-1.26 1.66-1.472 2.684-1.112.78-1.738 2.025-1.927 3.345-2.365 2.74-1.273 8.151 3.267 8.42.614 1.644 2.04 2.94 4.275 3.016.804.91 1.996 1.515 3.58 1.515.182 0 .35-.02.524-.038.657.595 1.533.984 2.599 1.103.764.702 1.813 1.15 3.137 1.178.795 1.114 2.085 1.886 3.875 1.886.702 0 1.317-.13 1.865-.34.709.446 1.587.716 2.64.716.462 0 .882-.063 1.277-.159a5.298 5.298 0 002.095.614c4.064.355 8.132.64 12.202.891 15.804 2.238 31.599 1.952 47.37-.896.825-.148 1.486-.448 2.015-.843.12.008.239.017.364.017 2.393 0 3.883-1.388 4.497-3.127 2.079-1.029 2.902-3.478 2.467-5.636 3.192-7.693 1.38-18.054.01-26.61a5.643 5.643 0 00.446-2.906c.123-1.383-.242-2.816-1.116-3.876a5.563 5.563 0 00-.284-1.496c.007-2.888.168-5.776.458-8.652.166-1.644-.374-2.859-1.274-3.655-.016-2.46.06-4.915.287-7.358-.005-.017-.014-.03-.018-.048-.143-.716-.294-1.43-.563-2.11a2.039 2.039 0 010-1.075l.096-.228a3.758 3.758 0 00-.963-1.063c-.022-.558-.043-1.119-.066-1.677.667.645 1.536 1.154 2.622 1.51.175-.022.35-.026.525.013.268.013.518.093.75.24.235.127.423.3.566.52.178.195.299.424.36.685.05.125.078.254.12.38.046.01.09.021.138.03.222.04.452.07.702.07.116 0 .216-.022.324-.033a8.37 8.37 0 011.367-.956c.289-.158.573-.242.85-.294.246-.452.487-.907.732-1.362a4.002 4.002 0 00-.021-1.815c2.133-2.934 3.753-6.447 5.517-9.546 1.435-2.524 2.93-5.14 3.326-7.995" fill="#27A9E0"/><path d="M249.452 367.507a91.248 91.248 0 01-7.98-5.487 2.029 2.029 0 00-.783-1.045c-11.095-7.839-13.363-22.614-11.363-35.177.099-.617-.016-1.237-.343-1.714a616.696 616.696 0 0110.403-43.322c.69-2.484-3.166-3.543-3.858-1.064a570.185 570.185 0 00-3.492 13.225 1.69 1.69 0 00-.747.254l-.404.312c-.248.25-.42.544-.515.883l-.398 2.624a1.513 1.513 0 00-.063.501 1.67 1.67 0 00-.301.624 47.828 47.828 0 01-1.511 5.277c-.298.848-.62 1.688-.966 2.517l-.125.29a45.933 45.933 0 01-.91 1.956c-.14.286-.213.603-.23.92-.356.255-.634.614-.736 1.06l-1.643 7.178a1.957 1.957 0 00-.317.684l-3.297 13.665-.087.29a36.766 36.766 0 00-1.376 4.587c-.027.12-.044.237-.053.35-.42 1.281-.838 2.562-1.257 3.844-.165.503-.074.982.154 1.398l-4.065 10.652c-.144.377-.12.78.016 1.148-1.422.157-2.45 1.85-1.23 3.32 2.335 2.814 5.103 5.21 8.186 7.174.55.35 1.086.387 1.548.228.867.523 1.806.988 2.743 1.032 1.185.61 2.394 1.18 3.64 1.684 6.422 2.6 13.545 2.984 20.35 3.86 2.084.266 2.554-2.782 1.01-3.728m63.559-25.307c-.062-.683-.389-1.302-.911-1.665.031-2.995-.096-5.972-.296-8.844-.063-.888-.59-1.463-1.239-1.735l1.068-8.782c.131-1.075-1.013-2-2-2-1.189 0-1.868.922-2 2l-1.85 15.203c-.578 4.748-1.032 9.538-2.008 14.225-1.588 7.625-5.263 16.105-13.147 18.988-2.397.877-1.361 4.744 1.064 3.857a22.202 22.202 0 003.182-1.464c.423.34 1.006.492 1.702.286 5.726-1.688 11.555-3.904 14.223-9.696 1.323-2.871 1.847-5.97 2.171-9.091.389-3.753.388-7.527.041-11.282m-86.001-84.763c-.014.003-.026 0-.04.004-1.292.662-2.544 1.408-3.737 2.306-.23.172-.457.285-.682.373a83.656 83.656 0 00-13.077 15.247 142.23 142.23 0 00-1.625 2.495 1.51 1.51 0 00-.739.487 52.596 52.596 0 00-5.179 7.64 1.942 1.942 0 00-.49.86c-.017.059-.027.118-.043.176-.28.537-.57 1.067-.83 1.615-.063.13-.11.269-.149.408a2.24 2.24 0 00-.569.89c-.772 2.23.205 4.677 2.034 6.009l2.451 3.83c.294.459.7.736 1.136.863.267.358.543.704.845 1.006.061.062.136.102.204.152l1.546 2.69c.538.937 1.81 1.26 2.736.719 1.011-.592 1.166-1.75.718-2.737a105.803 105.803 0 01-2.916-7.08c-.754-2.038-1.973-4.51-1.43-6.724a2.17 2.17 0 00.058-.524c.115-.455.256-.91.426-1.361 1.39-3.7 3.751-7.21 5.983-10.447 4.51-6.543 10.041-12.353 16.266-17.288.695-.55.715-1.624.314-2.38-1.066.27-2.135.533-3.21.77m94.703 17.05c-.887-1.426-1.687-3.963-3.108-4.928-.714-.485-1.1-1.126-1.253-1.8a80.444 80.444 0 00-28.238-14.565c-.005-.01-.007-.02-.012-.026-.302-.468-.687-.706-1.196-.92l-8.005-3.35c-.214-.09-.49-.097-.762-.057-1.78-.846-3.728-1.321-5.705-1.31-1.046.007-2.049.917-2 2 .017.402.144.783.354 1.102-1.36.865-.985 3.594 1.12 3.742 14.242.997 28.051 6.194 39.555 14.627 3.241 2.377 6.263 5.047 9.073 7.918.6.613 1.311.702 1.93.489-.575-.98-1.152-1.956-1.753-2.922" fill="#1C75BB"/><path d="M321.13 270.537c-2.824-1.546-5.35 2.77-2.524 4.317 2.122 1.162 3.593 3.037 4.656 5.147-.105.015-.207.024-.316.055-1.1.302-2.124 1.645-1.805 2.845a2.798 2.798 0 00-1.105.047c-1.04.268-1.824 1.098-2.132 2.11-.262.863-.097 1.617.021 2.482.39 2.842.164 5.737-.596 8.514-.712.123-1.39.514-1.814 1.158-.51.773-.92 1.615-1.222 2.494-.526-.744-1.37-1.178-2.356-1.046-1.139.153-2.276 1.214-2.168 2.456l.077.89c.012-.007.02-.018.032-.025l.481-.203c.27-.084.537-.096.805-.037.27.013.52.093.75.24.236.127.424.3.567.52.177.195.298.424.36.685.094.237.16.481.228.724.206.015.411.044.608.101a8.488 8.488 0 011.814-1.334c.29-.159.575-.244.854-.297.498-.923 1.005-1.842 1.482-2.779.362-.709 1.06-1.139 1.818-1.288.861-1.812 1.735-3.617 2.572-5.443 1.956-4.27 3.63-8.886 6.503-12.627-1.419-3.952-3.524-7.478-7.59-9.706m-10.021 40.468a43.631 43.631 0 00-.738-2.948l.044.507c-.494.583-.728 1.347-.494 2.194.182.665.722 1.271 1.38 1.601a10.17 10.17 0 01-.192-1.354" fill="#27A9E0"/><path d="M317.906 273.638c1.964 1.277 3.98 2.565 5.499 4.383 1.477 1.77 2.138 4.019 2.796 6.191.982-1.842 2.106-3.59 3.491-5.145-.692-1.643-1.56-3.191-2.752-4.581-1.806-2.108-4.203-3.663-6.51-5.165-2.706-1.761-5.214 2.566-2.524 4.317m-7.723 33.757a1.499 1.499 0 01-.308-.337 1.531 1.531 0 01-.361-.686c-.143-.716-.294-1.431-.563-2.112a2.035 2.035 0 010-1.073l.203-.481c.179-.304.42-.544.724-.724l.482-.203c.178-.057.357-.07.536-.061a44.195 44.195 0 01-.184-.588c-.373-1.227-2.303-.704-1.928.533.016.054.036.11.052.165-.054-.01-.107-.02-.163-.02-.13-2.514-.121-5.03.207-7.55.165-1.272-1.836-1.26-2 0-1.17 8.982 1.662 17.908.664 26.894-.141 1.277 1.86 1.267 2 0 .452-4.06.12-8.106-.27-12.152l.076.2c.072.188.186.32.312.428l.087.29c.01.034.034.052.046.083-.266.436-.27.993-.022 1.446.028.052.073.09.107.136.275.688.855 1.009 1.508 1.094a10.203 10.203 0 01-.28-1.672c-.26-1.214-.55-2.421-.925-3.61m-89.013 5.082a48.557 48.557 0 01-10.18-9.427c-.34-.42-1.061-.353-1.414 0-.041.04-.056.089-.088.132-2.311-3.113-5.003-5.917-7.404-8.96-.335-.424-1.064-.35-1.414 0-.42.42-.336.989 0 1.415a76.272 76.272 0 001.89 2.284c-.523.284-.846 1.032-.325 1.615 2.664 2.982 5.677 5.629 8.934 7.946-.021.248.062.509.304.734 1.496 1.399 3.009 2.789 4.696 3.958.809.56 1.659 1.062 2.558 1.463.459.205.925.383 1.397.554.004 0 .007.003.01.005.162.11.318.23.48.34.045.029.089.048.132.07.132.419.44.749.933.749.488 0 1.068-.461 1-1-.123-.973-.717-1.507-1.51-1.878" fill="#1C75BB"/><path d="M290.304 371.175c-2.47-.346-4.845-.082-7.297.273l-.483.07a1.49 1.49 0 00-.84-.04c-2 .46-4.009.47-6.013.03-.55-.123-1.003.036-1.327.328-4.595-.125-9.19-.093-13.783.09a1.35 1.35 0 00-.691-.397l-2.307-.539a1.412 1.412 0 00-.846-.666c-1.181-.336-2.315-.356-3.52-.169-.47.073-.762.366-.923.728a17.097 17.097 0 01-5.209-.543 20.899 20.899 0 01-2.296-2.33c-.945-1.134-2.396-.157-2.484 1.022-.954.495-1.367 1.975-.148 2.604a20.444 20.444 0 003.365 1.367c1.681 1.415 3.577 2.568 5.612 3.292.075.201.18.385.334.54l.303.235c.19.11.394.163.608.184.222.162.503.266.849.271.103.002.206-.002.308 0 .024.007.046.021.07.03.134.041.271.054.409.072.139.02.274.042.414.033.204-.013.413-.036.61-.089.046-.01.085-.033.128-.048 2.379.008 4.756-.05 7.132-.143.235.371.624.65 1.178.686a64.242 64.242 0 0026.847-3.998c1.204-.455 1.63-2.665 0-2.893m-33.217-121.921c-1.931 0-1.934 3 0 3 1.93 0 1.934-3 0-3" fill="#27A9E0"/><path d="M216.437 360.566l-.07-.006-.04-.008c-.072-.02-.146-.032-.22-.052a3.64 3.64 0 01-.2-.067c-.032-.013-.095-.036-.122-.05-.16-.078-.305-.174-.454-.27l-.01-.007-.084-.072a3.719 3.719 0 01-.193-.183c-.062-.064-.118-.132-.178-.197-.012-.014-.01-.01-.016-.016l-.034-.053a3.415 3.415 0 01-.265-.457c-.015-.032-.017-.033-.024-.045-.002-.01 0-.006-.006-.03-.025-.084-.055-.166-.078-.252-.021-.08-.036-.16-.053-.24a2.709 2.709 0 01-.01-.127 1.129 1.129 0 00-.223-.588c.035-.068.068-.137.105-.205.184-.332.389-.65.597-.967.288-.438.1-1.125-.36-1.368-.5-.264-1.06-.11-1.367.359-.954 1.45-1.865 3.255-1.185 5.013.343.888.938 1.588 1.84 1.932.94.356 1.974.15 2.916-.08.484-.117.78-.621.716-1.097-.07-.514-.48-.826-.982-.867m50.33 15.685a71.318 71.318 0 01-13.933-5.939c-.031-.025-.065-.046-.095-.07a1.373 1.373 0 00-.404-.213 71.615 71.615 0 01-4.09-2.502c-.873-.575-1.696.452-1.408 1.238l-1.42-1.005c-.012-.023-.01-.05-.025-.072a2.824 2.824 0 00-.477-.563 2.95 2.95 0 00-1.312-.684 2.885 2.885 0 00-.76-.066c-.266.02-.512.1-.706.293-.173.173-.304.458-.293.707.008.17.064.335.146.485a1.077 1.077 0 00-.283.493c-.868-.14-1.515.97-.933 1.612a1.03 1.03 0 00.425 1.083 20.805 20.805 0 004.31 2.325 53.73 53.73 0 004.65 2.56.927.927 0 00.463.664c.855.517 1.783.902 2.749 1.15.254.13.543.202.88.182.09-.006.168-.037.247-.064.326.1.673-.037.912-.278 3.773.588 7.602 1.12 11.357.593 1.039-.147.857-1.667 0-1.929m44.353-18.329c-.584 0-.95.46-1 1-.188 2-.848 4.054-1.762 5.84-.705 1.38-2.05 3.076-3.824 2.77-.53-.092-1.077.141-1.229.698-.133.481.163 1.137.698 1.23 2.522.437 4.642-1.15 5.85-3.257 1.251-2.184 2.032-4.78 2.266-7.28.051-.539-.496-1-1-1m-13.726 10.76a78.03 78.03 0 00-4.1 1.647.922.922 0 00-.025-.176c-.153-.579-.698-.77-1.23-.699-3.496.471-5.417 3.884-8.534 5.054-.243.075-.483.155-.727.229-1.233.368-.722 2.231.532 1.928a7.12 7.12 0 00.817-.257 91.844 91.844 0 008.937-3.289.78.78 0 00.496-.724 71.55 71.55 0 014.365-1.784c1.199-.44.68-2.373-.531-1.929m-75.273-55.119a41.782 41.782 0 01-11.115-8.305c-.89-.932-2.303.483-1.414 1.414a43.432 43.432 0 0011.52 8.618c1.142.587 2.155-1.137 1.01-1.727" fill="#1C75BB"/><path d="M350.25 374.889c.058-.345-.069-.707-.49-.928-.165-.078-.327-.163-.49-.245a.908.908 0 00-.453-.581c-.528-.301-1.062-.592-1.593-.886-.298-.302-.665-.548-1.043-.763a38.568 38.568 0 00-2.557-1.338 40.174 40.174 0 00-2.075-.906 19.839 19.839 0 00-.924-.434 148.22 148.22 0 00-2.976-1.442c-.037-.022-.07-.045-.113-.064-.04-.017-.083-.031-.124-.048-.365-.17-.727-.346-1.094-.513a1.21 1.21 0 00-.694-.095 17.978 17.978 0 00-1.583-.36c-3.272-1.353-6.668-2.447-10.234-2.422-2.415.017-4.784.587-7.09 1.25-2.305.661-4.609 1.335-6.78 2.358-.667.313-.608 1.004-.228 1.442-.864.249-1.729.496-2.592.747a493.336 493.336 0 00-15.915 4.927.956.956 0 00-.675.825c-.996.192-1.998.35-3.005.462-.435.049-.808.301-.939.702-5.634.65-11.232 1.845-16.878 2.416-.162-.445-.605-.79-1.177-.639a23.033 23.033 0 01-12.324-.169.903.903 0 00-.648.049c-.094-.028-.189-.048-.283-.076-.992-.296-1.627.961-.973 1.67 1.216 1.319 3.04 1.438 4.48 2.38 1.451.95 2.533 2.336 4.284 2.779a.95.95 0 00.99-.303 40.473 40.473 0 0110.966-3.964c.343-.071.543-.27.642-.512 7.207-1.111 14.387-2.573 21.704-1.909.691.063.993-.487.94-1.027 2.56.413 5.154.455 7.734.17l.84.132c.3.212.613.255 1.012.167a.801.801 0 00.181-.071c.178.282.493.457.85.502l6.058.752a641.445 641.445 0 0010.324 3.295c.548.17.943-.121 1.115-.524 6.975-3.863 15.017-8.025 23.086-5.009 1.121.419 1.632-1.203.743-1.797" fill="#594A41"/><path d="M350.616 375.414c-7.442-2.09-15.415-1.375-22.39 1.936a.863.863 0 00-.387.357 95.057 95.057 0 00-14.02-1.838 12.283 12.283 0 012.913-2.134c.195.117.436.16.726.055a20.573 20.573 0 015.101-1.147c1.262-.112 1.303-2.054 0-2a41.324 41.324 0 00-8.769 1.327c-1.89.378-3.752.868-5.585 1.475a34.159 34.159 0 00-5.539 1.625c-.41.161-.608.5-.654.853-.965.06-1.93.132-2.896.225 5.55-3.866 12.062-6.172 18.835-6.53a.96.96 0 00.555-.218c.271-.009.541-.035.811-.04 1.286-.026 1.29-2.026 0-2-7.663.153-15.205 1.851-22.193 4.924-2.716.415-5.257 1.703-7.236 3.604a.894.894 0 00-.292.733 85.788 85.788 0 00-26.589 7.28c-1.169.534-.154 2.258 1.01 1.726 9.745-4.457 20.301-6.954 31.001-7.41.156.2.4.327.752.28a94.735 94.735 0 0111.267-.806c.044.053.077.108.14.157.72.566 1.48.757 2.29.83.159.158.37.276.653.297a42 42 0 0111.876 2.61c1.214.458 2.36.944 3.67 1.034.484.033.817-.305.933-.71a.985.985 0 00.539-.126c.27-.153.506-.205.814-.2.537.007.838-.34.925-.747.306-.177.61-.357.92-.527.161-.056.323-.104.483-.16.212-.075.355-.2.467-.342a49.334 49.334 0 013.803-1.806c.978-.112 1.947-.283 2.893-.572.49-.15.692-.549.69-.95a30.059 30.059 0 0111.951.863c1.241.348 1.771-1.58.532-1.928" fill="#3B2314"/><path d="M320.946 400.407a1.041 1.041 0 00-.038.104c.014-.032.025-.065.04-.097a.019.019 0 01-.002-.007" fill="#E4C3A2"/><path d="M351.34 379.886c-.46-1.724-1.84-3.159-4.16-3.152-3.306.01-6.764.06-9.95 1.053a20.54 20.54 0 00-1.533.554 5.9 5.9 0 00-1.93.513c-1.309.591-2.47 1.412-3.51 2.371-.43.271-.858.546-1.283.823a5.101 5.101 0 00-.406.295 24.608 24.608 0 00-2.29 1.706 179.66 179.66 0 00-8.852-2.383c-3.056-.735-6.025-1.683-8.982-1.632-6.333-1.424-12.868-1.33-19.382-.579-6.274.724-13.54 1.115-19.183 4.337-1.149.377-2.226.892-3.192 1.583-.819.381-1.6.808-2.31 1.314a89.79 89.79 0 00-6.009-2.459c-1.767-1.48-3.515-2.99-5.424-4.27-4.51-3.02-9.13-5.89-13.695-8.829-.935-.6-1.857-.8-2.702-.71-5.65-3.165-11.933-4.76-18.764-5.578-6.539-.783-13.857.536-17.644 5.721-.52.18-1.033.46-1.52.868-4.727 3.956-4.798 10.385-2.619 15.693.33.801.694 1.653 1.095 2.503.001.671.154 1.376.513 2.095 2.165 4.34 7.365 6.05 11.841 6.927 1.152.225 2.367.478 3.61.728 2.152.683 4.343 1.192 6.556 1.611.313.17.66.313 1.048.42 11.083 3.035 22.684 4.232 34.031 5.894 6.634 2.463 14.49 3.562 22.017 3.556.49.37 1.104.645 1.884.768 5.584.881 10.653 1.16 16.268.51.155-.018.31-.032.464-.048a51.909 51.909 0 004.402-.162c.355-.029.685-.096.997-.186 2.933-.177 5.843-.499 8.54-1.75a14.527 14.527 0 003.606-2.399c.63-.38 1.246-.8 1.835-1.306 3.224-2.772 4.646-7.362 2.511-11.209-.617-1.112-1.479-1.742-2.41-2.024.527.052 1.053.116 1.58.187.598 1.401 1.816 2.534 3.303 2.82.231.777.463 1.555.693 2.334.177.6.286 1.263.512 1.843.025.064.036.115.05.17.024-.065.048-.129.09-.209-.036.07-.055.144-.089.215.123.497-.174.55-.04.098-.65 1.487-.526 3.185.328 4.482a2.387 2.387 0 00-.357 1.326c.012.731.683 1.607 1.5 1.5a35.248 35.248 0 0012.11-3.9 20.458 20.458 0 005.504-3.026c3.158-1.175 5.982-3.689 7.866-6.542a6.29 6.29 0 002.02-2.859c.041-.122.052-.252.05-.384 1.327-2.622 1.87-5.45 2.272-8.545.128-.989-.237-1.919-.86-2.677" fill="#E4C3A2"/><path d="M253.108 406.785c-.104-.012-.21-.02-.313-.032.05-.035.105-.064.155-.1.325-.233.579-.497.689-.896.099-.359.054-.837-.151-1.156-.206-.32-.514-.602-.896-.689-.373-.084-.833-.08-1.156.152a18.353 18.353 0 01-3.412 1.935l-.007.005c.152-.856-.303-1.767-1.391-1.629-.286.036-.571.05-.856.077-.24-.477-.691-.85-1.297-.85-1.248 0-2.366.287-3.49.817-.434.204-.643.525-.714.874a1.476 1.476 0 00-.396.212c-4.274-.36-8.552-.662-12.833-.916.023-.663-.452-1.356-1.102-1.504-.825-.187-1.583.25-1.845 1.049-.676 2.06-.5 4.379.359 6.387-.094.264-.11.552-.003.835.05.132.11.26.169.387a1.49 1.49 0 00.154.992c1.435 2.656 4.338 2.584 6.839 1.794 2.883.34 5.767.339 8.75-.26 2.405-.481 4.746-1.223 7.076-1.98 2.218-.72 4.449-1.445 6.428-2.708 1.33-.85.684-2.637-.757-2.796" fill="#E4C3A2"/><path d="M315.428 396.152c-.063 4.108-2.271 8.084-5.701 10.352-1.948 1.288-4.106 1.786-6.367 2.237l-5.752 1.145a1.44 1.44 0 00-.815-.23 159.622 159.622 0 01-35.731-3.73c-.005-.001-.009-.004-.014-.006-5.591-2.165-11.655-1.857-17.509-2.62-6.192-.806-12.216-2.58-18.197-4.317a1.527 1.527 0 00-.549-.057c-7.129-2.898-14.44-6.753-17.842-13.995-1.597-3.4-1.893-7.431-.522-10.958 1.527-3.928 5.126-6.105 9.041-7.154 1.862-.5 1.072-3.395-.798-2.893-1.809.485-3.571 1.182-5.165 2.139-.244-.184-.536-.288-.843-.248-2.493.33-4.985.87-7.183 2.149-2.164 1.259-3.633 3.143-4.508 5.44a1.17 1.17 0 00-.514.35c-2.106 2.549-2.311 5.959-1.287 9.019.148.444.319.879.503 1.309.07.447.161.889.273 1.324.117 2.775.937 5.473 2.443 7.814.181.282.405.472.646.587.131.359.373.656.676.849.003.458.224.91.734 1.199a19.778 19.778 0 003.383 1.513c.025.01.045.026.07.037.149.066.292.093.434.119.738.228 1.488.412 2.248.552.053.046.096.098.153.138 2.159 1.509 4.777 1.922 7.348 2.172a30.132 30.132 0 009.459 1.907 1.37 1.37 0 00.885-.3c.534.213 1.067.427 1.601.634.411.159.765.126 1.051-.021 5.143 1.475 10.319 2.855 15.628 3.582 5.492.753 11.195.495 16.497 2.248.16.13.36.233.611.288.167.037.334.068.501.105.129.044.252.068.37.077a163.531 163.531 0 0033.015 3.732c.305.526.881.9 1.637.75 3.202-.637 6.408-1.261 9.609-1.915 2.559-.522 4.957-1.344 7.062-2.927 3.892-2.925 6.344-7.508 6.42-12.396.028-1.931-2.972-1.932-3.001 0" fill="#C3996B"/><path d="M314.19 389.827c-2.738-.958-5.52-1.875-8.436-2.063-2.83-.18-5.46.666-8.152 1.381-3.96.421-7.95.512-11.934.523a1.39 1.39 0 00-.821-.206c-2.698.11-5.372-.142-7.99-.808a27.885 27.885 0 01-3.797-1.251 24.714 24.714 0 01-1.74-.808c-.274-.14-.551-.279-.817-.433a4.474 4.474 0 01-.437-.27l-.03-.034c-.098-.795-.676-1.271-1.47-1.366a3.068 3.068 0 00-1.556.232c-1.215-.03-2.043 1.927-.753 2.865 2.269 1.647 4.582 3.272 7.273 4.156 1.375.45 2.803.677 4.244.793.106.279.324.529.696.697 2.622 1.186 5.387 1.065 8.196.828a68.543 68.543 0 009.135-1.387 37.885 37.885 0 002.26-.594 71.45 71.45 0 003.672-.478c.507-.08.815-.346.969-.685.559-.09 1.12-.16 1.683-.178 3.112-.101 6.113.968 9.008 1.98 1.826.637 2.61-2.26.798-2.894m37.774-10.437c-.07-.347-.226-.602-.429-.777.05-.148.084-.298.086-.447.01-.838-.633-1.358-1.386-1.479a1.25 1.25 0 00-.628-.134c-.136.008-.27.025-.405.037-7.026-.534-14.148 1.235-20.126 4.973-.479.038-.942.273-1.174.71-.039.074-.045.156-.073.234-.249.46-.26 1.062.001 1.509.181.309.448.497.746.601.03.08.063.158.11.23.216.335.511.569.896.689l1.925.599 2.461 1.454c.353.208.794.243 1.19.13.702.173 1.697-.258 1.812-1.053.327-2.272 2.763-3.38 4.612-4.342 2.35-1.224 4.82-2.419 7.48-2.709-.029.177-.033.367.01.573 1.337 6.639-2.443 13.233-7.468 17.325-5.77 4.697-13.249 6.691-20.322 8.478-1.87.471-1.078 3.366.798 2.892 7.838-1.979 16.014-4.313 22.233-9.746 5.564-4.861 9.15-12.306 7.651-19.747m-99.504 28.813c-4.803-.017-9.378-.26-14.033-1.52-4.508-1.219-9.2-1.319-13.705-2.507-1.869-.494-2.666 2.399-.798 2.892 4.651 1.229 9.487 1.369 14.145 2.628 4.742 1.281 9.501 1.49 14.391 1.508 1.931.007 1.934-2.993 0-3" fill="#C3996B"/><path d="M217.12 339.312c-1.18 1.953-1.568 4.256-2.094 6.445l-1.798 7.485-.849 3.534c-.27 1.125-.726 2.335-.78 3.495-.11 2.363 2.333 2.664 4.108 2.248 1.253-.294.723-2.223-.53-1.93-.37.088-1.416.449-1.597-.142-.093-.305.21-.982.278-1.27l.7-2.91 1.297-5.404 1.3-5.406c.421-1.755.747-3.572 1.692-5.135.667-1.106-1.06-2.112-1.727-1.01" fill="#1C75BB"/><path d="M212.935 309.73c-5.4-2.934-6.01-9.306-11.24-12.743-.997-.655-2.537-.646-3.534 0-2.899 1.874-5.865 3.49-9.06 4.803-1.117.458-2.349.856-3.465 1.429a3.787 3.787 0 00-.578-.803c-3.095-3.28-6.158-6.592-9.287-9.838-2.78-2.885-6.148-4.95-9.01-7.706-.01-.01-.02-.015-.029-.024a21.6 21.6 0 0010.271-1.373c.421.142.908.164 1.454 0 1.69-.506 3.341-1.15 4.46-2.577 1.131-1.445 1.505-3.426.633-5.101-.329-.631-.795-1.136-1.33-1.56a9.19 9.19 0 002.217-.641c2.782-1.237 4.286-5.2 1.818-7.495 1.662-.482 2.564-2.945 1.092-4.183-1.282-1.078-2.643-2.025-4.15-2.752a21.622 21.622 0 003.85-2.603c1.154-.974.893-3.288-.506-3.927a145.324 145.324 0 00-4.325-1.887c-1.868-1.306-4.05-2.35-6.019-3.21a39.895 39.895 0 00-6.215-2.132c.286-.263.525-.607.678-1.053 1.691-4.961 4.214-10.233 3.327-15.59-.774-4.677-4.02-8.55-7.218-11.846-1.268-1.31-2.947-.747-3.764.407-.35.303-.614.697-.704 1.17-.546 2.892-.567 5.784-.44 8.715.117 2.756.36 5.592-.07 8.333-.42 2.676-1.308 5.267-1.77 7.943-.135.784-.257 1.572-.385 2.358-1.294 2.802-2.797 5.528-4.146 8.25-.466.94-.482 1.849-.225 2.646-3.637 5.908-7.727 11.562-9.734 18.358-.324 1.098-.129 2.034.36 2.753-.29 4.64 2.448 9.074 4.841 13.387 1.661 2.995 3.252 5.976 5.717 8.398 2.177 2.138 4.727 3.77 6.541 6.177.112.212.242.42.404.623l.144.179c.133.21.275.412.396.635.3.548.675.948 1.091 1.227l8.32 10.415c2.66 3.328 5.554 8.668 9.465 10.637 3.522 1.772 7.347-.181 10.681-1.556.418-.173.823-.366 1.237-.546 6.721-1.023 14.474-4.69 17.384-10.993a4.05 4.05 0 00.994-.914c1.808-1.372 2.4-4.393-.17-5.79" fill="#E4C3A2"/><path d="M191.626 300.938c-.554-.554-1.574-.602-2.122 0a33.61 33.61 0 00-2.753 3.47c-.309-.725-1.223-1.08-1.947-.84.076-.32.03-.682-.214-1.05-1.97-2.976-4.314-5.661-7.03-7.977a1.573 1.573 0 00-.508-.292 58.403 58.403 0 00-3.58-3.631 61.798 61.798 0 00-7.685-6.063c-.04-.027-.084-.053-.125-.08 3.934.47 8.597.446 12.213-1.01 1.295-.065 2.476-.572 3.441-1.348.1.054.203.1.315.127.368.084.84.086 1.156-.151.564-.421 1.055-.902 1.384-1.535.338-.646.506-1.3.571-2.023.116-1.288-.37-2.622-1.265-3.55-.485-.501-1.353-.574-1.92-.171-.495.242-.77.725-.845 1.322-.255 2.085-1.787 3.484-3.597 4.35-.358.023-.64.158-.844.363-.747.28-1.512.484-2.235.61-3.59.639-7.468.303-11.01-.433-.803-.167-1.407.263-1.693.84a59.552 59.552 0 00-1.73-.917 59.08 59.08 0 00-1.102-.541c-.129-.062-.259-.122-.389-.183a1.726 1.726 0 00-.135-.365c-.787-1.538-3.176-1.12-3.288.64-.025.394.072.719.231 1.007-.259.619-.149 1.37.61 1.79 12.003 6.646 20.77 17.72 26.546 29.995.361.768 1.26.88 1.94.556.77.127 1.423-.361 1.686-1.075 1.297-3.508 3.383-6.924 5.924-9.714.545-.6.591-1.53 0-2.121m20.551 8.141l-4.824-5.742c-1.028-1.223-2.809.113-2.508 1.46.691 3.086 1.299 6.176.337 9.273-.798 2.57-2.442 4.804-4.394 6.624-4.442 4.141-10.548 5.835-16.237 7.481-1.851.535-1.063 3.431.798 2.892 4.688-1.355 9.543-2.822 13.723-5.387.366.467.976.754 1.574.545 3.892-1.362 7.416-3.685 10.128-6.8.3-.347.46-.817.416-1.26.642.176 1.412-.023 1.733-.66a7.428 7.428 0 00.737-2.406c.283-.376.511-.787.642-1.25.55-1.957-.98-3.41-2.125-4.77m-46.697-93.001c-.67-.48-1.324-.28-1.736.189-1.641-.983-3.132 1.592-1.495 2.6a16.3 16.3 0 015.016 4.882c1.207 2.432 2.13 4.992 2.606 7.69.227 3.819-.99 7.636-3.272 10.723-1.012 1.368.867 2.553 2.052 2.053 3.404-1.438 4.437-5.267 4.513-8.817 1.305-7.21-1.591-14.945-7.684-19.32m21.3 51.762a1.434 1.434 0 00-.488-.497c-.253-.463-.712-.79-1.29-.79-.773 0-1.553.687-1.5 1.5.005.093.011.184.01.278 0 .004-.016.158-.019.223-.01.047-.024.103-.027.115-.02.082-.049.163-.077.244-.007-.009-.134.257-.174.322a6.474 6.474 0 00-.13.185c-.035.04-.087.101-.097.11a4.195 4.195 0 01-.44.414.728.728 0 01-.058.04c-.1.064-.199.13-.302.191a5.56 5.56 0 01-.252.138c-.04.02-.116.055-.155.073-.182.07-.368.131-.557.18-.092.021-.185.04-.278.06a.275.275 0 00-.03.007l-.012.001c-.278.014-.55.033-.829.025-.513-.015-.878-.078-1.42-.215-1.029-.256-2.05-.67-2.983-1.072-.744-.32-1.608-.22-2.052.538-.37.633-.21 1.731.538 2.053 2.51 1.08 5.374 2.283 8.14 1.417.196-.062.388-.149.581-.23.108.023.217.043.331.043h.791c.207.007.4-.036.578-.129.186-.06.347-.164.483-.31a1.29 1.29 0 00.14-.167 1.39 1.39 0 00.283-.13c.116-.073.252-.173.346-.27.175-.183.312-.422.386-.674.01-.008.02-.014.028-.022.357-.343.572-.752.745-1.207.043-.11.074-.224.095-.34.04-.234.083-.48.072-.72a3.065 3.065 0 00-.378-1.385m.529-5.332c-.204-1.818-1.548-2.919-3.002-3.84-.685-.433-1.654-.142-2.052.54-.423.721-.149 1.616.538 2.051.488.31.802.49 1.158.851.222.225.195.188.332.455-.088-.17-.014.023.027.132a.791.791 0 00.028.102c-.004.068-.005.1-.004.121l-.008.035a1.228 1.228 0 00-.066.045c-.038.023-.077.043-.117.064-.02 0-.26.087-.27.09a11.31 11.31 0 01-1.259.249c-2.305.32-4.72-.016-6.972-.889-.755-.294-1.646.322-1.845 1.047-.233.848.29 1.551 1.048 1.845 3.028 1.175 6.592 1.494 9.753.66 1.66-.439 2.913-1.758 2.711-3.558m.148-7.929c-.024-.21-.04-.453-.117-.658-.15-.408-.347-.806-.684-1.096a1.13 1.13 0 00-.483-.31 1.13 1.13 0 00-.578-.13 1.13 1.13 0 00-.578.13 1.13 1.13 0 00-.483.31 1.634 1.634 0 00-.419.815 1.962 1.962 0 00-.164.207c-1.337 1.017-2.637 1.66-4.174 2.066-.86.227-1.376.309-2.156.355a12.413 12.413 0 01-1.94-.033l-.274-.03c-.027-.003-.065-.01-.13-.02-.773-.12-1.652.197-1.845 1.048-.164.717.218 1.717 1.047 1.846 3.516.545 7.167-.142 10.156-2.072.126.08.26.148.404.195.2.063.4.07.598.027.2-.01.385-.068.558-.178.37-.223.69-.54.905-.915.054-.095.093-.2.135-.3.042-.1.09-.2.122-.304.065-.212.085-.444.106-.662a1.418 1.418 0 00-.006-.291" fill="#C3996B"/><path d="M389.04 274.557c-2.007-6.796-6.097-12.449-9.733-18.358.256-.797.241-1.706-.225-2.646-1.35-2.723-2.853-5.448-4.146-8.25-.128-.786-.25-1.573-.386-2.358-.46-2.676-1.349-5.267-1.769-7.943-.429-2.741-.188-5.577-.07-8.334.126-2.93.105-5.822-.44-8.715-.09-.472-.354-.866-.706-1.168-.816-1.155-2.495-1.717-3.763-.409-3.199 3.298-6.444 7.17-7.218 11.847-.887 5.356 1.637 10.629 3.327 15.59.152.447.392.79.678 1.053a39.995 39.995 0 00-6.215 2.131c-1.969.862-4.15 1.905-6.02 3.21a146.466 146.466 0 00-4.324 1.889c-1.399.639-1.66 2.952-.506 3.927a21.683 21.683 0 003.851 2.601c-1.508.728-2.869 1.675-4.15 2.753-1.473 1.238-.57 3.701 1.091 4.183a3.8 3.8 0 00-1.179 2.167c.23.007.465.044.685.081a.435.435 0 01.085.022c.082.031.407.168.487.206l.026.012.012.009c.02.014.396.304.412.318l.012.013c.127.128.244.273.33.432.165.295.157.32.208.496.003.009.073.528.074.54l.001.008a2.366 2.366 0 01-.08.587 4.51 4.51 0 01-.117.275c-.022.056-.069.17-.094.223a4.203 4.203 0 01-.406.535c-.1.114-.218.215-.332.318a5.078 5.078 0 001.694 1.253 9.158 9.158 0 002.218.642c-.536.423-1 .928-1.33 1.559-.873 1.676-.499 3.656.632 5.101 1.118 1.429 2.772 2.072 4.46 2.578.546.164 1.033.141 1.453-.001 3.243 1.275 6.81 1.764 10.272 1.373l-.028.024c-2.864 2.756-6.229 4.821-9.01 7.705-3.13 3.247-6.193 6.56-9.287 9.839-.245.259-.43.529-.578.803-1.117-.573-2.349-.972-3.465-1.43-3.196-1.311-6.16-2.928-9.06-4.802-.997-.645-2.537-.656-3.533 0-5.23 3.437-5.84 9.81-11.24 12.744-.785.426-1.27 1.002-1.522 1.636.57.17 1.068.585 1.295 1.309.486 1.545 2.19 2.954 3.537 3.985 1.721 1.316 3.578 2.444 5.38 3.645 1.952 1.3 3.78 2.709 5.888 3.771 2.343 1.18 4.817 2.073 7.238 3.077.387.16.725.394.982.683 2.474.246 4.877 1.375 7.375.787.858-.202 1.681-.524 2.478-.914 2.69-2.49 4.885-6.25 6.937-8.818l8.321-10.415a3.41 3.41 0 001.09-1.228c.122-.222.263-.423.397-.633l.143-.179c.162-.203.293-.412.404-.624 1.814-2.406 4.364-4.039 6.541-6.177 2.466-2.422 4.057-5.403 5.718-8.397 2.391-4.313 5.131-8.748 4.841-13.388.488-.719.683-1.655.36-2.753" fill="#E4C3A2"/><path d="M369.092 215.537c.67-.48 1.324-.28 1.736.19 1.641-.985 3.132 1.59 1.495 2.6a16.286 16.286 0 00-5.016 4.88c-1.207 2.432-2.13 4.992-2.606 7.69-.226 3.82.99 7.636 3.273 10.724 1.011 1.367-.868 2.552-2.053 2.052-3.404-1.437-4.437-5.267-4.513-8.817-1.305-7.208 1.59-14.945 7.684-19.319m-25.189 39.445c.03-.21.052-.452.145-.657.185-.41.428-.806.845-1.096.168-.146.366-.25.596-.31.22-.094.458-.137.714-.13a1.68 1.68 0 01.713.13c.229.06.428.164.595.31.256.227.454.509.518.815.072.064.14.133.202.207a15.698 15.698 0 005.153 2.065c1.062.227 1.699.31 2.662.356a18.902 18.902 0 002.733-.063l.16-.02c.954-.12 2.039.197 2.278 1.048.203.717-.27 1.717-1.293 1.845-4.34.546-8.846-.142-12.537-2.072-.156.08-.32.149-.5.196a1.704 1.704 0 01-.737.026 1.603 1.603 0 01-.688-.177c-.456-.223-.853-.54-1.118-.915-.067-.096-.114-.2-.167-.3-.051-.1-.11-.2-.15-.304-.081-.212-.105-.445-.131-.663a1.136 1.136 0 01.007-.291" fill="#C3996B"/><path d="M379.37 297.153a1.129 1.129 0 00-.27-.51 1.13 1.13 0 00-.42-.386l-.359-.152a1.539 1.539 0 00-.797 0l-.358.152a1.5 1.5 0 00-.538.538l-.569.945a1.114 1.114 0 00-.177.559 1.14 1.14 0 00.026.593 1.651 1.651 0 00-.42.025c-.576-.07-1.127.237-1.489.73a186.11 186.11 0 01-6.318 8.142 1.433 1.433 0 00-1.249.407 70.642 70.642 0 00-7.985 9.767c-.44.65-.144 1.69.538 2.05.76.403 1.581.158 2.053-.537a64.098 64.098 0 012.127-2.931c.44.125.933.029 1.343-.43a196.933 196.933 0 009.485-11.488c.3.113.63.156.94.055.382-.124.671-.35.895-.688a10.935 10.935 0 001.431-3.22 1.594 1.594 0 00-.008-.791c.167.013.335.006.503-.04l.358-.15c.226-.133.404-.313.538-.538l.568-.946c.11-.173.17-.358.178-.557.044-.2.035-.4-.027-.6m-17.889-4.234c-.43-.733-1.327-.906-2.053-.538-1.91.97-3.83 1.945-5.576 3.196-1.63 1.167-3.031 2.53-4.278 4.08-5.9-5.707-14.057-8.277-20.057-13.862-.417-.388-.893-.472-1.325-.37.053-.559-.167-1.117-.687-1.42-.678-.399-1.67-.18-2.051.537a90.41 90.41 0 00-4.968 11.091c-.043.115-.06.234-.065.353-1.311 1.93-2.55 3.891-3.548 6.023a1.703 1.703 0 00-.071 1.29c-.61.62-.757 1.787.188 2.426.35.24.685.498 1.01.767-.098.484-.004 1.012.358 1.382l2.982 3.038c.975.994 3.044 0 2.517-1.424 1.104.14 2.275-1.087 1.579-2.158.452-.316.73-.838.559-1.432.127-.129.233-.279.315-.444.969.166 2.174-.652 1.849-1.74.314-.2.545-.517.596-.933.213-.143.39-.332.507-.556.509.027 1.026-.255 1.339-.704 1.19.487 2.735-.679 1.899-2.068-.116-.19-.228-.385-.342-.576.55.375 1.234.637 1.906.601.397-.022.773-.153 1.06-.44.26-.26.457-.686.44-1.06-.018-.388-.145-.79-.44-1.06a1.626 1.626 0 00-.822-.422 1.349 1.349 0 00-.004-.593c-.018-.07-.045-.137-.066-.208a65.691 65.691 0 003.242 2.176 64.027 64.027 0 005.685 3.157c1.88.923 4.019 2.201 6.183 2.015a1.64 1.64 0 001.163-.625c.482-.03.925-.318 1.244-.736.435-.575 1.176-1.392 1.798-1.989a16.638 16.638 0 012.11-1.73c1.669-1.155 3.48-2.075 5.286-2.99.722-.368.93-1.384.538-2.054m9.34-11.588c-.625-.627-1.484-.508-2.12 0-.678.54-1.77.505-2.583.522-1.331.03-2.663.036-3.995.053-1.25.017-2.557.144-3.802 0-.532-.06-1.608-.298-1.657-1-.056-.807-.65-1.5-1.5-1.5-.77 0-1.556.688-1.5 1.5.113 1.644 1.137 2.934 2.649 3.557 1.549.64 3.302.476 4.94.455 1.698-.023 3.397-.022 5.094-.069 1.66-.048 3.155-.344 4.475-1.398.634-.505.528-1.594 0-2.12m-3.137-37.815c-4.62.38-9.161 1.407-13.458 3.162a46.01 46.01 0 00-6.044 2.974c-1.672.988-4.616 2.229-4.201 4.556.295 1.655 2.528 1.255 2.874-.128.03-.024.05-.03.09-.067a44.577 44.577 0 011.928-1.272 42.912 42.912 0 012.332-1.351 40.91 40.91 0 015.254-2.377 42.57 42.57 0 0111.225-2.497c1.91-.156 1.928-3.158 0-3m-16.206 22.488l-.001-.002-.01-.013-.01-.012-.12-.165a10.88 10.88 0 01-.273-.4 8.392 8.392 0 01-.48-.84c-.02-.04-.06-.107-.082-.165l-.008-.027a5.343 5.343 0 01-.275-.917l-.031-.148a1.175 1.175 0 00-.005-.069c-.01-.136.003-.269.006-.403.022-.033.05-.062.068-.097a1.57 1.57 0 00.17-1.047 4.07 4.07 0 01.173-.3l.032-.046.049-.059c.105-.116.219-.222.338-.322.603-.508.563-1.605 0-2.12a1.518 1.518 0 00-1.012-.42 1.396 1.396 0 00-.592-.334c-.384-.087-.816-.069-1.156.151l-.303.234a1.495 1.495 0 00-.386.663c-.073.206-.13.417-.168.631a6.542 6.542 0 00-.111.985c-.005.24.014.485.043.727a5.606 5.606 0 00-.151 1.757c.146 1.86 1.027 3.431 2.164 4.864.49.62 1.616.55 2.12 0 .599-.65.524-1.45.01-2.106" fill="#E4C3A2"/><path d="M351.477 266.001v.002l.004.002-.004-.004m4.505 7.904a10.105 10.105 0 00-2.041-.888 1.133 1.133 0 00-.487-.431c-.483-.22-.94-.313-1.45-.252-.035-.486-.288-.956-.728-1.19-.724-.382-1.625-.182-2.053.539-.438.739-.81 1.516-.841 2.39-.026.754.289 1.489.806 2.029l.037.279c.07.253.2.474.386.66l.304.236c.234.135.486.203.756.204h.379c.206.008.4-.035.578-.13.186-.06.347-.163.483-.31.146-.135.25-.295.31-.482.04-.078.069-.161.09-.244.193-.133.379-.277.55-.44.052.015.105.026.155.043a9.12 9.12 0 01.4.148l-.087-.043c.057.028.117.05.175.077.26.119.515.252.764.396.68.39 1.672.18 2.052-.54.378-.713.19-1.634-.538-2.051m-2.366 2.161c.162.077.083.035 0 0" fill="#E4C3A2"/><path d="M348.347 254.953a1.477 1.477 0 00-.386-.662 11.447 11.447 0 01-1.724-1.678 1.123 1.123 0 00-.483-.31 1.124 1.124 0 00-.578-.13 1.129 1.129 0 00-.578.13c-.186.06-.347.164-.482.31-.263.286-.457.66-.44 1.06l.054.399c.07.255.2.475.386.662a11.447 11.447 0 001.724 1.678c.136.146.297.25.484.31.178.094.37.137.577.129.207.008.399-.035.578-.128.186-.061.347-.165.482-.311.263-.285.458-.66.44-1.061l-.054-.398m10.067 12.441c-1.384.077-2.804.18-4.184-.012-1.133-.157-1.994-.486-2.928-1.101-.197-.13-.018-.001-.123-.09a6.181 6.181 0 01-.285-.251 3.475 3.475 0 01-.456-.497c-.358-.536-.464-.795-.614-1.445a15.145 15.145 0 01-.263-1.644c-.075-.666-.102-1.323.046-1.873.212-.781-.263-1.63-1.047-1.845-.782-.215-1.632.262-1.845 1.047-.436 1.609-.154 3.424.197 5.025a6.532 6.532 0 002.324 3.748c2.636 2.09 5.972 2.116 9.178 1.938.81-.045 1.5-.656 1.5-1.5 0-.777-.688-1.545-1.5-1.5m-7.514 5.946c.014-.037.017-.093.014-.122l-.012.053-.001.068" fill="#C3996B"/><path d="M379.726 276.46c-3.665 3.193-8.238 5.272-13.05 5.974-3.6.525-9.718.827-11.5-3.197a1.375 1.375 0 00-.41-.54c1.17.142 2.337.202 3.507-.076.764-.182 1.29-1.093 1.047-1.845-.257-.796-1.027-1.242-1.845-1.047a8.189 8.189 0 01-.34.07c-.033 0-.261.024-.275.024-.27.016-.54.012-.81 0-.27-.014-.541-.039-.811-.069a33.119 33.119 0 01-.441-.053l-.244-.035a15.25 15.25 0 01-1.304-.24 7.775 7.775 0 01-.662-.19c-.081-.027-.161-.058-.242-.088.096.033-.157-.07-.197-.09-.2-.102-.38-.227-.57-.342l-.083-.074a3.09 3.09 0 01-.182-.18c-.032-.035-.063-.072-.093-.107-.043-.072-.09-.159-.1-.176-.023-.043-.064-.144-.103-.215a3.472 3.472 0 01-.032-.094c-.026-.082-.044-.166-.067-.249-.004-.015-.005-.022-.01-.034 0-.073-.01-.148-.01-.22l.002-.028c-.006.016-.013.028-.023.032l.024-.1c.004-.082.01-.084.012-.053l.028-.132c.003-.01.002-.013.003-.022l.069-.13a.948.948 0 00.103-.09c.566-.544.588-1.58 0-2.12-.61-.56-1.517-.582-2.121 0-.995.953-1.25 2.334-.981 3.644.264 1.28 1.116 2.34 2.193 3.035 1.016.657 2.225.953 3.409 1.134-.801.27-1.48 1.201-1.031 2.215 2.206 4.98 9.054 5.29 13.68 4.737a28.8 28.8 0 0015.58-6.908c1.46-1.27-.67-3.385-2.12-2.12m-15.452 9.739c-3.362 2.216-6.23 4.959-8.827 7.962a1.803 1.803 0 00-.932.41 36.424 36.424 0 00-4.068 3.785c-.627-.155-1.417.059-1.69.676-.927 2.107-1.45 4.28-1.502 6.589-.035 1.577 1.998 1.92 2.796.757 4.448-6.484 9.065-13.194 15.738-17.587 1.605-1.058.104-3.656-1.515-2.591m-34.072 29.542c-3.343-3.185-4.133-7.841-4.104-12.27.032-4.774.333-9.814 1.608-14.428.03-.11.046-.213.055-.315.036-.082.065-.166.082-.257l.457-2.576c.118-.664-.078-1.337-.69-1.694-.543-.317-1.389-.266-1.817.234-2.05 2.4-2.633 5.498-4.12 8.21-1.486 2.71-3.419 5.176-4.239 8.203-.749 1.2-1.555 2.513-1.455 3.904.123 1.676 1.571 2.464 2.691 3.474a18.071 18.071 0 013.04 3.52c.85 1.302 1.478 2.755 2.903 3.538.451.248.957.216 1.38.015.59.917 1.27 1.784 2.087 2.563 1.398 1.332 3.522-.787 2.122-2.12" fill="#C3996B"/><path d="M312.923 332.301c-.66.083-1.33.088-1.998.021.413 4.511.831 9.022 1.227 13.535.427 4.853.692 9.912-.553 14.672-.699 2.676-1.979 4.942-3.75 6.733a10.539 10.539 0 01-.676 3.241c1.712-1.152 3.206-2.63 4.35-4.542 2.52-4.216 3.021-9.367 2.96-14.18-.082-6.297-.937-12.612-1.505-18.878l-.055-.602m-36.789-82.235a8.371 8.371 0 011.896-1.5 879.89 879.89 0 00-4.923-1.584c-.614-.195-1.28.333-1.266.965.068 3.226-2.477 6.407-5.806 6.614-1.735.109-3.372-.565-4.605-1.692-.039-.405-.293-.772-.713-.881-.043-.012-.085-.027-.128-.04a6.586 6.586 0 01-1.215-2.67c-.096-.473-.427-.69-.79-.712-.174-.141-.408-.248-.626-.238a1.056 1.056 0 00-.598.22c-.165-.127-.357-.216-.572-.2a69.58 69.58 0 00-6.67.83c.09.564.119 1.136.119 1.708.064.149.121.3.178.454l.203-.03c.259-.037.583-.1.943-.168l-.002-.178a64.985 64.985 0 015.229-.616c.072-.006.137-.032.204-.05.204 1.375 1.119 2.63 2.349 3.278 1.73 1.994 4.349 3.222 7.035 2.957 3.796-.375 6.828-3.567 7.372-7.246.797.254 1.591.519 2.386.779" fill="#231F20"/><g transform="translate(274 215.06)"><mask id="b" fill="#fff"><use xlink:href="#a"/></mask><path d="M113.276 64.55c-3.07 12.418-10.967 22.919-19.555 32.204-2.312 2.502-4.693 4.94-7.096 7.353-2.38 2.388-4.745 5.206-7.786 6.767-3.656 1.879-7.683.622-11.166-1.038-3.147-1.5-6.18-3.26-9.077-5.198-6.227-4.17-11.771-9.295-16.493-15.108 1.064-.993 1.67-2.39 2.306-3.67.095-.193.189-.385.285-.577.127.07.258.127.388.189.205-.615.459-1.224.758-1.84-.086-.046-.174-.088-.261-.137l1.56-3.15 3.123-6.304.54.495.043-.091c.004-.327.008-.652.01-.972.002-.508.197-.89.488-1.15l-.045-.041c-.04-.037-.085-.047-.126-.076l1.034-2.09c.059.068.127.13.21.185 7.126 4.625 14.224 9.294 21.377 13.876 1.43.917 2.41 1.009 3.71-.135 1.55-1.364 3.08-2.753 4.62-4.13 3.127-2.793 6.253-5.588 9.379-8.382-.03.082-.065.16-.094.243a13.69 13.69 0 012.143-.09c.04-.122.09-.24.129-.361 5.44-.625 10.777-2.337 13.892-7.218.695-1.088-1.035-2.092-1.727-1.01-2.382 3.732-6.46 5.344-10.662 6.037a9.495 9.495 0 01-.951.249 9.521 9.521 0 01-1.122.173 1.576 1.576 0 01-.922-.301c-.025.08-.05.16-.071.24-.414.033-.827.059-1.235.08-2.704.132-5.84.517-8.447-.38-1.89-.65-4.052-3.22-2.497-5.127 1.525.042 3.049.045 4.572-.028 1.283-.061 1.289-2.061 0-2a61.08 61.08 0 01-5.224.027 47.168 47.168 0 01-2.55-.156c-.424-.04-1.08-.093-1.362-.465-.334-.444-.133-1.294-.064-1.791a14.945 14.945 0 011.145-3.998 9.816 9.816 0 003.039.84 9.05 9.05 0 005.25-1.047c1.133-.611.124-2.338-1.01-1.726-1.958 1.059-4.357 1.047-6.373.165.037-.063.076-.124.114-.186a3.123 3.123 0 01-.307-.208c-.105-.053-.211-.104-.306-.174-.167-.124-.343-.248-.494-.394-.032-.031-.056-.068-.085-.102-.107-.065-.207-.14-.32-.196-.043-.022-.081-.055-.121-.084-.062.103-.125.204-.186.307a6.671 6.671 0 01-.723-.674c-1.898-2.12-2.19-5.5-.91-8.024.463.19.923.388 1.393.556 3.278 1.174 6.766 1.724 10.245 1.678 1.286-.018 1.29-2.018 0-2a27.663 27.663 0 01-9.881-1.666c-.265-.098-.527-.204-.79-.31a.916.916 0 00-.263-.782c-.35-.35-1.075-.424-1.414 0-.01.01-.016.024-.024.034a22.518 22.518 0 01-2.092-1.146c-.722-.45-1.305-.898-.914-1.802.298-.691.997-1.262 1.583-1.7 5.264-3.942 11.664-6.568 18.042-8.023 1.119-.254.813-1.806-.156-1.937a25.28 25.28 0 01-1.87-15.658.967.967 0 00-.205-.837 16.873 16.873 0 013.665-5.05c.83-.78 1.735-1.47 2.707-2.061.46-.28.95-.584 1.458-.772.945-.351 1.499-.215 1.847.779.402 1.155.303 2.687.293 3.897-.012 1.43-.12 2.86-.222 4.288-.19 2.648-.291 5.274-.03 7.92.482 4.866 1.865 9.565 3.824 14.033 2.087 4.759 4.95 8.985 7.737 13.345 3.114 4.87 5.943 10.692 3.88 16.533-.182.516.068.894.44 1.08m2.146-3.372c.575-4.568-1.138-9.186-3.445-13.144-2.948-5.057-6.45-9.677-8.854-15.053-2.338-5.23-3.853-10.906-3.904-16.657-.027-3.156.455-6.293.428-9.45-.018-2.103.108-5.733-2.518-6.342-2.432-.562-5.252 1.8-6.916 3.3-2.108 1.897-3.683 4.242-4.781 6.846-.211.5.015.88.38 1.064a27.542 27.542 0 001.956 15.723c-5.36 1.398-10.503 3.626-15.156 6.634-1.916 1.238-5.21 3.239-4.364 6.019.42 1.383 1.845 2.104 3.024 2.744.317.172.65.319.975.479-1.167 2.37-1.337 5.189-.32 7.679a8.583 8.583 0 002.788 3.602c-.364.806-.67 1.638-.908 2.489a17.77 17.77 0 00-.52 2.717c-.106.907-.134 1.88.394 2.673.869 1.304 2.57 1.424 4.045 1.489-.652 1.844.005 4.057 1.406 5.498 2.337 2.405 6.129 2.256 9.23 2.17l-6.544 5.85-4.251 3.799c-.622.556-1.443 1.726-2.346 1.415-.865-.3-1.742-1.131-2.514-1.632L53.426 68.574a.987.987 0 00-.365-.148c.747-1.43 1.554-2.87 2.102-4.366.163-.445.219-.861.206-1.256.26-.088.48-.29.546-.661.023-.13.05-.26.076-.39-.565-.662-1.141-1.314-1.632-2.031-.041.198-.087.395-.124.595-.066-.078-.13-.158-.2-.236-8.94-9.887-21.176-16.301-33.4-21.171-4.03-1.605-8.12-3.05-12.232-4.43-.032.063-.071.122-.105.184l-6.144-1.628c-1.245-.33-1.776 1.599-.531 1.929 2.807.744 5.615 1.487 8.422 2.232.078.02.143.008.214.012 7.236 2.484 14.373 5.243 21.182 8.743 5.165 2.655 10.144 5.732 14.645 9.413a64.092 64.092 0 016.26 5.836c.579.62 1.225 1.202.97 2.12-.26.947-.914 1.904-1.35 2.783-.8 1.618-1.601 3.235-2.403 4.852L44.32 81.542c-.834 1.683-1.62 3.402-2.513 5.054-.258.476-.552 1.025-.957 1.43-.505-.39-1.146-.022-1.371.539a1.335 1.335 0 01-.248-.035c-.017-.033-.017-.07-.038-.102l-.612-.926c-.02-.042-.05-.073-.075-.111l-1.553-2.347c-.228-.344-.655-.546-1.056-.47l-1.355-14.935c-.116-1.272-2.117-1.284-2 0l3.676 40.532c.61 6.707 1.237 13.413 1.826 20.12a88.77 88.77 0 01.33 5.239 28.88 28.88 0 011.997 1.483c0-.266.006-.532.002-.796-.081-6.298-.935-12.611-1.504-18.88l-2.71-29.874.555.84c.28 1.723 2.01 2.462 3.593 2.17A77.038 77.038 0 0055.7 105.06a75.283 75.283 0 009.62 5.839c3.296 1.675 6.967 3.307 10.754 2.872 3.563-.41 6.342-2.696 8.82-5.117a333.678 333.678 0 007.713-7.8c4.984-5.205 9.769-10.65 13.807-16.631 4.504-6.674 7.976-14.071 9.418-22.03.08-.448-.118-.8-.41-1.015" fill="#231F20" mask="url(#b)"/></g><g transform="translate(144 214.06)"><mask id="d" fill="#fff"><use xlink:href="#c"/></mask><path d="M206.84 170.596a12.7 12.7 0 01-.923 3.602c-.213.496-.148 1.072.36 1.369a.965.965 0 00.313.1 10.592 10.592 0 01-1.446 3.505c-1.223 1.887-2.95 3.426-4.686 4.83-3.627 2.933-7.786 5.259-12.162 6.866-3.779 1.388-7.717 2.22-11.713 2.537 1.246-3.182 1.255-6.82-.046-9.987l.18-.83c.177-.833-.61-1.335-1.24-1.22-3.236-4.967-9.426-7.49-15.233-6.68-4.188.584-8.036 2.5-12.134 3.469-4.467 1.055-9.076 1.26-13.63.722-.056-.007-.096.012-.147.013-4.829-1.581-9.222-4.007-13.437-6.761 13.423-6.133 28.532-8.34 43.162-6.463 3.413.438 6.79 1.13 10.113 2.02.064.03.114.072.192.09a58.233 58.233 0 0110.866 3.724c.49.227 1.076.14 1.368-.358.252-.431.134-1.142-.36-1.368a59.858 59.858 0 00-2.499-1.076 24.232 24.232 0 017.46-4.112.961.961 0 00.427-.064c.55-.208 1.108-.381 1.666-.55a24.751 24.751 0 012.285-.471c-.025-.03-.045-.065-.07-.095a25.412 25.412 0 0110.146-.041c.02.106.045.21.092.314.776 1.673 1.167 3.525 1.18 5.379-.09.012-.177.032-.27.042.077.495.138.994.185 1.494m-44.388 25.47c-1.297.288-2.604.555-3.918.8a35.608 35.608 0 019.674-12.466c.74-.608.061-1.635-.707-1.707-4.3-.408-8.39-2.12-11.724-4.835 2.777-.908 5.64-1.63 8.58-1.218 2.774.388 5.472 1.622 7.526 3.535a11.394 11.394 0 012.55 3.515c-.586 2.595-1.322 5.2-2.797 7.427-2.122 3.204-5.63 4.165-9.184 4.95m-6.112 1.179c-6 .955-12.108 1.21-18.044-.346-.778-.204-1.277.47-1.239 1.087a56.62 56.62 0 01-3.325-1.16c-.344-.131-.623-.056-.83.114l-45.055-7.083c-.03.025-.073.037-.107.06a89.826 89.826 0 01-7.275-1.894.917.917 0 00-.52-.007.817.817 0 01-.25-.1 1.153 1.153 0 01-.255-.133c-.023.05-.042.103-.064.154a139.632 139.632 0 00-3.94-.966c-5.543-1.265-12.735-2.03-18.09-4.99a1.052 1.052 0 00-.259-.277c-2.596-1.931-3.644-5.637-4.624-8.567-1.047-3.128-1.787-6.425-1.288-9.704l.004-.001c1.08-3.884 4.253-6.946 7.75-8.858 2.282-1.247 4.745-2.101 7.232-2.835 1.59-.47 3.465-1.204 5.278-1.441-.014.05-.023.1-.037.15 5.022.452 9.981 2.099 14.705 3.665 6.121 2.028 11.842 4.64 17.25 8.162 4.914 3.199 9.54 6.813 14.371 10.133 5.272 3.624 10.84 6.864 16.996 8.717a.872.872 0 00.84-.154c3.138.288 6.286.237 9.414-.202 2.966-.418 5.778-1.258 8.597-2.187a24.067 24.067 0 0011.644 5.776 36.896 36.896 0 00-8.809 12.339 1.015 1.015 0 00-.07.548M98.4 199.503c-.004-.021.002-.038-.002-.06-.644-2.96-2.814-5.34-5.275-6.73-.014-.008-.029-.013-.043-.02l17.153 2.696c-3.692 1.982-7.69 3.335-11.833 4.114m-15.488.562c-.255-.027-.44.06-.562.206-1.784-2.3-2.805-5.298-2.515-8.204.066-.67.195-1.32.378-1.945.17.045.343.084.514.13 0-.021.008-.045.008-.066a91.05 91.05 0 003.366.929c-.132.047-.26.105-.395.142a1.1 1.1 0 00.145.41c.15.393.612.718.993.554.063-.027.121-.063.183-.091 4.558.7 10.503 2.044 11.81 7.647-4.59.706-9.31.766-13.925.288m65.404-39.316c-.059-.003-.115-.018-.173-.022a168.606 168.606 0 0011.708-3.098c2.55-.775 5.801-1.804 7.342-4.07 3.394-1.528 7.242-2.062 10.878-2.674.113-.02.227-.034.34-.052 4.926-.021 9.827.967 14.383 2.82l.121.158c.125.124.273.209.442.257l1.325.442a.77.77 0 00.398.018.747.747 0 00.372-.12c.077-.041.13-.108.187-.17a31.19 31.19 0 0111.002 7.299 27.226 27.226 0 00-13.803.485c-4.046 1.006-7.863 2.935-11.065 5.713-.058.049-.08.105-.12.159a62.04 62.04 0 00-4.574-1.467c-.007-.002-.01-.007-.016-.01a80.333 80.333 0 00-10.036-2.3 96.932 96.932 0 0113.14-3.173c1.267-.213.73-2.14-.53-1.93a96.966 96.966 0 00-15.9 4.072.966.966 0 00-.559.485 82.085 82.085 0 00-31.267 2.422 81.288 81.288 0 00-12.064 4.428c-.337.154-.477.408-.5.678-3.075-2.083-6.075-4.303-9.094-6.473a81.378 81.378 0 0038.063-3.877m-78.22-61.38c-3.369 4.528-7.678 8.32-12.56 11.145-4.728 2.733-10.329 4.89-15.82 5.283-1.774.128-2.895-.414-4.05-1.714-1.152-1.294-2.235-2.655-3.348-3.983l-6.643-7.93c-4.437-5.295-8.903-10.566-13.306-15.89-4.076-4.93-8.032-10.078-10.79-15.875a1.019 1.019 0 00-.104-.35C.05 63.612 3.03 55.977 6.47 50.209c3.51-5.886 7.88-11.482 9.225-18.36a.992.992 0 000-.331 46.981 46.981 0 002.464-11.011c.508-5 .376-10.033.618-15.047.037-.76-.154-2.225.537-2.741.634-.473 1.736-.094 2.366.183 1.58.693 2.883 2.194 3.904 3.546 2.206 2.919 3.543 6.509 3.87 10.15.372 4.144-.486 8.294-2.679 11.846-.052.084-.065.164-.09.246l-.76 1.49c-.589-.091-1.179-.184-1.773-.25-1.278-.141-1.268 1.86 0 2 6.258.69 12.622 3.096 17.546 7.076.902.73 2.161 1.958 1.374 3.2-.59.937-1.912 1.33-2.95 1.438-1.515.154-3.04-.341-4.532-.543-1.577-.214-3.017-.151-4.489.48-1.179.509-.162 2.232 1.01 1.729 2.441-1.05 5.157.368 7.723.33 1.287.675 2.852 1.419 3.548 2.774.425.828.495 2.262-.448 2.778-.363.198-.806.248-1.254.252a3.342 3.342 0 00-.908-.08c-.076.003-.132.034-.199.05h-.033a137.29 137.29 0 01-9.019-.397c-1.284-.098-1.277 1.903 0 2 2.418.183 4.84.308 7.264.366.811.02 1.756.105 2.683.08.715.25 1.22.934 1.43 1.695.33 1.2-.252 2.324-1.219 3.045-2.788 2.08-6.459.534-9.273-.635-.499-.208-1.099.223-1.23.698-.158.576.198 1.02.7 1.23 2.091.87 4.312 1.688 6.536 1.69a.884.884 0 00.403.429c2.561 1.34 1.115 4.754-.688 6.016-2.468 1.727-6.086 2.432-9.016 2.856-3.393.492-6.323-.166-9.186-2.016-2.402-1.553-4.654-3.367-7.506-4.01-1.253-.283-1.788 1.645-.532 1.928 3.557.803 6.1 3.617 9.337 5.112.378.175.76.312 1.144.443a1.168 1.168 0 00-.368.054 6.01 6.01 0 012.265.389c-.016.242.075.492.33.705 5.717 4.77 12.153 9.24 15.633 16.035.264.514.753.58 1.164.407.032.7.726 1.353 1.447.84a83.36 83.36 0 0113.465-7.792c.06.14.125.28.171.428 1.17 1.422 2.415 2.789 3.621 4.174 3.136 3.6 6.165 7.353 9.505 10.769-.037.186-.089.366-.135.548.326.177.615.393.873.635-.087.062-.17.136-.242.233m139.253 62.914c-.058-.021-.118-.033-.178-.052a.975.975 0 00-.16-1.098 33.007 33.007 0 00-17.355-10.207 1.068 1.068 0 00-.42-.01c-7.476-2.507-15.683-2.82-23.332-.586-.46-.66-1.78-.478-1.833.568a3.12 3.12 0 01-.33 1.266c-.042.02-.085.036-.125.056-.356.177-.476.472-.46.767-1.835 2.024-5.969 2.768-8.043 3.369a170.25 170.25 0 01-14.077 3.422c-.468.093-.686.418-.715.776-10.48 2.892-21.545 3.624-32.315 2.043-.694-.102-1.155.437-1.23.972a133.692 133.692 0 00-4.579-3.13c-5.566-3.608-11.492-6.253-17.784-8.328-3.6-1.188-7.332-2.394-11.123-3.114a.942.942 0 00-.589-.484c-1.528-.466-3.139-.308-4.726.055-.109-.367-.408-.658-.91-.63-.744.042-1.136-.676-1.192-1.338-.043-.514.048-1.041.188-1.562.424-.082.82-.38.873-.92.08-.778.176-1.555.287-2.33.14-.334.28-.67.428-1-.09.024-.182.037-.272.058.107-.662.226-1.32.357-1.978a.875.875 0 00.217-.447 64.765 64.765 0 014.36-14.661c.131-.062.257-.137.39-.198.668-2.87 1.34-5.738 2.082-8.591a294.056 294.056 0 012.008-7.258c.241-1.967.752-3.874 1.643-5.578a329.925 329.925 0 016.17-18.404 328.569 328.569 0 016.937-17.25c.508-1.168-1.215-2.188-1.727-1.01a335.212 335.212 0 00-11.54 30.42 282.223 282.223 0 00-1.838 5.913c-1.94-.681-3.693-1.804-5.313-3.158-.582-.14-1.13-.416-1.552-.84-.81-.81-1.512-1.67-2.013-2.661-1.81-2.006-3.48-4.13-5.096-5.985l-4.1-4.71c-.637-.728-1.314-1.461-1.969-2.212a3.806 3.806 0 01-1.12-1.13c-.185-.288-.297-.64-.365-1.002-.05 0-.1-.004-.155.006-.088-.141-.193-.272-.274-.416-1.13-2.007-.265-3.506.88-5.25a423.786 423.786 0 012.802-4.23c7.332-10.905 15.76-22.073 27.93-27.858 2.584-1.23 5.298-2.131 8.066-2.837-.042-.061-.077-.126-.119-.187a34.976 34.976 0 0113.343-2.593c1.288.003 1.29-1.997 0-2-5.28-.016-10.472 1.118-15.286 3.267-.72.204-1.44.417-2.152.656-7.033 2.367-13.213 6.578-18.51 11.723-5.299 5.145-9.743 11.11-13.898 17.195a347.278 347.278 0 00-3.05 4.555c-1.009 1.53-2.37 3.145-2.586 5.027-.144 1.266.252 2.434.86 3.502.126.084.234.185.348.28a83.218 83.218 0 00-13.047 7.546 1.022 1.022 0 00-.106-.375c-3.337-6.515-9.27-10.96-14.82-15.51 1.88-.036 3.77-.37 5.617-.831 3.135-.785 7.148-1.793 8.752-4.94.98-1.922.881-4.468-.557-6.05.246-.082.491-.172.735-.284 1.307-.591 2.42-1.625 2.978-2.957.54-1.285.391-2.74-.254-3.961a4.504 4.504 0 00-.463-.691c.288-.162.561-.353.793-.613 1.138-1.282 1.176-3.242.446-4.731-.539-1.1-1.46-1.91-2.48-2.574 1.205-.56 2.224-1.475 2.53-2.815.62-2.725-2.002-4.578-3.938-5.918-2.369-1.636-4.933-2.968-7.614-4.015-1.855-.725-3.765-1.263-5.705-1.67l.722-1.42c.013-.023.014-.05.025-.074 4.064-6.94 3.643-16.117-.817-22.785-1.779-2.66-5.206-6.733-8.907-5.6-2.133.652-2.132 2.94-2.22 4.782-.139 2.869-.155 5.74-.239 8.613-.195 6.609-1.013 13.046-3.633 19.17-.155.366-.083.707.088.979-2.023 6.08-6.243 11.149-9.278 16.773C.835 56.335-1.154 62.819.75 68.7a.912.912 0 00.077.435c2.583 6.144 6.434 11.543 10.606 16.7 4.642 5.738 9.456 11.339 14.195 16.995l7.276 8.684c1.904 2.27 3.875 5.736 7.063 6.23 2.79.432 6.08-.543 8.747-1.312a44.013 44.013 0 008.133-3.26c5.898-3.068 11.011-7.465 14.976-12.794.053-.071.091-.141.122-.212 1.774 1.508 3.734 2.79 5.917 3.547-1.798 6.13-3.397 12.314-4.893 18.529a.837.837 0 00-.338.39 67.004 67.004 0 00-4.33 13.788c-.018-.006-.038-.01-.056-.015a60.385 60.385 0 00-.933 4.79 32.362 32.362 0 00-1.05 2.953c-.383 1.29-.617 2.704-.024 3.969.224.478.57.897.985 1.217-.398.122-.79.242-1.175.354-2.929.849-5.848 1.857-8.508 3.37-3.338 1.9-6.196 4.75-7.677 8.245a.877.877 0 00-.44.603 15.183 15.183 0 00-.27 1.505c-.017.066-.043.128-.058.195.013-.002.026-.002.04-.003-.414 3.528.365 7.059 1.518 10.422 1.103 3.214 2.285 6.703 4.92 8.97-.024.029-.047.058-.07.084.154.098.32.177.478.27.034.026.061.058.096.083a.949.949 0 00.345.166c4.227 2.357 9.148 3.252 13.84 4.189 2.84.567 5.653 1.24 8.456 1.957-1.135 4.163.11 8.697 2.881 12 1.376 1.64 3.133 2.91 5.051 3.626 2.364.882 4.857.702 7.226.285 2.802-.495 5.573-1.182 8.351-1.788 2.667-.58 5.41-1.023 7.988-1.932 2.982-1.052 5.3-3.001 7.195-5.417l15.904 2.5c.18.028.341.004.49-.043 6.891 2.58 14.262 3.846 21.623 3.668a56.31 56.31 0 0011.005-1.34c3.078-.693 6.037-1.891 8.092-4.38.427-.518.81-1.07 1.147-1.644-.019.07-.033.143-.054.214 9.184-.51 18.151-3.79 25.44-9.433 4.01-3.103 7.37-6.721 7.804-11.992a21.75 21.75 0 00-.023-3.654 15.274 15.274 0 00-.85-6.453c.277.083.555.156.83.25 1.22.414 1.746-1.517.531-1.928" fill="#231F20" mask="url(#d)"/></g></g></svg>