<svg xmlns="http://www.w3.org/2000/svg" viewBox="0 0 500 600"><defs><style>.a{fill:#ff9b58;}.b{fill:#ffb203;}.c{fill:#ab5c00;}.d{fill:#050300;}.d,.f{stroke:#000;}.d,.f,.g{stroke-miterlimit:10;stroke-width:0.6px;}.e{fill:#b75c5c;}.f{fill:#fff;}.g{fill:#efebea;stroke:#f4f3f2;}.h{fill:#0f0d0c;}</style></defs><path class="a" d="M273.4,146.5c1.7,6.4,3.4,12.7,5,19s2.6,9.8,3.6,14.7c1.3,6.4,2.1,12.9,3.2,19.4s2.6,13.6,4.3,20.3,4.1,15.4.7,22.2a28.8,28.8,0,0,1-5.7,7.3c-3.5,3.5-7.1,6.8-10.9,10v-3.3c.3,3.9.4,8.5-2.8,11.1a11.6,11.6,0,0,1-6.1,2.3,20.8,20.8,0,0,1-12.1-1.7c-3.6-1.9-6.3-5.3-6.7-9a5.4,5.4,0,0,0,2.3,6.7,13.8,13.8,0,0,1-7.5,1.7,24.1,24.1,0,0,1-7.7-1.8c-14.3-6.3-21.5-9.5-23.9-11.8s-9.5-8.6-10.7-18.1c-.9-7.1.3-14.2,1-21.2.9-8.9,1.1-17.8,1.2-26.7l10.1-29.8,13.7,3.2a52.1,52.1,0,0,0,17.2-4.2c8.3-3.7,11.3-8.1,19.4-9.9A33.8,33.8,0,0,1,273.4,146.5Z"/><path d="M272.5,146.8c2.1,7.9,4.3,15.8,6.3,23.7a216.5,216.5,0,0,1,4.7,24,233.9,233.9,0,0,0,4.6,23.3c1.7,6.9,4.4,14.6,2.2,21.7-1.3,4.2-4.5,7.3-7.5,10.3s-6.4,6.1-9.8,9l1.5.6v-3.3h-1.8c.2,2.9.4,6.2-1.1,8.8s-5.9,3.8-9.3,3.9c-6.4.3-14.6-2.7-15.5-10a.9.9,0,0,0-1.8-.3,6.7,6.7,0,0,0,2.7,7.8v-1.6c-6.3,3.6-13,.4-18.9-2.2s-9.5-4.1-14.2-6.4a28.4,28.4,0,0,1-6.4-4.5,30.4,30.4,0,0,1-8.1-12.5c-2.1-7.1-.9-14.8-.1-22s1.2-15.4,1.4-23.1c.1-1.8.1-3.6.1-5.4a3.7,3.7,0,0,1,.1-1.1c.2-.8.6-1.6.8-2.4l3.2-9.4,6-17.6-1.1.6,7.8,1.8c2.3.5,4.9,1.5,7.3,1.3a57.3,57.3,0,0,0,12.3-2.6,44.6,44.6,0,0,0,10.3-5c3.3-2,6.5-4.4,10.3-5.7a30.5,30.5,0,0,1,14.7-1.1c1.2.2,1.7-1.5.5-1.7a33.4,33.4,0,0,0-12.2.1,33.8,33.8,0,0,0-11,4.8,75,75,0,0,1-10.7,6,53.6,53.6,0,0,1-11.1,3,17.1,17.1,0,0,1-4.5.4c-1.4-.2-2.9-.7-4.3-1l-9-2c-.5-.2-.9.1-1.1.6l-5.4,15.9-3.4,10.3-1,2.9a12.9,12.9,0,0,0-.3,4.4c-.2,8-.4,16.1-1.3,24.1s-2.2,15.4-.4,22.8a29,29,0,0,0,7.8,13.7,25.7,25.7,0,0,0,6.6,5.2c5.1,2.8,10.5,5,15.9,7.4,3,1.3,5.9,2.8,9.2,3.4a16.4,16.4,0,0,0,11.1-1.4.9.9,0,0,0,0-1.6,4.7,4.7,0,0,1-1.9-5.7l-1.7-.2c1,8.3,9.8,12.1,17.3,11.8,3.8-.1,8.1-.9,10.5-4.2s1.9-6.9,1.7-10.3c-.1-1.2-1.9-1.2-1.8,0v3.3a.9.9,0,0,0,1.5.7c3.1-2.7,6.1-5.4,9-8.2s5.6-5.4,7.5-8.7c3.5-6.5,2.1-14,.4-20.8s-3.9-15.9-5.2-24-2.4-16.5-4.4-24.6-4.8-18.3-7.2-27.5A.9.9,0,0,0,272.5,146.8Z"/><path class="b" d="M185.2,144c4.1.9,7.7,3,11.3,5.1,10.9,6.3,23.3,12.7,35.8,10.3,10.5-2.1,18.6-9.9,28.9-12.4a54.7,54.7,0,0,1,11.5-1c5.4-.1,10.8-.1,15.8-1.8a31.3,31.3,0,0,0,12-7.5c3.4-3.3,6.3-7.2,7-11.7-2.4,2.2-4.9,4.4-8.1,5.1-6.7,1.4-12.5-4.1-18.7-6.9-9.6-4.5-21.2-2.5-32.1-3.2-9.4-.5-18.5-3.3-27.9-4.4a85.7,85.7,0,0,0-19.6-.2,16.1,16.1,0,0,0-6.9,1.8,12.9,12.9,0,0,0-4.4,4.6,27.6,27.6,0,0,0-3.6,20,3.9,3.9,0,0,1,.1,2.4c-.3.9-1.4,1.5-2.3,2.1-8.9,5.3-14.3,15.2-13.4,24.8,1.1,12.1,10.8,22,15.6,33.4.3-7.4,4.8-14.5,11.6-18.5.8,1.7,3.5,1.9,5.1.9a8.8,8.8,0,0,0,3-4.6,69.9,69.9,0,0,0,3.7-26.8"/><path d="M185,144.8c4.7,1.2,8.8,3.8,13,6.2a113.9,113.9,0,0,0,12.6,6.3c8.5,3.4,17.7,4.8,26.6,1.6s14.6-8.2,22.7-10.6,19.7-.1,29.1-3.3a32.7,32.7,0,0,0,12.1-7.6c3.4-3.3,6.5-7.3,7.3-12.1a.9.9,0,0,0-1.5-.9c-2.6,2.4-5.5,4.8-9.2,5s-6.6-1.4-9.5-3.1-5.7-3.5-8.8-4.7a38.5,38.5,0,0,0-10.6-2.2c-7.6-.5-15.2.3-22.8-.5s-16.1-3-24.2-4.1a88.8,88.8,0,0,0-12.6-.8,65.2,65.2,0,0,0-11.7,1c-7.1,1.6-10.8,8.9-12.1,15.5a29.7,29.7,0,0,0-.3,10.3,7.3,7.3,0,0,1,.4,2.9,3.5,3.5,0,0,1-2,1.8,27.6,27.6,0,0,0-3.9,2.8,28.2,28.2,0,0,0-9.5,15.9c-2.7,13.7,7,24.8,13.1,36.1.8,1.5,1.5,3.1,2.2,4.6s1.7.4,1.7-.4a22.3,22.3,0,0,1,11.2-17.7l-1.3-.3c1.2,2.2,4.4,2.4,6.4,1.1s3.6-5.6,4.4-8.5a69.5,69.5,0,0,0,2.7-23.6c-.1-1.1-1.9-1.1-1.8,0a70.8,70.8,0,0,1-1.6,19.5,43.9,43.9,0,0,1-2.8,8.9,4.9,4.9,0,0,1-2.7,2.6,2.6,2.6,0,0,1-3-.9.8.8,0,0,0-1.2-.3,23.9,23.9,0,0,0-12.1,19.2l1.7-.5c-2.7-6.2-6.6-11.7-9.9-17.6s-6-11.9-5.7-18.6a26.3,26.3,0,0,1,7.9-16.8,28.5,28.5,0,0,1,3.8-3.1c1.2-.8,2.7-1.4,3.6-2.6s.6-2.7.3-4.2a27.4,27.4,0,0,1,2.1-16.2c1.6-3.2,3.7-6.5,7.2-7.7s8-1.3,11.9-1.4a82.4,82.4,0,0,1,12.2.6c8.1,1,15.9,3.2,23.9,4.1s15,.3,22.6.6a38,38,0,0,1,10.6,1.8,45.1,45.1,0,0,1,9.3,4.7,26.5,26.5,0,0,0,8.7,3.5,12.9,12.9,0,0,0,8.9-2.3l3.7-3.1-1.5-.9c-.7,4.3-3.3,7.8-6.3,10.8a32,32,0,0,1-10.8,7.4c-9,3.4-18.9,1-28.1,3.1s-14.6,6.7-22,10a30.6,30.6,0,0,1-12.6,2.9,38.5,38.5,0,0,1-13.4-2.6,93.6,93.6,0,0,1-14.3-6.8c-4.4-2.5-8.7-5.3-13.7-6.5a.9.9,0,1,0-.4,1.7Z"/><path class="b" d="M285.6,201.2c.4-6.3.9-7.9,1.2-7.9h.3c.3.2.7.6,1,.4s.3-2.3-.1-3.6a70.2,70.2,0,0,1-2.7-17.7,23.4,23.4,0,0,0,2.7,5c1.1,1.2,2.4,1.7,3.2.5a91.2,91.2,0,0,1-2.8-14.9,4,4,0,0,0,3.5,1.5,30.7,30.7,0,0,1-1.7-11.4,33.9,33.9,0,0,1,2.2-10.4,30.6,30.6,0,0,1-18.3,4.2Q279.8,174.1,285.6,201.2Z"/><path d="M286.5,201.2a32.7,32.7,0,0,1,.8-7,.5.5,0,0,0,.1-.3l-.5.4.7.3c1.1.2,1.6-.7,1.7-1.6a9.4,9.4,0,0,0-.7-4,50.5,50.5,0,0,1-1.2-5.3,71,71,0,0,1-1.2-11.3l-1.7.5c.9,2,1.8,4.4,3.6,5.8s3.5,1.3,4-.6-.5-2.3-.7-3.1l-.9-3.7c-.5-2.8-.9-5.5-1.2-8.3l-1.5.6a4.6,4.6,0,0,0,4.3,1.7c.5,0,.8-.7.7-1.1a30.6,30.6,0,0,1,.5-21.3c.3-.7-.7-1.4-1.3-1a29.7,29.7,0,0,1-17.9,4.1c-.6-.1-1,.6-.9,1.1q5.9,27.2,11.5,54.3c.2,1.1,2,.7,1.7-.5L275,146.6l-.9,1.2a31,31,0,0,0,18.8-4.3l-1.4-1.1a33.5,33.5,0,0,0-.5,22.3l.7-1.1c-1.1.2-1.9-.6-2.6-1.3a1,1,0,0,0-1.6.7,85.5,85.5,0,0,0,2.8,15.1l.3-.8c-1.6,1.8-4-4.3-4.5-5.3s-1.7-.4-1.7.4a83.4,83.4,0,0,0,1.1,11.1c.4,1.8.8,3.7,1.3,5.5l.6,2.3a5.2,5.2,0,0,1,.2,1.1v.3c-.1.4-.1.4.2,0s-2,.3-2.3,1.2a35.5,35.5,0,0,0-.8,7.3C284.6,202.3,286.4,202.3,286.5,201.2Z"/><path class="c" d="M255.5,170.5a18.3,18.3,0,0,1,4.1-4.7c3.9-3.8,8-7.7,12.9-10.4a2.8,2.8,0,0,1,1.2-.4c.8,0,1.3.8,1.7,1.5l2.4,4.8c-4.4.8-7.9-.2-11.8,1.8a15.7,15.7,0,0,0-3.7,2.4c-1.8,1.9-4.5,3.7-6.3,5.5"/><path d="M257,176.3a31.1,31.1,0,0,1,5.9-2.6,15.3,15.3,0,0,1,5.9-1.3,6.4,6.4,0,0,1,4.9,2.1l1.8,2a7.6,7.6,0,0,1,1.8,2.2c.5,1,2.1.1,1.6-.9a10.6,10.6,0,0,0-1.9-2.3l-2.1-2.4a8.5,8.5,0,0,0-5.4-2.5,15.3,15.3,0,0,0-6.7,1.2,33.5,33.5,0,0,0-6.7,3,.9.9,0,0,0,.9,1.5Z"/><path d="M256.5,177.1c3-.1,5.8-1,8.8-1.1s6.1,0,9.1,0a.9.9,0,0,0,0-1.8c-3,0-6.1-.2-9.1,0s-5.8,1-8.8,1.1a.9.9,0,0,0,0,1.8Z"/><path d="M257.1,176a35.7,35.7,0,0,1,4.9-3.8,57.4,57.4,0,0,1,5.3-3.2c1.8-.9,4.1-1.4,5.8.1a17,17,0,0,1,3.6,4.5c.5,1.1,2.1.1,1.6-.9a28.3,28.3,0,0,0-2-2.8c-.8-.8-1.5-1.7-2.3-2.4a6.4,6.4,0,0,0-6-.7,26.8,26.8,0,0,0-6.2,3.5,37,37,0,0,0-6,4.4c-.8.8.5,2.1,1.3,1.3Z"/><path d="M255.4,176.7a15.7,15.7,0,0,0,3.2,4.1,11,11,0,0,0,4.2,3.2,16,16,0,0,0,5.3.6,11.1,11.1,0,0,0,5.1-1c1-.5.1-2.1-.9-1.5a11.5,11.5,0,0,1-4.5.7,13.6,13.6,0,0,1-4.5-.6,10.7,10.7,0,0,1-3.6-2.8,16.5,16.5,0,0,1-2.8-3.6c-.5-1-2.1-.1-1.5.9Z"/><path d="M246.2,177.8c-1.2-.4-2.1-1.6-3.1-2.3a14.1,14.1,0,0,0-3.2-1.7,20.1,20.1,0,0,0-8.4-1.4c-2.6.1-5.2.4-7.3,2.2a20.2,20.2,0,0,0-4.9,6.3c-.5,1,1,1.9,1.5.9a15.9,15.9,0,0,1,7-6.8,11.6,11.6,0,0,1,8.6-.7,20.2,20.2,0,0,1,5.7,2.8l1.5,1,.8.7.2.2c.3.4.5.4.6-.2s-1.9,1.1-2.2,1.3a16.7,16.7,0,0,1-8.6,4c-3.2.3-6.5-1.9-9.3-3.4a.9.9,0,0,0-.9,1.6c2.7,1.4,5.8,3.4,8.9,3.6a15.3,15.3,0,0,0,8.7-2.6,35.5,35.5,0,0,1,3.1-2.3c.7-.4,1.9-.7,2-1.7s-1.4-1.9-2.1-2.4a26.2,26.2,0,0,0-3.4-2.4c-3.5-2-7.5-3.1-11.5-2.2a15.6,15.6,0,0,0-7.5,4.5,17.7,17.7,0,0,0-3.1,4.1l1.5.9a21.4,21.4,0,0,1,4.3-5.6c2.2-2,5.1-2,7.8-2a18.6,18.6,0,0,1,7.4,1.7,12.4,12.4,0,0,1,2.9,2,6.7,6.7,0,0,0,2.5,1.6c1.1.4,1.5-1.3.5-1.7Z"/><path d="M246.4,178c-1.4-1.1-3.1-1-4.8-1.4s-3.8-1.2-5.8-1.3a25.1,25.1,0,0,0-6.1.4,16.3,16.3,0,0,0-5.7,1.7c-1.1.5-.1,2.1.9,1.6a23.7,23.7,0,0,1,10.5-2,20.3,20.3,0,0,1,5,1.2c1.4.3,3.6.2,4.7,1.1s2.2-.5,1.3-1.3Z"/><polygon class="d" points="249.3 221.2 261.1 218.8 262.7 224.9 249.5 227.5 249.3 221.2"/><path d="M223.7,174.5a21,21,0,0,1,4.8-4.6c1.9-1.2,4.7,0,6.6.8,4.1,2,7,5.4,10.2,8.6a.9.9,0,1,0,1.2-1.2c-3.6-3.7-6.9-7.5-11.8-9.5-2.1-.8-4.6-1.6-6.7-.5s-4,3.3-5.6,5.1.5,2.2,1.3,1.3Z"/><path d="M246.6,170.7v8.5a76.6,76.6,0,0,1,0,8.3c-.3,2.4-2.5,4.7-2.1,7.1a3.1,3.1,0,0,0,1.5,2l3.7,2.6,3.3,2.2a8.4,8.4,0,0,0,3.1,1.9c2.2.5,3.5-2.8,4.4-4.3l2-3.2a10.4,10.4,0,0,0,1.7-3.3,2.4,2.4,0,0,0-.8-2.2,18.1,18.1,0,0,1-2.2-3.2,47.1,47.1,0,0,1-2.6-8.3c-.8-3.1-1.5-6.2-2.2-9.3-.2-1.1-1.9-.6-1.7.5,1,4.6,2.1,9.2,3.4,13.8a22.1,22.1,0,0,0,2.3,5.5c.5.8,1.1,1.4,1.6,2.1s-.4,2.3-1,3.3-2.3,4-3.6,6-.8.8-1.4.6a13,13,0,0,1-1.5-1l-3.3-2.3-2.8-1.9-1.5-1a1.6,1.6,0,0,1-.4-2c.6-2.1,1.7-3.8,1.9-6.1s0-5.4,0-8v-8.3a.9.9,0,0,0-1.8,0Z"/><path class="c" d="M245.8,174.3l-3.1-2.9a25.4,25.4,0,0,0-6.8-5.3l-2.3-.9c-2.2-1-4.2-2.4-6.4-3.3a9.8,9.8,0,0,0-7.1-.7,5.7,5.7,0,0,0-3.7,4.4c1.5.8,2,2,3.8,1.8s6.2-.9,7.5-.6a49.9,49.9,0,0,1,9.4,2.4,16.6,16.6,0,0,1,3.8,1.8"/><path class="e" d="M249.1,220.3a9.4,9.4,0,0,1-1.2-1.8,3.5,3.5,0,0,1-.1-3.3,4.8,4.8,0,0,1,2.4-1.4l4.5-.6a29.6,29.6,0,0,0,6-1.7,4.6,4.6,0,0,1,3.4-.5,2.6,2.6,0,0,1,1.3,1.9,4.3,4.3,0,0,1-.4,2.2,14.7,14.7,0,0,1-1.4,2.8c-.1-2-2.3-3.5-4.5-3.7a14,14,0,0,0-6.3,1.3l-1.9.6-.7.4c-.2.2-.2.5-.3.8l-.4,2.9a59.3,59.3,0,0,0,14.5-2.3"/><path d="M249.8,219.6a5.3,5.3,0,0,1-1.5-2.6,1.9,1.9,0,0,1,1.6-2.1c2.2-.8,4.6-.6,6.8-1.2l3.3-1c1-.4,2.2-1.1,3.3-1,2.7.3.2,4.6-.4,5.7l1.6.5c-.3-3.7-4.4-5-7.5-4.5a24.3,24.3,0,0,0-6,1.7c-.9.4-1.6.7-1.9,1.7s-.3,2.1-.5,3.1a.9.9,0,0,0,.9,1.2,61.7,61.7,0,0,0,14.8-2.3.9.9,0,0,0-.5-1.7,63.5,63.5,0,0,1-14.3,2.2l.9,1.1.3-2.3c.1-.4,0-.8.4-1.1a3.8,3.8,0,0,1,1-.3,22.5,22.5,0,0,1,4.4-1.4,6.8,6.8,0,0,1,4.2.2,3.1,3.1,0,0,1,2,2.4.9.9,0,0,0,1.7.4c1.3-2.1,3.1-5.6.7-7.6s-2.5-.8-3.8-.4-3.1,1.2-4.7,1.6a41.7,41.7,0,0,1-4.9.8,7.6,7.6,0,0,0-3.9,1.3c-2.4,1.9-1,5.1.7,6.9s2-.4,1.3-1.3Z"/><path class="e" d="M250.4,224.7c.3-.1.6.2.7.5s.2.6.5.8a1.3,1.3,0,0,0,1.3-.3c3.3-1.7,7.3-1.8,11.1-1.9a1.3,1.3,0,0,1,.9.2,1.6,1.6,0,0,1,.6.8l.7,1.6c0,.2.1.3.3.4l.5.2c1.2.4,1.4,1.9,1.4,3.1a11.5,11.5,0,0,1-.7,5.5,11.2,11.2,0,0,1-1.6,2.2,6.3,6.3,0,0,1-3.2,2,7.4,7.4,0,0,1-5.9-1.4c-1.7-1.1-3.1-2.6-4.7-3.8a9,9,0,0,1-2.7-2.4,6.9,6.9,0,0,1-.7-1.5,14.6,14.6,0,0,1,0-5.1v-1.1l.4-3.8"/><path d="M250.4,225.6c-.1,0,.3.7.3.7l.9.6a3.2,3.2,0,0,0,2.3-.7,19.5,19.5,0,0,1,5.9-1.3h4.4c.5.1.5.5.7,1s.5,1.6,1.3,2,.7.2.9.5a4.9,4.9,0,0,1,.4,1.1c.5,3.7-.7,8.4-4.7,9.6s-7.4-3.1-10.3-5.3a6.7,6.7,0,0,1-2.3-2.1,6.8,6.8,0,0,1-.6-3.7c.1-2.4.4-4.7.7-7.1s-1.7-1.1-1.8,0a64.8,64.8,0,0,0-.7,7.7,6.8,6.8,0,0,0,2.5,5.8l2.6,2.1a31.1,31.1,0,0,0,2.8,2.3,9.3,9.3,0,0,0,6.2,2.3,8,8,0,0,0,5.3-3,9.3,9.3,0,0,0,2.1-6.2c.1-1.6.2-3.9-1.3-5.1s-.8-.3-1.1-.8a8.4,8.4,0,0,1-.6-1.4,2.4,2.4,0,0,0-2.3-1.5,36.2,36.2,0,0,0-8,.8l-1.9.5-1.7.8h-.3c-.1,0-.3-.6-.4-.8a2.1,2.1,0,0,0-1.3-.5c-1.1.2-1.2,2,0,1.8Z"/><path d="M264.9,226.7a10.2,10.2,0,0,1-1.6,4.8,3.7,3.7,0,0,1-3.9,1.4,7.7,7.7,0,0,1-3.8-2.4c-1.3-1.3-2.5-2.7-3.8-4.1s-2,.4-1.2,1.3a48.9,48.9,0,0,0,4.4,4.7,8.1,8.1,0,0,0,5.1,2.4c4.4.3,6.3-4.4,6.6-8.1.1-1.1-1.7-1.1-1.8,0Z"/><path d="M260.9,219v4.4c0,.5.4,1,.9.9a.9.9,0,0,0,.9-.9V219a.9.9,0,0,0-1.8,0Z"/><path class="a" d="M200.2,188.4c-1.1-.3-1.5-1.7-2.6-1.9a2.9,2.9,0,0,0-2.4,1.1,29.1,29.1,0,0,0-6.2,8.3,8,8,0,0,0-.7,3.4,7.2,7.2,0,0,0,2.2,4.2,24.3,24.3,0,0,0,4.4,4.1,3.7,3.7,0,0,0,2.2.8,2.4,2.4,0,0,0,2-1.6,6.3,6.3,0,0,0,.2-2.4,50.6,50.6,0,0,1,.5-6.8c.5-2.9,1.3-5.9.1-8.7,0-.2-.1-.3-.3-.4H199a8.7,8.7,0,0,0-4.9,4.1,3.5,3.5,0,0,0-.5,2.4,9.4,9.4,0,0,0,.6,1.5,7.8,7.8,0,0,1,.7,5"/><path d="M200.5,187.5c-.9-.3-1.4-1.3-2.2-1.7a3.1,3.1,0,0,0-3.2.7,31,31,0,0,0-5.3,6.1c-1.4,2.1-2.8,4.8-2.3,7.4s2.6,4.7,4.4,6.3,4,3.8,6.3,2.8,2-4.5,2-6.8.9-5.9,1.1-8.9.3-6.2-2.2-5.8-5,2.7-6,4.9a4.2,4.2,0,0,0,0,3.8,8.7,8.7,0,0,1,1,5c-.2,1.1,1.5,1.6,1.7.5a9.7,9.7,0,0,0-.1-3.8c-.3-1.2-1.2-2.4-1.2-3.5a4.8,4.8,0,0,1,1.8-3.3c.7-.7,2.2-1.9,3.3-1.8l-.6-.3c.5.5.5,1.8.6,2.4a21.8,21.8,0,0,1-.1,2.5c-.2,1.7-.6,3.4-.8,5.1a45.8,45.8,0,0,0-.3,5.3c0,1.4-.2,3.9-2.3,2.9a15.2,15.2,0,0,1-3.7-3,10.6,10.6,0,0,1-2.9-4c-1.1-3,1.5-6.5,3.3-8.7l1.9-2.1a7.7,7.7,0,0,1,1.8-1.8c.9-.6,1.3-.1,2,.6a4,4,0,0,0,1.5,1c1.1.4,1.6-1.4.5-1.8Z"/><path class="f" d="M249.5,220l.6-3.7c3.2-2.4,7.2-3,10.3-1.6a7.6,7.6,0,0,1,3.4,3.2,45.3,45.3,0,0,1-6.9,1.5A41.4,41.4,0,0,1,249.5,220Z"/><path class="f" d="M250.6,226.8a22.5,22.5,0,0,1,7.5-2.7,26.1,26.1,0,0,1,6.9,0,6.6,6.6,0,0,1,.5,5.8,6.4,6.4,0,0,1-4.6,3.6,5.4,5.4,0,0,1-2.2,0C253.6,232.8,251,227.5,250.6,226.8Z"/><path d="M241.9,195.8c-5.5,3.5-9,9.2-12.2,14.7a.9.9,0,0,0,1.5.9c3.1-5.3,6.4-10.7,11.6-14,1-.6.1-2.2-.9-1.6Z"/><path d="M266.7,193c1.9-.3,3.5-.3,4.8,1.2a26.1,26.1,0,0,1,3.5,4.7c2.3,3.5,4.5,7.1,6.7,10.6.7,1,2.2.1,1.6-.9-2.5-3.9-4.8-7.8-7.4-11.7a20.8,20.8,0,0,0-3.7-4.6c-1.6-1.4-3.5-1.4-5.5-1.1s-1.1,1.9,0,1.8Z"/><path class="b" d="M199.8,210.1a142.5,142.5,0,0,0-1.5,30.6c.2,2.7.4,5.5-.7,7.9s-5.9,4.7-9.5,4.9a18.6,18.6,0,0,0,1.4-7.8c0-.3,0-.7-.3-.9s-.6-.1-.9,0a7.6,7.6,0,0,1-8.3-2.5c3.3-5.6,6.7-11.3,8.3-17.8l-10.5-1.2c4.9-3.5,7.9-10.3,7.4-16.9a3.3,3.3,0,0,1,0-1.4,3.5,3.5,0,0,1,.8-1.3,8.4,8.4,0,0,0,1.7-4.1,43.8,43.8,0,0,0,4.2,6.9,10.6,10.6,0,0,0,3.1,3.2,4.1,4.1,0,0,0,4.1.4"/><path d="M198.9,209.9a139.4,139.4,0,0,0-1.7,26.6c.1,2.1.3,4.2.3,6.3a11.2,11.2,0,0,1-1,6c-1.7,2.8-5.3,3.6-8.4,3.8l.9,1.1a22.4,22.4,0,0,0,1.4-5.8c.1-1.2.5-3.4-.9-4a2.5,2.5,0,0,0-1.9.2,6.5,6.5,0,0,1-2.4.1,7.5,7.5,0,0,1-4.6-2.5v1c3.4-5.7,6.8-11.5,8.5-18,.2-.6-.3-1-.9-1.1l-10.5-1.2.5,1.7a19.6,19.6,0,0,0,7.1-10.9,22.2,22.2,0,0,0,.7-6.8,2.4,2.4,0,0,1,.6-2.1l.9-1.3a13.3,13.3,0,0,0,1-3.4l-1.7.4a42.1,42.1,0,0,0,5.4,8.5c1.8,2.1,4.5,3.6,7.3,2.3,1-.5.1-2-1-1.5s-4.9-1.7-6.2-3.6a55.2,55.2,0,0,1-4-6.6c-.4-.9-1.5-.3-1.6.5a7.9,7.9,0,0,1-1.3,3.3,5.3,5.3,0,0,0-1.3,2.6c0,1,.1,2,.1,3.1a20.9,20.9,0,0,1-.4,3.4,18.2,18.2,0,0,1-6.5,10.6.8.8,0,0,0,.4,1.6l10.5,1.2-.8-1.1c-1.7,6.3-5,12-8.3,17.5a1.1,1.1,0,0,0,.1,1.1,9,9,0,0,0,4.5,2.9,10.1,10.1,0,0,0,2.5.3l1.2-.2c.4,0,1.1-.4,1.5-.3l-.5-.4c.6.9,0,3.3-.1,4.3a27.8,27.8,0,0,1-1.2,3.8c-.2.5.4,1.1.9,1.1,3.1-.2,6.5-.9,8.8-3.2s2.5-7.4,2.3-11.3a132.5,132.5,0,0,1,1.5-29.5c.1-1.2-1.6-1.6-1.8-.5Z"/><path d="M254.6,204.6v3.7a1,1,0,0,0,.9.9c.5-.1.9-.4.9-.9v-3.7a1,1,0,0,0-.9-.9c-.5.1-.9.4-.9.9Z"/><path d="M256.7,205.5v2.6a.9.9,0,0,0,1.8,0v-2.6a.9.9,0,0,0-1.8,0Z"/><path class="g" d="M258.7,175.1s8.5-4.2,13.1-2.1l2.3,1.5Z"/><path class="g" d="M242.1,176.6s-9.8-5.2-16.1-1l-2.2,2.1s10.3-3.7,15.4-1.6Z"/><path class="h" d="M232.9,177.2c3.5,0,3.5-5.4,0-5.4s-3.5,5.4,0,5.4Z"/><path class="h" d="M267.9,176.3c3.5,0,3.5-5.4,0-5.4s-3.4,5.4,0,5.4Z"/></svg>