<svg xmlns="http://www.w3.org/2000/svg" viewBox="0 0 496.8 597.6"><path d="M271.7,147c7.6,24.2,10.3,48.1,15.7,72.6,6.9,18.6-1.4,27.8-15.5,39.2-.1-1.2-.1-2.3-.2-3.4,4.4,18-25.1,17.5-27.1,2.7a5.3,5.3,0,0,0,2.3,6.6c-4.6,2.6-10.2,2-14.8-.1-22.3-10.8-28.1-9-34-29.6-.9-15.8,2.9-31.6,2.2-47.4l9.8-29.4C242.2,169.2,245.9,143.3,271.7,147Z" fill="#ff9b58"/><path d="M270.9,147.3c7.1,22.9,10.2,46.8,15.2,70.2,7.3,20.3.4,28.2-14.8,40.6l1.5.7c-.1-1.2-.1-2.3-.2-3.4h-1.7c4.3,16.2-23.3,16.6-25.4,2.7-2.6-4.3-3.2,6.1.9,7.4V264c-6.1,3.5-12.9.3-18.8-2.3-12.2-5.2-23.7-9.8-27.8-23.1-3.2-16.4,2.4-33.1,1.4-50,1.9-7.8,7.5-22.3,9.8-30.2l-1.1.6c32.1,11.2,36.3-14.7,61.6-11.1,1,.2,1.5-1.6.4-1.8-19.4-4.7-33.2,19-52.6,13.2-.7.2-9.8-3.1-9.9-1.4l-5.3,15.7c-1.1,4.7-5.3,12.7-4.7,17.5,1.6,19.9-9.8,43.8,5.8,59.8,5.3,6.3,37.7,23.1,42.4,13.4a5,5,0,0,1-2.1-5.9l-1.8-.3c1.6,11.8,20,15.8,27.5,7.4,2.2-3.3,1.7-6.7,1.4-10.1-1.9-3.6-2.5,4.4-.6,4.2,28.8-20.5,16.5-32.1,12-61.4-2.3-17.6-6.5-33.6-11.5-51.4a1,1,0,0,0-.8-1,1.1,1.1,0,0,0-1,.9A1.4,1.4,0,0,0,270.9,147.3Z"/><path d="M185.3,144.4c15.1,5.3,29.2,19,46.2,15.3,10.1-2,18.1-9.8,28.2-12.2,18.4-2.1,38.7.6,45.4-21.8-7.7,9.5-17.6,3.5-26.2-1.9s-20.9-2.4-31.5-3.1c-23.5-2.5-67.1-17.7-61.1,21.6.9,2-.4,3.6-2.2,4.5-25,16.7-8.3,37.8,2.2,57.5a22.9,22.9,0,0,1,11.3-18.2c10.6,7.9,12.1-24.2,11.6-30.2" fill="#ffb203"/><path d="M185.1,145.3c16.4,6.1,32.2,21.2,51,14,8.6-3.2,14.5-8.2,22.5-10.6s19.4,0,28.6-3.2c7.3-2.8,20.2-12.4,18-20.6-10.6,10.2-17.3,2.2-27.8-2.7s-22.1-1.4-33-2.5c-15.1-2.2-31.7-7.3-47.3-3.8-11.5,3.4-13.4,18.2-11.5,28.3-6.8,5.1-13.6,11.1-15.1,20.1-3,15.6,9.5,27.2,15,40.5,2.3,4.4.8-12,12.6-18l-1.2-.3c10.6,11.1,15.8-27,12.3-31.5a.9.9,0,0,0-.9.9,68.2,68.2,0,0,1-1.5,19.1c-1,3.7-2.7,14.9-8.4,10.6-7.1.6-12.6,11.7-13,18.7l1.7-.4c-8.3-16.1-24.9-36.4-7.6-52.5,8-6.6,8.6-4.1,7.1-15.2.5-20.8,16.5-21,33-19,14.9,2.7,30.3,5.6,45.3,4.6s28.2,19.2,40.8,4.5l-1.5-.8c-6.2,21.6-26.5,19.3-44.3,21-27.6,10.3-31,21.1-61,3.5-1.4-1.2-18.1-10-13.8-4.7Z"/><path d="M283.6,201c.5-6.1,1-7.7,1.3-7.7s.8.7,1.2.4c.4-6.5-3.3-14.2-2.7-21.1.9,2,3.2,7.9,5.7,5.5a106.6,106.6,0,0,1-2.6-14.8,3.9,3.9,0,0,0,3.3,1.5,32.1,32.1,0,0,1,.5-21.6,28.8,28.8,0,0,1-17.9,4.1C276.1,165.3,279.9,183.1,283.6,201Z" fill="#ffb203"/><path d="M284.5,201a41.8,41.8,0,0,1,.9-7.1l-.5.3c0,.1.6.4.7.4,2.2-.4,1.6-3.8,1-5.6a65,65,0,0,1-2.4-16.4l-1.7.4c.8,2.7,5,9.8,7.4,5.3-.7-5.1-2.6-9.7-2.7-15l-1.4.6c.8,1.4,4.6,2.9,4.8.6a31.8,31.8,0,0,1,.5-21.1c.3-.7-.7-1.4-1.3-1a28.2,28.2,0,0,1-17.5,4,.9.9,0,0,0-.9.8l11.3,54.1c.2,1.1,1.9.6,1.7-.5-3.8-17.9-7.5-35.8-11.3-53.7l-.8,1.1a29.8,29.8,0,0,0,18.4-4.3l-1.4-1a33.5,33.5,0,0,0-.5,22.1l.7-1.1c-1.6.5-2.4-2.2-3.8-1.1-.3,5,1.4,10.4,2.5,15.5l.2-.9c-1.4,1.8-3.9-4.3-4.3-5.3-5-3.5,2,19.7,1.3,21l.6-.3c-3.9-1.6-2.8,5.8-3.4,8.2a1,1,0,0,0,1.2.7A1.2,1.2,0,0,0,284.5,201Z"/><path d="M236.5,178.9a14.1,14.1,0,0,0,5.4-1.1" fill="#fff"/><path d="M255,173.8c4.7-1.9,11.9-7.1,16.6-3.2,1.6,1.4,1.6,5.6,3.6,6,2.3-2.4-3.9-10.6-7.6-9.3C266,167.2,249,172.6,255,173.8Z"/><path d="M257.4,181.2c6.3,8.7,23.4,3.5,18.4,1.2.4.3.3.6.3,1h0c.8-.8-.5-1.9-1.3-1.1a1.1,1.1,0,0,0-.1,1.5l.6.3h-.1c-.3-.7-.2-1.1.2-1.4s-.4.1,0,0l-3.8,1C263.4,187.5,256.7,175.5,257.4,181.2Z"/><path d="M246.2,174.7c-7.6-5-21-10.7-24,2-1,2.2,1,1.9,1.5.9C228.4,160,248.7,182,246.2,174.7Z"/><path d="M245.4,170.9c-.2,5,.4,12.1-.1,16.9-.5,3.3-3.9,6.6-.4,8.8l6.8,4.7c3.2,3.2,4.8,1.5,7.2-2.2,8-10.5-.1-8.1-1.6-19.8-.9-1.5-1.7-13.7-3.9-9.1,2,7.1,2.4,15.3,7.1,21.2.7,1.6-2,4.8-2.8,6.3s-2,4.9-4.7,2.3l-5.8-4c-4.3-1.8.2-5.8,0-8.9s0-11.7,0-16.2a.9.9,0,0,0-1.8,0Z"/><path d="M200,188.4c-1.7-1-3.2-3.4-4.9-.7-7.1,6.3-9.7,14.1-.3,19.7,2.4,2.3,5-.5,4.3-3.2-.5-5.2,2.3-10.3.6-15.3-1.6-1.5-4.9,2.2-5.7,3.7-1.4,3,1.8,5.6.8,8.8" fill="#ff9b58"/><path d="M200.3,187.6c-4.9-6.7-13.6,7.8-12.7,12.3s6.1,10,10.4,9c2.3-1,2-4.5,2-6.8s3.9-13.9-1.1-14.5c-3.5.7-7.6,5-5.8,8.7a9.8,9.8,0,0,1,.9,4.8c-.1,1.2,1.5,1.7,1.7.5.7-5.5-4.9-9.2,3.7-12.2l-.6-.3c1.8,4.8-1.1,10-.6,15.1,0,1.4-.2,3.9-2.2,2.9-6.4-3.8-9.2-9.6-3.2-15.5a33.3,33.3,0,0,1,3.6-3.9c1.5-.9,2,1.4,3.4,1.6a1,1,0,0,0,1.2-.5.8.8,0,0,0-.4-1.1Z"/><path d="M241,195.7c-2.4-.4-23.8,16.5-16.8,15.7,4.9-5.7,10.3-11,17.3-13.9C242.6,197,242.1,195.3,241,195.7Z"/><path d="M265.2,193c8.9-1,12.2,11.1,17.5,16.4,5.6,2.2-6.3-11-7-12.4-2.4-3.6-5.8-7.1-10.5-5.8C263.1,191.5,264,193.1,265.2,193Z"/><path d="M249.7,159.4c2.9,1.1,4.2,4.9,7.4,5,5.6-.2,11.6.2,16.7-1.9-.8-.3-8.4-.4-9.4-.4-5.3.9-10-3.1-14.9-3.5" opacity="0.5" style="isolation:isolate"/><path d="M239.5,160.9c-5.5,7.5-15.2,8.6-24.1,8.8.4-.3-.5-.8,0-.9,2.9-.8,7.5-1.5,10.3-2.1s8.3-4.3,10.7-5.9,2.7-2.5,3.1-.5" opacity="0.5" style="isolation:isolate"/><path d="M249.6,233.3c1.5-3.5,8.2-6.9,10.4-2.4,4.5,1.7-.8-6.3-5.7-3.5-2.7,1-5.5,2.5-6.4,5.4C247.5,233.9,249.2,234.4,249.6,233.3Z"/><path d="M244.6,181.4c-16.4,14.4-16-2.1-21.6-.1,1.9,2.7,5,6.9,8.9,7.5C234.6,191,250.9,181.3,244.6,181.4Z"/><path d="M250.1,212.4c-1.7,3.3-7.2,9.7,1.3,6.2,3-1.5,8,.5,10.6,1,1.8-1.6-2.7-3.1-4.8-5.9s-5.8-3.1-6.7-1.1"/><path d="M249.2,212.4c-9.9,14.3,4.5,3.6,10.6,7.7,8.9,1.8-1.4-6.7-3.6-8.3s-6.1-2.1-6.6.8,1.6,1,1.8,0-.1.1,0,.1a6.7,6.7,0,0,1,6,2.6c1.3,1.3,3,2.3,4.2,3.8s.3-.3.3-.3c-2.2-.3-4.1-1.6-6.3-1.6s-5.5,1.2-8.3,1.4c0,0,.5.1.3.2.3-2.4,2.9-4.2,3.4-6.4a.9.9,0,0,0-1.8,0Z"/><path d="M244.7,175.2c-7,.9-14.8,4.5-21.7,1.4,5.2,9,15.5,5.7,21.9,0" fill="#fff"/><path d="M244.7,174.3c-6.9.9-14.5,4.5-21.3,1.5-.8-.3-1.7.4-1.2,1.2,5.2,9.3,16.6,6.4,23.2.4,2-7.1-12.5,13.1-21.7-1.3l-1.2,1.3C224,180.2,250.5,176.7,244.7,174.3Z"/><path d="M254.8,173.9c5.9,1.8,12.8,2.4,18.4-.6-4,6.8-13.1,9.5-17.7,1.8" fill="#fff"/><path d="M254.5,174.8c6.3,1.7,13.2,2.5,19.2-.8l-1.3-1.2c-10.8,15.8-17.9-3.9-17.5,3,8.8,13.1,23.3-4.2,17.8-3.3C267.5,177.3,250.9,170.9,254.5,174.8Z"/><path d="M233.7,177.5c-1.2-.1-1.1,1.7-.7,2.5a1.8,1.8,0,0,0,2.2,1,1.7,1.7,0,0,0,1-2.2h0c-.9-1.9-4.3-1.3-4.6.7a2.2,2.2,0,0,0,1.8,2.5,2.4,2.4,0,0,0,2.3-1.1c.6-1-1-1.8-1.6-.9h.1c-.1.2-.2.2-.4.2h-.3v.2l-.2-.4v.3c0-.1-.1-.2-.1-.4v.2c0-.1,0-.2.1-.2h0l-.2.2.2-.2-.2.2.5-.3h-.2c.3-.1.7-.3,1,0h-.2l.2.2v-.2c.1,0,.1.1.1.2h0l.3-.2-.2-.2v.2l-.2-.5v-.7l-.7.9c1.3.2,1.1-2-.2-1.7Z"/><path d="M264.5,175.6c-3.3-.7-3.6,5.4.3,3.7,1.5-.6,1.4-3.2-.4-3.2s.2,4,.6,1h-.1v.2h0v.2h0v.3h0v.2a.6.6,0,0,1-.7.1h0v-.2h0v-.3h0v-.2c0,.2-.1.3-.1.5v-.2l-.2.2.2-.2-.2.2.2-.2h-.5v.2h-.1c0-.2,0-.3.1-.4v.2l.3-.5-.2.2.4-.3h-.2a1,1,0,0,0,1-.8,1.1,1.1,0,0,0-.5-.9Z"/><path d="M262.4,176.3c-.5.6-1.5,0-1.9.6s-1.8-.5-2.1.2.5-.3.9-.1a2,2,0,0,0,1.5.1v-.2a2.5,2.5,0,0,0,1.7-.4c.1-.2-.1-.4-.2-.2Z"/><path d="M262.6,176.6a5.2,5.2,0,0,0-1.1,1c-.3.1-.8-.2-.9.3s-.5.4-.1.4l.4-.2v-.2c.7.2,1.2-.7,1.7-1Z"/><path d="M265.1,176.6l3,.2v-.2c-.3,0-.3.5,0,.3s.3-.3,0-.2l-.8-.2-.7.2c-.1.1-2.3-.2-1.4.3Z"/><path d="M265.1,177.4h.8c-.1.8.7.3,1,.1h-.2c-.1,1.7,1.1-.8-.5.1h0c.3-.6-1.7-.5-1-.1Z"/><path d="M235.5,178.4c1,.4,2-1,2.9-.4s2.2-.9,1.7-1.1-1.4.9-2.3.7-1.3,1-2.2.6-.3.3-.1.3Z"/><path d="M236.1,179.3c.6.2,1.1-.5,1.7-.5s.6.6,1.1.3h.7c.6-1-1.7.7-1.4-.4s-1.2.6-1.9.6-.3.2-.1.2Z"/><path d="M235.5,180.2h.7c.1.1.3.6.6.5s-.4-.5-.5-.8S234.9,179.8,235.5,180.2Z"/><path d="M232.2,178.5l-2.2.4c-.2.3-.6.7-1,.4l-.6-.2c-.4-.1-1.6,1.1-.8.8s1.4.1,2.1-.4a7.3,7.3,0,0,1,2.5-.8C232.9,178.5,232.3,178.4,232.2,178.5Z"/><path d="M232,179.5l-.8.4c-.8-.1-1.4.1-1.6.9s.3.9.5-.3a.3.3,0,0,1,.3-.3h.9c.1-.1,1.4-.5.7-.7Z"/><path d="M232.1,180.5c-.3.5-1,.5-1.2.9s1.6-.5,1.4-1Z"/><path d="M199.2,207.1a103.6,103.6,0,0,0-1.7,27.8c1.7,7.5-3.5,11.2-11.4,11.7,5.5-13.4-3.3-3.9-9.2-10.2,3.7-5.1,7.5-10.2,9.4-16.2l-11.8-1.1a16.7,16.7,0,0,0,8.2-15.4,2.4,2.4,0,0,1,1-2.5c1-1,4.4-.4,4.6-1.8,1.2,4.3,5.1,9.4,10.1,7.7" fill="#ffb203"/><path d="M198.4,206.9a106,106,0,0,0-2,25.1c1.8,8.7-1.2,14.1-10.3,13.7l.7,1.4c5.9-15.1-2.8-5.3-9.3-11.3l.2,1.1c2.3-4.1,11-13.4,8.7-17.6l-11.9-1.1.4,1.7c6.5-3.6,9-10.6,9-17.6,1.3-1.6,4.6-.3,5.3-2.7l-1.7.3c2.3,10.9,15.7,8.7,10.7,6.3-3.4,1.2-7-1.7-8.2-4.8-.2-1.2-1.3-4.1-2.6-2.2s-3.1.2-4.1,1.2-1.3,3.9-1.5,6.2c-1,13.1-19.9,12.9,4.5,14.5l-.9-1.1c-1.9,5.9-5.7,11-9.3,16,.7,3.5,6.6,4.3,9.7,3.8s.1,5.1-.5,6.3c-.4,3.4,8.7,0,10.1-1.3,6.2-5.4.6-26.7,4.7-37.4.2-1.2-1.5-1.6-1.7-.5Z"/><path d="M252.3,203.8V207c0,1.2,1.7,1.1,1.8,0v-3.2C254,202.7,252.3,202.6,252.3,203.8Z"/><path d="M256,207c0-.9.2-3.7-1.5-2.6s-.2,2.1-.3,2.6a.9.9,0,0,0,1.8,0Z"/></svg>