<svg xmlns="http://www.w3.org/2000/svg" viewBox="0 0 500 600"><defs><style>.a{fill:#454545}.c{fill:#ff9b58}.e{fill:#f4380c}</style></defs><path class="a" d="M203.4 250.6c-11.1 5.3-28 10.7-36.4 17.7-2.8 2.4-9.3 16.5-10.7 20-16.1 38.2-14.5 11.1-8.4-4l-20.3-10c-2.9.7-15.7 52-13.1 54-.3 1.6 1.6 14 1.5 15.7-.5 6.2 5.9 9.7 11 13 14.6 9.2 32.7-13.5 32.8-16.7.4.2 9.7-11.4 9.6-14 0-1 .6 1.7 4.1-6.5-10.3 24.2-4.1 51.6-6.8 77.3-.1 1.3-.4 2.7.6 3.8s2.5 1.4 4 1.7c47 10.5 93.5 9.8 141.9 3.4 2.1-.3-2.6-.6 1.2-1 23.4-2.6 18.4-102.6 13.6-90-1.9 5.1 23.5 31.4 21 36-5.1 9.3-33.9 51.7-26.3 53 .1 0-.2 0-.3.2s18 2.5 20.6 2.8 6.7-10.4 10.7-17c1.8-2.9 8.4-11.3 21.5-28a27.7 27.7 0 006.1-12.1 14.5 14.5 0 00-.1-7.9c-.9-2.6-35.6-58.2-38.2-60s-10.2-11.3-13-12c-11.2-2.7-36.5-13.8-45.6-19.4.4-1.1-6.6 7.6-9 8 .1 4-.5 7.3-2.6 9.1-7.4 6.8-18.5 2.5-24.7-1.3-7.7 4.3-28.5-1.2-45-16"/><path class="a" d="M167 401c3 16.7 11.1 32.4 15 49 5.3 23 2.6 47.7 1.2 70.9 10.5-.7 24.1-1.2 34.7-1.9a113.6 113.6 0 015.5-57.1c4.4-12.2 11.7-24.8 25.7-31.8.9-.5-1.9-1.1-.8-1.2 2.8-.2 5.5 3.1 6.6 5 10 17.1 10.2 35.7 11 54.3a121.4 121.4 0 001.9 16.9 2.8 2.8 0 00.7 1.6 4.8 4.8 0 002.4.7l10.4 1.1a4.9 4.9 0 002.7-.2 2.4 2.4 0 001.2-1.6l18.2-52.2c6.1-17.4 12.2-34.9 13.5-52.8-10-.6-18.8 1.5-28.6 3-11.4 1.7-23.7 2-35.3 2.4-5.2.1-10.5.7-15.7.7a163.4 163.4 0 01-22.2-1.7l-44.4-5.2"/><path d="M185.9 523a15.4 15.4 0 01-5.3 6.4 39.9 39.9 0 01-5.9 2.8l-11.4 4.5a17.3 17.3 0 00-3.6 1.8 11.5 11.5 0 00-1.9 2.6 1.2 1.2 0 00-.4.8 1.3 1.3 0 00.4.7c.9 1.1 2.8 1.4 4.5 1.6a59.1 59.1 0 0010.3 0 21.3 21.3 0 006.3-1.2c3.4-1.4 5.5-3.9 7.8-6.3s5.1-4.6 8.8-5.1 7.4.9 10.6-.3a10.5 10.5 0 002.9-1.7 4.8 4.8 0 001.3-1.6 3.7 3.7 0 00-.1-1.8l-1.2-5.3a.8.8 0 00-.2-.4h-.8a81.1 81.1 0 00-13.9 1.6l-8.6 1.5m79-15a19.8 19.8 0 002.4 6.8 2.5 2.5 0 00.8 1 4.3 4.3 0 002.5.3c7.6-.2 14.7 2.3 21.6 4.6s14.3 4.4 21.8 3.6a4.8 4.8 0 001.7-.5 1.6 1.6 0 00.9-1.4c.3-1.8-1.8-3.5-4.1-4.1a23 23 0 00-7.4 0 17.9 17.9 0 01-7.3-.2c-6.1-1.7-7.3-8.4-13.2-10.4-3.7-1.3-8-.3-12.1-.2a63.2 63.2 0 01-7.6-.6" fill="#262626"/><path d="M172.3 318.1c-4.1 11.7-5.5 24.1-5.7 36.4s.4 23.9 0 35.8c0 1.5-.1 2.9-.2 4.4a13.6 13.6 0 01-.2 2 2.5 2.5 0 00-.1 1.7c.4 1.6 2.3 2.3 3.5 3.1l7.5 4.8c6.9 4.3 13.8 8.5 20.9 12.5 3.7 2 7.5 4 11.4 5.7a32.8 32.8 0 009.1 2.7 1.3 1.3 0 001-.7c.9-6.1 1.9-12.1 2.9-18.1l-1 .7c2.9 0 5.7.3 8.6.5 5.3.2 10.7.2 16 0a157.7 157.7 0 0024.7-2.4 31.1 31.1 0 016.8-1.1 5.4 5.4 0 012.2.4l.4.3c.3 0 0-.1 0-.3s.1.4.1.6c1.3 4.1 2.6 8.2 3.8 12.4a1 1 0 001.2.6 54.5 54.5 0 0011.7-4.2q7.1-3.3 13.8-7.2c3.9-2.2 7.7-4.5 11.3-7 1.2-.9 2.3-1.7 3.4-2.7a3.1 3.1 0 001.3-2c.1-.3 0-.4 0-.2v-.3l.3-1.7c.5-2 .9-4 1.3-6.1 1.3-6 2.5-12 3.2-18.1a88.1 88.1 0 00.8-17c-.2-5.5-.7-10.9-1.2-16.4-1.1-10.5-2.3-21-4.1-31.4-.2-.8-.3-1.5-.5-2.2s-2.1-.8-1.8.5c1.8 9.4 2.9 19 3.9 28.5s2.5 21.5 1.6 32.1a168.7 168.7 0 01-2.8 18.9c-.8 4.1-1.8 8.1-2.5 12.1-.1.4-.1.8-.2 1.2s.2.4.1 0 .2-.2-.1 0 0 .1-.2.3l-.5.5-1.3 1.1a111.7 111.7 0 01-9.9 6.4c-4.4 2.6-8.8 5.1-13.4 7.3a78.2 78.2 0 01-12.3 5.2l-2.4.6 1.2.6c-1.2-3.8-2.4-7.7-3.5-11.5-.2-.5-.3-1-.5-1.5a3.2 3.2 0 00-2.1-1.4c-1.8-.7-3.9-.3-5.8 0s-6.1 1.3-9.2 1.8a133.7 133.7 0 01-14.2 1.2c-6.3.2-12.6.4-18.9.2-3.4-.2-6.8-.5-10.3-.5a1.1 1.1 0 00-.9.7c-1 6-1.9 12-2.9 18l.9-.7a28.3 28.3 0 01-7.4-2.1c-3.4-1.4-6.6-3.1-9.8-4.8-7-3.7-13.8-7.9-20.6-12.1l-8.1-5.1-3-1.9-.7-.4a1.4 1.4 0 01-.8-1.8 27.1 27.1 0 00.4-4c.5-11.5-.1-22.9-.1-34.3.1-13.6 1.3-27.2 5.8-40 .4-1.2-1.5-1.7-1.9-.6z"/><path d="M166.2 399.1c3.1 17.7 10.8 34.2 14.6 51.7a114.6 114.6 0 012.3 21.9c.2 8.2 0 16.4-.1 24.6s-.5 16.8-.1 25.1c0 1.3 2 1.3 1.9 0-.6-15.6.5-31.2.3-46.8a124 124 0 00-1.8-22c-1.5-8.8-4.3-17.3-7-25.7s-6.4-19.3-8.2-29.3c-.2-1.2-2.1-.7-1.9.5zM217.1 519c-.3-13.1-.6-26.2 1.4-39.1a84.9 84.9 0 0110.6-30.8 75.3 75.3 0 0110.3-13.5c2-1.9 4.2-4.1 7-4.7s5.3 1.7 7.2 3.8c3.6 4 5.4 9.1 6.9 14.3a118.7 118.7 0 013.6 18.7c1.7 14.2 1.3 28.4 1 42.6-.1 1.3 1.9 1.3 1.9 0 .3-13.4.7-26.9-.7-40.2a146.3 146.3 0 00-3.4-19.8c-1.4-5.3-3.2-10.7-6.5-15.2-1.5-2.1-3.5-4.4-5.8-5.5a8.2 8.2 0 00-7.6.6 28.6 28.6 0 00-6.4 5.6 72.2 72.2 0 00-5.6 6.8 82.3 82.3 0 00-13.3 30.8c-3.2 14.9-2.9 30.3-2.5 45.6a1 1 0 001.9 0z"/><path d="M314.6 404.9a77.3 77.3 0 01-2 20.3 155.5 155.5 0 01-6.3 19.7c-5 13.5-12 26.1-17.4 39.4a96.1 96.1 0 00-6.3 22.9l.9-.7c-6.3.2-12.6.3-18.9.1a1 1 0 000 2c6.3.1 12.6.1 18.9-.2.4 0 .9-.3.9-.7 2-14.5 8.3-27.8 14.5-40.9s11.8-25.9 15.3-39.6a79.8 79.8 0 002.3-22.3 1 1 0 10-1.9 0zm-97.3 113.6l-17.8 1a55.2 55.2 0 00-8.1.6c-2.7.5-5.3 1.6-8.2 1.6a1 1 0 000 1.9 31.9 31.9 0 007.6-1.4 64 64 0 018.7-.8l17.8-1c1.2 0 1.2-2 0-1.9z"/><path d="M184.9 523.1c-1.7 4.1-6.3 6.4-10.1 8.1s-9.1 3.1-13.4 5.2c-1.7.8-4 1.9-4.7 3.8a3 3 0 001.8 3.9 14.3 14.3 0 005.8.8q3.3.1 6.6 0c4-.1 9.1-.2 12.3-3a20.1 20.1 0 002.3-2.8 34.9 34.9 0 014.9-4.5c1.8-1.4 3.8-2.8 6.2-2.9s5.2 1.2 7.9 1.1a7.6 7.6 0 005.8-2.8 4.7 4.7 0 00-.4-5.8c-.7-1-2.1.4-1.3 1.4s0 4-2 4.8-4.4.1-6.6-.4c-3.9-.8-7.2.3-10.3 2.7a36.5 36.5 0 00-5.1 4.5c-.8.9-1.3 1.8-2.1 2.6-2.2 2.4-5.7 2.8-8.8 3a86.7 86.7 0 01-11.4.1c-1.1 0-4.8-.4-3.7-2.3s3.9-2.6 5.6-3.3c4.5-2 9.3-3.2 13.7-5.4s7.3-4.4 8.9-8.3c.5-1.1-1.4-1.6-1.9-.5zm79.6-14.1a41.4 41.4 0 000 6.1 3.3 3.3 0 002.7 2.6 28.5 28.5 0 005.1.4c2.1.1 4.3.4 6.4.7a68.4 68.4 0 0111.7 3.5 42.3 42.3 0 0011.5 3.4 73.5 73.5 0 0012.4.5c.8 0 1.5.2 2-.5a14.3 14.3 0 001.4-2 2.2 2.2 0 00-.7-3.2c-2.6-2.1-6-2-9.1-2a56.8 56.8 0 01-9.2-.5 9.9 9.9 0 01-4.1-1 8 8 0 01-3.5-2.8 19.2 19.2 0 00-2.3-3.5 17.9 17.9 0 01-3.1-3.7 1 1 0 10-1.7.9 16.1 16.1 0 003.1 3.8 10.6 10.6 0 011.6 2.1c.4.5.5 1.1.9 1.7 1.5 2.4 4.7 3.8 7.5 4.3a74.1 74.1 0 0010.5.7 20.7 20.7 0 016.1.4c.6.2 2.4.8 2.5 1.5s-1.3 1.8-1.6 2.3l.9-.4c-4.9 0-9.8.2-14.6-.7s-9-3-13.6-4.5a53.3 53.3 0 00-13.6-2.9c-2-.1-4.4.2-6.3-.5s-1-1.8-1-3V509a1 1 0 00-2 0zm22.6-255.1a247.1 247.1 0 00-13.4 64.3 288.7 288.7 0 002.9 65 359.9 359.9 0 007.9 36.8.9.9 0 101.8-.6 336.5 336.5 0 01-10.9-64.7 258.4 258.4 0 013.9-64.5 233.8 233.8 0 019.7-35.8c.4-1.2-1.5-1.7-1.9-.5zm-85.4-1.5c12.3 17.9 16 39.5 17.5 60.9.7 11.1 1.1 22.2 1.5 33.3s.7 25.1.6 37.6c-.3 14.2-1 28.4-2.7 42.5-.2 1.2 1.8 1.2 1.9 0 3-25.3 3.1-50.7 2.3-76.1-.4-11.5-.8-23-1.5-34.4a197.9 197.9 0 00-4-31.6 93.5 93.5 0 00-13.9-33.2c-.7-1-2.4-.1-1.7 1z"/><path d="M201.2 251.9a196.4 196.4 0 01-9 31.9.9.9 0 00.7 1.2l8.2 1.2-.5-1.4c-1.9 2.4-3.8 4.8-5.6 7.4s-.8 4 1.1 5.7a87 87 0 0110.7 11.2 64 64 0 0113.8 42.8c-.1 1.2 1.9 1.2 1.9 0 .9-19.3-7.2-37.8-20.7-51.3-1-1.1-2.1-2.1-3.2-3.1s-3.1-2.1-2.4-3.6a20.7 20.7 0 012.8-3.8l3.2-4.3a1 1 0 00-.5-1.5l-8.3-1.1.7 1.2c3.7-10.5 7-21.1 8.9-32 .3-1.2-1.6-1.8-1.8-.5zm82.9-.2c10.2 5.4 21.3 9.3 31.9 13.8a141.4 141.4 0 0115.2 7.3 28.8 28.8 0 018.6 6.9 64.4 64.4 0 015.9 8.8l12 21c3.9 6.7 7.5 13.7 11.8 20.1a65.3 65.3 0 006.8 8c2.4 2.5 4.8 5.2 5.1 8.8.6 7.4-6.1 13-10.7 18a207.5 207.5 0 00-13.1 16.3c-4.4 6.1-8.8 12.3-13.1 18.5a25.5 25.5 0 00-2.3 4.3 39.7 39.7 0 01-1.7 3.6c-1.4 2.2-4.2 1.6-6.2.8a17.2 17.2 0 01-7.2-5.3 17.5 17.5 0 01-1.8-2.6 4.5 4.5 0 01-.1-1.1c-.1-2.7 1.3-5.5 2.3-7.9s3.7-7.3 5.6-10.9c4.3-7.8 9-15.4 12.8-23.4a38.4 38.4 0 003.3-8.5 3.6 3.6 0 00-.2-2.5c-.5-.8-1.1-1.5-1.7-2.3-5.3-7.3-10.6-14.5-15.5-22-1-1.4-2-2.9-2.9-4.4s-2.3-.1-1.7 1c4.7 7.8 10.3 15.2 15.7 22.6l3.1 4.3c.4.5.9 1.6 1.5 2s0-.4-.1-.2 0 .5-.1.7a8.5 8.5 0 01-.4 1.7 32.9 32.9 0 01-1.6 4.4c-3.6 8.1-8.4 15.8-12.7 23.5-2.1 3.9-4.3 7.7-6.1 11.7a34.4 34.4 0 00-3.2 8.8 6.1 6.1 0 00.2 3c.9 2.5 3.1 4.7 5 6.3s10 6.2 13.3 1.8a22.1 22.1 0 001.8-3.4 24.7 24.7 0 012.3-4.6c2.1-3.2 4.4-6.3 6.6-9.4 4.4-6.3 8.9-12.5 13.7-18.4 2.2-2.8 4.5-5.6 7-8.2a72.4 72.4 0 007.2-8.4 16.9 16.9 0 003-9.4 14.8 14.8 0 00-3.9-8.6c-2.4-2.8-5.1-5.2-7.2-8.1a99.8 99.8 0 01-6.1-9.8l-12.5-21.7-6.2-10.9a83.5 83.5 0 00-5.8-8.8c-4.2-5.3-10.2-8.5-16.3-11.4-11-5.2-22.4-9.3-33.5-14.2-2.3-1-4.6-2.1-6.8-3.3s-2.1 1.1-1 1.7z"/><path d="M287.1 254.3a193.7 193.7 0 0011.3 31.5l.6-1.4-8.1 1.8c-.8.1-.9 1.1-.5 1.6l5.8 6.6c.5.6 1.1 1.1.9 1.9a2.4 2.4 0 01-1 1.4l-2.8 2.9a85.7 85.7 0 00-8.9 11.9 68.7 68.7 0 00-9.6 26.6 65.1 65.1 0 00-.1 15.9c.2 1.2 2.1 1.2 2 0-2.4-20.5 5.7-40.5 20-55 1.7-1.7 3.3-3.7 1.6-6a93.2 93.2 0 00-6.5-7.6l-.4 1.6 8.1-1.7a1 1 0 00.6-1.5 197.1 197.1 0 01-11.1-31 1 1 0 00-1.9.5z"/><path class="c" d="M320.6 400.9c-3.6 4.3-8.5 9.5-11.6 10.7-4.7 1.9-11.2 1.5-13.1 3.9s12.5 9.6 15.5 11h.6c2.3 0 4-4.6 7.5-10.1a9.4 9.4 0 015-4c6.7-2.8 15.4-2.6 16.2-4.6.1-.2.4-1 0-1.4a2.3 2.3 0 00-1.4-.4 100.6 100.6 0 01-16.4-2.9 6.6 6.6 0 01-2.6-2.3"/><path d="M319.9 400.2c-3 3.5-6.2 7.4-10.1 9.9s-8.2 1.7-12.1 3.1c-2.2.8-4 2.6-2.4 4.8s4.5 3.7 6.9 5 5 2.6 7.6 3.8a3.9 3.9 0 003.1.6c1.5-.5 2.4-2 3.1-3.2 2.6-3.9 4.1-8.9 8.8-10.8s8.6-2.1 12.9-3.1c1.3-.2 3-.6 3.7-1.7a2.5 2.5 0 00.3-2.2c-.4-1.2-1.8-1.2-2.9-1.3-3.2-.3-6.4-.8-9.6-1.4l-4.7-1.1a5 5 0 01-2-.8 5.7 5.7 0 01-1.5-1.6c-.8-1-2.2.4-1.4 1.4a8 8 0 002.1 2 8.2 8.2 0 003 1 70.2 70.2 0 007.7 1.6l3.6.5 1.9.2c.3.1 1.8 0 1.9.3s-2 1.1-2.3 1.2c-3.9.9-7.9 1.3-11.8 2.6a15.2 15.2 0 00-4.9 2.5 18.8 18.8 0 00-3.6 4.9c-1.1 1.9-2.1 3.8-3.3 5.5s-1.3 2-2.4 1.5a47.3 47.3 0 01-6.4-3.1 32 32 0 01-7.1-4.3c-.5-.5-1.3-1.1-1.4-1.8l.3-.3a5.6 5.6 0 012.1-.9c4-1.1 8.5-1 12-3.3s7.2-6.4 10.3-10c.8-1-.6-2.4-1.4-1.4z"/><path class="c" d="M130.2 275.7c4.5-8.3 1.1-17.8 3.1-26.7.7-3.3 2.2-6.5 3-9.9s1.2-8.7 1.9-13.1a3.4 3.4 0 01.7-1.9 2.4 2.4 0 012.4-.7 2.7 2.7 0 011.2.9c2.6 3.1 2.5 7.1 1.8 10.8s-2.1 7.3-1.7 11l9.8-3.4c.9-.3 1.9-.6 2.6-.1s.5.6.7.9.7 2.5 1 3.8a19 19 0 00-10.9 4.9 22 22 0 019.6-4.2 6.6 6.6 0 012-.1 3.2 3.2 0 012.4 2.2 10.2 10.2 0 011 4.5 1.4 1.4 0 01-.4 1.2 3.3 3.3 0 01-2.2.1 17.7 17.7 0 00-9.4.9 46.7 46.7 0 019.1-.8 2.1 2.1 0 011.4.4 1.7 1.7 0 01.1.7 9.6 9.6 0 01-4 5.9 2.9 2.9 0 01-1.7.7c-1.6.1-2.2-1.5-2.3-2.7a1.7 1.7 0 011.4-.5 2.5 2.5 0 00-1.5-.1c1.2 5.9-1.7 12.1-7.4 16.2h1.6a13.9 13.9 0 01-2.1 6.7 23.5 23.5 0 01-13.6-7.9"/><path d="M131.1 276.2c4.6-9 .9-19.1 3.5-28.5.7-2.5 1.7-4.9 2.4-7.4a49.7 49.7 0 001.4-7.7c.1-1.2.2-2.5.4-3.8s0-3.1.8-4c2.1-2.4 3.9 3.6 4.1 4.9.6 5.6-2.6 10.8-2.1 16.4.1.6.6 1.2 1.3.9l8.1-2.8c.8-.3 2.9-1.4 3.6-.7s.4 1.3.6 1.7.4 1.6.5 2.3l.7-1.2a20.1 20.1 0 00-11.2 5.2c-.8.7.2 2.2 1.1 1.5a23 23 0 016.6-3.4 11.7 11.7 0 013.7-.8c1.4 0 2.1 1.1 2.6 2.3s1.1 3.1.4 3.7-1.4.1-2 0H156a15.6 15.6 0 00-7.4 1.2.9.9 0 10.5 1.8 55.1 55.1 0 015.7-.6h2.6c.3 0 .8-.1 1 .2a4.2 4.2 0 01-.4 1 9.3 9.3 0 01-2.6 3.6c-.6.5-1.5 1.3-2.3.7a1.8 1.8 0 01-.7-1.5l-.5.8a1.5 1.5 0 01.9-.4 1 1 0 00.3-1.9 3.4 3.4 0 00-2 0 .9.9 0 00-.7 1.2c1.1 6-2.3 11.6-7 15a1 1 0 00.5 1.9h1.6l-1-1a13.3 13.3 0 01-1.9 6.2l1.1-.4c-5.1-1.2-10-3.6-13.2-7.7-.8-1-2.2.4-1.4 1.3a24 24 0 0014.1 8.2 1 1 0 001.1-.4 16.3 16.3 0 002.1-7.2c.1-.5-.4-.9-.9-.9h-1.6l.5 1.8c5.5-4 9.1-10.3 7.9-17.2l-.7 1.2h1l.2-1.9a3.3 3.3 0 00-1.9.6 1.1 1.1 0 00-.5.9c.3 1.9 1.4 4 3.7 3.6s4.4-2.9 5.4-4.8a7 7 0 00.9-3.2c-.2-1.1-1.2-1.5-2.2-1.6a38.6 38.6 0 00-9.6.9l.5 1.8a17.8 17.8 0 015.2-1.1c1.7-.1 3.3.4 5.1.4 3.5 0 2.4-4.7 1.5-6.8a5.1 5.1 0 00-2.3-2.9 6.4 6.4 0 00-4.3-.1 22.6 22.6 0 00-8.9 4.1l1.1 1.6a18.7 18.7 0 0110.4-4.7.9.9 0 00.7-1.2c-.3-1.5-.5-3.5-1.5-4.7s-2-1-3.1-.8a50.8 50.8 0 00-5.1 1.7l-5.6 2 1.3.9c-.5-5.6 2.6-10.8 2-16.4a10.7 10.7 0 00-2.5-6.2 3.2 3.2 0 00-5.2.4 9.5 9.5 0 00-.9 3.3c-.2 1.5-.3 3-.5 4.5a40.8 40.8 0 01-1.7 9c-.8 2.8-2 5.5-2.6 8.5a39.4 39.4 0 00-.6 7.7c0 6.2.7 12.6-2.2 18.3a1 1 0 001.7 1z"/><path d="M202.6 250.9a10.2 10.2 0 00-3.4 1 61.4 61.4 0 00-5.9 2.5c-5 2.2-9.9 4.6-14.7 7a88.6 88.6 0 00-10.1 5.4 8.9 8.9 0 00-3 3.1c-.6 1.3-.9 2.7-1.5 4a31.4 31.4 0 01-2.4 3.9c-5.1 8.5-10 17.1-15.1 25.6l-2.2 3.7-.2.2c-.1-.3 1.3.2 1.3.2a.1.1 0 01.1.1v-1.5c.4-4 1.1-8 1.5-11.9a37.6 37.6 0 00.3-5.8c-.1-1.1-.2-2.7-1.2-3.4a2.4 2.4 0 00-2.2.2c-.5.1-1.1.4-1.5.3a5.4 5.4 0 01-1.3-.7 7.1 7.1 0 00-3.1-1.3 1.1 1.1 0 00-.6 1.9 2 2 0 001.1.6 1.2 1.2 0 001-.8c.2-.8-.9-1.5-1.4-1.9s-3.6-2.7-5.5-3.9-5.5-3.9-7.9-2-1.7 4.7-2 7.1a42.1 42.1 0 01-1.1 6c-1.2 4.2-2.9 8.2-4 12.4a96.1 96.1 0 00-3.3 20.7 123.8 123.8 0 00-.2 13.6 34.2 34.2 0 001.1 7.9 18 18 0 005.3 8.2c4.6 4.4 10.7 7.5 17.1 6.3s10.5-5.1 14.4-9.1c5.8-6 10.6-12.8 15.3-19.6s10.6-15.4 15.4-23.4l2.5-4.2c.6-1.1-1.1-2.1-1.7-1-3.9 6.8-8.1 13.4-12.5 19.8s-9.8 14.4-15.3 21.2c-3.8 4.7-8.1 9.6-13.5 12.6a15.6 15.6 0 01-16-.6 23.3 23.3 0 01-8-7.9c-2.3-4.2-2.2-9.6-2.2-14.2a116.4 116.4 0 012-23.6 105.3 105.3 0 013.8-13.6 46.8 46.8 0 002.8-11c.2-1.6-.3-5.9 1.8-6.3s2.5.6 3.4 1.1a46.7 46.7 0 015.1 3.6l2.3 1.7.4.4c.2 0 .2.3.1 0v-.8l.9-.7c.2 0 .6.2.3 0s.1.1 0 0 .1 1.2.2.5l-.3.7c-.1.1-.7.4-.7.3h.1c.1.2.6.3.8.3a11.8 11.8 0 011.9 1.1 3.2 3.2 0 002.7.4 4.8 4.8 0 001.8-.6h-.4v.2c.1.2.1.5.2.7a26.8 26.8 0 01-.1 4.9c-.2 2.1-.4 4.2-.7 6.3s-.5 3.9-.8 5.8a9.7 9.7 0 00-.1 3.4c.3 1.3 1.5 1.2 2.2.3a33.7 33.7 0 001.9-3.2c5-8.1 9.7-16.5 14.6-24.6.7-1.3 1.5-2.5 2.2-3.7a13.5 13.5 0 001.5-2.6 29.9 29.9 0 011.5-3.8 11.4 11.4 0 014.1-3.1l5.2-2.8c4.6-2.4 9.2-4.6 13.8-6.8s7.2-3.5 11-4.6l.6-.2h.4c1.2-.1 1.2-2 0-2z"/><path d="M202.1 253.1a1 1 0 100-1.9 1 1 0 100 1.9z"/><path d="M203.6 250.9c5.7 6.7 37.6 22.2 44 15 6.8 3.1 11.9 5.6 18 5s10.2-8.3 10-12c-.1-.6 7-7 7-7 2-3 .8.4 5 2-4 6.3-4.6 12.7-6 20-9.1 44.5-9.5 87.7 0 132-.1 1.3-41.1 3.9-58.5 1.8 2.6-68.7-3-110.4-20.5-155.8" fill="#fff"/><path d="M203 251.4a29.1 29.1 0 006.2 4.9 94.9 94.9 0 009.9 5.4c6.7 3.2 14.1 6.3 21.5 6.8 2.5.1 5.6-.1 7.5-2.1h-.9c7.7 3.5 18.8 9.1 25.6 1a17.2 17.2 0 002.8-4.7 15.5 15.5 0 00.6-2.3 2.8 2.8 0 00.1-.9v-.5c0-.4-.1.1 0 0a37.1 37.1 0 015.6-5.6l1.1-1 .3-.4.4-.5v-.2c.2-.1 0-.1-.3-.1s1 1.4 1.2 1.6a6.9 6.9 0 002.7 1.7l-.5-1.1c-4.1 6.8-5 14.7-6.5 22.4s-3.1 17.6-4.2 26.4a319.2 319.2 0 00-1.9 53.5q.6 13.3 2.4 26.4c.6 4.5 1.3 9 2.1 13.4l1.2 6.6c.1.3.4 3.3.7 3.4s.3-.3.4-.3l-.9.3-1.6.2c-1.6.3-3.2.4-4.8.6q-7.4.6-14.7.9a256.4 256.4 0 01-32.8-.1 31.6 31.6 0 01-3.2-.3l.7.8c.9-23.4 1.1-46.9-.9-70.2a303.9 303.9 0 00-9.7-56c-2.8-10.1-6.1-20-9.9-29.8-.4-.9-1.8-.5-1.5.4a297.2 297.2 0 0115.4 53.2 365.9 365.9 0 015.6 60.9c.3 13.9.1 27.7-.5 41.5a.8.8 0 00.8.7c10.6 1.3 21.5 1 32.2.6 5.3-.2 10.5-.5 15.8-.9a61.5 61.5 0 009.5-1.1c.6-.1 1.5-.2 1.7-.9s-.4-2.1-.5-2.9a34 34 0 01-.7-3.4c-.4-2.2-.9-4.5-1.2-6.8a275.2 275.2 0 01-3.5-27.3 313 313 0 01.3-53.9c.9-9.2 2.1-18.4 3.7-27.5.7-4.4 1.6-8.8 2.5-13.2a73.9 73.9 0 012.6-11.3 28.1 28.1 0 012.7-5.5.7.7 0 00-.4-1.1 6.4 6.4 0 01-2.5-1.8 5.4 5.4 0 00-.9-1.2c-1.1-.9-1.8.5-2.4 1.2s-3.6 3.3-5.3 5-1.6 1.4-1.8 2.2a9.9 9.9 0 00-.2 1.7 7.9 7.9 0 01-.8 2.6c-1.5 3.6-4.6 6.9-8.7 7.3-6.1.5-11.9-2.5-17.3-5a1 1 0 00-.9.1c-1.5 1.7-4 1.8-6.1 1.7a40 40 0 01-9.7-2.1 90.1 90.1 0 01-20.2-9.3 29.5 29.5 0 01-6.9-5.3c-.6-.7-1.7.4-1.1 1.1z"/><path d="M263.8 273.2c2.5 2.3 5.2 4.4 7.9 6.6.5.3 1.2.4 1.5-.2 2.6-4.4 4.4-9.1 6.6-13.6a45.6 45.6 0 019-12.8c.8-.8-.5-2.2-1.4-1.3a44.6 44.6 0 00-9.1 12.8c-2.3 4.6-4.2 9.4-6.7 13.9l1.5-.2c-2.7-2.1-5.4-4.3-7.9-6.6-.9-.8-2.3.5-1.4 1.4zm-62.1-20.7A422.8 422.8 0 01235 282a1 1 0 001.7-.7c.1-3 1.9-5.9 3.4-8.4s2-3.1 3.1-4.6-.9-2-1.7-1a56.5 56.5 0 00-3.4 5.1c-1.6 2.7-3.2 5.7-3.4 8.9l1.7-.7a444.1 444.1 0 00-33.3-29.5c-1-.8-2.4.6-1.4 1.4z"/><path class="e" d="M248.7 267.5c-11.6-.4-4.2 10.6 5 12 3.3.5 10.5-4.3 11-7 .2-1.2-.8-1.1-1-1-4.3 1.6-13.7-3.9-15-4z"/><path d="M248.7 266.8c-1.9-.1-4.2 0-5.7 1.4a3.7 3.7 0 00-.8 3.8c1.1 3.6 5.1 6.3 8.6 7.5a8 8 0 005.9.3 18.2 18.2 0 006-3.5c1.2-1 3.4-2.9 2.7-4.7a1.6 1.6 0 00-2-.8 6.2 6.2 0 01-2.7.2 31.2 31.2 0 01-7.3-2.4l-2.9-1.2a3.5 3.5 0 00-1.8-.6c-.9-.1-.9 1.4 0 1.5h.3l.7.2 2.1 1a52 52 0 005.5 2.1 12.9 12.9 0 005.5.8l1.1-.2c.1-.1.2-.2.1.1a3.6 3.6 0 01-1.1 1.6 15.5 15.5 0 01-4.8 3.6 7.4 7.4 0 01-5 1 14.1 14.1 0 01-8.8-5.6c-.6-1-1.2-2.4-.5-3.4s3.4-1.4 4.9-1.3a.8.8 0 000-1.4z"/><path class="e" d="M251.6 279a289.2 289.2 0 01-.3 61.7c-.8 7.9-1.9 16.6 2.6 23.3 1.9 2.8 4.6 5 7.2 7.3a104.1 104.1 0 0115.1 16.7c7.2-13.3 3.7-31.6-8-41.3-2-1.7-4.3-3.2-6-5.1-3.9-4.4-4.9-10.6-4.8-16.4s-1.7-38.4-5.7-46.7"/><path d="M250.9 279a301.8 301.8 0 01.7 50.3c-.3 4.1-.7 8.1-1.1 12.2a74.1 74.1 0 00-.7 10.5 26.5 26.5 0 001.9 9.6 24 24 0 006.4 8.1 110 110 0 0117.4 18.7c.4.4 1.1.5 1.3 0a34.2 34.2 0 002.5-25.5 35.8 35.8 0 00-5.9-11.9 31.9 31.9 0 00-4.4-4.6 80.2 80.2 0 01-6.3-5.3c-5.3-5.9-4.3-14-4.6-21.3s-.9-14.1-1.6-21.1c-.5-4-1-8-1.8-12a36.4 36.4 0 00-2.3-8.6c-.4-.8-1.7-.1-1.3.8a34.9 34.9 0 012 7.2c.7 3.5 1.2 7 1.6 10.5.9 7.1 1.4 14.1 1.8 21.2s-.5 13.2 2 19.3a16.5 16.5 0 003.9 5.8c1.9 1.8 4.1 3.3 6.1 5a31.5 31.5 0 017.7 10.7 33.2 33.2 0 01-.7 29h1.3a101.9 101.9 0 00-14.5-16.3c-2.8-2.4-5.8-4.6-7.8-7.7a21 21 0 01-3.1-9.8c-.6-7.4 1-14.9 1.5-22.3s1-16.4.9-24.6-.5-18.6-1.4-27.9c-.1-1-1.6-1-1.5 0z"/></svg>