<svg xmlns="http://www.w3.org/2000/svg" viewBox="0 0 496.8 597.6"><path d="M202.1,249.7c-11,5.3-27.8,10.6-36.2,17.6-2.8,2.4-9.2,16.4-10.6,19.9-16,37.9-14.4,11-8.3-4l-20.2-9.9c-2.9.7-15.6,51.6-13,53.6-.3,1.6,1.6,13.9,1.5,15.6-.5,6.2,5.8,9.7,10.9,12.9,14.5,9.2,32.5-13.4,32.6-16.6h0c.4.2,9.6-11.3,9.5-13.9,0-1,.6,1.7,4.1-6.4-9.7,25-5.4,54.3-6.2,80.6,47,13.4,95.9,10.9,145,5,22.8.5,20.7-101.8,14.7-90.4-1.9,5.1,23.4,31.2,20.9,35.8-5.6,9.6-33.2,51.2-26.5,52.8,24.9,2.3,18.6,9.4,31.1-14.1,1.8-2.9,8.4-11.2,21.4-27.8,4.5-5.4,7.8-12.8,6-19.9-.9-2.6-35.4-57.8-38-59.6s-10.1-11.2-12.9-11.9c-11.1-2.7-36.3-13.7-45.3-19.3.4-1.1-6.6,7.6-9,8,1.5,16.4-19.3,13.7-27.1,7.7-7.6,4.3-28.3-1.2-44.7-15.9" fill="#454545"/><path d="M165.9,399.2c3,16.5,11.1,32.1,14.9,48.6,5.3,22.9,2.6,47.4,1.2,70.5,10.5-.7,24-1.2,34.5-1.9-3.8-31.6.2-70.3,31-88.3.9-.5-1.9-1.1-.8-1.2,2.8-.2,5.5,3.1,6.6,4.9,13.3,22.2,8.5,46.9,12.8,70.8,0,3.7,11.1,2.5,13.4,3.4s3.6,0,3.9-1.8c9.4-30.2,28.9-73.2,31.5-104.4-10-.5-18.7,1.5-28.4,3-16.6,2.3-33.9,2.2-50.7,3.1-15,0-50.8-5.4-66.2-6.8" fill="#454545"/><path d="M184.7,520.4c-3.3,8.3-15.3,10.2-22.4,13.6-17.1,8.6,9.3,8.9,15.5,6.2s8.8-10.3,16.4-11.3c9.4.1,18,1.4,13.3-11-7.5-.1-15.8,1.9-23.2,3.1"/><path d="M262.8,506.1c.8,2.9,1.5,8.8,5.7,8,15.1-.3,27.9,9.8,43.1,8.2,4.6-.4,2.4-5.3-1.5-6a23,23,0,0,0-7.4,0c-10.3,2.9-12.9-6.9-20.3-10.5-6.1-1.7-13.2.7-19.6-.8"/><path d="M171.2,316.8c-8.2,22.9-4.9,48.1-5.7,71.7.2,4.2-2.4,9.5,3,11.2,15.6,9.1,30.7,21.3,48.6,25.5,3.1-4.9,2.2-12.8,3.9-18.7l-1,.7c16.3,1,32.8,1,49-1.9,2.9-.6,6.5-2,9.3-.4.3,0,0-.1,0-.3s.1.4.1.6c1.8,3.2,2.1,11.5,5,12.9,12.7-3.9,33.4-13.3,41.2-23.1,8.4-30.4,5.7-62-.2-92.6-4.3-5.6,2.9,26.4,2.1,28.8,3.8,19.8.6,46.4-3.9,63.9a120.9,120.9,0,0,1-39.7,21.2l1.2.6c-5.8-24.8-8.4-10.9-35.1-11.3-32.5,3.1-28.7-10.4-32.8,18.3l.9-.7c-18.1-4.5-33.3-17.1-49.3-26.2a1.5,1.5,0,0,1-.8-1.8c1.3-12.6.2-25.5.3-38.1s1.3-27,5.8-39.7c.4-1.2-1.5-1.7-1.9-.6Z"/><path d="M165.1,397.3c3.1,17.6,10.8,33.9,14.5,51.3,4.7,23.5,1.1,47.4,2.1,71.2,0,1.3,2,1.3,1.9,0-1.1-22.8,2.3-45.8-1.5-68.4-3.4-19-11.4-35-15.1-54.6-.2-1.2-2.1-.7-1.9.5Z"/><path d="M215.7,516.4c-.3-13-.6-26,1.4-38.9,2.3-16.2,9.2-32,20.8-44,16.9-17.1,23.2,20.5,24.5,31.9,1.7,14.1,1.3,28.2,1,42.4-.1,1.2,1.9,1.2,1.9,0,.3-13.4.7-26.8-.7-40-6.4-63.8-35.6-43.6-48.3,3.3-1.5,3.9-5.7,49.4-.6,45.3Z"/><path d="M312.6,403c1.6,37-26.3,66.3-31.8,101.7l.9-.7c-2,.9-24.5-1.5-18.8,2.1,6.3-.4,14.1,1.2,19.7-.9,5.6-35.5,33.8-65.1,31.9-102.2C315,401.4,312.1,401.3,312.6,403Z"/><path d="M215.9,515.9c-3,.5-38.2.7-33.9,5.1,5.5-.5,10.7-2.4,16.2-2.2l17.7-1c1.2,0,1.2-2,0-1.9Z"/><path d="M183.7,520.5c-4.6,8.5-15.2,9-23.3,13.2-13.1,7.4,2.3,9.3,9.4,8.4,17.7,1.7,14.6-17.4,33.4-12,4.4.2,8.8-4.7,5.4-8.5s3.9,9.4-9.9,5.7c-11.7-2.9-15.1,13.5-26.1,12.7-2.7-.2-16,1.8-15-2.1,7.8-7,23.5-6.1,28-16.9C186.1,519.9,184.2,519.4,183.7,520.5Z"/><path d="M262.8,506.5c-2.3,11.4,6.5,8.2,14.1,9.7,12.2,2.8,24.7,10,37.4,6.9,7.7-11-16.8-5.3-21.6-8.7s-5.7-6.7-8.8-9.9a1,1,0,0,0-1.2-.8h0c-2.5,2.3,3.4,5.2,4.2,7.5,2,11.1,33.6,2.7,25.7,10.9l.9-.4c-16.8,1.9-31.2-8.8-47.8-8.6-1.9-.7-1-1.8-1-3v-3.6a.9.9,0,0,0-1-1,1,1,0,0,0-1,1Z"/><path d="M285.3,253c-19,52.9-17.4,111.3-2.6,165,.4,1.1,2.2.6,1.8-.6h0c-14.6-53.3-16.4-111.3,2.7-163.9A1,1,0,0,0,285.3,253Z"/><path d="M200.4,251.5c18.6,27.3,17.4,61.9,18.9,93.6,1,25.2,1.1,53.9-2.1,79.6-.2,1.2,1.8,1.2,1.9,0,4.3-36.5,2.7-73.2.8-109.8-1.2-22.4-4.8-45.6-17.8-64.4-.7-1-2.4-.1-1.7,1Z"/><path d="M199.9,251a204.3,204.3,0,0,1-8.9,31.7.9.9,0,0,0,.5,1.2l8.3,1.2-.5-1.4c-2.2,3.7-9.8,9.1-4.5,13,15.6,13.2,25.6,33,24.4,53.7-.1,1.2,1.9,1.2,1.9,0,1-20.7-8.6-40.5-23.8-54.1-1.1-1-3.1-2.1-2.4-3.6s4.4-5.6,6-8-8-2.1-8.7-2.6l.7,1.2c.9-2.6,12.8-36.9,7-32.3Z"/><path d="M282.3,250.8c20.3,12,49.5,13.8,61.2,36.6,6.9,11.9,16.4,29.4,23.6,40.8,3.5,5.9,10.9,9.6,11.9,16.7-.2,12.3-17.7,22.9-23.7,34.1-5.1,7.5-11.2,14.5-15.3,22.6-1,3.8-4,6.6-7.8,4.4-15.2-5.9-6.9-16.9-1.2-27.6s15.2-21.9,15.8-34.2c-5.9-7.9-11.8-15.9-17.1-24.1-1-1.2-4.6-8.2-4.6-3.4,6.1,9.8,13.3,19.4,20.2,28.7.6.4,0-.4-.1-.2s0,.5-.1.7c-4.5,18.8-22.3,33.5-23.7,52.8,2.4,5.4,11.9,13.5,18.2,8,1.7-2.5,2.4-5.5,4.1-7.9,6.4-9.4,13-18.8,20.2-27.7s24.8-21.5,13.2-34.3c-9.9-9.3-18.7-27.9-25.7-39.4s-14-26-28.1-30.9a298.3,298.3,0,0,1-40-17.4C281.1,247.9,281.2,250.2,282.3,250.8Z"/><path d="M285.3,253.4a194.6,194.6,0,0,0,11.2,31.3l.6-1.4-8.1,1.8c-.8.1-.9,1.1-.5,1.6s7,6.7,6.7,8.4c-4.3,5.2-9.2,10.2-12.6,16.1a70.1,70.1,0,0,0-9.6,26.4c-.4,2.1-1.7,20.4,1.9,15.8-2.4-20.3,5.7-40.2,19.9-54.6,5.9-4.6-1.9-9.7-4.9-13.5l-.4,1.6c.8-.6,10.2-.9,8.7-3.2a176.5,176.5,0,0,1-11-30.8,1.1,1.1,0,0,0-1.4-.5A1,1,0,0,0,285.3,253.4Z"/><path d="M318.5,399.1c-3.5,4.2-8.4,9.4-11.5,10.6s-11.1,1.5-13,3.9,12.8,10.1,16,10.9,4-4.6,7.5-10,20-6,21-8.6-18.3-1.6-20.2-6.9" fill="#ff9b58"/><path d="M317.9,398.4c-3,3.4-6.2,7.3-10.1,9.8s-8.1,1.7-12,3.1c-7.2,2.8.7,8.1,4.5,9.7,16.8,11.3,11.2-3.3,22.4-9.5,5.8-2.8,11.8-1.3,16.5-4.8,2.6-5.4-9.1-3.3-12.1-4.9s-6.9-.9-8.2-3.4c-.7-1-2.1.4-1.3,1.3a6.8,6.8,0,0,0,5,3,73.5,73.5,0,0,0,11.2,2.1c1.8.5,6.7-.2,1.5,1.7-11.6,1.4-18.5,4.3-23.4,15.4-1.2,1.7-1.3,2-2.4,1.5-5.1-2.6-11.4-4.5-14.8-9.1h0c12.7-4.4,14.7-2,24.5-14.5.8-.9-.6-2.3-1.3-1.3Z"/><path d="M129.4,274.7c4.4-8.3,1.1-17.7,3-26.6a93.7,93.7,0,0,0,4.9-22.8c-.1-2.3,2.9-3.7,4.3-1.7,5.3,6.4-.6,14.5.1,21.6,1.9-.3,10.6-4.5,12.3-3.4s1,2.5,1.7,4.6a18,18,0,0,0-10.8,4.9c5.5-4.6,16.9-7.4,14.5,3.6-3.8.3-7.9-.8-11.6,1,3.4-.4,7.2-1.5,10.5-.4.8,3.7-6.9,11.1-7.9,4.5a1.8,1.8,0,0,1,1.4-.4,2,2,0,0,0-1.5-.1c1.2,5.8-1.7,12-7.3,16h1.6a13.2,13.2,0,0,1-2.1,6.7,23.5,23.5,0,0,1-13.5-7.8" fill="#ff9b58"/><path d="M130.3,275.2c4.5-9,.9-19,3.4-28.4,3.2-7.2,3.4-15.3,5-22.7,2.1-2.4,3.9,3.6,4.1,4.8.6,5.6-2.6,10.8-2.1,16.3.1.6.6,1.2,1.3.9l8-2.7c4.1-2.1,4.1-.3,4.7,3.2l.7-1.2c-2-.7-15.8,6-10,6.7,3.2-1.9,10.5-7.2,12.8-1.9,1.1,2.1,1.1,4.9-1.6,3.7-7-1.1-16.4,4.3-2.8,2.4.7.1,3.1-.3,3.6.2-.4,2.2-5,8.3-6,3.7l-.5.8c4.9-1.4-1.5-4-1.5-1,3,10.4-13.4,17.2-4.8,16.7l-1-1a13.6,13.6,0,0,1-1.9,6.2l1.1-.4c-5.1-1.2-10-3.6-13.1-7.6-.8-1-2.2.4-1.4,1.3a23.8,23.8,0,0,0,14,8.1c2.6-.6,2.8-5.2,3.2-7.6s-1.8-.7-2.5-.8l.5,1.7c5.4-3.9,9-10.2,7.8-17l-.7,1.1h1l.2-1.8c-4.2-.2-1.9,5.7,1.3,5s6.1-4.5,6.3-7.9c-2.2-3.5-8.3-.9-11.8-.7l.5,1.8c3.4-1.4,6.7-1.1,10.3-.7s2.4-4.7,1.5-6.8c-2.6-6.6-11.5-1.7-15.4,1.1l1.1,1.6a18.5,18.5,0,0,1,10.3-4.7.7.7,0,0,0,.7-.8v-.2c-.5-10.6-9.4-3.2-15.2-2l1.3.9c-.5-5.5,2.6-10.7,2-16.3s-7.8-11.2-8.6-2.4-2.6,14.6-4.7,21.8,1.2,17.8-2.8,25.9a.9.9,0,0,0,.5,1.2,1.1,1.1,0,0,0,1.2-.2Z"/><path d="M201.3,250c-11.8,3.8-23,9.9-33.9,15.8-9,12.2-15.5,27.3-24.2,40.3-.1-.3,1.5.2,1.4.3h0c-.4-7.4,3.9-15.8.6-22.5-1.7-.7-3.5,1.5-5-.2s-5.2-2.1-3.7.6c.6.7,1.8.8,2.1-.2s-3.9-3.4-6.8-5.8c-11.2-8-9.1,3.9-11,11.1-7.2,20.8-19.2,69.3,15.9,68.6,19.7-6,32.9-35.2,44.8-51.7l2.5-4.2c.6-1.1-1.1-2.1-1.7-1a363.6,363.6,0,0,1-27.6,40.7c-9.3,14.1-26.7,21.4-37.3,4.1-5.1-16.3-1.3-35.1,3.6-51.1,5.8-12.6-2.1-25.4,15.7-10.4.2,0,.2.3.1,0v-.8h0l.9-.7c.2,0,.6.2.3,0s.1.1,0,0,.1,1.2.2.5-.6,1.1-1,1h.1c2.3,1.1,4.7,2.9,7.2,1.2h-.4c1.8,3.5-5.6,32.1,2.6,18.3,5.6-9.3,11-18.9,16.6-28.2,2.3-3.3,2.6-8,7.1-9.4,9.3-4.9,20.2-10.8,29.8-14.1.1,0,.8-.3,1-.2s1.2-2,0-2Z"/><path d="M200.8,252.2c1.7.5,1.7-2.4,0-1.9S199.1,252.7,200.8,252.2Z"/><path d="M202.3,250c5.7,6.7,37.4,22.1,43.7,14.9,11.7,6.7,26.2,8.2,27.8-6.9-.1-.6,7-7,7-7,2-3,.8.4,5,2-16.7,48.5-15.8,101.1-6,151-.1,1.3-40.8,3.9-58.1,1.8,2.6-68.2-3-109.7-20.4-154.8" fill="#fff"/><path d="M201.7,250.5c9.1,7.9,33.4,22,44.8,14.9h-.9c10.6,6.1,27.2,9.1,28.9-7.3,1.5-2.2,5.3-5,7.4-7.5v-.2c-1.3-.4,2.6,3.3,3.6,3.2l-.5-1.1c-15.8,42.3-16.4,108.3-5.8,150.8a258.1,258.1,0,0,1-57.6,1.6l.7.8c1.5-50.1.9-113-21.9-154.6,14.4,36,20.6,74.7,20.9,113.4,1.1,13.7-1.5,29.2.3,41.9,15.8,1.8,31.9.7,47.7-.3,3.5-.5,8.2.1,11.1-2-2.5-13.2-4.9-26.6-5.9-40.1-2-36.8-1-75.9,11.8-110.7.6-1.6-3.1-1.9-3.8-4.1s-1.8.5-2.4,1.2-3.6,3.3-5.3,5-1.6,1.4-1.8,2.2c-2.3,17.2-17,10.8-27.7,6.6-10.2,6-34.5-7.5-42.6-14.9C202,248.6,200.9,249.9,201.7,250.5Z"/><path d="M262.1,272.2c2.3,1.3,7,7.6,9.4,6.3,5-8.9,7.8-19,15.5-26.2-.7-8.9-16.4,23.2-17.1,25.2l1.5-.2c-1.6-.6-10.5-10.4-9.3-5.1Z"/><path d="M200.4,251.6c12.2,8.4,22.9,21.8,34.5,29.3.7-4.7,4.1-10.1,6.7-13.6.2-6.7-9.4,10.7-8.4,12.9l1.7-.7c-2.7-2.2-36.2-35.4-34.5-27.9Z"/><path d="M247.1,266.5c-11.5-.4-4.2,10.5,5,11.9,2.6,1.1,14.3-6.5,9.9-7.9C257.7,272.1,248.4,266.6,247.1,266.5Z" fill="#f4380c"/><path d="M247.1,265.8c-15.3-.2-.4,16.5,8,12.9,3.2-1.5,8.9-3.9,8.6-8.1a1.5,1.5,0,0,0-2-.8c-3.4.8-6.8-1-9.9-2.2-1.2-.4-3.4-1.7-4.7-1.8s-.9,1.4,0,1.5c4.9,1.4,9.7,5.1,15.1,3.9-7.9,15.8-30.2-4-15.1-4a.7.7,0,0,0,.2-1.1C247.3,266,247.2,265.9,247.1,265.8Z"/><path d="M250,277.9a285.5,285.5,0,0,1-.3,61.3c-.8,7.9-1.9,16.5,2.6,23.2,7,8.1,16.2,14.6,22.1,23.8,7.2-13.2,3.7-31.4-7.9-41-7.6-4.7-11.3-12.5-10.7-21.4.1-5.7-1.7-38.1-5.7-46.4" fill="#f4380c"/><path d="M249.3,277.9a309.2,309.2,0,0,1,.7,50c-.3,10.6-4,21.8.1,32.1,6.1,10.2,17.3,16.3,23.6,26.6.4.4,1.1.5,1.3,0,9.2-16.8,1.2-36.9-14-47-8-11.1-3.2-28.9-6.1-42.1-.3-2.3-3-25-5.4-19.7,6.7,18.4,3.1,39.5,7.3,57.9,1.7,4.8,6.2,7.6,10,10.7a33,33,0,0,1,6.9,39.4H275c-6.6-12.5-24-18.4-25.2-33.5,1.1-24.9,4.2-48.7,1-74.4-.1-1-1.6-1-1.5,0Z"/></svg>