<svg xmlns="http://www.w3.org/2000/svg" viewBox="0 0 500 600"><defs><style>.a{fill:#454545}.c{fill:#fff}.d{fill:#f4380c}.e{fill:#ff9b58}</style></defs><path class="a" d="M197.6 251.9c-11.5 5.3-18.6 11-30.1 16.3-9.9 4.5-12.7 5-14.8 8.3-8.8 13.2 13.5 39.7 13.5 39.7-.1 0-.6 50-.9 50s-4.3-5.8-1.5-28c-5.3 25.8 1.6 33.2-1.2 58.8-.1 1.3-.4 2.8.7 3.8s2.5 1.4 4.1 1.7c48.8 10.5 99.5 10.9 149.6 4.5 3.4-.4 9.2-5.8 10-8.2s.1-2 .7-2.9 4.6-31.3 5.4-31.5-3.3-47.2-1.3-52a2.4 2.4 0 011-1.2c7.4 14.3 19.8 20.6 25.8 18.4s7.4-10.7 5.4-20.6c-8.1-11-9.3-25.5-16.5-29.4-4.3-5.3-28.3-21-44.4-21.8-2.3-.1-13.9-5.4-15-3-6.2 13.7-41.5 36.9-39.8 32-18.4 4.6-36.5-22-46.3-36.8"/><path class="a" d="M164.3 403c3.2 16.7 12.6 32.4 15.2 49.3 3.5 22.7 2 48.4.5 71.7 11.3-.7 24.9-3.4 36.2-4.1a106.6 106.6 0 015.9-57.1c4.7-12.2 12.5-24.8 27.5-31.8 1-.5-2-1.1-.8-1.1 3-.3 4 3.1 5.2 5.1 10.7 17 11.1 31.4 12 50 .3 5.7-.8 22.7.1 22.8 3.7.4 10.3.6 14 1 1 .1 4-.1 4-1-.1-3.4 13.8-38.9 21-54 8-16.7 10.7-33.1 12-51-10.7-.5-15 1.3-25.5 2.8-12.1 1.7-25.3 2-37.7 2.4-5.7.1-11.3.7-16.9.7-8 .1-16-.8-23.8-1.6l-47.6-5.3"/><path d="M179.7 523.9a15.9 15.9 0 01-6 6.4 32.8 32.8 0 01-6.6 2.8l-12.8 4.5a20.2 20.2 0 00-3.9 1.9 8.6 8.6 0 00-2.2 2.5 1.2 1.2 0 00-.4.8 1.3 1.3 0 00.4.7c1 1.1 3.2 1.4 5.1 1.6a73.6 73.6 0 0011.5 0 22.3 22.3 0 007-1.2c3.8-1.4 6.7-.6 9.2-2.9s5.3-8 9.5-8.5 8.3.9 11.9-.3a10.3 10.3 0 003.1-1.7 3.8 3.8 0 001.5-1.6 2.8 2.8 0 00-.1-1.8l-1.3-5.3-.2-.4h-.9a101.9 101.9 0 00-15.6 1.6l-9.6 1.5m86.5-15c.3 2.3-2 4.3-.8 6.5.2.4 3.6 1 4 1.3a3.8 3.8 0 002.4.3c7.5-.2 14.5 2.3 21.4 4.6s14.1 4.4 21.5 3.6a4.8 4.8 0 001.7-.5 1.8 1.8 0 00.9-1.4c.3-1.8-1.8-3.5-4.1-4.1a24.8 24.8 0 00-7.2 0 17.9 17.9 0 01-7.3-.2c-6-1.7-7.2-8.3-13-10.4-3.7-1.2-8-.3-12-.2a63.2 63.2 0 01-7.5-.6" fill="#262626"/><path d="M168.2 308.4c-4.3 12-5.4 24.9-5.8 37.6s.2 26 .1 39c0 2.7 0 5.5-.2 8.3a18.4 18.4 0 01-.3 4.1c-.3 1.6-.2 2.8 1.3 3.8s5.6 3.2 8.3 4.7c8.4 4.6 17 9.1 25.7 13.2q7 3.4 14.4 6.3c3.5 1.3 7.2 2.7 10.9 3a1 1 0 001.1-1.1v-19l-1.1 1.1a47.8 47.8 0 017.6.8 115.4 115.4 0 0014.4.4 154.8 154.8 0 0025.4-2.3 44.5 44.5 0 017.3-1.2 5.9 5.9 0 012.3.4l.4.2h.2c.3 0-.1.3 0-.1s-.1-.5-.1-.2.1.2.1.3c1.1 4.3 2.7 8.4 4 12.6a1.2 1.2 0 001.4.8c3.8-.7 7.5-2.4 11.1-3.9s9.6-4.4 14.3-6.8 8.6-4.5 12.8-7l4.2-2.7a10.3 10.3 0 002.5-2.1 1.5 1.5 0 00-1.1-2.3l-1.3.2c-.6.1-1 0-.1.5s.5.7.6.2a1.8 1.8 0 01.1-.5c.1-.4.1-.8.2-1.2s.5-2 .7-3c.6-3 1.3-5.9 1.9-8.9a143.6 143.6 0 003.1-21.7 147.1 147.1 0 00-.8-17.6c-1.1-12.5-2.6-25-4.8-37.4-.2-.8-.3-1.7-.5-2.6s-2.5-.8-2.2.6c2.4 11.3 3.6 22.9 4.8 34.3.6 5.9 1.1 11.9 1.3 17.9a108.7 108.7 0 01-2 20.5c-1 5.7-2.4 11.3-3.6 16.9-.2 1-.7 2.5-.4 3.5s1.2.9 2 .7.7-.3.9-.1-.6 0-.8-.8.1-.5 0-.3v-.2c.2-.1-.2.2-.2.2l-.5.5-3.2 2.2c-3.7 2.3-7.6 4.5-11.5 6.5s-9.3 4.8-14.1 7a87.8 87.8 0 01-12 4.7l-2.1.5 1.4.8c-1.3-3.9-2.5-7.8-3.8-11.8a5.3 5.3 0 00-.5-1.5 4.2 4.2 0 00-2.4-1.4 16.2 16.2 0 00-6.2.2c-3.3.6-6.5 1.3-9.8 1.8a116.5 116.5 0 01-14.5 1.1 129.3 129.3 0 01-17.6-.1 85.7 85.7 0 00-9-.9 1.1 1.1 0 00-1.1 1.1v19l1.1-1.1a40.5 40.5 0 01-8.9-2.4c-4.1-1.6-8.2-3.3-12.3-5.2-8.6-4-17.2-8.4-25.6-13l-9-5-1.6-.8c-.7-.5-1.3-.7-1.1-1.7a7.6 7.6 0 00.3-2.1c.2-2.7.3-5.5.3-8.2.2-12.4-.3-24.9-.2-37.3.3-14 1.1-28.3 5.9-41.5.5-1.4-1.7-2-2.2-.6z"/><path d="M162 400.1c3.2 17.5 11.1 33.9 15 51.2a112 112 0 012.5 22.3c.2 8.2 0 16.4-.1 24.6s-.5 16.8-.1 25.2c0 1.4 2.3 1.4 2.2 0-.6-15.7.6-31.4.3-47.1a124.1 124.1 0 00-1.9-22c-1.6-8.8-4.5-17.3-7.3-25.8s-6.6-19.1-8.4-29c-.3-1.4-2.5-.8-2.2.6zm53 119.8c-.3-13.1-.6-26.3 1.4-39.3a86.5 86.5 0 0111-30.6 74.8 74.8 0 0110.6-13.2c2-2 4.2-4.1 7-4.8s5.4 1.3 7.4 3.4c3.7 3.9 5.7 8.9 7.2 14.1a119.6 119.6 0 013.9 18.9c1.7 14.2 1.4 28.5 1 42.8a1.2 1.2 0 002.3 0c.3-13.5.6-27-.8-40.4a133.9 133.9 0 00-3.6-19.9c-1.5-5.4-3.3-10.8-6.8-15.2-1.7-2.1-3.8-4.4-6.3-5.5a9 9 0 00-7.8.8 29.8 29.8 0 00-6.6 5.7 75.6 75.6 0 00-5.8 6.9 81 81 0 00-13.7 30.5c-3.3 15-3 30.5-2.6 45.8a1.1 1.1 0 002.2 0z"/><path d="M315.2 406.9a76.9 76.9 0 01-1.7 19.7 148 148 0 01-6.2 19.2c-5.3 13.5-12.5 26.1-18.1 39.5a95 95 0 00-6.5 22.7l1-.8c-6.5.3-13 .3-19.6.2a1.1 1.1 0 000 2.2c6.6.2 13.1.1 19.6-.1.5-.1 1.1-.4 1.1-.9 2.1-14.4 8.6-27.6 14.8-40.5s12.2-25.5 15.7-39.1a82.6 82.6 0 002.2-22.1 1.2 1.2 0 00-2.3 0zM215 519.2l-18.2 1a83.1 83.1 0 00-8.6.7c-2.8.4-5.5 1.5-8.5 1.5a1.2 1.2 0 000 2.3c2.8 0 5.3-.9 8-1.5a55.8 55.8 0 019.1-.7l18.2-1a1.2 1.2 0 000-2.3z"/><path d="M181.5 523.7c-1.7 4-6.1 6.3-9.9 8s-9.6 3.2-14.2 5.3c-1.9.9-4.3 1.9-5.2 3.9s.1 3.4 1.7 4.2a14.4 14.4 0 006.2.9c2.2 0 4.5.1 6.8 0 4.2-.1 9.5-.2 12.9-3.1a18.6 18.6 0 002.3-2.6 29.1 29.1 0 014.9-4.4 13.4 13.4 0 016.4-3.2c2.7-.3 5.3 1.1 8 1.1a7.9 7.9 0 006.4-2.7 4.7 4.7 0 00-.3-6.1c-.9-1.1-2.5.5-1.6 1.6s-.2 4-2.2 4.6-4.4 0-6.7-.4c-4.1-.9-7.5.4-10.8 2.9a31.1 31.1 0 00-5.2 4.4c-.7.8-1.3 1.7-2.1 2.5s-5.6 2.7-8.8 3a91.4 91.4 0 01-11.7.1c-.9 0-4.8-.2-4.2-1.8s1.6-1.6 2.4-2a24.1 24.1 0 013.3-1.5c4.6-1.9 9.4-3.2 14-5.3s7.8-4.3 9.5-8.2c.6-1.4-1.3-2.5-1.9-1.2zm82.4-13.8v3a17.1 17.1 0 000 3.2c.3 1.6 1.6 2.3 3.1 2.7s3.7.2 5.6.4 4.2.4 6.4.7a65.6 65.6 0 0112.2 3.6 49.4 49.4 0 0011.8 3.3 80.8 80.8 0 0013 .5c.9 0 1.4 0 2-.7s1-1.3 1.4-2a2.5 2.5 0 00-.8-3.4c-2.7-2-6.3-2-9.5-1.9a74.6 74.6 0 01-9.5-.5 14.3 14.3 0 01-4.1-.9 9.8 9.8 0 01-3.7-2.7c-.3-.5-.5-1.1-.9-1.7a11.9 11.9 0 00-1.5-1.8c-1.1-1.3-2.5-2.4-3.3-3.9a1.1 1.1 0 10-1.9 1.1c1.2 2.4 3.8 3.9 5.1 6.2a7.4 7.4 0 001.7 2.5 12.4 12.4 0 003.4 2.2c2.2 1.1 4.8 1.2 7.2 1.4s6 .3 9.1.3a14.6 14.6 0 015.1.7l1.3.7c.4.3.4.2.3.7s-1.1 1.3-1.5 2l1-.6a85.9 85.9 0 01-15.2-.6c-4.8-.8-9.1-2.9-13.7-4.5a62.6 62.6 0 00-14.3-2.9c-2.1-.2-4.6.2-6.6-.5s-1-1.7-1-2.9v-3.7a1.2 1.2 0 00-2.3 0zM286.5 253a233.2 233.2 0 00-13.6 65 286.8 286.8 0 003.5 66.1c2.1 12.4 4.9 24.7 8.2 36.8a1.1 1.1 0 002.2-.6 328.7 328.7 0 01-11.6-65.3 256 256 0 013.5-65.4 226.2 226.2 0 0110-36c.5-1.3-1.7-1.9-2.2-.6zm-86-.9c11.1 19.2 14.8 41.3 16.4 63.1.8 11.3 1.1 22.6 2 33.9s2.3 24.5 3.1 36.8c.9 13.8 1.2 27.7-.5 41.4-.2 1.4 2.1 1.4 2.2 0 3.1-24.8-.2-49.8-2.3-74.5-1.9-22.4-1.6-45-6.1-67-2.6-12.2-6.6-24.1-12.8-34.9-.7-1.2-2.7-.1-2 1.2z"/><path d="M198.4 251.2a196.5 196.5 0 01-9.5 33.5 1.1 1.1 0 00.8 1.4l8.6 1.2-.5-1.9-5.8 7.4a4.6 4.6 0 00-1.1 3.3 6 6 0 002 2.7 124.9 124.9 0 0111.7 11.3c6.7 7.5 12.6 16.3 15 26.3a32.9 32.9 0 01-.1 15.6 1.1 1.1 0 002.2.6c5-19.5-8.7-38.3-22.2-50.9l-3.3-3c-.9-.7-2.7-1.8-3-3s.8-1.9 1.3-2.5l1.5-1.9 3.4-4.3c.4-.6.4-1.8-.5-1.9l-8.6-1.2.8 1.4a196.5 196.5 0 009.5-33.5c.2-1.4-1.9-2-2.2-.6zm88.5 3.2c3.4 10.4 5 21.2 10.2 30.8l.7-1.6-8.3 2.4a1.2 1.2 0 00-.5 1.9l6.7 6.4c.5.5 1 .9.7 1.7a5.2 5.2 0 01-1.2 1.7l-2.8 3.3a111 111 0 00-9 12.6c-5 8.3-9 17.7-9.5 27.5a34.5 34.5 0 002.6 14.9c.5 1.3 2.7.7 2.1-.6-8.1-19.3 4.8-40.7 17.2-54.9 1.7-2 4.2-4.4 2.2-7a28.1 28.1 0 00-3.5-3.4l-3.9-3.8-.5 1.9 8.3-2.4a1.2 1.2 0 00.7-1.7c-5.2-9.5-6.7-20.1-10-30.3-.5-1.3-2.6-.7-2.2.6z"/><path d="M201.9 247c-6.1 3.7-11.9 7.9-17.9 11.9s-12.2 8-19 10.3c-4 1.3-8.4 2.4-11.5 5.5-1 1 .6 2.6 1.6 1.6 2.8-2.8 6.7-3.7 10.3-4.9a57.4 57.4 0 009.1-4.1c6.6-3.6 12.8-7.9 19-12.1 3.2-2.2 6.3-4.3 9.6-6.2a1.2 1.2 0 00-1.2-2zm80.4 6.4a81 81 0 0012 3l14.1 3c9.9 2.3 18.8 7.1 27.3 12.7 4.9 3.2 9.7 6.6 14.3 10.2 1.2.9 2.3-1.1 1.2-2-8.4-6.3-17-12.6-26.4-17.3a80.4 80.4 0 00-14.1-5.4c-4.6-1.2-9.3-2-14-3s-9.4-1.7-13.8-3.4c-1.4-.5-1.9 1.7-.6 2.2zm-134.7 42.5a15.8 15.8 0 005.5-10.6h-2.2a19.2 19.2 0 01-2.5 10.7 1.1 1.1 0 001.8 1.3l5.1-5.2a14.6 14.6 0 003.6-5.5c.5-1.4-1.7-2-2.1-.6a13.3 13.3 0 01-3.3 4.8c-1.6 1.7-3.3 3.3-4.9 4.9l1.8 1.4a21.2 21.2 0 002.7-11.8 1.1 1.1 0 00-2.2 0 13.3 13.3 0 01-4.9 9 1.2 1.2 0 000 1.6 1.1 1.1 0 001.6 0zm204 8.3a15.7 15.7 0 00-2.5 11 1.1 1.1 0 001.3.8 1.1 1.1 0 00.9-1.1 10 10 0 013-7.1l-1.9-.5a30 30 0 011.5 5.9 1 1 0 001.4.7c.6-.1.8-.7.8-1.3a24.6 24.6 0 00-1.6-5.9 1.1 1.1 0 00-1.8-.5 12 12 0 00-3.6 8.7l2.2-.3a12.8 12.8 0 012.3-9.3 1.1 1.1 0 00-.4-1.5 1.2 1.2 0 00-1.6.4z"/><path class="c" d="M202.5 248c5.7 6.7 38.4 25.6 44.8 18.4 6.9 3.1 11.9 5.6 18 5s10.2-8.3 10-12c-.1-.6 7-7 7-7 2-3 .8.4 4.9 2-3.9 6.4-4.5 12.7-5.9 20-9 44.5-9.5 87.7 0 132-.1 1.4-41 4-58.5 1.8 2.7-68.6-4.7-111.8-22.3-157.2"/><path d="M202 248.5a35.4 35.4 0 006.3 5.3 103.7 103.7 0 0010 6.2 99.5 99.5 0 0011.4 5.5 43.6 43.6 0 0010.5 3.1c2.6.4 5.7.4 7.6-1.6h-.9c7.7 3.5 18.8 9.1 25.6 1a17.2 17.2 0 002.8-4.7 19.5 19.5 0 00.6-2.3 3.4 3.4 0 00.1-1v-.5c0-.4-.1.2 0 0 1.5-2.1 3.7-3.8 5.6-5.6l1.1-.9.3-.4.4-.6h.1c.2-.1 0-.2-.4-.1a8.8 8.8 0 001.2 1.5 9.8 9.8 0 002.7 1.8l-.4-1.1c-4.1 6.7-5 14.7-6.5 22.3s-3.1 17.6-4.2 26.5a318.4 318.4 0 00-1.9 53.5q.6 13.2 2.4 26.4c.6 4.5 1.3 8.9 2.1 13.4l1.2 6.5c.1.4.4 3.3.7 3.5s.3-.3.4-.3-.8.2-.9.3l-1.6.2-4.8.5c-4.9.5-9.8.8-14.6 1a258 258 0 01-32.9-.1l-3.2-.3.8.7c.9-23.5.8-47.2-1.5-70.6a323.2 323.2 0 00-10.7-56.8c-2.9-10.1-6.4-20.1-10.2-30-.3-.9-1.8-.5-1.4.4a334.4 334.4 0 0115.9 53.7 365.1 365.1 0 016.7 61.7c.4 13.9.2 27.8-.3 41.6a.8.8 0 00.7.8c10.7 1.3 21.6.9 32.2.5 5.3-.2 10.5-.4 15.8-.8 3.1-.3 6.4-.5 9.5-1.1.6-.1 1.5-.3 1.7-1s-.4-2.1-.5-2.8-.5-2.3-.7-3.4-.9-4.5-1.2-6.8c-1.6-9-2.8-18.2-3.5-27.3a314.1 314.1 0 01.3-54c.9-9.2 2.1-18.3 3.7-27.4.7-4.5 1.6-8.9 2.5-13.3a70.1 70.1 0 012.6-11.2 28.9 28.9 0 012.7-5.6c.3-.4 0-.9-.5-1.1a6.9 6.9 0 01-2.4-1.8c-.3-.3-.5-.8-.9-1.1s-1.8.4-2.4 1.1-3.6 3.3-5.3 5.1a4.9 4.9 0 00-1.8 2.2 8.8 8.8 0 00-.2 1.7 7.3 7.3 0 01-.8 2.5c-1.5 3.6-4.6 7-8.7 7.3-6.1.5-11.8-2.5-17.2-4.9-.3-.1-.7-.2-.9.1s-4.2 1.5-6.2 1.3a43.6 43.6 0 01-9.8-2.8 109.7 109.7 0 01-20.8-11.2 42.5 42.5 0 01-7-5.7c-.6-.8-1.7.3-1 1z"/><path d="M262.3 271.5a58.2 58.2 0 009.1 8.8.9.9 0 001.5-.2c2.6-4.3 4.4-9 6.6-13.5a45.9 45.9 0 018.9-12.8c.9-.9-.4-2.3-1.3-1.4a49 49 0 00-9.2 12.9c-2.2 4.6-4.1 9.4-6.6 13.8l1.5-.2a62.4 62.4 0 01-9.1-8.7c-.9-1-2.2.4-1.4 1.3zm-62.5-19.8a464.3 464.3 0 0135 30.8.9.9 0 001.6-.7c.2-2.9 1.9-5.9 3.4-8.3a52.7 52.7 0 013.1-4.6c.8-1-.9-2-1.6-1a45.9 45.9 0 00-3.5 5.1c-1.5 2.7-3.2 5.7-3.3 8.8l1.7-.7c-11.1-10.8-22.9-21.1-35-30.8-1-.8-2.4.6-1.4 1.4z"/><path class="d" d="M248.4 268.1c-11.6-.4-4.2 10.6 5 12 3.3.5 10.5-4.3 11-7s-.8-1.1-1-1c-4.3 1.6-13.7-4-15-4z"/><path d="M248.4 267.3c-1.9 0-4.2.1-5.6 1.5a3.2 3.2 0 00-.8 3.7c1.1 3.7 5.1 6.3 8.5 7.6a8.6 8.6 0 005.9.3 18.9 18.9 0 006-3.5c1.2-1 3.4-3 2.7-4.7s-1.2-1-2-.8a6.2 6.2 0 01-2.7.1 27 27 0 01-7.3-2.3l-2.8-1.3a10.6 10.6 0 00-1.9-.6.8.8 0 000 1.5h.4l.6.3 2.1.9a54.2 54.2 0 005.6 2.2 14.2 14.2 0 005.4.8l1.1-.3c.2-.1.2-.1.1.2a4.2 4.2 0 01-1.1 1.6 15.5 15.5 0 01-4.8 3.6 7.4 7.4 0 01-5 1 13.9 13.9 0 01-8.7-5.7c-.6-.9-1.3-2.3-.6-3.4s3.5-1.3 4.9-1.3 1-1.3 0-1.4z"/><path class="d" d="M251.4 279.6a302 302 0 01-.3 61.6c-.9 8-1.9 16.7 2.5 23.4 1.9 2.8 4.6 5 7.2 7.2a100.7 100.7 0 0115.1 16.8c7.2-13.4 3.7-31.6-8-41.4a56.8 56.8 0 01-6-5c-3.9-4.4-4.9-10.6-4.7-16.5s-1.8-38.3-5.8-46.6"/><path d="M250.6 279.6a291.3 291.3 0 01.7 50.3c-.3 4-.6 8.1-1.1 12.1a74 74 0 00-.6 10.5 24.1 24.1 0 001.8 9.6c1.4 3.3 3.8 5.8 6.4 8.2a106.4 106.4 0 0117.4 18.7c.4.4 1.1.5 1.3 0a34.8 34.8 0 002.5-25.7 34 34 0 00-5.9-11.7 31.1 31.1 0 00-4.7-4.9 45.3 45.3 0 01-6.2-5.4c-5.1-5.9-4.1-13.9-4.4-21.1s-.9-14.1-1.6-21.1c-.5-4-1-8-1.8-12a34.9 34.9 0 00-2.3-8.4c-.4-.9-1.7-.1-1.3.8a28.4 28.4 0 012 7.2c.7 3.4 1.2 6.9 1.6 10.3.9 7.1 1.4 14.2 1.8 21.4s-.4 13 2 19.1a16.7 16.7 0 003.8 5.8c1.8 1.9 4.1 3.3 6 5a31 31 0 017.8 10.6 33.5 33.5 0 01-.6 29.3h1.3a101.9 101.9 0 00-14.5-16.3c-2.7-2.4-5.7-4.7-7.8-7.7a21.3 21.3 0 01-3.1-9.8c-.5-7.4 1-14.9 1.6-22.3s.9-16.4.9-24.7-.6-18.6-1.5-27.8c-.1-1-1.6-1-1.5 0z"/><path class="c" d="M147.5 275c13.4-.8 19.8-.1 32.8 3.5 7.9 2.2 15.3 6 22.3 10.1a292.9 292.9 0 0143.1 30.4 5.1 5.1 0 002.8 1.5c1.5.2 2.8-.9 3.9-1.9 27.5-25 66.2-35.7 103.3-45.5l3.5 111.1a2.4 2.4 0 01-.6 2 3.3 3.3 0 01-2 .4c-16.5-.4-33.2-2.4-49.5-.2s-48.1 4.1-55.8 17.6c-17.8-10.7-21.5-14.8-41.9-20.4s-42.3-7.1-62.8-1.8c-3.2-35.3 2.2-70.9.8-106.3"/><path d="M147.5 276.2a91.6 91.6 0 0120.9.7 86.2 86.2 0 0122.2 6.7 174.3 174.3 0 0121.5 12.1 234.2 234.2 0 0120.2 14c3.4 2.5 6.6 5.1 9.8 7.8s5.4 5.6 9.1 3.5a23 23 0 003.8-3.2c1.3-1.2 2.7-2.3 4.2-3.5s5.8-4.4 8.8-6.4c12.3-8.1 25.8-14.2 39.5-19.3s28.6-9.1 43.1-13l5.4-1.5-1.4-1 1.6 52.8 1.7 52.5v3.3a16.1 16.1 0 01.1 3.1c-.2.9-1.2.7-2 .7h-3.4l-13-.7a227.3 227.3 0 00-26.1-.1c-5.7.4-11.4 1.3-17.2 2s-11.2 1.4-16.8 2.5a80.7 80.7 0 00-16 4.4c-4.3 1.7-8.6 4-11.6 7.5a22 22 0 00-1.7 2.5l1.5-.4c-10-6.1-19.6-12.9-30.7-17a139.2 139.2 0 00-47-8.7 109 109 0 00-27.8 3.3l1.5 1.1c-2.5-27.6.2-55.3.8-82.9.2-7.8.2-15.6-.1-23.4 0-1.5-2.3-1.5-2.2 0 1.1 27.7-2 55.3-1.8 83 0 7.8.3 15.6 1 23.3a1.2 1.2 0 001.4 1.1c16.1-4.1 32.9-4.1 49.1-1.2 12.8 2.3 25.7 6 37 12.4 6 3.4 11.8 7.3 17.7 10.9a1.1 1.1 0 001.5-.4c2.3-3.9 6.3-6.4 10.3-8.2a70.2 70.2 0 0115.6-4.7c5.7-1.2 11.4-2 17.1-2.7s11.2-1.5 16.7-2a192.4 192.4 0 0126.3-.1l13 .7c2.1 0 4.3.3 6.3.1a2.9 2.9 0 002.8-2.4c.3-2-.1-4.2-.1-6.1l-.3-6.7-.4-13.2-.8-26.5-1.6-53-.2-6.7a1.2 1.2 0 00-1.5-1.1c-14.4 3.8-28.8 7.7-42.9 12.5s-27.6 10.5-40.1 18a134.8 134.8 0 00-17.5 12.4l-3.9 3.4a3.2 3.2 0 01-2.4 1.1 5.4 5.4 0 01-2.6-1.6q-4.6-4.1-9.6-7.8a256.9 256.9 0 00-41-26.6 87.2 87.2 0 00-41.9-9.7l-6 .2a1.2 1.2 0 000 2.3z"/><path d="M246.8 321.6l1.8 62.9.4 18c.1 1.4 2.3 1.4 2.3 0l-1.7-62.9-.5-18a1.2 1.2 0 00-2.3 0zm9.1 4.6a187.3 187.3 0 0165-32.8c7.3-2.1 14.8-3.7 22.2-5.3 1.4-.3.8-2.5-.6-2.2-12.9 2.8-25.8 5.9-38.2 10.6a192.9 192.9 0 00-33.2 16.3 195 195 0 00-16.8 11.8c-1.1.9.5 2.5 1.6 1.6z"/><path d="M257.4 332.9c20.5-13.6 42.9-24.7 66.7-31.3a178.3 178.3 0 0120.5-4.5c1.4-.3.8-2.4-.6-2.2-24.6 4.1-48.2 13-69.9 25.2-6.1 3.4-12 7-17.8 10.9-1.2.8-.1 2.7 1.1 1.9zm1.1 7.5a179.4 179.4 0 0138.6-19.5l-1.4-.8c2 7.4 1.3 15.4 1.3 23l.9-1a175.3 175.3 0 00-22.7 5.7 73.5 73.5 0 00-10.2 3.8c-3.1 1.7-5 4.3-6.8 7.3l2.1.5-1.3-9.8a44.3 44.3 0 01-.6-9.6c.2-1.4-2.1-1.4-2.2 0a34.5 34.5 0 00.6 9.6l1.2 9.8c.2 1.1 1.5 1.6 2.1.6 1.8-2.9 3.6-5.3 6.8-6.8a88 88 0 0110.2-3.6 191.4 191.4 0 0121.4-5.4 1.2 1.2 0 00.8-1.1c0-7.8.6-16-1.5-23.6a1 1 0 00-1.3-.8 177.4 177.4 0 00-39.1 19.8c-1.2.8-.1 2.7 1.1 1.9zm43.8-22.4a36.7 36.7 0 0117.1-4.8 1.2 1.2 0 000-2.3 39.9 39.9 0 00-18.2 5.2 1.1 1.1 0 101.1 1.9zm.8 4.8c1.4.1 2.7-.9 4-1.5a32 32 0 014.3-1.7 36.6 36.6 0 019.2-1.8c1.4-.1 1.4-2.4 0-2.3a48.1 48.1 0 00-9.2 1.7 32 32 0 00-4.3 1.7 8.8 8.8 0 00-2 .9 5 5 0 01-2 .8 1.1 1.1 0 100 2.2zm1.9 5l8.2-3.4c2.6-1 5.2-2.2 8-2s1.5-2.1 0-2.2-5.6.9-8.3 1.9l-8.5 3.5c-.6.3-1 .8-.8 1.4a1.2 1.2 0 001.4.8zm.2 5.2a92.5 92.5 0 0118-5.9c1.4-.3.8-2.5-.6-2.2-6.3 1.2-12.2 3.6-18 5.9-1.4.5-.8 2.7.6 2.2zm1 4.8a57.9 57.9 0 0117.5-4.5c1.4-.1 1.4-2.4 0-2.3a62.3 62.3 0 00-18.6 4.9c-1.4.6-.2 2.5 1.1 1.9zm.1 4.9c5.4-2 11.2-2.5 16.9-3.1 1.4-.2 1.4-2.4 0-2.3-5.9.7-11.9 1.2-17.5 3.3-1.3.5-.7 2.7.6 2.1zM326 311c2.9-1.2 5.8-2.3 8.8-3.3l4.4-1.2a10.5 10.5 0 014.6-.6c1.4.3 2-1.9.6-2.2-3.3-.5-6.8.8-9.8 1.8a101.3 101.3 0 00-9.7 3.5c-1.3.6-.2 2.6 1.1 2zm.8 5a57.1 57.1 0 0119.1-4.8c1.4-.1 1.4-2.4 0-2.3a61.5 61.5 0 00-20.2 5.2c-1.3.6-.2 2.5 1.1 1.9zm1.7 4.6a110.2 110.2 0 0118.6-4.7c1.5-.2.9-2.3-.5-2.1a100.4 100.4 0 00-18.7 4.7c-1.3.4-.7 2.6.6 2.1zm1.1 5.2a136.1 136.1 0 0117.7-4.8c1.4-.2.8-2.4-.6-2.1a121.5 121.5 0 00-17.7 4.7c-1.3.5-.7 2.7.6 2.2zm.7 6.1a99 99 0 0119.3-5.5c1.4-.2.8-2.4-.6-2.1a92.2 92.2 0 00-19.3 5.4c-1.3.5-.7 2.7.6 2.2zm1.4 6.1a64.9 64.9 0 0117.1-4.7 1 1 0 001.1-1.1c0-.5-.5-1.2-1.1-1.1a67.2 67.2 0 00-18.2 4.9 1.1 1.1 0 00-.4 1.5 1.2 1.2 0 001.5.5z"/><path d="M267.6 344.5l2.3-3.1 1.1-1.5.5-.7c.2-.2.4-.7.6-.8l-.6.2h.2l.4.2a3.1 3.1 0 001 .5 8 8 0 001.6.8 24.6 24.6 0 003.8 1.4v-2.2a40.9 40.9 0 00-14.8 5.6 1.2 1.2 0 00.9 2.1l1.9-.6.8-.2.5-.2c.3 0 .4 0 .2-.1l-.5-.3a6.2 6.2 0 01.4 1.6 11 11 0 01.2 1.8 1.1 1.1 0 001.4 1.1l5.3-1.2a1.1 1.1 0 00.8-1.4 14.9 14.9 0 01-.2-2.1 3.1 3.1 0 01-.1-1c0-.2-.1-.6-.1-.8l-.3.5h.2l-.5.3.8-.2.8-.2-.5-.3v.2l-.3-.5c.4 1 .7 2.1 1 3.1s2.6.8 2.1-.6l-.5-1.9c-.2-.5-.3-1-.5-1.5s-2.2-.6-3.2-.4-1.5 1.1-1.4 2.3.3 2.5.5 3.8l.8-1.4-5.3 1.3 1.4 1a25.1 25.1 0 00-.4-2.7c-.2-.7-.3-1.7-.9-2.2s-1.5-.3-2.3-.1l-2.8.8.8 2.1a37.2 37.2 0 0114.3-5.4c1.1-.2.9-1.9 0-2.2a27 27 0 01-4-1.4l-1.8-1c-.6-.3-1.2-.8-1.9-.7s-1.1.8-1.5 1.4l-1.4 1.8-2.9 3.9a1.2 1.2 0 00.4 1.5 1.2 1.2 0 001.6-.4zm17.8.4a14.3 14.3 0 00-1-6.1c-.7-1.7-2.9-1.8-3.8-3.4v1h.1l-.4.4c-.3 0-.3.1 0 0h1.1a1.8 1.8 0 001.7-.4c.4-.4.4-.9.6-1.4l.3-1.6h-2.1l.4 1.8a4.6 4.6 0 00.7 1.6c.4.5 1.1.4 1.7.3l1.8-.4-1.1-1.9a9 9 0 00-2.3 3.2 1.2 1.2 0 00.4 1.6c.4.2 1.3.1 1.5-.4a8 8 0 012-2.8 1.2 1.2 0 00-1.1-1.9l-2.2.5h.5l.4.3c.2.3.2.2.1-.1v-.2l-.2-.8-.4-1.4a1.1 1.1 0 00-2.1 0l-.3 1.2v.5c-.1.2-.3.6-.1.4l.5-.3c-.2.1-.6 0-.8 0h-1a1.5 1.5 0 00-1.6 1c-.3 1.2 1.3 2.5 2.2 3.1l1.5.8a3.3 3.3 0 01.5 1.5 10.7 10.7 0 01.4 4c0 1.4 2.2 1.4 2.3 0zm8.2-2.5l-.5-4-.2-1.7c0-.3-.1-.6-.1-1s-.1-.5-.1-.7l.5-.3.8-.6 1.2-1a29.5 29.5 0 002.5-2.5c1-1.1-.6-2.7-1.6-1.6a22.9 22.9 0 01-2.7 2.7l-1.4 1.1a3.4 3.4 0 00-1.4 1.5 3.3 3.3 0 000 1.7l.2 2.1.6 4.3a1 1 0 001.1 1.1c.5 0 1.2-.5 1.1-1.1zM260.3 367c12-7 24.6-14.3 38.8-15 1.5-.1 1.5-2.4 0-2.3-14.6.8-27.6 8.1-39.9 15.3a1.1 1.1 0 001.1 2zm1 4.7c6.3-2.9 12.7-5.9 19.1-8.7s12.8-4.8 19.6-4.3c1.4.1 1.4-2.2 0-2.3-6.9-.5-13.6 1.7-19.9 4.3s-13.3 6.1-20 9.1c-1.3.6-.2 2.5 1.2 1.9zm-1.3 5.8a171.8 171.8 0 0139.6-12.4c1.4-.2.8-2.4-.6-2.1a166.9 166.9 0 00-40.1 12.6c-1.3.6-.2 2.5 1.1 1.9zm-.2 5.3a181.2 181.2 0 0139.6-10.7c1.4-.2.8-2.4-.6-2.2a187 187 0 00-39.6 10.7c-1.3.5-.7 2.7.6 2.2zm-.7 5.1c3.5-.3 6.7-1.7 10-2.9l10.6-3.5a192.8 192.8 0 0121.5-5.3c1.4-.3.8-2.5-.6-2.2a216.5 216.5 0 00-21.1 5.2c-3.4 1-6.7 2.1-10.1 3.3s-6.7 2.8-10.3 3.1c-1.4.1-1.5 2.4 0 2.3zm1.2 5.3c12.6-4.5 25.4-9.1 38.8-9.7 1.5-.1 1.5-2.4 0-2.3-13.6.7-26.6 5.2-39.4 9.9-1.3.4-.7 2.6.6 2.1zm44.1-43.3a55.1 55.1 0 00.5 15.7c.4 2.6 1.1 5.1 1.7 7.6a40.4 40.4 0 011.1 8.5c.1 1.4 2.3 1.4 2.3 0a52.9 52.9 0 00-.9-8c-.6-2.6-1.4-5.1-1.9-7.8a53.7 53.7 0 01-.5-16c.1-1.5-2.1-1.5-2.3 0z"/><path d="M306.9 351.1a434.9 434.9 0 0143.9-8.2l-1.1-.8c2 6.2 1.4 12.8 1.1 19.2l-1.1 20.5 1.5-1.1a90.8 90.8 0 00-41.8.5c-1.4.3-.8 2.5.6 2.1a88.4 88.4 0 0140.6-.4 1.1 1.1 0 001.4-1.1l1.1-21c.3-6.4.8-13-1.2-19.3a1.1 1.1 0 00-1.1-.8 419.9 419.9 0 00-44.5 8.3c-1.4.3-.8 2.5.6 2.1z"/><path d="M307 357.9c14.3-1.8 28.3-6.7 42.9-5.4 1.4.2 1.4-2.1 0-2.2-14.6-1.3-28.6 3.6-42.9 5.3-1.4.2-1.4 2.5 0 2.3zm9.7 10.1a3.4 3.4 0 003.1-3.8c-.3-2.2-2.7-3.2-4.6-2.9a5.3 5.3 0 00-4.3 4.3c-.4 3 3.1 2.9 5.2 3.1l-1-1.5a61.6 61.6 0 00-1.7 12.8l2.2-.3a61.7 61.7 0 01-.7-7.4 1.2 1.2 0 00-1.1-1.1 2.4 2.4 0 00-2.7 1.7 1.1 1.1 0 001.9 1.1 2.7 2.7 0 013.8-.4 1.1 1.1 0 001.6 0l2.8-2.9-1.8-.2c.6 1.1 1.7 1 2.6 1.6s.5 1.8.6 2.5l.3 2.8 2.2-.3c-.6-1.9.7-3.7 1.4-5.4s1.1-3.5 1.7-5.3 3.6-6.3 2.8-10c-.2-1.3-2.1-.9-2.2.3a110.8 110.8 0 00.4 19.1c.2 1.4 2.3 1.5 2.3 0v-3.9l-2.1.6a5.9 5.9 0 01.7 2.9l1.4-1.1c-1.4-.3-5.7-2.9-3.5-4.6a12.7 12.7 0 013.1-1.5l1.9-.7.8-.2h.4q.6 0 0-.6c-.1 1.1 1.5 1.4 2 .5a36.5 36.5 0 003-5.5l-2.1-.5 1.8 13.2a1.1 1.1 0 002.2.3l1.3-5.7-1.9.5a3.4 3.4 0 01.9 1.5 1 1 0 001.3.8 6.3 6.3 0 003.7-8.4c-.6-1.3-2.5-.2-1.9 1.1a3.9 3.9 0 01-2.4 5.1l1.4.8a4.8 4.8 0 00-1.4-2.5 1.2 1.2 0 00-1.9.5l-1.3 5.7 2.2.3-1.8-13.2c-.1-1-1.6-1.8-2.1-.6a41.4 41.4 0 01-2.9 5.5l2.1.6c.1-4-8.8.4-10.1 1.6-3.6 3.1 1.6 7.5 4.6 8.3a1.1 1.1 0 001.4-1.1 8.6 8.6 0 00-1-4.1 1.2 1.2 0 00-2.1.6v3.9h2.3a101.6 101.6 0 01-.4-19.1l-2.2.3c.4 1.9-.7 3.8-1.5 5.5a30.2 30.2 0 00-1.9 5 33.9 33.9 0 01-2 5.3c-.6 1.6-1.1 3.2-.5 4.9s2.3 1 2.2-.3l-.4-3.3a8.6 8.6 0 00-.5-2.7 2.9 2.9 0 00-1.4-1.3c-.4-.2-1.3-.3-1.5-.7a1.1 1.1 0 00-1.8-.3l-2.8 2.9h1.6a5 5 0 00-7 .4l1.9 1.1h.5l-1.2-1.1c.2 2.7.5 5.3.8 8s2.2.9 2.2-.3a71.5 71.5 0 011.6-12.2 1.1 1.1 0 00-1.1-1.4l-2-.2c-.7-.1-1 .1-.9-.5a2.9 2.9 0 011.8-2.1 2.4 2.4 0 012.3.4 1.1 1.1 0 01-.6 1.8c-1.4.2-1.4 2.4 0 2.2zm-163.3-85.5a27.7 27.7 0 0120.4 4.1c1.2.8 2.3-1.1 1.1-1.9a30.2 30.2 0 00-22.1-4.4c-1.4.3-.8 2.5.6 2.2z"/><path d="M151.7 287.3a73.2 73.2 0 0112.4-.9c3 0 6.5.4 8.6 2.9s2.6-.5 1.6-1.6c-2.4-2.7-6.1-3.4-9.6-3.5a77.7 77.7 0 00-13.6.9c-1.4.2-.8 2.4.6 2.2zm1.7 5.3c5.4.6 12.8-1.4 17.1 3 1 1.1 2.6-.5 1.6-1.5-4.9-5.1-12.6-3.1-18.7-3.7-1.5-.2-1.5 2.1 0 2.2z"/><path d="M153 296.7c4.9-1 11.6-2.4 15.2 2.2a1.1 1.1 0 101.6-1.6c-4.1-5.3-11.7-4-17.4-2.7-1.4.3-.8 2.4.6 2.1zm-.6 4.4h8.5c1.2 0 2.5-.1 3.7 0a4.5 4.5 0 012.8.9c1.1 1 2.7-.6 1.6-1.6s-4.7-1.6-7.2-1.6h-9.4a1.1 1.1 0 100 2.2zm-.3 4.8h18.7a1.2 1.2 0 000-2.3h-18.7a1.2 1.2 0 000 2.3zm29.3-19.3A155.9 155.9 0 00176 308c-.3 1.4 1.9 2 2.1.6a143 143 0 015.5-21.4 1.1 1.1 0 00-2.2-.6z"/><path d="M183.7 288.9c19.8 6.8 39 17.4 54.5 31.6 1.2 1.1 2.1 2.2 1.7 4s-.8 3.2-1.2 4.8l-2.6 9.8c-.4 1.4 1.8 2 2.1.6l2.5-9.4c.4-1.4.8-2.8 1.1-4.2a6.5 6.5 0 00.3-3.9c-.7-2.5-3.3-4.2-5.2-5.8l-6.3-5.1a153.3 153.3 0 00-28.8-17.4 164.4 164.4 0 00-17.5-7.1c-1.4-.5-2 1.7-.6 2.1z"/><path d="M177.3 310.1a29.2 29.2 0 0112.3 2.9c4 1.6 8 3.5 11.9 5.5a211.4 211.4 0 0122.1 12.8c4 2.6 7.9 5.4 11.7 8.3 1.2.9 2.3-1.1 1.2-1.9a208.8 208.8 0 00-45.2-26.4c-4.5-2-9.1-3.6-14-3.5a1.2 1.2 0 000 2.3zm-24.8 5.8c11-.3 22.7-.7 32.6 4.9 1.3.7 2.4-1.3 1.2-2-10.3-5.8-22.4-5.5-33.8-5.1-1.5 0-1.5 2.3 0 2.2z"/><path d="M152 320.8c11.4-.6 23.8-1.3 34 4.8 1.3.7 2.4-1.2 1.2-1.9-10.6-6.4-23.4-5.8-35.2-5.1-1.4.1-1.4 2.3 0 2.2zm-.5 5.6c10.7-.5 21.7-1 31.8 2.9 1.4.5 2-1.7.6-2.2-10.3-3.9-21.5-3.4-32.4-2.9-1.4.1-1.4 2.3 0 2.2zm.9 5h8.7a64.7 64.7 0 018.8.2 41.8 41.8 0 017.7 2.1l8.1 3c1.4.5 2-1.7.6-2.2-5.2-1.9-10.6-4.4-16.1-5.1a62.4 62.4 0 00-8.6-.3h-9.2a1.1 1.1 0 000 2.2zm-.6 5.4a70.8 70.8 0 0131.9 4.1c1.4.5 1.9-1.7.6-2.2a71.9 71.9 0 00-32.5-4.2c-1.4.2-1.4 2.4 0 2.3zm0 5.3a76.7 76.7 0 0130.8 4.5c1.4.5 2-1.6.6-2.1a76.5 76.5 0 00-31.4-4.7c-1.5.1-1.5 2.4 0 2.3zm-.5 4.9c5.3-.2 10.7-.5 16 .2a40.3 40.3 0 017.6 1.9 38.3 38.3 0 007.5 2.3c1.4.1 2-2 .6-2.2a41.2 41.2 0 01-7.6-2.2 34.4 34.4 0 00-7.8-2 88.7 88.7 0 00-16.3-.2c-1.4 0-1.4 2.3 0 2.2zm41.1-24.3c-2 9.7 0 19.9-3 29.4-.5 1.4 1.7 2 2.1.6 3.1-9.5 1-19.7 3.1-29.4.3-1.4-1.9-2-2.2-.6zm-8.9-14a28.6 28.6 0 015.7-12.8l-1.9-.8v15.2a1.1 1.1 0 002.1.6l3.6-7a31.4 31.4 0 002.8-6.8c.4-1.4-1.8-2-2.1-.6a31.9 31.9 0 01-2.8 6.6c-1.1 2.2-2.3 4.4-3.4 6.7l2 .5v-15.2c0-.9-1.3-1.6-1.9-.8a31.1 31.1 0 00-6.3 13.8c-.2 1.4 2 2 2.2.6zm15-3.3a8.9 8.9 0 015.1 2.3l.5-1.9a25.7 25.7 0 01-8.7.8 1.3 1.3 0 00-1.1 1 1.2 1.2 0 00.8 1.2l8.1 2.9-.5-1.8h-.1c.2 0-.3.1-.2.1h-.7a3.3 3.3 0 00-1.7 0c-1.4.3-2.4 1.5-1.7 2.9a1 1 0 001.5.4 1 1 0 00.4-1.5.4.4 0 010 .5c-.2.1.4-.1.2-.1h1.1a3.2 3.2 0 002.8-.8 1.1 1.1 0 00-.5-1.8l-8.1-3-.3 2.3a28.3 28.3 0 009.2-.9 1.1 1.1 0 00.5-1.9 10.8 10.8 0 00-6.6-2.9 1 1 0 00-1.1 1.1 1.2 1.2 0 001.1 1.1zm7.9 13.3a77.6 77.6 0 0113.1-8.2l-1.7-1.3c-1.5 4.8-2.9 9.8-2.6 14.9l2.1-.6a33 33 0 00-4-6 1.1 1.1 0 00-1.9.8c.1 1.8 1.1 5.3 3.5 4.5a7.7 7.7 0 001.6-.7l1.6-.6a23.7 23.7 0 013.6-.9 1.2 1.2 0 00.8-1.4 1.2 1.2 0 00-1.4-.8 22.1 22.1 0 00-5 1.5l-1.2.5-.5.2c.1 0 .2.3 0 0a4.5 4.5 0 01-.8-2.3l-1.9.8a30.2 30.2 0 013.7 5.6 1.2 1.2 0 002.1-.6c-.3-4.9 1-9.6 2.5-14.3a1.1 1.1 0 00-1.6-1.2 83.6 83.6 0 00-13.6 8.5 1.1 1.1 0 001.6 1.6z"/><path d="M221.6 320.8c2.1.1 4.1.2 6-.7s3.9-3 2-4.6-3.5-.7-4.9-.1a5.2 5.2 0 00-3 3.6 1.2 1.2 0 00.8 1.4l1.2.2h.8l-.4-.4v-.6a9.1 9.1 0 01-.7 1.4l-.9 1.8-1.8 3.4a1.1 1.1 0 001.9 1.2 33.3 33.3 0 013.6-4.6l-1.8-1.1-1.5 4a1.2 1.2 0 00.8 1.4 1.1 1.1 0 001.4-.8l1.4-4a1.1 1.1 0 00-1.8-1.1 38.1 38.1 0 00-4 5l1.9 1.2 3-5.6c.4-.9 1.2-2.1.3-2.9a1.7 1.7 0 00-1.3-.5l-1.5-.3.8 1.4a3.4 3.4 0 014.2-2.4c.3.1 0 .1 0 0s0-.3-.2-.1l-.5.5a4.4 4.4 0 01-1.5.8 12.3 12.3 0 01-4.3.2c-1.4-.1-1.4 2.2 0 2.2z"/><path d="M228.2 326.7a5.8 5.8 0 003.4-.6 2.6 2.6 0 001.2-3 2.4 2.4 0 00-3.2-1.4 5.9 5.9 0 00-2.5 1.7 5.8 5.8 0 00-1.2 3.3 1.1 1.1 0 001.1 1.1h1l-1.1-1.4-.3 1.1c0 .1-.1.2-.1.3s0-.1 0 0l-.3.6a1.1 1.1 0 001.5 1.5l1.4-1 .3-.2h.1a.6.6 0 01-.8-.1c-.1-.1-.3-.3-.2-.5a2.3 2.3 0 01-.1.4 1.1 1.1 0 00.8 1.4c.6.2 1.1-.2 1.4-.8a2.2 2.2 0 000-1.6 1.6 1.6 0 00-1.5-.9 2.8 2.8 0 00-1.4.6l-1.1.9 1.6 1.5a7.3 7.3 0 00.8-2.5.9.9 0 00-.2-1 1.2 1.2 0 00-.8-.4h-1l1.1 1.1a.6.6 0 01.1-.4c-.1.3 0 0 0-.1a1.4 1.4 0 01.2-.6c0-.1.1-.2.2-.3s.1-.2.2-.3-.2.1 0-.1l.4-.4h.2l.3-.2a1 1 0 01.5-.4c-.2.2.1 0 .1 0s.5-.1.3 0 .1 0 0-.1h.1c.1 0 .1 0-.1-.1a.1.1 0 00.1.1h-.1c.1.3 0-.2 0 .1h.1v.2c-.1 0 0 0 0-.1h-.1c0 .1 0 .1.1 0h-.2c0 .1-.2.2 0 .1l-.3.2h-.7c.1-.1.1-.1-.1 0h-1.2a1.1 1.1 0 100 2.2zm6.7 3.1a2.2 2.2 0 002.1 0 1.9 1.9 0 001.2-1.4c.3-1.6-1.1-2.6-2.5-2.7a2.7 2.7 0 00-2.9 1.7 2.8 2.8 0 000 1.8l.6.8a.1.1 0 00.1.1c.1.1-.1-.2 0 0s-.1-.1-.1-.2l-.4.5-.4.7a6.4 6.4 0 00-.8 1.9 1.1 1.1 0 001.7 1.2 6 6 0 002.5-2.5 1 1 0 00-.4-1.5 1.1 1.1 0 00-1.5.4l-.4.6h-.1l-.3.3-.2.2h-.1l-.7.4 1.7 1.3a1.9 1.9 0 01.2-.8c-.1.2.1-.1.1-.1a.5.5 0 01.2-.4 2.1 2.1 0 01.4-.6c0-.1.1-.1.1-.2l.3-.4a1.8 1.8 0 00.1-2 1.8 1.8 0 00-.5-.7v-.2c.1-.2-.1.1.1 0a.1.1 0 01.1-.1h1c-.1-.1-.1-.1-.1 0 .1-.1.1-.1 0-.1h.1a1.3 1.3 0 00-1.6.5 1.2 1.2 0 00.4 1.5zm-34.9-.5c3.2-.5 6.4.7 9.3 1.8a29.4 29.4 0 018 4.3c1.2.9 2.8-.7 1.6-1.6a31.2 31.2 0 00-9-4.8c-3.4-1.4-6.9-2.4-10.5-1.8-1.4.2-.8 2.4.6 2.1zm1.4 6.1a23.2 23.2 0 0111.6 1.7 1.1 1.1 0 001.5-.4 1.2 1.2 0 00-.4-1.6 26.4 26.4 0 00-12.7-2c-.6.1-1.2.5-1.2 1.1a1.2 1.2 0 001.2 1.2zm-2.1 3.3a25.7 25.7 0 0113.9 2.7c1.3.6 2.4-1.3 1.1-2a28.9 28.9 0 00-15-3c-1.5.1-1.5 2.4 0 2.3zm.7 3.5c4.4-.7 8.2 2.6 11.7 4.7 1.2.8 2.4-1.2 1.1-1.9s-4-2.7-6.2-3.8a12.8 12.8 0 00-7.2-1.2 1.1 1.1 0 00-.8 1.4 1.2 1.2 0 001.4.8zm-1.5 4c2.7-.5 5.2.9 7.5 1.9a26.7 26.7 0 003.6 1.4 5.1 5.1 0 012.6 1.4 1.1 1.1 0 101.6-1.6 6.4 6.4 0 00-3.2-1.8 31.2 31.2 0 01-3.9-1.5c-2.8-1.3-5.6-2.5-8.8-2-1.4.3-.8 2.5.6 2.2z"/><path d="M195.9 351.1a70.9 70.9 0 0110.3.2 7.6 7.6 0 013.7 1c1.1.8 1.5 2 2.9 2.4a1.1 1.1 0 00.6-2.2c-.5-.1-.8-.7-1.2-1.1a4 4 0 00-1.6-1.3 9.5 9.5 0 00-4.1-1 75.1 75.1 0 00-10.6-.3c-1.4.1-1.4 2.4 0 2.3z"/><path d="M197.4 354.7c5.6-.4 11.8-.8 16.9 2.1 1.3.7 2.4-1.3 1.2-2-5.6-3.1-12-2.8-18.1-2.4-1.5.1-1.5 2.4 0 2.3zm24.7-17.4c-.2 4.2-2.4 8-3.4 12a76.2 76.2 0 00-1.8 12.7c-.2 1.4 2.1 1.4 2.2 0a80 80 0 012-13c1.1-3.9 3-7.6 3.3-11.7 0-1.4-2.2-1.4-2.3 0z"/><path d="M223.2 338.3c2.8 1.5 5.5 3.1 8.2 4.7l4 2.4 2 1.3c1 .6 1.2 1 1 2.1-1.2 6.3-2.5 12.5-3.7 18.7l1.7-.6a33.8 33.8 0 00-16-5.9c-1.4-.1-1.4 2.1 0 2.3a30 30 0 0114.8 5.5 1.2 1.2 0 001.7-.7l2-10.5 1.1-5.3c.3-1.5.9-3.3.7-4.9s-1.4-2.2-2.6-2.9l-4.5-2.8c-3-1.9-6.1-3.6-9.2-5.3-1.3-.7-2.4 1.2-1.2 1.9zM193 362.8c8.3-.9 16.5.8 24.2 3.8 6.1 2.3 12.1 5 17.9 7.7 3.1 1.5 6.2 3 9.1 4.7a1.1 1.1 0 101.1-1.9 160.6 160.6 0 00-17.7-8.6c-6.5-2.9-13.1-5.7-20.1-7.2a50.5 50.5 0 00-14.5-.8c-1.5.2-1.5 2.4 0 2.3z"/><path d="M192.4 366.9c8.9-.5 17.3 2.5 25.5 5.6 5.9 2.3 11.9 4.8 17.7 7.6a61.3 61.3 0 018.6 4.9c1.2.9 2.3-1.1 1.1-1.9-5.1-3.8-11.3-6.3-17.1-8.8a173.7 173.7 0 00-20.8-7.8 47.5 47.5 0 00-15-1.8c-1.4.1-1.4 2.3 0 2.2z"/><path d="M191.1 371.4c8.4-.6 16.4 3.6 23.9 6.9s12.3 4.9 18.6 7.1c3.2 1.2 6.4 2.3 9.5 3.6 1.3.6 2.5-1.4 1.2-1.9-5.9-2.5-12.1-4.5-18.1-6.7s-14.1-6.1-21.3-8.8a32.8 32.8 0 00-13.8-2.5c-1.4.1-1.4 2.4 0 2.3z"/><path d="M189.8 376.8a81 81 0 0141.9 10.7 86.6 86.6 0 0110.1 7c1.1.9 2.7-.6 1.6-1.6a82.5 82.5 0 00-40.6-17.6 94.5 94.5 0 00-13-.8 1.2 1.2 0 000 2.3zm-5.4-20.8a97.1 97.1 0 01-1.7 18.7l1.1-.8c-5.7.1-11.1-2.3-16.8-2.4a32.7 32.7 0 00-15.3 3.5l1.7.9a120 120 0 01.5-21.6l-1.1 1.1a72.4 72.4 0 0131.3 3.7c1.3.5 1.9-1.7.6-2.2a73.4 73.4 0 00-31.9-3.7c-.6 0-1 .4-1.1 1.1a120 120 0 00-.5 21.6 1.1 1.1 0 001.7 1 30.9 30.9 0 0115-3.1c5.4.3 10.5 2.5 15.9 2.4a1.2 1.2 0 001.1-.9 95.6 95.6 0 001.7-19.3c0-1.4-2.3-1.4-2.2 0z"/><path d="M154.9 358.6a90.3 90.3 0 00.3 10.4 1.2 1.2 0 001.1 1.1 1.2 1.2 0 001.2-1.1 60.3 60.3 0 01-.3-10.4c0-1.4-2.2-1.4-2.3 0z"/><path d="M157.3 360.4h14.3c.3 0 1 .2 1.3 0s.3 0-.2-.2v.3c0 .2.1.5.1.7l.3 2.7v1.5a3.2 3.2 0 01.2 1.3l.5-.7H170l-4.5.4a60.9 60.9 0 00-8.7 1.7l1.1 1.9 3.9-3.4 1.8-1.6.8-.7.5-.5c-.7-.5-.9-.5-.7 0a8.3 8.3 0 00.6 2.1 1.8 1.8 0 001.2 1.3 2 2 0 001.7-.3 2.7 2.7 0 00.7-.8l.3-.4q.5-.3-.3-.6a1.2 1.2 0 002.3 0c0-2-2.4-2.2-3.5-1s-.8.7-.8.9-.1.2.3.2.4.2.3-.1a2.1 2.1 0 00-.3-.7 5.4 5.4 0 00-.9-2.5 1.5 1.5 0 00-2.1 0l-2.5 2.2-4.9 4.3c-.9.7.1 2.1 1.1 1.9a66.8 66.8 0 018.9-1.8c1.5-.1 3-.3 4.5-.3h2.2a4.1 4.1 0 001.9-.2c1.2-.6.6-2.4.5-3.4s-.3-3.1-.5-4.6-1.1-1.8-2.5-1.8h-15.1a1.1 1.1 0 000 2.2zm23 8.9a52 52 0 01.5-8.8 1.1 1.1 0 00-.8-1.4 1.1 1.1 0 00-1.3.8 49.6 49.6 0 00-.7 9.4 1.2 1.2 0 002.3 0zm46.7-23.2h9.3c1.4 0 1.4-2.2 0-2.3H227c-1.5 0-1.5 2.3 0 2.2z"/><path d="M224.5 346.2A64.8 64.8 0 00226 360c.2.9.3 2.2 1.6 2.2l1.6-.3 1.7-.5 7-1.6a1.1 1.1 0 00-.6-2.2l-5.1 1.2-4.9 1.2h.6c.4.6.6.7.4.2v-.4a2.9 2.9 0 00-.2-.9l-.3-1.8c-.2-1.2-.4-2.4-.5-3.6a59.7 59.7 0 01-.5-7.3c0-1.5-2.3-1.5-2.2 0z"/><path d="M234.3 354.3a6.2 6.2 0 01-2.3-3c-.4-1.3.3-2 1.5-2.3l1.7-.3c.7 0 1.1 0 1.1.9s-1 3-1.6 4.4-1.3 2.8-1.9 4.2a4.1 4.1 0 01-.8 1.3c-.5.5-1 .2-1.5-.1a13.3 13.3 0 01-2.7-2.6 4 4 0 00-3.3-1.1c-2.7.1-6.4.6-7 3.8-.3 1.4 1.8 2 2.1.6s2.4-2 3.8-2.1a3.9 3.9 0 012.4.1c.6.3 1.1 1.2 1.6 1.7s2.6 2.3 4.1 2.3a4 4 0 003.1-2.5c.9-1.8 1.6-3.6 2.4-5.4s1.7-3.3 1.5-5.1-1.3-2.7-3.1-2.6a7.4 7.4 0 00-4.1 1c-3.6 2.4-.6 6.9 1.9 8.8s2.2-1.1 1.1-2z"/><path class="e" d="M362.1 302.7l-5.4-3.8c-1.6-1.2-3.6-2.4-5.5-2s-2.6 2.6-3.9 3.9-2.3 1.6-3.1 2.7a2.3 2.3 0 001.3 3.4l4.4-3.5.8-.5a3 3 0 011.9.7 38.1 38.1 0 016.1 5.2 30.2 30.2 0 00-4.5-4.2 3.9 3.9 0 00-1.1-.6 3.2 3.2 0 00-2.7.6 26.3 26.3 0 00-4.9 3.9c-1 1-1.9 2.3-1.5 3.7a.5.5 0 00.3.5c.2.1.4 0 .5 0a15.1 15.1 0 004.8-2.2 2.1 2.1 0 011.2-.5 2.6 2.6 0 01.9.5l3.5 3c-.7-1.3-1.9-2.9-3.4-2.7a2.1 2.1 0 00-1.2.4 42.8 42.8 0 00-4.2 2.6c-.5.5-1.1.9-1.3 1.5a1.4 1.4 0 00.7 1.8c1.2.6 2.3-.5 3.5-.8a4.1 4.1 0 013 .6 15.5 15.5 0 012.3 2.1 12 12 0 00-2.6-2.4 6.6 6.6 0 00-2.1 2.9 2.5 2.5 0 00-.1 1.5c.5 1.5 2.9 1.8 4.4 2.8s2.1 6.5 5.2 7.9a4.7 4.7 0 003.7-.2 7.2 7.2 0 002.6-2.3 34.1 34.1 0 006-10 8.8 8.8 0 00.9-5c-.5-2.9-3.2-5.3-5.7-7.4l-4.6-3.9"/><path d="M362.7 301.7l-5.8-4c-1.6-1.1-3.5-2.2-5.6-1.9a5.4 5.4 0 00-3.6 2.7 17.1 17.1 0 01-1.8 2 18.1 18.1 0 00-2.1 1.8 3.6 3.6 0 00-.6 4.1 2.9 2.9 0 001.5 1.4c.9.4 1.4.1 2.2-.5l2.7-2.3c.4-.3 1-1 1.6-1s1 .7 1.4.9a39.6 39.6 0 015.3 4.7c1 1 2.6-.6 1.6-1.6a32.4 32.4 0 00-3.8-3.6c-1.2-1-2.5-1.9-4.1-1.5a10.1 10.1 0 00-4.1 2.4 19.4 19.4 0 00-3.6 3.4 4.5 4.5 0 00-1 3.8c.4 1.5 1.8 1.4 3 1l2.2-.8a23.9 23.9 0 012.1-1.3c.8-.3 1.3.4 1.9 1l2.3 1.9a1.1 1.1 0 001.7-1.4c-1-1.8-2.7-3.8-5.1-3.1a13.6 13.6 0 00-3.7 2.1 9.2 9.2 0 00-2.9 2.3 2.7 2.7 0 002.3 4.2c1.3-.1 2.3-1.2 3.6-1.1s2.6 1.5 3.5 2.5 2.5-.4 1.6-1.5a14.3 14.3 0 00-2.8-2.7 1.2 1.2 0 00-1.4.2c-1.5 1.3-3.1 3.6-2.4 5.6s2.4 2.2 3.9 2.9c3.3 1.6 2.6 6.1 5.6 8s8.2-1.9 10.4-5.1a39.5 39.5 0 003.7-6.7c.9-2.1 1.7-4.3 1.3-6.6a11.9 11.9 0 00-3.8-6c-2.2-2-4.5-3.9-6.8-5.8s-2.7.6-1.6 1.6l5 4.2a21.1 21.1 0 013.9 4 6 6 0 01.8 5.4 25.3 25.3 0 01-2.5 5.6 29.3 29.3 0 01-3.4 5c-1.1 1.5-2.5 3.2-4.6 2.9s-3.1-4.5-4.5-6.5a7.4 7.4 0 00-3.7-2.5c-.7-.4-1.8-.7-1.6-1.7a5.2 5.2 0 011.9-2.7l-1.4.2a12.6 12.6 0 012.4 2.2l1.6-1.5a8.3 8.3 0 00-4.3-3.1 3.7 3.7 0 00-2.1 0c-.6.1-2 1.1-2.5 1s.7-1.5 1-1.8l2.4-1.5c.9-.5 1.9-1.3 2.8-.7a5.2 5.2 0 011.5 1.8l1.8-1.3-3.2-2.7a2.9 2.9 0 00-2.8-1 25.4 25.4 0 00-2.8 1.6l-1.9.8c-.3.1-1 .1-.5.4s.2-.3.3-.7a8.1 8.1 0 012.5-3 21.3 21.3 0 013.4-2.5 2 2 0 012.3-.2 7 7 0 011.7 1.3 26.5 26.5 0 012.9 2.9l1.6-1.6a28.2 28.2 0 00-3.6-3.3 16.5 16.5 0 00-3.8-2.7c-1.4-.6-2.3 0-3.4.9l-4 3.2 1.1-.3c-2.3-.6.8-2.9 1.4-3.5s2-2.4 3.1-3.5 3.9-.3 5.5.8l5.8 4.1c1.2.8 2.3-1.1 1.1-2z"/><path class="e" d="M139.7 305.2l5.1-4.2c1.5-1.3 3.3-2.7 5.2-2.4s2.8 2.3 4.2 3.5 2.5 1.5 3.3 2.5.5 3.1-1 3.5l-4.6-3.2c-.3-.2-.5-.4-.8-.4a2.5 2.5 0 00-1.9.8 43.1 43.1 0 00-5.6 5.7 34.7 34.7 0 014.1-4.5 2.3 2.3 0 011-.7 3.4 3.4 0 012.8.4 20.1 20.1 0 015.1 3.5c1.1.9 2.1 2.1 1.9 3.6s-.1.3-.3.4h-.5a16.7 16.7 0 01-5-1.9 1.6 1.6 0 00-1.2-.3l-.8.5-3.2 3.3c.6-1.4 1.6-3 3.2-3a2.8 2.8 0 011.2.4 34.8 34.8 0 014.3 2.2 3.2 3.2 0 011.4 1.4 1.6 1.6 0 01-.5 1.9c-1.1.6-2.3-.4-3.5-.6a3.8 3.8 0 00-3 .9 11.7 11.7 0 00-2.1 2.3 15.5 15.5 0 012.4-2.7 7.4 7.4 0 012.3 2.7 2.7 2.7 0 01.3 1.5c-.4 1.6-2.8 2.1-4.1 3.2s-1.5 6.6-4.5 8.2a4.4 4.4 0 01-3.7.1 7.6 7.6 0 01-2.7-2 40.3 40.3 0 01-6.9-9.6 9.1 9.1 0 01-1.2-4.9c.3-2.9 2.7-5.5 4.9-7.8l4.3-4.2"/><path d="M140.5 306c1.8-1.5 3.6-3.1 5.4-4.5s3.5-2.6 5.2-1.1 1.9 2.3 3.1 3.2 1.7.8 2.2 1.5.6 1.6-.2 1.9h.9l-4.3-2.9a2.9 2.9 0 00-3.3-.5 18.7 18.7 0 00-3.4 2.9q-1.7 1.6-3.3 3.6l1.8 1.3a25.5 25.5 0 012.6-3l1.3-1.2a2 2 0 012.2-.3 40.5 40.5 0 013.5 2.1 11 11 0 012.9 2.8c.1.1.1.6.3.8s0 .2 0 0 .1-.2-.1-.2-1.5-.4-1.9-.5-2.1-1.3-3.3-1.5a2.6 2.6 0 00-2.3 1c-1 1-2 2.1-3.1 3.1l1.8 1.3a6.3 6.3 0 011.3-2c.9-.7 1.8 0 2.7.4a24.9 24.9 0 012.8 1.5c.4.2 2 1.2.9 1.5s-1.6-.6-2.3-.7a4.3 4.3 0 00-2.5.3 8.4 8.4 0 00-3.8 3.4l1.9 1.1a12.6 12.6 0 012.2-2.4l-1.3.2a5.6 5.6 0 011.8 2.2c.4.9-.2 1.3-1 1.8a7.2 7.2 0 00-4.9 6.1c-.4 1.2-.7 2.7-1.9 3.4s-3.5 0-4.7-1.2a27.4 27.4 0 01-3.9-4.5 33 33 0 01-3.1-5.1c-.9-1.7-1.6-3.5-1-5.5a14.6 14.6 0 013.7-5.2c1.6-1.7 3.3-3.4 5-5s-.6-2.7-1.6-1.6-3.7 3.6-5.4 5.5a14.7 14.7 0 00-3.8 5.5c-1.5 4.5 1.9 9.4 4.5 12.8s5.8 8.1 10.4 6.8a5.4 5.4 0 003.5-3.7c.5-1.6.6-3.5 1.8-4.8s3.8-1.6 4.6-3.6-1.2-4.6-2.9-5.9a1.2 1.2 0 00-1.4.2 13.7 13.7 0 00-2.5 2.9c-.9 1.2 1.1 2.3 1.9 1.1s1.8-2.4 3.3-2.6 2.3.9 3.6.8a2.7 2.7 0 001.8-4.4 9.8 9.8 0 00-3-2 13.3 13.3 0 00-3.8-1.8c-2.4-.6-4 1.5-4.8 3.4s.8 2.3 1.7 1.4l2-2c.3-.3 1.2-1.5 1.6-1.4s.8.4 1 .5l1.1.5a18.4 18.4 0 002.5.9c1.2.3 2.7.4 3.1-1.1a4.6 4.6 0 00-1.3-3.9 23.1 23.1 0 00-3.9-3.1c-1.3-.9-2.9-2-4.4-2.1s-2.8.9-3.9 1.9a31.4 31.4 0 00-3.4 4c-.8 1 .9 2.3 1.7 1.3a39.4 39.4 0 015-5c.3-.3.7-.8 1.1-.9s1.1.2 1.6.6l3.1 2.1c.7.5 1.2.9 2.1.4a2.9 2.9 0 001.5-1.6 3.5 3.5 0 00-1-4 20.7 20.7 0 00-2.4-1.7 9.1 9.1 0 01-1.7-1.7 5.8 5.8 0 00-3.7-2.4c-2-.2-3.8.9-5.4 2.1l-5.7 4.8c-1.1.9.5 2.5 1.6 1.6z"/></svg>