<svg width="500" height="600" xmlns="http://www.w3.org/2000/svg" xmlns:xlink="http://www.w3.org/1999/xlink"><defs><path id="a" d="M.195.388h24.682V100H.195z"/><path id="c" d="M.267.548h14.179v70.1H.266z"/><path id="e" d="M0 0h31v74H0z"/><path id="g" d="M0 0h31v74H0z"/></defs><g fill="none" fill-rule="evenodd"><path d="M189.54 363.886l.445.344c-.148-.114-.298-.229-.445-.344m-18.018-60.34l.045.348-.045-.349m158.185-52.524a4.493 4.493 0 00-2.264.609c-.97.563-1.738 1.514-2.04 2.594-.699 1.9-.518 3.952-.52 5.968-.003 1.823.003 3.64.095 5.463.089 1.813.128 3.625.265 5.439.145 1.906.308 3.796.356 5.71.104 4.03-.143 8.06-.166 12.09-.024 4.012.02 8.025.017 12.036 0 4.184-.106 8.344-.475 12.512-.36 4.07-.727 8.131-1.221 12.185-.31 2.047-.64 4.088-1.015 6.124-.401 2.187-.924 4.35-1.45 6.51a116.59 116.59 0 01-3.814 12.505c.167-.387.33-.777.496-1.164-.426 1-.85 2.003-1.274 3.004l.35-.832-1.057 2.186c-.347.715-.799 1.397-1.193 2.089-.684 1.19-1.524 2.297-2.353 3.394-.99 1.23-1.973 2.499-3.083 3.617-.72.718-1.432 1.435-2.18 2.12-.515.471-1.05.91-1.593 1.342-1.019.736-2.03 1.487-3.085 2.169a27.124 27.124 0 01-3.232 1.802c-1.738.633-3.552.95-5.37 1.291-1.185.222-2.37.413-3.56.589-1.828.181-3.66.329-5.49.495-2.006.184-4.008.396-6.015.544-4.224.313-8.463.455-12.696.544-8.07.165-16.146-.115-24.204-.52-5.308-.266-10.62-.414-15.92-.775-2.727-.183-5.451-.366-8.172-.614-2.322-.21-4.636-.489-6.947-.774-2.688-.422-5.398-.838-8.032-1.519a82.34 82.34 0 01-4.44-1.282c-.965-.308-1.911-.69-2.85-1.076a57.262 57.262 0 01-3.275-1.68c-1.02-.569-1.969-1.274-2.917-1.951a17.69 17.69 0 01-1.607-1.385 36.354 36.354 0 01-2.072-2.241 35.312 35.312 0 01-.952-1.322c-.427-.62-.796-1.291-1.184-1.935-.797-1.307-1.492-2.671-2.166-4.046-1.292-3.423-2.127-7.001-3.012-10.55-.963-3.849-1.699-7.767-2.42-11.666-.716-3.874-1.355-7.762-2.017-11.643-.345-2.027-.69-4.054-1.02-6.084-.305-1.876-.543-3.767-.84-5.646-.226-1.437-.44-2.874-.652-4.312-.281-2.13-.57-4.26-.866-6.388-.174-1.51-.316-3.013-.437-4.53-.124-1.625-.139-3.264-.222-4.893-.172-3.37-.43-6.72-.808-10.074-.196-1.752-.38-3.507-.606-5.256-.208-1.625-.433-3.268-.547-4.902-.112-1.634-.237-3.276-.168-4.916.038-.948.076-1.897.118-2.845.031-.765.16-1.537.249-2.297.011-.074.021-.149.033-.223.104-.727.125-1.341-.264-2.003a2.633 2.633 0 00-1.562-1.197 2.658 2.658 0 00-2.017.263c-.526.307-1.108.925-1.2 1.554-.63 4.181-.924 8.409-.954 12.636-.011 2.075-.05 4.149-.044 6.222.003 1.918.086 3.835.092 5.752.011 4.063-.13 8.12-.229 12.179-.045 1.903.083 3.823.22 5.72.145 2.032.312 4.065.481 6.098.148 1.8.392 3.59.55 5.389.19 2.154.421 4.299.686 6.446.522 4.287 1.072 8.565 1.708 12.837.567 3.808 1.164 7.605 1.88 11.39a144.25 144.25 0 001.256 6.05c.437 1.882.859 3.79 1.384 5.652.633 2.249 1.33 4.423 2.33 6.545a50.822 50.822 0 002.53 4.762 36.742 36.742 0 004.028 5.454c1.508 1.678 3.264 3.102 5.093 4.42 1.61 1.158 3.262 2.254 5.055 3.111 2.091.998 4.272 1.964 6.485 2.685a66.056 66.056 0 006.035 1.67c2.077.46 4.165.827 6.262 1.17 2.361.384 4.746.64 7.12.93 1.9.233 3.804.414 5.711.576 4.049.343 8.11.715 12.17.895 8.194.37 16.383 1.034 24.587 1.141 4.212.056 8.421.071 12.633-.05a159.16 159.16 0 0012.308-.81c4.39-.464 8.786-.89 13.105-1.829a35.943 35.943 0 007.042-2.286c1.923-.854 3.651-2.148 5.323-3.398 1.824-1.365 3.746-2.688 5.403-4.252a94.081 94.081 0 002.326-2.277c.719-.733 1.381-1.519 2.061-2.287.595-.673 1.147-1.383 1.72-2.074.817-.987 1.649-2.027 2.373-3.088.561-.815 1.123-1.624 1.637-2.472a52.03 52.03 0 001.68-3.02c1-1.92 1.86-3.944 2.618-5.97.745-1.995 1.488-3.99 2.168-6.004 1.265-3.737 2.293-7.581 3.16-11.425.992-4.4 1.637-8.848 2.201-13.319.505-4.003.933-8.033 1.186-12.06.24-3.853.21-7.729.229-11.587.014-4.036-.013-8.072.127-12.107.092-2.722.158-5.454.095-8.18-.063-2.64-.368-5.254-.52-7.89-.143-2.484-.27-4.972-.377-7.46a34.275 34.275 0 00-.508-4.638c-.163-.901-.496-1.746-.914-2.568-.813-1.586-2.697-2.907-4.546-2.907-.135 0-.27.007-.403.021" fill="#161616"/><path d="M275.265 244c-4.326.021-8.652.051-12.98.1-3.818.043-7.653.032-11.469.187-4.204.17-8.403.407-12.608.559-4.119.15-8.25.176-12.365.414-4.101.238-8.199.56-12.3.759-4.172.206-8.348.363-12.523.557-2.297.11-4.604.44-6.894.68-1.26.126-2.53.207-3.777.433-4.395.786-8.79 1.501-13.13 2.552-2.041.494-3.8 1.631-4.953 3.417a7.95 7.95 0 00-1.097 5.934 7.956 7.956 0 001.915 3.71c-.038 3.896 3.172 7.71 7.215 7.698 2.493-.008 4.952-.398 7.427-.659 7.77-.479 15.555-.538 23.326-1.03 8.039-.508 16.087-.758 24.125-1.256 3.165-.197 6.32-.472 9.475-.755 3.877-.293 7.755-.58 11.632-.882 3.995-.312 7.994-.45 11.998-.64 3.914-.185 7.86-.17 11.78-.149 4.057.02 8.117.063 12.173.19 1.972.063 3.935.2 5.901.37 1.907.167 3.831.2 5.747.238 2.215.044 4.42.04 6.639.012.94-.009 1.883-.09 2.823-.143a92.817 92.817 0 003.41-.271c1.957-.185 3.704-.675 5.545-1.384 2.485-.953 4.51-3.174 5.317-5.725.922-2.918.142-6.261-1.946-8.487-1.352-1.439-2.152-1.802-3.934-2.57-.827-.357-1.73-.408-2.618-.557-.454-.077-.916-.107-1.376-.148-1.984-.19-3.956-.486-5.934-.721-3.882-.464-7.79-.777-11.69-1.072-8.062-.613-16.155-1.361-24.25-1.361h-.604" fill="#BD8D46"/><path d="M171.232 265.535l.148.064-.148-.064m-3.002-2.448c.18.143.362.283.545.423 1.102.844 2.252 1.634 3.49 2.263.182.092.364.182.547.272a22.728 22.728 0 01-1.86-.634 8.538 8.538 0 01-1.216-.655 10.084 10.084 0 01-1.122-1.126c-.131-.18-.26-.36-.384-.543m4.133-1.837c.066.027.132.054.197.083l-.197-.083m-3.493-2.481l.06.077a1.915 1.915 0 01-.06-.077m145.436-15.795l.105.044-.097-.04-.007-.004m-101.93.252c2.566-.12 5.13-.224 7.697-.29a254.29 254.29 0 017.763-.057 718.65 718.65 0 0115.258.258c2.532.068 5.068.074 7.603.1 2.532.028 5.06.1 7.588.166 2.267.06 4.533.08 6.798.122 2.762.048 5.516.135 8.276.23 2.377.085 4.769.208 7.136.426 1.331.123 2.662.251 3.996.37 1.074.1 2.148.26 3.221.402 3.24.467 6.477.954 9.706 1.497 1.56.263 3.104.646 4.64 1.017a46.6 46.6 0 014.406 1.326c.913.429 1.796.908 2.686 1.4.913.51 1.765 1.117 2.605 1.735a39.93 39.93 0 012.14 1.804 22.21 22.21 0 012.054 2.176c.163.245.306.496.436.76l.003.007c0 .126-.004.252-.01.378-.013.05-.024.1-.038.15-.008.014-.015.029-.024.043a3.018 3.018 0 01-.1.097 9.85 9.85 0 01-1.11.666c-1.354.494-2.765.753-4.18 1.011-1.514.273-3.035.516-4.557.74-2.37.275-4.748.474-7.121.682-2.356.207-4.712.446-7.074.599-2.576.165-5.155.284-7.733.404-2.422.114-4.837.305-7.258.425-2.395.12-4.792.236-7.184.427-2.644.21-5.282.435-7.929.603-4.84.308-9.68.619-14.522.867-5.268.27-10.535.59-15.8.907-4.928.294-9.848.694-14.77 1.05-5.01.366-10.022.48-15.043.519-2.644.02-5.291.036-7.935-.042a90.625 90.625 0 01-8.22-.615 31.253 31.253 0 01-3.22-.63c-.848-.219-1.665-.512-2.485-.806-.868-.308-1.732-.619-2.593-.936-1.58-.58-3.159-1.155-4.713-1.795-1.066-.492-2.088-1.044-3.046-1.727a6.434 6.434 0 01-.641-.658 8.386 8.386 0 01-.484-.886 6.818 6.818 0 01-.328-1.194 7.69 7.69 0 01-.023-1.306c.071-.399.163-.786.285-1.175a7.73 7.73 0 01.782-1.276l.63-.824c.463-.602 1-1.144 1.568-1.645.41-.207.822-.405 1.234-.599 4.024-1.525 8.224-2.43 12.416-3.359 1.975-.437 3.98-.766 5.977-1.083 2.285-.363 4.572-.695 6.862-1.016l-.736.1c5.024-.68 10.048-1.312 15.11-1.545m18.485-6.225c-2.692 0-5.38.017-8.072.05-2.528.03-5.056.159-7.582.285-2.42.117-4.854.224-7.266.49-2.654.294-5.304.602-7.945.98-5.157.732-10.3 1.502-15.401 2.565a108.515 108.515 0 00-6.92 1.675c-2.611.725-5.252 1.53-7.67 2.778a28.712 28.712 0 00-3.075 1.85c-.603.419-1.189.853-1.762 1.31-.445.357-.889.74-1.248 1.189-.172.215-.353.434-.51.659a4.93 4.93 0 00-.557 1.095c-.115.3-.21.593-.29.9-.176.677-.28 1.36-.36 2.054a55.83 55.83 0 00-.178 1.739c-.054.59-.01 1.204.027 1.793a13.77 13.77 0 00.737 3.717c.198.557.413 1.105.632 1.652.223.545.446 1.075.737 1.586.166.294.36.578.537.866.467.745 1.043 1.416 1.668 2.032 1.149 1.137 2.658 1.763 4.144 2.326 1.34.505 2.736.864 4.133 1.16 2.626.555 5.258 1.03 7.925 1.345 2.472.29 4.944.574 7.425.775 2.641.212 5.28.416 7.927.536 2.582.116 5.163.188 7.742.278 4.938.174 9.881.164 14.819.188 10.13.052 20.262.15 30.392.12 1.317-.003 2.639-.087 3.954-.128 1.127-.04 2.25-.102 3.376-.159 2.501-.132 5.015-.243 7.513-.464 5.167-.452 10.33-.931 15.494-1.418 5.104-.485 10.22-1.024 15.285-1.832 2.49-.396 4.97-.856 7.457-1.288a145.17 145.17 0 007.142-1.427c2.377-.539 4.75-1.084 7.11-1.709 1.31-.348 2.558-.74 3.781-1.347 1.01-.5 1.95-1.242 2.73-2.053.464-.48.856-1.042 1.237-1.586a6.05 6.05 0 00.4-.668c.284-.287.564-.578.836-.877.754-.832 1.494-1.84 1.714-2.972.157-.806.112-1.356-.01-2.161a8.349 8.349 0 00-.109-.598c-.086-.405-.229-.791-.372-1.177a9.993 9.993 0 00-.668-1.484c-.294-.518-.74-.976-1.182-1.374a37.891 37.891 0 00-1.828-1.566c-2.666-2.136-5.738-3.729-8.862-5.074a.353.353 0 01-.026-.01l.02.009-.315-.136.108.046c-.458-.194-.915-.388-1.374-.58-.722-.366-1.477-.827-2.257-1.022-1.168-.293-2.4.12-3.106 1.09a19.918 19.918 0 00-2.123-.776l-1.949-.584c-.648-.191-1.322-.317-1.979-.475-1.108-.27-2.227-.545-3.354-.73-2.397-.398-4.798-.77-7.201-1.117-5.244-.76-10.502-1.413-15.8-1.64-2.572-.11-5.148-.249-7.724-.282-2.719-.038-5.437-.074-8.155-.104-2.341-.027-4.682-.09-7.026-.117-2.481-.03-4.962-.033-7.445-.05-4.977-.038-9.952-.153-14.93-.154h-.371" fill="#161616"/><path d="M221.307 236.04c-2.38.478-4.757.985-7.132 1.493-2.285.49-4.58.967-6.849 1.536-1.368.342-2.738.687-4.107 1.026-1.257.313-2.501.667-3.753.998-1.917.512-3.828 1.047-5.742 1.572a1.156 1.156 0 00-.183-.155c-.412-.284-.929-.082-1.358.046-.287.085-.576.16-.857.255-.668.23-1.34.455-2.011.682-.517.176-1.023.403-1.534.605-.494.198-1 .38-1.482.604l-1.743.802-1.938.723c-.595.22-1.168.521-1.745.785-.672.307-1.343.614-2.01.921-.167.076-.323.166-.483.256-.47.261-.943.519-1.413.78-.613.339-1.24.655-1.83 1.03l-2.37 1.495c-.931.588-1.815 1.272-2.661 1.97-.399.332-.777.682-1.126 1.068-.16.173-.31.354-.461.533-.084.104-.166.209-.246.31a1.887 1.887 0 00-.23.47c-.143.383.091.84.428 1.035.399.227.996.129 1.245-.269.343-.376.709-.73 1.092-1.066a.913.913 0 00.446-.117c1.6-.9 3.193-1.807 4.81-2.676 1.485-.798 2.966-1.598 4.45-2.395.746-.4 1.482-.823 2.242-1.197.987-.484 1.975-.969 2.96-1.454l1.227-.425c.417-.142.852-.248 1.275-.37.743-.218 1.488-.43 2.23-.647.357-.101.719-.186 1.079-.279l2.493-.625c1.059-.267 2.117-.537 3.175-.806 4.714-1.206 9.433-2.38 14.18-3.464 3.554-.812 7.109-1.633 10.645-2.52.704-.177 1.124-.934.935-1.615a1.32 1.32 0 00-1.277-.955c-.12 0-.245.014-.37.04" fill="#161616"/><path d="M320.241 255.528c.06.124.112.252.16.381l-.16-.38zm-.254-.266a3.927 3.927 0 01-.024.186l.024-.186zm-.047-1.09c.031.16.053.319.062.478l-.062-.478zm-83.864-11.622c2.021-.128 4.042-.283 6.062-.378 1.01-.048 2.02-.087 3.03-.127 1.728.02 3.455.048 5.183.08 6.526.121 13.073.407 19.574.963 5.954.509 11.903 1.068 17.831 1.835 4.5.707 8.99 1.425 13.418 2.495 4.308 1.042 8.423 2.601 12.538 4.227 1.994.881 3.954 1.794 5.764 3.03.15.133.298.269.44.41a7.698 7.698 0 01-.085.277c-.16.306-.328.601-.512.89-.262.275-.532.535-.816.788a20.431 20.431 0 01-3.088 1.745c-4.436 1.727-9.157 2.466-13.84 3.204-7.956.962-15.949 1.41-23.954 1.719-4.044.154-8.089.303-12.136.362-4 .063-8.002.042-11.999.09-8.12.09-16.232.062-24.35-.155-8.008-.211-16.031-.536-24.016-1.216-4.918-.42-9.82-1.046-14.719-1.659-2.628-.406-5.28-.792-7.87-1.384-2.606-.595-5.17-1.277-7.686-2.18a12.793 12.793 0 01-1.321-.781c-.19-.17-.374-.345-.551-.527-.026-.092-.05-.184-.075-.277l.072-.12c.377-.42.775-.815 1.2-1.19 1.164-.807 2.393-1.49 3.655-2.112a3.263 3.263 0 001.62-.45 2.93 2.93 0 00.76-.63c5.318-1.962 10.87-3.287 16.402-4.48 1.378-.3 2.774-.52 4.159-.78 1.393-.261 2.778-.54 4.174-.781a278.05 278.05 0 017.939-1.236c7.7-.963 15.458-1.167 23.197-1.652zm7.86-9.387c-3.836.063-7.673.292-11.507.435-4.07.148-8.147.196-12.215.398-8.197.404-16.309 1.672-24.41 2.95-3.913.62-7.797 1.451-11.652 2.386-1.92.463-3.875.925-5.748 1.567-2.292.782-4.559 1.665-6.736 2.73-3.024 1.478-5.9 3.46-7.822 6.284-1.183 1.738-1.825 3.68-1.846 5.791-.009 1.05.207 2.141.503 3.15a11.073 11.073 0 003.449 5.333c.944.794 1.915 1.543 2.98 2.159 1.144.663 2.393 1.133 3.635 1.576 7.452 2.643 15.313 3.542 23.105 4.595a249.85 249.85 0 0012.537 1.386c3.938.327 7.893.52 11.842.702 4.021.187 8.04.268 12.065.35 4.188.09 8.377.024 12.564-.017 3.993-.042 7.987-.128 11.98-.209 3.988-.08 7.976-.121 11.964-.341 8.204-.456 16.443-.821 24.614-1.755 2.316-.265 4.653-.45 6.957-.824 2.207-.357 4.4-.743 6.594-1.169 2.69-.523 5.385-1.145 8-1.963 2.7-.847 5.387-1.992 7.769-3.533 2.685-1.737 4.851-4.2 5.886-7.266.527-1.558.746-3.29.362-4.91-.175-.726-.444-1.556-.811-2.195-.396-.693-.896-1.3-1.385-1.927-.34-.434-.807-.791-1.233-1.133a29.939 29.939 0 00-1.926-1.428 21.902 21.902 0 00-3.408-1.883c-2.163-.957-4.326-1.918-6.54-2.747-1.874-.7-3.743-1.46-5.663-2.023a83.193 83.193 0 00-5.828-1.496 147.9 147.9 0 00-7.104-1.339c-.412-.424-.94-.775-1.473-.853-4.283-.633-8.626-.922-12.939-1.264-4.174-.33-8.336-.747-12.51-1.017-1.93-.125-3.853-.31-5.785-.396a392.027 392.027 0 00-6.209-.226c-.98-.03-1.96-.041-2.94-.041-3.038 0-6.08.114-9.115.163z" fill="#161616"/><path d="M228.141 201.086c-.61.174-.99.57-1.35 1.09-.312.451-.64.893-.931 1.361-.4.643-.674 1.33-.952 2.04-.39.996-.655 2.048-.924 3.082-.312 1.19-.391 2.449-.503 3.672a109.348 109.348 0 00-.248 3.393 490.503 490.503 0 00-.18 3.089 46.14 46.14 0 00-.044 3.232c.015 1.07.154 2.14.276 3.201.135 1.177.258 2.353.456 3.519.213 1.264.448 2.52.718 3.77a73.4 73.4 0 00.436 1.855c.158.647.298 1.312.502 1.946.38 1.176.862 2.314 1.242 3.492.356 1.103.568 2.278.747 3.43.127 1.238.192 2.51.083 3.753a4.64 4.64 0 01-.165.628c-.307.663-.671 1.298-1.035 1.928a44.557 44.557 0 01-1.469 2.385c-.405.608-.108 1.512.464 1.862.648.4 1.364.118 1.77-.488a68.667 68.667 0 001.646-2.618c.587-.97 1.236-1.935 1.512-3.061.164-.672.216-1.409.262-2.102.03-.485.058-.969.079-1.454.018-.411.04-.829.014-1.24-.037-.578-.114-1.15-.189-1.724-.114-.879-.222-1.76-.422-2.621-.195-.851-.434-1.687-.66-2.529-.47-1.758-.77-3.544-1.022-5.351l-.165-1.301.075.588a70.79 70.79 0 01-.316-4.028c-.085-1.503-.154-2.99-.07-4.494.164-2.918.482-5.823.837-8.722.07-.533.138-1.068.25-1.591.153-.726.33-1.442.515-2.159.35-1.356.726-2.717 1.176-4.041.044-.1.09-.2.137-.3.278-.586.399-1.185.229-1.832a2.38 2.38 0 00-1.04-1.422 2.175 2.175 0 00-1.74-.238" fill="#161616"/><g transform="translate(236 154)"><mask id="b" fill="#fff"><use xlink:href="#a"/></mask><path d="M18.213 74.226l.031.075-.031-.075M6.53 1.043c-.456.453-.595.97-.66 1.584a175.586 175.586 0 01-.336 3.016c-.189 1.264-.317 2.548-.565 3.8a91.16 91.16 0 01-.852 3.803c-.645 2.628-1.33 5.248-1.962 7.881C1.444 24.09.819 27.07.489 30.1a48.098 48.098 0 00-.286 4.065c-.033 1.347.036 2.7.165 4.043.15 1.567.381 3.12.646 4.672.224 1.306.428 2.637.79 3.913a72.876 72.876 0 001.328 4.184c.102.294.243.579.365.866.187.444.36.915.57 1.342.309.622.593 1.256.942 1.856.34.585.663 1.18 1.034 1.749.445.673.887 1.348 1.343 2.015.733 1.07 1.46 2.145 2.166 3.237.753 1.164 1.497 2.344 2.32 3.462a94.255 94.255 0 002.885 3.68c1.373 1.786 2.714 3.624 3.705 5.65.133.342.253.69.333 1.047.102 1.214.023 2.437-.092 3.652a14.655 14.655 0 01-.71 2.73c-.444.96-.963 1.882-1.5 2.794a47.302 47.302 0 01-2.136 3.345c-.764 1.079-1.565 2.138-2.255 3.265a54.981 54.981 0 00-2.294 4.112c-.35.692-.5 1.4-.287 2.169a2.842 2.842 0 001.302 1.683c1.266.736 3.184.362 3.874-1.01.403-.81.838-1.602 1.267-2.396.337-.622.734-1.208 1.105-1.808.742-1.19 1.636-2.294 2.472-3.42.781-1.05 1.482-2.16 2.159-3.277.807-1.327 1.56-2.66 2.107-4.118.545-1.452.758-2.983.938-4.515.178-1.526.187-3.043-.041-4.562-.072-.481-.232-.917-.4-1.37-.256-.697-.54-1.397-.911-2.042a61.716 61.716 0 00-1.072-1.8c-.764-1.234-1.656-2.387-2.546-3.535-.672-.867-1.37-1.717-2.058-2.572-1.647-2.25-3.123-4.61-4.715-6.898-.797-1.148-1.606-2.285-2.32-3.487a35.943 35.943 0 01-1.855-3.598c-.626-1.716-1.202-3.444-1.656-5.214-.226-.872-.378-1.783-.54-2.67-.15-.8-.284-1.6-.41-2.401-.184-1.742-.314-3.477-.291-5.232.021-1.63.17-3.275.367-4.895.708-4.377 1.796-8.67 2.732-13.003.475-2.19.924-4.374 1.195-6.601.268-2.185.23-4.384.15-6.579-.044-1.219-.99-2.24-2.25-2.24-.595 0-1.172.24-1.593.656" fill="#161616" mask="url(#b)"/></g><g transform="translate(267 181)"><mask id="d" fill="#fff"><use xlink:href="#c"/></mask><path d="M10.8.881c-.573.338-.903.845-1.118 1.46-.485 1.398-1.008 2.78-1.526 4.164-.212.476-.422.952-.632 1.427-.27.61-.628 1.193-.943 1.78-.682 1.276-1.398 2.547-2.014 3.855a82.228 82.228 0 00-1.953 4.437 41.155 41.155 0 00-.764 2.097c-.217.64-.337 1.328-.473 1.989-.295 1.418-.417 2.887-.55 4.329-.123 1.338-.2 2.664-.166 4.01.035 1.37.056 2.75.195 4.116.16 1.598.351 3.214.822 4.756.482 1.579 1.088 3.127 1.639 4.684.254.721.52 1.44.764 2.164.246.742.441 1.481.594 2.244.175 1.783.12 3.577-.077 5.357a170.45 170.45 0 01-.615 3.203c-.206 1.022-.417 2.03-.712 3.03-.323 1.084-.779 2.136-1.187 3.19a302.156 302.156 0 01-1.71 4.312c-.236.588-.052 1.404.252 1.926A2.5 2.5 0 002.11 70.56c.64.177 1.34.085 1.914-.251.167-.131.334-.262.502-.391.308-.312.52-.68.637-1.103.66-1.63 1.303-3.268 1.971-4.893.434-1.001.884-1.995 1.242-3.027.35-1.012.575-2.08.815-3.121.263-1.145.571-2.278.75-3.44a29.45 29.45 0 00.327-4.647c-.005-1.426-.16-2.906-.567-4.276-.345-1.162-.753-2.304-1.145-3.45-.383-1.114-.777-2.226-1.142-3.346a21.973 21.973 0 01-.784-3.328c-.171-1.927-.23-3.854-.232-5.79-.004-1.759.216-3.53.43-5.28.18-1.08.4-2.144.734-3.19.35-1.1.778-2.168 1.211-3.237.958-2.162 2.017-4.273 2.997-6.422 1.128-2.472 1.946-5.086 2.6-7.725.32-1.292-.398-2.648-1.698-3.008A2.434 2.434 0 0010.8.882" fill="#161616" mask="url(#d)"/></g><path d="M228.5 381.937c.218 2.845.413 5.687.57 8.535.123 2.235.055 4.489-.033 6.726-.1 2.46-.322 4.898-.558 7.35-.245 2.511-.469 5.022-.767 7.529a669.246 669.246 0 00-.528 4.06c-.375.007-.75.018-1.125.033-.348.015-.693.045-1.038.09-1.099.139-2.184.222-3.217.643-1.71.7-3.208 1.306-4.557 2.626a7.47 7.47 0 00-1.384 1.907c-.23.463-.507 1.116-.67 1.668-.307 1.044-.195 1.892-.026 2.94.277 1.735 1.746 3.154 3.251 3.88 1.479.715 3.102 1.104 4.749 1.074 1.478-.026 2.916-.581 4.217-1.237.425-.21.85-.415 1.255-.661.861-.533 1.657-1.156 2.436-1.802 1.758.13 3.808-.297 5.036-1.66.404-.452.83-.905 1.077-1.46.398-.899.906-2.05.797-3.08a34.086 34.086 0 00-.204-1.568c-.242-2.472-.112-4.975-.023-7.453.12-3.341.026-6.682-.01-10.026-.064-6.73-.87-13.41-1.413-20.114-.088-1.074-.369-2-1.148-2.783a3.923 3.923 0 00-2.77-1.154c-2.011 0-4.083 1.795-3.917 3.937m32.266 3.913c-.06.913.03 1.819.105 2.73.07.83.137 1.664.205 2.495.126 1.543.185 3.083.221 4.63.069 3.17-.044 6.352-.197 9.521-.149 3.177-.36 6.356-.498 9.534a194.02 194.02 0 00-.167 5.073 46.312 46.312 0 01-.2 3.867c-.093.61-.182 1.221-.223 1.837-.078 1.1.241 2.127.737 3.091.673 1.315 2.216 2.514 3.695 2.727.86.125 1.337.238 2.104.137.312-.04.632-.076.952-.119 1.826.256 3.673.517 5.51.614 2.366.125 4.956-.652 6.217-2.797.958-1.63 1.077-3.792.066-5.434-.684-1.104-1.241-1.543-2.252-2.308-1.316-.997-3.058-1.229-4.645-1.374-.672-.062-1.42.05-2.083.14l-.988.128c-.344-2.678-.63-5.354-.82-8.048-.197-2.819-.328-5.644-.561-8.463a114.648 114.648 0 00-.492-4.881c-.206-1.635-.49-3.258-.782-4.875-.235-1.323-.542-2.63-.865-3.932-.397-1.605-.796-3.24-1.39-4.783l-.013.013a1.821 1.821 0 00-1.285-1.304 1.887 1.887 0 00-.502-.069c-.996 0-1.78.832-1.849 1.85" fill="#161616"/><g transform="translate(331 269)"><mask id="f" fill="#fff"><use xlink:href="#e"/></mask><path d="M24.074 16.447c.219.17.437.342.654.512-.22-.17-.435-.341-.654-.512M3.664 1.172A4.04 4.04 0 002.5 4.004c0 1.133.46 1.994 1.164 2.832.94 1.127 1.89 2.238 2.851 3.346.764.877 1.5 1.788 2.295 2.634 1.657 1.766 3.312 3.523 5.016 5.244a78.478 78.478 0 004.832 4.462c.94.8 1.894 1.586 2.88 2.328-.255.34-.512.676-.763 1.014-.562.76-1.122 1.526-1.68 2.292-1.091 1.503-2.164 3.02-3.242 4.535-2.245 3.15-4.481 6.299-6.668 9.484-2.104 3.066-4.247 6.109-6.296 9.211-.422.637-.83 1.286-1.244 1.93C.82 54.604-.037 56.06 0 57.646c.023.812.094 1.589.4 2.343.342.836.637 1.476 1.093 2.217.369.601.799 1.175 1.202 1.75.565.814 1.125 1.628 1.68 2.446a42.02 42.02 0 011.811 2.885c.262.461.48.949.742 1.41.519.914 1.212 1.627 2.043 2.214a4.907 4.907 0 001.768.914c1.269.35 2.65.17 3.787-.501 1.875-1.11 2.84-3.424 2.273-5.55-.04-.406-.105-.815-.25-1.169-.3-.738-.59-1.436-.962-2.13a25.943 25.943 0 00-1.37-2.283 155.577 155.577 0 00-1.727-2.506c-.518-.734-1.087-1.46-1.606-2.211.432-.811.897-1.606 1.355-2.397a212.984 212.984 0 012.637-4.408 473.598 473.598 0 016.282-10.015c2.044-3.16 4.098-6.307 6.216-9.417.532-.783 1.086-1.551 1.627-2.325.502-.716.999-1.454 1.37-2.244.329-.694.682-1.613.621-2.409-.078-1.038-.207-1.648-.637-2.578-.607-1.312-1.864-2.163-3.039-2.915a38.598 38.598 0 01-2.181-1.499c-.101-.074-.2-.15-.3-.226-2.564-2.081-5.038-4.279-7.326-6.673-1.174-1.234-2.388-2.436-3.51-3.72-1.586-1.815-3.177-3.625-4.727-5.477C8.622.395 7.442 0 6.469 0a3.955 3.955 0 00-2.805 1.172" fill="#161616" mask="url(#f)"/></g><g transform="matrix(-1 0 0 1 167 269)"><mask id="h" fill="#fff"><use xlink:href="#g"/></mask><path d="M24.074 16.447c.219.17.437.342.654.512-.22-.17-.435-.341-.654-.512M3.664 1.172A4.04 4.04 0 002.5 4.004c0 1.133.46 1.994 1.164 2.832.94 1.127 1.89 2.238 2.851 3.346.764.877 1.5 1.788 2.295 2.634 1.657 1.766 3.312 3.523 5.016 5.244a78.478 78.478 0 004.832 4.462c.94.8 1.894 1.586 2.88 2.328-.255.34-.512.676-.763 1.014-.562.76-1.122 1.526-1.68 2.292-1.091 1.503-2.164 3.02-3.242 4.535-2.245 3.15-4.481 6.299-6.668 9.484-2.104 3.066-4.247 6.109-6.296 9.211-.422.637-.83 1.286-1.244 1.93C.82 54.604-.037 56.06 0 57.646c.023.812.094 1.589.4 2.343.342.836.637 1.476 1.093 2.217.369.601.799 1.175 1.202 1.75.565.814 1.125 1.628 1.68 2.446a42.02 42.02 0 011.811 2.885c.262.461.48.949.742 1.41.519.914 1.212 1.627 2.043 2.214a4.907 4.907 0 001.768.914c1.269.35 2.65.17 3.787-.501 1.875-1.11 2.84-3.424 2.273-5.55-.04-.406-.105-.815-.25-1.169-.3-.738-.59-1.436-.962-2.13a25.943 25.943 0 00-1.37-2.283 155.577 155.577 0 00-1.727-2.506c-.518-.734-1.087-1.46-1.606-2.211.432-.811.897-1.606 1.355-2.397a212.984 212.984 0 012.637-4.408 473.598 473.598 0 016.282-10.015c2.044-3.16 4.098-6.307 6.216-9.417.532-.783 1.086-1.551 1.627-2.325.502-.716.999-1.454 1.37-2.244.329-.694.682-1.613.621-2.409-.078-1.038-.207-1.648-.637-2.578-.607-1.312-1.864-2.163-3.039-2.915a38.598 38.598 0 01-2.181-1.499c-.101-.074-.2-.15-.3-.226-2.564-2.081-5.038-4.279-7.326-6.673-1.174-1.234-2.388-2.436-3.51-3.72-1.586-1.815-3.177-3.625-4.727-5.477C8.622.395 7.442 0 6.469 0a3.955 3.955 0 00-2.805 1.172" fill="#161616" mask="url(#h)"/></g></g></svg>