<svg width="500" height="600" xmlns="http://www.w3.org/2000/svg" xmlns:xlink="http://www.w3.org/1999/xlink"><defs><path id="a" d="M.551.225h21.65v104.093H.551z"/><path id="c" d="M.525.056h16.9v71.643H.524z"/><path id="e" d="M0 .778h104.85v72.319H0z"/></defs><g fill="none" fill-rule="evenodd"><path d="M189.54 363.886l.445.344c-.148-.114-.298-.229-.445-.344m-18.018-60.34l.045.348-.045-.349m158.185-52.524a4.493 4.493 0 00-2.264.609c-.97.563-1.738 1.514-2.04 2.594-.699 1.9-.518 3.952-.52 5.968-.003 1.823.003 3.64.095 5.463.089 1.813.128 3.625.265 5.439.145 1.906.308 3.796.356 5.71.104 4.03-.143 8.06-.166 12.09-.024 4.012.02 8.025.017 12.036 0 4.184-.106 8.344-.475 12.512-.36 4.07-.727 8.131-1.221 12.185-.31 2.047-.64 4.088-1.015 6.124-.401 2.187-.924 4.35-1.45 6.51a116.59 116.59 0 01-3.814 12.505c.167-.387.33-.777.496-1.164-.426 1-.85 2.003-1.274 3.004l.35-.832-1.057 2.186c-.347.715-.799 1.397-1.193 2.089-.684 1.19-1.524 2.297-2.353 3.394-.99 1.23-1.973 2.499-3.083 3.617-.72.718-1.432 1.435-2.18 2.12-.515.471-1.05.91-1.593 1.342-1.019.736-2.03 1.487-3.085 2.169a27.124 27.124 0 01-3.232 1.802c-1.738.633-3.552.95-5.37 1.291-1.185.222-2.37.413-3.56.589-1.828.181-3.66.329-5.49.495-2.006.184-4.008.396-6.015.544-4.224.313-8.463.455-12.696.544-8.07.165-16.146-.115-24.204-.52-5.308-.266-10.62-.414-15.92-.775-2.727-.183-5.451-.366-8.172-.614-2.322-.21-4.636-.489-6.947-.774-2.688-.422-5.398-.838-8.032-1.519a82.34 82.34 0 01-4.44-1.282c-.965-.308-1.911-.69-2.85-1.076a57.262 57.262 0 01-3.275-1.68c-1.02-.569-1.969-1.274-2.917-1.951a17.69 17.69 0 01-1.607-1.385 36.354 36.354 0 01-2.072-2.241 35.312 35.312 0 01-.952-1.322c-.427-.62-.796-1.291-1.184-1.935-.797-1.307-1.492-2.671-2.166-4.046-1.292-3.423-2.127-7.001-3.012-10.55-.963-3.849-1.699-7.767-2.42-11.666-.716-3.874-1.355-7.762-2.017-11.643-.345-2.027-.69-4.054-1.02-6.084-.305-1.876-.543-3.767-.84-5.646-.226-1.437-.44-2.874-.652-4.312-.281-2.13-.57-4.26-.866-6.388-.174-1.51-.316-3.013-.437-4.53-.124-1.625-.139-3.264-.222-4.893-.172-3.37-.43-6.72-.808-10.074-.196-1.752-.38-3.507-.606-5.256-.208-1.625-.433-3.268-.547-4.902-.112-1.634-.237-3.276-.168-4.916.038-.948.076-1.897.118-2.845.031-.765.16-1.537.249-2.297.011-.074.021-.149.033-.223.104-.727.125-1.341-.264-2.003a2.633 2.633 0 00-1.562-1.197 2.658 2.658 0 00-2.017.263c-.526.307-1.108.925-1.2 1.554-.63 4.181-.924 8.409-.954 12.636-.011 2.075-.05 4.149-.044 6.222.003 1.918.086 3.835.092 5.752.011 4.063-.13 8.12-.229 12.179-.045 1.903.083 3.823.22 5.72.145 2.032.312 4.065.481 6.098.148 1.8.392 3.59.55 5.389.19 2.154.421 4.299.686 6.446.522 4.287 1.072 8.565 1.708 12.837.567 3.808 1.164 7.605 1.88 11.39a144.25 144.25 0 001.256 6.05c.437 1.882.859 3.79 1.384 5.652.633 2.249 1.33 4.423 2.33 6.545a50.822 50.822 0 002.53 4.762 36.742 36.742 0 004.028 5.454c1.508 1.678 3.264 3.102 5.093 4.42 1.61 1.158 3.262 2.254 5.055 3.111 2.091.998 4.272 1.964 6.485 2.685a66.056 66.056 0 006.035 1.67c2.077.46 4.165.827 6.262 1.17 2.361.384 4.746.64 7.12.93 1.9.233 3.804.414 5.711.576 4.049.343 8.11.715 12.17.895 8.194.37 16.383 1.034 24.587 1.141 4.212.056 8.421.071 12.633-.05a159.16 159.16 0 0012.308-.81c4.39-.464 8.786-.89 13.105-1.829a35.943 35.943 0 007.042-2.286c1.923-.854 3.651-2.148 5.323-3.398 1.824-1.365 3.746-2.688 5.403-4.252a94.081 94.081 0 002.326-2.277c.719-.733 1.381-1.519 2.061-2.287.595-.673 1.147-1.383 1.72-2.074.817-.987 1.649-2.027 2.373-3.088.561-.815 1.123-1.624 1.637-2.472a52.03 52.03 0 001.68-3.02c1-1.92 1.86-3.944 2.618-5.97.745-1.995 1.488-3.99 2.168-6.004 1.265-3.737 2.293-7.581 3.16-11.425.992-4.4 1.637-8.848 2.201-13.319.505-4.003.933-8.033 1.186-12.06.24-3.853.21-7.729.229-11.587.014-4.036-.013-8.072.127-12.107.092-2.722.158-5.454.095-8.18-.063-2.64-.368-5.254-.52-7.89-.143-2.484-.27-4.972-.377-7.46a34.275 34.275 0 00-.508-4.638c-.163-.901-.496-1.746-.914-2.568-.813-1.586-2.697-2.907-4.546-2.907-.135 0-.27.007-.403.021" fill="#161616"/><path d="M275.265 244c-4.326.021-8.652.051-12.98.1-3.818.043-7.653.032-11.469.187-4.204.17-8.403.407-12.608.559-4.119.15-8.25.176-12.365.414-4.101.238-8.199.56-12.3.759-4.172.206-8.348.363-12.523.557-2.297.11-4.604.44-6.894.68-1.26.126-2.53.207-3.777.433-4.395.786-8.79 1.501-13.13 2.552-2.041.494-3.8 1.631-4.953 3.417a7.95 7.95 0 00-1.097 5.934 7.956 7.956 0 001.915 3.71c-.038 3.896 3.172 7.71 7.215 7.698 2.493-.008 4.952-.398 7.427-.659 7.77-.479 15.555-.538 23.326-1.03 8.039-.508 16.087-.758 24.125-1.256 3.165-.197 6.32-.472 9.475-.755 3.877-.293 7.755-.58 11.632-.882 3.995-.312 7.994-.45 11.998-.64 3.914-.185 7.86-.17 11.78-.149 4.057.02 8.117.063 12.173.19 1.972.063 3.935.2 5.901.37 1.907.167 3.831.2 5.747.238 2.215.044 4.42.04 6.639.012.94-.009 1.883-.09 2.823-.143a92.817 92.817 0 003.41-.271c1.957-.185 3.704-.675 5.545-1.384 2.485-.953 4.51-3.174 5.317-5.725.922-2.918.142-6.261-1.946-8.487-1.352-1.439-2.152-1.802-3.934-2.57-.827-.357-1.73-.408-2.618-.557-.454-.077-.916-.107-1.376-.148-1.984-.19-3.956-.486-5.934-.721-3.882-.464-7.79-.777-11.69-1.072-8.062-.613-16.155-1.361-24.25-1.361h-.604" fill="#BD8D46"/><path d="M171.232 265.535l.148.064-.148-.064m-3.002-2.448c.18.143.362.283.545.423 1.102.844 2.252 1.634 3.49 2.263.182.092.364.182.547.272a22.728 22.728 0 01-1.86-.634 8.538 8.538 0 01-1.216-.655 10.084 10.084 0 01-1.122-1.126c-.131-.18-.26-.36-.384-.543m4.133-1.837c.066.027.132.054.197.083l-.197-.083m-3.493-2.481l.06.077a1.915 1.915 0 01-.06-.077m145.436-15.795l.105.044-.097-.04-.007-.004m-101.93.252c2.566-.12 5.13-.224 7.697-.29a254.29 254.29 0 017.763-.057 718.65 718.65 0 0115.258.258c2.532.068 5.068.074 7.603.1 2.532.028 5.06.1 7.588.166 2.267.06 4.533.08 6.798.122 2.762.048 5.516.135 8.276.23 2.377.085 4.769.208 7.136.426 1.331.123 2.662.251 3.996.37 1.074.1 2.148.26 3.221.402 3.24.467 6.477.954 9.706 1.497 1.56.263 3.104.646 4.64 1.017a46.6 46.6 0 014.406 1.326c.913.429 1.796.908 2.686 1.4.913.51 1.765 1.117 2.605 1.735a39.93 39.93 0 012.14 1.804 22.21 22.21 0 012.054 2.176c.163.245.306.496.436.76l.003.007c0 .126-.004.252-.01.378-.013.05-.024.1-.038.15-.008.014-.015.029-.024.043a3.018 3.018 0 01-.1.097 9.85 9.85 0 01-1.11.666c-1.354.494-2.765.753-4.18 1.011-1.514.273-3.035.516-4.557.74-2.37.275-4.748.474-7.121.682-2.356.207-4.712.446-7.074.599-2.576.165-5.155.284-7.733.404-2.422.114-4.837.305-7.258.425-2.395.12-4.792.236-7.184.427-2.644.21-5.282.435-7.929.603-4.84.308-9.68.619-14.522.867-5.268.27-10.535.59-15.8.907-4.928.294-9.848.694-14.77 1.05-5.01.366-10.022.48-15.043.519-2.644.02-5.291.036-7.935-.042a90.625 90.625 0 01-8.22-.615 31.253 31.253 0 01-3.22-.63c-.848-.219-1.665-.512-2.485-.806-.868-.308-1.732-.619-2.593-.936-1.58-.58-3.159-1.155-4.713-1.795-1.066-.492-2.088-1.044-3.046-1.727a6.434 6.434 0 01-.641-.658 8.386 8.386 0 01-.484-.886 6.818 6.818 0 01-.328-1.194 7.69 7.69 0 01-.023-1.306c.071-.399.163-.786.285-1.175a7.73 7.73 0 01.782-1.276l.63-.824c.463-.602 1-1.144 1.568-1.645.41-.207.822-.405 1.234-.599 4.024-1.525 8.224-2.43 12.416-3.359 1.975-.437 3.98-.766 5.977-1.083 2.285-.363 4.572-.695 6.862-1.016l-.736.1c5.024-.68 10.048-1.312 15.11-1.545m18.485-6.225c-2.692 0-5.38.017-8.072.05-2.528.03-5.056.159-7.582.285-2.42.117-4.854.224-7.266.49-2.654.294-5.304.602-7.945.98-5.157.732-10.3 1.502-15.401 2.565a108.515 108.515 0 00-6.92 1.675c-2.611.725-5.252 1.53-7.67 2.778a28.712 28.712 0 00-3.075 1.85c-.603.419-1.189.853-1.762 1.31-.445.357-.889.74-1.248 1.189-.172.215-.353.434-.51.659a4.93 4.93 0 00-.557 1.095c-.115.3-.21.593-.29.9-.176.677-.28 1.36-.36 2.054a55.83 55.83 0 00-.178 1.739c-.054.59-.01 1.204.027 1.793a13.77 13.77 0 00.737 3.717c.198.557.413 1.105.632 1.652.223.545.446 1.075.737 1.586.166.294.36.578.537.866.467.745 1.043 1.416 1.668 2.032 1.149 1.137 2.658 1.763 4.144 2.326 1.34.505 2.736.864 4.133 1.16 2.626.555 5.258 1.03 7.925 1.345 2.472.29 4.944.574 7.425.775 2.641.212 5.28.416 7.927.536 2.582.116 5.163.188 7.742.278 4.938.174 9.881.164 14.819.188 10.13.052 20.262.15 30.392.12 1.317-.003 2.639-.087 3.954-.128 1.127-.04 2.25-.102 3.376-.159 2.501-.132 5.015-.243 7.513-.464 5.167-.452 10.33-.931 15.494-1.418 5.104-.485 10.22-1.024 15.285-1.832 2.49-.396 4.97-.856 7.457-1.288a145.17 145.17 0 007.142-1.427c2.377-.539 4.75-1.084 7.11-1.709 1.31-.348 2.558-.74 3.781-1.347 1.01-.5 1.95-1.242 2.73-2.053.464-.48.856-1.042 1.237-1.586a6.05 6.05 0 00.4-.668c.284-.287.564-.578.836-.877.754-.832 1.494-1.84 1.714-2.972.157-.806.112-1.356-.01-2.161a8.349 8.349 0 00-.109-.598c-.086-.405-.229-.791-.372-1.177a9.993 9.993 0 00-.668-1.484c-.294-.518-.74-.976-1.182-1.374a37.891 37.891 0 00-1.828-1.566c-2.666-2.136-5.738-3.729-8.862-5.074a.353.353 0 01-.026-.01l.02.009-.315-.136.108.046c-.458-.194-.915-.388-1.374-.58-.722-.366-1.477-.827-2.257-1.022-1.168-.293-2.4.12-3.106 1.09a19.918 19.918 0 00-2.123-.776l-1.949-.584c-.648-.191-1.322-.317-1.979-.475-1.108-.27-2.227-.545-3.354-.73-2.397-.398-4.798-.77-7.201-1.117-5.244-.76-10.502-1.413-15.8-1.64-2.572-.11-5.148-.249-7.724-.282-2.719-.038-5.437-.074-8.155-.104-2.341-.027-4.682-.09-7.026-.117-2.481-.03-4.962-.033-7.445-.05-4.977-.038-9.952-.153-14.93-.154h-.371" fill="#161616"/><path d="M221.307 236.04c-2.38.478-4.757.985-7.132 1.493-2.285.49-4.58.967-6.849 1.536-1.368.342-2.738.687-4.107 1.026-1.257.313-2.501.667-3.753.998-1.917.512-3.828 1.047-5.742 1.572a1.156 1.156 0 00-.183-.155c-.412-.284-.929-.082-1.358.046-.287.085-.576.16-.857.255-.668.23-1.34.455-2.011.682-.517.176-1.023.403-1.534.605-.494.198-1 .38-1.482.604l-1.743.802-1.938.723c-.595.22-1.168.521-1.745.785-.672.307-1.343.614-2.01.921-.167.076-.323.166-.483.256-.47.261-.943.519-1.413.78-.613.339-1.24.655-1.83 1.03l-2.37 1.495c-.931.588-1.815 1.272-2.661 1.97-.399.332-.777.682-1.126 1.068-.16.173-.31.354-.461.533-.084.104-.166.209-.246.31a1.887 1.887 0 00-.23.47c-.143.383.091.84.428 1.035.399.227.996.129 1.245-.269.343-.376.709-.73 1.092-1.066a.913.913 0 00.446-.117c1.6-.9 3.193-1.807 4.81-2.676 1.485-.798 2.966-1.598 4.45-2.395.746-.4 1.482-.823 2.242-1.197.987-.484 1.975-.969 2.96-1.454l1.227-.425c.417-.142.852-.248 1.275-.37.743-.218 1.488-.43 2.23-.647.357-.101.719-.186 1.079-.279l2.493-.625c1.059-.267 2.117-.537 3.175-.806 4.714-1.206 9.433-2.38 14.18-3.464 3.554-.812 7.109-1.633 10.645-2.52.704-.177 1.124-.934.935-1.615a1.32 1.32 0 00-1.277-.955c-.12 0-.245.014-.37.04" fill="#161616"/><path d="M320.241 255.528c.06.124.112.252.16.381l-.16-.38zm-.254-.266a3.927 3.927 0 01-.024.186l.024-.186zm-.047-1.09c.031.16.053.319.062.478l-.062-.478zm-83.864-11.622c2.021-.128 4.042-.283 6.062-.378 1.01-.048 2.02-.087 3.03-.127 1.728.02 3.455.048 5.183.08 6.526.121 13.073.407 19.574.963 5.954.509 11.903 1.068 17.831 1.835 4.5.707 8.99 1.425 13.418 2.495 4.308 1.042 8.423 2.601 12.538 4.227 1.994.881 3.954 1.794 5.764 3.03.15.133.298.269.44.41a7.698 7.698 0 01-.085.277c-.16.306-.328.601-.512.89-.262.275-.532.535-.816.788a20.431 20.431 0 01-3.088 1.745c-4.436 1.727-9.157 2.466-13.84 3.204-7.956.962-15.949 1.41-23.954 1.719-4.044.154-8.089.303-12.136.362-4 .063-8.002.042-11.999.09-8.12.09-16.232.062-24.35-.155-8.008-.211-16.031-.536-24.016-1.216-4.918-.42-9.82-1.046-14.719-1.659-2.628-.406-5.28-.792-7.87-1.384-2.606-.595-5.17-1.277-7.686-2.18a12.793 12.793 0 01-1.321-.781c-.19-.17-.374-.345-.551-.527-.026-.092-.05-.184-.075-.277l.072-.12c.377-.42.775-.815 1.2-1.19 1.164-.807 2.393-1.49 3.655-2.112a3.263 3.263 0 001.62-.45 2.93 2.93 0 00.76-.63c5.318-1.962 10.87-3.287 16.402-4.48 1.378-.3 2.774-.52 4.159-.78 1.393-.261 2.778-.54 4.174-.781a278.05 278.05 0 017.939-1.236c7.7-.963 15.458-1.167 23.197-1.652zm7.86-9.387c-3.836.063-7.673.292-11.507.435-4.07.148-8.147.196-12.215.398-8.197.404-16.309 1.672-24.41 2.95-3.913.62-7.797 1.451-11.652 2.386-1.92.463-3.875.925-5.748 1.567-2.292.782-4.559 1.665-6.736 2.73-3.024 1.478-5.9 3.46-7.822 6.284-1.183 1.738-1.825 3.68-1.846 5.791-.009 1.05.207 2.141.503 3.15a11.073 11.073 0 003.449 5.333c.944.794 1.915 1.543 2.98 2.159 1.144.663 2.393 1.133 3.635 1.576 7.452 2.643 15.313 3.542 23.105 4.595a249.85 249.85 0 0012.537 1.386c3.938.327 7.893.52 11.842.702 4.021.187 8.04.268 12.065.35 4.188.09 8.377.024 12.564-.017 3.993-.042 7.987-.128 11.98-.209 3.988-.08 7.976-.121 11.964-.341 8.204-.456 16.443-.821 24.614-1.755 2.316-.265 4.653-.45 6.957-.824 2.207-.357 4.4-.743 6.594-1.169 2.69-.523 5.385-1.145 8-1.963 2.7-.847 5.387-1.992 7.769-3.533 2.685-1.737 4.851-4.2 5.886-7.266.527-1.558.746-3.29.362-4.91-.175-.726-.444-1.556-.811-2.195-.396-.693-.896-1.3-1.385-1.927-.34-.434-.807-.791-1.233-1.133a29.939 29.939 0 00-1.926-1.428 21.902 21.902 0 00-3.408-1.883c-2.163-.957-4.326-1.918-6.54-2.747-1.874-.7-3.743-1.46-5.663-2.023a83.193 83.193 0 00-5.828-1.496 147.9 147.9 0 00-7.104-1.339c-.412-.424-.94-.775-1.473-.853-4.283-.633-8.626-.922-12.939-1.264-4.174-.33-8.336-.747-12.51-1.017-1.93-.125-3.853-.31-5.785-.396a392.027 392.027 0 00-6.209-.226c-.98-.03-1.96-.041-2.94-.041-3.038 0-6.08.114-9.115.163z" fill="#161616"/><path d="M229.796 192.941c-.864.274-1.607.629-2.328 1.167a12.649 12.649 0 00-2.898 2.983c-.716 1.046-1.317 2.138-1.92 3.25-.792 1.45-1.452 2.958-2.073 4.492-.98 2.423-1.461 4.975-1.744 7.561-.268 2.461-.025 4.967.395 7.396.42 2.416 1.371 4.685 2.445 6.877 1.268 2.588 3.022 4.909 4.223 7.53.571 1.474 1.04 2.993 1.316 4.553.102 1.08.1 2.14-.005 3.22a17.336 17.336 0 01-.902 3.336c-.426.88-.948 1.688-1.53 2.47a21.539 21.539 0 01-3.088 3.06 17.953 17.953 0 01-2.634 1.6 8.78 8.78 0 01-1.44.365c-.427.051-.854.098-1.283.13-.635.045-1.189.22-1.648.678a2.325 2.325 0 00-.682 1.644c0 1.198 1.061 2.413 2.33 2.322.958-.07 1.911-.197 2.86-.346 1.011-.157 1.973-.639 2.87-1.1 1.834-.945 3.468-2.341 4.927-3.776a19.83 19.83 0 003.383-4.43c.936-1.691 1.473-3.627 1.786-5.52.371-2.267.253-4.489-.22-6.731-.409-1.934-1.044-3.766-1.828-5.577-.486-1.119-1.117-2.19-1.683-3.271-.56-1.065-1.11-2.133-1.6-3.231a33.763 33.763 0 01-.816-2.242c-.293-.917-.478-1.87-.631-2.821a25.747 25.747 0 01-.017-5.609c.355-2.12.969-4.147 1.77-6.138.57-1.265 1.207-2.49 1.86-3.714.787-1.478 1.605-2.916 2.602-4.26a7.9 7.9 0 01.498-.55c1.072-.75 1.678-1.955 1.313-3.275-.343-1.237-1.555-2.164-2.829-2.164-.26 0-.521.039-.78.121" fill="#161616"/><g transform="translate(235.21 154.457)"><mask id="b" fill="#fff"><use xlink:href="#a"/></mask><path d="M6.232 2.83C5.781 4.48 5.27 6.115 4.82 7.766c-.426 1.56-.84 3.124-1.254 4.687-.441 1.665-.901 3.324-1.353 4.987C1.036 21.78.46 26.32.563 30.813c.057 2.352.35 4.69.706 7.01.36 2.357.997 4.634 1.783 6.882 1.04 2.967 2.376 5.822 3.678 8.68 1.29 2.844 2.626 5.668 3.893 8.52.312.7.622 1.402.932 2.101l1.722 4.379c.54 1.369.976 2.786 1.46 4.176.232.671.422 1.363.63 2.043.19.613.412 1.228.567 1.85.543 2.18 1.113 4.343 1.452 6.565a27.93 27.93 0 01.184 3.315c-.007 1.157-.136 2.316-.282 3.464-.206 1.387-.462 2.779-.943 4.098a12.966 12.966 0 01-1.319 2.242 18.069 18.069 0 01-2.521 2.512 15.474 15.474 0 01-2.43 1.438 14.01 14.01 0 01-2.028.496 9.389 9.389 0 01-.28.022c-1.01.08-1.861.784-1.861 1.854 0 .948.848 1.934 1.86 1.854.858-.07 1.7-.219 2.537-.41.916-.21 1.796-.648 2.619-1.09 1.903-1.017 3.547-2.532 4.957-4.139 1.292-1.464 2.208-3.145 2.82-4.99.725-2.182 1.048-4.512 1.342-6.781.441-3.378-.107-6.768-.706-10.09-.117-.649-.206-1.315-.36-1.957l-.714-2.978c-1.5-6.253-3.892-12.235-6.291-18.187-.658-1.63-1.294-3.268-1.933-4.907-.633-1.62-1.245-3.249-1.777-4.905-.733-2.287-1.309-4.59-1.668-6.957-.415-3.593-.463-7.197-.052-10.792.407-2.637 1.06-5.22 1.792-7.788.412-1.448.852-2.895 1.221-4.357.23-.919.463-1.838.695-2.757.18-.716.29-1.451.425-2.175.327-1.734.548-3.516.561-5.279.014-1.58-1.095-3.01-2.616-3.425a3.466 3.466 0 00-.923-.125C8.132.225 6.659 1.27 6.232 2.83" fill="#161616" mask="url(#b)"/></g><g transform="translate(261.21 183.093)"><mask id="d" fill="#fff"><use xlink:href="#c"/></mask><path d="M11.648 57.915l-.05.392c.015-.131.033-.261.05-.392M8.336.182c-.283.12-.566.237-.847.357a3.55 3.55 0 00-1.275 1.27c-2.069 2.794-3.276 6.03-4.19 9.354-.551 2.005-.885 4.091-1.131 6.152a49.12 49.12 0 00-.366 6.198c.016 2.064.262 4.104.553 6.147.294 2.035.773 4.037 1.371 6.003 1.246 4.07 3.336 7.785 5.316 11.527.615 1.161 1.162 2.365 1.745 3.545a246.156 246.156 0 012.058 4.255c.09.24.172.478.241.726.012.657-.052 1.305-.132 1.955a18.374 18.374 0 01-.78 3.14 14.549 14.549 0 01-1.316 2.268 15.832 15.832 0 01-1.944 1.95c-.902.6-1.868 1.083-2.858 1.52l-.312.124c-.647.255-1.165.55-1.53 1.172a2.563 2.563 0 00-.256 1.962 2.56 2.56 0 001.174 1.524c.54.314 1.365.498 1.972.258a33.747 33.747 0 003.633-1.672c1.095-.595 2.076-1.457 2.955-2.328 2.067-2.043 3.392-4.645 4.176-7.413.202-.71.325-1.456.478-2.184.098-.484.165-.971.23-1.461.04-.29.077-.581.11-.872a3.332 3.332 0 00-.09-1.126c-.178-1.17-.68-2.227-1.14-3.308l-.773-1.819c-.751-1.766-1.518-3.529-2.274-5.295-.756-1.762-1.594-3.495-2.39-5.242a44.12 44.12 0 01-1.518-4.431c-.408-1.455-.696-2.941-.92-4.435-.423-3.592-.377-7.177.052-10.764.655-4.34 1.742-8.672 3.398-12.75.178-.379.386-.746.594-1.106.968-1.672.404-3.867-1.274-4.844a3.577 3.577 0 00-2.74-.357" fill="#161616" mask="url(#d)"/></g><path d="M228.5 381.937c.218 2.845.413 5.687.57 8.535.123 2.235.055 4.489-.033 6.726-.1 2.46-.322 4.898-.558 7.35-.245 2.511-.469 5.022-.767 7.529a669.246 669.246 0 00-.528 4.06c-.375.007-.75.018-1.125.033-.348.015-.693.045-1.038.09-1.099.139-2.184.222-3.217.643-1.71.7-3.208 1.306-4.557 2.626a7.47 7.47 0 00-1.384 1.907c-.23.463-.507 1.116-.67 1.668-.307 1.044-.195 1.892-.026 2.94.277 1.735 1.746 3.154 3.251 3.88 1.479.715 3.102 1.104 4.749 1.074 1.478-.026 2.916-.581 4.217-1.237.425-.21.85-.415 1.255-.661.861-.533 1.657-1.156 2.436-1.802 1.758.13 3.808-.297 5.036-1.66.404-.452.83-.905 1.077-1.46.398-.899.906-2.05.797-3.08a34.086 34.086 0 00-.204-1.568c-.242-2.472-.112-4.975-.023-7.453.12-3.341.026-6.682-.01-10.026-.064-6.73-.87-13.41-1.413-20.114-.088-1.074-.369-2-1.148-2.783a3.923 3.923 0 00-2.77-1.154c-2.011 0-4.083 1.795-3.917 3.937m32.266 3.913c-.06.913.03 1.819.105 2.73.07.83.137 1.664.205 2.495.126 1.543.185 3.083.221 4.63.069 3.17-.044 6.352-.197 9.521-.149 3.177-.36 6.356-.498 9.534a194.02 194.02 0 00-.167 5.073 46.312 46.312 0 01-.2 3.867c-.093.61-.182 1.221-.223 1.837-.078 1.1.241 2.127.737 3.091.673 1.315 2.216 2.514 3.695 2.727.86.125 1.337.238 2.104.137.312-.04.632-.076.952-.119 1.826.256 3.673.517 5.51.614 2.366.125 4.956-.652 6.217-2.797.958-1.63 1.077-3.792.066-5.434-.684-1.104-1.241-1.543-2.252-2.308-1.316-.997-3.058-1.229-4.645-1.374-.672-.062-1.42.05-2.083.14l-.988.128c-.344-2.678-.63-5.354-.82-8.048-.197-2.819-.328-5.644-.561-8.463a114.648 114.648 0 00-.492-4.881c-.206-1.635-.49-3.258-.782-4.875-.235-1.323-.542-2.63-.865-3.932-.397-1.605-.796-3.24-1.39-4.783l-.013.013a1.821 1.821 0 00-1.285-1.304 1.887 1.887 0 00-.502-.069c-.996 0-1.78.832-1.849 1.85M164.128 284c.249 0 .496.032.734.099.732.204 1.37.696 1.753 1.355.418.718.46 1.473.297 2.271-.497 2.458-1.036 4.91-1.452 7.385-.3 1.8-.605 3.6-.905 5.398-.534 3.166-1.081 6.333-1.597 9.506-.616 5.318-1.292 10.622-1.746 15.956-.314 3.669-.587 7.334-.694 11.016a347.318 347.318 0 00-.159 8.511c-.007.65-.03 1.3-.02 1.946.027 1.543-.828 3.03-2.112 3.841-2.125 1.343-4.575.406-6.71-.394a45.794 45.794 0 01-3.103-1.273 47.48 47.48 0 01-2.808-1.386l-1.017-.025c-.883-.021-1.77-.073-2.657-.108-.738-.03-1.494-.034-2.229-.114-.359-.036-.722-.07-1.08-.118l-.091.068-.164.118a5.68 5.68 0 01-.693.413c-.773.402-1.625.6-2.47.776-2.678.558-5.38.975-8.088 1.356-.265.038-.53.074-.796.11-.791.202-1.59.375-2.396.508a73.62 73.62 0 01-4.6.603c-1.131.115-2.315.222-3.45.167a39.083 39.083 0 01-4.357-.444c-.967-.156-1.947-.285-2.892-.541-.373-.1-.756-.19-1.111-.34-.285-.117-.582-.222-.871-.341-.449-.132-.892-.28-1.32-.454-.997-.402-1.926-.793-2.784-1.445-.456-.343-.98-.71-1.353-1.158-.355-.427-.777-.85-1.021-1.35-.377-.769-.694-1.573-1.014-2.367-.332-.815-.076-1.952.348-2.68a3.495 3.495 0 012.066-1.599 3.47 3.47 0 013.91 1.599l.139.335a4.871 4.871 0 012.352-.518c.268.007.534.017.804.025a70.41 70.41 0 003.622-.008c2.412-.063 4.818-.332 7.215-.576 2.352-.236 4.708-.413 7.054-.68 2.313-.354 4.623-.726 6.928-1.133.372-.066.744-.134 1.116-.202-.526-1.332-.359-2.81.704-3.879 1.062-1.07 2.915-1.4 4.216-.547.752.496 1.49 1.04 2.122 1.688.393.41.79.815 1.187 1.22.242.249.488.489.74.724.401-.076.805-.137 1.204-.127 1.307.038 2.612.35 3.568 1.31a3.778 3.778 0 011.063 2.898c1.1.621 2.274 1.128 3.434 1.627l.586.237c.246-2.435.426-4.875.637-7.313.348-4.057.748-8.1 1.176-12.15.407-3.865.938-7.72 1.421-11.58.166-1.317.3-2.645.525-3.952.355-2.104.714-4.209 1.073-6.313.435-2.538.866-5.077 1.297-7.614.47-2.74 1.042-5.458 1.594-8.18.269-1.317 1.592-2.157 2.875-2.157zm167.559-14.367c-.9.25-1.68.857-2.151 1.668a3.683 3.683 0 00-.361 2.798c.223.819.845 1.814 1.653 2.172l.439.191c.48.426.918.88 1.335 1.372a18.24 18.24 0 011.375 2.48c1.02 2.648 1.686 5.417 2.358 8.17.723 2.97 1.141 6.015 1.55 9.047.369 4.052.816 8.099.96 12.165.072 2.05.185 4.1.205 6.15.018 2.235.022 4.469.06 6.702.072 4.241.212 8.486.24 12.724.01 2.114.079 4.251-.031 6.366a99.117 99.117 0 01-.182 2.888c-.245.295-.455.623-.678.94-.399.57-.583 1.3-.67 2.01a3.93 3.93 0 00-.257.841c-.2 1.162-.286 2.029.03 3.191.55 2.014 2.17 3.71 4.177 4.268a6.351 6.351 0 005.143-.811c1.158-.766 2.272-1.88 2.838-3.173.547-1.252.754-1.7.832-3.09.041-.667-.081-1.327-.236-1.977-.037-1.052-.262-2.118-.479-3.138-.218-1.023-.376-2.057-.539-3.09-.502-4.001-.938-8.015-1.251-12.032-.355-4.588-.602-9.183-.956-13.768l-.598-7.691c-.073-.96-.231-1.921-.347-2.88-.2-1.65-.399-3.3-.595-4.955-.577-4.774-1.361-9.518-2.585-14.172-.385-1.46-.767-2.92-1.21-4.362-.454-1.492-1.056-2.934-1.702-4.35-.615-1.345-1.485-2.503-2.396-3.654-.82-1.04-1.993-2.102-3.197-2.632-.647-.289-1.248-.49-1.896-.49-.28 0-.57.037-.878.122" fill="#161616"/><g transform="translate(46 269.222)"><mask id="f" fill="#fff"><use xlink:href="#e"/></mask><path d="M16.357 19.37c.055.399.108.798.16 1.196-.077-.601-.16-1.2-.241-1.8l.08.604m3.408 40.927l.132.055h-.018a2.965 2.965 0 01-.114-.055m-4.758-48.688c-.465-1.977-1.021-4.2-1.984-6.117 1.439.416 2.853.795 4.344 1.027 1.57.247 3.148.414 4.726.579 1.664.17 3.328.335 4.993.468 3.136.246 6.273.492 9.41.742 4.558.356 9.109.727 13.664 1.102a1449.61 1449.61 0 0130 2.809c3.88.398 7.75.877 11.62 1.368l.89.125-.065.179c-.871 2.398-1.742 4.8-2.61 7.199a263.768 263.768 0 00-4.296 12.949 794.649 794.649 0 00-4.024 13.668c-1.097 3.822-2.234 7.62-2.461 11.583-1.52.106-3.044.168-4.558.194-2.356.039-4.711.114-7.063.078-4.953-.074-9.906-.175-14.86-.218-5.077-.043-10.144-.036-15.222.125-4.648.144-9.29.363-13.93.699-.442.03-.886.063-1.33.092-.18-.766-.346-1.535-.533-2.284-.308-1.234-.57-2.48-.851-3.718-.537-2.388-.92-4.797-1.318-7.211-.343-3.221-.678-6.443-1.034-9.664-.457-4.157-.86-8.325-1.414-12.47.078.599.16 1.2.242 1.798l-.985-7.341c-.354-2.597-.748-5.218-1.351-7.761M3.159 1.625C1.713 2.469.799 3.78.292 5.35c-.856 2.645.378 5.016 1.07 7.485.492 1.758.805 3.562 1.148 5.355.569 2.929.947 5.897 1.346 8.854.516 4.453 1.02 8.91 1.525 13.369.188 1.66.372 3.316.559 4.977.168 1.46.28 2.957.539 4.406.387 2.199.69 4.433 1.21 6.605a268.34 268.34 0 001.892 7.52c.242.89.468 1.785.82 2.64.398.973.699 1.727 1.234 2.579.586.937 1.715 2.234 2.73 2.742.794.398 1.59.777 2.454.98 1.059.254 2 .27 3.05.195.567-.042 1.137-.113 1.708-.164 4.593-.402 9.222-.476 13.832-.593 9.519-.246 19.023.023 28.539.23 5.027.106 10.035.113 15.058-.125 2.372-.11 4.723-.336 7.067-.742.789-.133 2.082-.586 2.629-.97 1.152-.807 2.207-1.522 2.94-2.772.868-1.485 1.005-3.133 1.118-4.801.133-1.97.188-3.938.23-5.91a38.8 38.8 0 01.243-3.393 173.753 173.753 0 014.234-19.271c.969-3.465 1.965-6.91 3.086-10.328 1.08-3.294 2.088-6.62 3.317-9.86.335-.686.707-1.384.85-2.113.325-1.656.095-3.723-1.354-4.852-.321-.246-.637-.492-.957-.738a8.107 8.107 0 00-1.352-.547c-.785-.254-1.738-.27-2.562-.301-2.184-.078-4.367-.14-6.551-.222-4.785-.18-9.566-.403-14.348-.65-10.14-.518-20.273-1.112-30.41-1.651-3.703-.195-7.406-.387-11.11-.574l-8.515-.434c-2.912-.15-5.83-.273-8.73-.553a3.967 3.967 0 00-.571-.107l-1.671-.221c-.443-.06-.884-.123-1.325-.185-.7-.102-1.476-.438-2.172-.348-1.023.133-1.902.602-2.195 1.672a.54.54 0 00-.011.043A6.983 6.983 0 007.966.996 6.389 6.389 0 006.312.778a6.231 6.231 0 00-3.152.847" fill="#161616" mask="url(#f)"/></g><path d="M87.889 293.228c-.875.894-1.29 1.781-1.383 3.027-.117 1.574.5 2.992 1.356 4.281.76 1.153 1.703 2.235 2.625 3.262 1.035 1.156 2.347 2.098 3.594 3.012.82.601 2.136.66 3.078.402a4.03 4.03 0 002.51-2.063c.26-.136.516-.285.765-.444-.061.415-.042.841.08 1.288a3.346 3.346 0 001.524 1.985c1.597.933 3.578.336 4.539-1.192.347-.549.722-1.075 1.11-1.594.794-1.009 1.58-2.024 2.214-3.144.922-1.625 1.457-3.687.953-5.539-.57-2.074-2.058-3.652-4.207-4.086a5.285 5.285 0 00-3.56.5c-.796.426-1.495.977-2.198 1.551-.535.437-1.058.898-1.586 1.348-.592.509-1.185 1.01-1.785 1.503-.274-.374-.55-.747-.828-1.117a38.487 38.487 0 00-1.68-2.125c-.465-.539-1.054-.957-1.656-1.336-.79-.496-1.773-.656-2.68-.671l-.052-.001c-1.007 0-2.03.435-2.733 1.153m51.482 29.838a4.144 4.144 0 00-1.898 2.465 4.158 4.158 0 00.418 3.183c.503.864 1.453 1.7 2.464 1.9 2.586.503 5.171 1.007 7.755 1.512-.879.241-1.636.695-2.122 1.496-2.627.442-5.254.884-7.879 1.34-2.367.41-4.726.831-7.093 1.221-1.86.31-3.72.597-5.584.867-6.237.174-12.47.356-18.709.56-2.7.09-5.39.16-8.086.323-4.528.278-9.055.563-13.582.801-1.129.051-2.079.906-2.079 2.078 0 1.13.946 2.078 2.08 2.074a209.79 209.79 0 007.006-.12c1.643-.06 3.286-.123 4.928-.185 3.124.105 6.245.224 9.37.356 1.48.06 2.961.137 4.441.176 1.617.04 3.238.13 4.855.105 1.77-.023 3.54-.023 5.31-.12 1.85-.102 3.69-.239 5.538-.399 1.408-.126 2.814-.284 4.218-.457 5.878-.028 11.76-.158 17.637-.278 3.31-.066 6.617-.109 9.926-.148a177.17 177.17 0 014.313-.012c1.824.02 3.652.09 5.472.04 1.672-.048 3.16-1.11 3.614-2.75.156-.57.17-1.142.064-1.68 1.73.074 3.461.215 5.175.411.514.077 1.031.14 1.546.202.746 0 1.441-.188 2.082-.563A4.157 4.157 0 00182.45 335a4.15 4.15 0 00-.418-3.18l-.644-.832a4.121 4.121 0 00-1.82-1.063c-.813-.343-1.712-.46-2.575-.629-.668-.132-1.336-.265-2.008-.394-1.519-.289-3.039-.574-4.558-.863-2.719-.516-5.438-1.043-8.157-1.563-6.574-1.262-13.144-2.55-19.718-3.828a5.991 5.991 0 00-1.152-.12 3.9 3.9 0 00-2.028.538" fill="#161616"/></g></svg>