<?xml version="1.0" encoding="UTF-8"?>
<svg width="500px" height="600px" viewBox="0 0 500 600" version="1.1" xmlns="http://www.w3.org/2000/svg" xmlns:xlink="http://www.w3.org/1999/xlink">
    <title>explaining</title>
    <defs>
        <polyline id="path-1" points="167.954 0.961 167.438 278.565 0.628 312 1.143 34.396"></polyline>
        <polyline id="path-3" points="167.954 0.961 167.438 278.565 0.628 312 1.143 34.396"></polyline>
        <polyline id="path-5" points="167.954 0.961 167.438 278.565 0.628 312 1.143 34.396"></polyline>
        <polyline id="path-7" points="167.954 0.961 167.438 278.565 0.628 312 1.143 34.396"></polyline>
        <polyline id="path-9" points="167.954 0.961 167.438 278.565 0.628 312 1.143 34.396"></polyline>
        <polyline id="path-11" points="167.954 0.961 167.438 278.565 0.628 312 1.143 34.396"></polyline>
    </defs>
    <g id="explaining" stroke="none" stroke-width="1" fill="none" fill-rule="evenodd">
        <g id="body" transform="translate(210.000000, 225.000000)">
            <g id="fill" transform="translate(1.406300, 22.941970)">
                <path d="M95.3973,50.6185302 C94.9433,50.9535302 94.4923,51.2905302 94.0403,51.6265302 C93.8353,51.0885302 93.6593,50.5425302 93.5563,49.9765302 C93.4783,49.5515302 93.6093,49.1145302 94.0033,48.8855302 C94.3423,48.6895302 94.9243,48.7045302 95.1843,49.0365302 C95.4413,49.3655302 95.7753,49.6905302 96.1433,49.9485302 C95.9013,50.1785302 95.6513,50.3995302 95.3973,50.6185302 M112.1733,40.5525302 C111.8063,38.6515302 111.0493,36.8595302 110.3543,35.0615302 C109.6303,33.1905302 108.9063,31.3195302 108.1823,29.4485302 C108.1383,29.3355302 108.0763,29.2345302 108.0063,29.1405302 C108.0643,29.0025302 108.1203,28.8635302 108.1773,28.7245302 C107.6003,26.9255302 107.0073,25.1315302 106.3423,23.3695302 C106.3353,23.3455302 106.3433,23.3205302 106.3353,23.2965302 C106.0003,22.3365302 105.6653,21.3775302 105.3303,20.4175302 C105.2433,20.1695302 105.1023,19.9555302 104.8703,19.8205302 C104.8653,19.8175302 104.8573,19.8165302 104.8523,19.8135302 C104.1293,18.2705302 103.3053,16.7745302 102.3473,15.3385302 C101.4013,14.9365302 100.4943,14.4435302 99.6353,13.8755302 C99.5113,13.8095302 99.4153,13.7165302 99.3393,13.6065302 C99.3303,13.5945302 99.3223,13.5825302 99.3133,13.5695302 C99.2843,13.5225302 99.2603,13.4725302 99.2403,13.4205302 C99.1283,13.1825302 99.1163,12.9155302 99.2213,12.6495302 C95.2713,10.2765302 91.1473,8.17853023 86.8723,6.51353023 C79.8153,3.76553023 72.0063,3.75653023 64.9673,0.926530228 C63.9473,2.19353023 62.7003,3.46553023 61.4483,4.30553023 C60.9473,5.75753023 60.2773,7.27053023 58.9773,8.17053023 C57.2853,9.34253023 54.9923,9.23753023 53.1853,8.28253023 C52.8783,8.34253023 52.5663,8.37153023 52.2483,8.34153023 C51.0083,8.22553023 50.0353,7.56453023 49.2933,6.60053023 C49.0083,6.23053023 49.1783,5.70853023 49.4853,5.40753023 C49.4413,5.23853023 49.3983,5.06953023 49.3723,4.89253023 C49.2223,4.71453023 49.0793,4.53153023 48.9383,4.34753023 C47.5943,4.76053023 46.2753,5.25153023 44.9613,5.76253023 C44.9493,6.12753023 44.7463,6.47553023 44.2813,6.59753023 C41.8213,7.24653023 39.2733,7.82853023 36.8863,8.76453023 C22.6593,18.2495302 11.8063,32.4405302 6.1853,49.5695302 C6.1253,49.7535302 6.1053,49.9245302 6.0653,50.1015302 C4.6263,52.4965302 3.1083,54.8525302 1.4673,57.1405302 C2.4983,58.8115302 3.8643,60.3355302 5.0763,61.7285302 C7.2153,64.1875302 9.5433,66.6415302 10.9593,69.5985302 C11.6283,70.0295302 12.3073,70.4415302 13.0423,70.7615302 C13.8803,71.1255302 14.2553,72.0435302 14.2463,72.9175302 C14.3973,72.9295302 14.5473,72.9405302 14.7013,72.9415302 C15.2283,72.9455302 15.6153,73.3545302 15.6633,73.8565302 C16.1313,74.0775302 16.6153,74.2675302 17.1193,74.4155302 C18.1173,74.7095302 19.0563,75.7265302 18.9643,76.8205302 C18.7553,79.3365302 18.0313,81.7065302 17.2443,84.0665302 C17.7713,85.0905302 17.5063,86.0335302 16.8773,86.6755302 C18.3733,87.1435302 20.1263,86.9685302 21.3253,85.9855302 C19.1173,97.5365302 17.0543,109.11553 15.1033,120.71553 C17.4273,121.85853 19.8503,122.79453 22.1513,123.98553 C22.2513,124.03753 22.3343,124.10553 22.4213,124.16853 C24.1893,124.62353 25.9513,125.12353 27.7293,125.50753 C30.9853,124.87153 34.3843,125.53353 37.6833,125.36553 C42.1813,125.13653 46.6493,124.41953 51.1393,124.07853 C53.4023,123.90753 55.6683,123.76053 57.9343,123.59853 C58.3463,123.49453 58.7583,123.38853 59.1703,123.28553 C63.2073,122.28753 67.2953,121.40753 71.4473,121.05553 C71.9273,121.01453 72.4093,120.99453 72.8913,120.97553 C72.7883,120.52453 72.9663,120.04553 73.5613,119.95453 C78.1373,119.25753 81.7153,116.20253 85.7743,114.21553 C85.7993,114.17453 85.8093,114.13253 85.8413,114.09253 C87.9783,111.44453 90.5223,109.27953 91.7993,106.04753 C92.1973,105.04153 92.4963,104.01553 92.7313,102.97653 C92.9783,101.76853 93.1703,100.54753 93.2943,99.3125302 C93.4013,98.1075302 93.4473,96.8935302 93.4523,95.6785302 C93.4533,95.3935302 93.5613,95.1825302 93.7163,95.0285302 C93.7013,94.6775302 93.6833,94.3255302 93.6713,93.9735302 C93.4793,92.6375302 93.2813,91.3005302 93.2593,89.9495302 C93.0833,87.5535302 93.0663,85.1395302 92.7163,82.7585302 C92.6833,82.5355302 92.7353,82.3455302 92.8183,82.1755302 C92.4723,78.9135302 92.0493,75.6595302 91.9113,72.3805302 C91.9003,72.1315302 91.9843,71.9465302 92.1023,71.7975302 C91.7193,69.3855302 91.0203,67.0155302 91.1403,64.5505302 C91.1503,64.3595302 91.2273,64.1905302 91.3353,64.0435302 C91.3223,63.9385302 91.3103,63.8335302 91.2973,63.7285302 C91.2503,63.6505302 91.2023,63.5715302 91.1753,63.4705302 C90.8073,62.0675302 90.7563,60.6455302 90.7553,59.2025302 C90.7553,58.6845302 91.0503,58.4005302 91.4093,58.3125302 C92.1293,57.1785302 93.4333,56.5975302 94.4683,55.8275302 C94.4563,55.6105302 94.4353,55.3915302 94.4173,55.1735302 C95.5853,54.3425302 96.7403,53.4645302 97.8113,52.5075302 C101.5133,49.7285302 105.1573,46.8995302 108.1463,43.3435302 C108.3243,43.2115302 108.5043,43.0825302 108.6813,42.9505302 C109.3553,42.4455302 110.0703,42.0115302 110.2763,41.1505302 C110.4203,41.6345302 111.0063,41.9105302 111.4753,41.7825302 C112.0303,41.6295302 112.2763,41.0845302 112.1733,40.5525302" id="Fill-1" fill="#27A9E0"></path>
                <path d="M44.534,5.75483023 C44.522,6.11983023 44.32,6.46683023 43.86,6.58883023 C40.122,7.58383023 36.172,8.40283023 32.927,10.6178302 C32.382,10.9898302 31.865,10.6918302 31.64,10.2298302 C29.603,11.3508302 27.602,12.5398302 25.644,13.8008302 C25.235,14.0638302 25.126,14.4758302 25.206,14.8478302 C22.594,17.2848302 20.222,19.9638302 18.134,22.8668302 C18.052,22.9798302 18.01,23.1088302 17.996,23.2428302 C15.722,25.9978302 13.587,28.8678302 11.638,31.8628302 C11.114,32.6668302 10.573,33.4898302 10.042,34.3298302 C9.982,34.3948302 9.917,34.4488302 9.87,34.5418302 C9.818,34.6418302 9.772,34.7448302 9.721,34.8458302 C8.384,36.9998302 7.148,39.2698302 6.496,41.6698302 C6.292,41.6728302 6.09,41.7088302 5.892,41.7608302 C5.45,42.7368302 4.981,43.7018302 4.457,44.6358302 C3.325,47.4718302 1.47,49.9898302 0.437,52.8868302 C0.347,53.1378302 0.187,53.2978302 -1.0658141e-14,53.3998302 C0.182,54.4408302 0.582,55.4278302 1.092,56.3738302 C0.897,56.5888302 0.788,56.8818302 0.884,57.2478302 C2.138,62.0318302 6.43,64.8108302 9.601,68.2548302 C9.833,68.5048302 10.107,68.5748302 10.369,68.5428302 C10.542,68.8518302 10.71,69.1638302 10.862,69.4848302 C11.526,69.9168302 12.198,70.3348302 12.928,70.6538302 C13.449,70.8818302 13.787,71.3298302 13.968,71.8458302 C14.304,72.0268302 14.637,72.2118302 14.994,72.3638302 C15.433,72.5498302 15.89,72.6558302 16.332,72.6578302 C16.349,72.6718302 16.363,72.6888302 16.381,72.7018302 C17.112,73.2368302 18.085,73.5088302 18.987,73.4488302 C19.31,73.4268302 19.572,73.3138302 19.772,73.0548302 C19.977,72.7898302 20.013,72.5068302 19.951,72.1828302 C19.923,72.0298302 19.875,71.8808302 19.827,71.7328302 C19.889,71.2548302 19.801,70.7608302 19.54,70.3448302 C19.326,70.0038302 19.014,69.7198302 18.655,69.5328302 C18.551,69.1298302 18.347,68.7488302 18.024,68.4368302 C15.334,65.8348302 12.576,63.2848302 9.975,60.5928302 C9.871,60.4858302 9.772,60.3778302 9.67,60.2708302 C9.623,60.2058302 9.574,60.1418302 9.527,60.0768302 C7.586,56.0318302 7.128,51.4048302 8.217,47.0518302 C8.472,46.9648302 8.683,46.7608302 8.753,46.3968302 C10.664,36.3168302 17.262,28.1468302 23.616,20.4308302 C23.718,20.3078302 23.773,20.1788302 23.809,20.0478302 C24.025,20.0398302 24.245,19.9608302 24.438,19.7508302 C27.121,16.8518302 30.022,14.1638302 33.111,11.7018302 C37.126,9.51683023 41.285,7.59983023 45.567,5.98383023 C45.994,5.82283023 46.178,5.47383023 46.21,5.11283023 C45.649,5.32083023 45.092,5.53683023 44.534,5.75483023" id="Fill-3" fill="#1C75BB"></path>
                <path d="M53.1551,117.77143 C50.5161,117.52043 47.9951,118.42143 45.5001,119.13743 C43.5201,119.70543 41.3931,120.14843 39.6881,119.22643 C39.2661,118.99743 38.7911,118.93443 38.3421,119.00843 C34.4481,117.76443 30.9751,115.50543 28.2481,112.41243 C24.6851,108.37243 23.1841,103.16043 22.0381,98.0114302 C21.9511,97.6234302 21.7801,97.3304302 21.5641,97.1044302 C20.2801,82.7084302 26.1711,68.6324302 29.8691,54.9484302 C31.0401,50.6184302 31.9791,46.2494302 32.5751,41.8014302 C32.6181,41.4844302 32.5361,41.1834302 32.3881,40.9114302 C32.6471,39.6224302 32.6301,38.2864302 32.3071,37.0074302 C32.2041,36.5994302 31.7721,36.2544302 31.3431,36.272681 C30.8641,36.2944302 30.5541,36.5794302 30.3791,37.0074302 C29.9381,38.0834302 29.5861,39.1894302 29.2771,40.3104302 C28.8891,40.6814302 28.6541,41.2154302 28.5751,41.8014302 C27.0021,53.5534302 22.5221,64.6354302 19.7321,76.1024302 C19.7811,76.2984302 19.8091,76.4984302 19.7931,76.7044302 C19.5981,79.0614302 18.9511,81.2894302 18.2281,83.5014302 C18.1981,83.6894302 18.1691,83.8784302 18.1401,84.0664302 C18.6621,85.2264302 18.2001,86.2734302 17.3531,86.8684302 C17.0871,87.6854302 16.7971,88.4924302 16.3751,89.2444302 C15.6951,91.8084302 15.7091,94.8144302 15.2231,97.3244302 C14.5581,100.76543 13.6291,104.15943 12.4491,107.46043 C12.3571,108.00543 12.2591,108.55043 12.1501,109.09143 C11.7661,110.99243 11.2551,112.88643 10.4901,114.67143 C10.3031,115.10643 10.1401,115.53543 10.0201,115.97043 C10.1951,116.20343 10.3611,116.44143 10.5181,116.68443 C10.6711,116.86143 10.8211,117.04043 10.9851,117.20843 C11.2081,117.43643 11.4401,117.65643 11.6801,117.86843 C11.8011,117.97443 11.9231,118.07843 12.0471,118.18043 C12.0801,118.20843 12.1031,118.22643 12.1301,118.24743 C13.2091,119.03543 14.3491,119.71643 15.5391,120.32443 C17.9681,121.56643 20.5281,122.53343 22.9481,123.79743 C23.0431,123.84743 23.1231,123.91243 23.2071,123.97343 C23.3771,124.01843 23.5481,124.05843 23.7181,124.10343 C28.9851,124.18343 34.3151,123.67043 39.5741,123.42543 C39.5751,123.42543 39.5751,123.42443 39.5761,123.42443 C41.5371,123.92843 43.6131,123.73743 45.6181,123.24743 C48.1361,122.63143 50.5321,121.52143 53.1551,121.77143 C54.2321,121.87443 55.1551,120.77843 55.1551,119.77143 C55.1551,118.60443 54.2351,117.87443 53.1551,117.77143" id="Fill-5" fill="#1C75BB"></path>
                <path d="M81.2566,116.72693 C81.9136,116.49393 82.5706,116.26093 83.2256,116.01993 C83.4006,115.95593 83.5736,115.88893 83.7486,115.82293 C84.7986,115.19593 85.8546,114.57993 86.9436,114.04093 C86.9696,114.00093 86.9796,113.95893 87.0116,113.91893 C88.0626,112.60593 89.2116,111.41093 90.2586,110.14593 C90.4146,109.81493 90.5636,109.47893 90.7016,109.14193 C91.0696,108.24493 91.3476,107.32593 91.5926,106.39793 C92.0926,106.20393 92.5276,105.85093 92.8316,105.34293 C93.3266,104.51493 93.3486,103.58293 93.4236,102.64893 C93.4536,102.27493 93.4836,101.89993 93.5136,101.52593 C93.7746,100.11293 93.8956,98.6729302 93.8576,97.2379302 C93.8566,97.1819302 93.8436,97.1279302 93.8366,97.0729302 C93.9126,95.6929302 93.9036,94.3099302 93.8216,92.9319302 C93.9096,92.4679302 93.8446,92.0589302 93.6756,91.7139302 C93.6116,91.5059302 93.5276,91.3079302 93.4106,91.1319302 C93.4096,91.0729302 93.4126,91.0149302 93.4116,90.9559302 C93.4096,90.8189302 93.3936,90.6849302 93.3636,90.5549302 C93.5426,90.3939302 93.6696,90.1579302 93.6926,89.8419302 C93.8096,88.1779302 93.7846,86.5169302 93.6386,84.8649302 C93.7286,84.3879302 93.8196,83.9139302 93.9106,83.4389302 C93.8796,83.1699302 93.8576,82.9009302 93.8186,82.6329302 C93.7946,82.4729302 93.8106,82.3279302 93.8486,82.1939302 C93.7406,81.4229302 93.6306,80.6529302 93.5506,79.8789302 C93.3606,79.7189302 93.1476,79.5879302 92.9176,79.4959302 C92.8996,79.2429302 92.8806,78.9909302 92.8606,78.7379302 C92.9276,77.8349302 92.8616,76.9269302 92.6486,76.0169302 C92.6306,73.7269302 92.4796,71.4419302 92.1686,69.1619302 C91.9956,67.8919302 90.0696,68.4329302 90.2396,69.6929302 C90.7196,73.2079302 90.7876,76.7639302 90.5116,80.2989302 C90.4486,80.4379302 90.3966,80.5899302 90.3616,80.7619302 C88.8706,88.2479302 87.7996,96.0239302 85.2306,103.23693 C83.1006,109.21393 79.3936,114.82293 73.5106,117.60393 C72.2386,118.20493 72.2736,119.50493 72.9406,120.38493 C74.1826,119.45593 75.7336,118.82693 77.0766,118.27893 C78.4536,117.71693 79.8566,117.22393 81.2566,116.72693" id="Fill-7" fill="#1C75BB"></path>
                <path d="M94.5535,10.2328302 C92.8595,9.92483023 91.1655,9.60483023 89.4705,9.28383023 C89.3905,9.12683023 89.2685,8.98283023 89.0485,8.88683023 C88.8235,8.78883023 88.5965,8.69083023 88.3695,8.59183023 C88.3665,8.21383023 88.1595,7.83983023 87.6715,7.67783023 C86.6955,7.35583023 85.7175,7.03283023 84.7405,6.71083023 C84.7395,6.63283023 84.7195,6.55883023 84.7015,6.48383023 C84.7335,6.47783023 84.7705,6.48183023 84.8005,6.47383023 C85.8805,6.87883023 87.0225,7.13783023 88.1695,7.39283023 C87.4595,7.08783023 86.7485,6.78683023 86.0325,6.50483023 C85.4525,6.27783023 84.8655,6.08383023 84.2775,5.89083023 C84.1605,5.81783023 84.0245,5.76883023 83.8635,5.74583023 C78.4765,4.04983023 72.7525,3.58783023 67.3415,1.96983023 C66.9145,1.95783023 66.4855,1.95883023 66.0495,1.98883023 C66.0455,1.98983023 66.0415,1.99183023 66.0365,1.99283023 C65.3125,1.96583023 64.5845,1.97183023 63.8575,1.97783023 C63.1525,1.73683023 62.4435,1.51783023 61.7045,1.47583023 C61.6945,1.51083023 61.6825,1.54683023 61.6725,1.58283023 C61.6685,1.59583023 61.6645,1.60883023 61.6605,1.62283023 C61.5645,1.14383023 61.2375,0.698830228 60.6885,0.723830228 C60.2035,0.744830228 59.6155,1.16783023 59.6885,1.72383023 C59.7295,2.04183023 59.7475,2.36183023 59.7365,2.68283023 C59.7315,2.83583023 59.7155,2.98583023 59.7015,3.13783023 C59.7015,3.14783023 59.7025,3.14283023 59.7015,3.14783023 C59.6995,3.15983023 59.6995,3.16183023 59.6935,3.18983023 C59.6765,3.27883023 59.6605,3.36883023 59.6415,3.45883023 C59.5765,3.75683023 59.4905,4.05083023 59.3835,4.33683023 C59.3785,4.34983023 59.3445,4.43283023 59.3275,4.47483023 C59.3085,4.51883023 59.2755,4.59183023 59.2695,4.60383023 C59.1975,4.75583023 59.1185,4.90483023 59.0345,5.05083023 C58.9585,5.18383023 58.8775,5.31383023 58.7925,5.44083023 C58.7495,5.50383023 58.7045,5.56583023 58.6605,5.62883023 C58.6435,5.65483023 58.6445,5.65383023 58.6345,5.66883023 C58.6305,5.67283023 58.6345,5.66683023 58.6225,5.68183023 C58.4205,5.93083023 58.2015,6.16683023 57.9655,6.38283023 C57.8655,6.47483023 57.7615,6.56283023 57.6545,6.64783023 C57.6265,6.66683023 57.5765,6.70383023 57.5635,6.71283023 C57.5005,6.75683023 57.4375,6.79983023 57.3735,6.84083023 C57.2325,6.93183023 57.0875,7.01583023 56.9395,7.09383023 C56.8715,7.12983023 56.8035,7.16483023 56.7345,7.19683023 C56.6975,7.21483023 56.4515,7.31683023 56.6365,7.24283023 C56.1365,7.44483023 55.7825,7.90883023 55.9385,8.47183023 C56.0515,8.88483023 56.5175,9.26183023 56.9685,9.21883023 C57.1795,9.51683023 57.5385,9.70283023 57.9975,9.57983023 C63.9955,7.96483023 70.0435,8.01683023 76.1485,8.95783023 C82.1265,9.87883023 88.0715,11.0788302 94.0225,12.1618302 C95.2805,12.3908302 95.8205,10.4628302 94.5535,10.2328302" id="Fill-9" fill="#1C75BB"></path>
                <path d="M103.6873,20.1098302 C104.1423,21.0408302 104.5093,21.9758302 104.7983,22.9378302 C104.8513,22.7708302 104.9063,22.6058302 104.9583,22.4388302 C104.4753,21.2088302 103.9563,19.9938302 103.3673,18.8108302 C103.2673,19.0868302 103.1633,19.3608302 103.0633,19.6368302 C103.3083,19.6708302 103.5393,19.8068302 103.6873,20.1098302" id="Fill-11" fill="#1C75BB"></path>
                <path d="M110.744,39.8275302 C109.807,38.8905302 108.14,38.8435302 107.208,39.8275302 C106.275,40.8125302 105.292,41.7655302 104.291,42.6955302 C103.582,43.2725302 102.849,43.8145302 102.056,44.3355302 C101.563,44.6595302 101.056,44.9595302 100.551,45.2635302 C100.369,45.2675302 100.186,45.2875302 100,45.3295302 C99.913,45.3495302 99.825,45.3605302 99.738,45.3775302 C99.305,45.4155302 98.872,45.4125302 98.438,45.3755302 C97.978,45.2895302 97.53,45.1635302 97.092,45.0005302 C96.693,44.8085302 96.312,44.5865302 95.95,44.3325302 C95.648,44.0755302 95.367,43.7975302 95.108,43.4965302 C95.002,43.3445302 94.89,43.1955302 94.795,43.0345302 C94.61,42.7255302 94.351,42.4695302 94.055,42.2655302 C94.006,42.2175302 93.955,42.1725302 93.916,42.1045302 C93.67,41.6865302 93.485,41.2415302 93.301,40.7965302 C91.86,39.4155302 91.481,36.1515302 91.331,34.3995302 C91.177,32.6125302 88.691,32.5945302 88.848,34.3995302 C89.069,36.9665302 89.429,39.7635302 90.812,41.7865302 C90.624,42.0145302 90.513,42.3205302 90.551,42.7035302 C90.559,42.7835302 90.567,42.8635302 90.575,42.9435302 C90.073,43.7115302 89.97,44.7045302 90.477,45.5575302 C90.611,45.7835302 90.755,46.0005302 90.905,46.2125302 C91.102,48.1685302 91.3,50.1245302 91.497,52.0815302 C91.476,52.1025302 91.452,52.1195302 91.432,52.1405302 C90.497,53.1665302 90.047,54.6765302 90.503,56.0185302 C90.906,57.2055302 91.973,57.9805302 93.246,57.8095302 C93.636,57.7575302 93.963,57.6255302 94.244,57.4435302 C94.358,57.4425302 94.474,57.4315302 94.59,57.4015302 C95.005,57.1335302 95.418,56.8695302 95.782,56.5715302 C96.098,56.3125302 96.509,56.2235302 96.863,56.3845302 C97.313,55.5355302 97.694,54.6565302 98.038,53.7615302 C98.104,53.7205302 98.174,53.6815302 98.239,53.6405302 C99.743,52.6895302 101.206,51.6755302 102.622,50.5985302 C104.35,49.2865302 106.008,47.8955302 107.601,46.4335302 C108.73,45.5045302 109.795,44.4975302 110.744,43.3635302 C111.609,42.3285302 111.758,40.8415302 110.744,39.8275302" id="Fill-13" fill="#1C75BB"></path>
                <path d="M165.6365,21.8651302 C164.7805,20.0971302 163.0475,19.3121302 161.2385,18.9021302 C161.0315,18.7101302 160.8235,18.5241302 160.6085,18.3591302 C161.5665,18.4111302 162.4685,17.9891302 162.9895,17.1681302 C164.7285,14.4231302 162.2615,10.9601302 159.7015,9.87513023 C156.7465,8.62213023 153.2455,9.43913023 150.2355,10.1051302 C148.2455,10.5461302 146.3365,11.1851302 144.5775,12.1271302 C145.2365,11.1371302 145.8745,10.1351302 146.4235,9.09613023 C147.5765,6.91413023 147.7385,4.57013023 147.7315,2.15013023 C147.7265,0.210130228 144.8975,-0.679869772 143.9385,1.13113023 C142.5675,3.72113023 141.0385,6.22213023 139.3695,8.63413023 C138.6985,8.44013023 137.9395,8.46613023 137.1555,8.83513023 C126.6605,13.7801302 122.5735,22.6091302 119.3015,33.1291302 C119.1115,33.7421302 119.1245,34.2901302 119.2625,34.7731302 C116.1195,41.5611302 112.6755,48.2051302 108.9405,54.7081302 C108.6545,55.2061302 108.5385,55.6941302 108.5315,56.1591302 L106.2105,59.3611302 C105.2775,57.8541302 103.7455,56.5861302 103.0965,54.8941302 C102.2295,52.6301302 99.8715,52.0771302 97.9925,53.5581302 C96.0765,55.0691302 93.4145,56.6001302 92.0405,58.6421302 C91.2535,59.8131302 91.6605,61.3321302 92.5185,62.3111302 C92.5615,62.3591302 92.6035,62.4071302 92.6455,62.4561302 C92.6985,62.5171302 92.7645,62.5721302 92.8265,62.6281302 C92.8555,62.6961302 92.8855,62.7621302 92.9135,62.8301302 L92.9115,62.8311302 C92.9135,62.8351302 92.9165,62.8381302 92.9185,62.8421302 C94.0555,65.5111302 95.3945,67.9981302 96.9975,70.3381302 C97.0325,70.5181302 97.0805,70.7031302 97.1565,70.8941302 C98.6205,74.6551302 102.6425,79.6891302 107.3555,77.7901302 C111.1825,76.2491302 112.4175,70.7531302 113.3555,66.7131302 C114.8855,64.0231302 116.0935,61.1991302 117.2065,58.3361302 C117.3105,58.2251302 117.4165,58.1201302 117.5115,57.9891302 C120.4275,53.9271302 122.5095,49.4151302 124.6935,44.9541302 C125.1175,44.7181302 125.5085,44.3691302 125.8165,43.8521302 C128.1725,39.8871302 131.1565,36.5211302 134.6515,33.7371302 C134.8935,34.0571302 135.2285,34.3101302 135.6575,34.4291302 C139.2895,35.4391302 143.0345,35.9741302 146.7905,36.2731302 C147.7175,36.3471302 148.7125,36.4441302 149.7145,36.4801302 C151.8955,38.1901302 155.2925,37.6881302 156.9335,35.2291302 C157.8385,33.8721302 158.0625,32.3931302 157.8245,30.9591302 C158.2555,31.3611302 158.8365,31.4931302 159.4045,31.4151302 C160.1175,31.5111302 160.8495,31.2371302 161.3455,30.4771302 C162.0485,29.4001302 162.1965,28.1641302 161.8715,26.9361302 C161.8285,26.7741302 161.7715,26.6271302 161.7025,26.4941302 C161.6595,26.2811302 161.6055,26.0691302 161.5335,25.8641302 C161.5045,25.7781302 161.4655,25.7011302 161.4325,25.6191302 C161.5945,25.8611302 161.7765,26.0921302 162.0365,26.2711302 C163.2445,27.1051302 164.9225,26.7751302 165.6605,25.4651302 C166.2855,24.3541302 166.1755,22.9791302 165.6365,21.8651302" id="Fill-15" fill="#E4C3A2"></path>
                <path d="M112.0731,71.6723302 C111.7141,71.3163302 110.9831,71.2483302 110.6341,71.6723302 C109.8381,72.6373302 109.0881,73.6963302 108.1771,74.5583302 C107.3601,75.3303302 106.2931,75.4283302 105.2121,75.3453302 C103.5311,75.2153302 101.9271,74.3783302 100.8061,73.1333302 C100.8961,72.9413302 100.9161,72.7173302 100.8241,72.4793302 C99.6621,69.4643302 98.4761,66.3693302 98.6761,63.0863302 C98.8401,60.3863302 99.3381,56.9533302 101.2441,54.8793302 C102.1251,53.9203302 100.6891,52.4883302 99.8041,53.4513302 C99.7141,53.5503302 99.6421,53.6603302 99.5571,53.7623302 C99.3261,53.6993302 99.0701,53.7203302 98.8261,53.8723302 C96.7871,55.1343302 94.7491,56.4303302 92.8141,57.8483302 C92.0901,58.3793302 91.6161,59.0163302 91.8061,59.9503302 C92.0071,60.9363302 92.4651,61.9243302 92.8311,62.8603302 C94.1781,66.3083302 95.8791,69.6103302 98.2531,72.4613302 C97.5921,72.9033302 97.5051,74.0693302 98.4841,74.2553302 C98.7331,74.3023302 98.9821,74.3493302 99.2311,74.3963302 C100.7081,76.0613302 102.7701,77.1163302 105.0271,77.3473302 C106.3521,77.4833302 107.8481,77.3233302 108.9521,76.5283302 C110.2001,75.6303302 111.1061,74.2713302 112.0731,73.0993302 C112.4211,72.6773302 112.4891,72.0853302 112.0731,71.6723302" id="Fill-17" fill="#C3996B"></path>
                <path d="M144.8856,0.284630228 C143.7386,1.36763023 143.3956,2.79463023 142.9166,4.23663023 C142.3576,5.92563023 141.2396,7.26763023 139.8166,8.32963023 C136.9176,10.4896302 133.3056,11.3996302 130.3166,13.4106302 C124.9516,17.0196302 122.8036,23.3086302 121.1206,29.2356302 C120.5606,30.6456302 120.0806,32.0806302 119.6946,33.5556302 C119.6316,33.7946302 119.6696,33.9956302 119.7456,34.1756302 C119.5976,34.5356302 119.4596,34.8996302 119.3096,35.2596302 C119.2116,35.3356302 119.1276,35.4366302 119.0646,35.5676302 C118.1966,37.3566302 117.4306,39.1886302 116.7286,41.0466302 C116.7256,41.0506302 116.7216,41.0526302 116.7196,41.0556302 C114.6786,44.0796302 112.8416,47.2236302 111.2086,50.4756302 C111.0986,50.5586302 110.9976,50.6716302 110.9156,50.8266302 C110.1266,52.3256302 109.3386,53.8236302 108.5496,55.3216302 C108.4016,55.6036302 108.3896,55.8706302 108.4626,56.1016302 C108.1666,56.5066302 107.9206,56.9256302 107.7356,57.3646302 C107.3396,58.0456302 106.9456,58.7276302 106.5506,59.4086302 C105.9516,60.4396302 107.3396,61.3446302 108.1036,60.6486302 C108.6696,60.7436302 109.3126,60.4396302 109.3046,59.7046302 C109.2996,59.3026302 109.3546,58.9226302 109.4506,58.5576302 C110.0916,57.5096302 110.7326,56.4606302 111.3736,55.4126302 C111.5406,55.1386302 111.5486,54.8696302 111.4696,54.6336302 C113.2596,50.6696302 115.3626,46.8656302 117.7396,43.2206302 C117.9726,43.1166302 118.1746,42.9266302 118.2836,42.6296302 C118.6366,41.6456302 119.0166,40.6736302 119.4176,39.7116302 C119.5516,39.6306302 119.6706,39.5226302 119.7476,39.3506302 C120.8936,36.7806302 121.9716,34.1826302 122.9786,31.5556302 C123.1296,31.1606302 123.0106,30.8496302 122.7826,30.6366302 C122.8186,30.5766302 122.8636,30.5306302 122.8896,30.4596302 L123.5926,28.5556302 C123.6626,28.3646302 123.6456,28.1886302 123.5946,28.0246302 C125.2516,22.5496302 127.5326,17.1456302 132.8476,14.2486302 C135.7966,12.6416302 139.0366,11.6106302 141.6546,9.44463023 C142.7786,8.51363023 143.7596,7.36763023 144.3836,6.04663023 C145.0536,4.62763023 145.1386,2.83063023 146.3246,1.71163023 C147.2766,0.814630228 145.8346,-0.611369772 144.8856,0.284630228" id="Fill-19" fill="#C3996B"></path>
                <path d="M157.3006,30.4159302 C157.0526,29.0789302 156.3176,27.8439302 155.1956,27.0529302 C153.8166,26.0819302 151.9966,26.0049302 150.3736,26.1909302 C148.3856,26.4179302 146.4896,27.0179302 144.7436,27.9919302 C143.6026,28.6289302 144.6266,30.3729302 145.7716,29.7339302 C147.2696,28.8989302 148.9406,28.3389302 150.6566,28.1789302 C152.0446,28.0499302 153.6966,28.0699302 154.6346,29.2639302 C156.0986,31.1259302 155.4546,34.9539302 153.0176,35.7269302 C151.7746,36.1209302 152.3066,38.0699302 153.5586,37.6729302 C156.5406,36.7279302 157.8296,33.2739302 157.3006,30.4159302" id="Fill-21" fill="#C3996B"></path>
                <path d="M161.5379,26.8422302 C161.4139,26.7032302 161.2779,26.6242302 161.1399,26.5742302 C160.5929,25.8102302 159.8109,25.1682302 159.1079,24.6262302 C156.5559,22.6592302 153.5199,21.4862302 150.3099,21.1552302 C149.7639,21.0982302 149.2929,21.6592302 149.2929,22.1632302 C149.2929,22.7562302 149.7619,23.1162302 150.3099,23.1732302 C152.7859,23.4282302 155.1699,24.3412302 157.2159,25.7362302 C157.7119,26.0742302 158.1799,26.4442302 158.6259,26.8432302 C159.0219,27.1992302 159.4729,27.5912302 159.6919,28.0882302 C160.1119,29.0352302 158.9899,29.7092302 158.3019,30.1212302 C157.8709,30.3782302 157.6819,30.9222302 157.8849,31.3812302 C158.0699,31.7982302 158.6089,32.1562302 159.0859,31.9652302 C159.1669,31.9332302 159.2469,31.8952302 159.3279,31.8612302 C159.3279,31.8622302 159.3289,31.8632302 159.3289,31.8632302 C159.3339,31.8612302 159.3389,31.8582302 159.3429,31.8552302 C160.3139,31.4512302 161.2949,30.9432302 161.8249,29.9972302 C162.4019,28.9692302 162.3299,27.7292302 161.5379,26.8422302" id="Fill-23" fill="#C3996B"></path>
                <path d="M163.3953,19.8285302 C161.9713,18.7575302 160.2223,18.0605302 158.5353,17.5165302 C156.6323,16.9035302 154.6453,16.5635302 152.6493,16.4555302 C151.3393,16.3855302 151.3433,18.4045302 152.6493,18.4745302 C155.6333,18.6345302 158.6973,19.4035302 161.3063,20.8765302 C162.2773,21.4245302 163.4213,22.2425302 163.6303,23.4155302 C163.7643,24.1615302 163.5193,25.1885302 162.7063,25.4405302 C161.4593,25.8255302 161.9923,27.7745302 163.2473,27.3865302 C164.7933,26.9085302 165.6653,25.4405302 165.6973,23.8785302 C165.7323,22.1995302 164.6913,20.8035302 163.3953,19.8285302" id="Fill-25" fill="#C3996B"></path>
                <path d="M162.8104,12.3847302 C161.5434,10.1707302 159.1504,9.42973023 156.6974,9.62273023 C153.6464,9.86173023 150.6344,10.7597302 147.7224,11.6427302 C144.7744,12.5357302 141.7574,13.3787302 139.0984,14.9657302 C137.9774,15.6347302 138.9984,17.3807302 140.1254,16.7087302 C140.2514,16.6337302 140.3854,16.5757302 140.5144,16.5037302 C140.4704,16.7147302 140.5054,16.9477302 140.6664,17.1867302 C141.5274,18.4637302 140.7784,20.2797302 140.3284,21.5817302 C139.7434,23.2747302 138.9484,24.8807302 137.9944,26.3987302 C137.2994,27.5037302 139.0594,28.5177302 139.7514,27.4167302 C140.8614,25.6517302 141.7554,23.7517302 142.4074,21.7747302 C142.9914,19.9997302 143.5594,17.8527302 142.4244,16.1687302 C142.2904,15.9707302 142.1234,15.8447302 141.9414,15.7757302 C143.5134,15.0647302 145.1644,14.5417302 146.8254,14.0297302 C149.2184,13.2917302 151.6204,12.5557302 154.0794,12.0557302 C156.0684,11.6507302 158.8534,10.9937302 160.4704,12.6247302 C161.6704,13.8347302 161.9304,15.7707302 161.0434,17.2177302 C160.3614,18.3307302 162.1214,19.3457302 162.8014,18.2367302 C163.8974,16.4497302 163.8444,14.1917302 162.8104,12.3847302" id="Fill-27" fill="#C3996B"></path>
                <path d="M17.9324,73.6752302 C17.7314,73.6752302 17.5504,73.7072302 17.3814,73.7522302 C16.6254,72.9102302 15.6544,72.1962302 14.7234,71.4852302 C12.2864,69.6202302 9.8484,67.7572302 7.4104,65.8932302 C7.1464,65.6912302 6.8784,65.5852302 6.6174,65.5442302 C6.6184,65.5322302 6.6164,65.5212302 6.6164,65.5092302 C6.6174,65.5032302 6.6184,65.4982302 6.6194,65.4912302 C6.6304,65.4732302 6.6374,65.4602302 6.6514,65.4362302 C7.1744,64.5292302 6.8924,63.2062302 5.9334,62.6992302 C4.9794,62.1952302 3.7564,62.4492302 3.1974,63.4172302 C2.1034,65.3112302 2.8324,67.5972302 3.3544,69.6222302 C2.3604,69.8632302 1.4784,70.7672302 1.7474,72.0562302 C3.2454,79.2172302 2.7874,87.6912302 5.5224,94.4782302 C5.5794,94.6212302 5.6504,94.7552302 5.7264,94.8832302 C6.3844,97.4902302 7.8284,99.2292302 8.3924,101.85923 C8.3064,102.46923 9.1454,102.62223 9.0584,103.23223 C8.9084,104.30023 10.1474,105.25123 11.2834,105.56323 C12.2204,105.82023 13.5914,105.24223 13.7434,104.16623 C13.7894,103.83623 13.8364,103.50623 13.8824,103.17623 C14.2574,102.70323 14.4044,102.07323 14.2664,101.40823 C14.2414,101.28523 14.2104,101.16323 14.1844,101.04023 C14.8324,96.4192302 15.4804,91.7972302 16.2284,87.1912302 C16.2664,86.9512302 16.3104,86.7142302 16.3494,86.4752302 C16.3974,86.3082302 16.4484,86.1422302 16.4954,85.9752302 C16.8984,84.5642302 17.2914,83.1502302 17.6744,81.7342302 C18.0464,80.3632302 18.5464,78.9502302 18.6934,77.5302302 C20.4694,76.8252302 20.2224,73.6752302 17.9324,73.6752302" id="Fill-29" fill="#E4C3A2"></path>
                <path d="M18.1932,78.6552302 C18.5412,78.0892302 18.6852,77.4982302 18.6782,76.9042302 C18.6782,76.8392302 18.6742,76.7762302 18.6712,76.7112302 C18.6642,76.6002302 18.6512,76.4902302 18.6332,76.3792302 C18.6212,76.2882302 18.6142,76.1972302 18.5932,76.1062302 C18.9632,75.5442302 18.9852,74.6312302 18.4222,74.1962302 C17.6352,73.5862302 16.8582,72.9642302 16.0742,72.3502302 C15.9782,72.2662302 15.8812,72.1812302 15.7842,72.1032302 C12.6892,69.6082302 9.5692,67.1422302 6.4612,64.6622302 C6.2942,64.5282302 6.1172,64.4412302 5.9382,64.3842302 C5.7212,64.1992302 5.5052,64.0122302 5.2832,63.8342302 C3.7912,62.6372302 1.6552,64.7472302 3.1622,65.9552302 C8.4012,70.1552302 11.9592,76.0382302 13.0122,82.6952302 C13.5292,85.9592302 13.3792,89.3412302 12.5942,92.5482302 C11.7272,96.0962302 10.3182,99.5302302 10.5582,103.25123 C10.6622,104.85623 13.1072,105.38623 13.5052,103.65023 C14.8972,97.5632302 16.1562,91.4462302 17.2702,85.3022302 C17.6362,83.2812302 18.1442,81.1292302 17.9102,79.0622302 C17.9562,79.0062302 17.9902,78.9482302 18.0312,78.8912302 C18.0872,78.8132302 18.1442,78.7372302 18.1932,78.6552302" id="Fill-31" fill="#C3996B"></path>
                <path d="M39.3416,189.64103 C38.9866,188.49303 37.7636,188.05903 36.5476,188.23103 C33.0146,188.72903 29.4806,189.22803 25.9466,189.72703 C22.8606,190.16303 19.3576,191.07303 16.2636,190.30603 C16.0086,190.24303 15.7706,190.22403 15.5436,190.23003 C15.9026,193.41903 15.4336,196.61203 15.4086,199.82003 C15.4066,200.09103 15.3056,200.30803 15.1516,200.46503 C15.7906,204.66203 14.9936,208.82003 14.9616,213.02503 C14.9606,213.12803 14.9326,213.21703 14.9046,213.30503 C15.6116,218.62303 16.0196,224.01703 15.6326,229.36403 C15.6076,229.72003 15.4246,229.96803 15.1856,230.11903 L15.1856,241.67403 C15.1856,242.04803 15.0026,242.29503 14.7586,242.44403 C14.7596,245.33703 14.4896,248.20703 13.5376,251.02403 C13.4886,251.17003 13.4606,251.31103 13.4456,251.44803 C11.3846,254.38603 9.2506,257.28303 7.0226,260.12203 C6.1946,261.17703 5.3796,262.26703 4.6776,263.40103 C4.6776,263.49303 4.6846,263.58103 4.6546,263.68303 C3.8726,266.38403 3.2236,269.13503 3.3286,271.95403 C3.3716,272.06203 3.3996,272.17803 3.3936,272.29903 C3.3836,272.50003 3.3856,272.70103 3.3866,272.90103 C3.4466,273.60803 3.5276,274.31403 3.6616,275.01003 C3.8176,275.14203 3.9676,275.28003 4.1376,275.39703 C4.5946,275.71103 5.0786,275.94703 5.5776,276.13803 C5.8596,276.51903 6.2726,276.81703 6.8156,276.93003 C9.5706,277.50303 12.3776,277.20503 14.8456,276.21203 C14.8726,276.21203 14.8956,276.21703 14.9226,276.21603 C18.5866,276.06903 20.9166,274.02203 22.6976,271.52103 C23.6326,270.82203 24.5296,270.08603 25.3696,269.29403 C25.7776,268.91103 26.0346,268.40003 26.0346,267.86703 C26.0346,267.70603 26.0006,267.53703 25.9506,267.36903 C29.8046,260.30503 34.2656,252.78703 33.5866,244.86503 C33.7426,244.51603 33.7906,244.11003 33.6706,243.65403 C32.5006,239.19803 33.2526,234.53303 33.6896,230.03303 C34.1586,225.18403 34.6286,220.33703 35.0986,215.48903 C35.1526,214.93303 34.9776,214.50503 34.6796,214.18903 C35.1356,206.65103 36.3916,199.18903 38.4516,191.86003 C39.2056,191.38503 39.5756,190.40103 39.3416,189.64103" id="Fill-33" fill="#E4C3A2"></path>
                <path d="M85.7234,253.09273 C84.3814,249.36073 82.1364,245.92173 79.1384,243.30673 C77.4854,241.86473 75.6214,240.61573 73.3784,240.42073 C73.2954,240.41273 73.2114,240.41773 73.1284,240.41473 C73.3354,236.22573 73.7384,232.04773 74.3714,227.90073 C74.9014,227.50773 75.2324,226.86673 75.2854,226.15773 C75.8664,218.49373 76.4464,210.82973 77.0264,203.16573 C77.0514,202.82773 76.9644,202.50873 76.8124,202.21873 C77.7794,194.88873 78.7034,187.55373 79.5404,180.20773 C79.5664,179.98373 79.5294,179.76973 79.4634,179.56373 C79.6814,178.55373 79.8894,177.54173 80.1264,176.53573 C80.5764,174.62973 78.6524,173.30073 76.9734,174.11273 C71.8914,176.56873 66.5894,178.50273 61.1324,179.94373 C59.4964,180.37573 59.2934,182.09573 59.9944,183.20273 C59.9914,183.22773 59.9844,183.25273 59.9814,183.27773 C59.9414,183.62573 59.9464,183.96473 59.9774,184.29873 C59.7734,184.61173 59.6494,185.00173 59.6634,185.48173 C59.7704,189.12873 59.8764,192.77473 59.9834,196.42073 C60.0234,197.79773 60.0514,199.17773 60.1344,200.55373 L60.1204,200.73373 C60.1064,200.91673 60.1314,201.09273 60.1734,201.26373 C60.1794,201.33073 60.1784,201.39873 60.1844,201.46673 C60.2294,201.97473 60.2754,202.55073 60.3534,203.13473 C59.9214,203.64673 59.7664,204.34573 59.8964,205.09373 C59.9664,205.50373 60.0334,205.91273 60.0924,206.32273 C60.1024,206.38673 60.1114,206.44973 60.1194,206.51373 C60.1234,206.54173 60.1264,206.56573 60.1314,206.60673 C60.1544,206.79673 60.1784,206.98673 60.2004,207.17673 C60.2004,207.18173 60.2004,207.18573 60.2014,207.19073 C60.1714,207.46873 60.1374,207.74873 60.1114,208.02773 C59.9094,210.23773 59.7184,212.44973 59.5224,214.66073 C59.5104,214.79573 59.5204,214.92873 59.5414,215.06073 C59.1694,215.44373 58.9324,215.93873 58.9994,216.47473 C59.6194,221.35573 58.5984,226.40673 58.3284,231.29073 C58.0854,235.69173 58.0324,240.09873 58.1304,244.50473 C57.5494,244.82673 57.1244,245.42173 57.1204,246.28973 C57.1104,249.10873 57.0994,251.92873 57.0874,254.74773 C57.0824,256.00873 56.9684,257.35873 57.3124,258.58773 C57.6704,259.87073 58.5444,260.82073 59.4914,261.71073 C63.0534,265.06173 67.2744,267.86073 72.2894,268.13473 C72.4494,268.14373 72.6044,268.12673 72.7544,268.09373 C72.9374,268.06973 73.1194,268.04573 73.3024,268.02073 C73.5314,267.95673 73.7344,267.84773 73.9244,267.71873 C77.5184,268.38673 81.4014,267.35673 83.9204,264.60473 C86.8824,261.36973 87.1634,257.10073 85.7234,253.09273" id="Fill-35" fill="#E4C3A2"></path>
                <path d="M38.4461,188.00483 C37.2821,186.27283 34.8451,186.66783 32.9601,186.78683 C31.0361,186.90783 29.1181,187.08483 27.2061,187.31083 C23.2451,187.77983 19.1411,186.67283 15.2701,187.56683 C15.2291,187.57683 15.1981,187.59683 15.1591,187.60883 C15.1651,187.65083 15.1841,187.69083 15.1851,187.73283 C15.1921,189.10483 15.4581,190.45583 15.5731,191.81983 C15.6091,192.17583 15.6311,192.53083 15.6331,192.88083 C15.6341,192.98783 15.6041,193.08483 15.5721,193.17883 C15.9011,193.30283 16.2621,193.34483 16.6551,193.25483 C17.2641,193.11283 17.8781,192.98283 18.4901,192.85183 C18.6571,192.89283 18.8361,192.92183 19.0291,192.92983 C22.5101,193.07883 24.6981,196.06483 25.7391,198.74283 C27.1351,202.33183 27.8431,206.21183 28.5241,209.95283 C29.9501,217.79483 30.4071,225.76983 30.0221,233.70483 C30.0131,233.90183 30.0381,234.07883 30.0771,234.24583 C30.0811,234.35383 30.0961,234.46583 30.1281,234.58283 C31.0921,238.23283 31.3821,242.01683 30.9851,245.74983 C30.7131,245.99083 30.5241,246.32483 30.5071,246.76183 C30.3481,250.62483 29.1691,254.34883 27.5661,257.91683 C26.0881,261.20583 24.3421,264.50083 22.2171,267.49483 C20.3031,270.19083 17.7661,272.80883 14.3651,273.98483 C11.3171,275.03983 7.5591,275.10183 4.9541,273.11283 C4.4561,272.73283 3.8901,272.66583 3.3871,272.78683 C3.3871,273.14983 3.3971,273.51283 3.4251,273.87583 C3.4751,274.49983 3.5201,274.82283 3.6301,275.43483 C3.6691,275.64983 3.7281,275.86083 3.7731,276.07583 C6.6971,277.76883 10.2511,278.11783 13.6841,277.36083 C17.9421,276.42283 21.9391,275.13383 24.5101,272.04083 C27.2571,268.73883 29.2981,264.19183 31.0721,260.40883 C32.6071,257.13683 33.0741,253.11683 33.6041,249.61883 C33.7451,249.46383 33.8461,249.28283 33.8851,249.07683 C34.7771,244.46083 34.7291,239.77783 33.7241,235.19383 C34.1811,234.86783 34.5051,234.37283 34.5371,233.70483 C34.7651,228.97783 34.6691,224.24583 34.2761,219.53283 C35.2211,219.09083 35.7321,218.16283 35.4651,217.18383 C35.3581,216.79283 35.2611,216.39983 35.1811,216.00283 C35.1471,215.83283 35.1181,215.66283 35.0871,215.49183 C35.0811,215.45883 35.0781,215.44583 35.0731,215.42283 C35.0711,215.39783 35.0691,215.38383 35.0651,215.34683 C34.9801,214.60183 34.9251,213.85683 34.9291,213.10783 C34.9341,212.37883 34.9541,211.61883 35.0891,210.89783 C35.1001,210.84083 35.1131,210.77583 35.1221,210.72583 C35.1531,210.55483 35.1861,210.38483 35.2231,210.21583 C35.3071,209.81983 35.4091,209.42783 35.5201,209.03783 C35.6791,208.48183 35.5501,207.87283 35.2131,207.38783 C35.4401,206.04083 35.5881,204.64783 35.5881,203.24483 C35.8331,201.34483 36.1721,199.45683 36.6341,197.58383 C37.0581,195.87183 37.5661,194.17583 38.1581,192.50483 C38.6771,191.03683 39.4291,189.46983 38.4461,188.00483" id="Fill-37" fill="#C3996B"></path>
                <path d="M83.0203,261.90813 C80.2303,264.36013 76.5473,265.61913 72.8403,265.38313 C69.4633,265.16713 65.4093,263.51213 63.4063,260.65513 C63.2103,260.37613 62.9693,260.19513 62.7103,260.08213 C56.5603,250.77213 60.9783,237.84713 61.3493,227.58813 C61.3693,227.04413 61.1583,226.64713 60.8403,226.38813 C61.4243,219.20513 61.6923,212.00213 61.6303,204.79513 C61.9393,204.53613 62.1693,204.16513 62.2113,203.65813 C63.1053,192.93413 69.2743,182.98413 78.3363,177.25013 C78.9673,177.21913 79.3933,176.88413 79.6153,176.43713 C81.0563,175.52513 80.2073,172.90013 78.3803,173.51613 C74.8363,174.71113 71.2923,175.90513 67.7493,177.10013 C65.8923,177.72513 64.0353,178.34513 62.1803,178.97713 C60.8543,179.42913 59.6833,179.92513 59.3273,181.41313 C58.9373,183.03613 59.1983,184.98013 59.1793,186.64213 C59.1593,188.50313 59.1383,190.36413 59.1183,192.22513 C59.0813,195.67513 59.0423,199.12313 59.0043,202.57213 C58.6503,202.82813 58.4043,203.23813 58.4113,203.81313 C58.5123,211.86913 58.2093,219.92313 57.5023,227.94813 C57.4503,228.54313 57.6853,228.96013 58.0443,229.21113 C57.6283,235.66613 56.2223,242.56413 56.4473,249.11513 C56.1873,249.31513 55.9933,249.58813 55.9333,249.92113 C55.6863,251.30813 55.6503,252.69413 55.7723,254.05613 C55.7063,254.23013 55.6693,254.41513 55.6833,254.60813 C55.8973,257.57513 57.1063,260.35013 59.1993,262.47613 C59.6113,262.89413 60.2213,263.00313 60.7663,262.85613 C61.0833,263.28513 61.4133,263.71113 61.7723,264.12913 C62.0873,264.49513 62.4523,264.64513 62.8083,264.65113 C65.4823,266.94313 69.0533,268.27513 72.4853,268.57513 C77.1603,268.98413 81.8023,267.25513 85.2963,264.18413 C86.8553,262.81413 84.5713,260.54513 83.0203,261.90813" id="Fill-39" fill="#C3996B"></path>
                <path d="M89.866,153.57853 C89.439,149.37553 88.139,145.01353 89.113,140.79353 C89.121,140.76353 89.134,140.74053 89.141,140.71053 C89.039,139.73353 88.929,138.75653 88.83,137.77553 C88.445,133.96453 88.365,130.12853 88.238,126.30153 C88.139,123.31953 87.656,120.51053 87.229,117.56753 C86.995,115.94853 86.746,114.21253 86.777,112.51153 C86.352,112.68553 85.929,112.85153 85.53,113.00053 C85.18,113.12953 84.828,113.24853 84.478,113.37653 C82.691,114.73653 80.821,115.96653 78.775,116.91653 C73.66,119.29153 67.944,121.26853 62.283,121.32453 C62.05,121.65853 61.727,121.90853 61.33,121.96953 C54.084,123.08553 46.806,122.57353 39.516,122.71853 C33.406,122.84053 27.265,124.28953 21.5,121.92453 C21.262,121.94153 21.026,121.96353 20.789,121.97953 C20.591,121.99353 20.408,122.02853 20.227,122.06753 C19.319,121.14753 17.86,120.91853 16.661,121.37553 C16.084,126.21253 15.28,131.01253 14.435,135.80553 C14.411,136.85553 14.397,137.90653 14.372,138.95553 C14.224,139.24053 14.1,139.55553 14.033,139.93553 C13.427,143.35253 12.686,146.85353 11.94,150.40153 C11.393,153.96653 10.923,157.54353 10.615,161.14653 C10.554,161.86053 10.198,162.35553 9.737,162.66253 C9.722,163.97253 9.469,165.35153 9.363,166.08153 C9.126,167.72453 8.8,169.34953 8.477,170.97553 C8.183,174.34753 8.088,177.70153 8.309,181.00653 C8.025,181.41953 7.787,181.84253 7.595,182.27053 C7.833,183.27953 8.229,184.22753 8.846,185.06653 C11.529,185.35853 14.17,185.93753 16.819,186.47553 C20.017,187.12353 23.24,187.35953 26.481,187.64453 C29.597,187.91953 32.786,188.12653 35.89,187.60353 C37.881,187.26753 39.79,186.60553 41.739,186.13753 C42.042,185.95053 42.346,185.76653 42.634,185.55753 C49.387,180.63853 47.617,171.10853 48.503,163.61153 C49.517,155.03453 52.076,146.32553 54.811,138.15653 C54.308,141.57553 52.179,145.31353 52.545,149.06953 C53.015,153.90553 53.571,158.43553 53.618,163.24453 C53.51,164.05753 54.6,165.13953 54.491,165.95253 C54.394,166.67253 54.364,167.31353 54.576,167.95953 C54.324,169.77853 54.252,171.62053 54.402,173.45553 C53.174,175.40253 54.012,178.74253 56.95,178.74253 C57.521,178.74253 58.007,178.60553 58.421,178.38653 C58.521,178.39353 58.614,178.41753 58.719,178.41753 C60.209,178.41753 61.218,179.35253 61.97,177.92053 C62.085,177.89153 62.81,177.57353 62.925,177.54453 C63.507,177.80053 64.334,177.58653 65.072,177.41853 C69.794,176.34453 75.168,175.97553 79.628,174.03253 C82.98,172.57053 86.404,168.63053 88.83,165.65653 C89.612,164.69753 90.114,163.65553 90.43,162.56153 C90.179,159.57953 90.17,156.57153 89.866,153.57853" id="Fill-41" fill="#594A41"></path>
                <path d="M42.0369,181.91793 C41.3519,182.12793 40.6629,182.32293 39.9739,182.52293 C36.5669,181.95193 33.1349,182.14193 29.8129,183.20393 C29.6259,183.26293 29.4629,183.34393 29.3129,183.43593 C28.7119,183.43093 28.1099,183.41493 27.5099,183.37693 C23.3419,183.11493 20.1559,181.36693 17.3799,178.18093 C16.1399,176.75693 14.9149,175.25593 14.0769,173.53293 C13.1079,171.53893 13.1309,169.36493 13.3359,167.19293 C13.7969,162.31493 14.5389,157.45093 15.1489,152.59193 C15.2069,152.12793 15.0509,151.69093 14.7799,151.32793 C16.2249,142.46193 22.0169,135.55493 29.1479,130.54393 C34.3639,126.87793 40.1969,124.22193 46.3079,122.70493 C44.0449,122.69093 41.7809,122.67393 39.5159,122.71893 C32.9099,122.85093 26.2669,124.53593 20.1029,121.27093 C19.6029,121.23393 19.1039,121.19793 18.6049,121.16093 C18.3489,121.14293 18.0959,121.19493 17.8569,121.29193 C17.7739,121.27693 17.6909,121.26593 17.6089,121.24993 C17.2919,121.18793 16.9759,121.19293 16.6779,121.24993 L16.6779,121.25193 C15.9009,127.80693 14.7049,134.29493 13.5519,140.78993 C13.6029,140.85693 13.6439,140.93293 13.7029,140.99493 C13.5999,141.19693 13.5079,141.40393 13.4079,141.60793 C12.2619,148.08793 11.1769,154.57693 10.6149,161.14693 C10.5549,161.86093 10.1989,162.35893 9.7369,162.66693 C9.7219,163.97493 9.4689,165.35293 9.3629,166.08193 C9.2469,166.88493 9.1059,167.68293 8.9589,168.47993 C8.9559,168.54493 8.9489,168.61093 8.9459,168.67693 C8.9229,169.28693 8.9379,169.87793 8.9859,170.45393 C8.7249,170.82993 8.5589,171.29193 8.5069,171.78893 L7.6109,180.20293 C7.5619,180.66693 7.5149,181.13193 7.4639,181.59593 C7.6719,182.85693 8.0949,184.04293 8.8469,185.06693 C11.5289,185.35793 14.1699,185.93793 16.8189,186.47593 C20.0169,187.12393 23.2399,187.35993 26.4809,187.64493 C29.5979,187.91893 32.7859,188.12693 35.8909,187.60393 C38.2329,187.20893 40.4679,186.36593 42.7839,185.91693 C43.3819,185.46293 43.9839,185.01593 44.6169,184.62093 C44.9249,183.15793 43.8379,181.36593 42.0369,181.91793" id="Fill-43" fill="#3B2314"></path>
                <path d="M89.6795,171.06973 C89.8245,169.81373 89.9415,168.55473 89.9455,167.28373 C89.9475,166.58173 90.2945,165.99673 90.8085,165.65173 C90.6205,164.49173 90.4915,163.32573 90.4015,162.15573 C89.2875,162.07173 88.1495,162.75073 88.1865,164.23773 C88.2745,167.74773 84.7815,169.81073 82.0305,170.93573 C78.0895,172.54673 73.8175,173.62273 69.7255,174.74573 C66.4485,175.64473 62.3815,176.40973 59.4455,174.09273 C58.4405,173.29873 57.8515,172.24973 57.5145,171.08373 L57.8015,168.63773 C57.8735,168.02473 57.5765,167.42373 57.1255,166.99273 C57.1585,166.06273 57.2365,165.14773 57.3025,164.30173 C57.5255,161.45373 53.2415,161.37473 53.0195,164.21173 C52.8385,166.51973 52.7605,168.98073 53.1995,171.26973 L52.8085,174.59273 C52.6035,176.33973 52.2015,178.16873 52.3965,179.92973 C52.4935,180.81673 52.8215,181.62373 53.3145,182.26773 C53.6085,181.83673 54.0885,181.55173 54.7705,181.60473 C57.6575,181.82673 60.5205,181.46273 63.3535,180.91173 C63.3845,180.82973 63.4295,180.75673 63.4495,180.66973 C63.6505,180.47773 63.8155,180.24773 63.9315,179.99373 C65.9015,180.06073 67.9125,179.77573 69.8175,179.30073 C72.4115,178.65473 74.9665,177.81273 77.5295,177.04573 C79.9535,176.31873 82.3835,175.60873 84.7005,174.55873 C86.5005,173.74273 88.2765,172.56173 89.6795,171.06973" id="Fill-45" fill="#3B2314"></path>
            </g>
            <g id="outline" transform="translate(0.000000, 0.039000)">
                <g id="Group-49">
                    <mask id="mask-2" fill="white">
                        <use xlink:href="#path-1"></use>
                    </mask>
                    <g id="Clip-48"></g>
                    <path d="M62.2674,22.1441 C61.8424,22.2291 61.4464,22.7511 61.4574,23.2691 C61.5024,26.3621 59.4454,29.8261 56.7524,30.5641 C56.6534,30.5911 56.5544,30.6151 56.4554,30.6341 C55.1624,30.8941 53.9544,30.5121 53.0304,29.6861 C53.0014,29.3021 52.7904,28.9981 52.4564,28.9531 L52.3544,28.9391 C51.8754,28.2831 51.5284,27.4801 51.3704,26.5701 C51.2974,26.1351 51.0294,25.9811 50.7384,26.0141 C50.5984,25.9171 50.4184,25.8521 50.2494,25.8861 L50.2294,25.8911 C50.0544,25.9351 49.8864,26.0371 49.7484,26.1951 C49.6214,26.1091 49.4844,26.0551 49.3284,26.0861 C49.3134,26.0891 49.2974,26.0931 49.2834,26.0981 C46.7574,26.8291 44.2464,27.7551 41.7714,28.8821 C41.6984,28.9151 41.6324,28.9791 41.5674,29.0441 C38.4224,30.2541 35.2784,31.6101 32.2554,33.4261 C26.5614,36.8401 21.5614,41.8871 17.2664,47.6831 C12.9714,53.4871 9.3734,59.9381 6.0004,66.4571 C5.1614,68.0771 4.3434,69.6931 3.5264,71.3261 C2.7074,72.9591 1.6064,74.7271 1.4284,76.5691 C1.4134,76.7361 1.4204,76.8911 1.4204,77.0461 C1.0564,77.3521 0.8004,77.9221 1.0614,78.4321 C1.9534,80.2151 2.9384,81.9021 3.9974,83.5211 C2.7734,92.7211 2.8724,101.8451 4.3474,110.4511 C5.5854,117.7051 7.4964,126.2581 13.0334,129.8241 C13.1794,129.9181 13.3244,129.9421 13.4584,129.9151 C14.1134,129.7841 14.5504,128.4571 13.8584,128.0081 C11.3374,126.3781 9.7204,123.4701 8.5914,120.3431 C7.3264,116.8461 6.4664,113.0341 5.8334,109.2031 C4.5824,101.6141 4.4374,93.5711 5.3474,85.4811 C8.7494,90.2011 12.8304,94.1531 17.4734,97.1551 C17.6174,97.2521 17.7604,97.2771 17.8934,97.2501 C17.9624,97.2361 18.0294,97.2081 18.0914,97.1701 C18.9344,97.6321 19.8134,98.0001 20.7514,98.1921 C18.8964,106.0311 17.2824,113.8911 15.7904,121.7781 C14.7984,127.0071 13.6544,132.2751 11.4484,137.2031 C11.0554,137.4551 10.7634,137.9801 10.9374,138.4721 C10.8484,138.9911 11.1464,139.3461 11.5324,139.4081 C13.0914,141.6961 15.0594,143.3411 17.2684,144.5321 C17.1374,144.7141 17.0494,144.9481 17.0564,145.2311 C17.1574,149.8611 16.2394,154.6081 15.5024,159.2931 L13.3304,173.0901 C11.8734,182.3711 10.4154,191.6511 8.9514,200.9421 C8.9074,201.2101 8.9574,201.4241 9.0524,201.5871 C8.5764,203.1171 8.4564,204.6531 9.0584,206.1491 C9.9854,208.4531 12.0054,209.4561 14.0844,209.8871 C14.7684,210.0351 15.4664,210.1451 16.1644,210.2481 C15.9964,222.4071 15.8214,234.5681 15.6534,246.7271 L15.7694,246.6781 C15.9984,252.5611 16.2274,258.4441 16.4564,264.3271 C16.4634,264.4981 16.4994,264.6291 16.5574,264.7391 C16.5714,265.6691 16.5614,266.5961 16.4954,267.5431 C16.2184,271.3841 14.5174,274.4901 12.2644,277.4741 C8.7354,282.1661 4.0404,287.4361 5.1574,293.5131 C4.2784,296.9911 5.1594,300.4441 7.0814,302.6781 C9.2464,305.1791 12.5974,305.6571 15.8274,305.0101 C16.4124,304.8931 16.9924,304.7391 17.5604,304.5531 C24.6714,302.2291 30.9544,295.4561 34.4244,287.4311 C36.3744,282.9091 37.4234,278.0141 37.3164,273.3001 C37.2994,272.6901 36.8914,272.4641 36.4894,272.5441 C36.3974,272.5631 36.3054,272.5971 36.2194,272.6471 C36.2484,272.3811 36.2864,272.1151 36.3004,271.8521 C36.4884,269.1271 36.1434,266.5171 35.9524,263.8851 C35.8454,262.3941 35.7834,260.8941 35.7494,259.3881 L35.6474,259.4521 C36.0144,253.4921 36.4404,247.5211 36.9314,241.5461 L36.9754,241.5631 C37.8744,231.2361 39.2254,220.8881 41.0344,210.5521 C41.0554,210.4011 41.0564,210.2711 41.0344,210.1461 C42.6644,209.7501 44.2944,209.1641 45.7594,208.0151 C50.2464,204.4971 49.6334,197.4201 50.1454,192.3831 C50.7834,186.0841 51.9294,179.7611 53.5044,173.5171 C55.1854,181.0791 53.7214,189.6781 53.8734,197.7111 C53.9144,199.4921 53.7874,201.8691 54.5624,203.3201 C55.3594,204.7941 57.0704,204.3301 58.4524,204.1831 C58.9904,204.1271 59.5214,204.0631 60.0604,204.0081 C60.0234,204.1191 59.9944,204.2541 59.9944,204.3931 C60.1674,220.2511 59.7744,236.2241 58.7914,252.2721 C58.5294,256.5071 58.2234,260.7521 57.8884,264.9931 C57.8444,265.0881 57.8074,265.1831 57.7864,265.3081 C57.4844,267.2611 57.2104,269.2601 57.0544,271.2361 C53.7664,279.1551 56.7264,287.3521 61.7314,291.3181 C64.4764,293.4981 67.7184,294.7241 71.0554,295.5421 C73.5344,296.1381 76.3064,296.8311 79.0294,296.2861 C79.9884,296.0931 80.9414,295.7471 81.8724,295.1891 C85.1864,293.1941 87.7974,289.1701 88.3294,284.9321 C88.3734,284.5861 88.2724,284.3301 88.1204,284.1531 C88.9844,280.6611 88.4104,276.8611 87.0764,274.0171 C84.5334,268.6151 80.0674,264.5321 75.4604,261.7481 C75.6484,258.8931 76.3794,252.4111 76.4614,251.7031 C76.9064,247.5001 77.3574,243.3051 77.8164,239.1071 C78.7184,230.7931 79.6284,222.4781 80.5614,214.1591 C81.1014,209.3231 81.6484,204.4861 82.1954,199.6481 C82.2094,199.5511 82.1884,199.4861 82.1814,199.4011 C85.0714,198.3721 88.6304,197.1581 90.8254,194.3411 C93.4564,190.9611 92.3244,186.2701 92.0174,182.6851 C91.6264,177.9751 91.2934,173.2451 91.0184,168.5041 C90.3984,157.7811 90.0904,146.9621 90.0814,136.0821 C90.0824,135.7021 89.9234,135.4831 89.7124,135.3791 C91.1334,133.9791 92.3804,132.2861 93.3294,130.2111 C95.3744,125.7571 95.7844,120.7231 95.7484,116.1141 C95.6954,110.0751 95.0154,104.1441 94.5604,98.2201 C94.2754,94.4301 93.9894,90.6391 93.7044,86.8461 C93.3784,86.2631 93.0544,85.6791 92.7304,85.0961 C92.3694,84.4361 92.9074,83.6491 93.4544,83.5211 C93.3894,82.6711 93.3254,81.8211 93.2614,80.9711 C96.4284,79.8071 99.3624,77.7411 102.1954,75.4271 C102.1444,75.2941 102.0934,75.1621 102.0444,75.0271 C101.8474,74.4911 102.2464,74.0321 102.6614,73.9481 C102.9304,73.8941 103.2074,73.9991 103.3334,74.3451 C103.3464,74.3801 103.3594,74.4141 103.3724,74.4491 C104.3954,73.5851 105.4074,72.7001 106.4144,71.8261 C107.6974,70.7221 108.9804,69.6101 110.2624,68.4971 C111.2604,67.6311 112.6294,66.7691 113.4024,65.5861 C114.1684,64.4211 113.8214,63.2981 113.4964,62.2221 L112.8094,59.9661 C112.8454,59.8121 112.8534,59.6551 112.8174,59.4891 C111.9454,55.1521 110.7674,50.9811 109.2694,47.0121 C108.5594,45.1401 107.7914,43.3061 106.9524,41.5391 C106.4584,40.5141 105.9224,39.5581 105.2104,38.8111 C105.3124,38.7641 105.4214,38.7081 105.5314,38.6681 C104.2604,37.6701 102.7704,37.0271 101.5364,35.9601 L101.5804,35.8131 C95.1874,30.8811 87.5774,27.9121 79.9654,25.8331 C74.2294,24.2691 68.3534,23.1911 62.4784,22.1391 C62.4084,22.1271 62.3374,22.131621 62.2674,22.1441 M56.4274,32.5581 C56.6254,32.5181 56.8254,32.4661 57.0254,32.4021 C60.0894,31.4341 62.5474,27.8731 62.9974,24.2481 C71.7384,25.8141 80.5074,27.4881 88.6844,30.8441 C92.6234,32.4661 96.4104,34.4901 99.8824,37.0701 C100.7534,37.9841 101.8144,38.5751 102.8534,39.2061 C102.8964,39.4131 103.0054,39.5991 103.2084,39.7051 C104.5244,40.4091 105.1984,42.0111 105.8714,43.4751 C106.6824,45.2401 107.4364,47.0511 108.1094,48.9211 C109.0934,51.6531 109.9244,54.4771 110.6174,57.3801 C110.4634,57.6191 110.3764,57.9211 110.4774,58.2471 C110.8824,59.5661 111.2804,60.8861 111.6854,62.2051 C111.8584,62.7751 112.1564,63.3811 112.2194,63.9911 C112.2984,64.7441 111.6724,65.0771 111.1994,65.4831 C108.9844,67.4051 106.7694,69.3271 104.5544,71.2401 C100.9624,74.3541 97.2394,77.5891 93.1194,79.0981 C92.8994,76.1861 92.6794,73.2741 92.4584,70.3631 C92.3504,70.0391 92.2864,69.6891 92.2874,69.3171 C92.2874,68.9111 92.2954,68.5031 92.3104,68.1021 C92.1954,67.6761 92.1454,67.2021 92.1824,66.7191 L91.1534,53.0971 C91.1064,52.4951 90.6744,52.2721 90.2684,52.3541 C89.8644,52.4351 89.4844,52.8161 89.5304,53.4221 C90.1984,62.1991 90.8584,70.9771 91.5254,79.7541 C91.0074,80.2731 91.0414,81.3291 91.6534,81.4231 C91.9154,84.8701 92.1714,88.3191 92.4344,91.7671 C92.9164,98.1091 93.4074,104.4501 93.8744,110.7941 C94.2084,115.3941 94.4174,120.2101 93.3984,124.9861 C92.3044,130.1411 89.5624,134.2681 85.4044,136.5711 C83.1624,137.8151 80.8184,138.5611 78.4894,139.2701 C75.8254,140.0901 73.1614,140.8311 70.4914,141.4871 C68.2564,142.0431 66.0194,142.5451 63.7834,142.9941 C55.2704,144.7001 46.7584,145.6231 38.3534,145.7331 C29.5744,145.8511 18.3274,146.2041 12.8144,137.9751 C14.7494,133.6811 15.9294,129.1051 16.8474,124.5311 C17.8824,119.4231 18.7794,114.3001 19.8584,109.1831 C20.3794,106.7451 20.9294,104.3191 21.4944,101.8891 C21.6944,99.9571 22.1124,98.0401 22.8354,96.2621 C24.3674,90.0091 26.0304,83.7811 27.8534,77.5821 C29.6024,71.6481 31.4834,65.7481 33.4944,59.8831 C33.7804,59.0611 33.2124,58.4701 32.6934,58.5741 C32.4554,58.6221 32.2294,58.8141 32.0984,59.1951 C28.5804,69.4591 25.4414,79.8291 22.7154,90.2881 C22.1954,92.2851 21.7044,94.2761 21.2204,96.2661 C19.6504,95.9331 18.2404,95.1351 16.9334,94.0921 L16.8454,94.0751 L16.8304,94.3191 C11.4264,90.4681 6.8744,85.2351 3.4164,78.9541 L3.5784,78.7061 L3.5044,78.5901 C2.5994,76.8451 3.3004,75.2611 4.2274,73.4071 C4.9794,71.8911 5.7394,70.3901 6.5054,68.8881 C12.4484,57.2221 19.2864,45.1261 29.1344,37.5951 C32.3034,35.1701 35.7104,33.4071 39.1474,31.9501 C40.8504,31.2271 42.5684,30.5811 44.2934,29.9411 C44.4964,29.8661 44.7594,29.7531 45.0504,29.6251 L45.0504,29.4611 C46.4554,28.9121 47.8604,28.4311 49.2794,28.0171 L49.4474,27.9401 C49.6044,29.2311 50.3444,30.2841 51.3404,30.7071 C52.6054,32.1871 54.4664,32.9501 56.4274,32.5581 M39.5064,208.5821 C37.8364,208.9171 36.1594,209.1041 34.5114,209.2321 C29.3384,209.6291 24.2694,209.1671 19.2584,208.5811 C16.8734,208.3081 13.9934,208.3841 11.9954,206.9351 C11.0734,206.2641 10.3034,205.1651 10.2344,203.7531 C10.1994,202.9741 10.4044,202.1981 10.6964,201.4391 C10.6624,200.3051 10.8094,199.1521 11.1024,198.0131 L11.0004,198.0071 C12.3264,189.6091 13.6434,181.2121 14.9684,172.8051 C15.7044,168.1291 16.4404,163.4441 17.1764,158.7681 C17.8904,154.2511 18.7284,149.6761 18.6714,145.2101 C23.1414,147.1751 28.4074,147.5461 33.3014,147.6541 C43.3714,147.8751 53.6224,146.9511 63.8774,144.8961 C64.7794,144.7151 65.6784,144.5261 66.5794,144.3281 C71.9064,143.1571 77.3414,141.8341 82.6204,139.8081 C84.6794,139.0241 86.6814,137.9481 88.4664,136.4931 C88.4714,145.4541 88.6804,154.3661 89.1084,163.2261 C89.3114,167.5931 89.5724,171.9391 89.8834,176.2761 C90.0394,178.5261 90.2174,180.7641 90.4024,183.0091 C90.5734,185.0311 90.8684,187.0551 90.878802,189.1271 C90.8964,191.0941 90.3114,192.7931 88.8324,194.0831 C87.5064,195.2391 85.9264,195.9021 84.4414,196.5451 C80.8814,198.0971 77.2574,199.1861 73.6334,199.9991 C73.0924,200.1191 72.5504,200.2331 72.0094,200.3421 C68.8984,200.9651 65.7884,201.4091 62.6824,201.7881 C60.8284,202.0041 58.9644,202.2741 57.1174,202.4021 C56.1934,202.4751 55.8374,202.0801 55.6944,201.0281 C55.5574,199.9921 55.5314,198.8921 55.5034,197.8161 C55.2724,188.8831 57.0654,179.2761 54.6364,171.0341 C55.3644,167.3531 56.3014,163.6911 57.4574,160.0881 C57.6254,159.5801 57.2774,159.0701 56.8924,159.0181 C56.8184,159.0091 56.7464,159.0121 56.6784,159.0261 C56.3204,159.0981 56.0364,159.4571 55.9014,159.8911 C54.9874,162.7361 54.2104,165.6141 53.5654,168.5091 C53.3384,168.6321 53.1344,168.8541 53.0394,169.2101 C51.3714,175.0681 50.0934,181.0021 49.2314,186.9561 C48.8044,189.9371 48.4714,192.9261 48.2474,195.9001 C48.0614,198.4101 48.0994,201.1501 47.1054,203.6141 C46.0464,206.2201 43.8904,207.4131 41.7654,208.0291 C41.0174,208.2491 40.2624,208.4311 39.5064,208.5821 M18.0244,262.6991 C17.7884,256.6961 17.5584,250.7011 17.3224,244.6991 L17.2934,244.5831 C17.4534,233.2041 17.6124,221.8321 17.7714,210.4531 C19.2624,210.6211 20.7534,210.7451 22.2374,210.8891 C25.0074,211.1541 27.8084,211.3361 30.6304,211.3151 C33.3874,211.2901 36.1734,211.0851 38.9604,210.5791 C39.1274,210.5541 39.2884,210.5221 39.4484,210.4901 C37.7644,220.1611 36.4884,229.8461 35.5894,239.5071 C35.5244,239.6501 35.4734,239.7991 35.4654,239.9731 C34.8104,247.7531 34.2574,255.5211 33.8074,263.2771 C33.7774,263.7931 34.0384,264.0261 34.3584,264.0491 C34.6364,267.3901 35.0084,270.7461 34.4494,274.2031 C33.7874,278.2681 32.1864,282.1671 30.4334,285.9061 C30.0614,286.6891 29.6894,287.5071 29.3014,288.3281 C29.2514,287.9151 29.0124,287.5651 28.5464,287.6151 C27.8224,287.7051 27.0954,287.8221 26.3714,287.9671 C22.3014,288.7831 18.2524,290.4751 14.4324,292.9421 C14.3464,288.4821 13.7724,284.1551 12.7034,280.0821 C12.6604,279.9361 12.6024,279.8271 12.5294,279.7461 C12.9664,279.1911 13.3894,278.6401 13.7844,278.1031 C15.9204,275.1941 17.5624,272.0561 17.9984,268.3821 C18.2354,266.4421 18.1804,264.5521 18.0814,262.6701 L18.0244,262.6991 M71.7304,202.3151 C74.6864,201.7231 77.6434,200.9561 80.5794,199.9551 C78.5094,218.2001 76.4964,236.4501 74.5574,254.6861 C74.3054,257.0871 73.9304,259.5401 73.7804,261.9291 C73.6414,262.2501 73.6124,262.6201 73.7564,262.9021 C73.8124,264.1091 74.2974,265.1701 75.4614,265.0061 C75.4774,265.0031 75.4924,265.0011 75.5064,264.9981 C75.7814,264.9431 75.9714,264.7541 76.0954,264.5161 C78.8414,266.4111 81.3614,268.7671 83.4294,271.5931 L83.3784,271.6821 C82.4434,273.9951 81.9144,276.4261 81.8594,278.8391 C81.8344,280.0541 81.9424,281.2511 82.1514,282.4021 C82.1944,282.6101 82.2884,282.8501 82.2814,283.0681 C82.2764,283.2361 82.3214,283.2631 82.3094,283.2661 C82.3004,283.2681 82.2624,283.2561 82.1574,283.2741 C81.7484,283.3471 81.2184,283.1251 80.8184,283.0761 C79.3874,282.9181 77.9224,282.9961 76.4604,283.2891 C73.8794,283.8061 71.3074,284.9961 68.9404,286.7611 C68.3504,287.2001 68.4444,287.9411 68.8214,288.2721 C66.1984,287.0691 63.7274,285.4381 61.7384,283.3051 C59.9024,281.3311 58.8004,278.7251 58.5674,275.5651 C58.4674,274.1861 58.4994,272.7791 58.6114,271.3651 L58.6114,271.3561 C58.7454,269.6361 58.9814,267.9031 59.2464,266.1731 C59.3414,266.0161 59.4134,265.8371 59.4294,265.6181 C60.7394,249.5391 61.4744,233.5071 61.6274,217.5911 C61.6644,213.0721 61.6664,208.5691 61.6174,204.0671 C61.6174,203.9811 61.5874,203.9091 61.5664,203.8351 C64.4324,203.5031 67.3064,203.1251 70.1804,202.6101 C70.6974,202.5171 71.2134,202.4181 71.7304,202.3151 M17.6854,299.0691 C16.5234,299.3021 15.3754,299.3901 14.3044,299.3371 C11.2124,299.1791 8.3504,297.5921 7.1344,294.2581 C7.0114,293.9201 6.9244,293.5911 6.8454,293.2701 C6.8964,293.1041 6.9474,292.9471 7.0134,292.7871 L7.0644,292.6301 C6.9924,292.3421 6.9424,292.0491 6.9134,291.7441 C6.8334,291.6561 6.7394,291.5801 6.6294,291.5331 C6.5564,287.8661 8.8764,284.4791 11.2604,281.3831 C12.3154,285.5971 12.8524,290.0351 12.8364,294.6361 C12.8294,295.1131 13.2074,295.5491 13.6234,295.4661 C13.7004,295.4511 13.7774,295.4181 13.8534,295.3661 C17.8414,292.6061 22.0794,290.7531 26.3694,289.8931 C27.0924,289.7481 27.8174,289.6311 28.5424,289.5431 C28.6224,289.5271 28.6884,289.4971 28.7534,289.4661 C27.5354,291.9581 26.1264,294.3841 24.1594,296.0221 C22.2534,297.6141 19.9434,298.6171 17.6854,299.0691 M82.2774,285.1911 C83.0794,285.0311 83.7334,284.3281 83.8724,283.3111 C84.0284,282.2251 83.6004,281.1611 83.5154,280.1241 C83.3454,277.8251 83.6844,275.4231 84.4884,273.1361 C86.7224,276.7151 88.3844,282.2591 85.2554,286.9401 C83.8774,288.9901 82.0334,289.9871 80.1004,290.3741 C77.9294,290.8091 75.6474,290.4761 73.7934,290.0061 C72.2454,289.6171 70.6824,289.0921 69.1694,288.4271 C69.2464,288.4371 69.3274,288.4361 69.4084,288.4191 C69.5194,288.3971 69.6344,288.3471 69.7524,288.2581 C71.7114,286.7941 73.8524,285.7861 76.0134,285.2921 C76.1344,285.2651 76.2544,285.2391 76.3754,285.2151 C77.3104,285.0281 78.2434,284.9301 79.1634,284.9371 C80.1464,284.9561 81.1414,285.3271 82.1384,285.2141 C82.1854,285.2081 82.2314,285.2011 82.2774,285.1911" id="Fill-47" fill="#231F20" mask="url(#mask-2)"></path>
                </g>
                <g id="Group-52">
                    <mask id="mask-4" fill="white">
                        <use xlink:href="#path-3"></use>
                    </mask>
                    <g id="Clip-51"></g>
                    <path d="M151.0204,32.8589 C147.4894,33.5669 143.9834,34.8279 140.7254,37.2839 C140.0494,37.7939 140.4654,38.7849 141.0954,38.6589 C141.1934,38.6399 141.2954,38.5929 141.3994,38.5149 C144.4004,36.2539 147.7004,35.0669 151.0144,34.4029 C153.2584,33.9529 155.5094,33.7419 157.6804,33.6009 C159.8044,33.4689 162.6704,33.4819 163.7934,35.7289 C164.5034,37.1589 164.4334,39.8089 162.9404,40.9469 C160.1424,39.5029 156.9724,38.7979 153.7644,38.8189 C153.7214,38.8189 153.6804,38.8239 153.6394,38.8319 C152.8864,38.9829 152.5974,40.4269 153.4054,40.4209 C156.5414,40.3979 159.5424,41.0839 162.2684,42.4729 C162.3634,42.6179 162.5074,42.7109 162.6904,42.6999 C162.8214,42.7769 162.9584,42.8359 163.0894,42.9139 C164.3754,43.6579 165.9384,44.5809 166.4364,46.3219 C166.7874,47.5669 166.2004,49.6079 164.8914,49.8699 C164.8504,49.8789 164.8074,49.8849 164.7644,49.8899 C164.7444,49.8919 164.7234,49.8949 164.7044,49.8989 C164.5324,49.9329 164.3994,50.0299 164.3034,50.1589 C164.4134,50.5659 164.4694,50.9919 164.4594,51.4299 C164.5444,51.4719 164.6454,51.4919 164.7614,51.4809 C164.8284,51.4729 164.8944,51.4629 164.9604,51.4499 C166.5404,51.1329 167.6974,49.1419 167.8684,47.3319 C168.0764,45.0769 166.7404,43.4689 165.3814,42.4629 C164.9894,42.1699 164.5834,41.8969 164.1684,41.6339 C165.2044,40.4239 165.6654,38.6379 165.5444,37.0199 C165.1474,31.5509 159.7644,31.7999 156.0534,32.1549 C154.3864,32.3109 152.7014,32.5229 151.0204,32.8589" id="Fill-50" fill="#231F20" mask="url(#mask-4)"></path>
                </g>
                <g id="Group-55">
                    <mask id="mask-6" fill="white">
                        <use xlink:href="#path-5"></use>
                    </mask>
                    <g id="Clip-54"></g>
                    <path d="M146.8182,22.169 C146.3552,22.262 145.8832,22.493 145.4592,22.81 C143.3242,24.396 142.9912,27.712 141.1692,29.693 C139.5212,31.493 137.3672,32.366 135.3932,33.236 C133.3402,34.132 131.2522,35.026 129.3862,36.601 C127.6012,38.108 126.1502,40.136 124.9752,42.325 C122.3832,47.14 121.1372,52.575 119.2442,57.683 C118.0302,60.942 116.5622,64.088 114.8982,67.101 C114.8032,67.172 114.7152,67.276 114.6432,67.412 L108.5482,78.719 C108.3142,79.155 108.0812,79.781 107.7742,80.145 C107.6652,80.279 107.6342,80.331 107.6002,80.337 C107.5672,80.344 107.5302,80.306 107.4112,80.261 C107.2722,80.211 107.1342,80.04 107.0262,79.932 C106.4962,79.467 106.0022,78.944 105.5452,78.371 C104.6442,77.242 103.9122,75.899 103.3732,74.449 C103.3592,74.414 103.3462,74.38 103.3342,74.345 C103.2082,73.999 102.9302,73.894 102.6612,73.948 C102.2462,74.032 101.8472,74.491 102.0452,75.027 C102.0932,75.162 102.1442,75.294 102.1952,75.427 C102.8372,77.078 103.6722,78.563 104.7272,79.848 C105.3632,80.614 106.5172,82.173 107.6532,81.945 C107.9572,81.885 108.2592,81.695 108.5502,81.329 C109.2432,80.455 109.7402,79.215 110.2802,78.208 C110.8862,77.092 111.4922,75.968 112.0972,74.844 L114.7182,69.981 L114.7402,69.993 C116.9292,66.34 118.8202,62.452 120.3342,58.415 C122.0732,53.771 123.2542,48.91 125.3712,44.406 C126.3862,42.232 127.6482,40.147 129.2812,38.541 C130.9272,36.932 132.8062,35.993 134.7142,35.145 C136.5482,34.327 138.4262,33.596 140.1672,32.366 C141.9652,31.089 143.2272,29.376 144.1702,27.165 C144.7032,25.934 145.2442,24.46 146.4022,23.891 C146.5302,23.828 146.6482,23.787 146.7582,23.765 C147.7872,23.559 148.0242,25.057 148.0422,26.147 C148.0812,28.619 146.9702,31.21 145.1772,32.839 C144.5562,33.41 144.9352,34.377 145.5172,34.261 C145.6242,34.24 145.7372,34.182 145.8522,34.079 C147.9432,32.173 149.2802,29.209 149.3732,26.303 C149.4192,24.972 149.2402,23.357 148.3972,22.566 C147.9552,22.152 147.3932,22.054 146.8182,22.169" id="Fill-53" fill="#231F20" mask="url(#mask-6)"></path>
                </g>
                <g id="Group-58">
                    <mask id="mask-8" fill="white">
                        <use xlink:href="#path-7"></use>
                    </mask>
                    <g id="Clip-57"></g>
                    <path d="M151.1991,43.9219 C150.4651,44.0689 150.1961,45.4839 150.9881,45.5119 C154.4791,45.6329 157.9041,46.5109 160.8461,48.3159 C161.8861,48.9539 163.4761,50.2169 163.1091,52.0189 C162.9531,52.7989 162.2051,53.7999 161.5271,53.9359 C161.2821,53.9849 161.0461,53.9199 160.8511,53.6899 C160.7171,53.5329 160.5611,53.4869 160.4101,53.5169 C160.1961,53.5599 159.9911,53.7549 159.8631,54.0019 C159.9471,54.3679 160.0021,54.7459 160.0231,55.1299 C160.4321,55.5289 160.9321,55.6339 161.4461,55.5309 C162.3221,55.3549 163.2361,54.5779 163.8041,53.6339 C164.2461,52.9019 164.4431,52.1519 164.4601,51.4299 C164.4701,50.9919 164.4131,50.5659 164.3031,50.1589 C164.1001,49.4089 163.7171,48.7299 163.2401,48.1899 C161.8321,46.5879 159.7231,45.7569 157.8261,45.1009 C155.7551,44.3839 153.5881,43.9799 151.3471,43.9099 C151.2971,43.9079 151.2471,43.9129 151.1991,43.9219" id="Fill-56" fill="#231F20" mask="url(#mask-8)"></path>
                </g>
                <g id="Group-61">
                    <mask id="mask-10" fill="white">
                        <use xlink:href="#path-9"></use>
                    </mask>
                    <g id="Clip-60"></g>
                    <path d="M150.1747,48.0386 C148.4867,48.3766 146.8007,49.1886 145.2977,50.4806 C144.6537,51.0286 145.0437,52.0056 145.6367,51.8876 C145.7407,51.8666 145.8527,51.8106 145.9647,51.7126 C147.2217,50.6356 148.6937,49.9416 150.1827,49.6436 C153.6687,48.9446 157.2557,50.4086 158.4207,54.1776 C158.8327,55.5386 158.8217,57.3206 157.6197,58.4686 C156.9977,59.0576 156.2447,59.3456 155.5017,59.4946 C155.1217,59.5706 154.7447,59.6106 154.3877,59.6356 C151.5587,59.8136 148.6937,59.3506 145.9947,58.8626 C144.5557,58.6066 143.1307,58.2966 141.7277,57.9126 C140.4037,57.5556 139.1247,57.0596 137.7787,56.7496 C136.9917,56.5676 136.1397,56.4926 135.2927,56.6626 C134.8257,56.7556 134.3617,56.9236 133.9087,57.1886 C132.7507,57.8616 131.8247,59.0236 130.9797,60.1956 C123.4967,70.5546 117.3507,82.2616 112.8247,94.4906 C112.8197,94.4916 112.8137,94.4926 112.8087,94.4936 C112.4707,94.5606 112.1117,94.8836 112.0887,95.3986 C111.9907,97.2856 110.5397,98.9066 109.0707,99.4696 C108.8187,99.5666 108.5667,99.6386 108.3147,99.6896 C106.8867,99.9756 105.4647,99.5626 104.2477,98.9836 C101.9737,97.9096 100.1447,95.9956 98.8977,93.5396 C99.0797,93.2356 99.1387,92.8606 98.9497,92.5176 C97.3407,89.6256 95.7377,86.7316 94.1287,83.8476 C93.9667,83.5536 93.7217,83.4666 93.4757,83.5166 C93.4687,83.5176 93.4607,83.5196 93.4537,83.5216 C92.9067,83.6486 92.3687,84.4356 92.7307,85.0966 C93.0547,85.6796 93.3787,86.2626 93.7037,86.8466 C94.8177,88.8476 95.9327,90.8516 97.0437,92.8566 C97.0437,92.9516 97.0577,93.0436 97.0947,93.1406 C98.5777,96.9916 101.3957,99.9186 104.8917,101.0156 C105.9727,101.3516 107.1637,101.4956 108.3467,101.2586 C109.1057,101.1066 109.8617,100.7976 110.5807,100.2816 C111.6817,99.4906 112.5707,98.3096 113.0457,96.9606 C113.2137,96.8926 113.3597,96.7426 113.4537,96.4816 C116.2257,88.7526 119.6287,81.2606 123.6207,74.1506 C125.4087,70.9666 127.3207,67.8696 129.3337,64.8646 C130.2967,63.4186 131.2747,61.9776 132.3097,60.5946 C133.2737,59.3256 134.2677,58.4836 135.4547,58.2466 C135.8127,58.1746 136.1877,58.1576 136.5837,58.1996 C138.0377,58.3666 139.3977,58.9666 140.7937,59.3526 C142.2837,59.7796 143.8037,60.1316 145.3377,60.4126 C148.1887,60.9386 151.1697,61.3866 154.1457,61.2306 C154.5377,61.2116 154.9457,61.1636 155.3547,61.0816 C157.2267,60.7066 159.1327,59.6086 159.8117,57.1396 C159.9977,56.4566 160.0587,55.7826 160.0237,55.1306 C160.0017,54.7456 159.9467,54.3686 159.8627,54.0016 C159.4917,52.3736 158.5597,50.9606 157.5557,50.0206 C155.5807,48.1676 152.8737,47.4976 150.1747,48.0386" id="Fill-59" fill="#231F20" mask="url(#mask-10)"></path>
                </g>
                <g id="Group-64">
                    <mask id="mask-12" fill="white">
                        <use xlink:href="#path-11"></use>
                    </mask>
                    <g id="Clip-63"></g>
                    <path d="M143.8807,38.813 C143.8247,38.824 143.7707,38.843 143.7197,38.871 C143.3407,39.067 143.1937,39.521 143.2447,39.934 C143.5737,42.59 142.9647,45.521 141.6657,48.037 C141.4607,48.441 141.6127,48.929 141.9027,49.079 C142.0087,49.1291011 142.1187,49.14 142.2277,49.119 C142.4587,49.072 142.6827,48.878 142.8207,48.609 C144.3397,45.669 144.9127,42.322 144.5407,39.259 C144.4917,38.907 144.1687,38.755 143.8807,38.813" id="Fill-62" fill="#231F20" mask="url(#mask-12)"></path>
                </g>
            </g>
        </g>
    </g>
</svg>