<?xml version="1.0" encoding="UTF-8"?>
<svg width="500px" height="600px" viewBox="0 0 500 600" version="1.1" xmlns="http://www.w3.org/2000/svg" xmlns:xlink="http://www.w3.org/1999/xlink">
    <title>handsheldback</title>
    <defs>
        <polyline id="path-1" points="114.344 0.474 113.828 278.078 0.352 300 0.868 22.395"></polyline>
    </defs>
    <g id="handsheldback" stroke="none" stroke-width="1" fill="none" fill-rule="evenodd">
        <g id="body" transform="translate(211.000000, 236.000000)">
            <g id="fill" transform="translate(1.855500, 11.908394)">
                <path d="M106.6913,47.3284057 C105.7023,46.9304057 104.8053,47.3234057 104.1943,48.1464057 C102.3443,50.6394057 100.0213,52.8084057 97.4163,54.4914057 C96.0923,55.3474057 94.6783,55.9464057 93.3013,56.6904057 C91.8523,57.4744057 90.9543,59.0714057 91.8673,60.6204057 C91.9843,60.8194057 92.1233,60.9734057 92.2703,61.1064057 C92.2373,61.1614057 92.2153,61.2234057 92.1853,61.2794057 C91.4063,61.6544057 90.8173,62.4714057 91.0233,63.5544057 C91.2513,64.7564057 91.4793,65.9574057 91.7083,67.1594057 C91.7323,67.2864057 91.7693,67.4014057 91.8123,67.5114057 C92.2533,69.9384057 92.6143,72.3794057 92.8673,74.8374057 C92.9223,75.3784057 93.1623,75.8204057 93.4933,76.1504057 C93.3223,78.5354057 93.1503,80.9194057 92.9793,83.3034057 C92.9433,83.8064057 93.1703,84.2954057 93.5263,84.6654057 C93.4543,84.6984057 93.3773,84.7184057 93.3073,84.7634057 C93.1733,84.8494057 93.0363,84.9494057 92.9233,85.0644057 C92.8253,85.1664057 92.7373,85.2934057 92.6553,85.4074057 C92.6393,85.4294057 92.6253,85.4494057 92.6123,85.4724057 C92.5733,85.5424057 92.5433,85.6294057 92.5133,85.6974057 C92.4863,85.7644057 92.4433,85.8484057 92.4213,85.9254057 C92.3753,86.0944057 92.3493,86.2754057 92.3543,86.4514057 C92.3633,86.8414057 92.5143,87.2334057 92.7933,87.5124057 C92.9293,87.6584057 93.0893,87.7614057 93.2763,87.8224057 C93.4493,87.9124057 93.6353,87.9534057 93.8343,87.9494057 C93.9103,88.0074057 93.9863,88.0664057 94.0803,88.0934057 C94.2593,88.1864057 94.4523,88.2294057 94.6583,88.2224057 C94.7913,88.2044057 94.9233,88.1864057 95.0573,88.1684057 C95.3113,88.0974057 95.5323,87.9694057 95.7183,87.7824057 C95.8033,87.6774057 95.8763,87.5764057 95.9453,87.4734057 C95.9483,87.4744057 95.9513,87.4764057 95.9533,87.4794057 C95.9603,87.4664057 95.9643,87.4524057 95.9703,87.4384057 C96.0673,87.2884057 96.1483,87.1314057 96.1923,86.9354057 C96.1963,86.9214057 96.1943,86.9094057 96.1973,86.8954057 C96.2913,86.6484057 96.3713,86.3984057 96.4203,86.1374057 C96.5103,85.6684057 96.5683,85.1854057 96.5433,84.7074057 C96.5403,84.6474057 96.5293,84.5894057 96.5203,84.5304057 C96.7803,84.1974057 96.9453,83.7794057 96.9793,83.3034057 C97.0193,82.7464057 97.0593,82.1894057 97.0993,81.6334057 C97.7813,81.5494057 98.4153,81.1194057 98.6813,80.2364057 L102.1803,68.6314057 C103.0883,65.6204057 104.5203,62.3474057 104.4473,59.1274057 C105.5043,55.9544057 106.6313,52.8054057 107.8493,49.6874057 C108.2073,48.7724057 107.5313,47.6664057 106.6913,47.3284057" id="Fill-1" fill="#E4C3A2"></path>
                <path d="M16.9325,73.9524057 C16.7315,73.9524057 16.5515,73.9844057 16.3815,74.0294057 C15.6265,73.1874057 14.6545,72.4734057 13.7245,71.7624057 C11.2865,69.8974057 8.8485,68.0344057 6.4115,66.1704057 C6.1465,65.9684057 5.8795,65.8624057 5.6185,65.8214057 C5.6185,65.8094057 5.6165,65.7984057 5.6165,65.7864057 C5.6185,65.7804057 5.6195,65.7754057 5.6195,65.7684057 C5.6305,65.7504057 5.6385,65.7374057 5.6525,65.7134057 C6.1755,64.8064057 5.8925,63.4834057 4.9345,62.9764057 C3.9795,62.4724057 2.7565,62.7264057 2.1985,63.6944057 C1.1045,65.5884057 1.8325,67.8744057 2.3545,69.8994057 C1.3605,70.1404057 0.4785,71.0444057 0.7475,72.3334057 C2.2465,79.4944057 4.3725,86.5004057 7.1075,93.2874057 C7.1645,93.4304057 7.2355,93.5634057 7.3115,93.6924057 C7.9695,96.3004057 8.5805,98.9184057 9.1455,101.548406 C9.0595,102.158406 8.9735,102.769406 8.8865,103.380406 C8.7365,104.448406 9.1485,105.528406 10.2845,105.840406 C11.2205,106.097406 12.5915,105.519406 12.7445,104.443406 C12.7905,104.113406 12.8365,103.783406 12.8835,103.453406 C13.2575,102.980406 13.4055,102.350406 13.2675,101.685406 C13.2415,101.562406 13.2105,101.440406 13.1855,101.317406 C13.8335,96.6964057 14.4815,92.0744057 15.2285,87.4684057 C15.2675,87.2284057 15.3115,86.9914057 15.3505,86.7524057 C15.3985,86.5854057 15.4495,86.4194057 15.4965,86.2524057 C15.8985,84.8414057 16.2915,83.4274057 16.6755,82.0114057 C17.0465,80.6404057 17.5465,79.2274057 17.6945,77.8074057 C19.4705,77.1024057 19.2225,73.9524057 16.9325,73.9524057" id="Fill-3" fill="#E4C3A2"></path>
                <path d="M17.1933,78.9324057 C17.5413,78.3664057 17.6863,77.7754057 17.6783,77.1814057 C17.6793,77.1164057 17.6743,77.0534057 17.6723,76.9884057 C17.6643,76.8774057 17.6513,76.7674057 17.6343,76.6564057 C17.6213,76.5654057 17.6143,76.4744057 17.5933,76.3834057 C17.9633,75.8214057 17.9853,74.9084057 17.4233,74.4734057 C16.6363,73.8634057 15.8593,73.2414057 15.0753,72.6274057 C14.9783,72.5434057 14.8813,72.4584057 14.7853,72.3804057 C11.6893,69.8854057 8.5693,67.4194057 5.4623,64.9394057 C5.2943,64.8054057 5.1173,64.7184057 4.9393,64.6614057 C4.7213,64.4764057 4.5053,64.2894057 4.2833,64.1114057 C2.7923,62.9144057 0.6553,65.0244057 2.1623,66.2324057 C7.4013,70.4324057 10.9593,76.3154057 12.0123,82.9724057 C12.5293,86.2364057 12.3803,89.6184057 11.5953,92.8254057 C10.7283,96.3734057 9.3193,99.8074057 9.5583,103.528406 C9.6633,105.133406 12.1083,105.663406 12.5063,103.927406 C13.8973,97.8404057 15.1563,91.7234057 16.2703,85.5794057 C16.6373,83.5584057 17.1443,81.4064057 16.9103,79.3394057 C16.9563,79.2834057 16.9903,79.2254057 17.0323,79.1684057 C17.0883,79.0904057 17.1453,79.0144057 17.1933,78.9324057" id="Fill-5" fill="#C3996B"></path>
                <path d="M39.3417,188.918206 C38.9877,187.770206 37.7647,187.336206 36.5487,187.508206 C33.0147,188.006206 29.4817,188.505206 25.9467,189.004206 C22.8607,189.440206 19.3577,190.350206 16.2647,189.583206 C13.8787,188.992206 12.6607,191.682206 14.0427,192.950206 C14.0197,193.049206 13.9927,193.146206 13.9857,193.254206 C13.1327,204.535206 12.3937,215.845206 14.3257,227.073206 C13.7617,234.805206 16.0917,242.748206 13.5387,250.301206 C13.4887,250.447206 13.4607,250.588206 13.4457,250.725206 C11.3847,253.663206 9.2517,256.560206 7.0227,259.399206 C6.1957,260.454206 5.3807,261.544206 4.6777,262.678206 C4.6787,262.770206 4.6847,262.858206 4.6547,262.960206 C3.8727,265.661206 3.2247,268.412206 3.3287,271.231206 C3.3717,271.339206 3.3997,271.455206 3.3937,271.576206 C3.3847,271.777206 3.3857,271.978206 3.3877,272.178206 C3.4467,272.885206 3.5277,273.591206 3.6617,274.287206 C3.8187,274.419206 3.9677,274.557206 4.1387,274.674206 C4.5947,274.988206 5.0787,275.224206 5.5777,275.415206 C5.8597,275.796206 6.2737,276.094206 6.8167,276.207206 C9.5707,276.780206 12.3777,276.482206 14.8467,275.489206 C14.8727,275.489206 14.8967,275.494206 14.9237,275.493206 C18.5877,275.346206 20.9167,273.299206 22.6987,270.798206 C23.6327,270.099206 24.5297,269.363206 25.3697,268.571206 C25.7777,268.188206 26.0347,267.677206 26.0347,267.144206 C26.0347,266.983206 26.0007,266.814206 25.9517,266.646206 C29.8047,259.582206 34.2667,252.064206 33.5867,244.142206 C33.7427,243.793206 33.7907,243.387206 33.6717,242.931206 C32.5017,238.475206 33.2537,233.810206 33.6907,229.310206 C34.1597,224.461206 34.6297,219.614206 35.0997,214.766206 C35.1537,214.210206 34.9777,213.782206 34.6797,213.466206 C35.1357,205.928206 36.3917,198.466206 38.4517,191.137206 C39.2057,190.662206 39.5767,189.678206 39.3417,188.918206" id="Fill-7" fill="#E4C3A2"></path>
                <path d="M85.7235,252.369906 C84.3825,248.637906 82.1365,245.198906 79.1395,242.583906 C77.4855,241.141906 75.6225,239.892906 73.3785,239.697906 C73.2955,239.689906 73.2115,239.694906 73.1285,239.691906 C73.3355,235.502906 73.7395,231.324906 74.3725,227.177906 C74.9015,226.784906 75.2325,226.143906 75.2855,225.434906 C75.8665,217.770906 76.4465,210.106906 77.0275,202.442906 C77.0525,202.104906 76.9645,201.785906 76.8135,201.495906 C77.7805,194.165906 78.7035,186.830906 79.5405,179.484906 C79.5675,179.260906 79.5295,179.046906 79.4645,178.840906 C79.6825,177.830906 79.8895,176.818906 80.1265,175.812906 C80.5765,173.906906 78.6525,172.577906 76.9745,173.389906 C71.8925,175.845906 66.5895,177.779906 61.1335,179.220906 C59.4965,179.652906 59.2935,181.372906 59.9955,182.479906 C59.9925,182.504906 59.9845,182.529906 59.9815,182.554906 C59.9425,182.902906 59.9475,183.241906 59.9775,183.575906 C59.7735,183.888906 59.6505,184.278906 59.6635,184.758906 C59.7705,188.405906 59.8775,192.051906 59.9845,195.697906 C60.0245,197.074906 60.0515,198.454906 60.1355,199.830906 L60.1205,200.010906 C60.1065,200.193906 60.1315,200.368906 60.1745,200.540906 C60.1795,200.607906 60.1795,200.675906 60.1855,200.743906 C60.2305,201.251906 60.2765,201.827906 60.3535,202.411906 C59.9225,202.923906 59.7665,203.622906 59.8965,204.370906 C59.9665,204.780906 60.0345,205.189906 60.0935,205.599906 C60.1025,205.663906 60.1115,205.726906 60.1205,205.790906 C60.1235,205.818906 60.1265,205.842906 60.1325,205.883906 C60.1555,206.073906 60.1785,206.263906 60.2005,206.453906 C60.2005,206.458906 60.2015,206.462906 60.2015,206.467906 C60.1715,206.745906 60.1375,207.025906 60.1125,207.304906 C59.9105,209.514906 59.7195,211.726906 59.5235,213.937906 C59.5115,214.072906 59.5205,214.205906 59.5425,214.337906 C59.1705,214.720906 58.9325,215.215906 59.0005,215.751906 C59.6195,220.632906 58.5995,225.683906 58.3295,230.567906 C58.0865,234.968906 58.0325,239.375906 58.1315,243.781906 C57.5505,244.103906 57.1245,244.698906 57.1215,245.566906 C57.1115,248.385906 57.0995,251.205906 57.0885,254.024906 C57.0835,255.285906 56.9695,256.635906 57.3125,257.864906 C57.6715,259.147906 58.5445,260.097906 59.4925,260.987906 C63.0545,264.338906 67.2755,267.137906 72.2895,267.411906 C72.4505,267.420906 72.6045,267.403906 72.7555,267.370906 C72.9375,267.346906 73.1195,267.322906 73.3025,267.297906 C73.5315,267.233906 73.7345,267.124906 73.9255,266.995906 C77.5185,267.663906 81.4025,266.633906 83.9205,263.881906 C86.8825,260.646906 87.1635,256.377906 85.7235,252.369906" id="Fill-9" fill="#E4C3A2"></path>
                <path d="M38.4462,187.282006 C37.2832,185.550006 34.8452,185.945006 32.9612,186.064006 C31.0372,186.185006 29.1192,186.362006 27.2072,186.588006 C23.2452,187.057006 19.1412,185.950006 15.2712,186.844006 C12.4592,187.493006 13.8352,193.182006 16.6552,192.532006 C17.2652,192.390006 17.8782,192.260006 18.4902,192.129006 C18.6582,192.170006 18.8372,192.199006 19.0302,192.207006 C22.5112,192.356006 24.6982,195.342006 25.7402,198.020006 C27.1352,201.609006 27.8442,205.489006 28.5242,209.230006 C29.9512,217.072006 30.4072,225.047006 30.0232,232.982006 C30.0132,233.179006 30.0382,233.356006 30.0772,233.523006 C30.0812,233.631006 30.0972,233.743006 30.1282,233.860006 C31.0922,237.510006 31.3822,241.294006 30.9852,245.027006 C30.7132,245.268006 30.5252,245.602006 30.5072,246.039006 C30.3482,249.902006 29.1702,253.626006 27.5662,257.194006 C26.0892,260.483006 24.3422,263.778006 22.2172,266.772006 C20.3042,269.468006 17.7662,272.086006 14.3652,273.262006 C11.3172,274.317006 7.5592,274.379006 4.9542,272.390006 C4.4572,272.010006 3.8912,271.943006 3.38813255,272.064006 C3.3872,272.427006 3.3972,272.790006 3.4262,273.153006 C3.4762,273.777006 3.5202,274.100006 3.6312,274.712006 C3.6692,274.927006 3.7282,275.138006 3.7742,275.353006 C6.6972,277.046006 10.2512,277.395006 13.6852,276.638006 C17.9432,275.700006 21.9392,274.411006 24.5102,271.318006 C27.2572,268.016006 29.2982,263.469006 31.0732,259.686006 C32.6082,256.414006 33.0752,252.394006 33.6052,248.896006 C33.7462,248.741006 33.8462,248.560006 33.8862,248.354006 C34.7782,243.738006 34.7292,239.055006 33.7252,234.471006 C34.1822,234.145006 34.5052,233.650006 34.5372,232.982006 C34.7662,228.255006 34.6702,223.523006 34.2762,218.810006 C35.2222,218.368006 35.7322,217.440006 35.4662,216.461006 C35.3582,216.070006 35.2622,215.677006 35.1822,215.280006 C35.1472,215.110006 35.1182,214.940006 35.0872,214.769006 C35.0812,214.736006 35.0782,214.723006 35.0742,214.700006 C35.0712,214.675006 35.0702,214.661006 35.0662,214.624006 C34.9802,213.879006 34.9252,213.134006 34.9302,212.385006 C34.9352,211.656006 34.9542,210.896006 35.0902,210.175006 C35.1002,210.118006 35.1132,210.053006 35.1232,210.003006 C35.1532,209.832006 35.1872,209.662006 35.2232,209.493006 C35.3082,209.097006 35.4102,208.705006 35.5212,208.315006 C35.6792,207.759006 35.5502,207.150006 35.2142,206.665006 C35.4412,205.318006 35.5892,203.925006 35.5892,202.522006 C35.8342,200.622006 36.1722,198.734006 36.6352,196.861006 C37.0582,195.149006 37.5672,193.453006 38.1582,191.782006 C38.6772,190.314006 39.4302,188.747006 38.4462,187.282006" id="Fill-11" fill="#C3996B"></path>
                <path d="M83.0204,261.185306 C80.2304,263.637306 76.5474,264.896306 72.8404,264.660306 C69.4634,264.444306 65.4094,262.789306 63.4074,259.932306 C63.2114,259.653306 62.9694,259.472306 62.7114,259.359306 C56.5614,250.049306 60.9784,237.124306 61.3494,226.865306 C61.3704,226.321306 61.1594,225.924306 60.8404,225.665306 C61.4244,218.482306 61.6924,211.279306 61.6304,204.072306 C61.9394,203.813306 62.1694,203.442306 62.2114,202.935306 C63.1064,192.211306 69.2754,182.261306 78.3374,176.527306 C78.9674,176.496306 79.3944,176.161306 79.6164,175.714306 C81.0564,174.802306 80.2074,172.177306 78.3804,172.793306 C74.8364,173.988306 71.2924,175.182306 67.7494,176.377306 C65.8934,177.002306 64.0354,177.622306 62.1804,178.254306 C60.8544,178.705306 59.6844,179.202306 59.3274,180.690306 C58.9384,182.313306 59.1994,184.257306 59.1804,185.919306 C59.1604,187.780306 59.1394,189.641306 59.1194,191.502306 C59.0814,194.952306 59.0424,198.400306 59.0044,201.849306 C58.6504,202.105306 58.4044,202.515306 58.4124,203.090306 C58.5134,211.146306 58.2094,219.200306 57.5034,227.225306 C57.4514,227.820306 57.6864,228.237306 58.0454,228.488306 C57.6284,234.943306 56.2234,241.841306 56.4484,248.392306 C56.1884,248.592306 55.9934,248.865306 55.9334,249.198306 C55.6864,250.585306 55.6504,251.971306 55.7724,253.333306 C55.7074,253.507306 55.6694,253.692306 55.6834,253.885306 C55.8984,256.852306 57.1074,259.627306 59.2004,261.753306 C59.6124,262.171306 60.2224,262.280306 60.7664,262.133306 C61.0834,262.562306 61.4134,262.988306 61.7734,263.406306 C62.0874,263.772306 62.4524,263.922306 62.8084,263.928306 C65.4824,266.220306 69.0544,267.552306 72.4854,267.852306 C77.1604,268.261306 81.8034,266.532306 85.2964,263.461306 C86.8564,262.091306 84.5724,259.822306 83.0204,261.185306" id="Fill-13" fill="#C3996B"></path>
                <path d="M105.1298,47.2820057 C104.7778,47.8560057 104.3938,48.4020057 103.9928,48.9360057 C103.8218,48.9720057 103.6508,49.0450057 103.4808,49.1660057 C100.8458,51.0620057 98.3798,53.1540057 96.0988,55.4450057 C94.7058,55.3580057 93.3498,56.0610057 92.5378,57.1910057 C92.1128,57.7820057 91.8568,58.4540057 91.8058,59.1840057 C91.8018,59.2430057 91.8048,59.3040057 91.8048,59.3640057 C91.7938,59.4500057 91.7858,59.5380057 91.7888,59.6330057 C91.8158,60.4610057 91.8418,61.2880057 91.8678,62.1160057 C91.8688,62.1400057 91.8798,62.1570057 91.8818,62.1810057 C90.8948,65.4600057 91.5618,69.0830057 92.3138,72.4170057 C92.3658,72.6520057 92.4578,72.8440057 92.5758,72.9980057 C92.5008,77.3840057 93.1048,81.6970057 93.7788,86.0240057 C94.0378,87.6780057 96.8948,87.3090057 96.7268,85.6250057 C96.3568,81.9410057 96.1728,78.2410057 96.2018,74.5370057 C96.2298,71.0430057 96.3128,67.4700057 97.2128,64.0740057 C98.8858,57.7590057 104.4348,54.1520057 107.7208,48.7960057 C108.7338,47.1460057 106.1398,45.6370057 105.1298,47.2820057" id="Fill-15" fill="#C3996B"></path>
                <path d="M95.3974,49.8958057 C94.9434,50.2308057 94.4924,50.5678057 94.0404,50.9038057 C93.8364,50.3658057 93.6604,49.8198057 93.5564,49.2538057 C93.4794,48.8288057 93.6094,48.3918057 94.0044,48.1628057 C94.3424,47.9668057 94.9254,47.9818057 95.1854,48.3138057 C95.4414,48.6428057 95.7754,48.9678057 96.1444,49.2258057 C95.9024,49.4558057 95.6514,49.6768057 95.3974,49.8958057 M112.1734,39.8298057 C111.8064,37.9288057 111.0504,36.1368057 110.3544,34.3388057 C109.6304,32.4678057 108.9074,30.5968057 108.1824,28.7258057 C108.1394,28.6128057 108.0774,28.5118057 108.0064,28.4178057 C108.0644,28.2798057 108.1214,28.1408057 108.1784,28.0018057 C107.6014,26.2028057 107.0084,24.4088057 106.3424,22.6468057 C106.3364,22.6228057 106.3444,22.5978057 106.3354,22.5738057 C106.0014,21.6138057 105.6654,20.6548057 105.3304,19.6948057 C105.2434,19.4468057 105.1024,19.2328057 104.8704,19.0978057 C104.8654,19.0948057 104.8574,19.0938057 104.8524,19.0908057 C104.1304,17.5478057 103.3064,16.0518057 102.3484,14.6158057 C101.4014,14.2138057 100.4944,13.7208057 99.6354,13.1528057 C99.5114,13.0868057 99.4154,12.9938057 99.3394,12.8838057 C99.3314,12.8718057 99.3224,12.8598057 99.3134,12.8468057 C99.2844,12.7998057 99.2614,12.7498057 99.2414,12.6978057 C99.1284,12.4598057 99.1174,12.1928057 99.2214,11.9268057 C95.2714,9.5538057 91.1484,7.4558057 86.8734,5.7908057 C79.8164,3.0428057 72.0064,3.0338057 64.9684,0.203805698 C63.9484,1.4708057 62.7014,2.7428057 61.4484,3.5828057 C60.9474,5.0348057 60.2774,6.5478057 58.9774,7.4478057 C57.2854,8.6198057 54.9934,8.5148057 53.1864,7.5598057 C52.8794,7.6198057 52.5664,7.6488057 52.2494,7.6188057 C51.0094,7.5028057 50.0364,6.8418057 49.2934,5.8778057 C49.0084,5.5078057 49.1784,4.9858057 49.4864,4.6848057 C49.4424,4.5158057 49.3984,4.3468057 49.3724,4.1698057 C49.2234,3.9918057 49.0804,3.8088057 48.9384,3.6248057 C47.5954,4.0378057 46.2754,4.5288057 44.9614,5.0398057 C44.9504,5.4048057 44.7464,5.7528057 44.2824,5.8748057 C41.8224,6.5238057 39.2734,7.1058057 36.8874,8.0408057 C22.6604,17.5268057 11.8064,31.7178057 6.1854,48.8468057 C6.1264,49.0308057 6.1064,49.2018057 6.0664,49.3788057 C4.6264,51.7738057 3.1094,54.1298057 1.4684,56.4178057 C2.4994,58.0888057 3.8644,59.6128057 5.0774,61.0058057 C7.2164,63.4648057 9.5424,65.9188057 10.9594,68.8758057 C11.6284,69.3068057 12.3084,69.7188057 13.0424,70.0388057 C13.8804,70.4028057 14.2564,71.3208057 14.2464,72.1948057 C14.3974,72.2068057 14.5484,72.2178057 14.7014,72.2188057 C15.2284,72.2228057 15.6164,72.6318057 15.6644,73.1338057 C16.1314,73.3548057 16.6164,73.5448057 17.1194,73.6928057 C18.1174,73.9868057 19.0564,75.0038057 18.9654,76.0978057 C18.7554,78.6138057 18.0324,80.9838057 17.2444,83.3438057 C17.7714,84.3678057 17.5064,85.3108057 16.8784,85.9528057 C18.3734,86.4208057 20.1264,86.2458057 21.3254,85.2628057 C19.1184,96.8138057 17.0544,108.392806 15.1034,119.992806 C17.4274,121.135806 19.8514,122.071806 22.1514,123.262806 C22.2514,123.314806 22.3344,123.382806 22.4214,123.445806 C24.1894,123.900806 25.9524,124.400806 27.7304,124.784806 C30.9864,124.148806 34.3854,124.810806 37.6834,124.642806 C42.1814,124.413806 46.6494,123.696806 51.1404,123.355806 C53.4024,123.184806 55.6694,123.037806 57.9354,122.875806 C58.3474,122.771806 58.7594,122.665806 59.1704,122.562806 C63.2074,121.564806 67.2954,120.684806 71.4474,120.332806 C71.9274,120.291806 72.4104,120.271806 72.8914,120.252806 C72.7884,119.801806 72.9674,119.322806 73.5624,119.231806 C78.1384,118.534806 81.7164,115.479806 85.7744,113.492806 C85.8004,113.451806 85.8094,113.409806 85.8414,113.369806 C87.9784,110.721806 90.5224,108.556806 91.8004,105.324806 C92.1984,104.318806 92.4964,103.292806 92.7314,102.253806 C92.9794,101.045806 93.1714,99.8248057 93.2944,98.5898057 C93.4014,97.3848057 93.4484,96.1708057 93.4524,94.9558057 C93.4534,94.6708057 93.5624,94.4598057 93.7164,94.3058057 C93.7024,93.9548057 93.6834,93.6028057 93.6714,93.2508057 C93.4804,91.9148057 93.2814,90.5778057 93.2594,89.2268057 C93.0834,86.8308057 93.0674,84.4168057 92.7164,82.0358057 C92.6834,81.8128057 92.7364,81.6228057 92.8184,81.4528057 C92.4734,78.1908057 92.0504,74.9368057 91.9124,71.6578057 C91.9014,71.4088057 91.9844,71.2238057 92.1034,71.0748057 C91.7204,68.6628057 91.0214,66.2928057 91.1414,63.8278057 C91.1504,63.6368057 91.2284,63.4678057 91.3354,63.3208057 C91.3234,63.2158057 91.3104,63.1108057 91.2974,63.0058057 C91.2514,62.9278057 91.2034,62.8488057 91.1764,62.7478057 C90.8074,61.3448057 90.7574,59.9228057 90.7564,58.4798057 C90.7554,57.9618057 91.0504,57.6778057 91.4104,57.5898057 C92.1294,56.4558057 93.4334,55.8748057 94.4694,55.1048057 C94.4574,54.8878057 94.4364,54.6688057 94.4174,54.4508057 C95.5854,53.6198057 96.7404,52.7418057 97.8114,51.7848057 C101.5134,49.0058057 105.1584,46.1768057 108.1464,42.6208057 C108.3244,42.4888057 108.5054,42.3598057 108.6824,42.2278057 C109.3564,41.7228057 110.0704,41.2888057 110.2774,40.4278057 C110.4204,40.9118057 111.0064,41.1878057 111.4754,41.0598057 C112.0304,40.9068057 112.2764,40.3618057 112.1734,39.8298057" id="Fill-17" fill="#27A9E0"></path>
                <path d="M44.535,5.0320057 C44.522,5.3970057 44.32,5.7440057 43.86,5.8660057 C40.123,6.8610057 36.172,7.6800057 32.927,9.8950057 C32.383,10.2670057 31.865,9.9690057 31.641,9.5070057 C29.603,10.6280057 27.602,11.8170057 25.644,13.0780057 C25.236,13.3410057 25.127,13.7530057 25.207,14.1250057 C22.595,16.5620057 20.223,19.2410057 18.134,22.1440057 C18.053,22.2570057 18.011,22.3860057 17.997,22.5200057 C15.723,25.2750057 13.587,28.1450057 11.638,31.1400057 C11.115,31.9440057 10.574,32.7670057 10.042,33.6070057 C9.982,33.6720057 9.918,33.7260057 9.871,33.8190057 C9.819,33.9190057 9.772,34.0220057 9.722,34.1230057 C8.384,36.2770057 7.148,38.5470057 6.497,40.9470057 C6.292,40.9500057 6.09,40.9860057 5.892,41.0380057 C5.45,42.0140057 4.981,42.9790057 4.458,43.9130057 C3.326,46.7490057 1.471,49.2670057 0.437,52.1640057 C0.348,52.4150057 0.187,52.5750057 3.55271368e-15,52.6770057 C0.182,53.7180057 0.583,54.7050057 1.092,55.6510057 C0.897,55.8660057 0.788,56.1590057 0.884,56.5250057 C2.139,61.3090057 6.431,64.0880057 9.601,67.5320057 C9.833,67.7830057 10.107,67.8520057 10.37,67.8200057 C10.543,68.1290057 10.71,68.4410057 10.862,68.7620057 C11.527,69.1940057 12.199,69.6120057 12.929,69.9310057 C13.449,70.1590057 13.787,70.6070057 13.968,71.1230057 C14.304,71.3040057 14.638,71.4890057 14.995,71.6410057 C15.434,71.8270057 15.89,71.9330057 16.333,71.9350057 C16.35,71.9490057 16.364,71.9660057 16.382,71.9790057 C17.112,72.5140057 18.085,72.7860057 18.988,72.7260057 C19.311,72.7040057 19.573,72.5910057 19.773,72.3320057 C19.977,72.0670057 20.013,71.7840057 19.952,71.4600057 C19.924,71.3070057 19.875,71.1580057 19.828,71.0100057 C19.889,70.5330057 19.802,70.0380057 19.541,69.6220057 C19.327,69.2810057 19.014,68.9970057 18.655,68.8100057 C18.551,68.4070057 18.347,68.0260057 18.024,67.7140057 C15.335,65.1120057 12.577,62.5620057 9.975,59.8700057 C9.872,59.7630057 9.773,59.6550057 9.671,59.5480057 C9.624,59.4830057 9.574,59.4190057 9.527,59.3540057 C7.587,55.3090057 7.128,50.6820057 8.218,46.3290057 C8.473,46.2420057 8.683,46.0380057 8.753,45.6740057 C10.665,35.5940057 17.262,27.4240057 23.616,19.7080057 C23.718,19.5850057 23.773,19.4560057 23.81,19.3250057 C24.025,19.3170057 24.245,19.2380057 24.439,19.0280057 C27.122,16.1290057 30.022,13.4410057 33.112,10.9790057 C37.127,8.7940057 41.285,6.8770057 45.567,5.2610057 C45.994,5.1000057 46.179,4.7510057 46.211,4.3900057 C45.65,4.5980057 45.092,4.8140057 44.535,5.0320057" id="Fill-19" fill="#1C75BB"></path>
                <path d="M53.1562,117.048606 C50.5172,116.797606 47.9952,117.698606 45.5002,118.414606 C43.5202,118.982606 41.3932,119.425606 39.6882,118.503606 C39.2672,118.274606 38.7922,118.211606 38.3432,118.285606 C34.4492,117.041606 30.9752,114.782606 28.2492,111.689606 C24.6862,107.649606 23.1842,102.437606 22.0382,97.2886057 C21.9522,96.9006057 21.7802,96.6076057 21.5652,96.3816057 C20.2802,81.9856057 26.1712,67.9096057 29.8702,54.2256057 C31.0402,49.8956057 31.9802,45.5266057 32.5762,41.0786057 C32.6182,40.7616057 32.5372,40.4606057 32.3882,40.1886057 C32.6472,38.8996057 32.6302,37.5636057 32.3072,36.2846057 C32.2052,35.8766057 31.7722,35.5316057 31.3432,35.5498564 C30.8642,35.5716057 30.5542,35.8566057 30.3792,36.2846057 C29.9382,37.3606057 29.5862,38.4666057 29.2782,39.5876057 C28.8902,39.9586057 28.6542,40.4926057 28.5762,41.0786057 C27.0022,52.8306057 22.5232,63.9126057 19.7322,75.3796057 C19.7812,75.5756057 19.8102,75.7756057 19.7932,75.9816057 C19.5982,78.3386057 18.9522,80.5666057 18.2282,82.7786057 C18.1992,82.9666057 18.1702,83.1556057 18.1412,83.3436057 C18.6632,84.5036057 18.2012,85.5506057 17.3532,86.1456057 C17.0882,86.9626057 16.7972,87.7696057 16.3762,88.5216057 C15.6952,91.0856057 15.7102,94.0916057 15.2242,96.6016057 C14.5582,100.042606 13.6292,103.436606 12.4492,106.737606 C12.3572,107.282606 12.2602,107.827606 12.1502,108.368606 C11.7662,110.269606 11.2562,112.163606 10.4902,113.948606 C10.3032,114.383606 10.1412,114.812606 10.0212,115.247606 C10.1962,115.480606 10.3612,115.718606 10.5182,115.961606 C10.6722,116.138606 10.8212,116.317606 10.9852,116.485606 C11.2092,116.713606 11.4412,116.933606 11.6802,117.145606 C11.8012,117.251606 11.9242,117.355606 12.0482,117.457606 C12.0812,117.485606 12.1042,117.503606 12.1312,117.524606 C13.2092,118.312606 14.3502,118.993606 15.5402,119.601606 C17.9692,120.843606 20.5292,121.810606 22.9482,123.074606 C23.0442,123.124606 23.1232,123.189606 23.2072,123.250606 C23.3772,123.295606 23.5482,123.335606 23.7182,123.380606 C28.9862,123.460606 34.3162,122.947606 39.5742,122.702606 C39.5752,122.702606 39.5762,122.701606 39.5762,122.701606 C41.5372,123.205606 43.6142,123.014606 45.6182,122.524606 C48.1372,121.908606 50.5322,120.798606 53.1562,121.048606 C54.2332,121.151606 55.1562,120.055606 55.1562,119.048606 C55.1562,117.881606 54.2362,117.151606 53.1562,117.048606" id="Fill-21" fill="#1C75BB"></path>
                <path d="M81.2577,116.004206 C81.9147,115.771206 82.5707,115.538206 83.2257,115.297206 C83.4017,115.233206 83.5747,115.166206 83.7497,115.100206 C84.7987,114.473206 85.8547,113.857206 86.9447,113.318206 C86.9707,113.278206 86.9797,113.236206 87.0117,113.196206 C88.0627,111.883206 89.2117,110.688206 90.2587,109.423206 C90.4157,109.092206 90.5637,108.756206 90.7017,108.419206 C91.0707,107.522206 91.3477,106.603206 91.5927,105.675206 C92.0927,105.481206 92.5287,105.128206 92.8317,104.620206 C93.3277,103.792206 93.3497,102.860206 93.4237,101.926206 C93.4537,101.552206 93.4847,101.177206 93.5147,100.803206 C93.7747,99.3902057 93.8957,97.9502057 93.8587,96.5152057 C93.8567,96.4592057 93.8437,96.4052057 93.8377,96.3502057 C93.9137,94.9702057 93.9037,93.5872057 93.8227,92.2092057 C93.9107,91.7452057 93.8447,91.3362057 93.6767,90.9912057 C93.6117,90.7832057 93.5277,90.5852057 93.4117,90.4092057 C93.4107,90.3502057 93.4137,90.2922057 93.4127,90.2332057 C93.4107,90.0962057 93.3937,89.9622057 93.3637,89.8322057 C93.5427,89.6712057 93.6707,89.4352057 93.6937,89.1192057 C93.8107,87.4552057 93.7847,85.7942057 93.6397,84.1422057 C93.7287,83.6652057 93.8207,83.1912057 93.9117,82.7162057 C93.8807,82.4472057 93.8587,82.1782057 93.8197,81.9102057 C93.7957,81.7502057 93.8107,81.6052057 93.8487,81.4712057 C93.7417,80.7002057 93.6317,79.9302057 93.5507,79.1562057 C93.3617,78.9962057 93.1477,78.8652057 92.9187,78.7732057 C92.8997,78.5202057 92.8807,78.2682057 92.8617,78.0152057 C92.9277,77.1122057 92.8627,76.2042057 92.6487,75.2942057 C92.6317,73.0042057 92.4807,70.7192057 92.1697,68.4392057 C91.9967,67.1692057 90.0697,67.7102057 90.2407,68.9702057 C90.7197,72.4852057 90.7887,76.0412057 90.5127,79.5762057 C90.4487,79.7152057 90.3977,79.8672057 90.3627,80.0392057 C88.8707,87.5252057 87.7997,95.3012057 85.2307,102.514206 C83.1017,108.491206 79.3937,114.100206 73.5107,116.881206 C72.2387,117.482206 72.2737,118.782206 72.9407,119.662206 C74.1837,118.733206 75.7337,118.104206 77.0777,117.556206 C78.4537,116.994206 79.8577,116.501206 81.2577,116.004206" id="Fill-23" fill="#1C75BB"></path>
                <path d="M94.5546,9.5100057 C92.8606,9.2020057 91.1656,8.8820057 89.4716,8.5610057 C89.3916,8.4040057 89.2696,8.2600057 89.0496,8.1640057 C88.8236,8.0660057 88.5966,7.9680057 88.3706,7.8690057 C88.3676,7.4910057 88.1606,7.1170057 87.6716,6.9550057 C86.6956,6.6330057 85.7186,6.3100057 84.7416,5.9880057 C84.7406,5.9100057 84.7206,5.8360057 84.7016,5.7610057 C84.7346,5.7550057 84.7716,5.7590057 84.8016,5.7510057 C85.8806,6.1560057 87.0236,6.4150057 88.1696,6.6700057 C87.4606,6.3650057 86.7496,6.0640057 86.0326,5.7820057 C85.4526,5.5550057 84.8656,5.3610057 84.2776,5.1680057 C84.1606,5.0950057 84.0246,5.0460057 83.8636,5.0230057 C78.4766,3.3270057 72.7536,2.8650057 67.3426,1.2470057 C66.9146,1.2350057 66.4856,1.2360057 66.0506,1.2660057 C66.0456,1.2670057 66.0416,1.2690057 66.0376,1.2700057 C65.3126,1.2430057 64.5846,1.2490057 63.8586,1.2550057 C63.1536,1.0140057 62.4446,0.795005698 61.7046,0.753005698 C61.6956,0.788005698 61.6836,0.824005698 61.6726,0.860005698 C61.6686,0.873005698 61.6646,0.886005698 61.6606,0.900005698 C61.5646,0.421005698 61.2376,-0.0239943019 60.6886,0.00100569811 C60.2046,0.0220056981 59.6166,0.445005698 59.6886,1.0010057 C59.7306,1.3190057 59.7476,1.6390057 59.7376,1.9600057 C59.7316,2.1130057 59.7156,2.2630057 59.7026,2.4150057 C59.7016,2.4250057 59.7026,2.4200057 59.7026,2.4250057 C59.7006,2.4370057 59.6996,2.4390057 59.6946,2.4670057 C59.6766,2.5560057 59.6616,2.6460057 59.6426,2.7360057 C59.5776,3.0340057 59.4916,3.3280057 59.3836,3.6140057 C59.3786,3.6270057 59.3456,3.7100057 59.3286,3.7520057 C59.3086,3.7960057 59.2756,3.8690057 59.2706,3.8810057 C59.1976,4.0330057 59.1186,4.1820057 59.0346,4.3280057 C58.9586,4.4610057 58.8786,4.5910057 58.7926,4.7180057 C58.7496,4.7810057 58.7046,4.8430057 58.6616,4.9060057 C58.6446,4.9320057 58.6456,4.9310057 58.6356,4.9460057 C58.6306,4.9500057 58.6346,4.9440057 58.6226,4.9590057 C58.4216,5.2080057 58.2026,5.4440057 57.9666,5.6600057 C57.8666,5.7520057 57.7616,5.8400057 57.6556,5.9250057 C57.6276,5.9440057 57.5776,5.9810057 57.5636,5.9900057 C57.5006,6.0340057 57.4386,6.0770057 57.3736,6.1180057 C57.2336,6.2090057 57.0876,6.2930057 56.9396,6.3710057 C56.8716,6.4070057 56.8036,6.4420057 56.7356,6.4740057 C56.6976,6.4920057 56.4516,6.5940057 56.6376,6.5200057 C56.1366,6.7220057 55.7836,7.1860057 55.9386,7.7490057 C56.0526,8.1620057 56.5186,8.5390057 56.9686,8.4960057 C57.1806,8.7940057 57.5396,8.9800057 57.9986,8.8570057 C63.9956,7.2420057 70.0446,7.2940057 76.1486,8.2350057 C82.1276,9.1560057 88.0716,10.3560057 94.0226,11.4390057 C95.2816,11.6680057 95.8216,9.7400057 94.5546,9.5100057" id="Fill-25" fill="#1C75BB"></path>
                <path d="M103.6884,19.3870057 C104.1434,20.3180057 104.5094,21.2530057 104.7984,22.2150057 C104.8514,22.0480057 104.9074,21.8830057 104.9594,21.7160057 C104.4754,20.4860057 103.9564,19.2710057 103.3674,18.0880057 C103.2684,18.3640057 103.1644,18.6380057 103.0644,18.9140057 C103.3094,18.9480057 103.5404,19.0840057 103.6884,19.3870057" id="Fill-27" fill="#1C75BB"></path>
                <path d="M110.744,39.1048057 C109.807,38.1678057 108.14,38.1208057 107.209,39.1048057 C106.276,40.0898057 105.292,41.0428057 104.292,41.9728057 C103.583,42.5498057 102.85,43.0918057 102.056,43.6128057 C101.563,43.9368057 101.056,44.2368057 100.551,44.5408057 C100.37,44.5448057 100.186,44.5648057 100.001,44.6068057 C99.914,44.6268057 99.826,44.6378057 99.739,44.6548057 C99.306,44.6928057 98.872,44.6898057 98.439,44.6528057 C97.979,44.5668057 97.53,44.4408057 97.093,44.2778057 C96.693,44.0858057 96.313,43.8638057 95.95,43.6098057 C95.648,43.3528057 95.367,43.0748057 95.108,42.7738057 C95.002,42.6218057 94.89,42.4728057 94.795,42.3118057 C94.611,42.0028057 94.352,41.7468057 94.055,41.5428057 C94.006,41.4948057 93.956,41.4498057 93.916,41.3818057 C93.671,40.9638057 93.485,40.5188057 93.302,40.0738057 C91.86,38.6928057 91.482,35.4288057 91.331,33.6768057 C91.177,31.8898057 88.692,31.8718057 88.848,33.6768057 C89.069,36.2438057 89.429,39.0408057 90.813,41.0638057 C90.625,41.2918057 90.513,41.5978057 90.552,41.9808057 C90.559,42.0608057 90.567,42.1408057 90.576,42.2208057 C90.073,42.9888057 89.97,43.9818057 90.477,44.8348057 C90.612,45.0608057 90.755,45.2778057 90.905,45.4898057 C91.102,47.4458057 91.3,49.4018057 91.497,51.3588057 C91.476,51.3798057 91.453,51.3968057 91.432,51.4178057 C90.497,52.4438057 90.047,53.9538057 90.504,55.2958057 C90.907,56.4828057 91.973,57.2578057 93.246,57.0868057 C93.636,57.0348057 93.963,56.9028057 94.244,56.7208057 C94.358,56.7198057 94.474,56.7088057 94.59,56.6788057 C95.005,56.4108057 95.418,56.1468057 95.783,55.8488057 C96.099,55.5898057 96.509,55.5008057 96.864,55.6618057 C97.313,54.8128057 97.694,53.9338057 98.039,53.0388057 C98.105,52.9978057 98.174,52.9588057 98.24,52.9178057 C99.744,51.9668057 101.206,50.9528057 102.623,49.8758057 C104.35,48.5638057 106.008,47.1728057 107.602,45.7108057 C108.731,44.7818057 109.795,43.7748057 110.744,42.6408057 C111.61,41.6058057 111.759,40.1188057 110.744,39.1048057" id="Fill-29" fill="#1C75BB"></path>
                <path d="M89.8661,152.855706 C89.4391,148.652706 88.1391,144.290706 89.1141,140.070706 C89.1211,140.040706 89.1341,140.017706 89.1411,139.987706 C89.0391,139.010706 88.9291,138.033706 88.8301,137.052706 C88.4451,133.241706 88.3661,129.405706 88.2391,125.578706 C88.1391,122.596706 87.6561,119.787706 87.2301,116.844706 C86.9951,115.225706 86.7471,113.489706 86.7771,111.788706 C86.3531,111.962706 85.9291,112.128706 85.5301,112.277706 C85.1811,112.406706 84.8291,112.525706 84.4791,112.653706 C82.6921,114.013706 80.8221,115.243706 78.7761,116.193706 C73.6611,118.568706 67.9451,120.545706 62.2841,120.601706 C62.0501,120.935706 61.7271,121.185706 61.3311,121.246706 C54.0851,122.362706 46.8071,121.850706 39.5161,121.995706 C33.4061,122.117706 27.2651,123.566706 21.5001,121.201706 C21.2631,121.218706 21.0271,121.240706 20.7901,121.256706 C20.5921,121.270706 20.4081,121.305706 20.2271,121.344706 C19.3191,120.424706 17.8601,120.195706 16.6611,120.652706 C16.0851,125.489706 15.2811,130.289706 14.4361,135.082706 C14.4121,136.132706 14.3981,137.183706 14.3721,138.232706 C14.2251,138.517706 14.1011,138.832706 14.0331,139.212706 C13.4271,142.629706 12.6871,146.130706 11.9401,149.678706 C11.3941,153.243706 10.9241,156.820706 10.6161,160.423706 C10.5541,161.137706 10.1991,161.632706 9.7381,161.939706 C9.7221,163.249706 9.4691,164.628706 9.3631,165.358706 C9.1271,167.000706 8.8011,168.626706 8.4771,170.252706 C8.1841,173.624706 8.0891,176.978706 8.3101,180.283706 C8.0251,180.696706 7.7871,181.119706 7.5951,181.547706 C7.8341,182.556706 8.2301,183.504706 8.8471,184.343706 C11.5291,184.635706 14.1711,185.214706 16.8191,185.752706 C20.0171,186.400706 23.2401,186.636706 26.4821,186.921706 C29.5981,187.196706 32.7871,187.403706 35.8901,186.880706 C37.8811,186.544706 39.7911,185.882706 41.7401,185.414706 C42.0421,185.227706 42.3461,185.043706 42.6351,184.834706 C49.3871,179.915706 47.6171,170.385706 48.5041,162.888706 C49.5171,154.311706 52.0761,145.602706 54.8121,137.433706 C54.3081,140.852706 52.1791,144.590706 52.5451,148.346706 C53.0151,153.182706 53.5711,157.712706 53.6191,162.521706 C53.5101,163.334706 54.6011,164.416706 54.4921,165.229706 C54.3951,165.949706 54.3651,166.590706 54.5761,167.236706 C54.3241,169.055706 54.2521,170.896706 54.4021,172.732706 C53.1741,174.679706 54.0131,178.019706 56.9501,178.019706 C57.5221,178.019706 58.0071,177.882706 58.4211,177.663706 C58.5221,177.670706 58.6141,177.694706 58.7191,177.694706 C60.2101,177.694706 61.2181,178.629706 61.9701,177.197706 C62.0851,177.168706 62.8101,176.850706 62.9251,176.821706 C63.5071,177.077706 64.3351,176.863706 65.0721,176.695706 C69.7941,175.621706 75.1691,175.252706 79.6281,173.309706 C82.9811,171.847706 86.4051,167.907706 88.8311,164.933706 C89.6131,163.974706 90.1151,162.932706 90.4311,161.838706 C90.1801,158.856706 90.1701,155.848706 89.8661,152.855706" id="Fill-31" fill="#594A41"></path>
                <path d="M42.037,181.195106 C41.352,181.405106 40.663,181.600106 39.974,181.800106 C36.568,181.229106 33.136,181.419106 29.813,182.481106 C29.627,182.540106 29.464,182.621106 29.313,182.713106 C28.712,182.708106 28.11,182.692106 27.511,182.654106 C23.342,182.392106 20.157,180.644106 17.381,177.458106 C16.141,176.034106 14.915,174.533106 14.078,172.810106 C13.108,170.816106 13.131,168.642106 13.337,166.470106 C13.798,161.592106 14.54,156.728106 15.149,151.869106 C15.208,151.405106 15.052,150.968106 14.781,150.605106 C16.225,141.739106 22.017,134.832106 29.148,129.821106 C34.364,126.155106 40.198,123.499106 46.308,121.982106 C44.046,121.968106 41.782,121.951106 39.516,121.996106 C32.91,122.128106 26.267,123.813106 20.103,120.548106 C19.604,120.511106 19.104,120.475106 18.605,120.438106 C18.349,120.420106 18.097,120.472106 17.857,120.569106 C17.775,120.554106 17.692,120.543106 17.609,120.527106 C17.293,120.465106 16.977,120.470106 16.678,120.527106 L16.678,120.529106 C15.901,127.084106 14.705,133.572106 13.552,140.067106 C13.603,140.134106 13.644,140.210106 13.704,140.272106 C13.6,140.474106 13.508,140.681106 13.408,140.885106 C12.263,147.365106 11.177,153.854106 10.616,160.424106 C10.555,161.138106 10.199,161.636106 9.737,161.944106 C9.723,163.252106 9.469,164.630106 9.363,165.359106 C9.248,166.162106 9.107,166.960106 8.959,167.757106 C8.956,167.822106 8.95,167.888106 8.947,167.954106 C8.924,168.564106 8.939,169.155106 8.986,169.731106 C8.726,170.107106 8.559,170.569106 8.507,171.066106 L7.612,179.480106 C7.562,179.944106 7.515,180.409106 7.464,180.873106 C7.673,182.134106 8.095,183.320106 8.848,184.344106 C11.529,184.635106 14.171,185.215106 16.819,185.753106 C20.017,186.401106 23.24,186.637106 26.482,186.922106 C29.599,187.196106 32.787,187.404106 35.891,186.881106 C38.234,186.486106 40.468,185.643106 42.784,185.194106 C43.382,184.740106 43.984,184.293106 44.618,183.898106 C44.925,182.435106 43.838,180.643106 42.037,181.195106" id="Fill-33" fill="#3B2314"></path>
                <path d="M89.6796,170.346906 C89.8246,169.090906 89.9416,167.831906 89.9456,166.560906 C89.9476,165.858906 90.2956,165.273906 90.8096,164.928906 C90.6206,163.768906 90.4916,162.602906 90.4016,161.432906 C89.2886,161.348906 88.1506,162.027906 88.1876,163.514906 C88.2756,167.024906 84.7816,169.087906 82.0306,170.212906 C78.0896,171.823906 73.8176,172.899906 69.7266,174.022906 C66.4496,174.921906 62.3826,175.686906 59.4466,173.369906 C58.4416,172.575906 57.8526,171.526906 57.5146,170.360906 L57.8026,167.914906 C57.8746,167.301906 57.5776,166.700906 57.1266,166.269906 C57.1586,165.339906 57.2366,164.424906 57.3026,163.578906 C57.5266,160.730906 53.2426,160.651906 53.0206,163.488906 C52.8386,165.796906 52.7616,168.257906 53.2006,170.546906 L52.8096,173.869906 C52.6036,175.616906 52.2016,177.445906 52.3966,179.206906 C52.4946,180.093906 52.8216,180.900906 53.3146,181.544906 C53.6086,181.113906 54.0886,180.828906 54.7716,180.881906 C57.6576,181.103906 60.5216,180.739906 63.3546,180.188906 C63.3846,180.106906 63.4306,180.033906 63.4506,179.946906 C63.6516,179.754906 63.8166,179.524906 63.9316,179.270906 C65.9026,179.337906 67.9126,179.052906 69.8176,178.577906 C72.4116,177.931906 74.9666,177.089906 77.5296,176.322906 C79.9546,175.595906 82.3836,174.885906 84.7016,173.835906 C86.5016,173.019906 88.2766,171.838906 89.6796,170.346906" id="Fill-35" fill="#3B2314"></path>
            </g>
            <g id="outline" transform="translate(0.000000, 0.526000)">
                <mask id="mask-2" fill="white">
                    <use xlink:href="#path-1"></use>
                </mask>
                <g id="Clip-38"></g>
                <path d="M62.3837,10.5116 C61.9527,10.5946 61.5507,11.1156 61.5567,11.6336 C61.6097,14.7266 59.5197,18.1806 56.7927,18.9066 C56.6927,18.9336 56.5917,18.9566 56.4917,18.9756 C55.1837,19.2286 53.9677,18.8396 53.0307,18.0086 C52.9947,17.6266 52.7897,17.3206 52.4437,17.2746 L52.3407,17.2606 C51.8557,16.6016 51.5107,15.7956 51.3507,14.8846 C51.2787,14.4496 51.0057,14.2946 50.7037,14.3266 C50.5697,14.2286 50.3877,14.1626 50.2167,14.1956 L50.1957,14.1996 C50.0187,14.2426 49.8497,14.3446 49.7017,14.5036 C49.5807,14.4156 49.4417,14.3616 49.2827,14.3916 C49.2687,14.3946 49.2527,14.3986 49.2377,14.4026 C46.6817,15.1206 44.1387,16.0356 41.6327,17.1506 C41.5517,17.1836 41.4917,17.2466 41.4267,17.3116 C38.2357,18.5076 35.0587,19.8466 31.9987,21.6476 C26.2337,25.0346 21.1717,30.0576 16.8237,35.8326 C12.4757,41.6156 8.8247,48.0516 5.4177,54.5526 C4.5687,56.1686 3.7397,57.7806 2.9127,59.4096 C2.0847,61.0386 0.9617,62.8026 0.7887,64.6426 C0.6617,65.9206 0.9987,67.0046 1.5197,67.9496 C1.6447,68.0126 1.7627,68.0846 1.8797,68.1656 C2.2317,69.2636 2.6787,70.3186 3.1557,71.2726 C3.3467,71.6586 3.5597,72.0236 3.7647,72.3996 C0.5217,89.8616 6.4507,105.1206 12.5977,118.7896 C12.7367,119.0996 12.9567,119.1876 13.1937,119.1506 C12.5777,121.2486 11.8447,123.3176 10.9357,125.3246 C10.5367,125.5746 10.2347,126.0996 10.4177,126.5926 C10.3207,127.1116 10.6297,127.4676 11.0127,127.5316 C12.5987,129.8266 14.5917,131.4816 16.8277,132.6826 C16.6877,132.8656 16.5987,133.0986 16.6057,133.3826 C16.7147,138.0116 15.7857,142.7546 15.0407,147.4356 C14.3107,152.0276 13.5717,156.6296 12.8427,161.2216 C11.3667,170.4956 9.8847,179.7706 8.4087,189.0526 C8.3637,189.3206 8.4147,189.5346 8.5107,189.6986 C8.0287,191.2256 7.9077,192.7616 8.5177,194.2606 C9.4477,196.5696 11.5007,197.5816 13.5987,198.0236 C14.2977,198.1736 14.9977,198.2896 15.7117,198.3936 C15.5337,210.5536 15.3647,222.7116 15.1957,234.8706 L15.3127,234.8226 C15.5447,240.7056 15.7777,246.5906 16.0087,252.4736 C16.0167,252.6456 16.0527,252.7776 16.1117,252.8866 C16.1237,253.8176 16.1147,254.7436 16.0467,255.6906 C15.7677,259.5306 14.0457,262.6286 11.7647,265.6016 C8.1917,270.2766 3.4397,275.5246 4.5697,281.6066 C3.6797,285.0796 4.5707,288.5376 6.5187,290.7806 C8.7087,293.2916 12.1027,293.7866 15.3677,293.1556 C15.9587,293.0416 16.5457,292.8906 17.1197,292.7076 C24.3267,290.4166 30.6877,283.6736 34.1937,275.6676 C36.1747,271.1536 37.2377,266.2636 37.1277,261.5486 C37.1117,260.9396 36.6977,260.7106 36.2897,260.7896 C36.1967,260.8076 36.1057,260.8416 36.0177,260.8906 C36.0477,260.6256 36.0847,260.3586 36.0997,260.0966 C36.2887,257.3716 35.9407,254.7606 35.7467,252.1266 C35.6387,250.6356 35.5747,249.1356 35.5407,247.6296 L35.4387,247.6926 C35.8107,241.7346 36.2407,235.7656 36.7377,229.7926 L36.7817,229.8096 C37.6857,219.4896 39.0517,209.1476 40.8907,198.8186 C40.9127,198.6676 40.9127,198.5376 40.8907,198.4126 C42.5407,198.0246 44.1927,197.4466 45.6747,196.3036 C50.2177,192.8076 49.5977,185.7286 50.1147,180.6936 C50.7597,174.3976 51.9207,168.0806 53.5157,161.8436 C55.2177,169.4136 53.7357,178.0056 53.8907,186.0396 C53.9237,187.8226 53.7937,190.1986 54.5867,191.6526 C55.3947,193.1306 57.1177,192.6766 58.5257,192.5336 C59.0707,192.4806 59.6087,192.4196 60.1537,192.3666 C60.1087,192.4786 60.0857,192.6126 60.0857,192.7506 C60.2627,208.6106 59.8577,224.5836 58.8697,240.6246 C58.6047,244.8596 58.2947,249.1016 57.9557,253.3426 C57.9107,253.4366 57.8667,253.5326 57.8517,253.6566 C57.5467,255.6076 57.2627,257.6076 57.1127,259.5806 C53.7827,267.4836 56.7797,275.6946 61.8397,279.6866 C64.6257,281.8796 67.9017,283.1226 71.2867,283.9546 C73.7967,284.5626 76.6037,285.2696 79.3597,284.7376 C80.3307,284.5496 81.2957,284.2076 82.2387,283.6546 C85.5937,281.6756 88.2377,277.6636 88.7757,273.4286 C88.8137,273.0846 88.7177,272.8266 88.5637,272.6486 C89.4387,269.1606 88.8567,265.3586 87.4997,262.5096 C84.9327,257.0936 80.4107,252.9886 75.7387,250.1826 C75.9287,247.3286 76.6777,240.8496 76.7517,240.1436 C77.2087,235.9416 77.6657,231.7476 78.1307,227.5526 C79.0367,219.2446 79.9657,210.9326 80.9087,202.6166 C81.4557,197.7836 82.0097,192.9486 82.5637,188.1146 C82.5707,188.0176 82.5567,187.9516 82.5497,187.8666 C85.4747,186.8526 89.0707,185.6566 91.3007,182.8486 C93.9647,179.4816 92.8107,174.7876 92.5077,171.1986 C92.1117,166.4876 91.7747,161.7556 91.4957,157.0126 C90.8667,146.2866 90.5567,135.4666 90.5467,124.5866 C90.5477,124.2056 90.3857,123.9866 90.1647,123.8826 C91.6117,122.4886 92.8737,120.8006 93.8277,118.7326 C95.9047,114.2866 96.3207,109.2536 96.2767,104.6466 C96.2707,103.9656 96.2567,103.2766 96.2367,102.5976 C96.3247,102.5116 96.3987,102.4106 96.4657,102.2766 C103.5617,88.1406 108.5897,72.8916 111.2337,57.4716 C111.2707,57.2576 111.2407,57.0816 111.1827,56.9286 C112.1707,56.1236 113.4247,55.3026 114.1557,54.2026 C114.9237,53.0426 114.5797,51.9166 114.2497,50.8396 C114.0157,50.0806 113.7887,49.3296 113.5547,48.5796 C113.5847,48.4266 113.5997,48.2686 113.5637,48.1026 C112.6797,43.7616 111.4807,39.5856 109.9627,35.6096 C109.2447,33.7346 108.4747,31.8946 107.6157,30.1246 C107.1247,29.0956 106.5817,28.1376 105.8617,27.3866 C105.9647,27.3416 106.0747,27.2856 106.1787,27.2476 C104.8997,26.2416 103.3827,25.5926 102.1327,24.5206 L102.1847,24.3726 C95.7137,19.4086 88.0007,16.4046 80.2937,14.2886 C74.4937,12.6956 68.5457,11.5886 62.5967,10.5086 C62.5267,10.4956 62.4547,10.4998885 62.3837,10.5116 M56.4657,20.8976 C56.6657,20.8596 56.8667,20.8086 57.0697,20.7456 C60.1787,19.7906 62.6667,16.2416 63.1157,12.6206 C71.9727,14.2286 80.8507,15.9446 89.1297,19.3406 C93.1117,20.9826 96.9507,23.0236 100.4587,25.6216 C101.3417,26.5406 102.4227,27.1356 103.4747,27.7706 C103.5187,27.9776 103.6207,28.1656 103.8267,28.2726 C105.1657,28.9816 105.8487,30.5876 106.5297,32.0546 C107.3517,33.8236 108.1077,35.6396 108.7877,37.5126 C109.7917,40.2486 110.6337,43.0766 111.3357,45.9836 C111.1727,46.2216 111.0917,46.5226 111.1947,46.8486 C111.6047,48.1696 112.0067,49.4916 112.4167,50.8136 C112.5847,51.3856 112.8937,51.9916 112.9577,52.6016 C113.0377,53.3556 112.4047,53.6846 111.9247,54.0886 C109.6827,55.9996 107.4397,57.9106 105.1967,59.8136 C101.5537,62.9116 97.7837,66.1286 93.6207,67.6156 C93.3907,64.7046 93.1677,61.7916 92.9447,58.8786 C92.8417,58.5536 92.7697,58.2036 92.7697,57.8326 C92.7707,57.4266 92.7857,57.0166 92.8017,56.6166 C92.6847,56.1896 92.6337,55.7156 92.6717,55.2326 L91.6217,41.6066 C91.5777,41.0036 91.1437,40.7786 90.7327,40.8586 C90.3237,40.9366 89.9397,41.3156 89.9867,41.9226 C90.6617,50.7026 91.3307,59.4846 92.0067,68.2646 C91.4827,68.7806 91.5177,69.8376 92.1357,69.9336 C92.3947,73.3846 92.6607,76.8326 92.9267,80.2826 C93.4087,86.6276 93.9117,92.9696 94.3867,99.3166 C94.7247,103.9186 94.9287,108.7366 93.9037,113.5066 C92.7967,118.6556 90.0207,122.7696 85.8107,125.0526 C83.5327,126.2866 81.1597,127.0216 78.8097,127.7186 C76.1127,128.5246 73.4157,129.2526 70.7117,129.8966 C68.4497,130.4416 66.1857,130.9326 63.9217,131.3696 C55.3017,133.0346 46.6857,133.9166 38.1757,133.9866 C29.2787,134.0626 17.9007,134.3596 12.3187,126.1036 C14.2787,121.8186 15.4647,117.2506 16.4017,112.6796 C17.4487,107.5766 18.3577,102.4576 19.4487,97.3456 C19.9697,94.9116 20.5327,92.4866 21.1057,90.0596 C21.3077,88.1276 21.7307,86.2146 22.4627,84.4386 C24.0137,78.1936 25.6967,71.9736 27.5427,65.7836 C29.3137,59.8576 31.2167,53.9676 33.2537,48.1116 C33.5427,47.2906 32.9677,46.6976 32.4427,46.7986 C32.2027,46.8456 31.9727,47.0366 31.8407,47.4166 C28.2787,57.6636 25.1007,68.0176 22.3417,78.4646 C21.8157,80.4586 21.3187,82.4476 20.8277,84.4346 C20.1437,84.2906 19.4957,84.0446 18.8627,83.7426 C18.8417,83.4876 18.7387,83.2486 18.5107,83.1116 C15.0387,80.9466 11.5677,78.7046 8.6267,75.6866 C7.2227,74.2376 5.9587,72.6146 4.9397,70.7466 C3.8087,68.6576 2.7087,66.0696 2.9197,63.3146 C2.9357,63.2076 2.9127,63.1346 2.8987,63.0506 C3.0987,62.5456 3.3497,62.0306 3.6227,61.4936 C4.3847,59.9806 5.1457,58.4856 5.9217,56.9876 C11.9457,45.3486 18.8617,33.2866 28.8317,25.8036 C32.0467,23.3926 35.4967,21.6466 38.9757,20.2046 C40.6997,19.4916 42.4397,18.8536 44.1787,18.2236 C44.3927,18.1476 44.6577,18.0356 44.9527,17.9096 L44.9527,17.7456 C46.3747,17.2026 47.7977,16.7286 49.2347,16.3216 L49.4037,16.2456 C49.5637,17.5376 50.3127,18.5946 51.3207,19.0216 C52.6027,20.5086 54.4867,21.2806 56.4657,20.8976 M13.7787,117.0146 C8.1317,104.4066 2.6557,90.3226 5.0497,74.3896 C5.6667,75.2466 6.3357,76.0596 7.0407,76.8226 C9.6877,79.6646 12.8057,81.8366 15.9767,83.8596 C15.9397,83.9626 15.9167,84.0616 15.8797,84.1726 C17.2337,85.1986 18.7117,86.0106 20.3537,86.3596 C18.4757,94.1896 16.8407,102.0416 15.3307,109.9216 C14.8777,112.2906 14.3797,114.6686 13.7787,117.0146 M96.0947,99.4616 C95.8447,95.1976 95.4037,90.9696 95.0797,86.7456 L93.7567,69.4906 C98.5837,67.7626 102.8697,63.9966 107.0817,60.4086 L109.4487,58.3956 C106.9187,72.5136 102.4017,86.4206 96.0947,99.4616 M39.3407,196.8416 C37.6507,197.1686 35.9547,197.3466 34.2867,197.4666 C29.0497,197.8396 23.9177,197.3526 18.8447,196.7416 C16.4297,196.4566 13.5137,196.5186 11.4907,195.0606 C10.5567,194.3856 9.7787,193.2826 9.7067,191.8696 C9.6717,191.0906 9.8797,190.3156 10.1757,189.5586 C10.1407,188.4246 10.2827,187.2726 10.5867,186.1346 L10.4837,186.1276 C11.8247,177.7366 13.1587,169.3456 14.4997,160.9446 C15.2447,156.2726 15.9897,151.5906 16.7357,146.9176 C17.4507,142.4066 18.3067,137.8336 18.2477,133.3676 C22.7737,135.3546 28.1047,135.7506 33.0537,135.8836 C43.2547,136.1536 53.6347,135.2786 64.0117,133.2736 C64.9227,133.0976 65.8327,132.9126 66.7437,132.7196 C72.1447,131.5726 77.6487,130.2766 82.9907,128.2756 C85.0767,127.5016 87.1047,126.4356 88.9107,124.9886 C88.9167,133.9506 89.1287,142.8636 89.5617,151.7246 C89.7667,156.0936 90.0307,160.4416 90.3477,164.7796 C90.5047,167.0306 90.6847,169.2686 90.8717,171.5146 C91.0447,173.5376 91.3437,175.5636 91.3548259,177.6356 C91.3647,179.6036 90.7797,181.2986 89.2827,182.5816 C87.9337,183.7326 86.3337,184.3876 84.8377,185.0226 C81.2337,186.5566 77.5647,187.6286 73.8957,188.4236 C73.3477,188.5406 72.7987,188.6526 72.2507,188.7586 C69.1007,189.3666 65.9507,189.7956 62.8007,190.1606 C60.9297,190.3666 59.0437,190.6276 57.1737,190.7466 C56.2377,190.8146 55.8697,190.4196 55.7327,189.3656 C55.5947,188.3286 55.5677,187.2286 55.5397,186.1536 C55.3057,177.2186 57.1207,167.6196 54.6547,159.3676 C55.3977,155.6886 56.3467,152.0316 57.5177,148.4346 C57.6797,147.9276 57.3347,147.4146 56.9447,147.3606 C56.8697,147.3516 56.7977,147.3546 56.7287,147.3676 C56.3647,147.4376 56.0767,147.7966 55.9347,148.2306 C55.0157,151.0696 54.2297,153.9436 53.5697,156.8376 C53.3477,156.9576 53.1417,157.1786 53.0367,157.5366 C51.3547,163.3846 50.0547,169.3136 49.1897,175.2626 C48.7567,178.2416 48.4197,181.2276 48.1937,184.2016 C47.9967,186.7116 48.0437,189.4506 47.0377,191.9096 C45.9647,194.5106 43.7827,195.6926 41.6317,196.2986 C40.8707,196.5156 40.1067,196.6936 39.3407,196.8416 M17.5957,250.8546 C17.3567,244.8506 17.1167,238.8556 16.8847,232.8496 L16.8557,232.7346 C17.0167,221.3556 17.1777,209.9856 17.3387,198.6066 C18.8407,198.7826 20.3577,198.9136 21.8527,199.0656 C24.6647,199.3436 27.4997,199.5386 30.3577,199.5316 C33.1497,199.5186 35.9627,199.3296 38.7907,198.8356 C38.9527,198.8126 39.1227,198.7796 39.2847,198.7486 C37.5727,208.4136 36.2877,218.0906 35.3797,227.7476 C35.3127,227.8896 35.2607,228.0386 35.2457,228.2146 C34.5837,235.9906 34.0247,243.7566 33.5747,251.5096 C33.5447,252.0256 33.8097,252.2596 34.1337,252.2826 C34.4137,255.6256 34.7907,258.9836 34.2247,262.4376 C33.5547,266.4996 31.9347,270.3906 30.1597,274.1216 C29.7827,274.9036 29.4057,275.7196 29.0147,276.5386 C28.9637,276.1246 28.7137,275.7756 28.2497,275.8216 C27.5157,275.9076 26.7807,276.0216 26.0467,276.1636 C21.9267,276.9596 17.8277,278.6316 13.9597,281.0796 C13.8727,276.6196 13.2917,272.2896 12.2017,268.2136 C12.1647,268.0656 12.1067,267.9556 12.0327,267.8746 C12.4757,267.3226 12.9037,266.7726 13.3027,266.2376 C15.4657,263.3396 17.1287,260.2096 17.5707,256.5376 C17.8017,254.5996 17.7537,252.7076 17.6537,250.8256 L17.5957,250.8546 M71.9637,190.7316 C74.9607,190.1526 77.9547,189.3996 80.9287,188.4136 C78.8317,206.6486 76.7947,224.8886 74.8317,243.1156 C74.5697,245.5176 74.1967,247.9666 74.0447,250.3546 C73.9047,250.6766 73.8747,251.0446 74.0137,251.3286 C74.0777,252.5346 74.5697,253.5986 75.7477,253.4396 C75.7637,253.4376 75.7787,253.4356 75.7927,253.4326 C76.0717,253.3786 76.2627,253.1906 76.3827,252.9546 C79.1697,254.8616 81.7137,257.2306 83.8147,260.0666 L83.7557,260.1556 C82.8167,262.4636 82.2807,264.8916 82.2257,267.3046 C82.2007,268.5196 82.3097,269.7176 82.5207,270.8686 C82.5567,271.0776 82.6527,271.3196 82.6517,271.5346 C82.6477,271.7026 82.6907,271.7316 82.6777,271.7336 C82.6677,271.7356 82.6297,271.7246 82.5267,271.7406 C82.1067,271.8136 81.5757,271.5876 81.1717,271.5356 C79.7197,271.3726 78.2367,271.4426 76.7557,271.7286 C74.1427,272.2336 71.5387,273.4106 69.1387,275.1656 C68.5487,275.5996 68.6427,276.3416 69.0257,276.6736 C66.3687,275.4586 63.8677,273.8156 61.8547,271.6726 C59.9947,269.6896 58.8727,267.0796 58.6427,263.9176 C58.5417,262.5366 58.5737,261.1306 58.6877,259.7176 L58.6877,259.7086 C58.8167,257.9906 59.0627,256.2576 59.3227,254.5296 C59.4187,254.3726 59.5007,254.1936 59.5157,253.9736 C60.8337,237.9036 61.5857,221.8726 61.7337,205.9586 C61.7787,201.4386 61.7727,196.9366 61.7217,192.4346 C61.7217,192.3486 61.6997,192.2746 61.6777,192.2016 C64.5797,191.8826 67.4827,191.5206 70.3927,191.0196 C70.9157,190.9286 71.4407,190.8326 71.9637,190.7316 M17.2527,287.2236 C16.0767,287.4506 14.9157,287.5326 13.8297,287.4746 C10.7007,287.3016 7.8027,285.7006 6.5637,282.3626 C6.4457,282.0216 6.3597,281.6926 6.2787,281.3716 C6.3297,281.2056 6.3817,281.0486 6.4487,280.8886 L6.4927,280.7336 C6.4277,280.4436 6.3767,280.1516 6.3477,279.8456 C6.2667,279.7576 6.1707,279.6806 6.0607,279.6336 C5.9867,275.9656 8.3347,272.5906 10.7407,269.5066 C11.8167,273.7246 12.3607,278.1656 12.3367,282.7676 C12.3357,283.2436 12.7197,283.6816 13.1417,283.5996 C13.2187,283.5856 13.2967,283.5536 13.3737,283.5006 C17.4117,280.7616 21.7017,278.9286 26.0447,278.0896 C26.7777,277.9476 27.5117,277.8346 28.2457,277.7496 C28.3267,277.7346 28.3937,277.7036 28.4597,277.6746 C27.2257,280.1596 25.7997,282.5786 23.8077,284.2076 C21.8787,285.7906 19.5397,286.7816 17.2527,287.2236 M82.6407,273.6606 C83.4547,273.5036 84.1227,272.8026 84.2647,271.7856 C84.4127,270.7016 83.9817,269.6366 83.9027,268.5966 C83.7297,266.2966 84.0717,263.8966 84.8867,261.6136 C87.1487,265.2036 88.8317,270.7566 85.6557,275.4236 C84.2657,277.4666 82.3977,278.4536 80.4417,278.8316 C78.2427,279.2566 75.9327,278.9116 74.0597,278.4326 C72.4847,278.0366 70.9087,277.5026 69.3787,276.8306 C69.4527,276.8416 69.5317,276.8416 69.6137,276.8246 C69.7267,276.8036 69.8447,276.7536 69.9677,276.6646 C71.9517,275.2096 74.1187,274.2126 76.2997,273.7306 C76.4217,273.7036 76.5437,273.6786 76.6657,273.6556 C77.6127,273.4716 78.5637,273.3786 79.4957,273.3886 C80.4897,273.4136 81.4987,273.7886 82.5007,273.6816 C82.5477,273.6766 82.5947,273.6696 82.6407,273.6606" id="Fill-37" fill="#231F20" mask="url(#mask-2)"></path>
            </g>
        </g>
    </g>
</svg>