<svg width="500" height="600" xmlns="http://www.w3.org/2000/svg" xmlns:xlink="http://www.w3.org/1999/xlink"><defs><path id="a" d="M107.958.951l-.515 277.603L.394 299 .91 21.396"/></defs><g fill="none" fill-rule="evenodd"><path d="M296.493 514.19c-.746-.438-1.59-.13-2.052.537.19-.274-.335.23-.067.046-.144.098-.294.186-.444.275-.401.242-.803.482-1.206.723l-.37.221a1.074 1.074 0 00-.597.214c-.778.596-1.644.737-2.603.77-1.154.038-2.314.001-3.467-.053-2.105-.097-4.263-.28-6.054-1.497a1.221 1.221 0 00-.575-.202 1.629 1.629 0 00-.222-.095c-2.372-.753-4.755-1.8-6.547-3.55-1.978-1.929-2.76-4.585-3.44-7.223-.483-1.867-3.377-1.075-2.893.798.808 3.126 1.843 6.236 4.21 8.547 2.178 2.122 5.009 3.413 7.873 4.321.044.015.09.018.135.026 1.889 1.263 4.149 1.647 6.383 1.808.216.566.728.914 1.384.981 1.104.113 2.176.171 3.277-.01 1.004-.167 1.943-.638 2.814-1.146.849-.495 1.687-1.008 2.528-1.513.918-.549 1.847-1.029 2.47-1.927.464-.665.124-1.666-.537-2.052" fill="#231F20"/><path d="M315.343 327.649a79.224 79.224 0 00-.296-23.57 1.44 1.44 0 00-.195-.53c-.027-2.343.055-4.685.39-7.02l-.01-.001c.021-.132.05-.26.063-.397.158-1.665-2.706-2.075-2.946-.4-.019.134-.029.268-.047.4h-.007c-.086.904-.848 1.563-1.658 2.065a1.525 1.525 0 00-.529-.095c-.796 0-1.259.512-1.4 1.112-1.566.782-3.162 1.515-4.74 2.269-.986.472-.926 1.505-.373 2.163-.247.317-.369.738-.246 1.242.38 1.549.72 3.106 1.038 4.667-.199.235-.317.554-.284.969l2.345 29.264c.006.07.024.132.037.197-.029 1.089-.296 2.124-.588 3.172-.34 1.22-.687 2.439-1.03 3.658-.287 1.02-.483 2.138-1.046 3.048-.184.295-.374.58-.558.866a1.243 1.243 0 00-.677.373l-7.01 7.788c-.42.468-.473 1.057-.295 1.556-1.235 1.499-2.163 3.145-2.33 5.038-.373.102-.688.298-.907.67-.264.454-.282 1.065 0 1.516a28.35 28.35 0 003.5 4.545c.384.404.802.749 1.36.874.79.177 1.447-.175 2.043-.657a17.434 17.434 0 001.77-1.657 20.15 20.15 0 004.898-9.13 1.576 1.576 0 00-.333-1.384c.047-.056.094-.11.136-.175 1.823-2.886 3.196-6.02 4.14-9.294.388-.141.723-.444.881-.956.131-.425.245-.852.35-1.28.73-2.687 1.423-5.392 1.991-8.115.572-.084 1.077-.467 1.238-1.07.295-1.101.513-2.223.67-3.354a1.24 1.24 0 00.29-.545c.432-2.006.866-4.011 1.3-6.017.156-.727-.196-1.563-.935-1.805m-77.586 43.888c-.287-.512-.849-.726-1.396-.696a7.711 7.711 0 00-1.105-1.428 8.524 8.524 0 00-1.23-1.031 12.668 12.668 0 01-.49-.778c-.169-.338-.33-.678-.487-1.021l-.037-.083c-.053-.145-.107-.29-.147-.44a1.422 1.422 0 00-.314-.586c-.016-.027-.036-.052-.053-.078a54.729 54.729 0 00-2.28-11.582c.094-.19.161-.397.16-.648a87.3 87.3 0 00-.615-9.33 151.398 151.398 0 00-1.194-12.207l-.023-8.238c0-.537-.238-.92-.575-1.158a1.13 1.13 0 00-.315-.424 56.897 56.897 0 01-8.748-9.013c-.015-.021-.037-.034-.054-.053.007-.094.01-.188.017-.282.144-1.925-2.857-1.916-3 0a213.494 213.494 0 00-.38 6.344c-1.549 3.347-1.307 7.152-.865 10.78 0 .006-.004.01-.005.016-.536 3.665.181 7.18 1.156 10.688-1.012.726-.877 2.147-.55 3.247a127.5 127.5 0 001.794 5.492 159.934 159.934 0 004.17 10.677c.061.144.143.256.231.357.056.347.146.693.208 1.017.127.656.268 1.31.42 1.96a51.634 51.634 0 001.95 6.37c-.832.097-1.606.802-1.314 1.844.422 1.505.818 2.978.614 4.553-.116.899-.222 1.713-.074 2.617.028.174.07.346.114.517-.124.306-.17.654-.119 1.01.266 1.883 1.732 3.606 3.347 4.783.074.483.327.939.701 1.326.97 1.003 2.363 1.328 3.702 1.084.381-.07.684-.35.88-.696 1.847-.676 3.343-2.703 4.233-4.626 1.386-.711 1.91-2.077 1.975-3.567.933-2.128.881-4.608-.302-6.717" fill="#E4C3A2"/><path d="M237.172 372.14c-1.006-2.23-2.659-4.222-4.038-6.23a1.71 1.71 0 00-.294-.318 37.043 37.043 0 01-.689-1.736c.542-.297.932-.882.761-1.655a133.428 133.428 0 01-2.74-18.506c-.059-.755-.562-1.21-1.14-1.371-.125-3.416-.228-6.83-.514-10.193.01-.158.015-.317-.019-.478l-.03-.124a76.018 76.018 0 00-.24-2.253c0-.006-.003-.011-.004-.016a1.25 1.25 0 00.288-.867l-.383-5.805c-.052-.781-.653-1.538-1.5-1.5a1.69 1.69 0 00-.939.356 9.75 9.75 0 00-.92-1.257c-1.173-1.336-2.472-2.526-3.572-3.932-1.147-1.47-2.173-3.032-3.205-4.583-1.064-1.6-3.664-.1-2.59 1.514.086.13.175.257.262.387a12.821 12.821 0 00-.597 3.813c0 .276.088.546.235.78-.36.652-.178 1.686.55 2.025a17.55 17.55 0 018.848 9.298l.024.426c.023.463.217.813.494 1.054.116.383.213.774.305 1.166 1.06 11.95-.014 24.28 4.938 35.509.173.392.438.614.732.714.955 1.356 1.93 2.709 2.775 4.129 1.064 1.789 1.115 3.47.593 5.459-.739 2.814-2.427 5.744-5.495 6.33-1.894.363-1.092 3.254.797 2.893 3.985-.761 6.483-4.491 7.52-8.165.653-2.316.793-4.634-.213-6.864m74.598-76.258c-.065.191-.145.377-.215.567a1.442 1.442 0 00-1.012.391 28.28 28.28 0 00-1.665 1.694c-1.373.953-3.086 1.478-4.424 2.47-1.967 1.457-2.744 4.04-1.05 6.018.286.334.615.474.939.487.237 1.966.362 3.942.38 5.92-.35 2.557-.416 5.162-.445 7.748-.01.774.41 1.223.939 1.377 1.834 12.308 1.749 26.629-7.865 35.644-.362.006-.715.13-.961.428a14.106 14.106 0 00-2.344 4.078 1.737 1.737 0 00-.412.436c-2.181 3.283-.963 8.155 2.41 10.125.679.396 1.675.179 2.053-.538.38-.72.186-1.63-.538-2.052-.153-.09-.296-.192-.444-.29l-.007-.005c-.063-.058-.128-.113-.19-.171a5.288 5.288 0 01-.387-.405c-.023-.026-.11-.142-.117-.151l-.021-.031a5.04 5.04 0 01-.288-.483c.11-.201.173-.427.149-.675a11.906 11.906 0 01.022-2.526l.01-.064c.033-.188.063-.376.102-.563a12.036 12.036 0 01.616-2.05c.067-.163.073-.175.015-.037.039-.086.078-.173.119-.258a10.587 10.587 0 01.737-1.32 1.64 1.64 0 00.335-.211c5.225-4.284 8.498-10.564 9.957-17.093 1.769-7.916 1.009-16.078-.277-24.001-.06-.373-.222-.638-.436-.814a59.55 59.55 0 00.254-5.743c.283-2.005.753-3.978 1.585-5.885 1.662-3.811 4.017-7.265 5.37-11.22.626-1.829-2.271-2.615-2.893-.796" fill="#C3996B"/><path d="M250.573 436.412c-.346-1.173-1.54-1.617-2.725-1.44-3.446.508-6.891 1.018-10.338 1.528-3.01.445-6.426 1.376-9.443.592-2.326-.604-3.515 2.145-2.167 3.441-.021.101-.048.2-.056.311-.832 11.53-1.551 23.09.333 34.564-.55 7.902 1.72 16.02-.768 23.74a2.186 2.186 0 00-.091.433 205.004 205.004 0 01-6.264 8.866c-1.792 2.392-3.566 4.948-4.091 7.828-.345.267-.65.621-.716 1.024-.21 1.252-.337 2.42-.092 3.675.242 1.238 1.03 2.324 2.086 3.084.446.321.918.562 1.404.757.275.39.679.694 1.208.81 2.686.585 5.424.281 7.83-.734.028 0 .05.005.077.004 3.573-.15 5.844-2.242 7.583-4.798a30.538 30.538 0 002.604-2.276c.397-.392.649-.914.649-1.459 0-.164-.034-.337-.082-.51 3.758-7.218 8.109-14.902 7.447-22.999.152-.357.199-.772.082-1.237-1.141-4.556-.407-9.323.018-13.922l1.374-14.865c.053-.567-.118-1.005-.41-1.328a113.158 113.158 0 013.68-22.82c.735-.486 1.097-1.493.868-2.269m46.837 64.748c-1.29-3.59-3.45-6.896-6.332-9.41-1.591-1.388-3.382-2.589-5.54-2.777-.08-.007-.16-.002-.24-.006.199-4.028.587-8.046 1.196-12.034.509-.378.826-.994.878-1.676l1.675-22.11a1.677 1.677 0 00-.206-.91c.929-7.05 1.818-14.104 2.624-21.168a1.485 1.485 0 00-.075-.62c.21-.97.41-1.944.637-2.91.433-1.835-1.417-3.112-3.031-2.332a84.654 84.654 0 01-15.233 5.608c-1.574.415-1.77 2.07-1.095 3.134-.003.024-.011.047-.013.072-.04.335-.034.66-.004.982a1.938 1.938 0 00-.302 1.137l.308 10.52c.038 1.324.066 2.651.146 3.975l-.014.173c-.014.176.01.345.05.51.006.064.006.13.01.195.044.488.088 1.042.164 1.604-.415.492-.565 1.164-.441 1.884.068.393.133.787.19 1.182l.026.183.012.09c.02.183.045.366.065.548v.013c-.027.268-.06.537-.085.805-.194 2.126-.378 4.253-.566 6.38-.012.128-.003.257.018.384-.357.367-.587.844-.52 1.36.594 4.693-.387 9.551-.646 14.247a163.204 163.204 0 00-.19 12.708c-.56.31-.968.882-.972 1.716l-.032 8.134c-.004 1.213-.114 2.511.216 3.693.344 1.234 1.185 2.147 2.095 3.003 3.426 3.222 7.485 5.915 12.308 6.178a1.66 1.66 0 00.447-.039l.527-.07c.219-.063.415-.167.598-.29 3.456.641 7.19-.349 9.614-2.996 2.847-3.11 3.118-7.216 1.733-11.07" fill="#E4C3A2"/><path d="M249.238 434.733c-1.063-1.76-3.291-1.36-5.016-1.239a88.357 88.357 0 00-5.26.533 90.77 90.77 0 00-10.746 2.063c-2.572.661-1.482 4.643 1.097 3.98.558-.143 1.117-.275 1.678-.408.153.041.316.07.493.078 3.184.153 5.184 3.188 6.136 5.911 1.276 3.65 1.924 7.595 2.547 11.4 1.303 7.973 1.72 16.081 1.37 24.15-.01.2.013.38.049.55.004.11.018.224.047.342a34.896 34.896 0 01.783 11.355c-.248.246-.42.585-.437 1.03-.145 3.927-1.222 7.714-2.69 11.341-1.351 3.345-2.947 6.695-4.89 9.74-1.75 2.741-4.07 5.403-7.18 6.6-2.788 1.072-6.223 1.135-8.606-.888-1.51-1.282-3.71.898-2.188 2.19 2.85 2.42 6.583 3.01 10.172 2.13 3.893-.953 6.938-3.604 9.289-6.749 2.51-3.358 4.33-7.299 5.953-11.146 1.403-3.326 2.488-6.757 2.972-10.314.129-.157.222-.34.258-.55a38.656 38.656 0 00-.147-14.117c.418-.332.712-.835.742-1.514.21-4.807.12-9.618-.24-14.41.867-.449 1.334-1.393 1.088-2.389a20.49 20.49 0 01-.258-1.2c-.032-.173-.06-.346-.087-.52l-.012-.07-.008-.077a21.134 21.134 0 01-.124-2.278c.005-.74.023-1.513.147-2.246l.029-.175a19.743 19.743 0 01.365-1.717c.145-.565.027-1.184-.282-1.677.209-1.37.344-2.786.344-4.213.223-1.932.533-3.85.957-5.756a59.404 59.404 0 011.392-5.164c.475-1.493 1.163-3.087.263-4.576m45.572 75.904a13.566 13.566 0 01-9.79 3.341c-3.247-.207-7.147-1.798-9.072-4.546a1.58 1.58 0 00-.668-.55c-5.915-8.954-1.667-21.383-1.31-31.249.019-.524-.183-.906-.49-1.154.562-6.907.819-13.835.76-20.765.297-.249.518-.607.559-1.093.86-10.313 6.792-19.882 15.507-25.397.607-.029 1.017-.352 1.23-.78 1.385-.878.569-3.402-1.188-2.81-3.408 1.15-6.816.297-10.224 1.446-1.785.602-3.572 1.198-5.355 1.805-1.275.435-2.401-1.088-2.744.343-.374 1.56-.123 7.43-.141 9.03a9506 9506 0 00-.06 5.368l-.11 9.95c-.34.246-.577.64-.57 1.193a231.12 231.12 0 01-.873 23.21c-.051.573.176.973.52 1.215-.4 6.208-1.752 12.84-1.535 19.14a1.27 1.27 0 00-.495.776 15.023 15.023 0 00-.155 3.976 1.234 1.234 0 00-.085.531c.206 2.853 1.369 5.522 3.382 7.566.395.403.983.507 1.507.365.303.413.62.823.967 1.225.303.352.653.496.996.502 2.572 2.204 6.006 3.485 9.306 3.774 4.495.393 8.96-1.27 12.319-4.223 1.5-1.317-.697-3.5-2.188-2.189" fill="#C3996B"/><path d="M303.263 258.221a55.254 55.254 0 00-3.453-2.142c-3.008-1.142-5.991-2.358-9.13-3.085-.588-.136-.875-.543-.936-.994-5.501-1.338-11.136-2.196-16.57-3.815a1.364 1.364 0 01-.453-.233c-.085.033-.171.06-.254.1a1.432 1.432 0 01-.539.143 9.033 9.033 0 01-.105 2.221c-.04 1.773-.603 3.51-1.972 4.737a1.361 1.361 0 01-1.172.334 4.9 4.9 0 01-1.046.374 6.65 6.65 0 01-4.463.211 1.356 1.356 0 01-.544-.335c-.993.198-1.882-.125-2.467-1.338-.706-1.464-2.972-2.416-4.517-1.838-17.878 6.687-31.646 20.742-37.858 38.81-.051.147-.068.284-.102.427-1.75 2.78-3.617 5.506-5.774 8.078-1.078 1.284-1.187 2.755-.743 4.017.125.03.245.073.353.146.718.487 1.252 1.09 1.76 1.786.36.496.688 1.014 1.051 1.507.277.342.575.663.92.937l-.014-.01c.265.197.457.425.56.747.023.067.03.135.038.204 1.379.913 2.152 2.454 3.152 3.796 1.355 1.82 3.129 3.45 4.813 5.022.329.307.417.765.334 1.191l1.026 1.033c1.297 1.308 3.859 1.55 5.369.37-.535 2.667-1.047 5.338-1.562 8.008.152 3.914.248 7.85.645 11.738.334 3.282.87 6.54 1.169 9.821.422 2.871.843 5.744 1.148 8.626.34 1.746.708 3.486.903 5.256.374.937.688 1.892.943 2.865.049.093.091.19.142.281.034.031.08.045.11.082.034.043.065.087.098.131a37.126 37.126 0 003.738-.186c.235.06.475.113.737.134 5.554.455 10.846-.62 16.038-2.239 7.621-.763 14.444-2.964 21.614-5.63 3.343-1.243 6.768-2.408 9.956-3.963.549.065 1.155 0 1.82-.266 5.37-2.15 9.657-5.895 11.495-11.539 1.83-5.62.888-11.369.042-17.067.311-.18.563-.453.657-.832 1.279-5.174 1.371-10.37 1.048-15.58.245-7.294-.014-14.584-1.496-21.763 1.759.028 3.522-.9 3.914-2.846a84.94 84.94 0 011.497-6.189c1.293-2.589 2.978-6.554 3.74-10.445a79.805 79.805 0 011.895-3.996c-2.231-2.576-4.728-4.883-7.555-6.802" fill="#27A9E0"/><path d="M287.49 359.857c2.219-2.253 4.26-4.658 6.185-7.165 1.175-1.53-1.43-3.026-2.59-1.514a68.065 68.065 0 01-2.308 2.829c-.16.02-.32.064-.478.144-.63.317-1.268.602-1.912.874a1.498 1.498 0 00-.63-.014c-1.48.307-2.87.872-4.153 1.668a1.445 1.445 0 00-.676.963c-6.013 1.555-12.027 3.11-18.04 4.668-.728.188-1.051.718-1.07 1.276-3 .266-5.99.609-8.973 1.03-.01 0-.02 0-.03.003-.132.02-.265.034-.398.053-.377.055-.645.25-.82.513a29.893 29.893 0 01-1.566-.238c-1.888-.34-2.697 2.55-.798 2.893 3.913.705 7.848.729 11.737.058.203.435.629.764 1.306.772.455.005.91.01 1.365.017-.433 1.007.445 2.21 1.763 2.028 5.71-.79 11.428-1.801 17.016-3.236 2.217-.57 4.539-1.355 6.495-2.611.527.186 1.153.157 1.622-.211.557-.437 1.022-.95 1.444-1.493.972-.781 1.61-1.897 1.638-3.53.023-1.378-1.632-1.852-2.5-1.113a1.24 1.24 0 00-1.01.72 7.387 7.387 0 01-1.867 2.4c-.876.156-1.806.165-2.434.188-.154.006-.308 0-.463.006.857-.642 1.635-1.46 2.146-1.978m27.691-77.012a1.665 1.665 0 00-.656-.54 34.762 34.762 0 00-3.775-12.334c-.252-1.205-.499-2.41-.754-3.615-.4-1.887-3.293-1.089-2.892.798.144.686.285 1.373.43 2.058a1.49 1.49 0 00-.062.88l.358 1.605c-.997-.376-2.346.382-2.017 1.75.061.256.112.515.171.773-.015.016-.028.034-.042.051a1.588 1.588 0 00-1.034 1.773c.067.461.146.92.217 1.38-.838-.71-2.59-.194-2.532 1.15.078 1.838.118 3.678.139 5.517a1.52 1.52 0 00-.548 1.047 62.956 62.956 0 00-.165 4.532 270.369 270.369 0 00-.941-9.882c-.219-1.895-3.222-1.917-3 0 .279 2.393.52 4.79.734 7.188a1.479 1.479 0 00-.319.88c-.552 11.343 1.611 22.937.564 34.251-.973-.425-2.454.368-2.147 1.754a32.77 32.77 0 01.73 5.234c.011.195.075.376.161.547-.148.593-.289 1.186-.464 1.777-.552 1.87 2.266 2.605 2.893.798 1.019-2.936 1.61-5.97 1.823-9.07a1.519 1.519 0 00-.052-.484c.363-3.857.358-7.74.217-11.637.38-.23.653-.635.651-1.218a267.902 267.902 0 00-.35-12.323 1.52 1.52 0 001.2.976c.002.192.017.382.017.573.005 1.396 1.592 1.852 2.56 1.061 1.312-1.072 2.656-2.23 3.902-3.48.193-.12.382-.249.574-.375.425-.064.811-.315 1.099-.71l.114-.156c1.55-1.2 2.906-2.647 3.72-4.448 1.167-2.58 1.193-5.732-.524-8.08m-84.938 36.235c-1.931 0-1.934 3 0 3 1.93 0 1.934-3 0-3" fill="#27A9E0"/><path d="M256.89 252.502a102.854 102.854 0 00-19.391 9.746.96.96 0 00-.437 1.046 54.545 54.545 0 00-7.073 8.02.77.77 0 00-.137.375 94.62 94.62 0 00-6.36 8.62c-.522.804-1.063 1.628-1.595 2.467-.06.065-.124.12-.171.212-.052.1-.1.203-.15.305-1.337 2.153-2.573 4.423-3.224 6.823-.596.012-1.181.213-1.642.678-2.423 2.449-3.712 5.72-3.824 9.049-1.1.9-1.584 2.304-1.376 3.738.027.187.068.367.116.54.66.474 1.17 1.046 1.652 1.705.36.496.688 1.014 1.05 1.507a6.039 6.039 0 00.907.925c.265.199.457.427.56.749.022.064.02.13.029.197 1.384.912 2.158 2.457 3.16 3.803 1.356 1.819 3.13 3.45 4.814 5.02.33.31.419.774.332 1.203a13.141 13.141 0 002.72 1.58c.665.283 1.369.376 2.003.2.429.237.885.43 1.347.59l.398.054.398-.054.359-.151c.175-.094.315-.223.42-.386a.753.753 0 00.194-.332.748.748 0 00.103-.378.771.771 0 000-.4 1.132 1.132 0 00-.18-.556 6.114 6.114 0 00-1.442-1.605 2.314 2.314 0 00-.571-.908c-2.69-2.603-5.447-5.153-8.05-7.844-.102-.107-.201-.215-.303-.323-.047-.065-.097-.13-.144-.194a19.324 19.324 0 01-1.31-13.024c.256-.087.466-.291.536-.656 1.912-10.08 8.509-18.25 14.863-25.966a1.01 1.01 0 00.194-.382.881.881 0 00.629-.297 78.07 78.07 0 018.673-8.05 99.587 99.587 0 0112.455-5.717c1.194-.45.677-2.385-.531-1.93" fill="#1C75BB"/><path d="M264.492 366.374c-2.64-.251-5.161.65-7.656 1.366-1.98.568-4.107 1.012-5.811.089a2.106 2.106 0 00-1.346-.218 22.576 22.576 0 01-10.094-6.595c-3.563-4.04-5.065-9.252-6.211-14.402a1.863 1.863 0 00-.473-.906c-1.285-14.397 4.606-28.473 8.305-42.156 1.17-4.331 2.11-8.7 2.706-13.147a1.38 1.38 0 00-.047-.537c.433-1.434.707-2.91.836-4.404.03-.364-.19-.812-.44-1.061-.26-.26-.687-.456-1.06-.44-.87.039-1.428.66-1.5 1.5-.021.242-.051.482-.08.722-.117.807-.298 1.6-.514 2.384-.693.312-1.088 1.032-1.195 1.836-1.983 14.808-8.591 28.553-10.603 43.345-.117.053-.222.14-.33.224.146 3.8.246 7.62.63 11.395.335 3.28.87 6.54 1.17 9.82.227 1.539.449 3.078.656 4.618.389.149.719.45.787.865.258 1.57.438 3.167.888 4.698.195.662.477 1.267.806 1.847.033.032.08.046.109.083.07.089.135.18.204.272l.004-.003.013.025a19.797 19.797 0 012.496 4.268c.06.13.125.259.18.39.169.105.306.265.423.454 4.518-.064 9.068-.468 13.565-.678h.002c1.96.503 4.038.312 6.042-.178 2.519-.616 4.914-1.726 7.538-1.476 1.077.103 2-.992 2-2 0-1.167-.92-1.897-2-2m39.835-45.242c-.02-.252-.038-.505-.057-.757a8.938 8.938 0 00-.214-2.722 53.44 53.44 0 00-.478-6.855c-.173-1.27-2.101-.73-1.93.53.48 3.517.549 7.073.273 10.608a2.15 2.15 0 00-.15.463c-1.491 7.485-2.562 15.262-5.132 22.474-2.13 5.977-5.837 11.586-11.72 14.367-.6.283-.904.723-.996 1.199a41.77 41.77 0 01-3.935 2.39c-1.692.899-3.817 1.488-5.083 3-.725.868-.363 2.734 1.06 2.562 1.833-.221 3.66-.474 5.482-.77 1.778-.288 3.568-.58 5.24-1.27a14.485 14.485 0 002.968-1.658c.013.01.02.026.033.036.538.403 1.504.479 1.97-.117.08-.102.148-.208.225-.311a.065.065 0 01.009.008c.017-.031.035-.063.05-.094a12.329 12.329 0 001.583-2.87l.564-1.024c.168-.304.218-.603.188-.878 3.713-1.538 6.319-4.97 7.833-8.665.368-.897.646-1.816.89-2.743a2.49 2.49 0 001.24-1.055c.496-.828.518-1.761.593-2.694.029-.375.059-.75.09-1.123.259-1.414.382-2.853.343-4.288-.001-.057-.014-.111-.02-.166a36.42 36.42 0 00-.015-4.14 1.91 1.91 0 00-.146-1.22 2.364 2.364 0 00-.265-.581c-.001-.058.002-.116 0-.175a1.914 1.914 0 00-.048-.402c.179-.161.307-.397.329-.713a31.422 31.422 0 00-.053-4.976c.19-1.017.38-2.034.58-3.04.228-1.145-.45-1.986-1.301-2.33m-31.153-72.947a1.364 1.364 0 01-.453-.233c-.085.033-.17.06-.254.1-.185.09-.365.133-.54.143a8.98 8.98 0 01-.105 2.221 7.92 7.92 0 01-.2 1.623c4.541-1.123 9.252-1.204 13.945-.992-4.15-.873-8.33-1.65-12.393-2.862m42.805 38.486c-.63-.368-1.734-.212-2.053.539-.201.474-.42.941-.648 1.403a75.54 75.54 0 01-1.488 1.908l-.04.026c-.08.053-.157.108-.237.16a6.731 6.731 0 01-.816.447c-.021.009-.028.013-.037.018l-.068.024a6.398 6.398 0 01-.964.276l-.188.037-.2.024a7.103 7.103 0 01-1.035.012l-.281-.025c-.053-.01-.172-.029-.19-.032a7.478 7.478 0 01-.554-.135c-1.363-1.143-2.157-2.84-2.664-4.526-.73-2.423-1.133-4.96-1.644-7.436-.164-.794-1.101-1.252-1.845-1.048-.824.227-1.212 1.05-1.048 1.846.352 1.701.649 3.54 1.07 5.346.014 1.196.096 2.394.216 3.594.086.134.169.27.267.396a.777.777 0 00-.184.388c.122 1.156.246 2.312.34 3.465l.437 3.818c.154 1.351.332 3.11 1.954 3.431.325.064.748-.018.99-.28.433.188.993.116 1.289-.369.12-.197.223-.401.332-.603 2.468-.453 4.288-2.268 5.847-4.156a27.254 27.254 0 002.726-3.987c.347-.454.65-.942.89-1.469.087-.192.14-.4.162-.61.064-.145.14-.283.202-.43.316-.745.224-1.606-.538-2.052" fill="#1C75BB"/><path d="M299.947 389.604l-.003-.73-.005-2.867a49.728 49.728 0 00-.015-8.84c-.09-.964-.87-1.453-1.611-1.443a4.14 4.14 0 00-1.947-1.337 1.296 1.296 0 00-.35-.059c.023-.732.032-1.462.059-2.194-2.032-1.316-3.5-3.495-5.135-5.256a1.929 1.929 0 01-.484-.963c-.48.14-.96.277-1.433.438a1.61 1.61 0 01-.526.087c-5.002 1.33-10.218 1.931-15.286 2.878-3.233.604-6.485.983-9.727 1.507-1.898.306-3.788.695-5.688.748-1.388.2-2.78.38-4.175.508-2.057.19-4.17.286-6.236.056-2.838.41-5.69.756-8.55 1.044.477 1.63.459 3.417-.415 4.86-.2.991-.666 1.912-1.267 2.742a10.4 10.4 0 01-.43.725c-.673 1.028-1.488 2.003-2.44 2.786-.688.565-1.467 1.127-2.321 1.445-1.736.932-3.63.636-5.376-.067l-.025-.006s0-.002.002-.003c-.062-.025-.124-.05-.185-.077-.024 1.151-.043 2.301-.073 3.452-.137.256-.254.54-.316.883-2.18 11.843-6.194 24.8-5.345 37.025-1.282 1.795-1.661 3.777-.117 5.713 2.172 2.724 6.06 1.994 9.124 1.86 7.055-.31 16.14.598 22.256-3.703 6.306-4.434 5.444-12.794 6.27-19.55.209-1.7.467-3.394.757-5.082.349-.19.624-.52.775-.925.948-2.535 1.8-5.105 2.543-7.708.327-1.147.626-2.302.912-3.46.022 1.328.095 2.678.236 4.074.044.444.07.886.11 1.33.059-.008.116-.018.176-.018.718 0 1.33.611 1.33 1.33-.003 3.173-.134 6.36.285 9.515.05.387-.157.741-.458.987-.035 4.324-.762 8.652-.625 12.967.46.384 1.074.63 1.848.63a2.96 2.96 0 001.373-.322c.095.006.18.028.279.028 1.392 0 2.917-.91 3.62-2.202.107-.026.213-.056.32-.082.543.23 1.17.316 1.86.164 4.409-.968 8.682-2.266 12.847-4.017 3.13-1.318 7.207-2.686 9.473-5.368 2.007-2.376 2.076-5.304 1.834-8.26-.091-1.097-.171-2.17-.238-3.235.042.018.083.04.127.054l.073 1.41c.097 1.92 3.097 1.931 3 0l-.687-13.472" fill="#594A41"/><path d="M273.21 369.318c-3.232.604-6.484.983-9.727 1.507-1.898.306-3.788.695-5.688.748-1.388.201-2.778.38-4.175.508-2.17.199-4.402.296-6.578.013l-.007.007c-.079-.025-.165-.029-.247-.044-.114-.017-.229-.032-.344-.051a2.277 2.277 0 00-.54.042 32.497 32.497 0 01-1.7.31 1.746 1.746 0 00-.349-.023 21.74 21.74 0 00-2.752.295c-.817.033-1.633.03-2.45.005.65 1.769.743 3.808-.237 5.415-.2.988-.666 1.906-1.264 2.733-.134.249-.278.493-.429.725-.674 1.028-1.489 2.003-2.44 2.786-.688.566-1.468 1.127-2.322 1.445-1.735.932-3.63.636-5.376-.067l-.024-.005.002-.004c-.147-.059-.294-.116-.438-.18a1.26 1.26 0 01-.255-.156 58.605 58.605 0 01-.733 3.597 2.092 2.092 0 00.544 1.952c-1.885 3.53-2.956 7.409-3.26 11.401-.039.514.094.92.327 1.227l-.684 5.252c-.304 2.345-.73 4.709-.826 7.075-.022.55-.007 1.083.037 1.602a2.55 2.55 0 00-.448 1.203l-.836 7.585c-.138 1.264-.292 2.528-.418 3.793-.134 1.358.183 2.663 1.294 3.537.9.707 1.97.888 3.07 1.045 1.333.19 2.67.358 4.008.489 2.568.25 5.145.369 7.724.369.485 0 .933-.192 1.285-.495a17.58 17.58 0 002.74-.199c3.657-.529 7.29-1.39 10.864-2.382.301-.032.587-.115.844-.241.601-.17 1.204-.336 1.801-.512 2.462-.73 1.414-4.591-1.063-3.857-.64.189-1.284.365-1.927.545-3.182-.515-6.387-.343-9.488.613a2.174 2.174 0 00-.467.21 32.618 32.618 0 01-1.685-.053c-3.892-.237-6.867-1.813-9.459-4.685-1.159-1.283-2.302-2.636-3.085-4.189-.905-1.798-.883-3.758-.692-5.716.431-4.397 1.124-8.782 1.693-13.163.055-.418-.09-.811-.343-1.139 1.348-7.992 6.757-14.219 13.417-18.736a48.831 48.831 0 0121.853-8.095c.432.587 1.144.976 2.047.803a83.65 83.65 0 0020.597-6.819c-3.78.758-7.626 1.27-11.39 1.974" fill="#3B2314"/><path d="M262.43 392.912c-.849-.233-1.55.29-1.845 1.047-2.13 5.466-2.904 11.296-3.618 17.084-.313.24-.532.613-.54 1.124-.002.165-.01.329-.014.494a1.672 1.672 0 00-.452 1.028 362.056 362.056 0 01-.41 5.604c-.31.269-.512.656-.519 1.11-.011.615-.04 1.228-.094 1.84-.027.3-.061.599-.098.898l-.034.25a25.59 25.59 0 01-.986 4.128c-.135.41-.032.87.212 1.233-1.205 1.046-2.629 1.879-4 2.47-2.585 1.113-5.423 1.455-8.206 1.095-.804-.103-1.5.764-1.5 1.5 0 .897.694 1.396 1.5 1.5 3.318.428 6.673-.156 9.719-1.505.568-.251 1.143-.55 1.714-.875.597.367 1.292.263 1.855-.201.9-.741 1.515-1.69 1.952-2.73.775-.821 1.437-1.722 1.889-2.707.31-.675.222-1.466-.37-1.93.465-4.171.741-8.36.824-12.556.252-.272.417-.633.467-1.037.709-5.767 1.479-11.572 3.602-17.02.294-.754-.323-1.645-1.048-1.844m40.031 22.699c-.527-1.85-.51-3.73-.49-5.64.02-2.103-.003-4.206-.096-6.308-.18-4.126-.61-8.234-1.235-12.317-.29-1.903-3.182-1.095-2.893.798.36 2.346.63 4.706.832 7.07-.594-.006-1.167.312-1.345 1.068-.625 2.664-.42 5.319-.335 7.998a1.394 1.394 0 00-.812.639 19.366 19.366 0 01-1.323 1.942c-.643-.03-1.269.299-1.4 1.068-.045.26-.115.508-.184.755-1.675 1.689-3.659 3.067-5.867 3.987-.647.27-1.069.719-1.1 1.446-.007.12.015.224.028.332-2.259.285-4.547.399-6.703 1.233-.607.234-1.056.746-1.092 1.372a53.38 53.38 0 01-5.81-.162c-1.924-.16-1.914 2.84 0 3 3.994.332 7.982.194 11.95-.376 2.53-.363 5.396-.806 7.947-1.745.16.07.331.117.515.122 3.12.095 5.546-2.248 6.553-5.037.025-.071.036-.143.06-.214.7 1.54 3.307.747 2.8-1.03" fill="#594A41"/><path d="M302.16 415.98c-.52-.52-1.617-.64-2.12 0-1.89 2.407-5.175 3.364-8.011 4.135-3.275.89-6.633 1.283-10.023 1.224-.695-.012-1.135.37-1.33.863a22.909 22.909 0 01-8.65-1.026c-1.372-.44-2.995-.918-3.408-2.462-.4-1.5-.585-3.088-.798-4.644.094-.19.145-.4.126-.63l-.54-6.806c-.061-.78-.645-1.538-1.5-1.5-.76.034-1.566.662-1.5 1.5l.48 6.05a1.86 1.86 0 00-.123 1.03c.189 1.198.378 2.396.569 3.594.039.249.075.5.113.75-.301.276-.498.656-.457 1.069l.559 5.65c.085.865.026 1.934.519 2.678.686 1.033 1.842.833 2.894.7a301.263 301.263 0 0011.232-1.634c.08.009.16.016.244.006 4.587-.528 9.066-1.616 13.353-3.34.377-.152.698-.404.894-.724 2.782-.865 5.685-2.076 7.478-4.361.5-.637.62-1.5 0-2.121m-46.29 9.025c-4.206 4.221-10.956 3.165-16.34 3.73-.806.084-1.5.629-1.5 1.5 0 .456.258.944.644 1.238-1.164.381-1.43 2.42.075 2.908 3.305 1.07 6.801 1.04 10.195.466 3.22-.544 6.627-1.638 7.834-4.992.06-.167.072-.34.058-.51a6.876 6.876 0 001.541-2.881c.381-1.439-1.442-2.529-2.507-1.459" fill="#3B2314"/><path d="M245.884 501.666c-.789-.18-1.628.237-1.846 1.048a177.229 177.229 0 01-2.413 8.135c-.249.061-.48.181-.649.386-1.725 2.09-2.436 4.72-3.89 6.973a16.836 16.836 0 01-5.104 5.05 1.573 1.573 0 00-.28.23c-.378-.176-.834-.194-1.305.073-2.132 1.201-4.416 2.487-6.927 2.55-2.424.06-4.1-1.177-5.497-3.064-.483-.65-1.3-.979-2.053-.538-.64.375-1.023 1.398-.538 2.053.917 1.236 1.9 2.405 3.201 3.257 1.298.85 2.862 1.244 4.401 1.29 3.232.098 6.188-1.415 8.926-2.958.114-.064.21-.136.294-.213.418.164.9.16 1.291-.09a20.449 20.449 0 005.852-5.633c.746-1.078 1.34-2.232 1.88-3.424.373-.82.74-1.678 1.207-2.466.72.05 1.346-.37 1.582-1.083a179.143 179.143 0 002.915-9.73c.204-.758-.254-1.665-1.047-1.846" fill="#231F20"/><g transform="translate(210 238.05)"><mask id="b" fill="#fff"><use xlink:href="#a"/></mask><path d="M62.653 9.604c-.435.083-.834.607-.822 1.122.046 3.086-2.045 6.544-4.782 7.266a4.69 4.69 0 01-.297.068c-1.316.251-2.545-.145-3.485-.971-.03-.383-.235-.698-.583-.735l-.103-.015c-.487-.659-.832-1.475-.993-2.378-.081-.442-.354-.597-.65-.558a.623.623 0 00-.496-.139l-.021.004a.983.983 0 00-.49.31.546.546 0 00-.471-.1 56.374 56.374 0 00-7.634 2.737c-.074.031-.141.096-.207.152-3.195 1.189-6.384 2.524-9.462 4.322-5.78 3.377-10.867 8.394-15.232 14.171-4.357 5.767-8.02 12.197-11.447 18.694a602.357 602.357 0 00-2.515 4.854c-.831 1.636-1.951 3.397-2.131 5.238-.114 1.119.144 2.082.563 2.943 1.403 1.401 2.597 3.048 3.71 4.806l.073.081-.037.102C3.6 80.826 2.313 89.957 3.427 98.871c1.013 8.112 3.512 15.552 6.085 22.856a.964.964 0 00-.06.764c.963 3.022 2.11 6.027 2.777 9.218.682 3.267-.197 6.676-.026 10.04.136 2.653 1.24 4.404 2.739 5.933-.666 4.189-1.34 8.371-2.005 12.56-1.488 9.273-2.97 18.545-4.457 27.817-.037.267.014.482.103.655-.484 1.527-.605 3.062.006 4.562.942 2.301 2.995 3.317 5.108 3.769.694.144 1.404.268 2.113.374-.17 12.159-.347 24.31-.518 36.469l.118-.049.699 17.662a.984.984 0 00.11.411 29.49 29.49 0 01-.072 2.797c-.272 3.846-2.001 6.933-4.29 9.912-3.594 4.67-8.364 9.903-7.23 15.995-.893 3.464.003 6.931 1.964 9.167 2.195 2.518 5.603 3.023 8.888 2.395a15.615 15.615 0 001.753-.443c7.226-2.288 13.61-9.021 17.136-17.024 1.982-4.501 3.048-9.398 2.938-14.104-.01-.621-.427-.845-.84-.766a.937.937 0 00-.267.096c.022-.264.06-.521.075-.784.19-2.724-.16-5.337-.347-7.98a81.744 81.744 0 01-.213-4.497l-.104.063c.38-5.958.806-11.925 1.305-17.889l.05.007a354.041 354.041 0 014.117-30.983c.03-.153.023-.281.009-.4 1.648-.384 3.305-.968 4.792-2.108 4.56-3.481 3.946-10.563 4.457-15.604.648-6.295 1.813-12.602 3.414-18.837 1.708 7.574.22 16.155.383 24.187.035 1.783-.096 4.167.692 5.616.81 1.487 2.549 1.034 3.96.885.54-.051 1.08-.102 1.627-.163a1.107 1.107 0 00-.06.391 657.668 657.668 0 01-1.227 47.874c-.267 4.234-.57 8.467-.918 12.707a1.378 1.378 0 00-.104.314c-.3 1.959-.584 3.958-.735 5.923-3.35 7.908-.333 16.121 4.745 20.112 2.79 2.199 6.084 3.454 9.482 4.283 2.51.618 5.327 1.329 8.089.801a9.026 9.026 0 002.897-1.084c3.366-1.966 6.027-5.983 6.56-10.216.045-.346-.058-.594-.213-.772.879-3.495.294-7.29-1.06-10.143-2.584-5.427-7.123-9.53-11.804-12.352.189-2.853.94-9.324 1.017-10.038.45-4.191.917-8.386 1.376-12.587.917-8.309 1.849-16.62 2.788-24.923.549-4.841 1.105-9.675 1.66-14.509.015-.089 0-.164-.006-.241 2.937-1.018 6.546-2.2 8.775-5.012 2.675-3.354 1.524-8.052 1.22-11.65a526.029 526.029 0 01-1.023-14.178 561.815 561.815 0 01-.826-21.57 18.498 18.498 0 003.783-6.738c.237-.287.37-.719.275-1.055.045-.285-.006-.509-.124-.667.067-.333.282-.72.416-.996.393-.81.8-1.631 1.194-2.45.749-1.534 1.506-3.07 2.256-4.596.214-.076.429-.246.57-.567 6.586-15.233 9.054-31.521 7.694-47.06-.413-4.658-1.063-9.227-1.748-13.78a.666.666 0 00-.214-.426l.015-.003-.052-.034-.162-.081-.074-.046a22.886 22.886 0 002.99-5.904c.163-.498 0-.812-.28-.949-1.093-4.441-2.267-8.841-3.582-13.153-1.146-3.783-2.456-7.543-4.43-10.718-4.297-6.915-11.884-9.009-18.783-11.407-3.148-1.094-6.34-2.048-9.62-2.692l.067-.065a367.92 367.92 0 00-8.364-1.591.653.653 0 00-.223.002m-5.92 10.375a6.2 6.2 0 00.594-.147c3.114-.958 5.61-4.495 6.069-8.117 1.138.206 2.276.43 3.414.644.096.146.229.25.436.28 7.634.919 14.976 3.622 21.926 6.624 3.264 1.416 6.254 3.326 8.422 6.473 2.049 2.988 3.41 6.582 4.556 10.262 1.47 4.714 2.755 9.551 3.943 14.415l.015.023c-2.14 5.889-7.138 10.475-12.254 11.452-.072.013-.143.027-.216.039l-.252-3.254c-.324-.664-.47-1.422-.44-2.267l.004-1.435c0-.337.03-.671.075-.999l-1.018-13.228c-.046-.606-.482-.832-.893-.753-.41.078-.795.458-.748 1.066.98 12.785 1.963 25.571 2.944 38.356.49 6.345.997 12.688 1.466 19.046.094 1.269.172 2.551.222 3.847-.81 5.608-2.838 11.57-7.486 14.61-.273.173-.422.443-.497.726-1.724 1.643-3.207 3.671-4.327 5.917a21.487 21.487 0 00-1.055 2.5c-.828.271-1.656.532-2.492.778a163.844 163.844 0 01-8.128 2.166 154.469 154.469 0 01-6.778 1.454c-8.661 1.654-17.326 2.532-25.878 2.588-3.046.02-6.394.064-9.69-.214a7.612 7.612 0 00-.752-1.11c-.937-1.16-2.177-1.97-2.995-3.265a.675.675 0 00-.577-.34c-1.06-2.597-1.267-5.911-1.661-8.775a283.038 283.038 0 01-1.324-11.337 296.448 296.448 0 01-1.03-15.066c.299-1.285.596-2.569.902-3.854.196-1.922.62-3.835 1.356-5.618 1.564-6.236 3.246-12.461 5.105-18.641a415.667 415.667 0 015.725-17.661c.29-.826-.282-1.418-.806-1.318-.241.046-.472.237-.604.619A422.606 422.606 0 0022.464 77.5a394.771 394.771 0 00-1.52 5.969c-1.588-.354-3.027-1.159-4.356-2.202-.481-.046-.931-.22-1.278-.559-.664-.652-1.24-1.372-1.644-2.245-1.483-1.644-2.854-3.422-4.174-4.95l-3.364-3.878c-.524-.6-1.077-1.203-1.616-1.818a2.694 2.694 0 01-.915-.914c-.154-.247-.242-.567-.3-.902l-.126.033c-.074-.124-.155-.238-.221-.364-.93-1.75-.216-3.321.726-5.177a531.679 531.679 0 012.315-4.505c6.038-11.628 12.987-23.681 22.994-31.141 3.22-2.404 6.683-4.146 10.174-5.582a115.242 115.242 0 015.23-1.975c.214-.076.48-.196.777-.313l-.007-.171a51.522 51.522 0 014.297-1.409l.17-.084c.168 1.29.912 2.349 1.924 2.778 1.289 1.5 3.186 2.269 5.183 1.888M20.675 148.502c-1.491.285-2.847-.707-3.958-1.782l.008-.079c-.126-.097-.26-.184-.377-.291l-1.231-1.208c-.436-.427-.7-.998-.855-1.635a5.31 5.31 0 01-.287-.947c-.27-1.409-.127-2.975 0-4.477.258-2.902.285-5.526-.39-8.18-.573-2.25-1.307-4.417-2.02-6.589a.925.925 0 00.098-.822c-2.677-7.553-5.376-15.204-6.543-23.573-1.167-8.437-.034-17.123 1.4-25.893 2.354 2.748 4.654 5.593 7.178 8.127-.03.136-.06.271-.09.415a3.587 3.587 0 011.433.919l.008-.044c1.099.948 2.28 1.768 3.565 2.335a1.107 1.107 0 00-.18.631 303 303 0 00.253 7.764l-.06.271c.059.24.103.482.139.743.05.465.073.928.057 1.415-.008.434-.038.872-.054 1.307l.096.059c.228 4.105.539 8.203.945 12.257.378 3.817.829 7.611 1.355 11.383.429 3.081.682 6.533 1.94 9.197.939.486 1.72 1.227 2.355 2.134.199.196.39.393.583.598l-.214-.037c.368.603.663 1.273.905 1.979.266.036.524.081.79.1.229.552.36 1.158.27 1.815a1.29 1.29 0 00.05.586c0 .087-.006.175.016.257l.015.093c.007.128.007.249-.001.38-.023.117-.045.233-.082.352-.037.094-.075.196-.126.284-.112.22-.134.544-.083.759.05.215.199.429.376.498a.691.691 0 00.59-.009c-1.424 3.384-3.721 6.39-6.445 8.44a.636.636 0 00-.208.005.821.821 0 00-.236.088 3.108 3.108 0 01-.985.375m73.249-84.711c3.632-.693 7.136-3.006 9.842-6.262.036.235.066.48.11.714l.014-.029c1.117 7.522 2.123 15.135 1.976 23.028-.14 7.615-1.3 15.382-3.406 22.966a97.304 97.304 0 01-4.318 12.259c-.2.081-.385.246-.525.524-.92 1.887-1.848 3.775-2.768 5.662-.608 1.249-1.861 3.217-1.494 4.616-.974 3.34-3.095 6.269-5.692 8.096a34.937 34.937 0 01-2.864-2.608 34.349 34.349 0 01-2.065-2.284c-.14-.164-.272-.337-.405-.502a1.25 1.25 0 00.252-.247l.126-.214c.074-.17.11-.332.11-.505.054-.555.107-1.101.159-1.655a.797.797 0 00-.065-.359l-.023-.022.037-.12c.247-.859.595-1.669 1.092-2.395.193-.408.4-.811.623-1.199 1.283-2.233 2.987-4.14 4.91-5.562.223-.163.34-.376.394-.585 2.19-2.044 3.749-4.674 4.848-7.564-.037.258-.068.515-.097.771.044-.199.097-.399.163-.593l.015-.037a9.82 9.82 0 01.327-.815l.022-.125c.23-.744.498-1.478.75-2.226.202-.592.41-1.202.536-1.814.038-.163.097-.312.164-.455 0-.155.008-.313.008-.468a66.177 66.177 0 00-.041-1.729l.023-.178a35.345 35.345 0 01-.06-3.773l-.147-.041c-.252-4.084-.665-8.127-.976-12.174-.57-7.358-1.133-14.709-1.696-22.069.047-.008.095-.017.14-.027M20.127 86.866c-.014-.525-.036-1.048-.042-1.574.126.028.258.072.39.099-.118.489-.23.985-.348 1.475m9.368 49.981c-.014-.144-.022-.281-.051-.422l-.052-.103a6.12 6.12 0 00-.05-1.581l.593.043-.022.082a20.595 20.595 0 01-.418 1.981M16.6 152.585l.017-.003c7.055-1.52 13.573-9.126 14.875-17.508v-.208c.577.029 1.154.048 1.73.068 10.207.277 20.599-.571 30.994-2.556.942-.18 1.88-.369 2.822-.567 3.742-.784 7.528-1.654 11.285-2.76.138.182.332.302.567.257.018-.003.035-.008.053-.013.186-.052.37-.122.555-.184.235.733.803 1.351 1.202 1.863a37.5 37.5 0 002.345 2.749 36.68 36.68 0 005.298 4.684.786.786 0 00.61.148c.189-.036.377-.149.537-.358.006.456.02.912.026 1.377.185.233.295.549.295.895l-.011 5.767a1.999 1.999 0 01-.038.37c.057 1.415.099 2.833.17 4.246a546.4 546.4 0 001.316 19.791c.174 2.024.472 4.058.484 6.122.019 1.976-.57 3.669-2.072 4.942-1.355 1.148-2.96 1.801-4.47 2.443-3.616 1.53-7.3 2.588-10.975 3.376-.595.127-1.19.248-1.785.361-3.122.596-6.24 1.012-9.35 1.36-1.885.212-3.778.462-5.656.587-.938.059-1.3-.339-1.446-1.392-.138-1.036-.166-2.137-.193-3.213-.236-8.935 1.587-18.53-.882-26.788a95.92 95.92 0 012.866-10.919c.17-.517-.176-1.029-.567-1.076a.71.71 0 00-.226.006c-.364.069-.645.431-.788.862a94.443 94.443 0 00-2.374 8.595 1.131 1.131 0 00-.534.698 135.097 135.097 0 00-3.87 17.723 130.798 130.798 0 00-1 8.937c-.19 2.517-.142 5.256-1.158 7.707-1.078 2.599-3.26 3.776-5.427 4.389-.744.208-1.495.381-2.247.524-1.712.327-3.435.507-5.125.625-5.256.373-10.4-.131-15.491-.741-2.432-.295-5.36-.238-7.39-1.691-.937-.677-1.718-1.789-1.782-3.203-.043-.778.166-1.553.469-2.302-.042-1.133.109-2.294.407-3.431l-.097.001c1.339-8.397 2.686-16.787 4.023-25.176.427-2.648.846-5.286 1.272-7.926.072.353.317.622.736.542m-.594-1.451c.12-.723.232-1.436.344-2.157.606.481 1.255.901 1.949 1.175-.554.209-1.11.385-1.678.511a.926.926 0 00-.615.471m1.695 98.74c-.24-5.995-.474-12-.714-18.004l-.03-.116c.163-11.37.324-22.749.493-34.121 1.508.171 3.03.312 4.53.457 2.823.291 5.66.492 8.529.48 2.802-.008 5.633-.185 8.473-.676l.495-.095a355.435 355.435 0 00-3.92 29.003c-.066.133-.12.29-.134.466a884.08 884.08 0 00-1.684 23.286c-.03.515.235.75.56.774.283 3.343.668 6.7.092 10.155-.673 4.061-2.3 7.95-4.08 11.678-.378.79-.756 1.605-1.15 2.423-.05-.413-.293-.773-.76-.719-.75.085-1.501.199-2.25.343-4.127.788-8.228 2.451-12.1 4.887-.08-4.453-.67-8.783-1.756-12.87a.89.89 0 00-.17-.34c.437-.55.867-1.098 1.267-1.633 2.179-2.897 3.84-6.023 4.29-9.687.233-1.946.178-3.828.085-5.712l-.066.021m54.702-60.064a69.624 69.624 0 008.864-2.283 8122.433 8122.433 0 00-6.118 54.702c-.256 2.392-.638 4.841-.79 7.239-.134.31-.164.688-.024.964.064 1.206.55 2.28 1.733 2.123l.047-.008c.285-.054.477-.242.598-.478 2.79 1.904 5.35 4.284 7.46 7.114l-.06.098c-.943 2.306-1.487 4.735-1.536 7.138a17.138 17.138 0 00.289 3.567c.044.216.14.449.132.675-.005.166.04.192.03.193-.007.002-.043-.009-.15.011-.42.072-.953-.164-1.366-.206a14.705 14.705 0 00-4.426.185c-2.621.501-5.235 1.675-7.644 3.426a.956.956 0 00-.121 1.501c-2.666-1.211-5.17-2.859-7.198-5.013-1.86-1.987-2.985-4.598-3.223-7.75-.101-1.381-.061-2.789.045-4.209v-.009c.136-1.72.376-3.451.645-5.171.096-.156.17-.335.193-.555a663.927 663.927 0 002.225-48.021 627.6 627.6 0 00-.011-13.515c0-.095-.03-.159-.044-.234 2.913-.314 5.826-.68 8.747-1.178a85.78 85.78 0 001.703-.306M17.29 288.121a18.467 18.467 0 004.253-1.375c3.566-1.649 6.004-4.63 8.006-8.496 2.01-3.875 3.962-7.861 5.308-12.033.29-.894.528-1.803.744-2.709-.47 6.486-3.166 13.024-7.248 18.117-3.277 4.09-8.167 7.833-12.843 8.727-1.95.372-3.863.249-5.607-.553-2.01-.922-3.58-3.102-3.93-5.689.126.201.25.402.39.582a.689.689 0 00.289.386c2.485 3.081 6.593 3.816 10.638 3.043m.074-1.874a14.223 14.223 0 01-3.441.243c-3.134-.171-6.051-1.774-7.287-5.125a8.632 8.632 0 01-.294-.99c.06-.158.105-.322.17-.482l.054-.157a5.593 5.593 0 01-.154-.878.726.726 0 00-.28-.214c-.083-3.666 2.275-7.046 4.698-10.12 1.078 4.211 1.617 8.654 1.6 13.264 0 .475.378.907.799.827a.638.638 0 00.236-.1c4.066-2.74 8.375-4.561 12.746-5.395a29.354 29.354 0 012.22-.34c.066-.012.118-.044.183-.071-1.247 2.494-2.678 4.902-4.677 6.537-1.93 1.572-4.278 2.562-6.573 3.001m62.319-4.322c-2.331.445-4.703-.138-6.86-.626-5.793-1.297-11.88-3.997-14.262-10.586-.558-1.536-.873-3.221-.93-4.957.367 1.867 1.029 3.598 2.12 5.11 3.096 4.292 8.11 6.8 12.824 8.233 2.438.739 5.364 1.309 8.172.772 1.804-.345 3.56-1.145 5.107-2.651-.852 1.416-1.971 2.64-3.265 3.51a7.758 7.758 0 01-2.906 1.195m3.325-9.151c.81-.154 1.468-.858 1.609-1.861.157-1.084-.277-2.16-.357-3.19-.18-2.299.164-4.699.982-6.981 2.277 3.584 3.96 9.149.78 13.801-1.4 2.046-3.274 3.031-5.238 3.406-2.207.421-4.526.073-6.41-.404a30.688 30.688 0 01-4.691-1.619c.08.012.164.013.25-.004a.81.81 0 00.335-.151c1.99-1.452 4.166-2.446 6.363-2.926.13-.028.26-.055.39-.08a13.45 13.45 0 012.81-.255c1.006.015 2.01.394 3.023.287.052-.006.104-.013.154-.023" fill="#231F20" mask="url(#b)"/></g></g></svg>