<svg width="500" height="600" xmlns="http://www.w3.org/2000/svg" xmlns:xlink="http://www.w3.org/1999/xlink"><defs><path id="a" d="M116.358.818l-.516 277.603L.865 299l.516-277.604"/><path id="c" d="M116.358.818l-.516 277.603L.865 299l.516-277.604"/><path id="e" d="M116.358.818l-.516 277.603L.865 299l.516-277.604"/><path id="g" d="M116.358.818l-.516 277.603L.865 299l.516-277.604"/></defs><g fill="none" fill-rule="evenodd"><path d="M318.806 302.523c-.28-1.731-1.22-3.225-2.476-4.466-.093-.093-.194-.176-.29-.265-.223-.42-.462-.831-.673-1.257-.242-.484-.732-.804-1.269-.928-1.035-1.46-2.19-3.033-4.028-3.332-2.277-.371-3.85 1.749-3.417 3.87.423 2.068 2.157 4.009 3.43 5.623a36.586 36.586 0 003.915 4.206c-.32-.21-.65-.41-.976-.596a27.866 27.866 0 00-2.586-1.311c-2.333-1.033-4.786-1.985-7.372-1.432-1.025.22-1.716 1.474-1.397 2.46a2.1 2.1 0 00.674 1c.141.433.418.817.855 1.046a37.81 37.81 0 015.326 3.38c.18.14.36.283.536.427.436.354.864.716 1.315 1.052.164.122.352.214.534.316-2.17-.344-4.349-.63-6.535-.85l-.098-.078c-.108-.083-.214-.172-.328-.245-.227-.146-.499-.242-.743-.342a1.82 1.82 0 00-.453-.123c-.223-.031-.449-.073-.675-.084a1.502 1.502 0 00-.77.173 1.49 1.49 0 00-.645.413 1.503 1.503 0 00-.414.644 1.5 1.5 0 00-.17.77l.006.06c-.19 1.006.345 2.132 1.408 2.384a14.505 14.505 0 011.807.548c.086.032.172.066.257.1.763.353 1.5.746 2.196 1.216.174.118.343.242.514.364l.01.007a15.468 15.468 0 011.023.905c.467.444 1.013.792 1.591.967l-.168.315a1.739 1.739 0 00-.796-.45c-1.694-.382-3.45-.551-5.186-.441-.12.008-.24.025-.357.047-.907-.29-1.908-.058-2.429.833-.506.865-.266 2.278.718 2.736l.373.174c.208.456.597.844 1.196 1.05 1.035.359 2.07.716 3.105 1.073 1.074.372 2.274.976 3.438.779 2.218-.376 3.093-3.216 4.012-4.95 1.112-2.1 2.218-4.203 3.318-6.31 1.081-2.07 2.334-4.133 3.202-6.303.753-1.881.394-3.54-.508-5.175M250.03 435.478c-.346-1.173-1.54-1.617-2.725-1.441l-10.338 1.529c-3.01.445-6.426 1.376-9.443.592-2.326-.604-3.515 2.145-2.167 3.44-.021.102-.048.2-.056.312-.832 11.529-1.551 23.089.333 34.564-.55 7.902 1.72 16.02-.768 23.739a2.186 2.186 0 00-.091.434 204.134 204.134 0 01-6.264 8.866c-1.792 2.392-3.566 4.948-4.091 7.828-.345.267-.65.62-.716 1.024-.21 1.252-.336 2.42-.092 3.675.242 1.238 1.03 2.324 2.086 3.084.446.32.918.562 1.405.757.274.389.678.694 1.207.81a13.05 13.05 0 007.83-.733c.028-.001.05.004.077.003 3.573-.15 5.844-2.242 7.583-4.798a30.706 30.706 0 002.605-2.276c.396-.392.648-.914.648-1.46 0-.163-.034-.336-.082-.51 3.758-7.217 8.109-14.901 7.447-22.998.152-.357.199-.772.083-1.237-1.142-4.556-.408-9.323.017-13.922l1.374-14.865c.053-.567-.118-1.005-.41-1.328a113.158 113.158 0 013.68-22.821c.736-.485 1.097-1.492.868-2.268m48.255 66.433c-1.356-3.668-3.627-7.049-6.658-9.619-1.672-1.417-3.556-2.645-5.824-2.837-.084-.007-.17-.002-.253-.006.21-4.117.617-8.224 1.257-12.3.536-.387.87-1.016.924-1.713l1.76-22.6a1.663 1.663 0 00-.216-.93c.978-7.205 1.912-14.416 2.759-21.637.025-.22-.012-.43-.078-.632.22-.993.43-1.988.67-2.977.455-1.873-1.49-3.18-3.188-2.382-5.138 2.415-10.5 4.316-16.017 5.732-1.655.424-1.86 2.116-1.151 3.204-.004.025-.011.048-.014.073-.04.342-.035.675-.004 1.004a1.934 1.934 0 00-.317 1.162c.108 3.585.215 7.169.324 10.753.04 1.353.068 2.71.153 4.062l-.015.178c-.014.179.01.352.054.52.005.067.005.133.01.199.046.5.093 1.066.17 1.641-.435.502-.592 1.189-.461 1.926a49.022 49.022 0 01.226 1.394l.012.092c.023.187.047.374.068.561 0 .004 0 .008.002.013-.03.274-.064.549-.09.823-.205 2.172-.397 4.346-.595 6.52-.013.132-.003.264.019.393-.376.376-.617.862-.548 1.39.626 4.798-.406 9.763-.678 14.563a162.138 162.138 0 00-.2 12.988c-.588.317-1.018.902-1.022 1.755l-.033 8.314c-.005 1.239-.121 2.566.226 3.774.363 1.262 1.247 2.195 2.204 3.07 3.602 3.293 7.87 6.045 12.94 6.315.162.008.318-.009.47-.04l.554-.073c.232-.063.437-.17.63-.297 3.633.657 7.56-.355 10.108-3.06 2.995-3.18 3.279-7.376 1.822-11.316" fill="#E4C3A2"/><path d="M248.695 433.799c-1.063-1.761-3.291-1.36-5.016-1.24a88.357 88.357 0 00-5.26.534 90.77 90.77 0 00-10.746 2.063c-2.572.66-1.482 4.643 1.097 3.98.558-.143 1.117-.275 1.678-.408.153.04.316.07.493.078 3.184.153 5.184 3.188 6.136 5.91 1.276 3.65 1.924 7.596 2.547 11.4 1.303 7.974 1.72 16.082 1.37 24.15-.009.2.013.38.049.55.004.11.018.225.047.343a34.896 34.896 0 01.784 11.355 1.483 1.483 0 00-.438 1.03c-.145 3.927-1.222 7.714-2.689 11.34-1.352 3.346-2.948 6.696-4.891 9.74-1.749 2.742-4.07 5.404-7.18 6.6-2.788 1.073-6.223 1.136-8.605-.887-1.511-1.282-3.711.898-2.189 2.189 2.851 2.42 6.583 3.01 10.172 2.13 3.893-.952 6.938-3.603 9.289-6.748 2.511-3.358 4.33-7.3 5.953-11.146 1.403-3.326 2.488-6.757 2.972-10.314.129-.157.222-.341.258-.55a38.656 38.656 0 00-.147-14.117c.418-.332.712-.835.743-1.514.209-4.807.12-9.618-.24-14.41.866-.45 1.333-1.393 1.088-2.39a19.711 19.711 0 01-.259-1.2c-.032-.172-.059-.345-.087-.52l-.012-.07-.007-.076a20.88 20.88 0 01-.124-2.278c.004-.741.022-1.513.146-2.246l.029-.175a19.743 19.743 0 01.365-1.717c.145-.565.027-1.184-.281-1.677a28.14 28.14 0 00.343-4.213c.223-1.932.533-3.851.957-5.756a59.404 59.404 0 011.392-5.164c.476-1.493 1.163-3.087.263-4.576m45.572 75.904a13.566 13.566 0 01-9.789 3.341c-3.248-.207-7.148-1.798-9.073-4.546a1.58 1.58 0 00-.668-.551c-5.915-8.953-1.667-21.382-1.31-31.248.02-.524-.183-.906-.49-1.154.562-6.907.82-13.835.761-20.765.297-.249.517-.607.558-1.093.86-10.313 6.792-19.882 15.507-25.397.607-.029 1.017-.352 1.23-.781 1.385-.877.57-3.401-1.188-2.809-3.408 1.148-6.815.297-10.224 1.446-1.785.602-3.572 1.198-5.355 1.805-1.275.435-2.4-1.088-2.744.343-.374 1.56-.123 7.43-.14 9.029a9506 9506 0 00-.06 5.369l-.11 9.95c-.34.246-.578.64-.57 1.193a230.823 230.823 0 01-.874 23.21c-.05.573.176.973.521 1.215-.4 6.208-1.753 12.84-1.536 19.14a1.27 1.27 0 00-.495.776 14.98 14.98 0 00-.154 3.976 1.235 1.235 0 00-.086.531c.206 2.853 1.37 5.522 3.382 7.566.396.403.983.507 1.507.365.303.413.621.823.967 1.225.303.352.653.496.996.502 2.572 2.204 6.006 3.485 9.306 3.774 4.495.393 8.96-1.27 12.32-4.223 1.5-1.317-.697-3.5-2.189-2.189" fill="#C3996B"/><path d="M307.182 325.017a37.354 37.354 0 01-2.012-.3c-1.759 1.798-3.6 3.515-5.31 5.362-2.76 3.976-5.516 7.992-10.482 9-1.753.356-3.545.337-5.323.387-2.269.066-4.538.084-6.808.09-4.614.013-9.229-.026-13.84.144-.797.029-1.733-.624-1.879-1.43a19.184 19.184 0 01-.227-1.773c-.018-.063-.04-.12-.054-.188a14.365 14.365 0 01-.14-4.054 1.978 1.978 0 01-.782.163h-1.4c-.46 0-.883-.175-1.22-.453a40.175 40.175 0 01-.994 2.308 21.194 21.194 0 01-1.332 2.375c-1.843 4.28-5.82 7.448-11.017 7.532-.555.01-.988-.18-1.3-.473-.858.164-1.727.255-2.622.194-.03-.003-.059-.012-.09-.016l-.354.074c-2.79.852-5.712 1.329-8.475.712a1.9 1.9 0 01-.51-.21c-1.87-.064-3.69-.434-5.325-1.085-.129.583-.259 1.165-.398 1.747.028.238.015.479-.053.708-.184.613-.367 1.225-.552 1.837-.872 4.788-1.727 9.58-2.548 14.378-.395.892-.79 1.784-1.187 2.676.887.683 1.685 1.519 2.488 2.356.332.15.661.306.998.443.702.286 1.248.823 1.391 1.514.773.158 1.531.361 2.276.602 1.97.441 3.935.92 5.548 2.117 2.087.402 4.201.671 6.325.866.218-.083.464-.133.746-.128 10.908.205 21.687-1.753 32.55-2.348a175.876 175.876 0 007.767-2.705c3.782-1.406 7.658-2.726 11.265-4.485.621.074 1.307 0 2.06-.3 6.075-2.435 10.926-6.672 13.006-13.058 2.402-7.378.584-14.949-.39-22.402.102-.723.171-1.45.204-2.178m15.553-32.514c-.066-2.535-.88-4.986-1.528-7.43-.376-1.418-.649-2.81-.687-4.278-.041-1.626-.002-3.253-.502-4.824-.232-.733-.836-1.04-1.439-1.037-.406-1.818-.92-3.608-1.477-5.399a1.605 1.605 0 00-.178-.38c.388-1.219.735-2.47.997-3.72a164.583 164.583 0 01-2.78-2.357 27.7 27.7 0 00-1.96-1.029c-2.574-1.227-5.235-2.259-7.629-3.834a2.132 2.132 0 01-.893-1.223 53.757 53.757 0 01-1.767-.983 45.922 45.922 0 01-3.456-2.206c-2.75-.804-5.571-1.416-8.262-2.113-.681-.177-1.081-.602-1.263-1.105-2.233-.31-4.485-.51-6.712-.837-1.405-.136-2.801-.367-4.079-.828-.37-.1-.741-.193-1.109-.31-.026-.009-.044-.025-.069-.034a43.364 43.364 0 00-3.443-.172c-.05.123-.092.25-.145.373-.045.104-.095.208-.142.313-.078-.076-.14-.167-.24-.22l-.358-.152a1.521 1.521 0 00-.798 0l-.358.152a1.492 1.492 0 00-.538.538.346.346 0 00-.039.063 2.714 2.714 0 00-.176.421c-.042.141-.059.39-.069.465a.471.471 0 00-.004.075l.003.037c.014.13.037.28.055.407a.4.4 0 00.022.09l.006.018a8.504 8.504 0 00.173.402l.02.032.011.015c.077.104.162.215.244.315.097.105.213.18.337.241-1.427 1.904-3.334 3.47-5.639 3.987-1.484.334-3.113.217-4.375-.704-1.246-.909-1.873-2.189-2.203-3.603-4.498 1.43-8.976 2.933-13.296 4.831-2.477 1.087-4.921 2.31-7.241 3.716-.153.212-.332.402-.566.52-.546.274-1.074.577-1.6.884-2.479 1.711-4.752 3.694-6.683 6.046-2.688 5.456-6.899 9.99-10.524 14.827-4.11 5.485-7.463 11.59-10.742 17.593a1.903 1.903 0 01-.574.66c1.351 3.985 3.008 7.85 5.266 11.413a37.184 37.184 0 003.124 4.203c.14.091.283.18.427.265.36.211.73.405 1.104.59 1.52.751 3.117 1.361 4.519 2.33.38.263.65.606.803.987.266.097.507.235.711.438l.304.394c.005.006.006.013.01.02.451.054.901.12 1.346.205.395.076.703.3.935.59.345.076.672.237.942.466.321.196.571.474.729.803.006-.005.014-.007.019-.012l-.007.04c.017.036.019.078.034.115 2.646.408 5.014 1.833 7.532 2.717 1.588.558 3.313.631 4.982.717 1.219.063 2.439.08 3.659.087a42.74 42.74 0 011.494-4.869c2.24-5.98 5.922-12.016 10.931-16.108-.427-2.798-.786-5.605-.947-8.434-.076-1.348 1.242-2.08 2.369-1.87.36-.103.727-.18 1.088-.274-.127-1.955 1.12-3.673 2.836-4.727 2.114-1.3 4.695-1.886 7.108-2.324 3.148-.572 6.348-.874 9.541-1.06 3.735-.219 7.51-.319 11.263-.207.003-.445.149-.895.533-1.278a53.592 53.592 0 014.903-4.292c1.689-1.312 3.449-2.645 5.399-3.545 1.572-.726 3.286-1.096 4.86-.145 1.366.826 2.28 2.3 3.276 3.501.173.21.287.425.376.642.168-.145.33-.298.498-.443.272-.264.553-.52.854-.759.303-.24.627-.37.95-.429.084-.346.181-.686.268-1.032.14.01.281.001.42-.042.007 0 .015-.004.022-.005a1.052 1.052 0 00-.005.297c.157 1.24.327 2.478.511 3.713-.349 1.105-.406 2.294-.425 3.464-.03 1.712.018 3.423.118 5.132-.309.462-.37 1.062-.067 1.582a72.628 72.628 0 004.618 6.958c.294.392.596.65 1.095.716.451.06.943-.063 1.261-.413 1.114-1.229 1.744-2.836 1.827-4.475.337-.688.53-1.425.545-2.196a4.931 4.931 0 00-.284-1.689" fill="#27A9E0"/><path d="M260.007 254.004a.906.906 0 00-.281-.734c-1.072-1.058-2.54-.748-3.743-.124-.612.317-1.22.604-1.844.855l-.057.009c-1.701.329-3.338.889-4.911 1.612-.375.173-.531.627-.471 1.026a37.762 37.762 0 00-5.67 2.25 37.136 37.136 0 00-5.022 2.995c.365-.366.714-.748 1.085-1.107-.526.268-1.036.562-1.545.858-2.465 1.706-4.727 3.68-6.647 6.022-.124.25-.267.49-.397.739-.99.913-1.981 1.825-2.968 2.742-.968.9-1.938 1.867-2.55 3.056-.61 1.185-.842 2.537-1.556 3.669-.693 1.099-1.753 1.935-2.746 2.75-.538.44-.362 1.046.062 1.389-.122.16-.25.32-.37.48-4.11 5.487-7.463 11.592-10.741 17.595a1.922 1.922 0 01-.574.659c1.35 3.986 3.008 7.85 5.265 11.413a37.408 37.408 0 003.124 4.204c.14.09.284.18.427.264.36.212.73.406 1.105.59 1.519.752 3.117 1.36 4.518 2.33.38.263.65.606.804.987.265.098.507.236.71.438l.305.394c.004.007.005.014.009.02.45.055.902.12 1.347.205.394.077.702.299.935.589.354.08.69.246.965.486.09.058.18.116.258.186.775-1.101.746-2.665-.265-3.644-3.043-2.945-6.165-5.83-9.108-8.875-.117-.121-.23-.244-.345-.366l-.162-.22a21.863 21.863 0 01-1.482-14.736c.29-.1.527-.33.606-.742.884-4.662 2.662-8.958 4.938-13.011.674-.592 1.312-1.22 1.849-1.951.79-1.074 1.105-2.332 1.602-3.542a94.985 94.985 0 011.87-2.614c.178-.175.357-.348.538-.52.783-.73 1.572-1.454 2.36-2.18.278.063.576 0 .823-.3a36.246 36.246 0 0111.983-9.524 34.994 34.994 0 017.237-2.612c2.87-.695 5.803-1.093 8.59-2.104.943-.342.82-1.59.14-1.906m9.464 116.396c-.42-.484-1.047-.786-1.74-.852-2.986-.284-5.839.736-8.662 1.546-.765.22-1.548.416-2.326.547 4.243-.42 8.481-.903 12.728-1.242" fill="#1C75BB"/><path d="M233.864 325.08c2.034-9.002 5.157-17.881 7.519-26.616 1.324-4.901 2.387-9.844 3.06-14.876.164-1.214-1.155-2.263-2.262-2.263-1.357 0-2.1 1.046-2.262 2.263-1.838 13.724-7.173 26.643-10.3 40.065 1.472.27 2.864.829 4.245 1.428m17.106 45.867a25.544 25.544 0 01-11.422-7.463c-4.03-4.57-5.73-10.469-7.027-16.295a2.121 2.121 0 00-.535-1.026c-.042-.476-.056-.95-.084-1.427-.127-.024-.255-.039-.38-.066a1.935 1.935 0 01-.512-.21c-1.869-.064-3.687-.434-5.322-1.085-.13.59-.258 1.178-.399 1.765.025.232.012.467-.054.69l-.659 2.191c-.918 3.633-1.874 7.262-2.422 10.972-.078.525-.45.93-.917 1.17a35.71 35.71 0 01-1.083 4.014c1.225.741 2.248 1.821 3.282 2.9.332.15.661.305.998.443.702.286 1.248.823 1.39 1.514a21.11 21.11 0 012.277.602c1.97.441 3.935.92 5.548 2.117 2.087.402 4.201.671 6.325.867.218-.083.464-.134.746-.129 4.875.092 9.724-.25 14.565-.709-.986.022-1.937-.126-2.793-.589a2.376 2.376 0 00-1.522-.246m57.202-36.257a2.17 2.17 0 00-.166-1.378 2.56 2.56 0 00-.3-.659c-.001-.067.002-.132 0-.198a2.145 2.145 0 00-.055-.455c.203-.182.347-.449.373-.807a35.632 35.632 0 00-.06-5.63c.026-.15.056-.298.084-.448a44.758 44.758 0 01-2.864-.413c-.669.683-1.346 1.36-2.029 2.028-1.224 6.624-2.46 13.312-4.707 19.62-2.409 6.763-6.604 13.11-13.26 16.257-2.632 1.244-.337 5.147 2.284 3.908a23.86 23.86 0 004.898-3.109c.385.151.829.201 1.328.09 5.323-1.176 8.958-5.624 10.942-10.464.416-1.015.73-2.056 1.009-3.105a2.807 2.807 0 001.4-1.194c.562-.937.587-1.99.67-3.048l.103-1.27c.294-1.6.432-3.228.389-4.852-.001-.064-.017-.125-.022-.188a41.137 41.137 0 00-.017-4.685" fill="#1C75BB"/><path d="M302.117 396.46c-.08-.448-.155-.897-.232-1.346-.188-1.088-.371-2.18-.48-3.279-.076-.787-.142-1.792.342-2.47l-1.301-9.674c.053-4.063.222-8.127.433-12.197a3.04 3.04 0 00-.276-1.482c.188-.48.387-.954.602-1.416-.032-.197-.062-.395-.095-.592a66.74 66.74 0 00-.493-2.575 2.43 2.43 0 01-.046-.459c-2.163 1.471-4.807 2.396-7.16 3.164-4.833 1.578-9.688 2.836-14.664 3.882-1.042.22-1.825-.338-2.195-1.087-20.42 5.815-25.26 6.671-46.366 8.024a4.374 4.374 0 00-.58.085c-.943-.904-2.465-1.126-3.707-.665-1.116 5.113-1.237 10.424-2.298 15.558-.012.526-.02 1.053-.034 1.58a3.194 3.194 0 00-.348.955c-2.354 12.534-6.631 26.218-5.94 39.188l.696.353c.19.095.379.19.57.28.044.021.26.113.367.16.35.132.7.243 1.066.335 2.032.51 4.152.604 6.16 1.202.306.091.564.25.778.448 1.036.048 2.062.075 3.056.107 3.244.104 6.486.205 9.73.251 1.638.023 3.292.09 4.928-.036 1.578-.12 3.137-.364 4.722-.389.064 0 .114.016.174.02 1.977-.565 3.949-1.144 5.96-1.577 2.967-4.957 2.577-11.614 3.282-17.249 1.046-8.366 3.047-16.62 5.87-24.589-.52 3.335-.481 6.752-.104 10.415.486 4.718.699 9.387.748 14.077l-.338 2.38c-.1.702-.131 1.327.087 1.957a23.173 23.173 0 00-.18 5.361c-.852 1.278-.735 3.167.353 4.268.29-.206.664-.33 1.122-.32 2.088.045 4.14-.166 6.179-.476.315-.303.59-.643.797-1.015.118-.028.234-.06.353-.089.6.25 1.293.342 2.054.18 4.87-1.05 9.589-2.454 14.187-4.349 3.458-1.425 7.96-2.905 10.462-5.806 2.217-2.572 2.293-5.74 2.026-8.937-.352-4.189-.61-8.105-.267-12.156" fill="#594A41"/><path d="M300.617 361.43a2.37 2.37 0 01-.046-.446c-2.163 1.467-4.81 2.383-7.16 3.15-2.8.915-5.61 1.71-8.442 2.43-.121.056-.237.116-.357.17-.035-.02-.074-.033-.111-.052-1.905.477-3.82.928-5.754 1.335a2.017 2.017 0 01-.908-.012l-4.27 1.252a2.326 2.326 0 00-1.107.733c-1.833.22-3.66.496-5.404 1.106-.544.19-1.207-.792-1.496-.345a2.157 2.157 0 00-.765-.084c-4.402.317-7.585-.17-11.782 1.084-.158-.18-1.274-.721-1.49-.845l-.526-.218a2.269 2.269 0 00-1.174 0l-2.148.65a1.663 1.663 0 00-.751.388c-.19.12-.337.28-.464.46a2.51 2.51 0 00-1.248-.057c-.325.067-.528.109-.654.137-.163.026-.37.06-.664.11-.186.032-.374.06-.56.089-.125-.02-.253-1.03-.386-1.025-1.024.037-2.037-.844-3.04-.681-1.595.064-3.19.034-4.78-.107-.681-.06-1.34-.672-1.76-.122-1.812-.125-3.624-1.25-5.437-1.375a1.819 1.819 0 00-.771.128c-.085-.015-.17-.026-.255-.041-.047-.01-.093.002-.14.004.249.393.33.9.129 1.493-2.266 6.644-1.948 13.798-3.604 20.578-.135.548-.432.91-.8 1.132-.068.323-.14.638-.214.94a2.235 2.235 0 00.6 2.11c-2.08 3.82-3.264 8.017-3.6 12.337-.043.556.105.994.36 1.327l-.752 5.682c-.337 2.537-.808 5.096-.914 7.655-.024.595-.007 1.17.04 1.733-.267.367-.44.817-.494 1.302l-.664 5.908c.377.182.748.376 1.12.565.19.095.38.189.57.279.045.022.262.114.368.16.35.133.7.244 1.066.336 2.032.508 4.152.604 6.16 1.202.306.09.564.25.779.448 1.013.048 2.018.074 2.993.105a17.048 17.048 0 01-3.24-2.77c-1.28-1.387-2.542-2.852-3.406-4.532-1-1.945-.976-4.065-.764-6.184.475-4.757 1.24-9.501 1.87-14.241.059-.452-.102-.878-.381-1.233 1.49-8.647 7.463-15.383 14.818-20.271a54.65 54.65 0 0124.135-8.76c.477.636 1.263 1.057 2.26.87 12.606-2.362 24.668-7.33 35.212-14.498.165-.112.298-.237.418-.368-.072-.373-.137-.748-.215-1.121m2.735 54.537l.01-.022c-.31-2.176-.643-4.357-.673-6.623-1.204-.147-2.495.534-2.425 2.061.16 3.42-3.402 5.503-6.217 6.657-4.03 1.652-8.416 2.79-12.612 3.968-3.36.943-7.54 1.773-10.613-.426-1.052-.753-1.68-1.764-2.05-2.895l.248-2.39c.062-.6-.255-1.18-.729-1.592.014-.907.078-1.8.13-2.627.173-2.78-4.245-2.772-4.419 0-.14 2.255-.172 4.656.325 6.88a1786.89 1786.89 0 00-.338 3.247c-.178 1.708-.556 3.5-.32 5.214.128.94.535 1.781 1.137 2.421.308-.44.81-.748 1.52-.732 2.926.064 5.783-.37 8.632-.889.043-.1.097-.196.122-.306.203-.192.37-.418.483-.669 2.033.025 4.101-.294 6.056-.796 2.662-.683 5.28-1.557 7.907-2.357 2.486-.759 4.977-1.5 7.347-2.573 2.467-1.115 4.885-2.864 6.365-5.123.038-.142.074-.286.114-.428" fill="#3B2314"/><path d="M274.07 313.513a20.39 20.39 0 00-2.405-2.24c.917.028 1.815-.121 2.661-.638 1.042-.637 1.394-2.265.405-3.142-2.776-2.46-6.467-3.115-10.076-2.853-3.312.24-7.229.947-8.921 3.992-.083.06-.166.122-.249.184-1.061.787-2.151 1.58-2.991 2.613-1.481 1.82-2.312 3.96-3.007 6.166-2.363 3.92-3.656 8.632-4.703 13.04-.032-.03-.058-.067-.094-.096.457-.566.215-1.66-.738-1.667-2.046-.016-3.944-.913-5.772-1.743-1.692-.768-3.344-1.612-4.985-2.483-2.883-1.53-5.804-3.064-8.998-3.804 0-.34-.177-.646-.481-.862-2.011-1.425-4.083-2.793-5.989-4.357-1.284-1.052-2.47-2.211-3.414-3.56-.007-.045-.018-.088-.025-.133-.035-.23-.19-.402-.379-.528-.173-.284-.358-.558-.508-.858-.43-.865-1.509-.511-1.779.205-.199.16-.333.405-.321.744.068 1.899.188 3.795.353 5.687-.538-.061-1.131.246-1.145.945-.067 3.534.654 7.003 2.054 10.242.128.298.442.44.764.467.211.923.48 1.825.94 2.675a.858.858 0 00.768.478.993.993 0 00.086.294c1.638 3.295 4.137 6.123 7.175 8.19.056.08.109.162.181.239 2.668 2.869 7.217 3.62 10.924 4.056 3.884.457 7.848.144 11.639-.807.746.35 1.618.233 2.271-.366l.065-.057c.078-.05.156-.103.236-.15.119-.068.24-.132.363-.192l.022-.01a.801.801 0 01-.068.02c.451-.122.91-.34 1.343-.513 1.162-.464 2.212-1.044 3.091-1.956.045-.047.084-.1.128-.148.705.025 1.371-.32 1.808-.965 1.512-2.24 2.292-5.03 2.177-7.737.48.045.959.09 1.44.13a7.032 7.032 0 001.811.683c.989.212 2.251-.288 2.461-1.397a4.188 4.188 0 00-.281-2.475c-.104-1.573-1.299-2.864-2.701-3.765.118-.037.231-.084.345-.134.323.126.644.24.946.352 1.665.607 3.42.942 5.185 1.082.85.067 1.705.074 2.557.017a21.276 21.276 0 001.55-.17c.052-.007.11-.011.168-.016 1.231.808 3.097-.244 3.009-1.727-.077-1.268-.69-1.867-1.54-2.122l-.207-.16c-.456-1.387-1.378-2.646-2.296-3.748-.092-.111-.192-.214-.289-.318l2.181.445c.97.199 1.916.409 2.871.04.997-.385 1.725-1.356 1.696-2.45-.028-1.073-.623-1.875-1.312-2.64m-26.073 29.673c.396-.11.145-.063 0 0" fill="#E4C3A2"/><path d="M243.513 328.008c-2.656.073-5.02-1.062-7.356-2.2-2.307-1.122-4.657-2.132-7.095-2.927a2.962 2.962 0 00-2-1.498 1.684 1.684 0 00-1.188.198c-.294-.177-.58-.372-.862-.565-1.06-.725-2.083-1.432-3.296-1.883-.586-.218-1.18-.356-1.7-.72-.538-.376-1-.891-1.46-1.357a45.599 45.599 0 01-3.122-3.512 1.29 1.29 0 00-.799-.414 1.467 1.467 0 00-.37-.33c.028-.333.05-.665.087-.996.092-.806-.756-1.5-1.5-1.5-.888 0-1.407.69-1.5 1.5a38.455 38.455 0 00-.057 8.273c.04.386.18.719.393.973-.784.85-.446 2.592 1.034 2.544 5.444-.18 10.846.587 16.011 2.326 4.851 1.632 9.49 5.233 14.78 5.088 1.927-.053 1.935-3.053 0-3" fill="#C3996B"/><path d="M275.302 308.32c-6.034-5.906-15.3-4.697-21.21.686-.557.507-.573 1.132-.306 1.634a32.481 32.481 0 00-6.106 10.55c-.164.467-.094.865.108 1.17-.143.431-.288.86-.434 1.285-1.112 3.215-2.222 6.43-3.332 9.645-.633 1.828 2.264 2.614 2.892.797l3.218-9.312c.966-2.794 1.754-5.759 3.491-8.195.213-.299.251-.668.175-1.019a29.852 29.852 0 015.386-6.074c.221-.189.331-.415.394-.647 4.418-2.197 9.813-2.108 13.602 1.602 1.381 1.351 3.504-.768 2.122-2.122" fill="#C3996B"/><path d="M323.016 290.663c.051-.94.055-1.883-.008-2.829a1.098 1.098 0 00-.387-.752c.01-.141.02-.281.025-.419a16.432 16.432 0 00-.682-5.293c-.367-1.23-2.298-.706-1.928.532.453 1.518.626 3.051.596 4.618a1.03 1.03 0 00-.106.431c-.012.383.011.76.048 1.136-.053 1.228-.03 2.43.38 3.599-.007.059-.01.118-.018.177-.01.109-.024.217-.036.326-.005.041-.046.367-.018.153-.02.156-.03.3-.01.44a.912.912 0 00-.336.709c.001.13 0 .26-.009.39-.003.044-.008.087-.012.13a4.995 4.995 0 01-.169.682c-.02.062-.043.123-.065.183l-.027.068c-.039.081-.105.21-.113.226a5.64 5.64 0 01-.392.621c-.039.047-.077.093-.117.138a5.016 5.016 0 01-.51.5l-.05.041a.396.396 0 00-.043.035l-.04.024c-.195.136-.4.258-.614.361l-.087.041a4.722 4.722 0 01-.434.141c-.504.138-.864.717-.698 1.23.02.062.06.11.09.165-.229.593.06 1.394.875 1.379a.72.72 0 00.111.278l.574.797c.19.263.402.433.731.477.296.04.633-.039.84-.275a12.996 12.996 0 002.011-3.044c.09-.194.125-.391.11-.596.442-.631.768-1.35.906-2.15.274-1.601-.056-3.134-.388-4.67m-5.859-22.659c-.372-.275-.751-.541-1.127-.812.185-.305.246-.7.08-1.043-1.861-3.854-6.215-5.045-9.53-7.248-.297-.198-.587-.204-.831-.1-.167-.127-.327-.261-.498-.382-1.051-.753-2.381-.928-3.416-1.693-.352-.26-.845-.14-1.162.136a75.123 75.123 0 00-27.467-7.376c-1.284-.092-1.278 1.908 0 2 11.846.85 23.347 4.64 33.405 10.948.104.065.206.102.307.126 0 .166.028.33.125.473 1.034 1.522 2.774 2.357 4.276 3.337a99.28 99.28 0 014.829 3.36c.435.323 1.116.073 1.368-.358.298-.51.077-1.046-.36-1.368" fill="#1C75BB"/><path d="M320.32 305.782c-.104-1.576-.696-2.98-1.445-4.354-.678-1.241-1.39-2.475-2.223-3.62-1.692-2.325-3.918-4.347-6.787-5.024-.788-.186-1.625.247-1.845 1.047-.209.76.256 1.659 1.048 1.846 2.138.505 3.839 2.023 5.111 3.81.705.989 1.317 2.04 1.909 3.1.542.972 1.13 2.013 1.222 3.138-1.957 2.679-3.261 5.67-4.59 8.705a67.942 67.942 0 01-2.308 4.807 61.765 61.765 0 01-1.334 2.366c-.275.463-.696 1.458-1.138 1.636-.625.049-1.182.367-1.37 1.05-.192.7.24 1.735 1.048 1.845 2.203.3 3.157-1.501 4.137-3.163a60.803 60.803 0 002.835-5.414c1.588-3.446 2.854-7.17 5.2-10.203.222-.288.365-.62.404-.955.091-.19.141-.398.126-.617m-60.175 20.187a1.745 1.745 0 00-1.069-.428 9.684 9.684 0 00-1.098-.85c-.658-.43-1.687-.153-2.052.539-.396.748-.165 1.593.538 2.052a8.2 8.2 0 01.272.187c.004 0 .024.015.055.036.002.003.006.005.01.008.044.032.086.066.131.097l-.074-.053a7.704 7.704 0 011.107 1.116c.015.022.032.042.045.06a8.04 8.04 0 01.781 1.34l.03.066.01.027c.191.496.33 1.01.416 1.533.055.335.397.743.69.897.302.16.614.224.956.178.314-.042.64-.172.861-.412.288-.315.383-.643.44-1.061.258-1.937-.583-4.053-2.049-5.332" fill="#C3996B"/><path d="M256.79 327.505c-.017-.013-.035-.024-.054-.037-.005-.002.036.028.122.089l-.005-.005-.062-.047m15.023-6.451c-1.036-1.592-2.563-2.824-4.243-3.684-.72-.369-1.627-.189-2.052.538l-.007.016a13.306 13.306 0 00-4.94-1.12c-.812-.024-1.5.707-1.5 1.5 0 .833.685 1.476 1.5 1.5 1.266.038 2.8.398 3.933.946 1.407.68 2.405 1.426 3.43 2.585.288.325.375.44.567.715.217.312.401.642.6.964.587.951 1.765 1.721 2.877 1.121 1.826-.985.677-3.786-.165-5.08m3.203-4.41c-.757-2.467-2.42-4.628-4.67-5.914-2.49-1.421-5.593-1.703-8.299-.76-.764.266-1.272 1.027-1.048 1.845.204.743 1.078 1.315 1.846 1.048 1.983-.692 4.137-.598 5.985.458.847.483 1.442.996 2.09 1.797.025.03.026.032.034.043l.036.047a9.012 9.012 0 01.771 1.279c.014.029.08.167.1.204.102.244.184.497.262.75.238.775 1.048 1.267 1.845 1.048.766-.21 1.286-1.068 1.048-1.845" fill="#C3996B"/><path d="M290.959 338.568c.143-.256.34-.48.6-.643a1.48 1.48 0 01.465-.406 1.42 1.42 0 01.13-.076c.189-.093.383-.174.58-.245.043-.015.086-.027.13-.037.123-.026.248-.036.372-.05-.025-.077-.047-.154-.074-.23-.042-.118-.113-.219-.178-.323.265-.27.427-.68.353-1.225l-1.784-13.083c-.074-.545-.331-.909-.652-1.117a229.986 229.986 0 00-.861-15.676c0-1.174-.01-2.347-.203-3.507-.247-1.473-.7-2.7-1.376-3.84l.01-.602c.008-.54.02-1.029-.261-1.506-.237-.403-.584-.688-.991-.778-.52-.114-1.105.022-1.627.03a16.245 16.245 0 01-1.308-.033c-.062-.005-.125-.017-.187-.023-2.968.178-5.901.833-8.885.742a2.014 2.014 0 01-.983-.29 2.518 2.518 0 01-.896.29c-5.37.616-10.828-.245-16.173.594-.216.034-.43.036-.64.02a36.513 36.513 0 011.683 4.633c-.006.09-.003.18.002.27a1.08 1.08 0 00-.108.607l.134 1.064c.124.983.856 1.684 1.899 1.446a18.335 18.335 0 014.078-.458c.795-.002 1.522-.685 1.5-1.5l-.038-1.423c5.576-.08 11.153-.059 16.728.092.107.003.193-.023.287-.038.029 3.528.034 7.056.4 10.563-1.066.006-2.131.204-3.188.445-1.58.36-2.73.583-4.326.614-.486.01-.98.303-1.27.717.222.235.399.52.48.82.107.391.279.754.418 1.133.103.275.139.561.163.855.012.141-.013.256-.034.403-.044.333-.065.5-.261.826a2.584 2.584 0 01-.38.495 3.096 3.096 0 01-.51.383 2.789 2.789 0 01-.903.314c-.393.06-.807.125-1.21.111a7.249 7.249 0 01-1.283-.175c-.218-.047-.431-.107-.645-.166-.025.021-.055.04-.075.061a1.585 1.585 0 00-.416.787c.02.012.044.017.066.031.22.14.427.307.628.473.07.06.138.123.2.19.233.248.44.524.623.812.163.257.293.533.426.808.017.022.038.04.054.062.068.071.135.141.209.208.125.116.259.223.393.33.296.234.592.462.844.745.572.642.773 1.588.305 2.36-.99 1.626-3.014 1.971-4.771 1.897-1.38-.058-2.857-.264-4.162-.746-.574-.213-1.003-.597-1.231-1.085a1.568 1.568 0 00-.682.626 1.432 1.432 0 00-.477.3c-.45.45-.516 1.04-.321 1.567.215.278.422.555.579.87l.01.025c.069.088.136.166.204.258-.011.043-.028.085-.04.128.058.135.124.266.172.403.039.115.068.232.087.353.034.22.079.447.08.672.002.217-.041.44-.076.652-.01.054-.022.106-.038.158a2.953 2.953 0 01-.25.578c-.232.383-.511.64-.876.888-.12.081-.25.126-.385.183-.127.054-.25.11-.381.146-.11.606-.103 1.224-.06 1.87l.195 2.812c.026.39.174.743.425 1.013-.774.64-1.154 1.05-.248.956a2.15 2.15 0 001.005-.366c4.146.288 13.337.888 18.54.965.298-.706 1.043-1.223 1.815-1.222 1.849.005 3.693.214 5.526.443.352.001.68.09.984.265l.336.26a66.4 66.4 0 01.634-.012c-.004-.702.325-1.4.972-1.74m9.541-26.941l-.04.062c.122-.106.128-.12.04-.062" fill="#F6931D"/><path d="M300.5 311.629l.003-.004-.002.004" fill="#F6931D"/><path d="M310.38 299.91c-.732-1.066-1.5-2.192-2.015-3.327a2.31 2.31 0 01-.686-.439c-.36-.329-.57-.9-.57-1.377a1.451 1.451 0 01.167-.75c.078-.242.211-.45.402-.627.528-.65 1.394-1.022 2.224-1.03.661-.006 1.344.23 1.894.585a7.18 7.18 0 011.377 1.187c.584-.617.537-1.878-.134-2.4.015-.087.028-.177.023-.272-.088-1.964-.014-4.115.213-5.905.065-.494-.03-1.028-.296-1.399.034-.083.067-.167.104-.247.033-.074.07-.145.108-.216.025-.023.05-.042.074-.065.209-.205.32-.494.353-.8.158-.527.113-1.117-.285-1.535-.473-.495-1.376-.64-1.822.012-.07.102-.122.211-.186.315-1.5 1.427-3.372 2.231-5.166 3.018-1 .44-2.01.88-2.986 1.4a475.526 475.526 0 00-5.805 5.906c-.49.51-1.184.648-1.822.492l.02.802c-.018.058-.038.113-.046.175-.262 1.856-.544 3.757-.378 5.643.044.505.1 1.01.165 1.514-.011.331-.028.663-.033.994-.001.11.028.214.05.32a1.573 1.573 0 00-.044.387l.022 1.02a1.677 1.677 0 00-.134.347c-.375 1.487-.4 3.033-.156 4.55.035.217.163.438.314.618-.411.258-.734.731-.684 1.284.094 1.063.215 2.122.33 3.182v.004c.015 1.735.03 3.471.047 5.206-.09 1.016-.257 2.156-.04 3.115-.12 1.285-.183 2.617.285 3.814.002.627.004 1.253.012 1.88-.013.081-.042.153-.045.238a36.836 36.836 0 00.098 4.983 5.426 5.426 0 00-.48 1.203c-.201.772.255 1.627.912 1.831.69.216 1.374-.279 1.576-1.054.034-.134.218-.529.29-.634.178-.258.385-.49.59-.718.412-.454.9-.91 1.242-1.215 1.024-.908 2.095-1.772 2.993-2.85.484-.582 1.12-1.319 1.203-2.15.002-.022-.003-.044-.002-.065.13-.08.257-.16.386-.242.278-.174.275-.688-.006-.859l-2.319-1.414c-.003-.158-.059-.313-.199-.403-.705-.45-1.292-1.097-1.76-1.854-.241-.39-.83-1.279-.732-1.893.413-.07.794-.295.999-.697.028-.059.059-.117.092-.173l.013-.019.108-.109.017-.01c.055-.037.11-.07.168-.102.04-.022.082-.042.123-.062a5.87 5.87 0 01.66-.183l.125-.022c.152-.01.303-.025.454-.032a8.902 8.902 0 011.007.016c.105.008.278.002.376.036a7.583 7.583 0 01.225.041 8.871 8.871 0 011.454.403l.178.07a.775.775 0 00.046.02c.713.32 1.646.23 2.05-.539.168-.316.224-.725.154-1.103-.497-.25-.994-.503-1.504-.724-.438-.18-.877-.354-1.324-.509a2.176 2.176 0 01-.926-.607 9.86 9.86 0 00-.841-.088c-.282-.218-.566-.433-.843-.66-.108-.089-.214-.186-.322-.276-.467.072-.958.014-1.347-.19-1-.53-1.111-1.737-.698-2.666.48-1.084 1.839-1.436 2.91-1.432 1.92.007 3.89.646 5.697 1.24a61.92 61.92 0 012.072.721c.373-.376.592-.973.438-1.485-.02-.01-.04-.023-.06-.034-1.135-.613-2.322-1.135-3.406-1.84a2.198 2.198 0 01-.542-.504 22.887 22.887 0 00-1.659-.197c-.092-.058-.186-.112-.277-.172a11.66 11.66 0 01-.406-.28c-.07-.049-.137-.1-.206-.15a10.2 10.2 0 01-1.042-.985c-.858-.164-1.718-1.025-1.599-1.919.12-.883.437-1.686 1.268-2.132.545-.293 1.141-.409 1.757-.414.972-.008 1.963.226 2.903.456 1.016.248 1.983.486 2.94.943.923.44 1.758 1.035 2.638 1.555a1.384 1.384 0 00-.022-.844c-.55-1.694-1.49-3.17-2.492-4.628" fill="#F6931D"/><path d="M296.757 318.306c0-.02-.007-.034-.009-.052a252.865 252.865 0 01-.666-15.86 1.56 1.56 0 00-.118-.581c.05-.115.098-.231.147-.347a1.518 1.518 0 000-.797l-.029-.191a18.384 18.384 0 01-.136-3.058c.018-.438-.21-.86-.547-1.145a22.28 22.28 0 00-.19-1.506c-.117-.681-.494-1.311-1.1-1.66a1.557 1.557 0 00-1.11-.152 1.831 1.831 0 00-1.08-.325c-.923.007-1.524.567-1.822 1.302-.403.533-.57 1.262-.507 1.967a2.862 2.862 0 00-.162.918c-.006.44 0 .88 0 1.32a2.76 2.76 0 00-.198 1.009 53.887 53.887 0 00.455 7.35c-.319.413-.515.933-.458 1.518.274 2.812.496 5.63.676 8.45a2.372 2.372 0 00-.252.655c-.272 1.276-.196 2.498-.076 3.786a110.105 110.105 0 01.478 11.57 2.52 2.52 0 00.173.932 3.088 3.088 0 00-.068.623c-1.517 1.02-1.274 4.184.713 4.528.227-.701.817-1.27 1.772-1.27.032 0 .057.01.09.012.166-.006.332.007.5.059.24.057.45.169.63.327.111-.02.22-.043.334-.044.103.015.206.028.31.042.344-.436.528-1.015.543-1.61.858.435 2.068.03 2.162-1.274.393-5.472-.18-11.028-.455-16.496" fill="#F6931D"/><path d="M294.279 336.96c-.6-.601-1.266-1.041-2.067-1.14a2.046 2.046 0 00-.645.04 30.026 30.026 0 00-.165-1.962c-.134-1.185-.276-2.411-.157-3.608.053-.123.087-.265.088-.432l.103-18.55a.941.941 0 00.123-.536 444.553 444.553 0 01-.448-9.091c-.056-1.441-.118-2.884-.145-4.326-.016-.834.03-3.058 1.25-2.68 1.064.329 1.503-1.558.442-1.887-1.194-.37-2.401.377-2.961 1.61-.671 1.478-.431 3.336-.378 4.936.119 3.545.286 7.088.49 10.628a1.121 1.121 0 00-.073.402l-.107 19.04c-.215 1.41-.123 2.798.034 4.21.145 1.316.35 2.689.19 4.015-.061.522.12 1.049.606 1.198.038.012.08.013.12.016.116-.111.246-.207.396-.284.293-.524.815-.915 1.598-.915.12 0 .229.017.339.034.096-.014.19-.034.297-.034.508 0 .909.165 1.21.42.15-.365.143-.818-.14-1.103" fill="#603813"/><path d="M289.521 295.198c-1.416-1.246-3.286-.692-4.858-.513l-4.14.472c-7.316.424-14.647.64-21.987.645-.899 0-1.494 1.221-1.355 2.173.17 1.152 1.021 1.694 1.922 1.693a384.631 384.631 0 0021-.593c.133.021.271.031.412.015l.574-.065.054-.003c.02 0 .034-.008.054-.01l3.545-.404 2.114-.24c.056-.007.621-.027.782-.06l.023.004c.714.576 1.788.457 2.261-.379.488-.86.36-2.066-.4-2.735m22.358-14.156c-.564.004-.974.31-1.236.751-.21.037-.421.117-.622.237-3.222 1.914-6.333 4.107-9.338 6.522a378.329 378.329 0 00-3.316 3.391c-.344.358-.79.528-1.244.548-.555.69-.766 1.735-.339 2.661.43.926 1.54 1.418 2.27.748 4.297-3.942 8.869-7.358 13.66-10.207.169-.1.304-.25.418-.425 1.893-.309 1.799-4.24-.253-4.226" fill="#603813"/><g transform="translate(208 237.182)"><mask id="b" fill="#fff"><use xlink:href="#a"/></mask><path d="M54.918 55.754c-.44.079-.601.913-.12.97 2.258.259 4.566-.054 6.883-.47.524-.093 1.049-.192 1.574-.291.709-.135 1.418-.271 2.127-.398a72.4 72.4 0 0110.907-1.044c2.044-.046 4.08.004 6.093.145.032.002.063 0 .094-.006.46-.082.629-.935.134-.97a74.247 74.247 0 00-10.74.09c-3.597.3-7.173.992-10.78 1.62-2.043.348-4.08.583-6.063.35a.36.36 0 00-.11.004" fill="#231F20" mask="url(#b)"/></g><g transform="translate(208 237.182)"><mask id="d" fill="#fff"><use xlink:href="#c"/></mask><path d="M98.26 41.44a.449.449 0 00-.146.056c-5.178 3.096-10.028 7.04-14.379 11.7-.336.362-.033.793.314.73a.485.485 0 00.272-.16c4.24-4.528 8.983-8.375 14.018-11.386.45-.267.324-1.013-.08-.94" fill="#231F20" mask="url(#d)"/></g><g transform="translate(208 237.182)"><mask id="f" fill="#fff"><use xlink:href="#e"/></mask><path d="M99.738 42.983a.426.426 0 00-.155.065c-4.62 2.893-9.032 6.327-13.15 10.245-.37.354-.14.937.205.875a.42.42 0 00.217-.121c4.057-3.864 8.4-7.26 12.945-10.113.444-.28.327-1.02-.062-.951" fill="#231F20" mask="url(#f)"/></g><g transform="translate(208 237.182)"><mask id="h" fill="#fff"><use xlink:href="#g"/></mask><path d="M64.534 10.093c-.44.08-.847.6-.835 1.115.048 3.085-2.086 6.527-4.877 7.225a4.258 4.258 0 01-.305.065c-1.341.241-2.595-.166-3.554-.999-.031-.384-.241-.7-.595-.74l-.105-.016a5.546 5.546 0 01-1.014-2.386c-.082-.443-.361-.6-.663-.564a.648.648 0 00-.505-.143l-.023.004a1 1 0 00-.498.305c-.13-.087-.274-.143-.436-.114a57.528 57.528 0 00-7.834 2.684c-.075.03-.144.094-.212.15-3.26 1.162-6.513 2.471-9.653 4.243-5.896 3.328-11.086 8.302-15.538 14.043-4.446 5.73-8.183 12.13-11.68 18.598a621.193 621.193 0 00-2.565 4.832c-.847 1.63-1.99 3.382-2.174 5.221v.13a1.114 1.114 0 00-.168.833c.17.903.404 1.786.65 2.65-.127.1-.256.201-.384.293.128.116.256.222.376.331l.159-.115a26.698 26.698 0 001.359 3.534 1.076 1.076 0 00-.288.518C.916 80.57 2.136 89.581 5.93 96.43c2.173 3.915 5.184 6.972 8.702 9.134.06.128.15.241.278.321.61.384 1.243.711 1.876 1.022-.137.707-.29 1.417-.426 2.124-1.028 5.224-2.214 10.466-4.501 15.37-.4.235-.71.766-.53 1.261-.092.51.217.878.617.936 1.616 2.312 3.657 3.986 5.947 5.22a1.058 1.058 0 00-.22.695c.105 4.622-.838 9.355-1.61 14.03a7309.9 7309.9 0 01-2.25 13.774c-1.51 9.26-3.02 18.518-4.538 27.778-.046.268.014.482.104.656-.492 1.523-.617 3.057.007 4.562.96 2.31 3.055 3.342 5.21 3.812.71.15 1.434.28 2.158.392-.174 12.158-.355 24.307-.53 36.465l.122-.048c.239 5.887.476 11.782.714 17.668a.979.979 0 00.113.412c.013.923-.003 1.86-.074 2.796-.278 3.845-2.048 6.92-4.377 9.876-3.666 4.641-8.532 9.833-7.375 15.936-.911 3.456.002 6.931 1.997 9.184 2.245 2.536 5.723 3.07 9.075 2.47a15.994 15.994 0 001.789-.43c7.372-2.227 13.885-8.907 17.482-16.88 2.022-4.484 3.109-9.372 2.997-14.08-.017-.619-.44-.848-.861-.772a.97.97 0 00-.276.094c.03-.264.069-.522.085-.784.193-2.723-.164-5.338-.356-7.983a81.908 81.908 0 01-.218-4.499l-.105.062a841.74 841.74 0 011.33-17.878l.053.008a345.48 345.48 0 014.198-30.95c.022-.152.022-.28 0-.398 1.69-.372 3.38-.942 4.898-2.069 4.653-3.443 4.025-10.53 4.547-15.568.66-6.289 1.849-12.586 3.482-18.808 1.743 7.588.226 16.157.392 24.191.034 1.783-.098 4.166.705 5.621.827 1.494 2.6 1.047 4.034.92a93.774 93.774 0 001.667-.15 1.043 1.043 0 00-.061.39 643.493 643.493 0 01-1.251 47.864 648.692 648.692 0 01-.936 12.7 1.309 1.309 0 00-.106.313c-.306 1.956-.596 3.953-.758 5.918-3.408 7.88-.34 16.12 4.85 20.152 2.846 2.221 6.208 3.504 9.676 4.361 2.56.64 5.429 1.375 8.248.871a9.272 9.272 0 002.959-1.062c3.434-1.937 6.14-5.93 6.692-10.16a.935.935 0 00-.217-.774c.897-3.487.3-7.288-1.082-10.152-2.638-5.448-7.267-9.589-12.044-12.45.195-2.853.953-9.316 1.037-10.03.46-4.188.928-8.378 1.404-12.577.935-8.3 1.885-16.604 2.843-24.9.56-4.836 1.127-9.665 1.695-14.495.014-.089-.008-.162-.007-.24 2.995-.995 6.678-2.146 8.953-4.939 2.729-3.332 1.553-8.039 1.243-11.64-.414-4.714-.76-9.44-1.045-14.186a550.63 550.63 0 01-.972-32.436c0-.38-.165-.602-.383-.71a16.96 16.96 0 003.75-5.113c1.937-4.055 2.459-8.59 2.497-12.867a.938.938 0 00.137-.612 78.948 78.948 0 01-.156-1.822c-.007-.353-.013-.698-.027-1.049l-.038.032a71.146 71.146 0 01.408-12.943c.427.03.853.018 1.27-.056.915-.164 1.79-.63 2.543-1.637.853-1.155 1.504-2.586 2.14-3.892.735-1.515 1.205-3.198 2.189-4.566 2.004-2.77 3.532-5.654 4.345-9.024l.016-.244c1.208-1.142.827-2.932.219-4.439a24.359 24.359 0 001.859-2.165c1.036-1.378 1.884-2.938 2.098-4.67.245-2.016-.227-4.023-.525-5.897a135.437 135.437 0 00-2.63-12.537 127.834 127.834 0 00-3.66-11.696c.099-.112.204-.209.31-.306-.21-.213-.437-.423-.647-.627-.09-.244-.172-.488-.262-.723-.164-.416-.513-.542-.851-.48a1.014 1.014 0 00-.144.036c-7.1-6.3-16.03-9.922-24.954-12.405-5.948-1.649-12.032-2.816-18.13-3.946a.625.625 0 00-.224 0m-6.035 10.324a5.89 5.89 0 00.606-.142c3.177-.932 5.725-4.447 6.192-8.065 9.06 1.688 18.153 3.492 26.63 6.98 4.326 1.775 8.493 3.985 12.257 6.846 1.229.93 2.395 1.948 3.533 3.006a131.962 131.962 0 015.588 20.011c.359 1.855.687 3.724.97 5.61.283 1.806.709 3.753-.138 5.65-.6 1.326-1.521 2.546-2.572 3.65-.052-.103-.097-.199-.15-.285-1.172-2.305-2.526-4.543-4.302-6.239-.866-.83-1.837-1.53-2.907-2.02-.88-.399-1.941-.803-2.982-.617a2.757 2.757 0 00-.517.145c-1.102.44-1.782 1.641-1.891 2.897-.131 1.483.576 2.627 1.283 3.642 1.197 1.731 2.4 3.46 3.603 5.18-2.313-1.608-4.897-2.814-7.748-2.468-.07.01-.14.02-.21.032-1.72.308-3.508 1.754-3.236 3.965.312 2.563 2.739 3.053 4.487 3.846a26.345 26.345 0 013.504 1.906 36.075 36.075 0 00-2.813-.672c-1.19-.237-2.42-.51-3.648-.549a4.67 4.67 0 00-.97.062 2.912 2.912 0 00-1.37.608c-.702.592-1.028 1.584-.796 2.432.285 1.073 1.272 1.588 2.04 2.116 1.4.951 2.81 1.9 4.21 2.86-1.226-.376-2.434-.868-3.7-.642-.536.096-1.083.322-1.647.743l-.052.018c-2.152.921-.792 4.022.028 5.051 1.099 1.36 2.658 2.091 4.256 2.592a.677.677 0 00-.34.233c-1.421 1.741-2.85 3.475-4.27 5.216l-2.132 2.611-1.066 1.306c-.295.355-.59.797-.915 1.158l.016-.09a628.03 628.03 0 01.727-42.41c5.295-4.769 10.899-9.014 16.736-12.65l-.022 11.325c-.001.454.307.626.615.571.306-.055.615-.337.615-.79l.023-12.218c0-.454-.3-.622-.603-.567a.787.787 0 00-.113.03.426.426 0 00-.196-.01.566.566 0 00-.203.082c-.785.486-1.563.98-2.341 1.481l.008-.062a.521.521 0 00-.12-.324l-.241-.233c.03-.204 0-.415-.158-.577-.85-.833-1.693-1.667-2.544-2.5-.664-.652-1.311-1.373-2.32-1.193l-.031.006c-.973.182-1.984.882-2.905 1.376-.96.517-1.918 1.043-2.87 1.593-3.7 2.15-7.301 4.721-10.173 8.355l-.023.03-.06-.024c-5.43-.782-11.078-.195-16.691.75a220.224 220.224 0 00-4.218.745c-1.296.241-2.594.448-3.877.92-2.082.77-4.236 2.633-4.595 5.273a.85.85 0 00.007.283c-.815.051-1.637.095-2.452.145a.523.523 0 00-.43-.12.527.527 0 00-.15.052c-.34.164-.5.573-.431.941l1.2 6.838c.03.16.129.271.249.344.098.432.225.85.383 1.246-4.794 2.837-8.41 8.385-10.554 13.971-.993 2.598-1.752 5.258-2.43 7.93l-.217-.023c-3.576.182-7.042-.788-9.927-2.743l.09-.172-3.82-1.987c.122-.359.25-.71.395-1.065a397.395 397.395 0 015.208-18.598 406.058 406.058 0 015.84-17.614c.296-.823-.287-1.42-.825-1.324-.247.044-.484.234-.623.615a414.434 414.434 0 00-9.725 30.954 390.78 390.78 0 00-1.55 5.956 8.407 8.407 0 01-.85-.263.612.612 0 00-.37-.202c-.151-.033-.295-.076-.445-.1-.233-.107-.475-.2-.7-.317l-.024.091a.662.662 0 00-.308-.032c-7.372-1.93-13.206-8.007-15.656-16.16.143-.095.279-.197.429-.293-.03-.116-.06-.223-.082-.34l-.128.032c-.075-.125-.166-.239-.233-.365-.94-1.759-.213-3.324.749-5.172a491.609 491.609 0 012.36-4.485C12.89 44.424 19.98 32.43 30.19 25.053c3.285-2.377 6.818-4.09 10.38-5.497a119.504 119.504 0 015.336-1.93c.219-.075.483-.19.784-.306v-.173c1.457-.52 2.92-.989 4.385-1.372l.174-.083c.17 1.292.93 2.357 1.963 2.795 1.315 1.511 3.25 2.295 5.288 1.93m23.17 30.976a.673.673 0 00.408-.269c2.593-3.273 5.825-5.649 9.155-7.619 1.615-.955 3.26-1.829 4.9-2.692.333-.176.666-.357.988-.414a.923.923 0 01.739.156c.36.265.67.633.993.955.776.76 1.55 1.53 2.334 2.288a.4.4 0 00.347.128c.105.11.218.211.323.322l.053.034a122.392 122.392 0 00-14.734 11.436c-.585-1.078-1.69-1.719-2.897-1.503a2.302 2.302 0 00-.193.042c-1.094.282-2.1 1.188-2.666 2.344l-.091-.019c-9.473.538-18.946 1.084-28.411 1.62l.014-.064c.39-2.809 2.979-4.033 5.054-4.508a69.22 69.22 0 013.32-.67c1.435-.258 2.87-.48 4.299-.702 5.123-.813 10.252-1.273 15.19-.55.06.01.12.008.175-.003.188-.033.337-.166.437-.33a.527.527 0 00.263.018m-30.76 15.88l-.008-.033-.022-.057c.135-.136.234-.353.167-.539-.12-.376-.248-.75-.375-1.126-.328-1.912-.664-3.822-1-5.724l31.202-1.773a.855.855 0 00-.076.35l.46 44.136-.082.231c-.716-.486-1.568-.67-2.45-.72-1.395-.062-2.821.004-4.223.013-2.92.021-5.83.041-8.748.053l-8.748.062c-.8-.004-1.607.02-2.414.008-.204.002-.505.047-.68-.06-.338-.207-.321-.737-.374-1.134-.208-1.57-.416-3.14-.617-4.713 1.192-.317 2.213-1.372 2.449-2.884.206-1.376-.184-2.75-.93-3.68a37.76 37.76 0 002.723.507c1.463.222 2.948.371 4.44.432a7.193 7.193 0 001.573-.082c.447-.08.892-.222 1.326-.462.807-.447 1.472-1.266 1.55-2.3.116-1.455-.931-2.625-1.6-3.603-.346-.5-.7-.99-1.076-1.44.397-.009.8-.04 1.21-.114a6.7 6.7 0 00.457-.099c.95-.23 2.098-.643 2.718-1.688.756-1.267.088-2.582-.416-3.573l-.037-.062c2.452-.162 4.895-.314 7.346-.477.359-.02.792-.002 1.203-.075.15-.027.295-.065.434-.122l.143.07a.969.969 0 00.356-.005 2.04 2.04 0 00.285-.076l.204-.106c.106-.062.204-.13.287-.215a.626.626 0 00.174-.256.53.53 0 00.023-.324l-.037-.106c.045-.172.076-.359.084-.542.109-1.757.112-3.512.063-5.24a58.29 58.29 0 00-.368-5.034c-.03-.237-.06-.94-.178-1.593v-.735a.41.41 0 00-.202-.36c-.023-.213-.15-.398-.384-.373-4.005.328-8.01.647-12.016.975-2.64.075-5.271.114-7.903.135l-.083.015a.348.348 0 00-.25-.059c-.202.045-.444.296-.422.56.059.568.11 1.147.162 1.725.016.127.037.236.12.316l.016.006c.02.203.097.38.248.491l.195.095c-.8-.03-1.611.017-2.434.164-.572.103-1.152.254-1.738.461a15.5 15.5 0 00-1.727.76m31.559 33.382l-.442-42.383a.801.801 0 00.175-.368c.213-1.033 1.006-2.013 1.882-2.239a1.787 1.787 0 012.132 1.139c.097.286.323.444.588.405a630.556 630.556 0 00-.705 42.01.677.677 0 00.098.33c-.407-.058-.837-.215-1.207-.183-.086.008-.173.02-.26.035a3.96 3.96 0 00-1.483.623 5.139 5.139 0 00-.778.631m-45.62 5.496c-7.196 1.288-14.703 1.75-20.782-1.899l-.105-.163-.083-.046c-6.04-3.56-10.267-10.054-11.685-17.977-.731-4.087-.64-8.45.295-12.776C7.78 79.141 12.992 83.308 19.15 84.8c.746.393 1.499.777 2.245 1.17l-.038.18c.467.141.919.294 1.349.502l1.567.81c.264.107.513.227.76.346l.099.14c3.238 2.444 7.089 3.656 11.215 3.566-.045.112-.076.238-.121.35a1.07 1.07 0 00.422-.283c-.22.964-.448 1.921-.67 2.877-.122.548.258.824.624.758.244-.043.48-.236.562-.598 1.55-6.76 3.178-14.009 7.29-19.793 1.808-2.544 4.059-4.77 6.597-6.15a11.176 11.176 0 013.415-1.224c1.593-.286 3.176-.185 4.715.235 1.629.444 3.159 1.181 4.658 1.933 1.145.581 2.547 1.134 3.268 2.353a5.75 5.75 0 01-2.053.777 8.743 8.743 0 01-1.983.101 9.565 9.565 0 00-.882-.412.501.501 0 00-.285-.033c-.165.03-.311.141-.424.29-.316-.048-.618-.089-.92-.13-1.535-.206-3.134-.404-4.726-.119a7.431 7.431 0 00-2.341.831c-.678.38-.477 1.481.122 1.374a.638.638 0 00.199-.075 6.9 6.9 0 012.176-.775c2.17-.389 4.34.216 6.506.406a9.037 9.037 0 013.673 3.742c.256.464.586 1.01.676 1.573.119.765-.455 1.101-1.013 1.34a5.085 5.085 0 01-1.14.34 6.433 6.433 0 01-1.757.057 9.596 9.596 0 01-1.26-.216c-.767-.597-1.626-1.066-2.606-1.297a.538.538 0 00-.203-.005.564.564 0 00-.355.244c-2.058-.825-4.092-1.697-6.46-1.515a.764.764 0 00-.07.01c-.715.127-.687 1.45.067 1.391 3.288-.243 6.045 1.77 9.075 2.56.806.684 1.506 1.544 2.13 2.444.3.43.586.871.864 1.314.294.45.873 1.132.698 1.82-.19.76-1.046 1.023-1.668 1.135a6.646 6.646 0 01-.272.042c-1.064.138-2.142-.04-3.175-.14a37.523 37.523 0 01-3.438-.474 41.416 41.416 0 01-6.897-1.85.577.577 0 00-.311-.032c-.542.097-.833.984-.31 1.352 1.288.91 2.879 1.214 4.15 2.144.906.668 1.687 2.161 1.157 3.605-.266.713-.724 1.027-1.252 1.122-.968.173-2.173-.387-2.874-.574-.613-.164-1.254-.236-1.877-.124-.676.121-1.33.456-1.904 1.12-.468.546-.036 1.18.464 1.091a.713.713 0 00.409-.253 1.686 1.686 0 011.012-.569c.11-.02.22-.03.332-.034l-.008.156c.14 1.764-.316 3.627-1.314 5.197a7.234 7.234 0 01-1.86 1.992.813.813 0 00-.452.194c-1.027.84-2.295 1.153-3.442 1.558-1.328.462-2.664.934-4 1.398l-.007.01-.43.078m70.155-35.243c.443-.079.88-.665.56-1.13a3022.083 3022.083 0 01-4.324-6.21 749.947 749.947 0 01-2.158-3.089c-.572-.83-1.31-1.866-.983-3.134.193-.728.618-1.068 1.15-1.164 1.403-.25 3.559 1.192 4.242 1.746 1.49 1.194 2.672 2.79 3.694 4.516a40.027 40.027 0 011.609 3.005c.375.78 1.668 2.977.257 3.697-.498.261-.523.914-.267 1.214-.774 2.991-2.145 5.526-3.937 8.017-.944 1.31-1.407 2.793-2.088 4.263-.66 1.432-1.402 3.215-2.414 4.408-.456.538-.977.795-1.518.892-.791.142-1.623-.058-2.353-.225-1.047-.237-2.087-.509-3.067-.93-.95-.4-1.853-.93-2.561-1.728-.256-.3-1.541-2.23-.885-2.763a.681.681 0 00.264-.142 2.774 2.774 0 011.295-.606c.925-.166 1.87.133 2.702.418 1.15.394 2.294.765 3.58.535l.085-.016c.656-.135.779-1.047.312-1.369-1.687-1.142-3.375-2.292-5.07-3.432-.851-.582-1.815-1.084-2.575-1.803-.256-.24-.685-.68-.42-1.17.173-.333.604-.436.89-.505.037-.008.075-.016.113-.022.778-.14 1.567.053 2.308.168.957.148 1.915.323 2.858.535a41.317 41.317 0 015.773 1.758.522.522 0 00.278.026c.5-.09.922-.858.47-1.266-1.95-1.717-4.09-3.175-6.387-4.303-1.032-.506-2.14-.86-3.165-1.386-.888-.446-2.297-1.819-1.216-3.214.398-.512.957-.755 1.533-.858.576-.103 1.17-.067 1.637-.02 1.162.12 2.254.452 3.293.931 2.246 1.024 4.174 2.642 6.078 4.254.12.1.264.128.407.102M36.86 108.071l.732-.134a.833.833 0 00.384-.19c1.306-.45 2.604-.907 3.902-1.364 1.267-.443 2.557-.838 3.69-1.767a1.11 1.11 0 00.402-.703c2.31-1.9 3.78-5.11 3.62-8.158.7.194 1.379.462 2.11.564l-.008.183c.23 1.791.43 3.605.707 5.38.216 1.404.977 1.691 2.168 1.686 3.017-.005 6.034-.035 9.05-.056 3.018-.022 6.034-.034 9.05-.055 1.509-.01 3.017-.022 4.517-.03 1.245-.008 2.61-.088 3.55.798a.445.445 0 00.405.13.658.658 0 00.268-.12c.073.016.15.018.227.004.237-.042.462-.233.52-.596.03-.153.068-.306.122-.463a.796.796 0 00.212-.539c.469-.948 1.316-1.67 2.235-1.835.687-.114 1.222.335 1.893.258l.074-.01c.685-.124 1.174-.784 1.655-1.372l8.217-10.044c.272-.334.228-.68.047-.899.106.025.21.058.317.091.332.087.678.181 1.032.273-.612 4.941-.757 9.842-.397 14.643.1 3.19-.027 6.427-.742 9.65-1.133 5.137-3.976 9.224-8.286 11.473-2.325 1.212-4.755 1.914-7.17 2.598a169.923 169.923 0 01-8.292 2.097c-2.303.518-4.61.984-6.915 1.396-8.836 1.582-17.677 2.386-26.402 2.372-9.103-.022-20.762.172-26.48-8.139 2.008-4.274 3.23-8.832 4.19-13.386.296-1.419.578-2.835.859-4.25 5.689 2.135 12.24 1.641 18.537.514m4.143 88.114c-1.747.312-3.504.477-5.23.581-5.361.33-10.61-.218-15.811-.869-2.473-.318-5.46-.284-7.531-1.755-.957-.684-1.753-1.803-1.82-3.218-.043-.778.17-1.55.48-2.298-.042-1.133.11-2.293.414-3.428l-.106.002c1.373-8.387 2.746-16.766 4.112-25.144l2.289-14.013c.739-4.506 1.607-9.07 1.548-13.527 4.634 2.022 10.093 2.48 15.168 2.661 10.414.363 21.016-.397 31.622-2.296.96-.172 1.918-.352 2.878-.543 5.53-1.093 11.159-2.334 16.63-4.272 2.136-.763 4.21-1.809 6.062-3.229.013 8.952.23 17.876.667 26.735a536.991 536.991 0 001.343 19.802c.177 2.026.482 4.062.494 6.126.018 1.976-.58 3.665-2.114 4.925-1.381 1.137-3.02 1.776-4.56 2.406-3.69 1.5-7.447 2.526-11.204 3.284a84.27 84.27 0 01-1.82.347c-3.18.57-6.36.958-9.533 1.28-1.924.197-3.854.43-5.77.54-.958.05-1.327-.35-1.476-1.404-.141-1.038-.17-2.139-.197-3.215-.24-8.937 1.617-18.518-.901-26.797a93.997 93.997 0 012.923-10.894c.175-.515-.178-1.03-.578-1.08a.736.736 0 00-.23.003c-.374.067-.665.427-.805.856a92.625 92.625 0 00-2.422 8.575 1.12 1.12 0 00-.544.694 132.331 132.331 0 00-3.947 17.69 129.933 129.933 0 00-1.02 8.93c-.193 2.514-.145 5.254-1.182 7.695-1.1 2.591-3.325 3.75-5.536 4.344-.76.203-1.526.37-2.293.506m-22.32 53.804c-.244-5.998-.481-12.005-.726-18.01l-.03-.117.493-34.116c1.546.182 3.092.337 4.63.494 2.872.316 5.775.54 8.702.552 2.857.015 5.746-.139 8.635-.604.174-.03.339-.06.513-.092a347.354 347.354 0 00-3.998 28.97 1.155 1.155 0 00-.137.465 866.245 866.245 0 00-1.716 23.272c-.032.516.239.752.57.78.289 3.344.675 6.706.096 10.155-.687 4.056-2.346 7.931-4.162 11.644-.386.786-.773 1.6-1.174 2.414-.052-.414-.3-.776-.784-.724-.763.078-1.528.186-2.292.323-4.207.752-8.391 2.381-12.34 4.785-.09-4.453-.685-8.789-1.793-12.886a.87.87 0 00-.18-.339 58.85 58.85 0 001.3-1.624c2.222-2.879 3.918-5.99 4.369-9.65.245-1.945.188-3.828.094-5.712l-.07.02m55.809-59.606a71.663 71.663 0 009.044-2.208 7788.037 7788.037 0 00-6.24 54.651c-.261 2.39-.651 4.836-.806 7.232-.136.31-.167.687-.024.964.065 1.207.56 2.285 1.768 2.138a.634.634 0 00.046-.007c.284-.05.482-.237.61-.474 2.848 1.928 5.46 4.33 7.612 7.177l-.061.098c-.97 2.3-1.516 4.723-1.574 7.127a17.357 17.357 0 00.303 3.567c.045.216.142.45.134.676-.004.166.04.192.03.194-.008.002-.047-.009-.158.011-.422.066-.965-.173-1.387-.219a15.305 15.305 0 00-4.52.148c-2.673.48-5.341 1.631-7.795 3.361a.945.945 0 00-.124 1.5c-2.72-1.233-5.273-2.902-7.342-5.073-1.905-2-3.046-4.623-3.29-7.777-.102-1.382-.062-2.79.046-4.209v-.009c.139-1.719.383-3.448.659-5.165.097-.156.173-.334.197-.554a651.01 651.01 0 002.268-48.003c.046-4.51.04-9.022-.012-13.516 0-.095-.03-.158-.045-.233 2.964-.289 5.943-.632 8.924-1.105a81.725 81.725 0 001.737-.292m-56.15 95.976a14.787 14.787 0 01-3.511.214c-3.205-.195-6.173-1.825-7.434-5.186a8.192 8.192 0 01-.3-.992c.06-.158.107-.322.174-.48l.054-.157a5.641 5.641 0 01-.157-.88.703.703 0 00-.293-.215c-.076-3.668 2.328-7.028 4.8-10.08 1.092 4.22 1.65 8.666 1.633 13.276 0 .474.386.91.816.834a.662.662 0 00.239-.098c4.149-2.706 8.546-4.49 13-5.288a30.745 30.745 0 012.23-.316c.01 0 .024-.002.035-.004.072-.014.126-.044.19-.07-1.27 2.482-2.73 4.88-4.77 6.497-1.97 1.556-4.365 2.526-6.706 2.945m66.972-12.92c.827-.149 1.497-.847 1.642-1.849.16-1.083-.283-2.162-.364-3.193-.184-2.3.167-4.697 1-6.972 2.317 3.604 4.04 9.181.797 13.807-1.428 2.034-3.34 3.003-5.344 3.361-2.251.403-4.616.036-6.54-.457a31.923 31.923 0 01-4.785-1.658.787.787 0 00.596-.15c2.03-1.435 4.25-2.412 6.49-2.873.134-.027.268-.052.4-.076.962-.172 1.92-.26 2.867-.232 1.025.024 2.05.411 3.084.312.053-.005.105-.012.157-.02" fill="#231F20" mask="url(#h)"/></g></g></svg>