<?xml version="1.0" encoding="UTF-8"?>
<svg width="500px" height="600px" viewBox="0 0 500 600" version="1.1" xmlns="http://www.w3.org/2000/svg" xmlns:xlink="http://www.w3.org/1999/xlink">
    <title>pointingup</title>
    <defs>
        <polyline id="path-1" points="240.819 0.554 240.216 325.105 0.908 367 1.511 42.449"></polyline>
        <polyline id="path-3" points="240.819 0.554 240.216 325.105 0.908 367 1.511 42.449"></polyline>
        <polyline id="path-5" points="240.819 0.554 240.216 325.105 0.908 367 1.511 42.449"></polyline>
    </defs>
    <g id="pointingup" stroke="none" stroke-width="1" fill="none" fill-rule="evenodd">
        <g id="body" transform="translate(155.000000, 178.000000)">
            <g id="fill" transform="translate(3.035574, 6.146150)">
                <path d="M233.651526,33.2404498 C232.558526,31.9414498 231.178526,31.8364498 230.037526,32.3924498 C229.727526,31.5884498 229.379526,30.7924498 228.985526,30.0114498 C228.015526,28.0794498 226.126526,27.9004498 224.639526,28.6684498 C224.129526,27.7514498 223.506526,26.8814498 222.743526,26.0834498 C221.599526,24.8884498 219.608526,24.7804498 218.268526,25.6714498 C218.895526,22.5364498 219.389526,19.3844498 219.620526,16.2034498 C220.198526,15.5644498 220.549526,14.6964498 220.666526,13.7594498 C221.135526,9.97644983 220.910526,6.25644983 220.170526,2.52144983 C219.295526,-1.89355017 212.547526,-0.0245501713 213.420526,4.38244983 C213.619526,5.38644983 213.735526,6.39244983 213.816526,7.40044983 C213.112526,7.95944983 212.649526,8.82944983 212.710526,10.0334498 C213.199526,19.8874498 210.190526,29.4024498 207.972526,38.9104498 C207.944526,39.0324498 207.930526,39.1494498 207.914526,39.2674498 C206.588526,40.8014498 205.455526,42.4634498 204.474526,44.2334498 C203.976526,44.4854498 203.512526,44.8634498 203.131526,45.4154498 C201.050526,48.4244498 199.226526,50.6234498 199.066526,54.3814498 C198.903526,58.1894498 199.335526,62.0454498 199.948526,65.8134498 C194.431526,68.6654498 189.771526,72.7034498 185.631526,77.3274498 C182.915526,80.3614498 179.812526,83.6564498 177.492526,87.2664498 C176.940526,87.2834498 176.380526,87.4134498 175.841526,87.6964498 C174.566526,88.3664498 173.446526,89.4724498 172.722526,90.7284498 C170.412526,90.3044498 168.092526,89.9234498 165.763526,89.6324498 C163.828526,89.3904498 161.988526,89.4694498 160.534526,91.0034498 C158.953526,92.6714498 158.485526,95.5514498 157.814526,97.6554498 C156.906526,100.50745 155.997526,103.35845 155.089526,106.21145 C152.315526,107.67145 152.847526,112.81845 156.720526,112.81845 C156.802526,112.81845 156.873526,112.80045 156.952526,112.79545 C157.376526,112.83745 157.799526,112.80745 158.223526,112.69345 L159.059526,112.34145 C159.234526,112.23745 159.390526,112.11545 159.539526,111.98545 C159.547526,111.98845 159.552526,111.99245 159.561526,111.99645 C161.983526,112.93645 164.482526,113.57845 167.020526,113.92445 C167.545526,114.81945 168.506526,115.42545 169.908526,115.31445 C178.647526,114.62545 184.407526,109.79845 188.820526,103.33945 C189.354526,103.07545 189.847526,102.66045 190.235526,102.02845 C196.923526,91.1374498 203.885526,80.4254498 211.118526,69.8884498 C216.100526,70.8884498 221.052526,69.0574498 224.341526,64.9924498 C226.988526,61.7204498 228.129526,57.8714498 228.664526,53.8684498 C229.876526,54.5224498 231.429526,54.5834498 232.755526,53.4664498 C238.126526,48.9394498 238.001526,38.4084498 233.651526,33.2404498" id="Fill-1" fill="#E4C3A2"></path>
                <path d="M192.764826,97.2823498 C191.650826,98.6083498 190.535826,99.9343498 189.421826,101.26035 C189.326826,101.25135 189.228826,101.26835 189.135826,101.32135 C188.383826,101.74335 187.752826,102.34435 187.278826,103.05835 C187.228826,103.07935 187.178826,103.10635 187.129826,103.14535 C184.455826,105.29835 181.664826,107.29935 178.785826,109.16435 C178.692826,109.15535 178.600826,109.13735 178.505826,109.14135 C177.864826,109.17035 177.178826,109.37935 176.738826,109.87335 C176.599826,110.02835 176.443826,110.16135 176.287826,110.29735 C176.118826,110.40835 175.944826,110.50935 175.762826,110.60035 C175.518826,110.68535 175.269826,110.75335 175.015826,110.80435 C174.763826,110.82235 174.511826,110.82235 174.260826,110.80535 C174.039826,110.76035 173.824826,110.70035 173.611826,110.62735 C173.560826,110.60035 173.507826,110.57835 173.457826,110.55135 C172.882826,110.23135 172.170826,110.12335 171.531826,110.29935 C171.520826,110.30235 171.508826,110.30935 171.496826,110.31235 C168.395826,109.16335 165.314826,107.73135 164.116826,104.38735 C162.659826,100.31935 163.729826,95.9703498 164.685826,91.9183498 C165.422826,88.7883498 160.603826,87.4533498 159.864826,90.5883498 C159.410826,92.5143498 158.961826,94.5003498 158.688826,96.4973498 C158.529826,96.5083498 158.369826,96.5303498 158.210826,96.5733498 C157.067826,96.8873498 156.504826,97.8773498 156.374826,98.9843498 C156.123826,101.13335 155.405826,103.26135 154.352826,105.14635 C153.579826,106.52935 152.648826,107.89735 153.496826,109.50635 C154.132826,110.71235 155.407826,111.28635 156.579826,111.86335 C161.250826,114.16035 166.344826,115.39235 171.549826,115.48835 C171.762826,115.49235 171.967826,115.45635 172.167826,115.40435 C174.954826,116.33735 178.277826,115.64635 180.273826,113.40935 C180.715826,112.91335 181.005826,112.32035 181.005826,111.64135 C181.005826,111.63335 181.002826,111.62335 181.002826,111.61435 C182.044826,110.89035 183.017826,110.08535 183.951826,109.23835 C184.023826,109.22135 184.091826,109.19535 184.152826,109.14735 C185.824826,107.82335 187.224826,106.19435 188.295826,104.35135 C188.340826,104.27435 188.356826,104.20035 188.362826,104.12935 C188.893826,103.70935 189.326826,103.19135 189.611826,102.58335 C190.898826,101.05235 192.184826,99.5203498 193.471826,97.9893498 C193.882826,97.4993498 193.178826,96.7883498 192.764826,97.2823498" id="Fill-3" fill="#C3996B"></path>
                <path d="M66.0710262,130.66665 C65.7730262,130.25265 65.4000262,129.92265 64.8980262,129.73365 C64.5210262,128.89565 64.0240262,128.07965 63.3840262,127.29565 C62.9740262,126.79265 62.2740262,126.60765 61.5890262,126.65165 C60.1830262,124.66765 58.5860262,122.78965 56.8210262,121.06065 C55.9940262,120.25165 54.4050262,120.15765 53.5370262,120.95665 C53.3030262,121.17165 53.1290262,121.41965 53.0090262,121.68465 C49.8950262,123.64465 48.0020262,126.63665 46.5470262,129.77565 C44.9310262,131.33565 43.8890262,133.49765 43.1040262,135.53465 C41.8530262,136.83265 40.8650262,138.31065 40.1920262,139.90265 C38.1940262,143.01765 36.5560262,146.31765 35.3390262,149.77465 C35.2650262,149.98365 35.2380262,150.18065 35.2310262,150.37065 C33.6840262,152.86165 32.1950262,155.38365 30.7810262,157.94365 C27.7560262,163.42465 24.6810262,169.46365 19.5340262,173.61465 C19.5000262,173.61365 19.4670262,173.60465 19.4320262,173.60765 C18.5770262,173.66165 17.7220262,173.71565 16.8670262,173.76965 C16.6320262,173.78465 16.4080262,173.83965 16.2020262,173.93765 C12.9090262,173.68165 9.58602618,173.45265 6.32802618,173.91065 C5.90402618,173.96965 5.58502618,174.28665 5.40402618,174.67365 C5.13802618,174.73465 4.87202618,174.79065 4.61302618,174.87365 C3.17402618,175.33565 0.990026178,176.36465 1.10902618,178.16965 C1.12302618,178.38565 1.17802618,178.57365 1.25602618,178.74065 C1.29502618,179.40765 1.44602618,180.05165 1.60702618,180.70065 C2.18502618,180.96665 2.59902618,181.45865 2.70602618,182.17065 C2.85102618,183.13365 2.23302618,184.02765 1.31102618,184.30765 C1.10302618,184.37065 0.897026178,184.43965 0.691026178,184.51065 C0.639026178,184.52865 0.608026178,184.53865 0.574026178,184.54965 C0.567026178,184.55565 0.546026178,184.56565 0.516026178,184.58065 C0.516026178,184.58065 0.515026178,184.58065 0.515026178,184.58165 C0.797026178,185.16065 0.838026178,185.86465 0.449026178,186.38365 C0.322026178,186.55265 0.220026178,186.72765 0.113026178,186.90865 C0.104026178,186.92465 0.100026178,186.92865 0.0920261781,186.94065 C0.0900261781,186.96065 0.0890261781,186.97965 0.0830261781,187.01465 C0.0680261781,187.10165 0.0460261781,187.18765 0.0240261781,187.27265 C0.0270261781,187.31465 -0.000973821882,187.56965 2.84217094e-14,187.64665 C0.00102617812,187.73465 0.0500261781,188.04465 0.0380261781,188.02365 C0.0570261781,188.11665 0.0750261781,188.20965 0.100026178,188.30165 C0.128026178,188.40165 0.163026178,188.49865 0.197026178,188.59565 C0.208026178,188.60165 0.323026178,188.87665 0.360026178,188.94065 C0.424026178,189.05665 0.499026178,189.16465 0.572026178,189.27365 C0.613026178,189.31965 0.724026178,189.46065 0.755026178,189.49265 C0.822026178,189.56165 0.896026178,189.62365 0.967026178,189.68765 C0.982026178,189.67865 1.27202618,189.87865 1.33502618,189.91665 C1.34902618,189.92465 1.35302618,189.92765 1.36302618,189.93465 C1.38302618,189.93665 1.39902618,189.93665 1.43102618,189.94165 C1.50602618,189.95365 1.69302618,189.96865 1.71902618,189.97665 C1.75802618,189.97565 1.79502618,189.97465 1.83002618,189.97465 C1.97402618,189.95065 2.12402618,189.91965 2.30202618,189.87165 C2.66502618,189.77265 2.99102618,189.77865 3.28302618,189.84865 C3.97002618,189.69865 4.66002618,189.55965 5.31702618,189.30165 C5.91102618,189.06765 6.59802618,189.50665 6.82402618,190.04165 C6.92902618,190.29165 6.93402618,190.56165 6.87802618,190.81565 C6.88102618,190.81465 6.88502618,190.81465 6.88802618,190.81365 L6.87702618,190.82265 C6.80202618,191.15365 6.61302618,191.45765 6.30102618,191.63665 C5.82402618,191.91165 5.37102618,192.22365 4.90502618,192.51565 C4.74702618,192.61565 4.58202618,192.69865 4.42002618,192.78865 C4.20202618,193.15465 3.85502618,193.46165 3.33802618,193.62665 C3.31602618,193.63365 3.29502618,193.63765 3.27402618,193.64265 C3.26602618,193.70865 3.26002618,193.77465 3.24102618,193.84465 C2.90502618,195.12865 2.75802618,196.47965 3.02102618,197.73665 C3.29602618,199.04765 3.84102618,200.27465 4.39502618,201.48765 C4.43302618,201.47565 4.46602618,201.47365 4.50602618,201.45865 C4.59802618,201.42465 4.69102618,201.40965 4.78502618,201.40365 C4.93902618,201.29965 5.08702618,201.18965 5.24002618,201.08465 C5.52802618,201.20265 5.85302618,201.23665 6.18602618,201.14965 C7.79502618,200.73165 9.28802618,199.79265 10.4030262,198.53665 C10.5400262,198.42465 10.6730262,198.30565 10.8200262,198.20965 C11.4000262,197.83265 12.2320262,198.09365 12.5680262,198.66865 C12.9280262,199.28465 12.6870262,200.04065 12.1100262,200.41665 C12.0600262,200.44965 11.9110262,200.56565 11.9230262,200.55165 C11.8790262,200.58765 11.8350262,200.62465 11.7930262,200.66265 C11.6340262,200.80965 11.4970262,200.97265 11.3540262,201.13265 C11.3310262,201.16465 11.3080262,201.19565 11.2860262,201.22765 C11.2570262,201.27265 11.2270262,201.31765 11.1970262,201.36265 C11.6940262,201.53965 12.0620262,202.00765 12.0670262,202.55565 C12.0690262,202.74265 12.0790262,202.91865 12.0910262,203.09565 C12.0920262,203.11065 12.0940262,203.12265 12.0960262,203.13365 C12.1440262,203.36065 12.1920262,203.58465 12.2640262,203.80765 C12.2990262,203.91365 12.3390262,204.01765 12.3790262,204.12165 C12.3910262,204.14165 12.4910262,204.37165 12.5090262,204.40665 C12.6330262,204.65565 12.7730262,204.89665 12.9280262,205.12765 C12.9480262,205.15865 13.0510262,205.29865 13.0710262,205.33165 C13.1460262,205.42165 13.2210262,205.51265 13.3020262,205.59865 C13.3040262,205.60165 13.3060262,205.60365 13.3090262,205.60565 C13.5480262,205.59165 13.7890262,205.64265 14.0000262,205.77465 C14.0030262,205.77565 14.2770262,205.93665 14.2120262,205.90565 C14.1320262,205.86965 14.4080262,205.97265 14.4440262,205.98265 C14.5180262,206.00265 14.5950262,206.02065 14.6720262,206.03465 C14.6990262,206.03765 14.7460262,206.04265 14.7740262,206.04265 C14.8860262,206.04465 14.9970262,206.04865 15.1100262,206.04265 C15.1240262,206.04265 15.2130262,206.03465 15.2620262,206.03065 C15.3150262,206.01765 15.4830262,205.98465 15.4790262,205.98565 C15.5590262,205.96465 15.6380262,205.94065 15.7170262,205.91565 C15.7480262,205.90565 15.7790262,205.90465 15.8110262,205.89765 C15.9800262,205.71265 16.1230262,205.50765 16.2760262,205.30865 C16.4900262,205.35165 16.7170262,205.35265 16.9470262,205.28765 C18.5700262,204.83165 19.8200262,203.64665 20.6710262,202.23165 C21.4300262,201.44165 22.0310262,200.50965 22.4670262,199.50465 C22.5920262,199.76665 22.7290262,200.02265 22.8900262,200.26665 C23.2090262,199.37665 23.6610262,198.52165 24.1390262,197.72265 C24.5050262,197.10965 25.2690262,196.93865 25.8870262,197.26465 C26.4930262,197.58465 26.6890262,198.43865 26.3450262,199.01265 C26.1860262,199.28065 26.0370262,199.55365 25.8900262,199.82865 C25.9020262,199.86065 25.9250262,199.88565 25.9340262,199.91865 C25.9670262,200.05065 26.0100262,200.17965 26.0490262,200.30965 C26.1930262,200.37165 26.3230262,200.45465 26.4160262,200.57165 C26.6070262,200.81265 26.7920262,201.05765 26.9710262,201.30765 C26.9790262,201.31865 26.9880262,201.33065 26.9960262,201.34165 C27.0790262,201.36765 27.1600262,201.40265 27.2380262,201.45265 C27.5390262,201.65465 27.8300262,201.88365 28.0870262,202.14165 C28.1350262,202.18865 28.1780262,202.24165 28.2230262,202.29065 C28.7830262,202.17065 29.2440262,201.94065 29.5640262,201.57765 C31.9750262,199.97365 31.8690262,197.06265 31.6750262,194.52965 C31.4530262,191.62165 31.2310262,188.71165 31.0090262,185.80365 L31.0090262,185.80265 C31.2310262,185.58865 31.3950262,185.33265 31.4580262,185.03265 C33.2240262,176.49365 40.4950262,170.36065 46.7050262,164.21265 C50.3000262,160.65465 53.6540262,156.90165 56.6730262,152.92965 C59.5680262,149.12065 62.4280262,145.09765 64.3150262,140.78265 C64.7050262,139.88965 65.0260262,138.97965 65.2760262,138.06165 C65.5180262,137.90765 65.7310262,137.71565 65.9160262,137.47965 C66.6700262,136.51565 67.0770262,135.27865 67.0990262,134.09965 C67.1210262,132.92065 66.7910262,131.66565 66.0710262,130.66665" id="Fill-5" fill="#E4C3A2"></path>
                <path d="M67.2575262,132.91325 C67.1745262,132.55325 67.0165262,132.20825 66.8625262,131.86925 C66.6245262,131.34125 66.2505262,130.85625 65.8245262,130.43725 C65.8075262,130.42125 65.7855262,130.40825 65.7685262,130.39225 C65.1995262,128.72425 64.0805262,127.22625 62.2395262,126.13125 C62.0865262,126.04025 61.9345262,125.97025 61.7835262,125.91525 C60.4045262,124.01225 58.9925262,122.12625 57.6205262,120.22525 C56.8865262,119.30725 55.6665262,118.79125 54.4675262,119.37425 C53.4325262,119.87825 52.8545262,121.25325 53.5445262,122.20725 C53.8315262,122.60625 54.1195262,123.00525 54.4075262,123.40325 C58.1495262,129.11625 57.2255262,136.05525 54.7345262,142.08225 C53.2515262,145.66925 51.2575262,149.05125 49.3095262,152.44225 C48.1355262,154.48725 46.9615262,156.53225 45.7875262,158.57725 C44.9785262,158.63025 44.2365262,159.06225 43.9805262,160.00425 C42.0115262,167.24225 33.7795262,171.19325 29.8005262,177.40425 C27.5195262,180.96525 27.0585262,184.57225 27.7325262,188.60725 C28.4245262,192.74525 28.5515262,196.61925 27.2295262,200.66625 C26.3865262,203.24625 30.8285262,204.49925 31.6715262,201.92025 C31.7065262,201.81225 31.7325262,201.70525 31.7665262,201.59825 C31.9715262,201.52425 32.1735262,201.39725 32.3575262,201.18925 C35.2345262,197.93425 34.0765262,193.76825 33.0905262,190.00825 C32.4885262,187.71025 32.4595262,185.71425 33.2165262,183.44725 C33.9135262,181.35925 34.9425262,179.41525 36.1815262,177.60025 C36.4865262,177.15225 36.4965262,176.71525 36.3375262,176.34925 C39.2775262,173.12425 42.8735262,170.33825 45.4745262,166.95025 C45.9755262,166.84125 46.4395262,166.54525 46.7595262,165.98625 C47.4745262,164.74125 48.1905262,163.49625 48.9045262,162.25025 C49.9325262,161.88025 50.5275262,161.10925 51.0135262,160.16425 C51.2805262,159.64625 51.5635262,159.13725 51.8555262,158.63225 C52.0505262,158.44125 52.2425262,158.25125 52.4695262,158.05425 C52.5485262,157.98625 52.6135262,157.90925 52.6705262,157.82425 C53.2455262,157.26425 53.7825262,156.68025 54.3045262,156.08525 C54.6865262,156.02925 55.0535262,155.82425 55.3225262,155.41825 C57.2295262,152.54925 59.1735262,149.70025 61.0315262,146.79825 C62.7815262,144.06425 64.3575262,141.19925 65.2575262,138.06325 C65.2625262,138.04825 65.2615262,138.03525 65.2655262,138.02025 C65.3345262,137.99625 65.4035262,137.97325 65.4725262,137.94925 C65.8275262,137.77425 66.1125262,137.53325 66.3295262,137.22525 C66.4685262,137.06125 66.5905262,136.88825 66.6905262,136.70225 C66.8675262,136.37625 67.0495262,136.04125 67.1615262,135.69025 C67.3315262,135.15225 67.4345262,134.56125 67.4005262,133.99825 C67.3775262,133.63825 67.3405262,133.26825 67.2575262,132.91325" id="Fill-7" fill="#C3996B"></path>
                <path d="M92.6691262,252.57435 C92.3141262,251.42635 91.0911262,250.99235 89.8751262,251.16335 C86.3421262,251.66235 82.8081262,252.16135 79.2741262,252.66035 C76.1871262,253.09535 72.6851262,254.00635 69.5911262,253.23935 C67.2061262,252.64835 65.9871262,255.33835 67.3701262,256.60635 C67.3471262,256.70535 67.3201262,256.80235 67.3131262,256.91035 C66.4601262,268.19135 65.7211262,279.50135 67.6531262,290.72935 C67.0891262,298.46035 69.4191262,306.40435 66.8661262,313.95635 C66.8161262,314.10335 66.7881262,314.24435 66.7731262,314.38135 C64.7121262,317.31935 62.5791262,320.21635 60.3491262,323.05535 C58.5121262,325.39535 56.6921262,327.89735 56.1531262,330.71535 C55.8001262,330.97635 55.4891262,331.32335 55.4191262,331.71735 C55.2051262,332.94235 55.0751262,334.08435 55.3261262,335.31235 C55.5741262,336.52335 56.3831262,337.58735 57.4651262,338.33035 C57.9221262,338.64335 58.4061262,338.88035 58.9051262,339.07135 C59.1861262,339.45135 59.6001262,339.75035 60.1431262,339.86335 C62.8981262,340.43635 65.7051262,340.13835 68.1731262,339.14535 C68.2001262,339.14535 68.2231262,339.15035 68.2511262,339.14935 C71.9141262,339.00235 74.2441262,336.95535 76.0261262,334.45435 C76.9601262,333.75535 77.8571262,333.01935 78.6971262,332.22735 C79.1051262,331.84435 79.3621262,331.33335 79.3621262,330.80035 C79.3621262,330.63935 79.3281262,330.47035 79.2791262,330.30235 C83.1311262,323.23835 87.5931262,315.72035 86.9141262,307.79835 C87.0701262,307.44935 87.1181262,307.04335 86.9991262,306.58735 C85.8291262,302.13035 86.5811262,297.46635 87.0171262,292.96535 C87.4871262,288.11735 87.9571262,283.27035 88.4261262,278.42235 C88.4801262,277.86635 88.3051262,277.43835 88.0071262,277.12135 C88.4631262,269.58435 89.7191262,262.12235 91.7791262,254.79235 C92.5331262,254.31835 92.9041262,253.33435 92.6691262,252.57435" id="Fill-9" fill="#E4C3A2"></path>
                <path d="M141.050926,316.02605 C139.708926,312.29405 137.463926,308.85505 134.465926,306.24005 C132.812926,304.79805 130.948926,303.54905 128.705926,303.35305 C128.622926,303.34605 128.538926,303.35105 128.455926,303.34705 C128.662926,299.15905 129.065926,294.98105 129.698926,290.83405 C130.228926,290.44105 130.559926,289.80005 130.612926,289.09105 L132.353926,266.09905 C132.379926,265.76005 132.291926,265.44105 132.139926,265.15205 C133.106926,257.82205 134.030926,250.48705 134.867926,243.14105 C134.893926,242.91705 134.856926,242.70205 134.791926,242.49705 C135.009926,241.48705 135.216926,240.47505 135.453926,239.46905 C135.903926,237.56305 133.979926,236.23405 132.300926,237.04605 C127.219926,239.50205 121.916926,241.43605 116.459926,242.87705 C114.823926,243.30905 114.620926,245.02905 115.321926,246.13605 C115.319926,246.16105 115.311926,246.18505 115.308926,246.21105 C115.268926,246.55905 115.273926,246.89805 115.304926,247.23205 C115.100926,247.54505 114.977926,247.93505 114.990926,248.41505 C115.097926,252.06105 115.203926,255.70805 115.310926,259.35405 C115.351926,260.73005 115.378926,262.11105 115.462926,263.48605 L115.447926,263.66705 C115.433926,263.85005 115.458926,264.02605 115.500926,264.19605 C115.506926,264.26405 115.505926,264.33205 115.511926,264.40005 C115.556926,264.90805 115.603926,265.48405 115.680926,266.06805 C115.248926,266.58005 115.093926,267.27805 115.223926,268.02705 C115.293926,268.43605 115.360926,268.84605 115.419926,269.25605 C115.429926,269.32005 115.438926,269.38305 115.446926,269.44705 C115.450926,269.47505 115.453926,269.49905 115.458926,269.54005 C115.481926,269.73005 115.505926,269.92005 115.527926,270.11005 C115.527926,270.11505 115.527926,270.11905 115.528926,270.12305 C115.498926,270.40205 115.464926,270.68205 115.439926,270.96105 C115.236926,273.17105 115.045926,275.38205 114.850926,277.59405 C114.837926,277.72905 114.847926,277.86205 114.869926,277.99405 C114.497926,278.37605 114.259926,278.87205 114.327926,279.40805 C114.946926,284.28905 113.925926,289.34005 113.655926,294.22405 C113.412926,298.62505 113.359926,303.03205 113.457926,307.43805 C112.876926,307.76005 112.451926,308.35505 112.448926,309.22305 C112.437926,312.04205 112.426926,314.86105 112.414926,317.68105 C112.409926,318.94205 112.295926,320.29205 112.639926,321.52105 C112.997926,322.80405 113.871926,323.75405 114.818926,324.64405 C118.380926,327.99405 122.601926,330.79405 127.616926,331.06805 C127.776926,331.07705 127.931926,331.06005 128.081926,331.02705 C128.264926,331.00305 128.446926,330.97805 128.629926,330.95405 C128.858926,330.89005 129.061926,330.78105 129.251926,330.65205 C132.845926,331.32005 136.728926,330.29005 139.247926,327.53805 C142.209926,324.30305 142.490926,320.03405 141.050926,316.02605" id="Fill-11" fill="#E4C3A2"></path>
                <path d="M91.7731262,250.93815 C90.6091262,249.20615 88.1731262,249.60115 86.2871262,249.72015 C84.3641262,249.84115 82.4451262,250.01815 80.5341262,250.24415 C76.5721262,250.71315 72.4691262,249.60615 68.5981262,250.50015 C65.7861262,251.14915 67.1621262,256.83815 69.9821262,256.18715 C70.5921262,256.04615 71.2051262,255.91615 71.8171262,255.78515 C71.9851262,255.82615 72.1641262,255.85515 72.3571262,255.86315 C75.8381262,256.01215 78.0251262,258.99815 79.0671262,261.67515 C80.4631262,265.26415 81.1711262,269.14515 81.8521262,272.88615 C83.2781262,280.72815 83.7341262,288.70215 83.3501262,296.63815 C83.3411262,296.83415 83.3651262,297.01115 83.4041262,297.17815 C83.4081262,297.28715 83.4241262,297.39915 83.4551262,297.51615 C84.4191262,301.16615 84.7091262,304.95015 84.3121262,308.68215 C84.0401262,308.92415 83.8521262,309.25815 83.8341262,309.69515 C83.6751262,313.55815 82.4971262,317.28215 80.8941262,320.84915 C79.4161262,324.13915 77.6701262,327.43315 75.5451262,330.42815 C73.6311262,333.12415 71.0931262,335.74215 67.6921262,336.91815 C64.6441262,337.97315 60.8871262,338.03515 58.2811262,336.04615 C56.6291262,334.78515 54.2231262,336.92815 55.8871262,338.19915 C59.0051262,340.58015 63.0861262,341.15915 67.0121262,340.29415 C71.2701262,339.35615 75.2671262,338.06615 77.8381262,334.97415 C80.5841262,331.67215 82.6251262,327.12415 84.4001262,323.34115 C85.9351262,320.07015 86.4021262,316.04915 86.9321262,312.55215 C87.0731262,312.39715 87.1731262,312.21515 87.2131262,312.01015 C88.1051262,307.39315 88.0571262,302.71115 87.0521262,298.12715 C87.5091262,297.80115 87.8321262,297.30615 87.8641262,296.63815 C88.0931262,291.91115 87.9971262,287.17815 87.6031262,282.46615 C88.5491262,282.02415 89.0601262,281.09615 88.7931262,280.11715 C88.6861262,279.72615 88.5891262,279.33315 88.5091262,278.93615 C88.4751262,278.76615 88.4451262,278.59615 88.4141262,278.42515 C88.4081262,278.39115 88.4051262,278.37915 88.4011262,278.35615 C88.3981262,278.33115 88.3971262,278.31715 88.3931262,278.28015 C88.3081262,277.53515 88.2521262,276.79015 88.2571262,276.04115 C88.2621262,275.31215 88.2811262,274.55215 88.4171262,273.83115 C88.4281262,273.77415 88.4401262,273.70915 88.4501262,273.65915 C88.4811262,273.48815 88.5141262,273.31815 88.5501262,273.14915 C88.6351262,272.75315 88.7361262,272.36115 88.8481262,271.97115 C89.0071262,271.41515 88.8771262,270.80615 88.5411262,270.32115 C88.7681262,268.97415 88.9161262,267.58115 88.9161262,266.17815 C89.1611262,264.27815 89.4991262,262.39015 89.9621262,260.51715 C90.3861262,258.80515 90.8941262,257.10915 91.4851262,255.43815 C92.0051262,253.97015 92.7571262,252.40315 91.7731262,250.93815" id="Fill-13" fill="#C3996B"></path>
                <path d="M138.347826,324.84145 C135.557826,327.29345 131.874826,328.55245 128.167826,328.31645 C124.790826,328.10045 120.736826,326.44545 118.733826,323.58845 C118.537826,323.30945 118.296826,323.12845 118.038826,323.01545 C111.887826,313.70545 116.305826,300.78045 116.676826,290.52145 C116.696826,289.97745 116.486826,289.57945 116.167826,289.32145 C116.751826,282.13845 117.019826,274.93545 116.957826,267.72845 C117.266826,267.46945 117.496826,267.09745 117.538826,266.59145 C118.432826,255.86745 124.601826,245.91745 133.663826,240.18345 C134.294826,240.15245 134.720826,239.81745 134.942826,239.36945 C136.383826,238.45845 135.534826,235.83345 133.707826,236.44945 C130.163826,237.64445 126.619826,238.83845 123.076826,240.03245 C121.220826,240.65845 119.362826,241.27845 117.507826,241.90945 C116.181826,242.36245 115.010826,242.85845 114.654826,244.34645 C114.264826,245.96845 114.525826,247.91345 114.507826,249.57545 C114.487826,251.43645 114.466826,253.29745 114.446826,255.15845 C114.408826,258.60745 114.369826,262.05645 114.331826,265.50545 C113.977826,265.76145 113.731826,266.17145 113.738826,266.74645 C113.839826,274.80245 113.536826,282.85545 112.829826,290.88145 C112.778826,291.47645 113.012826,291.89345 113.371826,292.14445 C112.955826,298.59945 111.549826,305.49745 111.774826,312.04745 C111.514826,312.24845 111.320826,312.52145 111.260826,312.85445 C111.013826,314.24045 110.977826,315.62745 111.099826,316.98945 C111.034826,317.16345 110.996826,317.34845 111.010826,317.54145 C111.224826,320.50745 112.433826,323.28345 114.526826,325.40945 C114.939826,325.82745 115.549826,325.93545 116.093826,325.78845 C116.410826,326.21845 116.740826,326.64445 117.099826,327.06245 C117.414826,327.42845 117.779826,327.57845 118.135826,327.58445 C120.809826,329.87645 124.380826,331.20845 127.812826,331.50845 C132.487826,331.91745 137.130826,330.18845 140.623826,327.11745 C142.182826,325.74745 139.898826,323.47845 138.347826,324.84145" id="Fill-15" fill="#C3996B"></path>
                <path d="M161.091026,80.9249498 C160.996026,80.7969498 160.933026,80.6679498 160.871026,80.5389498 C160.187026,80.7939498 159.412026,80.7899498 158.815026,80.3559498 C152.816026,75.9939498 146.276026,72.1539498 139.360026,69.4379498 C132.372026,66.6959498 124.640026,66.6849498 117.670026,63.8599498 C116.660026,65.1249498 115.425026,66.3949498 114.185026,67.2329498 C113.690026,68.6829498 113.026026,70.1939498 111.738026,71.0929498 C108.814026,73.1349498 104.056026,71.3299498 103.258026,67.8199498 C103.171026,67.4319498 103.266026,67.0919498 103.450026,66.8199498 C103.449026,66.8159498 103.448026,66.8129498 103.447026,66.8089498 C101.539026,67.2809498 99.6950262,67.9689498 97.8610262,68.6889498 C97.8490262,69.0529498 97.6480262,69.4009498 97.1880262,69.5229498 C94.7520262,70.1699498 92.2290262,70.7509498 89.8660262,71.6849498 C75.7780262,81.1559498 65.0320262,95.3249498 59.4660262,112.42795 C59.4060262,112.61195 59.3880262,112.78195 59.3480262,112.95995 C57.7470262,115.64495 56.0590262,118.28495 54.1980262,120.83095 C54.7160262,121.35495 55.2150262,121.89695 55.6990262,122.45095 C57.8640262,124.66695 59.6360262,127.24395 61.2980262,129.84895 C61.5310262,130.21295 61.6270262,130.62595 61.6280262,131.04095 C61.9460262,131.08295 62.2730262,131.19195 62.5990262,131.39295 C63.8100262,132.14195 64.9450262,133.01295 66.2560262,133.58695 C67.1360262,133.97295 67.5060262,134.97995 67.4460262,135.89695 C68.3350262,136.45995 69.2730262,136.93495 70.2920262,137.23695 C71.2800262,137.52895 72.2110262,138.54495 72.1200262,139.63795 C71.9130262,142.14895 71.1960262,144.51595 70.4160262,146.87195 C70.9390262,147.89495 70.6760262,148.83595 70.0540262,149.47695 C71.5340262,149.94495 73.2690262,149.76995 74.4570262,148.78895 C72.2710262,160.32095 70.2280262,171.88195 68.2970262,183.46495 C70.5980262,184.60595 72.9970262,185.54095 75.2750262,186.73095 C75.3740262,186.78195 75.4570262,186.84995 75.5430262,186.91295 C77.2930262,187.36595 79.0380262,187.86595 80.7990262,188.24895 C84.0230262,187.61395 87.3880262,188.27595 90.6540262,188.10795 C95.1080262,187.87895 99.5320262,187.16295 103.979026,186.82295 C106.219026,186.65195 108.463026,186.50495 110.706026,186.34395 C111.114026,186.23895 111.523026,186.13295 111.931026,186.03095 C115.927026,185.03395 119.976026,184.15595 124.086026,183.80395 C124.713026,183.74995 125.341026,183.71595 125.970026,183.69895 C126.721026,183.59195 127.473026,183.48495 128.224026,183.37795 C129.475026,182.42295 131.039026,181.76895 132.404026,181.21195 C133.781026,180.64995 135.185026,180.15695 136.585026,179.65995 C137.241026,179.42695 137.899026,179.19395 138.553026,178.95295 C138.910026,178.82195 139.267026,178.68895 139.622026,178.55095 C139.692026,178.52495 140.215026,178.31495 140.311026,178.27895 C145.301026,176.15095 148.736026,170.85295 149.576026,165.32695 C149.693026,164.32695 149.771026,163.32195 149.781026,162.30895 C149.786026,161.74395 149.947026,161.28495 150.198026,160.91995 C150.138026,159.88895 150.062026,158.85895 149.944026,157.83095 C149.568026,154.55195 148.595026,150.73995 149.500026,147.35695 C148.708026,142.79595 148.407026,138.15995 148.494026,133.53295 C148.462026,133.43395 148.424026,133.33795 148.407026,133.22995 C147.935026,130.09795 147.523026,126.84395 147.629026,123.64695 C147.502026,123.49695 147.408026,123.31095 147.405026,123.06095 C147.403026,122.79595 147.383026,122.53695 147.352026,122.28095 C147.110026,121.49695 146.908026,120.69995 146.709026,119.90395 C146.616026,119.53195 146.719026,119.24695 146.905026,119.04395 C146.857026,117.67595 146.606026,116.27495 146.591026,114.89595 C146.584026,114.86495 146.578026,114.83395 146.571026,114.80395 C146.315026,114.16595 146.100026,113.51195 145.978026,112.83495 C145.901026,112.40895 146.030026,111.97395 146.421026,111.74495 C146.756026,111.54895 147.333026,111.56395 147.590026,111.89595 C148.105026,112.56095 148.931026,113.21695 149.728026,113.31495 C150.206026,113.07495 150.668026,112.80595 151.115026,112.51195 C151.528026,111.70995 151.950026,110.91395 152.413026,110.14095 C152.487026,110.01795 152.583026,109.92295 152.692026,109.84695 C152.572026,109.44495 152.426026,109.07595 152.246026,108.75095 C152.234026,108.30695 152.226026,107.86295 152.214026,107.41995 C152.549026,107.66095 152.901026,107.88595 153.266026,108.09695 C153.452026,107.54895 153.663026,107.02295 153.852026,106.55995 C154.790026,104.24495 155.878026,101.99695 156.977026,99.7559498 C158.025026,97.6149498 158.810026,95.7149498 159.640026,93.6129498 C160.772026,90.7439498 162.046026,87.9299498 163.038026,85.0119498 C162.762026,83.5359498 162.026026,82.1939498 161.091026,80.9249498" id="Fill-17" fill="#27A9E0"></path>
                <path d="M97.8615262,68.6881498 C97.8495262,69.0531498 97.6475262,69.4001498 97.1875262,69.5221498 C93.4495262,70.5171498 89.4995262,71.3361498 86.2545262,73.5511498 C85.7095262,73.9231498 85.1925262,73.6251498 84.9685262,73.1631498 C82.9305262,74.2841498 80.9295262,75.4731498 78.9715262,76.7341498 C78.5635262,76.9971498 78.4535262,77.4081498 78.5335262,77.7811498 C75.9215262,80.2181498 73.5495262,82.8971498 71.4615262,85.8001498 C71.3795262,85.9131498 71.3375262,86.0421498 71.3235262,86.1751498 C69.0495262,88.9311498 66.9145262,91.8011498 64.9655262,94.7961498 C64.4425262,95.6001498 63.9005262,96.4231498 63.3695262,97.2631498 C63.3095262,97.3281498 63.2445262,97.3821498 63.1975262,97.4751498 C63.1465262,97.5751498 63.0995262,97.6781498 63.0485262,97.7791498 C61.7105262,99.9331498 60.4755262,102.20315 59.8235262,104.60315 C59.2285262,104.61515 58.6435262,104.81515 58.1825262,105.28115 C55.7595262,107.72915 54.4705262,111.00015 54.3585262,114.33015 C53.2595262,115.22915 52.7735262,116.63315 52.9825262,118.06715 C53.2025262,119.57915 54.1775262,120.63515 55.2415262,121.64715 C55.5085262,121.90015 55.7595262,122.16915 56.0115262,122.43615 C56.4615262,123.12515 56.9485262,123.79215 57.4645262,124.44415 C57.5045262,124.49315 57.5415262,124.54415 57.5815262,124.59415 C58.1165262,125.26215 58.6835262,125.91215 59.2805262,126.54915 C60.6925262,128.51315 62.1565262,130.53515 63.8965262,132.23215 C64.6545262,132.73115 65.4195262,133.22115 66.2555262,133.58715 C66.7765262,133.81515 67.1145262,134.26315 67.2955262,134.77915 C67.6305262,134.96015 67.9645262,135.14515 68.3215262,135.29615 C69.4695262,135.78415 70.7385262,135.73415 71.5475262,134.65215 C72.2755262,133.67815 72.2635262,132.25315 71.3515262,131.37015 C68.6615262,128.76815 65.9035262,126.21815 63.3025262,123.52615 C63.1985262,123.41915 63.0995262,123.31115 62.9975262,123.20315 C62.9505262,123.13915 62.9015262,123.07515 62.8545262,123.01015 C60.9135262,118.96515 60.4555262,114.33715 61.5445262,109.98515 C61.8005262,109.89815 62.0105262,109.69415 62.0795262,109.32915 C63.9915262,99.2501498 70.5885262,91.0801498 76.9435262,83.3641498 C77.0445262,83.2411498 77.1005262,83.1111498 77.1375262,82.9811498 C77.3525262,82.9731498 77.5725262,82.8941498 77.7665262,82.6841498 C80.4485262,79.7851498 83.3495262,77.0961498 86.4395262,74.6351498 C90.4535262,72.4501498 94.6115262,70.5331498 98.8945262,68.9171498 C99.3205262,68.7561498 99.5055262,68.4071498 99.5375262,68.0461498 C98.9775262,68.2541498 98.4195262,68.4701498 97.8615262,68.6881498" id="Fill-19" fill="#1C75BB"></path>
                <path d="M105.483526,180.70425 C102.844526,180.45325 100.322526,181.35425 97.8265262,182.07025 C95.8475262,182.63825 93.7205262,183.08225 92.0155262,182.15925 C91.5935262,181.93125 91.1185262,181.86725 90.6705262,181.94125 C86.7755262,180.69825 83.3025262,178.43825 80.5755262,175.34625 C77.0135262,171.30625 75.5115262,166.09425 74.3645262,160.94425 C74.2785262,160.55725 74.1075262,160.26325 73.8925262,160.03825 C72.6075262,145.64125 78.4975262,131.56525 82.1965262,117.88225 C83.3675262,113.55125 84.3075262,109.18325 84.9025262,104.73525 C85.0465262,103.66225 83.8805262,102.73525 82.9025262,102.73525 C81.7025262,102.73525 81.0465262,103.65925 80.9025262,104.73525 C79.3295262,116.48625 74.8495262,127.56925 72.0595262,139.03525 C72.1085262,139.23125 72.1375262,139.43225 72.1205262,139.63825 C71.9255262,141.99425 71.2785262,144.22325 70.5555262,146.43425 C70.5255262,146.62325 70.4965262,146.81125 70.4685262,147.00025 C70.9895262,148.15925 70.5275262,149.20725 69.6805262,149.80125 C69.4145262,150.61925 69.1245262,151.42625 68.7025262,152.17825 C68.0225262,154.74125 68.0365262,157.74725 67.5515262,160.25725 C66.8855262,163.69825 65.9565262,167.09225 64.7755262,170.39325 C64.6845262,170.93925 64.5875262,171.48325 64.4775262,172.02525 C64.0935262,173.92625 63.5825262,175.81925 62.8175262,177.60425 C62.6305262,178.04025 62.4675262,178.46825 62.3485262,178.90425 C62.5235262,179.13625 62.6885262,179.37425 62.8455262,179.61825 C62.9985262,179.79425 63.1485262,179.97325 63.3125262,180.14125 C63.5355262,180.37025 63.7685262,180.58925 64.0075262,180.80125 C64.1285262,180.90725 64.2505262,181.01125 64.3745262,181.11325 C64.4075262,181.14125 64.4315262,181.16025 64.4575262,181.18125 C65.5355262,181.96925 66.6775262,182.64925 67.8665262,183.25725 C70.2955262,184.49925 72.8565262,185.46725 75.2755262,186.73025 C75.3705262,186.78025 75.4495262,186.84625 75.5345262,186.90725 C75.7045262,186.95125 75.8755262,186.99125 76.0455262,187.03625 C81.3135262,187.11625 86.6425262,186.60325 91.9015262,186.35825 C91.9015262,186.35825 91.9025262,186.35825 91.9035262,186.35825 C93.8645262,186.86125 95.9415262,186.67025 97.9455262,186.18125 C100.464526,185.56425 102.859526,184.45425 105.483526,184.70425 C106.559526,184.80725 107.483526,183.71225 107.483526,182.70425 C107.483526,181.53725 106.562526,180.80725 105.483526,180.70425" id="Fill-21" fill="#1C75BB"></path>
                <path d="M132.404426,181.21205 C133.781426,180.65005 135.184426,180.15705 136.585426,179.66005 C137.241426,179.42705 137.898426,179.19405 138.552426,178.95305 C138.910426,178.82205 139.266426,178.68905 139.622426,178.55105 C139.691426,178.52405 140.215426,178.31505 140.310426,178.27905 C141.612426,177.72405 142.804426,176.95005 143.876426,176.01605 C144.745426,174.79505 145.464426,173.45405 146.029426,172.07505 C146.396426,171.17805 146.675426,170.25905 146.920426,169.33105 C147.420426,169.13705 147.854426,168.78405 148.159426,168.27605 C148.655426,167.44805 148.675426,166.51605 148.751426,165.58305 C148.781426,165.20805 148.811426,164.83405 148.841426,164.45905 C149.101426,163.04605 149.222426,161.60705 149.184426,160.17105 C149.183426,160.11505 149.171426,160.06105 149.165426,160.00505 C149.240426,158.62605 149.231426,157.24405 149.149426,155.86505 C149.237426,155.40105 149.172426,154.99205 149.004426,154.64705 C148.939426,154.44005 148.854426,154.24105 148.738426,154.06505 C148.737426,154.00605 148.740426,153.94805 148.739426,153.89005 C148.737426,153.75305 148.720426,153.61805 148.691426,153.48805 C148.870426,153.32705 148.997426,153.09105 149.019426,152.77505 C149.136426,151.11105 149.112426,149.44905 148.966426,147.79805 C149.074426,147.21905 149.186426,146.64505 149.297426,146.06705 C149.131426,144.98505 148.991426,143.90005 148.878426,142.81205 C148.688426,142.65105 148.474426,142.52105 148.245426,142.42905 C148.226426,142.17605 148.208426,141.92405 148.188426,141.67105 C148.255426,140.76805 148.190426,139.85905 147.975426,138.95005 C147.958426,136.66105 147.807426,134.37605 147.496426,132.09505 C147.323426,130.82505 145.396426,131.36505 145.567426,132.62605 C146.047426,136.14205 146.115426,139.69705 145.839426,143.23305 C145.776426,143.37105 145.723426,143.52405 145.689426,143.69505 C144.198426,151.18105 143.127426,158.95805 140.557426,166.17005 C138.428426,172.14705 134.720426,177.75605 128.838426,180.53705 C127.566426,181.13805 127.600426,182.43905 128.267426,183.31705 C129.509426,182.38905 131.060426,181.76005 132.404426,181.21205" id="Fill-23" fill="#1C75BB"></path>
                <path d="M139.359526,69.4381498 C133.360526,67.0831498 126.812526,66.7401498 120.669526,64.9031498 C120.242526,64.8911498 119.812526,64.8921498 119.378526,64.9221498 C119.373526,64.9231498 119.369526,64.9251498 119.364526,64.9261498 C118.639526,64.8981498 117.912526,64.9051498 117.184526,64.9111498 C116.480526,64.6701498 115.770526,64.4511498 115.032526,64.4091498 C115.021526,64.4441498 115.009526,64.4801498 115.000526,64.5161498 C114.769526,65.3161498 114.554526,66.1221498 114.294526,66.9141498 C113.802526,68.4051498 113.158526,70.0091498 111.870526,70.9861498 C120.194526,68.3231498 129.111526,68.8631498 137.762526,69.4441498 C137.897526,69.4531498 138.017526,69.4371498 138.128526,69.4071498 C139.208526,69.8121498 140.350526,70.0711498 141.497526,70.3261498 C140.788526,70.0211498 140.077526,69.7201498 139.359526,69.4381498" id="Fill-25" fill="#1C75BB"></path>
                <path d="M153.851726,106.55975 C153.887726,106.46975 153.931726,106.38275 153.968726,106.29275 C154.514726,104.53675 154.891726,102.72575 155.234726,100.91975 C155.588726,99.8707498 155.943726,98.8217498 156.297726,97.7717498 C158.369726,92.7857498 160.332726,87.7597498 162.212726,82.7037498 C161.891726,82.0927498 161.514726,81.4997498 161.090726,80.9247498 C160.996726,80.7957498 160.930726,80.6657498 160.870726,80.5357498 C160.705726,80.5957498 160.536726,80.6457498 160.364726,80.6737498 C158.342726,85.4177498 156.244726,90.1337498 154.011726,94.7917498 C153.294726,96.2877498 152.228726,98.7367498 150.264726,99.0507498 C147.185726,99.5437498 146.584726,95.3077498 146.384726,93.3677498 C146.235726,91.9157498 143.826726,91.9007498 143.976726,93.3677498 C144.191726,95.4527498 144.539726,97.7247498 145.882726,99.3687498 C145.699726,99.5527498 145.590726,99.8017498 145.628726,100.11375 C145.951726,102.78975 146.273726,105.46675 146.595726,108.14375 C146.782726,109.68875 146.995726,111.70075 148.948726,112.06675 C149.338726,112.14075 149.848726,112.04675 150.142726,111.74675 C150.663726,111.96175 151.335726,111.87875 151.692726,111.32575 C152.235726,110.47975 152.687726,109.59975 153.078726,108.69775 C153.291726,107.93275 153.594726,107.19075 153.851726,106.55975" id="Fill-27" fill="#1C75BB"></path>
                <path d="M220.442526,27.1808498 C220.390526,26.7678498 220.309526,26.4268498 220.003526,26.1198498 C219.743526,25.8608498 219.315526,25.6638498 218.942526,25.6808498 C218.213526,25.7138498 217.337526,26.3478498 217.442526,27.1808498 C217.567526,28.1768498 217.555526,29.1628498 217.455526,30.1598498 C217.450526,30.1948498 217.444526,30.2298498 217.438526,30.2648498 C217.421526,30.3728498 217.402526,30.4808498 217.381526,30.5878498 C217.334526,30.8388498 217.278526,31.0878498 217.214526,31.3338498 C217.088526,31.8278498 216.927526,32.3128498 216.741526,32.7868498 C216.606526,33.1268498 216.715526,33.6408498 216.891526,33.9428498 C217.074526,34.2538498 217.430526,34.5508498 217.788526,34.6328498 C218.651526,34.8288498 219.325526,34.3678498 219.633526,33.5848498 C220.426526,31.5738498 220.713526,29.3268498 220.442526,27.1808498" id="Fill-29" fill="#C3996B"></path>
                <path d="M232.589026,34.2296498 C232.047026,32.3806498 229.152026,33.1676498 229.695026,35.0266498 C230.556026,37.9636498 231.374026,41.1166498 230.429026,44.1366498 C229.652026,46.6196498 227.451026,48.3886498 224.832026,48.4916498 C222.908026,48.5676498 222.899026,51.5676498 224.832026,51.4916498 C228.535026,51.3456498 231.693026,49.0826498 233.064026,45.6516498 C234.540026,41.9556498 233.664026,37.9016498 232.589026,34.2296498" id="Fill-31" fill="#C3996B"></path>
                <path d="M227.839026,38.2355498 C225.466026,40.3645498 222.710026,42.0895498 219.723026,43.2175498 C218.330026,43.7445498 216.792026,43.9295498 215.425026,44.4745498 C213.689026,45.1665498 214.094026,46.7015498 214.285026,48.1895498 C215.031026,53.9855498 213.449026,61.2785498 207.208026,63.3605498 C205.386026,63.9675498 206.167026,66.8655498 208.006026,66.2535498 C214.323026,64.1455498 217.420026,57.7125498 217.476026,51.3815498 C217.485026,50.4745498 217.436026,49.5685498 217.341026,48.6665498 C217.295026,48.2315498 217.239026,47.7985498 217.178026,47.3665498 C217.170026,47.3105498 217.160026,47.2545498 217.152026,47.1975498 C217.800026,47.1085498 218.653026,46.7435498 219.151026,46.5855498 C219.849026,46.3635498 220.532026,46.1085498 221.210026,45.8335498 C221.120026,46.1335498 221.035026,46.4355498 220.924026,46.7295498 C220.881026,46.8415498 220.836026,46.9525498 220.792026,47.0645498 C220.789026,47.0695498 220.789026,47.0705498 220.786026,47.0775498 C220.680026,47.3085498 220.574026,47.5395498 220.458026,47.7665498 C220.242026,48.1925498 220.003026,48.6045498 219.745026,49.0065498 C219.321026,49.6685498 219.588026,50.6915498 220.283026,51.0585498 C221.027026,51.4515498 221.883026,51.2275498 222.336026,50.5205498 C223.448026,48.7845498 224.221026,46.8005498 224.550026,44.7645498 C224.581026,44.5655498 224.597026,44.3765498 224.581026,44.1905498 C226.501026,43.1115498 228.305026,41.8415498 229.960026,40.3565498 C231.400026,39.0645498 229.273026,36.9485498 227.839026,38.2355498" id="Fill-33" fill="#C3996B"></path>
                <path d="M200.318526,65.6822498 C193.728526,69.0992498 187.861526,73.8522498 183.134526,79.5722498 C183.067526,79.6222498 182.999526,79.6722498 182.934526,79.7362498 C179.139526,83.5312498 175.727526,87.7012498 172.739526,92.1582498 C172.288526,92.8312498 172.608526,93.8192498 173.277526,94.2102498 C174.014526,94.6412498 174.878526,94.3472498 175.330526,93.6722498 C177.795526,89.9942498 180.585526,86.5582498 183.631526,83.3512498 C183.851526,83.2862498 184.051526,83.1702498 184.198526,82.9822498 C188.951526,76.8552498 194.948526,71.8422498 201.832526,68.2722498 C203.547526,67.3842498 202.031526,64.7942498 200.318526,65.6822498" id="Fill-35" fill="#C3996B"></path>
                <path d="M145.796026,216.93475 C145.353026,212.77575 144.000026,208.45775 145.014026,204.28375 C145.021026,204.25275 145.034026,204.22975 145.042026,204.20175 C144.936026,203.23375 144.821026,202.26775 144.719026,201.29675 C144.318026,197.52475 144.235026,193.72975 144.103026,189.94175 C144.000026,186.99075 143.497026,184.21075 143.053026,181.29875 C142.809026,179.69675 142.551026,177.97875 142.582026,176.29575 C142.141026,176.46775 141.700026,176.63275 141.285026,176.77875 C140.922026,176.90675 140.555026,177.02475 140.191026,177.15075 C138.332026,178.49675 136.386026,179.71475 134.257026,180.65475 C128.935026,183.00475 122.988026,184.96075 117.098026,185.01675 C116.855026,185.34675 116.520026,185.59375 116.107026,185.65475 C108.567026,186.75975 100.995026,186.25275 93.4100262,186.39675 C87.0530262,186.51675 80.6630262,187.95075 74.6650262,185.61075 C74.4180262,185.62675 74.1720262,185.64875 73.9250262,185.66475 C73.7190262,185.67875 73.5280262,185.71275 73.3400262,185.75175 C72.3950262,184.84075 70.8780262,184.61475 69.6300262,185.06775 C69.0290262,189.85375 68.1930262,194.60375 67.3150262,199.34675 C67.2900262,200.38575 67.2750262,201.42575 67.2480262,202.46475 C67.0950262,202.74675 66.9660262,203.05775 66.8960262,203.43375 C66.2640262,206.81475 65.4950262,210.27975 64.7180262,213.79075 C64.1500262,217.31875 63.6600262,220.85875 63.3390262,224.42375 C63.2760262,225.12975 62.9060262,225.62075 62.4260262,225.92475 C62.4110262,227.22075 62.1470262,228.58575 62.0370262,229.30775 C61.7900262,230.93275 61.4510262,232.54075 61.1150262,234.15075 C60.8100262,237.48775 60.7100262,240.80675 60.9410262,244.07775 C60.6450262,244.48575 60.3970262,244.90375 60.1970262,245.32875 C60.4450262,246.32675 60.8580262,247.26475 61.5000262,248.09475 C64.2900262,248.38375 67.0380262,248.95675 69.7950262,249.48875 C73.1220262,250.13075 76.4750262,250.36475 79.8480262,250.64675 C83.0900262,250.91775 86.4080262,251.12275 89.6370262,250.60575 C91.7080262,250.27375 93.6950262,249.61775 95.7230262,249.15475 C96.0380262,248.96975 96.3550262,248.78875 96.6540262,248.58075 C103.680026,243.71275 101.838026,234.28175 102.760026,226.86375 C103.816026,218.37575 106.478026,209.75675 109.324026,201.67275 C108.800026,205.05675 106.585026,208.75575 106.966026,212.47275 C107.455026,217.25875 108.033026,221.74175 108.083026,226.49975 C107.969026,227.30475 109.105026,228.37475 108.991026,229.17975 C108.890026,229.89275 108.858026,230.52675 109.079026,231.16575 C108.817026,232.96575 108.741026,234.78875 108.898026,236.60475 C107.619026,238.53175 108.493026,241.83675 111.549026,241.83675 C112.144026,241.83675 112.649026,241.70175 113.079026,241.48475 C113.184026,241.49175 113.280026,241.51575 113.389026,241.51575 C114.940026,241.51575 115.989026,242.44075 116.772026,241.02375 C116.892026,240.99575 117.646026,240.67975 117.765026,240.65075 C118.370026,240.90475 119.232026,240.69275 119.999026,240.52675 C124.912026,239.46375 130.504026,239.09875 135.144026,237.17475 C138.633026,235.72875 142.194026,231.82975 144.719026,228.88675 C145.532026,227.93775 146.055026,226.90675 146.384026,225.82475 C146.123026,222.87375 146.112026,219.89675 145.796026,216.93475" id="Fill-37" fill="#594A41"></path>
                <path d="M96.0324262,244.97915 C95.3204262,245.18715 94.6024262,245.38015 93.8864262,245.57815 C90.3424262,245.01315 86.7704262,245.20115 83.3144262,246.25115 C83.1194262,246.31115 82.9494262,246.39115 82.7944262,246.48115 C82.1684262,246.47715 81.5424262,246.46015 80.9174262,246.42315 C76.5804262,246.16315 73.2664262,244.43315 70.3784262,241.28015 C69.0874262,239.87215 67.8134262,238.38615 66.9414262,236.68115 C65.9334262,234.70815 65.9574262,232.55715 66.1704262,230.40715 C66.6504262,225.58115 67.4224262,220.76715 68.0574262,215.95815 C68.1174262,215.49915 67.9554262,215.06715 67.6734262,214.70715 C69.1764262,205.93515 75.2024262,199.09915 82.6224262,194.14015 C88.0494262,190.51315 94.1184262,187.88415 100.475426,186.38215 C98.1224262,186.36915 95.7664262,186.35215 93.4094262,186.39615 C86.5364262,186.52615 79.6254262,188.19415 73.2114262,184.96315 C72.6914262,184.92715 72.1724262,184.89115 71.6524262,184.85515 C71.3854262,184.83615 71.1234262,184.88915 70.8744262,184.98415 C70.7884262,184.96915 70.7024262,184.95815 70.6164262,184.94215 C70.2864262,184.88115 69.9584262,184.88715 69.6474262,184.94215 L69.6474262,184.94415 C68.8394262,191.43215 67.5954262,197.85315 66.3944262,204.27915 C66.4484262,204.34615 66.4914262,204.42115 66.5534262,204.48215 C66.4444262,204.68215 66.3484262,204.88715 66.2454262,205.08915 C65.0534262,211.50115 63.9244262,217.92215 63.3394262,224.42415 C63.2764262,225.13115 62.9064262,225.62415 62.4264262,225.92915 C62.4104262,227.22315 62.1464262,228.58615 62.0374262,229.30815 C61.9164262,230.10215 61.7704262,230.89215 61.6164262,231.68115 C61.6134262,231.74615 61.6064262,231.81115 61.6034262,231.87615 C61.5794262,232.47915 61.5954262,233.06415 61.6444262,233.63415 C61.3744262,234.00715 61.2004262,234.46315 61.1454262,234.95515 L60.2144262,243.28115 C60.1634262,243.74115 60.1134262,244.20115 60.0604262,244.66015 C60.2774262,245.90815 60.7174262,247.08215 61.4994262,248.09515 C64.2904262,248.38315 67.0384262,248.95715 69.7944262,249.48915 C73.1224262,250.13115 76.4754262,250.36415 79.8474262,250.64615 C83.0904262,250.91815 86.4074262,251.12315 89.6374262,250.60515 C92.0754262,250.21415 94.3994262,249.38115 96.8094262,248.93615 C97.4314262,248.48715 98.0584262,248.04515 98.7174262,247.65415 C99.0364262,246.20615 97.9064262,244.43215 96.0324262,244.97915" id="Fill-39" fill="#3B2314"></path>
                <path d="M145.602726,234.24425 C145.751726,233.00025 145.873726,231.75525 145.877726,230.49725 C145.880726,229.80225 146.243726,229.22325 146.777726,228.88225 C146.581726,227.73425 146.446726,226.58025 146.352726,225.42325 C145.195726,225.34025 144.010726,226.01125 144.049726,227.48225 C144.140726,230.95625 140.505726,232.99725 137.643726,234.11125 C133.542726,235.70525 129.098726,236.77025 124.840726,237.88125 C121.431726,238.77025 117.200726,239.52825 114.145726,237.23525 C113.099726,236.45025 112.487726,235.41125 112.135726,234.25825 L112.435726,231.83725 C112.509726,231.23025 112.201726,230.63525 111.732726,230.20925 C111.764726,229.28825 111.846726,228.38325 111.914726,227.54625 C112.147726,224.72825 107.691726,224.64925 107.459726,227.45725 C107.271726,229.74125 107.190726,232.17625 107.646726,234.44225 L107.240726,237.72925 C107.026726,239.45825 106.608726,241.26825 106.810726,243.01225 C106.913726,243.89025 107.252726,244.68725 107.765726,245.32525 C108.071726,244.89825 108.571726,244.61725 109.281726,244.66925 C112.284726,244.88925 115.263726,244.52825 118.211726,243.98325 C118.243726,243.90225 118.290726,243.82925 118.311726,243.74325 C118.520726,243.55325 118.692726,243.32625 118.812726,243.07425 C120.862726,243.14025 122.955726,242.85825 124.936726,242.38925 C127.635726,241.75025 130.293726,240.91625 132.959726,240.15725 C135.483726,239.43825 138.010726,238.73525 140.422726,237.69625 C142.295726,236.89025 144.141726,235.72025 145.602726,234.24425" id="Fill-41" fill="#3B2314"></path>
            </g>
            <g id="outline" transform="translate(0.000000, 0.446000)">
                <g id="Group-45">
                    <mask id="mask-2" fill="white">
                        <use xlink:href="#path-1"></use>
                    </mask>
                    <g id="Clip-44"></g>
                    <path d="M202.2506,71.1373 C196.4236,74.5333 190.9726,78.8753 186.0766,84.0473 C183.6116,86.6473 181.3146,89.4443 179.1846,92.4013 C178.2326,93.7263 177.1136,95.4693 175.6256,95.8763 C175.5476,95.8983 175.4696,95.9153 175.3906,95.9293 C173.9676,96.1783 172.5056,95.2233 171.2256,94.8663 C169.2786,94.3263 167.2436,94.0743 165.1776,94.0733 C165.1746,94.0773 165.1726,94.0813 165.1696,94.0853 C164.9036,94.7363 164.6266,95.3863 164.3536,96.0323 C166.3626,95.9803 168.3336,96.1823 170.2506,96.6613 C171.7146,97.0283 173.1476,97.8743 174.7036,97.896443 C174.9336,97.8983 175.1596,97.8793 175.3826,97.8403 C176.4716,97.6503 177.4766,96.9873 178.3726,96.0703 C179.5366,94.8723 180.4576,93.4063 181.4776,92.0523 C182.5886,90.5783 183.7446,89.1393 184.9456,87.7543 C187.3876,84.9413 190.0116,82.3383 192.7716,79.9793 C195.9406,77.2723 199.2846,74.8983 202.7576,72.8723 C202.7786,72.8603 202.7996,72.8463 202.8196,72.8323 C202.6706,72.7483 202.5526,72.5903 202.5006,72.3383 C202.4156,71.9393 202.3326,71.5393 202.2506,71.1373" id="Fill-43" fill="#231F20" mask="url(#mask-2)"></path>
                </g>
                <g id="Group-48">
                    <mask id="mask-4" fill="white">
                        <use xlink:href="#path-3"></use>
                    </mask>
                    <g id="Clip-47"></g>
                    <path d="M118.402,68.9166 C117.958,68.9946 117.544,69.5096 117.549,70.0276 C117.604,73.1216 115.45,76.5496 112.64,77.2406 C112.539,77.2656 112.436,77.2866 112.336,77.3046 C110.991,77.5396 109.729,77.1296 108.763,76.2936 C108.726,75.9116 108.514,75.6036 108.165,75.5516 L108.051,75.5376 C107.559,74.8716 107.196,74.0616 107.031,73.1486 C106.956,72.7126 106.676,72.5536 106.372,72.5816 C106.226,72.4816 106.039,72.4146 105.862,72.4456 C105.855,72.4466 105.848,72.4476 105.841,72.4496 C105.659,72.4896 105.484,72.5896 105.339,72.7446 C105.208,72.6576 105.064,72.6006 104.901,72.6296 C104.885,72.6316 104.87,72.6356 104.854,72.6396 C102.219,73.3256 99.599,74.2076 97.016,75.2916 C96.933,75.3226 96.872,75.3856 96.803,75.4496 C93.522,76.6026 90.241,77.9026 87.088,79.6656 C81.146,82.9786 75.93,87.9276 71.449,93.6566 C66.968,99.3846 63.207,105.7736 59.695,112.2306 C58.82,113.8276 57.967,115.4376 57.113,117.0566 C56.26,118.6746 55.104,120.4246 54.925,122.2626 C54.794,123.5646 55.156,124.6766 55.716,125.6416 C51.065,128.8496 47.89,134.2806 45.11,139.5126 C41.134,147.0016 37.378,154.6166 33.85,162.3396 C31.235,168.0606 28.367,175.8746 22.338,177.5696 C21.962,177.6766 21.585,177.7606 21.207,177.8266 C19.411,178.1416 17.6,178.0426 15.794,177.9376 C13.976,177.8366 12.157,177.7356 10.362,178.0496 C9.086,178.2736 7.821,178.7066 6.577,179.4996 C4.313,180.9416 1.444,184.9266 3.755,187.2186 C4.277,187.7416 4.884,187.9196 5.537,187.9266 C5.294,188.0996 5.035,188.2656 4.792,188.4636 C3.203,189.7276 0.961,191.6496 1.23,194.0136 C1.454,195.9886 3.335,196.5666 4.891,196.6136 C6.097,196.6446 7.335,196.5486 8.565,196.3766 C7.698,197.1246 6.892,197.9836 6.245,199.0046 C4.936,201.0656 4.567,203.6636 5.382,205.7066 C6.135,207.6146 7.381,208.1666 8.82,207.9146 C10.843,207.5606 13.249,205.6146 15.2,203.6166 C14.995,203.9286 14.804,204.2296 14.652,204.5076 C13.989,205.7556 13.638,207.1226 13.87,208.4476 C14.314,210.8936 16.497,212.3006 18.591,212.4866 C19.144,212.5386 19.673,212.5156 20.178,212.4266 C23.916,211.7726 26.402,207.5376 28.089,203.3826 C28.343,205.2136 28.886,206.8986 30.114,208.0666 C31.1,208.9986 32.414,209.4386 33.723,209.2096 C34.617,209.0536 35.509,208.5846 36.293,207.7456 C38.004,205.9156 38.67,203.0516 38.537,200.6806 C38.346,197.1956 36.69,194.1326 37.289,190.4496 C37.819,187.2016 39.668,184.2686 41.639,181.7356 C43.799,178.9636 46.233,176.4546 48.598,173.9226 C53.488,168.6766 58.485,163.4196 62.504,157.2536 C65.716,152.3346 68.284,146.9076 69.524,141.2186 C71.169,142.6336 73.011,143.7716 75.089,144.2286 C73.155,152.0356 71.47,159.8676 69.915,167.7286 C68.881,172.9396 67.687,178.1866 65.385,183.0756 C64.975,183.3206 64.671,183.8406 64.852,184.3356 C64.752,184.8546 65.07,185.2136 65.473,185.2816 C67.1,187.5986 69.154,189.2786 71.459,190.5086 C71.322,190.6886 71.223,190.9216 71.23,191.2056 C71.343,195.8356 70.385,200.5666 69.618,205.2396 C68.865,209.8226 68.113,214.4136 67.353,218.9976 C65.833,228.2526 64.305,237.5086 62.785,246.7636 C62.739,247.0396 62.792,247.2466 62.89,247.4196 C62.394,248.9406 62.27,250.4756 62.897,251.9816 C63.857,254.3036 65.972,255.3416 68.142,255.8086 C68.856,255.9696 69.576,256.0936 70.312,256.2066 C70.131,268.3646 69.956,280.5216 69.781,292.6696 L69.903,292.6316 C70.143,298.5186 70.382,304.4056 70.622,310.2926 C70.629,310.4646 70.667,310.5966 70.727,310.7066 C70.741,311.6286 70.731,312.5636 70.661,313.5096 C70.373,317.3456 68.599,320.4216 66.248,323.3666 C62.566,327.9956 57.669,333.1826 58.834,339.2796 C57.917,342.7416 58.836,346.2106 60.843,348.4786 C63.101,351.0186 66.598,351.5556 69.964,350.9666 C70.572,350.8596 71.177,350.7166 71.769,350.5416 C79.196,348.3426 85.751,341.6806 89.363,333.7186 C91.406,329.2296 92.501,324.3536 92.388,319.6366 C92.37,319.0276 91.944,318.7936 91.524,318.8676 C91.428,318.8836 91.333,318.9166 91.243,318.9646 C91.274,318.6996 91.312,318.4336 91.328,318.1716 C91.523,315.4496 91.163,312.8326 90.963,310.1976 C90.852,308.7046 90.787,307.2036 90.752,305.6966 L90.645,305.7586 C91.028,299.8056 91.472,293.8426 91.984,287.8756 L92.029,287.8936 C92.959,277.5836 94.367,267.2586 96.261,256.9536 C96.284,256.8026 96.284,256.6726 96.262,256.5466 C97.963,256.1806 99.664,255.6146 101.192,254.4996 C105.874,251.0616 105.234,243.9736 105.767,238.9366 C106.431,232.6576 107.627,226.3546 109.27,220.1386 C111.025,227.7306 109.499,236.3046 109.658,244.3406 C109.693,246.1236 109.559,248.4976 110.377,249.9616 C111.209,251.4496 112.993,251.0166 114.435,250.8936 C114.997,250.8476 115.551,250.7936 116.113,250.7466 C116.067,250.8586 116.045,250.9926 116.044,251.1306 C116.227,266.9936 115.81,282.9606 114.794,298.9896 C114.52,303.2216 114.202,307.4606 113.852,311.6966 C113.806,311.7906 113.76,311.8846 113.745,312.0086 C113.43,313.9566 113.146,315.9516 112.983,317.9246 C109.552,325.7856 112.641,334.0346 117.856,338.0916 C120.728,340.3196 124.103,341.6036 127.593,342.4796 C130.179,343.1196 133.073,343.8626 135.913,343.3646 C136.914,343.1896 137.908,342.8606 138.881,342.3186 C142.338,340.3826 145.062,336.4056 145.616,332.1766 C145.655,331.8336 145.556,331.5736 145.397,331.3946 C146.299,327.9166 145.7,324.1066 144.308,321.2386 C141.654,315.7916 136.994,311.6286 132.187,308.7626 C132.375,305.9126 133.146,299.4416 133.223,298.7286 C133.694,294.5406 134.165,290.3526 134.643,286.1636 C135.577,277.8666 136.533,269.5656 137.506,261.2626 C138.068,256.4366 138.638,251.6086 139.21,246.7816 C139.217,246.6846 139.202,246.6186 139.195,246.5336 C142.21,245.5556 145.923,244.4046 148.214,241.6266 C150.96,238.2936 149.769,233.5836 149.457,229.9916 C149.048,225.2746 148.7,220.5386 148.413,215.7916 C147.765,205.0586 147.443,194.2326 147.433,183.3536 C147.434,182.9736 147.267,182.7516 147.048,182.6436 C148.53,181.2686 149.831,179.5886 150.822,177.5396 C152.955,173.1216 153.381,168.0946 153.338,163.4866 C153.28,157.4466 152.57,151.5036 152.103,145.5696 C151.362,136.1316 150.613,126.7036 149.871,117.2656 C150.03,117.5136 150.181,117.7556 150.34,117.9956 C150.54,119.3786 151.642,119.9136 152.796,119.7116 C153.463,119.5956 154.145,119.2316 154.68,118.6446 L154.642,118.5646 C155.046,118.1746 155.358,117.6186 155.632,117.0686 C157.179,117.5236 158.735,117.9786 160.282,118.4336 C160.282,118.5976 160.297,118.7586 160.289,118.9336 C162.459,119.3826 164.59,120.0036 166.692,120.7766 C168.967,121.6146 171.28,122.4796 173.747,122.6966 C174.885,122.7936 176.039,122.7366 177.191,122.5356 C178.459,122.3136 179.726,121.9156 180.975,121.3536 C185.776,119.1906 189.814,114.9576 193.162,110.3606 C196.974,105.1296 200.325,99.4436 203.819,93.9486 C207.432,88.2576 211.051,82.5656 214.672,76.8676 C214.365,76.7936 214.062,76.7066 213.763,76.6066 C213.449,76.5046 213.321,76.2536 213.325,75.9686 C210.286,80.7486 207.253,85.5206 204.213,90.3016 C200.81,95.6596 197.483,101.0906 193.959,106.3576 C190.648,111.3106 186.821,116.1726 181.906,118.8916 C180.362,119.7416 178.754,120.3536 177.143,120.6356 C176.28,120.7866 175.418,120.8426 174.562,120.7906 C172.089,120.6356 169.805,119.7996 167.545,118.9676 C166.43,118.5586 165.307,118.1926 164.17,117.8646 C164.079,117.6036 163.881,117.4226 163.617,117.3486 C161.242,116.6486 158.868,115.9496 156.493,115.2586 C156.905,114.3746 157.332,113.4956 157.728,112.6056 C158.932,109.8966 160.03,107.1286 161.03,104.3346 C161.068,104.2156 161.098,104.0896 161.114,103.9746 C161.999,101.7886 162.89,99.6016 163.775,97.4156 C163.963,96.9566 164.157,96.4956 164.353,96.0316 C164.627,95.3856 164.904,94.7366 165.17,94.0856 C165.173,94.0816 165.174,94.0776 165.177,94.0736 C166.387,92.1326 166.201,89.4496 165.098,87.8236 C163.637,85.6766 161.225,84.9926 159.368,83.4246 L159.422,83.2856 C152.752,78.2386 144.803,75.1356 136.861,72.9216 C130.882,71.2546 124.753,70.0726 118.622,68.9156 C118.548,68.9026 118.474,68.9063356 118.402,68.9166 M112.303,79.2276 C112.509,79.1916 112.717,79.1436 112.925,79.0836 C116.13,78.1676 118.694,74.6506 119.157,71.0346 C128.284,72.7556 137.434,74.5846 145.966,78.0866 C150.07,79.7796 154.028,81.8706 157.643,84.5126 C159.272,86.1726 161.555,86.7926 163.169,88.4726 C163.813,89.1546 164.335,90.0576 164.348082,91.1696 C164.354,92.1366 164.033,93.1436 163.257,93.7546 C162.779,94.1416 162.756,94.7076 162.974,95.0836 C162.387,96.5346 161.8,97.9856 161.214,99.4286 C160.169,101.9876 159.139,104.5446 158.094,107.0956 L158.299,107.0086 C157.812,108.2606 157.308,109.5066 156.775,110.7406 C156.279,111.8996 155.761,113.0446 155.228,114.1756 C154.961,114.7496 154.687,115.3156 154.413,115.8736 C154.267,116.1756 154.131,116.4846 153.97,116.7806 C153.924,116.8746 153.872,116.9716 153.803,117.0606 L153.735,117.1426 C153.692,117.1436 153.651,117.1466 153.612,117.1536 C153.278,117.2126 153.027,117.4746 152.891,117.7996 C152.846,117.8106 152.801,117.8196 152.756,117.8276 C152.654,117.8456 152.552,117.8536 152.458,117.8406 L152.428,117.7506 C152.261,117.4776 152.088,117.2146 151.914,116.9506 L151.853,116.8496 C151.414,116.1826 150.982,115.5066 150.544,114.8316 C150.381,114.5686 150.092,114.4376 149.798,114.4896 C149.751,114.4976 149.703,114.5106 149.656,114.5286 L148.544,100.3846 C148.496,99.7816 148.045,99.5516 147.621,99.6256 C147.199,99.6996 146.802,100.0736 146.85,100.6806 C147.859,113.4776 148.876,126.2726 149.883,139.0786 C150.381,145.4306 150.9,151.7786 151.389,158.1316 C151.737,162.7386 151.948,167.5586 150.892,172.3156 C149.752,177.4506 146.89,181.5206 142.552,183.7586 C140.213,184.9636 137.759,185.6696 135.337,186.3356 C132.557,187.1066 129.778,187.8016 126.992,188.4106 C124.66,188.9256 122.327,189.3886 119.994,189.7966 C111.11,191.3526 102.23,192.1246 93.46,192.0846 C84.291,192.0476 72.564,192.1996 66.811,183.8726 C68.83,179.6116 70.061,175.0576 71.018,170.4996 C72.098,165.4016 73.033,160.2936 74.158,155.2046 C74.702,152.7756 75.276,150.3586 75.864,147.9396 C76.073,146.0106 76.509,144.1016 77.264,142.3356 C78.861,136.1096 80.596,129.9026 82.497,123.7446 C84.322,117.8416 86.284,111.9756 88.382,106.1456 C88.681,105.3276 88.088,104.7276 87.547,104.8226 C87.299,104.8656 87.063,105.0536 86.926,105.4326 C83.256,115.6346 79.981,125.9486 77.138,136.3596 C76.596,138.3476 76.084,140.3306 75.579,142.3116 C73.94,141.9496 72.469,141.1266 71.097,140.0616 C70.611,140.0176 70.149,139.8306 69.793,139.4866 C69.111,138.8286 68.52,138.1106 68.097,137.2256 C66.574,135.5636 65.173,133.7696 63.81,132.2286 L60.364,128.3116 C59.826,127.7056 59.258,127.1046 58.705,126.4756 C58.326,126.2646 58,125.9416 57.758,125.5606 C57.607,125.3106 57.509,124.9906 57.456,124.6456 L57.327,124.6766 C57.252,124.5516 57.161,124.4466 57.092,124.3196 C56.147,122.5586 56.879,120.9866 57.846,119.1406 C58.631,117.6466 59.415,116.1516 60.215,114.6636 C66.422,103.1106 73.548,91.1366 83.832,83.7786 C87.138,81.4106 90.693,79.7086 94.278,78.3116 C96.055,77.6196 97.848,76.9946 99.64,76.3956 C99.86,76.3226 100.134,76.2146 100.438,76.0916 L100.438,75.9276 C101.904,75.4036 103.37,74.9476 104.85,74.5596 L105.025,74.4846 C105.19,75.7706 105.962,76.8446 107.001,77.2856 C108.321,78.7886 110.263,79.5846 112.303,79.2276 M21.251,179.7466 C22.373,179.5506 23.496,179.1986 24.62,178.5966 C29.506,175.9786 32.173,169.9876 34.513,164.8076 C37.744,157.6556 41.165,150.5916 44.784,143.6236 C47.876,137.6626 51.221,130.5946 56.708,127.0586 C57.791,128.4246 58.987,129.6846 60.131,130.9786 C62.767,133.9746 65.319,137.1326 68.13,139.9156 C66.059,151.6526 57.813,161.5586 50.101,169.8746 C45.986,174.3196 41.288,178.6346 38.09,184.0256 C36.704,186.3516 35.698,188.9216 35.495,191.5846 C35.246,194.9646 36.668,197.7406 36.852,200.9756 C36.979,203.2056 36.121,206.9116 33.705,207.3336 C33.609,207.3516 33.51,207.3626 33.409,207.3686 C29.796,207.5776 29.578,202.2576 29.538,199.1956 C29.531,198.5796 29.145,198.3356 28.738,198.4066 C28.395,198.4666 28.038,198.7516 27.883,199.2266 C26.58,203.2066 24.238,209.7956 20.149,210.5116 C19.641,210.6006 19.106,210.5986 18.542,210.4906 C16.896,210.1646 14.925,208.6606 15.628,206.3246 C16.384,203.7896 18.649,202.1486 18.229,199.3606 C18.163,198.9196 17.791,198.7446 17.422,198.8086 C17.198,198.8476 16.977,198.9746 16.825,199.1836 C15.571,200.8776 11.628,205.5096 9,205.9696 C8.04,206.1376 7.256,205.7496 6.842,204.4576 C5.468,200.1686 10.218,197.0726 13.128,195.3706 C13.937,194.8946 13.923,193.3326 13.007,193.4936 C12.976,193.4996 12.944,193.5066 12.911,193.5156 C11.795,193.8396 10.677,194.1046 9.559,194.3006 C8.792,194.4356 8.024,194.5366 7.255,194.6016 C6.147,194.6916 3.543,195.1216 2.968,193.7616 C2.326,192.2316 5.343,190.1736 6.285,189.4806 C7.866,188.3226 9.591,187.4336 11.345,186.8666 C12.234,186.5726 12.555,185.0996 11.569,184.9436 C10.993,184.8496 10.412,184.8816 9.828,184.9836 C9.35,185.0676 8.87,185.1986 8.388,185.3446 C7.831,185.5136 7.083,185.8336 6.392,185.9556 C5.915,186.0386 5.464,186.0266 5.123,185.8036 C3.812,184.9536 5.303,182.7386 6.193,181.9256 C7.235,180.9826 8.473,180.4206 9.695,180.1456 C9.893,180.1016 10.09,180.0616 10.288,180.0276 C12.125,179.7056 13.961,179.7976 15.791,179.8826 C17.612,179.9756 19.431,180.0656 21.251,179.7466 M94.699,254.9496 C92.945,255.2556 91.186,255.4126 89.456,255.5176 C84.059,255.8226 78.769,255.2706 73.541,254.5956 C71.052,254.2796 68.047,254.3046 65.962,252.8196 C64.999,252.1326 64.197,251.0196 64.124,249.6066 C64.087,248.8266 64.301,248.0546 64.606,247.3006 C64.57,246.1656 64.716,245.0176 65.03,243.8816 L64.923,243.8746 C66.305,235.4996 67.679,227.1256 69.061,218.7416 C69.829,214.0786 70.596,209.4066 71.364,204.7436 C72.109,200.2396 72.983,195.6786 72.923,191.2116 C77.587,193.2566 83.081,193.7206 88.189,193.9156 C98.695,194.3166 109.392,193.5746 120.087,191.7026 C121.026,191.5376 121.964,191.3646 122.903,191.1826 C128.468,190.1046 134.14,188.8786 139.647,186.9466 C141.797,186.1986 143.885,185.1586 145.748,183.7346 C145.754,192.6966 145.972,201.6126 146.419,210.4796 C146.631,214.8516 146.904,219.2026 147.229,223.5446 C147.392,225.7976 147.578,228.0386 147.771,230.2866 C147.95,232.3126 148.256,234.3416 148.268474,236.4146 C148.288,238.3816 147.677,240.0696 146.134,241.3336 C144.743,242.4676 143.094,243.1026 141.552,243.7176 C137.839,245.2066 134.056,246.2316 130.275,246.9706 C129.664,247.0916 129.052,247.2056 128.44,247.3126 C125.241,247.8726 122.043,248.2536 118.849,248.5736 C116.914,248.7566 114.97,248.9846 113.043,249.0886 C112.078,249.1366 111.7,248.7456 111.557,247.6896 C111.415,246.6426 111.386,245.5416 111.358,244.4746 C111.117,235.5366 112.987,225.9616 110.452,217.6666 C111.21,214.0076 112.188,210.3616 113.394,206.7806 C113.562,206.2666 113.206,205.7586 112.804,205.6996 C112.727,205.6886 112.653,205.6906 112.581,205.7036 C112.207,205.7696 111.911,206.1236 111.77,206.5546 C110.816,209.3836 110.006,212.2486 109.326,215.1326 C109.097,215.2506 108.884,215.4696 108.778,215.8256 C107.044,221.6516 105.705,227.5646 104.813,233.5026 C104.367,236.4766 104.02,239.4586 103.787,242.4296 C103.585,244.9366 103.633,247.6766 102.596,250.1226 C101.491,252.7016 99.242,253.8646 97.025,254.4426 C96.253,254.6466 95.476,254.8126 94.699,254.9496 M72.256,308.6926 C72.009,302.6866 71.763,296.6786 71.524,290.6796 L71.493,290.5636 C71.658,279.1866 71.824,267.8176 71.989,256.4406 C73.537,256.6366 75.101,256.7856 76.641,256.9576 C79.54,257.2706 82.462,257.5026 85.406,257.5316 C88.283,257.5556 91.183,257.4016 94.098,256.9436 C94.265,256.9226 94.44,256.8926 94.607,256.8626 C92.843,266.5056 91.52,276.1676 90.584,285.8126 C90.515,285.9546 90.462,286.1026 90.446,286.2776 C89.763,294.0466 89.188,301.8046 88.725,309.5436 C88.694,310.0676 88.967,310.3056 89.3,310.3326 C89.59,313.6706 89.979,317.0336 89.396,320.4896 C88.705,324.5426 87.036,328.4136 85.207,332.1216 C84.819,332.8976 84.43,333.7096 84.026,334.5236 C83.974,334.1096 83.716,333.7566 83.238,333.7976 C82.478,333.8746 81.716,333.9786 80.956,334.1126 C76.714,334.8546 72.494,336.4686 68.512,338.8736 C68.422,334.4116 67.822,330.0746 66.699,325.9836 C66.661,325.8346 66.601,325.7246 66.525,325.6426 C66.982,325.0876 67.423,324.5526 67.834,324.0216 C70.063,321.1516 71.776,318.0426 72.231,314.3756 C72.477,312.4396 72.42,310.5486 72.318,308.6656 L72.256,308.6926 M128.285,249.2626 C131.374,248.7216 134.46,248.0076 137.524,247.0596 C135.365,265.2676 133.266,283.4746 131.244,301.6856 C130.974,304.0746 130.59,306.5276 130.433,308.9146 C130.289,309.2336 130.257,309.6016 130.402,309.8876 C130.467,311.0946 130.974,312.1646 132.189,312.0206 C132.205,312.0196 132.22,312.0166 132.235,312.0146 C132.521,311.9636 132.719,311.7786 132.842,311.5436 C135.715,313.4866 138.338,315.8886 140.503,318.7506 L140.449,318.8376 C139.473,321.1346 138.923,323.5566 138.865,325.9686 C138.839,327.1836 138.952,328.3826 139.17,329.5376 C139.207,329.7466 139.305,329.9886 139.305,330.2046 C139.3,330.3726 139.345,330.4016 139.332,330.4036 C139.322,330.4056 139.283,330.3936 139.175,330.4086 C138.743,330.4766 138.197,330.2436 137.779,330.1866 C136.284,330.0046 134.755,330.0556 133.228,330.3226 C130.536,330.7936 127.852,331.9386 125.379,333.6626 C124.77,334.0886 124.868,334.8326 125.261,335.1696 C122.524,333.9206 119.947,332.2456 117.871,330.0676 C115.955,328.0696 114.798,325.4456 114.561,322.2806 C114.458,320.8986 114.49,319.4926 114.607,318.0726 C114.739,316.3546 114.993,314.6246 115.261,312.9016 C115.36,312.7456 115.444,312.5666 115.46,312.3486 C116.826,296.2916 117.591,280.2716 117.75,264.3496 C117.789,259.8396 117.782,255.3376 117.729,250.8356 C117.73,250.7496 117.707,250.6756 117.684,250.6016 C120.675,250.3196 123.667,249.9946 126.666,249.5306 C127.205,249.4466 127.746,249.3566 128.285,249.2626 M71.906,345.0586 C70.694,345.2706 69.497,345.3376 68.379,345.2666 C65.153,345.0536 62.166,343.4156 60.897,340.0506 C60.768,339.7186 60.678,339.3886 60.595,339.0666 C60.649,338.9016 60.702,338.7456 60.771,338.5866 L60.816,338.4226 C60.749,338.1406 60.696,337.8476 60.666,337.5416 C60.583,337.4526 60.484,337.3746 60.37,337.3256 C60.294,333.6566 62.714,330.3116 65.194,327.2586 C66.301,331.4896 66.862,335.9376 66.839,340.5406 C66.838,341.0136 67.23,341.4546 67.662,341.3786 C67.743,341.3646 67.826,341.3326 67.908,341.2776 C72.069,338.5976 76.489,336.8206 80.965,336.0366 C81.72,335.9046 82.477,335.8006 83.235,335.7256 C83.318,335.7106 83.386,335.6726 83.455,335.6516 C82.183,338.1226 80.714,340.5226 78.661,342.1266 C76.673,343.6846 74.262,344.6456 71.906,345.0586 M139.294,332.3296 C140.132,332.1836 140.821,331.4906 140.966,330.4756 C141.121,329.3946 140.674,328.3226 140.593,327.2826 C140.415,324.9796 140.768,322.5846 141.608,320.3116 C143.939,323.9316 145.674,329.5046 142.402,334.1306 C140.968,336.1566 139.044,337.1206 137.027,337.4736 C134.761,337.8696 132.381,337.4966 130.45,336.9926 C128.827,336.5766 127.203,336.0226 125.626,335.3306 C125.706,335.3426 125.788,335.3426 125.872,335.3286 C125.987,335.3076 126.106,335.2596 126.233,335.1726 C128.278,333.7426 130.51,332.7726 132.758,332.3186 C132.892,332.2916 133.027,332.2676 133.161,332.2436 C134.13,332.0746 135.1,331.9886 136.053,332.0186 C137.078,332.0556 138.117,332.4436 139.149,332.3496 C139.198,332.3446 139.246,332.3376 139.294,332.3296 M214.093,74.7596 C214.073,74.7916 214.053,74.8226 214.033,74.8546 C214.091,74.8266 214.152,74.8046 214.215,74.7906 C214.418,74.8376 214.628,74.8716 214.84,74.8986 C214.588,74.8656 214.339,74.8186 214.093,74.7596 M214.99,74.9166 C215.038,74.9226 215.086,74.9276 215.132,74.9326 C215.354,74.9916 215.578,75.0416 215.803,75.0846 C215.833,75.0386 215.863,74.9926 215.892,74.9466 C215.59,74.9606 215.289,74.9496 214.99,74.9166" id="Fill-46" fill="#231F20" mask="url(#mask-4)"></path>
                </g>
                <g id="Group-51">
                    <mask id="mask-6" fill="white">
                        <use xlink:href="#path-5"></use>
                    </mask>
                    <g id="Clip-50"></g>
                    <path d="M219.4762,4.2906 C217.6192,4.6156 216.3102,7.2006 215.7712,9.3576 L215.7402,9.4936 C215.6412,9.6406 215.5572,9.8186 215.5342,10.0306 C215.0472,14.7736 214.5602,19.5186 214.0662,24.2546 C213.6322,28.4446 213.4802,32.8276 212.2812,36.9876 C212.1822,37.0136 212.0762,37.0576 211.9772,37.0746 C211.5792,39.1666 210.9752,41.2266 210.0612,43.2096 C208.5592,46.4546 206.1262,48.8686 204.2232,51.8036 C202.3582,54.6876 201.4182,57.8866 201.2382,61.2196 C201.0562,64.6446 201.5992,67.9426 202.2502,71.1376 C202.3322,71.5396 202.4152,71.9396 202.5002,72.3386 C202.5522,72.5896 202.6702,72.7486 202.8202,72.8326 C202.9462,72.9026 203.0932,72.9196 203.2442,72.8936 C203.7442,72.8066 204.2752,72.2406 204.1252,71.5436 C203.4562,68.3596 202.8322,65.1146 202.8992,61.6976 C202.9742,58.0896 204.0362,54.8176 206.2052,51.8116 C208.1522,49.1186 210.2892,46.6966 211.6692,43.5766 C212.3852,41.9736 212.8972,40.3016 213.2882,38.6176 C213.4402,38.4866 213.5842,38.3146 213.6612,38.0676 C215.1032,33.6496 215.2412,28.9156 215.7052,24.4346 C216.1922,19.7336 216.6782,15.0246 217.1652,10.3236 L217.2182,10.3496 C217.2422,10.2496 217.2642,10.1506 217.2882,10.0516 C217.5692,8.8116 218.1272,6.4706 219.4472,6.2396 C219.5642,6.2196 219.6862,6.2156 219.8142,6.2296 C221.3312,6.4056 222.2842,8.9356 222.6452,10.3756 C223.5272,13.8686 222.9122,17.9176 222.2452,21.6646 C221.7392,24.5016 221.2092,27.3336 220.6802,30.1756 C220.3842,30.5296 220.3072,31.0446 220.4512,31.3996 C220.1522,33.0076 219.8452,34.6256 219.5532,36.2326 C219.4152,36.9796 219.9492,37.3626 220.4462,37.2756 C220.7742,37.2176 221.0852,36.9556 221.1772,36.4576 C221.4762,34.8326 221.7762,33.2076 222.0752,31.5826 C223.8052,31.4086 225.4822,32.0576 226.4812,33.5336 C226.6022,33.7106 226.7002,33.9006 226.7982,34.0916 C226.6082,34.6176 226.8422,35.1726 227.2512,35.3086 C227.6142,36.7316 227.5272,38.3716 226.9622,39.9056 C226.4842,39.8336 225.9982,39.7886 225.5132,39.7876 C224.8272,39.7876 224.1412,39.8536 223.4582,39.9736 C220.4602,40.4976 217.4982,42.0546 214.6522,43.5726 C213.7122,44.0756 213.9892,45.5876 214.8302,45.4406 C214.9142,45.4256 215.0022,45.3946 215.0962,45.3446 C217.6122,44.0046 220.7852,42.4236 223.7462,41.9046 C226.4982,41.4226 229.0682,41.8596 230.7562,44.2626 C228.0742,46.5306 225.0722,48.2136 221.9662,49.0856 C221.2792,49.2706 220.5902,49.4266 219.8992,49.5476 C219.7572,49.5716 219.6172,49.5956 219.4762,49.6176 C218.9722,49.6866 218.4542,49.6926 217.9422,49.7826 C217.7362,49.8186 217.5302,49.8686 217.3272,49.9416 C216.0052,50.4236 215.3802,51.7866 215.5142,53.2146 C215.6482,54.7206 216.1852,55.9926 216.1822,57.5656 C216.1712,59.0896 215.8722,60.6716 215.3382,62.1656 C214.2632,65.1626 212.2542,67.8386 209.6942,69.3076 C208.7772,69.8336 209.0392,71.3316 209.8502,71.1886 C209.9402,71.1736 210.0362,71.1386 210.1382,71.0796 C215.1302,68.2176 218.4442,61.5696 217.7802,55.6966 C217.6972,54.9846 217.5392,54.3206 217.3662,53.6426 C217.1362,52.6866 216.9642,51.8886 218.0772,51.6936 C218.0932,51.6906 218.1112,51.6876 218.1282,51.6856 C218.8292,51.5776 219.5182,51.4776 220.2072,51.3566 C221.1402,51.1936 222.0702,50.9926 223.0182,50.6826 C223.8842,50.3926 224.7432,50.0516 225.5852,49.6626 L225.5242,49.8976 L225.4632,50.0466 L225.3792,50.2776 C225.3112,50.4446 225.2432,50.6036 225.1662,50.7726 C225.0212,51.0836 224.8612,51.3886 224.6862,51.6866 L224.6182,51.7936 L224.5112,51.9676 C224.4122,52.1146 224.3132,52.2616 224.2062,52.4016 C224.0012,52.6796 223.7882,52.9416 223.5682,53.1876 L223.4842,53.2796 L223.3092,53.4576 C223.1952,53.5636 223.0802,53.6706 222.9672,53.7766 C222.7082,54.0036 222.4352,54.2156 222.1622,54.4016 C221.7502,54.6896 221.6432,55.3916 221.8552,55.7696 C222.0192,56.0576 222.2842,56.1536 222.5642,56.1046 C222.7122,56.0796 222.8652,56.0126 223.0082,55.9136 C225.2732,54.3406 226.9942,51.5336 227.5002,48.6616 C229.2022,47.6896 230.8432,46.5036 232.3722,45.1116 C232.7592,44.7676 232.9132,44.1796 232.6782,43.7446 C231.7332,41.9996 230.2472,40.8776 228.5402,40.2856 C229.1972,38.4076 229.3302,36.3706 228.9082,34.5946 C228.9712,34.5766 229.0362,34.5626 229.0992,34.5516 C230.4712,34.3116 231.6772,35.6696 232.2052,36.9736 C233.0132,38.9496 233.4642,41.3686 233.7712,43.5876 C234.0932,45.8916 234.0742,48.4536 232.8852,50.7266 C232.0532,52.3146 230.6602,53.7436 229.1272,54.0116 C228.9052,54.0506 228.6802,54.0646 228.4542,54.0526 C228.3892,54.0486 228.3282,54.0526 228.2672,54.0626 C227.3492,54.2236 227.0052,55.9286 228.0022,55.9806 C228.3692,56.0016 228.7312,55.9786 229.0872,55.9166 C230.9762,55.5856 232.6952,54.1416 233.9002,52.1996 C235.6432,49.3886 235.8302,46.1576 235.4502,43.1726 C235.2702,41.7876 234.9762,40.4386 234.6602,39.1026 C234.7672,39.0286 234.8782,38.9846 234.9912,38.9656 C235.4992,38.8756 236.0382,39.2756 236.3972,39.6016 C237.1702,40.3136 237.5632,41.3516 237.9172,42.4216 C238.7102,44.8146 239.1002,47.4176 239.0492,50.1146 C239.0072,52.4206 238.7742,55.2016 237.4192,57.2796 C236.8282,58.1746 235.7662,58.9766 234.7802,59.1486 C234.1282,59.2626 233.5112,59.1026 233.0832,58.5146 C232.8972,58.2546 232.6372,58.1796 232.3802,58.2246 C231.7712,58.3306 231.1782,59.1186 231.6312,59.7446 L231.8132,59.9376 C231.5012,60.1046 231.2352,60.4366 231.1972,60.9106 C230.8472,65.0506 228.7832,69.2676 225.7262,71.9886 C223.8522,73.6536 221.6622,74.7076 219.4712,75.0916 C218.2292,75.3086 216.9882,75.3096 215.8032,75.0846 C215.5782,75.0416 215.3542,74.9916 215.1322,74.9326 C215.0852,74.9276 215.0382,74.9226 214.9902,74.9166 C214.9652,74.9146 214.9402,74.9116 214.9152,74.9086 C214.9102,74.9076 214.9032,74.9066 214.8972,74.9066 C214.8772,74.9036 214.8592,74.9016 214.8392,74.8986 C214.6272,74.8716 214.4172,74.8376 214.2142,74.7906 C214.1522,74.8046 214.0912,74.8266 214.0332,74.8546 C213.6262,75.0496 213.3302,75.5466 213.3252,75.9686 C213.3212,76.2536 213.4492,76.5046 213.7632,76.6066 C214.0622,76.7066 214.3652,76.7936 214.6712,76.8676 C216.2282,77.2436 217.8762,77.2856 219.5222,76.9976 C221.9842,76.5666 224.4402,75.3956 226.5742,73.4996 C230.1312,70.3276 232.4172,65.5706 232.8592,60.7656 C233.4972,61.0616 234.2222,61.1346 234.9562,61.0056 C235.9062,60.8396 236.8712,60.3366 237.6812,59.5416 C240.0912,57.1836 240.6292,53.3206 240.7272,50.1926 C240.8472,46.5156 240.2402,42.7316 238.8032,39.6996 C238.1152,38.2536 236.5082,36.7806 234.9352,37.0566 C234.6932,37.0986 234.4532,37.1816 234.2152,37.3126 C233.9372,36.3336 233.5892,35.3826 233.0522,34.5866 C232.1412,33.2306 230.6132,32.3986 229.0442,32.6726 C228.7882,32.7176 228.5302,32.7926 228.2732,32.8996 C228.1672,32.6936 228.0612,32.4966 227.9402,32.3096 C226.6842,30.4556 224.6282,29.4666 222.4432,29.6246 C222.8572,27.3736 223.2782,25.1226 223.6922,22.8716 C224.3442,19.3436 224.9732,15.6816 224.6832,12.2226 C224.4392,9.3016 223.4512,5.7316 221.0392,4.5466 C220.4842,4.2746 219.9602,4.2056 219.4762,4.2906" id="Fill-49" fill="#231F20" mask="url(#mask-6)"></path>
                </g>
            </g>
        </g>
    </g>
</svg>