<svg width="500" height="600" xmlns="http://www.w3.org/2000/svg" xmlns:xlink="http://www.w3.org/1999/xlink"><defs><path id="a" d="M207.302.934l-.575 309.076L.779 350l.574-309.076"/><path id="c" d="M207.302.934l-.575 309.076L.779 350l.574-309.076"/><path id="e" d="M207.302.934l-.575 309.076L.779 350l.574-309.076"/><path id="g" d="M207.302.934l-.575 309.076L.779 350l.574-309.076z"/></defs><g fill="none" fill-rule="evenodd"><path d="M344.162 222.677a.319.319 0 00.156.02c-.035-.005-.058-.012-.095-.02h-.061m-5.772 11.211l-.012-.028.004.014.007.014" fill="#E4C3A2"/><path d="M364.815 208.209c-.242-.415-.718-.811-1.195-.919-.964-.22-2.278.293-2.459 1.397a21.873 21.873 0 01-1.227 4.452l-.05.126c-.052.039-.13.3-.149.342-.013.029-.029.055-.042.083.344-3.713.266-7.437-.733-11.098-.673-2.465-4.486-1.439-3.866 1.019-.542.363-.917.976-.896 1.656.062 2.16.127 4.319.19 6.48a16.533 16.533 0 00-5.807-7.104c-.89-.614-2.22-.165-2.737.718a1.903 1.903 0 00-.259.852 1.494 1.494 0 00-.096.562c-.01.276.047.533.172.771.081.248.218.462.414.643l.187.145c.005.506.187 1.006.574 1.359 1.857 1.695 3.055 3.631 3.225 6.186.094 1.43.017 2.865.051 4.297.002.061.006.121.007.183a1.564 1.564 0 00-.363.172l-.205.158a9.946 9.946 0 00-1.752-2.297c-.98-.953-2.195-1.776-3.62-1.725-1.337.047-2.632.949-3.693 1.692-1.058.741-2.128 1.57-2.995 2.534-.556.618-.947 1.277-.909 2.134.043 1.018.777 2.024 1.813 2.209 1.026.183 2.205-.277 2.461-1.397.05-.218.057-.451.034-.684l.076-.075c.304-.287.62-.56.944-.825l.073-.055c.488.481 1.188.715 1.911.518.034-.009.144-.028.216-.041l.037-.001.015.001-.013-.008a.132.132 0 00.02-.006c.017.005.031.011.053.015.1.004.118.013.096.018.03.004.064.008.08.012l.083.02c-.002.003.14.044.188.07.111.057.213.125.322.184.104.058.117.054.103.037.13.113.282.303.342.37a2 2 0 01.062.072c.05.075.101.149.15.227.072.12.141.243.205.368.02.036.063.131.09.188.076.196.147.394.208.595.146.494.252.998.338 1.506l.053.338.012.09c.027.248.054.494.07.742.005.096.003.194.005.291a1.975 1.975 0 00-.479.846c-.118.417-.237.837-.359 1.258a1.93 1.93 0 00-.658.662c-.29.495-.589.987-.912 1.462-.13.194-.267.384-.408.572-.04.049-.12.152-.145.181a9.417 9.417 0 01-1.148 1.159c-.037.03-.089.071-.14.106-.216.15-.44.288-.672.413l-.204.103c-.074.028-.277.112-.279.112-.248.083-.5.13-.754.194l-.003.001h-.063c-.115.002-.23.009-.346.007l-.255-.021a3.523 3.523 0 01-.139-.028c-.097-.024-.19-.057-.286-.083a.333.333 0 00-.03-.008c-.098-.054-.2-.101-.298-.159a5.076 5.076 0 01-.095-.058c-.032-.029-.183-.14-.203-.159-.07-.067-.135-.139-.204-.209v-.001c-.047-.09-.107-.179-.16-.268.01.022.015.04.01.044a.412.412 0 01-.018-.058c-.003-.008-.009-.015-.013-.022-.117-.209-.035-.085.01.008-.033-.117-.089-.339-.092-.35-.2-.933-1.255-1.581-2.188-1.45a31.106 31.106 0 01-.728-7.18c.04-2.575-3.96-2.576-4 0a34.085 34.085 0 001.103 9.116 1.605 1.605 0 00-.19.869c.151 1.906.626 3.715 1.528 5.409.913 1.716 2.31 3.06 3.567 4.517.023.027.041.057.064.084.688 1.074 1.371 2.156 1.967 3.28a13.151 13.151 0 01.885 5.916c-.03.39.093.758.307 1.071-2.534 6.741-6.166 12.893-10.975 18.388a3.563 3.563 0 00-.827 1.66 1.432 1.432 0 00-.262 0c-1.62.192-3.097-.305-4.628-.771-1.322-.401-3.272-1.156-4.615-.468a1.742 1.742 0 00-1.417-.681c-1.693.007-2.118 2.372-2.547 3.606a60.653 60.653 0 00-1.793 6.185 111.201 111.201 0 00-1.694 3.957c-.574 1.425-1.665 3.351-1.587 5.018-.38.294-.636.78-.64 1.236-.01.883.697 1.412 1.5 1.5l1.784.194a5.043 5.043 0 001.562.17c.374-.021.672-.136.9-.309a20.84 20.84 0 004.771 2.368c.171.059.33.077.481.079.175.231.415.426.766.522 1.094.297 2.187.445 3.275.468a1.54 1.54 0 001.058.536c1.944.183 4-.087 5.682-1.098 3.151-.69 6.142-2.574 8.3-5.355 3.53-4.553 5.72-10.319 7.136-16.203.621-.401 1.127-1.03 1.373-1.955.19-.71.384-1.421.58-2.132a3.19 3.19 0 00.96-1.587c.06-.238.12-.476.178-.714a3.548 3.548 0 00-.009-1.759c1.15-4.137 2.255-8.296 2.93-12.515.987-6.16.946-12.581 3.548-18.365.377-.836.42-1.649.238-2.378l4.063-9.233a3.586 3.586 0 00.136-2.629 111.316 111.316 0 012.145-6.152c.086-.225.095-.503.055-.776.941-1.965 1.634-4.052 1.99-6.199.09-.546.087-1.046-.203-1.541m-114.11 229.767c-.355-1.148-1.578-1.582-2.794-1.41l-10.601 1.496c-3.087.436-6.59 1.346-9.683.58a2.67 2.67 0 00-.72-.077c.359 3.19-.11 6.382-.135 9.59a.909.909 0 01-.257.645c.639 4.197-.158 8.355-.19 12.56a.93.93 0 01-.057.28c.707 5.318 1.115 10.712.728 16.06a.94.94 0 01-.447.754v11.555a.86.86 0 01-.427.77c0 2.893-.27 5.763-1.221 8.58a2.03 2.03 0 00-.092.424 200.294 200.294 0 01-6.424 8.674c-.827 1.055-1.642 2.145-2.344 3.28 0 .091.007.18-.024.281-.781 2.701-1.43 5.452-1.326 8.271a.807.807 0 01.066.345c-.01.201-.01.402-.007.602.06.707.14 1.412.275 2.11.156.131.306.27.476.386.457.314.94.55 1.44.741.282.38.695.68 1.238.792 2.755.573 5.562.275 8.03-.718.027 0 .05.005.077.004 3.664-.147 5.994-2.194 7.775-4.695a30.665 30.665 0 002.672-2.227c.408-.383.665-.894.665-1.427 0-.16-.034-.33-.084-.498 3.854-7.064 8.315-14.582 7.636-22.504.156-.349.204-.755.084-1.21-1.17-4.458-.418-9.122.019-13.623l1.409-14.543c.054-.556-.121-.984-.42-1.3a106.139 106.139 0 013.772-22.33c.755-.474 1.125-1.458.89-2.218m46.383 63.452c-1.342-3.732-3.587-7.171-6.585-9.786-1.653-1.442-3.517-2.691-5.76-2.886-.083-.008-.167-.003-.25-.006a123.2 123.2 0 011.243-12.514c.53-.393.86-1.034.914-1.743l1.74-22.992a1.75 1.75 0 00-.213-.947c.967-7.33 1.89-14.665 2.728-22.011a1.517 1.517 0 00-.077-.644c.218-1.01.426-2.022.662-3.028.45-1.906-1.473-3.235-3.152-2.423a87.98 87.98 0 01-15.841 5.83c-1.636.433-1.84 2.153-1.138 3.26-.003.025-.01.05-.013.075a4.91 4.91 0 00-.004 1.02 2.01 2.01 0 00-.314 1.184l.32 10.939c.04 1.376.068 2.757.15 4.133l-.013.18c-.014.183.01.359.053.53.006.067.005.135.01.203.046.508.092 1.084.169 1.668-.431.512-.586 1.21-.457 1.959a43.586 43.586 0 01.236 1.513c.023.19.047.38.068.57 0 .005 0 .009.002.014-.03.278-.065.558-.09.837-.202 2.21-.393 4.42-.59 6.633a1.62 1.62 0 00.02.4c-.372.383-.61.878-.542 1.414.62 4.88-.401 9.932-.671 14.816a170.768 170.768 0 00-.198 13.214c-.581.322-1.006.917-1.01 1.785-.01 2.819-.021 5.639-.033 8.458-.005 1.26-.12 2.61.225 3.84.358 1.283 1.232 2.233 2.179 3.123 3.562 3.35 7.783 6.15 12.798 6.424.16.009.315-.008.465-.041l.547-.073c.23-.064.433-.173.623-.302 3.594.668 7.477-.362 9.996-3.114 2.962-3.235 3.243-7.504 1.803-11.512" fill="#E4C3A2"/><path d="M249.808 436.34c-1.163-1.732-3.6-1.337-5.485-1.218a105.34 105.34 0 00-5.754.524c-3.96.469-8.065-.638-11.936.256-.04.01-.072.03-.112.042.007.042.026.082.027.124.007 1.372.273 2.723.388 4.087.036.356.058.71.06 1.06a.914.914 0 01-.06.299c.328.124.69.166 1.082.075.61-.141 1.222-.271 1.835-.402.167.04.346.07.54.078 3.48.149 5.668 3.135 6.71 5.812 1.395 3.589 2.103 7.47 2.784 11.21 1.426 7.843 1.883 15.818 1.498 23.753-.009.196.015.373.055.54.004.109.02.22.051.338a30.92 30.92 0 01.856 11.166c-.27.242-.46.576-.477 1.013-.16 3.863-1.338 7.587-2.94 11.155-1.479 3.289-3.225 6.583-5.35 9.578-1.914 2.696-4.45 5.314-7.852 6.49-3.049 1.055-6.806 1.117-9.41-.872a1.826 1.826 0 00-1.568-.326 13.691 13.691 0 00.243 2.648c.04.215.098.426.143.64 2.924 1.694 6.477 2.043 9.911 1.286 4.258-.938 8.255-2.227 10.826-5.32 2.746-3.302 4.788-7.85 6.562-11.633 1.535-3.271 2.002-7.292 2.532-10.79.141-.154.241-.336.281-.541a34.223 34.223 0 00-.16-13.883c.456-.326.78-.821.812-1.49.228-4.726.132-9.46-.262-14.171.946-.442 1.457-1.37 1.19-2.35a17.79 17.79 0 01-.284-1.18c-.034-.17-.063-.34-.094-.511l-.014-.07-.008-.075a18.637 18.637 0 01-.136-2.24c.005-.728.025-1.488.16-2.21l.033-.171a17.8 17.8 0 01.398-1.688c.16-.556.03-1.165-.307-1.65.227-1.347.375-2.74.375-4.143.245-1.9.584-3.788 1.046-5.661a54.307 54.307 0 011.524-5.08c.52-1.467 1.271-3.034.287-4.5m44.576 73.904a14.114 14.114 0 01-10.18 3.475c-3.377-.216-7.431-1.87-9.434-4.728a1.639 1.639 0 00-.696-.573c-6.15-9.31-1.732-22.235-1.361-32.494.02-.544-.191-.942-.51-1.2.585-7.183.853-14.386.79-21.593a1.61 1.61 0 00.582-1.137c.894-10.724 7.063-20.674 16.125-26.408.63-.03 1.057-.366 1.279-.813 1.44-.912.592-3.537-1.236-2.92l-10.63 3.583c-1.857.625-3.715 1.245-5.57 1.877-1.326.452-2.496.948-2.852 2.436-.39 1.623-.13 3.567-.148 5.23l-.061 5.582-.114 10.347c-.354.256-.601.666-.593 1.241a240.62 240.62 0 01-.91 24.135c-.051.595.184 1.012.543 1.263-.417 6.455-1.822 13.353-1.597 19.904-.26.2-.454.473-.514.806a15.548 15.548 0 00-.161 4.135 1.286 1.286 0 00-.09.552c.215 2.967 1.424 5.742 3.517 7.868.412.418 1.022.527 1.567.38.317.43.647.855 1.006 1.273.315.366.679.516 1.036.522 2.674 2.292 6.245 3.624 9.677 3.924 4.675.41 9.317-1.32 12.81-4.39 1.56-1.37-.724-3.64-2.275-2.277" fill="#C3996B"/><path d="M301.22 400.914c-.42-4.203-1.705-8.565-.742-12.785.007-.03.02-.053.028-.083-.101-.977-.21-1.954-.308-2.935-.38-3.811-.459-7.647-.584-11.474-.099-2.982 1.026-4.85.606-7.793-.233-1.62-.479-3.355-.448-5.055-.419.173-.837.34-1.233.488-.344.129-.692.248-1.038.376-1.764 1.36-5.215 1.649-7.234 2.599-5.054 2.375-10.699 4.352-16.29 4.408-.233.334-.55.584-.944.645-7.157 1.116-14.344.604-21.545.749-6.036.122-12.101 1.57-17.796-.794-.235.017-.468.039-.702.055a3.852 3.852 0 00-.555.088c-.898-.92-2.338-1.15-3.524-.692-.57 4.837-1.363 9.637-2.197 14.43-.024 1.05-.037 2.1-.063 3.15-.146.285-.268.6-.334.98-.6 3.417-1.33 6.918-2.07 10.466-.538 3.565-1.003 7.142-1.307 10.745-.06.714-.411 1.209-.866 1.516-.016 1.31-.266 2.689-.371 3.419-.234 1.643-.556 3.268-.875 4.894-.29 3.372-.384 6.726-.165 10.03a8.067 8.067 0 00-.706 1.265c.236 1.009.627 1.957 1.237 2.796 2.649.292 5.257.87 7.875 1.409 3.158.648 6.34.884 9.544 1.169 3.078.275 6.227.482 9.294-.041 1.965-.336 3.85-.998 5.777-1.466.299-.187.6-.371.884-.58 6.67-4.92 4.922-14.45 5.797-21.946 1.002-8.577 3.529-17.286 6.23-25.455-.497 3.419-2.6 7.157-2.239 10.913.465 4.836 1.013 9.366 1.06 14.175-.107.813.971 1.895.863 2.708-.096.72-.125 1.36.084 2.007a25.378 25.378 0 00-.172 5.496c-1.213 1.947-.384 5.287 2.517 5.287.564 0 1.043-.137 1.451-.356.101.007.192.03.295.03 1.472 0 2.468.936 3.212-.496.114-.03.83-.347.943-.376.575.256 1.392.042 2.121-.126 4.664-1.074 9.972-1.443 14.378-3.386 3.311-1.462 6.693-5.402 9.09-8.376a8.657 8.657 0 001.581-3.095c-.248-2.982-.258-5.99-.559-8.983" fill="#594A41"/><path d="M253.908 429.418c-.687.21-1.38.406-2.07.607-3.422-.573-6.868-.382-10.203.682a2.23 2.23 0 00-.502.233 33.122 33.122 0 01-1.81-.06c-4.186-.262-7.385-2.016-10.172-5.21-1.245-1.428-2.475-2.933-3.316-4.66-.973-2-.95-4.18-.744-6.357.463-4.892 1.208-9.768 1.82-14.642.06-.464-.099-.903-.37-1.267 1.45-8.89 7.265-15.815 14.426-20.84a51.705 51.705 0 0117.228-7.86c-2.27-.013-4.544-.031-6.818.015-6.633.13-13.303 1.821-19.492-1.454a708.6 708.6 0 00-1.504-.109 1.673 1.673 0 00-.75.131c-.083-.016-.167-.027-.249-.043a2.502 2.502 0 00-.937 0v.002c-.779 6.574-1.98 13.08-3.138 19.591.052.068.093.144.153.206-.105.202-.198.41-.297.615-1.15 6.497-2.24 13.003-2.804 19.591-.06.717-.419 1.216-.882 1.525-.015 1.312-.269 2.693-.376 3.424a58.785 58.785 0 01-.405 2.404c-.003.066-.01.132-.013.198-.023.611-.007 1.204.04 1.782a2.89 2.89 0 00-.48 1.34l-.899 8.435c-.05.466-.098.931-.15 1.397.21 1.264.634 2.454 1.39 3.48 2.692.293 5.345.874 8.004 1.413 3.211.65 6.447.887 9.702 1.173 3.13.275 6.33.483 9.446-.042 2.353-.396 4.596-1.24 6.921-1.69.601-.456 1.205-.905 1.842-1.3.307-1.467-.783-3.265-2.59-2.71m47.128-11.013c.143-1.256.89-2.25.894-3.521.002-.702-.286-1.552.22-1.897a42.788 42.788 0 01-.401-3.496c-1.1-.084-2.224.595-2.188 2.082.087 3.51-3.364 5.573-6.081 6.698-3.892 1.61-8.112 2.687-12.154 3.81-3.236.899-7.254 1.664-10.154-.653-.992-.794-1.574-1.843-1.907-3.01l.284-2.445c.07-.613-.223-1.214-.668-1.645.03-.93.108-1.845.174-2.691.22-2.848-4.01-2.927-4.23-.09-.18 2.308-.256 4.769.177 7.058l-.386 3.323c-.203 1.747-.6 3.576-.407 5.337.097.887.42 1.693.906 2.338.29-.431.766-.716 1.439-.663 2.85.222 5.68-.142 8.478-.693.03-.082.075-.155.095-.242a2.22 2.22 0 00.476-.676c1.946.067 3.932-.218 5.814-.693 2.562-.646 5.086-1.488 7.617-2.255 2.396-.727 4.795-1.437 7.085-2.487 1.777-.816 3.53-1.997 4.917-3.49" fill="#3B2314"/><path d="M227.096 314.821c-.3-.42-.677-.756-1.182-.948a11.14 11.14 0 00-1.526-2.479c-.414-.51-1.12-.699-1.811-.654a41.56 41.56 0 00-4.805-5.684c-.833-.822-2.435-.918-3.31-.106a2.277 2.277 0 00-.532.74c-3.14 1.992-5.516 3.991-6.982 7.182-1.63 1.586-2.68 3.784-3.471 5.855a14.63 14.63 0 00-2.936 4.44c-2.014 3.166-3.832 7.66-5.06 11.174a2.043 2.043 0 00-.108.605c-1.558 2.532-2.424 5-3.85 7.603-3.05 5.572-6.15 11.711-11.336 15.931-.034 0-.07-.01-.104-.008l-2.584.165a1.811 1.811 0 00-.671.171c-3.32-.26-6.67-.493-9.953-.028-.427.061-.75.382-.931.776-.268.062-.536.12-.798.203-1.451.47-3.652 1.516-3.531 3.352.013.22.069.41.148.58.038.678.19 1.332.353 1.992.583.27 1 .77 1.108 1.494.146.98-.477 1.888-1.406 2.172-.21.064-.417.135-.625.207-.053.018-.083.03-.118.04-.007.005-.03.016-.058.031l-.002.001c.285.59.326 1.304-.066 1.832a5.699 5.699 0 00-.338.533l-.022.033a.953.953 0 01-.01.076c-.015.087-.037.175-.058.262.003.043-.026.302-.025.38 0 .09.05.405.038.383.02.094.038.19.063.283.028.101.064.2.098.3.01.005.127.284.164.35.064.116.14.227.214.338.04.046.153.19.184.222.068.07.143.133.215.198.014-.008.307.195.37.232l.028.02a.57.57 0 01.069.007c.076.012.263.027.29.035l.112-.002c.145-.024.296-.056.476-.104.366-.1.694-.095.988-.023.692-.154 1.388-.295 2.05-.557.599-.237 1.293.208 1.519.752a1.3 1.3 0 01.055.788c.004 0 .008-.002.01-.003l-.011.01a1.253 1.253 0 01-.58.827c-.481.28-.938.597-1.407.894-.16.101-.326.186-.49.276a1.9 1.9 0 01-1.09.853c-.022.007-.043.011-.065.017-.008.067-.013.133-.033.205-.338 1.304-.486 2.678-.221 3.956.277 1.332.825 2.58 1.384 3.813.039-.013.07-.015.112-.03a.994.994 0 01.282-.056c.155-.105.304-.217.459-.324.289.12.617.154.953.066 1.622-.424 3.127-1.378 4.25-2.656.138-.114.272-.234.42-.332.586-.385 1.423-.118 1.762.466.364.626.12 1.394-.462 1.777-.05.033-.2.151-.187.137-.045.038-.09.074-.131.113-.16.15-.3.315-.443.478l-.07.097a5.305 5.305 0 01-.088.137c.5.18.872.656.876 1.212.002.191.012.37.024.55a.377.377 0 01.006.038c.049.23.096.46.17.685.035.107.075.213.115.32.013.02.113.254.13.29.127.252.267.497.424.732.02.032.124.174.144.206.075.093.152.186.233.273l.006.007c.242-.014.485.037.698.172.003.001.279.164.213.133-.081-.037.198.068.234.08.075.02.152.036.23.051l.102.01c.113 0 .226.004.339 0l.153-.014a9.01 9.01 0 01.219-.046c.08-.02.16-.045.24-.07.03-.01.063-.012.094-.019.17-.188.315-.397.469-.599.216.044.445.044.677-.022 1.635-.463 2.896-1.667 3.754-3.106a9.357 9.357 0 001.81-2.772c.126.266.265.527.427.775.32-.905.777-1.774 1.258-2.586.37-.623 1.14-.798 1.762-.466.61.325.809 1.194.462 1.777-.16.272-.311.55-.458.83.01.032.035.057.044.091.033.134.077.265.115.398a.902.902 0 01.37.265 19.18 19.18 0 01.585.784.924.924 0 01.244.112c.304.205.597.44.856.7.049.05.092.102.138.152.564-.12 1.028-.355 1.35-.725 2.432-1.63 2.324-4.589 2.129-7.164l-.672-8.87v-.002c.224-.217.39-.478.453-.783 1.78-8.68 9.11-14.914 15.369-21.163a114.124 114.124 0 006.64-7.228c.007-.228.062-.452.185-.643.496-.768 1.126-1.423 1.793-2.042.267-.249.537-.497.799-.752.208-.27.426-.533.63-.805.572-.757 1.138-1.526 1.7-2.3a58.214 58.214 0 002.21-4.314c1.292-2.809 2.426-5.85 2.752-8.944.08-.762.583-1.412 1.413-1.412.589 0 1.23.46 1.378 1.053a5.882 5.882 0 001.057-3.225c.023-1.198-.31-2.474-1.036-3.49" fill="#E4C3A2"/><path d="M228.292 317.105c-.084-.366-.243-.716-.397-1.063-.241-.535-.62-1.028-1.047-1.454-.017-.016-.04-.028-.057-.045-.573-1.696-1.701-3.22-3.558-4.332a2.587 2.587 0 00-.46-.22c-1.388-1.934-2.812-3.851-4.195-5.783-.74-.934-1.97-1.458-3.18-.865-1.042.512-1.624 1.909-.93 2.88l.87 1.215c3.773 5.808 2.843 12.86.33 18.988-1.494 3.645-3.505 7.084-5.468 10.531-1.183 2.08-2.367 4.157-3.551 6.237-.815.053-1.562.492-1.821 1.45-1.984 7.358-10.282 11.374-14.293 17.688-2.3 3.62-2.764 7.286-2.085 11.388.697 4.207.826 8.145-.507 12.26-.85 2.621 3.628 3.895 4.478 1.274.035-.11.062-.219.096-.327.207-.076.41-.204.595-.416 2.9-3.309 1.733-7.544.74-11.367-.607-2.335-.636-4.365.127-6.669.703-2.121 1.74-4.099 2.988-5.944.307-.454.317-.9.157-1.272 2.963-3.278 6.589-6.11 9.21-9.553.506-.112.973-.412 1.296-.98.72-1.266 1.44-2.532 2.163-3.798 1.035-.377 1.635-1.16 2.126-2.12.269-.528.554-1.046.848-1.559.196-.194.39-.387.619-.588a1.12 1.12 0 00.202-.232c.215-.211.42-.428.625-.645a1.277 1.277 0 01.186-.731c.497-.768 1.126-1.423 1.793-2.042.385-.358.764-.722 1.126-1.103 2.349-4.253 4.866-8.531 6.436-13.133.24-.951.429-1.912.53-2.88.057-.54.33-1.02.779-1.256.674-.776 2.14-.372 2.41.68.088-.117.178-.233.248-.361.177-.332.362-.672.473-1.03.172-.547.277-1.146.242-1.72a6.756 6.756 0 00-.144-1.103m115.324-32.436c-.478-.252-1.089-.125-1.369.359a41.768 41.768 0 01-4.231 6.041c-.038.03-.081.043-.116.08a23.757 23.757 0 01-2.896 2.612c-4.125 2.423-9.755 1.585-13.62-1.311-2.667-1.999-3.35-4.713-3.416-7.913-.071-3.43.247-6.846.918-10.209.251-1.257-1.676-1.795-1.928-.532a58.778 58.778 0 00-.371 2.068c-.402-.032-.818.162-1.002.69-.49 1.405-.96 2.841-1.22 4.303-.871 2.272-1.985 4.461-2.88 6.728-.259.655-.705 1.593-.91 2.51l-1.098 1.327c-.323.391-.414 1.077-.004 1.438-.322.809.506 1.883 1.375 1.267.186-.132.377-.251.571-.36a83.445 83.445 0 006.313 2.452c2.752.937 5.624 1.907 8.519 2.272 3.961.499 7.528-1.15 10.513-3.564a12.13 12.13 0 002.336-2.143c.071-.043.147-.077.202-.142a44.672 44.672 0 004.672-6.605c.262-.453.121-1.115-.358-1.368" fill="#C3996B"/><path d="M342.451 252.439c.148-2.384-1.451-4.56-2.737-6.515-.774-1.177-1.316-2.5-2.212-3.593-.751-.916-2.643-2.005-2.167-3.405.172-.506-.067-.881-.424-1.073a19.897 19.897 0 01-.682-8.075c.043-.354-.191-.672-.496-.851a26.862 26.862 0 01.254-4.38c.074-.514-.128-1.098-.699-1.23-.474-.107-1.149.146-1.23.7-.334 2.283-.428 4.579-.229 6.88.021.24.121.473.271.656a21.372 21.372 0 001.11 7.57c.012.037.037.064.053.097-.043 1.099.525 2.137 1.283 2.955.496.536 1.086.988 1.536 1.567.448.576.772 1.246 1.122 1.885 1.258 2.3 4.1 4.902 2.997 7.764-.151.394-.033.704.193.915-.481 2.186-1.76 4.276-2.751 6.21a151.095 151.095 0 01-3.375 6.205 42.166 42.166 0 00-5.234 8.614c-.68-.621-2.092-.084-1.666.933l.687 1.64c.145.346.417.542.715.619.16.507.434.989.885 1.417.542.514 1.468.299 1.672-.442a51.665 51.665 0 015.361-12.625.87.87 0 00.11-.553c.08-.144.164-.284.244-.428 1.219-2.2 2.383-4.43 3.49-6.687.981-2 1.948-3.981 2.059-6.242a.895.895 0 00-.14-.528m20.338-44.767c-.588 0-.944.46-1 1-.222 2.117-1.1 4.097-2.118 5.94-1.088 1.967-2.324 3.854-3.51 5.763-.68 1.096 1.05 2.102 1.729 1.009 2.45-3.95 5.402-7.957 5.899-12.712.056-.538-.5-1-1-1m-6.849-6.406c-2.436 2.356-1.952 5.783-1.482 8.809.486 3.123.527 6.459-1.166 9.245-.67 1.102 1.058 2.109 1.726 1.009 1.58-2.598 1.922-5.69 1.646-8.67-.263-2.83-1.688-6.678.69-8.98.926-.896-.489-2.31-1.415-1.413M352.163 213c-.598-1.262-1.506-2.366-2.445-3.388-.77-.838-2.412-2.195-1.837-3.516.509-1.168-1.214-2.188-1.727-1.01-1.406 3.231 1.887 5.254 3.489 7.568.835 1.207 1.49 2.655 1.307 4.157-.183 1.498-1.142 2.734-1.082 4.293.049 1.284 2.049 1.29 2 0-.053-1.36.84-2.562 1.035-3.894.213-1.454-.117-2.895-.74-4.21m-4.011 10.608c-.727-2.354-3.393-2.781-5.497-2.488-2.008.28-4.172.824-5.55 2.42-.837.97.571 2.392 1.414 1.416 1.013-1.175 2.534-1.548 4.005-1.805.847-.147 1.807-.278 2.633.032.507.19 1.057.614 1.126 1.19.05.41-.144.838-.273 1.217-.152.445-.308.888-.462 1.33-.333.957-.662 1.912-.997 2.866-.5 1.426-1.154 3.136-2.798 3.504-1.256.28-.725 2.209.531 1.928 2.295-.513 3.402-2.67 4.125-4.7.416-1.166.814-2.34 1.222-3.51.38-1.091.881-2.232.521-3.4" fill="#C3996B"/><path d="M317.992 268.847c-1.204-3.327-2.681-3.979-4.751-6.912a.872.872 0 01-.16-.435c-4.647-3.005-9.559-5.647-14.686-7.66-6.987-2.743-14.719-2.753-21.689-5.579-1.01 1.266-2.245 2.535-3.485 3.374-.496 1.45-1.16 2.961-2.447 3.86-1.676 1.17-3.945 1.065-5.734.111-.304.06-.613.09-.928.06-1.227-.116-2.191-.777-2.927-1.739-.282-.369-.113-.89.191-1.192-.043-.169-.086-.337-.113-.513a17.1 17.1 0 01-.429-.545c-1.329.413-2.636.903-3.938 1.413-.011.365-.214.712-.673.834-2.435.648-4.959 1.23-7.322 2.163-14.087 9.471-24.834 23.64-30.398 40.743-.061.184-.08.354-.119.531a104.09 104.09 0 01-4.553 7.028c1.02 1.67 2.373 3.19 3.573 4.582 2.118 2.455 4.422 4.905 5.825 7.858.662.43 1.335.841 2.062 1.16.831.363 1.202 1.28 1.192 2.152.151.012.299.024.451.025.522.004.906.412.954.914.462.221.941.41 1.44.558.988.293 1.919 1.31 1.828 2.401-.208 2.512-.925 4.88-1.704 7.235.521 1.022.26 1.964-.362 2.604 1.479.47 1.555 3.993 2.743 3.012-2.186 11.533-2.569 19.394-4.5 30.977 2.301 1.141 4.7 2.075 6.978 3.265.099.052.181.12.268.183 1.75.453 3.494.953 5.256 1.336 3.222-.635 6.589.027 9.855-.14 4.453-.23 8.877-.946 13.324-1.286 2.241-.17 4.485-.318 6.728-.48.408-.104.816-.21 1.224-.312 3.996-.997 8.045-1.876 12.156-2.228.475-.04.952-.06 1.43-.079-.103-.45.075-.928.664-1.019 4.531-.697 8.074-3.746 12.091-5.73.026-.04.036-.083.068-.123 2.115-2.645 4.634-4.806 5.899-8.032.394-1.005.69-2.03.922-3.066.245-1.207.436-2.426.559-3.659.105-1.203.15-2.415.155-3.629a.882.882 0 01.263-.648c-.016-.352-.034-.703-.045-1.054-.191-1.334-.387-2.669-.408-4.018-.176-2.393-.192-4.803-.539-7.18a.978.978 0 01.101-.582c-.342-3.257-.761-6.507-.897-9.78a.845.845 0 01.189-.583c-.379-2.408-1.071-4.773-.952-7.235a.935.935 0 01.192-.506 33.8 33.8 0 00-.038-.315.93.93 0 01-.12-.258c-.364-1.4-.415-2.82-.416-4.26 0-.518.292-.8.648-.889.353-.56.849-.986 1.382-1.366a1.29 1.29 0 01-.265-.497c-.283-1.054-.44-2.133-.637-3.204a17.89 17.89 0 00-.355-1.586 11.032 11.032 0 00-.305-.916l-.015-.036-.034-.075a5.028 5.028 0 00-.106-.223c-.349-.71-.175-1.493.506-1.932.669-.43 1.522-.106 1.933.506l.156.233a.883.883 0 01.309-.317c.335-.196.911-.18 1.169.151.152.197.339.388.538.57.188-.088.384-.13.578-.129.001-.119.014-.24.049-.369.249-.91.647-1.753 1.071-2.584.037-.137.094-.264.125-.405.052-.128.117-.238.19-.337.527-2.1 1.438-4.07 2.502-5.976.224-.542.453-1.082.689-1.619a1.15 1.15 0 01.006-.837c1.695-4.465 3.973-11.28 5.618-15.765" fill="#27A9E0"/><path d="M256.89 253.099a.865.865 0 01-.677.845c-3.755 1.008-7.724 1.838-10.984 4.083-.548.376-1.067.074-1.292-.393a100.87 100.87 0 00-6.025 3.618.977.977 0 00-.44 1.06 55.077 55.077 0 00-7.104 8.126.787.787 0 00-.138.38 95.78 95.78 0 00-6.39 8.737c-.524.814-1.068 1.648-1.602 2.499-.06.066-.125.12-.172.214-.052.102-.1.207-.151.309-1.343 2.183-2.584 4.482-3.24 6.914-.205.004-.407.04-.605.093a38.631 38.631 0 01-1.443 2.913c-1.136 2.873-3.001 5.425-4.038 8.36a.92.92 0 01-.44.52c.559 3.218 3.03 5.968 5.065 8.346 2.126 2.485 4.438 4.966 5.848 7.954.668.437 1.343.86 2.075 1.184.524.232.863.685 1.045 1.208.337.184.673.37 1.03.525a3.47 3.47 0 001.346.297c.018.015.03.032.049.045a4.06 4.06 0 002.618.757c.325-.021.588-.136.789-.4.205-.267.24-.554.18-.882a3.864 3.864 0 00-.125-.457 2.15 2.15 0 00-.288-1.406 2.333 2.333 0 00-.89-.823 2.354 2.354 0 00-.634-1.11c-2.702-2.637-5.472-5.221-8.086-7.948l-.306-.327c-.047-.066-.097-.131-.144-.197a19.735 19.735 0 01-1.316-13.197c.257-.09.468-.295.538-.665 1.92-10.214 8.548-18.493 14.932-26.311.102-.124.159-.256.195-.388a.877.877 0 00.632-.301 78.846 78.846 0 018.712-8.156 99.834 99.834 0 0112.514-5.794c.428-.163.613-.517.646-.882a95.76 95.76 0 00-1.684.65" fill="#1C75BB"/><path d="M264.518 365.106c-2.639-.25-5.16.65-7.656 1.367-1.98.567-4.106 1.01-5.81.088a2.104 2.104 0 00-1.346-.219 22.566 22.566 0 01-10.095-6.595c-3.563-4.04-5.065-9.252-6.21-14.4a1.863 1.863 0 00-.474-.908c-1.284-14.396 4.606-28.472 8.305-42.156 1.171-4.33 2.11-8.698 2.706-13.146a1.436 1.436 0 00-.188-.89 8.84 8.84 0 00-.08-3.904c-.103-.41-.536-.753-.964-.735-.479.022-.79.307-.964.735a29.006 29.006 0 00-1.102 3.303c-.388.37-.624.905-.702 1.49-1.573 11.753-6.053 22.834-8.843 34.301.05.196.077.396.061.602-.195 2.357-.842 4.585-1.565 6.797l-.088.565c.522 1.16.06 2.207-.787 2.802-.266.817-.556 1.624-.978 2.376-.68 2.564-.666 5.57-1.152 8.08a68.954 68.954 0 01-2.775 10.136c-.09.545-.188 1.09-.298 1.631-.384 1.901-.895 3.795-1.66 5.58-.187.435-.35.864-.47 1.3.175.232.341.47.498.713.153.177.303.356.467.524a13.52 13.52 0 001.145 1.04 25.096 25.096 0 003.41 2.076c2.428 1.242 4.988 2.21 7.407 3.473.096.05.175.115.26.176.17.045.341.085.511.13 5.267.08 10.597-.433 15.856-.678h.002c1.961.504 4.037.313 6.042-.178 2.518-.615 4.914-1.726 7.537-1.476 1.077.103 2-.993 2-2 0-1.166-.92-1.897-2-2m28.102-1.044c.657-.233 1.314-.466 1.969-.707.175-.064.348-.13.523-.197 1.05-.627 2.106-1.243 3.195-1.782.026-.04.036-.082.068-.122 1.05-1.314 2.2-2.508 3.246-3.773.157-.332.306-.667.443-1.004.369-.897.646-1.816.892-2.744.5-.194.935-.547 1.238-1.055.496-.828.518-1.76.593-2.694l.09-1.123a20.7 20.7 0 00.344-4.288c-.001-.056-.015-.11-.021-.166a36.189 36.189 0 00-.015-4.14 1.908 1.908 0 00-.146-1.218 2.228 2.228 0 00-.265-.582c-.001-.059.002-.117 0-.176a1.905 1.905 0 00-.048-.4 1.03 1.03 0 00.33-.714 31.434 31.434 0 00-.054-4.977c.09-.477.18-.95.272-1.426-.031-.269-.053-.538-.092-.806a1.01 1.01 0 01.03-.439c-.108-.77-.218-1.54-.298-2.315a2.343 2.343 0 00-.633-.383 96.574 96.574 0 00-.057-.758 8.964 8.964 0 00-.212-2.72 53.78 53.78 0 00-.48-6.856c-.173-1.27-2.1-.729-1.93.531.48 3.515.549 7.071.273 10.606a2.15 2.15 0 00-.15.463c-1.491 7.486-2.562 15.262-5.131 22.475-2.13 5.977-5.837 11.586-11.721 14.367-1.271.601-1.236 1.901-.57 2.781 1.243-.929 2.794-1.558 4.137-2.106 1.376-.562 2.78-1.055 4.18-1.552m14.297-106.494a707.587 707.587 0 01-5.083-.95.819.819 0 00-.422-.396l-.68-.295c-.002-.378-.21-.752-.697-.914l-2.931-.968c-.001-.077-.021-.151-.04-.226.033-.006.07-.002.1-.01 1.08.405 2.222.664 3.369.919a74.674 74.674 0 00-2.138-.888 32.837 32.837 0 00-1.754-.614 1.049 1.049 0 00-.414-.145c-5.387-1.696-11.111-2.158-16.522-3.776a13.302 13.302 0 00-1.292.019c-.004 0-.008.003-.013.004a47.94 47.94 0 00-2.18-.015c-.704-.241-1.413-.46-2.152-.502l-.033.107-.011.04c-.097-.48-.423-.924-.972-.9-.485.022-1.073.445-1 1 .04.319.059.639.048.96-.005.153-.021.303-.035.455v.01l-.008.042c-.017.089-.033.179-.052.269a6.4 6.4 0 01-.258.878l-.056.138a5.093 5.093 0 01-.293.576 6.497 6.497 0 01-.242.39c-.043.063-.088.125-.132.188l-.026.04c-.004.004 0-.002-.012.013a6.504 6.504 0 01-.657.7c-.1.093-.204.18-.311.266l-.092.065a5.496 5.496 0 01-.828.484c-.037.018-.284.12-.098.045-.5.203-.854.667-.698 1.23.113.413.579.79 1.03.747a.914.914 0 001.029.36c5.998-1.614 12.046-1.562 18.15-.621 5.979.92 11.924 2.12 17.875 3.204 1.258.229 1.798-1.7.53-1.93m10.453 11.884c.13-.782-.299-1.53-.938-1.8a38.068 38.068 0 00-.701-1.506c-.099.277-.204.551-.303.827.245.033.475.17.624.473.019.04.033.08.052.12a1.426 1.426 0 00-.937.192c-2.008 1.165-2.459 3.708-3.137 5.746l-2.753 8.28c-.19.57-.371 1.147-.555 1.724a1.502 1.502 0 00-.783 1.253c-.016.084-.043.166-.068.247a2.754 2.754 0 01-.117.204 3.21 3.21 0 01-.165.165c-.063.04-.127.077-.193.112a2.26 2.26 0 01-.147.04c-.052.001-.105 0-.157-.003a2.7 2.7 0 01-.176-.049 2.987 2.987 0 01-.213-.12 2.615 2.615 0 01-.168-.166 2.413 2.413 0 01-.117-.196c-.004-.013-.011-.026-.015-.04-.118-.422-.442-.772-.837-.96-.685-1.625-1.408-3.22-2.308-4.773-.464-.799-1.298-.866-1.938-.539-.924-.07-1.961.681-1.671 1.862a65.166 65.166 0 001.117 3.951l1.149 6.32c.313 1.726.407 3.88 1.94 5.018 1.307.971 3.123.794 4.059-.599.906-1.35 1.187-3.247 1.757-4.762 2.577-6.856 6.306-13.318 7.618-20.593l.034-.105-.01-.023c.018-.1.04-.199.057-.3" fill="#1C75BB"/><g transform="translate(158 197.066)"><mask id="b" fill="#fff"><use xlink:href="#a"/></mask><path d="M174.932 71.067a98.08 98.08 0 00-1.532 2.145 29.34 29.34 0 001.564-1.95 1.377 1.377 0 01-.032-.195m-15.02 3.873l-.007.013c-.254.653-.523 1.303-.787 1.95a20.62 20.62 0 015.708.56c1.425.345 2.806 1.175 4.321 1.175.221 0 .44-.023.654-.065 1.052-.204 2.03-.88 2.893-1.808.728-.784 1.362-1.679 1.983-2.584a31.29 31.29 0 01-1.224 1.365c-.148.156-.296.24-.433.267-.455.088-.804-.446-.736-1.025-.648.832-1.382 1.563-2.244 1.818a2.46 2.46 0 01-.229.056c-1.384.27-2.794-.668-4.033-1.009-1.893-.513-3.86-.739-5.867-.713" fill="#231F20" mask="url(#b)"/></g><g transform="translate(158 197.066)"><mask id="d" fill="#fff"><use xlink:href="#c"/></mask><path d="M114.605 50.391c-.429.083-.826.608-.82 1.125.052 3.092-2.034 6.548-4.756 7.275-.1.027-.199.05-.297.07-1.309.253-2.53-.14-3.466-.964-.029-.383-.234-.689-.58-.735l-.102-.014c-.485-.658-.829-1.464-.989-2.375-.08-.434-.35-.589-.645-.558a.65.65 0 00-.487-.13l-.02.004a.99.99 0 00-.494.303.527.527 0 00-.463-.1 55.877 55.877 0 00-7.593 2.754c-.08.032-.146.097-.206.152-3.186 1.206-6.356 2.548-9.418 4.353-5.749 3.39-10.809 8.407-15.143 14.193-4.34 5.786-7.985 12.224-11.393 18.73a316.474 316.474 0 00-2.494 4.856c-.834 1.631-1.947 3.394-2.128 5.235-.127 1.305.231 2.41.766 3.37-4.499 3.267-7.575 8.74-10.267 14.007a435.352 435.352 0 00-10.909 22.973c-2.534 5.755-5.32 13.608-11.16 15.381-.365.112-.73.201-1.095.272-1.737.338-3.488.262-5.243.181-1.762-.077-3.522-.154-5.258.183a9.79 9.79 0 00-3.664 1.498c-2.194 1.472-4.973 5.494-2.742 7.757.506.516 1.101.685 1.734.675-.243.186-.486.354-.722.555-1.539 1.284-3.718 3.237-3.45 5.597.216 1.971 2.038 2.534 3.538 2.553 1.176.014 2.367-.096 3.567-.286-.847.761-1.622 1.62-2.255 2.66-1.26 2.076-1.619 4.678-.836 6.713.732 1.897 1.94 2.433 3.333 2.162 1.96-.38 4.287-2.357 6.178-4.38-.2.314-.384.62-.525.896-.648 1.26-.989 2.63-.757 3.95.422 2.442 2.537 3.82 4.566 3.98a5.63 5.63 0 001.54-.08c3.623-.706 6.027-4.97 7.66-9.148.246 1.827.772 3.505 1.97 4.656.954.92 2.224 1.343 3.49 1.097.865-.168 1.727-.648 2.487-1.497 1.665-1.853 2.31-4.727 2.182-7.096-.193-3.48-1.789-6.524-1.209-10.215.506-3.252 2.305-6.212 4.215-8.769 2.086-2.799 4.443-5.34 6.734-7.902 4.745-5.312 9.577-10.632 13.48-16.852 3.11-4.96 5.598-10.42 6.8-16.126 1.592 1.394 3.37 2.51 5.391 2.938-1.882 7.832-3.507 15.685-5.022 23.567-.995 5.223-2.159 10.488-4.38 15.405-.398.25-.7.776-.525 1.27-.089.517.22.872.602.936 1.583 2.294 3.572 3.948 5.798 5.15a1.115 1.115 0 00-.214.698c.101 4.63-.82 9.372-1.564 14.054-.736 4.594-1.465 9.195-2.194 13.788-1.48 9.276-2.953 18.55-4.426 27.824-.045.277.006.483.094.656-.473 1.527-.594 3.063.014 4.561.93 2.31 2.971 3.321 5.074 3.76a33.8 33.8 0 002.101.37c-.17 12.158-.34 24.317-.516 36.468l.118-.04.695 17.652a.92.92 0 00.11.411 33.03 33.03 0 01-.065 2.804c-.279 3.84-1.998 6.94-4.275 9.914-3.574 4.678-8.319 9.93-7.184 16.01-.895 3.475-.005 6.932 1.946 9.172 2.183 2.506 5.58 3.001 8.842 2.367a15.39 15.39 0 001.742-.446c7.187-2.295 13.538-9.042 17.044-17.052 1.972-4.514 3.033-9.405 2.923-14.119-.01-.61-.422-.839-.829-.76a.945.945 0 00-.272.1c.022-.263.06-.53.083-.793.181-2.724-.16-5.336-.354-7.97a101.193 101.193 0 01-.212-4.505l-.095.071c.371-5.967.801-11.927 1.29-17.899l.051.016a355.773 355.773 0 014.094-30.993c.03-.153.023-.28.01-.407 1.64-.388 3.294-.978 4.766-2.11 4.537-3.5 3.924-10.58 4.441-15.616.643-6.296 1.803-12.614 3.388-18.85 1.7 7.57.227 16.16.381 24.194.034 1.782-.096 4.158.696 5.612.798 1.48 2.527 1.022 3.931.88.536-.053 1.081-.116 1.618-.168a1.266 1.266 0 00-.06.383 656.49 656.49 0 01-2.134 60.594c-.037.094-.08.19-.097.312-.304 1.953-.587 3.952-.738 5.917-3.323 7.914-.332 16.123 4.72 20.112 2.782 2.191 6.052 3.431 9.432 4.261 2.5.608 5.304 1.312 8.054.778a8.945 8.945 0 002.871-1.084c3.357-1.983 5.996-5.995 6.526-10.23.045-.345-.05-.604-.21-.779.873-3.489.3-7.293-1.056-10.14-2.57-5.414-7.077-9.517-11.74-12.319.188-2.854.935-9.334 1.011-10.049.456-4.194.912-8.388 1.37-12.582a9795.38 9795.38 0 012.772-24.937c.553-4.835 1.1-9.669 1.66-14.505.007-.096-.007-.163-.015-.248 2.921-1.025 6.51-2.215 8.736-5.024 2.661-3.368 1.508-8.062 1.206-11.65-.403-4.71-.74-9.442-1.01-14.186a564.942 564.942 0 01-.948-32.425c-.007-.379-.168-.599-.38-.704a17.19 17.19 0 003.656-5.153c2.067-4.446 2.488-9.48 2.445-14.087-.055-6.039-.742-11.973-1.195-17.9-.725-9.427-1.443-18.847-2.16-28.275.146.25.3.486.454.725.19 1.381 1.257 1.898 2.375 1.68.648-.125 1.311-.496 1.83-1.088l-.038-.08c.384-.394.686-.954.96-1.508l4.496 1.305c.007.163.015.325.007.491a42.874 42.874 0 016.21 1.767c2.203.8 4.437 1.645 6.833 1.828 1.104.083 2.22.011 3.336-.206a15.149 15.149 0 003.658-1.23c1.495-.713 2.908-1.653 4.241-2.733 1.571-1.033 2.841-2.61 3.9-4.395a.892.892 0 01-.543.364c-.54.105-1.073-.41-.79-1.15-.557.933-1.179 1.796-1.886 2.508l-.007-.086c-.479.44-.972.855-1.473 1.255a5.916 5.916 0 01-1.118.51c-.383.118-.618.458-.722.815-.229.148-.457.296-.692.437-1.496.87-3.053 1.503-4.616 1.806-.837.163-1.674.231-2.505.19-2.389-.124-4.6-.93-6.79-1.732a49.939 49.939 0 00-3.27-1.059.781.781 0 00-.535-.51c-2.3-.669-4.608-1.335-6.907-1.995.406-.89.811-1.774 1.195-2.669a123.51 123.51 0 003.2-8.314 1.7 1.7 0 00.081-.36c.864-2.2 1.721-4.398 2.585-6.605.18-.46.367-.923.558-1.388.264-.647.533-1.297.787-1.95l.007-.013c1.18-1.958 1-4.637-.07-6.25-1.415-2.128-3.758-2.778-5.549-4.323l.051-.14c-6.46-4.96-14.16-7.959-21.854-10.069-5.79-1.59-11.729-2.7-17.667-3.769a.625.625 0 00-.218.002m-5.903 10.392c.2-.039.401-.09.602-.153 3.105-.957 5.59-4.508 6.036-8.129 8.835 1.603 17.7 3.313 25.971 6.703 3.975 1.64 7.81 3.678 11.311 6.273 1.577 1.64 3.79 2.23 5.344 3.89.631.671 1.137 1.567 1.144 2.681.012.966-.299 1.977-1.05 2.598-.464.392-.487.958-.282 1.333-.569 1.46-1.138 2.918-1.706 4.368-1.005 2.572-2.01 5.144-3.015 7.707l.2-.09a111.652 111.652 0 01-1.486 3.754 104.583 104.583 0 01-1.49 3.452 97.287 97.287 0 01-.79 1.71c-.14.303-.282.616-.437.914a2.203 2.203 0 01-.154.281l-.066.09a.834.834 0 00-.135.014c-.32.062-.553.323-.683.638a1.376 1.376 0 01-.165.042.79.79 0 01-.255.013l-.028-.089c-.169-.27-.33-.533-.499-.794l-.059-.1c-.425-.662-.843-1.332-1.267-2.002a.706.706 0 00-.86-.29l-1.085-14.129c-.047-.602-.48-.827-.89-.747-.407.08-.788.458-.742 1.065l2.928 38.358c.49 6.344.991 12.685 1.457 19.034.345 4.6.55 9.417-.474 14.18-1.113 5.16-3.885 9.267-8.079 11.56-2.275 1.236-4.644 1.973-6.99 2.67-2.693.808-5.392 1.54-8.09 2.185a151.337 151.337 0 01-6.777 1.477c-8.6 1.67-17.204 2.558-25.699 2.633-8.882.083-20.249.388-25.82-7.864 1.963-4.288 3.147-8.857 4.083-13.428 1.046-5.113 1.944-10.23 3.042-15.336.52-2.434 1.083-4.86 1.653-7.287.202-1.932.617-3.845 1.35-5.62a423.739 423.739 0 015.077-18.66 422.057 422.057 0 015.701-17.676c.284-.825-.286-1.416-.809-1.314-.239.046-.468.238-.6.62-3.557 10.25-6.738 20.607-9.485 31.054a370.83 370.83 0 00-1.517 5.973c-1.58-.34-3.013-1.143-4.334-2.192a1.991 1.991 0 01-1.264-.559c-.66-.649-1.232-1.359-1.643-2.239-1.474-1.64-2.838-3.416-4.152-4.94l-3.345-3.872c-.513-.6-1.07-1.192-1.607-1.814a2.533 2.533 0 01-.91-.912c-.153-.238-.24-.558-.3-.9l-.125.032c-.073-.124-.153-.23-.22-.355-.923-1.748-.214-3.329.723-5.188.768-1.506 1.527-3.01 2.303-4.5 6.013-11.643 12.917-23.709 22.871-31.2 3.203-2.41 6.647-4.159 10.12-5.603a115.17 115.17 0 015.201-1.987c.214-.076.48-.187.774-.314v-.164a50.377 50.377 0 014.274-1.426l.161-.075c.167 1.281.915 2.346 1.914 2.775 1.28 1.485 3.166 2.255 5.144 1.871M20.49 162.487a10.663 10.663 0 003.27-1.195c4.732-2.682 7.31-8.705 9.575-13.916a443.387 443.387 0 019.951-21.309c3.003-6.01 6.244-13.123 11.551-16.729 1.057 1.351 2.216 2.595 3.324 3.875 2.553 2.962 5.025 6.086 7.747 8.832-2.007 11.764-10.002 21.778-17.465 30.193-3.986 4.5-8.538 8.875-11.644 14.31-1.335 2.341-2.31 4.925-2.506 7.59-.242 3.383 1.128 6.142 1.313 9.373.116 2.228-.707 5.938-3.04 6.391a2.794 2.794 0 01-.295.04c-3.5.263-3.71-5.054-3.749-8.115-.01-.616-.388-.854-.78-.777-.335.064-.68.354-.83.83-1.257 3.996-3.53 10.616-7.488 11.385a4.121 4.121 0 01-1.554 0c-1.595-.305-3.51-1.782-2.83-4.127.74-2.546 2.933-4.217 2.527-6.999-.064-.44-.425-.61-.784-.54a.94.94 0 00-.583.382c-1.21 1.71-5.029 6.393-7.574 6.887-.929.181-1.689-.198-2.09-1.484-1.33-4.27 3.263-7.427 6.09-9.169.776-.485.77-2.047-.124-1.874a.912.912 0 00-.093.024c-1.077.337-2.16.618-3.243.828-.744.144-1.487.256-2.229.33-1.08.106-3.597.568-4.153-.784-.622-1.522 2.3-3.619 3.207-4.322 1.538-1.18 3.21-2.093 4.901-2.68.868-.307 1.172-1.784.224-1.928-.558-.087-1.12-.047-1.688.063-.464.09-.93.227-1.4.381-.534.175-1.256.501-1.925.631-.465.09-.904.086-1.238-.129-1.263-.835.175-3.068 1.044-3.893 1.008-.957 2.201-1.534 3.392-1.826.192-.047.383-.089.575-.126 1.78-.346 3.558-.278 5.33-.217 1.76.07 3.52.137 5.284-.206m71.115 74.251c-1.688.328-3.383.507-5.053.63-5.22.374-10.344-.109-15.409-.716-2.418-.282-5.322-.22-7.342-1.678-.93-.674-1.709-1.776-1.78-3.188-.035-.78.165-1.554.468-2.312a12.083 12.083 0 01.403-3.423l-.096-.008c1.331-8.39 2.671-16.784 4.002-25.184.745-4.674 1.495-9.357 2.24-14.03.713-4.512 1.56-9.084 1.503-13.55 4.525 1.982 9.84 2.376 14.788 2.505 10.184.263 20.546-.619 30.906-2.63.91-.178 1.818-.363 2.727-.556 5.392-1.15 10.88-2.45 16.22-4.455 2.083-.776 4.1-1.842 5.91-3.29.006 8.96.217 17.873.642 26.736.213 4.367.476 8.715.784 13.054.165 2.25.338 4.49.532 6.733.165 2.025.463 4.05.481 6.121.011 1.968-.572 3.664-2.068 4.948-1.347 1.152-2.944 1.807-4.445 2.445-3.598 1.536-7.254 2.61-10.917 3.398-.594.13-1.187.251-1.78.366-3.105.603-6.202 1.026-9.295 1.387-1.868.207-3.758.462-5.618.59-.934.06-1.3-.327-1.439-1.38-.145-1.044-.165-2.146-.192-3.213-.234-8.934 1.578-18.534-.884-26.793a98.482 98.482 0 012.851-10.925c.17-.517-.175-1.02-.565-1.075a.727.727 0 00-.219.008c-.365.071-.647.428-.79.862a96.7 96.7 0 00-2.36 8.61c-.228.121-.428.341-.53.698-1.68 5.85-2.979 11.78-3.843 17.73a127.309 127.309 0 00-.994 8.94c-.196 2.508-.15 5.248-1.16 7.71-1.065 2.591-3.243 3.783-5.39 4.39-.76.218-1.523.396-2.288.545m-21.717 54.028c-.23-6.005-.47-12.009-.709-18.003l-.02-.117.481-34.129c1.5.175 3.014.305 4.506.456 2.808.276 5.631.471 8.491.46 2.78-.012 5.595-.205 8.42-.702.161-.022.33-.055.492-.087a360.25 360.25 0 00-3.899 29.002 1.363 1.363 0 00-.133.467 898.59 898.59 0 00-1.676 23.29c-.023.513.242.756.565.78.281 3.342.657 6.691.085 10.156-.662 4.061-2.28 7.953-4.059 11.686-.369.781-.745 1.597-1.137 2.416-.05-.413-.299-.762-.763-.716-.733.086-1.467.201-2.199.343-4.115.8-8.21 2.474-12.067 4.925-.087-4.46-.674-8.789-1.755-12.866a.75.75 0 00-.169-.339c.443-.56.87-1.102 1.27-1.637 2.158-2.9 3.81-6.03 4.26-9.703.23-1.938.182-3.83.083-5.712l-.067.03m54.284-60.16a71.486 71.486 0 008.951-2.324 8108.594 8108.594 0 00-6.094 54.708c-.254 2.4-.626 4.85-.778 7.238-.14.321-.17.69-.032.974.065 1.206.548 2.271 1.725 2.111l.046-.007c.283-.056.475-.244.594-.48 2.776 1.906 5.323 4.273 7.42 7.107l-.059.09c-.938 2.307-1.48 4.737-1.528 7.15a16.851 16.851 0 00.294 3.563c.038.21.132.45.124.668 0 .167.045.195.034.197-.01.001-.047-.009-.152.007-.419.073-.947-.153-1.352-.204a14.585 14.585 0 00-4.407.195c-2.61.507-5.208 1.687-7.606 3.442a.97.97 0 00-.112 1.51c-2.659-1.213-5.149-2.856-7.159-5.006-1.857-1.973-2.977-4.59-3.206-7.744-.108-1.379-.069-2.787.037-4.208h.007c.128-1.72.374-3.453.634-5.18.096-.157.17-.336.193-.556a667.882 667.882 0 002.213-48.026c.046-4.512.04-9.013-.01-13.515 0-.087-.03-.158-.044-.234 2.896-.32 5.795-.684 8.7-1.188.521-.09 1.045-.187 1.567-.288m-54.622 96.53c-1.173.226-2.332.31-3.413.252-3.124-.17-6.018-1.77-7.255-5.117a7.263 7.263 0 01-.284-.982c.052-.166.104-.322.162-.48l.052-.167a5.422 5.422 0 01-.152-.877.834.834 0 00-.28-.214c-.08-3.666 2.271-7.044 4.673-10.129 1.073 4.217 1.61 8.66 1.593 13.26 0 .475.377.914.801.832a.63.63 0 00.234-.1c4.031-2.742 8.315-4.578 12.65-5.42a29.052 29.052 0 012.198-.34c.081-.016.146-.055.213-.077-1.24 2.488-2.663 4.908-4.652 6.54-1.92 1.582-4.257 2.574-6.54 3.018m65.28-13.607c.813-.158 1.474-.866 1.623-1.876.15-1.084-.284-2.158-.362-3.189-.179-2.298.163-4.698.976-6.982 2.266 3.587 3.946 9.138.776 13.807-1.389 2.044-3.254 3.033-5.208 3.412-2.195.426-4.504.085-6.378-.393a29.744 29.744 0 01-4.665-1.6.666.666 0 00.235-.006.847.847 0 00.346-.159c1.988-1.458 4.151-2.457 6.328-2.94a13.923 13.923 0 013.184-.341c1 .021 2 .397 3.007.288.047-.005.093-.012.138-.02M184.351 92.91c-.279.568-.559 1.135-.84 1.701.314-.547.61-1.112.887-1.684l-.047-.017" fill="#231F20" mask="url(#d)"/></g><g transform="translate(158 197.066)"><mask id="f" fill="#fff"><use xlink:href="#e"/></mask><path d="M198.732 2.598c-1.303.253-2.249 1.601-2.629 3.09-.423 1.638-.41 3.321-.142 4.867a10.17 10.17 0 00-.777-1.206c-1.217-1.596-2.854-2.756-4.699-3.262-.507-.137-1.029-.214-1.558-.11a2.56 2.56 0 00-.854.336c-.61.378-.972.941-1.032 1.593-.059.08-.118.152-.163.255-.67 1.566-.285 3.22.5 4.33.873 1.238 2.268 1.753 3.193 2.922.836 1.065 1.223 2.511 1.352 4.033.073.798.078 1.62.025 2.45-.023.367-.053.727-.09 1.098a4.8 4.8 0 01-.03.308.652.652 0 00-.375-.065c-.584-2.195-1.462-4.444-3.409-5.129-.647-.23-1.309-.252-1.972-.123-1.946.378-3.904 2.046-5.519 3.513-1.399 1.275-3.072 3.51-2.855 5.473-.396-.987-.968-1.748-1.864-1.98a1.635 1.635 0 00-.73-.019c-.727.141-1.43.737-1.795 1.598-.495 1.15-.409 2.473-.294 3.6.383 3.711-.359 7.624.752 11.081 1.016 3.174 2.99 5.625 4.903 7.976a.575.575 0 00.368.197c1.144 1.61 1.92 3.594 2.276 5.755-.125.136-.228.32-.259.586-.654 5.531-2.805 11.027-6.09 15.496a29.34 29.34 0 01-2.333 2.794 1.26 1.26 0 00-.348.733c-.068.58.281 1.113.736 1.025.137-.027.285-.11.434-.267.42-.44.827-.896 1.223-1.365 3.58-4.225 6.201-9.514 7.41-15.047l.043.008a.446.446 0 00.088-.009c.335-.065.715-.443.73-.867.14-4.27-1.073-8.252-3.465-10.986a.546.546 0 00-.389-.192c-1.357-1.69-2.677-3.456-3.57-5.582a13.051 13.051 0 01-.985-4.113c-.108-1.578.05-3.216.068-4.827.018-1.412-.245-2.744-.235-4.146.001-.467.017-1.282.43-1.622a.66.66 0 01.288-.146c.52-.1.96.653 1.158 1.075.586 1.278.73 2.918 1.058 4.35.3 1.333.671 2.626 1.346 3.706.973 1.591 2.596 2.658 4.381 2.312.38-.075.768-.213 1.16-.424 2.17-1.173 3.837-4.064 4.4-6.654.578-2.653-.217-5.498-2.437-6.095a2.663 2.663 0 00-1.21-.03c-.618.12-1.234.425-1.82.826-.67.46-1.83 1.543-2.756 1.722-.384.075-.728-.005-.982-.348-.982-1.33.845-3.31 1.781-4.183 1.266-1.17 2.672-2.429 4.166-3.004.243-.096.474-.163.694-.206 2.68-.52 3.677 2.673 4.304 5.26.083.363.315.464.56.417a.805.805 0 00.101-.028.874.874 0 00.315.198.9.9 0 00.505.046c.554-.108 1.044-.707 1.255-1.38.303-.976.312-2.119.337-3.092.023-1.007-.004-2.013-.15-2.979-.29-1.974-1.037-3.653-2.336-4.809-1.13-1-3.665-2.227-2.77-4.596.184-.217.302-.508.288-.826v-.025l-.008-.163.015.153c.022-.03.066-.065.162-.092.125-.042.235-.106.36-.13l.03-.007c.32-.062.611.024.904.11a6.95 6.95 0 011.933.835c1.225.756 2.26 1.86 3.007 3.245 1.642 3.07 1.582 7.307.061 11.033-.28.697.193 1.116.674 1.023.25-.049.502-.236.648-.597 1.536-3.772 1.662-7.954.418-11.273a.583.583 0 00.131-.01c.438-.085.927-.668.754-1.294-.387-1.48-.523-3.399.017-5.042.207-.62.568-1.269 1.157-1.39l.015-.004c.597-.117 1.141.267 1.453.763.785 1.24.803 3.267.918 4.844.13 1.824.14 3.68.048 5.556-1.115 2.593-2.237 5.196-3.344 7.797-.292.683.183 1.098.668 1.003.251-.048.503-.232.654-.586.901-2.11 1.81-4.23 2.718-6.344.118-.265.228-.529.34-.783.198-.134.353-.363.375-.705l.008-.182c.185-.434.377-.877.562-1.31.435-1.01.82-2.174 1.446-3.073.186-.277.473-.694.773-.752a.372.372 0 01.067-.008c.42-.003.425.722.461 1.13.1 1.104.07 2.242-.05 3.39-.21 2.062-.707 4.112-1.343 6.128-1.279 4.103-3.05 8.06-4.463 12.128a103.227 103.227 0 00-2.81 9.526c-.274.096-.539.346-.65.756-2.377 8.655-2.165 17.447-4.43 26.115-2.222 8.495-6.17 16.47-10.044 24.3a1.628 1.628 0 00-.054.125c-.282.74.251 1.255.791 1.15a.89.89 0 00.542-.364 1.401 1.401 0 00.16-.274l.84-1.7c3.594-7.302 7.11-14.73 9.227-22.605 2.243-8.335 2.148-16.795 4.178-25.123a1.073 1.073 0 01.368-.054 101.335 101.335 0 014.054-13.786c1.685-4.51 3.657-8.964 4.636-13.666.467-2.234.7-4.569.468-6.728-.139-1.255-.803-2.402-1.877-2.194a1.98 1.98 0 00-.693.3c-.905.59-1.554 1.657-2.093 2.808a39.778 39.778 0 00-.07-1.897c-.099-1.718-.192-3.584-.726-5.122-.475-1.377-1.554-2.464-2.966-2.268a2.757 2.757 0 00-.126.021M180.36 29.073a4.504 4.504 0 001.195-.432c1.068-.557 2.18-1.832 3.324-2.054.182-.035.364-.044.547-.019 1.441.187 2.063 1.924 1.898 3.564-.18 1.746-1.095 3.643-2.244 4.921-.697.778-1.378 1.184-2.023 1.31-1.885.365-3.443-1.674-4.075-3.825-.343-1.178-.517-2.933-.918-4.454.066.117.14.232.228.345.517.663 1.285.796 2.068.644" fill="#231F20" mask="url(#f)"/></g><g transform="translate(158 197.066)"><mask id="h" fill="#fff"><use xlink:href="#g"/></mask><path fill="#231F20" mask="url(#h)" d="M188.445 7.875l-.007.01v.026z"/></g></g></svg>