<svg width="500" height="600" xmlns="http://www.w3.org/2000/svg"><g fill="#231F20" fill-rule="evenodd"><path d="M314.82 265.998c-6.098-7.65-15.653-10.331-24.769-12.497-1.632-.39-3.269-.78-4.904-1.182a1.654 1.654 0 01-.548.543 32.688 32.688 0 01-9.497-2.417c-.498-.21-1.1.226-1.23.699a.946.946 0 00-.016.44c-3.062 3.236-7.906 5.335-11.993 2.592-.849-.57-1.573-1.333-2.052-2.24-.435-.824-.514-1.884-1.529-2.206-1.123-.356-2.671-.018-3.826.07-.02-.02-.043-.04-.062-.061-.427.055-.849.127-1.275.189-.997.098-1.992.212-2.987.347a.81.81 0 00-.496.252c-.267.054-.537.097-.803.154-.095.02-.172.072-.251.12-.327.05-.653.117-.979.17.044.06.08.128.123.188-11.846 1.526-23.037 7.185-31.396 15.737-4.863 4.975-8.558 10.827-11.16 17.265-1.55 3.834-2.749 7.798-3.895 11.768-.849 2.943-2.172 6.507-.748 9.486.813 1.7 2.433 2.648 4.19 3.146 2.179.616 4.482.944 6.712 1.32 2.247.378 4.499.654 6.755.772a.943.943 0 00.999.036c.039 0 .078.003.117.005a25.068 25.068 0 00-4.401 2.846c-1.002.809.421 2.215 1.414 1.414 5.028-4.06 11.796-5.798 18.157-4.68a.986.986 0 00.689-.127c8.453.71 16.82 2.243 24.984 4.602.276-.7.736-1.294 1.366-1.693a130.68 130.68 0 00-28.958-5.113c.03.034.051.074.079.109a24.985 24.985 0 00-5.304.158 1.106 1.106 0 00-.01-.424 5.743 5.743 0 01-.084-.432l-.002-.02c-.017-.216-.034-.43-.034-.647.001-.216.019-.43.035-.646l.003-.024a3.73 3.73 0 01.019-.112c.008-.055.021-.111.032-.168.039.035.081.065.118.1.016-.264.043-.526.062-.788l.001-.007c.034-.104.074-.203.109-.306l.02-.053.037-.081c.181-.392.406-.762.666-1.108.315-.42.081-1.136-.359-1.368-.071-.037-.139-.045-.208-.066a72.574 72.574 0 014.645-18.833c.473-1.198-1.459-1.717-1.928-.533-2.789 7.047-4.442 14.484-4.973 22.026l.008.002a7.382 7.382 0 00-.243 2.605 8.061 8.061 0 01-1.518.887c-.026.01-.128.052-.153.06-.235.09-.475.169-.718.237-.951.263-1.655.323-2.729.21a.705.705 0 00-.263.028c-2.404-.04-4.809-.298-7.181-.678a152.212 152.212 0 01-5.241-.957c-1.68-.33-3.794-.584-4.852-2.11-1.758-2.536.053-6.601.81-9.206 1.068-3.674 2.194-7.338 3.617-10.893 4.668-11.654 13.475-21.135 24.68-26.786 6.133-3.093 12.874-4.94 19.734-5.314a.952.952 0 00.828-.545c.195-.034.405-.074.639-.118.001-.06-.002-.12-.002-.178.164-.026.33-.044.494-.07.755-.07 1.51-.13 2.266-.174.426-.026 1.653-.256 1.894-.1.092.06.43 1.123.539 1.326 1.018 1.905 2.857 3.272 4.867 3.985 4.625 1.638 9.465-.745 12.559-4.188a34.07 34.07 0 0011.613 2.277.963.963 0 00.457-.102c4.203 1.008 8.411 2 12.483 3.47 4.351 1.57 8.489 3.82 11.724 7.177 3.311 3.435 5.491 7.765 6.974 12.262 1.705 5.172 2.586 10.569 3.404 15.939.01.072.045.118.066.178.629-.251 1.249-.495 1.86-.726-1.441-9.457-3.139-19.528-9.271-27.22m-81.564 137.225a66.325 66.325 0 00-18.654 2.555.924.924 0 00-.572.446l-.186.035 2.155-11.299 1.905-9.989c-.733.197-1.456.421-2.16.685-.59 3.087-1.177 6.174-1.766 9.261-.74 3.876-1.48 7.751-2.218 11.627a8.008 8.008 0 011.926 1.776l7.828-1.492c.35-.067.588-.375.679-.713a64.322 64.322 0 0111.063-.892c1.287.01 1.288-1.99 0-2"/><path d="M322.238 506.325c-2.062.152-4.164.439-6.232.443-.985.001-1.673-.24-2.108-1.066a855.177 855.177 0 00-7.869-69.008 856.32 856.32 0 00-3.333-19.868c-.084-.468-.401-.687-.755-.716a34.59 34.59 0 015.477.581.985.985 0 00.819-.196l1.862.043c.733.016 1.473.05 2.217.086-.033.072-.072.142-.096.215-.05.151-.065.318-.079.476-.007.077-.003.154.006.231.02.166.037.334.09.493.147.449.401.827.691 1.188-.001.069-.018.132-.004.207 3.981 22.815 7.962 45.628 11.945 68.443l3.145 18.023-5.776.425m-29.047-91.381l.696-7.889a.836.836 0 00-.193-.636l.02-.447 7.725-.515 3.972-.266c1.028-.068 2.141-.053 3.135-.365.913-.287 1.686-.84 2.079-1.732.432-.984.317-2.105.238-3.148a39.423 39.423 0 00-.382-3.197l6.378.097 1.451.022c.381.006.932-.061 1.297.091.659.274.477 1.798.517 2.385l.814 11.817c-.081-.005-.163-.008-.243-.021.067.039.122.085.204.11.02.006.028.018.047.025l.058.831c.024.36.207.607.445.765-.176.501-.501.973-.83 1.179-1.599 1.004-3.931.637-5.719.596l-8.792-.199.004.019a37.317 37.317 0 00-12.921.478m-1.548-5.123l-2.347 26.625c-.036-.001-.072.002-.107.001a5330.219 5330.219 0 00-3.272 25.218c-.311 2.441-.764 4.92-.944 7.38a1.067 1.067 0 00-.088.853c.183-.106.37-.207.549-.32.033-.028.063-.057.094-.085-.06.445-.001.919.179 1.379.499 1.277 1.474 2.113 2.468 3.006l7.156 6.431a.963.963 0 001.086.168c.173.214.352.423.519.641-.021.033-.05.05-.069.086-1.147 2.213-1.798 4.637-1.858 7.133a16.098 16.098 0 00.369 3.771c.048.227.165.494.159.725-.008.295.159.195-.15.189-.51-.009-1.161-.357-1.658-.488-4.901-1.278-10.104-.748-14.692 1.361-.725.333-.608 1.12-.14 1.545-3.253-1.797-6.305-4.011-8.775-6.655-2.275-2.437-3.651-5.382-3.943-8.714-.128-1.459-.087-2.918.044-4.373l.001-.008c.16-1.762.452-3.518.77-5.258a.979.979 0 00.233-.543 575.136 575.136 0 002.604-49.558c.008-.912-.001-1.823.002-2.735l.49-.027c-.106-.252-.21-.503-.261-.773a3.602 3.602 0 01-.012-1.211l-.216.011c-.002-.978.007-1.956.002-2.933.441-.164.819-.584.738-1.171-1.004-7.269-.245-16.771 7.122-20.525 2.791-1.422 6.398-1.89 9.28-.454 3.524 1.755 4.62 5.74 4.816 9.387.175 3.286.024 6.612-.163 9.927l.014-.006m6.603 73.128c2.775 4.192 4.845 10.317.977 14.532-3.602 3.927-9.837 2.458-14.172.805a48.695 48.695 0 01-5.719-2.615 1 1 0 00.714-.049 19.64 19.64 0 017.739-1.779 19.216 19.216 0 013.899.287c1.221.22 2.45.813 3.678.902 1.071.077 1.965-.532 2.147-1.614.184-1.098-.346-2.302-.447-3.395-.22-2.427.193-4.86 1.184-7.074m-3.189 20.288c-3.889 1.6-8.158-.018-11.887-1.344-7.061-2.51-14.471-6.526-17.388-13.863a16.28 16.28 0 01-1.148-5.345c.453 2.01 1.264 3.945 2.598 5.742 3.777 5.086 9.888 8.695 15.633 11.121 4.877 2.058 11.358 3.905 16.159.689a9.858 9.858 0 01-3.967 3m-32.137-87.269c.121-.647.229-1.295.355-1.942-.223.029-.449.037-.673.059.64-2.655 1.27-5.567 1.58-8.499l.038-.015a6.683 6.683 0 01.931-.264l.204-.038c.033-.006.313-.034.141-.024-.174.011.111-.01.142-.013a7.198 7.198 0 01.691-.026 7.035 7.035 0 01.664.042l.102.016c.273.045.524.044.771-.1.17-.1.313-.282.397-.474a36.65 36.65 0 00.153 5.393c-.198-.084-.401-.157-.596-.244.012 1.234.013 2.467.016 3.701.258.683.421 1.404.496 2.137-1.804.096-3.609.193-5.412.291m-1.798-1.309a300.085 300.085 0 00-3.45 23.066c-.082.13-.145.278-.163.458a750.624 750.624 0 00-1.993 23.916c-.036.533.289.83.685.921.352 3.535.822 7.108.134 10.594-.808 4.094-2.781 7.82-4.942 11.348-.456.744-.916 1.517-1.391 2.291-.064-.444-.367-.862-.935-.899a41.836 41.836 0 00-17.453 2.595 52.669 52.669 0 00-2.175-13.753 1.016 1.016 0 00-.209-.385c.537-.49 1.06-.972 1.547-1.449 2.639-2.584 4.659-5.51 5.193-9.241.284-1.973.216-3.95.092-5.929-.025.006-.051.008-.077.015l-.91-18.894c-.002-.048-.024-.081-.031-.125l.436-30.167a.84.84 0 00.396-.591c1.384-7.21 3.786-15.403 11.049-18.709 3.225-1.467 7.001-1.576 10.028.419 2.891 1.908 4.561 5.279 5.204 8.598.958 4.944-.336 10.052-1.49 14.847-.119.494.115.87.455 1.074m-3.318 61.303c-.548 6.657-3.821 12.926-8.784 17.425-5.636 5.11-15.22 8.853-22.444 4.842-2.448-1.358-4.363-3.943-4.795-6.709.152.235.311.465.476.687a.918.918 0 00.35.458c4.128 5.029 11.883 6.15 18.136 4.699 4.341-1.008 7.301-3.633 9.731-7.26 2.439-3.635 4.81-7.396 6.438-11.475.347-.872.638-1.765.892-2.667m-30.147.291a50.703 50.703 0 011.98 14.133c-.001.584.652 1.218 1.266.964a40.468 40.468 0 0118.164-2.996c.1.006.177-.019.262-.037-1.51 2.344-3.246 4.574-5.675 5.873-3.561 1.905-8.279 2.213-12.186 1.391-3.822-.806-7.37-3.057-8.885-6.787a9.177 9.177 0 01-.357-1.087c.066-.157.126-.314.205-.468.027-.053.043-.104.061-.156a5.83 5.83 0 01-.187-.945 1.176 1.176 0 00-.346-.282c-.104-3.833 2.759-6.879 5.698-9.603m90.546-38.147l-3.351-19.203c-.009-.046-.033-.072-.045-.113 0-.016.011-.031.01-.047l-.036-.266a.984.984 0 00-.217-.389c.2-.036.396-.107.536-.259l.157-.202c.09-.156.135-.324.136-.505a1.226 1.226 0 00-.038-.381c1.154.023 2.305.004 3.433-.112 1.971-.204 4.012-1.062 4.602-3.121a3.98 3.98 0 00.146-1.106c.026-.042.045-.089.066-.136a1.774 1.774 0 01-.621.004c.005-.056.027-.101.023-.164-.334-4.844-.5-9.733-1.01-14.561-.094-.887-.38-1.75-1.191-2.232-.884-.525-1.986-.437-2.976-.453l-7.413-.112c-.11-.002-.197.028-.288.054a41.19 41.19 0 00-.591-2.493.96.96 0 00-.216-.4c-.102-2.484-.205-4.968-.269-7.453-.673.007-1.345 0-2.017-.022.097 3.678.247 7.354.424 11.029.018-.004.036-.01.053-.015.209-.083.437-.195.658-.272a35.58 35.58 0 01.643 4.148c.078.85.342 2.052.024 2.875-.289.747-1.225.832-1.925.892-4.364.369-8.747.587-13.117.877.052-1.48.076-2.959-.023-4.437-.271-4.042-1.586-8.275-5.266-10.462-3.18-1.889-7.233-1.743-10.579-.389-3.8 1.541-6.501 4.538-8.048 8.301-.933 2.268-1.402 4.658-1.574 7.081-.083-.346-.306-.665-.675-.726a7.984 7.984 0 00-3.287.14c.245-5.317-.831-10.515-5.192-14.173-6.509-5.46-15.609-1.767-20.023 4.484-2.93 4.148-4.235 9.194-5.179 14.111-.025.132-.015.252.004.367l-.457-.169-.478 32.98c.047-.012.096-.016.143-.024l.892 18.525c.009.175.058.32.129.448.02.968.008 1.937-.073 2.905-.331 3.946-2.429 6.822-5.208 9.464-4.361 4.146-10.159 8.653-8.761 15.218-1.083 3.434.016 7.217 2.406 9.941 3.164 3.607 8.378 4.631 12.962 4.142 8.794-.938 16.552-6.681 20.826-14.312 2.406-4.298 3.694-9.178 3.549-14.109-.024-.786-.78-1.088-1.356-.912.032-.269.077-.535.099-.807.219-2.798-.209-5.589-.449-8.373a83.01 83.01 0 01-.265-4.727c-.04.018-.082.03-.123.048.442-6.132.952-12.258 1.545-18.376.019.009.039.014.058.024.761-7.429 1.835-14.82 3.161-22.169.009 0 .016.005.025.004l5.729-.307a8.421 8.421 0 01-.501 2.01c-.094 12.068-.543 24.134-1.402 36.173-.31 4.355-.678 8.705-1.087 13.052a.938.938 0 00-.126.307c-.364 1.975-.705 4-.889 6.019-4.049 7.567-.369 16.718 5.826 21.89 3.408 2.844 7.417 4.802 11.555 6.343 4.145 1.543 8.964 3.382 13.377 1.892 2.738-.923 5.071-2.864 6.519-5.329.281-1.148.46-2.32.831-3.447.127-.385.343-.703.618-.941-.015-.02-.02-.052-.037-.071a1.063 1.063 0 00-.225-.397c1.062-3.46.343-7.533-1.316-10.771a29.774 29.774 0 00-1.151-2.02.75.75 0 00.485-.593c-.072-.08-.141-.163-.215-.242a24.211 24.211 0 00-1.985-1.859l.023.204c-.135-.18-.281-.353-.42-.531-.092-.073-.183-.148-.275-.223l-.003-.002-.275-.207a32.011 32.011 0 00-1.217-.854 2.107 2.107 0 01-.775-.939 2.449 2.449 0 01-.359.437l-4.566-4.105-1.448-1.3c-.412-.37-.867-.723-1.21-1.163a3.021 3.021 0 01-.513-.927 4.418 4.418 0 01-.06-.242c.006.048.003-.206-.011-.07.014-.14-.072-.024.082-.119.874-.538.405-1.731-.379-1.852.329-3.242 1.006-8.225 1.085-8.852a6919.27 6919.27 0 011.649-12.831c.206-1.584.416-3.168.625-4.752a.994.994 0 00.391-.726l2.083-23.617a35.158 35.158 0 018.881-.914c-.591-.019-1.261.476-1.123 1.248a848.294 848.294 0 019.63 70.304 858.722 858.722 0 011.656 20.077c.072 1 1.302 1.211 1.793.643.125.058.243.122.381.167.987.317 2.036.214 3.05.141 1.323-.095 2.646-.195 3.969-.292l7.938-.584c.692-.051 1.081-.594.964-1.265l-11.945-68.443"/><path d="M217.487 473.897l-.939 16.461c-.021.353.123.6.333.758l-.43 9.297c-.754-.43-1.902.421-1.361 1.37 1.507 2.645-.83 5.64-3.322 6.53-1.53.547-3.169.615-4.777.537-1.415-.068-3.542 0-4.742-.889-1.284-.95-.557-3.472-.411-4.815.211-1.935.438-3.868.677-5.8.47-3.777.99-7.549 1.534-11.316 2.122-14.699 4.615-29.356 6.049-44.145.813-8.373 1.269-16.78 1.136-25.195-.001-.088-.032-.155-.051-.23l4.778-.035c.211.171.487.271.817.22a123.02 123.02 0 014.006-.539l-3.297 57.791m15.766-60.663a132.46 132.46 0 00-15.333 1.256.972.972 0 00-.385-.075l-13.136.091c-1.055.007-2.112.041-3.167.02-.903-.018-1.608-.12-1.899-1.076-.283-.923-.286-1.974-.396-2.928l-.379-3.283-.757-6.567c-.097-.842-.384-1.972-.078-2.798.321-.86 1.215-.959 2.023-.993 4.286-.173 8.616.004 12.906.01 1.286.002 1.289-1.998 0-2-4.044-.006-8.087-.019-12.131-.017-1.382.002-2.9.07-3.938 1.11-1.14 1.141-.996 2.813-.829 4.278.468 4.105.921 8.211 1.42 12.312.164 1.35.447 2.72 1.718 3.457 1.392.805 3.365.49 4.891.48l5.492-.04c-.015.072-.042.136-.041.22.264 16.774-1.854 33.448-4.308 50.01-1.225 8.274-2.528 16.538-3.652 24.827a439.487 439.487 0 00-1.488 12.101c-.176 1.631-.564 3.513.374 4.993.787 1.242 2.266 1.7 3.64 1.908 3.547.536 7.829.795 10.844-1.516 1.531-1.173 2.617-2.955 2.843-4.818.423-.08.806-.38.831-.93l.675-14.558c.015-.338-.114-.582-.309-.742l3.165-55.47.939-16.46c.003-.052-.016-.088-.02-.135 3.485-.358 6.981-.59 10.485-.667 1.285-.028 1.289-2.028 0-2"/><path d="M381.906 339.44c-.16-1.062-1.777-1.062-1.937 0h-75.6c-.175-.316-.502-.568-.862-.52a172.007 172.007 0 01-15.687 1.365H126v-13.204h74.669a.897.897 0 00.866.562h17.457a.899.899 0 00.866-.562H336.38a.896.896 0 00.866.562h28.66c.227.354.399.733.514 1.127h39.366c.14 3.326.278 6.651.419 9.978a.946.946 0 00.319.692h-24.62zm.032 189.75V387.021c1.06-.159 1.063-1.777 0-1.936V341.44h13.49a.917.917 0 00-.286.69v186.673c0 .36.16.607.385.766a25.786 25.786 0 01-13.59-.379zm-2-144.137h-29.312c-.062-.442-.365-.845-.942-.845H161.476v-41.923h125.46c.07.01.127.036.205.034.227-.009.452-.025.679-.034h1.295c-.006-.02-.005-.044-.011-.064 3.64-.178 7.275-.467 10.896-.875v.094h79.938v43.613zM147.962 528.168v-52.58c0-.575-.403-.878-.845-.939V342.285h12.359v137.527c0 .575.404.88.845.94v46.362c0 .24.085.421.198.572a32.17 32.17 0 01-12.557.482zm104.994-205.126a.912.912 0 00.9-.022c2.189-1.237 4.79-1.432 7.15-.607.509.177 1.093-.203 1.23-.699.15-.55-.187-1.05-.7-1.23-1.872-.654-3.906-.728-5.826-.286a17.64 17.64 0 014.62-2.698c.017.006.029.02.047.026 1.888.72 3.778 1.437 5.667 2.157.49.187 1.118-.206 1.23-.698.13-.57-.174-1.03-.7-1.23l-3.106-1.184a16.965 16.965 0 014.62-.287.972.972 0 00.437.076c1.385-.066 2.558 1.4 3.882 1.771 1.496.422 3.1.14 4.539-.36 3.298-1.145 6.362-2.899 9.672-4.058a67.515 67.515 0 0121.336-3.765c1.286-.019 1.29-2.019 0-2a69.27 69.27 0 00-3.348.136c0-.012.008-.023.007-.035l-.353-4.589c.93.062 1.86.072 2.79.046a3.88 3.88 0 01-.696-.752 78.932 78.932 0 009.475-2.115l.787 5.43c.02.137.08.256.167.36l-.008 2.56-.015 5.118c-.005 1.441.059 2.925-.227 4.346a5.393 5.393 0 01-.36 1.128c-.212.08-.406.22-.541.42a8.567 8.567 0 01-1.404 1.595 5.556 5.556 0 01-1.142.385c.216.016.432.025.649.04-.227.177-.467.34-.767.527-1.13.705-2.226 1.111-3.598 1.32-.528.08-.82.737-.7 1.213h-57.028c.387-.718.828-1.398 1.314-2.039zm154.713 16.576c.315-.133.555-.417.538-.87-.145-3.412-.288-6.825-.431-10.237.422-.403.399-1.165-.064-1.53l-.002-.038c-.051-1.218-1.834-1.27-1.973-.173h-36.01c.06-.539-.246-1.127-.945-1.127h-27.745c.05-.192.113-.38.192-.562h-28.842a11.303 11.303 0 004.078-2.938c.149.003.297.012.446.014.62-.67 1.095-1.5 1.385-2.49.889-3.044.466-6.577.476-9.704l.019-6.038c-.155.046-.31.08-.462.122-.194-1.328-.386-2.656-.578-3.984.07-.022.143-.04.214-.064 1.815-.585 3.77-1.26 5.016-2.79 1.162-1.43 1.54-3.433.575-5.065-.655-1.106-2.384-.1-1.727 1.01.882 1.488-.36 3.056-1.631 3.798-.94.548-1.995.92-3.061 1.241-.247-.145-.552-.203-.806-.134a.902.902 0 00-.616.55c-.208.058-.418.116-.622.176a78.815 78.815 0 01-11.014 2.315l-.157-2.05c-.034-.438-.303-.81-.705-.94a118.287 118.287 0 00-4.596-21.948c-.382-1.225-2.314-.702-1.93.532a116.85 116.85 0 014.82 24.397 5.77 5.77 0 01.54-.344l.562 7.302c.004.061.028.116.042.174a68.842 68.842 0 00-15.71 3.268c-3.301 1.105-6.376 2.612-9.567 3.975-1.433.613-3.034 1.128-4.535.677.065-.449-.117-.936-.668-1.11-8.415-2.672-18.268 1.382-22.358 9.208a.953.953 0 00-.041.84h-34.723c-.051.192-.115.38-.191.562h-7.506a4.693 4.693 0 01-.366-1.885c-.584.061-1.204-.063-1.787-.318-1.5-.656-2.336-1.946-2.618-3.527-.358-1.998.156-4.078.66-6.004.594-2.265 1.215-4.523 1.822-6.783.335-1.245-1.594-1.776-1.928-.532-.733 2.726-1.554 5.445-2.17 8.2-.537 2.392-.798 4.95.183 7.265.533 1.26 1.636 2.348 2.929 3.022h-78.112c-.167-1.116-1.97-1.075-1.97.155v15.204a.98.98 0 00.11.453c-.221.588.073 1.392.89 1.392h20.118V484.88c0 .576.402.88.845.941v43.146a1 1 0 000 .323v.358c0 1.081 1.397 1.243 1.849.51 4.569.694 9.218.493 13.708-.65.833-.213.863-1.132.426-1.632a.904.904 0 00.376-.762v-49.836c0-.575-.402-.879-.845-.94v-90.13h180.51c.062.442.365.845.94.845h37.012v141.558c-.886.082-1.152 1.601-.107 1.991 5.618 2.097 11.848 2.275 17.585.54 1.165-.353.746-2.084-.354-1.946a.993.993 0 00.08-.393V342.13a.917.917 0 00-.286-.689h10.267c1.06 0 1.234-1.344.546-1.822z"/></g></svg>