<?xml version="1.0" encoding="UTF-8"?>
<svg width="500px" height="600px" viewBox="0 0 500 600" version="1.1" xmlns="http://www.w3.org/2000/svg" xmlns:xlink="http://www.w3.org/1999/xlink">
    <!-- Generator: Sketch 63.1 (92452) - https://sketch.com -->
    <title>dozing</title>
    <desc>Created with Sketch.</desc>
    <g id="dozing" stroke="none" stroke-width="1" fill="none" fill-rule="evenodd">
        <path d="M238,135.992925 C235.066822,147.977454 233.31585,156.391451 232.747083,161.234915 C231.344527,173.178708 232.474354,182.003251 234,188 C236.453669,197.644464 243.723886,203.644464 255.81065,206 C260.987778,205.62053 265.050895,203.85211 268,200.69474 C270.949105,197.53737 274.949105,190.312087 280,179.01889 C283.693586,178.037987 285.842564,176.365024 286.446934,174 C287.051303,171.634976 286.618141,167.780339 285.147446,162.436088 C281.207536,144.57426 276.491721,134.1033 271,131.023208 C265.508279,127.943116 254.508279,129.599689 238,135.992925 Z" id="Path-36" fill="#BDA48E"></path>
        <g id="Group-58" transform="translate(226.000000, 114.000000)" fill="#161616">
            <path d="M40.156426,89.8143584 C40.156426,89.8151896 40.156426,89.8168519 40.1555948,89.8176831 L40.1589195,89.8143584 L40.156426,89.8143584 Z" id="Fill-1"></path>
            <path d="M31.9916883,26.0473351 C31.4173506,26.0697766 30.8455065,26.0930494 30.2711688,26.1154909 C29.9303896,26.1287896 29.5854545,26.1612052 29.2446753,26.1836468 C28.6503896,26.2260364 28.0602597,26.2651013 27.465974,26.3066597 C27.1700779,26.3266078 26.875013,26.3723221 26.5791169,26.4105558 C25.9590649,26.485361 25.3356883,26.5634909 24.7156364,26.6416208 C24.443013,26.677361 24.1737143,26.7131013 23.9010909,26.7646338 C22.8263896,26.9657766 21.7516883,27.1710753 20.676987,27.3722182 C20.4101818,27.4237506 20.1475325,27.5018805 19.8848831,27.5667117 C19.2515325,27.7262961 18.6181818,27.8850494 17.9823377,28.0404779 C17.5692468,28.144374 17.156987,28.2482701 16.7447273,28.3496727 C16.1737143,28.4918026 15.6085195,28.6638545 15.0433247,28.8267636 C14.7673766,28.9048935 14.601974,29.1933091 14.6767792,29.4692571 C14.7515844,29.7418805 15.0466494,29.9106078 15.3192727,29.8333091 C15.862026,29.6770494 16.4006234,29.5116468 16.9491948,29.3753351 C17.3099221,29.2872312 17.6731429,29.1966338 18.0338701,29.109361 C18.9198961,28.8882701 19.8034286,28.6705039 20.6894545,28.4502442 C21.1964675,28.3264 21.7126234,28.2482701 22.2254545,28.1510234 C22.9685195,28.0147117 23.7107532,27.8800623 24.4538182,27.740426 C25.3855584,27.627387 26.3197922,27.5209974 27.2548571,27.4112831 C27.5923117,27.3688935 27.9330909,27.3655688 28.2705455,27.3431273 C28.8615065,27.307387 29.4557922,27.2716468 30.0467532,27.2359065 C30.3783896,27.2159584 30.7091948,27.2126338 31.0375065,27.2068156 C31.5761039,27.1901922 32.118026,27.1768935 32.6574545,27.1611013 C33.0796883,27.1478026 33.5044156,27.1768935 33.9266494,27.1835429 C34.3131429,27.1935169 34.702961,27.1868675 35.0894545,27.2192831 C35.5499221,27.2616727 36.0103896,27.3048935 36.4716883,27.3447896 C36.7468052,27.3905039 37.0219221,27.4378805 37.297039,27.4852571 C37.5663377,27.5309714 37.8323117,27.6057766 38.0991169,27.6706078 C38.601974,27.7969455 39.0956883,27.9723221 39.5927273,28.1352312 C39.9268571,28.2424519 40.2967273,28.011387 40.3881558,27.6805818 C40.4854026,27.3265039 40.270961,26.9956987 39.9368312,26.8818286 C39.1148052,26.6092052 38.2744935,26.391439 37.4134026,26.2717506 C37.1831688,26.2385039 36.9529351,26.2027636 36.7185455,26.1703481 C36.4758442,26.1379325 36.228987,26.1287896 35.9821299,26.1088416 C35.5731948,26.0797506 35.1609351,26.0340364 34.7478442,26.0340364 C34.1510649,26.0307117 33.5567792,26.0282182 32.9624935,26.0215688 C32.6375065,26.0215688 32.3166753,26.0340364 31.9916883,26.0473351" id="Fill-3"></path>
            <path d="M31.6649558,34.8716052 C31.7405922,34.8483325 31.8170597,34.8250597 31.8943584,34.8034494 C31.8910338,34.7934753 31.8877091,34.786826 31.8843844,34.7776831 C31.8810597,34.7635532 31.8785662,34.7494234 31.8777351,34.7336312 C31.8029299,34.7668779 31.7289558,34.8142545 31.6649558,34.8716052" id="Fill-5"></path>
            <path d="M43.9656727,34.887813 C43.9756468,34.8911377 43.9847896,34.8944623 43.9947636,34.9011117 C44.001413,34.9044364 44.0047377,34.9069299 44.011387,34.9102545 C44.0388156,34.8811636 44.0695688,34.8529039 44.1011532,34.8271377 C44.0903481,34.818826 44.080374,34.8105143 44.0695688,34.8022026 C44.0379844,34.8329558 44.001413,34.8628779 43.9656727,34.887813" id="Fill-7"></path>
            <polygon id="Fill-9" points="41.4267013 34.9430026 41.4848831 34.9430026 41.5921039 34.9330286"></polygon>
            <path d="M35.1020883,35.6573091 C35.0854649,35.6606338 35.0696727,35.6672831 35.0530494,35.6706078 C35.0763221,35.6672831 35.095439,35.6639584 35.115387,35.6606338 C35.1569455,35.6539844 35.1993351,35.6473351 35.2450494,35.6406857 C35.1960104,35.6473351 35.1478026,35.6506597 35.1020883,35.6573091" id="Fill-11"></path>
            <path d="M32.2380468,36.9417974 C32.2895792,36.9393039 32.3411117,36.9309922 32.3909818,36.9168623 C32.4209039,36.9085506 32.4499948,36.8977455 32.4782545,36.8861091 C32.3984623,36.9043948 32.3186701,36.9235117 32.2380468,36.9417974" id="Fill-13"></path>
            <path d="M22.1767481,35.5794286 C22.1343584,35.6118442 22.0919688,35.6409351 22.0470857,35.6733506 C21.9265662,35.7805714 21.8160208,35.8944416 21.7096312,36.0116364 C21.6996571,36.0241039 21.6930078,36.0340779 21.6830338,36.0465455 C21.6589299,36.2011429 21.6273455,36.3499221 21.5924364,36.4912208 C21.6248519,36.4854026 21.6589299,36.4779221 21.6930078,36.4687792 C21.9722805,36.3914805 22.2124883,36.2061299 22.358774,35.9592727 C22.4693195,35.8811429 22.5532675,35.7647792 22.5890078,35.6342857 C22.6247481,35.5054545 22.6156052,35.3857662 22.5748779,35.2802078 C22.4435532,35.3874286 22.3030857,35.4846753 22.1767481,35.5794286" id="Fill-15"></path>
            <path d="M23.4632312,53.9162597 C22.9828156,54.2420779 22.4949195,54.5662338 21.9837506,54.8438442 C21.9696208,54.9377662 21.9546597,55.0308571 21.9405299,55.1239481 L21.911439,55.3159481 L21.8948156,55.4256623 C21.8200104,55.926026 21.7460364,56.4197403 21.6388156,56.9068052 C21.4925299,57.585039 21.3429195,58.2607792 21.1841662,58.9356883 C21.1384519,59.1177143 21.0927377,59.2964156 21.0445299,59.4776104 L20.9472831,59.8641039 C20.8915948,60.0918442 20.8400623,60.3254026 20.8201143,60.5556364 C20.8009974,60.750961 20.823439,60.9421299 20.8882701,61.1075325 C20.9439584,61.2962078 21.0345558,61.454961 21.1741922,61.5945974 C21.3462442,61.7309091 21.4667636,61.828987 21.6064,61.8971429 C22.5572571,62.3709091 23.6519065,62.4357403 24.599439,62.4357403 C24.8687377,62.4357403 25.1388675,62.4324156 25.4048416,62.4257662 L25.5120623,62.4224416 L26.1063481,62.409974 L26.7006338,62.3966753 C27.0829714,62.390026 27.4727896,62.3384935 27.8202182,62.2927792 L27.9307636,62.2803117 L28.0155429,62.267013 L28.2100364,62.2412468 C28.4402701,62.1764156 28.6355948,62.0691948 28.8043221,61.9062857 C29.0445299,61.6594286 29.1808416,61.3252987 29.1808416,60.9911688 C29.1808416,60.302961 28.5998545,59.6987013 27.937413,59.6987013 C27.3240104,59.7244675 26.7621403,59.7834805 26.1420883,59.8483117 C25.4015169,59.9289351 24.6642701,60.0070649 23.9436468,60.0070649 C23.6519065,60.0070649 23.3593351,59.9970909 23.0667636,59.9646753 L22.9537247,59.9555325 L22.9861403,59.7834805 L23.0019325,59.5981299 L23.1000104,58.5624935 C23.1291013,58.225039 23.1681662,57.8867532 23.2064,57.5526234 C23.2587636,57.1012987 23.3078026,56.689039 23.3402182,56.2701299 C23.3560104,56.0723117 23.3693091,55.8736623 23.3784519,55.6758442 C23.388426,55.5104416 23.4017247,55.345039 23.4141922,55.1796364 C23.4374649,54.8737662 23.4732052,54.5687273 23.5056208,54.2636883 L23.531387,54.0492468 C23.5388675,53.9835844 23.5471792,53.9179221 23.5546597,53.8530909 C23.5239065,53.8738701 23.4939844,53.8954805 23.4632312,53.9162597" id="Fill-17"></path>
            <path d="M8.82285714,42.4097247 C8.9225974,42.071439 9.04145455,41.7414649 9.18441558,41.4239584 C8.89267532,41.6500364 8.76883117,42.0465039 8.82285714,42.4097247" id="Fill-19"></path>
            <path d="M22.1750857,35.5810078 C22.1326961,35.6100987 22.0903065,35.6425143 22.0487481,35.6716052 C21.9282286,35.7821506 21.8143584,35.8926961 21.7079688,36.0132156 C21.7013195,36.0223584 21.6913455,36.0356571 21.6846961,36.0481247 C21.6630857,36.1703065 21.6381506,36.290826 21.6107221,36.4080208 C21.6157091,36.4454234 21.6206961,36.4836571 21.6265143,36.5227221 C21.7370597,37.2790857 21.8500987,38.0354494 21.9606442,38.7951377 C22.0578909,39.5780987 22.1526442,40.3602286 22.2075013,41.1523325 C22.2565403,41.9219948 22.2399169,42.6883325 22.1942026,43.4579948 C22.1002805,45.0388779 22.0288,46.619761 21.8891636,48.2014753 C21.7885922,48.8539429 21.6622545,49.4964364 21.5126442,50.1430857 C21.3605403,50.8113455 21.1618909,51.473787 21.0513455,52.1553455 C20.9283325,52.9058909 20.8019948,53.6589299 20.6690078,54.4086442 C20.5385143,55.1525403 20.4603844,55.9055792 20.3764364,56.6552935 C20.285839,57.2786701 20.1653195,57.8929039 20.093839,58.5162805 C20.0614234,58.7988779 20.0514494,59.0806442 20.0647481,59.3665662 C20.0838649,59.7306182 20.1619948,60.0323325 20.3215792,60.3573195 C20.4121766,60.5385143 20.5351896,60.6848 20.6623584,60.8468779 C21.0156052,61.3015273 21.5808,61.4835532 22.1293714,61.5774753 C23.0910338,61.7462026 24.0551896,61.7952416 25.0226701,61.6846961 C25.9643844,61.5774753 26.9019429,61.4120727 27.8311896,61.2333714 C28.2625662,61.1494234 28.5642805,60.6881247 28.5642805,60.2692156 C28.5642805,59.7630338 28.1071377,59.2202805 27.5643844,59.2726442 L25.9768519,59.4189299 C25.6585143,59.4480208 25.3410078,59.473787 25.0226701,59.4962286 C24.4026182,59.5419429 23.7883844,59.5028779 23.1716571,59.4313974 C23.0228779,59.4089558 22.8765922,59.3831896 22.7269818,59.350774 C22.8408519,58.9642805 22.9804883,58.5844364 23.0968519,58.2012675 C23.2855273,57.5812156 23.4185143,56.9545143 23.554826,56.3244883 C23.8374234,55.0228779 23.9803844,53.6979948 24.1524364,52.3731117 C24.3569039,51.015813 24.5904623,49.661839 24.6752416,48.2854234 C24.7143065,47.687813 24.6877091,47.0777351 24.6652675,46.4801247 C24.6395013,45.7919169 24.6137351,45.1003844 24.5904623,44.4121766 C24.5713455,43.8112416 24.5455792,43.2111377 24.5223065,42.6102026 C24.4965403,41.9020468 24.4150857,41.2013714 24.3402805,40.4965403 C24.1848519,38.9771636 23.9122286,37.4644364 23.6844883,35.9542026 C23.6462545,35.6982026 23.4085403,35.4446961 23.1949299,35.3183584 C23.0411636,35.227761 22.870774,35.1795532 22.6970597,35.1729039 C22.535813,35.3250078 22.3429818,35.4546701 22.1750857,35.5810078" id="Fill-21"></path>
            <path d="M16.9604156,47.1199584 C16.9529351,47.1191273 16.9454545,47.1182961 16.9388052,47.1174649 C16.9454545,47.1182961 16.9529351,47.1191273 16.9604156,47.1199584" id="Fill-27"></path>
            <g id="Group-31" transform="translate(0.000000, 0.369870)">
                <path d="M40.4563948,0.461132468 C40.0956675,0.461132468 39.7357714,0.493548052 39.3783688,0.525963636 L39.1606026,0.542587013 C38.3169662,0.616561039 37.4791481,0.691366234 36.6380052,0.795262338 C34.953226,1.00637922 33.3199792,1.31141818 31.7873039,1.70456104 C31.1348364,1.86996364 30.4466286,2.07775584 29.6187844,2.35702857 L29.4043429,2.42850909 C28.9206026,2.58809351 28.4335377,2.7534961 27.9630961,2.94798961 L26.0996156,3.72762597 L25.6316675,3.91547013 C25.284239,4.05510649 24.9368104,4.19474286 24.6060052,4.35682078 L23.9984208,4.64606753 C23.2229403,5.01926234 22.4499532,5.38996364 21.6836156,5.7856 L19.8134857,6.74975584 C19.5117714,6.90269091 19.2192,7.08139221 18.9307844,7.25676883 L18.6249143,7.44128831 C18.3040831,7.62663896 17.9857455,7.81198961 17.6740571,7.99983377 L17.5410701,8.07463896 C17.4438234,8.13032727 17.3457455,8.18185974 17.2584727,8.24336623 L16.4339532,8.80191169 L15.6086026,9.36378182 C14.8846545,9.85417143 14.1673558,10.3894442 13.4791481,10.9056 L12.8133818,11.3993143 C12.1675636,11.8764052 11.5308883,12.3701195 10.8950442,12.8638338 L10.4079792,13.2403532 C9.57681039,13.8828468 8.77140779,14.5843532 7.9950961,15.2634182 L7.60278442,15.6041974 C6.82647273,16.2824312 6.1124987,17.0030545 5.27468052,17.8732883 L4.83914805,18.3312623 C4.42356364,18.772613 4.00548571,19.2139636 3.56662857,19.6361974 C3.04382338,20.1398857 2.44953766,20.6560416 1.75468052,21.214587 C1.62834286,21.3018597 1.49868052,21.3899636 1.36901818,21.4739117 C1.23852468,21.5620156 1.10886234,21.6459636 0.982524675,21.7373922 C0.826264935,21.844613 0.68081039,21.9576519 0.537849351,22.0781714 C0.281018182,22.292613 0.167148052,22.5810286 0.0599272727,22.863626 C-0.0339948052,23.0971844 -0.0049038961,23.5518338 0.0599272727,23.7729247 C0.0923428571,23.8834701 0.131407792,23.9873662 0.177122078,24.0912623 C0.401537662,24.6298597 0.618472727,25.2141714 0.878628571,25.9771844 C1.10221299,26.6329766 1.32662857,27.2887688 1.52777143,27.9478857 C1.72891429,28.6136519 1.89182338,29.2727688 2.01816104,29.967626 C2.11873247,30.9251325 2.11540779,31.9483013 2.00486234,33.0163532 C1.91758961,33.4867948 1.78792727,34.1043532 1.56351169,34.6886649 C1.26512208,35.3569247 0.985849351,35.9030026 0.683303896,36.4091844 L0.546992208,36.6302753 L0.414005195,36.8538597 C0.267719481,37.0973922 0.16132987,37.3542234 0.0765506494,37.5711584 C-0.00157922078,37.7698078 -0.0115532468,38.0490805 0.0441350649,38.2892883 C0.0923428571,38.4804571 0.206212987,38.7273143 0.352498701,38.8478338 C0.507927273,38.9708468 0.64507013,39.0714182 0.82294026,39.1561974 C0.93681039,39.2110545 1.06065455,39.2567688 1.17701818,39.2991584 C1.99239481,39.6623792 2.73878442,40.1137039 3.46273247,40.5484052 L3.68382338,40.6822234 C3.95977143,40.8509506 4.23571948,41.0130286 4.52496623,41.1526649 C4.83332987,41.2989506 5.16745974,41.3995221 5.48912208,41.5000935 L5.58969351,41.5291844 C5.77753766,41.5873662 5.96288831,41.6297558 6.15738182,41.6588468 C6.14823896,41.7602494 6.15156364,41.8699636 6.15405714,41.9805091 C6.16070649,42.2498078 6.18397922,42.5199377 6.20642078,42.7859117 C6.22886234,43.0227948 6.24548571,43.2339117 6.25795325,43.4450286 L6.2646026,43.5522494 C6.28787532,44.0517818 6.30699221,44.5130805 6.2646026,44.9677299 L6.24548571,45.1888208 C6.08008312,46.1463273 5.85234286,47.0356779 5.56392727,48.0779636 C5.29712208,49.0296519 5.0112,50.1558857 4.89151169,51.3378078 L4.8457974,51.7367688 L4.82335584,51.9769766 C4.78761558,52.3019636 4.75852468,52.6103273 4.73275844,52.9253403 C4.70616104,53.2370286 4.69036883,53.5487169 4.67374545,53.8604052 L4.64132987,54.4480416 C4.55987532,55.7828987 4.50834286,56.8409766 4.48257662,57.7793662 C4.46927792,58.2597818 4.46262857,58.7468468 4.45597922,59.2272623 C4.45016104,59.6494961 4.46595325,60.0326649 4.4859013,60.4191584 L4.50501818,60.8571844 C4.54408312,61.7889247 4.63468052,62.7372883 4.72610909,63.6524052 L4.73857662,63.8020156 L4.75187532,63.9250286 L4.76517403,64.0388987 C5.02782338,66.6296519 5.38855065,68.7042494 5.89805714,70.5652364 C6.01192727,70.9675221 6.13826494,71.3639896 6.27125195,71.759626 C6.34938182,71.9873662 6.43997922,72.207626 6.53140779,72.4287169 L6.56964156,72.5259636 L6.73587532,72.9290805 C7.09577143,73.8284052 7.46647273,74.7177558 7.84631688,75.6071065 C7.85213506,75.5489247 7.84299221,75.496561 7.82636883,75.4516779 C8.0832,76.1590026 8.5179013,77.2212364 9.05068052,78.292613 C9.57016104,79.331574 10.0929662,80.2724571 10.6057974,81.0878338 C11.2615896,82.1691844 11.9364987,83.0685091 12.6670961,83.8473143 C13.2189922,84.4283013 13.8456935,84.9677299 14.3975896,85.4414961 L14.4690701,85.5030026 L15.0242909,85.9842494 C16.0956675,86.9093403 16.930161,87.5451844 17.7289143,88.0422234 C18.4761351,88.5159896 19.2748883,88.8733922 20.0470442,89.2174961 L20.5474078,89.4452364 L20.9596675,89.6364052 L21.0569143,89.6821195 C21.9204987,90.0810805 22.7649662,90.467574 23.6119273,90.792561 C23.8496416,90.8898078 24.0898494,90.9737558 24.3300571,91.0618597 L24.4954597,91.1200416 L24.5893818,91.1524571 L25.1288104,91.3477818 C25.560187,91.5098597 25.9957195,91.6719377 26.4403948,91.8049247 C27.5375377,92.1332364 28.6903688,92.1914182 29.8756156,92.2238338 C30.3950961,92.2404571 30.9112519,92.2504312 31.4274078,92.2562494 L31.5670442,92.259574 C32.2677195,92.259574 32.9467844,92.1847688 33.5826286,92.0393143 C34.0638753,91.9254442 34.5276675,91.7691844 35.0471481,91.5489247 C35.6672,91.2954182 36.2033039,90.9579636 36.6479792,90.659574 C37.3528104,90.1949506 38.0243948,89.6654961 38.6768623,89.1526649 L38.8198234,89.0421195 L39.3592519,88.6173922 L39.6119273,88.4187429 C39.9535377,88.1527688 40.2976416,87.8834701 40.6184727,87.5908987 C41.0116156,87.2276779 41.3748364,86.8478338 41.7131221,86.4904312 L41.8619013,86.3283532 C42.2749922,85.8803532 42.6606545,85.4647688 42.9889662,85.0259117 C43.2258494,84.7108987 43.4502649,84.3900675 43.6804987,84.0684052 L43.8168104,83.870587 L43.9074078,83.7367688 L44.9172779,82.324613 L45.2713558,81.8184312 L45.833226,81.0263273 C46.2712519,80.4062753 46.6768623,79.7405091 47.0891221,79.0523013 L47.4955636,78.3832104 C47.901174,77.7240935 48.265226,77.1264831 48.5893818,76.4806649 C48.7813818,76.0974961 48.9467844,75.7010286 49.1055377,75.3020675 C49.304187,74.831626 49.3690182,74.3894442 49.417226,74.0129247 C49.417226,73.8051325 49.3623688,73.6073143 49.2584727,73.428613 C49.1088623,73.1692883 48.8553558,72.9739636 48.5636156,72.8933403 C48.4530701,72.8634182 48.349174,72.847626 48.2552519,72.847626 C47.8654338,72.847626 47.4988883,73.0587429 47.2487065,73.4252883 L47.1606026,73.5524571 C47.0508883,73.7112104 46.9403429,73.8699636 46.8430961,74.0453403 C46.7973818,74.1267948 46.7516675,74.2107429 46.7067844,74.2988468 L46.6411221,74.4251844 L46.5048104,74.6820156 C46.2912,75.0942753 46.0534857,75.496561 45.8066286,75.8963532 C45.4758234,76.431626 45.1317195,76.9644052 44.7876156,77.4938597 L44.573174,77.8279896 L44.1800312,78.4322494 C44.0703169,78.6043013 43.9564468,78.7763532 43.8392519,78.9484052 C43.8816416,78.8087688 43.8716675,78.6591584 43.8592,78.5095481 C43.8252726,78.1251749 43.7674289,69.0207815 40.1555948,65.694587 C36.5117222,62.3388878 29.3135299,64.7628468 29.2680312,64.7628468 C28.8300052,64.7628468 28.440187,65.0620675 28.2814338,65.5192104 C28.1675636,65.8475221 28.0536935,66.1725091 27.9364987,66.4999896 C27.7553039,66.9970286 27.6804987,67.4059636 27.7029403,67.7434182 C27.7117342,67.9009768 27.3725488,68.1744527 29.1808416,67.9678338 C31.4744424,67.7057626 36.1139942,67.0338877 37.1150961,68.3576519 C38.0880734,69.6442267 40.0184474,73.2334209 40.1555948,79.5559065 C40.1658651,80.0293683 39.7175604,80.8431103 38.8106805,81.9971325 C38.3460571,81.9323013 37.8814338,81.8799377 37.4143169,81.8284052 C37.1317195,81.7984831 36.8457974,81.7660675 36.5632,81.7303273 C35.7320312,81.6014961 34.8584727,81.443574 34.0273039,81.1593143 C33.8951481,81.187574 33.7629922,81.2017039 33.6316675,81.2050286 L33.6316675,81.2075221 L33.6158753,81.2075221 C33.6183688,81.2050286 33.6250182,81.2050286 33.6283429,81.2050286 L33.5992519,81.2050286 C33.0562424,81.2739022 32.0238882,82.0838257 31.3559273,81.5679169 C30.7018885,81.062761 30.4122418,79.2320078 29.8756156,79.254213 C29.0087065,79.2899532 28.3264831,79.530161 27.459574,79.4644987 C26.6184312,79.4029922 26.0214857,81.3770805 25.2160831,81.103626 C25.0307325,81.0412883 24.8453818,80.9772883 24.6625247,80.9083013 C24.6450701,80.9174442 24.6267844,80.926587 24.6093299,80.9348987 C24.2028883,81.0778597 23.8105766,81.1850805 23.4398753,81.246587 C23.3268364,81.256561 23.2096416,81.2632104 23.0924468,81.2632104 C22.7225766,81.2632104 22.3427325,81.2174961 21.9728623,81.1751065 L21.5896935,81.123574 L21.4600312,81.1102753 L21.3586286,81.1011325 C21.0768623,81.0712104 20.7385766,81.0329766 20.4144208,81.0329766 C20.0603429,81.0329766 19.6996156,81.0712104 19.2424727,81.1593143 L19.2649143,81.0554182 C19.2668203,80.4874278 18.0321802,73.5016405 20.0470442,70.0199896 C21.5467346,67.4285498 26.4380179,68.0255634 26.4919273,68.003574 L26.5800312,67.9678338 C27.1297108,66.6146909 27.3513558,65.856942 27.2449662,65.694587 C27.2391481,65.5034182 27.106161,65.2731844 26.8717714,65.2241455 C26.3880312,65.1268987 25.998213,65.0811844 25.6482909,65.0811844 C25.5816515,65.0811844 18.7019971,64.6913552 16.4339532,68.6301299 C15.343442,70.5239548 15.0392342,75.1755011 15.5213299,82.5847688 L15.5313039,82.8507429 C15.4240831,82.7044571 15.2844468,82.5714701 15.1448104,82.4351584 L14.7973818,82.1010286 C14.4790442,81.7893403 14.2030961,81.4419117 13.9371221,81.1069506 C13.0826805,79.9549506 12.2747844,78.6043013 11.4594078,76.9835221 C10.8293818,75.727626 10.2683429,74.4127169 9.72558961,73.1426909 L9.64829091,72.9639896 L9.52112208,72.6589506 L9.31665455,72.1361455 L9.2352,71.9350026 C9.11218701,71.636613 8.9924987,71.3373922 8.87197922,71.0356779 C8.76143377,70.7497558 8.67416104,70.4546909 8.58605714,70.1587948 L8.54699221,70.0199896 C8.44642078,69.6750545 8.34584935,69.3309506 8.2619013,68.9810286 C7.96268052,67.7467429 7.71914805,66.4451325 7.49888831,64.8866909 C7.27114805,62.9874701 7.03426494,60.7823792 7.04091429,58.6720416 C7.04091429,57.7012364 7.07332987,56.6622753 7.13151169,55.5809247 L7.17722597,54.6624831 C7.21961558,53.8279896 7.25868052,53.0749506 7.33265455,52.3310545 L7.39499221,51.6594701 L7.4564987,51.0394182 C7.48891429,50.8216519 7.52797922,50.6038857 7.57286234,50.3861195 C7.4564987,49.5491325 7.60610909,48.6365091 7.76153766,47.8568727 L7.86543377,47.3506909 C7.93026494,47.016561 7.9950961,46.6782753 8.07322597,46.3474701 C8.13140779,46.0814961 8.19374545,45.8146909 8.25525195,45.5487169 L8.26771948,45.4414961 C8.37161558,44.4449247 8.47883636,43.4159377 8.72236883,42.4384831 C8.71322597,41.7627429 8.71571948,41.0878338 8.72236883,40.4154182 L8.73234286,39.3964052 C8.73899221,39.1237818 8.75478442,38.8511584 8.77140779,38.5777039 L8.78138182,38.4123013 C8.80714805,37.8703792 8.8753039,37.3218078 8.94345974,36.7823792 C8.94013506,36.5679377 8.9659013,36.3543273 9.02491429,36.1398857 C9.03073247,36.0941714 9.04070649,36.0484571 9.05400519,36.0068987 C9.13795325,35.4516779 9.22938182,34.8964571 9.3233039,34.3412364 C9.45629091,33.5491325 9.57016104,32.7595221 9.67738182,31.9640935 L9.62169351,32.1070545 L9.78127792,31.2792104 L9.8619013,30.7796779 C9.93670649,30.3699117 10.0439273,29.9543273 10.1511481,29.5453922 C10.3589403,28.766587 10.6157714,27.8539636 10.9565506,26.9737558 C11.1901091,26.3769766 11.4336416,25.7860156 11.677174,25.1983792 L12.0146286,24.3672104 C12.1775377,23.9674182 12.3362909,23.5651325 12.4917195,23.1620156 C12.6670961,22.7140156 12.8424727,22.2693403 13.0244987,21.8246649 L13.0635636,21.7307429 L13.1150961,21.5977558 C13.1450182,21.5944312 13.1807584,21.5778078 13.213174,21.5620156 C13.8490182,21.2536519 14.4956675,20.9710545 15.1414857,20.6917818 L15.3592519,20.5978597 C16.1480312,20.3219117 16.9983169,20.0260156 17.8752,19.7600416 L18.1021091,19.6918857 C18.3788883,19.6104312 18.6573299,19.5289766 18.9399273,19.4516779 L19.3979013,19.3245091 C19.7129143,19.2339117 20.0279273,19.1458078 20.3462649,19.0718338 L20.5540571,19.0261195 C21.326213,18.8507429 22.1025247,18.6820156 22.8879792,18.5390545 C23.7515636,18.3861195 24.6151481,18.2531325 25.4853818,18.1267948 C26.4694857,18.0228987 27.4527584,17.9289766 28.4435117,17.8541714 C29.3785766,17.7760416 30.3169662,17.7403013 31.3559273,17.7012364 L31.4498494,17.6979117 C31.7873039,17.6854442 32.1255896,17.6787948 32.4663688,17.6787948 C32.9858494,17.6787948 33.5119792,17.6912623 34.0339532,17.704561 L34.2907844,17.7145351 L34.5276675,17.7211844 C35.3721351,17.743626 36.2423688,17.8051325 37.1150961,17.9123532 C38.3003429,18.1010286 39.453174,18.3736519 40.6251221,18.6562494 C41.9566545,18.9837299 43.0895377,19.3311584 44.0827844,19.7143273 C44.937226,20.116613 45.641226,20.4839896 46.3136416,20.9610805 C46.4823688,21.1140156 46.6444468,21.2727688 46.7940571,21.4448208 C46.8331221,21.4996779 46.8688623,21.5620156 46.9046026,21.6393143 C47.177226,22.4804571 47.3068883,23.3964052 47.4240831,24.207626 C47.502213,24.8343273 47.5670442,25.3928727 47.6086026,25.9547429 C47.6352,26.3412364 47.6476675,26.7277299 47.6609662,27.1167169 C47.6676156,27.3602494 47.6742649,27.5971325 47.6867325,27.8315221 C47.748239,29.1173403 47.8296935,30.4023273 47.9202909,31.6848208 C47.9593558,32.2500156 47.9917714,32.8118857 48.0216935,33.3770805 C48.0574338,34.0453403 48.0956675,34.7177558 48.1513558,35.3868468 C48.2386286,36.4224831 48.3915636,37.4739117 48.5245506,38.4023273 L48.6608623,39.3606649 L48.7256935,39.8568727 L48.8038234,40.4253922 L48.8229403,40.5841455 C48.9534338,41.5940156 49.0764468,42.5714701 49.245174,43.5098597 L49.0797714,43.5231584 C49.0963948,44.0102234 49.0988883,44.5064312 49.0731221,45.0159377 C49.245174,44.9934961 49.4047584,44.9644052 49.5668364,44.9319896 C49.752187,45.8180156 50.0015377,46.7472623 50.3007584,47.6848208 C50.5085506,48.3214961 50.7487584,48.9224312 51.0147325,49.4710026 C51.1252779,49.6887688 51.2449662,49.9057039 51.3787844,50.1101714 C51.8392519,50.8283013 52.4950442,51.240561 53.1774338,51.240561 C53.8722909,51.2172883 54.4009143,50.8116779 54.9112519,50.4218597 L55.0276156,50.334587 C55.1057455,50.2764052 55.1805506,50.2173922 55.2553558,50.1658597 L55.4432,50.0295481 L55.5146805,49.9805091 C55.8197195,49.7627429 56.1314078,49.5391584 56.4696935,49.3538078 C56.5503169,49.3114182 56.6317714,49.2698597 56.713226,49.2307948 C56.9434597,49.1460156 57.1670442,49.0712104 57.4080831,49.0230026 L57.4853818,49.0421195 C57.5020052,49.0712104 57.5310961,49.1011325 57.5568623,49.1302234 L57.6574338,49.2790026 L57.6898494,49.3828987 L57.7388883,49.5391584 C57.5443948,50.2730805 57.5535377,50.8931325 57.7713039,51.4350545 C57.8361351,51.6652883 57.9533299,51.8672623 58.1253818,52.0484571 C58.3913558,54.1887169 58.4113039,56.2533403 58.180239,58.1758338 C58.0763429,58.8216519 57.9333818,59.5813403 57.6574338,60.3052883 C57.5119792,60.6036779 57.3366026,60.8929247 57.1288104,61.194639 C56.846213,61.5296 56.5079273,61.8570805 56.0923429,62.1887169 C55.7806545,62.415626 55.300239,62.7530805 54.7649662,63.0198857 C54.6544208,63.0356779 54.6120312,63.0356779 54.5696416,63.0356779 L54.4823688,62.9193143 C54.2970182,62.691574 54.0177455,62.5619117 53.6935896,62.5619117 C53.4758234,62.5619117 53.2680312,62.6167688 53.1026286,62.7173403 C52.8391481,62.8669506 52.6513039,63.1237818 52.5764987,63.4254961 C52.5050182,63.720561 52.5507325,64.0098078 52.7028364,64.2433662 C52.8133818,64.4220675 52.9305766,64.6074182 53.070213,64.7694961 C53.1641351,64.8800416 53.3494857,65.0745351 53.5148883,65.1526649 C53.7517714,65.2598857 53.9371221,65.3413403 54.1515636,65.3961974 C54.3294338,65.4452364 54.5438753,65.4676779 54.8106805,65.4676779 C55.4855896,65.4510545 56.0956675,65.1850805 56.6060052,64.9257558 C57.1903169,64.6298597 57.7164468,64.2990545 58.2126545,63.9158857 C58.4370701,63.7438338 58.6515117,63.5584831 58.8626286,63.370639 C59.0795636,63.1719896 59.2582649,62.9351065 59.4236675,62.7115221 L59.5184208,62.5910026 C59.9074078,62.0681974 60.1509403,61.4481455 60.3554078,60.8571844 C60.5573818,60.2886649 60.6288623,59.6428468 60.6803948,59.1266909 L60.7128104,58.8798338 C60.7709922,58.3603532 60.8034078,57.8084571 60.8133818,57.1493403 C60.8300052,55.8477299 60.7743169,54.6009766 60.6546286,53.4414961 C60.5897974,52.8056519 60.5183169,52.1689766 60.4235636,51.5289766 C60.489226,51.3668987 60.5149922,51.2048208 60.4983688,51.0651844 C60.4859013,51.0261195 60.4859013,50.9903792 60.4825766,50.9513143 C60.5149922,50.8150026 60.5598753,50.6687169 60.6055896,50.5257558 L60.6413299,50.4093922 C60.6670961,50.3312623 60.6936935,50.2531325 60.7128104,50.1758338 C60.7809662,49.9223273 60.8366545,49.6688208 60.888187,49.4153143 C61.0112,48.7628468 61.1383688,48.0679896 61.1865766,47.3573403 C61.2489143,46.3341714 61.2289662,45.3151584 61.2098494,44.3277299 L61.2032,43.8730805 L61.1965506,43.6071065 C61.1832519,42.772613 61.1674597,42.0029506 61.1250701,41.2499117 C61.2746805,40.8600935 61.4267844,40.4677818 61.5606026,40.0713143 C61.6254338,39.8768208 61.6935896,39.6848208 61.7617455,39.4903273 C61.8847584,39.1329247 62.0086026,38.7763532 62.1124987,38.4189506 L62.232187,38.0100156 L62.6353039,36.6336 C62.7416935,36.2728727 62.8198234,35.9088208 62.9012779,35.5456 L63.0118234,35.0452364 C63.2586805,34.0062753 63.4432,32.9348987 63.5703688,31.8601974 L63.6219013,31.4155221 C63.6709403,31.0290286 63.7191481,30.6400416 63.7457455,30.2535481 L63.778161,29.7274182 L63.8139013,29.194639 L63.8296935,28.9810286 C63.8429922,28.8114701 63.8554597,28.6394182 63.8587844,28.4706909 L63.8687584,27.5231584 L63.8820571,26.5714701 C63.8878753,26.0162494 63.8521351,25.4610286 63.8139013,24.8933403 C63.7548883,24.0197818 63.6476675,23.1561974 63.4855896,22.3283532 C63.3393039,21.5686649 63.1057455,20.8214442 62.8813299,20.0974961 L62.7749403,19.7633662 C62.6444468,19.3411325 62.4890182,18.9255481 62.3327584,18.5132883 L62.242161,18.2764052 C61.7417974,16.9481974 61.1450182,15.4121974 60.3687065,14.0000416 C59.7677714,12.9095481 59.0114078,11.9221195 58.3522909,11.1042494 L58.0863169,10.7792623 C57.8427844,10.4775481 57.5992519,10.1758338 57.3424208,9.87993766 L57.112187,9.61396364 C56.4630442,8.86341818 55.7906286,8.08793766 55.0866286,7.36731429 C54.6643948,6.93178182 54.232187,6.50954805 53.7908364,6.09396364 C53.4076675,5.73406753 52.9787844,5.40908052 52.5607065,5.09739221 L52.3620571,4.94778182 C51.6023688,4.37344416 50.7645506,3.79578182 49.6416416,3.07515844 C48.6575377,2.43848312 47.6476675,1.92897662 46.6411221,1.55495065 L46.3684987,1.45105455 C46.1706805,1.37708052 45.9728623,1.30227532 45.7717195,1.23411948 C45.1450182,1.01635325 44.4593039,0.847625974 43.544187,0.685548052 C42.7354597,0.548405195 42.1220571,0.483574026 41.5535377,0.474431169 C41.2160831,0.467781818 40.8786286,0.464457143 40.541174,0.461132468 L40.4563948,0.461132468 Z" id="Fill-29"></path>
            </g>
            <path d="M33.628426,81.5712416 C33.6317506,81.5712416 33.6317506,81.5745662 33.6317506,81.5745662 C33.756426,81.5562805 33.8819325,81.538826 34.007439,81.5222026 C33.8819325,81.5379948 33.756426,81.5554494 33.628426,81.5712416" id="Fill-32"></path>
            <path d="M19.1142234,34.1885506 C18.8224831,34.4919273 18.5207688,34.781174 18.1974442,35.0496416 C17.4227948,35.6023688 16.5758338,35.9988364 15.7064312,36.3720312 C15.1503792,36.5814857 14.5943273,36.7684987 14.0199896,36.9156156 C13.4772364,37.0577455 12.9178597,37.1458494 12.3651325,37.2414338 C12.0110545,37.2713558 11.6627948,37.2655377 11.3053922,37.2206545 C10.8125091,37.1624727 10.2930286,37.1367065 9.85417143,37.4226286 C9.59152208,37.5946805 9.3937039,37.8215896 9.30892468,38.1299532 C9.19837922,38.5264208 9.3056,39.0035117 9.61396364,39.2861091 C9.81843117,39.4739532 10.0494961,39.6235636 10.3254442,39.6850701 C10.5623273,39.7407584 10.8125091,39.7598753 11.0593662,39.7798234 C11.5331325,39.8180571 11.9944312,39.7465766 12.4648727,39.6692779 C13.214587,39.5387844 13.9551584,39.305226 14.6757818,39.0525506 C15.523574,38.7566545 16.3314701,38.3668364 17.1401974,37.9745247 C18.3902753,37.3669403 19.5231584,36.5715117 20.4839896,35.5583169 C20.8480416,35.1751481 20.8671584,34.5683948 20.4839896,34.1885506 C20.298639,34.0032 20.0443013,33.9076156 19.7899636,33.9076156 C19.5414442,33.9076156 19.2937558,33.9990442 19.1142234,34.1885506" id="Fill-36" transform="translate(15.015402, 36.849032) scale(1, -1) rotate(29.000000) translate(-15.015402, -36.849032) "></path>
            <path d="M27.4250805,33.3099221 C27.0809766,33.654026 27.0352623,34.3031688 27.4250805,34.6414545 C27.8306909,34.9947013 28.2562494,35.3196883 28.7108987,35.6122597 C29.1165091,35.8715844 29.5487169,36.046961 29.9967169,36.2223377 C30.4056519,36.3810909 30.8436779,36.4725195 31.272561,36.5764156 C31.6981195,36.676987 32.1361455,36.7609351 32.5708468,36.8232727 C33.1227429,36.9005714 33.6721455,36.9720519 34.2273662,36.9953247 C34.7011325,37.0144416 35.1682494,36.9953247 35.6395221,36.9654026 C36.1299117,36.9363117 36.6294442,36.8556883 37.1131844,36.7709091 C37.6002494,36.6861299 38.0839896,36.5888831 38.5677299,36.4816623 C39.2235221,36.3362078 39.843574,36.086026 40.4578078,35.8258701 C40.7171325,35.7186494 40.970639,35.5823377 41.2108468,35.4368831 C41.3828987,35.332987 41.6039896,35.1734026 41.7012364,34.9888831 C41.7693922,34.8550649 41.7984831,34.7337143 41.8167688,34.5998961 C41.8192623,34.5882597 41.822587,34.5766234 41.827574,34.5633247 C41.9248208,34.2965195 41.7693922,33.9823377 41.5358338,33.846026 C41.2831584,33.6972468 40.9980675,33.7512727 40.7819636,33.9266494 C40.7495481,33.9482597 40.7154701,33.9682078 40.6813922,33.9873247 C40.3921455,34.0878961 40.084613,34.1635325 39.7920416,34.2416623 C39.3889247,34.3488831 38.9849766,34.4378182 38.5718857,34.5142857 C37.6218597,34.6406234 36.6710026,34.7636364 35.7176519,34.8326234 C34.7559896,34.9041039 33.8018078,34.8326234 32.8492883,34.7212468 C31.8402494,34.555013 30.8295481,34.3995844 29.8720416,34.0338701 C29.5694961,33.8892468 29.2877299,33.7171948 29.012613,33.526026 C28.9261714,33.4545455 28.8413922,33.3830649 28.756613,33.3099221 C28.5612883,33.1411948 28.3534961,33.033974 28.0908468,33.033974 C27.8406649,33.033974 27.6004571,33.1345455 27.4250805,33.3099221" id="Fill-38" transform="translate(34.503313, 35.018483) scale(1, -1) translate(-34.503313, -35.018483) "></path>
            <path d="M13.1478406,43.3067131 C13.1328406,43.3177131 13.1178406,43.3287131 13.1028406,43.3387131 L13.1478406,43.3067131 Z M13.1588406,43.3067131 C13.1408406,43.3217131 13.1218406,43.3367131 13.1028406,43.3517131 C13.1208406,43.3367131 13.1398406,43.3217131 13.1588406,43.3067131 L13.1588406,43.3067131 Z M20.1730934,43.1993602 C20.2090934,43.2263602 20.2450934,43.2533602 20.2810934,43.2793602 C20.2440934,43.2533602 20.2090934,43.2273602 20.1730934,43.1993602 L20.1730934,43.1993602 Z M20.1730934,43.1993602 C20.2190934,43.2343602 20.2650934,43.2703602 20.3120934,43.3063602 C20.3130934,43.3073602 20.3140934,43.3073602 20.3140934,43.3083602 C20.2650934,43.2723602 20.2190934,43.2353602 20.1730934,43.1993602 L20.1730934,43.1993602 Z M18.0412823,42.5245408 C18.0742823,42.5285408 18.1072823,42.5335408 18.1402823,42.5385408 C18.1072823,42.5345408 18.0742823,42.5295408 18.0412823,42.5245408 L18.0412823,42.5245408 Z M19.8602245,41.2239835 C19.8912245,41.2359835 19.9202245,41.2479835 19.9512245,41.2609835 C19.9202245,41.2489835 19.8912245,41.2369835 19.8602245,41.2239835 L19.8602245,41.2239835 Z M14.620825,41.2507808 C14.2315973,41.3547631 13.8504156,41.4740369 13.4732569,41.6136993 C13.320382,41.6687488 13.163484,41.7248177 13.006586,41.7686533 C12.8687973,41.8084113 12.7350317,41.8400137 12.6012661,41.8960826 C12.1376124,42.0948723 11.7332984,42.4180329 11.3440706,42.7401741 C10.962889,43.059257 10.5857303,43.3854759 10.2166177,43.723928 C9.91388502,43.9991752 9.9420462,44.5088923 10.2166177,44.7831201 C10.5113043,45.085892 10.962889,45.0583673 11.2656216,44.7831201 C11.6095903,44.4711732 11.9616051,44.1704402 12.3216659,43.8758237 C12.5650589,43.6994616 12.8074462,43.5190217 13.0739716,43.3803787 C13.1896336,43.3446985 13.3032841,43.3212515 13.4229691,43.2937268 C13.6150686,43.2458134 13.8071681,43.1866862 14.0042963,43.1387728 C14.389501,43.042946 14.7807403,42.9440609 15.1729853,42.880856 C15.6376447,42.8461952 16.1053215,42.8635256 16.5699809,42.8676033 C17.0587785,42.8716811 17.5445589,42.8869726 18.0333565,42.9471192 C18.4497396,43.0164407 18.8620998,43.1234813 19.2543448,43.2763964 C19.3931391,43.3436791 19.5248932,43.4221755 19.6506128,43.5159634 C19.6767625,43.5394104 19.7009006,43.5608185 19.724033,43.5842655 C19.9603858,43.8279103 20.3415674,43.8748043 20.632231,43.7035393 C20.9188716,43.5332938 21.0637005,43.1785307 20.9731825,42.8482341 C20.8836701,42.5209957 20.7147031,42.230457 20.4511949,42.0153564 C20.3134063,41.9042381 20.1726004,41.7921003 20.0146966,41.7054484 C19.8608159,41.6208354 19.6978833,41.5515139 19.533945,41.4832118 C19.2070742,41.3374327 18.8771861,41.2038868 18.5221541,41.131507 C18.0896788,41.0479134 17.6380942,41 17.1945556,41 C16.3376512,41 15.4535913,41.0316025 14.620825,41.2507808 L14.620825,41.2507808 Z" id="Fill-40" transform="translate(15.500000, 43.000000) scale(1, -1) rotate(9.000000) translate(-15.500000, -43.000000) "></path>
            <path d="M32.1548308,42.3955329 C32.1398308,42.4065329 32.1248308,42.4175329 32.1098308,42.4275329 L32.1548308,42.3955329 Z M32.1658308,42.3955329 C32.1478308,42.4105329 32.1288308,42.4255329 32.1098308,42.4405329 C32.1278308,42.4255329 32.1468308,42.4105329 32.1658308,42.3955329 L32.1658308,42.3955329 Z M41.1554603,41.975311 C41.1914603,42.002311 41.2274603,42.029311 41.2634603,42.055311 C41.2264603,42.029311 41.1914603,42.003311 41.1554603,41.975311 L41.1554603,41.975311 Z M41.1554603,41.975311 C41.2014603,42.010311 41.2474603,42.046311 41.2944603,42.082311 C41.2954603,42.083311 41.2964603,42.083311 41.2964603,42.084311 C41.2474603,42.048311 41.2014603,42.011311 41.1554603,41.975311 L41.1554603,41.975311 Z M38.0359609,41.4569261 C38.0689609,41.4609261 38.1019609,41.4659261 38.1349609,41.4709261 C38.1019609,41.4669261 38.0689609,41.4619261 38.0359609,41.4569261 L38.0359609,41.4569261 Z M40.8425914,39.9999343 C40.8735914,40.0119343 40.9025914,40.0239343 40.9335914,40.0369343 C40.9025914,40.0249343 40.8735914,40.0129343 40.8425914,39.9999343 L40.8425914,39.9999343 Z M33.8818844,40.2613833 C33.3865037,40.3653656 32.9013634,40.4846394 32.4213433,40.6243019 C32.2267751,40.6793513 32.0270868,40.7354202 31.8273984,40.7792559 C31.6520311,40.8190138 31.4817839,40.8506162 31.3115368,40.9066851 C30.7214321,41.1054748 30.2068505,41.4286354 29.7114698,41.7507766 C29.2263295,42.0698595 28.7463094,42.3960784 28.2765297,42.7345305 C27.8912336,43.0097777 27.9270751,43.5194948 28.2765297,43.7937226 C28.6515854,44.0964945 29.2263295,44.0689698 29.6116256,43.7937226 C30.0494039,43.4817758 30.4974227,43.1810427 30.9556819,42.8864262 C31.2654549,42.7100641 31.5739478,42.5296243 31.913162,42.3909812 C32.0603682,42.355301 32.2050142,42.331854 32.3573406,42.3043293 C32.6018308,42.2564159 32.8463211,42.1972887 33.0972116,42.1493753 C33.5874721,42.0535485 34.085413,41.9546634 34.5846339,41.8914585 C35.1760186,41.8567977 35.7712436,41.8741281 36.3626283,41.8782059 C36.9847344,41.8822836 37.6030003,41.8975751 38.2251063,41.9577217 C38.7550485,42.0270432 39.2798705,42.1340838 39.7790914,42.2869989 C39.9557388,42.3542816 40.1234258,42.432778 40.2834325,42.526566 C40.3167139,42.550013 40.3474352,42.5714211 40.3768764,42.5948681 C40.677689,42.8385128 41.1628294,42.8854068 41.5327649,42.7141418 C41.8975801,42.5438963 42.0819078,42.1891333 41.966703,41.8588366 C41.8527783,41.5315983 41.6377292,41.2410595 41.3023552,41.0259589 C41.1269879,40.9148406 40.9477804,40.8027028 40.7468119,40.7160509 C40.5509637,40.6314379 40.343595,40.5621164 40.1349463,40.4938143 C39.7189289,40.3480352 39.2990713,40.2144893 38.8472124,40.1421095 C38.2967893,40.0585159 37.7220453,40.0106025 37.1575416,40.0106025 C36.0669359,40.0106025 34.9417688,40.042205 33.8818844,40.2613833 L33.8818844,40.2613833 Z" id="Fill-40" transform="translate(35.000834, 42.005268) scale(1, -1) rotate(9.000000) translate(-35.000834, -42.005268) "></path>
            <path d="M54.1174857,57.6236052 C54.1000312,57.6393974 54.0817455,57.6535273 54.0626286,57.6659948 C54.0809143,57.6518649 54.0992,57.6377351 54.1174857,57.6236052 M54.3161351,55.5822545 C54.3136416,55.6022026 54.3111481,55.6229818 54.3086545,55.6429299 C54.3103169,55.6229818 54.3136416,55.6030338 54.3161351,55.5822545 M54.0850701,54.9239688 C54.0667844,54.9314494 54.050161,54.9380987 54.0327065,54.9447481 C54.050161,54.9380987 54.0676156,54.9306182 54.0850701,54.9239688 M54.2438234,54.8907221 C54.2571221,54.9164883 54.2687584,54.9422545 54.276239,54.9713455 C54.2662649,54.9455792 54.2562909,54.9173195 54.2438234,54.8907221 M54.1366026,54.8350338 C54.1632,54.8425143 54.1873039,54.8533195 54.2114078,54.8649558 C54.2105766,54.8649558 54.2089143,54.8641247 54.2080831,54.8641247 C54.1856416,54.8541506 54.1615377,54.8433455 54.1366026,54.8350338 M54.1399273,54.0454234 C54.0626286,54.0487481 53.9878234,54.0653714 53.9196675,54.097787 C53.7185247,54.1659429 53.533174,54.269839 53.3544727,54.3770597 C53.1599792,54.4900987 53.0884987,54.7502545 53.2048623,54.9480727 C53.3187325,55.1433974 53.5788883,55.2115532 53.7767065,55.0976831 C53.8880831,55.0295273 53.9986286,54.9705143 54.1158234,54.9115013 C54.1515636,54.8973714 54.1881351,54.8849039 54.2247065,54.8740987 L54.2313558,54.8749299 L54.237174,54.8790857 C54.2380052,54.8790857 54.2380052,54.8799169 54.2380052,54.8807481 C54.276239,54.978826 54.3094857,55.0760727 54.3344208,55.175813 C54.3377455,55.3046442 54.3319273,55.4293195 54.3186286,55.5556571 C54.2712519,55.9113974 54.2263688,56.2712935 54.1856416,56.6270338 C54.1523948,56.9071377 54.158213,57.1880727 54.1341091,57.4665143 C54.1291221,57.4980987 54.1208104,57.5280208 54.1116675,57.558774 C54.0933818,57.5970078 54.0734338,57.6327481 54.050161,57.6676571 L54.0393558,57.6801247 C54.020239,57.691761 53.9994597,57.7017351 53.9778494,57.7108779 C53.7700571,57.814774 53.7118753,58.1040208 53.8249143,58.2960208 C53.8806026,58.3899429 53.9745247,58.4614234 54.0817455,58.4905143 C54.2022649,58.5262545 54.2995117,58.4971636 54.4100571,58.4481247 C54.6627325,58.3375792 54.8514078,58.1040208 54.9295377,57.8413714 C54.9943688,57.6335792 55.0035117,57.4224623 55.0068364,57.2080208 C55.0134857,56.9154494 55.0267844,56.6270338 55.0625247,56.3344623 C55.0783169,56.1690597 55.0982649,56.0036571 55.1207065,55.8349299 C55.1373299,55.6919688 55.1597714,55.5456831 55.1730701,55.3993974 C55.192187,55.175813 55.1531221,54.9613714 55.0816416,54.7502545 C55.0334338,54.6139429 54.9810701,54.4842805 54.8962909,54.3670857 C54.8580571,54.3055792 54.8090182,54.2565403 54.744187,54.2174753 C54.7184208,54.1983584 54.6884987,54.1784104 54.6594078,54.1559688 C54.5945766,54.1268779 54.5297455,54.097787 54.4615896,54.0686961 C54.3901091,54.0520727 54.3186286,54.0396052 54.2471481,54.0329558 C54.2114078,54.0362805 54.1756675,54.0420987 54.1399273,54.0454234" id="Fill-42"></path>
            <path d="M27.0439896,79.0140052 C27.0564571,79.0156675 27.0689247,79.0173299 27.080561,79.0189922 C27.0689247,79.0173299 27.0564571,79.0156675 27.0439896,79.0140052 M26.9409247,79.0032 C26.9641974,79.0048623 26.9874701,79.0073558 27.0107429,79.0098494 C26.9883013,79.008187 26.9641974,79.0056935 26.9409247,79.0032 M26.1812364,78.7929143 C26.1837299,78.7945766 26.1862234,78.796239 26.1887169,78.7987325 C26.1862234,78.796239 26.1837299,78.7945766 26.1812364,78.7929143 M26.1230545,78.7463688 C26.1405091,78.7596675 26.1579636,78.7746286 26.1762494,78.7887584 C26.1579636,78.7754597 26.1405091,78.7613299 26.1230545,78.7463688 M31.3893403,78.3241351 C31.343626,78.3341091 31.2987429,78.3474078 31.2563532,78.3632 C31.1491325,78.3956156 31.0452364,78.4280312 30.9380156,78.4579532 C30.7077818,78.5294338 30.4767169,78.5942649 30.2464831,78.6624208 C29.7361455,78.806213 29.2083532,78.9017974 28.6855481,78.9782649 C28.1286649,79.0439273 27.5767688,79.0630442 27.0198857,79.0106805 C26.7622234,78.9749403 26.5087169,78.9308883 26.2651844,78.8452779 C26.2344312,78.8286545 26.2061714,78.8103688 26.1779117,78.7904208 C26.1371844,78.7580052 26.0972883,78.7230961 26.0582234,78.688187 C25.8471065,78.4995117 25.5354182,78.4770701 25.3243013,78.688187 C25.1331325,78.8793558 25.1131844,79.2367584 25.3243013,79.4254338 C25.4672623,79.5484468 25.6135481,79.6722909 25.7789506,79.766213 C25.8604052,79.8019532 25.9410286,79.8343688 26.0224831,79.8667844 C26.1430026,79.9183169 26.2759896,79.9415896 26.4023273,79.9673558 C26.8702753,80.0679273 27.3473662,80.1103169 27.8211325,80.1261091 C28.4993662,80.1493818 29.1751065,80.0521351 29.8475221,79.9607065 C30.2273662,79.9124987 30.600561,79.8277195 30.9737558,79.7404468 C31.1358338,79.7047065 31.2987429,79.6623169 31.4541714,79.6132779 C31.7500675,79.5226805 32.0617558,79.3896935 32.1457039,79.0580571 C32.2171844,78.7629922 32.0517818,78.3897974 31.7301195,78.3274597 C31.6561455,78.3133299 31.6004571,78.304187 31.5431065,78.304187 C31.496561,78.304187 31.4483532,78.3100052 31.3893403,78.3241351" id="Fill-44"></path>
            <path d="M26.3873662,79.5603325 C26.3399896,79.7448519 26.287626,79.9268779 26.223626,80.1064104 C26.1297039,80.3092156 26.0233143,80.5003844 25.8944831,80.6849039 C25.6958338,80.9226182 25.4838857,81.1453714 25.2436779,81.3406961 C25.0342234,81.4936312 24.8222753,81.6407481 24.6045091,81.7812156 C24.4125091,81.9058909 24.2030545,82.0056312 23.9977558,82.1062026 C23.6120935,82.2608 23.220613,82.3888 22.8191584,82.4918649 C22.5922494,82.5508779 22.3678338,82.6057351 22.1467429,82.6738909 C21.8874182,82.7586701 21.640561,82.8717091 21.3937039,82.9922286 C21.2349506,83.0703584 21.1377039,83.2681766 21.1377039,83.4402286 C21.1377039,83.6513455 21.2931325,83.9073455 21.5208727,83.9430857 C21.7934961,83.9854753 22.0461714,83.998774 22.3221195,83.9663584 C22.6113662,83.9372675 22.900613,83.8882286 23.1890286,83.8366961 C23.6993662,83.7452675 24.2121974,83.5865143 24.682639,83.3654234 C25.2087688,83.1152416 25.6991584,82.8201766 26.1629506,82.4660987 C26.4364052,82.2583065 26.6699636,82.0313974 26.9001974,81.7845403 C27.3739636,81.2750338 27.6632104,80.6250597 27.8227948,79.9568 C27.9167169,79.5603325 27.7022753,79.1513974 27.3033143,79.0408519 C27.2401455,79.0233974 27.1753143,79.0150857 27.1113143,79.0150857 C26.7854961,79.0150857 26.4663273,79.2320208 26.3873662,79.5603325" id="Fill-46"></path>
            <path d="M29.9032104,79.2596156 C29.7860156,79.3768104 29.7569247,79.4998234 29.7378078,79.6560831 C29.7145351,79.8505766 29.7053922,80.0193039 29.7378078,80.2137974 C29.7702234,80.4190961 29.8250805,80.6102649 29.8998857,80.8014338 C29.9746909,80.9967584 30.0619636,81.1754597 30.1758338,81.3475117 C30.2897039,81.516239 30.4260156,81.6749922 30.5590026,81.8279273 C30.9812364,82.3083429 31.555574,82.6009143 32.1207688,82.8668883 C32.5496519,83.0647065 32.9743792,83.269174 33.4132364,83.441226 C33.8870026,83.6299013 34.3965091,83.7404468 34.8968727,83.8376935 C35.3058078,83.9183169 35.7180675,83.9706805 36.1336519,84.0030961 C36.552561,84.0388364 36.9714701,84.0197195 37.3870545,83.9573818 C37.6763013,83.9158234 37.9522494,83.8667844 38.2340156,83.776187 C38.7277299,83.6132779 39.1690805,83.3306805 39.604613,83.0514078 C39.7666909,82.9475117 39.9229506,82.8244987 40.0659117,82.698161 C40.2213403,82.5585247 40.3385351,82.3897974 40.4648727,82.2268883 C40.5820675,82.0747844 40.5554701,81.8212779 40.4648727,81.6683429 C40.3418597,81.4580571 40.0750545,81.3408623 39.8381714,81.4123429 C39.5755221,81.4962909 39.3353143,81.6134857 39.0917818,81.7398234 C38.8823273,81.8487065 38.6628987,81.9376416 38.4459636,82.033226 C38.1251325,82.1570701 37.8018078,82.2543169 37.4635221,82.3124987 C37.0412883,82.3548883 36.6240416,82.3906286 36.1984831,82.3632 C35.9441455,82.3465766 35.6923013,82.3241351 35.4387948,82.294213 C34.7721974,82.186161 34.1164052,82.0506805 33.4780675,81.8212779 C33.0200935,81.6533818 32.559626,81.4829922 32.1058078,81.2993039 C31.8847169,81.1970701 31.6744312,81.0765506 31.4724571,80.9369143 C31.3319896,80.8213818 31.2023273,80.6983688 31.0851325,80.5603948 C31.028613,80.4747844 30.979574,80.3875117 30.9346909,80.2969143 C30.895626,80.1905247 30.8632104,80.0849662 30.8382753,79.9752519 C30.8349506,79.8680312 30.8449247,79.7649662 30.8573922,79.6560831 C30.8898078,79.3535377 30.575626,79.0975377 30.2963532,79.0975377 C30.1500675,79.0975377 30.0071065,79.1557195 29.9032104,79.2596156" id="Fill-48"></path>
        </g>
        <g id="Group" transform="translate(247.000000, 79.000000)" fill="#161616">
            <path d="M4.52947075,111.078995 L4.52947075,111.078995 L4.60952332,111.073632 C4.90016771,111.054248 5.20066739,111.034134 5.49736328,111.023284 C5.66887978,111.016579 5.84108788,111.010484 6.01329599,111.004754 C6.1204938,111.001341 6.22786452,111.001341 6.33506233,111.001219 C6.39817072,111.001097 6.46110621,111.001097 6.5238688,111.000366 L6.62397773,111 L6.62397773,111 C6.92551481,111 7.22757059,111.011215 7.5111261,111.022797 C7.7998686,111.034256 8.10711136,111.053151 8.47815412,111.082287 L8.66972699,111.097647 C9.02797517,111.126173 9.38605045,111.1547 9.74326123,111.187005 C10.0010547,111.215165 10.2585023,111.244179 10.5143939,111.274656 C10.7535142,111.302694 11.0099244,111.335121 11.2652973,111.381812 C11.5474696,111.433378 11.7983471,111.485554 12.0317617,111.541265 C12.2245448,111.587224 12.4323703,111.642814 12.686187,111.716079 L12.7629545,111.740339 C12.8428342,111.76533 12.9234054,111.790686 13,111.819822 C12.9897989,111.833963 12.9797707,111.850177 12.9695697,111.865903 C12.9405225,111.911496 12.908709,111.956723 12.8736103,112 C12.8478483,111.996952 12.8203572,111.995246 12.7928662,111.993539 L12.7503328,111.990857 C12.5641199,111.970864 12.3789443,111.951359 12.19325,111.933195 L12.2055259,111.934902 C12.1438007,111.928319 12.0817297,111.922467 12.0196587,111.916616 L12.0471497,111.920395 C11.8256652,111.896745 11.6041807,111.871632 11.3826962,111.84652 C11.1544686,111.820553 10.926241,111.794587 10.6973218,111.772278 C10.2007538,111.724247 9.67029756,111.682433 8.97766136,111.636596 C8.47694382,111.603194 7.95738022,111.582836 7.43349413,111.576131 C7.36381555,111.575155 7.29413697,111.574668 7.22428549,111.574668 C6.77215277,111.574668 6.30895448,111.592954 5.90039248,111.608924 C5.73112368,111.615507 5.56185487,111.621236 5.39241316,111.626966 C5.01825821,111.639522 4.63130868,111.652566 4.25231253,111.675606 L4.05728167,111.686944 C3.8658817,111.698037 3.66808444,111.709253 3.47426388,111.726076 C3.31554195,111.739851 3.15733873,111.75509 3,111.773254 C3.03371544,111.717786 3.06535609,111.660612 3.09786123,111.603925 C3.15094144,111.518347 3.19399346,111.451542 3.25502706,111.388516 C3.28528451,111.363769 3.31761675,111.340973 3.35271539,111.319152 C3.41928177,111.285749 3.49293705,111.256735 3.59131698,111.22504 C3.78150665,111.171279 3.9853554,111.132756 4.19663883,111.110325 L4.5023255,111.08119 C4.50319,111.081068 4.51356398,111.079605 4.51339108,111.078995 C4.51339108,111.078386 4.52220897,111.077045 4.52134447,111.077045 L4.54347563,111.075704 C4.54140083,111.076192 4.53984474,111.076435 4.53984474,111.076679 C4.54001764,111.077411 4.52912495,111.078995 4.52947075,111.078995 M1.54695495,107.45698 C1.49737461,107.45698 1.44779427,107.455315 1.39821393,107.451568 C1.33466729,107.442548 1.27635802,107.430752 1.21996911,107.415903 C1.19762304,107.407299 1.17597529,107.39814 1.15485127,107.387316 C1.15485127,107.387177 1.14245619,107.375243 1.14245619,107.375243 C1.0883368,107.250347 1.05586517,107.116014 1.02444101,106.985984 L1.0082052,106.919789 C1.00628483,106.911601 1.00349157,106.903969 1,106.896336 C1.10841335,106.853039 1.25313906,106.794616 1.40292755,106.741882 C1.98043376,106.555926 2.58430135,106.426034 3.04606191,106.33375 C3.48634929,106.24549 3.93990465,106.194699 4.37844625,106.145712 C4.77439065,106.105745 5.13122944,106.070497 5.48911569,106.044963 C5.75534815,106.025951 6.02681797,106.020122 6.28903512,106.014571 C6.39482979,106.012351 6.50044988,106.009992 6.60606997,106.006939 C6.77576042,106.00222 6.94510173,106 7.11426845,106 C7.65581146,106 8.23995166,106.023175 8.90003357,106.070913 C9.10725844,106.086178 9.31465789,106.105606 9.52118445,106.12559 C10.0023232,106.187483 10.5082522,106.272689 11.1133418,106.393977 C11.3926677,106.449625 11.6711207,106.516098 11.9322903,106.579378 C12.1960787,106.642936 12.463184,106.718152 12.7259249,106.80322 L12.8123414,106.832223 C13.0951588,106.927144 13.3874035,107.025257 13.6386222,107.168471 C13.70374,107.213017 13.7618747,107.264502 13.8149466,107.313489 C13.8434029,107.344713 13.8694152,107.375659 13.8917612,107.410214 C13.9343584,107.506661 13.955657,107.606023 13.975559,107.707882 C13.9890015,107.800028 13.9972067,107.895504 14,108 C13.9797489,107.981543 13.9565299,107.964197 13.9348822,107.946434 C13.9018868,107.911185 13.8685423,107.882875 13.8331028,107.859561 C13.769207,107.818207 13.6986772,107.777685 13.6045793,107.728282 C13.4603774,107.653344 13.3114618,107.590896 13.1492782,107.53733 C12.8362586,107.433389 12.5564091,107.354982 12.2940173,107.297669 L12.2325656,107.284346 C11.6781038,107.164169 11.1047875,107.039828 10.5274559,106.972939 C9.93336467,106.903553 9.29632713,106.865251 8.52241993,106.852068 C8.44857316,106.85068 8.3745518,106.850125 8.30070503,106.850125 C8.06659504,106.850125 7.83231048,106.856092 7.59854965,106.862059 L7.56537971,106.862892 C7.2848318,106.870247 6.9845565,106.87899 6.69056604,106.893838 C6.29706574,106.914099 5.99574297,106.932973 5.71397301,106.955037 C5.3859397,106.981543 5.05860471,107.010269 4.73196804,107.03955 C4.38927013,107.07008 4.0802659,107.098529 3.76759551,107.136692 C3.47255758,107.172773 3.17490096,107.216347 2.85769153,107.270053 C2.7475324,107.28851 2.63772242,107.308215 2.52773786,107.327921 C2.29327872,107.370108 2.05096354,107.413822 1.80969583,107.443519 C1.71437588,107.45254 1.62848318,107.45698 1.54695495,107.45698 M7.41856386,105 C7.1537312,105 6.88444007,105.008514 6.62370919,105.016687 L6.34585782,105.025201 C5.89680149,105.038141 5.55510493,105.060277 5.23801909,105.097056 C4.80322984,105.146776 4.35363849,105.204329 3.90172875,105.268012 C3.19104985,105.368474 2.44291986,105.554243 1.61507257,105.836047 C1.36183191,105.922717 1.15834768,105.99951 0.974837374,106.078347 C0.821644607,106.143733 0.670235225,106.220527 0.523819321,106.294766 L0.425733149,106.344316 C0.359391229,106.37752 0.306246357,106.435243 0.275750475,106.506758 C0.0711962215,106.587298 -0.0473988775,106.816317 0.0180513501,107.006172 C0.0892084094,107.212034 0.165893962,107.416363 0.242757853,107.620693 C0.355289443,107.920716 0.471922819,108.231126 0.568403945,108.541877 C0.607103398,108.666858 0.643662789,108.79235 0.680222181,108.917843 C0.713214802,109.030905 0.746207424,109.144137 0.780805092,109.257029 L0.844293596,109.462891 C0.894406713,109.624651 0.94451983,109.786242 0.990352823,109.949365 C1.01728194,110.043526 1.04153597,110.138369 1.06579001,110.233212 C1.10217106,110.37488 1.13962214,110.521657 1.18563347,110.663666 C1.21113588,110.743184 1.24359349,110.821169 1.27587275,110.898814 L1.31582058,110.995701 C1.36111855,111.110125 1.40427647,111.22523 1.44672103,111.340847 C1.50521606,111.499372 1.53375022,111.666411 1.56157102,111.828172 C1.57244967,111.891514 1.58314998,111.954686 1.59581201,112.017687 C1.62505953,112.166166 1.66536403,112.291488 1.72617745,112.423792 C1.76933537,112.518464 1.84619926,112.598323 1.92787829,112.678352 C2.00616889,112.755656 2.09141469,112.806739 2.22178013,112.855097 C2.27938346,112.876381 2.3407319,112.886768 2.40903555,112.886768 C2.50908344,112.886768 2.60859632,112.863951 2.68403351,112.843858 C2.74342023,112.828023 2.80209359,112.810995 2.86094529,112.794138 C2.93495577,112.772684 3.00896624,112.751399 3.08386841,112.732158 C3.19711336,112.703382 3.31713516,112.686865 3.43323352,112.670689 L3.45570417,112.667624 C3.97484753,112.607518 4.46153328,112.564949 4.94358223,112.537365 C5.49215144,112.506375 6.04678416,112.487474 6.56806758,112.470787 C6.72839389,112.465679 6.88889853,112.463295 7.0490465,112.463295 C8.0061892,112.463295 8.9702871,112.550135 9.78707741,112.635102 C9.97504618,112.655024 10.1631933,112.675627 10.3499137,112.697593 C10.5598181,112.725347 10.7697225,112.754635 10.9796269,112.783752 C11.2758472,112.825128 11.5720674,112.866335 11.868466,112.903795 C12.0182703,112.923036 12.1691447,112.935125 12.3198407,112.947215 C12.4088316,112.954366 12.4978225,112.961688 12.5868134,112.970372 L12.6813328,112.980248 C12.7690754,112.989954 12.860028,113 12.9488406,113 C13.0777793,113 13.1805023,112.978886 13.2719899,112.933423 C13.3071226,112.916395 13.3392235,112.892727 13.3698978,112.861397 C13.4250044,112.845561 13.4774359,112.816615 13.5389627,112.767746 C13.5783755,112.736756 13.6056613,112.691974 13.6320554,112.648894 L13.6557744,112.610923 C13.6841302,112.568525 13.7071359,112.522721 13.7301415,112.477258 L13.7444086,112.449162 C13.7595674,112.419875 13.7741911,112.390588 13.7882799,112.36079 C13.8460615,112.343082 13.8976014,112.312943 13.9404026,112.272077 C14.0026427,112.212481 14.0645262,112.105889 14.0531125,112.011898 C14.0484757,111.972735 14.0452656,111.933742 14.0418772,111.894579 C14.0390238,111.862227 14.0363487,111.829704 14.0329603,111.797182 C14.1802679,111.464977 14.3058182,111.156269 14.4167447,110.854032 C14.5547787,110.477385 14.6653486,110.086265 14.7461359,109.787604 C14.8014209,109.58651 14.8456488,109.408914 14.8813165,109.244769 C14.9317863,109.013707 14.9626389,108.827597 14.9781543,108.659366 C14.9865362,108.573548 14.9949181,108.48773 14.9984849,108.40123 C15.00223,108.322563 14.9983066,108.243897 14.9945615,108.16523 L14.9915297,108.099674 C14.9835045,107.914075 14.9531869,107.73103 14.9098507,107.51342 C14.8955836,107.439521 14.8748963,107.368176 14.8485022,107.301769 C14.8181847,107.227189 14.7839437,107.148181 14.738289,107.074623 C14.712965,107.033416 14.6783673,106.994934 14.6448397,106.957815 L14.6079236,106.916097 C14.517506,106.809506 14.4080061,106.712109 14.2731822,106.618458 C14.1818729,106.555116 14.0805767,106.500798 13.9826688,106.448183 L13.8988497,106.40289 C13.7772229,106.336483 13.6463224,106.280804 13.5198804,106.226827 L13.4153741,106.182045 C13.192451,106.08618 12.9857567,106.002235 12.7833425,105.925271 C12.6269396,105.865675 12.4641166,105.813571 12.3066437,105.76317 L12.2454736,105.743588 C11.8830897,105.627291 11.4932418,105.518315 11.0868084,105.419556 C10.6602227,105.31671 10.2812534,105.240427 9.9283215,105.18611 C9.51350616,105.122087 9.09548073,105.085648 8.70545444,105.05585 C8.27334027,105.023328 7.91844666,105.00596 7.58869879,105.001192 C7.53216548,105.000681 7.47581052,105 7.41856386,105" id="Fill-53" transform="translate(7.500000, 109.000000) scale(-1, 1) translate(-7.500000, -109.000000) "></path>
            <path d="M59.5263426,59.3640642 C59.5131409,59.3709356 59.4996522,59.3769108 59.4861635,59.3822885 C59.4855895,59.3822885 59.4850155,59.3822885 59.4847285,59.3822885 C59.4985042,59.3763133 59.5125669,59.3700394 59.5263426,59.3640642 M53.282228,58.0256248 C53.3120753,58.0384714 53.3419226,58.0516168 53.3717699,58.065061 C53.3419226,58.0519156 53.3120753,58.0387702 53.282228,58.0256248 M52.3761899,56.5455738 C52.2966928,56.8443326 52.3380198,57.1699796 52.4884043,57.4373688 C52.545516,57.5156436 52.6037757,57.5936196 52.6620353,57.6718944 C52.8009401,57.8152986 52.9648133,57.9144865 53.153081,57.9694582 C53.1671436,57.9754333 53.1814933,57.9817073 53.195269,57.9876824 C54.1587057,58.4202852 55.1186985,58.8615519 56.0723775,59.3186528 C56.221901,59.3906537 56.3694156,59.4692273 56.5152082,59.5510872 C55.7242545,59.6153203 54.9341618,59.6879187 54.1406251,59.7363176 C53.5623335,59.7724674 52.97945,59.7993557 52.4074722,59.9021288 C51.939099,59.98608 51.4681429,60.0828778 51.0072316,60.2008876 C50.7193772,60.2743822 50.4312359,60.3442918 50.1473995,60.4318281 C49.8738948,60.5157793 49.5579151,60.633789 49.3581677,60.854273 C49.2775226,60.9418093 49.1957295,61.0329308 49.1463666,61.1437703 L49.0387441,61.4099644 C48.9870853,61.6071452 48.9870853,61.804326 49.0387441,62.0015068 C49.0904029,62.2921991 49.3067959,62.5431565 49.5432784,62.6889507 C49.7438868,62.8126369 49.9648717,62.8431103 50.1913095,62.834745 C50.2576049,62.8317574 50.3241874,62.8362388 50.3901959,62.843409 C50.6668575,62.8947956 50.9320393,62.994581 51.1969342,63.0904826 C51.4523583,63.1825003 51.7080694,63.2760118 51.9614845,63.3740046 C52.5699104,63.6085303 53.1760404,63.8499274 53.7807354,64.0961046 C54.3429554,64.3467633 54.9071844,64.5932393 55.4659605,64.8537569 C55.6944072,64.9598163 55.9030514,65.0195681 56.1541706,64.9469697 C56.3783124,64.8842303 56.5723199,64.7276807 56.6888392,64.5200434 C56.8099504,64.3052358 56.8423807,64.0438219 56.7786681,63.803321 C56.7224174,63.5920986 56.568876,63.3414399 56.3682676,63.2479284 C55.5423007,62.8631271 54.71002,62.4980439 53.8719993,62.1467035 C54.4399592,62.118919 55.009067,62.1033835 55.5755919,62.0669349 C56.6945791,61.9946353 57.8101223,61.9199456 58.9299704,61.8709492 C59.1664529,61.8601939 59.4029354,61.8416708 59.637409,61.8103011 C59.7975513,61.7890893 59.9490838,61.7786327 60.0991813,61.7260512 C60.3221752,61.6468801 60.4860484,61.5593438 60.6573834,61.3887525 C60.7472124,61.2991249 60.8267095,61.1987419 60.8838212,61.0843173 C60.9512646,60.9839343 60.9914437,60.8763812 61.0049324,60.7622553 C61.0611831,60.5486428 61.0611831,60.3350302 61.0049324,60.1214177 C60.9613094,59.8402857 60.760701,59.5693115 60.5712854,59.3781058 C60.374982,59.178535 60.1250107,59.017504 59.8928331,58.8657345 C59.6262163,58.6918569 59.3593124,58.5191743 59.0901127,58.3488818 C58.1812047,57.7710823 57.2573731,57.2201711 56.2910664,56.7487297 C55.4659605,56.3471979 54.622774,55.9901812 53.7440003,55.7368337 C53.6484315,55.7093479 53.5514278,55.6962025 53.455859,55.6962025 C52.9676833,55.6962025 52.5102158,56.0373851 52.3761899,56.5455738" id="Fill-59"></path>
            <path d="M84.250126,24.504838 C84.2538443,24.5279278 84.2567045,24.5510176 84.2595647,24.5743925 C84.2561324,24.5513027 84.2532723,24.5282129 84.250126,24.504838 M70.7305798,8.07116914 C70.7917879,8.15013057 70.8529959,8.22966212 70.91449,8.3089086 C70.8529959,8.22994717 70.7917879,8.15041563 70.7305798,8.07116914 M66.2841284,0.668464069 C65.9131617,1.08607595 65.6806283,1.55043756 65.6806283,2.12055616 C65.6806283,2.55071065 65.8350785,3.09574404 66.1439791,3.43924051 C66.2137677,3.53730091 66.2975713,3.64134755 66.4056864,3.76506329 C66.5252424,3.90331705 66.6470865,4.01220971 66.7889519,4.12480813 C67.0134768,4.30525067 67.2337115,4.48882886 67.4482257,4.67924848 C67.9061421,5.08802352 68.3463254,5.51447224 68.7833624,5.94633709 C69.605381,6.75790093 70.3395918,7.63702382 71.079237,8.5218479 C72.057422,9.78580086 73.0384671,11.045763 74.0320971,12.2980285 C75.03774,13.5639769 76.1091672,14.7743387 77.1671514,15.996958 C79.0600252,18.1859284 80.9995201,20.3327101 82.8898197,22.5239609 C82.4996897,22.5239609 82.1098458,22.5194 81.7200019,22.514554 C80.4163273,22.4977355 79.1200892,22.3874175 77.8241371,22.2582857 C76.8130599,22.1570896 75.8177138,22.0889604 74.7986281,22.1525287 C73.9808997,22.2026991 73.1640295,22.3475092 72.3551677,22.4777813 C71.336368,22.6414054 70.0381278,22.7426014 69.4615135,23.7237755 C69.122867,24.3015908 69.1185767,25.033338 69.4469265,25.6154291 C69.6491419,25.9763142 69.9463157,26.2268813 70.2938288,26.441816 C70.4662982,26.5484282 70.6319032,26.6604565 70.7946481,26.7787561 C71.4610723,27.3086814 72.1126236,27.8497239 72.7327128,28.4338104 C73.4757902,29.1330609 74.2077128,29.8437137 74.9350591,30.5583574 C75.7785292,31.3890202 76.6242874,32.2165474 77.4711896,33.0437895 C78.3169478,33.8690362 79.2030347,34.6572252 80.0845453,35.444559 C80.3940178,35.7207814 80.7458212,35.8921021 81.1702734,35.8921021 C81.5758484,35.8921021 81.9691245,35.7307585 82.2551435,35.444559 C82.8228912,34.8790013 82.8786649,33.8376797 82.2551435,33.2809588 C81.3178592,32.4425994 80.3805749,31.5996791 79.4867656,30.7154251 C78.6084012,29.8457092 77.7371873,28.9705771 76.8656874,28.0931646 C76.1789558,27.4010406 75.5022348,26.696659 74.8069226,26.0130868 C75.3912595,25.9968384 75.9755963,26.0125167 76.5650814,26.0652527 C78.0435137,26.2776218 79.52309,26.5076647 81.0118189,26.6333759 C82.4799544,26.7556663 83.9658232,26.8748211 85.4393931,26.792439 C86.3309143,26.7414133 87.2727749,26.6222585 87.936625,25.9606359 C88.2749855,25.6222705 88.4248594,25.2291737 88.5755914,24.7893272 C88.7231772,24.3563221 88.6536746,23.8206957 88.5790237,23.3874056 C88.5364068,23.1413994 88.4671902,22.9341613 88.3699438,22.7038333 C88.1911819,22.2773846 88.0169963,21.8996811 87.7690178,21.5134257 C87.0448177,20.385446 86.1132538,19.3797568 85.2451862,18.3609548 C84.3479445,17.3099412 83.4249612,16.2820173 82.5134187,15.2432612 C81.3244377,13.8892295 80.140319,12.5317771 78.9639228,11.1666281 C78.5114408,10.642119 78.0555265,10.1233111 77.6253539,9.57998804 C77.0684749,8.87532144 76.5115959,8.17179508 75.9538588,7.46826871 C74.9416376,6.14616366 73.9491516,4.79441244 72.8099379,3.57920462 C72.224457,2.95435463 71.6235311,2.35202432 71.0043,1.7630918 C70.7174229,1.49029004 70.4156729,1.22974584 70.1073444,0.982314363 C69.9139955,0.828667398 69.7072038,0.650505332 69.5129969,0.521373468 C69.2492874,0.345491877 69.1005575,0.270806339 68.7487541,0.145095186 C68.4807543,0.0496003189 68.189873,-2.13162821e-14 67.8981336,-2.13162821e-14 C67.2946335,-2.13162821e-14 66.6891313,0.212084122 66.2841284,0.668464069" id="Fill-63"></path>
            <path d="M57.8580222,34.8102591 C57.3500278,35.3157886 57.2541266,36.1095907 57.6100893,36.7268364 C57.9118961,37.2520145 58.3868892,37.7005632 58.8175985,38.1249722 C59.1625608,38.4657344 59.5185235,38.7947076 59.8964872,39.0972955 C60.3931991,39.4941965 60.9011935,39.8616247 61.4455739,40.1894751 C61.9270544,40.4788704 62.435895,40.7222319 62.9374019,40.9768212 C63.4101385,41.2168144 63.8935935,41.4360362 64.3685866,41.6706962 C64.7733461,41.8708309 65.1733106,42.0774216 65.5718648,42.2865384 C64.7764488,42.2427502 63.9810328,42.20626 63.1842066,42.1829624 C62.6243127,42.1675243 62.0601879,42.1335603 61.5005761,42.141139 C60.9432207,42.1489985 60.3878399,42.1664015 59.8313308,42.1927867 C59.2243325,42.2211368 58.6181803,42.2497675 58.0123103,42.2870998 C57.6157306,42.3112395 57.2211253,42.3353792 56.8256738,42.3724307 C56.4736599,42.4063947 56.1219281,42.4591651 55.7755554,42.5273737 C55.5755732,42.5315841 55.3834887,42.5770565 55.190558,42.689334 C54.9051109,42.8560662 54.6924358,43.130304 54.6055606,43.4472073 C54.5150186,43.7739349 54.5612768,44.1301353 54.7333349,44.4228989 C54.887623,44.6850669 55.1840706,44.9514454 55.4946213,45.0050579 C56.3044224,45.1487731 57.1054797,45.334031 57.9087934,45.5094646 C58.3262458,45.6012515 58.7338259,45.7185815 59.1425344,45.8387185 C59.8852047,46.2878285 60.5728728,46.8256379 61.2977732,47.306747 C62.2508621,47.9391502 63.2346957,48.520467 64.2142985,49.1102047 C65.2223895,49.7176261 66.2217366,50.3362752 67.2199554,50.958854 C67.7127185,51.2659331 68.2083021,51.568521 68.7007831,51.8756 C68.9828455,52.0510336 69.2618052,52.2329232 69.5427393,52.4117251 C70.0417077,52.7297512 70.5333425,53.0368302 71.1567004,52.8591511 C71.6195648,52.7263829 71.9899128,52.3668141 72.1188153,51.9019852 C72.2564617,51.4029116 72.0911732,50.9490298 71.765109,50.5698124 C71.6009487,50.3800634 71.4015306,50.2178224 71.2196003,50.0454764 C71.0399266,49.8756567 70.8616631,49.7035914 70.6819894,49.5323682 C70.2577675,49.1301339 69.8358022,48.7242507 69.4059391,48.3273497 C68.9918715,47.9458868 68.5608801,47.5818269 68.1346838,47.2135567 C67.4966587,46.665081 66.811247,46.161797 66.0807054,45.7407563 C65.3290091,45.3073651 64.519772,44.9795147 63.7127915,44.6620501 C63.9288513,44.6769268 64.1451932,44.6932071 64.3609709,44.7111715 C65.2049016,44.7824677 66.0446014,44.874816 66.8851474,44.9769885 C67.3866543,45.0488461 67.8873151,45.1260369 68.3868476,45.2124906 C68.628293,45.2540333 68.8694564,45.2966987 69.1109018,45.3418904 C69.3873229,45.3921346 69.6693854,45.451361 69.9491913,45.4710096 C70.2027654,45.4875705 70.440544,45.4524838 70.6853741,45.3879242 C71.0026943,45.3045582 71.2173438,45.1125636 71.4610457,44.9107448 C71.5733066,44.7813449 71.674567,44.6454891 71.7673655,44.5017739 C71.891755,44.3142704 72.0260167,43.8373717 72.0020414,43.6136587 C71.9831433,43.4371023 71.9600141,43.2605459 71.932372,43.0851123 C71.8398556,42.7496832 71.63395,42.527093 71.4246597,42.2640829 C71.3321432,42.1795941 71.2373703,42.0995964 71.1403408,42.0204407 C70.9364097,41.850621 70.7149907,41.6917483 70.4989309,41.5348404 C70.3437966,41.4208788 70.1816107,41.3178641 70.0208351,41.212604 C69.4854807,40.8625788 68.9456132,40.5206937 68.3913606,40.1992993 C67.8215945,39.8703262 67.2442128,39.557914 66.6626001,39.250835 C66.1833761,38.9965264 65.6897669,38.7716907 65.2060299,38.5283292 C64.1841178,38.012414 63.1658725,37.4995864 62.2350666,36.8323772 C61.8892581,36.5505607 61.5612195,36.2547094 61.2416428,35.940613 C61.0489942,35.7519868 60.8614227,35.5580274 60.6797745,35.3584541 C60.5993867,35.2686321 60.5189989,35.1785294 60.4394573,35.0875846 C60.2532961,34.8759415 60.0253897,34.7106128 59.7850725,34.5624065 C59.5470118,34.4153229 59.2748216,34.3459916 59.0020673,34.3459916 C58.5812302,34.3459916 58.1587007,34.5110395 57.8580222,34.8102591" id="Fill-68"></path>
        </g>
    </g>
</svg>