<svg width="500" height="600" xmlns="http://www.w3.org/2000/svg" xmlns:xlink="http://www.w3.org/1999/xlink"><defs><path id="a" d="M0 .442h63.899V92.26H0z"/></defs><g fill="none" fill-rule="evenodd"><path d="M227.937 143.39c-.593 12.324-.706 20.918-.34 25.781.902 11.992 3.695 20.439 6.336 26.034 4.25 9 12.53 13.502 24.845 13.508 5.01-1.36 8.66-3.872 10.953-7.534 2.293-3.662 4.84-11.518 7.644-23.567 3.438-1.668 5.228-3.72 5.37-6.157.142-2.437-1.018-6.138-3.482-11.103-7.275-16.782-13.902-26.161-19.881-28.137-5.979-1.975-16.46 1.75-31.445 11.175z" fill="#BDA48E"/><path d="M270.275 204.313v.003l.003-.004h-.003zm-22.3-60.296c-.554.15-1.106.302-1.66.453-.33.09-.659.199-.986.297-.57.175-1.135.346-1.705.52-.284.086-.561.197-.84.301-.588.212-1.178.429-1.765.644a14.49 14.49 0 00-.766.303c-1.001.438-2.002.88-3.004 1.318-.249.11-.487.245-.728.367-.582.298-1.163.596-1.748.89-.379.194-.757.388-1.136.58-.524.267-1.036.561-1.55.847a.528.528 0 00-.213.709c.134.249.46.347.708.21.494-.274.981-.557 1.485-.813.332-.167.665-.337.997-.503.814-.415 1.626-.826 2.44-1.24.466-.234.95-.427 1.429-.637.693-.3 1.386-.598 2.079-.901.882-.32 1.768-.634 2.655-.95.319-.118.65-.198.974-.296l1.707-.504c.318-.094.64-.172.958-.251l1.569-.409c.408-.108.828-.175 1.241-.264.38-.077.757-.171 1.141-.226.459-.063.917-.124 1.375-.189l.836-.049c.273-.016.549-.003.823 0 .519.01 1.04.07 1.56.117.35.03.658-.279.673-.622.015-.367-.268-.64-.62-.677-.862-.08-1.73-.103-2.595-.026-.232.019-.465.036-.7.057-.244.023-.487.07-.732.106-.405.063-.817.112-1.22.205-.581.13-1.161.262-1.742.39a23.65 23.65 0 00-.94.243m28.662 25.789a.44.44 0 01-.044.054l.044-.054m-.265-2.033l.006.06-.006-.06m-.374-.59a2.27 2.27 0 01-.046.032l.046-.032m.148-.068a.38.38 0 01.05.071c-.016-.023-.032-.048-.05-.071m-.117-.03a.453.453 0 01.08.012h-.004a.603.603 0 00-.076-.012m-.175-.77a.567.567 0 00-.203.1 2.98 2.98 0 00-.487.4.42.42 0 00-.018.59.424.424 0 00.591.017c.093-.092.188-.174.289-.258a.974.974 0 01.097-.06l.007-.002.007.003v.002c.06.087.114.174.161.265.032.125.055.248.07.374.034.357.071.718.112 1.074.03.28.099.553.138.83a.71.71 0 01-.001.094.873.873 0 01-.035.12l-.008.015a.472.472 0 01-.053.044c-.18.148-.17.443-.018.604a.433.433 0 00.294.132c.126.008.214-.042.31-.115a.962.962 0 00.37-.708 2.205 2.205 0 00-.067-.635 8.803 8.803 0 01-.142-.863c-.022-.165-.04-.33-.056-.5-.016-.143-.027-.29-.047-.436a1.584 1.584 0 00-.235-.612 1.472 1.472 0 00-.266-.332.444.444 0 00-.182-.112l-.097-.04a11.61 11.61 0 00-.212-.04 1.553 1.553 0 00-.217.012l-.102.037m-31.645-11.747l.003-.001a1.736 1.736 0 00-.176-.03c.058.01.114.021.173.03" fill="#161616"/><path d="M244.209 154.568l.003-.001a1.736 1.736 0 00-.176-.03c.058.01.114.021.173.03" fill="#161616"/><path d="M244.209 154.568l.003-.001a1.736 1.736 0 00-.176-.03c.058.01.114.021.173.03m4.641-3.49h-.002.002zm8.32-1.862l-.038-.018a.188.188 0 00.038.018zm-4.469 1.059l.076-.008-.076.008zm-2.08-1.03l-.782.19c-.995.247-1.962.637-2.855 1.143-.535.307-1.052.65-1.537 1.034-.445.353-.86.75-1.26 1.155a.632.632 0 00-.024.878c.225.238.639.266.876.024.485-.492.996-.963 1.551-1.373a11.415 11.415 0 012.258-1.218l-.095.035.096-.035.064-.026-.063.026a13.03 13.03 0 011.46-.425c.253-.059.509-.124.765-.167.27-.045.539-.104.81-.13.24-.022.48-.048.72-.072.377-.02.752-.05 1.13-.055.431-.006.861-.005 1.293.005.365.005.726.039 1.086.082.159.024.32.046.481.065.13.014.255.008.384.002.27-.013.51-.147.594-.417a.6.6 0 00-.047-.462c-.077-.145-.198-.222-.346-.284-.003 0-.006-.003-.01-.004l.036.018a2.367 2.367 0 00-.386-.144c-.213-.06-.434-.09-.65-.123a8.458 8.458 0 00-1.135-.075c-.862-.01-1.73-.006-2.591.09a18.44 18.44 0 00-1.301.17c-.16.027-.324.047-.482.084l-.04.009z" fill="#161616"/><path d="M246.44 152.595l-.055.04.055-.04m4.575-3.209c-.444.126-.88.257-1.321.396-.349.11-.694.23-1.036.351-.344.123-.693.244-1.024.4-.156.073-.32.141-.471.225l-.598.339c-.82.462-1.543 1.096-2.26 1.701-.248.21-.237.615-.025.842.232.243.593.233.842.023.414-.35.826-.701 1.259-1.025.274-.194.555-.381.846-.547.183-.103.362-.221.552-.311l.515-.25c.173-.08.355-.143.53-.213a36.952 36.952 0 012.503-.823c.473-.132.944-.272 1.425-.369.413-.086.827-.142 1.244-.19.94-.036 1.888.018 2.82.155.564.12 1.126.269 1.658.496.087.043.174.088.257.138.258.15.58.192.849.037.254-.152.44-.471.348-.77a.907.907 0 00-.218-.4c-.12-.122-.244-.173-.4-.24-.149-.07-.315-.108-.476-.147-.429-.108-.863-.187-1.299-.27a7.877 7.877 0 00-.684-.102 10.46 10.46 0 00-.732-.037c-.427-.018-.853-.03-1.279-.028-.874.008-1.735.133-2.592.302a7.417 7.417 0 00-.231.05c-.335.077-.671.175-1.002.267" fill="#161616"/><path d="M251.339 149.998c-.431.11-.865.213-1.29.334a12.28 12.28 0 00-.652.204 51.043 51.043 0 00-2.773 1.14c-.748.336-1.46.764-2.17 1.181a.402.402 0 00-.159.537.402.402 0 00.537.16c.551-.325 1.103-.652 1.683-.923a27.472 27.472 0 011.723-.724l-.016.007c.457-.172.912-.354 1.378-.498a18.6 18.6 0 011.432-.364c.491-.11.982-.22 1.477-.315.253-.044.506-.087.758-.124.247-.038.496-.058.744-.079l-.137.012c.816-.045 1.637-.095 2.455-.077.821.017 1.64.084 2.458.145a.54.54 0 00.554-.244.545.545 0 00.069-.41c-.034-.148-.123-.244-.24-.334-.207-.162-.483-.158-.732-.168-.205-.009-.407-.018-.612-.025-.434-.017-.865-.04-1.299-.04-.873.002-1.744.07-2.611.137-.674.049-1.345.178-2.007.33-.19.045-.382.09-.57.138m-2.114 5.489l-.135.05.135-.05zm3.208-2.587c-.875.209-1.746.42-2.595.71a18.46 18.46 0 00-2.2.894c-.727.358-1.411.815-2.093 1.252-.34.219-.501.63-.298 1.006.18.334.662.513 1.002.298a28.57 28.57 0 011.527-.919c.405-.223.828-.411 1.263-.581.099-.036.197-.072.297-.106.901-.378 1.817-.75 2.76-1.013a23.7 23.7 0 01.742-.189c.911-.21 1.834-.343 2.777-.357.305-.007.612-.021.916.015.254.032.57.063.851.15.116.011.233.025.35.04.476.042 1.013.089 1.4.382.053.025.109.049.168.072.119.042.248.053.377.063a.799.799 0 00.707-.374c.194-.311.14-.695-.097-.967l-.009-.01a1.8 1.8 0 00-.318-.324c-.235-.182-.543-.261-.827-.336-.494-.132-1.009-.184-1.514-.237a12.018 12.018 0 00-2.69.041 20.09 20.09 0 00-2.021.38l-.475.11zm-3.519 7.657a.46.46 0 00.034.352.516.516 0 00.264.22c.203.082.4.157.613.214.231.064.478.077.717.088.55.027 1.103-.029 1.648-.09.209-.022.417-.06.623-.091.164-.024.33-.043.492-.074.59-.113 1.19-.204 1.767-.371a8.813 8.813 0 001.103-.421c.072-.03.144-.067.217-.1.12-.058.222-.132.314-.227.088-.09.126-.188.177-.3a.544.544 0 00.011-.282c-.006-.024-.01-.048-.02-.07-.747.248-1.53.397-2.306.513-.173.026-.347.05-.521.072-.328.081-.657.152-.987.227-.209.048-.419.076-.627.111-.33.06-.657.112-.989.148-.427.04-.854.05-1.278.009a3.829 3.829 0 01-.363-.103c-.276.014-.55.03-.825.05a.457.457 0 00-.064.125" fill="#161616"/><path d="M254.359 153.24c-.105.02-.206.047-.305.077-.255.079-.528.182-.726.364a2.051 2.051 0 00-.399.55c.882-.198 1.773-.32 2.688-.336.305-.006.612-.02.916.016.265.033.6.065.89.163l.208.02c.028 0 .052.004.075.006-.161-.153-.346-.287-.523-.42-.245-.182-.534-.306-.814-.425-.273-.113-.574-.16-.86-.2-.269-.042-.558.008-.821.065a1.577 1.577 0 00-.329.12m3.194 5.968c-.156.044-.312.087-.468.127-.812.292-1.667.459-2.517.585l-.223.032c.052.02.104.04.157.057.628.222 1.302.229 1.955.142.317-.043.621-.154.914-.271.25-.102.48-.215.701-.369a1.788 1.788 0 00.589-.685c.003 0 .002-.004.002-.004-.363.147-.738.28-1.11.386" fill="#161616"/><path d="M249.36 160.6c-.075.24.06.55.317.61.623.146 1.25.224 1.887.278.187.016.377.032.564.05.424.034.85.016 1.27-.024a13.698 13.698 0 002.195-.37c.151-.039.307-.068.456-.119.182-.062.362-.12.544-.182.31-.105.621-.224.925-.354.308-.134.614-.268.916-.418.132-.063.262-.134.388-.21.12-.07.249-.15.341-.255a.943.943 0 00.196-.348.591.591 0 00-.212-.645c-.018.008-.035.019-.054.027-.49.216-1.02.418-1.538.568l-.226.062c-.332.16-.672.308-1.008.452l.148-.053c-.491.183-.979.365-1.487.49-.668.164-1.334.3-2.017.372-.404.023-.8.01-1.2-.016-.46-.03-.912-.07-1.364-.138l-.108-.023c-.271.014-.542.03-.814.046a.461.461 0 00-.12.2" fill="#161616"/><g transform="rotate(-13 659.352 -862.98)"><mask id="b" fill="#fff"><use xlink:href="#a"/></mask><path d="M21.502 71.916l.029-.072c.061-.14.12-.279.188-.415.084-.172.172-.338.263-.507l.065-.123.1-.188.104-.189c.133-.159.273-.318.416-.477.136-.153.286-.298.439-.436h.032a.618.618 0 00.172-.019c.545-.126 1.1-.22 1.652-.315l.403-.068c1.049-.1 2.026-.191 3.007-.27a2.8 2.8 0 00.662.241c.205.055.416.087.62.117l.341.052c.614.1 1.208.243 1.601.337.59.147 1.133.28 1.65.48l.1.05.15.065c.402.325.928.756 1.415 1.22.182.173.334.377.483.575.075.095.147.192.224.286l.283.344.364.445c.434.6.804 1.237 1.13 1.941l.077.205c.043.448.062.805.059 1.127-.004.19-.007.386-.013.577l-.007.29a8.146 8.146 0 01-.045.843c-.046.273-.104.54-.176.809a7.1 7.1 0 01-.269.802 8.894 8.894 0 01-.993 1.756c-.192.228-.39.452-.601.67a7.784 7.784 0 01-.799.713 3.31 3.31 0 01-.24.172 1.722 1.722 0 01-.247.14 2.024 2.024 0 01-.438.13c-.068.006-.136.01-.204.01-.13 0-.26-.01-.39-.026a2.797 2.797 0 01-.27-.062 3.707 3.707 0 01-.568-.334 2.28 2.28 0 01-.247-.253 2.323 2.323 0 01-.201-.35 4.444 4.444 0 01-.24-.936 1.806 1.806 0 01-.007-.328l.273-.094a8.41 8.41 0 00.828-.348c.24-.117.415-.24.487-.47a.498.498 0 00-.23-.569.666.666 0 00-.299-.071.94.94 0 00-.244.032c-.14.033-.273.068-.41.108a8.668 8.668 0 01-1.103.256c-.847.108-1.503.152-2.123.152l-.23.004h-.468c-.448 0-.978-.007-1.504-.058a5.41 5.41 0 01-.96-.247.458.458 0 00-.173-.033.676.676 0 00-.616.477.655.655 0 00.065.494c.08.136.197.227.383.292a6.332 6.332 0 001.71.39l-.025.12a2.962 2.962 0 01-.147.545 3.99 3.99 0 01-.324.52c-.136.153-.283.29-.442.419-.172.12-.344.223-.525.315a3.997 3.997 0 01-.666.194 3.583 3.583 0 01-.695.007 3.15 3.15 0 01-.52-.14 6.296 6.296 0 01-1.055-.636 4.733 4.733 0 01-.419-.377 7.22 7.22 0 01-.418-.474 6.532 6.532 0 01-.5-.766 12.308 12.308 0 01-.448-.903 19.09 19.09 0 01-.222-.551 5.68 5.68 0 01-.148-.494l-.053-.181a13.691 13.691 0 01-.289-1.41 7.487 7.487 0 01-.016-1.295l.062-.208c.075-.237.146-.471.204-.708l.068-.273c.05-.207.098-.412.16-.613l.042-.136c.026-.088.052-.176.084-.264.055-.149.114-.298.176-.448.136-.334.272-.671.412-1.003l.24-.581h.004v.003-.006zM40.55.442h-.085c-.36 0-.723.032-1.08.065l-.218.015a72.98 72.98 0 00-2.522.254c-1.692.214-3.325.52-4.851.913-.643.162-1.335.37-2.17.652l-.213.072c-.546.178-1 .334-1.442.519l-1.864.779-.467.189c-.347.14-.695.279-1.026.44l-.607.29-.13.058c-.73.354-1.46.705-2.188 1.082l-1.87.964c-.29.146-.572.315-.848.484l-.34.207c-.323.186-.64.37-.953.559l-.133.075c-.13.074-.21.116-.282.168l-.825.559-.824.562c-.702.474-1.38.976-2.13 1.542l-.665.493c-.647.477-1.283.971-1.92 1.465l-.487.376c-.86.665-1.72 1.42-2.412 2.023l-.393.34c-.753.66-1.451 1.358-2.328 2.27l-.435.458c-.415.442-.834.883-1.272 1.305a26.238 26.238 0 01-1.812 1.578c-.126.088-.256.175-.387.26l-.103.071c-.098.062-.188.127-.283.192a5.78 5.78 0 00-.445.341c-.262.22-.38.522-.48.789-.094.24-.065.695 0 .915.032.11.071.215.117.318.227.542.441 1.124.702 1.887.223.656.448 1.312.649 1.97.207.682.366 1.345.49 2.017.1.961.097 1.987-.013 3.048-.087.468-.218 1.085-.442 1.67a15.763 15.763 0 01-.88 1.72l-.136.22-.133.225c-.146.247-.254.5-.338.718-.078.197-.088.473-.032.723.048.192.165.442.312.562.142.114.285.221.474.309.113.055.236.1.354.143.798.357 1.531.798 2.24 1.224l.262.159c.276.168.552.33.845.47.286.136.597.235.896.328l.168.049c.19.059.374.104.569.134-.017.09-.013.2-.01.311.007.217.023.435.039.653-.104.506-.198 1.015-.293 1.526l-.177.96c-.319 1.67-.63 3.468-.75 5.303l-.017.253-.016.253a8.56 8.56 0 00-.049.409l-.045.4-.023.24a29.805 29.805 0 00-.15 1.88l-.032.59a102.637 102.637 0 00-.16 3.331c-.012.475-.018.959-.025 1.432-.007.438.01.822.029 1.208l.02.439c.039.912.126 1.843.22 2.795l.013.15.014.123.012.114c.264 2.59.624 4.665 1.134 6.528.113.404.24.8.373 1.196.078.227.169.448.26.668l.039.098.165.402c.36.9.73 1.789 1.11 2.68.024-.053.017-.102 0-.154.303.88.757 1.935 1.206 2.838a33.098 33.098 0 001.555 2.795c.649 1.071 1.324 1.974 2.064 2.764.556.584 1.179 1.12 1.73 1.594l.072.061.556.48c1.078.932 1.912 1.566 2.704 2.059.757.481 1.552.834 2.322 1.175l.5.228.411.19.098.047c.906.419 1.724.792 2.555 1.11.192.082.387.153.581.221l.137.048.165.06.095.032.539.194c.432.162.866.325 1.311.458 1.104.331 2.257.39 3.439.422.52.016 1.035.026 1.551.033l.14.003a8.418 8.418 0 003.483-.715c.621-.253 1.157-.59 1.601-.889.699-.461 1.368-.984 2.01-1.49l.163-.127.539-.425.253-.198c.34-.267.685-.536 1.007-.829a24.85 24.85 0 001.097-1.1l.15-.162.054-.065c.39-.422.757-.821 1.072-1.237.172-.23.337-.464.506-.698l.185-.263.137-.198.09-.133 1.01-1.412.354-.507.562-.792c.448-.634.867-1.322 1.257-1.975l.405-.669c.426-.688.777-1.269 1.094-1.902.192-.383.357-.779.516-1.179.196-.46.26-.89.312-1.291 0-.208-.052-.407-.159-.588a1.162 1.162 0 00-.701-.54 1.133 1.133 0 00-.309-.048c-.392 0-.763.214-1.013.585l-.087.126a5.137 5.137 0 00-.458.747l-.065.127-.136.256a18.82 18.82 0 01-.698 1.214 93.803 93.803 0 01-1.016 1.597l-.218.335-.39.604c-.11.172-.223.344-.34.516.054-.133.045-.276.032-.435-.068-.77-.162-1.679-.364-2.604l-.13-.597c-.104-.49-.302-.961-.494-1.416a11.656 11.656 0 00-.768-1.467l-.143-.241a39.48 39.48 0 00-.552-.908c-.36-.585-.809-1.066-1.24-1.5a19.328 19.328 0 00-1.296-1.157l-.305-.26c-.215-.181-.436-.36-.653-.538l-.22-.175c-.28-.225-.57-.442-.861-.65-.516-.373-1.12-.65-1.584-.844a14.87 14.87 0 00-2.877-.935c-.776-.16-1.575-.202-2.107-.218a.996.996 0 00-.325.05.766.766 0 00-.405-.25.95.95 0 00-.274-.046c-.445 0-.834.301-.996.763-.114.328-.227.652-.345.98-.152.416-.23.77-.236 1.088l-.166.003-.175.013.045-.068c.123-.107.198-.296.22-.569a2.292 2.292 0 00-.363-1.273c-.006-.19-.142-.425-.38-.476a6.208 6.208 0 00-1.224-.143c-.172 0-.347.01-.522.032-.478.065-.926.218-1.462.406-.184.065-.363.13-.542.199l-.107.041-.081.03a1.744 1.744 0 00-.244.1c-.14.059-.27.137-.395.214a25.624 25.624 0 00-2.306 1.643A6.704 6.704 0 0018.728 69a13.55 13.55 0 00-.766 1.211c-.282.49-.45 1.007-.57 1.383l-.063.185-.087.28c-.156.448-.319.889-.48 1.33-.309.855-.465 1.806-.592 2.572l-.019.124c-.052.315-.11.63-.17.94l-.032.18-.035.217-.033.186c-.061.353-.12.704-.169 1.068-.126.918-.21 1.694-.21 2.486 0 .384.003.763.013 1.147l.006.266.01.266c-.085-.143-.214-.266-.345-.393l-.376-.364a10.22 10.22 0 01-.85-.983c-.852-1.15-1.663-2.497-2.485-4.13-.63-1.257-1.19-2.572-1.733-3.84l-.078-.18-.127-.305-.205-.522-.08-.202a64.874 64.874 0 01-.364-.899c-.11-.286-.198-.58-.286-.877l-.038-.14a20.82 20.82 0 01-.286-1.038c-.302-1.24-.542-2.542-.763-4.091-.228-1.896-.442-3.923-.458-5.903a47.847 47.847 0 01-.24-2.146c-.026-.435-.05-.87-.062-1.305-.023-.89-.007-1.757.048-2.575l.033-.444c.035-.546.071-1.088.123-1.63.059-.634.123-1.27.195-1.9.15-1.04.322-2.071.497-3.107.107-.65.218-1.295.318-1.948a117.2 117.2 0 01.7-3.997c.047-.227.096-.451.147-.679l.046-.207c.627-.239 1.28-.451 1.874-.636.251-.137.53-.234.801-.332.663-.24 1.351-.376 2.036-.525a11.04 11.04 0 012.373-.244c.734 0 1.471.062 2.208.162.536.075 1.08.147 1.6.299.277.08.514.195.737.335-.027-.035-.054-.073-.083-.108l.107.059.094.035c.11.046.233.065.38.065a.626.626 0 00.279-.061c.1.045.194.078.305.081a.706.706 0 00.334-.088c.013.107.03.221.046.337.1.796.191 1.572.247 2.358.042.688.039 1.418-.014 2.305l-.068 1.185a113.44 113.44 0 01-.237 3.559 26.504 26.504 0 01-.542 2.613c-.107.439-.22.887-.295 1.341-.123.75-.25 1.503-.384 2.253a32.954 32.954 0 00-.262 1.987l-.03.26c-.035.237-.07.47-.11.704-.065.387-.126.77-.172 1.157a5.474 5.474 0 00-.03.85c.02.364.102.672.257.994.081.159.182.288.293.425l.051.068c.066.085.136.156.214.224.069.224.163.387.3.523.184.146.298.237.434.302.955.477 2.05.542 2.997.542.27 0 .54-.003.805-.01l.107-.003.595-.013.594-.013c.373-.006.76-.059 1.097-.103l.133-.014.085-.013.194-.026c.237-.068.433-.178.598-.337.244-.247.38-.585.38-.923 0-.484-.295-.957-.734-1.175-.169-.334-.494-.555-.818-.555l-.867.078-.795.071c-.319.03-.637.055-.955.078-.182.016-.364.02-.549.02-.39 0-.802-.026-1.298-.084-.053-.007-.1-.017-.15-.027l.085-.834c.016-.188.036-.377.055-.562.162-.561.282-1.127.399-1.672.234-1.081.377-2.197.513-3.276l.084-.679.101-.662c.175-1.116.35-2.272.422-3.425.04-.571.017-1.162-.006-1.73-.03-.764-.055-1.455-.078-2.144-.013-.402-.03-.802-.045-1.2l-.023-.601c-.023-.63-.091-1.27-.156-1.883l-.026-.231c-.114-1.1-.29-2.214-.461-3.292-.065-.42-.133-.835-.195-1.25-.039-.266-.282-.52-.493-.643a1.052 1.052 0 00-.5-.15l-.13.111-.205.159-.146.107-.107.088-.004-.007a3.693 3.693 0 00-.405.387l-.055.198c-.014.065-.026.133-.043.2l-.019.082.094.455.062.419c-.03-.033-.075-.053-.117-.072a10.39 10.39 0 00-.439-.185 8.67 8.67 0 00-1.269-.416c-.795-.194-1.689-.298-2.727-.321-.182-.003-.367-.003-.55-.003-.781 0-1.473.033-2.122.098-.49.051-.977.116-1.464.184-.455.065-.9.172-1.329.28-.272.067-.542.149-.81.23l-.19.059c-.298.087-.59.197-.879.311a7.996 7.996 0 00-.686.295c.104-.49.192-.944.286-1.399.036-.175.072-.35.11-.526l.056-.262.54-.179c.3-.1.606-.204.908-.3.75-.223 1.743-.499 2.776-.648.708-.091 1.253-.156 1.828-.16l.321-.002a13.108 13.108 0 011.455.075c.616.087 1.113.21 1.558.386.3.136.61.308.952.528a.311.311 0 00.178.053c.13 0 .253-.072.318-.182a.363.363 0 00-.13-.49l-.078-.052a.413.413 0 00-.116-.35c-.065-.089-.124-.17-.186-.244a2.364 2.364 0 00-.44-.371l-.115-.08-.116-.079c-.092-.058-.195-.1-.296-.143-.188-.078-.334-.123-.48-.169l-.183-.058a12.185 12.185 0 00-1.207-.315c-.201-.045-.412-.068-.617-.091l-.085-.01c-.2-.023-.405-.028-.61-.035-.165 0-.286.01-.405.016l-.231.01a6.32 6.32 0 00-.66.042l-.08.013c-.205.03-.41.059-.611.107-.181.046-.36.098-.539.153l-.153.045-.152.042a7.786 7.786 0 00-.396.117c-.215.075-.428.15-.64.23a12.1 12.1 0 01-.474.172c-.266.095-.529.192-.785.306l-.147.062c-.123.055-.25.11-.37.175-.088.045-.175.09-.26.14l.066-.231.055-.24c.185-.85.376-1.698.58-2.545.134-.549.31-1.095.481-1.624a27.05 27.05 0 00.734-2.62c.124-.559.26-1.113.412-1.666.082-.298.166-.594.25-.89l.227-.808.027-.1c.068-.253.14-.507.23-.754.09-.24.186-.48.283-.72.058-.03.12-.062.182-.098l.363-.2c.218-.121.432-.238.646-.361l.338-.195c.088-.049.14-.075.188-.107l.075-.046.071-.049.28-.12a61.317 61.317 0 012.512-.837l.228-.069c.276-.081.555-.162.838-.24l.457-.126c.315-.092.63-.179.948-.254l.208-.045a61.082 61.082 0 012.335-.484 87.037 87.037 0 012.597-.412 99.401 99.401 0 012.958-.273 58.426 58.426 0 012.912-.153l.094-.002c.338-.014.676-.02 1.016-.02.52 0 1.046.013 1.569.025l.256.01.238.007c.869.022 1.74.087 2.584.191 1.152.182 2.272.445 3.51.74 1.327.328 2.457.676 3.457 1.059.847.4 1.549.766 2.227 1.247.17.153.332.311.481.483.036.053.072.114.107.192.27.828.4 1.737.517 2.536.08.656.145 1.215.188 1.776.025.386.039.773.052 1.162.006.244.012.48.026.714.061 1.286.143 2.572.233 3.855.04.565.072 1.126.1 1.69.037.67.076 1.342.131 2.01.084 1.007.234 2.033.363 2.939l.147 1.036.065.497.078.568.019.159.016.133c.127.977.244 1.896.406 2.792l-.159.003c.013.575.01 1.049-.013 1.504.182-.014.34-.043.503-.075.172.857.419 1.783.724 2.747.208.636.449 1.237.715 1.785.11.218.23.436.363.64.464.72 1.124 1.136 1.808 1.136.695-.022 1.225-.428 1.734-.817l.12-.092c.12-.09.173-.13.228-.169l.188-.136.072-.049c.324-.23.626-.448.954-.626.082-.042.162-.085.244-.124a4.29 4.29 0 01.691-.204c.085.039.104.061.126.085l.118.165.029.104.049.155c-.196.73-.186 1.354.032 1.897.065.23.181.431.357.617.263 2.14.282 4.198.052 6.12-.104.646-.247 1.405-.523 2.127a6.97 6.97 0 01-.526.889c-.292.344-.63.67-1.035.99a9.476 9.476 0 01-1.325.831c-.11.013-.15.013-.191.013l-.082-.113a1.013 1.013 0 00-.795-.36 1.139 1.139 0 00-1.126.87c-.072.298-.027.59.13.824.11.18.226.367.366.529.059.068.263.3.448.383.246.114.425.192.636.244.176.049.393.075.663.075.678-.016 1.289-.286 1.798-.546a9.835 9.835 0 002.257-1.555c.211-.192.387-.422.565-.659l.094-.12c.39-.526.633-1.147.838-1.738.194-.548.266-1.155.324-1.733l.033-.246c.059-.523.09-1.075.1-1.731a31.81 31.81 0 00-.159-3.708 43.278 43.278 0 00-.23-1.912.982.982 0 00.075-.465.3.3 0 01-.013-.09c.029-.157.074-.302.12-.445l.035-.117c.027-.079.052-.156.072-.234.068-.253.123-.506.175-.76.13-.691.253-1.367.3-2.062.06-1.029.04-2.045.022-3.029l-.007-.454-.007-.266a57.226 57.226 0 00-.071-2.357l.039-.101c.136-.354.276-.715.396-1.075l.16-.461.041-.12c.123-.357.247-.714.351-1.072l.12-.409.403-1.376c.097-.325.169-.656.244-.984l.022-.104.11-.5c.24-1.016.43-2.088.56-3.188l.05-.445a19.7 19.7 0 00.124-1.163l.033-.526.036-.532.015-.214a8.05 8.05 0 00.03-.51l.01-.948.013-.95a20.118 20.118 0 00-.068-1.68c-.06-.9-.17-1.763-.329-2.565-.143-.74-.366-1.468-.584-2.172l-.126-.396c-.13-.422-.286-.838-.442-1.25l-.091-.237c-.5-1.33-1.1-2.87-1.874-4.276-.603-1.098-1.357-2.08-2.016-2.9l-.266-.324a31.558 31.558 0 00-.743-.899l-.231-.267c-.65-.746-1.322-1.523-2.029-2.246a39.817 39.817 0 00-1.296-1.273c-.38-.357-.799-.675-1.23-.997l-.198-.15a42.583 42.583 0 00-2.721-1.873 15.292 15.292 0 00-3-1.519l-.272-.104c-.199-.075-.4-.15-.601-.218C45.154 1 44.469.828 43.553.665c-.808-.136-1.422-.2-1.99-.21a85.03 85.03 0 00-1.01-.013h-.003z" fill="#161616" mask="url(#b)"/></g><path d="M239.836 163.352c-.269.112-.542.223-.82.321-.61.354-1.264.687-1.949.851a14.36 14.36 0 01-2.277.383c-.653.054-1.303.088-1.956.09-.115.149-.147.294-.114.424.029.11.103.203.219.273.1.07.167.101.234.13.067.017.133.032.2.046.128.034.26.06.393.07.138.007.28.002.421-.008.29-.013.505-.033.717-.055.39-.043.81-.117 1.278-.225.196-.046.39-.097.589-.146l.168-.022c.185-.023.373-.046.558-.08l.726-.147.137-.028a6.5 6.5 0 001.337-.489c.193-.088.385-.176.576-.273.227-.115.423-.218.57-.374a.598.598 0 00.13-.204.668.668 0 00.094-.112.379.379 0 00.025-.369c-.084-.16-.269-.194-.37-.2-.242-.024-.485.018-.722.062-.053.03-.107.055-.164.082m11.854 28.117c-.515.278-.723.95-.437 1.467.362.657.93 1.211 1.561 1.612.238.148.555.252.829.326.27.074.547.106.826.142.364.045.744-.012 1.105-.046.212-.022.42-.06.625-.11a5.819 5.819 0 001.471-.583c.751-.427 1.292-1.175 1.659-1.94.089-.177.182-.361.228-.555.027-.113.06-.26.054-.385-.018-.44-.165-.716-.509-.98-.284-.217-.783-.215-1.08-.017-.305.202-.43.41-.561.696a5.12 5.12 0 01-.452.726c-.135.146-.28.28-.434.405-.16.096-.33.173-.503.243-.31.106-.62.178-.943.223a4.752 4.752 0 01-.78-.025 4.887 4.887 0 01-.498-.138 3.676 3.676 0 01-.387-.252 3.301 3.301 0 01-.201-.204 4.474 4.474 0 01-.102-.168 1.1 1.1 0 00-1.203-.539 1.05 1.05 0 00-.267.102" fill="#161616"/><path d="M256.252 192.17l-.058.043a4.1 4.1 0 01.058-.043m1.73-2.296c-.188.12-.21.159-.349.334-.08.099-.12.225-.167.343-.047.113-.09.228-.137.342-.11.226-.237.445-.389.647a4.676 4.676 0 01-.633.588 3.7 3.7 0 01-.593.315 2.936 2.936 0 01-.448.106 6.083 6.083 0 01-1.089-.024 2.808 2.808 0 01-.402-.116 3.455 3.455 0 01-.266-.163c-.115-.184-.215-.377-.318-.569a.86.86 0 00-1.16-.345.863.863 0 00-.344 1.16c.091.168.184.336.28.508.044.076.092.155.145.226.129.18.189.236.36.373.11.091.231.167.352.242.377.233.827.349 1.267.394.383.038.766.01 1.146-.035.147-.013.293-.04.437-.067a4.53 4.53 0 00.842-.291c.368-.155.69-.392 1.006-.626.219-.164.424-.357.603-.562.194-.228.395-.468.548-.726a6.762 6.762 0 00.291-.547l.097-.2c.168-.178.282-.478.197-.718-.033-.09-.057-.177-.097-.264-.112-.24-.434-.453-.704-.438a1.49 1.49 0 00-.273.031.643.643 0 00-.201.082m-24.421-31.064c-.044.036-.09.073-.13.113a.649.649 0 00-.46.273 2.046 2.046 0 00-.28.536 14.443 14.443 0 013.135-.946l-.093-.065a1.693 1.693 0 00-.561-.24 2.209 2.209 0 00-.841-.019c-.04.006-.081.012-.118.02-.24.056-.459.166-.652.328m16.795-5.096c-.142.053-.26.117-.384.2-.297.2-.458.37-.68.65-.22.277-.35.587-.494.906a1.643 1.643 0 00-.091.254c.11-.05.223-.099.336-.147.996-.417 2.008-.843 3.054-1.135.246-.07.492-.133.739-.19l.135-.03a8.952 8.952 0 00-.343-.266 2.231 2.231 0 00-.858-.378c-.216-.044-.37-.075-.577-.06a2.312 2.312 0 00-.408.05c-.13.03-.252.076-.43.146m-.654 7.084c.498.435 1.149.598 1.799.632.287.016.591-.01.873-.072a2.01 2.01 0 00.478-.198 2.81 2.81 0 00.529-.405 2.8 2.8 0 00.563-.753l-.115.014c-.41.084-.824.15-1.244.19-1.105.108-2.212.134-3.317.21.14.133.296.26.434.382" fill="#161616"/><path d="M250.656 153.507a4.316 4.316 0 00-.688.3c-.137.084-.267.184-.395.28a4.51 4.51 0 00-.424.342 9.443 9.443 0 00-.415.408c-.21.222-.414.479-.56.75-.09.16-.161.325-.217.497.354-.184.716-.352 1.087-.509.997-.416 2.008-.843 3.053-1.134.247-.07.494-.13.74-.187a14.56 14.56 0 011.322-.245 2.067 2.067 0 00-.076-.09c-.237-.262-.538-.395-.855-.529a1.928 1.928 0 00-.861-.148c-.154.01-.307.025-.46.04a6.57 6.57 0 00-.904.128 3.274 3.274 0 00-.347.097m-1.211 7.27c.003 0 .007.002.01.004l.038.032-.048-.036m-.078-.062c.182.152.345.267.581.353a.911.911 0 00.192.052c.36.153.724.249 1.117.305.328.05.657-.012.982-.06.277-.044.587-.086.837-.213a4.09 4.09 0 001.148-.875 3.08 3.08 0 00.281-.347c-.235.033-.472.064-.708.091-.4.083-.803.147-1.212.185-1.193.115-2.394.139-3.593.226.12.102.25.189.375.283m-15.266-2.574c-.248.08-.492.177-.72.306-.226.13-.434.284-.642.435-.093.072-.184.14-.274.214-.21.174-.39.419-.539.65a3.7 3.7 0 00-.257.477c.34-.173.685-.332 1.03-.495a11.045 11.045 0 012.253-.77 16.05 16.05 0 012.078-.329 3.691 3.691 0 00-.397-.286c-.329-.214-.737-.307-1.118-.355a3.175 3.175 0 00-1.414.153m-1.285 7.221c.516.26 1.132.459 1.673.117a.502.502 0 00.058-.04c.25.062.507.09.76.091a2.2 2.2 0 00.857-.171c.15-.058.287-.126.426-.202.123-.065.233-.15.344-.23.168-.124.297-.287.421-.453a.687.687 0 00.03-.039 4.382 4.382 0 01-.317.089c-.755.184-1.503.32-2.278.382-.723.06-1.44.097-2.165.09-.118-.003-.237-.004-.356-.006.163.15.35.276.547.372" fill="#161616"/><path d="M231.633 164.985c-.136.035-.301.157-.331.3-.019.078-.045.163-.017.244l.053.141c.033.089.14.16.226.187.058.02.118.023.18.012.047.032.096.061.143.09.206.126.454.132.686.155.218.02.426.042.644.035.419-.007.845-.052 1.26-.1.827-.099 1.64-.26 2.455-.424.41-.082.82-.203 1.212-.337.21-.072.419-.146.627-.228.196-.076.382-.161.576-.246.25-.115.523-.231.608-.527.082-.296-.069-.63-.376-.717a.652.652 0 00-.38-.004c-.662.39-1.378.777-2.132.958l-.21.049a20.235 20.235 0 01-.683.17l-.007-.005a.259.259 0 00-.027-.014c-.445.082-.893.145-1.35.182-.723.06-1.44.096-2.165.09-.194-.005-.392-.006-.586-.012a4.47 4.47 0 01-.323-.018l-.036.008-.047.011zm20.513-4.66c.08.077.156.157.24.23.125.112.245.184.4.245.305.113.65.12.97.093.16-.014.304-.028.454-.071.144-.04.283-.103.423-.159.263-.103.496-.261.717-.431.095-.076.17-.17.247-.26a3.05 3.05 0 00.206-.276c-.41.09-.823.161-1.235.223a32.04 32.04 0 01-2.57.262c.049.049.099.098.148.144" fill="#161616"/><path d="M253.378 159.34l.026.013c-.009-.003-.018-.008-.026-.012m-.11-.076l.035.03-.036-.03m.655-.277c-.005.007-.01.015-.016.021a2.34 2.34 0 01-.071.088l.087-.109m-.719-.551l-.023.017.023-.017m.671-.216a.3.3 0 01.023 0c.037.01.073.022.108.034.033.02.067.04.1.062.014.013.027.028.04.042.023.04.044.08.064.121l.006.021a1.284 1.284 0 01-.028.08 2.78 2.78 0 01-.25.39 2.337 2.337 0 01-.212.211c-.058.038-.119.07-.181.1a1.602 1.602 0 01-.138.03h-.044a3.665 3.665 0 01-.091-.196 2.934 2.934 0 01-.132-.51c0-.04.002-.078.004-.117l.002-.002a2.59 2.59 0 01.324-.164 2.76 2.76 0 01.405-.102m-.73-2.78c-.223.058-.437.155-.65.244a3.39 3.39 0 00-.648.323c-.345.239-.659.512-.863.882-.385.685-.394 1.497-.126 2.225.159.43.352.835.69 1.157.154.148.357.247.54.351.17.098.344.188.515.281a.588.588 0 00.29.07c.11.06.225.105.348.136.141.034.286.055.427.075.227.031.489-.006.714-.041.4-.07.795-.167 1.18-.283.368-.111.703-.292.978-.56.201-.195.341-.454.449-.712.11-.272.157-.557.146-.85a3.041 3.041 0 00-.136-.752 4.16 4.16 0 00-.586-1.208c-.24-.334-.506-.676-.822-.946-.22-.192-.46-.363-.753-.436a2.848 2.848 0 00-.573-.084 3.803 3.803 0 00-.99.096c-.043.01-.087.02-.13.032m-18.367 8.639c.022-.003.045-.004.068-.006a.46.46 0 01-.07.006h.002zm-.005 0zm-.032.006zm.155-.053a.517.517 0 01-.068.027l.068-.027zm-.277-.02l.02.017-.02-.017zm.554-.184a3.179 3.179 0 01-.1.07l.1-.07zm.182-.815l.015.023-.015-.023zm-.163-.112l.053.025a1.76 1.76 0 01-.053-.025zm.038-.01zm-.397.003c.096-.003.19 0 .288.008.057.013.112.027.168.047l.023.013.01.011c.032.053.061.104.088.16.021.066.037.132.048.2v.031a1.842 1.842 0 01-.04.122 2.297 2.297 0 01-.118.186 2.157 2.157 0 01-.237.233 2.497 2.497 0 01-.268.164.75.75 0 01-.042.01c-.012 0-.024 0-.036-.003-.003 0-.007 0-.01-.002a.566.566 0 01-.037-.023 1.015 1.015 0 01-.125-.132.244.244 0 00-.172-.083 4.377 4.377 0 01-.082-.173 2.808 2.808 0 01-.103-.446 1.421 1.421 0 010-.092c.105-.061.214-.112.326-.157a2.87 2.87 0 01.32-.074zm-1.033-2.315c-.294.155-.574.33-.826.55-.214.187-.39.421-.564.645-.06.073-.116.15-.169.225-.152.209-.234.5-.261.757-.055.542.11 1.057.307 1.558.103.28.283.522.462.76.165.212.408.33.649.433.204.09.412.168.62.25.23.09.483.026.672-.12.128.031.26.05.384.06.249.023.509-.021.756-.061.257-.04.517-.156.751-.27.195-.095.366-.231.537-.358.077-.058.14-.128.204-.2.105-.121.21-.245.299-.379.228-.343.37-.732.379-1.144.007-.518-.157-1.01-.407-1.458-.202-.367-.444-.684-.78-.937a3.84 3.84 0 00-.507-.306 3.061 3.061 0 00-.753-.303 2.275 2.275 0 00-1.001.015c-.26.06-.511.159-.752.283z" fill="#161616"/><path d="M235.587 163.504v.001c-.001 0 0 0 0 0m.02-.024l-.02.023.02-.023m-.009-.042a.355.355 0 01-.01.051l.01-.05m-.018-.004l.001.005v-.005m-.79.04h.001l.003.01-.004-.01m.734-.193l.01.03a.348.348 0 01-.01-.03m-.746.157l.01.03a.433.433 0 01-.01-.03m-.032-.18l.002.033-.002-.033m-.411-1.262c-.193.178-.362.353-.485.586-.059.106-.098.225-.137.344a2.12 2.12 0 00-.042.166c-.023.089-.038.18-.053.273.007.13.015.256.045.386.033.125.082.25.145.363.044.076.1.15.161.213.097.1.208.158.333.213.138.064.296.08.447.09a1.69 1.69 0 00.746-.122c.434-.18.762-.606.832-1.07.052-.34-.036-.704-.293-.948-.178-.165-.45-.193-.636-.016a.448.448 0 00-.017.634c.039.042.077.086.112.131.02.037.039.073.055.112.013.044.024.088.034.133v.013l-.017.028-.03.027c-.013.007-.026.015-.04.021a1.717 1.717 0 01-.169.037 2.04 2.04 0 01-.246-.02 4.276 4.276 0 01-.252-.086c-.006-.003-.01-.005-.016-.01h-.001a.86.86 0 01-.043-.086l-.007-.028.01-.073c.018-.083.04-.163.066-.244l.044-.071c.065-.069.134-.134.204-.2a.544.544 0 00-.498-.928.564.564 0 00-.252.132m18.834-3.461l.004.047-.004-.047m-.317-1.169c-.188.154-.386.306-.534.503-.121.165-.161.354-.17.557a1.77 1.77 0 00.085.65c.102.296.305.552.593.69.094.044.18.087.282.11.132.037.27.041.404.017.099-.02.193-.061.283-.102.204-.097.307-.357.258-.573a.523.523 0 00-.446-.397c-.084-.027-.162-.066-.248-.096-.046-.014-.094-.028-.14-.044-.007-.01-.012-.022-.018-.033a1.57 1.57 0 01-.036-.173 1.343 1.343 0 010-.081.128.128 0 01.012-.018c.104-.112.218-.211.337-.31.201-.166.187-.5.02-.68a.461.461 0 00-.45-.133.59.59 0 00-.232.113" fill="#161616"/></g></svg>