<svg xmlns="http://www.w3.org/2000/svg" viewBox="0 0 496.8 597.6"><path d="M227,224.8c-9.5,23-7.3,13.6-14.3,36.6,1.9,46.8-.9,102.2-1.3,105.5,5.8,18.4,65.1,13.9,81.4,8.9,1.2-.3,9.6-4.3,8.4-6.1s-7.6-85.5-2.4-87.1c21.8-8.6-13.4-58.9-17.6-60.1-23.6,7.6-25.1,6.1-48.8,1" fill="#343d4c"/><path d="M226.3,224.6c-5.2,11.7-10.8,23.5-14.1,35.9.5,35.4.8,70.8-1.5,106.1-2.3,18.6,89,19,91.1,2.6-3.3-27.9-6.8-57.9-2.8-85.8h0c24-3.9-16.7-69.8-18-60.2-.6-.1-.3-1.3-.2-1.3-26.8,7.3-21.5,6.2-48.2.8-6.4,1.7,25.6,6,24.9,6.4s28.6-5.4,23.9-7.3l-.4,1.4a10.2,10.2,0,0,1,4.8,4.8c7.3,13,28,39,15.4,52.8-5.2,1-4.6,6.4-5.1,10.5-.9,23.3.7,46.5,2.9,69.7-.4,4.3,3.8,9.9-1.7,11.8-25.4,10-55.7,8.9-81.3-.4-8.2-1.1-1.1-23.9-2.7-30.9,2.5-28.5-2-58,2-86-.3-4,16-34.2,11-30.9Z"/><path d="M235.5,221.3c5,1,6.5,3.6,9,3.4,17-1.3,37.4-2.2,37.4-2.2-15.4,34.1-12.2,118.6-6.6,157-12.1,3.9-21,.1-33.6-.8,3.5-34.6,1.8-69.4-.8-103.9-1.1-17.2-3.1-35-10.4-50.5" fill="#fff"/><path d="M235.5,221.2c5,1,6.5,3.6,9,3.4,17-1.3,37.4-2.2,37.4-2.2-15.4,34.1-12.2,118.6-6.6,157-12.1,3.9-21,.1-33.6-.8,3.5-34.6,1.8-69.4-.8-103.9-1.1-17.2-3.1-35-10.4-50.5" fill="#343d4c" opacity="0.25" style="isolation:isolate"/><path d="M256.8,224.4c5.4,6.6,4.5,13-.5,19a251.9,251.9,0,0,1,2.2,40.7c-.6,37.4,19.8,29,11.9,66.3-17.9-20.2-22.7-46.2-16.7-72.2a161.9,161.9,0,0,0,.2-34.8c-1.7-6.9-1.8-13.6,2.3-19.5" fill="#004fa6"/><path d="M212.9,372.8c7.4,39.7,12,78.7,7.7,119.2,5.8-.7,13.4-1.2,19.3-1.9-2.5-29.4.3-67.9,16.8-90.3,11.7,15.7,8.2,39.7,9.9,59.4.3,6.2.2,12.4,1.4,18.4.7,1.1,6,1.5,7.1,1.9,3.5,3.3,11.3-53.6,12.3-54.1,3.4-17.4,6.8-35,7.5-52.9-32.2,6.2-48.2,8.6-81.3-.8" fill="#343d4c"/><path d="M212.8,286.3c.2,27.7,2.6,55.4-2,82.8,8.1,10,17.7,23.1,29.3,28.7,2.7-4.6,1.2-13,2.5-18.8l-.8.7c33.1,5.1,31.3-15.4,34.6,10.5,1.6,3.8,30.9-23.2,23.8-23.5-.5.2-.8.2-.2.4s.4.4.5.1c-4.4-31,.2-61.9,0-92.8-.1-1-1.6-1-1.5,0,1,20-2.6,40-2,60.1.9,5.5-.9,33.7,3.8,33.7,0,.1-.8-.6-.5-.6-6.3,8.4-14.2,16.3-23.3,21.7l.9.5c-2.8-24.1-4.6-11-22.1-11.1-21.3-.1-12.8-3.6-16.3,18.4l1-.7c-5.9-1.9-27.8-23.6-28-29.3,2.8-17,3-34.3,2.4-51.4-.3-10.3-.8-19.6-.6-29.4a.9.9,0,0,0-1-.5,1.2,1.2,0,0,0-.5.5Z"/><path d="M210.9,369.6c1.8,18.1,6.4,35.7,8.4,53.7,2.3,23.2.5,46.8.9,70.1.1,1,1.6,1,1.5,0,.5-40.5.8-87.9-10.8-123.8Z"/><path d="M239.7,490c-5.5-30.8,17.8-147.6,25.9-49.3.3,44.9,3.2,53.8,1.6,2.1C259.5,334.1,228.6,464,239.7,490Z"/><path d="M293,377.2c1.5,34.8-14.6,67-17.4,101.2l.7-.8c-2.1,1.1-12.3-1.3-10.5,1.7,3.5-.2,8.5,1.1,11.3-.9,1.1-14.1,4.6-27.8,8.2-41.5,5.4-20.5,9.7-39,9.2-59.7-.1-1-1.6-1-1.5,0Z"/><path d="M239.6,489.8c-5.5.9-15.9.1-19.5,4.1,2.6,1.4,6-2.2,9.1-1.6C229.4,491.9,243.6,492,239.6,489.8Z"/><path d="M229.6,224.4c28.4,23,9.8,18.2,27.1,3.4,17,19.8,10.4,7.5,25.2-4.5-.2-5.1-12.9,12.6-14,14.7h1.2c-4.3-1.9-12-16.2-14.9-10.1-2.6,2.8-6.8,6.8-7.5,11.8l1.2-.5c-2.4-1.7-18.4-19.5-18.3-14.7Z"/><path d="M278.1,390.3c-6.1-54.8-10.9-115.4,3.2-168.4C266.7,240.2,269.4,372.3,278.1,390.3Z"/><path d="M229.3,224c19.3,54.3,9,121.8,12.2,173.6h0C242,345.7,249.9,267.1,229.3,224Z"/><path d="M229.3,224.8c-.4,10.1-3.1,20.8-3.5,30.6.1-.1,4.6,1.2,4.7,1.2l-.5-.9c-10.4,15.8,14.6,25.7,8.4,66.5-.2,1,1.3,1.4,1.4.4,2.3-17.3-.3-36-8.9-51.5-4.6-5.6-2-9.2.5-15,.7-1.3-4.6-1.7-5.1-2.1l.5.9c.4-4.1,6.4-32.1,2.5-30.1Z"/><path d="M251.7,233c-1.8,12.8,12.8,9.9,9.8-1.6-.2-.9-1.7-.5-1.4.4,2.4,8.9-8.4,12-6.9,1.6a.9.9,0,0,0-.8-.8A.8.8,0,0,0,251.7,233Z"/><path d="M254.1,241.4c5.4,29.7-11.2,61.5,3,89.5,1.6,2.5,11.6,22,13,17.6C236,309.7,264.9,276.1,254.1,241.4Z"/><path d="M254.3,241.2c7.4,20.8-2,44.6,7.5,65.2,6,10.4,13.4,18.7,9.7,31.8-.7,2.4-.1,11.3-3.2,11.3-.7-.8-1.6.3-1,1.1,6.1,3.1,5.2-12.5,6-16.1,3.8-17-14.4-26.9-14.2-43.6C256.9,280.7,262.1,243.9,254.3,241.2Z"/><path d="M282.7,222.8c3.5,2.2,19.9-1.5,25.9-.6s12.9,101.4,8.9,104.9c-8.7,7.4-50.1-25.8-50.7-28.8-1.2-6.3,4.1-15,6.9-19.9s23.6,19.9,24.9,16.9" fill="#343d4c"/><path d="M282.3,223.4c7.8,2.7,17.7-1.7,26.2-.4h.1c9.4,32.7,10.3,69.4,8.4,103.6-16.9,2-37.2-17.8-49.5-28.4-.7-6.9,3.5-13.9,7-19.4,8.7,3.5,14.4,12.5,22.4,17.2,2.4,1.8,3.3-2.3,1.1-1s-5.2-4-6.5-4.7c-17.3-16.4-20.3-18.7-25.6,7.4,5.3,10,39,33.7,50.6,31.1,2.9-1.2,2.1-1.9,2.4-3.7,1.9-26.8-.9-53.9-3.8-80.6-3.3-33.3-7.3-19.6-32-22-1.7-1-1.6.8-.8,1.2Z"/><path d="M228,223.8c-1,1-21.3.8-32.7,2.4-7.5,5.2-5.4,84.7-5,110.9,1.9,2.7,8.4-3.8,12.1-4.5,8.7-1.5,15.6-5.1,18.5-6.2.6-.3,33.1-23.1,27-23.1-.2,0-10.9-12-10.9-12.9-30.1,25.2-21.4,6.9-20.8-30.4" fill="#343d4c"/><path d="M227.5,223.3c-10.2.8-22.3.5-32.9,2.3-10.5,27.7-2.6,62.8-5.3,92-.1,13.2-5.3,29.1,13.1,15.7,8.3-1.9,17-4.4,23.7-9.8,3.6-3.5,27.2-17.4,22.2-20.9-3.5-3.7-7.8-8.7-10.6-12.3-1.1-2.3-12.1,9.9-16.1,10.3-13,7.4-2.5-33.8-4.6-40.7-3-3.7-1.5,21.2-2.7,24.1-4.3,27.9,8.5,20.1,23.2,6.8l-1.2-.5c.4,2,4.2,5.4,5.3,7.1s5.1,6.4,6.4,6.6-1.3,1.5-1.9,1.9c-9.1,7.9-18.6,16.3-29.6,21.4-7.5,3.4-16.5,4.1-22.8,9.5-2.8,1.6-2.9-.4-3.3-2,.4-23.1.7-46.5.7-69.7,2.8-39.8-7.6-39.5,34.8-40.2C229.2,225.2,229.3,222.1,227.5,223.3Z"/><path d="M281.1,224.2c2.7,6,6.8,11.3,9.6,17.4l.2-1-5.2,3.5c-1,3.3,2.8,7.3,5.1,9.6l-.2-.9a85.9,85.9,0,0,0-13.4,25.6h1.4c0,1.1.4-.8.5-1s-.3-1-.9-.9,1,2,1.3,1,.4-1.4-.1-1.8-3.3,3.8-1.4,3.6c4.1-8.5,7.8-18.2,14-25.9-1.1-2.9-4.8-5.2-5.1-8.9l-.4.7c.4-.6,6.4-3.3,5.6-4.4s-10.5-21.4-10.9-16.7Z"/><rect x="272.2" y="284.9" width="3" height="3.97" fill="none"/><path d="M239,291.3c.1,1.1,8.7-7.4,5.4-13.5.5-5.6,1.7-11.1,2.6-16.6,4.8-11.7,3.1,7.4,3.6,10.8,3.3,13.8,10,18.6-3.7,29.3-.5-2.9-6.8-7.2-7.9-10" fill="#f99a6b"/><path d="M238.3,291.1c1.7,3.3,7-5.1,7.2-7.4.2-8-.5-19.3,4.3-25.9h-.9c2.5,3.6.1,8.3.6,12.4,1,6.1,3.5,12.6,5.6,18.5.2,5.1-5.2,7.8-8.7,12.2l1.2.3c-1.1-4.4-6-5.9-7.9-10-.9-1.9-1.8-.4-1.4.4a25.1,25.1,0,0,0,3.8,4.8c2.2,1.3,3.4,4.4,4.9,5.7,12.5-10.3,10-12.2,5.5-26.1-2.7-3.2,1.2-28.3-5.9-16.1-1.2,6.1-3,12.9-2.8,19,1.6,4.5-1.1,9.1-4.6,11.7-.5.3-.4.1,0,.2a.7.7,0,0,1,.5.8c-.1.3-1.1-1.2-1.4-.4Z"/><path d="M261.3,282.9c-1.3-4.2-2.8-7.4-2.7-11.9-.3-1.8-5.1-7.6-1.8-7.6-1.4-2-6.8-8.8-1-8.1-.7-9.8,6.6.5,9.8,2.4,1.6-3.3-1.4-6.2-3.2-8.7,14.1,3.8,2.4,24.1,10.9,33.9-3.9,0-1.9,8.9-5.9,8.9" fill="#f99a6b"/><path d="M261.4,282.9c-.9-3.9-3-7.1-2.5-11.3,0-1.9-5.4-8.3-2-8.1-1.6-2.6-6.6-8.7-1-8.1-.6-9.9,6.4,1.1,9.7,2.5,1.8-3.3-1.5-6.2-3.1-8.7,13.7,5,2.2,24.3,10.6,34V283c-4.3.6-2.1,8.4-5.9,9.1,4.5-.4,1.6-8.2,5.9-8.9-2.1-4.6-4.5-9.7-3.4-15.2-.4-3.5,1.5-11.8-2-15.2-1.5-1.2-3.7-5.3-5.6-3.7s-.1.1,0,.2c1.7,2.3,4.8,5.3,3.2,8.5h.1c-3.2-2.2-10.9-12.3-9.9-2.3h.2c-5.9-1.1-.4,7.2,1.1,8.2-3.8-.7,1.9,6.8,1.8,8.7-.6,4,1.6,7.1,2.5,10.8C261.2,283.6,261.4,283,261.4,282.9Z"/><path d="M266.5,289.2c-1.3-5.4-5.6-9-6.9-14.4.5-5.2-1.2-6.8-3.5-11.2,3.3-.2,6.4,12.5,7.5,8.4-1.4-3.5-3.9-10.6-8.5-9.4-1.1.8.1,2.5.6,3.4a14,14,0,0,1,2.5,9.3c1.2,5.2,5.5,9.1,6.9,14.3.2.9,1.6.5,1.4-.4Z"/><path d="M258.4,262.5c-1.6-1.1-6.9-7.6-1.8-5.4,3.3,3.5,6.9,7.5,7.8,12.3,2.7,2,.7-3.7-.3-5.4l-3.7-5c-2.8-6-11.2-4.8-5.6,1.7C255.4,261.7,258.6,265.6,258.4,262.5Z"/><path d="M256.5,255c-2.5-8.1,7.8,2.6,9.1,4.2s.9,4.9,1.8,7.2c2.7,4.3.5-8-1.4-9.1a81.1,81.1,0,0,0-6.2-5.5C252.5,245.6,254.7,260.2,256.5,255Z"/><path d="M266.5,258.3c1.6-2.9-4.5-7.7-3.1-9.2,12.7,8.8,1.1,22.4,8.7,33.7l.6-1.1c-3.8.7-2.7,7.3-4.7,9-2-3.1-3.5-5.5-5.7-9.6-.4-.6-4.4-9.2-4-4.3,3.2,5.1,10,24.5,13.2,8.9.1-3.1,2.6-2.2,1.9-3.7-6.8-10.6,4.3-28.4-10.3-34.4-4.6,2.1,3.2,6.2,2.1,10.3-.2.9,1.2,1.3,1.4.4Z"/><path d="M219.6,492.5c-2.4,7.9-13.2,10.2-19.7,13.6-4.2,1.6-8,7-.8,7.4,17.7,3.2,16.7-7.4,28.9-12.5,9.4.7,15.6-.3,11.5-11-6.5-.1-13.8,1.8-20.2,3"/><path d="M266.1,479.4c1,3.3.6,10.7,5.3,10.4,13.7-.5,25.6,12.4,39.5,10.3,7.5-3.5-2.5-10-8.1-7.5-9,2.1-15.7-6.9-23.3-10.1-3.4-1.7,1-4.1-2.8-4a92.4,92.4,0,0,1-10.5-.6"/><path d="M237.2,216c.4,1.2,0,6.1-1.2,5.6,4.3,5.3,11.6,8.4,17.1,12.3,7-2.6,16.1-3.8,21.6-9.9-1.4-.3-4.9-9.7-5-9.4.6,2.8-8.6,8.6-13.9,5-1-1-11.4-.1-18.6-3.6" fill="#f99a6b"/><path d="M236.5,216.2c.4,1.5-.3,3.7-.3,4.7s-1.3.5-.9,1.1c3.6,5.1,10.1,6.9,14.6,10.9,2.5,2.7,5.4,1.6,7.9-.2,4.9-.7,17.6-4.3,17.1-9.5-2.6-2.2-2.6-8.1-5.6-9.3-4.1,11-23.3,3.4-31.7,1.4-4.7,3.1,16,4.6,17.7,4.9,4.9,3.1,14.6-.5,14.8-5-.7.2-1.3-.4-.7.4,1.6,2.9,2.2,7.1,5.1,9.1l-.3-1.3c-5.1,6.3-14,6.3-20.3,9.8-5.9-3.1-12.6-6.9-17.3-12l-.8,1.1c2.9,1.2,3.1-9.6.7-6.1Z"/><path d="M236.1,216.2c.5,6.7-9.2,7.1-14,7.9-3.2,3.8,14-1,14.6-3.8C238.2,219.3,237.7,212.9,236.1,216.2Z"/><path d="M269.2,214.7c-2.6,10.4,23,11.1,18.8,7.8-7,.2-17.6.5-17.7-8.7C269.7,213.4,268.8,214,269.2,214.7Z"/></svg>