<svg xmlns="http://www.w3.org/2000/svg" viewBox="0 0 500 600"><defs><style>.b{fill:#343d4c}.e{fill:#fc9b6b}</style></defs><path d="M218.6 496.1a14.6 14.6 0 01-4.7 6.3 28.1 28.1 0 01-5.1 2.9l-10 4.5a12 12 0 00-3.1 1.8 7 7 0 00-1.7 2.5 1.6 1.6 0 00-.3.8.9.9 0 00.3.7c.8 1.1 2.5 1.5 4 1.6a38.7 38.7 0 009 .1 17 17 0 005.5-1.3c2.9-1.3 4.8-3.9 6.8-6.2s4.4-4.7 7.7-5.1 6.5.8 9.3-.3a8.4 8.4 0 002.4-1.8 3.3 3.3 0 001.2-1.6 2.8 2.8 0 00-.1-1.8l-1-5.2a.8.8 0 00-.2-.4.8.8 0 00-.7-.2 70.5 70.5 0 00-12.1 1.7l-7.5 1.5m46.1-13.6a32.7 32.7 0 002.2 8.7 4.6 4.6 0 00.8 1.3 3.5 3.5 0 002.3.4c6.9-.3 13.4 2.9 19.8 5.8s13.1 5.7 20 4.6a3.5 3.5 0 001.6-.6 2.3 2.3 0 00.8-1.8c.3-2.4-1.6-4.5-3.8-5.2a13.8 13.8 0 00-6.7 0c-2.3.3-4.6.6-6.8-.3-5.5-2.2-11.3-7.3-16.7-9.9-3.4-1.6.9-4-2.8-4a76 76 0 01-10.7-.5" fill="#262626"/><path class="b" d="M228.6 224.2c-8.6 2.8-6.6 1.8-13.7 3-2.5.4-13.2-1.6-15 1s-8.7 22.1-7.3 30.2L183 296c-3.5-2.9-5.1 11.3-5.3 12.7a14.8 14.8 0 00.5 4.7 36.5 36.5 0 004.7 10.8c5.4 8.2 16 20 22 28 5.9-2.2 2.2-3 7-7 1.1-.8 3.9-4.1 3-3-3.6 4.9 1.3 3.4-1-1-4-8-14.2-28.3-14-35 .1-2.7 13.3-33.8 14-32 3 7 3 39 3 39 .1 28-1.8 34.1-7.2 57.3a6.4 6.4 0 00.3 3.9 3.8 3.8 0 002.2 1.6c26.4 10.6 54.8 8.5 81.8 2 1.8-.4 3.9-3.2 4.4-5.7a13.6 13.6 0 01.3-2.9 3.3 3.3 0 012.8-1.9c6.3-1.4 5.3-.7 11.4-3.3 1-.4 7.2-3.5 6-4-3.8-1.7-15.1-75.4-11-108 .4-2.6.5-21.1-1-23s-17.3-2.3-19-3c-6.2-2.7-6.2-1.7-6.6-1-1.7 3.1.3-3.1-1.4 0 .6-.9-23.8 6-23.8 6a61 61 0 01-25.3-5"/><path d="M237 222c5 2.8 6 6 6.1 6 10.7-5.2 25.6-2.3 37.5-3.8-3.5 6.2-4.6 18.1-5.6 25.8-1.7 13.1-3.2 24.7-3 38 .1 4.7-1.4 9.6-1.4 14.3s-.5 11-.6 16.5c-.4 20.6-.1 43.6 4 63.4-12.3 3.8-21.2.1-33.8-.8a469.6 469.6 0 002-47.4c-.2-19.2-1.5-38.2-2.8-57.2-.6-7.6-1.1-15.2-2.3-22.6a196 196 0 00-4.3-20.5c-1-4.2-2.6-9.1-5.9-9.6" fill="#d3e0e7"/><path d="M255.3 228a24.5 24.5 0 013.5 6.6c.7 2.5.7 5.6-.6 7.7s-2.9 2.7-3.4 4.9a9.7 9.7 0 00.4 4.1c2.5 11.9 1.6 24.5 1.9 36.9s4.3 25.4 10.8 34a18 18 0 013 5c1.7 3.6.2 8.8-.2 13s-1.1 9.8-1.7 14.6a94.5 94.5 0 01-15.1-25.5 53 53 0 01-3.5-11.3c-2.3-11.7.5-23.8 1.8-35.7a158.4 158.4 0 00.2-35.1 23.2 23.2 0 00-.6-3.8l-.6-2.8c-.8-4.7 1.5-9.2 3.6-13" fill="#004fa6"/><path class="b" d="M211.2 376.5c1.7 16.8 5.8 33.1 8 49.8 2.9 23.1.5 46.6-.3 70.1 5.9-.8 13.5-1.2 19.4-2a205.7 205.7 0 013.1-57.6c2.5-12.3 6.5-24.9 14.4-32.1.5-.4-1.1-1-.5-1.1s3.1 3.1 3.7 5.1c5.6 17.1 5.7 35.9 6.2 54.6.1 5.7.5 11.4 1 17.1a4.7 4.7 0 00.4 1.6 2.1 2.1 0 001.4.7l5.8 1.2a1.6 1.6 0 001.5-.2 4.4 4.4 0 00.7-1.7l10.2-52.7c3.4-17.5 6.8-35.1 7.5-53.2-5.6-.5-10.5 1.6-16 3.1s-13.2 2-19.7 2.4c-3 .1-5.9.7-8.9.7a52.9 52.9 0 01-12.4-1.7l-24.8-5.2"/><path class="e" d="M204.9 353.2c8-2.7-.3 10.4-2.7 17.7v.5a1 1 0 00.5.6c3 1.7 6.7-.7 8.8-4.3s1.6-7 2.4-11.4.1-6.3.7-10c.2-.9.7-2.5.2-3s.5-1.5-.1-.8c-3.6 4.4-6.2 6.4-9.8 10.7"/><path d="M205.1 353.9c.8-.2 2.2-.8 2.4.4s-.4 2.8-.8 3.9c-1.3 3.7-3.2 7.2-4.6 10.8-.6 1.6-1.2 3.2.9 4a6 6 0 005.6-1 12.4 12.4 0 004.3-5.5 24.7 24.7 0 001.3-7c.2-1.6.5-3.2.6-4.8a35.4 35.4 0 00.2-4.6 23.2 23.2 0 01.6-4.6 8.8 8.8 0 00.2-1.6c0-.1-.3-1.2-.4-1.1l-.8.2h.1l-.5-1.1a19.4 19.4 0 01-2.3 2.7l-2.5 2.6c-1.7 1.8-3.4 3.6-5 5.5s.5 1.8 1.1 1 3.4-3.8 5.2-5.7l2.5-2.7a11.8 11.8 0 002.3-2.7.8.8 0 00-.4-1.1h-.1a.7.7 0 00-.7.2 1.6 1.6 0 00-.3 1.6 2 2 0 01.2 1.3c-.1.6-.3 1.1-.4 1.7-.4 2.7-.2 5.5-.4 8.2s-.6 5.4-1 8a12.8 12.8 0 01-3.1 6.9 7.5 7.5 0 01-2.9 2.1c-.8.3-3.1.7-3.3-.4s.5-1.9.8-2.5l1.2-2.8c1.4-3.2 3.1-6.4 3.8-9.8.2-1.1.4-2.4-.5-3.3s-2.5-.6-3.7-.2-.5 1.7.4 1.4z"/><path class="e" d="M303.4 369.9a81.5 81.5 0 01-2.6 11.1c-1.2 3.9-2.7 8.2-1.7 12.3.3 1.3 1 2.5 2 2.7s9-9.7 9.9-14.4 1.2-17.6.9-17.4c-2.8 1.9-2.9 1.1-6 2-.7.2-2.9 1.8-3.1.7"/><path d="M303 369.8a82.2 82.2 0 01-2.8 11.9c-1.1 3.5-2.3 7.1-1.6 10.8.2 1.2 1.2 4.8 3.1 3.7a15.8 15.8 0 003.5-3.8c2.8-3.5 5.7-7.5 6.3-12a100.8 100.8 0 00.9-14.5 4.7 4.7 0 00-.1-1.7c-.3-.8-1.2.1-1.7.4a16.1 16.1 0 01-3.6 1l-3.8 1.2c-.1-.5-.9-.3-.7.2s3.1-.3 3.9-.5l2.9-.6 1.3-.4.8-.5c.4-.4.3-.1.2-.6a18.7 18.7 0 010 4.1c0 2.4-.2 4.7-.3 7a48.1 48.1 0 01-.8 6.5 21.6 21.6 0 01-2.8 5.7 59.8 59.8 0 01-4.2 5.7 12.9 12.9 0 01-1.6 1.7c-.8.7-1.3.6-1.9-.6-2.1-3.6-.3-8.5.8-12.2a122.6 122.6 0 003-12.3c0-.5-.7-.7-.8-.2zM238 220c-1.6 1.9-4.1 2.9-6.4 3.6a60.5 60.5 0 01-9.6 2 142 142 0 01-18.4 1.1c-1.1.1-2.7-.3-3.7.2s-1.5 2-1.9 3c-1.8 4.8-2.7 10.1-3.7 15.2-1.4 6.9-2.6 13.9-3.9 20.8s-2 11.1-3.5 16.5a54.9 54.9 0 01-4.4 11c-2.4 4.6-5.9 8.5-5.7 14.1s3.2 10.1 6 14.7c1.8 2.9 3.5 5.8 5.3 8.6 3.9 6.1 7.9 12.2 12.2 18 1 1.4 2 3.3 3.4 4.3s2.7-.6 3.6-1.3a19.9 19.9 0 004.4-4.3 32.8 32.8 0 013.3-4.3.7.7 0 00-1.1-1c-2.8 2.8-4.4 6.4-7.8 8.7-.4.2-1.4.6-1.6 1s.3.2.2.2l-.5-.6-1.8-2.2c-4.1-5.6-7.9-11.3-11.6-17.1l-5.1-8c-2.5-4.3-5.7-8.5-6.9-13.3a13.5 13.5 0 01.2-8.2 43.8 43.8 0 013.7-6.7 53.3 53.3 0 005.4-12.2 123.3 123.3 0 003.2-14.9c1.3-6.7 2.5-13.4 3.8-20.1a154.8 154.8 0 013.6-16.4 12.5 12.5 0 011.7-3.9c.3-.4 0-.3.3-.2h1.8c5.6-.1 11.2-.3 16.8-.9a81.3 81.3 0 009.7-1.5 29.8 29.8 0 007.7-2.9 7.4 7.4 0 002.3-2c.6-.7-.4-1.8-1-1z"/><path d="M213.7 273.5a36 36 0 01-2.2 5.4c-1.3 2.9-2.7 5.9-4.1 8.8-2.6 5.5-5.2 11-7.7 16.5-.4.9-1.1 2-.9 3a24.5 24.5 0 001.7 4.5c2.5 6 5.1 11.9 7.7 17.7l4.2 9.8c.8 1.9 1.7 3.8 2.3 5.7s1.8.5 1.5-.4c-1.5-4.4-3.6-8.7-5.5-12.9-2.6-6.1-5.3-12.2-7.9-18.2-.8-1.9-1.6-3.8-2.3-5.8a1.9 1.9 0 01-.2-.7c-.2-.3 0-.3-.1 0a5.6 5.6 0 01.4-1.2c2.4-5.2 4.9-10.4 7.4-15.6 1.5-3.4 3.1-6.7 4.6-10.1a65.7 65.7 0 002.6-6.1.8.8 0 00-1.5-.4z"/><path d="M214.7 266.7a483.1 483.1 0 01.7 64.8c-.6 10.4-1.6 21-4 31.2a60.6 60.6 0 01-1.6 6.1 8.1 8.1 0 00-.7 3.7 4.9 4.9 0 001.5 2.7c2.6 2.7 5 5.6 7.5 8.5s7.3 8 11.2 11.7a51.7 51.7 0 005.1 4.2 12 12 0 004.1 2 .7.7 0 00.9-.8c.6-6 1.1-12.1 1.7-18.1l-.8.7c2 0 4 .4 6 .5a77.4 77.4 0 0013.6-.5 36.8 36.8 0 007.3-1.7c1.4-.5 3-1.4 4.5-1.4a1.3 1.3 0 011.3 1.3c.2 1.3.4 2.6.7 3.9l1.4 8.5a.8.8 0 00.9.5c3.6-1.3 6.7-4.3 9.5-6.7s7.3-6.8 10.7-10.5a33.6 33.6 0 003.4-4.1c.4-.6 1.3-1.7.8-2.5a1.1 1.1 0 00-1.2-.4l-.7.3h-.1l.9.2c.2-.1-.1.3 0 .1s-.2-.7-.2-.9l-.3-1.7c-1.7-10.2-2.8-20.5-3.9-30.7-.6-5.8-1.1-11.6-1.4-17.4s-.3-10.4-.3-15.6c0-6.8.1-13.6.2-20.4 0-5.2.1-10.5.6-15.7a11.1 11.1 0 01.2-1.9c.2-.9-1.2-1.3-1.4-.4-.9 4-.7 8.4-.8 12.4-.2 6.6-.2 13.2-.2 19.8s-.2 11.4 0 17.1.5 10.5 1 15.8c1 11.1 2.3 22.1 3.9 33.1.2 1.7.5 3.3.7 4.9a15.5 15.5 0 00.5 2.3c.4.6.9.4 1.4.2h.1c.2-.1.1.1.1 0s-.7-.6-.5-.6-.4.8-.5 1a18.3 18.3 0 01-1.3 1.6 110 110 0 01-9.4 9.9c-3.3 3-6.6 6.2-10.4 8.5l-1.8.9 1 .5-1.3-7.7-.8-4.5a3 3 0 00-1.2-2.1 4.1 4.1 0 00-3.6-.1c-2 .6-4 1.5-6 2a50.4 50.4 0 01-9.4 1.2c-2.2.1-4.3.2-6.5.1s-5-.6-7.5-.6a.8.8 0 00-.7.8c-.6 6-1.1 12.1-1.7 18.1l1-.7c-3-.5-5.8-3.3-7.9-5.2a133.2 133.2 0 01-9.8-10.1c-2.8-3-5.5-6.2-8.2-9.2l-1.4-1.6c-1.2-1.3-1.2-2.5-.6-4.1s1.2-3.8 1.6-5.7c2.4-9.8 3.4-19.9 4.1-29.9s1-22.8.9-34.2-.6-22.3-1.4-33.4c-.1-.9-1.6-1-1.5 0z"/><path d="M274.1 223.1c5.1 2.2 10.9 2.9 16.3 3.8l8.8 1.4a39 39 0 015.9 1.4l.7.4c.1.1-.1-.1 0-.1s0 .4 0 .8.1 2.6.1 3.9c0 4.8-.1 9.6-.1 14.3-.1 13.4-.2 26.8.6 40.1.6 11.2 2.3 22.3 4 33.4 1 6.5 2 13.1 3.3 19.6s2.1 10.5 4 15.5a18.9 18.9 0 001.1 2.5l.3-1a60.1 60.1 0 01-10 5.4 34 34 0 01-10.5 1.8c-1 .1-1 1.6 0 1.5a33.8 33.8 0 0010.9-1.9 56.5 56.5 0 0010.3-5.5.8.8 0 00.3-1.1c-2.2-4.2-3.1-9.2-4.1-13.8-1.5-6.5-2.6-13-3.6-19.6-1.8-11.2-3.6-22.5-4.3-33.8-.9-13.4-.9-27-.8-40.5 0-5.1.1-10.2.1-15.4v-4.6a6.1 6.1 0 00-.3-2.3c-.6-1-2.5-1.3-3.6-1.6s-4.9-1-7.4-1.4c-6-1-12.1-1.7-18-3.3l-3.2-1.1c-.9-.4-1.7.9-.8 1.2zm-64.9 150.2c1.8 18.1 6.4 35.8 8.4 53.9 1.6 15.3 1.1 30.8 1 46.1-.1 8.2-.3 16.4-.1 24.6a.8.8 0 001.5 0c-.3-15.3.3-30.7.2-46-.1-7.3-.2-14.6-.9-21.8-.8-8.8-2.3-17.6-3.9-26.3s-3.7-20.3-4.7-30.5c-.1-1-1.6-1-1.5 0zm28.9 121.1c-.3-23-.7-46.5 6.1-68.7a76.9 76.9 0 015.9-14.6l1.8-3.3c.6-.9 1.7-2.5 2.9-2.5s2.1 1.8 2.7 2.8a19.6 19.6 0 011.6 3.6c1.9 5.1 2.7 10.5 3.4 15.9s1.3 11.4 1.7 17.1c.8 12.6.7 25.2.6 37.8-.1 1 1.4 1 1.4 0 .2-11.9.3-23.9-.4-35.8-.3-6-.9-12-1.6-17.9s-1.5-11.3-3.3-16.7c-1.1-3.1-4-11.1-8.4-7.3-1.9 1.6-3 4.1-4.1 6.3a58.3 58.3 0 00-3.2 7.2c-4.2 10.7-6.4 22.1-7.6 33.6-1.4 14.1-1.2 28.3-1 42.5a.8.8 0 001.5 0z"/><path d="M291.8 380.5a157.4 157.4 0 01-.8 19.4c-.7 6.2-1.9 12.3-3.2 18.5-2.8 13.8-6.9 27.3-9.9 41.1a166 166 0 00-3.6 23.3l.7-.8a93.3 93.3 0 01-10.6.2c-.9-.1-.9 1.4 0 1.5a93.3 93.3 0 0010.6-.2.8.8 0 00.8-.7c1-14.3 4.6-28.1 8.2-41.8s6.6-26 8.2-39.2a138.1 138.1 0 001-21.3c0-1-1.5-1-1.4 0zM238 494.1l-10.4 1a18.5 18.5 0 00-4.6.8c-1.3.5-2.6 1.4-4.1 1.4a.8.8 0 000 1.5 8.5 8.5 0 003.8-1.2 16.4 16.4 0 014.9-1l10.4-1c.9-.1.9-1.6 0-1.5zM228 226c6.5 5.9 11.5 13.2 17.4 19.7.4.6 1.2.1 1.2-.5.2-2.7 1.9-5.4 3.3-7.7l.9-1.1 2-2.7 1.2-1.5a10.6 10.6 0 001-1.2c.1-.1.4-.2 0-.2s0 .1.2.3l1.2 1.5c1.1 1.4 2.1 2.8 3.2 4.1a72.5 72.5 0 007 7.6c.4.3 1 .3 1.2-.1a83.5 83.5 0 0112.8-18.3c.6-.7-.4-1.8-1.1-1a88.1 88.1 0 00-13 18.5h1.2a72.5 72.5 0 01-7-7.6c-1.3-1.5-2.4-3.2-3.7-4.8s-1.4-1.8-2.3-1.5-1.5 1.4-2 2-2.6 3.2-3.8 4.9-3.6 5.8-3.8 8.9l1.3-.5c-5.9-6.5-10.8-13.8-17.4-19.7-.7-.7-1.7.4-1 1z"/><path d="M279.2 224.9a480.7 480.7 0 00-8.3 65.5 500.9 500.9 0 00.4 67.1c.9 12.4 2.2 24.7 4.1 37 .1.9 1.5.5 1.4-.4a489.6 489.6 0 01-5.3-66.2 498.4 498.4 0 013.4-65.8c1.4-12.3 3.3-24.6 5.7-36.8.2-.9-1.2-1.3-1.4-.4zm-51.4.8c7.8 20.4 9.9 42.5 11 64.2 1.1 23.6 1.4 47.3 1.2 70.9-.2 13.5-.6 27-1.5 40.6-.1.9 1.4.9 1.5 0 1.6-24.3 1.7-48.6 1.3-72.9-.3-22.7-.5-45.6-3.6-68.2-1.6-11.9-4.1-23.8-8.4-35-.4-.9-1.8-.5-1.5.4z"/><path d="M227.8 225.5c-1.1 10.7-2 21.4-4.1 31.9 0 .4.1.8.6.9l4.6 1.2-.5-.9-2.9 6.8a5.7 5.7 0 00.1 5.4c2.1 3.7 4.4 7.2 6.3 10.9a74.1 74.1 0 017.9 24.5 56 56 0 01-.1 15.3c-.1 1 1.3 1.4 1.5.4a63.3 63.3 0 00-1.9-25.6 91.5 91.5 0 00-10.2-22.8c-1.3-2-3.4-4.2-2.5-6.7s2.1-5.2 3.2-7.8c.2-.4-.2-.8-.5-.9l-4.6-1.2.5.9c2.1-10.7 3-21.5 4-32.3.1-1-1.4-1-1.4 0zm53.1.4c2.4 5.4 6.5 9.7 9 15.1l.2-1-5.3 3.5a.8.8 0 00-.4.9 17.2 17.2 0 005.6 8.8v-1.1a96.3 96.3 0 00-20.3 50.1 90.9 90.9 0 000 16.5c.1 1 1.6 1 1.5 0a93.1 93.1 0 0111.7-53.4 91.1 91.1 0 018.1-12.1c.2-.3.4-.8 0-1.1a15.9 15.9 0 01-5.1-8.1l-.4.8 5.4-3.5c.4-.2.4-.6.3-1-2.5-5.4-6.6-9.8-9.1-15.2-.3-.9-1.6-.1-1.2.8zm-30.7 10.9a7.2 7.2 0 00.4 5 5.7 5.7 0 003 3.3c3.1 1.4 5.5-1.7 6.3-4.3a10 10 0 00.2-5.7.8.8 0 00-1.5.4 8.2 8.2 0 01-1.5 7.4 2.4 2.4 0 01-2.5 1 4.1 4.1 0 01-2.5-2.3 6.1 6.1 0 01-.5-4.4.7.7 0 10-1.4-.4z"/><path d="M252.6 245.1c1.7 16 .5 32.1-1.5 48-1 7.8-2.3 15.5-1.3 23.3a58.9 58.9 0 005.9 18.8 138.3 138.3 0 0011.7 18.6c.5.7 1.8 0 1.3-.8-7.6-10.6-15.1-21.9-17.2-35.1-1.3-7.6-.2-15.3.8-22.9s1.9-15.4 2.3-23.2a170.1 170.1 0 00-.5-26.7c-.1-.9-1.6-.9-1.5 0z"/><path d="M252.7 244.9c5.2 14.2 2.3 29.7 3 44.4a59.9 59.9 0 004.7 21.3 38.7 38.7 0 005.3 9c2.2 3 4.5 5.7 5 9.5s-.1 9.1-.5 13.6l-.9 6.9a11.1 11.1 0 01-.8 3c-.2.5-.9 2.1-1.6 1.4s-1.7.3-1 1c2 2.6 4.2-1.8 4.5-3.4a91.4 91.4 0 001.6-12.8c.3-4 .8-8.5-.4-12.5s-3.8-6.1-5.8-9a48.6 48.6 0 01-8.1-22.3c-1-8.1-.5-16.2-.4-24.3s-.1-17.8-3.1-26.2c-.3-.9-1.8-.5-1.5.4zm-38.3 98.6a.7.7 0 100-1.5.7.7 0 000 1.5zm87.2 23a35.1 35.1 0 01-1 12.9c-1 3.9-2.7 7.5-2.1 11.6a.8.8 0 001.1.5 15 15 0 005.5-9.3c.2-.9-1.2-1.3-1.4-.4-.7 3.2-2.1 6.4-4.8 8.4l1.1.4c-.7-4.2 1.5-8.1 2.4-12.1a37.2 37.2 0 00.7-12c-.1-1-1.6-1-1.5 0z"/><path d="M299.1 392.9c1.2 2 3.4-.5 4.3-1.4a21.4 21.4 0 002.8-3.2c1.3-2.2 1.5-4.9 2-7.4.1-.9-1.3-1.3-1.5-.4s-.5 4.5-1.5 6.4a10.4 10.4 0 01-1.7 2.4l-1.5 1.5-1 .9-.4.3h-.2c-.4-.8-1.7 0-1.3.8z"/><path class="e" d="M238.5 216.2c.3 1.2-.1 6-1.3 5.6 2.6 3.6 6.6 5.8 10.5 7.8 1.8 1 4.8 4.1 6.8 4.6s2.8-1.8 5-2a33.1 33.1 0 006.9-1.7 29.1 29.1 0 009.9-6.4c-1.5-.2-5.1-9.6-5.2-9.4s-1 5-8 6c-1.7 0-5 0-6-1s-11.4 0-18.6-3.5"/><path d="M237.7 216.4a6.4 6.4 0 01.1 2.4 5.8 5.8 0 01-.3 1.4 1.4 1.4 0 01-.2.6c0 .3-.2.2.1.2s-1.3.6-.8 1.1a22.9 22.9 0 007.2 6.3c1.4.7 2.8 1.4 4.1 2.2a41.9 41.9 0 013.3 2.6 8.3 8.3 0 003.2 1.7 3.9 3.9 0 003.1-1 14 14 0 011.7-.9 23.8 23.8 0 012.6-.5 23.9 23.9 0 005.4-1.5 30.7 30.7 0 009.6-6.3.8.8 0 00-.3-1.3c-.4-.1-1-1.3-1.3-1.8a31.8 31.8 0 01-1.6-3.2c-.4-1-.8-1.9-1.3-2.9a3.2 3.2 0 00-.8-1.4.8.8 0 00-.8 0 1.6 1.6 0 00-.5 1 5.6 5.6 0 01-.9 1.7 9.2 9.2 0 01-7.2 3.2 9.5 9.5 0 01-4.1-.6 4.4 4.4 0 00-1.6-.6c-2.2-.3-4.4-.4-6.7-.6a34.2 34.2 0 01-10.9-2.7c-.8-.4-1.6.9-.7 1.3 5.5 2.7 11.6 2.8 17.6 3.4h.9c.2.1-.2-.1.1 0a1.8 1.8 0 00.7.5 12.5 12.5 0 004.3.7 11.1 11.1 0 007.8-2.7 10.8 10.8 0 001.8-2.4 10.4 10.4 0 00.4-1c.2-.5.3-.3-.2 0h-.8c-.4-.3 0 .1.1.4l.5 1.1a35.4 35.4 0 001.6 3.4c.6 1.3 1.6 4.1 3.2 4.6l-.4-1.3a27.1 27.1 0 01-10.7 6.6c-2 .6-4.1.8-6.1 1.3s-2.3 1.8-3.7 2-3.1-1.6-4.2-2.4a23.1 23.1 0 00-3.6-2.5c-3.5-1.9-7.1-3.9-9.6-7.2l-.8 1.1c2.6.6 2.6-5.1 2.2-6.5a.8.8 0 00-1.5.4z"/></svg>