<svg xmlns="http://www.w3.org/2000/svg" viewBox="0 0 500 600"><defs><style>.a{fill:#343d4c}.d{fill:#fc9b6b}</style></defs><path class="a" d="M234 224c-6.2 2.7-22-1.3-28.2 5.3-1.7 1.9-.2 14.4-2 17s1.6 7 0 11c-1.2 13.5-1.7 29.7 0 45 4 35.4-1 64.6 1.7 91.4 5.9-2.2 7.9.9 12.7-3.1 1.1-.8.8-55.2 0-54a7 7 0 01-1.8 1.3c-.7-.1.8-24.5 2.3-46.9-2.8 26.1-2.3 52.1-3.8 78a6.9 6.9 0 00.4 3.8 3.6 3.6 0 002.2 1.7c26.3 10.6 54.6 6.5 81.6 0 1.8-.4 4.1-1.3 4.5-3.7a23.6 23.6 0 01.3-2.9c.7-1.8-3.5-43.4-3.1-43.6s2-39.1 3-44c.2-.5-1.2-2.7-1-3s11.4 17.8 17.8 23.7c3.5 3.2 10 7.1 16.5 2.9s5-21.9 5.6-36.5c.7-17.6.6-35 .6-35-3.7 0 .8 1.9-2 0a7.1 7.1 0 00-6.6 1c-1.9-1.1-1.5-.5-1.7-.4-3 2.5 0 45-3.7 39.8-5.9-8.4-9.7-14.5-11.5-21.5-2.7-3.6-11.4-24.7-14-28-.8-1.1-14.3-.6-16 0s-.9-.3-1.2.3c-1.7 3.1.2-3.1-1.5 0 .7-.9-23.8 6.1-23.8 6.1l-25.3-5.1"/><path d="M237 223c5 2.8 5.9 3.4 11.3 3.4 11.9.1 25.7-2.2 37.5-3.8-3.4 6.3-6.3 16.6-7.3 24.3-1.6 13.1-3.3 26.4-3.1 39.7.1 4.7.4 9.4.4 14.1s-.4 11-.6 16.5c-.4 20.6-.1 43.6 4 63.5-12.2 3.8-21.2 0-33.7-.9a468.3 468.3 0 001.9-47.4c-.2-19.1-1.5-38.1-2.8-57.2-.5-7.6-1.1-15.1-2.2-22.6s-3.8-13.9-5.4-20.6c-1-4.2-.8-7.5-4-8" fill="#d3e0e7"/><path d="M260.6 223.5a23.6 23.6 0 013.4 6.5c.7 2.5.7 5.6-.5 7.7s-2.9 2.7-3.4 4.9a9.4 9.4 0 00.3 4.1c2.5 11.9 1.7 24.6 2 37s2.1 25.6 8.7 34.2a29.8 29.8 0 013.8 5.3c1.7 3.7 1.4 8.2 1 12.5s-1 9.7-1.7 14.6a99.4 99.4 0 01-15.1-25.6 60.7 60.7 0 01-3.5-11.2c-2.2-11.7.5-23.9 1.9-35.8a158.4 158.4 0 00.1-35.1 23.5 23.5 0 00-.5-3.7c-.2-1-.5-1.9-.7-2.8-.8-4.7 1.5-9.2 3.6-13" fill="#004fa6"/><path class="a" d="M216.5 375c1.6 16.8 5.7 33 7.9 49.8 3 23.1.5 46.6-.3 70 5.9-.7 13.5-1.2 19.4-1.9a205.7 205.7 0 013.1-57.6c2.5-12.3 6.6-25 14.4-32.1.5-.5-1-1-.4-1.1s3 3 3.7 5c5.6 17.2 5.6 35.9 6.1 54.7.1 5.7.5 11.4 1.1 17a2.7 2.7 0 00.4 1.6 1.8 1.8 0 001.3.8l5.8 1.1a1.6 1.6 0 001.5-.2 2.9 2.9 0 00.7-1.7l10.2-52.6c3.4-17.5 6.8-35.2 7.5-53.2-5.5-.6-10.5 1.5-16 3s-13.2 2.1-19.7 2.4c-2.9.2-5.9.7-8.8.8a57.9 57.9 0 01-12.4-1.7l-24.9-5.3"/><path d="M237.1 221.9c-2.1 1.6-5.3 1.7-7.9 1.9s-7.2.3-10.8.6c-5.7.4-13.5 1.6-14.8 8.3a74.4 74.4 0 00-1 12.5c-.1 6.1 0 12.3.1 18.5.4 15.3 1.2 30.7 1.9 46s1.5 29.6 1.7 44.4c.1 5.5.2 10.9-.1 16.4-.1 3-.1 6.4-1.2 9.3l-.4.9c-.3.3 0 1 .4 1.1a16.3 16.3 0 003.8-.3h4.4c.3-.2.1.5 0-.2l.5-1c-2.2.4-4.4.7-6.6 1.2s-2.1.4-2.5 1.1 0 1.9 0 2.5.3 2.4.4 3.5.3 4.1 1.3 5.7a1.4 1.4 0 00.7.6c-.1-.1.5.1.4 0h-.4l.2.2.5.2 1.2.3c3.4.4 7.8-1.6 10.2-3.9a.8.8 0 00-1.1-1.1 13.3 13.3 0 01-8 3.5 7.8 7.8 0 01-3-.7h.5c.1 0 .1.1.1 0a8.3 8.3 0 01-.4-1.2 14.5 14.5 0 01-.6-3l-.3-2.4c-.1-.5-.1-1-.2-1.5a11.5 11.5 0 01-.1-1.8c0-.3-.3.1-.1-.2h.4l1.6-.4c2.1-.5 4.1-.8 6.2-1.1a.8.8 0 00.5-.9c-.3-1.5-3.4-1-4.3-1l-3.3.2-1.2.2h-.4l.5 1.1c1.4-1.9 1.4-5.1 1.6-7.4.4-4.8.4-9.7.4-14.5-.1-14.1-.8-28.3-1.4-42.4-.8-15.6-1.6-31.2-2.1-46.8-.3-11.4-.9-22.9.3-34.3.2-2 .3-4.2 1.6-5.9s5.1-3.3 8-3.7a78.8 78.8 0 0110.9-.9 43.1 43.1 0 009.5-.9 7.8 7.8 0 003.2-1.5c.7-.5 0-1.8-.8-1.2z"/><path d="M218.6 262.8c0 8.5.3 17 .5 25.5.2 11.6.3 23.2-.1 34.8a299.5 299.5 0 01-2.6 35.4c-.4 2.6-.8 5.2-1.3 7.7a25.7 25.7 0 00-.8 4 4.2 4.2 0 001.4 3.3c2.6 2.8 5 5.6 7.5 8.4s7.2 8 11.2 11.7a52.7 52.7 0 005.1 4.3 9.8 9.8 0 004.2 2.1.8.8 0 001-.7l1.6-18.2-.8.8c2 0 4 .4 6 .5a78.2 78.2 0 0013.7-.5 31.2 31.2 0 007.3-1.8c1.3-.4 2.9-1.4 4.4-1.3s1.2.5 1.3 1.2.5 2.6.7 4l1.5 8.4a.7.7 0 00.9.6c3.5-1.3 6.6-4.3 9.3-6.7a130.8 130.8 0 0010.7-10.4 33.6 33.6 0 003.4-4.1c.5-.6 1.4-1.7.9-2.6a.9.9 0 00-1.1-.4h-.5l-.4.2c0-.1.9.4.9.4s-.1-.9-.1-1.1l-.3-2.3c-1.1-11.9-1.7-24-1.9-36.1s.1-21.7.5-32.6.5-19 1.3-28.5v-.6c0-.1.1-.5.1-.3s-1.3-1.3-1.5-.4a75.2 75.2 0 00-.5 8.2c-.3 5.3-.5 10.6-.7 16-.4 10.7-.8 21.4-.8 32.2 0 12.4.7 24.9 1.6 37.2.2 2.1.3 4.1.5 6.1s0 2.1.5 2.8.9.4 1.3.2.3 0 .3-.1 0 .1-.1 0l-.4-.4c-.2-.1.1-.2 0-.1s-.5.8-.6 1l-1.3 1.7a109.9 109.9 0 01-9.5 9.8 64.1 64.1 0 01-10.3 8.4 5.6 5.6 0 01-1.7.9l.9.5-1.3-7.6-.8-4.5a2.4 2.4 0 00-1.2-2.1c-1.1-.8-2.4-.5-3.6-.1s-3.9 1.4-6 2a57.5 57.5 0 01-9.4 1.1c-2.1.2-4.3.2-6.4.2s-5-.6-7.6-.6a.7.7 0 00-.7.7l-1.6 18.2.9-.7a9.5 9.5 0 01-3.5-1.7 40.3 40.3 0 01-4.6-3.8c-3.4-3.1-6.6-6.6-9.8-10.1s-5.5-6.2-8.2-9.3a8.6 8.6 0 01-1.3-1.4 2.4 2.4 0 01-.9-2.1 20 20 0 01.5-2.6c.5-2.5.9-4.9 1.3-7.4 3.5-22.6 3.4-45.8 3-68.6-.1-9.6-.5-19.2-.5-28.8a.8.8 0 00-1.5 0z"/><path d="M275.1 223.1a8.4 8.4 0 004.7.8c2.3 0 4.6-.3 6.9-.5 4.9-.5 10.4-1.3 15.1.4a8.5 8.5 0 014.9 4.4c.8 1.7 1.5 3.4 2.2 5.1l5.9 14.4c2.1 5 4.2 10 6.6 15 1.6 3.3 3.2 7 5.5 9.9a3.5 3.5 0 002.3 1.5c1.1.1 1.8-1.1 2.1-2 1.5-3.6 1.3-8.2 1.2-12s-.2-9.2-.4-13.9v-2.3a5.6 5.6 0 000-1.3v-.2c.1.1-.5.2-.5.2s-.4.1-.1.2h.5l3.3.5 2.1.3c.7.2 1.3-.9.5-1.3s-3.7-1.9-5.3-3l-.2 1.3c1.2-.3 1.1-2.7 1.1-3.6s.1-2.8.1-4.2l-.7.8 5.5.2 3.5.2 1 .3c.1-.1 0-.5-.1-.4a9.6 9.6 0 000 1.7v4.1l-.8 27.4c-.1 5.4-.1 10.9-.4 16.3a72.8 72.8 0 01-1.9 12.4 19.7 19.7 0 01-2.2 6.3 5.1 5.1 0 01-4.2 1.9c-4.8.2-9.6-3.2-13.1-6.1a67.6 67.6 0 01-14.1-17c-1.1-1.8-2.1-3.7-3.1-5.6a.8.8 0 00-1.3.8 79.4 79.4 0 0014.2 19.9c3.9 3.9 8.7 7.8 14.2 9.2 3.8.9 7.7.1 9.4-3.6s2.7-10.2 3.3-15.2.5-10.3.6-15.5l.8-29.4c.1-2.4.3-5 .2-7.4s-1-1.4-2-1.5a60 60 0 00-7.4-.5h-2a.8.8 0 00-.8.7v3.2c-.1.7-.1 1.5-.2 2.2s-.1.7-.1 1-.3.2.2.1a.7.7 0 00-.2 1.3 57.9 57.9 0 005.4 3.1l.6-1.4-5.4-.8c-.5-.1-1-.5-1.5 0a2.1 2.1 0 00-.4 1.1c-.4 3.3.1 6.9.3 10.3a98.9 98.9 0 01-.1 14.4 14.6 14.6 0 01-1 4.6l-.4.6c-.1.2-.3.2-.1.1h-.1l-.4-.2a10.4 10.4 0 01-2.3-3.2 46.3 46.3 0 01-2.9-5.4c-2.3-4.7-4.4-9.6-6.5-14.5s-4.1-9.9-6.1-14.8c-.8-1.8-1.5-3.7-2.3-5.5a12.1 12.1 0 00-3.4-4.9c-3.7-3-9.2-2.9-13.7-2.7l-7.7.8a31.1 31.1 0 01-6.1.2 5.9 5.9 0 01-1.9-.5c-.9-.5-1.6.8-.8 1.2zm-60.7 148.6c1.8 18.2 6.4 35.9 8.4 54 1.7 15.2 1.2 30.7 1 46-.1 8.2-.2 16.4 0 24.6a.8.8 0 101.5 0c-.4-15.3.2-30.6.1-46 0-7.2-.2-14.5-.8-21.8s-2.4-17.5-3.9-26.2-3.8-20.3-4.8-30.6c-.1-.9-1.6-.9-1.5 0zm28.9 121.1c-.3-22.9-.7-46.5 6.1-68.6a91 91 0 016-14.9c.8-1.5 2.7-6.1 5-5.5s1.8 1.8 2.3 2.7a35.2 35.2 0 011.8 4c1.9 5.2 2.6 10.8 3.3 16.3s1.3 11.5 1.6 17.3c.7 13.3.5 26.7.3 40a.7.7 0 001.5 0c.2-12.6.4-25.2-.2-37.8q-.5-9.3-1.5-18.6c-.8-5.7-1.5-11.6-3.4-17.2-1-2.9-3.8-10.7-8.1-7.5-2 1.5-3.1 4.1-4.3 6.3s-2.3 4.9-3.3 7.4c-4.2 10.7-6.4 22.2-7.5 33.6-1.4 14.1-1.3 28.3-1.1 42.5a.8.8 0 101.5 0z"/><path d="M297.1 378.9a139.3 139.3 0 01-.9 19.4c-.7 6.2-1.9 12.4-3.1 18.5-2.8 13.8-6.9 27.4-10 41.1a168.3 168.3 0 00-3.6 23.3l.8-.7a93.9 93.9 0 01-10.6.1.8.8 0 100 1.5 93.9 93.9 0 0010.6-.1.8.8 0 00.7-.8c1.1-14.2 4.7-28 8.2-41.8s6.6-25.9 8.3-39.2a152 152 0 001.1-21.3.8.8 0 00-1.5 0zm-53.9 113.7l-10.4 1a22.2 22.2 0 00-4.5.7c-1.4.6-2.6 1.5-4.1 1.5a.7.7 0 100 1.5 8.9 8.9 0 003.8-1.2 15.8 15.8 0 014.8-1l10.4-1c.9-.1 1-1.6 0-1.5z"/><path d="M281 482a.8.8 0 000-1.5.8.8 0 000 1.5zm-46.9-256.9c6.1 4.3 10.9 9.9 16.5 14.7a.7.7 0 001.3-.5c.1-2.1 2-4.3 3.3-5.9l.8-.8 2.1-2.2c.7-.7 1.5-1.3 2.1-2s.2 0 0-.1l.4.3a7.4 7.4 0 011.3 1.2 32.2 32.2 0 003.2 3.2 65 65 0 006.9 5.9.8.8 0 001-.3 69.5 69.5 0 0112.8-14.2c.8-.7-.3-1.7-1-1.1a75.1 75.1 0 00-13.1 14.5l1.1-.2a65 65 0 01-6.9-5.9l-3.9-3.9c-.5-.5-1.3-1.2-2.2-.9a7.9 7.9 0 00-2 1.7l-3.6 3.6c-1.7 1.9-3.6 4.5-3.8 7.1l1.3-.5c-5.7-4.9-10.7-10.6-16.8-14.9-.8-.6-1.6.7-.8 1.2z"/><path d="M284.4 223.4a497.6 497.6 0 00-8.3 65.4 519.6 519.6 0 00.4 67.2c.9 12.3 2.3 24.7 4.1 36.9.1 1 1.6.6 1.4-.4a504.9 504.9 0 01-5.3-66.2 497.8 497.8 0 013.4-65.7c1.5-12.4 3.4-24.6 5.8-36.8.2-.9-1.3-1.4-1.5-.4zm-51.3.7c7.7 20.4 9.9 42.6 10.9 64.2 1.1 23.6 1.5 47.3 1.2 70.9-.1 13.6-.6 27.1-1.5 40.6a.8.8 0 101.5 0c1.6-24.2 1.8-48.5 1.4-72.8-.4-22.8-.6-45.7-3.6-68.2-1.7-12-4.2-23.8-8.5-35.1-.3-.9-1.8-.5-1.4.4z"/><path d="M232 224.1c-1 10.6-.9 21.3-3 31.7a.8.8 0 00.5 1l4.6 1.2-.5-1-3 7.3a5.5 5.5 0 00.6 5.5 88.6 88.6 0 016.1 11.4 86.2 86.2 0 017 26.9 70.4 70.4 0 01-.3 15.9c-.1 1 1.3 1.4 1.4.4 2.5-17.7-2-36.4-10.8-51.9l-1.8-3c-.8-1.2-1.5-2.4-1.1-3.9s1.1-2.7 1.6-4l1.8-4.2a.8.8 0 00-.6-.9l-4.6-1.2.5.9c2.1-10.6 2.1-21.4 3.1-32.1.1-1-1.4-.9-1.5 0zm54 .1c2.5 5.4 6.7 9.8 9.1 15.3l.3-1-5.4 3.5a.7.7 0 00-.3.8 16.4 16.4 0 005.5 8.8v-1c-11.5 14.4-17.3 33-18.5 51.2a102.3 102.3 0 00.2 16.6c.1 1 1.6 1 1.5 0-1.7-18.5 1.5-37.9 10-54.5a69.5 69.5 0 017.9-12.3.8.8 0 000-1 15.9 15.9 0 01-5.2-8.2l-.3.9 5.3-3.5a.8.8 0 00.3-1.1c-2.4-5.4-6.6-9.8-9.1-15.3-.4-.9-1.7-.1-1.3.8zm-30.6 8a7.5 7.5 0 00.4 5.1 6.4 6.4 0 003 3.3c3.1 1.4 5.6-1.7 6.4-4.4a10.6 10.6 0 00.1-5.6c-.2-.9-1.7-.5-1.4.4a8.5 8.5 0 01-1.5 7.4 2.9 2.9 0 01-2.6 1 4.2 4.2 0 01-2.4-2.3 5.5 5.5 0 01-.5-4.5c.3-.9-1.2-1.3-1.5-.4z"/><path d="M257.8 240.6c1.7 16 .5 32.1-1.5 48-1 7.7-2.3 15.5-1.3 23.3a56.7 56.7 0 006 18.8 136.5 136.5 0 0011.6 18.5c.6.8 1.9 0 1.3-.7-7.6-10.7-15-22-17.2-35.1-1.2-7.7-.1-15.3.9-22.9s1.8-15.5 2.2-23.2a158.6 158.6 0 00-.5-26.7c-.1-1-1.6-1-1.5 0z"/><path d="M258 240.4c5.2 14.2 2.3 29.7 3 44.4a58.2 58.2 0 004.6 21.3 45.3 45.3 0 005.3 9c2.3 2.9 4.5 5.6 5 9.4s-.1 9.2-.5 13.6q-.3 3.4-.9 6.9a13.2 13.2 0 01-.7 3c-.2.5-1 2.2-1.6 1.4s-1.7.3-1.1 1.1c2.1 2.5 4.2-1.8 4.6-3.5a91.6 91.6 0 001.5-12.7c.3-4.1.9-8.6-.4-12.5s-3.7-6.1-5.8-9.1a51 51 0 01-8.1-22.3c-.9-8-.5-16.1-.3-24.2s-.1-17.8-3.2-26.2c-.3-.9-1.7-.5-1.4.4z"/><path class="d" d="M209.9 393.2c2.4 3.1 1.7 7.2 3.7 10.5a10 10 0 002.4 3.1 4.8 4.8 0 004.2.8 54.5 54.5 0 00-4.9-16.1c-2.9.1-2.7-.2-5.4.6"/><path d="M209.6 393.3c2.1 2.9 1.8 6.7 3.2 9.8s4 5.9 7.5 4.8c.2 0 .3-.2.3-.4a59.8 59.8 0 00-5-16.2c0-.1-.2-.2-.3-.2h-2.8a13.1 13.1 0 00-2.7.6c-.5.1-.3.8.2.7a19.8 19.8 0 012.6-.6h2.7l-.3-.2a60 60 0 014.9 16.1l.2-.5c-3.6 1.2-6.2-2.9-7.1-5.8s-.9-5.9-2.8-8.4c-.3-.4-.9 0-.6.3z"/><path class="d" d="M335 225.9a49.2 49.2 0 00.1-9.4c-.4-2.6-1.3-5-1.7-7.7a68.7 68.7 0 01-.3-10.2c-.1-8.3-1.9-16.8-.6-24.9.1-.2.1-.5.3-.6s.4.1.5.3c1.5 2.5 1.9 6.1 2.8 9.3a4.4 4.4 0 00.6 1.6 3.1 3.1 0 001.1.9c1.5.8 3.2.5 4.9 1a11.9 11.9 0 014 2.6 9.1 9.1 0 011.7 1.7 13.8 13.8 0 011.1 5.5 14.5 14.5 0 01-.4 4.7c-.5 1.4-1.7 2.4-2.6 1.6a52.2 52.2 0 01-1.8 11.4 17.2 17.2 0 00-.8 2.8 12.3 12.3 0 00-.2 2.7c-.2 4.6-.4 9.7-1 14.2-2.4-2.6-5.2.5-8-1"/><path d="M335.3 225.9a42.2 42.2 0 00.2-9.4c-.4-2.9-1.5-5.7-1.8-8.6a64.3 64.3 0 01-.2-8.8q-.2-4.8-.6-9.6c-.2-3.1-.5-6.1-.5-9.1 0-1.5.1-2.9.2-4.3a9.5 9.5 0 01.3-2.5c.2-.1 1 2.1 1 2.2.9 2.5 1.1 5.3 2.1 7.8s3 2.4 5 2.7a8.8 8.8 0 015.1 2.5 6.6 6.6 0 012.7 4 26.9 26.9 0 01.3 4.9c0 1.1-.4 5.6-2.4 4.3a.4.4 0 00-.6.3 78.3 78.3 0 01-1 8.3c-.5 2.3-1.6 4.6-1.7 7-.4 5.3-.4 10.5-1.1 15.7h.6a3.5 3.5 0 00-3.3-1.2c-1.6.1-3.2.8-4.8.1s-.8.5-.3.7a5.3 5.3 0 003.3.3c1.7-.3 3.2-.8 4.6.6a.3.3 0 00.6-.2c.7-5.1.8-10.3 1.1-15.4.1-2.7 1.3-5.2 1.8-7.8s.7-5.3 1-8l-.6.3c2 1.4 3.3-1.6 3.5-3.1a25.7 25.7 0 000-4.8 11.1 11.1 0 00-.9-4 9.5 9.5 0 00-3-3 8.6 8.6 0 00-4-2.1c-1.5-.3-3.5 0-4.7-1.3s-1.3-3.6-1.6-5.2a27.5 27.5 0 00-1.1-4.1c-.3-.6-.8-2.4-1.7-2.3s-.7 1.5-.8 2a54.4 54.4 0 00-.3 5.7c0 7.2 1 14.5 1 21.7a55.2 55.2 0 00.2 5.8 33.7 33.7 0 001.2 5.5 37.4 37.4 0 01.5 12.5c-.1.5.7.5.7 0z"/><path d="M335.3 231.7a83.5 83.5 0 00.2-10 52.7 52.7 0 00-.6-9.8c-.3-1.4-.8-2.8-1.1-4.1a42.8 42.8 0 01-.5-4.9c-.1-3.1-.1-6.2-.2-9.3v-16.2c0-.5-.3-2.8.8-2.5s.8 1.7.9 2.1.3 1.7.5 2.6a45.3 45.3 0 01.6 5 95.1 95.1 0 01.5 10.6.8.8 0 101.5 0 95.1 95.1 0 00-.5-10.6c-.1-1.4-.3-2.9-.5-4.4a25.6 25.6 0 00-1-4.8 3 3 0 00-1.8-2 1.7 1.7 0 00-2.2 1.1c-.6 1.2-.3 2.8-.3 4.1v5.4l.2 10.6c0 3.4-.1 6.8.2 10.1a22.4 22.4 0 00.7 4.4c.3 1.3.8 2.6 1 3.9a50.7 50.7 0 01.3 5.5 116.1 116.1 0 01-.1 13.2.7.7 0 001.5 0z"/><path d="M337 196.2a2.8 2.8 0 00.8 2.6c.5.6 1.2 1.1 2 .6a4 4 0 001.2-2.2 11 11 0 00.4-3.1 18.5 18.5 0 00-.7-6.2c-.6-1.6-1.5-3.3-3.3-3.8s-1.3 1.1-.4 1.4 1.7 1.5 2.1 2.4a15.6 15.6 0 01.8 4.2 17.9 17.9 0 01-.2 4 3.9 3.9 0 01-.6 1.8c-.1.2.1.1 0 .1s-.3-.3-.4-.4a1.2 1.2 0 01-.2-1c.2-.9-1.3-1.3-1.5-.4z"/><path d="M338.2 185.8c3-.8 4.3 3.3 4.6 5.5a23.6 23.6 0 01.1 4.6 6.3 6.3 0 01-.2 2.4c-.4.9-1.3.3-1.9-.1s-1.5.8-.7 1.3a2.7 2.7 0 002.7.7 2.9 2.9 0 001.5-2.2 23.6 23.6 0 000-6.5 11 11 0 00-1.9-5.5 4.6 4.6 0 00-4.6-1.6c-.9.2-.5 1.7.4 1.4z"/><path d="M342.8 200a1.7 1.7 0 001.9 1 2.9 2.9 0 001.8-1.6 9.3 9.3 0 00.8-6.1 27.2 27.2 0 00-.7-3.3 16 16 0 00-1-3.1c-.7-1.5-2.4-2.7-4-1.5s0 1.8.7 1.3 2 .7 2.3 1.7.8 2.8 1.1 4.2a9.4 9.4 0 01.1 4.4 5.6 5.6 0 01-.7 1.8c-.2.4-.6 1.1-1 .4s-1.7-.1-1.3.8z"/><path d="M344.4 201.9c1.2.9 2.8 1.6 4.1.3s1.2-3.3 1.2-4.8a19 19 0 00-.9-5.3c-.4-1.3-.9-3.1-2.4-3.5a.8.8 0 00-.4 1.5c.9.2 1.2 1.9 1.5 2.7a26.6 26.6 0 01.7 3.9 9.4 9.4 0 01-.4 3.7c-.2.5-.4 1.1-1.1 1.1a4.3 4.3 0 01-1.6-.9c-.7-.5-1.5.8-.7 1.3z"/><path d="M343 231.4c.4-2.7.6-5.4.8-8.1s.1-2.6.1-3.9-.1-2.8.6-4c2.6-4.1 2.1-9.1 1.6-13.6-.1-1-1.6-1-1.5 0a38.4 38.4 0 01.3 7.6 13.7 13.7 0 01-.8 3.5c-.4 1-1.2 1.9-1.5 2.9a18.3 18.3 0 00-.2 3.3c0 1.3 0 2.7-.1 4-.2 2.8-.4 5.6-.8 8.3-.1 1 1.4 1 1.5 0zm-3.5-21.1v-1.9a.8.8 0 01.1-.4v-.2c0-.1.1-.2 0-.1l.2-.3h.1a.1.1 0 00.1-.1.7.7 0 00-1-1 2.9 2.9 0 00-1 1.8 16.9 16.9 0 00-.1 2.3.8.8 0 00.7.8.9.9 0 00.8-.8z"/><path class="d" d="M238.5 216.2c.3 1.2-.1 6-1.3 5.6 2.6 3.6 6.6 5.8 10.5 7.8 1.8 1 4.8 4.1 6.8 4.6s2.8-1.8 5-2a33.1 33.1 0 006.9-1.7 29.1 29.1 0 009.9-6.4c-1.5-.2-5.1-9.6-5.2-9.4s-1 5-8 6c-1.7 0-5 0-6-1s-11.4 0-18.6-3.5"/><path d="M237.7 216.4a6.4 6.4 0 01.1 2.4 5.8 5.8 0 01-.3 1.4 1.4 1.4 0 01-.2.6c0 .3-.2.2.1.2s-1.3.6-.8 1.1a22.9 22.9 0 007.2 6.3c1.4.7 2.8 1.4 4.1 2.2a41.9 41.9 0 013.3 2.6 8.3 8.3 0 003.2 1.7 3.9 3.9 0 003.1-1 14 14 0 011.7-.9 23.8 23.8 0 012.6-.5 23.9 23.9 0 005.4-1.5 30.7 30.7 0 009.6-6.3.8.8 0 00-.3-1.3c-.4-.1-1-1.3-1.3-1.8a31.8 31.8 0 01-1.6-3.2c-.4-1-.8-1.9-1.3-2.9a3.2 3.2 0 00-.8-1.4.8.8 0 00-.8 0 1.6 1.6 0 00-.5 1 5.6 5.6 0 01-.9 1.7 9.2 9.2 0 01-7.2 3.2 9.5 9.5 0 01-4.1-.6 4.4 4.4 0 00-1.6-.6c-2.2-.3-4.4-.4-6.7-.6a34.2 34.2 0 01-10.9-2.7c-.8-.4-1.6.9-.7 1.3 5.5 2.7 11.6 2.8 17.6 3.4h.9c.2.1-.2-.1.1 0a1.8 1.8 0 00.7.5 12.5 12.5 0 004.3.7 11.1 11.1 0 007.8-2.7 10.8 10.8 0 001.8-2.4 10.4 10.4 0 00.4-1c.2-.5.3-.3-.2 0h-.8c-.4-.3 0 .1.1.4l.5 1.1a35.4 35.4 0 001.6 3.4c.6 1.3 1.6 4.1 3.2 4.6l-.4-1.3a27.1 27.1 0 01-10.7 6.6c-2 .6-4.1.8-6.1 1.3s-2.3 1.8-3.7 2-3.1-1.6-4.2-2.4a23.1 23.1 0 00-3.6-2.5c-3.5-1.9-7.1-3.9-9.6-7.2l-.8 1.1c2.6.6 2.6-5.1 2.2-6.5a.8.8 0 00-1.5.4z"/><path d="M223.7 495.3a15.5 15.5 0 01-4.7 6.4 22.9 22.9 0 01-5.1 2.8l-10 4.6a12 12 0 00-3.1 1.8 11 11 0 00-1.7 2.5 1.1 1.1 0 00-.3.8 1.1 1.1 0 00.3.7c.8 1.1 2.5 1.4 4 1.6a45.1 45.1 0 009 .1 17 17 0 005.5-1.3c2.9-1.3 4.8-3.9 6.8-6.2s4.4-4.7 7.7-5.2 6.5.9 9.3-.3a7.4 7.4 0 002.5-1.7 4.2 4.2 0 001.1-1.6 3.7 3.7 0 000-1.8l-1.1-5.2c0-.2-.1-.3-.2-.5h-.7a70.4 70.4 0 00-12.1 1.6l-7.5 1.5m47.1-13.7a31.8 31.8 0 002.2 8.7 2.9 2.9 0 00.8 1.3 3.6 3.6 0 002.3.5c6.9-.3 13.5 2.9 19.8 5.8s13.2 5.6 20 4.5a2.6 2.6 0 002.5-2.3c.2-2.4-1.7-4.5-3.9-5.2s-4.5-.4-6.7-.1-4.6.6-6.7-.2c-5.6-2.2-11.4-7.3-16.8-9.9-3.4-1.6.9-4.1-2.8-4a94.7 94.7 0 01-10.7-.5" fill="#262626"/></svg>