<svg xmlns="http://www.w3.org/2000/svg" viewBox="0 0 496.8 597.6"><path d="M223.9,222c-6.6,5.4-11.3-2.7-18.7,3.3-5.5,9.8-12.5,53.3-23.4,51.1-1.7,12.2-2.8-43.1-2.8-43.1,0-3-9.7,1-9.7,1,2-2-.1,59.3,4.2,70.2s33.7-5.6,32.7-18c-.1-.7,2.2,49.1,2,49.1,1-1.6-2.8,17-3.7,35.6,26.8,12.3,66.5,11.2,92.1-2,1.3-.1-3.3-41.8-3-42.6s1.9-45.9,3-50.7c.1-.5,3,5.8,3.3,5.6,2.2,6.3,18,29.1,31.7,21.3,9.5-5.5,5.1-67.1,6.4-71.1-3.9,0,.9,1.9-2.1,0s-6.7.8-9.5,2.5,2,42.7-3,37.7c-6.8-7.1-11.2-15.8-13.9-21.8-4.2-4.1-8.3-29.3-10.9-29.8-.6-.2-16.5,2.5-17.9,2a1.6,1.6,0,0,0-1.8.7c-1.9,3.1.2-3.1-1.6,0-26.7,6.2-22.6,7.3-51.2,1" fill="#343d4c"/><path d="M236.5,220.3c5.1,2.8,4,6,3.5,6-12.4-1.2,25.4-1.5,37.7-3-13.8,48.9-11.5,107.4-5.2,157.7-12.7,3.8-22.5.2-35.5-.7-2.3-51.1,4.9-109-13.3-156.3" fill="#fff"/><path d="M236.7,220.6c5.1,2.8,3.9,6,3.5,6-12.4-1.2,25.4-1.5,37.7-3-13.8,48.9-11.5,107.4-5.2,157.7-12.7,3.8-22.5.2-35.5-.7-2.3-51.1,4.9-109-13.3-156.3" fill="#343d4c" opacity="0.25" style="isolation:isolate"/><path d="M251.9,226.9c5.3,6.2,4.4,13.4-.5,18.9a266.4,266.4,0,0,1,2.2,40.9c-.5,25.1,23.7,41.4,11.8,66.2-30.3-30.7-12.8-69.8-16.5-107.1-2-7.2-3-13.2,2.4-19.3" fill="#004fa6"/><path d="M205.1,373.4c7.8,39.5,12.9,78.6,8.2,119.1,6.4-.7,14.6-1.2,21-1.9-1.5-29-2-67.3,18.8-89.2-1.7-3.2,2.7,1.7,3.4,3.9,7.3,23.1,8,50.2,5.3,74.3.3.5,3.9-.8,4.5-.7l6.1,1.1c5-34.5,19-70.6,19.2-108.7-26.5,10-58,8.7-85.7.9" fill="#343d4c"/><path d="M207.2,278.9c.4,26.2,1.7,52.5-1.7,78.5-.2,5.6-4.7,12.2,1,16.1,8.8,8.5,16.2,20.1,27.7,24.8,2.7-4.6,1.4-13,2.6-18.8l-.7.8c30.1,5,34-15,36.2,10.4,3,3.1,33-24,24.4-23.2-.7-27.1-3.9-62.7.8-92.4-4-2.4-2.9,23.2-3.7,27.5.4,20.5-2.7,49.9,3.7,66.1-6.4,6.3-15.1,16.5-24.6,21.1l.9.5c-2.2-24-6.8-10.5-23.7-11-21.5-1.5-13.2-.2-16.5,18.2l1-.7c-7-3-32.1-24.4-28.8-31.9C209.2,337.7,212,302.7,207.2,278.9Z"/><path d="M274.3,222.4c7.6,2.6,16-3.9,23.7-1.1,9.3,15.1,9.8,37.9,23.9,51.5,8.7,1.4,3.2-25.6,4.4-31.1-3.8.1,16,4.2.6-3l-.2,1.3c2-1.7,1-5.1,1.3-7.8l-.8.8a67.7,67.7,0,0,1,9,.3l1.2.2c.9.2,0-.3.2-.3-1.3,34.9,5.2,110.6-39.4,43.7-5.5-2.2,10.6,18.8,13.2,20.1,23.7,22.3,27.8-9,26.7-27.8,0-5.2,1.1-31.2,1-35.9-.2-2.3-11.8-2.5-12.6-1.2h0c-.2,6.5-1.8,8.1,5.3,10.8l.5-1.4c-1.6.2-6.7-2.2-7.4-.2-.5,7.5.8,15.2.3,22.6-1.5,25-21.9-30.5-22.2-37.2-1.6-13.8-19.1-3.8-27.9-5.7C273.9,220.6,273.8,221.8,274.3,222.4Z"/><path d="M203.7,370.1c1.8,18,6.5,35.6,8.6,53.5,3.6,23-1.5,49.2,2.1,70.8C216.4,454.6,214.8,405.3,203.7,370.1Z"/><path d="M233.7,490.5c.7-28.7-2.9-66.8,17.9-88.5,9.2,10,7.6,27,9.3,40.1s.6,26.5.4,39.7c0,.9,1.5,1,1.5,0h0c5.1-130-35.9-82.3-29.9,9.4A.8.8,0,0,0,233.7,490.5Z"/><path d="M289.8,377.3c1.4,35-15.3,67.3-18.2,101.6l.6-.7c-2.6,1.2-12-1.7-11,1.6,3.7-.3,8.9,1.2,11.8-.9,1.1-14.2,4.9-28,8.6-41.6C285.7,418.5,295.3,392.1,289.8,377.3Z"/><path d="M233.6,490.3c-5.7.9-16.5.1-20.4,4.1,2.8,1.4,6.4-2.2,9.7-1.6C223,492.4,238,492.4,233.6,490.3Z"/><path d="M222.1,223.3c26.2,21.4,12.1,26.3,29.5,5.2,16.6,22,11.6,8.9,26.4-4.6-1.1-4.6-13,13.8-14.6,16.6h1.2c-4.6-1.9-11.9-17.9-15.7-11.3-2.7,3.2-7.1,7.8-7.8,13.2l1.3-.6c-3.5-2.5-18.7-22.5-20.3-18.3Z"/><path d="M276.6,222.8a478.9,478.9,0,0,0-4,168.4c1.6-17-5.5-45.2-4-66.2C266.2,291.9,275,251.3,276.6,222.8Z"/><path d="M223.1,223.5c19.1,55.7,11,118.1,11.8,175.3C237.7,349.4,243.3,264.4,223.1,223.5Z"/><path d="M222,223.5c-.4,10.7-2.6,22.6-2.6,32.5l4.8,1.2-.4-1.1c-1.3,4-5.6,8.5-2.8,12.6A83.6,83.6,0,0,1,234.8,307c1.5,3-2,17.9,1.1,16.1,2.8-18.7-2.8-38.3-12.9-54.2-3.7-3.6.8-8.4,2.1-12.1.7-1.7-4.7-1.8-5.3-2.3l.5.9C220.8,250.3,225.7,222.7,222,223.5Z"/><path d="M278.3,223.5c2.6,5.4,6.9,9.8,9.4,15.3l.3-1c-9.1,4.1-5.6,7.3,0,13.2l-.2-1.2c-13.8,16.7-24.7,50.1-17.4,67.4-2.4-23.3,3.5-48.1,18.5-66.4-.8-2.7-5-5.2-5.3-9l-.4.9c.4-.7,6.9-3.3,5.8-4.6s-9.8-18.3-10.7-14.5Z"/><path d="M246.4,235.5c-2.3,12.7,13.5,9.7,10.2-1.6-2.6-2.7.5,9.7-5.7,8.8C246.4,242,248.8,233.1,246.4,235.5Z"/><path d="M248.9,243.9c4.9,36.2-16.5,82.4,16.7,107.2-34.1-34.1-6.4-73.9-16.7-107.2Z"/><path d="M249.1,243.7c7.7,21-2.2,44.8,7.9,65.3,9.8,13.4,13.6,22.1,9.2,39.1-1.3,7.9-4.3.5-3.5,5,6.7,2.2,5.4-11.7,6.4-15.9,3.9-17.1-15.1-26.8-14.9-43.7C251.1,278.7,258.4,253,249.1,243.7Z"/><path d="M207.3,280.5c-44.2,74.7-35.5-14.1-37.4-45.3a37.8,37.8,0,0,1,8.9-.7l-.7-.8c.3,2.3-.8,6.9,1.1,8.2-.1-.2-.2-1.6-.5-1.2s-6.8,3.2-3.8,4.4c.7-.3,7.1-.9,4.5-1.3-3.8,73,19,9,25.6-18.2,4.2-5,12.9-.8,18-2.1a58.2,58.2,0,0,1,31.5,1.5c3,2.5,28.3,1.2,22.2-2.7-14.9,8.6-33-6.9-57.1,0-15.4-4.2-18.1,5.6-20.7,18.3-1.5,8-17.4,55.3-18.5,24.8-.8-7.3,2-16.1-.2-22.7-1.7.1-4,.9-5.7,1.1l.5,1.3c1.1-1.1,6.3-2.8,4.6-4.5.6.2.2.4.2-.1-.7-2.3.7-5.9-1-7.4-2.7.5-9.1-.8-10.3,1.8.4,14.4.5,38.7,1.2,53-.4,41.9,30.4,15.8,38.9-6.6.9-2.1-.9-1.6-1.3-.8Z"/><path d="M331.9,201.8c-1.6-4.8-3.9-4.9-5.9-8.5s3.4-16.3-2.4-15.5c-5.2,3.8-3.1,12.3-2.8,18.7.1.1,7,0,4.8.3-6.8-.7-16.1,6.4-4.2,6.9-4.3-1.8-9.2,6.6-3,6.3-6,1-.2,6.7,3.7,5.6-3.2-.5-7.4-1.5-4.1,3.2,6.9,1.2,11.8,4.9,9.2,13.4,4.3.1,11.2.7,11.1,0C332.8,222.3,334.9,211.4,331.9,201.8Z" fill="#f99a6b"/><path d="M332.2,201.6c-5.6-8.4-7.6-11.3-5.5-21.9-7-9.4-7.6,12.5-6.3,16.8,1.4.9,3.8.3,5.5.6s-1.2-.4-1.7-.3c-7.6-.7-14.4,7-2.9,7.3v-.8c-8.1-.4-8.7,9,.4,7.1v-.7c-8.9-1.7-7.6,6.9.2,6.3l.2-.7c-1.7.1-5.2-1.9-5.8.4h0c1.5,8.9,14.5.8,10.6,16.5,3.2.7,8.8,1.6,11.8,0-5.3-9.4-3.4-20.6-6.5-30.6.9,8,1,21.4,5.7,30.3-2.9.9-7.3-.2-10.7-.1l.4.4c4.2-16.4-9.9-8.5-10.3-16.6.4-1.2,6,1.7,4.9-.3-3.3.8-9.4-3.5-3.9-4.9,4.8.3,5.3-1,.1-.7s-.8-7.1,3-5.5c1.7-.9-2.8-1-3.1-1.2-4.6,0-1-5.2,1.9-5s4.9.3,6.3-1.1c-1-1.3-4.1-.1-5.6-.6l.2.4c.2-5.4-2.8-15.6,2.9-18.4,4.9,4-2.7,15.4,4.9,19.1C330,198.1,331.4,203.5,332.2,201.6Z"/><path d="M175.6,202.5c2.6-6.7,6.5-7.8,5.2-15.6-1.4-5,.1-13.7,4.2-4.6.4,3.5-1.1,10.3,0,15,0,.9-4.7,0-4.6.3,1.8.5,6,.3,7.5,1.8,3.5,3.9.1,4.9-3.5,5.1,4-1.8,7.9,6.6,2.5,6.2,5.1.8,1,6.4-3,5.6,3.5-.7,5.8-1.2,3.5,3.2-.8,1.2-3.3.3-5.7,2.2-7.7,7.6,4.4,12.3-11.9,12.4-1.3.1.9-4.1,2.1-6.6C175.6,218.9,172.5,210.5,175.6,202.5Z" fill="#f99a6b"/><path d="M175.9,202.6c5.6-8.5,6-12.6,4.8-22.7,7.3-2.9,2,14.7,4.1,17-.6.1-5.9-.5-4.4,1a27.2,27.2,0,0,0,4.9.5c2.2,0,5.6,4.6,2.3,5.1-.3.2-5.2.3-3.1,1.3,5.6-.5,7.1,7.1-.4,5.5-2.4.9,2.8.7,3,.7,6.7,3.5-7.3,5.3-3.1,5.6,4.7-1.5,5.3.7,1.9,3.5-7.2-.4-8,7.4-7.4,12.9l.4-.4c-2.3.1-7.1,1.2-9.1.8,5.5-9.6,3.4-20.6,6.1-31-4.7,5.1-.3,18.9-5,26.3-.7,1-3.7,6.7,0,5.5,9.9-1.2,8,1.1,8.5-8.5.9-2.8,3.2-4.9,6.1-4.8s4.8-5.2,2.6-5.7-3.3.7-4.3.7l.2.7c6.8.5,7.7-7.9.1-6.3v.7c8.1,2,7.1-7.6.2-7.1l.2.8c7,.3,6.6-5.8.6-7l-4.1-.5c-2.1.4,4.3.7,4.3-.1-.9-3.8,2.5-24.5-5.3-17.6C182.6,200.1,176.2,193.2,175.9,202.6Z"/><path d="M214.3,493.6c-2.5,7.9-13.1,10.3-19.7,13.7-12,6.4,1.4,8.8,8.2,7.4,14.1-1.8,11-15.1,29.1-12.8,4.9-1.5,3.3-6.7,2.5-10.3-5.9-1.3-14.1,1.8-20.4,2.6"/><path d="M261.8,480.6c.9,3.3.6,10.6,5.3,10.4,13.6-.5,25.7,12.4,39.5,10.3,7.5-3.6-3.1-10.2-8-7.6-8.9,2.2-15.9-6.8-23.4-10-3.4-1.7.9-4.1-2.8-4a47.2,47.2,0,0,1-10.6-.6"/><path d="M238,215.5c.3,1.2-.1,6-1.3,5.6,4.4,5.4,11.6,8.4,17.2,12.3,7-2.6,16.1-3.8,21.6-10-1.5-.2-5-9.6-5.1-9.4.8,2.5-8.9,8.7-14,5-.9-1-11.3,0-18.4-3.5" fill="#f99a6b"/><path d="M237.2,215.7c.5,1.5-.3,3.7-.3,4.6s-1.3.6-.8,1.1c3.4,5.3,10,7,14.5,11,2.4,2.6,5.4,1.7,7.9-.2,5.6-1,16.6-3.8,17.2-9.5-2.8-2.1-2.6-8.2-5.7-9.3-5.4,11.3-22.3,3.2-31.7,1.4-4.1,3.1,15,4.7,17.7,4.7,4.3,3.3,14.8-.3,14.8-4.9-.6.2-1.3-.4-.7.4,1.6,2.9,2.3,7.3,5.2,9.1l-.4-1.3c-5.1,6.3-14,6.3-20.3,9.8-5.9-3.2-12.6-7-17.3-12l-.8,1.1C239.6,222.9,239.5,211.9,237.2,215.7Z"/></svg>