<svg xmlns="http://www.w3.org/2000/svg" viewBox="0 0 496.8 597.6"><path d="M239.4,216.4c1.3,14.7-19.2,8.6-27.7,12.1-28,34.2-42.8,49.9-33.8,97.2,25.8.4-5.2-32,31.4-61.4,0,30-12.5,58.4-24.6,86,39.5,32.3,53.1-99.8,52.9-123.8" fill="#343d4c"/><path d="M238.6,216.6c.9,11.3-13.1,9.7-21.3,9.9-15,.8-16.5,19.3-25.8,28-19.1,18.3-19.6,48.4-13.6,71.9,26.4.8-3.5-34.8,31.7-61.5l-1-.6c-.2,30.2-12.5,58.4-24.6,85.6,5.3,3.7,15.1,10.6,22.1,5.1,17.3-27.1,25.4-59.4,29.7-91,1.5-12.4,2.3-25,2.6-37.5,0-.9-1.5-1-1.5,0-.9,42.7-8.4,86.4-29.4,124.1-5.1,10.6-15.4,1.6-22.6-1.1l.4,1.1c11.4-27.1,26.7-57.8,23.9-87-18.9,12.7-22.5,37.2-20.6,58.3l.4-.7c-3.2,2-7.4,4.1-11.1,3.7l.6.6c-7.1-32.9-.1-56.5,22-81.2,3-5.6,5.4-12.1,11.3-15.1s15.6.7,22.8-3.1c5.1-.8,8-12.4,4-9.5Z"/><path d="M264.2,226.7c46.3-7.3,25.8,50.8,39.6,76.6-10.2-.3-26.6,2.9-33.9-2.6,2.7-8.5,2.4-16.6,14.3-13.3a145.3,145.3,0,0,1-8.3-33.8c.1,15.1-3.1,34.1-6.5,48.2,9,6.7,1.1,48,6.3,63.3-8.4-.5-18.5-3.1-26.9-4,14.6-43.9,9.8-91,16.2-136.5" fill="#343d4c"/><path d="M264.2,227.5c44.9-7.5,25.4,50.6,38.8,76l.8-1c-4,.1-36,2.3-32.7-3,4.6-15,1.3-10.2,13.9-12.3-5.1-10.6-5.6-24.2-9.3-34.1-1.6,16.3-2.6,32.8-7.1,48.7,7.5,5.1,2.9,14.9,3.8,23.2a298.9,298.9,0,0,0,2.6,40.1l.7-.7c-9-.6-17.9-3.1-26.9-4l.8.9c14.5-44.1,9.7-90.6,16.1-136.7-6,22.6-5.6,58-8,85-.1,56.4-29.2,50.6,18,56.3.7-12.8-2.8-28.1-1.8-41.9-.7-7.2,3.7-19.1-4.3-22.9l.5.7a217.7,217.7,0,0,0,6.6-48.2h-1.5a137.4,137.4,0,0,0,8.3,34l.9-1c-5.4-.8-12.1-1.6-12.6,5.5s-7,11.8,3.6,11.6,20.7,2.5,29.1-.6c-12.7-25.2,3.8-90.2-40.3-75.6Z"/><path d="M211.4,340.4c12.6,3.6,25.7,4.7,38.7,5.7,1,.1,1-1.4,0-1.5-12.8-1.1-25.9-1.9-38.3-5.7C211.1,338.9,210.7,340.1,211.4,340.4Z"/><path d="M198.4,353.5c-2.9,27.2,16.2,59.8,17.4,89.6,2.8,18.2,14.2,52.7,28.2,45.4,1-5.5-14-65.5-7-88.1-1.6-7.7-7.9-24.7-5.2-31.6-2.3,15,8.9,30.8,3,44.7,10.5-16,20.1-33.4,25-51.8-.4-1.2-9.2-.7-10.2-1,.3-2.7,5.3-12.3,3.6-14.9-10.4-4.5-22.7-4.7-33.9-6.6-14.3-3.8-7.6,15.7-17.9,16.3" fill="#343d4c"/><path d="M197.6,353.5c-3,21.3,8.8,40.7,12.2,61.3,5.5,18,7.8,77.8,34,75.1,2.2-18.9-7.3-40-7.7-59.7-1-8.8-1.5-17.6,2-25.8-.6-11.8-8.4-23.3-5.6-35.4l-1.4-.3c-2.4,14.9,8.8,29.9,3,44.6-.4.8.9,1.2,1.3.6,10.4-16.2,20.8-33.8,25.1-52.6-.9-1.9-9.3-1-10.9-1.4l.8,1c1.6-6.3,8.7-18.3-3.1-17.9s-39.6-13.8-40.4,6.8c-.6,2.4-2.5,5.4-5.3,5-3.9,3.1,6.6,1.2,6.8-5.1.2-9.9,7.4-11.1,15.3-9.2s17,2.6,25.1,4.3c9.9.2-2,12.9.8,16.6,1.3.5,9.8-.6,9.4,1.2A194.1,194.1,0,0,1,234.1,413l1.4.6c5.6-14.9-4.5-30.8-3.5-45.5-5.4,9.9,3.8,23.6,4.6,35.1-8,27.8,5,56.9,6.8,84.9-14.4,3.5-19.2-21.1-24-31.1-5.2-24.1-7.7-49-16.2-72.4a62.7,62.7,0,0,1-4.1-31.2C199.2,352.4,197.6,352.5,197.6,353.5Z"/><path d="M208.7,406.4c-.1,18.4-4.9,39.6-19.4,51.2,2.1,4.2,6.7,7.5,10,10.8,5.9-3.4,14.2-10.9,18.3-16.3" fill="#343d4c"/><path d="M207.9,406.4c.1,22.4-5.7,35.9-19,52,9.1,11.3,9.7,13.9,20.9,3,1.6-1.4,11.4-10.1,7.2-9.7-4.2,5.7-9.9,10.3-15.6,14.5-2.5,3.3-4.9-2.4-7.4-3.6-1-1.1-3.3-4.7-3.9-4.8,15-12.5,19-32.7,19.4-51.4C209.5,405.4,208,405.4,207.9,406.4Z"/><path d="M214.8,454.4c1.3-.6-.2-2.4-.9-1.2a.8.8,0,0,0,.9,1.2Z"/><path d="M237.3,225.7c.9.8,7.6,9.5,8.7,9.5a2.6,2.6,0,0,0,1.5-.4l20.4-11.5c-6.5,40.4-8.4,81.8-13.2,122.5-14.5-4.8-29.9-5.4-45.1-6,11.6-37.2,26.6-74,26-113.7" fill="#fff"/><path d="M236.8,226.2c2,1.6,6.8,9.7,9.6,9.8s19.1-10.7,21.9-12l-1.1-.9c-6.5,23.6-3.8,48.3-7.5,72.3-2.3,16.9-5.6,33.3-5.8,50.4l1-.8c-14.6-4.7-30.1-5.4-45.3-5.9l.6.9c10.8-36.8,29-76.4,25.1-114.4-.6,39.4-14.4,76.8-26.4,114,13.4,2.9,31.3,1.1,45.6,6.8,2.5-14.7,3.2-32.9,6.3-48.6,3.5-24.7,2.5-51.1,7.4-75.3-.7-.4-15.9,8.9-16.6,9s-4.6,3.4-6.2,2.4S236,221,236.8,226.2Z"/><path d="M237.3,227.3a63.1,63.1,0,0,0,10.6,9.4l-.3-.8c-.2.7-2.2,7.7-2.4,8.1s-2.4-1.4-3.1-1.8-8.7-9.4-8.2-5.7h0c1.4,2.2,10.4,11.2,12.6,8.2s1.7-6,2.5-8.4S235.7,223.1,237.3,227.3Z"/><path d="M249,237c2.1-2.1,18-12,13.8-13C261.3,226.9,245,236.1,249,237Z"/><path d="M248.9,239.2c10.3,5.5-3.2,9.9,17-3.6,1.1-4.5-11.2,6-12.5,7.8l1.3.3C254.8,240.2,247.1,234.9,248.9,239.2Z"/><path d="M237.3,225.7c.9.8,7.6,9.5,8.7,9.5a2.6,2.6,0,0,0,1.5-.4l20.4-11.5c-6.5,40.4-8.4,81.8-13.2,122.5-14.5-4.8-29.9-5.4-45.1-6,11.6-37.2,26.6-74,26-113.7" fill="#343d4c" opacity="0.25" style="isolation:isolate"/><path d="M245.8,245.9c.6.5,2.8,1.6,3.4,2.6a5.5,5.5,0,0,0,3.6-5.4C251.2,234.8,242.8,239.9,245.8,245.9Z" fill="#004fa6"/><path d="M245.2,246.3c3.4,3.7,6.9,3.4,8.3-1.9.8-6.8-8.1-9.2-9.1-1.7.3,5.4,3,5,1.5-.3h0l2.4-3.5-.5.4c5-.4,5.6,7.4,1,8.6h.9C248.9,247.1,245.6,243.8,245.2,246.3Z"/><path d="M249.1,248.5c2.1,32-39.3,48.4-15.4,81.5,4.4-7.5-.9-17,1.1-25.4,11.3-17.7,17.2-36.4,13.4-58.3" fill="#004fa6"/><path d="M248.4,248.5c1.7,31.9-39.4,48.9-15.3,81.9,9-6.7-5.7-23.8,10.1-39.3,6.7-11.8,9.7-35.8,4.3-44.8,3.6,21-1.6,40.1-13.3,57.4-2.5,8.4,3.2,17.9-1.1,25.9h1.3c-17.9-25.5,1.2-40.2,12.2-62C248.1,265.4,252.2,244.1,248.4,248.5Z"/><path d="M233.5,487.6A50.5,50.5,0,0,0,225,503c17.3-5.1,43.6,11.8,54.2-8.3a4.2,4.2,0,0,0-1.8-5.6,4.5,4.5,0,0,0-1.9-.5c-8.6-1.2-29.6,13.5-33.1.2"/><path d="M188.8,454.8c-1.5.8-15-1.9-14,1.8s3.4,8.3,5.4,12.4c7.2,7.8,3.3,40.6,18.7,33.8,8.1-12.7-11.2-25-4-37"/><path d="M273,288.7c-6.4,1.3-4.8-6.4-7.8-9.5s-17.3,4.6-13.7,7.3c2.9-2.3,6.3-4.4,10.3-4.1-3.1-.2-7.8,1.1-7.2,5.1,2.2.5,4.4-2.1,6.9-1.3-5.3-1.3-9.7,6.9-1.3,2.4-4.3.6-6.4,5-.3,3.7a3.7,3.7,0,0,0-3.5,2.5c12.8,1.2,12.6,11.2,15.8-5.7" fill="#f99a6b"/><path d="M273,288.2c-7.6,1.6-3.5-10.2-10.2-10.2-3,.3-16,5.4-11.4,8.8,3.2-1.9,6.3-4.5,10.4-4.1v-.8c-6-1.7-12.2,9.1-3.6,5.1.8-.8,4.7.4,3.4-1.2-6.3-1.7-10,8.1-1.3,3.3,1.1-3.5-11.2,5.3-.5,3.6v-.9c-1.5-.1-4.8,2.1-3.5,3.5,12.5,1,13.2,11.5,16.1-5.9,1.4-1.7-.3-1.1-.6-.7-3.6,16.9-2.7,6.6-15.5,5.7l.5.6c0-2.2,4-1.8,3.1-3.2-5.1,1-3.5-1.4.2-2.7v-.9c-7.3,3.9-3.2-2.8,1.3-1.5.3-3.4-6.7,2.1-6.4-.4-.3-4.2,8.1-2.6,6.7-4.4s-11.9,6-10.1,2.5c3.6-2.4,10.6-8.3,14.3-3.6,1,2.4.6,5.4,2.6,7.3s5.8,1.8,4.4.1Z"/><path d="M179.6,325.9c.8,6.2-7,12.2-5.5,16.8.7.6,6.2,5.6,6.9,6,3,.5,7.6-.6,8.3-4s-2.6-5.1-.2-6.8c1.5,2.5-.3,12.3,4.6,8.5,4.1-14-1.4-11-3.3-21.2-.6-4.5-8.3,1.1-10.6,1.3" fill="#f99a6b"/><path d="M179.2,325.9c.5,6.3-6.2,11.2-5.9,16.6,2.9,2.2,5.6,6.4,9.2,6.9s7.6-1.7,7.2-5.5c-.2-1.6-2.3-4.4-.3-5.6l-.7-.2c1.2,15.3,7.1,10.7,6.7-1.8.7-3.5-3.8-4.8-3.9-8.2s-1.4-6.3-5.2-4.6c0,.4-9.3,2.6-6.4,3.4l8.1-3c3-.1,1.9,4.4,3.2,6.3s4.5,5.2,3.1,9.2c.2,2.1-.3,9.9-3.4,6.9-1.3-2.9.6-7-2-8.7-3.1,1.9.8,5.4-.3,7.9s-6.4,3.8-8.2,2.2l-4.6-4.1c-4.3-2.2.4-5.4,1.5-8.2S181.7,325.8,179.2,325.9Z"/><path d="M188.2,345.2c-6.3-.2-3.4-8.1-5.2-7.2C180.5,341.2,187.5,348.6,188.2,345.2Z"/><path d="M185.5,346.6c-2.5-.2-3.7-3-3.9-5.3-2-1.1,0,3.6.6,4.3S187.2,348.4,185.5,346.6Z"/><path d="M183.9,347.7c-3.5-.1-3.6-3.1-5-5.4-1.8-.6.8,3.5.9,4.4S185,349.6,183.9,347.7Z"/><path d="M191.5,345.7v-.2h0v-.3h0c0-.1.1-.2.1-.3h.1v-.3c.1,0,.1,0,.1-.1h0l.3-.3c.1.1.2-.1.3-.2,3.9.4.8-2.1-1-.4S190.6,348.1,191.5,345.7Z"/><path d="M239.8,217a9,9,0,0,1-3.4,7.3c1.5.9,9.5,14.3,11.9,12.5,6.8-3.3,13.3-8.9,19.3-13.5A20.2,20.2,0,0,1,266,218c-2.8,2.7-7,3.8-9.8.7-5.5.5-10.9.4-16.1-1.3" fill="#f99a6b"/><path d="M239,217c.7,3.4-2.5,5.3-3.3,7.8,2.5,2.5,8,10.9,10.8,12.8,8.1-1.3,14.5-9.1,21.4-13.6.7-.6-1.3-7.5-2.4-6.6s-7.4,4.1-8.5,1c-5.4-.9-11.4.5-16.8-1.7-3.5,3.8,14.3,2.1,16.4,3.3,2.8,2.9,7.1.8,9.7-1.3l-1.1-.5a17.6,17.6,0,0,0,1.7,5.5l.2-1c-19.5,13.2-16.3,20.3-30.3,1.1l-.2,1.2c2.1-.9,6-9.3,2.3-8Z"/></svg>