<svg xmlns="http://www.w3.org/2000/svg" viewBox="0 0 500 600"><defs><style>.a{fill:#343d4c}.d{fill:#fc9b6b}.e{fill:#004fa6}</style></defs><path class="a" d="M266 315.3c-7.8 24-4.7 49.9-1.5 75"/><path d="M265.3 315.1c-6.1 18.9-5.5 39-3.5 58.5.6 5.5 1.3 11.1 2 16.7.1.9 1.6.9 1.5 0-2.5-19.4-5-39.2-2.3-58.7a96.5 96.5 0 013.7-16.1c.3-.9-1.1-1.3-1.4-.4z"/><path class="a" d="M264.8 320.4c10.9 3.8 43.4 2.7 50.1 0 2.4 11.9 7.3 32.9 8.2 45 1.6 21.4 8.3 42.7 5.2 63.9a3 3 0 01-.8 1.9 2.8 2.8 0 01-2 .3 116.2 116.2 0 01-21.1-3.5c-1.1-.3-6.8.8-7.6 0s-.7-4.3-.8-5.7c-1-8.6-.7-16.9-1.7-25.5 1.4.9 6.2-.2 6.8-1.7a8.8 8.8 0 00-.3-4.8l-5.9-21.6c-2.5 19.8.6 39.9 1.6 60 .2 5.5.3 11.1-1.3 16.4-.7 2.3-2 4.7-4.4 5.1s-3.4-.8-4.9-1.8c-21.9-14.9-41.4-33.8-65.7-44.4a4.2 4.2 0 01-1.5-1.1 3.1 3.1 0 01.3-2.3l6.1-14.6c2.5-1 5.2.3 7.5 1.5l34 17.9c2-2.7 1.4-6.6-.5-9.3s-4.9-4.5-7.8-6.2l-10.9-6.4 8.5-13.5a2.9 2.9 0 011.1-1.1 2.5 2.5 0 011.7.3l4.6 2.1"/><path d="M264.6 321.2a49.2 49.2 0 008.5 1.7c3.9.4 7.7.6 11.5.7a156.2 156.2 0 0022.7-.9 34.7 34.7 0 007.8-1.5l-1-.6c2 9.6 4.2 19.2 5.9 28.9.9 4.7 1.7 9.4 2.2 14.2s1.2 12 2.1 18c2 13 4.5 26 4 39.1l-.3 4.7-.3 2.4a6.4 6.4 0 01-.4 2.4c-.7 1.1-3.6.3-4.6.2l-5.5-.6q-4.6-.7-9.3-1.8a24.9 24.9 0 00-3.7-.9h-2.3l-3 .3c-1 0-1.6.2-1.9-.8a12 12 0 01-.2-3.3c0-1.6-.3-3.1-.4-4.6-.6-7.4-.5-14.8-1.3-22.1l-1.1.7c1.6.9 4 .3 5.7-.4a4 4 0 001.9-1.5 6.1 6.1 0 00.2-4.2c-.8-3.8-2-7.6-3-11.4l-3.1-11.5a.8.8 0 00-1.5.2c-1.6 12.9-.9 26 .1 38.9.4 6.6 1 13.1 1.4 19.6s.7 12.6-1.4 18.3c-1 2.9-3.2 4.9-6.3 3.4a57.7 57.7 0 01-7-4.8c-4.6-3.3-9.2-6.8-13.7-10.2-9-7-18-14-27.6-20.1a137.2 137.2 0 00-16.7-9.4c-1.2-.6-4-1.2-3.6-2.9s1.4-3.2 2-4.8l4.5-10.5-.6.5c3.6-1.2 7.4 1.7 10.4 3.3l10.2 5.3 20.3 10.8a.7.7 0 001-.3c3.2-4.4.4-10-3.3-13a53 53 0 00-7.1-4.5l-9-5.4.2 1.1 6.2-9.7 1.4-2.3c.4-.6.9-1.8 1.4-2.1s2.7.7 3.4 1l2.5 1.2c.9.4 1.7-.9.8-1.3l-3.1-1.5a14.8 14.8 0 00-2.7-1c-1.8-.3-2.6 1.4-3.4 2.7l-7.8 12.2a.8.8 0 00.3 1c4.8 2.8 9.8 5.4 14.4 8.6s7.8 7.7 4.5 12.3l1-.3-23.1-12.2-11.4-6a14.6 14.6 0 00-5-1.6 5.5 5.5 0 00-2.5.4c-.6.3-.8 1.2-1.1 1.9l-5 11.8c-.5 1.4-1.5 3.1-.5 4.5s2.7 1.6 3.9 2.2a150.5 150.5 0 0119.5 11.1c12.5 8.4 24.1 18 36.2 26.9a94.7 94.7 0 009.2 6.4 5.4 5.4 0 007.5-1.8c1.9-2.8 2.3-6.7 2.6-10a97.7 97.7 0 00-.1-12.1c-1-17-3.3-34.1-2-51.2q.1-3.2.6-6.3l-1.5.2 5.1 18.7c.3 1.5.8 2.9 1.1 4.4s.5 2.7-.7 3.4-3.7 1.5-5 .8-1.2 0-1.1.6c.8 7 .7 14.1 1.2 21.1.1 1.5.3 3.1.5 4.6s0 2.3.1 3.4.5 2.9 2.2 3.1a25.4 25.4 0 005.5-.3 11.7 11.7 0 012.7.4 52.3 52.3 0 005.4 1.2c3.2.7 6.5 1.2 9.8 1.6 1.6.1 3.3.4 4.9.4a2.7 2.7 0 002.6-1.2 10 10 0 00.8-4.1c.2-1.8.4-3.5.5-5.2.1-3.5.1-7-.1-10.4-.4-6.8-1.4-13.4-2.4-20.1s-2.3-14.1-3-21.1c-.6-5.1-1-10.2-1.8-15.3-1.9-11.6-4.6-23.1-6.9-34.7a.9.9 0 00-.9-.5 29 29 0 01-6.5 1.4c-3.3.4-6.8.6-10.2.8a149.8 149.8 0 01-23.2-.4 40.4 40.4 0 01-9.8-1.8c-.9-.3-1.3 1.1-.4 1.5z"/><path d="M262.4 371.4c-.3 10.2 3.9 19.8 4.6 29.9 0 .9 1.5 1 1.5 0-.7-10.1-4.9-19.7-4.6-29.9a.8.8 0 00-1.5 0z"/><path d="M219.3 397.6l-4.4-2.5c-.3-.1.3-.3 0-.2a3.8 3.8 0 00-1.6.5 33.4 33.4 0 00-6.8 17.3c-.3 3.4.1 6.8-.7 10.1s-3.4 7.5-6.4 10.8a7.1 7.1 0 01-3.4 2.4c-2.5.7-5.1-.8-7-2.2s-2.8-2.1-3.2-3.6a6.2 6.2 0 01.7-3.7c6.5-14.7 19.9-27.9 21-43.2a1.9 1.9 0 011.1-2 2.7 2.7 0 011.9.4 60.5 60.5 0 0112.3 8m34.1-20.5c-1.9-.1-3.4-1.4-4.7-2.8-3.7-3.7-7-8.2-11.9-10.1a1.8 1.8 0 00-1.6-.2 2 2 0 00-.7.9c-1 2.1-.6 4.6-.8 6.9-.8 7.3-8.2 12.4-9.5 19.6a1.7 1.7 0 00.1 1.2 2 2 0 00.9.6l7.4 2.9a1.9 1.9 0 001 .3 2.6 2.6 0 001.4-.9 39.1 39.1 0 007-10 4.9 4.9 0 012.1-2.6c1-.5 2.6.3 2.4 1.4" fill="#111"/><path class="a" d="M284.9 216.7c17.3 20.8 20.8 49.4 23.6 76.3 2 18.6 3.9 37.3 5.9 56a3 3 0 003.5 3.4h14.3a2.9 2.9 0 002.1-.5 2.6 2.6 0 00.4-2.3 766.6 766.6 0 00-24.6-110 36.8 36.8 0 01-2-9.3 39.7 39.7 0 011.2-9 407.2 407.2 0 007.1-118.1 6.7 6.7 0 00-1.1-3.7 6.4 6.4 0 00-4.1-1.4 53.9 53.9 0 00-11.3.6c1.3 18.8-9.8 85.1-10.5 87.8-2.4 9.9-2.7 21.2-6.5 30.8-.5 1.4-6.7 2.9-6.7 2.9"/><path d="M284.4 217.2c16.3 19.7 20.2 46.2 22.8 70.9 1.7 14.9 3.2 29.8 4.7 44.7l1.3 11.6c.1 1.7.3 3.4.5 5.1a3.9 3.9 0 001.8 3.2c1.2.7 3 .4 4.3.4h11.5c1.2 0 2.8.1 3.7-1s.5-2.2.3-3.3-.5-3.7-.8-5.6l-1.8-11c-1.3-7.4-2.6-14.8-4.1-22.2-3-14.7-6.3-29.2-10.1-43.7-1.9-7.3-4-14.6-6.1-21.8-1.1-3.6-2.3-7.1-3.1-10.7s-.3-7.6.5-11.5a404.6 404.6 0 006.8-43.9 394 394 0 002-44.8c-.1-7.5-.3-15.1-.8-22.6-.2-1.8-.3-3.6-.4-5.4s-.1-3.5-.7-5-3.8-3.2-6.4-3.4a53.5 53.5 0 00-10.6.7c-.3 0-.5.4-.5.7.5 6.9-.3 14-1 20.9-.9 9.5-2.1 18.9-3.5 28.4s-2.4 16.8-3.8 25.3c-.7 4.2-1.3 8.6-2.2 12.8-1.6 7.3-2.3 14.8-3.9 22.1-.4 1.9-.9 3.8-1.4 5.6s-.7 3.1-2 3.8a21.4 21.4 0 01-5.4 1.8.8.8 0 00.4 1.5 36.8 36.8 0 004.7-1.5 5.7 5.7 0 002.1-1.3c.9-.9 1.2-2.7 1.6-3.9 2.2-7.1 2.9-14.6 4.2-22 .9-5.1 2-10.2 2.8-15.3 3-17.8 5.6-35.6 7.5-53.5.9-8.1 1.9-16.5 1.4-24.7l-.6.7a45.9 45.9 0 0111.1-.5c1.7.1 3.5.4 4.1 2.2a18.8 18.8 0 01.6 5.3c.6 7.3 1 14.6 1.1 21.9a417.4 417.4 0 01-1.2 43.3 393.6 393.6 0 01-6 43.2c-.6 3.5-1.5 7-2 10.5a23.6 23.6 0 00.3 9.9c.8 3.5 2 6.8 3 10.3l3 10.4a787.3 787.3 0 0118.5 84.9c.2 1.7.5 3.4.8 5.1l.3 2.4c.2 1 .9 2.9-.5 3.3a9.9 9.9 0 01-2.4.1h-13.4c-1.1-.1-1.8-.4-2.1-1.6s-.3-2-.4-3l-1.1-11.1c-1.6-14.7-3.1-29.5-4.7-44.2-2.4-23.4-5.4-48.3-18.5-68.5a71.7 71.7 0 00-5.2-7.1c-.6-.7-1.6.4-1 1.1z"/><path class="a" d="M252.6 223.2c-.8 3.9-5.7 5.9-9.6 4.9s-7.1-3.8-10.1-6.6c-9.7-8.8-20.3-16.5-30.9-24.3L151.3 160l-7.4 10.8a6.5 6.5 0 00-1.6 3.7c.1 1.8 1.6 3.2 3.1 4.4 19.1 15.2 40.9 27.2 58.6 44 32.7 31.2 62.4 92.6 32.8 127.1 4.2.5 28 5 32.1 4.1 1.5-.3-1.2-10.2-.4-11.5a6.3 6.3 0 00.4-3.6l-5.2-53.9c-1.9-19.6-4-39.8-12.6-57.5"/><path d="M251.9 223c-.7 3-3.7 4.5-6.6 4.6s-6.8-2.2-9.4-4.4-6-5.4-9.1-7.9l-9.4-7.6c-13.7-10.5-27.9-20.5-41.8-30.8l-24-17.5a.7.7 0 00-1 .2l-4.2 6.2c-1.4 2-2.9 3.9-4.1 6-2.1 4.1 1.3 6.7 4.3 9 7.1 5.5 14.6 10.7 22.1 15.8 14.3 9.9 28.7 20 40.6 32.8a165 165 0 0125.5 36.5c6.6 13 11.8 27.2 13.1 41.9 1.2 13.1-.9 26.6-8.5 37.6a40.1 40.1 0 01-3.1 4.1.8.8 0 00.5 1.3c7.1.8 14.2 2.3 21.3 3.3a63.8 63.8 0 009.8.9c1-.1 1.8-.2 2.1-1.3s0-3.2-.2-4.7a33.3 33.3 0 01-.7-5.4c0-.8.4-1.2.5-2a15.5 15.5 0 00-.2-4.8l-2.2-22.5c-1.4-14.5-2.6-29.1-4.3-43.5s-4.6-30-11.2-43.6c-.4-.9-1.7-.1-1.3.8 5.8 11.9 8.6 25 10.4 38s3 27.9 4.3 41.8l2.1 21.8a95 95 0 011 10.6 11.8 11.8 0 01-.6 2.7 13.4 13.4 0 00.1 2c.2 1.8.5 3.6.7 5.5a16.4 16.4 0 01.2 2.2 1.5 1.5 0 01-.1.7c0 .3.3 0 0 .1a9.1 9.1 0 01-3.3 0l-5.1-.5c-7.8-1-15.5-2.7-23.3-3.6l.6 1.2c8.6-10 12.4-22.9 12.3-36s-4.1-28.4-9.8-41.4a165.2 165.2 0 00-23.7-38.1c-10.5-12.7-23.2-23-36.6-32.6-7.5-5.3-15.2-10.4-22.7-15.8q-5.7-4-11.1-8.4c-1.9-1.5-3.4-3.2-2.2-5.6a48.9 48.9 0 014.1-6l4.2-6.2-1 .3 44.7 32.7c7.3 5.4 14.6 10.7 21.8 16.2 3.5 2.7 6.9 5.4 10.2 8.3s5.9 5.4 9.1 7.9 6.4 3.8 10.1 3.1 5.8-2.4 6.5-5.5c.2-1-1.2-1.4-1.4-.4z"/><path d="M253.9 224c-2.7 1.7-1.9 6-1 9.2 3.3 10.9 5.5 22.2 7.8 33.5 2.6 13.6 5.3 27.4 5.5 41.3.1 7.5.5 30.3 2.7 37.4.1.6 43.5-5.1 43.5-6.2.6-37.8-6.6-92.1-27.5-122.3-2.9 1.5-6.5 2.2-7.6 3.4s.4 5.6.4 6.7c-.2 4.3-2.7 9.1-6.7 9.2-1.8.1-3.5-.9-5.1-1.8l-10.7-6.3" fill="#d3e0e7"/><path d="M253.5 223.3c-2 1.4-2.4 3.9-2.1 6.2s1.4 6 2.2 9c2 7.3 3.6 14.8 5.1 22.2 3 14.8 6.2 29.8 6.7 44.9.3 9.2.3 18.4 1 27.6A67 67 0 00268 345c.2.9.4 1.2 1.3 1.2h2.1c6.4-.6 12.8-1.5 19.1-2.4s13.1-1.7 19.5-3l2.1-.5c.9-.3 1.1-.7 1.1-1.6 0-5.4 0-10.8-.3-16.1a309 309 0 00-3.2-34.6 249.9 249.9 0 00-7.7-35.1 143.1 143.1 0 00-12.5-30c-1.3-2.1-2.6-4.2-4-6.2a.7.7 0 00-1-.3c-1.9.9-4 1.5-6 2.4s-2 .9-2.2 2.1a14.6 14.6 0 00.4 4.1 9.5 9.5 0 01-.1 4.1c-.8 3.7-3.4 7.7-7.6 6.1-2.3-.8-4.4-2.4-6.5-3.6l-6.9-4.1c-.8-.5-1.6.8-.8 1.3l11.1 6.6c2.6 1.5 5.6 2.5 8.3.6a10.6 10.6 0 004-6.8c.4-2.4-.2-4.5-.4-6.9a3.3 3.3 0 01.1-1.4c.2-.5 1.4-.8 1.9-1a50.9 50.9 0 005.4-2.2l-1-.3a115.5 115.5 0 0113.6 27.5 206.7 206.7 0 018.6 32.9 280.5 280.5 0 014.4 34.2c.4 5.4.7 10.8.8 16.2.1 2.6.1 5.2.1 7.9v1.6a3.4 3.4 0 000 1v.3h.1c-.1 0 .4-.2-.1 0a50.4 50.4 0 01-5.6 1.1l-9.6 1.5c-7 1-13.9 1.9-20.9 2.7-2 .2-4 .5-6 .6h-.6c0 .1.2 0 .3.1s.2.4.2 0a2.4 2.4 0 01-.2-.8 41.7 41.7 0 01-.8-5.1c-1.1-9-1.3-18.2-1.5-27.2-.1-5.6-.3-11.2-.9-16.7-.8-7.2-2-14.3-3.3-21.3s-2.8-14.3-4.3-21.5l-2.4-10.4c-.9-3.4-2-6.7-2.8-10.1s-1.2-5.6 1-7.1 0-1.9-.8-1.3z"/><path d="M248.8 226.9a107.2 107.2 0 01-6.3 22.8c-.3.5.4 1.1.9.9 2.4-.9 4.8-2 7.3-2.7.1 0 .6-.1.6-.2s-.5-.5-.5-.3v.2a8.4 8.4 0 00-.5 1.7c-.6 1.4-1.2 2.7-1.9 4a.7.7 0 00.3 1c2.4 1.2 4.1 3.5 5.5 5.8a48.7 48.7 0 013.7 8.4c1.1 3 2.1 6.1 3 9.1a41.9 41.9 0 012.3 11.6.8.8 0 001.5 0 44.7 44.7 0 00-2.3-12c-1.1-3.3-2.1-6.5-3.2-9.7a46.1 46.1 0 00-4.1-8.7 14.5 14.5 0 00-5.7-5.8l.3 1a51.1 51.1 0 002.2-4.8c.3-.9.9-2.5-.3-2.9s-2.6.6-3.4.9l-5.2 2 .9.9a101.6 101.6 0 006.3-22.8c.2-1-1.3-1.4-1.4-.4zm37.9-7.1c3.2 1.9 5.9 4.4 8.8 6.7 1.2.9 2.3 1.9 3.6 2.7l1.3.6.6.2h.4l-.7-.3c-.2-.5-.1-.4-.2.1l-.3 1.1a13.1 13.1 0 00-.6 2.7 4.2 4.2 0 00.2 2.2c.4.7 1.6 1.1 1.9 1.9s0 1.1.1 1.5.1 2.3.2 3.4c.5 6.9 1.1 13.8 1.9 20.7a26.6 26.6 0 001.2 7.4c.3.8 1.8.5 1.4-.4a34.7 34.7 0 01-1.1-6.3c-.4-3.6-.7-7.1-1-10.6-.5-5.2-.7-10.5-1.2-15.7a2.5 2.5 0 00-1-1.7c-.4-.4-.9-.6-1.1-1.2a2.2 2.2 0 010-1.4c.2-1 .5-1.9.7-2.9s.5-1.1.2-1.6a.8.8 0 00-.6-.4c-.7.1-1.3-.4-2-.8a35.7 35.7 0 01-3.8-3 68.6 68.6 0 00-8.1-6.1.8.8 0 00-.8 1.3z"/><path class="d" d="M252.8 223.6c.1 6 11 9.5 17.1 11.5a6.2 6.2 0 002.2.2c2.6-.3 4.1-3 4.9-5.4s1.6-5.7.5-8.3-3.9-4.2-4.8-6.9c-2.7 1.6-3.2 4.4-6.5 5.6s-7.8 0-10 0h-3.4z"/><path d="M252.1 223.6c.2 6 8.1 8.9 12.8 10.6 2.6 1 6.1 2.7 8.8 1.4s4.6-6.2 5-9.4a8.8 8.8 0 00-1.5-6.5c-1.2-1.7-3-3.1-3.8-5.2a.8.8 0 00-1.1-.5 18 18 0 00-3.6 3.7 8.7 8.7 0 01-6.4 2.5 28.4 28.4 0 01-5.1-.6 32 32 0 00-4.4-.1.7.7 0 00-.7.8v3.3a.8.8 0 001.5 0v-3.3l-.8.7a35.3 35.3 0 014.6.1 26.7 26.7 0 005.6.6 11 11 0 006-2.2c1.4-1.3 2.3-3.1 4-4.2l-1.1-.4c1.2 3 4.4 4.8 5.2 7.9a11.5 11.5 0 01-.5 6.1 10.9 10.9 0 01-2.4 4.5c-2.2 2.3-5.3.6-7.9-.3a44.9 44.9 0 01-7.8-3.4c-2.2-1.3-4.8-3.3-4.9-6.1a.8.8 0 00-1.5 0z"/><path d="M271.5 236.1c-4.2 2.6-8.1 5.9-10.4 10.5l1-.3a8.5 8.5 0 01-2.5-2.1 38.9 38.9 0 01-6.1-9.9c-.4-.8-1.7-.1-1.3.8a39 39 0 006.3 10.1 9.6 9.6 0 002.9 2.4.7.7 0 001-.3c2.1-4.3 5.9-7.4 9.9-9.9.8-.6.1-1.9-.8-1.3zm3.7.4a69.9 69.9 0 018-.8h5.3c1.3-.4.5-2.2.3-3s-1.1-4.4-1.6-6.6a35.2 35.2 0 01-1.3-7.9c-.1-.9-1.6-.9-1.5 0 .1 4.4 1.5 8.9 2.6 13.1l.6 2.6a1.7 1.7 0 00.1.7c.1 0 .5-.7.5-.6h-4.9a59.7 59.7 0 00-8.5.9c-1 .2-.6 1.6.4 1.4z"/><path class="e" d="M266.6 240.7a8.2 8.2 0 006.4 5c1.3.1 4.8-3.9 5.1-4.4s1.6-4.7.7-6.3-12.4 4.9-12.2 5.7z"/><path d="M265.9 240.9a8.1 8.1 0 003.2 4.1c1.3.9 3.4 1.9 4.9 1.2a10.5 10.5 0 003.2-2.7 9.3 9.3 0 002.2-3 7.1 7.1 0 00.1-5.7c-.4-.8-1.3-.8-2.1-.7a11.5 11.5 0 00-3.1 1.1l-3.6 1.8-3.3 2c-.6.5-1.6 1-1.5 1.9s1.6.6 1.5-.4a4.3 4.3 0 01-.1.5l.2-.2.7-.5 2.5-1.6a29.1 29.1 0 015.9-2.8 3.5 3.5 0 011.1-.3h.5s0-.2.1.1a4.3 4.3 0 00.1.5 5.3 5.3 0 010 2.5 6.5 6.5 0 01-1.5 3 16 16 0 01-2.6 2.6c-.4.3-.9.7-1.2.7a5.1 5.1 0 01-2.4-.7 6.3 6.3 0 01-3.3-3.7c-.3-1-1.8-.6-1.5.3z"/><path class="e" d="M272.2 245.2c.5 13.4-9.8 24.9-21.4 31.5-4.3 2.5-8.9 4.5-12.5 7.8a36.6 36.6 0 00-8 11c-3 5.5-5.5 11.8-4.4 18s7.3 11.9 13.4 10.4a23.5 23.5 0 01-2.7-11.5c.4-7.5 5.6-13.9 11.4-18.7s12.5-8.5 17.7-13.9a38.9 38.9 0 0010-33.5"/><path d="M271.5 245.2c.4 14.5-11.2 25.5-23 31.9a63.5 63.5 0 00-9.6 5.9 30.4 30.4 0 00-7.3 8.6c-3.8 6.3-7.6 13.9-6.5 21.5s7.3 13.1 14.4 11.5a.7.7 0 00.4-1.1 24.5 24.5 0 01-2.6-10.3 18.7 18.7 0 012.3-8.6c2.9-5.4 7.7-9.5 12.6-13.1s10.4-7.2 14.7-11.8a39.7 39.7 0 008.3-14.7 40.3 40.3 0 001.2-18.9c-.2-.9-1.6-.5-1.4.4a38 38 0 01-10.2 33.1c-8.5 8.7-21.2 13.5-26.8 24.9a21.1 21.1 0 00-2.2 9.2 27.3 27.3 0 002.8 10.5l.5-1.1c-6.9 1.6-12.3-5.4-12.7-11.6a26.1 26.1 0 012.5-11.6 57.3 57.3 0 015.4-9.7 29.7 29.7 0 018-7.8c3.1-2 6.4-3.6 9.5-5.4a50.8 50.8 0 0014.4-12.5c4.2-5.5 7-12.2 6.8-19.3a.8.8 0 00-1.5 0z"/><path class="d" d="M301.8 97.3c-1.1-3.4-2-6.9-1.3-10.4.3-1.6 1-3.1 1.4-4.7 1-4.6-.6-9.7 1.2-14.1.2-.3.3-.6.5-.7s1.5.2 2 .9a10.3 10.3 0 011.6 5.4 6.5 6.5 0 000 2.4 2.4 2.4 0 001.3 1.9 2.5 2.5 0 002.2-.3 10.7 10.7 0 003.1-2.5c5.3-5.4 8.9-12.4 14.4-17.7.6 1.1 0 2.5-.6 3.6a87.3 87.3 0 01-7.4 10.6c5.1-4.2 7.3-11.3 12.9-14.8a2.3 2.3 0 01-.2 1.6 68.9 68.9 0 01-9.3 14.5c4.6-4.3 7.1-10.6 12.3-14.1a6 6 0 01-1.1 3.8 74 74 0 01-8.2 11.9c2.8-3.5 5.8-7.1 9.9-9.1a.6.6 0 01.7 0c.3.2.2.7-.1 1.1-2.8 4.7-5.7 9.5-9.6 13.2-2.1 2-4.4 3.7-6.3 5.7a34.3 34.3 0 00-3.6 4.9c-2.1 3.1-4.3 6.3-5.4 9.8"/><path d="M302.5 97.1a26.9 26.9 0 01-1.5-7.9c.1-2.6 1.3-4.9 1.7-7.4a41 41 0 00.3-7c0-1.1 0-2.3.1-3.4a10.6 10.6 0 01.4-1.9 1.9 1.9 0 01.2-.8c.3-.7.8-.6 1.2-.1 1.6 2.2 1.3 4.5 1.5 6.9s1 3.4 2.9 3.4 3.6-1.7 4.9-3a41.5 41.5 0 004.3-5.1c3.3-4.3 6.3-8.9 10.2-12.7l-1.2-.2c.6 1.2-.5 2.6-1 3.6l-2.1 3.3c-1.5 2.2-3.1 4.3-4.7 6.4s.3 1.7 1 1.1c5-4.3 7.2-11.2 12.8-14.8l-1.1-.4c.2.7-.6 1.9-.9 2.6l-1.1 1.9a27.1 27.1 0 01-2.1 3.7 73 73 0 01-5.2 7.2c-.6.7.3 1.7 1 1 4.5-4.3 7-10.4 12.2-13.9l-1.1-.7c.1 1.7-.8 3-1.6 4.4s-1.4 2.5-2.2 3.7a72.7 72.7 0 01-5.3 7.1l1 1c2.2-2.7 4.4-5.5 7.3-7.5.5-.3 1.4-1.2 2.1-1.2s.1-.6-.1 0l-.4.6c-.2.4-.5.8-.7 1.3l-3 4.5a37.6 37.6 0 01-7.5 8.4 42 42 0 00-7.3 7.9c-2.3 3.5-4.7 7-6 10.9a.7.7 0 101.4.4c1.4-4.1 4-7.7 6.4-11.2a27.9 27.9 0 014.2-4.9c1.6-1.4 3.3-2.7 4.8-4.2a54.5 54.5 0 007.2-9.4l1.6-2.6a4.5 4.5 0 001-2.1c.1-1.7-1.6-1.3-2.6-.8-3.9 2-6.7 5.5-9.4 8.9-.6.7.4 1.8 1 1a62 62 0 005.8-7.7l2.6-4.3a7.9 7.9 0 001.2-4.2c-.1-.5-.6-1-1.2-.6-5.3 3.6-7.8 9.8-12.4 14.2l1 1a68.9 68.9 0 006-8.2 49.2 49.2 0 002.4-4.5c.7-1.2 1.7-2.7 1.3-4.1a.8.8 0 00-1.1-.5c-5.7 3.7-7.9 10.6-13 15l1 1.1a82.7 82.7 0 005.7-7.9c1.3-2 3.6-4.7 2.4-7.2a.8.8 0 00-1.2-.2 99.9 99.9 0 00-9.1 11.3c-1.5 2-3 4-4.6 5.8s-5.7 5.6-6 1.4c-.1-1.1.1-2.1-.1-3.2a9.1 9.1 0 00-1-3.3c-.6-1.3-2.1-3.4-3.7-2.2a4.7 4.7 0 00-1.1 2.5 14.9 14.9 0 00-.5 3.6c-.1 2.5.2 5.1-.1 7.6s-1.7 5.4-1.9 8.2a26.3 26.3 0 001.6 8.8c.3.9 1.8.5 1.4-.4z"/><path class="d" d="M146.9 163.3c-1.3-3.2-3-6.5-5.8-8.6-1.3-1-2.8-1.7-4.1-2.7-3.9-2.8-6.1-7.6-10.3-9.7a1.3 1.3 0 00-.8-.3c-.8.1-1 1.2-.9 2a9.7 9.7 0 002.4 5.1c.5.6 1.1 1.2 1.6 1.9a2.4 2.4 0 01.2 2.3 2.6 2.6 0 01-1.8 1.2 13.5 13.5 0 01-4 .2c-7.5-.7-14.8-3.5-22.4-3.9.2 1.2 1.6 1.8 2.8 2.2a79.1 79.1 0 0012.5 3.2c-6.6.2-12.9-3.7-19.4-2.7.1.5.7.8 1.2 1.1a66.6 66.6 0 0016.5 4.8c-6.2-.2-12.3-3.3-18.5-2.5a5.8 5.8 0 003.3 2.1 68.6 68.6 0 0014 3.6c-4.4-.8-9-1.6-13.3-.4a.9.9 0 00-.6.4c-.2.4.3.8.8.9 5.2 1.7 10.5 3.3 15.9 3.6 2.8.1 5.7-.2 8.5.2a38.6 38.6 0 015.9 1.2c3.6 1 7.3 2 10.5 3.9"/><path d="M147.6 163a29.4 29.4 0 00-3.4-6.3 21.8 21.8 0 00-5.8-4.6c-3.8-2.4-5.9-6.5-9.4-9.3-1.1-.8-3.3-2.4-4.4-.8s0 4 .7 5.5a16.4 16.4 0 002 2.6c1 1.1 2.3 2.8.2 3.6s-5.8.1-8.2-.4c-6.1-1-12.1-2.9-18.3-3.3a.7.7 0 00-.7 1c.7 2.5 3.9 3 6 3.6a66.4 66.4 0 009.8 2.3l.2-1.4c-6.7 0-12.9-3.7-19.6-2.7a.7.7 0 00-.5 1.1c.5 1.1 1.9 1.5 3 1.9l5 1.9a58.2 58.2 0 0010.2 2.4l.2-1.5c-6.3-.2-12.2-3.2-18.5-2.4a.8.8 0 00-.7 1.1c1.7 2.3 5 2.9 7.6 3.7a71.6 71.6 0 0010.2 2.3c1 .1 1.4-1.3.4-1.4-3.9-.7-7.9-1.4-11.9-.8-1 .2-3.3.4-2.9 1.9s2.8 1.7 3.9 2.1a61.7 61.7 0 0011.9 2.6c4.3.4 8.6-.2 12.9.8s9.2 2.2 13.2 4.5a.8.8 0 00.8-1.3c-3.8-2.2-8.2-3.3-12.5-4.4a30 30 0 00-6.7-.9h-7a65.3 65.3 0 01-13.9-3.2c-.1-.1-1.2-.6-1.1-.1l1.8-.4a17 17 0 013.9-.2 59 59 0 017.2.9l.4-1.4c-3-.5-5.9-1.1-8.9-1.9l-4.2-1.4a7.2 7.2 0 01-3.8-2.1l-.6 1.2c6.3-.8 12.3 2.2 18.5 2.4.8.1 1-1.3.2-1.4a88.2 88.2 0 01-8.9-2c-1.4-.5-2.8-.9-4.2-1.5l-2.1-.8c-.7-.3-1.8-.5-2.1-1.3l-.4 1.1c6.5-.9 12.7 2.8 19.2 2.8.8 0 1.1-1.4.2-1.5-2.7-.5-5.3-1.1-7.9-1.8l-3.7-1.1c-1.1-.3-2.8-.7-3.2-2l-.7.9c5.4.3 10.6 1.8 15.8 2.9a64.6 64.6 0 007.5 1.1c1.7 0 4.3 0 5.4-1.6s-.1-3.5-1.2-4.7a8.5 8.5 0 01-2.7-4.8c-.1-.7-.3-1.6.8-1.3s1.9 1.3 2.6 1.9l2.3 2.4a30.6 30.6 0 004.2 4.6c2.1 1.7 4.6 2.7 6.5 4.7a25.8 25.8 0 014.1 7c.4.9 1.7.1 1.3-.7z"/></svg>