<svg width="500" height="600" xmlns="http://www.w3.org/2000/svg" xmlns:xlink="http://www.w3.org/1999/xlink"><defs><path id="a" d="M0 .454h182.161v197.653H0z"/></defs><g fill="none" fill-rule="evenodd"><g transform="translate(169 58.546)"><mask id="b" fill="#fff"><use xlink:href="#a"/></mask><path d="M172.495 104.535a166.134 166.134 0 01-.88 4.533 4.565 4.565 0 00-.15.715c-.653 3.113-1.363 6.22-2.055 9.314-.385 1.707-.863 4-2.493 4.992-.929.565-3.584.36-3.358-1.235a1.023 1.023 0 00-.251-.841c.132-8.737-1.17-17.39-2.821-26.02.567-.086 1.087-.41 1.442-.944a9.54 9.54 0 01.213-.313 10.6 10.6 0 01.077-.102l.121-.148c.065-.076.133-.151.2-.226.325-.356.685-.663 1.042-.984.005-.005.004-.005.007-.01.002 0 .004 0 .006-.002.082-.058.162-.118.245-.174a10.696 10.696 0 011.508-.865c.044-.021.09-.043.136-.062.135-.061.093-.043-.13.052.09-.113.511-.195.64-.238a10.789 10.789 0 011.315-.347c.099-.02.198-.036.298-.054-.004-.001-.008 0-.01-.002.001 0 .007 0 .01.002.024-.004.048-.01.073-.013.287-.05.034.019-.055.017.064.008.25-.01.42-.03a5.22 5.22 0 011.663.884c3.563 2.9 3.516 7.99 2.787 12.1m-11.213 19.763a72.355 72.355 0 01-.425 4.813 4.567 4.567 0 00-.237 1.915 61.142 61.142 0 01-.956 4.947 47.123 47.123 0 01-5.692 11.789.615.615 0 00-.026-.027c-2.853 3.262-6.216 6.097-9.69 8.699-6.52 4.885-13.28 9.474-20.046 14.006a664.006 664.006 0 01-12.111 7.92.987.987 0 00-.41.5c-1.324.828-2.691 1.579-4.147 2.168-5.438 2.197-11.213 1.196-16.55-.778-5.017-1.856-9.825-4.38-14.589-6.801-8.522-4.33-17.004-9.164-23.92-15.85-7.166-6.93-11.758-15.658-13.307-25.516-1.608-10.22-.255-20.7 1.145-30.86.669-4.842 1.372-9.704 1.9-14.58 4.798 2.555 9.913 3.123 13.707-2.78 1.774-2.76 2.925-5.86 3.617-9.093 2.743 1.8 5.757 2.758 9.073 1.854 3.219-.877 5.773-3.393 7.232-6.317 1.26-2.527 1.004-5.807 2.309-8.193 3.06 1.719 6.442 2.798 9.908 2.926 7.94.293 12.318-5.733 14.79-12.523 3.907 2.043 8.844 2.068 12.69-.2.25.629.537 1.242.86 1.84 1.492 4.483 5.444 8.04 10.014 9.386 2.989.88 6.141.729 8.984-.557.065-.03.133-.066.197-.097-.042 5.918 1.22 11.675 5.624 16.26 3.934 4.096 9.6 5.728 14.802 4.666.016.08.03.163.047.244.004.126.01.25.016.377.028.883.238 1.72.564 2.505.358 1.766.719 3.532 1.073 5.295 2.121 10.532 4.112 21.27 3.554 32.062m-58.766 66.836c-1.555 2.528-3.877 5.22-7.122 4.957-3.122-.254-4.815-3.378-6.049-5.964a.95.95 0 00.129-.48v-7.84c3.34 1.313 6.8 2.298 10.397 2.48.85.043 1.677.008 2.493-.062v6.416c0 .18.064.344.152.493m-66-67.791a.416.416 0 00-.131.089c-.085.093-.157.222-.148.353.003.038 0 .075-.003.113a.806.806 0 01-.029.107.74.74 0 01-.05.086c-.038.039-.075.078-.114.116a.522.522 0 00-.137.31l-.013-.002a.939.939 0 00-.91.018c-1.873 1.012-3.694-.704-4.836-2.065-1.343-1.603-2.268-3.577-3.218-5.425-1.98-3.86-3.703-8.162-3.096-12.583.476-3.46 2.47-7.194 6.102-8.083 2.962-.725 6.71.515 7.661 3.644a.92.92 0 00.762.67c-1.065 7.533-1.97 15.074-1.84 22.652M99.186 3.83a24.903 24.903 0 00-4.565-1.323c1.599.136 3.145.598 4.565 1.323m82.837 96.855c-.151-1.146-.475-2.216-.779-3.327-.394-1.438-.102-2.614.218-4.03 1.046-4.628-.444-9.534-3.867-12.812 3.084-7.248 1.282-16.171-4.569-21.53.052-1.364-.36-2.57-1.01-3.674a5.73 5.73 0 00-1.974-2.53 37.213 37.213 0 00-.88-.896 19.251 19.251 0 00-.477-.448c-.346-2.881-.71-5.818-1.382-8.6a23.75 23.75 0 00-.135-1.3c-.442-3.26-1.495-7.136-3.893-9.54-1.633-1.641-4.282-2.351-6.293-1.255-1.059-2.558-2.552-4.985-4.433-7.032-.977-1.535-2.234-2.88-3.873-3.892-2.35-1.45-5.076-1.596-7.518-.836-.484-3.513-2.808-6.705-6.26-7.962-3.984-1.452-8.647.266-11.084 3.63-2.257-2.875-4.824-5.711-8.375-6.871-2.741-.894-6.003-.628-8.306 1.126-.103-.098-.203-.202-.307-.296-.075-.07-.156-.127-.232-.194-2.468-4.545-7.215-7.731-12.47-7.95C88.487.229 83.22 3.529 80.549 8.374c-3.759-3.515-9.81-4.216-14.34-1.751-.593.323-1.148.709-1.67 1.136-.584.475-1.104 1.22-1.773 1.566-.938.483-1.831-.3-2.673-.683a10.732 10.732 0 00-2.454-.792c-3.222-.603-6.622.16-9.172 2.247-2.175 1.778-3.54 4.399-3.91 7.159a18.837 18.837 0 00-2.174 3.418c-4.202-4.243-12.313-3.768-15.45 1.63-.909 1.564-1.334 3.357-2.235 4.923-.398.69-.893 1.346-1.617 1.722-1.197.624-2.636.383-3.93.346-3.971-.116-7.005 2.28-8.275 6.003-1.252 3.664-.191 7.387 1.492 10.75.323.812.71 1.598 1.168 2.352-5.72 2.089-8.209 10.013-5.28 15.21.043.473.107.942.197 1.405-4.894 1.737-8.644 6.51-8.445 11.87.2 5.425 4.308 10.075 9.435 11.404-4.89 5.755-2.98 14.634.671 20.69 1.198 1.987 2.711 3.676 4.205 5.439 1.807 2.133 2.71 4.359 3.41 7.038 1.163 4.446 3.235 8.324 6.837 11.276 3.826 3.137 8.671 4.915 13.64 4.694.04-.002.066-.021.103-.026 1.663 6.25 4.509 12.105 8.717 17.238 6.204 7.568 14.553 13.092 23.062 17.748 4.393 2.402 8.889 4.618 13.406 6.775 1.338.639 2.697 1.269 4.075 1.86a1 1 0 00-.096.437v7.819c-.267.288-.397.709-.188 1.156 1.623 3.447 3.856 7.358 8.11 7.657 4.175.293 7.216-3.145 9.13-6.414.265-.453.127-.88-.162-1.162v-6.568c3.466-.671 6.651-2.246 9.68-4.26-.05-.035-.09-.083-.138-.121a659.916 659.916 0 0020.876-13.926c6.284-4.371 12.823-8.671 18.317-14.043.388-.38.743-.793 1.117-1.187.242-.044.474-.173.65-.42.23-.322.446-.652.668-.98.025-.028.052-.052.076-.08l-.016-.007a48.833 48.833 0 005.45-10.787c.054.022.11.033.163.056.155-.593.285-1.19.42-1.787.053-.166.112-.33.162-.496a.958.958 0 00.032-.33l.023-.094c.097.042.195.084.315.096 4.149.398 7.979-1.532 10.934-4.324 3.093-2.926 6.014-7.15 6.587-11.448.132-1.01.114-2.038-.125-3.033-.284-1.172-1.219-2.265-.909-3.506.255-1.018 1.083-1.918 1.58-2.828a16.014 16.014 0 001.332-3.27 16.11 16.11 0 00.466-6.486" fill="#231F20" mask="url(#b)"/></g><path d="M278.922 192.11c-.085-.533-.75-.83-1.23-.698-.569.156-.784.695-.699 1.23.4 2.506-1.635 5.202-4.135 5.558-2.625.374-5.324-1.877-5.506-4.499-.09-1.278-2.09-1.287-2 0 .207 2.96 2.394 5.537 5.258 6.306 2.89.777 5.82-.647 7.365-3.132a6.895 6.895 0 00.947-4.765" fill="#231F20"/><path d="M262.764 168.599c-.567-1.577-2.548-2.185-4.462-2.398-2.513-.28-5.087-.312-7.615-.168a48.917 48.917 0 00-9.982 1.616 62.556 62.556 0 00-5.606 1.51c-.456-.065-.966.075-1.148.515-.595 1.44.441 2.879 2.045 3.634 2.04.959 4.51.52 6.714.267 1.117-.13 2.37-.237 3.463.046 1.155.299 1.735 1.104 2.704 1.61 1.918 1.002 4.29.408 5.878-.711.835-.588 1.437-1.325 2.161-1.987.958-.875 1.86-.872 3.216-1.034 1.881-.222 3.174-1.39 2.632-2.9m45.624 2.626c-.247-1.648-1.99-2.584-3.742-3.12-2.299-.703-4.7-1.175-7.09-1.464a44.411 44.411 0 00-9.623-.112 57.24 57.24 0 00-5.513.53c-.415-.142-.916-.091-1.166.312-.814 1.314-.103 2.908 1.261 3.922 1.735 1.292 4.122 1.282 6.23 1.408 1.067.064 2.258.17 3.23.636 1.026.492 1.424 1.38 2.24 2.045 1.612 1.313 3.938 1.132 5.622.302.887-.437 1.581-1.06 2.378-1.587 1.052-.697 1.894-.541 3.193-.468 1.798.102 3.216-.827 2.98-2.404" fill="#808184"/><g fill="#231F20"><path d="M235.982 168.15c.187-4.937 1.812-9.81 4.73-13.806.349.01.689.048 1.018.116.023-.045.052-.086.07-.139 1.254-3.469 6.332-3.87 9.35-3.06 2.882.775 5.053 2.671 6.426 5.172-.218.277-.283.654-.026 1.045a17.787 17.787 0 011.418 2.654c.122.492.233.988.33 1.486l.22-.076a19.977 19.977 0 011.023 5.123c.672.107 1.342.231 2.01.368-.114-2.64-.656-5.247-1.714-7.673-.742-2.826-2.044-5.57-4.303-7.484a12.579 12.579 0 00-3.253-1.977 21.733 21.733 0 01-2.451-.754 12.348 12.348 0 00-2.602-.25c-2.717.04-5.691 1.001-7.382 3.147-.335-.194-.75-.184-1.07.222-3.578 4.553-5.638 10.487-5.802 16.407a84.415 84.415 0 012.008-.52m47.004-1.695a19.871 19.871 0 011.003-4.914l.219.076c.098-.498.21-.994.33-1.485.402-.913.86-1.807 1.419-2.655.258-.39.193-.768-.026-1.044 1.373-2.501 3.544-4.398 6.427-5.173 3.017-.811 8.095-.41 9.349 3.06.018.053.047.094.07.139a5.841 5.841 0 011.017-.115c3.114 4.263 4.778 9.522 4.768 14.796 0 .093-.008.189-.012.284.666.22 1.33.453 1.993.69.163-6.39-1.942-12.927-5.813-17.85-.318-.407-.734-.416-1.07-.223-1.69-2.146-4.664-3.107-7.381-3.147a12.69 12.69 0 00-8.305 2.98c-2.26 1.915-3.562 4.659-4.304 7.485-1.025 2.348-1.57 4.867-1.707 7.42a41.683 41.683 0 012.023-.324"/><path d="M261.757 165.814a49.094 49.094 0 00-6.547-.802 9.203 9.203 0 00-.385-1.324 12.866 12.866 0 00-.553-1.939c-.852-2.235-2.664-4.33-5.294-3.877-1.036.177-1.926.713-2.682 1.421a7.814 7.814 0 00-2.3 1.97c-.917 1.157-1.466 2.517-1.745 3.941a9.126 9.126 0 00-.224.894 47.45 47.45 0 00-6.795 2.053c-1.188.46-.672 2.392.532 1.928 8.098-3.129 16.928-3.973 25.461-2.336 1.258.24 1.796-1.687.532-1.929m46.467 3.098a.915.915 0 00-.578.203 37.759 37.759 0 00-5.164-2.02c-.069-2.461-.852-4.852-2.707-6.399-3.142-2.622-7.994-1.422-10.393 1.634a7.528 7.528 0 00-1.472 3.248 37.334 37.334 0 00-5.889 1.022c-1.245.323-.717 2.252.531 1.929 8.069-2.095 16.716-1.264 24.223 2.373a.975.975 0 001.017-.083.986.986 0 00.432.093c1.287 0 1.289-2 0-2m-47.958-31.492c-5.644 4.519-13.296 6.22-20.327 4.59-1.253-.29-1.787 1.638-.532 1.929 7.786 1.803 16.045-.118 22.273-5.105 1.005-.805-.419-2.212-1.414-1.414m41.83 4.29c-6.91 1.136-14.179-1.141-19.254-5.947-.934-.885-2.35.527-1.414 1.414 5.634 5.336 13.556 7.718 21.2 6.462 1.267-.208.73-2.136-.532-1.93"/></g><path d="M281.232 218.645c-1.263-4.252-5.506-6.85-9.832-6.78-3.748.057-10.775 2.37-9.977 7.25.208 1.266 2.136.73 1.929-.532-.276-1.687 1.892-2.89 3.132-3.499 1.705-.835 3.617-1.292 5.519-1.212 3.22.132 6.359 2.133 7.3 5.304.367 1.231 2.297.707 1.929-.53" fill="#231F20"/></g></svg>