<svg width="500" height="600" xmlns="http://www.w3.org/2000/svg" xmlns:xlink="http://www.w3.org/1999/xlink"><defs><path id="a" d="M0 .454h182.162v197.653H0z"/></defs><g fill="none" fill-rule="evenodd"><g transform="translate(171 60.546)"><mask id="b" fill="#fff"><use xlink:href="#a"/></mask><path d="M172.495 104.535a162.39 162.39 0 01-.88 4.533c-.068.234-.12.472-.15.715-.652 3.113-1.362 6.22-2.056 9.314-.383 1.707-.862 4-2.491 4.992-.93.565-3.586.36-3.36-1.235a1.024 1.024 0 00-.251-.841c.133-8.737-1.168-17.39-2.82-26.02a2.104 2.104 0 001.442-.944c.07-.106.14-.21.213-.313a10.6 10.6 0 01.077-.102l.122-.148c.065-.076.132-.151.2-.226.324-.356.683-.663 1.04-.984.006-.005.005-.005.009-.01.002 0 .003 0 .005-.002a10.31 10.31 0 011.753-1.039c.045-.021.09-.043.137-.062.135-.061.092-.043-.13.052.09-.113.51-.195.638-.238a10.819 10.819 0 011.315-.347c.099-.02.199-.036.298-.054-.002-.001-.007 0-.008-.002 0 0 .007 0 .009.002.025-.004.049-.01.074-.013.287-.05.032.019-.056.017.064.008.249-.01.42-.03a5.226 5.226 0 011.664.884c3.562 2.9 3.515 7.99 2.786 12.1m-11.212 19.763a73.03 73.03 0 01-.425 4.813 4.551 4.551 0 00-.237 1.915 62.02 62.02 0 01-.956 4.947 47.092 47.092 0 01-5.694 11.789l-.024-.027c-2.855 3.262-6.217 6.097-9.691 8.699-6.52 4.885-13.28 9.474-20.046 14.006a660.491 660.491 0 01-12.111 7.92.982.982 0 00-.41.5c-1.324.828-2.691 1.579-4.147 2.168-5.438 2.197-11.213 1.196-16.551-.778-5.017-1.856-9.824-4.38-14.587-6.801-8.523-4.33-17.004-9.164-23.92-15.85-7.167-6.93-11.758-15.658-13.308-25.516-1.608-10.22-.254-20.7 1.146-30.86.668-4.842 1.37-9.704 1.898-14.58 4.799 2.555 9.913 3.123 13.708-2.78 1.774-2.76 2.925-5.86 3.617-9.093 2.743 1.8 5.756 2.758 9.073 1.854 3.219-.877 5.774-3.393 7.232-6.317 1.26-2.527 1.004-5.807 2.309-8.193 3.06 1.719 6.443 2.798 9.909 2.926 7.939.293 12.316-5.733 14.789-12.523 3.908 2.043 8.844 2.068 12.689-.2.25.629.538 1.242.86 1.84 1.492 4.483 5.444 8.04 10.015 9.386 2.989.88 6.14.729 8.985-.557.065-.03.133-.066.197-.097-.043 5.918 1.219 11.675 5.623 16.26 3.933 4.096 9.6 5.728 14.8 4.666.018.08.032.163.048.244.005.126.012.25.016.377a7.14 7.14 0 00.564 2.505c.36 1.766.719 3.532 1.074 5.295 2.122 10.532 4.112 21.27 3.555 32.062m-58.766 66.836c-1.555 2.528-3.877 5.22-7.122 4.957-3.122-.254-4.816-3.378-6.05-5.964a.96.96 0 00.128-.48v-7.84c3.342 1.313 6.802 2.298 10.398 2.48.85.043 1.677.008 2.492-.062v6.416c0 .18.066.344.154.493m-66-67.791a.405.405 0 00-.132.089c-.086.093-.157.222-.147.353.003.038-.001.075-.003.113a.806.806 0 01-.03.107.917.917 0 01-.05.086 12.58 12.58 0 01-.113.116.516.516 0 00-.138.31l-.012-.002a.939.939 0 00-.91.018c-1.874 1.012-3.694-.704-4.836-2.065-1.344-1.603-2.27-3.577-3.218-5.425-1.981-3.86-3.704-8.162-3.097-12.583.476-3.46 2.47-7.194 6.102-8.083 2.962-.725 6.71.515 7.66 3.644a.922.922 0 00.764.67c-1.065 7.533-1.971 15.074-1.84 22.652M99.186 3.83a24.926 24.926 0 00-4.564-1.323c1.598.136 3.144.598 4.564 1.323m82.837 96.855c-.151-1.146-.474-2.216-.78-3.327-.393-1.438-.102-2.614.218-4.03 1.047-4.628-.444-9.534-3.866-12.812 3.085-7.248 1.283-16.171-4.57-21.53.054-1.364-.358-2.57-1.01-3.674a5.734 5.734 0 00-1.972-2.53 35.463 35.463 0 00-.881-.896c-.151-.15-.313-.297-.477-.448-.346-2.881-.71-5.818-1.382-8.6a24.777 24.777 0 00-.134-1.3c-.442-3.26-1.496-7.136-3.893-9.54-1.635-1.641-4.283-2.351-6.294-1.255-1.058-2.558-2.552-4.985-4.432-7.032-.977-1.535-2.234-2.88-3.873-3.892-2.35-1.45-5.078-1.596-7.52-.836-.483-3.513-2.808-6.705-6.26-7.962-3.983-1.452-8.646.266-11.082 3.63-2.258-2.875-4.826-5.711-8.376-6.871-2.741-.894-6.004-.628-8.306 1.126-.103-.098-.204-.202-.307-.296-.075-.07-.157-.127-.232-.194-2.468-4.545-7.216-7.731-12.47-7.95C88.487.229 83.219 3.529 80.55 8.374c-3.76-3.515-9.811-4.216-14.34-1.751a10.84 10.84 0 00-1.672 1.136c-.582.475-1.102 1.22-1.771 1.566-.938.483-1.832-.3-2.674-.683a10.747 10.747 0 00-2.453-.792c-3.223-.603-6.622.16-9.174 2.247-2.174 1.778-3.54 4.399-3.908 7.159a18.782 18.782 0 00-2.174 3.418c-4.203-4.243-12.313-3.768-15.451 1.63-.908 1.564-1.334 3.357-2.235 4.923-.397.69-.893 1.346-1.616 1.722-1.2.624-2.636.383-3.93.346-3.973-.116-7.005 2.28-8.277 6.003-1.251 3.664-.19 7.387 1.493 10.75.324.812.71 1.598 1.168 2.352-5.72 2.089-8.208 10.013-5.28 15.21.042.473.107.942.197 1.405-4.895 1.737-8.644 6.51-8.445 11.87.2 5.425 4.308 10.075 9.435 11.404-4.89 5.755-2.981 14.634.672 20.69 1.198 1.987 2.71 3.676 4.205 5.439 1.807 2.133 2.71 4.359 3.41 7.038 1.162 4.446 3.234 8.324 6.836 11.276 3.827 3.137 8.672 4.915 13.639 4.694.04-.002.068-.021.105-.026 1.663 6.25 4.508 12.105 8.716 17.238 6.205 7.568 14.553 13.092 23.063 17.748 4.392 2.402 8.888 4.618 13.405 6.775 1.339.639 2.697 1.269 4.074 1.86a1.015 1.015 0 00-.095.437v7.819c-.267.288-.397.709-.187 1.156 1.622 3.447 3.855 7.358 8.109 7.657 4.175.293 7.215-3.145 9.13-6.414.265-.453.128-.88-.162-1.162v-6.568c3.465-.671 6.652-2.246 9.679-4.26-.05-.035-.088-.083-.136-.121a659.872 659.872 0 0020.875-13.926c6.285-4.371 12.824-8.671 18.317-14.043.388-.38.743-.793 1.117-1.187.24-.044.473-.173.649-.42.23-.322.448-.652.67-.98.024-.028.05-.052.074-.08l-.014-.007a48.833 48.833 0 005.45-10.787c.054.022.11.033.163.056.153-.593.284-1.19.42-1.787.053-.166.11-.33.162-.496a.982.982 0 00.03-.33l.024-.094c.097.042.195.084.315.096 4.149.398 7.979-1.532 10.934-4.324 3.094-2.926 6.015-7.15 6.587-11.448.133-1.01.114-2.038-.125-3.033-.283-1.172-1.218-2.265-.908-3.506.255-1.018 1.082-1.918 1.579-2.828a16.07 16.07 0 001.332-3.27 16.11 16.11 0 00.466-6.486" fill="#231F20" mask="url(#b)"/></g><g fill="#231F20"><path d="M262.333 173.6c-.73 4.647-2.733 9.657-6.243 12.91-4.183 3.875-10.038 2.543-13.553-1.527-3.221-3.729-4.584-9.002-4.592-13.843-.01-5.273 1.654-10.533 4.768-14.796.348.01.688.048 1.016.115.025-.045.053-.086.072-.138 1.254-3.469 6.33-3.87 9.348-3.06 2.883.775 5.054 2.672 6.427 5.173-.218.275-.283.654-.025 1.045.558.847 1.016 1.74 1.418 2.653.12.491.23.988.33 1.486.073-.026.146-.05.22-.077 1.1 3.201 1.346 6.67.814 10.058m.505-12.238c-.742-2.827-2.045-5.572-4.305-7.485a12.673 12.673 0 00-8.305-2.98c-2.717.038-5.691 1-7.381 3.145-.335-.193-.751-.183-1.07.223-6.794 8.643-8.256 22.267-1.312 31.32 3.357 4.378 9.387 6.932 14.57 4.14 4.724-2.545 7.498-8.31 8.756-13.3 1.258-4.987 1.096-10.366-.953-15.063m23.151 2.181l.219.076c.098-.498.209-.994.331-1.485.401-.914.859-1.807 1.418-2.654.258-.391.192-.77-.027-1.045 1.374-2.501 3.545-4.4 6.427-5.173 3.018-.811 8.096-.408 9.349 3.06.019.053.047.094.071.139a5.951 5.951 0 011.017-.115c3.114 4.262 4.777 9.522 4.768 14.796-.009 4.84-1.371 10.114-4.592 13.842-3.515 4.07-9.371 5.403-13.553 1.527-3.509-3.252-5.514-8.262-6.243-12.91-.532-3.39-.287-6.858.815-10.058m-2.272 12.883c1.256 4.989 4.032 10.755 8.754 13.3 5.184 2.792 11.213.238 14.572-4.141 6.942-9.053 5.48-22.677-1.313-31.32-.319-.406-.735-.415-1.069-.222-1.691-2.146-4.665-3.107-7.382-3.146a12.674 12.674 0 00-8.306 2.98c-2.259 1.914-3.561 4.658-4.303 7.485-2.049 4.698-2.211 10.077-.953 15.064m-37.813-31.698c-5.253 1.32-10.039 4.292-13.533 8.433-.68.805.48 1.976 1.164 1.165a24.63 24.63 0 0112.807-8.01c1.027-.258.592-1.847-.438-1.588m63.051 3.665c-4.072-3.508-9.534-4.212-14.704-4.562-1.06-.072-1.054 1.575 0 1.646 4.688.318 9.835.89 13.539 4.08.8.69 1.97-.472 1.165-1.164"/><path d="M257.536 169.845c-.023-.101-.066-.197-.093-.297a9.433 9.433 0 00-.618-3.86 12.879 12.879 0 00-.553-1.94c-.852-2.233-2.664-4.328-5.295-3.876-1.036.178-1.925.713-2.682 1.422a7.794 7.794 0 00-2.3 1.969c-.915 1.158-1.465 2.517-1.744 3.942-.616 1.994-.639 4.192-.175 6.209.35 1.516 1.12 3.014 2.248 4.048.207.267.428.523.672.763 1.131 1.115 2.658 1.679 4.16 1.535a5.235 5.235 0 002.873-.84c2.936-1.867 4.27-5.751 3.507-9.075m44.239-7.149c-3.142-2.622-7.995-1.42-10.393 1.634a7.54 7.54 0 00-1.48 3.28c-.932.92-1.019 2.377-.688 3.708.021 1.365.347 2.725 1.03 3.92a8.012 8.012 0 001.727 2.068c.1.1.184.21.288.3a5.872 5.872 0 001.914 1.095 8.393 8.393 0 003.384.71c.082 0 .144-.029.216-.045.36-.023.723-.069 1.087-.17 1.981-.55 3.477-2.19 4.356-3.989 1.828-3.738 2.038-9.608-1.44-12.51"/></g><path d="M280.923 194.11c-.085-.533-.751-.83-1.23-.698-.57.156-.784.695-.7 1.23.4 2.506-1.634 5.202-4.134 5.558-2.625.374-5.324-1.877-5.507-4.499-.09-1.278-2.09-1.287-2 0 .207 2.96 2.394 5.537 5.258 6.306 2.89.777 5.819-.647 7.365-3.132a6.89 6.89 0 00.948-4.765m-3.957 25.456c-.589-.875-2.016-.05-1.423.831.587.872 1.395 2.854.04 3.481-1.33.616-2.82-.76-3.453-1.786-1.897-3.075-.21-6.84 2.682-8.58.907-.546.08-1.97-.83-1.422-3.052 1.833-5.095 5.546-4.04 9.106.473 1.6 1.542 3.19 3.07 3.947 1.438.713 3.276.743 4.326-.643 1.103-1.455.564-3.54-.372-4.934" fill="#231F20"/></g></svg>