<svg width="500" height="600" xmlns="http://www.w3.org/2000/svg" xmlns:xlink="http://www.w3.org/1999/xlink"><defs><path id="a" d="M0 .454h182.162v197.653H0z"/></defs><g fill="none" fill-rule="evenodd"><g transform="translate(169 58.546)"><mask id="b" fill="#fff"><use xlink:href="#a"/></mask><path d="M172.495 104.535a166.116 166.116 0 01-.879 4.533c-.069.234-.12.472-.15.715-.653 3.113-1.363 6.22-2.057 9.314-.383 1.707-.862 4-2.49 4.992-.93.565-3.587.36-3.36-1.235a1.024 1.024 0 00-.252-.841c.133-8.737-1.169-17.39-2.82-26.02a2.104 2.104 0 001.442-.944c.07-.106.14-.21.213-.313l.076-.102.122-.148.2-.226c.325-.356.684-.663 1.041-.984l.008-.01c.002 0 .003 0 .005-.002.082-.058.163-.118.246-.174a10.696 10.696 0 011.508-.865c.045-.021.091-.043.137-.062.135-.061.092-.043-.13.052.09-.113.511-.195.638-.238a10.606 10.606 0 011.315-.347c.1-.02.2-.036.298-.054-.002-.001-.008 0-.009-.002.001 0 .008 0 .01.002.024-.004.05-.01.073-.013.287-.05.033.019-.056.017.065.008.25-.01.421-.03a5.22 5.22 0 011.663.884c3.563 2.9 3.515 7.99 2.787 12.1m-11.212 19.763a73.72 73.72 0 01-.425 4.813 4.551 4.551 0 00-.237 1.915c-.243 1.663-.58 3.31-.957 4.947a47.089 47.089 0 01-5.693 11.789l-.024-.027c-2.855 3.262-6.217 6.097-9.692 8.699-6.519 4.885-13.279 9.474-20.045 14.006a660.568 660.568 0 01-12.112 7.92.98.98 0 00-.408.5c-1.326.828-2.693 1.579-4.149 2.168-5.437 2.197-11.212 1.196-16.55-.778-5.017-1.856-9.824-4.38-14.588-6.801-8.522-4.33-17.003-9.164-23.92-15.85-7.166-6.93-11.757-15.658-13.308-25.516-1.607-10.22-.254-20.7 1.147-30.86.667-4.842 1.371-9.704 1.898-14.58 4.8 2.555 9.913 3.123 13.707-2.78 1.774-2.76 2.925-5.86 3.617-9.093 2.744 1.8 5.757 2.758 9.074 1.854 3.22-.877 5.774-3.393 7.232-6.317 1.26-2.527 1.003-5.807 2.31-8.193 3.06 1.719 6.442 2.798 9.908 2.926 7.938.293 12.316-5.733 14.79-12.523 3.906 2.043 8.843 2.068 12.688-.2.25.629.538 1.242.861 1.84 1.491 4.483 5.443 8.04 10.013 9.386 2.99.88 6.142.729 8.986-.557.064-.03.132-.066.197-.097-.043 5.918 1.218 11.675 5.623 16.26 3.933 4.096 9.6 5.728 14.801 4.666l.047.244c.004.126.012.25.016.377.03.883.24 1.72.564 2.505.36 1.766.72 3.532 1.074 5.295 2.122 10.532 4.112 21.27 3.555 32.062m-58.766 66.836c-1.556 2.528-3.878 5.22-7.122 4.957-3.122-.254-4.816-3.378-6.05-5.964a.95.95 0 00.128-.48v-7.84c3.342 1.313 6.802 2.298 10.398 2.48.85.043 1.676.008 2.492-.062v6.416c0 .18.065.344.154.493m-66-67.791a.409.409 0 00-.133.089c-.085.093-.157.222-.146.353.003.038 0 .075-.003.113a1.298 1.298 0 01-.029.107.917.917 0 01-.05.086l-.114.116a.51.51 0 00-.138.31l-.012-.002a.94.94 0 00-.91.018c-1.874 1.012-3.695-.704-4.836-2.065-1.345-1.603-2.27-3.577-3.219-5.425-1.98-3.86-3.703-8.162-3.096-12.583.475-3.46 2.47-7.194 6.102-8.083 2.962-.725 6.71.515 7.661 3.644a.92.92 0 00.762.67c-1.064 7.533-1.97 15.074-1.839 22.652M99.187 3.83a24.913 24.913 0 00-4.566-1.323c1.598.136 3.145.598 4.565 1.323m82.837 96.855c-.152-1.146-.475-2.216-.779-3.327-.394-1.438-.103-2.614.217-4.03 1.046-4.628-.444-9.534-3.867-12.812 3.085-7.248 1.283-16.171-4.568-21.53.052-1.364-.359-2.57-1.01-3.674a5.73 5.73 0 00-1.974-2.53 35.424 35.424 0 00-.88-.896c-.152-.15-.313-.297-.477-.448-.346-2.881-.709-5.818-1.383-8.6a22.804 22.804 0 00-.134-1.3c-.44-3.26-1.496-7.136-3.892-9.54-1.635-1.641-4.283-2.351-6.294-1.255-1.059-2.558-2.552-4.985-4.433-7.032-.976-1.535-2.233-2.88-3.873-3.892-2.35-1.45-5.077-1.596-7.519-.836-.484-3.513-2.808-6.705-6.259-7.962-3.985-1.452-8.648.266-11.083 3.63-2.259-2.875-4.826-5.711-8.376-6.871-2.74-.894-6.004-.628-8.307 1.126-.102-.098-.203-.202-.306-.296-.075-.07-.157-.127-.233-.194-2.467-4.545-7.215-7.731-12.47-7.95C88.487.229 83.22 3.529 80.55 8.374c-3.76-3.515-9.81-4.216-14.34-1.751-.593.323-1.149.709-1.672 1.136-.583.475-1.102 1.22-1.772 1.566-.938.483-1.83-.3-2.674-.683a10.716 10.716 0 00-2.453-.792c-3.222-.603-6.622.16-9.173 2.247-2.174 1.778-3.54 4.399-3.908 7.159a18.788 18.788 0 00-2.175 3.418c-4.202-4.243-12.313-3.768-15.45 1.63-.909 1.564-1.334 3.357-2.235 4.923-.398.69-.894 1.346-1.617 1.722-1.198.624-2.636.383-3.93.346-3.972-.116-7.004 2.28-8.276 6.003-1.25 3.664-.19 7.387 1.492 10.75a15.9 15.9 0 001.17 2.352c-5.72 2.089-8.21 10.013-5.28 15.21.041.473.106.942.196 1.405-4.895 1.737-8.644 6.51-8.446 11.87C.21 82.31 4.315 86.96 9.443 88.29c-4.89 5.755-2.98 14.634.672 20.69 1.198 1.987 2.711 3.676 4.204 5.439 1.807 2.133 2.71 4.359 3.411 7.038 1.162 4.446 3.234 8.324 6.836 11.276 3.827 3.137 8.671 4.915 13.64 4.694.04-.002.066-.021.104-.026 1.662 6.25 4.508 12.105 8.716 17.238 6.205 7.568 14.553 13.092 23.063 17.748 4.392 2.402 8.888 4.618 13.405 6.775 1.338.639 2.697 1.269 4.074 1.86a1 1 0 00-.095.437v7.819c-.268.288-.397.709-.187 1.156 1.622 3.447 3.854 7.358 8.11 7.657 4.174.293 7.214-3.145 9.13-6.414.264-.453.127-.88-.163-1.162v-6.568c3.465-.671 6.651-2.246 9.68-4.26-.05-.035-.09-.083-.137-.121a661.025 661.025 0 0020.875-13.926c6.285-4.371 12.824-8.671 18.317-14.043.388-.38.743-.793 1.117-1.187.241-.044.473-.173.65-.42.23-.322.447-.652.668-.98.024-.028.051-.052.075-.08l-.015-.007a48.79 48.79 0 005.45-10.787c.054.022.11.033.163.056.154-.593.285-1.19.42-1.787.053-.166.112-.33.163-.496a.982.982 0 00.031-.33c.007-.031.016-.063.022-.094.098.042.195.084.316.096 4.148.398 7.978-1.532 10.933-4.324 3.095-2.926 6.016-7.15 6.587-11.448.134-1.01.115-2.038-.125-3.033-.282-1.172-1.218-2.265-.907-3.506.255-1.018 1.082-1.918 1.58-2.828a16.01 16.01 0 001.797-9.756" fill="#231F20" mask="url(#b)"/></g><g fill="#231F20"><path d="M260.333 171.6c-.73 4.647-2.734 9.657-6.243 12.91-4.183 3.875-10.038 2.543-13.553-1.527-3.221-3.729-4.584-9.002-4.592-13.843-.01-5.273 1.654-10.533 4.768-14.796.348.01.688.048 1.016.115.025-.045.053-.086.072-.138 1.253-3.469 6.33-3.87 9.348-3.06 2.883.774 5.054 2.671 6.427 5.172-.218.275-.283.654-.026 1.045.559.848 1.017 1.74 1.418 2.654.122.491.232.988.33 1.486.074-.026.147-.05.22-.077 1.102 3.201 1.347 6.67.815 10.058m.505-12.238c-.743-2.827-2.045-5.572-4.304-7.485a12.678 12.678 0 00-8.306-2.98c-2.717.038-5.691 1-7.382 3.145-.334-.193-.75-.183-1.07.223-6.792 8.643-8.254 22.267-1.312 31.32 3.358 4.378 9.388 6.932 14.572 4.14 4.723-2.545 7.497-8.31 8.755-13.3 1.257-4.987 1.096-10.366-.953-15.063m46.057-13.041c-5.19-1.398-10.417.331-15.23 2.254-.984.393-.267 1.876.713 1.484 4.364-1.743 9.25-3.457 13.97-2.184 1.02.274 1.572-1.278.547-1.554"/><path d="M255.443 167.548a9.416 9.416 0 00-.618-3.86 12.879 12.879 0 00-.553-1.94c-.34-.89-.835-1.757-1.472-2.452l.104-.032a7.208 7.208 0 00-2.477-1.15.557.557 0 01-.368-.267 3.946 3.946 0 00-1.081.025c-.743.127-1.408.444-2.005.87-.152.035-.304.06-.456.093-.82.82-1.626 1.65-2.355 2.556a.482.482 0 01-.381.19c-.777 1.088-1.276 2.324-1.53 3.623-.616 1.994-.64 4.193-.174 6.21.348 1.516 1.119 3.013 2.247 4.048.207.266.429.523.672.763 1.132 1.116 2.658 1.678 4.16 1.535a5.237 5.237 0 002.874-.84c2.935-1.867 4.269-5.751 3.506-9.075-.023-.101-.066-.197-.093-.297m.881-29.685c-1.833-.936-3.665-1.87-5.498-2.808-.794-.405-1.617-.939-2.489-1.157-.83-.208-1.588 0-2.369.29-3.395 1.27-6.509 3.11-9.3 5.414-.993.821.428 2.23 1.414 1.414 2.426-2.004 5.18-3.648 8.117-4.784.742-.287 1.285-.556 2.06-.243.753.306 1.48.754 2.205 1.124l4.851 2.478c1.144.584 2.157-1.14 1.01-1.728m55.243 31.489c-1.364-1.13-3.032-1.338-4.74-1.549a38.994 38.994 0 00-6.3-.265 40.299 40.299 0 00-8.925 1.362 24.942 24.942 0 012.09-1.939 47.608 47.608 0 012.437-1.875c.756-.55 1.555-1.314 2.493-1.49 1.264-.237.729-2.165-.532-1.929-1.088.205-1.946.95-2.821 1.583a61.474 61.474 0 00-2.707 2.062c-1.781 1.45-3.38 3.081-4.641 5.008-.462.705.312 1.761 1.129 1.47 3.439-1.227 7.018-1.997 10.665-2.213 1.762-.105 3.53-.09 5.29.044 1.569.12 3.87.086 5.148 1.145.984.815 2.406-.592 1.414-1.414"/></g><path d="M278.922 192.11c-.085-.533-.75-.83-1.23-.698-.569.156-.784.695-.699 1.23.4 2.506-1.635 5.202-4.135 5.558-2.625.374-5.323-1.877-5.507-4.499-.089-1.278-2.09-1.287-2 0 .207 2.96 2.395 5.537 5.26 6.306 2.89.777 5.817-.647 7.363-3.132a6.895 6.895 0 00.948-4.765" fill="#231F20"/><g fill="#231F20"><path d="M287.014 211.252c-2.375 2.706-5.076 5.649-8.336 7.286-6.269 3.147-9.823-2.812-13.702-6.795 9.199.737 18.543-1.504 26.424-6.281-1.335 2.02-2.784 3.965-4.386 5.79m7.133-10.067a42.702 42.702 0 01-31.23 8.345c-.774-.1-1.066.599-.899 1.2-.221.343-.242.785.17 1.132 2.593 2.188 4.423 5.13 7.049 7.278 2.764 2.258 6.128 2.952 9.484 1.567 3.732-1.541 6.782-4.757 9.42-7.717a57.015 57.015 0 007.374-10.437c.442-.801-.522-2.013-1.368-1.368"/><path d="M296.517 199.133c-1.32-.851-3.055-1.163-4.553-.631-.491.175-.873.69-.698 1.23.157.486.702.886 1.23.699a4.05 4.05 0 01.432-.13c.072-.016.146-.028.218-.043l.02-.005.046-.001c.149-.006.295-.015.444-.011.074.002.148.009.222.012.022.002.02 0 .035 0 .303.072.6.127.895.236.055.02.264.12.039.013.068.032.136.063.204.097a4.477 4.477 0 01.7.43c.03.027.082.067.097.08a4.61 4.61 0 01.478.473c.028.032.055.066.082.099a3.162 3.162 0 01.315.49c.035.065.066.133.1.197.01.018.008.012.014.022l.003.012c.054.152.107.302.145.46.018.073.032.145.048.218l.007.032c0 .009 0 .018.003.038.052.519.423 1.026 1 1 .497-.022 1.056-.443 1-1-.168-1.682-1.111-3.106-2.526-4.017"/></g></g></svg>