<svg xmlns="http://www.w3.org/2000/svg" viewBox="0 0 496.8 597.6"><path d="M232.7,163.5c14.2-4.9,16.1-5.8,25.2-17.1,6.7,8.9,12.1,11.4,24.1,15.9,8.6,14-4.3,49.1-24.9,49.7C231.9,208.9,223.5,182.6,232.7,163.5Z" fill="#efdfd3" fill-rule="evenodd"/><path d="M240.1,178.4c-.3-9.8,11-9.7,10.4.6C253.1,177.7,241.4,178.6,240.1,178.4Z" fill="#fff" fill-rule="evenodd"/><path d="M262.4,177.4c.4-8.8,13.4-8.5,10.8,1.6,1.2-.6-.4-.8-4.7-.6S262,178.2,262.4,177.4Z" fill="#fff" fill-rule="evenodd"/><path d="M249.8,199l3.7-.9,1.8.9,3.6-1.7,2.8,1.7-3.7,4.6h-3.6Z" fill="#571010"/><path d="M262.9,127.7c6.4.2,12.5,3.9,17.5,7.6h.2a15,15,0,0,1,3.6,3.5h0l.4.4h.2l2.2,2.9h0a18.7,18.7,0,0,1,2.2,3.9h0l.3.5h0v.2h.1l1.4,3.1h0v.3h0c1.5,3.5,2.6,7.1,3.8,10.8h0c2.1,7.6,1.9,15.9,5.7,23.1,1.5,3.7,3.6,7,5.2,10.6,1.1,2,1.4,4.4,2.5,6.4h0c0,.5.3.8.4,1.2h0c1.5,5.1-1.5,10.4-.3,15.3h0v.2h.1a10.5,10.5,0,0,0,1.3,2.3h0l2.2,3.1h0a23.9,23.9,0,0,1,2.1,3.4h0l.3.8h0c.8,5.8-2.9,12.1-1.8,18h0c.6,3.8-.4,8.4-1.4,11.9h0c0,4.6-6,3.5-8.9,3.5s-5.7-.4-7.6-2.5-2.4-2.8-3.9-3.7-4.5-2.6-4.9-5.2h0a11,11,0,0,0-.6-2.6c-1.8-1.6-4.1-3.2-6.5-3.5a6.1,6.1,0,0,1-1.6-1.2h0a11,11,0,0,1-4-8.9h0c-.2-2.5.1-5.1,0-7.4h0v-1.3c-.5.1-1.3-.5-1.7-.8s-.8-2-1.3-2.8a7.7,7.7,0,0,1-5-1.8,9.8,9.8,0,0,1-2.1-7.7c0-.1,0-.3.1-.3v-.2a4.3,4.3,0,0,1-2.5.5c-1.5.9-6.1.6-7.7.7a33.6,33.6,0,0,1-7.4-2.4c1.9,3,.6,6.9-.9,9.8h0c0,.2.1.9-.1,1.1.2,1.7-2.4,2.5-3.1.9h0c-.3-.5-1.6-3.2-1.9-3.8-1.9-2.6-4.8-4.9-6.9-7.2-6.4-6.7-9.4-16-11.6-24.9h0c0-.6-.3-4.5-.3-5.2h0v-1h0c0-1.3-.2-2.7-.1-3.9h0c0-6.4-.1-13,1.6-19.1h0c.2-3.1,1.7-6.4,3.1-9.1h0V147l1.4-2.3h0l.2-.3h.1c.6-1,2.2-3.1,3-4.1h0c1.1-1,2.7-2.9,3.9-3.9h0l.3-.2h0a34.5,34.5,0,0,1,8.1-5.1c5.8-3.3,13.9-2.7,20.3-2.8Zm-5,21.9v.4h-.1a8.6,8.6,0,0,1-1.3,1.4h0c0,.3-1,1.1-1.1,1.2h0l-2.1,1.9h0a3.9,3.9,0,0,1-1,.8h-.1c-.1.2-.5.4-.6.5h-.4l-.4.3h0l-1.5,1h-.1c-1.6,1-4,2.3-5.7,3.2l-.4.2-.9.5-5.1,2.2-2.7.7a7.6,7.6,0,0,1-.1,1.5h0c0,.7-.1,1.6-.1,2.2h0c0,1-.2,2-.1,3h0c0,.8-.1,1.6-.1,2.4h0a45.6,45.6,0,0,0,.1,6.4h0c0,1.3.2,2.6.2,3.9h0a24,24,0,0,0,.5,4.6h0a7.7,7.7,0,0,0,.2,1.5h0a11.5,11.5,0,0,0,.7,3.6h0v.6h.1a2.9,2.9,0,0,1,.2.9h.1a10.8,10.8,0,0,0,1.3,2.9h0a46.1,46.1,0,0,0,4.4,5.5h0l.5.6h.2l1,1h.1v.2a14.6,14.6,0,0,0,2.8,2.1,1.5,1.5,0,0,1,.9.2c1.3.5,3,1.4,4.4,1.4s5.1.5,6.7.5,1.5-.6,2-.5,3.1-1.6,4.2-1.8l.6-.4h0c.5-.5,1.4-.9,2-1.4h0c.7-.6,2.4-2.4,3.1-3.2h0a34,34,0,0,0,4.4-7.9h0a11.7,11.7,0,0,0,1-2.6h0c.1-1.3,1.2-3.4,1.4-4.4h0a36.2,36.2,0,0,0,1.5-8.1h0c0-1.1.2-2.5.1-3.6h0v-1.9a.8.8,0,0,1-.3-1.1l.2-.2h0c-.3-11.8-2.4-10.9-11.9-15.4h0a2.1,2.1,0,0,0-1.3-.5,30.1,30.1,0,0,1-4.2-2.7h0a9.8,9.8,0,0,1-3.5-3.5h0l-.2-.3h0l-.2-.5Zm11.8,58h-.3l-2,1.3h2.7a2,2,0,0,1-.4-1.3Zm27.7-24.4V185l1,1.2h0l.3.5h.1l.5.8-.2-.3c-.3-1.4-1.2-2.6-1.7-4Zm-66.1-9.8h-.2l-.3.2v.2c-1.7,2-1.5,4.8-1.4,7.3h0c.1.7,0,1.6.6,2l1.3,1h.5c-.2-1.1,0-2.3-.2-3.4h0c0-1.7-.1-4-.1-5.6h0v-1.8h-.2Zm49.9.7a6.6,6.6,0,0,1,.1,1.4h0c0,1.1-.1,2.2-.2,3.4h0c-.3,1.3-.2,2.8-.4,4.1h0a5.3,5.3,0,0,1,.6-2.4c.1-2.2,1.5-4.3.6-6.5Zm-35.4-3.8a5.4,5.4,0,0,1,4.3,2.6h.1l.2.3c1.1,1.4.8,3.7.7,5.4h0v.2l-.2.2-.2.2c-1-.1-2.2-.8-3.3-.6s-5-.5-6.5.6h-.8l-.3-.2v-.2a.5.5,0,0,1-.2-.4c-.1-.1-.2-.2-.1-.3h0c-1.4-3.5,2.5-8.7,6.3-7.8Zm21.7,0c4-.4,7.7,4.2,6.5,8h-.1c.1.5-.3.8-.7,1.1s-1.9-.6-2.7-.8a31.3,31.3,0,0,0-5.3.2c-.8,0-1.9.6-2.5.6l-.3-.2v-.4h0c0-1.5-.3-4.5.9-5.7h.2a5.5,5.5,0,0,1,3.8-2.6Zm-2.1,2h.1a1,1,0,0,0-.5.4c-1.4,1-1.5,3.3-1.4,4.9,2.8-.5,6.6-.4,9.1,1l.3-.5a5.8,5.8,0,0,0-2.5-5.8l.2.3v.2c1.2,3-3.4,4.7-5,2.2a1.1,1.1,0,0,1-.3-.8c-.3-.2-.2-1.4-.2-1.8Zm-17.4,0h0a3.4,3.4,0,0,1-.5,2.6c-.6,1.2-2.5,1.5-3.7,1a1.6,1.6,0,0,0-.8-.6,3,3,0,0,1-.6-1.8,1.1,1.1,0,0,1,.2-.8c0-.1,0-.2.1-.2l.2-.3h-.2c-1.7,1.2-3,3.7-2.3,5.8.1,0,.1.1.1.2a5.2,5.2,0,0,1,2.9-.9h-.2c1.5-.3,5-.6,6.4-.1a5.3,5.3,0,0,0-1.8-5.4Zm-2.6.3H245a.4.4,0,0,0-.1.3h0v.2h.7l.3-.2h0v-.3h0v-.2h-.4Zm22.5,0h-.5v.2h-.1c0,.1-.1.4.1.4h0l.2.2h.8v-.2h0a.4.4,0,0,1-.1-.3h-.5Zm-21.3-6.9c2.5,0,7.3,1.2,6.7,4.3l-.5.5c-1.8.3-3.1-.9-4.5-1.7a20.3,20.3,0,0,0-4.3-.7c-1.6-.2-3.6.7-5,1.4l-2,1.3a.9.9,0,1,1-1.3-1.2.5.5,0,0,1,.5-.3c3-2.1,6.6-4,10.4-3.6Zm24-.9a6.4,6.4,0,0,1,3.5,1.4c.8.8,3,1.9,2.7,3.2s.7.6.5,1l-.2.2-.7-.7h-.2l-2.4-1.5a11.7,11.7,0,0,0-10.6.5h-.4c-3,.9-.7-2.4,1.1-2.6s4.6-1.9,6.7-1.5Z"/><path d="M252.2,191.3c-.4,1.2,1.1,1.5,1.9,1.8a12.5,12.5,0,0,0,4,.3c1.2-.1,4.1.2,3.2-1.8h0a1.2,1.2,0,0,0-1.1-.9,1,1,0,0,0-.8.6,23,23,0,0,1-3.7.2c-.8-.7-3-1.7-3.5-.2"/><path d="M253.9,173.3c.7,5.1.6,11.6-1.5,16.9h0c-.3.3-.2.7-.2,1.1s1.8.3,1.9-.9a27.1,27.1,0,0,0,1.3-6.3c.2-2.2,1.1-10.5-1.6-11"/><path d="M253.2,196.9c-2,.2-3.8,1.6-5.9,1.3l2.3,1.4c1.3-.2,2.7-1.3,4.1-1.2a2.9,2.9,0,0,0,2.5.9l2.2-1c1.2.2,2.6,1,3.8,1.1l.5-.3h0l.9-.6a3.4,3.4,0,0,1-2.2-.5c-1-.4-2.6-1.3-3.7-.6a6.4,6.4,0,0,0-1.9.8h0c-.5-.2-1.2-.8-1.6-1h-1"/><path d="M262.3,199.1a24.8,24.8,0,0,1-5.4,1.2c-.4,0-7.1.1-7.3-.2l1.1,1.1c2.3.5,5,.1,7.3.1a11.6,11.6,0,0,0,3.2-.8l1.4-1.3h-.3"/><path d="M251.2,201.5l1.5,1.5a5,5,0,0,0,2.4.9c-.5-.4-1.8-.5-2.2-.8a24.8,24.8,0,0,0-2.9-3h-.3l1.5,1.5"/><path d="M262.8,198.9c-1.3.7-2.2,2-3.3,2.9,1.1-.7,2.1-2,3.2-2.8h.1"/><path d="M260.7,199.7a37.1,37.1,0,0,1-2.7,2.9,2.9,2.9,0,0,1-2.4,1.4c1.7.1,3.3-1.7,4.5-2.8a6.7,6.7,0,0,0,1.5-1.4v-.2l-.4-.2-.4.2"/><path d="M252.5,202.9c.4,0,1.1.6,1.5.7l-1.1-.8h-.4"/><path d="M247.1,198.4a.5.5,0,0,0,.5.5h.1L250,200c1.8,1.5,3,4.4,5.7,4.3,1.1-.5-1-.8-1.3-.9a3.1,3.1,0,0,1-1.6-1.2c-1-1-2-2.5-3.3-3.2s-1.9-1.4-2.4-.6"/><path d="M262.7,198.2a19.2,19.2,0,0,0-5.6,5c-.2.3-1.5.2-1.8.2s.8,1.1,1.4,1a2.8,2.8,0,0,0,1.6-1.2,19.4,19.4,0,0,1,2.1-2.9c.7-.8,2-1.3,2.8-2a.4.4,0,0,0-.1-.3h-.4Z"/><path d="M262.4,198.7l-4.1,3.9a3.7,3.7,0,0,1-1.9,1.1l-1.7-.2v-.2c-1.4-1.1-2.2-3.1-3.7-4.1s-2.1-.1-2.4-.2-.4.5,0,.5l.4.3h.4c1.6,1.7,2.9,3.7,5,4.9s4.2.1,5.2-1.9h-.1a42.3,42.3,0,0,1,3.3-4.1h-.3"/><path d="M263.5,197.7h-.3l-1.6,1c-.4.3-1.2.8-.7,1.3h.7c.3,0,.9-1,1.1-1.2l1.5-.9-.3-.3h-.4"/><path d="M235.6,217.1v-.2h-.1a.4.4,0,0,0,.1.3"/><path d="M293.9,181.3c-.6.9,1,2.4,1.3,3.3a25.3,25.3,0,0,0,1.8,3.7c.5.8.6,3.4,1.8,2.4s.8-1.8.7-2.7a8.8,8.8,0,0,0-.4-2l-.3-.4h-.1a8.7,8.7,0,0,0-.7-1.7v-.3c-.4-.3-1.1-.9-1.5-.3h-.1a7.6,7.6,0,0,0,.1,1.5l-1.7-3.2c-.1-.1-.4-.3-.6-.2"/><path d="M273,205.5l-1.6,1.3a2.3,2.3,0,0,0-2.5.2c-1.2.4-2.6,1.3-2,2.8a.7.7,0,0,0-.3.9.8.8,0,0,0,.4.4c.4.2.9-.4,1.3-.6s1.8-1.7,2.8-2.4h.1l.9-.8c-.1.6-2.7,5.8-.8,4.7a29.2,29.2,0,0,1,2.1-5.6V206a.6.6,0,0,0-.6-.5"/><path d="M294.5,190.9c-.3,7.5,1.3,15,1.6,22.4-1.5-6.6-3.4-13.2-5.1-19.6h-.1c-2-1.9.4,4.1.4,4.8,1.2,4.2,2.7,11.2,3.7,15.6s3.4,4.9,3-.2c-.5-7.9-1.4-15.3-1.9-23.4-.6-.3-1.6-.3-1.6.6"/></svg>