<svg width="500" height="600" xmlns="http://www.w3.org/2000/svg"><g fill="none" fill-rule="evenodd"><path d="M234.19 163.838c7.149-2.34 12.146-4.475 14.992-6.408 2.846-1.933 6.323-5.553 10.431-10.86 3.004 4.02 6.09 7.081 9.259 9.183 3.168 2.103 8.154 4.397 14.956 6.882 3.845 6.357 3.558 15.825-.861 28.406-4.42 12.58-12.473 19.753-24.162 21.518-7.566-1.234-12.364-2.789-14.395-4.665-14.273-13.182-17.68-27.868-10.22-44.056z" fill="#EFDFD3"/><path d="M240.067 176.847c3.455-2.195 6-3.272 7.638-3.232 1.637.04 3.57 1.226 5.799 3.558.592 1.779-1.341 2.754-5.8 2.924-4.457.17-7.003-.913-7.637-3.25z" fill="#FFFEFF"/><path d="M262.798 180.773c-.037-.007-.078-.01-.115-.016.037.006.078.012.115.016m-8.231 11.167c-.116.418.018.82.296 1.097h.003c.423.14.86.224 1.299.29.719.056 1.435.074 2.154.074.723.004 1.451.016 2.174-.021.738-.038 1.476-.044 2.214-.081.358-.019.713-.047 1.072-.084.106-.268.149-.518.072-.817a1.384 1.384 0 00-.088-.245.372.372 0 01-.015-.057.916.916 0 00-.175-.366 9.9 9.9 0 01-1.32.292c-.53.077-1.062.165-1.594.218-.425.037-.851.059-1.274.09-.355.025-.739.09-1.093.056-.371-.037-.783-.056-1.1-.277a1.738 1.738 0 01-.637-.773l-.587-.192a.935.935 0 00-.305-.05c-.492 0-.965.367-1.096.847m-8.796-19.081c-.377.137-.747.287-1.117.433-.387.153-.78.308-1.147.502-.386.202-.75.423-1.09.7-.267.216-.53.436-.8.649-.524.393-1.057.772-1.57 1.182-.18.143-.354.299-.52.464-.093.094-.223.19-.282.308-.069.138-.082.287 0 .424a.412.412 0 00.36.209c.153-.004.306-.078.442-.137.147-.063.281-.14.421-.215.458-.246.894-.536 1.33-.82.234-.149.467-.298.7-.45.212-.141.411-.297.62-.44.398-.275.842-.478 1.283-.669.345-.135.7-.244 1.05-.362.39-.13.773-.244 1.174-.313.222-.016.44-.015.664-.007.205.01.413.044.62.071-.082-.01-.163-.022-.24-.03.186.024.37.055.553.093.156.03.309.09.459.143.299.101.594.218.888.333.12.056.24.115.36.177.14.072.271.165.408.247.238.142.473.28.7.437.311.273.599.568.903.845.15.138.303.265.45.405.152.15.294.309.433.472.088.125.17.252.251.385a.885.885 0 001.2.315.889.889 0 00.317-1.203c-.084-.137-.162-.28-.256-.411-.114-.168-.236-.333-.354-.501-.14-.193-.271-.4-.43-.58-.118-.136-.234-.274-.35-.41-.251-.303-.51-.617-.809-.876-.36-.305-.75-.535-1.164-.76a7.14 7.14 0 00-2.38-.775 9.806 9.806 0 00-1.36-.107c-.582 0-1.162.073-1.717.272" fill="#000" fill-rule="nonzero"/><path d="M247.39 176.926a.603.603 0 01.137-.075c.019-.003.035-.006.053-.006.02 0 .034.003.053.006.038 0 .075.01.109.028.03.016.063.031.09.054.029.021.06.043.088.065a.516.516 0 01.065.08.7.7 0 01.056.138l.016.109c-.003.034-.01.068-.013.103l-.037.09a.547.547 0 01-.3.258c-.011.006-.027.01-.042.016a.202.202 0 01-.178.106.364.364 0 01-.224-.062.342.342 0 01-.113-.147.457.457 0 01-.037-.24l-.015-.009c-.035-.032-.069-.063-.1-.097l.084-.084a.686.686 0 01.003-.115.195.195 0 01.059-.14.194.194 0 01.14-.06c.023 0 .044.007.066.013.012-.013.028-.021.04-.03m-.844-3.753a3.633 3.633 0 00-.548.248c-.171.094-.32.234-.473.362-.2.165-.361.39-.514.607-.14.137-.256.302-.37.458a3.381 3.381 0 00-.657 1.554c-.088.489-.16.96.024 1.438.23.601.654 1.137 1.134 1.56.218.194.458.368.704.528.28.18.626.28.943.36.62.156 1.268.112 1.89.016.334-.053.652-.152.96-.29.15-.065.295-.14.442-.217.175-.094.386-.225.526-.365a3.119 3.119 0 00.838-1.697c.106-.658.115-1.326-.119-1.959-.227-.626-.507-1.324-.98-1.806-.228-.23-.527-.408-.81-.56a5.057 5.057 0 00-.937-.368 2.63 2.63 0 00-.773-.113c-.433 0-.865.097-1.28.244" fill="#000" fill-rule="nonzero"/><path d="M251.246 178.616a1.035 1.035 0 00-.424.116c-.059.03-.115.07-.174.105a7.12 7.12 0 01-.553.274c-.295.114-.607.182-.914.25-.28.06-.557.118-.835.161-.387.05-.777.103-1.165.156.06-.01.116-.016.175-.025a9.401 9.401 0 01-1.822-.035 3.265 3.265 0 01-.538-.136c-.206-.111-.407-.231-.61-.35a.61.61 0 00-.823.216.608.608 0 00.215.822c.155.087.31.178.467.264.324.188.66.296 1.025.365.385.072.784.1 1.174.134.273.022.548.053.822.047.286-.003.573-.047.856-.082.333-.04.67-.08.997-.155.295-.069.591-.14.887-.218.405-.106.785-.274 1.165-.442.256-.113.504-.203.648-.467a.678.678 0 000-.67c-.103-.175-.318-.332-.533-.332l-.04.002m20.551-5.631a9.97 9.97 0 00-1.607.165c-.455.083-.888.246-1.317.414-.922.365-1.726.934-2.53 1.507-.432.312-.852.632-1.248.99-.165.15-.311.318-.46.48a11.53 11.53 0 00-.904 1.103c-.167.233-.14.546 0 .79.062-.075.13-.148.206-.215.183-.161.383-.304.579-.45.261-.187.523-.375.81-.515.52-.258 1.068-.464 1.6-.7.422-.189.844-.388 1.276-.559.325-.189.657-.362 1-.516a9.212 9.212 0 011.58-.408 8.454 8.454 0 011.51.006c.367.063.735.138 1.1.218.38.088.75.206 1.114.343.19.084.377.171.561.268.262.134.51.29.766.43.249.137.504.277.735.442.224.162.442.333.663.492.143.118.287.233.43.348.302.237.604.396.963.53.31.112.681-.075.84-.342a.755.755 0 00-.268-1.022c-.034-.022-.069-.04-.103-.063a15.06 15.06 0 01-.831-.78 8.639 8.639 0 00-1.143-.991 17.76 17.76 0 00-1.202-.779c-.43-.255-.897-.445-1.36-.629-.4-.155-.826-.252-1.244-.352-.46-.109-.95-.205-1.432-.205h-.084z" fill="#000" fill-rule="nonzero"/><path d="M271.014 173.606c-.153.022-.3.078-.443.13-.803.29-1.56.705-2.17 1.309a3.37 3.37 0 00-.772 1.193 9.404 9.404 0 011.323-.495c.423-.12.875-.157 1.315-.191.345-.031.69-.05 1.033-.069.165-.008.328-.015.49-.015.18 0 .357.01.54.031.39.044.776.1 1.16.172.694.133 1.356.331 1.988.653a2.587 2.587 0 00-.3-.606c-.013-.022-.028-.04-.041-.06-.013-.028-.025-.056-.038-.08-.17-.374-.457-.71-.722-1.02-.37-.438-.875-.666-1.395-.87-.224-.088-.508-.104-.735-.135a3.594 3.594 0 00-.452-.034c-.018-.003-.034-.003-.053-.003-.243 0-.488.056-.728.09m-14.77.16c-.29.169-.365.527-.216.814.122.236.24.47.35.71.18.451.267.918.345 1.394.075.62.128 1.243.146 1.869.02.65-.021 1.31-.083 1.959a179.738 179.738 0 01-.464 4.055c-.172 1.124-.35 2.248-.636 3.353-.146.558-.321 1.106-.495 1.657-.134.415-.23.848-.392 1.252-.02.04-.038.084-.057.127a1.535 1.535 0 00-.155.565.972.972 0 00.501.856.93.93 0 001.13-.147.93.93 0 00.272-.704c.017-.071.036-.142.056-.214a1.097 1.097 0 01-.066-.511c.047-.408.072-.53.237-.897.084-.193.226-.356.364-.516.173-.625.326-1.252.448-1.89.172-.87.25-1.76.35-2.642.093-.822.14-1.654.21-2.479.058-.622.11-1.243.154-1.865.04-.557.025-1.112-.013-1.666a20.837 20.837 0 00-.205-1.962 16.098 16.098 0 00-.162-.844 7.111 7.111 0 00-.296-1c-.14-.364-.327-.713-.508-1.062a.577.577 0 00-.517-.29.598.598 0 00-.298.078" fill="#000" fill-rule="nonzero"/><path d="M270.27 209.613c.352-.252.704-.505 1.059-.753l.423-.3.144-.099.146-.103c.072.41.224.788.464 1.177l.066.106-.608.034-.781.082a63.67 63.67 0 01-1.349.155c.153-.1.3-.2.436-.299m12.911-27.586l.153-1.392.131-1.23c.097-.968.193-1.887.187-2.805v-.623a76.392 76.392 0 00-.019-1.417l.122.043a9.381 9.381 0 01.548-.006l.112.044c.093.31.165.638.218 1 .012.108.025.224.034.338.035.303.028.639-.022 1.091-.183 1.174-.507 2.326-.819 3.44l-.162.558-.208.745-.153.547-.205.739-.1.367-.031.106c.077-.445.149-.94.214-1.545m-49.21 2.763l-.228-.069a8.132 8.132 0 01-.959-.613 3.654 3.654 0 01-.395-.368 3.88 3.88 0 01-.309-.557c-.143-.377-.208-.797-.27-1.233l-.04-.364c-.075-.664-.138-1.258-.123-1.848.016-.66.041-1.36.12-2.033.117-.685.245-1.355.475-1.958.247-.549.53-1.04.841-1.462.056-.067.116-.127.181-.186.08-.06.17-.11.259-.159l.171-.047.087.013.09.016.006.507-.052 1.277a25.608 25.608 0 000 2.694c.04.647.083 1.299.13 1.95l.066.965c.062.91.111 1.815.143 2.728.01.27.015.535.019.797l.006.01a1.91 1.91 0 00-.218-.06m4.503-20.454l.23-.075.589-.19c.616-.196 1.209-.438 1.912-.744.236-.1.473-.2.713-.292.632-.25 1.274-.565 1.822-.839l.122-.058.57-.284c.292-.143.582-.299.874-.458l.079-.04.404-.219a109.684 109.684 0 003.662-2.021 54.79 54.79 0 001.95-1.202l.143-.093.377-.242 1.075-.698c.146-.094.29-.197.433-.299l.161-.119.122-.083.075-.054c.152-.106.264-.186.37-.277l.277-.221.088-.072c.245-.2.488-.399.722-.61l.214-.2c.281-.255.555-.504.835-.753.408-.365.82-.729 1.23-1.09l.062-.053c.39-.349.695-.622.975-.916l.237-.245c.234-.24.586-.601.844-.947a9.39 9.39 0 00.365-.545l.05-.075.08-.124.072-.106.137-.2c.032.19.106.346.187.499l.05.09.143.277c.2.37.436.735.748 1.149.24.302.498.62.803.879.205.177.42.351.636.52l.448.349.9.697a30.71 30.71 0 002.236 1.597c.635.424 1.386.816 1.88 1.075l.125.062.078.037.103.054.255.127.57.3.218.11c.86.443 1.72.886 2.588 1.303a58.763 58.763 0 003.538 1.532l.112.05c.445.193.915.399 1.355.63a11.5 11.5 0 011.457.896c.13.113.252.24.392.42.203.262.399.546.577.829.18.292.336.594.508.983.444 1.162.78 2.465 1.055 4.099.115.975.203 1.784.23 2.573.01.239.016.476.019.712.003.206.006.409.013.611l.037.943c-.24.172-.352.549-.261.885a.848.848 0 00.314.458l-.022 1.877c0 .558-.022 1.037-.059 1.47-.029.34-.065.68-.106 1.016l-.037.333-.038.311-.037.312-.022.18c-.05.405-.088.717-.119 1.028-.068.676-.14 1.352-.224 2.027a32.529 32.529 0 01-.413 2.442 23.434 23.434 0 01-.717 2.66l-.04.12a60.55 60.55 0 01-.944 2.71c-.147.4-.287.794-.426 1.196l-.091.255-.09.259a43.072 43.072 0 01-.997 2.641l-.034.084a54.08 54.08 0 01-.841 1.859c-.368.756-.735 1.51-1.118 2.254-.688 1.327-1.604 2.585-2.342 3.594l-.212.29a21.828 21.828 0 01-1.965 2.167c-.36.358-.722.704-1.08 1.028l.103.025.068-.022-.197.118a30.456 30.456 0 00-1.12.832l-.813.589c-.194.137-.39.274-.589.407l-.003-.005-.134.05a5.637 5.637 0 00-.458.233l-.158.093c-.966.526-1.747.92-2.457 1.23-.32.13-.649.24-.982.35l-.299.099-.111.037c-.181.063-.355.122-.533.18-.343.107-.688.19-1.04.272-.255.047-.517.08-.778.112l-.26.034-.196.015-.252.016-.323.025a5.45 5.45 0 01-.235.006c-.193 0-.382-.01-.573-.022l-.124-.009a23.41 23.41 0 01-1.473-.161l-.106-.007c-.834-.119-1.713-.343-2.416-.523l-.256-.063-.277-.07a24.54 24.54 0 01-1.542-.446c-.483-.165-.959-.35-1.432-.543-.293-.13-.579-.27-.866-.41-.146-.072-.29-.147-.43-.222l-.134-.068a7.297 7.297 0 00-.351-.18 9.257 9.257 0 01-.9-.474 7.604 7.604 0 01-1.315-1.021 7.307 7.307 0 01-.541-.577l-.125-.143-.125-.14a27.944 27.944 0 00-1.006-1.034l-.124-.124c-.172-.168-.34-.336-.508-.511l-.084-.087a41.703 41.703 0 01-1.547-1.676c-.26-.299-.511-.6-.763-.903-.52-.878-1.143-1.71-1.748-2.516l-.32-.47a18.308 18.308 0 01-1.034-1.907 14.286 14.286 0 01-.327-1.033l-.034-.112a40.344 40.344 0 01-.243-.888l-.025-.093-.028-.103-.038-.134-.106-.398a29.528 29.528 0 01-.725-3.22l-.044-.24-.043-.237c-.05-.286-.1-.567-.156-.85l-.075-.408-.028-.15a56.11 56.11 0 01-.324-1.831 14.255 14.255 0 01-.112-1.084 77.866 77.866 0 01-.06-1.429l-.005-.324c-.025-.84-.047-1.666-.103-2.45a93.606 93.606 0 00-.106-1.396l-.012-.153c-.103-1.305-.21-2.656-.181-4.03.012-.52.037-1.036.066-1.557l.04-.831c.028-.698.037-1.395.044-2.096l.003-.258c.015-.888.044-1.623.087-2.245l.037-.533.02-.242c.034-.471.068-.92.114-1.368l.078-.476.08-.514.013-.09c.035-.237.069-.477.079-.72.005-.106 0-.215-.01-.32a2.53 2.53 0 01-.013-.238.834.834 0 00-.024-.227l.083.006c.593-.155 1.19-.346 1.754-.532m24.734-36.483l-.546.025c-.657.022-1.317.025-1.971.028h-.252l-.247.004a29.25 29.25 0 00-2.46.136c-.635.06-1.27.103-1.91.147l-.482.034c-.539.034-1.074.087-1.61.14l-.669.069c-.962.096-1.763.183-2.585.358-.816.177-1.644.448-2.193.626l-.186.059c-.838.264-1.647.67-2.36 1.027l-.726.364c-.589.297-1.175.593-1.757.9a31.202 31.202 0 00-4.435 2.828 54.068 54.068 0 00-1.883 1.567l-.066.059-.261.227c-.72.627-1.377 1.25-2.01 1.91-.438.463-.862.937-1.292 1.42l-.526.59a37.01 37.01 0 00-1.906 2.353c-.427.563-.812 1.176-1.124 1.672l-.077.127-.222.352a48.35 48.35 0 00-1.345 2.245l-.144.256c-.267.476-.532.953-.794 1.435-.454.832-.784 1.698-1.083 2.514-.33.909-.629 1.825-.882 2.722a47.184 47.184 0 00-.38 1.514l-.068.288-.072.284-.115.458c-.208.816-.383 1.61-.63 2.837-.33 1.7-.547 3.51-.694 5.696-.1 1.557-.174 3.267-.23 5.378a86.878 86.878 0 00.02 3.946l.02 1.307c.016.873.053 1.726.11 2.61.031.439.04.875.05 1.314l.006.159.003.168.018.773c.047 1.448.14 2.868.24 4.32l.013.189.012.196.04.573.01.153c.404 1.401.758 2.815 1.13 4.222.19.714.368 1.43.555 2.143.15.567.349 1.115.554 1.66.408 1.018.85 2.012 1.274 3.021.405.956.8 1.912 1.217 2.862.464 1.052.962 2.09 1.467 3.124.159.075.305.177.436.308.54.535.997 1.167 1.47 1.762.377.48.757.957 1.137 1.436.788 1.003 1.579 2.006 2.36 3.014.501.648 1.003 1.296 1.504 1.94.601.72 1.203 1.436 1.82 2.14.161.118.295.271.392.442.108.122.217.243.327.361.252.28.508.558.756.841.04.047.087.097.134.15.255.19.517.368.791.53.053.018.11.037.165.052.028.003.057.003.088.006.392-.19.88-.312 1.318-.24.06-.151.118-.303.177-.457.158-.417.31-.838.457-1.261.184-.551.309-1.137.427-1.7l.081-.378c.214-1.028.345-1.822.423-2.572a8.134 8.134 0 00-.106-2.258c.193.215.346.374.499.536l.25.274c.23.256.41.455.609.635.324.296.651.558.972.773a10.544 10.544 0 001.57.918l.074.04.442.225c.415.215.835.424 1.265.617.818.382 1.66.704 2.494.95.816.252 1.604.466 2.345.638l.256.062.105.031c.25.065.496.128.741.181.358.072.717.118 1.075.165l.115.015.28.038c.626.084 1.302.162 1.99.162.172 0 .35-.006.524-.016.498-.034.99-.102 1.482-.171a9.703 9.703 0 001.274-.268c.364-.103.722-.224 1.08-.348l.097-.038.096-.03a.351.351 0 00.134.02c.119 0 .247-.014.393-.043.162-.034.318-.103.467-.168l.205-.097c.368-.149.723-.32 1.081-.495-.037.034-.04.1-.04.156a1.76 1.76 0 00.838 1.523l.137.087c.03.165.087.34.158.517.271.697.695 1.327 1.031 1.83l.2.3c.523.8 1.233 1.535 2.104 2.187.25.183.52.345.789.503l.13.082.342.209c.44.289.879.57 1.333.831l.129.074c.541.312 1.027.598 1.466.931.184.175.355.368.52.595.174.26.34.564.492.907.153.47.259.981.343 1.656.053.739.08 1.374.08 1.94.004.337-.009.677-.02 1.012l-.004.091a24.07 24.07 0 00-.02 1.028 80.412 80.412 0 01-.08 4.36c-.024.7.013 1.398.056 2.114l.01.121c.044.794.093 1.614.199 2.392.11.791.358 1.536.564 2.096.364 1.018.965 2.024 1.78 2.993.412.482.79.862 1.185 1.199l.245.206c.234.199.467.395.7.588.194.155.381.302.596.43.109.068.23.124.355.18l.196.09.29.141c.48.234.95.454 1.416.626.428.158.86.32 1.28.504.867.449 1.648 1.06 2.368 1.648.299.264.585.517.831.81.074.118.146.251.211.389.219.704.337 1.473.437 2.09l.021.136c.178 1.13.789 2.286 1.723 3.251.582.592 1.28.966 2.064 1.358.377.19.766.387 1.118.63.342.233.664.482.981.74.48.427.96.904 1.467 1.458a27.406 27.406 0 001.501 1.529c.352.324.713.635 1.08.922.474.367 1.04.604 1.583.803.81.315 1.753.474 2.441.585.95.163 1.7.24 2.38.247h.083c.365 0 .73-.01 1.093-.019a34.8 34.8 0 011.116-.019c.404 0 .809.01 1.217.023.293.008.589.015.884.021.492 0 .931-.044 1.34-.084.504-.06.918-.218 1.27-.362 1.252-.485 1.616-1.856 1.94-3.061l.05-.2c.162-.597.302-1.2.443-1.805.301-1.323.563-2.684.784-4.052.2-1.254.312-2.485.334-3.662.011-.832-.12-1.685-.225-2.37l-.025-.17a53.343 53.343 0 01-.208-1.559 16.838 16.838 0 01.159-3.496c.14-.592.314-1.193.485-1.773.222-.753.455-1.532.608-2.329.326-1.738.538-3.298.645-4.77.055-.752.111-1.502.152-2.255.018-.346.034-.695.037-1.04a5.489 5.489 0 00-.062-.798l-.022-.206a3.113 3.113 0 00-.212-.719l-.074-.187a8.04 8.04 0 00-.265-.598c-.324-.675-.785-1.33-1.121-1.802l-.24-.343-.402-.585a64.319 64.319 0 00-1.114-1.601l-.365-.508-.346-.48-.42-.582c-.467-.685-.95-1.433-1.302-2.261l-.047-.143-.046-.14a5.365 5.365 0 01-.228-1.047c-.053-.629-.1-1.298-.053-1.97.056-.724.14-1.45.25-2.15.2-1.261.376-2.594.557-4.188.196-1.766.215-3.413.056-4.899-.031-.295-.118-.576-.214-.887l-.085-.28c-.1-.34-.212-.677-.33-1.01l-.069-.2c-.233-.669-.51-1.46-.875-2.154-.336-.66-.747-1.317-1.108-1.9l-.423-.678c-.527-.866-1.225-2.006-1.975-3.043a121.76 121.76 0 00-1.784-2.42l-.14-.187c-.651-.859-1.3-1.718-1.928-2.584l-.63-.872-.314-.44c-.174-.255-.34-.516-.507-.778l-.054-.078-.05-.075-.317-.489c-.28-.43-.567-.844-.96-1.202.02-.488.013-1 .004-1.52l-.018-.824c-.023-1.856-.044-3.704-.091-5.547-.022-1.04-.138-2.092-.228-2.94l-.024-.234-.022-.21a55.87 55.87 0 01-.18-1.9c-.107-1.533-.278-3.56-.655-5.635-.255-1.43-.629-2.846-.962-4.097l-.18-.667c-.244-.91-.496-1.71-.776-2.442a42.74 42.74 0 01-.535-1.516 73.543 73.543 0 00-.322-.931 89.688 89.688 0 01-1.015-3.13c-.302-.966-.688-1.884-1.158-2.987l-.047-.112-.106-.246a128.68 128.68 0 00-.856-2.02 35.395 35.395 0 00-.508-1.054l-.071-.149-.072-.15-.072-.142-.25-.495c-.35-.701-.715-1.424-1.104-2.078a46.76 46.76 0 00-1.165-1.84l-.053-.081a33.168 33.168 0 00-1.268-1.863 35.234 35.234 0 00-.694-.887l-.156-.193-.078-.097-.07-.087-.072-.084-.368-.446a23.676 23.676 0 00-1.433-1.597c-.57-.56-1.199-1.043-1.707-1.433l-.522-.441-.178-.147c-.504-.417-.925-.77-1.336-1.065a18.518 18.518 0 00-2.198-1.352 177.878 177.878 0 01-4.074-2.267c-2.438-1.392-4.905-2.301-7.328-2.709a15.686 15.686 0 00-2.535-.18c-.7 0-1.404.027-2.104.055m-25.229 90.084c.003-.056.006-.109.006-.165l-.016-.016c-.037-.036-.074-.074-.111-.108.04.093.08.193.12.29" fill="#000" fill-rule="nonzero"/><path d="M288.96 150.422c.47.894.925 1.794 1.367 2.7.355.732.645 1.489.934 2.249l-.037-.097c.277.76.542 1.523.828 2.276.289.742.593 1.478.885 2.22.273.758.544 1.52.781 2.29.259.85.514 1.7.782 2.547.246.773.458 1.554.741 2.31.296.796.612 1.588.926 2.376.14.39.27.78.376 1.181.121.452.227.907.333 1.364.193.82.33 1.648.514 2.47.205.906.39 1.815.58 2.725.177.869.336 1.747.585 2.597.262.89.454 1.797.72 2.685.282.95.647 1.87 1.03 2.78.358.848.682 1.71 1.052 2.55.374.858.786 1.695 1.175 2.542.299.641.588 1.29.884 1.931.308.67.657 1.317 1.012 1.968.33.604.673 1.202.987 1.819a16.747 16.747 0 01.801 1.739c.183.526.36 1.053.523 1.587.18.59.255 1.22.344 1.829a52.48 52.48 0 01.179 5.312c-.025 1.908-.324 3.802-.595 5.689-.103.72-.236 1.439-.355 2.155l.066-.361c-.215 1.215-.424 2.432-.685 3.634-.131.601-.309 1.196-.464 1.79-.153.583-.234 1.184-.396 1.767-.137.485.028 1.006.464 1.286.492.315 1.246.19 1.548-.343.488-.863.838-1.83 1.127-2.78.15-.486.284-.966.402-1.461.118-.477.202-.969.299-1.451.183-.89.336-1.788.498-2.681a99.37 99.37 0 00.53-3.264c.127-.916.249-1.828.333-2.748.04-.472.037-.952.043-1.426.007-.448.004-.897-.003-1.345a57.616 57.616 0 00-.137-2.918c-.078-1.024-.18-2.052-.433-3.051-.112-.452-.27-.892-.423-1.33a35.265 35.265 0 00-.608-1.59c-.071-.182-.171-.36-.258-.534-.11-.218-.218-.44-.33-.655-.227-.426-.455-.85-.697-1.267-.47-.813-.944-1.629-1.346-2.479-.417-.878-.832-1.76-1.261-2.635-.486-.993-.966-1.983-1.392-3.008-.393-.95-.838-1.88-1.225-2.835a49.042 49.042 0 01-.398-1.15c-.14-.434-.24-.88-.367-1.315-.255-.853-.546-1.694-.76-2.557-.224-.9-.423-1.806-.635-2.71-.206-.858-.433-1.712-.654-2.569-.11-.426-.24-.846-.365-1.27-.125-.427-.23-.865-.383-1.283-.183-.502-.37-.997-.592-1.482-.17-.37-.34-.745-.504-1.121-.19-.433-.383-.866-.567-1.302-.171-.414-.324-.835-.501-1.246-.18-.423-.355-.85-.533-1.273-.17-.405-.364-.797-.535-1.2-.38-.906-.772-1.8-1.197-2.687-.404-.847-.834-1.682-1.227-2.535-.389-.85-.74-1.719-1.101-2.581a34.754 34.754 0 00-1.162-2.442c-.299-.576-.595-1.149-.897-1.722a.319.319 0 00-.29-.184c-.238 0-.481.243-.336.52" fill="#000" fill-rule="nonzero"/><path d="M296.28 181.829a.435.435 0 00-.179.585c.28.517.57 1.027.838 1.551.212.408.42.816.63 1.224.286.557.582 1.111.843 1.678.3.658.605 1.312.897 1.972l.039.085c.094.31.202.619.316.924.187.501.415.974.645 1.457a.494.494 0 00.899-.064.883.883 0 00.465-.104.926.926 0 00.442-.526 1.16 1.16 0 00.025-.527c-.016-.118-.022-.242-.044-.361l-.074-.43c-.05-.283-.103-.564-.162-.843-.056-.275-.116-.549-.172-.825l-.083-.402c-.02-.091-.038-.184-.06-.275-.037-.19-.121-.37-.19-.551a.953.953 0 00-.32-.349l-.036-.02a24.99 24.99 0 00-.286-.811 9.641 9.641 0 00-.386-.866 2.413 2.413 0 00-.57-.722c-.137-.128-.283-.215-.479-.222a.71.71 0 00-.61.318.516.516 0 00-.081.14l-.075.16a1.094 1.094 0 00-.037.301c-.01.162.043.327.068.486.027.172.05.346.078.518l-.246-.48c-.218-.418-.433-.835-.648-1.252-.277-.536-.57-1.062-.86-1.592a.444.444 0 00-.588-.177m-20.829 24.464c-.128.04-.234.078-.346.149-.1.063-.193.14-.29.212-.074.056-.143.119-.217.178-.225.177-.446.358-.67.539a8.61 8.61 0 01-.187.147.873.873 0 00-.53-.222 2.156 2.156 0 00-.634.04c-.197.044-.387.137-.573.205a8.018 8.018 0 00-.745.337c-.283.137-.564.28-.841.43-.29.159-.585.346-.812.585-.402.417-.617 1.062-.35 1.61.03.06.07.116.115.167a6.44 6.44 0 00-.288.2c-.181.138-.244.424-.193.633.07.305.32.467.613.508.22.028.436-.069.62-.178.214-.125.414-.277.613-.423.203-.15.399-.315.595-.477.299-.246.591-.502.88-.76.26-.224.509-.458.761-.688.128-.119.255-.237.386-.355.062-.06.128-.115.19-.171.054-.048.104-.088.153-.137l.57-.458.362-.296-.113.287c-.172.442-.352.88-.53 1.32-.14.355-.258.72-.383 1.08a51.59 51.59 0 00-.579 1.772.393.393 0 00.252.487.39.39 0 00.486-.25c.165-.548.342-1.083.53-1.622.127-.368.24-.745.389-1.103.343-.826.67-1.66 1.043-2.475.062-.13.123-.26.177-.393.057-.133.075-.28.097-.42.044-.244-.212-.474-.448-.474a.322.322 0 00-.103.016m21.473-14.748c-.047.91-.044 1.818-.018 2.728.024.878.046 1.76.096 2.637.05.872.087 1.741.165 2.61.08.925.156 1.853.252 2.778.27 2.627.54 5.256.823 7.882l.111 1.218c.035.38.078.757.1 1.136l.081 1.5c-.086-.3-.151-.604-.228-.902-.202-.794-.401-1.585-.594-2.379a410.047 410.047 0 00-4.135-15.845c-.055-.188-.111-.376-.16-.566 0-.04-.006-.08-.018-.12a1.295 1.295 0 00-.035-.102c-.09-.249-.302-.423-.579-.361a.49.49 0 00-.361.58c.087.373.199.743.305 1.11l.505 1.81c.161.58.314 1.159.464 1.738.445 1.722.916 3.438 1.326 5.17.421 1.78.86 3.563 1.243 5.353.183.875.374 1.75.557 2.625.184.881.349 1.77.56 2.644.128.523.253 1.044.396 1.563.069.25.137.499.212.748.038.134.078.265.112.399.047.168.097.333.184.485.103.184.265.312.436.427.474.318 1.118.053 1.292-.467.09-.265.187-.52.24-.794.063-.318.103-.636.131-.96.046-.532.046-1.074.025-1.61-.019-.513-.04-1.03-.062-1.544-.035-.897-.122-1.79-.193-2.688-.075-.952-.184-1.906-.28-2.858-.088-.873-.17-1.745-.253-2.616-.107-1.097-.218-2.195-.328-3.292-.074-.834-.145-1.667-.22-2.498-.075-.844-.103-1.694-.153-2.54-.093-1.642-.122-3.287-.215-4.927-.012-.247-.065-.455-.237-.642a.89.89 0 00-.62-.286l-.033-.001a.902.902 0 00-.894.857M224.38 171.21c-.013.35.274.686.635.686a.67.67 0 00.685-.636c.013-.348-.274-.685-.635-.685a.671.671 0 00-.685.636m-.127 5.399c-.049 1.542-.083 3.102.01 4.644.04.732.124 1.46.196 2.19.069.669.195 1.332.274 1.999.056.636.133 1.262.243 1.89.112.62.243 1.233.352 1.853.206 1.19.39 2.385.592 3.574.205 1.219.46 2.423.856 3.597.44 1.314.957 2.601 1.448 3.9.424 1.12.919 2.23 1.52 3.27.62 1.064 1.29 2.095 1.95 3.132.376.595.75 1.187 1.162 1.753.398.549.825 1.06 1.276 1.564.38.423.77.844 1.152 1.27.408.452.807.919 1.246 1.342.588.57 1.209 1.106 1.806 1.67.542.51 1.009 1.102 1.51 1.653.533.59 1.09 1.156 1.598 1.77.233.284.462.573.686.867.553.942.987 1.962 1.494 2.925.125.234.246.464.364.698.044.084.088.165.134.249.02.034.037.068.06.103.18.315.308.442.585.66a.992.992 0 00.405.193c.137.022.273.047.41.072.281.009.546-.05.795-.184.137-.059.264-.147.362-.258.248-.29.28-.346.438-.701.085-.184.081-.411.11-.614.012-.102.027-.205.04-.31.035-.262.031-.522.005-.78l.026-.037c.222-.309.366-.691.522-1.037.255-.548.493-1.094.658-1.685.212-.753.268-1.539.379-2.311.075-.379.157-.755.213-1.14a5.76 5.76 0 00-.003-1.566c-.065-.51-.302-.993-.533-1.444-.199-.39-.426-.767-.666-1.134-1.026-1.559-2.202-3.005-3.425-4.411a5.119 5.119 0 00-.197-.239 1.569 1.569 0 00-2.47.22c-.243.382-.264.767-.205 1.2.044.327.227.608.414.87.2.277.396.557.598.83l.074.101c.083.18.16.362.235.546.188.574.365 1.14.53 1.72a1.649 1.649 0 00-1.941 1.107l-.04.22a16.727 16.727 0 00-.853-.827 74.922 74.922 0 01-2.312-2.863c-.514-.67-1.046-1.325-1.546-2.003a52.827 52.827 0 01-3.614-6.698c-.234-.517-.426-1.062-.626-1.595-.225-.588-.445-1.18-.67-1.772-.476-1.251-.952-2.5-1.454-3.743a29.29 29.29 0 00-.364-.856c-.274-.627-1.078-.926-1.71-.779a1.544 1.544 0 00-.694.376l-.022-.08c-.343-1.24-.658-2.488-.985-3.731-.155-.595-.317-1.186-.444-1.788-.126-.591-.212-1.192-.328-1.784-.112-.56-.236-1.112-.314-1.678-.077-.573-.155-1.15-.223-1.726-.1-1.405-.11-2.808-.07-4.213a.516.516 0 00-.488-.533h-.018a.516.516 0 00-.513.493zm43.411 35.898l-.083.1a.925.925 0 01.083-.1m-1.16-1.469c-.473.346-.663.997-.8 1.536-.04.174-.084.349-.124.523-.085.37-.125.71-.075 1.09.078.607.217 1.208.354 1.803.126.545.225 1.096.378 1.635.165.588.45 1.102.725 1.641.206.408.452.825.79 1.133.238.219.465.405.745.555.206.109.414.215.62.327.51.277 1.019.517 1.591.635.517.109 1.04.166 1.56.244.144.03.283.068.42.116.017.01.036.02.052.031.193.316.37.649.515.991.115.337.217.68.346 1.016.116.296.309.539.505.794.168.153.346.296.53.43.205.156.553.262.813.33.441.118.921.15 1.379.168.782.035 1.51-.48 1.747-1.226.296-.923-.233-1.913-1.143-2.215-.13-.043-.26-.086-.388-.13-.142-.465-.277-.93-.487-1.374-.34-.723-.825-1.426-1.476-1.893-.632-.455-1.364-.652-2.118-.773-.65-.101-1.31-.08-1.962-.149a8.173 8.173 0 01-1.13-.395 3.219 3.219 0 01-.189-.113 7.84 7.84 0 01-.682-.831c-.526-.798-.916-1.683-1.258-2.574a6.425 6.425 0 01-.221-.765c.005-.214.025-.423.05-.635.04-.173.085-.337.144-.503a.776.776 0 01.06-.045c.41-.305.37-.981.053-1.327a.94.94 0 00-.65-.299h-.034c-.255 0-.44.1-.64.25m-10.169-22.623c-.118.72-.21 1.44-.303 2.16l.008-.045a3.22 3.22 0 00-.014.093l-.002.016v-.006c-.018.13-.036.26-.063.39-.021.108-.065.217-.068.33l.004-.004c0 .198.154.383.376.383a.418.418 0 00.079-.006l.041.094a5.522 5.522 0 00-.47-.05 1.313 1.313 0 00-.491.059.842.842 0 00-.38.24 1.127 1.127 0 00-.224.429c-.062.228-.056.524.068.732.23.383.713.504 1.13.563.876.122 1.76.188 2.644.16a17.509 17.509 0 002.545-.256c.251-.044.504-.087.755-.136.133-.02.266-.043.397-.07.284-.059.567-.111.844-.199.355-.112.713-.301.981-.564.106-.108.212-.264.234-.417a.69.69 0 00-.013-.311.61.61 0 00-.265-.345.432.432 0 00-.102-.138.664.664 0 00-.237-.14c-.06-.025-.122-.025-.184-.028-.077-.01-.168.022-.249.038l-.143.023c-.387.041-.772.065-1.158.091-.499.031-.997.069-1.492.106-.44.035-.879.038-1.318.044-.513.003-1.032.023-1.544-.023a3.095 3.095 0 01-.495-.114.71.71 0 01-.042-.025.893.893 0 01-.086-.087 1.19 1.19 0 01-.09-.146 1.681 1.681 0 01-.065-.258 3.345 3.345 0 01-.001-.514c.04-.133.08-.265.119-.4.122-.428.221-.864.268-1.307.024-.138.037-.278-.082-.39a.372.372 0 00-.183-.092.41.41 0 00-.329-.176c-.177 0-.371.115-.4.296m2.144 7.113c-.157.022-.314.04-.468.066l.07-.01.418-.058-.02.002m4.454-29.152l-.058-.04a.663.663 0 00-.364-.106c.14.05.281.098.422.146m.327 34.34c.146.064.282.13.412.214a8.844 8.844 0 00-.024-.29c-.005-.052-.01-.105-.018-.157-.122.081-.246.16-.37.233" fill="#000" fill-rule="nonzero"/><path d="M263.26 200.718c.08.036.158.072.233.111a2.68 2.68 0 00-.062-.215l-.172.104m11.691-26.048a.363.363 0 000 .514c.076.074.156.093.26.106l.288.037a.337.337 0 00.091.491.724.724 0 00.098.047c.14.073.275.153.419.212.25.106.501.174.763.228.284.052.567.109.85.155.274.044.548.065.823.04.245-.024.488-.074.715-.177a.433.433 0 00.203-.265.442.442 0 00-.545-.543v-.001c-.05.01-.1.03-.152.048l-.053.014a.314.314 0 00-.046.015 3.26 3.26 0 01-.276.058 3.864 3.864 0 01-.49.011l.101-.032c.175.015.354.023.518-.037a.476.476 0 00.245-.186c.035-.06.06-.125.085-.19a.42.42 0 00-.01-.356c-.055-.111-.23-.192-.354-.142a.59.59 0 00-.088.043l-.003.002a1.725 1.725 0 01-.274.155c-.16-.008-.321-.03-.48-.048a307.06 307.06 0 01-2.43-.305l-.025-.002a.363.363 0 00-.232.108m-31.819-5.16l.12-.05c-.04.015-.08.032-.12.05m6.83-1.38c-.9.015-1.8.09-2.69.239-.402.068-.803.14-1.202.233a25.15 25.15 0 00-1.17.315c-.297.087-.599.172-.895.265-.311.1-.61.215-.912.345.012-.005.025-.012.039-.017-.507.215-1.01.436-1.515.65l.088-.037-.384.162c-.24.102-.455.23-.66.389-.101.076-.202.154-.302.233a33.31 33.31 0 00-.689.324c-.2.1-.316.32-.332.539a8.402 8.402 0 00-.45.442.614.614 0 000 .857c.231.227.633.24.857 0 .249-.264.514-.507.79-.739.553-.213 1.101-.445 1.657-.653.67-.253 1.33-.527 2-.782.694-.265 1.401-.492 2.105-.73.65-.22 1.31-.382 1.987-.489.431-.036.868-.07 1.302-.058.506.015 1.01.042 1.518.085.22.035.442.072.662.12.25.053.485.14.725.225.485.167.972.336 1.457.512.105.04.205.067.33.08.234.024.48-.147.593-.34.143-.246.127-.639-.106-.832-.321-.258-.704-.382-1.068-.57-.39-.196-.78-.382-1.2-.504-.42-.122-.872-.165-1.305-.202a11.909 11.909 0 00-1.091-.064c-.046 0-.092 0-.139.002m22.578-.66c-.358.053-.716.156-1.066.252-.314.088-.625.184-.94.28-.385.118-.77.234-1.153.358-.187.051-.374.103-.56.157-.526.155-1.046.324-1.576.466-.538.14-1.083.238-1.633.32l-.106.012c-.45-.01-.9-.047-1.352-.086-.266-.04-.532-.082-.795-.142a.55.55 0 00-.173-.042 4.767 4.767 0 01-.364-.11 7.839 7.839 0 01-.246-.181c-.1-.08-.2-.158-.304-.231-.336-.234-.822-.2-1.106.096a.792.792 0 00-.214.37c-.066.231-.016.434.084.646.071.152.236.31.37.42.293.233.582.41.943.532.055.033.11.066.166.097.464.258 1.003.343 1.526.333a7.85 7.85 0 00.344-.012c.211.02.423.034.634.05a9 9 0 001.155.019c.944-.044 1.847-.356 2.725-.686.73-.274 1.47-.516 2.205-.772.68-.24 1.353-.472 2.06-.602.262-.032.525-.06.79-.08.16-.002.32.003.479.018.291.054.573.147.85.252.237.111.466.233.689.375.27.17.532.37.794.56.264.193.532.386.806.56.232.148.497.305.769.339.301.128.684.034.91-.192a.85.85 0 00.246-.595c0-.24-.096-.42-.246-.595-.243-.29-.536-.52-.822-.766-.315-.27-.605-.567-.935-.819-.323-.25-.713-.405-1.099-.526a5.5 5.5 0 00-1.264-.218 10.522 10.522 0 00-.594-.017c-.668 0-1.337.061-1.997.16" fill="#000" fill-rule="nonzero"/><path d="M262.157 199.119c-.116.107-.206.244-.298.375a8.192 8.192 0 01-1.26 1.217c-.27.197-.55.367-.854.508-.23.084-.459.149-.699.19a6.73 6.73 0 01-1.34-.028 13.791 13.791 0 01-1.347-.288.923.923 0 00-1.125.638.926.926 0 00.638 1.124c.723.19 1.446.331 2.186.405.739.075 1.498.023 2.2-.22.7-.24 1.295-.651 1.855-1.131a6.37 6.37 0 00.592-.557c.199-.228.386-.464.57-.704.156-.206.342-.44.411-.688a.997.997 0 00-.013-.59c-.072-.192-.165-.345-.345-.45-.147-.088-.268-.097-.436-.113a.649.649 0 00-.055-.002c-.252 0-.509.151-.68.314" fill="#571010" fill-rule="nonzero"/><path d="M269.183 174.568c-.09.03-.181.059-.268.096a4.906 4.906 0 00-.399.178l-.168.083c-.087.048-.18.085-.246.162a.814.814 0 00-.042.053c-.4.238-.79.49-1.185.741-.42.275-.84.542-1.267.807-.52.318-1.062.595-1.607.866-.265.13-.337.501-.197.745a.55.55 0 00.747.196 21.013 21.013 0 001.608-.863c.448-.277.893-.56 1.339-.841.43-.274.863-.539 1.304-.794.101-.057.204-.114.306-.169l.037-.009c.243-.052.486-.108.726-.165.47-.111.937-.224 1.414-.296.18-.024.308-.236.308-.405a.422.422 0 00-.42-.42 6.535 6.535 0 00-1.32.12l-.01-.01a.522.522 0 00-.355-.147l-.026-.001c-.095 0-.194.044-.28.073" fill="#000" fill-rule="nonzero"/></g></svg>