<svg xmlns="http://www.w3.org/2000/svg" viewBox="0 0 500 600"><g opacity=".4"><path d="m192.5 561.1-2.9 8.5c-1.5 4.4-3.1 9-2.9 13.7s2.3 9.7 6.5 11.8 5.9 1.4 8.9 1.3l8.9-.2a12.1 12.1 0 0 0 5-1 7.2 7.2 0 0 0 3.3-5.4 19.8 19.8 0 0 0-.5-6.4 132.8 132.8 0 0 0-7.1-23.8c-.7-1.7-1.5-3.3-3.2-3.9a10.5 10.5 0 0 0-3.1-.3 51.8 51.8 0 0 0-7.8.9 10.4 10.4 0 0 0-3.8 1.5 3.3 3.3 0 0 0-1.3 3.3z" stroke="#000" stroke-linecap="round" stroke-linejoin="round" opacity=".92"/><g opacity=".3" fill="none" stroke="#fff" stroke-linecap="round" stroke-linejoin="round"><path d="m216.8 587.2.3.8a46.7 46.7 0 0 0-14.8-2.3 29.8 29.8 0 0 0-11.7 3M209.4 571.1a14.3 14.3 0 0 0-6.8-.6 29.3 29.3 0 0 0-6.6 1.8M209.6 576.3a12.3 12.3 0 0 0-7.1-.8 28.7 28.7 0 0 0-6.8 2.3M209.7 581c0-.1.2 0 .1.1s-.2.1-.3.1c-4.6-1.4-9.6-.3-14 1.6"/><path d="M194.8 571a1.6 1.6 0 0 1 1.7 1 1.8 1.8 0 0 1-.8 1.9 1.5 1.5 0 0 1-1.9-.6 1.7 1.7 0 0 1 0-1.7 1.6 1.6 0 0 1 1.6-.4M193.7 576.7a2.8 2.8 0 0 1 1.8 0l.4.3a.7.7 0 0 1 .1.5 2.8 2.8 0 0 1-.5 2c-.7.7-1.9.4-2.7-.1a1.2 1.2 0 0 1-.5-.5.9.9 0 0 1 .1-.7 2.4 2.4 0 0 1 .6-1.1 1.1 1.1 0 0 1 1.1-.4M194 581.6a1.4 1.4 0 0 1 1.6.5 1.4 1.4 0 0 1-.3 1.7l-.7.3a2 2 0 0 1-1.5-.5 1.4 1.4 0 0 1-.1-1.5 1.1 1.1 0 0 1 1.4-.3M209.8 580.3a1.9 1.9 0 0 1 1.6-.3c.6.3.7 1 .8 1.6l.2 1a.7.7 0 0 1-.1.5c-.1.2-.3.2-.4.3a4.4 4.4 0 0 1-1.6.2 1.4 1.4 0 0 1-1.3-.8 1.6 1.6 0 0 1 .1-1 2.7 2.7 0 0 1 .7-1.4h.3M209.7 575.1a1.3 1.3 0 0 1 1.2-.6 1.5 1.5 0 1 1-.6 3 .7.7 0 0 1-.7-.4 1.4 1.4 0 0 1 .1-.9l.5-1.2M209.2 570.4c.7-.3 1-1.7 1.9-1.1a1.1 1.1 0 0 1 .7.8 2.1 2.1 0 0 1-.2 1.9c-.7 1.1-2.6 1.1-2.8-.4s0-1.3.6-1.1"/></g><path d="M312.4 565a7.7 7.7 0 0 1 2.4 1.2 5.3 5.3 0 0 1 1.8 4.8c-.3 3.8-3.7 6.8-7.4 7.9s-7.6.7-11.4.3l-32.9-3.5a16.2 16.2 0 0 1-5.3-1.1c-4.4-2-6.2-7.5-6.6-12.4s.7-10 4.5-12.7 5.6-2 8.6-2.2 10.5-2.3 13.9-.6 3.4 5.6 5.9 7.6c7.5 5.8 17.7 7.7 26.5 10.7z" stroke="#000" stroke-linecap="round" stroke-linejoin="round" opacity=".92"/><g opacity=".3" fill="none" stroke="#fff" stroke-linecap="round" stroke-linejoin="round"><path d="M307.5 564.5c-.1-.5-.8-.5-1.3-.3a15.4 15.4 0 0 0-8.2 8.6M300 561.6a15 15 0 0 0-4.4 5.6c.1.1.3-.1.3-.2M296.1 559.6a10.4 10.4 0 0 0-3.1 5.1M292.3 558.3a9.6 9.6 0 0 0-2.6 4.2s.2 0 .1-.1M313.3 575.9a5.7 5.7 0 0 1-3.6 1.1 53 53 0 0 1-6.9.1c-2.2-.1-4.3-.3-6.4-.6l-17.4-1.8-6.2-.8-6.2-1.1c-4.1-.5-8.6-.3-11.8-2.9a.8.8 0 0 1-.2-.4.2.2 0 1 1 .3 0"/><path d="M295.7 567.4h.3a2.5 2.5 0 0 1 .4 1.7 1.9 1.9 0 0 1-1 1.4 1.6 1.6 0 0 1-1.9-1.4 1.9 1.9 0 0 1 1.5-2c.3-.1.7 0 .7.3a.4.4 0 0 1-.5-.2M292.9 564.3c.2-.1.4.1.5.2a1.3 1.3 0 0 1 .1.6c0 .5 0 .9-.4 1.2a1 1 0 0 1-1.4-.1 1.1 1.1 0 0 1 .1-1.5 1.4 1.4 0 0 1 1.5-.3M288.9 562.5c.1-.2.3-.2.5-.2l.5.4a1.7 1.7 0 0 1 .2 1.4l-.4.4a1.3 1.3 0 0 1-1.9-.9 1.4 1.4 0 0 1 1.7-1.2"/></g><path d="M361.5 215c.3.2 12.4 12.9 12.4 12.9l-1.7 2.8s-14.6 4.1-14.7 3.9-1.7-15.6-1.7-15.6l1.8-3.5 1.9-1.1z" fill="#f8c59a" stroke="#000" stroke-linecap="round" stroke-linejoin="round"/><path d="M364.3 226.5a2.1 2.1 0 0 0 2.8.6l6.2-3.8a2.6 2.6 0 1 0-2.8-4.2l-5.8 4.5a2.2 2.2 0 0 0-.4 2.9z" fill="#f8c59a" stroke="#000" stroke-linecap="round" stroke-linejoin="round"/><path d="M361.6 223.7a2.2 2.2 0 0 0 3.1.2l6.5-5.3c1.4-1.1 1.8-3 .8-4.1s-3-.9-4.3.3l-6 5.9a2.2 2.2 0 0 0-.1 3z" fill="#f8c59a" stroke="#000" stroke-linecap="round" stroke-linejoin="round"/><path d="M360.8 214.6c5.2-7.3 13.3-14.5 15.5-16.6s6.6-1.1-.3 6.5-5.3 5.8-9.8 11.5-5.2 2.7-5.2 2.7-.9-3.2-.2-4.1z" fill="#f8c59a" stroke="#000" stroke-linecap="round" stroke-linejoin="round"/><path d="M373.8 228.3a28.8 28.8 0 0 1-12 11.7c-3.2 1.6-4.5 1.2-4.5 1.2l-9.3 8.2-7.2-11.1 9.4-6.1s-2.1-9.8.4-14a17.9 17.9 0 0 1 6.8-6.3c2.5-1.3 3.3-1.1 5 .6s6.5 6.5 4 7.9-7.2-1.5-8.3-4.2l-1.5 1.5c1.3 1.9 2.3 3.8 3.4 5.8a10 10 0 0 1-1.8 10c1.4-1.5 4.4-2 6.3-2a13.4 13.4 0 0 0 9.3-3.2z" fill="#f8c59a" stroke="#000" stroke-linecap="round" stroke-linejoin="round"/><path d="M365.6 230.1a1.9 1.9 0 0 0 2.5 1l6.3-3a2.5 2.5 0 0 0 1.4-3.4 2.4 2.4 0 0 0-3.5-.8l-6 3.6a1.9 1.9 0 0 0-.7 2.6z" fill="#f8c59a" stroke="#000" stroke-linecap="round" stroke-linejoin="round"/><path d="M250.6 411.1c-7.4 24-13.8 48.2-19.1 72.8s-11.5 48.9-11.2 72.9a3.2 3.2 0 0 1-.3 1.7 3.2 3.2 0 0 1-2.5 1.2 91.6 91.6 0 0 1-30-.4c-3-.5 12.2-100.9 13.8-110.2 3.7-22.8 9-45.5 11.9-68.4 3.1-24.5 6.8-48.7 7.6-73.3a2.2 2.2 0 0 1 .3-1.4l.8-.6c5.1-2.6 10.4-1.8 15.9-1.9s13.2-.1 19.8 0c12.2.2 24.4.7 36.5.7 2.2 0 4.7.1 6.2 1.7s1.6 3.4 1.8 5.4c2 18.7 3.6 37.6 2.1 56.4-1.6 21.2-4.4 42.3-7.2 63.4-1.3 10.2-3 20.4-3.9 30.7-2.3 24.5-4.5 48.9-5.2 73.5a97.3 97.3 0 0 0-.1 10.8c.1 1.9 1 3.4-.2 5.1-2.9 3.9-11.1 3.2-15.3 3.3-6.1.1-14.3 1.8-19.5-1.8-2-1.4-.7-18.5-.7-21.5-.1-8 0-16.1.2-24.1 1.5-48.9 7.2-98.2 11.4-147.1" fill-rule="evenodd"/><path d="M205.3 363.3c0 .3.1.6.1.8.3 2.1.8 4.1 1.2 6.1.8 3.8 1.6 7.7 2.5 11.6a12.7 12.7 0 0 0 4.3 7.8 21.4 21.4 0 0 0 6.4 3.2 4.9 4.9 0 0 0 2.6.4c3.5-.6.6-4.4-.8-5.5s-2.3-1.8-3.4-2.7-2.6-1.9-2.6-3.4l.7-13.6c1.2 1.2 1.4 2.8 1.7 4.4a25.2 25.2 0 0 0 1.3 4.7 4.7 4.7 0 0 0 1.5 2.4 1.9 1.9 0 0 0 2.6-.3c.4-.4.3-1.1.3-1.6l-.2-6.9a27.5 27.5 0 0 0-.5-5.7 21.9 21.9 0 0 0-5.2-9.7 4.1 4.1 0 0 0-4-1.7c-2.4.1-5 0-7.3.8s-1.8 1.3-1.7 3.2a36.6 36.6 0 0 0 .5 5.7z" fill="#f8c59a" stroke="#1a1a1a" stroke-linecap="round" stroke-linejoin="round"/><path d="M298.5 223.1c-.4 9.3-.6 18.6-.4 27.9 0 4.7.2 9.3.4 14a123.5 123.5 0 0 1 .3 13.6l-.3 3.6a39.1 39.1 0 0 0 .5 4.8c.5 3 .8 6.1 1.5 9.1s1.8 5.9.9 9c-2.6 8.3-15.3 9.1-22.7 9.6a104.4 104.4 0 0 1-13.7 0l-22.9-1c-2.6-.1-6.8.7-10.5.7h-1.7a8 8 0 0 1-4.5-1.4 5.7 5.7 0 0 1-1.2-1.5 13.4 13.4 0 0 1-3.4-4.3 16 16 0 0 1-.9-6.5 446 446 0 0 0-4.3-55.1l-.3 2.4c-.1 1.5-.2 3-.2 4.6l.3 6.7c.4 15-.9 30 .8 45 1.5 13 4.5 26 5 39.1a6.8 6.8 0 0 1 .1 2.8 54.2 54.2 0 0 1-.1 5.7c-.1 1.6-.3 3.3-1.3 4.4s-2.5 1.2-3.9 1.5l-10.1 1.2a4.4 4.4 0 0 1-2.8-.3 4.4 4.4 0 0 1-1.7-3.2c-3.9-17-7.8-34.1-10.5-51.2-2-13-1.6-25.1-1.5-37.7-.1-3.9-.2-7.7-.2-11.5-.1-8.9.2-17.7.5-26.6l.3-12.4c.2-5.4.4-11 2.1-16.1a26.9 26.9 0 0 1 2.7-6.5c4.4-7.2 13-10.5 20.3-14.1 5.4-2.7 10.9-5.2 17-6.3h1.3a3.8 3.8 0 0 1 2 1.5 138.1 138.1 0 0 0 11.1 11.8c1.7 1.7 5.9 6.3 8.5 5.7s5.8-5.2 8.1-7a8 8 0 0 1 4-2c1.7-.3 3.5.3 5.3.1s5.2-1.7 5-1.9l-5.6-5.4a29.9 29.9 0 0 1-2.9-3.2 13.1 13.1 0 0 0-2.4-2.3 17 17 0 0 1-4.7-6.2 5 5 0 0 1-.2-2.7c-.2.4 17.6 11.6 20.1 12.6 6.5 2.4 13.7 4.5 19.1 9.1s6.6 12.5 7.8 19.2c2.9 15.5 6.4 31.1 8.1 46.7a6.2 6.2 0 0 0 4.2-1.5l18.8-12.3c1.1-.7 2.5-1.5 3.7-.9a3.5 3.5 0 0 1 1.1 1l7.4 8.6c7.4 8.7-10.3 20.5-16.4 25.5l-9.6 7.9c-6.1 4.9-14.7 12.8-21.1 4.2a34.1 34.1 0 0 1-6-14.6" fill="#b1dbf2" stroke="#000" stroke-miterlimit="10"/><path d="M270.5 173.3a20.6 20.6 0 0 1 4.3 4 5.5 5.5 0 0 1 1.2 2.7c.2 1.8-.9 3.5-2.2 4.8a12.9 12.9 0 0 1-6.4 3.7l-6.5 1.3a20.8 20.8 0 0 0-7.5 3.6 3.5 3.5 0 0 1-2.5.9l-.9-.6c-2.9-2.2-6.1-5.2-9.4-6.7s-6-1-8.4-3.4-5.8-5.8-5.1-9.4a5.8 5.8 0 0 1 .8-2.2c1.7-3.1 4.6-5.3 7.5-7.2s3.6-3 4-5.8c4.9 2.6 10.6 3 16.1 3.3a8.8 8.8 0 0 0 5.1-.8c-.1 5.4 6.2 9 9.9 11.8z" fill="#f8c59a" stroke="#000" stroke-linecap="round" stroke-linejoin="round"/><path d="M256.4 175.6a1.8 1.8 0 0 1-2.6.6 2 2 0 0 1-.6-.7" fill="none" stroke="#1a1a1a" stroke-linecap="round" stroke-linejoin="round"/><path d="M268.7 175.4c0 1.6-1.3 2.6-2.6 3.9l-4.8 4.5-6.8 6.3c-1.4 1.3-1.7 1.4-3.4.4s-2.3-1.7-3.4-2.6a48.1 48.1 0 0 1-4.2-4.8 36.3 36.3 0 0 1-3.9-5.5 20.9 20.9 0 0 1-2.3-8.1 19.2 19.2 0 0 1 .6-7.9c-.6.2-1.3 1.2-1.8 1.7a15.9 15.9 0 0 1-2.7 1.8c-1.8 1.1-3.7 1.8-5.5 3a31.9 31.9 0 0 1-5.8 3l-.8.4a2.4 2.4 0 0 0-.2.8c-.4 3.5-1.2 7-.6 10.4.1.6 1.1 5.8.7 6a25.1 25.1 0 0 1 16.4-1.7c5.6 1.3 9.9 4.8 13.9 8.7l3.1-2.9c6.4-4.5 13.2.4 19 3 .9-1.3.9-3 1.4-4.6a117.9 117.9 0 0 1 5.1-13.6c.7-1.8 1.2-3.1-.4-4.5s-2.7-1.6-4-2.4l-7.9-4.6a72.3 72.3 0 0 0-7.6-4.5c-.4 1.8.5 4 1.5 5.5a19.7 19.7 0 0 0 4.6 4.5c1.4 1 2.5 1.9 2.4 3.8z" fill="#fff" stroke="#000" stroke-linecap="round" stroke-linejoin="round"/></g><path fill="none" stroke="#0071bc" stroke-miterlimit="10" d="M220.3 80.5h59.5V161h-59.5zM0 160.5h500M250.5 0l-1 600"/><g opacity=".4"><path d="M261.5 86.3a47 47 0 0 0-5.2-.2c-7.4.3-14.7 1.1-22 2s-12.9 2.2-15.1 8.4c0 .2-.1.3-.1.4l-.3 1c-1.2 5.5.1 11.4 1 16.8l.3 1.9c.5 3.2.7 6.4 1 9.6.6 6.5 1.5 13.2 4.6 19.1 7.6 14.9 34.2 22.5 45.3 7.6 4.9-6.5 7.2-15 7.8-23q.4-5 .6-9.9t0-7.5a43.5 43.5 0 0 0-3.3-15.5 26.7 26.7 0 0 0-4-6.1c-2.7-2.9-6.7-4.3-10.6-4.6z" fill="#f8c59a" stroke="#000" stroke-linecap="round" stroke-linejoin="round"/><path d="M215.7 124a4.7 4.7 0 0 1-1.9-2.7 12.1 12.1 0 0 1-.8-4.6 6.4 6.4 0 0 1 1.8-4.2l1.1-.8a6.1 6.1 0 0 1 2.7-.4h.6c.2.1.2.3.2.5a75.5 75.5 0 0 0 1.2 9.4c.2 1.2.8 2.1-.4 2.8s-3.4.6-4.5 0zM282.9 119.1a2.6 2.6 0 0 0 .6-1.3 14.2 14.2 0 0 0 .3-3.6 12 12 0 0 0-.5-3.8c-.4-1.4-1.2-2.9-2.4-3.4a1.9 1.9 0 0 0-1-.3c-.3 0-.8-.1-1 .2s-.2.2-.1.4c.1 1.9.2 3.7.4 5.6s0 3 .1 4.4.1 2.1 1 2.5a2.4 2.4 0 0 0 2.6-.7z" fill="#f8c59a" stroke="#000" stroke-linecap="round" stroke-linejoin="round"/><path d="M211.8 85.4c-1.2 8.2 0 16.7 2.1 25 .5 1.8 1.4 4.3 2.9 5.5s2.8.4 3.3-1.2-.5-3.4-.6-5.1c-.5-4.2-.1-9.3 3.2-12.3 1.1-1.1 2.2-1.7 2.9-3s1.2-2.5 2.7-3.1a34.9 34.9 0 0 1 5.4-1.2c2.5-.7 4.8-1.7 7.3-2.2s4.1.4 6.2.6 5.3-.2 7.9-.2 6.6-.3 9.9.3a11.2 11.2 0 0 1 6.3 3.8 41.6 41.6 0 0 1 5 6.1c1.5 2.5 1.7 5 2.1 7.8.1.6.1 4.4.9 4.6s2.3-3.7 2.5-4.4a52.1 52.1 0 0 0 1-6.9c.3-4.3.2-8.9-1.6-13-2.4-5.7-4-12.5-9.3-16.2-3.2-2.1-5.9-5.8-9.4-7.2s-5.9-1.2-8.9-2c-4.8-1.5-9.8-3-14.9-3.1a20.2 20.2 0 0 0-9.1 1.7 10.5 10.5 0 0 0-4.2 3.6c-.9 1.2-.8 2.6-1.8 3.6s-3 1.1-4.5 1.8-2.4 2.7-3.2 4.1a42.3 42.3 0 0 0-4.1 12.6z"/><path d="M263.2 105.2a3 3 0 0 0-2.3.9 3.1 3.1 0 0 0-.2 2.5l.8 4.8a21.2 21.2 0 0 0 1 3.6 7.6 7.6 0 0 0 9.1 3.8c2.8-1 4.8-3.7 5.7-6.7s1.9-9-1.2-9.8-9.3.5-12.9.9zM237.5 107.1a3.4 3.4 0 0 0-2.3.9 3.1 3.1 0 0 0-.2 2.5l.8 4.8a18.9 18.9 0 0 0 1 3.6 7.5 7.5 0 0 0 9 3.8 9.5 9.5 0 0 0 5.7-6.6c.8-2.7 2-9-1.1-9.8s-9.3.4-12.9.8z" fill="none" stroke="#000" stroke-miterlimit="10"/><path d="m260.3 107.1-2 .2-5.9.5h-.2" fill="none" stroke="#000" stroke-miterlimit="10"/><path d="m234.8 110.7-17.2-.4" fill="none" stroke="#000" stroke-linecap="round" stroke-miterlimit="10"/><path d="M257.1 133.1a10.6 10.6 0 0 0 3.4-1.6 5.8 5.8 0 0 0 1.2-1c1.3-1.6 1-4 .3-5.9a28.7 28.7 0 0 0-1.8-4" fill="none" stroke="#000" stroke-miterlimit="10"/><path d="m277.6 105.5 4 1.2" fill="none" stroke="#000" stroke-linecap="round" stroke-miterlimit="10"/><path d="M235.1 102.4a7.3 7.3 0 0 0 2.9 1.5 10.1 10.1 0 0 0 5.2.3 47.7 47.7 0 0 0 5.1-1.3c.7-.2 2-.7 2-1.6a3.2 3.2 0 0 0-.3-.9c-.3-.3-.6-.6-.9-.6a1.5 1.5 0 0 0-.7.3 17.2 17.2 0 0 1-5.8 1.9h-2l-2.3-.3a10.4 10.4 0 0 1-3.5-1.2 1 1 0 0 0-.5-.4c-.2 0-.4 0-.5.2s1.1 1.8 1.3 2.1zM273.8 100.5a5.5 5.5 0 0 1-2.2 1.8 9.3 9.3 0 0 1-4.4.7 35.8 35.8 0 0 1-4.5-.9c-.6-.2-1.8-.5-1.9-1.4a2.9 2.9 0 0 1 .2-.9 1.2 1.2 0 0 1 .7-.7l.6.2a12.3 12.3 0 0 0 5.2 1.4h1.7l1.9-.5a6.2 6.2 0 0 0 2.8-1.4l.4-.4a.2.2 0 0 1 .4.1c.4.2-.7 1.7-.9 2z"/><path d="M241.6 114.3a4.5 4.5 0 0 0 7.5-.3M265.6 113.5a4.8 4.8 0 0 0 4.1 1.2 4.7 4.7 0 0 0 3.3-2.8" fill="#f8c59a" stroke="#000" stroke-linecap="round" stroke-linejoin="round"/><path d="m245.5 124.7-1.1 3c-.2.7-.2 2.1.9 2s.3-3.9.2-5M271.1 121.7c-.4 1-.7 2-1 3s-.3 2.1.8 2 .3-3.9.2-5M272.3 129.2c-.2 1-.5 2.1-.7 3.1s0 2.1 1.1 1.9-.2-3.9-.4-5" fill="#fff"/><path d="M243.6 139.9a11.6 11.6 0 0 1 2-2.4c3.3-2.9 9.3-1.2 13.3-1.3s5.2-1.2 7.8-1.5 5 .8 6.3 3.9a12.9 12.9 0 0 1-.8 11.3c-4.2 7.5-13.7 11.6-22.1 11h-.6c-2.7-.2-4.5-.6-6.1-2.9a13.1 13.1 0 0 1-2.3-7.2 20.7 20.7 0 0 1 2.5-10.9zm10.7 4.4a10 10 0 0 0-.8 3.5 4.1 4.1 0 0 0 .8 3 5.4 5.4 0 0 0 3 1.3l2.2.4a12.9 12.9 0 0 0 3.9-.3 5.8 5.8 0 0 0 2.3-.9 3.1 3.1 0 0 0 .9-2.9c-.2-2.5-.7-5.4-2.8-7a5.6 5.6 0 0 0-4.5-1 6.8 6.8 0 0 0-3.9 2.3 5.7 5.7 0 0 0-1.1 1.6z" opacity=".45"/><path d="M262.2 141a2.4 2.4 0 0 1 1.1.6 5.6 5.6 0 0 1 2.1 3.1 15.1 15.1 0 0 1 .7 3.7 3.8 3.8 0 0 1-.1 1.5 2.5 2.5 0 0 1-1.6 1.2 11.6 11.6 0 0 1-8.2.2 3.8 3.8 0 0 1-1.5-.9 2.9 2.9 0 0 1-.7-1.6 8.2 8.2 0 0 1 1.7-5.7 6.6 6.6 0 0 1 3.6-2.3 4.8 4.8 0 0 1 2.9.2z" fill="#5e2f2f" opacity=".5"/><path d="M261.6 142.6a2.6 2.6 0 0 1 1.3.8 7.2 7.2 0 0 1 1.4 4.7 2 2 0 0 1-.6 1.5 2.9 2.9 0 0 1-1.3.8 7.8 7.8 0 0 1-5-.2 5.3 5.3 0 0 1-1-.6 3.7 3.7 0 0 1-.5-3.4 5 5 0 0 1 2.2-3.1 4.3 4.3 0 0 1 3.5-.5z" fill="#5e2f2f"/><g opacity=".2" fill="none" stroke="#fff" stroke-linecap="round" stroke-linejoin="round"><path d="M275.7 89.5a9.3 9.3 0 0 0 1.2-8.4 15.6 15.6 0 0 0-5.2-7M264.2 87.4a20.7 20.7 0 0 0 3.2-6.7c2.1-8.5-4.1-15.5-4.9-16.4M253.8 84.6c2.7-1.7 5.8-3.8 5.9-7.4v-.4c-.2-3.6-2.2-7.1-4.6-9.7a17.5 17.5 0 0 0-9.4-5.1M241.9 82.5a15.8 15.8 0 0 0-16-7.4M233.7 87.4a16.5 16.5 0 0 0-3.1-2 26.3 26.3 0 0 0-3.5-1.5 20.5 20.5 0 0 0-7.7-1.3 7.4 7.4 0 0 0-3.1 1.2"/></g></g></svg>