<svg width="740" height="680" xmlns="http://www.w3.org/2000/svg"><g fill="none" fill-rule="evenodd"><path d="M685.16 490.795c9.19 68.74-213.675 113.577-405.5 82.287C87.833 541.792-.167 419.598 91.37 354.489c91.535-65.11 584.6 67.566 593.79 136.306z" opacity=".505" fill="#F2F2F2"/><path d="M414.2 173.142c-4.915-2.437-11.468.39-8.734 6.833 2.928 6.9 13.754 6.986 19.869 6.85-.612-.033-2.583-6.36-3.258-7.317-1.99-2.82-4.854-4.865-7.876-6.366zm56.64 123.718c1.24 1.06.1.1 0 0zm-61.374-92.506c-2.876 2.199-3.014 6.081-.664 8.71 2.798 3.128 7.908 3.014 11.722 2.709 1.725-.138 10.937-.876 8.753-2.383.168.063.519.217.894.426.202.739.415 1.474.636 2.206-.055.032-.1.066-.159.098.063-.028.107-.058.162-.086 2.216 7.32 5.369 14.289 9.498 20.809-1.545-.609-3.145-1.07-4.768-1.274-4.806-.608-14.915 3.127-9.54 9.525 5.155 6.134 13.18-.447 19.029-1.354 5.674 7.92 11.93 15.508 18.486 22.844a1.562 1.562 0 0 0-.956.796c-2.63-1.334-5.37-3.243-7.805-3.76-3.513-.745-10.715-1.196-13.37 1.948-3.266 3.866.235 7.006 4.092 7.748 5.594 1.075 12.917-1.658 18.3-3.505.616.11 1.288-.07 1.69-.563.118-.04.237-.078.353-.115 6.64 7.3 13.533 14.359 20.384 21.263l-.222-.012c-1.787-1.172-3.704-2.134-5.782-2.638-4.807-1.171-10.463-1.177-14.363 2.3-3.886 3.464-5.263 9.52-1.243 13.41 8.047 7.784 19.902-9.965 23.96-10.706 6.963 6.943 14.325 13.43 21.803 19.785-.85-.258-1.72-.448-2.62-.534-7.333-.702-24.544 8.288-15.545 17.133 7.842 7.707 16.919-7.128 23.238-12.316 7.047 5.924 14.132 11.807 21.018 17.92-3.756-.997-7.385-1.144-11.411.072-4.166 1.26-10.889 4.407-8.255 10.031 2.679 5.72 10.75 3.117 14.955 1.301 2.294-.99 6.891-4.333 10.928-5.741 10.988 10.374 20.506 21.8 27.712 35.26 4.498 8.405 7.912 17.384 10.315 26.613 1.533 5.89 4.555 15.783 3.95 23.45 2.884-15.346-2.33-33.777-7.947-47.494-5.164-12.613-12.893-23.686-21.946-33.653 2.272-6.833 21.393-16.688 9.962-23.036-6.07-3.356-12.287 2.213-13.614 8.112-.912 4.053.477 9.146 1.95 13.08a185.163 185.163 0 0 0-8.858-8.821c-4.216-3.93-8.533-7.745-12.892-11.512 7.182-6.747 13.979-26.035 4.35-29.19-14.22-4.644-7.373 21.665-6.381 26.597.282.016.501-.069.663-.251-.08.451-.173.934-.286 1.421-8.341-7.173-16.806-14.204-24.993-21.548.738-.545 1.91-2.628 2.832-3.737 2.08-2.5 4.07-5.11 5.524-8.034 2.297-4.62 4.512-11.99-1.577-14.708-6.622-2.962-9.77 5.374-9.816 10.347-.031 3.44.906 6.706 1.393 10.077.153 1.051-.434 5.79.998 3.752-.068.751-.077 1.296-.044 1.682a371.331 371.331 0 0 1-4.377-4.014 1.78 1.78 0 0 0 .128-.571c.078-1.483-1.414-2.054-2.46-1.62a264.064 264.064 0 0 1-5.666-5.533 819.093 819.093 0 0 1-11.91-12.241c.86-.74.518-1.766 1.324-2.551.804-.784 2.389-1.218 3.334-1.946 2.38-1.833 4.353-4.503 5.78-7.13 2.355-4.343 5.4-13.45-1.482-15.52-7.093-2.137-10.694 6.631-11.15 12.113-.089 1.062.706 10.63 1.315 14.105-7.348-7.762-14.575-15.814-21.122-24.007 1.985-.018 7.613-4.086 8.751-5.196 2.777-2.707 7.19-8.688 2.323-11.854-4.328-2.807-9.663 1.259-11.514 5.211-.304.65-1.376 6.708-1.46 9.426a213.827 213.827 0 0 1-7.7-10.475 103.662 103.662 0 0 1-4.505-7.167c.337-.191.655-.525.955-.94 7.218-1.225 16.42-12.487 7.942-16.406-4.037-1.863-8.414 1.983-10.392 5.132-.405.644-1.06 3.883-1.595 6.438-4.034-8.095-7.118-16.664-9.464-25.45.628-.156 1.16-.636 1.23-1.462 3.505-1.998 6.272-3.661 8.719-7.503 1.52-2.386 4.256-7.838-.21-9.163-5.81-1.723-9.461 7.153-9.936 11.525-.056.508-.054 1.984-.035 3.336a1.957 1.957 0 0 0-.605.011c-1.335-5.44-2.4-10.95-3.248-16.47 3.172-1.021 3.72-17.68 1.609-20.051-4.72-5.311-8.051 2.36-7.8 6.415.299 4.781 2.465 9.13 5.045 12.99.277.41.198.39.27-.18.039.281.133.489.273.64-.133 2.516-.393 5.093-.268 7.32.357 6.377 1.1 12.792 2.178 19.087.263 1.531.563 3.05.9 4.555-2.55-2.172-5.987-4.102-7.332-4.705-3.49-1.565-8.87-3.254-12.338-.603zM585.05 425.745c-.162 2.223-.564 4.26-1.313 5.939a46.676 46.676 0 0 0 1.313-5.94z" fill="#F2F2F2"/><path d="M232.216 39.446c3.511-1.741 8.192.278 6.24 4.88-2.092 4.93-9.825 4.99-14.193 4.893.437-.023 1.845-4.543 2.327-5.226 1.421-2.015 3.467-3.475 5.626-4.547zm-40.429 89.807c-1.24 1.06-.1.1 0 0zm44.51-66.923c2.1 1.589 2.198 4.396.482 6.297-2.045 2.264-5.775 2.183-8.56 1.964-1.26-.1-7.985-.63-6.39-1.72a5.482 5.482 0 0 0-.653.309 63.24 63.24 0 0 1-.465 1.595c.04.023.074.048.116.07-.046-.02-.078-.04-.118-.061a60.909 60.909 0 0 1-6.943 15.05c1.129-.44 2.297-.774 3.482-.923 3.51-.441 10.89 2.255 6.962 6.884-3.766 4.438-9.622-.318-13.893-.972-4.146 5.728-8.717 11.218-13.506 16.525.293.091.55.28.698.576 1.92-.966 3.922-2.348 5.7-2.722 2.565-.54 7.824-.87 9.761 1.403 2.383 2.795-.174 5.067-2.99 5.604-4.086.78-9.431-1.194-13.36-2.527-.45.079-.941-.051-1.234-.407a52.964 52.964 0 0 0-.258-.083c-4.85 5.281-9.886 10.388-14.891 15.383l.162-.009c1.305-.848 2.705-1.544 4.222-1.91 3.51-.848 7.64-.855 10.487 1.659 2.836 2.503 3.838 6.882.902 9.695-5.878 5.632-14.527-7.197-17.49-7.732-5.087 5.023-10.464 9.716-15.927 14.315a9.793 9.793 0 0 1 1.914-.387c5.354-.51 17.917 5.983 11.343 12.382-5.728 5.577-12.35-5.147-16.962-8.896-5.148 4.286-10.323 8.543-15.353 12.965 2.743-.722 5.393-.83 8.332.048 3.041.91 7.948 3.182 6.023 7.25-1.957 4.138-7.85 2.259-10.92.947-1.674-.715-5.03-3.131-7.976-4.148-8.027 7.506-14.98 15.772-20.247 25.508-3.287 6.078-5.783 12.572-7.54 19.246-1.123 4.26-3.333 11.415-2.894 16.959-2.1-11.096 1.714-24.425 5.82-34.346 3.775-9.122 9.423-17.132 16.036-24.342-1.656-4.94-15.614-12.06-7.265-16.654 4.433-2.43 8.97 1.596 9.937 5.86.664 2.931-.351 6.614-1.429 9.46a134.765 134.765 0 0 1 6.472-6.382c3.08-2.843 6.233-5.604 9.416-8.33-5.24-4.875-10.196-18.82-3.164-21.104 10.383-3.364 5.375 15.663 4.649 19.229a.568.568 0 0 1-.484-.182c.058.327.126.676.208 1.028 6.093-5.19 12.276-10.277 18.256-15.59-.538-.394-1.394-1.9-2.066-2.701-1.518-1.807-2.97-3.694-4.03-5.808-1.676-3.34-3.29-8.669 1.156-10.636 4.837-2.144 7.131 3.883 7.163 7.478.022 2.487-.663 4.85-1.02 7.288-.112.76.315 4.187-.73 2.713.049.543.056.937.031 1.216a270.592 270.592 0 0 0 3.198-2.904 1.282 1.282 0 0 1-.094-.413c-.056-1.072 1.033-1.485 1.797-1.172a192.245 192.245 0 0 0 4.139-4.003c2.88-2.876 5.8-5.835 8.701-8.856-.629-.535-.378-1.276-.966-1.844-.587-.567-1.744-.88-2.434-1.406-1.737-1.324-3.176-3.254-4.217-5.154-1.718-3.139-3.938-9.724 1.088-11.223 5.18-1.547 7.805 4.791 8.136 8.755.064.768-.52 7.687-.965 10.2 5.367-5.615 10.647-11.44 15.43-17.367-1.449-.013-5.557-2.952-6.387-3.754-2.026-1.956-5.246-6.28-1.691-8.57 3.16-2.032 7.054.906 8.404 3.763.222.47 1.003 4.85 1.063 6.815a154.394 154.394 0 0 0 5.626-7.577 74.957 74.957 0 0 0 3.292-5.184c-.247-.138-.478-.38-.697-.68-5.27-.883-11.985-9.023-5.793-11.86 2.948-1.348 6.143 1.431 7.585 3.708.296.465.774 2.807 1.163 4.654 2.949-5.854 5.203-12.052 6.92-18.406-.46-.113-.848-.46-.899-1.057-2.558-1.443-4.577-2.645-6.362-5.422-1.109-1.725-3.105-5.666.156-6.625 4.243-1.249 6.905 5.168 7.25 8.33.041.366.04 1.434.025 2.412.147-.02.296-.018.442.008.976-3.935 1.756-7.92 2.377-11.912-2.316-.737-2.71-12.782-1.167-14.498 3.449-3.842 5.877 1.704 5.692 4.637-.22 3.457-1.803 6.602-3.688 9.394-.202.296-.144.282-.196-.13a.824.824 0 0 1-.2.462c.096 1.82.285 3.683.193 5.294-.263 4.611-.808 9.25-1.598 13.802a66.07 66.07 0 0 1-.659 3.295c1.863-1.572 4.373-2.969 5.355-3.405 2.55-1.133 6.478-2.357 9.009-.441zM107.896 222.029c.123 1.482.489 2.834 1.208 3.942a21.832 21.832 0 0 1-1.208-3.942z" fill="#C1DEE2" opacity=".2"/><g opacity=".7"><path d="M509.822 323.77c13.652-.708 30.537 7.26 31.993 22.1 1.058 10.783.73 21.535 2.368 32.302 1.31 8.604 4.078 16.864 7.855 24.702 3.632 7.537 11.165 13.953 13.124 22.005 1.25 5.13.55 12.348-1.172 17.366-2.094 6.102-.981 5.62 3.192 10.74 8.177 10.033 15.54 20.322 20.748 32.305 7.5 17.26 12.418 37.435 9.634 56.328-.354 2.4-.774 11.01-4.078 11.611-3.69.673-1.964-4.251-1.767-5.842 1.255-10.15 2.37-19.02.856-29.328-5.843-39.77-34.374-65.974-52.952-99.728-1.021-1.74-3.177-5.886-4.676-8.62-2.367-4.318-4.746-12.532-7.95-15.734-6.034-6.03-.486 6.094.69 8.408 1.486 2.928 3.121 6.04 4.645 8.605 6.97 11.892 14.75 24.872 21.948 37.13-31.133 7.094-53.06-30.335-61.414-54.942-6.884-20.273-15.12-67.673 16.956-69.408" fill="#69A1AC"/><path d="M692.805 286.121c-22.822 1.811-37.474 16.87-44.294 37.935-3.676 11.351-4.098 23.012-6.14 34.678-3.073 17.55-9.685 30.85-22.607 43.355-4.002 3.872-6.952 7.848-9.048 12.102-4.162 4.247-7.785 9.053-10.447 14.93-3.4 7.503-4.362 16.507-.437 23.988 1.056 2.012 3.689 6.049 6.418 7.883-10.217 21.76-15.835 45.592-15.202 69.394.383 14.367 1.084 28.741 1.903 43.091.22 3.853 1.475 10.216 3.36 3.754 1.724-5.91-.439-15.19-.639-21.364-.974-30.081-1.806-57.432 10.576-85.536a219.11 219.11 0 0 1 4.11-8.766c.084-.049.162-.108.24-.165.055.042.105.087.16.129.091-.164.217-.358.363-.575.411-.425.77-.96 1.112-1.56 1.098-1.521 2.341-3.31 2.348-4.289 0-.007-.004-.019-.004-.027 7.665-12.513 16.445-24.336 25.413-35.929-.067.085 9.728-13.252 8.214-5.877-.73 3.555-7.935 10.323-10.845 14.088-6.437 8.375-13.996 18.988-20.277 29.25-.845.486-2.04 2.87-2.903 4.647-.477.9-.922 1.807-1.36 2.598 22.258 7.353 39.571-7.46 51.377-24.687l.04-.062c3.593-4.76 7.273-9.487 11.87-13.25 7.671-6.28 15.886-7.388 24.93-10.478 24.664-8.427 35.15-40.39 38.48-64.108 3.758-26.757-14.622-67.787-46.71-65.149" fill="#89C5CC"/><path d="M647.723 211.19c-23.424 24.38-34.74 58.193-43.701 89.982-10.008 35.504-16.619 71.556-16.873 108.47-.166 24.253-.826 48.657.59 72.881.502 8.603 1.36 17.222 2.723 25.732.113.7 3.164 19.703 6.083 15.275 1.66-2.518-3.128-19.713-3.49-22.577-2.034-16.13-2.507-32.38-2.408-48.627.163-26.75-.626-53.364 2.086-80.016.404-3.98.724-8.16 1.67-12.052 1.003-4.139-.276-2.332 2.993-3.97 3.177-1.594 7.102-1.366 10.398-3.364 13.072-7.927 19.76-28.289 24.964-41.649 5.953-15.277 9.571-31.569 12.46-47.647 2.123-11.812 3.64-23.553 4.498-35.518.27-3.77.287-7.714 1.028-11.422.2-1 1.201-2.77 1.165-3.655-.077-1.875-1.208-2.977-1.301-4.552a92.813 92.813 0 0 0-2.885 2.71M520 536c0 40.317 32.683 73 73 73s73-32.683 73-73" fill="#89C5CC"/><path d="M598.857 536.232H595c.268-4.84.621-9.67 1.43-14.456 3.095-18.303 12.77-45.185 33.99-48.156.783-.11 3.663-.129 7.151.076a12.894 12.894 0 0 1 5.457-1.611c18.067-1.332 38.243 13.244 46.958 28.412 7.026 12.23 5.842 28.288 1.503 41.28-2.906 8.7-9.248 21.101-19.824 21.222-13.232.151-13.87-16.203-14.126-25.763-.34-12.71-1.946-23.783-11.962-32.447-2.334-2.018-4.885-3.794-7.243-5.784-3.692-3.115-7.772-6.305-8.248-11.459-.656-7.11 3.357-8.39 9.485-7.069 1.045.225 11.568 4.947 10.01 1.215-.476-1.14-2.213-2.044-4.406-2.72-5.674-.618-12.442-1.334-14.388-.906-20.995 4.606-29.17 33.69-31.34 52.167a173.862 173.862 0 0 0-.59 6z" fill="#69A1AC"/></g><g opacity=".5"><path d="M200.223 190.445c4.202-5.992 12-21.21 17.915-23.351 3.81-1.38 2.7 12.886 2.746 15.606.183 10.524-.841 20.981-2.106 31.416-2.28 18.82-9.733 35.581-19.956 51.6-5.26 8.241-11.43 16.584-19.977 21.726-3.933 2.369-8.666 2.765-12.551 4.806-4.525 2.375-2.06.455-4.1 5.17-2.831 6.545-3.737 14.99-5.047 21.974-6.015 32.063-20.579 201.553-18.054 234.166.224 2.89-3.806 3.582-4.008.053-1.07-18.711 8.185-148.289 12.855-190.664 4.669-42.376 9.394-79.813 14.131-94.473 5.748-17.787 16.128-39.176 24.77-55.763 4.013-7.705 8.388-15.146 13.382-22.266z" fill="#69A1AC"/><path d="M231.414 398.278c10.935-8.028 22.772 7.123 12.876 15.152-5.47 4.438-11.189 2.86-14.408-.839-2.09 2.548-4.046 5.212-5.926 7.461a370.682 370.682 0 0 0-16.312 21.06c-10.746 14.923-19.955 30.689-29.584 46.166-9.502 15.276-18.928 30.63-27.54 46.293-7.297 13.27-17.022 28.881-19.52 43.429 3.79-30.854 18.172-60.51 35.298-87.71 16.987-26.976 36.481-56.437 62.783-77.726-2.677-3.937-2.751-9.556 2.333-13.286z" fill="#C1DEE2"/><path d="M23.913 323.03c6.12 1.197 16.118 15.04 21.162 20.314 5.995 6.268 11.433 12.948 16.56 19.948 11.036 15.066 20.906 31.084 29.299 47.788 13.682 27.23 24.644 55.185 32.6 84.838 4.869 18.151 8.022 36.965 9.89 55.647.353 3.524 4.047 30.688-1.276 31.42-4.787.66-3.308-20.626-3.54-23.522-2.61-32.665-10.43-64.448-21.31-95.237-2.369-6.707-4.57-14.922-8.36-20.958-2.729-4.347-.02-2.83-4.815-4.476-4.118-1.414-8.81-1.068-13.027-2.799-9.16-3.756-16.495-11.05-22.925-18.385-12.495-14.257-22.397-29.68-27.558-47.948-2.864-10.128-5.495-20.316-6.955-30.758-.377-2.7-3.686-16.642.255-15.871z" fill="#69A1AC"/><path d="M48.061 92.716c23.05 39.974 41.992 83.885 54.222 128.36 7.41 26.947 12.593 54.599 17.742 82.05 7.972 42.506 15.513 85.008 17.658 128.27 2.158 43.51 6.425 93.696-7.822 135.604 7.117-42.548.341-87.838-.859-130.65-.573-20.438-2.234-40.676-4.414-60.995-2.115-19.71-5.57-39.326-8.787-58.881a2533.068 2533.068 0 0 0-4.89-28.537c-.5-2.836-.71-11.25-2.51-13.187-1.81-1.95-11.047-2.745-13.947-4.176-5.84-2.881-11.332-6.974-16.193-11.3-9.32-8.29-17.426-19.123-23.825-29.802-14.805-24.708-20.724-54.862-20.425-83.478.057-5.556 8.992-65.384 5.404-66.208.216-.253.42-.514.613-.786a1096.58 1096.58 0 0 1 8.033 13.716z" fill="#89C5CC"/><path d="M296.846 236.887c.356-.513 2.67-4.08 1.505-3.852 2.373-.465-3.264 3.934 2.649 1.235-2.808 2.652-1.187 6.096-1.15 9.665.061 5.795-.908 11.541-2 17.211-1.724 8.963-4.293 17.677-8.022 26.013-8.127 18.167-21.927 35.655-38.31 47.013-8.088 5.607-16.014 7.517-25.238 10.098-5.827 1.631-6.289 4.645-9.382 10.299-6.438 11.776-12.762 23.51-18.44 35.682-6.781 14.537-13.363 29.089-19.572 43.88-20.917 49.826-37.94 101.447-46.881 154.869-.22-31.481 7.064-63.905 16.25-93.912 6.692-21.862 15.403-42.937 24.695-63.799 2.251-5.053 5.663-11.554 6.62-17.134.67-3.91-1.378-7.67-2.315-11.788-3.654-16.037-3.392-34.004-.184-50.127 3.538-17.78 13.768-26.031 31.074-28.55 6.33-.92 14.374-.583 20.177-3.282 6.323-2.938 8.931-12.598 12.527-18.798 9.657-16.657 21.13-32.63 34.306-46.665a111.29 111.29 0 0 1 11.733-10.795c2.625-2.097 8.17-4.68 9.958-7.263z" fill="#89C5CC"/><path d="M102.791 555h61.418a5 5 0 0 1 4.946 5.73l-4.747 32.188C162.961 602.73 154.541 610 144.622 610h-22.244c-9.919 0-18.339-7.27-19.786-17.082l-4.747-32.189a5 5 0 0 1 4.946-5.729z" fill="#C1DEE2"/></g><g fill="#F2F2F2"><path d="M47.418 571.456c0 21.287 1.68 38.544 24.228 38.544 22.548 0 24.227-17.257 24.227-38.544"/><path d="M78.353 558.174a44.566 44.566 0 0 0-2.214 4.366c-.023-3.047.146-6.116.606-9.227.786-5.33 1.987-10.631 3.116-15.925.811-3.804.76-10.636 3.838-13.668.845-.655 1.048.63 1.048 1.188.01.118-.003-2.276-.822-1.86-4.87 2.516-6.449 10.426-8.008 14.386-2.275 5.78-4.21 11.69-5.008 17.704a39.656 39.656 0 0 0-.336 4.554c-.166-.405-.321-.814-.493-1.218a82.22 82.22 0 0 0-11.337-18.96c-1.165-1.46-15.809-15.865-16.955-13.66.113.32.35.586.71.797.022.024.023.011.01-.025.86 1.39 3.306 3.535 4.067 4.753 1.917 3.063 3.407 6.314 4.921 9.503 3.199 6.74 6.166 13.547 9.043 20.368.67 1.59 1.368 3.17 2.08 4.744-7.342-10.59-17.136-20.203-30.619-25.707 4.605 2.343 7.624 6.75 10.734 10.125 3.75 4.07 7.701 8.032 11.459 12.098 4.432 4.797 9.648 9.848 13.91 15.156 4.13 8.67 8.143 17.349 10.62 26.462-1.015-3.148-.08-7.5-.253-10.804-.138-2.63-.445-5.24-.866-7.844.52 1.175.97 2.35 1.172 3.444a214.463 214.463 0 0 0-.629-5.469c.59-1.697 1.169-3.28 1.56-4.585 2.005-6.691 4.392-13.268 7.642-19.677 3.008-5.93 6.459-11.783 10.218-17.458 1.754-2.646 3.532-5.282 5.299-7.923 1.156-1.729 2.257-4.496 3.867-6.153-10.407 9.515-21.777 19.098-28.38 30.515"/></g><path d="M709.633 123.827c-2.983-9.95-9.987-17.74-17.259-24.876-14.154-13.893-21.767-22.483-26.812-42.805-2.967-11.953-5.987-24.618-15.397-33.29-6.852-6.315-18.644-11.62-27.808-7.098-14.096 8.414-17.882 25.68-16.46 41.142 1.762 19.164 10.713 30.98 27.91 38.038 9.69 3.975 16.13 9.22 21.39 18.36 4.208 7.31 6.661 16.461 11.948 23.086 7.905 9.905 17.796 14.307 29.989 12.662-11.42-21.011-24.763-42.22-40.856-59.91-1.507-1.78-10.392-8.587-8.6-11.618 1.974-3.337 11.096 9.2 11.031 9.124 4.677 5.368 9.005 11.073 13.254 16.833-.01.005-.023.008-.035.014a860.98 860.98 0 0 1 12.974 17.98 189.879 189.879 0 0 1 5.003 7.837c2.354 3.913 6.091 15.019 9.944 17.425.824.514 1.587.802 2.3.92 2.628 4.305 5.186 8.644 7.619 13.034 6.353 11.466 11.806 23.572 14.308 36.517.73 3.779.214 17.912 2.793 20.64 4.715 4.989 3.334-4.619 3.052-7.519-2.342-24.013-10.963-44.471-23.48-64.66 3.845-5.022 4.4-17.804 3.192-21.836M548.13 135.43c4.972-5.857 16.922-6.851 24.23-6.459 9.044.485 18.334 2.687 26.938 5.349 14.173 4.384 27.946 12.386 40.429 20.13 1.504.934 20.037 12.08 18.397 14.035-1.626 1.938-19.82-11.3-23.874-13.583-8.653-4.87-16.588-10.63-26.126-13.847-9.875-3.33-20.32-4.65-30.704-4.559-1.333.012-5.68-.917-5.774 1.055-.092 1.928 7.102.922 8.37.934 5.24.048 10.51.54 15.675 1.449 9.677 1.7 18.774 5.127 27.062 10.383-2.313 5.377-7.856 7.856-13.672 6.51-5.026-1.163-9.925-4.032-14.847-4.861-3.39-.571-6.783-.231-10.07.724-8.67 2.52-13.67 7.681-23.203 4.09-7.472-2.814-19.97-12.927-12.83-21.35M553.753 80h2.352c-.165-2.985-.38-5.964-.884-8.916-1.89-11.062-7.802-27.31-20.766-29.105-.478-.067-2.238-.078-4.369.046a7.94 7.94 0 0 0-3.333-.974c-11.039-.805-23.365 8.005-28.69 17.172-4.292 7.392-3.569 17.098-.918 24.95 1.776 5.258 5.65 12.753 12.112 12.826 8.084.092 8.473-9.792 8.63-15.57.208-7.683 1.189-14.375 7.308-19.611 1.426-1.22 2.985-2.293 4.425-3.496 2.256-1.883 4.749-3.811 5.04-6.926.4-4.297-2.052-5.07-5.796-4.272-.638.136-7.067 2.99-6.115.734.29-.69 1.352-1.235 2.692-1.645 3.466-.373 7.6-.805 8.79-.547 12.827 2.784 17.821 20.362 19.147 31.53.15 1.264.27 2.533.375 3.804z" fill="#F2F2F2"/></g></svg>