<svg xmlns="http://www.w3.org/2000/svg" viewBox="0 0 500 600"><defs><style>.a{fill:#fdf7dd}.b{fill:#f99a6b}.d{fill:#c56b56}.e{fill:#c6bfa3}</style></defs><path class="a" d="M207.3 146.1a22.4 22.4 0 00-3.3-10.6 6 6 0 01-.9-2.2c-.2-1.3.7-2.5 1.3-3.7 2.4-4.7 1.3-10.6 2.9-15.7s6.7-9.5 11.9-11.9 8.3-3.2 10.8-6.7a25.3 25.3 0 011.8-2.7c2.4-2.6 6.7-2.5 9.9-1.1a8.4 8.4 0 004 1.2c1.4-.1 2.6-1.1 4-1.7a13.4 13.4 0 015.7-.8l8.7.4a22 22 0 015.8.9 20.6 20.6 0 015.5 3.3c2.7 2 5.5 4.1 7.2 7s1.6 3.4 2.6 5a31.4 31.4 0 011.8 3.1 19.3 19.3 0 011.2 4.1l2.7 15.1a19.7 19.7 0 01.4 3.5 41 41 0 01-1 4.8 54.9 54.9 0 00-.3 5.8c-.3 4.5-1.8 8.8-3.2 13.1-.1-6.1-.4-12.2-1-18.2a42.9 42.9 0 01-.3-6.2c.1-1.9.4-3.7.6-5.6a25.2 25.2 0 00-8.2-20.5c-1.8-1.6-4.1-3-6.6-2.9a14.5 14.5 0 00-3.5.7 31.9 31.9 0 01-7.6.3 113.9 113.9 0 00-21.8 1.8c-3.2.6-6.5 1.4-8.9 3.6a21.9 21.9 0 00-3.4 4.6l-2.6 4.3a4.2 4.2 0 00-.8 1.8 5.6 5.6 0 00.6 2.1 11.5 11.5 0 01.7 6.1c-.6 3.5-2.8 6.8-2.7 10.4s1.3 4.9 1.4 7.3-2.4 6.7-5 9.1a2.1 2.1 0 01-1.6.8 2.7 2.7 0 01-1.8-1c-2.6-2.7-5.1-5.4-7.5-8.2"/><path class="a" d="M207.8 146.1a24.6 24.6 0 00-1.9-8.1c-.5-1.2-1.2-2.3-1.8-3.5s.1-3.2.9-5c2.3-4.9 1.2-10.7 3-15.8s6.2-8.6 10.8-11 9.4-3.6 12.3-8.2a6.6 6.6 0 016.5-3.4 10.5 10.5 0 013.5.8c1.2.4 2.4 1.2 3.7 1.3a5.4 5.4 0 003.3-.8 11 11 0 014.6-1.6 62.9 62.9 0 019.7.2c3.3.2 6.5.3 9.4 2a44.6 44.6 0 017.1 5.2 19.5 19.5 0 014.8 6.9 30 30 0 002.2 3.9 12.3 12.3 0 011.6 4.3c.7 3.6 1.3 7.3 2 11s1.7 7.1.8 10.8a29.7 29.7 0 00-.8 5.2 33.8 33.8 0 01-.3 5.5 61.9 61.9 0 01-3 10.4h1.1c-.1-6.2-.4-12.5-1-18.7a38.7 38.7 0 010-9 27.6 27.6 0 00.2-7.6 26.8 26.8 0 00-5.6-12.9 20.3 20.3 0 00-5.4-4.7 8.7 8.7 0 00-6.9-.5c-3.1.7-6.2.5-9.3.5s-6.2.1-9.3.3-5.9.6-8.8 1a49.2 49.2 0 00-7.8 1.8 12.1 12.1 0 00-5.7 4 57.9 57.9 0 00-4.2 6.7 6.6 6.6 0 00-1.3 2.8c-.1 1.3.8 2.6 1.1 3.9.7 3-.1 5.8-1.1 8.6s-1.7 5.2-1.1 8a44.2 44.2 0 011 5 7.6 7.6 0 01-.9 4.2 14.6 14.6 0 01-2.7 3.8 7.5 7.5 0 01-1.6 1.5c-1.3.7-1.9-.3-2.7-1.1-2.4-2.5-4.8-5.1-7-7.7-.5-.5-1.2.3-.8.8 2 2.3 4.1 4.6 6.2 6.8s2.9 3.5 5 2 6.2-7.1 5.4-11.5-1.5-5.4-.8-8.4 1.9-4.9 2.3-7.6a12.9 12.9 0 00.1-3.4 23.8 23.8 0 00-1.1-3.8c-.5-1.7.5-2.8 1.4-4.2l2.3-3.8a12.5 12.5 0 015.6-5.3 37.8 37.8 0 018.2-2 124.2 124.2 0 0118.3-1.4 33.6 33.6 0 008.4-.3 15.4 15.4 0 014.2-.7 7.7 7.7 0 014.1 1.7 22.9 22.9 0 018.6 12.5 23.9 23.9 0 011 8.4c-.2 3.3-.8 6.5-.6 9.8.6 6.9 1.2 13.7 1.2 20.6a.6.6 0 001.1.2 70.8 70.8 0 002.8-10c.6-3.2.1-6.6.9-9.8a22.6 22.6 0 00.8-4.4 19.7 19.7 0 00-.6-4.8l-1.9-10.3c-.6-3.1-.9-6.2-2.6-8.9s-1.6-2.7-2.3-4.1a19.4 19.4 0 00-2.2-4 29 29 0 00-6.1-5.5c-2.4-1.8-4.8-3.5-7.8-4.2a60.8 60.8 0 00-9.5-.7c-3.1-.1-6.5-.6-9.4.7-1.4.6-2.6 1.8-4.2 1.7s-2.9-1-4.3-1.5a10.2 10.2 0 00-7.1-.1c-2.5 1-3.2 3.3-4.9 5.2s-4.5 3.3-7 4.4c-4.8 2.1-9.5 4.6-12.7 9a19.2 19.2 0 00-3.2 8.3c-.4 3.3-.3 6.7-1.3 9.9-.5 1.6-1.5 2.9-2 4.4a4.7 4.7 0 00.8 3.8 22.6 22.6 0 013.2 10.5c.1.7 1.1.7 1.1 0z"/><path class="b" d="M261.1 219.1c5.1-.7 10-3.1 12.3-7 1.1-1.6 1.6-3.5 2.5-5.2s2.3-3.3 3.1-5.1a20.5 20.5 0 001.7-5.3c2.4-11.2 6.2-22.2 6.8-33.5s-2.2-22.7-2.2-34.1c0-5.6.7-11.3-1.2-16.7s-7.4-10.5-13.9-10.3c-1.8 0-3.6.4-5.4.5a48.9 48.9 0 01-6.6-.5 49.1 49.1 0 00-20.5 2.4c-5.3 1.7-10.5 4.5-12.8 9s-1.3 10.2-2.5 15.3c-.7 3.4-2.5 6.6-2.4 10a53.9 53.9 0 00.8 5.6 12 12 0 01-6.9 12l-5.9-8.7c-1-1.4-2.7-3-4.4-2.4s-1.5 2.5-1.2 4l5.4 24.8c.4 2 .9 4 2.5 5.4s4.9 3.7 4.5 4.5a1.3 1.3 0 00.1 1.2c6.2 14.4 10.5 19.5 10.5 19.5 5.9 6.8 5.4 7.7 8.9 10.2s14.8 5.1 17.9 5.1"/><path d="M261.3 219.6a20.8 20.8 0 009.3-3.6 15.2 15.2 0 003-3.2 32.2 32.2 0 002.5-5.3c.9-1.6 2.1-3.1 3-4.7a18.2 18.2 0 001.8-5.1c1-4.2 2-8.3 3.1-12.4 2.1-8.2 4-16.5 4.1-24.9s-1.5-17.1-2.1-25.7c-.3-4.2-.1-8.4-.1-12.6s-.2-7.6-1.8-11.1c-2.4-5.7-8.2-10.1-14.5-9.6-2.1.1-4.1.6-6.2.5s-4.2-.5-6.4-.6a44.7 44.7 0 00-12.1.6c-6.6 1.2-14.5 3.5-19 8.9a15.9 15.9 0 00-3.2 9.4c-.2 1.9-.2 3.8-.4 5.7a23.1 23.1 0 01-1.4 5.9 25.2 25.2 0 00-1.4 5.4 20.5 20.5 0 00.5 5.5 11.8 11.8 0 01-2.3 9.9 11.4 11.4 0 01-4.1 3.1l.7.2-5.3-7.8c-1-1.5-2.4-3.5-4.4-3.6s-2.9 1.3-2.9 3.1a15.5 15.5 0 00.4 2.9l1.1 4.6 3.9 18c.4 2.2.9 4.5 2.4 6.2s2.9 2.3 4.1 3.6.6.5.6.7-.1.7 0 1a15.4 15.4 0 001.5 3.5c1 2.2 2 4.5 3.2 6.7a77.5 77.5 0 004.6 7.9 27.2 27.2 0 002.5 3.2c2 2.4 3.6 5.1 5.7 7.3a20.4 20.4 0 009.2 5.1 39.5 39.5 0 0011.3 2 .6.6 0 000-1.1 34.6 34.6 0 01-9.1-1.4 23.9 23.9 0 01-9.5-4.2 29.2 29.2 0 01-4.2-5.1c-1.3-1.7-2.8-3.3-4-5a79.1 79.1 0 01-8.6-15.3 16.1 16.1 0 01-1.5-3.6c-.2-.7.1-1.1-.2-1.7s-2.4-2.2-3.5-3.1a8.5 8.5 0 01-3.1-5.3c-.7-2.6-1.2-5.3-1.8-8l-2-9.3c-.6-2.9-1.5-5.8-1.9-8.8-.2-1.3.1-3.3 2-2.9s2.4 1.8 3.1 2.9l5.5 8a.5.5 0 00.7.2 12.3 12.3 0 006.1-6 13.4 13.4 0 00.8-8.4 15.4 15.4 0 01-.2-6.4 56 56 0 011.7-5.4c1-3.4 1-6.9 1.2-10.4s1.4-7.1 4.2-9.8a25.9 25.9 0 019-5.1 51.5 51.5 0 0123.7-2.4 28 28 0 005.8.1 21.1 21.1 0 015.6-.3 13.7 13.7 0 018.5 4.7c5.3 5.9 4.3 14.1 4.3 21.5s1.3 16.3 2 24.5a71 71 0 010 12.2 86.8 86.8 0 01-2.1 12.4c-.9 4-1.9 7.9-2.9 11.8-.5 1.9-1 3.9-1.4 5.8a41.8 41.8 0 01-1.6 5.8c-.8 1.7-2 3.1-2.9 4.7a45.9 45.9 0 00-2.4 5 13.4 13.4 0 01-7.6 6.4 20.7 20.7 0 01-4.9 1.2c-.7.1-.4 1.2.3 1.1z"/><path d="M265.9 154.5a16.2 16.2 0 001.2 7.6 15.1 15.1 0 011.3 4.1 29.5 29.5 0 01-.1 4.2c0 .6 1 .6 1.1 0 .1-2.7.2-5.3-.9-7.8a15.5 15.5 0 01-1.3-3.8 20.8 20.8 0 01-.3-4.3.5.5 0 00-1 0z"/><path d="M268.4 170.9a26.4 26.4 0 011.8 3.8c.5 1 0 1.6-.8 2.2l-1.6 1a10.9 10.9 0 01-3.6 1.2 3.7 3.7 0 01-3.8-1.1c-1.5-1.3-3.7-2.2-5.7-1.3l-.9.6c-.2.3-.2.7-.4 1s-.1.3-.3.1a.9.9 0 01-.7-.3 1.9 1.9 0 01-.5-.9 3.6 3.6 0 01.7-2.4c.3-.7-.6-1.2-.9-.6s-1.3 2.6-.6 3.9 1.8 1.8 2.8 1.3.3-.8.6-1.3 1.7-.7 2.4-.6 2.7 1.5 4.2 2.4a5.6 5.6 0 004.2 0 13.6 13.6 0 004.3-1.8c1-.7 2.2-1.6 1.9-3a22.3 22.3 0 00-2.2-4.7c-.3-.6-1.2-.1-.9.5z"/><path d="M265.4 159.8a50.8 50.8 0 001.6 15.5m-.2.1a2.5 2.5 0 01-1.2 1.5 10.5 10.5 0 01-2.1.6" fill="#fff"/><path d="M262.6 183.8c-.1 1.4-.1 2.8-.3 4.2a.4.4 0 00.3.6.6.6 0 00.7-.3 34 34 0 00.3-4.5.5.5 0 10-1 0z"/><path class="d" d="M254.4 218.4l-2.6-.4-4.4-.7-1.5-.2h-.4l-.3-.2-.6-.6a31.8 31.8 0 00-5.9-5.1c-.6-.4-1.1.5-.6.9a29.7 29.7 0 013.5 2.7 34.4 34.4 0 012.7 2.7 3.8 3.8 0 002.7.9l4.4.7 2.7.4c.6.2.9-.8.3-1z"/><path d="M286.9 158.2c.8 6.4-.3 12.8-1.7 19s-2.8 12.2-4.2 18.2a24.5 24.5 0 01-2.8 8.4c-1.5 2.3-3.2 4.4-4.8 6.6s-1.6 2.3-2.2 3c-3.1 3.2-7.5 4.5-11.8 5-.6.1-.7 1.2 0 1.1 4.1-.5 8.3-1.7 11.5-4.4a11.8 11.8 0 002.3-2.7c3.1-4.2 6.7-8.2 8.1-13.3s2.9-12.7 4.3-19 3.3-14.5 2.3-21.9c0-.6-1.1-.7-1 0z"/><path class="d" d="M221.7 190.8a8.4 8.4 0 001.4 2.4 10.4 10.4 0 01.9 3 13.5 13.5 0 00.4 2.8c.3.9 1.1 1.4 1.7 2.2s.6 1.8 1.1 2.6a4.9 4.9 0 001.8 1.7 10.5 10.5 0 002.3 1.3c.8.2 1.9 0 2.5.6s1.2-.3.8-.7a3 3 0 00-1.8-.8 5.7 5.7 0 01-2.6-.8 6.1 6.1 0 01-2.2-2c-.4-.7-.5-1.6-1-2.4s-1.4-1.3-1.7-2.2a24.8 24.8 0 01-.3-2.7 11.2 11.2 0 00-.8-2.6c-.4-.9-1.3-1.7-1.5-2.7a.5.5 0 10-1 .3zm-4.2-7.5c-2.3-1.2-4.7-2.3-6.9-3.7s-.8-2.5-1.6-3.7-1.3-1.2-1.5-2.4l-.3-3.1a89.6 89.6 0 00-3.1-13.4c-.6-2.2-1.4-4.4-1.9-6.6s-.3-2.6.8-3.5a3 3 0 013.5.1c2 1.2 2.2 3.7 3.4 5.6s3.2 2.8 4.2 4.8 1.2 0 .9-.6-3.2-2.9-4.3-4.9-1.4-4-3.2-5.4a3.8 3.8 0 00-6.3 3.9 69.4 69.4 0 002.2 7.8c.7 2.7 1.5 5.4 2 8.1s.5 2.6.7 3.9.2 2.7.5 4a3 3 0 001.2 1.9c.9 1 .6 2.3 1.1 3.3s2.1 1.7 3.1 2.2l5 2.6c.6.4 1.1-.5.5-.9z"/><path d="M212.6 159.5c-1-.7-2.7-1.8-3.7-.5s-.4 2.7.3 3.9a10.1 10.1 0 011.2 2.3 18.3 18.3 0 01.6 2.5 10.7 10.7 0 001.4 4.6c.3.5 1.3 0 .9-.6-1.4-2.2-1.1-5-2.1-7.4s-1.5-2.2-1.7-3.4 0-1.6.8-1.4a4.4 4.4 0 011.8.9c.5.4 1.1-.6.5-.9z"/><path class="e" d="M278.2 103.2a23.1 23.1 0 013.8 6.4c.3.6 1.2.4 1-.3l-.3-1.5-1 .4c.7.9 1.8 2 2 3a17.6 17.6 0 01.3 3.3c0 .4.4.6.8.4s.2 3.6.2 4a11.8 11.8 0 00.2 2.6 2.4 2.4 0 001 1.4c.2.2.6.1.6.6s-.7 1.1-.8 1.3a9.6 9.6 0 00-.7 5 32.1 32.1 0 01.1 6.2 7.2 7.2 0 00.3 2.5c.3.9 1.1 1.6 1.3 2.4s-.6 2-.6 2.8a6 6 0 00.6 2.3 9.8 9.8 0 01.8 2.8 8.1 8.1 0 01-.6 3.1 4.8 4.8 0 00.7 4.5c.4.5 1.1-.2.7-.7s.2-4.4.3-6.4-1.4-3.6-1.5-5.6.7-1.6.7-2.6a3.7 3.7 0 00-.9-1.9c-1.3-2-.4-4.4-.6-6.6s-.7-4.5 0-6.6 2.2-2.6.9-3.6-.9-.2-1.3-1a5.5 5.5 0 01-.1-1.8l-.2-3.4c0-1-.2-2.8-1.7-2.2l.8.5a15.8 15.8 0 00-.3-3.8c-.2-1-1.4-2.2-2.1-3a.5.5 0 00-.9.4l.3 1.5 1-.3a24.2 24.2 0 00-4.1-6.9c-.4-.5-1.1.3-.7.8z"/><path d="M272 103.9a23.2 23.2 0 00-3.8-2.1l-.3 1.1a2.6 2.6 0 011.3.6 3.1 3.1 0 01.9 1.1.5.5 0 00.7.1.4.4 0 00.2-.7 5.2 5.2 0 00-2.8-2.2.6.6 0 00-.6.4.6.6 0 00.3.7 15.5 15.5 0 013.6 1.9.4.4 0 00.7-.2c.2-.2.1-.5-.2-.7z"/><path class="e" d="M269 101.1l-4.3-.3c-.6-.1-.7.7-.3 1l.7.4v-.9c-3.3.7-6.5-1.3-9.8-1-1.5.1-2.9.6-4.4.8a56.5 56.5 0 01-5.9.4 14.4 14.4 0 00-4.5.9 38.6 38.6 0 01-4.8 1.6c-1.4.2-2.9 0-4.2.7a22.6 22.6 0 00-2 1.3 12.1 12.1 0 01-2 .9 9.2 9.2 0 00-2.8 1.4c-1 1-1 2.1-1.1 3.4s-4.1 3.1-3.8 6.1c.1 1.4.9 2.7 1.2 4.1a9.9 9.9 0 01-.5 4.8c-.8 2.8-2 5.4-2.3 8.3s1.9 7.2 1.1 10.9-3.3 6.5-6.1 8.7l.5-.2h-.6c-.6-.1-.9.9-.2 1a1.4 1.4 0 001.1 0 9 9 0 001.8-1.6 19.3 19.3 0 002.9-3.5 11.7 11.7 0 001.7-7.7c-.3-1.7-.9-3.3-1.1-4.9a12.6 12.6 0 01.4-5.1c.8-2.7 2.1-5.4 2.4-8.2a9.7 9.7 0 00-.4-3.8 11.3 11.3 0 01-.8-2.4 2.4 2.4 0 011-2.5 9.7 9.7 0 002.3-2.2c.8-1.4 0-3.2 1.3-4.3a13.3 13.3 0 013.4-1.6c1.6-.7 2.8-2.2 4.6-2.3a13.8 13.8 0 004.5-.8 40.1 40.1 0 014.9-1.6 44.4 44.4 0 016.3-.4c1.9-.2 3.6-.7 5.4-1 3.7-.6 7.1 1.7 10.8.9.5-.1.5-.7.1-1l-.7-.4-.2.9 4.3.3c.7.1.7-1 0-1z"/><path d="M288.1 155.6a23 23 0 012.1-10 3.6 3.6 0 00.2-2.9 3.6 3.6 0 01-.2-2.9 14.7 14.7 0 001-2.2c.4-1.2-1-1.9-.7-2.9s1.5-1.7 1.9-2.8-1.5-4.4-1-6.7a.5.5 0 00-.5-.6l-.7-.8c.4-.6-.5-1.1-.9-.6a1.6 1.6 0 001.6 2.4l-.5-.6a5.5 5.5 0 00.4 3.1c.4 1.2 1.1 2.5.5 3.7s-1.7 1.7-1.9 2.8a2 2 0 000 1.1c.4.9 1 1.1.5 2.3s-1.1 2.2-1 3.5.6 1.3.7 2-.5 1.9-.8 2.8a22.7 22.7 0 00-1.8 9.3.6.6 0 001.1 0z"/><path d="M290.2 123.4c.1-.9 1.2-1.4.9-2.4s-.9-1.3-1.6-1l.6.4-3.5-11.6c-.2-.6-1.2-.3-1 .3l3.5 11.6a.6.6 0 00.7.3c.3-.1.3.3.2.5a.9.9 0 01-.3.5 1.8 1.8 0 00-.5 1.1c-.1.7.9 1 1 .3z"/><path d="M286.5 108.6a1.1 1.1 0 00.3-1.5c-.3-.7-1-.8-1.6-1.1s-.3-1.6-.4-2.3a5.8 5.8 0 00-.8-2.2 6.5 6.5 0 00-3.5-2.8 2.9 2.9 0 01-1.2-.7 4.6 4.6 0 01-.7-1.4l-1.3-3.1a.5.5 0 00-1 .1 18.7 18.7 0 01-.4 4.2.5.5 0 10-1-.3c-.4 1.1 1.2 1.5 1.9.7s.3-1.1.4-1.7l.2-2.9h-1.1l1.2 2.9a7.2 7.2 0 00.9 2 4.2 4.2 0 001.8 1.1 5.7 5.7 0 012.1 1.3 5.1 5.1 0 011.5 3.9c-.1.7-.1 1.3.5 1.7l.8.5c.1 0 1 .5.8.6s0 1.3.6.9z"/><path d="M275.3 97.1c-1.4-.3-2-1.6-2.9-2.6a9.8 9.8 0 00-3.6-2.7l-2.1-1a10.5 10.5 0 00-2.3-.8c-1.3-.2-3.1.4-2.8 1.9a.6.6 0 001.1-.2c-.2-.9 1.4-.7 1.8-.6a13.1 13.1 0 012.1.8 17 17 0 013.5 1.9 8.2 8.2 0 012.4 2.5 4.2 4.2 0 002.5 1.8c.7.2 1-.9.3-1zm-41.8-2.7c-6.7 2.6-13.8 5.3-19.4 10.2a35 35 0 00-6.8 8.9c-1.2 2.2-3.8 5.8-1.6 8.1.5.5 1.3-.2.8-.7s-.1-3.4.6-4.8 1.5-2.8 2.4-4.1a29.5 29.5 0 016.7-7.8c5.2-4.1 11.5-6.5 17.6-8.8.6-.3.4-1.3-.3-1z"/><path d="M205.7 121.5a19.2 19.2 0 01-3.2 8.9.5.5 0 00.8.6l1.8-1.5-.9-.4a7.2 7.2 0 01-2.6 4.4.6.6 0 00.4.9c1.5-.1 1.7 1.8 2 2.9l1 4.2c.2.6 1.2.3 1.1-.3s-.9-3.9-1.5-5.8a2.6 2.6 0 00-2.6-2.1l.4.9a7.5 7.5 0 002.8-5.1c.1-.5-.6-.6-.9-.4l-1.7 1.6.8.6a19.7 19.7 0 003.3-9.4c.1-.7-1-.7-1 0z" opacity=".57"/><path d="M205.4 141.8a14 14 0 01.6 5 .6.6 0 001.1 0 18.8 18.8 0 00-.7-5.3.5.5 0 10-1 .3zm26-48c2.2-1.6 4.6-3.2 7.4-2.7a3.9 3.9 0 012.9 1.9 7.7 7.7 0 001.7 1.9c1.8 1.2 3.4-.9 4.8-1.8a21.6 21.6 0 017.8-2.9c.7-.1.4-1.2-.3-1a20.6 20.6 0 00-7.3 2.6c-1.1.6-2 1.5-3.1 2.2s-2.2-1-2.9-1.9c-3.1-4.1-8.3-1.5-11.6.8-.5.3 0 1.2.6.9z"/><path d="M256.3 90.1a.6.6 0 000-1.1.6.6 0 000 1.1z"/><path class="e" d="M237.6 99.3a52.3 52.3 0 00-9.7-.1.5.5 0 000 1 7.5 7.5 0 012.6.4l.8.3c-.1.3-.2.6-.5.7l-1.1.5a18.4 18.4 0 01-5.1 1.9.5.5 0 00-.2.9c.6.6-3.1 3-3.5 3.4l-3.9 2.9c-.6.4 0 1.3.5.9l5.9-4.5c1-.7 3.1-2.1 1.7-3.4l-.2.9a30.4 30.4 0 003.9-1.4 9.6 9.6 0 003.4-1.9c1.8-2-3.2-2.6-4.3-2.6v1a52.2 52.2 0 019.7.2c.7 0 .7-1 0-1.1zm-27.8 27.8v-1.7c.1-.6-.8-.7-1-.1a73 73 0 01-2.6 7.9c-.2.5.5.9.8.5a7.6 7.6 0 012.3-1.7l-.6-.2c1.1 2 .3 4.3.3 6.4a23.9 23.9 0 001.1 6.5c.7 3 1.9 5.8 4.9 7 .6.2.9-.8.3-1-3.3-1.4-4.1-5.4-4.7-8.5a16.2 16.2 0 01-.3-6.2 8.4 8.4 0 00-.7-4.7c-.1-.2-.4-.4-.6-.3a6.8 6.8 0 00-2.7 2l.9.5a73 73 0 002.6-7.9l-1-.2v1.7a.5.5 0 001 0z"/><path d="M212.9 171.4c-1.6 1.7.7 4 2.6 3.6a.6.6 0 00.4-.7c-.5-1.3-2-1.2-3.1-1.6s-.9-3-1-4.4a19 19 0 00-1.5-4.6c-.6-1.6-1.2-3.4-.5-5s-.6-1.1-.9-.5c-1.5 3.4 1.1 6.5 1.7 9.8.3 1.5-.3 3.3.6 4.7a2.4 2.4 0 001.6 1.1c.5.1 1.9.2 2.1.8l.3-.6c-.8.2-2.4-.9-1.5-1.8s-.3-1.3-.8-.8zm36.1 2.7a51.4 51.4 0 00-7.9 13.1 3.8 3.8 0 00-.3 1 9.4 9.4 0 00.7 2.2l1.5 4.4c.9 3 1.9 6 2.9 9 .2.6 1.2.3 1-.3l-2.6-8-1.3-4c-.5-1.3-1.3-2.9-.8-4.2a54.6 54.6 0 017.5-12.5c.5-.5-.3-1.3-.7-.7zm22.7 2.1l2.6 3.6c.7 1.1 1.6 2.4 1.4 3.7a.5.5 0 00.3.7c.3 0 .7-.1.7-.4a6.6 6.6 0 00-1.3-4.3c-.9-1.4-2-2.7-3-4a.4.4 0 00-.7 0c-.3.2-.2.5 0 .7z"/><path d="M256.6 197.9a10.5 10.5 0 002.4-1.5 36.3 36.3 0 012.7-2.8c1-.8 2.2-1.2 3.1-.3a5.6 5.6 0 011.1 1.9c-1.5-.8-3.1-.1-4.6.7s-2.9 2-4.5 2.2" fill="#75473f"/><path d="M256.8 198.6a8.7 8.7 0 002.6-1.6l2.1-2.2c.5-.5 1.3-1.3 2.1-1.3s1.3 1.2 1.5 1.9l1.1-.9c-3.6-1.8-6.2 2.4-9.6 2.9a.8.8 0 00-.5.9c.1.5.5.6.9.6a11.5 11.5 0 004.3-2.1c1.2-.7 2.8-1.7 4.2-1s1.3-.2 1.1-.8a4.8 4.8 0 00-1.9-2.7 3.1 3.1 0 00-3.1.4c-1.9 1.3-3 3.6-5.2 4.5a.8.8 0 00-.5.9c.1.3.6.7.9.5zm-.5 7.5a14.9 14.9 0 014.9-2.8l-.6-.8-.6.8a.5.5 0 00.6.8 3.1 3.1 0 011.9-.4l2.5.3c.6.2.9-.9.2-1s-3.7-.8-5.1.2l.6.8a3.9 3.9 0 00.8-1 .5.5 0 00-.6-.7 16.2 16.2 0 00-5.4 3.1c-.5.4.3 1.2.8.7zm25.5-47.8a2.8 2.8 0 011.2.4l1.1.5 1.2.6h.2s-.1-.1 0-.1a.4.4 0 01.1.3l.7 1.5c.4.5 1.3 0 .9-.6a2.5 2.5 0 00-.4-.7v-.2c0-.1 0-.1-.1-.2a1.4 1.4 0 00-.2-.6.8.8 0 00-.5-.5 6.7 6.7 0 00-1.2-.6l-1.2-.6a3.9 3.9 0 00-1.7-.6.6.6 0 000 1.1z"/><path d="M280.6 157.8c.1-.1.5.4.6.6l.7.9a16.6 16.6 0 011.6 2.1 2.2 2.2 0 01.5.8.6.6 0 00.8.2.7.7 0 00.2-.7l-.5-.8-.9-1.1a18.4 18.4 0 00-1.7-2.2 1.8 1.8 0 00-1.6-.9c-.7.2-.4 1.2.3 1.1zm-12.5-1.8a2.1 2.1 0 00.8 1.6 4.4 4.4 0 001.5 1.2 6.5 6.5 0 002 .5l2.3.4a.4.4 0 00.6-.3.6.6 0 00-.4-.7l-1.9-.3-1.8-.4a2.8 2.8 0 01-1.3-.9c-.3-.3-.8-.6-.8-1.1s-1-.7-1 0zm-12.9-1.5a21.9 21.9 0 01-14.5.5.5.5 0 10-.3 1 22.4 22.4 0 0015.1-.5c.6-.2.3-1.2-.3-1z"/><path d="M237 155.3h-3.3v1l2.8.5a3.3 3.3 0 001.4 0l1.6-.3.7-.2h.3v-1a22.3 22.3 0 00-4 1.6 13.2 13.2 0 00-3.5 2.3c-.5.5.3 1.2.8.8a12.7 12.7 0 013.3-2.2 16.9 16.9 0 013.7-1.5.5.5 0 000-1 2.9 2.9 0 00-1.3.1l-1.6.4h-.8c.2 0-.1-.1-.2-.1h-.3a14.5 14.5 0 00-2.9-.4c-.7-.1-.7 1 0 1l3.3.2c.7 0 .7-1 0-1.1zm16.7.8a37.5 37.5 0 01-5.7.9l-1.2.2-1.1.5a6.1 6.1 0 01-3-.2c-.6-.2-.9.8-.3 1a7.7 7.7 0 003 .3l1.2-.4a3.5 3.5 0 011.4-.3 41.7 41.7 0 006-1c.6-.2.3-1.2-.3-1zm16.2.1a.1.1 0 01.1.1h.4l1.1.5 2.4 1a6.1 6.1 0 003 .2 17.3 17.3 0 013.9-.2.5.5 0 00.3-1c-2.3-.5-4.8.8-7 0l-2.5-1.1c-.5-.2-1.2-.7-1.7-.6a.5.5 0 100 1z"/><path class="a" d="M255.7 143.6c0-.4-1.6-1.3-2.6-1.3s-.6.1-.8-.1a.3.3 0 010-.4c.1-.6-1.3-1.1-2.5-1.1s-2.3.3-3.5.2h-2.4a27.6 27.6 0 00-4.8.9c-2.5 1.4-2.2.8-7 2.2-2.2.7-5.8 2-5.5 2.6s3.2.6 5.5-.3l2.4-1.1a21.9 21.9 0 013.8-1.1c3.1-.6 4.9 0 10.1.1 1.2-.1 7.1 0 7.3-.6zm28.5 2.8c.4-.4-2.7-3.2-4.3-4.1a2.7 2.7 0 00-1.6-.5h-.8a4.6 4.6 0 01-2-.5c-1.6-.7-6-1-4.7-.3s-4.3 1.1-4.1 2 1.6 1.3 2.8 1.5 2.1-.6 4-.9 6.9.9 7.9 1.4 2.6 1.5 2.8 1.4z"/><path d="M298 124.2a4.4 4.4 0 01-.2-2l-.7.6 4.9.2a.7.7 0 00.6-1.1l-2.8-4.8c-.6-.8-1.9-.1-1.3.8l2.8 4.7.7-1.1-4.9-.2c-.3 0-.7.2-.7.5a5.4 5.4 0 00.3 3.1.8.8 0 001.1.3.8.8 0 00.2-1zm9.4-6.7l-3.8-5.2-.6 1.1a89.1 89.1 0 0110.3.7c.6.1 1.2-.4.8-1.1a58.5 58.5 0 00-6-8.1c-.7-.7-1.7.3-1.1 1.1a49.3 49.3 0 015.8 7.8l.9-1.1a77.1 77.1 0 00-10.7-.8.9.9 0 00-.7 1.2l3.8 5.1c.6.8 1.9.1 1.3-.7zm11.1-9.7c-1.3-1.5-2.6-3.1-3.8-4.8s-1.1-1.6-1.7-2.4l-.8-1.2a2.1 2.1 0 01-.4-.6c-.3 0-.2.1.3.2 3.6 1.7 7.2 3.5 10.7 5.4a.8.8 0 001-1.2 121.3 121.3 0 01-10.4-15 .8.8 0 00-1.3.8 143.9 143.9 0 0010.6 15.3l.9-1.2-7-3.6-3.6-1.7c-.7-.4-1.6-.9-2.4-.3a1.4 1.4 0 00-.1 2 23.7 23.7 0 002.2 3.3c1.5 2.1 3.1 4.1 4.7 6.1s1.7-.4 1.1-1.1z"/><path class="b" d="M254.1 215.6c.6.4 4.1 6.3 9.5 5s7.1-6.9 7.6-8.9"/><path d="M253.8 216l.7.9 1.5 1.6a9.7 9.7 0 004.5 2.6c3.9.9 7.9-1.7 9.7-5a21.9 21.9 0 001.5-4.3c.1-.6-.9-.9-1-.2-.6 2.7-1.7 5.4-4.1 7.1a8 8 0 01-5.8 1.4 10 10 0 01-4.2-2.5 18.4 18.4 0 00-2.3-2.5c-.5-.4-1 .6-.5.9z"/></svg>