<svg xmlns="http://www.w3.org/2000/svg" viewBox="0 0 500 600"><path d="M205.7,149.9c.6-6-6.9-10.6-3.7-16.1,2.3-10.5.9-22.9,13.3-28s9.5-16.3,25.6-10.4c38.4-17.5,53.8,31.6,43.6,60.7-3.9-16.9,4.4-46.8-17.8-52-15.7,4.6-39.7-2.1-46.4,17.5-1.7,3.2,2,6.3,1,9.8s-2.4,6.9-2.1,10.4c1.8,6.8,2.8,10.7-2.7,16.3-4.1,2.9-7.9-5.7-11.2-7.7" fill="#fdf7dd"/><path d="M206.2,149.9c.7-6-6.9-10.8-3.5-16.2,2-10.3,1-23,12.9-27.4S226.5,89.6,240.5,96c38.4-17.5,53.6,30.6,43.5,60h1.1c-3.9-17.1,3.5-40.6-13.8-51.4-10.4-1.7-22.5,1.4-33.2,2.6S217,117,220.3,126.7c2.1,5.6-2.8,11.2-1.3,16.7s1.3,10.4-3.2,14.5c-1.9,3.1-11-11.3-10.9-7.2,3.2,2.2,7.3,10.2,11.2,8.3,7.6-5,4.1-12.9,3.8-20.1,5.5-14.2-3.8-11.5,4.1-23.1,3.7-9.2,39.5-12,47.8-9.7a23.9,23.9,0,0,1,10.1,20.1c-.2,7.2,1.4,47.4,5.5,20.1,4.3-29.2-11.6-67.2-46.5-51.5-15.1-5.5-11.7,3.1-22.5,8.7C201.2,110,204.9,122,200.5,136c.3,4.8,4.8,8.5,4.7,13.8,0,.6,1.1.7,1,0Z" fill="#fdf7dd"/><path d="M262.4,219.2c11.6-1.8,15.3-13.7,18.1-23.3,6.5-22.4,5-44.4,1.3-67.1.5-10.8-2.2-26.4-16.2-26s-35.3-1.3-44.1,13.5c-1.9,7.8-1.7,17.2-3.7,25.3,1.8,7.3,2.1,13.9-5.1,17.6-21.7-29.5-6.8,9.2-5.1,17.9-.3,4.1,6.4,7.3,7.3,9.5,12,24.7,18.6,32.9,38.7,33.7" fill="#f99a6b"/><path d="M262.5,219.7c21.7-5.3,21.8-41.7,23.5-60.1-2.7-15.8-2.3-32.8-6.2-48.3s-49.3-9-57.3,2.3c-4.9,7.9-2,18-5.2,26.7,1.2,6.6,2.6,14.9-4.8,18.5l.7.2c-22.1-31.5-8.7,12.6-4,23.1,1.7,2.1,3.6,2.3,5.1,4.1,1.8,6.7,6.3,12.7,10,18.5,6.8,9.9,16.6,17.2,29.3,16.1.6,0,.6-1.1,0-1-6.3-.2-13.3-1-18.6-4.7-8.4-8.3-16.1-18.3-19.9-29.5-5.7-3.3-7.9-9.8-9-16,0-3.6-8.1-20.4-2.8-20.4,3.1.9,6.7,8.2,9,10.3,9.2-2,6.7-13.4,6.2-20.4,3.6-11.5-.8-27.3,14.3-31.4,10.7-3.6,34.5-8,43.2-.1,8.9,12.9,3.8,29.6,8.4,44.9,2,14.1-1.3,28.1-4.2,41.8-1.8,8.2-5.1,18.7-13,22.8C266.3,218.1,260,218.2,262.5,219.7Z"/><path d="M279,157.6c-2.2-2.4-5-4.4-8.4-3.3-.9.6-5.2,1-3.2,2.1s8.1-.6,10.6,1.5c3.5-2.2-8.7-2.9-10.3-2.5l-.2,1a16.2,16.2,0,0,1,6.9-1.2C275.2,155.3,279.6,160.3,279,157.6Z" fill="#fff"/><path d="M237.2,158.7c4.4-1.1,8.8-4.3,13.4-1.8l.3-1.1c-11-.3-13.1,1.8-.3,1.1C254.3,152.6,232.9,157.2,237.2,158.7Z" fill="#fff"/><path d="M263.7,160.6a51.7,51.7,0,0,0,2.3,15.1" fill="#fff"/><path d="M265.8,175.8c-.1,1.5-2,1.9-3.1,2.3" fill="#fff"/><path d="M284.8,158.1c2,10.9-2.6,26.6-4.1,37.5s-9,21.8-20.2,23c-.9,3.3,10.1-2.1,11.3-3.8,9.6-10.1,10.6-22.3,13-36.1.6-3.1,3.5-21.8,0-20.6Z"/><path d="M287.6,125.3c.2-.3-.1-.7-.5-.7-2.4-.3,2-4.2-1.1-4.5-.3-.3-3.7-10.8-4.1-11,2.2-2-2.5-2.1-1.8-3.9.5-4.5-5-4.6-6.5-7.6-2.7-6.2-2.1-3.2-2.6.9-3.3-1.4-5.5-5.3-9.5-6.1-1.6-.7-5.1-1.2-4.9,1.4a.4.4,0,0,0,.6.3h.2c3.1-6,15,11.6,14.8,3.2.9,4.1,7.3,3.4,6.9,8.3-.4,2.3,2.4,1.7,2.4,3.5-1.5-.4,3.8,11.5,3.6,11.8a.5.5,0,0,0,.6.4h.2c.2-.1.2.5.2.5s-1.3,3.5.5,4c2.7,9.3.5,3.5-.4,10.1,1.9,1.7-.6,3.5-.3,5.6,2.3,4.4-3.3,10.2-.6,14.5,1.2-2.7.2-7,2-10.1s-.8-3.9-.2-6a6.7,6.7,0,0,0,0-5C290.2,131.1,287.9,130,287.6,125.3Z"/><path d="M229,97.6c-11.2,4.6-28.3,14.4-26.1,28.1a16.2,16.2,0,0,1-2.6,8.8h0c-.4,1,.8,1.1,1.2.3.1,1.4-3.1,3-1.6,3.8a3.6,3.6,0,0,1,2.1,2.7c.7,2.9,2.7,6.2,2.5,9.3,3,1.4-1.8-12.3-3.5-12.9.8-1.1,2.8-4,1.4-5,2.6-4.4.2-7.6,1.7-12.3a27.2,27.2,0,0,1,8.4-12.2C214.3,104.8,231.9,98.9,229,97.6Z"/><path d="M250.7,91.4a20.2,20.2,0,0,0-9.8,5.1c-6.1-1.2-5.3-7.3-14.6-.2-1.9,1.5.2,1.2.7.8,3.9-3.9,8.8-3.8,12,.7,1.8.8,3.4-1.3,4.7-2.3S253.3,92.5,250.7,91.4Z"/><path d="M251.3,92.3a.6.6,0,0,0,.3-.8l-.3-.3a.6.6,0,0,0-.3.8Z"/><path d="M255,145.7c.1.3-1.2,1.6-2.3,1.8s-.5.1-.7.4a3.7,3.7,0,0,1-2,2.1c-7,1.8-9.9,1.2-17.8.4-2.3-.2-6.1-.8-6-1.5,1.8-2.5,8.9.5,12,.1S250.8,144.9,255,145.7Z" fill="#fdf7dd"/><path d="M283.5,146.7c-5,8.4-26.8-.6-15.3-1.2C272.2,148.1,279.5,148.3,283.5,146.7Z" fill="#fdf7dd"/><g opacity="0.5"><path d="M270.5,135.7c-8.3,2.3-16.9.9-25.4.6.1,0-10.2,1.8-7.1,3h0c10.8-4.3,21.9,1.1,32.8-2.5C271.4,136.6,271.2,135.5,270.5,135.7Z"/><path d="M271.5,131.1c-2.4.4-25,0-22.1,3.5C251.2,131.6,276.7,133.3,271.5,131.1Z"/><path d="M252.8,128.5c-1.8-.5-14.5,0-11.6,2.3,7.9-2.5,16.5-1.4,24.8-2.4C267.5,125.5,255,129,252.8,128.5Z"/><path d="M255.7,218.9h0c-10-.5-8.2-.7-15.8-6.3-2.5.3,2.1,2.5,2.7,3.2s3.6,3.9,5.8,3.5S257.7,221.1,255.7,218.9Z"/><path d="M233.7,207.6c-7.9-.8-6.7-11.2-11.2-15.1-1.1,1.7,2.3,3.6,2.1,5.7.8,5.2,4.7,10.4,10.2,10.8C236.9,209.6,234.9,207.1,233.7,207.6Z"/><path d="M285.5,157.4c-2-3.6,1.5-6-1.7-11.5.1-2.5,1-3.3-.8-5s-.4-4.4-.7-6.4c-1.9-5,1.9-9.2.3-9.9s-.3-6.7-2.8-8.2c1.4-1.6-7.7-14.2-7.2-10.3h0a25.7,25.7,0,0,1,4.1,6.2h0a.5.5,0,0,0,.4.5.4.4,0,0,0,.6-.4c1.7,1.1.2,4.9,2,5,.3,3.1.2,6.5,2.2,8.6-1.9,4.9-1.4,12.2,1.2,16.7-.7,2.6.1,5.2,1.2,7.7s-1.7,5.5.4,7.7C285.1,158.6,286,157.9,285.5,157.4Z"/><path d="M220,119.1c5.1-5.7-1.1-6.2,11.3-10.6,6.4-2.3,13.3-3.4,19.9-4.7,3.6-1.1,7.9,1.9,11-.1.6-.1,5.2.5,3.2-1.1v-.2c-.6.3-5.4-.7-4.9.7-9.9-1.3-34.6,1.8-39.4,11.2.6,3-3.5,3.8-3.5,6.7,2.9,5.8.4,11.2-.7,17.2,1.3,6.2,3.5,14.3-3.2,19-4.8-2.7-1.4-19.5-5.9-16.8.4-1.4.7-2.7,1.1-4s.4-.3.4-.5h.1c.7-8.5-6.8,12.6-.7,5.1,1.1,5.5.2,12.2,4.2,16.9-.7-.1-.9.9-.3,1l3.1.9c1.2.4-.6-1.4-1.1-1.8,8.1-5.8,2.9-14.3,3.7-22C222.8,127.5,216.9,122.2,220,119.1Z"/><path d="M214.2,115.8c1.5-1.8,7.5-4.9,7.5-7.4,1.8-.9,8.4-2.5,6.1-5a52.3,52.3,0,0,1,5.6,0c1.4-2.5-7.8-.7-9.6-.8-1.8,1.6,2.1.8,2.9,1.4s-6.2,3-6.3,4.2C222.4,109.5,210.3,115.8,214.2,115.8Z"/></g><path d="M215.6,177.3c-.4-1-1.5-1.1-2.5-1.3s1-2.2-.5-1.5c-1.2-2.1-1.2-4.6-2.1-6.7s-3.3-3.9-1.1-4.9c.7.2,3.2,1.8,2.2-.1h0a4.4,4.4,0,0,0-2.7-.9c-3.6-1.2.8,7.9,1.2,9.6s-.2,3.1.8,4.4S214.9,179.5,215.6,177.3Zm-4-2.7a4.7,4.7,0,0,0,.5,1A3.1,3.1,0,0,1,211.6,174.6Z"/><path d="M273.2,154.3c-1.5-.4-2.2,2.4-.7,2.9s3.8-2.4,1.3-3c-5.5.6-.6,6.8,1.5,1.6.6-3-4.6-3-4.1.1s3.6,2.4,3.9.2-4-1.7-2.8.3,3.3-.7,1.2-.6c.2-.1-.4.1-.4-.1h0c0-.1-.1,0,0,.1s-.1.3,0,.2a1.1,1.1,0,0,1,.7-.3c.3,0,0,.1.1.1h.1c0,.1-.1.2,0,.1h-1.5l-.2-.2c.1.1,0-.1,0-.1h0v-.4h0a.4.4,0,0,1,.1-.3c-.1.1,0,0,0-.1a6.8,6.8,0,0,1,1.9-.3v.2h0v.2h-.1v.2h-.3c-.2.3-1.2.2-1.5.2V155h0v-.5h1.4c.1.1-.1.1.1.1h-1.3c0-.4.1,0,.1-.4s1.2-.8.4-1Z"/><path d="M246.4,154.8a1.3,1.3,0,0,0-1.5,1,1.2,1.2,0,0,0,1,1.4c1.5.9,3.7-1.5,2.2-2.6a3.6,3.6,0,0,0-3.5.1c-3.3,3,3.8,4.6,3.6.9-.4-1.3-3.1-1.9-3.2-.2s1.2.6,1,0h0s.1-.1,0-.1h1.1c0,.1,0,.2-.1.2l-2.2.3v-.2h.1c-.1.1,0,0,0-.1a3.3,3.3,0,0,1,2.7-.6s-.1-.2,0-.2v.4l-1.6-.2c0-.1-.1,0,0-.1a.5.5,0,1,0,.4-1Z"/><path d="M256,150.8c.2-.5,2.9-2.1,2.3-2.8s.4-5.9-.9-7.4c-1.5,1.8.2,5.3-.3,7.7C256.7,148.7,253.7,151.3,256,150.8Z"/><path d="M260.9,148.4a.5.5,0,0,0,.5.3c.2.6,2.5,3,2.9,2.5s-1.8-2.7-2.4-3.2C260.8,136.3,258.9,139.3,260.9,148.4Z"/><path d="M262.4,189.1c1.3-.3.5-2.9.7-4.8C261.8,181.9,261.5,189,262.4,189.1Z"/><path d="M283.4,161.9c-.7-1.6-2.7-2.3-3.7-3.4-1.1-5.7-12-7.8-14.4-1.8a.5.5,0,0,0,0,.7c-1.6,3,9.2,4.8,6.3,2.6-1.9-.4-5-.1-5.5-2.5,3.4.2,7,.1,10.1,1.3h0c1.4.8,2.4,2.6,3.5,3.8s1.2.1.9-.5a21.7,21.7,0,0,0-2.4-2.9C279.8,158.8,283.7,164.6,283.4,161.9Zm-5.9-3.4c-2.9-2.3-7.5-1.7-11-2,3-3.7,10.3-3,11.9,1.8-.3,0-.7,0-.8.3Z"/><path d="M253.2,158h.1c4.8.5-6.8-6.6-12.9-2.7-1.5,1-2.9,2.4-4.3,3.4-4.1-.4-5.2,1-.2,1.3-4.7,2.5-4.4,4.7.4,1S247.5,158.3,253.2,158Zm-12.7-1.5c3.4-1.7,8.6-2.2,11.6.4-4.7.2-9.6.3-14.1,1.6Z"/><path d="M243.9,161.5c1.1-.9,10.4-1.4,7.9-3-2.1.7-4.4.8-6.5,1.4a4.4,4.4,0,0,1-3.7.4C239.4,161.2,243,161.9,243.9,161.5Z"/><path d="M248.9,176.1c-1.6.9-9.9,11.2-6.4,10.4C242.3,183.7,251.7,175.8,248.9,176.1Z"/><path d="M272.6,177.1c-.5-.6-1.1-1.6-2.1-1.6a94.6,94.6,0,0,1-5.6-20.2c0-.7-1.1-.7-1,0-.3,5.7,4,10.4,3.2,16.1.7,1.6,3.6,4.2,1.5,5.7-7.7,7.4-11.8-4.3-16.1,2.4a1.6,1.6,0,0,1-1.3-1.1c1.5-5.8-2-2.8-.7.9q1.2,1.9,2.7,1.2c1-.5.4-.8.7-1.3a2.7,2.7,0,0,1,2.2-.8c4,3.1,11.2,3.1,14.3-1.9,2.2,1.8,5,4.8,5.2,7.8s1,.7,1,0A22.2,22.2,0,0,0,272.6,177.1Z"/><path d="M264.1,205.2a14.5,14.5,0,0,0-3.6-.1c-1.3-.9-5.7,2.1-5.8,3.6,1.5.4,2.7-2.1,4.2-2.4s1.8-.7,2.7-.2S266,206.7,264.1,205.2Z"/><path d="M259.1,192.5c6.6-4.9,7.4,4.1,5.8,8.7-2.8,1.1-6.4.8-9.3,2.3-6.8.5,1.7-9,3.5-11.2"/><path d="M259.9,193.8c5.4-4.1,4.1,3.2,3.8,6.4.1-.1.5-.1.1-.1s-.3.1-.1.1c-2.7.1-7.8,1-9.1,2.2.5-3.5,3.6-6.4,5.7-9.1,1-8.3-11.3,7.4-8.2,10.5s6.2-.6,9.2-.5c1.4-.2,3.4,0,4.5-1,7.8-20.4-15.2-10.2-5.8-8.6Z"/><path d="M257.7,194.1a62.8,62.8,0,0,1,7.5-.4c.5-4.2-5.2-2.3-6.8-.3" fill="#fff"/><path d="M253.5,201.1c12-4,17.4-1.3,1.4,1.7-.5.3-2,.5-1.7-.5" fill="#fff"/><path d="M254.1,215.6c5.1,8.3,15.4,5.6,17.1-3.9" fill="#f99a6b"/><path d="M253.8,216c5,8.7,16.8,5.3,17.9-4.2-1-2.5-2.5,6.5-5.1,6.9C259.9,224.6,253.5,212.3,253.8,216Z"/></svg>